<?xml version="1.0" encoding="UTF-8" standalone="no"?>
<svg
   xmlns:dc="http://purl.org/dc/elements/1.1/"
   xmlns:cc="http://creativecommons.org/ns#"
   xmlns:rdf="http://www.w3.org/1999/02/22-rdf-syntax-ns#"
   xmlns:svg="http://www.w3.org/2000/svg"
   xmlns="http://www.w3.org/2000/svg"
   viewBox="0 0 309.33331 208"
   height="208"
   width="309.33331"
   xml:space="preserve"
   id="svg2"
   version="1.1"><metadata
     id="metadata8"><rdf:RDF><cc:Work
         rdf:about=""><dc:format>image/svg+xml</dc:format><dc:type
           rdf:resource="http://purl.org/dc/dcmitype/StillImage" /></cc:Work></rdf:RDF></metadata><defs
     id="defs6"><clipPath
       id="clipPath18"
       clipPathUnits="userSpaceOnUse"><path
         id="path16"
         d="m 48,192 28,8 c 0,0 -4,8 -8,8 v 0 c 0,0 -16,0 -20,-16" /></clipPath><linearGradient
       id="linearGradient28"
       spreadMethod="pad"
       gradientTransform="matrix(-12.231405,12.231405,12.231405,12.231405,67.444443,191.44444)"
       gradientUnits="userSpaceOnUse"
       y2="0"
       x2="1"
       y1="0"
       x1="0"><stop
         id="stop24"
         offset="0"
         style="stop-opacity:1;stop-color:#e6e7e8" /><stop
         id="stop26"
         offset="1"
         style="stop-opacity:1;stop-color:#d1d3d4" /></linearGradient><clipPath
       id="clipPath38"
       clipPathUnits="userSpaceOnUse"><path
         id="path36"
         d="m 60,200 c 0,-2.209 2.687,-4 6,-4 v 0 c 3.314,0 6,1.791 6,4 v 0 c 0,2.209 -2.686,4 -6,4 v 0 c -3.313,0 -6,-1.791 -6,-4" /></clipPath><linearGradient
       id="linearGradient48"
       spreadMethod="pad"
       gradientTransform="matrix(7.2118683,-7.2118683,-7.2118683,-7.2118683,62.394066,203.60594)"
       gradientUnits="userSpaceOnUse"
       y2="0"
       x2="1"
       y1="0"
       x1="0"><stop
         id="stop44"
         offset="0"
         style="stop-opacity:1;stop-color:#e6e7e8" /><stop
         id="stop46"
         offset="1"
         style="stop-opacity:1;stop-color:#d1d3d4" /></linearGradient><clipPath
       id="clipPath58"
       clipPathUnits="userSpaceOnUse"><path
         id="path56"
         d="m 76,204 c 0,0 -12,0 -28,-12 v 0 -4 h 50 v 16 z" /></clipPath><linearGradient
       id="linearGradient68"
       spreadMethod="pad"
       gradientTransform="matrix(26.999998,-26.999998,-26.999998,-26.999998,62.5,206.5)"
       gradientUnits="userSpaceOnUse"
       y2="0"
       x2="1"
       y1="0"
       x1="0"><stop
         id="stop64"
         offset="0"
         style="stop-opacity:1;stop-color:#e6e7e8" /><stop
         id="stop66"
         offset="1"
         style="stop-opacity:1;stop-color:#d1d3d4" /></linearGradient><clipPath
       id="clipPath78"
       clipPathUnits="userSpaceOnUse"><path
         id="path76"
         d="m 180,200 28,-8 c -4,16 -20,16 -20,16 v 0 c -4,0 -8,-8 -8,-8" /></clipPath><linearGradient
       id="linearGradient88"
       spreadMethod="pad"
       gradientTransform="matrix(-18.888889,18.888889,18.888889,18.888889,204.11571,188.11571)"
       gradientUnits="userSpaceOnUse"
       y2="0"
       x2="1"
       y1="0"
       x1="0"><stop
         id="stop84"
         offset="0"
         style="stop-opacity:1;stop-color:#e6e7e8" /><stop
         id="stop86"
         offset="1"
         style="stop-opacity:1;stop-color:#d1d3d4" /></linearGradient><clipPath
       id="clipPath98"
       clipPathUnits="userSpaceOnUse"><path
         id="path96"
         d="m 184,200 c 0,-2.209 2.686,-4 6,-4 v 0 c 3.314,0 6,1.791 6,4 v 0 c 0,2.209 -2.686,4 -6,4 v 0 c -3.314,0 -6,-1.791 -6,-4" /></clipPath><linearGradient
       id="linearGradient108"
       spreadMethod="pad"
       gradientTransform="matrix(7.2118683,-7.2118683,-7.2118683,-7.2118683,186.39406,203.60594)"
       gradientUnits="userSpaceOnUse"
       y2="0"
       x2="1"
       y1="0"
       x1="0"><stop
         id="stop104"
         offset="0"
         style="stop-opacity:1;stop-color:#e6e7e8" /><stop
         id="stop106"
         offset="1"
         style="stop-opacity:1;stop-color:#d1d3d4" /></linearGradient><clipPath
       id="clipPath118"
       clipPathUnits="userSpaceOnUse"><path
         id="path116"
         d="m 158,204 v -16 h 50 v 4 c -16,12 -28,12 -28,12 v 0 z" /></clipPath><linearGradient
       id="linearGradient128"
       spreadMethod="pad"
       gradientTransform="matrix(33,-33,-33,-33,163.5,209.5)"
       gradientUnits="userSpaceOnUse"
       y2="0"
       x2="1"
       y1="0"
       x1="0"><stop
         id="stop124"
         offset="0"
         style="stop-opacity:1;stop-color:#e6e7e8" /><stop
         id="stop126"
         offset="1"
         style="stop-opacity:1;stop-color:#d1d3d4" /></linearGradient><clipPath
       id="clipPath138"
       clipPathUnits="userSpaceOnUse"><path
         id="path136"
         d="m 100,204 v -6 C 56,198 44,186 44,186 v 0 -4 h 168 v 4 c 0,0 -12,12 -56,12 v 0 6 z" /></clipPath><linearGradient
       id="linearGradient148"
       spreadMethod="pad"
       gradientTransform="matrix(-86,86,86,86,171,141)"
       gradientUnits="userSpaceOnUse"
       y2="0"
       x2="1"
       y1="0"
       x1="0"><stop
         id="stop144"
         offset="0"
         style="stop-opacity:1;stop-color:#e6e7e8" /><stop
         id="stop146"
         offset="1"
         style="stop-opacity:1;stop-color:#d1d3d4" /></linearGradient><clipPath
       id="clipPath158"
       clipPathUnits="userSpaceOnUse"><path
         id="path156"
         d="m 41.418,181.311 c -0.902,-0.773 -1.615,-1.729 -2.101,-2.813 v 0 C 35.029,168.933 12,115.531 12,72 v 0 c 0,0 0,-20 20,-20 v 0 c 0,0 12,0 28,20 v 0 c 18.019,22.523 36,20 68,20 v 0 c 32,0 47.604,0.397 68,-20 v 0 c 20,-20 28,-20 28,-20 v 0 c 20,0 20,20 20,20 v 0 c 0,43.531 -23.029,96.933 -27.318,106.498 v 0 c -0.485,1.084 -1.199,2.04 -2.1,2.813 v 0 C 196.213,197.053 148,195.831 132,196 v 0 c -2.547,0.027 -5.453,0 -8,0 v 0 c -1.888,0 -4.225,0.015 -6.907,0.015 v 0 c -20.055,0 -59.473,-0.819 -75.675,-14.704" /></clipPath><linearGradient
       id="linearGradient168"
       spreadMethod="pad"
       gradientTransform="matrix(160.40767,-160.40767,-160.40767,-160.40767,47.796166,187.72261)"
       gradientUnits="userSpaceOnUse"
       y2="0"
       x2="1"
       y1="0"
       x1="0"><stop
         id="stop164"
         offset="0"
         style="stop-opacity:1;stop-color:#e6e7e8" /><stop
         id="stop166"
         offset="1"
         style="stop-opacity:1;stop-color:#d1d3d4" /></linearGradient><clipPath
       id="clipPath178"
       clipPathUnits="userSpaceOnUse"><path
         id="path176"
         d="M 0,256 H 256 V 0 H 0 Z" /></clipPath><clipPath
       id="clipPath190"
       clipPathUnits="userSpaceOnUse"><path
         id="path188"
         d="m 127,164 h 2 v 2 h -2 z" /></clipPath><linearGradient
       id="linearGradient200"
       spreadMethod="pad"
       gradientTransform="matrix(-1.9999999,1.9999999,1.9999999,1.9999999,129,164)"
       gradientUnits="userSpaceOnUse"
       y2="0"
       x2="1"
       y1="0"
       x1="0"><stop
         id="stop196"
         offset="0"
         style="stop-opacity:1;stop-color:#e6e7e8" /><stop
         id="stop198"
         offset="1"
         style="stop-opacity:1;stop-color:#d1d3d4" /></linearGradient><clipPath
       id="clipPath210"
       clipPathUnits="userSpaceOnUse"><path
         id="path208"
         d="m 127,160 h 2 v 2 h -2 z" /></clipPath><linearGradient
       id="linearGradient220"
       spreadMethod="pad"
       gradientTransform="matrix(-1.9999999,1.9999999,1.9999999,1.9999999,129,160)"
       gradientUnits="userSpaceOnUse"
       y2="0"
       x2="1"
       y1="0"
       x1="0"><stop
         id="stop216"
         offset="0"
         style="stop-opacity:1;stop-color:#e6e7e8" /><stop
         id="stop218"
         offset="1"
         style="stop-opacity:1;stop-color:#d1d3d4" /></linearGradient><clipPath
       id="clipPath230"
       clipPathUnits="userSpaceOnUse"><path
         id="path228"
         d="m 127,156 h 2 v 2.001 h -2 z" /></clipPath><linearGradient
       id="linearGradient240"
       spreadMethod="pad"
       gradientTransform="matrix(-1.9999999,1.9999999,1.9999999,1.9999999,129,156)"
       gradientUnits="userSpaceOnUse"
       y2="0"
       x2="1"
       y1="0"
       x1="0"><stop
         id="stop236"
         offset="0"
         style="stop-opacity:1;stop-color:#e6e7e8" /><stop
         id="stop238"
         offset="1"
         style="stop-opacity:1;stop-color:#d1d3d4" /></linearGradient><clipPath
       id="clipPath250"
       clipPathUnits="userSpaceOnUse"><path
         id="path248"
         d="m 127,152 h 2 v 2 h -2 z" /></clipPath><linearGradient
       id="linearGradient260"
       spreadMethod="pad"
       gradientTransform="matrix(-1.9999999,1.9999999,1.9999999,1.9999999,129,152)"
       gradientUnits="userSpaceOnUse"
       y2="0"
       x2="1"
       y1="0"
       x1="0"><stop
         id="stop256"
         offset="0"
         style="stop-opacity:1;stop-color:#e6e7e8" /><stop
         id="stop258"
         offset="1"
         style="stop-opacity:1;stop-color:#d1d3d4" /></linearGradient><clipPath
       id="clipPath270"
       clipPathUnits="userSpaceOnUse"><path
         id="path268"
         d="M 0,256 H 256 V 0 H 0 Z" /></clipPath><clipPath
       id="clipPath294"
       clipPathUnits="userSpaceOnUse"><path
         id="path292"
         d="m 50,160 c 0,-9.941 8.059,-18 18,-18 v 0 c 9.941,0 18,8.059 18,18 v 0 c 0,9.941 -8.059,18 -18,18 v 0 c -9.941,0 -18,-8.059 -18,-18" /></clipPath><linearGradient
       id="linearGradient304"
       spreadMethod="pad"
       gradientTransform="matrix(-25.455843,25.455843,25.455843,25.455843,80.727921,147.27208)"
       gradientUnits="userSpaceOnUse"
       y2="0"
       x2="1"
       y1="0"
       x1="0"><stop
         id="stop300"
         offset="0"
         style="stop-opacity:1;stop-color:#e6e7e8" /><stop
         id="stop302"
         offset="1"
         style="stop-opacity:1;stop-color:#d1d3d4" /></linearGradient><clipPath
       id="clipPath314"
       clipPathUnits="userSpaceOnUse"><path
         id="path312"
         d="m 138,122 c 0,-9.941 8.058,-18 18,-18 v 0 c 9.941,0 18,8.059 18,18 v 0 c 0,9.941 -8.059,18 -18,18 v 0 c -9.942,0 -18,-8.059 -18,-18" /></clipPath><linearGradient
       id="linearGradient324"
       spreadMethod="pad"
       gradientTransform="matrix(-25.455843,25.455843,25.455843,25.455843,168.72792,109.27208)"
       gradientUnits="userSpaceOnUse"
       y2="0"
       x2="1"
       y1="0"
       x1="0"><stop
         id="stop320"
         offset="0"
         style="stop-opacity:1;stop-color:#e6e7e8" /><stop
         id="stop322"
         offset="1"
         style="stop-opacity:1;stop-color:#d1d3d4" /></linearGradient><clipPath
       id="clipPath334"
       clipPathUnits="userSpaceOnUse"><path
         id="path332"
         d="m 54,160 c 0,-8.836 7.164,-16 16,-16 v 0 c 8.836,0 16,7.164 16,16 v 0 c 0,8.836 -7.164,16 -16,16 v 0 c -8.836,0 -16,-7.164 -16,-16" /></clipPath><linearGradient
       id="linearGradient344"
       spreadMethod="pad"
       gradientTransform="matrix(22.627417,-22.627417,-22.627417,-22.627417,58.686291,171.31371)"
       gradientUnits="userSpaceOnUse"
       y2="0"
       x2="1"
       y1="0"
       x1="0"><stop
         id="stop340"
         offset="0"
         style="stop-opacity:1;stop-color:#e6e7e8" /><stop
         id="stop342"
         offset="1"
         style="stop-opacity:1;stop-color:#d1d3d4" /></linearGradient><clipPath
       id="clipPath354"
       clipPathUnits="userSpaceOnUse"><path
         id="path352"
         d="m 56,160 c 0,-7.72 6.28,-14 14,-14 v 0 c 7.719,0 14,6.28 14,14 v 0 c 0,7.719 -6.281,14 -14,14 v 0 c -7.72,0 -14,-6.281 -14,-14" /></clipPath><linearGradient
       id="linearGradient364"
       spreadMethod="pad"
       gradientTransform="matrix(-19.78972,19.78972,19.78972,19.78972,79.894859,150.10513)"
       gradientUnits="userSpaceOnUse"
       y2="0"
       x2="1"
       y1="0"
       x1="0"><stop
         id="stop360"
         offset="0"
         style="stop-opacity:1;stop-color:#e6e7e8" /><stop
         id="stop362"
         offset="1"
         style="stop-opacity:1;stop-color:#d1d3d4" /></linearGradient><clipPath
       id="clipPath374"
       clipPathUnits="userSpaceOnUse"><path
         id="path372"
         d="m 58,160 c 0,-6.627 5.373,-12 12,-12 v 0 c 6.628,0 12,5.373 12,12 v 0 c 0,6.628 -5.372,12 -12,12 v 0 c -6.627,0 -12,-5.372 -12,-12" /></clipPath><linearGradient
       id="linearGradient384"
       spreadMethod="pad"
       gradientTransform="matrix(16.970564,-16.970564,-16.970564,-16.970564,61.514717,168.48528)"
       gradientUnits="userSpaceOnUse"
       y2="0"
       x2="1"
       y1="0"
       x1="0"><stop
         id="stop380"
         offset="0"
         style="stop-opacity:1;stop-color:#e6e7e8" /><stop
         id="stop382"
         offset="1"
         style="stop-opacity:1;stop-color:#d1d3d4" /></linearGradient><clipPath
       id="clipPath394"
       clipPathUnits="userSpaceOnUse"><path
         id="path392"
         d="M 0,256 H 256 V 0 H 0 Z" /></clipPath><clipPath
       id="clipPath406"
       clipPathUnits="userSpaceOnUse"><path
         id="path404"
         d="m 140,124 c 0,-8.837 7.163,-16 16,-16 v 0 c 8.837,0 16,7.163 16,16 v 0 c 0,8.836 -7.163,16 -16,16 v 0 c -8.837,0 -16,-7.164 -16,-16" /></clipPath><linearGradient
       id="linearGradient416"
       spreadMethod="pad"
       gradientTransform="matrix(22.627417,-22.627417,-22.627417,-22.627417,144.68629,135.31371)"
       gradientUnits="userSpaceOnUse"
       y2="0"
       x2="1"
       y1="0"
       x1="0"><stop
         id="stop412"
         offset="0"
         style="stop-opacity:1;stop-color:#e6e7e8" /><stop
         id="stop414"
         offset="1"
         style="stop-opacity:1;stop-color:#d1d3d4" /></linearGradient><clipPath
       id="clipPath426"
       clipPathUnits="userSpaceOnUse"><path
         id="path424"
         d="m 142,124 c 0,-7.72 6.28,-14 14,-14 v 0 c 7.72,0 14,6.28 14,14 v 0 c 0,7.719 -6.28,14 -14,14 v 0 c -7.72,0 -14,-6.281 -14,-14" /></clipPath><linearGradient
       id="linearGradient436"
       spreadMethod="pad"
       gradientTransform="matrix(-19.78972,19.78972,19.78972,19.78972,165.89487,114.10514)"
       gradientUnits="userSpaceOnUse"
       y2="0"
       x2="1"
       y1="0"
       x1="0"><stop
         id="stop432"
         offset="0"
         style="stop-opacity:1;stop-color:#e6e7e8" /><stop
         id="stop434"
         offset="1"
         style="stop-opacity:1;stop-color:#d1d3d4" /></linearGradient><clipPath
       id="clipPath446"
       clipPathUnits="userSpaceOnUse"><path
         id="path444"
         d="m 144,124 c 0,-6.627 5.373,-12 12,-12 v 0 c 6.627,0 12,5.373 12,12 v 0 c 0,6.628 -5.373,12 -12,12 v 0 c -6.627,0 -12,-5.372 -12,-12" /></clipPath><linearGradient
       id="linearGradient456"
       spreadMethod="pad"
       gradientTransform="matrix(16.970564,-16.970564,-16.970564,-16.970564,147.51472,132.48528)"
       gradientUnits="userSpaceOnUse"
       y2="0"
       x2="1"
       y1="0"
       x1="0"><stop
         id="stop452"
         offset="0"
         style="stop-opacity:1;stop-color:#e6e7e8" /><stop
         id="stop454"
         offset="1"
         style="stop-opacity:1;stop-color:#d1d3d4" /></linearGradient><clipPath
       id="clipPath466"
       clipPathUnits="userSpaceOnUse"><path
         id="path464"
         d="M 0,256 H 256 V 0 H 0 Z" /></clipPath><clipPath
       id="clipPath486"
       clipPathUnits="userSpaceOnUse"><path
         id="path484"
         d="m 78,122 c 0,-11.028 8.972,-20 20,-20 v 0 c 11.028,0 20,8.972 20,20 v 0 c 0,11.028 -8.972,20 -20,20 v 0 c -11.028,0 -20,-8.972 -20,-20" /></clipPath><linearGradient
       id="linearGradient496"
       spreadMethod="pad"
       gradientTransform="matrix(-28.271028,28.271028,28.271028,28.271028,112.13551,107.86449)"
       gradientUnits="userSpaceOnUse"
       y2="0"
       x2="1"
       y1="0"
       x1="0"><stop
         id="stop492"
         offset="0"
         style="stop-opacity:1;stop-color:#e6e7e8" /><stop
         id="stop494"
         offset="1"
         style="stop-opacity:1;stop-color:#d1d3d4" /></linearGradient><clipPath
       id="clipPath506"
       clipPathUnits="userSpaceOnUse"><path
         id="path504"
         d="M 0,256 H 256 V 0 H 0 Z" /></clipPath><clipPath
       id="clipPath518"
       clipPathUnits="userSpaceOnUse"><path
         id="path516"
         d="m 82,122 c 0,-1.105 0.895,-2 2,-2 v 0 c 1.105,0 2,0.895 2,2 v 0 c 0,1.105 -0.895,2 -2,2 v 0 c -1.105,0 -2,-0.895 -2,-2" /></clipPath><linearGradient
       id="linearGradient528"
       spreadMethod="pad"
       gradientTransform="matrix(2.8284271,-2.8284271,-2.8284271,-2.8284271,82.585785,123.41422)"
       gradientUnits="userSpaceOnUse"
       y2="0"
       x2="1"
       y1="0"
       x1="0"><stop
         id="stop524"
         offset="0"
         style="stop-opacity:1;stop-color:#e6e7e8" /><stop
         id="stop526"
         offset="1"
         style="stop-opacity:1;stop-color:#d1d3d4" /></linearGradient><clipPath
       id="clipPath538"
       clipPathUnits="userSpaceOnUse"><path
         id="path536"
         d="m 110,122 c 0,-1.105 0.895,-2 2,-2 v 0 c 1.105,0 2,0.895 2,2 v 0 c 0,1.105 -0.895,2 -2,2 v 0 c -1.105,0 -2,-0.895 -2,-2" /></clipPath><linearGradient
       id="linearGradient548"
       spreadMethod="pad"
       gradientTransform="matrix(2.8284271,-2.8284271,-2.8284271,-2.8284271,110.58578,123.41422)"
       gradientUnits="userSpaceOnUse"
       y2="0"
       x2="1"
       y1="0"
       x1="0"><stop
         id="stop544"
         offset="0"
         style="stop-opacity:1;stop-color:#e6e7e8" /><stop
         id="stop546"
         offset="1"
         style="stop-opacity:1;stop-color:#d1d3d4" /></linearGradient><clipPath
       id="clipPath558"
       clipPathUnits="userSpaceOnUse"><path
         id="path556"
         d="m 96,136 c 0,-1.104 0.896,-2 2,-2 v 0 c 1.104,0 2,0.896 2,2 v 0 c 0,1.104 -0.896,2 -2,2 v 0 c -1.104,0 -2,-0.896 -2,-2" /></clipPath><linearGradient
       id="linearGradient568"
       spreadMethod="pad"
       gradientTransform="matrix(2.8284271,-2.8284271,-2.8284271,-2.8284271,96.585785,137.41422)"
       gradientUnits="userSpaceOnUse"
       y2="0"
       x2="1"
       y1="0"
       x1="0"><stop
         id="stop564"
         offset="0"
         style="stop-opacity:1;stop-color:#e6e7e8" /><stop
         id="stop566"
         offset="1"
         style="stop-opacity:1;stop-color:#d1d3d4" /></linearGradient><clipPath
       id="clipPath578"
       clipPathUnits="userSpaceOnUse"><path
         id="path576"
         d="m 96,108 c 0,-1.104 0.896,-2 2,-2 v 0 c 1.104,0 2,0.896 2,2 v 0 c 0,1.104 -0.896,2 -2,2 v 0 c -1.104,0 -2,-0.896 -2,-2" /></clipPath><linearGradient
       id="linearGradient588"
       spreadMethod="pad"
       gradientTransform="matrix(2.8284271,-2.8284271,-2.8284271,-2.8284271,96.585785,109.41422)"
       gradientUnits="userSpaceOnUse"
       y2="0"
       x2="1"
       y1="0"
       x1="0"><stop
         id="stop584"
         offset="0"
         style="stop-opacity:1;stop-color:#e6e7e8" /><stop
         id="stop586"
         offset="1"
         style="stop-opacity:1;stop-color:#d1d3d4" /></linearGradient><clipPath
       id="clipPath598"
       clipPathUnits="userSpaceOnUse"><path
         id="path596"
         d="M 132,196 V 191.303 190 189.159 c 3.527,-1.546 6,-5.068 6,-9.159 v 0 c 0,-4.091 -2.473,-7.613 -6,-9.159 v 0 V 170 168.697 148 146 h 2 24 c 13.233,0 24,-10.767 24,-24 v 0 c 0,-13.233 -10.767,-24 -24,-24 v 0 H 98 c -13.234,0 -24,10.767 -24,24 v 0 c 0,13.233 10.766,24 24,24 v 0 h 24 2 v 2 20.697 1.303 0.841 c -3.527,1.546 -6,5.068 -6,9.159 v 0 c 0,4.091 2.473,7.613 6,9.159 v 0 0.841 1.303 4.697 h -2 v -5.63 c -3.583,-2.074 -6,-5.932 -6,-10.37 v 0 c 0,-4.438 2.417,-8.296 6,-10.37 v 0 V 148 H 98 C 83.641,148 72,136.359 72,122 v 0 C 72,107.641 83.641,96 98,96 v 0 h 60 c 14.359,0 26,11.641 26,26 v 0 c 0,14.359 -11.641,26 -26,26 v 0 h -24 v 21.63 c 3.582,2.074 6,5.932 6,10.37 v 0 c 0,4.438 -2.418,8.296 -6,10.37 v 0 5.63 z" /></clipPath><linearGradient
       id="linearGradient608"
       spreadMethod="pad"
       gradientTransform="matrix(73.384796,-73.384796,-73.384796,-73.384796,91.307602,165.3076)"
       gradientUnits="userSpaceOnUse"
       y2="0"
       x2="1"
       y1="0"
       x1="0"><stop
         id="stop604"
         offset="0"
         style="stop-opacity:1;stop-color:#e6e7e8" /><stop
         id="stop606"
         offset="1"
         style="stop-opacity:1;stop-color:#d1d3d4" /></linearGradient></defs><g
     transform="matrix(1.3333333,0,0,-1.3333333,-16,277.33333)"
     id="g10"><g
       id="g12"><g
         clip-path="url(#clipPath18)"
         id="g14"><g
           id="g20"><g
             id="g22"><path
               id="path30"
               style="fill:url(#linearGradient28);stroke:none"
               d="m 48,192 28,8 c 0,0 -4,8 -8,8 v 0 c 0,0 -16,0 -20,-16" /></g></g></g></g><g
       id="g32"><g
         clip-path="url(#clipPath38)"
         id="g34"><g
           id="g40"><g
             id="g42"><path
               id="path50"
               style="fill:url(#linearGradient48);stroke:none"
               d="m 60,200 c 0,-2.209 2.687,-4 6,-4 v 0 c 3.314,0 6,1.791 6,4 v 0 c 0,2.209 -2.686,4 -6,4 v 0 c -3.313,0 -6,-1.791 -6,-4" /></g></g></g></g><g
       id="g52"><g
         clip-path="url(#clipPath58)"
         id="g54"><g
           id="g60"><g
             id="g62"><path
               id="path70"
               style="fill:url(#linearGradient68);stroke:none"
               d="m 76,204 c 0,0 -12,0 -28,-12 v 0 -4 h 50 v 16 z" /></g></g></g></g><g
       id="g72"><g
         clip-path="url(#clipPath78)"
         id="g74"><g
           id="g80"><g
             id="g82"><path
               id="path90"
               style="fill:url(#linearGradient88);stroke:none"
               d="m 180,200 28,-8 c -4,16 -20,16 -20,16 v 0 c -4,0 -8,-8 -8,-8" /></g></g></g></g><g
       id="g92"><g
         clip-path="url(#clipPath98)"
         id="g94"><g
           id="g100"><g
             id="g102"><path
               id="path110"
               style="fill:url(#linearGradient108);stroke:none"
               d="m 184,200 c 0,-2.209 2.686,-4 6,-4 v 0 c 3.314,0 6,1.791 6,4 v 0 c 0,2.209 -2.686,4 -6,4 v 0 c -3.314,0 -6,-1.791 -6,-4" /></g></g></g></g><g
       id="g112"><g
         clip-path="url(#clipPath118)"
         id="g114"><g
           id="g120"><g
             id="g122"><path
               id="path130"
               style="fill:url(#linearGradient128);stroke:none"
               d="m 158,204 v -16 h 50 v 4 c -16,12 -28,12 -28,12 v 0 z" /></g></g></g></g><g
       id="g132"><g
         clip-path="url(#clipPath138)"
         id="g134"><g
           id="g140"><g
             id="g142"><path
               id="path150"
               style="fill:url(#linearGradient148);stroke:none"
               d="m 100,204 v -6 C 56,198 44,186 44,186 v 0 -4 h 168 v 4 c 0,0 -12,12 -56,12 v 0 6 z" /></g></g></g></g><g
       id="g152"><g
         clip-path="url(#clipPath158)"
         id="g154"><g
           id="g160"><g
             id="g162"><path
               id="path170"
               style="fill:url(#linearGradient168);stroke:none"
               d="m 41.418,181.311 c -0.902,-0.773 -1.615,-1.729 -2.101,-2.813 v 0 C 35.029,168.933 12,115.531 12,72 v 0 c 0,0 0,-20 20,-20 v 0 c 0,0 12,0 28,20 v 0 c 18.019,22.523 36,20 68,20 v 0 c 32,0 47.604,0.397 68,-20 v 0 c 20,-20 28,-20 28,-20 v 0 c 20,0 20,20 20,20 v 0 c 0,43.531 -23.029,96.933 -27.318,106.498 v 0 c -0.485,1.084 -1.199,2.04 -2.1,2.813 v 0 C 196.213,197.053 148,195.831 132,196 v 0 c -2.547,0.027 -5.453,0 -8,0 v 0 c -1.888,0 -4.225,0.015 -6.907,0.015 v 0 c -20.055,0 -59.473,-0.819 -75.675,-14.704" /></g></g></g></g><g
       id="g172"><g
         clip-path="url(#clipPath178)"
         id="g174"><g
           transform="translate(136,180)"
           id="g180"><path
             id="path182"
             style="fill:#999999;fill-opacity:1;fill-rule:nonzero;stroke:none"
             d="m 0,0 c 0,-4.418 -3.582,-8 -8,-8 -4.418,0 -8,3.582 -8,8 0,4.418 3.582,8 8,8 4.418,0 8,-3.582 8,-8" /></g></g></g><g
       id="g184"><g
         clip-path="url(#clipPath190)"
         id="g186"><g
           id="g192"><g
             id="g194"><path
               id="path202"
               style="fill:url(#linearGradient200);stroke:none"
               d="m 127,164 h 2 v 2 h -2 z" /></g></g></g></g><g
       id="g204"><g
         clip-path="url(#clipPath210)"
         id="g206"><g
           id="g212"><g
             id="g214"><path
               id="path222"
               style="fill:url(#linearGradient220);stroke:none"
               d="m 127,160 h 2 v 2 h -2 z" /></g></g></g></g><g
       id="g224"><g
         clip-path="url(#clipPath230)"
         id="g226"><g
           id="g232"><g
             id="g234"><path
               id="path242"
               style="fill:url(#linearGradient240);stroke:none"
               d="m 127,156 h 2 v 2.001 h -2 z" /></g></g></g></g><g
       id="g244"><g
         clip-path="url(#clipPath250)"
         id="g246"><g
           id="g252"><g
             id="g254"><path
               id="path262"
               style="fill:url(#linearGradient260);stroke:none"
               d="m 127,152 h 2 v 2 h -2 z" /></g></g></g></g><g
       id="g264"><g
         clip-path="url(#clipPath270)"
         id="g266"><g
           transform="translate(196,176)"
           id="g272"><path
             id="path274"
             style="fill:#999999;fill-opacity:1;fill-rule:nonzero;stroke:none"
             d="m 0,0 c 0,-4.418 -3.582,-8 -8,-8 -4.418,0 -8,3.582 -8,8 0,4.418 3.582,8 8,8 4.418,0 8,-3.582 8,-8" /></g><g
           transform="translate(196,144)"
           id="g276"><path
             id="path278"
             style="fill:#999999;fill-opacity:1;fill-rule:nonzero;stroke:none"
             d="m 0,0 c 0,-4.418 -3.582,-8 -8,-8 -4.418,0 -8,3.582 -8,8 0,4.418 3.582,8 8,8 4.418,0 8,-3.582 8,-8" /></g><g
           transform="translate(180,160)"
           id="g280"><path
             id="path282"
             style="fill:#999999;fill-opacity:1;fill-rule:nonzero;stroke:none"
             d="m 0,0 c 0,-4.418 -3.582,-8 -8,-8 -4.418,0 -8,3.582 -8,8 0,4.418 3.582,8 8,8 4.418,0 8,-3.582 8,-8" /></g><g
           transform="translate(212,160)"
           id="g284"><path
             id="path286"
             style="fill:#999999;fill-opacity:1;fill-rule:nonzero;stroke:none"
             d="m 0,0 c 0,-4.418 -3.582,-8 -8,-8 -4.418,0 -8,3.582 -8,8 0,4.418 3.582,8 8,8 4.418,0 8,-3.582 8,-8" /></g></g></g><g
       id="g288"><g
         clip-path="url(#clipPath294)"
         id="g290"><g
           id="g296"><g
             id="g298"><path
               id="path306"
               style="fill:url(#linearGradient304);stroke:none"
               d="m 50,160 c 0,-9.941 8.059,-18 18,-18 v 0 c 9.941,0 18,8.059 18,18 v 0 c 0,9.941 -8.059,18 -18,18 v 0 c -9.941,0 -18,-8.059 -18,-18" /></g></g></g></g><g
       id="g308"><g
         clip-path="url(#clipPath314)"
         id="g310"><g
           id="g316"><g
             id="g318"><path
               id="path326"
               style="fill:url(#linearGradient324);stroke:none"
               d="m 138,122 c 0,-9.941 8.058,-18 18,-18 v 0 c 9.941,0 18,8.059 18,18 v 0 c 0,9.941 -8.059,18 -18,18 v 0 c -9.942,0 -18,-8.059 -18,-18" /></g></g></g></g><g
       id="g328"><g
         clip-path="url(#clipPath334)"
         id="g330"><g
           id="g336"><g
             id="g338"><path
               id="path346"
               style="fill:url(#linearGradient344);stroke:none"
               d="m 54,160 c 0,-8.836 7.164,-16 16,-16 v 0 c 8.836,0 16,7.164 16,16 v 0 c 0,8.836 -7.164,16 -16,16 v 0 c -8.836,0 -16,-7.164 -16,-16" /></g></g></g></g><g
       id="g348"><g
         clip-path="url(#clipPath354)"
         id="g350"><g
           id="g356"><g
             id="g358"><path
               id="path366"
               style="fill:url(#linearGradient364);stroke:none"
               d="m 56,160 c 0,-7.72 6.28,-14 14,-14 v 0 c 7.719,0 14,6.28 14,14 v 0 c 0,7.719 -6.281,14 -14,14 v 0 c -7.72,0 -14,-6.281 -14,-14" /></g></g></g></g><g
       id="g368"><g
         clip-path="url(#clipPath374)"
         id="g370"><g
           id="g376"><g
             id="g378"><path
               id="path386"
               style="fill:url(#linearGradient384);stroke:none"
               d="m 58,160 c 0,-6.627 5.373,-12 12,-12 v 0 c 6.628,0 12,5.373 12,12 v 0 c 0,6.628 -5.372,12 -12,12 v 0 c -6.627,0 -12,-5.372 -12,-12" /></g></g></g></g><g
       id="g388"><g
         clip-path="url(#clipPath394)"
         id="g390"><g
           transform="translate(70,170)"
           id="g396"><path
             id="path398"
             style="fill:#999999;fill-opacity:1;fill-rule:nonzero;stroke:none"
             d="m 0,0 c 5.514,0 10,-4.486 10,-10 0,-5.514 -4.486,-10 -10,-10 -5.514,0 -10,4.486 -10,10 0,5.514 4.486,10 10,10" /></g></g></g><g
       id="g400"><g
         clip-path="url(#clipPath406)"
         id="g402"><g
           id="g408"><g
             id="g410"><path
               id="path418"
               style="fill:url(#linearGradient416);stroke:none"
               d="m 140,124 c 0,-8.837 7.163,-16 16,-16 v 0 c 8.837,0 16,7.163 16,16 v 0 c 0,8.836 -7.163,16 -16,16 v 0 c -8.837,0 -16,-7.164 -16,-16" /></g></g></g></g><g
       id="g420"><g
         clip-path="url(#clipPath426)"
         id="g422"><g
           id="g428"><g
             id="g430"><path
               id="path438"
               style="fill:url(#linearGradient436);stroke:none"
               d="m 142,124 c 0,-7.72 6.28,-14 14,-14 v 0 c 7.72,0 14,6.28 14,14 v 0 c 0,7.719 -6.28,14 -14,14 v 0 c -7.72,0 -14,-6.281 -14,-14" /></g></g></g></g><g
       id="g440"><g
         clip-path="url(#clipPath446)"
         id="g442"><g
           id="g448"><g
             id="g450"><path
               id="path458"
               style="fill:url(#linearGradient456);stroke:none"
               d="m 144,124 c 0,-6.627 5.373,-12 12,-12 v 0 c 6.627,0 12,5.373 12,12 v 0 c 0,6.628 -5.373,12 -12,12 v 0 c -6.627,0 -12,-5.372 -12,-12" /></g></g></g></g><g
       id="g460"><g
         clip-path="url(#clipPath466)"
         id="g462"><g
           transform="translate(156,134)"
           id="g468"><path
             id="path470"
             style="fill:#999999;fill-opacity:1;fill-rule:nonzero;stroke:none"
             d="m 0,0 c 5.514,0 10,-4.486 10,-10 0,-5.514 -4.486,-10 -10,-10 -5.514,0 -10,4.486 -10,10 0,5.514 4.486,10 10,10" /></g><g
           transform="translate(108,180)"
           id="g472"><path
             id="path474"
             style="fill:#999999;fill-opacity:1;fill-rule:nonzero;stroke:none"
             d="m 0,0 c 0,-2.209 -1.791,-4 -4,-4 -2.209,0 -4,1.791 -4,4 0,2.209 1.791,4 4,4 2.209,0 4,-1.791 4,-4" /></g><g
           transform="translate(156,180)"
           id="g476"><path
             id="path478"
             style="fill:#999999;fill-opacity:1;fill-rule:nonzero;stroke:none"
             d="m 0,0 c 0,-2.209 -1.791,-4 -4,-4 -2.209,0 -4,1.791 -4,4 0,2.209 1.791,4 4,4 2.209,0 4,-1.791 4,-4" /></g></g></g><g
       id="g480"><g
         clip-path="url(#clipPath486)"
         id="g482"><g
           id="g488"><g
             id="g490"><path
               id="path498"
               style="fill:url(#linearGradient496);stroke:none"
               d="m 78,122 c 0,-11.028 8.972,-20 20,-20 v 0 c 11.028,0 20,8.972 20,20 v 0 c 0,11.028 -8.972,20 -20,20 v 0 c -11.028,0 -20,-8.972 -20,-20" /></g></g></g></g><g
       id="g500"><g
         clip-path="url(#clipPath506)"
         id="g502"><g
           transform="translate(116,122)"
           id="g508"><path
             id="path510"
             style="fill:#999999;fill-opacity:1;fill-rule:nonzero;stroke:none"
             d="m 0,0 c 0,-9.941 -8.059,-18 -18,-18 -9.941,0 -18,8.059 -18,18 0,9.941 8.059,18 18,18 C -8.059,18 0,9.941 0,0" /></g></g></g><g
       id="g512"><g
         clip-path="url(#clipPath518)"
         id="g514"><g
           id="g520"><g
             id="g522"><path
               id="path530"
               style="fill:url(#linearGradient528);stroke:none"
               d="m 82,122 c 0,-1.105 0.895,-2 2,-2 v 0 c 1.105,0 2,0.895 2,2 v 0 c 0,1.105 -0.895,2 -2,2 v 0 c -1.105,0 -2,-0.895 -2,-2" /></g></g></g></g><g
       id="g532"><g
         clip-path="url(#clipPath538)"
         id="g534"><g
           id="g540"><g
             id="g542"><path
               id="path550"
               style="fill:url(#linearGradient548);stroke:none"
               d="m 110,122 c 0,-1.105 0.895,-2 2,-2 v 0 c 1.105,0 2,0.895 2,2 v 0 c 0,1.105 -0.895,2 -2,2 v 0 c -1.105,0 -2,-0.895 -2,-2" /></g></g></g></g><g
       id="g552"><g
         clip-path="url(#clipPath558)"
         id="g554"><g
           id="g560"><g
             id="g562"><path
               id="path570"
               style="fill:url(#linearGradient568);stroke:none"
               d="m 96,136 c 0,-1.104 0.896,-2 2,-2 v 0 c 1.104,0 2,0.896 2,2 v 0 c 0,1.104 -0.896,2 -2,2 v 0 c -1.104,0 -2,-0.896 -2,-2" /></g></g></g></g><g
       id="g572"><g
         clip-path="url(#clipPath578)"
         id="g574"><g
           id="g580"><g
             id="g582"><path
               id="path590"
               style="fill:url(#linearGradient588);stroke:none"
               d="m 96,108 c 0,-1.104 0.896,-2 2,-2 v 0 c 1.104,0 2,0.896 2,2 v 0 c 0,1.104 -0.896,2 -2,2 v 0 c -1.104,0 -2,-0.896 -2,-2" /></g></g></g></g><g
       id="g592"><g
         clip-path="url(#clipPath598)"
         id="g594"><g
           id="g600"><g
             id="g602"><path
               id="path610"
               style="fill:url(#linearGradient608);stroke:none"
               d="M 132,196 V 191.303 190 189.159 c 3.527,-1.546 6,-5.068 6,-9.159 v 0 c 0,-4.091 -2.473,-7.613 -6,-9.159 v 0 V 170 168.697 148 146 h 2 24 c 13.233,0 24,-10.767 24,-24 v 0 c 0,-13.233 -10.767,-24 -24,-24 v 0 H 98 c -13.234,0 -24,10.767 -24,24 v 0 c 0,13.233 10.766,24 24,24 v 0 h 24 2 v 2 20.697 1.303 0.841 c -3.527,1.546 -6,5.068 -6,9.159 v 0 c 0,4.091 2.473,7.613 6,9.159 v 0 0.841 1.303 4.697 h -2 v -5.63 c -3.583,-2.074 -6,-5.932 -6,-10.37 v 0 c 0,-4.438 2.417,-8.296 6,-10.37 v 0 V 148 H 98 C 83.641,148 72,136.359 72,122 v 0 C 72,107.641 83.641,96 98,96 v 0 h 60 c 14.359,0 26,11.641 26,26 v 0 c 0,14.359 -11.641,26 -26,26 v 0 h -24 v 21.63 c 3.582,2.074 6,5.932 6,10.37 v 0 c 0,4.438 -2.418,8.296 -6,10.37 v 0 5.63 z" /></g></g></g></g></g></svg>