<?xml version="1.0" encoding="UTF-8" standalone="no"?>
<svg
   xmlns:dc="http://purl.org/dc/elements/1.1/"
   xmlns:cc="http://creativecommons.org/ns#"
   xmlns:rdf="http://www.w3.org/1999/02/22-rdf-syntax-ns#"
   xmlns:svg="http://www.w3.org/2000/svg"
   xmlns="http://www.w3.org/2000/svg"
   viewBox="0 0 309.33331 138.66666"
   height="138.66666"
   width="309.33331"
   xml:space="preserve"
   id="svg2"
   version="1.1"><metadata
     id="metadata8"><rdf:RDF><cc:Work
         rdf:about=""><dc:format>image/svg+xml</dc:format><dc:type
           rdf:resource="http://purl.org/dc/dcmitype/StillImage" /></cc:Work></rdf:RDF></metadata><defs
     id="defs6"><clipPath
       id="clipPath18"
       clipPathUnits="userSpaceOnUse"><path
         id="path16"
         d="M 242,125.501 H 14 V 156 h 228 z" /></clipPath><linearGradient
       id="linearGradient28"
       spreadMethod="pad"
       gradientTransform="matrix(-125.26152,129.7121,129.7121,125.26152,190.63075,75.894608)"
       gradientUnits="userSpaceOnUse"
       y2="0"
       x2="1"
       y1="0"
       x1="0"><stop
         id="stop24"
         offset="0"
         style="stop-opacity:1;stop-color:#e6e7e8" /><stop
         id="stop26"
         offset="1"
         style="stop-opacity:1;stop-color:#d1d3d4" /></linearGradient><clipPath
       id="clipPath38"
       clipPathUnits="userSpaceOnUse"><path
         id="path36"
         d="M 244,152 H 12 v 28 h 232 z" /></clipPath><linearGradient
       id="linearGradient48"
       spreadMethod="pad"
       gradientTransform="matrix(130,-130,-130,-130,63,231)"
       gradientUnits="userSpaceOnUse"
       y2="0"
       x2="1"
       y1="0"
       x1="0"><stop
         id="stop44"
         offset="0"
         style="stop-opacity:1;stop-color:#e6e7e8" /><stop
         id="stop46"
         offset="1"
         style="stop-opacity:1;stop-color:#d1d3d4" /></linearGradient><clipPath
       id="clipPath58"
       clipPathUnits="userSpaceOnUse"><path
         id="path56"
         d="M 244,128 H 25.593 12 V 76 h 232 z" /></clipPath><linearGradient
       id="linearGradient68"
       spreadMethod="pad"
       gradientTransform="matrix(142,-142,-142,-142,57,173)"
       gradientUnits="userSpaceOnUse"
       y2="0"
       x2="1"
       y1="0"
       x1="0"><stop
         id="stop64"
         offset="0"
         style="stop-opacity:1;stop-color:#e6e7e8" /><stop
         id="stop66"
         offset="1"
         style="stop-opacity:1;stop-color:#d1d3d4" /></linearGradient><clipPath
       id="clipPath150"
       clipPathUnits="userSpaceOnUse"><path
         id="path148"
         d="M 244,148 H 12 v -16 h 232 z" /></clipPath><linearGradient
       id="linearGradient160"
       spreadMethod="pad"
       gradientTransform="matrix(124,-124,-124,-124,66,202)"
       gradientUnits="userSpaceOnUse"
       y2="0"
       x2="1"
       y1="0"
       x1="0"><stop
         id="stop156"
         offset="0"
         style="stop-opacity:1;stop-color:#e6e7e8" /><stop
         id="stop158"
         offset="1"
         style="stop-opacity:1;stop-color:#d1d3d4" /></linearGradient></defs><g
     transform="matrix(1.3333333,0,0,-1.3333333,-16,239.99999)"
     id="g10"><g
       id="g12"><g
         clip-path="url(#clipPath18)"
         id="g14"><g
           id="g20"><g
             id="g22"><path
               id="path30"
               style="fill:url(#linearGradient28);stroke:none"
               d="M 242,125.501 H 14 V 156 h 228 z" /></g></g></g></g><g
       id="g32"><g
         clip-path="url(#clipPath38)"
         id="g34"><g
           id="g40"><g
             id="g42"><path
               id="path50"
               style="fill:url(#linearGradient48);stroke:none"
               d="M 244,152 H 12 v 28 h 232 z" /></g></g></g></g><g
       id="g52"><g
         clip-path="url(#clipPath58)"
         id="g54"><g
           id="g60"><g
             id="g62"><path
               id="path70"
               style="fill:url(#linearGradient68);stroke:none"
               d="M 244,128 H 25.593 12 V 76 h 232 z" /></g></g></g></g><g
       transform="translate(32.2328,156)"
       id="g72"><path
         id="path74"
         style="fill:#999999;fill-opacity:1;fill-rule:nonzero;stroke:none"
         d="M 0,0 31.408,24 H 27.175 L -4.233,0 Z" /></g><g
       transform="translate(41.6657,156)"
       id="g76"><path
         id="path78"
         style="fill:#999999;fill-opacity:1;fill-rule:nonzero;stroke:none"
         d="M 0,0 31.408,24 H 27.175 L -4.233,0 Z" /></g><g
       transform="translate(51.0986,156)"
       id="g80"><path
         id="path82"
         style="fill:#999999;fill-opacity:1;fill-rule:nonzero;stroke:none"
         d="M 0,0 31.408,24 H 27.175 L -4.233,0 Z" /></g><g
       transform="translate(60.5315,156)"
       id="g84"><path
         id="path86"
         style="fill:#999999;fill-opacity:1;fill-rule:nonzero;stroke:none"
         d="M 0,0 31.408,24 H 27.175 L -4.233,0 Z" /></g><g
       transform="translate(69.9644,156)"
       id="g88"><path
         id="path90"
         style="fill:#999999;fill-opacity:1;fill-rule:nonzero;stroke:none"
         d="M 0,0 31.408,24 H 27.175 L -4.233,0 Z" /></g><g
       transform="translate(79.3973,156)"
       id="g92"><path
         id="path94"
         style="fill:#999999;fill-opacity:1;fill-rule:nonzero;stroke:none"
         d="M 0,0 31.408,24 H 27.175 L -4.233,0 Z" /></g><g
       transform="translate(88.8302,156)"
       id="g96"><path
         id="path98"
         style="fill:#999999;fill-opacity:1;fill-rule:nonzero;stroke:none"
         d="M 0,0 31.408,24 H 27.175 L -4.233,0 Z" /></g><g
       transform="translate(98.2631,156)"
       id="g100"><path
         id="path102"
         style="fill:#999999;fill-opacity:1;fill-rule:nonzero;stroke:none"
         d="M 0,0 31.408,24 H 27.175 L -4.233,0 Z" /></g><g
       transform="translate(107.696,156)"
       id="g104"><path
         id="path106"
         style="fill:#999999;fill-opacity:1;fill-rule:nonzero;stroke:none"
         d="M 0,0 31.408,24 H 27.175 L -4.233,0 Z" /></g><g
       transform="translate(117.1288,156)"
       id="g108"><path
         id="path110"
         style="fill:#999999;fill-opacity:1;fill-rule:nonzero;stroke:none"
         d="M 0,0 31.408,24 H 27.175 L -4.233,0 Z" /></g><g
       transform="translate(126.5618,156)"
       id="g112"><path
         id="path114"
         style="fill:#999999;fill-opacity:1;fill-rule:nonzero;stroke:none"
         d="M 0,0 31.408,24 H 27.175 L -4.233,0 Z" /></g><g
       transform="translate(135.9946,156)"
       id="g116"><path
         id="path118"
         style="fill:#999999;fill-opacity:1;fill-rule:nonzero;stroke:none"
         d="M 0,0 31.408,24 H 27.175 L -4.233,0 Z" /></g><g
       transform="translate(145.4275,156)"
       id="g120"><path
         id="path122"
         style="fill:#999999;fill-opacity:1;fill-rule:nonzero;stroke:none"
         d="M 0,0 31.408,24 H 27.175 L -4.233,0 Z" /></g><g
       transform="translate(154.8604,156)"
       id="g124"><path
         id="path126"
         style="fill:#999999;fill-opacity:1;fill-rule:nonzero;stroke:none"
         d="M 0,0 31.408,24 H 27.175 L -4.233,0 Z" /></g><g
       transform="translate(164.2933,156)"
       id="g128"><path
         id="path130"
         style="fill:#999999;fill-opacity:1;fill-rule:nonzero;stroke:none"
         d="M 0,0 31.408,24 H 27.175 L -4.233,0 Z" /></g><g
       transform="translate(173.7262,156)"
       id="g132"><path
         id="path134"
         style="fill:#999999;fill-opacity:1;fill-rule:nonzero;stroke:none"
         d="M 0,0 31.408,24 H 27.175 L -4.233,0 Z" /></g><g
       transform="translate(183.1591,156)"
       id="g136"><path
         id="path138"
         style="fill:#999999;fill-opacity:1;fill-rule:nonzero;stroke:none"
         d="M 0,0 31.408,24 H 27.175 L -4.233,0 Z" /></g><g
       transform="translate(192.592,156)"
       id="g140"><path
         id="path142"
         style="fill:#999999;fill-opacity:1;fill-rule:nonzero;stroke:none"
         d="M 0,0 31.408,24 H 27.175 L -4.233,0 Z" /></g><g
       id="g144"><g
         clip-path="url(#clipPath150)"
         id="g146"><g
           id="g152"><g
             id="g154"><path
               id="path162"
               style="fill:url(#linearGradient160);stroke:none"
               d="M 244,148 H 12 v -16 h 232 z" /></g></g></g></g><g
       transform="translate(156.706,129.6914)"
       id="g164"><path
         id="path166"
         style="fill:#999999;fill-opacity:1;fill-rule:nonzero;stroke:none"
         d="m 0,0 h -11.471 l 4.556,3.668 4.028,2.949 H 9.039 Z m -13.236,0 h -11.472 l 4.555,3.667 4.03,2.95 H -4.502 L -7.551,4.162 Z m -13.237,0 h -11.471 l 4.556,3.668 4.029,2.949 h 11.621 L -20.789,4.161 Z M -39.709,0 H -51.18 l 4.556,3.668 4.028,2.949 h 11.622 l -3.05,-2.455 z m -13.236,0 h -11.472 l 4.555,3.667 4.03,2.95 h 11.621 L -47.26,4.162 Z m -13.237,0 h -11.471 l 4.556,3.668 4.029,2.949 h 11.621 l -3.051,-2.456 z m -13.236,0 h -11.471 l 4.556,3.668 4.028,2.949 h 11.622 l -3.05,-2.455 z m -13.236,0 h -11.472 l 4.555,3.667 4.03,2.95 h 11.621 l -3.049,-2.455 z m -13.237,0 h -11.471 l 4.556,3.668 4.029,2.949 h 11.621 l -3.051,-2.456 z m -13.236,0 h -11.471 l 8.218,6.617 h 11.988 l -3.05,-2.455 z m -3.643,7.309 -9.936,-8 H 0.365 l 10.929,8 z" /></g><g
       transform="translate(176,138)"
       id="g168"><path
         id="path170"
         style="fill:#ffffff;fill-opacity:1;fill-rule:nonzero;stroke:none"
         d="M 0,0 3.805,4 H 52 L 48.119,0 Z" /></g><path
       id="path172"
       style="fill:#999999;fill-opacity:1;fill-rule:nonzero;stroke:none"
       d="m 24,116.075 h -8 v 8 h 8 z" /><path
       id="path174"
       style="fill:#999999;fill-opacity:1;fill-rule:nonzero;stroke:none"
       d="M 28,104.075 H 16 v 8 h 12 z" /><path
       id="path176"
       style="fill:#999999;fill-opacity:1;fill-rule:nonzero;stroke:none"
       d="m 36,116.075 h -8 v 8 h 8 z" /><path
       id="path178"
       style="fill:#999999;fill-opacity:1;fill-rule:nonzero;stroke:none"
       d="m 40,104.075 h -8 v 8 h 8 z" /><path
       id="path180"
       style="fill:#999999;fill-opacity:1;fill-rule:nonzero;stroke:none"
       d="m 44,92.075 h -8 v 8 h 8 z" /><path
       id="path182"
       style="fill:#999999;fill-opacity:1;fill-rule:nonzero;stroke:none"
       d="m 56,92.075 h -8 v 8 h 8 z" /><path
       id="path184"
       style="fill:#999999;fill-opacity:1;fill-rule:nonzero;stroke:none"
       d="m 68,92.075 h -8 v 8 h 8 z" /><path
       id="path186"
       style="fill:#999999;fill-opacity:1;fill-rule:nonzero;stroke:none"
       d="m 80,92.075 h -8 v 8 h 8 z" /><path
       id="path188"
       style="fill:#999999;fill-opacity:1;fill-rule:nonzero;stroke:none"
       d="m 92,92.075 h -8 v 8 h 8 z" /><path
       id="path190"
       style="fill:#999999;fill-opacity:1;fill-rule:nonzero;stroke:none"
       d="m 104,92.075 h -8 v 8 h 8 z" /><path
       id="path192"
       style="fill:#999999;fill-opacity:1;fill-rule:nonzero;stroke:none"
       d="m 116,92.075 h -8 v 8 h 8 z" /><path
       id="path194"
       style="fill:#999999;fill-opacity:1;fill-rule:nonzero;stroke:none"
       d="m 128,92.075 h -8 v 8 h 8 z" /><path
       id="path196"
       style="fill:#999999;fill-opacity:1;fill-rule:nonzero;stroke:none"
       d="m 140,92.075 h -8 v 8 h 8 z" /><path
       id="path198"
       style="fill:#999999;fill-opacity:1;fill-rule:nonzero;stroke:none"
       d="m 52,104.075 h -8 v 8 h 8 z" /><path
       id="path200"
       style="fill:#999999;fill-opacity:1;fill-rule:nonzero;stroke:none"
       d="m 64,104.075 h -8 v 8 h 8 z" /><path
       id="path202"
       style="fill:#999999;fill-opacity:1;fill-rule:nonzero;stroke:none"
       d="m 76,104.075 h -8 v 8 h 8 z" /><path
       id="path204"
       style="fill:#999999;fill-opacity:1;fill-rule:nonzero;stroke:none"
       d="m 88,104.075 h -8 v 8 h 8 z" /><path
       id="path206"
       style="fill:#999999;fill-opacity:1;fill-rule:nonzero;stroke:none"
       d="m 100,104.075 h -8 v 8 h 8 z" /><path
       id="path208"
       style="fill:#999999;fill-opacity:1;fill-rule:nonzero;stroke:none"
       d="m 112,104.075 h -8 v 8 h 8 z" /><path
       id="path210"
       style="fill:#999999;fill-opacity:1;fill-rule:nonzero;stroke:none"
       d="m 124,104.075 h -8 v 8 h 8 z" /><path
       id="path212"
       style="fill:#999999;fill-opacity:1;fill-rule:nonzero;stroke:none"
       d="m 136,104.075 h -8 v 8 h 8 z" /><path
       id="path214"
       style="fill:#999999;fill-opacity:1;fill-rule:nonzero;stroke:none"
       d="m 164,104.075 h -8 v 8 h 8 z" /><path
       id="path216"
       style="fill:#999999;fill-opacity:1;fill-rule:nonzero;stroke:none"
       d="m 204,116.075 h -8 v 8 h 8 z" /><path
       id="path218"
       style="fill:#999999;fill-opacity:1;fill-rule:nonzero;stroke:none"
       d="m 216,116.075 h -8 v 8 h 8 z" /><path
       id="path220"
       style="fill:#999999;fill-opacity:1;fill-rule:nonzero;stroke:none"
       d="m 228,116.075 h -8 v 8 h 8 z" /><path
       id="path222"
       style="fill:#999999;fill-opacity:1;fill-rule:nonzero;stroke:none"
       d="m 240,116.075 h -8 v 8 h 8 z" /><path
       id="path224"
       style="fill:#999999;fill-opacity:1;fill-rule:nonzero;stroke:none"
       d="m 204,104.075 h -8 v 8 h 8 z" /><path
       id="path226"
       style="fill:#999999;fill-opacity:1;fill-rule:nonzero;stroke:none"
       d="m 216,104.075 h -8 v 8 h 8 z" /><path
       id="path228"
       style="fill:#999999;fill-opacity:1;fill-rule:nonzero;stroke:none"
       d="m 228,104.075 h -8 v 8 h 8 z" /><path
       id="path230"
       style="fill:#999999;fill-opacity:1;fill-rule:nonzero;stroke:none"
       d="m 240,104.075 h -8 v 8 h 8 z" /><path
       id="path232"
       style="fill:#999999;fill-opacity:1;fill-rule:nonzero;stroke:none"
       d="m 204,92.075 h -8 v 8 h 8 z" /><path
       id="path234"
       style="fill:#999999;fill-opacity:1;fill-rule:nonzero;stroke:none"
       d="m 216,92.075 h -8 v 8 h 8 z" /><path
       id="path236"
       style="fill:#999999;fill-opacity:1;fill-rule:nonzero;stroke:none"
       d="m 228,92.075 h -8 v 8 h 8 z" /><path
       id="path238"
       style="fill:#999999;fill-opacity:1;fill-rule:nonzero;stroke:none"
       d="m 204,80.075 h -8 v 8 h 8 z" /><path
       id="path240"
       style="fill:#999999;fill-opacity:1;fill-rule:nonzero;stroke:none"
       d="m 216,80.075 h -8 v 8 h 8 z" /><path
       id="path242"
       style="fill:#999999;fill-opacity:1;fill-rule:nonzero;stroke:none"
       d="m 228,80.075 h -8 v 8 h 8 z" /><path
       id="path244"
       style="fill:#999999;fill-opacity:1;fill-rule:nonzero;stroke:none"
       d="m 240,80.075 h -8 v 20 h 8 z" /><path
       id="path246"
       style="fill:#999999;fill-opacity:1;fill-rule:nonzero;stroke:none"
       d="m 176,104.075 h -8 v 8 h 8 z" /><path
       id="path248"
       style="fill:#999999;fill-opacity:1;fill-rule:nonzero;stroke:none"
       d="m 188,104.075 h -8 v 8 h 8 z" /><path
       id="path250"
       style="fill:#999999;fill-opacity:1;fill-rule:nonzero;stroke:none"
       d="m 164,92.075 h -8 v 8 h 8 z" /><path
       id="path252"
       style="fill:#999999;fill-opacity:1;fill-rule:nonzero;stroke:none"
       d="m 176,92.075 h -8 v 8 h 8 z" /><path
       id="path254"
       style="fill:#999999;fill-opacity:1;fill-rule:nonzero;stroke:none"
       d="m 188,92.075 h -8 v 8 h 8 z" /><path
       id="path256"
       style="fill:#999999;fill-opacity:1;fill-rule:nonzero;stroke:none"
       d="m 148,92.075 h -8 v 20 h 8 z" /><path
       id="path258"
       style="fill:#999999;fill-opacity:1;fill-rule:nonzero;stroke:none"
       d="m 48,116.075 h -8 v 8 h 8 z" /><path
       id="path260"
       style="fill:#999999;fill-opacity:1;fill-rule:nonzero;stroke:none"
       d="m 60,116.075 h -8 v 8 h 8 z" /><path
       id="path262"
       style="fill:#999999;fill-opacity:1;fill-rule:nonzero;stroke:none"
       d="m 72,116.075 h -8 v 8 h 8 z" /><path
       id="path264"
       style="fill:#999999;fill-opacity:1;fill-rule:nonzero;stroke:none"
       d="m 84,116.075 h -8 v 8 h 8 z" /><path
       id="path266"
       style="fill:#999999;fill-opacity:1;fill-rule:nonzero;stroke:none"
       d="m 96,116.075 h -8 v 8 h 8 z" /><path
       id="path268"
       style="fill:#999999;fill-opacity:1;fill-rule:nonzero;stroke:none"
       d="m 108,116.075 h -8 v 8 h 8 z" /><path
       id="path270"
       style="fill:#999999;fill-opacity:1;fill-rule:nonzero;stroke:none"
       d="m 120,116.075 h -8 v 8 h 8 z" /><path
       id="path272"
       style="fill:#999999;fill-opacity:1;fill-rule:nonzero;stroke:none"
       d="m 132,116.075 h -8 v 8 h 8 z" /><path
       id="path274"
       style="fill:#999999;fill-opacity:1;fill-rule:nonzero;stroke:none"
       d="m 148,116.075 h -12 v 8 h 12 z" /><path
       id="path276"
       style="fill:#999999;fill-opacity:1;fill-rule:nonzero;stroke:none"
       d="m 168,116.075 h -12 v 8 h 12 z" /><path
       id="path278"
       style="fill:#999999;fill-opacity:1;fill-rule:nonzero;stroke:none"
       d="m 188,116.075 h -12 v 8 h 12 z" /><path
       id="path280"
       style="fill:#999999;fill-opacity:1;fill-rule:nonzero;stroke:none"
       d="M 32,92.075 H 16 v 8.075 h 16 z" /><path
       id="path282"
       style="fill:#999999;fill-opacity:1;fill-rule:nonzero;stroke:none"
       d="M 32,80 H 16 v 8.075 h 16 z" /><path
       id="path284"
       style="fill:#999999;fill-opacity:1;fill-rule:nonzero;stroke:none"
       d="m 136,80 h -16 v 8.075 h 16 z" /><path
       id="path286"
       style="fill:#999999;fill-opacity:1;fill-rule:nonzero;stroke:none"
       d="M 116,80 H 36 v 8.075 h 80 z" /></g></svg>