<?xml version="1.0" encoding="UTF-8" standalone="no"?>
<svg
   xmlns:dc="http://purl.org/dc/elements/1.1/"
   xmlns:cc="http://creativecommons.org/ns#"
   xmlns:rdf="http://www.w3.org/1999/02/22-rdf-syntax-ns#"
   xmlns:svg="http://www.w3.org/2000/svg"
   xmlns="http://www.w3.org/2000/svg"
   viewBox="0 0 309.33331 187.95732"
   height="187.95732"
   width="309.33331"
   xml:space="preserve"
   id="svg2"
   version="1.1"><metadata
     id="metadata8"><rdf:RDF><cc:Work
         rdf:about=""><dc:format>image/svg+xml</dc:format><dc:type
           rdf:resource="http://purl.org/dc/dcmitype/StillImage" /></cc:Work></rdf:RDF></metadata><defs
     id="defs6"><clipPath
       id="clipPath18"
       clipPathUnits="userSpaceOnUse"><path
         id="path16"
         d="M 15.742,196 C 13.676,196 12,194.333 12,192.276 v 0 V 91.724 C 12,89.667 13.676,88 15.742,88 v 0 h 224.516 c 2.067,0 3.742,1.667 3.742,3.724 v 0 100.552 c 0,2.057 -1.675,3.724 -3.742,3.724 v 0 z" /></clipPath><linearGradient
       id="linearGradient28"
       spreadMethod="pad"
       gradientTransform="matrix(167.81325,-167.81325,-167.81325,-167.81325,44.093372,225.90663)"
       gradientUnits="userSpaceOnUse"
       y2="0"
       x2="1"
       y1="0"
       x1="0"><stop
         id="stop24"
         offset="0"
         style="stop-opacity:1;stop-color:#e6e7e8" /><stop
         id="stop26"
         offset="1"
         style="stop-opacity:1;stop-color:#d1d3d4" /></linearGradient><clipPath
       id="clipPath38"
       clipPathUnits="userSpaceOnUse"><path
         id="path36"
         d="M 0,256 H 256 V 0 H 0 Z" /></clipPath><clipPath
       id="clipPath54"
       clipPathUnits="userSpaceOnUse"><path
         id="path52"
         d="M 85.539,192 C 82.48,192 80,189.52 80,186.461 v 0 c 0,-3.058 2.48,-5.538 5.539,-5.538 v 0 h 84.923 c 3.058,0 5.538,2.48 5.538,5.538 v 0 c 0,3.059 -2.48,5.539 -5.538,5.539 v 0 z" /></clipPath><linearGradient
       id="linearGradient64"
       spreadMethod="pad"
       gradientTransform="matrix(-50.294102,50.294102,50.294102,50.294102,153.14705,161.31448)"
       gradientUnits="userSpaceOnUse"
       y2="0"
       x2="1"
       y1="0"
       x1="0"><stop
         id="stop60"
         offset="0"
         style="stop-opacity:1;stop-color:#e6e7e8" /><stop
         id="stop62"
         offset="1"
         style="stop-opacity:1;stop-color:#d1d3d4" /></linearGradient><clipPath
       id="clipPath74"
       clipPathUnits="userSpaceOnUse"><path
         id="path72"
         d="m 32,166 16,-28 16,28 z" /></clipPath><linearGradient
       id="linearGradient84"
       spreadMethod="pad"
       gradientTransform="matrix(22,-22,-22,-22,37,171)"
       gradientUnits="userSpaceOnUse"
       y2="0"
       x2="1"
       y1="0"
       x1="0"><stop
         id="stop80"
         offset="0"
         style="stop-opacity:1;stop-color:#e6e7e8" /><stop
         id="stop82"
         offset="1"
         style="stop-opacity:1;stop-color:#d1d3d4" /></linearGradient><clipPath
       id="clipPath94"
       clipPathUnits="userSpaceOnUse"><path
         id="path92"
         d="M 209.371,124 C 208.614,124 208,123.386 208,122.629 v 0 -17.258 c 0,-0.757 0.614,-1.371 1.371,-1.371 v 0 h 17.258 c 0.757,0 1.371,0.614 1.371,1.371 v 0 17.258 c 0,0.757 -0.614,1.371 -1.371,1.371 v 0 z" /></clipPath><linearGradient
       id="linearGradient104"
       spreadMethod="pad"
       gradientTransform="matrix(19.196634,-19.196634,-19.196634,-19.196634,208.40169,123.59832)"
       gradientUnits="userSpaceOnUse"
       y2="0"
       x2="1"
       y1="0"
       x1="0"><stop
         id="stop100"
         offset="0"
         style="stop-opacity:1;stop-color:#e6e7e8" /><stop
         id="stop102"
         offset="1"
         style="stop-opacity:1;stop-color:#d1d3d4" /></linearGradient><clipPath
       id="clipPath114"
       clipPathUnits="userSpaceOnUse"><path
         id="path112"
         d="M 17.738,96 C 15.674,96 14,94.992 14,93.75 v 0 -13.5 C 14,79.007 15.674,78 17.738,78 v 0 H 18 v -8.723 c -2.398,-0.716 -4.129,-2.121 -4.129,-4.89 v 0 c 0,-5.182 4.172,-9.355 9.354,-9.355 v 0 h 209.549 c 5.182,0 9.355,4.173 9.355,9.355 v 0 c 0,2.769 -1.732,4.174 -4.129,4.89 v 0 V 78 h 0.262 c 2.065,0 3.738,1.007 3.738,2.25 v 0 13.5 c 0,1.242 -1.673,2.25 -3.738,2.25 v 0 z" /></clipPath><linearGradient
       id="linearGradient124"
       spreadMethod="pad"
       gradientTransform="matrix(131.00224,-131.00224,-131.00224,-131.00224,62.498875,142.87453)"
       gradientUnits="userSpaceOnUse"
       y2="0"
       x2="1"
       y1="0"
       x1="0"><stop
         id="stop120"
         offset="0"
         style="stop-opacity:1;stop-color:#e6e7e8" /><stop
         id="stop122"
         offset="1"
         style="stop-opacity:1;stop-color:#d1d3d4" /></linearGradient><clipPath
       id="clipPath134"
       clipPathUnits="userSpaceOnUse"><path
         id="path132"
         d="M 0,256 H 256 V 0 H 0 Z" /></clipPath><clipPath
       id="clipPath146"
       clipPathUnits="userSpaceOnUse"><path
         id="path144"
         d="m 26,60 h 4 v 23.999 h -4 z" /></clipPath><linearGradient
       id="linearGradient156"
       spreadMethod="pad"
       gradientTransform="matrix(14,-14,-14,-14,21,79)"
       gradientUnits="userSpaceOnUse"
       y2="0"
       x2="1"
       y1="0"
       x1="0"><stop
         id="stop152"
         offset="0"
         style="stop-opacity:1;stop-color:#e6e7e8" /><stop
         id="stop154"
         offset="1"
         style="stop-opacity:1;stop-color:#d1d3d4" /></linearGradient><clipPath
       id="clipPath166"
       clipPathUnits="userSpaceOnUse"><path
         id="path164"
         d="m 34,64 h 4 v 20 h -4 z" /></clipPath><linearGradient
       id="linearGradient176"
       spreadMethod="pad"
       gradientTransform="matrix(11.999999,-11.999999,-11.999999,-11.999999,30,80)"
       gradientUnits="userSpaceOnUse"
       y2="0"
       x2="1"
       y1="0"
       x1="0"><stop
         id="stop172"
         offset="0"
         style="stop-opacity:1;stop-color:#e6e7e8" /><stop
         id="stop174"
         offset="1"
         style="stop-opacity:1;stop-color:#d1d3d4" /></linearGradient><clipPath
       id="clipPath186"
       clipPathUnits="userSpaceOnUse"><path
         id="path184"
         d="m 42,64 h 4 v 20 h -4 z" /></clipPath><linearGradient
       id="linearGradient196"
       spreadMethod="pad"
       gradientTransform="matrix(11.999999,-11.999999,-11.999999,-11.999999,38,80)"
       gradientUnits="userSpaceOnUse"
       y2="0"
       x2="1"
       y1="0"
       x1="0"><stop
         id="stop192"
         offset="0"
         style="stop-opacity:1;stop-color:#e6e7e8" /><stop
         id="stop194"
         offset="1"
         style="stop-opacity:1;stop-color:#d1d3d4" /></linearGradient><clipPath
       id="clipPath206"
       clipPathUnits="userSpaceOnUse"><path
         id="path204"
         d="m 50,64 h 4 v 20 h -4 z" /></clipPath><linearGradient
       id="linearGradient216"
       spreadMethod="pad"
       gradientTransform="matrix(11.999999,-11.999999,-11.999999,-11.999999,46,80)"
       gradientUnits="userSpaceOnUse"
       y2="0"
       x2="1"
       y1="0"
       x1="0"><stop
         id="stop212"
         offset="0"
         style="stop-opacity:1;stop-color:#e6e7e8" /><stop
         id="stop214"
         offset="1"
         style="stop-opacity:1;stop-color:#d1d3d4" /></linearGradient><clipPath
       id="clipPath226"
       clipPathUnits="userSpaceOnUse"><path
         id="path224"
         d="m 58,64 h 4.001 V 84 H 58 Z" /></clipPath><linearGradient
       id="linearGradient236"
       spreadMethod="pad"
       gradientTransform="matrix(11.999999,-11.999999,-11.999999,-11.999999,54,80)"
       gradientUnits="userSpaceOnUse"
       y2="0"
       x2="1"
       y1="0"
       x1="0"><stop
         id="stop232"
         offset="0"
         style="stop-opacity:1;stop-color:#e6e7e8" /><stop
         id="stop234"
         offset="1"
         style="stop-opacity:1;stop-color:#d1d3d4" /></linearGradient><clipPath
       id="clipPath246"
       clipPathUnits="userSpaceOnUse"><path
         id="path244"
         d="m 66,64 h 4.001 V 84 H 66 Z" /></clipPath><linearGradient
       id="linearGradient256"
       spreadMethod="pad"
       gradientTransform="matrix(11.999999,-11.999999,-11.999999,-11.999999,62,80)"
       gradientUnits="userSpaceOnUse"
       y2="0"
       x2="1"
       y1="0"
       x1="0"><stop
         id="stop252"
         offset="0"
         style="stop-opacity:1;stop-color:#e6e7e8" /><stop
         id="stop254"
         offset="1"
         style="stop-opacity:1;stop-color:#d1d3d4" /></linearGradient><clipPath
       id="clipPath266"
       clipPathUnits="userSpaceOnUse"><path
         id="path264"
         d="m 74,64 h 4.001 V 84 H 74 Z" /></clipPath><linearGradient
       id="linearGradient276"
       spreadMethod="pad"
       gradientTransform="matrix(11.999999,-11.999999,-11.999999,-11.999999,70,80)"
       gradientUnits="userSpaceOnUse"
       y2="0"
       x2="1"
       y1="0"
       x1="0"><stop
         id="stop272"
         offset="0"
         style="stop-opacity:1;stop-color:#e6e7e8" /><stop
         id="stop274"
         offset="1"
         style="stop-opacity:1;stop-color:#d1d3d4" /></linearGradient><clipPath
       id="clipPath286"
       clipPathUnits="userSpaceOnUse"><path
         id="path284"
         d="m 82,64 h 4.001 V 84 H 82 Z" /></clipPath><linearGradient
       id="linearGradient296"
       spreadMethod="pad"
       gradientTransform="matrix(11.999999,-11.999999,-11.999999,-11.999999,78,80)"
       gradientUnits="userSpaceOnUse"
       y2="0"
       x2="1"
       y1="0"
       x1="0"><stop
         id="stop292"
         offset="0"
         style="stop-opacity:1;stop-color:#e6e7e8" /><stop
         id="stop294"
         offset="1"
         style="stop-opacity:1;stop-color:#d1d3d4" /></linearGradient><clipPath
       id="clipPath306"
       clipPathUnits="userSpaceOnUse"><path
         id="path304"
         d="m 90,64 h 4 v 20 h -4 z" /></clipPath><linearGradient
       id="linearGradient316"
       spreadMethod="pad"
       gradientTransform="matrix(11.999999,-11.999999,-11.999999,-11.999999,86,80)"
       gradientUnits="userSpaceOnUse"
       y2="0"
       x2="1"
       y1="0"
       x1="0"><stop
         id="stop312"
         offset="0"
         style="stop-opacity:1;stop-color:#e6e7e8" /><stop
         id="stop314"
         offset="1"
         style="stop-opacity:1;stop-color:#d1d3d4" /></linearGradient><clipPath
       id="clipPath326"
       clipPathUnits="userSpaceOnUse"><path
         id="path324"
         d="m 98,64 h 4 v 20 h -4 z" /></clipPath><linearGradient
       id="linearGradient336"
       spreadMethod="pad"
       gradientTransform="matrix(11.999999,-11.999999,-11.999999,-11.999999,94,80)"
       gradientUnits="userSpaceOnUse"
       y2="0"
       x2="1"
       y1="0"
       x1="0"><stop
         id="stop332"
         offset="0"
         style="stop-opacity:1;stop-color:#e6e7e8" /><stop
         id="stop334"
         offset="1"
         style="stop-opacity:1;stop-color:#d1d3d4" /></linearGradient><clipPath
       id="clipPath346"
       clipPathUnits="userSpaceOnUse"><path
         id="path344"
         d="m 106,64 h 4 v 20 h -4 z" /></clipPath><linearGradient
       id="linearGradient356"
       spreadMethod="pad"
       gradientTransform="matrix(11.999999,-11.999999,-11.999999,-11.999999,102,80)"
       gradientUnits="userSpaceOnUse"
       y2="0"
       x2="1"
       y1="0"
       x1="0"><stop
         id="stop352"
         offset="0"
         style="stop-opacity:1;stop-color:#e6e7e8" /><stop
         id="stop354"
         offset="1"
         style="stop-opacity:1;stop-color:#d1d3d4" /></linearGradient><clipPath
       id="clipPath366"
       clipPathUnits="userSpaceOnUse"><path
         id="path364"
         d="m 114,64 h 4 v 20 h -4 z" /></clipPath><linearGradient
       id="linearGradient376"
       spreadMethod="pad"
       gradientTransform="matrix(11.999999,-11.999999,-11.999999,-11.999999,110,80)"
       gradientUnits="userSpaceOnUse"
       y2="0"
       x2="1"
       y1="0"
       x1="0"><stop
         id="stop372"
         offset="0"
         style="stop-opacity:1;stop-color:#e6e7e8" /><stop
         id="stop374"
         offset="1"
         style="stop-opacity:1;stop-color:#d1d3d4" /></linearGradient><clipPath
       id="clipPath386"
       clipPathUnits="userSpaceOnUse"><path
         id="path384"
         d="m 122,60 h 4 v 23.999 h -4 z" /></clipPath><linearGradient
       id="linearGradient396"
       spreadMethod="pad"
       gradientTransform="matrix(14,-14,-14,-14,117,79)"
       gradientUnits="userSpaceOnUse"
       y2="0"
       x2="1"
       y1="0"
       x1="0"><stop
         id="stop392"
         offset="0"
         style="stop-opacity:1;stop-color:#e6e7e8" /><stop
         id="stop394"
         offset="1"
         style="stop-opacity:1;stop-color:#d1d3d4" /></linearGradient><clipPath
       id="clipPath406"
       clipPathUnits="userSpaceOnUse"><path
         id="path404"
         d="m 130,60 h 4.001 V 83.999 H 130 Z" /></clipPath><linearGradient
       id="linearGradient416"
       spreadMethod="pad"
       gradientTransform="matrix(14,-14,-14,-14,125,79)"
       gradientUnits="userSpaceOnUse"
       y2="0"
       x2="1"
       y1="0"
       x1="0"><stop
         id="stop412"
         offset="0"
         style="stop-opacity:1;stop-color:#e6e7e8" /><stop
         id="stop414"
         offset="1"
         style="stop-opacity:1;stop-color:#d1d3d4" /></linearGradient><clipPath
       id="clipPath426"
       clipPathUnits="userSpaceOnUse"><path
         id="path424"
         d="m 138,64 h 4.001 V 84 H 138 Z" /></clipPath><linearGradient
       id="linearGradient436"
       spreadMethod="pad"
       gradientTransform="matrix(11.999999,-11.999999,-11.999999,-11.999999,134,80)"
       gradientUnits="userSpaceOnUse"
       y2="0"
       x2="1"
       y1="0"
       x1="0"><stop
         id="stop432"
         offset="0"
         style="stop-opacity:1;stop-color:#e6e7e8" /><stop
         id="stop434"
         offset="1"
         style="stop-opacity:1;stop-color:#d1d3d4" /></linearGradient><clipPath
       id="clipPath446"
       clipPathUnits="userSpaceOnUse"><path
         id="path444"
         d="m 146,64 h 4 v 20 h -4 z" /></clipPath><linearGradient
       id="linearGradient456"
       spreadMethod="pad"
       gradientTransform="matrix(11.999999,-11.999999,-11.999999,-11.999999,142,80)"
       gradientUnits="userSpaceOnUse"
       y2="0"
       x2="1"
       y1="0"
       x1="0"><stop
         id="stop452"
         offset="0"
         style="stop-opacity:1;stop-color:#e6e7e8" /><stop
         id="stop454"
         offset="1"
         style="stop-opacity:1;stop-color:#d1d3d4" /></linearGradient><clipPath
       id="clipPath466"
       clipPathUnits="userSpaceOnUse"><path
         id="path464"
         d="m 154,64 h 4.001 V 84 H 154 Z" /></clipPath><linearGradient
       id="linearGradient476"
       spreadMethod="pad"
       gradientTransform="matrix(11.999999,-11.999999,-11.999999,-11.999999,150,80)"
       gradientUnits="userSpaceOnUse"
       y2="0"
       x2="1"
       y1="0"
       x1="0"><stop
         id="stop472"
         offset="0"
         style="stop-opacity:1;stop-color:#e6e7e8" /><stop
         id="stop474"
         offset="1"
         style="stop-opacity:1;stop-color:#d1d3d4" /></linearGradient><clipPath
       id="clipPath486"
       clipPathUnits="userSpaceOnUse"><path
         id="path484"
         d="m 162,64 h 4 v 20 h -4 z" /></clipPath><linearGradient
       id="linearGradient496"
       spreadMethod="pad"
       gradientTransform="matrix(11.999999,-11.999999,-11.999999,-11.999999,158,80)"
       gradientUnits="userSpaceOnUse"
       y2="0"
       x2="1"
       y1="0"
       x1="0"><stop
         id="stop492"
         offset="0"
         style="stop-opacity:1;stop-color:#e6e7e8" /><stop
         id="stop494"
         offset="1"
         style="stop-opacity:1;stop-color:#d1d3d4" /></linearGradient><clipPath
       id="clipPath506"
       clipPathUnits="userSpaceOnUse"><path
         id="path504"
         d="m 170,64 h 4 v 20 h -4 z" /></clipPath><linearGradient
       id="linearGradient516"
       spreadMethod="pad"
       gradientTransform="matrix(11.999999,-11.999999,-11.999999,-11.999999,166,80)"
       gradientUnits="userSpaceOnUse"
       y2="0"
       x2="1"
       y1="0"
       x1="0"><stop
         id="stop512"
         offset="0"
         style="stop-opacity:1;stop-color:#e6e7e8" /><stop
         id="stop514"
         offset="1"
         style="stop-opacity:1;stop-color:#d1d3d4" /></linearGradient><clipPath
       id="clipPath526"
       clipPathUnits="userSpaceOnUse"><path
         id="path524"
         d="m 178,64 h 4 v 20 h -4 z" /></clipPath><linearGradient
       id="linearGradient536"
       spreadMethod="pad"
       gradientTransform="matrix(11.999999,-11.999999,-11.999999,-11.999999,174,80)"
       gradientUnits="userSpaceOnUse"
       y2="0"
       x2="1"
       y1="0"
       x1="0"><stop
         id="stop532"
         offset="0"
         style="stop-opacity:1;stop-color:#e6e7e8" /><stop
         id="stop534"
         offset="1"
         style="stop-opacity:1;stop-color:#d1d3d4" /></linearGradient><clipPath
       id="clipPath546"
       clipPathUnits="userSpaceOnUse"><path
         id="path544"
         d="m 186,64 h 4 v 20 h -4 z" /></clipPath><linearGradient
       id="linearGradient556"
       spreadMethod="pad"
       gradientTransform="matrix(11.999999,-11.999999,-11.999999,-11.999999,182,80)"
       gradientUnits="userSpaceOnUse"
       y2="0"
       x2="1"
       y1="0"
       x1="0"><stop
         id="stop552"
         offset="0"
         style="stop-opacity:1;stop-color:#e6e7e8" /><stop
         id="stop554"
         offset="1"
         style="stop-opacity:1;stop-color:#d1d3d4" /></linearGradient><clipPath
       id="clipPath566"
       clipPathUnits="userSpaceOnUse"><path
         id="path564"
         d="m 194,64 h 4 v 20 h -4 z" /></clipPath><linearGradient
       id="linearGradient576"
       spreadMethod="pad"
       gradientTransform="matrix(11.999999,-11.999999,-11.999999,-11.999999,190,80)"
       gradientUnits="userSpaceOnUse"
       y2="0"
       x2="1"
       y1="0"
       x1="0"><stop
         id="stop572"
         offset="0"
         style="stop-opacity:1;stop-color:#e6e7e8" /><stop
         id="stop574"
         offset="1"
         style="stop-opacity:1;stop-color:#d1d3d4" /></linearGradient><clipPath
       id="clipPath586"
       clipPathUnits="userSpaceOnUse"><path
         id="path584"
         d="m 202,64 h 4 v 20 h -4 z" /></clipPath><linearGradient
       id="linearGradient596"
       spreadMethod="pad"
       gradientTransform="matrix(11.999999,-11.999999,-11.999999,-11.999999,198,80)"
       gradientUnits="userSpaceOnUse"
       y2="0"
       x2="1"
       y1="0"
       x1="0"><stop
         id="stop592"
         offset="0"
         style="stop-opacity:1;stop-color:#e6e7e8" /><stop
         id="stop594"
         offset="1"
         style="stop-opacity:1;stop-color:#d1d3d4" /></linearGradient><clipPath
       id="clipPath606"
       clipPathUnits="userSpaceOnUse"><path
         id="path604"
         d="m 210,64 h 4.001 V 84 H 210 Z" /></clipPath><linearGradient
       id="linearGradient616"
       spreadMethod="pad"
       gradientTransform="matrix(11.999999,-11.999999,-11.999999,-11.999999,206,80)"
       gradientUnits="userSpaceOnUse"
       y2="0"
       x2="1"
       y1="0"
       x1="0"><stop
         id="stop612"
         offset="0"
         style="stop-opacity:1;stop-color:#e6e7e8" /><stop
         id="stop614"
         offset="1"
         style="stop-opacity:1;stop-color:#d1d3d4" /></linearGradient><clipPath
       id="clipPath626"
       clipPathUnits="userSpaceOnUse"><path
         id="path624"
         d="m 218,64 h 4.001 V 84 H 218 Z" /></clipPath><linearGradient
       id="linearGradient636"
       spreadMethod="pad"
       gradientTransform="matrix(11.999999,-11.999999,-11.999999,-11.999999,214,80)"
       gradientUnits="userSpaceOnUse"
       y2="0"
       x2="1"
       y1="0"
       x1="0"><stop
         id="stop632"
         offset="0"
         style="stop-opacity:1;stop-color:#e6e7e8" /><stop
         id="stop634"
         offset="1"
         style="stop-opacity:1;stop-color:#d1d3d4" /></linearGradient><clipPath
       id="clipPath646"
       clipPathUnits="userSpaceOnUse"><path
         id="path644"
         d="m 226,60 h 4.001 V 83.999 H 226 Z" /></clipPath><linearGradient
       id="linearGradient656"
       spreadMethod="pad"
       gradientTransform="matrix(14,-14,-14,-14,221,79)"
       gradientUnits="userSpaceOnUse"
       y2="0"
       x2="1"
       y1="0"
       x1="0"><stop
         id="stop652"
         offset="0"
         style="stop-opacity:1;stop-color:#e6e7e8" /><stop
         id="stop654"
         offset="1"
         style="stop-opacity:1;stop-color:#d1d3d4" /></linearGradient></defs><g
     transform="matrix(1.3333333,0,0,-1.3333333,-16,261.33333)"
     id="g10"><g
       id="g12"><g
         clip-path="url(#clipPath18)"
         id="g14"><g
           id="g20"><g
             id="g22"><path
               id="path30"
               style="fill:url(#linearGradient28);stroke:none"
               d="M 15.742,196 C 13.676,196 12,194.333 12,192.276 v 0 V 91.724 C 12,89.667 13.676,88 15.742,88 v 0 h 224.516 c 2.067,0 3.742,1.667 3.742,3.724 v 0 100.552 c 0,2.057 -1.675,3.724 -3.742,3.724 v 0 z" /></g></g></g></g><g
       id="g32"><g
         clip-path="url(#clipPath38)"
         id="g34"><g
           transform="translate(29.3103,180)"
           id="g40"><path
             id="path42"
             style="fill:#999999;fill-opacity:1;fill-rule:nonzero;stroke:none"
             d="m 0,0 h 197.379 c 5.142,0 9.311,-4.274 9.311,-9.545 v -64.91 c 0,-5.271 -4.169,-9.545 -9.311,-9.545 H 0 c -5.142,0 -9.31,4.274 -9.31,9.545 v 64.91 C -9.31,-4.274 -5.142,0 0,0" /></g><g
           transform="translate(32.9632,176)"
           id="g44"><path
             id="path46"
             style="fill:#ffffff;fill-opacity:1;fill-rule:nonzero;stroke:none"
             d="m 0,0 h 190.074 c 4.951,0 8.965,-3.867 8.965,-8.636 v -58.728 c 0,-4.769 -4.014,-8.636 -8.965,-8.636 H 0 c -4.952,0 -8.966,3.867 -8.966,8.636 V -8.636 C -8.966,-3.867 -4.952,0 0,0" /></g></g></g><g
       id="g48"><g
         clip-path="url(#clipPath54)"
         id="g50"><g
           id="g56"><g
             id="g58"><path
               id="path66"
               style="fill:url(#linearGradient64);stroke:none"
               d="M 85.539,192 C 82.48,192 80,189.52 80,186.461 v 0 c 0,-3.058 2.48,-5.538 5.539,-5.538 v 0 h 84.923 c 3.058,0 5.538,2.48 5.538,5.538 v 0 c 0,3.059 -2.48,5.539 -5.538,5.539 v 0 z" /></g></g></g></g><g
       id="g68"><g
         clip-path="url(#clipPath74)"
         id="g70"><g
           id="g76"><g
             id="g78"><path
               id="path86"
               style="fill:url(#linearGradient84);stroke:none"
               d="m 32,166 16,-28 16,28 z" /></g></g></g></g><g
       id="g88"><g
         clip-path="url(#clipPath94)"
         id="g90"><g
           id="g96"><g
             id="g98"><path
               id="path106"
               style="fill:url(#linearGradient104);stroke:none"
               d="M 209.371,124 C 208.614,124 208,123.386 208,122.629 v 0 -17.258 c 0,-0.757 0.614,-1.371 1.371,-1.371 v 0 h 17.258 c 0.757,0 1.371,0.614 1.371,1.371 v 0 17.258 c 0,0.757 -0.614,1.371 -1.371,1.371 v 0 z" /></g></g></g></g><g
       id="g108"><g
         clip-path="url(#clipPath114)"
         id="g110"><g
           id="g116"><g
             id="g118"><path
               id="path126"
               style="fill:url(#linearGradient124);stroke:none"
               d="M 17.738,96 C 15.674,96 14,94.992 14,93.75 v 0 -13.5 C 14,79.007 15.674,78 17.738,78 v 0 H 18 v -8.723 c -2.398,-0.716 -4.129,-2.121 -4.129,-4.89 v 0 c 0,-5.182 4.172,-9.355 9.354,-9.355 v 0 h 209.549 c 5.182,0 9.355,4.173 9.355,9.355 v 0 c 0,2.769 -1.732,4.174 -4.129,4.89 v 0 V 78 h 0.262 c 2.065,0 3.738,1.007 3.738,2.25 v 0 13.5 c 0,1.242 -1.673,2.25 -3.738,2.25 v 0 z" /></g></g></g></g><g
       id="g128"><g
         clip-path="url(#clipPath134)"
         id="g130"><path
           id="path136"
           style="fill:#999999;fill-opacity:1;fill-rule:nonzero;stroke:none"
           d="M 22,88 H 234 V 60 H 22 Z" /><path
           id="path138"
           style="fill:#ecf0f1;fill-opacity:1;fill-rule:nonzero;stroke:none"
           d="M 20,92 H 236 V 84 H 20 Z" /></g></g><g
       id="g140"><g
         clip-path="url(#clipPath146)"
         id="g142"><g
           id="g148"><g
             id="g150"><path
               id="path158"
               style="fill:url(#linearGradient156);stroke:none"
               d="m 26,60 h 4 v 23.999 h -4 z" /></g></g></g></g><g
       id="g160"><g
         clip-path="url(#clipPath166)"
         id="g162"><g
           id="g168"><g
             id="g170"><path
               id="path178"
               style="fill:url(#linearGradient176);stroke:none"
               d="m 34,64 h 4 v 20 h -4 z" /></g></g></g></g><g
       id="g180"><g
         clip-path="url(#clipPath186)"
         id="g182"><g
           id="g188"><g
             id="g190"><path
               id="path198"
               style="fill:url(#linearGradient196);stroke:none"
               d="m 42,64 h 4 v 20 h -4 z" /></g></g></g></g><g
       id="g200"><g
         clip-path="url(#clipPath206)"
         id="g202"><g
           id="g208"><g
             id="g210"><path
               id="path218"
               style="fill:url(#linearGradient216);stroke:none"
               d="m 50,64 h 4 v 20 h -4 z" /></g></g></g></g><g
       id="g220"><g
         clip-path="url(#clipPath226)"
         id="g222"><g
           id="g228"><g
             id="g230"><path
               id="path238"
               style="fill:url(#linearGradient236);stroke:none"
               d="m 58,64 h 4.001 V 84 H 58 Z" /></g></g></g></g><g
       id="g240"><g
         clip-path="url(#clipPath246)"
         id="g242"><g
           id="g248"><g
             id="g250"><path
               id="path258"
               style="fill:url(#linearGradient256);stroke:none"
               d="m 66,64 h 4.001 V 84 H 66 Z" /></g></g></g></g><g
       id="g260"><g
         clip-path="url(#clipPath266)"
         id="g262"><g
           id="g268"><g
             id="g270"><path
               id="path278"
               style="fill:url(#linearGradient276);stroke:none"
               d="m 74,64 h 4.001 V 84 H 74 Z" /></g></g></g></g><g
       id="g280"><g
         clip-path="url(#clipPath286)"
         id="g282"><g
           id="g288"><g
             id="g290"><path
               id="path298"
               style="fill:url(#linearGradient296);stroke:none"
               d="m 82,64 h 4.001 V 84 H 82 Z" /></g></g></g></g><g
       id="g300"><g
         clip-path="url(#clipPath306)"
         id="g302"><g
           id="g308"><g
             id="g310"><path
               id="path318"
               style="fill:url(#linearGradient316);stroke:none"
               d="m 90,64 h 4 v 20 h -4 z" /></g></g></g></g><g
       id="g320"><g
         clip-path="url(#clipPath326)"
         id="g322"><g
           id="g328"><g
             id="g330"><path
               id="path338"
               style="fill:url(#linearGradient336);stroke:none"
               d="m 98,64 h 4 v 20 h -4 z" /></g></g></g></g><g
       id="g340"><g
         clip-path="url(#clipPath346)"
         id="g342"><g
           id="g348"><g
             id="g350"><path
               id="path358"
               style="fill:url(#linearGradient356);stroke:none"
               d="m 106,64 h 4 v 20 h -4 z" /></g></g></g></g><g
       id="g360"><g
         clip-path="url(#clipPath366)"
         id="g362"><g
           id="g368"><g
             id="g370"><path
               id="path378"
               style="fill:url(#linearGradient376);stroke:none"
               d="m 114,64 h 4 v 20 h -4 z" /></g></g></g></g><g
       id="g380"><g
         clip-path="url(#clipPath386)"
         id="g382"><g
           id="g388"><g
             id="g390"><path
               id="path398"
               style="fill:url(#linearGradient396);stroke:none"
               d="m 122,60 h 4 v 23.999 h -4 z" /></g></g></g></g><g
       id="g400"><g
         clip-path="url(#clipPath406)"
         id="g402"><g
           id="g408"><g
             id="g410"><path
               id="path418"
               style="fill:url(#linearGradient416);stroke:none"
               d="m 130,60 h 4.001 V 83.999 H 130 Z" /></g></g></g></g><g
       id="g420"><g
         clip-path="url(#clipPath426)"
         id="g422"><g
           id="g428"><g
             id="g430"><path
               id="path438"
               style="fill:url(#linearGradient436);stroke:none"
               d="m 138,64 h 4.001 V 84 H 138 Z" /></g></g></g></g><g
       id="g440"><g
         clip-path="url(#clipPath446)"
         id="g442"><g
           id="g448"><g
             id="g450"><path
               id="path458"
               style="fill:url(#linearGradient456);stroke:none"
               d="m 146,64 h 4 v 20 h -4 z" /></g></g></g></g><g
       id="g460"><g
         clip-path="url(#clipPath466)"
         id="g462"><g
           id="g468"><g
             id="g470"><path
               id="path478"
               style="fill:url(#linearGradient476);stroke:none"
               d="m 154,64 h 4.001 V 84 H 154 Z" /></g></g></g></g><g
       id="g480"><g
         clip-path="url(#clipPath486)"
         id="g482"><g
           id="g488"><g
             id="g490"><path
               id="path498"
               style="fill:url(#linearGradient496);stroke:none"
               d="m 162,64 h 4 v 20 h -4 z" /></g></g></g></g><g
       id="g500"><g
         clip-path="url(#clipPath506)"
         id="g502"><g
           id="g508"><g
             id="g510"><path
               id="path518"
               style="fill:url(#linearGradient516);stroke:none"
               d="m 170,64 h 4 v 20 h -4 z" /></g></g></g></g><g
       id="g520"><g
         clip-path="url(#clipPath526)"
         id="g522"><g
           id="g528"><g
             id="g530"><path
               id="path538"
               style="fill:url(#linearGradient536);stroke:none"
               d="m 178,64 h 4 v 20 h -4 z" /></g></g></g></g><g
       id="g540"><g
         clip-path="url(#clipPath546)"
         id="g542"><g
           id="g548"><g
             id="g550"><path
               id="path558"
               style="fill:url(#linearGradient556);stroke:none"
               d="m 186,64 h 4 v 20 h -4 z" /></g></g></g></g><g
       id="g560"><g
         clip-path="url(#clipPath566)"
         id="g562"><g
           id="g568"><g
             id="g570"><path
               id="path578"
               style="fill:url(#linearGradient576);stroke:none"
               d="m 194,64 h 4 v 20 h -4 z" /></g></g></g></g><g
       id="g580"><g
         clip-path="url(#clipPath586)"
         id="g582"><g
           id="g588"><g
             id="g590"><path
               id="path598"
               style="fill:url(#linearGradient596);stroke:none"
               d="m 202,64 h 4 v 20 h -4 z" /></g></g></g></g><g
       id="g600"><g
         clip-path="url(#clipPath606)"
         id="g602"><g
           id="g608"><g
             id="g610"><path
               id="path618"
               style="fill:url(#linearGradient616);stroke:none"
               d="m 210,64 h 4.001 V 84 H 210 Z" /></g></g></g></g><g
       id="g620"><g
         clip-path="url(#clipPath626)"
         id="g622"><g
           id="g628"><g
             id="g630"><path
               id="path638"
               style="fill:url(#linearGradient636);stroke:none"
               d="m 218,64 h 4.001 V 84 H 218 Z" /></g></g></g></g><g
       id="g640"><g
         clip-path="url(#clipPath646)"
         id="g642"><g
           id="g648"><g
             id="g650"><path
               id="path658"
               style="fill:url(#linearGradient656);stroke:none"
               d="m 226,60 h 4.001 V 83.999 H 226 Z" /></g></g></g></g></g></svg>