<?xml version="1.0" encoding="UTF-8" standalone="no"?>
<svg
   xmlns:dc="http://purl.org/dc/elements/1.1/"
   xmlns:cc="http://creativecommons.org/ns#"
   xmlns:rdf="http://www.w3.org/1999/02/22-rdf-syntax-ns#"
   xmlns:svg="http://www.w3.org/2000/svg"
   xmlns="http://www.w3.org/2000/svg"
   viewBox="0 0 5120.0005 2880.0002"
   height="2880.0002"
   width="5120.0005"
   xml:space="preserve"
   id="svg2"
   version="1.1"><metadata
     id="metadata8"><rdf:RDF><cc:Work
         rdf:about=""><dc:format>image/svg+xml</dc:format><dc:type
           rdf:resource="http://purl.org/dc/dcmitype/StillImage" /></cc:Work></rdf:RDF></metadata><defs
     id="defs6"><clipPath
       id="clipPath290"
       clipPathUnits="userSpaceOnUse"><path
         id="path288"
         d="M 0,2160 H 3840 V 0 H 0 Z" /></clipPath><clipPath
       id="clipPath298"
       clipPathUnits="userSpaceOnUse"><path
         id="path296"
         d="M 0,2160 H 3840 V 6.24312 H 0 Z" /></clipPath></defs><g
     transform="matrix(1.3333333,0,0,-1.3333333,2.6666666e-4,2880.0002)"
     id="g10"><g
       transform="translate(89.023,2160)"
       id="g12"><path
         id="path14"
         style="fill:#545454;fill-opacity:1;fill-rule:nonzero;stroke:none"
         d="m 0,0 -89.023,-132.253 v -1989.626 h 3840 V -663.823 L 3356.209,0 Z" /></g><g
       transform="translate(1337.3777,170.8211)"
       id="g16"><path
         id="path18"
         style="fill:#4d4d4d;fill-opacity:1;fill-rule:nonzero;stroke:none"
         d="m 0,0 57.691,-170.821 h 864.418 l 10.316,28.258 -482.173,922.359 z" /></g><g
       transform="translate(0,1923.2473)"
       id="g20"><path
         id="path22"
         style="fill:#5e5e5e;fill-opacity:1;fill-rule:nonzero;stroke:none"
         d="m 0,0 v -478.941 l 90.1,75.478 -42.415,437.72 z" /></g><g
       transform="translate(879.2158,2159.9995)"
       id="g24"><path
         id="path26"
         style="fill:#707070;fill-opacity:1;fill-rule:nonzero;stroke:none"
         d="m 0,0 -251.047,-211.973 71.07,-237.215 L 212.689,-82.434 172.815,0 Z" /></g><g
       transform="translate(190.2713,2159.9995)"
       id="g28"><path
         id="path30"
         style="fill:#707070;fill-opacity:1;fill-rule:nonzero;stroke:none"
         d="M 0,0 -21.327,-14.763 44.569,-456.164 600.125,0 Z" /></g><g
       transform="translate(774.7548,2159.9995)"
       id="g32"><path
         id="path34"
         style="fill:#5e5e5e;fill-opacity:1;fill-rule:nonzero;stroke:none"
         d="m 0,0 -774.755,-633.075 v -407.719 L 221.843,-125.226 166.51,0 Z" /></g><g
       transform="translate(0,1317.9799)"
       id="g36"><path
         id="path38"
         style="fill:#575757;fill-opacity:1;fill-rule:nonzero;stroke:none"
         d="m 0,0 v -198.773 l 687.309,631.425 -39.16,130.705 z" /></g><g
       transform="translate(0,1197.1077)"
       id="g40"><path
         id="path42"
         style="fill:#575757;fill-opacity:1;fill-rule:nonzero;stroke:none"
         d="M 0,0 V -336.816 L 704.245,355.59 640.961,576.408 Z" /></g><g
       transform="translate(0,910.6835)"
       id="g44"><path
         id="path46"
         style="fill:#575757;fill-opacity:1;fill-rule:nonzero;stroke:none"
         d="m 0,0 v -483.296 l 380.589,415.232 -58.485,380.71 z" /></g><g
       transform="translate(166.7407,2159.9995)"
       id="g48"><path
         id="path50"
         style="fill:#777777;fill-opacity:1;fill-rule:nonzero;stroke:none"
         d="M 0,0 2.204,-14.763 23.531,0 Z" /></g><g
       transform="translate(0,2159.9995)"
       id="g52"><path
         id="path54"
         style="fill:#777777;fill-opacity:1;fill-rule:nonzero;stroke:none"
         d="M 0,0 V -68.136 L 100.733,0 Z" /></g><g
       transform="translate(0,2028.2863)"
       id="g56"><path
         id="path58"
         style="fill:#5e5e5e;fill-opacity:1;fill-rule:nonzero;stroke:none"
         d="m 0,0 v -487.702 l 4.628,-66.169 235.269,195.548 -70.952,475.273 z" /></g><g
       transform="translate(100.7335,2159.9995)"
       id="g60"><path
         id="path62"
         style="fill:#5e5e5e;fill-opacity:1;fill-rule:nonzero;stroke:none"
         d="m 0,0 -36.33,-24.574 10.779,-98.335 99.465,69.945 L 66.007,0 Z" /></g><g
       transform="translate(0,2091.8628)"
       id="g64"><path
         id="path66"
         style="fill:#606060;fill-opacity:1;fill-rule:nonzero;stroke:none"
         d="m 0,0 v -63.576 l 70.777,48.994 -6.373,58.145 z" /></g><g
       transform="translate(655.812,1721.6963)"
       id="g68"><path
         id="path70"
         style="fill:#5e5e5e;fill-opacity:1;fill-rule:nonzero;stroke:none"
         d="M 0,0 48.433,-168.999 483.207,258.466 421.101,386.862 Z" /></g><g
       transform="translate(328.2896,1183.062)"
       id="g72"><path
         id="path74"
         style="fill:#5e5e5e;fill-opacity:1;fill-rule:nonzero;stroke:none"
         d="m 0,0 64.533,-420.079 669.749,747.91 -111.441,284.54 z" /></g><g
       transform="translate(177.2192,620.7383)"
       id="g76"><path
         id="path78"
         style="fill:#5e5e5e;fill-opacity:1;fill-rule:nonzero;stroke:none"
         d="m 0,0 60.151,-620.738 h 6.604 L 710.751,200.341 587.377,640.843 Z" /></g><g
       transform="translate(0,427.3878)"
       id="g80"><path
         id="path82"
         style="fill:#5e5e5e;fill-opacity:1;fill-rule:nonzero;stroke:none"
         d="m 0,0 v -340.518 l 278.862,327.9 -32.501,281.404 z" /></g><g
       transform="translate(243.9744)"
       id="g84"><path
         id="path86"
         style="fill:#5e5e5e;fill-opacity:1;fill-rule:nonzero;stroke:none"
         d="m 0,0 h 330.838 l 113.895,159.179 -64.3,325.863 z" /></g><g
       transform="translate(0,86.8691)"
       id="g88"><path
         id="path90"
         style="fill:#575757;fill-opacity:1;fill-rule:nonzero;stroke:none"
         d="m 0,0 v -86.869 h 218.004 l 17.249,21.842 -29.72,306.703 z" /></g><g
       transform="translate(826.7314,1039.7305)"
       id="g92"><path
         id="path94"
         style="fill:#545454;fill-opacity:1;fill-rule:nonzero;stroke:none"
         d="m 0,0 -65.517,233.924 794.092,862.527 87.842,-131.537 z" /></g><g
       transform="translate(1321.9304,2159.9995)"
       id="g96"><path
         id="path98"
         style="fill:#626262;fill-opacity:1;fill-rule:nonzero;stroke:none"
         d="M 0,0 -370.8,-364.567 -284.112,-585.904 255.305,0 Z" /></g><g
       transform="translate(1052.03,2159.9995)"
       id="g100"><path
         id="path102"
         style="fill:#626262;fill-opacity:1;fill-rule:nonzero;stroke:none"
         d="M 0,0 86.989,-179.837 269.901,0 Z" /></g><g
       transform="translate(1539.4001,2159.9995)"
       id="g104"><path
         id="path106"
         style="fill:#626262;fill-opacity:1;fill-rule:nonzero;stroke:none"
         d="M 0,0 76.281,-114.225 175.503,0 Z" /></g><g
       transform="translate(965.145,545.5322)"
       id="g108"><path
         id="path110"
         style="fill:#585858;fill-opacity:1;fill-rule:nonzero;stroke:none"
         d="m 0,0 -138.414,494.198 468.16,553.313 167.255,-352.9 z" /></g><g
       transform="translate(887.9707,821.0791)"
       id="g112"><path
         id="path114"
         style="fill:#585858;fill-opacity:1;fill-rule:nonzero;stroke:none"
         d="m 0,0 77.174,-275.547 -276.438,-386.352 -64.299,325.862 z" /></g><g
       transform="translate(1714.9027,2159.9995)"
       id="g116"><path
         id="path118"
         style="fill:#545454;fill-opacity:1;fill-rule:nonzero;stroke:none"
         d="M 0,0 -445.596,-512.974 -85.458,-1272.847 688.944,0 Z" /></g><g
       transform="translate(574.8129)"
       id="g120"><path
         id="path122"
         style="fill:#545454;fill-opacity:1;fill-rule:nonzero;stroke:none"
         d="m 0,0 h 776.846 l 625.951,1130.061 -271.01,451.733 z" /></g><g
       transform="translate(1351.6594)"
       id="g124"><path
         id="path126"
         style="fill:#525252;fill-opacity:1;fill-rule:nonzero;stroke:none"
         d="m 0,0 h 523.92 l 106.01,238.265 -232.132,479.9 z" /></g><g
       transform="translate(2197.5908,1527.2026)"
       id="g128"><path
         id="path130"
         style="fill:#545454;fill-opacity:1;fill-rule:nonzero;stroke:none"
         d="m 0,0 -43.267,58.497 -220.725,-382.278 44.012,-73.361 z" /></g><g
       transform="translate(1933.5986,1203.4219)"
       id="g132"><path
         id="path134"
         style="fill:#5e5e5e;fill-opacity:1;fill-rule:nonzero;stroke:none"
         d="m 0,0 -55.476,92.47 221.399,363.902 54.803,-74.095 z" /></g><g
       transform="translate(2990.0645,455.7744)"
       id="g136"><path
         id="path138"
         style="fill:#494949;fill-opacity:1;fill-rule:nonzero;stroke:none"
         d="m 0,0 -890.543,1204.019 125.58,206.41 855.567,-1025.55 z" /></g><g
       transform="translate(2524.5186,1400.9976)"
       id="g140"><path
         id="path142"
         style="fill:#494949;fill-opacity:1;fill-rule:nonzero;stroke:none"
         d="M 0,0 -151.112,186.97 -72.834,340.532 74.99,171.442 Z" /></g><g
       transform="translate(1831.6113,866.4824)"
       id="g144"><path
         id="path146"
         style="fill:#494949;fill-opacity:1;fill-rule:nonzero;stroke:none"
         d="M 0,0 452.963,-866.482 H 1051.16 L 1158.453,-410.708 365.98,660.72 Z" /></g><g
       transform="translate(2855.6721)"
       id="g148"><path
         id="path150"
         style="fill:#494949;fill-opacity:1;fill-rule:nonzero;stroke:none"
         d="M 0,0 H 224.541 L 58.241,241.62 Z" /></g><g
       transform="translate(2334.207,2159.9995)"
       id="g152"><path
         id="path154"
         style="fill:#545454;fill-opacity:1;fill-rule:nonzero;stroke:none"
         d="M 0,0 -153.045,-241.127 80.225,-520.743 261.463,-161.895 98.703,0 Z" /></g><g
       transform="translate(2599.5088,1572.4399)"
       id="g156"><path
         id="path158"
         style="fill:#545454;fill-opacity:1;fill-rule:nonzero;stroke:none"
         d="M 0,0 -138.696,158.649 -100.888,233.51 36.164,82.678 Z" /></g><g
       transform="translate(2677.4351,2159.9995)"
       id="g160"><path
         id="path162"
         style="fill:#4e4e4e;fill-opacity:1;fill-rule:nonzero;stroke:none"
         d="M 0,0 -178.814,-354.05 -41.762,-504.882 132.907,-105.551 16.39,0 Z" /></g><g
       transform="translate(2432.9099,2159.9995)"
       id="g164"><path
         id="path166"
         style="fill:#4e4e4e;fill-opacity:1;fill-rule:nonzero;stroke:none"
         d="M 0,0 472.757,-470.246 547.629,-259.728 260.915,0 Z" /></g><g
       transform="translate(3172.8447,1232.2183)"
       id="g168"><path
         id="path170"
         style="fill:#484848;fill-opacity:1;fill-rule:nonzero;stroke:none"
         d="M 0,0 -494.71,519.977 -443.931,636.068 37.184,157.951 Z" /></g><g
       transform="translate(2933.0903,213.7555)"
       id="g172"><path
         id="path174"
         style="fill:#3a3a3a;fill-opacity:1;fill-rule:nonzero;stroke:none"
         d="m 0,0 147.123,-213.755 h 28.385 l 233.494,1239.144 -135.695,135.602 z" /></g><g
       transform="translate(3080.668,840.6533)"
       id="g176"><path
         id="path178"
         style="fill:#3a3a3a;fill-opacity:1;fill-rule:nonzero;stroke:none"
         d="M 0,0 -525.646,630.081 -402.533,911.542 92.177,391.565 Z" /></g><g
       transform="translate(3108.5986)"
       id="g180"><path
         id="path182"
         style="fill:#3e3e3e;fill-opacity:1;fill-rule:nonzero;stroke:none"
         d="m 0,0 h 243.895 l 148.729,1080.125 -159.13,159.02 z" /></g><g
       transform="translate(3261.874,1610.4106)"
       id="g184"><path
         id="path186"
         style="fill:#484848;fill-opacity:1;fill-rule:nonzero;stroke:none"
         d="M 0,0 -213.94,195.95 -292.272,-47.261 -65.32,-277.479 Z" /></g><g
       transform="translate(2985.6914,1613.1079)"
       id="g188"><path
         id="path190"
         style="fill:#4e4e4e;fill-opacity:1;fill-rule:nonzero;stroke:none"
         d="M 0,0 -151.128,150.187 -82.905,326.194 62.242,193.253 Z" /></g><g
       transform="translate(2693.8254,2159.9995)"
       id="g192"><path
         id="path194"
         style="fill:#636363;fill-opacity:1;fill-rule:nonzero;stroke:none"
         d="m 0,0 286.713,-259.728 33.769,94.945 L 130.458,0 Z" /></g><g
       transform="translate(2739.6147,2159.9995)"
       id="g196"><path
         id="path198"
         style="fill:#555555;fill-opacity:1;fill-rule:nonzero;stroke:none"
         d="M 0,0 -13.908,-28.881 316.511,-328.201 422.216,0 Z" /></g><g
       transform="translate(3047.9336,1806.3608)"
       id="g200"><path
         id="path202"
         style="fill:#4b4b4b;fill-opacity:1;fill-rule:nonzero;stroke:none"
         d="M 0,0 -76.028,69.635 -67.395,93.911 8.192,25.438 Z" /></g><g
       transform="translate(3161.8306,2159.9995)"
       id="g204"><path
         id="path206"
         style="fill:#585858;fill-opacity:1;fill-rule:nonzero;stroke:none"
         d="M 0,0 -105.705,-328.201 106.836,-520.737 196.16,-141.29 14.441,0 Z" /></g><g
       transform="translate(3352.4922)"
       id="g208"><path
         id="path210"
         style="fill:#3b3b3b;fill-opacity:1;fill-rule:nonzero;stroke:none"
         d="M 0,0 H 487.507 V 949.485 L 171.943,1248.706 Z" /></g><g
       transform="translate(3501.2227,1080.125)"
       id="g212"><path
         id="path214"
         style="fill:#3b3b3b;fill-opacity:1;fill-rule:nonzero;stroke:none"
         d="m 0,0 -159.13,159.02 29.169,154.802 153.174,-145.24 z" /></g><g
       transform="translate(3342.0928,1239.145)"
       id="g216"><path
         id="path218"
         style="fill:#424242;fill-opacity:1;fill-rule:nonzero;stroke:none"
         d="M 0,0 -135.695,135.602 -71.194,409.6 55.614,295.144 Z" /></g><g
       transform="translate(3225.0066,1690.1669)"
       id="g220"><path
         id="path222"
         style="fill:#555555;fill-opacity:1;fill-rule:nonzero;stroke:none"
         d="m 0,0 614.993,-555.088 v 385.297 L 68.761,271.503 Z" /></g><g
       transform="translate(3261.874,1610.4106)"
       id="g224"><path
         id="path226"
         style="fill:#555555;fill-opacity:1;fill-rule:nonzero;stroke:none"
         d="m 0,0 -213.94,195.95 8.192,25.438 L 6.793,28.853 Z" /></g><g
       transform="translate(3176.272,2159.9995)"
       id="g228"><path
         id="path230"
         style="fill:#555555;fill-opacity:1;fill-rule:nonzero;stroke:none"
         d="m 0,0 181.719,-141.29 8.317,35.333 L 51.691,0 Z" /></g><g
       transform="translate(3693.7468,1588.9714)"
       id="g232"><path
         id="path234"
         style="fill:#555555;fill-opacity:1;fill-rule:nonzero;stroke:none"
         d="M 0,0 146.253,-120.003 V 283.083 L 36.125,362.535 Z" /></g><g
       transform="translate(3698.3174,1634.8384)"
       id="g236"><path
         id="path238"
         style="fill:#535353;fill-opacity:1;fill-rule:nonzero;stroke:none"
         d="m 0,0 -361.871,292.352 21.545,91.519 351.355,-273.184 z" /></g><g
       transform="translate(3570.9492,2159.9995)"
       id="g240"><path
         id="path242"
         style="fill:#535353;fill-opacity:1;fill-rule:nonzero;stroke:none"
         d="M 0,0 -49.266,-294.081 135.921,-439.327 171.599,-81.279 53.308,0 Z" /></g><g
       transform="translate(3391.2517,2159.9995)"
       id="g244"><path
         id="path246"
         style="fill:#4f4f4f;fill-opacity:1;fill-rule:nonzero;stroke:none"
         d="M 0,0 -33.261,-141.29 134.214,-271.504 179.698,0 Z" /></g><g
       transform="translate(3227.9624,2159.9995)"
       id="g248"><path
         id="path250"
         style="fill:#4f4f4f;fill-opacity:1;fill-rule:nonzero;stroke:none"
         d="M 0,0 138.346,-105.957 163.289,0 Z" /></g><g
       transform="translate(3729.8716,1951.5067)"
       id="g252"><path
         id="path254"
         style="fill:#535353;fill-opacity:1;fill-rule:nonzero;stroke:none"
         d="M 0,0 110.128,-79.451 V 71.816 l -96.399,65.963 z" /></g><g
       transform="translate(3828.1663,1997.4532)"
       id="g256"><path
         id="path258"
         style="fill:#535353;fill-opacity:1;fill-rule:nonzero;stroke:none"
         d="M 0,0 11.833,-8.196 V 105.03 l -4.665,3.102 z" /></g><g
       transform="translate(3624.2568,2159.9995)"
       id="g260"><path
         id="path262"
         style="fill:#484848;fill-opacity:1;fill-rule:nonzero;stroke:none"
         d="m 0,0 118.291,-81.279 1.053,10.565 L 16,0 Z" /></g><g
       transform="translate(3640.2568,2159.9995)"
       id="g264"><path
         id="path266"
         style="fill:#4e4e4e;fill-opacity:1;fill-rule:nonzero;stroke:none"
         d="M 0,0 116.536,-79.741 123.428,-6.782 113.227,0 Z" /></g><g
       transform="translate(3764.3267,2159.9995)"
       id="g268"><path
         id="path270"
         style="fill:#444444;fill-opacity:1;fill-rule:nonzero;stroke:none"
         d="m 0,0 -7.534,-79.741 73.527,-50.313 5.702,85.997 L 5.158,0 Z" /></g><g
       transform="translate(3758.1084,2160)"
       id="g272"><path
         id="path274"
         style="fill:#444444;fill-opacity:1;fill-rule:nonzero;stroke:none"
         d="m 0,0 -0.28,-2.888 82.172,-54.629 v 15.791 L 18.76,0 Z" /></g><g
       transform="translate(3776.8669,2160.0002)"
       id="g276"><path
         id="path278"
         style="fill:#4e4e4e;fill-opacity:1;fill-rule:nonzero;stroke:none"
         d="M 0,0 63.133,-41.726 V 0 Z" /></g><g
       transform="translate(3333.9036,1429.3708)"
       id="g280"><path
         id="path282"
         style="fill:#424242;fill-opacity:1;fill-rule:nonzero;stroke:none"
         d="m 0,0 506.096,-479.886 v 185.594 L 27.701,137.503 Z" /></g><g
       id="g284"><g
         clip-path="url(#clipPath290)"
         id="g286"><g
           id="g292"><g
             id="g294" /><g
             id="g304"><g
               id="g302"
               clip-path="url(#clipPath298)"><path
                 id="path300"
                 style="fill:#29678e;fill-opacity:1;fill-rule:nonzero;stroke:none"
                 d="M 3840,6.243 H 0 V 2160 h 3840 z" /></g></g></g></g></g></g></svg>