<?xml version="1.0" encoding="UTF-8" standalone="no"?>
<svg
   xmlns:dc="http://purl.org/dc/elements/1.1/"
   xmlns:cc="http://creativecommons.org/ns#"
   xmlns:rdf="http://www.w3.org/1999/02/22-rdf-syntax-ns#"
   xmlns:svg="http://www.w3.org/2000/svg"
   xmlns="http://www.w3.org/2000/svg"
   viewBox="0 0 309.33331 117.33333"
   height="117.33333"
   width="309.33331"
   xml:space="preserve"
   id="svg2"
   version="1.1"><metadata
     id="metadata8"><rdf:RDF><cc:Work
         rdf:about=""><dc:format>image/svg+xml</dc:format><dc:type
           rdf:resource="http://purl.org/dc/dcmitype/StillImage" /></cc:Work></rdf:RDF></metadata><defs
     id="defs6"><clipPath
       id="clipPath18"
       clipPathUnits="userSpaceOnUse"><path
         id="path16"
         d="M 208,84 H 12 v 88 h 196 z" /></clipPath><linearGradient
       id="linearGradient28"
       spreadMethod="pad"
       gradientTransform="matrix(142,-142,-142,-142,39,199)"
       gradientUnits="userSpaceOnUse"
       y2="0"
       x2="1"
       y1="0"
       x1="0"><stop
         id="stop24"
         offset="0"
         style="stop-opacity:1;stop-color:#e6e7e8" /><stop
         id="stop26"
         offset="1"
         style="stop-opacity:1;stop-color:#d1d3d4" /></linearGradient><clipPath
       id="clipPath38"
       clipPathUnits="userSpaceOnUse"><path
         id="path36"
         d="m 244,84 h -40 v 88 h 40 z" /></clipPath><linearGradient
       id="linearGradient48"
       spreadMethod="pad"
       gradientTransform="matrix(-63.999996,63.999996,63.999996,63.999996,256,96)"
       gradientUnits="userSpaceOnUse"
       y2="0"
       x2="1"
       y1="0"
       x1="0"><stop
         id="stop44"
         offset="0"
         style="stop-opacity:1;stop-color:#e6e7e8" /><stop
         id="stop46"
         offset="1"
         style="stop-opacity:1;stop-color:#d1d3d4" /></linearGradient><clipPath
       id="clipPath58"
       clipPathUnits="userSpaceOnUse"><path
         id="path56"
         d="m 240,124 h -32 v 24 h 32 z" /></clipPath><linearGradient
       id="linearGradient68"
       spreadMethod="pad"
       gradientTransform="matrix(-28,28,28,28,238,122)"
       gradientUnits="userSpaceOnUse"
       y2="0"
       x2="1"
       y1="0"
       x1="0"><stop
         id="stop64"
         offset="0"
         style="stop-opacity:1;stop-color:#e6e7e8" /><stop
         id="stop66"
         offset="1"
         style="stop-opacity:1;stop-color:#d1d3d4" /></linearGradient><clipPath
       id="clipPath212"
       clipPathUnits="userSpaceOnUse"><path
         id="path210"
         d="m 208,168 v -23.028 l 3.452,-4.275 v -1.377 h 1.295 l -0.062,-7.405 h -1.295 v -1.246 L 208,126.845 V 88 l 32,0.006 v 38.869 l -3.441,3.816 v 1.269 h -1.29 v 7.379 h 1.29 v 1.353 L 240,144.974 V 168 Z" /></clipPath><linearGradient
       id="linearGradient222"
       spreadMethod="pad"
       gradientTransform="matrix(55.997303,-55.997303,-55.997303,-55.997303,196,156)"
       gradientUnits="userSpaceOnUse"
       y2="0"
       x2="1"
       y1="0"
       x1="0"><stop
         id="stop218"
         offset="0"
         style="stop-opacity:1;stop-color:#e6e7e8" /><stop
         id="stop220"
         offset="1"
         style="stop-opacity:1;stop-color:#d1d3d4" /></linearGradient><clipPath
       id="clipPath232"
       clipPathUnits="userSpaceOnUse"><path
         id="path230"
         d="M 0,256 H 256 V 0 H 0 Z" /></clipPath><clipPath
       id="clipPath288"
       clipPathUnits="userSpaceOnUse"><path
         id="path286"
         d="m 213.518,154.207 c 0,-6.094 4.94,-11.035 11.034,-11.035 v 0 c 6.094,0 11.034,4.941 11.034,11.035 v 0 c 0,6.094 -4.94,11.034 -11.034,11.034 v 0 c -6.094,0 -11.034,-4.94 -11.034,-11.034" /></clipPath><linearGradient
       id="linearGradient298"
       spreadMethod="pad"
       gradientTransform="matrix(-15.604827,15.604827,15.604827,15.604827,232.35414,146.40442)"
       gradientUnits="userSpaceOnUse"
       y2="0"
       x2="1"
       y1="0"
       x1="0"><stop
         id="stop294"
         offset="0"
         style="stop-opacity:1;stop-color:#e6e7e8" /><stop
         id="stop296"
         offset="1"
         style="stop-opacity:1;stop-color:#d1d3d4" /></linearGradient><clipPath
       id="clipPath308"
       clipPathUnits="userSpaceOnUse"><path
         id="path306"
         d="M 0,256 H 256 V 0 H 0 Z" /></clipPath><clipPath
       id="clipPath320"
       clipPathUnits="userSpaceOnUse"><path
         id="path318"
         d="m 216.275,154.207 c 0,-4.571 3.707,-8.276 8.277,-8.276 v 0 c 4.57,0 8.275,3.705 8.275,8.276 v 0 c 0,4.57 -3.705,8.276 -8.275,8.276 v 0 c -4.57,0 -8.277,-3.706 -8.277,-8.276" /></clipPath><linearGradient
       id="linearGradient330"
       spreadMethod="pad"
       gradientTransform="matrix(11.703833,11.703833,11.703833,-11.703833,218.69981,148.3549)"
       gradientUnits="userSpaceOnUse"
       y2="0"
       x2="1"
       y1="0"
       x1="0"><stop
         id="stop326"
         offset="0"
         style="stop-opacity:1;stop-color:#e6e7e8" /><stop
         id="stop328"
         offset="1"
         style="stop-opacity:1;stop-color:#d1d3d4" /></linearGradient><clipPath
       id="clipPath340"
       clipPathUnits="userSpaceOnUse"><path
         id="path338"
         d="m 217.655,154.208 c -0.001,-3.81 3.088,-6.899 6.898,-6.898 v 0 c 3.809,0.001 6.896,3.089 6.896,6.898 v 0 c -0.001,3.808 -3.088,6.895 -6.896,6.896 v 0 c -3.809,0 -6.897,-3.086 -6.898,-6.896" /></clipPath><linearGradient
       id="linearGradient350"
       spreadMethod="pad"
       gradientTransform="matrix(-9.7530708,9.7530708,9.7530708,9.7530708,229.42825,149.33029)"
       gradientUnits="userSpaceOnUse"
       y2="0"
       x2="1"
       y1="0"
       x1="0"><stop
         id="stop346"
         offset="0"
         style="stop-opacity:1;stop-color:#e6e7e8" /><stop
         id="stop348"
         offset="1"
         style="stop-opacity:1;stop-color:#d1d3d4" /></linearGradient><clipPath
       id="clipPath360"
       clipPathUnits="userSpaceOnUse"><path
         id="path358"
         d="M 0,256 H 256 V 0 H 0 Z" /></clipPath><clipPath
       id="clipPath376"
       clipPathUnits="userSpaceOnUse"><path
         id="path374"
         d="M 216.696,138 C 216.31,138 216,137.641 216,137.198 v 0 -2.4 c 0,-0.442 0.31,-0.798 0.696,-0.798 v 0 h 14.609 c 0.386,0 0.695,0.356 0.695,0.798 v 0 2.4 c 0,0.443 -0.309,0.802 -0.695,0.802 v 0 z" /></clipPath><linearGradient
       id="linearGradient386"
       spreadMethod="pad"
       gradientTransform="matrix(-9.5654907,9.5654907,9.5654907,9.5654907,228.78275,131.21652)"
       gradientUnits="userSpaceOnUse"
       y2="0"
       x2="1"
       y1="0"
       x1="0"><stop
         id="stop382"
         offset="0"
         style="stop-opacity:1;stop-color:#e6e7e8" /><stop
         id="stop384"
         offset="1"
         style="stop-opacity:1;stop-color:#d1d3d4" /></linearGradient><clipPath
       id="clipPath396"
       clipPathUnits="userSpaceOnUse"><path
         id="path394"
         d="m 208,84 h 32 v 4.001 h -32 z" /></clipPath><linearGradient
       id="linearGradient406"
       spreadMethod="pad"
       gradientTransform="matrix(18,-18,-18,-18,215,95)"
       gradientUnits="userSpaceOnUse"
       y2="0"
       x2="1"
       y1="0"
       x1="0"><stop
         id="stop402"
         offset="0"
         style="stop-opacity:1;stop-color:#e6e7e8" /><stop
         id="stop404"
         offset="1"
         style="stop-opacity:1;stop-color:#d1d3d4" /></linearGradient><clipPath
       id="clipPath416"
       clipPathUnits="userSpaceOnUse"><path
         id="path414"
         d="m 12,84 h 192.001 v 4.001 H 12 Z" /></clipPath><linearGradient
       id="linearGradient426"
       spreadMethod="pad"
       gradientTransform="matrix(-97.999992,97.999992,97.999992,97.999992,157,37)"
       gradientUnits="userSpaceOnUse"
       y2="0"
       x2="1"
       y1="0"
       x1="0"><stop
         id="stop422"
         offset="0"
         style="stop-opacity:1;stop-color:#e6e7e8" /><stop
         id="stop424"
         offset="1"
         style="stop-opacity:1;stop-color:#d1d3d4" /></linearGradient><clipPath
       id="clipPath436"
       clipPathUnits="userSpaceOnUse"><path
         id="path434"
         d="M 0,256 H 256 V 0 H 0 Z" /></clipPath></defs><g
     transform="matrix(1.3333333,0,0,-1.3333333,-16,229.33333)"
     id="g10"><g
       id="g12"><g
         clip-path="url(#clipPath18)"
         id="g14"><g
           id="g20"><g
             id="g22"><path
               id="path30"
               style="fill:url(#linearGradient28);stroke:none"
               d="M 208,84 H 12 v 88 h 196 z" /></g></g></g></g><g
       id="g32"><g
         clip-path="url(#clipPath38)"
         id="g34"><g
           id="g40"><g
             id="g42"><path
               id="path50"
               style="fill:url(#linearGradient48);stroke:none"
               d="m 244,84 h -40 v 88 h 40 z" /></g></g></g></g><g
       id="g52"><g
         clip-path="url(#clipPath58)"
         id="g54"><g
           id="g60"><g
             id="g62"><path
               id="path70"
               style="fill:url(#linearGradient68);stroke:none"
               d="m 240,124 h -32 v 24 h 32 z" /></g></g></g></g><path
       id="path72"
       style="fill:#999999;fill-opacity:1;fill-rule:nonzero;stroke:none"
       d="M 136,164 H 20 v 4 h 116 z" /><path
       id="path74"
       style="fill:#999999;fill-opacity:1;fill-rule:nonzero;stroke:none"
       d="m 28,152 h -8 v 8 h 8 z" /><path
       id="path76"
       style="fill:#999999;fill-opacity:1;fill-rule:nonzero;stroke:none"
       d="m 28,140 h -8 v 8 h 8 z" /><path
       id="path78"
       style="fill:#999999;fill-opacity:1;fill-rule:nonzero;stroke:none"
       d="m 40,140 h -8 v 8 h 8 z" /><path
       id="path80"
       style="fill:#999999;fill-opacity:1;fill-rule:nonzero;stroke:none"
       d="m 52,140 h -8 v 8 h 8 z" /><path
       id="path82"
       style="fill:#999999;fill-opacity:1;fill-rule:nonzero;stroke:none"
       d="m 64,140 h -8 v 8 h 8 z" /><path
       id="path84"
       style="fill:#999999;fill-opacity:1;fill-rule:nonzero;stroke:none"
       d="m 76,140 h -8 v 8 h 8 z" /><path
       id="path86"
       style="fill:#999999;fill-opacity:1;fill-rule:nonzero;stroke:none"
       d="m 88,140 h -8 v 8 h 8 z" /><path
       id="path88"
       style="fill:#999999;fill-opacity:1;fill-rule:nonzero;stroke:none"
       d="m 100,140 h -8 v 8 h 8 z" /><path
       id="path90"
       style="fill:#999999;fill-opacity:1;fill-rule:nonzero;stroke:none"
       d="m 112,140 h -8 v 8 h 8 z" /><path
       id="path92"
       style="fill:#999999;fill-opacity:1;fill-rule:nonzero;stroke:none"
       d="m 124,140 h -8 v 8 h 8 z" /><path
       id="path94"
       style="fill:#999999;fill-opacity:1;fill-rule:nonzero;stroke:none"
       d="m 136,140 h -8 v 8 h 8 z" /><path
       id="path96"
       style="fill:#999999;fill-opacity:1;fill-rule:nonzero;stroke:none"
       d="m 148,140 h -8 v 8 h 8 z" /><path
       id="path98"
       style="fill:#999999;fill-opacity:1;fill-rule:nonzero;stroke:none"
       d="m 160,140 h -8 v 8 h 8 z" /><path
       id="path100"
       style="fill:#999999;fill-opacity:1;fill-rule:nonzero;stroke:none"
       d="M 32,128 H 20 v 8 h 12 z" /><path
       id="path102"
       style="fill:#999999;fill-opacity:1;fill-rule:nonzero;stroke:none"
       d="M 36,116 H 20 v 8 h 16 z" /><path
       id="path104"
       style="fill:#999999;fill-opacity:1;fill-rule:nonzero;stroke:none"
       d="m 32,92 h -8 v 8 h 8 z" /><path
       id="path106"
       style="fill:#999999;fill-opacity:1;fill-rule:nonzero;stroke:none"
       d="m 44,128 h -8 v 8 h 8 z" /><path
       id="path108"
       style="fill:#999999;fill-opacity:1;fill-rule:nonzero;stroke:none"
       d="m 56,128 h -8 v 8 h 8 z" /><path
       id="path110"
       style="fill:#999999;fill-opacity:1;fill-rule:nonzero;stroke:none"
       d="m 68,128 h -8 v 8 h 8 z" /><path
       id="path112"
       style="fill:#999999;fill-opacity:1;fill-rule:nonzero;stroke:none"
       d="m 80,128 h -8 v 8 h 8 z" /><path
       id="path114"
       style="fill:#999999;fill-opacity:1;fill-rule:nonzero;stroke:none"
       d="m 92,128 h -8 v 8 h 8 z" /><path
       id="path116"
       style="fill:#999999;fill-opacity:1;fill-rule:nonzero;stroke:none"
       d="m 104,128 h -8 v 8 h 8 z" /><path
       id="path118"
       style="fill:#999999;fill-opacity:1;fill-rule:nonzero;stroke:none"
       d="m 116,128 h -8 v 8 h 8 z" /><path
       id="path120"
       style="fill:#999999;fill-opacity:1;fill-rule:nonzero;stroke:none"
       d="m 128,128 h -8 v 8 h 8 z" /><path
       id="path122"
       style="fill:#999999;fill-opacity:1;fill-rule:nonzero;stroke:none"
       d="m 140,128 h -8 v 8 h 8 z" /><path
       id="path124"
       style="fill:#999999;fill-opacity:1;fill-rule:nonzero;stroke:none"
       d="m 152,128 h -8 v 8 h 8 z" /><path
       id="path126"
       style="fill:#999999;fill-opacity:1;fill-rule:nonzero;stroke:none"
       d="m 48,116 h -8 v 8 h 8 z" /><path
       id="path128"
       style="fill:#999999;fill-opacity:1;fill-rule:nonzero;stroke:none"
       d="m 60,116 h -8 v 8 h 8 z" /><path
       id="path130"
       style="fill:#999999;fill-opacity:1;fill-rule:nonzero;stroke:none"
       d="m 72,116 h -8 v 8 h 8 z" /><path
       id="path132"
       style="fill:#999999;fill-opacity:1;fill-rule:nonzero;stroke:none"
       d="m 84,116 h -8 v 8 h 8 z" /><path
       id="path134"
       style="fill:#999999;fill-opacity:1;fill-rule:nonzero;stroke:none"
       d="m 96,116 h -8 v 8 h 8 z" /><path
       id="path136"
       style="fill:#999999;fill-opacity:1;fill-rule:nonzero;stroke:none"
       d="m 108,116 h -8 v 8 h 8 z" /><path
       id="path138"
       style="fill:#999999;fill-opacity:1;fill-rule:nonzero;stroke:none"
       d="m 120,116 h -8 v 8 h 8 z" /><path
       id="path140"
       style="fill:#999999;fill-opacity:1;fill-rule:nonzero;stroke:none"
       d="m 132,116 h -8 v 8 h 8 z" /><path
       id="path142"
       style="fill:#999999;fill-opacity:1;fill-rule:nonzero;stroke:none"
       d="m 144,116 h -8 v 8 h 8 z" /><path
       id="path144"
       style="fill:#999999;fill-opacity:1;fill-rule:nonzero;stroke:none"
       d="m 52,104 h -8 v 8 h 8 z" /><path
       id="path146"
       style="fill:#999999;fill-opacity:1;fill-rule:nonzero;stroke:none"
       d="m 64,104 h -8 v 8 h 8 z" /><path
       id="path148"
       style="fill:#999999;fill-opacity:1;fill-rule:nonzero;stroke:none"
       d="m 76,104 h -8 v 8 h 8 z" /><path
       id="path150"
       style="fill:#999999;fill-opacity:1;fill-rule:nonzero;stroke:none"
       d="m 88,104 h -8 v 8 h 8 z" /><path
       id="path152"
       style="fill:#999999;fill-opacity:1;fill-rule:nonzero;stroke:none"
       d="m 100,104 h -8 v 8 h 8 z" /><path
       id="path154"
       style="fill:#999999;fill-opacity:1;fill-rule:nonzero;stroke:none"
       d="m 112,104 h -8 v 8 h 8 z" /><path
       id="path156"
       style="fill:#999999;fill-opacity:1;fill-rule:nonzero;stroke:none"
       d="m 124,104 h -8 v 8 h 8 z" /><path
       id="path158"
       style="fill:#999999;fill-opacity:1;fill-rule:nonzero;stroke:none"
       d="m 136,104 h -8 v 8 h 8 z" /><g
       transform="translate(156,136)"
       id="g160"><path
         id="path162"
         style="fill:#999999;fill-opacity:1;fill-rule:nonzero;stroke:none"
         d="m 0,0 v -12 h -8 v -8 H 8 v 4 4 12 z" /></g><path
       id="path164"
       style="fill:#999999;fill-opacity:1;fill-rule:nonzero;stroke:none"
       d="m 40,152 h -8 v 8 h 8 z" /><path
       id="path166"
       style="fill:#999999;fill-opacity:1;fill-rule:nonzero;stroke:none"
       d="m 152,152 h -8 v 8 h 8 z" /><path
       id="path168"
       style="fill:#999999;fill-opacity:1;fill-rule:nonzero;stroke:none"
       d="m 164,152 h -8 v 8 h 8 z" /><path
       id="path170"
       style="fill:#999999;fill-opacity:1;fill-rule:nonzero;stroke:none"
       d="m 176,152 h -8 v 8 h 8 z" /><path
       id="path172"
       style="fill:#999999;fill-opacity:1;fill-rule:nonzero;stroke:none"
       d="m 188,152 h -8 v 8 h 8 z" /><path
       id="path174"
       style="fill:#999999;fill-opacity:1;fill-rule:nonzero;stroke:none"
       d="m 200,152 h -8 v 8 h 8 z" /><path
       id="path176"
       style="fill:#999999;fill-opacity:1;fill-rule:nonzero;stroke:none"
       d="m 176,140 h -8 v 8 h 8 z" /><path
       id="path178"
       style="fill:#999999;fill-opacity:1;fill-rule:nonzero;stroke:none"
       d="m 188,140 h -8 v 8 h 8 z" /><path
       id="path180"
       style="fill:#999999;fill-opacity:1;fill-rule:nonzero;stroke:none"
       d="m 188,124 h -8 v 8 h 8 z" /><path
       id="path182"
       style="fill:#999999;fill-opacity:1;fill-rule:nonzero;stroke:none"
       d="m 188,100 h -8 v 8 h 8 z" /><path
       id="path184"
       style="fill:#999999;fill-opacity:1;fill-rule:nonzero;stroke:none"
       d="m 188,112 h -8 v 8 h 8 z" /><path
       id="path186"
       style="fill:#999999;fill-opacity:1;fill-rule:nonzero;stroke:none"
       d="m 200,112 h -8 v 8 h 8 z" /><path
       id="path188"
       style="fill:#999999;fill-opacity:1;fill-rule:nonzero;stroke:none"
       d="m 176,112 h -8 v 8 h 8 z" /><path
       id="path190"
       style="fill:#999999;fill-opacity:1;fill-rule:nonzero;stroke:none"
       d="m 200,140 h -8 v 8 h 8 z" /><path
       id="path192"
       style="fill:#999999;fill-opacity:1;fill-rule:nonzero;stroke:none"
       d="M 60,152 H 48 v 8 h 12 z" /><path
       id="path194"
       style="fill:#999999;fill-opacity:1;fill-rule:nonzero;stroke:none"
       d="M 76,152 H 64 v 8 h 12 z" /><path
       id="path196"
       style="fill:#999999;fill-opacity:1;fill-rule:nonzero;stroke:none"
       d="M 92,152 H 80 v 8 h 12 z" /><path
       id="path198"
       style="fill:#999999;fill-opacity:1;fill-rule:nonzero;stroke:none"
       d="M 108,152 H 96 v 8 h 12 z" /><path
       id="path200"
       style="fill:#999999;fill-opacity:1;fill-rule:nonzero;stroke:none"
       d="m 124,152 h -12 v 8 h 12 z" /><path
       id="path202"
       style="fill:#999999;fill-opacity:1;fill-rule:nonzero;stroke:none"
       d="m 140,152 h -12 v 8 h 12 z" /><path
       id="path204"
       style="fill:#999999;fill-opacity:1;fill-rule:nonzero;stroke:none"
       d="M 132,92 H 56 v 8 h 76 z" /><g
       id="g206"><g
         clip-path="url(#clipPath212)"
         id="g208"><g
           id="g214"><g
             id="g216"><path
               id="path224"
               style="fill:url(#linearGradient222);stroke:none"
               d="m 208,168 v -23.028 l 3.452,-4.275 v -1.377 h 1.295 l -0.062,-7.405 h -1.295 v -1.246 L 208,126.845 V 88 l 32,0.006 v 38.869 l -3.441,3.816 v 1.269 h -1.29 v 7.379 h 1.29 v 1.353 L 240,144.974 V 168 Z" /></g></g></g></g><g
       id="g226"><g
         clip-path="url(#clipPath232)"
         id="g228"><g
           transform="translate(222.666,128)"
           id="g234"><path
             id="path236"
             style="fill:#999999;fill-opacity:1;fill-rule:nonzero;stroke:none"
             d="M 0,0 H 2.668 C 4.144,0 5.334,-0.513 5.334,-1.146 V -6.858 C 5.334,-7.49 4.144,-8 2.668,-8 H 0 c -1.476,0 -2.666,0.51 -2.666,1.142 v 5.712 C -2.666,-0.513 -1.476,0 0,0" /></g><g
           transform="translate(232.666,128)"
           id="g238"><path
             id="path240"
             style="fill:#999999;fill-opacity:1;fill-rule:nonzero;stroke:none"
             d="M 0,0 H 2.668 C 4.144,0 5.334,-0.513 5.334,-1.146 V -6.858 C 5.334,-7.49 4.144,-8 2.668,-8 H 0 c -1.476,0 -2.666,0.51 -2.666,1.142 v 5.712 C -2.666,-0.513 -1.476,0 0,0" /></g><g
           transform="translate(212.666,128)"
           id="g242"><path
             id="path244"
             style="fill:#999999;fill-opacity:1;fill-rule:nonzero;stroke:none"
             d="M 0,0 H 2.668 C 4.144,0 5.334,-0.513 5.334,-1.146 V -6.858 C 5.334,-7.49 4.144,-8 2.668,-8 H 0 c -1.476,0 -2.666,0.51 -2.666,1.142 v 5.712 C -2.666,-0.513 -1.476,0 0,0" /></g><g
           transform="translate(222.666,118)"
           id="g246"><path
             id="path248"
             style="fill:#999999;fill-opacity:1;fill-rule:nonzero;stroke:none"
             d="M 0,0 H 2.668 C 4.144,0 5.334,-0.513 5.334,-1.146 V -6.858 C 5.334,-7.49 4.144,-8 2.668,-8 H 0 c -1.476,0 -2.666,0.51 -2.666,1.142 v 5.712 C -2.666,-0.513 -1.476,0 0,0" /></g><g
           transform="translate(232.666,118)"
           id="g250"><path
             id="path252"
             style="fill:#999999;fill-opacity:1;fill-rule:nonzero;stroke:none"
             d="M 0,0 H 2.668 C 4.144,0 5.334,-0.513 5.334,-1.146 V -6.858 C 5.334,-7.49 4.144,-8 2.668,-8 H 0 c -1.476,0 -2.666,0.51 -2.666,1.142 v 5.712 C -2.666,-0.513 -1.476,0 0,0" /></g><g
           transform="translate(212.666,118)"
           id="g254"><path
             id="path256"
             style="fill:#999999;fill-opacity:1;fill-rule:nonzero;stroke:none"
             d="M 0,0 H 2.668 C 4.144,0 5.334,-0.513 5.334,-1.146 V -6.858 C 5.334,-7.49 4.144,-8 2.668,-8 H 0 c -1.476,0 -2.666,0.51 -2.666,1.142 v 5.712 C -2.666,-0.513 -1.476,0 0,0" /></g><g
           transform="translate(222.666,108)"
           id="g258"><path
             id="path260"
             style="fill:#999999;fill-opacity:1;fill-rule:nonzero;stroke:none"
             d="M 0,0 H 2.668 C 4.144,0 5.334,-0.513 5.334,-1.146 V -6.858 C 5.334,-7.49 4.144,-8 2.668,-8 H 0 c -1.476,0 -2.666,0.51 -2.666,1.142 v 5.712 C -2.666,-0.513 -1.476,0 0,0" /></g><g
           transform="translate(232.666,108)"
           id="g262"><path
             id="path264"
             style="fill:#999999;fill-opacity:1;fill-rule:nonzero;stroke:none"
             d="M 0,0 H 2.668 C 4.144,0 5.334,-0.513 5.334,-1.146 V -6.858 C 5.334,-7.49 4.144,-8 2.668,-8 H 0 c -1.476,0 -2.666,0.51 -2.666,1.142 v 5.712 C -2.666,-0.513 -1.476,0 0,0" /></g><g
           transform="translate(212.666,108)"
           id="g266"><path
             id="path268"
             style="fill:#999999;fill-opacity:1;fill-rule:nonzero;stroke:none"
             d="M 0,0 H 2.668 C 4.144,0 5.334,-0.513 5.334,-1.146 V -6.858 C 5.334,-7.49 4.144,-8 2.668,-8 H 0 c -1.476,0 -2.666,0.51 -2.666,1.142 v 5.712 C -2.666,-0.513 -1.476,0 0,0" /></g><g
           transform="translate(222.666,98)"
           id="g270"><path
             id="path272"
             style="fill:#999999;fill-opacity:1;fill-rule:nonzero;stroke:none"
             d="M 0,0 H 2.668 C 4.144,0 5.334,-0.513 5.334,-1.146 V -6.858 C 5.334,-7.49 4.144,-8 2.668,-8 H 0 c -1.476,0 -2.666,0.51 -2.666,1.142 v 5.712 C -2.666,-0.513 -1.476,0 0,0" /></g><g
           transform="translate(232.666,98)"
           id="g274"><path
             id="path276"
             style="fill:#999999;fill-opacity:1;fill-rule:nonzero;stroke:none"
             d="M 0,0 H 2.668 C 4.144,0 5.334,-0.513 5.334,-1.146 V -6.858 C 5.334,-7.49 4.144,-8 2.668,-8 H 0 c -1.476,0 -2.666,0.51 -2.666,1.142 v 5.712 C -2.666,-0.513 -1.476,0 0,0" /></g><g
           transform="translate(212.666,98)"
           id="g278"><path
             id="path280"
             style="fill:#999999;fill-opacity:1;fill-rule:nonzero;stroke:none"
             d="M 0,0 H 2.668 C 4.144,0 5.334,-0.513 5.334,-1.146 V -6.858 C 5.334,-7.49 4.144,-8 2.668,-8 H 0 c -1.476,0 -2.666,0.51 -2.666,1.142 v 5.712 C -2.666,-0.513 -1.476,0 0,0" /></g></g></g><g
       id="g282"><g
         clip-path="url(#clipPath288)"
         id="g284"><g
           id="g290"><g
             id="g292"><path
               id="path300"
               style="fill:url(#linearGradient298);stroke:none"
               d="m 213.518,154.207 c 0,-6.094 4.94,-11.035 11.034,-11.035 v 0 c 6.094,0 11.034,4.941 11.034,11.035 v 0 c 0,6.094 -4.94,11.034 -11.034,11.034 v 0 c -6.094,0 -11.034,-4.94 -11.034,-11.034" /></g></g></g></g><g
       id="g302"><g
         clip-path="url(#clipPath308)"
         id="g304"><g
           transform="translate(224.5508,163.8618)"
           id="g310"><path
             id="path312"
             style="fill:#999999;fill-opacity:1;fill-rule:nonzero;stroke:none"
             d="m 0,0 c -5.332,0 -9.654,-4.323 -9.654,-9.655 0,-5.332 4.322,-9.655 9.654,-9.655 5.333,-0.001 9.656,4.322 9.656,9.655 C 9.656,-4.322 5.333,0.001 0,0" /></g></g></g><g
       id="g314"><g
         clip-path="url(#clipPath320)"
         id="g316"><g
           id="g322"><g
             id="g324"><path
               id="path332"
               style="fill:url(#linearGradient330);stroke:none"
               d="m 216.275,154.207 c 0,-4.571 3.707,-8.276 8.277,-8.276 v 0 c 4.57,0 8.275,3.705 8.275,8.276 v 0 c 0,4.57 -3.705,8.276 -8.275,8.276 v 0 c -4.57,0 -8.277,-3.706 -8.277,-8.276" /></g></g></g></g><g
       id="g334"><g
         clip-path="url(#clipPath340)"
         id="g336"><g
           id="g342"><g
             id="g344"><path
               id="path352"
               style="fill:url(#linearGradient350);stroke:none"
               d="m 217.655,154.208 c -0.001,-3.81 3.088,-6.899 6.898,-6.898 v 0 c 3.809,0.001 6.896,3.089 6.896,6.898 v 0 c -0.001,3.808 -3.088,6.895 -6.896,6.896 v 0 c -3.809,0 -6.897,-3.086 -6.898,-6.896" /></g></g></g></g><g
       id="g354"><g
         clip-path="url(#clipPath360)"
         id="g356"><g
           transform="translate(208,142.2871)"
           id="g362"><path
             id="path364"
             style="fill:#999999;fill-opacity:1;fill-rule:nonzero;stroke:none"
             d="m 0,0 v -12.89 l 1.83,1.93 v 1.291 h 1.186 l 0.043,5.823 H 1.83 v 1.72 z" /></g><g
           transform="translate(240,142.2871)"
           id="g366"><path
             id="path368"
             style="fill:#999999;fill-opacity:1;fill-rule:nonzero;stroke:none"
             d="m 0,0 -1.832,-2.126 v -1.72 h -1.23 l 0.043,-5.823 h 1.187 V -10.96 L 0,-12.89 Z" /></g></g></g><g
       id="g370"><g
         clip-path="url(#clipPath376)"
         id="g372"><g
           id="g378"><g
             id="g380"><path
               id="path388"
               style="fill:url(#linearGradient386);stroke:none"
               d="M 216.696,138 C 216.31,138 216,137.641 216,137.198 v 0 -2.4 c 0,-0.442 0.31,-0.798 0.696,-0.798 v 0 h 14.609 c 0.386,0 0.695,0.356 0.695,0.798 v 0 2.4 c 0,0.443 -0.309,0.802 -0.695,0.802 v 0 z" /></g></g></g></g><g
       id="g390"><g
         clip-path="url(#clipPath396)"
         id="g392"><g
           id="g398"><g
             id="g400"><path
               id="path408"
               style="fill:url(#linearGradient406);stroke:none"
               d="m 208,84 h 32 v 4.001 h -32 z" /></g></g></g></g><g
       id="g410"><g
         clip-path="url(#clipPath416)"
         id="g412"><g
           id="g418"><g
             id="g420"><path
               id="path428"
               style="fill:url(#linearGradient426);stroke:none"
               d="m 12,84 h 192.001 v 4.001 H 12 Z" /></g></g></g></g><g
       id="g430"><g
         clip-path="url(#clipPath436)"
         id="g432"><path
           id="path438"
           style="fill:#999999;fill-opacity:1;fill-rule:nonzero;stroke:none"
           d="M 40,104 H 20 v 8 h 20 z" /><path
           id="path440"
           style="fill:#999999;fill-opacity:1;fill-rule:nonzero;stroke:none"
           d="m 164,104 h -24 v 8 h 24 z" /></g></g></g></svg>