<?xml version="1.0" encoding="utf-8"?>
<!-- Generator: Adobe Illustrator 24.2.1, SVG Export Plug-In . SVG Version: 6.00 Build 0)  -->
<svg version="1.1"
	 id="svg2" xmlns:cc="http://creativecommons.org/ns#" xmlns:dc="http://purl.org/dc/elements/1.1/" xmlns:rdf="http://www.w3.org/1999/02/22-rdf-syntax-ns#" xmlns:svg="http://www.w3.org/2000/svg"
	 xmlns="http://www.w3.org/2000/svg" xmlns:xlink="http://www.w3.org/1999/xlink" x="0px" y="0px" viewBox="0 0 288 288"
	 style="enable-background:new 0 0 288 288;" xml:space="preserve">
<style type="text/css">
	.st0{clip-path:url(#SVGID_2_);}
	.st1{clip-path:url(#SVGID_4_);}
	.st2{fill:url(#path30_1_);}
	.st3{fill:url(#path50_1_);}
	.st4{fill:#949494;}
</style>
<g>
	<defs>
		<rect id="SVGID_1_" x="-26.67" y="-26.67" width="341.33" height="341.33"/>
	</defs>
	<clipPath id="SVGID_2_">
		<use xlink:href="#SVGID_1_"  style="overflow:visible;"/>
	</clipPath>
	<g id="g10_1_" transform="matrix(1.3333333,0,0,-1.3333333,-26.666656,314.66666)" class="st0">
		<g id="g12">
			<g>
				<g>
					<g>
						<g>
							<g>
								<defs>
									<path id="SVGID_3_" d="M61.51,194.55c-55.3-55.3-55.39-77.64,0-133.03l0,0c55.4-55.4,77.71-55.32,133.03,0l0,0
										c55.33,55.33,55.22,77.82,0,133.04l0,0c-27.61,27.61-47.05,41.44-66.5,41.44l0,0C108.6,236,89.15,222.2,61.51,194.55"/>
								</defs>
								<clipPath id="SVGID_4_">
									<use xlink:href="#SVGID_3_"  style="overflow:visible;"/>
								</clipPath>
								<g id="g14" class="st1">
									<g id="g20">
										<g id="g22">
											
												<linearGradient id="path30_1_" gradientUnits="userSpaceOnUse" x1="97.518" y1="97.625" x2="98.5181" y2="97.625" gradientTransform="matrix(560.6011 -560.6011 -560.6011 -560.6011 121.5123 109591.9844)">
												<stop  offset="0" style="stop-color:#E6E7E8"/>
												<stop  offset="1" style="stop-color:#D1D3D4"/>
											</linearGradient>
											<path id="path30" class="st2" d="M61.51,194.55c-55.3-55.3-55.39-77.64,0-133.03l0,0c55.4-55.4,77.71-55.32,133.03,0l0,0
												c55.33,55.33,55.22,77.82,0,133.04l0,0c-27.61,27.61-47.05,41.44-66.5,41.44l0,0C108.6,236,89.15,222.2,61.51,194.55"/>
										</g>
									</g>
								</g>
							</g>
						</g>
					</g>
				</g>
			</g>
		</g>
	</g>
	<g id="g10" transform="matrix(1.3333333,0,0,-1.3333333,-26.618823,314.60266)" class="st0">
		<g id="g32">
			<g>
				<g>
					<g id="g34">
						<g id="g40">
							<g id="g42">
								
									<linearGradient id="path50_1_" gradientUnits="userSpaceOnUse" x1="110.9681" y1="110.7032" x2="111.9681" y2="110.7032" gradientTransform="matrix(-749.1535 749.1535 749.1535 749.1535 376.4242 -165987.8906)">
									<stop  offset="0" style="stop-color:#E6E7E8"/>
									<stop  offset="1" style="stop-color:#D1D3D4"/>
								</linearGradient>
								<path id="path50" class="st3" d="M27.96,127.95l100-100l100,100l-100,100L27.96,127.95z"/>
							</g>
						</g>
					</g>
				</g>
				<g>
					<g id="OUTLINES_1_">
						<g>
							<path class="st4" d="M123.32,160.31v-42.58l-12.86-10.54l-13.49,10.54v42.58l3.79,2.95h19.39L123.32,160.31z M114.04,153.57
								h-7.8V124.9l7.8-6.12V153.57z"/>
						</g>
						<g>
							<path class="st4" d="M188.03,161.36c0,0,0-60.92,0-64.92c0-4.01,1.06-6.32,1.06-6.32l-11.17,8.85l1.06,1.06v35.62
								l-6.54-27.41l-6.96,31.2v-30.56l-9.27,6.12l1.48,1.69v43.85l-1.26,2.74h12.44l4.01-14.33l4.01,14.33h12.86L188.03,161.36z"/>
						</g>
						<g>
							<path class="st4" d="M93.39,160.31v-44.05l1.48-1.48l-27.41-21.5c0,0,0.63,1.48,0.63,2.74c0,1.26,0,65.56,0,65.56l-2.11,1.69
								h22.98L93.39,160.31z M84.74,125.11v28.46h-7.8v-34.78L84.74,125.11z"/>
						</g>
						<g>
							<path class="st4" d="M154.1,160.31v-42.58l-13.49-10.54l-12.86,10.54v42.58l3.17,2.95h19.39L154.1,160.31z M144.82,125.11
								v28.46h-7.8v-34.78L144.82,125.11z"/>
						</g>
					</g>
					<polygon class="st4" points="125.64,113.1 132.81,107.19 132.81,102.34 129.86,100.23 132.81,97.92 132.81,92.86 125.64,87.17 
						118.05,92.86 118.05,94.97 122.05,98.55 122.05,96.44 125,93.91 127.53,95.81 124.58,98.76 124.58,101.5 127.53,104.87 
						125,106.56 122.05,104.03 122.05,101.72 118.05,104.45 118.05,107.19 					"/>
				</g>
			</g>
		</g>
	</g>
</g>
</svg>
