<?xml version="1.0" encoding="utf-8"?>
<!-- Generator: Adobe Illustrator 24.2.1, SVG Export Plug-In . SVG Version: 6.00 Build 0)  -->
<svg version="1.1" id="Layer_1" xmlns="http://www.w3.org/2000/svg" xmlns:xlink="http://www.w3.org/1999/xlink" x="0px" y="0px"
	 viewBox="0 0 256 256" style="enable-background:new 0 0 256 256;" xml:space="preserve">
<style type="text/css">
	.st0{fill:#999999;}
	.st1{fill:url(#SVGID_1_);}
	.st2{fill:url(#SVGID_2_);}
	.st3{fill:url(#SVGID_3_);}
	.st4{fill:url(#SVGID_4_);}
	.st5{fill:url(#SVGID_5_);}
	.st6{fill:url(#SVGID_6_);}
	.st7{fill:url(#SVGID_7_);}
	.st8{fill:url(#SVGID_8_);}
	.st9{fill:#FFFFFF;}
	.st10{fill:url(#SVGID_9_);}
	.st11{fill:url(#SVGID_10_);}
	.st12{fill:url(#SVGID_11_);}
	.st13{fill:url(#SVGID_12_);}
	.st14{fill:url(#SVGID_13_);}
	.st15{fill:url(#SVGID_14_);}
	.st16{fill:url(#SVGID_15_);}
	.st17{fill:url(#SVGID_16_);}
	.st18{fill:url(#SVGID_17_);}
	.st19{fill:url(#SVGID_18_);}
</style>
<g id="Layer_1_1_">
</g>
<polygon class="st0" points="76,34.8 179.9,34.8 159.5,58 96,58 "/>
<linearGradient id="SVGID_1_" gradientUnits="userSpaceOnUse" x1="204.0295" y1="213.1" x2="204.0295" y2="228.2787" gradientTransform="matrix(1 0 0 -1 0 256)">
	<stop  offset="0" style="stop-color:#D1D3D4"/>
	<stop  offset="1" style="stop-color:#E6E7E8"/>
</linearGradient>
<path class="st1" d="M191.3,38.6c0,0,0-1.8,0-5.6s3.8-5.7,7-5.2c0,0,7.7,2.2,12.6,3.7c8.4,2.5,5.3,11.4,5.3,11.4L191.3,38.6z"/>
<path class="st0" d="M41.7,49.9l11.2,118.3l50.5,30c0,0,0,0,0-0.1h49.1c0,0.1,0,0.1,0,0.1l50.5-30l11.2-118.3
	C214.2,49.9,41.7,49.9,41.7,49.9z"/>
<linearGradient id="SVGID_2_" gradientUnits="userSpaceOnUse" x1="51.9705" y1="213.2" x2="51.9705" y2="228.3787" gradientTransform="matrix(1 0 0 -1 0 256)">
	<stop  offset="0" style="stop-color:#D1D3D4"/>
	<stop  offset="1" style="stop-color:#E6E7E8"/>
</linearGradient>
<path class="st2" d="M39.8,42.8c0,0-3.1-8.8,5.3-11.4c4.8-1.4,12.6-3.7,12.6-3.7c3.2-0.5,7,1.4,7,5.2s0,5.6,0,5.6L39.8,42.8z"/>
<linearGradient id="SVGID_3_" gradientUnits="userSpaceOnUse" x1="127.8" y1="190" x2="127.8" y2="216.3" gradientTransform="matrix(1 0 0 -1 0 256)">
	<stop  offset="0" style="stop-color:#E6E7E8"/>
	<stop  offset="1" style="stop-color:#D1D3D4"/>
</linearGradient>
<polygon class="st3" points="108.6,49.9 113.8,43.7 128,39.7 142.3,43.7 147.4,49.9 149.1,66 106.5,66 "/>
<linearGradient id="SVGID_4_" gradientUnits="userSpaceOnUse" x1="128" y1="212.3" x2="128" y2="231.7" gradientTransform="matrix(1 0 0 -1 0 256)">
	<stop  offset="0" style="stop-color:#E6E7E8"/>
	<stop  offset="1" style="stop-color:#D1D3D4"/>
</linearGradient>
<path class="st4" d="M128,24.3c0,0-14.3,0-14.3,10.7c0,6.3,0,8.2,0,8.7h28.6c0-0.5,0-2.4,0-8.7C142.3,24.3,128,24.3,128,24.3z"/>
<linearGradient id="SVGID_5_" gradientUnits="userSpaceOnUse" x1="70.2" y1="212.3" x2="97.3" y2="212.3" gradientTransform="matrix(1 0 0 -1 0 256)">
	<stop  offset="0" style="stop-color:#D1D3D4"/>
	<stop  offset="1" style="stop-color:#E6E7E8"/>
</linearGradient>
<polygon class="st5" points="76.5,29.4 97.3,45.4 97.3,49.9 76.5,58 70.2,45.9 "/>
<g>
	
		<linearGradient id="SVGID_6_" gradientUnits="userSpaceOnUse" x1="61.45" y1="12.6" x2="61.45" y2="226.6" gradientTransform="matrix(1 0 0 -1 0 256)">
		<stop  offset="0.1676" style="stop-color:#E6E7E8"/>
		<stop  offset="1" style="stop-color:#D1D3D4"/>
	</linearGradient>
	<polygon class="st6" points="62.6,166.6 55.4,81.4 59.9,62 76.4,58 76.4,29.4 63.8,35.8 19.5,47.3 19.5,191.6 71.6,202.6 
		103.4,243.4 83.9,181.4 	"/>
</g>
<linearGradient id="SVGID_7_" gradientUnits="userSpaceOnUse" x1="56" y1="89.05" x2="103.4" y2="89.05" gradientTransform="matrix(1 0 0 -1 0 256)">
	<stop  offset="0.4022" style="stop-color:#D1D3D4"/>
	<stop  offset="1" style="stop-color:#E6E7E8"/>
</linearGradient>
<polygon class="st7" points="84.7,171.5 77.9,138 84.9,135.4 71.7,90.5 56,95 62.6,166.6 83.9,181.4 103.4,243.4 103.4,198.1 
	94.9,169.2 "/>
<linearGradient id="SVGID_8_" gradientUnits="userSpaceOnUse" x1="92.8997" y1="95.6067" x2="116.9" y2="95.6067" gradientTransform="matrix(1 0 0 -1 0 256)">
	<stop  offset="0" style="stop-color:#E6E7E8"/>
	<stop  offset="1" style="stop-color:#D1D3D4"/>
</linearGradient>
<path class="st8" d="M116.9,155.6c0,24.7-8.8,32.2-8.8,32.2s4.1-7.9,4.1-29.8s-19.3-25-19.3-25C92.8,133.1,116.9,130.9,116.9,155.6z
	"/>
<g>
	<ellipse class="st0" cx="53.3" cy="73.3" rx="14.8" ry="22.1"/>
	<ellipse class="st9" cx="47.4" cy="73.3" rx="8.8" ry="12.8"/>
	<ellipse class="st0" cx="44.7" cy="73.3" rx="4.1" ry="6"/>
</g>
<g>
	
		<ellipse transform="matrix(0.9801 -0.1987 0.1987 0.9801 -29.1374 19.2429)" class="st0" cx="81.31" cy="154.81" rx="14.4" ry="17.1"/>
	
		<ellipse transform="matrix(0.9801 -0.1987 0.1987 0.9801 -29.3186 18.6389)" class="st9" cx="78.21" cy="155.41" rx="8.6" ry="12.5"/>
	<ellipse transform="matrix(0.9677 -0.2523 0.2523 0.9677 -36.7597 24.5142)" class="st0" cx="77.22" cy="155.61" rx="4" ry="5.8"/>
</g>
<g>
	
		<linearGradient id="SVGID_9_" gradientUnits="userSpaceOnUse" x1="64.4819" y1="151.51" x2="87.7181" y2="151.51" gradientTransform="matrix(1 0 0 -1 0 256)">
		<stop  offset="0" style="stop-color:#E6E7E8"/>
		<stop  offset="1" style="stop-color:#D1D3D4"/>
	</linearGradient>
	<path class="st10" d="M70.07,91.19c5.48-2.49,12.63,1.45,15.96,8.8c3.33,7.34,1.58,15.31-3.9,17.8c-5.48,2.49-12.63-1.45-15.96-8.8
		C62.84,101.64,64.59,93.68,70.07,91.19z"/>
	<path class="st0" d="M82.4,105l-11.1,3.4c-0.8,0.2-1.6-0.2-2-0.9l-1-2.5c-0.4-0.9,0.1-1.9,1-2.1l11-3.6c0.8-0.3,1.7,0.1,2,0.9
		l1.1,2.7C83.8,103.7,83.3,104.7,82.4,105z"/>
</g>
<g>
	
		<linearGradient id="SVGID_10_" gradientUnits="userSpaceOnUse" x1="76.595" y1="128.42" x2="89.235" y2="128.42" gradientTransform="matrix(1 0 0 -1 0 256)">
		<stop  offset="0" style="stop-color:#E6E7E8"/>
		<stop  offset="1" style="stop-color:#D1D3D4"/>
	</linearGradient>
	<path class="st11" d="M79.96,120.04c3.09-1.21,6.91,1.19,8.54,5.35c1.63,4.16,0.46,8.52-2.63,9.73c-3.09,1.21-6.91-1.19-8.54-5.35
		C75.7,125.61,76.87,121.25,79.96,120.04z"/>
	<ellipse transform="matrix(0.931 -0.3651 0.3651 0.931 -40.8547 39.0804)" class="st0" cx="82.92" cy="127.58" rx="3.3" ry="4.4"/>
</g>
<linearGradient id="SVGID_11_" gradientUnits="userSpaceOnUse" x1="158.7" y1="212.3" x2="185.8" y2="212.3" gradientTransform="matrix(1 0 0 -1 0 256)">
	<stop  offset="0" style="stop-color:#E6E7E8"/>
	<stop  offset="1" style="stop-color:#D1D3D4"/>
</linearGradient>
<polygon class="st12" points="185.8,45.9 179.5,58 158.7,49.9 158.7,45.4 179.5,29.4 "/>
<g>
	
		<linearGradient id="SVGID_12_" gradientUnits="userSpaceOnUse" x1="194.55" y1="12.6" x2="194.55" y2="226.6" gradientTransform="matrix(1 0 0 -1 0 256)">
		<stop  offset="0.1676" style="stop-color:#E6E7E8"/>
		<stop  offset="1" style="stop-color:#D1D3D4"/>
	</linearGradient>
	<polygon class="st13" points="172.1,181.4 152.6,243.4 184.4,202.6 236.5,191.6 236.5,47.3 192.2,35.8 179.6,29.4 179.6,58 
		196.1,62 200.6,81.4 193.4,166.6 	"/>
</g>
<linearGradient id="SVGID_13_" gradientUnits="userSpaceOnUse" x1="152.6" y1="89.05" x2="200" y2="89.05" gradientTransform="matrix(1 0 0 -1 0 256)">
	<stop  offset="0" style="stop-color:#E6E7E8"/>
	<stop  offset="0.5978" style="stop-color:#D1D3D4"/>
</linearGradient>
<polygon class="st14" points="171.3,171.5 178.1,138 171.1,135.4 184.3,90.5 200,95 193.4,166.6 172.1,181.4 152.6,243.4 
	152.6,198.1 161.1,169.2 "/>
<g>
	
		<linearGradient id="SVGID_14_" gradientUnits="userSpaceOnUse" x1="128" y1="118.1" x2="128" y2="156.9" gradientTransform="matrix(1 0 0 -1 0 256)">
		<stop  offset="0" style="stop-color:#D1D3D4"/>
		<stop  offset="1" style="stop-color:#E6E7E8"/>
	</linearGradient>
	<path class="st15" d="M166.2,99.1H89.8c0,0-0.3,1.5,1,10.8c0.8,5.5,7.3,9.6,10.9,9.3c2.3-0.2,2.4,1.7,5.1,6.4
		c2,3.4,7.8,3.6,8.8,5.8c2.7,6.2,12.4,6.5,12.4,6.5s9.7-0.3,12.4-6.5c1-2.2,6.8-2.4,8.8-5.8c2.7-4.7,2.8-6.6,5.1-6.4
		c3.6,0.3,10.1-3.8,10.9-9.3C166.5,100.6,166.2,99.1,166.2,99.1z"/>
	<path class="st9" d="M145.3,112V78.6h-34.6V112c0,0-0.2,6.6,1.7,8.4c1.3,1.3,5,2.7,6.3,3.6c3.2,2.2,4.3,6.4,9.3,6.4
		c5,0,6.1-4.2,9.3-6.4c1.3-0.9,5-2.3,6.3-3.6C145.5,118.6,145.3,112,145.3,112z"/>
	
		<linearGradient id="SVGID_15_" gradientUnits="userSpaceOnUse" x1="128" y1="143.071" x2="128" y2="223.8" gradientTransform="matrix(1 0 0 -1 0 256)">
		<stop  offset="0" style="stop-color:#D1D3D4"/>
		<stop  offset="1" style="stop-color:#E6E7E8"/>
	</linearGradient>
	<path class="st16" d="M161.7,75.7c-4-4-9.8-7.3-11.2-8.6c-3.4-2.8-2.5-10.7-6.1-15.5s-10.2-10.5-10.2-10.5s1-2.7,1-4.6
		c0-1.9,0.5-4.3-7.2-4.3s-7.2,2.4-7.2,4.3c0,1.9,1,4.6,1,4.6s-6.6,5.7-10.2,10.5s-2.7,12.7-6.1,15.5c-1.4,1.3-7.2,4.6-11.2,8.6
		c-5.1,5.1-6.3,17.9-4,26.4c4.1,15.1,20.3,10,20.3,10l3.1-13.2c0.8-2.2,2.8-3.6,4.9-3.6c0,0,4.6-2.2,4.6-5l1.7-7.5h3.1h3.1l1.7,7.5
		c0,2.8,4.6,5,4.6,5c2.1,0,4.1,1.4,4.9,3.6l3.1,13.2c0,0,16.2,5.1,20.3-10C168,93.6,166.8,80.8,161.7,75.7z"/>
</g>
<linearGradient id="SVGID_16_" gradientUnits="userSpaceOnUse" x1="139.1" y1="95.6067" x2="163.1003" y2="95.6067" gradientTransform="matrix(1 0 0 -1 0 256)">
	<stop  offset="0" style="stop-color:#E6E7E8"/>
	<stop  offset="1" style="stop-color:#D1D3D4"/>
</linearGradient>
<path class="st17" d="M163.1,133c0,0-19.3,3.1-19.3,25s4.1,29.8,4.1,29.8s-8.8-7.5-8.8-32.2S163.2,133.1,163.1,133z"/>
<g>
	<ellipse class="st0" cx="202.8" cy="73.3" rx="14.8" ry="22.1"/>
	<ellipse class="st9" cx="208.6" cy="73.3" rx="8.8" ry="12.8"/>
	<ellipse class="st0" cx="211.3" cy="73.3" rx="4.1" ry="6"/>
</g>
<g>
	
		<ellipse transform="matrix(0.1987 -0.9801 0.9801 0.1987 -11.6485 295.2787)" class="st0" cx="174.75" cy="154.76" rx="17.1" ry="14.4"/>
	
		<ellipse transform="matrix(0.1987 -0.9801 0.9801 0.1987 -9.7338 298.7952)" class="st9" cx="177.86" cy="155.35" rx="12.5" ry="8.6"/>
	
		<ellipse transform="matrix(0.2523 -0.9677 0.9677 0.2523 -16.8382 289.4171)" class="st0" cx="178.86" cy="155.6" rx="5.8" ry="4"/>
</g>
<g>
	
		<linearGradient id="SVGID_17_" gradientUnits="userSpaceOnUse" x1="168.3096" y1="151.47" x2="191.5481" y2="151.47" gradientTransform="matrix(1 0 0 -1 0 256)">
		<stop  offset="0" style="stop-color:#D1D3D4"/>
		<stop  offset="1" style="stop-color:#E6E7E8"/>
	</linearGradient>
	<path class="st18" d="M170,100.03c3.33-7.34,10.47-11.28,15.96-8.8c5.48,2.49,7.23,10.45,3.9,17.8
		c-3.33,7.34-10.47,11.28-15.96,8.8C168.41,115.34,166.67,107.37,170,100.03z"/>
	<path class="st0" d="M172.6,102.9l1.1-2.7c0.3-0.8,1.2-1.2,2-0.9l11,3.6c0.9,0.2,1.4,1.2,1,2.1l-1,2.5c-0.4,0.7-1.2,1.1-2,0.9
		l-11.1-3.4C172.7,104.7,172.2,103.7,172.6,102.9z"/>
</g>
<g>
	
		<linearGradient id="SVGID_18_" gradientUnits="userSpaceOnUse" x1="166.8469" y1="128.39" x2="179.485" y2="128.39" gradientTransform="matrix(1 0 0 -1 0 256)">
		<stop  offset="0" style="stop-color:#D1D3D4"/>
		<stop  offset="1" style="stop-color:#E6E7E8"/>
	</linearGradient>
	<path class="st19" d="M167.58,125.42c1.63-4.16,5.46-6.56,8.54-5.35c3.09,1.21,4.26,5.57,2.63,9.73c-1.63,4.16-5.46,6.56-8.54,5.35
		C167.13,133.94,165.95,129.58,167.58,125.42z"/>
	
		<ellipse transform="matrix(0.3651 -0.931 0.931 0.3651 -8.8464 242.2405)" class="st0" cx="173.18" cy="127.61" rx="4.4" ry="3.3"/>
</g>
<g>
	<path class="st0" d="M113.8,83.1c0,0-7.4,5.1-12.8,2.4S112.8,79.7,113.8,83.1z"/>
	<path class="st0" d="M119.7,65.5c0,0-5,4.1-7.4,2C109.8,65.3,117.7,62,119.7,65.5z"/>
	<path class="st0" d="M123.6,53c0,0-3.2,3.1-5,1.8C116.8,53.4,122,50.7,123.6,53z"/>
	<path class="st0" d="M155,85.5c-5.4,2.7-12.8-2.4-12.8-2.4C143.2,79.7,160.4,82.8,155,85.5z"/>
	<path class="st0" d="M143.7,67.5c-2.4,2.1-7.4-2-7.4-2C138.3,62,146.2,65.3,143.7,67.5z"/>
	<path class="st0" d="M137.4,54.8c-1.8,1.3-5-1.8-5-1.8C134,50.7,139.2,53.4,137.4,54.8z"/>
</g>
</svg>
