<?xml version="1.0" encoding="UTF-8" standalone="no"?>
<svg
   xmlns:dc="http://purl.org/dc/elements/1.1/"
   xmlns:cc="http://creativecommons.org/ns#"
   xmlns:rdf="http://www.w3.org/1999/02/22-rdf-syntax-ns#"
   xmlns:svg="http://www.w3.org/2000/svg"
   xmlns="http://www.w3.org/2000/svg"
   viewBox="0 0 309.33331 202.66665"
   height="202.66666"
   width="309.33331"
   xml:space="preserve"
   id="svg2"
   version="1.1"><metadata
     id="metadata8"><rdf:RDF><cc:Work
         rdf:about=""><dc:format>image/svg+xml</dc:format><dc:type
           rdf:resource="http://purl.org/dc/dcmitype/StillImage" /></cc:Work></rdf:RDF></metadata><defs
     id="defs6"><clipPath
       id="clipPath18"
       clipPathUnits="userSpaceOnUse"><path
         id="path16"
         d="m 208,188 v 4 c -4,12 -36,12 -36,12 v 0 z" /></clipPath><linearGradient
       id="linearGradient28"
       spreadMethod="pad"
       gradientTransform="matrix(-26,26,26,26,204.32098,184.32098)"
       gradientUnits="userSpaceOnUse"
       y2="0"
       x2="1"
       y1="0"
       x1="0"><stop
         id="stop24"
         offset="0"
         style="stop-opacity:1;stop-color:#e6e7e8" /><stop
         id="stop26"
         offset="1"
         style="stop-opacity:1;stop-color:#d1d3d4" /></linearGradient><clipPath
       id="clipPath38"
       clipPathUnits="userSpaceOnUse"><path
         id="path36"
         d="m 48,192 v -4 l 36,16 c 0,0 -32,0 -36,-12" /></clipPath><linearGradient
       id="linearGradient48"
       spreadMethod="pad"
       gradientTransform="matrix(-12.641974,12.641974,12.641974,12.641974,71,191)"
       gradientUnits="userSpaceOnUse"
       y2="0"
       x2="1"
       y1="0"
       x1="0"><stop
         id="stop44"
         offset="0"
         style="stop-opacity:1;stop-color:#e6e7e8" /><stop
         id="stop46"
         offset="1"
         style="stop-opacity:1;stop-color:#d1d3d4" /></linearGradient><clipPath
       id="clipPath58"
       clipPathUnits="userSpaceOnUse"><path
         id="path56"
         d="m 84,204 c 0,0 -36,0 -52,-32 v 0 c 0,0 -20,-60 -20,-84 v 0 C 12,64 20,52 36,52 v 0 c 15.742,0 23.739,3.872 31.613,34.473 v 0 c 0.225,0.876 0.374,1.77 0.442,2.671 v 0 C 68.419,93.92 71.169,112 92,112 v 0 h 72 c 20.831,0 23.581,-18.08 23.944,-22.856 v 0 c 0.07,-0.901 0.218,-1.795 0.444,-2.671 v 0 C 196.26,55.872 204.258,52 220,52 v 0 c 16,0 24,12 24,36 v 0 c 0,24 -20,84 -20,84 v 0 c -16,32 -52,32 -52,32 v 0 z" /></clipPath><linearGradient
       id="linearGradient68"
       spreadMethod="pad"
       gradientTransform="matrix(160.84958,-160.84958,-160.84958,-160.84958,47.575207,191.67438)"
       gradientUnits="userSpaceOnUse"
       y2="0"
       x2="1"
       y1="0"
       x1="0"><stop
         id="stop64"
         offset="0"
         style="stop-opacity:1;stop-color:#e6e7e8" /><stop
         id="stop66"
         offset="1"
         style="stop-opacity:1;stop-color:#d1d3d4" /></linearGradient><clipPath
       id="clipPath78"
       clipPathUnits="userSpaceOnUse"><path
         id="path76"
         d="m 72,140 c 0,-8.837 8.06,-16 18,-16 v 0 c 9.941,0 18,7.163 18,16 v 0 c 0,8.837 -8.059,16 -18,16 v 0 c -9.94,0 -18,-7.163 -18,-16" /></clipPath><linearGradient
       id="linearGradient88"
       spreadMethod="pad"
       gradientTransform="matrix(-24.083448,24.083448,24.083448,24.083448,102.04173,127.95827)"
       gradientUnits="userSpaceOnUse"
       y2="0"
       x2="1"
       y1="0"
       x1="0"><stop
         id="stop84"
         offset="0"
         style="stop-opacity:1;stop-color:#e6e7e8" /><stop
         id="stop86"
         offset="1"
         style="stop-opacity:1;stop-color:#d1d3d4" /></linearGradient><clipPath
       id="clipPath98"
       clipPathUnits="userSpaceOnUse"><path
         id="path96"
         d="m 76,142 c 0,-7.72 6.281,-14 14,-14 v 0 c 7.719,0 14,6.28 14,14 v 0 c 0,7.719 -6.281,14 -14,14 v 0 c -7.719,0 -14,-6.281 -14,-14" /></clipPath><linearGradient
       id="linearGradient108"
       spreadMethod="pad"
       gradientTransform="matrix(19.78972,-19.78972,-19.78972,-19.78972,80.105141,151.89487)"
       gradientUnits="userSpaceOnUse"
       y2="0"
       x2="1"
       y1="0"
       x1="0"><stop
         id="stop104"
         offset="0"
         style="stop-opacity:1;stop-color:#e6e7e8" /><stop
         id="stop106"
         offset="1"
         style="stop-opacity:1;stop-color:#d1d3d4" /></linearGradient><clipPath
       id="clipPath118"
       clipPathUnits="userSpaceOnUse"><path
         id="path116"
         d="M 0,256 H 256 V 0 H 0 Z" /></clipPath><clipPath
       id="clipPath130"
       clipPathUnits="userSpaceOnUse"><path
         id="path128"
         d="m 148,140 c 0,-8.837 8.058,-16 18,-16 v 0 c 9.941,0 18,7.163 18,16 v 0 c 0,8.837 -8.059,16 -18,16 v 0 c -9.942,0 -18,-7.163 -18,-16" /></clipPath><linearGradient
       id="linearGradient140"
       spreadMethod="pad"
       gradientTransform="matrix(-24.083448,24.083448,24.083448,24.083448,178.04172,127.95827)"
       gradientUnits="userSpaceOnUse"
       y2="0"
       x2="1"
       y1="0"
       x1="0"><stop
         id="stop136"
         offset="0"
         style="stop-opacity:1;stop-color:#e6e7e8" /><stop
         id="stop138"
         offset="1"
         style="stop-opacity:1;stop-color:#d1d3d4" /></linearGradient><clipPath
       id="clipPath150"
       clipPathUnits="userSpaceOnUse"><path
         id="path148"
         d="m 152,142 c 0,-7.72 6.28,-14 14,-14 v 0 c 7.72,0 14,6.28 14,14 v 0 c 0,7.719 -6.28,14 -14,14 v 0 c -7.72,0 -14,-6.281 -14,-14" /></clipPath><linearGradient
       id="linearGradient160"
       spreadMethod="pad"
       gradientTransform="matrix(19.78972,-19.78972,-19.78972,-19.78972,156.10513,151.89487)"
       gradientUnits="userSpaceOnUse"
       y2="0"
       x2="1"
       y1="0"
       x1="0"><stop
         id="stop156"
         offset="0"
         style="stop-opacity:1;stop-color:#e6e7e8" /><stop
         id="stop158"
         offset="1"
         style="stop-opacity:1;stop-color:#d1d3d4" /></linearGradient><clipPath
       id="clipPath170"
       clipPathUnits="userSpaceOnUse"><path
         id="path168"
         d="M 0,256 H 256 V 0 H 0 Z" /></clipPath></defs><g
     transform="matrix(1.3333333,0,0,-1.3333333,-16,271.99999)"
     id="g10"><g
       id="g12"><g
         clip-path="url(#clipPath18)"
         id="g14"><g
           id="g20"><g
             id="g22"><path
               id="path30"
               style="fill:url(#linearGradient28);stroke:none"
               d="m 208,188 v 4 c -4,12 -36,12 -36,12 v 0 z" /></g></g></g></g><g
       id="g32"><g
         clip-path="url(#clipPath38)"
         id="g34"><g
           id="g40"><g
             id="g42"><path
               id="path50"
               style="fill:url(#linearGradient48);stroke:none"
               d="m 48,192 v -4 l 36,16 c 0,0 -32,0 -36,-12" /></g></g></g></g><g
       id="g52"><g
         clip-path="url(#clipPath58)"
         id="g54"><g
           id="g60"><g
             id="g62"><path
               id="path70"
               style="fill:url(#linearGradient68);stroke:none"
               d="m 84,204 c 0,0 -36,0 -52,-32 v 0 c 0,0 -20,-60 -20,-84 v 0 C 12,64 20,52 36,52 v 0 c 15.742,0 23.739,3.872 31.613,34.473 v 0 c 0.225,0.876 0.374,1.77 0.442,2.671 v 0 C 68.419,93.92 71.169,112 92,112 v 0 h 72 c 20.831,0 23.581,-18.08 23.944,-22.856 v 0 c 0.07,-0.901 0.218,-1.795 0.444,-2.671 v 0 C 196.26,55.872 204.258,52 220,52 v 0 c 16,0 24,12 24,36 v 0 c 0,24 -20,84 -20,84 v 0 c -16,32 -52,32 -52,32 v 0 z" /></g></g></g></g><g
       id="g72"><g
         clip-path="url(#clipPath78)"
         id="g74"><g
           id="g80"><g
             id="g82"><path
               id="path90"
               style="fill:url(#linearGradient88);stroke:none"
               d="m 72,140 c 0,-8.837 8.06,-16 18,-16 v 0 c 9.941,0 18,7.163 18,16 v 0 c 0,8.837 -8.059,16 -18,16 v 0 c -9.94,0 -18,-7.163 -18,-16" /></g></g></g></g><g
       id="g92"><g
         clip-path="url(#clipPath98)"
         id="g94"><g
           id="g100"><g
             id="g102"><path
               id="path110"
               style="fill:url(#linearGradient108);stroke:none"
               d="m 76,142 c 0,-7.72 6.281,-14 14,-14 v 0 c 7.719,0 14,6.28 14,14 v 0 c 0,7.719 -6.281,14 -14,14 v 0 c -7.719,0 -14,-6.281 -14,-14" /></g></g></g></g><g
       id="g112"><g
         clip-path="url(#clipPath118)"
         id="g114"><g
           transform="translate(90,160)"
           id="g120"><path
             id="path122"
             style="fill:#999999;fill-opacity:1;fill-rule:nonzero;stroke:none"
             d="m 0,0 c -7.72,0 -14,-6.28 -14,-14 0,-7.72 6.28,-14 14,-14 7.72,0 14,6.28 14,14 C 14,-6.28 7.72,0 0,0" /></g></g></g><g
       id="g124"><g
         clip-path="url(#clipPath130)"
         id="g126"><g
           id="g132"><g
             id="g134"><path
               id="path142"
               style="fill:url(#linearGradient140);stroke:none"
               d="m 148,140 c 0,-8.837 8.058,-16 18,-16 v 0 c 9.941,0 18,7.163 18,16 v 0 c 0,8.837 -8.059,16 -18,16 v 0 c -9.942,0 -18,-7.163 -18,-16" /></g></g></g></g><g
       id="g144"><g
         clip-path="url(#clipPath150)"
         id="g146"><g
           id="g152"><g
             id="g154"><path
               id="path162"
               style="fill:url(#linearGradient160);stroke:none"
               d="m 152,142 c 0,-7.72 6.28,-14 14,-14 v 0 c 7.72,0 14,6.28 14,14 v 0 c 0,7.719 -6.28,14 -14,14 v 0 c -7.72,0 -14,-6.281 -14,-14" /></g></g></g></g><g
       id="g164"><g
         clip-path="url(#clipPath170)"
         id="g166"><g
           transform="translate(166,160)"
           id="g172"><path
             id="path174"
             style="fill:#999999;fill-opacity:1;fill-rule:nonzero;stroke:none"
             d="m 0,0 c -7.72,0 -14,-6.28 -14,-14 0,-7.72 6.28,-14 14,-14 7.72,0 14,6.28 14,14 C 14,-6.28 7.72,0 0,0" /></g><g
           transform="translate(136,140)"
           id="g176"><path
             id="path178"
             style="fill:#ffffff;fill-opacity:1;fill-rule:nonzero;stroke:none"
             d="m 0,0 c 0,-4.418 -3.582,-8 -8,-8 -4.418,0 -8,3.582 -8,8 0,4.418 3.582,8 8,8 4.418,0 8,-3.582 8,-8" /></g><g
           transform="translate(148,172)"
           id="g180"><path
             id="path182"
             style="fill:#999999;fill-opacity:1;fill-rule:nonzero;stroke:none"
             d="m 0,0 c 0,-2.209 -1.791,-4 -4,-4 -2.209,0 -4,1.791 -4,4 0,2.209 1.791,4 4,4 2.209,0 4,-1.791 4,-4" /></g><g
           transform="translate(116,172)"
           id="g184"><path
             id="path186"
             style="fill:#999999;fill-opacity:1;fill-rule:nonzero;stroke:none"
             d="m 0,0 c 0,-2.209 -1.791,-4 -4,-4 -2.209,0 -4,1.791 -4,4 0,2.209 1.791,4 4,4 2.209,0 4,-1.791 4,-4" /></g><g
           transform="translate(157,184)"
           id="g188"><path
             id="path190"
             style="fill:#999999;fill-opacity:1;fill-rule:nonzero;stroke:none"
             d="m 0,0 h -6 c -1.657,0 -3,1.343 -3,3 0,1.657 1.343,3 3,3 H 0 C 1.657,6 3,4.657 3,3 3,1.343 1.657,0 0,0" /></g><g
           transform="translate(105,184)"
           id="g192"><path
             id="path194"
             style="fill:#999999;fill-opacity:1;fill-rule:nonzero;stroke:none"
             d="m 0,0 h -6 c -1.657,0 -3,1.343 -3,3 0,1.657 1.343,3 3,3 H 0 C 1.657,6 3,4.657 3,3 3,1.343 1.657,0 0,0" /></g><g
           transform="translate(184,174)"
           id="g196"><path
             id="path198"
             style="fill:#999999;fill-opacity:1;fill-rule:nonzero;stroke:none"
             d="m 0,0 c 0,-3.313 -2.687,-6 -6,-6 -3.313,0 -6,2.687 -6,6 0,3.313 2.687,6 6,6 3.313,0 6,-2.687 6,-6" /></g><g
           transform="translate(200,158)"
           id="g200"><path
             id="path202"
             style="fill:#999999;fill-opacity:1;fill-rule:nonzero;stroke:none"
             d="m 0,0 c 0,-3.313 -2.687,-6 -6,-6 -3.313,0 -6,2.687 -6,6 0,3.313 2.687,6 6,6 3.313,0 6,-2.687 6,-6" /></g><g
           transform="translate(200,186)"
           id="g204"><path
             id="path206"
             style="fill:#999999;fill-opacity:1;fill-rule:nonzero;stroke:none"
             d="m 0,0 c 0,-3.313 -2.687,-6 -6,-6 -3.313,0 -6,2.687 -6,6 0,3.313 2.687,6 6,6 3.313,0 6,-2.687 6,-6" /></g><g
           transform="translate(216,174)"
           id="g208"><path
             id="path210"
             style="fill:#999999;fill-opacity:1;fill-rule:nonzero;stroke:none"
             d="m 0,0 c 0,-3.313 -2.687,-6 -6,-6 -3.313,0 -6,2.687 -6,6 0,3.313 2.687,6 6,6 3.313,0 6,-2.687 6,-6" /></g><g
           transform="translate(72,178)"
           id="g212"><path
             id="path214"
             style="fill:#999999;fill-opacity:1;fill-rule:nonzero;stroke:none"
             d="m 0,0 h -4 v 4 c 0,3.313 -2.687,6 -6,6 -3.313,0 -6,-2.687 -6,-6 V 0 h -4 c -3.313,0 -6,-2.687 -6,-6 0,-3.313 2.687,-6 6,-6 h 4 v -4 c 0,-3.313 2.687,-6 6,-6 3.313,0 6,2.687 6,6 v 4 h 4 c 3.313,0 6,2.687 6,6 0,3.313 -2.687,6 -6,6" /></g></g></g></g></svg>