<?xml version="1.0" encoding="UTF-8" standalone="no"?>
<svg
   xmlns:dc="http://purl.org/dc/elements/1.1/"
   xmlns:cc="http://creativecommons.org/ns#"
   xmlns:rdf="http://www.w3.org/1999/02/22-rdf-syntax-ns#"
   xmlns:svg="http://www.w3.org/2000/svg"
   xmlns="http://www.w3.org/2000/svg"
   viewBox="0 0 213.33333 261.33331"
   height="261.33331"
   width="213.33333"
   xml:space="preserve"
   id="svg2"
   version="1.1"><metadata
     id="metadata8"><rdf:RDF><cc:Work
         rdf:about=""><dc:format>image/svg+xml</dc:format><dc:type
           rdf:resource="http://purl.org/dc/dcmitype/StillImage" /></cc:Work></rdf:RDF></metadata><defs
     id="defs6"><clipPath
       id="clipPath22"
       clipPathUnits="userSpaceOnUse"><path
         id="path20"
         d="M 48,128 C 48,83.817 83.817,48 128,48 v 0 c 44.183,0 80,35.817 80,80 v 0 c 0,44.183 -35.817,80 -80,80 v 0 C 83.817,208 48,172.183 48,128" /></clipPath><linearGradient
       id="linearGradient32"
       spreadMethod="pad"
       gradientTransform="matrix(-113.13709,113.13709,113.13709,113.13709,184.56854,71.431458)"
       gradientUnits="userSpaceOnUse"
       y2="0"
       x2="1"
       y1="0"
       x1="0"><stop
         id="stop28"
         offset="0"
         style="stop-opacity:1;stop-color:#e6e7e8" /><stop
         id="stop30"
         offset="1"
         style="stop-opacity:1;stop-color:#d1d3d4" /></linearGradient><clipPath
       id="clipPath42"
       clipPathUnits="userSpaceOnUse"><path
         id="path40"
         d="M 0,256 H 256 V 0 H 0 Z" /></clipPath><clipPath
       id="clipPath54"
       clipPathUnits="userSpaceOnUse"><path
         id="path52"
         d="m 64,144 c 0,-35.347 28.654,-64 64,-64 v 0 c 35.346,0 64,28.653 64,64 v 0 c 0,35.347 -28.654,64 -64,64 v 0 C 92.654,208 64,179.347 64,144" /></clipPath><linearGradient
       id="linearGradient64"
       spreadMethod="pad"
       gradientTransform="matrix(90.509666,-90.509666,-90.509666,-90.509666,82.745163,189.25484)"
       gradientUnits="userSpaceOnUse"
       y2="0"
       x2="1"
       y1="0"
       x1="0"><stop
         id="stop60"
         offset="0"
         style="stop-opacity:1;stop-color:#e6e7e8" /><stop
         id="stop62"
         offset="1"
         style="stop-opacity:1;stop-color:#d1d3d4" /></linearGradient><clipPath
       id="clipPath74"
       clipPathUnits="userSpaceOnUse"><path
         id="path72"
         d="m 76,144 c 0,-28.719 23.281,-52 52,-52 v 0 c 28.719,0 52,23.281 52,52 v 0 c 0,28.719 -23.281,52 -52,52 v 0 C 99.281,196 76,172.719 76,144" /></clipPath><linearGradient
       id="linearGradient84"
       spreadMethod="pad"
       gradientTransform="matrix(-73.539101,73.539101,73.539101,73.539101,164.76955,107.23045)"
       gradientUnits="userSpaceOnUse"
       y2="0"
       x2="1"
       y1="0"
       x1="0"><stop
         id="stop80"
         offset="0"
         style="stop-opacity:1;stop-color:#e6e7e8" /><stop
         id="stop82"
         offset="1"
         style="stop-opacity:1;stop-color:#d1d3d4" /></linearGradient></defs><g
     transform="matrix(1.3333333,0,0,-1.3333333,-63.999998,325.33333)"
     id="g10"><g
       transform="translate(112,220)"
       id="g12"><path
         id="path14"
         style="fill:#999999;fill-opacity:1;fill-rule:nonzero;stroke:none"
         d="M 0,0 V -24 H 32 V 0 h 8 L 16,24 -8,0 Z" /></g><g
       id="g16"><g
         clip-path="url(#clipPath22)"
         id="g18"><g
           id="g24"><g
             id="g26"><path
               id="path34"
               style="fill:url(#linearGradient32);stroke:none"
               d="M 48,128 C 48,83.817 83.817,48 128,48 v 0 c 44.183,0 80,35.817 80,80 v 0 c 0,44.183 -35.817,80 -80,80 v 0 C 83.817,208 48,172.183 48,128" /></g></g></g></g><g
       id="g36"><g
         clip-path="url(#clipPath42)"
         id="g38"><g
           transform="translate(192,128)"
           id="g44"><path
             id="path46"
             style="fill:#999999;fill-opacity:1;fill-rule:nonzero;stroke:none"
             d="m 0,0 c 0,-35.347 -28.653,-64 -64,-64 -35.346,0 -64,28.653 -64,64 0,35.346 28.654,64 64,64 C -28.653,64 0,35.346 0,0" /></g></g></g><g
       id="g48"><g
         clip-path="url(#clipPath54)"
         id="g50"><g
           id="g56"><g
             id="g58"><path
               id="path66"
               style="fill:url(#linearGradient64);stroke:none"
               d="m 64,144 c 0,-35.347 28.654,-64 64,-64 v 0 c 35.346,0 64,28.653 64,64 v 0 c 0,35.347 -28.654,64 -64,64 v 0 C 92.654,208 64,179.347 64,144" /></g></g></g></g><g
       id="g68"><g
         clip-path="url(#clipPath74)"
         id="g70"><g
           id="g76"><g
             id="g78"><path
               id="path86"
               style="fill:url(#linearGradient84);stroke:none"
               d="m 76,144 c 0,-28.719 23.281,-52 52,-52 v 0 c 28.719,0 52,23.281 52,52 v 0 c 0,28.719 -23.281,52 -52,52 v 0 C 99.281,196 76,172.719 76,144" /></g></g></g></g></g></svg>