<?xml version="1.0" encoding="UTF-8" standalone="no"?>
<svg
   xmlns:dc="http://purl.org/dc/elements/1.1/"
   xmlns:cc="http://creativecommons.org/ns#"
   xmlns:rdf="http://www.w3.org/1999/02/22-rdf-syntax-ns#"
   xmlns:svg="http://www.w3.org/2000/svg"
   xmlns="http://www.w3.org/2000/svg"
   viewBox="0 0 266.66665 266.66665"
   height="266.66666"
   width="266.66666"
   xml:space="preserve"
   id="svg2"
   version="1.1"><metadata
     id="metadata8"><rdf:RDF><cc:Work
         rdf:about=""><dc:format>image/svg+xml</dc:format><dc:type
           rdf:resource="http://purl.org/dc/dcmitype/StillImage" /></cc:Work></rdf:RDF></metadata><defs
     id="defs6"><clipPath
       id="clipPath18"
       clipPathUnits="userSpaceOnUse"><path
         id="path16"
         d="m 32,108 c -2.209,0 -4,-1.791 -4,-4 v 0 C 28,62.026 62.026,28 104,28 v 0 h 48 c 41.973,0 76,34.026 76,76 v 0 c 0,2.209 -1.791,4 -4,4 v 0 z" /></clipPath><linearGradient
       id="linearGradient28"
       spreadMethod="pad"
       gradientTransform="matrix(116.56857,-116.56857,-116.56857,-116.56857,69.715714,147.37262)"
       gradientUnits="userSpaceOnUse"
       y2="0"
       x2="1"
       y1="0"
       x1="0"><stop
         id="stop24"
         offset="0"
         style="stop-opacity:1;stop-color:#e6e7e8" /><stop
         id="stop26"
         offset="1"
         style="stop-opacity:1;stop-color:#d1d3d4" /></linearGradient><clipPath
       id="clipPath38"
       clipPathUnits="userSpaceOnUse"><path
         id="path36"
         d="M 0,256 H 256 V 0 H 0 Z" /></clipPath><clipPath
       id="clipPath50"
       clipPathUnits="userSpaceOnUse"><path
         id="path48"
         d="M 77.92,228 C 74.65,228 72,224.419 72,220 v 0 -68 c 0,-2.209 1.325,-4 2.96,-4 v 0 h 142.08 c 1.635,0 2.96,1.791 2.96,4 v 0 68 c 0,4.419 -2.65,8 -5.92,8 v 0 z" /></clipPath><linearGradient
       id="linearGradient60"
       spreadMethod="pad"
       gradientTransform="matrix(111.02464,-111.02464,-111.02464,-111.02464,90.487686,242.52052)"
       gradientUnits="userSpaceOnUse"
       y2="0"
       x2="1"
       y1="0"
       x1="0"><stop
         id="stop56"
         offset="0"
         style="stop-opacity:1;stop-color:#e6e7e8" /><stop
         id="stop58"
         offset="1"
         style="stop-opacity:1;stop-color:#d1d3d4" /></linearGradient><clipPath
       id="clipPath70"
       clipPathUnits="userSpaceOnUse"><path
         id="path68"
         d="M 77.92,224 C 77.26,224 76,222.442 76,220 v 0 -68 h 140 v 68 c 0,2.442 -1.261,4 -1.92,4 v 0 z" /></clipPath><linearGradient
       id="linearGradient80"
       spreadMethod="pad"
       gradientTransform="matrix(-105.19165,105.19165,105.19165,105.19165,198.59583,134.59583)"
       gradientUnits="userSpaceOnUse"
       y2="0"
       x2="1"
       y1="0"
       x1="0"><stop
         id="stop76"
         offset="0"
         style="stop-opacity:1;stop-color:#e6e7e8" /><stop
         id="stop78"
         offset="1"
         style="stop-opacity:1;stop-color:#d1d3d4" /></linearGradient></defs><g
     transform="matrix(1.3333333,0,0,-1.3333333,-37.333332,303.99999)"
     id="g10"><g
       id="g12"><g
         clip-path="url(#clipPath18)"
         id="g14"><g
           id="g20"><g
             id="g22"><path
               id="path30"
               style="fill:url(#linearGradient28);stroke:none"
               d="m 32,108 c -2.209,0 -4,-1.791 -4,-4 v 0 C 28,62.026 62.026,28 104,28 v 0 h 48 c 41.973,0 76,34.026 76,76 v 0 c 0,2.209 -1.791,4 -4,4 v 0 z" /></g></g></g></g><g
       id="g32"><g
         clip-path="url(#clipPath38)"
         id="g34"><g
           transform="translate(32,104)"
           id="g40"><path
             id="path42"
             style="fill:#999999;fill-opacity:1;fill-rule:nonzero;stroke:none"
             d="m 0,0 h 192 c 0,-39.701 -32.299,-72 -72,-72 H 72 C 32.299,-72 0,-39.701 0,0" /></g></g></g><g
       id="g44"><g
         clip-path="url(#clipPath50)"
         id="g46"><g
           id="g52"><g
             id="g54"><path
               id="path62"
               style="fill:url(#linearGradient60);stroke:none"
               d="M 77.92,228 C 74.65,228 72,224.419 72,220 v 0 -68 c 0,-2.209 1.325,-4 2.96,-4 v 0 h 142.08 c 1.635,0 2.96,1.791 2.96,4 v 0 68 c 0,4.419 -2.65,8 -5.92,8 v 0 z" /></g></g></g></g><g
       id="g64"><g
         clip-path="url(#clipPath70)"
         id="g66"><g
           id="g72"><g
             id="g74"><path
               id="path82"
               style="fill:url(#linearGradient80);stroke:none"
               d="M 77.92,224 C 77.26,224 76,222.442 76,220 v 0 -68 h 140 v 68 c 0,2.442 -1.261,4 -1.92,4 v 0 z" /></g></g></g></g></g></svg>