<?xml version="1.0" encoding="UTF-8" standalone="no"?>
<svg
   xmlns:dc="http://purl.org/dc/elements/1.1/"
   xmlns:cc="http://creativecommons.org/ns#"
   xmlns:rdf="http://www.w3.org/1999/02/22-rdf-syntax-ns#"
   xmlns:svg="http://www.w3.org/2000/svg"
   xmlns="http://www.w3.org/2000/svg"
   viewBox="0 0 266.66665 266.66665"
   height="266.66666"
   width="266.66666"
   xml:space="preserve"
   id="svg2"
   version="1.1"><metadata
     id="metadata8"><rdf:RDF><cc:Work
         rdf:about=""><dc:format>image/svg+xml</dc:format><dc:type
           rdf:resource="http://purl.org/dc/dcmitype/StillImage" /></cc:Work></rdf:RDF></metadata><defs
     id="defs6"><clipPath
       id="clipPath18"
       clipPathUnits="userSpaceOnUse"><path
         id="path16"
         d="m 88,68 c 0,-22.092 17.908,-40 40,-40 v 0 c 22.092,0 40,17.908 40,40 v 0 c 0,22.092 -17.908,40 -40,40 v 0 C 105.908,108 88,90.092 88,68 m 4,0 c 0,19.851 16.149,36 36,36 v 0 c 19.85,0 36,-16.149 36,-36 v 0 C 164,48.149 147.85,32 128,32 v 0 C 108.149,32 92,48.149 92,68" /></clipPath><linearGradient
       id="linearGradient28"
       spreadMethod="pad"
       gradientTransform="matrix(65.537781,-45.890049,-45.890049,-65.537781,95.23111,90.94503)"
       gradientUnits="userSpaceOnUse"
       y2="0"
       x2="1"
       y1="0"
       x1="0"><stop
         id="stop24"
         offset="0"
         style="stop-opacity:1;stop-color:#e6e7e8" /><stop
         id="stop26"
         offset="1"
         style="stop-opacity:1;stop-color:#d1d3d4" /></linearGradient><clipPath
       id="clipPath38"
       clipPathUnits="userSpaceOnUse"><path
         id="path36"
         d="M 32,128 C 32,108.149 48.149,92 68,92 v 0 c 19.851,0 36,16.149 36,36 v 0 c 0,19.85 -16.149,36 -36,36 v 0 C 48.149,164 32,147.85 32,128" /></clipPath><linearGradient
       id="linearGradient48"
       spreadMethod="pad"
       gradientTransform="matrix(-50.887848,50.887848,50.887848,50.887848,93.443924,102.55608)"
       gradientUnits="userSpaceOnUse"
       y2="0"
       x2="1"
       y1="0"
       x1="0"><stop
         id="stop44"
         offset="0"
         style="stop-opacity:1;stop-color:#e6e7e8" /><stop
         id="stop46"
         offset="1"
         style="stop-opacity:1;stop-color:#d1d3d4" /></linearGradient><clipPath
       id="clipPath58"
       clipPathUnits="userSpaceOnUse"><path
         id="path56"
         d="M 28,128 C 28,105.908 45.909,88 68,88 v 0 c 22.091,0 40,17.908 40,40 v 0 c 0,22.091 -17.909,40 -40,40 v 0 C 45.909,168 28,150.091 28,128 m 4,0 c 0,19.85 16.149,36 36,36 v 0 c 19.851,0 36,-16.15 36,-36 v 0 C 104,108.149 87.851,92 68,92 v 0 c -19.851,0 -36,16.149 -36,36" /></clipPath><linearGradient
       id="linearGradient68"
       spreadMethod="pad"
       gradientTransform="matrix(56.568535,-56.568535,-56.568535,-56.568535,39.715729,156.28429)"
       gradientUnits="userSpaceOnUse"
       y2="0"
       x2="1"
       y1="0"
       x1="0"><stop
         id="stop64"
         offset="0"
         style="stop-opacity:1;stop-color:#e6e7e8" /><stop
         id="stop66"
         offset="1"
         style="stop-opacity:1;stop-color:#d1d3d4" /></linearGradient><clipPath
       id="clipPath78"
       clipPathUnits="userSpaceOnUse"><path
         id="path76"
         d="m 88,188 c 0,-22.091 17.908,-40 40,-40 v 0 c 22.092,0 40,17.909 40,40 v 0 c 0,22.091 -17.908,40 -40,40 v 0 c -22.092,0 -40,-17.909 -40,-40 m 4,0 c 0,19.85 16.149,36 36,36 v 0 c 19.85,0 36,-16.15 36,-36 v 0 c 0,-19.85 -16.15,-36 -36,-36 v 0 c -19.851,0 -36,16.15 -36,36" /></clipPath><linearGradient
       id="linearGradient88"
       spreadMethod="pad"
       gradientTransform="matrix(56.568535,-56.568535,-56.568535,-56.568535,99.715729,216.28429)"
       gradientUnits="userSpaceOnUse"
       y2="0"
       x2="1"
       y1="0"
       x1="0"><stop
         id="stop84"
         offset="0"
         style="stop-opacity:1;stop-color:#e6e7e8" /><stop
         id="stop86"
         offset="1"
         style="stop-opacity:1;stop-color:#d1d3d4" /></linearGradient><clipPath
       id="clipPath98"
       clipPathUnits="userSpaceOnUse"><path
         id="path96"
         d="m 148,128 c 0,-22.092 17.908,-40 40,-40 v 0 c 22.091,0 40,17.908 40,40 v 0 c 0,22.091 -17.909,40 -40,40 v 0 c -22.092,0 -40,-17.909 -40,-40 m 4,0 c 0,19.85 16.15,36 36,36 v 0 c 19.85,0 36,-16.15 36,-36 v 0 c 0,-19.851 -16.15,-36 -36,-36 v 0 c -19.85,0 -36,16.149 -36,36" /></clipPath><linearGradient
       id="linearGradient108"
       spreadMethod="pad"
       gradientTransform="matrix(56.568535,-56.568535,-56.568535,-56.568535,159.71573,156.28429)"
       gradientUnits="userSpaceOnUse"
       y2="0"
       x2="1"
       y1="0"
       x1="0"><stop
         id="stop104"
         offset="0"
         style="stop-opacity:1;stop-color:#e6e7e8" /><stop
         id="stop106"
         offset="1"
         style="stop-opacity:1;stop-color:#d1d3d4" /></linearGradient></defs><g
     transform="matrix(1.3333333,0,0,-1.3333333,-37.333332,303.99999)"
     id="g10"><g
       id="g12"><g
         clip-path="url(#clipPath18)"
         id="g14"><g
           id="g20"><g
             id="g22"><path
               id="path30"
               style="fill:url(#linearGradient28);stroke:none"
               d="m 88,68 c 0,-22.092 17.908,-40 40,-40 v 0 c 22.092,0 40,17.908 40,40 v 0 c 0,22.092 -17.908,40 -40,40 v 0 C 105.908,108 88,90.092 88,68 m 4,0 c 0,19.851 16.149,36 36,36 v 0 c 19.85,0 36,-16.149 36,-36 v 0 C 164,48.149 147.85,32 128,32 v 0 C 108.149,32 92,48.149 92,68" /></g></g></g></g><g
       id="g32"><g
         clip-path="url(#clipPath38)"
         id="g34"><g
           id="g40"><g
             id="g42"><path
               id="path50"
               style="fill:url(#linearGradient48);stroke:none"
               d="M 32,128 C 32,108.149 48.149,92 68,92 v 0 c 19.851,0 36,16.149 36,36 v 0 c 0,19.85 -16.149,36 -36,36 v 0 C 48.149,164 32,147.85 32,128" /></g></g></g></g><g
       id="g52"><g
         clip-path="url(#clipPath58)"
         id="g54"><g
           id="g60"><g
             id="g62"><path
               id="path70"
               style="fill:url(#linearGradient68);stroke:none"
               d="M 28,128 C 28,105.908 45.909,88 68,88 v 0 c 22.091,0 40,17.908 40,40 v 0 c 0,22.091 -17.909,40 -40,40 v 0 C 45.909,168 28,150.091 28,128 m 4,0 c 0,19.85 16.149,36 36,36 v 0 c 19.851,0 36,-16.15 36,-36 v 0 C 104,108.149 87.851,92 68,92 v 0 c -19.851,0 -36,16.149 -36,36" /></g></g></g></g><g
       id="g72"><g
         clip-path="url(#clipPath78)"
         id="g74"><g
           id="g80"><g
             id="g82"><path
               id="path90"
               style="fill:url(#linearGradient88);stroke:none"
               d="m 88,188 c 0,-22.091 17.908,-40 40,-40 v 0 c 22.092,0 40,17.909 40,40 v 0 c 0,22.091 -17.908,40 -40,40 v 0 c -22.092,0 -40,-17.909 -40,-40 m 4,0 c 0,19.85 16.149,36 36,36 v 0 c 19.85,0 36,-16.15 36,-36 v 0 c 0,-19.85 -16.15,-36 -36,-36 v 0 c -19.851,0 -36,16.15 -36,36" /></g></g></g></g><g
       id="g92"><g
         clip-path="url(#clipPath98)"
         id="g94"><g
           id="g100"><g
             id="g102"><path
               id="path110"
               style="fill:url(#linearGradient108);stroke:none"
               d="m 148,128 c 0,-22.092 17.908,-40 40,-40 v 0 c 22.091,0 40,17.908 40,40 v 0 c 0,22.091 -17.909,40 -40,40 v 0 c -22.092,0 -40,-17.909 -40,-40 m 4,0 c 0,19.85 16.15,36 36,36 v 0 c 19.85,0 36,-16.15 36,-36 v 0 c 0,-19.851 -16.15,-36 -36,-36 v 0 c -19.85,0 -36,16.149 -36,36" /></g></g></g></g></g></svg>