<?xml version="1.0" encoding="UTF-8" standalone="no"?>
<svg
   xmlns:dc="http://purl.org/dc/elements/1.1/"
   xmlns:cc="http://creativecommons.org/ns#"
   xmlns:rdf="http://www.w3.org/1999/02/22-rdf-syntax-ns#"
   xmlns:svg="http://www.w3.org/2000/svg"
   xmlns="http://www.w3.org/2000/svg"
   viewBox="0 0 287.99951 288"
   height="288"
   width="287.99951"
   xml:space="preserve"
   id="svg2"
   version="1.1"><metadata
     id="metadata8"><rdf:RDF><cc:Work
         rdf:about=""><dc:format>image/svg+xml</dc:format><dc:type
           rdf:resource="http://purl.org/dc/dcmitype/StillImage" /></cc:Work></rdf:RDF></metadata><defs
     id="defs6"><clipPath
       id="clipPath18"
       clipPathUnits="userSpaceOnUse"><path
         id="path16"
         d="M 61.51,194.554 C 6.21,139.254 6.116,116.919 61.512,61.523 v 0 C 116.915,6.12 139.221,6.199 194.543,61.52 v 0 c 55.327,55.328 55.223,77.815 0.003,133.036 v 0 c -27.618,27.617 -47.06,41.441 -66.508,41.444 v 0 c -19.44,0.002 -38.885,-13.803 -66.528,-41.446" /></clipPath><linearGradient
       id="linearGradient28"
       spreadMethod="pad"
       gradientTransform="matrix(133.03307,-133.03307,-133.03307,-133.03307,61.512417,194.55611)"
       gradientUnits="userSpaceOnUse"
       y2="0"
       x2="1"
       y1="0"
       x1="0"><stop
         id="stop24"
         offset="0"
         style="stop-opacity:1;stop-color:#e6e7e8" /><stop
         id="stop26"
         offset="1"
         style="stop-opacity:1;stop-color:#d1d3d4" /></linearGradient><clipPath
       id="clipPath38"
       clipPathUnits="userSpaceOnUse"><path
         id="path36"
         d="M 0,256 H 256 V 0 H 0 Z" /></clipPath></defs><g
     transform="matrix(1.3333333,0,0,-1.3333333,-26.666656,314.66666)"
     id="g10"><g
       id="g12"><g
         clip-path="url(#clipPath18)"
         id="g14"><g
           id="g20"><g
             id="g22"><path
               id="path30"
               style="fill:url(#linearGradient28);stroke:none"
               d="M 61.51,194.554 C 6.21,139.254 6.116,116.919 61.512,61.523 v 0 C 116.915,6.12 139.221,6.199 194.543,61.52 v 0 c 55.327,55.328 55.223,77.815 0.003,133.036 v 0 c -27.618,27.617 -47.06,41.441 -66.508,41.444 v 0 c -19.44,0.002 -38.885,-13.803 -66.528,-41.446" /></g></g></g></g><g
       id="g32"><g
         clip-path="url(#clipPath38)"
         id="g34"><g
           transform="translate(168,172)"
           id="g40"><path
             id="path42"
             style="fill:#ffffff;fill-opacity:1;fill-rule:nonzero;stroke:none"
             d="m 0,0 c -1.95,15.805 -15.667,28 -32,28 -10.651,0 -18.183,-3.997 -24,-12 h -8 c -8.836,0 -16,-7.164 -16,-16 0,-0.018 0,0.018 0,0 -20.058,-1.039 -36,-17.683 -36,-38 0,-20.986 15.013,-38 36,-38 H 0 c 20.986,0 36,17.014 36,38 0,20.4 -15.825,37.086 -36,38" /></g><g
           transform="translate(128.0161,68)"
           id="g44"><path
             id="path46"
             style="fill:#999999;fill-opacity:1;fill-rule:nonzero;stroke:none"
             d="m 0,0 39.984,48 h -24 v 48 c 0,4.418 -3.582,8 -8,8 h -16 c -4.419,0 -8,-3.582 -8,-8 V 48 h -24 z" /></g><g
           transform="translate(92,52)"
           id="g48"><path
             id="path50"
             style="fill:#999999;fill-opacity:1;fill-rule:nonzero;stroke:none"
             d="m 0,0 h 72 c 2.209,0 4,1.791 4,4 0,2.209 -1.791,4 -4,4 H 0 C -2.209,8 -4,6.209 -4,4 -4,1.791 -2.209,0 0,0" /></g></g></g></g></svg>