<?xml version="1.0" encoding="UTF-8" standalone="no"?>
<svg
   xmlns:dc="http://purl.org/dc/elements/1.1/"
   xmlns:cc="http://creativecommons.org/ns#"
   xmlns:rdf="http://www.w3.org/1999/02/22-rdf-syntax-ns#"
   xmlns:svg="http://www.w3.org/2000/svg"
   xmlns="http://www.w3.org/2000/svg"
   viewBox="0 0 309.33331 250.66665"
   height="250.66666"
   width="309.33331"
   xml:space="preserve"
   id="svg2"
   version="1.1"><metadata
     id="metadata8"><rdf:RDF><cc:Work
         rdf:about=""><dc:format>image/svg+xml</dc:format><dc:type
           rdf:resource="http://purl.org/dc/dcmitype/StillImage" /></cc:Work></rdf:RDF></metadata><defs
     id="defs6"><clipPath
       id="clipPath18"
       clipPathUnits="userSpaceOnUse"><path
         id="path16"
         d="m 116,220 -72,-4 c 0,0 -32,-4 -32,-28 v 0 -152 c 0,-2.209 1.791,-4 4,-4 v 0 h 224 c 2.209,0 4,1.791 4,4 v 0 152 c 0,24 -32,28 -32,28 v 0 l -72,4 z" /></clipPath><linearGradient
       id="linearGradient28"
       spreadMethod="pad"
       gradientTransform="matrix(197.68843,-197.68843,-197.68843,-197.68843,29.155786,214.87579)"
       gradientUnits="userSpaceOnUse"
       y2="0"
       x2="1"
       y1="0"
       x1="0"><stop
         id="stop24"
         offset="0"
         style="stop-opacity:1;stop-color:#e6e7e8" /><stop
         id="stop26"
         offset="1"
         style="stop-opacity:1;stop-color:#d1d3d4" /></linearGradient><clipPath
       id="clipPath38"
       clipPathUnits="userSpaceOnUse"><path
         id="path36"
         d="m 28,196 c 0,-4.419 3.582,-8 8,-8 v 0 c 4.418,0 8,3.581 8,8 v 0 c 0,4.418 -3.582,8 -8,8 v 0 c -4.418,0 -8,-3.582 -8,-8" /></clipPath><linearGradient
       id="linearGradient48"
       spreadMethod="pad"
       gradientTransform="matrix(-11.313708,11.313708,11.313708,11.313708,41.656853,190.34314)"
       gradientUnits="userSpaceOnUse"
       y2="0"
       x2="1"
       y1="0"
       x1="0"><stop
         id="stop44"
         offset="0"
         style="stop-opacity:1;stop-color:#e6e7e8" /><stop
         id="stop46"
         offset="1"
         style="stop-opacity:1;stop-color:#d1d3d4" /></linearGradient><clipPath
       id="clipPath58"
       clipPathUnits="userSpaceOnUse"><path
         id="path56"
         d="M 28,176 V 68 C 28,56.954 36.954,48 48,48 v 0 h 164 c 11.046,0 20,8.954 20,20 v 0 108 c -4.685,11.213 -48.793,20 -102,20 v 0 C 76.793,196 32.686,187.213 28,176" /></clipPath><linearGradient
       id="linearGradient68"
       spreadMethod="pad"
       gradientTransform="matrix(-160.52975,160.52975,160.52975,160.52975,210.26488,37.980621)"
       gradientUnits="userSpaceOnUse"
       y2="0"
       x2="1"
       y1="0"
       x1="0"><stop
         id="stop64"
         offset="0"
         style="stop-opacity:1;stop-color:#e6e7e8" /><stop
         id="stop66"
         offset="1"
         style="stop-opacity:1;stop-color:#d1d3d4" /></linearGradient><clipPath
       id="clipPath78"
       clipPathUnits="userSpaceOnUse"><path
         id="path76"
         d="M 0,256 H 256 V 0 H 0 Z" /></clipPath><clipPath
       id="clipPath90"
       clipPathUnits="userSpaceOnUse"><path
         id="path88"
         d="m 60.031,206.13 c -1.705,-0.337 -3.344,-0.683 -4.926,-1.041 v 0 C 53.285,204.678 52,203.057 52,201.19 v 0 c 0,-2.555 2.36,-4.46 4.854,-3.902 v 0 c 1.486,0.333 3.058,0.664 4.724,0.992 v 0 c 18.72,3.689 43.02,5.72 68.422,5.72 v 0 c 25.402,0 49.701,-2.031 68.422,-5.72 v 0 c 0.269,-0.053 0.536,-0.105 0.799,-0.159 v 0 c 2.475,-0.498 4.779,1.394 4.779,3.918 v 0 0.005 c 0,1.9 -1.329,3.541 -3.191,3.918 v 0 c -0.279,0.056 -0.559,0.112 -0.841,0.168 v 0 C 180.754,209.915 155.905,212 130,212 v 0 c -25.905,0 -50.754,-2.085 -69.969,-5.87" /></clipPath><linearGradient
       id="linearGradient100"
       spreadMethod="pad"
       gradientTransform="matrix(77.235992,-77.235992,-77.235992,-77.235992,89.383018,240.23543)"
       gradientUnits="userSpaceOnUse"
       y2="0"
       x2="1"
       y1="0"
       x1="0"><stop
         id="stop96"
         offset="0"
         style="stop-opacity:1;stop-color:#e6e7e8" /><stop
         id="stop98"
         offset="1"
         style="stop-opacity:1;stop-color:#d1d3d4" /></linearGradient><clipPath
       id="clipPath110"
       clipPathUnits="userSpaceOnUse"><path
         id="path108"
         d="m 60.031,210.129 c -1.705,-0.335 -3.344,-0.683 -4.926,-1.039 v 0 C 53.285,208.678 52,207.057 52,205.19 v 0 c 0,-2.555 2.36,-4.46 4.854,-3.902 v 0 c 1.486,0.333 3.058,0.664 4.724,0.992 v 0 c 18.72,3.689 43.02,5.72 68.422,5.72 v 0 c 25.402,0 49.701,-2.031 68.422,-5.72 v 0 c 0.269,-0.053 0.536,-0.106 0.799,-0.159 v 0 c 2.475,-0.499 4.779,1.394 4.779,3.918 v 0 0.005 c 0,1.9 -1.329,3.541 -3.191,3.918 v 0 c -0.279,0.056 -0.559,0.112 -0.841,0.167 v 0 C 180.754,213.915 155.905,216 130,216 v 0 c -25.905,0 -50.754,-2.085 -69.969,-5.871" /></clipPath><linearGradient
       id="linearGradient120"
       spreadMethod="pad"
       gradientTransform="matrix(-77.235992,77.235992,77.235992,77.235992,166.61902,166.99944)"
       gradientUnits="userSpaceOnUse"
       y2="0"
       x2="1"
       y1="0"
       x1="0"><stop
         id="stop116"
         offset="0"
         style="stop-opacity:1;stop-color:#e6e7e8" /><stop
         id="stop118"
         offset="1"
         style="stop-opacity:1;stop-color:#d1d3d4" /></linearGradient><clipPath
       id="clipPath130"
       clipPathUnits="userSpaceOnUse"><path
         id="path128"
         d="M 0,256 H 256 V 0 H 0 Z" /></clipPath></defs><g
     transform="matrix(1.3333333,0,0,-1.3333333,-16,293.33333)"
     id="g10"><g
       id="g12"><g
         clip-path="url(#clipPath18)"
         id="g14"><g
           id="g20"><g
             id="g22"><path
               id="path30"
               style="fill:url(#linearGradient28);stroke:none"
               d="m 116,220 -72,-4 c 0,0 -32,-4 -32,-28 v 0 -152 c 0,-2.209 1.791,-4 4,-4 v 0 h 224 c 2.209,0 4,1.791 4,4 v 0 152 c 0,24 -32,28 -32,28 v 0 l -72,4 z" /></g></g></g></g><g
       id="g32"><g
         clip-path="url(#clipPath38)"
         id="g34"><g
           id="g40"><g
             id="g42"><path
               id="path50"
               style="fill:url(#linearGradient48);stroke:none"
               d="m 28,196 c 0,-4.419 3.582,-8 8,-8 v 0 c 4.418,0 8,3.581 8,8 v 0 c 0,4.418 -3.582,8 -8,8 v 0 c -4.418,0 -8,-3.582 -8,-8" /></g></g></g></g><g
       id="g52"><g
         clip-path="url(#clipPath58)"
         id="g54"><g
           id="g60"><g
             id="g62"><path
               id="path70"
               style="fill:url(#linearGradient68);stroke:none"
               d="M 28,176 V 68 C 28,56.954 36.954,48 48,48 v 0 h 164 c 11.046,0 20,8.954 20,20 v 0 108 c -4.685,11.213 -48.793,20 -102,20 v 0 C 76.793,196 32.686,187.213 28,176" /></g></g></g></g><g
       id="g72"><g
         clip-path="url(#clipPath78)"
         id="g74"><g
           transform="translate(130,192)"
           id="g80"><path
             id="path82"
             style="fill:#ffffff;fill-opacity:1;fill-rule:nonzero;stroke:none"
             d="M 0,0 C 25.402,0 49.701,-2.031 68.422,-5.72 91.351,-10.237 96.783,-15.319 98,-17.016 V -124 c 0,-8.822 -7.178,-16 -16,-16 H -82 c -8.822,0 -16,7.178 -16,16 v 106.984 c 1.216,1.697 6.649,6.779 29.578,11.296 C -49.702,-2.031 -25.402,0 0,0" /></g></g></g><g
       id="g84"><g
         clip-path="url(#clipPath90)"
         id="g86"><g
           id="g92"><g
             id="g94"><path
               id="path102"
               style="fill:url(#linearGradient100);stroke:none"
               d="m 60.031,206.13 c -1.705,-0.337 -3.344,-0.683 -4.926,-1.041 v 0 C 53.285,204.678 52,203.057 52,201.19 v 0 c 0,-2.555 2.36,-4.46 4.854,-3.902 v 0 c 1.486,0.333 3.058,0.664 4.724,0.992 v 0 c 18.72,3.689 43.02,5.72 68.422,5.72 v 0 c 25.402,0 49.701,-2.031 68.422,-5.72 v 0 c 0.269,-0.053 0.536,-0.105 0.799,-0.159 v 0 c 2.475,-0.498 4.779,1.394 4.779,3.918 v 0 0.005 c 0,1.9 -1.329,3.541 -3.191,3.918 v 0 c -0.279,0.056 -0.559,0.112 -0.841,0.168 v 0 C 180.754,209.915 155.905,212 130,212 v 0 c -25.905,0 -50.754,-2.085 -69.969,-5.87" /></g></g></g></g><g
       id="g104"><g
         clip-path="url(#clipPath110)"
         id="g106"><g
           id="g112"><g
             id="g114"><path
               id="path122"
               style="fill:url(#linearGradient120);stroke:none"
               d="m 60.031,210.129 c -1.705,-0.335 -3.344,-0.683 -4.926,-1.039 v 0 C 53.285,208.678 52,207.057 52,205.19 v 0 c 0,-2.555 2.36,-4.46 4.854,-3.902 v 0 c 1.486,0.333 3.058,0.664 4.724,0.992 v 0 c 18.72,3.689 43.02,5.72 68.422,5.72 v 0 c 25.402,0 49.701,-2.031 68.422,-5.72 v 0 c 0.269,-0.053 0.536,-0.106 0.799,-0.159 v 0 c 2.475,-0.499 4.779,1.394 4.779,3.918 v 0 0.005 c 0,1.9 -1.329,3.541 -3.191,3.918 v 0 c -0.279,0.056 -0.559,0.112 -0.841,0.167 v 0 C 180.754,213.915 155.905,216 130,216 v 0 c -25.905,0 -50.754,-2.085 -69.969,-5.871" /></g></g></g></g><g
       id="g124"><g
         clip-path="url(#clipPath130)"
         id="g126"><g
           transform="translate(44,194)"
           id="g132"><path
             id="path134"
             style="fill:#999999;fill-opacity:1;fill-rule:nonzero;stroke:none"
             d="m 0,0 c 0,-3.313 -2.687,-6 -6,-6 -3.313,0 -6,2.687 -6,6 0,3.313 2.687,6 6,6 3.313,0 6,-2.687 6,-6" /></g></g></g></g></svg>