<?xml version="1.0" encoding="UTF-8" standalone="no"?>
<svg
   xmlns:dc="http://purl.org/dc/elements/1.1/"
   xmlns:cc="http://creativecommons.org/ns#"
   xmlns:rdf="http://www.w3.org/1999/02/22-rdf-syntax-ns#"
   xmlns:svg="http://www.w3.org/2000/svg"
   xmlns="http://www.w3.org/2000/svg"
   viewBox="0 0 287.99951 288.00116"
   height="288.00116"
   width="287.99951"
   xml:space="preserve"
   id="svg2"
   version="1.1"><metadata
     id="metadata8"><rdf:RDF><cc:Work
         rdf:about=""><dc:format>image/svg+xml</dc:format><dc:type
           rdf:resource="http://purl.org/dc/dcmitype/StillImage" /></cc:Work></rdf:RDF></metadata><defs
     id="defs6"><clipPath
       id="clipPath18"
       clipPathUnits="userSpaceOnUse"><path
         id="path16"
         d="M 61.51,195.554 C 6.21,140.254 6.116,117.919 61.512,62.522 v 0 C 116.915,7.119 139.221,7.198 194.543,62.52 v 0 c 55.327,55.328 55.223,77.815 0.003,133.037 v 0 c -27.618,27.616 -47.06,41.441 -66.509,41.443 v 0 C 108.598,237.003 89.153,223.197 61.51,195.554" /></clipPath><linearGradient
       id="linearGradient28"
       spreadMethod="pad"
       gradientTransform="matrix(133.03336,-133.03336,-133.03336,-133.03336,61.512279,195.55624)"
       gradientUnits="userSpaceOnUse"
       y2="0"
       x2="1"
       y1="0"
       x1="0"><stop
         id="stop24"
         offset="0"
         style="stop-opacity:1;stop-color:#e6e7e8" /><stop
         id="stop26"
         offset="1"
         style="stop-opacity:1;stop-color:#d1d3d4" /></linearGradient><clipPath
       id="clipPath38"
       clipPathUnits="userSpaceOnUse"><path
         id="path36"
         d="M 0,256 H 256 V 0 H 0 Z" /></clipPath></defs><g
     transform="matrix(1.3333333,0,0,-1.3333333,-26.666656,315.99999)"
     id="g10"><g
       id="g12"><g
         clip-path="url(#clipPath18)"
         id="g14"><g
           id="g20"><g
             id="g22"><path
               id="path30"
               style="fill:url(#linearGradient28);stroke:none"
               d="M 61.51,195.554 C 6.21,140.254 6.116,117.919 61.512,62.522 v 0 C 116.915,7.119 139.221,7.198 194.543,62.52 v 0 c 55.327,55.328 55.223,77.815 0.003,133.037 v 0 c -27.618,27.616 -47.06,41.441 -66.509,41.443 v 0 C 108.598,237.003 89.153,223.197 61.51,195.554" /></g></g></g></g><g
       id="g32"><g
         clip-path="url(#clipPath38)"
         id="g34"><g
           transform="translate(160,112)"
           id="g40"><path
             id="path42"
             style="fill:#ffffff;fill-opacity:1;fill-rule:nonzero;stroke:none"
             d="m 0,0 c -8.837,0 -16,7.163 -16,16 0,8.836 7.163,16 16,16 C 8.837,32 16,24.836 16,16 16,7.163 8.837,0 0,0 m -80,16 c 0,8.836 7.164,16 16,16 8.836,0 16,-7.164 16,-16 0,-8.837 -7.164,-16 -16,-16 -8.836,0 -16,7.163 -16,16 M 0,40 C -10.43,40 -19.327,33.313 -22.629,24 -23.517,21.497 -24,18.804 -24,16 -24,9.85 -21.655,4.251 -17.838,0 H -24 -46.162 C -42.345,4.251 -40,9.85 -40,16 -40,29.233 -50.766,40 -64,40 -77.233,40 -88,29.233 -88,16 -88,2.767 -77.233,-8 -64,-8 H 0 C 13.233,-8 24,2.767 24,16 24,29.233 13.233,40 0,40" /></g></g></g></g></svg>