<?xml version="1.0" encoding="UTF-8" standalone="no"?>
<svg
   xmlns:dc="http://purl.org/dc/elements/1.1/"
   xmlns:cc="http://creativecommons.org/ns#"
   xmlns:rdf="http://www.w3.org/1999/02/22-rdf-syntax-ns#"
   xmlns:svg="http://www.w3.org/2000/svg"
   xmlns="http://www.w3.org/2000/svg"
   viewBox="0 0 287.99951 288.00116"
   height="288.00116"
   width="287.99951"
   xml:space="preserve"
   id="svg2"
   version="1.1"><metadata
     id="metadata8"><rdf:RDF><cc:Work
         rdf:about=""><dc:format>image/svg+xml</dc:format><dc:type
           rdf:resource="http://purl.org/dc/dcmitype/StillImage" /></cc:Work></rdf:RDF></metadata><defs
     id="defs6"><clipPath
       id="clipPath18"
       clipPathUnits="userSpaceOnUse"><path
         id="path16"
         d="M 61.51,194.554 C 6.21,139.254 6.116,116.919 61.512,61.522 v 0 C 116.915,6.119 139.221,6.198 194.543,61.52 v 0 c 55.327,55.328 55.223,77.815 0.003,133.036 v 0 c -27.618,27.617 -47.06,41.442 -66.509,41.444 v 0 C 108.598,236.003 89.153,222.197 61.51,194.554" /></clipPath><linearGradient
       id="linearGradient28"
       spreadMethod="pad"
       gradientTransform="matrix(133.03336,-133.03336,-133.03336,-133.03336,61.512279,194.55624)"
       gradientUnits="userSpaceOnUse"
       y2="0"
       x2="1"
       y1="0"
       x1="0"><stop
         id="stop24"
         offset="0"
         style="stop-opacity:1;stop-color:#e6e7e8" /><stop
         id="stop26"
         offset="1"
         style="stop-opacity:1;stop-color:#d1d3d4" /></linearGradient><clipPath
       id="clipPath38"
       clipPathUnits="userSpaceOnUse"><path
         id="path36"
         d="M 0,256 H 256 V 0 H 0 Z" /></clipPath></defs><g
     transform="matrix(1.3333333,0,0,-1.3333333,-26.666656,314.66666)"
     id="g10"><g
       id="g12"><g
         clip-path="url(#clipPath18)"
         id="g14"><g
           id="g20"><g
             id="g22"><path
               id="path30"
               style="fill:url(#linearGradient28);stroke:none"
               d="M 61.51,194.554 C 6.21,139.254 6.116,116.919 61.512,61.522 v 0 C 116.915,6.119 139.221,6.198 194.543,61.52 v 0 c 55.327,55.328 55.223,77.815 0.003,133.036 v 0 c -27.618,27.617 -47.06,41.442 -66.509,41.444 v 0 C 108.598,236.003 89.153,222.197 61.51,194.554" /></g></g></g></g><g
       id="g32"><g
         clip-path="url(#clipPath38)"
         id="g34"><g
           transform="translate(82.6602,123.5596)"
           id="g40"><path
             id="path42"
             style="fill:#ffffff;fill-opacity:1;fill-rule:nonzero;stroke:none"
             d="m 0,0 c 2.98,-1.987 33.984,-26.676 34.72,-27.056 0.624,-0.32 1.332,-0.504 2.08,-0.504 2.484,0 4.488,1.997 4.524,4.472 0.004,0.021 0.016,0.036 0.016,0.057 V 31.9 c 0,2.508 -2.032,4.54 -4.54,4.54 -0.752,0 -1.456,-0.184 -2.084,-0.503 C 33.976,35.557 2.968,10.856 -0.012,8.873 -1.668,7.769 -2.66,6.104 -2.66,4.44 -2.66,2.776 -1.664,1.108 0,0" /></g><g
           transform="translate(126.6602,123.5596)"
           id="g44"><path
             id="path46"
             style="fill:#ffffff;fill-opacity:1;fill-rule:nonzero;stroke:none"
             d="m 0,0 c 2.979,-1.987 33.983,-26.676 34.72,-27.056 0.624,-0.32 1.332,-0.504 2.08,-0.504 2.484,0 4.488,1.997 4.524,4.472 0.004,0.021 0.016,0.036 0.016,0.057 V 31.9 c 0,2.508 -2.032,4.54 -4.54,4.54 -0.752,0 -1.456,-0.184 -2.084,-0.503 C 33.976,35.557 2.968,10.856 -0.012,8.873 -1.668,7.769 -2.66,6.104 -2.66,4.44 -2.66,2.776 -1.664,1.108 0,0" /></g></g></g></g></svg>