<?xml version="1.0" encoding="UTF-8" standalone="no"?>
<svg
   xmlns:dc="http://purl.org/dc/elements/1.1/"
   xmlns:cc="http://creativecommons.org/ns#"
   xmlns:rdf="http://www.w3.org/1999/02/22-rdf-syntax-ns#"
   xmlns:svg="http://www.w3.org/2000/svg"
   xmlns="http://www.w3.org/2000/svg"
   viewBox="0 0 287.99951 288.00116"
   height="288.00116"
   width="287.99951"
   xml:space="preserve"
   id="svg2"
   version="1.1"><metadata
     id="metadata8"><rdf:RDF><cc:Work
         rdf:about=""><dc:format>image/svg+xml</dc:format><dc:type
           rdf:resource="http://purl.org/dc/dcmitype/StillImage" /></cc:Work></rdf:RDF></metadata><defs
     id="defs6"><clipPath
       id="clipPath18"
       clipPathUnits="userSpaceOnUse"><path
         id="path16"
         d="M 61.51,194.554 C 6.21,139.254 6.116,116.919 61.512,61.522 v 0 C 116.915,6.119 139.221,6.198 194.543,61.52 v 0 c 55.327,55.328 55.223,77.815 0.003,133.036 v 0 c -27.618,27.617 -47.06,41.442 -66.509,41.444 v 0 C 108.598,236.003 89.153,222.197 61.51,194.554" /></clipPath><linearGradient
       id="linearGradient28"
       spreadMethod="pad"
       gradientTransform="matrix(133.03336,-133.03336,-133.03336,-133.03336,61.512279,194.55624)"
       gradientUnits="userSpaceOnUse"
       y2="0"
       x2="1"
       y1="0"
       x1="0"><stop
         id="stop24"
         offset="0"
         style="stop-opacity:1;stop-color:#e6e7e8" /><stop
         id="stop26"
         offset="1"
         style="stop-opacity:1;stop-color:#d1d3d4" /></linearGradient><clipPath
       id="clipPath38"
       clipPathUnits="userSpaceOnUse"><path
         id="path36"
         d="m 64,92 h 128 v 72 H 64 Z" /></clipPath><linearGradient
       id="linearGradient48"
       spreadMethod="pad"
       gradientTransform="matrix(-100,100,100,100,178,78)"
       gradientUnits="userSpaceOnUse"
       y2="0"
       x2="1"
       y1="0"
       x1="0"><stop
         id="stop44"
         offset="0"
         style="stop-opacity:1;stop-color:#e6e7e8" /><stop
         id="stop46"
         offset="1"
         style="stop-opacity:1;stop-color:#d1d3d4" /></linearGradient><clipPath
       id="clipPath58"
       clipPathUnits="userSpaceOnUse"><path
         id="path56"
         d="M 0,256 H 256 V 0 H 0 Z" /></clipPath></defs><g
     transform="matrix(1.3333333,0,0,-1.3333333,-26.666656,314.66666)"
     id="g10"><g
       id="g12"><g
         clip-path="url(#clipPath18)"
         id="g14"><g
           id="g20"><g
             id="g22"><path
               id="path30"
               style="fill:url(#linearGradient28);stroke:none"
               d="M 61.51,194.554 C 6.21,139.254 6.116,116.919 61.512,61.522 v 0 C 116.915,6.119 139.221,6.198 194.543,61.52 v 0 c 55.327,55.328 55.223,77.815 0.003,133.036 v 0 c -27.618,27.617 -47.06,41.442 -66.509,41.444 v 0 C 108.598,236.003 89.153,222.197 61.51,194.554" /></g></g></g></g><g
       id="g32"><g
         clip-path="url(#clipPath38)"
         id="g34"><g
           id="g40"><g
             id="g42"><path
               id="path50"
               style="fill:url(#linearGradient48);stroke:none"
               d="m 64,92 h 128 v 72 H 64 Z" /></g></g></g></g><g
       id="g52"><g
         clip-path="url(#clipPath58)"
         id="g54"><g
           transform="translate(196,168)"
           id="g60"><path
             id="path62"
             style="fill:#999999;fill-opacity:1;fill-rule:nonzero;stroke:none"
             d="m 0,0 h -4 -128 -4 v -4 -72 -4 h 4 128 4 v 4 72 z M -4,-76 H -132 V -4 H -4 Z" /></g><g
           transform="translate(75,130)"
           id="g64"><path
             id="path66"
             style="fill:#ffffff;fill-opacity:1;fill-rule:nonzero;stroke:none"
             d="m 0,0 h -2 c -1.654,0 -3,-1.346 -3,-3 v -1 h -1 c -1.654,0 -3,-1.346 -3,-3 v -2 c 0,-1.654 1.346,-3 3,-3 h 1 v -1 c 0,-1.654 1.346,-3 3,-3 h 2 c 1.654,0 3,1.346 3,3 v 1 h 1 c 1.654,0 3,1.346 3,3 v 2 c 0,1.654 -1.346,3 -3,3 H 3 v 1 C 3,-1.346 1.654,0 0,0 m 0,-2 c 0.552,0 1,-0.448 1,-1 v -3 h 3 c 0.552,0 1,-0.447 1,-1 V -9 C 5,-9.553 4.552,-10 4,-10 H 1 v -3 c 0,-0.553 -0.448,-1 -1,-1 h -2 c -0.552,0 -1,0.447 -1,1 v 3 h -3 c -0.552,0 -1,0.447 -1,1 v 2 c 0,0.553 0.448,1 1,1 h 3 v 3 c 0,0.552 0.448,1 1,1 h 2" /></g><g
           transform="translate(84,114)"
           id="g68"><path
             id="path70"
             style="fill:#ffffff;fill-opacity:1;fill-rule:nonzero;stroke:none"
             d="m 0,0 c -3.309,0 -6,-2.691 -6,-6 0,-3.309 2.691,-6 6,-6 3.309,0 6,2.691 6,6 0,3.309 -2.691,6 -6,6 m 0,-2 c 2.209,0 4,-1.791 4,-4 0,-2.209 -1.791,-4 -4,-4 -2.209,0 -4,1.791 -4,4 0,2.209 1.791,4 4,4" /></g><g
           transform="translate(172,114)"
           id="g72"><path
             id="path74"
             style="fill:#ffffff;fill-opacity:1;fill-rule:nonzero;stroke:none"
             d="m 0,0 c -3.309,0 -6,-2.691 -6,-6 0,-3.309 2.691,-6 6,-6 3.309,0 6,2.691 6,6 0,3.309 -2.691,6 -6,6 m 0,-2 c 2.209,0 4,-1.791 4,-4 0,-2.209 -1.791,-4 -4,-4 -2.209,0 -4,1.791 -4,4 0,2.209 1.791,4 4,4" /></g><g
           transform="translate(182,130)"
           id="g76"><path
             id="path78"
             style="fill:#ffffff;fill-opacity:1;fill-rule:nonzero;stroke:none"
             d="m 0,0 c -2.206,0 -4,-1.794 -4,-4 -2.206,0 -4,-1.794 -4,-4 0,-2.206 1.794,-4 4,-4 0,-2.206 1.794,-4 4,-4 2.206,0 4,1.794 4,4 2.206,0 4,1.794 4,4 0,2.206 -1.794,4 -4,4 0,2.206 -1.794,4 -4,4 m 0,-10 c 1.104,0 2,-0.896 2,-2 0,-1.104 -0.896,-2 -2,-2 -1.104,0 -2,0.896 -2,2 0,1.104 0.896,2 2,2 m -4,4 c 1.104,0 2,-0.896 2,-2 0,-1.104 -0.896,-2 -2,-2 -1.104,0 -2,0.896 -2,2 0,1.104 0.896,2 2,2 m 8,0 c 1.104,0 2,-0.896 2,-2 0,-1.104 -0.896,-2 -2,-2 -1.104,0 -2,0.896 -2,2 0,1.104 0.896,2 2,2 m -4,4 c 1.104,0 2,-0.896 2,-2 0,-1.104 -0.896,-2 -2,-2 -1.104,0 -2,0.896 -2,2 0,1.104 0.896,2 2,2" /></g><g
           transform="translate(108,148)"
           id="g80"><path
             id="path82"
             style="fill:#8f8f8f;fill-opacity:1;fill-rule:nonzero;stroke:none"
             d="m 0,0 -4,6 c 0,1.104 0.896,2 2,2 H 2 C 3.104,8 4,7.104 4,6 Z" /></g><g
           transform="translate(120,148)"
           id="g84"><path
             id="path86"
             style="fill:#8f8f8f;fill-opacity:1;fill-rule:nonzero;stroke:none"
             d="m 0,0 -4,6 c 0,1.104 0.896,2 2,2 H 2 C 3.104,8 4,7.104 4,6 Z" /></g><g
           transform="translate(128,136)"
           id="g88"><path
             id="path90"
             style="fill:#8f8f8f;fill-opacity:1;fill-rule:nonzero;stroke:none"
             d="M 0,0 V 0 C -2.209,0 -4,1.791 -4,4 V 8 H 4 V 4 C 4,1.791 2.209,0 0,0" /></g><g
           transform="translate(140,136)"
           id="g92"><path
             id="path94"
             style="fill:#8f8f8f;fill-opacity:1;fill-rule:nonzero;stroke:none"
             d="M 0,0 V 0 C -2.209,0 -4,1.791 -4,4 V 8 H 4 V 4 C 4,1.791 2.209,0 0,0" /></g><g
           transform="translate(116,136)"
           id="g96"><path
             id="path98"
             style="fill:#8f8f8f;fill-opacity:1;fill-rule:nonzero;stroke:none"
             d="M 0,0 V 0 C -2.209,0 -4,1.791 -4,4 V 8 H 4 V 4 C 4,1.791 2.209,0 0,0" /></g><g
           transform="translate(136,148)"
           id="g100"><path
             id="path102"
             style="fill:#8f8f8f;fill-opacity:1;fill-rule:nonzero;stroke:none"
             d="m 0,0 -4,6 c 0,1.104 0.896,2 2,2 H 2 C 3.104,8 4,7.104 4,6 Z" /></g><g
           transform="translate(148,148)"
           id="g104"><path
             id="path106"
             style="fill:#8f8f8f;fill-opacity:1;fill-rule:nonzero;stroke:none"
             d="m 0,0 -4,6 c 0,1.104 0.896,2 2,2 H 2 C 3.104,8 4,7.104 4,6 Z" /></g><g
           transform="translate(112,104)"
           id="g108"><path
             id="path110"
             style="fill:#8f8f8f;fill-opacity:1;fill-rule:nonzero;stroke:none"
             d="m 0,0 h -8 v 2 c 0,1.104 0.896,2 2,2 h 4 C -0.896,4 0,3.104 0,2 Z" /></g><g
           transform="translate(124,104)"
           id="g112"><path
             id="path114"
             style="fill:#8f8f8f;fill-opacity:1;fill-rule:nonzero;stroke:none"
             d="m 0,0 h -8 v 2 c 0,1.104 0.896,2 2,2 h 4 C -0.896,4 0,3.104 0,2 Z" /></g><g
           transform="translate(140,104)"
           id="g116"><path
             id="path118"
             style="fill:#8f8f8f;fill-opacity:1;fill-rule:nonzero;stroke:none"
             d="m 0,0 h -8 v 2 c 0,1.104 0.896,2 2,2 h 4 C -0.896,4 0,3.104 0,2 Z" /></g><g
           transform="translate(132,96)"
           id="g120"><path
             id="path122"
             style="fill:#ffffff;fill-opacity:1;fill-rule:nonzero;stroke:none"
             d="m 0,0 h -8 c 0,2.209 1.791,4 4,4 2.209,0 4,-1.791 4,-4" /></g><g
           transform="translate(152,104)"
           id="g124"><path
             id="path126"
             style="fill:#8f8f8f;fill-opacity:1;fill-rule:nonzero;stroke:none"
             d="m 0,0 h -8 v 2 c 0,1.104 0.896,2 2,2 h 4 C -0.896,4 0,3.104 0,2 Z" /></g><g
           transform="translate(130,108)"
           id="g128"><path
             id="path130"
             style="fill:#ffffff;fill-opacity:1;fill-rule:nonzero;stroke:none"
             d="M 0,0 V 0 C -1.104,0 -2,0.896 -2,2 -2,3.104 -1.104,4 0,4 1.104,4 2,3.104 2,2 2,0.896 1.104,0 0,0" /></g><g
           transform="translate(126,116)"
           id="g132"><path
             id="path134"
             style="fill:#ffffff;fill-opacity:1;fill-rule:nonzero;stroke:none"
             d="M 0,0 V 0 C -1.104,0 -2,0.896 -2,2 -2,3.104 -1.104,4 0,4 1.104,4 2,3.104 2,2 2,0.896 1.104,0 0,0" /></g><g
           transform="translate(130,124)"
           id="g136"><path
             id="path138"
             style="fill:#ffffff;fill-opacity:1;fill-rule:nonzero;stroke:none"
             d="M 0,0 V 0 C -1.104,0 -2,0.896 -2,2 -2,3.104 -1.104,4 0,4 1.104,4 2,3.104 2,2 2,0.896 1.104,0 0,0" /></g><path
           id="path140"
           style="fill:#ffffff;fill-opacity:1;fill-rule:nonzero;stroke:none"
           d="M 104,96 H 68 v 4 h 36 z" /></g></g></g></svg>