<?xml version="1.0" encoding="UTF-8" standalone="no"?>
<svg
   xmlns:dc="http://purl.org/dc/elements/1.1/"
   xmlns:cc="http://creativecommons.org/ns#"
   xmlns:rdf="http://www.w3.org/1999/02/22-rdf-syntax-ns#"
   xmlns:svg="http://www.w3.org/2000/svg"
   xmlns="http://www.w3.org/2000/svg"
   viewBox="0 0 287.99951 288.00116"
   height="288.00116"
   width="287.99951"
   xml:space="preserve"
   id="svg2"
   version="1.1"><metadata
     id="metadata8"><rdf:RDF><cc:Work
         rdf:about=""><dc:format>image/svg+xml</dc:format><dc:type
           rdf:resource="http://purl.org/dc/dcmitype/StillImage" /></cc:Work></rdf:RDF></metadata><defs
     id="defs6"><clipPath
       id="clipPath18"
       clipPathUnits="userSpaceOnUse"><path
         id="path16"
         d="M 61.51,194.554 C 6.21,139.254 6.116,116.919 61.512,61.522 v 0 C 116.915,6.119 139.221,6.198 194.543,61.52 v 0 c 55.327,55.328 55.223,77.815 0.003,133.036 v 0 c -27.618,27.617 -47.06,41.442 -66.509,41.444 v 0 C 108.598,236.003 89.153,222.197 61.51,194.554" /></clipPath><linearGradient
       id="linearGradient28"
       spreadMethod="pad"
       gradientTransform="matrix(133.03336,-133.03336,-133.03336,-133.03336,61.512279,194.55624)"
       gradientUnits="userSpaceOnUse"
       y2="0"
       x2="1"
       y1="0"
       x1="0"><stop
         id="stop24"
         offset="0"
         style="stop-opacity:1;stop-color:#e6e7e8" /><stop
         id="stop26"
         offset="1"
         style="stop-opacity:1;stop-color:#d1d3d4" /></linearGradient><clipPath
       id="clipPath38"
       clipPathUnits="userSpaceOnUse"><path
         id="path36"
         d="M 0,256 H 256 V 0 H 0 Z" /></clipPath><clipPath
       id="clipPath50"
       clipPathUnits="userSpaceOnUse"><path
         id="path48"
         d="m 98.456,172.048 c -3.546,0 -6.42,-2.661 -6.42,-5.944 v 0 -28.111 c 0,-3.283 2.874,-5.944 6.42,-5.944 v 0 h 59.159 c 3.546,0 6.421,2.661 6.421,5.944 v 0 28.111 c 0,3.283 -2.875,5.944 -6.421,5.944 v 0 z" /></clipPath><linearGradient
       id="linearGradient60"
       spreadMethod="pad"
       gradientTransform="matrix(-52.384785,52.384785,52.384785,52.384785,154.2281,125.85641)"
       gradientUnits="userSpaceOnUse"
       y2="0"
       x2="1"
       y1="0"
       x1="0"><stop
         id="stop56"
         offset="0"
         style="stop-opacity:1;stop-color:#e6e7e8" /><stop
         id="stop58"
         offset="1"
         style="stop-opacity:1;stop-color:#d1d3d4" /></linearGradient><clipPath
       id="clipPath70"
       clipPathUnits="userSpaceOnUse"><path
         id="path68"
         d="m 98.456,216.049 c -3.546,0 -6.42,-2.662 -6.42,-5.945 v 0 -28.111 c 0,-3.283 2.874,-5.944 6.42,-5.944 v 0 h 59.159 c 3.546,0 6.421,2.661 6.421,5.944 v 0 28.111 c 0,3.283 -2.875,5.945 -6.421,5.945 v 0 z" /></clipPath><linearGradient
       id="linearGradient80"
       spreadMethod="pad"
       gradientTransform="matrix(-52.384785,52.384785,52.384785,52.384785,154.2281,169.8564)"
       gradientUnits="userSpaceOnUse"
       y2="0"
       x2="1"
       y1="0"
       x1="0"><stop
         id="stop76"
         offset="0"
         style="stop-opacity:1;stop-color:#e6e7e8" /><stop
         id="stop78"
         offset="1"
         style="stop-opacity:1;stop-color:#d1d3d4" /></linearGradient><clipPath
       id="clipPath90"
       clipPathUnits="userSpaceOnUse"><path
         id="path88"
         d="m 98.456,84.049 c -3.546,0 -6.42,-2.662 -6.42,-5.945 v 0 -28.111 c 0,-3.283 2.874,-5.944 6.42,-5.944 v 0 h 59.159 c 3.546,0 6.421,2.661 6.421,5.944 v 0 28.111 c 0,3.283 -2.875,5.945 -6.421,5.945 v 0 z" /></clipPath><linearGradient
       id="linearGradient100"
       spreadMethod="pad"
       gradientTransform="matrix(-52.384785,52.384785,52.384785,52.384785,154.2281,37.856407)"
       gradientUnits="userSpaceOnUse"
       y2="0"
       x2="1"
       y1="0"
       x1="0"><stop
         id="stop96"
         offset="0"
         style="stop-opacity:1;stop-color:#e6e7e8" /><stop
         id="stop98"
         offset="1"
         style="stop-opacity:1;stop-color:#d1d3d4" /></linearGradient><clipPath
       id="clipPath110"
       clipPathUnits="userSpaceOnUse"><path
         id="path108"
         d="m 98.456,128.048 c -3.546,0 -6.42,-2.661 -6.42,-5.944 v 0 -28.111 c 0,-3.283 2.874,-5.944 6.42,-5.944 v 0 h 59.159 c 3.546,0 6.421,2.661 6.421,5.944 v 0 28.111 c 0,3.283 -2.875,5.944 -6.421,5.944 v 0 z" /></clipPath><linearGradient
       id="linearGradient120"
       spreadMethod="pad"
       gradientTransform="matrix(-52.384785,52.384785,52.384785,52.384785,154.2281,81.856407)"
       gradientUnits="userSpaceOnUse"
       y2="0"
       x2="1"
       y1="0"
       x1="0"><stop
         id="stop116"
         offset="0"
         style="stop-opacity:1;stop-color:#e6e7e8" /><stop
         id="stop118"
         offset="1"
         style="stop-opacity:1;stop-color:#d1d3d4" /></linearGradient><clipPath
       id="clipPath130"
       clipPathUnits="userSpaceOnUse"><path
         id="path128"
         d="m 98.456,40.049 c -3.439,0 -6.239,-2.507 -6.404,-5.654 v 0 c 26.253,-19.197 45.747,-19.178 71.968,0.006 v 0 c -0.169,3.144 -2.968,5.648 -6.405,5.648 v 0 z" /></clipPath><linearGradient
       id="linearGradient140"
       spreadMethod="pad"
       gradientTransform="matrix(-37.005875,37.005875,37.005875,37.005875,146.53757,16.917917)"
       gradientUnits="userSpaceOnUse"
       y2="0"
       x2="1"
       y1="0"
       x1="0"><stop
         id="stop136"
         offset="0"
         style="stop-opacity:1;stop-color:#e6e7e8" /><stop
         id="stop138"
         offset="1"
         style="stop-opacity:1;stop-color:#d1d3d4" /></linearGradient><clipPath
       id="clipPath150"
       clipPathUnits="userSpaceOnUse"><path
         id="path148"
         d="m 93.254,222.519 c 1.166,-1.494 3.059,-2.47 5.202,-2.47 v 0 h 59.159 c 2.142,0 4.034,0.975 5.2,2.468 v 0 c -12.598,8.981 -23.688,13.475 -34.777,13.476 v 0 c -11.087,0.001 -22.174,-4.488 -34.784,-13.474" /></clipPath><linearGradient
       id="linearGradient160"
       spreadMethod="pad"
       gradientTransform="matrix(-34.814152,34.814152,34.814152,34.814152,145.44173,205.07854)"
       gradientUnits="userSpaceOnUse"
       y2="0"
       x2="1"
       y1="0"
       x1="0"><stop
         id="stop156"
         offset="0"
         style="stop-opacity:1;stop-color:#e6e7e8" /><stop
         id="stop158"
         offset="1"
         style="stop-opacity:1;stop-color:#d1d3d4" /></linearGradient></defs><g
     transform="matrix(1.3333333,0,0,-1.3333333,-26.666656,314.66666)"
     id="g10"><g
       id="g12"><g
         clip-path="url(#clipPath18)"
         id="g14"><g
           id="g20"><g
             id="g22"><path
               id="path30"
               style="fill:url(#linearGradient28);stroke:none"
               d="M 61.51,194.554 C 6.21,139.254 6.116,116.919 61.512,61.522 v 0 C 116.915,6.119 139.221,6.198 194.543,61.52 v 0 c 55.327,55.328 55.223,77.815 0.003,133.036 v 0 c -27.618,27.617 -47.06,41.442 -66.509,41.444 v 0 C 108.598,236.003 89.153,222.197 61.51,194.554" /></g></g></g></g><g
       id="g32"><g
         clip-path="url(#clipPath38)"
         id="g34"><g
           transform="translate(173.96,52.1816)"
           id="g40"><path
             id="path42"
             style="fill:#999999;fill-opacity:1;fill-rule:nonzero;stroke:none"
             d="m 0,0 h -4.08 c -1.13,0 -2.04,0.875 -2.04,1.962 v 3.923 c 0,1.087 0.91,1.962 2.04,1.962 H 0 c 1.13,0 2.04,-0.875 2.04,-1.962 V 1.962 C 2.04,0.875 1.13,0 0,0 m -6.12,17.731 c 0,1.087 0.91,1.961 2.04,1.961 H 0 c 1.13,0 2.04,-0.874 2.04,-1.961 V 13.809 C 2.04,12.722 1.13,11.847 0,11.847 h -4.08 c -1.13,0 -2.04,0.875 -2.04,1.962 z m 0,12 c 0,1.087 0.91,1.961 2.04,1.961 H 0 c 1.13,0 2.04,-0.874 2.04,-1.961 V 25.809 C 2.04,24.722 1.13,23.847 0,23.847 h -4.08 c -1.13,0 -2.04,0.875 -2.04,1.962 z m 0,12 c 0,1.087 0.91,1.961 2.04,1.961 H 0 c 1.13,0 2.04,-0.874 2.04,-1.961 V 37.809 C 2.04,36.722 1.13,35.847 0,35.847 h -4.08 c -1.13,0 -2.04,0.875 -2.04,1.962 z m 0,12 c 0,1.087 0.91,1.961 2.04,1.961 H 0 c 1.13,0 2.04,-0.874 2.04,-1.961 V 49.809 C 2.04,48.722 1.13,47.847 0,47.847 h -4.08 c -1.13,0 -2.04,0.875 -2.04,1.962 z m 0,12 c 0,1.087 0.91,1.961 2.04,1.961 H 0 c 1.13,0 2.04,-0.874 2.04,-1.961 V 61.809 C 2.04,60.722 1.13,59.847 0,59.847 h -4.08 c -1.13,0 -2.04,0.875 -2.04,1.962 z m 0,12 c 0,1.087 0.91,1.962 2.04,1.962 H 0 c 1.13,0 2.04,-0.875 2.04,-1.962 V 73.809 C 2.04,72.722 1.13,71.847 0,71.847 h -4.08 c -1.13,0 -2.04,0.875 -2.04,1.962 z m 0,12 c 0,1.087 0.91,1.962 2.04,1.962 H 0 c 1.13,0 2.04,-0.875 2.04,-1.962 V 85.808 C 2.04,84.722 1.13,83.847 0,83.847 h -4.08 c -1.13,0 -2.04,0.874 -2.04,1.961 z m 0,12 c 0,1.087 0.91,1.962 2.04,1.962 H 0 c 1.13,0 2.04,-0.875 2.04,-1.962 V 97.808 C 2.04,96.722 1.13,95.847 0,95.847 h -4.08 c -1.13,0 -2.04,0.874 -2.04,1.961 z m 0,12 c 0,1.087 0.91,1.962 2.04,1.962 H 0 c 1.13,0 2.04,-0.875 2.04,-1.962 v -3.923 c 0,-1.086 -0.91,-1.961 -2.04,-1.961 h -4.08 c -1.13,0 -2.04,0.874 -2.04,1.961 z m 0,12 c 0,1.087 0.91,1.962 2.04,1.962 H 0 c 1.13,0 2.04,-0.875 2.04,-1.962 v -3.923 c 0,-1.086 -0.91,-1.961 -2.04,-1.961 h -4.08 c -1.13,0 -2.04,0.874 -2.04,1.961 z m 0,12 c 0,1.087 0.91,1.962 2.04,1.962 H 0 c 1.13,0 2.04,-0.875 2.04,-1.962 v -3.923 c 0,-1.086 -0.91,-1.961 -2.04,-1.961 h -4.08 c -1.13,0 -2.04,0.874 -2.04,1.961 z m 0,12 c 0,1.087 0.91,1.962 2.04,1.962 H 0 c 1.13,0 2.04,-0.875 2.04,-1.962 v -3.923 c 0,-1.086 -0.91,-1.961 -2.04,-1.961 h -4.08 c -1.13,0 -2.04,0.874 -2.04,1.961 z m -79.68,-3.923 c 0,-1.086 -0.91,-1.961 -2.04,-1.961 h -4.08 c -1.13,0 -2.04,0.874 -2.04,1.961 v 3.923 c 0,1.087 0.91,1.962 2.04,1.962 h 4.08 c 1.13,0 2.04,-0.875 2.04,-1.962 z m 0,-12 c 0,-1.086 -0.91,-1.961 -2.04,-1.961 h -4.08 c -1.13,0 -2.04,0.874 -2.04,1.961 v 3.923 c 0,1.087 0.91,1.962 2.04,1.962 h 4.08 c 1.13,0 2.04,-0.875 2.04,-1.962 z m 0,-12 c 0,-1.086 -0.91,-1.961 -2.04,-1.961 h -4.08 c -1.13,0 -2.04,0.874 -2.04,1.961 v 3.923 c 0,1.087 0.91,1.962 2.04,1.962 h 4.08 c 1.13,0 2.04,-0.875 2.04,-1.962 z m 0,-12 c 0,-1.086 -0.91,-1.961 -2.04,-1.961 h -4.08 c -1.13,0 -2.04,0.874 -2.04,1.961 v 3.923 c 0,1.087 0.91,1.962 2.04,1.962 h 4.08 c 1.13,0 2.04,-0.875 2.04,-1.962 z m 0,-12 c 0,-1.086 -0.91,-1.961 -2.04,-1.961 h -4.08 c -1.13,0 -2.04,0.874 -2.04,1.961 v 3.923 c 0,1.087 0.91,1.962 2.04,1.962 h 4.08 c 1.13,0 2.04,-0.875 2.04,-1.962 z m 0,-12 c 0,-1.086 -0.91,-1.961 -2.04,-1.961 h -4.08 c -1.13,0 -2.04,0.874 -2.04,1.961 v 3.923 c 0,1.087 0.91,1.962 2.04,1.962 h 4.08 c 1.13,0 2.04,-0.875 2.04,-1.962 z m 0,-11.999 c 0,-1.087 -0.91,-1.962 -2.04,-1.962 h -4.08 c -1.13,0 -2.04,0.875 -2.04,1.962 v 3.922 c 0,1.087 0.91,1.962 2.04,1.962 h 4.08 c 1.13,0 2.04,-0.875 2.04,-1.962 z m 0,-12 c 0,-1.087 -0.91,-1.962 -2.04,-1.962 h -4.08 c -1.13,0 -2.04,0.875 -2.04,1.962 v 3.922 c 0,1.087 0.91,1.961 2.04,1.961 h 4.08 c 1.13,0 2.04,-0.874 2.04,-1.961 z m 0,-12 c 0,-1.087 -0.91,-1.962 -2.04,-1.962 h -4.08 c -1.13,0 -2.04,0.875 -2.04,1.962 v 3.922 c 0,1.087 0.91,1.961 2.04,1.961 h 4.08 c 1.13,0 2.04,-0.874 2.04,-1.961 z m 0,-12 c 0,-1.087 -0.91,-1.962 -2.04,-1.962 h -4.08 c -1.13,0 -2.04,0.875 -2.04,1.962 v 3.922 c 0,1.087 0.91,1.961 2.04,1.961 h 4.08 c 1.13,0 2.04,-0.874 2.04,-1.961 z m 0,-12 c 0,-1.087 -0.91,-1.962 -2.04,-1.962 h -4.08 c -1.13,0 -2.04,0.875 -2.04,1.962 v 3.922 c 0,1.087 0.91,1.961 2.04,1.961 h 4.08 c 1.13,0 2.04,-0.874 2.04,-1.961 z m 0,-12 c 0,-1.087 -0.91,-1.962 -2.04,-1.962 h -4.08 c -1.13,0 -2.04,0.875 -2.04,1.962 v 3.922 c 0,1.087 0.91,1.961 2.04,1.961 h 4.08 c 1.13,0 2.04,-0.874 2.04,-1.961 z m 0,-11.847 C -85.8,0.875 -86.71,0 -87.84,0 h -4.08 c -1.13,0 -2.04,0.875 -2.04,1.962 v 3.923 c 0,1.087 0.91,1.962 2.04,1.962 h 4.08 c 1.13,0 2.04,-0.875 2.04,-1.962 z m 91.84,-6.53 v 160.805 c -1.353,1.225 -2.685,2.404 -4,3.548 v -1.977 c 0,-1.086 -0.91,-1.961 -2.04,-1.961 h -4.08 c -1.13,0 -2.04,0.874 -2.04,1.961 v 3.923 c 0,1.087 0.91,1.962 2.04,1.962 h 1.503 c -32.586,26.783 -54.144,26.809 -86.774,0 h 1.511 c 1.13,0 2.04,-0.875 2.04,-1.962 v -3.923 c 0,-1.086 -0.91,-1.961 -2.04,-1.961 h -4.08 c -1.13,0 -2.04,0.874 -2.04,1.961 v 1.985 c -1.315,-1.143 -2.646,-2.321 -4,-3.546 V -4.579 c 1.354,-1.227 2.685,-2.406 4,-3.551 v 2.015 c 0,1.087 0.91,1.962 2.04,1.962 h 4.08 c 1.13,0 2.04,-0.875 2.04,-1.962 v -3.923 c 0,-1.087 -0.91,-1.962 -2.04,-1.962 h -1.555 c 15.569,-12.821 28.596,-19.54 41.492,-20.153 h 3.902 c 12.898,0.617 25.917,7.342 41.467,20.153 H -4.08 c -1.13,0 -2.04,0.875 -2.04,1.962 v 3.923 c 0,1.087 0.91,1.962 2.04,1.962 H 0 c 1.13,0 2.04,-0.875 2.04,-1.962 v -2.006 c 1.315,1.145 2.647,2.325 4,3.553" /></g></g></g><g
       id="g44"><g
         clip-path="url(#clipPath50)"
         id="g46"><g
           id="g52"><g
             id="g54"><path
               id="path62"
               style="fill:url(#linearGradient60);stroke:none"
               d="m 98.456,172.048 c -3.546,0 -6.42,-2.661 -6.42,-5.944 v 0 -28.111 c 0,-3.283 2.874,-5.944 6.42,-5.944 v 0 h 59.159 c 3.546,0 6.421,2.661 6.421,5.944 v 0 28.111 c 0,3.283 -2.875,5.944 -6.421,5.944 v 0 z" /></g></g></g></g><g
       id="g64"><g
         clip-path="url(#clipPath70)"
         id="g66"><g
           id="g72"><g
             id="g74"><path
               id="path82"
               style="fill:url(#linearGradient80);stroke:none"
               d="m 98.456,216.049 c -3.546,0 -6.42,-2.662 -6.42,-5.945 v 0 -28.111 c 0,-3.283 2.874,-5.944 6.42,-5.944 v 0 h 59.159 c 3.546,0 6.421,2.661 6.421,5.944 v 0 28.111 c 0,3.283 -2.875,5.945 -6.421,5.945 v 0 z" /></g></g></g></g><g
       id="g84"><g
         clip-path="url(#clipPath90)"
         id="g86"><g
           id="g92"><g
             id="g94"><path
               id="path102"
               style="fill:url(#linearGradient100);stroke:none"
               d="m 98.456,84.049 c -3.546,0 -6.42,-2.662 -6.42,-5.945 v 0 -28.111 c 0,-3.283 2.874,-5.944 6.42,-5.944 v 0 h 59.159 c 3.546,0 6.421,2.661 6.421,5.944 v 0 28.111 c 0,3.283 -2.875,5.945 -6.421,5.945 v 0 z" /></g></g></g></g><g
       id="g104"><g
         clip-path="url(#clipPath110)"
         id="g106"><g
           id="g112"><g
             id="g114"><path
               id="path122"
               style="fill:url(#linearGradient120);stroke:none"
               d="m 98.456,128.048 c -3.546,0 -6.42,-2.661 -6.42,-5.944 v 0 -28.111 c 0,-3.283 2.874,-5.944 6.42,-5.944 v 0 h 59.159 c 3.546,0 6.421,2.661 6.421,5.944 v 0 28.111 c 0,3.283 -2.875,5.944 -6.421,5.944 v 0 z" /></g></g></g></g><g
       id="g124"><g
         clip-path="url(#clipPath130)"
         id="g126"><g
           id="g132"><g
             id="g134"><path
               id="path142"
               style="fill:url(#linearGradient140);stroke:none"
               d="m 98.456,40.049 c -3.439,0 -6.239,-2.507 -6.404,-5.654 v 0 c 26.253,-19.197 45.747,-19.178 71.968,0.006 v 0 c -0.169,3.144 -2.968,5.648 -6.405,5.648 v 0 z" /></g></g></g></g><g
       id="g144"><g
         clip-path="url(#clipPath150)"
         id="g146"><g
           id="g152"><g
             id="g154"><path
               id="path162"
               style="fill:url(#linearGradient160);stroke:none"
               d="m 93.254,222.519 c 1.166,-1.494 3.059,-2.47 5.202,-2.47 v 0 h 59.159 c 2.142,0 4.034,0.975 5.2,2.468 v 0 c -12.598,8.981 -23.688,13.475 -34.777,13.476 v 0 c -11.087,0.001 -22.174,-4.488 -34.784,-13.474" /></g></g></g></g></g></svg>