<?xml version="1.0" encoding="UTF-8" standalone="no"?>
<svg
   xmlns:dc="http://purl.org/dc/elements/1.1/"
   xmlns:cc="http://creativecommons.org/ns#"
   xmlns:rdf="http://www.w3.org/1999/02/22-rdf-syntax-ns#"
   xmlns:svg="http://www.w3.org/2000/svg"
   xmlns="http://www.w3.org/2000/svg"
   viewBox="0 0 287.99951 288.00116"
   height="288.00116"
   width="287.99951"
   xml:space="preserve"
   id="svg2"
   version="1.1"><metadata
     id="metadata8"><rdf:RDF><cc:Work
         rdf:about=""><dc:format>image/svg+xml</dc:format><dc:type
           rdf:resource="http://purl.org/dc/dcmitype/StillImage" /></cc:Work></rdf:RDF></metadata><defs
     id="defs6"><clipPath
       id="clipPath18"
       clipPathUnits="userSpaceOnUse"><path
         id="path16"
         d="M 61.51,194.554 C 6.21,139.254 6.116,116.919 61.512,61.522 v 0 C 116.915,6.119 139.221,6.198 194.543,61.52 v 0 c 55.327,55.328 55.223,77.815 0.003,133.036 v 0 c -27.618,27.617 -47.06,41.442 -66.509,41.444 v 0 C 108.598,236.003 89.153,222.197 61.51,194.554" /></clipPath><linearGradient
       id="linearGradient28"
       spreadMethod="pad"
       gradientTransform="matrix(133.03336,-133.03336,-133.03336,-133.03336,61.512279,194.55624)"
       gradientUnits="userSpaceOnUse"
       y2="0"
       x2="1"
       y1="0"
       x1="0"><stop
         id="stop24"
         offset="0"
         style="stop-opacity:1;stop-color:#e6e7e8" /><stop
         id="stop26"
         offset="1"
         style="stop-opacity:1;stop-color:#d1d3d4" /></linearGradient><clipPath
       id="clipPath38"
       clipPathUnits="userSpaceOnUse"><path
         id="path36"
         d="m 124.12,200.746 v -6.456 c -35.935,-2.034 -64,-31.046 -64,-66.29 v 0 c 0,-16.435 6.199,-32.208 17.456,-44.409 v 0 c 1.356,-1.471 3.298,-2.314 5.328,-2.314 v 0 c 1.953,0 3.793,0.746 5.182,2.101 v 0 l 6.572,6.407 c 2.807,2.738 2.979,7.125 0.394,9.991 v 0 C 88.002,107.582 84.12,117.607 84.12,128 v 0 c 0,10.842 4.177,21.187 11.762,29.126 v 0 c 7.428,7.776 17.435,12.556 28.238,13.502 v 0 -6.167 c 0,-4.001 3.29,-7.254 7.335,-7.254 v 0 c 1.128,0 2.218,0.253 3.243,0.751 v 0 L 171.91,176.1 c 2.523,1.231 4.09,3.723 4.09,6.503 v 0 c 0,2.782 -1.567,5.273 -4.09,6.502 v 0 l -37.212,18.143 c -1.025,0.499 -2.115,0.752 -3.243,0.752 v 0 c -4.045,0 -7.335,-3.255 -7.335,-7.254" /></clipPath><linearGradient
       id="linearGradient48"
       spreadMethod="pad"
       gradientTransform="matrix(-49.920918,49.920918,49.920918,49.920918,133.12363,128.25053)"
       gradientUnits="userSpaceOnUse"
       y2="0"
       x2="1"
       y1="0"
       x1="0"><stop
         id="stop44"
         offset="0"
         style="stop-opacity:1;stop-color:#e6e7e8" /><stop
         id="stop46"
         offset="1"
         style="stop-opacity:1;stop-color:#d1d3d4" /></linearGradient><clipPath
       id="clipPath58"
       clipPathUnits="userSpaceOnUse"><path
         id="path56"
         d="M 0,256 H 256 V 0 H 0 Z" /></clipPath><clipPath
       id="clipPath70"
       clipPathUnits="userSpaceOnUse"><path
         id="path68"
         d="m 168.035,172.623 -6.572,-6.408 c -2.807,-2.737 -2.98,-7.126 -0.394,-9.99 v 0 C 168.118,148.417 172,138.394 172,128 v 0 c 0,-10.842 -4.178,-21.186 -11.763,-29.126 v 0 C 152.809,91.099 142.803,86.318 132,85.372 v 0 6.167 c 0,4.001 -3.29,7.254 -7.335,7.255 v 0 c -1.128,0 -2.219,-0.253 -3.242,-0.752 v 0 L 84.21,79.899 C 81.688,78.67 80.12,76.178 80.12,73.397 v 0 c 0,-2.781 1.568,-5.273 4.09,-6.503 v 0 L 121.423,48.752 C 122.446,48.253 123.537,48 124.665,48 v 0 c 4.045,0 7.335,3.254 7.335,7.254 v 0 6.456 c 35.936,2.033 64,31.046 64,66.29 v 0 c 0,16.436 -6.199,32.207 -17.455,44.409 v 0 c -1.357,1.471 -3.299,2.314 -5.33,2.314 v 0 c -1.951,0 -3.791,-0.746 -5.18,-2.1" /></clipPath><linearGradient
       id="linearGradient80"
       spreadMethod="pad"
       gradientTransform="matrix(-49.920971,49.920971,49.920971,49.920971,172.91753,77.828545)"
       gradientUnits="userSpaceOnUse"
       y2="0"
       x2="1"
       y1="0"
       x1="0"><stop
         id="stop76"
         offset="0"
         style="stop-opacity:1;stop-color:#e6e7e8" /><stop
         id="stop78"
         offset="1"
         style="stop-opacity:1;stop-color:#d1d3d4" /></linearGradient><clipPath
       id="clipPath90"
       clipPathUnits="userSpaceOnUse"><path
         id="path88"
         d="M 0,256 H 256 V 0 H 0 Z" /></clipPath><clipPath
       id="clipPath102"
       clipPathUnits="userSpaceOnUse"><path
         id="path100"
         d="m 157.054,159.397 -48.083,-48.083 -11.315,11.313 c -1.51,1.512 -3.52,2.343 -5.656,2.343 v 0 c -2.137,0 -4.146,-0.831 -5.657,-2.343 v 0 C 84.832,121.117 84,119.108 84,116.97 v 0 c 0,-2.136 0.832,-4.146 2.343,-5.656 v 0 l 14.142,-14.142 2.829,-2.83 c 1.511,-1.51 3.52,-2.342 5.657,-2.342 v 0 c 2.137,0 4.146,0.832 5.657,2.342 v 0 l 53.739,53.741 c 3.119,3.12 3.119,8.195 0,11.314 v 0 c -1.511,1.511 -3.519,2.343 -5.656,2.343 v 0 c -2.137,0 -4.146,-0.832 -5.657,-2.343" /></clipPath><linearGradient
       id="linearGradient112"
       spreadMethod="pad"
       gradientTransform="matrix(-28.28426,28.28426,28.28426,28.28426,141.49748,121.2132)"
       gradientUnits="userSpaceOnUse"
       y2="0"
       x2="1"
       y1="0"
       x1="0"><stop
         id="stop108"
         offset="0"
         style="stop-opacity:1;stop-color:#e6e7e8" /><stop
         id="stop110"
         offset="1"
         style="stop-opacity:1;stop-color:#d1d3d4" /></linearGradient><clipPath
       id="clipPath122"
       clipPathUnits="userSpaceOnUse"><path
         id="path120"
         d="M 0,256 H 256 V 0 H 0 Z" /></clipPath></defs><g
     transform="matrix(1.3333333,0,0,-1.3333333,-26.666656,314.66666)"
     id="g10"><g
       id="g12"><g
         clip-path="url(#clipPath18)"
         id="g14"><g
           id="g20"><g
             id="g22"><path
               id="path30"
               style="fill:url(#linearGradient28);stroke:none"
               d="M 61.51,194.554 C 6.21,139.254 6.116,116.919 61.512,61.522 v 0 C 116.915,6.119 139.221,6.198 194.543,61.52 v 0 c 55.327,55.328 55.223,77.815 0.003,133.036 v 0 c -27.618,27.617 -47.06,41.442 -66.509,41.444 v 0 C 108.598,236.003 89.153,222.197 61.51,194.554" /></g></g></g></g><g
       id="g32"><g
         clip-path="url(#clipPath38)"
         id="g34"><g
           id="g40"><g
             id="g42"><path
               id="path50"
               style="fill:url(#linearGradient48);stroke:none"
               d="m 124.12,200.746 v -6.456 c -35.935,-2.034 -64,-31.046 -64,-66.29 v 0 c 0,-16.435 6.199,-32.208 17.456,-44.409 v 0 c 1.356,-1.471 3.298,-2.314 5.328,-2.314 v 0 c 1.953,0 3.793,0.746 5.182,2.101 v 0 l 6.572,6.407 c 2.807,2.738 2.979,7.125 0.394,9.991 v 0 C 88.002,107.582 84.12,117.607 84.12,128 v 0 c 0,10.842 4.177,21.187 11.762,29.126 v 0 c 7.428,7.776 17.435,12.556 28.238,13.502 v 0 -6.167 c 0,-4.001 3.29,-7.254 7.335,-7.254 v 0 c 1.128,0 2.218,0.253 3.243,0.751 v 0 L 171.91,176.1 c 2.523,1.231 4.09,3.723 4.09,6.503 v 0 c 0,2.782 -1.567,5.273 -4.09,6.502 v 0 l -37.212,18.143 c -1.025,0.499 -2.115,0.752 -3.243,0.752 v 0 c -4.045,0 -7.335,-3.255 -7.335,-7.254" /></g></g></g></g><g
       id="g52"><g
         clip-path="url(#clipPath58)"
         id="g54"><g
           transform="translate(170.0371,185.5103)"
           id="g60"><path
             id="path62"
             style="fill:#ffffff;fill-opacity:1;fill-rule:nonzero;stroke:none"
             d="m 0,0 -37.213,18.143 c -2.217,1.08 -4.824,-0.492 -4.824,-2.908 V 8.051 c 0,-1.759 -1.439,-3.149 -3.24,-3.236 -33.825,-1.646 -60.76,-28.908 -60.76,-62.325 0,-16.031 6.204,-30.65 16.395,-41.698 1.255,-1.36 3.452,-1.354 4.778,-0.061 l 6.572,6.408 c 1.236,1.205 1.373,3.165 0.217,4.445 -7.445,8.247 -11.962,19.065 -11.962,30.906 0,24.645 19.545,44.837 44.327,46.667 1.968,0.146 3.673,-1.32 3.673,-3.244 v -6.962 c 0,-2.417 2.607,-3.988 4.824,-2.908 L 0,-5.814 C 2.457,-4.616 2.457,-1.198 0,0" /></g></g></g><g
       id="g64"><g
         clip-path="url(#clipPath70)"
         id="g66"><g
           id="g72"><g
             id="g74"><path
               id="path82"
               style="fill:url(#linearGradient80);stroke:none"
               d="m 168.035,172.623 -6.572,-6.408 c -2.807,-2.737 -2.98,-7.126 -0.394,-9.99 v 0 C 168.118,148.417 172,138.394 172,128 v 0 c 0,-10.842 -4.178,-21.186 -11.763,-29.126 v 0 C 152.809,91.099 142.803,86.318 132,85.372 v 0 6.167 c 0,4.001 -3.29,7.254 -7.335,7.255 v 0 c -1.128,0 -2.219,-0.253 -3.242,-0.752 v 0 L 84.21,79.899 C 81.688,78.67 80.12,76.178 80.12,73.397 v 0 c 0,-2.781 1.568,-5.273 4.09,-6.503 v 0 L 121.423,48.752 C 122.446,48.253 123.537,48 124.665,48 v 0 c 4.045,0 7.335,3.254 7.335,7.254 v 0 6.456 c 35.936,2.033 64,31.046 64,66.29 v 0 c 0,16.436 -6.199,32.207 -17.455,44.409 v 0 c -1.357,1.471 -3.299,2.314 -5.33,2.314 v 0 c -1.951,0 -3.791,-0.746 -5.18,-2.1" /></g></g></g></g><g
       id="g84"><g
         clip-path="url(#clipPath90)"
         id="g86"><g
           transform="translate(170.8262,169.7583)"
           id="g92"><path
             id="path94"
             style="fill:#ffffff;fill-opacity:1;fill-rule:nonzero;stroke:none"
             d="m 0,0 -6.571,-6.407 c -1.237,-1.206 -1.373,-3.166 -0.217,-4.446 7.444,-8.246 11.962,-19.064 11.962,-30.905 0,-24.645 -19.545,-44.838 -44.327,-46.668 -1.968,-0.145 -3.673,1.32 -3.673,3.245 v 6.962 c 0,2.416 -2.608,3.987 -4.824,2.907 l -37.213,-18.143 c -2.457,-1.197 -2.457,-4.616 0,-5.813 l 37.213,-18.143 c 2.216,-1.081 4.824,0.491 4.824,2.907 v 7.184 c 0,1.759 1.439,3.149 3.24,3.237 33.824,1.645 60.76,28.907 60.76,62.325 0,16.03 -6.203,30.649 -16.396,41.697 C 3.524,1.299 1.327,1.293 0,0" /></g></g></g><g
       id="g96"><g
         clip-path="url(#clipPath102)"
         id="g98"><g
           id="g104"><g
             id="g106"><path
               id="path114"
               style="fill:url(#linearGradient112);stroke:none"
               d="m 157.054,159.397 -48.083,-48.083 -11.315,11.313 c -1.51,1.512 -3.52,2.343 -5.656,2.343 v 0 c -2.137,0 -4.146,-0.831 -5.657,-2.343 v 0 C 84.832,121.117 84,119.108 84,116.97 v 0 c 0,-2.136 0.832,-4.146 2.343,-5.656 v 0 l 14.142,-14.142 2.829,-2.83 c 1.511,-1.51 3.52,-2.342 5.657,-2.342 v 0 c 2.137,0 4.146,0.832 5.657,2.342 v 0 l 53.739,53.741 c 3.119,3.12 3.119,8.195 0,11.314 v 0 c -1.511,1.511 -3.519,2.343 -5.656,2.343 v 0 c -2.137,0 -4.146,-0.832 -5.657,-2.343" /></g></g></g></g><g
       id="g116"><g
         clip-path="url(#clipPath122)"
         id="g118"><g
           transform="translate(159.8818,156.5684)"
           id="g124"><path
             id="path126"
             style="fill:#ffffff;fill-opacity:1;fill-rule:nonzero;stroke:none"
             d="m 0,0 -50.911,-50.911 -14.142,14.141 c -1.563,1.563 -4.095,1.563 -5.657,0 -1.562,-1.561 -1.562,-4.094 0,-5.656 l 14.142,-14.142 2.828,-2.828 c 1.562,-1.563 4.095,-1.563 5.657,0 L 5.657,-5.657 C 7.22,-4.095 7.22,-1.562 5.657,0 4.095,1.562 1.562,1.562 0,0" /></g></g></g></g></svg>