<?xml version="1.0" encoding="UTF-8" standalone="no"?>
<svg
   xmlns:dc="http://purl.org/dc/elements/1.1/"
   xmlns:cc="http://creativecommons.org/ns#"
   xmlns:rdf="http://www.w3.org/1999/02/22-rdf-syntax-ns#"
   xmlns:svg="http://www.w3.org/2000/svg"
   xmlns="http://www.w3.org/2000/svg"
   viewBox="0 0 309.33331 213.33284"
   height="213.33284"
   width="309.33331"
   xml:space="preserve"
   id="svg2"
   version="1.1"><metadata
     id="metadata8"><rdf:RDF><cc:Work
         rdf:about=""><dc:format>image/svg+xml</dc:format><dc:type
           rdf:resource="http://purl.org/dc/dcmitype/StillImage" /></cc:Work></rdf:RDF></metadata><defs
     id="defs6"><clipPath
       id="clipPath18"
       clipPathUnits="userSpaceOnUse"><path
         id="path16"
         d="M 0,256 H 256 V 0 H 0 Z" /></clipPath><clipPath
       id="clipPath34"
       clipPathUnits="userSpaceOnUse"><path
         id="path32"
         d="M 128.11,204 H 128 127.889 92 C 52,204 44,184 44,184 v 0 C 44,184 12,100 12,80 v 0 C 12,60 32,48 36,48 v 0 c 4,0 16,12 28,28 v 0 c 12,16 24,16 24,16 v 0 h 40 40 c 0,0 12,0 24,-16 v 0 c 12,-16 24,-28 28,-28 v 0 c 4,0 24,12 24,32 v 0 c 0,20 -32,104 -32,104 v 0 c 0,0 -8,20 -48,20 v 0 z" /></clipPath><linearGradient
       id="linearGradient44"
       spreadMethod="pad"
       gradientTransform="matrix(159.34375,-159.34375,-159.34375,-159.34375,48.328125,190.01562)"
       gradientUnits="userSpaceOnUse"
       y2="0"
       x2="1"
       y1="0"
       x1="0"><stop
         id="stop40"
         offset="0"
         style="stop-opacity:1;stop-color:#e6e7e8" /><stop
         id="stop42"
         offset="1"
         style="stop-opacity:1;stop-color:#d1d3d4" /></linearGradient><clipPath
       id="clipPath54"
       clipPathUnits="userSpaceOnUse"><path
         id="path52"
         d="M 0,256 H 256 V 0 H 0 Z" /></clipPath><clipPath
       id="clipPath78"
       clipPathUnits="userSpaceOnUse"><path
         id="path76"
         d="m 141,129.006 c 0,-9.389 7.612,-17 17,-17 v 0 c 9.388,0 17,7.611 17,17 v 0 c 0,9.389 -7.612,17 -17,17 v 0 c -9.388,0 -17,-7.611 -17,-17" /></clipPath><linearGradient
       id="linearGradient88"
       spreadMethod="pad"
       gradientTransform="matrix(-24.041628,24.041628,24.041628,24.041628,170.02081,116.98496)"
       gradientUnits="userSpaceOnUse"
       y2="0"
       x2="1"
       y1="0"
       x1="0"><stop
         id="stop84"
         offset="0"
         style="stop-opacity:1;stop-color:#e6e7e8" /><stop
         id="stop86"
         offset="1"
         style="stop-opacity:1;stop-color:#d1d3d4" /></linearGradient><clipPath
       id="clipPath98"
       clipPathUnits="userSpaceOnUse"><path
         id="path96"
         d="m 144,129.006 c 0,-7.733 6.268,-14 14,-14 v 0 c 7.732,0 14,6.267 14,14 v 0 c 0,7.732 -6.268,13.999 -14,13.999 v 0 c -7.732,0 -14,-6.267 -14,-13.999" /></clipPath><linearGradient
       id="linearGradient108"
       spreadMethod="pad"
       gradientTransform="matrix(19.798986,-19.798986,-19.798986,-19.798986,148.10051,138.90527)"
       gradientUnits="userSpaceOnUse"
       y2="0"
       x2="1"
       y1="0"
       x1="0"><stop
         id="stop104"
         offset="0"
         style="stop-opacity:1;stop-color:#e6e7e8" /><stop
         id="stop106"
         offset="1"
         style="stop-opacity:1;stop-color:#d1d3d4" /></linearGradient><clipPath
       id="clipPath118"
       clipPathUnits="userSpaceOnUse"><path
         id="path116"
         d="M 0,256 H 256 V 0 H 0 Z" /></clipPath><clipPath
       id="clipPath138"
       clipPathUnits="userSpaceOnUse"><path
         id="path136"
         d="m 150,129.006 c 0,-4.418 3.582,-8 8,-8 v 0 c 4.418,0 8,3.582 8,8 v 0 c 0,4.418 -3.582,8 -8,8 v 0 c -4.418,0 -8,-3.582 -8,-8" /></clipPath><linearGradient
       id="linearGradient148"
       spreadMethod="pad"
       gradientTransform="matrix(-11.313706,11.313706,11.313706,11.313706,163.65686,123.34892)"
       gradientUnits="userSpaceOnUse"
       y2="0"
       x2="1"
       y1="0"
       x1="0"><stop
         id="stop144"
         offset="0"
         style="stop-opacity:1;stop-color:#e6e7e8" /><stop
         id="stop146"
         offset="1"
         style="stop-opacity:1;stop-color:#d1d3d4" /></linearGradient><clipPath
       id="clipPath158"
       clipPathUnits="userSpaceOnUse"><path
         id="path156"
         d="m 50,165.006 c 0,-9.39 7.612,-17 17,-17 v 0 c 9.388,0 17,7.61 17,17 v 0 c 0,9.389 -7.612,17 -17,17 v 0 c -9.388,0 -17,-7.611 -17,-17" /></clipPath><linearGradient
       id="linearGradient168"
       spreadMethod="pad"
       gradientTransform="matrix(-24.041628,24.041628,24.041628,24.041628,79.020813,152.98495)"
       gradientUnits="userSpaceOnUse"
       y2="0"
       x2="1"
       y1="0"
       x1="0"><stop
         id="stop164"
         offset="0"
         style="stop-opacity:1;stop-color:#e6e7e8" /><stop
         id="stop166"
         offset="1"
         style="stop-opacity:1;stop-color:#d1d3d4" /></linearGradient><clipPath
       id="clipPath178"
       clipPathUnits="userSpaceOnUse"><path
         id="path176"
         d="m 53,165.006 c 0,-7.732 6.268,-14 14,-14 v 0 c 7.732,0 14,6.268 14,14 v 0 c 0,7.732 -6.268,13.999 -14,13.999 v 0 c -7.732,0 -14,-6.267 -14,-13.999" /></clipPath><linearGradient
       id="linearGradient188"
       spreadMethod="pad"
       gradientTransform="matrix(19.798986,-19.798986,-19.798986,-19.798986,57.100506,174.90526)"
       gradientUnits="userSpaceOnUse"
       y2="0"
       x2="1"
       y1="0"
       x1="0"><stop
         id="stop184"
         offset="0"
         style="stop-opacity:1;stop-color:#e6e7e8" /><stop
         id="stop186"
         offset="1"
         style="stop-opacity:1;stop-color:#d1d3d4" /></linearGradient><clipPath
       id="clipPath198"
       clipPathUnits="userSpaceOnUse"><path
         id="path196"
         d="M 0,256 H 256 V 0 H 0 Z" /></clipPath><clipPath
       id="clipPath210"
       clipPathUnits="userSpaceOnUse"><path
         id="path208"
         d="m 76,126.006 h 40 c 0,11.045 -8.954,20 -20,20 v 0 c -11.046,0 -20,-8.955 -20,-20" /></clipPath><linearGradient
       id="linearGradient220"
       spreadMethod="pad"
       gradientTransform="matrix(24.142141,-24.142141,-24.142141,-24.142141,83.928932,142.21899)"
       gradientUnits="userSpaceOnUse"
       y2="0"
       x2="1"
       y1="0"
       x1="0"><stop
         id="stop216"
         offset="0"
         style="stop-opacity:1;stop-color:#e6e7e8" /><stop
         id="stop218"
         offset="1"
         style="stop-opacity:1;stop-color:#d1d3d4" /></linearGradient><clipPath
       id="clipPath230"
       clipPathUnits="userSpaceOnUse"><path
         id="path228"
         d="m 76,126.006 c 0,-11.046 8.954,-20 20,-20 v 0 c 11.046,0 20,8.954 20,20 v 0 z" /></clipPath><linearGradient
       id="linearGradient240"
       spreadMethod="pad"
       gradientTransform="matrix(24.142141,-24.142141,-24.142141,-24.142141,83.928932,133.93471)"
       gradientUnits="userSpaceOnUse"
       y2="0"
       x2="1"
       y1="0"
       x1="0"><stop
         id="stop236"
         offset="0"
         style="stop-opacity:1;stop-color:#e6e7e8" /><stop
         id="stop238"
         offset="1"
         style="stop-opacity:1;stop-color:#d1d3d4" /></linearGradient><clipPath
       id="clipPath250"
       clipPathUnits="userSpaceOnUse"><path
         id="path248"
         d="m 59,165.006 c 0,-4.419 3.581,-8 8,-8 v 0 c 4.419,0 8,3.581 8,8 v 0 c 0,4.418 -3.581,8 -8,8 v 0 c -4.419,0 -8,-3.582 -8,-8" /></clipPath><linearGradient
       id="linearGradient260"
       spreadMethod="pad"
       gradientTransform="matrix(-11.313706,11.313706,11.313706,11.313706,72.656853,159.34891)"
       gradientUnits="userSpaceOnUse"
       y2="0"
       x2="1"
       y1="0"
       x1="0"><stop
         id="stop256"
         offset="0"
         style="stop-opacity:1;stop-color:#e6e7e8" /><stop
         id="stop258"
         offset="1"
         style="stop-opacity:1;stop-color:#d1d3d4" /></linearGradient><clipPath
       id="clipPath270"
       clipPathUnits="userSpaceOnUse"><path
         id="path268"
         d="M 0,256 H 256 V 0 H 0 Z" /></clipPath><clipPath
       id="clipPath302"
       clipPathUnits="userSpaceOnUse"><path
         id="path300"
         d="m 91,121.006 h 10 v 10 H 91 Z" /></clipPath><linearGradient
       id="linearGradient312"
       spreadMethod="pad"
       gradientTransform="matrix(9.9999981,-9.9999981,-9.9999981,-9.9999981,91,131.00577)"
       gradientUnits="userSpaceOnUse"
       y2="0"
       x2="1"
       y1="0"
       x1="0"><stop
         id="stop308"
         offset="0"
         style="stop-opacity:1;stop-color:#e6e7e8" /><stop
         id="stop310"
         offset="1"
         style="stop-opacity:1;stop-color:#d1d3d4" /></linearGradient><clipPath
       id="clipPath322"
       clipPathUnits="userSpaceOnUse"><path
         id="path320"
         d="m 76,126.006 c 0,-11.046 8.954,-20 20,-20 v 0 c 11.046,0 20,8.954 20,20 v 0 c 0,11.045 -8.954,20 -20,20 v 0 c -11.046,0 -20,-8.955 -20,-20 m 2,0 c 0,9.926 8.075,18 18,18 v 0 c 9.926,0 18,-8.074 18,-18 v 0 c 0,-9.926 -8.074,-18 -18,-18 v 0 c -9.925,0 -18,8.074 -18,18" /></clipPath><linearGradient
       id="linearGradient332"
       spreadMethod="pad"
       gradientTransform="matrix(-28.284265,28.284265,28.284265,28.284265,110.14214,111.86364)"
       gradientUnits="userSpaceOnUse"
       y2="0"
       x2="1"
       y1="0"
       x1="0"><stop
         id="stop328"
         offset="0"
         style="stop-opacity:1;stop-color:#e6e7e8" /><stop
         id="stop330"
         offset="1"
         style="stop-opacity:1;stop-color:#d1d3d4" /></linearGradient></defs><g
     transform="matrix(1.3333333,0,0,-1.3333333,-16,277.33283)"
     id="g10"><g
       id="g12"><g
         clip-path="url(#clipPath18)"
         id="g14"><g
           transform="translate(89.1846,206.8262)"
           id="g20"><path
             id="path22"
             style="fill:#999999;fill-opacity:1;fill-rule:nonzero;stroke:none"
             d="m 0,0 2.815,-2.817 -44,-16.009 c 0,0 0,19.448 38.323,19.999 C -1.791,1.189 -0.758,0.758 0,0" /></g><g
           transform="translate(166.8154,206.8262)"
           id="g24"><path
             id="path26"
             style="fill:#999999;fill-opacity:1;fill-rule:nonzero;stroke:none"
             d="m 0,0 -2.815,-2.817 44,-16.009 c 0,0 0,19.448 -38.323,19.999 C 1.791,1.189 0.758,0.758 0,0" /></g></g></g><g
       id="g28"><g
         clip-path="url(#clipPath34)"
         id="g30"><g
           id="g36"><g
             id="g38"><path
               id="path46"
               style="fill:url(#linearGradient44);stroke:none"
               d="M 128.11,204 H 128 127.889 92 C 52,204 44,184 44,184 v 0 C 44,184 12,100 12,80 v 0 C 12,60 32,48 36,48 v 0 c 4,0 16,12 28,28 v 0 c 12,16 24,16 24,16 v 0 h 40 40 c 0,0 12,0 24,-16 v 0 c 12,-16 24,-28 28,-28 v 0 c 4,0 24,12 24,32 v 0 c 0,20 -32,104 -32,104 v 0 c 0,0 -8,20 -48,20 v 0 z" /></g></g></g></g><g
       id="g48"><g
         clip-path="url(#clipPath54)"
         id="g50"><g
           transform="translate(106,165.0059)"
           id="g56"><path
             id="path58"
             style="fill:#999999;fill-opacity:1;fill-rule:nonzero;stroke:none"
             d="M 0,0 C 0,2.761 2.239,5 5,5 7.761,5 10,2.761 10,0 10,-2.762 7.761,-5 5,-5 2.239,-5 0,-2.762 0,0" /></g><g
           transform="translate(140,165.0059)"
           id="g60"><path
             id="path62"
             style="fill:#999999;fill-opacity:1;fill-rule:nonzero;stroke:none"
             d="M 0,0 C 0,2.761 2.238,5 5,5 7.762,5 10,2.761 10,0 10,-2.762 7.762,-5 5,-5 2.238,-5 0,-2.762 0,0" /></g><g
           transform="translate(180,164.0059)"
           id="g64"><path
             id="path66"
             style="fill:#999999;fill-opacity:1;fill-rule:nonzero;stroke:none"
             d="m 0,0 c 0,-4.418 -3.582,-8 -8,-8 -4.418,0 -8,3.582 -8,8 0,4.418 3.582,8 8,8 4.418,0 8,-3.582 8,-8" /></g><g
           transform="translate(196,180.0059)"
           id="g68"><path
             id="path70"
             style="fill:#999999;fill-opacity:1;fill-rule:nonzero;stroke:none"
             d="m 0,0 c 0,-4.418 -3.582,-8 -8,-8 -4.418,0 -8,3.582 -8,8 0,4.418 3.582,8 8,8 4.418,0 8,-3.582 8,-8" /></g></g></g><g
       id="g72"><g
         clip-path="url(#clipPath78)"
         id="g74"><g
           id="g80"><g
             id="g82"><path
               id="path90"
               style="fill:url(#linearGradient88);stroke:none"
               d="m 141,129.006 c 0,-9.389 7.612,-17 17,-17 v 0 c 9.388,0 17,7.611 17,17 v 0 c 0,9.389 -7.612,17 -17,17 v 0 c -9.388,0 -17,-7.611 -17,-17" /></g></g></g></g><g
       id="g92"><g
         clip-path="url(#clipPath98)"
         id="g94"><g
           id="g100"><g
             id="g102"><path
               id="path110"
               style="fill:url(#linearGradient108);stroke:none"
               d="m 144,129.006 c 0,-7.733 6.268,-14 14,-14 v 0 c 7.732,0 14,6.267 14,14 v 0 c 0,7.732 -6.268,13.999 -14,13.999 v 0 c -7.732,0 -14,-6.267 -14,-13.999" /></g></g></g></g><g
       id="g112"><g
         clip-path="url(#clipPath118)"
         id="g114"><g
           transform="translate(196,148.0059)"
           id="g120"><path
             id="path122"
             style="fill:#999999;fill-opacity:1;fill-rule:nonzero;stroke:none"
             d="m 0,0 c 0,-4.418 -3.582,-8 -8,-8 -4.418,0 -8,3.582 -8,8 0,4.418 3.582,8 8,8 4.418,0 8,-3.582 8,-8" /></g><g
           transform="translate(212,164.0059)"
           id="g124"><path
             id="path126"
             style="fill:#999999;fill-opacity:1;fill-rule:nonzero;stroke:none"
             d="m 0,0 c 0,-4.418 -3.582,-8 -8,-8 -4.418,0 -8,3.582 -8,8 0,4.418 3.582,8 8,8 4.418,0 8,-3.582 8,-8" /></g><g
           transform="translate(170,129.0059)"
           id="g128"><path
             id="path130"
             style="fill:#999999;fill-opacity:1;fill-rule:nonzero;stroke:none"
             d="m 0,0 c 0,-6.628 -5.373,-12 -12,-12 -6.627,0 -12,5.372 -12,12 0,6.627 5.373,12 12,12 C -5.373,12 0,6.627 0,0" /></g></g></g><g
       id="g132"><g
         clip-path="url(#clipPath138)"
         id="g134"><g
           id="g140"><g
             id="g142"><path
               id="path150"
               style="fill:url(#linearGradient148);stroke:none"
               d="m 150,129.006 c 0,-4.418 3.582,-8 8,-8 v 0 c 4.418,0 8,3.582 8,8 v 0 c 0,4.418 -3.582,8 -8,8 v 0 c -4.418,0 -8,-3.582 -8,-8" /></g></g></g></g><g
       id="g152"><g
         clip-path="url(#clipPath158)"
         id="g154"><g
           id="g160"><g
             id="g162"><path
               id="path170"
               style="fill:url(#linearGradient168);stroke:none"
               d="m 50,165.006 c 0,-9.39 7.612,-17 17,-17 v 0 c 9.388,0 17,7.61 17,17 v 0 c 0,9.389 -7.612,17 -17,17 v 0 c -9.388,0 -17,-7.611 -17,-17" /></g></g></g></g><g
       id="g172"><g
         clip-path="url(#clipPath178)"
         id="g174"><g
           id="g180"><g
             id="g182"><path
               id="path190"
               style="fill:url(#linearGradient188);stroke:none"
               d="m 53,165.006 c 0,-7.732 6.268,-14 14,-14 v 0 c 7.732,0 14,6.268 14,14 v 0 c 0,7.732 -6.268,13.999 -14,13.999 v 0 c -7.732,0 -14,-6.267 -14,-13.999" /></g></g></g></g><g
       id="g192"><g
         clip-path="url(#clipPath198)"
         id="g194"><g
           transform="translate(79,165.0059)"
           id="g200"><path
             id="path202"
             style="fill:#999999;fill-opacity:1;fill-rule:nonzero;stroke:none"
             d="m 0,0 c 0,-6.627 -5.373,-12 -12,-12 -6.627,0 -12,5.373 -12,12 0,6.627 5.373,12 12,12 C -5.373,12 0,6.627 0,0" /></g></g></g><g
       id="g204"><g
         clip-path="url(#clipPath210)"
         id="g206"><g
           id="g212"><g
             id="g214"><path
               id="path222"
               style="fill:url(#linearGradient220);stroke:none"
               d="m 76,126.006 h 40 c 0,11.045 -8.954,20 -20,20 v 0 c -11.046,0 -20,-8.955 -20,-20" /></g></g></g></g><g
       id="g224"><g
         clip-path="url(#clipPath230)"
         id="g226"><g
           id="g232"><g
             id="g234"><path
               id="path242"
               style="fill:url(#linearGradient240);stroke:none"
               d="m 76,126.006 c 0,-11.046 8.954,-20 20,-20 v 0 c 11.046,0 20,8.954 20,20 v 0 z" /></g></g></g></g><g
       id="g244"><g
         clip-path="url(#clipPath250)"
         id="g246"><g
           id="g252"><g
             id="g254"><path
               id="path262"
               style="fill:url(#linearGradient260);stroke:none"
               d="m 59,165.006 c 0,-4.419 3.581,-8 8,-8 v 0 c 4.419,0 8,3.581 8,8 v 0 c 0,4.418 -3.581,8 -8,8 v 0 c -4.419,0 -8,-3.582 -8,-8" /></g></g></g></g><g
       id="g264"><g
         clip-path="url(#clipPath270)"
         id="g266"><g
           transform="translate(136,188.0059)"
           id="g272"><path
             id="path274"
             style="fill:#ffffff;fill-opacity:1;fill-rule:nonzero;stroke:none"
             d="m 0,0 c 0,-4.418 -3.582,-8 -8,-8 -4.418,0 -8,3.582 -8,8 0,4.418 3.582,8 8,8 4.418,0 8,-3.582 8,-8" /></g><g
           transform="translate(130,148.0059)"
           id="g276"><path
             id="path278"
             style="fill:#999999;fill-opacity:1;fill-rule:nonzero;stroke:none"
             d="m 0,0 h -4 c -2.209,0 -4,1.791 -4,4 0,2.209 1.791,4 4,4 H 0 C 2.209,8 4,6.209 4,4 4,1.791 2.209,0 0,0" /></g><g
           transform="translate(91,109.0059)"
           id="g280"><path
             id="path282"
             style="fill:#999999;fill-opacity:1;fill-rule:nonzero;stroke:none"
             d="m 0,0 c 0,-0.553 0.448,-1 1,-1 l 2.06,-0.515 c 1.273,-0.318 2.607,-0.318 3.88,0 L 9,-1 c 0.552,0 1,0.447 1,1 V 12 H 0 Z" /></g><g
           transform="translate(79,131.0059)"
           id="g284"><path
             id="path286"
             style="fill:#999999;fill-opacity:1;fill-rule:nonzero;stroke:none"
             d="m 0,0 c -0.552,0 -1,-0.448 -1,-1 l -0.515,-2.06 c -0.318,-1.274 -0.318,-2.606 0,-3.88 L -1,-9 c 0,-0.553 0.448,-1 1,-1 H 12 V 0 Z" /></g><g
           transform="translate(114.5151,127.9463)"
           id="g288"><path
             id="path290"
             style="fill:#999999;fill-opacity:1;fill-rule:nonzero;stroke:none"
             d="m 0,0 -0.515,2.06 c 0,0.552 -0.448,1 -1,1 h -12 v -10 h 12 c 0.552,0 1,0.447 1,1 L 0,-3.881 C 0.318,-2.606 0.318,-1.274 0,0" /></g><g
           transform="translate(101,143.0059)"
           id="g292"><path
             id="path294"
             style="fill:#999999;fill-opacity:1;fill-rule:nonzero;stroke:none"
             d="m 0,0 c 0,0.552 -0.448,1 -1,1 l -2.06,0.515 c -1.273,0.318 -2.607,0.318 -3.88,0 L -9,1 C -9.552,1 -10,0.552 -10,0 V -12 H 0 Z" /></g></g></g><g
       id="g296"><g
         clip-path="url(#clipPath302)"
         id="g298"><g
           id="g304"><g
             id="g306"><path
               id="path314"
               style="fill:url(#linearGradient312);stroke:none"
               d="m 91,121.006 h 10 v 10 H 91 Z" /></g></g></g></g><g
       id="g316"><g
         clip-path="url(#clipPath322)"
         id="g318"><g
           id="g324"><g
             id="g326"><path
               id="path334"
               style="fill:url(#linearGradient332);stroke:none"
               d="m 76,126.006 c 0,-11.046 8.954,-20 20,-20 v 0 c 11.046,0 20,8.954 20,20 v 0 c 0,11.045 -8.954,20 -20,20 v 0 c -11.046,0 -20,-8.955 -20,-20 m 2,0 c 0,9.926 8.075,18 18,18 v 0 c 9.926,0 18,-8.074 18,-18 v 0 c 0,-9.926 -8.074,-18 -18,-18 v 0 c -9.925,0 -18,8.074 -18,18" /></g></g></g></g></g></svg>