<?xml version="1.0" encoding="UTF-8" standalone="no"?>
<svg
   xmlns:dc="http://purl.org/dc/elements/1.1/"
   xmlns:cc="http://creativecommons.org/ns#"
   xmlns:rdf="http://www.w3.org/1999/02/22-rdf-syntax-ns#"
   xmlns:svg="http://www.w3.org/2000/svg"
   xmlns="http://www.w3.org/2000/svg"
   viewBox="0 0 309.33331 309.33331"
   height="309.33331"
   width="309.33331"
   xml:space="preserve"
   id="svg2"
   version="1.1"><metadata
     id="metadata8"><rdf:RDF><cc:Work
         rdf:about=""><dc:format>image/svg+xml</dc:format><dc:type
           rdf:resource="http://purl.org/dc/dcmitype/StillImage" /></cc:Work></rdf:RDF></metadata><defs
     id="defs6"><clipPath
       id="clipPath18"
       clipPathUnits="userSpaceOnUse"><path
         id="path16"
         d="M 12,128 C 12,63.934 63.949,12 128,12 v 0 c 64.07,0 116,51.934 116,116 v 0 c 0,64.066 -51.93,116 -116,116 v 0 C 63.949,244 12,192.066 12,128 m 72.5,0 c 0,23.988 19.512,43.505 43.5,43.505 v 0 c 23.992,0 43.505,-19.517 43.505,-43.505 v 0 c 0,-23.987 -19.513,-43.505 -43.505,-43.505 v 0 c -23.988,0 -43.5,19.518 -43.5,43.505" /></clipPath><linearGradient
       id="linearGradient28"
       spreadMethod="pad"
       gradientTransform="matrix(164.04756,-164.04756,-164.04756,-164.04756,45.979866,210.02379)"
       gradientUnits="userSpaceOnUse"
       y2="0"
       x2="1"
       y1="0"
       x1="0"><stop
         id="stop24"
         offset="0"
         style="stop-opacity:1;stop-color:#e6e7e8" /><stop
         id="stop26"
         offset="1"
         style="stop-opacity:1;stop-color:#d1d3d4" /></linearGradient><clipPath
       id="clipPath38"
       clipPathUnits="userSpaceOnUse"><path
         id="path36"
         d="m 82,128 c 0,-25.349 20.659,-46 45.996,-46 v 0 C 153.36,82 174,102.651 174,128 v 0 c 0,25.349 -20.64,46 -46.004,46 v 0 C 102.659,174 82,153.349 82,128 m 32.221,0 c 0,7.599 6.177,13.776 13.777,13.776 v 0 c 7.596,0 13.786,-6.177 13.786,-13.776 v 0 c 0,-7.604 -6.19,-13.785 -13.786,-13.785 v 0 c -7.6,0 -13.777,6.181 -13.777,13.785" /></clipPath><linearGradient
       id="linearGradient48"
       spreadMethod="pad"
       gradientTransform="matrix(-65.012405,65.012405,65.012405,65.012405,160.50946,95.493797)"
       gradientUnits="userSpaceOnUse"
       y2="0"
       x2="1"
       y1="0"
       x1="0"><stop
         id="stop44"
         offset="0"
         style="stop-opacity:1;stop-color:#e6e7e8" /><stop
         id="stop46"
         offset="1"
         style="stop-opacity:1;stop-color:#d1d3d4" /></linearGradient><clipPath
       id="clipPath58"
       clipPathUnits="userSpaceOnUse"><path
         id="path56"
         d="M 0,256 H 256 V 0 H 0 Z" /></clipPath></defs><g
     transform="matrix(1.3333333,0,0,-1.3333333,-16,325.33333)"
     id="g10"><g
       id="g12"><g
         clip-path="url(#clipPath18)"
         id="g14"><g
           id="g20"><g
             id="g22"><path
               id="path30"
               style="fill:url(#linearGradient28);stroke:none"
               d="M 12,128 C 12,63.934 63.949,12 128,12 v 0 c 64.07,0 116,51.934 116,116 v 0 c 0,64.066 -51.93,116 -116,116 v 0 C 63.949,244 12,192.066 12,128 m 72.5,0 c 0,23.988 19.512,43.505 43.5,43.505 v 0 c 23.992,0 43.505,-19.517 43.505,-43.505 v 0 c 0,-23.987 -19.513,-43.505 -43.505,-43.505 v 0 c -23.988,0 -43.5,19.518 -43.5,43.505" /></g></g></g></g><g
       id="g32"><g
         clip-path="url(#clipPath38)"
         id="g34"><g
           id="g40"><g
             id="g42"><path
               id="path50"
               style="fill:url(#linearGradient48);stroke:none"
               d="m 82,128 c 0,-25.349 20.659,-46 45.996,-46 v 0 C 153.36,82 174,102.651 174,128 v 0 c 0,25.349 -20.64,46 -46.004,46 v 0 C 102.659,174 82,153.349 82,128 m 32.221,0 c 0,7.599 6.177,13.776 13.777,13.776 v 0 c 7.596,0 13.786,-6.177 13.786,-13.776 v 0 c 0,-7.604 -6.19,-13.785 -13.786,-13.785 v 0 c -7.6,0 -13.777,6.181 -13.777,13.785" /></g></g></g></g><g
       id="g52"><g
         clip-path="url(#clipPath58)"
         id="g54"><g
           transform="translate(127.998,244)"
           id="g60"><path
             id="path62"
             style="fill:#ffffff;fill-opacity:1;fill-rule:nonzero;stroke:none"
             d="M 0,0 C -43.746,0 -81.841,-24.229 -101.602,-60 H 101.605 C 81.85,-24.229 43.76,0 0,0" /></g><g
           transform="translate(31.2656,192)"
           id="g64"><path
             id="path66"
             style="fill:#999999;fill-opacity:1;fill-rule:nonzero;stroke:none"
             d="m 0,0 c -1.722,-2.598 -3.355,-5.261 -4.869,-8 h 203.207 c -1.513,2.739 -3.147,5.402 -4.868,8 z" /></g></g></g></g></svg>