<?xml version="1.0" encoding="UTF-8" standalone="no"?>
<svg
   xmlns:dc="http://purl.org/dc/elements/1.1/"
   xmlns:cc="http://creativecommons.org/ns#"
   xmlns:rdf="http://www.w3.org/1999/02/22-rdf-syntax-ns#"
   xmlns:svg="http://www.w3.org/2000/svg"
   xmlns="http://www.w3.org/2000/svg"
   viewBox="0 0 309.33331 205.33333"
   height="205.33333"
   width="309.33331"
   xml:space="preserve"
   id="svg2"
   version="1.1"><metadata
     id="metadata8"><rdf:RDF><cc:Work
         rdf:about=""><dc:format>image/svg+xml</dc:format><dc:type
           rdf:resource="http://purl.org/dc/dcmitype/StillImage" /></cc:Work></rdf:RDF></metadata><defs
     id="defs6"><clipPath
       id="clipPath18"
       clipPathUnits="userSpaceOnUse"><path
         id="path16"
         d="M 18.874,205 C 15.078,205 12,201.756 12,197.753 v 0 V 188 h 4 v -4 h -4 v -4 h 4 v -4 h -4 v -4 h 4 v -4 h -4 v -4 h 4 v -4 H 12 V 51 h 232 v 146.753 c 0,4.003 -3.077,7.247 -6.874,7.247 v 0 z M 28,176 c 0,2.209 1.791,4 4,4 v 0 c 2.209,0 4,-1.791 4,-4 v 0 c 0,-2.209 -1.791,-4 -4,-4 v 0 c -2.209,0 -4,1.791 -4,4 M 24,88 c 0,4.418 3.581,8 8,8 v 0 c 4.419,0 8,-3.582 8,-8 v 0 c 0,-4.418 -3.581,-8 -8,-8 v 0 c -4.419,0 -8,3.582 -8,8" /></clipPath><linearGradient
       id="linearGradient28"
       spreadMethod="pad"
       gradientTransform="matrix(190.93375,-190.93375,-190.93375,-190.93375,32.533173,221.40065)"
       gradientUnits="userSpaceOnUse"
       y2="0"
       x2="1"
       y1="0"
       x1="0"><stop
         id="stop24"
         offset="0"
         style="stop-opacity:1;stop-color:#e6e7e8" /><stop
         id="stop26"
         offset="1"
         style="stop-opacity:1;stop-color:#d1d3d4" /></linearGradient><clipPath
       id="clipPath38"
       clipPathUnits="userSpaceOnUse"><path
         id="path36"
         d="M 0,256 H 256 V 0 H 0 Z" /></clipPath></defs><g
     transform="matrix(1.3333333,0,0,-1.3333333,-16,273.33333)"
     id="g10"><g
       id="g12"><g
         clip-path="url(#clipPath18)"
         id="g14"><g
           id="g20"><g
             id="g22"><path
               id="path30"
               style="fill:url(#linearGradient28);stroke:none"
               d="M 18.874,205 C 15.078,205 12,201.756 12,197.753 v 0 V 188 h 4 v -4 h -4 v -4 h 4 v -4 h -4 v -4 h 4 v -4 h -4 v -4 h 4 v -4 H 12 V 51 h 232 v 146.753 c 0,4.003 -3.077,7.247 -6.874,7.247 v 0 z M 28,176 c 0,2.209 1.791,4 4,4 v 0 c 2.209,0 4,-1.791 4,-4 v 0 c 0,-2.209 -1.791,-4 -4,-4 v 0 c -2.209,0 -4,1.791 -4,4 M 24,88 c 0,4.418 3.581,8 8,8 v 0 c 4.419,0 8,-3.582 8,-8 v 0 c 0,-4.418 -3.581,-8 -8,-8 v 0 c -4.419,0 -8,3.582 -8,8" /></g></g></g></g><g
       id="g32"><g
         clip-path="url(#clipPath38)"
         id="g34"><g
           transform="translate(231,68)"
           id="g40"><path
             id="path42"
             style="fill:#ffffff;fill-opacity:1;fill-rule:nonzero;stroke:none"
             d="m 0,0 h -186 c -0.552,0 -1,0.448 -1,1 V 132 H 1 V 1 C 1,0.448 0.552,0 0,0" /></g></g></g></g></svg>