<?xml version="1.0" encoding="UTF-8" standalone="no"?>
<svg
   xmlns:dc="http://purl.org/dc/elements/1.1/"
   xmlns:cc="http://creativecommons.org/ns#"
   xmlns:rdf="http://www.w3.org/1999/02/22-rdf-syntax-ns#"
   xmlns:svg="http://www.w3.org/2000/svg"
   xmlns="http://www.w3.org/2000/svg"
   viewBox="0 0 309.33319 309.33532"
   height="309.33533"
   width="309.33319"
   xml:space="preserve"
   id="svg2"
   version="1.1"><metadata
     id="metadata8"><rdf:RDF><cc:Work
         rdf:about=""><dc:format>image/svg+xml</dc:format><dc:type
           rdf:resource="http://purl.org/dc/dcmitype/StillImage" /></cc:Work></rdf:RDF></metadata><defs
     id="defs6"><clipPath
       id="clipPath18"
       clipPathUnits="userSpaceOnUse"><path
         id="path16"
         d="M 56.549,199.436 C -2.848,140.038 -2.947,116.05 56.551,56.55 v 0 C 116.06,-2.958 140.017,-2.873 199.436,56.547 v 0 c 59.426,59.426 59.315,83.579 0.003,142.89 v 0 c -29.663,29.663 -50.545,44.512 -71.434,44.515 v 0 C 107.126,243.954 86.24,229.126 56.549,199.436" /></clipPath><linearGradient
       id="linearGradient28"
       spreadMethod="pad"
       gradientTransform="matrix(142.88766,-142.88766,-142.88766,-142.88766,56.551559,199.43755)"
       gradientUnits="userSpaceOnUse"
       y2="0"
       x2="1"
       y1="0"
       x1="0"><stop
         id="stop24"
         offset="0"
         style="stop-opacity:1;stop-color:#e6e7e8" /><stop
         id="stop26"
         offset="1"
         style="stop-opacity:1;stop-color:#d1d3d4" /></linearGradient><clipPath
       id="clipPath38"
       clipPathUnits="userSpaceOnUse"><path
         id="path36"
         d="M 0,256 H 256 V 0 H 0 Z" /></clipPath></defs><g
     transform="matrix(1.3333333,0,0,-1.3333333,-15.95249,325.26933)"
     id="g10"><g
       id="g12"><g
         clip-path="url(#clipPath18)"
         id="g14"><g
           id="g20"><g
             id="g22"><path
               id="path30"
               style="fill:url(#linearGradient28);stroke:none"
               d="M 56.549,199.436 C -2.848,140.038 -2.947,116.05 56.551,56.55 v 0 C 116.06,-2.958 140.017,-2.873 199.436,56.547 v 0 c 59.426,59.426 59.315,83.579 0.003,142.89 v 0 c -29.663,29.663 -50.545,44.512 -71.434,44.515 v 0 C 107.126,243.954 86.24,229.126 56.549,199.436" /></g></g></g></g><g
       id="g32"><g
         clip-path="url(#clipPath38)"
         id="g34"><g
           transform="translate(185.9912,192)"
           id="g40"><path
             id="path42"
             style="fill:#999999;fill-opacity:1;fill-rule:nonzero;stroke:none"
             d="m 0,0 c 0,-7.72 0.022,-15.124 -0.004,-22.526 -0.075,-21.055 -0.545,-42.116 -0.129,-63.161 0.3,-15.203 -8.957,-22.473 -20.626,-24.967 -4.365,-0.933 -9.181,-0.904 -13.605,-0.18 -9.047,1.481 -13.893,11.177 -10.36,19.662 5.718,13.733 21.993,20.152 35.599,14.04 0.907,-0.407 1.812,-0.824 3.361,-1.531 v 59.482 c -3.926,-0.851 -8.18,-1.756 -12.425,-2.697 -16.639,-3.693 -33.264,-7.443 -49.922,-11.045 -2.412,-0.522 -3.157,-1.445 -3.168,-3.962 -0.1,-21.053 -0.326,-42.105 -0.61,-63.156 -0.226,-16.767 -13.544,-29.179 -29.744,-27.863 -10.222,0.829 -16.52,9.934 -13.672,19.767 4.267,14.736 21.235,21.73 34.788,14.341 0.858,-0.468 1.712,-0.945 3.195,-1.764 0,4.388 -0.046,8.289 0.008,12.188 0.29,21.142 0.622,42.283 0.876,63.425 0.021,1.716 0.412,2.589 2.25,3.009 24.297,5.541 48.576,11.161 72.86,16.757 C -0.988,-0.103 -0.634,-0.084 0,0" /></g></g></g></g></svg>