<?xml version="1.0" encoding="UTF-8" standalone="no"?>
<svg
   xmlns:dc="http://purl.org/dc/elements/1.1/"
   xmlns:cc="http://creativecommons.org/ns#"
   xmlns:rdf="http://www.w3.org/1999/02/22-rdf-syntax-ns#"
   xmlns:svg="http://www.w3.org/2000/svg"
   xmlns="http://www.w3.org/2000/svg"
   viewBox="0 0 309.33331 138.66666"
   height="138.66666"
   width="309.33331"
   xml:space="preserve"
   id="svg2"
   version="1.1"><metadata
     id="metadata8"><rdf:RDF><cc:Work
         rdf:about=""><dc:format>image/svg+xml</dc:format><dc:type
           rdf:resource="http://purl.org/dc/dcmitype/StillImage" /></cc:Work></rdf:RDF></metadata><defs
     id="defs6"><clipPath
       id="clipPath18"
       clipPathUnits="userSpaceOnUse"><path
         id="path16"
         d="m 95.371,176 c -0.299,0 -0.597,-0.021 -0.893,-0.064 v 0 L 17.461,164.993 C 14.328,164.548 12,161.866 12,158.701 v 0 -76.346 C 12,78.845 14.846,76 18.355,76 v 0 h 219.29 c 3.51,0 6.355,2.845 6.355,6.355 v 0 76.337 c 0,3.169 -2.333,5.853 -5.47,6.294 v 0 l -77.918,10.952 c -0.293,0.042 -0.588,0.062 -0.885,0.062 v 0 z" /></clipPath><linearGradient
       id="linearGradient28"
       spreadMethod="pad"
       gradientTransform="matrix(156.80569,-156.80569,-156.80569,-156.80569,49.595051,198.92912)"
       gradientUnits="userSpaceOnUse"
       y2="0"
       x2="1"
       y1="0"
       x1="0"><stop
         id="stop24"
         offset="0"
         style="stop-opacity:1;stop-color:#e6e7e8" /><stop
         id="stop26"
         offset="1"
         style="stop-opacity:1;stop-color:#d1d3d4" /></linearGradient><clipPath
       id="clipPath38"
       clipPathUnits="userSpaceOnUse"><path
         id="path36"
         d="m 175.371,160 c -2.99,0 -5.416,-2.43 -5.416,-5.427 v 0 -2.26 c 0,-24.316 -20.115,-44.122 -44.358,-42.987 v 0 c -22.456,1.05 -40.341,19.624 -40.341,42.383 v 0 3.769 c 0,2.497 -2.02,4.522 -4.513,4.522 v 0 H 37.795 C 34.594,160 32,157.401 32,154.194 v 0 -21.331 c 0,-1.989 2.133,-3.218 3.867,-2.249 v 0 c 3.867,2.164 8.382,3.303 13.183,3.048 v 0 c 12.811,-0.683 22.999,-11.446 23.043,-24.3 v 0 C 72.122,100.717 67.662,93.118 60.921,88.756 v 0 c -0.494,-2.129 -0.148,-4.725 4.477,-4.725 v 0 H 180.602 C 180.915,84.012 181.23,84 181.548,84 v 0 h 30.74 c 0.318,0 0.633,0.012 0.946,0.031 v 0 c 0,0 4.004,0.488 5.038,1.154 v 0 C 223.98,87.543 228,93.172 228,99.743 v 0 c 0,4.247 -1.682,8.099 -4.412,10.931 v 0 43.52 c 0,3.207 -2.594,5.806 -5.794,5.806 v 0 z" /></clipPath><linearGradient
       id="linearGradient48"
       spreadMethod="pad"
       gradientTransform="matrix(-129.69344,129.69344,129.69344,129.69344,199.12932,64.34475)"
       gradientUnits="userSpaceOnUse"
       y2="0"
       x2="1"
       y1="0"
       x1="0"><stop
         id="stop44"
         offset="0"
         style="stop-opacity:1;stop-color:#e6e7e8" /><stop
         id="stop46"
         offset="1"
         style="stop-opacity:1;stop-color:#d1d3d4" /></linearGradient><clipPath
       id="clipPath58"
       clipPathUnits="userSpaceOnUse"><path
         id="path56"
         d="M 96.523,180 C 95.129,180 94,178.876 94,177.49 v 0 -27.662 C 94,131.145 109.222,116 128,116 v 0 c 18.777,0 34,15.145 34,33.828 v 0 27.662 c 0,1.386 -1.13,2.51 -2.523,2.51 v 0 z" /></clipPath><linearGradient
       id="linearGradient68"
       spreadMethod="pad"
       gradientTransform="matrix(-55.329761,55.329761,55.329761,55.329761,155.66487,129.53125)"
       gradientUnits="userSpaceOnUse"
       y2="0"
       x2="1"
       y1="0"
       x1="0"><stop
         id="stop64"
         offset="0"
         style="stop-opacity:1;stop-color:#e6e7e8" /><stop
         id="stop66"
         offset="1"
         style="stop-opacity:1;stop-color:#d1d3d4" /></linearGradient><clipPath
       id="clipPath78"
       clipPathUnits="userSpaceOnUse"><path
         id="path76"
         d="M 26,109 C 26,96.85 35.85,87 48,87 v 0 c 12.151,0 22,9.85 22,22 v 0 c 0,12.15 -9.849,22 -22,22 v 0 c -12.15,0 -22,-9.85 -22,-22" /></clipPath><linearGradient
       id="linearGradient88"
       spreadMethod="pad"
       gradientTransform="matrix(31.112698,-31.112698,-31.112698,-31.112698,32.443649,124.55635)"
       gradientUnits="userSpaceOnUse"
       y2="0"
       x2="1"
       y1="0"
       x1="0"><stop
         id="stop84"
         offset="0"
         style="stop-opacity:1;stop-color:#e6e7e8" /><stop
         id="stop86"
         offset="1"
         style="stop-opacity:1;stop-color:#d1d3d4" /></linearGradient><clipPath
       id="clipPath98"
       clipPathUnits="userSpaceOnUse"><path
         id="path96"
         d="M 0,256 H 256 V 0 H 0 Z" /></clipPath><clipPath
       id="clipPath110"
       clipPathUnits="userSpaceOnUse"><path
         id="path108"
         d="m 43.106,128.395 v -14.502 h -14.5 C 28.211,112.327 28,110.688 28,109 v 0 c 0,-1.688 0.211,-3.327 0.606,-4.893 v 0 h 14.5 V 89.606 C 44.672,89.212 46.311,89 48,89 v 0 c 1.689,0 3.327,0.212 4.894,0.606 v 0 14.501 H 67.395 C 67.789,105.673 68,107.312 68,109 v 0 c 0,1.688 -0.211,3.327 -0.605,4.893 v 0 H 52.894 v 14.502 C 51.327,128.788 49.689,129 48,129 v 0 c -1.689,0 -3.328,-0.212 -4.894,-0.605" /></clipPath><linearGradient
       id="linearGradient120"
       spreadMethod="pad"
       gradientTransform="matrix(-24.28812,24.28812,24.28812,24.28812,60.144062,96.855942)"
       gradientUnits="userSpaceOnUse"
       y2="0"
       x2="1"
       y1="0"
       x1="0"><stop
         id="stop116"
         offset="0"
         style="stop-opacity:1;stop-color:#e6e7e8" /><stop
         id="stop118"
         offset="1"
         style="stop-opacity:1;stop-color:#d1d3d4" /></linearGradient><clipPath
       id="clipPath130"
       clipPathUnits="userSpaceOnUse"><path
         id="path128"
         d="M 0,256 H 256 V 0 H 0 Z" /></clipPath><clipPath
       id="clipPath170"
       clipPathUnits="userSpaceOnUse"><path
         id="path168"
         d="m 43,109 c 0,-2.761 2.238,-5 5,-5 v 0 c 2.762,0 5,2.239 5,5 v 0 c 0,2.761 -2.238,5 -5,5 v 0 c -2.762,0 -5,-2.239 -5,-5" /></clipPath><linearGradient
       id="linearGradient180"
       spreadMethod="pad"
       gradientTransform="matrix(7.0710678,-7.0710678,-7.0710678,-7.0710678,44.464466,112.53554)"
       gradientUnits="userSpaceOnUse"
       y2="0"
       x2="1"
       y1="0"
       x1="0"><stop
         id="stop176"
         offset="0"
         style="stop-opacity:1;stop-color:#e6e7e8" /><stop
         id="stop178"
         offset="1"
         style="stop-opacity:1;stop-color:#d1d3d4" /></linearGradient><clipPath
       id="clipPath190"
       clipPathUnits="userSpaceOnUse"><path
         id="path188"
         d="m 173.931,100 c 0,-5.561 4.508,-10.068 10.069,-10.068 v 0 c 5.561,0 10.069,4.507 10.069,10.068 v 0 c 0,5.561 -4.508,10.069 -10.069,10.069 v 0 c -5.561,0 -10.069,-4.508 -10.069,-10.069" /></clipPath><linearGradient
       id="linearGradient200"
       spreadMethod="pad"
       gradientTransform="matrix(14.239398,-14.239398,-14.239398,-14.239398,176.88031,107.11971)"
       gradientUnits="userSpaceOnUse"
       y2="0"
       x2="1"
       y1="0"
       x1="0"><stop
         id="stop196"
         offset="0"
         style="stop-opacity:1;stop-color:#e6e7e8" /><stop
         id="stop198"
         offset="1"
         style="stop-opacity:1;stop-color:#d1d3d4" /></linearGradient><clipPath
       id="clipPath210"
       clipPathUnits="userSpaceOnUse"><path
         id="path208"
         d="m 174,100 c 0,-5.522 4.477,-10 10,-10 v 0 c 5.523,0 10,4.478 10,10 v 0 c 0,5.523 -4.477,10 -10,10 v 0 c -5.523,0 -10,-4.477 -10,-10 m 1.387,0 c 0,4.749 3.864,8.613 8.613,8.613 v 0 c 4.749,0 8.613,-3.864 8.613,-8.613 v 0 c 0,-4.749 -3.864,-8.613 -8.613,-8.613 v 0 c -4.749,0 -8.613,3.864 -8.613,8.613" /></clipPath><linearGradient
       id="linearGradient220"
       spreadMethod="pad"
       gradientTransform="matrix(-14.142133,14.142133,14.142133,14.142133,191.07108,92.928932)"
       gradientUnits="userSpaceOnUse"
       y2="0"
       x2="1"
       y1="0"
       x1="0"><stop
         id="stop216"
         offset="0"
         style="stop-opacity:1;stop-color:#e6e7e8" /><stop
         id="stop218"
         offset="1"
         style="stop-opacity:1;stop-color:#d1d3d4" /></linearGradient><clipPath
       id="clipPath230"
       clipPathUnits="userSpaceOnUse"><path
         id="path228"
         d="M 0,256 H 256 V 0 H 0 Z" /></clipPath><clipPath
       id="clipPath242"
       clipPathUnits="userSpaceOnUse"><path
         id="path240"
         d="m 201.931,100 c 0,-5.561 4.508,-10.068 10.069,-10.068 v 0 c 5.561,0 10.069,4.507 10.069,10.068 v 0 c 0,5.561 -4.508,10.069 -10.069,10.069 v 0 c -5.561,0 -10.069,-4.508 -10.069,-10.069" /></clipPath><linearGradient
       id="linearGradient252"
       spreadMethod="pad"
       gradientTransform="matrix(14.239398,-14.239398,-14.239398,-14.239398,204.88031,107.11971)"
       gradientUnits="userSpaceOnUse"
       y2="0"
       x2="1"
       y1="0"
       x1="0"><stop
         id="stop248"
         offset="0"
         style="stop-opacity:1;stop-color:#e6e7e8" /><stop
         id="stop250"
         offset="1"
         style="stop-opacity:1;stop-color:#d1d3d4" /></linearGradient><clipPath
       id="clipPath262"
       clipPathUnits="userSpaceOnUse"><path
         id="path260"
         d="m 202,100 c 0,-5.522 4.477,-10 10,-10 v 0 c 5.523,0 10,4.478 10,10 v 0 c 0,5.523 -4.477,10 -10,10 v 0 c -5.523,0 -10,-4.477 -10,-10 m 1.387,0 c 0,4.749 3.864,8.613 8.613,8.613 v 0 c 4.749,0 8.613,-3.864 8.613,-8.613 v 0 c 0,-4.749 -3.864,-8.613 -8.613,-8.613 v 0 c -4.749,0 -8.613,3.864 -8.613,8.613" /></clipPath><linearGradient
       id="linearGradient272"
       spreadMethod="pad"
       gradientTransform="matrix(-14.142133,14.142133,14.142133,14.142133,219.07108,92.928932)"
       gradientUnits="userSpaceOnUse"
       y2="0"
       x2="1"
       y1="0"
       x1="0"><stop
         id="stop268"
         offset="0"
         style="stop-opacity:1;stop-color:#e6e7e8" /><stop
         id="stop270"
         offset="1"
         style="stop-opacity:1;stop-color:#d1d3d4" /></linearGradient><clipPath
       id="clipPath282"
       clipPathUnits="userSpaceOnUse"><path
         id="path280"
         d="M 0,256 H 256 V 0 H 0 Z" /></clipPath><clipPath
       id="clipPath294"
       clipPathUnits="userSpaceOnUse"><path
         id="path292"
         d="m 104.531,102.758 c -1.726,0 -3.124,-1.234 -3.124,-2.758 v 0 c 0,-1.524 1.398,-2.759 3.124,-2.759 v 0 h 10.938 c 1.725,0 3.125,1.235 3.125,2.759 v 0 c 0,1.524 -1.4,2.758 -3.125,2.758 v 0 z" /></clipPath><linearGradient
       id="linearGradient304"
       spreadMethod="pad"
       gradientTransform="matrix(-9.6372061,9.6372061,9.6372061,9.6372061,114.8186,95.181396)"
       gradientUnits="userSpaceOnUse"
       y2="0"
       x2="1"
       y1="0"
       x1="0"><stop
         id="stop300"
         offset="0"
         style="stop-opacity:1;stop-color:#e6e7e8" /><stop
         id="stop302"
         offset="1"
         style="stop-opacity:1;stop-color:#d1d3d4" /></linearGradient><clipPath
       id="clipPath314"
       clipPathUnits="userSpaceOnUse"><path
         id="path312"
         d="M 0,256 H 256 V 0 H 0 Z" /></clipPath><clipPath
       id="clipPath326"
       clipPathUnits="userSpaceOnUse"><path
         id="path324"
         d="m 132.531,102.758 c -1.726,0 -3.125,-1.234 -3.125,-2.758 v 0 c 0,-1.524 1.399,-2.759 3.125,-2.759 v 0 h 10.938 c 1.725,0 3.125,1.235 3.125,2.759 v 0 c 0,1.524 -1.4,2.758 -3.125,2.758 v 0 z" /></clipPath><linearGradient
       id="linearGradient336"
       spreadMethod="pad"
       gradientTransform="matrix(-9.6372061,9.6372061,9.6372061,9.6372061,142.8186,95.181396)"
       gradientUnits="userSpaceOnUse"
       y2="0"
       x2="1"
       y1="0"
       x1="0"><stop
         id="stop332"
         offset="0"
         style="stop-opacity:1;stop-color:#e6e7e8" /><stop
         id="stop334"
         offset="1"
         style="stop-opacity:1;stop-color:#d1d3d4" /></linearGradient><clipPath
       id="clipPath346"
       clipPathUnits="userSpaceOnUse"><path
         id="path344"
         d="M 0,256 H 256 V 0 H 0 Z" /></clipPath><clipPath
       id="clipPath362"
       clipPathUnits="userSpaceOnUse"><path
         id="path360"
         d="m 208,136 c 0,-2.209 1.791,-4 4,-4 v 0 c 2.209,0 4,1.791 4,4 v 0 c 0,2.209 -1.791,4 -4,4 v 0 c -2.209,0 -4,-1.791 -4,-4" /></clipPath><linearGradient
       id="linearGradient372"
       spreadMethod="pad"
       gradientTransform="matrix(5.6568542,-5.6568542,-5.6568542,-5.6568542,209.17157,138.82843)"
       gradientUnits="userSpaceOnUse"
       y2="0"
       x2="1"
       y1="0"
       x1="0"><stop
         id="stop368"
         offset="0"
         style="stop-opacity:1;stop-color:#e6e7e8" /><stop
         id="stop370"
         offset="1"
         style="stop-opacity:1;stop-color:#d1d3d4" /></linearGradient><clipPath
       id="clipPath382"
       clipPathUnits="userSpaceOnUse"><path
         id="path380"
         d="M 0,256 H 256 V 0 H 0 Z" /></clipPath><clipPath
       id="clipPath394"
       clipPathUnits="userSpaceOnUse"><path
         id="path392"
         d="m 180,136 c 0,-2.209 1.791,-4 4,-4 v 0 c 2.209,0 4,1.791 4,4 v 0 c 0,2.209 -1.791,4 -4,4 v 0 c -2.209,0 -4,-1.791 -4,-4" /></clipPath><linearGradient
       id="linearGradient404"
       spreadMethod="pad"
       gradientTransform="matrix(5.6568542,-5.6568542,-5.6568542,-5.6568542,181.17157,138.82843)"
       gradientUnits="userSpaceOnUse"
       y2="0"
       x2="1"
       y1="0"
       x1="0"><stop
         id="stop400"
         offset="0"
         style="stop-opacity:1;stop-color:#e6e7e8" /><stop
         id="stop402"
         offset="1"
         style="stop-opacity:1;stop-color:#d1d3d4" /></linearGradient></defs><g
     transform="matrix(1.3333333,0,0,-1.3333333,-16,239.99999)"
     id="g10"><g
       id="g12"><g
         clip-path="url(#clipPath18)"
         id="g14"><g
           id="g20"><g
             id="g22"><path
               id="path30"
               style="fill:url(#linearGradient28);stroke:none"
               d="m 95.371,176 c -0.299,0 -0.597,-0.021 -0.893,-0.064 v 0 L 17.461,164.993 C 14.328,164.548 12,161.866 12,158.701 v 0 -76.346 C 12,78.845 14.846,76 18.355,76 v 0 h 219.29 c 3.51,0 6.355,2.845 6.355,6.355 v 0 76.337 c 0,3.169 -2.333,5.853 -5.47,6.294 v 0 l -77.918,10.952 c -0.293,0.042 -0.588,0.062 -0.885,0.062 v 0 z" /></g></g></g></g><g
       id="g32"><g
         clip-path="url(#clipPath38)"
         id="g34"><g
           id="g40"><g
             id="g42"><path
               id="path50"
               style="fill:url(#linearGradient48);stroke:none"
               d="m 175.371,160 c -2.99,0 -5.416,-2.43 -5.416,-5.427 v 0 -2.26 c 0,-24.316 -20.115,-44.122 -44.358,-42.987 v 0 c -22.456,1.05 -40.341,19.624 -40.341,42.383 v 0 3.769 c 0,2.497 -2.02,4.522 -4.513,4.522 v 0 H 37.795 C 34.594,160 32,157.401 32,154.194 v 0 -21.331 c 0,-1.989 2.133,-3.218 3.867,-2.249 v 0 c 3.867,2.164 8.382,3.303 13.183,3.048 v 0 c 12.811,-0.683 22.999,-11.446 23.043,-24.3 v 0 C 72.122,100.717 67.662,93.118 60.921,88.756 v 0 c -0.494,-2.129 -0.148,-4.725 4.477,-4.725 v 0 H 180.602 C 180.915,84.012 181.23,84 181.548,84 v 0 h 30.74 c 0.318,0 0.633,0.012 0.946,0.031 v 0 c 0,0 4.004,0.488 5.038,1.154 v 0 C 223.98,87.543 228,93.172 228,99.743 v 0 c 0,4.247 -1.682,8.099 -4.412,10.931 v 0 43.52 c 0,3.207 -2.594,5.806 -5.794,5.806 v 0 z" /></g></g></g></g><g
       id="g52"><g
         clip-path="url(#clipPath58)"
         id="g54"><g
           id="g60"><g
             id="g62"><path
               id="path70"
               style="fill:url(#linearGradient68);stroke:none"
               d="M 96.523,180 C 95.129,180 94,178.876 94,177.49 v 0 -27.662 C 94,131.145 109.222,116 128,116 v 0 c 18.777,0 34,15.145 34,33.828 v 0 27.662 c 0,1.386 -1.13,2.51 -2.523,2.51 v 0 z" /></g></g></g></g><g
       id="g72"><g
         clip-path="url(#clipPath78)"
         id="g74"><g
           id="g80"><g
             id="g82"><path
               id="path90"
               style="fill:url(#linearGradient88);stroke:none"
               d="M 26,109 C 26,96.85 35.85,87 48,87 v 0 c 12.151,0 22,9.85 22,22 v 0 c 0,12.15 -9.849,22 -22,22 v 0 c -12.15,0 -22,-9.85 -22,-22" /></g></g></g></g><g
       id="g92"><g
         clip-path="url(#clipPath98)"
         id="g94"><g
           transform="translate(68,109)"
           id="g100"><path
             id="path102"
             style="fill:#999999;fill-opacity:1;fill-rule:nonzero;stroke:none"
             d="m 0,0 c 0,-11.046 -8.954,-20 -20,-20 -11.046,0 -20,8.954 -20,20 0,11.046 8.954,20 20,20 C -8.954,20 0,11.046 0,0" /></g></g></g><g
       id="g104"><g
         clip-path="url(#clipPath110)"
         id="g106"><g
           id="g112"><g
             id="g114"><path
               id="path122"
               style="fill:url(#linearGradient120);stroke:none"
               d="m 43.106,128.395 v -14.502 h -14.5 C 28.211,112.327 28,110.688 28,109 v 0 c 0,-1.688 0.211,-3.327 0.606,-4.893 v 0 h 14.5 V 89.606 C 44.672,89.212 46.311,89 48,89 v 0 c 1.689,0 3.327,0.212 4.894,0.606 v 0 14.501 H 67.395 C 67.789,105.673 68,107.312 68,109 v 0 c 0,1.688 -0.211,3.327 -0.605,4.893 v 0 H 52.894 v 14.502 C 51.327,128.788 49.689,129 48,129 v 0 c -1.689,0 -3.328,-0.212 -4.894,-0.605" /></g></g></g></g><g
       id="g124"><g
         clip-path="url(#clipPath130)"
         id="g126"><g
           transform="translate(211.8462,114)"
           id="g132"><path
             id="path134"
             style="fill:#999999;fill-opacity:1;fill-rule:nonzero;stroke:none"
             d="m 0,0 h -27.692 c -7.817,0 -14.154,-6.268 -14.154,-14 0,-7.732 6.337,-14 14.154,-14 H 0 c 7.817,0 14.154,6.268 14.154,14 C 14.154,-6.268 7.817,0 0,0" /></g><path
           id="path136"
           style="fill:#999999;fill-opacity:1;fill-rule:nonzero;stroke:none"
           d="m 194,144 h -4 v 4 h 4 z" /><path
           id="path138"
           style="fill:#999999;fill-opacity:1;fill-rule:nonzero;stroke:none"
           d="m 196,138.5 h -3 v 3 h 3 z" /><path
           id="path140"
           style="fill:#999999;fill-opacity:1;fill-rule:nonzero;stroke:none"
           d="m 200,144 h -4 v 4 h 4 z" /><path
           id="path142"
           style="fill:#999999;fill-opacity:1;fill-rule:nonzero;stroke:none"
           d="m 206,144 h -4 v 4 h 4 z" /><path
           id="path144"
           style="fill:#999999;fill-opacity:1;fill-rule:nonzero;stroke:none"
           d="m 203,138.5 h -3 v 3 h 3 z" /><path
           id="path146"
           style="fill:#999999;fill-opacity:1;fill-rule:nonzero;stroke:none"
           d="m 199,133 h -2 v 2 h 2 z" /><g
           transform="translate(80,108)"
           id="g148"><path
             id="path150"
             style="fill:#999999;fill-opacity:1;fill-rule:nonzero;stroke:none"
             d="m 0,0 c 0,-7.57 -2.634,-14.521 -7.028,-20 h 1.253 C -1.53,-14.446 1,-7.514 1,0 c 0,18.196 -14.804,33 -33,33 -4.233,0 -8.278,-0.81 -12,-2.268 V 29.665 C -40.293,31.166 -36.245,32 -32,32 -14.327,32 0,17.673 0,0" /></g><g
           transform="translate(48,138)"
           id="g152"><path
             id="path154"
             style="fill:#999999;fill-opacity:1;fill-rule:nonzero;stroke:none"
             d="M 0,0 C -4.265,0 -8.323,-0.901 -12,-2.512 V -4.698 C -8.363,-2.97 -4.295,-2 0,-2 c 15.464,0 28,-12.536 28,-28 0,-7.837 -3.223,-14.918 -8.412,-20 h 2.749 C 27.098,-44.688 30,-37.678 30,-30 30,-13.458 16.542,0 0,0" /></g><g
           transform="translate(184.3496,128)"
           id="g156"><path
             id="path158"
             style="fill:#999999;fill-opacity:1;fill-rule:nonzero;stroke:none"
             d="M 0,0 -4,-2.791 V -12 h 8 v 9.209 z" /></g><g
           transform="translate(212,128)"
           id="g160"><path
             id="path162"
             style="fill:#999999;fill-opacity:1;fill-rule:nonzero;stroke:none"
             d="M 0,0 -4,-2.791 V -12 h 8 v 9.209 z" /></g></g></g><g
       id="g164"><g
         clip-path="url(#clipPath170)"
         id="g166"><g
           id="g172"><g
             id="g174"><path
               id="path182"
               style="fill:url(#linearGradient180);stroke:none"
               d="m 43,109 c 0,-2.761 2.238,-5 5,-5 v 0 c 2.762,0 5,2.239 5,5 v 0 c 0,2.761 -2.238,5 -5,5 v 0 c -2.762,0 -5,-2.239 -5,-5" /></g></g></g></g><g
       id="g184"><g
         clip-path="url(#clipPath190)"
         id="g186"><g
           id="g192"><g
             id="g194"><path
               id="path202"
               style="fill:url(#linearGradient200);stroke:none"
               d="m 173.931,100 c 0,-5.561 4.508,-10.068 10.069,-10.068 v 0 c 5.561,0 10.069,4.507 10.069,10.068 v 0 c 0,5.561 -4.508,10.069 -10.069,10.069 v 0 c -5.561,0 -10.069,-4.508 -10.069,-10.069" /></g></g></g></g><g
       id="g204"><g
         clip-path="url(#clipPath210)"
         id="g206"><g
           id="g212"><g
             id="g214"><path
               id="path222"
               style="fill:url(#linearGradient220);stroke:none"
               d="m 174,100 c 0,-5.522 4.477,-10 10,-10 v 0 c 5.523,0 10,4.478 10,10 v 0 c 0,5.523 -4.477,10 -10,10 v 0 c -5.523,0 -10,-4.477 -10,-10 m 1.387,0 c 0,4.749 3.864,8.613 8.613,8.613 v 0 c 4.749,0 8.613,-3.864 8.613,-8.613 v 0 c 0,-4.749 -3.864,-8.613 -8.613,-8.613 v 0 c -4.749,0 -8.613,3.864 -8.613,8.613" /></g></g></g></g><g
       id="g224"><g
         clip-path="url(#clipPath230)"
         id="g226"><g
           transform="translate(184,111)"
           id="g232"><path
             id="path234"
             style="fill:#999999;fill-opacity:1;fill-rule:nonzero;stroke:none"
             d="m 0,0 c -6.065,0 -11,-4.935 -11,-11 0,-6.065 4.935,-11 11,-11 6.065,0 11,4.935 11,11 C 11,-4.935 6.065,0 0,0 m 0,-0.931 c 5.561,0 10.069,-4.508 10.069,-10.069 0,-5.561 -4.508,-10.069 -10.069,-10.069 -5.561,0 -10.069,4.508 -10.069,10.069 0,5.561 4.508,10.069 10.069,10.069" /></g></g></g><g
       id="g236"><g
         clip-path="url(#clipPath242)"
         id="g238"><g
           id="g244"><g
             id="g246"><path
               id="path254"
               style="fill:url(#linearGradient252);stroke:none"
               d="m 201.931,100 c 0,-5.561 4.508,-10.068 10.069,-10.068 v 0 c 5.561,0 10.069,4.507 10.069,10.068 v 0 c 0,5.561 -4.508,10.069 -10.069,10.069 v 0 c -5.561,0 -10.069,-4.508 -10.069,-10.069" /></g></g></g></g><g
       id="g256"><g
         clip-path="url(#clipPath262)"
         id="g258"><g
           id="g264"><g
             id="g266"><path
               id="path274"
               style="fill:url(#linearGradient272);stroke:none"
               d="m 202,100 c 0,-5.522 4.477,-10 10,-10 v 0 c 5.523,0 10,4.478 10,10 v 0 c 0,5.523 -4.477,10 -10,10 v 0 c -5.523,0 -10,-4.477 -10,-10 m 1.387,0 c 0,4.749 3.864,8.613 8.613,8.613 v 0 c 4.749,0 8.613,-3.864 8.613,-8.613 v 0 c 0,-4.749 -3.864,-8.613 -8.613,-8.613 v 0 c -4.749,0 -8.613,3.864 -8.613,8.613" /></g></g></g></g><g
       id="g276"><g
         clip-path="url(#clipPath282)"
         id="g278"><g
           transform="translate(212,111)"
           id="g284"><path
             id="path286"
             style="fill:#999999;fill-opacity:1;fill-rule:nonzero;stroke:none"
             d="m 0,0 c -6.065,0 -11,-4.935 -11,-11 0,-6.065 4.935,-11 11,-11 6.065,0 11,4.935 11,11 C 11,-4.935 6.065,0 0,0 m 0,-0.931 c 5.561,0 10.069,-4.508 10.069,-10.069 0,-5.561 -4.508,-10.069 -10.069,-10.069 -5.561,0 -10.069,4.508 -10.069,10.069 0,5.561 4.508,10.069 10.069,10.069" /></g></g></g><g
       id="g288"><g
         clip-path="url(#clipPath294)"
         id="g290"><g
           id="g296"><g
             id="g298"><path
               id="path306"
               style="fill:url(#linearGradient304);stroke:none"
               d="m 104.531,102.758 c -1.726,0 -3.124,-1.234 -3.124,-2.758 v 0 c 0,-1.524 1.398,-2.759 3.124,-2.759 v 0 h 10.938 c 1.725,0 3.125,1.235 3.125,2.759 v 0 c 0,1.524 -1.4,2.758 -3.125,2.758 v 0 z" /></g></g></g></g><g
       id="g308"><g
         clip-path="url(#clipPath314)"
         id="g310"><g
           transform="translate(115.4688,104)"
           id="g316"><path
             id="path318"
             style="fill:#999999;fill-opacity:1;fill-rule:nonzero;stroke:none"
             d="m 0,0 h -10.938 c -2.498,0 -4.531,-1.794 -4.531,-4 0,-2.206 2.033,-4 4.531,-4 H 0 c 2.499,0 4.531,1.794 4.531,4 0,2.206 -2.032,4 -4.531,4 M 0,-1.241 C 1.726,-1.241 3.125,-2.476 3.125,-4 3.125,-5.524 1.726,-6.759 0,-6.759 h -10.938 c -1.725,0 -3.125,1.235 -3.125,2.759 0,1.524 1.4,2.759 3.125,2.759 H 0" /></g></g></g><g
       id="g320"><g
         clip-path="url(#clipPath326)"
         id="g322"><g
           id="g328"><g
             id="g330"><path
               id="path338"
               style="fill:url(#linearGradient336);stroke:none"
               d="m 132.531,102.758 c -1.726,0 -3.125,-1.234 -3.125,-2.758 v 0 c 0,-1.524 1.399,-2.759 3.125,-2.759 v 0 h 10.938 c 1.725,0 3.125,1.235 3.125,2.759 v 0 c 0,1.524 -1.4,2.758 -3.125,2.758 v 0 z" /></g></g></g></g><g
       id="g340"><g
         clip-path="url(#clipPath346)"
         id="g342"><g
           transform="translate(143.4687,104)"
           id="g348"><path
             id="path350"
             style="fill:#999999;fill-opacity:1;fill-rule:nonzero;stroke:none"
             d="m 0,0 h -10.938 c -2.498,0 -4.531,-1.794 -4.531,-4 0,-2.206 2.033,-4 4.531,-4 H 0 c 2.499,0 4.531,1.794 4.531,4 0,2.206 -2.032,4 -4.531,4 M 0,-1.241 C 1.726,-1.241 3.125,-2.476 3.125,-4 3.125,-5.524 1.726,-6.759 0,-6.759 h -10.938 c -1.725,0 -3.125,1.235 -3.125,2.759 0,1.524 1.4,2.759 3.125,2.759 H 0" /></g><g
           transform="translate(212,132)"
           id="g352"><path
             id="path354"
             style="fill:#999999;fill-opacity:1;fill-rule:nonzero;stroke:none"
             d="m 0,0 v 0 c -2.2,0 -4,1.8 -4,4 v 8 c 0,2.2 1.8,4 4,4 2.2,0 4,-1.8 4,-4 V 4 C 4,1.8 2.2,0 0,0" /></g></g></g><g
       id="g356"><g
         clip-path="url(#clipPath362)"
         id="g358"><g
           id="g364"><g
             id="g366"><path
               id="path374"
               style="fill:url(#linearGradient372);stroke:none"
               d="m 208,136 c 0,-2.209 1.791,-4 4,-4 v 0 c 2.209,0 4,1.791 4,4 v 0 c 0,2.209 -1.791,4 -4,4 v 0 c -2.209,0 -4,-1.791 -4,-4" /></g></g></g></g><g
       id="g376"><g
         clip-path="url(#clipPath382)"
         id="g378"><g
           transform="translate(184,132)"
           id="g384"><path
             id="path386"
             style="fill:#999999;fill-opacity:1;fill-rule:nonzero;stroke:none"
             d="m 0,0 v 0 c -2.2,0 -4,1.8 -4,4 v 8 c 0,2.2 1.8,4 4,4 2.2,0 4,-1.8 4,-4 V 4 C 4,1.8 2.2,0 0,0" /></g></g></g><g
       id="g388"><g
         clip-path="url(#clipPath394)"
         id="g390"><g
           id="g396"><g
             id="g398"><path
               id="path406"
               style="fill:url(#linearGradient404);stroke:none"
               d="m 180,136 c 0,-2.209 1.791,-4 4,-4 v 0 c 2.209,0 4,1.791 4,4 v 0 c 0,2.209 -1.791,4 -4,4 v 0 c -2.209,0 -4,-1.791 -4,-4" /></g></g></g></g></g></svg>