<?xml version="1.0" encoding="UTF-8" standalone="no"?>
<svg
   xmlns:dc="http://purl.org/dc/elements/1.1/"
   xmlns:cc="http://creativecommons.org/ns#"
   xmlns:rdf="http://www.w3.org/1999/02/22-rdf-syntax-ns#"
   xmlns:svg="http://www.w3.org/2000/svg"
   xmlns="http://www.w3.org/2000/svg"
   viewBox="0 0 309.33331 309.33331"
   height="309.33331"
   width="309.33331"
   xml:space="preserve"
   id="svg2"
   version="1.1"><metadata
     id="metadata8"><rdf:RDF><cc:Work
         rdf:about=""><dc:format>image/svg+xml</dc:format><dc:type
           rdf:resource="http://purl.org/dc/dcmitype/StillImage" /></cc:Work></rdf:RDF></metadata><defs
     id="defs6"><clipPath
       id="clipPath18"
       clipPathUnits="userSpaceOnUse"><path
         id="path16"
         d="M 12,244 V 16 c 0,-2.209 1.791,-4 4,-4 v 0 h 84 c 0,2.209 1.791,4 4,4 v 0 c 2.209,0 4,-1.791 4,-4 v 0 h 40 c 0,2.209 1.791,4 4,4 v 0 c 2.209,0 4,-1.791 4,-4 v 0 h 84 c 2.209,0 4,1.791 4,4 v 0 164 h -8 v 12 h 8 v 52 z M 96,128 c 0,17.673 14.327,32 32,32 v 0 c 17.673,0 32,-14.327 32,-32 v 0 c 0,-17.673 -14.327,-32 -32,-32 v 0 c -17.673,0 -32,14.327 -32,32" /></clipPath><linearGradient
       id="linearGradient28"
       spreadMethod="pad"
       gradientTransform="matrix(230.82843,-230.82843,-230.82843,-230.82843,12.585787,244.58578)"
       gradientUnits="userSpaceOnUse"
       y2="0"
       x2="1"
       y1="0"
       x1="0"><stop
         id="stop24"
         offset="0"
         style="stop-opacity:1;stop-color:#e6e7e8" /><stop
         id="stop26"
         offset="1"
         style="stop-opacity:1;stop-color:#d1d3d4" /></linearGradient><clipPath
       id="clipPath38"
       clipPathUnits="userSpaceOnUse"><path
         id="path36"
         d="M 0,256 H 256 V 0 H 0 Z" /></clipPath><clipPath
       id="clipPath62"
       clipPathUnits="userSpaceOnUse"><path
         id="path60"
         d="m 94,128 c 0,-18.777 15.222,-34 34,-34 v 0 c 18.777,0 34,15.223 34,34 v 0 c 0,18.777 -15.223,34 -34,34 v 0 c -18.778,0 -34,-15.223 -34,-34 m 4,0 c 0,16.542 13.458,30 30,30 v 0 c 16.542,0 30,-13.458 30,-30 v 0 c 0,-16.542 -13.458,-30 -30,-30 v 0 c -16.542,0 -30,13.458 -30,30" /></clipPath><linearGradient
       id="linearGradient72"
       spreadMethod="pad"
       gradientTransform="matrix(-48.083256,48.083256,48.083256,48.083256,152.04163,103.95837)"
       gradientUnits="userSpaceOnUse"
       y2="0"
       x2="1"
       y1="0"
       x1="0"><stop
         id="stop68"
         offset="0"
         style="stop-opacity:1;stop-color:#e6e7e8" /><stop
         id="stop70"
         offset="1"
         style="stop-opacity:1;stop-color:#d1d3d4" /></linearGradient><clipPath
       id="clipPath82"
       clipPathUnits="userSpaceOnUse"><path
         id="path80"
         d="m 230,196 c -1.105,0 -2,-0.895 -2,-2 v 0 -16 c 0,-1.104 0.895,-2 2,-2 v 0 h 14 v 20 z" /></clipPath><linearGradient
       id="linearGradient92"
       spreadMethod="pad"
       gradientTransform="matrix(-17.414213,17.414213,17.414213,17.414213,245.29289,177.29289)"
       gradientUnits="userSpaceOnUse"
       y2="0"
       x2="1"
       y1="0"
       x1="0"><stop
         id="stop88"
         offset="0"
         style="stop-opacity:1;stop-color:#e6e7e8" /><stop
         id="stop90"
         offset="1"
         style="stop-opacity:1;stop-color:#d1d3d4" /></linearGradient></defs><g
     transform="matrix(1.3333333,0,0,-1.3333333,-16,325.33333)"
     id="g10"><g
       id="g12"><g
         clip-path="url(#clipPath18)"
         id="g14"><g
           id="g20"><g
             id="g22"><path
               id="path30"
               style="fill:url(#linearGradient28);stroke:none"
               d="M 12,244 V 16 c 0,-2.209 1.791,-4 4,-4 v 0 h 84 c 0,2.209 1.791,4 4,4 v 0 c 2.209,0 4,-1.791 4,-4 v 0 h 40 c 0,2.209 1.791,4 4,4 v 0 c 2.209,0 4,-1.791 4,-4 v 0 h 84 c 2.209,0 4,1.791 4,4 v 0 164 h -8 v 12 h 8 v 52 z M 96,128 c 0,17.673 14.327,32 32,32 v 0 c 17.673,0 32,-14.327 32,-32 v 0 c 0,-17.673 -14.327,-32 -32,-32 v 0 c -17.673,0 -32,14.327 -32,32" /></g></g></g></g><g
       id="g32"><g
         clip-path="url(#clipPath38)"
         id="g34"><g
           transform="translate(220,180)"
           id="g40"><path
             id="path42"
             style="fill:#ffffff;fill-opacity:1;fill-rule:nonzero;stroke:none"
             d="m 0,0 h -184 c -2.209,0 -4,1.791 -4,4 v 44 c 0,2.209 1.791,4 4,4 H 0 c 2.209,0 4,-1.791 4,-4 V 4 C 4,1.791 2.209,0 0,0" /></g><g
           transform="translate(128,20)"
           id="g44"><path
             id="path46"
             style="fill:#999999;fill-opacity:1;fill-rule:nonzero;stroke:none"
             d="m 0,0 v 0 c -6.627,0 -12,5.373 -12,12 v 36 c 0,6.627 5.373,12 12,12 6.627,0 12,-5.373 12,-12 V 12 C 12,5.373 6.627,0 0,0" /></g><g
           transform="translate(176,118)"
           id="g48"><path
             id="path50"
             style="fill:#999999;fill-opacity:1;fill-rule:nonzero;stroke:none"
             d="m 0,0 c 0,-3.313 -2.687,-6 -6,-6 -3.313,0 -6,2.687 -6,6 0,3.313 2.687,6 6,6 3.313,0 6,-2.687 6,-6" /></g><g
           transform="translate(128,104)"
           id="g52"><path
             id="path54"
             style="fill:#999999;fill-opacity:1;fill-rule:nonzero;stroke:none"
             d="M 0,0 C -13.255,0 -24,10.745 -24,24 -24,37.255 -13.255,48 0,48 13.255,48 24,37.255 24,24 24,10.745 13.255,0 0,0 M 0,56 C -17.673,56 -32,41.673 -32,24 -32,6.327 -17.673,-8 0,-8 17.673,-8 32,6.327 32,24 32,41.673 17.673,56 0,56" /></g></g></g><g
       id="g56"><g
         clip-path="url(#clipPath62)"
         id="g58"><g
           id="g64"><g
             id="g66"><path
               id="path74"
               style="fill:url(#linearGradient72);stroke:none"
               d="m 94,128 c 0,-18.777 15.222,-34 34,-34 v 0 c 18.777,0 34,15.223 34,34 v 0 c 0,18.777 -15.223,34 -34,34 v 0 c -18.778,0 -34,-15.223 -34,-34 m 4,0 c 0,16.542 13.458,30 30,30 v 0 c 16.542,0 30,-13.458 30,-30 v 0 c 0,-16.542 -13.458,-30 -30,-30 v 0 c -16.542,0 -30,13.458 -30,30" /></g></g></g></g><g
       id="g76"><g
         clip-path="url(#clipPath82)"
         id="g78"><g
           id="g84"><g
             id="g86"><path
               id="path94"
               style="fill:url(#linearGradient92);stroke:none"
               d="m 230,196 c -1.105,0 -2,-0.895 -2,-2 v 0 -16 c 0,-1.104 0.895,-2 2,-2 v 0 h 14 v 20 z" /></g></g></g></g></g></svg>