<?xml version="1.0" encoding="UTF-8" standalone="no"?>
<svg
   xmlns:dc="http://purl.org/dc/elements/1.1/"
   xmlns:cc="http://creativecommons.org/ns#"
   xmlns:rdf="http://www.w3.org/1999/02/22-rdf-syntax-ns#"
   xmlns:svg="http://www.w3.org/2000/svg"
   xmlns="http://www.w3.org/2000/svg"
   viewBox="0 0 287.99951 309.33331"
   height="309.33331"
   width="287.99951"
   xml:space="preserve"
   id="svg2"
   version="1.1"><metadata
     id="metadata8"><rdf:RDF><cc:Work
         rdf:about=""><dc:format>image/svg+xml</dc:format><dc:type
           rdf:resource="http://purl.org/dc/dcmitype/StillImage" /></cc:Work></rdf:RDF></metadata><defs
     id="defs6"><clipPath
       id="clipPath18"
       clipPathUnits="userSpaceOnUse"><path
         id="path16"
         d="M 61.51,194.554 C 6.21,139.254 6.116,116.919 61.512,61.522 v 0 C 116.915,6.119 139.221,6.198 194.543,61.52 v 0 c 55.327,55.328 55.223,77.815 0.003,133.036 v 0 c -27.618,27.617 -47.06,41.442 -66.509,41.444 v 0 C 108.598,236.003 89.153,222.197 61.51,194.554" /></clipPath><linearGradient
       id="linearGradient28"
       spreadMethod="pad"
       gradientTransform="matrix(133.03336,-133.03336,-133.03336,-133.03336,61.512279,194.55624)"
       gradientUnits="userSpaceOnUse"
       y2="0"
       x2="1"
       y1="0"
       x1="0"><stop
         id="stop24"
         offset="0"
         style="stop-opacity:1;stop-color:#e6e7e8" /><stop
         id="stop26"
         offset="1"
         style="stop-opacity:1;stop-color:#d1d3d4" /></linearGradient><clipPath
       id="clipPath38"
       clipPathUnits="userSpaceOnUse"><path
         id="path36"
         d="M 0,256 H 256 V 0 H 0 Z" /></clipPath></defs><g
     transform="matrix(1.3333333,0,0,-1.3333333,-26.666656,325.33333)"
     id="g10"><g
       id="g12"><g
         clip-path="url(#clipPath18)"
         id="g14"><g
           id="g20"><g
             id="g22"><path
               id="path30"
               style="fill:url(#linearGradient28);stroke:none"
               d="M 61.51,194.554 C 6.21,139.254 6.116,116.919 61.512,61.522 v 0 C 116.915,6.119 139.221,6.198 194.543,61.52 v 0 c 55.327,55.328 55.223,77.815 0.003,133.036 v 0 c -27.618,27.617 -47.06,41.442 -66.509,41.444 v 0 C 108.598,236.003 89.153,222.197 61.51,194.554" /></g></g></g></g><g
       id="g32"><g
         clip-path="url(#clipPath38)"
         id="g34"><g
           transform="translate(160,110)"
           id="g40"><path
             id="path42"
             style="fill:#ffffff;fill-opacity:1;fill-rule:nonzero;stroke:none"
             d="M 0,0 V 36 L -32,54 -64,36 V 0 l 32,-18 z" /></g><g
           transform="translate(136.6201,132.3613)"
           id="g44"><path
             id="path46"
             style="fill:#999999;fill-opacity:1;fill-rule:nonzero;stroke:none"
             d="m 0,0 h -8.62 -8.62 v 5.422 c 0,4.849 3.867,8.795 8.62,8.795 4.753,0 8.62,-3.946 8.62,-8.795 z m 5.963,0 h -0.65 v 5.422 c 0,7.851 -6.238,14.217 -13.933,14.217 -7.695,0 -13.934,-6.366 -13.934,-14.217 V 0 h -0.649 c -0.783,0 -1.417,-0.647 -1.417,-1.446 v -17.469 c 0,-0.799 0.634,-1.446 1.417,-1.446 H 5.963 c 0.782,0 1.417,0.647 1.417,1.446 V -1.446 C 7.38,-0.647 6.745,0 5.963,0" /></g><g
           transform="translate(133.3252,222.0005)"
           id="g48"><path
             id="path50"
             style="fill:#ffffff;fill-opacity:1;fill-rule:nonzero;stroke:none"
             d="m 0,0 -3.464,2 2,3.464 3.464,-2 z m 6.929,-4 -3.464,2 2,3.464 3.464,-2 z m 6.927,-4 -3.463,2 2,3.464 3.463,-2 z m 6.929,-4 -3.464,2 2,3.464 3.464,-2 z m 6.928,-4 -3.464,2 2,3.464 3.464,-2 z m 6.929,-4 -3.464,2 2,3.464 3.464,-2 z m 6.927,-4 -3.464,2 2,3.464 3.464,-2 z m 6.929,-4 -3.464,2 2,3.464 3.464,-2 z m 6.928,-4 -3.464,2 2,3.464 3.464,-2 z m 6.928,-4 -3.463,2 2,3.464 3.463,-2 z m 6.928,-4 -3.464,2 2,3.464 3.464,-2 z m 6.929,-4 -3.464,2 2,3.464 3.464,-2 z m 6.464,-4.268 h -4 v 4 h 4 z m 0,-8 h -4 v 4 h 4 z m 0,-8 h -4 v 4 h 4 z m 0,-8 h -4 v 4 h 4 z m 0,-8 h -4 v 4 h 4 z m 0,-8 h -4 v 4 h 4 z m 0,-8 h -4 v 4 h 4 z m 0,-8 h -4 v 4 h 4 z m 0,-8 h -4 v 4 h 4 z m 0,-8 h -4 v 4 h 4 z m 0,-8 h -4 v 4 h 4 z m 0,-8 h -4 v 4 h 4 z m 0,-8 h -4 v 4 h 4 z m -7.928,-5.732 -2,3.464 3.464,2 2,-3.464 z m -6.929,-4 -2,3.464 3.464,2 2,-3.464 z m -6.927,-4 -2,3.464 3.463,2 2,-3.464 z m -6.929,-4 -2,3.464 3.464,2 2,-3.464 z m -6.928,-4 -2,3.464 3.464,2 2,-3.464 z m -6.929,-4 -2,3.464 3.464,2 2,-3.464 z m -6.927,-4 -2,3.464 3.464,2 2,-3.464 z m -6.929,-4 -2,3.464 3.464,2 2,-3.464 z m -6.928,-4 -2,3.464 3.464,2 2,-3.464 z m -6.928,-4 -2,3.464 3.464,2 2,-3.464 z m -6.928,-4 -2,3.464 3.464,2 2,-3.464 z m -6.929,-4 -2,3.464 3.465,2 2,-3.464 z" /></g><g
           transform="translate(120.6748,225.7319)"
           id="g52"><path
             id="path54"
             style="fill:#ffffff;fill-opacity:1;fill-rule:nonzero;stroke:none"
             d="m 0,0 3.464,2 2,-3.464 -3.464,-2 z m -6.929,-4 3.464,2 2,-3.464 -3.464,-2 z m -6.927,-4 3.463,2 2,-3.464 -3.463,-2 z m -6.929,-4 3.464,2 2,-3.464 -3.464,-2 z m -6.928,-4 3.464,2 2,-3.464 -3.464,-2 z m -6.929,-4 3.464,2 2,-3.464 -3.464,-2 z m -6.927,-4 3.464,2 2,-3.464 -3.464,-2 z m -6.929,-4 3.464,2 2,-3.464 -3.464,-2 z m -6.928,-4 3.464,2 2,-3.464 -3.464,-2 z m -6.928,-4 3.463,2 2,-3.464 -3.463,-2 z m -6.928,-4 3.464,2 2,-3.464 -3.464,-2 z m -6.929,-4 3.464,2 2,-3.464 -3.464,-2 z m -4.464,-3.732 h 4 v -4 h -4 z m 0,-8 h 4 v -4 h -4 z m 0,-8 h 4 v -4 h -4 z m 0,-8 h 4 v -4 h -4 z m 0,-8 h 4 v -4 h -4 z m 0,-8 h 4 v -4 h -4 z m 0,-8 h 4 v -4 h -4 z m 0,-8 h 4 v -4 h -4 z m 0,-8 h 4 v -4 h -4 z m 0,-8 h 4 v -4 h -4 z m 0,-8 h 4 v -4 h -4 z m 0,-8 h 4 v -4 h -4 z m 0,-8 h 4 v -4 h -4 z m 4.464,-7.732 2,3.464 3.464,-2 -2,-3.464 z m 6.929,-4 2,3.464 3.464,-2 -2,-3.464 z m 6.928,-4 2,3.464 3.463,-2 -2,-3.464 z m 6.928,-4 2,3.464 3.464,-2 -2,-3.464 z m 6.928,-4 2,3.464 3.464,-2 -2,-3.464 z m 6.929,-4 2,3.464 3.464,-2 -2,-3.464 z m 6.927,-4 2,3.464 3.464,-2 -2,-3.464 z m 6.929,-4 2,3.464 3.464,-2 -2,-3.464 z m 6.928,-4 2,3.464 3.464,-2 -2,-3.464 z m 6.928,-4 2,3.464 3.464,-2 -2,-3.464 z m 6.928,-4 2,3.464 3.464,-2 -2,-3.464 z m 6.928,-4 2,3.464 3.465,-2 -2,-3.464 z" /></g><path
           id="path56"
           style="fill:#ffffff;fill-opacity:1;fill-rule:nonzero;stroke:none"
           d="m 130,172 h -4 v -8 h 4 z" /><path
           id="path58"
           style="fill:#ffffff;fill-opacity:1;fill-rule:nonzero;stroke:none"
           d="m 126,196 h 4 v 8 h -4 z" /><path
           id="path60"
           style="fill:#ffffff;fill-opacity:1;fill-rule:nonzero;stroke:none"
           d="m 126,180 h 4 v 8 h -4 z" /><g
           transform="translate(158.4229,108.7637)"
           id="g62"><path
             id="path64"
             style="fill:#ffffff;fill-opacity:1;fill-rule:nonzero;stroke:none"
             d="m 0,0 6.48,-3.534 1.916,3.512 -6.44,3.511 C 1.369,2.286 0.713,1.124 0,0" /></g><g
           transform="translate(178.9492,97.5674)"
           id="g66"><path
             id="path68"
             style="fill:#ffffff;fill-opacity:1;fill-rule:nonzero;stroke:none"
             d="M 0,0 1.916,3.512 -5.107,7.343 -7.023,3.831 Z" /></g><g
           transform="translate(207.042,82.2441)"
           id="g70"><path
             id="path72"
             style="fill:#ffffff;fill-opacity:1;fill-rule:nonzero;stroke:none"
             d="M 0,0 1.916,3.512 -5.107,7.343 -7.023,3.831 Z" /></g><g
           transform="translate(54.0654,89.5869)"
           id="g74"><path
             id="path76"
             style="fill:#ffffff;fill-opacity:1;fill-rule:nonzero;stroke:none"
             d="m 0,0 -7.023,-3.831 1.916,-3.512 7.023,3.831 z" /></g><g
           transform="translate(187.8877,97.248)"
           id="g78"><path
             id="path80"
             style="fill:#ffffff;fill-opacity:1;fill-rule:nonzero;stroke:none"
             d="m 0,0 -1.915,-3.512 7.023,-3.83 1.915,3.512 z" /></g><g
           transform="translate(95.6211,112.2539)"
           id="g82"><path
             id="path84"
             style="fill:#ffffff;fill-opacity:1;fill-rule:nonzero;stroke:none"
             d="m 0,0 -6.44,-3.513 1.916,-3.511 6.48,3.534 C 1.244,-2.366 0.586,-1.204 0,0" /></g><g
           transform="translate(68.1113,97.248)"
           id="g86"><path
             id="path88"
             style="fill:#ffffff;fill-opacity:1;fill-rule:nonzero;stroke:none"
             d="m 0,0 -7.023,-3.83 1.916,-3.512 7.023,3.83 z" /></g><g
           transform="translate(82.1582,104.9102)"
           id="g90"><path
             id="path92"
             style="fill:#ffffff;fill-opacity:1;fill-rule:nonzero;stroke:none"
             d="m 0,0 -7.023,-3.831 1.916,-3.512 7.023,3.831 z" /></g><g
           transform="translate(42,102)"
           id="g94"><path
             id="path96"
             style="fill:#999999;fill-opacity:1;fill-rule:nonzero;stroke:none"
             d="m 0,0 c 11.046,0 20,-8.954 20,-20 0,-11.046 -8.954,-20 -20,-20 -11.046,0 -20,8.954 -20,20 0,11.046 8.954,20 20,20" /></g><g
           transform="translate(214,102)"
           id="g98"><path
             id="path100"
             style="fill:#999999;fill-opacity:1;fill-rule:nonzero;stroke:none"
             d="m 0,0 c 11.046,0 20,-8.954 20,-20 0,-11.046 -8.954,-20 -20,-20 -11.046,0 -20,8.954 -20,20 0,11.046 8.954,20 20,20" /></g><g
           transform="translate(128,52)"
           id="g102"><path
             id="path104"
             style="fill:#999999;fill-opacity:1;fill-rule:nonzero;stroke:none"
             d="m 0,0 c 11.046,0 20,-8.954 20,-20 0,-11.046 -8.954,-20 -20,-20 -11.046,0 -20,8.954 -20,20 0,11.046 8.954,20 20,20" /></g><g
           transform="translate(128,244)"
           id="g106"><path
             id="path108"
             style="fill:#999999;fill-opacity:1;fill-rule:nonzero;stroke:none"
             d="m 0,0 c 11.046,0 20,-8.954 20,-20 0,-11.046 -8.954,-20 -20,-20 -11.046,0 -20,8.954 -20,20 0,11.046 8.954,20 20,20" /></g><g
           transform="translate(42,194)"
           id="g110"><path
             id="path112"
             style="fill:#999999;fill-opacity:1;fill-rule:nonzero;stroke:none"
             d="m 0,0 c 11.046,0 20,-8.954 20,-20 0,-11.046 -8.954,-20 -20,-20 -11.046,0 -20,8.954 -20,20 0,11.046 8.954,20 20,20" /></g><g
           transform="translate(214,194)"
           id="g114"><path
             id="path116"
             style="fill:#999999;fill-opacity:1;fill-rule:nonzero;stroke:none"
             d="m 0,0 c 11.046,0 20,-8.954 20,-20 0,-11.046 -8.954,-20 -20,-20 -11.046,0 -20,8.954 -20,20 0,11.046 8.954,20 20,20" /></g></g></g></g></svg>