<?xml version="1.0" encoding="UTF-8" standalone="no"?>
<svg
   xmlns:dc="http://purl.org/dc/elements/1.1/"
   xmlns:cc="http://creativecommons.org/ns#"
   xmlns:rdf="http://www.w3.org/1999/02/22-rdf-syntax-ns#"
   xmlns:svg="http://www.w3.org/2000/svg"
   xmlns="http://www.w3.org/2000/svg"
   viewBox="0 0 304 301.37198"
   height="301.37198"
   width="304"
   xml:space="preserve"
   id="svg2"
   version="1.1"><metadata
     id="metadata8"><rdf:RDF><cc:Work
         rdf:about=""><dc:format>image/svg+xml</dc:format><dc:type
           rdf:resource="http://purl.org/dc/dcmitype/StillImage" /></cc:Work></rdf:RDF></metadata><defs
     id="defs6"><clipPath
       id="clipPath18"
       clipPathUnits="userSpaceOnUse"><path
         id="path16"
         d="M 116.603,240.739 26,234.948 c 0,0 -12,0 -12,-11.99 v 0 V 175 h 48 c 0,0 20,19.982 64,19.982 v 0 c 44,0 64,-19.982 64,-19.982 v 0 h 52 v 47.958 c 0,0 0,11.99 -12,11.99 v 0 c -9.795,0 -73.551,4.215 -96.656,5.765 v 0 c -2.854,0.191 -5.713,0.287 -8.571,0.287 v 0 c -2.724,0 -5.448,-0.087 -8.17,-0.261" /></clipPath><linearGradient
       id="linearGradient28"
       spreadMethod="pad"
       gradientTransform="matrix(140.64211,-140.64211,-140.64211,-140.64211,57.678844,271.96307)"
       gradientUnits="userSpaceOnUse"
       y2="0"
       x2="1"
       y1="0"
       x1="0"><stop
         id="stop24"
         offset="0"
         style="stop-opacity:1;stop-color:#e6e7e8" /><stop
         id="stop26"
         offset="1"
         style="stop-opacity:1;stop-color:#d1d3d4" /></linearGradient><clipPath
       id="clipPath38"
       clipPathUnits="userSpaceOnUse"><path
         id="path36"
         d="m 30,197.942 c 0,-2.208 1.791,-3.999 4,-3.999 v 0 c 2.209,0 4,1.791 4,3.999 v 0 c 0,2.21 -1.791,4 -4,4 v 0 c -2.209,0 -4,-1.79 -4,-4" /></clipPath><linearGradient
       id="linearGradient48"
       spreadMethod="pad"
       gradientTransform="matrix(5.6568542,-5.6568542,-5.6568542,-5.6568542,31.171574,200.77097)"
       gradientUnits="userSpaceOnUse"
       y2="0"
       x2="1"
       y1="0"
       x1="0"><stop
         id="stop44"
         offset="0"
         style="stop-opacity:1;stop-color:#e6e7e8" /><stop
         id="stop46"
         offset="1"
         style="stop-opacity:1;stop-color:#d1d3d4" /></linearGradient><clipPath
       id="clipPath58"
       clipPathUnits="userSpaceOnUse"><path
         id="path56"
         d="m 32,197.942 c 0,-1.104 0.896,-1.999 2,-1.999 v 0 c 1.105,0 2,0.895 2,1.999 v 0 c 0,1.105 -0.895,2 -2,2 v 0 c -1.104,0 -2,-0.895 -2,-2" /></clipPath><linearGradient
       id="linearGradient68"
       spreadMethod="pad"
       gradientTransform="matrix(-2.8284271,2.8284271,2.8284271,2.8284271,35.414215,196.52832)"
       gradientUnits="userSpaceOnUse"
       y2="0"
       x2="1"
       y1="0"
       x1="0"><stop
         id="stop64"
         offset="0"
         style="stop-opacity:1;stop-color:#e6e7e8" /><stop
         id="stop66"
         offset="1"
         style="stop-opacity:1;stop-color:#d1d3d4" /></linearGradient><clipPath
       id="clipPath78"
       clipPathUnits="userSpaceOnUse"><path
         id="path76"
         d="m 218,197.942 c 0,-2.208 1.791,-3.999 4,-3.999 v 0 c 2.209,0 4,1.791 4,3.999 v 0 c 0,2.21 -1.791,4 -4,4 v 0 c -2.209,0 -4,-1.79 -4,-4" /></clipPath><linearGradient
       id="linearGradient88"
       spreadMethod="pad"
       gradientTransform="matrix(5.6568542,-5.6568542,-5.6568542,-5.6568542,219.17157,200.77097)"
       gradientUnits="userSpaceOnUse"
       y2="0"
       x2="1"
       y1="0"
       x1="0"><stop
         id="stop84"
         offset="0"
         style="stop-opacity:1;stop-color:#e6e7e8" /><stop
         id="stop86"
         offset="1"
         style="stop-opacity:1;stop-color:#d1d3d4" /></linearGradient><clipPath
       id="clipPath98"
       clipPathUnits="userSpaceOnUse"><path
         id="path96"
         d="m 220,197.942 c 0,-1.104 0.895,-1.999 2,-1.999 v 0 c 1.105,0 2,0.895 2,1.999 v 0 c 0,1.105 -0.895,2 -2,2 v 0 c -1.105,0 -2,-0.895 -2,-2" /></clipPath><linearGradient
       id="linearGradient108"
       spreadMethod="pad"
       gradientTransform="matrix(-2.8284271,2.8284271,2.8284271,2.8284271,223.41422,196.52832)"
       gradientUnits="userSpaceOnUse"
       y2="0"
       x2="1"
       y1="0"
       x1="0"><stop
         id="stop104"
         offset="0"
         style="stop-opacity:1;stop-color:#e6e7e8" /><stop
         id="stop106"
         offset="1"
         style="stop-opacity:1;stop-color:#d1d3d4" /></linearGradient><clipPath
       id="clipPath118"
       clipPathUnits="userSpaceOnUse"><path
         id="path116"
         d="m 14,166.972 v -128 c 0,0 28,-24.001 112,-24.001 v 0 c 84,0 116,24.001 116,24.001 v 0 128 z" /></clipPath><linearGradient
       id="linearGradient128"
       spreadMethod="pad"
       gradientTransform="matrix(178,-178,-178,-178,39,191.97127)"
       gradientUnits="userSpaceOnUse"
       y2="0"
       x2="1"
       y1="0"
       x1="0"><stop
         id="stop124"
         offset="0"
         style="stop-opacity:1;stop-color:#e6e7e8" /><stop
         id="stop126"
         offset="1"
         style="stop-opacity:1;stop-color:#d1d3d4" /></linearGradient><clipPath
       id="clipPath138"
       clipPathUnits="userSpaceOnUse"><path
         id="path136"
         d="m 38,161.942 c -6.6,0 -12,-5.4 -12,-11.999 v 0 -72 c 0,-2.201 1.8,-4.001 4,-4.001 v 0 c 0,0 32,-20 96,-20 v 0 c 64,0 96,20 96,20 v 0 c 2.2,0 4,1.8 4,4.001 v 0 72 c 0,6.599 -5.4,11.999 -12,11.999 v 0 z" /></clipPath><linearGradient
       id="linearGradient148"
       spreadMethod="pad"
       gradientTransform="matrix(-139.3,139.3,139.3,139.3,195.65001,45.942528)"
       gradientUnits="userSpaceOnUse"
       y2="0"
       x2="1"
       y1="0"
       x1="0"><stop
         id="stop144"
         offset="0"
         style="stop-opacity:1;stop-color:#e6e7e8" /><stop
         id="stop146"
         offset="1"
         style="stop-opacity:1;stop-color:#d1d3d4" /></linearGradient><clipPath
       id="clipPath158"
       clipPathUnits="userSpaceOnUse"><path
         id="path156"
         d="M 0,256 H 256 V 0 H 0 Z" /></clipPath><clipPath
       id="clipPath174"
       clipPathUnits="userSpaceOnUse"><path
         id="path172"
         d="m 38,222.971 v -48 h 24 v 40 h 128 v -40 h 28 v 48 z" /></clipPath><linearGradient
       id="linearGradient184"
       spreadMethod="pad"
       gradientTransform="matrix(-114,114,114,114,185,141.97127)"
       gradientUnits="userSpaceOnUse"
       y2="0"
       x2="1"
       y1="0"
       x1="0"><stop
         id="stop180"
         offset="0"
         style="stop-opacity:1;stop-color:#e6e7e8" /><stop
         id="stop182"
         offset="1"
         style="stop-opacity:1;stop-color:#d1d3d4" /></linearGradient><clipPath
       id="clipPath194"
       clipPathUnits="userSpaceOnUse"><path
         id="path192"
         d="M 0,256 H 256 V 0 H 0 Z" /></clipPath><clipPath
       id="clipPath206"
       clipPathUnits="userSpaceOnUse"><path
         id="path204"
         d="m 62,214.971 v -40 c 0,0 20,20 64,20 v 0 c 44,0 64,-20 64,-20 v 0 40 z" /></clipPath><linearGradient
       id="linearGradient216"
       spreadMethod="pad"
       gradientTransform="matrix(84,-84,-84,-84,84,236.97127)"
       gradientUnits="userSpaceOnUse"
       y2="0"
       x2="1"
       y1="0"
       x1="0"><stop
         id="stop212"
         offset="0"
         style="stop-opacity:1;stop-color:#e6e7e8" /><stop
         id="stop214"
         offset="1"
         style="stop-opacity:1;stop-color:#d1d3d4" /></linearGradient></defs><g
     transform="matrix(1.3333333,0,0,-1.3333333,-18.666666,321.33333)"
     id="g10"><g
       id="g12"><g
         clip-path="url(#clipPath18)"
         id="g14"><g
           id="g20"><g
             id="g22"><path
               id="path30"
               style="fill:url(#linearGradient28);stroke:none"
               d="M 116.603,240.739 26,234.948 c 0,0 -12,0 -12,-11.99 v 0 V 175 h 48 c 0,0 20,19.982 64,19.982 v 0 c 44,0 64,-19.982 64,-19.982 v 0 h 52 v 47.958 c 0,0 0,11.99 -12,11.99 v 0 c -9.795,0 -73.551,4.215 -96.656,5.765 v 0 c -2.854,0.191 -5.713,0.287 -8.571,0.287 v 0 c -2.724,0 -5.448,-0.087 -8.17,-0.261" /></g></g></g></g><g
       id="g32"><g
         clip-path="url(#clipPath38)"
         id="g34"><g
           id="g40"><g
             id="g42"><path
               id="path50"
               style="fill:url(#linearGradient48);stroke:none"
               d="m 30,197.942 c 0,-2.208 1.791,-3.999 4,-3.999 v 0 c 2.209,0 4,1.791 4,3.999 v 0 c 0,2.21 -1.791,4 -4,4 v 0 c -2.209,0 -4,-1.79 -4,-4" /></g></g></g></g><g
       id="g52"><g
         clip-path="url(#clipPath58)"
         id="g54"><g
           id="g60"><g
             id="g62"><path
               id="path70"
               style="fill:url(#linearGradient68);stroke:none"
               d="m 32,197.942 c 0,-1.104 0.896,-1.999 2,-1.999 v 0 c 1.105,0 2,0.895 2,1.999 v 0 c 0,1.105 -0.895,2 -2,2 v 0 c -1.104,0 -2,-0.895 -2,-2" /></g></g></g></g><g
       id="g72"><g
         clip-path="url(#clipPath78)"
         id="g74"><g
           id="g80"><g
             id="g82"><path
               id="path90"
               style="fill:url(#linearGradient88);stroke:none"
               d="m 218,197.942 c 0,-2.208 1.791,-3.999 4,-3.999 v 0 c 2.209,0 4,1.791 4,3.999 v 0 c 0,2.21 -1.791,4 -4,4 v 0 c -2.209,0 -4,-1.79 -4,-4" /></g></g></g></g><g
       id="g92"><g
         clip-path="url(#clipPath98)"
         id="g94"><g
           id="g100"><g
             id="g102"><path
               id="path110"
               style="fill:url(#linearGradient108);stroke:none"
               d="m 220,197.942 c 0,-1.104 0.895,-1.999 2,-1.999 v 0 c 1.105,0 2,0.895 2,1.999 v 0 c 0,1.105 -0.895,2 -2,2 v 0 c -1.105,0 -2,-0.895 -2,-2" /></g></g></g></g><g
       id="g112"><g
         clip-path="url(#clipPath118)"
         id="g114"><g
           id="g120"><g
             id="g122"><path
               id="path130"
               style="fill:url(#linearGradient128);stroke:none"
               d="m 14,166.972 v -128 c 0,0 28,-24.001 112,-24.001 v 0 c 84,0 116,24.001 116,24.001 v 0 128 z" /></g></g></g></g><g
       id="g132"><g
         clip-path="url(#clipPath138)"
         id="g134"><g
           id="g140"><g
             id="g142"><path
               id="path150"
               style="fill:url(#linearGradient148);stroke:none"
               d="m 38,161.942 c -6.6,0 -12,-5.4 -12,-11.999 v 0 -72 c 0,-2.201 1.8,-4.001 4,-4.001 v 0 c 0,0 32,-20 96,-20 v 0 c 64,0 96,20 96,20 v 0 c 2.2,0 4,1.8 4,4.001 v 0 72 c 0,6.599 -5.4,11.999 -12,11.999 v 0 z" /></g></g></g></g><g
       id="g152"><g
         clip-path="url(#clipPath158)"
         id="g154"><g
           transform="translate(110,33.9424)"
           id="g160"><path
             id="path162"
             style="fill:#d9d9d9;fill-opacity:1;fill-rule:nonzero;stroke:none"
             d="M 0,0 H 32 L 16,-12 Z" /></g><g
           transform="translate(38,157.9424)"
           id="g164"><path
             id="path166"
             style="fill:#ffffff;fill-opacity:1;fill-rule:nonzero;stroke:none"
             d="m 0,0 c 0,0 -8,0 -8,-8 v -72 c 0,0 36,-20 96,-20 60,0 96,20 96,20 v 72 c 0,0 0,8 -8,8 z" /></g></g></g><g
       id="g168"><g
         clip-path="url(#clipPath174)"
         id="g170"><g
           id="g176"><g
             id="g178"><path
               id="path186"
               style="fill:url(#linearGradient184);stroke:none"
               d="m 38,222.971 v -48 h 24 v 40 h 128 v -40 h 28 v 48 z" /></g></g></g></g><g
       id="g188"><g
         clip-path="url(#clipPath194)"
         id="g190"><g
           transform="translate(218,174.9712)"
           id="g196"><path
             id="path198"
             style="fill:#999999;fill-opacity:1;fill-rule:nonzero;stroke:none"
             d="M 0,0 H -28 V 20 H -156 V 0 h -24 -24 v -8 h 24 24 128 28 24 v 8 z" /></g></g></g><g
       id="g200"><g
         clip-path="url(#clipPath206)"
         id="g202"><g
           id="g208"><g
             id="g210"><path
               id="path218"
               style="fill:url(#linearGradient216);stroke:none"
               d="m 62,214.971 v -40 c 0,0 20,20 64,20 v 0 c 44,0 64,-20 64,-20 v 0 40 z" /></g></g></g></g></g></svg>