<?xml version="1.0" encoding="UTF-8" standalone="no"?>
<svg
   xmlns:dc="http://purl.org/dc/elements/1.1/"
   xmlns:cc="http://creativecommons.org/ns#"
   xmlns:rdf="http://www.w3.org/1999/02/22-rdf-syntax-ns#"
   xmlns:svg="http://www.w3.org/2000/svg"
   xmlns="http://www.w3.org/2000/svg"
   viewBox="0 0 192 309.33331"
   height="309.33331"
   width="192"
   xml:space="preserve"
   id="svg2"
   version="1.1"><metadata
     id="metadata8"><rdf:RDF><cc:Work
         rdf:about=""><dc:format>image/svg+xml</dc:format><dc:type
           rdf:resource="http://purl.org/dc/dcmitype/StillImage" /></cc:Work></rdf:RDF></metadata><defs
     id="defs6"><clipPath
       id="clipPath18"
       clipPathUnits="userSpaceOnUse"><path
         id="path16"
         d="M 158.315,244 H 97.684 63.203 C 59.225,244 56,240.816 56,236.887 v 0 V 202.838 180.759 75.242 53.161 19.112 C 56,15.185 59.225,12 63.203,12 v 0 h 34.481 23.113 37.518 C 181.337,12 200,30.429 200,53.161 v 0 22.081 127.596 34.049 c 0,3.929 -3.225,7.113 -7.203,7.113 v 0 z" /></clipPath><linearGradient
       id="linearGradient28"
       spreadMethod="pad"
       gradientTransform="matrix(173.77174,-173.77174,-173.77174,-173.77174,36.096409,219.90367)"
       gradientUnits="userSpaceOnUse"
       y2="0"
       x2="1"
       y1="0"
       x1="0"><stop
         id="stop24"
         offset="0"
         style="stop-opacity:1;stop-color:#e6e7e8" /><stop
         id="stop26"
         offset="1"
         style="stop-opacity:1;stop-color:#d1d3d4" /></linearGradient><clipPath
       id="clipPath38"
       clipPathUnits="userSpaceOnUse"><path
         id="path36"
         d="M 0,256 H 256 V 0 H 0 Z" /></clipPath><clipPath
       id="clipPath50"
       clipPathUnits="userSpaceOnUse"><path
         id="path48"
         d="M 164,214 H 92 90 v -2 -68 -2 h 2 72 2 v 2 68 2 z" /></clipPath><linearGradient
       id="linearGradient60"
       spreadMethod="pad"
       gradientTransform="matrix(-74,74,74,74,164.99995,141)"
       gradientUnits="userSpaceOnUse"
       y2="0"
       x2="1"
       y1="0"
       x1="0"><stop
         id="stop56"
         offset="0"
         style="stop-opacity:1;stop-color:#e6e7e8" /><stop
         id="stop58"
         offset="1"
         style="stop-opacity:1;stop-color:#d1d3d4" /></linearGradient><clipPath
       id="clipPath70"
       clipPathUnits="userSpaceOnUse"><path
         id="path68"
         d="m 92,144 h 72 v 68 H 92 Z" /></clipPath><linearGradient
       id="linearGradient80"
       spreadMethod="pad"
       gradientTransform="matrix(70,-70,-70,-70,92.999954,213)"
       gradientUnits="userSpaceOnUse"
       y2="0"
       x2="1"
       y1="0"
       x1="0"><stop
         id="stop76"
         offset="0"
         style="stop-opacity:1;stop-color:#e6e7e8" /><stop
         id="stop78"
         offset="1"
         style="stop-opacity:1;stop-color:#d1d3d4" /></linearGradient><clipPath
       id="clipPath90"
       clipPathUnits="userSpaceOnUse"><path
         id="path88"
         d="m 176.024,109.309 -0.001,0.002 -0.036,-0.016 c -0.714,-0.255 -31.37,-14.563 -31.943,-14.892 v 0 L 144,94.383 144.002,94.378 C 140.42,92.299 138,88.43 138,84 v 0 c 0,-6.617 5.383,-12 12,-12 v 0 c 1.285,0 2.52,0.208 3.681,0.583 v 0 l 10e-4,-0.002 0.033,0.015 c 0.888,0.29 31.798,14.754 31.798,14.754 v 0 l -0.001,0.002 C 189.361,89.353 192,93.37 192,98 v 0 c 0,6.617 -5.383,12 -12,12 v 0 c -1.395,0 -2.73,-0.251 -3.976,-0.691" /></clipPath><linearGradient
       id="linearGradient100"
       spreadMethod="pad"
       gradientTransform="matrix(-24.951136,24.951136,24.951136,24.951136,177.47646,78.523544)"
       gradientUnits="userSpaceOnUse"
       y2="0"
       x2="1"
       y1="0"
       x1="0"><stop
         id="stop96"
         offset="0"
         style="stop-opacity:1;stop-color:#e6e7e8" /><stop
         id="stop98"
         offset="1"
         style="stop-opacity:1;stop-color:#d1d3d4" /></linearGradient><clipPath
       id="clipPath110"
       clipPathUnits="userSpaceOnUse"><path
         id="path108"
         d="M 0,256 H 256 V 0 H 0 Z" /></clipPath><clipPath
       id="clipPath138"
       clipPathUnits="userSpaceOnUse"><path
         id="path136"
         d="m 151.328,41.1985 h 14.667 v -21.601 h -14.667 z" /></clipPath><clipPath
       id="clipPath154"
       clipPathUnits="userSpaceOnUse"><path
         id="path152"
         d="M 158.663,44.799 H 173.33 V 23.1981 h -14.667 z" /></clipPath><clipPath
       id="clipPath170"
       clipPathUnits="userSpaceOnUse"><path
         id="path168"
         d="m 165.998,48.3995 h 14.667 V 26.7986 h -14.667 z" /></clipPath><clipPath
       id="clipPath186"
       clipPathUnits="userSpaceOnUse"><path
         id="path184"
         d="M 173.333,52 H 188 V 30.3991 h -14.667 z" /></clipPath><clipPath
       id="clipPath202"
       clipPathUnits="userSpaceOnUse"><path
         id="path200"
         d="m 76,189.927 c 0,-1.104 0.895,-2 2,-2 v 0 c 1.105,0 2,0.896 2,2 v 0 c 0,1.104 -0.895,2 -2,2 v 0 c -1.105,0 -2,-0.896 -2,-2" /></clipPath><linearGradient
       id="linearGradient212"
       spreadMethod="pad"
       gradientTransform="matrix(2.8284271,-2.8284271,-2.8284271,-2.8284271,76.585785,191.34129)"
       gradientUnits="userSpaceOnUse"
       y2="0"
       x2="1"
       y1="0"
       x1="0"><stop
         id="stop208"
         offset="0"
         style="stop-opacity:1;stop-color:#e6e7e8" /><stop
         id="stop210"
         offset="1"
         style="stop-opacity:1;stop-color:#d1d3d4" /></linearGradient><clipPath
       id="clipPath222"
       clipPathUnits="userSpaceOnUse"><path
         id="path220"
         d="m 76,222 h 104 v 2 H 76 Z" /></clipPath><linearGradient
       id="linearGradient232"
       spreadMethod="pad"
       gradientTransform="matrix(52.999996,-52.999996,-52.999996,-52.999996,101.5,249.5)"
       gradientUnits="userSpaceOnUse"
       y2="0"
       x2="1"
       y1="0"
       x1="0"><stop
         id="stop228"
         offset="0"
         style="stop-opacity:1;stop-color:#e6e7e8" /><stop
         id="stop230"
         offset="1"
         style="stop-opacity:1;stop-color:#d1d3d4" /></linearGradient><clipPath
       id="clipPath242"
       clipPathUnits="userSpaceOnUse"><path
         id="path240"
         d="m 76,218 h 104 v 2 H 76 Z" /></clipPath><linearGradient
       id="linearGradient252"
       spreadMethod="pad"
       gradientTransform="matrix(52.999996,-52.999996,-52.999996,-52.999996,101.5,245.5)"
       gradientUnits="userSpaceOnUse"
       y2="0"
       x2="1"
       y1="0"
       x1="0"><stop
         id="stop248"
         offset="0"
         style="stop-opacity:1;stop-color:#e6e7e8" /><stop
         id="stop250"
         offset="1"
         style="stop-opacity:1;stop-color:#d1d3d4" /></linearGradient><clipPath
       id="clipPath262"
       clipPathUnits="userSpaceOnUse"><path
         id="path260"
         d="M 0,256 H 256 V 0 H 0 Z" /></clipPath><clipPath
       id="clipPath274"
       clipPathUnits="userSpaceOnUse"><path
         id="path272"
         d="m 80,84 c 0,-2.209 1.791,-4 4,-4 v 0 c 2.209,0 4,1.791 4,4 v 0 c 0,2.209 -1.791,4 -4,4 v 0 c -2.209,0 -4,-1.791 -4,-4" /></clipPath><linearGradient
       id="linearGradient284"
       spreadMethod="pad"
       gradientTransform="matrix(5.6568542,-5.6568542,-5.6568542,-5.6568542,81.17157,86.82843)"
       gradientUnits="userSpaceOnUse"
       y2="0"
       x2="1"
       y1="0"
       x1="0"><stop
         id="stop280"
         offset="0"
         style="stop-opacity:1;stop-color:#e6e7e8" /><stop
         id="stop282"
         offset="1"
         style="stop-opacity:1;stop-color:#d1d3d4" /></linearGradient><clipPath
       id="clipPath294"
       clipPathUnits="userSpaceOnUse"><path
         id="path292"
         d="M 184,244 V 234 H 72 v 10 H 70 V 234 H 56 v -2 h 14 2 112 2 14 v 2 h -14 v 10 z" /></clipPath><linearGradient
       id="linearGradient304"
       spreadMethod="pad"
       gradientTransform="matrix(-73,73,73,73,164.5,196.5)"
       gradientUnits="userSpaceOnUse"
       y2="0"
       x2="1"
       y1="0"
       x1="0"><stop
         id="stop300"
         offset="0"
         style="stop-opacity:1;stop-color:#e6e7e8" /><stop
         id="stop302"
         offset="1"
         style="stop-opacity:1;stop-color:#d1d3d4" /></linearGradient><clipPath
       id="clipPath314"
       clipPathUnits="userSpaceOnUse"><path
         id="path312"
         d="m 88,244 v -4 h -2 v 4 h -2 v -4 h -2 v 4 h -2 v -4 h -2 c -1.105,0 -2,-0.895 -2,-2 v 0 c 0,-1.105 0.895,-2 2,-2 v 0 h 24 c 1.105,0 2,0.895 2,2 v 0 c 0,1.105 -0.895,2 -2,2 v 0 H 90 v 4 z" /></clipPath><linearGradient
       id="linearGradient324"
       spreadMethod="pad"
       gradientTransform="matrix(-15.414207,15.414207,15.414207,15.414207,97.414215,230.5858)"
       gradientUnits="userSpaceOnUse"
       y2="0"
       x2="1"
       y1="0"
       x1="0"><stop
         id="stop320"
         offset="0"
         style="stop-opacity:1;stop-color:#e6e7e8" /><stop
         id="stop322"
         offset="1"
         style="stop-opacity:1;stop-color:#d1d3d4" /></linearGradient><clipPath
       id="clipPath334"
       clipPathUnits="userSpaceOnUse"><path
         id="path332"
         d="m 106,20 c -1.105,0 -2,-0.896 -2,-2 v 0 c 0,-1.104 0.895,-2 2,-2 v 0 h 12 v -4 h 2 v 4 h 2 v -4 h 2 v 4 h 2 v -4 h 2 v 4 h 2 c 1.105,0 2,0.896 2,2 v 0 c 0,1.104 -0.895,2 -2,2 v 0 z" /></clipPath><linearGradient
       id="linearGradient344"
       spreadMethod="pad"
       gradientTransform="matrix(-15.414207,15.414207,15.414207,15.414207,125.99999,9.9999943)"
       gradientUnits="userSpaceOnUse"
       y2="0"
       x2="1"
       y1="0"
       x1="0"><stop
         id="stop340"
         offset="0"
         style="stop-opacity:1;stop-color:#e6e7e8" /><stop
         id="stop342"
         offset="1"
         style="stop-opacity:1;stop-color:#d1d3d4" /></linearGradient></defs><g
     transform="matrix(1.3333333,0,0,-1.3333333,-74.666665,325.33333)"
     id="g10"><g
       id="g12"><g
         clip-path="url(#clipPath18)"
         id="g14"><g
           id="g20"><g
             id="g22"><path
               id="path30"
               style="fill:url(#linearGradient28);stroke:none"
               d="M 158.315,244 H 97.684 63.203 C 59.225,244 56,240.816 56,236.887 v 0 V 202.838 180.759 75.242 53.161 19.112 C 56,15.185 59.225,12 63.203,12 v 0 h 34.481 23.113 37.518 C 181.337,12 200,30.429 200,53.161 v 0 22.081 127.596 34.049 c 0,3.929 -3.225,7.113 -7.203,7.113 v 0 z" /></g></g></g></g><g
       id="g32"><g
         clip-path="url(#clipPath38)"
         id="g34"><g
           transform="translate(184.2498,228)"
           id="g40"><path
             id="path42"
             style="fill:#999999;fill-opacity:1;fill-rule:nonzero;stroke:none"
             d="m 0,0 h -112.5 c -2.071,0 -3.75,-1.648 -3.75,-3.68 v -84.818 c 0,-1.934 1.598,-3.502 3.569,-3.502 h 52.863 41.068 c 12.427,0 22.5,9.886 22.5,22.08 V -3.68 C 3.75,-1.648 2.071,0 0,0" /></g></g></g><g
       id="g44"><g
         clip-path="url(#clipPath50)"
         id="g46"><g
           id="g52"><g
             id="g54"><path
               id="path62"
               style="fill:url(#linearGradient60);stroke:none"
               d="M 164,214 H 92 90 v -2 -68 -2 h 2 72 2 v 2 68 2 z" /></g></g></g></g><g
       id="g64"><g
         clip-path="url(#clipPath70)"
         id="g66"><g
           id="g72"><g
             id="g74"><path
               id="path82"
               style="fill:url(#linearGradient80);stroke:none"
               d="m 92,144 h 72 v 68 H 92 Z" /></g></g></g></g><g
       id="g84"><g
         clip-path="url(#clipPath90)"
         id="g86"><g
           id="g92"><g
             id="g94"><path
               id="path102"
               style="fill:url(#linearGradient100);stroke:none"
               d="m 176.024,109.309 -0.001,0.002 -0.036,-0.016 c -0.714,-0.255 -31.37,-14.563 -31.943,-14.892 v 0 L 144,94.383 144.002,94.378 C 140.42,92.299 138,88.43 138,84 v 0 c 0,-6.617 5.383,-12 12,-12 v 0 c 1.285,0 2.52,0.208 3.681,0.583 v 0 l 10e-4,-0.002 0.033,0.015 c 0.888,0.29 31.798,14.754 31.798,14.754 v 0 l -0.001,0.002 C 189.361,89.353 192,93.37 192,98 v 0 c 0,6.617 -5.383,12 -12,12 v 0 c -1.395,0 -2.73,-0.251 -3.976,-0.691" /></g></g></g></g><g
       id="g104"><g
         clip-path="url(#clipPath110)"
         id="g106"><g
           transform="translate(160,84)"
           id="g112"><path
             id="path114"
             style="fill:#999999;fill-opacity:1;fill-rule:nonzero;stroke:none"
             d="m 0,0 c 0,-5.523 -4.477,-10 -10,-10 -5.523,0 -10,4.477 -10,10 0,5.523 4.477,10 10,10 C -4.477,10 0,5.523 0,0" /></g><g
           transform="translate(190,98)"
           id="g116"><path
             id="path118"
             style="fill:#999999;fill-opacity:1;fill-rule:nonzero;stroke:none"
             d="m 0,0 c 0,-5.523 -4.477,-10 -10,-10 -5.523,0 -10,4.477 -10,10 0,5.523 4.477,10 10,10 C -4.477,10 0,5.523 0,0" /></g><g
           transform="translate(115.3781,55.9179)"
           id="g120"><path
             id="path122"
             style="fill:#999999;fill-opacity:1;fill-rule:nonzero;stroke:none"
             d="M 0,0 C -0.774,0.181 -1.62,0.06 -2.326,-0.332 L -13.897,-6.85 c -1.389,-0.785 -1.885,-2.402 -1.127,-3.687 0.389,-0.654 1.037,-1.113 1.825,-1.296 0.243,-0.056 0.489,-0.083 0.732,-0.083 0.553,0 1.098,0.141 1.589,0.418 L 0.691,-4.981 C 2.087,-4.198 2.583,-2.579 1.82,-1.298 1.437,-0.646 0.789,-0.185 0,0" /></g><g
           transform="translate(143.6458,54.6202)"
           id="g124"><path
             id="path126"
             style="fill:#999999;fill-opacity:1;fill-rule:nonzero;stroke:none"
             d="m 0,0 c -0.384,0.654 -1.032,1.113 -1.823,1.298 -0.781,0.18 -1.627,0.06 -2.323,-0.335 l -11.569,-6.517 c -1.396,-0.783 -1.892,-2.402 -1.129,-3.683 0.379,-0.644 1.043,-1.117 1.825,-1.3 0.243,-0.056 0.488,-0.083 0.734,-0.083 0.55,0 1.098,0.141 1.587,0.417 l 11.571,6.518 C 0.262,-2.901 0.758,-1.283 0,0" /></g><g
           transform="translate(147.4166,36.7218)"
           id="g128"><path
             id="path130"
             style="fill:#999999;fill-opacity:1;fill-rule:nonzero;stroke:none"
             d="m 0,0 10.989,-18.109 c 0.503,-0.827 0.216,-1.88 -0.641,-2.35 l -0.067,-0.037 C 9.424,-20.967 8.322,-20.677 7.82,-19.849 L -3.169,-1.741 c -0.503,0.828 -0.216,1.88 0.641,2.351 L -2.46,0.647 C -1.604,1.117 -0.502,0.828 0,0" /></g><g
           id="g132"><g
             id="g134" /><g
             id="g146"><g
               style="opacity:0.777771"
               id="g144"
               clip-path="url(#clipPath138)"><g
                 id="g142"
                 transform="translate(154.748,40.3253)"><path
                   id="path140"
                   style="fill:#999999;fill-opacity:1;fill-rule:nonzero;stroke:none"
                   d="m 0,0 10.999,-18.113 c 0.503,-0.829 0.216,-1.882 -0.641,-2.352 l -0.068,-0.037 c -0.857,-0.471 -1.96,-0.181 -2.463,0.647 L -3.172,-1.741 c -0.503,0.828 -0.216,1.881 0.641,2.352 l 0.068,0.037 C -1.606,1.118 -0.503,0.828 0,0" /></g></g></g></g><g
           id="g148"><g
             id="g150" /><g
             id="g162"><g
               style="opacity:0.777771"
               id="g160"
               clip-path="url(#clipPath154)"><g
                 id="g158"
                 transform="translate(162.0831,43.9258)"><path
                   id="path156"
                   style="fill:#999999;fill-opacity:1;fill-rule:nonzero;stroke:none"
                   d="m 0,0 10.999,-18.113 c 0.503,-0.829 0.216,-1.882 -0.641,-2.352 l -0.068,-0.037 c -0.857,-0.471 -1.96,-0.181 -2.463,0.647 L -3.172,-1.741 c -0.503,0.828 -0.216,1.881 0.641,2.352 l 0.068,0.037 C -1.606,1.118 -0.503,0.828 0,0" /></g></g></g></g><g
           id="g164"><g
             id="g166" /><g
             id="g178"><g
               style="opacity:0.777771"
               id="g176"
               clip-path="url(#clipPath170)"><g
                 id="g174"
                 transform="translate(169.418,47.5264)"><path
                   id="path172"
                   style="fill:#999999;fill-opacity:1;fill-rule:nonzero;stroke:none"
                   d="m 0,0 10.999,-18.113 c 0.503,-0.829 0.216,-1.882 -0.641,-2.352 l -0.068,-0.037 c -0.857,-0.471 -1.96,-0.181 -2.463,0.647 L -3.172,-1.741 c -0.503,0.828 -0.216,1.881 0.641,2.352 l 0.068,0.037 C -1.606,1.118 -0.503,0.828 0,0" /></g></g></g></g><g
           id="g180"><g
             id="g182" /><g
             id="g194"><g
               style="opacity:0.777771"
               id="g192"
               clip-path="url(#clipPath186)"><g
                 id="g190"
                 transform="translate(176.753,51.1269)"><path
                   id="path188"
                   style="fill:#999999;fill-opacity:1;fill-rule:nonzero;stroke:none"
                   d="m 0,0 10.999,-18.113 c 0.503,-0.829 0.216,-1.882 -0.641,-2.352 l -0.068,-0.037 c -0.857,-0.471 -1.96,-0.181 -2.463,0.647 L -3.172,-1.741 c -0.503,0.828 -0.216,1.881 0.641,2.352 l 0.068,0.037 C -1.606,1.118 -0.503,0.828 0,0" /></g></g></g></g></g></g><g
       id="g196"><g
         clip-path="url(#clipPath202)"
         id="g198"><g
           id="g204"><g
             id="g206"><path
               id="path214"
               style="fill:url(#linearGradient212);stroke:none"
               d="m 76,189.927 c 0,-1.104 0.895,-2 2,-2 v 0 c 1.105,0 2,0.896 2,2 v 0 c 0,1.104 -0.895,2 -2,2 v 0 c -1.105,0 -2,-0.896 -2,-2" /></g></g></g></g><g
       id="g216"><g
         clip-path="url(#clipPath222)"
         id="g218"><g
           id="g224"><g
             id="g226"><path
               id="path234"
               style="fill:url(#linearGradient232);stroke:none"
               d="m 76,222 h 104 v 2 H 76 Z" /></g></g></g></g><g
       id="g236"><g
         clip-path="url(#clipPath242)"
         id="g238"><g
           id="g244"><g
             id="g246"><path
               id="path254"
               style="fill:url(#linearGradient252);stroke:none"
               d="m 76,218 h 104 v 2 H 76 Z" /></g></g></g></g><g
       id="g256"><g
         clip-path="url(#clipPath262)"
         id="g258"><g
           transform="translate(98,89)"
           id="g264"><path
             id="path266"
             style="fill:#999999;fill-opacity:1;fill-rule:nonzero;stroke:none"
             d="m 0,0 h -9 v 8 c 0,1.65 -1.35,3 -3,3 h -4 c -1.65,0 -3,-1.35 -3,-3 V 0 h -9 c -1.1,0 -2,-0.9 -2,-2 v -6 c 0,-1.1 0.9,-2 2,-2 h 9 v -8 c 0,-1.65 1.35,-3 3,-3 h 4 c 1.65,0 3,1.35 3,3 v 8 h 9 c 1.1,0 2,0.9 2,2 v 6 C 2,-0.9 1.1,0 0,0" /></g></g></g><g
       id="g268"><g
         clip-path="url(#clipPath274)"
         id="g270"><g
           id="g276"><g
             id="g278"><path
               id="path286"
               style="fill:url(#linearGradient284);stroke:none"
               d="m 80,84 c 0,-2.209 1.791,-4 4,-4 v 0 c 2.209,0 4,1.791 4,4 v 0 c 0,2.209 -1.791,4 -4,4 v 0 c -2.209,0 -4,-1.791 -4,-4" /></g></g></g></g><g
       id="g288"><g
         clip-path="url(#clipPath294)"
         id="g290"><g
           id="g296"><g
             id="g298"><path
               id="path306"
               style="fill:url(#linearGradient304);stroke:none"
               d="M 184,244 V 234 H 72 v 10 H 70 V 234 H 56 v -2 h 14 2 112 2 14 v 2 h -14 v 10 z" /></g></g></g></g><g
       id="g308"><g
         clip-path="url(#clipPath314)"
         id="g310"><g
           id="g316"><g
             id="g318"><path
               id="path326"
               style="fill:url(#linearGradient324);stroke:none"
               d="m 88,244 v -4 h -2 v 4 h -2 v -4 h -2 v 4 h -2 v -4 h -2 c -1.105,0 -2,-0.895 -2,-2 v 0 c 0,-1.105 0.895,-2 2,-2 v 0 h 24 c 1.105,0 2,0.895 2,2 v 0 c 0,1.105 -0.895,2 -2,2 v 0 H 90 v 4 z" /></g></g></g></g><g
       id="g328"><g
         clip-path="url(#clipPath334)"
         id="g330"><g
           id="g336"><g
             id="g338"><path
               id="path346"
               style="fill:url(#linearGradient344);stroke:none"
               d="m 106,20 c -1.105,0 -2,-0.896 -2,-2 v 0 c 0,-1.104 0.895,-2 2,-2 v 0 h 12 v -4 h 2 v 4 h 2 v -4 h 2 v 4 h 2 v -4 h 2 v 4 h 2 c 1.105,0 2,0.896 2,2 v 0 c 0,1.104 -0.895,2 -2,2 v 0 z" /></g></g></g></g></g></svg>