<?xml version="1.0" encoding="UTF-8" standalone="no"?>
<svg
   xmlns:dc="http://purl.org/dc/elements/1.1/"
   xmlns:cc="http://creativecommons.org/ns#"
   xmlns:rdf="http://www.w3.org/1999/02/22-rdf-syntax-ns#"
   xmlns:svg="http://www.w3.org/2000/svg"
   xmlns="http://www.w3.org/2000/svg"
   viewBox="0 0 288 309.33331"
   height="309.33331"
   width="288"
   xml:space="preserve"
   id="svg2"
   version="1.1"><metadata
     id="metadata8"><rdf:RDF><cc:Work
         rdf:about=""><dc:format>image/svg+xml</dc:format><dc:type
           rdf:resource="http://purl.org/dc/dcmitype/StillImage" /></cc:Work></rdf:RDF></metadata><defs
     id="defs6"><clipPath
       id="clipPath18"
       clipPathUnits="userSpaceOnUse"><path
         id="path16"
         d="M 29.818,244 C 24.395,244 20,239.673 20,234.333 v 0 V 36.167 C 20,22.82 30.99,12 44.546,12 v 0 H 226 c 1.104,0 2,0.895 2,2 v 0 14 h 8 v 206.333 c 0,5.34 -4.396,9.667 -9.818,9.667 v 0 z" /></clipPath><linearGradient
       id="linearGradient28"
       spreadMethod="pad"
       gradientTransform="matrix(216,0,0,-216,20,128)"
       gradientUnits="userSpaceOnUse"
       y2="0"
       x2="1"
       y1="0"
       x1="0"><stop
         id="stop24"
         offset="0"
         style="stop-opacity:1;stop-color:#e6e7e8" /><stop
         id="stop26"
         offset="1"
         style="stop-opacity:1;stop-color:#d1d3d4" /></linearGradient><clipPath
       id="clipPath38"
       clipPathUnits="userSpaceOnUse"><path
         id="path36"
         d="M 228,32 V 16 h 6 c 1.104,0 2,0.896 2,2 v 0 14 z" /></clipPath><linearGradient
       id="linearGradient48"
       spreadMethod="pad"
       gradientTransform="matrix(-11.414213,11.414213,11.414213,11.414213,237.41422,18.585787)"
       gradientUnits="userSpaceOnUse"
       y2="0"
       x2="1"
       y1="0"
       x1="0"><stop
         id="stop44"
         offset="0"
         style="stop-opacity:1;stop-color:#e6e7e8" /><stop
         id="stop46"
         offset="1"
         style="stop-opacity:1;stop-color:#d1d3d4" /></linearGradient><clipPath
       id="clipPath58"
       clipPathUnits="userSpaceOnUse"><path
         id="path56"
         d="m 116,32 12,-8 12,8 z" /></clipPath><linearGradient
       id="linearGradient68"
       spreadMethod="pad"
       gradientTransform="matrix(-11.999999,11.999999,11.999999,11.999999,134,26)"
       gradientUnits="userSpaceOnUse"
       y2="0"
       x2="1"
       y1="0"
       x1="0"><stop
         id="stop64"
         offset="0"
         style="stop-opacity:1;stop-color:#e6e7e8" /><stop
         id="stop66"
         offset="1"
         style="stop-opacity:1;stop-color:#d1d3d4" /></linearGradient><clipPath
       id="clipPath78"
       clipPathUnits="userSpaceOnUse"><path
         id="path76"
         d="m 20,36 h 4.001 V 48 H 20 Z" /></clipPath><linearGradient
       id="linearGradient88"
       spreadMethod="pad"
       gradientTransform="matrix(-7.9999995,7.9999995,7.9999995,7.9999995,26,38)"
       gradientUnits="userSpaceOnUse"
       y2="0"
       x2="1"
       y1="0"
       x1="0"><stop
         id="stop84"
         offset="0"
         style="stop-opacity:1;stop-color:#e6e7e8" /><stop
         id="stop86"
         offset="1"
         style="stop-opacity:1;stop-color:#d1d3d4" /></linearGradient><clipPath
       id="clipPath98"
       clipPathUnits="userSpaceOnUse"><path
         id="path96"
         d="M 0,256 H 256 V 0 H 0 Z" /></clipPath></defs><g
     transform="matrix(1.3333333,0,0,-1.3333333,-26.666666,325.33333)"
     id="g10"><g
       id="g12"><g
         clip-path="url(#clipPath18)"
         id="g14"><g
           id="g20"><g
             id="g22"><path
               id="path30"
               style="fill:url(#linearGradient28);stroke:none"
               d="M 29.818,244 C 24.395,244 20,239.673 20,234.333 v 0 V 36.167 C 20,22.82 30.99,12 44.546,12 v 0 H 226 c 1.104,0 2,0.895 2,2 v 0 14 h 8 v 206.333 c 0,5.34 -4.396,9.667 -9.818,9.667 v 0 z" /></g></g></g></g><g
       id="g32"><g
         clip-path="url(#clipPath38)"
         id="g34"><g
           id="g40"><g
             id="g42"><path
               id="path50"
               style="fill:url(#linearGradient48);stroke:none"
               d="M 228,32 V 16 h 6 c 1.104,0 2,0.896 2,2 v 0 14 z" /></g></g></g></g><g
       id="g52"><g
         clip-path="url(#clipPath58)"
         id="g54"><g
           id="g60"><g
             id="g62"><path
               id="path70"
               style="fill:url(#linearGradient68);stroke:none"
               d="m 116,32 12,-8 12,8 z" /></g></g></g></g><g
       id="g72"><g
         clip-path="url(#clipPath78)"
         id="g74"><g
           id="g80"><g
             id="g82"><path
               id="path90"
               style="fill:url(#linearGradient88);stroke:none"
               d="m 20,36 h 4.001 V 48 H 20 Z" /></g></g></g></g><g
       id="g92"><g
         clip-path="url(#clipPath98)"
         id="g94"><g
           transform="translate(44.7577,228)"
           id="g100"><path
             id="path102"
             style="fill:#ffffff;fill-opacity:1;fill-rule:nonzero;stroke:none"
             d="m 0,0 h 170.485 c 2.627,0 4.757,-2.14 4.757,-4.78 v -182.44 c 0,-2.64 -2.13,-4.78 -4.757,-4.78 H 7.242 l -12,16 V -4.78 C -4.758,-2.14 -2.628,0 0,0" /></g><path
           id="path104"
           style="fill:#999999;fill-opacity:1;fill-rule:nonzero;stroke:none"
           d="M 220,56 H 40 v 4 h 180 z" /><g
           transform="translate(97.5811,192)"
           id="g106"><path
             id="path108"
             style="fill:#999999;fill-opacity:1;fill-rule:nonzero;stroke:none"
             d="m 0,0 -0.225,0.027 -57.329,6.44 -0.027,1.53 L -0.348,1.584 6.275,8 H 56.126 L 61.93,1.572 122.419,4.781 122.397,3.246 61.512,0.012 55.685,6.464 H 6.67 Z" /></g></g></g></g></svg>