<?xml version="1.0" encoding="UTF-8" standalone="no"?>
<svg
   xmlns:dc="http://purl.org/dc/elements/1.1/"
   xmlns:cc="http://creativecommons.org/ns#"
   xmlns:rdf="http://www.w3.org/1999/02/22-rdf-syntax-ns#"
   xmlns:svg="http://www.w3.org/2000/svg"
   xmlns="http://www.w3.org/2000/svg"
   viewBox="0 0 74.666663 309.33331"
   height="309.33331"
   width="74.666664"
   xml:space="preserve"
   id="svg2"
   version="1.1"><metadata
     id="metadata8"><rdf:RDF><cc:Work
         rdf:about=""><dc:format>image/svg+xml</dc:format><dc:type
           rdf:resource="http://purl.org/dc/dcmitype/StillImage" /></cc:Work></rdf:RDF></metadata><defs
     id="defs6"><clipPath
       id="clipPath18"
       clipPathUnits="userSpaceOnUse"><path
         id="path16"
         d="m 105.216,243.386 c -2.524,0 -4.577,-1.973 -4.577,-4.398 v 0 -221.976 c 0,-2.425 2.053,-4.399 4.577,-4.399 v 0 h 45.566 c 2.525,0 4.578,1.974 4.578,4.399 v 0 221.976 c 0,2.425 -2.053,4.398 -4.578,4.398 v 0 z" /></clipPath><linearGradient
       id="linearGradient28"
       spreadMethod="pad"
       gradientTransform="matrix(140.1163,-140.1163,-140.1163,-140.1163,57.941242,198.05817)"
       gradientUnits="userSpaceOnUse"
       y2="0"
       x2="1"
       y1="0"
       x1="0"><stop
         id="stop24"
         offset="0"
         style="stop-opacity:1;stop-color:#e6e7e8" /><stop
         id="stop26"
         offset="1"
         style="stop-opacity:1;stop-color:#d1d3d4" /></linearGradient><clipPath
       id="clipPath38"
       clipPathUnits="userSpaceOnUse"><path
         id="path36"
         d="M 105.217,244 C 102.34,244 100,241.751 100,238.987 v 0 V 17.014 C 100,14.249 102.34,12 105.217,12 v 0 h 45.566 c 2.877,0 5.217,2.249 5.217,5.014 v 0 221.973 c 0,2.764 -2.34,5.013 -5.217,5.013 v 0 z m -3.94,-226.986 v 221.973 c 0,2.088 1.767,3.785 3.94,3.785 v 0 h 45.566 c 2.173,0 3.94,-1.697 3.94,-3.785 v 0 -221.973 c 0,-2.089 -1.767,-3.787 -3.94,-3.787 v 0 h -45.566 c -2.173,0 -3.94,1.698 -3.94,3.787" /></clipPath><linearGradient
       id="linearGradient48"
       spreadMethod="pad"
       gradientTransform="matrix(-141.00174,141.00174,141.00174,141.00174,198.50087,57.499126)"
       gradientUnits="userSpaceOnUse"
       y2="0"
       x2="1"
       y1="0"
       x1="0"><stop
         id="stop44"
         offset="0"
         style="stop-opacity:1;stop-color:#e6e7e8" /><stop
         id="stop46"
         offset="1"
         style="stop-opacity:1;stop-color:#d1d3d4" /></linearGradient><clipPath
       id="clipPath58"
       clipPathUnits="userSpaceOnUse"><path
         id="path56"
         d="m 104,234 c 0,-3.314 2.686,-6 6,-6 v 0 c 3.314,0 6,2.686 6,6 v 0 c 0,3.314 -2.686,6 -6,6 v 0 c -3.314,0 -6,-2.686 -6,-6" /></clipPath><linearGradient
       id="linearGradient68"
       spreadMethod="pad"
       gradientTransform="matrix(-8.4852438,8.4852438,8.4852438,8.4852438,114.24262,229.75737)"
       gradientUnits="userSpaceOnUse"
       y2="0"
       x2="1"
       y1="0"
       x1="0"><stop
         id="stop64"
         offset="0"
         style="stop-opacity:1;stop-color:#e6e7e8" /><stop
         id="stop66"
         offset="1"
         style="stop-opacity:1;stop-color:#d1d3d4" /></linearGradient><clipPath
       id="clipPath78"
       clipPathUnits="userSpaceOnUse"><path
         id="path76"
         d="m 106.024,234.071 c 0,-2.208 1.791,-3.999 4,-3.999 v 0 c 2.21,0 4,1.791 4,3.999 v 0 c 0,2.21 -1.79,4.001 -4,4.001 v 0 c -2.209,0 -4,-1.791 -4,-4.001" /></clipPath><linearGradient
       id="linearGradient88"
       spreadMethod="pad"
       gradientTransform="matrix(5.6569371,-5.6569371,-5.6569371,-5.6569371,107.19552,236.89986)"
       gradientUnits="userSpaceOnUse"
       y2="0"
       x2="1"
       y1="0"
       x1="0"><stop
         id="stop84"
         offset="0"
         style="stop-opacity:1;stop-color:#e6e7e8" /><stop
         id="stop86"
         offset="1"
         style="stop-opacity:1;stop-color:#d1d3d4" /></linearGradient><clipPath
       id="clipPath98"
       clipPathUnits="userSpaceOnUse"><path
         id="path96"
         d="m 123.197,224 c -0.712,0 -1.29,-0.578 -1.29,-1.29 v 0 -8.767 h -8.617 c -0.713,0 -1.29,-0.577 -1.29,-1.29 v 0 -9.456 c 0,-0.713 0.577,-1.29 1.29,-1.29 v 0 h 8.617 v -8.617 c 0,-0.713 0.578,-1.29 1.29,-1.29 v 0 h 9.606 c 0.713,0 1.291,0.577 1.291,1.29 v 0 8.617 h 8.615 c 0.713,0 1.291,0.577 1.291,1.29 v 0 9.456 c 0,0.713 -0.578,1.29 -1.291,1.29 v 0 h -8.615 v 8.767 c 0,0.712 -0.578,1.29 -1.291,1.29 v 0 z" /></clipPath><linearGradient
       id="linearGradient108"
       spreadMethod="pad"
       gradientTransform="matrix(-21.337614,21.337614,21.337614,21.337614,138.66881,197.33119)"
       gradientUnits="userSpaceOnUse"
       y2="0"
       x2="1"
       y1="0"
       x1="0"><stop
         id="stop104"
         offset="0"
         style="stop-opacity:1;stop-color:#e6e7e8" /><stop
         id="stop106"
         offset="1"
         style="stop-opacity:1;stop-color:#d1d3d4" /></linearGradient><clipPath
       id="clipPath118"
       clipPathUnits="userSpaceOnUse"><path
         id="path116"
         d="m 123.197,222.71 v -10.057 h -9.907 v -9.456 h 9.907 v -9.907 h 9.606 v 9.907 h 9.906 v 9.456 h -9.906 v 10.057 z" /></clipPath><linearGradient
       id="linearGradient128"
       spreadMethod="pad"
       gradientTransform="matrix(19.512672,-19.512672,-19.512672,-19.512672,118.24367,217.75633)"
       gradientUnits="userSpaceOnUse"
       y2="0"
       x2="1"
       y1="0"
       x1="0"><stop
         id="stop124"
         offset="0"
         style="stop-opacity:1;stop-color:#e6e7e8" /><stop
         id="stop126"
         offset="1"
         style="stop-opacity:1;stop-color:#d1d3d4" /></linearGradient><clipPath
       id="clipPath138"
       clipPathUnits="userSpaceOnUse"><path
         id="path136"
         d="m 118,170 c 0,-5.514 4.486,-10 10,-10 v 0 c 5.514,0 10,4.486 10,10 v 0 c 0,5.514 -4.486,10 -10,10 v 0 c -5.514,0 -10,-4.486 -10,-10" /></clipPath><linearGradient
       id="linearGradient148"
       spreadMethod="pad"
       gradientTransform="matrix(-14.135505,14.135505,14.135505,14.135505,135.06775,162.93225)"
       gradientUnits="userSpaceOnUse"
       y2="0"
       x2="1"
       y1="0"
       x1="0"><stop
         id="stop144"
         offset="0"
         style="stop-opacity:1;stop-color:#e6e7e8" /><stop
         id="stop146"
         offset="1"
         style="stop-opacity:1;stop-color:#d1d3d4" /></linearGradient><clipPath
       id="clipPath158"
       clipPathUnits="userSpaceOnUse"><path
         id="path156"
         d="m 108,134 c 0,-3.308 2.692,-6 6,-6 v 0 c 3.309,0 6,2.692 6,6 v 0 c 0,3.309 -2.691,6 -6,6 v 0 c -3.308,0 -6,-2.691 -6,-6" /></clipPath><linearGradient
       id="linearGradient168"
       spreadMethod="pad"
       gradientTransform="matrix(-8.4813099,8.4813099,8.4813099,8.4813099,118.24064,129.75934)"
       gradientUnits="userSpaceOnUse"
       y2="0"
       x2="1"
       y1="0"
       x1="0"><stop
         id="stop164"
         offset="0"
         style="stop-opacity:1;stop-color:#e6e7e8" /><stop
         id="stop166"
         offset="1"
         style="stop-opacity:1;stop-color:#d1d3d4" /></linearGradient><clipPath
       id="clipPath178"
       clipPathUnits="userSpaceOnUse"><path
         id="path176"
         d="m 110,134 c 0,-2.209 1.791,-4 4,-4 v 0 c 2.209,0 4,1.791 4,4 v 0 c 0,2.209 -1.791,4 -4,4 v 0 c -2.209,0 -4,-1.791 -4,-4" /></clipPath><linearGradient
       id="linearGradient188"
       spreadMethod="pad"
       gradientTransform="matrix(5.6567726,-5.6567726,-5.6567726,-5.6567726,111.17161,136.82838)"
       gradientUnits="userSpaceOnUse"
       y2="0"
       x2="1"
       y1="0"
       x1="0"><stop
         id="stop184"
         offset="0"
         style="stop-opacity:1;stop-color:#e6e7e8" /><stop
         id="stop186"
         offset="1"
         style="stop-opacity:1;stop-color:#d1d3d4" /></linearGradient><clipPath
       id="clipPath198"
       clipPathUnits="userSpaceOnUse"><path
         id="path196"
         d="m 136,134 c 0,-3.308 2.692,-6 6,-6 v 0 c 3.309,0 6,2.692 6,6 v 0 c 0,3.309 -2.691,6 -6,6 v 0 c -3.308,0 -6,-2.691 -6,-6" /></clipPath><linearGradient
       id="linearGradient208"
       spreadMethod="pad"
       gradientTransform="matrix(-8.4813099,8.4813099,8.4813099,8.4813099,146.24065,129.75934)"
       gradientUnits="userSpaceOnUse"
       y2="0"
       x2="1"
       y1="0"
       x1="0"><stop
         id="stop204"
         offset="0"
         style="stop-opacity:1;stop-color:#e6e7e8" /><stop
         id="stop206"
         offset="1"
         style="stop-opacity:1;stop-color:#d1d3d4" /></linearGradient><clipPath
       id="clipPath218"
       clipPathUnits="userSpaceOnUse"><path
         id="path216"
         d="m 138,134 c 0,-2.209 1.791,-4 4,-4 v 0 c 2.209,0 4,1.791 4,4 v 0 c 0,2.209 -1.791,4 -4,4 v 0 c -2.209,0 -4,-1.791 -4,-4" /></clipPath><linearGradient
       id="linearGradient228"
       spreadMethod="pad"
       gradientTransform="matrix(5.6567726,-5.6567726,-5.6567726,-5.6567726,139.17162,136.82838)"
       gradientUnits="userSpaceOnUse"
       y2="0"
       x2="1"
       y1="0"
       x1="0"><stop
         id="stop224"
         offset="0"
         style="stop-opacity:1;stop-color:#e6e7e8" /><stop
         id="stop226"
         offset="1"
         style="stop-opacity:1;stop-color:#d1d3d4" /></linearGradient><clipPath
       id="clipPath238"
       clipPathUnits="userSpaceOnUse"><path
         id="path236"
         d="m 122,134 c 0,-3.308 2.691,-6 6,-6 v 0 c 3.308,0 6,2.692 6,6 v 0 c 0,3.309 -2.692,6 -6,6 v 0 c -3.309,0 -6,-2.691 -6,-6" /></clipPath><linearGradient
       id="linearGradient248"
       spreadMethod="pad"
       gradientTransform="matrix(-8.4813099,8.4813099,8.4813099,8.4813099,132.24065,129.75934)"
       gradientUnits="userSpaceOnUse"
       y2="0"
       x2="1"
       y1="0"
       x1="0"><stop
         id="stop244"
         offset="0"
         style="stop-opacity:1;stop-color:#e6e7e8" /><stop
         id="stop246"
         offset="1"
         style="stop-opacity:1;stop-color:#d1d3d4" /></linearGradient><clipPath
       id="clipPath258"
       clipPathUnits="userSpaceOnUse"><path
         id="path256"
         d="m 124,134 c 0,-2.209 1.791,-4 4,-4 v 0 c 2.209,0 4,1.791 4,4 v 0 c 0,2.209 -1.791,4 -4,4 v 0 c -2.209,0 -4,-1.791 -4,-4" /></clipPath><linearGradient
       id="linearGradient268"
       spreadMethod="pad"
       gradientTransform="matrix(5.6567726,-5.6567726,-5.6567726,-5.6567726,125.17161,136.82838)"
       gradientUnits="userSpaceOnUse"
       y2="0"
       x2="1"
       y1="0"
       x1="0"><stop
         id="stop264"
         offset="0"
         style="stop-opacity:1;stop-color:#e6e7e8" /><stop
         id="stop266"
         offset="1"
         style="stop-opacity:1;stop-color:#d1d3d4" /></linearGradient><clipPath
       id="clipPath278"
       clipPathUnits="userSpaceOnUse"><path
         id="path276"
         d="M 0,256 H 256 V 0 H 0 Z" /></clipPath><clipPath
       id="clipPath358"
       clipPathUnits="userSpaceOnUse"><path
         id="path356"
         d="m 121,72 c 0,-3.86 3.141,-7 7,-7 v 0 c 3.86,0 7,3.14 7,7 v 0 c 0,3.86 -3.14,7 -7,7 v 0 c -3.859,0 -7,-3.14 -7,-7" /></clipPath><linearGradient
       id="linearGradient368"
       spreadMethod="pad"
       gradientTransform="matrix(-9.8948526,9.8948526,9.8948526,9.8948526,132.94743,67.052658)"
       gradientUnits="userSpaceOnUse"
       y2="0"
       x2="1"
       y1="0"
       x1="0"><stop
         id="stop364"
         offset="0"
         style="stop-opacity:1;stop-color:#e6e7e8" /><stop
         id="stop366"
         offset="1"
         style="stop-opacity:1;stop-color:#d1d3d4" /></linearGradient><clipPath
       id="clipPath378"
       clipPathUnits="userSpaceOnUse"><path
         id="path376"
         d="m 122,72 c 0,-3.314 2.686,-6 6,-6 v 0 c 3.314,0 6,2.686 6,6 v 0 c 0,3.314 -2.686,6 -6,6 v 0 c -3.314,0 -6,-2.686 -6,-6" /></clipPath><linearGradient
       id="linearGradient388"
       spreadMethod="pad"
       gradientTransform="matrix(8.4851894,-8.4851894,-8.4851894,-8.4851894,123.75741,76.24263)"
       gradientUnits="userSpaceOnUse"
       y2="0"
       x2="1"
       y1="0"
       x1="0"><stop
         id="stop384"
         offset="0"
         style="stop-opacity:1;stop-color:#e6e7e8" /><stop
         id="stop386"
         offset="1"
         style="stop-opacity:1;stop-color:#d1d3d4" /></linearGradient><clipPath
       id="clipPath398"
       clipPathUnits="userSpaceOnUse"><path
         id="path396"
         d="m 121,53 c 0,-3.86 3.141,-7 7,-7 v 0 c 3.86,0 7,3.14 7,7 v 0 c 0,3.86 -3.14,7 -7,7 v 0 c -3.859,0 -7,-3.14 -7,-7" /></clipPath><linearGradient
       id="linearGradient408"
       spreadMethod="pad"
       gradientTransform="matrix(-9.8948526,9.8948526,9.8948526,9.8948526,132.94743,48.052654)"
       gradientUnits="userSpaceOnUse"
       y2="0"
       x2="1"
       y1="0"
       x1="0"><stop
         id="stop404"
         offset="0"
         style="stop-opacity:1;stop-color:#e6e7e8" /><stop
         id="stop406"
         offset="1"
         style="stop-opacity:1;stop-color:#d1d3d4" /></linearGradient><clipPath
       id="clipPath418"
       clipPathUnits="userSpaceOnUse"><path
         id="path416"
         d="m 122,53 c 0,-3.314 2.686,-6 6,-6 v 0 c 3.314,0 6,2.686 6,6 v 0 c 0,3.314 -2.686,6 -6,6 v 0 c -3.314,0 -6,-2.686 -6,-6" /></clipPath><linearGradient
       id="linearGradient428"
       spreadMethod="pad"
       gradientTransform="matrix(8.4851894,-8.4851894,-8.4851894,-8.4851894,123.75741,57.24263)"
       gradientUnits="userSpaceOnUse"
       y2="0"
       x2="1"
       y1="0"
       x1="0"><stop
         id="stop424"
         offset="0"
         style="stop-opacity:1;stop-color:#e6e7e8" /><stop
         id="stop426"
         offset="1"
         style="stop-opacity:1;stop-color:#d1d3d4" /></linearGradient><clipPath
       id="clipPath438"
       clipPathUnits="userSpaceOnUse"><path
         id="path436"
         d="M 0,256 H 256 V 0 H 0 Z" /></clipPath><clipPath
       id="clipPath470"
       clipPathUnits="userSpaceOnUse"><path
         id="path468"
         d="m 120,170 c 0,-4.418 3.582,-8 8,-8 v 0 c 4.418,0 8,3.582 8,8 v 0 c 0,4.418 -3.582,8 -8,8 v 0 c -4.418,0 -8,-3.582 -8,-8" /></clipPath><linearGradient
       id="linearGradient480"
       spreadMethod="pad"
       gradientTransform="matrix(16,0,0,-16,120,170)"
       gradientUnits="userSpaceOnUse"
       y2="0"
       x2="1"
       y1="0"
       x1="0"><stop
         id="stop476"
         offset="0"
         style="stop-opacity:1;stop-color:#e6e7e8" /><stop
         id="stop478"
         offset="1"
         style="stop-opacity:1;stop-color:#d1d3d4" /></linearGradient></defs><g
     transform="matrix(1.3333333,0,0,-1.3333333,-133.33333,325.33333)"
     id="g10"><g
       id="g12"><g
         clip-path="url(#clipPath18)"
         id="g14"><g
           id="g20"><g
             id="g22"><path
               id="path30"
               style="fill:url(#linearGradient28);stroke:none"
               d="m 105.216,243.386 c -2.524,0 -4.577,-1.973 -4.577,-4.398 v 0 -221.976 c 0,-2.425 2.053,-4.399 4.577,-4.399 v 0 h 45.566 c 2.525,0 4.578,1.974 4.578,4.399 v 0 221.976 c 0,2.425 -2.053,4.398 -4.578,4.398 v 0 z" /></g></g></g></g><g
       id="g32"><g
         clip-path="url(#clipPath38)"
         id="g34"><g
           id="g40"><g
             id="g42"><path
               id="path50"
               style="fill:url(#linearGradient48);stroke:none"
               d="M 105.217,244 C 102.34,244 100,241.751 100,238.987 v 0 V 17.014 C 100,14.249 102.34,12 105.217,12 v 0 h 45.566 c 2.877,0 5.217,2.249 5.217,5.014 v 0 221.973 c 0,2.764 -2.34,5.013 -5.217,5.013 v 0 z m -3.94,-226.986 v 221.973 c 0,2.088 1.767,3.785 3.94,3.785 v 0 h 45.566 c 2.173,0 3.94,-1.697 3.94,-3.785 v 0 -221.973 c 0,-2.089 -1.767,-3.787 -3.94,-3.787 v 0 h -45.566 c -2.173,0 -3.94,1.698 -3.94,3.787" /></g></g></g></g><g
       id="g52"><g
         clip-path="url(#clipPath58)"
         id="g54"><g
           id="g60"><g
             id="g62"><path
               id="path70"
               style="fill:url(#linearGradient68);stroke:none"
               d="m 104,234 c 0,-3.314 2.686,-6 6,-6 v 0 c 3.314,0 6,2.686 6,6 v 0 c 0,3.314 -2.686,6 -6,6 v 0 c -3.314,0 -6,-2.686 -6,-6" /></g></g></g></g><g
       id="g72"><g
         clip-path="url(#clipPath78)"
         id="g74"><g
           id="g80"><g
             id="g82"><path
               id="path90"
               style="fill:url(#linearGradient88);stroke:none"
               d="m 106.024,234.071 c 0,-2.208 1.791,-3.999 4,-3.999 v 0 c 2.21,0 4,1.791 4,3.999 v 0 c 0,2.21 -1.79,4.001 -4,4.001 v 0 c -2.209,0 -4,-1.791 -4,-4.001" /></g></g></g></g><g
       id="g92"><g
         clip-path="url(#clipPath98)"
         id="g94"><g
           id="g100"><g
             id="g102"><path
               id="path110"
               style="fill:url(#linearGradient108);stroke:none"
               d="m 123.197,224 c -0.712,0 -1.29,-0.578 -1.29,-1.29 v 0 -8.767 h -8.617 c -0.713,0 -1.29,-0.577 -1.29,-1.29 v 0 -9.456 c 0,-0.713 0.577,-1.29 1.29,-1.29 v 0 h 8.617 v -8.617 c 0,-0.713 0.578,-1.29 1.29,-1.29 v 0 h 9.606 c 0.713,0 1.291,0.577 1.291,1.29 v 0 8.617 h 8.615 c 0.713,0 1.291,0.577 1.291,1.29 v 0 9.456 c 0,0.713 -0.578,1.29 -1.291,1.29 v 0 h -8.615 v 8.767 c 0,0.712 -0.578,1.29 -1.291,1.29 v 0 z" /></g></g></g></g><g
       id="g112"><g
         clip-path="url(#clipPath118)"
         id="g114"><g
           id="g120"><g
             id="g122"><path
               id="path130"
               style="fill:url(#linearGradient128);stroke:none"
               d="m 123.197,222.71 v -10.057 h -9.907 v -9.456 h 9.907 v -9.907 h 9.606 v 9.907 h 9.906 v 9.456 h -9.906 v 10.057 z" /></g></g></g></g><g
       id="g132"><g
         clip-path="url(#clipPath138)"
         id="g134"><g
           id="g140"><g
             id="g142"><path
               id="path150"
               style="fill:url(#linearGradient148);stroke:none"
               d="m 118,170 c 0,-5.514 4.486,-10 10,-10 v 0 c 5.514,0 10,4.486 10,10 v 0 c 0,5.514 -4.486,10 -10,10 v 0 c -5.514,0 -10,-4.486 -10,-10" /></g></g></g></g><g
       id="g152"><g
         clip-path="url(#clipPath158)"
         id="g154"><g
           id="g160"><g
             id="g162"><path
               id="path170"
               style="fill:url(#linearGradient168);stroke:none"
               d="m 108,134 c 0,-3.308 2.692,-6 6,-6 v 0 c 3.309,0 6,2.692 6,6 v 0 c 0,3.309 -2.691,6 -6,6 v 0 c -3.308,0 -6,-2.691 -6,-6" /></g></g></g></g><g
       id="g172"><g
         clip-path="url(#clipPath178)"
         id="g174"><g
           id="g180"><g
             id="g182"><path
               id="path190"
               style="fill:url(#linearGradient188);stroke:none"
               d="m 110,134 c 0,-2.209 1.791,-4 4,-4 v 0 c 2.209,0 4,1.791 4,4 v 0 c 0,2.209 -1.791,4 -4,4 v 0 c -2.209,0 -4,-1.791 -4,-4" /></g></g></g></g><g
       id="g192"><g
         clip-path="url(#clipPath198)"
         id="g194"><g
           id="g200"><g
             id="g202"><path
               id="path210"
               style="fill:url(#linearGradient208);stroke:none"
               d="m 136,134 c 0,-3.308 2.692,-6 6,-6 v 0 c 3.309,0 6,2.692 6,6 v 0 c 0,3.309 -2.691,6 -6,6 v 0 c -3.308,0 -6,-2.691 -6,-6" /></g></g></g></g><g
       id="g212"><g
         clip-path="url(#clipPath218)"
         id="g214"><g
           id="g220"><g
             id="g222"><path
               id="path230"
               style="fill:url(#linearGradient228);stroke:none"
               d="m 138,134 c 0,-2.209 1.791,-4 4,-4 v 0 c 2.209,0 4,1.791 4,4 v 0 c 0,2.209 -1.791,4 -4,4 v 0 c -2.209,0 -4,-1.791 -4,-4" /></g></g></g></g><g
       id="g232"><g
         clip-path="url(#clipPath238)"
         id="g234"><g
           id="g240"><g
             id="g242"><path
               id="path250"
               style="fill:url(#linearGradient248);stroke:none"
               d="m 122,134 c 0,-3.308 2.691,-6 6,-6 v 0 c 3.308,0 6,2.692 6,6 v 0 c 0,3.309 -2.692,6 -6,6 v 0 c -3.309,0 -6,-2.691 -6,-6" /></g></g></g></g><g
       id="g252"><g
         clip-path="url(#clipPath258)"
         id="g254"><g
           id="g260"><g
             id="g262"><path
               id="path270"
               style="fill:url(#linearGradient268);stroke:none"
               d="m 124,134 c 0,-2.209 1.791,-4 4,-4 v 0 c 2.209,0 4,1.791 4,4 v 0 c 0,2.209 -1.791,4 -4,4 v 0 c -2.209,0 -4,-1.791 -4,-4" /></g></g></g></g><g
       id="g272"><g
         clip-path="url(#clipPath278)"
         id="g274"><g
           transform="translate(124.5,112.5001)"
           id="g280"><path
             id="path282"
             style="fill:#999999;fill-opacity:1;fill-rule:nonzero;stroke:none"
             d="M 0,0 C 0,-0.276 -0.224,-0.5 -0.5,-0.5 -0.776,-0.5 -1,-0.276 -1,0 -1,0.276 -0.776,0.5 -0.5,0.5 -0.224,0.5 0,0.276 0,0" /></g><g
           transform="translate(128.5,112.5001)"
           id="g284"><path
             id="path286"
             style="fill:#999999;fill-opacity:1;fill-rule:nonzero;stroke:none"
             d="M 0,0 C 0,-0.276 -0.224,-0.5 -0.5,-0.5 -0.776,-0.5 -1,-0.276 -1,0 -1,0.276 -0.776,0.5 -0.5,0.5 -0.224,0.5 0,0.276 0,0" /></g><g
           transform="translate(132.5,112.5001)"
           id="g288"><path
             id="path290"
             style="fill:#999999;fill-opacity:1;fill-rule:nonzero;stroke:none"
             d="M 0,0 C 0,-0.276 -0.224,-0.5 -0.5,-0.5 -0.776,-0.5 -1,-0.276 -1,0 -1,0.276 -0.776,0.5 -0.5,0.5 -0.224,0.5 0,0.276 0,0" /></g><g
           transform="translate(124.75,108.7502)"
           id="g292"><path
             id="path294"
             style="fill:#999999;fill-opacity:1;fill-rule:nonzero;stroke:none"
             d="m 0,0 c 0,-0.414 -0.336,-0.75 -0.75,-0.75 -0.414,0 -0.75,0.336 -0.75,0.75 0,0.414 0.336,0.75 0.75,0.75 C -0.336,0.75 0,0.414 0,0" /></g><g
           transform="translate(128.75,108.7502)"
           id="g296"><path
             id="path298"
             style="fill:#999999;fill-opacity:1;fill-rule:nonzero;stroke:none"
             d="m 0,0 c 0,-0.414 -0.336,-0.75 -0.75,-0.75 -0.414,0 -0.75,0.336 -0.75,0.75 0,0.414 0.336,0.75 0.75,0.75 C -0.336,0.75 0,0.414 0,0" /></g><g
           transform="translate(132.75,108.7502)"
           id="g300"><path
             id="path302"
             style="fill:#999999;fill-opacity:1;fill-rule:nonzero;stroke:none"
             d="m 0,0 c 0,-0.414 -0.336,-0.75 -0.75,-0.75 -0.414,0 -0.75,0.336 -0.75,0.75 0,0.414 0.336,0.75 0.75,0.75 C -0.336,0.75 0,0.414 0,0" /></g><g
           transform="translate(125,105.0003)"
           id="g304"><path
             id="path306"
             style="fill:#999999;fill-opacity:1;fill-rule:nonzero;stroke:none"
             d="m 0,0 c 0,-0.553 -0.448,-1 -1,-1 -0.552,0 -1,0.447 -1,1 0,0.552 0.448,1 1,1 0.552,0 1,-0.448 1,-1" /></g><g
           transform="translate(129,105.0003)"
           id="g308"><path
             id="path310"
             style="fill:#999999;fill-opacity:1;fill-rule:nonzero;stroke:none"
             d="m 0,0 c 0,-0.553 -0.448,-1 -1,-1 -0.552,0 -1,0.447 -1,1 0,0.552 0.448,1 1,1 0.552,0 1,-0.448 1,-1" /></g><g
           transform="translate(133,105.0003)"
           id="g312"><path
             id="path314"
             style="fill:#999999;fill-opacity:1;fill-rule:nonzero;stroke:none"
             d="m 0,0 c 0,-0.553 -0.448,-1 -1,-1 -0.552,0 -1,0.447 -1,1 0,0.552 0.448,1 1,1 0.552,0 1,-0.448 1,-1" /></g><g
           transform="translate(125,101.0003)"
           id="g316"><path
             id="path318"
             style="fill:#999999;fill-opacity:1;fill-rule:nonzero;stroke:none"
             d="m 0,0 c 0,-0.553 -0.448,-1 -1,-1 -0.552,0 -1,0.447 -1,1 0,0.552 0.448,1 1,1 0.552,0 1,-0.448 1,-1" /></g><g
           transform="translate(129,101.0003)"
           id="g320"><path
             id="path322"
             style="fill:#999999;fill-opacity:1;fill-rule:nonzero;stroke:none"
             d="m 0,0 c 0,-0.553 -0.448,-1 -1,-1 -0.552,0 -1,0.447 -1,1 0,0.552 0.448,1 1,1 0.552,0 1,-0.448 1,-1" /></g><g
           transform="translate(133,101.0003)"
           id="g324"><path
             id="path326"
             style="fill:#999999;fill-opacity:1;fill-rule:nonzero;stroke:none"
             d="m 0,0 c 0,-0.553 -0.448,-1 -1,-1 -0.552,0 -1,0.447 -1,1 0,0.552 0.448,1 1,1 0.552,0 1,-0.448 1,-1" /></g><g
           transform="translate(124.75,96.7502)"
           id="g328"><path
             id="path330"
             style="fill:#999999;fill-opacity:1;fill-rule:nonzero;stroke:none"
             d="m 0,0 c 0,-0.414 -0.336,-0.75 -0.75,-0.75 -0.414,0 -0.75,0.336 -0.75,0.75 0,0.414 0.336,0.75 0.75,0.75 C -0.336,0.75 0,0.414 0,0" /></g><g
           transform="translate(128.75,96.7502)"
           id="g332"><path
             id="path334"
             style="fill:#999999;fill-opacity:1;fill-rule:nonzero;stroke:none"
             d="m 0,0 c 0,-0.414 -0.336,-0.75 -0.75,-0.75 -0.414,0 -0.75,0.336 -0.75,0.75 0,0.414 0.336,0.75 0.75,0.75 C -0.336,0.75 0,0.414 0,0" /></g><g
           transform="translate(132.75,96.7502)"
           id="g336"><path
             id="path338"
             style="fill:#999999;fill-opacity:1;fill-rule:nonzero;stroke:none"
             d="m 0,0 c 0,-0.414 -0.336,-0.75 -0.75,-0.75 -0.414,0 -0.75,0.336 -0.75,0.75 0,0.414 0.336,0.75 0.75,0.75 C -0.336,0.75 0,0.414 0,0" /></g><g
           transform="translate(124.5,92.5001)"
           id="g340"><path
             id="path342"
             style="fill:#999999;fill-opacity:1;fill-rule:nonzero;stroke:none"
             d="M 0,0 C 0,-0.276 -0.224,-0.5 -0.5,-0.5 -0.776,-0.5 -1,-0.276 -1,0 -1,0.276 -0.776,0.5 -0.5,0.5 -0.224,0.5 0,0.276 0,0" /></g><g
           transform="translate(128.5,92.5001)"
           id="g344"><path
             id="path346"
             style="fill:#999999;fill-opacity:1;fill-rule:nonzero;stroke:none"
             d="M 0,0 C 0,-0.276 -0.224,-0.5 -0.5,-0.5 -0.776,-0.5 -1,-0.276 -1,0 -1,0.276 -0.776,0.5 -0.5,0.5 -0.224,0.5 0,0.276 0,0" /></g><g
           transform="translate(132.5,92.5001)"
           id="g348"><path
             id="path350"
             style="fill:#999999;fill-opacity:1;fill-rule:nonzero;stroke:none"
             d="M 0,0 C 0,-0.276 -0.224,-0.5 -0.5,-0.5 -0.776,-0.5 -1,-0.276 -1,0 -1,0.276 -0.776,0.5 -0.5,0.5 -0.224,0.5 0,0.276 0,0" /></g></g></g><g
       id="g352"><g
         clip-path="url(#clipPath358)"
         id="g354"><g
           id="g360"><g
             id="g362"><path
               id="path370"
               style="fill:url(#linearGradient368);stroke:none"
               d="m 121,72 c 0,-3.86 3.141,-7 7,-7 v 0 c 3.86,0 7,3.14 7,7 v 0 c 0,3.86 -3.14,7 -7,7 v 0 c -3.859,0 -7,-3.14 -7,-7" /></g></g></g></g><g
       id="g372"><g
         clip-path="url(#clipPath378)"
         id="g374"><g
           id="g380"><g
             id="g382"><path
               id="path390"
               style="fill:url(#linearGradient388);stroke:none"
               d="m 122,72 c 0,-3.314 2.686,-6 6,-6 v 0 c 3.314,0 6,2.686 6,6 v 0 c 0,3.314 -2.686,6 -6,6 v 0 c -3.314,0 -6,-2.686 -6,-6" /></g></g></g></g><g
       id="g392"><g
         clip-path="url(#clipPath398)"
         id="g394"><g
           id="g400"><g
             id="g402"><path
               id="path410"
               style="fill:url(#linearGradient408);stroke:none"
               d="m 121,53 c 0,-3.86 3.141,-7 7,-7 v 0 c 3.86,0 7,3.14 7,7 v 0 c 0,3.86 -3.14,7 -7,7 v 0 c -3.859,0 -7,-3.14 -7,-7" /></g></g></g></g><g
       id="g412"><g
         clip-path="url(#clipPath418)"
         id="g414"><g
           id="g420"><g
             id="g422"><path
               id="path430"
               style="fill:url(#linearGradient428);stroke:none"
               d="m 122,53 c 0,-3.314 2.686,-6 6,-6 v 0 c 3.314,0 6,2.686 6,6 v 0 c 0,3.314 -2.686,6 -6,6 v 0 c -3.314,0 -6,-2.686 -6,-6" /></g></g></g></g><g
       id="g432"><g
         clip-path="url(#clipPath438)"
         id="g434"><path
           id="path440"
           style="fill:#ffffff;fill-opacity:1;fill-rule:nonzero;stroke:none"
           d="m 112,32 h -4 v 4 h 4 z" /><path
           id="path442"
           style="fill:#999999;fill-opacity:1;fill-rule:nonzero;stroke:none"
           d="m 124,32 h -4 v 4 h 4 z" /><path
           id="path444"
           style="fill:#999999;fill-opacity:1;fill-rule:nonzero;stroke:none"
           d="m 136,32 h -4 v 4 h 4 z" /><path
           id="path446"
           style="fill:#999999;fill-opacity:1;fill-rule:nonzero;stroke:none"
           d="m 148,32 h -4 v 4 h 4 z" /><g
           transform="translate(128,213.7423)"
           id="g448"><path
             id="path450"
             style="fill:#999999;fill-opacity:1;fill-rule:nonzero;stroke:none"
             d="m 0,0 c -0.214,0 -0.388,0.174 -0.388,0.388 v 5.023 c 0,0.214 0.174,0.388 0.388,0.388 0.214,0 0.388,-0.174 0.388,-0.388 V 0.388 C 0.388,0.174 0.214,0 0,0" /></g><g
           transform="translate(128,196.3216)"
           id="g452"><path
             id="path454"
             style="fill:#999999;fill-opacity:1;fill-rule:nonzero;stroke:none"
             d="m 0,0 c -0.214,0 -0.388,0.174 -0.388,0.388 v 5.023 c 0,0.214 0.174,0.388 0.388,0.388 0.214,0 0.388,-0.174 0.388,-0.388 V 0.388 C 0.388,0.174 0.214,0 0,0" /></g><g
           transform="translate(133.8107,208)"
           id="g456"><path
             id="path458"
             style="fill:#999999;fill-opacity:1;fill-rule:nonzero;stroke:none"
             d="M 0,0 C 0,0.214 0.174,0.388 0.388,0.388 H 5.411 C 5.625,0.388 5.799,0.214 5.799,0 5.799,-0.214 5.625,-0.388 5.411,-0.388 H 0.388 C 0.174,-0.388 0,-0.214 0,0" /></g><g
           transform="translate(116.39,208)"
           id="g460"><path
             id="path462"
             style="fill:#999999;fill-opacity:1;fill-rule:nonzero;stroke:none"
             d="M 0,0 C 0,0.214 0.174,0.388 0.388,0.388 H 5.411 C 5.625,0.388 5.799,0.214 5.799,0 5.799,-0.214 5.625,-0.388 5.411,-0.388 H 0.388 C 0.174,-0.388 0,-0.214 0,0" /></g></g></g><g
       id="g464"><g
         clip-path="url(#clipPath470)"
         id="g466"><g
           id="g472"><g
             id="g474"><path
               id="path482"
               style="fill:url(#linearGradient480);stroke:none"
               d="m 120,170 c 0,-4.418 3.582,-8 8,-8 v 0 c 4.418,0 8,3.582 8,8 v 0 c 0,4.418 -3.582,8 -8,8 v 0 c -4.418,0 -8,-3.582 -8,-8" /></g></g></g></g></g></svg>