<?xml version="1.0" encoding="UTF-8" standalone="no"?>
<svg
   xmlns:dc="http://purl.org/dc/elements/1.1/"
   xmlns:cc="http://creativecommons.org/ns#"
   xmlns:rdf="http://www.w3.org/1999/02/22-rdf-syntax-ns#"
   xmlns:svg="http://www.w3.org/2000/svg"
   xmlns="http://www.w3.org/2000/svg"
   viewBox="0 0 288 309.33331"
   height="309.33331"
   width="288"
   xml:space="preserve"
   id="svg2"
   version="1.1"><metadata
     id="metadata8"><rdf:RDF><cc:Work
         rdf:about=""><dc:format>image/svg+xml</dc:format><dc:type
           rdf:resource="http://purl.org/dc/dcmitype/StillImage" /></cc:Work></rdf:RDF></metadata><defs
     id="defs6"><clipPath
       id="clipPath18"
       clipPathUnits="userSpaceOnUse"><path
         id="path16"
         d="M 0,256 H 256 V 0 H 0 Z" /></clipPath><clipPath
       id="clipPath30"
       clipPathUnits="userSpaceOnUse"><path
         id="path28"
         d="M 228,32 V 16 h 6 c 1.104,0 2,0.896 2,2 v 0 14 z" /></clipPath><linearGradient
       id="linearGradient40"
       spreadMethod="pad"
       gradientTransform="matrix(-11.414213,11.414213,11.414213,11.414213,237.41422,18.585787)"
       gradientUnits="userSpaceOnUse"
       y2="0"
       x2="1"
       y1="0"
       x1="0"><stop
         id="stop36"
         offset="0"
         style="stop-opacity:1;stop-color:#e6e7e8" /><stop
         id="stop38"
         offset="1"
         style="stop-opacity:1;stop-color:#d1d3d4" /></linearGradient><clipPath
       id="clipPath50"
       clipPathUnits="userSpaceOnUse"><path
         id="path48"
         d="M 0,256 H 256 V 0 H 0 Z" /></clipPath><clipPath
       id="clipPath64"
       clipPathUnits="userSpaceOnUse"><path
         id="path62"
         d="M 29.819,244 C 24.396,244 20,239.673 20,234.334 v 0 V 36.167 C 20,22.82 30.99,12 44.546,12 v 0 H 226 c 1.104,0 2,0.895 2,2 v 0 14 h 8 v 206.334 c 0,5.339 -4.396,9.666 -9.818,9.666 v 0 z" /></clipPath><linearGradient
       id="linearGradient74"
       spreadMethod="pad"
       gradientTransform="matrix(216.56096,-216.56096,-216.56096,-216.56096,20.993236,239.28674)"
       gradientUnits="userSpaceOnUse"
       y2="0"
       x2="1"
       y1="0"
       x1="0"><stop
         id="stop70"
         offset="0"
         style="stop-opacity:1;stop-color:#e6e7e8" /><stop
         id="stop72"
         offset="1"
         style="stop-opacity:1;stop-color:#d1d3d4" /></linearGradient><clipPath
       id="clipPath84"
       clipPathUnits="userSpaceOnUse"><path
         id="path82"
         d="M 0,256 H 256 V 0 H 0 Z" /></clipPath><clipPath
       id="clipPath98"
       clipPathUnits="userSpaceOnUse"><path
         id="path96"
         d="m 40,60 h 180 v 136.781 l -0.021,-1.535 -60.886,-3.234 -5.827,6.452 h -49.015 l -6.67,-6.464 -0.225,0.027 -57.329,6.44 -0.027,1.53 z" /></clipPath><linearGradient
       id="linearGradient108"
       spreadMethod="pad"
       gradientTransform="matrix(-159.9985,159.9985,159.9985,159.9985,209.19536,49.195358)"
       gradientUnits="userSpaceOnUse"
       y2="0"
       x2="1"
       y1="0"
       x1="0"><stop
         id="stop104"
         offset="0"
         style="stop-opacity:1;stop-color:#e6e7e8" /><stop
         id="stop106"
         offset="1"
         style="stop-opacity:1;stop-color:#d1d3d4" /></linearGradient><clipPath
       id="clipPath118"
       clipPathUnits="userSpaceOnUse"><path
         id="path116"
         d="M 0,256 H 256 V 0 H 0 Z" /></clipPath></defs><g
     transform="matrix(1.3333333,0,0,-1.3333333,-26.666666,325.33333)"
     id="g10"><g
       id="g12"><g
         clip-path="url(#clipPath18)"
         id="g14"><g
           transform="translate(218.2969,233.9307)"
           id="g20"><path
             id="path22"
             style="fill:#4c4c4c;fill-opacity:1;fill-rule:nonzero;stroke:none"
             d="m 0,0 h -173.195 c -3.331,0 -6.041,-2.71 -6.041,-6.042 v -174 -0.44 l 0.284,-0.338 12.889,-15.306 0.362,-0.43 h 0.562 H 0 c 3.331,0 6.041,2.71 6.041,6.042 V -6.042 C 6.041,-2.71 3.331,0 0,0" /></g></g></g><g
       id="g24"><g
         clip-path="url(#clipPath30)"
         id="g26"><g
           id="g32"><g
             id="g34"><path
               id="path42"
               style="fill:url(#linearGradient40);stroke:none"
               d="M 228,32 V 16 h 6 c 1.104,0 2,0.896 2,2 v 0 14 z" /></g></g></g></g><g
       id="g44"><g
         clip-path="url(#clipPath50)"
         id="g46"><g
           transform="translate(116,32)"
           id="g52"><path
             id="path54"
             style="fill:#4c4c4c;fill-opacity:1;fill-rule:nonzero;stroke:none"
             d="M 0,0 H 24 L 12,-8 Z" /></g><path
           id="path56"
           style="fill:#4c4c4c;fill-opacity:1;fill-rule:nonzero;stroke:none"
           d="m 24,36 h -4 v 12 h 4 z" /></g></g><g
       id="g58"><g
         clip-path="url(#clipPath64)"
         id="g60"><g
           id="g66"><g
             id="g68"><path
               id="path76"
               style="fill:url(#linearGradient74);stroke:none"
               d="M 29.819,244 C 24.396,244 20,239.673 20,234.334 v 0 V 36.167 C 20,22.82 30.99,12 44.546,12 v 0 H 226 c 1.104,0 2,0.895 2,2 v 0 14 h 8 v 206.334 c 0,5.339 -4.396,9.666 -9.818,9.666 v 0 z" /></g></g></g></g><g
       id="g78"><g
         clip-path="url(#clipPath84)"
         id="g80"><path
           id="path86"
           style="fill:#999999;fill-opacity:1;fill-rule:nonzero;stroke:none"
           d="M 220,52 H 40 v 152 h 180 z" /><g
           transform="translate(40,52)"
           id="g88"><path
             id="path90"
             style="fill:#ffffff;fill-opacity:1;fill-rule:nonzero;stroke:none"
             d="m 0,0 12,-16 h 163.242 c 2.628,0 4.758,2.141 4.758,4.78 V 4 H 0 Z" /></g></g></g><g
       id="g92"><g
         clip-path="url(#clipPath98)"
         id="g94"><g
           id="g100"><g
             id="g102"><path
               id="path110"
               style="fill:url(#linearGradient108);stroke:none"
               d="m 40,60 h 180 v 136.781 l -0.021,-1.535 -60.886,-3.234 -5.827,6.452 h -49.015 l -6.67,-6.464 -0.225,0.027 -57.329,6.44 -0.027,1.53 z" /></g></g></g></g><g
       id="g112"><g
         clip-path="url(#clipPath118)"
         id="g114"><g
           transform="translate(215.2422,228)"
           id="g120"><path
             id="path122"
             style="fill:#ffffff;fill-opacity:1;fill-rule:nonzero;stroke:none"
             d="m 0,0 h -170.484 c -2.628,0 -4.758,-2.14 -4.758,-4.78 v -23.223 l 57.233,-6.413 6.623,6.416 h 49.851 l 5.804,-6.428 60.489,3.209 V -4.78 C 4.758,-2.14 2.628,0 0,0" /></g></g></g></g></svg>