<?xml version="1.0" encoding="UTF-8" standalone="no"?>
<svg
   xmlns:dc="http://purl.org/dc/elements/1.1/"
   xmlns:cc="http://creativecommons.org/ns#"
   xmlns:rdf="http://www.w3.org/1999/02/22-rdf-syntax-ns#"
   xmlns:svg="http://www.w3.org/2000/svg"
   xmlns="http://www.w3.org/2000/svg"
   viewBox="0 0 309.33331 197.33333"
   height="197.33333"
   width="309.33331"
   xml:space="preserve"
   id="svg2"
   version="1.1"><metadata
     id="metadata8"><rdf:RDF><cc:Work
         rdf:about=""><dc:format>image/svg+xml</dc:format><dc:type
           rdf:resource="http://purl.org/dc/dcmitype/StillImage" /></cc:Work></rdf:RDF></metadata><defs
     id="defs6"><clipPath
       id="clipPath18"
       clipPathUnits="userSpaceOnUse"><path
         id="path16"
         d="M 0,256 H 256 V 0 H 0 Z" /></clipPath><clipPath
       id="clipPath32"
       clipPathUnits="userSpaceOnUse"><path
         id="path30"
         d="M 32,56 H 224 V 88 H 32 Z" /></clipPath><linearGradient
       id="linearGradient42"
       spreadMethod="pad"
       gradientTransform="matrix(112,-112,-112,-112,72,128)"
       gradientUnits="userSpaceOnUse"
       y2="0"
       x2="1"
       y1="0"
       x1="0"><stop
         id="stop38"
         offset="0"
         style="stop-opacity:1;stop-color:#e6e7e8" /><stop
         id="stop40"
         offset="1"
         style="stop-opacity:1;stop-color:#d1d3d4" /></linearGradient><clipPath
       id="clipPath52"
       clipPathUnits="userSpaceOnUse"><path
         id="path50"
         d="m 24,196 c -2.209,0 -4,-1.791 -4,-4 v 0 -108 h 216 v 108 c 0,2.209 -1.791,4 -4,4 v 0 z" /></clipPath><linearGradient
       id="linearGradient62"
       spreadMethod="pad"
       gradientTransform="matrix(162.82843,-162.82843,-162.82843,-162.82843,46.585785,220.24265)"
       gradientUnits="userSpaceOnUse"
       y2="0"
       x2="1"
       y1="0"
       x1="0"><stop
         id="stop58"
         offset="0"
         style="stop-opacity:1;stop-color:#e6e7e8" /><stop
         id="stop60"
         offset="1"
         style="stop-opacity:1;stop-color:#d1d3d4" /></linearGradient><clipPath
       id="clipPath72"
       clipPathUnits="userSpaceOnUse"><path
         id="path70"
         d="M 0,256 H 256 V 0 H 0 Z" /></clipPath></defs><g
     transform="matrix(1.3333333,0,0,-1.3333333,-16.187466,271.99999)"
     id="g10"><g
       id="g12"><g
         clip-path="url(#clipPath18)"
         id="g14"><g
           transform="translate(244.1406,76)"
           id="g20"><path
             id="path22"
             style="fill:#999999;fill-opacity:1;fill-rule:nonzero;stroke:none"
             d="m 0,0 h -232 v 118.452 c 0,5.273 4.328,9.548 9.667,9.548 H -9.667 C -4.328,128 0,123.725 0,118.452 Z" /></g><path
           id="path24"
           style="fill:#999999;fill-opacity:1;fill-rule:nonzero;stroke:none"
           d="M 228,56 H 28 v 28 h 200 z" /></g></g><g
       id="g26"><g
         clip-path="url(#clipPath32)"
         id="g28"><g
           id="g34"><g
             id="g36"><path
               id="path44"
               style="fill:url(#linearGradient42);stroke:none"
               d="M 32,56 H 224 V 88 H 32 Z" /></g></g></g></g><g
       id="g46"><g
         clip-path="url(#clipPath52)"
         id="g48"><g
           id="g54"><g
             id="g56"><path
               id="path64"
               style="fill:url(#linearGradient62);stroke:none"
               d="m 24,196 c -2.209,0 -4,-1.791 -4,-4 v 0 -108 h 216 v 108 c 0,2.209 -1.791,4 -4,4 v 0 z" /></g></g></g></g><g
       id="g66"><g
         clip-path="url(#clipPath72)"
         id="g68"><g
           transform="translate(223.1219,92)"
           id="g74"><path
             id="path76"
             style="fill:#ffffff;fill-opacity:1;fill-rule:nonzero;stroke:none"
             d="m 0,0 h -190.244 c -2.694,0 -4.878,2.156 -4.878,4.815 v 86.37 c 0,2.659 2.184,4.815 4.878,4.815 H 0 c 2.694,0 4.878,-2.156 4.878,-4.815 V 4.815 C 4.878,2.156 2.694,0 0,0" /></g></g></g></g></svg>