<?xml version="1.0" encoding="UTF-8" standalone="no"?>
<svg
   xmlns:dc="http://purl.org/dc/elements/1.1/"
   xmlns:cc="http://creativecommons.org/ns#"
   xmlns:rdf="http://www.w3.org/1999/02/22-rdf-syntax-ns#"
   xmlns:svg="http://www.w3.org/2000/svg"
   xmlns="http://www.w3.org/2000/svg"
   viewBox="0 0 277.33465 309.33331"
   height="309.33331"
   width="277.33466"
   xml:space="preserve"
   id="svg2"
   version="1.1"><metadata
     id="metadata8"><rdf:RDF><cc:Work
         rdf:about=""><dc:format>image/svg+xml</dc:format><dc:type
           rdf:resource="http://purl.org/dc/dcmitype/StillImage" /></cc:Work></rdf:RDF></metadata><defs
     id="defs6"><clipPath
       id="clipPath18"
       clipPathUnits="userSpaceOnUse"><path
         id="path16"
         d="m 40,244 c -8.837,0 -16,-7.163 -16,-16 v 0 -90 c 0,-1.105 0.896,-2 2,-2 v 0 h 6 v -4 h 192 v 4 h 6 c 1.105,0 2,0.895 2,2 v 0 90 c 0,8.837 -7.163,16 -16,16 v 0 z" /></clipPath><linearGradient
       id="linearGradient28"
       spreadMethod="pad"
       gradientTransform="matrix(152.72791,-152.72791,-152.72791,-152.72791,51.636043,262.26346)"
       gradientUnits="userSpaceOnUse"
       y2="0"
       x2="1"
       y1="0"
       x1="0"><stop
         id="stop24"
         offset="0"
         style="stop-opacity:1;stop-color:#e6e7e8" /><stop
         id="stop26"
         offset="1"
         style="stop-opacity:1;stop-color:#d1d3d4" /></linearGradient><clipPath
       id="clipPath38"
       clipPathUnits="userSpaceOnUse"><path
         id="path36"
         d="M 24,128 V 32 C 24,20.954 32.954,12 44,12 v 0 h 168 c 11.046,0 20,8.954 20,20 v 0 96 z" /></clipPath><linearGradient
       id="linearGradient48"
       spreadMethod="pad"
       gradientTransform="matrix(156.14214,-156.14214,-156.14214,-156.14214,49.928932,153.92892)"
       gradientUnits="userSpaceOnUse"
       y2="0"
       x2="1"
       y1="0"
       x1="0"><stop
         id="stop44"
         offset="0"
         style="stop-opacity:1;stop-color:#e6e7e8" /><stop
         id="stop46"
         offset="1"
         style="stop-opacity:1;stop-color:#d1d3d4" /></linearGradient><clipPath
       id="clipPath58"
       clipPathUnits="userSpaceOnUse"><path
         id="path56"
         d="M 0,256 H 256 V 0 H 0 Z" /></clipPath><clipPath
       id="clipPath72"
       clipPathUnits="userSpaceOnUse"><path
         id="path70"
         d="m 72,128 c -4.418,0 -8,-3.582 -8,-8 v 0 -100 c 0,-4.418 3.582,-8 8,-8 v 0 h 112 c 4.418,0 8,3.582 8,8 v 0 100 c 0,4.418 -3.582,8 -8,8 v 0 z M 66,20 v 100 c 0,3.309 2.692,6 6,6 v 0 h 112 c 3.309,0 6,-2.691 6,-6 v 0 -100 c 0,-3.309 -2.691,-6 -6,-6 v 0 H 72 c -3.308,0 -6,2.691 -6,6" /></clipPath><linearGradient
       id="linearGradient82"
       spreadMethod="pad"
       gradientTransform="matrix(-117.31371,117.31371,117.31371,117.31371,186.65685,11.343145)"
       gradientUnits="userSpaceOnUse"
       y2="0"
       x2="1"
       y1="0"
       x1="0"><stop
         id="stop78"
         offset="0"
         style="stop-opacity:1;stop-color:#e6e7e8" /><stop
         id="stop80"
         offset="1"
         style="stop-opacity:1;stop-color:#d1d3d4" /></linearGradient><clipPath
       id="clipPath92"
       clipPathUnits="userSpaceOnUse"><path
         id="path90"
         d="M 0,256 H 256 V 0 H 0 Z" /></clipPath><clipPath
       id="clipPath104"
       clipPathUnits="userSpaceOnUse"><path
         id="path102"
         d="m 126,238 c 0,-1.105 0.896,-2 2,-2 v 0 c 1.104,0 2,0.895 2,2 v 0 c 0,1.105 -0.896,2 -2,2 v 0 c -1.104,0 -2,-0.895 -2,-2" /></clipPath><linearGradient
       id="linearGradient114"
       spreadMethod="pad"
       gradientTransform="matrix(2.8284271,-2.8284271,-2.8284271,-2.8284271,126.58578,239.41422)"
       gradientUnits="userSpaceOnUse"
       y2="0"
       x2="1"
       y1="0"
       x1="0"><stop
         id="stop110"
         offset="0"
         style="stop-opacity:1;stop-color:#e6e7e8" /><stop
         id="stop112"
         offset="1"
         style="stop-opacity:1;stop-color:#d1d3d4" /></linearGradient><clipPath
       id="clipPath124"
       clipPathUnits="userSpaceOnUse"><path
         id="path122"
         d="M 0,256 H 256 V 0 H 0 Z" /></clipPath><clipPath
       id="clipPath136"
       clipPathUnits="userSpaceOnUse"><path
         id="path134"
         d="m 64,237 c 0,-1.656 1.344,-3 3,-3 v 0 c 1.656,0 3,1.344 3,3 v 0 c 0,1.657 -1.344,3 -3,3 v 0 c -1.656,0 -3,-1.343 -3,-3" /></clipPath><linearGradient
       id="linearGradient146"
       spreadMethod="pad"
       gradientTransform="matrix(-4.2426405,4.2426405,4.2426405,4.2426405,69.121323,234.87868)"
       gradientUnits="userSpaceOnUse"
       y2="0"
       x2="1"
       y1="0"
       x1="0"><stop
         id="stop142"
         offset="0"
         style="stop-opacity:1;stop-color:#e6e7e8" /><stop
         id="stop144"
         offset="1"
         style="stop-opacity:1;stop-color:#d1d3d4" /></linearGradient><clipPath
       id="clipPath156"
       clipPathUnits="userSpaceOnUse"><path
         id="path154"
         d="m 186,237 c 0,-1.656 1.343,-3 3,-3 v 0 c 1.657,0 3,1.344 3,3 v 0 c 0,1.657 -1.343,3 -3,3 v 0 c -1.657,0 -3,-1.343 -3,-3" /></clipPath><linearGradient
       id="linearGradient166"
       spreadMethod="pad"
       gradientTransform="matrix(-4.2426405,4.2426405,4.2426405,4.2426405,191.12132,234.87868)"
       gradientUnits="userSpaceOnUse"
       y2="0"
       x2="1"
       y1="0"
       x1="0"><stop
         id="stop162"
         offset="0"
         style="stop-opacity:1;stop-color:#e6e7e8" /><stop
         id="stop164"
         offset="1"
         style="stop-opacity:1;stop-color:#d1d3d4" /></linearGradient><clipPath
       id="clipPath176"
       clipPathUnits="userSpaceOnUse"><path
         id="path174"
         d="M 0,256 H 256 V 0 H 0 Z" /></clipPath><clipPath
       id="clipPath194"
       clipPathUnits="userSpaceOnUse"><path
         id="path192"
         d="m 56,232 c -2.209,0 -4,-1.791 -4,-4 v 0 -88 c 0,-2.209 1.791,-4 4,-4 v 0 h 144 c 2.209,0 4,1.791 4,4 v 0 88 c 0,2.209 -1.791,4 -4,4 v 0 z" /></clipPath><linearGradient
       id="linearGradient204"
       spreadMethod="pad"
       gradientTransform="matrix(-121.65685,121.65685,121.65685,121.65685,188.82843,123.17157)"
       gradientUnits="userSpaceOnUse"
       y2="0"
       x2="1"
       y1="0"
       x1="0"><stop
         id="stop200"
         offset="0"
         style="stop-opacity:1;stop-color:#e6e7e8" /><stop
         id="stop202"
         offset="1"
         style="stop-opacity:1;stop-color:#d1d3d4" /></linearGradient><clipPath
       id="clipPath214"
       clipPathUnits="userSpaceOnUse"><path
         id="path212"
         d="m 56,140 h 144 v 87.999 H 56 Z" /></clipPath><linearGradient
       id="linearGradient224"
       spreadMethod="pad"
       gradientTransform="matrix(115.99999,-115.99999,-115.99999,-115.99999,70,242)"
       gradientUnits="userSpaceOnUse"
       y2="0"
       x2="1"
       y1="0"
       x1="0"><stop
         id="stop220"
         offset="0"
         style="stop-opacity:1;stop-color:#e6e7e8" /><stop
         id="stop222"
         offset="1"
         style="stop-opacity:1;stop-color:#d1d3d4" /></linearGradient><clipPath
       id="clipPath234"
       clipPathUnits="userSpaceOnUse"><path
         id="path232"
         d="M 0,256 H 256 V 0 H 0 Z" /></clipPath><clipPath
       id="clipPath246"
       clipPathUnits="userSpaceOnUse"><path
         id="path244"
         d="m 228,156 h 4.001 v 12.001 H 228 Z" /></clipPath><linearGradient
       id="linearGradient256"
       spreadMethod="pad"
       gradientTransform="matrix(-7.9999995,7.9999995,7.9999995,7.9999995,234,158)"
       gradientUnits="userSpaceOnUse"
       y2="0"
       x2="1"
       y1="0"
       x1="0"><stop
         id="stop252"
         offset="0"
         style="stop-opacity:1;stop-color:#e6e7e8" /><stop
         id="stop254"
         offset="1"
         style="stop-opacity:1;stop-color:#d1d3d4" /></linearGradient><clipPath
       id="clipPath266"
       clipPathUnits="userSpaceOnUse"><path
         id="path264"
         d="m 32,136 c -4.419,0 -8,-3.581 -8,-8 v 0 c 0,-4.418 3.581,-8 8,-8 v 0 h 192 c 4.418,0 8,3.582 8,8 v 0 c 0,4.419 -3.582,8 -8,8 v 0 z" /></clipPath><linearGradient
       id="linearGradient276"
       spreadMethod="pad"
       gradientTransform="matrix(-107.31371,107.31371,107.31371,107.31371,181.65686,74.34314)"
       gradientUnits="userSpaceOnUse"
       y2="0"
       x2="1"
       y1="0"
       x1="0"><stop
         id="stop272"
         offset="0"
         style="stop-opacity:1;stop-color:#e6e7e8" /><stop
         id="stop274"
         offset="1"
         style="stop-opacity:1;stop-color:#d1d3d4" /></linearGradient><clipPath
       id="clipPath286"
       clipPathUnits="userSpaceOnUse"><path
         id="path284"
         d="M 0,256 H 256 V 0 H 0 Z" /></clipPath><clipPath
       id="clipPath298"
       clipPathUnits="userSpaceOnUse"><path
         id="path296"
         d="m 224,126 h 2 v 4 h -2 z" /></clipPath><linearGradient
       id="linearGradient308"
       spreadMethod="pad"
       gradientTransform="matrix(-2.9999998,2.9999998,2.9999998,2.9999998,226.5,126.5)"
       gradientUnits="userSpaceOnUse"
       y2="0"
       x2="1"
       y1="0"
       x1="0"><stop
         id="stop304"
         offset="0"
         style="stop-opacity:1;stop-color:#e6e7e8" /><stop
         id="stop306"
         offset="1"
         style="stop-opacity:1;stop-color:#d1d3d4" /></linearGradient><clipPath
       id="clipPath318"
       clipPathUnits="userSpaceOnUse"><path
         id="path316"
         d="M 0,256 H 256 V 0 H 0 Z" /></clipPath><clipPath
       id="clipPath328"
       clipPathUnits="userSpaceOnUse"><path
         id="path326"
         d="m 30,93.883 c 0,-8.285 6.715,-15 15,-15 v 0 c 8.285,0 15,6.715 15,15 v 0 c 0,8.284 -6.715,15 -15,15 v 0 c -8.285,0 -15,-6.716 -15,-15" /></clipPath><linearGradient
       id="linearGradient338"
       spreadMethod="pad"
       gradientTransform="matrix(-21.213203,21.213203,21.213203,21.213203,55.606602,83.275749)"
       gradientUnits="userSpaceOnUse"
       y2="0"
       x2="1"
       y1="0"
       x1="0"><stop
         id="stop334"
         offset="0"
         style="stop-opacity:1;stop-color:#e6e7e8" /><stop
         id="stop336"
         offset="1"
         style="stop-opacity:1;stop-color:#d1d3d4" /></linearGradient><clipPath
       id="clipPath348"
       clipPathUnits="userSpaceOnUse"><path
         id="path346"
         d="m 35,93.883 c 0,-5.524 4.477,-10 10,-10 v 0 c 5.523,0 10,4.476 10,10 v 0 c 0,5.522 -4.477,10 -10,10 v 0 c -5.523,0 -10,-4.478 -10,-10" /></clipPath><linearGradient
       id="linearGradient358"
       spreadMethod="pad"
       gradientTransform="matrix(14.142136,-14.142136,-14.142136,-14.142136,37.928932,100.95342)"
       gradientUnits="userSpaceOnUse"
       y2="0"
       x2="1"
       y1="0"
       x1="0"><stop
         id="stop354"
         offset="0"
         style="stop-opacity:1;stop-color:#e6e7e8" /><stop
         id="stop356"
         offset="1"
         style="stop-opacity:1;stop-color:#d1d3d4" /></linearGradient><clipPath
       id="clipPath368"
       clipPathUnits="userSpaceOnUse"><path
         id="path366"
         d="M 0,256 H 256 V 0 H 0 Z" /></clipPath><clipPath
       id="clipPath384"
       clipPathUnits="userSpaceOnUse"><path
         id="path382"
         d="m 44.118,65.648 h 1.764 v 5.294 h -1.764 z" /></clipPath><linearGradient
       id="linearGradient394"
       spreadMethod="pad"
       gradientTransform="matrix(3.5294118,-3.5294118,-3.5294118,-3.5294118,43.235294,70.058823)"
       gradientUnits="userSpaceOnUse"
       y2="0"
       x2="1"
       y1="0"
       x1="0"><stop
         id="stop390"
         offset="0"
         style="stop-opacity:1;stop-color:#e6e7e8" /><stop
         id="stop392"
         offset="1"
         style="stop-opacity:1;stop-color:#d1d3d4" /></linearGradient><clipPath
       id="clipPath404"
       clipPathUnits="userSpaceOnUse"><path
         id="path402"
         d="m 44.118,49.765 h 1.764 v 5.294 h -1.764 z" /></clipPath><linearGradient
       id="linearGradient414"
       spreadMethod="pad"
       gradientTransform="matrix(3.5294118,-3.5294118,-3.5294118,-3.5294118,43.235294,54.176472)"
       gradientUnits="userSpaceOnUse"
       y2="0"
       x2="1"
       y1="0"
       x1="0"><stop
         id="stop410"
         offset="0"
         style="stop-opacity:1;stop-color:#e6e7e8" /><stop
         id="stop412"
         offset="1"
         style="stop-opacity:1;stop-color:#d1d3d4" /></linearGradient><clipPath
       id="clipPath424"
       clipPathUnits="userSpaceOnUse"><path
         id="path422"
         d="m 50.294,59.471 h 5.295 v 1.764 h -5.295 z" /></clipPath><linearGradient
       id="linearGradient434"
       spreadMethod="pad"
       gradientTransform="matrix(3.5294118,-3.5294118,-3.5294118,-3.5294118,51.176472,62.117645)"
       gradientUnits="userSpaceOnUse"
       y2="0"
       x2="1"
       y1="0"
       x1="0"><stop
         id="stop430"
         offset="0"
         style="stop-opacity:1;stop-color:#e6e7e8" /><stop
         id="stop432"
         offset="1"
         style="stop-opacity:1;stop-color:#d1d3d4" /></linearGradient><clipPath
       id="clipPath444"
       clipPathUnits="userSpaceOnUse"><path
         id="path442"
         d="m 34.411,59.471 h 5.295 v 1.764 h -5.295 z" /></clipPath><linearGradient
       id="linearGradient454"
       spreadMethod="pad"
       gradientTransform="matrix(3.5294118,-3.5294118,-3.5294118,-3.5294118,35.294117,62.117645)"
       gradientUnits="userSpaceOnUse"
       y2="0"
       x2="1"
       y1="0"
       x1="0"><stop
         id="stop450"
         offset="0"
         style="stop-opacity:1;stop-color:#e6e7e8" /><stop
         id="stop452"
         offset="1"
         style="stop-opacity:1;stop-color:#d1d3d4" /></linearGradient><clipPath
       id="clipPath464"
       clipPathUnits="userSpaceOnUse"><path
         id="path462"
         d="m 200,12 h 2 v 4.001 h -2 z" /></clipPath><linearGradient
       id="linearGradient474"
       spreadMethod="pad"
       gradientTransform="matrix(2.9999998,-2.9999998,-2.9999998,-2.9999998,199.5,15.5)"
       gradientUnits="userSpaceOnUse"
       y2="0"
       x2="1"
       y1="0"
       x1="0"><stop
         id="stop470"
         offset="0"
         style="stop-opacity:1;stop-color:#e6e7e8" /><stop
         id="stop472"
         offset="1"
         style="stop-opacity:1;stop-color:#d1d3d4" /></linearGradient><clipPath
       id="clipPath484"
       clipPathUnits="userSpaceOnUse"><path
         id="path482"
         d="m 208,12 h 2 v 4.001 h -2 z" /></clipPath><linearGradient
       id="linearGradient494"
       spreadMethod="pad"
       gradientTransform="matrix(2.9999998,-2.9999998,-2.9999998,-2.9999998,207.5,15.5)"
       gradientUnits="userSpaceOnUse"
       y2="0"
       x2="1"
       y1="0"
       x1="0"><stop
         id="stop490"
         offset="0"
         style="stop-opacity:1;stop-color:#e6e7e8" /><stop
         id="stop492"
         offset="1"
         style="stop-opacity:1;stop-color:#d1d3d4" /></linearGradient><clipPath
       id="clipPath504"
       clipPathUnits="userSpaceOnUse"><path
         id="path502"
         d="M 0,256 H 256 V 0 H 0 Z" /></clipPath></defs><g
     transform="matrix(1.3333333,0,0,-1.3333333,-31.999999,325.33333)"
     id="g10"><g
       id="g12"><g
         clip-path="url(#clipPath18)"
         id="g14"><g
           id="g20"><g
             id="g22"><path
               id="path30"
               style="fill:url(#linearGradient28);stroke:none"
               d="m 40,244 c -8.837,0 -16,-7.163 -16,-16 v 0 -90 c 0,-1.105 0.896,-2 2,-2 v 0 h 6 v -4 h 192 v 4 h 6 c 1.105,0 2,0.895 2,2 v 0 90 c 0,8.837 -7.163,16 -16,16 v 0 z" /></g></g></g></g><g
       id="g32"><g
         clip-path="url(#clipPath38)"
         id="g34"><g
           id="g40"><g
             id="g42"><path
               id="path50"
               style="fill:url(#linearGradient48);stroke:none"
               d="M 24,128 V 32 C 24,20.954 32.954,12 44,12 v 0 h 168 c 11.046,0 20,8.954 20,20 v 0 96 z" /></g></g></g></g><g
       id="g52"><g
         clip-path="url(#clipPath58)"
         id="g54"><path
           id="path60"
           style="fill:#999999;fill-opacity:1;fill-rule:nonzero;stroke:none"
           d="M 106,12 H 72 v 12 h 34 z" /><path
           id="path62"
           style="fill:#999999;fill-opacity:1;fill-rule:nonzero;stroke:none"
           d="m 148,12 h -40 v 12 h 40 z" /><path
           id="path64"
           style="fill:#999999;fill-opacity:1;fill-rule:nonzero;stroke:none"
           d="m 184,12 h -34 v 12 h 34 z" /></g></g><g
       id="g66"><g
         clip-path="url(#clipPath72)"
         id="g68"><g
           id="g74"><g
             id="g76"><path
               id="path84"
               style="fill:url(#linearGradient82);stroke:none"
               d="m 72,128 c -4.418,0 -8,-3.582 -8,-8 v 0 -100 c 0,-4.418 3.582,-8 8,-8 v 0 h 112 c 4.418,0 8,3.582 8,8 v 0 100 c 0,4.418 -3.582,8 -8,8 v 0 z M 66,20 v 100 c 0,3.309 2.692,6 6,6 v 0 h 112 c 3.309,0 6,-2.691 6,-6 v 0 -100 c 0,-3.309 -2.691,-6 -6,-6 v 0 H 72 c -3.308,0 -6,2.691 -6,6" /></g></g></g></g><g
       id="g86"><g
         clip-path="url(#clipPath92)"
         id="g88"><g
           transform="translate(132,238)"
           id="g94"><path
             id="path96"
             style="fill:#999999;fill-opacity:1;fill-rule:nonzero;stroke:none"
             d="m 0,0 c 0,-2.209 -1.791,-4 -4,-4 -2.209,0 -4,1.791 -4,4 0,2.209 1.791,4 4,4 2.209,0 4,-1.791 4,-4" /></g></g></g><g
       id="g98"><g
         clip-path="url(#clipPath104)"
         id="g100"><g
           id="g106"><g
             id="g108"><path
               id="path116"
               style="fill:url(#linearGradient114);stroke:none"
               d="m 126,238 c 0,-1.105 0.896,-2 2,-2 v 0 c 1.104,0 2,0.895 2,2 v 0 c 0,1.105 -0.896,2 -2,2 v 0 c -1.104,0 -2,-0.895 -2,-2" /></g></g></g></g><g
       id="g118"><g
         clip-path="url(#clipPath124)"
         id="g120"><g
           transform="translate(129,238)"
           id="g126"><path
             id="path128"
             style="fill:#999999;fill-opacity:1;fill-rule:nonzero;stroke:none"
             d="m 0,0 c 0,-0.552 -0.448,-1 -1,-1 -0.552,0 -1,0.448 -1,1 0,0.552 0.448,1 1,1 0.552,0 1,-0.448 1,-1" /></g></g></g><g
       id="g130"><g
         clip-path="url(#clipPath136)"
         id="g132"><g
           id="g138"><g
             id="g140"><path
               id="path148"
               style="fill:url(#linearGradient146);stroke:none"
               d="m 64,237 c 0,-1.656 1.344,-3 3,-3 v 0 c 1.656,0 3,1.344 3,3 v 0 c 0,1.657 -1.344,3 -3,3 v 0 c -1.656,0 -3,-1.343 -3,-3" /></g></g></g></g><g
       id="g150"><g
         clip-path="url(#clipPath156)"
         id="g152"><g
           id="g158"><g
             id="g160"><path
               id="path168"
               style="fill:url(#linearGradient166);stroke:none"
               d="m 186,237 c 0,-1.656 1.343,-3 3,-3 v 0 c 1.657,0 3,1.344 3,3 v 0 c 0,1.657 -1.343,3 -3,3 v 0 c -1.657,0 -3,-1.343 -3,-3" /></g></g></g></g><g
       id="g170"><g
         clip-path="url(#clipPath176)"
         id="g172"><g
           transform="translate(221.707,184.707)"
           id="g178"><path
             id="path180"
             style="fill:#999999;fill-opacity:1;fill-rule:nonzero;stroke:none"
             d="m 0,0 c -0.391,0.391 -1.023,0.391 -1.414,0 -0.391,-0.391 -0.391,-1.023 0,-1.414 0.391,-0.391 1.023,-0.391 1.414,0 0.391,0.391 0.391,1.023 0,1.414 m -6,0 c -0.391,0.391 -1.023,0.391 -1.414,0 -0.391,-0.391 -0.391,-1.023 0,-1.414 0.391,-0.391 1.023,-0.391 1.414,0 0.391,0.391 0.391,1.023 0,1.414 M 0,6 C -0.391,6.391 -1.023,6.391 -1.414,6 -1.805,5.609 -1.805,4.977 -1.414,4.586 -1.023,4.195 -0.391,4.195 0,4.586 0.391,4.977 0.391,5.609 0,6 m -6,0 c -0.391,0.391 -1.023,0.391 -1.414,0 -0.391,-0.391 -0.391,-1.023 0,-1.414 0.391,-0.391 1.023,-0.391 1.414,0 0.391,0.391 0.391,1.023 0,1.414 m 3.293,-8.707 c 0,0.552 -0.447,1 -1,1 -0.553,0 -1,-0.448 -1,-1 0,-0.552 0.447,-1 1,-1 0.553,0 1,0.448 1,1 m 0,10 c 0,0.552 -0.447,1 -1,1 -0.553,0 -1,-0.448 -1,-1 0,-0.552 0.447,-1 1,-1 0.553,0 1,0.448 1,1 m 4,-4 c -0.553,0 -1,-0.448 -1,-1 0,-0.552 0.447,-1 1,-1 0.553,0 1,0.448 1,1 0,0.552 -0.447,1 -1,1 m -10,0 c -0.553,0 -1,-0.448 -1,-1 0,-0.552 0.447,-1 1,-1 0.553,0 1,0.448 1,1 0,0.552 -0.447,1 -1,1 m 6,-1 c 0,-0.552 -0.447,-1 -1,-1 -0.553,0 -1,0.448 -1,1 0,0.552 0.447,1 1,1 0.553,0 1,-0.448 1,-1" /></g><g
           transform="translate(41.707,184.707)"
           id="g182"><path
             id="path184"
             style="fill:#999999;fill-opacity:1;fill-rule:nonzero;stroke:none"
             d="m 0,0 c -0.391,0.391 -1.023,0.391 -1.414,0 -0.391,-0.391 -0.391,-1.023 0,-1.414 0.391,-0.391 1.023,-0.391 1.414,0 0.391,0.391 0.391,1.023 0,1.414 m -6,0 c -0.391,0.391 -1.023,0.391 -1.414,0 -0.391,-0.391 -0.391,-1.023 0,-1.414 0.391,-0.391 1.023,-0.391 1.414,0 0.391,0.391 0.391,1.023 0,1.414 M 0,6 C -0.391,6.391 -1.023,6.391 -1.414,6 -1.805,5.609 -1.805,4.977 -1.414,4.586 -1.023,4.195 -0.391,4.195 0,4.586 0.391,4.977 0.391,5.609 0,6 m -6,0 c -0.391,0.391 -1.023,0.391 -1.414,0 -0.391,-0.391 -0.391,-1.023 0,-1.414 0.391,-0.391 1.023,-0.391 1.414,0 0.391,0.391 0.391,1.023 0,1.414 m 3.293,-8.707 c 0,0.552 -0.448,1 -1,1 -0.552,0 -1,-0.448 -1,-1 0,-0.552 0.448,-1 1,-1 0.552,0 1,0.448 1,1 m 0,10 c 0,0.552 -0.448,1 -1,1 -0.552,0 -1,-0.448 -1,-1 0,-0.552 0.448,-1 1,-1 0.552,0 1,0.448 1,1 m 4,-4 c -0.552,0 -1,-0.448 -1,-1 0,-0.552 0.448,-1 1,-1 0.552,0 1,0.448 1,1 0,0.552 -0.448,1 -1,1 m -10,0 c -0.552,0 -1,-0.448 -1,-1 0,-0.552 0.448,-1 1,-1 0.552,0 1,0.448 1,1 0,0.552 -0.448,1 -1,1 m 6,-1 c 0,-0.552 -0.448,-1 -1,-1 -0.552,0 -1,0.448 -1,1 0,0.552 0.448,1 1,1 0.552,0 1,-0.448 1,-1" /></g><path
           id="path186"
           style="fill:#191919;fill-opacity:1;fill-rule:nonzero;stroke:none"
           d="M 200,228 H 56 v -88 h 144 z" /></g></g><g
       id="g188"><g
         clip-path="url(#clipPath194)"
         id="g190"><g
           id="g196"><g
             id="g198"><path
               id="path206"
               style="fill:url(#linearGradient204);stroke:none"
               d="m 56,232 c -2.209,0 -4,-1.791 -4,-4 v 0 -88 c 0,-2.209 1.791,-4 4,-4 v 0 h 144 c 2.209,0 4,1.791 4,4 v 0 88 c 0,2.209 -1.791,4 -4,4 v 0 z" /></g></g></g></g><g
       id="g208"><g
         clip-path="url(#clipPath214)"
         id="g210"><g
           id="g216"><g
             id="g218"><path
               id="path226"
               style="fill:url(#linearGradient224);stroke:none"
               d="m 56,140 h 144 v 87.999 H 56 Z" /></g></g></g></g><g
       id="g228"><g
         clip-path="url(#clipPath234)"
         id="g230"><path
           id="path236"
           style="fill:#999999;fill-opacity:1;fill-rule:nonzero;stroke:none"
           d="M 198,142 H 58 v 84 h 140 z" /><path
           id="path238"
           style="fill:#999999;fill-opacity:1;fill-rule:nonzero;stroke:none"
           d="m 228,168 h 4 v 8 h -4 z" /></g></g><g
       id="g240"><g
         clip-path="url(#clipPath246)"
         id="g242"><g
           id="g248"><g
             id="g250"><path
               id="path258"
               style="fill:url(#linearGradient256);stroke:none"
               d="m 228,156 h 4.001 v 12.001 H 228 Z" /></g></g></g></g><g
       id="g260"><g
         clip-path="url(#clipPath266)"
         id="g262"><g
           id="g268"><g
             id="g270"><path
               id="path278"
               style="fill:url(#linearGradient276);stroke:none"
               d="m 32,136 c -4.419,0 -8,-3.581 -8,-8 v 0 c 0,-4.418 3.581,-8 8,-8 v 0 h 192 c 4.418,0 8,3.582 8,8 v 0 c 0,4.419 -3.582,8 -8,8 v 0 z" /></g></g></g></g><g
       id="g280"><g
         clip-path="url(#clipPath286)"
         id="g282"><path
           id="path288"
           style="fill:#999999;fill-opacity:1;fill-rule:nonzero;stroke:none"
           d="m 42,120 h -2 v 16 h 2 z" /><path
           id="path290"
           style="fill:#999999;fill-opacity:1;fill-rule:nonzero;stroke:none"
           d="m 216,120 h -2 v 16 h 2 z" /></g></g><g
       id="g292"><g
         clip-path="url(#clipPath298)"
         id="g294"><g
           id="g300"><g
             id="g302"><path
               id="path310"
               style="fill:url(#linearGradient308);stroke:none"
               d="m 224,126 h 2 v 4 h -2 z" /></g></g></g></g><g
       id="g312"><g
         clip-path="url(#clipPath318)"
         id="g314"><path
           id="path320"
           style="fill:#999999;fill-opacity:1;fill-rule:nonzero;stroke:none"
           d="M 184,28 H 72 v 88 h 112 z" /></g></g><g
       id="g322"><g
         clip-path="url(#clipPath328)"
         id="g324"><g
           id="g330"><g
             id="g332"><path
               id="path340"
               style="fill:url(#linearGradient338);stroke:none"
               d="m 30,93.883 c 0,-8.285 6.715,-15 15,-15 v 0 c 8.285,0 15,6.715 15,15 v 0 c 0,8.284 -6.715,15 -15,15 v 0 c -8.285,0 -15,-6.716 -15,-15" /></g></g></g></g><g
       id="g342"><g
         clip-path="url(#clipPath348)"
         id="g344"><g
           id="g350"><g
             id="g352"><path
               id="path360"
               style="fill:url(#linearGradient358);stroke:none"
               d="m 35,93.883 c 0,-5.524 4.477,-10 10,-10 v 0 c 5.523,0 10,4.476 10,10 v 0 c 0,5.522 -4.477,10 -10,10 v 0 c -5.523,0 -10,-4.478 -10,-10" /></g></g></g></g><g
       id="g362"><g
         clip-path="url(#clipPath368)"
         id="g364"><g
           transform="translate(52.5,93.8828)"
           id="g370"><path
             id="path372"
             style="fill:#999999;fill-opacity:1;fill-rule:nonzero;stroke:none"
             d="m 0,0 c 0,-4.143 -3.358,-7.5 -7.5,-7.5 -4.142,0 -7.5,3.357 -7.5,7.5 0,4.142 3.358,7.5 7.5,7.5 C -3.358,7.5 0,4.142 0,0" /></g><g
           transform="translate(56.4707,63.8828)"
           id="g374"><path
             id="path376"
             style="fill:#999999;fill-opacity:1;fill-rule:nonzero;stroke:none"
             d="m 0,0 h -7.941 v 7.94 c 0,0.488 -0.395,0.883 -0.883,0.883 h -5.294 C -14.605,8.823 -15,8.428 -15,7.94 V 0 h -7.941 c -0.488,0 -0.883,-0.396 -0.883,-0.883 v -5.294 c 0,-0.487 0.395,-0.883 0.883,-0.883 H -15 V -15 c 0,-0.487 0.395,-0.883 0.882,-0.883 h 5.294 c 0.488,0 0.883,0.396 0.883,0.883 v 7.94 H 0 c 0.487,0 0.882,0.396 0.882,0.883 v 5.294 C 0.882,-0.396 0.487,0 0,0" /></g></g></g><g
       id="g378"><g
         clip-path="url(#clipPath384)"
         id="g380"><g
           id="g386"><g
             id="g388"><path
               id="path396"
               style="fill:url(#linearGradient394);stroke:none"
               d="m 44.118,65.648 h 1.764 v 5.294 h -1.764 z" /></g></g></g></g><g
       id="g398"><g
         clip-path="url(#clipPath404)"
         id="g400"><g
           id="g406"><g
             id="g408"><path
               id="path416"
               style="fill:url(#linearGradient414);stroke:none"
               d="m 44.118,49.765 h 1.764 v 5.294 h -1.764 z" /></g></g></g></g><g
       id="g418"><g
         clip-path="url(#clipPath424)"
         id="g420"><g
           id="g426"><g
             id="g428"><path
               id="path436"
               style="fill:url(#linearGradient434);stroke:none"
               d="m 50.294,59.471 h 5.295 v 1.764 h -5.295 z" /></g></g></g></g><g
       id="g438"><g
         clip-path="url(#clipPath444)"
         id="g440"><g
           id="g446"><g
             id="g448"><path
               id="path456"
               style="fill:url(#linearGradient454);stroke:none"
               d="m 34.411,59.471 h 5.295 v 1.764 h -5.295 z" /></g></g></g></g><g
       id="g458"><g
         clip-path="url(#clipPath464)"
         id="g460"><g
           id="g466"><g
             id="g468"><path
               id="path476"
               style="fill:url(#linearGradient474);stroke:none"
               d="m 200,12 h 2 v 4.001 h -2 z" /></g></g></g></g><g
       id="g478"><g
         clip-path="url(#clipPath484)"
         id="g480"><g
           id="g486"><g
             id="g488"><path
               id="path496"
               style="fill:url(#linearGradient494);stroke:none"
               d="m 208,12 h 2 v 4.001 h -2 z" /></g></g></g></g><g
       id="g498"><g
         clip-path="url(#clipPath504)"
         id="g500"><g
           transform="translate(196,26)"
           id="g506"><path
             id="path508"
             style="fill:#999999;fill-opacity:1;fill-rule:nonzero;stroke:none"
             d="M 0,0 C 0,-2.209 1.791,-4 4,-4 6.209,-4 8,-2.209 8,0 8,2.209 6.209,4 4,4 1.791,4 0,2.209 0,0" /></g><g
           transform="translate(215,98)"
           id="g510"><path
             id="path512"
             style="fill:#999999;fill-opacity:1;fill-rule:nonzero;stroke:none"
             d="m 0,0 c 0,-2.762 -2.238,-5 -5,-5 -2.762,0 -5,2.238 -5,5 0,2.762 2.238,5 5,5 2.762,0 5,-2.238 5,-5" /></g><g
           transform="translate(215,77)"
           id="g514"><path
             id="path516"
             style="fill:#999999;fill-opacity:1;fill-rule:nonzero;stroke:none"
             d="m 0,0 c 0,-2.762 -2.238,-5 -5,-5 -2.762,0 -5,2.238 -5,5 0,2.762 2.238,5 5,5 2.762,0 5,-2.238 5,-5" /></g><g
           transform="translate(220.5,82)"
           id="g518"><path
             id="path520"
             style="fill:#999999;fill-opacity:1;fill-rule:nonzero;stroke:none"
             d="m 0,0 c -2.762,0 -5,2.238 -5,5 0,2.762 2.238,5 5,5 C 2.762,10 5,7.762 5,5 5,2.238 2.762,0 0,0" /></g><g
           transform="translate(199.5,82)"
           id="g522"><path
             id="path524"
             style="fill:#999999;fill-opacity:1;fill-rule:nonzero;stroke:none"
             d="m 0,0 c -2.762,0 -5,2.238 -5,5 0,2.762 2.238,5 5,5 C 2.762,10 5,7.762 5,5 5,2.238 2.762,0 0,0" /></g></g></g></g></svg>