<?xml version="1.0" encoding="UTF-8" standalone="no"?>
<svg
   xmlns:dc="http://purl.org/dc/elements/1.1/"
   xmlns:cc="http://creativecommons.org/ns#"
   xmlns:rdf="http://www.w3.org/1999/02/22-rdf-syntax-ns#"
   xmlns:svg="http://www.w3.org/2000/svg"
   xmlns="http://www.w3.org/2000/svg"
   viewBox="0 0 309.33331 229.33333"
   height="229.33333"
   width="309.33331"
   xml:space="preserve"
   id="svg2"
   version="1.1"><metadata
     id="metadata8"><rdf:RDF><cc:Work
         rdf:about=""><dc:format>image/svg+xml</dc:format><dc:type
           rdf:resource="http://purl.org/dc/dcmitype/StillImage" /></cc:Work></rdf:RDF></metadata><defs
     id="defs6"><clipPath
       id="clipPath18"
       clipPathUnits="userSpaceOnUse"><path
         id="path16"
         d="m 14,212 c -1.105,0 -2,-0.895 -2,-2 v 0 -10 c 1.105,0 2,-0.896 2,-2 v 0 c 0,-1.104 -0.895,-2 -2,-2 v 0 -4 c 1.105,0 2,-0.896 2,-2 v 0 c 0,-1.104 -0.895,-2 -2,-2 v 0 -4 c 1.105,0 2,-0.895 2,-2 v 0 c 0,-1.105 -0.895,-2 -2,-2 v 0 -4 c 1.105,0 2,-0.895 2,-2 v 0 c 0,-1.105 -0.895,-2 -2,-2 v 0 -4 c 1.105,0 2,-0.895 2,-2 v 0 c 0,-1.105 -0.895,-2 -2,-2 v 0 -120 c 0,-2.209 1.791,-4 4,-4 v 0 h 224 c 2.209,0 4,1.791 4,4 v 0 120 c -1.104,0 -2,0.895 -2,2 v 0 c 0,1.105 0.896,2 2,2 v 0 4 c -1.104,0 -2,0.895 -2,2 v 0 c 0,1.105 0.896,2 2,2 v 0 4 c -1.104,0 -2,0.895 -2,2 v 0 c 0,1.105 0.896,2 2,2 v 0 4 c -1.104,0 -2,0.896 -2,2 v 0 c 0,1.104 0.896,2 2,2 v 0 4 c -1.104,0 -2,0.896 -2,2 v 0 c 0,1.104 0.896,2 2,2 v 0 10 c 0,1.105 -0.896,2 -2,2 v 0 z" /></clipPath><linearGradient
       id="linearGradient28"
       spreadMethod="pad"
       gradientTransform="matrix(200.24263,-200.24263,-200.24263,-200.24263,27.878679,226.70711)"
       gradientUnits="userSpaceOnUse"
       y2="0"
       x2="1"
       y1="0"
       x1="0"><stop
         id="stop24"
         offset="0"
         style="stop-opacity:1;stop-color:#e6e7e8" /><stop
         id="stop26"
         offset="1"
         style="stop-opacity:1;stop-color:#d1d3d4" /></linearGradient><clipPath
       id="clipPath38"
       clipPathUnits="userSpaceOnUse"><path
         id="path36"
         d="M 0,256 H 256 V 0 H 0 Z" /></clipPath><clipPath
       id="clipPath54"
       clipPathUnits="userSpaceOnUse"><path
         id="path52"
         d="m 66,104 c -3.3,0 -6,-2.7 -6,-6 v 0 c 0,-3.3 2.7,-6 6,-6 v 0 h 124 c 3.3,0 6,2.7 6,6 v 0 c 0,3.3 -2.7,6 -6,6 v 0 z" /></clipPath><linearGradient
       id="linearGradient64"
       spreadMethod="pad"
       gradientTransform="matrix(0,12,12,0,128,92)"
       gradientUnits="userSpaceOnUse"
       y2="0"
       x2="1"
       y1="0"
       x1="0"><stop
         id="stop60"
         offset="0"
         style="stop-opacity:1;stop-color:#e6e7e8" /><stop
         id="stop62"
         offset="1"
         style="stop-opacity:1;stop-color:#d1d3d4" /></linearGradient><clipPath
       id="clipPath74"
       clipPathUnits="userSpaceOnUse"><path
         id="path72"
         d="M 0,256 H 256 V 0 H 0 Z" /></clipPath><clipPath
       id="clipPath88"
       clipPathUnits="userSpaceOnUse"><path
         id="path86"
         d="m 26,52 c 0,-2.209 1.791,-4 4,-4 v 0 c 2.209,0 4,1.791 4,4 v 0 c 0,2.209 -1.791,4 -4,4 v 0 c -2.209,0 -4,-1.791 -4,-4" /></clipPath><linearGradient
       id="linearGradient98"
       spreadMethod="pad"
       gradientTransform="matrix(5.6568542,-5.6568542,-5.6568542,-5.6568542,27.171574,54.828426)"
       gradientUnits="userSpaceOnUse"
       y2="0"
       x2="1"
       y1="0"
       x1="0"><stop
         id="stop94"
         offset="0"
         style="stop-opacity:1;stop-color:#e6e7e8" /><stop
         id="stop96"
         offset="1"
         style="stop-opacity:1;stop-color:#d1d3d4" /></linearGradient><clipPath
       id="clipPath108"
       clipPathUnits="userSpaceOnUse"><path
         id="path106"
         d="M 0,256 H 256 V 0 H 0 Z" /></clipPath><clipPath
       id="clipPath120"
       clipPathUnits="userSpaceOnUse"><path
         id="path118"
         d="m 222,52 c 0,-2.209 1.791,-4 4,-4 v 0 c 2.209,0 4,1.791 4,4 v 0 c 0,2.209 -1.791,4 -4,4 v 0 c -2.209,0 -4,-1.791 -4,-4" /></clipPath><linearGradient
       id="linearGradient130"
       spreadMethod="pad"
       gradientTransform="matrix(5.6568542,-5.6568542,-5.6568542,-5.6568542,223.17157,54.828426)"
       gradientUnits="userSpaceOnUse"
       y2="0"
       x2="1"
       y1="0"
       x1="0"><stop
         id="stop126"
         offset="0"
         style="stop-opacity:1;stop-color:#e6e7e8" /><stop
         id="stop128"
         offset="1"
         style="stop-opacity:1;stop-color:#d1d3d4" /></linearGradient><clipPath
       id="clipPath140"
       clipPathUnits="userSpaceOnUse"><path
         id="path138"
         d="M 0,256 H 256 V 0 H 0 Z" /></clipPath></defs><g
     transform="matrix(1.3333333,0,0,-1.3333333,-16,282.66666)"
     id="g10"><g
       id="g12"><g
         clip-path="url(#clipPath18)"
         id="g14"><g
           id="g20"><g
             id="g22"><path
               id="path30"
               style="fill:url(#linearGradient28);stroke:none"
               d="m 14,212 c -1.105,0 -2,-0.895 -2,-2 v 0 -10 c 1.105,0 2,-0.896 2,-2 v 0 c 0,-1.104 -0.895,-2 -2,-2 v 0 -4 c 1.105,0 2,-0.896 2,-2 v 0 c 0,-1.104 -0.895,-2 -2,-2 v 0 -4 c 1.105,0 2,-0.895 2,-2 v 0 c 0,-1.105 -0.895,-2 -2,-2 v 0 -4 c 1.105,0 2,-0.895 2,-2 v 0 c 0,-1.105 -0.895,-2 -2,-2 v 0 -4 c 1.105,0 2,-0.895 2,-2 v 0 c 0,-1.105 -0.895,-2 -2,-2 v 0 -120 c 0,-2.209 1.791,-4 4,-4 v 0 h 224 c 2.209,0 4,1.791 4,4 v 0 120 c -1.104,0 -2,0.895 -2,2 v 0 c 0,1.105 0.896,2 2,2 v 0 4 c -1.104,0 -2,0.895 -2,2 v 0 c 0,1.105 0.896,2 2,2 v 0 4 c -1.104,0 -2,0.895 -2,2 v 0 c 0,1.105 0.896,2 2,2 v 0 4 c -1.104,0 -2,0.896 -2,2 v 0 c 0,1.104 0.896,2 2,2 v 0 4 c -1.104,0 -2,0.896 -2,2 v 0 c 0,1.104 0.896,2 2,2 v 0 10 c 0,1.105 -0.896,2 -2,2 v 0 z" /></g></g></g></g><g
       id="g32"><g
         clip-path="url(#clipPath38)"
         id="g34"><path
           id="path40"
           style="fill:#999999;fill-opacity:1;fill-rule:nonzero;stroke:none"
           d="m 56,40 h -2 v 172 h 2 z" /><path
           id="path42"
           style="fill:#999999;fill-opacity:1;fill-rule:nonzero;stroke:none"
           d="m 202,40 h -2 v 172 h 2 z" /><g
           transform="translate(209.7776,202)"
           id="g44"><path
             id="path46"
             style="fill:#ffffff;fill-opacity:1;fill-rule:nonzero;stroke:none"
             d="m 0,0 h -163.555 c -7.099,0 -10.223,-2.926 -10.223,-9.578 v -52.844 c 0,-6.652 3.123,-9.578 10.223,-9.578 H 0 c 7.099,0 10.222,2.926 10.222,9.578 V -9.578 C 10.222,-2.926 7.1,0 0,0" /></g></g></g><g
       id="g48"><g
         clip-path="url(#clipPath54)"
         id="g50"><g
           id="g56"><g
             id="g58"><path
               id="path66"
               style="fill:url(#linearGradient64);stroke:none"
               d="m 66,104 c -3.3,0 -6,-2.7 -6,-6 v 0 c 0,-3.3 2.7,-6 6,-6 v 0 h 124 c 3.3,0 6,2.7 6,6 v 0 c 0,3.3 -2.7,6 -6,6 v 0 z" /></g></g></g></g><g
       id="g68"><g
         clip-path="url(#clipPath74)"
         id="g70"><path
           id="path76"
           style="fill:#999999;fill-opacity:1;fill-rule:nonzero;stroke:none"
           d="m 152,92 h -48 v 12 h 48 z" /><g
           transform="translate(30,58)"
           id="g78"><path
             id="path80"
             style="fill:#999999;fill-opacity:1;fill-rule:nonzero;stroke:none"
             d="m 0,0 c -3.314,0 -6,-2.686 -6,-6 0,-3.314 2.686,-6 6,-6 3.314,0 6,2.686 6,6 0,3.314 -2.686,6 -6,6" /></g></g></g><g
       id="g82"><g
         clip-path="url(#clipPath88)"
         id="g84"><g
           id="g90"><g
             id="g92"><path
               id="path100"
               style="fill:url(#linearGradient98);stroke:none"
               d="m 26,52 c 0,-2.209 1.791,-4 4,-4 v 0 c 2.209,0 4,1.791 4,4 v 0 c 0,2.209 -1.791,4 -4,4 v 0 c -2.209,0 -4,-1.791 -4,-4" /></g></g></g></g><g
       id="g102"><g
         clip-path="url(#clipPath108)"
         id="g104"><g
           transform="translate(226,58)"
           id="g110"><path
             id="path112"
             style="fill:#999999;fill-opacity:1;fill-rule:nonzero;stroke:none"
             d="m 0,0 c -3.314,0 -6,-2.686 -6,-6 0,-3.314 2.686,-6 6,-6 3.314,0 6,2.686 6,6 0,3.314 -2.686,6 -6,6" /></g></g></g><g
       id="g114"><g
         clip-path="url(#clipPath120)"
         id="g116"><g
           id="g122"><g
             id="g124"><path
               id="path132"
               style="fill:url(#linearGradient130);stroke:none"
               d="m 222,52 c 0,-2.209 1.791,-4 4,-4 v 0 c 2.209,0 4,1.791 4,4 v 0 c 0,2.209 -1.791,4 -4,4 v 0 c -2.209,0 -4,-1.791 -4,-4" /></g></g></g></g><g
       id="g134"><g
         clip-path="url(#clipPath140)"
         id="g136"><g
           transform="translate(12,200)"
           id="g142"><path
             id="path144"
             style="fill:#999999;fill-opacity:1;fill-rule:nonzero;stroke:none"
             d="M 0,0 C 1.105,0 2,-0.895 2,-2 2,-3.105 1.105,-4 0,-4 h 10 c 1.105,0 2,0.895 2,2 0,1.105 -0.895,2 -2,2 z" /></g><g
           transform="translate(12,192)"
           id="g146"><path
             id="path148"
             style="fill:#999999;fill-opacity:1;fill-rule:nonzero;stroke:none"
             d="M 0,0 C 1.105,0 2,-0.895 2,-2 2,-3.105 1.105,-4 0,-4 h 10 c 1.105,0 2,0.895 2,2 0,1.105 -0.895,2 -2,2 z" /></g><g
           transform="translate(12,184)"
           id="g150"><path
             id="path152"
             style="fill:#999999;fill-opacity:1;fill-rule:nonzero;stroke:none"
             d="M 0,0 C 1.105,0 2,-0.895 2,-2 2,-3.105 1.105,-4 0,-4 h 10 c 1.105,0 2,0.895 2,2 0,1.105 -0.895,2 -2,2 z" /></g><g
           transform="translate(12,176)"
           id="g154"><path
             id="path156"
             style="fill:#999999;fill-opacity:1;fill-rule:nonzero;stroke:none"
             d="M 0,0 C 1.105,0 2,-0.895 2,-2 2,-3.105 1.105,-4 0,-4 h 10 c 1.105,0 2,0.895 2,2 0,1.105 -0.895,2 -2,2 z" /></g><g
           transform="translate(12,168)"
           id="g158"><path
             id="path160"
             style="fill:#999999;fill-opacity:1;fill-rule:nonzero;stroke:none"
             d="M 0,0 C 1.105,0 2,-0.895 2,-2 2,-3.105 1.105,-4 0,-4 h 10 c 1.105,0 2,0.895 2,2 0,1.105 -0.895,2 -2,2 z" /></g><g
           transform="translate(244,200)"
           id="g162"><path
             id="path164"
             style="fill:#999999;fill-opacity:1;fill-rule:nonzero;stroke:none"
             d="m 0,0 c -1.105,0 -2,-0.895 -2,-2 0,-1.105 0.895,-2 2,-2 h -10 c -1.105,0 -2,0.895 -2,2 0,1.105 0.895,2 2,2 z" /></g><g
           transform="translate(244,192)"
           id="g166"><path
             id="path168"
             style="fill:#999999;fill-opacity:1;fill-rule:nonzero;stroke:none"
             d="m 0,0 c -1.105,0 -2,-0.895 -2,-2 0,-1.105 0.895,-2 2,-2 h -10 c -1.105,0 -2,0.895 -2,2 0,1.105 0.895,2 2,2 z" /></g><g
           transform="translate(244,184)"
           id="g170"><path
             id="path172"
             style="fill:#999999;fill-opacity:1;fill-rule:nonzero;stroke:none"
             d="m 0,0 c -1.105,0 -2,-0.895 -2,-2 0,-1.105 0.895,-2 2,-2 h -10 c -1.105,0 -2,0.895 -2,2 0,1.105 0.895,2 2,2 z" /></g><g
           transform="translate(244,176)"
           id="g174"><path
             id="path176"
             style="fill:#999999;fill-opacity:1;fill-rule:nonzero;stroke:none"
             d="m 0,0 c -1.105,0 -2,-0.895 -2,-2 0,-1.105 0.895,-2 2,-2 h -10 c -1.105,0 -2,0.895 -2,2 0,1.105 0.895,2 2,2 z" /></g><g
           transform="translate(244,168)"
           id="g178"><path
             id="path180"
             style="fill:#999999;fill-opacity:1;fill-rule:nonzero;stroke:none"
             d="m 0,0 c -1.105,0 -2,-0.895 -2,-2 0,-1.105 0.895,-2 2,-2 h -10 c -1.105,0 -2,0.895 -2,2 0,1.105 0.895,2 2,2 z" /></g><path
           id="path182"
           style="fill:#999999;fill-opacity:1;fill-rule:nonzero;stroke:none"
           d="M 64,182 H 44 v 16 h 20 z" /></g></g></g></svg>