<?xml version="1.0" encoding="UTF-8" standalone="no"?>
<svg
   xmlns:dc="http://purl.org/dc/elements/1.1/"
   xmlns:cc="http://creativecommons.org/ns#"
   xmlns:rdf="http://www.w3.org/1999/02/22-rdf-syntax-ns#"
   xmlns:svg="http://www.w3.org/2000/svg"
   xmlns="http://www.w3.org/2000/svg"
   viewBox="0 0 309.33319 309.33532"
   height="309.33533"
   width="309.33319"
   xml:space="preserve"
   id="svg2"
   version="1.1"><metadata
     id="metadata8"><rdf:RDF><cc:Work
         rdf:about=""><dc:format>image/svg+xml</dc:format><dc:type
           rdf:resource="http://purl.org/dc/dcmitype/StillImage" /></cc:Work></rdf:RDF></metadata><defs
     id="defs6"><clipPath
       id="clipPath18"
       clipPathUnits="userSpaceOnUse"><path
         id="path16"
         d="M 56.549,199.436 C -2.848,140.038 -2.947,116.05 56.551,56.55 v 0 C 116.06,-2.958 140.017,-2.873 199.436,56.547 v 0 c 59.426,59.426 59.315,83.579 0.003,142.89 v 0 c -29.663,29.663 -50.545,44.512 -71.434,44.515 v 0 C 107.126,243.954 86.24,229.126 56.549,199.436" /></clipPath><linearGradient
       id="linearGradient28"
       spreadMethod="pad"
       gradientTransform="matrix(142.88766,-142.88766,-142.88766,-142.88766,56.551559,199.43755)"
       gradientUnits="userSpaceOnUse"
       y2="0"
       x2="1"
       y1="0"
       x1="0"><stop
         id="stop24"
         offset="0"
         style="stop-opacity:1;stop-color:#e6e7e8" /><stop
         id="stop26"
         offset="1"
         style="stop-opacity:1;stop-color:#d1d3d4" /></linearGradient><clipPath
       id="clipPath38"
       clipPathUnits="userSpaceOnUse"><path
         id="path36"
         d="M 0,256 H 256 V 0 H 0 Z" /></clipPath><clipPath
       id="clipPath50"
       clipPathUnits="userSpaceOnUse"><path
         id="path48"
         d="m 94.781,147.327 c -3.002,0 -5.435,-2.433 -5.435,-5.436 v 0 -6.308 c 0,-3.002 2.433,-5.436 5.435,-5.436 v 0 h 6.309 c 3.002,0 5.436,2.434 5.436,5.436 v 0 6.308 c 0,3.003 -2.434,5.436 -5.436,5.436 v 0 z" /></clipPath><linearGradient
       id="linearGradient60"
       spreadMethod="pad"
       gradientTransform="matrix(-13.995575,13.995575,13.995575,13.995575,104.93321,131.73958)"
       gradientUnits="userSpaceOnUse"
       y2="0"
       x2="1"
       y1="0"
       x1="0"><stop
         id="stop56"
         offset="0"
         style="stop-opacity:1;stop-color:#e6e7e8" /><stop
         id="stop58"
         offset="1"
         style="stop-opacity:1;stop-color:#d1d3d4" /></linearGradient><clipPath
       id="clipPath70"
       clipPathUnits="userSpaceOnUse"><path
         id="path68"
         d="m 154.91,147.327 c -3.002,0 -5.435,-2.433 -5.435,-5.436 v 0 -6.308 c 0,-3.002 2.433,-5.436 5.435,-5.436 v 0 h 6.309 c 3.001,0 5.435,2.434 5.435,5.436 v 0 6.308 c 0,3.003 -2.434,5.436 -5.435,5.436 v 0 z" /></clipPath><linearGradient
       id="linearGradient80"
       spreadMethod="pad"
       gradientTransform="matrix(-13.995575,13.995575,13.995575,13.995575,165.06236,131.73958)"
       gradientUnits="userSpaceOnUse"
       y2="0"
       x2="1"
       y1="0"
       x1="0"><stop
         id="stop76"
         offset="0"
         style="stop-opacity:1;stop-color:#e6e7e8" /><stop
         id="stop78"
         offset="1"
         style="stop-opacity:1;stop-color:#d1d3d4" /></linearGradient></defs><g
     transform="matrix(1.3333333,0,0,-1.3333333,-15.95249,325.26933)"
     id="g10"><g
       id="g12"><g
         clip-path="url(#clipPath18)"
         id="g14"><g
           id="g20"><g
             id="g22"><path
               id="path30"
               style="fill:url(#linearGradient28);stroke:none"
               d="M 56.549,199.436 C -2.848,140.038 -2.947,116.05 56.551,56.55 v 0 C 116.06,-2.958 140.017,-2.873 199.436,56.547 v 0 c 59.426,59.426 59.315,83.579 0.003,142.89 v 0 c -29.663,29.663 -50.545,44.512 -71.434,44.515 v 0 C 107.126,243.954 86.24,229.126 56.549,199.436" /></g></g></g></g><g
       id="g32"><g
         clip-path="url(#clipPath38)"
         id="g34"><g
           transform="translate(219.6895,126.5928)"
           id="g40"><path
             id="path42"
             style="fill:#999999;fill-opacity:1;fill-rule:nonzero;stroke:none"
             d="m 0,0 -10.086,33.619 h -12.885 l 6.309,-20.401 h -16.107 l -7.381,20.401 h -25.77 l 12.885,17.18 h -9.261 c -2.281,0 -4.43,-1.074 -5.798,-2.899 L -78.805,33.619 h -25.769 L -115.285,47.9 c -1.368,1.825 -3.517,2.899 -5.798,2.899 h -9.261 l 12.885,-17.18 h -25.77 l -7.382,-20.401 h -16.106 l 6.308,20.401 h -12.884 L -183.379,0 c -1.395,-4.65 2.087,-9.33 6.942,-9.33 h 20.324 l -4.296,-17.18 h 25.77 l -17.179,-21.474 h 21.474 l 17.18,21.474 h 42.949 l 17.448,-21.474 h 21.206 L -48.74,-26.51 h 25.769 l -4.295,17.18 H -6.941 C -2.087,-9.33 1.396,-4.65 0,0" /></g></g></g><g
       id="g44"><g
         clip-path="url(#clipPath50)"
         id="g46"><g
           id="g52"><g
             id="g54"><path
               id="path62"
               style="fill:url(#linearGradient60);stroke:none"
               d="m 94.781,147.327 c -3.002,0 -5.435,-2.433 -5.435,-5.436 v 0 -6.308 c 0,-3.002 2.433,-5.436 5.435,-5.436 v 0 h 6.309 c 3.002,0 5.436,2.434 5.436,5.436 v 0 6.308 c 0,3.003 -2.434,5.436 -5.436,5.436 v 0 z" /></g></g></g></g><g
       id="g64"><g
         clip-path="url(#clipPath70)"
         id="g66"><g
           id="g72"><g
             id="g74"><path
               id="path82"
               style="fill:url(#linearGradient80);stroke:none"
               d="m 154.91,147.327 c -3.002,0 -5.435,-2.433 -5.435,-5.436 v 0 -6.308 c 0,-3.002 2.433,-5.436 5.435,-5.436 v 0 h 6.309 c 3.001,0 5.435,2.434 5.435,5.436 v 0 6.308 c 0,3.003 -2.434,5.436 -5.435,5.436 v 0 z" /></g></g></g></g></g></svg>