<?xml version="1.0" encoding="UTF-8" standalone="no"?>
<svg
   xmlns:dc="http://purl.org/dc/elements/1.1/"
   xmlns:cc="http://creativecommons.org/ns#"
   xmlns:rdf="http://www.w3.org/1999/02/22-rdf-syntax-ns#"
   xmlns:svg="http://www.w3.org/2000/svg"
   xmlns="http://www.w3.org/2000/svg"
   viewBox="0 0 309.33386 197.33333"
   height="197.33333"
   width="309.33386"
   xml:space="preserve"
   id="svg2"
   version="1.1"><metadata
     id="metadata8"><rdf:RDF><cc:Work
         rdf:about=""><dc:format>image/svg+xml</dc:format><dc:type
           rdf:resource="http://purl.org/dc/dcmitype/StillImage" /></cc:Work></rdf:RDF></metadata><defs
     id="defs6"><clipPath
       id="clipPath18"
       clipPathUnits="userSpaceOnUse"><path
         id="path16"
         d="M 26.5,202 C 18.525,202 12,195.496 12,187.546 v 0 V 61.227 C 12,61.227 12.906,54 56.557,54 v 0 H 199.443 C 243.094,54 244,61.227 244,61.227 v 0 126.319 c 0,7.95 -6.525,14.454 -14.5,14.454 v 0 z" /></clipPath><linearGradient
       id="linearGradient28"
       spreadMethod="pad"
       gradientTransform="matrix(182.29341,-182.29341,-182.29341,-182.29341,36.853287,218.34825)"
       gradientUnits="userSpaceOnUse"
       y2="0"
       x2="1"
       y1="0"
       x1="0"><stop
         id="stop24"
         offset="0"
         style="stop-opacity:1;stop-color:#e6e7e8" /><stop
         id="stop26"
         offset="1"
         style="stop-opacity:1;stop-color:#d1d3d4" /></linearGradient><clipPath
       id="clipPath38"
       clipPathUnits="userSpaceOnUse"><path
         id="path36"
         d="M 0,256 H 256 V 0 H 0 Z" /></clipPath><clipPath
       id="clipPath50"
       clipPathUnits="userSpaceOnUse"><path
         id="path48"
         d="m 49,188 c -0.552,0 -1,-0.448 -1,-1 v 0 -86 c 0,-0.552 0.448,-1 1,-1 v 0 h 27 v 88 z" /></clipPath><linearGradient
       id="linearGradient60"
       spreadMethod="pad"
       gradientTransform="matrix(-57.707107,57.707107,57.707107,57.707107,91.146446,115.14645)"
       gradientUnits="userSpaceOnUse"
       y2="0"
       x2="1"
       y1="0"
       x1="0"><stop
         id="stop56"
         offset="0"
         style="stop-opacity:1;stop-color:#e6e7e8" /><stop
         id="stop58"
         offset="1"
         style="stop-opacity:1;stop-color:#d1d3d4" /></linearGradient><clipPath
       id="clipPath70"
       clipPathUnits="userSpaceOnUse"><path
         id="path68"
         d="M 0,256 H 256 V 0 H 0 Z" /></clipPath></defs><g
     transform="matrix(1.3333333,0,0,-1.3333333,-15.999733,269.33333)"
     id="g10"><g
       id="g12"><g
         clip-path="url(#clipPath18)"
         id="g14"><g
           id="g20"><g
             id="g22"><path
               id="path30"
               style="fill:url(#linearGradient28);stroke:none"
               d="M 26.5,202 C 18.525,202 12,195.496 12,187.546 v 0 V 61.227 C 12,61.227 12.906,54 56.557,54 v 0 H 199.443 C 243.094,54 244,61.227 244,61.227 v 0 126.319 c 0,7.95 -6.525,14.454 -14.5,14.454 v 0 z" /></g></g></g></g><g
       id="g32"><g
         clip-path="url(#clipPath38)"
         id="g34"><g
           transform="translate(207,100)"
           id="g40"><path
             id="path42"
             style="fill:#ffffff;fill-opacity:1;fill-rule:nonzero;stroke:none"
             d="m 0,0 h -158 c -0.552,0 -1,0.448 -1,1 v 86 c 0,0.552 0.448,1 1,1 H 0 c 0.552,0 1,-0.448 1,-1 V 1 C 1,0.448 0.552,0 0,0" /></g></g></g><g
       id="g44"><g
         clip-path="url(#clipPath50)"
         id="g46"><g
           id="g52"><g
             id="g54"><path
               id="path62"
               style="fill:url(#linearGradient60);stroke:none"
               d="m 49,188 c -0.552,0 -1,-0.448 -1,-1 v 0 -86 c 0,-0.552 0.448,-1 1,-1 v 0 h 27 v 88 z" /></g></g></g></g><g
       id="g64"><g
         clip-path="url(#clipPath70)"
         id="g66"><g
           transform="translate(221.5839,202)"
           id="g72"><path
             id="path74"
             style="fill:#999999;fill-opacity:1;fill-rule:nonzero;stroke:none"
             d="m 0,0 -8.426,-97.173 c 0,0 -3.009,-15.5 -13.842,-17.289 -10.764,-1.777 -39.359,-7.08 -71.015,-7.147 v -0.006 c -0.101,0 -0.2,0.003 -0.301,0.003 -0.101,0 -0.2,-0.003 -0.301,-0.003 v 0.006 c -31.656,0.067 -60.251,5.37 -71.015,7.147 -10.833,1.789 -13.842,17.289 -13.842,17.289 L -187.168,0 h -2.416 l 0.018,-0.204 8.425,-97.173 0.011,-0.124 0.024,-0.122 c 0.135,-0.7 3.467,-17.153 15.81,-19.191 l 2.985,-0.501 c 12.361,-2.089 37.713,-6.374 66.019,-6.664 v -0.015 l 2.407,-0.006 0.301,0.003 h 2.407 l 0.002,0.015 c 28.426,0.263 53.914,4.571 66.318,6.667 l 2.985,0.501 c 12.343,2.038 15.675,18.491 15.811,19.191 l 0.023,0.122 0.011,0.124 L 2.398,-0.204 2.416,0 Z" /></g><g
           transform="translate(220.4992,82.1239)"
           id="g76"><path
             id="path78"
             style="fill:#999999;fill-opacity:1;fill-rule:nonzero;stroke:none"
             d="m 0,0 c 0.053,0.54 10.041,75.395 12.317,90.201 2.341,15.235 10.267,15.675 11.163,15.675 h 0.021 v -1.197 c -0.006,0 -0.007,0 -0.021,0 -0.555,0 -7.816,-0.277 -10.028,-14.667 C 11.152,75.047 1.091,-0.379 1.091,-0.379 c 0,0 -3.162,-9.877 7.474,-12.271 10.553,-2.376 14.869,-4.158 14.936,-4.185 v -1.289 l -0.413,0.171 c -0.043,0.018 -4.386,1.796 -14.766,4.133 -3.625,0.816 -6.183,2.544 -7.602,5.136 C -1.463,-4.696 -0.061,-0.19 0,0" /></g><g
           transform="translate(35.5008,82.1239)"
           id="g80"><path
             id="path82"
             style="fill:#999999;fill-opacity:1;fill-rule:nonzero;stroke:none"
             d="m 0,0 c -0.053,0.54 -10.041,75.395 -12.317,90.201 -2.341,15.235 -10.267,15.675 -11.163,15.675 h -0.021 v -1.197 c 0.006,0 0.007,0 0.021,0 0.555,0 7.816,-0.277 10.028,-14.667 2.3,-14.965 12.361,-90.391 12.361,-90.391 0,0 3.162,-9.877 -7.474,-12.271 -10.553,-2.376 -14.869,-4.158 -14.936,-4.185 v -1.289 l 0.413,0.171 c 0.043,0.018 4.386,1.796 14.766,4.133 3.625,0.816 6.183,2.544 7.602,5.136 C 1.463,-4.696 0.061,-0.19 0,0" /></g><path
           id="path84"
           style="fill:#999999;fill-opacity:1;fill-rule:nonzero;stroke:none"
           d="m 70,60 h -2 v 12 h 2 z" /><path
           id="path86"
           style="fill:#999999;fill-opacity:1;fill-rule:nonzero;stroke:none"
           d="m 94,60 h -2 v 12 h 2 z" /><path
           id="path88"
           style="fill:#999999;fill-opacity:1;fill-rule:nonzero;stroke:none"
           d="m 118,60 h -2 v 12 h 2 z" /><path
           id="path90"
           style="fill:#999999;fill-opacity:1;fill-rule:nonzero;stroke:none"
           d="m 140,60 h -2 v 12 h 2 z" /><path
           id="path92"
           style="fill:#999999;fill-opacity:1;fill-rule:nonzero;stroke:none"
           d="m 160,60 h -2 v 12 h 2 z" /><path
           id="path94"
           style="fill:#999999;fill-opacity:1;fill-rule:nonzero;stroke:none"
           d="m 184,60 h -2 v 12 h 2 z" /></g></g></g></svg>