<?xml version="1.0" encoding="UTF-8" standalone="no"?>
<svg
   xmlns:dc="http://purl.org/dc/elements/1.1/"
   xmlns:cc="http://creativecommons.org/ns#"
   xmlns:rdf="http://www.w3.org/1999/02/22-rdf-syntax-ns#"
   xmlns:svg="http://www.w3.org/2000/svg"
   xmlns="http://www.w3.org/2000/svg"
   viewBox="0 0 309.33331 160"
   height="160"
   width="309.33331"
   xml:space="preserve"
   id="svg2"
   version="1.1"><metadata
     id="metadata8"><rdf:RDF><cc:Work
         rdf:about=""><dc:format>image/svg+xml</dc:format><dc:type
           rdf:resource="http://purl.org/dc/dcmitype/StillImage" /></cc:Work></rdf:RDF></metadata><defs
     id="defs6"><clipPath
       id="clipPath18"
       clipPathUnits="userSpaceOnUse"><path
         id="path16"
         d="m 79.176,185.912 -0.088,1.396 -19.768,-1.268 0.096,-1.436 c -5.928,-0.424 -29.98,-2.552 -31.768,-2.848 v 0 C 20.024,180.508 17.7,181.172 15.908,173 v 0 C 14.116,164.832 12,139.6 12,128 v 0 c 0,-12.54 0.004,-24.348 1.724,-38.612 v 0 C 15.452,75.112 66.132,68 128,68 v 0 c 61.868,0 112.544,7.112 114.276,21.388 v 0 C 243.996,103.652 244,115.46 244,128 v 0 c 0,11.6 -2.124,36.832 -3.912,44.992 v 0 c -1.8,8.172 -4.12,7.508 -11.76,8.756 v 0 C 226.2,182.104 150.912,188 128,188 v 0 c -13.648,0 -31.736,-1.064 -48.824,-2.088" /></clipPath><linearGradient
       id="linearGradient28"
       spreadMethod="pad"
       gradientTransform="matrix(157.84201,-157.84201,-157.84201,-157.84201,49.074287,209.71097)"
       gradientUnits="userSpaceOnUse"
       y2="0"
       x2="1"
       y1="0"
       x1="0"><stop
         id="stop24"
         offset="0"
         style="stop-opacity:1;stop-color:#e6e7e8" /><stop
         id="stop26"
         offset="1"
         style="stop-opacity:1;stop-color:#d1d3d4" /></linearGradient><clipPath
       id="clipPath38"
       clipPathUnits="userSpaceOnUse"><path
         id="path36"
         d="M 0,256 H 256 V 0 H 0 Z" /></clipPath><clipPath
       id="clipPath54"
       clipPathUnits="userSpaceOnUse"><path
         id="path52"
         d="m 92,120 h 72 v 52 H 92 Z" /></clipPath><linearGradient
       id="linearGradient64"
       spreadMethod="pad"
       gradientTransform="matrix(-62,62,62,62,159.00002,115)"
       gradientUnits="userSpaceOnUse"
       y2="0"
       x2="1"
       y1="0"
       x1="0"><stop
         id="stop60"
         offset="0"
         style="stop-opacity:1;stop-color:#e6e7e8" /><stop
         id="stop62"
         offset="1"
         style="stop-opacity:1;stop-color:#d1d3d4" /></linearGradient><clipPath
       id="clipPath74"
       clipPathUnits="userSpaceOnUse"><path
         id="path72"
         d="m 74,151 c 0,-0.552 0.448,-1 1,-1 v 0 c 0.552,0 1,0.448 1,1 v 0 c 0,0.552 -0.448,1 -1,1 v 0 c -0.552,0 -1,-0.448 -1,-1" /></clipPath><linearGradient
       id="linearGradient84"
       spreadMethod="pad"
       gradientTransform="matrix(1.4142135,-1.4142135,-1.4142135,-1.4142135,74.292892,151.70711)"
       gradientUnits="userSpaceOnUse"
       y2="0"
       x2="1"
       y1="0"
       x1="0"><stop
         id="stop80"
         offset="0"
         style="stop-opacity:1;stop-color:#e6e7e8" /><stop
         id="stop82"
         offset="1"
         style="stop-opacity:1;stop-color:#d1d3d4" /></linearGradient><clipPath
       id="clipPath94"
       clipPathUnits="userSpaceOnUse"><path
         id="path92"
         d="m 211.11,132.075 c -12.974,-10.812 -21.303,-21.401 -18.602,-23.651 v 0 c 2.701,-2.251 15.408,4.689 28.382,15.501 v 0 c 12.974,10.811 21.303,21.401 18.602,23.652 v 0 c -0.344,0.286 -0.848,0.423 -1.495,0.423 v 0 c -4.441,-0.001 -15.563,-6.488 -26.887,-15.925" /></clipPath><linearGradient
       id="linearGradient104"
       spreadMethod="pad"
       gradientTransform="matrix(-9.7852964,9.7852964,9.7852964,9.7852964,220.89265,123.10735)"
       gradientUnits="userSpaceOnUse"
       y2="0"
       x2="1"
       y1="0"
       x1="0"><stop
         id="stop100"
         offset="0"
         style="stop-opacity:1;stop-color:#e6e7e8" /><stop
         id="stop102"
         offset="1"
         style="stop-opacity:1;stop-color:#d1d3d4" /></linearGradient><clipPath
       id="clipPath114"
       clipPathUnits="userSpaceOnUse"><path
         id="path112"
         d="M 0,256 H 256 V 0 H 0 Z" /></clipPath><clipPath
       id="clipPath130"
       clipPathUnits="userSpaceOnUse"><path
         id="path128"
         d="m 204,157.97 c 0.771,-0.473 1.64,-0.765 2.579,-0.765 v 0 c 2.994,0 5.421,2.728 5.421,6.094 v 0 c 0,2.868 -1.769,5.258 -4.143,5.905 v 0 z" /></clipPath><linearGradient
       id="linearGradient140"
       spreadMethod="pad"
       gradientTransform="matrix(6.3922148,-6.3922148,-6.3922148,-6.3922148,204.32321,165.67096)"
       gradientUnits="userSpaceOnUse"
       y2="0"
       x2="1"
       y1="0"
       x1="0"><stop
         id="stop136"
         offset="0"
         style="stop-opacity:1;stop-color:#e6e7e8" /><stop
         id="stop138"
         offset="1"
         style="stop-opacity:1;stop-color:#d1d3d4" /></linearGradient><clipPath
       id="clipPath150"
       clipPathUnits="userSpaceOnUse"><path
         id="path148"
         d="M 0,256 H 256 V 0 H 0 Z" /></clipPath><clipPath
       id="clipPath306"
       clipPathUnits="userSpaceOnUse"><path
         id="path304"
         d="m 20,136 c 0,-8.823 7.177,-16 16,-16 v 0 c 8.823,0 16,7.177 16,16 v 0 c 0,8.823 -7.177,16 -16,16 v 0 c -8.823,0 -16,-7.177 -16,-16" /></clipPath><linearGradient
       id="linearGradient316"
       spreadMethod="pad"
       gradientTransform="matrix(-22.61681,22.61681,22.61681,22.61681,47.308403,124.6916)"
       gradientUnits="userSpaceOnUse"
       y2="0"
       x2="1"
       y1="0"
       x1="0"><stop
         id="stop312"
         offset="0"
         style="stop-opacity:1;stop-color:#e6e7e8" /><stop
         id="stop314"
         offset="1"
         style="stop-opacity:1;stop-color:#d1d3d4" /></linearGradient><clipPath
       id="clipPath326"
       clipPathUnits="userSpaceOnUse"><path
         id="path324"
         d="M 0,256 H 256 V 0 H 0 Z" /></clipPath><clipPath
       id="clipPath338"
       clipPathUnits="userSpaceOnUse"><path
         id="path336"
         d="m 34.247,148 c -1.241,0 -2.248,-0.88 -2.248,-1.966 v 0 -4.561 L 35.969,138 40,141.527 v 4.507 C 40,147.12 38.993,148 37.753,148 v 0 z" /></clipPath><linearGradient
       id="linearGradient348"
       spreadMethod="pad"
       gradientTransform="matrix(6.6230631,-6.6230631,-6.6230631,-6.6230631,32.674812,147.44785)"
       gradientUnits="userSpaceOnUse"
       y2="0"
       x2="1"
       y1="0"
       x1="0"><stop
         id="stop344"
         offset="0"
         style="stop-opacity:1;stop-color:#e6e7e8" /><stop
         id="stop346"
         offset="1"
         style="stop-opacity:1;stop-color:#d1d3d4" /></linearGradient><clipPath
       id="clipPath358"
       clipPathUnits="userSpaceOnUse"><path
         id="path356"
         d="M 25.966,140 C 24.88,140 24,138.994 24,137.753 v 0 -3.506 C 24,133.007 24.88,132 25.966,132 v 0 h 4.506 L 34,136.032 30.529,140 Z" /></clipPath><linearGradient
       id="linearGradient368"
       spreadMethod="pad"
       gradientTransform="matrix(6.6227846,-6.6227846,-6.6227846,-6.6227846,24.552435,139.32552)"
       gradientUnits="userSpaceOnUse"
       y2="0"
       x2="1"
       y1="0"
       x1="0"><stop
         id="stop364"
         offset="0"
         style="stop-opacity:1;stop-color:#e6e7e8" /><stop
         id="stop366"
         offset="1"
         style="stop-opacity:1;stop-color:#d1d3d4" /></linearGradient><clipPath
       id="clipPath378"
       clipPathUnits="userSpaceOnUse"><path
         id="path376"
         d="M 41.453,140 38,136.032 41.508,132 h 4.537 c 1.08,0 1.955,1.007 1.955,2.247 v 0 3.506 C 48,138.994 47.125,140 46.045,140 v 0 z" /></clipPath><linearGradient
       id="linearGradient388"
       spreadMethod="pad"
       gradientTransform="matrix(6.6618676,-6.6618676,-6.6618676,-6.6618676,40.797573,139.34499)"
       gradientUnits="userSpaceOnUse"
       y2="0"
       x2="1"
       y1="0"
       x1="0"><stop
         id="stop384"
         offset="0"
         style="stop-opacity:1;stop-color:#e6e7e8" /><stop
         id="stop386"
         offset="1"
         style="stop-opacity:1;stop-color:#d1d3d4" /></linearGradient><clipPath
       id="clipPath398"
       clipPathUnits="userSpaceOnUse"><path
         id="path396"
         d="m 31.999,130.547 v -4.592 c 0,-1.08 1.007,-1.955 2.248,-1.955 v 0 h 3.506 c 1.24,0 2.247,0.875 2.247,1.955 v 0 4.538 L 35.969,134 Z" /></clipPath><linearGradient
       id="linearGradient408"
       spreadMethod="pad"
       gradientTransform="matrix(6.6615877,-6.6615877,-6.6615877,-6.6615877,32.655628,131.20242)"
       gradientUnits="userSpaceOnUse"
       y2="0"
       x2="1"
       y1="0"
       x1="0"><stop
         id="stop404"
         offset="0"
         style="stop-opacity:1;stop-color:#e6e7e8" /><stop
         id="stop406"
         offset="1"
         style="stop-opacity:1;stop-color:#d1d3d4" /></linearGradient><clipPath
       id="clipPath418"
       clipPathUnits="userSpaceOnUse"><path
         id="path416"
         d="m 25.787,144.694 2.935,-2.935 1.065,1.066 -2.935,2.934 z" /></clipPath><linearGradient
       id="linearGradient428"
       spreadMethod="pad"
       gradientTransform="matrix(2.9345107,-2.9345107,-2.9345107,-2.9345107,26.319845,145.2265)"
       gradientUnits="userSpaceOnUse"
       y2="0"
       x2="1"
       y1="0"
       x1="0"><stop
         id="stop424"
         offset="0"
         style="stop-opacity:1;stop-color:#e6e7e8" /><stop
         id="stop426"
         offset="1"
         style="stop-opacity:1;stop-color:#d1d3d4" /></linearGradient><clipPath
       id="clipPath438"
       clipPathUnits="userSpaceOnUse"><path
         id="path436"
         d="m 42.213,129.175 2.935,-2.934 1.065,1.065 -2.935,2.935 z" /></clipPath><linearGradient
       id="linearGradient448"
       spreadMethod="pad"
       gradientTransform="matrix(2.9345107,-2.9345107,-2.9345107,-2.9345107,42.745644,129.70801)"
       gradientUnits="userSpaceOnUse"
       y2="0"
       x2="1"
       y1="0"
       x1="0"><stop
         id="stop444"
         offset="0"
         style="stop-opacity:1;stop-color:#e6e7e8" /><stop
         id="stop446"
         offset="1"
         style="stop-opacity:1;stop-color:#d1d3d4" /></linearGradient><clipPath
       id="clipPath458"
       clipPathUnits="userSpaceOnUse"><path
         id="path456"
         d="m 42.213,142.825 1.065,-1.066 2.935,2.935 -1.065,1.065 z" /></clipPath><linearGradient
       id="linearGradient468"
       spreadMethod="pad"
       gradientTransform="matrix(1.0654893,-1.0654893,-1.0654893,-1.0654893,43.680153,144.29199)"
       gradientUnits="userSpaceOnUse"
       y2="0"
       x2="1"
       y1="0"
       x1="0"><stop
         id="stop464"
         offset="0"
         style="stop-opacity:1;stop-color:#e6e7e8" /><stop
         id="stop466"
         offset="1"
         style="stop-opacity:1;stop-color:#d1d3d4" /></linearGradient><clipPath
       id="clipPath478"
       clipPathUnits="userSpaceOnUse"><path
         id="path476"
         d="m 25.787,127.306 1.065,-1.065 2.935,2.934 -1.065,1.066 z" /></clipPath><linearGradient
       id="linearGradient488"
       spreadMethod="pad"
       gradientTransform="matrix(1.0654893,-1.0654893,-1.0654893,-1.0654893,27.254356,128.7735)"
       gradientUnits="userSpaceOnUse"
       y2="0"
       x2="1"
       y1="0"
       x1="0"><stop
         id="stop484"
         offset="0"
         style="stop-opacity:1;stop-color:#e6e7e8" /><stop
         id="stop486"
         offset="1"
         style="stop-opacity:1;stop-color:#d1d3d4" /></linearGradient><clipPath
       id="clipPath498"
       clipPathUnits="userSpaceOnUse"><path
         id="path496"
         d="m 36.022,104.014 c 1.843,1.008 21.795,1.582 19.844,31.986 v 0 c 0,0 0.838,-20.202 -19.844,-31.986 M 36,104.001 c 0.008,0.005 0.015,0.009 0.022,0.013 v 0 C 36.015,104.01 36.007,104.006 36,104.001" /></clipPath><linearGradient
       id="linearGradient508"
       spreadMethod="pad"
       gradientTransform="matrix(9.327692,-9.327692,-9.327692,-9.327692,42.899876,123.03391)"
       gradientUnits="userSpaceOnUse"
       y2="0"
       x2="1"
       y1="0"
       x1="0"><stop
         id="stop504"
         offset="0"
         style="stop-opacity:1;stop-color:#e6e7e8" /><stop
         id="stop506"
         offset="1"
         style="stop-opacity:1;stop-color:#d1d3d4" /></linearGradient></defs><g
     transform="matrix(1.3333333,0,0,-1.3333333,-16,250.66666)"
     id="g10"><g
       id="g12"><g
         clip-path="url(#clipPath18)"
         id="g14"><g
           id="g20"><g
             id="g22"><path
               id="path30"
               style="fill:url(#linearGradient28);stroke:none"
               d="m 79.176,185.912 -0.088,1.396 -19.768,-1.268 0.096,-1.436 c -5.928,-0.424 -29.98,-2.552 -31.768,-2.848 v 0 C 20.024,180.508 17.7,181.172 15.908,173 v 0 C 14.116,164.832 12,139.6 12,128 v 0 c 0,-12.54 0.004,-24.348 1.724,-38.612 v 0 C 15.452,75.112 66.132,68 128,68 v 0 c 61.868,0 112.544,7.112 114.276,21.388 v 0 C 243.996,103.652 244,115.46 244,128 v 0 c 0,11.6 -2.124,36.832 -3.912,44.992 v 0 c -1.8,8.172 -4.12,7.508 -11.76,8.756 v 0 C 226.2,182.104 150.912,188 128,188 v 0 c -13.648,0 -31.736,-1.064 -48.824,-2.088" /></g></g></g></g><g
       id="g32"><g
         clip-path="url(#clipPath38)"
         id="g34"><g
           transform="translate(199.6235,170.993)"
           id="g40"><path
             id="path42"
             style="fill:#999999;fill-opacity:1;fill-rule:nonzero;stroke:none"
             d="m 0,0 c -1.594,8.24 -27.702,9.007 -27.702,9.007 h -87.843 c 0,0 -26.108,-0.767 -27.702,-9.007 -1.594,-8.24 2.391,-14.373 2.391,-14.373 l 14.35,-40.052 c 0,0 2.989,-12.073 23.118,-12.457 7.803,-0.148 55.726,-0.148 63.529,0 20.129,0.384 23.118,12.457 23.118,12.457 l 14.349,40.052 c 0,0 3.986,6.133 2.392,14.373" /></g><g
           transform="translate(168,176)"
           id="g44"><path
             id="path46"
             style="fill:#d5d5d5;fill-opacity:1;fill-rule:nonzero;stroke:none"
             d="M 0,0 H -5.414 -74.586 -80 V -5.307 -54.693 -60 H -74.586 -5.414 0 v 5.307 49.386 z" /></g></g></g><g
       id="g48"><g
         clip-path="url(#clipPath54)"
         id="g50"><g
           id="g56"><g
             id="g58"><path
               id="path66"
               style="fill:url(#linearGradient64);stroke:none"
               d="m 92,120 h 72 v 52 H 92 Z" /></g></g></g></g><g
       id="g68"><g
         clip-path="url(#clipPath74)"
         id="g70"><g
           id="g76"><g
             id="g78"><path
               id="path86"
               style="fill:url(#linearGradient84);stroke:none"
               d="m 74,151 c 0,-0.552 0.448,-1 1,-1 v 0 c 0.552,0 1,0.448 1,1 v 0 c 0,0.552 -0.448,1 -1,1 v 0 c -0.552,0 -1,-0.448 -1,-1" /></g></g></g></g><g
       id="g88"><g
         clip-path="url(#clipPath94)"
         id="g90"><g
           id="g96"><g
             id="g98"><path
               id="path106"
               style="fill:url(#linearGradient104);stroke:none"
               d="m 211.11,132.075 c -12.974,-10.812 -21.303,-21.401 -18.602,-23.651 v 0 c 2.701,-2.251 15.408,4.689 28.382,15.501 v 0 c 12.974,10.811 21.303,21.401 18.602,23.652 v 0 c -0.344,0.286 -0.848,0.423 -1.495,0.423 v 0 c -4.441,-0.001 -15.563,-6.488 -26.887,-15.925" /></g></g></g></g><g
       id="g108"><g
         clip-path="url(#clipPath114)"
         id="g110"><g
           transform="translate(216,132)"
           id="g116"><path
             id="path118"
             style="fill:#999999;fill-opacity:1;fill-rule:nonzero;stroke:none"
             d="m 0,0 c 0,-4.418 -3.582,-8 -8,-8 -4.418,0 -8,3.582 -8,8 0,4.418 3.582,8 8,8 4.418,0 8,-3.582 8,-8" /></g><g
           transform="translate(232,144)"
           id="g120"><path
             id="path122"
             style="fill:#999999;fill-opacity:1;fill-rule:nonzero;stroke:none"
             d="m 0,0 c 0,-4.418 -3.582,-8 -8,-8 -4.418,0 -8,3.582 -8,8 0,4.418 3.582,8 8,8 4.418,0 8,-3.582 8,-8" /></g></g></g><g
       id="g124"><g
         clip-path="url(#clipPath130)"
         id="g126"><g
           id="g132"><g
             id="g134"><path
               id="path142"
               style="fill:url(#linearGradient140);stroke:none"
               d="m 204,157.97 c 0.771,-0.473 1.64,-0.765 2.579,-0.765 v 0 c 2.994,0 5.421,2.728 5.421,6.094 v 0 c 0,2.868 -1.769,5.258 -4.143,5.905 v 0 z" /></g></g></g></g><g
       id="g144"><g
         clip-path="url(#clipPath150)"
         id="g146"><g
           transform="translate(156.4358,95)"
           id="g152"><path
             id="path154"
             style="fill:#999999;fill-opacity:1;fill-rule:nonzero;stroke:none"
             d="m 0,0 c -0.208,0 -0.345,0.002 -0.404,0.002 h -58.6 c -26.003,0 -30.598,15.212 -30.779,15.859 l -26.653,71.98 2.271,0.159 26.681,-71.406 c 0.196,-0.661 4.413,-14.2 28.48,-14.2 H -0.378 C -0.118,2.363 22.45,2.092 28.109,16.613 34.075,31.915 53.078,87.435 53.269,88 l 2.295,-0.127 C 55.371,87.306 36.351,31.105 30.366,15.753 24.459,0.6 3.305,0 0,0" /></g><g
           transform="translate(42,99)"
           id="g156"><path
             id="path158"
             style="fill:#999999;fill-opacity:1;fill-rule:nonzero;stroke:none"
             d="m 0,0 c 0,-0.552 -0.448,-1 -1,-1 -0.552,0 -1,0.448 -1,1 0,0.552 0.448,1 1,1 0.552,0 1,-0.448 1,-1" /></g><g
           transform="translate(46,99)"
           id="g160"><path
             id="path162"
             style="fill:#999999;fill-opacity:1;fill-rule:nonzero;stroke:none"
             d="m 0,0 c 0,-0.552 -0.448,-1 -1,-1 -0.552,0 -1,0.448 -1,1 0,0.552 0.448,1 1,1 0.552,0 1,-0.448 1,-1" /></g><g
           transform="translate(50,99)"
           id="g164"><path
             id="path166"
             style="fill:#999999;fill-opacity:1;fill-rule:nonzero;stroke:none"
             d="m 0,0 c 0,-0.552 -0.448,-1 -1,-1 -0.552,0 -1,0.448 -1,1 0,0.552 0.448,1 1,1 0.552,0 1,-0.448 1,-1" /></g><g
           transform="translate(54,99)"
           id="g168"><path
             id="path170"
             style="fill:#999999;fill-opacity:1;fill-rule:nonzero;stroke:none"
             d="m 0,0 c 0,-0.552 -0.448,-1 -1,-1 -0.552,0 -1,0.448 -1,1 0,0.552 0.448,1 1,1 0.552,0 1,-0.448 1,-1" /></g><g
           transform="translate(58,99)"
           id="g172"><path
             id="path174"
             style="fill:#999999;fill-opacity:1;fill-rule:nonzero;stroke:none"
             d="m 0,0 c 0,-0.552 -0.448,-1 -1,-1 -0.552,0 -1,0.448 -1,1 0,0.552 0.448,1 1,1 0.552,0 1,-0.448 1,-1" /></g><g
           transform="translate(62,99)"
           id="g176"><path
             id="path178"
             style="fill:#999999;fill-opacity:1;fill-rule:nonzero;stroke:none"
             d="m 0,0 c 0,-0.552 -0.448,-1 -1,-1 -0.552,0 -1,0.448 -1,1 0,0.552 0.448,1 1,1 0.552,0 1,-0.448 1,-1" /></g><g
           transform="translate(42,95)"
           id="g180"><path
             id="path182"
             style="fill:#999999;fill-opacity:1;fill-rule:nonzero;stroke:none"
             d="m 0,0 c 0,-0.552 -0.448,-1 -1,-1 -0.552,0 -1,0.448 -1,1 0,0.552 0.448,1 1,1 0.552,0 1,-0.448 1,-1" /></g><g
           transform="translate(46,95)"
           id="g184"><path
             id="path186"
             style="fill:#999999;fill-opacity:1;fill-rule:nonzero;stroke:none"
             d="m 0,0 c 0,-0.552 -0.448,-1 -1,-1 -0.552,0 -1,0.448 -1,1 0,0.552 0.448,1 1,1 0.552,0 1,-0.448 1,-1" /></g><g
           transform="translate(50,95)"
           id="g188"><path
             id="path190"
             style="fill:#999999;fill-opacity:1;fill-rule:nonzero;stroke:none"
             d="m 0,0 c 0,-0.552 -0.448,-1 -1,-1 -0.552,0 -1,0.448 -1,1 0,0.552 0.448,1 1,1 0.552,0 1,-0.448 1,-1" /></g><g
           transform="translate(54,95)"
           id="g192"><path
             id="path194"
             style="fill:#999999;fill-opacity:1;fill-rule:nonzero;stroke:none"
             d="m 0,0 c 0,-0.552 -0.448,-1 -1,-1 -0.552,0 -1,0.448 -1,1 0,0.552 0.448,1 1,1 0.552,0 1,-0.448 1,-1" /></g><g
           transform="translate(58,95)"
           id="g196"><path
             id="path198"
             style="fill:#999999;fill-opacity:1;fill-rule:nonzero;stroke:none"
             d="m 0,0 c 0,-0.552 -0.448,-1 -1,-1 -0.552,0 -1,0.448 -1,1 0,0.552 0.448,1 1,1 0.552,0 1,-0.448 1,-1" /></g><g
           transform="translate(62,95)"
           id="g200"><path
             id="path202"
             style="fill:#999999;fill-opacity:1;fill-rule:nonzero;stroke:none"
             d="m 0,0 c 0,-0.552 -0.448,-1 -1,-1 -0.552,0 -1,0.448 -1,1 0,0.552 0.448,1 1,1 0.552,0 1,-0.448 1,-1" /></g><g
           transform="translate(42,91)"
           id="g204"><path
             id="path206"
             style="fill:#999999;fill-opacity:1;fill-rule:nonzero;stroke:none"
             d="m 0,0 c 0,-0.552 -0.448,-1 -1,-1 -0.552,0 -1,0.448 -1,1 0,0.552 0.448,1 1,1 0.552,0 1,-0.448 1,-1" /></g><g
           transform="translate(46,91)"
           id="g208"><path
             id="path210"
             style="fill:#999999;fill-opacity:1;fill-rule:nonzero;stroke:none"
             d="m 0,0 c 0,-0.552 -0.448,-1 -1,-1 -0.552,0 -1,0.448 -1,1 0,0.552 0.448,1 1,1 0.552,0 1,-0.448 1,-1" /></g><g
           transform="translate(50,91)"
           id="g212"><path
             id="path214"
             style="fill:#999999;fill-opacity:1;fill-rule:nonzero;stroke:none"
             d="m 0,0 c 0,-0.552 -0.448,-1 -1,-1 -0.552,0 -1,0.448 -1,1 0,0.552 0.448,1 1,1 0.552,0 1,-0.448 1,-1" /></g><g
           transform="translate(54,91)"
           id="g216"><path
             id="path218"
             style="fill:#999999;fill-opacity:1;fill-rule:nonzero;stroke:none"
             d="m 0,0 c 0,-0.552 -0.448,-1 -1,-1 -0.552,0 -1,0.448 -1,1 0,0.552 0.448,1 1,1 0.552,0 1,-0.448 1,-1" /></g><g
           transform="translate(58,91)"
           id="g220"><path
             id="path222"
             style="fill:#999999;fill-opacity:1;fill-rule:nonzero;stroke:none"
             d="m 0,0 c 0,-0.552 -0.448,-1 -1,-1 -0.552,0 -1,0.448 -1,1 0,0.552 0.448,1 1,1 0.552,0 1,-0.448 1,-1" /></g><g
           transform="translate(62,91)"
           id="g224"><path
             id="path226"
             style="fill:#999999;fill-opacity:1;fill-rule:nonzero;stroke:none"
             d="m 0,0 c 0,-0.552 -0.448,-1 -1,-1 -0.552,0 -1,0.448 -1,1 0,0.552 0.448,1 1,1 0.552,0 1,-0.448 1,-1" /></g><g
           transform="translate(42,87)"
           id="g228"><path
             id="path230"
             style="fill:#999999;fill-opacity:1;fill-rule:nonzero;stroke:none"
             d="m 0,0 c 0,-0.552 -0.448,-1 -1,-1 -0.552,0 -1,0.448 -1,1 0,0.552 0.448,1 1,1 0.552,0 1,-0.448 1,-1" /></g><g
           transform="translate(38,95)"
           id="g232"><path
             id="path234"
             style="fill:#999999;fill-opacity:1;fill-rule:nonzero;stroke:none"
             d="m 0,0 c 0,-0.552 -0.448,-1 -1,-1 -0.552,0 -1,0.448 -1,1 0,0.552 0.448,1 1,1 0.552,0 1,-0.448 1,-1" /></g><g
           transform="translate(38,91)"
           id="g236"><path
             id="path238"
             style="fill:#999999;fill-opacity:1;fill-rule:nonzero;stroke:none"
             d="m 0,0 c 0,-0.552 -0.448,-1 -1,-1 -0.552,0 -1,0.448 -1,1 0,0.552 0.448,1 1,1 0.552,0 1,-0.448 1,-1" /></g><g
           transform="translate(38,87)"
           id="g240"><path
             id="path242"
             style="fill:#999999;fill-opacity:1;fill-rule:nonzero;stroke:none"
             d="m 0,0 c 0,-0.552 -0.448,-1 -1,-1 -0.552,0 -1,0.448 -1,1 0,0.552 0.448,1 1,1 0.552,0 1,-0.448 1,-1" /></g><g
           transform="translate(46,87)"
           id="g244"><path
             id="path246"
             style="fill:#999999;fill-opacity:1;fill-rule:nonzero;stroke:none"
             d="m 0,0 c 0,-0.552 -0.448,-1 -1,-1 -0.552,0 -1,0.448 -1,1 0,0.552 0.448,1 1,1 0.552,0 1,-0.448 1,-1" /></g><g
           transform="translate(50,87)"
           id="g248"><path
             id="path250"
             style="fill:#999999;fill-opacity:1;fill-rule:nonzero;stroke:none"
             d="m 0,0 c 0,-0.552 -0.448,-1 -1,-1 -0.552,0 -1,0.448 -1,1 0,0.552 0.448,1 1,1 0.552,0 1,-0.448 1,-1" /></g><g
           transform="translate(54,87)"
           id="g252"><path
             id="path254"
             style="fill:#999999;fill-opacity:1;fill-rule:nonzero;stroke:none"
             d="m 0,0 c 0,-0.552 -0.448,-1 -1,-1 -0.552,0 -1,0.448 -1,1 0,0.552 0.448,1 1,1 0.552,0 1,-0.448 1,-1" /></g><g
           transform="translate(58,87)"
           id="g256"><path
             id="path258"
             style="fill:#999999;fill-opacity:1;fill-rule:nonzero;stroke:none"
             d="m 0,0 c 0,-0.552 -0.448,-1 -1,-1 -0.552,0 -1,0.448 -1,1 0,0.552 0.448,1 1,1 0.552,0 1,-0.448 1,-1" /></g><g
           transform="translate(62,87)"
           id="g260"><path
             id="path262"
             style="fill:#999999;fill-opacity:1;fill-rule:nonzero;stroke:none"
             d="m 0,0 c 0,-0.552 -0.448,-1 -1,-1 -0.552,0 -1,0.448 -1,1 0,0.552 0.448,1 1,1 0.552,0 1,-0.448 1,-1" /></g><g
           transform="translate(66,95)"
           id="g264"><path
             id="path266"
             style="fill:#999999;fill-opacity:1;fill-rule:nonzero;stroke:none"
             d="m 0,0 c 0,-0.552 -0.448,-1 -1,-1 -0.552,0 -1,0.448 -1,1 0,0.552 0.448,1 1,1 0.552,0 1,-0.448 1,-1" /></g><g
           transform="translate(66,91)"
           id="g268"><path
             id="path270"
             style="fill:#999999;fill-opacity:1;fill-rule:nonzero;stroke:none"
             d="m 0,0 c 0,-0.552 -0.448,-1 -1,-1 -0.552,0 -1,0.448 -1,1 0,0.552 0.448,1 1,1 0.552,0 1,-0.448 1,-1" /></g><g
           transform="translate(66,87)"
           id="g272"><path
             id="path274"
             style="fill:#999999;fill-opacity:1;fill-rule:nonzero;stroke:none"
             d="m 0,0 c 0,-0.552 -0.448,-1 -1,-1 -0.552,0 -1,0.448 -1,1 0,0.552 0.448,1 1,1 0.552,0 1,-0.448 1,-1" /></g><g
           transform="translate(42,83)"
           id="g276"><path
             id="path278"
             style="fill:#999999;fill-opacity:1;fill-rule:nonzero;stroke:none"
             d="m 0,0 c 0,-0.552 -0.448,-1 -1,-1 -0.552,0 -1,0.448 -1,1 0,0.552 0.448,1 1,1 0.552,0 1,-0.448 1,-1" /></g><g
           transform="translate(46,83)"
           id="g280"><path
             id="path282"
             style="fill:#999999;fill-opacity:1;fill-rule:nonzero;stroke:none"
             d="m 0,0 c 0,-0.552 -0.448,-1 -1,-1 -0.552,0 -1,0.448 -1,1 0,0.552 0.448,1 1,1 0.552,0 1,-0.448 1,-1" /></g><g
           transform="translate(50,83)"
           id="g284"><path
             id="path286"
             style="fill:#999999;fill-opacity:1;fill-rule:nonzero;stroke:none"
             d="m 0,0 c 0,-0.552 -0.448,-1 -1,-1 -0.552,0 -1,0.448 -1,1 0,0.552 0.448,1 1,1 0.552,0 1,-0.448 1,-1" /></g><g
           transform="translate(54,83)"
           id="g288"><path
             id="path290"
             style="fill:#999999;fill-opacity:1;fill-rule:nonzero;stroke:none"
             d="m 0,0 c 0,-0.552 -0.448,-1 -1,-1 -0.552,0 -1,0.448 -1,1 0,0.552 0.448,1 1,1 0.552,0 1,-0.448 1,-1" /></g><g
           transform="translate(58,83)"
           id="g292"><path
             id="path294"
             style="fill:#999999;fill-opacity:1;fill-rule:nonzero;stroke:none"
             d="m 0,0 c 0,-0.552 -0.448,-1 -1,-1 -0.552,0 -1,0.448 -1,1 0,0.552 0.448,1 1,1 0.552,0 1,-0.448 1,-1" /></g><g
           transform="translate(62,83)"
           id="g296"><path
             id="path298"
             style="fill:#999999;fill-opacity:1;fill-rule:nonzero;stroke:none"
             d="m 0,0 c 0,-0.552 -0.448,-1 -1,-1 -0.552,0 -1,0.448 -1,1 0,0.552 0.448,1 1,1 0.552,0 1,-0.448 1,-1" /></g></g></g><g
       id="g300"><g
         clip-path="url(#clipPath306)"
         id="g302"><g
           id="g308"><g
             id="g310"><path
               id="path318"
               style="fill:url(#linearGradient316);stroke:none"
               d="m 20,136 c 0,-8.823 7.177,-16 16,-16 v 0 c 8.823,0 16,7.177 16,16 v 0 c 0,8.823 -7.177,16 -16,16 v 0 c -8.823,0 -16,-7.177 -16,-16" /></g></g></g></g><g
       id="g320"><g
         clip-path="url(#clipPath326)"
         id="g322"><g
           transform="translate(50,136)"
           id="g328"><path
             id="path330"
             style="fill:#999999;fill-opacity:1;fill-rule:nonzero;stroke:none"
             d="m 0,0 c 0,-7.732 -6.268,-14 -14,-14 -7.732,0 -14,6.268 -14,14 0,7.732 6.268,14 14,14 C -6.268,14 0,7.732 0,0" /></g></g></g><g
       id="g332"><g
         clip-path="url(#clipPath338)"
         id="g334"><g
           id="g340"><g
             id="g342"><path
               id="path350"
               style="fill:url(#linearGradient348);stroke:none"
               d="m 34.247,148 c -1.241,0 -2.248,-0.88 -2.248,-1.966 v 0 -4.561 L 35.969,138 40,141.527 v 4.507 C 40,147.12 38.993,148 37.753,148 v 0 z" /></g></g></g></g><g
       id="g352"><g
         clip-path="url(#clipPath358)"
         id="g354"><g
           id="g360"><g
             id="g362"><path
               id="path370"
               style="fill:url(#linearGradient368);stroke:none"
               d="M 25.966,140 C 24.88,140 24,138.994 24,137.753 v 0 -3.506 C 24,133.007 24.88,132 25.966,132 v 0 h 4.506 L 34,136.032 30.529,140 Z" /></g></g></g></g><g
       id="g372"><g
         clip-path="url(#clipPath378)"
         id="g374"><g
           id="g380"><g
             id="g382"><path
               id="path390"
               style="fill:url(#linearGradient388);stroke:none"
               d="M 41.453,140 38,136.032 41.508,132 h 4.537 c 1.08,0 1.955,1.007 1.955,2.247 v 0 3.506 C 48,138.994 47.125,140 46.045,140 v 0 z" /></g></g></g></g><g
       id="g392"><g
         clip-path="url(#clipPath398)"
         id="g394"><g
           id="g400"><g
             id="g402"><path
               id="path410"
               style="fill:url(#linearGradient408);stroke:none"
               d="m 31.999,130.547 v -4.592 c 0,-1.08 1.007,-1.955 2.248,-1.955 v 0 h 3.506 c 1.24,0 2.247,0.875 2.247,1.955 v 0 4.538 L 35.969,134 Z" /></g></g></g></g><g
       id="g412"><g
         clip-path="url(#clipPath418)"
         id="g414"><g
           id="g420"><g
             id="g422"><path
               id="path430"
               style="fill:url(#linearGradient428);stroke:none"
               d="m 25.787,144.694 2.935,-2.935 1.065,1.066 -2.935,2.934 z" /></g></g></g></g><g
       id="g432"><g
         clip-path="url(#clipPath438)"
         id="g434"><g
           id="g440"><g
             id="g442"><path
               id="path450"
               style="fill:url(#linearGradient448);stroke:none"
               d="m 42.213,129.175 2.935,-2.934 1.065,1.065 -2.935,2.935 z" /></g></g></g></g><g
       id="g452"><g
         clip-path="url(#clipPath458)"
         id="g454"><g
           id="g460"><g
             id="g462"><path
               id="path470"
               style="fill:url(#linearGradient468);stroke:none"
               d="m 42.213,142.825 1.065,-1.066 2.935,2.935 -1.065,1.065 z" /></g></g></g></g><g
       id="g472"><g
         clip-path="url(#clipPath478)"
         id="g474"><g
           id="g480"><g
             id="g482"><path
               id="path490"
               style="fill:url(#linearGradient488);stroke:none"
               d="m 25.787,127.306 1.065,-1.065 2.935,2.934 -1.065,1.066 z" /></g></g></g></g><g
       id="g492"><g
         clip-path="url(#clipPath498)"
         id="g494"><g
           id="g500"><g
             id="g502"><path
               id="path510"
               style="fill:url(#linearGradient508);stroke:none"
               d="m 36.022,104.014 c 1.843,1.008 21.795,1.582 19.844,31.986 v 0 c 0,0 0.838,-20.202 -19.844,-31.986 M 36,104.001 c 0.008,0.005 0.015,0.009 0.022,0.013 v 0 C 36.015,104.01 36.007,104.006 36,104.001" /></g></g></g></g></g></svg>