<?xml version="1.0" encoding="utf-8"?>
<!-- Generator: Adobe Illustrator 24.1.2, SVG Export Plug-In . SVG Version: 6.00 Build 0)  -->
<svg version="1.1"
	 id="svg2" inkscape:export-filename="/home/kivutar/libretro-super/retroarch/media/assets/xmb/monochrome/png/history.png" inkscape:export-xdpi="360" inkscape:export-ydpi="360" inkscape:version="0.48.5 r10040" sodipodi:docname="history.svg" xmlns:cc="http://creativecommons.org/ns#" xmlns:dc="http://purl.org/dc/elements/1.1/" xmlns:inkscape="http://www.inkscape.org/namespaces/inkscape" xmlns:rdf="http://www.w3.org/1999/02/22-rdf-syntax-ns#" xmlns:sodipodi="http://sodipodi.sourceforge.net/DTD/sodipodi-0.dtd" xmlns:svg="http://www.w3.org/2000/svg"
	 xmlns="http://www.w3.org/2000/svg" xmlns:xlink="http://www.w3.org/1999/xlink" x="0px" y="0px" viewBox="0 0 64 64"
	 style="enable-background:new 0 0 64 64;" xml:space="preserve">
<style type="text/css">
	.st0{fill:url(#SVGID_1_);}
	.st1{fill:#D1D3D4;}
	.st2{fill:#999999;}
</style>
<sodipodi:namedview  bordercolor="#666666" borderopacity="1" gridtolerance="10" guidetolerance="10" id="namedview4" inkscape:current-layer="svg2" inkscape:cx="66.482606" inkscape:cy="32.005268" inkscape:pageopacity="0" inkscape:pageshadow="2" inkscape:window-height="836" inkscape:window-maximized="1" inkscape:window-width="1440" inkscape:window-x="0" inkscape:window-y="27" inkscape:zoom="7.375" objecttolerance="10" pagecolor="#808080" showgrid="true">
	<inkscape:grid  empspacing="4" enabled="true" id="grid2985" snapvisiblegridlinesonly="true" type="xygrid" visible="true">
		</inkscape:grid>
</sodipodi:namedview>
<linearGradient id="SVGID_1_" gradientUnits="userSpaceOnUse" x1="15.0474" y1="40.9625" x2="48.997" y2="40.9625">
	<stop  offset="0" style="stop-color:#E6E7E8"/>
	<stop  offset="1" style="stop-color:#D1D3D4"/>
</linearGradient>
<path class="st0" d="M48.3,46.7L33.6,32c-0.9-0.9-2.3-0.9-3.2,0L15.7,46.7c-1.4,1.5-0.4,3.9,1.6,3.9h29.4
	C48.7,50.6,49.8,48.2,48.3,46.7z"/>
<circle class="st1" cx="42.3" cy="34.4" r="1.3"/>
<circle class="st1" cx="36.9" cy="23.2" r="1.3"/>
<circle class="st1" cx="32" cy="14.7" r="1.3"/>
<path class="st1" d="M30.7,19.7c0-0.7,0.6-1.3,1.3-1.3c0.7,0,1.3,0.6,1.3,1.3v2.8c0,0.7-0.6,1.3-1.3,1.3s-1.3-0.6-1.3-1.3V19.7z"/>
<circle class="st1" cx="32" cy="27.4" r="1.3"/>
<circle class="st1" cx="25.4" cy="27.4" r="1.3"/>
<circle class="st1" cx="20.8" cy="36.8" r="1.3"/>
<circle class="st2" cx="20.8" cy="45.2" r="1.3"/>
<circle class="st2" cx="25.8" cy="40.3" r="1.3"/>
<path class="st2" d="M47,49.1c-0.5,0.5-1.3,0.5-1.8,0L32,36l-2.2,2.1c-0.5,0.5-1.3,0.5-1.8,0s-0.5-1.3,0-1.8l3.1-3.1
	c0.5-0.5,1.3-0.5,1.8,0L47,47.3C47.5,47.8,47.5,48.6,47,49.1z"/>
</svg>
