<?xml version="1.0"?>
<svg version="1.1" xmlns="http://www.w3.org/2000/svg" xmlns:xlink="http://www.w3.org/1999/xlink" width="64" height="64">
    <desc iVinci="yes" version="4.6" gridStep="20" showGrid="no" snapToGrid="no" codePlatform="0"/>
    <g id="Layer1" name="Layer 1" opacity="1">
        <g id="Shape1">
            <desc shapeID="1" type="0" basicInfo-basicType="0" basicInfo-roundedRectRadius="12" basicInfo-polygonSides="6" basicInfo-starPoints="5" bounding="rect(-31,-31,62,62)" text="" font-familyName="" font-pixelSize="20" font-bold="0" font-underline="0" font-alignment="1" strokeStyle="0" markerStart="0" markerEnd="0" shadowEnabled="0" shadowOffsetX="0" shadowOffsetY="2" shadowBlur="4" shadowOpacity="160" blurEnabled="0" blurRadius="4" transform="matrix(0.725807,0.00025335,-0.00025335,0.725807,32,32)" pers-center="0,0" pers-size="0,0" pers-start="0,0" pers-end="0,0" locked="0" mesh="" flag=""/>
            <path id="shapePath1" d="M32.0079,9.49999 C19.5815,9.49565 9.50433,19.5658 9.49999,31.9921 C9.49566,44.4185 19.5658,54.4957 31.9921,54.5 C44.4185,54.5043 54.4957,44.4342 54.5,32.0079 C54.5043,19.5815 44.4342,9.50433 32.0079,9.49999 M32.001,29.0968 C33.6044,29.0973 34.9038,30.3976 34.9032,32.001 C34.9027,33.6044 33.6024,34.9038 31.999,34.9032 C30.3956,34.9027 29.0962,33.6024 29.0968,31.999 C29.0973,30.3956 30.3976,29.0962 32.001,29.0968 Z" style="stroke:none;fill-rule:evenodd;fill:#2c3e50;fill-opacity:1;"/>
        </g>
        <g id="Shape2">
            <desc shapeID="2" type="0" basicInfo-basicType="0" basicInfo-roundedRectRadius="12" basicInfo-polygonSides="6" basicInfo-starPoints="5" bounding="rect(-30,-30,60,60)" text="" font-familyName="" font-pixelSize="20" font-bold="0" font-underline="0" font-alignment="1" strokeStyle="0" markerStart="0" markerEnd="0" shadowEnabled="0" shadowOffsetX="0" shadowOffsetY="2" shadowBlur="4" shadowOpacity="160" blurEnabled="0" blurRadius="4" transform="matrix(0.725807,0.00025335,-0.00025335,0.725807,32,32)" pers-center="0,0" pers-size="0,0" pers-start="0,0" pers-end="0,0" locked="0" mesh="" flag=""/>
            <path id="shapePath2" d="M32.0076,10.2258 C19.9821,10.2216 10.23,19.9669 10.2258,31.9924 C10.2216,44.0179 19.9669,53.77 31.9924,53.7742 C44.0179,53.7784 53.77,44.0331 53.7742,32.0076 C53.7784,19.9821 44.0331,10.23 32.0076,10.2258 M32.001,29.0968 C33.6044,29.0973 34.9038,30.3976 34.9032,32.001 C34.9027,33.6044 33.6024,34.9038 31.999,34.9032 C30.3956,34.9027 29.0962,33.6024 29.0968,31.999 C29.0973,30.3956 30.3976,29.0962 32.001,29.0968 Z" style="stroke:none;fill-rule:evenodd;fill:#bdc3c7;fill-opacity:1;"/>
        </g>
        <g id="Shape3">
            <desc shapeID="3" type="0" basicInfo-basicType="0" basicInfo-roundedRectRadius="12" basicInfo-polygonSides="6" basicInfo-starPoints="5" bounding="rect(-12,-12,24,24)" text="" font-familyName="" font-pixelSize="20" font-bold="0" font-underline="0" font-alignment="1" strokeStyle="0" markerStart="0" markerEnd="0" shadowEnabled="0" shadowOffsetX="0" shadowOffsetY="2" shadowBlur="4" shadowOpacity="160" blurEnabled="0" blurRadius="4" transform="matrix(0.725807,0.00025335,-0.00025335,0.725807,32,32)" pers-center="0,0" pers-size="0,0" pers-start="0,0" pers-end="0,0" locked="0" mesh="" flag=""/>
            <path id="shapePath3" d="M32.003,23.2903 C27.1928,23.2886 23.292,27.1867 23.2903,31.997 C23.2886,36.8072 27.1868,40.708 31.997,40.7097 C36.8072,40.7114 40.708,36.8133 40.7097,32.003 C40.7114,27.1928 36.8133,23.292 32.003,23.2903 M32.001,29.0968 C33.6044,29.0973 34.9038,30.3976 34.9032,32.001 C34.9027,33.6044 33.6024,34.9038 31.999,34.9032 C30.3956,34.9027 29.0962,33.6024 29.0968,31.999 C29.0973,30.3956 30.3976,29.0962 32.001,29.0968 Z" style="stroke:#2c3e50;stroke-opacity:1;stroke-width:1;stroke-linejoin:miter;stroke-miterlimit:2;stroke-linecap:butt;fill-rule:evenodd;fill:#34495e;fill-opacity:1;"/>
        </g>
        <g id="Shape4">
            <desc shapeID="4" type="0" basicInfo-basicType="0" basicInfo-roundedRectRadius="12" basicInfo-polygonSides="6" basicInfo-starPoints="5" bounding="rect(-14,-2,28,4)" text="" font-familyName="" font-pixelSize="20" font-bold="0" font-underline="0" font-alignment="1" strokeStyle="0" markerStart="0" markerEnd="0" shadowEnabled="0" shadowOffsetX="0" shadowOffsetY="2" shadowBlur="4" shadowOpacity="160" blurEnabled="0" blurRadius="4" transform="matrix(0.725807,0.00025335,-0.00025335,0.725807,32.0043,19.6613)" pers-center="0,0" pers-size="0,0" pers-start="0,0" pers-end="0,0" locked="0" mesh="" flag=""/>
            <path id="shapePath4" d="M21.843,19.6577 C21.8433,18.856 22.4804,18.2063 23.2661,18.2066 L40.7435,18.2127 C41.5292,18.213 42.1659,18.8631 42.1656,19.6648 C42.1653,20.4666 41.5282,21.1162 40.7425,21.1159 L23.2651,21.1098 C22.4794,21.1096 21.8427,20.4595 21.843,19.6577 Z" style="stroke:none;fill-rule:evenodd;fill:#3498db;fill-opacity:1;"/>
        </g>
    </g>
</svg>
