<svg id="Layer_1" data-name="Layer 1" xmlns="http://www.w3.org/2000/svg" viewBox="0 0 263.78 450.74"><defs><style>.cls-1{fill:#2ecf73;}.cls-2{fill:#f39b11;}.cls-3{fill:#d35400;}.cls-4{fill:#e77f22;}.cls-5{fill:#f1c40f;}.cls-6{fill:#fff;}</style></defs><title>lakka_stacked</title><path id="path4504" d="M143.32,7C34,7,11.63,29.21,11.63,138.68s22,131.68,131.68,131.68S275,248.21,275,138.68,252.64,7,143.32,7" transform="translate(-11.63 -7)"/><path id="path4508" class="cls-1" d="M143.31,192.9a43.81,43.81,0,0,1-9.75,12.5v16.48a9.76,9.76,0,0,0,19.51-.28V205.43a43.71,43.71,0,0,1-9.76-12.53" transform="translate(-11.63 -7)"/><path id="path4512" class="cls-2" d="M177.46,143.56a34.16,34.16,0,0,0-8.74-22.79,43.61,43.61,0,0,1-50.8,0,34.13,34.13,0,1,0,59.54,22.79" transform="translate(-11.63 -7)"/><path id="path4516" class="cls-3" d="M99.42,85a43.83,43.83,0,0,1,.23-4.52,34.1,34.1,0,0,0,0,67.57,43.84,43.84,0,0,1,11-33.83A43.66,43.66,0,0,1,99.42,85" transform="translate(-11.63 -7)"/><path id="path4520" class="cls-4" d="M216.48,114.3A34.17,34.17,0,0,0,187,80.51a44.43,44.43,0,0,1,.23,4.52A43.66,43.66,0,0,1,176,114.26a43.93,43.93,0,0,1,11.24,29.3,44.43,44.43,0,0,1-.23,4.52,34.17,34.17,0,0,0,29.5-33.79" transform="translate(-11.63 -7)"/><path id="path4524" class="cls-1" d="M101.94,158.07a43.71,43.71,0,0,1-23-8.05,34.17,34.17,0,0,0-8.75,22.8V207H104.3a34.15,34.15,0,0,0,31.19-20.27,44,44,0,0,1-33.55-28.62" transform="translate(-11.63 -7)"/><path id="path4528" class="cls-5" d="M143.32,119.18A34.14,34.14,0,1,0,109.18,85a34.18,34.18,0,0,0,34.14,34.14" transform="translate(-11.63 -7)"/><path id="path4532" class="cls-1" d="M184.69,158.07a44,44,0,0,1-33.57,28.63A34.09,34.09,0,0,0,182.34,207h34.14V172.83A34.19,34.19,0,0,0,207.73,150a43.71,43.71,0,0,1-23,8.05" transform="translate(-11.63 -7)"/><g id="_Group_" data-name="&lt;Group&gt;"><path id="_Rectangle_" data-name="&lt;Rectangle&gt;" d="M2.53,420H259.78a4,4,0,0,1,4,4v26.74a0,0,0,0,1,0,0H6.53a4,4,0,0,1-4-4V420A0,0,0,0,1,2.53,420Z"/></g><path id="_Compound_Path_" data-name="&lt;Compound Path&gt;" class="cls-6" d="M120.82,431.38h2.27v21.91h-0.67a1.6,1.6,0,0,1-1.6-1.6v-20.3Z" transform="translate(-11.63 -7)"/><path id="_Compound_Path_2" data-name="&lt;Compound Path&gt;" class="cls-6" d="M125.37,431.38h4.54a2.25,2.25,0,0,1,2.27,2.27v6.93a1.81,1.81,0,0,1-.29,1.15,2.59,2.59,0,0,1-.72.6,1.48,1.48,0,0,1,.72.58,2.68,2.68,0,0,1,.29,1.44V451a2.25,2.25,0,0,1-2.27,2.27h-4.54V431.38Zm2.27,9.82h1.07a1.2,1.2,0,0,0,1.2-1.2v-5.15a1.2,1.2,0,0,0-1.2-1.2h-1.07v7.55Zm0,9.82h1.07a1.2,1.2,0,0,0,1.2-1.2v-5.14a1.2,1.2,0,0,0-1.2-1.2h-1.07V451Z" transform="translate(-11.63 -7)"/><path id="_Path_" data-name="&lt;Path&gt;" class="cls-6" d="M135.21,431.47h18.34a1.68,1.68,0,0,1,1.43,1.15l3,6.32,0.14,0.57-0.14.57-4.44,5.17,4.58,8h-6.88l-6-9.92a0.66,0.66,0,0,1,.57-1h2.27a1.16,1.16,0,0,0,.86-0.29l2.29-2.59-1.15-2.87a0.92,0.92,0,0,0-.86-0.57h-7.16v17.25h-6.88V431.47h0Z" transform="translate(-11.63 -7)"/><path id="_Path_2" data-name="&lt;Path&gt;" class="cls-6" d="M205.25,431.47h18.34a1.68,1.68,0,0,1,1.43,1.15l3,6.32,0.14,0.57-0.14.57-4.44,5.17,4.58,8h-6.88l-6-9.92a0.66,0.66,0,0,1,.57-1h2.27a1.16,1.16,0,0,0,.86-0.29l2.29-2.59-1.15-2.87a0.92,0.92,0,0,0-.86-0.57h-7.16v17.25h-6.88V431.47h0Z" transform="translate(-11.63 -7)"/><path id="_Compound_Path_3" data-name="&lt;Compound Path&gt;" class="cls-6" d="M246.77,431.47H233.4a4.27,4.27,0,0,0-4.26,4.26V449.1a4.27,4.27,0,0,0,4.26,4.26h13.37A4.26,4.26,0,0,0,251,449.1V435.73A4.26,4.26,0,0,0,246.77,431.47Zm-6.68,17.47a6.52,6.52,0,1,1,6.52-6.52A6.52,6.52,0,0,1,240.08,448.94Z" transform="translate(-11.63 -7)"/><g id="_Group_2" data-name="&lt;Group&gt;"><path id="_Path_3" data-name="&lt;Path&gt;" class="cls-6" d="M119.89,453.26a2.35,2.35,0,0,0-.69-1.59,2.05,2.05,0,0,0-1.58-.66h-2.27V431.38h-2.27v21.91h6.81l0,0h0Z" transform="translate(-11.63 -7)"/></g><path id="_Path_4" data-name="&lt;Path&gt;" class="cls-6" d="M166.27,444.69H180v-4.6H166.27l1.43-3.45a0.92,0.92,0,0,1,.86-0.57h13.75v-4.6H164a1.15,1.15,0,0,0-1.15.57l-3.15,5.75a2.56,2.56,0,0,0-.29,1.15v14.37h22.92v-4.6h-16v-4Z" transform="translate(-11.63 -7)"/><polygon id="_Path_5" data-name="&lt;Path&gt;" class="cls-6" points="192.38 424.47 192.56 424.47 192.56 424.47 171.92 424.47 171.92 429.07 178.71 429.07 178.71 446.36 185.59 446.36 185.59 429.07 192.38 429.07 192.38 424.47"/><g id="_Group_3" data-name="&lt;Group&gt;"><path id="_Compound_Path_4" data-name="&lt;Compound Path&gt;" class="cls-1" d="M257.66,433.84h-0.5a1.74,1.74,0,0,1-1.74-1.74v-0.5h6.73v2.24H259.9v19.39h-2.24V433.84Z" transform="translate(-11.63 -7)"/><path id="_Compound_Path_5" data-name="&lt;Compound Path&gt;" class="cls-1" d="M263,431.6h2.27l1,10.64c0,0.34.08,0.69,0.11,1s0.06,0.74.09,1.17,0.06,0.9.09,1.42,0.05,1.13.08,1.82h0.06c0-.69,0-1.29.08-1.82s0.06-1,.09-1.42,0.06-.81.11-1.17,0.07-.7.09-1l0.85-9.05a1.74,1.74,0,0,1,1.74-1.58h0.69l-2.61,21.63h-2.12Z" transform="translate(-11.63 -7)"/></g><path class="cls-4" d="M105.32,419.08H76.08a14.5,14.5,0,0,1-14.62-14.62V350.53A14.51,14.51,0,0,1,76.08,335.9H90.7V320.69H64.62V306.07H90.7a14.5,14.5,0,0,1,14.62,14.62v98.39Zm-23.6-14.62h9V350.53h-9a5.64,5.64,0,0,0-5.64,5.64v42.65A5.64,5.64,0,0,0,81.72,404.46Z" transform="translate(-11.63 -7)"/><path class="cls-5" d="M275.42,419.08H246.17a14.5,14.5,0,0,1-14.62-14.62V350.53a14.51,14.51,0,0,1,14.62-14.62H260.8V320.69H234.72V306.07H260.8a14.5,14.5,0,0,1,14.62,14.62v98.39Zm-23.6-14.62h9V350.53h-9a5.64,5.64,0,0,0-5.64,5.64v42.65A5.64,5.64,0,0,0,251.82,404.46Z" transform="translate(-11.63 -7)"/><path class="cls-2" d="M190.84,362.58l39.4-56.51H215.62l-28.77,41.06V291.45a13.25,13.25,0,0,0-4.34-10.27,15.16,15.16,0,0,0-10.28-4.35V419.08h14.62V378l28.77,41.06h14.62Z" transform="translate(-11.63 -7)"/><path class="cls-2" d="M130.51,362.58l39.4-56.51H155.29l-28.77,41.06V291.45a13.25,13.25,0,0,0-4.34-10.27,15.16,15.16,0,0,0-10.28-4.35V419.08h14.62V378l28.77,41.06h14.62Z" transform="translate(-11.63 -7)"/><path class="cls-3" d="M28.78,404.46v-113a13.25,13.25,0,0,0-4.34-10.27,15.16,15.16,0,0,0-10.28-4.35V419.08H58V404.46H28.78Z" transform="translate(-11.63 -7)"/></svg>