<?xml version="1.0" encoding="UTF-8" standalone="no"?>
<svg
   xmlns:dc="http://purl.org/dc/elements/1.1/"
   xmlns:cc="http://creativecommons.org/ns#"
   xmlns:rdf="http://www.w3.org/1999/02/22-rdf-syntax-ns#"
   xmlns:svg="http://www.w3.org/2000/svg"
   xmlns="http://www.w3.org/2000/svg"
   xmlns:sodipodi="http://sodipodi.sourceforge.net/DTD/sodipodi-0.dtd"
   xmlns:inkscape="http://www.inkscape.org/namespaces/inkscape"
   viewBox="0 0 341.33334 341.33334"
   height="256"
   width="256"
   xml:space="preserve"
   id="svg2"
   version="1.1"
   sodipodi:docname="Hartung - Game Master-content.svg"
   inkscape:version="0.92.2 (5c3e80d, 2017-08-06)"><sodipodi:namedview
     pagecolor="#ffffff"
     bordercolor="#666666"
     borderopacity="1"
     objecttolerance="10"
     gridtolerance="10"
     guidetolerance="10"
     inkscape:pageopacity="0"
     inkscape:pageshadow="2"
     inkscape:window-width="1920"
     inkscape:window-height="1001"
     id="namedview45"
     showgrid="false"
     inkscape:pagecheckerboard="true"
     inkscape:zoom="2.765625"
     inkscape:cx="109.49266"
     inkscape:cy="127.08999"
     inkscape:window-x="-9"
     inkscape:window-y="-9"
     inkscape:window-maximized="1"
     inkscape:current-layer="svg2"
     inkscape:measure-start="0,0"
     inkscape:measure-end="0,0" /><metadata
     id="metadata8"><rdf:RDF><cc:Work
         rdf:about=""><dc:format>image/svg+xml</dc:format><dc:type
           rdf:resource="http://purl.org/dc/dcmitype/StillImage" /><dc:title /></cc:Work></rdf:RDF></metadata><defs
     id="defs6"><clipPath
       id="clipPath18"
       clipPathUnits="userSpaceOnUse"><path
         id="path16"
         d="M 0,256 H 256 V 0 H 0 Z" /></clipPath><clipPath
       id="clipPath26"
       clipPathUnits="userSpaceOnUse"><path
         id="path24"
         d="M 4,248 H 252 V 8 H 4 Z" /></clipPath></defs><g
     id="g36"
     transform="matrix(1.3333333,0,0,-1.3333333,314.66666,288)"><path
       inkscape:connector-curvature="0"
       d="M 0,0 V 8 H -208 V 0 h -6 c -1.104,0 -2,-0.896 -2,-2 v -18 c 0,-2.209 1.791,-4 4,-4 H 0 c 2.209,0 4,1.791 4,4 V -2 C 4,-0.896 3.104,0 2,0 Z"
       style="fill:#0e6654;fill-opacity:1;fill-rule:nonzero;stroke:none"
       id="path38" /></g><path
     inkscape:connector-curvature="0"
     d="M 42.666666,314.66666 H 53.333332 V 277.33333 H 42.666666 Z"
     style="fill:#bc8a31;fill-opacity:1;fill-rule:nonzero;stroke:none;stroke-width:1.33333325"
     id="path40" /><path
     inkscape:connector-curvature="0"
     d="M 58.666665,314.66666 H 69.333332 V 277.33333 H 58.666665 Z"
     style="fill:#bc8a31;fill-opacity:1;fill-rule:nonzero;stroke:none;stroke-width:1.33333325"
     id="path42" /><path
     inkscape:connector-curvature="0"
     d="M 74.666665,314.66666 H 85.333331 V 277.33333 H 74.666665 Z"
     style="fill:#bc8a31;fill-opacity:1;fill-rule:nonzero;stroke:none;stroke-width:1.33333325"
     id="path44" /><path
     inkscape:connector-curvature="0"
     d="M 90.666664,314.66666 H 101.33333 V 277.33333 H 90.666664 Z"
     style="fill:#bc8a31;fill-opacity:1;fill-rule:nonzero;stroke:none;stroke-width:1.33333325"
     id="path46" /><path
     inkscape:connector-curvature="0"
     d="m 106.66666,314.66666 h 10.66667 v -37.33333 h -10.66667 z"
     style="fill:#bc8a31;fill-opacity:1;fill-rule:nonzero;stroke:none;stroke-width:1.33333325"
     id="path48" /><path
     inkscape:connector-curvature="0"
     d="m 122.66666,314.66666 h 10.66667 v -37.33333 h -10.66667 z"
     style="fill:#bc8a31;fill-opacity:1;fill-rule:nonzero;stroke:none;stroke-width:1.33333325"
     id="path50" /><path
     inkscape:connector-curvature="0"
     d="m 138.66666,314.66666 h 10.66667 v -37.33333 h -10.66667 z"
     style="fill:#bc8a31;fill-opacity:1;fill-rule:nonzero;stroke:none;stroke-width:1.33333325"
     id="path52" /><path
     inkscape:connector-curvature="0"
     d="m 154.66666,314.66666 h 10.66667 v -37.33333 h -10.66667 z"
     style="fill:#bc8a31;fill-opacity:1;fill-rule:nonzero;stroke:none;stroke-width:1.33333325"
     id="path54" /><path
     inkscape:connector-curvature="0"
     d="m 170.66666,314.66666 h 10.66667 v -37.33333 h -10.66667 z"
     style="fill:#bc8a31;fill-opacity:1;fill-rule:nonzero;stroke:none;stroke-width:1.33333325"
     id="path56" /><path
     inkscape:connector-curvature="0"
     d="m 186.66666,314.66666 h 10.66667 v -37.33333 h -10.66667 z"
     style="fill:#bc8a31;fill-opacity:1;fill-rule:nonzero;stroke:none;stroke-width:1.33333325"
     id="path58" /><path
     inkscape:connector-curvature="0"
     d="m 202.66666,314.66666 h 10.66667 v -37.33333 h -10.66667 z"
     style="fill:#bc8a31;fill-opacity:1;fill-rule:nonzero;stroke:none;stroke-width:1.33333325"
     id="path60" /><path
     inkscape:connector-curvature="0"
     d="m 218.66666,314.66666 h 10.66667 v -37.33333 h -10.66667 z"
     style="fill:#bc8a31;fill-opacity:1;fill-rule:nonzero;stroke:none;stroke-width:1.33333325"
     id="path62" /><path
     inkscape:connector-curvature="0"
     d="m 234.66666,314.66666 h 10.66667 v -37.33333 h -10.66667 z"
     style="fill:#bc8a31;fill-opacity:1;fill-rule:nonzero;stroke:none;stroke-width:1.33333325"
     id="path64" /><path
     inkscape:connector-curvature="0"
     d="m 250.66666,314.66666 h 10.66667 v -37.33333 h -10.66667 z"
     style="fill:#bc8a31;fill-opacity:1;fill-rule:nonzero;stroke:none;stroke-width:1.33333325"
     id="path66" /><path
     inkscape:connector-curvature="0"
     d="m 266.66666,314.66666 h 10.66667 v -37.33333 h -10.66667 z"
     style="fill:#bc8a31;fill-opacity:1;fill-rule:nonzero;stroke:none;stroke-width:1.33333325"
     id="path68" /><path
     inkscape:connector-curvature="0"
     d="m 282.66666,309.33333 h 10.66667 v -32 h -10.66667 z"
     style="fill:#bc8a31;fill-opacity:1;fill-rule:nonzero;stroke:none;stroke-width:1.33333325"
     id="path70" /><path
     inkscape:connector-curvature="0"
     d="m 298.66666,309.33333 h 10.66667 v -32 h -10.66667 z"
     style="fill:#bc8a31;fill-opacity:1;fill-rule:nonzero;stroke:none;stroke-width:1.33333325"
     id="path72" /><g
     id="g74"
     transform="matrix(1.3333333,0,0,-1.3333333,325.33333,282.66666)"><path
       inkscape:connector-curvature="0"
       d="m 0,0 h -228 c -2.209,0 -4,1.791 -4,4 v 188 c 0,2.209 1.791,4 4,4 H -4 c 2.209,0 4,-1.791 4,-4 z"
       style="fill:#333333;fill-opacity:1;fill-rule:nonzero;stroke:none"
       id="path76" /></g><g
     id="g78"
     transform="matrix(1.3333333,0,0,-1.3333333,314.66666,282.66666)"><path
       inkscape:connector-curvature="0"
       d="m 0,0 h -208 v 160 c 0,11.046 8.954,20 20,20 h 168 c 11.046,0 20,-8.954 20,-20 z"
       style="fill:#262626;fill-opacity:1;fill-rule:nonzero;stroke:none"
       id="path80" /></g><path
     inkscape:connector-curvature="0"
     d="M 255.99999,53.333337 H 90.666664 V 48.000004 H 255.99999 Z"
     style="fill:#333333;fill-opacity:1;fill-rule:nonzero;stroke:none;stroke-width:1.33333325"
     id="path82" /><path
     inkscape:connector-curvature="0"
     d="M 255.99999,64.000004 H 90.666664 V 58.66667 H 255.99999 Z"
     style="fill:#333333;fill-opacity:1;fill-rule:nonzero;stroke:none;stroke-width:1.33333325"
     id="path84" /><g
     id="g86"
     transform="matrix(1.3333333,0,0,-1.3333333,287.99999,256)"><path
       inkscape:connector-curvature="0"
       d="m 0,0 h -168 c -4.418,0 -8,3.582 -8,8 v 120 c 0,4.418 3.582,8 8,8 H 0 c 4.418,0 8,-3.582 8,-8 V 8 C 8,3.582 4.418,0 0,0"
       style="fill:#ffffff;fill-opacity:1;fill-rule:nonzero;stroke:none"
       id="path88" /></g><rect
     ry="0.68180543"
     y="165.33333"
     x="175.99998"
     height="42.271938"
     width="38.181103"
     id="rect861"
     style="opacity:1;vector-effect:none;fill:#b3b3b3;fill-opacity:1;stroke:none;stroke-width:1.06666672;stroke-linecap:butt;stroke-linejoin:miter;stroke-miterlimit:4;stroke-dasharray:none;stroke-dashoffset:0;stroke-opacity:1" /><g
     id="g872"
     transform="translate(-43.670794,-5.1144098)"
     style="fill:#333333"><g
       transform="matrix(1.3333333,0,0,-1.3333333,161.29535,247.12598)"
       id="g102"
       style="fill:#333333"><path
         id="path104"
         style="fill:#333333;fill-opacity:1;fill-rule:nonzero;stroke:none"
         d="M 0,0 14.062,12 V 6.757 L 20.009,12 V 3.946 c 0,0 4.088,7.676 4.336,7.676 0.248,0 9.726,-0.054 9.726,-0.054 L 32.522,8.757 H 26.885 L 26.08,7.243 h 3.159 L 27.381,4.108 H 24.965 L 24.283,2.865 h 11.398 l 0.744,1.189 h -5.699 l 4.398,7.622 h 9.911 L 43.301,8.703 h -5.637 l -0.929,-1.46 h 5.823 L 38.469,0 H 15.735 L 15.858,3.892 11.336,0 11.15,3.946 6.628,0 Z"
         inkscape:connector-curvature="0" /></g><g
       transform="matrix(1.3333333,0,0,-1.3333333,221.34254,231.7025)"
       id="g106"
       style="fill:#333333"><path
         id="path108"
         style="fill:#333333;fill-opacity:1;fill-rule:nonzero;stroke:none"
         d="M 0,0 C 0,0 -0.044,0 -0.121,0.001 L -1.215,-2.205 Z"
         inkscape:connector-curvature="0" /></g><g
       transform="matrix(1.3333333,0,0,-1.3333333,233.64934,235.52238)"
       id="g110"
       style="fill:#333333"><path
         id="path112"
         style="fill:#333333;fill-opacity:1;fill-rule:nonzero;stroke:none"
         d="m 0,0 1.735,2.973 h -9.912 l -4.398,-7.622 h 5.699 l -0.743,-1.189 h -5.493 l -1.684,-2.865 h 9.964 l 4.089,7.244 H -6.566 L -5.637,0 Z"
         inkscape:connector-curvature="0" /></g></g><rect
     ry="0.68180543"
     y="165.33333"
     x="99.637779"
     height="42.271938"
     width="38.181103"
     id="rect857"
     style="opacity:1;vector-effect:none;fill:#000000;fill-opacity:1;stroke:none;stroke-width:1.06666672;stroke-linecap:butt;stroke-linejoin:miter;stroke-miterlimit:4;stroke-dasharray:none;stroke-dashoffset:0;stroke-opacity:1" /><rect
     ry="0.68180543"
     y="165.33333"
     x="252.3622"
     height="42.271938"
     width="38.181103"
     id="rect865"
     style="opacity:1;vector-effect:none;fill:#b3b3b3;fill-opacity:1;stroke:none;stroke-width:1.06666672;stroke-linecap:butt;stroke-linejoin:miter;stroke-miterlimit:4;stroke-dasharray:none;stroke-dashoffset:0;stroke-opacity:1" /><rect
     ry="0.68180543"
     y="123.0614"
     x="61.45668"
     height="42.271938"
     width="38.181103"
     id="rect867"
     style="opacity:1;vector-effect:none;fill:#b3b3b3;fill-opacity:1;stroke:none;stroke-width:1.06666672;stroke-linecap:butt;stroke-linejoin:miter;stroke-miterlimit:4;stroke-dasharray:none;stroke-dashoffset:0;stroke-opacity:1" /><rect
     ry="0.68180543"
     y="80.789459"
     x="99.637779"
     height="42.271938"
     width="38.181103"
     id="rect869"
     style="opacity:1;vector-effect:none;fill:#000000;fill-opacity:1;stroke:none;stroke-width:1.06666672;stroke-linecap:butt;stroke-linejoin:miter;stroke-miterlimit:4;stroke-dasharray:none;stroke-dashoffset:0;stroke-opacity:1" /><rect
     style="opacity:1;vector-effect:none;fill:#b3b3b3;fill-opacity:1;stroke:none;stroke-width:1.06666672;stroke-linecap:butt;stroke-linejoin:miter;stroke-miterlimit:4;stroke-dasharray:none;stroke-dashoffset:0;stroke-opacity:1"
     id="rect875"
     width="38.181103"
     height="42.271938"
     x="252.3622"
     y="80.789459"
     ry="0.68180543" /><rect
     style="opacity:1;vector-effect:none;fill:#ffcc00;fill-opacity:1;stroke:#000000;stroke-width:6.66666698;stroke-linecap:butt;stroke-linejoin:miter;stroke-miterlimit:4;stroke-dasharray:none;stroke-dashoffset:0;stroke-opacity:1"
     id="rect851"
     width="183.13293"
     height="92.72554"
     x="84.433525"
     y="97.152794"
     ry="31.466646" /><g
     aria-label="LIBRETRO"
     style="font-style:normal;font-variant:normal;font-weight:bold;font-stretch:normal;font-size:23.07113647px;line-height:1.25;font-family:sans-serif;-inkscape-font-specification:'sans-serif Bold';letter-spacing:0px;word-spacing:0px;fill:#d40000;fill-opacity:1;stroke:none;stroke-width:0.92033172"
     id="text862"><path
       d="m 123.6844,151.90251 h -12.09883 v -16.77389 h 4.32584 v 13.52951 h 7.77299 z"
       style="font-style:normal;font-variant:normal;font-weight:bold;font-stretch:normal;font-family:sans-serif;-inkscape-font-specification:'sans-serif Bold';fill:#d40000;stroke-width:0.92033172"
       id="path860" /><path
       d="m 135.34389,151.90251 h -9.82326 v -2.97401 h 2.74871 v -10.82586 h -2.74871 v -2.97402 h 9.82326 v 2.97402 h -2.74871 v 10.82586 h 2.74871 z"
       style="font-style:normal;font-variant:normal;font-weight:bold;font-stretch:normal;font-family:sans-serif;-inkscape-font-specification:'sans-serif Bold';fill:#d40000;stroke-width:0.92033172"
       id="path862" /><path
       d="m 153.24429,146.76558 q 0,1.21664 -0.49567,2.17418 -0.4844,0.95755 -1.34056,1.5884 -0.99133,0.7435 -2.18544,1.05893 -1.18285,0.31542 -3.00781,0.31542 h -7.32239 v -16.77389 h 6.51129 q 2.02774,0 2.96275,0.13519 0.94628,0.13518 1.87002,0.59705 0.95755,0.48441 1.41942,1.30677 0.47314,0.81109 0.47314,1.85875 0,1.21665 -0.64212,2.15166 -0.64212,0.92374 -1.8137,1.44194 v 0.0901 q 1.64472,0.32669 2.60227,1.35182 0.9688,1.02513 0.9688,2.70365 z m -5.54248,-6.89431 q 0,-0.41681 -0.21404,-0.83362 -0.20277,-0.41681 -0.73223,-0.61959 -0.47314,-0.18024 -1.18285,-0.19151 -0.69844,-0.0225 -1.97141,-0.0225 h -0.40555 v 3.54854 h 0.67591 q 1.02514,0 1.74611,-0.0338 0.72097,-0.0338 1.13779,-0.22531 0.58579,-0.2591 0.76603,-0.66464 0.18024,-0.41682 0.18024,-0.95755 z m 1.05893,6.82672 q 0,-0.79983 -0.31542,-1.22791 -0.30416,-0.43934 -1.04767,-0.65338 -0.50693,-0.14645 -1.39688,-0.15771 -0.88995,-0.0113 -1.85876,-0.0113 h -0.94628 v 4.17939 h 0.31543 q 1.82496,0 2.61352,-0.0113 0.78857,-0.0113 1.45322,-0.2929 0.67591,-0.28163 0.92374,-0.7435 0.2591,-0.47314 0.2591,-1.08146 z"
       style="font-style:normal;font-variant:normal;font-weight:bold;font-stretch:normal;font-family:sans-serif;-inkscape-font-specification:'sans-serif Bold';fill:#d40000;stroke-width:0.92033172"
       id="path864" /><path
       d="m 165.87259,140.26556 q 0,-0.63085 -0.2591,-1.08146 -0.2591,-0.45061 -0.88996,-0.70971 -0.43934,-0.18024 -1.02513,-0.21404 -0.58579,-0.0451 -1.36309,-0.0451 h -1.56586 v 4.51735 h 1.32929 q 1.0364,0 1.73484,-0.10139 0.69845,-0.10139 1.17159,-0.46187 0.4506,-0.34923 0.65338,-0.76604 0.21404,-0.42808 0.21404,-1.13778 z m 6.74785,11.63695 h -5.28338 l -4.57367,-6.1508 h -1.99394 v 6.1508 h -4.30331 v -16.77389 h 7.25479 q 1.48701,0 2.5572,0.16898 1.0702,0.16898 2.00521,0.73224 0.94628,0.56326 1.49827,1.46448 0.56326,0.88995 0.56326,2.24177 0,1.85876 -0.86742,3.03034 -0.85615,1.17158 -2.45581,1.94888 z"
       style="font-style:normal;font-variant:normal;font-weight:bold;font-stretch:normal;font-family:sans-serif;-inkscape-font-specification:'sans-serif Bold';fill:#d40000;stroke-width:0.92033172"
       id="path866" /><path
       d="m 186.66815,151.90251 h -12.13262 v -16.77389 h 12.13262 v 3.24438 h -7.82932 v 2.89516 h 7.26606 v 3.24438 h -7.26606 v 4.14559 h 7.82932 z"
       style="font-style:normal;font-variant:normal;font-weight:bold;font-stretch:normal;font-family:sans-serif;-inkscape-font-specification:'sans-serif Bold';fill:#d40000;stroke-width:0.92033172"
       id="path868" /><path
       d="m 203.43077,138.373 h -5.23832 v 13.52951 h -4.32584 V 138.373 h -5.23832 v -3.24438 h 14.80248 z"
       style="font-style:normal;font-variant:normal;font-weight:bold;font-stretch:normal;font-family:sans-serif;-inkscape-font-specification:'sans-serif Bold';fill:#d40000;stroke-width:0.92033172"
       id="path870" /><path
       d="m 215.43948,140.26556 q 0,-0.63085 -0.2591,-1.08146 -0.2591,-0.45061 -0.88995,-0.70971 -0.43934,-0.18024 -1.02513,-0.21404 -0.58579,-0.0451 -1.36309,-0.0451 h -1.56587 v 4.51735 h 1.3293 q 1.0364,0 1.73484,-0.10139 0.69844,-0.10139 1.17158,-0.46187 0.45061,-0.34923 0.65338,-0.76604 0.21404,-0.42808 0.21404,-1.13778 z m 6.74786,11.63695 h -5.28338 l -4.57368,-6.1508 h -1.99394 v 6.1508 h -4.3033 v -16.77389 h 7.25479 q 1.487,0 2.5572,0.16898 1.07019,0.16898 2.0052,0.73224 0.94628,0.56326 1.49828,1.46448 0.56326,0.88995 0.56326,2.24177 0,1.85876 -0.86742,3.03034 -0.85616,1.17158 -2.45582,1.94888 z"
       style="font-style:normal;font-variant:normal;font-weight:bold;font-stretch:normal;font-family:sans-serif;-inkscape-font-specification:'sans-serif Bold';fill:#d40000;stroke-width:0.92033172"
       id="path872" /><path
       d="m 240.41443,143.5212 q 0,4.01041 -2.2981,6.37611 -2.2981,2.35442 -6.35357,2.35442 -4.04421,0 -6.34231,-2.35442 -2.29811,-2.3657 -2.29811,-6.37611 0,-4.04421 2.29811,-6.38737 2.2981,-2.35443 6.34231,-2.35443 4.03294,0 6.3423,2.35443 2.30937,2.34316 2.30937,6.38737 z m -5.73399,4.24698 q 0.63085,-0.76603 0.93501,-1.80243 0.30417,-1.04766 0.30417,-2.45581 0,-1.50954 -0.34923,-2.56847 -0.34922,-1.05893 -0.91248,-1.71231 -0.57452,-0.67591 -1.32929,-0.98007 -0.7435,-0.30417 -1.5546,-0.30417 -0.82236,0 -1.5546,0.2929 -0.72097,0.2929 -1.32929,0.96881 -0.56326,0.63085 -0.92375,1.7461 -0.34922,1.10399 -0.34922,2.56847 0,1.49827 0.33796,2.5572 0.34922,1.04767 0.91248,1.71231 0.56326,0.66465 1.31803,0.98008 0.75477,0.31542 1.58839,0.31542 0.83363,0 1.58839,-0.31542 0.75477,-0.3267 1.31803,-1.00261 z"
       style="font-style:normal;font-variant:normal;font-weight:bold;font-stretch:normal;font-family:sans-serif;-inkscape-font-specification:'sans-serif Bold';fill:#d40000;stroke-width:0.92033172"
       id="path874" /></g><rect
     style="opacity:1;vector-effect:none;fill:#b3b3b3;fill-opacity:1;stroke:none;stroke-width:1.06666672;stroke-linecap:butt;stroke-linejoin:miter;stroke-miterlimit:4;stroke-dasharray:none;stroke-dashoffset:0;stroke-opacity:1"
     id="rect855"
     width="38.181103"
     height="42.271938"
     x="61.45668"
     y="207.60527"
     ry="0.68180543" /><rect
     style="opacity:1;vector-effect:none;fill:#000000;fill-opacity:1;stroke:none;stroke-width:1.06666672;stroke-linecap:butt;stroke-linejoin:miter;stroke-miterlimit:4;stroke-dasharray:none;stroke-dashoffset:0;stroke-opacity:1"
     id="rect863"
     width="38.181103"
     height="42.271938"
     x="214.18109"
     y="207.60527"
     ry="0.68180543" /></svg>