<?xml version="1.0" encoding="UTF-8" standalone="no"?>
<svg
   xmlns:dc="http://purl.org/dc/elements/1.1/"
   xmlns:cc="http://creativecommons.org/ns#"
   xmlns:rdf="http://www.w3.org/1999/02/22-rdf-syntax-ns#"
   xmlns:svg="http://www.w3.org/2000/svg"
   xmlns="http://www.w3.org/2000/svg"
   xmlns:sodipodi="http://sodipodi.sourceforge.net/DTD/sodipodi-0.dtd"
   xmlns:inkscape="http://www.inkscape.org/namespaces/inkscape"
   viewBox="0 0 341.33334 341.33334"
   height="256"
   width="256"
   xml:space="preserve"
   id="svg2"
   version="1.1"
   sodipodi:docname="Nintendo - Nintendo 3DS.svg"
   inkscape:version="0.92.2 (5c3e80d, 2017-08-06)"
   inkscape:export-filename="D:\Documents\Github\Retrosystem-retroarch-theme\png\Nintendo - Nintendo 3DS.png"
   inkscape:export-xdpi="72"
   inkscape:export-ydpi="72"><sodipodi:namedview
     pagecolor="#ffffff"
     bordercolor="#666666"
     borderopacity="1"
     objecttolerance="10"
     gridtolerance="10"
     guidetolerance="10"
     inkscape:pageopacity="0"
     inkscape:pageshadow="2"
     inkscape:window-width="1024"
     inkscape:window-height="705"
     id="namedview78"
     showgrid="false"
     inkscape:pagecheckerboard="true"
     inkscape:zoom="0.48889803"
     inkscape:cx="301.33449"
     inkscape:cy="65.704497"
     inkscape:window-x="-8"
     inkscape:window-y="-8"
     inkscape:window-maximized="1"
     inkscape:current-layer="svg2" /><metadata
     id="metadata8"><rdf:RDF><cc:Work
         rdf:about=""><dc:format>image/svg+xml</dc:format><dc:type
           rdf:resource="http://purl.org/dc/dcmitype/StillImage" /><dc:title /></cc:Work></rdf:RDF></metadata><defs
     id="defs6"><clipPath
       id="clipPath18"
       clipPathUnits="userSpaceOnUse"><path
         id="path16"
         d="M 0,256 H 256 V 0 H 0 Z" /></clipPath><clipPath
       id="clipPath26"
       clipPathUnits="userSpaceOnUse"><path
         id="path24"
         d="M 16,252 H 240 V 4 H 16 Z" /></clipPath></defs><g
     id="g36"
     transform="matrix(1.3333333,0,0,-1.3333333,287.99999,16.000005)"
     style="fill:#464646;fill-opacity:1"><path
       inkscape:connector-curvature="0"
       d="m 0,0 h -176 c -8.836,0 -16,-7.164 -16,-16 v -90 c 0,-1.104 0.896,-2 2,-2 h 6 v -4 H 8 v 4 h 6 c 1.104,0 2,0.896 2,2 v 90 C 16,-7.164 8.837,0 0,0"
       style="fill:#464646;fill-opacity:1;fill-rule:nonzero;stroke:none"
       id="path38" /></g><g
     id="g40"
     transform="matrix(1.3333333,0,0,-1.3333333,282.66666,325.33333)"
     style="fill:#464646;fill-opacity:1"><path
       inkscape:connector-curvature="0"
       d="m 0,0 h -168 c -11.046,0 -20,8.954 -20,20 v 96 H 20 V 20 C 20,8.954 11.046,0 0,0"
       style="fill:#464646;fill-opacity:1;fill-rule:nonzero;stroke:none"
       id="path42" /></g><path
     inkscape:connector-curvature="0"
     d="M 141.33333,325.33333 H 95.999998 v -16 h 45.333332 z"
     style="fill:#666666;fill-opacity:1;fill-rule:nonzero;stroke:none;stroke-width:1.33333325"
     id="path44" /><path
     inkscape:connector-curvature="0"
     d="M 197.33333,325.33333 H 144 v -16 h 53.33333 z"
     style="fill:#666666;fill-opacity:1;fill-rule:nonzero;stroke:none;stroke-width:1.33333325"
     id="path46" /><path
     inkscape:connector-curvature="0"
     d="M 245.33333,325.33333 H 200 v -16 h 45.33333 z"
     style="fill:#666666;fill-opacity:1;fill-rule:nonzero;stroke:none;stroke-width:1.33333325"
     id="path48" /><g
     id="g50"
     transform="matrix(1.3333333,0,0,-1.3333333,245.33333,170.66667)"><path
       inkscape:connector-curvature="0"
       d="m 0,0 h -112 c -4.418,0 -8,-3.582 -8,-8 v -100 c 0,-4.418 3.582,-8 8,-8 H 0 c 4.418,0 8,3.582 8,8 V -8 C 8,-3.582 4.418,0 0,0 m 0,-2 c 3.309,0 6,-2.691 6,-6 v -100 c 0,-3.309 -2.691,-6 -6,-6 h -112 c -3.309,0 -6,2.691 -6,6 V -8 c 0,3.309 2.691,6 6,6 H 0"
       style="fill:#333333;fill-opacity:1;fill-rule:nonzero;stroke:none"
       id="path52" /></g><g
     id="g54"
     transform="matrix(1.3333333,0,0,-1.3333333,176,24.000005)"
     style="fill:#000000"><path
       inkscape:connector-curvature="0"
       d="m 0,0 c 0,-2.209 -1.791,-4 -4,-4 -2.209,0 -4,1.791 -4,4 0,2.209 1.791,4 4,4 2.209,0 4,-1.791 4,-4"
       style="fill:#000000;fill-opacity:1;fill-rule:nonzero;stroke:none"
       id="path56" /></g><g
     id="g58"
     transform="matrix(1.3333333,0,0,-1.3333333,168,24.000005)"><path
       inkscape:connector-curvature="0"
       d="M 0,0 C 0,1.104 0.896,2 2,2 3.104,2 4,1.104 4,0 4,-1.104 3.104,-2 2,-2 0.896,-2 0,-1.104 0,0"
       style="fill:#4f4f4f;fill-opacity:1;fill-rule:nonzero;stroke:none"
       id="path60" /></g><g
     id="g62"
     transform="matrix(1.3333333,0,0,-1.3333333,172,24.000005)"><path
       inkscape:connector-curvature="0"
       d="m 0,0 c 0,-0.552 -0.448,-1 -1,-1 -0.552,0 -1,0.448 -1,1 0,0.552 0.448,1 1,1 0.552,0 1,-0.448 1,-1"
       style="fill:#191919;fill-opacity:1;fill-rule:nonzero;stroke:none"
       id="path64" /></g><g
     id="g66"
     transform="matrix(1.3333333,0,0,-1.3333333,93.333331,25.333338)"><path
       inkscape:connector-curvature="0"
       d="m 0,0 c 0,-1.657 -1.343,-3 -3,-3 -1.657,0 -3,1.343 -3,3 0,1.657 1.343,3 3,3 1.657,0 3,-1.343 3,-3"
       style="fill:#404040;fill-opacity:1;fill-rule:nonzero;stroke:none"
       id="path68" /></g><g
     id="g70"
     transform="matrix(1.3333333,0,0,-1.3333333,255.99999,25.333338)"><path
       inkscape:connector-curvature="0"
       d="m 0,0 c 0,-1.657 -1.343,-3 -3,-3 -1.657,0 -3,1.343 -3,3 0,1.657 1.343,3 3,3 1.657,0 3,-1.343 3,-3"
       style="fill:#404040;fill-opacity:1;fill-rule:nonzero;stroke:none"
       id="path72" /></g><g
     id="g74"
     transform="matrix(1.3333333,0,0,-1.3333333,295.60933,95.057336)"
     style="fill:#000000"><path
       inkscape:connector-curvature="0"
       d="m 0,0 c -0.391,0.391 -1.023,0.391 -1.414,0 -0.391,-0.391 -0.391,-1.023 0,-1.414 0.391,-0.391 1.023,-0.391 1.414,0 0.391,0.391 0.391,1.023 0,1.414 m -6,0 c -0.391,0.391 -1.023,0.391 -1.414,0 -0.391,-0.391 -0.391,-1.023 0,-1.414 0.391,-0.391 1.023,-0.391 1.414,0 0.391,0.391 0.391,1.023 0,1.414 M 0,6 C -0.391,6.391 -1.023,6.391 -1.414,6 -1.805,5.609 -1.805,4.977 -1.414,4.586 -1.023,4.195 -0.391,4.195 0,4.586 0.391,4.977 0.391,5.609 0,6 m -6,0 c -0.391,0.391 -1.023,0.391 -1.414,0 -0.391,-0.391 -0.391,-1.023 0,-1.414 0.391,-0.391 1.023,-0.391 1.414,0 0.391,0.391 0.391,1.023 0,1.414 m 3.293,-8.707 c 0,0.552 -0.447,1 -1,1 -0.553,0 -1,-0.448 -1,-1 0,-0.552 0.447,-1 1,-1 0.553,0 1,0.448 1,1 m 0,10 c 0,0.552 -0.447,1 -1,1 -0.553,0 -1,-0.448 -1,-1 0,-0.552 0.447,-1 1,-1 0.553,0 1,0.448 1,1 m 4,-4 c -0.553,0 -1,-0.448 -1,-1 0,-0.552 0.447,-1 1,-1 0.553,0 1,0.448 1,1 0,0.552 -0.447,1 -1,1 m -10,0 c -0.553,0 -1,-0.448 -1,-1 0,-0.552 0.447,-1 1,-1 0.553,0 1,0.448 1,1 0,0.552 -0.447,1 -1,1 m 6,-1 c 0,-0.552 -0.447,-1 -1,-1 -0.553,0 -1,0.448 -1,1 0,0.552 0.447,1 1,1 0.553,0 1,-0.448 1,-1"
       style="fill:#000000;fill-opacity:1;fill-rule:nonzero;stroke:none"
       id="path76" /></g><g
     id="g78"
     transform="matrix(1.3333333,0,0,-1.3333333,55.609332,95.057336)"
     style="fill:#000000"><path
       inkscape:connector-curvature="0"
       d="m 0,0 c -0.391,0.391 -1.023,0.391 -1.414,0 -0.391,-0.391 -0.391,-1.023 0,-1.414 0.391,-0.391 1.023,-0.391 1.414,0 0.391,0.391 0.391,1.023 0,1.414 m -6,0 c -0.391,0.391 -1.023,0.391 -1.414,0 -0.391,-0.391 -0.391,-1.023 0,-1.414 0.391,-0.391 1.023,-0.391 1.414,0 0.391,0.391 0.391,1.023 0,1.414 M 0,6 C -0.391,6.391 -1.023,6.391 -1.414,6 -1.805,5.609 -1.805,4.977 -1.414,4.586 -1.023,4.195 -0.391,4.195 0,4.586 0.391,4.977 0.391,5.609 0,6 m -6,0 c -0.391,0.391 -1.023,0.391 -1.414,0 -0.391,-0.391 -0.391,-1.023 0,-1.414 0.391,-0.391 1.023,-0.391 1.414,0 0.391,0.391 0.391,1.023 0,1.414 m 3.293,-8.707 c 0,0.552 -0.448,1 -1,1 -0.552,0 -1,-0.448 -1,-1 0,-0.552 0.448,-1 1,-1 0.552,0 1,0.448 1,1 m 0,10 c 0,0.552 -0.448,1 -1,1 -0.552,0 -1,-0.448 -1,-1 0,-0.552 0.448,-1 1,-1 0.552,0 1,0.448 1,1 m 4,-4 c -0.552,0 -1,-0.448 -1,-1 0,-0.552 0.448,-1 1,-1 0.552,0 1,0.448 1,1 0,0.552 -0.448,1 -1,1 m -10,0 c -0.552,0 -1,-0.448 -1,-1 0,-0.552 0.448,-1 1,-1 0.552,0 1,0.448 1,1 0,0.552 -0.448,1 -1,1 m 6,-1 c 0,-0.552 -0.448,-1 -1,-1 -0.552,0 -1,0.448 -1,1 0,0.552 0.448,1 1,1 0.552,0 1,-0.448 1,-1"
       style="fill:#000000;fill-opacity:1;fill-rule:nonzero;stroke:none"
       id="path80" /></g><path
     inkscape:connector-curvature="0"
     d="M 266.66666,37.333338 H 74.666665 V 154.66667 H 266.66666 Z"
     style="fill:#191919;fill-opacity:1;fill-rule:nonzero;stroke:none;stroke-width:1.33333325"
     id="path82" /><g
     id="g84"
     transform="matrix(1.3333333,0,0,-1.3333333,266.66666,160)"><path
       inkscape:connector-curvature="0"
       d="m 0,0 h -144 c -2.209,0 -4,1.791 -4,4 v 88 c 0,2.209 1.791,4 4,4 H 0 c 2.209,0 4,-1.791 4,-4 V 4 C 4,1.791 2.209,0 0,0"
       style="fill:#333333;fill-opacity:1;fill-rule:nonzero;stroke:none"
       id="path86" /></g><path
     inkscape:connector-curvature="0"
     d="M 266.66666,154.66667 H 74.666665 V 37.333338 H 266.66666 Z"
     style="fill:#191919;fill-opacity:1;fill-rule:nonzero;stroke:none;stroke-width:1.33333325"
     id="path88" /><path
     inkscape:connector-curvature="0"
     d="M 263.99999,152 H 77.333331 V 40.000004 H 263.99999 Z"
     style="fill:#7f8c8d;fill-opacity:1;fill-rule:nonzero;stroke:none;stroke-width:1.33333325;font-variant-east_asian:normal;opacity:1;vector-effect:none;stroke-linecap:butt;stroke-linejoin:miter;stroke-miterlimit:4;stroke-dasharray:none;stroke-dashoffset:0;stroke-opacity:1"
     id="path90" /><path
     inkscape:connector-curvature="0"
     d="m 303.99999,117.33334 h 5.33334 v -10.66667 h -5.33334 z"
     style="fill:#808080;fill-opacity:1;fill-rule:nonzero;stroke:none;stroke-width:1.33333325"
     id="path92" /><path
     inkscape:connector-curvature="0"
     d="m 303.99999,133.33334 h 5.33334 v -16 h -5.33334 z"
     style="fill:#404040;fill-opacity:1;fill-rule:nonzero;stroke:none;stroke-width:1.33333325"
     id="path94" /><g
     id="g96"
     transform="matrix(1.3333333,0,0,-1.3333333,298.66666,181.33333)"><path
       inkscape:connector-curvature="0"
       d="m 0,0 h -192 c -4.418,0 -8,3.582 -8,8 0,4.418 3.582,8 8,8 H 0 C 4.418,16 8,12.418 8,8 8,3.582 4.418,0 0,0"
       style="fill:#404040;fill-opacity:1;fill-rule:nonzero;stroke:none"
       id="path98" /></g><path
     inkscape:connector-curvature="0"
     d="M 55.999999,181.33333 H 53.333332 V 160 h 2.666667 z"
     style="fill:#333333;fill-opacity:1;fill-rule:nonzero;stroke:none;stroke-width:1.33333325"
     id="path100" /><path
     inkscape:connector-curvature="0"
     d="m 287.99999,181.33333 h -2.66666 V 160 h 2.66666 z"
     style="fill:#333333;fill-opacity:1;fill-rule:nonzero;stroke:none;stroke-width:1.33333325"
     id="path102" /><path
     inkscape:connector-curvature="0"
     d="m 298.66666,173.33333 h 2.66667 V 168 h -2.66667 z"
     style="fill:#4c4c4c;fill-opacity:1;fill-rule:nonzero;stroke:none;stroke-width:1.33333325"
     id="path104" /><path
     inkscape:connector-curvature="0"
     d="M 245.33333,304 H 95.999998 V 186.66667 H 245.33333 Z"
     style="fill:#7f8c8d;fill-opacity:1;fill-rule:nonzero;stroke:none;stroke-width:1.33333325;font-variant-east_asian:normal;opacity:1;vector-effect:none;stroke-linecap:butt;stroke-linejoin:miter;stroke-miterlimit:4;stroke-dasharray:none;stroke-dashoffset:0;stroke-opacity:1"
     id="path106" /><g
     id="g108"
     transform="matrix(1.3333333,0,0,-1.3333333,79.999998,216.15627)"><path
       inkscape:connector-curvature="0"
       d="m 0,0 c 0,-8.285 -6.716,-15 -15,-15 -8.284,0 -15,6.715 -15,15 0,8.284 6.716,15 15,15 C -6.716,15 0,8.284 0,0"
       style="fill:#404040;fill-opacity:1;fill-rule:nonzero;stroke:none"
       id="path110" /></g><g
     id="g112"
     transform="matrix(1.3333333,0,0,-1.3333333,73.333331,216.15627)"><path
       inkscape:connector-curvature="0"
       d="m 0,0 c 0,-5.523 -4.477,-10 -10,-10 -5.523,0 -10,4.477 -10,10 0,5.522 4.477,10 10,10 C -4.477,10 0,5.522 0,0"
       style="fill:#b3b3b3;fill-opacity:1;fill-rule:nonzero;stroke:none"
       id="path114" /></g><g
     id="g116"
     transform="matrix(1.3333333,0,0,-1.3333333,69.999998,216.15627)"><path
       inkscape:connector-curvature="0"
       d="m 0,0 c 0,-4.143 -3.358,-7.5 -7.5,-7.5 -4.142,0 -7.5,3.357 -7.5,7.5 0,4.142 3.358,7.5 7.5,7.5 C -3.358,7.5 0,4.142 0,0"
       style="fill:#999999;fill-opacity:1;fill-rule:nonzero;stroke:none"
       id="path118" /></g><g
     id="g120"
     transform="matrix(1.3333333,0,0,-1.3333333,75.294265,256.15627)"
     style="fill:#666666"><path
       inkscape:connector-curvature="0"
       d="m 0,0 h -7.941 v 7.94 c 0,0.488 -0.395,0.883 -0.883,0.883 h -5.294 C -14.605,8.823 -15,8.428 -15,7.94 V 0 h -7.941 c -0.488,0 -0.883,-0.396 -0.883,-0.883 v -5.294 c 0,-0.487 0.395,-0.883 0.883,-0.883 H -15 V -15 c 0,-0.487 0.395,-0.883 0.882,-0.883 h 5.294 c 0.488,0 0.883,0.396 0.883,0.883 v 7.94 H 0 c 0.487,0 0.882,0.396 0.882,0.883 v 5.294 C 0.882,-0.396 0.487,0 0,0"
       style="fill:#666666;fill-opacity:1;fill-rule:nonzero;stroke:none"
       id="path122" /></g><path
     inkscape:connector-curvature="0"
     d="m 58.823999,246.74533 h 2.353333 v 7.05867 h -2.353333 z"
     style="fill:#999999;fill-opacity:1;fill-rule:nonzero;stroke:none;stroke-width:1.33333325"
     id="path124" /><path
     inkscape:connector-curvature="0"
     d="m 58.823999,267.92133 h 2.353333 V 274.98 h -2.353333 z"
     style="fill:#999999;fill-opacity:1;fill-rule:nonzero;stroke:none;stroke-width:1.33333325"
     id="path126" /><path
     inkscape:connector-curvature="0"
     d="m 74.117331,262.03867 h -7.058666 v -2.35334 h 7.058666 z"
     style="fill:#999999;fill-opacity:1;fill-rule:nonzero;stroke:none;stroke-width:1.33333325"
     id="path128" /><path
     inkscape:connector-curvature="0"
     d="m 52.941332,262.03867 h -7.058666 v -2.35334 h 7.058666 z"
     style="fill:#999999;fill-opacity:1;fill-rule:nonzero;stroke:none;stroke-width:1.33333325"
     id="path130" /><path
     inkscape:connector-curvature="0"
     d="m 269.33333,325.33333 h -2.66667 V 320 h 2.66667 z"
     style="fill:#3096cf;fill-opacity:1;fill-rule:nonzero;stroke:none;stroke-width:1.33333325"
     id="path132" /><path
     inkscape:connector-curvature="0"
     d="m 279.99999,325.33333 h -2.66666 V 320 h 2.66666 z"
     style="fill:#404040;fill-opacity:1;fill-rule:nonzero;stroke:none;stroke-width:1.33333325"
     id="path134" /><g
     id="g136"
     transform="matrix(1.3333333,0,0,-1.3333333,261.33333,306.66666)"
     style="fill:#666666"><path
       inkscape:connector-curvature="0"
       d="M 0,0 C 0,-2.209 1.791,-4 4,-4 6.209,-4 8,-2.209 8,0 8,2.209 6.209,4 4,4 1.791,4 0,2.209 0,0"
       style="fill:#666666;fill-opacity:1;fill-rule:nonzero;stroke:none"
       id="path138" /></g><g
     id="g140"
     transform="matrix(1.3333333,0,0,-1.3333333,286.66666,210.66667)"
     style="fill:#666666"><path
       inkscape:connector-curvature="0"
       d="m 0,0 c 0,-2.762 -2.238,-5 -5,-5 -2.762,0 -5,2.238 -5,5 0,2.762 2.238,5 5,5 2.762,0 5,-2.238 5,-5"
       style="fill:#666666;fill-opacity:1;fill-rule:nonzero;stroke:none"
       id="path142" /></g><g
     id="g144"
     transform="matrix(1.3333333,0,0,-1.3333333,286.66666,238.66667)"
     style="fill:#666666"><path
       inkscape:connector-curvature="0"
       d="m 0,0 c 0,-2.762 -2.238,-5 -5,-5 -2.762,0 -5,2.238 -5,5 0,2.762 2.238,5 5,5 2.762,0 5,-2.238 5,-5"
       style="fill:#666666;fill-opacity:1;fill-rule:nonzero;stroke:none"
       id="path146" /></g><g
     id="g148"
     transform="matrix(1.3333333,0,0,-1.3333333,293.99999,232)"
     style="fill:#666666"><path
       inkscape:connector-curvature="0"
       d="m 0,0 c -2.762,0 -5,2.238 -5,5 0,2.762 2.238,5 5,5 C 2.762,10 5,7.762 5,5 5,2.238 2.762,0 0,0"
       style="fill:#666666;fill-opacity:1;fill-rule:nonzero;stroke:none"
       id="path150" /></g><g
     id="g152"
     transform="matrix(1.3333333,0,0,-1.3333333,265.99999,232)"
     style="fill:#666666"><path
       inkscape:connector-curvature="0"
       d="m 0,0 c -2.762,0 -5,2.238 -5,5 0,2.762 2.238,5 5,5 C 2.762,10 5,7.762 5,5 5,2.238 2.762,0 0,0"
       style="fill:#666666;fill-opacity:1;fill-rule:nonzero;stroke:none"
       id="path154" /></g></svg>
