<?xml version="1.0" encoding="UTF-8" standalone="no"?>
<svg
   xmlns:dc="http://purl.org/dc/elements/1.1/"
   xmlns:cc="http://creativecommons.org/ns#"
   xmlns:rdf="http://www.w3.org/1999/02/22-rdf-syntax-ns#"
   xmlns:svg="http://www.w3.org/2000/svg"
   xmlns="http://www.w3.org/2000/svg"
   xmlns:sodipodi="http://sodipodi.sourceforge.net/DTD/sodipodi-0.dtd"
   xmlns:inkscape="http://www.inkscape.org/namespaces/inkscape"
   viewBox="0 0 341.33334 341.33334"
   height="256"
   width="256"
   xml:space="preserve"
   id="svg2"
   version="1.1"
   sodipodi:docname="Nintendo - Wii U Black.svg"
   inkscape:export-filename="D:\Documents\Github\Retrosystem-retroarch-theme\png\Nintendo - Wii U Black.png"
   inkscape:export-xdpi="72"
   inkscape:export-ydpi="72"
   inkscape:version="0.92.2 (5c3e80d, 2017-08-06)"><sodipodi:namedview
     pagecolor="#ffffff"
     bordercolor="#666666"
     borderopacity="1"
     objecttolerance="10"
     gridtolerance="10"
     guidetolerance="10"
     inkscape:pageopacity="0"
     inkscape:pageshadow="2"
     inkscape:window-width="1024"
     inkscape:window-height="705"
     id="namedview88"
     showgrid="false"
     inkscape:zoom="0.69140623"
     inkscape:cx="173.00038"
     inkscape:cy="200.13727"
     inkscape:window-x="-8"
     inkscape:window-y="-8"
     inkscape:window-maximized="1"
     inkscape:current-layer="svg2"
     inkscape:pagecheckerboard="true" /><metadata
     id="metadata8"><rdf:RDF><cc:Work
         rdf:about=""><dc:format>image/svg+xml</dc:format><dc:type
           rdf:resource="http://purl.org/dc/dcmitype/StillImage" /><dc:title /></cc:Work></rdf:RDF></metadata><defs
     id="defs6"><clipPath
       id="clipPath18"
       clipPathUnits="userSpaceOnUse"><path
         id="path16"
         d="M 0,256 H 256 V 0 H 0 Z" /></clipPath><clipPath
       id="clipPath26"
       clipPathUnits="userSpaceOnUse"><path
         id="path24"
         d="M 4,196.411 H 252 V 59.5895 H 4 Z" /></clipPath></defs><g
     id="g36"
     transform="matrix(1.3333333,0,0,-1.3333333,287.99999,94.921203)"><path
       inkscape:connector-curvature="0"
       d="m 0,0 v -109.618 c 0,-2.674 2.578,-4.611 5.139,-3.843 C 18.322,-109.505 28,-97.236 28,-82.809 v 56 C 28,-12.382 18.322,-0.113 5.139,3.843 2.578,4.611 0,2.673 0,0"
       style="fill:#191919;fill-opacity:1;fill-rule:nonzero;stroke:none"
       id="path38" /></g><g
     id="g40"
     transform="matrix(1.3333333,0,0,-1.3333333,53.333332,94.921203)"><path
       inkscape:connector-curvature="0"
       d="M 0,0 C 0,2.673 -2.578,4.611 -5.138,3.843 -18.322,-0.113 -28,-12.382 -28,-26.809 v -56 c 0,-14.427 9.678,-26.696 22.862,-30.652 2.56,-0.768 5.138,1.169 5.138,3.843 z"
       style="fill:#191919;fill-opacity:1;fill-rule:nonzero;stroke:none"
       id="path42" /></g><g
     id="g44"
     transform="matrix(1.3333333,0,0,-1.3333333,282.66666,250.66667)"><path
       inkscape:connector-curvature="0"
       d="m 0,0 h -168 c -17.6,0 -32,14.4 -32,32 v 56 c 0,17.6 14.4,32 32,32 H 0 c 17.6,0 32,-14.4 32,-32 V 32 C 32,14.4 17.6,0 0,0"
       style="fill:#262626;fill-opacity:1;fill-rule:nonzero;stroke:none"
       id="path46" /></g><path
     inkscape:connector-curvature="0"
     d="M 258.66666,221.33333 H 82.666665 V 120 H 258.66666 Z"
     style="fill:#191919;fill-opacity:1;fill-rule:nonzero;stroke:none;stroke-width:1.33333325"
     id="path48" /><path
     inkscape:connector-curvature="0"
     d="M 255.99999,218.66667 H 85.333331 v -96 H 255.99999 Z"
     style="fill:#7f8c8d;fill-opacity:1;fill-rule:nonzero;stroke:none;stroke-width:1.33333325;font-variant-east_asian:normal;opacity:1;vector-effect:none;stroke-linecap:butt;stroke-linejoin:miter;stroke-miterlimit:4;stroke-dasharray:none;stroke-dashoffset:0;stroke-opacity:1"
     id="path50" /><g
     id="g52"
     transform="matrix(1.3333333,0,0,-1.3333333,207.99999,109.33334)"><path
       inkscape:connector-curvature="0"
       d="m 0,0 h -56 c -2.2,0 -4,1.8 -4,4 0,2.2 1.8,4 4,4 H 0 C 2.2,8 4,6.2 4,4 4,1.8 2.2,0 0,0"
       style="fill:#191919;fill-opacity:1;fill-rule:nonzero;stroke:none"
       id="path54" /></g><g
     id="g56"
     transform="matrix(1.3333333,0,0,-1.3333333,277.33333,165.33333)"
     style="fill:#4d4d4d"><path
       inkscape:connector-curvature="0"
       d="m 0,0 c 0,-2.209 -1.791,-4 -4,-4 -2.209,0 -4,1.791 -4,4 0,2.209 1.791,4 4,4 2.209,0 4,-1.791 4,-4"
       style="fill:#4d4d4d;fill-opacity:1;fill-rule:nonzero;stroke:none"
       id="path58" /></g><g
     id="g60"
     transform="matrix(1.3333333,0,0,-1.3333333,290.66666,154.66667)"
     style="fill:#4d4d4d"><path
       inkscape:connector-curvature="0"
       d="m 0,0 c 0,-2.209 -1.791,-4 -4,-4 -2.209,0 -4,1.791 -4,4 0,2.209 1.791,4 4,4 2.209,0 4,-1.791 4,-4"
       style="fill:#4d4d4d;fill-opacity:1;fill-rule:nonzero;stroke:none"
       id="path62" /></g><g
     id="g64"
     transform="matrix(1.3333333,0,0,-1.3333333,290.66666,176)"
     style="fill:#4d4d4d"><path
       inkscape:connector-curvature="0"
       d="m 0,0 c 0,-2.209 -1.791,-4 -4,-4 -2.209,0 -4,1.791 -4,4 0,2.209 1.791,4 4,4 2.209,0 4,-1.791 4,-4"
       style="fill:#4d4d4d;fill-opacity:1;fill-rule:nonzero;stroke:none"
       id="path66" /></g><g
     id="g68"
     transform="matrix(1.3333333,0,0,-1.3333333,303.99999,165.33333)"
     style="fill:#4d4d4d"><path
       inkscape:connector-curvature="0"
       d="m 0,0 c 0,-2.209 -1.791,-4 -4,-4 -2.209,0 -4,1.791 -4,4 0,2.209 1.791,4 4,4 2.209,0 4,-1.791 4,-4"
       style="fill:#4d4d4d;fill-opacity:1;fill-rule:nonzero;stroke:none"
       id="path70" /></g><g
     id="g72"
     transform="matrix(1.3333333,0,0,-1.3333333,267.99999,196)"
     style="fill:#4d4d4d"><path
       inkscape:connector-curvature="0"
       d="M 0,0 C 0,-1.657 1.343,-3 3,-3 4.657,-3 6,-1.657 6,0 6,1.657 4.657,3 3,3 1.343,3 0,1.657 0,0"
       style="fill:#4d4d4d;fill-opacity:1;fill-rule:nonzero;stroke:none"
       id="path74" /></g><g
     id="g76"
     transform="matrix(1.3333333,0,0,-1.3333333,267.99999,209.33333)"
     style="fill:#4d4d4d"><path
       inkscape:connector-curvature="0"
       d="M 0,0 C 0,-1.657 1.343,-3 3,-3 4.657,-3 6,-1.657 6,0 6,1.657 4.657,3 3,3 1.343,3 0,1.657 0,0"
       style="fill:#4d4d4d;fill-opacity:1;fill-rule:nonzero;stroke:none"
       id="path78" /></g><g
     id="g80"
     transform="matrix(1.3333333,0,0,-1.3333333,247.99999,236)"
     style="fill:#4d4d4d"><path
       inkscape:connector-curvature="0"
       d="M 0,0 C 0,-1.657 1.343,-3 3,-3 4.657,-3 6,-1.657 6,0 6,1.657 4.657,3 3,3 1.343,3 0,1.657 0,0"
       style="fill:#4d4d4d;fill-opacity:1;fill-rule:nonzero;stroke:none"
       id="path82" /></g><g
     id="g84"
     transform="matrix(1.3333333,0,0,-1.3333333,234.66666,240)"
     style="fill:#4d4d4d"><path
       inkscape:connector-curvature="0"
       d="M 0,0 H 2 C 3.1,0 4,0.9 4,2 V 4 C 4,5.1 3.1,6 2,6 H 0 C -1.1,6 -2,5.1 -2,4 V 2 C -2,0.9 -1.1,0 0,0"
       style="fill:#4d4d4d;fill-opacity:1;fill-rule:nonzero;stroke:none"
       id="path86" /></g><g
     id="g88"
     transform="matrix(1.3333333,0,0,-1.3333333,176,104)"><path
       inkscape:connector-curvature="0"
       d="m 0,0 c 0,-2.209 -1.791,-4 -4,-4 -2.209,0 -4,1.791 -4,4 0,2.209 1.791,4 4,4 2.209,0 4,-1.791 4,-4"
       style="fill:#0d0d0d;fill-opacity:1;fill-rule:nonzero;stroke:none"
       id="path90" /></g><g
     id="g92"
     transform="matrix(1.3333333,0,0,-1.3333333,174.66666,104)"><path
       inkscape:connector-curvature="0"
       d="m 0,0 c 0,-1.657 -1.343,-3 -3,-3 -1.657,0 -3,1.343 -3,3 0,1.657 1.343,3 3,3 1.657,0 3,-1.343 3,-3"
       style="fill:#999999;fill-opacity:1;fill-rule:nonzero;stroke:none"
       id="path94" /></g><g
     id="g96"
     transform="matrix(1.3333333,0,0,-1.3333333,170.66666,101.33334)"><path
       inkscape:connector-curvature="0"
       d="m 0,0 c -1.104,0 -2,-0.896 -2,-2 0,-1.104 0.896,-2 2,-2 1.104,0 2,0.896 2,2 0,1.104 -0.896,2 -2,2"
       style="fill:#191919;fill-opacity:1;fill-rule:nonzero;stroke:none"
       id="path98" /></g><g
     id="g100"
     transform="matrix(1.3333333,0,0,-1.3333333,170.66666,102.66667)"><path
       inkscape:connector-curvature="0"
       d="m 0,0 c 0.551,0 1,-0.449 1,-1 0,-0.551 -0.449,-1 -1,-1 -0.551,0 -1,0.449 -1,1 0,0.551 0.449,1 1,1"
       style="fill:#333333;fill-opacity:1;fill-rule:nonzero;stroke:none"
       id="path102" /></g><g
     id="g104"
     transform="matrix(1.3333333,0,0,-1.3333333,221.33333,236)"
     style="fill:#4d4d4d"><path
       inkscape:connector-curvature="0"
       d="m 0,0 c 0,-0.553 -0.447,-1 -1,-1 -0.553,0 -1,0.447 -1,1 0,0.553 0.447,1 1,1 0.553,0 1,-0.447 1,-1"
       style="fill:#4d4d4d;fill-opacity:1;fill-rule:nonzero;stroke:none"
       id="path106" /></g><g
     id="g108"
     transform="matrix(1.3333333,0,0,-1.3333333,154.66666,236)"
     style="fill:#4d4d4d"><path
       inkscape:connector-curvature="0"
       d="m 0,0 c 0,-0.553 -0.448,-1 -1,-1 -0.552,0 -1,0.447 -1,1 0,0.553 0.448,1 1,1 0.552,0 1,-0.447 1,-1"
       style="fill:#4d4d4d;fill-opacity:1;fill-rule:nonzero;stroke:none"
       id="path110" /></g><g
     id="g112"
     transform="matrix(1.3333333,0,0,-1.3333333,170.66666,230.66667)"><path
       inkscape:connector-curvature="0"
       d="m 0,0 c -2.757,0 -5,-2.243 -5,-5 0,-2.757 2.243,-5 5,-5 2.757,0 5,2.243 5,5 0,2.757 -2.243,5 -5,5 m 0,-1 c 2.209,0 4,-1.791 4,-4 0,-2.209 -1.791,-4 -4,-4 -2.209,0 -4,1.791 -4,4 0,2.209 1.791,4 4,4"
       style="fill:#e6e6e6;fill-opacity:1;fill-rule:nonzero;stroke:none"
       id="path114" /></g><g
     id="g116"
     transform="matrix(1.3333333,0,0,-1.3333333,309.98053,116.68614)"><path
       inkscape:connector-curvature="0"
       d="m 0,0 c -4.687,4.686 -12.284,4.686 -16.971,0 -4.686,-4.687 -4.686,-12.284 0,-16.971 z"
       style="fill:#333333;fill-opacity:1;fill-rule:nonzero;stroke:none"
       id="path118" /></g><g
     id="g120"
     transform="matrix(1.3333333,0,0,-1.3333333,309.98053,116.68614)"><path
       inkscape:connector-curvature="0"
       d="m 0,0 c 4.687,-4.687 4.687,-12.284 0,-16.971 -4.687,-4.686 -12.284,-4.686 -16.971,0 z"
       style="fill:#191919;fill-opacity:1;fill-rule:nonzero;stroke:none"
       id="path122" /></g><g
     id="g124"
     transform="matrix(1.3333333,0,0,-1.3333333,270.66666,237.33333)"
     style="fill:#4d4d4d"><path
       inkscape:connector-curvature="0"
       d="m 0,0 h -2 c -0.553,0 -1,0.447 -1,1 0,0.553 0.447,1 1,1 H 0 C 0.553,2 1,1.553 1,1 1,0.447 0.553,0 0,0"
       style="fill:#4d4d4d;fill-opacity:1;fill-rule:nonzero;stroke:none"
       id="path126" /></g><g
     id="g128"
     transform="matrix(1.3333333,0,0,-1.3333333,73.333331,237.33333)"
     style="fill:#4d4d4d"><path
       inkscape:connector-curvature="0"
       d="m 0,0 h -2 c -0.552,0 -1,0.447 -1,1 0,0.553 0.448,1 1,1 H 0 C 0.552,2 1,1.553 1,1 1,0.447 0.552,0 0,0"
       style="fill:#4d4d4d;fill-opacity:1;fill-rule:nonzero;stroke:none"
       id="path130" /></g><g
     id="g132"
     transform="matrix(1.3333333,0,0,-1.3333333,309.33333,128)"><path
       inkscape:connector-curvature="0"
       d="m 0,0 c 0,-4.418 -3.582,-8 -8,-8 -4.418,0 -8,3.582 -8,8 0,4.418 3.582,8 8,8 4.418,0 8,-3.582 8,-8"
       style="fill:#4c4c4c;fill-opacity:1;fill-rule:nonzero;stroke:none"
       id="path134" /></g><g
     id="g136"
     transform="matrix(1.3333333,0,0,-1.3333333,298.66666,120)"><path
       inkscape:connector-curvature="0"
       d="m 0,0 c -3.313,0 -6,-2.687 -6,-6 0,-3.313 2.687,-6 6,-6 3.313,0 6,2.687 6,6 0,3.313 -2.687,6 -6,6 m 0,-1 c 2.757,0 5,-2.243 5,-5 0,-2.757 -2.243,-5 -5,-5 -2.757,0 -5,2.243 -5,5 0,2.757 2.243,5 5,5"
       style="fill:#595959;fill-opacity:1;fill-rule:nonzero;stroke:none"
       id="path138" /></g><g
     id="g140"
     transform="matrix(1.3333333,0,0,-1.3333333,53.980532,116.68614)"><path
       inkscape:connector-curvature="0"
       d="m 0,0 c -4.687,4.686 -12.284,4.686 -16.971,0 -4.686,-4.687 -4.686,-12.284 0,-16.971 z"
       style="fill:#333333;fill-opacity:1;fill-rule:nonzero;stroke:none"
       id="path142" /></g><g
     id="g144"
     transform="matrix(1.3333333,0,0,-1.3333333,53.980532,116.68614)"><path
       inkscape:connector-curvature="0"
       d="m 0,0 c 4.686,-4.687 4.686,-12.284 0,-16.971 -4.687,-4.686 -12.284,-4.686 -16.971,0 z"
       style="fill:#191919;fill-opacity:1;fill-rule:nonzero;stroke:none"
       id="path146" /></g><g
     id="g148"
     transform="matrix(1.3333333,0,0,-1.3333333,53.333332,128)"><path
       inkscape:connector-curvature="0"
       d="m 0,0 c 0,-4.418 -3.582,-8 -8,-8 -4.418,0 -8,3.582 -8,8 0,4.418 3.582,8 8,8 4.418,0 8,-3.582 8,-8"
       style="fill:#4c4c4c;fill-opacity:1;fill-rule:nonzero;stroke:none"
       id="path150" /></g><g
     id="g152"
     transform="matrix(1.3333333,0,0,-1.3333333,42.666666,120)"><path
       inkscape:connector-curvature="0"
       d="m 0,0 c -3.313,0 -6,-2.687 -6,-6 0,-3.313 2.687,-6 6,-6 3.313,0 6,2.687 6,6 0,3.313 -2.687,6 -6,6 m 0,-1 c 2.757,0 5,-2.243 5,-5 0,-2.757 -2.243,-5 -5,-5 -2.757,0 -5,2.243 -5,5 0,2.757 2.243,5 5,5"
       style="fill:#595959;fill-opacity:1;fill-rule:nonzero;stroke:none"
       id="path154" /></g><g
     id="g156"
     transform="matrix(1.3333333,0,0,-1.3333333,70.666665,160)"
     style="fill:#4d4d4d"><path
       inkscape:connector-curvature="0"
       d="m 0,0 h -7 v 7 c 0,0.552 -0.448,1 -1,1 h -6 c -0.552,0 -1,-0.448 -1,-1 V 0 h -7 c -0.552,0 -1,-0.448 -1,-1 v -6 c 0,-0.552 0.448,-1 1,-1 h 7 v -7 c 0,-0.553 0.448,-1 1,-1 h 6 c 0.552,0 1,0.447 1,1 v 7 h 7 c 0.552,0 1,0.448 1,1 v 6 C 1,-0.448 0.552,0 0,0"
       style="fill:#4d4d4d;fill-opacity:1;fill-rule:nonzero;stroke:none"
       id="path158" /></g><g
     id="g160"
     transform="matrix(1.3333333,0,0,-1.3333333,42.666666,165.33333)"><path
       inkscape:connector-curvature="0"
       d="M 0,0 H 4"
       style="fill:none;stroke:#ffffff;stroke-width:1;stroke-linecap:butt;stroke-linejoin:miter;stroke-miterlimit:10;stroke-dasharray:none;stroke-opacity:1"
       id="path162" /></g><g
     id="g164"
     transform="matrix(1.3333333,0,0,-1.3333333,63.999998,165.33333)"><path
       inkscape:connector-curvature="0"
       d="M 0,0 H 4"
       style="fill:none;stroke:#ffffff;stroke-width:1;stroke-linecap:butt;stroke-linejoin:miter;stroke-miterlimit:10;stroke-dasharray:none;stroke-opacity:1"
       id="path166" /></g><g
     id="g168"
     transform="matrix(1.3333333,0,0,-1.3333333,55.999999,152)"><path
       inkscape:connector-curvature="0"
       d="M 0,0 V -4"
       style="fill:none;stroke:#ffffff;stroke-width:1;stroke-linecap:butt;stroke-linejoin:miter;stroke-miterlimit:10;stroke-dasharray:none;stroke-opacity:1"
       id="path170" /></g><g
     id="g172"
     transform="matrix(1.3333333,0,0,-1.3333333,55.999999,173.33333)"><path
       inkscape:connector-curvature="0"
       d="M 0,0 V -4"
       style="fill:none;stroke:#ffffff;stroke-width:1;stroke-linecap:butt;stroke-linejoin:miter;stroke-miterlimit:10;stroke-dasharray:none;stroke-opacity:1"
       id="path174" /></g></svg>