<?xml version="1.0" encoding="UTF-8" standalone="no"?>
<svg
   xmlns:dc="http://purl.org/dc/elements/1.1/"
   xmlns:cc="http://creativecommons.org/ns#"
   xmlns:rdf="http://www.w3.org/1999/02/22-rdf-syntax-ns#"
   xmlns:svg="http://www.w3.org/2000/svg"
   xmlns="http://www.w3.org/2000/svg"
   xmlns:sodipodi="http://sodipodi.sourceforge.net/DTD/sodipodi-0.dtd"
   xmlns:inkscape="http://www.inkscape.org/namespaces/inkscape"
   viewBox="0 0 341.33334 341.33334"
   height="256"
   width="256"
   xml:space="preserve"
   id="svg2"
   version="1.1"
   sodipodi:docname="Sega - 32X-content.svg"
   inkscape:version="0.92.2 (5c3e80d, 2017-08-06)"><sodipodi:namedview
     pagecolor="#ffffff"
     bordercolor="#666666"
     borderopacity="1"
     objecttolerance="10"
     gridtolerance="10"
     guidetolerance="10"
     inkscape:pageopacity="0"
     inkscape:pageshadow="2"
     inkscape:window-width="1024"
     inkscape:window-height="705"
     id="namedview185"
     showgrid="false"
     inkscape:pagecheckerboard="true"
     inkscape:zoom="1.9555921"
     inkscape:cx="140.18608"
     inkscape:cy="127.87775"
     inkscape:window-x="-8"
     inkscape:window-y="-8"
     inkscape:window-maximized="1"
     inkscape:current-layer="svg2" /><metadata
     id="metadata8"><rdf:RDF><cc:Work
         rdf:about=""><dc:format>image/svg+xml</dc:format><dc:type
           rdf:resource="http://purl.org/dc/dcmitype/StillImage" /><dc:title /></cc:Work></rdf:RDF></metadata><defs
     id="defs6"><clipPath
       id="clipPath18"
       clipPathUnits="userSpaceOnUse"><path
         id="path16"
         d="M 0,256 H 256 V 0 H 0 Z" /></clipPath><clipPath
       id="clipPath26"
       clipPathUnits="userSpaceOnUse"><path
         id="path24"
         d="M 4,210 H 252 V 46 H 4 Z" /></clipPath></defs><path
     id="path38"
     style="fill:#282828;fill-opacity:1;fill-rule:nonzero;stroke:none;stroke-width:1.33333325"
     d="M 305.99999,72.000003 H 35.33333 c -10.633333,0 -19.333333,8.672 -19.333333,19.272 V 259.69733 c 0,0 1.208,9.636 59.409332,9.636 H 265.92399 c 58.20133,0 59.40933,-9.636 59.40933,-9.636 V 91.272003 c 0,-10.6 -8.7,-19.272 -19.33333,-19.272"
     inkscape:connector-curvature="0" /><path
     id="path42"
     style="fill:#e6e6e6;fill-opacity:1;fill-rule:nonzero;stroke:none;stroke-width:1.3333333;font-variant-east_asian:normal;opacity:1;vector-effect:none;stroke-linecap:butt;stroke-linejoin:miter;stroke-miterlimit:4;stroke-dasharray:none;stroke-dashoffset:0;stroke-opacity:1"
     d="M 275.99999,208 H 65.333329 c -0.736,0 -1.333334,-0.59733 -1.333334,-1.33333 V 92.000003 c 0,-0.736 0.597334,-1.333333 1.333334,-1.333333 H 275.99999 c 0.736,0 1.33333,0.597333 1.33333,1.333333 V 206.66667 c 0,0.736 -0.59733,1.33333 -1.33333,1.33333"
     inkscape:connector-curvature="0" /><path
     id="path46"
     style="fill:#d4a600;fill-opacity:1;fill-rule:nonzero;stroke:none;stroke-width:1.33333325"
     d="M 101.33333,208 H 65.333331 c -0.736,0 -1.333333,-0.59733 -1.333333,-1.33333 V 92.000003 c 0,-0.736 0.597333,-1.333333 1.333333,-1.333333 h 35.999999 z"
     inkscape:connector-curvature="0" /><path
     id="path50"
     style="fill:#1a1a1a;fill-opacity:1;fill-rule:nonzero;stroke:none;stroke-width:1.33333325"
     d="M 295.44519,72.000003 284.21052,201.564 c 0,0 -4.012,20.66667 -18.456,23.052 -14.352,2.36933 -52.47866,9.44 -94.68666,9.52933 v 0.008 c -0.13467,0 -0.26667,-0.004 -0.40133,-0.004 -0.13467,0 -0.26667,0.004 -0.40134,0.004 v -0.008 c -42.208,-0.0893 -80.334662,-7.16 -94.686661,-9.52933 -14.444,-2.38533 -18.456,-23.052 -18.456,-23.052 L 45.887863,72.000003 H 42.66653 l 0.024,0.272 11.233333,129.563997 0.01467,0.16533 0.032,0.16267 c 0.18,0.93333 4.622667,22.87067 21.08,25.588 l 3.98,0.668 c 16.481333,2.78533 50.283997,8.49867 88.025327,8.88533 v 0.02 l 3.20933,0.008 0.40134,-0.004 h 3.20933 l 0.003,-0.02 c 37.90133,-0.35066 71.88533,-6.09466 88.42399,-8.88933 l 3.98,-0.668 c 16.45734,-2.71733 20.9,-24.65467 21.08134,-25.588 l 0.0307,-0.16267 0.0147,-0.16533 11.23333,-129.563997 0.024,-0.272 z"
     inkscape:connector-curvature="0" /><path
     id="path54"
     style="fill:#1a1a1a;fill-opacity:1;fill-rule:nonzero;stroke:none;stroke-width:1.33333325"
     d="m 293.99893,231.8348 c 0.0707,-0.72 13.388,-100.52666 16.42267,-120.268 3.12133,-20.31333 13.68933,-20.899996 14.884,-20.899996 h 0.028 v 1.595999 c -0.008,0 -0.009,0 -0.028,0 -0.74,0 -10.42134,0.369334 -13.37067,19.555997 -3.06667,19.95334 -16.48133,120.52133 -16.48133,120.52133 0,0 -4.216,13.16934 9.96533,16.36134 14.07067,3.168 19.82533,5.544 19.91467,5.58 v 1.71866 l -0.55067,-0.228 c -0.0573,-0.024 -5.848,-2.39466 -19.688,-5.51066 -4.83333,-1.088 -8.244,-3.392 -10.136,-6.848 -2.91067,-5.31734 -1.04133,-11.32534 -0.96,-11.57867"
     inkscape:connector-curvature="0" /><path
     id="path58"
     style="fill:#1a1a1a;fill-opacity:1;fill-rule:nonzero;stroke:none;stroke-width:1.33333325"
     d="m 47.334399,231.8348 c -0.07067,-0.72 -13.388,-100.52666 -16.422666,-120.268 C 27.790399,91.25347 17.2224,90.666804 16.027733,90.666804 h -0.028 v 1.595999 c 0.008,0 0.0093,0 0.028,0 0.74,0 10.421333,0.369334 13.370666,19.555997 3.066667,19.95334 16.481333,120.52133 16.481333,120.52133 0,0 4.216,13.16934 -9.965333,16.36134 -14.070666,3.168 -19.825333,5.544 -19.914666,5.58 v 1.71866 l 0.550667,-0.228 c 0.05733,-0.024 5.848,-2.39466 19.687999,-5.51066 4.833333,-1.088 8.244,-3.392 10.136,-6.848 2.910667,-5.31734 1.041333,-11.32534 0.96,-11.57867"
     inkscape:connector-curvature="0" /><path
     id="path62"
     style="fill:#000000;fill-opacity:1;fill-rule:nonzero;stroke:none;stroke-width:1.33333325"
     d="m 250.66666,170.66667 v 5.74533 0.81734 19.72 0.7 5.01733 h 21.33333 v -5.01733 -0.7 -19.72 -0.81734 -5.74533 z"
     inkscape:connector-curvature="0" /><path
     inkscape:connector-curvature="0"
     d="M 271.28933,196.82533 H 251.37866 V 177.236 h 19.91067 z"
     style="fill:#ffffff;fill-opacity:1;fill-rule:nonzero;stroke:none;stroke-width:1.33333325"
     id="path64" /><path
     inkscape:connector-curvature="0"
     d="m 251.37733,171.39867 h 19.91066 v 5.01333 h -19.91066 z"
     style="fill:#ffffff;fill-opacity:1;fill-rule:nonzero;stroke:none;stroke-width:1.33333325"
     id="path66" /><path
     id="path70"
     style="fill:#ffffff;fill-opacity:1;fill-rule:nonzero;stroke:none;stroke-width:1.33333325"
     d="m 253.79773,199.48933 h 2.24133 v 1.86667 c -0.67466,0.144 -1.45866,0.23733 -2.16933,0.23733 -1.56667,0 -2.332,-0.78533 -2.332,-1.87733 0,-1.092 0.76533,-1.87734 2.38,-1.87734 1.33867,0 2.03733,0.36134 2.05467,1.196 h -1.61467 c -0.005,-0.11333 -0.06,-0.188 -0.132,-0.232 -0.072,-0.044 -0.17467,-0.064 -0.28267,-0.064 -0.26,0 -0.428,0.108 -0.51333,0.252 -0.084,0.14267 -0.108,0.49334 -0.108,0.79467 0,0.34533 0.036,0.58267 0.11467,0.69733 0.10266,0.148 0.27066,0.212 0.49333,0.212 0.16267,0 0.32,-0.02 0.45867,-0.0747 v -0.42934 h -0.59067 z"
     inkscape:connector-curvature="0" /><path
     id="path74"
     style="fill:#ffffff;fill-opacity:1;fill-rule:nonzero;stroke:none;stroke-width:1.33333325"
     d="m 259.00013,200.05733 -0.344,-1.344 h -0.012 l -0.37867,1.344 z m -1.428,-2.124 h 2.23467 l 1.39866,3.56667 h -1.784 l -0.168,-0.57334 h -1.248 L 257.8308,201.5 h -1.65067 z"
     inkscape:connector-curvature="0" /><path
     id="path78"
     style="fill:#ffffff;fill-opacity:1;fill-rule:nonzero;stroke:none;stroke-width:1.33333325"
     d="m 265.69013,198.9508 h -0.012 l -0.61467,2.54933 h -1.57866 l -0.61467,-2.54933 h -0.012 v 2.54933 h -1.45733 v -3.56666 h 2.392 l 0.476,2.124 h 0.012 l 0.476,-2.124 h 2.392 v 3.56666 h -1.45867 z"
     inkscape:connector-curvature="0" /><path
     id="path82"
     style="fill:#ffffff;fill-opacity:1;fill-rule:nonzero;stroke:none;stroke-width:1.33333325"
     d="m 267.76639,197.93307 h 3.308 v 0.92933 h -1.65733 v 0.38 h 1.53066 v 0.928 h -1.53066 v 0.4 h 1.71066 v 0.92934 h -3.36133 z"
     inkscape:connector-curvature="0" /><path
     id="path86"
     style="fill:#000000;fill-opacity:1;fill-rule:nonzero;stroke:none;stroke-width:1.33333325"
     d="m 254.46919,172.2728 h 0.784 l -1.036,3.01067 h -0.94133 l -1.004,-3.01067 h 0.87066 l 0.64134,2.18133 h 0.008 z"
     inkscape:connector-curvature="0" /><path
     inkscape:connector-curvature="0"
     d="m 255.41999,172.27333 h 0.78667 v 3.01067 h -0.78667 z"
     style="fill:#000000;fill-opacity:1;fill-rule:nonzero;stroke:none;stroke-width:1.33333325"
     id="path88" /><path
     id="path92"
     style="fill:#000000;fill-opacity:1;fill-rule:nonzero;stroke:none;stroke-width:1.33333325"
     d="m 256.58546,172.2728 h 1.10267 l 0.952,2.24267 0.008,-0.008 v -2.23467 h 0.70933 v 3.01067 h -1.09067 l -0.96533,-2.30534 h -0.008 v 2.30534 h -0.708 z"
     inkscape:connector-curvature="0" /><path
     id="path96"
     style="fill:#000000;fill-opacity:1;fill-rule:nonzero;stroke:none;stroke-width:1.33333325"
     d="m 260.38213,172.85667 h -0.86933 v -0.584 h 2.54666 v 0.584 h -0.89066 v 2.42667 h -0.78667 z"
     inkscape:connector-curvature="0" /><path
     id="path100"
     style="fill:#000000;fill-opacity:1;fill-rule:nonzero;stroke:none;stroke-width:1.33333325"
     d="m 263.64306,174.11173 -0.36267,-1.25067 h -0.012 l -0.38533,1.25067 z m -1.93333,1.172 1.12266,-3.01067 h 0.96 l 1.12267,3.01067 h -0.89067 l -0.188,-0.588 h -1.15466 l -0.184,0.588 z"
     inkscape:connector-curvature="0" /><path
     id="path104"
     style="fill:#000000;fill-opacity:1;fill-rule:nonzero;stroke:none;stroke-width:1.33333325"
     d="m 267.05013,174.15747 h -0.57867 v -0.584 h 1.36534 v 1.60933 c -0.63734,0.1 -0.75867,0.16267 -1.444,0.16267 -0.88534,-0.0293 -1.42534,-0.62533 -1.42534,-1.568 0,-0.94133 0.54,-1.53867 1.42534,-1.568 0.68933,-0.02 1.41333,0.088 1.42533,0.964 h -0.788 c -0.0387,-0.292 -0.256,-0.38 -0.51467,-0.38 -0.532,0 -0.72133,0.49733 -0.72133,0.984 0,0.59333 0.28,0.98533 0.84667,0.98533 0.14533,0 0.29066,-0.0253 0.40933,-0.0507 z"
     inkscape:connector-curvature="0" /><path
     id="path108"
     style="fill:#000000;fill-opacity:1;fill-rule:nonzero;stroke:none;stroke-width:1.33333325"
     d="m 268.22879,175.28333 v -3.01067 h 2.16533 v 0.584 h -1.37733 v 0.62134 h 1.26667 v 0.584 h -1.26667 v 0.63733 h 1.37733 v 0.584 z"
     inkscape:connector-curvature="0" /><path
     id="path112"
     style="fill:#000000;fill-opacity:1;fill-rule:nonzero;stroke:none;stroke-width:1.33333325"
     d="m 252.73519,182.44227 5.428,-1.73067 5.07067,10.53734 0.0373,-0.012 -1.19067,-11.77467 5.112,-1.62933 0.28667,15.46666 -6.90267,2.20134 z"
     inkscape:connector-curvature="0" /><path
     id="path116"
     style="fill:#ffffff;fill-opacity:1;fill-rule:nonzero;stroke:none;stroke-width:1.33333325"
     d="m 216.31893,198.3288 v 0.71867 c 0,0.25333 0.02,0.48933 0.048,0.71733 l -0.47333,-1.01733 c 0.13333,-0.11734 0.27866,-0.26667 0.42533,-0.41867 m 21.13467,0 v 0.71867 c 0,0.25333 0.02,0.48933 0.048,0.71733 l -0.47334,-1.01733 c 0.13334,-0.11734 0.27867,-0.26667 0.42534,-0.41867 m 4.51866,-6.32933 h -1.15733 c -1.47733,0 -2.488,0.60933 -2.992,1.728 -0.132,-0.21467 -0.284,-0.42134 -0.464,-0.61467 -0.68133,-0.73867 -1.46667,-1.11333 -2.33467,-1.11333 h -4.05333 c -0.10267,0 -0.2,0.024 -0.28933,0.064 -0.0893,-0.04 -0.18667,-0.064 -0.28934,-0.064 h -6.65866 c -0.10267,0 -0.20134,0.024 -0.29067,0.064 -0.088,-0.04 -0.18667,-0.064 -0.28933,-0.064 h -3.47334 c -1.47733,0 -2.488,0.60933 -2.992,1.728 -0.132,-0.21467 -0.284,-0.42134 -0.46266,-0.61467 -0.68267,-0.73867 -1.468,-1.11333 -2.336,-1.11333 h -4.05334 c -0.41733,0 -0.75466,0.364 -0.75466,0.81333 v 0.42267 c -0.0347,-0.04 -0.0587,-0.084 -0.0947,-0.12267 -0.68133,-0.73867 -1.46667,-1.11333 -2.33467,-1.11333 h -4.05333 c -0.10267,0 -0.20133,0.024 -0.29067,0.064 -0.088,-0.04 -0.18666,-0.064 -0.28933,-0.064 h -2.60533 c -0.41734,0 -0.75467,0.364 -0.75467,0.81333 v 5.42133 h -2.54267 v -5.42133 c 0,-0.44933 -0.33866,-0.81333 -0.75466,-0.81333 h -2.60667 c -0.41733,0 -0.75467,0.364 -0.75467,0.81333 v 6.23467 c 0,2.33333 1.19334,3.61866 3.36134,3.61866 h 3.47333 c 0.10267,0 0.2,-0.0227 0.28933,-0.0627 0.0893,0.04 0.18667,0.0627 0.28934,0.0627 h 2.60533 c 0.10267,0 0.20133,-0.0227 0.28933,-0.0627 0.0893,0.04 0.188,0.0627 0.29067,0.0627 h 4.05333 c 0.868,0 1.65334,-0.37333 2.33467,-1.112 0.036,-0.0387 0.06,-0.0827 0.0947,-0.12266 v 0.42133 c 0,0.44933 0.33733,0.81333 0.75466,0.81333 h 1.15867 c 0.0493,0 0.0973,-0.004 0.144,-0.0147 0.0467,0.0107 0.096,0.0147 0.14533,0.0147 h 1.15734 c 0.336,0 0.62133,-0.236 0.72,-0.56266 l 0.052,0.11333 c 0.128,0.276 0.38933,0.44933 0.676,0.44933 h 1.15733 c 0.0493,0 0.0987,-0.004 0.14533,-0.0147 0.0467,0.0107 0.096,0.0147 0.14534,0.0147 h 1.15733 c 0.26267,0 0.50533,-0.14533 0.64267,-0.38533 0.088,-0.15333 0.11866,-0.32933 0.104,-0.50267 0.568,0.58 1.38533,0.888 2.43866,0.888 h 3.47334 c 0.41733,0 0.756,-0.364 0.756,-0.81333 v -1.24667 c 0,-0.0547 -0.02,-0.10266 -0.0293,-0.156 0.009,-0.052 0.0293,-0.1 0.0293,-0.156 v -1.24666 c 0,-0.44934 -0.33867,-0.81334 -0.756,-0.81334 h -0.11334 v -0.74533 c 0,-0.0547 -0.0187,-0.10267 -0.0293,-0.156 0.0107,-0.052 0.0293,-0.1 0.0293,-0.156 v -0.74533 h 0.11334 c 0.10266,0 0.20133,-0.0227 0.28933,-0.0627 0.0893,0.04 0.188,0.0627 0.29067,0.0627 h 1.27066 v 5.42133 c 0,0.44933 0.33867,0.81333 0.756,0.81333 h 1.15734 c 0.0493,0 0.0973,-0.004 0.14533,-0.0147 0.0467,0.0107 0.0947,0.0147 0.144,0.0147 h 1.15867 c 0.41733,0 0.75466,-0.364 0.75466,-0.81333 v -5.42133 h 1.096 v 5.42133 c 0,0.44933 0.33734,0.81333 0.75467,0.81333 h 1.15867 c 0.0493,0 0.0973,-0.004 0.144,-0.0147 0.0467,0.0107 0.096,0.0147 0.14533,0.0147 h 1.15733 c 0.336,0 0.62134,-0.236 0.71867,-0.56266 l 0.0533,0.11333 c 0.128,0.276 0.38934,0.44933 0.676,0.44933 h 1.15734 c 0.0493,0 0.0987,-0.004 0.14533,-0.0147 0.0467,0.0107 0.096,0.0147 0.14533,0.0147 h 1.15734 c 0.26266,0 0.50533,-0.14533 0.64266,-0.38533 0.088,-0.15333 0.11867,-0.32933 0.104,-0.50267 0.568,0.58 1.38534,0.888 2.43867,0.888 h 1.15733 c 2.168,0 3.36134,-1.28533 3.36134,-3.61866 v -3.42934 c 0,-2.33333 -1.19334,-3.61866 -3.36134,-3.61866"
     inkscape:connector-curvature="0" /><path
     id="path120"
     style="fill:#0000ff;fill-opacity:1;fill-rule:nonzero;stroke:none;stroke-width:1.33333325"
     d="m 215.04746,201.85347 h -1.15867 l -1.44666,-3.11733 v 3.11733 h -1.15867 v -4.364 h 1.73733 z m 0,-6.07867 c 0,0.388 -0.12667,0.71867 -0.38133,0.992 -0.25334,0.27334 -0.51334,0.41067 -0.77734,0.41067 h -2.89466 v 4.676 h -1.15734 v -5.92267 h 3.76267 c 0.19333,0 0.28933,-0.052 0.28933,-0.156 0,-0.104 -0.096,-0.156 -0.28933,-0.156 h -3.76267 v -1.24666 h 4.052 c 0.264,0 0.524,0.13866 0.77734,0.416 0.25466,0.276 0.38133,0.60533 0.38133,0.98666 m 1.448,0 c 0,0.81734 -0.19467,1.436 -0.584,1.85467 -0.38933,0.41867 -0.71867,0.70133 -0.98933,0.84667 l 1.57333,3.37733 h -1.15867 l -2.02666,-4.364 h 0.57866 c 0.34134,0 0.668,-0.168 0.98,-0.504 0.312,-0.336 0.468,-0.74 0.468,-1.21067 0,-0.464 -0.156,-0.86666 -0.468,-1.20533 -0.312,-0.34 -0.63866,-0.50933 -0.98,-0.50933 h -4.052 v -1.24667 h 4.052 c 0.66267,0 1.26267,0.29067 1.8,0.872 0.53734,0.58267 0.80667,1.27867 0.80667,2.08933"
     inkscape:connector-curvature="0" /><path
     id="path124"
     style="fill:#0000ff;fill-opacity:1;fill-rule:nonzero;stroke:none;stroke-width:1.33333325"
     d="m 217.07413,195.6188 c 0,-1.87067 0.868,-2.80533 2.60533,-2.80533 h 3.47467 v 1.24666 h -3.47467 c -0.96533,0 -1.44666,0.52 -1.44666,1.55867 v 3.42933 c 0,1.03867 0.48133,1.55867 1.44666,1.55867 h 3.47467 v 1.24667 h -3.47467 c -1.73733,0 -2.60533,-0.93467 -2.60533,-2.80534 z"
     inkscape:connector-curvature="0" /><path
     id="path128"
     style="fill:#0000ff;fill-opacity:1;fill-rule:nonzero;stroke:none;stroke-width:1.33333325"
     d="m 218.52173,197.17747 v -1.55867 c 0,-0.83066 0.38667,-1.24666 1.15867,-1.24666 h 3.47333 v 1.24666 h -3.184 c -0.19333,0 -0.28933,0.104 -0.28933,0.312 h 2.60533 v 1.24667 z"
     inkscape:connector-curvature="0" /><path
     id="path132"
     style="fill:#0000ff;fill-opacity:1;fill-rule:nonzero;stroke:none;stroke-width:1.33333325"
     d="m 218.52173,197.4892 h 3.764 v 1.24667 h -2.60533 c 0,0.208 0.096,0.312 0.28933,0.312 h 3.184 v 1.24666 h -3.47333 c -0.772,0 -1.15867,-0.416 -1.15867,-1.24666 z"
     inkscape:connector-curvature="0" /><path
     id="path136"
     style="fill:#0000ff;fill-opacity:1;fill-rule:nonzero;stroke:none;stroke-width:1.33333325"
     d="m 227.20719,194.37187 h 3.18533 v 1.24667 h -2.02666 v 6.23466 h -1.15867 z m -0.28933,0 v 7.48133 h -1.15867 v -6.23466 h -2.02667 v -1.24667 z m 3.47466,-0.312 h -6.65866 v -1.24667 h 6.65866 z"
     inkscape:connector-curvature="0" /><path
     id="path140"
     style="fill:#0000ff;fill-opacity:1;fill-rule:nonzero;stroke:none;stroke-width:1.33333325"
     d="m 236.18213,201.85347 h -1.15867 l -1.44666,-3.11733 v 3.11733 h -1.15867 v -4.364 h 1.73733 z m 0,-6.07867 c 0,0.388 -0.12667,0.71867 -0.38133,0.992 -0.25467,0.27334 -0.51334,0.41067 -0.77734,0.41067 h -2.89466 v 4.676 h -1.15734 v -5.92267 h 3.76267 c 0.19333,0 0.28933,-0.052 0.28933,-0.156 0,-0.104 -0.096,-0.156 -0.28933,-0.156 h -3.76267 v -1.24666 h 4.052 c 0.264,0 0.52267,0.13866 0.77734,0.416 0.25466,0.276 0.38133,0.60533 0.38133,0.98666 m 1.448,0 c 0,0.81734 -0.19467,1.436 -0.584,1.85467 -0.38933,0.41867 -0.71867,0.70133 -0.98933,0.84667 l 1.57333,3.37733 h -1.15867 l -2.02666,-4.364 h 0.57866 c 0.34134,0 0.668,-0.168 0.98,-0.504 0.312,-0.336 0.468,-0.74 0.468,-1.21067 0,-0.464 -0.156,-0.86666 -0.468,-1.20533 -0.312,-0.34 -0.63866,-0.50933 -0.98,-0.50933 h -4.052 v -1.24667 h 4.052 c 0.66267,0 1.26267,0.29067 1.8,0.872 0.53734,0.58267 0.80667,1.27867 0.80667,2.08933"
     inkscape:connector-curvature="0" /><path
     id="path144"
     style="fill:#0000ff;fill-opacity:1;fill-rule:nonzero;stroke:none;stroke-width:1.33333325"
     d="m 241.97239,195.93053 c 0,-0.208 -0.096,-0.312 -0.28933,-0.312 h -0.57867 c -0.19333,0 -0.29067,0.104 -0.29067,0.312 v 2.80533 c 0,0.208 0.0973,0.312 0.29067,0.312 h 0.57867 c 0.19333,0 0.28933,-0.104 0.28933,-0.312 z m 1.15867,-0.312 v 3.42933 c 0,0.83067 -0.38667,1.24667 -1.15867,1.24667 h -1.15867 c -0.772,0 -1.15733,-0.416 -1.15733,-1.24667 v -3.42933 c 0,-0.83067 0.38533,-1.24667 1.15733,-1.24667 h 1.15867 c 0.772,0 1.15867,0.416 1.15867,1.24667 m 0.28933,0 c 0,-1.03867 -0.48267,-1.55867 -1.448,-1.55867 h -1.15867 c -0.964,0 -1.44666,0.52 -1.44666,1.55867 v 3.42933 c 0,1.03867 0.48266,1.55867 1.44666,1.55867 h 1.15867 c 0.96533,0 1.448,-0.52 1.448,-1.55867 z m 1.15733,0 v 3.42933 c 0,1.87067 -0.868,2.80534 -2.60533,2.80534 h -1.15867 c -1.736,0 -2.60533,-0.93467 -2.60533,-2.80534 v -3.42933 c 0,-1.87067 0.86933,-2.80533 2.60533,-2.80533 h 1.15867 c 1.73733,0 2.60533,0.93466 2.60533,2.80533"
     inkscape:connector-curvature="0" /><path
     id="path148"
     style="fill:#0000ff;fill-opacity:1;fill-rule:nonzero;stroke:none;stroke-width:1.33333325"
     d="m 195.6504,199.04787 c -0.19333,0 -0.28933,-0.104 -0.28933,-0.312 v -5.92267 h -2.60534 v 6.23467 c 0,1.87067 0.868,2.80533 2.60534,2.80533 h 3.47466 v -2.80533 z"
     inkscape:connector-curvature="0" /><path
     inkscape:connector-curvature="0"
     d="m 199.41333,201.85333 h 2.60533 v -9.04 h -2.60533 z"
     style="fill:#0000ff;fill-opacity:1;fill-rule:nonzero;stroke:none;stroke-width:1.33333325"
     id="path150" /><path
     id="path154"
     style="fill:#0000ff;fill-opacity:1;fill-rule:nonzero;stroke:none;stroke-width:1.33333325"
     d="m 206.36199,195.93053 h -1.15867 v -0.312 h 1.15867 c 0.19333,0 0.28933,0.052 0.28933,0.156 0,0.104 -0.096,0.156 -0.28933,0.156 m 0,3.11733 h -1.15867 v -0.312 h 1.15867 c 0.19333,0 0.28933,0.052 0.28933,0.156 0,0.104 -0.096,0.156 -0.28933,0.156 m 2.89467,-3.27333 c 0,-0.81067 -0.268,-1.50667 -0.80534,-2.088 -0.53733,-0.58267 -1.13733,-0.87333 -1.8,-0.87333 h -4.05333 v 9.04 h 4.05333 c 0.66267,0 1.26267,-0.29067 1.8,-0.872 0.53734,-0.58267 0.80534,-1.27867 0.80534,-2.08934 0,-0.58933 -0.132,-1.10533 -0.39467,-1.548 0.26267,-0.444 0.39467,-0.96666 0.39467,-1.56933"
     inkscape:connector-curvature="0" /><path
     id="path158"
     style="fill:#262626;fill-opacity:1;fill-rule:nonzero;stroke:none;stroke-width:1.33333325"
     d="M 84.955998,197.33333 V 107.768 l 4.557333,-5.16667 h 6.486667 v 83.536 z"
     inkscape:connector-curvature="0" /><path
     id="path162"
     style="fill:#0000ff;fill-opacity:1;fill-rule:nonzero;stroke:none;stroke-width:1.33333325"
     d="m 69.704665,101.33334 v 28.07467 l 26.294666,25.492 v -26.18 z"
     inkscape:connector-curvature="0" /><path
     id="path166"
     style="fill:#0000ff;fill-opacity:1;fill-rule:nonzero;stroke:none;stroke-width:1.33333325"
     d="m 69.704665,129.4084 26.294666,25.492 V 128.71907 L 69.704665,101.33373 Z m 0.350667,-0.144 v -27.064 l 25.593332,26.656 v 25.22 z"
     inkscape:connector-curvature="0" /><path
     id="path170"
     style="fill:#ffffff;fill-opacity:1;fill-rule:nonzero;stroke:none;stroke-width:1.33333325"
     d="m 79.287865,119.3484 -6.428,-6.24 v 12.516 l 4.792,3.78933 -4.792,3.56 v 12.97467 l 6.428,-6.27867 z"
     inkscape:connector-curvature="0" /><path
     id="path174"
     style="fill:#262626;fill-opacity:1;fill-rule:nonzero;stroke:none;stroke-width:1.33333325"
     d="m 79.112665,139.5984 v -20.17733 l -6.077333,-5.9 v 12.02 l 4.901333,3.87733 -4.901333,3.64 v 12.476 z m 0.350667,-20.32133 v 20.464 l -6.778667,6.62133 v -13.47467 l 4.682667,-3.47866 -4.682667,-3.70267 v -13.01067 z"
     inkscape:connector-curvature="0" /><path
     id="path178"
     style="fill:#ffffff;fill-opacity:1;fill-rule:nonzero;stroke:none;stroke-width:1.33333325"
     d="m 80.339731,120.36947 v 18.27333 l 2.512,-2.45466 10.810666,11.13866 v -12.74666 l -5.96,-5.16667 5.96,-5.052 V 111.2708 l -10.985333,11.368 z"
     inkscape:connector-curvature="0" /><path
     id="path182"
     style="fill:#262626;fill-opacity:1;fill-rule:nonzero;stroke:none;stroke-width:1.33333325"
     d="m 93.487464,124.28214 v -12.58 l -10.806666,11.18267 -2.165334,-2.10267 v 17.44667 l 2.34,-2.28667 10.632,10.95467 v -12.23867 l -6.052,-5.24667 z m 0.350667,-13.44267 v 13.6 l -0.06133,0.052 -5.808,4.92267 5.869334,5.08933 v 13.25334 l -10.989333,-11.32267 -2.684,2.62267 v -19.1 l 2.508,2.436 z"
     inkscape:connector-curvature="0" /><path
     id="path186"
     style="fill:#ffffff;fill-opacity:1;fill-rule:nonzero;stroke:none;stroke-width:1.33333325"
     d="m 78.459198,186.03973 -0.3,-0.44933 c 0.110667,-0.20134 0.166667,-0.41467 0.166667,-0.64 0,-0.12534 -0.128,-0.35867 -0.382667,-0.696 -0.257333,-0.33867 -0.54,-0.832 -0.852,-1.48534 -0.312,-0.65066 -0.596,-1.48533 -0.852,-2.50133 -0.256,-1.01333 -0.384,-2.24933 -0.384,-3.704 0,-0.97733 0.088,-1.96 0.266667,-2.95067 0.178666,-0.99066 0.461333,-1.89333 0.852,-2.708 0.389333,-0.816 0.890666,-1.47733 1.502666,-1.992 0.613334,-0.51333 1.352,-0.77066 2.221334,-0.77066 0.801333,0 1.542666,0.26266 2.22,0.78933 0.68,0.52667 1.109333,1.24 1.286666,2.14267 h 0.06667 c 0.224,-1.07734 0.662667,-1.96134 1.318666,-2.65067 0.657334,-0.688 1.486667,-1.03467 2.488,-1.03467 1.136,0 2.072,0.31867 2.806667,0.95867 0.734667,0.63867 1.32,1.43467 1.753333,2.38933 0.433334,0.952 0.724,1.99867 0.868,3.13867 0.144,1.14133 0.217334,2.212 0.217334,3.21467 0,1.12933 -0.09467,2.18133 -0.284,3.16 -0.188,0.97733 -0.412,1.84133 -0.668,2.59466 -0.256,0.75067 -0.489334,1.372 -0.701334,1.86 -0.210666,0.49067 -0.317333,0.83467 -0.317333,1.03467 0,0.12533 0.02267,0.23333 0.06667,0.32 0.04533,0.0867 0.09067,0.18133 0.133333,0.28133 l -0.1,0.33867 -4.808,-2.18133 0.2,-0.412 c 0.044,0.024 0.121333,0.036 0.233333,0.036 h 0.233334 c 0.512,0 0.969333,-0.27467 1.370666,-0.828 0.4,-0.55067 0.74,-1.208 1.017334,-1.97334 0.278666,-0.764 0.490666,-1.56666 0.634666,-2.40666 0.145334,-0.83867 0.217334,-1.54667 0.217334,-2.124 0,-0.452 -0.03733,-0.984 -0.117334,-1.59867 -0.07733,-0.61333 -0.217333,-1.19067 -0.417333,-1.72933 -0.2,-0.53867 -0.472,-0.996 -0.817333,-1.372 -0.345334,-0.37734 -0.796,-0.564 -1.353334,-0.564 -0.534666,0 -0.962666,0.18133 -1.286666,0.54533 -0.321334,0.36267 -0.573334,0.808 -0.750667,1.33467 -0.178667,0.52533 -0.294667,1.084 -0.350667,1.67333 -0.056,0.58933 -0.08267,1.096 -0.08267,1.52267 0,0.60133 0.04933,1.12133 0.149333,1.56 0.1,0.44 0.350667,0.73333 0.750667,0.884 v 0.45066 h -4.541333 v -0.45066 c 0.445333,-0.0493 0.741333,-0.32 0.885333,-0.808 0.145333,-0.49067 0.217333,-1.03467 0.217333,-1.636 0,-0.40134 -0.03467,-0.86534 -0.101333,-1.39067 -0.06667,-0.52667 -0.188,-1.02267 -0.366667,-1.48667 -0.177333,-0.46266 -0.422666,-0.85733 -0.734666,-1.184 -0.312,-0.32533 -0.701334,-0.488 -1.169334,-0.488 -0.445333,0 -0.806666,0.144 -1.085333,0.432 -0.277333,0.28667 -0.494667,0.664 -0.652,1.128 -0.154667,0.46267 -0.26,0.97734 -0.316,1.54134 -0.056,0.564 -0.084,1.13466 -0.084,1.71066 0,0.676 0.06667,1.36667 0.201333,2.06934 0.133334,0.7 0.310667,1.34 0.533334,1.91733 0.222666,0.576 0.468,1.052 0.734666,1.428 0.266667,0.37733 0.534667,0.56533 0.801334,0.56533 0.08933,0 0.196,-0.0133 0.317333,-0.0387 0.122667,-0.024 0.24,-0.0627 0.350667,-0.11334 l 0.2,0.33867 z"
     inkscape:connector-curvature="0" /><path
     id="path190"
     style="fill:#262626;fill-opacity:1;fill-rule:nonzero;stroke:none;stroke-width:1.33333325"
     d="m 88.078264,167.07293 c -1.088,0 -2.004,0.38133 -2.724,1.13467 -0.490667,0.516 -0.870667,1.13866 -1.133333,1.86133 -0.252,-0.548 -0.62,-1.012 -1.104,-1.38533 -0.732,-0.56934 -1.546667,-0.85734 -2.42,-0.85734 -0.941333,0 -1.758667,0.284 -2.429333,0.84667 -0.646667,0.54133 -1.18,1.248 -1.585334,2.09867 -0.398666,0.82933 -0.693333,1.76666 -0.877333,2.78533 -0.181333,1.00267 -0.272,2.01467 -0.272,3.00667 0,1.47466 0.132,2.74666 0.393333,3.78133 0.26,1.032 0.554667,1.89333 0.872,2.55867 0.326667,0.68133 0.616,1.184 0.886667,1.54 0.289333,0.384 0.317333,0.50666 0.32,0.51866 -0.0013,0.15867 -0.044,0.324 -0.129333,0.476 l -0.092,0.16667 0.105333,0.15867 0.301333,0.44933 0.205334,0.30933 0.278666,-0.24666 3.408,-3.008 0.194667,-0.172 -0.132,-0.22267 -0.2,-0.33867 -0.146667,-0.24933 -0.266667,0.12133 c -0.09067,0.04 -0.185333,0.0707 -0.279999,0.0907 -0.09733,0.0187 -0.182667,0.0307 -0.253334,0.0307 -0.150666,0 -0.341333,-0.152 -0.538666,-0.428 -0.249334,-0.35334 -0.484,-0.812 -0.696,-1.36134 -0.214667,-0.556 -0.389334,-1.18266 -0.518667,-1.86266 -0.129333,-0.67734 -0.196,-1.35334 -0.196,-2.01067 0,-0.55867 0.028,-1.124 0.08267,-1.68 0.05333,-0.536 0.154666,-1.032 0.302666,-1.47333 0.14,-0.41734 0.334667,-0.756 0.578667,-1.00934 0.216,-0.224 0.494667,-0.332 0.852,-0.332 0.378667,0 0.684,0.12667 0.933333,0.388 0.281333,0.29334 0.506667,0.656 0.669333,1.07867 0.168,0.43867 0.285334,0.91333 0.348,1.41333 0.06533,0.51467 0.09867,0.96934 0.09867,1.352 0,0.56934 -0.06933,1.08934 -0.205333,1.54667 -0.138667,0.472 -0.4,0.55867 -0.610667,0.58267 l -0.286667,0.0307 v 0.284 0.45067 0.31733 h 0.322667 4.541333 0.322667 v -0.31733 -0.45067 -0.21866 l -0.208,-0.0773 c -0.3,-0.112 -0.474667,-0.32133 -0.552,-0.65733 -0.09333,-0.416 -0.141333,-0.91733 -0.141333,-1.49067 0,-0.41866 0.028,-0.92133 0.08133,-1.49333 0.05333,-0.56267 0.166667,-1.10267 0.336,-1.60267 0.162667,-0.484 0.394667,-0.896 0.688,-1.22666 0.261333,-0.29334 0.602667,-0.436 1.042667,-0.436 0.466666,0 0.832,0.14933 1.114666,0.45866 0.314667,0.34267 0.568,0.76934 0.754667,1.26934 0.192,0.516 0.326667,1.07466 0.4,1.65866 0.076,0.59334 0.114667,1.11734 0.114667,1.56 0,0.56 -0.072,1.256 -0.213334,2.07067 -0.14,0.81733 -0.348,1.60933 -0.62,2.35333 -0.265333,0.73334 -0.593333,1.37067 -0.976,1.896 -0.34,0.468 -0.702666,0.696 -1.108,0.696 h -0.233333 c -0.07467,0 -0.1,-0.007 -0.101333,-0.008 l -0.3,-0.16266 -0.124,0.31466 -0.2,0.41334 -0.14,0.288 0.296,0.13466 4.808,2.18 0.34,0.15467 0.104,-0.35333 0.101333,-0.33734 0.032,-0.10933 -0.04533,-0.104 c -0.04667,-0.10667 -0.09333,-0.208 -0.141334,-0.3 -0.02133,-0.0413 -0.032,-0.10133 -0.032,-0.17733 0,-0.0867 0.03733,-0.32267 0.290667,-0.91067 0.212,-0.48933 0.452,-1.12267 0.710667,-1.884 0.26,-0.76267 0.489333,-1.64933 0.678666,-2.636 0.193334,-0.99467 0.290667,-2.07733 0.290667,-3.21867 0,-1.00266 -0.07467,-2.09733 -0.22,-3.25333 -0.146667,-1.16267 -0.448,-2.24933 -0.894667,-3.22933 -0.448,-0.988 -1.065333,-1.828 -1.833333,-2.49734 -0.790667,-0.688 -1.808,-1.03733 -3.02,-1.03733 m 0,0.316 c 1.136,0 2.070667,0.31867 2.806667,0.95867 0.733333,0.64 1.318666,1.43466 1.753333,2.38933 0.433333,0.952 0.724,1.99867 0.868,3.13867 0.144,1.14133 0.217333,2.212 0.217333,3.21466 0,1.12934 -0.09467,2.18134 -0.284,3.16 -0.189333,0.97734 -0.412,1.84134 -0.668,2.59467 -0.256,0.75067 -0.489333,1.372 -0.701333,1.86 -0.210667,0.49067 -0.317333,0.83467 -0.317333,1.03467 0,0.12533 0.02133,0.23333 0.06667,0.32 0.04533,0.0867 0.08933,0.18266 0.133334,0.28133 l -0.101334,0.33867 -4.808,-2.18 0.2,-0.41334 c 0.04533,0.024 0.122667,0.036 0.234667,0.036 h 0.233333 c 0.512,0 0.969334,-0.27466 1.369334,-0.828 0.401333,-0.55066 0.741333,-1.208 1.018666,-1.97333 0.278667,-0.764 0.490667,-1.56667 0.634667,-2.40667 0.145333,-0.83866 0.217333,-1.54666 0.217333,-2.124 0,-0.45066 -0.03867,-0.984 -0.117333,-1.59866 -0.07733,-0.61334 -0.217333,-1.19067 -0.417333,-1.72934 -0.201334,-0.53866 -0.473334,-0.996 -0.817334,-1.372 -0.345333,-0.37733 -0.797333,-0.564 -1.354666,-0.564 -0.533334,0 -0.961334,0.18134 -1.285334,0.54534 -0.321333,0.36266 -0.573333,0.808 -0.752,1.33466 -0.177333,0.52534 -0.294666,1.084 -0.349333,1.67334 -0.056,0.58933 -0.084,1.096 -0.084,1.52266 0,0.60134 0.05067,1.12134 0.149333,1.56 0.101334,0.44 0.350667,0.73334 0.752,0.884 v 0.45067 h -4.541333 v -0.45067 c 0.445333,-0.0493 0.74,-0.32 0.884,-0.808 0.145333,-0.49066 0.217333,-1.03466 0.217333,-1.636 0,-0.40133 -0.03333,-0.864 -0.1,-1.39066 -0.06667,-0.52667 -0.189333,-1.02267 -0.366666,-1.48534 -0.178667,-0.464 -0.422667,-0.85866 -0.736,-1.18533 -0.310667,-0.32533 -0.701333,-0.488 -1.168,-0.488 -0.446667,0 -0.808,0.144 -1.086667,0.432 -0.277333,0.288 -0.494666,0.664 -0.650666,1.128 -0.154667,0.46267 -0.261334,0.97733 -0.316,1.54133 -0.056,0.564 -0.08533,1.13467 -0.08533,1.71067 0,0.67733 0.06667,1.36667 0.201334,2.06933 0.133333,0.7 0.312,1.34 0.534666,1.91734 0.222667,0.576 0.466667,1.052 0.733334,1.42933 0.268,0.376 0.536,0.564 0.802666,0.564 0.08933,0 0.194667,-0.0133 0.317334,-0.0387 0.122666,-0.024 0.239999,-0.0627 0.350666,-0.11333 l 0.2,0.33867 -3.406666,3.008 -0.301334,-0.44934 c 0.112,-0.20133 0.168,-0.41466 0.168,-0.64 0,-0.12533 -0.128,-0.35733 -0.384,-0.696 -0.256,-0.33866 -0.538666,-0.832 -0.852,-1.48533 -0.310666,-0.65067 -0.594666,-1.48533 -0.852,-2.5 -0.254666,-1.01467 -0.382666,-2.24933 -0.382666,-3.70533 0,-0.97734 0.088,-1.96 0.266666,-2.95067 0.178667,-0.99067 0.461334,-1.89333 0.852,-2.70667 0.389334,-0.81733 0.889334,-1.47866 1.502667,-1.99333 0.613333,-0.51333 1.352,-0.77067 2.22,-0.77067 0.802666,0 1.542666,0.26267 2.221333,0.78934 0.68,0.52666 1.109333,1.24 1.286667,2.14266 h 0.06667 c 0.222667,-1.07733 0.661334,-1.96133 1.318667,-2.65066 0.657333,-0.688 1.486667,-1.03467 2.488,-1.03467"
     inkscape:connector-curvature="0" /><path
     id="path194"
     style="fill:#ffffff;fill-opacity:1;fill-rule:nonzero;stroke:none;stroke-width:1.33333325"
     d="m 94.056664,147.58413 v 0.45333 c -0.244,0 -0.377333,0.11867 -0.4,0.35467 -0.02267,0.23867 -0.03333,0.496 -0.03333,0.77067 v 15.83333 c 0,0.276 0.016,0.49867 0.05067,0.676 0.032,0.17467 0.149334,0.264 0.350667,0.264 v 0.44933 h -1.202667 c -1.18,0 -2.193333,-0.33066 -3.04,-0.99466 -0.846666,-0.664 -1.590666,-1.49867 -2.237333,-2.50267 -0.645333,-1.00133 -1.214666,-2.07733 -1.702666,-3.232 -0.489334,-1.15333 -0.974667,-2.23067 -1.453334,-3.23467 -0.478666,-1.00266 -0.974666,-1.836 -1.486666,-2.5 -0.512,-0.664 -1.113334,-0.99733 -1.804,-0.99733 -0.466667,0 -0.852,0.12 -1.152,0.35867 -0.3,0.23866 -0.545334,0.544 -0.734667,0.92 -0.189333,0.37733 -0.317333,0.79066 -0.384,1.24 -0.06667,0.45333 -0.1,0.89066 -0.1,1.316 0,0.428 0.06667,0.95466 0.201333,1.58133 0.132,0.62533 0.332,1.228 0.6,1.80267 0.268,0.57866 0.584,1.07466 0.952,1.488 0.368,0.412 0.785334,0.61733 1.252,0.61733 0.112,0 0.256,-0.0307 0.433334,-0.092 0.18,-0.064 0.302666,-0.14267 0.369333,-0.244 l 0.233333,0.376 -3.674666,3.87067 -0.233334,-0.37334 c 0.044,-0.1 0.08933,-0.20133 0.134667,-0.30266 0.044,-0.0973 0.06533,-0.21067 0.06533,-0.336 0,-0.15067 -0.166666,-0.42934 -0.501333,-0.82934 -0.333333,-0.40133 -0.701333,-0.952 -1.101333,-1.65333 -0.401334,-0.70267 -0.768,-1.57867 -1.102667,-2.63067 -0.334667,-1.056 -0.5,-2.308 -0.5,-3.76133 0,-0.95467 0.09867,-1.888 0.3,-2.80267 0.2,-0.916 0.518667,-1.72933 0.952,-2.44266 0.434667,-0.716 0.990667,-1.292 1.669333,-1.732 0.68,-0.43734 1.509334,-0.65734 2.489334,-0.65734 1.046666,0 1.914666,0.22534 2.605333,0.676 0.689333,0.452 1.274667,1.04934 1.752,1.78667 0.48,0.74133 0.885333,1.57333 1.22,2.5 0.333333,0.928 0.662666,1.876 0.985333,2.84 0.322667,0.964 0.662667,1.89467 1.018667,2.78133 0.356,0.89067 0.813333,1.67467 1.369333,2.35067 h 0.333333 V 149.1628 c 0,-0.27467 -0.044,-0.532 -0.133333,-0.77067 -0.08933,-0.236 -0.356,-0.35467 -0.801333,-0.35467 v -0.45333 z"
     inkscape:connector-curvature="0" /><path
     id="path198"
     style="fill:#262626;fill-opacity:1;fill-rule:nonzero;stroke:none;stroke-width:1.33333325"
     d="m 94.378931,147.26747 h -0.322667 -4.441333 -0.321333 v 0.316 0.45333 0.31734 h 0.321333 c 0.133333,0 0.449333,0.0147 0.5,0.14933 0.07467,0.20133 0.113333,0.424 0.113333,0.66 v 11.904 c -0.428,-0.57867 -0.790666,-1.23733 -1.081333,-1.96133 -0.345333,-0.86134 -0.686667,-1.792 -1.012,-2.76534 -0.324,-0.96533 -0.653333,-1.916 -0.988,-2.84666 -0.341333,-0.94667 -0.762666,-1.81067 -1.250666,-2.564 -0.501334,-0.77334 -1.122667,-1.40534 -1.846667,-1.88 -0.742667,-0.48534 -1.68,-0.72934 -2.784,-0.72934 -1.037333,0 -1.933333,0.23867 -2.665333,0.70934 -0.718667,0.46533 -1.313334,1.08266 -1.770667,1.83466 -0.450667,0.74134 -0.782667,1.59467 -0.989333,2.53734 -0.204,0.928 -0.306667,1.89466 -0.306667,2.86933 0,1.48 0.172,2.77733 0.514667,3.856 0.338666,1.06533 0.717333,1.97067 1.128,2.692 0.409333,0.716 0.790666,1.28667 1.134666,1.69867 0.398667,0.47866 0.428,0.632 0.428,0.63866 0,0.072 -0.01333,0.14134 -0.03867,0.196 l -0.136,0.30667 -0.06667,0.152 0.088,0.14 0.233333,0.37333 0.222667,0.35467 0.288,-0.304 3.674667,-3.87067 0.166666,-0.176 -0.126666,-0.20533 -0.234667,-0.376 -0.266667,-0.43067 -0.278666,0.42267 c -0.0093,0.0133 -0.05067,0.064 -0.208,0.12 -0.184,0.0627 -0.281334,0.072 -0.322667,0.072 -0.374667,0 -0.705333,-0.16667 -1.010667,-0.50933 -0.344,-0.38667 -0.646666,-0.86134 -0.901333,-1.41067 -0.254667,-0.548 -0.449333,-1.132 -0.578667,-1.736 -0.128,-0.60133 -0.193333,-1.11067 -0.193333,-1.51733 0,-0.404 0.032,-0.832 0.09733,-1.27067 0.06133,-0.41467 0.18,-0.79867 0.353334,-1.144 0.169333,-0.336 0.381333,-0.60267 0.648,-0.81467 0.244,-0.19333 0.554666,-0.288 0.950666,-0.288 0.588,0 1.093334,0.28534 1.546667,0.872 0.498667,0.64667 0.986667,1.46934 1.450667,2.444 0.486666,1.01867 0.973333,2.104 1.448,3.22134 0.493333,1.16266 1.074666,2.26666 1.728,3.28 0.665333,1.032 1.442666,1.90133 2.309333,2.58 0.9,0.70666 1.989333,1.064 3.24,1.064 h 1.202666 0.322667 v -0.316 -0.45067 -0.316 h -0.322667 c -0.064,-0.16 -0.07867,-0.368 -0.07867,-0.62267 v -15.83333 c 0,-0.26533 0.01067,-0.512 0.032,-0.74133 h 0.322666 l 0.07867,-0.38534 v -0.45333 z m -0.322667,0.316 v 0.45333 c -0.244,0 -0.377333,0.12 -0.398666,0.35467 -0.024,0.23867 -0.03467,0.496 -0.03467,0.772 v 15.83333 c 0,0.27467 0.016,0.49867 0.05067,0.676 0.032,0.17467 0.149333,0.26267 0.350666,0.26267 v 0.45067 h -1.202666 c -1.18,0 -2.192,-0.33067 -3.038667,-0.99467 -0.846667,-0.664 -1.592,-1.5 -2.238666,-2.504 -0.645334,-1 -1.213334,-2.07733 -1.702667,-3.23067 -0.489333,-1.15466 -0.974667,-2.23066 -1.453333,-3.23466 -0.478667,-1.004 -0.974667,-1.836 -1.486667,-2.5 -0.512,-0.664 -1.113333,-0.99867 -1.802667,-0.99867 -0.468,0 -0.852,0.12 -1.153333,0.35867 -0.3,0.23866 -0.544,0.54533 -0.734667,0.92133 -0.189333,0.376 -0.317333,0.78933 -0.384,1.23867 -0.06667,0.45333 -0.1,0.89066 -0.1,1.316 0,0.42933 0.06667,0.95466 0.201334,1.58266 0.133333,0.624 0.333333,1.22667 0.6,1.80267 0.268,0.57733 0.585333,1.07333 0.952,1.48667 0.368,0.41333 0.785333,0.61866 1.253333,0.61866 0.110667,0 0.254667,-0.0307 0.433333,-0.092 0.178667,-0.064 0.301334,-0.144 0.368,-0.24533 l 0.233334,0.37733 -3.674667,3.87067 -0.233333,-0.37333 c 0.04533,-0.10134 0.08933,-0.20267 0.134666,-0.30267 0.044,-0.0987 0.06667,-0.212 0.06667,-0.33733 0,-0.14934 -0.168,-0.428 -0.501333,-0.82934 -0.334667,-0.4 -0.701334,-0.952 -1.102667,-1.652 -0.401333,-0.704 -0.768,-1.57866 -1.102667,-2.632 -0.333333,-1.056 -0.5,-2.30666 -0.5,-3.76133 0,-0.95467 0.1,-1.888 0.301334,-2.80267 0.198666,-0.91466 0.517333,-1.72933 0.950666,-2.44133 0.434667,-0.71733 0.990667,-1.292 1.670667,-1.73333 0.678667,-0.43734 1.508,-0.65734 2.488,-0.65734 1.046667,0 1.914667,0.22667 2.605333,0.676 0.690667,0.45334 1.274667,1.04934 1.753334,1.788 0.48,0.74 0.884,1.572 1.218666,2.5 0.334667,0.92667 0.662667,1.876 0.985333,2.84 0.324,0.964 0.662667,1.89334 1.018667,2.78134 0.357333,0.89066 0.813333,1.67333 1.369333,2.35066 h 0.334667 v -12.40933 c 0,-0.276 -0.04533,-0.53333 -0.133333,-0.772 -0.09067,-0.23467 -0.356,-0.35467 -0.802667,-0.35467 v -0.45333 h 4.441333"
     inkscape:connector-curvature="0" /><path
     id="path202"
     style="fill:#262626;fill-opacity:1;fill-rule:nonzero;stroke:none;stroke-width:1.33333325"
     d="m 71.772398,177.92347 c 0,-0.22267 -0.01733,-0.408 -0.052,-0.55733 -0.03467,-0.148 -0.084,-0.26667 -0.146667,-0.35334 -0.06267,-0.0867 -0.137333,-0.148 -0.222666,-0.18533 -0.084,-0.0373 -0.177334,-0.056 -0.278667,-0.056 -0.1,0 -0.193333,0.0187 -0.278667,0.056 -0.08533,0.0373 -0.158666,0.0987 -0.221333,0.18533 -0.064,0.0867 -0.112,0.20534 -0.146667,0.35334 -0.03467,0.14933 -0.052,0.33466 -0.052,0.55733 v 1.60667 h 1.398667 z m -2.212,-0.24133 c 0,-0.29734 0.02667,-0.56667 0.08,-0.808 0.05333,-0.24134 0.138667,-0.44934 0.254667,-0.62267 0.117333,-0.17333 0.269333,-0.30667 0.454666,-0.4 0.186667,-0.092 0.414667,-0.13867 0.685334,-0.13867 0.416,0 0.734666,0.12134 0.954666,0.36267 0.221334,0.24133 0.369334,0.56667 0.444,0.97467 l 1.796,-1.23467 c 0.064,-0.044 0.101334,-0.0947 0.113334,-0.15333 0.01333,-0.0587 0.02,-0.11334 0.02,-0.16267 h 0.169333 v 1.736 h -0.169333 c 0,-0.0547 -0.01067,-0.10267 -0.02933,-0.144 -0.01867,-0.04 -0.044,-0.06 -0.076,-0.06 -0.03067,0 -0.06667,0.0133 -0.108,0.0373 -0.04133,0.0253 -0.096,0.0627 -0.165333,0.112 l -1.474667,1.02134 v 1.328 h 1.682667 c 0.05733,0 0.09867,-0.02 0.128,-0.06 0.028,-0.04 0.04267,-0.11334 0.04267,-0.21867 h 0.169333 v 1.60667 h -0.169333 c 0,-0.17867 -0.05733,-0.26934 -0.170667,-0.26934 h -4.292 c -0.113333,0 -0.170667,0.0907 -0.170667,0.26934 h -0.169333 z"
     inkscape:connector-curvature="0" /><path
     id="path206"
     style="fill:#262626;fill-opacity:1;fill-rule:nonzero;stroke:none;stroke-width:1.33333325"
     d="m 70.581198,169.50893 c -0.06933,0 -0.121333,0.0267 -0.156,0.0787 -0.03467,0.0533 -0.052,0.144 -0.052,0.27466 v 3.00934 h 1.172 v -1.82134 c 0,-0.124 -0.01733,-0.21866 -0.052,-0.288 -0.03467,-0.068 -0.124,-0.10133 -0.269333,-0.10133 v -0.168 h 1.474666 v 0.168 c -0.144,0 -0.237333,0.0333 -0.278666,0.10133 -0.04133,0.0693 -0.06133,0.164 -0.06133,0.288 v 1.82134 h 1.304 v -3.10267 c 0,-0.0933 -0.02133,-0.168 -0.06533,-0.228 -0.044,-0.0587 -0.104,-0.088 -0.18,-0.088 v -0.16667 h 1.294667 v 0.16667 c -0.09467,0 -0.148,0.0293 -0.16,0.088 -0.01333,0.06 -0.01867,0.13467 -0.01867,0.228 v 4.328 h -0.170667 c 0,-0.0427 -0.01467,-0.0813 -0.04267,-0.116 -0.028,-0.0333 -0.07067,-0.0507 -0.128,-0.0507 h -4.290667 c -0.05733,0 -0.1,0.0173 -0.128,0.0507 -0.028,0.0347 -0.04267,0.0733 -0.04267,0.116 h -0.170666 v -4.23467 c 0,-0.13066 -0.02,-0.22133 -0.06133,-0.27466 -0.04,-0.052 -0.096,-0.0787 -0.165333,-0.0787 v -0.16667 h 1.248 z"
     inkscape:connector-curvature="0" /><path
     id="path210"
     style="fill:#262626;fill-opacity:1;fill-rule:nonzero;stroke:none;stroke-width:1.33333325"
     d="m 74.192265,165.3384 c 0.113333,0 0.170667,-0.068 0.170667,-0.204 h 0.169333 v 1.43067 h -0.169333 c 0,-0.044 -0.01467,-0.0827 -0.04267,-0.11734 -0.02933,-0.0333 -0.07067,-0.0507 -0.128,-0.0507 h -3.762667 v 1.53333 c 0,0.056 0.016,0.10933 0.048,0.16133 0.03067,0.0533 0.09067,0.08 0.18,0.08 v 0.16667 h -1.324 v -0.16667 c 0.088,0 0.148,-0.0267 0.18,-0.08 0.03067,-0.052 0.04667,-0.10533 0.04667,-0.16133 v -4.124 c 0,-0.056 -0.016,-0.11067 -0.04667,-0.16267 -0.032,-0.0533 -0.092,-0.0787 -0.18,-0.0787 v -0.168 h 1.324 v 0.168 c -0.08933,0 -0.149333,0.0253 -0.18,0.0787 -0.032,0.052 -0.048,0.10667 -0.048,0.16267 v 1.532 z"
     inkscape:connector-curvature="0" /><path
     id="path214"
     style="fill:#262626;fill-opacity:1;fill-rule:nonzero;stroke:none;stroke-width:1.33333325"
     d="m 71.772398,159.34787 c 0,-0.22267 -0.01733,-0.408 -0.052,-0.55733 -0.03467,-0.148 -0.084,-0.26667 -0.146667,-0.35334 -0.06267,-0.0867 -0.137333,-0.148 -0.222666,-0.18533 -0.084,-0.0373 -0.177334,-0.056 -0.278667,-0.056 -0.1,0 -0.193333,0.0187 -0.278667,0.056 -0.08533,0.0373 -0.158666,0.0987 -0.221333,0.18533 -0.064,0.0867 -0.112,0.20534 -0.146667,0.35334 -0.03467,0.14933 -0.052,0.33466 -0.052,0.55733 v 1.60667 h 1.398667 z m -2.212,-0.24133 c 0,-0.29734 0.02667,-0.56667 0.08,-0.808 0.05333,-0.24134 0.138667,-0.44934 0.254667,-0.62267 0.117333,-0.17333 0.269333,-0.30667 0.454666,-0.4 0.186667,-0.092 0.414667,-0.13867 0.685334,-0.13867 0.416,0 0.734666,0.12134 0.954666,0.36267 0.221334,0.24133 0.369334,0.56667 0.444,0.97467 l 1.796,-1.23467 c 0.064,-0.044 0.101334,-0.0947 0.113334,-0.15333 0.01333,-0.0587 0.02,-0.11334 0.02,-0.16267 h 0.169333 v 1.736 h -0.169333 c 0,-0.0547 -0.01067,-0.10267 -0.02933,-0.144 -0.01867,-0.04 -0.044,-0.06 -0.076,-0.06 -0.03067,0 -0.06667,0.0133 -0.108,0.0373 -0.04133,0.0253 -0.096,0.0627 -0.165333,0.112 l -1.474667,1.02134 v 1.328 h 1.682667 c 0.05733,0 0.09867,-0.02 0.128,-0.06 0.028,-0.04 0.04267,-0.11334 0.04267,-0.21867 h 0.169333 v 1.60667 h -0.169333 c 0,-0.17867 -0.05733,-0.26934 -0.170667,-0.26934 h -4.292 c -0.113333,0 -0.170667,0.0907 -0.170667,0.26934 h -0.169333 z"
     inkscape:connector-curvature="0" /><path
     id="path218"
     style="fill:#262626;fill-opacity:1;fill-rule:nonzero;stroke:none;stroke-width:1.33333325"
     d="m 70.373465,152.7068 c 0,0.236 0.03733,0.47067 0.113333,0.70533 0.076,0.236 0.184,0.448 0.325334,0.63734 0.142666,0.188 0.317333,0.34133 0.525333,0.45866 0.208,0.11867 0.444,0.17734 0.709333,0.17734 0.264,0 0.501334,-0.0587 0.709334,-0.17734 0.206666,-0.11733 0.382666,-0.27066 0.524,-0.45866 0.141333,-0.18934 0.250666,-0.40134 0.326666,-0.63734 0.07467,-0.23466 0.113334,-0.46933 0.113334,-0.70533 0,-0.236 -0.03867,-0.47067 -0.113334,-0.70533 -0.076,-0.236 -0.185333,-0.448 -0.326666,-0.63734 -0.141334,-0.188 -0.317334,-0.34133 -0.524,-0.45866 -0.208,-0.11867 -0.445334,-0.17734 -0.709334,-0.17734 -0.265333,0 -0.501333,0.0587 -0.709333,0.17734 -0.208,0.11733 -0.382667,0.27066 -0.525333,0.45866 -0.141334,0.18934 -0.249334,0.40134 -0.325334,0.63734 -0.076,0.23466 -0.113333,0.46933 -0.113333,0.70533 m -0.869333,0 c 0,-0.34 0.052,-0.688 0.156,-1.04 0.102666,-0.35333 0.26,-0.67467 0.468,-0.96667 0.206666,-0.29066 0.470666,-0.52933 0.789333,-0.71466 0.317333,-0.18534 0.694667,-0.27867 1.129333,-0.27867 0.434667,0 0.810667,0.0933 1.129334,0.27867 0.318666,0.18533 0.581333,0.424 0.789333,0.71466 0.208,0.292 0.358667,0.61334 0.453333,0.96667 0.09467,0.352 0.142667,0.7 0.142667,1.04 0,0.34 -0.048,0.688 -0.142667,1.04 -0.09467,0.35333 -0.245333,0.67467 -0.453333,0.96667 -0.208,0.29066 -0.470667,0.52933 -0.789333,0.71466 -0.318667,0.18534 -0.694667,0.27867 -1.129334,0.27867 -0.434666,0 -0.812,-0.0933 -1.129333,-0.27867 -0.318667,-0.18533 -0.582667,-0.424 -0.789333,-0.71466 -0.208,-0.292 -0.365334,-0.61334 -0.468,-0.96667 -0.104,-0.352 -0.156,-0.7 -0.156,-1.04"
     inkscape:connector-curvature="0" /><path
     inkscape:connector-curvature="0"
     d="m 93.333331,261.33333 h -2.666667 v -16 h 2.666667 z"
     style="fill:#1a1a1a;fill-opacity:1;fill-rule:nonzero;stroke:none;stroke-width:1.33333325"
     id="path220" /><path
     inkscape:connector-curvature="0"
     d="m 125.33333,261.33333 h -2.66667 v -16 h 2.66667 z"
     style="fill:#1a1a1a;fill-opacity:1;fill-rule:nonzero;stroke:none;stroke-width:1.33333325"
     id="path222" /><path
     inkscape:connector-curvature="0"
     d="m 157.33333,261.33333 h -2.66667 v -16 h 2.66667 z"
     style="fill:#1a1a1a;fill-opacity:1;fill-rule:nonzero;stroke:none;stroke-width:1.33333325"
     id="path224" /><path
     inkscape:connector-curvature="0"
     d="M 186.66666,261.33333 H 184 v -16 h 2.66666 z"
     style="fill:#1a1a1a;fill-opacity:1;fill-rule:nonzero;stroke:none;stroke-width:1.33333325"
     id="path226" /><path
     inkscape:connector-curvature="0"
     d="m 213.33333,261.33333 h -2.66667 v -16 h 2.66667 z"
     style="fill:#1a1a1a;fill-opacity:1;fill-rule:nonzero;stroke:none;stroke-width:1.33333325"
     id="path228" /><path
     inkscape:connector-curvature="0"
     d="m 245.33333,261.33333 h -2.66667 v -16 h 2.66667 z"
     style="fill:#1a1a1a;fill-opacity:1;fill-rule:nonzero;stroke:none;stroke-width:1.33333325"
     id="path230" /><path
     id="path234"
     style="fill:#f39b11;fill-opacity:1;fill-rule:nonzero;stroke:none;stroke-width:1.33333325"
     d="m 125.33333,170.81813 c -8.5,0 -15.41467,7.10933 -15.41467,15.848 0,8.74 6.91467,15.84933 15.41467,15.84933 8.5,0 15.41467,-7.10933 15.41467,-15.84933 0,-8.73867 -6.91467,-15.848 -15.41467,-15.848"
     inkscape:connector-curvature="0" /><path
     id="path238"
     style="fill:#e77f22;fill-opacity:1;fill-rule:nonzero;stroke:none;stroke-width:1.33333325"
     d="m 122.62106,185.304 c 0,0 -11.168,-5.54 -11.02533,-5.82 0.14266,-0.28133 1.588,-2.55733 1.588,-2.55733 l 7.032,5.44933 0.29466,-0.55467 -5.852,-6.576 1.10267,-0.99066 7.44933,9.03066 z"
     inkscape:connector-curvature="0" /><path
     id="path242"
     style="fill:#d4a600;fill-opacity:1;fill-rule:nonzero;stroke:none;stroke-width:1.33333325"
     d="m 116.7392,173.51613 4.508,6.55333 2.86133,-0.93333 -1.28933,-8.10667 -2.39467,0.61334 1.75467,6.04 -0.736,0.252 -3.40267,-5.228 z"
     inkscape:connector-curvature="0" /><path
     id="path246"
     style="fill:#d35400;fill-opacity:1;fill-rule:nonzero;stroke:none;stroke-width:1.33333325"
     d="m 125.91013,182.72987 c 0.24533,-0.55467 3.916,-11.22667 4.09467,-11.168 0.17733,0.06 0.808,0.292 0.808,0.292 0,0 -1.80934,3.58133 -1.61334,3.696 0.196,0.11333 0.392,0.44533 0.392,0.44533 l 2.428,-3.60666 1.71334,0.996 -2.92,3.76133 1.96933,2.93467 4.86667,-2.93467 1.56533,2.63333 -10.89867,4.16267 z"
     inkscape:connector-curvature="0" /><path
     id="path250"
     style="fill:#d35400;fill-opacity:1;fill-rule:nonzero;stroke:none;stroke-width:1.33333325"
     d="m 139.44413,193.04173 -4.06,-1 c 0,0 -1.37467,0.712 -1.128,1 0.24533,0.288 3.69333,2.71867 3.69333,2.71867 l -1.70266,2.088 -3.468,-3.56134 c 0,0 -0.98667,0.376 -0.78134,0.65867 0.204,0.28267 3.17734,3.90933 3.17734,3.90933 l -1.44267,1.23734 -2.52,-4.02534 -2.40533,1.35067 1.03466,4.40533 -3.04,0.62 -1.088,-11.73866 12.67734,-0.55467 1.444,1.892 z"
     inkscape:connector-curvature="0" /><path
     id="path254"
     style="fill:#e77f22;fill-opacity:1;fill-rule:nonzero;stroke:none;stroke-width:1.33333325"
     d="m 119.57746,189.2408 -7.98267,4.39067 c 0,0 0.54667,1.22933 0.68,1.44666 0.13467,0.21734 2.93334,-1.95066 2.93334,-1.95066 0,0 0.46133,1.00933 0.37733,1.11066 -0.0827,0.1 -2.48533,2.05867 -2.48533,2.05867 l 1.15066,1.372 2.488,-2.32133 1.21867,1.16133 -1.96133,2.75867 0.74266,0.54933 1.90534,-2.70267 0.93333,0.55467 -1.49867,2.97867 0.91067,0.46266 1.43467,-3.08666 1.412,0.45333 -1.00267,3.34933 1.28533,0.34134 1.092,-3.43734 0.39334,-4.896 z"
     inkscape:connector-curvature="0" /><path
     id="path258"
     style="fill:#ffff00;fill-opacity:1;fill-rule:nonzero;stroke:none;stroke-width:1.33333325"
     d="m 138.686,186.66667 c 0,7.58267 -5.97867,13.72933 -13.352,13.72933 -7.37467,0 -13.35333,-6.14666 -13.35333,-13.72933 0,-7.58267 5.97866,-13.72933 13.35333,-13.72933 7.37333,0 13.352,6.14666 13.352,13.72933"
     inkscape:connector-curvature="0" /><path
     id="path262"
     style="fill:#d9d9d9;fill-opacity:1;fill-rule:nonzero;stroke:none;stroke-width:1.33333325"
     d="m 124.10893,171.03 0.868,14.77867 0.836,16.69866 0.988,-0.064 -1.468,-16.68533 0.928,-14.91067 z"
     inkscape:connector-curvature="0" /><path
     id="path266"
     style="fill:#d4a600;fill-opacity:1;fill-rule:nonzero;stroke:none;stroke-width:1.33333325"
     d="m 116.7392,176.16027 7.944,9.90133 5.23867,13.50134 c 0,0 2.48666,-0.96134 3.81066,-2.22534 l -8.39866,-11.58 -6.56534,-11.04666 z"
     inkscape:connector-curvature="0" /><path
     id="path270"
     style="fill:#e6e6e6;fill-opacity:1;fill-rule:nonzero;stroke:none;stroke-width:1.33333325"
     d="m 124.68293,186.06107 -1.07867,-13.008 2.64934,-0.11467 -0.49067,13.12267 -0.0987,5.98133 1.13734,8.27067 h -2.65867 l 1.06,-8.548 z"
     inkscape:connector-curvature="0" /><path
     id="path274"
     style="fill:#eac500;fill-opacity:1;fill-rule:nonzero;stroke:none;stroke-width:1.33333325"
     d="m 125.75826,186.344 -8.412,11.32533 -2.82133,-2.944 10.404,-9.67333 4.27066,1.312 7.40267,7.67067 -1.90667,2.42 z"
     inkscape:connector-curvature="0" /><path
     id="path278"
     style="fill:#e6e6e6;fill-opacity:1;fill-rule:nonzero;stroke:none;stroke-width:1.33333325"
     d="m 126.45013,183.08307 7.28267,-7.088 1.44133,1.39333 -7.15333,6.75467 z"
     inkscape:connector-curvature="0" /><path
     id="path282"
     style="fill:#ffff00;fill-opacity:1;fill-rule:nonzero;stroke:none;stroke-width:1.33333325"
     d="m 125.33333,172.938 c -7.37467,0 -13.352,6.14667 -13.352,13.72933 0,7.58134 5.97733,13.728 13.352,13.728 7.37467,0 13.352,-6.14666 13.352,-13.728 0,-7.58266 -5.97733,-13.72933 -13.352,-13.72933 m 0,0.30267 c 7.2,0 13.05867,6.02266 13.05867,13.42666 0,7.40267 -5.85867,13.42534 -13.05867,13.42534 -7.2,0 -13.05867,-6.02267 -13.05867,-13.42534 0,-7.404 5.85867,-13.42666 13.05867,-13.42666"
     inkscape:connector-curvature="0" /><path
     id="path286"
     style="fill:#f39b11;fill-opacity:1;fill-rule:nonzero;stroke:none;stroke-width:1.33333325"
     d="m 125.33333,170.96947 c -8.41867,0 -15.26667,7.04133 -15.26667,15.69733 0,8.656 6.848,15.69734 15.26667,15.69734 8.41867,0 15.26667,-7.04134 15.26667,-15.69734 0,-8.656 -6.848,-15.69733 -15.26667,-15.69733 m 0,31.69733 c -8.58133,0 -15.56133,-7.17733 -15.56133,-16 0,-8.82266 6.98,-16 15.56133,-16 8.58,0 15.56133,7.17734 15.56133,16 0,8.82267 -6.98133,16 -15.56133,16"
     inkscape:connector-curvature="0" /><path
     id="path290"
     style="fill:#eac500;fill-opacity:1;fill-rule:nonzero;stroke:none;stroke-width:1.33333325"
     d="m 140.7716,180.08 h -0.38 -29.96933 -0.36667 l -0.25867,0.26667 -2.872,2.952 -0.25866,0.26666 v 0.376 3.93734 0.35733 l 0.23733,0.26133 2.94533,3.25467 0.26134,0.29067 h 0.38533 29.96933 0.388 l 0.26134,-0.29334 2.652,-2.952 0.23333,-0.26133 v -0.35467 -4.24 -0.36266 l -0.24267,-0.26267 -2.724,-2.95333 z"
     inkscape:connector-curvature="0" /><path
     id="path294"
     style="fill:#ffff00;fill-opacity:1;fill-rule:nonzero;stroke:none;stroke-width:1.33333325"
     d="m 107.55026,183.9412 2.872,-2.95333 h 29.96933 l 2.72534,2.95333 v 4.24 l -2.652,2.952 h -29.96934 l -2.94533,-3.25467 z"
     inkscape:connector-curvature="0" /><path
     id="path298"
     style="fill:#d4a600;fill-opacity:1;fill-rule:nonzero;stroke:none;stroke-width:1.33333325"
     d="m 143.1164,183.9412 v 4.24 l -2.65067,2.952 H 110.4964 l -2.94667,-3.25467 -0.88266,0.344 v 0.0133 l 0.236,0.26133 2.94533,3.25467 0.26267,0.29066 h 0.38533 29.96933 0.38667 l 0.26267,-0.292 2.65066,-2.95333 0.23467,-0.26133 v -0.35467 -4.24 -0.316 z"
     inkscape:connector-curvature="0" /><path
     id="path302"
     style="fill:#262626;fill-opacity:1;fill-rule:nonzero;stroke:none;stroke-width:1.33333325"
     d="m 123.42653,188.53787 h -0.71067 l -0.88933,-1.828 v 1.828 h -0.712 v -2.56 h 1.06667 z m 0,-3.56533 c 0,0.228 -0.0787,0.42133 -0.23467,0.58266 -0.156,0.16 -0.31466,0.24 -0.476,0.24 h -1.77866 v 2.74267 h -0.712 v -3.47333 h 2.312 c 0.11866,0 0.17866,-0.0307 0.17866,-0.092 0,-0.0613 -0.06,-0.0907 -0.17866,-0.0907 h -2.312 v -0.732 h 2.49066 c 0.16134,0 0.32,0.0813 0.476,0.244 0.156,0.16267 0.23467,0.35467 0.23467,0.57867 m 0.88933,0 c 0,0.48 -0.12,0.84266 -0.35866,1.088 -0.23867,0.24533 -0.44134,0.41066 -0.608,0.496 l 0.96666,1.98133 h -0.712 l -1.244,-2.56 h 0.356 c 0.20934,0 0.40934,-0.0987 0.60134,-0.29467 0.192,-0.19733 0.28666,-0.43466 0.28666,-0.71066 0,-0.272 -0.0947,-0.508 -0.28666,-0.70667 -0.192,-0.19867 -0.392,-0.29867 -0.60134,-0.29867 h -2.49066 v -0.732 h 2.49066 c 0.40667,0 0.77467,0.17067 1.10534,0.512 0.32933,0.34134 0.49466,0.75067 0.49466,1.22534"
     inkscape:connector-curvature="0" /><path
     id="path306"
     style="fill:#262626;fill-opacity:1;fill-rule:nonzero;stroke:none;stroke-width:1.33333325"
     d="m 124.67133,184.8812 c 0,-1.09733 0.53333,-1.64533 1.6,-1.64533 h 2.13467 v 0.73066 h -2.13467 c -0.592,0 -0.88933,0.30534 -0.88933,0.91467 v 2.01067 c 0,0.60933 0.29733,0.91466 0.88933,0.91466 h 2.13467 v 0.73067 h -2.13467 c -1.06667,0 -1.6,-0.548 -1.6,-1.64533 z"
     inkscape:connector-curvature="0" /><path
     id="path310"
     style="fill:#262626;fill-opacity:1;fill-rule:nonzero;stroke:none;stroke-width:1.33333325"
     d="m 125.5604,185.79533 v -0.91467 c 0,-0.48666 0.23733,-0.73066 0.71067,-0.73066 h 2.13466 v 0.73066 h -1.956 c -0.11866,0 -0.17866,0.0613 -0.17866,0.18267 h 1.60133 v 0.732 z"
     inkscape:connector-curvature="0" /><path
     id="path314"
     style="fill:#262626;fill-opacity:1;fill-rule:nonzero;stroke:none;stroke-width:1.33333325"
     d="m 125.5604,185.97813 h 2.312 v 0.732 h -1.60133 c 0,0.12133 0.06,0.18267 0.17866,0.18267 h 1.956 v 0.73066 h -2.13466 c -0.47334,0 -0.71067,-0.244 -0.71067,-0.73066 z"
     inkscape:connector-curvature="0" /><path
     id="path318"
     style="fill:#262626;fill-opacity:1;fill-rule:nonzero;stroke:none;stroke-width:1.33333325"
     d="m 130.8952,184.14987 h 1.956 v 0.732 h -1.24533 v 3.656 h -0.71067 z m -0.17733,0 v 4.388 h -0.712 v -3.656 h -1.244 v -0.732 z m 2.13333,-0.18267 h -4.08933 v -0.732 h 4.08933 z"
     inkscape:connector-curvature="0" /><path
     id="path322"
     style="fill:#262626;fill-opacity:1;fill-rule:nonzero;stroke:none;stroke-width:1.33333325"
     d="m 136.40773,188.53787 h -0.71067 l -0.88933,-1.828 v 1.828 h -0.712 v -2.56 h 1.06667 z m 0,-3.56533 c 0,0.228 -0.0787,0.42133 -0.23467,0.58266 -0.156,0.16 -0.31466,0.24 -0.476,0.24 h -1.77866 v 2.74267 h -0.712 v -3.47333 h 2.312 c 0.11866,0 0.17866,-0.0307 0.17866,-0.092 0,-0.0613 -0.06,-0.0907 -0.17866,-0.0907 h -2.312 v -0.732 h 2.49066 c 0.16134,0 0.32,0.0813 0.476,0.244 0.156,0.16267 0.23467,0.35467 0.23467,0.57867 m 0.88933,0 c 0,0.48 -0.12,0.84266 -0.35866,1.088 -0.23867,0.24533 -0.44134,0.41066 -0.608,0.496 l 0.96666,1.98133 h -0.712 l -1.244,-2.56 h 0.356 c 0.20934,0 0.40934,-0.0987 0.60134,-0.29467 0.19066,-0.19733 0.28666,-0.43466 0.28666,-0.71066 0,-0.272 -0.096,-0.508 -0.28666,-0.70667 -0.192,-0.19867 -0.392,-0.29867 -0.60134,-0.29867 h -2.49066 v -0.732 h 2.49066 c 0.40667,0 0.77467,0.17067 1.10534,0.512 0.32933,0.34134 0.49466,0.75067 0.49466,1.22534"
     inkscape:connector-curvature="0" /><path
     id="path326"
     style="fill:#262626;fill-opacity:1;fill-rule:nonzero;stroke:none;stroke-width:1.33333325"
     d="m 139.96426,185.064 c 0,-0.12133 -0.0587,-0.18267 -0.17733,-0.18267 h -0.356 c -0.11867,0 -0.17734,0.0613 -0.17734,0.18267 v 1.64533 c 0,0.12267 0.0587,0.18267 0.17734,0.18267 h 0.356 c 0.11866,0 0.17733,-0.06 0.17733,-0.18267 z m 0.71067,-0.18267 v 2.01067 c 0,0.488 -0.236,0.732 -0.71067,0.732 h -0.71067 c -0.47466,0 -0.712,-0.244 -0.712,-0.732 v -2.01067 c 0,-0.488 0.23734,-0.732 0.712,-0.732 h 0.71067 c 0.47467,0 0.71067,0.244 0.71067,0.732 m 0.17866,0 c 0,-0.60933 -0.296,-0.91466 -0.88933,-0.91466 h -0.71067 c -0.59333,0 -0.88933,0.30533 -0.88933,0.91466 v 2.01067 c 0,0.60933 0.296,0.91467 0.88933,0.91467 h 0.71067 c 0.59333,0 0.88933,-0.30534 0.88933,-0.91467 z m 0.71067,0 v 2.01067 c 0,1.09733 -0.53333,1.64533 -1.6,1.64533 h -0.71067 c -1.068,0 -1.60133,-0.548 -1.60133,-1.64533 v -2.01067 c 0,-1.09733 0.53333,-1.64533 1.60133,-1.64533 h 0.71067 c 1.06667,0 1.6,0.548 1.6,1.64533"
     inkscape:connector-curvature="0" /><path
     id="path330"
     style="fill:#262626;fill-opacity:1;fill-rule:nonzero;stroke:none;stroke-width:1.33333325"
     d="m 110.51066,187.3084 c -0.005,-0.016 -0.009,-0.0333 -0.0147,-0.0507 h 0.0147 z m 1.00133,-0.416 c -0.11733,0 -0.17733,-0.0613 -0.17733,-0.18267 v -3.47466 h -1.6 v 3.65733 c 0,1.09733 0.53333,1.64533 1.6,1.64533 h 2.13467 v -1.64533 z"
     inkscape:connector-curvature="0" /><path
     inkscape:connector-curvature="0"
     d="m 113.824,188.53733 h 1.6 v -5.30266 h -1.6 z"
     style="fill:#262626;fill-opacity:1;fill-rule:nonzero;stroke:none;stroke-width:1.33333325"
     id="path332" /><path
     id="path336"
     style="fill:#262626;fill-opacity:1;fill-rule:nonzero;stroke:none;stroke-width:1.33333325"
     d="m 118.09186,185.064 h -0.71067 v -0.18267 h 0.71067 c 0.11867,0 0.17733,0.0307 0.17733,0.0907 0,0.0613 -0.0587,0.092 -0.17733,0.092 m 0,1.828 h -0.71067 v -0.18267 h 0.71067 c 0.11867,0 0.17733,0.0307 0.17733,0.092 0,0.06 -0.0587,0.0907 -0.17733,0.0907 m 1.77867,-1.92 c 0,-0.47467 -0.16534,-0.88267 -0.496,-1.224 -0.32934,-0.34133 -0.69734,-0.512 -1.10534,-0.512 h -2.48933 v 5.30133 h 2.48933 c 0.408,0 0.776,-0.17066 1.10534,-0.512 0.33066,-0.34133 0.496,-0.74933 0.496,-1.224 0,-0.34533 -0.0813,-0.648 -0.244,-0.908 0.16266,-0.26 0.244,-0.56666 0.244,-0.92133"
     inkscape:connector-curvature="0" /><path
     id="path340"
     style="fill:#ffffff;fill-opacity:1;fill-rule:nonzero;stroke:#000000;stroke-width:0.5;stroke-miterlimit:4;stroke-dasharray:none"
     d="m 216.26559,184.1404 -0.73467,1.27733 c -0.0573,0.084 -0.144,0.12667 -0.25866,0.12667 h -2.41867 v -3.088 h 2.41867 c 0.11466,0 0.20133,0.0467 0.25866,0.14 l 0.73467,1.26267 0.0427,0.14133 z m 2.07333,-0.28133 -1.33866,-2.24534 c -0.116,-0.18666 -0.26,-0.28 -0.432,-0.28 h -5.788 v 5.33334 h 5.788 c 0.172,0 0.316,-0.0933 0.432,-0.28134 l 1.33866,-2.24533 0.0427,-0.14 z"
     inkscape:connector-curvature="0" /><path
     id="path344"
     style="fill:#ffffff;fill-opacity:1;fill-rule:nonzero;stroke:#000000;stroke-width:0.5;stroke-miterlimit:4;stroke-dasharray:none"
     d="m 219.07293,181.33333 h 5.528 c 0.17333,0 0.31733,0.0933 0.432,0.28133 l 0.908,1.54267 0.0427,0.14133 -0.0427,0.14 -1.34,1.26267 1.38267,1.96533 h -2.07334 L 221.9236,184 h 1.036 c 0.116,0 0.20266,-0.024 0.26,-0.0707 l 0.69066,-0.63067 -0.34533,-0.70266 c -0.0573,-0.0933 -0.144,-0.14 -0.25867,-0.14 h -2.16 v 4.21066 h -2.07333 z"
     inkscape:connector-curvature="0" /><path
     inkscape:connector-curvature="0"
     d="m 228.74799,186.66667 h -2.07333 v -5.33334 h 2.07333 z"
     style="fill:#ffffff;fill-opacity:1;fill-rule:nonzero;stroke:#000000;stroke-width:0.5;stroke-miterlimit:4;stroke-dasharray:none"
     id="path346" /><path
     inkscape:connector-curvature="0"
     d="m 191.23066,186.66667 h -2.07333 v -5.33334 h 2.07333 z"
     style="fill:#0000ff;fill-opacity:1;fill-rule:nonzero;stroke:none;stroke-width:1.33333325"
     id="path348" /><path
     id="path352"
     style="fill:#ffffff;fill-opacity:1;fill-rule:nonzero;stroke:#000000;stroke-width:0.5;stroke-miterlimit:4;stroke-dasharray:none"
     d="m 231.51213,183.08773 2.07333,2.456 2.07334,-2.456 v -1.75467 h 2.07333 v 1.96534 c 0,0.18666 -0.0293,0.328 -0.0867,0.42133 l -2.332,2.94667 h -3.456 l -2.332,-2.94667 c -0.0573,-0.0933 -0.0867,-0.23467 -0.0867,-0.42133 v -1.96534 h 2.07333 z"
     inkscape:connector-curvature="0" /><path
     id="path356"
     style="fill:#ffffff;fill-opacity:1;fill-rule:nonzero;stroke:#000000;stroke-width:0.5;stroke-miterlimit:4;stroke-dasharray:none"
     d="m 240.49586,184.56147 v 0.98267 h 4.83733 v 1.12266 h -6.91066 v -3.50933 c 0,-0.0933 0.0293,-0.18667 0.0867,-0.28 l 0.95067,-1.404 c 0.0573,-0.0933 0.172,-0.14 0.34533,-0.14 h 5.528 v 1.12267 h -4.14666 c -0.11467,0 -0.20134,0.0467 -0.25867,0.14 l -0.432,0.84266 h 4.83733 l -0.69066,1.12267 z"
     inkscape:connector-curvature="0" /><path
     id="path360"
     style="fill:#0000ff;fill-opacity:1;fill-rule:nonzero;stroke:none;stroke-width:1.33333325"
     d="m 185.22053,184 h -1.036 l 0.41067,0.552 c 0.0667,0.0893 0.18666,0.144 0.31466,0.144 h 1.78934 c 0.10666,0 0.20933,-0.0373 0.27866,-0.104 l 1.22267,-1.15333 0.044,-0.14 -0.044,-0.14134 -0.90667,-1.54266 c -0.11466,-0.188 -0.25866,-0.28134 -0.432,-0.28134 h -5.528 v 5.33334 h 2.072 V 182.456 h 2.16 c 0.116,0 0.20134,0.0467 0.26,0.14 l 0.34534,0.70267 -0.692,0.63066 c -0.0573,0.0467 -0.144,0.0707 -0.25867,0.0707"
     inkscape:connector-curvature="0" /><path
     id="path364"
     style="fill:#0000ff;fill-opacity:1;fill-rule:nonzero;stroke:none;stroke-width:1.33333325"
     d="m 199.35973,185.54347 h -1.73867 v 0 h -3.47866 v -2.10533 l 0.43466,-0.84134 c 0.0573,-0.0933 0.14534,-0.14133 0.26134,-0.14133 h 4.52133 v -1.12267 h -5.91333 c -0.17334,0 -0.28934,0.0467 -0.348,0.14134 l -0.956,1.40266 c -0.0587,0.0933 -0.0867,0.188 -0.0867,0.28134 v 3.228 c 0,0.18666 0.116,0.28 0.34667,0.28 h 6.95733 z"
     inkscape:connector-curvature="0" /><path
     id="path368"
     style="fill:#0000ff;fill-opacity:1;fill-rule:nonzero;stroke:none;stroke-width:1.33333325"
     d="m 206.19359,184.1404 -0.73467,1.27733 c -0.0573,0.084 -0.144,0.12667 -0.25866,0.12667 h -0.224 -1.92134 -0.22266 c -0.116,0 -0.20134,-0.0427 -0.26,-0.12667 l -0.73334,-1.27733 -0.044,-0.14 0.044,-0.14133 0.73334,-1.26267 c 0.0587,-0.0933 0.144,-0.14 0.26,-0.14 h 0.22266 1.92134 0.224 c 0.11466,0 0.20133,0.0467 0.25866,0.14 l 0.73467,1.26267 0.0427,0.14133 z m 2.07333,-0.28133 -1.33866,-2.24534 c -0.116,-0.18666 -0.26,-0.28 -0.432,-0.28 h -4.96 c -0.17334,0 -0.316,0.0933 -0.432,0.28 l -1.33867,2.24534 -0.0427,0.14133 0.0427,0.14 1.33867,2.24533 c 0.116,0.188 0.25866,0.28134 0.432,0.28134 h 4.96 c 0.172,0 0.316,-0.0933 0.432,-0.28134 l 1.33866,-2.24533 0.0427,-0.14 z"
     inkscape:connector-curvature="0" /></svg>