<?xml version="1.0" encoding="UTF-8" standalone="no"?>
<svg
   xmlns:dc="http://purl.org/dc/elements/1.1/"
   xmlns:cc="http://creativecommons.org/ns#"
   xmlns:rdf="http://www.w3.org/1999/02/22-rdf-syntax-ns#"
   xmlns:svg="http://www.w3.org/2000/svg"
   xmlns="http://www.w3.org/2000/svg"
   xmlns:sodipodi="http://sodipodi.sourceforge.net/DTD/sodipodi-0.dtd"
   xmlns:inkscape="http://www.inkscape.org/namespaces/inkscape"
   viewBox="0 0 341.33334 341.33334"
   height="256"
   width="256"
   xml:space="preserve"
   id="svg2"
   version="1.1"
   sodipodi:docname="Sony - PlayStation Vita.svg"
   inkscape:version="0.92.2 (5c3e80d, 2017-08-06)"><sodipodi:namedview
     pagecolor="#ffffff"
     bordercolor="#666666"
     borderopacity="1"
     objecttolerance="10"
     gridtolerance="10"
     guidetolerance="10"
     inkscape:pageopacity="0"
     inkscape:pageshadow="2"
     inkscape:window-width="1024"
     inkscape:window-height="705"
     id="namedview75"
     showgrid="false"
     inkscape:pagecheckerboard="true"
     inkscape:zoom="1.3828125"
     inkscape:cx="145.06441"
     inkscape:cy="236.44154"
     inkscape:window-x="-8"
     inkscape:window-y="-8"
     inkscape:window-maximized="1"
     inkscape:current-layer="svg2" /><metadata
     id="metadata8"><rdf:RDF><cc:Work
         rdf:about=""><dc:format>image/svg+xml</dc:format><dc:type
           rdf:resource="http://purl.org/dc/dcmitype/StillImage" /><dc:title /></cc:Work></rdf:RDF></metadata><defs
     id="defs6"><clipPath
       id="clipPath18"
       clipPathUnits="userSpaceOnUse"><path
         id="path16"
         d="M 0,256 H 256 V 0 H 0 Z" /></clipPath><clipPath
       id="clipPath26"
       clipPathUnits="userSpaceOnUse"><path
         id="path24"
         d="M 4,188 H 252 V 68 H 4 Z" /></clipPath></defs><g
     id="g36"
     transform="matrix(1.3333333,0,0,-1.3333333,85.333331,106.66667)"><path
       inkscape:connector-curvature="0"
       d="m 0,0 -4,4 c 0,0 -20,0 -32,-12 v -4 h 20 z"
       style="fill:#bfbfbf;fill-opacity:1;fill-rule:nonzero;stroke:none"
       id="path38" /></g><g
     id="g40"
     transform="matrix(1.3333333,0,0,-1.3333333,42.666666,224)"><path
       inkscape:connector-curvature="0"
       d="M 0,0 C 0,0 16,0 20,-8 20,-8 8,-8 0,0 M 20,4 H -4 -8 c 0,0 4,-8 16,-12 12,-4 20,-4 20,-4 l 4,4 z"
       style="fill:#808080;fill-opacity:1;fill-rule:nonzero;stroke:none"
       id="path42" /></g><g
     id="g44"
     transform="matrix(1.3333333,0,0,-1.3333333,271.99999,234.66667)"><path
       inkscape:connector-curvature="0"
       d="M 0,0 C 4,8 20,8 20,8 12,0 0,0 0,0 m -12,0 4,-4 c 0,0 8,0 20,4 12,4 16,12 16,12 H 24 0 Z"
       style="fill:#808080;fill-opacity:1;fill-rule:nonzero;stroke:none"
       id="path46" /></g><g
     id="g48"
     transform="matrix(1.3333333,0,0,-1.3333333,255.99999,106.66667)"><path
       inkscape:connector-curvature="0"
       d="M 0,0 4,4 C 4,4 24,4 36,-8 v -4 H 16 Z"
       style="fill:#bfbfbf;fill-opacity:1;fill-rule:nonzero;stroke:none"
       id="path50" /></g><g
     id="g52"
     transform="matrix(1.3333333,0,0,-1.3333333,303.99999,117.33334)"><path
       inkscape:connector-curvature="0"
       d="m 0,0 c -16,0 -20,4 -24,8 -4,4 -8,4 -8,4 h -136 c 0,0 -4,0 -8,-4 -4,-4 -8,-8 -24,-8 0,0 -16,-12 -16,-32 v -12.288 c 0,-2.741 0.351,-5.462 1.045,-8.113 1.663,-6.357 5.315,-17.959 10.955,-23.599 l 0.864,-0.864 c 0.716,-0.716 1.672,-1.135 2.684,-1.169 3.862,-0.13 14.068,-0.775 20.452,-3.967 5.06,-2.53 8,-10 12,-10 h 136 c 4,0 8,6 12,10 3.276,3.276 15.945,3.869 20.422,3.977 1.026,0.024 1.999,0.444 2.724,1.169 L 4,-76 c 5.64,5.64 9.291,17.242 10.955,23.599 0.694,2.651 1.045,5.372 1.045,8.113 V -32 C 16,-12 0,0 0,0"
       style="fill:#262626;fill-opacity:1;fill-rule:nonzero;stroke:none"
       id="path54" /></g><path
     inkscape:connector-curvature="0"
     d="M 263.99999,216 H 77.333331 V 112 H 263.99999 Z"
     style="fill:#7f8c8d;fill-opacity:1;fill-rule:nonzero;stroke:none;stroke-width:1.33333325;font-variant-east_asian:normal;opacity:1;vector-effect:none;stroke-linecap:butt;stroke-linejoin:miter;stroke-miterlimit:4;stroke-dasharray:none;stroke-dashoffset:0;stroke-opacity:1"
     id="path56" /><g
     id="g58"
     transform="matrix(1.3333333,0,0,-1.3333333,57.517599,169.1432)"
     style="fill:#4d4d4d"><path
       inkscape:connector-curvature="0"
       d="m 0,0 c -0.054,0.643 -0.107,1.465 -0.128,2.361 -0.015,0.637 0.265,1.261 0.781,1.636 3.776,2.743 6.209,7.035 6.209,11.86 0,8.285 -7.164,15 -16,15 -8.837,0 -16,-6.715 -16,-15 0,-6.976 5.084,-12.831 11.966,-14.508 0.414,-0.101 0.801,-0.311 1.067,-0.645 1.014,-1.277 1.439,-3.45 1.607,-4.681 0.072,-0.529 -0.049,-1.071 -0.374,-1.495 -1.662,-2.169 -2.542,-4.967 -2.19,-7.984 0.585,-5.012 4.672,-9.072 9.688,-9.619 6.629,-0.723 12.236,4.45 12.236,10.932 0,4.852 -3.142,8.967 -7.502,10.429 C 0.605,-1.46 0.066,-0.794 0,0"
       style="fill:#4d4d4d;fill-opacity:1;fill-rule:nonzero;stroke:none"
       id="path60" /></g><g
     id="g62"
     transform="matrix(1.3333333,0,0,-1.3333333,283.81639,169.1432)"
     style="fill:#4d4d4d"><path
       inkscape:connector-curvature="0"
       d="m 0,0 c 0.054,0.643 0.106,1.465 0.128,2.361 0.015,0.637 -0.266,1.261 -0.781,1.636 -3.777,2.743 -6.209,7.035 -6.209,11.86 0,8.285 7.163,15 16,15 8.837,0 16,-6.715 16,-15 C 25.138,8.881 20.054,3.026 13.172,1.349 12.757,1.248 12.37,1.038 12.104,0.704 c -1.013,-1.277 -1.439,-3.45 -1.606,-4.681 -0.072,-0.529 0.049,-1.071 0.374,-1.495 1.661,-2.169 2.541,-4.967 2.189,-7.984 -0.585,-5.012 -4.671,-9.072 -9.688,-9.619 -6.628,-0.723 -12.235,4.45 -12.235,10.932 0,4.852 3.141,8.967 7.501,10.429 C -0.605,-1.46 -0.067,-0.794 0,0"
       style="fill:#4d4d4d;fill-opacity:1;fill-rule:nonzero;stroke:none"
       id="path64" /></g><g
     id="g66"
     transform="matrix(1.3333333,0,0,-1.3333333,303.99999,190.66667)"><path
       inkscape:connector-curvature="0"
       d="M 0,0 C 0,-0.553 0.447,-1 1,-1 1.553,-1 2,-0.553 2,0 2,0.553 1.553,1 1,1 0.447,1 0,0.553 0,0 M 4,0 C 4,-0.553 4.447,-1 5,-1 5.553,-1 6,-0.553 6,0 6,0.553 5.553,1 5,1 4.447,1 4,0.553 4,0 m 4,0 c 0,-0.553 0.447,-1 1,-1 0.553,0 1,0.447 1,1 C 10,0.553 9.553,1 9,1 8.447,1 8,0.553 8,0 M 2,4 C 2,3.447 2.447,3 3,3 3.553,3 4,3.447 4,4 4,4.553 3.553,5 3,5 2.447,5 2,4.553 2,4 M 6,4 C 6,3.447 6.447,3 7,3 7.553,3 8,3.447 8,4 8,4.553 7.553,5 7,5 6.447,5 6,4.553 6,4 m 5,1 c 0.553,0 1,-0.447 1,-1 0,-0.553 -0.447,-1 -1,-1 -0.553,0 -1,0.447 -1,1 0,0.553 0.447,1 1,1"
       style="fill:#000000;fill-opacity:1;fill-rule:nonzero;stroke:none"
       id="path68" /></g><g
     id="g70"
     transform="matrix(1.3333333,0,0,-1.3333333,35.999999,189.33333)"><path
       inkscape:connector-curvature="0"
       d="m 0,0 c -0.552,0 -1,-0.447 -1,-1 0,-0.553 0.448,-1 1,-1 0.552,0 1,0.447 1,1 0,0.553 -0.448,1 -1,1 m -4,0 c -0.552,0 -1,-0.447 -1,-1 0,-0.553 0.448,-1 1,-1 0.552,0 1,0.447 1,1 0,0.553 -0.448,1 -1,1 m -4,0 c -0.552,0 -1,-0.447 -1,-1 0,-0.553 0.448,-1 1,-1 0.552,0 1,0.447 1,1 0,0.553 -0.448,1 -1,1 m 6,4 c -0.552,0 -1,-0.447 -1,-1 0,-0.553 0.448,-1 1,-1 0.552,0 1,0.447 1,1 0,0.553 -0.448,1 -1,1 m -4,0 c -0.552,0 -1,-0.447 -1,-1 0,-0.553 0.448,-1 1,-1 0.552,0 1,0.447 1,1 0,0.553 -0.448,1 -1,1 M -9,3 c 0,-0.553 -0.448,-1 -1,-1 -0.552,0 -1,0.447 -1,1 0,0.553 0.448,1 1,1 0.552,0 1,-0.447 1,-1"
       style="fill:#000000;fill-opacity:1;fill-rule:nonzero;stroke:none"
       id="path72" /></g><g
     id="g74"
     transform="matrix(1.3333333,0,0,-1.3333333,282.66666,129.33334)"><path
       inkscape:connector-curvature="0"
       d="m 0,0 c 0,-1.657 -1.343,-3 -3,-3 -1.657,0 -3,1.343 -3,3 0,1.657 1.343,3 3,3 1.657,0 3,-1.343 3,-3"
       style="fill:#333333;fill-opacity:1;fill-rule:nonzero;stroke:none"
       id="path76" /></g><g
     id="g78"
     transform="matrix(1.3333333,0,0,-1.3333333,287.99999,210.66667)"><path
       inkscape:connector-curvature="0"
       d="m 0,0 c 0,-1.104 -1.791,-2 -4,-2 -2.209,0 -4,0.896 -4,2 0,1.104 1.791,2 4,2 2.209,0 4,-0.896 4,-2"
       style="fill:#333333;fill-opacity:1;fill-rule:nonzero;stroke:none"
       id="path80" /></g><g
     id="g82"
     transform="matrix(1.3333333,0,0,-1.3333333,303.99999,210.66667)"><path
       inkscape:connector-curvature="0"
       d="m 0,0 c 0,-1.104 -1.791,-2 -4,-2 -2.209,0 -4,0.896 -4,2 0,1.104 1.791,2 4,2 2.209,0 4,-0.896 4,-2"
       style="fill:#333333;fill-opacity:1;fill-rule:nonzero;stroke:none"
       id="path84" /></g><g
     id="g86"
     transform="matrix(1.3333333,0,0,-1.3333333,61.333332,210.66667)"><path
       inkscape:connector-curvature="0"
       d="m 0,0 c 0,-2.209 -3.582,-4 -8,-4 -4.418,0 -8,1.791 -8,4 0,2.209 3.582,4 8,4 4.418,0 8,-1.791 8,-4"
       style="fill:#333333;fill-opacity:1;fill-rule:nonzero;stroke:none"
       id="path88" /></g><g
     id="g90"
     transform="matrix(1.3333333,0,0,-1.3333333,54.666665,176)"><path
       inkscape:connector-curvature="0"
       d="m 0,0 c -3.86,0 -7,-3.141 -7,-7 0,-3.859 3.14,-7 7,-7 3.86,0 7,3.141 7,7 0,3.859 -3.14,7 -7,7"
       style="fill:#191919;fill-opacity:1;fill-rule:nonzero;stroke:none"
       id="path92" /></g><g
     id="g94"
     transform="matrix(1.3333333,0,0,-1.3333333,54.666665,174)"><path
       inkscape:connector-curvature="0"
       d="m 0,0 c -4.687,0 -8.5,-3.813 -8.5,-8.5 0,-4.687 3.813,-8.5 8.5,-8.5 4.687,0 8.5,3.813 8.5,8.5 C 8.5,-3.813 4.687,0 0,0 m 0,-18 c -5.238,0 -9.5,4.262 -9.5,9.5 C -9.5,-3.262 -5.238,1 0,1 5.238,1 9.5,-3.262 9.5,-8.5 9.5,-13.738 5.238,-18 0,-18"
       style="fill:#808080;fill-opacity:1;fill-rule:nonzero;stroke:none"
       id="path96" /></g><g
     id="g98"
     transform="matrix(1.3333333,0,0,-1.3333333,62.666665,185.33333)"><path
       inkscape:connector-curvature="0"
       d="m 0,0 c 0,-3.313 -2.687,-6 -6,-6 -3.313,0 -6,2.687 -6,6 0,3.313 2.687,6 6,6 3.313,0 6,-2.687 6,-6"
       style="fill:#262626;fill-opacity:1;fill-rule:nonzero;stroke:none"
       id="path100" /></g><g
     id="g102"
     transform="matrix(1.3333333,0,0,-1.3333333,286.66666,176)"><path
       inkscape:connector-curvature="0"
       d="m 0,0 c -3.859,0 -7,-3.141 -7,-7 0,-3.859 3.141,-7 7,-7 3.859,0 7,3.141 7,7 0,3.859 -3.141,7 -7,7"
       style="fill:#191919;fill-opacity:1;fill-rule:nonzero;stroke:none"
       id="path104" /></g><g
     id="g106"
     transform="matrix(1.3333333,0,0,-1.3333333,286.66666,174)"><path
       inkscape:connector-curvature="0"
       d="m 0,0 c -4.687,0 -8.5,-3.813 -8.5,-8.5 0,-4.687 3.813,-8.5 8.5,-8.5 4.687,0 8.5,3.813 8.5,8.5 C 8.5,-3.813 4.687,0 0,0 m 0,-18 c -5.238,0 -9.5,4.262 -9.5,9.5 C -9.5,-3.262 -5.238,1 0,1 5.238,1 9.5,-3.262 9.5,-8.5 9.5,-13.738 5.238,-18 0,-18"
       style="fill:#808080;fill-opacity:1;fill-rule:nonzero;stroke:none"
       id="path108" /></g><g
     id="g110"
     transform="matrix(1.3333333,0,0,-1.3333333,62.807332,142.63347)"><path
       inkscape:connector-curvature="0"
       d="m 0,0 -0.211,0.422 -0.276,0.553 h -0.618 -6 -0.415 l -0.585,0.642 v 0.414 6 0.618 l -0.553,0.276 -0.423,0.212 c -1.243,0.621 -2.635,0.95 -4.024,0.95 -1.391,0 -2.782,-0.329 -4.025,-0.95 l -0.423,-0.212 -0.552,-0.276 v -0.618 -6 -0.414 l -0.586,-0.642 h -0.414 -6 -0.619 L -26,0.422 -26.211,0 c -1.26,-2.52 -1.26,-5.53 0,-8.05 l 0.211,-0.422 0.276,-0.553 h 0.619 6 0.414 l 0.586,-0.53 v -0.414 -6 -0.618 l 0.552,-0.277 0.423,-0.211 c 1.243,-0.621 2.634,-0.95 4.025,-0.95 1.389,0 2.781,0.329 4.024,0.95 l 0.423,0.211 0.553,0.277 v 0.618 6 0.414 l 0.585,0.53 h 0.415 6 0.618 L -0.211,-8.472 0,-8.05 C 1.26,-5.53 1.26,-2.52 0,0"
       style="fill:#191919;fill-opacity:1;fill-rule:nonzero;stroke:none"
       id="path112" /></g><g
     id="g114"
     transform="matrix(1.3333333,0,0,-1.3333333,294.66666,185.33333)"><path
       inkscape:connector-curvature="0"
       d="m 0,0 c 0,-3.313 -2.687,-6 -6,-6 -3.313,0 -6,2.687 -6,6 0,3.313 2.687,6 6,6 3.313,0 6,-2.687 6,-6"
       style="fill:#262626;fill-opacity:1;fill-rule:nonzero;stroke:none"
       id="path116" /></g><g
     id="g118"
     transform="matrix(1.3333333,0,0,-1.3333333,302.66666,160.66667)"><path
       inkscape:connector-curvature="0"
       d="m 0,0 c 0,-2.761 -2.238,-5 -5,-5 -2.762,0 -5,2.239 -5,5 0,2.761 2.238,5 5,5 2.762,0 5,-2.239 5,-5"
       style="fill:#262626;fill-opacity:1;fill-rule:nonzero;stroke:none"
       id="path120" /></g><g
     id="g122"
     transform="matrix(1.3333333,0,0,-1.3333333,302.66666,135.33334)"><path
       inkscape:connector-curvature="0"
       d="m 0,0 c 0,-2.761 -2.238,-5 -5,-5 -2.762,0 -5,2.239 -5,5 0,2.761 2.238,5 5,5 2.762,0 5,-2.239 5,-5"
       style="fill:#262626;fill-opacity:1;fill-rule:nonzero;stroke:none"
       id="path124" /></g><g
     id="g126"
     transform="matrix(1.3333333,0,0,-1.3333333,283.33333,154.66667)"><path
       inkscape:connector-curvature="0"
       d="m 0,0 c -2.762,0 -5,2.239 -5,5 0,2.761 2.238,5 5,5 C 2.762,10 5,7.761 5,5 5,2.239 2.762,0 0,0"
       style="fill:#262626;fill-opacity:1;fill-rule:nonzero;stroke:none"
       id="path128" /></g><g
     id="g130"
     transform="matrix(1.3333333,0,0,-1.3333333,308.66666,154.66667)"><path
       inkscape:connector-curvature="0"
       d="m 0,0 c -2.762,0 -5,2.239 -5,5 0,2.761 2.238,5 5,5 C 2.762,10 5,7.761 5,5 5,2.239 2.762,0 0,0"
       style="fill:#262626;fill-opacity:1;fill-rule:nonzero;stroke:none"
       id="path132" /></g><g
     id="g134"
     transform="matrix(1.3333333,0,0,-1.3333333,37.333332,153.33333)"><path
       inkscape:connector-curvature="0"
       d="m 0,0 h -6 l -0.211,0.422 c -1.126,2.252 -1.126,4.904 0,7.156 L -6,8 H 0 L 3.293,4.707 c 0.39,-0.391 0.39,-1.023 0,-1.414 z"
       style="fill:#262626;fill-opacity:1;fill-rule:nonzero;stroke:none"
       id="path136" /></g><g
     id="g138"
     transform="matrix(1.3333333,0,0,-1.3333333,53.333332,142.66667)"><path
       inkscape:connector-curvature="0"
       d="m 0,0 h 6 l 0.211,-0.422 c 1.126,-2.252 1.126,-4.904 0,-7.156 L 6,-8 H 0 l -3.293,3.293 c -0.391,0.391 -0.391,1.023 0,1.414 z"
       style="fill:#262626;fill-opacity:1;fill-rule:nonzero;stroke:none"
       id="path140" /></g><g
     id="g142"
     transform="matrix(1.3333333,0,0,-1.3333333,39.999999,139.92574)"><path
       inkscape:connector-curvature="0"
       d="m 0,0 v 6 l 0.422,0.211 c 2.252,1.126 4.903,1.126 7.156,0 L 8,6 V 0 L 4.707,-3.292 c -0.391,-0.391 -1.023,-0.391 -1.414,0 z"
       style="fill:#262626;fill-opacity:1;fill-rule:nonzero;stroke:none"
       id="path144" /></g><g
     id="g146"
     transform="matrix(1.3333333,0,0,-1.3333333,50.666665,155.92573)"><path
       inkscape:connector-curvature="0"
       d="m 0,0 v -6 l -0.422,-0.211 c -2.253,-1.126 -4.904,-1.126 -7.156,0 L -8,-6 v 6 l 3.293,3.293 c 0.391,0.391 1.023,0.391 1.414,0 z"
       style="fill:#262626;fill-opacity:1;fill-rule:nonzero;stroke:none"
       id="path148" /></g></svg>
