<?xml version="1.0" encoding="UTF-8" standalone="no"?>
<svg
   xmlns:dc="http://purl.org/dc/elements/1.1/"
   xmlns:cc="http://creativecommons.org/ns#"
   xmlns:rdf="http://www.w3.org/1999/02/22-rdf-syntax-ns#"
   xmlns:svg="http://www.w3.org/2000/svg"
   xmlns="http://www.w3.org/2000/svg"
   xmlns:sodipodi="http://sodipodi.sourceforge.net/DTD/sodipodi-0.dtd"
   xmlns:inkscape="http://www.inkscape.org/namespaces/inkscape"
   viewBox="0 0 341.33334 341.33334"
   height="256"
   width="256"
   xml:space="preserve"
   id="svg2"
   version="1.1"
   sodipodi:docname="zip.svg"
   inkscape:version="0.92.2 (5c3e80d, 2017-08-06)"><sodipodi:namedview
     pagecolor="#ffffff"
     bordercolor="#666666"
     borderopacity="1"
     objecttolerance="10"
     gridtolerance="10"
     guidetolerance="10"
     inkscape:pageopacity="0"
     inkscape:pageshadow="2"
     inkscape:window-width="1024"
     inkscape:window-height="705"
     id="namedview87"
     showgrid="false"
     inkscape:pagecheckerboard="true"
     inkscape:zoom="0.69140623"
     inkscape:cx="170.66667"
     inkscape:cy="170.66667"
     inkscape:window-x="-8"
     inkscape:window-y="-8"
     inkscape:window-maximized="1"
     inkscape:current-layer="svg2" /><metadata
     id="metadata8"><rdf:RDF><cc:Work
         rdf:about=""><dc:format>image/svg+xml</dc:format><dc:type
           rdf:resource="http://purl.org/dc/dcmitype/StillImage" /><dc:title></dc:title></cc:Work></rdf:RDF></metadata><defs
     id="defs6"><clipPath
       id="clipPath18"
       clipPathUnits="userSpaceOnUse"><path
         id="path16"
         d="M 0,256 H 256 V 0 H 0 Z" /></clipPath><clipPath
       id="clipPath26"
       clipPathUnits="userSpaceOnUse"><path
         id="path24"
         d="M 76,192 H 180 V 64 H 76 Z" /></clipPath></defs><g
     id="g22"
     transform="matrix(1.3333333,0,0,-1.3333333,0,341.33333)" /><path
     id="path38"
     style="fill:#e6e6e6;fill-opacity:1;fill-rule:nonzero;stroke:none;stroke-width:1.33333325"
     d="m 187.42853,96.000003 h -67.048 c -4.63066,0 -8.38,3.712 -8.38,8.295997 v 132.74133 c 0,4.584 3.74934,8.296 8.38,8.296 h 100.572 c 4.63067,0 8.38133,-3.712 8.38133,-8.296 v -99.55599 z"
     inkscape:connector-curvature="0" /><path
     id="path42"
     style="fill:#808080;fill-opacity:1;fill-rule:nonzero;stroke:none;stroke-width:1.33333325"
     d="m 182.9388,107.03347 35.728,35.10133 v 92.532 h -95.764 V 107.03347 Z"
     inkscape:connector-curvature="0" /><path
     id="path46"
     style="fill:#00b800;fill-opacity:1;fill-rule:nonzero;stroke:none;stroke-width:1.33333325"
     d="m 122.66666,106.66667 c 0,0 38.79333,16.844 48.06933,64.184 0,0 1.01867,-21.208 23.38667,-44.27067 6.43733,-6.63733 -11.872,-19.91333 -11.872,-19.91333 z"
     inkscape:connector-curvature="0" /><path
     id="path50"
     style="fill:#cccccc;fill-opacity:1;fill-rule:nonzero;stroke:none;stroke-width:1.33333325"
     d="m 172.91586,155.0336 c -0.36133,-0.0333 -0.97467,0.72533 -1.14267,1.22133 -0.08,0.23467 0.55734,0.8 0.98,1.04134 0.34934,0.19866 0.92134,0.032 1.29067,0.216 0.94267,0.472 1.828,1.048 2.916,1.688 0.42533,-1.23067 0.70267,-2.03734 1.01333,-2.93467 -0.476,-0.212 -0.684,-0.34933 -0.91333,-0.40133 -1.376,-0.31067 -2.74667,-0.70134 -4.144,-0.83067"
     inkscape:connector-curvature="0" /><path
     id="path54"
     style="fill:#cccccc;fill-opacity:1;fill-rule:nonzero;stroke:none;stroke-width:1.33333325"
     d="m 180.0892,141.24067 c -0.44533,-0.15733 -1,-0.59467 -1.28533,-0.46667 -0.40667,0.18 -0.808,0.75734 -0.83067,1.184 -0.016,0.28267 0.61333,0.62267 0.988,0.89334 0.31467,0.22666 0.72933,0.33866 1.01067,0.59066 0.768,0.684 1.48933,1.416 2.38933,2.28134 0.724,-1.136 1.18533,-1.86134 1.756,-2.75734 -0.90267,-0.448 -1.672,-0.864 -2.472,-1.216 -0.49467,-0.21866 -1.04133,-0.32666 -1.556,-0.50933"
     inkscape:connector-curvature="0" /><path
     id="path58"
     style="fill:#cccccc;fill-opacity:1;fill-rule:nonzero;stroke:none;stroke-width:1.33333325"
     d="m 177.42973,145.97187 c -0.42267,-0.092 -1.08667,-0.35467 -1.23067,-0.2 -0.36,0.39067 -0.59466,0.96533 -0.64666,1.48667 -0.016,0.172 0.67866,0.41866 1.06133,0.60933 0.38533,0.192 0.81467,0.31733 1.17467,0.544 0.84666,0.532 1.664,1.108 2.64666,1.76933 0.53467,-1.15066 0.89467,-1.92266 1.344,-2.888 -0.98266,-0.34133 -1.81066,-0.65066 -2.65333,-0.91333 -0.55333,-0.172 -1.128,-0.284 -1.696,-0.408"
     inkscape:connector-curvature="0" /><path
     id="path62"
     style="fill:#cccccc;fill-opacity:1;fill-rule:nonzero;stroke:none;stroke-width:1.33333325"
     d="m 175.40813,150.6248 c -0.45333,-0.108 -1.11467,-0.35733 -1.344,-0.17067 -0.34267,0.27867 -0.57733,0.92134 -0.492,1.34267 0.0573,0.28533 0.72933,0.47867 1.148,0.67333 0.348,0.16134 0.76133,0.20667 1.08133,0.4 0.86667,0.52267 1.69734,1.096 2.756,1.78934 0.45467,-1.19334 0.772,-2.02667 1.21867,-3.19867 -1.20267,-0.16267 -2.17067,-0.26933 -3.128,-0.43467 -0.424,-0.0747 -0.81733,-0.30133 -1.24,-0.40133"
     inkscape:connector-curvature="0" /><path
     id="path66"
     style="fill:#cccccc;fill-opacity:1;fill-rule:nonzero;stroke:none;stroke-width:1.33333325"
     d="m 148.1388,122.9172 c 0.25867,-0.34533 0.54267,-1.07067 0.38267,-1.22267 -0.40534,-0.38933 -1.27334,-0.90533 -1.56534,-0.74266 -1.152,0.64266 -2.14533,1.53466 -3.21333,2.31466 -0.292,0.21467 -0.63867,0.36134 -1.11867,0.62534 0.936,0.94266 1.58134,1.59466 2.51067,2.532 0.69867,-0.988 1.23333,-1.82667 1.86133,-2.59734 0.29734,-0.364 0.864,-0.53733 1.14267,-0.90933"
     inkscape:connector-curvature="0" /><path
     id="path70"
     style="fill:#cccccc;fill-opacity:1;fill-rule:nonzero;stroke:none;stroke-width:1.33333325"
     d="m 129.83026,108.95747 c -0.28133,0.32267 -0.49333,0.70267 -0.79333,1.00933 -0.664,0.67867 -1.36267,1.32667 -2.192,2.12667 1.052,0.64933 1.80666,1.11467 2.97866,1.83733 0.40667,-1.12133 0.72134,-2.07866 1.10534,-3.00933 0.14,-0.34 0.47866,-0.60133 0.66266,-0.93067 0.21734,-0.392 0.62134,-0.948 0.48134,-1.2 -0.21467,-0.38533 -0.82267,-0.764 -1.27334,-0.77466 -0.316,-0.008 -0.664,0.59066 -0.96933,0.94133"
     inkscape:connector-curvature="0" /><path
     id="path74"
     style="fill:#cccccc;fill-opacity:1;fill-rule:nonzero;stroke:none;stroke-width:1.33333325"
     d="m 144.0716,119.304 c 0.27867,-0.31067 0.76667,-0.82 0.668,-0.996 -0.256,-0.46267 -0.732,-0.88533 -1.228,-1.12133 -0.168,-0.08 -0.644,0.46533 -1.00267,0.69333 -0.544,0.34533 -1.12533,0.63867 -1.65866,0.996 -0.64667,0.43467 -1.26,0.912 -2.02934,1.47467 1.07334,0.95866 1.72934,1.54266 2.66534,2.37866 0.56533,-0.89733 1.06,-1.74666 1.62933,-2.55066 0.24133,-0.34 0.66933,-0.556 0.956,-0.87467"
     inkscape:connector-curvature="0" /><path
     id="path78"
     style="fill:#cccccc;fill-opacity:1;fill-rule:nonzero;stroke:none;stroke-width:1.33333325"
     d="m 166.67213,154.1532 c 0.42267,-0.24 1.06,-0.80533 0.98,-1.04133 -0.168,-0.49467 -0.78267,-1.25467 -1.14267,-1.22134 -1.39733,0.12934 -2.768,0.52 -4.144,0.83067 -0.22933,0.052 -0.43733,0.18933 -0.91333,0.40133 0.31067,0.89734 0.588,1.704 1.01333,2.93467 1.088,-0.64 1.97334,-1.216 2.916,-1.688 0.36934,-0.184 0.94134,-0.0173 1.29067,-0.216"
     inkscape:connector-curvature="0" /><path
     id="path82"
     style="fill:#cccccc;fill-opacity:1;fill-rule:nonzero;stroke:none;stroke-width:1.33333325"
     d="m 157.7012,135.56387 c 0.376,-0.27067 1.004,-0.61067 0.988,-0.89467 -0.0227,-0.42533 -0.424,-1.00266 -0.82933,-1.184 -0.28667,-0.12666 -0.84134,0.30934 -1.28667,0.468 -0.51333,0.18134 -1.06133,0.29067 -1.556,0.508 -0.8,0.35334 -1.56933,0.76934 -2.472,1.21734 0.57067,0.896 1.03333,1.62 1.75733,2.75733 0.89867,-0.86533 1.62,-1.59733 2.388,-2.28267 0.28134,-0.25066 0.69734,-0.36266 1.01067,-0.58933"
     inkscape:connector-curvature="0" /><path
     id="path86"
     style="fill:#cccccc;fill-opacity:1;fill-rule:nonzero;stroke:none;stroke-width:1.33333325"
     d="m 154.77973,131.288 c 0.368,-0.28267 1.052,-0.696 0.99467,-0.88267 -0.15334,-0.49066 -0.572,-0.97466 -1.02134,-1.27733 -0.156,-0.104 -0.71066,0.34667 -1.096,0.52133 -0.48933,0.22 -1.008,0.38934 -1.48533,0.63067 -0.78133,0.396 -1.54,0.83333 -2.51333,1.36533 0.72933,0.97334 1.25066,1.668 2.01066,2.68134 0.81334,-0.90934 1.456,-1.66667 2.148,-2.38134 0.26267,-0.26933 0.656,-0.42133 0.96267,-0.65733"
     inkscape:connector-curvature="0" /><path
     id="path90"
     style="fill:#cccccc;fill-opacity:1;fill-rule:nonzero;stroke:none;stroke-width:1.33333325"
     d="m 151.26653,127.1344 c 0.38,-0.34267 1.13867,-0.772 1.076,-0.99867 -0.13067,-0.47066 -0.63067,-0.968 -1.11333,-1.18 -0.216,-0.0933 -0.73734,0.504 -1.15334,0.73334 -0.412,0.22933 -0.89066,0.35333 -1.29733,0.588 -0.75867,0.43733 -1.48667,0.92133 -2.40667,1.49866 0.71867,0.85334 1.304,1.54934 2.15867,2.56267 0.76133,-0.95467 1.37467,-1.73867 2.00933,-2.50667 0.212,-0.256 0.47734,-0.472 0.72667,-0.69733"
     inkscape:connector-curvature="0" /><path
     id="path94"
     style="fill:#cccccc;fill-opacity:1;fill-rule:nonzero;stroke:none;stroke-width:1.33333325"
     d="m 162.81186,144.72427 c 0.38133,-0.19067 1.07733,-0.43733 1.06133,-0.608 -0.052,-0.52133 -0.28666,-1.096 -0.648,-1.48667 -0.14266,-0.156 -0.808,0.10667 -1.22933,0.19867 -0.56933,0.124 -1.14267,0.23733 -1.696,0.40933 -0.844,0.26267 -1.67067,0.572 -2.65333,0.912 0.44933,0.96534 0.808,1.73867 1.344,2.888 0.98266,-0.66133 1.79866,-1.236 2.64666,-1.76933 0.36,-0.22667 0.78934,-0.352 1.17467,-0.544"
     inkscape:connector-curvature="0" /><path
     id="path98"
     style="fill:#cccccc;fill-opacity:1;fill-rule:nonzero;stroke:none;stroke-width:1.33333325"
     d="m 160.74226,140.5792 c 0.38133,-0.19067 1.07733,-0.43733 1.06133,-0.608 -0.052,-0.52133 -0.28666,-1.096 -0.648,-1.48667 -0.14266,-0.156 -0.808,0.10667 -1.22933,0.19867 -0.56933,0.124 -1.14267,0.23733 -1.696,0.40933 -0.844,0.26267 -1.67067,0.572 -2.65333,0.912 0.44933,0.96534 0.808,1.73867 1.344,2.888 0.98266,-0.66133 1.79866,-1.236 2.64666,-1.76933 0.36,-0.22667 0.78934,-0.352 1.17467,-0.544"
     inkscape:connector-curvature="0" /><path
     id="path102"
     style="fill:#cccccc;fill-opacity:1;fill-rule:nonzero;stroke:none;stroke-width:1.33333325"
     d="m 164.7044,149.3272 c 0.41867,-0.19467 1.092,-0.388 1.14933,-0.67333 0.084,-0.42134 -0.14933,-1.064 -0.492,-1.34267 -0.23066,-0.18667 -0.89066,0.0627 -1.34533,0.17067 -0.42133,0.1 -0.81467,0.32666 -1.24,0.40133 -0.956,0.16533 -1.924,0.272 -3.12667,0.43467 0.44534,1.172 0.764,2.00533 1.21734,3.19866 1.05866,-0.69333 1.89066,-1.26666 2.756,-1.78933 0.32,-0.19333 0.73466,-0.23867 1.08133,-0.4"
     inkscape:connector-curvature="0" /><path
     id="path106"
     style="fill:#cccccc;fill-opacity:1;fill-rule:nonzero;stroke:none;stroke-width:1.33333325"
     d="m 139.87746,115.834 c 0.26667,-0.372 0.772,-0.856 0.67467,-1.132 -0.14534,-0.40933 -0.69334,-0.86667 -1.14,-0.94267 -0.31467,-0.0547 -0.748,0.48267 -1.124,0.76267 -0.42134,0.31467 -0.84134,0.632 -1.25334,0.95733 -0.68133,0.54134 -1.356,1.08934 -2.21066,1.77734 0.99466,0.808 1.66933,1.356 2.68133,2.17733 0.57867,-0.96 1.06,-1.79467 1.58,-2.608 0.22667,-0.352 0.54667,-0.64933 0.792,-0.992"
     inkscape:connector-curvature="0" /><path
     id="path110"
     style="fill:#cccccc;fill-opacity:1;fill-rule:nonzero;stroke:none;stroke-width:1.33333325"
     d="m 135.7884,112.8104 c 0.23867,-0.37733 0.676,-0.90533 0.552,-1.164 -0.18933,-0.396 -0.764,-0.80133 -1.216,-0.84667 -0.296,-0.0293 -0.672,0.55867 -0.996,0.88534 -0.30533,0.30666 -0.568,0.65333 -0.888,0.944 -0.70933,0.644 -1.444,1.264 -2.31733,2.02133 1.03466,0.712 1.8,1.23733 2.916,2.004 0.476,-1.14267 0.824,-2.056 1.24,-2.94 0.15733,-0.33467 0.50666,-0.58267 0.70933,-0.904"
     inkscape:connector-curvature="0" /><path
     id="path114"
     style="fill:#cccccc;fill-opacity:1;fill-rule:nonzero;stroke:none;stroke-width:1.33333325"
     d="m 162.95973,157.43493 c 0.12133,0.86133 0.932,2.272 0.76667,2.54133 0.088,0.13067 0.17733,0.26134 0.26533,0.392 0.80933,-0.36133 1.61067,-0.74133 2.432,-1.076 0.40667,-0.16533 0.86133,-0.22 1.27467,-0.37066 0.44266,-0.16134 1.13733,-0.3 1.22533,-0.58667 0.12667,-0.40933 -0.0547,-1.08267 -0.376,-1.37867 -0.224,-0.204 -4.704,0.29867 -5.588,0.47867"
     inkscape:connector-curvature="0" /><path
     id="path118"
     style="fill:#ffffff;fill-opacity:1;fill-rule:nonzero;stroke:none;stroke-width:1.33333325"
     d="m 169.0128,180.38907 -9.82133,-16.82133 c -0.73467,-1.25867 0.184,-2.832 1.65466,-2.832 h 19.64134 c 1.47066,0 2.38933,1.57333 1.65333,2.832 l -9.82,16.82133 c -0.73467,1.25867 -2.57333,1.25867 -3.308,0"
     inkscape:connector-curvature="0" /><path
     id="path122"
     style="fill:#808080;fill-opacity:1;fill-rule:nonzero;stroke:none;stroke-width:1.33333325"
     d="m 165.70026,169.756 h 3.10267 v 0.91067 h -4.65467 V 169.756 l 3.14933,-3.32133 h -3.14933 v -0.91734 h 4.65467 v 0.91734 z"
     inkscape:connector-curvature="0" /><path
     inkscape:connector-curvature="0"
     d="m 169.92533,165.51733 h 1.21333 v 5.14934 h -1.21333 z"
     style="fill:#808080;fill-opacity:1;fill-rule:nonzero;stroke:none;stroke-width:1.33333325"
     id="path124" /><path
     id="path128"
     style="fill:#808080;fill-opacity:1;fill-rule:nonzero;stroke:none;stroke-width:1.33333325"
     d="m 174.788,166.43533 h -1.344 v 1.52 h 1.41333 c 0.28134,0 0.524,-0.0507 0.72934,-0.15333 0.20533,-0.104 0.308,-0.30267 0.308,-0.59867 0.009,-0.33067 -0.0987,-0.53867 -0.32667,-0.628 -0.228,-0.088 -0.488,-0.132 -0.78,-0.132 z m 0.016,-0.91867 c 0.004,0.005 0.0107,0.008 0.0187,0.008 h 0.0187 0.292 c 0.0973,0 0.19467,0.005 0.292,0.0147 0.17467,0.009 0.34667,0.032 0.51867,0.068 0.172,0.036 0.332,0.0947 0.48,0.176 0.272,0.148 0.46533,0.35067 0.58,0.60933 0.116,0.25734 0.176,0.528 0.18133,0.81067 0.004,0.25867 -0.0427,0.50667 -0.14266,0.74533 -0.1,0.23867 -0.26534,0.43734 -0.49467,0.596 -0.196,0.128 -0.40667,0.21334 -0.63467,0.25334 -0.228,0.0413 -0.46,0.0667 -0.69466,0.076 h -0.184 -0.18534 l -1.40533,-0.008 v 1.80133 h -1.16 v -5.15067 z"
     inkscape:connector-curvature="0" /><path
     id="path132"
     style="fill:#ffffff;fill-opacity:1;fill-rule:nonzero;stroke:none;stroke-width:1.33333325"
     d="m 206.95039,144 h -17.084 c -4.71467,0 -8.53333,-3.81867 -8.53333,-8.53333 V 118.4 101.33333 L 223.99972,144 Z"
     inkscape:connector-curvature="0" /><path
     inkscape:connector-curvature="0"
     d="m 170.66666,184 h -5.33333 v -2.66667 h 5.33333 z"
     style="fill:#cccccc;fill-opacity:1;fill-rule:nonzero;stroke:none;stroke-width:1.33333325"
     id="path134" /><path
     inkscape:connector-curvature="0"
     d="m 176,186.66667 h -5.33334 V 184 H 176 Z"
     style="fill:#cccccc;fill-opacity:1;fill-rule:nonzero;stroke:none;stroke-width:1.33333325"
     id="path136" /><path
     inkscape:connector-curvature="0"
     d="m 170.66666,189.33333 h -5.33333 v -2.66666 h 5.33333 z"
     style="fill:#cccccc;fill-opacity:1;fill-rule:nonzero;stroke:none;stroke-width:1.33333325"
     id="path138" /><path
     inkscape:connector-curvature="0"
     d="m 176,192 h -5.33334 v -2.66667 H 176 Z"
     style="fill:#cccccc;fill-opacity:1;fill-rule:nonzero;stroke:none;stroke-width:1.33333325"
     id="path140" /><path
     inkscape:connector-curvature="0"
     d="m 170.66666,194.66667 h -5.33333 V 192 h 5.33333 z"
     style="fill:#cccccc;fill-opacity:1;fill-rule:nonzero;stroke:none;stroke-width:1.33333325"
     id="path142" /><path
     inkscape:connector-curvature="0"
     d="m 176,197.33333 h -5.33334 v -2.66666 H 176 Z"
     style="fill:#cccccc;fill-opacity:1;fill-rule:nonzero;stroke:none;stroke-width:1.33333325"
     id="path144" /><path
     inkscape:connector-curvature="0"
     d="m 170.66666,200 h -5.33333 v -2.66667 h 5.33333 z"
     style="fill:#cccccc;fill-opacity:1;fill-rule:nonzero;stroke:none;stroke-width:1.33333325"
     id="path146" /><path
     inkscape:connector-curvature="0"
     d="m 176,202.66667 h -5.33334 V 200 H 176 Z"
     style="fill:#cccccc;fill-opacity:1;fill-rule:nonzero;stroke:none;stroke-width:1.33333325"
     id="path148" /><path
     inkscape:connector-curvature="0"
     d="m 170.66666,205.33333 h -5.33333 v -2.66666 h 5.33333 z"
     style="fill:#cccccc;fill-opacity:1;fill-rule:nonzero;stroke:none;stroke-width:1.33333325"
     id="path150" /><path
     inkscape:connector-curvature="0"
     d="m 176,208 h -5.33334 v -2.66667 H 176 Z"
     style="fill:#cccccc;fill-opacity:1;fill-rule:nonzero;stroke:none;stroke-width:1.33333325"
     id="path152" /><path
     inkscape:connector-curvature="0"
     d="m 170.66666,210.66667 h -5.33333 V 208 h 5.33333 z"
     style="fill:#cccccc;fill-opacity:1;fill-rule:nonzero;stroke:none;stroke-width:1.33333325"
     id="path154" /><path
     inkscape:connector-curvature="0"
     d="m 176,213.33333 h -5.33334 v -2.66666 H 176 Z"
     style="fill:#cccccc;fill-opacity:1;fill-rule:nonzero;stroke:none;stroke-width:1.33333325"
     id="path156" /><path
     inkscape:connector-curvature="0"
     d="m 170.66666,216 h -5.33333 v -2.66667 h 5.33333 z"
     style="fill:#cccccc;fill-opacity:1;fill-rule:nonzero;stroke:none;stroke-width:1.33333325"
     id="path158" /><path
     inkscape:connector-curvature="0"
     d="m 176,218.66667 h -5.33334 V 216 H 176 Z"
     style="fill:#cccccc;fill-opacity:1;fill-rule:nonzero;stroke:none;stroke-width:1.33333325"
     id="path160" /><path
     inkscape:connector-curvature="0"
     d="m 170.66666,221.33333 h -5.33333 v -2.66666 h 5.33333 z"
     style="fill:#cccccc;fill-opacity:1;fill-rule:nonzero;stroke:none;stroke-width:1.33333325"
     id="path162" /><path
     inkscape:connector-curvature="0"
     d="m 176,224 h -5.33334 v -2.66667 H 176 Z"
     style="fill:#cccccc;fill-opacity:1;fill-rule:nonzero;stroke:none;stroke-width:1.33333325"
     id="path164" /><path
     inkscape:connector-curvature="0"
     d="m 170.66666,226.66667 h -5.33333 V 224 h 5.33333 z"
     style="fill:#cccccc;fill-opacity:1;fill-rule:nonzero;stroke:none;stroke-width:1.33333325"
     id="path166" /><path
     inkscape:connector-curvature="0"
     d="m 176,229.33333 h -5.33334 v -2.66666 H 176 Z"
     style="fill:#cccccc;fill-opacity:1;fill-rule:nonzero;stroke:none;stroke-width:1.33333325"
     id="path168" /><path
     inkscape:connector-curvature="0"
     d="m 170.66666,232 h -5.33333 v -2.66667 h 5.33333 z"
     style="fill:#cccccc;fill-opacity:1;fill-rule:nonzero;stroke:none;stroke-width:1.33333325"
     id="path170" /><path
     inkscape:connector-curvature="0"
     d="m 176,234.66667 h -5.33334 V 232 H 176 Z"
     style="fill:#cccccc;fill-opacity:1;fill-rule:nonzero;stroke:none;stroke-width:1.33333325"
     id="path172" /></svg>
