<?xml version="1.0" encoding="UTF-8" standalone="no"?>
<!-- Created with Inkscape (http://www.inkscape.org/) -->

<svg
   xmlns:dc="http://purl.org/dc/elements/1.1/"
   xmlns:cc="http://creativecommons.org/ns#"
   xmlns:rdf="http://www.w3.org/1999/02/22-rdf-syntax-ns#"
   xmlns:svg="http://www.w3.org/2000/svg"
   xmlns="http://www.w3.org/2000/svg"
   xmlns:sodipodi="http://sodipodi.sourceforge.net/DTD/sodipodi-0.dtd"
   xmlns:inkscape="http://www.inkscape.org/namespaces/inkscape"
   id="svg3084"
   version="1.1"
   inkscape:version="0.48.5 r10040"
   width="255.99921"
   height="256"
   xml:space="preserve"
   sodipodi:docname="add.pdf"><metadata
     id="metadata3090"><rdf:RDF><cc:Work
         rdf:about=""><dc:format>image/svg+xml</dc:format><dc:type
           rdf:resource="http://purl.org/dc/dcmitype/StillImage" /><dc:title></dc:title></cc:Work></rdf:RDF></metadata><defs
     id="defs3088"><clipPath
       clipPathUnits="userSpaceOnUse"
       id="clipPath3098"><path
         d="M 0,128 128,128 128,0 0,0 0,128 z"
         id="path3100"
         inkscape:connector-curvature="0" /></clipPath></defs><sodipodi:namedview
     pagecolor="#ffffff"
     bordercolor="#666666"
     borderopacity="1"
     objecttolerance="10"
     gridtolerance="10"
     guidetolerance="10"
     inkscape:pageopacity="0"
     inkscape:pageshadow="2"
     inkscape:window-width="1059"
     inkscape:window-height="863"
     id="namedview3086"
     showgrid="false"
     fit-margin-top="0"
     fit-margin-left="0"
     fit-margin-right="0"
     fit-margin-bottom="0"
     inkscape:zoom="1.475"
     inkscape:cx="79.9995"
     inkscape:cy="80"
     inkscape:window-x="0"
     inkscape:window-y="0"
     inkscape:window-maximized="0"
     inkscape:current-layer="g3092" /><g
     id="g3092"
     inkscape:groupmode="layer"
     inkscape:label="add"
     transform="matrix(1.25,0,0,-1.25,-5e-4,256)"><g
       id="g3094"
       transform="matrix(1.6,0,0,1.6,-2.4e-4,0)"><g
         id="g3096"
         clip-path="url(#clipPath3098)"><g
           id="g3102"
           transform="translate(58.6891,86.2167)"><path
             d="m 0,0 -0.09,1.712 c 1.546,0.081 3.242,0.12 5.183,0.12 L 5.642,1.831 5.633,0.117 5.096,0.118 C 3.182,0.118 1.515,0.079 0,0 M 12.406,-0.156 C 10.91,-0.021 9.252,0.062 7.336,0.098 L 7.367,1.812 C 9.325,1.776 11.023,1.69 12.56,1.551 L 12.406,-0.156 z M -6.647,-0.817 -7.025,0.855 c 1.507,0.34 3.208,0.583 5.202,0.743 l 0.138,-1.709 C -3.598,-0.264 -5.221,-0.495 -6.647,-0.817 M 18.914,-1.4 c -1.362,0.469 -2.944,0.816 -4.838,1.062 l 0.22,1.7 C 16.306,1.101 18,0.728 19.472,0.221 L 18.914,-1.4 z m -31.376,-2.026 -1.098,1.315 c 1.296,1.082 2.872,1.902 4.817,2.507 l 0.509,-1.636 c -1.725,-0.537 -3.108,-1.252 -4.228,-2.186 m 36.536,-1.482 c -0.941,1.225 -2.14,2.175 -3.666,2.902 l 0.737,1.548 c 1.776,-0.847 3.179,-1.961 4.288,-3.406 l -1.359,-1.044 z m -39.87,-3.817 -1.634,0.52 c 0.618,1.939 1.453,3.507 2.554,4.795 l 1.304,-1.114 c -0.95,-1.111 -1.677,-2.485 -2.224,-4.201 m 42.325,-2.095 c -0.384,1.835 -0.906,3.337 -1.595,4.59 l 1.502,0.826 c 0.773,-1.404 1.352,-3.062 1.771,-5.065 l -1.678,-0.351 z m -43.482,-4.445 -1.709,0.142 c 0.166,1.995 0.415,3.697 0.764,5.201 l 1.67,-0.387 c -0.329,-1.422 -0.567,-3.043 -0.725,-4.956 m 44.235,-2.219 c -0.089,1.915 -0.241,3.559 -0.461,5.027 l 1.695,0.255 c 0.23,-1.526 0.386,-3.228 0.478,-5.203 l -1.712,-0.079 z m -44.474,-4.559 -1.715,10e-4 c 0.002,1.948 0.044,3.644 0.128,5.185 l 1.711,-0.093 c -0.082,-1.511 -0.123,-3.177 -0.124,-5.093 m 46.268,-2.269 -1.714,0.029 c 0.012,0.684 0.017,1.388 0.017,2.115 0,1.041 -0.012,2.036 -0.036,2.988 l 1.713,0.045 c 0.026,-0.966 0.037,-1.976 0.037,-3.033 0,-0.737 -0.005,-1.451 -0.017,-2.144 m -47.76,-4.644 c -0.119,1.538 -0.189,3.236 -0.213,5.19 l 1.714,0.021 c 0.024,-1.917 0.092,-3.578 0.208,-5.079 l -1.709,-0.132 z m 47.328,-2.284 -1.701,0.214 c 0.186,1.481 0.309,3.131 0.375,5.046 l 1.714,-0.06 c -0.069,-1.967 -0.195,-3.667 -0.388,-5.2 m -46.164,-4.639 c -0.449,1.484 -0.777,3.182 -1.002,5.188 l 1.704,0.192 c 0.213,-1.903 0.521,-3.5 0.939,-4.885 l -1.641,-0.495 z m 44.395,-2.219 -1.556,0.72 c 0.601,1.298 1.052,2.835 1.378,4.7 l 1.689,-0.296 c -0.353,-2.013 -0.847,-3.689 -1.511,-5.124 m -40.661,-3.955 c -1.337,1.173 -2.361,2.638 -3.13,4.481 l 1.582,0.66 c 0.666,-1.595 1.542,-2.856 2.678,-3.852 l -1.13,-1.289 z m 35.783,-1.397 -0.843,1.493 c 1.426,0.804 2.539,1.846 3.402,3.185 l 1.441,-0.928 c -1.018,-1.58 -2.326,-2.806 -4,-3.75 m -29.293,-1.684 c -1.995,0.472 -3.634,1.12 -5.01,1.982 l 0.91,1.453 c 1.214,-0.761 2.684,-1.339 4.494,-1.767 l -0.394,-1.668 z m 22.502,-0.439 -0.261,1.694 c 1.879,0.289 3.439,0.692 4.768,1.231 l 0.645,-1.589 c -1.455,-0.59 -3.14,-1.027 -5.152,-1.336 m -15.568,-0.461 c -1.981,0.111 -3.683,0.291 -5.204,0.551 l 0.289,1.69 c 1.456,-0.249 3.095,-0.422 5.01,-0.529 l -0.095,-1.712 z m 8.635,-0.094 -0.046,1.714 c 1.916,0.053 3.57,0.157 5.057,0.319 l 0.186,-1.704 c -1.534,-0.167 -3.234,-0.275 -5.197,-0.329 m -3.18,-0.04 c -1.359,0 -2.578,0.019 -3.724,0.057 l 0.057,1.713 c 1.127,-0.037 2.327,-0.056 3.667,-0.056 0.488,0 0.966,0.003 1.434,0.008 l 0.019,-1.715 c -0.474,-0.005 -0.959,-0.007 -1.453,-0.007"
             style="fill:#f2f2f2;fill-opacity:1;fill-rule:nonzero;stroke:none"
             id="path3104"
             inkscape:connector-curvature="0" /></g><g
           id="g3106"
           transform="translate(53.4969,64.0485)"><path
             d="M 0,0 20.571,0"
             style="fill:#f2f2f2;fill-opacity:1;fill-rule:nonzero;stroke:none"
             id="path3108"
             inkscape:connector-curvature="0" /></g><g
           id="g3110"
           transform="translate(74.0683,63.1914)"><path
             d="m 0,0 -20.571,0 c -0.474,0 -0.858,0.384 -0.858,0.857 0,0.473 0.384,0.857 0.858,0.857 L 0,1.714 C 0.473,1.714 0.857,1.33 0.857,0.857 0.857,0.384 0.473,0 0,0"
             style="fill:#f2f2f2;fill-opacity:1;fill-rule:nonzero;stroke:none"
             id="path3112"
             inkscape:connector-curvature="0" /></g><g
           id="g3114"
           transform="translate(63.7826,53.7628)"><path
             d="M 0,0 0,20.571"
             style="fill:#f2f2f2;fill-opacity:1;fill-rule:nonzero;stroke:none"
             id="path3116"
             inkscape:connector-curvature="0" /></g><g
           id="g3118"
           transform="translate(63.7826,52.9057)"><path
             d="m 0,0 c -0.473,0 -0.857,0.384 -0.857,0.857 l 0,20.572 c 0,0.473 0.384,0.857 0.857,0.857 0.473,0 0.857,-0.384 0.857,-0.857 l 0,-20.572 C 0.857,0.384 0.473,0 0,0"
             style="fill:#f2f2f2;fill-opacity:1;fill-rule:nonzero;stroke:none"
             id="path3120"
             inkscape:connector-curvature="0" /></g><g
           id="g3122"
           transform="translate(64,120.7707)"><path
             d="m 0,0 c -47.13,0 -56.771,-9.575 -56.771,-56.773 0,-47.197 9.492,-56.768 56.771,-56.768 47.286,0 56.771,9.552 56.771,56.768 C 56.771,-9.552 47.13,0 0,0"
             style="fill:#808080;fill-opacity:1;fill-rule:nonzero;stroke:none"
             id="path3124"
             inkscape:connector-curvature="0" /></g><g
           id="g3126"
           transform="translate(50.4174,123.115)"><path
             d="m 0,0 -0.239,4.565 c 4.122,0.215 8.643,0.32 13.822,0.32 L 15.045,4.883 15.022,0.311 13.588,0.314 C 8.484,0.314 4.041,0.211 0,0 m 33.084,-0.416 c -3.99,0.361 -8.413,0.582 -13.523,0.677 l 0.085,4.572 c 5.22,-0.098 9.749,-0.325 13.848,-0.696 l -0.41,-4.553 z m -50.809,-1.764 -1.007,4.46 c 4.017,0.908 8.553,1.556 13.871,1.981 l 0.367,-4.556 C -9.595,-0.703 -13.922,-1.32 -17.725,-2.18 m 68.163,-1.553 c -3.632,1.25 -7.852,2.176 -12.902,2.831 l 0.587,4.534 c 5.36,-0.696 9.876,-1.691 13.803,-3.044 l -1.488,-4.321 z m -83.669,-5.404 -2.929,3.509 c 3.456,2.885 7.658,5.071 12.844,6.685 l 1.36,-4.364 c -4.602,-1.433 -8.29,-3.339 -11.275,-5.83 m 97.429,-3.95 c -2.51,3.267 -5.708,5.799 -9.777,7.739 l 1.966,4.127 c 4.737,-2.259 8.477,-5.229 11.436,-9.083 l -3.625,-2.783 z m -106.322,-10.181 -4.355,1.389 c 1.646,5.169 3.874,9.352 6.81,12.786 l 3.476,-2.971 c -2.532,-2.962 -4.472,-6.626 -5.931,-11.204 m 112.867,-5.586 c -1.022,4.894 -2.414,8.899 -4.252,12.241 l 4.005,2.203 c 2.061,-3.745 3.606,-8.165 4.723,-13.509 l -4.476,-0.935 z m -115.952,-11.852 -4.556,0.377 c 0.442,5.322 1.108,9.86 2.036,13.87 l 4.453,-1.031 c -0.877,-3.792 -1.51,-8.116 -1.933,-13.216 m 117.96,-5.919 c -0.238,5.107 -0.641,9.492 -1.229,13.405 l 4.52,0.681 c 0.613,-4.069 1.031,-8.607 1.276,-13.874 l -4.567,-0.212 z m -118.597,-12.157 -4.571,0.004 c 0.004,5.193 0.116,9.715 0.339,13.826 l 4.565,-0.248 c -0.219,-4.029 -0.329,-8.471 -0.333,-13.582 m 123.383,-6.049 -4.572,0.078 c 0.032,1.822 0.046,3.701 0.046,5.638 0,2.776 -0.031,5.431 -0.097,7.969 l 4.569,0.12 c 0.068,-2.576 0.1,-5.271 0.1,-8.089 0,-1.964 -0.015,-3.869 -0.046,-5.716 M -49.825,-77.217 c -0.317,4.103 -0.502,8.631 -0.567,13.841 l 4.572,0.056 c 0.062,-5.111 0.244,-9.54 0.553,-13.544 l -4.558,-0.353 z m 126.21,-6.089 -4.536,0.569 c 0.495,3.949 0.822,8.351 0.999,13.456 l 4.569,-0.159 c -0.183,-5.244 -0.52,-9.779 -1.032,-13.866 M -46.72,-95.679 c -1.197,3.96 -2.071,8.487 -2.672,13.837 l 4.543,0.512 c 0.57,-5.074 1.389,-9.334 2.504,-13.027 l -4.375,-1.322 z m 118.386,-5.915 -4.149,1.92 c 1.602,3.461 2.804,7.56 3.676,12.532 l 4.502,-0.79 c -0.941,-5.367 -2.259,-9.837 -4.029,-13.662 m -108.428,-10.548 c -3.566,3.127 -6.296,7.036 -8.349,11.95 l 4.219,1.761 c 1.777,-4.255 4.114,-7.616 7.143,-10.273 l -3.013,-3.438 z m 95.419,-3.725 -2.245,3.982 c 3.802,2.143 6.769,4.922 9.07,8.493 l 3.844,-2.475 c -2.714,-4.212 -6.204,-7.483 -10.669,-10 m -78.113,-4.49 c -5.321,1.258 -9.69,2.986 -13.36,5.284 l 2.426,3.875 c 3.239,-2.029 7.159,-3.57 11.985,-4.71 l -1.051,-4.449 z m 60.004,-1.171 -0.694,4.518 c 5.011,0.77 9.169,1.844 12.714,3.282 l 1.719,-4.236 c -3.879,-1.574 -8.372,-2.739 -13.739,-3.564 m -41.513,-1.229 c -5.283,0.296 -9.823,0.776 -13.878,1.469 l 0.77,4.507 c 3.883,-0.664 8.254,-1.126 13.362,-1.411 l -0.254,-4.565 z m 23.027,-0.25 -0.125,4.569 c 5.11,0.141 9.522,0.419 13.488,0.851 l 0.496,-4.545 c -4.092,-0.445 -8.624,-0.731 -13.859,-0.875 m -8.479,-0.108 c -3.627,0 -6.875,0.05 -9.933,0.152 l 0.151,4.569 c 3.008,-0.1 6.207,-0.15 9.782,-0.15 1.301,0 2.575,0.007 3.823,0.021 l 0.049,-4.572 c -1.263,-0.013 -2.555,-0.02 -3.872,-0.02"
             style="fill:#ffffff;fill-opacity:1;fill-rule:nonzero;stroke:none"
             id="path3128"
             inkscape:connector-curvature="0" /></g><g
           id="g3130"
           transform="translate(88.3303,66.0276)"><path
             d="m 0,0 -22.303,0 0,22.303 c 0,1.119 -0.908,2.027 -2.027,2.027 -1.12,0 -2.028,-0.908 -2.028,-2.027 l 0,-22.303 -22.303,0 c -1.119,0 -2.027,-0.908 -2.027,-2.028 0,-1.119 0.908,-2.027 2.027,-2.027 l 22.303,0 0,-22.303 c 0,-1.119 0.908,-2.027 2.028,-2.027 1.119,0 2.027,0.908 2.027,2.027 l 0,22.303 22.303,0 c 1.12,0 2.027,0.908 2.027,2.027 C 2.027,-0.908 1.12,0 0,0"
             style="fill:#ffffff;fill-opacity:1;fill-rule:nonzero;stroke:none"
             id="path3132"
             inkscape:connector-curvature="0" /></g></g></g></g></svg>