<?xml version="1.0" encoding="UTF-8" standalone="no"?>
<!-- Created with Inkscape (http://www.inkscape.org/) -->

<svg
   xmlns:dc="http://purl.org/dc/elements/1.1/"
   xmlns:cc="http://creativecommons.org/ns#"
   xmlns:rdf="http://www.w3.org/1999/02/22-rdf-syntax-ns#"
   xmlns:svg="http://www.w3.org/2000/svg"
   xmlns="http://www.w3.org/2000/svg"
   xmlns:sodipodi="http://sodipodi.sourceforge.net/DTD/sodipodi-0.dtd"
   xmlns:inkscape="http://www.inkscape.org/namespaces/inkscape"
   id="svg3004"
   version="1.1"
   inkscape:version="0.48.5 r10040"
   width="256"
   height="256"
   xml:space="preserve"
   sodipodi:docname="Atari - Lynx-content.svg"
   inkscape:export-filename="/Users/margetts/Desktop/BAXY RetroActive/png_clean/Atari - Lynx-content.png"
   inkscape:export-xdpi="90"
   inkscape:export-ydpi="90"><metadata
     id="metadata3010"><rdf:RDF><cc:Work
         rdf:about=""><dc:format>image/svg+xml</dc:format><dc:type
           rdf:resource="http://purl.org/dc/dcmitype/StillImage" /><dc:title></dc:title></cc:Work></rdf:RDF></metadata><defs
     id="defs3008"><clipPath
       clipPathUnits="userSpaceOnUse"
       id="clipPath3018"><path
         d="M 0,128 128,128 128,0 0,0 0,128 z"
         id="path3020"
         inkscape:connector-curvature="0" /></clipPath></defs><sodipodi:namedview
     pagecolor="#ffffff"
     bordercolor="#666666"
     borderopacity="1"
     objecttolerance="10"
     gridtolerance="10"
     guidetolerance="10"
     inkscape:pageopacity="0"
     inkscape:pageshadow="2"
     inkscape:window-width="1262"
     inkscape:window-height="997"
     id="namedview3006"
     showgrid="false"
     inkscape:zoom="5.1375"
     inkscape:cx="80"
     inkscape:cy="80"
     inkscape:window-x="0"
     inkscape:window-y="0"
     inkscape:window-maximized="0"
     inkscape:current-layer="g3012" /><g
     id="g3012"
     inkscape:groupmode="layer"
     inkscape:label="Atari - Lynx-content"
     transform="matrix(1.25,0,0,-1.25,0,256)"><g
       id="g3014"
       transform="matrix(1.6000038,0,0,1.6000038,-1.8000112e-4,0)"><g
         id="g3016"
         clip-path="url(#clipPath3018)"><g
           id="g3022"
           transform="translate(4.7407,125.6296)"><path
             d="m 0,0 118.519,0 c 1.309,0 2.37,-1.061 2.37,-2.37 l 0,-118.519 c 0,-1.309 -1.061,-2.37 -2.37,-2.37 l -118.519,0 c -1.309,0 -2.37,1.061 -2.37,2.37 l 0,118.519 C -2.37,-1.061 -1.309,0 0,0"
             style="fill:#565353;fill-opacity:1;fill-rule:nonzero;stroke:none"
             id="path3024"
             inkscape:connector-curvature="0" /></g><g
           id="g3026"
           transform="translate(123.2593,128)"><path
             d="m 0,0 -118.519,0 c -2.614,0 -4.74,-2.127 -4.74,-4.741 l 0,-118.518 c 0,-2.614 2.126,-4.741 4.74,-4.741 L 0,-128 c 2.614,0 4.741,2.127 4.741,4.741 l 0,118.518 C 4.741,-2.127 2.614,0 0,0 m 0,-2.37 c 1.309,0 2.37,-1.062 2.37,-2.371 l 0,-118.518 c 0,-1.309 -1.061,-2.371 -2.37,-2.371 l -118.519,0 c -1.309,0 -2.37,1.062 -2.37,2.371 l 0,118.518 c 0,1.309 1.061,2.371 2.37,2.371 L 0,-2.37"
             style="fill:#ffffff;fill-opacity:1;fill-rule:nonzero;stroke:none"
             id="path3028"
             inkscape:connector-curvature="0" /></g><g
           id="g3030"
           transform="translate(5.7407,18.9629)"><path
             d="m 0,0 116.519,0 c 0.552,0 1,-0.448 1,-1 l 0,-12.222 c 0,-0.553 -0.448,-1 -1,-1 L 0,-14.222 c -0.552,0 -1,0.447 -1,1 L -1,-1 c 0,0.552 0.448,1 1,1"
             style="fill:#5f5c5c;fill-opacity:1;fill-rule:nonzero;stroke:none"
             id="path3032"
             inkscape:connector-curvature="0" /></g><path
           d="m 8.296,4.741 -2.37,0 0,14.222 2.37,0 0,-14.222 z"
           style="fill:#ecc10c;fill-opacity:1;fill-rule:nonzero;stroke:none"
           id="path3034"
           inkscape:connector-curvature="0" /><path
           d="m 13.037,4.741 -2.37,0 0,14.222 2.37,0 0,-14.222 z"
           style="fill:#ecc10c;fill-opacity:1;fill-rule:nonzero;stroke:none"
           id="path3036"
           inkscape:connector-curvature="0" /><path
           d="m 17.778,7.111 -2.37,0 0,11.852 2.37,0 0,-11.852 z"
           style="fill:#ecc10c;fill-opacity:1;fill-rule:nonzero;stroke:none"
           id="path3038"
           inkscape:connector-curvature="0" /><path
           d="m 22.519,7.111 -2.37,0 0,11.852 2.37,0 0,-11.852 z"
           style="fill:#ecc10c;fill-opacity:1;fill-rule:nonzero;stroke:none"
           id="path3040"
           inkscape:connector-curvature="0" /><path
           d="m 27.259,7.111 -2.37,0 0,11.852 2.37,0 0,-11.852 z"
           style="fill:#ecc10c;fill-opacity:1;fill-rule:nonzero;stroke:none"
           id="path3042"
           inkscape:connector-curvature="0" /><path
           d="m 32,7.111 -2.37,0 0,11.852 2.37,0 0,-11.852 z"
           style="fill:#ecc10c;fill-opacity:1;fill-rule:nonzero;stroke:none"
           id="path3044"
           inkscape:connector-curvature="0" /><path
           d="m 36.741,7.111 -2.37,0 0,11.852 2.37,0 0,-11.852 z"
           style="fill:#ecc10c;fill-opacity:1;fill-rule:nonzero;stroke:none"
           id="path3046"
           inkscape:connector-curvature="0" /><path
           d="m 41.481,7.111 -2.37,0 0,11.852 2.37,0 0,-11.852 z"
           style="fill:#ecc10c;fill-opacity:1;fill-rule:nonzero;stroke:none"
           id="path3048"
           inkscape:connector-curvature="0" /><path
           d="m 46.222,7.111 -2.37,0 0,11.852 2.37,0 0,-11.852 z"
           style="fill:#ecc10c;fill-opacity:1;fill-rule:nonzero;stroke:none"
           id="path3050"
           inkscape:connector-curvature="0" /><path
           d="m 50.963,7.111 -2.37,0 0,11.852 2.37,0 0,-11.852 z"
           style="fill:#ecc10c;fill-opacity:1;fill-rule:nonzero;stroke:none"
           id="path3052"
           inkscape:connector-curvature="0" /><path
           d="m 55.704,7.111 -2.37,0 0,11.852 2.37,0 0,-11.852 z"
           style="fill:#ecc10c;fill-opacity:1;fill-rule:nonzero;stroke:none"
           id="path3054"
           inkscape:connector-curvature="0" /><path
           d="m 60.444,7.111 -2.37,0 0,11.852 2.37,0 0,-11.852 z"
           style="fill:#ecc10c;fill-opacity:1;fill-rule:nonzero;stroke:none"
           id="path3056"
           inkscape:connector-curvature="0" /><path
           d="m 65.185,7.111 -2.37,0 0,11.852 2.37,0 0,-11.852 z"
           style="fill:#ecc10c;fill-opacity:1;fill-rule:nonzero;stroke:none"
           id="path3058"
           inkscape:connector-curvature="0" /><path
           d="m 69.926,7.111 -2.37,0 0,11.852 2.37,0 0,-11.852 z"
           style="fill:#ecc10c;fill-opacity:1;fill-rule:nonzero;stroke:none"
           id="path3060"
           inkscape:connector-curvature="0" /><path
           d="m 74.667,7.111 -2.37,0 0,11.852 2.37,0 0,-11.852 z"
           style="fill:#ecc10c;fill-opacity:1;fill-rule:nonzero;stroke:none"
           id="path3062"
           inkscape:connector-curvature="0" /><path
           d="m 79.407,7.111 -2.37,0 0,11.852 2.37,0 0,-11.852 z"
           style="fill:#ecc10c;fill-opacity:1;fill-rule:nonzero;stroke:none"
           id="path3064"
           inkscape:connector-curvature="0" /><path
           d="m 84.148,7.111 -2.37,0 0,11.852 2.37,0 0,-11.852 z"
           style="fill:#ecc10c;fill-opacity:1;fill-rule:nonzero;stroke:none"
           id="path3066"
           inkscape:connector-curvature="0" /><path
           d="m 88.889,7.111 -2.37,0 0,11.852 2.37,0 0,-11.852 z"
           style="fill:#ecc10c;fill-opacity:1;fill-rule:nonzero;stroke:none"
           id="path3068"
           inkscape:connector-curvature="0" /><path
           d="m 93.63,7.111 -2.37,0 0,11.852 2.37,0 0,-11.852 z"
           style="fill:#ecc10c;fill-opacity:1;fill-rule:nonzero;stroke:none"
           id="path3070"
           inkscape:connector-curvature="0" /><path
           d="m 98.37,7.111 -2.37,0 0,11.852 2.37,0 0,-11.852 z"
           style="fill:#ecc10c;fill-opacity:1;fill-rule:nonzero;stroke:none"
           id="path3072"
           inkscape:connector-curvature="0" /><path
           d="m 103.111,7.111 -2.37,0 0,11.852 2.37,0 0,-11.852 z"
           style="fill:#ecc10c;fill-opacity:1;fill-rule:nonzero;stroke:none"
           id="path3074"
           inkscape:connector-curvature="0" /><path
           d="m 107.852,7.111 -2.37,0 0,11.852 2.37,0 0,-11.852 z"
           style="fill:#ecc10c;fill-opacity:1;fill-rule:nonzero;stroke:none"
           id="path3076"
           inkscape:connector-curvature="0" /><path
           d="m 112.593,7.111 -2.37,0 0,11.852 2.37,0 0,-11.852 z"
           style="fill:#ecc10c;fill-opacity:1;fill-rule:nonzero;stroke:none"
           id="path3078"
           inkscape:connector-curvature="0" /><path
           d="m 117.333,7.111 -2.37,0 0,11.852 2.37,0 0,-11.852 z"
           style="fill:#ecc10c;fill-opacity:1;fill-rule:nonzero;stroke:none"
           id="path3080"
           inkscape:connector-curvature="0" /><path
           d="m 122.074,4.741 -2.37,0 0,14.222 2.37,0 0,-14.222 z"
           style="fill:#ecc10c;fill-opacity:1;fill-rule:nonzero;stroke:none"
           id="path3082"
           inkscape:connector-curvature="0" /><g
           id="g3084"
           transform="translate(7.1111,99.5555)"><path
             d="m 0,0 113.778,0 c 1.309,0 2.37,-1.061 2.37,-2.37 l 0,-73.482 c 0,-1.309 -1.061,-2.37 -2.37,-2.37 L 0,-78.222 c -1.309,0 -2.37,1.061 -2.37,2.37 l 0,73.482 C -2.37,-1.061 -1.309,0 0,0"
             style="fill:#434041;fill-opacity:1;fill-rule:nonzero;stroke:none"
             id="path3086"
             inkscape:connector-curvature="0" /></g><path
           d="m 120.889,76.081 -113.778,0 0,20.865 113.778,0 0,-20.865 z"
           style="fill:#231f20;fill-opacity:1;fill-rule:nonzero;stroke:none"
           id="path3088"
           inkscape:connector-curvature="0" /><path
           d="m 120.889,24.683 -113.778,0 0,51.398 113.778,0 0,-51.398 z"
           style="fill:#ecc10c;fill-opacity:1;fill-rule:nonzero;stroke:none"
           id="path3090"
           inkscape:connector-curvature="0" /></g></g><g
       transform="matrix(1.6000038,0,0,1.6000038,-1.8000112e-4,0)"
       id="g3092"><g
         clip-path="url(#clipPath3018)"
         id="g3094"><g
           transform="translate(4.7407,125.6296)"
           id="g3096"><path
             inkscape:connector-curvature="0"
             id="path3098"
             style="fill:#565353;fill-opacity:1;fill-rule:nonzero;stroke:none"
             d="m 0,0 118.519,0 c 1.309,0 2.37,-1.061 2.37,-2.37 l 0,-118.519 c 0,-1.309 -1.061,-2.37 -2.37,-2.37 l -118.519,0 c -1.309,0 -2.37,1.061 -2.37,2.37 l 0,118.519 C -2.37,-1.061 -1.309,0 0,0" /></g><g
           transform="translate(123.2593,128)"
           id="g3100"><path
             inkscape:connector-curvature="0"
             id="path3102"
             style="fill:#ffffff;fill-opacity:1;fill-rule:nonzero;stroke:none"
             d="m 0,0 -118.519,0 c -2.614,0 -4.74,-2.127 -4.74,-4.741 l 0,-118.518 c 0,-2.614 2.126,-4.741 4.74,-4.741 L 0,-128 c 2.614,0 4.741,2.127 4.741,4.741 l 0,118.518 C 4.741,-2.127 2.614,0 0,0 m 0,-2.37 c 1.309,0 2.37,-1.062 2.37,-2.371 l 0,-118.518 c 0,-1.309 -1.061,-2.371 -2.37,-2.371 l -118.519,0 c -1.309,0 -2.37,1.062 -2.37,2.371 l 0,118.518 c 0,1.309 1.061,2.371 2.37,2.371 L 0,-2.37" /></g><g
           transform="translate(5.7407,18.9629)"
           id="g3104"><path
             inkscape:connector-curvature="0"
             id="path3106"
             style="fill:#5f5c5c;fill-opacity:1;fill-rule:nonzero;stroke:none"
             d="m 0,0 116.519,0 c 0.552,0 1,-0.448 1,-1 l 0,-12.222 c 0,-0.553 -0.448,-1 -1,-1 L 0,-14.222 c -0.552,0 -1,0.447 -1,1 L -1,-1 c 0,0.552 0.448,1 1,1" /></g><path
           inkscape:connector-curvature="0"
           id="path3108"
           style="fill:#ecc10c;fill-opacity:1;fill-rule:nonzero;stroke:none"
           d="m 8.296,4.741 -2.37,0 0,14.222 2.37,0 0,-14.222 z" /><path
           inkscape:connector-curvature="0"
           id="path3110"
           style="fill:#ecc10c;fill-opacity:1;fill-rule:nonzero;stroke:none"
           d="m 13.037,4.741 -2.37,0 0,14.222 2.37,0 0,-14.222 z" /><path
           inkscape:connector-curvature="0"
           id="path3112"
           style="fill:#ecc10c;fill-opacity:1;fill-rule:nonzero;stroke:none"
           d="m 17.778,7.111 -2.37,0 0,11.852 2.37,0 0,-11.852 z" /><path
           inkscape:connector-curvature="0"
           id="path3114"
           style="fill:#ecc10c;fill-opacity:1;fill-rule:nonzero;stroke:none"
           d="m 22.519,7.111 -2.37,0 0,11.852 2.37,0 0,-11.852 z" /><path
           inkscape:connector-curvature="0"
           id="path3116"
           style="fill:#ecc10c;fill-opacity:1;fill-rule:nonzero;stroke:none"
           d="m 27.259,7.111 -2.37,0 0,11.852 2.37,0 0,-11.852 z" /><path
           inkscape:connector-curvature="0"
           id="path3118"
           style="fill:#ecc10c;fill-opacity:1;fill-rule:nonzero;stroke:none"
           d="m 32,7.111 -2.37,0 0,11.852 2.37,0 0,-11.852 z" /><path
           inkscape:connector-curvature="0"
           id="path3120"
           style="fill:#ecc10c;fill-opacity:1;fill-rule:nonzero;stroke:none"
           d="m 36.741,7.111 -2.37,0 0,11.852 2.37,0 0,-11.852 z" /><path
           inkscape:connector-curvature="0"
           id="path3122"
           style="fill:#ecc10c;fill-opacity:1;fill-rule:nonzero;stroke:none"
           d="m 41.481,7.111 -2.37,0 0,11.852 2.37,0 0,-11.852 z" /><path
           inkscape:connector-curvature="0"
           id="path3124"
           style="fill:#ecc10c;fill-opacity:1;fill-rule:nonzero;stroke:none"
           d="m 46.222,7.111 -2.37,0 0,11.852 2.37,0 0,-11.852 z" /><path
           inkscape:connector-curvature="0"
           id="path3126"
           style="fill:#ecc10c;fill-opacity:1;fill-rule:nonzero;stroke:none"
           d="m 50.963,7.111 -2.37,0 0,11.852 2.37,0 0,-11.852 z" /><path
           inkscape:connector-curvature="0"
           id="path3128"
           style="fill:#ecc10c;fill-opacity:1;fill-rule:nonzero;stroke:none"
           d="m 55.704,7.111 -2.37,0 0,11.852 2.37,0 0,-11.852 z" /><path
           inkscape:connector-curvature="0"
           id="path3130"
           style="fill:#ecc10c;fill-opacity:1;fill-rule:nonzero;stroke:none"
           d="m 60.444,7.111 -2.37,0 0,11.852 2.37,0 0,-11.852 z" /><path
           inkscape:connector-curvature="0"
           id="path3132"
           style="fill:#ecc10c;fill-opacity:1;fill-rule:nonzero;stroke:none"
           d="m 65.185,7.111 -2.37,0 0,11.852 2.37,0 0,-11.852 z" /><path
           inkscape:connector-curvature="0"
           id="path3134"
           style="fill:#ecc10c;fill-opacity:1;fill-rule:nonzero;stroke:none"
           d="m 69.926,7.111 -2.37,0 0,11.852 2.37,0 0,-11.852 z" /><path
           inkscape:connector-curvature="0"
           id="path3136"
           style="fill:#ecc10c;fill-opacity:1;fill-rule:nonzero;stroke:none"
           d="m 74.667,7.111 -2.37,0 0,11.852 2.37,0 0,-11.852 z" /><path
           inkscape:connector-curvature="0"
           id="path3138"
           style="fill:#ecc10c;fill-opacity:1;fill-rule:nonzero;stroke:none"
           d="m 79.407,7.111 -2.37,0 0,11.852 2.37,0 0,-11.852 z" /><path
           inkscape:connector-curvature="0"
           id="path3140"
           style="fill:#ecc10c;fill-opacity:1;fill-rule:nonzero;stroke:none"
           d="m 84.148,7.111 -2.37,0 0,11.852 2.37,0 0,-11.852 z" /><path
           inkscape:connector-curvature="0"
           id="path3142"
           style="fill:#ecc10c;fill-opacity:1;fill-rule:nonzero;stroke:none"
           d="m 88.889,7.111 -2.37,0 0,11.852 2.37,0 0,-11.852 z" /><path
           inkscape:connector-curvature="0"
           id="path3144"
           style="fill:#ecc10c;fill-opacity:1;fill-rule:nonzero;stroke:none"
           d="m 93.63,7.111 -2.37,0 0,11.852 2.37,0 0,-11.852 z" /><path
           inkscape:connector-curvature="0"
           id="path3146"
           style="fill:#ecc10c;fill-opacity:1;fill-rule:nonzero;stroke:none"
           d="m 98.37,7.111 -2.37,0 0,11.852 2.37,0 0,-11.852 z" /><path
           inkscape:connector-curvature="0"
           id="path3148"
           style="fill:#ecc10c;fill-opacity:1;fill-rule:nonzero;stroke:none"
           d="m 103.111,7.111 -2.37,0 0,11.852 2.37,0 0,-11.852 z" /><path
           inkscape:connector-curvature="0"
           id="path3150"
           style="fill:#ecc10c;fill-opacity:1;fill-rule:nonzero;stroke:none"
           d="m 107.852,7.111 -2.37,0 0,11.852 2.37,0 0,-11.852 z" /><path
           inkscape:connector-curvature="0"
           id="path3152"
           style="fill:#ecc10c;fill-opacity:1;fill-rule:nonzero;stroke:none"
           d="m 112.593,7.111 -2.37,0 0,11.852 2.37,0 0,-11.852 z" /><path
           inkscape:connector-curvature="0"
           id="path3154"
           style="fill:#ecc10c;fill-opacity:1;fill-rule:nonzero;stroke:none"
           d="m 117.333,7.111 -2.37,0 0,11.852 2.37,0 0,-11.852 z" /><path
           inkscape:connector-curvature="0"
           id="path3156"
           style="fill:#ecc10c;fill-opacity:1;fill-rule:nonzero;stroke:none"
           d="m 122.074,4.741 -2.37,0 0,14.222 2.37,0 0,-14.222 z" /><g
           transform="translate(7.1111,99.5555)"
           id="g3158"><path
             inkscape:connector-curvature="0"
             id="path3160"
             style="fill:#434041;fill-opacity:1;fill-rule:nonzero;stroke:none"
             d="m 0,0 113.778,0 c 1.309,0 2.37,-1.061 2.37,-2.37 l 0,-73.482 c 0,-1.309 -1.061,-2.37 -2.37,-2.37 L 0,-78.222 c -1.309,0 -2.37,1.061 -2.37,2.37 l 0,73.482 C -2.37,-1.061 -1.309,0 0,0" /></g><path
           inkscape:connector-curvature="0"
           id="path3162"
           style="fill:#231f20;fill-opacity:1;fill-rule:nonzero;stroke:none"
           d="m 120.889,76.081 -113.778,0 0,20.865 113.778,0 0,-20.865 z" /><path
           inkscape:connector-curvature="0"
           id="path3164"
           style="fill:#ecc10c;fill-opacity:1;fill-rule:nonzero;stroke:none"
           d="m 120.889,24.683 -113.778,0 0,51.398 113.778,0 0,-51.398 z" /></g></g></g></svg>