<?xml version="1.0" encoding="UTF-8" standalone="no"?>
<!-- Created with Inkscape (http://www.inkscape.org/) -->

<svg
   xmlns:dc="http://purl.org/dc/elements/1.1/"
   xmlns:cc="http://creativecommons.org/ns#"
   xmlns:rdf="http://www.w3.org/1999/02/22-rdf-syntax-ns#"
   xmlns:svg="http://www.w3.org/2000/svg"
   xmlns="http://www.w3.org/2000/svg"
   xmlns:sodipodi="http://sodipodi.sourceforge.net/DTD/sodipodi-0.dtd"
   xmlns:inkscape="http://www.inkscape.org/namespaces/inkscape"
   id="svg3904"
   version="1.1"
   inkscape:version="0.48.5 r10040"
   width="256"
   height="256"
   xml:space="preserve"
   sodipodi:docname="Bandai - WonderSwan.svg"
   inkscape:export-filename="/Users/margetts/Desktop/BAXY RetroActive/png_clean/Bandai - WonderSwan.png"
   inkscape:export-xdpi="90"
   inkscape:export-ydpi="90"><metadata
     id="metadata3910"><rdf:RDF><cc:Work
         rdf:about=""><dc:format>image/svg+xml</dc:format><dc:type
           rdf:resource="http://purl.org/dc/dcmitype/StillImage" /><dc:title></dc:title></cc:Work></rdf:RDF></metadata><defs
     id="defs3908"><clipPath
       clipPathUnits="userSpaceOnUse"
       id="clipPath3918"><path
         d="M 0,128 128,128 128,0 0,0 0,128 z"
         id="path3920"
         inkscape:connector-curvature="0" /></clipPath></defs><sodipodi:namedview
     pagecolor="#ffffff"
     bordercolor="#666666"
     borderopacity="1"
     objecttolerance="10"
     gridtolerance="10"
     guidetolerance="10"
     inkscape:pageopacity="0"
     inkscape:pageshadow="2"
     inkscape:window-width="1676"
     inkscape:window-height="1005"
     id="namedview3906"
     showgrid="false"
     inkscape:zoom="4.953125"
     inkscape:cx="128"
     inkscape:cy="128"
     inkscape:window-x="4"
     inkscape:window-y="1"
     inkscape:window-maximized="1"
     inkscape:current-layer="g3912" /><g
     id="g3912"
     inkscape:groupmode="layer"
     inkscape:label="Bandai - WonderSwan"
     transform="matrix(1.25,0,0,-1.25,0,256)"><g
       id="g3914"
       transform="matrix(1.6000022,0,0,1.6000022,-2.822386e-4,1.1198607)"><g
         id="g3916"
         clip-path="url(#clipPath3918)"><g
           id="g3922"
           transform="translate(100.2594,100)"><path
             d="m 0,0 -68.519,0 c -6.456,0 -11.414,-0.262 -16.076,-0.849 -3.218,-0.405 -7.401,-1.408 -11.223,-5.599 -4.293,-4.707 -4.597,-20.131 -4.396,-28.907 0.244,-10.67 1.622,-24.288 4.07,-28.973 0.281,-0.537 0.569,-1.052 0.865,-1.544 2.291,-3.806 6.637,-6.171 11.344,-6.171 l 17.457,0 c 3.45,0 6.87,-0.12 10.166,-0.356 4.92,-0.353 13.946,-0.813 29.002,-1.001 l 0.468,0 c 3.036,0 18.448,0.014 23.772,0.286 4.959,0.358 9.859,0.981 15.026,1.908 10.47,1.879 15.337,5.444 15.779,11.56 l 0.006,0.079 0,0.08 0,47.733 c -0.23,8.033 -5.567,9.532 -11.993,10.56 C 10.796,-0.402 5.497,0 0,0"
             style="fill:#ffffff;fill-opacity:1;fill-rule:nonzero;stroke:none"
             id="path3924"
             inkscape:connector-curvature="0" /></g><g
           id="g3926"
           transform="translate(115.6593,96.6268)"><path
             d="m 0,0 c -5.087,0.814 -10.242,1.166 -15.4,1.166 l -68.519,0 c -5.279,0 -10.567,-0.172 -15.8,-0.831 -3.462,-0.436 -6.801,-1.533 -9.869,-4.897 -6.196,-6.794 -3.99,-47.733 0,-55.371 0.26,-0.496 0.526,-0.973 0.8,-1.428 1.93,-3.208 5.585,-5.102 9.453,-5.102 l 17.458,0 c 3.447,0 6.885,-0.115 10.323,-0.362 4.653,-0.333 13.641,-0.805 28.872,-0.995 1.276,-0.001 18.463,-0.005 24.1,0.283 4.394,0.318 9.222,0.885 14.748,1.876 10.759,1.931 13.664,5.341 13.968,9.547 l 0,47.734 C 9.961,-2.349 6.68,-1.069 0,0"
             style="fill:#4f4c4d;fill-opacity:1;fill-rule:nonzero;stroke:none"
             id="path3928"
             inkscape:connector-curvature="0" /></g><g
           id="g3930"
           transform="translate(102.4967,85.7581)"><path
             d="m 0,0 c -0.437,1.419 -1.692,2.504 -3.244,2.842 -8.813,1.918 -37.723,4.408 -61.262,3.22 -1.498,-0.076 -2.639,-1.311 -3.15,-2.622 -2.542,-6.529 -9.037,-27.361 -0.144,-51.961 0.594,-1.643 2.295,-2.727 4.166,-2.727 l 1.13,0 0,4.231 c 0,0.609 0.494,1.103 1.103,1.103 l 19.801,0 c 0.61,0 1.104,-0.494 1.104,-1.103 l 0,-4.231 c 0,0 28.301,1.459 37.442,2.253 1.534,0.133 2.88,0.986 3.538,2.275 C 3.073,-41.648 8.283,-26.861 0,0"
             style="fill:#dbdade;fill-opacity:1;fill-rule:nonzero;stroke:none"
             id="path3932"
             inkscape:connector-curvature="0" /></g><g
           id="g3934"
           transform="translate(54.459,38.0474)"><path
             d="m 0,0 3.991,0 c 0.826,0 1.496,-0.67 1.496,-1.497 0,-0.826 -0.67,-1.496 -1.496,-1.496 l -3.991,0 c -0.827,0 -1.497,0.67 -1.497,1.496 C -1.497,-0.67 -0.827,0 0,0"
             style="fill:#f0f4f4;fill-opacity:1;fill-rule:nonzero;stroke:none"
             id="path3936"
             inkscape:connector-curvature="0" /></g><g
           id="g3938"
           transform="translate(43.4846,38.0474)"><path
             d="m 0,0 3.991,0 c 0.826,0 1.496,-0.67 1.496,-1.497 0,-0.826 -0.67,-1.496 -1.496,-1.496 l -3.991,0 c -0.827,0 -1.497,0.67 -1.497,1.496 C -1.497,-0.67 -0.827,0 0,0"
             style="fill:#f0f4f4;fill-opacity:1;fill-rule:nonzero;stroke:none"
             id="path3940"
             inkscape:connector-curvature="0" /></g><g
           id="g3942"
           transform="translate(22.3433,90.5133)"><path
             d="M 0,0 C -0.979,1.347 -2.85,2.014 -5.016,1.797 -6.436,1.648 -8.15,1.053 -8.701,-0.178 -8.861,-0.534 -8.799,-0.95 -8.543,-1.243 l 3.492,-3.991 c 0.19,-0.217 0.464,-0.341 0.751,-0.341 0.288,0 0.562,0.124 0.752,0.341 l 3.491,3.991 C 0.249,-0.893 0.273,-0.377 0,0"
             style="fill:#f0f4f4;fill-opacity:1;fill-rule:nonzero;stroke:none"
             id="path3944"
             inkscape:connector-curvature="0" /></g><g
           id="g3946"
           transform="translate(22.2868,76.6159)"><path
             d="m 0,0 -3.492,3.991 c -0.38,0.434 -1.122,0.434 -1.502,0 L -8.486,0 c -0.256,-0.293 -0.319,-0.709 -0.159,-1.065 0.551,-1.231 2.265,-1.827 3.686,-1.975 0.275,-0.028 0.544,-0.042 0.808,-0.042 1.815,0 3.352,0.662 4.208,1.839 C 0.329,-0.866 0.306,-0.35 0,0"
             style="fill:#f0f4f4;fill-opacity:1;fill-rule:nonzero;stroke:none"
             id="path3948"
             inkscape:connector-curvature="0" /></g><g
           id="g3950"
           transform="translate(15.7073,83.6942)"><path
             d="M 0,0 -3.991,3.492 C -4.342,3.8 -4.858,3.819 -5.234,3.548 -6.582,2.568 -7.255,0.694 -7.031,-1.467 c 0.149,-1.421 0.744,-3.135 1.975,-3.686 0.132,-0.06 0.27,-0.088 0.409,-0.088 0.236,0 0.471,0.085 0.656,0.247 L 0,-1.502 c 0.217,0.19 0.341,0.463 0.341,0.751 C 0.341,-0.464 0.217,-0.19 0,0"
             style="fill:#f0f4f4;fill-opacity:1;fill-rule:nonzero;stroke:none"
             id="path3952"
             inkscape:connector-curvature="0" /></g><g
           id="g3954"
           transform="translate(27.4106,83.6591)"><path
             d="M 0,0 C -0.148,1.421 -0.743,3.134 -1.975,3.686 -2.332,3.848 -2.748,3.784 -3.04,3.527 L -7.031,0.035 c -0.217,-0.19 -0.341,-0.464 -0.341,-0.751 0,-0.288 0.124,-0.561 0.341,-0.751 l 3.991,-3.492 c 0.187,-0.164 0.422,-0.247 0.657,-0.247 0.205,0 0.411,0.064 0.586,0.19 C -0.448,-4.036 0.224,-2.161 0,0"
             style="fill:#f0f4f4;fill-opacity:1;fill-rule:nonzero;stroke:none"
             id="path3956"
             inkscape:connector-curvature="0" /></g><g
           id="g3958"
           transform="translate(22.3433,54.5968)"><path
             d="M 0,0 C -0.98,1.346 -2.857,2.003 -5.014,1.797 -6.435,1.649 -8.15,1.052 -8.701,-0.179 c -0.16,-0.355 -0.098,-0.772 0.158,-1.064 l 3.492,-3.991 c 0.19,-0.216 0.464,-0.341 0.751,-0.341 0.288,0 0.562,0.125 0.752,0.341 l 3.491,3.991 C 0.249,-0.892 0.273,-0.378 0,0"
             style="fill:#f0f4f4;fill-opacity:1;fill-rule:nonzero;stroke:none"
             id="path3960"
             inkscape:connector-curvature="0" /></g><g
           id="g3962"
           transform="translate(22.2868,40.6995)"><path
             d="m 0,0 -3.492,3.991 c -0.38,0.432 -1.122,0.432 -1.502,0 L -8.486,0 c -0.256,-0.292 -0.319,-0.709 -0.159,-1.064 0.551,-1.231 2.266,-1.828 3.688,-1.976 0.274,-0.027 0.543,-0.041 0.807,-0.041 1.814,0 3.351,0.661 4.207,1.838 C 0.329,-0.865 0.306,-0.351 0,0"
             style="fill:#f0f4f4;fill-opacity:1;fill-rule:nonzero;stroke:none"
             id="path3964"
             inkscape:connector-curvature="0" /></g><g
           id="g3966"
           transform="translate(15.7073,47.7767)"><path
             d="M 0,0 -3.991,3.492 C -4.342,3.8 -4.858,3.823 -5.234,3.548 -6.582,2.57 -7.254,0.696 -7.031,-1.463 c 0.148,-1.421 0.744,-3.136 1.975,-3.689 0.131,-0.059 0.27,-0.088 0.409,-0.088 0.236,0 0.471,0.084 0.656,0.248 L 0,-1.5 c 0.217,0.189 0.341,0.461 0.341,0.75 C 0.341,-0.462 0.217,-0.189 0,0"
             style="fill:#f0f4f4;fill-opacity:1;fill-rule:nonzero;stroke:none"
             id="path3968"
             inkscape:connector-curvature="0" /></g><g
           id="g3970"
           transform="translate(27.4106,47.7397)"><path
             d="M 0,0 C -0.147,1.421 -0.743,3.135 -1.975,3.689 -2.329,3.846 -2.748,3.79 -3.04,3.529 L -7.031,0.037 c -0.217,-0.189 -0.341,-0.462 -0.341,-0.75 0,-0.289 0.124,-0.561 0.341,-0.75 l 3.991,-3.492 c 0.187,-0.164 0.422,-0.248 0.657,-0.248 0.205,0 0.411,0.063 0.586,0.191 C -0.448,-4.034 0.223,-2.159 0,0"
             style="fill:#f0f4f4;fill-opacity:1;fill-rule:nonzero;stroke:none"
             id="path3972"
             inkscape:connector-curvature="0" /></g><g
           id="g3974"
           transform="translate(116.0677,42.6948)"><path
             d="m 0,0 -3.492,3.991 c -0.378,0.432 -1.122,0.432 -1.5,0 L -8.484,0 c -0.257,-0.292 -0.32,-0.709 -0.16,-1.066 0.553,-1.231 2.268,-1.826 3.691,-1.974 0.272,-0.027 0.541,-0.041 0.804,-0.041 1.815,0 3.352,0.661 4.206,1.838 C 0.331,-0.865 0.308,-0.351 0,0"
             style="fill:#f0f4f4;fill-opacity:1;fill-rule:nonzero;stroke:none"
             id="path3976"
             inkscape:connector-curvature="0" /></g><g
           id="g3978"
           transform="translate(121.1925,49.7332)"><path
             d="M 0,0 C -0.148,1.422 -0.742,3.137 -1.974,3.691 -2.329,3.848 -2.746,3.79 -3.04,3.531 L -7.031,0.039 c -0.216,-0.189 -0.341,-0.462 -0.341,-0.75 0,-0.289 0.125,-0.561 0.341,-0.75 l 3.991,-3.492 c 0.187,-0.164 0.421,-0.248 0.657,-0.248 0.204,0 0.411,0.063 0.586,0.191 C -0.448,-4.032 0.222,-2.159 0,0"
             style="fill:#f0f4f4;fill-opacity:1;fill-rule:nonzero;stroke:none"
             id="path3980"
             inkscape:connector-curvature="0" /></g><g
           id="g3982"
           transform="translate(110.3273,89.9268)"><path
             d="m 0,0 14.969,0 c 0.274,0 0.497,-0.223 0.497,-0.497 l 0,-0.004 c 0,-0.274 -0.223,-0.497 -0.497,-0.497 L 0,-0.998 c -0.275,0 -0.497,0.223 -0.497,0.497 l 0,0.004 C -0.497,-0.223 -0.275,0 0,0"
             style="fill:#393536;fill-opacity:1;fill-rule:nonzero;stroke:none"
             id="path3984"
             inkscape:connector-curvature="0" /></g><path
           d="m 114.819,89.927 10.974,0 0,-0.998 -10.974,0 0,0.998 z"
           style="fill:#393536;fill-opacity:1;fill-rule:nonzero;stroke:none"
           id="path3986"
           inkscape:connector-curvature="0" /><g
           id="g3988"
           transform="translate(111.2956,87.9314)"><path
             d="m 0,0 14.03,0 c 0.258,0 0.468,-0.209 0.468,-0.468 l 0,-0.062 c 0,-0.258 -0.21,-0.468 -0.468,-0.468 l -14.03,0 c -0.258,0 -0.468,0.21 -0.468,0.468 l 0,0.062 C -0.468,-0.209 -0.258,0 0,0"
             style="fill:#393536;fill-opacity:1;fill-rule:nonzero;stroke:none"
             id="path3990"
             inkscape:connector-curvature="0" /></g><path
           d="m 114.819,87.931 10.974,0 0,-0.998 -10.974,0 0,0.998 z"
           style="fill:#393536;fill-opacity:1;fill-rule:nonzero;stroke:none"
           id="path3992"
           inkscape:connector-curvature="0" /><g
           id="g3994"
           transform="translate(112.2153,85.936)"><path
             d="m 0,0 13.188,0 c 0.215,0 0.39,-0.174 0.39,-0.39 l 0,-0.218 c 0,-0.215 -0.175,-0.39 -0.39,-0.39 L 0,-0.998 c -0.215,0 -0.39,0.175 -0.39,0.39 l 0,0.218 C -0.39,-0.174 -0.215,0 0,0"
             style="fill:#393536;fill-opacity:1;fill-rule:nonzero;stroke:none"
             id="path3996"
             inkscape:connector-curvature="0" /></g><path
           d="m 114.819,85.936 10.974,0 0,-0.998 -10.974,0 0,0.998 z"
           style="fill:#393536;fill-opacity:1;fill-rule:nonzero;stroke:none"
           id="path3998"
           inkscape:connector-curvature="0" /><g
           id="g4000"
           transform="translate(113.3204,83.9407)"><path
             d="m 0,0 11.976,0 c 0.274,0 0.497,-0.223 0.497,-0.497 l 0,-0.004 c 0,-0.274 -0.223,-0.497 -0.497,-0.497 L 0,-0.998 c -0.275,0 -0.497,0.223 -0.497,0.497 l 0,0.004 C -0.497,-0.223 -0.275,0 0,0"
             style="fill:#393536;fill-opacity:1;fill-rule:nonzero;stroke:none"
             id="path4002"
             inkscape:connector-curvature="0" /></g><path
           d="m 114.819,83.941 10.974,0 0,-0.998 -10.974,0 0,0.998 z"
           style="fill:#393536;fill-opacity:1;fill-rule:nonzero;stroke:none"
           id="path4004"
           inkscape:connector-curvature="0" /><path
           d="m 39.993,83.941 55.87,0 0,-35.916 -55.87,0 0,35.916 z"
           style="fill:#7a8a8b;fill-opacity:1;fill-rule:nonzero;stroke:none"
           id="path4006"
           inkscape:connector-curvature="0" /><path
           d="m 96.86,83.941 0.998,0 0,-35.916 -0.998,0 0,35.916 z"
           style="fill:#7a8a8b;fill-opacity:1;fill-rule:nonzero;stroke:none"
           id="path4008"
           inkscape:connector-curvature="0" /><g
           id="g4010"
           transform="translate(125.7931,81.9453)"><path
             d="m 0,0 -11.475,0 c -0.275,0 -0.497,-0.223 -0.497,-0.497 l 0,-0.004 c 0,-0.274 0.222,-0.497 0.497,-0.497 L 0,-0.998 0,0 z"
             style="fill:#393536;fill-opacity:1;fill-rule:nonzero;stroke:none"
             id="path4012"
             inkscape:connector-curvature="0" /></g></g></g></g></svg>