<?xml version="1.0" encoding="UTF-8" standalone="no"?>
<!-- Created with Inkscape (http://www.inkscape.org/) -->

<svg
   xmlns:dc="http://purl.org/dc/elements/1.1/"
   xmlns:cc="http://creativecommons.org/ns#"
   xmlns:rdf="http://www.w3.org/1999/02/22-rdf-syntax-ns#"
   xmlns:svg="http://www.w3.org/2000/svg"
   xmlns="http://www.w3.org/2000/svg"
   xmlns:sodipodi="http://sodipodi.sourceforge.net/DTD/sodipodi-0.dtd"
   xmlns:inkscape="http://www.inkscape.org/namespaces/inkscape"
   id="svg4473"
   version="1.1"
   inkscape:version="0.48.5 r10040"
   width="256"
   height="256"
   xml:space="preserve"
   sodipodi:docname="GCE - Vectrex_E.svg"
   inkscape:export-filename="/Users/margetts/Desktop/BAXY RetroActive/png_clean/GCE - Vectrex_E.png"
   inkscape:export-xdpi="90"
   inkscape:export-ydpi="90"><metadata
     id="metadata4479"><rdf:RDF><cc:Work
         rdf:about=""><dc:format>image/svg+xml</dc:format><dc:type
           rdf:resource="http://purl.org/dc/dcmitype/StillImage" /><dc:title></dc:title></cc:Work></rdf:RDF></metadata><defs
     id="defs4477"><clipPath
       clipPathUnits="userSpaceOnUse"
       id="clipPath4487"><path
         d="M 0,128 128,128 128,0 0,0 0,128 z"
         id="path4489"
         inkscape:connector-curvature="0" /></clipPath></defs><sodipodi:namedview
     pagecolor="#ffffff"
     bordercolor="#666666"
     borderopacity="1"
     objecttolerance="10"
     gridtolerance="10"
     guidetolerance="10"
     inkscape:pageopacity="0"
     inkscape:pageshadow="2"
     inkscape:window-width="1680"
     inkscape:window-height="1006"
     id="namedview4475"
     showgrid="false"
     inkscape:zoom="3.2421875"
     inkscape:cx="128"
     inkscape:cy="128"
     inkscape:window-x="0"
     inkscape:window-y="0"
     inkscape:window-maximized="1"
     inkscape:current-layer="g4481" /><g
     id="g4481"
     inkscape:groupmode="layer"
     inkscape:label="GCE - Vectrex_E"
     transform="matrix(1.25,0,0,-1.25,0,256)"><g
       id="g4483"
       transform="matrix(1.6000013,0,0,1.6000013,-6.0000125e-5,0.13303691)"><g
         id="g4485"
         clip-path="url(#clipPath4487)"><g
           id="g4491"
           transform="translate(123.4581,90.2598)"><path
             d="m 0,0 -118.916,0 c -2.505,0 -4.542,-2.038 -4.542,-4.542 l 0,-43.603 c 0,-2.504 2.037,-4.541 4.542,-4.541 l 118.916,0 c 2.504,0 4.542,2.037 4.542,4.541 l 0,43.603 C 4.542,-2.038 2.504,0 0,0"
             style="fill:#ffffff;fill-opacity:1;fill-rule:nonzero;stroke:none"
             id="path4493"
             inkscape:connector-curvature="0" /></g><g
           id="g4495"
           transform="translate(4.5419,87.6998)"><path
             d="m 0,0 118.916,0 c 1.095,0 1.982,-0.887 1.982,-1.982 l 0,-43.603 c 0,-1.094 -0.887,-1.981 -1.982,-1.981 L 0,-47.566 c -1.095,0 -1.982,0.887 -1.982,1.981 l 0,43.603 C -1.982,-0.887 -1.095,0 0,0"
             style="fill:#191919;fill-opacity:1;fill-rule:nonzero;stroke:none"
             id="path4497"
             inkscape:connector-curvature="0" /></g><g
           id="g4499"
           transform="translate(8.5058,81.754)"><path
             d="m 0,0 110.988,0 c 1.095,0 1.982,-0.887 1.982,-1.982 l 0,-29.729 c 0,-1.095 -0.887,-1.982 -1.982,-1.982 L 0,-33.693 c -1.095,0 -1.982,0.887 -1.982,1.982 l 0,29.729 C -1.982,-0.887 -1.095,0 0,0"
             style="fill:#262626;fill-opacity:1;fill-rule:nonzero;stroke:none"
             id="path4501"
             inkscape:connector-curvature="0" /></g><g
           id="g4503"
           transform="translate(74.9006,87.6999)"><path
             d="m 0,0 -11.892,0 0,-8.83 0.011,0 c 0,-0.03 -0.011,-0.058 -0.011,-0.089 0,-2.736 2.662,-4.955 5.946,-4.955 3.284,0 5.946,2.219 5.946,4.955 0,0.031 -0.01,0.059 -0.011,0.089 L 0,-8.83 0,0 z"
             style="fill:#0d0d0d;fill-opacity:1;fill-rule:nonzero;stroke:none"
             id="path4505"
             inkscape:connector-curvature="0" /></g><g
           id="g4507"
           transform="translate(108.5936,70.8624)"><path
             d="m 0,0 c -3.115,0 -5.674,-2.405 -5.93,-5.455 l -3.996,0 C -10.181,-2.405 -12.741,0 -15.855,0 c -3.115,0 -5.675,-2.405 -5.93,-5.455 l -3.996,0 c -0.256,3.05 -2.815,5.455 -5.93,5.455 -3.115,0 -5.674,-2.405 -5.93,-5.455 l -3.996,0 C -41.892,-2.405 -44.452,0 -47.566,0 c -3.115,0 -5.675,-2.405 -5.93,-5.455 l -9.942,0 c -0.265,6.33 -5.482,11.401 -11.876,11.401 -6.562,0 -11.9,-5.339 -11.9,-11.901 0,-6.562 5.338,-11.9 11.9,-11.9 6.394,0 11.611,5.071 11.876,11.4 l 9.942,0 c 0.255,-3.05 2.815,-5.455 5.93,-5.455 3.114,0 5.674,2.405 5.929,5.455 l 3.996,0 c 0.256,-3.05 2.815,-5.455 5.93,-5.455 3.115,0 5.674,2.405 5.93,5.455 l 3.996,0 c 0.255,-3.05 2.815,-5.455 5.93,-5.455 3.114,0 5.674,2.405 5.929,5.455 l 3.996,0 c 0.256,-3.05 2.815,-5.455 5.93,-5.455 3.284,0 5.955,2.672 5.955,5.955 C 5.955,-2.671 3.284,0 0,0"
             style="fill:#e6e6e6;fill-opacity:1;fill-rule:nonzero;stroke:none"
             id="path4509"
             inkscape:connector-curvature="0" /></g><g
           id="g4511"
           transform="translate(65.9819,64.9075)"><path
             d="m 0,0 c 0,-2.736 -2.218,-4.955 -4.955,-4.955 -2.736,0 -4.955,2.219 -4.955,4.955 0,2.736 2.219,4.955 4.955,4.955 C -2.218,4.955 0,2.736 0,0"
             style="fill:#191919;fill-opacity:1;fill-rule:nonzero;stroke:none"
             id="path4513"
             inkscape:connector-curvature="0" /></g><g
           id="g4515"
           transform="translate(81.8374,64.9075)"><path
             d="m 0,0 c 0,-2.736 -2.218,-4.955 -4.955,-4.955 -2.736,0 -4.955,2.219 -4.955,4.955 0,2.736 2.219,4.955 4.955,4.955 C -2.218,4.955 0,2.736 0,0"
             style="fill:#191919;fill-opacity:1;fill-rule:nonzero;stroke:none"
             id="path4517"
             inkscape:connector-curvature="0" /></g><g
           id="g4519"
           transform="translate(97.6929,64.9075)"><path
             d="m 0,0 c 0,-2.736 -2.218,-4.955 -4.955,-4.955 -2.736,0 -4.955,2.219 -4.955,4.955 0,2.736 2.219,4.955 4.955,4.955 C -2.218,4.955 0,2.736 0,0"
             style="fill:#191919;fill-opacity:1;fill-rule:nonzero;stroke:none"
             id="path4521"
             inkscape:connector-curvature="0" /></g><g
           id="g4523"
           transform="translate(113.5484,64.9075)"><path
             d="m 0,0 c 0,-2.736 -2.218,-4.955 -4.955,-4.955 -2.736,0 -4.955,2.219 -4.955,4.955 0,2.736 2.219,4.955 4.955,4.955 C -2.218,4.955 0,2.736 0,0"
             style="fill:#191919;fill-opacity:1;fill-rule:nonzero;stroke:none"
             id="path4525"
             inkscape:connector-curvature="0" /></g><g
           id="g4527"
           transform="translate(44.1806,64.9075)"><path
             d="m 0,0 c 0,-6.02 -4.88,-10.901 -10.901,-10.901 -6.02,0 -10.9,4.881 -10.9,10.901 0,6.02 4.88,10.901 10.9,10.901 C -4.88,10.901 0,6.02 0,0"
             style="fill:#191919;fill-opacity:1;fill-rule:nonzero;stroke:none"
             id="path4529"
             inkscape:connector-curvature="0" /></g><g
           id="g4531"
           transform="translate(40.2168,64.9075)"><path
             d="m 0,0 c 0,-3.831 -3.106,-6.937 -6.937,-6.937 -3.831,0 -6.937,3.106 -6.937,6.937 0,3.831 3.106,6.937 6.937,6.937 C -3.106,6.937 0,3.831 0,0"
             style="fill:#262626;fill-opacity:1;fill-rule:nonzero;stroke:none"
             id="path4533"
             inkscape:connector-curvature="0" /></g><g
           id="g4535"
           transform="translate(38.2348,64.9075)"><path
             d="m 0,0 c 0,-2.736 -2.218,-4.955 -4.955,-4.955 -2.736,0 -4.955,2.219 -4.955,4.955 0,2.736 2.219,4.955 4.955,4.955 C -2.218,4.955 0,2.736 0,0"
             style="fill:#191919;fill-opacity:1;fill-rule:nonzero;stroke:none"
             id="path4537"
             inkscape:connector-curvature="0" /></g><g
           id="g4539"
           transform="translate(36.2529,64.9075)"><path
             d="m 0,0 c 0,-1.642 -1.331,-2.973 -2.973,-2.973 -1.642,0 -2.973,1.331 -2.973,2.973 0,1.642 1.331,2.973 2.973,2.973 C -1.331,2.973 0,1.642 0,0"
             style="fill:#bfbfbf;fill-opacity:1;fill-rule:nonzero;stroke:none"
             id="path4541"
             inkscape:connector-curvature="0" /></g><g
           id="g4543"
           transform="translate(33.28,67.8804)"><path
             d="m 0,0 c -1.642,0 -2.973,-1.331 -2.973,-2.973 0,-1.642 1.331,-2.973 2.973,-2.973 1.642,0 2.973,1.331 2.973,2.973 C 2.973,-1.331 1.642,0 0,0 m 0,-0.64 c 1.286,0 2.333,-1.047 2.333,-2.333 0,-1.286 -1.047,-2.333 -2.333,-2.333 -1.286,0 -2.333,1.047 -2.333,2.333 0,1.286 1.047,2.333 2.333,2.333"
             style="fill:#d9d9d9;fill-opacity:1;fill-rule:nonzero;stroke:none"
             id="path4545"
             inkscape:connector-curvature="0" /></g><g
           id="g4547"
           transform="translate(42.625,76.5156)"><path
             d="m 0,0 c 0,-0.285 -0.231,-0.516 -0.516,-0.516 -0.284,0 -0.515,0.231 -0.515,0.516 0,0.285 0.231,0.516 0.515,0.516 C -0.231,0.516 0,0.285 0,0"
             style="fill:#f96a36;fill-opacity:1;fill-rule:nonzero;stroke:none"
             id="path4549"
             inkscape:connector-curvature="0" /></g><g
           id="g4551"
           transform="translate(45.6204,76.5156)"><path
             d="m 0,0 c 0,-0.285 -0.231,-0.516 -0.516,-0.516 -0.284,0 -0.515,0.231 -0.515,0.516 0,0.285 0.231,0.516 0.515,0.516 C -0.231,0.516 0,0.285 0,0"
             style="fill:#f96a36;fill-opacity:1;fill-rule:nonzero;stroke:none"
             id="path4553"
             inkscape:connector-curvature="0" /></g><g
           id="g4555"
           transform="translate(21.2143,76.5156)"><path
             d="m 0,0 c 0,-0.285 -0.231,-0.516 -0.516,-0.516 -0.284,0 -0.515,0.231 -0.515,0.516 0,0.285 0.231,0.516 0.515,0.516 C -0.231,0.516 0,0.285 0,0"
             style="fill:#f96a36;fill-opacity:1;fill-rule:nonzero;stroke:none"
             id="path4557"
             inkscape:connector-curvature="0" /></g><g
           id="g4559"
           transform="translate(24.2097,76.5156)"><path
             d="m 0,0 c 0,-0.285 -0.231,-0.516 -0.516,-0.516 -0.284,0 -0.515,0.231 -0.515,0.516 0,0.285 0.231,0.516 0.515,0.516 C -0.231,0.516 0,0.285 0,0"
             style="fill:#f96a36;fill-opacity:1;fill-rule:nonzero;stroke:none"
             id="path4561"
             inkscape:connector-curvature="0" /></g><g
           id="g4563"
           transform="translate(48.6157,76.5156)"><path
             d="m 0,0 c 0,-0.285 -0.231,-0.516 -0.516,-0.516 -0.284,0 -0.515,0.231 -0.515,0.516 0,0.285 0.231,0.516 0.515,0.516 C -0.231,0.516 0,0.285 0,0"
             style="fill:#f96a36;fill-opacity:1;fill-rule:nonzero;stroke:none"
             id="path4565"
             inkscape:connector-curvature="0" /></g><g
           id="g4567"
           transform="translate(51.6111,76.5156)"><path
             d="m 0,0 c 0,-0.285 -0.231,-0.516 -0.516,-0.516 -0.284,0 -0.515,0.231 -0.515,0.516 0,0.285 0.231,0.516 0.515,0.516 C -0.231,0.516 0,0.285 0,0"
             style="fill:#f96a36;fill-opacity:1;fill-rule:nonzero;stroke:none"
             id="path4569"
             inkscape:connector-curvature="0" /></g><g
           id="g4571"
           transform="translate(54.6064,76.5156)"><path
             d="m 0,0 c 0,-0.285 -0.231,-0.516 -0.516,-0.516 -0.284,0 -0.515,0.231 -0.515,0.516 0,0.285 0.231,0.516 0.515,0.516 C -0.231,0.516 0,0.285 0,0"
             style="fill:#f96a36;fill-opacity:1;fill-rule:nonzero;stroke:none"
             id="path4573"
             inkscape:connector-curvature="0" /></g><g
           id="g4575"
           transform="translate(57.6018,76.5156)"><path
             d="m 0,0 c 0,-0.285 -0.231,-0.516 -0.516,-0.516 -0.284,0 -0.515,0.231 -0.515,0.516 0,0.285 0.231,0.516 0.515,0.516 C -0.231,0.516 0,0.285 0,0"
             style="fill:#f96a36;fill-opacity:1;fill-rule:nonzero;stroke:none"
             id="path4577"
             inkscape:connector-curvature="0" /></g><g
           id="g4579"
           transform="translate(60.5972,76.5156)"><path
             d="m 0,0 c 0,-0.285 -0.231,-0.516 -0.516,-0.516 -0.284,0 -0.515,0.231 -0.515,0.516 0,0.285 0.231,0.516 0.515,0.516 C -0.231,0.516 0,0.285 0,0"
             style="fill:#f96a36;fill-opacity:1;fill-rule:nonzero;stroke:none"
             id="path4581"
             inkscape:connector-curvature="0" /></g><g
           id="g4583"
           transform="translate(79.2893,76.5156)"><path
             d="m 0,0 c 0,-0.285 -0.231,-0.516 -0.516,-0.516 -0.284,0 -0.515,0.231 -0.515,0.516 0,0.285 0.231,0.516 0.515,0.516 C -0.231,0.516 0,0.285 0,0"
             style="fill:#f96a36;fill-opacity:1;fill-rule:nonzero;stroke:none"
             id="path4585"
             inkscape:connector-curvature="0" /></g><g
           id="g4587"
           transform="translate(82.2847,76.5156)"><path
             d="m 0,0 c 0,-0.285 -0.231,-0.516 -0.516,-0.516 -0.284,0 -0.515,0.231 -0.515,0.516 0,0.285 0.231,0.516 0.515,0.516 C -0.231,0.516 0,0.285 0,0"
             style="fill:#f96a36;fill-opacity:1;fill-rule:nonzero;stroke:none"
             id="path4589"
             inkscape:connector-curvature="0" /></g></g></g></g></svg>