<?xml version="1.0" encoding="UTF-8" standalone="no"?>
<!-- Created with Inkscape (http://www.inkscape.org/) -->

<svg
   xmlns:dc="http://purl.org/dc/elements/1.1/"
   xmlns:cc="http://creativecommons.org/ns#"
   xmlns:rdf="http://www.w3.org/1999/02/22-rdf-syntax-ns#"
   xmlns:svg="http://www.w3.org/2000/svg"
   xmlns="http://www.w3.org/2000/svg"
   xmlns:sodipodi="http://sodipodi.sourceforge.net/DTD/sodipodi-0.dtd"
   xmlns:inkscape="http://www.inkscape.org/namespaces/inkscape"
   id="svg5018"
   version="1.1"
   inkscape:version="0.48.5 r10040"
   width="256"
   height="256"
   xml:space="preserve"
   sodipodi:docname="Microsoft - MSX2.svg"
   inkscape:export-filename="/Users/margetts/Desktop/BAXY RetroActive/png_clean/Microsoft - MSX2.png"
   inkscape:export-xdpi="90"
   inkscape:export-ydpi="90"><metadata
     id="metadata5024"><rdf:RDF><cc:Work
         rdf:about=""><dc:format>image/svg+xml</dc:format><dc:type
           rdf:resource="http://purl.org/dc/dcmitype/StillImage" /><dc:title></dc:title></cc:Work></rdf:RDF></metadata><defs
     id="defs5022"><clipPath
       clipPathUnits="userSpaceOnUse"
       id="clipPath5192"><path
         d="M 0,128 128,128 128,0 0,0 0,128 z"
         id="path5194"
         inkscape:connector-curvature="0" /></clipPath></defs><sodipodi:namedview
     pagecolor="#ffffff"
     bordercolor="#666666"
     borderopacity="1"
     objecttolerance="10"
     gridtolerance="10"
     guidetolerance="10"
     inkscape:pageopacity="0"
     inkscape:pageshadow="2"
     inkscape:window-width="1676"
     inkscape:window-height="1005"
     id="namedview5020"
     showgrid="false"
     inkscape:zoom="3.2382812"
     inkscape:cx="128"
     inkscape:cy="128"
     inkscape:window-x="4"
     inkscape:window-y="1"
     inkscape:window-maximized="1"
     inkscape:current-layer="g5026" /><g
     id="g5026"
     inkscape:groupmode="layer"
     inkscape:label="Microsoft - MSX2"
     transform="matrix(1.25,0,0,-1.25,0,256)"><g
       id="g5448"
       transform="translate(0,10.0835)"><g
         transform="matrix(1.6,0,0,1.6,200.7042,164.3205)"
         id="g5028"><path
           inkscape:connector-curvature="0"
           id="path5030"
           style="fill:#ffffff;fill-opacity:1;fill-rule:nonzero;stroke:none"
           d="m 0,0 -122.881,0 -2.559,0 0,-2.561 0,-36.135 0,-2.561 1.853,0 0,-46.188 0,-2.56 2.56,0 118.837,0 2.56,0 0,2.56 0,46.188 2.19,0 L 2.56,0 0,0 z" /></g><path
         inkscape:connector-curvature="0"
         id="path5032"
         style="fill:#4c4c4c;fill-opacity:1;fill-rule:nonzero;stroke:none"
         d="m 197.20148,24.4093 -190.1408,0 0,73.9872 190.1408,0 0,-73.9872 z" /><path
         inkscape:connector-curvature="0"
         id="path5034"
         style="fill:#595959;fill-opacity:1;fill-rule:nonzero;stroke:none"
         d="m 200.70388,102.4061 -196.608,0 0,57.8176 196.608,0 0,-57.8176 z" /><path
         inkscape:connector-curvature="0"
         id="path5036"
         style="fill:#404040;fill-opacity:1;fill-rule:nonzero;stroke:none"
         d="m 21.70228,74.1453 -7.7104,0 0,7.7104 7.7104,0 0,-7.7104 z" /><path
         inkscape:connector-curvature="0"
         id="path5038"
         style="fill:#404040;fill-opacity:1;fill-rule:nonzero;stroke:none"
         d="m 30.80468,74.1453 -7.7104,0 0,7.7104 7.7104,0 0,-7.7104 z" /><path
         inkscape:connector-curvature="0"
         id="path5040"
         style="fill:#404040;fill-opacity:1;fill-rule:nonzero;stroke:none"
         d="m 39.91348,74.1453 -7.7104,0 0,7.7104 7.7104,0 0,-7.7104 z" /><path
         inkscape:connector-curvature="0"
         id="path5042"
         style="fill:#404040;fill-opacity:1;fill-rule:nonzero;stroke:none"
         d="m 49.02228,74.1453 -7.7104,0 0,7.7104 7.7104,0 0,-7.7104 z" /><path
         inkscape:connector-curvature="0"
         id="path5044"
         style="fill:#404040;fill-opacity:1;fill-rule:nonzero;stroke:none"
         d="m 162.94868,81.8557 -7.7104,0 0,7.7104 7.7104,0 0,-7.7104 z" /><path
         inkscape:connector-curvature="0"
         id="path5046"
         style="fill:#404040;fill-opacity:1;fill-rule:nonzero;stroke:none"
         d="m 172.05268,81.8557 -7.7104,0 0,7.7104 7.7104,0 0,-7.7104 z" /><path
         inkscape:connector-curvature="0"
         id="path5048"
         style="fill:#404040;fill-opacity:1;fill-rule:nonzero;stroke:none"
         d="m 181.16148,81.8557 -7.7104,0 0,7.7104 7.7104,0 0,-7.7104 z" /><path
         inkscape:connector-curvature="0"
         id="path5050"
         style="fill:#404040;fill-opacity:1;fill-rule:nonzero;stroke:none"
         d="m 190.27028,81.8557 -7.7104,0 0,7.7104 7.7104,0 0,-7.7104 z" /><path
         inkscape:connector-curvature="0"
         id="path5052"
         style="fill:#404040;fill-opacity:1;fill-rule:nonzero;stroke:none"
         d="m 162.94868,72.3277 -7.7104,0 0,7.7104 7.7104,0 0,-7.7104 z" /><path
         inkscape:connector-curvature="0"
         id="path5054"
         style="fill:#404040;fill-opacity:1;fill-rule:nonzero;stroke:none"
         d="m 172.05268,72.3277 -7.7104,0 0,7.7104 7.7104,0 0,-7.7104 z" /><path
         inkscape:connector-curvature="0"
         id="path5056"
         style="fill:#404040;fill-opacity:1;fill-rule:nonzero;stroke:none"
         d="m 181.16148,72.3277 -7.7104,0 0,7.7104 7.7104,0 0,-7.7104 z" /><path
         inkscape:connector-curvature="0"
         id="path5058"
         style="fill:#404040;fill-opacity:1;fill-rule:nonzero;stroke:none"
         d="m 190.27028,72.3277 -7.7104,0 0,7.7104 7.7104,0 0,-7.7104 z" /><path
         inkscape:connector-curvature="0"
         id="path5060"
         style="fill:#404040;fill-opacity:1;fill-rule:nonzero;stroke:none"
         d="m 162.94868,62.7981 -7.7104,0 0,7.7104 7.7104,0 0,-7.7104 z" /><path
         inkscape:connector-curvature="0"
         id="path5062"
         style="fill:#404040;fill-opacity:1;fill-rule:nonzero;stroke:none"
         d="m 172.05268,62.7981 -7.7104,0 0,7.7104 7.7104,0 0,-7.7104 z" /><path
         inkscape:connector-curvature="0"
         id="path5064"
         style="fill:#404040;fill-opacity:1;fill-rule:nonzero;stroke:none"
         d="m 181.16148,62.7981 -7.7104,0 0,7.7104 7.7104,0 0,-7.7104 z" /><path
         inkscape:connector-curvature="0"
         id="path5066"
         style="fill:#404040;fill-opacity:1;fill-rule:nonzero;stroke:none"
         d="m 190.27028,62.7981 -7.7104,0 0,7.7104 7.7104,0 0,-7.7104 z" /><path
         inkscape:connector-curvature="0"
         id="path5068"
         style="fill:#404040;fill-opacity:1;fill-rule:nonzero;stroke:none"
         d="m 162.94868,53.2701 -7.7104,0 0,7.7104 7.7104,0 0,-7.7104 z" /><path
         inkscape:connector-curvature="0"
         id="path5070"
         style="fill:#404040;fill-opacity:1;fill-rule:nonzero;stroke:none"
         d="m 172.05268,53.2701 -7.7104,0 0,7.7104 7.7104,0 0,-7.7104 z" /><path
         inkscape:connector-curvature="0"
         id="path5072"
         style="fill:#404040;fill-opacity:1;fill-rule:nonzero;stroke:none"
         d="m 181.16148,53.2701 -7.7104,0 0,7.7104 7.7104,0 0,-7.7104 z" /><path
         inkscape:connector-curvature="0"
         id="path5074"
         style="fill:#404040;fill-opacity:1;fill-rule:nonzero;stroke:none"
         d="m 190.27028,53.2701 -7.7104,0 0,7.7104 7.7104,0 0,-7.7104 z" /><path
         inkscape:connector-curvature="0"
         id="path5076"
         style="fill:#404040;fill-opacity:1;fill-rule:nonzero;stroke:none"
         d="m 58.13108,74.1453 -7.7104,0 0,7.7104 7.7104,0 0,-7.7104 z" /><path
         inkscape:connector-curvature="0"
         id="path5078"
         style="fill:#404040;fill-opacity:1;fill-rule:nonzero;stroke:none"
         d="m 67.23988,74.1453 -7.7104,0 0,7.7104 7.7104,0 0,-7.7104 z" /><path
         inkscape:connector-curvature="0"
         id="path5080"
         style="fill:#404040;fill-opacity:1;fill-rule:nonzero;stroke:none"
         d="m 76.34868,74.1453 -7.7104,0 0,7.7104 7.7104,0 0,-7.7104 z" /><path
         inkscape:connector-curvature="0"
         id="path5082"
         style="fill:#404040;fill-opacity:1;fill-rule:nonzero;stroke:none"
         d="m 85.45748,74.1453 -7.7104,0 0,7.7104 7.7104,0 0,-7.7104 z" /><path
         inkscape:connector-curvature="0"
         id="path5084"
         style="fill:#404040;fill-opacity:1;fill-rule:nonzero;stroke:none"
         d="m 94.56628,74.1453 -7.7104,0 0,7.7104 7.7104,0 0,-7.7104 z" /><path
         inkscape:connector-curvature="0"
         id="path5086"
         style="fill:#404040;fill-opacity:1;fill-rule:nonzero;stroke:none"
         d="m 103.67508,74.1453 -7.7104,0 0,7.7104 7.7104,0 0,-7.7104 z" /><path
         inkscape:connector-curvature="0"
         id="path5088"
         style="fill:#404040;fill-opacity:1;fill-rule:nonzero;stroke:none"
         d="m 112.78388,74.1453 -7.7104,0 0,7.7104 7.7104,0 0,-7.7104 z" /><path
         inkscape:connector-curvature="0"
         id="path5090"
         style="fill:#404040;fill-opacity:1;fill-rule:nonzero;stroke:none"
         d="m 121.89268,74.1453 -7.7104,0 0,7.7104 7.7104,0 0,-7.7104 z" /><path
         inkscape:connector-curvature="0"
         id="path5092"
         style="fill:#404040;fill-opacity:1;fill-rule:nonzero;stroke:none"
         d="m 131.00148,74.1453 -7.7104,0 0,7.7104 7.7104,0 0,-7.7104 z" /><path
         inkscape:connector-curvature="0"
         id="path5094"
         style="fill:#404040;fill-opacity:1;fill-rule:nonzero;stroke:none"
         d="m 34.66068,64.6157 -7.7104,0 0,7.7104 7.7104,0 0,-7.7104 z" /><path
         inkscape:connector-curvature="0"
         id="path5096"
         style="fill:#404040;fill-opacity:1;fill-rule:nonzero;stroke:none"
         d="m 25.72948,64.6157 -11.7392,0 0,7.7104 11.7392,0 0,-7.7104 z" /><path
         inkscape:connector-curvature="0"
         id="path5098"
         style="fill:#404040;fill-opacity:1;fill-rule:nonzero;stroke:none"
         d="m 43.76948,64.6157 -7.7104,0 0,7.7104 7.7104,0 0,-7.7104 z" /><path
         inkscape:connector-curvature="0"
         id="path5100"
         style="fill:#404040;fill-opacity:1;fill-rule:nonzero;stroke:none"
         d="m 52.87828,64.6157 -7.7104,0 0,7.7104 7.7104,0 0,-7.7104 z" /><path
         inkscape:connector-curvature="0"
         id="path5102"
         style="fill:#404040;fill-opacity:1;fill-rule:nonzero;stroke:none"
         d="m 61.98708,64.6157 -7.7104,0 0,7.7104 7.7104,0 0,-7.7104 z" /><path
         inkscape:connector-curvature="0"
         id="path5104"
         style="fill:#404040;fill-opacity:1;fill-rule:nonzero;stroke:none"
         d="m 71.09588,64.6157 -7.7104,0 0,7.7104 7.7104,0 0,-7.7104 z" /><path
         inkscape:connector-curvature="0"
         id="path5106"
         style="fill:#404040;fill-opacity:1;fill-rule:nonzero;stroke:none"
         d="m 80.20468,64.6157 -7.7104,0 0,7.7104 7.7104,0 0,-7.7104 z" /><path
         inkscape:connector-curvature="0"
         id="path5108"
         style="fill:#404040;fill-opacity:1;fill-rule:nonzero;stroke:none"
         d="m 89.31348,64.6157 -7.7104,0 0,7.7104 7.7104,0 0,-7.7104 z" /><path
         inkscape:connector-curvature="0"
         id="path5110"
         style="fill:#404040;fill-opacity:1;fill-rule:nonzero;stroke:none"
         d="m 98.42228,64.6157 -7.7104,0 0,7.7104 7.7104,0 0,-7.7104 z" /><path
         inkscape:connector-curvature="0"
         id="path5112"
         style="fill:#404040;fill-opacity:1;fill-rule:nonzero;stroke:none"
         d="m 107.53108,64.6157 -7.7104,0 0,7.7104 7.7104,0 0,-7.7104 z" /><path
         inkscape:connector-curvature="0"
         id="path5114"
         style="fill:#404040;fill-opacity:1;fill-rule:nonzero;stroke:none"
         d="m 116.63988,64.6157 -7.7104,0 0,7.7104 7.7104,0 0,-7.7104 z" /><path
         inkscape:connector-curvature="0"
         id="path5116"
         style="fill:#404040;fill-opacity:1;fill-rule:nonzero;stroke:none"
         d="m 125.74868,64.6157 -7.7104,0 0,7.7104 7.7104,0 0,-7.7104 z" /><path
         inkscape:connector-curvature="0"
         id="path5118"
         style="fill:#404040;fill-opacity:1;fill-rule:nonzero;stroke:none"
         d="m 134.85748,64.6157 -7.7104,0 0,7.7104 7.7104,0 0,-7.7104 z" /><path
         inkscape:connector-curvature="0"
         id="path5120"
         style="fill:#404040;fill-opacity:1;fill-rule:nonzero;stroke:none"
         d="m 38.51508,55.0877 -7.7104,0 0,7.7104 7.7104,0 0,-7.7104 z" /><path
         inkscape:connector-curvature="0"
         id="path5122"
         style="fill:#404040;fill-opacity:1;fill-rule:nonzero;stroke:none"
         d="m 29.56628,55.0877 -15.5744,0 0,7.7104 15.5744,0 0,-7.7104 z" /><path
         inkscape:connector-curvature="0"
         id="path5124"
         style="fill:#404040;fill-opacity:1;fill-rule:nonzero;stroke:none"
         d="m 47.62388,55.0877 -7.7104,0 0,7.7104 7.7104,0 0,-7.7104 z" /><path
         inkscape:connector-curvature="0"
         id="path5126"
         style="fill:#404040;fill-opacity:1;fill-rule:nonzero;stroke:none"
         d="m 56.73268,55.0877 -7.7104,0 0,7.7104 7.7104,0 0,-7.7104 z" /><path
         inkscape:connector-curvature="0"
         id="path5128"
         style="fill:#404040;fill-opacity:1;fill-rule:nonzero;stroke:none"
         d="m 65.84148,55.0877 -7.7104,0 0,7.7104 7.7104,0 0,-7.7104 z" /><path
         inkscape:connector-curvature="0"
         id="path5130"
         style="fill:#404040;fill-opacity:1;fill-rule:nonzero;stroke:none"
         d="m 74.95028,55.0877 -7.7104,0 0,7.7104 7.7104,0 0,-7.7104 z" /><path
         inkscape:connector-curvature="0"
         id="path5132"
         style="fill:#404040;fill-opacity:1;fill-rule:nonzero;stroke:none"
         d="m 84.05908,55.0877 -7.7104,0 0,7.7104 7.7104,0 0,-7.7104 z" /><path
         inkscape:connector-curvature="0"
         id="path5134"
         style="fill:#404040;fill-opacity:1;fill-rule:nonzero;stroke:none"
         d="m 93.16948,55.0877 -7.7104,0 0,7.7104 7.7104,0 0,-7.7104 z" /><path
         inkscape:connector-curvature="0"
         id="path5136"
         style="fill:#404040;fill-opacity:1;fill-rule:nonzero;stroke:none"
         d="m 102.27828,55.0877 -7.7104,0 0,7.7104 7.7104,0 0,-7.7104 z" /><path
         inkscape:connector-curvature="0"
         id="path5138"
         style="fill:#404040;fill-opacity:1;fill-rule:nonzero;stroke:none"
         d="m 111.38708,55.0877 -7.7104,0 0,7.7104 7.7104,0 0,-7.7104 z" /><path
         inkscape:connector-curvature="0"
         id="path5140"
         style="fill:#404040;fill-opacity:1;fill-rule:nonzero;stroke:none"
         d="m 120.49588,55.0877 -7.7104,0 0,7.7104 7.7104,0 0,-7.7104 z" /><path
         inkscape:connector-curvature="0"
         id="path5142"
         style="fill:#404040;fill-opacity:1;fill-rule:nonzero;stroke:none"
         d="m 129.60468,55.0877 -7.7104,0 0,7.7104 7.7104,0 0,-7.7104 z" /><path
         inkscape:connector-curvature="0"
         id="path5144"
         style="fill:#404040;fill-opacity:1;fill-rule:nonzero;stroke:none"
         d="m 138.71348,55.0877 -7.7104,0 0,7.7104 7.7104,0 0,-7.7104 z" /><path
         inkscape:connector-curvature="0"
         id="path5146"
         style="fill:#404040;fill-opacity:1;fill-rule:nonzero;stroke:none"
         d="m 42.37108,45.5581 -7.7104,0 0,7.7104 7.7104,0 0,-7.7104 z" /><path
         inkscape:connector-curvature="0"
         id="path5148"
         style="fill:#404040;fill-opacity:1;fill-rule:nonzero;stroke:none"
         d="m 38.51508,36.2797 -7.7104,0 0,7.7104 7.7104,0 0,-7.7104 z" /><path
         inkscape:connector-curvature="0"
         id="path5150"
         style="fill:#404040;fill-opacity:1;fill-rule:nonzero;stroke:none"
         d="m 48.01908,36.2797 -7.7104,0 0,7.7104 7.7104,0 0,-7.7104 z" /><path
         inkscape:connector-curvature="0"
         id="path5152"
         style="fill:#404040;fill-opacity:1;fill-rule:nonzero;stroke:none"
         d="m 131.00148,36.2797 -7.7104,0 0,7.7104 7.7104,0 0,-7.7104 z" /><path
         inkscape:connector-curvature="0"
         id="path5154"
         style="fill:#404040;fill-opacity:1;fill-rule:nonzero;stroke:none"
         d="m 33.35028,45.5581 -19.3584,0 0,7.7104 19.3584,0 0,-7.7104 z" /><path
         inkscape:connector-curvature="0"
         id="path5156"
         style="fill:#404040;fill-opacity:1;fill-rule:nonzero;stroke:none"
         d="m 51.47988,45.5581 -7.7104,0 0,7.7104 7.7104,0 0,-7.7104 z" /><path
         inkscape:connector-curvature="0"
         id="path5158"
         style="fill:#404040;fill-opacity:1;fill-rule:nonzero;stroke:none"
         d="m 60.58868,45.5581 -7.7104,0 0,7.7104 7.7104,0 0,-7.7104 z" /><path
         inkscape:connector-curvature="0"
         id="path5160"
         style="fill:#404040;fill-opacity:1;fill-rule:nonzero;stroke:none"
         d="m 121.19188,36.2797 -72.168,0 0,7.7104 72.168,0 0,-7.7104 z" /><path
         inkscape:connector-curvature="0"
         id="path5162"
         style="fill:#404040;fill-opacity:1;fill-rule:nonzero;stroke:none"
         d="m 69.69748,45.5581 -7.7104,0 0,7.7104 7.7104,0 0,-7.7104 z" /><path
         inkscape:connector-curvature="0"
         id="path5164"
         style="fill:#404040;fill-opacity:1;fill-rule:nonzero;stroke:none"
         d="m 78.80628,45.5581 -7.7104,0 0,7.7104 7.7104,0 0,-7.7104 z" /><path
         inkscape:connector-curvature="0"
         id="path5166"
         style="fill:#404040;fill-opacity:1;fill-rule:nonzero;stroke:none"
         d="m 87.91508,45.5581 -7.7104,0 0,7.7104 7.7104,0 0,-7.7104 z" /><path
         inkscape:connector-curvature="0"
         id="path5168"
         style="fill:#404040;fill-opacity:1;fill-rule:nonzero;stroke:none"
         d="m 97.02388,45.5581 -7.7104,0 0,7.7104 7.7104,0 0,-7.7104 z" /><path
         inkscape:connector-curvature="0"
         id="path5170"
         style="fill:#404040;fill-opacity:1;fill-rule:nonzero;stroke:none"
         d="m 106.13268,45.5581 -7.7104,0 0,7.7104 7.7104,0 0,-7.7104 z" /><path
         inkscape:connector-curvature="0"
         id="path5172"
         style="fill:#404040;fill-opacity:1;fill-rule:nonzero;stroke:none"
         d="m 115.24148,45.5581 -7.7104,0 0,7.7104 7.7104,0 0,-7.7104 z" /><path
         inkscape:connector-curvature="0"
         id="path5174"
         style="fill:#404040;fill-opacity:1;fill-rule:nonzero;stroke:none"
         d="m 124.35028,45.5581 -7.7104,0 0,7.7104 7.7104,0 0,-7.7104 z" /><path
         inkscape:connector-curvature="0"
         id="path5176"
         style="fill:#404040;fill-opacity:1;fill-rule:nonzero;stroke:none"
         d="m 133.45908,45.5581 -7.7104,0 0,7.7104 7.7104,0 0,-7.7104 z" /><path
         inkscape:connector-curvature="0"
         id="path5178"
         style="fill:#404040;fill-opacity:1;fill-rule:nonzero;stroke:none"
         d="m 149.22068,45.5581 -14.3616,0 0,7.7104 14.3616,0 0,-7.7104 z" /><path
         inkscape:connector-curvature="0"
         id="path5180"
         style="fill:#404040;fill-opacity:1;fill-rule:nonzero;stroke:none"
         d="m 140.11028,74.1453 -7.7104,0 0,7.7104 7.7104,0 0,-7.7104 z" /><path
         inkscape:connector-curvature="0"
         id="path5182"
         style="fill:#404040;fill-opacity:1;fill-rule:nonzero;stroke:none"
         d="m 149.22068,74.1453 -7.7104,0 0,7.7104 7.7104,0 0,-7.7104 z" /><g
         transform="matrix(1.6,0,0,1.6,143.61316,72.32722)"
         id="g5184"><path
           inkscape:connector-curvature="0"
           id="path5186"
           style="fill:#404040;fill-opacity:1;fill-rule:nonzero;stroke:none"
           d="m 0,0 -1.315,0 -3.504,0 0,-4.819 3.504,0 0,-5.956 4.819,0 L 3.504,0 0,0 z" /></g><g
         transform="matrix(1.6,0,0,1.6,-1.2e-4,-12.1875)"
         id="g5188"><g
           clip-path="url(#clipPath5192)"
           id="g5190"><g
             transform="translate(14.4925,61.1869)"
             id="g5196"><path
               inkscape:connector-curvature="0"
               id="path5198"
               style="fill:#404040;fill-opacity:1;fill-rule:nonzero;stroke:none"
               d="m 0,0 -4.748,0 c -0.552,0 -1,0.448 -1,1 l 0,0.41 c 0,0.552 0.448,1 1,1 L 0,2.41 c 0.552,0 1,-0.448 1,-1 L 1,1 C 1,0.448 0.552,0 0,0" /></g><g
             transform="translate(22.1696,61.1869)"
             id="g5200"><path
               inkscape:connector-curvature="0"
               id="path5202"
               style="fill:#404040;fill-opacity:1;fill-rule:nonzero;stroke:none"
               d="m 0,0 -4.748,0 c -0.552,0 -1,0.448 -1,1 l 0,0.41 c 0,0.552 0.448,1 1,1 L 0,2.41 c 0.552,0 1,-0.448 1,-1 L 1,1 C 1,0.448 0.552,0 0,0" /></g><g
             transform="translate(29.8468,61.1869)"
             id="g5204"><path
               inkscape:connector-curvature="0"
               id="path5206"
               style="fill:#404040;fill-opacity:1;fill-rule:nonzero;stroke:none"
               d="m 0,0 -4.748,0 c -0.552,0 -1,0.448 -1,1 l 0,0.41 c 0,0.552 0.448,1 1,1 L 0,2.41 c 0.552,0 1,-0.448 1,-1 L 1,1 C 1,0.448 0.552,0 0,0" /></g><g
             transform="translate(37.524,61.1869)"
             id="g5208"><path
               inkscape:connector-curvature="0"
               id="path5210"
               style="fill:#404040;fill-opacity:1;fill-rule:nonzero;stroke:none"
               d="m 0,0 -4.748,0 c -0.552,0 -1,0.448 -1,1 l 0,0.41 c 0,0.552 0.448,1 1,1 L 0,2.41 c 0.552,0 1,-0.448 1,-1 L 1,1 C 1,0.448 0.552,0 0,0" /></g><g
             transform="translate(45.2011,61.1869)"
             id="g5212"><path
               inkscape:connector-curvature="0"
               id="path5214"
               style="fill:#404040;fill-opacity:1;fill-rule:nonzero;stroke:none"
               d="m 0,0 -4.748,0 c -0.552,0 -1,0.448 -1,1 l 0,0.41 c 0,0.552 0.448,1 1,1 L 0,2.41 c 0.552,0 1,-0.448 1,-1 L 1,1 C 1,0.448 0.552,0 0,0" /></g><g
             transform="translate(52.8783,61.1869)"
             id="g5216"><path
               inkscape:connector-curvature="0"
               id="path5218"
               style="fill:#404040;fill-opacity:1;fill-rule:nonzero;stroke:none"
               d="m 0,0 -4.748,0 c -0.552,0 -1,0.448 -1,1 l 0,0.41 c 0,0.552 0.448,1 1,1 L 0,2.41 c 0.552,0 1,-0.448 1,-1 L 1,1 C 1,0.448 0.552,0 0,0" /></g><g
             transform="translate(60.5554,61.1869)"
             id="g5220"><path
               inkscape:connector-curvature="0"
               id="path5222"
               style="fill:#404040;fill-opacity:1;fill-rule:nonzero;stroke:none"
               d="m 0,0 -4.748,0 c -0.552,0 -1,0.448 -1,1 l 0,0.41 c 0,0.552 0.448,1 1,1 L 0,2.41 c 0.552,0 1,-0.448 1,-1 L 1,1 C 1,0.448 0.552,0 0,0" /></g><g
             transform="translate(68.2326,61.1869)"
             id="g5224"><path
               inkscape:connector-curvature="0"
               id="path5226"
               style="fill:#404040;fill-opacity:1;fill-rule:nonzero;stroke:none"
               d="m 0,0 -4.748,0 c -0.552,0 -1,0.448 -1,1 l 0,0.41 c 0,0.552 0.448,1 1,1 L 0,2.41 c 0.552,0 1,-0.448 1,-1 L 1,1 C 1,0.448 0.552,0 0,0" /></g><g
             transform="translate(78.4967,61.1869)"
             id="g5228"><path
               inkscape:connector-curvature="0"
               id="path5230"
               style="fill:#404040;fill-opacity:1;fill-rule:nonzero;stroke:none"
               d="m 0,0 -4.748,0 c -0.552,0 -1,0.448 -1,1 l 0,0.41 c 0,0.552 0.448,1 1,1 L 0,2.41 c 0.552,0 1,-0.448 1,-1 L 1,1 C 1,0.448 0.552,0 0,0" /></g><g
             transform="translate(86.1739,61.1869)"
             id="g5232"><path
               inkscape:connector-curvature="0"
               id="path5234"
               style="fill:#ffc500;fill-opacity:1;fill-rule:nonzero;stroke:none"
               d="m 0,0 -4.748,0 c -0.552,0 -1,0.448 -1,1 l 0,0.41 c 0,0.552 0.448,1 1,1 L 0,2.41 c 0.552,0 1,-0.448 1,-1 L 1,1 C 1,0.448 0.552,0 0,0" /></g><g
             transform="translate(91.7372,62.2784)"
             id="g5236"><path
               inkscape:connector-curvature="0"
               id="path5238"
               style="fill:#ff0000;fill-opacity:1;fill-rule:nonzero;stroke:none"
               d="m 0,0 c 0,-0.728 -0.59,-1.318 -1.318,-1.318 -0.728,0 -1.318,0.59 -1.318,1.318 0,0.728 0.59,1.318 1.318,1.318 C -0.59,1.318 0,0.728 0,0" /></g><g
             transform="translate(101.0234,38.501)"
             id="g5240"><path
               inkscape:connector-curvature="0"
               id="path5242"
               style="fill:#404040;fill-opacity:1;fill-rule:nonzero;stroke:none"
               d="m 0,0 -3.999,0 0,-9.969 3.999,0 2.802,5.228 L 0,0 z" /></g><g
             transform="translate(114.5421,38.501)"
             id="g5244"><path
               inkscape:connector-curvature="0"
               id="path5246"
               style="fill:#404040;fill-opacity:1;fill-rule:nonzero;stroke:none"
               d="m 0,0 3.999,0 0,-9.969 -3.999,0 -2.802,5.228 L 0,0 z" /></g><g
             transform="translate(101.8434,38.501)"
             id="g5248"><path
               inkscape:connector-curvature="0"
               id="path5250"
               style="fill:#404040;fill-opacity:1;fill-rule:nonzero;stroke:none"
               d="m 0,0 2.683,-4.741 6.29,0 L 11.791,0 0,0 z" /></g><g
             transform="translate(113.6348,28.5318)"
             id="g5252"><path
               inkscape:connector-curvature="0"
               id="path5254"
               style="fill:#404040;fill-opacity:1;fill-rule:nonzero;stroke:none"
               d="m 0,0 -2.683,4.741 -6.29,0 L -11.791,0 0,0 z" /></g><path
             inkscape:connector-curvature="0"
             id="path5256"
             style="fill:#4c4c4c;fill-opacity:1;fill-rule:nonzero;stroke:none"
             d="m 117.47,74.531 -107.277,0 0,11.034 107.277,0 0,-11.034 z" /><path
             inkscape:connector-curvature="0"
             id="path5258"
             style="fill:#333333;fill-opacity:1;fill-rule:nonzero;stroke:none"
             d="m 121.975,69.115 -116.287,0 0,2.749 116.287,0 0,-2.749 z" /><path
             inkscape:connector-curvature="0"
             id="path5260"
             style="fill:#23282a;fill-opacity:1;fill-rule:nonzero;stroke:none"
             d="m 117.47,66.366 -107.277,0 0,10.509 107.277,0 0,-10.509 z" /><path
             inkscape:connector-curvature="0"
             id="path5262"
             style="fill:#4c4c4c;fill-opacity:1;fill-rule:nonzero;stroke:none"
             d="m 67.234,78.654 -32.984,0 0,5.174 32.984,0 0,-5.174 z" /><path
             inkscape:connector-curvature="0"
             id="path5264"
             style="fill:#404040;fill-opacity:1;fill-rule:nonzero;stroke:none"
             d="m 34.573,78.977 32.337,0 0,4.527 -32.337,0 0,-4.527 z m 32.984,-0.646 -33.63,0 0,5.821 33.63,0 0,-5.821 z" /><path
             inkscape:connector-curvature="0"
             id="path5266"
             style="fill:#191919;fill-opacity:1;fill-rule:nonzero;stroke:none"
             d="m 7.842,96.436 -0.701,0 0,5.497 0.701,0 0,-5.497 z" /><path
             inkscape:connector-curvature="0"
             id="path5268"
             style="fill:#191919;fill-opacity:1;fill-rule:nonzero;stroke:none"
             d="m 9.297,96.436 -0.701,0 0,5.497 0.701,0 0,-5.497 z" /><path
             inkscape:connector-curvature="0"
             id="path5270"
             style="fill:#191919;fill-opacity:1;fill-rule:nonzero;stroke:none"
             d="m 10.752,96.436 -0.701,0 0,5.497 0.701,0 0,-5.497 z" /><path
             inkscape:connector-curvature="0"
             id="path5272"
             style="fill:#191919;fill-opacity:1;fill-rule:nonzero;stroke:none"
             d="m 12.207,96.436 -0.701,0 0,5.497 0.701,0 0,-5.497 z" /><path
             inkscape:connector-curvature="0"
             id="path5274"
             style="fill:#191919;fill-opacity:1;fill-rule:nonzero;stroke:none"
             d="m 13.662,96.436 -0.701,0 0,5.497 0.701,0 0,-5.497 z" /><path
             inkscape:connector-curvature="0"
             id="path5276"
             style="fill:#191919;fill-opacity:1;fill-rule:nonzero;stroke:none"
             d="m 15.117,96.436 -0.701,0 0,5.497 0.701,0 0,-5.497 z" /><path
             inkscape:connector-curvature="0"
             id="path5278"
             style="fill:#191919;fill-opacity:1;fill-rule:nonzero;stroke:none"
             d="m 16.573,96.436 -0.701,0 0,5.497 0.701,0 0,-5.497 z" /><path
             inkscape:connector-curvature="0"
             id="path5280"
             style="fill:#191919;fill-opacity:1;fill-rule:nonzero;stroke:none"
             d="m 18.028,96.436 -0.701,0 0,5.497 0.701,0 0,-5.497 z" /><path
             inkscape:connector-curvature="0"
             id="path5282"
             style="fill:#191919;fill-opacity:1;fill-rule:nonzero;stroke:none"
             d="m 19.483,96.436 -0.701,0 0,5.497 0.701,0 0,-5.497 z" /><path
             inkscape:connector-curvature="0"
             id="path5284"
             style="fill:#191919;fill-opacity:1;fill-rule:nonzero;stroke:none"
             d="m 20.938,96.436 -0.701,0 0,5.497 0.701,0 0,-5.497 z" /><path
             inkscape:connector-curvature="0"
             id="path5286"
             style="fill:#191919;fill-opacity:1;fill-rule:nonzero;stroke:none"
             d="m 22.393,96.436 -0.701,0 0,5.497 0.701,0 0,-5.497 z" /><path
             inkscape:connector-curvature="0"
             id="path5288"
             style="fill:#191919;fill-opacity:1;fill-rule:nonzero;stroke:none"
             d="m 23.848,96.436 -0.701,0 0,5.497 0.701,0 0,-5.497 z" /><path
             inkscape:connector-curvature="0"
             id="path5290"
             style="fill:#191919;fill-opacity:1;fill-rule:nonzero;stroke:none"
             d="m 25.304,96.436 -0.701,0 0,5.497 0.701,0 0,-5.497 z" /><path
             inkscape:connector-curvature="0"
             id="path5292"
             style="fill:#191919;fill-opacity:1;fill-rule:nonzero;stroke:none"
             d="m 26.759,96.436 -0.701,0 0,5.497 0.701,0 0,-5.497 z" /><path
             inkscape:connector-curvature="0"
             id="path5294"
             style="fill:#191919;fill-opacity:1;fill-rule:nonzero;stroke:none"
             d="m 28.214,96.436 -0.701,0 0,5.497 0.701,0 0,-5.497 z" /><path
             inkscape:connector-curvature="0"
             id="path5296"
             style="fill:#191919;fill-opacity:1;fill-rule:nonzero;stroke:none"
             d="m 29.669,96.436 -0.701,0 0,5.497 0.701,0 0,-5.497 z" /><path
             inkscape:connector-curvature="0"
             id="path5298"
             style="fill:#191919;fill-opacity:1;fill-rule:nonzero;stroke:none"
             d="m 31.124,96.436 -0.701,0 0,5.497 0.701,0 0,-5.497 z" /><path
             inkscape:connector-curvature="0"
             id="path5300"
             style="fill:#191919;fill-opacity:1;fill-rule:nonzero;stroke:none"
             d="m 32.579,96.436 -0.701,0 0,5.497 0.701,0 0,-5.497 z" /><path
             inkscape:connector-curvature="0"
             id="path5302"
             style="fill:#191919;fill-opacity:1;fill-rule:nonzero;stroke:none"
             d="m 7.842,102.91 -0.701,0 0,4.527 0.701,0 0,-4.527 z" /><path
             inkscape:connector-curvature="0"
             id="path5304"
             style="fill:#191919;fill-opacity:1;fill-rule:nonzero;stroke:none"
             d="m 9.297,102.91 -0.701,0 0,4.527 0.701,0 0,-4.527 z" /><path
             inkscape:connector-curvature="0"
             id="path5306"
             style="fill:#191919;fill-opacity:1;fill-rule:nonzero;stroke:none"
             d="m 10.752,102.91 -0.701,0 0,4.527 0.701,0 0,-4.527 z" /><path
             inkscape:connector-curvature="0"
             id="path5308"
             style="fill:#191919;fill-opacity:1;fill-rule:nonzero;stroke:none"
             d="m 12.207,102.91 -0.701,0 0,4.527 0.701,0 0,-4.527 z" /><path
             inkscape:connector-curvature="0"
             id="path5310"
             style="fill:#191919;fill-opacity:1;fill-rule:nonzero;stroke:none"
             d="m 13.662,102.91 -0.701,0 0,4.527 0.701,0 0,-4.527 z" /><path
             inkscape:connector-curvature="0"
             id="path5312"
             style="fill:#191919;fill-opacity:1;fill-rule:nonzero;stroke:none"
             d="m 15.117,102.91 -0.701,0 0,4.527 0.701,0 0,-4.527 z" /><path
             inkscape:connector-curvature="0"
             id="path5314"
             style="fill:#191919;fill-opacity:1;fill-rule:nonzero;stroke:none"
             d="m 16.573,102.91 -0.701,0 0,4.527 0.701,0 0,-4.527 z" /><path
             inkscape:connector-curvature="0"
             id="path5316"
             style="fill:#191919;fill-opacity:1;fill-rule:nonzero;stroke:none"
             d="m 18.028,102.91 -0.701,0 0,4.527 0.701,0 0,-4.527 z" /><path
             inkscape:connector-curvature="0"
             id="path5318"
             style="fill:#191919;fill-opacity:1;fill-rule:nonzero;stroke:none"
             d="m 19.483,102.91 -0.701,0 0,4.527 0.701,0 0,-4.527 z" /><path
             inkscape:connector-curvature="0"
             id="path5320"
             style="fill:#191919;fill-opacity:1;fill-rule:nonzero;stroke:none"
             d="m 20.938,102.91 -0.701,0 0,4.527 0.701,0 0,-4.527 z" /><path
             inkscape:connector-curvature="0"
             id="path5322"
             style="fill:#191919;fill-opacity:1;fill-rule:nonzero;stroke:none"
             d="m 22.393,102.91 -0.701,0 0,4.527 0.701,0 0,-4.527 z" /><path
             inkscape:connector-curvature="0"
             id="path5324"
             style="fill:#191919;fill-opacity:1;fill-rule:nonzero;stroke:none"
             d="m 23.848,102.91 -0.701,0 0,4.527 0.701,0 0,-4.527 z" /><path
             inkscape:connector-curvature="0"
             id="path5326"
             style="fill:#191919;fill-opacity:1;fill-rule:nonzero;stroke:none"
             d="m 25.304,102.91 -0.701,0 0,4.527 0.701,0 0,-4.527 z" /><path
             inkscape:connector-curvature="0"
             id="path5328"
             style="fill:#191919;fill-opacity:1;fill-rule:nonzero;stroke:none"
             d="m 26.759,102.91 -0.701,0 0,4.527 0.701,0 0,-4.527 z" /><path
             inkscape:connector-curvature="0"
             id="path5330"
             style="fill:#191919;fill-opacity:1;fill-rule:nonzero;stroke:none"
             d="m 28.214,102.91 -0.701,0 0,4.527 0.701,0 0,-4.527 z" /><path
             inkscape:connector-curvature="0"
             id="path5332"
             style="fill:#191919;fill-opacity:1;fill-rule:nonzero;stroke:none"
             d="m 29.669,102.91 -0.701,0 0,4.527 0.701,0 0,-4.527 z" /><path
             inkscape:connector-curvature="0"
             id="path5334"
             style="fill:#191919;fill-opacity:1;fill-rule:nonzero;stroke:none"
             d="m 31.124,102.91 -0.701,0 0,4.527 0.701,0 0,-4.527 z" /><path
             inkscape:connector-curvature="0"
             id="path5336"
             style="fill:#191919;fill-opacity:1;fill-rule:nonzero;stroke:none"
             d="m 32.579,102.91 -0.701,0 0,4.527 0.701,0 0,-4.527 z" /><path
             inkscape:connector-curvature="0"
             id="path5338"
             style="fill:#191919;fill-opacity:1;fill-rule:nonzero;stroke:none"
             d="m 34.142,102.91 -0.701,0 0,4.527 0.701,0 0,-4.527 z" /><path
             inkscape:connector-curvature="0"
             id="path5340"
             style="fill:#191919;fill-opacity:1;fill-rule:nonzero;stroke:none"
             d="m 35.597,102.91 -0.701,0 0,4.527 0.701,0 0,-4.527 z" /><path
             inkscape:connector-curvature="0"
             id="path5342"
             style="fill:#191919;fill-opacity:1;fill-rule:nonzero;stroke:none"
             d="m 37.053,102.91 -0.701,0 0,4.527 0.701,0 0,-4.527 z" /><path
             inkscape:connector-curvature="0"
             id="path5344"
             style="fill:#191919;fill-opacity:1;fill-rule:nonzero;stroke:none"
             d="m 38.508,102.91 -0.701,0 0,4.527 0.701,0 0,-4.527 z" /><path
             inkscape:connector-curvature="0"
             id="path5346"
             style="fill:#191919;fill-opacity:1;fill-rule:nonzero;stroke:none"
             d="m 39.963,102.91 -0.701,0 0,4.527 0.701,0 0,-4.527 z" /><path
             inkscape:connector-curvature="0"
             id="path5348"
             style="fill:#191919;fill-opacity:1;fill-rule:nonzero;stroke:none"
             d="m 41.418,102.91 -0.701,0 0,4.527 0.701,0 0,-4.527 z" /><path
             inkscape:connector-curvature="0"
             id="path5350"
             style="fill:#191919;fill-opacity:1;fill-rule:nonzero;stroke:none"
             d="m 42.873,102.91 -0.701,0 0,4.527 0.701,0 0,-4.527 z" /><path
             inkscape:connector-curvature="0"
             id="path5352"
             style="fill:#191919;fill-opacity:1;fill-rule:nonzero;stroke:none"
             d="m 44.328,102.91 -0.701,0 0,4.527 0.701,0 0,-4.527 z" /><path
             inkscape:connector-curvature="0"
             id="path5354"
             style="fill:#191919;fill-opacity:1;fill-rule:nonzero;stroke:none"
             d="m 45.784,102.91 -0.701,0 0,4.527 0.701,0 0,-4.527 z" /><path
             inkscape:connector-curvature="0"
             id="path5356"
             style="fill:#191919;fill-opacity:1;fill-rule:nonzero;stroke:none"
             d="m 47.239,102.91 -0.701,0 0,4.527 0.701,0 0,-4.527 z" /><path
             inkscape:connector-curvature="0"
             id="path5358"
             style="fill:#191919;fill-opacity:1;fill-rule:nonzero;stroke:none"
             d="m 48.694,102.91 -0.701,0 0,4.527 0.701,0 0,-4.527 z" /><path
             inkscape:connector-curvature="0"
             id="path5360"
             style="fill:#191919;fill-opacity:1;fill-rule:nonzero;stroke:none"
             d="m 50.149,102.91 -0.701,0 0,4.527 0.701,0 0,-4.527 z" /><path
             inkscape:connector-curvature="0"
             id="path5362"
             style="fill:#191919;fill-opacity:1;fill-rule:nonzero;stroke:none"
             d="m 51.604,102.91 -0.701,0 0,4.527 0.701,0 0,-4.527 z" /><path
             inkscape:connector-curvature="0"
             id="path5364"
             style="fill:#191919;fill-opacity:1;fill-rule:nonzero;stroke:none"
             d="m 53.059,102.91 -0.701,0 0,4.527 0.701,0 0,-4.527 z" /><path
             inkscape:connector-curvature="0"
             id="path5366"
             style="fill:#191919;fill-opacity:1;fill-rule:nonzero;stroke:none"
             d="m 54.515,102.91 -0.701,0 0,4.527 0.701,0 0,-4.527 z" /><path
             inkscape:connector-curvature="0"
             id="path5368"
             style="fill:#191919;fill-opacity:1;fill-rule:nonzero;stroke:none"
             d="m 55.97,102.91 -0.701,0 0,4.527 0.701,0 0,-4.527 z" /><path
             inkscape:connector-curvature="0"
             id="path5370"
             style="fill:#191919;fill-opacity:1;fill-rule:nonzero;stroke:none"
             d="m 57.425,102.91 -0.701,0 0,4.527 0.701,0 0,-4.527 z" /><path
             inkscape:connector-curvature="0"
             id="path5372"
             style="fill:#191919;fill-opacity:1;fill-rule:nonzero;stroke:none"
             d="m 58.88,102.91 -0.701,0 0,4.527 0.701,0 0,-4.527 z" /><path
             inkscape:connector-curvature="0"
             id="path5374"
             style="fill:#191919;fill-opacity:1;fill-rule:nonzero;stroke:none"
             d="m 60.443,102.91 -0.701,0 0,4.527 0.701,0 0,-4.527 z" /><path
             inkscape:connector-curvature="0"
             id="path5376"
             style="fill:#191919;fill-opacity:1;fill-rule:nonzero;stroke:none"
             d="m 61.898,102.91 -0.701,0 0,4.527 0.701,0 0,-4.527 z" /><path
             inkscape:connector-curvature="0"
             id="path5378"
             style="fill:#191919;fill-opacity:1;fill-rule:nonzero;stroke:none"
             d="m 63.353,102.91 -0.701,0 0,4.527 0.701,0 0,-4.527 z" /><path
             inkscape:connector-curvature="0"
             id="path5380"
             style="fill:#191919;fill-opacity:1;fill-rule:nonzero;stroke:none"
             d="m 64.808,102.91 -0.701,0 0,4.527 0.701,0 0,-4.527 z" /><path
             inkscape:connector-curvature="0"
             id="path5382"
             style="fill:#191919;fill-opacity:1;fill-rule:nonzero;stroke:none"
             d="m 66.264,102.91 -0.701,0 0,4.527 0.701,0 0,-4.527 z" /><path
             inkscape:connector-curvature="0"
             id="path5384"
             style="fill:#191919;fill-opacity:1;fill-rule:nonzero;stroke:none"
             d="m 67.719,102.91 -0.701,0 0,4.527 0.701,0 0,-4.527 z" /><path
             inkscape:connector-curvature="0"
             id="path5386"
             style="fill:#191919;fill-opacity:1;fill-rule:nonzero;stroke:none"
             d="m 69.174,102.91 -0.701,0 0,4.527 0.701,0 0,-4.527 z" /><path
             inkscape:connector-curvature="0"
             id="path5388"
             style="fill:#191919;fill-opacity:1;fill-rule:nonzero;stroke:none"
             d="m 70.629,102.91 -0.701,0 0,4.527 0.701,0 0,-4.527 z" /><path
             inkscape:connector-curvature="0"
             id="path5390"
             style="fill:#191919;fill-opacity:1;fill-rule:nonzero;stroke:none"
             d="m 72.084,102.91 -0.701,0 0,4.527 0.701,0 0,-4.527 z" /><path
             inkscape:connector-curvature="0"
             id="path5392"
             style="fill:#191919;fill-opacity:1;fill-rule:nonzero;stroke:none"
             d="m 73.539,102.91 -0.701,0 0,4.527 0.701,0 0,-4.527 z" /><path
             inkscape:connector-curvature="0"
             id="path5394"
             style="fill:#191919;fill-opacity:1;fill-rule:nonzero;stroke:none"
             d="m 74.995,102.91 -0.701,0 0,4.527 0.701,0 0,-4.527 z" /><path
             inkscape:connector-curvature="0"
             id="path5396"
             style="fill:#191919;fill-opacity:1;fill-rule:nonzero;stroke:none"
             d="m 76.45,102.91 -0.701,0 0,4.527 0.701,0 0,-4.527 z" /><path
             inkscape:connector-curvature="0"
             id="path5398"
             style="fill:#191919;fill-opacity:1;fill-rule:nonzero;stroke:none"
             d="m 77.905,102.91 -0.701,0 0,4.527 0.701,0 0,-4.527 z" /><path
             inkscape:connector-curvature="0"
             id="path5400"
             style="fill:#191919;fill-opacity:1;fill-rule:nonzero;stroke:none"
             d="m 79.36,102.91 -0.701,0 0,4.527 0.701,0 0,-4.527 z" /><path
             inkscape:connector-curvature="0"
             id="path5402"
             style="fill:#191919;fill-opacity:1;fill-rule:nonzero;stroke:none"
             d="m 80.815,102.91 -0.701,0 0,4.527 0.701,0 0,-4.527 z" /><path
             inkscape:connector-curvature="0"
             id="path5404"
             style="fill:#191919;fill-opacity:1;fill-rule:nonzero;stroke:none"
             d="m 82.27,102.91 -0.701,0 0,4.527 0.701,0 0,-4.527 z" /><path
             inkscape:connector-curvature="0"
             id="path5406"
             style="fill:#191919;fill-opacity:1;fill-rule:nonzero;stroke:none"
             d="m 83.725,102.91 -0.701,0 0,4.527 0.701,0 0,-4.527 z" /><path
             inkscape:connector-curvature="0"
             id="path5408"
             style="fill:#191919;fill-opacity:1;fill-rule:nonzero;stroke:none"
             d="m 85.181,102.91 -0.701,0 0,4.527 0.701,0 0,-4.527 z" /><path
             inkscape:connector-curvature="0"
             id="path5410"
             style="fill:#191919;fill-opacity:1;fill-rule:nonzero;stroke:none"
             d="m 7.842,89.689 -0.701,0 0,5.497 0.701,0 0,-5.497 z" /><path
             inkscape:connector-curvature="0"
             id="path5412"
             style="fill:#191919;fill-opacity:1;fill-rule:nonzero;stroke:none"
             d="m 9.297,89.689 -0.701,0 0,5.497 0.701,0 0,-5.497 z" /><path
             inkscape:connector-curvature="0"
             id="path5414"
             style="fill:#191919;fill-opacity:1;fill-rule:nonzero;stroke:none"
             d="m 10.752,89.689 -0.701,0 0,5.497 0.701,0 0,-5.497 z" /><path
             inkscape:connector-curvature="0"
             id="path5416"
             style="fill:#191919;fill-opacity:1;fill-rule:nonzero;stroke:none"
             d="m 12.207,89.689 -0.701,0 0,5.497 0.701,0 0,-5.497 z" /><path
             inkscape:connector-curvature="0"
             id="path5418"
             style="fill:#191919;fill-opacity:1;fill-rule:nonzero;stroke:none"
             d="m 13.662,89.689 -0.701,0 0,5.497 0.701,0 0,-5.497 z" /><path
             inkscape:connector-curvature="0"
             id="path5420"
             style="fill:#191919;fill-opacity:1;fill-rule:nonzero;stroke:none"
             d="m 15.117,89.689 -0.701,0 0,5.497 0.701,0 0,-5.497 z" /><path
             inkscape:connector-curvature="0"
             id="path5422"
             style="fill:#191919;fill-opacity:1;fill-rule:nonzero;stroke:none"
             d="m 16.573,89.689 -0.701,0 0,5.497 0.701,0 0,-5.497 z" /><path
             inkscape:connector-curvature="0"
             id="path5424"
             style="fill:#191919;fill-opacity:1;fill-rule:nonzero;stroke:none"
             d="m 18.028,89.689 -0.701,0 0,5.497 0.701,0 0,-5.497 z" /><path
             inkscape:connector-curvature="0"
             id="path5426"
             style="fill:#191919;fill-opacity:1;fill-rule:nonzero;stroke:none"
             d="m 19.483,89.689 -0.701,0 0,5.497 0.701,0 0,-5.497 z" /><path
             inkscape:connector-curvature="0"
             id="path5428"
             style="fill:#191919;fill-opacity:1;fill-rule:nonzero;stroke:none"
             d="m 20.938,89.689 -0.701,0 0,5.497 0.701,0 0,-5.497 z" /><path
             inkscape:connector-curvature="0"
             id="path5430"
             style="fill:#191919;fill-opacity:1;fill-rule:nonzero;stroke:none"
             d="m 22.393,89.689 -0.701,0 0,5.497 0.701,0 0,-5.497 z" /><path
             inkscape:connector-curvature="0"
             id="path5432"
             style="fill:#191919;fill-opacity:1;fill-rule:nonzero;stroke:none"
             d="m 23.848,89.689 -0.701,0 0,5.497 0.701,0 0,-5.497 z" /><path
             inkscape:connector-curvature="0"
             id="path5434"
             style="fill:#191919;fill-opacity:1;fill-rule:nonzero;stroke:none"
             d="m 25.304,89.689 -0.701,0 0,5.497 0.701,0 0,-5.497 z" /><path
             inkscape:connector-curvature="0"
             id="path5436"
             style="fill:#191919;fill-opacity:1;fill-rule:nonzero;stroke:none"
             d="m 26.759,89.689 -0.701,0 0,5.497 0.701,0 0,-5.497 z" /><path
             inkscape:connector-curvature="0"
             id="path5438"
             style="fill:#191919;fill-opacity:1;fill-rule:nonzero;stroke:none"
             d="m 28.214,89.689 -0.701,0 0,5.497 0.701,0 0,-5.497 z" /><path
             inkscape:connector-curvature="0"
             id="path5440"
             style="fill:#191919;fill-opacity:1;fill-rule:nonzero;stroke:none"
             d="m 29.669,89.689 -0.701,0 0,5.497 0.701,0 0,-5.497 z" /><path
             inkscape:connector-curvature="0"
             id="path5442"
             style="fill:#191919;fill-opacity:1;fill-rule:nonzero;stroke:none"
             d="m 31.124,89.689 -0.701,0 0,5.497 0.701,0 0,-5.497 z" /><path
             inkscape:connector-curvature="0"
             id="path5444"
             style="fill:#191919;fill-opacity:1;fill-rule:nonzero;stroke:none"
             d="m 32.579,89.689 -0.701,0 0,5.497 0.701,0 0,-5.497 z" /><path
             inkscape:connector-curvature="0"
             id="path5446"
             style="fill:#404040;fill-opacity:1;fill-rule:nonzero;stroke:none"
             d="m 119.296,80.048 6.144,0 0,24.044 -6.144,0 0,-24.044 z" /></g></g></g></g></svg>