<?xml version="1.0" encoding="UTF-8" standalone="no"?>
<!-- Created with Inkscape (http://www.inkscape.org/) -->

<svg
   xmlns:dc="http://purl.org/dc/elements/1.1/"
   xmlns:cc="http://creativecommons.org/ns#"
   xmlns:rdf="http://www.w3.org/1999/02/22-rdf-syntax-ns#"
   xmlns:svg="http://www.w3.org/2000/svg"
   xmlns="http://www.w3.org/2000/svg"
   xmlns:sodipodi="http://sodipodi.sourceforge.net/DTD/sodipodi-0.dtd"
   xmlns:inkscape="http://www.inkscape.org/namespaces/inkscape"
   id="svg4820"
   version="1.1"
   inkscape:version="0.48.5 r10040"
   width="256"
   height="256"
   xml:space="preserve"
   sodipodi:docname="music.svg"><metadata
     id="metadata4826"><rdf:RDF><cc:Work
         rdf:about=""><dc:format>image/svg+xml</dc:format><dc:type
           rdf:resource="http://purl.org/dc/dcmitype/StillImage" /><dc:title></dc:title></cc:Work></rdf:RDF></metadata><defs
     id="defs4824"><clipPath
       clipPathUnits="userSpaceOnUse"
       id="clipPath4834"><path
         d="M 0,128 128,128 128,0 0,0 0,128 z"
         id="path4836"
         inkscape:connector-curvature="0" /></clipPath></defs><sodipodi:namedview
     pagecolor="#ffffff"
     bordercolor="#666666"
     borderopacity="1"
     objecttolerance="10"
     gridtolerance="10"
     guidetolerance="10"
     inkscape:pageopacity="0"
     inkscape:pageshadow="2"
     inkscape:window-width="972"
     inkscape:window-height="939"
     id="namedview4822"
     showgrid="false"
     inkscape:zoom="1.475"
     inkscape:cx="80"
     inkscape:cy="80"
     inkscape:window-x="0"
     inkscape:window-y="0"
     inkscape:window-maximized="0"
     inkscape:current-layer="g4828" /><g
     id="g4828"
     inkscape:groupmode="layer"
     inkscape:label="music"
     transform="matrix(1.25,0,0,-1.25,0,256)"><g
       id="g4830"
       transform="matrix(1.6,0,0,1.6,-0.68832,0)"
       inkscape:export-filename="/Users/margetts/Desktop/BAXY RetroActive/A_Inkscape_PNG/music.png"
       inkscape:export-xdpi="90"
       inkscape:export-ydpi="90"><g
         id="g4832"
         clip-path="url(#clipPath4834)"><g
           id="g4838"
           transform="translate(79.1437,128)"><path
             d="m 0,0 -1.06,0 -54.614,0 c -5.176,0 -9.386,-4.211 -9.386,-9.387 l 0,-109.226 c 0,-5.176 4.21,-9.387 9.386,-9.387 l 81.92,0 c 5.176,0 9.387,4.211 9.387,9.387 l 0,81.92 0,1.06 -0.75,0.75 L 0.75,-0.75 0,0 z"
             style="fill:#ffffff;fill-opacity:1;fill-rule:nonzero;stroke:none"
             id="path4840"
             inkscape:connector-curvature="0" /></g><g
           id="g4842"
           transform="translate(78.0833,125.44)"><path
             d="m 0,0 -54.613,0 c -3.772,0 -6.827,-3.055 -6.827,-6.827 l 0,-109.226 c 0,-3.772 3.055,-6.827 6.827,-6.827 l 81.92,0 c 3.771,0 6.826,3.055 6.826,6.827 l 0,81.92 L 0,0 z"
             style="fill:#e6e6e6;fill-opacity:1;fill-rule:nonzero;stroke:none"
             id="path4844"
             inkscape:connector-curvature="0" /></g><g
           id="g4846"
           transform="translate(96.3058,90.8459)"><path
             d="m 0,0 c 0,-4.752 0.014,-9.309 -0.003,-13.865 -0.045,-12.959 -0.334,-25.923 -0.079,-38.876 0.184,-9.358 -5.503,-13.833 -12.672,-15.368 -2.682,-0.574 -5.641,-0.556 -8.36,-0.111 -5.558,0.912 -8.535,6.88 -6.364,12.103 3.513,8.452 13.512,12.403 21.871,8.641 0.558,-0.251 1.113,-0.507 2.066,-0.942 l 0,36.612 c -2.413,-0.524 -5.027,-1.081 -7.635,-1.661 -10.223,-2.272 -20.437,-4.581 -30.672,-6.798 -1.482,-0.321 -1.939,-0.889 -1.946,-2.438 -0.062,-12.958 -0.201,-25.917 -0.375,-38.874 -0.139,-10.32 -8.321,-17.959 -18.275,-17.15 -6.281,0.511 -10.15,6.115 -8.4,12.168 2.622,9.069 13.047,13.374 21.374,8.826 0.527,-0.288 1.052,-0.581 1.963,-1.086 0,2.701 -0.028,5.102 0.005,7.502 0.178,13.013 0.382,26.026 0.538,39.04 0.013,1.056 0.253,1.593 1.383,1.851 14.928,3.411 29.845,6.87 44.765,10.315 C -0.607,-0.063 -0.39,-0.052 0,0"
             style="fill:#000000;fill-opacity:1;fill-rule:nonzero;stroke:none"
             id="path4848"
             inkscape:connector-curvature="0" /></g><g
           id="g4850"
           transform="translate(91.7503,85.1413)"><path
             d="m 0,0 -13.667,0 c -3.772,0 -6.827,3.055 -6.827,6.827 l 0,13.653 0,13.653 L 13.64,0 0,0 z"
             style="fill:#ffffff;fill-opacity:1;fill-rule:nonzero;stroke:none"
             id="path4852"
             inkscape:connector-curvature="0" /></g></g></g></g></svg>