<?xml version="1.0" encoding="UTF-8" standalone="no"?>
<!-- Created with Inkscape (http://www.inkscape.org/) -->

<svg
   xmlns:dc="http://purl.org/dc/elements/1.1/"
   xmlns:cc="http://creativecommons.org/ns#"
   xmlns:rdf="http://www.w3.org/1999/02/22-rdf-syntax-ns#"
   xmlns:svg="http://www.w3.org/2000/svg"
   xmlns="http://www.w3.org/2000/svg"
   xmlns:sodipodi="http://sodipodi.sourceforge.net/DTD/sodipodi-0.dtd"
   xmlns:inkscape="http://www.inkscape.org/namespaces/inkscape"
   id="svg5840"
   version="1.1"
   inkscape:version="0.48.5 r10040"
   width="256"
   height="256"
   xml:space="preserve"
   sodipodi:docname="NEC - PC Engine - TurboGrafx 16.svg"
   inkscape:export-filename="/Users/margetts/Desktop/BAXY RetroActive/png_clean/NEC - PC Engine - TurboGrafx 16.png"
   inkscape:export-xdpi="90"
   inkscape:export-ydpi="90"><metadata
     id="metadata5846"><rdf:RDF><cc:Work
         rdf:about=""><dc:format>image/svg+xml</dc:format><dc:type
           rdf:resource="http://purl.org/dc/dcmitype/StillImage" /><dc:title></dc:title></cc:Work></rdf:RDF></metadata><defs
     id="defs5844"><clipPath
       clipPathUnits="userSpaceOnUse"
       id="clipPath5854"><path
         d="M 0,128 128,128 128,0 0,0 0,128 z"
         id="path5856"
         inkscape:connector-curvature="0" /></clipPath><clipPath
       clipPathUnits="userSpaceOnUse"
       id="clipPath6000"><path
         d="m 14.0758,68.2475 22.5642,0 0,-27.2372 -22.5642,0 0,27.2372 z"
         id="path6002"
         inkscape:connector-curvature="0" /></clipPath><clipPath
       clipPathUnits="userSpaceOnUse"
       id="clipPath6016"><path
         d="m 14.4069,69.7675 23.7531,0 0,-29.2093 -23.7531,0 0,29.2093 z"
         id="path6018"
         inkscape:connector-curvature="0" /></clipPath><clipPath
       clipPathUnits="userSpaceOnUse"
       id="clipPath6032"><path
         d="m 14.6936,70.8275 24.5264,0 0,-30.3587 -24.5264,0 0,30.3587 z"
         id="path6034"
         inkscape:connector-curvature="0" /></clipPath></defs><sodipodi:namedview
     pagecolor="#ffffff"
     bordercolor="#666666"
     borderopacity="1"
     objecttolerance="10"
     gridtolerance="10"
     guidetolerance="10"
     inkscape:pageopacity="0"
     inkscape:pageshadow="2"
     inkscape:window-width="1676"
     inkscape:window-height="1005"
     id="namedview5842"
     showgrid="false"
     inkscape:zoom="3.2382812"
     inkscape:cx="128"
     inkscape:cy="128"
     inkscape:window-x="4"
     inkscape:window-y="1"
     inkscape:window-maximized="1"
     inkscape:current-layer="g5848" /><g
     id="g5848"
     inkscape:groupmode="layer"
     inkscape:label="NEC - PC Engine - TurboGrafx 16"
     transform="matrix(1.25,0,0,-1.25,0,256)"><g
       id="g5850"
       transform="matrix(1.6000013,0,0,1.6000013,0,1.0112776)"><g
         id="g5852"
         clip-path="url(#clipPath5854)"><g
           id="g5858"
           transform="translate(122.8989,85.2699)"><path
             d="m 0,0 -38.766,5.448 c -0.41,1.702 -1.945,2.97 -3.771,2.97 l -32.884,0 c -1.81,0 -3.335,-1.247 -3.76,-2.927 l -38.626,-5.488 c -2.903,-0.412 -5.092,-2.935 -5.092,-5.867 l 0,-40.433 c 0,-3.267 2.658,-5.925 5.926,-5.925 l 116.148,0 c 3.268,0 5.926,2.658 5.926,5.925 l 0,40.429 C 5.101,-2.931 2.908,-0.409 0,0"
             style="fill:#ffffff;fill-opacity:1;fill-rule:nonzero;stroke:none"
             id="path5860"
             inkscape:connector-curvature="0" /></g><g
           id="g5862"
           transform="translate(80.8046,88.5675)"><path
             d="m 0,0 -34.087,0 c -0.158,0 -0.316,-0.011 -0.473,-0.033 l -40.792,-5.796 c -1.66,-0.236 -2.893,-1.656 -2.893,-3.332 l 0,-40.433 c 0,-1.859 1.507,-3.366 3.366,-3.366 l 116.149,0 c 1.858,0 3.365,1.507 3.365,3.366 l 0,40.428 c 0,1.678 -1.235,3.1 -2.897,3.333 l -41.27,5.8 C 0.313,-0.011 0.157,0 0,0"
             style="fill:#cccccc;fill-opacity:1;fill-rule:nonzero;stroke:none"
             id="path5864"
             inkscape:connector-curvature="0" /></g><g
           id="g5866"
           transform="translate(80.3622,91.1275)"><path
             d="m 0,0 -32.884,0 c -0.728,0 -1.318,-0.59 -1.318,-1.318 l 0,-14.522 c 0,-9.809 7.951,-17.76 17.76,-17.76 9.808,0 17.76,7.951 17.76,17.76 l 0,14.522 C 1.318,-0.59 0.728,0 0,0"
             style="fill:#e6e6e6;fill-opacity:1;fill-rule:nonzero;stroke:none"
             id="path5868"
             inkscape:connector-curvature="0" /></g><g
           id="g5870"
           transform="translate(32.64,52.9675)"><path
             d="m 0,0 c 0,-6.23 -5.05,-11.28 -11.28,-11.28 -6.23,0 -11.28,5.05 -11.28,11.28 0,6.23 5.05,11.28 11.28,11.28 C -5.05,11.28 0,6.23 0,0"
             style="fill:#000000;fill-opacity:1;fill-rule:nonzero;stroke:none"
             id="path5872"
             inkscape:connector-curvature="0" /></g><g
           id="g5874"
           transform="translate(31.74,52.9675)"><path
             d="m 0,0 c 0,-5.733 -4.647,-10.38 -10.38,-10.38 -5.733,0 -10.38,4.647 -10.38,10.38 0,5.733 4.647,10.38 10.38,10.38 C -4.647,10.38 0,5.733 0,0"
             style="fill:#404040;fill-opacity:1;fill-rule:nonzero;stroke:none"
             id="path5876"
             inkscape:connector-curvature="0" /></g><g
           id="g5878"
           transform="translate(23.8998,63.0332)"><path
             d="M 0,0 C -0.813,0.204 -1.663,0.314 -2.54,0.314 -3.416,0.314 -4.267,0.204 -5.08,0 l 0,-7.526 -7.526,0 c -0.204,-0.813 -0.314,-1.663 -0.314,-2.54 0,-0.876 0.11,-1.727 0.314,-2.54 l 7.526,0 0,-7.526 c 0.813,-0.204 1.664,-0.314 2.54,-0.314 0.877,0 1.727,0.11 2.54,0.314 l 0,7.526 7.526,0 c 0.204,0.813 0.314,1.664 0.314,2.54 0,0.877 -0.11,1.727 -0.314,2.54 L 0,-7.526 0,0 z"
             style="fill:#4c4c4c;fill-opacity:1;fill-rule:nonzero;stroke:none"
             id="path5880"
             inkscape:connector-curvature="0" /></g><g
           id="g5882"
           transform="translate(23.8998,52.9675)"><path
             d="m 0,0 c 0,-1.403 -1.137,-2.54 -2.54,-2.54 -1.402,0 -2.54,1.137 -2.54,2.54 0,1.403 1.138,2.54 2.54,2.54 C -1.137,2.54 0,1.403 0,0"
             style="fill:#404040;fill-opacity:1;fill-rule:nonzero;stroke:none"
             id="path5884"
             inkscape:connector-curvature="0" /></g><g
           id="g5886"
           transform="translate(117.2261,47.9061)"><path
             d="m 0,0 c 0,2.255 -0.895,4.299 -2.346,5.802 l 0,23.098 c 0,1.702 -1.38,3.081 -3.081,3.081 l -22.559,0 c -1.591,0 -2.88,-1.289 -2.88,-2.88 l 0,-1.199 c 0,-12.906 -10.697,-23.418 -23.588,-22.816 -11.942,0.558 -21.452,10.416 -21.452,22.495 l 0,2 c 0,1.326 -1.075,2.4 -2.4,2.4 l -22.839,0 c -1.701,0 -3.081,-1.379 -3.081,-3.081 l 0,-11.321 c 0,-1.056 1.134,-1.708 2.056,-1.194 2.057,1.149 4.458,1.753 7.011,1.618 6.812,-0.363 12.23,-6.075 12.253,-12.897 0.015,-4.589 -2.356,-8.622 -5.941,-10.937 -0.263,-1.13 -0.079,-2.508 2.381,-2.508 l 61.261,0 c 0.167,-0.009 0.334,-0.016 0.503,-0.016 l 16.347,0 c 0.169,0 0.336,0.007 0.503,0.016 0,0 2.129,0.259 2.679,0.613 C -2.137,-6.474 0,-3.487 0,0"
             style="fill:#191919;fill-opacity:1;fill-rule:nonzero;stroke:none"
             id="path5888"
             inkscape:connector-curvature="0" /></g><g
           id="g5890"
           transform="translate(108.47,55.5411)"><path
             d="m 0,0 -14.72,0 c -4.155,0 -7.524,-3.368 -7.524,-7.524 0,-4.155 3.369,-7.523 7.524,-7.523 l 14.72,0 c 4.155,0 7.524,3.368 7.524,7.523 C 7.524,-3.368 4.155,0 0,0"
             style="fill:#9f1d21;fill-opacity:1;fill-rule:nonzero;stroke:none"
             id="path5892"
             inkscape:connector-curvature="0" /></g><g
           id="g5894"
           transform="translate(98.94,48.0175)"><path
             d="m 0,0 c 0,-2.866 -2.324,-5.19 -5.19,-5.19 -2.866,0 -5.19,2.324 -5.19,5.19 0,2.866 2.324,5.19 5.19,5.19 C -2.324,5.19 0,2.866 0,0"
             style="fill:#404040;fill-opacity:1;fill-rule:nonzero;stroke:none"
             id="path5896"
             inkscape:connector-curvature="0" /></g><g
           id="g5898"
           transform="translate(98.94,48.0175)"><path
             d="m 0,0 c 0,2.866 -2.324,5.19 -5.19,5.19 -2.866,0 -5.19,-2.324 -5.19,-5.19 0,-2.866 2.324,-5.19 5.19,-5.19 C -2.324,-5.19 0,-2.866 0,0 m -0.96,0 c 0,-2.332 -1.898,-4.23 -4.23,-4.23 -2.332,0 -4.23,1.898 -4.23,4.23 0,2.332 1.898,4.23 4.23,4.23 2.332,0 4.23,-1.898 4.23,-4.23"
             style="fill:#0d0d0d;fill-opacity:1;fill-rule:nonzero;stroke:none"
             id="path5900"
             inkscape:connector-curvature="0" /></g><g
           id="g5902"
           transform="translate(93.75,53.6875)"><path
             d="m 0,0 c -3.126,0 -5.67,-2.544 -5.67,-5.67 0,-3.126 2.544,-5.67 5.67,-5.67 3.126,0 5.67,2.544 5.67,5.67 C 5.67,-2.544 3.126,0 0,0 m 0,-0.48 c 2.866,0 5.19,-2.324 5.19,-5.19 0,-2.866 -2.324,-5.19 -5.19,-5.19 -2.866,0 -5.19,2.324 -5.19,5.19 0,2.866 2.324,5.19 5.19,5.19"
             style="fill:#cccccc;fill-opacity:1;fill-rule:nonzero;stroke:none"
             id="path5904"
             inkscape:connector-curvature="0" /></g><g
           id="g5906"
           transform="translate(113.66,48.0175)"><path
             d="m 0,0 c 0,-2.866 -2.324,-5.19 -5.19,-5.19 -2.866,0 -5.19,2.324 -5.19,5.19 0,2.866 2.324,5.19 5.19,5.19 C -2.324,5.19 0,2.866 0,0"
             style="fill:#404040;fill-opacity:1;fill-rule:nonzero;stroke:none"
             id="path5908"
             inkscape:connector-curvature="0" /></g><g
           id="g5910"
           transform="translate(113.66,48.0175)"><path
             d="m 0,0 c 0,2.866 -2.324,5.19 -5.19,5.19 -2.866,0 -5.19,-2.324 -5.19,-5.19 0,-2.866 2.324,-5.19 5.19,-5.19 C -2.324,-5.19 0,-2.866 0,0 m -0.96,0 c 0,-2.332 -1.898,-4.23 -4.23,-4.23 -2.332,0 -4.23,1.898 -4.23,4.23 0,2.332 1.898,4.23 4.23,4.23 2.332,0 4.23,-1.898 4.23,-4.23"
             style="fill:#0d0d0d;fill-opacity:1;fill-rule:nonzero;stroke:none"
             id="path5912"
             inkscape:connector-curvature="0" /></g><g
           id="g5914"
           transform="translate(108.47,53.6875)"><path
             d="m 0,0 c -3.126,0 -5.67,-2.544 -5.67,-5.67 0,-3.126 2.544,-5.67 5.67,-5.67 3.126,0 5.67,2.544 5.67,5.67 C 5.67,-2.544 3.126,0 0,0 m 0,-0.48 c 2.866,0 5.19,-2.324 5.19,-5.19 0,-2.866 -2.324,-5.19 -5.19,-5.19 -2.866,0 -5.19,2.324 -5.19,5.19 0,2.866 2.324,5.19 5.19,5.19"
             style="fill:#cccccc;fill-opacity:1;fill-rule:nonzero;stroke:none"
             id="path5916"
             inkscape:connector-curvature="0" /></g><g
           id="g5918"
           transform="translate(60.88,48.0875)"><path
             d="m 0,0 c 0,-0.884 -0.716,-1.6 -1.6,-1.6 l -5.6,0 c -0.884,0 -1.6,0.716 -1.6,1.6 0,0.884 0.716,1.6 1.6,1.6 l 5.6,0 C -0.716,1.6 0,0.884 0,0"
             style="fill:#404040;fill-opacity:1;fill-rule:nonzero;stroke:none"
             id="path5920"
             inkscape:connector-curvature="0" /></g><g
           id="g5922"
           transform="translate(61.6,48.0875)"><path
             d="m 0,0 c 0,1.279 -1.041,2.32 -2.32,2.32 l -5.6,0 c -1.279,0 -2.32,-1.041 -2.32,-2.32 0,-1.279 1.041,-2.32 2.32,-2.32 l 5.6,0 C -1.041,-2.32 0,-1.279 0,0 m -0.72,0 c 0,-0.884 -0.716,-1.6 -1.6,-1.6 l -5.6,0 c -0.884,0 -1.6,0.716 -1.6,1.6 0,0.884 0.716,1.6 1.6,1.6 l 5.6,0 c 0.884,0 1.6,-0.716 1.6,-1.6"
             style="fill:#cccccc;fill-opacity:1;fill-rule:nonzero;stroke:none"
             id="path5924"
             inkscape:connector-curvature="0" /></g><g
           id="g5926"
           transform="translate(75.2,48.0875)"><path
             d="m 0,0 c 0,-0.884 -0.716,-1.6 -1.6,-1.6 l -5.6,0 c -0.884,0 -1.6,0.716 -1.6,1.6 0,0.884 0.716,1.6 1.6,1.6 l 5.6,0 C -0.716,1.6 0,0.884 0,0"
             style="fill:#404040;fill-opacity:1;fill-rule:nonzero;stroke:none"
             id="path5928"
             inkscape:connector-curvature="0" /></g><g
           id="g5930"
           transform="translate(75.92,48.0875)"><path
             d="m 0,0 c 0,1.279 -1.041,2.32 -2.32,2.32 l -5.6,0 c -1.279,0 -2.32,-1.041 -2.32,-2.32 0,-1.279 1.041,-2.32 2.32,-2.32 l 5.6,0 C -1.041,-2.32 0,-1.279 0,0 m -0.72,0 c 0,-0.884 -0.716,-1.6 -1.6,-1.6 l -5.6,0 c -0.884,0 -1.6,0.716 -1.6,1.6 0,0.884 0.716,1.6 1.6,1.6 l 5.6,0 c 0.884,0 1.6,-0.716 1.6,-1.6"
             style="fill:#cccccc;fill-opacity:1;fill-rule:nonzero;stroke:none"
             id="path5932"
             inkscape:connector-curvature="0" /></g><path
           d="m 101.628,66.448 -1.68,0 0,1.68 1.68,0 0,-1.68 z"
           style="fill:#9f1d21;fill-opacity:1;fill-rule:nonzero;stroke:none"
           id="path5934"
           inkscape:connector-curvature="0" /><path
           d="m 100.122,69.007 -1.68,0 0,1.68 1.68,0 0,-1.68 z"
           style="fill:#9f1d21;fill-opacity:1;fill-rule:nonzero;stroke:none"
           id="path5936"
           inkscape:connector-curvature="0" /><path
           d="m 103.133,69.007 -1.68,0 0,1.68 1.68,0 0,-1.68 z"
           style="fill:#9f1d21;fill-opacity:1;fill-rule:nonzero;stroke:none"
           id="path5938"
           inkscape:connector-curvature="0" /><g
           id="g5940"
           transform="translate(85.2294,68.2475)"><path
             d="m 0,0 c -0.328,-0.93 -0.651,-1.564 -0.856,-1.92 l 7.107,0 0,1.92 L 0,0 z"
             style="fill:#4c4c4c;fill-opacity:1;fill-rule:nonzero;stroke:none"
             id="path5942"
             inkscape:connector-curvature="0" /></g><g
           id="g5944"
           transform="translate(86.3068,73.6475)"><path
             d="m 0,0 c -0.055,-0.689 -0.131,-1.329 -0.223,-1.92 l 5.396,0 0,1.92 L 0,0 z"
             style="fill:#4c4c4c;fill-opacity:1;fill-rule:nonzero;stroke:none"
             id="path5946"
             inkscape:connector-curvature="0" /></g><g
           id="g5948"
           transform="translate(85.9474,70.9475)"><path
             d="m 0,0 c -0.139,-0.721 -0.298,-1.362 -0.464,-1.92 l 5.997,0 0,1.92 L 0,0 z"
             style="fill:#4c4c4c;fill-opacity:1;fill-rule:nonzero;stroke:none"
             id="path5950"
             inkscape:connector-curvature="0" /></g><path
           d="m 98.945,71.728 -1.68,0 0,1.68 1.68,0 0,-1.68 z"
           style="fill:#9f1d21;fill-opacity:1;fill-rule:nonzero;stroke:none"
           id="path5952"
           inkscape:connector-curvature="0" /><path
           d="m 101.715,71.728 -1.68,0 0,1.68 1.68,0 0,-1.68 z"
           style="fill:#9f1d21;fill-opacity:1;fill-rule:nonzero;stroke:none"
           id="path5954"
           inkscape:connector-curvature="0" /><path
           d="m 104.31,71.728 -1.68,0 0,1.68 1.68,0 0,-1.68 z"
           style="fill:#9f1d21;fill-opacity:1;fill-rule:nonzero;stroke:none"
           id="path5956"
           inkscape:connector-curvature="0" /><g
           id="g5958"
           transform="translate(95.8,67.2875)"><path
             d="m 0,0 c 0,-1.193 -0.967,-2.16 -2.16,-2.16 -1.193,0 -2.16,0.967 -2.16,2.16 l 0,5.4 c 0,1.193 0.967,2.16 2.16,2.16 C -0.967,7.56 0,6.593 0,5.4 L 0,0 z"
             style="fill:#191919;fill-opacity:1;fill-rule:nonzero;stroke:none"
             id="path5960"
             inkscape:connector-curvature="0" /></g><g
           id="g5962"
           transform="translate(95.44,72.6875)"><path
             d="M 0,0 C 0,0.993 -0.807,1.8 -1.8,1.8 -2.793,1.8 -3.6,0.993 -3.6,0 l 0,-5.4 c 0,-0.993 0.807,-1.8 1.8,-1.8 0.993,0 1.8,0.807 1.8,1.8 L 0,0 z m -4.32,-5.4 0,5.4 c 0,1.389 1.131,2.52 2.52,2.52 1.389,0 2.52,-1.131 2.52,-2.52 l 0,-5.4 c 0,-1.389 -1.131,-2.52 -2.52,-2.52 -1.389,0 -2.52,1.131 -2.52,2.52"
             style="fill:#cccccc;fill-opacity:1;fill-rule:nonzero;stroke:none"
             id="path5964"
             inkscape:connector-curvature="0" /></g><g
           id="g5966"
           transform="translate(95.28,67.3675)"><path
             d="m 0,0 c 0,-0.906 -0.734,-1.64 -1.64,-1.64 -0.906,0 -1.64,0.734 -1.64,1.64 0,0.906 0.734,1.64 1.64,1.64 C -0.734,1.64 0,0.906 0,0"
             style="fill:#404040;fill-opacity:1;fill-rule:nonzero;stroke:none"
             id="path5968"
             inkscape:connector-curvature="0" /></g><g
           id="g5970"
           transform="translate(93.88,64.1675)"><path
             d="m 0,0 -2.7,-1.8 0,-5.94 5.4,0 0,5.94 L 0,0 z"
             style="fill:#9f1d21;fill-opacity:1;fill-rule:nonzero;stroke:none"
             id="path5972"
             inkscape:connector-curvature="0" /></g><g
           id="g5974"
           transform="translate(108.22,64.1675)"><path
             d="m 0,0 -2.7,-1.8 0,-5.94 5.4,0 0,5.94 L 0,0 z"
             style="fill:#9f1d21;fill-opacity:1;fill-rule:nonzero;stroke:none"
             id="path5976"
             inkscape:connector-curvature="0" /></g><path
           d="m 109.62,71.728 5.17,0 0,1.92 -5.17,0 0,-1.92 z"
           style="fill:#4c4c4c;fill-opacity:1;fill-rule:nonzero;stroke:none"
           id="path5978"
           inkscape:connector-curvature="0" /><path
           d="m 109.62,69.027 5.17,0 0,1.92 -5.17,0 0,-1.92 z"
           style="fill:#4c4c4c;fill-opacity:1;fill-rule:nonzero;stroke:none"
           id="path5980"
           inkscape:connector-curvature="0" /><path
           d="m 109.62,66.327 5.17,0 0,1.92 -5.17,0 0,-1.92 z"
           style="fill:#4c4c4c;fill-opacity:1;fill-rule:nonzero;stroke:none"
           id="path5982"
           inkscape:connector-curvature="0" /><g
           id="g5984"
           transform="translate(110.14,67.2875)"><path
             d="m 0,0 c 0,-1.193 -0.967,-2.16 -2.16,-2.16 -1.193,0 -2.16,0.967 -2.16,2.16 l 0,5.4 c 0,1.193 0.967,2.16 2.16,2.16 C -0.967,7.56 0,6.593 0,5.4 L 0,0 z"
             style="fill:#191919;fill-opacity:1;fill-rule:nonzero;stroke:none"
             id="path5986"
             inkscape:connector-curvature="0" /></g><g
           id="g5988"
           transform="translate(109.78,72.6875)"><path
             d="M 0,0 C 0,0.993 -0.807,1.8 -1.8,1.8 -2.793,1.8 -3.6,0.993 -3.6,0 l 0,-5.4 c 0,-0.993 0.807,-1.8 1.8,-1.8 0.993,0 1.8,0.807 1.8,1.8 L 0,0 z m -4.32,-5.4 0,5.4 c 0,1.389 1.131,2.52 2.52,2.52 1.389,0 2.52,-1.131 2.52,-2.52 l 0,-5.4 c 0,-1.389 -1.131,-2.52 -2.52,-2.52 -1.389,0 -2.52,1.131 -2.52,2.52"
             style="fill:#cccccc;fill-opacity:1;fill-rule:nonzero;stroke:none"
             id="path5990"
             inkscape:connector-curvature="0" /></g><g
           id="g5992"
           transform="translate(109.62,67.3675)"><path
             d="m 0,0 c 0,-0.906 -0.734,-1.64 -1.64,-1.64 -0.906,0 -1.64,0.734 -1.64,1.64 0,0.906 0.734,1.64 1.64,1.64 C -0.734,1.64 0,0.906 0,0"
             style="fill:#404040;fill-opacity:1;fill-rule:nonzero;stroke:none"
             id="path5994"
             inkscape:connector-curvature="0" /></g><g
           id="g5996"><g
             id="g5998" /><g
             id="g6004"><g
               clip-path="url(#clipPath6000)"
               id="g6006"
               style="opacity:0.5"><g
                 transform="translate(21.36,68.2475)"
                 id="g6008"><path
                   d="m 0,0 c -2.636,0 -5.118,-0.671 -7.284,-1.851 l 0.573,-1.048 C -4.716,-1.816 -2.43,-1.2 0,-1.2 c 7.776,0 14.08,-6.304 14.08,-14.08 0,-4.45 -2.066,-8.415 -5.289,-10.995 l 0.706,-0.962 c 3.52,2.801 5.783,7.119 5.783,11.957 C 15.28,-6.855 8.425,0 0,0"
                   style="fill:#4c4c4c;fill-opacity:1;fill-rule:nonzero;stroke:none"
                   id="path6010"
                   inkscape:connector-curvature="0" /></g></g></g></g><g
           id="g6012"><g
             id="g6014" /><g
             id="g6020"><g
               clip-path="url(#clipPath6016)"
               id="g6022"
               style="opacity:0.5"><g
                 transform="translate(21.36,69.7675)"
                 id="g6024"><path
                   d="m 0,0 c -2.479,0 -4.833,-0.544 -6.953,-1.512 l 0.312,-0.644 c 2.025,0.92 4.272,1.436 6.641,1.436 8.881,0 16.08,-7.199 16.08,-16.08 0,-4.671 -1.994,-8.876 -5.175,-11.814 l 0.407,-0.595 C 14.682,-26.135 16.8,-21.71 16.8,-16.8 16.8,-7.536 9.264,0 0,0"
                   style="fill:#4c4c4c;fill-opacity:1;fill-rule:nonzero;stroke:none"
                   id="path6026"
                   inkscape:connector-curvature="0" /></g></g></g></g><g
           id="g6028"><g
             id="g6030" /><g
             id="g6036"><g
               clip-path="url(#clipPath6032)"
               id="g6038"
               style="opacity:0.5"><g
                 transform="translate(14.9293,68.9846)"
                 id="g6040"><path
                   d="m 0,0 c 1.988,0.799 4.157,1.243 6.431,1.243 9.532,0 17.26,-7.728 17.26,-17.26 0,-4.694 -1.877,-8.948 -4.917,-12.059 l 0.398,-0.44 c 3.163,3.224 5.119,7.637 5.119,12.499 0,9.848 -8.012,17.86 -17.86,17.86 -2.356,0 -4.605,-0.463 -6.667,-1.296 L 0,0 z"
                   style="fill:#4c4c4c;fill-opacity:1;fill-rule:nonzero;stroke:none"
                   id="path6042"
                   inkscape:connector-curvature="0" /></g></g></g></g></g></g></g></svg>