<?xml version="1.0" encoding="UTF-8" standalone="no"?>
<!-- Created with Inkscape (http://www.inkscape.org/) -->

<svg
   xmlns:dc="http://purl.org/dc/elements/1.1/"
   xmlns:cc="http://creativecommons.org/ns#"
   xmlns:rdf="http://www.w3.org/1999/02/22-rdf-syntax-ns#"
   xmlns:svg="http://www.w3.org/2000/svg"
   xmlns="http://www.w3.org/2000/svg"
   xmlns:sodipodi="http://sodipodi.sourceforge.net/DTD/sodipodi-0.dtd"
   xmlns:inkscape="http://www.inkscape.org/namespaces/inkscape"
   id="svg10477"
   version="1.1"
   inkscape:version="0.48.5 r10040"
   width="256"
   height="256"
   xml:space="preserve"
   sodipodi:docname="Nintendo - Nintendo Entertainment System-content_J.svg"
   inkscape:export-filename="/Users/margetts/Desktop/BAXY RetroActive/png_clean/Nintendo - Nintendo Entertainment System-content_J.png"
   inkscape:export-xdpi="90"
   inkscape:export-ydpi="90"><metadata
     id="metadata10483"><rdf:RDF><cc:Work
         rdf:about=""><dc:format>image/svg+xml</dc:format><dc:type
           rdf:resource="http://purl.org/dc/dcmitype/StillImage" /><dc:title></dc:title></cc:Work></rdf:RDF></metadata><defs
     id="defs10481"><clipPath
       clipPathUnits="userSpaceOnUse"
       id="clipPath10491"><path
         d="M 0,128 128,128 128,0 0,0 0,128 z"
         id="path10493"
         inkscape:connector-curvature="0" /></clipPath></defs><sodipodi:namedview
     pagecolor="#ffffff"
     bordercolor="#666666"
     borderopacity="1"
     objecttolerance="10"
     gridtolerance="10"
     guidetolerance="10"
     inkscape:pageopacity="0"
     inkscape:pageshadow="2"
     inkscape:window-width="1676"
     inkscape:window-height="1005"
     id="namedview10479"
     showgrid="false"
     inkscape:zoom="5.2625"
     inkscape:cx="56.152019"
     inkscape:cy="80"
     inkscape:window-x="4"
     inkscape:window-y="1"
     inkscape:window-maximized="1"
     inkscape:current-layer="g10485" /><g
     id="g10485"
     inkscape:groupmode="layer"
     inkscape:label="Nintendo - Nintendo Entertainment System-content_J"
     transform="matrix(1.25,0,0,-1.25,0,256)"><g
       id="g10487"
       transform="matrix(1.6017594,0,0,1.6017594,-0.08460738,0.54347905)"><g
         id="g10489"
         clip-path="url(#clipPath10491)"><g
           id="g10495"
           transform="translate(120.4606,105.8129)"><path
             d="m 0,0 -112.64,0 c -4.235,0 -7.68,-3.445 -7.68,-7.68 l 0,-63.52 0,-2.56 2.56,0 5.6,0 0,-8.125 0,-2.56 2.56,0 106.56,0 2.56,0 0,2.56 0,8.125 5.6,0 2.56,0 0,2.56 0,63.52 C 7.68,-3.445 4.235,0 0,0"
             style="fill:#ffffff;fill-opacity:1;fill-rule:nonzero;stroke:none"
             id="path10497"
             inkscape:connector-curvature="0" /></g><g
           id="g10499"
           transform="translate(125.5806,35.0919)"><path
             d="m 0,0 -122.88,0 0,63.52 c 0,2.828 2.292,5.12 5.12,5.12 l 112.64,0 C -2.292,68.64 0,66.348 0,63.52 L 0,0 z"
             style="fill:#660612;fill-opacity:1;fill-rule:nonzero;stroke:none"
             id="path10501"
             inkscape:connector-curvature="0" /></g><g
           id="g10503"
           transform="translate(118.3806,99.0919)"><path
             d="m 0,0 -108.48,0 c -1.414,0 -2.56,-1.146 -2.56,-2.56 l 0,-58.56 c 0,-0.707 0.573,-1.28 1.28,-1.28 l 2.24,0 0,-12.285 106.56,0 0,12.285 2.24,0 c 0.707,0 1.28,0.573 1.28,1.28 l 0,58.56 C 2.56,-1.146 1.414,0 0,0"
             style="fill:#800717;fill-opacity:1;fill-rule:nonzero;stroke:none"
             id="path10505"
             inkscape:connector-curvature="0" /></g><g
           id="g10507"
           transform="translate(114.0606,44.6918)"><path
             d="m 0,0 -99.84,0 c -1.414,0 -2.56,1.146 -2.56,2.56 l 0,45.92 c 0,1.414 1.146,2.56 2.56,2.56 l 99.84,0 c 1.414,0 2.56,-1.146 2.56,-2.56 l 0,-45.92 C 2.56,1.146 1.414,0 0,0"
             style="fill:#dedacd;fill-opacity:1;fill-rule:nonzero;stroke:none"
             id="path10509"
             inkscape:connector-curvature="0" /></g><g
           id="g10511"
           transform="translate(31.354,87.9452)"><path
             d="m 0,0 -19.693,0 0,5.287 c 0,1.38 1.119,2.5 2.5,2.5 L 0,7.787 0,0 z"
             style="fill:#191919;fill-opacity:1;fill-rule:nonzero;stroke:none"
             id="path10513"
             inkscape:connector-curvature="0" /></g></g></g></g></svg>