<?xml version="1.0" encoding="UTF-8" standalone="no"?>
<!-- Created with Inkscape (http://www.inkscape.org/) -->

<svg
   xmlns:dc="http://purl.org/dc/elements/1.1/"
   xmlns:cc="http://creativecommons.org/ns#"
   xmlns:rdf="http://www.w3.org/1999/02/22-rdf-syntax-ns#"
   xmlns:svg="http://www.w3.org/2000/svg"
   xmlns="http://www.w3.org/2000/svg"
   xmlns:sodipodi="http://sodipodi.sourceforge.net/DTD/sodipodi-0.dtd"
   xmlns:inkscape="http://www.inkscape.org/namespaces/inkscape"
   id="svg9966"
   version="1.1"
   inkscape:version="0.48.5 r10040"
   width="256"
   height="256"
   xml:space="preserve"
   sodipodi:docname="Nintendo - Nintendo DS Decrypted-content.svg"
   inkscape:export-filename="/Users/margetts/Desktop/BAXY RetroActive/png_clean/Nintendo - Nintendo DS Decrypted-content.png"
   inkscape:export-xdpi="90"
   inkscape:export-ydpi="90"><metadata
     id="metadata9972"><rdf:RDF><cc:Work
         rdf:about=""><dc:format>image/svg+xml</dc:format><dc:type
           rdf:resource="http://purl.org/dc/dcmitype/StillImage" /><dc:title></dc:title></cc:Work></rdf:RDF></metadata><defs
     id="defs9970"><clipPath
       clipPathUnits="userSpaceOnUse"
       id="clipPath9980"><path
         d="M 0,128 128,128 128,0 0,0 0,128 z"
         id="path9982"
         inkscape:connector-curvature="0" /></clipPath></defs><sodipodi:namedview
     pagecolor="#ffffff"
     bordercolor="#666666"
     borderopacity="1"
     objecttolerance="10"
     gridtolerance="10"
     guidetolerance="10"
     inkscape:pageopacity="0"
     inkscape:pageshadow="2"
     inkscape:window-width="1676"
     inkscape:window-height="1005"
     id="namedview9968"
     showgrid="false"
     inkscape:zoom="5.2625"
     inkscape:cx="56.152019"
     inkscape:cy="80"
     inkscape:window-x="4"
     inkscape:window-y="1"
     inkscape:window-maximized="1"
     inkscape:current-layer="g9974" /><g
     id="g9974"
     inkscape:groupmode="layer"
     inkscape:label="Nintendo - Nintendo DS Decrypted-content"
     transform="matrix(1.25,0,0,-1.25,0,256)"><g
       id="g9976"
       transform="matrix(1.6,0,0,1.6,0.192,0)"><g
         id="g9978"
         clip-path="url(#clipPath9980)"><g
           id="g9984"
           transform="translate(115.08,128)"><path
             d="m 0,0 -102.4,0 c -4.235,0 -7.68,-3.445 -7.68,-7.68 l 0,-98.64 0,-6.32 0,-0.4 0,-2.56 0.316,0 c 1.37,-7.123 7.562,-12.4 15.044,-12.4 L 0,-128 c 1.154,0 2.286,0.268 3.366,0.798 l 1.434,0.702 0,1.182 c 1.654,0.427 2.88,1.932 2.88,3.718 l 0,5.76 0,108.16 C 7.68,-3.445 4.235,0 0,0"
             style="fill:#ffffff;fill-opacity:1;fill-rule:nonzero;stroke:none"
             id="path9986"
             inkscape:connector-curvature="0" /></g><g
           id="g9988"
           transform="translate(119.7,5.12)"><path
             d="m 0,0 -3.062,0 0,8.285 3.562,0 0,-7.785 C 0.5,0.224 0.276,0 0,0"
             style="fill:#4c4c4c;fill-opacity:1;fill-rule:nonzero;stroke:none"
             id="path9990"
             inkscape:connector-curvature="0" /></g><g
           id="g9992"
           transform="translate(111.24,120.1067)"><path
             d="m 0,0 -91.733,0 c -1.765,0 -3.2,-1.436 -3.2,-3.2 l 0,-92.16 0,-0.234 0.15,-0.178 6.827,-8.107 0.192,-0.228 0.297,0 87.467,0 c 1.764,0 3.2,1.436 3.2,3.2 L 3.2,-3.2 C 3.2,-1.436 1.764,0 0,0"
             style="fill:#4c4c4c;fill-opacity:1;fill-rule:nonzero;stroke:none"
             id="path9994"
             inkscape:connector-curvature="0" /></g><g
           id="g9996"
           transform="translate(117.32,12.16)"><path
             d="m 0,0 2.88,0 0,108.16 c 0,2.828 -2.292,5.12 -5.12,5.12 l -102.4,0 c -2.828,0 -5.12,-2.292 -5.12,-5.12 l 0,-104.96 c 0,-7.069 5.731,-12.8 12.8,-12.8 l 94.72,0 c 0.807,0 1.561,0.204 2.24,0.536 L 0,0 z"
             style="fill:#595959;fill-opacity:1;fill-rule:nonzero;stroke:none"
             id="path9998"
             inkscape:connector-curvature="0" /></g><g
           id="g10000"
           transform="translate(59.4,13.76)"><path
             d="M 0,0 13.12,0 6.56,-5.28 0,0 z"
             style="fill:#4c4c4c;fill-opacity:1;fill-rule:nonzero;stroke:none"
             id="path10002"
             inkscape:connector-curvature="0" /></g><path
           d="m 10.453,15.51 -2.893,0 0,6.17 2.893,0 0,-6.17 z"
           style="fill:#4c4c4c;fill-opacity:1;fill-rule:nonzero;stroke:none"
           id="path10004"
           inkscape:connector-curvature="0" /><g
           id="g10006"
           transform="translate(19.5067,119.4667)"><path
             d="m 0,0 91.733,0 c 1.414,0 2.56,-1.146 2.56,-2.56 l 0,-97.707 c 0,-1.414 -1.146,-2.56 -2.56,-2.56 l -87.466,0 -6.827,8.107 0,92.16 C -2.56,-1.146 -1.414,0 0,0"
             style="fill:#e6e6e6;fill-opacity:1;fill-rule:nonzero;stroke:none"
             id="path10008"
             inkscape:connector-curvature="0" /></g><path
           d="m 113.8,27.52 -96.853,0 0,1.28 96.853,0 0,-1.28 z"
           style="fill:#4c4c4c;fill-opacity:1;fill-rule:nonzero;stroke:none"
           id="path10010"
           inkscape:connector-curvature="0" /><g
           id="g10012"
           transform="translate(47.9088,98.7388)"><path
             d="M 0,0 -0.121,0.011 -30.99,2.695 -31.005,3.333 -0.187,0.66 3.379,3.334 30.221,3.334 33.346,0.655 65.917,1.992 65.905,1.352 33.121,0.005 29.984,2.694 3.591,2.694 0,0 z"
             style="fill:#4c4c4c;fill-opacity:1;fill-rule:nonzero;stroke:none"
             id="path10014"
             inkscape:connector-curvature="0" /></g><g
           id="g10016"
           transform="translate(81.9485,67.5397)"><path
             d="m 0,0 -27.94,0 0,6.399 c 0,5.723 4.656,10.379 10.38,10.379 5.723,0 10.379,-4.656 10.379,-10.379 l 0,-1.849 6.399,0 0,1.849 c 0,9.266 -7.512,16.778 -16.778,16.778 -9.267,0 -16.779,-7.512 -16.779,-16.778 l 0,-6.399 -0.782,0 c -0.942,0 -1.706,-0.764 -1.706,-1.706 l 0,-20.618 c 0,-0.942 0.764,-1.706 1.706,-1.706 l 35.121,0 c 0.942,0 1.706,0.764 1.706,1.706 l 0,20.618 C 1.706,-0.764 0.942,0 0,0"
             style="fill:#191919;fill-opacity:1;fill-rule:nonzero;stroke:none"
             id="path10018"
             inkscape:connector-curvature="0" /></g></g></g></g></svg>