<?xml version="1.0" encoding="UTF-8" standalone="no"?>
<!-- Created with Inkscape (http://www.inkscape.org/) -->

<svg
   xmlns:dc="http://purl.org/dc/elements/1.1/"
   xmlns:cc="http://creativecommons.org/ns#"
   xmlns:rdf="http://www.w3.org/1999/02/22-rdf-syntax-ns#"
   xmlns:svg="http://www.w3.org/2000/svg"
   xmlns="http://www.w3.org/2000/svg"
   xmlns:sodipodi="http://sodipodi.sourceforge.net/DTD/sodipodi-0.dtd"
   xmlns:inkscape="http://www.inkscape.org/namespaces/inkscape"
   id="svg17383"
   version="1.1"
   inkscape:version="0.48.5 r10040"
   width="256"
   height="256"
   xml:space="preserve"
   sodipodi:docname="Nintendo - Nintendo 64-content.svg"
   inkscape:export-filename="/Users/margetts/Desktop/BAXY RetroActive/clean/png/Nintendo - Nintendo 64-content.png"
   inkscape:export-xdpi="90"
   inkscape:export-ydpi="90"><metadata
     id="metadata17389"><rdf:RDF><cc:Work
         rdf:about=""><dc:format>image/svg+xml</dc:format><dc:type
           rdf:resource="http://purl.org/dc/dcmitype/StillImage" /><dc:title></dc:title></cc:Work></rdf:RDF></metadata><defs
     id="defs17387"><clipPath
       clipPathUnits="userSpaceOnUse"
       id="clipPath17397"><path
         d="M 0,128 128,128 128,0 0,0 0,128 z"
         id="path17399"
         inkscape:connector-curvature="0" /></clipPath></defs><sodipodi:namedview
     pagecolor="#ffffff"
     bordercolor="#666666"
     borderopacity="1"
     objecttolerance="10"
     gridtolerance="10"
     guidetolerance="10"
     inkscape:pageopacity="0"
     inkscape:pageshadow="2"
     inkscape:window-width="1676"
     inkscape:window-height="1005"
     id="namedview17385"
     showgrid="false"
     inkscape:zoom="5.2625"
     inkscape:cx="56.152019"
     inkscape:cy="80"
     inkscape:window-x="4"
     inkscape:window-y="1"
     inkscape:window-maximized="1"
     inkscape:current-layer="g17391" /><g
     id="g17391"
     inkscape:groupmode="layer"
     inkscape:label="Nintendo - Nintendo 64-content"
     transform="matrix(1.25,0,0,-1.25,0,256)"><g
       id="g17393"
       transform="matrix(1.6,0,0,1.6,0,-1.3528)"><g
         id="g17395"
         clip-path="url(#clipPath17397)"><g
           id="g17401"
           transform="translate(64,108)"><path
             d="m 0,0 c -21.473,0 -42.494,-4.504 -62.48,-13.386 -0.924,-0.411 -1.52,-1.328 -1.52,-2.34 l 0,-68.023 c 0,-1.413 1.146,-2.56 2.56,-2.56 l 122.88,0 c 1.414,0 2.56,1.147 2.56,2.56 l 0,68.023 c 0,1.012 -0.596,1.929 -1.52,2.34 C 42.494,-4.504 21.473,0 0,0"
             style="fill:#ffffff;fill-opacity:1;fill-rule:nonzero;stroke:none"
             id="path17403"
             inkscape:connector-curvature="0" /></g><g
           id="g17405"
           transform="translate(2.56,92.2743)"><path
             d="m 0,0 c 39.497,17.554 83.383,17.554 122.88,0 l 0,-68.023 L 0,-68.023 0,0 z"
             style="fill:#999999;fill-opacity:1;fill-rule:nonzero;stroke:none"
             id="path17407"
             inkscape:connector-curvature="0" /></g><g
           id="g17409"
           transform="translate(64,98.9486)"><path
             d="m 0,0 c -8.402,0 -16.554,-0.556 -24.228,-1.652 -2.953,-0.422 -4.938,-2.44 -4.938,-5.022 l 0,-57.052 c 0,-2.772 2.256,-5.028 5.029,-5.028 l 48.274,0 c 2.773,0 5.029,2.256 5.029,5.028 l 0,57.052 c 0,2.582 -1.985,4.6 -4.938,5.022 C 16.554,-0.556 8.402,0 0,0"
             style="fill:#808080;fill-opacity:1;fill-rule:nonzero;stroke:none"
             id="path17411"
             inkscape:connector-curvature="0" /></g><g
           id="g17413"
           transform="translate(39.8629,96.6629)"><path
             d="m 0,0 c 15.36,2.194 32.914,2.194 48.274,0 2.407,-0.344 4.389,-1.957 4.389,-4.389 l 0,-57.051 c 0,-2.431 -1.957,-4.389 -4.389,-4.389 l -48.274,0 c -2.431,0 -4.389,1.958 -4.389,4.389 l 0,57.051 c 0,2.432 1.982,4.045 4.389,4.389"
             style="fill:#0124a6;fill-opacity:1;fill-rule:nonzero;stroke:none"
             id="path17415"
             inkscape:connector-curvature="0" /></g><path
           d="m 29.531,24.251 -1.28,0 0,76.8 1.28,0 0,-76.8 z"
           style="fill:#808080;fill-opacity:1;fill-rule:nonzero;stroke:none"
           id="path17417"
           inkscape:connector-curvature="0" /><path
           d="m 99.749,24.251 -1.28,0 0,76.8 1.28,0 0,-76.8 z"
           style="fill:#808080;fill-opacity:1;fill-rule:nonzero;stroke:none"
           id="path17419"
           inkscape:connector-curvature="0" /><g
           id="g17421"
           transform="translate(125.44,50.0028)"><path
             d="M 0,0 -0.658,-0.395 -4.092,-2.454 C -6.009,-3.604 -7.2,-5.707 -7.2,-7.942 l 0,-17.809 1.28,0 0,17.809 c 0,1.798 0.944,3.465 2.487,4.391 L 0,-1.492 0,0 z"
             style="fill:#808080;fill-opacity:1;fill-rule:nonzero;stroke:none"
             id="path17423"
             inkscape:connector-curvature="0" /></g><g
           id="g17425"
           transform="translate(2.56,50.0028)"><path
             d="M 0,0 0.658,-0.395 4.092,-2.454 C 6.009,-3.604 7.2,-5.707 7.2,-7.942 l 0,-17.809 -1.28,0 0,17.809 c 0,1.798 -0.944,3.465 -2.487,4.391 L 0,-1.492 0,0 z"
             style="fill:#808080;fill-opacity:1;fill-rule:nonzero;stroke:none"
             id="path17427"
             inkscape:connector-curvature="0" /></g></g></g></g></svg>