<?xml version="1.0" encoding="UTF-8" standalone="no"?>
<!-- Created with Inkscape (http://www.inkscape.org/) -->

<svg
   xmlns:dc="http://purl.org/dc/elements/1.1/"
   xmlns:cc="http://creativecommons.org/ns#"
   xmlns:rdf="http://www.w3.org/1999/02/22-rdf-syntax-ns#"
   xmlns:svg="http://www.w3.org/2000/svg"
   xmlns="http://www.w3.org/2000/svg"
   xmlns:sodipodi="http://sodipodi.sourceforge.net/DTD/sodipodi-0.dtd"
   xmlns:inkscape="http://www.inkscape.org/namespaces/inkscape"
   id="svg11760"
   version="1.1"
   inkscape:version="0.48.5 r10040"
   width="256"
   height="256"
   xml:space="preserve"
   sodipodi:docname="Nintendo - Virtual Boy-content.svg"
   inkscape:export-filename="/Users/margetts/Desktop/BAXY RetroActive/png_clean/Nintendo - Virtual Boy-content.png"
   inkscape:export-xdpi="90"
   inkscape:export-ydpi="90"><metadata
     id="metadata11766"><rdf:RDF><cc:Work
         rdf:about=""><dc:format>image/svg+xml</dc:format><dc:type
           rdf:resource="http://purl.org/dc/dcmitype/StillImage" /><dc:title></dc:title></cc:Work></rdf:RDF></metadata><defs
     id="defs11764"><clipPath
       clipPathUnits="userSpaceOnUse"
       id="clipPath11774"><path
         d="M 0,128 128,128 128,0 0,0 0,128 z"
         id="path11776"
         inkscape:connector-curvature="0" /></clipPath></defs><sodipodi:namedview
     pagecolor="#ffffff"
     bordercolor="#666666"
     borderopacity="1"
     objecttolerance="10"
     gridtolerance="10"
     guidetolerance="10"
     inkscape:pageopacity="0"
     inkscape:pageshadow="2"
     inkscape:window-width="1676"
     inkscape:window-height="1005"
     id="namedview11762"
     showgrid="false"
     width="256px"
     inkscape:zoom="5.2625"
     inkscape:cx="80"
     inkscape:cy="80"
     inkscape:window-x="4"
     inkscape:window-y="1"
     inkscape:window-maximized="1"
     inkscape:current-layer="g11768" /><g
     id="g11768"
     inkscape:groupmode="layer"
     inkscape:label="Nintendo - Virtual Boy-content"
     transform="matrix(1.25,0,0,-1.25,0,256.00004)"><g
       id="g11770"
       transform="matrix(1.6013186,0,0,1.6013186,-0.06337898,0.21604897)"><g
         id="g11772"
         clip-path="url(#clipPath11774)"><g
           id="g11778"
           transform="translate(117.6174,125.8304)"><path
             d="m 0,0 -107.024,0 c -5.783,0 -10.488,-4.705 -10.488,-10.488 l 0,-85.223 0,-7.928 c 0,-0.71 0.164,-1.382 0.455,-1.982 -0.291,-0.599 -0.455,-1.271 -0.455,-1.982 l 0,-3.963 0,-1.982 c 0,-5.783 4.705,-10.488 10.488,-10.488 l 107.024,0 c 5.783,0 10.488,4.705 10.488,10.488 l 0,1.982 0,3.963 c 0,0.711 -0.164,1.383 -0.456,1.982 0.292,0.6 0.456,1.272 0.456,1.982 l 0,7.928 0,85.223 C 10.488,-4.705 5.783,0 0,0"
             style="fill:#ffffff;fill-opacity:1;fill-rule:nonzero;stroke:none"
             id="path11780"
             inkscape:connector-curvature="0" /></g><g
           id="g11782"
           transform="translate(123.5634,20.2098)"><path
             d="m 0,0 -0.752,0 c -1.394,1.219 -3.197,1.982 -5.194,1.982 l -107.024,0 c -1.997,0 -3.8,-0.763 -5.194,-1.982 l -0.752,0 c -1.095,0 -1.982,-0.887 -1.982,-1.982 l 0,-3.964 0,-1.982 c 0,-4.378 3.549,-7.927 7.928,-7.927 l 107.024,0 c 4.378,0 7.928,3.549 7.928,7.927 l 0,1.982 0,3.964 C 1.982,-0.887 1.095,0 0,0"
             style="fill:#191919;fill-opacity:1;fill-rule:nonzero;stroke:none"
             id="path11784"
             inkscape:connector-curvature="0" /></g><g
           id="g11786"
           transform="translate(117.6174,123.2704)"><path
             d="m 0,0 -107.024,0 c -4.379,0 -7.928,-3.549 -7.928,-7.928 l 0,-85.223 0,-7.928 c 0,-1.094 0.887,-1.982 1.982,-1.982 l 118.916,0 c 1.094,0 1.982,0.888 1.982,1.982 l 0,7.928 0,85.223 C 7.928,-3.549 4.378,0 0,0"
             style="fill:#666666;fill-opacity:1;fill-rule:nonzero;stroke:none"
             id="path11788"
             inkscape:connector-curvature="0" /></g><g
           id="g11790"
           transform="translate(16.5388,120.2838)"><path
             d="m 0,0 95.133,0 c 1.094,0 1.982,-0.862 1.982,-1.924 l 0,-96.225 c 0,-1.063 -0.888,-1.925 -1.982,-1.925 l -95.133,0 c -1.095,0 -1.982,0.862 -1.982,1.925 l 0,96.225 C -1.982,-0.862 -1.095,0 0,0"
             style="fill:#737373;fill-opacity:1;fill-rule:nonzero;stroke:none"
             id="path11792"
             inkscape:connector-curvature="0" /></g><g
           id="g11794"
           transform="translate(25.4617,111.3788)"><path
             d="m 0,0 77.287,0 c 2.192,0 3.968,-1.775 3.968,-3.964 l 0,-61.44 c 0,-2.189 -1.776,-3.964 -3.968,-3.964 l -77.287,0 c -2.192,0 -3.968,1.775 -3.968,3.964 l 0,61.44 C -3.968,-1.775 -2.192,0 0,0"
             style="fill:#6b0500;fill-opacity:1;fill-rule:nonzero;stroke:none"
             id="path11796"
             inkscape:connector-curvature="0" /></g><g
           id="g11798"
           transform="translate(60.9865,32.7229)"><path
             d="M 0,0 6.237,0 C 6.994,0 7.445,-0.843 7.025,-1.473 L 3.907,-6.151 c -0.375,-0.562 -1.201,-0.562 -1.576,0 l -3.119,4.678 C -1.208,-0.843 -0.756,0 0,0"
             style="fill:#666666;fill-opacity:1;fill-rule:nonzero;stroke:none"
             id="path11800"
             inkscape:connector-curvature="0" /></g><g
           id="g11802"
           transform="translate(105.2168,42.0111)"><path
             d="m 0,0 -82.223,0 c -0.829,0 -1.5,0.672 -1.5,1.5 l 0,19.433 85.223,0 L 1.5,1.5 C 1.5,0.672 0.828,0 0,0"
             style="fill:#010c4e;fill-opacity:1;fill-rule:nonzero;stroke:none"
             id="path11804"
             inkscape:connector-curvature="0" /></g><path
           d="m 78.106,54.95 -28,0 0,14.8 28,0 0,-14.8 z"
           style="fill:#191919;fill-opacity:1;fill-rule:nonzero;stroke:none"
           id="path11806"
           inkscape:connector-curvature="0" /><path
           d="m 50.425,55.27 27.36,0 0,14.16 -27.36,0 0,-14.16 z m 28,-0.64 -28.64,0 0,15.44 28.64,0 0,-15.44 z"
           style="fill:#707789;fill-opacity:1;fill-rule:nonzero;stroke:none"
           id="path11808"
           inkscape:connector-curvature="0" /></g></g></g></svg>