<?xml version="1.0" encoding="UTF-8" standalone="no"?>
<!-- Created with Inkscape (http://www.inkscape.org/) -->

<svg
   xmlns:dc="http://purl.org/dc/elements/1.1/"
   xmlns:cc="http://creativecommons.org/ns#"
   xmlns:rdf="http://www.w3.org/1999/02/22-rdf-syntax-ns#"
   xmlns:svg="http://www.w3.org/2000/svg"
   xmlns="http://www.w3.org/2000/svg"
   xmlns:sodipodi="http://sodipodi.sourceforge.net/DTD/sodipodi-0.dtd"
   xmlns:inkscape="http://www.inkscape.org/namespaces/inkscape"
   id="svg8233"
   version="1.1"
   inkscape:version="0.48.5 r10040"
   width="256"
   height="256"
   xml:space="preserve"
   sodipodi:docname="Nintendo - Game Boy Color.svg"
   inkscape:export-filename="/Users/margetts/Desktop/BAXY RetroActive/png_clean/Nintendo - Game Boy Color.png"
   inkscape:export-xdpi="90"
   inkscape:export-ydpi="90"><metadata
     id="metadata8239"><rdf:RDF><cc:Work
         rdf:about=""><dc:format>image/svg+xml</dc:format><dc:type
           rdf:resource="http://purl.org/dc/dcmitype/StillImage" /><dc:title></dc:title></cc:Work></rdf:RDF></metadata><defs
     id="defs8237"><clipPath
       clipPathUnits="userSpaceOnUse"
       id="clipPath8247"><path
         d="M 0,128 128,128 128,0 0,0 0,128 z"
         id="path8249"
         inkscape:connector-curvature="0" /></clipPath></defs><sodipodi:namedview
     pagecolor="#ffffff"
     bordercolor="#666666"
     borderopacity="1"
     objecttolerance="10"
     gridtolerance="10"
     guidetolerance="10"
     inkscape:pageopacity="0"
     inkscape:pageshadow="2"
     inkscape:window-width="1676"
     inkscape:window-height="1005"
     id="namedview8235"
     showgrid="false"
     inkscape:zoom="5.2625"
     inkscape:cx="56.152019"
     inkscape:cy="80"
     inkscape:window-x="4"
     inkscape:window-y="1"
     inkscape:window-maximized="1"
     inkscape:current-layer="g8241" /><g
     id="g8241"
     inkscape:groupmode="layer"
     inkscape:label="Nintendo - Game Boy Color"
     transform="matrix(1.25,0,0,-1.25,0,256)"><g
       id="g8243"
       transform="matrix(1.6,0,0,1.6,-0.376,0)"><g
         id="g8245"
         clip-path="url(#clipPath8247)"><g
           id="g8251"
           transform="translate(93.964,128)"><path
             d="m 0,0 -59.458,0 c -4.69,0 -8.506,-3.816 -8.506,-8.506 l 0,-103.06 0,-1.982 0,-1.982 c 0,-11.869 31.85,-12.47 38.235,-12.47 6.385,0 38.235,0.601 38.235,12.47 l 0,1.982 0,1.982 0,103.06 C 8.506,-3.816 4.69,0 0,0"
             style="fill:#ffffff;fill-opacity:1;fill-rule:nonzero;stroke:none"
             id="path8253"
             inkscape:connector-curvature="0" /></g><g
           id="g8255"
           transform="translate(93.964,125.44)"><path
             d="m 0,0 -59.458,0 c -3.284,0 -5.946,-2.662 -5.946,-5.946 l 0,-103.06 0,-1.982 0,-1.982 c 0,-13.213 71.35,-13.213 71.35,0 l 0,1.982 0,1.982 0,103.06 C 5.946,-2.662 3.284,0 0,0"
             style="fill:#2c8bbf;fill-opacity:1;fill-rule:nonzero;stroke:none"
             id="path8257"
             inkscape:connector-curvature="0" /></g><path
           d="m 87.233,15.409 -45.997,0 0,110.031 45.997,0 0,-110.031 z"
           style="fill:#3096cf;fill-opacity:1;fill-rule:nonzero;stroke:none"
           id="path8259"
           inkscape:connector-curvature="0" /><g
           id="g8261"
           transform="translate(92.1288,119.4942)"><path
             d="m 0,0 -55.788,0 c -2.108,0 -3.817,-1.709 -3.817,-3.817 l 0,-40.275 0,-3.621 0,-1.346 c 0,-2.459 1.994,-4.453 4.453,-4.453 l -0.489,0 c 18.498,-2.143 36.996,-2.265 55.494,0 l -0.489,0 c 2.459,0 4.453,1.994 4.453,4.453 l 0,1.346 0,3.621 0,40.275 C 3.817,-1.709 2.108,0 0,0"
             style="fill:#383838;fill-opacity:1;fill-rule:nonzero;stroke:none"
             id="path8263"
             inkscape:connector-curvature="0" /></g><path
           d="m 44.416,113.548 39.639,0 0,-35.675 -39.639,0 0,35.675 z"
           style="fill:#c1c5ab;fill-opacity:1;fill-rule:nonzero;stroke:none"
           id="path8265"
           inkscape:connector-curvature="0" /><g
           id="g8267"
           transform="translate(51.1229,47.7706)"><path
             d="m 0,0 -5.6,0 0,5.6 -6.56,0 0,-5.6 -5.6,0 0,-6.56 5.6,0 0,-5.6 6.56,0 0,5.6 5.6,0 L 0,0 z"
             style="fill:#333333;fill-opacity:1;fill-rule:nonzero;stroke:none"
             id="path8269"
             inkscape:connector-curvature="0" /></g><g
           id="g8271"
           transform="translate(44.4829,44.4906)"><path
             d="m 0,0 c 0,-1.237 -1.003,-2.24 -2.24,-2.24 -1.237,0 -2.24,1.003 -2.24,2.24 0,1.237 1.003,2.24 2.24,2.24 C -1.003,2.24 0,1.237 0,0"
             style="fill:#404040;fill-opacity:1;fill-rule:nonzero;stroke:none"
             id="path8273"
             inkscape:connector-curvature="0" /></g><g
           id="g8275"
           transform="translate(42.2429,52.4839)"><path
             d="m 0,0 1.68,-2.91 -3.36,0 L 0,0 z"
             style="fill:#404040;fill-opacity:1;fill-rule:nonzero;stroke:none"
             id="path8277"
             inkscape:connector-curvature="0" /></g><g
           id="g8279"
           transform="translate(42.2429,36.4974)"><path
             d="m 0,0 -1.68,2.91 3.36,0 L 0,0 z"
             style="fill:#404040;fill-opacity:1;fill-rule:nonzero;stroke:none"
             id="path8281"
             inkscape:connector-curvature="0" /></g><g
           id="g8283"
           transform="translate(50.2362,44.4906)"><path
             d="m 0,0 -2.91,-1.68 0,3.36 L 0,0 z"
             style="fill:#404040;fill-opacity:1;fill-rule:nonzero;stroke:none"
             id="path8285"
             inkscape:connector-curvature="0" /></g><g
           id="g8287"
           transform="translate(34.2497,44.4906)"><path
             d="m 0,0 2.91,1.68 0,-3.36 L 0,0 z"
             style="fill:#404040;fill-opacity:1;fill-rule:nonzero;stroke:none"
             id="path8289"
             inkscape:connector-curvature="0" /></g><g
           id="g8291"
           transform="translate(80.6696,42.14)"><path
             d="M 0,0 C 0,-2.485 -2.015,-4.5 -4.5,-4.5 -6.985,-4.5 -9,-2.485 -9,0 -9,2.485 -6.985,4.5 -4.5,4.5 -2.015,4.5 0,2.485 0,0"
             style="fill:#333333;fill-opacity:1;fill-rule:nonzero;stroke:none"
             id="path8293"
             inkscape:connector-curvature="0" /></g><g
           id="g8295"
           transform="translate(93.6296,46.3)"><path
             d="M 0,0 C 0,-2.485 -2.015,-4.5 -4.5,-4.5 -6.985,-4.5 -9,-2.485 -9,0 -9,2.485 -6.985,4.5 -4.5,4.5 -2.015,4.5 0,2.485 0,0"
             style="fill:#333333;fill-opacity:1;fill-rule:nonzero;stroke:none"
             id="path8297"
             inkscape:connector-curvature="0" /></g><g
           id="g8299"
           transform="translate(59.9896,22.1599)"><path
             d="m 0,0 -4.24,0 c -0.924,0 -1.68,0.756 -1.68,1.68 l 0,0 c 0,0.924 0.756,1.68 1.68,1.68 l 4.24,0 c 0.924,0 1.68,-0.756 1.68,-1.68 l 0,0 C 1.68,0.756 0.924,0 0,0"
             style="fill:#333333;fill-opacity:1;fill-rule:nonzero;stroke:none"
             id="path8301"
             inkscape:connector-curvature="0" /></g><g
           id="g8303"
           transform="translate(71.4296,22.1599)"><path
             d="m 0,0 -4.24,0 c -0.924,0 -1.68,0.756 -1.68,1.68 l 0,0 c 0,0.924 0.756,1.68 1.68,1.68 l 4.24,0 c 0.924,0 1.68,-0.756 1.68,-1.68 l 0,0 C 1.68,0.756 0.924,0 0,0"
             style="fill:#333333;fill-opacity:1;fill-rule:nonzero;stroke:none"
             id="path8305"
             inkscape:connector-curvature="0" /></g><g
           id="g8307"
           transform="translate(80.56,20.7962)"><path
             d="m 0,0 c 0,-0.358 -0.29,-0.648 -0.648,-0.648 -0.357,0 -0.647,0.29 -0.647,0.648 0,0.358 0.29,0.648 0.647,0.648 C -0.29,0.648 0,0.358 0,0"
             style="fill:#333333;fill-opacity:1;fill-rule:nonzero;stroke:none"
             id="path8309"
             inkscape:connector-curvature="0" /></g><g
           id="g8311"
           transform="translate(80.56,18.5484)"><path
             d="m 0,0 c 0,-0.358 -0.29,-0.648 -0.648,-0.648 -0.357,0 -0.647,0.29 -0.647,0.648 0,0.358 0.29,0.648 0.647,0.648 C -0.29,0.648 0,0.358 0,0"
             style="fill:#2c8bbf;fill-opacity:1;fill-rule:nonzero;stroke:none"
             id="path8313"
             inkscape:connector-curvature="0" /></g><g
           id="g8315"
           transform="translate(80.56,16.3006)"><path
             d="m 0,0 c 0,-0.358 -0.29,-0.648 -0.648,-0.648 -0.357,0 -0.647,0.29 -0.647,0.648 0,0.358 0.29,0.648 0.647,0.648 C -0.29,0.648 0,0.358 0,0"
             style="fill:#333333;fill-opacity:1;fill-rule:nonzero;stroke:none"
             id="path8317"
             inkscape:connector-curvature="0" /></g><g
           id="g8319"
           transform="translate(80.56,14.0529)"><path
             d="m 0,0 c 0,-0.358 -0.29,-0.648 -0.648,-0.648 -0.357,0 -0.647,0.29 -0.647,0.648 0,0.358 0.29,0.648 0.647,0.648 C -0.29,0.648 0,0.358 0,0"
             style="fill:#236f99;fill-opacity:1;fill-rule:nonzero;stroke:none"
             id="path8321"
             inkscape:connector-curvature="0" /></g><g
           id="g8323"
           transform="translate(80.56,11.8051)"><path
             d="m 0,0 c 0,-0.358 -0.29,-0.648 -0.648,-0.648 -0.357,0 -0.647,0.29 -0.647,0.648 0,0.358 0.29,0.648 0.647,0.648 C -0.29,0.648 0,0.358 0,0"
             style="fill:#333333;fill-opacity:1;fill-rule:nonzero;stroke:none"
             id="path8325"
             inkscape:connector-curvature="0" /></g><g
           id="g8327"
           transform="translate(80.56,9.5573)"><path
             d="m 0,0 c 0,-0.358 -0.29,-0.648 -0.648,-0.648 -0.357,0 -0.647,0.29 -0.647,0.648 0,0.358 0.29,0.648 0.647,0.648 C -0.29,0.648 0,0.358 0,0"
             style="fill:#236f99;fill-opacity:1;fill-rule:nonzero;stroke:none"
             id="path8329"
             inkscape:connector-curvature="0" /></g><g
           id="g8331"
           transform="translate(82.6381,21.0974)"><path
             d="m 0,0 c 0,-0.358 -0.29,-0.648 -0.648,-0.648 -0.357,0 -0.647,0.29 -0.647,0.648 0,0.358 0.29,0.648 0.647,0.648 C -0.29,0.648 0,0.358 0,0"
             style="fill:#2c8bbf;fill-opacity:1;fill-rule:nonzero;stroke:none"
             id="path8333"
             inkscape:connector-curvature="0" /></g><g
           id="g8335"
           transform="translate(82.6381,18.8496)"><path
             d="m 0,0 c 0,-0.358 -0.29,-0.648 -0.648,-0.648 -0.357,0 -0.647,0.29 -0.647,0.648 0,0.358 0.29,0.648 0.647,0.648 C -0.29,0.648 0,0.358 0,0"
             style="fill:#333333;fill-opacity:1;fill-rule:nonzero;stroke:none"
             id="path8337"
             inkscape:connector-curvature="0" /></g><g
           id="g8339"
           transform="translate(82.6381,16.6018)"><path
             d="m 0,0 c 0,-0.358 -0.29,-0.648 -0.648,-0.648 -0.357,0 -0.647,0.29 -0.647,0.648 0,0.358 0.29,0.648 0.647,0.648 C -0.29,0.648 0,0.358 0,0"
             style="fill:#2c8bbf;fill-opacity:1;fill-rule:nonzero;stroke:none"
             id="path8341"
             inkscape:connector-curvature="0" /></g><g
           id="g8343"
           transform="translate(82.6381,14.354)"><path
             d="m 0,0 c 0,-0.358 -0.29,-0.648 -0.648,-0.648 -0.357,0 -0.647,0.29 -0.647,0.648 0,0.358 0.29,0.648 0.647,0.648 C -0.29,0.648 0,0.358 0,0"
             style="fill:#333333;fill-opacity:1;fill-rule:nonzero;stroke:none"
             id="path8345"
             inkscape:connector-curvature="0" /></g><g
           id="g8347"
           transform="translate(82.6381,12.1063)"><path
             d="m 0,0 c 0,-0.358 -0.29,-0.648 -0.648,-0.648 -0.357,0 -0.647,0.29 -0.647,0.648 0,0.358 0.29,0.648 0.647,0.648 C -0.29,0.648 0,0.358 0,0"
             style="fill:#236f99;fill-opacity:1;fill-rule:nonzero;stroke:none"
             id="path8349"
             inkscape:connector-curvature="0" /></g><g
           id="g8351"
           transform="translate(82.6381,9.8585)"><path
             d="m 0,0 c 0,-0.358 -0.29,-0.648 -0.648,-0.648 -0.357,0 -0.647,0.29 -0.647,0.648 0,0.358 0.29,0.648 0.647,0.648 C -0.29,0.648 0,0.358 0,0"
             style="fill:#333333;fill-opacity:1;fill-rule:nonzero;stroke:none"
             id="path8353"
             inkscape:connector-curvature="0" /></g><g
           id="g8355"
           transform="translate(84.7162,21.3985)"><path
             d="m 0,0 c 0,-0.358 -0.29,-0.648 -0.648,-0.648 -0.357,0 -0.647,0.29 -0.647,0.648 0,0.358 0.29,0.648 0.647,0.648 C -0.29,0.648 0,0.358 0,0"
             style="fill:#333333;fill-opacity:1;fill-rule:nonzero;stroke:none"
             id="path8357"
             inkscape:connector-curvature="0" /></g><g
           id="g8359"
           transform="translate(84.7162,19.1508)"><path
             d="m 0,0 c 0,-0.358 -0.29,-0.648 -0.648,-0.648 -0.357,0 -0.647,0.29 -0.647,0.648 0,0.358 0.29,0.648 0.647,0.648 C -0.29,0.648 0,0.358 0,0"
             style="fill:#2c8bbf;fill-opacity:1;fill-rule:nonzero;stroke:none"
             id="path8361"
             inkscape:connector-curvature="0" /></g><g
           id="g8363"
           transform="translate(84.7162,16.903)"><path
             d="m 0,0 c 0,-0.358 -0.29,-0.648 -0.648,-0.648 -0.357,0 -0.647,0.29 -0.647,0.648 0,0.358 0.29,0.648 0.647,0.648 C -0.29,0.648 0,0.358 0,0"
             style="fill:#333333;fill-opacity:1;fill-rule:nonzero;stroke:none"
             id="path8365"
             inkscape:connector-curvature="0" /></g><g
           id="g8367"
           transform="translate(84.7162,14.6552)"><path
             d="m 0,0 c 0,-0.358 -0.29,-0.648 -0.648,-0.648 -0.357,0 -0.647,0.29 -0.647,0.648 0,0.358 0.29,0.648 0.647,0.648 C -0.29,0.648 0,0.358 0,0"
             style="fill:#236f99;fill-opacity:1;fill-rule:nonzero;stroke:none"
             id="path8369"
             inkscape:connector-curvature="0" /></g><g
           id="g8371"
           transform="translate(84.7162,12.4075)"><path
             d="m 0,0 c 0,-0.358 -0.29,-0.648 -0.648,-0.648 -0.357,0 -0.647,0.29 -0.647,0.648 0,0.358 0.29,0.648 0.647,0.648 C -0.29,0.648 0,0.358 0,0"
             style="fill:#333333;fill-opacity:1;fill-rule:nonzero;stroke:none"
             id="path8373"
             inkscape:connector-curvature="0" /></g><g
           id="g8375"
           transform="translate(84.7162,10.1597)"><path
             d="m 0,0 c 0,-0.358 -0.29,-0.648 -0.648,-0.648 -0.357,0 -0.647,0.29 -0.647,0.648 0,0.358 0.29,0.648 0.647,0.648 C -0.29,0.648 0,0.358 0,0"
             style="fill:#236f99;fill-opacity:1;fill-rule:nonzero;stroke:none"
             id="path8377"
             inkscape:connector-curvature="0" /></g><g
           id="g8379"
           transform="translate(86.7943,21.6997)"><path
             d="m 0,0 c 0,-0.358 -0.29,-0.648 -0.648,-0.648 -0.357,0 -0.647,0.29 -0.647,0.648 0,0.358 0.29,0.648 0.647,0.648 C -0.29,0.648 0,0.358 0,0"
             style="fill:#2c8bbf;fill-opacity:1;fill-rule:nonzero;stroke:none"
             id="path8381"
             inkscape:connector-curvature="0" /></g><g
           id="g8383"
           transform="translate(86.7943,19.4519)"><path
             d="m 0,0 c 0,-0.358 -0.29,-0.648 -0.648,-0.648 -0.357,0 -0.647,0.29 -0.647,0.648 0,0.358 0.29,0.648 0.647,0.648 C -0.29,0.648 0,0.358 0,0"
             style="fill:#333333;fill-opacity:1;fill-rule:nonzero;stroke:none"
             id="path8385"
             inkscape:connector-curvature="0" /></g><g
           id="g8387"
           transform="translate(86.7943,17.2042)"><path
             d="m 0,0 c 0,-0.358 -0.29,-0.648 -0.648,-0.648 -0.357,0 -0.647,0.29 -0.647,0.648 0,0.358 0.29,0.648 0.647,0.648 C -0.29,0.648 0,0.358 0,0"
             style="fill:#2c8bbf;fill-opacity:1;fill-rule:nonzero;stroke:none"
             id="path8389"
             inkscape:connector-curvature="0" /></g><g
           id="g8391"
           transform="translate(86.7943,14.9564)"><path
             d="m 0,0 c 0,-0.358 -0.29,-0.648 -0.648,-0.648 -0.357,0 -0.647,0.29 -0.647,0.648 0,0.358 0.29,0.648 0.647,0.648 C -0.29,0.648 0,0.358 0,0"
             style="fill:#333333;fill-opacity:1;fill-rule:nonzero;stroke:none"
             id="path8393"
             inkscape:connector-curvature="0" /></g><g
           id="g8395"
           transform="translate(86.7943,12.7086)"><path
             d="m 0,0 c 0,-0.358 -0.29,-0.648 -0.648,-0.648 -0.357,0 -0.647,0.29 -0.647,0.648 0,0.358 0.29,0.648 0.647,0.648 C -0.29,0.648 0,0.358 0,0"
             style="fill:#236f99;fill-opacity:1;fill-rule:nonzero;stroke:none"
             id="path8397"
             inkscape:connector-curvature="0" /></g><g
           id="g8399"
           transform="translate(86.7943,10.4609)"><path
             d="m 0,0 c 0,-0.358 -0.29,-0.648 -0.648,-0.648 -0.357,0 -0.647,0.29 -0.647,0.648 0,0.358 0.29,0.648 0.647,0.648 C -0.29,0.648 0,0.358 0,0"
             style="fill:#333333;fill-opacity:1;fill-rule:nonzero;stroke:none"
             id="path8401"
             inkscape:connector-curvature="0" /></g><g
           id="g8403"
           transform="translate(88.8725,22.0009)"><path
             d="m 0,0 c 0,-0.358 -0.29,-0.648 -0.648,-0.648 -0.357,0 -0.647,0.29 -0.647,0.648 0,0.358 0.29,0.648 0.647,0.648 C -0.29,0.648 0,0.358 0,0"
             style="fill:#333333;fill-opacity:1;fill-rule:nonzero;stroke:none"
             id="path8405"
             inkscape:connector-curvature="0" /></g><g
           id="g8407"
           transform="translate(88.8725,19.7531)"><path
             d="m 0,0 c 0,-0.358 -0.29,-0.648 -0.648,-0.648 -0.357,0 -0.647,0.29 -0.647,0.648 0,0.358 0.29,0.648 0.647,0.648 C -0.29,0.648 0,0.358 0,0"
             style="fill:#236f99;fill-opacity:1;fill-rule:nonzero;stroke:none"
             id="path8409"
             inkscape:connector-curvature="0" /></g><g
           id="g8411"
           transform="translate(88.8725,17.5054)"><path
             d="m 0,0 c 0,-0.358 -0.29,-0.648 -0.648,-0.648 -0.357,0 -0.647,0.29 -0.647,0.648 0,0.358 0.29,0.648 0.647,0.648 C -0.29,0.648 0,0.358 0,0"
             style="fill:#333333;fill-opacity:1;fill-rule:nonzero;stroke:none"
             id="path8413"
             inkscape:connector-curvature="0" /></g><g
           id="g8415"
           transform="translate(88.8725,15.2576)"><path
             d="m 0,0 c 0,-0.358 -0.29,-0.648 -0.648,-0.648 -0.357,0 -0.647,0.29 -0.647,0.648 0,0.358 0.29,0.648 0.647,0.648 C -0.29,0.648 0,0.358 0,0"
             style="fill:#236f99;fill-opacity:1;fill-rule:nonzero;stroke:none"
             id="path8417"
             inkscape:connector-curvature="0" /></g><g
           id="g8419"
           transform="translate(88.8725,13.0098)"><path
             d="m 0,0 c 0,-0.358 -0.29,-0.648 -0.648,-0.648 -0.357,0 -0.647,0.29 -0.647,0.648 0,0.358 0.29,0.648 0.647,0.648 C -0.29,0.648 0,0.358 0,0"
             style="fill:#333333;fill-opacity:1;fill-rule:nonzero;stroke:none"
             id="path8421"
             inkscape:connector-curvature="0" /></g><g
           id="g8423"
           transform="translate(88.8725,10.7621)"><path
             d="m 0,0 c 0,-0.358 -0.29,-0.648 -0.648,-0.648 -0.357,0 -0.647,0.29 -0.647,0.648 0,0.358 0.29,0.648 0.647,0.648 C -0.29,0.648 0,0.358 0,0"
             style="fill:#236f99;fill-opacity:1;fill-rule:nonzero;stroke:none"
             id="path8425"
             inkscape:connector-curvature="0" /></g><g
           id="g8427"
           transform="translate(90.9506,22.3021)"><path
             d="m 0,0 c 0,-0.358 -0.29,-0.648 -0.648,-0.648 -0.357,0 -0.647,0.29 -0.647,0.648 0,0.358 0.29,0.648 0.647,0.648 C -0.29,0.648 0,0.358 0,0"
             style="fill:#236f99;fill-opacity:1;fill-rule:nonzero;stroke:none"
             id="path8429"
             inkscape:connector-curvature="0" /></g><g
           id="g8431"
           transform="translate(90.9506,20.0543)"><path
             d="m 0,0 c 0,-0.358 -0.29,-0.648 -0.648,-0.648 -0.357,0 -0.647,0.29 -0.647,0.648 0,0.358 0.29,0.648 0.647,0.648 C -0.29,0.648 0,0.358 0,0"
             style="fill:#333333;fill-opacity:1;fill-rule:nonzero;stroke:none"
             id="path8433"
             inkscape:connector-curvature="0" /></g><g
           id="g8435"
           transform="translate(90.9506,17.8065)"><path
             d="m 0,0 c 0,-0.358 -0.29,-0.648 -0.648,-0.648 -0.357,0 -0.647,0.29 -0.647,0.648 0,0.358 0.29,0.648 0.647,0.648 C -0.29,0.648 0,0.358 0,0"
             style="fill:#236f99;fill-opacity:1;fill-rule:nonzero;stroke:none"
             id="path8437"
             inkscape:connector-curvature="0" /></g><g
           id="g8439"
           transform="translate(90.9506,15.5588)"><path
             d="m 0,0 c 0,-0.358 -0.29,-0.648 -0.648,-0.648 -0.357,0 -0.647,0.29 -0.647,0.648 0,0.358 0.29,0.648 0.647,0.648 C -0.29,0.648 0,0.358 0,0"
             style="fill:#333333;fill-opacity:1;fill-rule:nonzero;stroke:none"
             id="path8441"
             inkscape:connector-curvature="0" /></g><g
           id="g8443"
           transform="translate(90.9506,13.311)"><path
             d="m 0,0 c 0,-0.358 -0.29,-0.648 -0.648,-0.648 -0.357,0 -0.647,0.29 -0.647,0.648 0,0.358 0.29,0.648 0.647,0.648 C -0.29,0.648 0,0.358 0,0"
             style="fill:#236f99;fill-opacity:1;fill-rule:nonzero;stroke:none"
             id="path8445"
             inkscape:connector-curvature="0" /></g><g
           id="g8447"
           transform="translate(90.9506,11.0632)"><path
             d="m 0,0 c 0,-0.358 -0.29,-0.648 -0.648,-0.648 -0.357,0 -0.647,0.29 -0.647,0.648 0,0.358 0.29,0.648 0.647,0.648 C -0.29,0.648 0,0.358 0,0"
             style="fill:#333333;fill-opacity:1;fill-rule:nonzero;stroke:none"
             id="path8449"
             inkscape:connector-curvature="0" /></g><g
           id="g8451"
           transform="translate(93.0287,22.6032)"><path
             d="m 0,0 c 0,-0.358 -0.29,-0.648 -0.648,-0.648 -0.357,0 -0.647,0.29 -0.647,0.648 0,0.358 0.29,0.648 0.647,0.648 C -0.29,0.648 0,0.358 0,0"
             style="fill:#333333;fill-opacity:1;fill-rule:nonzero;stroke:none"
             id="path8453"
             inkscape:connector-curvature="0" /></g><g
           id="g8455"
           transform="translate(82.6381,23.087)"><path
             d="m 0,0 c 0,-0.358 -0.29,-0.648 -0.648,-0.648 -0.357,0 -0.647,0.29 -0.647,0.648 0,0.358 0.29,0.648 0.647,0.648 C -0.29,0.648 0,0.358 0,0"
             style="fill:#333333;fill-opacity:1;fill-rule:nonzero;stroke:none"
             id="path8457"
             inkscape:connector-curvature="0" /></g><g
           id="g8459"
           transform="translate(84.7162,23.3882)"><path
             d="m 0,0 c 0,-0.358 -0.29,-0.648 -0.648,-0.648 -0.357,0 -0.647,0.29 -0.647,0.648 0,0.358 0.29,0.648 0.647,0.648 C -0.29,0.648 0,0.358 0,0"
             style="fill:#2c8bbf;fill-opacity:1;fill-rule:nonzero;stroke:none"
             id="path8461"
             inkscape:connector-curvature="0" /></g><g
           id="g8463"
           transform="translate(86.7943,23.6894)"><path
             d="m 0,0 c 0,-0.358 -0.29,-0.648 -0.648,-0.648 -0.357,0 -0.647,0.29 -0.647,0.648 0,0.358 0.29,0.648 0.647,0.648 C -0.29,0.648 0,0.358 0,0"
             style="fill:#333333;fill-opacity:1;fill-rule:nonzero;stroke:none"
             id="path8465"
             inkscape:connector-curvature="0" /></g><g
           id="g8467"
           transform="translate(88.8725,23.9905)"><path
             d="m 0,0 c 0,-0.358 -0.29,-0.648 -0.648,-0.648 -0.357,0 -0.647,0.29 -0.647,0.648 0,0.358 0.29,0.648 0.647,0.648 C -0.29,0.648 0,0.358 0,0"
             style="fill:#236f99;fill-opacity:1;fill-rule:nonzero;stroke:none"
             id="path8469"
             inkscape:connector-curvature="0" /></g><g
           id="g8471"
           transform="translate(90.9506,24.2917)"><path
             d="m 0,0 c 0,-0.358 -0.29,-0.648 -0.648,-0.648 -0.357,0 -0.647,0.29 -0.647,0.648 0,0.358 0.29,0.648 0.647,0.648 C -0.29,0.648 0,0.358 0,0"
             style="fill:#333333;fill-opacity:1;fill-rule:nonzero;stroke:none"
             id="path8473"
             inkscape:connector-curvature="0" /></g><g
           id="g8475"
           transform="translate(93.0287,24.5929)"><path
             d="m 0,0 c 0,-0.358 -0.29,-0.648 -0.648,-0.648 -0.357,0 -0.647,0.29 -0.647,0.648 0,0.358 0.29,0.648 0.647,0.648 C -0.29,0.648 0,0.358 0,0"
             style="fill:#236f99;fill-opacity:1;fill-rule:nonzero;stroke:none"
             id="path8477"
             inkscape:connector-curvature="0" /></g><g
           id="g8479"
           transform="translate(93.0287,20.3555)"><path
             d="m 0,0 c 0,-0.358 -0.29,-0.648 -0.648,-0.648 -0.357,0 -0.647,0.29 -0.647,0.648 0,0.358 0.29,0.648 0.647,0.648 C -0.29,0.648 0,0.358 0,0"
             style="fill:#236f99;fill-opacity:1;fill-rule:nonzero;stroke:none"
             id="path8481"
             inkscape:connector-curvature="0" /></g><g
           id="g8483"
           transform="translate(93.0287,18.1077)"><path
             d="m 0,0 c 0,-0.358 -0.29,-0.648 -0.648,-0.648 -0.357,0 -0.647,0.29 -0.647,0.648 0,0.358 0.29,0.648 0.647,0.648 C -0.29,0.648 0,0.358 0,0"
             style="fill:#333333;fill-opacity:1;fill-rule:nonzero;stroke:none"
             id="path8485"
             inkscape:connector-curvature="0" /></g><g
           id="g8487"
           transform="translate(93.0287,15.8599)"><path
             d="m 0,0 c 0,-0.358 -0.29,-0.648 -0.648,-0.648 -0.357,0 -0.647,0.29 -0.647,0.648 0,0.358 0.29,0.648 0.647,0.648 C -0.29,0.648 0,0.358 0,0"
             style="fill:#236f99;fill-opacity:1;fill-rule:nonzero;stroke:none"
             id="path8489"
             inkscape:connector-curvature="0" /></g><g
           id="g8491"
           transform="translate(93.0287,13.6122)"><path
             d="m 0,0 c 0,-0.358 -0.29,-0.648 -0.648,-0.648 -0.357,0 -0.647,0.29 -0.647,0.648 0,0.358 0.29,0.648 0.647,0.648 C -0.29,0.648 0,0.358 0,0"
             style="fill:#333333;fill-opacity:1;fill-rule:nonzero;stroke:none"
             id="path8493"
             inkscape:connector-curvature="0" /></g><g
           id="g8495"
           transform="translate(93.0287,11.3644)"><path
             d="m 0,0 c 0,-0.358 -0.29,-0.648 -0.648,-0.648 -0.357,0 -0.647,0.29 -0.647,0.648 0,0.358 0.29,0.648 0.647,0.648 C -0.29,0.648 0,0.358 0,0"
             style="fill:#236f99;fill-opacity:1;fill-rule:nonzero;stroke:none"
             id="path8497"
             inkscape:connector-curvature="0" /></g><g
           id="g8499"
           transform="translate(82.6381,7.6599)"><path
             d="m 0,0 c 0,-0.358 -0.29,-0.648 -0.648,-0.648 -0.357,0 -0.647,0.29 -0.647,0.648 0,0.358 0.29,0.648 0.647,0.648 C -0.29,0.648 0,0.358 0,0"
             style="fill:#236f99;fill-opacity:1;fill-rule:nonzero;stroke:none"
             id="path8501"
             inkscape:connector-curvature="0" /></g><g
           id="g8503"
           transform="translate(84.7162,7.9611)"><path
             d="m 0,0 c 0,-0.358 -0.29,-0.648 -0.648,-0.648 -0.357,0 -0.647,0.29 -0.647,0.648 0,0.358 0.29,0.648 0.647,0.648 C -0.29,0.648 0,0.358 0,0"
             style="fill:#333333;fill-opacity:1;fill-rule:nonzero;stroke:none"
             id="path8505"
             inkscape:connector-curvature="0" /></g><g
           id="g8507"
           transform="translate(86.7943,8.2623)"><path
             d="m 0,0 c 0,-0.358 -0.29,-0.648 -0.648,-0.648 -0.357,0 -0.647,0.29 -0.647,0.648 0,0.358 0.29,0.648 0.647,0.648 C -0.29,0.648 0,0.358 0,0"
             style="fill:#236f99;fill-opacity:1;fill-rule:nonzero;stroke:none"
             id="path8509"
             inkscape:connector-curvature="0" /></g><g
           id="g8511"
           transform="translate(88.8725,8.5635)"><path
             d="m 0,0 c 0,-0.358 -0.29,-0.648 -0.648,-0.648 -0.357,0 -0.647,0.29 -0.647,0.648 0,0.358 0.29,0.648 0.647,0.648 C -0.29,0.648 0,0.358 0,0"
             style="fill:#333333;fill-opacity:1;fill-rule:nonzero;stroke:none"
             id="path8513"
             inkscape:connector-curvature="0" /></g><g
           id="g8515"
           transform="translate(90.9506,8.8646)"><path
             d="m 0,0 c 0,-0.358 -0.29,-0.648 -0.648,-0.648 -0.357,0 -0.647,0.29 -0.647,0.648 0,0.358 0.29,0.648 0.647,0.648 C -0.29,0.648 0,0.358 0,0"
             style="fill:#236f99;fill-opacity:1;fill-rule:nonzero;stroke:none"
             id="path8517"
             inkscape:connector-curvature="0" /></g><g
           id="g8519"
           transform="translate(93.0287,9.1658)"><path
             d="m 0,0 c 0,-0.358 -0.29,-0.648 -0.648,-0.648 -0.357,0 -0.647,0.29 -0.647,0.648 0,0.358 0.29,0.648 0.647,0.648 C -0.29,0.648 0,0.358 0,0"
             style="fill:#333333;fill-opacity:1;fill-rule:nonzero;stroke:none"
             id="path8521"
             inkscape:connector-curvature="0" /></g><g
           id="g8523"
           transform="translate(95.1068,22.9044)"><path
             d="m 0,0 c 0,-0.358 -0.29,-0.648 -0.648,-0.648 -0.357,0 -0.647,0.29 -0.647,0.648 0,0.358 0.29,0.648 0.647,0.648 C -0.29,0.648 0,0.358 0,0"
             style="fill:#236f99;fill-opacity:1;fill-rule:nonzero;stroke:none"
             id="path8525"
             inkscape:connector-curvature="0" /></g><g
           id="g8527"
           transform="translate(95.1068,20.6566)"><path
             d="m 0,0 c 0,-0.358 -0.29,-0.648 -0.648,-0.648 -0.357,0 -0.647,0.29 -0.647,0.648 0,0.358 0.29,0.648 0.647,0.648 C -0.29,0.648 0,0.358 0,0"
             style="fill:#333333;fill-opacity:1;fill-rule:nonzero;stroke:none"
             id="path8529"
             inkscape:connector-curvature="0" /></g><g
           id="g8531"
           transform="translate(95.1068,18.4089)"><path
             d="m 0,0 c 0,-0.358 -0.29,-0.648 -0.648,-0.648 -0.357,0 -0.647,0.29 -0.647,0.648 0,0.358 0.29,0.648 0.647,0.648 C -0.29,0.648 0,0.358 0,0"
             style="fill:#236f99;fill-opacity:1;fill-rule:nonzero;stroke:none"
             id="path8533"
             inkscape:connector-curvature="0" /></g><g
           id="g8535"
           transform="translate(95.1068,16.1611)"><path
             d="m 0,0 c 0,-0.358 -0.29,-0.648 -0.648,-0.648 -0.357,0 -0.647,0.29 -0.647,0.648 0,0.358 0.29,0.648 0.647,0.648 C -0.29,0.648 0,0.358 0,0"
             style="fill:#333333;fill-opacity:1;fill-rule:nonzero;stroke:none"
             id="path8537"
             inkscape:connector-curvature="0" /></g><g
           id="g8539"
           transform="translate(95.1068,13.9133)"><path
             d="m 0,0 c 0,-0.358 -0.29,-0.648 -0.648,-0.648 -0.357,0 -0.647,0.29 -0.647,0.648 0,0.358 0.29,0.648 0.647,0.648 C -0.29,0.648 0,0.358 0,0"
             style="fill:#236f99;fill-opacity:1;fill-rule:nonzero;stroke:none"
             id="path8541"
             inkscape:connector-curvature="0" /></g><g
           id="g8543"
           transform="translate(95.1068,11.6656)"><path
             d="m 0,0 c 0,-0.358 -0.29,-0.648 -0.648,-0.648 -0.357,0 -0.647,0.29 -0.647,0.648 0,0.358 0.29,0.648 0.647,0.648 C -0.29,0.648 0,0.358 0,0"
             style="fill:#333333;fill-opacity:1;fill-rule:nonzero;stroke:none"
             id="path8545"
             inkscape:connector-curvature="0" /></g><g
           id="g8547"
           transform="translate(37.6,99.8)"><path
             d="m 0,0 c 0,-0.729 -0.591,-1.32 -1.32,-1.32 -0.729,0 -1.32,0.591 -1.32,1.32 0,0.729 0.591,1.32 1.32,1.32 C -0.591,1.32 0,0.729 0,0"
             style="fill:#ff0000;fill-opacity:1;fill-rule:nonzero;stroke:none"
             id="path8549"
             inkscape:connector-curvature="0" /></g></g></g></g></svg>