<?xml version="1.0" encoding="UTF-8" standalone="no"?>
<!-- Created with Inkscape (http://www.inkscape.org/) -->

<svg
   xmlns:dc="http://purl.org/dc/elements/1.1/"
   xmlns:cc="http://creativecommons.org/ns#"
   xmlns:rdf="http://www.w3.org/1999/02/22-rdf-syntax-ns#"
   xmlns:svg="http://www.w3.org/2000/svg"
   xmlns="http://www.w3.org/2000/svg"
   xmlns:sodipodi="http://sodipodi.sourceforge.net/DTD/sodipodi-0.dtd"
   xmlns:inkscape="http://www.inkscape.org/namespaces/inkscape"
   id="svg5161"
   version="1.1"
   inkscape:version="0.48.5 r10040"
   width="256"
   height="256"
   xml:space="preserve"
   sodipodi:docname="reload.svg"><metadata
     id="metadata5167"><rdf:RDF><cc:Work
         rdf:about=""><dc:format>image/svg+xml</dc:format><dc:type
           rdf:resource="http://purl.org/dc/dcmitype/StillImage" /><dc:title></dc:title></cc:Work></rdf:RDF></metadata><defs
     id="defs5165"><clipPath
       clipPathUnits="userSpaceOnUse"
       id="clipPath5175"><path
         d="M 0,128 128,128 128,0 0,0 0,128 z"
         id="path5177"
         inkscape:connector-curvature="0" /></clipPath></defs><sodipodi:namedview
     pagecolor="#ffffff"
     bordercolor="#666666"
     borderopacity="1"
     objecttolerance="10"
     gridtolerance="10"
     guidetolerance="10"
     inkscape:pageopacity="0"
     inkscape:pageshadow="2"
     inkscape:window-width="1087"
     inkscape:window-height="1008"
     id="namedview5163"
     showgrid="false"
     inkscape:zoom="1.475"
     inkscape:cx="-59.322034"
     inkscape:cy="80"
     inkscape:window-x="0"
     inkscape:window-y="0"
     inkscape:window-maximized="0"
     inkscape:current-layer="g5169" /><g
     id="g5169"
     inkscape:groupmode="layer"
     inkscape:label="reload"
     transform="matrix(1.25,0,0,-1.25,0,256)"><g
       id="g5171"
       transform="matrix(1.6000025,0,0,1.6000025,0,-1.200005e-4)"
       inkscape:export-filename="/Users/margetts/Desktop/BAXY RetroActive/A_Inkscape_PNG/reload.png"
       inkscape:export-xdpi="90"
       inkscape:export-ydpi="90"><g
         id="g5173"
         clip-path="url(#clipPath5175)"><g
           id="g5179"
           transform="translate(66.6286,128)"><path
             d="m 0,0 c -2.861,0 -5.189,-2.329 -5.189,-5.191 l 0,-5.808 c 0,-0.008 -0.029,-0.055 -0.121,-0.059 -28.221,-1.408 -50.327,-24.663 -50.327,-52.942 0,-13.106 4.823,-25.685 13.58,-35.421 0.959,-1.066 2.339,-1.677 3.787,-1.677 1.395,0 2.707,0.543 3.693,1.53 l 5.18,5.179 c 1.947,1.947 2.071,5.064 0.283,7.096 -5.669,6.439 -8.791,14.712 -8.791,23.293 0,18.341 14.308,33.791 32.574,35.174 0.001,0 0.002,0 0.003,0 0.076,0 0.139,-0.03 0.139,-0.07 l 0,-5.628 c 0,-2.863 2.328,-5.191 5.189,-5.191 0.807,0 1.587,0.185 2.319,0.551 l 29.333,14.667 c 1.769,0.884 2.868,2.662 2.868,4.639 0,1.978 -1.099,3.756 -2.868,4.64 L 2.319,-0.551 C 1.588,-0.185 0.807,0 0,0"
             style="fill:#ffffff;fill-opacity:1;fill-rule:nonzero;stroke:none"
             id="path5181"
             inkscape:connector-curvature="0" /></g><g
           id="g5183"
           transform="translate(97.136,110.4925)"><path
             d="m 0,0 -29.333,14.667 c -1.748,0.873 -3.803,-0.397 -3.803,-2.35 l 0,-5.808 c 0,-1.422 -1.134,-2.546 -2.554,-2.617 -26.663,-1.33 -47.894,-23.369 -47.894,-50.384 0,-12.96 4.89,-24.778 12.923,-33.709 0.989,-1.1 2.721,-1.096 3.767,-0.05 l 5.179,5.18 c 0.975,0.975 1.083,2.559 0.172,3.594 -5.869,6.666 -9.429,15.412 -9.429,24.985 0,19.923 15.406,36.247 34.941,37.727 1.551,0.117 2.895,-1.067 2.895,-2.623 l 0,-5.629 c 0,-1.953 2.055,-3.224 3.803,-2.35 L 0,-4.7 c 1.937,0.968 1.937,3.732 0,4.7"
             style="fill:#33a99d;fill-opacity:1;fill-rule:nonzero;stroke:none"
             id="path5185"
             inkscape:connector-curvature="0" /></g><g
           id="g5187"
           transform="translate(99.6412,101.0982)"><path
             d="m 0,0 c -1.395,0 -2.707,-0.543 -3.693,-1.53 l -5.18,-5.179 c -1.947,-1.948 -2.071,-5.064 -0.283,-7.096 5.669,-6.439 8.791,-14.712 8.791,-23.293 0,-18.341 -14.308,-33.791 -32.574,-35.175 -10e-4,0 -0.002,0 -0.003,0 -0.076,0 -0.139,0.031 -0.139,0.071 l 0,5.628 c 0,2.862 -2.328,5.191 -5.189,5.191 -0.807,0 -1.587,-0.185 -2.319,-0.551 l -29.333,-14.667 c -1.769,-0.884 -2.868,-2.662 -2.868,-4.64 0,-1.977 1.099,-3.755 2.868,-4.639 l 29.333,-14.667 c 0.732,-0.366 1.512,-0.551 2.319,-0.551 2.861,0 5.189,2.328 5.189,5.191 l 0,5.808 c 0,0.008 0.029,0.055 0.122,0.059 28.22,1.408 50.326,24.663 50.326,52.942 0,13.105 -4.823,25.685 -13.58,35.421 C 2.828,-0.611 1.448,0 0,0"
             style="fill:#ffffff;fill-opacity:1;fill-rule:nonzero;stroke:none"
             id="path5189"
             inkscape:connector-curvature="0" /></g><g
           id="g5191"
           transform="translate(97.7584,97.7584)"><path
             d="m 0,0 -5.18,-5.18 c -0.975,-0.975 -1.082,-2.559 -0.171,-3.594 5.868,-6.666 9.429,-15.412 9.429,-24.984 0,-19.924 -15.406,-36.248 -34.941,-37.727 -1.552,-0.118 -2.895,1.066 -2.895,2.622 l 0,5.629 c 0,1.953 -2.056,3.224 -3.803,2.35 l -29.333,-14.667 c -1.937,-0.968 -1.937,-3.732 0,-4.7 l 29.333,-14.667 c 1.747,-0.873 3.803,0.397 3.803,2.351 l 0,5.808 c 0,1.421 1.134,2.545 2.554,2.616 26.662,1.33 47.894,23.369 47.894,50.385 0,12.959 -4.89,24.777 -12.923,33.709 C 2.778,1.05 1.046,1.046 0,0"
             style="fill:#2a8f85;fill-opacity:1;fill-rule:nonzero;stroke:none"
             id="path5193"
             inkscape:connector-curvature="0" /></g></g></g></g></svg>