<?xml version="1.0" encoding="UTF-8" standalone="no"?>
<!-- Created with Inkscape (http://www.inkscape.org/) -->

<svg
   xmlns:dc="http://purl.org/dc/elements/1.1/"
   xmlns:cc="http://creativecommons.org/ns#"
   xmlns:rdf="http://www.w3.org/1999/02/22-rdf-syntax-ns#"
   xmlns:svg="http://www.w3.org/2000/svg"
   xmlns="http://www.w3.org/2000/svg"
   xmlns:sodipodi="http://sodipodi.sourceforge.net/DTD/sodipodi-0.dtd"
   xmlns:inkscape="http://www.inkscape.org/namespaces/inkscape"
   id="svg14940"
   version="1.1"
   inkscape:version="0.48.5 r10040"
   width="256"
   height="256"
   xml:space="preserve"
   sodipodi:docname="Sega - Master System - Mark III.svg"
   inkscape:export-filename="/Users/margetts/Desktop/BAXY RetroActive/png_clean/Sega - Master System - Mark III.png"
   inkscape:export-xdpi="90"
   inkscape:export-ydpi="90"><metadata
     id="metadata14946"><rdf:RDF><cc:Work
         rdf:about=""><dc:format>image/svg+xml</dc:format><dc:type
           rdf:resource="http://purl.org/dc/dcmitype/StillImage" /><dc:title></dc:title></cc:Work></rdf:RDF></metadata><defs
     id="defs14944"><clipPath
       clipPathUnits="userSpaceOnUse"
       id="clipPath14954"><path
         d="M 0,128 128,128 128,0 0,0 0,128 z"
         id="path14956"
         inkscape:connector-curvature="0" /></clipPath></defs><sodipodi:namedview
     pagecolor="#ffffff"
     bordercolor="#666666"
     borderopacity="1"
     objecttolerance="10"
     gridtolerance="10"
     guidetolerance="10"
     inkscape:pageopacity="0"
     inkscape:pageshadow="2"
     inkscape:window-width="1676"
     inkscape:window-height="1005"
     id="namedview14942"
     showgrid="false"
     inkscape:zoom="5.2625"
     inkscape:cx="56.152019"
     inkscape:cy="80"
     inkscape:window-x="4"
     inkscape:window-y="1"
     inkscape:window-maximized="1"
     inkscape:current-layer="g14948" /><g
     id="g14948"
     inkscape:groupmode="layer"
     inkscape:label="Sega - Master System - Mark III"
     transform="matrix(1.25,0,0,-1.25,0,256)"><g
       id="g14950"
       transform="matrix(1.6033457,0,0,1.6033457,-0.42825162,0.9138289)"><g
         id="g14952"
         clip-path="url(#clipPath14954)"><g
           id="g14958"
           transform="translate(122.8781,91.5765)"><path
             d="m 0,0 -117.221,0 c -2.972,0 -5.39,-2.418 -5.39,-5.389 l 0,-45.782 c 0,-2.971 2.418,-5.389 5.39,-5.389 L 0,-56.56 c 2.972,0 5.389,2.418 5.389,5.389 l 0,45.782 C 5.389,-2.418 2.972,0 0,0"
             style="fill:#ffffff;fill-opacity:1;fill-rule:nonzero;stroke:none"
             id="path14960"
             inkscape:connector-curvature="0" /></g><g
           id="g14962"
           transform="translate(122.8781,37.5765)"><path
             d="m 0,0 -117.221,0 c -1.563,0 -2.83,1.267 -2.83,2.829 l 0,45.782 c 0,1.562 1.267,2.829 2.83,2.829 L 0,51.44 c 1.563,0 2.829,-1.267 2.829,-2.829 l 0,-45.782 C 2.829,1.267 1.563,0 0,0"
             style="fill:#191919;fill-opacity:1;fill-rule:nonzero;stroke:none"
             id="path14964"
             inkscape:connector-curvature="0" /></g><g
           id="g14966"
           transform="translate(12.7023,86.5743)"><path
             d="m 0,0 0,-47.04 45.12,0 0,7.402 65.725,0 0,26.08 -65.725,0 L 45.12,0 0,0 z"
             style="fill:#262626;fill-opacity:1;fill-rule:nonzero;stroke:none"
             id="path14968"
             inkscape:connector-curvature="0" /></g><path
           d="m 97.627,48.376 -18.24,0 0,18.56 18.24,0 0,-18.56 z"
           style="fill:#4c4c4c;fill-opacity:1;fill-rule:nonzero;stroke:none"
           id="path14970"
           inkscape:connector-curvature="0" /><g
           id="g14972"
           transform="translate(95.5875,57.1965)"><path
             d="m 0,0 c 0,-4.164 -3.376,-7.54 -7.54,-7.54 -4.164,0 -7.54,3.376 -7.54,7.54 0,4.164 3.376,7.54 7.54,7.54 C -3.376,7.54 0,4.164 0,0"
             style="fill:#191919;fill-opacity:1;fill-rule:nonzero;stroke:none"
             id="path14974"
             inkscape:connector-curvature="0" /></g><g
           id="g14976"
           transform="translate(88.0475,64.4965)"><path
             d="m 0,0 c -4.025,0 -7.3,-3.275 -7.3,-7.3 0,-4.025 3.275,-7.3 7.3,-7.3 4.025,0 7.3,3.275 7.3,7.3 C 7.3,-3.275 4.025,0 0,0 m 0,-15.08 c -4.29,0 -7.78,3.49 -7.78,7.78 0,4.29 3.49,7.78 7.78,7.78 4.29,0 7.78,-3.49 7.78,-7.78 0,-4.29 -3.49,-7.78 -7.78,-7.78"
             style="fill:#231f20;fill-opacity:1;fill-rule:nonzero;stroke:none"
             id="path14978"
             inkscape:connector-curvature="0" /></g><g
           id="g14980"
           transform="translate(94.1475,57.1965)"><path
             d="m 0,0 c 0,-3.369 -2.731,-6.1 -6.1,-6.1 -3.369,0 -6.1,2.731 -6.1,6.1 0,3.369 2.731,6.1 6.1,6.1 C -2.731,6.1 0,3.369 0,0"
             style="fill:#4c4c4c;fill-opacity:1;fill-rule:nonzero;stroke:none"
             id="path14982"
             inkscape:connector-curvature="0" /></g><path
           d="m 97.627,67.657 -18.24,0 0,2.8 18.24,0 0,-2.8 z"
           style="fill:#973320;fill-opacity:1;fill-rule:nonzero;stroke:none"
           id="path14984"
           inkscape:connector-curvature="0" /><path
           d="m 118.107,48.376 -18.24,0 0,18.56 18.24,0 0,-18.56 z"
           style="fill:#4c4c4c;fill-opacity:1;fill-rule:nonzero;stroke:none"
           id="path14986"
           inkscape:connector-curvature="0" /><g
           id="g14988"
           transform="translate(116.0675,57.1965)"><path
             d="m 0,0 c 0,-4.164 -3.376,-7.54 -7.54,-7.54 -4.164,0 -7.54,3.376 -7.54,7.54 0,4.164 3.376,7.54 7.54,7.54 C -3.376,7.54 0,4.164 0,0"
             style="fill:#191919;fill-opacity:1;fill-rule:nonzero;stroke:none"
             id="path14990"
             inkscape:connector-curvature="0" /></g><g
           id="g14992"
           transform="translate(108.5275,64.4965)"><path
             d="m 0,0 c -4.025,0 -7.3,-3.275 -7.3,-7.3 0,-4.025 3.275,-7.3 7.3,-7.3 4.025,0 7.3,3.275 7.3,7.3 C 7.3,-3.275 4.025,0 0,0 m 0,-15.08 c -4.29,0 -7.78,3.49 -7.78,7.78 0,4.29 3.49,7.78 7.78,7.78 4.29,0 7.78,-3.49 7.78,-7.78 0,-4.29 -3.49,-7.78 -7.78,-7.78"
             style="fill:#231f20;fill-opacity:1;fill-rule:nonzero;stroke:none"
             id="path14994"
             inkscape:connector-curvature="0" /></g><g
           id="g14996"
           transform="translate(114.6275,57.1965)"><path
             d="m 0,0 c 0,-3.369 -2.731,-6.1 -6.1,-6.1 -3.369,0 -6.1,2.731 -6.1,6.1 0,3.369 2.731,6.1 6.1,6.1 C -2.731,6.1 0,3.369 0,0"
             style="fill:#4c4c4c;fill-opacity:1;fill-rule:nonzero;stroke:none"
             id="path14998"
             inkscape:connector-curvature="0" /></g><path
           d="m 118.107,67.657 -18.24,0 0,2.8 18.24,0 0,-2.8 z"
           style="fill:#973320;fill-opacity:1;fill-rule:nonzero;stroke:none"
           id="path15000"
           inkscape:connector-curvature="0" /><path
           d="m 77.868,48.376 -0.48,0 0,18.56 0.48,0 0,-18.56 z"
           style="fill:#4c4c4c;fill-opacity:1;fill-rule:nonzero;stroke:none"
           id="path15002"
           inkscape:connector-curvature="0" /><path
           d="m 76.587,48.376 -0.48,0 0,18.56 0.48,0 0,-18.56 z"
           style="fill:#4c4c4c;fill-opacity:1;fill-rule:nonzero;stroke:none"
           id="path15004"
           inkscape:connector-curvature="0" /><path
           d="m 75.307,48.376 -0.48,0 0,18.56 0.48,0 0,-18.56 z"
           style="fill:#4c4c4c;fill-opacity:1;fill-rule:nonzero;stroke:none"
           id="path15006"
           inkscape:connector-curvature="0" /><path
           d="m 74.028,48.376 -0.48,0 0,18.56 0.48,0 0,-18.56 z"
           style="fill:#4c4c4c;fill-opacity:1;fill-rule:nonzero;stroke:none"
           id="path15008"
           inkscape:connector-curvature="0" /><path
           d="m 72.747,48.376 -0.48,0 0,18.56 0.48,0 0,-18.56 z"
           style="fill:#4c4c4c;fill-opacity:1;fill-rule:nonzero;stroke:none"
           id="path15010"
           inkscape:connector-curvature="0" /><path
           d="m 71.467,48.376 -0.48,0 0,18.56 0.48,0 0,-18.56 z"
           style="fill:#4c4c4c;fill-opacity:1;fill-rule:nonzero;stroke:none"
           id="path15012"
           inkscape:connector-curvature="0" /><path
           d="m 70.188,48.376 -0.48,0 0,18.56 0.48,0 0,-18.56 z"
           style="fill:#4c4c4c;fill-opacity:1;fill-rule:nonzero;stroke:none"
           id="path15014"
           inkscape:connector-curvature="0" /><path
           d="m 68.907,48.376 -0.48,0 0,18.56 0.48,0 0,-18.56 z"
           style="fill:#4c4c4c;fill-opacity:1;fill-rule:nonzero;stroke:none"
           id="path15016"
           inkscape:connector-curvature="0" /><path
           d="m 67.627,48.376 -0.48,0 0,18.56 0.48,0 0,-18.56 z"
           style="fill:#4c4c4c;fill-opacity:1;fill-rule:nonzero;stroke:none"
           id="path15018"
           inkscape:connector-curvature="0" /><path
           d="m 66.348,48.376 -0.48,0 0,18.56 0.48,0 0,-18.56 z"
           style="fill:#4c4c4c;fill-opacity:1;fill-rule:nonzero;stroke:none"
           id="path15020"
           inkscape:connector-curvature="0" /><path
           d="m 65.067,48.376 -0.48,0 0,18.56 0.48,0 0,-18.56 z"
           style="fill:#4c4c4c;fill-opacity:1;fill-rule:nonzero;stroke:none"
           id="path15022"
           inkscape:connector-curvature="0" /><path
           d="m 63.787,48.376 -0.48,0 0,18.56 0.48,0 0,-18.56 z"
           style="fill:#4c4c4c;fill-opacity:1;fill-rule:nonzero;stroke:none"
           id="path15024"
           inkscape:connector-curvature="0" /><path
           d="m 62.507,48.376 -0.48,0 0,18.56 0.48,0 0,-18.56 z"
           style="fill:#4c4c4c;fill-opacity:1;fill-rule:nonzero;stroke:none"
           id="path15026"
           inkscape:connector-curvature="0" /><path
           d="m 61.228,48.376 -0.48,0 0,18.56 0.48,0 0,-18.56 z"
           style="fill:#4c4c4c;fill-opacity:1;fill-rule:nonzero;stroke:none"
           id="path15028"
           inkscape:connector-curvature="0" /><path
           d="m 59.947,48.376 -0.48,0 0,18.56 0.48,0 0,-18.56 z"
           style="fill:#4c4c4c;fill-opacity:1;fill-rule:nonzero;stroke:none"
           id="path15030"
           inkscape:connector-curvature="0" /><path
           d="m 58.667,48.376 -0.48,0 0,18.56 0.48,0 0,-18.56 z"
           style="fill:#4c4c4c;fill-opacity:1;fill-rule:nonzero;stroke:none"
           id="path15032"
           inkscape:connector-curvature="0" /><g
           id="g15034"
           transform="translate(18.2063,83.2542)"><path
             d="m 0,0 c -1.337,0 -2.424,-1.087 -2.424,-2.424 l 0,-35.552 c 0,-1.336 1.087,-2.424 2.424,-2.424 l 34.112,0 c 1.337,0 2.424,1.088 2.424,2.424 l 0,35.552 C 36.536,-1.087 35.449,0 34.112,0 L 0,0 z M 34.112,-41.12 0,-41.12 c -1.734,0 -3.144,1.411 -3.144,3.144 l 0,35.552 c 0,1.734 1.41,3.144 3.144,3.144 l 34.112,0 c 1.734,0 3.144,-1.41 3.144,-3.144 l 0,-35.552 c 0,-1.733 -1.41,-3.144 -3.144,-3.144"
             style="fill:#973320;fill-opacity:1;fill-rule:nonzero;stroke:none"
             id="path15036"
             inkscape:connector-curvature="0" /></g><g
           id="g15038"
           transform="translate(52.0046,80.4695)"><path
             d="m 0,0 c -0.382,0.228 -0.828,0.366 -1.31,0.366 l -30.865,0 c -0.556,0 -1.065,-0.181 -1.48,-0.478 L -16.744,-17.092 0,0 z"
             style="fill:#333333;fill-opacity:1;fill-rule:nonzero;stroke:none"
             id="path15040"
             inkscape:connector-curvature="0" /></g><g
           id="g15042"
           transform="translate(52.3746,80.1985)"><path
             d="M 0,0 -16.793,-17.143 0.145,-34.151 c 0.416,0.431 0.676,1.005 0.676,1.641 l 0,30.731 C 0.821,-1.072 0.501,-0.442 0,0"
             style="fill:#333333;fill-opacity:1;fill-rule:nonzero;stroke:none"
             id="path15044"
             inkscape:connector-curvature="0" /></g><g
           id="g15046"
           transform="translate(18.1404,45.9178)"><path
             d="m 0,0 16.794,17.144 -16.93,16.999 c -0.416,-0.431 -0.675,-1.005 -0.675,-1.641 l 0,-30.731 C -0.811,1.068 -0.495,0.441 0,0"
             style="fill:#333333;fill-opacity:1;fill-rule:nonzero;stroke:none"
             id="path15048"
             inkscape:connector-curvature="0" /></g><g
           id="g15050"
           transform="translate(35.2551,62.7399)"><path
             d="m 0,0 -16.746,-17.095 c 0.384,-0.232 0.834,-0.372 1.321,-0.372 l 30.865,0 c 0.556,0 1.064,0.181 1.48,0.478 L 0,0 z"
             style="fill:#333333;fill-opacity:1;fill-rule:nonzero;stroke:none"
             id="path15052"
             inkscape:connector-curvature="0" /></g><g
           id="g15054"
           transform="translate(42.4562,48.1408)"><path
             d="m 0,0 -14.388,0 c -4.263,0 -7.719,3.456 -7.719,7.72 l 0,14.387 c 0,4.264 3.456,7.72 7.719,7.72 l 14.388,0 c 4.263,0 7.72,-3.456 7.72,-7.72 L 7.72,7.72 C 7.72,3.456 4.263,0 0,0"
             style="fill:#333333;fill-opacity:1;fill-rule:nonzero;stroke:none"
             id="path15056"
             inkscape:connector-curvature="0" /></g><g
           id="g15058"
           transform="translate(28.0684,77.2868)"><path
             d="m 0,0 c -3.881,0 -7.039,-3.157 -7.039,-7.038 l 0,-14.388 c 0,-3.882 3.158,-7.039 7.039,-7.039 l 14.388,0 c 3.881,0 7.038,3.157 7.038,7.039 l 0,14.388 C 21.426,-3.157 18.269,0 14.388,0 L 0,0 z m 14.388,-29.827 -14.388,0 c -4.632,0 -8.401,3.769 -8.401,8.401 l 0,14.388 c 0,4.632 3.769,8.4 8.401,8.4 l 14.388,0 c 4.632,0 8.4,-3.768 8.4,-8.4 l 0,-14.388 c 0,-4.632 -3.768,-8.401 -8.4,-8.401"
             style="fill:#333333;fill-opacity:1;fill-rule:nonzero;stroke:none"
             id="path15060"
             inkscape:connector-curvature="0" /></g><g
           id="g15062"
           transform="translate(28.0684,76.8328)"><path
             d="m 0,0 c -3.631,0 -6.585,-2.954 -6.585,-6.585 l 0,-14.387 c 0,-3.631 2.954,-6.585 6.585,-6.585 l 14.388,0 c 3.631,0 6.584,2.954 6.584,6.585 l 0,14.387 C 20.972,-2.954 18.019,0 14.388,0 L 0,0 z m 14.388,-28.465 -14.388,0 c -4.131,0 -7.493,3.361 -7.493,7.493 l 0,14.387 c 0,4.132 3.362,7.493 7.493,7.493 l 14.388,0 c 4.131,0 7.492,-3.361 7.492,-7.493 l 0,-14.387 c 0,-4.132 -3.361,-7.493 -7.492,-7.493 M 0,1.362 c -4.382,0 -7.947,-3.565 -7.947,-7.947 l 0,-14.387 c 0,-4.382 3.565,-7.947 7.947,-7.947 l 14.388,0 c 4.382,0 7.946,3.565 7.946,7.947 l 0,14.387 c 0,4.382 -3.564,7.947 -7.946,7.947 L 0,1.362 z m 14.388,-31.189 -14.388,0 c -4.882,0 -8.855,3.972 -8.855,8.855 l 0,14.387 c 0,4.883 3.973,8.855 8.855,8.855 l 14.388,0 c 4.882,0 8.854,-3.972 8.854,-8.855 l 0,-14.387 c 0,-4.883 -3.972,-8.855 -8.854,-8.855"
             style="fill:#262626;fill-opacity:1;fill-rule:nonzero;stroke:none"
             id="path15064"
             inkscape:connector-curvature="0" /></g><g
           id="g15066"
           transform="translate(39.8779,63.0544)"><path
             d="m 0,0 c 0,-2.549 -2.066,-4.616 -4.616,-4.616 -2.549,0 -4.615,2.067 -4.615,4.616 0,2.549 2.066,4.616 4.615,4.616 C -2.066,4.616 0,2.549 0,0"
             style="fill:#333333;fill-opacity:1;fill-rule:nonzero;stroke:none"
             id="path15068"
             inkscape:connector-curvature="0" /></g><g
           id="g15070"
           transform="translate(35.2623,67.4429)"><path
             d="m 0,0 c -2.42,0 -4.389,-1.969 -4.389,-4.389 0,-2.42 1.969,-4.388 4.389,-4.388 2.42,0 4.389,1.968 4.389,4.388 C 4.389,-1.969 2.42,0 0,0 m 0,-9.231 c -2.67,0 -4.843,2.172 -4.843,4.842 0,2.671 2.173,4.843 4.843,4.843 2.67,0 4.843,-2.172 4.843,-4.843 0,-2.67 -2.173,-4.842 -4.843,-4.842"
             style="fill:#404040;fill-opacity:1;fill-rule:nonzero;stroke:none"
             id="path15072"
             inkscape:connector-curvature="0" /></g><g
           id="g15074"
           transform="translate(35.9054,70.9803)"><path
             d="m 0,0 c 0,-0.355 -0.288,-0.643 -0.643,-0.643 -0.355,0 -0.643,0.288 -0.643,0.643 l 0,3.027 c 0,0.355 0.288,0.643 0.643,0.643 C -0.288,3.67 0,3.382 0,3.027 L 0,0 z"
             style="fill:#404040;fill-opacity:1;fill-rule:nonzero;stroke:none"
             id="path15076"
             inkscape:connector-curvature="0" /></g><g
           id="g15078"
           transform="translate(35.9054,52.1017)"><path
             d="m 0,0 c 0,-0.355 -0.288,-0.643 -0.643,-0.643 -0.355,0 -0.643,0.288 -0.643,0.643 l 0,3.027 c 0,0.355 0.288,0.643 0.643,0.643 C -0.288,3.67 0,3.382 0,3.027 L 0,0 z"
             style="fill:#404040;fill-opacity:1;fill-rule:nonzero;stroke:none"
             id="path15080"
             inkscape:connector-curvature="0" /></g><g
           id="g15082"
           transform="translate(30.3953,68.8309)"><path
             d="m 0,0 c 0.155,-0.155 -0.755,-1.065 -0.91,-0.91 0,0 -1.398,1.806 -1.147,2.057 C -1.805,1.398 0,0 0,0"
             style="fill:#404040;fill-opacity:1;fill-rule:nonzero;stroke:none"
             id="path15084"
             inkscape:connector-curvature="0" /></g><g
           id="g15086"
           transform="translate(42.1817,56.1349)"><path
             d="m 0,0 0,0 c -0.251,-0.251 -1.868,0.959 -1.868,0.959 -0.137,0.136 0.773,1.046 0.909,0.909 0,0 1.21,-1.617 0.959,-1.868"
             style="fill:#404040;fill-opacity:1;fill-rule:nonzero;stroke:none"
             id="path15088"
             inkscape:connector-curvature="0" /></g><g
           id="g15090"
           transform="translate(41.1049,67.9874)"><path
             d="m 0,0 c -0.131,-0.131 -1.041,0.778 -0.91,0.91 0,0 1.562,1.154 1.813,0.903 C 1.155,1.562 0,0 0,0"
             style="fill:#404040;fill-opacity:1;fill-rule:nonzero;stroke:none"
             id="path15092"
             inkscape:connector-curvature="0" /></g><g
           id="g15094"
           transform="translate(28.5163,56.3083)"><path
             d="M 0,0 0,0 C -0.251,0.251 0.903,1.813 0.903,1.813 1.035,1.944 1.944,1.035 1.813,0.903 1.813,0.903 0.251,-0.251 0,0"
             style="fill:#404040;fill-opacity:1;fill-rule:nonzero;stroke:none"
             id="path15096"
             inkscape:connector-curvature="0" /></g><g
           id="g15098"
           transform="translate(43.1883,62.4112)"><path
             d="m 0,0 c -0.355,0 -0.643,0.288 -0.643,0.643 0,0.355 0.288,0.643 0.643,0.643 l 3.027,0 C 3.382,1.286 3.67,0.998 3.67,0.643 3.67,0.288 3.382,0 3.027,0 L 0,0 z"
             style="fill:#404040;fill-opacity:1;fill-rule:nonzero;stroke:none"
             id="path15100"
             inkscape:connector-curvature="0" /></g><g
           id="g15102"
           transform="translate(24.3096,62.4112)"><path
             d="m 0,0 c -0.355,0 -0.643,0.288 -0.643,0.643 0,0.355 0.288,0.643 0.643,0.643 l 3.027,0 C 3.382,1.286 3.67,0.998 3.67,0.643 3.67,0.288 3.382,0 3.027,0 L 0,0 z"
             style="fill:#404040;fill-opacity:1;fill-rule:nonzero;stroke:none"
             id="path15104"
             inkscape:connector-curvature="0" /></g><g
           id="g15106"
           transform="translate(35.9811,79.2343)"><path
             d="M 0,0 -1.438,0 -0.715,1.438 0,0 z"
             style="fill:#ffffff;fill-opacity:1;fill-rule:nonzero;stroke:none"
             id="path15108"
             inkscape:connector-curvature="0" /></g><g
           id="g15110"
           transform="translate(34.5434,46.8744)"><path
             d="M 0,0 1.438,0 0.715,-1.438 0,0 z"
             style="fill:#ffffff;fill-opacity:1;fill-rule:nonzero;stroke:none"
             id="path15112"
             inkscape:connector-curvature="0" /></g><g
           id="g15114"
           transform="translate(51.4422,62.3355)"><path
             d="M 0,0 0,1.438 1.438,0.715 0,0 z"
             style="fill:#ffffff;fill-opacity:1;fill-rule:nonzero;stroke:none"
             id="path15116"
             inkscape:connector-curvature="0" /></g><g
           id="g15118"
           transform="translate(19.0824,63.7732)"><path
             d="M 0,0 0,-1.438 -1.438,-0.715 0,0 z"
             style="fill:#ffffff;fill-opacity:1;fill-rule:nonzero;stroke:none"
             id="path15120"
             inkscape:connector-curvature="0" /></g></g></g></g></svg>