<?xml version="1.0" encoding="UTF-8" standalone="no"?>
<!-- Created with Inkscape (http://www.inkscape.org/) -->

<svg
   xmlns:dc="http://purl.org/dc/elements/1.1/"
   xmlns:cc="http://creativecommons.org/ns#"
   xmlns:rdf="http://www.w3.org/1999/02/22-rdf-syntax-ns#"
   xmlns:svg="http://www.w3.org/2000/svg"
   xmlns="http://www.w3.org/2000/svg"
   xmlns:sodipodi="http://sodipodi.sourceforge.net/DTD/sodipodi-0.dtd"
   xmlns:inkscape="http://www.inkscape.org/namespaces/inkscape"
   id="svg14327"
   version="1.1"
   inkscape:version="0.48.5 r10040"
   width="256"
   height="256"
   xml:space="preserve"
   sodipodi:docname="Sega - Dreamcast-content.svg"
   inkscape:export-filename="/Users/margetts/Desktop/BAXY RetroActive/png_clean/Sega - Dreamcast-content.png"
   inkscape:export-xdpi="90"
   inkscape:export-ydpi="90"><metadata
     id="metadata14333"><rdf:RDF><cc:Work
         rdf:about=""><dc:format>image/svg+xml</dc:format><dc:type
           rdf:resource="http://purl.org/dc/dcmitype/StillImage" /><dc:title></dc:title></cc:Work></rdf:RDF></metadata><defs
     id="defs14331"><clipPath
       clipPathUnits="userSpaceOnUse"
       id="clipPath14341"><path
         d="M 0,128 128,128 128,0 0,0 0,128 z"
         id="path14343"
         inkscape:connector-curvature="0" /></clipPath></defs><sodipodi:namedview
     pagecolor="#ffffff"
     bordercolor="#666666"
     borderopacity="1"
     objecttolerance="10"
     gridtolerance="10"
     guidetolerance="10"
     inkscape:pageopacity="0"
     inkscape:pageshadow="2"
     inkscape:window-width="1676"
     inkscape:window-height="1005"
     id="namedview14329"
     showgrid="false"
     inkscape:zoom="5.2625"
     inkscape:cx="56.152019"
     inkscape:cy="80"
     inkscape:window-x="4"
     inkscape:window-y="1"
     inkscape:window-maximized="1"
     inkscape:current-layer="g14335" /><g
     id="g14335"
     inkscape:groupmode="layer"
     inkscape:label="Sega - Dreamcast-content"
     transform="matrix(1.25,0,0,-1.25,0,256)"><g
       id="g14337"
       transform="matrix(1.6,0,0,1.6,0,4e-4)"><g
         id="g14339"
         clip-path="url(#clipPath14341)"><g
           id="g14345"
           transform="translate(64,40.7715)"><path
             d="m 0,0 c -12.81,0 -23.228,10.421 -23.228,23.228 0,12.808 10.418,23.229 23.228,23.229 12.808,0 23.226,-10.421 23.226,-23.229 C 23.226,10.421 12.808,0 0,0 m 0,87.228 c -35.29,0 -64,-28.71 -64,-64 0,-35.289 28.71,-64 64,-64 35.29,0 64,28.711 64,64 0,35.29 -28.71,64 -64,64"
             style="fill:#ffffff;fill-opacity:1;fill-rule:nonzero;stroke:none"
             id="path14347"
             inkscape:connector-curvature="0" /></g><g
           id="g14349"
           transform="translate(64,41.4975)"><path
             d="M 0,0 C -12.41,0 -22.503,10.095 -22.503,22.503 -22.503,34.91 -12.41,45.005 0,45.005 12.407,45.005 22.5,34.91 22.5,22.503 22.5,10.095 12.407,0 0,0 m 0,82.503 c -33.14,0 -60,-26.863 -60,-60 0,-33.138 26.86,-60 60,-60 33.13,0 60,26.862 60,60 0,33.137 -26.87,60 -60,60"
             style="fill:#c8c7c7;fill-opacity:1;fill-rule:nonzero;stroke:none"
             id="path14351"
             inkscape:connector-curvature="0" /></g><g
           id="g14353"
           transform="translate(64.0013,56.5)"><path
             d="m 0,0 c -4.135,0 -7.505,3.363 -7.505,7.5 0,4.14 3.37,7.505 7.505,7.505 4.137,0 7.5,-3.365 7.5,-7.505 C 7.5,3.363 4.137,0 0,0 m 0,25.002 c -9.65,0 -17.502,-7.857 -17.502,-17.502 0,-9.645 7.852,-17.502 17.502,-17.502 9.64,0 17.5,7.857 17.5,17.502 0,9.645 -7.86,17.502 -17.5,17.502"
             style="fill:#e9e9e9;fill-opacity:1;fill-rule:nonzero;stroke:none"
             id="path14355"
             inkscape:connector-curvature="0" /></g></g></g></g></svg>