<?xml version="1.0" encoding="UTF-8" standalone="no"?>
<!-- Created with Inkscape (http://www.inkscape.org/) -->

<svg
   xmlns:dc="http://purl.org/dc/elements/1.1/"
   xmlns:cc="http://creativecommons.org/ns#"
   xmlns:rdf="http://www.w3.org/1999/02/22-rdf-syntax-ns#"
   xmlns:svg="http://www.w3.org/2000/svg"
   xmlns="http://www.w3.org/2000/svg"
   xmlns:sodipodi="http://sodipodi.sourceforge.net/DTD/sodipodi-0.dtd"
   xmlns:inkscape="http://www.inkscape.org/namespaces/inkscape"
   id="svg15160"
   version="1.1"
   inkscape:version="0.48.5 r10040"
   width="256"
   height="256"
   xml:space="preserve"
   sodipodi:docname="Sega - Master System - Mark III-content.svg"
   inkscape:export-filename="/Users/margetts/Desktop/BAXY RetroActive/png_clean/Sega - Master System - Mark III-content.png"
   inkscape:export-xdpi="90"
   inkscape:export-ydpi="90"><metadata
     id="metadata15166"><rdf:RDF><cc:Work
         rdf:about=""><dc:format>image/svg+xml</dc:format><dc:type
           rdf:resource="http://purl.org/dc/dcmitype/StillImage" /><dc:title></dc:title></cc:Work></rdf:RDF></metadata><defs
     id="defs15164"><clipPath
       clipPathUnits="userSpaceOnUse"
       id="clipPath15174"><path
         d="M 0,128 128,128 128,0 0,0 0,128 z"
         id="path15176"
         inkscape:connector-curvature="0" /></clipPath></defs><sodipodi:namedview
     pagecolor="#ffffff"
     bordercolor="#666666"
     borderopacity="1"
     objecttolerance="10"
     gridtolerance="10"
     guidetolerance="10"
     inkscape:pageopacity="0"
     inkscape:pageshadow="2"
     inkscape:window-width="1676"
     inkscape:window-height="1005"
     id="namedview15162"
     showgrid="false"
     inkscape:zoom="5.2625"
     inkscape:cx="56.152019"
     inkscape:cy="80"
     inkscape:window-x="4"
     inkscape:window-y="1"
     inkscape:window-maximized="1"
     inkscape:current-layer="g15168" /><g
     id="g15168"
     inkscape:groupmode="layer"
     inkscape:label="Sega - Master System - Mark III-content"
     transform="matrix(1.25,0,0,-1.25,0,256)"><g
       id="g15170"
       transform="matrix(1.601985,0,0,1.601985,0,-0.16436625)"><g
         id="g15172"
         clip-path="url(#clipPath15174)"><g
           id="g15178"
           transform="translate(123.2994,106.2218)"><path
             d="m 0,0 -1.982,0 -114.952,0 -1.982,0 c -2.504,0 -4.542,-2.037 -4.542,-4.542 l 0,-17.837 0,-2.56 0.001,0 c 0.015,-0.504 0.152,-0.978 0.382,-1.393 -0.235,-0.421 -0.372,-0.902 -0.382,-1.415 l -0.001,0 0,-0.06 0,-1.036 0,-1.464 0,-49.548 c 0,-2.505 2.038,-4.542 4.542,-4.542 l 118.916,0 c 2.505,0 4.542,2.037 4.542,4.542 l 0,49.548 0,1.464 0,1.036 0,0.06 -10e-4,0 c -0.01,0.513 -0.147,0.994 -0.382,1.415 0.23,0.415 0.367,0.889 0.382,1.393 l 10e-4,0 0,2.56 0,17.837 C 4.542,-2.037 2.505,0 0,0"
             style="fill:#ffffff;fill-opacity:1;fill-rule:nonzero;stroke:none"
             id="path15180"
             inkscape:connector-curvature="0" /></g><g
           id="g15182"
           transform="translate(4.3833,103.6618)"><path
             d="m 0,0 c -1.098,0 -1.982,-0.884 -1.982,-1.982 l 0,-17.837 1.982,0 0,-7.928 -1.982,0 0,-49.548 c 0,-1.098 0.884,-1.982 1.982,-1.982 l 118.916,0 c 1.098,0 1.982,0.884 1.982,1.982 l 0,49.548 -1.982,0 0,7.928 1.982,0 0,17.837 c 0,1.098 -0.884,1.982 -1.982,1.982 L 0,0 z"
             style="fill:#191919;fill-opacity:1;fill-rule:nonzero;stroke:none"
             id="path15184"
             inkscape:connector-curvature="0" /></g><path
           d="m 4.383,83.842 118.916,0 0,-7.928 -118.916,0 0,7.928 z"
           style="fill:#000000;fill-opacity:1;fill-rule:nonzero;stroke:none"
           id="path15186"
           inkscape:connector-curvature="0" /><g
           id="g15188"
           transform="translate(2.9047,82.8515)"><path
             d="m 0,0 121.873,0 c 0.278,0 0.504,-0.225 0.504,-0.503 l 0,-0.976 c 0,-0.278 -0.226,-0.503 -0.504,-0.503 L 0,-1.982 c -0.278,0 -0.503,0.225 -0.503,0.503 l 0,0.976 C -0.503,-0.225 -0.278,0 0,0"
             style="fill:#191919;fill-opacity:1;fill-rule:nonzero;stroke:none"
             id="path15190"
             inkscape:connector-curvature="0" /></g><g
           id="g15192"
           transform="translate(2.8742,78.8877)"><path
             d="m 0,0 121.934,0 c 0.261,0 0.473,-0.212 0.473,-0.473 l 0,-1.036 c 0,-0.261 -0.212,-0.473 -0.473,-0.473 L 0,-1.982 c -0.261,0 -0.473,0.212 -0.473,0.473 l 0,1.036 C -0.473,-0.212 -0.261,0 0,0"
             style="fill:#191919;fill-opacity:1;fill-rule:nonzero;stroke:none"
             id="path15194"
             inkscape:connector-curvature="0" /></g><g
           id="g15196"
           transform="translate(121.3175,103.6619)"><path
             d="m 0,0 -114.952,0 -1.982,0 0,-1.982 0,-13.873 c 0,-1.095 0.887,-1.982 1.982,-1.982 l 114.952,0 c 1.095,0 1.982,0.887 1.982,1.982 l 0,13.873 L 1.982,0 0,0 z"
             style="fill:#c0392b;fill-opacity:1;fill-rule:nonzero;stroke:none"
             id="path15198"
             inkscape:connector-curvature="0" /></g></g></g></g></svg>