<?xml version="1.0" encoding="UTF-8" standalone="no"?>
<!-- Created with Inkscape (http://www.inkscape.org/) -->

<svg
   xmlns:dc="http://purl.org/dc/elements/1.1/"
   xmlns:cc="http://creativecommons.org/ns#"
   xmlns:rdf="http://www.w3.org/1999/02/22-rdf-syntax-ns#"
   xmlns:svg="http://www.w3.org/2000/svg"
   xmlns="http://www.w3.org/2000/svg"
   xmlns:sodipodi="http://sodipodi.sourceforge.net/DTD/sodipodi-0.dtd"
   xmlns:inkscape="http://www.inkscape.org/namespaces/inkscape"
   id="svg15571"
   version="1.1"
   inkscape:version="0.48.5 r10040"
   width="256"
   height="256"
   xml:space="preserve"
   sodipodi:docname="Sega - Mega Drive - Genesis-content_J.svg"
   inkscape:export-filename="/Users/margetts/Desktop/BAXY RetroActive/png_clean/Sega - Mega Drive - Genesis-content_J.png"
   inkscape:export-xdpi="90"
   inkscape:export-ydpi="90"><metadata
     id="metadata15577"><rdf:RDF><cc:Work
         rdf:about=""><dc:format>image/svg+xml</dc:format><dc:type
           rdf:resource="http://purl.org/dc/dcmitype/StillImage" /><dc:title></dc:title></cc:Work></rdf:RDF></metadata><defs
     id="defs15575"><clipPath
       clipPathUnits="userSpaceOnUse"
       id="clipPath15585"><path
         d="M 0,128 128,128 128,0 0,0 0,128 z"
         id="path15587"
         inkscape:connector-curvature="0" /></clipPath></defs><sodipodi:namedview
     pagecolor="#ffffff"
     bordercolor="#666666"
     borderopacity="1"
     objecttolerance="10"
     gridtolerance="10"
     guidetolerance="10"
     inkscape:pageopacity="0"
     inkscape:pageshadow="2"
     inkscape:window-width="1456"
     inkscape:window-height="1018"
     id="namedview15573"
     showgrid="false"
     inkscape:zoom="5.2625"
     inkscape:cx="56.152019"
     inkscape:cy="80"
     inkscape:window-x="4"
     inkscape:window-y="1"
     inkscape:window-maximized="1"
     inkscape:current-layer="g15579" /><g
     id="g15579"
     inkscape:groupmode="layer"
     inkscape:label="Sega - Mega Drive - Genesis-content_J"
     transform="matrix(1.25,0,0,-1.25,0,256)"><g
       id="g15581"
       transform="matrix(1.6000038,0,0,1.6000038,-1.8000112e-4,-1.9260078)"><g
         id="g15583"
         clip-path="url(#clipPath15585)"><g
           id="g15589"
           transform="translate(127.3633,88.6636)"><path
             d="m 0,0 0,3.993 c 0,5.289 -4.046,9.651 -9.205,10.152 -0.937,1.248 -2.409,2.024 -4.033,2.024 l -4.443,0 -90.409,0 -3.807,0 c -1.603,0 -3.058,-0.756 -3.996,-1.975 l -0.633,0 c -5.625,0 -10.201,-4.576 -10.201,-10.201 l 0,-3.993 -0.636,0 0,-2.56 0,-1.273 0,-2.56 0,-2.069 0,-2.07 0,-2.069 0,-2.069 0,-2.07 0,-2.069 0,-2.069 0,-2.069 0,-2.069 0,-2.07 0,-2.069 0.636,0 0,-0.544 2.56,0 3.489,0 0,-0.451 -3.489,0 -2.56,0 0,-0.888 -0.636,0 0,-2.56 0,-1.274 0,-2.56 0,-2.069 0,-2.069 0.636,0 0,-5.943 c 0,-5.46 4.312,-9.932 9.71,-10.188 l 0,-0.268 c 0,-2.823 2.297,-5.12 5.12,-5.12 l 98.659,0 c 2.823,0 5.12,2.297 5.12,5.12 l 0,0.47 c 4.63,0.964 8.118,5.075 8.118,9.986 l 0,5.943 0.637,0 0,2.069 0,2.069 0,2.069 0,2.07 0,2.069 0,2.069 0,2.069 0,2.07 0,2.069 0,2.069 0,2.069 0,2.069 0,2.07 0,2.069 0,2.069 0,2.07 0,2.069 0,2.56 0,1.273 0,2.56 L 0,0 z"
             style="fill:#ffffff;fill-opacity:1;fill-rule:nonzero;stroke:none"
             id="path15591"
             inkscape:connector-curvature="0" /></g><g
           id="g15593"
           transform="translate(117.1631,100.726)"><path
             d="m 0,0 -106.326,0 c -4.22,0 -7.64,-3.421 -7.64,-7.64 l 0,-31.132 6.048,0 0,-5.571 -6.048,0 0,-14.803 c 0,-4.22 3.42,-7.641 7.64,-7.641 l 106.326,0 c 4.22,0 7.64,3.421 7.64,7.641 l 0,51.506 C 7.64,-3.421 4.22,0 0,0"
             style="fill:#333333;fill-opacity:1;fill-rule:nonzero;stroke:none"
             id="path15595"
             inkscape:connector-curvature="0" /></g><g
           id="g15597"
           transform="translate(115.6856,28.563)"><path
             d="m 0,0 -101.779,0 c -0.553,0 -1,0.448 -1,1 l 0,72.138 c 0,0.553 0.447,1 1,1 L 0,74.138 c 0.552,0 1,-0.447 1,-1 L 1,1 C 1,0.448 0.552,0 0,0"
             style="fill:#262626;fill-opacity:1;fill-rule:nonzero;stroke:none"
             id="path15599"
             inkscape:connector-curvature="0" /></g><g
           id="g15601"
           transform="translate(18.2729,44.6039)"><path
             d="m 0,0 c 0,-3.36 2.734,-6.093 6.093,-6.093 l 80.223,0 c 3.36,0 6.093,2.733 6.093,6.093 l 0,58.097 L 0,58.097 0,0 z"
             style="fill:#191919;fill-opacity:1;fill-rule:nonzero;stroke:none"
             id="path15603"
             inkscape:connector-curvature="0" /></g><g
           id="g15605"
           transform="translate(104.5886,39.5104)"><path
             d="m 0,0 -80.222,0 c -2.813,0 -5.094,2.28 -5.094,5.093 l 0,58.098 90.409,0 0,-58.098 C 5.093,2.28 2.813,0 0,0"
             style="fill:#808080;fill-opacity:1;fill-rule:nonzero;stroke:none"
             id="path15607"
             inkscape:connector-curvature="0" /></g><g
           id="g15609"
           transform="translate(124.8033,87.9911)"><path
             d="m 0,0 -2.865,0 c -1.407,0 -2.547,-1.14 -2.547,-2.547 l 0,-34.274 c 0,-1.406 1.14,-2.547 2.547,-2.547 L 0,-39.368 0,0 z"
             style="fill:#262626;fill-opacity:1;fill-rule:nonzero;stroke:none"
             id="path15611"
             inkscape:connector-curvature="0" /></g><path
           d="m 125.44,85.259 -5.518,0 0,1.273 5.518,0 0,-1.273 z"
           style="fill:#333333;fill-opacity:1;fill-rule:nonzero;stroke:none"
           id="path15613"
           inkscape:connector-curvature="0" /><path
           d="m 125.44,83.19 -5.518,0 0,1.273 5.518,0 0,-1.273 z"
           style="fill:#333333;fill-opacity:1;fill-rule:nonzero;stroke:none"
           id="path15615"
           inkscape:connector-curvature="0" /><path
           d="m 125.44,81.121 -5.518,0 0,1.273 5.518,0 0,-1.273 z"
           style="fill:#333333;fill-opacity:1;fill-rule:nonzero;stroke:none"
           id="path15617"
           inkscape:connector-curvature="0" /><path
           d="m 125.44,79.051 -5.518,0 0,1.273 5.518,0 0,-1.273 z"
           style="fill:#333333;fill-opacity:1;fill-rule:nonzero;stroke:none"
           id="path15619"
           inkscape:connector-curvature="0" /><path
           d="m 125.44,76.982 -5.518,0 0,1.273 5.518,0 0,-1.273 z"
           style="fill:#333333;fill-opacity:1;fill-rule:nonzero;stroke:none"
           id="path15621"
           inkscape:connector-curvature="0" /><path
           d="m 125.44,74.913 -5.518,0 0,1.273 5.518,0 0,-1.273 z"
           style="fill:#333333;fill-opacity:1;fill-rule:nonzero;stroke:none"
           id="path15623"
           inkscape:connector-curvature="0" /><path
           d="m 125.44,72.844 -5.518,0 0,1.273 5.518,0 0,-1.273 z"
           style="fill:#333333;fill-opacity:1;fill-rule:nonzero;stroke:none"
           id="path15625"
           inkscape:connector-curvature="0" /><path
           d="m 125.44,70.774 -5.518,0 0,1.273 5.518,0 0,-1.273 z"
           style="fill:#333333;fill-opacity:1;fill-rule:nonzero;stroke:none"
           id="path15627"
           inkscape:connector-curvature="0" /><path
           d="m 125.44,68.705 -5.518,0 0,1.273 5.518,0 0,-1.273 z"
           style="fill:#333333;fill-opacity:1;fill-rule:nonzero;stroke:none"
           id="path15629"
           inkscape:connector-curvature="0" /><path
           d="m 125.44,66.636 -5.518,0 0,1.273 5.518,0 0,-1.273 z"
           style="fill:#333333;fill-opacity:1;fill-rule:nonzero;stroke:none"
           id="path15631"
           inkscape:connector-curvature="0" /><path
           d="m 125.44,64.567 -5.518,0 0,1.273 5.518,0 0,-1.273 z"
           style="fill:#333333;fill-opacity:1;fill-rule:nonzero;stroke:none"
           id="path15633"
           inkscape:connector-curvature="0" /><path
           d="m 125.44,62.498 -5.518,0 0,1.273 5.518,0 0,-1.273 z"
           style="fill:#333333;fill-opacity:1;fill-rule:nonzero;stroke:none"
           id="path15635"
           inkscape:connector-curvature="0" /><path
           d="m 125.44,60.428 -5.518,0 0,1.273 5.518,0 0,-1.273 z"
           style="fill:#333333;fill-opacity:1;fill-rule:nonzero;stroke:none"
           id="path15637"
           inkscape:connector-curvature="0" /><path
           d="m 125.44,58.359 -5.518,0 0,1.273 5.518,0 0,-1.273 z"
           style="fill:#333333;fill-opacity:1;fill-rule:nonzero;stroke:none"
           id="path15639"
           inkscape:connector-curvature="0" /><path
           d="m 125.44,56.29 -5.518,0 0,1.273 5.518,0 0,-1.273 z"
           style="fill:#333333;fill-opacity:1;fill-rule:nonzero;stroke:none"
           id="path15641"
           inkscape:connector-curvature="0" /><path
           d="m 125.44,54.221 -5.518,0 0,1.273 5.518,0 0,-1.273 z"
           style="fill:#333333;fill-opacity:1;fill-rule:nonzero;stroke:none"
           id="path15643"
           inkscape:connector-curvature="0" /><path
           d="m 125.44,52.151 -5.518,0 0,1.273 5.518,0 0,-1.273 z"
           style="fill:#333333;fill-opacity:1;fill-rule:nonzero;stroke:none"
           id="path15645"
           inkscape:connector-curvature="0" /><path
           d="m 125.44,50.082 -5.518,0 0,1.273 5.518,0 0,-1.273 z"
           style="fill:#333333;fill-opacity:1;fill-rule:nonzero;stroke:none"
           id="path15647"
           inkscape:connector-curvature="0" /><g
           id="g15649"
           transform="translate(3.1967,56.0642)"><path
             d="m 0,0 0,-7.441 2.865,0 c 1.407,0 2.547,1.141 2.547,2.547 L 5.412,0 0,0 z"
             style="fill:#262626;fill-opacity:1;fill-rule:nonzero;stroke:none"
             id="path15651"
             inkscape:connector-curvature="0" /></g><g
           id="g15653"
           transform="translate(8.6085,61.9535)"><path
             d="m 0,0 0,23.491 c 0,1.407 -1.14,2.547 -2.547,2.547 l -2.865,0 L -5.412,0 0,0 z"
             style="fill:#262626;fill-opacity:1;fill-rule:nonzero;stroke:none"
             id="path15655"
             inkscape:connector-curvature="0" /></g><path
           d="m 2.56,85.259 5.518,0 0,1.273 -5.518,0 0,-1.273 z"
           style="fill:#333333;fill-opacity:1;fill-rule:nonzero;stroke:none"
           id="path15657"
           inkscape:connector-curvature="0" /><path
           d="m 2.56,83.19 5.518,0 0,1.273 -5.518,0 0,-1.273 z"
           style="fill:#333333;fill-opacity:1;fill-rule:nonzero;stroke:none"
           id="path15659"
           inkscape:connector-curvature="0" /><path
           d="m 2.56,81.121 5.518,0 0,1.273 -5.518,0 0,-1.273 z"
           style="fill:#333333;fill-opacity:1;fill-rule:nonzero;stroke:none"
           id="path15661"
           inkscape:connector-curvature="0" /><path
           d="m 2.56,79.051 5.518,0 0,1.273 -5.518,0 0,-1.273 z"
           style="fill:#333333;fill-opacity:1;fill-rule:nonzero;stroke:none"
           id="path15663"
           inkscape:connector-curvature="0" /><path
           d="m 2.56,76.982 5.518,0 0,1.273 -5.518,0 0,-1.273 z"
           style="fill:#333333;fill-opacity:1;fill-rule:nonzero;stroke:none"
           id="path15665"
           inkscape:connector-curvature="0" /><path
           d="m 2.56,74.913 5.518,0 0,1.273 -5.518,0 0,-1.273 z"
           style="fill:#333333;fill-opacity:1;fill-rule:nonzero;stroke:none"
           id="path15667"
           inkscape:connector-curvature="0" /><path
           d="m 2.56,72.844 5.518,0 0,1.273 -5.518,0 0,-1.273 z"
           style="fill:#333333;fill-opacity:1;fill-rule:nonzero;stroke:none"
           id="path15669"
           inkscape:connector-curvature="0" /><path
           d="m 2.56,70.774 5.518,0 0,1.273 -5.518,0 0,-1.273 z"
           style="fill:#333333;fill-opacity:1;fill-rule:nonzero;stroke:none"
           id="path15671"
           inkscape:connector-curvature="0" /><path
           d="m 2.56,68.705 5.518,0 0,1.273 -5.518,0 0,-1.273 z"
           style="fill:#333333;fill-opacity:1;fill-rule:nonzero;stroke:none"
           id="path15673"
           inkscape:connector-curvature="0" /><path
           d="m 2.56,66.636 5.518,0 0,1.273 -5.518,0 0,-1.273 z"
           style="fill:#333333;fill-opacity:1;fill-rule:nonzero;stroke:none"
           id="path15675"
           inkscape:connector-curvature="0" /><path
           d="m 2.56,64.567 5.518,0 0,1.273 -5.518,0 0,-1.273 z"
           style="fill:#333333;fill-opacity:1;fill-rule:nonzero;stroke:none"
           id="path15677"
           inkscape:connector-curvature="0" /><path
           d="m 2.56,62.498 5.518,0 0,1.273 -5.518,0 0,-1.273 z"
           style="fill:#333333;fill-opacity:1;fill-rule:nonzero;stroke:none"
           id="path15679"
           inkscape:connector-curvature="0" /><path
           d="m 2.56,54.221 5.518,0 0,1.273 -5.518,0 0,-1.273 z"
           style="fill:#333333;fill-opacity:1;fill-rule:nonzero;stroke:none"
           id="path15681"
           inkscape:connector-curvature="0" /><path
           d="m 2.56,52.151 5.518,0 0,1.273 -5.518,0 0,-1.273 z"
           style="fill:#333333;fill-opacity:1;fill-rule:nonzero;stroke:none"
           id="path15683"
           inkscape:connector-curvature="0" /><path
           d="m 2.56,50.082 5.518,0 0,1.273 -5.518,0 0,-1.273 z"
           style="fill:#333333;fill-opacity:1;fill-rule:nonzero;stroke:none"
           id="path15685"
           inkscape:connector-curvature="0" /><g
           id="g15687"
           transform="translate(35.5,39.5104)"><path
             d="m 0,0 -11.227,0 c -2.761,0 -5,2.239 -5,5 l 0,58.191 L 0,63.191 0,0 z"
             style="fill:#174da2;fill-opacity:1;fill-rule:nonzero;stroke:none"
             id="path15689"
             inkscape:connector-curvature="0" /></g></g></g></g></svg>