<?xml version="1.0" encoding="UTF-8" standalone="no"?>
<!-- Created with Inkscape (http://www.inkscape.org/) -->

<svg
   xmlns:dc="http://purl.org/dc/elements/1.1/"
   xmlns:cc="http://creativecommons.org/ns#"
   xmlns:rdf="http://www.w3.org/1999/02/22-rdf-syntax-ns#"
   xmlns:svg="http://www.w3.org/2000/svg"
   xmlns="http://www.w3.org/2000/svg"
   xmlns:sodipodi="http://sodipodi.sourceforge.net/DTD/sodipodi-0.dtd"
   xmlns:inkscape="http://www.inkscape.org/namespaces/inkscape"
   id="svg16451"
   version="1.1"
   inkscape:version="0.48.5 r10040"
   width="256"
   height="256"
   xml:space="preserve"
   sodipodi:docname="Sinclair - ZX Spectrum +3-content.svg"
   inkscape:export-filename="/Users/margetts/Desktop/BAXY RetroActive/png_clean/Sinclair - ZX Spectrum +3-content.png"
   inkscape:export-xdpi="90"
   inkscape:export-ydpi="90"><metadata
     id="metadata16457"><rdf:RDF><cc:Work
         rdf:about=""><dc:format>image/svg+xml</dc:format><dc:type
           rdf:resource="http://purl.org/dc/dcmitype/StillImage" /><dc:title></dc:title></cc:Work></rdf:RDF></metadata><defs
     id="defs16455"><clipPath
       clipPathUnits="userSpaceOnUse"
       id="clipPath16465"><path
         d="M 0,128 128,128 128,0 0,0 0,128 z"
         id="path16467"
         inkscape:connector-curvature="0" /></clipPath></defs><sodipodi:namedview
     pagecolor="#ffffff"
     bordercolor="#666666"
     borderopacity="1"
     objecttolerance="10"
     gridtolerance="10"
     guidetolerance="10"
     inkscape:pageopacity="0"
     inkscape:pageshadow="2"
     inkscape:window-width="1676"
     inkscape:window-height="1005"
     id="namedview16453"
     showgrid="false"
     inkscape:zoom="5.2625"
     inkscape:cx="56.152019"
     inkscape:cy="80"
     inkscape:window-x="4"
     inkscape:window-y="1"
     inkscape:window-maximized="1"
     inkscape:current-layer="g16459" /><g
     id="g16459"
     inkscape:groupmode="layer"
     inkscape:label="Sinclair - ZX Spectrum +3-content"
     transform="matrix(1.25,0,0,-1.25,0,256)"><g
       id="g16461"
       transform="matrix(1.6,0,0,1.6,0,-2.28688)"><g
         id="g16463"
         clip-path="url(#clipPath16465)"><g
           id="g16469"
           transform="translate(89.055,65.4768)"><path
             d="m 0,0 c -3.402,0 -6.169,2.767 -6.169,6.169 0,3.401 2.767,6.169 6.169,6.169 3.402,0 6.169,-2.768 6.169,-6.169 C 6.169,2.767 3.402,0 0,0 m -50.062,-0.048 c -3.428,0 -6.217,2.789 -6.217,6.217 0,3.428 2.789,6.216 6.217,6.216 3.428,0 6.216,-2.788 6.216,-6.216 0,-3.428 -2.788,-6.217 -6.216,-6.217 m 10.79,13.044 29.716,0 0,-13.654 -29.716,0 0,13.654 z m 71.106,28.201 -113.778,0 c -3.921,0 -7.111,-3.19 -7.111,-7.111 l 0,-68.267 c 0,-3.921 3.19,-7.111 7.111,-7.111 l 13.653,0 86.472,0 13.653,0 c 3.921,0 7.111,3.19 7.111,7.111 l 0,68.267 c 0,3.921 -3.19,7.111 -7.111,7.111 M 0,0 c 3.405,0 6.169,2.762 6.169,6.169 0,3.407 -2.764,6.169 -6.169,6.169 -3.405,0 -6.169,-2.762 -6.169,-6.169 C -6.169,2.762 -3.405,0 0,0 m -50.062,-0.048 c 3.431,0 6.216,2.783 6.216,6.217 0,3.433 -2.785,6.216 -6.216,6.216 -3.432,0 -6.217,-2.783 -6.217,-6.216 0,-3.434 2.785,-6.217 6.217,-6.217 m 13.653,-0.61 22.756,0 c 1.258,0 2.275,1.017 2.275,2.276 l 0,9.102 c 0,1.258 -1.017,2.276 -2.275,2.276 l -22.756,0 c -1.258,0 -2.275,-1.018 -2.275,-2.276 l 0,-9.102 c 0,-1.259 1.017,-2.276 2.275,-2.276 M 6.124,14.665 c 1.373,0 2.488,-0.474 2.488,-1.057 l 0,-15.855 c 0,-0.584 -1.115,-1.057 -2.488,-1.057 l -7.463,0 -47.265,0 -7.463,0 c -1.374,0 -2.488,0.473 -2.488,1.057 l 0,15.855 c 0,0.583 1.114,1.057 2.488,1.057 l 62.191,0"
             style="fill:#ffffff;fill-opacity:1;fill-rule:nonzero;stroke:none"
             id="path16471"
             inkscape:connector-curvature="0" /></g><g
           id="g16473"
           transform="translate(89.055,65.4768)"><path
             d="m 0,0 c -3.405,0 -6.169,2.762 -6.169,6.169 0,3.407 2.764,6.169 6.169,6.169 3.405,0 6.169,-2.762 6.169,-6.169 C 6.169,2.762 3.405,0 0,0 m -50.062,-0.048 c -3.432,0 -6.217,2.783 -6.217,6.217 0,3.434 2.785,6.216 6.217,6.216 3.431,0 6.216,-2.782 6.216,-6.216 0,-3.434 -2.785,-6.217 -6.216,-6.217 m 81.896,38.685 -113.778,0 c -2.512,0 -4.551,-2.039 -4.551,-4.551 l 0,-68.267 c 0,-2.512 2.039,-4.551 4.551,-4.551 l 13.653,0 86.472,0 13.653,0 c 2.512,0 4.551,2.039 4.551,4.551 l 0,68.267 c 0,2.512 -2.039,4.551 -4.551,4.551"
             style="fill:#333333;fill-opacity:1;fill-rule:nonzero;stroke:none"
             id="path16475"
             inkscape:connector-curvature="0" /></g><g
           id="g16477"
           transform="translate(89.0311,65.4768)"><path
             d="m 0,0 c -3.405,0 -6.169,2.762 -6.169,6.169 0,3.407 2.764,6.169 6.169,6.169 3.405,0 6.169,-2.762 6.169,-6.169 C 6.169,2.762 3.405,0 0,0 m -50.062,-0.048 c -3.432,0 -6.217,2.783 -6.217,6.217 0,3.434 2.785,6.216 6.217,6.216 3.431,0 6.216,-2.782 6.216,-6.216 0,-3.434 -2.785,-6.217 -6.216,-6.217 m 75.093,31.248 -100.124,0 c -2.512,0 -4.551,-2.039 -4.551,-4.551 l 0,-36.409 c 0,-2.512 2.039,-4.551 4.551,-4.551 l 100.124,0 c 2.512,0 4.551,2.039 4.551,4.551 l 0,36.409 c 0,2.512 -2.039,4.551 -4.551,4.551"
             style="fill:#d9d9d9;fill-opacity:1;fill-rule:nonzero;stroke:none"
             id="path16479"
             inkscape:connector-curvature="0" /></g><g
           id="g16481"
           transform="translate(102.6844,37.5123)"><path
             d="m 0,0 c 0,0 0,2.276 -2.282,2.276 l -72.811,0 C -77.369,2.276 -77.369,0 -77.369,0 l -2.275,-11.378 81.92,0 L 0,0 z"
             style="fill:#404040;fill-opacity:1;fill-rule:nonzero;stroke:none"
             id="path16483"
             inkscape:connector-curvature="0" /></g><g
           id="g16485"
           transform="translate(34.4178,28.4101)"><path
             d="m 0,0 c -1.258,0 -2.276,1.017 -2.276,2.276 0,1.258 1.018,2.275 2.276,2.275 1.258,0 2.276,-1.017 2.276,-2.275 C 2.276,1.017 1.258,0 0,0"
             style="fill:#0d0d0d;fill-opacity:1;fill-rule:nonzero;stroke:none"
             id="path16487"
             inkscape:connector-curvature="0" /></g><g
           id="g16489"
           transform="translate(45.7956,30.6857)"><path
             d="m 0,0 c -1.258,0 -2.276,1.017 -2.276,2.276 0,1.258 1.018,2.275 2.276,2.275 1.258,0 2.276,-1.017 2.276,-2.275 C 2.276,1.017 1.258,0 0,0"
             style="fill:#0d0d0d;fill-opacity:1;fill-rule:nonzero;stroke:none"
             id="path16491"
             inkscape:connector-curvature="0" /></g><g
           id="g16493"
           transform="translate(64,32.9612)"><path
             d="m 0,0 c -1.258,0 -2.276,1.017 -2.276,2.276 0,1.258 1.018,2.275 2.276,2.275 1.258,0 2.276,-1.017 2.276,-2.275 C 2.276,1.017 1.258,0 0,0"
             style="fill:#0d0d0d;fill-opacity:1;fill-rule:nonzero;stroke:none"
             id="path16495"
             inkscape:connector-curvature="0" /></g><g
           id="g16497"
           transform="translate(82.2045,30.6857)"><path
             d="m 0,0 c -1.258,0 -2.276,1.017 -2.276,2.276 0,1.258 1.018,2.275 2.276,2.275 1.258,0 2.276,-1.017 2.276,-2.275 C 2.276,1.017 1.258,0 0,0"
             style="fill:#0d0d0d;fill-opacity:1;fill-rule:nonzero;stroke:none"
             id="path16499"
             inkscape:connector-curvature="0" /></g><g
           id="g16501"
           transform="translate(93.5822,28.4101)"><path
             d="m 0,0 c -1.258,0 -2.276,1.017 -2.276,2.276 0,1.258 1.018,2.275 2.276,2.275 1.258,0 2.276,-1.017 2.276,-2.275 C 2.276,1.017 1.258,0 0,0"
             style="fill:#0d0d0d;fill-opacity:1;fill-rule:nonzero;stroke:none"
             id="path16503"
             inkscape:connector-curvature="0" /></g><g
           id="g16505"
           transform="translate(5.9733,28.4101)"><path
             d="m 0,0 c -0.628,0 -1.138,0.51 -1.138,1.138 0,0.628 0.51,1.138 1.138,1.138 0.628,0 1.138,-0.51 1.138,-1.138 C 1.138,0.51 0.628,0 0,0"
             style="fill:#191919;fill-opacity:1;fill-rule:nonzero;stroke:none"
             id="path16507"
             inkscape:connector-curvature="0" /></g><g
           id="g16509"
           transform="translate(5.9733,98.9523)"><path
             d="m 0,0 c -0.628,0 -1.138,0.51 -1.138,1.138 0,0.628 0.51,1.138 1.138,1.138 0.628,0 1.138,-0.51 1.138,-1.138 C 1.138,0.51 0.628,0 0,0"
             style="fill:#191919;fill-opacity:1;fill-rule:nonzero;stroke:none"
             id="path16511"
             inkscape:connector-curvature="0" /></g><g
           id="g16513"
           transform="translate(122.0267,28.4101)"><path
             d="m 0,0 c -0.628,0 -1.138,0.51 -1.138,1.138 0,0.628 0.51,1.138 1.138,1.138 0.628,0 1.138,-0.51 1.138,-1.138 C 1.138,0.51 0.628,0 0,0"
             style="fill:#191919;fill-opacity:1;fill-rule:nonzero;stroke:none"
             id="path16515"
             inkscape:connector-curvature="0" /></g><g
           id="g16517"
           transform="translate(122.0267,98.9523)"><path
             d="m 0,0 c -0.628,0 -1.138,0.51 -1.138,1.138 0,0.628 0.51,1.138 1.138,1.138 0.628,0 1.138,-0.51 1.138,-1.138 C 1.138,0.51 0.628,0 0,0"
             style="fill:#191919;fill-opacity:1;fill-rule:nonzero;stroke:none"
             id="path16519"
             inkscape:connector-curvature="0" /></g><g
           id="g16521"
           transform="translate(38.9689,78.4723)"><path
             d="m 0,0 c -3.768,0 -6.827,-3.056 -6.827,-6.827 0,-3.77 3.059,-6.826 6.827,-6.826 3.768,0 6.827,3.056 6.827,6.826 C 6.827,-3.056 3.768,0 0,0 m 0,-1.28 c 3.058,0 5.547,-2.488 5.547,-5.547 0,-3.058 -2.489,-5.546 -5.547,-5.546 -3.058,0 -5.547,2.488 -5.547,5.546 0,3.059 2.489,5.547 5.547,5.547"
             style="fill:#0d0d0d;fill-opacity:1;fill-rule:nonzero;stroke:none"
             id="path16523"
             inkscape:connector-curvature="0" /></g><g
           id="g16525"
           transform="translate(77.6534,66.8888)"><path
             d="m 0,0 c 0,-1.258 -1.017,-2.276 -2.276,-2.276 l -22.755,0 c -1.259,0 -2.276,1.018 -2.276,2.276 l 0,9.102 c 0,1.259 1.017,2.276 2.276,2.276 l 22.755,0 C -1.017,11.378 0,10.361 0,9.102 L 0,0 z"
             style="fill:#f2f2f2;fill-opacity:1;fill-rule:nonzero;stroke:none"
             id="path16527"
             inkscape:connector-curvature="0" /></g><g
           id="g16529"
           transform="translate(89.0311,78.4723)"><path
             d="m 0,0 c -3.768,0 -6.827,-3.056 -6.827,-6.827 0,-3.77 3.059,-6.826 6.827,-6.826 3.768,0 6.827,3.056 6.827,6.826 C 6.827,-3.056 3.768,0 0,0 m 0,-1.28 c 3.058,0 5.547,-2.488 5.547,-5.547 0,-3.058 -2.489,-5.546 -5.547,-5.546 -3.058,0 -5.547,2.488 -5.547,5.546 0,3.059 2.489,5.547 5.547,5.547"
             style="fill:#0d0d0d;fill-opacity:1;fill-rule:nonzero;stroke:none"
             id="path16531"
             inkscape:connector-curvature="0" /></g><g
           id="g16533"
           transform="translate(77.6534,67.0946)"><path
             d="m 0,0 c 0,-1.258 -1.017,-2.276 -2.276,-2.276 l -22.755,0 c -1.259,0 -2.276,1.018 -2.276,2.276 l 0,9.102 c 0,1.259 1.017,2.276 2.276,2.276 l 22.755,0 C -1.017,11.378 0,10.361 0,9.102 L 0,0 z"
             style="fill:#808080;fill-opacity:1;fill-rule:nonzero;stroke:none"
             id="path16535"
             inkscape:connector-curvature="0" /></g><g
           id="g16537"
           transform="translate(50.3467,76.1968)"><path
             d="m 0,0 0,-9.102 c 0,-1.259 1.017,-2.276 2.275,-2.276 l 1.12,0 c 0.963,2.079 1.515,4.386 1.515,6.827 0,2.441 -0.552,4.748 -1.515,6.827 l -1.12,0 C 1.017,2.276 0,1.258 0,0"
             style="fill:#0d0d0d;fill-opacity:1;fill-rule:nonzero;stroke:none"
             id="path16539"
             inkscape:connector-curvature="0" /></g><g
           id="g16541"
           transform="translate(118.6133,89.9034)"><path
             d="m 0,0 -6.773,0 0,6.773 4.993,0 C -0.797,6.773 0,5.976 0,4.993 L 0,0 z"
             style="fill:#1d7fd2;fill-opacity:1;fill-rule:nonzero;stroke:none"
             id="path16543"
             inkscape:connector-curvature="0" /></g></g></g></g></svg>