<?xml version="1.0" encoding="UTF-8" standalone="no"?>
<!-- Created with Inkscape (http://www.inkscape.org/) -->

<svg
   xmlns:dc="http://purl.org/dc/elements/1.1/"
   xmlns:cc="http://creativecommons.org/ns#"
   xmlns:rdf="http://www.w3.org/1999/02/22-rdf-syntax-ns#"
   xmlns:svg="http://www.w3.org/2000/svg"
   xmlns="http://www.w3.org/2000/svg"
   xmlns:sodipodi="http://sodipodi.sourceforge.net/DTD/sodipodi-0.dtd"
   xmlns:inkscape="http://www.inkscape.org/namespaces/inkscape"
   id="svg12748"
   version="1.1"
   inkscape:version="0.48.5 r10040"
   width="256"
   height="256"
   xml:space="preserve"
   sodipodi:docname="SNK - Neo Geo Pocket Color.svg"
   inkscape:export-filename="/Users/margetts/Desktop/BAXY RetroActive/png_clean/SNK - Neo Geo Pocket Color.png"
   inkscape:export-xdpi="90"
   inkscape:export-ydpi="90"><metadata
     id="metadata12754"><rdf:RDF><cc:Work
         rdf:about=""><dc:format>image/svg+xml</dc:format><dc:type
           rdf:resource="http://purl.org/dc/dcmitype/StillImage" /><dc:title></dc:title></cc:Work></rdf:RDF></metadata><defs
     id="defs12752"><clipPath
       clipPathUnits="userSpaceOnUse"
       id="clipPath12762"><path
         d="M 0,128 128,128 128,0 0,0 0,128 z"
         id="path12764"
         inkscape:connector-curvature="0" /></clipPath></defs><sodipodi:namedview
     pagecolor="#ffffff"
     bordercolor="#666666"
     borderopacity="1"
     objecttolerance="10"
     gridtolerance="10"
     guidetolerance="10"
     inkscape:pageopacity="0"
     inkscape:pageshadow="2"
     inkscape:window-width="1676"
     inkscape:window-height="1005"
     id="namedview12750"
     showgrid="false"
     inkscape:zoom="5.2625"
     inkscape:cx="56.152019"
     inkscape:cy="80"
     inkscape:window-x="4"
     inkscape:window-y="1"
     inkscape:window-maximized="1"
     inkscape:current-layer="g12756" /><g
     id="g12756"
     inkscape:groupmode="layer"
     inkscape:label="SNK - Neo Geo Pocket Color"
     transform="matrix(1.25,0,0,-1.25,0,256)"><g
       id="g12758"
       transform="matrix(1.600215,0,0,1.600215,0,0.43606044)"><g
         id="g12760"
         clip-path="url(#clipPath12762)"><g
           id="g12766"
           transform="translate(124.8448,101.6949)"><path
             d="m 0,0 c -1.122,0.914 -4.209,1.822 -20.842,2.528 -10.707,0.453 -24.92,0.703 -40.022,0.703 -15.101,0 -29.314,-0.25 -40.021,-0.703 -16.629,-0.705 -19.717,-1.614 -20.839,-2.528 -2.717,-1.342 -3.138,-3.238 -3.138,-4.283 l 0,-61.44 c 0,-5.557 7.216,-9.914 12.184,-10.472 17.885,-2.01 34.784,-2.988 51.662,-2.988 16.878,0 33.877,0.978 51.967,2.988 4.969,0.552 12.187,4.905 12.187,10.472 l 0,61.44 C 3.138,-3.238 2.717,-1.342 0,0"
             style="fill:#ffffff;fill-opacity:1;fill-rule:nonzero;stroke:none"
             id="path12768"
             inkscape:connector-curvature="0" /></g><g
           id="g12770"
           transform="translate(8.4885,100.3844)"><path
             d="m 0,0 110.988,0 c 1.982,0 5.946,-0.991 5.946,-2.973 l 0,-61.44 c 0,-3.964 -5.97,-7.49 -9.909,-7.928 -35.675,-3.964 -67.828,-3.96 -103.061,0 -3.945,0.444 -9.91,3.964 -9.91,7.928 l 0,61.44 C -5.946,-0.991 -1.982,0 0,0"
             style="fill:#67829e;fill-opacity:1;fill-rule:nonzero;stroke:none"
             id="path12772"
             inkscape:connector-curvature="0" /></g><g
           id="g12774"
           transform="translate(123.4407,99.3934)"><path
             d="m 0,0 0,-63.422 c 0,-3.964 -3.964,-5.946 -7.928,-7.928 -35.675,-3.964 -67.827,-3.96 -103.06,0 -3.946,0.444 -7.928,3.964 -7.928,7.928 l 0,63.422 C -118.916,3.964 0,3.964 0,0"
             style="fill:#7998b8;fill-opacity:1;fill-rule:nonzero;stroke:none"
             id="path12776"
             inkscape:connector-curvature="0" /></g><g
           id="g12778"
           transform="translate(34.2415,99.3934)"><path
             d="m 0,0 59.482,0 c 1.092,0 1.97,-0.884 1.97,-1.982 l 0,-59.458 c 0,-1.982 -63.422,-1.982 -63.422,0 l 0,59.458 C -1.97,-0.884 -1.091,0 0,0"
             style="fill:#333333;fill-opacity:1;fill-rule:nonzero;stroke:none"
             id="path12780"
             inkscape:connector-curvature="0" /></g><g
           id="g12782"
           transform="translate(38.2054,93.4476)"><path
             d="m 0,0 51.554,0 c 1.092,0 1.97,-0.884 1.97,-1.982 l 0,-49.548 c 0,-1.982 -55.494,-1.982 -55.494,0 l 0,49.548 C -1.97,-0.884 -1.091,0 0,0"
             style="fill:#191919;fill-opacity:1;fill-rule:nonzero;stroke:none"
             id="path12784"
             inkscape:connector-curvature="0" /></g><path
           d="m 40.199,89.484 47.566,0 0,-45.585 -47.566,0 0,45.585 z"
           style="fill:#888888;fill-opacity:1;fill-rule:nonzero;stroke:none"
           id="path12786"
           inkscape:connector-curvature="0" /><g
           id="g12788"
           transform="translate(76.5069,36.5766)"><path
             d="m 0,0 0,5.508 -25.049,0 0,-5.508 C -17.108,-0.145 -7.94,-0.145 0,0"
             style="fill:#191919;fill-opacity:1;fill-rule:nonzero;stroke:none"
             id="path12790"
             inkscape:connector-curvature="0" /></g><g
           id="g12792"
           transform="translate(10.4589,89.4246)"><path
             d="m 0,0 3.988,0 c 1.088,0 1.97,-0.887 1.97,-1.982 0,-1.095 -0.882,-1.982 -1.97,-1.982 l -3.988,0 c -1.088,0 -1.97,0.887 -1.97,1.982 C -1.97,-0.887 -1.088,0 0,0"
             style="fill:#404040;fill-opacity:1;fill-rule:nonzero;stroke:none"
             id="path12794"
             inkscape:connector-curvature="0" /></g><g
           id="g12796"
           transform="translate(24.3325,89.4246)"><path
             d="m 0,0 0.024,0 c 1.088,0 1.97,-0.887 1.97,-1.982 0,-1.095 -0.882,-1.982 -1.97,-1.982 l -0.024,0 c -1.088,0 -1.97,0.887 -1.97,1.982 C -1.97,-0.887 -1.088,0 0,0"
             style="fill:#404040;fill-opacity:1;fill-rule:nonzero;stroke:none"
             id="path12798"
             inkscape:connector-curvature="0" /></g><g
           id="g12800"
           transform="translate(109.5678,68.6143)"><path
             d="m 0,0 c 0,-2.736 -2.218,-4.955 -4.955,-4.955 -2.736,0 -4.955,2.219 -4.955,4.955 0,2.736 2.219,4.955 4.955,4.955 C -2.218,4.955 0,2.736 0,0"
             style="fill:#404040;fill-opacity:1;fill-rule:nonzero;stroke:none"
             id="path12802"
             inkscape:connector-curvature="0" /></g><g
           id="g12804"
           transform="translate(119.4775,76.542)"><path
             d="m 0,0 c 0,-2.736 -2.218,-4.955 -4.955,-4.955 -2.736,0 -4.955,2.219 -4.955,4.955 0,2.736 2.219,4.955 4.955,4.955 C -2.218,4.955 0,2.736 0,0"
             style="fill:#404040;fill-opacity:1;fill-rule:nonzero;stroke:none"
             id="path12806"
             inkscape:connector-curvature="0" /></g><g
           id="g12808"
           transform="translate(29.2284,69.1452)"><path
             d="m 0,0 c 0,-5.727 -4.643,-10.37 -10.37,-10.37 -5.728,0 -10.371,4.643 -10.371,10.37 0,5.727 4.643,10.37 10.371,10.37 C -4.643,10.37 0,5.727 0,0"
             style="fill:#67829e;fill-opacity:1;fill-rule:nonzero;stroke:none"
             id="path12810"
             inkscape:connector-curvature="0" /></g><g
           id="g12812"
           transform="translate(24.8039,69.1452)"><path
             d="m 0,0 c 0,-3.284 -2.662,-5.946 -5.946,-5.946 -3.284,0 -5.946,2.662 -5.946,5.946 0,3.284 2.662,5.946 5.946,5.946 C -2.662,5.946 0,3.284 0,0"
             style="fill:#404040;fill-opacity:1;fill-rule:nonzero;stroke:none"
             id="path12814"
             inkscape:connector-curvature="0" /></g><g
           id="g12816"
           transform="translate(117.4955,92.3975)"><path
             d="m 0,0 c 0,-1.642 -1.331,-2.973 -2.973,-2.973 -1.642,0 -2.973,1.331 -2.973,2.973 0,1.642 1.331,2.973 2.973,2.973 C -1.331,2.973 0,1.642 0,0"
             style="fill:#404040;fill-opacity:1;fill-rule:nonzero;stroke:none"
             id="path12818"
             inkscape:connector-curvature="0" /></g><g
           id="g12820"
           transform="translate(14.4349,48.7949)"><path
             d="m 0,0 c 0,-0.547 -0.444,-0.991 -0.991,-0.991 -0.547,0 -0.991,0.444 -0.991,0.991 0,0.547 0.444,0.991 0.991,0.991 C -0.444,0.991 0,0.547 0,0"
             style="fill:#404040;fill-opacity:1;fill-rule:nonzero;stroke:none"
             id="path12822"
             inkscape:connector-curvature="0" /></g><g
           id="g12824"
           transform="translate(101.64,48.7949)"><path
             d="m 0,0 c 0,-0.547 -0.444,-0.991 -0.991,-0.991 -0.547,0 -0.991,0.444 -0.991,0.991 0,0.547 0.444,0.991 0.991,0.991 C -0.444,0.991 0,0.547 0,0"
             style="fill:#67829e;fill-opacity:1;fill-rule:nonzero;stroke:none"
             id="path12826"
             inkscape:connector-curvature="0" /></g><g
           id="g12828"
           transform="translate(109.5678,48.7949)"><path
             d="m 0,0 c 0,-0.547 -0.444,-0.991 -0.991,-0.991 -0.547,0 -0.991,0.444 -0.991,0.991 0,0.547 0.444,0.991 0.991,0.991 C -0.444,0.991 0,0.547 0,0"
             style="fill:#67829e;fill-opacity:1;fill-rule:nonzero;stroke:none"
             id="path12830"
             inkscape:connector-curvature="0" /></g><g
           id="g12832"
           transform="translate(117.4955,48.7949)"><path
             d="m 0,0 c 0,-0.547 -0.444,-0.991 -0.991,-0.991 -0.547,0 -0.991,0.444 -0.991,0.991 0,0.547 0.444,0.991 0.991,0.991 C -0.444,0.991 0,0.547 0,0"
             style="fill:#67829e;fill-opacity:1;fill-rule:nonzero;stroke:none"
             id="path12834"
             inkscape:connector-curvature="0" /></g><g
           id="g12836"
           transform="translate(101.64,42.8491)"><path
             d="m 0,0 c 0,-0.547 -0.444,-0.991 -0.991,-0.991 -0.547,0 -0.991,0.444 -0.991,0.991 0,0.547 0.444,0.991 0.991,0.991 C -0.444,0.991 0,0.547 0,0"
             style="fill:#67829e;fill-opacity:1;fill-rule:nonzero;stroke:none"
             id="path12838"
             inkscape:connector-curvature="0" /></g><g
           id="g12840"
           transform="translate(109.5678,42.8491)"><path
             d="m 0,0 c 0,-0.547 -0.444,-0.991 -0.991,-0.991 -0.547,0 -0.991,0.444 -0.991,0.991 0,0.547 0.444,0.991 0.991,0.991 C -0.444,0.991 0,0.547 0,0"
             style="fill:#67829e;fill-opacity:1;fill-rule:nonzero;stroke:none"
             id="path12842"
             inkscape:connector-curvature="0" /></g><g
           id="g12844"
           transform="translate(117.4955,42.8491)"><path
             d="m 0,0 c 0,-0.547 -0.444,-0.991 -0.991,-0.991 -0.547,0 -0.991,0.444 -0.991,0.991 0,0.547 0.444,0.991 0.991,0.991 C -0.444,0.991 0,0.547 0,0"
             style="fill:#67829e;fill-opacity:1;fill-rule:nonzero;stroke:none"
             id="path12846"
             inkscape:connector-curvature="0" /></g><g
           id="g12848"
           transform="translate(101.64,36.9033)"><path
             d="m 0,0 c 0,-0.547 -0.444,-0.991 -0.991,-0.991 -0.547,0 -0.991,0.444 -0.991,0.991 0,0.547 0.444,0.991 0.991,0.991 C -0.444,0.991 0,0.547 0,0"
             style="fill:#67829e;fill-opacity:1;fill-rule:nonzero;stroke:none"
             id="path12850"
             inkscape:connector-curvature="0" /></g><g
           id="g12852"
           transform="translate(109.5678,36.9033)"><path
             d="m 0,0 c 0,-0.547 -0.444,-0.991 -0.991,-0.991 -0.547,0 -0.991,0.444 -0.991,0.991 0,0.547 0.444,0.991 0.991,0.991 C -0.444,0.991 0,0.547 0,0"
             style="fill:#67829e;fill-opacity:1;fill-rule:nonzero;stroke:none"
             id="path12854"
             inkscape:connector-curvature="0" /></g><g
           id="g12856"
           transform="translate(117.4955,36.9033)"><path
             d="m 0,0 c 0,-0.547 -0.444,-0.991 -0.991,-0.991 -0.547,0 -0.991,0.444 -0.991,0.991 0,0.547 0.444,0.991 0.991,0.991 C -0.444,0.991 0,0.547 0,0"
             style="fill:#67829e;fill-opacity:1;fill-rule:nonzero;stroke:none"
             id="path12858"
             inkscape:connector-curvature="0" /></g><g
           id="g12860"
           transform="translate(17.4078,48.7949)"><path
             d="m 0,0 c 0,-0.547 -0.444,-0.991 -0.991,-0.991 -0.547,0 -0.991,0.444 -0.991,0.991 0,0.547 0.444,0.991 0.991,0.991 C -0.444,0.991 0,0.547 0,0"
             style="fill:#404040;fill-opacity:1;fill-rule:nonzero;stroke:none"
             id="path12862"
             inkscape:connector-curvature="0" /></g><g
           id="g12864"
           transform="translate(23.3536,48.7949)"><path
             d="m 0,0 c 0,-0.547 -0.444,-0.991 -0.991,-0.991 -0.547,0 -0.991,0.444 -0.991,0.991 0,0.547 0.444,0.991 0.991,0.991 C -0.444,0.991 0,0.547 0,0"
             style="fill:#404040;fill-opacity:1;fill-rule:nonzero;stroke:none"
             id="path12866"
             inkscape:connector-curvature="0" /></g><g
           id="g12868"
           transform="translate(20.3807,48.7949)"><path
             d="m 0,0 c 0,-0.547 -0.444,-0.991 -0.991,-0.991 -0.547,0 -0.991,0.444 -0.991,0.991 0,0.547 0.444,0.991 0.991,0.991 C -0.444,0.991 0,0.547 0,0"
             style="fill:#404040;fill-opacity:1;fill-rule:nonzero;stroke:none"
             id="path12870"
             inkscape:connector-curvature="0" /></g><g
           id="g12872"
           transform="translate(26.3265,48.7949)"><path
             d="m 0,0 c 0,-0.547 -0.444,-0.991 -0.991,-0.991 -0.547,0 -0.991,0.444 -0.991,0.991 0,0.547 0.444,0.991 0.991,0.991 C -0.444,0.991 0,0.547 0,0"
             style="fill:#404040;fill-opacity:1;fill-rule:nonzero;stroke:none"
             id="path12874"
             inkscape:connector-curvature="0" /></g><g
           id="g12876"
           transform="translate(14.4349,45.822)"><path
             d="m 0,0 c 0,-0.547 -0.444,-0.991 -0.991,-0.991 -0.547,0 -0.991,0.444 -0.991,0.991 0,0.547 0.444,0.991 0.991,0.991 C -0.444,0.991 0,0.547 0,0"
             style="fill:#404040;fill-opacity:1;fill-rule:nonzero;stroke:none"
             id="path12878"
             inkscape:connector-curvature="0" /></g><g
           id="g12880"
           transform="translate(17.4078,45.822)"><path
             d="m 0,0 c 0,-0.547 -0.444,-0.991 -0.991,-0.991 -0.547,0 -0.991,0.444 -0.991,0.991 0,0.547 0.444,0.991 0.991,0.991 C -0.444,0.991 0,0.547 0,0"
             style="fill:#404040;fill-opacity:1;fill-rule:nonzero;stroke:none"
             id="path12882"
             inkscape:connector-curvature="0" /></g><g
           id="g12884"
           transform="translate(23.3536,45.822)"><path
             d="m 0,0 c 0,-0.547 -0.444,-0.991 -0.991,-0.991 -0.547,0 -0.991,0.444 -0.991,0.991 0,0.547 0.444,0.991 0.991,0.991 C -0.444,0.991 0,0.547 0,0"
             style="fill:#404040;fill-opacity:1;fill-rule:nonzero;stroke:none"
             id="path12886"
             inkscape:connector-curvature="0" /></g><g
           id="g12888"
           transform="translate(20.3807,45.822)"><path
             d="m 0,0 c 0,-0.547 -0.444,-0.991 -0.991,-0.991 -0.547,0 -0.991,0.444 -0.991,0.991 0,0.547 0.444,0.991 0.991,0.991 C -0.444,0.991 0,0.547 0,0"
             style="fill:#404040;fill-opacity:1;fill-rule:nonzero;stroke:none"
             id="path12890"
             inkscape:connector-curvature="0" /></g><g
           id="g12892"
           transform="translate(26.3265,45.822)"><path
             d="m 0,0 c 0,-0.547 -0.444,-0.991 -0.991,-0.991 -0.547,0 -0.991,0.444 -0.991,0.991 0,0.547 0.444,0.991 0.991,0.991 C -0.444,0.991 0,0.547 0,0"
             style="fill:#404040;fill-opacity:1;fill-rule:nonzero;stroke:none"
             id="path12894"
             inkscape:connector-curvature="0" /></g><g
           id="g12896"
           transform="translate(14.4349,42.8491)"><path
             d="m 0,0 c 0,-0.547 -0.444,-0.991 -0.991,-0.991 -0.547,0 -0.991,0.444 -0.991,0.991 0,0.547 0.444,0.991 0.991,0.991 C -0.444,0.991 0,0.547 0,0"
             style="fill:#404040;fill-opacity:1;fill-rule:nonzero;stroke:none"
             id="path12898"
             inkscape:connector-curvature="0" /></g><g
           id="g12900"
           transform="translate(17.4078,42.8491)"><path
             d="m 0,0 c 0,-0.547 -0.444,-0.991 -0.991,-0.991 -0.547,0 -0.991,0.444 -0.991,0.991 0,0.547 0.444,0.991 0.991,0.991 C -0.444,0.991 0,0.547 0,0"
             style="fill:#404040;fill-opacity:1;fill-rule:nonzero;stroke:none"
             id="path12902"
             inkscape:connector-curvature="0" /></g><g
           id="g12904"
           transform="translate(23.3536,42.8491)"><path
             d="m 0,0 c 0,-0.547 -0.444,-0.991 -0.991,-0.991 -0.547,0 -0.991,0.444 -0.991,0.991 0,0.547 0.444,0.991 0.991,0.991 C -0.444,0.991 0,0.547 0,0"
             style="fill:#404040;fill-opacity:1;fill-rule:nonzero;stroke:none"
             id="path12906"
             inkscape:connector-curvature="0" /></g><g
           id="g12908"
           transform="translate(20.3807,42.8491)"><path
             d="m 0,0 c 0,-0.547 -0.444,-0.991 -0.991,-0.991 -0.547,0 -0.991,0.444 -0.991,0.991 0,0.547 0.444,0.991 0.991,0.991 C -0.444,0.991 0,0.547 0,0"
             style="fill:#404040;fill-opacity:1;fill-rule:nonzero;stroke:none"
             id="path12910"
             inkscape:connector-curvature="0" /></g><g
           id="g12912"
           transform="translate(26.3265,42.8491)"><path
             d="m 0,0 c 0,-0.547 -0.444,-0.991 -0.991,-0.991 -0.547,0 -0.991,0.444 -0.991,0.991 0,0.547 0.444,0.991 0.991,0.991 C -0.444,0.991 0,0.547 0,0"
             style="fill:#404040;fill-opacity:1;fill-rule:nonzero;stroke:none"
             id="path12914"
             inkscape:connector-curvature="0" /></g><g
           id="g12916"
           transform="translate(14.4349,39.8762)"><path
             d="m 0,0 c 0,-0.547 -0.444,-0.991 -0.991,-0.991 -0.547,0 -0.991,0.444 -0.991,0.991 0,0.547 0.444,0.991 0.991,0.991 C -0.444,0.991 0,0.547 0,0"
             style="fill:#404040;fill-opacity:1;fill-rule:nonzero;stroke:none"
             id="path12918"
             inkscape:connector-curvature="0" /></g><g
           id="g12920"
           transform="translate(17.4078,39.8762)"><path
             d="m 0,0 c 0,-0.547 -0.444,-0.991 -0.991,-0.991 -0.547,0 -0.991,0.444 -0.991,0.991 0,0.547 0.444,0.991 0.991,0.991 C -0.444,0.991 0,0.547 0,0"
             style="fill:#404040;fill-opacity:1;fill-rule:nonzero;stroke:none"
             id="path12922"
             inkscape:connector-curvature="0" /></g><g
           id="g12924"
           transform="translate(23.3536,39.8762)"><path
             d="m 0,0 c 0,-0.547 -0.444,-0.991 -0.991,-0.991 -0.547,0 -0.991,0.444 -0.991,0.991 0,0.547 0.444,0.991 0.991,0.991 C -0.444,0.991 0,0.547 0,0"
             style="fill:#404040;fill-opacity:1;fill-rule:nonzero;stroke:none"
             id="path12926"
             inkscape:connector-curvature="0" /></g><g
           id="g12928"
           transform="translate(20.3807,39.8762)"><path
             d="m 0,0 c 0,-0.547 -0.444,-0.991 -0.991,-0.991 -0.547,0 -0.991,0.444 -0.991,0.991 0,0.547 0.444,0.991 0.991,0.991 C -0.444,0.991 0,0.547 0,0"
             style="fill:#404040;fill-opacity:1;fill-rule:nonzero;stroke:none"
             id="path12930"
             inkscape:connector-curvature="0" /></g><g
           id="g12932"
           transform="translate(26.3265,39.8762)"><path
             d="m 0,0 c 0,-0.547 -0.444,-0.991 -0.991,-0.991 -0.547,0 -0.991,0.444 -0.991,0.991 0,0.547 0.444,0.991 0.991,0.991 C -0.444,0.991 0,0.547 0,0"
             style="fill:#404040;fill-opacity:1;fill-rule:nonzero;stroke:none"
             id="path12934"
             inkscape:connector-curvature="0" /></g></g></g></g></svg>