<?xml version="1.0" encoding="UTF-8" standalone="no"?>
<!-- Created with Inkscape (http://www.inkscape.org/) -->

<svg
   xmlns:dc="http://purl.org/dc/elements/1.1/"
   xmlns:cc="http://creativecommons.org/ns#"
   xmlns:rdf="http://www.w3.org/1999/02/22-rdf-syntax-ns#"
   xmlns:svg="http://www.w3.org/2000/svg"
   xmlns="http://www.w3.org/2000/svg"
   xmlns:sodipodi="http://sodipodi.sourceforge.net/DTD/sodipodi-0.dtd"
   xmlns:inkscape="http://www.inkscape.org/namespaces/inkscape"
   id="svg5926"
   version="1.1"
   inkscape:version="0.48.5 r10040"
   width="256"
   height="256"
   xml:space="preserve"
   sodipodi:docname="zip.svg"
   inkscape:export-filename="/Users/margetts/Desktop/BAXY RetroActive/A_Inkscape_PNG/zip.png"
   inkscape:export-xdpi="90"
   inkscape:export-ydpi="90"><metadata
     id="metadata5932"><rdf:RDF><cc:Work
         rdf:about=""><dc:format>image/svg+xml</dc:format><dc:type
           rdf:resource="http://purl.org/dc/dcmitype/StillImage" /><dc:title></dc:title></cc:Work></rdf:RDF></metadata><defs
     id="defs5930"><clipPath
       clipPathUnits="userSpaceOnUse"
       id="clipPath5940"><path
         d="M 0,128 128,128 128,0 0,0 0,128 z"
         id="path5942"
         inkscape:connector-curvature="0" /></clipPath></defs><sodipodi:namedview
     pagecolor="#ffffff"
     bordercolor="#666666"
     borderopacity="1"
     objecttolerance="10"
     gridtolerance="10"
     guidetolerance="10"
     inkscape:pageopacity="0"
     inkscape:pageshadow="2"
     inkscape:window-width="1162"
     inkscape:window-height="925"
     id="namedview5928"
     showgrid="false"
     inkscape:zoom="1.475"
     inkscape:cx="-113.55932"
     inkscape:cy="80"
     inkscape:window-x="0"
     inkscape:window-y="0"
     inkscape:window-maximized="0"
     inkscape:current-layer="g5934" /><g
     id="g5934"
     inkscape:groupmode="layer"
     inkscape:label="zip"
     transform="matrix(1.25,0,0,-1.25,0,256)"><g
       id="g5936"
       transform="matrix(1.6,0,0,1.6,-0.68832,0)"><g
         id="g5938"
         clip-path="url(#clipPath5940)"><g
           id="g5944"
           transform="translate(79.1437,128)"><path
             d="m 0,0 -1.06,0 -54.614,0 c -5.176,0 -9.386,-4.211 -9.386,-9.387 l 0,-109.226 c 0,-5.176 4.21,-9.387 9.386,-9.387 l 81.92,0 c 5.176,0 9.387,4.211 9.387,9.387 l 0,81.92 0,1.06 -0.75,0.75 L 0.75,-0.75 0,0 z"
             style="fill:#ffffff;fill-opacity:1;fill-rule:nonzero;stroke:none"
             id="path5946"
             inkscape:connector-curvature="0" /></g><g
           id="g5948"
           transform="translate(78.0833,125.44)"><path
             d="m 0,0 -54.613,0 c -3.772,0 -6.827,-3.055 -6.827,-6.827 l 0,-109.226 c 0,-3.772 3.055,-6.827 6.827,-6.827 l 81.92,0 c 3.771,0 6.826,3.055 6.826,6.827 l 0,81.92 L 0,0 z"
             style="fill:#e6e6e6;fill-opacity:1;fill-rule:nonzero;stroke:none"
             id="path5950"
             inkscape:connector-curvature="0" /></g><g
           id="g5952"
           transform="translate(74.1484,115.94)"><path
             d="m 0,0 28.568,-28.568 0,-75.312 -76.573,0 0,103.88 L 0,0 z"
             style="fill:#808080;fill-opacity:1;fill-rule:nonzero;stroke:none"
             id="path5954"
             inkscape:connector-curvature="0" /></g><g
           id="g5956"
           transform="translate(26,115.8531)"><path
             d="m 0,0 c 0,0 31.726,-13.958 39.311,-53.189 0,0 0.834,17.574 19.126,36.686 C 63.702,-11.002 46.596,0 46.596,0 L 0,0 z"
             style="fill:#3a6cb4;fill-opacity:1;fill-rule:nonzero;stroke:none"
             id="path5958"
             inkscape:connector-curvature="0" /></g><g
           id="g5960"
           transform="translate(67.0221,77.1786)"><path
             d="m 0,0 c -0.293,0.027 -0.792,-0.597 -0.929,-1.005 -0.065,-0.193 0.453,-0.659 0.797,-0.857 0.284,-0.163 0.749,-0.026 1.048,-0.178 0.767,-0.388 1.486,-0.862 2.37,-1.389 0.345,1.014 0.571,1.677 0.823,2.415 -0.386,0.175 -0.556,0.288 -0.742,0.33 C 2.249,-0.428 1.135,-0.106 0,0"
             style="fill:#cccccc;fill-opacity:1;fill-rule:nonzero;stroke:none"
             id="path5962"
             inkscape:connector-curvature="0" /></g><g
           id="g5964"
           transform="translate(72.8507,88.5282)"><path
             d="M 0,0 C -0.362,0.13 -0.812,0.489 -1.045,0.384 -1.374,0.236 -1.701,-0.239 -1.72,-0.59 c -0.012,-0.233 0.499,-0.513 0.804,-0.736 0.255,-0.186 0.592,-0.278 0.821,-0.485 0.624,-0.563 1.21,-1.165 1.941,-1.878 0.588,0.935 0.963,1.532 1.427,2.269 C 2.54,-1.051 1.915,-0.709 1.265,-0.419 0.863,-0.239 0.418,-0.15 0,0"
             style="fill:#cccccc;fill-opacity:1;fill-rule:nonzero;stroke:none"
             id="path5966"
             inkscape:connector-curvature="0" /></g><g
           id="g5968"
           transform="translate(70.6897,84.6352)"><path
             d="M 0,0 C -0.343,0.076 -0.883,0.292 -1,0.165 -1.293,-0.157 -1.483,-0.63 -1.525,-1.059 -1.539,-1.2 -0.974,-1.403 -0.663,-1.56 -0.35,-1.718 -0.001,-1.821 0.291,-2.007 0.98,-2.446 1.643,-2.919 2.442,-3.464 2.877,-2.517 3.169,-1.881 3.534,-1.087 2.735,-0.806 2.063,-0.552 1.378,-0.336 0.928,-0.195 0.462,-0.102 0,0"
             style="fill:#cccccc;fill-opacity:1;fill-rule:nonzero;stroke:none"
             id="path5970"
             inkscape:connector-curvature="0" /></g><g
           id="g5972"
           transform="translate(69.0471,80.8064)"><path
             d="m 0,0 c -0.369,0.089 -0.905,0.294 -1.092,0.14 -0.279,-0.229 -0.469,-0.757 -0.4,-1.105 0.046,-0.234 0.593,-0.394 0.933,-0.553 0.282,-0.133 0.619,-0.171 0.879,-0.33 0.703,-0.43 1.379,-0.901 2.239,-1.472 0.369,0.982 0.627,1.668 0.99,2.632 C 2.572,-0.554 1.785,-0.467 1.008,-0.33 0.663,-0.269 0.343,-0.083 0,0"
             style="fill:#cccccc;fill-opacity:1;fill-rule:nonzero;stroke:none"
             id="path5974"
             inkscape:connector-curvature="0" /></g><g
           id="g5976"
           transform="translate(46.8897,103.6059)"><path
             d="m 0,0 c 0.21,0.284 0.441,0.881 0.311,1.006 -0.33,0.32 -1.035,0.745 -1.272,0.611 -0.936,-0.528 -1.743,-1.263 -2.611,-1.905 -0.237,-0.176 -0.519,-0.297 -0.908,-0.514 0.759,-0.776 1.284,-1.312 2.039,-2.083 0.568,0.813 1.002,1.503 1.513,2.136 C -0.687,-0.448 -0.226,-0.306 0,0"
             style="fill:#cccccc;fill-opacity:1;fill-rule:nonzero;stroke:none"
             id="path5978"
             inkscape:connector-curvature="0" /></g><g
           id="g5980"
           transform="translate(32.0134,115.0927)"><path
             d="m 0,0 c -0.229,-0.266 -0.401,-0.579 -0.644,-0.83 -0.54,-0.559 -1.108,-1.092 -1.782,-1.75 0.855,-0.534 1.468,-0.917 2.421,-1.512 0.33,0.923 0.586,1.71 0.898,2.476 0.113,0.279 0.389,0.494 0.538,0.765 0.177,0.323 0.505,0.78 0.391,0.989 C 1.648,0.454 1.154,0.766 0.788,0.775 0.531,0.781 0.248,0.288 0,0"
             style="fill:#cccccc;fill-opacity:1;fill-rule:nonzero;stroke:none"
             id="path5982"
             inkscape:connector-curvature="0" /></g><g
           id="g5984"
           transform="translate(43.585,106.579)"><path
             d="M 0,0 C 0.227,0.256 0.623,0.675 0.543,0.82 0.335,1.201 -0.052,1.548 -0.455,1.742 -0.591,1.808 -0.979,1.359 -1.27,1.172 -1.712,0.888 -2.184,0.646 -2.618,0.352 c -0.525,-0.357 -1.023,-0.75 -1.649,-1.213 0.873,-0.789 1.406,-1.27 2.166,-1.957 0.46,0.737 0.862,1.437 1.324,2.098 C -0.581,-0.44 -0.233,-0.262 0,0"
             style="fill:#cccccc;fill-opacity:1;fill-rule:nonzero;stroke:none"
             id="path5986"
             inkscape:connector-curvature="0" /></g><g
           id="g5988"
           transform="translate(61.9487,77.9031)"><path
             d="M 0,0 C 0.344,0.198 0.861,0.663 0.797,0.857 0.66,1.264 0.161,1.889 -0.132,1.862 -1.267,1.756 -2.381,1.434 -3.499,1.178 -3.686,1.135 -3.855,1.023 -4.241,0.848 c 0.252,-0.739 0.477,-1.402 0.823,-2.415 0.884,0.527 1.603,1.001 2.369,1.389 0.3,0.152 0.765,0.015 1.049,0.178"
             style="fill:#cccccc;fill-opacity:1;fill-rule:nonzero;stroke:none"
             id="path5990"
             inkscape:connector-curvature="0" /></g><g
           id="g5992"
           transform="translate(54.6595,93.1995)"><path
             d="M 0,0 C 0.305,0.223 0.816,0.502 0.803,0.736 0.784,1.087 0.458,1.561 0.129,1.71 -0.104,1.815 -0.554,1.455 -0.916,1.326 -1.334,1.176 -1.779,1.086 -2.181,0.907 c -0.65,-0.29 -1.275,-0.632 -2.008,-1.001 0.464,-0.738 0.839,-1.334 1.427,-2.269 0.731,0.712 1.317,1.314 1.941,1.878 C -0.592,-0.279 -0.255,-0.186 0,0"
             style="fill:#cccccc;fill-opacity:1;fill-rule:nonzero;stroke:none"
             id="path5994"
             inkscape:connector-curvature="0" /></g><g
           id="g5996"
           transform="translate(52.2857,96.7178)"><path
             d="M 0,0 C 0.299,0.233 0.855,0.572 0.808,0.726 0.683,1.13 0.344,1.528 -0.022,1.777 -0.148,1.863 -0.599,1.492 -0.912,1.349 -1.31,1.167 -1.731,1.029 -2.119,0.829 -2.754,0.503 -3.37,0.144 -4.161,-0.294 c 0.592,-0.8 1.015,-1.372 1.633,-2.207 0.662,0.749 1.183,1.372 1.746,1.96 C -0.569,-0.319 -0.25,-0.194 0,0"
             style="fill:#cccccc;fill-opacity:1;fill-rule:nonzero;stroke:none"
             id="path5998"
             inkscape:connector-curvature="0" /></g><g
           id="g6000"
           transform="translate(49.4312,100.1356)"><path
             d="M 0,0 C 0.309,0.282 0.926,0.635 0.874,0.822 0.768,1.209 0.361,1.618 -0.031,1.792 -0.206,1.87 -0.63,1.378 -0.967,1.189 -1.303,1.001 -1.691,0.898 -2.022,0.705 -2.638,0.345 -3.23,-0.053 -3.977,-0.528 c 0.584,-0.702 1.06,-1.274 1.753,-2.108 0.62,0.785 1.117,1.431 1.634,2.063 0.172,0.21 0.387,0.388 0.59,0.573"
             style="fill:#cccccc;fill-opacity:1;fill-rule:nonzero;stroke:none"
             id="path6002"
             inkscape:connector-curvature="0" /></g><g
           id="g6004"
           transform="translate(58.8122,85.6618)"><path
             d="M 0,0 C 0.31,0.157 0.876,0.36 0.862,0.5 0.82,0.93 0.629,1.403 0.336,1.724 0.219,1.852 -0.32,1.636 -0.663,1.56 -1.125,1.458 -1.592,1.365 -2.041,1.223 -2.727,1.007 -3.399,0.753 -4.197,0.473 c 0.365,-0.795 0.657,-1.431 1.092,-2.377 0.798,0.544 1.462,1.018 2.15,1.456 C -0.662,-0.261 -0.314,-0.159 0,0"
             style="fill:#cccccc;fill-opacity:1;fill-rule:nonzero;stroke:none"
             id="path6006"
             inkscape:connector-curvature="0" /></g><g
           id="g6008"
           transform="translate(57.1305,89.0725)"><path
             d="M 0,0 C 0.31,0.157 0.876,0.36 0.862,0.5 0.82,0.93 0.629,1.403 0.336,1.724 0.219,1.852 -0.32,1.636 -0.663,1.56 -1.125,1.458 -1.592,1.365 -2.041,1.223 -2.727,1.007 -3.399,0.753 -4.197,0.473 c 0.365,-0.795 0.657,-1.431 1.092,-2.377 0.798,0.544 1.462,1.018 2.15,1.456 C -0.662,-0.261 -0.314,-0.159 0,0"
             style="fill:#cccccc;fill-opacity:1;fill-rule:nonzero;stroke:none"
             id="path6010"
             inkscape:connector-curvature="0" /></g><g
           id="g6012"
           transform="translate(60.3499,81.8742)"><path
             d="M 0,0 C 0.34,0.16 0.887,0.319 0.934,0.554 1.002,0.901 0.812,1.429 0.534,1.658 0.347,1.812 -0.19,1.607 -0.559,1.518 -0.902,1.436 -1.221,1.249 -1.566,1.189 -2.344,1.052 -3.13,0.965 -4.107,0.831 c 0.362,-0.965 0.62,-1.651 0.989,-2.632 0.861,0.57 1.536,1.042 2.239,1.472 C -0.619,-0.171 -0.282,-0.132 0,0"
             style="fill:#cccccc;fill-opacity:1;fill-rule:nonzero;stroke:none"
             id="path6014"
             inkscape:connector-curvature="0" /></g><g
           id="g6016"
           transform="translate(40.1771,109.4343)"><path
             d="M 0,0 C 0.216,0.306 0.628,0.704 0.548,0.931 0.431,1.268 -0.015,1.644 -0.378,1.708 -0.634,1.752 -0.986,1.31 -1.291,1.08 -1.633,0.821 -1.975,0.56 -2.309,0.291 c -0.555,-0.444 -1.103,-0.896 -1.797,-1.462 0.808,-0.664 1.357,-1.116 2.178,-1.791 0.471,0.79 0.862,1.476 1.285,2.145 C -0.46,-0.527 -0.199,-0.282 0,0"
             style="fill:#cccccc;fill-opacity:1;fill-rule:nonzero;stroke:none"
             id="path6018"
             inkscape:connector-curvature="0" /></g><g
           id="g6020"
           transform="translate(36.8545,111.9223)"><path
             d="M 0,0 C 0.194,0.311 0.549,0.745 0.449,0.958 0.295,1.283 -0.172,1.617 -0.539,1.654 -0.78,1.679 -1.086,1.195 -1.349,0.926 -1.597,0.674 -1.81,0.388 -2.07,0.149 c -0.577,-0.53 -1.174,-1.04 -1.883,-1.664 0.84,-0.584 1.462,-1.017 2.369,-1.648 0.387,0.94 0.669,1.692 1.008,2.419 C -0.448,-0.469 -0.165,-0.264 0,0"
             style="fill:#cccccc;fill-opacity:1;fill-rule:nonzero;stroke:none"
             id="path6022"
             inkscape:connector-curvature="0" /></g><g
           id="g6024"
           transform="translate(58.9324,75.2026)"><path
             d="m 0,0 c 0.098,-0.709 0.758,-1.87 0.623,-2.092 0.072,-0.107 0.144,-0.214 0.215,-0.321 0.658,0.297 1.309,0.61 1.977,0.884 0.33,0.136 0.699,0.181 1.036,0.306 0.359,0.132 0.924,0.247 0.995,0.482 C 4.949,-0.403 4.802,0.151 4.54,0.394 4.358,0.562 0.718,0.148 0,0"
             style="fill:#cccccc;fill-opacity:1;fill-rule:nonzero;stroke:none"
             id="path6026"
             inkscape:connector-curvature="0" /></g><g
           id="g6028"
           transform="translate(91.3284,85.3667)"><path
             d="m 0,0 -13.667,0 c -3.772,0 -6.827,3.055 -6.827,6.827 l 0,13.653 0,13.653 L 13.64,0 0,0 z"
             style="fill:#ffffff;fill-opacity:1;fill-rule:nonzero;stroke:none"
             id="path6030"
             inkscape:connector-curvature="0" /></g><g
           id="g6032"
           transform="translate(66.7131,68.5)"><path
             d="m 0,0 -2.66,0 0,-4.8 -2.681,0 0,-2.4 2.681,0 0,-1.471 -2.681,0 0,-2.401 2.681,0 0,-1.471 -2.681,0 0,-2.401 2.681,0 0,-1.471 -2.681,0 0,-2.401 2.681,0 0,-1.471 -2.681,0 0,-2.401 2.681,0 0,-1.471 -2.681,0 0,-2.401 2.681,0 0,-1.471 -2.681,0 0,-2.401 2.681,0 0,-1.471 -2.681,0 0,-2.401 2.681,0 0,-1.471 -2.681,0 0,-2.401 2.681,0 0,-1.471 -2.681,0 0,-2.401 2.681,0 0,-1.471 -2.681,0 0,-2.4 2.681,0 0,-1.472 -2.681,0 0,-2.4 2.681,0 0,-1.471 -2.681,0 0,-2.401 2.681,0 0,-2.914 2.66,0 0,0.966 2.263,0 0,2.401 -2.263,0 0,1.471 2.263,0 0,2.401 -2.263,0 0,1.471 2.263,0 0,2.401 -2.263,0 0,1.471 2.263,0 0,2.401 -2.263,0 0,1.471 2.263,0 0,2.401 -2.263,0 0,1.471 2.263,0 0,2.401 -2.263,0 0,1.471 2.263,0 0,2.401 -2.263,0 0,1.471 2.263,0 0,2.401 -2.263,0 0,1.471 2.263,0 0,2.401 -2.263,0 0,1.471 2.263,0 0,2.4 -2.263,0 0,1.471 2.263,0 0,2.401 -2.263,0 0,1.471 2.263,0 0,2.401 -2.263,0 0,1.471 2.263,0 0,2.401 -2.263,0 0,1.471 2.263,0 0,2.401 L 0,-2.875 0,0 z"
             style="fill:#cccccc;fill-opacity:1;fill-rule:nonzero;stroke:none"
             id="path6034"
             inkscape:connector-curvature="0" /></g><g
           id="g6036"
           transform="translate(62.5326,58.33)"><path
             d="m 0,0 -5.727,9.92 c -1.155,2 0.289,4.5 2.598,4.5 l 11.454,0 c 2.31,0 3.753,-2.5 2.598,-4.5 L 5.196,0 C 4.041,-2 1.155,-2 0,0"
             style="fill:#ffffff;fill-opacity:1;fill-rule:nonzero;stroke:none"
             id="path6038"
             inkscape:connector-curvature="0" /></g><g
           id="g6040"
           transform="translate(60.851,65.9639)"><path
             d="m 0,0 2.674,0 0,-0.841 -4.012,0 0,0.841 2.715,3.065 -2.715,0 0,0.848 4.012,0 0,-0.848 L 0,0 z"
             style="fill:#808080;fill-opacity:1;fill-rule:nonzero;stroke:none"
             id="path6042"
             inkscape:connector-curvature="0" /></g><path
           d="m 64.492,69.877 1.046,0 0,-4.754 -1.046,0 0,4.754 z"
           style="fill:#808080;fill-opacity:1;fill-rule:nonzero;stroke:none"
           id="path6044"
           inkscape:connector-curvature="0" /><g
           id="g6046"
           transform="translate(68.6822,69.0293)"><path
             d="m 0,0 -1.158,0 0,-1.403 1.218,0 c 0.242,0 0.452,0.047 0.629,0.142 0.176,0.095 0.265,0.279 0.265,0.552 C 0.962,-0.404 0.868,-0.211 0.672,-0.13 0.476,-0.047 0.252,-0.007 0,-0.007 L 0,0 z M 0.014,0.847 C 0.017,0.843 0.023,0.841 0.03,0.841 l 0.016,0 0.252,0 C 0.382,0.841 0.466,0.836 0.55,0.827 0.7,0.818 0.848,0.797 0.997,0.764 1.144,0.731 1.282,0.677 1.41,0.602 1.644,0.465 1.811,0.278 1.91,0.04 2.009,-0.199 2.061,-0.448 2.065,-0.709 2.07,-0.947 2.029,-1.177 1.943,-1.397 1.857,-1.617 1.715,-1.801 1.516,-1.947 1.348,-2.066 1.166,-2.144 0.97,-2.181 0.773,-2.219 0.574,-2.242 0.371,-2.251 l -0.159,0 -0.159,0 -1.211,0.007 0,-1.662 -1,0 0,4.753 2.172,0 z"
             style="fill:#808080;fill-opacity:1;fill-rule:nonzero;stroke:none"
             id="path6048"
             inkscape:connector-curvature="0" /></g></g></g></g></svg>