<svg xmlns="http://www.w3.org/2000/svg" xml:space="preserve" viewBox="0 0 64 64"><style>.st0{fill:#fff}</style><g id="kbd"><path d="M60.97 20.69H3.03c-.57 0-1.03.46-1.03 1.03v20.55c0 .57.46 1.03 1.03 1.03h57.93c.57 0 1.03-.46 1.03-1.03V21.72c.01-.57-.45-1.03-1.02-1.03m-10.81 7.6H52v1.84h-1.84zm0 2.62H52v1.84h-1.84zm0 2.61H52v1.84h-1.84zm0 2.61H52v1.84h-1.84zM33.82 24.19h1.84v1.84h-1.84zm-2.73 0h1.84v1.84h-1.84zm3.21 8.56h-1.84v-1.84h1.84zm.48.77v1.84h-1.84v-1.84zm-3.69-5.23h1.84v1.84h-1.84zm-3.62 5.23h1.84v1.84h-1.84zm-.48-.77v-1.84h1.84v1.84zm2.06 3.38h1.84v1.84h-1.84zm1.15-.77v-1.84h1.84v1.84zm-.47-2.61v-1.84h1.84v1.84zm-1.37-4.46h1.84v1.84h-1.84zm-2.73-4.1h1.84v1.84h-1.84zm0 4.1h1.84v1.84h-1.84zm-11.82 5.23h1.84v1.84h-1.84zm-.48-.77v-1.84h1.84v1.84zm2.06 3.38h1.84v1.84h-1.84zm1.15-.77v-1.84h1.84v1.84zm-.48-2.61v-1.84h1.84v1.84zm2.06 3.38h1.84v1.84h-1.84zm1.15-.77v-1.84h1.84v1.84zm-.47-2.61v-1.84h1.84v1.84zm2.05 3.38h1.84v1.84h-1.84zm1.16-.77v-1.84h1.84v1.84zm-.48-2.61v-1.84h1.84v1.84zm2.06 3.38h1.84v1.84h-1.84zm1.15-.77v-1.84h1.84v1.84zm-.48-2.61v-1.84h1.84v1.84zm-1.36-8.56h1.84v1.84H22.9zm0 4.1h1.84v1.84H22.9zm-2.74-4.1H22v1.84h-1.84zm0 4.1H22v1.84h-1.84zm-2.73 0h1.84v1.84h-1.84zm-2.73-4.1h1.84v1.84H14.7zm0 4.1h1.84v1.84H14.7zm-2.73-4.1h1.84v1.84h-1.84zm0 4.1h1.84v1.84h-1.84zm-.89 5.23h1.84v1.84h-1.84zm-.48-.77v-1.84h1.84v1.84zm-1.37-8.56h1.84v1.84H9.23zm0 4.1h1.84v1.84H9.23zm-.89 5.23h1.84v1.84H8.34zm-.47-.77v-1.84h1.84v1.84zM6.5 28.29h1.84v1.84H6.5zm-2.73-4.1h1.84v1.84H3.77zm0 4.1h1.84v1.84H3.77zm0 2.62h3.21v1.84H3.77zm0 2.61h3.68v1.84H3.77zm0 2.61H6.3v1.84H3.77zm3.21 4.46H3.77v-1.84h3.21zm2.05-2.61H7.19v-1.84h1.84zm.89-1.85h1.84v1.84H9.92zm3.89 4.46H10.6v-1.84h3.21zm.69-2.61h-1.84v-1.84h1.84zm12.97 2.61H14.7v-1.84h12.77zm.69-2.61h-1.84v-1.84h1.84zm3.41 2.61h-3.21v-1.84h3.21zm6.83 0h-3.21v-1.84h3.21zm0-2.61h-6.62v-1.84h6.62zm0-2.62h-2.73v-2.61h-.48v-1.84h3.21zm0-5.22h-4.57V28.3h4.57zm0-4.1h-1.84V24.2h1.84zm4.08 14.55h-1.84v-1.84h1.84zm0-7.84h-1.84v-1.84h1.84zm0-2.61h-1.84V28.3h1.84zm0-4.1h-1.84V24.2h1.84zm2.74 14.55h-1.84v-1.84h1.84zm0-2.61h-1.84v-1.84h1.84zm0-5.23h-1.84v-1.84h1.84zm0-2.61h-1.84V28.3h1.84zm0-4.1h-1.84V24.2h1.84zm2.73 14.55h-1.84v-1.84h1.84zm0-7.84h-1.84v-1.84h1.84zm0-2.61h-1.84V28.3h1.84zm0-4.1h-1.84V24.2h1.84zm6.78 14.55h-4.57v-1.84h4.57zm0-2.61h-1.84v-1.84h1.84zm0-2.62h-1.84v-1.84h1.84zm0-2.61h-1.84v-1.84h1.84zm0-2.61h-1.84V28.3h1.84zm2.74 10.45h-1.84v-1.84h1.84zm0-2.61h-1.84v-1.84h1.84zm0-2.62h-1.84v-1.84h1.84zm0-2.61h-1.84v-1.84h1.84zm0-2.61h-1.84V28.3h1.84zm2.73 10.45h-1.84v-4.46h1.84zm0-5.23h-1.84V30.9h1.84zm0-5.22h-1.84V28.3h1.84zm0-4.1H50.16V24.2H60.2z" class="st0"/><path d="M59.95 24.44h-9.54v1.34h9.54zm-8.38.89H51v-.3h.58v.3zm3.09 0h-.58v-.3h.58zm3.09 0h-.58v-.3h.58z" class="st0"/></g><g id="usb"><path d="M39.5 12.43c0 1.6-.5 2.5-.7 2.6h-9.72c-.1 0-.3-.2-.3-.5v-4c0-.3.1-.5.3-.5h9.72c.2.1.7.7.7 2.4m-14.2-2.8h-4.5v5.6h4.5s-.1-1.6-.1-2.8.1-2.8.1-2.8m-2.7 2.2v-1h.8v1zm.8 1.3v1h-.8v-1z" class="st0"/><path d="M26.6 17.03h14.6c1 0 2-1.1 2-4.6 0-3.4-1-4.4-2-4.4H26.6s-.4 2.2-.4 4.5.4 4.5.4 4.5m15.6-6.4c.1 0 .3.1.3.3 0 .3.1.9.1 1.6s-.1 1.3-.1 1.6q0 .3-.3.3h-.3q-.3 0-.3-.3v-3.1q0-.3.3-.3h.3zM29 9.33h9.9c.5 0 1.2 1.1 1.2 3.1 0 1.9-.6 3.4-1.2 3.4H29c-.5 0-.9-.5-.9-1.1v-4.2c0-.7.4-1.2.9-1.2" class="st0"/></g></svg>