<?xml version="1.0" encoding="utf-8"?>
<svg version="1.1" xmlns="http://www.w3.org/2000/svg" xmlns:xlink="http://www.w3.org/1999/xlink" x="0px" y="0px" viewBox="0 0 64 64" style="enable-background:new 0 0 64 64;" xml:space="preserve">
<style type="text/css">
	.st0{fill:#FFFFFF;}
</style>
<path class="st0" d="M57.6,5h-3.87v25.73c0,1.33-1.07,2.4-2.27,2.4H12.13c-1.2,0-2.27-1.07-2.27-2.4V5.13H6.13c-0.67,0-1.2,0.53-1.2,1.2V53L10,59h8V42.73c0-1.47,0.93-2.67,2.27-2.67h24.8c1.2,0,2,1.2,2,2.67V59h10.8c0.67,0,1.2-0.53,1.2-1.2V6.2C58.93,5.67,58.27,5,57.6,5z M57.87,12.07h-2.93v-2h2.93V12.07z"/>
<path class="st0" d="M12.13,32.07H51.6c0.67,0,1.2-0.67,1.2-1.33V5.13H10.93v25.6C10.93,31.4,11.47,32.07,12.13,32.07z"/>
<rect x="21.87" y="44.07" class="st0" width="7.07" height="12"/>
<path class="st0" d="M44.67,41H20.13c-0.67,0-1.2,0.67-1.2,1.6V59H46V42.73C45.87,41.8,45.33,41,44.67,41z M29.87,57H20.8V43h9.07C29.87,43,29.87,57,29.87,57z"/>
</svg>
