<?xml version="1.0" encoding="utf-8"?>
<svg version="1.1" xmlns="http://www.w3.org/2000/svg" xmlns:xlink="http://www.w3.org/1999/xlink" x="0px" y="0px" viewBox="0 0 64 64" style="enable-background:new 0 0 64 64;" xml:space="preserve">
<style type="text/css">
	.st0{fill:#FFFFFF;}
</style>
<g id="kbd">
	<path class="st0" d="M60.97,20.69H3.03C2.46,20.69,2,21.15,2,21.72v20.55c0,0.57,0.46,1.03,1.03,1.03h57.93c0.57,0,1.03-0.46,1.03-1.03V21.72C62,21.15,61.54,20.69,60.97,20.69z M50.16,28.29H52v1.84h-1.84V28.29z M50.16,30.91H52v1.84h-1.84V30.91z M50.16,33.52H52v1.84h-1.84V33.52z M50.16,36.13H52v1.84h-1.84V36.13z M33.82,24.19h1.84v1.84h-1.84V24.19z M31.09,24.19h1.84v1.84h-1.84V24.19z M34.3,32.75h-1.84v-1.84h1.84V32.75z M34.78,33.52v1.84h-1.84v-1.84H34.78z M31.09,28.29h1.84v1.84h-1.84V28.29z M27.47,33.52h1.84v1.84h-1.84V33.52z M26.99,32.75v-1.84h1.84v1.84H26.99z M29.05,36.13h1.84v1.84h-1.84V36.13z M30.2,35.36v-1.84h1.84v1.84H30.2z M29.73,32.75v-1.84h1.84v1.84H29.73z M28.36,28.29h1.84v1.84h-1.84V28.29z M25.63,24.19h1.84v1.84h-1.84V24.19z M25.63,28.29h1.84v1.84h-1.84V28.29z M13.81,33.52h1.84v1.84h-1.84V33.52z M13.33,32.75v-1.84h1.84v1.84H13.33z M15.39,36.13h1.84v1.84h-1.84C15.39,37.97,15.39,36.13,15.39,36.13z M16.54,35.36v-1.84h1.84v1.84H16.54z M16.06,32.75v-1.84h1.84v1.84H16.06z M18.12,36.13h1.84v1.84h-1.84V36.13z M19.27,35.36v-1.84h1.84v1.84H19.27z M18.8,32.75v-1.84h1.84v1.84H18.8z M20.85,36.13h1.84v1.84h-1.84V36.13z M22.01,35.36v-1.84h1.84v1.84H22.01z M21.53,32.75v-1.84h1.84v1.84H21.53z M23.59,36.13h1.84v1.84h-1.84V36.13z M24.74,35.36v-1.84h1.84v1.84H24.74z M24.26,32.75v-1.84h1.84v1.84H24.26z M22.9,24.19h1.84v1.84H22.9V24.19z M22.9,28.29h1.84v1.84H22.9V28.29z M20.16,24.19H22v1.84h-1.84V24.19z M20.16,28.29H22v1.84h-1.84V28.29z M17.43,28.29h1.84v1.84h-1.84V28.29z M14.7,24.19h1.84v1.84H14.7V24.19z M14.7,28.29h1.84v1.84H14.7V28.29z M11.97,24.19h1.84v1.84h-1.84V24.19z M11.97,28.29h1.84v1.84h-1.84V28.29z M11.08,33.52h1.84v1.84h-1.84V33.52z M10.6,32.75v-1.84h1.84v1.84H10.6z M9.23,24.19h1.84v1.84H9.23V24.19z M9.23,28.29h1.84v1.84H9.23V28.29z M8.34,33.52h1.84v1.84H8.34V33.52z M7.87,32.75v-1.84h1.84v1.84H7.87z M6.5,28.29h1.84v1.84H6.5V28.29z M3.77,24.19h1.84v1.84H3.77V24.19z M3.77,28.29h1.84v1.84H3.77V28.29z M3.77,30.91h3.21v1.84H3.77V30.91z M3.77,33.52h3.68v1.84H3.77V33.52z M3.77,36.13H6.3v1.84H3.77V36.13z M6.98,40.59H3.77v-1.84h3.21V40.59z M9.03,37.98H7.19v-1.84h1.84V37.98z M9.92,36.13h1.84v1.84H9.92V36.13z M13.81,40.59H10.6v-1.84h3.21V40.59z M14.5,37.98h-1.84v-1.84h1.84V37.98z M27.47,40.59H14.7v-1.84h12.77C27.47,38.75,27.47,40.59,27.47,40.59z M28.16,37.98h-1.84v-1.84h1.84V37.98z M31.57,40.59h-3.21v-1.84h3.21V40.59z M38.4,40.59h-3.21v-1.84h3.21V40.59z M38.4,37.98h-6.62v-1.84h6.62V37.98z M38.4,35.36h-2.73v-2.61h-0.48v-1.84h3.21V35.36z M38.4,30.14h-4.57V28.3h4.57V30.14z M38.4,26.04h-1.84V24.2h1.84V26.04z M42.48,40.59h-1.84v-1.84h1.84V40.59z M42.48,32.75h-1.84v-1.84h1.84V32.75z M42.48,30.14h-1.84V28.3h1.84V30.14z M42.48,26.04h-1.84V24.2h1.84V26.04z M45.22,40.59h-1.84v-1.84h1.84V40.59z M45.22,37.98h-1.84v-1.84h1.84V37.98z M45.22,32.75h-1.84v-1.84h1.84V32.75z M45.22,30.14h-1.84V28.3h1.84V30.14z M45.22,26.04h-1.84V24.2h1.84V26.04z M47.95,40.59h-1.84v-1.84h1.84V40.59z M47.95,32.75h-1.84v-1.84h1.84V32.75z M47.95,30.14h-1.84V28.3h1.84V30.14z M47.95,26.04h-1.84V24.2h1.84V26.04z M54.73,40.59h-4.57v-1.84h4.57V40.59z M54.73,37.98h-1.84v-1.84h1.84V37.98z M54.73,35.36h-1.84v-1.84h1.84V35.36z M54.73,32.75h-1.84v-1.84h1.84V32.75z M54.73,30.14h-1.84V28.3h1.84V30.14z M57.47,40.59h-1.84v-1.84h1.84V40.59z M57.47,37.98h-1.84v-1.84h1.84V37.98z M57.47,35.36h-1.84v-1.84h1.84V35.36z M57.47,32.75h-1.84v-1.84h1.84V32.75z M57.47,30.14h-1.84V28.3h1.84V30.14z M60.2,40.59h-1.84v-4.46h1.84V40.59z M60.2,35.36h-1.84V30.9h1.84V35.36z M60.2,30.14h-1.84V28.3h1.84V30.14z M60.2,26.04H50.16V24.2H60.2V26.04z"/>
	<path class="st0" d="M59.95,24.44h-9.54v1.34h9.54V24.44z M51.57,25.33H51v-0.3h0.58v0.3H51.57z M54.66,25.33h-0.58v-0.3h0.58V25.33z M57.75,25.33h-0.58v-0.3h0.58V25.33z"/>
</g>
<g id="usb">
	<path class="st0" d="M39.5,12.43c0,1.6-0.5,2.5-0.7,2.6h-9.72c-0.1,0-0.3-0.2-0.3-0.5v-4c0-0.3,0.1-0.5,0.3-0.5h9.72C39,10.13,39.5,10.73,39.5,12.43z"/>
	<path class="st0" d="M25.3,9.63h-4.5v5.6h4.5c0,0-0.1-1.6-0.1-2.8C25.2,11.23,25.3,9.63,25.3,9.63z M22.6,11.83v-1h0.8v1H22.6z M23.4,13.13v1h-0.8v-1H23.4z"/>
	<path class="st0" d="M26.6,17.03h14.6c1,0,2-1.1,2-4.6c0-3.4-1-4.4-2-4.4H26.6c0,0-0.4,2.2-0.4,4.5S26.6,17.03,26.6,17.03zM42.2,10.63c0.1,0,0.3,0.1,0.3,0.3c0,0.3,0.1,0.9,0.1,1.6s-0.1,1.3-0.1,1.6c0,0.2-0.1,0.3-0.3,0.3h-0.3c-0.2,0-0.3-0.1-0.3-0.3v-3.1c0-0.2,0.1-0.3,0.3-0.3h0.3V10.63z M29,9.33h9.9c0.5,0,1.2,1.1,1.2,3.1c0,1.9-0.6,3.4-1.2,3.4H29c-0.5,0-0.9-0.5-0.9-1.1v-4.2C28.1,9.83,28.5,9.33,29,9.33z"/>
</g>
</svg>