<svg height="58.666664" viewBox="0 0 61.333332 58.666664" width="61.333332" xmlns="http://www.w3.org/2000/svg" xmlns:xlink="http://www.w3.org/1999/xlink"><clipPath id="a"><path d="m0 64h64v-64h-64z"/></clipPath><g clip-path="url(#a)" transform="matrix(1.3333333 0 0 -1.3333333 -12 71.999998)"><path d="m0 0c0-.553-.447-1-1-1h-34c-.553 0-1 .447-1 1v4c0 .553.447 1 1 1h34c.553 0 1-.447 1-1zm-14-13c0-2.209-1.791-4-4-4s-4 1.791-4 4 1.791 4 4 4 4-1.791 4-4m16 11c0-.553-.447-1-1-1h-38c-.553 0-1 .447-1 1v8c0 .553.447 1 1 1h38c.553 0 1-.447 1-1zm-12-15c-.553 0-1 .447-1 1s.447 1 1 1 1-.447 1-1-.447-1-1-1m-8-2c-3.313 0-6 2.687-6 6s2.687 6 6 6 6-2.687 6-6-2.687-6-6-6m2-11c0-1.104-.896-2-2-2s-2 .896-2 2v6c0 1.104.896 2 2 2s2-.896 2-2zm21 29v9c0 .553-.447 1-1 1h-44c-.553 0-1-.447-1-1v-42c0-.553.447-1 1-1h16c0 .553.447 1 1 1s1-.447 1-1h8c0 .553.447 1 1 1s1-.447 1-1h16c.553 0 1 .447 1 1v31h-1v2z" fill="#fff" transform="translate(50 45)"/></g></svg>