<svg xmlns="http://www.w3.org/2000/svg" width="72" height="54.667"><clipPath id="a"><path d="M0 64h64V0H0z"/></clipPath><g fill="#fff"><path d="M69.333 53.333H2.667V28h66.666zM70.76 0H1.24L0 22.667v32h72v-32z"/><path d="M22.667 32H20v-2.667h2.667zm-9.334 4h-2.666v-2.667h2.666zM12 44H9.333v-2.667H12zm4 4h-4v-2.667h4zm0-4h-2.667v-2.667H16zm4 0h-2.667v-2.667H20zm0 4h-2.667v-2.667H20zm4 0h-2.667v-2.667H24zm4 0h-2.667v-2.667H28zm21.333 4H22.667v-2.667h26.666zM32 48h-2.667v-2.667H32zm4 0h-2.667v-2.667H36zm4 0h-2.667v-2.667H40zm4 0h-2.667v-2.667H44zm4 0h-2.667v-2.667H48zm4 0h-2.667v-2.667H52zm5.333 0h-4v-2.667h4zm4 0h-2.666v-2.667h2.666zm1.334 0H64v-2.667h-1.333zM24 44h-2.667v-2.667H24zm4 0h-2.667v-2.667H28zm4 0h-2.667v-2.667H32zm4 0h-2.667v-2.667H36zm4 0h-2.667v-2.667H40zm4 0h-2.667v-2.667H44zm4 0h-2.667v-2.667H48zm4 0h-2.667v-2.667H52zm4 0h-2.667v-2.667H56zm8 0h-6.667v-2.667H64zm-49.333-4h-4v-2.667h4zm2.666-4h-2.666v-2.667h2.666zm1.334 4H16v-2.667h2.667zm4 0H20v-2.667h2.667zm4 0H24v-2.667h2.667zm4 0H28v-2.667h2.667zm4 0H32v-2.667h2.667zm4 0H36v-2.667h2.667zm4 0H40v-2.667h2.667zm4 0H44v-2.667h2.667zm4 0H48v-2.667h2.667zm4 0H52v-2.667h2.667zm4 0H56v-2.667h2.667zm4 0H60v-2.667h2.667zm4 0H64v-2.667h2.667zm-45.334-4h-2.666v-2.667h2.666zm4 0h-2.666v-2.667h2.666zm4 0h-2.666v-2.667h2.666zm4 0h-2.666v-2.667h2.666zm4 0h-2.666v-2.667h2.666zm4 0h-2.666v-2.667h2.666zm4 0h-2.666v-2.667h2.666zm4 0h-2.666v-2.667h2.666zm4 0h-2.666v-2.667h2.666zm4 0h-2.666v-2.667h2.666zm4 0h-2.666v-2.667h2.666zm4 0h-2.666v-2.667h2.666zm-38.666-4H24v-2.667h2.667zm4 0H28v-2.667h2.667zm4 0H32v-2.667h2.667zm4 0H36v-2.667h2.667zm4 0H40v-2.667h2.667zm4 0H44v-2.667h2.667zm4 0H48v-2.667h2.667zm4 0H52v-2.667h2.667z"/><g clip-path="url(#a)" transform="matrix(1.33333 0 0 -1.33333 -6.667 70.667)"><path d="M20 14.5a.5.5 0 1 0-1 0 .5.5 0 0 0 1 0m-3 0a.5.5 0 1 0-1 0 .5.5 0 0 0 1 0m-3 0a.5.5 0 1 0-1 0 .5.5 0 0 0 1 0"/></g></g></svg>