<svg height="56.000797" viewBox="0 0 72 56.000797" width="72" xmlns="http://www.w3.org/2000/svg" xmlns:xlink="http://www.w3.org/1999/xlink"><clipPath id="a"><path d="m0 64h64v-64h-64z"/></clipPath><g clip-path="url(#a)" fill="#fff" transform="matrix(1.3333333 0 0 -1.3333333 -6.6668 70.666798)"><path d="m0 0v-3.692-.923-.178c1.668.959 2.793 2.748 2.793 4.793 0 2.538-1.733 4.676-4.085 5.329l1.073-3.547c.063-.208.074-.427.037-.637.04-.07.072-.145.099-.222h.083v-.461z" transform="translate(53.4138 24.8462)"/><path d="m0 0c0-2.486 1.66-4.594 3.939-5.293l-.215.107v.571.923 3.692.462.461h.083c.027.077.059.152.099.222-.037.21-.026.429.037.637l1.129 3.732c-2.84-.258-5.072-2.632-5.072-5.514" transform="translate(7.7931 24.8462)"/><path d="m0 0-2.358-2c-.081-.068-.18-.106-.282-.106h-40.364c-.102 0-.201.038-.282.106l-2.358 2c-.345.292-.155.894.282.894h45.08c.437 0 .627-.602.282-.894m-47.96 1.971c0 .255.208.462.466.462h1.862c.257 0 .465-.207.465-.462s-.208-.461-.465-.461h-1.862c-.258 0-.466.206-.466.461m50.401 28.747c-.07 1.222-1.09 2.176-2.324 2.176h-5.587l1.209-11.393c.014-.124.01-.249-.011-.37.055-.093.099-.193.131-.3l1.131-3.739c3.03-.555 5.326-3.186 5.326-6.351 0-3.492-2.794-6.335-6.286-6.456l-3.539-1.755-.197-.097h-.22-28.862-.219l-.197.097-3.597 1.784c-.212-.021-.425-.035-.642-.035-3.599 0-6.517 2.893-6.517 6.462 0 3.492 2.795 6.336 6.288 6.455l1.1 3.635c.032.107.076.207.131.3-.021.121-.025.246-.011.37l1.209 11.393h-6.519c-1.234 0-2.253-.954-2.323-2.176l-1.737-30.131 5.304-3.506c.181-.119.426-.187.681-.187h42.006c.276 0 .545.081.775.233l5.234 3.46z" transform="translate(54.8221 14.1055)"/><path d="m0 0c.125 1.202 1.124 2.114 2.315 2.114h26.533c1.191 0 2.19-.912 2.315-2.114l1.545-14.886h-34.253z" transform="translate(16.8841 50.8861)"/><path d="m0 0 2.514 8.1c.059.19.24.321.446.321h.17 33.415.17c.206 0 .387-.131.446-.321l2.514-8.1c.09-.289-.134-.579-.446-.579h-38.783c-.312 0-.536.29-.446.579" transform="translate(12.6281 26.5793)"/><path d="m0 0-1.862-.933c-.193-.097-.409-.148-.625-.148h-23.547c-.216 0-.432.051-.625.148l-1.862.933c-.582.292-.884.939-.734 1.574.149.635.708 1.078 1.359 1.078h27.271c.651 0 1.21-.443 1.36-1.078.149-.635-.153-1.282-.735-1.574m-33.812 5.452v-3.733-.933l5.586-2.8h28.862l5.586 2.8v.933 3.733z" transform="translate(46.2604 19.5478)"/><path d="m52 13h-40v1h40z"/></g></svg>