<svg xmlns="http://www.w3.org/2000/svg" width="72" height="48"><clipPath id="a"><path d="M0 64h64V0H0z"/></clipPath><g fill="#fff" clip-path="url(#a)" transform="matrix(1.33333 0 0 -1.33333 -6.667 66.667)"><path d="M39.5 34a2.5 2.5 0 1 1 0-5 2.5 2.5 0 0 1 0 5m-22 9a2.5 2.5 0 1 1 0-5 2.5 2.5 0 0 1 0 5M23 27.276V30h-2.724A4.48 4.48 0 0 1 23 27.276"/><path d="M50 38a2 2 0 1 0-.001 3.999A2 2 0 0 0 50 38m-4-4a2 2 0 1 0-.001 3.999A2 2 0 0 0 46 34m-4 4a2 2 0 1 0-.001 3.999A2 2 0 0 0 42 38m-2.5-10c-1.93 0-3.5 1.57-3.5 3.5s1.57 3.5 3.5 3.5 3.5-1.57 3.5-3.5-1.57-3.5-3.5-3.5M32 41a2 2 0 1 0-.001 3.999A2 2 0 0 0 32 41m0-4c-.552 0-1 .444-1 .991 0 .548.448.992 1 .992s1-.444 1-.992A.996.996 0 0 0 32 37m-7.5-11c-3.033 0-5.5 2.467-5.5 5.5s2.467 5.5 5.5 5.5 5.5-2.467 5.5-5.5-2.467-5.5-5.5-5.5m-7 11c-1.93 0-3.5 1.57-3.5 3.5s1.57 3.5 3.5 3.5 3.5-1.57 3.5-3.5-1.57-3.5-3.5-3.5m9.5 7a1 1 0 1 0 0-2 1 1 0 0 0 0 2m10 0a1 1 0 1 0 0-2 1 1 0 0 0 0 2m9 2a2 2 0 1 0 .001-3.999A2 2 0 0 0 46 46m12.069-17.263s-1.862 11.052-4.655 15.658c-.117.192-.241.364-.363.541C52.31 46.622 50.389 50 46.897 50h-2.794l-.931-1H20.828l-.931 1h-2.794c-3.492 0-5.413-3.378-6.154-5.064-.122-.177-.246-.349-.363-.541-2.793-4.606-4.655-15.658-4.655-15.658S5 24.132 5 20.447 6.862 14 8.724 14h1.911a1.87 1.87 0 0 1 1.441.676l6.703 8.104a3.74 3.74 0 0 0 2.882 1.352h20.678a3.74 3.74 0 0 0 2.882-1.352l6.703-8.104A1.87 1.87 0 0 1 53.365 14h1.911C57.138 14 59 16.763 59 20.447s-.931 8.29-.931 8.29"/><path d="M26 35.725V33h2.724A4.48 4.48 0 0 1 26 35.726M20.276 33H23v2.724A4.48 4.48 0 0 1 20.276 33M26 27.276A4.48 4.48 0 0 1 28.724 30H26z"/></g></svg>