<?xml version="1.0" encoding="utf-8"?>
<svg version="1.1" xmlns="http://www.w3.org/2000/svg" xmlns:xlink="http://www.w3.org/1999/xlink" x="0px" y="0px" viewBox="0 0 64 64" style="enable-background:new 0 0 64 64;" xml:space="preserve">
<style type="text/css">
	.st0{fill:#FFFFFF;}
</style>
<path class="st0" d="M47.48,4.5H16.52c-0.55,0-1,0.45-1,1V57c0,1.38,1.12,2.5,2.5,2.5h27.97c1.38,0,2.5-1.12,2.5-2.5V5.5C48.48,4.95,48.04,4.5,47.48,4.5z M25.48,41.89c0,0.43-0.35,0.78-0.78,0.78h-1.56v1.56c0,0.43-0.35,0.78-0.78,0.78H21.6c-0.43,0-0.78-0.35-0.78-0.78v-1.56h-1.56c-0.43,0-0.78-0.35-0.78-0.78v-0.78c0-0.43,0.35-0.78,0.78-0.78h1.56v-1.56c0-0.43,0.35-0.78,0.78-0.78h0.78c0.43,0,0.78,0.35,0.78,0.78v1.56h1.56c0.43,0,0.78,0.35,0.78,0.78v0.78H25.48z M28.98,54.69c-0.52,0-0.95-0.42-0.95-0.95s0.42-0.95,0.95-0.95s0.95,0.42,0.95,0.95S29.51,54.69,28.98,54.69z M32,54.69c-0.52,0-0.95-0.42-0.95-0.95s0.42-0.95,0.95-0.95c0.53,0,0.95,0.42,0.95,0.95S32.52,54.69,32,54.69z M35.02,54.69c-0.52,0-0.95-0.42-0.95-0.95s0.42-0.95,0.95-0.95s0.95,0.42,0.95,0.95S35.54,54.69,35.02,54.69z M37.16,43.06c-0.86,0-1.56-0.7-1.56-1.56s0.7-1.56,1.56-1.56s1.56,0.7,1.56,1.56S38.02,43.06,37.16,43.06z M40.54,46.44c-0.86,0-1.56-0.7-1.56-1.56s0.7-1.56,1.56-1.56s1.56,0.7,1.56,1.56C42.1,45.74,41.4,46.44,40.54,46.44z M40.54,39.68c-0.86,0-1.56-0.7-1.56-1.56s0.7-1.56,1.56-1.56s1.56,0.7,1.56,1.56C42.1,38.98,41.4,39.68,40.54,39.68z M43.92,43.06c-0.86,0-1.56-0.7-1.56-1.56s0.7-1.56,1.56-1.56s1.56,0.7,1.56,1.56S44.78,43.06,43.92,43.06z M47.25,33.93h-30.5V6.43c0-0.41,0.33-0.74,0.74-0.74h29.02c0.41,0,0.74,0.33,0.74,0.74C47.25,6.43,47.25,33.93,47.25,33.93z"/>
</svg>