<svg xmlns="http://www.w3.org/2000/svg" width="48" height="72"><clipPath id="a"><path d="M0 64h64V0H0z"/></clipPath><g fill="#fff" clip-path="url(#a)" transform="matrix(1.33333 0 0 -1.33333 -18.667 78.667)"><path d="M22.5 24h-5a.5.5 0 0 0-.5.5v2a.5.5 0 0 0 .5.5h5a.5.5 0 0 0 .5-.5v-2a.5.5 0 0 0-.5-.5m8 0h-5a.5.5 0 0 0-.5.5v2a.5.5 0 0 0 .5.5h5a.5.5 0 0 0 .5-.5v-2a.5.5 0 0 0-.5-.5m8 0h-5a.5.5 0 0 0-.5.5v2a.5.5 0 0 0 .5.5h5a.5.5 0 0 0 .5-.5v-2a.5.5 0 0 0-.5-.5m8 0h-5a.5.5 0 0 0-.5.5v2a.5.5 0 0 0 .5.5h5a.5.5 0 0 0 .5-.5v-2a.5.5 0 0 0-.5-.5m-24-7h-5a.5.5 0 0 0-.5.5v2a.5.5 0 0 0 .5.5h5a.5.5 0 0 0 .5-.5v-2a.5.5 0 0 0-.5-.5m8 0h-5a.5.5 0 0 0-.5.5v2a.5.5 0 0 0 .5.5h5a.5.5 0 0 0 .5-.5v-2a.5.5 0 0 0-.5-.5m8 0h-5a.5.5 0 0 0-.5.5v2a.5.5 0 0 0 .5.5h5a.5.5 0 0 0 .5-.5v-2a.5.5 0 0 0-.5-.5m8 0h-5a.5.5 0 0 0-.5.5v2a.5.5 0 0 0 .5.5h5a.5.5 0 0 0 .5-.5v-2a.5.5 0 0 0-.5-.5m-24-7h-5a.5.5 0 0 0-.5.5v2a.5.5 0 0 0 .5.5h5a.5.5 0 0 0 .5-.5v-2a.5.5 0 0 0-.5-.5m8 0h-5a.5.5 0 0 0-.5.5v2a.5.5 0 0 0 .5.5h5a.5.5 0 0 0 .5-.5v-2a.5.5 0 0 0-.5-.5m8 0h-5a.5.5 0 0 0-.5.5v2a.5.5 0 0 0 .5.5h5a.5.5 0 0 0 .5-.5v-2a.5.5 0 0 0-.5-.5m8 0h-5a.5.5 0 0 0-.5.5v2a.5.5 0 0 0 .5.5h5a.5.5 0 0 0 .5-.5v-2a.5.5 0 0 0-.5-.5M32 39c3.86 0 7 3.14 7 7s-3.14 7-7 7-7-3.14-7-7 3.14-7 7-7"/><path d="M48 8H16v22h32zM32 54c4.411 0 8-3.589 8-8s-3.589-8-8-8-8 3.589-8 8 3.589 8 8 8M14 5h36v51H14zm24 52v1.5a.5.5 0 0 1-.598.49l-4.681-.924a4 4 0 0 0-1.442 0l-4.681.924A.5.5 0 0 1 26 58.5V57z"/></g></svg>