<svg xmlns="http://www.w3.org/2000/svg" xml:space="preserve" viewBox="0 0 64 64"><path d="M46.99 5H17.01A2 2 0 0 0 15 6.99v50.03c0 1.09.9 1.99 2.01 1.99h29.98c1.11-.01 2.01-.9 2.01-2V6.99A2 2 0 0 0 46.99 5m-1.58 1.81a1.23 1.23 0 1 1 0 2.46 1.23 1.23 0 1 1 0-2.46M21.44 9.74h21.85v10.74c0 .78-.62 1.4-1.39 1.4H22.83c-.77 0-1.39-.63-1.39-1.4zm-2.85-2.93a1.23 1.23 0 1 1 0 2.46 1.23 1.23 0 1 1 0-2.46m0 50.38a1.23 1.23 0 1 1 0-2.46 1.23 1.23 0 1 1 0 2.46m1.56-16.13H17.9c-.51 0-.93-.43-.93-.96v-3.24c0-.53.42-.96.93-.96h2.24c.29 0 .57.1.8.28.65.54 1.99 1.7 1.99 2.29 0 .62-1.34 1.77-1.99 2.3-.22.19-.5.29-.79.29m1.56-6.71V32.1c0-.51.43-.93.96-.93h3.24c.53 0 .96.42.96.93v2.24c0 .29-.1.57-.28.8-.54.65-1.7 1.99-2.29 1.99-.62 0-1.77-1.34-2.3-1.99-.19-.23-.29-.5-.29-.79m5.15 10.52c0 .51-.43.93-.96.93h-3.24c-.53 0-.96-.42-.96-.93v-2.24c0-.29.1-.57.28-.8.54-.65 1.7-1.99 2.29-1.99.62 0 1.77 1.34 2.3 1.99.18.22.28.5.28.79v2.25zm4.74-4.77c0 .53-.42.96-.93.96h-2.24c-.29 0-.57-.1-.8-.28-.65-.54-1.99-1.7-1.99-2.29 0-.62 1.34-1.77 1.99-2.3.22-.18.5-.28.79-.28h2.25c.51 0 .93.43.93.96zm-2.68-13.56v-.99h6.88v.99zm9.24 16.87a2.58 2.58 0 1 1 2.58-2.58 2.567 2.567 0 0 1-2.58 2.58m1.07-18.44H25.5s-.82-.54-1.91-1.12a9.7 9.7 0 0 0-2.16-.82v-.54h2c1.66 0 3.42.36 3.42.36v1.27h.76v-1.63h9.49v1.63h.76v-1.27s1.75-.36 3.42-.36h2v.54s-1.07.24-2.16.82a22 22 0 0 0-1.89 1.12m6.18 32.22a1.23 1.23 0 1 1 0-2.46 1.23 1.23 0 1 1 0 2.46m-1.28-16.36a2.58 2.58 0 1 1 0-5.16 2.58 2.58 0 0 1 0 5.16" style="fill:#fff"/></svg>