<?xml version="1.0" encoding="UTF-8" standalone="no"?>
<svg
   xmlns:dc="http://purl.org/dc/elements/1.1/"
   xmlns:cc="http://creativecommons.org/ns#"
   xmlns:rdf="http://www.w3.org/1999/02/22-rdf-syntax-ns#"
   xmlns:svg="http://www.w3.org/2000/svg"
   xmlns="http://www.w3.org/2000/svg"
   viewBox="0 0 60 72"
   height="72"
   width="60"
   xml:space="preserve"
   id="svg2"
   version="1.1"><metadata
     id="metadata8"><rdf:RDF><cc:Work
         rdf:about=""><dc:format>image/svg+xml</dc:format><dc:type
           rdf:resource="http://purl.org/dc/dcmitype/StillImage" /></cc:Work></rdf:RDF></metadata><defs
     id="defs6" /><g
     transform="matrix(1.3333333,0,0,-1.3333333,-12,78.666665)"
     id="g10"><path
       id="path12"
       style="fill:#f2f2f2;fill-opacity:1;fill-rule:nonzero;stroke:none"
       d="m 13,14 h 37 v 5 H 13 Z m 0,40 h 37 v 5 H 13 Z M 24,25 H 40 V 45 H 24 Z M 51,5 h 3 V 59 H 51 Z M 9,5 h 3 V 59 H 9 Z m 32,2 h 2 v 6 h -2 z m -3,0 h 2 v 6 h -2 z m -3,0 h 2 v 6 h -2 z m -3,0 h 2 v 6 h -2 z m -3,0 h 2 v 6 h -2 z m -3,0 h 2 v 6 h -2 z m -3,0 h 2 v 6 h -2 z m -3,0 h 2 v 6 h -2 z m 25,6 h 5 V 5 H 46 45 18 17 13 v 8 h 5 V 6 h 27 z" /></g></svg>