<svg xmlns="http://www.w3.org/2000/svg" width="72" height="72"><clipPath id="a"><path d="M0 64h64V0H0z"/></clipPath><g fill="#fff" clip-path="url(#a)" transform="matrix(1.33333 0 0 -1.33333 -6.667 78.667)"><path d="M32 13C11.18 13 7 16.204 7 32s4.245 19 25 19 25-3.196 25-19c0-15.802-4.177-19-25-19m0 46C9.585 59 5 54.447 5 32S9.514 5 32 5c22.489 0 27 4.544 27 27 0 22.458-4.585 27-27 27"/><path d="M32 47h-1v3h1zm0-4h-1v3h1zm0-4h-1v3h1zm0-4h-1v3h1zm0-4h-1v3h1zm0-4h-1v3h1zm0-4h-1v3h1zm0-4h-1v3h1zm0-4h-1v3h1zM11 36h-1v5h1zm43-15h-1v5h1zM24 36h-1v1h1z"/></g></svg>