<svg enable-background="new 0 0 64 64" viewBox="0 0 64 64" xmlns="http://www.w3.org/2000/svg"><g fill="#fff"><path d="m3 9.019v26l7-5.019h1l1 4.015h40l1-4.015h1l7 5.019v-26z"/><path d="m3 35.019v18h58v-18zm42 2h2v2h-2zm-3 0h2v2h-2zm3 3v2h-2v-2zm-6-3h2v2h-2zm3 3v2h-2v-2zm-2 3v2h-2v-2zm-1-1h-2v-2h2zm-3 4h2v2h-2zm-1-1v-2h2v2zm1-8h2v2h-2zm0 5h-2v-2h2zm-3 4h2v2h-2zm-1-1v-2h2v2zm1-8h2v2h-2zm0 5h-2v-2h2zm-3 4h2v2h-2zm-1-1v-2h2v2zm1-8h2v2h-2zm0 5h-2v-2h2zm-3 4h2v2h-2zm-1-1v-2h2v2zm1-8h2v2h-2zm0 5h-2v-2h2zm-3 4h2v2h-2zm-1-1v-2h2v2zm1-8h2v2h-2zm0 5h-2v-2h2zm-3 4h2v2h-2zm-1-1v-2h2v2zm1-8h2v2h-2zm0 5h-2v-2h2zm-3 4h2v2h-2zm-1-1v-2h2v2zm1-8h2v2h-2zm0 5h-2v-2h2zm-3-5h2v2h-2zm-3 0h2v2h-2zm3 3v2h-2v-2zm-2 3v2h-3v-2zm-4-6h2v2h-2zm0 3h3v2h-3zm5 8h-4v-2h4zm0-5h2v2h-2zm1 3h2v2h-2zm25 5h-24v-2h24zm1-3h-2v-2h2zm0-5h2v2h-2zm3 5h-2v-2h2zm2 0h-1v-2h1zm0-3h-2v-2h2zm3-3h-3v-2h3zm0-3h-1v-2h1zm6 12h-4v-2h4zm0-3h-4v-2h4zm0-3h-4v-2h4zm0-3h-4v-2h4zm0-3h-4v-2h4z"/></g></svg>