<?xml version="1.0" encoding="UTF-8" standalone="no"?>
<svg
   xmlns:dc="http://purl.org/dc/elements/1.1/"
   xmlns:cc="http://creativecommons.org/ns#"
   xmlns:rdf="http://www.w3.org/1999/02/22-rdf-syntax-ns#"
   xmlns:svg="http://www.w3.org/2000/svg"
   xmlns="http://www.w3.org/2000/svg"
   xmlns:sodipodi="http://sodipodi.sourceforge.net/DTD/sodipodi-0.dtd"
   xmlns:inkscape="http://www.inkscape.org/namespaces/inkscape"
   viewBox="0 0 256 256"
   height="256"
   width="256"
   xml:space="preserve"
   id="svg2"
   version="1.1"
   sodipodi:docname="Atari - XEGS-content.svg"
   inkscape:version="0.92.3 (2405546, 2018-03-11)"><sodipodi:namedview
     pagecolor="#808080"
     bordercolor="#666666"
     borderopacity="1"
     objecttolerance="10"
     gridtolerance="10"
     guidetolerance="10"
     inkscape:pageopacity="0"
     inkscape:pageshadow="2"
     inkscape:window-width="1024"
     inkscape:window-height="705"
     id="namedview7"
     showgrid="false"
     inkscape:zoom="0.81944445"
     inkscape:cx="94.572969"
     inkscape:cy="19.936505"
     inkscape:window-x="-8"
     inkscape:window-y="-8"
     inkscape:window-maximized="1"
     inkscape:current-layer="svg2" /><metadata
     id="metadata8"><rdf:RDF><cc:Work
         rdf:about=""><dc:format>image/svg+xml</dc:format><dc:type
           rdf:resource="http://purl.org/dc/dcmitype/StillImage" /><dc:title></dc:title></cc:Work></rdf:RDF></metadata><defs
     id="defs6" /><g
     transform="matrix(3.9999999,0,0,-3.9999999,2.0000031,256)"
     id="g10"><path
       id="path12"
       style="fill:#ffffff;fill-opacity:1;fill-rule:nonzero;stroke:none"
       d="m 13,14 h 37 v 5 H 13 Z m 0,40 h 37 v 5 H 13 Z M 24,25 H 40 V 45 H 24 Z M 51,5 h 3 V 59 H 51 Z M 9,5 h 3 V 59 H 9 Z m 32,2 h 2 v 6 h -2 z m -3,0 h 2 v 6 h -2 z m -3,0 h 2 v 6 h -2 z m -3,0 h 2 v 6 h -2 z m -3,0 h 2 v 6 h -2 z m -3,0 h 2 v 6 h -2 z m -3,0 h 2 v 6 h -2 z m -3,0 h 2 v 6 h -2 z m 25,6 h 5 V 5 H 46 45 18 17 13 v 8 h 5 V 6 h 27 z"
       inkscape:connector-curvature="0" /></g></svg>