<svg xmlns="http://www.w3.org/2000/svg" xml:space="preserve" width="64" height="64" viewBox="0 128 64 64"><path fill="#fff" d="M50 136H14c-3 0-4 1-4 4v40c0 3 1 4 4 4h36c3 0 4-1 4-4v-40c0-3-1-4-4-4m-18 43c-9.39 0-17-7.61-17-17 0-1.771.272-3.478.777-5.081.923-2.934.473-5.752-2.441-9.145C12.472 146.768 12 145.43 12 144a6 6 0 0 1 6-6c2.596 0 4.336 1.877 5.643 3.953 1.524 2.422 3.381 3.587 5.919 3.221q1.194-.173 2.438-.174c9.39 0 17 7.61 17 17s-7.61 17-17 17m-10-35a4 4 0 1 0-8 0 4 4 0 0 0 8 0m10 4c-7.732 0-14 6.268-14 14s6.268 14 14 14 14-6.268 14-14-6.268-14-14-14m0 26c-6.628 0-12-5.372-12-12s5.372-12 12-12 12 5.372 12 12-5.372 12-12 12m-.012-17.263c-.624.003-4.239 2.101-4.55 2.642-.312.542-.304 4.722.01 5.261.314.541 3.937 2.623 4.562 2.623h.002c.625-.002 4.241-2.102 4.55-2.642.312-.54.304-4.722-.011-5.263-.313-.537-3.936-2.621-4.563-2.621"/></svg>