<svg xmlns="http://www.w3.org/2000/svg" xml:space="preserve" width="64" height="64" viewBox="0 128 64 64"><path fill="#fff" d="M53 138H11c-1 0-1 0-1 1v42c0 1 0 1 1 1h42c1 0 1 0 1-1v-42c0-1 0-1-1-1m-40 42.5a.5.5 0 0 1-1 0v-4a.5.5 0 0 1 1 0zm2 0a.5.5 0 0 1-1 0v-4a.5.5 0 0 1 1 0zm2 0a.5.5 0 0 1-1 0v-4a.5.5 0 0 1 1 0zm2-1a.5.5 0 0 1-1 0v-3a.5.5 0 0 1 1 0zm2 0a.5.5 0 0 1-1 0v-3a.5.5 0 0 1 1 0zm2 0a.5.5 0 0 1-1 0v-3a.5.5 0 0 1 1 0zm2 0a.5.5 0 0 1-1 0v-3a.5.5 0 0 1 1 0zm2 0a.5.5 0 0 1-1 0v-3a.5.5 0 0 1 1 0zm2 0a.5.5 0 0 1-1 0v-3a.5.5 0 0 1 1 0zm2 0a.5.5 0 0 1-1 0v-3a.5.5 0 0 1 1 0zm2 0a.5.5 0 0 1-1 0v-3a.5.5 0 0 1 1 0zm2 0a.5.5 0 0 1-1 0v-3a.5.5 0 0 1 1 0zm2 0a.5.5 0 0 1-1 0v-3a.5.5 0 0 1 1 0zm2 0a.5.5 0 0 1-1 0v-3a.5.5 0 0 1 1 0zm2 0a.5.5 0 0 1-1 0v-3a.5.5 0 0 1 1 0zm2 0a.5.5 0 0 1-1 0v-3a.5.5 0 0 1 1 0zm2 0a.5.5 0 0 1-1 0v-3a.5.5 0 0 1 1 0zm2 0a.5.5 0 0 1-1 0v-3a.5.5 0 0 1 1 0zm2 0a.5.5 0 0 1-1 0v-3a.5.5 0 0 1 1 0zm2 0a.5.5 0 0 1-1 0v-3a.5.5 0 0 1 1 0zm2 1a.5.5 0 0 1-1 0v-4a.5.5 0 0 1 1 0zm-2-8.5a1 1 0 0 1-1 1H14a1 1 0 0 1-1-1v-22a1 1 0 0 1 1-1h36a1 1 0 0 1 1 1zm2 2a1 1 0 0 1-1 1H12a1 1 0 0 1-1-1v-26a1 1 0 0 1 1-1h40a1 1 0 0 1 1 1z"/></svg>