<?xml version="1.0" encoding="UTF-8" standalone="no"?>
<!-- Generator: Adobe Illustrator 16.0.0, SVG Export Plug-In . SVG Version: 6.00 Build 0)  -->

<svg
   xmlns:dc="http://purl.org/dc/elements/1.1/"
   xmlns:cc="http://creativecommons.org/ns#"
   xmlns:rdf="http://www.w3.org/1999/02/22-rdf-syntax-ns#"
   xmlns:svg="http://www.w3.org/2000/svg"
   xmlns="http://www.w3.org/2000/svg"
   xmlns:sodipodi="http://sodipodi.sourceforge.net/DTD/sodipodi-0.dtd"
   xmlns:inkscape="http://www.inkscape.org/namespaces/inkscape"
   version="1.1"
   id="svg2"
   inkscape:export-filename="/home/kivutar/Bureau/lakka-menu/reload.png"
   inkscape:export-xdpi="90"
   inkscape:version="0.92.3 (2405546, 2018-03-11)"
   inkscape:export-ydpi="90"
   sodipodi:docname="Bandai - WonderSwan-content.svg"
   x="0px"
   y="0px"
   width="256"
   height="256"
   viewBox="0 128 256 256"
   enable-background="new 0 128 64 64"
   xml:space="preserve"><metadata
   id="metadata8"><rdf:RDF><cc:Work
       rdf:about=""><dc:format>image/svg+xml</dc:format><dc:type
         rdf:resource="http://purl.org/dc/dcmitype/StillImage" /><dc:title></dc:title></cc:Work></rdf:RDF></metadata><defs
   id="defs6" /><sodipodi:namedview
   pagecolor="#808080"
   bordercolor="#666666"
   borderopacity="1"
   objecttolerance="10"
   gridtolerance="10"
   guidetolerance="10"
   inkscape:pageopacity="0"
   inkscape:pageshadow="2"
   inkscape:window-width="1024"
   inkscape:window-height="705"
   id="namedview4"
   showgrid="false"
   inkscape:zoom="3.6875"
   inkscape:cx="32"
   inkscape:cy="32"
   inkscape:window-x="-8"
   inkscape:window-y="-8"
   inkscape:window-maximized="1"
   inkscape:current-layer="svg2" />
<path
   id="Wonderswan"
   d="M 228,188 H 28 c -2.212,0 -4,1.788 -4,4 v 88 c 0,2.212 1.788,4 4,4 v 12 c 0,2.212 1.788,4 4,4 v 9.108 c -2.384,1.388 -4,3.936 -4,6.892 0,4.416 3.584,8 8,8 h 184 c 4.416,0 8,-3.584 8,-8 0,-2.952 -1.616,-5.504 -4,-6.892 V 300 c 2.212,0 4,-1.788 4,-4 v -12 c 2.212,0 4,-1.788 4,-4 v -88 c 0,-2.212 -1.788,-4 -4,-4 z m -152,8 h 104 c 2.212,0 4,1.788 4,4 0,2.212 -1.788,4 -4,4 H 76 c -2.212,0 -4,-1.788 -4,-4 0,-2.212 1.788,-4 4,-4 z m 144,100 h -8 v 20 h -4 v -20 h -4 v 16 h -4 v -16 h -4 v 16 h -4 v -16 h -4 v 16 h -4 v -16 h -4 v 16 h -4 v -16 h -4 v 16 h -4 v -16 h -4 v 16 h -4 v -16 h -4 v 16 h -4 v -16 h -4 v 16 h -4 v -16 h -4 v 20 h -4 v -20 h -4 v 20 h -4 v -20 h -4 v 16 h -4 v -16 h -4 v 16 h -4 v -16 h -4 v 16 h -4 v -16 h -4 v 16 h -4 v -16 h -4 v 16 h -4 v -16 h -4 v 16 h -4 v -16 h -4 v 16 h -4 v -16 h -4 v 16 h -4 v -16 h -4 v 16 h -4 v -16 h -4 v 16 h -4 v -16 h -4 v 20 h -4 v -20 h -4 v -4 h 184 z m 4,-16 c 0,2.212 -1.788,4 -4,4 H 36 c -2.212,0 -4,-1.788 -4,-4 v -64 c 0,-2.212 1.788,-4 4,-4 h 184 c 2.212,0 4,1.788 4,4 z M 212,220 H 44 c -2.212,0 -4,1.788 -4,4 v 48 c 0,2.212 1.788,4 4,4 h 168 c 2.212,0 4,-1.788 4,-4 v -48 c 0,-2.212 -1.788,-4 -4,-4 z"
   inkscape:connector-curvature="0"
   style="fill:#ffffff;stroke-width:1" />
</svg>