<svg enable-background="new 0 0 64 64" viewBox="0 0 64 64" xmlns="http://www.w3.org/2000/svg"><g fill="#fff"><path d="m32 24.5c2.209 0 4-.448 4-1v-2h-8v2c0 .552 1.791 1 4 1z"/><path d="m59.416 25.033c-.237-2.014-1.944-3.533-3.973-3.533h-18.443v2c0 1.74-3.133 2-5 2s-5-.26-5-2v-2h-18.443c-2.028 0-3.736 1.518-3.973 3.533l-1.584 13.467c0 2.485 12.984 4 29 4s29-1.515 29-4zm-47.416 7.967c-1.105 0-2-.672-2-1.5s.895-1.5 2-1.5 2 .672 2 1.5-.895 1.5-2 1.5zm4 4.5c-.828 0-1.5-.895-1.5-2s.672-2 1.5-2 1.5.895 1.5 2-.672 2-1.5 2zm0-8c-.828 0-1.5-.895-1.5-2s.672-2 1.5-2 1.5.895 1.5 2-.672 2-1.5 2zm4 3.5c-1.105 0-2-.672-2-1.5s.895-1.5 2-1.5 2 .672 2 1.5-.895 1.5-2 1.5zm23.5 1.5c-1.381 0-2.5-1.119-2.5-2.5s1.119-2.5 2.5-2.5 2.5 1.119 2.5 2.5-1.119 2.5-2.5 2.5zm9-1c-1.381 0-2.5-1.119-2.5-2.5s1.119-2.5 2.5-2.5 2.5 1.119 2.5 2.5-1.119 2.5-2.5 2.5z"/></g></svg>