<?xml version="1.0" encoding="UTF-8" standalone="no"?>
<!-- Generator: Adobe Illustrator 22.1.0, SVG Export Plug-In . SVG Version: 6.00 Build 0)  -->

<svg
   xmlns:dc="http://purl.org/dc/elements/1.1/"
   xmlns:cc="http://creativecommons.org/ns#"
   xmlns:rdf="http://www.w3.org/1999/02/22-rdf-syntax-ns#"
   xmlns:svg="http://www.w3.org/2000/svg"
   xmlns="http://www.w3.org/2000/svg"
   xmlns:sodipodi="http://sodipodi.sourceforge.net/DTD/sodipodi-0.dtd"
   xmlns:inkscape="http://www.inkscape.org/namespaces/inkscape"
   version="1.1"
   id="svg4618"
   inkscape:export-filename="/Users/margetts/Documents/GitHub/Working/monochrome/Cannonball-content.png"
   inkscape:export-xdpi="360"
   inkscape:export-ydpi="360"
   inkscape:version="0.92.4 (5da689c313, 2019-01-14)"
   sodipodi:docname="Cannonball-content.svg"
   x="0px"
   y="0px"
   viewBox="0 0 64 64"
   style="enable-background:new 0 0 64 64;"
   xml:space="preserve"><metadata
   id="metadata551"><rdf:RDF><cc:Work
       rdf:about=""><dc:format>image/svg+xml</dc:format><dc:type
         rdf:resource="http://purl.org/dc/dcmitype/StillImage" /></cc:Work></rdf:RDF></metadata><defs
   id="defs549" />
<style
   type="text/css"
   id="style503">
	.st0{fill:#FFFFFF;}
</style>
<sodipodi:namedview
   bordercolor="#666666"
   borderopacity="1"
   gridtolerance="10"
   guidetolerance="10"
   id="namedview4620"
   inkscape:current-layer="svg4618"
   inkscape:cx="-35"
   inkscape:cy="40"
   inkscape:pageopacity="0"
   inkscape:pageshadow="2"
   inkscape:window-height="1005"
   inkscape:window-maximized="1"
   inkscape:window-width="1676"
   inkscape:window-x="4"
   inkscape:window-y="1"
   inkscape:zoom="3.8"
   objecttolerance="10"
   pagecolor="#808080"
   showgrid="false">
	</sodipodi:namedview>
<polygon
   class="st0"
   points="44,31 43,31 41,31 40,31 24,31 23,31 22,31 21,31 20,31 20,32 44,32 "
   id="polygon506" />
<polygon
   class="st0"
   points="13,42 13,43 20,43 20,44 21,44 21,43 21,41 13,41 "
   id="polygon508" />
<rect
   x="24"
   y="42"
   class="st0"
   width="1"
   height="1"
   id="rect510" />
<rect
   x="22"
   y="42"
   class="st0"
   width="1"
   height="1"
   id="rect512" />
<rect
   x="39"
   y="42"
   class="st0"
   width="1"
   height="1"
   id="rect514" />
<rect
   x="43"
   y="24"
   class="st0"
   width="1"
   height="2"
   id="rect516" />
<polygon
   class="st0"
   points="21,25 21,24 20,24 20,26 21,26 "
   id="polygon518" />
<polygon
   class="st0"
   points="23,28 24,28 24,29 40,29 40,28 41,28 41,27 23,27 "
   id="polygon520" />
<rect
   x="20"
   y="35"
   class="st0"
   width="3"
   height="2"
   id="rect522" />
<polygon
   class="st0"
   points="49,33 46,33 44,33 20,33 18,33 14,33 13,33 13,34 15,34 49,34 51,34 51,33 50,33 "
   id="polygon524" />
<rect
   x="45"
   y="35"
   class="st0"
   width="4"
   height="2"
   id="rect526" />
<rect
   x="41"
   y="35"
   class="st0"
   width="3"
   height="2"
   id="rect528" />
<path
   class="st0"
   d="M32,9C18.7,9,8,19.7,8,33s10.7,24,24,24s24-10.7,24-24S45.3,9,32,9z M52,42h-1v-1h-8v1v1v1h1v-1h7h1v1v1h-1v1  h-7v-1H20v1h-7v-1h-1v-1v-2v-9v-4h1v-3h2v-1h3v-2h2v-1h-1v-1h-4v-2h4v1h1v1h1v-1v-1h1v-1h20v1h1v1v1h1v-1h1v-1h4v2h-4v1h-1v1h2v2h3  v1h2v3h1v4V42z"
   id="path530" />
<polygon
   class="st0"
   points="50,38 45,38 44,38 31,38 23,38 20,38 19,38 14,38 14,37 13,37 13,39 28,39 28,41 29,41 29,42 35,42   35,41 36,41 36,39 51,39 51,37 50,37 "
   id="polygon532" />
<rect
   x="31"
   y="35"
   class="st0"
   width="2"
   height="2"
   id="rect534" />
<rect
   x="41"
   y="42"
   class="st0"
   width="1"
   height="1"
   id="rect536" />
<rect
   x="15"
   y="35"
   class="st0"
   width="4"
   height="2"
   id="rect538" />
<polygon
   class="st0"
   points="42,26 42,25 40,25 34,25 33,25 33,26 41,26 41,27 43,27 43,26 "
   id="polygon540" />
<g
   id="g546">
	<polygon
   class="st0"
   points="28,25 26,25 22,25 22,26 21,26 21,27 23,27 23,26 31,26 31,25 29,25  "
   id="polygon542" />
	<polygon
   class="st0"
   points="41,20 41,19 33,19 33,20 34,20 34,21 33,21 33,20 31,20 31,21 30,21 30,20 31,20 31,19 23,19 23,20    22,20 22,21 22,23 24,23 24,24 25,24 25,21 26,21 26,20 28,20 28,21 29,21 29,24 30,24 30,23 34,23 35,23 35,21 36,21 36,20 38,20    38,21 39,21 39,23 40,23 42,23 42,20  "
   id="polygon544" />
</g>
</svg>