<svg xmlns="http://www.w3.org/2000/svg" xml:space="preserve" width="64" height="64" viewBox="0 128 64 64"><path d="M32.215 133.247c-22.415 0-27 4.553-27 27s4.514 27 27 27c22.49 0 27-4.544 27-27 0-22.458-4.585-27-27-27m-10.068 9.373h2.58v2.58h25.798v2.58h-5.16v5.159h2.58v5.16h-2.58v2.581h-2.579v2.58h-7.739v2.579h2.578v10.319h-2.578v2.58h5.158v2.58H27.308v-5.16h2.58v-2.58h2.58v-2.579h-2.58v-5.16h2.58v-2.58h-10.32v-2.579h-2.58v-2.581h-2.58v-5.16h-2.58v-5.158h2.58v5.158h2.58V145.2h2.58v-2.581m2.572 7.686v7.736h2.59v-7.736zm15.483.06v7.737h2.59v-7.736z" style="fill:#fff;fill-opacity:1"/></svg>