<svg xmlns="http://www.w3.org/2000/svg" xml:space="preserve" width="64" height="64"><defs><clipPath id="a" clipPathUnits="userSpaceOnUse"><path d="M0 64h64V0H0z"/></clipPath></defs><path d="M5 42h54v1H5z" style="fill:#fff;fill-opacity:1;fill-rule:nonzero;stroke:none" transform="matrix(1 0 0 -1 0 64)"/><g clip-path="url(#a)" transform="matrix(1 0 0 -1 0 64)"><path d="M0 0h-52a1 1 0 0 1-1-1H1a1 1 0 0 1-1 1" style="fill:#fff;fill-opacity:1;fill-rule:nonzero;stroke:none" transform="translate(58 45)"/><path d="M56 35h-4v2h4zm0-3h-4v2h4zm0-3h-4v2h4zm0-3h-4v2h4zm-7 9h-2v2h2zm0-3h-3v2h3zm-1-3h-4v2h4zm0-3h-2v2h2zm-3 0h-2v2h2zm-3 0h-3v2h3zm-4 5h2v-2h-2zm0-5h-2v2h2zm0-3H15v2h23zm-24 8h2v-2h-2zm0-5h-3v2h3zm-4 3H8v2h2zm0-3H8v2h2zm3 3h-2v2h2zm-5 5h4v-2H8zm0 3h2v-2H8zm3 0h2v-2h-2zm4-5h-2v2h2zm-1 5h2v-2h-2zm3 0h2v-2h-2zm3 0h2v-2h-2zm3 0h2v-2h-2zm3 0h2v-2h-2zm3 0h2v-2h-2zm3 0h2v-2h-2zm3-6h2v-2h-2zm-1 3h2v-2h-2zm-1-6h2v-2h-2zm-1 3h2v-2h-2zm-1 3h2v-2h-2zm-1-6h2v-2h-2zm-1 3h2v-2h-2zm-1 3h2v-2h-2zm-1-6h2v-2h-2zm-1 3h2v-2h-2zm-1 3h2v-2h-2zm-1-6h2v-2h-2zm-1 3h2v-2h-2zm-1 3h2v-2h-2zm-1-6h2v-2h-2zm-1 3h2v-2h-2zm-1 3h2v-2h-2zm-1-6h2v-2h-2zm-1 3h2v-2h-2zm0-5h-2v2h2zm-1 8h2v-2h-2zm19 3h2v-2h-2zm4-5h-2v2h2zm-1 5h2v-2h-2zm2-3h2v-2h-2zm1-3h2v-2h-2zm0 6h2v-2h-2zm4-5h-2v2h2zm-1 5h2v-2h-2zM7 22h50v16H7z" style="fill:#fff;fill-opacity:1;fill-rule:nonzero;stroke:none"/><path d="M58 21H6v18h52zM5 41V20a1 1 0 0 1 1-1h52a1 1 0 0 1 1 1v21z" style="fill:#fff;fill-opacity:1;fill-rule:nonzero;stroke:none"/></g></svg>