<svg xmlns="http://www.w3.org/2000/svg" xml:space="preserve" width="64" height="64"><defs><clipPath id="a" clipPathUnits="userSpaceOnUse"><path d="M0 64h64V0H0z"/></clipPath></defs><path d="M0 0v-6h43v2h9v-2h2v6z" style="fill:#fff;fill-opacity:1;fill-rule:nonzero;stroke:none" transform="matrix(1 0 0 -1 5 24.5)"/><path d="M5 40h52.999v1.001H5zm0 2h52.999v1H5zm54 2H5v3h54z" style="fill:#fff;fill-opacity:1;fill-rule:nonzero;stroke:none" transform="matrix(1 0 0 -1 0 63.5)"/><g clip-path="url(#a)" transform="matrix(1 0 0 -1 0 63.5)"><path d="M58 26h-2v2h2zm0-3h-2v2h2zm0-6h-2v5h2zm-3 9h-2v2h2zm0-3h-2v2h2zm0-3h-2v2h2zm0-3h-2v2h2zm-3 9h-2v2h2zm0-3h-2v2h2zm0-3h-2v2h2zm0-3h-2v2h2zm-3 9h-2v2h2zm0-3h-2v2h2zm0-3h-2v2h2zm0-3h-2v2h2zm-3 0h-2v2h2zm-3 3h-2v2h2zm0-3h-2v2h2zm-3 0h-2v2h2zm-4 9h-3v2h3zm0-6h-4v2h2v3h2zm0-3h-2v2h2zm-3 0h-3v2h3zm-4 5h2v-2h-2zm0-5H11v2h18zm-19 8h2v-2h-2zm0-5H6v2h4zm0-3H6v2h4zm-4 8h3v-2H6zm0 3h2v-2H6zm0 3h2v-2H6zm3-3h2v-2H9zm0 3h2v-2H9zm4-11h-2v2h2zm-1 8h2v-2h-2zm0 3h2v-2h-2zm3-8h-2v2h2zm1-3h-2v2h2zm-1 8h2v-2h-2zm0 3h2v-2h-2zm3-8h-2v2h2zm1-3h-2v2h2zm-1 8h2v-2h-2zm0 3h2v-2h-2zm3-8h-2v2h2zm1-3h-2v2h2zm-1 8h2v-2h-2zm0 3h2v-2h-2zm3-8h-2v2h2zm1-3h-2v2h2zm-1 8h2v-2h-2zm0 3h2v-2h-2zm3-8h-2v2h2zm1-3h-2v2h2zm-1 8h2v-2h-2zm3-5h-2v2h2zm-3 8h2v-2h-2zm3-3h2v-2h-2zm3-5h-2v2h2zm-3 8h2v-2h-2zm3 0h2v-2h-2zm5-3h3v-2h-3zm4 0h3v-2h-3zM5 32V17a1 1 0 0 1 1-1h52a1 1 0 0 1 1 1v15z" style="fill:#fff;fill-opacity:1;fill-rule:nonzero;stroke:none"/></g></svg>