<?xml version="1.0" encoding="utf-8"?>
<!-- Generator: Adobe Illustrator 24.1.1, SVG Export Plug-In . SVG Version: 6.00 Build 0)  -->
<svg version="1.1"
	 id="svg2" xmlns:cc="http://creativecommons.org/ns#" xmlns:dc="http://purl.org/dc/elements/1.1/" xmlns:inkscape="http://www.inkscape.org/namespaces/inkscape" xmlns:rdf="http://www.w3.org/1999/02/22-rdf-syntax-ns#" xmlns:sodipodi="http://sodipodi.sourceforge.net/DTD/sodipodi-0.dtd" xmlns:svg="http://www.w3.org/2000/svg"
	 xmlns="http://www.w3.org/2000/svg" xmlns:xlink="http://www.w3.org/1999/xlink" x="0px" y="0px" viewBox="0 0 256 256"
	 style="enable-background:new 0 0 256 256;" xml:space="preserve">
<style type="text/css">
	.st0{fill:#FFFFFF;}
</style>
<sodipodi:namedview  bordercolor="#666666" borderopacity="1.0" id="base" inkscape:current-layer="layer1" inkscape:cx="428.09428" inkscape:cy="401.8446" inkscape:document-units="px" inkscape:pageopacity="0.0" inkscape:pageshadow="2" inkscape:window-height="1057" inkscape:window-maximized="1" inkscape:window-width="1920" inkscape:window-x="-8" inkscape:window-y="-8" inkscape:zoom="0.9899495" pagecolor="#808080" showgrid="false" units="px">
	</sodipodi:namedview>
<g>
	<polygon class="st0" points="95.38,130.56 105.69,138.64 105.73,88.33 95.38,88.33 	"/>
	<path class="st0" d="M141.07,88.25c0,0,0,0.08-0.01,0.08l0.22,50.31l10.14-8.08l-0.08-42.23L141.07,88.25z"/>
	<path class="st0" d="M127.85,18.91c-90.13,0-108.57,18.31-108.57,108.57s18.15,108.57,108.57,108.57
		c90.43,0,108.57-18.27,108.57-108.57C236.42,37.17,217.98,18.91,127.85,18.91z M34.12,180.98c-0.46,0.32,1.24-3.53,1.24-3.53V75.19
		l-2.44-2.64h35.36l7.05,4.93l0.18,66.84l2.53,2.18C78.03,146.49,34.48,180.73,34.12,180.98z M79.67,142.07v-64.6l6.21-4.93h30.16
		l5.06,4.93v64.6l-20.36,16.78L79.67,142.07z M140.06,172.6l-7.13,5.92l7.13,5.91v9.23l-16.62,13.83l-15.62-13.12v-5.18l8.41-6.7
		v4.41l6.89,5.64l6.47-4.7l-8.18-5.88v-6.89l8.18-5.88l-6.47-4.7l-6.89,5.64v4.41l-8.41-6.7v-5.18l15.62-13.12l16.62,13.83V172.6z
		 M166.92,142.07l-20.91,16.79c-0.02,0-20.2-16.79-20.2-16.79V77.46l4.9-4.93h30.09l6.36,4.93L166.92,142.07z M201.64,170.33
		l2.06-2.03v-23.4c0-12.87-0.05-23.36-0.1-23.3c-0.06,0.06-9.15,37.85-9.15,37.85s-9.58-42.96-9.7-43.25
		c-0.06-0.13-0.19,41.11-0.19,41.11l-15.32-12.96l2.37-2.28v-64.6c0,0-2.43-4.88-2.43-4.93c0.01-0.04,20.72-0.04,20.72,0
		c0,0.04,5.3,19.5,5.36,19.5c0.05,0,5.76-19.5,5.76-19.5h22.07l-4.35,4.93l0.01,49.44c-0.02,45.29,0.25,52.15,0.25,52.15
		s2.32,6.61,2.28,6.65C221.26,185.74,201.64,170.33,201.64,170.33z"/>
	<path class="st0" d="M50.55,88.25v0.08c0,0,0.04,50.3,0.1,50.3s9.59-7.92,9.71-8.08c0.17-0.21,0.13-42.23,0.13-42.23L50.55,88.25z"
		/>
</g>
</svg>
