<svg xmlns="http://www.w3.org/2000/svg" viewBox="0 0 64 64"><g fill="#fff"><circle cx="25.5" cy="27.5" r=".5"/><circle cx="47.5" cy="27.5" r=".5"/><circle cx="7" cy="33" r="1"/><circle cx="17" cy="33" r="1"/><circle cx="47" cy="33" r="1"/><circle cx="57" cy="33" r="1"/><path d="M60 23.5H44.039a.04.04 0 0 1-.039-.039.96.96 0 0 0-.961-.961H20.961a.96.96 0 0 0-.961.961.04.04 0 0 1-.039.039H4a1 1 0 0 0-1 1v12a1 1 0 0 0 1 1v.049a1 1 0 0 0 .95.999L24 39.5h.037a2.37 2.37 0 0 0 2.329 2h11.267a2.37 2.37 0 0 0 2.329-2H40l19.05-.953a1 1 0 0 0 .95-.999V37.5a1 1 0 0 0 1-1v-12a1 1 0 0 0-1-1M7 36a3 3 0 1 1 0-6 3 3 0 0 1 0 6m6-8H5v-3h8zm4 8a3 3 0 1 1 0-6 3 3 0 0 1 0 6m7-8.5c0-.825.675-1.5 1.5-1.5s1.5.675 1.5 1.5-.675 1.5-1.5 1.5-1.5-.675-1.5-1.5M27 40h-1v-1h1zm3 0h-1v-1h1zm5 0h-1v-1h1zm3 0h-1v-1h1zm1-6H26c-.55 0-1-.45-1-1s.45-1 1-1h13c.55 0 1 .45 1 1s-.45 1-1 1m-9-7.5c0-.55.45-1 1-1h2c.55 0 1 .45 1 1s-.45 1-1 1h-2c-.55 0-1-.45-1-1m12.5-2h-21c-.275 0-.5-.225-.5-.5s.225-.5.5-.5h21c.275 0 .5.225.5.5s-.225.5-.5.5m13.5 3c0-.275.225-.5.5-.5s.5.225.5.5v1c0 .275-.225.5-.5.5s-.5-.225-.5-.5zM47.5 26c.825 0 1.5.675 1.5 1.5s-.675 1.5-1.5 1.5-1.5-.675-1.5-1.5.675-1.5 1.5-1.5M47 36a3 3 0 1 1 0-6 3 3 0 0 1 0 6m10 0a3 3 0 1 1 0-6 3 3 0 0 1 0 6"/><circle cx="31" cy="26.5" r=".5"/><circle cx="33" cy="26.5" r=".5"/><path d="M6 26h1v1H6z"/></g></svg>