<svg xmlns="http://www.w3.org/2000/svg" xml:space="preserve" width="64" height="64"><defs><clipPath id="a" clipPathUnits="userSpaceOnUse"><path d="M0 64h64V0H0z"/></clipPath></defs><g clip-path="url(#a)" transform="matrix(1 0 0 -1 0 64)"><path d="M0 0a1 1 0 0 0 1 1h31a1 1 0 0 0 1-1v-35a1 1 0 0 0-1-1H1a1 1 0 0 0-1 1zm37.5-39c.257 0 .465.208.465.466v.068A.465.465 0 0 1 37.5-38h-.535V3.918a.9.9 0 0 1-.1.416l-.589 1.151a.95.95 0 0 1-.852.515H-1.494a.96.96 0 0 1-.852-.515l-.588-1.151a.9.9 0 0 1-.101-.416V-38h-.534a.466.466 0 0 1-.466-.466v-.068c0-.258.209-.466.466-.466h.534v-1h-.534a.466.466 0 0 1-.466-.466v-.068c0-.258.209-.466.466-.466h.534v-1h-.534a.466.466 0 0 1-.466-.466v-.068c0-.258.209-.466.466-.466h.534v-1h-.534a.466.466 0 0 1-.466-.466v-.068c0-.258.209-.466.466-.466h.534v-1h-.534a.466.466 0 0 1-.466-.466v-.068c0-.258.209-.466.466-.466h.534v-1h40v1h.535c.257 0 .465.208.465.466v.068A.465.465 0 0 1 37.5-46h-.535v1h.535c.257 0 .465.208.465.466v.068A.465.465 0 0 1 37.5-44h-.535v1h.535c.257 0 .465.208.465.466v.068A.465.465 0 0 1 37.5-42h-.535v1h.535c.257 0 .465.208.465.466v.068A.465.465 0 0 1 37.5-40h-.535v1z" style="fill:#fff;fill-opacity:1;fill-rule:nonzero;stroke:none" transform="translate(15.035 53)"/><path d="M0 0h-29a1 1 0 0 0-1 1v33a1 1 0 0 0 1 1H0a1 1 0 0 0 1-1V1a1 1 0 0 0-1-1" style="fill:#fff;fill-opacity:1;fill-rule:nonzero;stroke:none" transform="translate(46 18)"/></g></svg>