<svg xmlns="http://www.w3.org/2000/svg" xml:space="preserve" width="64" height="64" viewBox="0 128 64 64"><path fill="#fff" d="M32 136c-13.256 0-24 10.744-24 24s10.744 24 24 24 24-10.744 24-24-10.744-24-24-24m0 46c-12.151 0-22-9.849-22-22s9.849-22 22-22 22 9.849 22 22-9.85 22-22 22m0-42c-11.046 0-20 8.954-20 20s8.954 20 20 20 20-8.954 20-20-8.954-20-20-20m-3 28h-9v-3h3v-10h-3v-3h6v13h3zm16-5c0 2.762-3.134 5-7 5s-7-2.238-7-5v-6c0-2.762 3.134-5 7-5s7 2.238 7 5zm-7-8c-2.209 0-4 .896-4 2v6c0 1.104 1.791 2 4 2s4-.896 4-2v-6c0-1.104-1.791-2-4-2"/></svg>