<svg xmlns="http://www.w3.org/2000/svg" xml:space="preserve" id="svg4048" x="0" y="0" version="1.1" viewBox="0 0 64 64"><style id="style149" type="text/css">.st0{fill:#fff}</style><path id="path152" d="M5 50v3c0 .5.5 1 1 1h5v2h1v1h2c0 .5.5 1 1 1h1c.5 0 1-.5 1-1h30c0 .5.5 1 1 1h1c.5 0 1-.5 1-1h2v-1h1v-2h5c.5 0 1-.5 1-1v-3" class="st0"/><path id="path154" d="M58 6H6c-.5 0-1 .5-1 1v42h54V7c0-.5-.5-1-1-1m-3 39c0 .5-.5 1-1 1H10c-.5 0-1-.5-1-1V11c0-.5.5-1 1-1h44c.5 0 1 .5 1 1.1z" class="st0"/><path id="path156" d="M13 14v28h38V14zm21 9h-1v1h2v1h1v2h1v1h-1v1h2v1h1v1h-2v-1h-1v-1h-2v4h1v2h2v6h-2v-4h-1v-1h-1v-1h-1v6h-2v-4h-1v-5h1v-1h-1v-1h-1v-3h-1v-1h-1v-2h1v-1h1v-1h1v-1h-1v-2h1v-1h1v4h1v-3h1v-1h2z" class="st0"/></svg>