<?xml version="1.0" encoding="utf-8"?>
<svg version="1.1" id="Layer_1" xmlns="http://www.w3.org/2000/svg" xmlns:xlink="http://www.w3.org/1999/xlink" x="0px" y="0px"
	 viewBox="0 0 64 64" enable-background="new 0 0 64 64" xml:space="preserve">
<g>
	<g transform="matrix(1.3333333 0 0 -1.3333333 -6.666667 65.333332)">
		<path fill="#FFFFFF" d="M37.25,25C36.01,25,35,26.01,35,27.25s1.01,2.25,2.25,2.25s2.25-1.01,2.25-2.25S38.49,25,37.25,25
			 M33.5,25.75c0-0.41-0.34-0.75-0.75-0.75h-7.5c-0.41,0-0.75,0.34-0.75,0.75v3c0,0.41,0.34,0.75,0.75,0.75h7.5
			c0.41,0,0.75-0.34,0.75-0.75V25.75z M20.75,25c-1.24,0-2.25,1.01-2.25,2.25s1.01,2.25,2.25,2.25S23,28.49,23,27.25
			S21.99,25,20.75,25 M17.75,24.25h22.5v6h-22.5V24.25z M48.13,36.25c-0.21,0-0.38,0.17-0.38,0.38S47.92,37,48.13,37
			c0.21,0,0.38-0.17,0.38-0.38S48.33,36.25,48.13,36.25 M48.13,13c-0.21,0-0.38,0.17-0.38,0.38s0.17,0.38,0.38,0.38
			c0.21,0,0.38-0.17,0.38-0.38S48.33,13,48.13,13 M47,22c0-0.83-0.67-1.5-1.5-1.5h-33c-0.83,0-1.5,0.67-1.5,1.5v12
			c0,0.83,0.67,1.5,1.5,1.5h33c0.83,0,1.5-0.67,1.5-1.5V22z M9.88,36.25c-0.21,0-0.38,0.17-0.38,0.38S9.67,37,9.88,37
			s0.38-0.17,0.38-0.38S10.08,36.25,9.88,36.25 M9.88,13c-0.21,0-0.38,0.17-0.38,0.38s0.17,0.38,0.38,0.38s0.38-0.17,0.38-0.38
			S10.08,13,9.88,13 M47.75,37.75h-37.5c-0.83,0-1.5-0.67-1.5-1.5v-22.5c0-0.83,0.67-1.5,1.5-1.5h4.5L15.5,16c0,0,0,1.5,1.5,1.5h24
			c1.5,0,1.5-1.5,1.5-1.5l0.75-3.75h4.5c0.83,0,1.5,0.67,1.5,1.5v22.5C49.25,37.08,48.58,37.75,47.75,37.75 M41,23.5H17V31h24V23.5z
			 M45.5,34.75h-33c-0.41,0-0.75-0.34-0.75-0.75V22c0-0.41,0.34-0.75,0.75-0.75h33c0.41,0,0.75,0.34,0.75,0.75v12
			C46.25,34.41,45.91,34.75,45.5,34.75 M38.75,13C38.34,13,38,13.34,38,13.75s0.34,0.75,0.75,0.75s0.75-0.34,0.75-0.75
			S39.16,13,38.75,13 M35,13.75c-0.41,0-0.75,0.34-0.75,0.75s0.34,0.75,0.75,0.75s0.75-0.34,0.75-0.75S35.41,13.75,35,13.75
			 M29,14.5c-0.41,0-0.75,0.34-0.75,0.75c0,0.41,0.34,0.75,0.75,0.75c0.41,0,0.75-0.34,0.75-0.75C29.75,14.84,29.41,14.5,29,14.5
			 M23,13.75c-0.41,0-0.75,0.34-0.75,0.75s0.34,0.75,0.75,0.75s0.75-0.34,0.75-0.75S23.41,13.75,23,13.75 M19.25,13
			c-0.41,0-0.75,0.34-0.75,0.75s0.34,0.75,0.75,0.75c0.41,0,0.75-0.34,0.75-0.75S19.66,13,19.25,13 M41.75,16c0,0,0,0.75-0.75,0.75
			H17c-0.75,0-0.75-0.75-0.75-0.75l-0.75-3.75h27L41.75,16z"/>
	</g>
</g>
</svg>
