<?xml version="1.0" encoding="utf-8"?>
<svg version="1.1" xmlns="http://www.w3.org/2000/svg" xmlns:xlink="http://www.w3.org/1999/xlink" x="0px" y="0px" viewBox="0 0 64 64" style="enable-background:new 0 0 64 64;" xml:space="preserve">
<style type="text/css">
	.st0{fill:#FFFFFF;}
</style>
<path class="st0" d="M13.06,20.73v-2.64h18.55v2.64H62v-3.81c0-0.83-0.67-1.5-1.5-1.5h-57c-0.83,0-1.5,0.67-1.5,1.5v3.81H13.06z"/>
<path class="st0" d="M2,21.48v22.8c0,0.83,0.67,1.5,1.5,1.5h57c0.83,0,1.5-0.67,1.5-1.5v-22.8H2z M36.13,23.8h3.79v2.47h-3.79V23.8zM35.75,35.27h2.03v2.03h-2.03V35.27z M34.92,34.16v-2.03h2.03v2.03H34.92z M36.5,31.01v-2.03h2.03v2.03H36.5z M38.07,32.13h2.03v2.03h-2.03V32.13z M38.89,35.27h2.03v2.03h-2.03V35.27z M39.64,31.01v-2.03h2.03v2.03H39.64z M33.35,28.98h2.03v2.03h-2.03V28.98zM32.6,35.27h2.03v2.03H32.6V35.27z M31.78,34.16v-2.03h2.03v2.03H31.78z M32.24,31.01H30.2v-2.03h2.03v2.03H32.24z M16.51,31.01h-2.03v-2.03h2.03V31.01z M18.08,32.13v2.03h-2.03v-2.03H18.08z M14.93,32.13v2.03H12.9v-2.03H14.93z M13.72,35.27h2.03v2.03h-2.03V35.27z M15.3,38.42h2.03v2.03H15.3V38.42z M16.87,37.31v-2.03h2.03v2.03H16.87z M18.44,38.42h2.03v2.03h-2.03V38.42z M20.02,37.31v-2.03h2.03v2.03H20.02z M19.19,34.16v-2.03h2.03v2.03H19.19z M21.59,38.42h2.03v2.03h-2.03V38.42z M25.95,31.01h-2.03v-2.03h2.03V31.01z M27.52,32.13v2.03h-2.03v-2.03H27.52z M24.37,32.13v2.03h-2.03v-2.03H24.37z M23.16,37.31v-2.03h2.03v2.03H23.16zM24.74,38.42h2.03v2.03h-2.03V38.42z M26.31,37.31v-2.03h2.03v2.03H26.31z M27.88,38.42h2.03v2.03h-2.03V38.42z M29.45,37.31v-2.03h2.03v2.03H29.45z M28.63,34.16v-2.03h2.03v2.03H28.63z M27.8,23.8h3.79v2.47H27.8V23.8z M27.06,28.98h2.03v2.03h-2.03V28.98zM22.9,23.8h3.79v2.47H22.9V23.8z M22.8,31.01h-2.03v-2.03h2.03V31.01z M17.99,23.8h3.79v2.47h-3.79C17.99,26.27,17.99,23.8,17.99,23.8z M17.62,28.98h2.03v2.03h-2.03V28.98z M13.09,23.8h3.79v2.47h-3.79C13.09,26.27,13.09,23.8,13.09,23.8z M11.33,28.98h2.03v2.03h-2.03V28.98z M10.58,35.27h2.03v2.03h-2.03V35.27z M9.75,34.16v-2.03h2.03v2.03H9.75z M10.21,31.01H8.18v-2.03h2.03V31.01z M8.64,32.13v2.03H5.03v-2.03H8.64z M5.03,31.01v-2.03h2.03v2.03H5.03z M7.43,35.27h2.03v2.03H7.43V35.27z M4.69,23.8h3.79v2.47H4.69V23.8z M3.35,27.25v-3.08c0-0.21,0.17-0.38,0.38-0.38s0.38,0.17,0.38,0.38v2.4c0,0.17,0.14,0.3,0.3,0.3h4.35c0.17,0,0.3-0.14,0.3-0.3v-2.4c0-0.21,0.17-0.38,0.38-0.38s0.38,0.17,0.38,0.38v3.08c0,0.21-0.17,0.38-0.38,0.38H3.73C3.52,27.63,3.35,27.46,3.35,27.25z M6.32,40.06h-0.4v-1.25h0.4V40.06zM6.32,37.31H4.28v-2.03h2.03L6.32,37.31L6.32,37.31z M11.04,40.45H7.43v-2.03h3.61V40.45z M14.18,43.6h-2.03v-2.03h2.03V43.6zM14.18,40.45h-2.03v-2.03h2.03V40.45z M33.06,43.6H15.3v-2.03h17.76V43.6z M33.06,40.45h-2.03v-2.03h2.03V40.45z M36.21,43.6h-2.03v-2.03h2.03V43.6z M36.21,40.45h-2.03v-2.03h2.03V40.45z M39.35,43.6h-2.03v-2.03h2.03V43.6z M39.35,40.45h-2.03v-2.03h2.03V40.45zM41.72,43.37h-1.25v-0.4h1.25V43.37z M41.72,42.2h-1.25v-0.4h1.25V42.2z M44.07,40.45h-3.61v-2.03h3.61V40.45z M44.07,37.31h-2.03v-2.72h-0.82v-2.03h0.82h1.21h0.82V37.31z M44.82,31.01h-2.03v-2.03h2.03V31.01z M44.82,26.27h-3.79V23.8h3.79V26.27z M50.68,43.6h-2.03v-2.03h2.03V43.6z M50.68,40.45h-2.03v-2.03h2.03V40.45z M50.68,37.31h-2.03v-2.03h2.03V37.31z M50.68,34.16h-2.03v-2.03h2.03V34.16z M50.68,29.22h-2.03v-2.03h2.03V29.22z M50.68,26.07h-2.03v-2.03h2.03V26.07z M53.83,43.6H51.8v-2.03h2.03C53.83,41.57,53.83,43.6,53.83,43.6z M53.83,40.45H51.8v-2.03h2.03C53.83,38.42,53.83,40.45,53.83,40.45z M53.83,37.31H51.8v-2.03h2.03C53.83,35.28,53.83,37.31,53.83,37.31z M53.83,34.16H51.8v-2.03h2.03C53.83,32.13,53.83,34.16,53.83,34.16z M53.83,29.22H51.8v-2.03h2.03C53.83,27.19,53.83,29.22,53.83,29.22z M53.83,26.07H51.8v-2.03h2.03C53.83,24.04,53.83,26.07,53.83,26.07z M56.98,43.6h-2.03v-2.03h2.03V43.6z M56.98,40.45h-2.03v-2.03h2.03V40.45z M56.98,37.31h-2.03v-2.03h2.03V37.31z M56.98,34.16h-2.03v-2.03h2.03V34.16z M56.98,29.22h-2.03v-2.03h2.03V29.22z M56.98,26.07h-2.03v-2.03h2.03V26.07z M60.12,43.6h-2.03v-5.18h2.03V43.6zM60.12,37.31h-2.03v-2.03h2.03V37.31z M60.12,34.16h-2.03v-2.03h2.03V34.16z M60.12,29.22h-2.03v-2.03h2.03V29.22z M60.12,26.07h-2.03v-2.03h2.03V26.07z"/>
</svg>