<?xml version="1.0" encoding="utf-8"?>
<!-- Generator: Adobe Illustrator 26.3.1, SVG Export Plug-In . SVG Version: 6.00 Build 0)  -->
<svg version="1.1" id="Layer_1" xmlns="http://www.w3.org/2000/svg" xmlns:xlink="http://www.w3.org/1999/xlink" x="0px" y="0px"
	 viewBox="0 0 64 64" style="enable-background:new 0 0 64 64;" xml:space="preserve">
<g>
	<rect x="12.61" y="54.68" style="fill:#FFFFFF;" width="38.69" height="4.4"/>
	<path style="fill:#FFFFFF;" d="M39.55,49.29c-2.3,0.03-4.62,0.05-6.95,0.05c-2.7,0-5.46-0.03-8.24-0.07
		c1.09,1.03,4.07,1.78,7.61,1.78C35.48,51.05,38.45,50.31,39.55,49.29z"/>
	<path style="fill:#FFFFFF;" d="M40.81,49.27c-0.94,1.9-5.02,2.78-8.85,2.78c-3.85,0-7.93-0.89-8.86-2.8
		c-1.78-0.03-3.57-0.07-5.37-0.12l-5.12,4.55h38.69l-5.1-4.54C44.42,49.2,42.63,49.24,40.81,49.27z"/>
	<path style="fill:#FFFFFF;" d="M54.77,7.51c-0.06-1.07-0.97-1.97-2.03-2.01C46.04,5.21,39.32,5.08,32.6,5.08
		c-7.14,0-14.29,0.15-21.42,0.42C10.11,5.54,9.2,6.44,9.15,7.51c-0.62,11.86-0.62,26.55,0,38.41c0.06,1.07,0.97,1.97,2.03,2.01
		c7.14,0.27,14.28,0.42,21.42,0.42c6.72,0,13.44-0.13,20.15-0.42c1.06-0.04,1.97-0.94,2.03-2.01C55.39,34.05,55.39,19.37,54.77,7.51
		z M49.13,45.43c0,0.35-0.28,0.63-0.63,0.63h-1.94c-0.35,0-0.63-0.28-0.63-0.63v-1.94c0-0.35,0.28-0.63,0.63-0.63h1.94
		c0.35,0,0.63,0.28,0.63,0.63V45.43z M49.13,38.03c0,1.22-0.99,2.21-2.21,2.21H17c-1.22,0-2.21-0.99-2.21-2.21V12.6
		c0-1.22,0.99-2.21,2.21-2.21h29.93c1.22,0,2.21,0.99,2.21,2.21V38.03z"/>
	<path style="fill:#FFFFFF;" d="M39.25,18.64c0.38-1.94,0.09-3.87-0.14-3.53s-3.16,3.63-3.16,3.63l2.54,2.42
		C38.49,21.16,38.87,20.58,39.25,18.64z"/>
	<path style="fill:#FFFFFF;" d="M27.08,17.77c0.99-0.76,1.85-0.33,1.85-0.33c-1.09-0.62-1.85-3.56-1.85-3.56s-0.41,0.36-0.77,1.55
		s-0.1,3.61-0.1,3.61S26.34,18.33,27.08,17.77z"/>
	<path style="fill:#FFFFFF;" d="M32,23.72c-0.4,0-0.78,0.17-1.09,0.45c0.23,0.2,0.4,0.52,0.4,0.9c0,0.6-0.38,1.09-0.85,1.09
		c-0.12,0-0.24-0.04-0.34-0.09c0,0.03-0.01,0.06-0.01,0.08c0,1.34,0.85,2.43,1.89,2.43s1.89-1.09,1.89-2.43S33.04,23.72,32,23.72z"
		/>
	<path style="fill:#FFFFFF;" d="M39.96,25.01c0,0,0.21-0.03,0.39-0.23c0.18-0.21-0.03-0.59-0.57-1.42s-2.48-1.6-2.48-1.6
		s-0.77-0.7-1.88-1.83c-1.11-1.13-1.78-1.91-2.19-1.68s0.52,1.57,0.52,1.57s-3.35-1.19-4.18-1.29c-0.83-0.1-1.68-0.36-1.86,0.23
		s1.44,1.08,1.44,1.08s-2.42-0.03-4.18,0.75c-1.75,0.77-1.83,1.32-1.68,1.52c0.15,0.21,0.67,0.23,1.37,0.03
		c0.7-0.21,2.14-0.46,2.14-0.46s-1.26,0.77-2.04,1.32s-1.13,1.06-1.21,1.47s0.52,0.52,0.52,0.52s-0.88,1.32-1.29,2.22
		s-0.41,1.68-0.03,1.81c0.39,0.13,0.59-0.34,0.59-0.34s-0.08,0.77-0.08,2.19s0.21,2.45,0.72,2.45c0.52,0,0.59-0.59,0.59-0.59
		s2.27,3.4,7.43,3.4s7.43-3.66,7.43-3.66s0,0.88,0.59,0.88s0.49-1.11,0.59-2.22c0.1-1.11,0-2.48,0-2.48s0.13,0.46,0.52,0.39
		c0.39-0.08,0.39-0.59,0.15-1.44C41.06,26.74,39.96,25.01,39.96,25.01z M31.87,30.68c-2.71,0-4.91-1.91-4.91-4.27
		s2.2-4.27,4.91-4.27s4.91,1.91,4.91,4.27S34.58,30.68,31.87,30.68z"/>
</g>
</svg>
