<svg xmlns="http://www.w3.org/2000/svg" xml:space="preserve" id="Layer_1" x="0" y="0" version="1.1" viewBox="0 0 64 64"><style>.st0{fill:#fff}</style><path d="M12.6 54.7h38.7v4.4H12.6zm26.9-5.4h-7c-2.7 0-5.5 0-8.2-.1 1.1 1 4.1 1.8 7.6 1.8 3.6 0 6.6-.7 7.6-1.7M54.8 7.5c-.1-1.1-1-2-2-2-6.8-.3-13.5-.4-20.2-.4-7.1 0-14.3.2-21.4.4-1.1 0-2 .9-2 2-.6 11.9-.6 26.5 0 38.4.1 1.1 1 2 2 2 7.1.3 14.3.4 21.4.4 6.7 0 13.4-.1 20.2-.4 1.1 0 2-.9 2-2 .6-11.9.6-26.5 0-38.4m-5.7 37.9c0 .3-.3.6-.6.6h-1.9c-.3 0-.6-.3-.6-.6v-1.9c0-.3.3-.6.6-.6h1.9c.3 0 .6.3.6.6zm0-7.4c0 1.2-1 2.2-2.2 2.2H17c-1.2 0-2.2-1-2.2-2.2V12.6c0-1.2 1-2.2 2.2-2.2h29.9c1.2 0 2.2 1 2.2 2.2z" class="st0"/><path d="M40.8 49.3c-.9 1.9-5 2.8-8.9 2.8s-7.9-.9-8.9-2.8c-1.8 0-3.6-.1-5.4-.1l-5.1 4.5h38.7l-5.1-4.5c-1.7 0-3.5 0-5.3.1M24.4 22.9l4 2.6-4 2.2v1.9l5.8-3.5V25l-5.8-4zM32 28h1.6v1.6H32zm3.1 0h1.6v1.6h-1.6zm3.1 0h1.6v1.6h-1.6z" class="st0"/></svg>