<svg xmlns="http://www.w3.org/2000/svg" xml:space="preserve" viewBox="0 0 64 64"><path d="M12.61 54.68H51.3v4.4H12.61zm26.94-5.39c-2.3.03-4.62.05-6.95.05-2.7 0-5.46-.03-8.24-.07 1.09 1.03 4.07 1.78 7.61 1.78 3.51 0 6.48-.74 7.58-1.76" style="fill:#fff"/><path d="M40.81 49.27c-.94 1.9-5.02 2.78-8.85 2.78-3.85 0-7.93-.89-8.86-2.8q-2.67-.045-5.37-.12l-5.12 4.55H51.3l-5.1-4.54c-1.78.06-3.57.1-5.39.13M54.77 7.51c-.06-1.07-.97-1.97-2.03-2.01-6.7-.29-13.42-.42-20.14-.42-7.14 0-14.29.15-21.42.42-1.07.04-1.98.94-2.03 2.01-.62 11.86-.62 26.55 0 38.41.06 1.07.97 1.97 2.03 2.01 7.14.27 14.28.42 21.42.42 6.72 0 13.44-.13 20.15-.42 1.06-.04 1.97-.94 2.03-2.01.61-11.87.61-26.55-.01-38.41m-5.64 37.92c0 .35-.28.63-.63.63h-1.94c-.35 0-.63-.28-.63-.63v-1.94c0-.35.28-.63.63-.63h1.94c.35 0 .63.28.63.63zm0-7.4c0 1.22-.99 2.21-2.21 2.21H17a2.21 2.21 0 0 1-2.21-2.21V12.6c0-1.22.99-2.21 2.21-2.21h29.93c1.22 0 2.21.99 2.21 2.21v25.43z" style="fill:#fff"/><path d="M32.22 30.77h-4.25l5.32-7.97h-2.65v-5.32h-5.32v5.3h-2.65l5.3 7.97h-3.98c-.53 0-1.07.53-1.07 1.07v.26c0 .53.53 1.07 1.07 1.07h8.23c.53 0 1.07-.53 1.07-1.07v-.25c0-.53-.54-1.06-1.07-1.06m6.38-8.24h-2.66v2.65h-2.65v2.66h2.65v2.65h2.66v-2.65h2.65v-2.66H38.6z" style="fill:#fff"/></svg>