<?xml version="1.0" encoding="utf-8"?>
<svg version="1.1" xmlns="http://www.w3.org/2000/svg" xmlns:xlink="http://www.w3.org/1999/xlink" x="0px" y="0px" viewBox="0 0 64 64" style="enable-background:new 0 0 64 64;" xml:space="preserve">
<style type="text/css">
	.st0{fill:#FFFFFF;}
</style>
<g>
	<path class="st0" d="M35.4,33.7h-0.9c-0.4,0-0.8,0.3-0.9,0.7c0,0-1.1,2.8-1.5,3.8c-0.5,1.1-1.7,1.8-2.5,1.8c-0.5,0-1.1-0.2-1.1-0.2c-0.2,0-0.4,0-0.4,0.2l-0.4,1c-0.1,0.2,0,0.3,0.2,0.4c0.2,0.1,0.6,0.2,1.1,0.2c2.7,0,4.2-1.5,5-3.3c0.7-1.8,1.7-4.3,1.7-4.3C35.7,33.8,35.6,33.7,35.4,33.7z"/>
	<path class="st0" d="M36,14H20c-1.1,0-2,0.9-2,2v32c0,1.1,0.9,2,2,2h24c1.1,0,2-0.9,2-2V24L36,14z M32,45.2c-4.1,0-7.5-3.4-7.5-7.5s3.4-7.5,7.5-7.5s7.5,3.4,7.5,7.5S36.1,45.2,32,45.2z M36,26c-1.1,0-2-0.9-2-2v-8l10,10H36z"/>
</g>
</svg>