<svg xmlns="http://www.w3.org/2000/svg" xml:space="preserve" width="64" height="64"><path d="M20.509-23.709a7.2 7.2 0 0 1 0-10.182 7.2 7.2 0 0 1 10.182 0 7.2 7.2 0 0 1 0 10.182" style="opacity:1;vector-effect:none;fill:none;fill-opacity:1;stroke:#fff;stroke-width:1.60000002;stroke-linecap:round;stroke-linejoin:round;stroke-miterlimit:4;stroke-dasharray:none;stroke-dashoffset:0;stroke-opacity:1;paint-order:markers stroke fill" transform="matrix(0 1.25 -1.25 0 2.003 0)"/><path d="M20.8 27.2c0-2.65 2.15-4.8 4.802-4.8a4.8 4.8 0 0 1 4.798 4.8c0 2.65-2.146 4.8-4.798 4.8a4.8 4.8 0 0 1-4.802-4.8" style="opacity:1;vector-effect:none;fill:#fff;fill-opacity:1;stroke:none;stroke-width:1.60000002;stroke-linecap:butt;stroke-linejoin:miter;stroke-miterlimit:4;stroke-dasharray:none;stroke-dashoffset:0;stroke-opacity:1;paint-order:markers stroke fill" transform="matrix(0 1.25 1.25 0 2.003 0)"/><path d="M17.2 23.6h4v4h-4z" style="opacity:1;vector-effect:none;fill:#fff;fill-opacity:1;stroke:#fff;stroke-width:.80000001;stroke-linecap:butt;stroke-linejoin:round;stroke-miterlimit:4;stroke-dasharray:none;stroke-dashoffset:0;stroke-opacity:1;paint-order:markers stroke fill" transform="translate(2.003)scale(1.25)"/><path d="M30 17.2h-8.8l4.4-5.6Z" style="opacity:1;vector-effect:none;fill:#fff;fill-opacity:1;stroke:#fff;stroke-width:.80000001;stroke-linecap:butt;stroke-linejoin:round;stroke-miterlimit:4;stroke-dasharray:none;stroke-dashoffset:0;stroke-opacity:1;paint-order:markers stroke fill" transform="matrix(0 1.25 1.25 0 2.003 0)"/></svg>