<?xml version="1.0" encoding="utf-8"?>
<!-- Generator: Adobe Illustrator 26.3.1, SVG Export Plug-In . SVG Version: 6.00 Build 0)  -->
<svg version="1.1" id="Layer_1" xmlns="http://www.w3.org/2000/svg" xmlns:xlink="http://www.w3.org/1999/xlink" x="0px" y="0px"
	 viewBox="0 0 64 64" style="enable-background:new 0 0 64 64;" xml:space="preserve">
<style type="text/css">
	.st0{fill:#FFFFFF;}
</style>
<g>
	<circle class="st0" cx="32" cy="30.5" r="5.04"/>
	<path class="st0" d="M60.09,27.99l-3.06-9.78c-0.62-1.91-1.79-3.53-3.31-4.7c0,0-1.47-2.15-4.71-2.78s-5.49-0.62-6.62-0.56
		c-0.41,0.02-0.87,0.3-1,0.69v0.35l-2.86-0.11v4.81c1.92,0.86,3.62,2.08,5.05,3.57c-0.34,0.44-0.55,0.97-0.63,1.54
		c-1.37-1.57-3.07-2.87-5.04-3.75l-0.89-0.39V15.9v-4.81v-0.27c-1.61-0.41-3.28-0.65-5.02-0.65s-3.41,0.24-5.02,0.65v0.27v4.81v0.97
		l-0.89,0.4c-1.26,0.56-2.41,1.29-3.43,2.15c-0.16-0.49-0.4-0.95-0.66-1.39c1.06-0.85,2.22-1.57,3.48-2.13v-4.81l-2.86,0.11v-0.35
		c-0.12-0.39-0.59-0.67-1-0.69c-1.12-0.06-3.38-0.07-6.62,0.56s-4.71,2.78-4.71,2.78c-1.51,1.17-2.69,2.79-3.31,4.7l-3.06,9.78
		c0,0-1.93,7.92-1.93,10.71c0,11.37,6.59,15.17,6.59,15.17s3.59-3.53,6.59-4.86c2.72-1.21,7.92-1.26,8.84-1.26c0.09,0,0.14,0,0.14,0
		v-3.15c-1.09-0.61-2.09-1.35-3-2.19c0.61-0.09,1.2-0.24,1.74-0.48c0.62,0.5,1.29,0.96,1.99,1.36l0.77,0.43v0.88v3.15v1.52
		l-1.52-0.02h-0.13c-0.08,0-0.16,0-0.24,0c2.52,1.11,5.3,1.74,8.23,1.74s5.71-0.63,8.23-1.74c-0.08,0-0.16,0-0.24,0h-0.13
		l-1.52,0.02v-1.52v-3.15v-0.88l0.77-0.43c3.77-2.12,6.34-5.77,7.15-9.93c0.67-0.17,1.26-0.55,1.7-1.07
		c-0.56,5.29-3.69,9.82-8.11,12.3v3.15c0,0,0.05,0,0.14,0c0.92,0,6.12,0.05,8.84,1.26c2.99,1.33,6.59,4.86,6.59,4.86
		s6.61-3.78,6.61-15.15C62.02,35.9,60.09,27.99,60.09,27.99z M34.3,14.16c0.29,0,0.53,0.24,0.53,0.53c0,0.29-0.23,0.53-0.53,0.53
		c-0.29,0-0.53-0.24-0.53-0.53C33.78,14.4,34.02,14.16,34.3,14.16z M32.02,15.13c0.65,0,1.18,0.53,1.18,1.18
		c0,0.65-0.53,1.18-1.18,1.18c-0.65,0-1.18-0.53-1.18-1.18C30.84,15.66,31.36,15.13,32.02,15.13z M32.02,18.27
		c0.75,0,1.36,0.61,1.36,1.36s-0.61,1.36-1.36,1.36s-1.36-0.61-1.36-1.36C30.66,18.89,31.27,18.27,32.02,18.27z M29.72,14.16
		c0.29,0,0.53,0.24,0.53,0.53c0,0.29-0.24,0.53-0.53,0.53c-0.29,0-0.53-0.24-0.53-0.53C29.2,14.4,29.43,14.16,29.72,14.16z
		 M11.04,21.6c0-2.76,2.24-5,5-5s5,2.24,5,5s-2.24,5-5,5S11.04,24.36,11.04,21.6z M23.77,37.75c-0.34,0.55-0.8,1.01-1.35,1.35
		c-0.03,1.22-1.02,2.19-2.25,2.19c-1.22,0-2.21-0.98-2.25-2.19c-0.55-0.34-1.01-0.8-1.35-1.35c-1.22-0.03-2.19-1.02-2.19-2.25
		c0-1.22,0.98-2.21,2.19-2.25c0.34-0.55,0.8-1.01,1.35-1.35c0.03-1.22,1.02-2.19,2.25-2.19c1.22,0,2.21,0.98,2.25,2.19
		c0.55,0.34,1.01,0.8,1.35,1.35c1.22,0.03,2.19,1.02,2.19,2.25C25.97,36.73,24.98,37.72,23.77,37.75z M27.41,48.11
		c-0.29,0-0.53-0.24-0.53-0.53s0.24-0.53,0.53-0.53c0.29,0,0.53,0.24,0.53,0.53C27.95,47.87,27.71,48.11,27.41,48.11z M32.03,48.74
		c-0.29,0-0.53-0.24-0.53-0.53s0.24-0.53,0.53-0.53c0.29,0,0.53,0.24,0.53,0.53S32.33,48.74,32.03,48.74z M36.62,48.11
		c-0.29,0-0.53-0.24-0.53-0.53s0.24-0.53,0.53-0.53s0.53,0.24,0.53,0.53S36.91,48.11,36.62,48.11z M32,36.45
		c-3.29,0-5.96-2.67-5.96-5.96s2.67-5.96,5.96-5.96s5.96,2.67,5.96,5.96S35.29,36.45,32,36.45z M49.45,16.05
		c1.16,0,2.1,0.94,2.1,2.1c0,1.16-0.94,2.1-2.1,2.1c-1.16,0-2.1-0.94-2.1-2.1C47.35,16.99,48.28,16.05,49.45,16.05z M46.16,19.34
		c1.16,0,2.1,0.94,2.1,2.1c0,1.16-0.94,2.1-2.1,2.1c-1.16,0-2.1-0.94-2.1-2.1C44.05,20.28,44.99,19.34,46.16,19.34z M41.1,27.82
		c-1.16,0-2.1-0.94-2.1-2.1c0-1.16,0.94-2.1,2.1-2.1c1.16,0,2.1,0.94,2.1,2.1C43.2,26.88,42.26,27.82,41.1,27.82z M45.46,32.31
		c-1.16,0-2.1-0.94-2.1-2.1s0.94-2.1,2.1-2.1c1.16,0,2.1,0.94,2.1,2.1S46.6,32.31,45.46,32.31z M49.45,26.82
		c-1.16,0-2.1-0.94-2.1-2.1c0-1.16,0.94-2.1,2.1-2.1c1.16,0,2.1,0.94,2.1,2.1C51.54,25.88,50.6,26.82,49.45,26.82z M52.73,23.53
		c-1.16,0-2.1-0.94-2.1-2.1c0-1.16,0.94-2.1,2.1-2.1c1.16,0,2.1,0.94,2.1,2.1C54.84,22.59,53.9,23.53,52.73,23.53z"/>
</g>
</svg>
