<?xml version="1.0" encoding="utf-8"?>
<svg version="1.1" id="Layer_1" xmlns="http://www.w3.org/2000/svg" xmlns:xlink="http://www.w3.org/1999/xlink" x="0px" y="0px"
	 viewBox="0 0 64 64" enable-background="new 0 0 64 64" xml:space="preserve">
<path fill="#FFFFFF" d="M52.39,16.9c-2.07-0.21-9.34-0.85-20.39-0.85S13.68,16.7,11.61,16.9C11.26,16.94,11,17.23,11,17.58v1.74
	c0,0.31,0.2,0.56,0.48,0.65v27.96h41.03V19.98C52.8,19.89,53,19.64,53,19.33v-1.74C53,17.23,52.74,16.94,52.39,16.9z M14.03,46.81
	h-1.67v-2.5h1.67V46.81z M49,42.72c0,0.45-0.39,0.82-0.87,0.82H15.87c-0.48,0-0.87-0.37-0.87-0.82V22.36c0-0.45,0.39-0.82,0.87-0.82
	h32.26c0.48,0,0.87,0.37,0.87,0.82V42.72z M51.63,46.81h-1.67v-2.5h1.67V46.81z M47.5,41.34c0,0.39-0.35,0.7-0.79,0.7H17.29
	c-0.44,0-0.79-0.31-0.79-0.7v-17.6c0-0.39,0.35-0.7,0.79-0.7h29.42c0.44,0,0.79,0.31,0.79,0.7V41.34z"/>
</svg>
