<?xml version="1.0" encoding="utf-8"?>
<!-- Generator: Adobe Illustrator 26.3.1, SVG Export Plug-In . SVG Version: 6.00 Build 0)  -->
<svg version="1.1" id="Layer_1" xmlns="http://www.w3.org/2000/svg" xmlns:xlink="http://www.w3.org/1999/xlink" x="0px" y="0px"
	 viewBox="0 0 64 64" style="enable-background:new 0 0 64 64;" xml:space="preserve">
<style type="text/css">
	.st0{fill:#FFFFFF;}
</style>
<g>
	<path class="st0" d="M21.14,42.61H18.4c-0.26,0-0.47,0.21-0.47,0.47v1.53c0,0.26,0.21,0.47,0.47,0.47h2.74
		c0.26,0,0.47-0.21,0.47-0.47v-1.53C21.61,42.82,21.4,42.61,21.14,42.61z"/>
	<path class="st0" d="M21.14,46.19H18.4c-0.26,0-0.47,0.21-0.47,0.47v1.53c0,0.26,0.21,0.47,0.47,0.47h2.74
		c0.26,0,0.47-0.21,0.47-0.47v-1.53C21.61,46.4,21.4,46.19,21.14,46.19z"/>
	<path class="st0" d="M21.14,49.77H18.4c-0.26,0-0.47,0.21-0.47,0.47v1.53c0,0.26,0.21,0.47,0.47,0.47h2.74
		c0.26,0,0.47-0.21,0.47-0.47v-1.53C21.61,49.99,21.4,49.77,21.14,49.77z"/>
	<path class="st0" d="M26.02,42.61h-2.74c-0.26,0-0.47,0.21-0.47,0.47v1.53c0,0.26,0.21,0.47,0.47,0.47h2.74
		c0.26,0,0.47-0.21,0.47-0.47v-1.53C26.49,42.82,26.28,42.61,26.02,42.61z"/>
	<path class="st0" d="M26.02,46.19h-2.74c-0.26,0-0.47,0.21-0.47,0.47v1.53c0,0.26,0.21,0.47,0.47,0.47h2.74
		c0.26,0,0.47-0.21,0.47-0.47v-1.53C26.49,46.4,26.28,46.19,26.02,46.19z"/>
	<path class="st0" d="M26.02,49.77h-2.74c-0.26,0-0.47,0.21-0.47,0.47v1.53c0,0.26,0.21,0.47,0.47,0.47h2.74
		c0.26,0,0.47-0.21,0.47-0.47v-1.53C26.49,49.99,26.28,49.77,26.02,49.77z"/>
	<path class="st0" d="M30.9,42.61h-2.74c-0.26,0-0.47,0.21-0.47,0.47v1.53c0,0.26,0.21,0.47,0.47,0.47h2.74
		c0.26,0,0.47-0.21,0.47-0.47v-1.53C31.37,42.82,31.16,42.61,30.9,42.61z"/>
	<path class="st0" d="M30.9,46.19h-2.74c-0.26,0-0.47,0.21-0.47,0.47v1.53c0,0.26,0.21,0.47,0.47,0.47h2.74
		c0.26,0,0.47-0.21,0.47-0.47v-1.53C31.37,46.4,31.16,46.19,30.9,46.19z"/>
	<path class="st0" d="M30.9,49.77h-2.74c-0.26,0-0.47,0.21-0.47,0.47v1.53c0,0.26,0.21,0.47,0.47,0.47h2.74
		c0.26,0,0.47-0.21,0.47-0.47v-1.53C31.37,49.99,31.16,49.77,30.9,49.77z"/>
	<path class="st0" d="M35.77,42.61h-2.74c-0.26,0-0.47,0.21-0.47,0.47v1.53c0,0.26,0.21,0.47,0.47,0.47h2.74
		c0.26,0,0.47-0.21,0.47-0.47v-1.53C36.25,42.82,36.04,42.61,35.77,42.61z"/>
	<path class="st0" d="M35.77,46.19h-2.74c-0.26,0-0.47,0.21-0.47,0.47v1.53c0,0.26,0.21,0.47,0.47,0.47h2.74
		c0.26,0,0.47-0.21,0.47-0.47v-1.53C36.25,46.4,36.04,46.19,35.77,46.19z"/>
	<path class="st0" d="M35.77,49.77h-2.74c-0.26,0-0.47,0.21-0.47,0.47v1.53c0,0.26,0.21,0.47,0.47,0.47h2.74
		c0.26,0,0.47-0.21,0.47-0.47v-1.53C36.25,49.99,36.04,49.77,35.77,49.77z"/>
	<path class="st0" d="M40.65,42.61h-2.74c-0.26,0-0.47,0.21-0.47,0.47v1.53c0,0.26,0.21,0.47,0.47,0.47h2.74
		c0.26,0,0.47-0.21,0.47-0.47v-1.53C41.13,42.82,40.92,42.61,40.65,42.61z"/>
	<path class="st0" d="M40.65,46.19h-2.74c-0.26,0-0.47,0.21-0.47,0.47v1.53c0,0.26,0.21,0.47,0.47,0.47h2.74
		c0.26,0,0.47-0.21,0.47-0.47v-1.53C41.13,46.4,40.92,46.19,40.65,46.19z"/>
	<path class="st0" d="M40.65,49.77h-2.74c-0.26,0-0.47,0.21-0.47,0.47v1.53c0,0.26,0.21,0.47,0.47,0.47h2.74
		c0.26,0,0.47-0.21,0.47-0.47v-1.53C41.13,49.99,40.92,49.77,40.65,49.77z"/>
	<path class="st0" d="M45.53,42.61h-2.74c-0.26,0-0.47,0.21-0.47,0.47v1.53c0,0.26,0.21,0.47,0.47,0.47h2.74
		c0.26,0,0.47-0.21,0.47-0.47v-1.53C46.01,42.82,45.8,42.61,45.53,42.61z"/>
	<path class="st0" d="M45.53,46.19h-2.74c-0.26,0-0.47,0.21-0.47,0.47v1.53c0,0.26,0.21,0.47,0.47,0.47h2.74
		c0.26,0,0.47-0.21,0.47-0.47v-1.53C46.01,46.4,45.8,46.19,45.53,46.19z"/>
	<path class="st0" d="M45.53,49.77h-2.74c-0.26,0-0.47,0.21-0.47,0.47v1.53c0,0.26,0.21,0.47,0.47,0.47h2.74
		c0.26,0,0.47-0.21,0.47-0.47v-1.53C46.01,49.99,45.8,49.77,45.53,49.77z"/>
	<path class="st0" d="M10.57,33.38v-1.87c0-0.46-0.69-0.83-1.55-0.83s-1.55,0.37-1.55,0.83v1.87H5.6c-0.46,0-0.83,0.69-0.83,1.55
		c0,0.85,0.37,1.55,0.83,1.55h1.87v1.87c0,0.46,0.69,0.83,1.55,0.83s1.55-0.37,1.55-0.83v-1.87h1.87c0.46,0,0.83-0.69,0.83-1.55
		c0-0.85-0.37-1.55-0.83-1.55H10.57z"/>
	<path class="st0" d="M55.47,23.04h-7.24V11.41c0-0.87-0.71-1.58-1.58-1.58H17.28c-0.87,0-1.58,0.71-1.58,1.58v11.63H8.53
		C4.93,23.04,2,25.97,2,29.58v18.06c0,3.61,2.93,6.53,6.53,6.53h46.93c3.61,0,6.53-2.93,6.53-6.53V29.58
		C62,25.97,59.07,23.04,55.47,23.04z M18.86,13.98c0-0.47,0.38-0.84,0.84-0.84h24.38c0.47,0,0.84,0.38,0.84,0.84v20.09
		c0,0.47-0.38,0.84-0.84,0.84H19.7c-0.47,0-0.84-0.38-0.84-0.84V13.98z M9.02,40c-2.8,0-5.08-2.27-5.08-5.08
		c0-2.8,2.27-5.08,5.08-5.08s5.08,2.27,5.08,5.08C14.1,37.73,11.83,40,9.02,40z M48.23,53.67H15.7V39.61c0,0.87,0.71,1.58,1.58,1.58
		h29.37c0.87,0,1.58-0.71,1.58-1.58V53.67z M51.78,28.27c0.82,0,1.48,0.66,1.48,1.48s-0.66,1.48-1.48,1.48s-1.48-0.66-1.48-1.48
		S50.96,28.27,51.78,28.27z M52.19,38.6c-1.05,0-1.9-0.85-1.9-1.9c0-1.05,0.85-1.9,1.9-1.9c1.05,0,1.9,0.85,1.9,1.9
		C54.09,37.75,53.24,38.6,52.19,38.6z M57.38,34.92c-1.05,0-1.9-0.85-1.9-1.9c0-1.05,0.85-1.9,1.9-1.9c1.05,0,1.9,0.85,1.9,1.9
		C59.28,34.06,58.43,34.92,57.38,34.92z"/>
</g>
</svg>
