<svg xmlns="http://www.w3.org/2000/svg" xml:space="preserve" width="64" height="64" viewBox="0 128 64 64"><path d="M10.417 153.45H54.39l-.484-5.34c-.198-2.126-1.82-2.047-1.82-2.047H12.962s-1.627-.025-1.82 2.047zm8.749-5.003c.07-.562.406-1.024.91-1.024h30.68c.202 0 .755-.208.91 1.024l.297 2.377c.07.563-.407 1.024-.91 1.024H19.778c-.503 0-.98-.461-.91-1.024zm34.116 5.833H11.459c-1.117 0-1.766.263-2.254 1.291l-7.324 15.446c-.489 1.03 1.137 1.008 2.254 1.008h55.91c1.116 0 2.712.038 2.253-1.008l-6.762-15.446c-.457-1.044-1.137-1.29-2.254-1.29m3.953 14.918c.213.6-.504.553-1.128.553h-42.96c-.622 0-1.14.046-.926-.553l4.508-12.659c.213-.599.304-1.152.927-1.152H51.82c.623 0 .693.553.906 1.152z" style="fill:#fff" transform="translate(-2.209 91.015)"/><path d="M40.379 148.042h-14.1c-.28 0-.554.107-.566.21l-.323 2.743c-.012.105.286.211.567.211h14.745c.28 0 .58-.106.567-.21l-.323-2.743c-.012-.105-.286-.211-.567-.211m6.671 0h-3.002c-.07 0-.128.107-.14.21l-.324 2.743c-.012.105.071.211.14.211h3.648c.07 0 .153-.106.14-.21l-.322-2.743c-.012-.105-.07-.211-.14-.211m-42.954 28.33h55.886c.897 0 1.79-.327 1.811-1.31v-2.266H2.285v2.265c0 .984.914 1.31 1.811 1.31" style="fill:#fff" transform="translate(-2.209 91.015)"/><path d="M19.383 156.896H50.44l.564 1.584H18.818zm-1.226 3.025h33.505l.645 1.833H17.51z" style="fill:none;fill-rule:evenodd;stroke:#fff;stroke-width:.80000001;stroke-linecap:round;stroke-linejoin:round;stroke-miterlimit:4;stroke-dasharray:none;stroke-opacity:1" transform="translate(-2.209 91.015)"/><path d="M16.986 163.188h35.845l1.824 5.173H15.16z" style="fill:none;fill-opacity:1;fill-rule:evenodd;stroke:#fff;stroke-width:.80000001;stroke-linecap:round;stroke-linejoin:round;stroke-miterlimit:4;stroke-dasharray:none;stroke-opacity:1" transform="translate(-2.209 91.015)"/><path d="M10.417 153.45H54.39l-.484-5.34c-.198-2.126-1.82-2.047-1.82-2.047H12.962s-1.627-.025-1.82 2.047zm8.749-5.003c.07-.562.406-1.024.91-1.024h30.68c.202 0 .755-.208.91 1.024l.297 2.377c.07.563-.407 1.024-.91 1.024H19.778c-.503 0-.98-.461-.91-1.024zm34.116 5.833H11.459c-1.117 0-1.766.263-2.254 1.291l-7.324 15.446c-.489 1.03 1.137 1.008 2.254 1.008h55.91c1.116 0 2.712.038 2.253-1.008l-6.762-15.446c-.457-1.044-1.137-1.29-2.254-1.29m3.953 14.918c.213.6-.504.553-1.128.553h-42.96c-.622 0-1.14.046-.926-.553l4.508-12.659c.213-.599.304-1.152.927-1.152H51.82c.623 0 .693.553.906 1.152z" style="fill:#fff" transform="translate(-2.209 52.526)"/><path d="M25.58 156.568h-1.007c-.032 0-.052.037-.064.07l-.321.915c-.012.033.032.07.063.07h1.65c.032 0 .076-.037.064-.07l-.321-.915c-.012-.033-.032-.07-.064-.07m21.696 0H46.27c-.031 0-.052.037-.063.07l-.322.915c-.012.033.032.07.063.07h1.651c.032 0 .076-.037.064-.07l-.322-.915c-.012-.033-.032-.07-.064-.07m2.711 0h-1.007c-.031 0-.052.037-.063.07l-.322.915c-.012.033.032.07.063.07h1.651c.032 0 .076-.037.064-.07l-.322-.915c-.012-.033-.032-.07-.064-.07m-5.424 0h-1.007c-.031 0-.052.037-.063.07l-.322.915c-.012.033.032.07.063.07h1.651c.032 0 .076-.037.064-.07l-.322-.915c-.012-.033-.032-.07-.064-.07m-2.712 0h-1.007c-.031 0-.052.037-.064.07l-.321.915c-.012.033.032.07.063.07h1.651c.032 0 .076-.037.064-.07l-.322-.915c-.012-.034-.032-.07-.064-.07m-2.712 0h-1.007c-.032 0-.052.037-.064.07l-.321.915c-.012.033.032.07.063.07h1.651c.032 0 .075-.037.064-.07l-.322-.915c-.012-.033-.032-.07-.064-.07m-2.712 0h-1.007c-.032 0-.052.037-.064.07l-.321.915c-.012.033.032.07.063.07h1.651c.032 0 .075-.037.064-.07l-.322-.915c-.012-.033-.032-.07-.064-.07m-5.424 0h-1.007c-.032 0-.052.037-.064.07l-.321.915c-.012.033.032.07.063.07h1.651c.031 0 .075-.037.063-.07l-.321-.915c-.012-.033-.032-.07-.064-.07m-2.712 0h-1.007c-.032 0-.052.037-.064.07l-.321.915c-.012.033.032.07.063.07h1.651c.031 0 .075-.037.063-.07l-.321-.915c-.012-.033-.032-.07-.064-.07m5.424 0H32.71c-.032 0-.052.037-.064.07l-.321.915c-.012.033.032.07.063.07h1.651c.031 0 .075-.037.064-.07l-.322-.915c-.012-.033-.032-.07-.064-.07" style="fill:#fff" transform="matrix(1.16324 0 0 .73328 -10.519 94.112)"/><path d="M40.379 148.042h-14.1c-.28 0-.554.107-.566.21l-.323 2.743c-.012.105.286.211.567.211h14.745c.28 0 .58-.106.567-.21l-.323-2.743c-.012-.105-.286-.211-.567-.211m6.671 0h-3.002c-.07 0-.128.107-.14.21l-.324 2.743c-.012.105.071.211.14.211h3.648c.07 0 .153-.106.14-.21l-.322-2.743c-.012-.105-.07-.211-.14-.211m-42.954 28.33h55.886c.897 0 1.791-.327 1.811-1.31l.047-2.266H2.285v2.265c0 .984.914 1.31 1.811 1.31" style="fill:#fff" transform="translate(-2.209 52.526)"/><path d="M23.317 158.47h-1.194c-.038 0-.062.049-.076.094l-.381 1.233c-.014.045.038.094.075.094h1.957c.037 0 .09-.049.075-.094l-.381-1.233c-.014-.045-.038-.094-.075-.094m25.716 0h-1.194c-.037 0-.061.049-.075.094l-.382 1.233c-.014.045.038.094.076.094h1.956c.038 0 .09-.049.076-.094l-.382-1.233c-.014-.045-.038-.094-.075-.094m3.214 0h-1.193c-.038 0-.062.049-.076.094l-.381 1.233c-.014.045.038.094.075.094h1.957c.037 0 .09-.049.075-.094l-.381-1.233c-.014-.045-.038-.094-.076-.094m-6.429 0h-1.194c-.037 0-.06.049-.075.094l-.381 1.233c-.014.045.038.094.075.094H46.2c.037 0 .09-.049.075-.094l-.381-1.233c-.014-.045-.038-.094-.076-.094m-3.214 0H41.41c-.037 0-.061.049-.075.094l-.382 1.233c-.014.045.038.094.075.094h1.957c.038 0 .09-.049.076-.094l-.382-1.233c-.014-.045-.038-.094-.075-.094m-3.214 0h-1.195c-.037 0-.06.049-.075.094l-.381 1.233c-.014.045.038.094.075.094h1.957c.037 0 .09-.049.075-.094l-.381-1.233c-.014-.045-.038-.094-.076-.094m-3.214 0H34.98c-.037 0-.061.049-.075.094l-.382 1.233c-.014.045.038.094.075.094h1.957c.038 0 .09-.049.075-.094l-.381-1.233c-.014-.045-.038-.094-.075-.094m-6.428 0h-1.194c-.038 0-.061.049-.076.094l-.38 1.233c-.015.045.037.094.074.094h1.957c.037 0 .09-.049.075-.094l-.381-1.233c-.014-.045-.038-.094-.075-.094m-3.215 0h-1.194c-.037 0-.061.049-.075.094l-.381 1.233c-.015.045.037.094.075.094h1.957c.037 0 .089-.049.075-.094l-.382-1.233c-.014-.045-.038-.094-.075-.094m6.429 0h-1.194c-.037 0-.06.049-.075.094l-.381 1.233c-.014.045.038.094.075.094h1.957c.037 0 .089-.049.075-.094l-.381-1.233c-.015-.045-.038-.094-.076-.094" style="fill:#fff" transform="matrix(1.0957 0 0 .65054 -8.206 108.151)"/><path d="M17.644 155.957h34.187l.487 1.694H17.11z" style="fill:none;fill-rule:evenodd;stroke:#fff;stroke-width:.21655641;stroke-linecap:butt;stroke-linejoin:miter;stroke-miterlimit:4;stroke-dasharray:none;stroke-opacity:1" transform="translate(-2.209 52.526)"/><path d="M16.82 158.258h35.671l.615 1.833H16.217z" style="fill:none;fill-rule:evenodd;stroke:#fff;stroke-width:.21545507;stroke-linecap:butt;stroke-linejoin:miter;stroke-miterlimit:4;stroke-dasharray:none;stroke-opacity:1" transform="translate(-2.209 52.526)"/><path d="M16.024 161.146h37.307l3.006 7.976H13.324z" style="fill:none;fill-rule:evenodd;stroke:#fff;stroke-width:.21452904;stroke-linecap:butt;stroke-linejoin:miter;stroke-miterlimit:4;stroke-dasharray:none;stroke-opacity:1" transform="translate(-2.209 52.526)"/><path d="M23.317 158.47h-1.194c-.038 0-.062.049-.076.094l-.381 1.233c-.014.045.038.094.075.094h1.957c.037 0 .09-.049.075-.094l-.381-1.233c-.014-.045-.038-.094-.075-.094m25.716 0h-1.194c-.037 0-.061.049-.075.094l-.382 1.233c-.014.045.038.094.076.094h1.956c.038 0 .09-.049.076-.094l-.382-1.233c-.014-.045-.038-.094-.075-.094m3.214 0h-1.193c-.038 0-.062.049-.076.094l-.381 1.233c-.014.045.038.094.075.094h1.957c.037 0 .09-.049.075-.094l-.381-1.233c-.014-.045-.038-.094-.076-.094m-6.429 0h-1.194c-.037 0-.06.049-.075.094l-.381 1.233c-.014.045.038.094.075.094H46.2c.037 0 .09-.049.075-.094l-.381-1.233c-.014-.045-.038-.094-.076-.094m-3.214 0H41.41c-.037 0-.061.049-.075.094l-.382 1.233c-.014.045.038.094.075.094h1.957c.038 0 .09-.049.076-.094l-.382-1.233c-.014-.045-.038-.094-.075-.094m-3.214 0h-1.195c-.037 0-.06.049-.075.094l-.381 1.233c-.014.045.038.094.075.094h1.957c.037 0 .09-.049.075-.094l-.381-1.233c-.014-.045-.038-.094-.076-.094m-3.214 0H34.98c-.037 0-.061.049-.075.094l-.382 1.233c-.014.045.038.094.075.094h1.957c.038 0 .09-.049.075-.094l-.381-1.233c-.014-.045-.038-.094-.075-.094m-6.428 0h-1.194c-.038 0-.061.049-.076.094l-.38 1.233c-.015.045.037.094.074.094h1.957c.037 0 .09-.049.075-.094l-.381-1.233c-.014-.045-.038-.094-.075-.094m-3.215 0h-1.194c-.037 0-.061.049-.075.094l-.381 1.233c-.015.045.037.094.075.094h1.957c.037 0 .089-.049.075-.094l-.382-1.233c-.014-.045-.038-.094-.075-.094m6.429 0h-1.194c-.037 0-.06.049-.075.094l-.381 1.233c-.014.045.038.094.075.094h1.957c.037 0 .089-.049.075-.094l-.381-1.233c-.015-.045-.038-.094-.076-.094" style="fill:#fff" transform="matrix(1.18267 0 0 .82783 -11.471 82.982)"/><path d="M22.234 166.683h-1.297c-.04 0-.066.054-.081.103l-.415 1.338c-.015.05.042.103.082.103h2.125c.04 0 .097-.054.082-.103l-.414-1.338c-.015-.05-.041-.103-.082-.103m24.44 0h-1.297c-.04 0-.067.054-.082.103l-.414 1.338c-.015.05.041.103.082.103h2.125c.04 0 .097-.054.082-.103l-.415-1.338c-.015-.05-.04-.103-.081-.103m-3.492 0h-1.296c-.04 0-.067.054-.082.103l-.414 1.338c-.016.05.04.103.081.103h2.126c.04 0 .097-.054.081-.103l-.414-1.338c-.015-.05-.041-.103-.082-.103m-3.491 0h-1.297c-.04 0-.066.054-.082.103l-.414 1.338c-.015.05.041.103.082.103h2.125c.04 0 .097-.053.082-.103l-.414-1.338c-.016-.05-.042-.103-.082-.103m-3.491 0h-1.297c-.04 0-.067.054-.082.103l-.414 1.338c-.015.05.041.103.082.103h2.125c.04 0 .097-.054.082-.103l-.415-1.338c-.015-.05-.04-.103-.081-.103m-6.983 0H27.92c-.04 0-.066.054-.082.103l-.414 1.338c-.015.05.041.103.082.103h2.125c.04 0 .097-.053.082-.103l-.414-1.338c-.016-.05-.042-.103-.082-.103m-3.492 0H24.43c-.04 0-.067.054-.082.103l-.414 1.338c-.016.05.04.103.081.103h2.126c.04 0 .097-.053.081-.103l-.414-1.338c-.015-.05-.041-.103-.082-.103m6.982 0h-1.297c-.04 0-.066.054-.081.103l-.415 1.338c-.015.05.042.103.082.103h2.125c.041 0 .098-.053.082-.103l-.414-1.338c-.015-.05-.041-.103-.082-.103" style="fill:#fff" transform="matrix(1.2372 0 0 .82437 -9.128 78.582)"/><path d="M22.234 166.683h-1.297c-.04 0-.066.054-.081.103l-.415 1.338c-.015.05.042.103.082.103h2.125c.04 0 .097-.054.082-.103l-.414-1.338c-.015-.05-.041-.103-.082-.103m27.931 0h-1.297c-.04 0-.066.054-.081.103l-.415 1.338c-.015.05.042.103.082.103h2.125c.04 0 .097-.054.082-.103l-.414-1.338c-.015-.05-.041-.103-.082-.103m-3.491 0h-1.297c-.04 0-.067.054-.082.103l-.414 1.338c-.015.05.041.103.082.103h2.125c.04 0 .097-.054.082-.103l-.415-1.338c-.015-.05-.04-.103-.081-.103m-3.492 0h-1.296c-.04 0-.067.054-.082.103l-.414 1.338c-.016.05.04.103.081.103h2.126c.04 0 .097-.054.081-.103l-.414-1.338c-.015-.05-.041-.103-.082-.103m-3.491 0h-1.297c-.04 0-.066.054-.082.103l-.414 1.338c-.015.05.041.103.082.103h2.125c.04 0 .097-.053.082-.103l-.414-1.338c-.016-.05-.042-.103-.082-.103m-3.491 0h-1.297c-.04 0-.067.054-.082.103l-.414 1.338c-.015.05.041.103.082.103h2.125c.04 0 .097-.054.082-.103l-.415-1.338c-.015-.05-.04-.103-.081-.103m-6.983 0H27.92c-.04 0-.066.054-.082.103l-.414 1.338c-.015.05.041.103.082.103h2.125c.04 0 .097-.053.082-.103l-.414-1.338c-.016-.05-.042-.103-.082-.103m-3.492 0H24.43c-.04 0-.067.054-.082.103l-.414 1.338c-.016.05.04.103.081.103h2.126c.04 0 .097-.053.081-.103l-.414-1.338c-.015-.05-.041-.103-.082-.103m6.982 0h-1.297c-.04 0-.066.054-.081.103l-.415 1.338c-.015.05.042.103.082.103h2.125c.041 0 .098-.053.082-.103l-.414-1.338c-.015-.05-.041-.103-.082-.103" style="fill:#fff" transform="matrix(1.26918 0 0 .9195 -12.442 64.523)"/><path d="M46.235 167.12H27.446c-.38 0-.747.047-.769.096l-.576 1.255c-.022.049.388.096.77.096h20.003c.381 0 .794-.047.77-.096l-.64-1.255c-.025-.049-.388-.097-.77-.097" style="fill:#fff" transform="translate(-2.209 52.526)"/><path d="M16.464 154.603h35.702l-.635-3.654c-.184-1.693-1.927-2.123-1.927-2.123H18.826s-1.336.473-1.515 2.123zm7.566-3.386c.07-.445.377-.815.844-.815h22.669c.188 0 .696-.163.844.815l.285 1.893c.068.447-.377.815-.844.815H24.575c-.467 0-.915-.37-.845-.815z" style="fill:#fff" transform="translate(-3.109 126.739)"/><path d="M51.25 154.112H16.115c-1.052 0-1.453.38-2.122 1.237L3.709 168.517c-.67.86 1.07.966 2.122.966h54.327c1.051 0 2.734-.062 2.122-.966l-8.907-13.168c-.61-.903-1.07-1.237-2.122-1.237m6.452 13.51c.326.513-.474.53-1.061.53H17.139c-.587 0-1.18-.005-.873-.53l6.624-11.345c.307-.526.447-1.104 1.034-1.104h25.422c.587 0 .811.59 1.138 1.104z" style="fill:#fff" transform="translate(-3.109 126.739)"/><path d="M40.217 151.541h-9.89c-.205 0-.414.044-.415.088l-.03 1.136c-.002.044.209.087.415.087h9.95c.206 0 .417-.043.416-.087l-.03-1.136c-.002-.044-.21-.088-.416-.088" style="fill:#fff;stroke:#fff;stroke-width:.62776208;stroke-linecap:round;stroke-linejoin:round;stroke-opacity:1" transform="translate(-3.109 126.739)"/><path d="M45.266 151.541h-1.499c-.047 0-.092.044-.094.088l-.058 1.136c-.002.043.048.087.095.087h1.613c.047 0 .097-.043.095-.087l-.058-1.136c-.002-.044-.047-.088-.094-.088z" style="fill:#fff;stroke:#fff;stroke-width:.62776208;stroke-opacity:1" transform="translate(-3.109 126.739)"/><path d="M25.198 156.211h23.085l.435.885h-24.02z" style="fill:#fff;fill-opacity:1;fill-rule:evenodd;stroke:#fff;stroke-width:.42336494;stroke-linecap:round;stroke-linejoin:round;stroke-miterlimit:4;stroke-dasharray:none;stroke-opacity:1" transform="translate(-3.109 126.739)"/><path d="M23.833 158.556h26.06l.925 1.604H22.986z" style="fill:#fff;fill-opacity:1;fill-rule:evenodd;stroke:#fff;stroke-width:.4243935;stroke-linecap:round;stroke-linejoin:round;stroke-miterlimit:4;stroke-dasharray:none;stroke-opacity:1" transform="translate(-3.109 126.739)"/><path d="M22.176 161.696h29.542l2.804 4.876h-34.92z" style="fill:#fff;fill-opacity:1;fill-rule:evenodd;stroke:#fff;stroke-width:.39612156;stroke-linecap:round;stroke-linejoin:round;stroke-miterlimit:4;stroke-dasharray:none;stroke-opacity:1" transform="translate(-3.109 126.739)"/><path d="M9.837 171.743h46.301l3.54-1.37H6.338z" style="fill:#fff" transform="translate(-3.109 126.739)"/><path d="M70.609 207.038h43.974l-.485-5.34c-.198-2.127-1.82-2.048-1.82-2.048H73.154s-1.627-.025-1.82 2.048zm8.749-5.004c.07-.562.407-1.024.91-1.024h30.68c.202 0 .755-.208.91 1.024l.297 2.377c.07.563-.407 1.024-.91 1.024H79.97c-.503 0-.98-.461-.91-1.024zm34.116 5.833H71.65c-1.117 0-1.766.263-2.254 1.291l-7.324 15.446c-.489 1.03 1.137 1.008 2.254 1.008h55.91c1.116 0 2.712.038 2.254-1.008l-6.763-15.446c-.457-1.044-1.137-1.29-2.254-1.29m3.953 14.918c.213.6-.504.553-1.127.553H73.34c-.623 0-1.14.046-.927-.553l4.508-12.658c.214-.6.304-1.153.927-1.153h34.164c.623 0 .693.553.906 1.153z" style="fill:#fff" transform="translate(-60.037 -54.75)"/><path d="M100.571 201.776H86.472c-.28 0-.553.107-.567.21l-.323 2.369c-.014.104.286.21.567.21h14.745c.28 0 .581-.106.567-.21l-.323-2.368c-.014-.104-.286-.211-.567-.211m6.671 0h-3.002c-.07 0-.126.107-.14.21l-.323 2.369c-.015.104.07.21.14.21h3.648c.07 0 .154-.106.14-.21l-.323-2.368c-.014-.104-.07-.211-.14-.211m-42.953 28.183h55.885c.898 0 1.79-.327 1.811-1.31v-2.266H62.477v2.265c0 .984.914 1.31 1.812 1.31" style="fill:#fff" transform="translate(-60.037 -54.75)"/><path d="M80.2 210.483h29.745l.565 1.584H79.635zm-1.226 3.459h32.192l.646 1.833H78.327zm-1.322 3.458h34.782l1.637 4.548H76.036z" style="fill:#fff;fill-opacity:1;fill-rule:evenodd;stroke:#fff;stroke-width:.80000001;stroke-linecap:round;stroke-linejoin:round;stroke-miterlimit:4;stroke-dasharray:none;stroke-opacity:1" transform="translate(-60.037 -54.75)"/></svg>