<svg xmlns="http://www.w3.org/2000/svg" xml:space="preserve" width="256" height="256"><defs><clipPath id="a" clipPathUnits="userSpaceOnUse"><path d="M0 64h64V0H0Z"/></clipPath></defs><g clip-path="url(#a)" transform="matrix(4 0 0 -4 -.001 256)"><path d="M53 24H13v16h40zm0 18H13c-1.1 0-2-.9-2-2V24c0-1.1.9-2 2-2h40c1.1 0 2 .9 2 2v16c0 1.1-.9 2-2 2" style="fill:#fff;fill-opacity:1;fill-rule:nonzero;stroke:none"/><path d="M38 35h-9v4h9z" style="fill:#fff;fill-opacity:1;fill-rule:nonzero;stroke:none"/><path d="m0 0-2.024.124v-8L0-7.753c1.102.067 1.976 1.234 1.976 2.594v2.565C1.976-1.233 1.102-.067 0 0" style="fill:#fff;fill-opacity:1;fill-rule:nonzero;stroke:none" transform="translate(58.024 35.877)"/><path d="M0 0c-.901-.055-1.64-.848-1.883-1.876h-1.093a1 1 0 0 1-1-1v-2a1 1 0 0 1 1-1h1.093C-1.64-6.905-.901-7.698 0-7.753l2.024-.123v8z" style="fill:#fff;fill-opacity:1;fill-rule:nonzero;stroke:none" transform="translate(7.976 35.877)"/></g></svg>