<svg xmlns="http://www.w3.org/2000/svg" xml:space="preserve" width="256" height="256"><defs><clipPath id="a" clipPathUnits="userSpaceOnUse"><path d="M0 64h64V0H0Z"/></clipPath></defs><g clip-path="url(#a)" style="stroke-width:.33333334" transform="matrix(4 0 0 -4 0 256)"><g style="stroke-width:.33333334"><path d="M0 0h-7a2 2 0 0 1 0-4h7a2 2 0 0 1 0 4m19-7h-1v-12h1zm-2 0h-1v-12h1zm-2 0h-1v-12h1zm-2 0h-1v-12h1zm-2 0h-1v-12h1zM9-7H8v-12h1ZM7-7H6v-12h1ZM5-7H4v-12h1ZM3-7H2v-12h1ZM1-7H0v-12h1zm-2 0h-1v-12h1zm-2 0h-1v-12h1zm-2 0h-1v-12h1zm-2 0h-1v-12h1zm-2 0h-1v-12h1zm-2 0h-1v-12h1zm-2 0h-1v-12h1zm-2 0h-1v-12h1zm-2 0h-1v-12h1zm-2 0h-1v-12h1zm-2 0h-1v-12h1zm-2 0h-1v-12h1zm-2 0h-1v-12h1zm-2 0h-1v-12h1zm1 7h15a1 1 0 0 0 1-1v-3a1 1 0 0 1 1-1H2a1 1 0 0 1 1 1v3a1 1 0 0 0 1 1h14a1 1 0 0 1 1 1v7a1 1 0 0 1-1 1h-44a1 1 0 0 1-1-1V1a1 1 0 0 1 1-1m49-7h-3v-13h-49v13h-2v21h54zm-5 8.465v.07a.465.465 0 0 1-.466.465h-43.069A.465.465 0 0 1-26 1.535v-.07c0-.257.208-.465.465-.465h43.069c.258 0 .466.208.466.465M-25.535 3h43.069c.258 0 .466.208.466.465v.07a.465.465 0 0 1-.466.465h-43.069A.465.465 0 0 1-26 3.535v-.07c0-.257.208-.465.465-.465m0 2h43.069c.258 0 .466.208.466.465v.07a.465.465 0 0 1-.466.465h-43.069A.465.465 0 0 1-26 5.535v-.07c0-.257.208-.465.465-.465M-26 7.465v.07c0 .257.208.465.465.465h43.069A.465.465 0 0 0 18 7.535v-.07A.465.465 0 0 0 17.534 7h-43.069a.465.465 0 0 0-.465.465" style="fill:#fff;fill-opacity:1;fill-rule:nonzero;stroke:none;stroke-width:.33333334" transform="translate(36 35)"/></g></g></svg>