<svg xmlns="http://www.w3.org/2000/svg" xml:space="preserve" width="256" height="256"><path d="m253.952 93.642-.714.306zc-.001 0-.001-.14-.351-.14h-39.529l-34.455 34.522V93.727c0-.663-.119-.761-.119-.761h-.001c-.001-.001-.148-.165-.613.294-.161.169-22.27 22.324-22.27 22.324l-.061.118-.01-.073V93.486c0-.335-.251-.395-.251-.395v-.001s-.374-.105-.795.384c-.162.17-40.542 40.502-40.561 40.52l.007-40.634c0-.336-.26-.404-.26-.404s-.365-.094-.785.394c-.162.17-36.122 36.123-36.122 36.123l-.011.02-.007-.036.008-36.47c0-.33-.079-.322-.081-.322l.001-.002s-.094-.068-.241.118c-.163.169-22.68 22.68-22.68 22.68v.002-22.247c0-.221-.135-.254-.135-.254-.003 0-.114-.066-.208.014S2.045 145.352 2.045 145.352c-.148.216.122.198.122.198h20.899l21.353-21.405.035 21.865c-.011.48.36.512.36.512v-.001c.004 0 .382.043.536-.125l18.674-18.7v-.005.002l.035 15.617-19.586 19.509c-.152.209.105.18.105.18l.004-.001h21.196c.199-.196 35.254-35.181 35.273-35.2l.04 17.173c.001.58.327.793.327.792v.002s.213.152.361.149l22.975.013h.002l21.54-21.524.036 21.73c.019.246.287.31.289.31l.001-.002c.016.005.208.062.451-.18l18.78-18.764v14.547l-3.231 3.246c-.183.185-.113.249-.113.249s.08.128.232.12h3.442l.121-.133.001-.001 51.069.014v-.001l12.862-12.774c.28-.36.103-.554.103-.556-.001-.004-.056-.187-.294-.186l-34.664-.001 5.997-6.01h11.003l13.096-13.093c.173-.383-.011-.514-.011-.514s-.043-.084-.197-.065h-10.05q.014-.016.03-.028l5.651-5.7h20.664l12.291-12.335c.253-.257.097-.634.097-.634" style="fill:#fff"/></svg>