<?xml version="1.0" encoding="utf-8"?>
<!-- Generator: Adobe Illustrator 26.3.1, SVG Export Plug-In . SVG Version: 6.00 Build 0)  -->
<svg version="1.1"
	 id="Layer_1" xmlns:svg="http://www.w3.org/2000/svg" xmlns:rdf="http://www.w3.org/1999/02/22-rdf-syntax-ns#" xmlns:dc="http://purl.org/dc/elements/1.1/" xmlns:cc="http://creativecommons.org/ns#"
	 xmlns="http://www.w3.org/2000/svg" xmlns:xlink="http://www.w3.org/1999/xlink" x="0px" y="0px" viewBox="0 0 256 256"
	 style="enable-background:new 0 0 256 256;" xml:space="preserve">
<style type="text/css">
	.st0{enable-background:new    ;}
	.st1{fill:#FFFFFF;}
	.st2{fill-rule:evenodd;clip-rule:evenodd;fill:#FFFFFF;}
</style>
<g id="g831" transform="translate(89.429808,32.993504)">
	<g class="st0">
		<path class="st1" d="M25.06,139.51H6.97l0.88-3.81c1.71-1.09,3.32-2.17,4.83-3.23s2.78-2.02,3.82-2.86
			c1.61-1.3,2.79-2.47,3.54-3.5c0.75-1.04,1.13-2.03,1.13-2.98c0-0.9-0.3-1.56-0.9-1.99c-0.6-0.43-1.42-0.64-2.48-0.64
			c-1.07,0-2.17,0.18-3.28,0.55c-1.11,0.37-2.18,0.88-3.19,1.54h-0.5l1.14-5.12c0.76-0.31,1.91-0.63,3.45-0.95
			c1.54-0.32,2.99-0.49,4.36-0.49c2.49,0,4.39,0.46,5.71,1.38c1.32,0.92,1.98,2.29,1.98,4.1c0,1.88-0.5,3.54-1.49,4.97
			c-0.99,1.44-2.56,3.01-4.72,4.71c-1.06,0.84-2.08,1.58-3.04,2.24c-0.96,0.66-1.8,1.22-2.51,1.67h10.35L25.06,139.51z"/>
		<path class="st1" d="M50.51,123.55c0,2.13-0.25,4.2-0.74,6.23c-0.5,2.03-1.22,3.78-2.18,5.26c-1.09,1.65-2.37,2.89-3.83,3.72
			c-1.46,0.83-3.12,1.24-4.99,1.24c-2.69,0-4.75-0.61-6.19-1.83c-1.43-1.22-2.15-3.13-2.15-5.72c0-2.21,0.24-4.29,0.73-6.25
			c0.48-1.96,1.22-3.7,2.2-5.24c0.98-1.53,2.22-2.74,3.72-3.62c1.5-0.89,3.22-1.33,5.15-1.33c2.75,0,4.82,0.63,6.21,1.9
			C49.82,119.15,50.51,121.04,50.51,123.55z M44.54,123.79c0-1.21-0.22-2.1-0.66-2.67c-0.44-0.58-1.09-0.87-1.96-0.87
			c-0.81,0-1.58,0.37-2.3,1.1c-0.72,0.73-1.33,1.78-1.85,3.14c-0.45,1.19-0.8,2.48-1.03,3.89c-0.23,1.41-0.35,2.68-0.35,3.83
			c0,1.22,0.22,2.11,0.65,2.68s1.11,0.86,2.04,0.86c0.89,0,1.67-0.4,2.35-1.2c0.68-0.8,1.25-1.81,1.72-3.04
			c0.43-1.14,0.77-2.41,1.01-3.79C44.42,126.33,44.54,125.03,44.54,123.79z"/>
		<path class="st1" d="M73.04,123.55c0,2.13-0.25,4.2-0.74,6.23c-0.5,2.03-1.22,3.78-2.18,5.26c-1.09,1.65-2.37,2.89-3.83,3.72
			c-1.46,0.83-3.12,1.24-4.99,1.24c-2.69,0-4.76-0.61-6.19-1.83c-1.43-1.22-2.15-3.13-2.15-5.72c0-2.21,0.24-4.29,0.73-6.25
			c0.48-1.96,1.22-3.7,2.2-5.24c0.98-1.53,2.22-2.74,3.72-3.62s3.22-1.33,5.14-1.33c2.75,0,4.82,0.63,6.21,1.9
			C72.35,119.15,73.04,121.04,73.04,123.55z M67.07,123.79c0-1.21-0.22-2.1-0.66-2.67s-1.09-0.87-1.96-0.87
			c-0.82,0-1.58,0.37-2.3,1.1c-0.72,0.73-1.33,1.78-1.85,3.14c-0.45,1.19-0.8,2.48-1.03,3.89c-0.23,1.41-0.35,2.68-0.35,3.83
			c0,1.22,0.22,2.11,0.65,2.68s1.11,0.86,2.04,0.86c0.89,0,1.67-0.4,2.35-1.2c0.68-0.8,1.25-1.81,1.72-3.04
			c0.43-1.14,0.77-2.41,1.01-3.79C66.95,126.33,67.07,125.03,67.07,123.79z"/>
		<path class="st1" d="M90.63,137.77c-1.02,0.73-2.18,1.29-3.47,1.66c-1.29,0.38-2.74,0.56-4.34,0.56c-1.87,0-3.53-0.17-5-0.52
			c-1.46-0.34-2.66-0.75-3.59-1.23l1.08-5.01l0.6,0.02c0.94,0.67,1.99,1.21,3.16,1.61c1.17,0.4,2.32,0.6,3.45,0.6
			c1.66,0,2.96-0.31,3.89-0.93c0.93-0.62,1.4-1.51,1.4-2.66c0-0.48-0.09-0.88-0.27-1.19s-0.47-0.55-0.87-0.73
			c-0.43-0.2-0.98-0.32-1.64-0.38c-0.66-0.06-1.4-0.08-2.23-0.08h-1.27l0.88-4.08h1.32c2.11,0,3.59-0.23,4.43-0.69
			c0.84-0.46,1.26-1.15,1.26-2.09c0-0.74-0.35-1.29-1.06-1.64c-0.71-0.35-1.68-0.52-2.93-0.52c-1.07,0-2.2,0.17-3.37,0.51
			c-1.18,0.34-2.23,0.74-3.16,1.2l-0.57-0.02l1.07-4.97c0.92-0.31,2.06-0.59,3.43-0.83c1.37-0.24,2.71-0.36,4.01-0.36
			c1.32,0,2.5,0.1,3.54,0.3s1.93,0.5,2.68,0.9c0.78,0.42,1.39,0.96,1.82,1.61c0.43,0.65,0.64,1.46,0.64,2.45
			c0,0.94-0.16,1.77-0.49,2.48c-0.32,0.72-0.76,1.31-1.31,1.79c-0.53,0.46-1.13,0.85-1.81,1.15s-1.35,0.52-2,0.67l-0.05,0.22
			c1.12,0.19,2.07,0.63,2.82,1.34s1.14,1.63,1.14,2.77c0,1.28-0.29,2.44-0.87,3.48C92.39,136.19,91.61,137.07,90.63,137.77z"/>
	</g>
</g>
<path id="path2" class="st1" d="M253.95,93.64l-0.71,0.31L253.95,93.64c0,0,0-0.14-0.35-0.14h-39.53l0,0l-34.46,34.52v-34.3
	c0-0.66-0.12-0.76-0.12-0.76h0c0,0-0.15-0.17-0.61,0.29c-0.16,0.17-22.27,22.32-22.27,22.32s-0.02,0.04-0.06,0.12l-0.01-0.07V93.49
	c0-0.33-0.25-0.39-0.25-0.39v0c0,0-0.37-0.11-0.79,0.38c-0.16,0.17-40.54,40.5-40.56,40.52l0.01-40.63c0-0.34-0.26-0.4-0.26-0.4l0,0
	c0,0-0.36-0.09-0.79,0.39c-0.16,0.17-36.12,36.12-36.12,36.12s0,0.01-0.01,0.02l-0.01-0.04l0.01-36.47c0-0.33-0.08-0.32-0.08-0.32
	l0,0c0,0-0.09-0.07-0.24,0.12c-0.16,0.17-22.68,22.68-22.68,22.68v0c0-5.4,0-22.06,0-22.25c0-0.22-0.13-0.25-0.13-0.25v0
	c0,0-0.11-0.07-0.21,0.01S2.05,145.35,2.05,145.35c-0.15,0.22,0.12,0.2,0.12,0.2l0,0h20.9v0l21.35-21.41l0,0
	c0,0,0.03,21.46,0.03,21.86c-0.01,0.48,0.36,0.51,0.36,0.51v0c0,0,0.38,0.04,0.54-0.12c0.17-0.18,18.67-18.7,18.67-18.7v0v0
	l0.04,15.62v0l-19.59,19.51c-0.15,0.21,0.1,0.18,0.1,0.18l0,0h21.2v0c0.2-0.2,35.25-35.18,35.27-35.2l0.04,17.17
	c0,0.58,0.33,0.79,0.33,0.79v0c0,0,0.21,0.15,0.36,0.15l22.97,0.01h0l21.54-21.52l0.04,21.73c0.02,0.25,0.29,0.31,0.29,0.31l0,0
	c0.02,0.01,0.21,0.06,0.45-0.18l18.78-18.76v14.55l0,0l-3.23,3.25c-0.18,0.18-0.11,0.25-0.11,0.25s0.08,0.13,0.23,0.12h3.44
	l0.12-0.13l0,0l51.07,0.01v0l12.86-12.77c0.28-0.36,0.1-0.55,0.1-0.56l0,0c0,0-0.06-0.19-0.29-0.19l-34.66,0l6-6.01l0,0h11l0,0
	l13.1-13.09c0.17-0.38-0.01-0.51-0.01-0.51l0,0c0,0-0.04-0.08-0.2-0.07h-10.05c0.01-0.01,0.02-0.02,0.03-0.03l5.65-5.7l0,0h20.66
	l0,0l12.29-12.33C254.11,94.02,253.95,93.64,253.95,93.64L253.95,93.64z"/>
<path id="path28852" class="st2" d="M235.09,149.39l-11.89,14.59l3.61-14.28l-17.83,16.57c-3.05-1.53-4.88-3.57-4.88-5.9
	c0-5.49,10.12-10.53,22.54-11.23C229.63,148.97,232.48,149.07,235.09,149.39L235.09,149.39L235.09,149.39z M235.92,167.65
	l4.62-17.17c5.25,1.53,8.64,4.17,8.64,7.35C249.18,161.86,243.73,165.65,235.92,167.65L235.92,167.65z M213.4,179.81l5.16-18.75
	l-10.4,10.6c-5.86-2.16-9.42-5.53-9.39-9.45c0-7.22,12.4-13.64,27.61-14.3c3.37-0.14,6.6,0.01,9.59,0.41l7.7-9.45l-2.79,10.38
	c7.86,1.98,13.12,5.89,13.12,10.58c0,6.94-11.45,13.14-25.85,14.19l4.68-16.75L213.4,179.81L213.4,179.81"/>
</svg>
