<svg xmlns="http://www.w3.org/2000/svg" xml:space="preserve" width="64" height="64" viewBox="0 128 64 64"><rect width="32" height="40" x="16" y="140" ry="1.703" style="opacity:1;vector-effect:none;fill:none;fill-opacity:1;fill-rule:nonzero;stroke:#fff;stroke-width:4;stroke-linecap:round;stroke-linejoin:miter;stroke-miterlimit:4;stroke-dasharray:none;stroke-dashoffset:0;stroke-opacity:1;paint-order:markers stroke fill"/><path d="M21.61 15.957c-.892 0-1.61.718-1.61 1.61v4.78c0 .892.718 1.61 1.61 1.61h20.78c.892 0 1.61-.718 1.61-1.61v-4.78c0-.892-.718-1.61-1.61-1.61zm.39 3h13v2H22zm18 0a1 1 0 0 1 1 1 1 1 0 0 1-1 1 1 1 0 0 1-1-1 1 1 0 0 1 1-1" style="opacity:1;vector-effect:none;fill:#fff;fill-opacity:1;fill-rule:nonzero;stroke:none;stroke-width:3.93333316;stroke-linecap:round;stroke-linejoin:miter;stroke-miterlimit:4;stroke-dasharray:none;stroke-dashoffset:0;stroke-opacity:1;paint-order:markers stroke fill" transform="translate(0 128)"/><path d="M21.61 153.957c-.892 0-1.61.718-1.61 1.61v4.78c0 .892.718 1.61 1.61 1.61h20.78c.892 0 1.61-.718 1.61-1.61v-4.78c0-.892-.718-1.61-1.61-1.61zm.39 3h13v2H22Zm18 0a1 1 0 0 1 1 1 1 1 0 0 1-1 1 1 1 0 0 1-1-1 1 1 0 0 1 1-1m-18.39 7c-.892 0-1.61.718-1.61 1.61v4.78c0 .892.718 1.61 1.61 1.61h20.78c.892 0 1.61-.718 1.61-1.61v-4.78c0-.892-.718-1.61-1.61-1.61zm.39 3h13v2H22Zm18 0a1 1 0 0 1 1 1 1 1 0 0 1-1 1 1 1 0 0 1-1-1 1 1 0 0 1 1-1" style="opacity:1;vector-effect:none;fill:#fff;fill-opacity:1;fill-rule:nonzero;stroke:none;stroke-width:3.93333316;stroke-linecap:round;stroke-linejoin:miter;stroke-miterlimit:4;stroke-dasharray:none;stroke-dashoffset:0;stroke-opacity:1;paint-order:markers stroke fill"/></svg>