<?xml version="1.0" encoding="utf-8"?>
<!-- Generator: Adobe Illustrator 26.3.1, SVG Export Plug-In . SVG Version: 6.00 Build 0)  -->
<svg version="1.1"
	 id="Calque_1" xmlns:svg="http://www.w3.org/2000/svg" xmlns:sodipodi="http://sodipodi.sourceforge.net/DTD/sodipodi-0.dtd" xmlns:rdf="http://www.w3.org/1999/02/22-rdf-syntax-ns#" sodipodi:docname="menu_osd.svg" xmlns:inkscape="http://www.inkscape.org/namespaces/inkscape" xmlns:dc="http://purl.org/dc/elements/1.1/" xmlns:cc="http://creativecommons.org/ns#" inkscape:export-ydpi="360" inkscape:export-xdpi="360" inkscape:export-filename="/media/familia/DATOS/ultimos/png/ik91"
	 xmlns="http://www.w3.org/2000/svg" xmlns:xlink="http://www.w3.org/1999/xlink" x="0px" y="0px" viewBox="0 0 64 64"
	 style="enable-background:new 0 0 64 64;" xml:space="preserve">
<style type="text/css">
	.st0{opacity:0.99;fill:#FFFFFF;enable-background:new    ;}
</style>
<g>
	<path class="st0" d="M39.5,43h-15c-0.83,0-1.5,0.67-1.5,1.5s0.67,1.5,1.5,1.5h15c0.83,0,1.5-0.67,1.5-1.5S40.33,43,39.5,43z"/>
	<rect x="10" y="25" class="st0" width="2" height="6"/>
	<path class="st0" d="M49,15H15c-1.11,0-2,0.89-2,2v22c0,1.11,0.89,2,2,2h34c1.11,0,2-0.89,2-2V17C51,15.89,50.11,15,49,15z
		 M24.47,38.23h-2v-5h2V38.23z M23.47,29.62c-2.35,0-4.25-1.9-4.25-4.25c0-2.35,1.9-4.25,4.25-4.25s4.25,1.9,4.25,4.25
		C27.72,27.72,25.81,29.62,23.47,29.62z M28.73,38.23h-2v-5h2V38.23z M33,38.23h-2v-5h2V38.23z M37.27,38.23h-2v-5h2V38.23z
		 M41.53,38.23h-2v-5h2V38.23z M40.53,29.37c-2.21,0-4-1.79-4-4c0-2.21,1.79-4,4-4c2.21,0,4,1.79,4,4
		C44.53,27.58,42.74,29.37,40.53,29.37z"/>
	<rect x="52" y="25" class="st0" width="2" height="6"/>
</g>
</svg>
