<svg xmlns="http://www.w3.org/2000/svg" xml:space="preserve" width="64" height="64" viewBox="0 128 64 64"><path d="m21.711 145.72 2.99 2.99.233 1.696-2.527 2.527-1.696-.232-2.991-2.992C17.141 150.203 17 151 17 152c0 1.638 1.014 3.268 2.264 4.518 2.017 2.017 5.302 2.652 7.736 1.482l16.736 16.539c.346.283.783.461 1.264.461a2 2 0 0 0 2-2 2 2 0 0 0-.461-1.264L31 155c1.168-2.434-.132-6.207-2.149-8.225-1.291-1.291-3.559-1.777-4.851-1.775-.852.001-1.656.172-2.289.72M46 173a1 1 0 1 1-2 0 1 1 0 1 1 2 0m-25.133 1.18-3.048-3.047a1.245 1.245 0 0 1 0-1.76l8.869-8.868 4.835 4.778-8.896 8.896a1.24 1.24 0 0 1-1.76.001m25.677-26.93-2.437 4.469-2.325.293-5.614 5.614-1.729-1.86 5.55-5.548.292-2.324 4.468-2.438z" style="fill:#fff"/></svg>