<svg xmlns="http://www.w3.org/2000/svg" xml:space="preserve" width="64" height="64"><g style="stroke-width:1.33333337"><path d="M170.555-32c-5.53 0-10.583 1.976-14.45 5.239-.614.518-.669 1.442-.093 2.001l10.839 10.504a5.334 5.334 0 0 0 7.416.008l10.859-10.481c.578-.558.524-1.483-.088-2.002C181.167-30.01 176.1-32 170.555-32m0-42.667c-17.163 0-32.817 6.378-44.573 16.816-1.167 1.036-1.228 2.798-.111 3.88l13.567 13.148c7.972-7.725 18.978-12.51 31.117-12.51 12.17 0 23.203 4.812 31.18 12.574l13.595-13.118c1.12-1.083 1.06-2.843-.103-3.882-11.767-10.492-27.46-16.908-44.672-16.908m-93.351-26.467c23.916-23.177 56.936-37.533 93.35-37.533 36.514 0 69.611 14.436 93.543 37.724l11.55-11.147c2.257-2.177 2.212-5.695-.116-7.797-27.536-24.874-64.454-40.114-104.976-40.114-40.408 0-77.234 15.152-104.744 39.9-2.332 2.099-2.384 5.615-.132 7.798z" style="opacity:1;fill:#fff;fill-opacity:1;fill-rule:nonzero;stroke:none;stroke-width:1.77777791;stroke-linecap:butt;stroke-linejoin:miter;stroke-miterlimit:4;stroke-dasharray:none;stroke-dashoffset:0;stroke-opacity:1" transform="matrix(.18754 0 0 .19016 -.008 48.425)"/><path d="M170.555-117.333c-28.26 0-54.067 10.374-73.577 27.4-2.334 2.036-2.38 5.654-.156 7.81l11.5 11.144C124.266-86.429 146.279-96 170.555-96c24.343 0 46.405 9.625 62.36 25.15l11.524-11.12c2.268-2.19 2.23-5.734-.141-7.811-19.531-17.115-45.402-27.552-73.743-27.552" style="opacity:1;fill:#fff;fill-opacity:1;fill-rule:nonzero;stroke:none;stroke-width:1.77777791;stroke-linecap:butt;stroke-linejoin:miter;stroke-miterlimit:4;stroke-dasharray:none;stroke-dashoffset:0;stroke-opacity:1" transform="matrix(.18754 0 0 .19016 -.008 48.425)"/></g></svg>