<svg xmlns="http://www.w3.org/2000/svg" xml:space="preserve" width="64" height="64"><defs><clipPath id="a" clipPathUnits="userSpaceOnUse"><path d="M0 64h64V0H0z"/></clipPath></defs><g clip-path="url(#a)" transform="matrix(1 0 0 -1 0 64.5)"><path d="M0 0a2 2 0 1 0 .001 4.001A2 2 0 0 0 0 0m-4-3.5A2 2 0 1 0-3.999.501 2 2 0 0 0-4-3.5M-8 0a2 2 0 1 0 .001 4.001A2 2 0 0 0-8 0m-3-9.5a3 3 0 1 0 0 6 3 3 0 0 0 0-6m-4 12a1 1 0 1 0 2 0 1 1 0 0 0-2 0m-7-1a1 1 0 1 0 0 2 1 1 0 0 0 0-2m.5-10H-24V-11l-1.5-.5-1.5.5v2.5h-2.5L-30-7l.5 1.5h2.5V-3l1.5.5L-24-3v-2.5h2.5L-21-7zM-32-.5a3 3 0 1 0 0 6 3 3 0 0 0 0-6m28 8a2 2 0 1 0-.001-4.001A2 2 0 0 0-4 7.5M7-6S2.475 6.736 1 8c-.931 3.094-7.087 3.911-9 4-.396.019-3-1-3-1h-14s-2.604 1.019-3 1c-1.913-.089-8.069-.906-9-4-1.475-1.264-6-14-6-14s-2-7.373-2-12 5.069-7 6-7 2.379 2 2.379 2L-33-18.522C-30.207-14.82-28-15-28-15h20s2.207.18 5-3.522L.621-23S2.069-25 3-25s6 2.373 6 7S7-6 7-6" style="fill:#fff;fill-opacity:1;fill-rule:nonzero;stroke:none" transform="translate(50 39)"/></g></svg>