<svg xmlns="http://www.w3.org/2000/svg" xml:space="preserve" width="64" height="64"><path d="M54 41H39v2h15zM5 39h54v8H5zm1-2h51.999v1H6z" style="fill:#fff;fill-opacity:1;fill-rule:nonzero;stroke:none" transform="matrix(1 0 0 -1 0 64)"/><path d="M56 35h-3v1h3zm-1-10.293-2.568 2.568L55 29.843zM49.157 24l2.568 2.568L54.293 24zM48 30.293l3.018-3.018L48 24.258zM45 36h3v-1h-3zm0-4h-4v2h4zm0-2v-4h-2v3h-1v2h3zm0-7h-4v2h4zm-5 5h2v-2h-2zm0-5h-2v2h2zm-1-3h-2v2h2zm-3 0H14v2h22zm-23 8h2v-2h-2zm0-5H8v2h5zm0-3h-2v2h2zm-3 0H8v2h2zm-2 8h4v-2H8zm0 3h3v-2H8zm0 3h2v-2H8zm2 2h3v-1h-3zm1-2h2v-2h-2zm1-3h2v-2h-2zm2 3h2v-2h-2zm0 2h3v-1h-3zm4 0h3v-1h-3zm4-4h-2v2h2zm0 4h3v-1h-3zm1-11h2v-2h-2zm0 9h2v-2h-2zm-1-6h2v-2h-2zm-1 3h2v-2h-2zm-1-6h2v-2h-2zm-1 3h2v-2h-2zm-1 3h2v-2h-2zm-1-6h2v-2h-2zm0 9h2v-2h-2zm-1-6h2v-2h-2zm0-5h-2v2h2zm-1 8h2v-2h-2zm11-2h-2v2h2zm0 5h2v-2h-2zm0 2h3v-1h-3zm5-4h-2v2h2zm-2-7h2v-2h-2zm-1 3h2v-2h-2zm-1 3h2v-2h-2zm-2-3h2v-2h-2zm1-3h2v-2h-2zm6 4h-2v2h2zm0 5h2v-2h-2zm-1-6h2v-2h-2zm1-3h2v-2h-2zm3 4h-2v2h2zm0 5h2v-2h-2zm2 2h3v-1h-3zm2-5h2v-2h-2zm-1 3h2v-2h-2zm-1-6h2v-2h-2zm-1 3h2v-2h-2zm-2-3h2v-2h-2zm1-3h2v-2h-2zm6 11h3v-1h-3zm13.742-5-3.017-3.018L48.707 31zM49 36h3v-1h-3zM6 17h52v21H6z" style="fill:#fff;fill-opacity:1;fill-rule:nonzero;stroke:none" transform="matrix(1 0 0 -1 0 64)"/></svg>