<?xml version="1.0" encoding="utf-8"?>
<svg version="1.1" xmlns="http://www.w3.org/2000/svg" xmlns:xlink="http://www.w3.org/1999/xlink" x="0px" y="0px" viewBox="0 0 64 64" enable-background="new 0 0 64 64" xml:space="preserve">
<style type="text/css">
	.st0{fill:#FFFFFF;}
</style>
<path class="st0" d="M47.14,8h-1.01c-0.62,0-1.23,0.22-1.66,0.66c-0.52,0.54-1.24,0.87-2.05,0.87c-0.81,0-1.53-0.33-2.05-0.87C39.95,8.22,39.34,8,38.72,8H16.86c-0.58,0-1.09,0.38-1.25,0.94l-1.36,4.65v28.64l0.2,3.04c0.04,0.56,0.23,1.12,0.61,1.53c0.48,0.51,0.78,1.2,0.78,1.96c0,0.58-0.18,1.12-0.48,1.57c-0.31,0.47-0.51,1-0.48,1.56l0.13,2.04c0.04,0.68,0.61,1.21,1.3,1.21h1.38v-42.1h28.6v42.1h1.38c0.69,0,1.25-0.53,1.3-1.21l0.13-2.04c0.04-0.56-0.16-1.09-0.48-1.56c-0.3-0.45-0.48-0.99-0.48-1.57c0-0.76,0.3-1.45,0.78-1.96c0.39-0.41,0.58-0.97,0.61-1.53l0.2-3.04V13.58l-1.36-4.65C48.23,8.38,47.72,8,47.14,8z"/>
<path class="st0" d="M44.13,56H19.87c-0.63,0-1.14-0.51-1.14-1.14V13.95h26.53v40.91C45.27,55.49,44.76,56,44.13,56z"/>
</svg>