<svg xmlns="http://www.w3.org/2000/svg" xml:space="preserve" viewBox="0 0 64 64"><style>.st0{fill:#fff}</style><path d="M49.56 7.69a2.77 2.77 0 0 0-2.77-2.77H17.21a2.77 2.77 0 0 0-2.77 2.77v41.58h.91v4h-.89a2.76 2.76 0 0 0 2.75 2.56h2.43c2.6 1.83 7.94 3.08 14.11 3.08 8.73 0 15.81-2.51 15.81-5.6 0-.04-.01-.07-.02-.11 0-.05.02-.1.02-.15zM20.28 53.27c-1.1 0-2-.9-2-2s.9-2 2-2 2 .9 2 2a2 2 0 0 1-2 2m5.68 0c-1.1 0-2-.9-2-2s.9-2 2-2 2 .9 2 2c0 1.11-.89 2-2 2m8.04-.12c0 .44-.9.8-2 .8s-2-.36-2-.8v-1.12h4zm0-2.67h-4v-1.12c0-.44.9-.8 2-.8s2 .36 2 .8zm4.04 2.75c-1.1 0-2-.9-2-2s.9-2 2-2 2 .9 2 2a2 2 0 0 1-2 2m5.68 0c-1.1 0-2-.9-2-2s.9-2 2-2 2 .9 2 2c0 1.11-.89 2-2 2m2.16-8.87c0 .79-.67 1.44-1.49 1.44H19.61c-.82 0-1.49-.64-1.49-1.44V11.27c0-.79.67-1.44 1.49-1.44h24.78c.82 0 1.49.64 1.49 1.44z" class="st0"/><path d="M32.22 32.5h-3.66l4.58-6.86h-2.28v-4.58h-4.58v4.57h-2.29l4.57 6.86h-3.42c-.46 0-.92.46-.92.92v.22c0 .46.46.92.92.92h7.08c.46 0 .92-.46.92-.92v-.21c0-.46-.47-.92-.92-.92m5.5-4.81v-2.27h-2.3v2.27h-2.28v2.3h2.28v2.28h2.3v-2.28h2.27v-2.3z" class="st0"/></svg>