<svg xmlns="http://www.w3.org/2000/svg" xml:space="preserve" viewBox="0 0 64 64"><path d="M49.56 7.69a2.77 2.77 0 0 0-2.77-2.77H17.21a2.77 2.77 0 0 0-2.77 2.77v41.58h.91v4h-.89a2.76 2.76 0 0 0 2.75 2.56h2.43c2.6 1.83 7.94 3.08 14.11 3.08 8.73 0 15.81-2.51 15.81-5.6 0-.04-.01-.07-.02-.11 0-.05.02-.1.02-.15zM20.28 53.27c-1.1 0-2-.9-2-2s.9-2 2-2 2 .9 2 2a2 2 0 0 1-2 2m5.68 0c-1.1 0-2-.9-2-2s.9-2 2-2 2 .9 2 2c0 1.11-.89 2-2 2m8.04-.12c0 .44-.9.8-2 .8s-2-.36-2-.8v-1.12h4zm0-2.67h-4v-1.12c0-.44.9-.8 2-.8s2 .36 2 .8zm4.04 2.75c-1.1 0-2-.9-2-2s.9-2 2-2 2 .9 2 2a2 2 0 0 1-2 2m5.68 0c-1.1 0-2-.9-2-2s.9-2 2-2 2 .9 2 2c0 1.11-.89 2-2 2m2.16-8.87c0 .79-.67 1.44-1.49 1.44H19.61c-.82 0-1.49-.64-1.49-1.44V11.27c0-.79.67-1.44 1.49-1.44h24.78c.82 0 1.49.64 1.49 1.44z" style="fill:#fff"/><path d="M50.84 77.86s-1.61-.3-5.27-.57c0 .04.01.08.01.13 0 1.66-1.5 3.01-3.35 3.01s-3.35-1.35-3.35-3.01c0-.16.03-.3.05-.46-2.02-.06-4.32-.1-6.93-.1-13.52 0-18.83 1-18.83 1s.98 14.25.98 26-.98 23.71-.98 23.71 5.31 3.29 18.83 3.29 18.83-3.29 18.83-3.29-.98-11.9-.98-23.68c.01-11.77.99-26.03.99-26.03m-32.01 7.06c0-.93.75-1.68 1.68-1.68h23.01c.93 0 1.68.75 1.68 1.68v29.9c0 .77-.51 1.44-1.26 1.62-2.12.54-6.65 1.51-11.69 1.51-5.09 0-9.91-1-12.14-1.53a1.68 1.68 0 0 1-1.28-1.63zm-.24 40.82c-1.31 0-2.37-.91-2.37-2.03s1.06-2.03 2.37-2.03 2.37.91 2.37 2.03c0 1.11-1.06 2.03-2.37 2.03m6.82 1.04c-1.31 0-2.37-.91-2.37-2.03s1.06-2.03 2.37-2.03 2.37.91 2.37 2.03c-.01 1.12-1.06 2.03-2.37 2.03m8.97-.27c0 1.12-1.06 2.03-2.37 2.03s-2.37-.91-2.37-2.03v-3.02c0-1.12 1.06-2.03 2.37-2.03s2.37.91 2.37 2.03zm4.23.27c-1.31 0-2.37-.91-2.37-2.03s1.06-2.03 2.37-2.03 2.37.91 2.37 2.03c.01 1.12-1.06 2.03-2.37 2.03m6.82-1.04c-1.31 0-2.37-.91-2.37-2.03s1.06-2.03 2.37-2.03 2.37.91 2.37 2.03c-.01 1.11-1.06 2.03-2.37 2.03"/><path d="M42.24 79.46c1.31 0 2.37-.91 2.37-2.03 0-.06-.02-.12-.02-.18l-4.67-.22c-.03.13-.05.26-.05.41-.01 1.11 1.06 2.02 2.37 2.02"/></svg>