<svg xmlns="http://www.w3.org/2000/svg" xml:space="preserve" id="Layer_1" x="0" y="0" version="1.1" viewBox="0 0 64 64"><style>.st0{fill:#fff}</style><path d="M41.1 57.8c0 .81-.59 1.48-1.38 1.57-1.82.21-4.39.39-7.82.39-3.36 0-5.88-.17-7.67-.38-.79-.09-1.38-.76-1.38-1.57v-11.6c-.95-.18-1.39-.25-1.39-.25v14.72s2.96 1 10.44 1 10.56-1 10.56-1V45.95s-.43.07-1.36.24zM32.22 2.5c-7.86 0-11.76 1-11.76 1v41s3.24 1 11.43 1 11.57-1 11.57-1v-41s-3.37-1-11.24-1m4.42 2.23c0-.5.41-.91.91-.91h1.43c.5 0 .91.41.91.91v1.49c0 .5-.41.91-.91.91h-1.43c-.5 0-.91-.41-.91-.91zm-6.82-.22c0-.33.27-.6.6-.6h3.07c.33 0 .6.27.6.6v.17c0 .33-.27.6-.6.6h-3.07c-.33 0-.6-.27-.6-.6zm11.27 36.68c0 1.07-.86 1.93-1.93 1.93h-14.4c-1.07 0-1.93-.86-1.93-1.93v-4.81c0-1.07.86-1.93 1.93-1.93h14.39c1.07 0 1.93.86 1.93 1.93v4.81zm0-10.9c0 .58-.47 1.04-1.04 1.04H23.88c-.57 0-1.04-.47-1.04-1.04V9.07c0-.58.47-1.04 1.04-1.04h16.17c.57 0 1.04.47 1.04 1.04z" class="st0"/><path d="M28.37 36.01h-2.3c-.75 0-1.35.6-1.35 1.35v2.84c0 .75.6 1.35 1.35 1.35h2.12c-.09-.22-.14-.46-.14-.71v-3.79c-.01-.38.11-.74.32-1.04m5.39.22h-3.6c-.46 0-.83.37-.83.83v3.79c0 .31.18.57.43.71h4.39c.25-.14.43-.4.43-.71v-3.79a.82.82 0 0 0-.82-.83m-.4 3.33c0 .37-.3.66-.66.66h-1.47a.66.66 0 0 1-.66-.66v-1.37c0-.37.3-.66.66-.66h1.47c.37 0 .66.3.66.66zm4.5-3.55h-2.3c.21.3.33.65.33 1.04v3.79c0 .25-.05.49-.14.71h2.12c.75 0 1.35-.6 1.35-1.35v-2.84c-.01-.74-.62-1.35-1.36-1.35m-9.73 11.62c-1.35-.04-3.06-.2-3.92-.3v1.37c.77.1 2.37.3 3.92.33zm-3.92 4.17c.77.1 2.37.3 3.92.33v-1.4c-1.35-.04-3.06-.2-3.92-.3zm0 3.1c.77.1 2.38.3 3.92.34v-1.4c-1.35-.04-3.06-.2-3.92-.3zm0 2.49c0 .34.25.63.59.68.85.1 2.1.23 3.34.26v-1.4c-1.35-.04-3.06-.2-3.92-.3v.76zm15.5-10.06c-.87.09-2.58.26-3.92.3v1.4c1.55-.04 3.15-.23 3.92-.33zm-3.92 4.8c1.55-.04 3.15-.23 3.92-.33v-1.37c-.87.09-2.58.26-3.92.3zm0 3.1c1.55-.04 3.15-.23 3.92-.34v-1.36c-.87.09-2.58.26-3.92.3zm0 3.1c1.24-.03 2.49-.16 3.34-.26.33-.04.59-.33.59-.68v-.77c-.87.09-2.58.26-3.92.3v1.41zm-5.95-10.7h4.28v1.4h-4.28zm-.02 9.35h4.28v1.36h-4.28zm0-3.1h4.28v1.36h-4.28zm0-3.01h4.28v1.36h-4.28z" class="st0"/></svg>