<svg xmlns="http://www.w3.org/2000/svg" xml:space="preserve" viewBox="0 0 64 64"><style>.st0{fill:#fff}</style><g id="pda"><path d="M48.32 4.04v-1.2c0-.31-.54-.57-1.2-.57s-1.2.25-1.2.57v.56c-.33-.08-.7-.16-1.08-.24l-.58 4.59c-.16.95-.89 1.68-1.83 1.83-1.61.25-5.86.65-10.42.65s-8.82-.4-10.42-.65c-.94-.15-1.68-.88-1.83-1.81l-.58-4.6c-2.84.59-4.31 1.17-4.31 1.17h-1.59c-.45 0-.82.37-.82.82v3.06s2.01 3.09 2.41 7.21v40.82s6.05 6.54 17.15 6.54 17.15-6.54 17.15-6.54V4.33c-.02 0-.31-.12-.85-.29M20.67 57.22c-.83 0-1.5-.67-1.5-1.5s.67-1.5 1.5-1.5 1.5.67 1.5 1.5-.67 1.5-1.5 1.5m1.7-5.26c0-.83.67-1.5 1.5-1.5s1.5.67 1.5 1.5-.67 1.5-1.5 1.5-1.5-.67-1.5-1.5m13.87 7.08c-.07.13-.14.27-.22.39-.51.82-1.29 1.11-4.02 1.11s-3.52-.28-4.02-1.11c-.08-.13-.15-.26-.22-.39-2.16-.63-3.57-1.73-3.57-3.02 0-1.28 1.41-2.39 3.57-3.02.07-.13.15-.27.22-.39.51-.82 1.29-1.11 4.02-1.11s3.52.28 4.02 1.11c.08.13.15.26.22.39 2.16.63 3.57 1.73 3.57 3.02.01 1.29-1.4 2.39-3.57 3.02m3.89-5.58c-.83 0-1.5-.67-1.5-1.5s.67-1.5 1.5-1.5 1.5.67 1.5 1.5-.67 1.5-1.5 1.5m3.2 3.76c-.83 0-1.5-.67-1.5-1.5s.67-1.5 1.5-1.5 1.5.67 1.5 1.5-.68 1.5-1.5 1.5M46 47.86H18v-36h28z" class="st0"/><path d="M32 1.1c-6.04 0-10.91 1.45-12.11 1.84l.59 4.71c.1.6.58 1.08 1.2 1.18 1.6.25 5.8.65 10.32.65s8.72-.39 10.31-.64c.62-.1 1.1-.58 1.21-1.19l.59-4.7C42.91 2.55 38.04 1.1 32 1.1m2.18 7.18h-4.36s-1.45-.03-2.18-.38c.72-.35 2.18-.38 2.18-.38h4.36s1.44.03 2.18.38c-.74.36-2.18.38-2.18.38m0-1.62h-4.36s-1.45-.03-2.18-.38c.72-.35 2.18-.38 2.18-.38h4.36s1.44.03 2.18.38c-.74.33-2.18.38-2.18.38m0-1.54h-4.36s-1.45-.03-2.18-.38c.72-.35 2.18-.38 2.18-.38h4.36s1.44.03 2.18.38c-.74.36-2.18.38-2.18.38m5.15 1.81a1.33 1.33 0 1 1-.001-2.659 1.33 1.33 0 0 1 .001 2.659M32 53.2c-4.23 0-7.07 1.46-7.07 2.83s2.84 2.83 7.07 2.83 7.07-1.46 7.07-2.83S36.23 53.2 32 53.2m-4.82 2.82c1.33-.66 2.67-.66 4 0-1.33.66-2.67.68-4 0M32 58.57c-.67-.71-.67-1.43 0-2.14.67.71.67 1.43 0 2.14m0-2.96c-.67-.71-.67-1.43 0-2.14.67.71.67 1.44 0 2.14m.82.41c1.33-.66 2.67-.66 4 0-1.33.68-2.67.66-4 0" class="st0"/></g><path id="icon" d="M32.22 32.5h-3.66l4.58-6.86h-2.28v-4.58h-4.58v4.57h-2.29l4.57 6.86h-3.42c-.46 0-.92.46-.92.92v.22c0 .46.46.92.92.92h7.08c.46 0 .92-.46.92-.92v-.21c0-.46-.47-.92-.92-.92m5.5-4.81v-2.27h-2.3v2.27h-2.28v2.3h2.28v2.28h2.3v-2.28h2.27v-2.3z" class="st0"/></svg>