<?xml version="1.0" encoding="utf-8"?>
<!-- Generator: Adobe Illustrator 26.3.1, SVG Export Plug-In . SVG Version: 6.00 Build 0)  -->
<svg version="1.1" id="Layer_1" xmlns="http://www.w3.org/2000/svg" xmlns:xlink="http://www.w3.org/1999/xlink" x="0px" y="0px"
	 viewBox="0 0 64 64" style="enable-background:new 0 0 64 64;" xml:space="preserve">
<style type="text/css">
	.st0{fill:#FFFFFF;}
</style>
<g id="Layer_2_1_">
</g>
<path class="st0" d="M43.01,4.01c-1.99-0.4-5.57-0.93-10.88-0.93s-8.89,0.53-11.01,0.93C19.93,4.28,19,5.34,19,6.53v50.94
	c0,1.19,0.93,2.26,2.12,2.52c2.12,0.4,5.7,0.93,11.01,0.93s8.89-0.53,10.88-0.93C44.2,59.72,45,58.66,45,57.47V6.53
	C45,5.34,44.2,4.28,43.01,4.01z M29.11,6.97c0-0.44,0.36-0.8,0.8-0.8h4.07c0.44,0,0.8,0.36,0.8,0.8V7.2c0,0.44-0.36,0.8-0.8,0.8
	H29.9c-0.44,0-0.8-0.36-0.8-0.8V6.97z M23.78,12.4h16.45v17.11H23.78V12.4z M32,39.16c-1.72,0-3.05-1.33-3.05-3.05
	c0-1.72,1.33-3.05,3.05-3.05s3.05,1.33,3.05,3.05C35.05,37.84,33.72,39.16,32,39.16z M27.76,55.21c0,0.53-0.4,0.93-0.93,0.93h-4.11
	c-0.53,0-0.93-0.4-0.93-0.93v-0.8c0-0.53,0.4-0.93,0.93-0.93h4.11c0.53,0,1.06,0.53,0.93,1.06V55.21z M27.76,51.23
	c0,0.53-0.4,0.93-0.93,0.93h-4.11c-0.53,0-0.93-0.4-0.93-0.93v-0.8c0-0.53,0.4-0.93,0.93-0.93h4.11c0.53,0,1.06,0.4,0.93,0.93V51.23
	z M27.76,47.26c0,0.53-0.4,0.93-0.93,0.93h-4.11c-0.53,0-0.93-0.4-0.93-0.93v-0.8c0-0.53,0.4-0.93,0.93-0.93h4.11
	c0.53,0,1.06,0.4,0.93,0.93V47.26z M27.76,43.28c0,0.53-0.4,0.93-0.93,0.93h-4.11c-0.53,0-0.93-0.4-0.93-0.93v-0.8
	c0-0.53,0.4-0.93,0.93-0.93h4.11c0.53,0,1.06,0.4,0.93,0.93V43.28z M22.85,39.03c-0.53,0-0.93-0.4-0.93-0.93v-4.11
	c0-0.53,0.4-0.93,0.93-0.93h5.4c-0.67,0.83-1.08,1.88-1.08,3.05c0,1.11,0.37,2.11,0.98,2.92c0,0,0,0,0,0H22.85z M34.92,55.21
	c0,0.53-0.4,0.93-0.93,0.93h-4.11c-0.53,0-0.93-0.4-0.93-0.93v-0.8c0-0.53,0.4-0.93,0.93-0.93h4.11c0.53,0,0.93,0.53,0.93,1.06
	V55.21z M34.92,51.23c0,0.53-0.4,0.93-0.93,0.93h-4.11c-0.53,0-0.93-0.4-0.93-0.93v-0.8c0-0.53,0.4-0.93,0.93-0.93h4.11
	c0.53,0,0.93,0.4,0.93,0.93V51.23z M34.92,47.26c0,0.53-0.4,0.93-0.93,0.93h-4.11c-0.53,0-0.93-0.4-0.93-0.93v-0.8
	c0-0.53,0.4-0.93,0.93-0.93h4.11c0.53,0,0.93,0.4,0.93,0.93V47.26z M34.92,43.28c0,0.53-0.4,0.93-0.93,0.93h-4.11
	c-0.53,0-0.93-0.4-0.93-0.93v-0.8c0-0.53,0.4-0.93,0.93-0.93h4.11c0.53,0,0.93,0.4,0.93,0.93V43.28z M42.08,55.21
	c0,0.53-0.4,0.93-0.93,0.93h-4.11c-0.53,0-0.93-0.4-0.93-0.93v-0.8c0-0.53,0.4-0.93,0.93-0.93h4.11c0.53,0,0.93,0.53,0.93,1.06
	V55.21z M42.08,51.23c0,0.53-0.4,0.93-0.93,0.93h-4.11c-0.53,0-0.93-0.4-0.93-0.93v-0.8c0-0.53,0.4-0.93,0.93-0.93h4.11
	c0.53,0,0.93,0.4,0.93,0.93V51.23z M42.08,47.26c0,0.53-0.4,0.93-0.93,0.93h-4.11c-0.53,0-0.93-0.4-0.93-0.93v-0.8
	c0-0.53,0.4-0.93,0.93-0.93h4.11c0.53,0,0.93,0.4,0.93,0.93V47.26z M42.08,43.28c0,0.53-0.4,0.93-0.93,0.93h-4.11
	c-0.53,0-0.93-0.4-0.93-0.93v-0.8c0-0.53,0.4-0.93,0.93-0.93h4.11c0.53,0,0.93,0.4,0.93,0.93V43.28z M42.08,38.1
	c0,0.53-0.4,0.93-0.93,0.93h-5.29c0,0,0,0,0,0c0.61-0.81,0.98-1.81,0.98-2.92c0-1.17-0.41-2.22-1.08-3.05h5.4
	c0.53,0,0.93,0.4,0.93,0.93V38.1z"/>
</svg>
