<svg xmlns="http://www.w3.org/2000/svg" xml:space="preserve" width="64" height="64" viewBox="0 128 64 64"><path fill="#fff" d="M32 141c-18 0-30.969 7-31 19 0 13 11 19 15 19 5.708 0 9.715-2.011 16-2 8.061.014 15 2 16 2 7 0 15-8 15-19 0-13-13-19-31-19m7 3a2 2 0 1 1-.001 4.001A2 2 0 0 1 39 144m-8 2a2 2 0 1 1-.001 4.001A2 2 0 0 1 31 146m-14 18a6 6 0 0 1 0-12 6 6 0 0 1 0 12m14.5-1a3.5 3.5 0 1 1 0-7 3.5 3.5 0 0 1 0 7m7-6a3.5 3.5 0 1 1 0-7 3.5 3.5 0 0 1 0 7m9-2a3.5 3.5 0 1 1 0-7 3.5 3.5 0 0 1 0 7m8 3a3.5 3.5 0 1 1 0-7 3.5 3.5 0 0 1 0 7M17 154a4 4 0 1 0 0 8 4 4 0 0 0 0-8"/></svg>