<svg xmlns="http://www.w3.org/2000/svg" xml:space="preserve" width="64" height="64" viewBox="0 128 64 64"><path fill="#fff" d="M54 139c0-1 0-1-1-1H11c-1 0-1 0-1 1v20h1.5a1.5 1.5 0 0 0 0 3H10v19c0 1 0 1 1 1h42c1 0 1 0 1-1v-19h-1.5a1.5 1.5 0 0 0 0-3H54zm-5.5 26a1.5 1.5 0 1 1 .001 2.999A1.5 1.5 0 0 1 48.5 165M17 171h-1v1c0 1 0 1-1 1s-1 0-1-1v-1h-1c-1 0-1 0-1-1s0-1 1-1h1v-1c0-1 0-1 1-1s1 0 1 1v1h1c1 0 1 0 1 1s0 1-1 1m25 8H22v-15h20zm0-23H22v-15h20zm3.5 24a.5.5 0 1 1 0-1 .5.5 0 0 1 0 1m0-2a.5.5 0 1 1 0-1 .5.5 0 0 1 0 1m0-7a1.5 1.5 0 1 1-.001-2.999A1.5 1.5 0 0 1 45.5 171m3 3a1.5 1.5 0 1 1-.001-2.999A1.5 1.5 0 0 1 48.5 174m4.5-4.5a1.5 1.5 0 1 1-2.999.001A1.5 1.5 0 0 1 53 169.5"/></svg>