<svg xmlns="http://www.w3.org/2000/svg" xml:space="preserve" width="64" height="64" viewBox="0 128 64 64"><path fill="#fff" d="m59.342 147.596-.011.012c-.151-3.437-2.007-5.985-4.711-7.743a.5.5 0 0 0 .093-.109.51.51 0 0 0-.174-.696c-1.846-1.11-4.121-1.721-5.67-2.083-1.451-.34-3.124-.623-4.938-.85l-.791-1.897-.012.064c-.075-.465-.524-.684-1.003-.876C39.596 132.404 35.987 132 32 132s-7.596.404-10.127 1.417c-.459.183-.971.401-1.02.828l-.785 1.881c-1.812.227-3.484.51-4.938.85l-.036.01c-.348.092-4.025 1.101-5.636 2.074a.506.506 0 0 0-.081.806c-2.702 1.756-4.558 4.307-4.709 7.741l-.011-.012C3.538 150.953 3 155.641 3 160c0 7.604 1.812 14.862 5.8 14.862 3.263 0 5.595-9.716 6.567-14.077l4.479.987C25 163 24.025 188 32 188s7-25 12.151-26.228l4.482-.987c.972 4.361 3.304 14.077 6.566 14.077 3.987 0 5.8-7.259 5.8-14.862.001-4.359-.537-9.047-1.657-12.404M19 149a1 1 0 0 1-1 1h-2v2a1 1 0 0 1-1 1h-1a1 1 0 0 1-1-1v-2h-2a1 1 0 0 1-1-1v-1a1 1 0 0 1 1-1h2v-2a1 1 0 0 1 1-1h1a1 1 0 0 1 1 1v2h2a1 1 0 0 1 1 1zm32.5-7a1.5 1.5 0 1 1-.001 3.001A1.5 1.5 0 0 1 51.5 142m-3 3a1.5 1.5 0 1 1-.001 3.001A1.5 1.5 0 0 1 48.5 145M32 148a2 2 0 1 1-.001 4.001A2 2 0 0 1 32 148m2.829 16.829L32 166l-2.829-1.171L28 162l1.171-2.829L32 158l2.829 1.171L36 162zM43.5 153a2.5 2.5 0 1 1 0-5 2.5 2.5 0 0 1 0 5m4 4a2.5 2.5 0 1 1 0-5 2.5 2.5 0 0 1 0 5m4-6a1.5 1.5 0 1 1 .001-3.001A1.5 1.5 0 0 1 51.5 151m3-3a1.5 1.5 0 1 1 .001-3.001A1.5 1.5 0 0 1 54.5 148M32 160a2 2 0 1 0 .001 4.001A2 2 0 0 0 32 160"/></svg>