<?xml version="1.0" encoding="UTF-8" standalone="no"?>
<svg
   xmlns:dc="http://purl.org/dc/elements/1.1/"
   xmlns:cc="http://creativecommons.org/ns#"
   xmlns:rdf="http://www.w3.org/1999/02/22-rdf-syntax-ns#"
   xmlns:svg="http://www.w3.org/2000/svg"
   xmlns="http://www.w3.org/2000/svg"
   xmlns:sodipodi="http://sodipodi.sourceforge.net/DTD/sodipodi-0.dtd"
   xmlns:inkscape="http://www.inkscape.org/namespaces/inkscape"
   xml:space="preserve"
   enable-background="new 0 128 64 64"
   viewBox="0 128 64 64"
   height="64px"
   width="64px"
   y="0px"
   x="0px"
   id="svg2"
   version="1.1"
   sodipodi:docname="Nintendo - Game Boy Advance.svg"
   inkscape:version="0.92.3 (2405546, 2018-03-11)"><sodipodi:namedview
   pagecolor="#808080"
   bordercolor="#666666"
   borderopacity="1"
   objecttolerance="10"
   gridtolerance="10"
   guidetolerance="10"
   inkscape:pageopacity="0"
   inkscape:pageshadow="2"
   inkscape:window-width="1920"
   inkscape:window-height="1017"
   id="namedview6"
   showgrid="false"
   inkscape:zoom="7.375"
   inkscape:cx="39.186441"
   inkscape:cy="36.91175"
   inkscape:window-x="-8"
   inkscape:window-y="-8"
   inkscape:window-maximized="1"
   inkscape:current-layer="svg2" /><metadata
   id="metadata8"><rdf:RDF><cc:Work
       rdf:about=""><dc:format>image/svg+xml</dc:format><dc:type
         rdf:resource="http://purl.org/dc/dcmitype/StillImage" /><dc:title /></cc:Work></rdf:RDF></metadata><defs
   id="defs6"><clipPath
     clipPathUnits="userSpaceOnUse"
     id="clipPath20"><path
       d="M 0,64 H 64 V 0 H 0 Z"
       id="path18" /></clipPath><clipPath
     clipPathUnits="userSpaceOnUse"
     id="clipPath182"><path
       d="M 0,64 H 64 V 0 H 0 Z"
       id="path180" /></clipPath></defs>

<g
   id="g176"
   transform="matrix(1,0,0,-1,0,192)"><g
     clip-path="url(#clipPath182)"
     id="g178"><g
       transform="translate(37,56)"
       id="g184"><path
         inkscape:connector-curvature="0"
         id="path186"
         style="fill:#ffffff;fill-opacity:1;fill-rule:nonzero;stroke:none"
         d="M 0,0 H 15 L 13,4 H 2.816 C 2.403,5.163 1.305,6 0,6 h -10 c -1.304,0 -2.403,-0.837 -2.816,-2 H -23 l -2,-4 h 15 z" /></g><g
       transform="translate(56.5,21)"
       id="g188"><path
         inkscape:connector-curvature="0"
         id="path190"
         style="fill:#ffffff;fill-opacity:1;fill-rule:nonzero;stroke:none"
         d="M 0,0 C -0.828,0 -1.5,0.672 -1.5,1.5 -1.5,2.328 -0.828,3 0,3 0.828,3 1.5,2.328 1.5,1.5 1.5,0.672 0.828,0 0,0 m -5,-2 c -0.828,0 -1.5,0.672 -1.5,1.5 0,0.828 0.672,1.5 1.5,1.5 0.828,0 1.5,-0.672 1.5,-1.5 C -3.5,-1.328 -4.172,-2 -5,-2 m -0.5,12 c 0.553,0 1,-0.447 1,-1 0,-0.553 -0.447,-1 -1,-1 -0.553,0 -1,0.447 -1,1 0,0.553 0.447,1 1,1 m -6.126,-24.308 c -8.913,-1.981 -16.973,-1.934 -25.747,0 -1.936,0.426 -3.083,1.979 -2.972,3.96 l 0.991,17.827 c 0.109,1.978 0.996,2.804 2.972,2.969 11.882,0.991 11.882,0.991 23.765,0 1.975,-0.165 2.861,-0.99 2.971,-2.969 l 0.991,-17.827 c 0.108,-1.98 -1.039,-3.531 -2.971,-3.96 M -42.5,-9 c -0.553,0 -1,0.447 -1,1 0,0.553 0.447,1 1,1 0.553,0 1,-0.447 1,-1 0,-0.553 -0.447,-1 -1,-1 m 0,-3 c -0.553,0 -1,0.447 -1,1 0,0.553 0.447,1 1,1 0.553,0 1,-0.447 1,-1 0,-0.553 -0.447,-1 -1,-1 m -2,11 h -1 v -1 c 0,-1 0,-1 -1,-1 h -1 c -1,0 -1,0 -1,1 v 1 h -1 c -1,0 -1,0 -1,1 v 1 c 0,1 0,1 1,1 h 1 v 1 c 0,1 0,1 1,1 h 1 c 1,0 1,0 1,-1 V 2 h 1 c 1,0 1,0 1,-1 V 0 c 0,-1 0,-1 -1,-1 M 3.4,8.994 c 0.186,0.32 0.322,0.661 0.322,0.961 0,2.473 -2.476,2.968 -3.962,2.968 -3.639,0.456 -3.938,0.493 -7.42,0.879 -0.341,0.194 -0.675,0.395 -0.996,0.607 0,0.495 -7.531,0.591 -15.845,0.591 -8.314,0 -15.845,-0.096 -15.845,-0.591 -0.321,-0.213 -0.655,-0.413 -0.998,-0.607 -3.483,-0.386 -3.779,-0.424 -7.418,-0.879 -1.486,0 -3.962,-0.495 -3.962,-2.968 0,-0.3 0.137,-0.641 0.322,-0.961 C -54.207,4.645 -54.5,-7.472 -54.5,-10 c 0,-2.17 1.777,-3.317 3.263,-3.813 2.972,-0.991 2.972,-0.991 5.941,-1.979 3.466,-1.982 11.761,-3.208 20.796,-3.208 9.036,0 17.33,1.226 20.795,3.207 2.971,0.988 2.96,0.985 5.942,1.98 C 3.723,-13.317 5.5,-12.17 5.5,-10 5.5,-7.472 5.207,4.645 3.4,8.994" /></g><path
       inkscape:connector-curvature="0"
       id="path192"
       style="fill:#ffffff;fill-opacity:1;fill-rule:nonzero;stroke:none"
       d="m 36,42 h -8 v -4 h 8 z" /><g
       transform="translate(28,49)"
       id="g194"><path
         inkscape:connector-curvature="0"
         id="path196"
         style="fill:#ffffff;fill-opacity:1;fill-rule:nonzero;stroke:none"
         d="m 0,0 v -4 c 0,-0.552 0.448,-1 1,-1 h 6 c 0.553,0 1,0.448 1,1 V 0 C 8,0.552 7.553,1 7,1 H 1 C 0.448,1 0,0.552 0,0" /></g><g
       transform="translate(12,54)"
       id="g198"><path
         inkscape:connector-curvature="0"
         id="path200"
         style="fill:#ffffff;fill-opacity:1;fill-rule:nonzero;stroke:none"
         d="m 0,0 2,-4 6,-4 v -12 h 6 v 10 2 4 1 c 0,0.552 0.448,1 1,1 h 1 8 1 c 0.553,0 1,-0.448 1,-1 v -1 -4 -2 -10 h 6 v 12 l 6,4 2,4 z" /></g></g></g></svg>