<svg xmlns="http://www.w3.org/2000/svg" xml:space="preserve" width="66.667" height="72"><defs><clipPath id="a" clipPathUnits="userSpaceOnUse"><path d="M0 64h64V0H0Z"/></clipPath></defs><g clip-path="url(#a)" transform="matrix(1.33333 0 0 -1.33333 -9.333 78.667)"><path d="M0 0a1.5 1.5 0 1 0-3.001.001A1.5 1.5 0 0 0 0 0m-4.5-4.5a1.5 1.5 0 1 0 .001 3.001A1.5 1.5 0 0 0-4.5-4.5m-2.5-5a1 1 0 1 0 0 2 1 1 0 1 0 0-2m0-3a1 1 0 1 0 0 2 1 1 0 1 0 0-2M-9 0a1.5 1.5 0 1 0 3.001-.001A1.5 1.5 0 0 0-9 0m-1-13.5h-28v20h28zm-12-2.069a.93.93 0 0 0-.931-.931h-2.138a.93.93 0 0 0-.931.931v.138c0 .514.417.931.931.931h2.138a.93.93 0 0 0 .931-.931zM-41 33.5h34v-20h-34zm-3-34a3 3 0 1 0 0 6 3 3 0 0 0 0-6m3-6h-2v-2h-2v2h-2v2h2v2h2v-2h2zM-24 36a1 1 0 1 0 0-2 1 1 0 0 0 0 2m2.5-.5a.5.5 0 1 0 0-1 .5.5 0 0 0 0 1M-6 5.5a1 1 0 1 0-2 0 1 1 0 1 0 2 0m1.5-1a1.5 1.5 0 1 0-.001-3.001A1.5 1.5 0 0 0-4.5 4.5m5.5 16v12a4 4 0 0 1-4 4h-42a4 4 0 0 1-4-4v-12h1v-2h-1v-7h2a2 2 0 0 1-2-2v-23a4 4 0 0 1 4-4h42a4 4 0 0 1 4 4v23a2 2 0 0 1-2 2h2v7H0v2z" style="fill:#fff;fill-opacity:1;fill-rule:nonzero;stroke:none" transform="translate(56 22.5)"/><path d="M0 0h-6.3c-.194 0-.35.224-.35.5s.156.5.35.5H0C.193 1 .35.776.35.5S.193 0 0 0" style="fill:#fff;fill-opacity:1;fill-rule:nonzero;stroke:none" transform="translate(34.65 41)"/><path d="M0 0h-1v-1h-1v1h-1v1h1v1h1V1h1z" style="fill:#fff;fill-opacity:1;fill-rule:nonzero;stroke:none" transform="translate(37 43)"/><path d="M0 0v5h-3V0h-2l3.5-3L2 0Z" style="fill:#fff;fill-opacity:1;fill-rule:nonzero;stroke:none" transform="translate(33 46)"/></g></svg>