<?xml version="1.0" encoding="utf-8"?>
<!-- Generator: Adobe Illustrator 26.3.1, SVG Export Plug-In . SVG Version: 6.00 Build 0)  -->
<svg version="1.1" id="Layer_1" xmlns="http://www.w3.org/2000/svg" xmlns:xlink="http://www.w3.org/1999/xlink" x="0px" y="0px"
	 viewBox="0 0 64 64" style="enable-background:new 0 0 64 64;" xml:space="preserve">
<style type="text/css">
	.st0{fill:#FFFFFF;}
</style>
<g>
	<g>
		<rect x="22.1" y="56.5" class="st0" width="19.9" height="2.3"/>
	</g>
	<g>
		<path class="st0" d="M47.8,38.3c-0.3-1.3-1.1-2.4-2.4-2.4H18.6c-1.3,0-2.1,1.1-2.4,2.4l-3.3,12.9v5.2c0,1.3,1.1,2.4,2.4,2.4h6
			v-3.1h21.4v3.1h6c1.3,0,2.4-1.1,2.4-2.4v-5.2L47.8,38.3z M25.4,44.8l-0.1,0.9c-0.1,0.9-0.1,0.9-1.3,0.9h-1.3c-1.3,0-1.3,0-1.2-0.9
			l0.1-0.9h-1.3c-1.3,0-1.3,0-1.2-0.9l0.1-0.9c0.1-0.9,0.1-0.9,1.3-0.9h1.3l0.1-0.9c0.1-0.9,0.1-0.9,1.3-0.9h1.3
			c1.3,0,1.3,0,1.2,0.9l-0.1,0.9h1.3c1.3,0,1.3,0,1.2,0.9L28,43.9c-0.1,0.9-0.1,0.9-1.3,0.9C26.7,44.8,25.4,44.8,25.4,44.8z
			 M28.9,51.6c-0.9,0-1.6-0.5-1.6-1s0.7-1,1.6-1s1.6,0.5,1.6,1S29.9,51.6,28.9,51.6z M35.1,51.6c-0.9,0-1.6-0.5-1.6-1s0.7-1,1.6-1
			s1.6,0.5,1.6,1S36,51.6,35.1,51.6z M36.5,45.2c-1.2,0-2.2-0.6-2.2-1.5c0-0.8,1-1.5,2.2-1.5s2.2,0.6,2.2,1.5
			C38.7,44.6,37.7,45.2,36.5,45.2z M42.4,43.6c-1.2,0-2.2-0.6-2.2-1.5c0-0.8,1-1.5,2.2-1.5s2.2,0.6,2.2,1.5
			C44.6,43,43.6,43.6,42.4,43.6z"/>
	</g>
	<g>
		<rect x="21.1" y="32.3" class="st0" width="21.7" height="4.5"/>
	</g>
	<g>
		<path class="st0" d="M17.6,36.5v0.2h3.5v-2h-1.7C18.4,34.8,17.6,35.5,17.6,36.5z"/>
	</g>
	<g>
		<path class="st0" d="M42.8,34.9v1.9h3.5v-0.2c0-1-0.8-1.8-1.8-1.8L42.8,34.9L42.8,34.9z"/>
	</g>
	<g>
		<path class="st0" d="M18.4,34.1h27.2c1.2,0,2.2-1,2.2-2.2V9.1c0-1.2-1-2.2-2.2-2.2H18.4c-1.2,0-2.2,1-2.2,2.2V32
			C16.2,33.2,17.2,34.1,18.4,34.1z M19.9,13.3c0-1.2,1-2.2,2.2-2.2h19.8c1.2,0,2.2,1,2.2,2.2v14.4c0,1.2-1,2.2-2.2,2.2H22.1
			c-1.2,0-2.2-1-2.2-2.2V13.3z"/>
	</g>
</g>
</svg>
