<?xml version="1.0" encoding="UTF-8" standalone="no"?>
<svg
   xmlns:dc="http://purl.org/dc/elements/1.1/"
   xmlns:cc="http://creativecommons.org/ns#"
   xmlns:rdf="http://www.w3.org/1999/02/22-rdf-syntax-ns#"
   xmlns:svg="http://www.w3.org/2000/svg"
   xmlns="http://www.w3.org/2000/svg"
   viewBox="0 0 66.666664 72"
   height="72"
   width="66.666664"
   xml:space="preserve"
   id="svg2"
   version="1.1"><metadata
     id="metadata8"><rdf:RDF><cc:Work
         rdf:about=""><dc:format>image/svg+xml</dc:format><dc:type
           rdf:resource="http://purl.org/dc/dcmitype/StillImage" /></cc:Work></rdf:RDF></metadata><defs
     id="defs6"><clipPath
       id="clipPath18"
       clipPathUnits="userSpaceOnUse"><path
         id="path16"
         d="M 0,64 H 64 V 0 H 0 Z" /></clipPath></defs><g
     transform="matrix(1.3333333,0,0,-1.3333333,-9.3333331,78.666665)"
     id="g10"><g
       id="g12"><g
         clip-path="url(#clipPath18)"
         id="g14"><g
           transform="translate(56,22.5)"
           id="g20"><path
             id="path22"
             style="fill:#ffffff;fill-opacity:1;fill-rule:nonzero;stroke:none"
             d="M 0,0 C 0,-0.828 -0.672,-1.5 -1.5,-1.5 -2.328,-1.5 -3,-0.828 -3,0 -3,0.828 -2.328,1.5 -1.5,1.5 -0.672,1.5 0,0.828 0,0 m -4.5,-4.5 c -0.828,0 -1.5,0.672 -1.5,1.5 0,0.828 0.672,1.5 1.5,1.5 0.828,0 1.5,-0.672 1.5,-1.5 0,-0.828 -0.672,-1.5 -1.5,-1.5 m -2.5,-5 c -0.553,0 -1,0.447 -1,1 0,0.553 0.447,1 1,1 0.553,0 1,-0.447 1,-1 0,-0.553 -0.447,-1 -1,-1 m 0,-3 c -0.553,0 -1,0.447 -1,1 0,0.553 0.447,1 1,1 0.553,0 1,-0.447 1,-1 0,-0.553 -0.447,-1 -1,-1 M -9,0 c 0,0.828 0.672,1.5 1.5,1.5 C -6.672,1.5 -6,0.828 -6,0 -6,-0.828 -6.672,-1.5 -7.5,-1.5 -8.328,-1.5 -9,-0.828 -9,0 m -1,-13.5 h -28 v 20 h 28 z m -12,-2.069 c 0,-0.514 -0.417,-0.931 -0.931,-0.931 h -2.138 c -0.514,0 -0.931,0.417 -0.931,0.931 v 0.138 c 0,0.514 0.417,0.931 0.931,0.931 h 2.138 c 0.514,0 0.931,-0.417 0.931,-0.931 z M -41,33.5 h 34 v -20 h -34 z m -3,-34 c -1.657,0 -3,1.343 -3,3 0,1.657 1.343,3 3,3 1.657,0 3,-1.343 3,-3 0,-1.657 -1.343,-3 -3,-3 m 3,-6 h -2 v -2 h -2 v 2 h -2 v 2 h 2 v 2 h 2 v -2 h 2 z M -24,36 c 0.552,0 1,-0.448 1,-1 0,-0.552 -0.448,-1 -1,-1 -0.552,0 -1,0.448 -1,1 0,0.552 0.448,1 1,1 m 2.5,-0.5 c 0.276,0 0.5,-0.224 0.5,-0.5 0,-0.276 -0.224,-0.5 -0.5,-0.5 -0.276,0 -0.5,0.224 -0.5,0.5 0,0.276 0.224,0.5 0.5,0.5 M -6,5.5 c 0,-0.553 -0.447,-1 -1,-1 -0.553,0 -1,0.447 -1,1 0,0.553 0.447,1 1,1 0.553,0 1,-0.447 1,-1 m 1.5,-1 C -3.672,4.5 -3,3.828 -3,3 -3,2.172 -3.672,1.5 -4.5,1.5 -5.328,1.5 -6,2.172 -6,3 c 0,0.828 0.672,1.5 1.5,1.5 m 5.5,16 v 12 c 0,2.209 -1.791,4 -4,4 h -42 c -2.209,0 -4,-1.791 -4,-4 v -12 h 1 v -2 h -1 v -7 h 2 c -1.104,0 -2,-0.896 -2,-2 v -23 c 0,-2.209 1.791,-4 4,-4 h 42 c 2.209,0 4,1.791 4,4 v 23 c 0,1.104 -0.896,2 -2,2 h 2 v 7 H 0 v 2 z" /></g><g
           transform="translate(34.6504,41)"
           id="g24"><path
             id="path26"
             style="fill:#ffffff;fill-opacity:1;fill-rule:nonzero;stroke:none"
             d="m 0,0 h -6.3 c -0.194,0 -0.35,0.224 -0.35,0.5 0,0.276 0.156,0.5 0.35,0.5 H 0 C 0.193,1 0.35,0.776 0.35,0.5 0.35,0.224 0.193,0 0,0" /></g><g
           transform="translate(37,43)"
           id="g28"><path
             id="path30"
             style="fill:#ffffff;fill-opacity:1;fill-rule:nonzero;stroke:none"
             d="m 0,0 h -1 v -1 h -1 v 1 h -1 v 1 h 1 v 1 h 1 V 1 h 1 z" /></g><g
           transform="translate(33,46)"
           id="g32"><path
             id="path34"
             style="fill:#ffffff;fill-opacity:1;fill-rule:nonzero;stroke:none"
             d="M 0,0 V 5 H -3 V 0 H -5 L -1.5,-3 2,0 Z" /></g></g></g></g></svg>