<?xml version="1.0" encoding="utf-8"?>
<svg version="1.1" xmlns="http://www.w3.org/2000/svg" xmlns:xlink="http://www.w3.org/1999/xlink" x="0px" y="0px"
	 viewBox="0 0 64 64" style="enable-background:new 0 0 64 64;" xml:space="preserve">
<g id="Layer_1">
	<g>
		<path style="fill:#FFFFFF;" d="M59.3,11.6H4.7c-0.94,0-1.7,0.76-1.7,1.7v32.78c0,0.2,0.04,1.4,0.11,1.59l2.09,5.63
			c0.25,0.66,0.88,1.11,1.59,1.11h49.9c0.66,0,1.26-0.39,1.54-0.99l2.62-5.7c0.1-0.22,0.16-1.46,0.16-1.71V13.29
			C61,12.36,60.24,11.6,59.3,11.6z M9,16.12h46V42H9V16.12z M12.54,48.86h7.63v0.75h-7.63V48.86z M12.85,50.37h7.63v0.75h-7.63
			V50.37z M20.73,52.63h-7.63v-0.75h7.63V52.63z M41.73,45.46c0,0.28-0.23,0.51-0.51,0.51H22.78c-0.28,0-0.51-0.23-0.51-0.51v-0.82
			c0-0.28,0.23-0.51,0.51-0.51h18.44c0.28,0,0.51,0.23,0.51,0.51V45.46z M50.91,52.63h-7.63v-0.75h7.63V52.63z M51.15,51.12h-7.63
			v-0.75h7.63V51.12z M51.46,49.61h-7.63v-0.75h7.63V49.61z M54.74,48.89c-0.35,0-0.62-0.28-0.62-0.62c0-0.35,0.28-0.62,0.62-0.62
			c0.35,0,0.62,0.28,0.62,0.62C55.36,48.61,55.08,48.89,54.74,48.89z"/>
		<polygon style="fill:#FFFFFF;" points="27.35,35.58 38.65,29.06 27.35,22.54 		"/>
	</g>
</g>
</svg>