<svg xmlns="http://www.w3.org/2000/svg" xml:space="preserve" width="64" height="64" viewBox="0 128 64 64"><path fill="#fff" d="M18 177h28v-32.511c-4.748-1.11-9.374-1.489-14-1.489s-9.252.379-14 1.489zm3.785-30.467C25.034 146.069 28.518 146 32 146s6.965.069 10.215.533C43.232 146.68 44 146.97 44 148v24c0 1.028-.973 2-2 2H22c-1.028 0-2-.972-2-2v-24c0-1.03.768-1.32 1.785-1.467M16 145c-3.618.902-6.51 1.84-10 3.392V177h10zm32 0v32h10v-28.608c-3.49-1.552-6.382-2.49-10-3.392m-7 3.672c-.609-.234-2-.672-9-.672s-8.391.438-9 .672-1 .775-1 1.328v21a1 1 0 0 0 1 1h18a1 1 0 0 0 1-1v-21c0-.553-.391-1.094-1-1.328"/></svg>