<svg xmlns="http://www.w3.org/2000/svg" xml:space="preserve" width="256" height="256"><defs><clipPath id="a" clipPathUnits="userSpaceOnUse"><path d="M0 64h64V0H0Z"/></clipPath></defs><g clip-path="url(#a)" style="stroke-width:.33333334" transform="matrix(4 0 0 -4 0 260)"><path d="M59 21H5v24h54zm-9-3h-1v1h1zm0-2h-1v1h1zm-2 2h-1v1h1zm0-2h-1v1h1zm-2 2h-1v1h1zm0-2h-1v1h1zm-2 2h-1v1h1zm0-2h-1v1h1zm-2 2h-1v1h1zm0-2h-1v1h1zm-2 2h-1v1h1zm0-2h-1v1h1zm-2 2h-1v1h1zm0-2h-1v1h1zm-2 2h-1v1h1zm0-2h-1v1h1zm-2 2h-1v1h1zm0-2h-1v1h1zm-2 2h-1v1h1zm0-2h-1v1h1zm-2 2h-1v1h1zm0-2h-1v1h1zm-2 2h-1v1h1zm0-2h-1v1h1zm-2 2h-1v1h1zm0-2h-1v1h1zm-2 2h-1v1h1zm0-2h-1v1h1zm-2 2h-1v1h1zm0-2h-1v1h1zm-2 2h-1v1h1zm0-2h-1v1h1zm-2 2h-1v1h1zm0-2h-1v1h1zm-2 2h-1v1h1zm0-2h-1v1h1zm-2 2h-1v1h1zm0-2h-1v1h1zm-2 2h-1v1h1zm0-2h-1v1h1zm-2 2H9v1h1zm0-2H9v1h1zm-2 2H7v1h1Zm0-2H7v1h1zm-3 4v-3a2 2 0 0 1 2-2h50a2 2 0 0 1 2 2v3zm52 29h-1v1h1zm0-2h-1v1h1zm-2 2h-1v1h1zm0-2h-1v1h1zm-2 2h-1v1h1zm0-2h-1v1h1zm-2 2h-1v1h1zm0-2h-1v1h1zm-2 2h-1v1h1zm0-2h-1v1h1zm-2 2h-1v1h1zm0-2h-1v1h1zm-2 2h-1v1h1zm0-2h-1v1h1zm-2 2h-1v1h1zm0-2h-1v1h1zm-2 2h-1v1h1zm0-2h-1v1h1zm-2 2h-1v1h1zm0-2h-1v1h1zm-2 2h-1v1h1zm0-2h-1v1h1zm-2 2h-1v1h1zm0-2h-1v1h1zm-2 2h-1v1h1zm0-2h-1v1h1zm-2 2h-1v1h1zm0-2h-1v1h1zm-2 2h-1v1h1zm0-2h-1v1h1zm-2 2h-1v1h1zm0-2h-1v1h1zm-2 2h-1v1h1zm0-2h-1v1h1zm-2 2h-1v1h1zm0-2h-1v1h1zm-2 2h-1v1h1zm0-2h-1v1h1zm-2 2h-1v1h1zm0-2h-1v1h1zm-2 2h-1v1h1zm0-2h-1v1h1zm-2 2h-1v1h1zm0-2h-1v1h1zm42 4H7a2 2 0 0 1-2-2v-3h54v3a2 2 0 0 1-2 2" style="fill:#fff;fill-opacity:1;fill-rule:nonzero;stroke:none;stroke-width:.33333334"/></g></svg>