<svg xmlns="http://www.w3.org/2000/svg" xml:space="preserve" viewBox="0 0 64 64"><style>.st0{fill:#fff}</style><g id="border"><path d="M17.02 16.27h.57v1.78h-.57zm-1.07 0h.57v1.78h-.57zm2.14 0h.57v1.78h-.57z" class="st0"/><path d="M60.81 16.27h-9.05v1.78h7.63c.49 0 .89.38.91.87v21.74c.02.52-.39.96-.91.96H4.61c-.52 0-.94-.44-.91-.96V18.92c.02-.49.43-.87.91-.87h7.63v-1.78H3.19c-.64 0-1.16.5-1.19 1.14V46.5c-.03.68.51 1.24 1.19 1.24h57.62c.68 0 1.22-.56 1.19-1.24V17.41a1.19 1.19 0 0 0-1.19-1.14M44.25 45.42h-24.5V42.9h24.5z" class="st0"/><path d="M20.23 16.27h.57v1.78h-.57zm-1.07 0h.57v1.78h-.57zm-6.43 0h.57v1.78h-.57zm37.96 0h.57v1.78h-.57zm-35.81 0h.57v1.78h-.57zm-1.07 0h.57v1.78h-.57zm7.49 0h.57v1.78h-.57zm27.25 0h.57v1.78h-.57zm-1.07 0h.57v1.78h-.57zm-25.1 0h19.25v1.78H22.38zm27.24 0h.57v1.78h-.57zm-3.21 0h.57v1.78h-.57zm-1.07 0h.57v1.78h-.57zm-2.14 0h.57v1.78h-.57zm-1.08 0h.57v1.78h-.57zm2.15 0h.57v1.78h-.57z" class="st0"/></g><path d="M9.26 24.79h2.1v2.1h-2.1zm30.64 0H42v2.1h-2.1zm-3.07 0h2.1v2.1h-2.1zm-3.08 0h2.1v2.1h-2.1zm-3.07 0h2.1v2.1h-2.1zm-3.08 0h2.1v2.1h-2.1zm-2.96 0h2.1v2.1h-2.1zm-3.08 0h2.1v2.1h-2.1zm-3.07 0h2.1v2.1h-2.1zm-3.08 0h2.1v2.1h-2.1zm-3.07 0h2.1v2.1h-2.1zm-4.61 3.02h2.1v2.1h-2.1zm3.07 0h2.1v2.1h-2.1zm24.49 0h2.1v2.1h-2.1zm-3.08 0h2.1v2.1h-2.1zm-3.07 0h2.1v2.1h-2.1zm-2.97 0h2.1v2.1h-2.1zm-3.07 0h2.1v2.1h-2.1zm-3.08 0h2.1v2.1h-2.1zm-3.07 0h2.1v2.1h-2.1zm-3.07 0h2.1v2.1h-2.1zm24.48 0h5.18v2.1h-5.18zM8.39 30.82h2.1v2.1h-2.1zm30.63 0h2.1v2.1h-2.1zm-3.07 0h2.1v2.1h-2.1zm-3.08 0h2.1v2.1h-2.1zm-3.07 0h2.1v2.1h-2.1zm-2.97 0h2.1v2.1h-2.1zm-3.07 0h2.1v2.1h-2.1zm-3.07 0h2.1v2.1h-2.1zm-3.08 0h2.1v2.1h-2.1zm-3.07 0h2.1v2.1h-2.1zm-3.08 0h2.1v2.1h-2.1zm-4.61 3.01h5.18v2.1H6.85zm27.56 0h2.1v2.1h-2.1zm-3.07 0h2.1v2.1h-2.1zm-3.08 0h2.1v2.1h-2.1zm-2.96 0h2.1v2.1h-2.1zm-3.08 0h2.1v2.1h-2.1zm-3.07 0h2.1v2.1h-2.1zm-3.08 0h2.1v2.1h-2.1zm-3.07 0h2.1v2.1H13zm24.49 0h5.18v2.1h-5.18zM13 36.85h2.1v2.1H13zm2.98 0h17.46v2.1H15.98zM7.73 21.78h5.18v2.1H7.73zm6.12 0h5.18v2.1h-5.18zm6.13 0h5.18v2.1h-5.18zm6.13 0h5.18v2.1h-5.18zm6.13 0h5.18v2.1h-5.18zm6.12 0h5.18v2.1h-5.18zm15.3 4.42h2.1v2.1h-2.1zm-3.08 0h2.1v2.1h-2.1zm-3.07 0h2.1v2.1h-2.1zm-1.69 5.99H51v2.1h-5.18zm6.15 0h5.18v2.1h-5.18zm-3.14-2.99h5.18v2.1h-5.18zm0 5.98h5.18v2.1h-5.18z" class="st0"/></svg>