<?xml version="1.0" encoding="utf-8"?>
<svg version="1.1" xmlns="http://www.w3.org/2000/svg" x="0px" y="0px" viewBox="0 0 64 64" style="enable-background:new 0 0 64 64;" xml:space="preserve">
<style type="text/css">
	.st0{fill:#FFFFFF;}
</style>
<path id="wiiu" class="st0" d="M55,18H9c-2.2,0-4,1.8-4,4v20c0,2.2,1.8,4,4,4h46c2.2,0,4-1.8,4-4V22C59,19.8,57.2,18,55,18z M52,28c0.6,0,1,0.4,1,1c0,0.6-0.4,1-1,1s-1-0.4-1-1C51,28.4,51.4,28,52,28z M32,19c0.6,0,1,0.4,1,1c0,0.6-0.4,1-1,1s-1-0.4-1-1C31,19.4,31.4,19,32,19z M7,24.5C7,23.1,8.1,22,9.5,22s2.5,1.1,2.5,2.5c0,1.4-1.1,2.5-2.5,2.5S7,25.9,7,24.5z M15,32h-2v2h-2v-2H9v-2h2v-2h2v2h2V32z M32,45c-0.8,0-1.5-0.7-1.5-1.5S31.2,42,32,42s1.5,0.7,1.5,1.5S32.8,45,32,45z M43.5,44c-0.3,0-0.5-0.2-0.5-0.5s0.2-0.5,0.5-0.5s0.5,0.2,0.5,0.5S43.8,44,43.5,44z M46.5,44c-0.3,0-0.5-0.2-0.5-0.5s0.2-0.5,0.5-0.5s0.5,0.2,0.5,0.5S46.8,44,46.5,44z M47,41H17V23h30V41z M49.5,39c-0.3,0-0.5-0.2-0.5-0.5s0.2-0.5,0.5-0.5s0.5,0.2,0.5,0.5S49.8,39,49.5,39z M49.5,37c-0.3,0-0.5-0.2-0.5-0.5s0.2-0.5,0.5-0.5s0.5,0.2,0.5,0.5S49.8,37,49.5,37z M50,32c-0.6,0-1-0.4-1-1c0-0.6,0.4-1,1-1s1,0.4,1,1C51,31.6,50.6,32,50,32z M52,34c-0.6,0-1-0.4-1-1c0-0.6,0.4-1,1-1s1,0.4,1,1C53,33.6,52.6,34,52,34z M54,32c-0.6,0-1-0.4-1-1c0-0.6,0.4-1,1-1s1,0.4,1,1C55,31.6,54.6,32,54,32z M54.5,27c-1.4,0-2.5-1.1-2.5-2.5c0-1.4,1.1-2.5,2.5-2.5s2.5,1.1,2.5,2.5C57,25.9,55.9,27,54.5,27z"/>
<path id="digi" class="st0" d="M22.61,31.6V27c0-0.4,0.3-0.8,0.8-0.8h1.5c0.4,0,0.8,0.3,0.8,0.8v4.6h2.3l-3.8,4.6l-3.9-4.6H22.61zM27.51,37.7h-6.8c-0.2,0-0.4-0.2-0.4-0.4s0.2-0.4,0.4-0.4h6.8c0.2,0,0.4,0.2,0.4,0.4C27.91,37.6,27.81,37.7,27.51,37.7zM28.31,35.4h-0.8v0.8h-0.8v-0.8h-0.8v-0.8h0.8v-0.8h0.8v0.8h0.8V35.4L28.31,35.4z"/>
<g id="soq">
	<path class="st0" d="M44.91,32.67l-1.35-1l1.07-1.39L42.88,30l0.37-1.45l-1.82,0.15l-0.39-1.45l-1.59,0.74l-1.08-1.2l-1.08,1.2l-1.59-0.74l-0.39,1.45l-1.82-0.15L33.87,30l-1.74,0.28l1.07,1.39l-1.35,1l1.58,0.75l-0.73,1.55l1.82-0.03l0.01,1.48l1.74-0.45l0.75,1.35l1.36-0.99l1.36,0.99l0.75-1.35l1.74,0.45l0.01-1.48l1.82,0.03l-0.73-1.55L44.91,32.67z M38.38,35.05c-2.31,0-4.19-1.35-4.19-3c0-1.66,1.88-3,4.19-3c2.31,0,4.19,1.35,4.19,3C42.57,33.71,40.69,35.05,38.38,35.05z"/>
	<path class="st0" d="M38.38,34.42c-1.89,0-3.43-1.06-3.43-2.37c0-1.31,1.54-2.37,3.43-2.37s3.43,1.06,3.43,2.37C41.8,33.36,40.27,34.42,38.38,34.42z M38.38,30.18c-1.61,0-2.93,0.84-2.93,1.87s1.31,1.87,2.93,1.87s2.93-0.84,2.93-1.87S39.99,30.18,38.38,30.18z"/>
</g>
</svg>