<?xml version="1.0" encoding="utf-8"?>
<!-- Generator: Adobe Illustrator 26.3.1, SVG Export Plug-In . SVG Version: 6.00 Build 0)  -->
<svg version="1.1"
	 id="svg2" xmlns:cc="http://creativecommons.org/ns#" xmlns:dc="http://purl.org/dc/elements/1.1/" xmlns:svg="http://www.w3.org/2000/svg" xmlns:rdf="http://www.w3.org/1999/02/22-rdf-syntax-ns#"
	 xmlns="http://www.w3.org/2000/svg" xmlns:xlink="http://www.w3.org/1999/xlink" x="0px" y="0px" viewBox="0 0 64 64"
	 style="enable-background:new 0 0 64 64;" xml:space="preserve">
<style type="text/css">
	.st0{fill:#FFFFFF;}
</style>
<g id="g10" transform="matrix(1.3333333,0,0,-1.3333333,-12,73.333331)">
	<g id="g12">
	</g>
</g>
<path class="st0" d="M54,9H10c-0.6,0-1,0.4-1,1v39c0,3.3,2.7,6,6,6h37c0.5,0,1-0.5,1-1V18h1c0.5,0,1-0.5,1-1v-7C55,9.4,54.5,9,54,9z
	 M49,50c0,0.5-0.5,1-1,1H18l-5-5V14c0-0.6,0.4-1,1-1h34c0.5,0,1,0.4,1,1V50z"/>
<path class="st0" d="M46,15H16c-0.5,0-1,0.5-1,1v29l4,4h27c0.5,0,1-0.5,1-1V16C47,15.5,46.5,15,46,15z M35.6,44.3
	c0.3,0.3,0.2,0.7,0,1s-0.7,0.3-1,0L31,41.7l-3.6,3.6c-0.3,0.3-0.7,0.2-1,0s-0.3-0.7,0-1l3.6-3.6l-3.6-3.6c-0.3-0.3-0.2-0.7,0-1
	s0.7-0.3,1,0l3.6,3.6l3.6-3.6c0.3-0.3,0.7-0.2,1,0s0.3,0.7,0,1L32,40.7L35.6,44.3z M31,36l-6.5-8h3v-9h7v9h3L31,36z"/>
</svg>
