<svg xmlns="http://www.w3.org/2000/svg" xml:space="preserve" width="256" height="256"><path d="M128 4C59.51 4 4 59.516 4 128s55.51 124 124 124c68.469 0 124-55.516 124-124S196.469 4 128 4m0 170.505c-25.647 0-46.505-20.863-46.505-46.505S102.353 81.495 128 81.495c25.642 0 46.5 20.863 46.5 46.505s-20.858 46.505-46.5 46.505m0-10.333c-19.943 0-36.172-16.239-36.172-36.172S108.057 91.828 128 91.828c19.923 0 36.167 16.239 36.167 36.172S147.923 164.172 128 164.172m0-51.682c-8.546 0-15.51 6.954-15.51 15.51 0 8.55 6.964 15.5 15.51 15.5 8.55 0 15.5-6.95 15.5-15.5 0-8.556-6.95-15.51-15.5-15.51" style="fill:#fff"/></svg>