<?xml version="1.0" encoding="utf-8"?>
<svg version="1.1"
	 id="svg2" xmlns:svg="http://www.w3.org/2000/svg" xmlns:inkscape="http://www.inkscape.org/namespaces/inkscape" xmlns:cc="http://creativecommons.org/ns#" xmlns:sodipodi="http://sodipodi.sourceforge.net/DTD/sodipodi-0.dtd" inkscape:export-ydpi="90" xmlns:dc="http://purl.org/dc/elements/1.1/" xmlns:rdf="http://www.w3.org/1999/02/22-rdf-syntax-ns#"
	 xmlns="http://www.w3.org/2000/svg" xmlns:xlink="http://www.w3.org/1999/xlink" x="0px" y="0px" viewBox="0 0 64 64"
	 style="enable-background:new 0 0 64 64;" xml:space="preserve">
<style type="text/css">
	.st0{fill:#FFFFFF;}
</style>
<polygon class="st0" points="35,-46.41 32.75,-46.41 32.75,-48.66 31.25,-48.66 31.25,-46.41 29,-46.41 29,-44.91 31.25,-44.91 
	31.25,-42.66 32.75,-42.66 32.75,-44.91 35,-44.91 "/>
<g>
	<polygon class="st0" points="51.42,-20.11 61.66,-20.11 61.66,-21.99 49.62,-21.99 49.62,-14.49 51.42,-14.49 51.42,-12.49 
		53.08,-12.49 53.08,-16.36 51.42,-16.36 	"/>
	<path class="st0" d="M54.78-18.52v7.5h1.8v2h8.4v-2h1.8v-7.5H54.78z M64.98-12.9h-8.4v-3.75h8.4V-12.9z"/>
</g>
<g>
	<path class="st0" d="M26.08-49.51H14.01c-1.13,0-1.23,1.1-1.23,1.23v0.77h1.08v5.47c0,0.13,0.1,0.23,0.23,0.23h11.4
		c0.13,0,0.23-0.1,0.23-0.23v-5.47h0.96v-1.4C26.68-49.25,26.41-49.51,26.08-49.51z M24.35-42.95c0,0.13-0.1,0.23-0.23,0.23h-8.67
		c-0.13,0-0.23-0.1-0.23-0.23v-4.1c0-0.13,0.1-0.23,0.23-0.23h8.67c0.13,0,0.23,0.1,0.23,0.23V-42.95z"/>
	<path class="st0" d="M50.62-49.51H38.55c-1.13,0-1.23,1.1-1.23,1.23v0.77h1.08v5.47c0,0.13,0.1,0.23,0.23,0.23h11.4
		c0.13,0,0.23-0.1,0.23-0.23v-5.47h0.96v-1.4C51.22-49.25,50.95-49.51,50.62-49.51z M48.89-42.95c0,0.13-0.1,0.23-0.23,0.23h-8.67
		c-0.13,0-0.23-0.1-0.23-0.23v-4.1c0-0.13,0.1-0.23,0.23-0.23h8.67c0.13,0,0.23,0.1,0.23,0.23C48.89-47.05,48.89-42.95,48.89-42.95z
		"/>
</g>
<g>
	<path class="st0" d="M58,16H6c-0.55,0-1,0.45-1,1v6h1v24c0,0.55,0.45,1,1,1h50c0.55,0,1-0.45,1-1V23h1v-6C59,16.45,58.55,16,58,16z
		 M52,43c0,0.55-0.45,1-1,1H13c-0.55,0-1-0.45-1-1V25c0-0.55,0.45-1,1-1h38c0.55,0,1,0.45,1,1V43z"/>
	<path class="st0" d="M49,26H15c-0.55,0-1,0.45-1,1v14c0,0.55,0.45,1,1,1h34c0.55,0,1-0.45,1-1V27C50,26.45,49.55,26,49,26z
		 M34.33,40.29h-8.69v-8.69h8.69V40.29z M38.35,36.4h-2.77v-1.39h1.38V29.1h-5.91v1.25h-1.39v-2.64h8.69V36.4z"/>
	<rect x="27.03" y="32.99" class="st0" width="5.91" height="5.91"/>
</g>
</svg>
