<svg xmlns="http://www.w3.org/2000/svg" xml:space="preserve" width="64" height="64"><defs><clipPath id="a" clipPathUnits="userSpaceOnUse"><path d="M0 64h64V0H0z"/></clipPath></defs><g clip-path="url(#a)" transform="matrix(1 0 0 -1 0 64)"><path d="M0 0a2 2 0 0 0-2-2h-28a2 2 0 0 0-2 2v37a2 2 0 0 0 2 2h28a2 2 0 0 0 2-2zm-16-8-3 3h6zm-5.5 50h11c.275 0 .5-.225.5-.5s-.225-.5-.5-.5h-11c-.275 0-.5.225-.5.5s.225.5.5.5M0 44h-32a2 2 0 0 1-2-2V-8a2 2 0 0 1 2-2H0a2 2 0 0 1 2 2v50a2 2 0 0 1-2 2" style="fill:#fff;fill-opacity:1;fill-rule:nonzero;stroke:none" transform="translate(48 15)"/><path d="M0 0h-26a2 2 0 0 0-2 2v35a2 2 0 0 0 2 2H0a2 2 0 0 0 2-2V2a2 2 0 0 0-2-2" style="fill:#fff;fill-opacity:1;fill-rule:nonzero;stroke:none" transform="translate(45 14)"/></g></svg>