<?xml version="1.0" encoding="utf-8"?>
<!-- Generator: Adobe Illustrator 26.3.1, SVG Export Plug-In . SVG Version: 6.00 Build 0)  -->
<svg version="1.1"
	 id="svg4678" xmlns:svg="http://www.w3.org/2000/svg" xmlns:dc="http://purl.org/dc/elements/1.1/" xmlns:rdf="http://www.w3.org/1999/02/22-rdf-syntax-ns#" xmlns:sodipodi="http://sodipodi.sourceforge.net/DTD/sodipodi-0.dtd" xmlns:inkscape="http://www.inkscape.org/namespaces/inkscape" xmlns:cc="http://creativecommons.org/ns#" inkscape:export-filename="/Users/margetts/Documents/GitHub/Working/monochrome/Nintendo - Nintendo DSi (DLC)-content.png" inkscape:export-ydpi="360"
	 xmlns="http://www.w3.org/2000/svg" xmlns:xlink="http://www.w3.org/1999/xlink" x="0px" y="0px" viewBox="0 0 64 64"
	 style="enable-background:new 0 0 64 64;" xml:space="preserve">
<style type="text/css">
	.st0{fill:#FFFFFF;}
</style>
<sodipodi:namedview  bordercolor="#666666" borderopacity="1" gridtolerance="10" guidetolerance="10" id="namedview4680" inkscape:current-layer="svg4678" inkscape:cx="-35" inkscape:cy="29.473684" inkscape:pageopacity="0" inkscape:pageshadow="2" inkscape:window-height="1005" inkscape:window-maximized="1" inkscape:window-width="1676" inkscape:window-x="4" inkscape:window-y="1" inkscape:zoom="3.8" objecttolerance="10" pagecolor="#808080" showgrid="false">
	</sodipodi:namedview>
<g>
	<path class="st0" d="M53,9H11c-0.6,0-1,0.4-1,1v39c0,3.3,2.7,6,6,6h37c0.6,0,1-0.4,1-1V10C54,9.4,53.6,9,53,9z M50,50
		c0,0.6-0.4,1-1,1H19l-5-5V14c0-0.6,0.4-1,1-1h34c0.6,0,1,0.4,1,1V50z"/>
	<path class="st0" d="M47,15H17c-0.6,0-1,0.4-1,1v29l4,4h27c0.6,0,1-0.4,1-1V16C48,15.4,47.6,15,47,15z M28.8,31.3v-8.6
		c0-0.8,0.6-1.4,1.4-1.4H33c0.8,0,1.4,0.6,1.4,1.4v8.6h4.3l-7.1,8.6l-7.1-8.6C24.5,31.3,28.8,31.3,28.8,31.3z M38.1,42.7H25.2
		c-0.4,0-0.7-0.3-0.7-0.7s0.3-0.7,0.7-0.7H38c0.4,0,0.7,0.3,0.7,0.7C38.8,42.4,38.5,42.7,38.1,42.7z M39.5,38.4h-1.4v1.4h-1.4v-1.4
		h-1.4V37h1.4v-1.4h1.4V37h1.4V38.4z"/>
</g>
</svg>
