<svg xmlns="http://www.w3.org/2000/svg" xml:space="preserve" width="64" height="64"><defs><clipPath id="a" clipPathUnits="userSpaceOnUse"><path d="M0 64h64V0H0z"/></clipPath></defs><g clip-path="url(#a)" transform="matrix(1 0 0 -1 0 64)"><path d="M0 0a1 1 0 1 0 0 2 1 1 0 0 0 0-2m-2-7a2 2 0 1 0 .001 4.001A2 2 0 0 0-2-7m-2-5a1 1 0 1 0 0 2 1 1 0 1 0 0-2m0 14a1 1 0 1 0 0-2 1 1 0 0 0 0 2m-1 3h1V4h-1zm4-6a1 1 0 1 0-2 0 1 1 0 0 0 2 0m-1 5a1 1 0 1 0 0-2 1 1 0 0 0 0 2m-7-17h-32V6h32zM-45 4h-1v1h1zm-1-10a1 1 0 1 0 0 2 1 1 0 0 0 0-2m1-4.5a.5.5 0 0 0-.5-.5h-1a.5.5 0 0 0-.5.5v1a.5.5 0 0 0 .5.5h1a.5.5 0 0 0 .5-.5zM-48-8a1 1 0 1 0 0 2 1 1 0 0 0 0-2m-2 2a1 1 0 1 0 0 2 1 1 0 0 0 0-2m3 3a1 1 0 1 0-2 0 1 1 0 0 0 2 0m-1 6a2 2 0 1 0-.001-4.001A2 2 0 0 0-48 3m45 4h-3V6a1 1 0 0 0-1 1h-36a1 1 0 0 0-1-1v1h-3c-3 0-5-3-5-6v-11c0-3 2-5 5-5h44c2.571 0 5 .929 5 3.499V2.5C2 5.5 0 7-3 7" style="fill:#fff;fill-opacity:1;fill-rule:nonzero;stroke:none" transform="translate(57 36)"/></g></svg>