<svg xmlns="http://www.w3.org/2000/svg" xml:space="preserve" width="64" height="64" viewBox="0 128 64 64"><path d="M18 5c-1 0-2 1-2 2v49c0 3 12 4 16.105 4C36 60 48 59 48 56V7c0-1-1-2-2-2zm1 3h26a1 1 0 0 1 1 1v20c0 3-10 3-14 3s-14 0-14-3V9a1 1 0 0 1 1-1m25 29a2 2 0 1 1-.001 4.001A2 2 0 0 1 44 37m-22 1h1c1 0 1 0 1 1v1h1c1 0 1 0 1 1v1c0 1 0 1-1 1h-1v1c0 1 0 1-1 1h-1c-1 0-1 0-1-1v-1h-1c-1 0-1 0-1-1v-1c0-1 0-1 1-1h1v-1c0-1 0-1 1-1m16 2a2 2 0 1 1-.001 4.001A2 2 0 0 1 38 40m-9.5 10h2a.499.499 0 1 1 0 1h-2a.499.499 0 1 1 0-1m5 0h2a.499.499 0 1 1 0 1h-2a.499.499 0 1 1 0-1" style="fill:#fff" transform="translate(0 128)"/></svg>