<?xml version="1.0" encoding="UTF-8" standalone="no"?>
<svg
   xmlns:dc="http://purl.org/dc/elements/1.1/"
   xmlns:cc="http://creativecommons.org/ns#"
   xmlns:rdf="http://www.w3.org/1999/02/22-rdf-syntax-ns#"
   xmlns:svg="http://www.w3.org/2000/svg"
   xmlns="http://www.w3.org/2000/svg"
   viewBox="0 0 58.666664 58.666664"
   height="58.666664"
   width="58.666664"
   xml:space="preserve"
   id="svg2"
   version="1.1"><metadata
     id="metadata8"><rdf:RDF><cc:Work
         rdf:about=""><dc:format>image/svg+xml</dc:format><dc:type
           rdf:resource="http://purl.org/dc/dcmitype/StillImage" /></cc:Work></rdf:RDF></metadata><defs
     id="defs6"><clipPath
       id="clipPath18"
       clipPathUnits="userSpaceOnUse"><path
         id="path16"
         d="M 0,64 H 64 V 0 H 0 Z" /></clipPath></defs><g
     transform="matrix(1.3333333,0,0,-1.3333333,-13.333333,71.999998)"
     id="g10"><g
       id="g12"><g
         clip-path="url(#clipPath18)"
         id="g14"><g
           transform="translate(53,22.5)"
           id="g20"><path
             id="path22"
             style="fill:#ffffff;fill-opacity:1;fill-rule:nonzero;stroke:none"
             d="M 0,0 C 0,-0.829 -0.671,-1.5 -1.5,-1.5 -2.329,-1.5 -3,-0.829 -3,0 -3,0.829 -2.329,1.5 -1.5,1.5 -0.671,1.5 0,0.829 0,0 m -4.5,-4.5 c -0.829,0 -1.5,0.671 -1.5,1.5 0,0.829 0.671,1.5 1.5,1.5 0.829,0 1.5,-0.671 1.5,-1.5 0,-0.829 -0.671,-1.5 -1.5,-1.5 m -3,3 C -8.329,-1.5 -9,-0.829 -9,0 -9,0.829 -8.329,1.5 -7.5,1.5 -6.671,1.5 -6,0.829 -6,0 -6,-0.829 -6.671,-1.5 -7.5,-1.5 m 0,-7 c -0.276,0 -0.5,0.224 -0.5,0.5 0,0.276 0.224,0.5 0.5,0.5 0.276,0 0.5,-0.224 0.5,-0.5 0,-0.276 -0.224,-0.5 -0.5,-0.5 m 0,-2 c -0.276,0 -0.5,0.224 -0.5,0.5 0,0.276 0.224,0.5 0.5,0.5 0.276,0 0.5,-0.224 0.5,-0.5 0,-0.276 -0.224,-0.5 -0.5,-0.5 m -3.5,24 h -20 v 15 h 20 z m 0,-23 h -20 v 15 h 20 z m -25,8 h -1 v -1 c 0,-1 0,-1 -1,-1 -1,0 -1,0 -1,1 v 1 h -1 c -1,0 -1,0 -1,1 0,1 0,1 1,1 h 1 v 1 c 0,1 0,1 1,1 1,0 1,0 1,-1 v -1 h 1 c 1,0 1,0 1,-1 0,-1 0,-1 -1,-1 m 31.5,6 C -3.671,4.5 -3,3.829 -3,3 -3,2.171 -3.671,1.5 -4.5,1.5 -5.329,1.5 -6,2.171 -6,3 c 0,0.829 0.671,1.5 1.5,1.5 m 5.5,26 c 0,1 0,1 -1,1 h -42 c -1,0 -1,0 -1,-1 v -20 h 1.5 c -0.828,0 -1.5,-0.672 -1.5,-1.5 0,-0.828 0.672,-1.5 1.5,-1.5 H -43 v -19 c 0,-1 0,-1 1,-1 H 0 c 1,0 1,0 1,1 v 19 H -0.5 C 0.328,7.5 1,8.172 1,9 1,9.828 0.328,10.5 -0.5,10.5 H 1 Z" /></g><g
           transform="translate(36,44)"
           id="g24"><path
             id="path26"
             style="fill:#ffffff;fill-opacity:1;fill-rule:nonzero;stroke:none"
             d="M 0,0 H -2 V 4 H -6 V 0 h -2 l 4,-4 z" /></g><g
           transform="translate(35,40)"
           id="g28"><path
             id="path30"
             style="fill:#ffffff;fill-opacity:1;fill-rule:nonzero;stroke:none"
             d="m 0,0 h -3 -3 c -0.552,0 -1,-0.448 -1,-1 0,-0.552 0.448,-1 1,-1 h 6 c 0.553,0 1,0.448 1,1 0,0.552 -0.447,1 -1,1" /></g></g></g></g></svg>