<svg xmlns="http://www.w3.org/2000/svg" xml:space="preserve" viewBox="0 0 64 64"><style>.st0{fill:#fff}</style><path id="wiiu" d="M55 18H9c-2.2 0-4 1.8-4 4v20c0 2.2 1.8 4 4 4h46c2.2 0 4-1.8 4-4V22c0-2.2-1.8-4-4-4m-3 10c.6 0 1 .4 1 1s-.4 1-1 1-1-.4-1-1 .4-1 1-1m-20-9c.6 0 1 .4 1 1s-.4 1-1 1-1-.4-1-1 .4-1 1-1M7 24.5C7 23.1 8.1 22 9.5 22s2.5 1.1 2.5 2.5S10.9 27 9.5 27 7 25.9 7 24.5m8 7.5h-2v2h-2v-2H9v-2h2v-2h2v2h2zm17 13c-.8 0-1.5-.7-1.5-1.5S31.2 42 32 42s1.5.7 1.5 1.5S32.8 45 32 45m11.5-1c-.3 0-.5-.2-.5-.5s.2-.5.5-.5.5.2.5.5-.2.5-.5.5m3 0c-.3 0-.5-.2-.5-.5s.2-.5.5-.5.5.2.5.5-.2.5-.5.5m.5-3H17V23h30zm2.5-2c-.3 0-.5-.2-.5-.5s.2-.5.5-.5.5.2.5.5-.2.5-.5.5m0-2c-.3 0-.5-.2-.5-.5s.2-.5.5-.5.5.2.5.5-.2.5-.5.5m.5-5c-.6 0-1-.4-1-1s.4-1 1-1 1 .4 1 1-.4 1-1 1m2 2c-.6 0-1-.4-1-1s.4-1 1-1 1 .4 1 1-.4 1-1 1m2-2c-.6 0-1-.4-1-1s.4-1 1-1 1 .4 1 1-.4 1-1 1m.5-5c-1.4 0-2.5-1.1-2.5-2.5s1.1-2.5 2.5-2.5 2.5 1.1 2.5 2.5-1.1 2.5-2.5 2.5" class="st0"/><path id="digi" d="M22.61 31.6V27c0-.4.3-.8.8-.8h1.5c.4 0 .8.3.8.8v4.6h2.3l-3.8 4.6-3.9-4.6zm4.9 6.1h-6.8c-.2 0-.4-.2-.4-.4s.2-.4.4-.4h6.8c.2 0 .4.2.4.4 0 .3-.1.4-.4.4m.8-2.3h-.8v.8h-.8v-.8h-.8v-.8h.8v-.8h.8v.8h.8z" class="st0"/><g id="soq"><path d="m44.91 32.67-1.35-1 1.07-1.39-1.75-.28.37-1.45-1.82.15-.39-1.45-1.59.74-1.08-1.2-1.08 1.2-1.59-.74-.39 1.45-1.82-.15.38 1.45-1.74.28 1.07 1.39-1.35 1 1.58.75-.73 1.55 1.82-.03.01 1.48 1.74-.45.75 1.35 1.36-.99 1.36.99.75-1.35 1.74.45.01-1.48 1.82.03-.73-1.55zm-6.53 2.38c-2.31 0-4.19-1.35-4.19-3 0-1.66 1.88-3 4.19-3s4.19 1.35 4.19 3c0 1.66-1.88 3-4.19 3" class="st0"/><path d="M38.38 34.42c-1.89 0-3.43-1.06-3.43-2.37s1.54-2.37 3.43-2.37 3.43 1.06 3.43 2.37c-.01 1.31-1.54 2.37-3.43 2.37m0-4.24c-1.61 0-2.93.84-2.93 1.87s1.31 1.87 2.93 1.87 2.93-.84 2.93-1.87-1.32-1.87-2.93-1.87" class="st0"/></g></svg>