<svg xmlns="http://www.w3.org/2000/svg" xml:space="preserve" viewBox="0 0 64 64"><style>.st0{fill:#fff}</style><g id="ngage"><path d="M59.3 33.03s-.12-2.47-.74-6.24-.53-2.94-.96-4.82-1.33-3.16-3.86-3.37-14.51-.77-14.51-.77H24.77s-11.98.56-14.51.77-3.43 1.49-3.86 3.37-.34 1.05-.96 4.82-.74 6.24-.74 6.24-.15 2.12 1.37 3.76 6.58 4.59 6.58 4.59 8.25 4.79 19.36 4.79 19.36-4.79 19.36-4.79 5.06-2.95 6.58-4.59c1.51-1.64 1.35-3.76 1.35-3.76m-3.22-6.83.46 2.64c.01.07-.01.14-.05.2s-.11.09-.19.09c-.02 0-1.63.12-3.08.15-.04-.94-.17-1.96-.37-3.03l2.96-.26c.12-.02.25.08.27.21m-1.76-4.58c.41-.06.81.18.93.58l.45 1.47c.05.16.03.33-.06.47s-.23.23-.39.26c-.87.13-2.05.3-2.71.38a33 33 0 0 0-.79-2.71c.82-.15 2.04-.36 2.57-.45m-5.75 9.15h3.72c-.04.92-.17 1.92-.38 2.98-1.45-.13-2.88-.27-3.51-.33.1-.85.16-1.74.17-2.65m-.24-3.95c.52-.07 1.98-.3 3.56-.45.2 1.05.36 2 .41 2.91l-3.73.04c-.04-.79-.09-1.61-.24-2.5m3.27-1.91-3.54.49c-.16-.72-.43-1.57-.65-2.31 1.9-.5 3.42-.86 3.42-.86.47.93.77 2.68.77 2.68m-7.72 6.9c0-.4 1.31-.87 3.82-1.01-.02.86-.07 1.71-.15 2.52-2.17-.4-3.67-1.02-3.67-1.51m3.5 2.92c-.12.81-.27 1.59-.46 2.35-1.71-.59-2.8-1.24-2.95-1.68-.02-.06-.02-.11.02-.16.26-.4 1.2-.54 2.25-.54.42 0 .72-.01 1.14.03m-.01-7.79c.14.84.23 1.64.27 2.39-2.5-.07-3.81-.5-3.81-.9 0-.49 1.44-1.09 3.54-1.49m-3.57-1.78c-.09-.4 1.11-1.12 2.84-1.71.21.7.39 1.39.55 2.06-2.13.22-3.31-.01-3.39-.35m1.46-5.35c.29-.18.62-.28.96-.29 1.05-.03 3.36-.03 3.56.62.26.85-3.15 1.82-3.15 1.82s-3.15.98-3.52.13c-.29-.65 1.34-1.77 2.15-2.28m-31.55.45c.2-.65 2.51-.65 3.56-.62.34.01.67.11.96.29.81.51 2.44 1.63 2.16 2.28-.37.85-3.52-.13-3.52-.13s-3.42-.98-3.16-1.82M6.7 30.62c0-.32.47-6.21 1.77-8.78.56-1.1 2.4-.64 3.42-.44s7.98 1.82 7.98 5.98c-.23 2.69-4.43 4.33-8.8 4.33-4.37-.01-4.37-.6-4.37-1.09m13.09 3.04c-.19.54-1.76 1.29-3.31 1.83 0 0-.22-1.12-.37-2.62 1.3-.1 3.25-.03 3.66.61.04.06.05.11.02.18m-9.66 3.5c-.08.01-.16.02-.25.02-.28 0-.56-.09-.83-.26-.4-.25-1.49-1.8-1.77-2.61-.07-.17-.07-.31-.01-.41.08-.14.26-.18.25-.18l3.22-.43.86 3.52zm2.26-.59-.79-3.34 3.48-.28c.23 2.01.51 2.78.51 2.78zm5.05 5.6-3.58-1.61c-.18-.08-.22-.24-.21-.36s.1-.27.29-.31l2.62-.62c.44 1.3 1.31 2.72 1.31 2.72s-.37.21-.43.18m1.13-.51c-.28-.5-.7-1.37-1.12-2.59.61-.09 1.23-.14 1.77-.14.85 0 1.51.13 1.66.46.23.52-1 1.52-2.31 2.27m21.49-3.46c-.27.61-.94 1.13-1.59 1.38s-2.38 1.01-6.47 1.01-5.83-.77-6.47-1.01-1.31-.77-1.59-1.38c-.27-.61-1.61-3.44-1.61-8.48s2.43-10.37 2.43-10.37 3.18-.31 7.23-.31 7.23.31 7.23.31 2.43 5.34 2.43 10.37c.02 5.04-1.32 7.88-1.59 8.48m3 .97c.15-.33.81-.46 1.66-.46.54 0 1.16.05 1.77.14-.42 1.23-.85 2.09-1.12 2.59-1.32-.74-2.55-1.74-2.31-2.27m7 1.18-3.58 1.61c-.06.03-.43-.17-.43-.17s.87-1.42 1.31-2.72l2.62.62c.19.04.27.18.29.31s-.03.27-.21.35m.67-2.23-2.95-.81s.39-1.12.48-2.48l3.34.38c-.29 1.18-.62 2.2-.87 2.91m4.92-1.74-1.42 1.35c-.68.65-1.66.88-2.56.62l-.05-.02c.23-.66.58-1.75.9-3.03l2.92.42c.15.02.26.12.31.26.05.15.01.3-.1.4m.98-2.48c-.04.03-.07.04-.17.03-.01 0-1.66.04-3.62-.11.21-1.08.33-2.1.38-3.05 1.46 0 3.12.02 3.21.02.15.01.46.03.46 1.59.01 1.15-.18 1.45-.26 1.52" class="st0"/><path d="M13.02 26.82c0-.68-1.95-1.41-1.95-1.41s-.36.5-.36 1.41c0 .92.36 1.45.36 1.45s1.95-.78 1.95-1.45m3.33-1.43s-1.95.74-1.95 1.41c0 .68 1.95 1.45 1.95 1.45s.36-.54.36-1.45c0-.92-.36-1.41-.36-1.41m-2.66.73c.68 0 1.41-1.95 1.41-1.95s-.5-.36-1.41-.36c-.92 0-1.45.36-1.45.36s.77 1.95 1.45 1.95m.02 1.39c-.68 0-1.45 1.95-1.45 1.95s.54.36 1.45.36c.92 0 1.41-.36 1.41-.36s-.74-1.95-1.41-1.95" class="st0"/></g><g id="cone"><path d="m38.59 13.42-.69-2.25c-.13-.41-.49-.7-.9-.7h-1.1l.36 1.19.11.37-.33.2c-.07.04-1.77 1.07-4.06 1.07-2.3 0-3.97-1.03-4.04-1.07l-.33-.2.11-.37.36-1.19H27c-.41 0-.77.28-.9.7l-.69 2.25c-.2.65.25 1.33.9 1.33H37.7c.64-.01 1.09-.68.89-1.33" class="st0"/><path d="m35.5 11.56-.87-2.85c-.7.1-1.63.2-2.68.2-1 0-1.89-.09-2.58-.19l-.87 2.84s1.48.92 3.49.92 3.51-.92 3.51-.92m-1.59-5.21L32.73 2.5s-.34.09-.73.09-.73-.09-.73-.09l-1.18 3.85c.7.08 1.43.15 1.91.15.49.01 1.21-.06 1.91-.15" class="st0"/></g></svg>