<svg xmlns="http://www.w3.org/2000/svg" xml:space="preserve" viewBox="0 0 64 64"><path d="M54.05 5.47a.485.485 0 0 0-.48-.47h-13.1c-.27 0-.48.21-.48.48v.48H24v-.48c0-.27-.21-.48-.48-.48H10.41c-.25 0-.47.2-.48.47L8.99 31v2l1.45 23.56c.01.25.21.44.48.44h.33v.11h.05l.64 1.35c.17.33.5.54.86.54h38.91c.36 0 .69-.21.85-.55l.64-1.35h.05V57h.33c.25 0 .47-.2.47-.44L54.99 33v-2zM16.76 47.05c-.47-.03-.84-.41-.88-.91L15 36h34l-.87 10.15c-.04.49-.41.88-.88.91l-14.3.94h-1.9zM50 53v1H32v-1h11v-1h7z" style="fill:#fff"/></svg>