<svg xmlns="http://www.w3.org/2000/svg" xml:space="preserve" viewBox="0 0 64 64"><style>.st0{fill:#fff}</style><path d="M32 24.9c-3.91 0-7.1 3.19-7.1 7.1s3.19 7.1 7.1 7.1 7.1-3.19 7.1-7.1c-.01-3.91-3.19-7.1-7.1-7.1M32 35c-1.66 0-3-1.35-3-3 0-1.66 1.35-3 3-3 1.66 0 3 1.35 3 3 0 1.66-1.35 3-3 3" class="st0"/><path d="M32 8C18.74 8 8 18.74 8 32s10.74 24 24 24 24-10.74 24-24C55.99 18.74 45.24 8 32 8m-4.32 9.85c.54 0 1.08.13 1.48.4v-6.21l7.15-1.35v7.56c0 .94-.94 1.75-2.16 1.75-1.21 0-2.16-.81-2.16-1.75s.94-1.75 2.16-1.75c.54 0 1.08.13 1.48.4v-4.59l-5.8 1.08v6.21c0 .94-.94 1.75-2.16 1.75s-2.16-.81-2.16-1.75c.01-.94.96-1.75 2.17-1.75M32 40.94c-4.93 0-8.94-4.01-8.94-8.94s4.01-8.94 8.94-8.94 8.94 4.01 8.94 8.94-4.01 8.94-8.94 8.94" class="st0"/></svg>