<svg xmlns="http://www.w3.org/2000/svg" xml:space="preserve" width="64" height="64" viewBox="0 128 64 64"><g style="display:inline"><g style="display:inline;fill:#fff;fill-opacity:1"><g style="fill:#fff;fill-opacity:1"><g style="display:inline;fill:#fff;fill-opacity:1"><path d="M-892.343-887.9c-94.437 0-170.979 76.548-170.979 170.978s76.542 170.978 170.979 170.978c94.408 0 170.978-76.548 170.978-170.978S-797.935-887.9-892.343-887.9m0 235.102c-35.364 0-64.124-28.767-64.124-64.124s28.76-64.124 64.124-64.124c35.356 0 64.116 28.767 64.116 64.124s-28.76 64.124-64.116 64.124m0-14.248c-27.5 0-49.876-22.391-49.876-49.876s22.377-49.876 49.876-49.876c27.47 0 49.868 22.391 49.868 49.876s-22.398 49.876-49.868 49.876m0-71.263c-11.784 0-21.387 9.59-21.387 21.387 0 11.79 9.603 21.372 21.387 21.372 11.79 0 21.372-9.582 21.372-21.372 0-11.798-9.582-21.387-21.372-21.387" style="fill:#fff" transform="translate(157.257 260.633)scale(.14037)"/></g></g></g></g></svg>