<svg xmlns="http://www.w3.org/2000/svg" xml:space="preserve" viewBox="0 0 64 64"><style>.st0{fill:#fff}</style><path d="M42.1 32.2V18.6l-1.3-1.3H23.1l-1.3 1.3v13.6l-3.5 5.4c0 .6.6 1.3 1.3 1.3h24.8c.6 0 1.3-.6 1.3-1.3zm-7.8 2.4c0 .3-.4.6-.9.6-.4 0-.8-.2-.8-.6v-1.4h1.7zm2.5 0c0 .3-.4.6-.9.6s-.9-.2-.9-.6v-1.4h1.8zm2.4 0c0 .3-.4.6-.9.6s-.9-.2-.8-.6v-1.4h1.7zm1.7-2.5h-14c0 .7-.2 2.2-.5 2.6 0 0-.2.5-.5.5s-.5-.5-.5-.5c-.3-.4-.4-1.9-.5-2.6h-1.7V21.9h17.7zm-19-26.3s2.3-4 10.1-4 10.1 4 10.1 4v9.9H21.9z" class="st0"/><path d="M21 19v13.1l-2.6 3.8c-.4.5-1.1.2-1.1-.4l2.8-16.6c.1-.5.9-.5.9.1m.9 21.1v21.4h20.3V40.1zM41.4 51h-4.2v9.3h-.8V41.1h.8v9.1h4.2zM43 19v13.1l2.6 3.8c.4.5 1.1.2 1.1-.4l-2.8-16.6c-.1-.5-.9-.5-.9.1M26.9 31.7s-.3.3-1 .3-1-.3-1-.3-.3-.9 1-.9 1 .9 1 .9" class="st0"/></svg>