<svg xmlns="http://www.w3.org/2000/svg" xml:space="preserve" width="256" height="256"><defs><clipPath id="a" clipPathUnits="userSpaceOnUse"><path d="M0 64h64V0H0Z"/></clipPath></defs><g clip-path="url(#a)" style="stroke-width:.33333334" transform="matrix(4 0 0 -4 0 256)"><g style="stroke-width:.33333334"><path d="M0 0a1.5 1.5 0 1 0 0 3 1.5 1.5 0 0 0 0-3m-3.5 6.5a1.5 1.5 0 1 0 3 0 1.5 1.5 0 0 0-3 0M-4-3a1.5 1.5 0 1 0 0 3 1.5 1.5 0 0 0 0-3m-3.5 6.5a1.5 1.5 0 1 0 3 0 1.5 1.5 0 0 0-3 0m-9-5.5a6 6 0 0 0 0 12 6 6 0 0 0 0-12M-31-6a6.5 6.5 0 1 0 0 13 6.5 6.5 0 0 0 0-13m16.616 22.744a8 8 0 0 1-2.012.256h-.208a8 8 0 0 1-2.012-.256C-23.322 15.537-41.45 9.589-44.5-11c0 0 0-10 3-10s6 5 9 7 4 5 16 5 13-3 16-5 6-7 9-7 3 10 3 10C8.45 9.589-9.678 15.537-14.384 16.744" style="fill:#fff;fill-opacity:1;fill-rule:nonzero;stroke:none;stroke-width:.33333334" transform="translate(48.5 34)"/></g><g style="stroke-width:.33333334"><path d="M0 0a3 3 0 1 0 0 6 3 3 0 0 0 0-6m0 8c-2.757 0-5-2.243-5-5s2.243-5 5-5S5 .243 5 3 2.757 8 0 8" style="fill:#fff;fill-opacity:1;fill-rule:nonzero;stroke:none;stroke-width:.33333334" transform="translate(32 35)"/></g></g></svg>