<?xml version="1.0" encoding="utf-8"?>
<svg version="1.1"
	 id="svg2" xmlns:svg="http://www.w3.org/2000/svg" xmlns:sodipodi="http://sodipodi.sourceforge.net/DTD/sodipodi-0.dtd" xmlns:rdf="http://www.w3.org/1999/02/22-rdf-syntax-ns#" sodipodi:docname="reload.svg" xmlns:inkscape="http://www.inkscape.org/namespaces/inkscape" xmlns:dc="http://purl.org/dc/elements/1.1/" xmlns:cc="http://creativecommons.org/ns#" inkscape:export-ydpi="90" inkscape:export-xdpi="90" inkscape:export-filename="/home/kivutar/Bureau/lakka-menu/reload.png"
	 xmlns="http://www.w3.org/2000/svg" xmlns:xlink="http://www.w3.org/1999/xlink" x="0px" y="0px" viewBox="0 0 64 64"
	 style="enable-background:new 0 0 64 64;" xml:space="preserve">
<style type="text/css">
	.st0{fill:#FFFFFF;}
</style>
<path id="CD" class="st0" d="M32,8C18.74,8,8,18.74,8,32s10.74,24,24,24c13.25,0,24-10.74,24-24S45.25,8,32,8z M32,41
	c-4.96,0-9-4.04-9-9s4.04-9,9-9c4.96,0,9,4.04,9,9S36.96,41,32,41z M32,39c-3.86,0-7-3.14-7-7s3.14-7,7-7c3.86,0,7,3.14,7,7
	S35.86,39,32,39z M32,29c-1.65,0-3,1.35-3,3c0,1.65,1.35,3,3,3c1.65,0,3-1.35,3-3C35,30.34,33.65,29,32,29z"/>
</svg>
