<?xml version="1.0" encoding="UTF-8" standalone="no"?>
<!-- Generator: Adobe Illustrator 16.0.0, SVG Export Plug-In . SVG Version: 6.00 Build 0)  -->

<svg
   xmlns:dc="http://purl.org/dc/elements/1.1/"
   xmlns:cc="http://creativecommons.org/ns#"
   xmlns:rdf="http://www.w3.org/1999/02/22-rdf-syntax-ns#"
   xmlns:svg="http://www.w3.org/2000/svg"
   xmlns="http://www.w3.org/2000/svg"
   xmlns:sodipodi="http://sodipodi.sourceforge.net/DTD/sodipodi-0.dtd"
   xmlns:inkscape="http://www.inkscape.org/namespaces/inkscape"
   version="1.1"
   id="Calque_1"
   x="0px"
   y="0px"
   width="64px"
   height="64px"
   viewBox="0 0 64 64"
   enable-background="new 0 0 64 64"
   xml:space="preserve"
   inkscape:version="0.91 r13725"
   sodipodi:docname="off.svg"><metadata
     id="metadata8"><rdf:RDF><cc:Work
         rdf:about=""><dc:format>image/svg+xml</dc:format><dc:type
           rdf:resource="http://purl.org/dc/dcmitype/StillImage" /></cc:Work></rdf:RDF></metadata><defs
     id="defs6" /><sodipodi:namedview
     pagecolor="#808080"
     bordercolor="#666666"
     borderopacity="1"
     objecttolerance="10"
     gridtolerance="10"
     guidetolerance="10"
     inkscape:pageopacity="0"
     inkscape:pageshadow="2"
     inkscape:window-width="1440"
     inkscape:window-height="838"
     id="namedview4"
     showgrid="true"
     inkscape:zoom="37.401127"
     inkscape:cx="34.138973"
     inkscape:cy="30.930513"
     inkscape:window-x="0"
     inkscape:window-y="27"
     inkscape:window-maximized="1"
     inkscape:current-layer="Calque_1"><inkscape:grid
       type="xygrid"
       id="grid2985"
       empspacing="4"
       visible="true"
       enabled="true"
       snapvisiblegridlinesonly="true" /></sodipodi:namedview><path
     transform="matrix(-1,0,0,-1,64,64)"
     sodipodi:type="arc"
     style="fill:#000000;fill-opacity:0;stroke:#ffffff;stroke-width:2;stroke-miterlimit:4;stroke-opacity:1;stroke-dasharray:none"
     id="path2989"
     sodipodi:cx="21"
     sodipodi:cy="32"
     sodipodi:rx="8"
     sodipodi:ry="8"
     d="M 21,40 A 8,8 0 1 1 21,24"
     sodipodi:start="1.5707963"
     sodipodi:end="4.712389"
     sodipodi:open="true" /><path
     sodipodi:type="arc"
     style="fill:#000000;fill-opacity:0;stroke:#ffffff;stroke-width:2;stroke-miterlimit:4;stroke-opacity:1;stroke-dasharray:none"
     id="path2989-7"
     sodipodi:cx="21"
     sodipodi:cy="32"
     sodipodi:rx="8"
     sodipodi:ry="8"
     d="M 21,40 A 8,8 0 1 1 21,24"
     sodipodi:start="1.5707963"
     sodipodi:end="4.712389"
     sodipodi:open="true" /><path
     style="fill:#ffffff;fill-opacity:1;stroke:none"
     d="M 21 27 A 5 5 0 0 0 16 32 A 5 5 0 0 0 21 37 L 31 37 L 31 36.998047 A 5 5 0 0 0 31.033203 37 A 5 5 0 0 0 36.033203 32 A 5 5 0 0 0 31.033203 27 A 5 5 0 0 0 31 27.001953 L 31 27 L 21 27 z M 23 31 L 29 31 C 29.554 31 30 31.446 30 32 C 30 32.554 29.554 33 29 33 L 23 33 C 22.446 33 22 32.554 22 32 C 22 31.446 22.446 31 23 31 z "
     id="path3795" /><path
     style="fill:#ffffff;fill-opacity:1;stroke:#ffffff;stroke-width:2;stroke-linecap:butt;stroke-linejoin:miter;stroke-miterlimit:4;stroke-opacity:1;stroke-dasharray:none"
     d="M 43,40 21,40"
     id="path3797"
     inkscape:connector-curvature="0" /><path
     style="fill:#ffffff;fill-opacity:1;stroke:#ffffff;stroke-width:2;stroke-linecap:butt;stroke-linejoin:miter;stroke-miterlimit:4;stroke-opacity:1;stroke-dasharray:none"
     d="M 43,24 21,24"
     id="path3799"
     inkscape:connector-curvature="0" /></svg>