<svg xmlns="http://www.w3.org/2000/svg" xml:space="preserve" width="64" height="64"><defs><clipPath id="a" clipPathUnits="userSpaceOnUse"><path d="M0 64h64V0H0z"/></clipPath></defs><g clip-path="url(#a)" transform="matrix(1 0 0 -1 0 64)"><path d="M0 0a1 1 0 0 0-1-1h-20a1 1 0 0 0-1 1v23a1 1 0 0 0 1 1h20a1 1 0 0 0 1-1zm2 29a1 1 0 0 0-1-1h-24a1 1 0 0 0-1 1v7a1 1 0 0 0 1 1H1a1 1 0 0 0 1-1zM2-2a1 1 0 0 0-1-1h-24a1 1 0 0 0-1 1v27a1 1 0 0 0 1 1H1a1 1 0 0 0 1-1zm3 43h-32a1 1 0 0 1-1-1v-50a1 1 0 0 1 1-1H5a1 1 0 0 1 1 1v50a1 1 0 0 1-1 1" style="fill:#fff;fill-opacity:1;fill-rule:nonzero;stroke:none" transform="translate(43 17)"/></g></svg>