<?xml version="1.0" encoding="utf-8"?>
<!-- Generator: Adobe Illustrator 24.2.1, SVG Export Plug-In . SVG Version: 6.00 Build 0)  -->
<svg version="1.1" id="Layer_1" xmlns="http://www.w3.org/2000/svg" xmlns:xlink="http://www.w3.org/1999/xlink" x="0px" y="0px"
	 viewBox="0 0 64 64" style="enable-background:new 0 0 64 64;" xml:space="preserve">
<style type="text/css">
	.st0{fill:#FFFFFF;}
</style>
<g>
	<path class="st0" d="M48.7,29.7L38,19c-1.5,1.6-2.3,3.6-2.4,5.4l7.7,7.7C45.2,31.9,47.1,31.1,48.7,29.7z"/>
	<path class="st0" d="M50.4,27.8c2.4-3.2,2.9-6.7-0.5-10.1c-3.4-3.3-6.9-2.8-10-0.4L50.4,27.8z"/>
	<polygon class="st0" points="14.8,29.3 19.2,27 23.6,29.3 22.8,24.4 26.4,20.9 21.5,20.2 19.3,15.7 17.1,20.2 12,20.9 15.6,24.4 	
		"/>
	<polygon class="st0" points="47,42.2 45.8,39.8 44.6,42.2 42,42.6 43.9,44.5 43.5,47.1 45.8,45.9 48.1,47.1 47.7,44.5 49.6,42.6 	
		"/>
	<path class="st0" d="M20.7,45.9c0,0-1.2,2.3-2.6,2.3s-1.8-1.9-3.4-1.9s-3.3,1.3-2.5,2.2c0.7,0.7,1.1-0.7,2.5-0.7
		c1.3,0,1.5,1.9,3.4,1.9S22,47,22,47S21.2,46.7,20.7,45.9z"/>
	<polygon class="st0" points="33.6,27.9 39.9,34.2 41.8,32.5 35.2,25.9 	"/>
	<path class="st0" d="M23.2,42.2l10.2-12.4L32.6,29L22.4,41.3c0,0-2.5,2.8-0.3,4.6s5-0.4,5-0.4l11.8-10.4L34.8,31L23.2,42.2z"/>
</g>
</svg>
