<svg xmlns="http://www.w3.org/2000/svg" xml:space="preserve" width="64" height="64"><g fill="#FFF"><path d="M37.69 14.65c-.12-.05-.25 0-.31.12-.05.12 0 .25.11.31 3.63 1.9 5.89 5.59 5.89 9.99 0 6.3-5.09 11.4-11.38 11.4s-11.38-5.11-11.38-11.4c0-4.39 2.26-8.09 5.89-9.99.12-.06.17-.19.11-.31s-.19-.17-.31-.11c-4.47 2.09-7.44 6.56-7.44 11.86 0 7.27 5.88 13.16 13.13 13.16s13.13-5.89 13.13-13.16c0-5.31-2.97-9.79-7.44-11.87"/><path d="M28.9 30.35c0 .25.17.46.38.46h.41-.02c.54 0 .98.44.98.98v11.38l1.14 6.97c0 .13.11.23.23.23s.23-.1.23-.23l1.12-6.97V31.79c0-.54.44-.98.97-.98h-.02.41c.21 0 .38-.21.38-.46z"/></g></svg>