<?xml version="1.0" encoding="UTF-8" standalone="no"?>
<!-- Generator: Adobe Illustrator 16.0.0, SVG Export Plug-In . SVG Version: 6.00 Build 0)  -->

<svg
   xmlns:dc="http://purl.org/dc/elements/1.1/"
   xmlns:cc="http://creativecommons.org/ns#"
   xmlns:rdf="http://www.w3.org/1999/02/22-rdf-syntax-ns#"
   xmlns:svg="http://www.w3.org/2000/svg"
   xmlns="http://www.w3.org/2000/svg"
   xmlns:sodipodi="http://sodipodi.sourceforge.net/DTD/sodipodi-0.dtd"
   xmlns:inkscape="http://www.inkscape.org/namespaces/inkscape"
   version="1.1"
   id="Calque_1"
   x="0px"
   y="0px"
   width="64"
   height="64"
   viewBox="0 0 64 64"
   enable-background="new 0 0 64 64"
   xml:space="preserve"
   inkscape:version="0.92.3 (2405546, 2018-03-11)"
   sodipodi:docname="resume.svg"><metadata
     id="metadata4705"><rdf:RDF><cc:Work
         rdf:about=""><dc:format>image/svg+xml</dc:format><dc:type
           rdf:resource="http://purl.org/dc/dcmitype/StillImage" /><dc:title /></cc:Work></rdf:RDF></metadata><defs
     id="defs4703" /><sodipodi:namedview
     pagecolor="#808080"
     bordercolor="#666666"
     borderopacity="1"
     objecttolerance="10"
     gridtolerance="10"
     guidetolerance="10"
     inkscape:pageopacity="0"
     inkscape:pageshadow="2"
     inkscape:window-width="1024"
     inkscape:window-height="705"
     id="namedview4701"
     showgrid="true"
     inkscape:zoom="3.6875"
     inkscape:cx="12.309417"
     inkscape:cy="26.507457"
     inkscape:window-x="-8"
     inkscape:window-y="-8"
     inkscape:window-maximized="1"
     inkscape:current-layer="Calque_1"><inkscape:grid
       type="xygrid"
       id="grid4134"
       empspacing="4" /></sodipodi:namedview><g
     id="g6904"
     transform="matrix(2,0,0,2,-32,-32)"
     style="stroke-width:1.0625"><path
       d="M 39.335,30.89 C 38.59,30.393 30.839,24.221 30.655,24.126 30.499,24.046 30.322,24 30.135,24 29.514,24 29.013,24.499 29.004,25.118 29.003,25.123 29,25.127 29,25.132 c 0,1.001 0,12.732 0,13.733 0,0.627 0.508,1.135 1.135,1.135 0.188,0 0.364,-0.046 0.521,-0.126 0.185,-0.095 7.937,-6.27 8.682,-6.766 C 39.752,32.832 40,32.416 40,32 40,31.584 39.751,31.167 39.335,30.89 Z M 25,24 c -0.553,0 -1,0.447 -1,1 v 14 c 0,0.553 0.447,1 1,1 0.553,0 1,-0.447 1,-1 V 25 c 0,-0.553 -0.447,-1 -1,-1 z"
       id="Resume"
       inkscape:connector-curvature="0"
       style="fill:#ffffff;stroke-width:1.0625" /></g></svg>