<svg xmlns="http://www.w3.org/2000/svg" xml:space="preserve" width="64" height="64" viewBox="0 128 64 64"><path d="M32 18c-1.989 0-4 2.066-4 4H17.2c-1.99 0-3.2 1.066-3.2 3v17.5c0 1.934 1.61 3.5 3.6 3.5h28.8c1.99 0 3.6-1.566 3.6-3.5V25c0-1.934-1.011-3-3-3 0-1.934-2.21-4-4.2-4zm-13 6.65A2.37 2.37 0 0 1 21.35 27 2.37 2.37 0 0 1 19 29.35 2.37 2.37 0 0 1 16.65 27 2.37 2.37 0 0 1 19 24.65M37 25c4.948 0 9 4.052 9 9s-4.052 9-9 9-9-4.052-9-9 4.052-9 9-9m0 3.826A5.146 5.146 0 0 0 31.826 34 5.146 5.146 0 0 0 37 39.174 5.146 5.146 0 0 0 42.174 34 5.146 5.146 0 0 0 37 28.826" style="opacity:1;fill:#fff" transform="translate(0 128)"/></svg>