<svg xmlns="http://www.w3.org/2000/svg" xml:space="preserve" width="64" height="64" viewBox="0 128 64 64"><path fill="#fff" d="M29 155v-7H7v24h22v-2c0-.794.208-1 1-1h31v-13H30c-.792 0-1-.206-1-1m-10.5 14c-4.695 0-8.5-3.805-8.5-8.5s3.805-8.5 8.5-8.5 8.5 3.805 8.5 8.5-3.805 8.5-8.5 8.5M49 157h8v1h-8zm0 2h8v8h-8zm-9-2h8v1h-8zm0 2h8v8h-8zm-10 12v1h30c.515 0 1-.483 1-1v-1H31c-1 0-1 0-1 1M3 149v22c0 .517.484 1 1 1h2v-24H4c-.516 0-1 .484-1 1m57-1H30v6c0 1 0 1 1 1h30v-6c0-.516-.485-1-1-1m-16 12a3 3 0 1 0 0 6 3 3 0 0 0 0-6m9 0a3 3 0 1 0 0 6 3 3 0 0 0 0-6m-34.5-2a2.5 2.5 0 1 0 0 5 2.5 2.5 0 0 0 0-5m.5-4h-1v3h1zm-1 13h1v-3h-1zm4-6h3v-1h-3zm-7-1h-3v1h3zm1-3-2-1 1 2zm7-1-2 1 1 1zm-2 8 2 1-1-2zm-7 1 2-1-1-1z"/></svg>