<svg xmlns="http://www.w3.org/2000/svg" xml:space="preserve" viewBox="0 0 64 64"><style>.st0{fill:#fff}</style><path d="M32 13.9c1.22 0 2.24-.83 2.56-1.94a29.7 29.7 0 0 0-5.12 0A2.675 2.675 0 0 0 32 13.9" class="st0"/><path d="M42.63 56.12v-7.09c-.26.1-.54.16-.83.16-1.24 0-2.25-1.01-2.25-2.25s1.01-2.25 2.25-2.25c.29 0 .57.06.83.16V13.97c-.98-.47-3.43-1.47-7.06-1.91A3.68 3.68 0 0 1 32 14.9c-1.74 0-3.19-1.22-3.57-2.84-3.62.44-6.07 1.43-7.06 1.91v29.51c.8-1.05 2.05-1.75 3.48-1.75 2.42 0 4.38 1.97 4.38 4.38 0 2.42-1.96 4.38-4.38 4.38-1.43 0-2.68-.69-3.48-1.75v7.39c0 .06-.01.11-.03.16 2.79.98 6.54 1.94 10.65 1.94 4.12 0 7.88-.96 10.67-1.94a.5.5 0 0 1-.03-.17M23.32 37.48c-.4 0-.73-.33-.73-.73v-14.5c0-.4.33-.73.73-.73h17.54c.4 0 .73.33.73.73v14.5c0 .4-.33.73-.73.73zm8.73 5.58a1.25 1.25 0 1 1 2.5 0 1.25 1.25 0 0 1-2.5 0m3.45 7.28c-1.24 0-2.25-1.01-2.25-2.25s1.01-2.25 2.25-2.25 2.25 1.01 2.25 2.25-1.01 2.25-2.25 2.25m2.42-6.03a1.25 1.25 0 1 1 0-2.5 1.25 1.25 0 0 1 0 2.5" class="st0"/><path d="M27.88 44.83h-.97c-.51 0-.93-.42-.93-.93v-.97c-.35-.13-.73-.2-1.13-.2-.41 0-.79.07-1.15.21v.96c0 .51-.42.93-.93.93h-.96c-.14.36-.21.75-.21 1.15s.07.8.21 1.15h.97c.51 0 .93.42.93.93v.97c.35.13.73.2 1.13.2.41 0 .79-.07 1.15-.21v-.96c0-.51.42-.93.93-.93h.96c.14-.36.21-.75.21-1.15s-.07-.8-.21-1.15M32 8.31c-1.3 0-2.38.93-2.62 2.17.82-.07 1.69-.12 2.62-.12s1.8.04 2.62.12A2.67 2.67 0 0 0 32 8.31" class="st0"/><path d="M32 5.77c-5.61 0-9.35 1.35-10.63 1.9v4.8c.98-.47 3.41-1.46 7-1.9.2-1.83 1.74-3.26 3.63-3.26s3.43 1.44 3.63 3.27c3.6.44 6.02 1.44 7 1.9v-4.8C41.35 7.13 37.61 5.77 32 5.77m15.47 41.67V14.22h-3.41v41.53c1.31-.52 2.32-1.01 2.88-1.3.33-.17.53-.51.53-.88v-1.91c.24-.42.4-1.2.4-2.11s-.16-1.69-.4-2.11m-3.41-34.71h3.42l-.35-3.89a1 1 0 0 0-1-.94h-2.07zm-24.12 1.49h-3.43v33.25c-.23.43-.38 1.19-.38 2.08s.15 1.65.38 2.08v1.94c0 .37.2.71.53.88.57.29 1.58.77 2.9 1.31zm0-6.32h-2.07c-.53 0-.97.41-1 .94l-.35 3.89h3.42z" class="st0"/></svg>