<svg xmlns="http://www.w3.org/2000/svg" xml:space="preserve" width="64" height="64"><path fill="#fff" d="M57 20H7a4 4 0 0 0-4 4v16a4 4 0 0 0 4 4h50a4 4 0 0 0 4-4V24a4 4 0 0 0-4-4M17 40a8 8 0 1 1 0-16 8 8 0 0 1 0 16m27-4a3 3 0 1 1-6 0v-3a3 3 0 1 1 6 0zm11 0a3 3 0 1 1-6 0v-3a3 3 0 1 1 6 0zm-36-4a2 2 0 1 1-4.001-.001A2 2 0 0 1 19 32m-1-4a1 1 0 1 1-2 0v-2a1 1 0 1 1 2 0zm0 10a1 1 0 1 1-2 0v-2a1 1 0 1 1 2 0zm-5-7a1 1 0 1 1 0 2h-2a1 1 0 1 1 0-2zm10 0a1 1 0 1 1 0 2h-2a1 1 0 1 1 0-2zm32-6a1 1 0 0 1-1 1H39a1 1 0 0 1-1-1v-1a1 1 0 0 1 1-1h15a1 1 0 0 1 1 1z"/></svg>