<?xml version="1.0" encoding="utf-8"?>
<svg version="1.1" xmlns="http://www.w3.org/2000/svg" x="0px" y="0px" viewBox="0 0 64 64" style="enable-background:new 0 0 64 64;" xml:space="preserve">
<style type="text/css">
	.st0{fill:#FFFFFF;}
</style>
<path class="st0" d="M58.11,20.59H5.89C5.4,20.59,5,20.99,5,21.49v20.13c0,0.99,0.8,1.79,1.79,1.79h50.42c0.99,0,1.79-0.8,1.79-1.79
	V21.49C59,21,58.6,20.59,58.11,20.59z M40.95,25.96h1.79v1.79h-1.79V25.96z M43.64,28.64v1.79h-1.79v-1.79H43.64z M41.85,31.33v1.79
	h-1.79v-1.79H41.85z M40.95,30.43h-1.79v-1.79h1.79V30.43z M40.06,25.96v1.79h-1.79v-1.79H40.06z M39.16,31.33v1.79h-1.79v-1.79
	H39.16z M38.27,30.43h-1.79v-1.79h1.79V30.43z M35.59,25.96h1.79v1.79h-1.79V25.96z M9.64,28.64h1.79v1.79H9.64V28.64z M8.75,27.75
	v-1.79h1.79v1.79H8.75z M10.54,31.33h1.79v1.79h-1.79V31.33z M11.84,34.01h1.79v1.79h-1.79V34.01z M13.23,33.12v-1.79h1.79v1.79
	H13.23z M15.01,30.43v-1.79h1.79v1.79H15.01z M14.53,34.01h1.79v1.79h-1.79V34.01z M15.91,33.12v-1.79h0h1.79v1.79H15.91z
	 M18.59,27.75H16.8v-1.79h1.79V27.75z M19.48,28.64v1.79H17.7v-1.79H19.48z M17.21,34.01H19v1.79h-1.79V34.01z M18.59,33.12v-1.79
	h1.79v1.79H18.59z M19.89,34.01h1.79v1.79h-1.79V34.01z M21.27,33.12v-1.79h1.79v1.79H21.27z M22.58,34.01h1.79v1.79h-1.79V34.01z
	 M23.96,33.12v-1.79h0h1.79v1.79H23.96z M23.06,30.43v-1.79h1.79v1.79H23.06z M25.26,34.01h1.79v1.79h-1.79V34.01z M26.64,33.12
	v-1.79h1.79v1.79H26.64z M27.94,34.01h1.79v1.79h-1.79V34.01z M29.32,33.12v-1.79h1.79v1.79H29.32z M30.63,34.01h1.79v1.79h-1.79
	V34.01z M32.01,33.12v-1.79h1.79v1.79H32.01z M33.31,34.01h1.79v1.79h-1.79V34.01z M34.69,33.12v-1.79h1.79v1.79H34.69z
	 M35.59,30.43H33.8v-1.79h1.79V30.43z M32.9,25.96h1.79v1.79H32.9V25.96z M32.9,30.43h-1.79v-1.79h1.79V30.43z M30.22,25.96h1.79
	v1.79h-1.79V25.96z M30.22,30.43h-1.79v-1.79h1.79V30.43z M27.53,25.96h1.79v1.79h-1.79V25.96z M27.53,30.43h-1.79v-1.79h1.79V30.43
	z M26.64,27.75h-1.79v-1.79h1.79V27.75z M22.47,23.28h3.28v1.25h-3.28V23.28z M22.17,25.96h1.79v1.79h-1.79V25.96z M22.17,30.43
	h-1.79v-1.79h1.79V30.43z M19.48,27.75v-1.79h1.79v1.79H19.48z M18.37,23.28h3.28v1.25h-3.28V23.28z M14.27,23.28h3.28v1.25h-3.28
	V23.28z M14.12,25.96h1.79v1.79h-1.79V25.96z M14.12,30.43h-1.79v-1.79h1.79V30.43z M11.44,27.75v-1.79h1.79v1.79H11.44z
	 M10.17,23.28h3.28v1.25h-3.28V23.28z M6.07,23.28h3.28v1.25H6.07V23.28z M6.07,25.96h1.79v1.79H6.07V25.96z M6.07,28.64h2.68v1.79
	H6.07V28.64z M6.07,31.33h3.58v1.79H6.07V31.33z M6.07,35.8v-1.79h4.88v1.79H6.07z M12.33,38.49h-1.79V36.7h1.79V38.49z
	 M13.22,38.49V36.7h1.79v1.79H13.22z M36.92,38.49H15.9V36.7h21.01V38.49z M37.78,35.8H36v-1.79h1.79V35.8z M37.81,38.49V36.7h1.79
	v1.79H37.81z M40.47,35.8h-1.79v-1.79h1.79V35.8z M46.32,35.8h-4.96v-1.79h4.96V35.8z M46.32,33.12h-3.58v-1.79h1.79v-2.68h1.79h0
	V33.12z M46.32,27.75h-2.69v-1.79h2.69V27.75z M49.9,38.49h-1.79V36.7h1.79V38.49z M49.9,35.8h-1.79v-1.79h1.79V35.8z M49.9,33.12
	h-1.79v-1.79h1.79V33.12z M49.9,30.43h-1.79v-1.79h1.79V30.43z M49.9,27.75h-1.79v-1.79h1.79V27.75z M49.9,25.07h-1.79v-1.79h1.79
	V25.07z M52.58,38.49h-1.79V36.7h1.79V38.49z M52.58,35.8h-1.79v-1.79h1.79V35.8z M52.58,33.12h-1.79v-1.79h1.79V33.12z
	 M52.58,30.43h-1.79v-1.79h1.79V30.43z M52.58,27.75h-1.79v-1.79h1.79V27.75z M52.58,25.07h-1.79v-1.79h1.79V25.07z M55.27,38.49
	h-1.79V36.7h1.79V38.49z M55.27,35.8h-1.79v-1.79h1.79V35.8z M55.27,33.12h-1.79v-1.79h1.79V33.12z M55.27,30.43h-1.79v-1.79h1.79
	V30.43z M55.27,27.75h-1.79v-1.79h1.79V27.75z M55.27,25.07h-1.79v-1.79h1.79V25.07z M57.95,38.49h-1.79v-4.47h1.79V38.49z
	 M57.95,33.12h-1.79v-1.79h1.79V33.12z M57.95,30.43h-1.79v-1.79h1.79V30.43z M57.95,27.75h-1.79v-1.79h1.79V27.75z M57.95,25.07
	h-1.79v-1.79h1.79V25.07z"/>
</svg>
