<svg xmlns="http://www.w3.org/2000/svg" xml:space="preserve" width="64" height="64" viewBox="0 128 64 64"><path d="M8.695 30.91c-.99 0-2 .59-2 1.174v22.805c0 .582 1.01 1.173 2 1.173h30.213l2.713-2.58h-1.879a.876.876 0 0 1-.877-.877v-2.628c0-.485.392-.877.877-.877h2.63c.484 0 .876.392.876.877v1.959l.877-.834v-1.125c0-.485.392-.877.877-.877h1.227l1.576-1.498a.9.9 0 0 1-.078-.358v-2.629c0-.485.392-.877.877-.877h2.63c.177 0 .333.065.471.155l5.566-5.295v-6.514c0-.584-1.009-1.174-2-1.174zm48.576 7.688v7.37zm0 7.37L47.016 56.063h8.255c.991 0 2-.591 2-1.173zM47.016 56.063h-8.108zm4.69-12.17-3.901 3.71c.137.305.442.52.799.52h2.63a.876.876 0 0 0 .877-.878v-2.629a.86.86 0 0 0-.406-.722M46.228 49.1l-2.104 2.002v1.503c0 .485.392.877.877.877h2.629a.876.876 0 0 0 .877-.877v-2.628a.876.876 0 0 0-.877-.877zm-2.981 2.836-1.627 1.546h.75a.876.876 0 0 0 .877-.877zm-30.404-18.92h2.629c.484 0 .877.392.877.877v2.628a.876.876 0 0 1-.877.877h-2.63a.876.876 0 0 1-.876-.877v-2.628c0-.485.392-.877.877-.877m5.26 0h2.628c.485 0 .877.392.877.877v2.628a.876.876 0 0 1-.877.877h-2.628a.876.876 0 0 1-.877-.877v-2.628c0-.485.392-.877.877-.877m5.26 0h2.628c.485 0 .877.392.877.877v2.628a.876.876 0 0 1-.877.877h-2.629a.876.876 0 0 1-.877-.877v-2.628c0-.485.393-.877.877-.877m5.259 0h2.629c.485 0 .877.392.877.877v2.628a.876.876 0 0 1-.877.877h-2.629a.876.876 0 0 1-.877-.877v-2.628c0-.485.392-.877.877-.877m5.26 0h2.629c.484 0 .877.392.877.877v2.628a.876.876 0 0 1-.877.877h-2.63a.876.876 0 0 1-.876-.877v-2.628c0-.485.392-.877.877-.877m5.26 0h2.628c.485 0 .877.392.877.877v2.628a.876.876 0 0 1-.877.877h-2.628a.876.876 0 0 1-.877-.877v-2.628c0-.485.392-.877.877-.877m5.26 0h2.628c.485 0 .877.392.877.877v2.628a.876.876 0 0 1-.877.877H44.4a.876.876 0 0 1-.877-.877v-2.628c0-.485.393-.877.877-.877m-28.934 5.361h2.63c.485 0 .878.392.878.877v2.629a.876.876 0 0 1-.877.877h-2.631a.875.875 0 0 1-.875-.877v-2.63c0-.484.39-.876.875-.876m5.26 0h2.63c.485 0 .877.392.877.877v2.629a.876.876 0 0 1-.877.877h-2.63a.875.875 0 0 1-.875-.877v-2.63c0-.484.39-.876.875-.876m5.26 0h2.63c.485 0 .877.392.877.877v2.629a.876.876 0 0 1-.877.877h-2.63a.875.875 0 0 1-.876-.877v-2.63c0-.484.39-.876.875-.876m5.259 0h2.63c.486 0 .878.392.878.877v2.629a.876.876 0 0 1-.877.877h-2.631a.875.875 0 0 1-.875-.877v-2.63c0-.484.39-.876.875-.876m5.26 0h2.63c.485 0 .878.392.878.877v2.629a.876.876 0 0 1-.877.877h-2.631a.875.875 0 0 1-.875-.877v-2.63c0-.484.39-.876.875-.876m5.26 0h2.63c.485 0 .877.392.877.877v2.629a.876.876 0 0 1-.877.877h-2.63a.875.875 0 0 1-.875-.877v-2.63c0-.484.39-.876.875-.876m5.26 0h2.63c.485 0 .877.392.877.877v2.629a.876.876 0 0 1-.877.877h-2.63a.875.875 0 0 1-.876-.877v-2.63c0-.484.39-.876.875-.876M17.04 43.738h2.63c.486 0 .878.392.878.877v2.63a.876.876 0 0 1-.877.876H17.04a.876.876 0 0 1-.877-.877v-2.629c0-.485.392-.877.877-.877m5.26 0h2.63c.485 0 .878.392.878.877v2.63a.876.876 0 0 1-.877.876H22.3a.876.876 0 0 1-.877-.877v-2.629c0-.485.392-.877.877-.877m5.26 0h2.63c.485 0 .877.392.877.877v2.63a.876.876 0 0 1-.877.876h-2.63a.876.876 0 0 1-.878-.877v-2.629c0-.485.393-.877.877-.877m5.26 0h2.63c.485 0 .877.392.877.877v2.63a.876.876 0 0 1-.877.876h-2.63a.876.876 0 0 1-.878-.877v-2.629c0-.485.392-.877.877-.877m5.259 0h2.63c.486 0 .878.392.878.877v2.63a.876.876 0 0 1-.877.876h-2.631a.876.876 0 0 1-.877-.877v-2.629c0-.485.392-.877.877-.877m5.26 0h2.63c.485 0 .878.392.878.877v2.63a.876.876 0 0 1-.877.876h-2.631a.876.876 0 0 1-.877-.877v-2.629c0-.485.392-.877.877-.877m-29.9 5.362h2.628c.485 0 .877.392.877.877v2.628a.876.876 0 0 1-.877.877h-2.629a.876.876 0 0 1-.877-.877v-2.628c0-.485.393-.877.877-.877m5.26 0h2.628c.485 0 .877.392.877.877v2.628a.876.876 0 0 1-.877.877h-2.629a.876.876 0 0 1-.877-.877v-2.628c0-.485.392-.877.877-.877m5.259 0h2.629c.485 0 .877.392.877.877v2.628a.876.876 0 0 1-.877.877h-2.63a.876.876 0 0 1-.876-.877v-2.628c0-.485.392-.877.877-.877m5.26 0h2.629c.484 0 .877.392.877.877v2.628a.876.876 0 0 1-.877.877h-2.63a.876.876 0 0 1-.876-.877v-2.628c0-.485.392-.877.877-.877m5.26 0h2.628c.485 0 .877.392.877.877v2.628a.876.876 0 0 1-.877.877h-2.629a.876.876 0 0 1-.877-.877v-2.628c0-.485.393-.877.877-.877" style="fill:#fff" transform="translate(0 122.247)"/><path d="M9.118 147.574c-.99 0-2 .436-2 .868v5.942c0 .431 1.01.87 2 .87h46.576c.991 0 2-.439 2-.87v-5.942c0-.432-1.009-.868-2-.868zm2.006 2.242h10.092c.909 0 1.836.053 1.836.105v2.679c0 .052-.927.106-1.836.106H11.124c-.91 0-1.836-.054-1.836-.106v-2.679c0-.052.927-.105 1.836-.105" style="fill:#fff" transform="translate(-.271 -4.073)"/></svg>