<svg xmlns="http://www.w3.org/2000/svg" xml:space="preserve" width="64" height="64" viewBox="0 128 64 64"><path fill="#fff" d="M57.896 144.362C57.139 143.551 44.569 143 32 143c-12.568 0-25.139.551-25.896 1.362C5.597 144.578 5 145.587 5 146v26c0 1.728 2.805 3.367 4.523 3.559C17.207 176.423 24.628 177 32 177s14.694-.576 22.474-1.441C56.193 175.369 59 173.728 59 172v-26c0-.413-.6-1.422-1.104-1.638M15 149a1 1 0 1 1 0 2 1 1 0 1 1 0-2m-6 0h2a1 1 0 1 1 0 2H9a1 1 0 1 1 0-2m3.5 13a4.5 4.5 0 1 1 0-9 4.5 4.5 0 0 1 0 9m31.5 7c0 1-24 1-24 0v-21c0-.479.525-1 1-1h22c.476 0 1 .521 1 1zm6-9a2 2 0 1 1 .001-4.001A2 2 0 0 1 50 160m4-4a2 2 0 1 1 .001-4.001A2 2 0 0 1 54 156m.5-7a1.5 1.5 0 1 1-.001-2.999A1.5 1.5 0 0 1 54.5 149m-42 6a2.5 2.5 0 1 0 0 5 2.5 2.5 0 0 0 0-5"/></svg>