<svg xmlns="http://www.w3.org/2000/svg" xml:space="preserve" viewBox="0 0 64 64"><path d="M56.53 37.53H7.48c-1.68 0-3.19-1.03-3.83-2.57-.37 2.02-.65 4.42-.65 7.22 0 5.83 1.19 10.3 1.99 12.49a2.63 2.63 0 0 0 2.48 1.72h49.05c.41 0 .81-.1 1.16-.27.6-.29 1.08-.8 1.32-1.45.82-2.18 2-6.66 2-12.49 0-2.8-.28-5.2-.65-7.21-.64 1.53-2.15 2.56-3.82 2.56m-44.76 2.24c0-.81 1.64-.81 1.64-.81s1.58 0 1.58.81v1.61s-.81 1.61-1.61 1.61c-.81 0-1.61-1.61-1.61-1.61zm-1.19 6.01H8.97c-.81 0-.81-1.64-.81-1.64s0-1.58.81-1.58h1.61s1.61.81 1.61 1.61c0 .81-1.61 1.61-1.61 1.61m1.19 2.8v-1.61s.81-1.61 1.61-1.61c.81 0 1.61 1.61 1.61 1.61v1.61c0 .81-1.64.81-1.64.81s-1.58 0-1.58-.81m4.76 5.62H15c-.45 0-.82-.37-.82-.82s.37-.82.82-.82h1.53c.45 0 .82.37.82.82s-.37.82-.82.82m1.26-8.42h-1.61s-1.61-.81-1.61-1.61c0-.81 1.61-1.61 1.61-1.61h1.61c.81 0 .81 1.64.81 1.64s-.01 1.58-.81 1.58m21.5 6.99H24.71c-2.39 0-4.33-1.94-4.33-4.33s1.94-4.33 4.33-4.33h14.58c2.39 0 4.33 1.94 4.33 4.33s-1.94 4.33-4.33 4.33m8.37 1.43h-1.53c-.45 0-.82-.37-.82-.82s.37-.82.82-.82h1.53c.45 0 .82.37.82.82s-.36.82-.82.82m-.51-8.32a1.71 1.71 0 1 1 0-3.42 1.71 1.71 0 1 1 0 3.42m3.47 3.47a1.71 1.71 0 1 1 0-3.42 1.71 1.71 0 1 1 0 3.42m0-6.94a1.71 1.71 0 1 1 0-3.42 1.71 1.71 0 1 1 0 3.42m3.47.06a1.71 1.71 0 1 1 0 3.42c-.94 0-1.71-.76-1.71-1.71.01-.95.77-1.71 1.71-1.71m.93 11.73h-1.53c-.45 0-.82-.37-.82-.82s.37-.82.82-.82h1.53c.45 0 .82.37.82.82s-.37.82-.82.82" style="fill:#fff"/><path d="M7.48 36.03h49.05c1.11 0 2.1-.69 2.48-1.72.81-2.19 1.99-6.67 1.99-12.49 0-5.91-1.21-10.1-2.02-12.43a2.64 2.64 0 0 0-2.5-1.78H7.53c-1.13 0-2.13.72-2.5 1.78C4.22 11.71 3 15.91 3 21.82c0 5.82 1.19 10.3 2 12.49a2.64 2.64 0 0 0 2.48 1.72m51.11-9.7-.98-.17c.11-1.11.19-2.32.21-3.58h.97c-.01 1.4-.09 2.65-.2 3.75m.2-4.75h-.97c-.02-1.26-.1-2.46-.21-3.58l.98-.17c.11 1.1.19 2.35.2 3.75m-1.5-9.85s.74 1.72 1.18 5.11l-.97.17c-.12-1.01-.26-1.91-.39-2.61-.32-1.76.18-2.67.18-2.67m-.18 18.04c.13-.71.27-1.6.39-2.61l.97.17c-.44 3.39-1.18 5.11-1.18 5.11s-.5-.92-.18-2.67M11.8 10.18h43v23h-43zm-6.37 8.64c.71.07 1.27 1.38 1.27 3 0 1.66-.6 3-1.33 3h-.01c-.1-.86-.16-1.76-.16-2.7 0-1.17.09-2.26.23-3.3" style="fill:#fff"/><path d="M27.46 51.77a4.31 4.31 0 0 0 1.58-3.33c0-1.34-.62-2.54-1.58-3.33m9.08 0c-.96.79-1.58 1.99-1.58 3.33s.62 2.54 1.58 3.33" style="fill:none;stroke:#fff;stroke-width:.75;stroke-linecap:round;stroke-linejoin:round;stroke-miterlimit:10"/><path d="M33.3 21.07h-7.26l3.63-7.26z" style="fill:#fff"/><path d="M34.39 23.37h5.08v5.08h-5.08z" style="fill:#fff" transform="rotate(-45.001 36.931 25.912)"/><circle cx="36.93" cy="17.44" r="3.63" style="fill:#fff"/><path d="M33.3 22.28h-1.33l-2.3 2.3-2.3-2.3h-1.33v1.33l2.3 2.3-2.3 2.3v1.33h1.33l2.3-2.3 2.3 2.3h1.33v-1.33l-2.3-2.3 2.3-2.3z" style="fill:#fff"/></svg>