<?xml version="1.0" encoding="utf-8"?>
<!-- Generator: Adobe Illustrator 26.3.1, SVG Export Plug-In . SVG Version: 6.00 Build 0)  -->
<svg version="1.1"
	 id="svg5021" xmlns:svg="http://www.w3.org/2000/svg" xmlns:sodipodi="http://sodipodi.sourceforge.net/DTD/sodipodi-0.dtd" xmlns:dc="http://purl.org/dc/elements/1.1/" xmlns:cc="http://creativecommons.org/ns#" xmlns:inkscape="http://www.inkscape.org/namespaces/inkscape" xmlns:rdf="http://www.w3.org/1999/02/22-rdf-syntax-ns#" inkscape:export-filename="/Users/margetts/Desktop/Icon Workshop/Monochrome Plus June/png/Sony - PlayStation 3.png"
	 xmlns="http://www.w3.org/2000/svg" xmlns:xlink="http://www.w3.org/1999/xlink" x="0px" y="0px" viewBox="0 0 64 64"
	 style="enable-background:new 0 0 64 64;" xml:space="preserve">
<path style="fill:#FFFFFF;" d="M56.6,29.4c0-0.2,0-0.4,0-0.6c0-2.8-1.3-5.3-3.4-6.9l-2.5-5c-0.1-0.3-0.3-0.5-0.6-0.6
	c-1.5-0.5-3.1-0.6-4.7,0c-0.3,0.1-1.4,1.4-1.5,1.6l-1.1,2.7c-0.2,0.4-0.6,0.7-1.1,0.7H22c-0.4,0-0.7-0.2-0.9-0.6L20,18
	c-0.1-0.2-1.2-1.5-1.5-1.6c-1.6-0.5-3-0.5-4.5,0c-0.3,0.1-3.2,5.5-3.2,5.5c-2.1,1.6-3.4,4.1-3.4,6.9c0,0.2,0,0.4,0,0.6
	C6.6,33.7,5,42.3,5,42.5c0,3,2.5,5.5,5.6,5.5c2.3,0,3.7-1.8,5.2-3.4l3.9-5.1C20.5,41,22.1,42,24,42c2.4,0,4.4-1.7,4.9-4h6.2
	c0.5,2.3,2.5,4,4.9,4c1.9,0,3.5-1,4.3-2.6l3.9,5.1c1.5,1.6,2.8,3.4,5.2,3.4c3.1,0,5.6-2.5,5.6-5.5C59,42.3,57.4,33.7,56.6,29.4z
	 M14,24.3c0-0.2,0.1-0.3,0.2-0.3h2.5c0.1,0,0.2,0.1,0.2,0.3v1.9c0,0.3-0.1,0.5-0.2,0.7C16.5,27.3,16,28,15.5,28s-1-0.8-1.3-1.3
	c-0.1-0.2-0.2-0.4-0.2-0.6V24.3z M13.1,30h-1.8c-0.2,0-0.3-0.1-0.3-0.2v-2.5c0-0.1,0.1-0.2,0.3-0.2h1.9c0.3,0,0.5,0.1,0.7,0.2
	c0.4,0.3,1.1,0.8,1.1,1.3s-0.8,1-1.3,1.3C13.5,29.9,13.3,30,13.1,30z M17,32.7c0,0.2-0.1,0.3-0.2,0.3h-2.5c-0.1,0-0.2-0.1-0.2-0.3
	v-1.8c0-0.2,0.1-0.4,0.2-0.6c0.3-0.5,0.9-1.3,1.3-1.3c0.5,0,1,0.7,1.3,1.1c0.1,0.2,0.2,0.4,0.2,0.7v1.9C17.1,32.7,17,32.7,17,32.7z
	 M20,29.8c0,0.1-0.1,0.2-0.3,0.2h-1.8c-0.2,0-0.4-0.1-0.6-0.2C16.8,29.5,16,29,16,28.5s0.7-1,1.1-1.3c0.2-0.1,0.4-0.2,0.7-0.2h1.9
	c0.2,0,0.3,0.1,0.3,0.2V29.8z M48,23c1.1,0,2,0.9,2,2s-0.9,2-2,2s-2-0.9-2-2S46.9,23,48,23z M24,40c-1.7,0-3-1.3-3-3s1.3-3,3-3
	s3,1.3,3,3S25.7,40,24,40z M29,29.7c0,0.1-0.1,0.2-0.2,0.2h-2.5c-0.1,0-0.2-0.1-0.2-0.2v-1.5c0-0.1,0.1-0.2,0.2-0.2h2.5
	c0.1,0,0.2,0.1,0.2,0.2V29.7z M32,36c-0.8,0-1.5-0.7-1.5-1.5S31.2,33,32,33s1.5,0.7,1.5,1.5S32.8,36,32,36z M35.3,30
	c-0.2,0-0.3-0.1-0.3-0.3v-1.5c0-0.2,0.2-0.3,0.3-0.3l2.4,0.7c0.3,0.1,0.3,0.6,0,0.7L35.3,30z M40,40c-1.7,0-3-1.3-3-3s1.3-3,3-3
	s3,1.3,3,3S41.7,40,40,40z M44,31c-1.1,0-2-0.9-2-2s0.9-2,2-2s2,0.9,2,2S45.1,31,44,31z M48,35c-1.1,0-2-0.9-2-2s0.9-2,2-2
	s2,0.9,2,2C50,34.1,49.1,35,48,35z M52,31c-1.1,0-2-0.9-2-2s0.9-2,2-2s2,0.9,2,2S53.1,31,52,31z"/>
<g>
	<g>
		<polygon style="fill:#FFFFFF;" points="24.77,9.62 31.97,9.62 28.37,2.43 		"/>
		
			<rect x="33.15" y="11.86" transform="matrix(0.7071 -0.7071 0.7071 0.7071 0.2774 29.4315)" style="fill:#FFFFFF;" width="5.04" height="5.04"/>
		<circle style="fill:#FFFFFF;" cx="35.56" cy="6.03" r="3.6"/>
		<polygon style="fill:#FFFFFF;" points="28.37,13.08 26.07,10.78 24.77,10.78 24.77,12.07 27.08,14.37 24.77,16.67 24.77,17.97 
			26.07,17.97 28.37,15.67 30.67,17.97 31.97,17.97 31.97,16.67 29.67,14.37 31.97,12.07 31.97,10.78 30.67,10.78 		"/>
	</g>
</g>
</svg>
