<?xml version="1.0" encoding="UTF-8" standalone="no"?>
<!-- Generator: Adobe Illustrator 22.1.0, SVG Export Plug-In . SVG Version: 6.00 Build 0)  -->

<svg
   xmlns:dc="http://purl.org/dc/elements/1.1/"
   xmlns:cc="http://creativecommons.org/ns#"
   xmlns:rdf="http://www.w3.org/1999/02/22-rdf-syntax-ns#"
   xmlns:svg="http://www.w3.org/2000/svg"
   xmlns="http://www.w3.org/2000/svg"
   xmlns:sodipodi="http://sodipodi.sourceforge.net/DTD/sodipodi-0.dtd"
   xmlns:inkscape="http://www.inkscape.org/namespaces/inkscape"
   version="1.1"
   id="svg2"
   inkscape:export-filename="/Users/margetts/Documents/GitHub/Working/monochrome/Sony - PlayStation Portable (UMD Video).png"
   inkscape:export-xdpi="360"
   inkscape:export-ydpi="360"
   inkscape:version="0.92.4 (5da689c313, 2019-01-14)"
   sodipodi:docname="Sony - PlayStation Portable (UMD Video).svg"
   x="0px"
   y="0px"
   viewBox="0 0 64 64"
   style="enable-background:new 0 0 64 64;"
   xml:space="preserve"><metadata
   id="metadata953"><rdf:RDF><cc:Work
       rdf:about=""><dc:format>image/svg+xml</dc:format><dc:type
         rdf:resource="http://purl.org/dc/dcmitype/StillImage" /></cc:Work></rdf:RDF></metadata><defs
   id="defs951" />
<style
   type="text/css"
   id="style944">
	.st0{fill:#FFFFFF;}
</style>
<sodipodi:namedview
   bordercolor="#666666"
   borderopacity="1"
   gridtolerance="10"
   guidetolerance="10"
   id="namedview4"
   inkscape:current-layer="svg2"
   inkscape:cx="7.2850598"
   inkscape:cy="30.341261"
   inkscape:pageopacity="0"
   inkscape:pageshadow="2"
   inkscape:window-height="851"
   inkscape:window-maximized="1"
   inkscape:window-width="1600"
   inkscape:window-x="0"
   inkscape:window-y="25"
   inkscape:zoom="83.4386"
   objecttolerance="10"
   pagecolor="#808080"
   showgrid="false">
	</sodipodi:namedview>
<path
   id="PSP_1_"
   inkscape:connector-curvature="0"
   sodipodi:nodetypes="csscscsscscsssssssssscsscsccsccscccscsscsccsccscsscsccsccsssssscsccsccscssssssssssssssssssssssssssccssccssssssssssssssss"
   class="st0"
   d="  M58.1,19.7c-0.9-1-2.2-1.7-5.1-1.7H11c-2.9,0-4.2,0.7-5.1,1.7C2.8,22.9,1,27.2,1,32s1.8,9.1,4.9,12.3c0.9,1,2.2,1.7,5.1,1.7h42  c2.9,0,4.2-0.7,5.1-1.7C61.2,41.1,63,36.8,63,32S61.2,22.9,58.1,19.7z M8.5,38C7.7,38,7,38.7,7,39.5S7.7,41,8.5,41s1.5-0.7,1.5-1.5  S9.3,38,8.5,38z M56.5,26c0.8,0,1.5,0.7,1.5,1.5S57.3,29,56.5,29S55,28.3,55,27.5S55.7,26,56.5,26z M6,27c0-0.6,0.4-1,1-1h1  c0.6,0,1,0.4,1,1c0,0,0,0,0,0.5s-0.1,0.6-0.2,0.7c-0.2,0.1-0.4,0.4-0.6,0.5C7.9,28.9,7.7,29,7.5,29s-0.4-0.1-0.7-0.3  c-0.2-0.2-0.5-0.4-0.6-0.5C6.1,28.1,6,28,6,27.5S6,27,6,27z M8.2,31.3c0.2,0.2,0.5,0.4,0.6,0.5C8.9,31.9,9,32,9,32.5S9,33,9,33  c0,0.6-0.4,1-1,1H7c-0.6,0-1-0.4-1-1c0,0,0,0,0-0.5s0.1-0.6,0.2-0.7c0.2-0.1,0.4-0.4,0.6-0.5C7.1,31.1,7.3,31,7.5,31  S7.9,31.1,8.2,31.3z M5.7,31.3c-0.1,0.1-0.2,0.2-0.7,0.2s-0.5,0-0.5,0c-0.6,0-1-0.4-1-1v-1c0-0.6,0.4-1,1-1c0,0,0,0,0.5,0  s0.6,0.1,0.7,0.2c0.1,0.2,0.3,0.4,0.5,0.6s0.3,0.4,0.3,0.7s-0.1,0.4-0.3,0.7C6,30.9,5.8,31.1,5.7,31.3L5.7,31.3z M8.5,42  C7.1,42,6,40.9,6,39.5S7.1,37,8.5,37s2.5,1.1,2.5,2.5S9.9,42,8.5,42z M11.5,30.5c0,0.6-0.4,1-1,1c0,0,0,0-0.5,0s-0.6-0.1-0.7-0.2  c-0.1-0.2-0.4-0.4-0.5-0.6c-0.2-0.2-0.3-0.4-0.3-0.7s0.1-0.4,0.3-0.7c0.2-0.2,0.4-0.5,0.5-0.6s0.2-0.2,0.7-0.2s0.5,0,0.5,0  c0.6,0,1,0.4,1,1V30.5z M14,41V21c0-0.6,0.4-1,1-1h34c0.6,0,1,0.4,1,1v20c0,0.6-0.4,1-1,1H15C14.4,42,14,41.6,14,41z M19.5,45h-1  c-0.3,0-0.5-0.2-0.5-0.5s0.2-0.5,0.5-0.5h1c0.3,0,0.5,0.2,0.5,0.5S19.8,45,19.5,45z M23.5,45h-1c-0.3,0-0.5-0.2-0.5-0.5  s0.2-0.5,0.5-0.5h1c0.3,0,0.5,0.2,0.5,0.5S23.8,45,23.5,45z M45.5,45c-0.7,0-1.2-0.4-1.4-1h2.8C46.7,44.6,46.2,45,45.5,45z M49.5,45  c-0.7,0-1.2-0.4-1.4-1h2.8C50.7,44.6,50.2,45,49.5,45z M53.5,32c-0.8,0-1.5-0.7-1.5-1.5s0.7-1.5,1.5-1.5s1.5,0.7,1.5,1.5  S54.3,32,53.5,32z M56.5,35c-0.8,0-1.5-0.7-1.5-1.5s0.7-1.5,1.5-1.5s1.5,0.7,1.5,1.5S57.3,35,56.5,35z M59.5,32  c-0.8,0-1.5-0.7-1.5-1.5s0.7-1.5,1.5-1.5s1.5,0.7,1.5,1.5S60.3,32,59.5,32z" />
<path
   class="st0"
   d="M39,22h-1h-1v1c0,0.6-0.4,1-1,1h-8c-0.6,0-1-0.4-1-1v-1h-1h-1h-1v17h1h1h1v-1c0-0.6,0.4-1,1-1h8  c0.6,0,1,0.4,1,1v1h1h1h1V22H39z M26,38h-1v-1h1V38z M26,36h-1v-1h1V36z M26,34h-1v-1h1V34z M26,32h-1v-1h1V32z M26,30h-1v-1h1V30z   M26,28h-1v-1h1V28z M26,26h-1v-1h1V26z M26,24h-1v-1h1V24z M36,36h-8c-0.6,0-1-0.4-1-1v-3c0-0.6,0.4-1,1-1h8c0.6,0,1,0.4,1,1v3  C37,35.6,36.6,36,36,36z M36,30h-8c-0.6,0-1-0.4-1-1v-3c0-0.6,0.4-1,1-1h8c0.6,0,1,0.4,1,1v3C37,29.6,36.6,30,36,30z M39,38h-1v-1h1  V38z M39,36h-1v-1h1V36z M39,34h-1v-1h1V34z M39,32h-1v-1h1V32z M39,30h-1v-1h1V30z M39,28h-1v-1h1V28z M39,26h-1v-1h1V26z M39,24  h-1v-1h1V24z"
   id="path948" />
</svg>