<?xml version="1.0" encoding="utf-8"?>
<!-- Generator: Adobe Illustrator 26.3.1, SVG Export Plug-In . SVG Version: 6.00 Build 0)  -->
<svg version="1.1" id="Layer_1" xmlns="http://www.w3.org/2000/svg" xmlns:xlink="http://www.w3.org/1999/xlink" x="0px" y="0px"
	 viewBox="0 0 64 64" style="enable-background:new 0 0 64 64;" xml:space="preserve">
<g>
	<path style="fill:#FFFFFF;" d="M16,50.1v1.42c0,1.25,1,2.25,2.25,2.25h27.49c1.25,0,2.25-1,2.25-2.25V50.1
		c-4.32-0.93-9.9-1.49-16-1.49C25.89,48.61,20.3,49.17,16,50.1z"/>
	<path style="fill:#FFFFFF;" d="M47.74,39.12l-1.81-1.56c-0.16-0.14-0.26-0.34-0.26-0.56v-2.78c0-0.4,0.33-0.73,0.73-0.73h0.85
		c0.4,0,0.73-0.33,0.73-0.73v-2.68c0-0.19-0.07-0.37-0.2-0.52l-3.85-3.97V14.12c0-2.15-1.74-3.89-3.89-3.89H19.86
		C17.74,10.25,16,11.98,16,14.14v11.12v22.76c4.32-0.93,9.9-1.49,16-1.49s11.7,0.56,16,1.49v-8.34C48,39.46,47.9,39.26,47.74,39.12z
		 M34.54,19.11c2.47,0,4.48,2.01,4.48,4.48c0,2.47-2.01,4.48-4.48,4.48c-2.47,0-4.48-2.01-4.48-4.48
		C30.05,21.11,32.06,19.11,34.54,19.11z M30.07,31.11l-2.86,2.86l2.86,2.86v1.62h-1.62l-2.86-2.86l-2.86,2.86h-1.62v-1.62l2.88-2.86
		l-2.88-2.86V29.5h1.62l2.86,2.86l2.86-2.86h1.62V31.11z M21.11,28.06l4.48-8.95l4.48,8.95H21.11z M34.67,38.41l-4.44-4.44
		l4.44-4.44l4.44,4.44L34.67,38.41z"/>
</g>
</svg>
