<svg xmlns="http://www.w3.org/2000/svg" xml:space="preserve" width="64" height="64"><defs><clipPath id="a" clipPathUnits="userSpaceOnUse"><path d="M0 64h64V0H0z"/></clipPath></defs><g clip-path="url(#a)" transform="matrix(1 0 0 -1 0 64)"><path d="M0 0c7.637 0 12.721-1.366 13.5-2.15V-39h-27v36.85C-12.721-1.366-7.637 0 0 0" style="fill:#fff;fill-opacity:1;fill-rule:nonzero;stroke:none" transform="translate(32.5 53)"/><path d="M0 0v-34h-29V4c0 1.471 6.492 3 14.5 3S0 5.471 0 4zm-11-36-3.5-3-3.5 3v1l3.5-3 3.5 3zM4 4v4c0 2.057-8.507 4-19 4s-19-1.943-19-4V4h1v-6h-1v-34l5-6H4v40H3v6z" style="fill:#fff;fill-opacity:1;fill-rule:nonzero;stroke:none" transform="translate(47 47)"/></g></svg>