<svg xmlns="http://www.w3.org/2000/svg" xml:space="preserve" id="svg2" x="0" y="0" version="1.1" viewBox="0 0 64 64"><style>.st0{fill:#fff}</style><path id="Super_NES_1_" d="M57.5 17.5c.28 0 .5-.22.5-.5v-2c0-1 0-1-1-1h-7c-.55 0-1 .45-1 1 0-.55-.45-1-1-1H16c-.55 0-1 .45-1 1 0-.55-.45-1-1-1H7c-1 0-1 0-1 1v2c0 .28.22.5.5.5s.5.22.5.5-.22.5-.5.5-.5.22-.5.5.22.5.5.5.5.22.5.5-.22.5-.5.5-.5.22-.5.5.22.5.5.5.5.22.5.5-.22.5-.5.5-.5.22-.5.5.22.5.5.5.5.22.5.5-.22.5-.5.5-.5.22-.5.5v24c0 .47 0 1 1 1h7c.55 0 1-.45 1-1 0 .55.45 1 1 1h32c.55 0 1-.45 1-1 0 .55.45 1 1 1h7c1 0 1 0 1-1V25c0-.28-.22-.5-.5-.5s-.5-.22-.5-.5.22-.5.5-.5.5-.22.5-.5-.22-.5-.5-.5-.5-.22-.5-.5.22-.5.5-.5.5-.22.5-.5-.22-.5-.5-.5-.5-.22-.5-.5.22-.5.5-.5.5-.22.5-.5-.22-.5-.5-.5-.5-.22-.5-.5.22-.5.5-.5M10 48c-.55 0-1-.45-1-1s.45-1 1-1 1 .45 1 1-.45 1-1 1m35-10H19c-.69 0-1-.3-1-1 0-.69.31-1 1-1h26c.69 0 1 .31 1 1 0 .7-.31 1-1 1m6-7H13c-1.39 0-2-.61-2-2V18c0-1.39.61-2 2-2h38c1.39 0 2 .61 2 2v11c0 1.39-.61 2-2 2m3 17c-.55 0-1-.45-1-1s.45-1 1-1 1 .45 1 1-.45 1-1 1" class="st0"/><path d="M50 18H14c-.55 0-1 .45-1 1v9c0 .55.45 1 1 1h36c.55 0 1-.45 1-1v-9c0-.55-.45-1-1-1m-20.86 3.57-4.23 1.99 4.23 1.75v1.14l-5.64-2.49v-.7l5.64-2.82zm1.92 6.15h-1.28l3.15-8.45h1.27zm9.44-3.75-5.64 2.49v-1.14l4.23-1.75-4.23-1.99v-1.12l5.64 2.82z" class="st0"/></svg>