<svg xmlns="http://www.w3.org/2000/svg" xml:space="preserve" viewBox="0 0 64 64"><style>.st0{fill:#fff}</style><g id="apple"><path d="M51 15.99v2h-2v4H38V18H5v28.99h51v-1h2v-12.5c0-.28-.23-.51-.51-.51h-1c-.28 0-.51-.23-.51-.51v-1c0-.28.23-.51.51-.51h1c.28 0 .51-.23.51-.51v-6.47h1v-8h-8zm-20 6h1v3h-1zm0 7h1v3h-1zm-2-7h1v3h-1zm-1 7h1v3h-1zm-3 0h1v3h-1zm0 6h1v3h-1zm-2-13h1v3h-1zm0 7h1v3h-1zm-1 6h1v3h-1zm-2-6h1v3h-1zm0 6h1v3h-1zm-3 0h1v3h-1zm-2-13h1v3h-1zm0 7h1v3h-1zm0 6h1v3h-1zm-6-12h4V25H9zm3 9v-3h1v3zm1 3v3h-1v-3zm-5 10H7v-3h1zm0-7H7v-3h1zm0-6H7v-3h1zm0-6.98H7V22h1zm2 19.98H9v-3h1zm0-10h1v3h-1zm8.96 10H11v-2h7.96zm.04-13h-1v-3h1zm0-7h-1v-3h1zm8 20h-7v-2h7zm0-20h-1v-3h1zm2 20h-1v-3h1zm3 0h-1v-3h1zm1-8h-5v-2h5zm2 8h-1v-3h1zm0-7h-1v-3h1zm0-6h-1v-3h1zm0-7h-1v-3h1zm1-2h1v2h-1zm2 22h-1v-3h1zm0-7h-1v-3h1zm0-6h-1v-3h1zm7-9h1V25h-1zm-6 1h1v1h-1zm2 21h-1v-3h1zm0-7h-1v-3h1zm0-6h-1v-3h1zm1-9h1V25h-1zm2 22h-1v-3h1zm0-7h-1v-3h1zm0-6h-1v-3h1zm1-3h1v3h-1zm2 16h-1v-3h1zm0-7h-1v-3h1zm3 7h-1v-3h1zm0-7h-1v-3h1zm3 7h-1v-3h1zm0-7h-1v-3h1zm2-12V34h-8v-9h8zm3.55-5.68.24.09c.35.15.24.65-.13.65h-.27c-.31 0-.45.37-.24.59l.19.19c.27.27-.03.71-.37.56l-.24-.11a.334.334 0 0 0-.44.44l.11.24c.15.35-.29.64-.56.37l-.19-.19c-.21-.21-.59-.07-.59.24v.27c0 .37-.52.48-.65.13l-.09-.24c-.12-.28-.52-.28-.63 0l-.09.24c-.15.35-.65.24-.65-.13v-.27c0-.31-.37-.45-.59-.24l-.19.19c-.27.27-.71-.03-.56-.37l.11-.24a.334.334 0 0 0-.44-.44l-.24.11c-.35.15-.64-.29-.37-.56l.19-.19c.21-.21.07-.59-.24-.59h-.27c-.37 0-.48-.51-.13-.65l.24-.09c.28-.12.28-.52 0-.63l-.24-.09a.337.337 0 0 1 .13-.65h.27c.31 0 .45-.37.24-.59l-.19-.19c-.27-.27.03-.69.37-.56l.24.11c.28.12.56-.16.44-.44l-.11-.24c-.15-.35.29-.64.56-.37l.19.19c.21.21.59.07.59-.24v-.27c0-.37.51-.48.65-.13l.09.24c.12.28.52.28.63 0l.09-.24c.13-.35.65-.24.65.13v.27c0 .31.37.45.59.24l.19-.19c.27-.27.71.03.56.37l-.11.24c-.12.28.16.56.44.44l.24-.11c.35-.15.64.29.37.56l-.19.19c-.21.21-.07.59.24.59h.27c.37 0 .48.51.13.65l-.24.09c-.28.11-.28.51 0 .63" class="st0"/><path d="m58.09 19.66-.21-.04c-.24-.04-.32-.36-.11-.51l.17-.12c.25-.17.08-.57-.21-.51l-.21.05a.28.28 0 0 1-.29-.43l.12-.19c.17-.25-.15-.56-.39-.37l-.17.12c-.2.15-.48-.04-.43-.28l.04-.21c.05-.31-.35-.45-.51-.2l-.12.19c-.13.21-.45.15-.51-.09l-.04-.21c-.07-.31-.49-.29-.55.01l-.04.21c-.04.24-.36.32-.51.11l-.12-.17c-.17-.25-.57-.08-.51.21l.05.21a.28.28 0 0 1-.43.29l-.17-.12c-.25-.17-.56.15-.37.39l.12.17c.15.2-.04.48-.28.43l-.21-.04c-.31-.05-.45.35-.2.51l.19.12c.21.13.15.45-.09.51l-.21.04c-.29.07-.29.49.01.55l.21.04c.24.04.32.36.11.51l-.17.12c-.25.17-.08.57.21.51l.21-.05c.24-.05.43.21.29.43l-.12.19c-.17.25.15.56.39.37l.17-.12c.2-.15.48.04.43.28l-.04.21c-.05.31.35.45.51.2l.12-.19c.13-.21.45-.15.51.09l.04.21c.07.29.49.29.55-.01l.04-.21c.04-.24.36-.32.51-.11l.12.17c.17.25.57.08.51-.21l-.05-.21a.28.28 0 0 1 .43-.29l.17.12c.25.17.56-.15.37-.39l-.12-.17c-.15-.2.04-.48.28-.43l.21.04c.31.05.45-.35.2-.51l-.19-.12c-.21-.13-.15-.45.09-.51l.21-.04c.31-.06.3-.5-.01-.55M55 21.99c-1.11 0-2-.89-2-2s.89-2 2-2 2 .89 2 2-.89 2-2 2m-7-1.74v-2.24h-9v2.98h9zm0 6.49v2.24h6v-2.99h-6zm0 4v2.24h6v-2.99h-6z" class="st0"/></g><path id="src" d="m20.5 10.25 7.63 3.36v-1.54L22.4 9.7 28.13 7V5.49L20.5 9.31zm8.5 5.08h1.73L34.97 3.9h-1.71zm6.88-9.84V7l5.72 2.7-5.72 2.37v1.54l7.62-3.36v-.94z" class="st0"/></svg>