<?xml version="1.0" encoding="utf-8"?>
<svg version="1.1" xmlns="http://www.w3.org/2000/svg" xmlns:xlink="http://www.w3.org/1999/xlink" x="0px" y="0px" viewBox="0 0 64 64" style="enable-background:new 0 0 64 64;" xml:space="preserve">
<style type="text/css">
	.st0{fill:#FFFFFF;}
</style>
<g id="apple">
	<path class="st0" d="M51,15.99v2h-2v0.75v1.49v0.75v1.01h-1h-9h-1v-1v-0.75v-1.49v-0.75H5v28.99h51v-1h2V33.49c0-0.28-0.23-0.51-0.51-0.51h-1c-0.28,0-0.51-0.23-0.51-0.51v-1c0-0.28,0.23-0.51,0.51-0.51h1c0.28,0,0.51-0.23,0.51-0.51v-6.47h1v-8H51z M31,21.99h1v3h-1V21.99z M31,28.99h1v3h-1V28.99z M29,21.99h1v3h-1V21.99z M28,28.99h1v3h-1V28.99z M25,28.99h1v3h-1V28.99z M25,34.99h1v3h-1V34.99z M23,21.99h1v3h-1V21.99z M23,28.99h1v3h-1V28.99z M22,34.99h1v3h-1V34.99z M20,28.99h1v3h-1V28.99z M20,34.99h1v3h-1V34.99z M17,34.99h1v3h-1V34.99z M15,21.99h1v3h-1V21.99z M15,28.99h1v3h-1V28.99z M15,34.99h1v3h-1V34.99z M9,22.99h4v2.01H9V22.99z M12,31.99v-3h1v3H12z M13,34.99v3h-1v-3H13z M8,44.99H7v-3h1V44.99z M8,37.99H7v-3h1V37.99z M8,31.99H7v-3h1V31.99z M8,25.01H7v-3.01h1V25.01z M10,44.99H9v-3h1V44.99z M10,34.99h1v3h-1V34.99z M18.96,44.99H11v-2h7.96V44.99z M19,31.99h-1v-3h1V31.99z M19,24.99h-1v-3h1V24.99z M27,44.99h-7v-2h7V44.99z M27,24.99h-1v-3h1V24.99z M29,44.99h-1v-3h1V44.99z M32,44.99h-1v-3h1V44.99z M33,36.99h-5v-2h5V36.99z M35,44.99h-1v-3h1V44.99z M35,37.99h-1v-3h1V37.99z M35,31.99h-1v-3h1V31.99z M35,24.99h-1v-3h1V24.99z M36,22.99h1v2h-1V22.99z M38,44.99h-1v-3h1V44.99z M38,37.99h-1v-3h1V37.99z M38,31.99h-1v-3h1V31.99z M45,22.99h1v2.01h-1V22.99z M39,23.99h1v1h-1V23.99z M41,44.99h-1v-3h1V44.99z M41,37.99h-1v-3h1V37.99z M41,31.99h-1v-3h1V31.99z M42,22.99h1v2.01h-1V22.99z M44,44.99h-1v-3h1V44.99z M44,37.99h-1v-3h1V37.99z M44,31.99h-1v-3h1V31.99z M45,28.99h1v3h-1V28.99z M47,44.99h-1v-3h1V44.99z M47,37.99h-1v-3h1V37.99z M50,44.99h-1v-3h1V44.99z M50,37.99h-1v-3h1V37.99z M53,44.99h-1v-3h1V44.99z M53,37.99h-1v-3h1V37.99z M55,25.99v0.75v1.49v0.75v1.01v0.75v1.51v0.75v1h-1h-6h-1v-1v-0.75v-1.51v-0.75v-1v-0.75v-1.49v-0.75v-1h1h6h1V25.99z M58.55,20.31l0.24,0.09c0.35,0.15,0.24,0.65-0.13,0.65h-0.27c-0.31,0-0.45,0.37-0.24,0.59l0.19,0.19c0.27,0.27-0.03,0.71-0.37,0.56l-0.24-0.11c-0.28-0.12-0.56,0.16-0.44,0.44l0.11,0.24c0.15,0.35-0.29,0.64-0.56,0.37l-0.19-0.19c-0.21-0.21-0.59-0.07-0.59,0.24v0.27c0,0.37-0.52,0.48-0.65,0.13l-0.09-0.24c-0.12-0.28-0.52-0.28-0.63,0l-0.09,0.24c-0.15,0.35-0.65,0.24-0.65-0.13v-0.27c0-0.31-0.37-0.45-0.59-0.24l-0.19,0.19c-0.27,0.27-0.71-0.03-0.56-0.37l0.11-0.24c0.12-0.28-0.16-0.56-0.44-0.44l-0.24,0.11c-0.35,0.15-0.64-0.29-0.37-0.56l0.19-0.19c0.21-0.21,0.07-0.59-0.24-0.59h-0.27c-0.37,0-0.48-0.51-0.13-0.65l0.24-0.09c0.28-0.12,0.28-0.52,0-0.63l-0.24-0.09c-0.35-0.15-0.24-0.65,0.13-0.65h0.27c0.31,0,0.45-0.37,0.24-0.59l-0.19-0.19c-0.27-0.27,0.03-0.69,0.37-0.56l0.24,0.11c0.28,0.12,0.56-0.16,0.44-0.44l-0.11-0.24c-0.15-0.35,0.29-0.64,0.56-0.37l0.19,0.19c0.21,0.21,0.59,0.07,0.59-0.24v-0.27c0-0.37,0.51-0.48,0.65-0.13l0.09,0.24c0.12,0.28,0.52,0.28,0.63,0l0.09-0.24c0.13-0.35,0.65-0.24,0.65,0.13v0.27c0,0.31,0.37,0.45,0.59,0.24l0.19-0.19c0.27-0.27,0.71,0.03,0.56,0.37l-0.11,0.24c-0.12,0.28,0.16,0.56,0.44,0.44l0.24-0.11c0.35-0.15,0.64,0.29,0.37,0.56l-0.19,0.19c-0.21,0.21-0.07,0.59,0.24,0.59h0.27c0.37,0,0.48,0.51,0.13,0.65l-0.24,0.09C58.27,19.79,58.27,20.19,58.55,20.31z"/>
	<path class="st0" d="M58.09,19.66l-0.21-0.04c-0.24-0.04-0.32-0.36-0.11-0.51l0.17-0.12c0.25-0.17,0.08-0.57-0.21-0.51l-0.21,0.05c-0.24,0.05-0.43-0.21-0.29-0.43l0.12-0.19c0.17-0.25-0.15-0.56-0.39-0.37l-0.17,0.12c-0.2,0.15-0.48-0.04-0.43-0.28l0.04-0.21c0.05-0.31-0.35-0.45-0.51-0.2l-0.12,0.19c-0.13,0.21-0.45,0.15-0.51-0.09l-0.04-0.21c-0.07-0.31-0.49-0.29-0.55,0.01l-0.04,0.21c-0.04,0.24-0.36,0.32-0.51,0.11l-0.12-0.17c-0.17-0.25-0.57-0.08-0.51,0.21l0.05,0.21c0.05,0.24-0.21,0.43-0.43,0.29l-0.17-0.12c-0.25-0.17-0.56,0.15-0.37,0.39l0.12,0.17c0.15,0.2-0.04,0.48-0.28,0.43l-0.21-0.04c-0.31-0.05-0.45,0.35-0.2,0.51l0.19,0.12c0.21,0.13,0.15,0.45-0.09,0.51l-0.21,0.04c-0.29,0.07-0.29,0.49,0.01,0.55l0.21,0.04c0.24,0.04,0.32,0.36,0.11,0.51l-0.17,0.12c-0.25,0.17-0.08,0.57,0.21,0.51l0.21-0.05c0.24-0.05,0.43,0.21,0.29,0.43l-0.12,0.19c-0.17,0.25,0.15,0.56,0.39,0.37l0.17-0.12c0.2-0.15,0.48,0.04,0.43,0.28l-0.04,0.21c-0.05,0.31,0.35,0.45,0.51,0.2l0.12-0.19c0.13-0.21,0.45-0.15,0.51,0.09l0.04,0.21c0.07,0.29,0.49,0.29,0.55-0.01l0.04-0.21c0.04-0.24,0.36-0.32,0.51-0.11l0.12,0.17c0.17,0.25,0.57,0.08,0.51-0.21l-0.05-0.21c-0.05-0.24,0.21-0.43,0.43-0.29l0.17,0.12c0.25,0.17,0.56-0.15,0.37-0.39l-0.12-0.17c-0.15-0.2,0.04-0.48,0.28-0.43l0.21,0.04c0.31,0.05,0.45-0.35,0.2-0.51l-0.19-0.12c-0.21-0.13-0.15-0.45,0.09-0.51l0.21-0.04C58.41,20.15,58.4,19.71,58.09,19.66z M55,21.99c-1.11,0-2-0.89-2-2c0-1.11,0.89-2,2-2c1.11,0,2,0.89,2,2C57,21.1,56.11,21.99,55,21.99z"/>
	<polygon class="st0" points="48,20.25 48,18.75 48,18.01 39,18.01 39,18.75 39,20.25 39,20.99 48,20.99"/>
	<polygon class="st0" points="48,26.74 48,28.23 48,28.98 54,28.98 54,28.23 54,26.74 54,25.99 48,25.99"/>
	<polygon class="st0" points="48,30.74 48,32.23 48,32.98 54,32.98 54,32.23 54,30.74 54,29.99 48,29.99"/>
</g>
<g id="src">
	<polygon class="st0" points="20.5,10.25 28.13,13.61 28.13,12.07 22.4,9.7 28.13,7 28.13,5.49 20.5,9.31"/>
	<polygon class="st0" points="29,15.33 30.73,15.33 34.97,3.9 33.26,3.9"/>
	<polygon class="st0" points="35.88,5.49 35.88,7 41.6,9.7 35.88,12.07 35.88,13.61 43.5,10.25 43.5,9.31"/>
</g>
</svg>