<?xml version="1.0" encoding="utf-8"?>
<svg version="1.1" xmlns="http://www.w3.org/2000/svg" xmlns:xlink="http://www.w3.org/1999/xlink" x="0px" y="0px" viewBox="0 0 64 64" style="enable-background:new 0 0 64 64;" xml:space="preserve">
<style type="text/css">
	.st0{fill:#FFFFFF;}
	.st1{enable-background:new;}
</style>
<g id="pda">
	<path class="st0" d="M49.6,7.7c0-1.5-1.2-2.8-2.8-2.8H17.2c-1.5,0-2.8,1.2-2.8,2.8v41.6h0.9v4h-0.9c0.1,1.4,1.3,2.6,2.8,2.6h2.4c2.6,1.8,7.9,3.1,14.1,3.1c8.7,0,15.8-2.5,15.8-5.6c0,0,0-0.1,0-0.1c0,0,0-0.1,0-0.2V7.7z M20.3,53.3c-1.1,0-2-0.9-2-2s0.9-2,2-2s2,0.9,2,2C22.3,52.4,21.4,53.3,20.3,53.3z M26,53.3c-1.1,0-2-0.9-2-2s0.9-2,2-2s2,0.9,2,2C28,52.4,27.1,53.3,26,53.3z M34,53.2c0,0.4-0.9,0.8-2,0.8c-1.1,0-2-0.4-2-0.8s0-1.1,0-1.1h4C34,52,34,52.9,34,53.2z M34,50.5h-4c0,0,0-0.8,0-1.1c0-0.4,0.9-0.8,2-0.8c1.1,0,2,0.4,2,0.8S34,50.5,34,50.5z M38,53.2c-1.1,0-2-0.9-2-2s0.9-2,2-2s2,0.9,2,2C40,52.3,39.1,53.2,38,53.2z M43.7,53.2c-1.1,0-2-0.9-2-2s0.9-2,2-2s2,0.9,2,2C45.7,52.3,44.8,53.2,43.7,53.2z M45.9,44.4c0,0.8-0.7,1.4-1.5,1.4H19.6c-0.8,0-1.5-0.6-1.5-1.4V11.3c0-0.8,0.7-1.4,1.5-1.4h24.8c0.8,0,1.5,0.6,1.5,1.4V44.4z"/>
</g>
<g id="src">
	<polygon class="st0" points="28.3,25.6 22.8,28.1 28.3,30.4 28.3,31.9 21,28.7 21,27.8 28.3,24.1"/>
	<polygon class="st0" points="30.8,33.5 29.1,33.5 33.2,22.6 34.8,22.6"/>
	<polygon class="st0" points="43,28.7 35.7,31.9 35.7,30.4 41.2,28.1 35.7,25.6 35.7,24.1 43,27.8"/>
</g>
</svg>