<svg xmlns="http://www.w3.org/2000/svg" xml:space="preserve" id="svg2" x="0" y="0" version="1.1" viewBox="0 0 64 64"><style>.st0{fill:#fff}</style><path id="Game_Boy" d="M46 5H18c-1 0-2 1-2 2v50c0 1 1 2 2 2h21c5.14 0 9-3.86 9-9V7c0-1-1-2-2-2M19 9c0-.55.45-1 1-1h24c.55 0 1 .45 1 1v15c0 3.31-2.69 6-6 6H20c-.55 0-1-.45-1-1zm7 33c0 1 0 1-1 1h-1v1c0 1 0 1-1 1h-1c-1 0-1 0-1-1v-1h-1c-1 0-1 0-1-1v-1c0-1 0-1 1-1h1v-1c0-1 0-1 1-1h1c1 0 1 0 1 1v1h1c1 0 1 0 1 1zm3.26 6.88-2.59 1.68c-.19.12-.43.06-.54-.14a.45.45 0 0 1 .16-.59l2.59-1.68c.19-.12.43-.06.54.14s.03.47-.16.59m5.92 0-2.59 1.68c-.19.12-.44.06-.54-.14a.47.47 0 0 1 .16-.59l2.59-1.68c.19-.12.43-.06.54.14.1.2.03.47-.16.59M38 44c-1.1 0-2-.9-2-2s.9-2 2-2 2 .9 2 2-.9 2-2 2m6-3c-1.1 0-2-.9-2-2s.9-2 2-2 2 .9 2 2-.9 2-2 2" class="st0"/><path d="m22.08 19.6 6.58 2.9v-1.33l-4.94-2.04 4.94-2.33v-1.3l-6.58 3.29zm7.33 4.38h1.49l3.66-9.85h-1.48zm5.93-8.48v1.3l4.94 2.33-4.94 2.04v1.33l6.58-2.9v-.81z" class="st0"/></svg>