<svg xmlns="http://www.w3.org/2000/svg" xml:space="preserve" id="svg3004" x="0" y="0" version="1.1" viewBox="0 0 64 64"><style>.st0{fill:#fff}</style><g id="g3012" transform="matrix(1.25 0 0 -1.25 0 64)"><g id="g3014" transform="matrix(.8 0 0 .8 .014 -.007)"><g id="g3016"><g id="g3022" transform="translate(44 29)"><path id="path3024" d="M0 0c0-1.1-.9-2-2-2s-2 .9-2 2 .9 2 2 2 2-.9 2-2" class="st0"/></g><g id="g3026" transform="translate(55.928 41.083)"><path id="path3028" d="M0 0v-.1c0-.1-.1-.2-.1-.2-.2-.4-.5-.7-.9-.8-.6-.1-1.3.4-1.4 1.1 0 0-.1 1.4-1.3 2.8-.1.2-.2.4-.2.6-.1.7.3 1.4 1 1.5h.6C-2 4.7-1.2 4.3-.5 3 .2 1.6.1.5 0 0m-6.9-3.1c-1.7 0-3 1.3-3 3s1.3 3 3 3 3-1.3 3-3-1.4-3-3-3m-5-3c-1.1 0-2 .9-2 2s.9 2 2 2 2-.9 2-2-.9-2-2-2m-2-10c-2.2 0-4 1.8-4 4s1.8 4 4 4 4-1.8 4-4-1.8-4-4-4m2 20.4v.3c.1.4.6 1.3 2 1.9 1.3.6 2.4.4 2.9.3h.1c.1 0 .2-.1.2-.1.4-.2.7-.6.8-1 0-.7-.5-1.3-1.2-1.4 0 0-1.4 0-2.8-1.2-.1-.1-.3-.2-.5-.2-.7-.1-1.4.4-1.4 1.1-.1.1-.1.2-.1.3m-12-7.4c-.8 0-1.5.7-1.5 1.5s.7 1.5 1.5 1.5 1.5-.7 1.5-1.5-.7-1.5-1.5-1.5m-5-10h-2v-2h-2v2h-2v2h2v2h2v-2h2zm-8 10-3-1-3 1-1 3 1 3 3 1 3-1 1-3zM2.2-4.5c.6 1.2.9 2.9.8 4.4 0 4.4-2.9 7.9-7 9-3.3 1.5-7 1-7 1-6.3 2.2-12.5 2-13 2s-6.6.4-13-2c-2.4.4-4.3-.4-5-1-4.6-.7-7.9-4.2-8-9 0-.7-.1-2.4 0-3-.3-2.2-2.3-17.7.2-24.5.3-.9 1-1.7 1.8-2.2 1.1-.6 2.7-.7 4.3 2.1.4.7.6 1.7.7 2.6.4 3.2 1.8 11.5 2.9 12.1 0 0 .1.1.3.4.4-.6.8-1.3 1.2-2.2v-.2c1-2.3 2.8-4.1 5.5-4.1 3.6 0 7 3.4 7 7 0 1.9-.6 3.3-1.9 4.5-.2.2-.8.9-1.1 1.5 1.7.5 3 1 5 1 2.3.1 4.1-.4 6-1-.3-.5-1-1.3-1.2-1.5-1.2-1.2-1.8-2.6-1.8-4.5 0-3.6 2.4-7 6-7 2.7 0 5.4 1.8 6.4 4.1v.2c.2.6.2 1.2.5 1.7 1-1.5 2.6-9 3-12 .1-.9.2-1.9.7-2.6 1.6-2.7 3.2-2.7 4.3-2.1.8.5 1.5 1.2 1.8 2.2 2.3 5.7 1.2 18 .6 23.1" class="st0"/></g><g id="g3030" transform="translate(16 44)"><path id="path3032" d="M0 0c1.7 0 3-1.3 3-3S1.7-6 0-6s-3 1.3-3 3 1.3 3 3 3" class="st0"/></g></g></g></g><path d="m19.2 53.3 8.5 3.7v-1.7l-6.3-2.6 6.3-3V48l-8.5 4.3zm9.5 5.7h1.9l4.7-12.7h-1.9zm7.6-11v1.7l6.4 3-6.4 2.6V57l8.5-3.7v-1z" class="st0"/></svg>