<svg xmlns="http://www.w3.org/2000/svg" xml:space="preserve" viewBox="0 0 64 64"><style>.st0{fill:#fff}</style><path id="pda" d="M49.6 7.7c0-1.5-1.2-2.8-2.8-2.8H17.2c-1.5 0-2.8 1.2-2.8 2.8v41.6h.9v4h-.9c.1 1.4 1.3 2.6 2.8 2.6h2.4c2.6 1.8 7.9 3.1 14.1 3.1 8.7 0 15.8-2.5 15.8-5.6V7.7zM20.3 53.3c-1.1 0-2-.9-2-2s.9-2 2-2 2 .9 2 2-.9 2-2 2m5.7 0c-1.1 0-2-.9-2-2s.9-2 2-2 2 .9 2 2-.9 2-2 2m8-.1c0 .4-.9.8-2 .8s-2-.4-2-.8v-1.1h4zm0-2.7h-4v-1.1c0-.4.9-.8 2-.8s2 .4 2 .8zm4 2.7c-1.1 0-2-.9-2-2s.9-2 2-2 2 .9 2 2-.9 2-2 2m5.7 0c-1.1 0-2-.9-2-2s.9-2 2-2 2 .9 2 2-.9 2-2 2m2.2-8.8c0 .8-.7 1.4-1.5 1.4H19.6c-.8 0-1.5-.6-1.5-1.4V11.3c0-.8.7-1.4 1.5-1.4h24.8c.8 0 1.5.6 1.5 1.4z" class="st0"/><path id="src" d="m28.3 25.6-5.5 2.5 5.5 2.3v1.5L21 28.7v-.9l7.3-3.7zm2.5 7.9h-1.7l4.1-10.9h1.6zM43 28.7l-7.3 3.2v-1.5l5.5-2.3-5.5-2.5v-1.5l7.3 3.7z" class="st0"/></svg>