<svg xmlns="http://www.w3.org/2000/svg" xml:space="preserve" viewBox="0 0 64 64"><path d="M3 53.02h58v-18H3zm11-5h-4v-2h4zm-4-3v-2h3v2zm4 0v-2h2v2zm1 1h2v2h-2zm25 5H16v-2h24zm-21-6h-2v-2h2zm1 1v2h-2v-2zm2-1h-2v-2h2zm1 1v2h-2v-2zm2-1h-2v-2h2zm1 1v2h-2v-2zm2-1h-2v-2h2zm1 1v2h-2v-2zm2-1h-2v-2h2zm1 1v2h-2v-2zm2-1h-2v-2h2zm1 1v2h-2v-2zm2-1h-2v-2h2zm1 1v2h-2v-2zm3 2h-2v-2h2zm-3-3v-2h2v2zm6 3h-2v-2h2zm-3-3v-2h2v2zm5 3h-1v-2h1zm0-3h-2v-2h2zm3-3h-3v-2h3zm2-5h4v2h-4zm0 3h4v2h-4zm0 3h4v2h-4zm0 3h4v2h-4zm0 3h4v2h-4zm-3-12h1v2h-1zm-3 0h2v2h-2zm0 5h-2v-2h2zm-3-5h2v2h-2zm0 5h-2v-2h2zm-3-5h2v2h-2zm0 5h-2v-2h2zm-3-5h2v2h-2zm0 5h-2v-2h2zm-3-5h2v2h-2zm0 5h-2v-2h2zm-3-5h2v2h-2zm0 5h-2v-2h2zm-3-5h2v2h-2zm0 5h-2v-2h2zm-3-5h2v2h-2zm0 5h-2v-2h2zm-3-5h2v2h-2zm0 5h-2v-2h2zm-3-5h2v2h-2zm0 5h-2v-2h2zm-3-5h2v2h-2zm0 5h-2v-2h2zm-3-5h2v2h-2zm-3 0h2v2H9zm0 3h3v2H9zm-6-31v26L10 30h1l1 4.02h40L53 30h1l7 5.02v-26zm24.7 8.61-6.35 2.99 6.35 2.63v1.71l-8.46-3.73v-1.05l8.46-4.23zm2.88 9.23h-1.92l4.72-12.67h1.91zm14.18-5.63-8.46 3.73v-1.71l6.35-2.63-6.35-2.99v-1.68l8.46 4.23z" style="fill:#fff"/></svg>