<?xml version="1.0" encoding="utf-8"?>
<!-- Generator: Adobe Illustrator 26.3.1, SVG Export Plug-In . SVG Version: 6.00 Build 0)  -->
<svg version="1.1"
	 id="svg2" xmlns:inkscape="http://www.inkscape.org/namespaces/inkscape" xmlns:cc="http://creativecommons.org/ns#" xmlns:sodipodi="http://sodipodi.sourceforge.net/DTD/sodipodi-0.dtd" xmlns:dc="http://purl.org/dc/elements/1.1/" xmlns:svg="http://www.w3.org/2000/svg" xmlns:rdf="http://www.w3.org/1999/02/22-rdf-syntax-ns#"
	 xmlns="http://www.w3.org/2000/svg" xmlns:xlink="http://www.w3.org/1999/xlink" x="0px" y="0px" viewBox="0 0 64 64"
	 style="enable-background:new 0 0 64 64;" xml:space="preserve">
<style type="text/css">
	.st0{fill:#FFFFFF;}
</style>
<sodipodi:namedview  bordercolor="#666666" borderopacity="1" gridtolerance="10000" guidetolerance="10" id="namedview4" inkscape:current-layer="svg2" inkscape:cx="32" inkscape:cy="32" inkscape:pageopacity="0" inkscape:pageshadow="2" inkscape:window-height="836" inkscape:window-maximized="1" inkscape:window-width="1440" inkscape:window-x="0" inkscape:window-y="27" inkscape:zoom="9.5625" objecttolerance="10" pagecolor="#808080" showgrid="true">
	<inkscape:grid  empspacing="4" id="grid3336" type="xygrid"></inkscape:grid>
</sodipodi:namedview>
<path id="Game_Boy" class="st0" d="M18,5c-1,0-2,1-2,2v49c0,3,12,4,16.1,4C36,60,48,59,48,56V7c0-1-1-2-2-2H18z M19,8h26
	c0.6,0,1,0.4,1,1v20c0,3-10,3-14,3s-14,0-14-3V9C18,8.4,18.4,8,19,8z M44,37c1.1,0,2,0.9,2,2s-0.9,2-2,2s-2-0.9-2-2S42.9,37,44,37z
	 M22,38h1c1,0,1,0,1,1v1h1c1,0,1,0,1,1v1c0,1,0,1-1,1h-1v1c0,1,0,1-1,1h-1c-1,0-1,0-1-1v-1h-1c-1,0-1,0-1-1v-1c0-1,0-1,1-1h1v-1
	C21,38,21,38,22,38z M38,40c1.1,0,2,0.9,2,2s-0.9,2-2,2s-2-0.9-2-2S36.9,40,38,40z M28.5,50h2c0.3,0,0.5,0.2,0.5,0.5
	S30.8,51,30.5,51h-2c-0.3,0-0.5-0.2-0.5-0.5S28.2,50,28.5,50z M33.5,50h2c0.3,0,0.5,0.2,0.5,0.5S35.8,51,35.5,51h-2
	c-0.3,0-0.5-0.2-0.5-0.5S33.2,50,33.5,50z"/>
<g>
	<polygon class="st0" points="22.1,20.4 28.7,23.3 28.7,22 23.7,19.9 28.7,17.6 28.7,16.3 22.1,19.6 	"/>
	<polygon class="st0" points="29.4,24.8 30.9,24.8 34.6,14.9 33.1,14.9 	"/>
	<polygon class="st0" points="35.3,16.3 35.3,17.6 40.3,19.9 35.3,22 35.3,23.3 41.9,20.4 41.9,19.6 	"/>
</g>
</svg>
