<svg xmlns="http://www.w3.org/2000/svg" xml:space="preserve" width="256" height="256"><defs><clipPath id="a" clipPathUnits="userSpaceOnUse"><path d="M0 64h64V0H0Z"/></clipPath></defs><g clip-path="url(#a)" style="stroke-width:.33333334" transform="matrix(4 0 0 -4 0 256)"><path d="M52 18H12v2h40zm0-4H12v2h40zm0-4H12v2h40ZM14 5v4h2V6h2v3h2V6h2v3h2V6h2v3h2V6h2v3h2V6h2v3h2V6h2v3h2V6h2v3h2V6h2v3h4V5Zm-2 44a1 1 0 0 0 1 1h8a1 1 0 0 0 1-1v-4a1 1 0 0 1 1-1h18a1 1 0 0 1 1 1v4a1 1 0 0 0 1 1h8a1 1 0 0 0 1-1V23a1 1 0 0 0-1-1H13a1 1 0 0 0-1 1zm12-2h16v-1H24Zm0 2h16v-1H24Zm0 2h16v-1H24Zm0 2h16v-1H24Zm0 5h16v-4H24Zm30-38v38a2 2 0 0 1-2 2H12a2 2 0 0 1-2-2V20h1v-2h-1v-2h1v-2h-1v-2h1v-2h-1V6a2 2 0 0 1 2-2h40a2 2 0 0 1 2 2v4h-1v2h1v2h-1v2h1v2h-1v2z" style="fill:#fff;fill-opacity:1;fill-rule:nonzero;stroke:none;stroke-width:.33333334"/></g></svg>