<?xml version="1.0" encoding="UTF-8" standalone="no"?>
<svg
   xmlns:dc="http://purl.org/dc/elements/1.1/"
   xmlns:cc="http://creativecommons.org/ns#"
   xmlns:rdf="http://www.w3.org/1999/02/22-rdf-syntax-ns#"
   xmlns:svg="http://www.w3.org/2000/svg"
   xmlns="http://www.w3.org/2000/svg"
   viewBox="0 0 74.666664 37.333332"
   height="37.333332"
   width="74.666664"
   xml:space="preserve"
   id="svg2"
   version="1.1"><metadata
     id="metadata8"><rdf:RDF><cc:Work
         rdf:about=""><dc:format>image/svg+xml</dc:format><dc:type
           rdf:resource="http://purl.org/dc/dcmitype/StillImage" /></cc:Work></rdf:RDF></metadata><defs
     id="defs6"><clipPath
       id="clipPath18"
       clipPathUnits="userSpaceOnUse"><path
         id="path16"
         d="M 0,64 H 64 V 0 H 0 Z" /></clipPath></defs><g
     transform="matrix(1.3333333,0,0,-1.3333333,-5.3333332,61.333332)"
     id="g10"><g
       id="g12"><g
         clip-path="url(#clipPath18)"
         id="g14"><path
           id="path20"
           style="fill:#f2f2f2;fill-opacity:1;fill-rule:nonzero;stroke:none"
           d="m 8,25 h 2 v 1 H 8 Z m 1,2 h 3 v 1 H 9 Z m 0,3 h 2 v 1 H 9 Z m 0,2 h 3 v 1 H 9 Z m 4,0 h 3 v 1 h -3 z m 4,-1 h -2 v -1 h 2 z m 0,1 h 3 v 1 h -3 z m 4,-4 h -2 v -1 h 2 z m 0,2 h 2 v 1 h -2 z m 0,2 h 3 v 1 h -3 z m 4,0 h 3 v 1 h -3 z m 4,-1 h -2 v -1 h 2 z m 1,-3 h -2 v -1 h 2 z m 0,2 h 2 v 1 h -2 z m 3,-2 h -2 v -1 h 2 z m 0,2 h 2 v 1 h -2 z m 0,2 h 3 v 1 h -3 z m 5,-1 h -2 v -1 h 2 z m 1,-3 h -2 v -1 h 2 z m 0,2 h 2 v 1 h -2 z m 0,2 h 2 v 1 h -2 z m 3,-4 h -2 v -1 h 2 z m 0,2 h 3 v 1 h -3 z m 0,2 h 2 v 1 h -2 z m 3,0 h 2 v 1 h -2 z m 4,-1 h -2 v -1 h 2 z m -0.966,-5 c 0,-2.209 1.791,-4 4,-4 2.209,0 4,1.791 4,4 0,2.209 -1.791,4 -4,4 -2.209,0 -4,-1.791 -4,-4 M 45,28 h -2 v -1 h 2 z m 0,-2 h -4 v -1 h 4 z m -1,-2 h -2 v -1 h 2 z m -4,2 h -2 v -1 h 2 z m 1,-2 h -2 v -1 h 2 z m -3,0 h -2 v -1 h 2 z m -3,1 h 2 v 1 h -2 z m 1,3 h -2 v -1 h 2 z m -2,-2 h -2 v -1 h 2 z m 1,-2 h -2 v -1 h 2 z m -5,-1 h 2 v 1 h -2 z m 1,3 h -2 v -1 h 2 z m 4,-4 H 21 v -1 h 14 z m -13,4 h -2 v -1 h 2 z m -1,-3 h 2 v 1 h -2 z m 3,5 h -2 v -1 h 2 z m -1,-3 h 2 v 1 h -2 z m 3,6 h -2 v -1 h 2 z m -2,-8 h 2 v 1 h -2 z m 3,5 h -2 v -1 h 2 z m 0,-5 h 2 v 1 h -2 z m 1,3 h -2 v -1 h 2 z m -8,-2 h -2 v -1 h 2 z m 0,-2 h -2 v -1 h 2 z m 0,9 h -2 v -1 h 2 z m -3,-6 h 2 v 1 h -2 z m 1,3 h -2 v -1 h 2 z m -1,-4 h -2 v -1 h 2 z m 0,-2 h -2 v -1 h 2 z m -3,3 h 2 v 1 h -2 z m -3,0 h 2 v 1 h -2 z m 2,2 h 2 v 1 h -2 z m 1,4 h -2 v -1 h 2 z m 0,-7 h -3 v -1 h 3 z M 4,36 H 60 V 18.467 C 60,18.209 59.784,18 59.518,18 H 4.483 C 4.216,18 4,18.209 4,18.467 Z M 6,46 H 4.483 C 4.216,46 4,45.765 4,45.475 V 37 H 6 Z M 52,24 c 1.104,0 2,0.896 2,2 0,1.104 -0.896,2 -2,2 -1.104,0 -2,-0.896 -2,-2 0,-1.104 0.896,-2 2,-2 m 7.437,22 H 53 v -9 h 7 v 8.475 C 60,45.765 59.748,46 59.437,46 M 50,44 H 40 v -1 h 10 z m 0,-2 H 40 v -1 h 10 z m 0,-2 H 40 v -2 h 10 z m 2,-3 H 38 v 9 H 52 Z M 37,37 H 7 v 9 h 30 z" /></g></g></g></svg>