<?xml version="1.0" encoding="UTF-8" standalone="no"?>
<!-- Generator: Adobe Illustrator 16.0.0, SVG Export Plug-In . SVG Version: 6.00 Build 0)  -->

<svg
   xmlns:dc="http://purl.org/dc/elements/1.1/"
   xmlns:cc="http://creativecommons.org/ns#"
   xmlns:rdf="http://www.w3.org/1999/02/22-rdf-syntax-ns#"
   xmlns:svg="http://www.w3.org/2000/svg"
   xmlns="http://www.w3.org/2000/svg"
   xmlns:sodipodi="http://sodipodi.sourceforge.net/DTD/sodipodi-0.dtd"
   xmlns:inkscape="http://www.inkscape.org/namespaces/inkscape"
   version="1.1"
   id="svg2"
   inkscape:export-filename="G:\Github\retroarch-assets\xmb\monochrome\png\subsetting.png"
   inkscape:export-xdpi="360"
   inkscape:version="0.48.5 r10040"
   inkscape:export-ydpi="360"
   sodipodi:docname="subsetting.svg"
   x="0px"
   y="0px"
   width="64px"
   height="64px"
   viewBox="0 128 64 64"
   enable-background="new 0 128 64 64"
   xml:space="preserve"><metadata
   id="metadata8"><rdf:RDF><cc:Work
       rdf:about=""><dc:format>image/svg+xml</dc:format><dc:type
         rdf:resource="http://purl.org/dc/dcmitype/StillImage" /><dc:title></dc:title></cc:Work></rdf:RDF></metadata><defs
   id="defs6" /><sodipodi:namedview
   pagecolor="#808080"
   bordercolor="#666666"
   borderopacity="1"
   objecttolerance="10"
   gridtolerance="10"
   guidetolerance="10"
   inkscape:pageopacity="0"
   inkscape:pageshadow="2"
   inkscape:window-width="1536"
   inkscape:window-height="801"
   id="namedview4"
   showgrid="true"
   inkscape:zoom="5.2149125"
   inkscape:cx="18.565179"
   inkscape:cy="38.409128"
   inkscape:window-x="-8"
   inkscape:window-y="-8"
   inkscape:window-maximized="1"
   inkscape:current-layer="svg2"><inkscape:grid
     type="xygrid"
     id="grid815" /></sodipodi:namedview>
<path
   id="Subsetting"
   d="m 43.644286,160 c 0,-0.94858 -0.115716,-1.87 -0.33143,-2.75142 l 2.972857,-1.5343 C 45.65857,153.74286 44.787141,151.49714 43.428571,150 l -3.392857,1.57857 c -1.327143,-1.26714 -2.951428,-2.22429 -4.761428,-2.75286 l -0.241428,-2.78714 C 34.054284,145.82858 33.041429,145.71429 32,145.71429 c -1.041429,0 -2.054284,0.11428 -3.035714,0.32571 l -0.24,2.78714 c -1.807143,0.52857 -3.432857,1.48573 -4.76,2.75286 L 20.571429,150 c -1.359999,1.49714 -2.22857,3.74286 -2.857142,5.71428 l 2.972857,1.5343 C 20.474287,158.13 20.357143,159.05142 20.357143,160 c 0,0.94858 0.117147,1.86857 0.330001,2.75142 l -2.972857,1.5343 c 0.628572,1.97142 1.497143,4.21714 2.857142,5.71428 l 3.392857,-1.57857 c 1.327143,1.26714 2.952857,2.22429 4.76,2.75286 l 0.24,2.78714 c 0.98143,0.20999 1.994285,0.32428 3.035714,0.32428 1.041429,0 2.054284,-0.11428 3.032858,-0.32571 l 0.241428,-2.78714 c 1.81,-0.52857 3.434285,-1.48573 4.761428,-2.75286 l 3.392857,1.58 c 1.35857,-1.49714 2.229999,-3.74286 2.857142,-5.71428 l -2.972857,-1.5343 c 0.215714,-0.88285 0.33143,-1.80284 0.33143,-2.75142 z M 32,165.70714 c -3.155713,0 -5.714286,-2.56 -5.714286,-5.71285 0,-3.15715 2.558573,-5.71571 5.714286,-5.71571 3.155713,0 5.714286,2.55856 5.714286,5.71571 0,3.15285 -2.558573,5.71285 -5.714286,5.71285 z"
   inkscape:connector-curvature="0"
   style="fill:#ffffff;stroke-width:1.28571415" />
</svg>