<svg xmlns="http://www.w3.org/2000/svg" xml:space="preserve" viewBox="0 0 64 64"><style>.st0{fill:#fff}</style><path d="M4.85 34.87h2.82v1.2H4.85zm4.01 0h2.82v1.2H8.86zm4.02 0h2.82v1.2h-2.82zm-7.02-8.15h2.61v1.2H5.86zm4.03 0h2.61v1.2H9.89zm4.04 0h2.61v1.2h-2.61zm4.03 0h2.61v1.2h-2.61zm4.03 0h2.61v1.2h-2.61zm4.03 0h2.61v1.2h-2.61zm4.03 0h2.61v1.2h-2.61zm4.03 0h2.61v1.2h-2.61zm4.03 0h2.61v1.2h-2.61zm4.03 0h2.61v1.2h-2.61zm4.03 0h2.61v1.2h-2.61zm4.03 0h2.61v1.2H50.2zm4.04 0h2.61v1.2h-2.61zM7.18 38.94h2.61v1.2H7.18zm4.03 0h2.61v1.2h-2.61zm4.03 0h2.61v1.2h-2.61zm4.03 0h2.61v1.2h-2.61zm4.03 0h2.61v1.2H23.3zm4.03 0h2.61v1.2h-2.61zm4.04 0h2.61v1.2h-2.61zm4.03 0h2.61v1.2H35.4zm4.03 0h2.61v1.2h-2.61zm4.03 0h2.61v1.2h-2.61zm4.03 0h2.61v1.2h-2.61zm4.03 0h2.61v1.2h-2.61zM3.85 30.8h2.82V32H3.85zm4.02 0h2.82V32H7.87zm4.01 0h2.82V32h-2.82zm4.02 0h2.82V32H15.9zm4.01 0h2.82V32h-2.82zm4.01 0h2.82V32h-2.82zm4.02 0h2.82V32h-2.82zm4.01 0h2.82V32h-2.82zm4.02 0h2.82V32h-2.82zm4.01 0h2.82V32h-2.82zm4.02 0h2.82V32H44zm4.01 0h2.82V32h-2.82zm4.02 0h2.82V32h-2.82zm4.01 0h2.82V32h-2.82zM21.99 42.72h18.74v1.2H21.99zm-8.06 0h2.61v1.2h-2.61zm4.03 0h2.61v1.2h-2.61zm24.18 0h2.61v1.2h-2.61zm4.03 0h2.61v1.2h-2.61zm-29.28-7.85h2.82v1.2h-2.82zm4.02 0h2.82v1.2h-2.82zm4.01 0h2.82v1.2h-2.82zm4.01 0h2.82v1.2h-2.82zm4.02 0h2.82v1.2h-2.82zm4.01 0h2.82v1.2h-2.82zm4.02 0h2.82v1.2h-2.82zm4.01 0h2.82v1.2h-2.82zm4.02 0h2.82v1.2h-2.82zm4.01 0h6.83v1.2h-6.83z" class="st0"/><path d="M61.89 23.18v-9.55c0-.55-.45-1-1-1h-58c-.55 0-1 .45-1 1v9.55h.5v23.18h-.5v2.54c0 .55.45 1 1 1h58c.55 0 1-.45 1-1v-2.54h-.5V23.18zm-13.57-8.57c0-.39.32-.71.71-.71h8.24c.39 0 .71.32.71.71v1.47c0 .39-.32.71-.71.71h-8.24c-.39 0-.71-.32-.71-.71zm12.57 31.75h-58V23.18h58zm.36-24.42H2.75v-.6h58.5zm0-1.19H2.75v-.6h58.5z" class="st0"/></svg>