<svg xmlns="http://www.w3.org/2000/svg" xml:space="preserve" viewBox="0 0 64 64"><style>.st0{fill:#fff}</style><path d="M62.42 23.48c-.06-.79-.71-1.39-1.5-1.39H3.08c-.79 0-1.44.61-1.5 1.39l-.38 5.38.62 23.64c.02.81.69 1.46 1.5 1.46h57.36c.81 0 1.48-.65 1.5-1.46l.62-23.64zM41.27 51.83c0 .55-.45 1-1 1H4.47c-.55 0-1.02-.45-1.05-1l-.56-18.75c-.03-.55.4-1 .95-1h36.46c.55 0 1 .45 1 1zm19.19.04c-.02.54-.45.96-.98.96H43.8c-.54 0-.98-.45-.98-1V24.18c0-.55.44-1 .98-1h15.86c.49 0 .91.37.97.86l.44 4.89zm1.11-40.28c-.06-.79-.71-1.39-1.5-1.39H3.92c-.79 0-1.44.61-1.5 1.39l-.68 9.56h60.5zm-19.88.13c0-.14.11-.25.25-.25h17.43c.14 0 .25.11.25.25s-.11.25-.25.25H41.94c-.14 0-.25-.12-.25-.25m.09 1.29c0-.14.11-.25.25-.25h17.43c.14 0 .25.11.25.25s-.11.25-.25.25H42.03c-.14 0-.25-.11-.25-.25m.1 1.3c0-.14.11-.25.25-.25h17.43c.14 0 .25.11.25.25s-.11.25-.25.25H42.13c-.14 0-.25-.12-.25-.25m.09 1.29c0-.14.11-.25.25-.25h17.43c.14 0 .25.11.25.25s-.11.25-.25.25H42.22c-.14 0-.25-.11-.25-.25m.1 1.29c0-.14.11-.25.25-.25h17.43c.14 0 .25.11.25.25s-.11.25-.25.25H42.32c-.14 0-.25-.11-.25-.25m.09 1.3c0-.14.11-.25.25-.25h17.43c.14 0 .25.11.25.25s-.11.25-.25.25H42.41c-.14 0-.25-.11-.25-.25m17.78 1.54H42.5c-.14 0-.25-.11-.25-.25s.11-.25.25-.25h17.43c.14 0 .25.11.25.25s-.11.25-.24.25" class="st0"/><path d="M5.94 35.54h2.37v1.52H5.94zm3.13 0h2.37v1.52H9.07zm3.13 0h2.37v1.52H12.2zm3.14 0h2.37v1.52h-2.37zm3.13 0h2.37v1.52h-2.37zm3.13 0h2.37v1.52H21.6zm3.14 0h2.37v1.52h-2.37zm3.13 0h2.37v1.52h-2.37zm3.13 0h2.37v1.52H31zM7.48 38.78h2.37v1.52H7.48zm3.14 0h2.37v1.52h-2.37zm3.13 0h2.37v1.52h-2.37zm3.13 0h2.37v1.52h-2.37zm3.14 0h2.37v1.52h-2.37zm3.13 0h2.37v1.52h-2.37zm3.13 0h2.37v1.52h-2.37zm3.14 0h2.37v1.52h-2.37zm3.13 0h2.37v1.52h-2.37zm3.13 0h2.37v1.52h-2.37zM5.94 42.02h2.37v1.52H5.94zm3.13 0h2.37v1.52H9.07zm3.13 0h2.37v1.52H12.2zm3.14 0h2.37v1.52h-2.37zm3.13 0h2.37v1.52h-2.37zm3.13 0h2.37v1.52H21.6zm3.14 0h2.37v1.52h-2.37zm3.13 0h2.37v1.52h-2.37zm3.13 0h2.37v1.52H31zm3.14 0h2.37v1.52h-2.37zM7.48 45.25h2.37v1.52H7.48zm3.14 0h2.37v1.52h-2.37zm3.13 0h2.37v1.52h-2.37zm3.13 0h2.37v1.52h-2.37zm3.14 0h2.37v1.52h-2.37zm3.13 0h2.37v1.52h-2.37zm3.13 0h2.37v1.52h-2.37zm3.14 0h2.37v1.52h-2.37zm3.13 0h2.37v1.52h-2.37zm3.13 0h2.37v1.52h-2.37zm-22.29 3.24h16.85v1.52H13.39zm43.1.93v-.25h-3.94v.25h-8.91v2.46h8.91v.25h3.94v-.25h3v-2.46zm-3.94 1.75h-7.98v-.99h7.98zm3.44.46h-2.94v-1.96h2.94zm2.58-.46h-2.08v-.99h2.08zM43.98 31.04h16v1.04h-16z" class="st0"/></svg>