<?xml version="1.0" encoding="utf-8"?>
<!-- Generator: Adobe Illustrator 24.1.2, SVG Export Plug-In . SVG Version: 6.00 Build 0)  -->
<svg version="1.1"
	 id="svg2" inkscape:export-filename="/home/kivutar/libretro-super/retroarch/media/assets/xmb/monochrome/png/history.png" inkscape:export-xdpi="360" inkscape:export-ydpi="360" inkscape:version="0.48.5 r10040" sodipodi:docname="history.svg" xmlns:cc="http://creativecommons.org/ns#" xmlns:dc="http://purl.org/dc/elements/1.1/" xmlns:inkscape="http://www.inkscape.org/namespaces/inkscape" xmlns:rdf="http://www.w3.org/1999/02/22-rdf-syntax-ns#" xmlns:sodipodi="http://sodipodi.sourceforge.net/DTD/sodipodi-0.dtd" xmlns:svg="http://www.w3.org/2000/svg"
	 xmlns="http://www.w3.org/2000/svg" xmlns:xlink="http://www.w3.org/1999/xlink" x="0px" y="0px" viewBox="0 0 64 64"
	 style="enable-background:new 0 0 64 64;" xml:space="preserve">
<style type="text/css">
	.st0{fill:#FFFFFF;}
</style>
<sodipodi:namedview  bordercolor="#666666" borderopacity="1" gridtolerance="10" guidetolerance="10" id="namedview4" inkscape:current-layer="svg2" inkscape:cx="66.482606" inkscape:cy="32.005268" inkscape:pageopacity="0" inkscape:pageshadow="2" inkscape:window-height="836" inkscape:window-maximized="1" inkscape:window-width="1440" inkscape:window-x="0" inkscape:window-y="27" inkscape:zoom="7.375" objecttolerance="10" pagecolor="#808080" showgrid="true">
	<inkscape:grid  empspacing="4" enabled="true" id="grid2985" snapvisiblegridlinesonly="true" type="xygrid" visible="true">
		</inkscape:grid>
</sodipodi:namedview>
<g>
	<path class="st0" d="M25.8,39c-0.7,0-1.3,0.6-1.3,1.3s0.6,1.3,1.3,1.3c0.7,0,1.3-0.6,1.3-1.3S26.5,39,25.8,39z"/>
	<path class="st0" d="M32.9,33.2c-0.5-0.5-1.3-0.5-1.8,0L28,36.3c-0.5,0.5-0.5,1.3,0,1.8s1.3,0.5,1.8,0L32,36l13.2,13.1
		c0.5,0.5,1.3,0.5,1.8,0s0.5-1.3,0-1.8L32.9,33.2z"/>
	<path class="st0" d="M20.8,43.9c-0.7,0-1.3,0.6-1.3,1.3s0.6,1.3,1.3,1.3c0.7,0,1.3-0.6,1.3-1.3C22.1,44.5,21.6,43.9,20.8,43.9z"/>
	<path class="st0" d="M32,5C9.6,5,5,9.6,5,32s4.5,27,27,27s27-4.5,27-27S54.4,5,32,5z M42.3,33.1c0.7,0,1.3,0.6,1.3,1.3
		s-0.6,1.3-1.3,1.3S41,35.1,41,34.4C41,33.7,41.6,33.1,42.3,33.1z M36.9,21.9c0.7,0,1.3,0.6,1.3,1.3c0,0.7-0.6,1.3-1.3,1.3
		s-1.3-0.6-1.3-1.3C35.6,22.5,36.2,21.9,36.9,21.9z M32,13.4c0.7,0,1.3,0.6,1.3,1.3S32.7,16,32,16s-1.3-0.6-1.3-1.3
		S31.3,13.4,32,13.4z M30.7,19.7c0-0.7,0.6-1.3,1.3-1.3c0.7,0,1.3,0.6,1.3,1.3v2.8c0,0.7-0.6,1.3-1.3,1.3s-1.3-0.6-1.3-1.3V19.7z
		 M33.3,27.4c0,0.7-0.6,1.3-1.3,1.3s-1.3-0.6-1.3-1.3c0-0.7,0.6-1.3,1.3-1.3C32.7,26.1,33.3,26.7,33.3,27.4z M25.4,26.1
		c0.7,0,1.3,0.6,1.3,1.3c0,0.7-0.6,1.3-1.3,1.3c-0.7,0-1.3-0.6-1.3-1.3S24.7,26.1,25.4,26.1z M20.8,35.5c0.7,0,1.3,0.6,1.3,1.3
		s-0.6,1.3-1.3,1.3c-0.7,0-1.3-0.6-1.3-1.3C19.5,36,20.1,35.5,20.8,35.5z M46.7,50.6H17.3c-2,0-3-2.4-1.6-3.9L30.4,32
		c0.9-0.9,2.3-0.9,3.2,0l14.7,14.7C49.8,48.2,48.7,50.6,46.7,50.6z"/>
</g>
</svg>
