<?xml version="1.0" encoding="UTF-8" standalone="no"?>
<svg
   xmlns:dc="http://purl.org/dc/elements/1.1/"
   xmlns:cc="http://creativecommons.org/ns#"
   xmlns:rdf="http://www.w3.org/1999/02/22-rdf-syntax-ns#"
   xmlns:svg="http://www.w3.org/2000/svg"
   xmlns="http://www.w3.org/2000/svg"
   viewBox="0 0 77.333328 45.333332"
   height="45.333332"
   width="77.333328"
   xml:space="preserve"
   id="svg2"
   version="1.1"><metadata
     id="metadata8"><rdf:RDF><cc:Work
         rdf:about=""><dc:format>image/svg+xml</dc:format><dc:type
           rdf:resource="http://purl.org/dc/dcmitype/StillImage" /></cc:Work></rdf:RDF></metadata><defs
     id="defs6" /><g
     transform="matrix(1.3333333,0,0,-1.3333333,-3.9999999,66.666665)"
     id="g10"><path
       id="path12"
       style="fill:#f2f2f2;fill-opacity:1;fill-rule:nonzero;stroke:none"
       d="m 58,44 h -1 v 5 h 1 z m 0,-4 H 26 v 3 H 58 Z M 38,37 H 26 v 2 h 12 z m -13,8 h 1 v -1 h -1 z m -1,3 h -1 v 1 h 1 z m 0,-2 h -1 v 1 h 1 z m 0,-2 h -1 v 1 h 1 z m 0,-2 h -1 v 1 h 1 z m 0,-2 h -1 v 1 h 1 z m 0,-2 h -1 v 1 h 1 z m -2,10 h -1 v 1 h 1 z m 0,-2 h -1 v 1 h 1 z m 0,-2 h -1 v 1 h 1 z m 0,-2 h -1 v 1 h 1 z m 0,-2 h -1 v 1 h 1 z m 0,-2 h -1 v 1 h 1 z m -2,10 h -1 v 1 h 1 z m 0,-2 h -1 v 1 h 1 z m 0,-2 h -1 v 1 h 1 z m 0,-2 h -1 v 1 h 1 z m 0,-2 h -1 v 1 h 1 z m 0,-2 h -1 v 1 h 1 z m -2,10 h -1 v 1 h 1 z m 0,-2 h -1 v 1 h 1 z m 0,-2 h -1 v 1 h 1 z m 0,-2 h -1 v 1 h 1 z m 0,-2 h -1 v 1 h 1 z m 0,-2 h -1 v 1 h 1 z m -2,10 h -1 v 1 h 1 z m 0,-2 h -1 v 1 h 1 z m 0,-2 h -1 v 1 h 1 z m 0,-2 h -1 v 1 h 1 z m 0,-2 h -1 v 1 h 1 z m 0,-2 h -1 v 1 h 1 z m -2,10 h -1 v 1 h 1 z m 0,-2 h -1 v 1 h 1 z m 0,-2 h -1 v 1 h 1 z m 0,-2 h -1 v 1 h 1 z m 0,-2 h -1 v 1 h 1 z m 0,-2 h -1 v 1 h 1 z m -2,10 h -1 v 1 h 1 z m 0,-2 h -1 v 1 h 1 z m 0,-2 h -1 v 1 h 1 z m 0,-2 h -1 v 1 h 1 z m 0,-2 h -1 v 1 h 1 z m 0,-2 h -1 v 1 h 1 z M 10,48 H 9 v 1 h 1 z m 0,-2 H 9 v 1 h 1 z m 0,-2 H 9 v 1 h 1 z m 0,-2 H 9 v 1 h 1 z m 0,-2 H 9 v 1 h 1 z m 0,-2 H 9 v 1 h 1 z M 8,48 H 7 v 1 H 8 Z M 8,46 H 7 v 1 H 8 Z M 8,44 H 7 v 1 H 8 Z M 8,42 H 7 v 1 H 8 Z M 8,40 H 7 v 1 H 8 Z M 8,38 H 7 v 1 h 1 z m 17,9 h 1 v -1 h -1 z m 0,2 h 1 v -1 h -1 z m 2,-4 h 1 v -1 h -1 z m 0,2 h 1 v -1 h -1 z m 0,2 h 1 v -1 h -1 z m 2,-4 h 1 v -1 h -1 z m 0,2 h 1 v -1 h -1 z m 0,2 h 1 v -1 h -1 z m 2,-4 h 1 v -1 h -1 z m 0,2 h 1 v -1 h -1 z m 0,2 h 1 v -1 h -1 z m 2,-4 h 1 v -1 h -1 z m 0,2 h 1 v -1 h -1 z m 0,2 h 1 v -1 h -1 z m 2,-4 h 1 v -1 h -1 z m 0,2 h 1 v -1 h -1 z m 0,2 h 1 v -1 h -1 z m 2,-4 h 1 v -1 h -1 z m 0,2 h 1 v -1 h -1 z m 0,2 h 1 v -1 h -1 z m 2,0 h 1 v -5 h -1 z m 2,0 h 1 v -5 h -1 z m 2,0 h 1 v -5 h -1 z m 2,0 h 1 v -5 h -1 z m 2,0 h 1 v -5 h -1 z m 2,0 h 1 v -5 h -1 z m 2,0 h 1 v -5 h -1 z m 2,0 h 1 v -5 h -1 z m 2,0 h 1 V 44 H 55 Z M 5,36 H 59 V 50 H 5 Z" /><path
       id="path14"
       style="fill:#f2f2f2;fill-opacity:1;fill-rule:nonzero;stroke:none"
       d="M 3,36 H 4 V 50 H 3 Z" /><path
       id="path16"
       style="fill:#f2f2f2;fill-opacity:1;fill-rule:nonzero;stroke:none"
       d="m 60,36 h 1 v 14 h -1 z" /><path
       id="path18"
       style="fill:#f2f2f2;fill-opacity:1;fill-rule:nonzero;stroke:none"
       d="m 58,30 h -2 v 2 h 2 z m 0,-3 h -2 v 2 h 2 z m 0,-3 h -2 v 2 h 2 z m 0,-3 h -2 v 2 h 2 z m -3,9 h -2 v 2 h 2 z m 0,-3 h -2 v 2 h 2 z m 0,-3 h -2 v 2 h 2 z m 0,-3 h -2 v 2 h 2 z m -3,9 h -2 v 2 h 2 z m 0,-3 h -2 v 2 h 2 z m 0,-3 h -2 v 2 h 2 z m 0,-3 h -2 v 2 h 2 z m -3,9 h -2 v 2 h 2 z m -1,-3 h -1 v 2 h 1 z m 0,-3 h -3 v 2 h 3 z m 0,-3 h -1 v 2 h 1 z m -2,0 h -1 v 2 h 1 z m 0,6 h -1 v 2 h 1 z m -2,5 h 2 v -2 h -2 z m 0,-11 h -5 v 2 h 5 z m -6,0 h -2 v 2 h 2 z m 0,-3 H 15 v 2 h 23 z m -24,3 h -2 v 2 h 2 z m -3,0 H 8 v 2 h 3 z M 7,26 H 9 V 24 H 7 Z M 7,21 H 5 v 2 H 7 Z M 5,26 H 6 V 24 H 5 Z m 0,3 H 8 V 27 H 5 Z m 0,3 H 7 V 30 H 5 Z m 0,2 H 8 V 33 H 5 Z m 4,0 h 3 V 33 H 9 Z m 1,-8 h 2 v -2 h -2 z m -2,6 h 2 V 30 H 8 Z m 1,-3 h 2 V 27 H 9 Z m 4,1 h -2 v 2 h 2 z m 0,4 h 3 v -1 h -3 z m 4,-7 h -2 v 2 h 2 z m 0,5 h 2 v -2 h -2 z m 0,2 h 3 v -1 h -3 z m 4,0 h 3 v -1 h -3 z m 4,-4 h -2 v 2 h 2 z m 1,-3 h -2 v 2 h 2 z m 0,5 h 2 v -2 h -2 z m 3,-5 h -2 v 2 h 2 z m 0,5 h 2 v -2 h -2 z m 3,-5 h -2 v 2 h 2 z m 0,5 h 2 v -2 h -2 z m 3,-5 h -2 v 2 h 2 z m -1,-1 h 2 v -2 h -2 z m -1,-3 h 2 v -2 h -2 z m -2,3 h 2 v -2 h -2 z m -1,-3 h 2 v -2 h -2 z m -2,3 h 2 v -2 h -2 z m -1,-3 h 2 v -2 h -2 z m -2,3 h 2 v -2 h -2 z m -1,-3 h 2 v -2 h -2 z m -2,3 h 2 v -2 h -2 z m -1,-3 h 2 v -2 h -2 z m 2,4 h -2 v 2 h 2 z m -1,3 h -2 v 2 h 2 z m -4,-1 h 2 v -2 h -2 z m 1,-3 h 2 v -2 h -2 z m -1,-3 h 2 v -2 h -2 z m -2,3 h 2 v -2 h -2 z m -1,-3 h 2 v -2 h -2 z m -1,9 h 2 v -2 h -2 z m -2,-3 h 2 v -2 h -2 z m 1,-3 h 2 v -2 h -2 z m 22,6 h 2 v -2 h -2 z m 3,-5 h -2 v 2 h 2 z m 1,-3 h -2 v 2 h 2 z m -1,8 h 2 v -2 h -2 z m 5,-8 h -3 v 5 h 3 z m -2,8 h 2 V 30 H 41 Z M 3,16 H 61 V 35 H 3 Z" /></g></svg>