<svg xmlns="http://www.w3.org/2000/svg" xml:space="preserve" width="64" height="64"><defs><clipPath id="a" clipPathUnits="userSpaceOnUse"><path d="M0 64h64V0H0z"/></clipPath></defs><g clip-path="url(#a)" transform="matrix(1 0 0 -1 0 64)"><path d="M0 0h-2c-.275 0-.5.225-.5.5s.225.5.5.5h2C.275 1 .5.775.5.5S.275 0 0 0m4 .5H2c-.275 0-.5.225-.5.5s.225.5.5.5h2c.275 0 .5-.225.5-.5S4.275.5 4 .5m4 .505H6c-.275 0-.5.225-.5.5s.225.5.5.5h2c.275 0 .5-.225.5-.5s-.225-.5-.5-.5m-5.378 9.904a1.499 1.499 0 1 0 2.754 1.183 1.499 1.499 0 0 0-2.754-1.183M-.409 9.122a1.498 1.498 0 1 0-1.182 2.756A1.498 1.498 0 1 0-.409 9.122m4.031-2.213a1.499 1.499 0 1 0 2.754 1.183 1.499 1.499 0 0 0-2.754-1.183M.591 5.122A1.498 1.498 0 1 0-.591 7.878 1.498 1.498 0 1 0 .591 5.122M-1.5 17a1 1 0 1 0 0-2 1 1 0 0 0 0 2m-3-15.977h-25V17h25zM-35 2.5a4 4 0 0 0 0 8c2.209 0 4-2.155 4-4a4 4 0 0 0-4-4M7.607 20.309-11.566 21h-9.867l-19.174-.691a2.893 2.893 0 0 1-2.893-2.893V0h6l7-1h27l8 1h6v17.416a2.893 2.893 0 0 1-2.893 2.893" style="fill:#fff;fill-opacity:1;fill-rule:nonzero;stroke:none" transform="translate(48.5 26)"/><path d="M0 0h-4a1 1 0 1 1 0-2h4a1 1 0 1 1 0 2" style="fill:#fff;fill-opacity:1;fill-rule:nonzero;stroke:none" transform="translate(31 22.5)"/><path d="M0 0c0-.257-.178-.472-.412-.497l-3.245-.356-5.486-.599h-13.714l-8.731.955C-31.822-.472-32-.257-32 0v.096c0 .257.178.471.412.497l8.731.955h13.714l5.486-.6L-.412.593C-.178.567 0 .353 0 .096zm5 3.548-8-1h-27l-7 1h-6v-6c0-1.598 1.402-2 3-2H8.107c1.598 0 2.893.402 2.893 2v6" style="fill:#fff;fill-opacity:1;fill-rule:nonzero;stroke:none" transform="translate(48 21.452)"/><path d="M41 27.987H22V42h19z" style="fill:#fff;fill-opacity:1;fill-rule:nonzero;stroke:none"/><path d="M0 0h-1.5a1 1 0 0 0-1 1v1.5h-2V1a1 1 0 0 0-1-1H-7v-2h1.5a1 1 0 0 0 1-1v-1.5h2V-3a1 1 0 0 0 1 1H0z" style="fill:#fff;fill-opacity:1;fill-rule:nonzero;stroke:none" transform="translate(17 33.5)"/></g></svg>