<?xml version="1.0" encoding="utf-8"?>
<svg version="1.1" xmlns="http://www.w3.org/2000/svg" xmlns:xlink="http://www.w3.org/1999/xlink" x="0px" y="0px" viewBox="0 0 64 64" style="enable-background:new 0 0 64 64;" xml:space="preserve">
<style type="text/css">
	.st0{fill:#FFFFFF;}
</style>
<g id="tap2">
	<path class="st0" d="M43,25H21c-2.3,0-4,1.7-4,4s1.7,4,4,4h22c2.3,0,4-1.7,4-4C47,26.8,45.3,25,43,25z M21,32c-1.65,0-3-1.35-3-3c0-1.65,1.35-3,3-3s3,1.35,3,3C24,30.65,22.65,32,21,32z M38,31c0,0.55-0.45,1-1,1H27c-0.55,0-1-0.45-1-1v-4c0-0.55,0.45-1,1-1h10c0.55,0,1,0.45,1,1V31z M43,32c-1.65,0-3-1.35-3-3c0-1.65,1.35-3,3-3s3,1.35,3,3C46,30.65,44.65,32,43,32z"/>
	<path class="st0" d="M57,15H7c-1.11,0-2,0.89-2,2v30c0,1.11,0.89,2,2,2h6l1-5c0,0,0-2,2-2h32c2,0,2,2,2,2l1,5h6c1.11,0,2-0.89,2-2V17C59,15.89,58.11,15,57,15z M6.51,48C6.23,48,6,47.77,6,47.49s0.23-0.51,0.51-0.51s0.51,0.23,0.51,0.51C7.01,47.77,6.77,48,6.51,48z M6.51,17C6.23,17,6,16.77,6,16.49C6,16.23,6.23,16,6.51,16s0.51,0.23,0.51,0.51C7,16.77,6.77,17,6.51,17z M56,36c0,1.11-0.89,2-2,2H10c-1.11,0-2-0.89-2-2V21.5l3.6-3.5h40.8l3.6,3.4V36z M57.51,48C57.23,48,57,47.77,57,47.49s0.23-0.51,0.51-0.51s0.51,0.23,0.51,0.51C58.01,47.77,57.77,48,57.51,48z M57.51,17C57.23,17,57,16.77,57,16.49s0.23-0.51,0.51-0.51s0.51,0.23,0.51,0.51C58,16.77,57.77,17,57.51,17z"/>
	<path class="st0" d="M51.9,19h-40L9,21.8V36c0,0.55,0.45,1,1,1h44c0.55,0,1-0.45,1-1V21.8L51.9,19z M43,34H21c-2.76,0-5-2.24-5-5v0c0-2.76,2.24-5,5-5h22c2.76,0,5,2.24,5,5v0C48,31.76,45.76,34,43,34z"/>
	<path class="st0" d="M49,44c0,0,0-1-1-1H16c-1,0-1,1-1,1l-1,5h36L49,44z M19,48c-0.55,0-1-0.45-1-1s0.45-1,1-1s1,0.45,1,1S19.55,48,19,48z M24,47c-0.55,0-1-0.45-1-1s0.45-1,1-1s1,0.45,1,1S24.55,47,24,47z M32,46c-0.55,0-1-0.45-1-1s0.45-1,1-1s1,0.45,1,1S32.55,46,32,46z M40,47c-0.55,0-1-0.45-1-1s0.45-1,1-1s1,0.45,1,1S40.55,47,40,47z M45,48c-0.55,0-1-0.45-1-1s0.45-1,1-1s1,0.45,1,1S45.55,48,45,48z"/>
</g>
</svg>