<?xml version="1.0" encoding="utf-8"?>
<svg version="1.1" xmlns="http://www.w3.org/2000/svg" xmlns:xlink="http://www.w3.org/1999/xlink" x="0px" y="0px" viewBox="0 0 64 64" style="enable-background:new 0 0 64 64;" xml:space="preserve">
<style type="text/css">
	.st0{fill:#FFFFFF;}
</style>
<g>
	<rect x="20.33" y="13.41" class="st0" width="1.49" height="8.97"/>
	<rect x="18.31" y="13.41" class="st0" width="1.49" height="8.97"/>
	<rect x="22.35" y="13.41" class="st0" width="1.49" height="8.97"/>
	<rect x="14.26" y="13.41" class="st0" width="1.49" height="8.97"/>
	<rect x="12.24" y="13.41" class="st0" width="1.49" height="8.97"/>
	<rect x="10.21" y="13.41" class="st0" width="1.49" height="8.97"/>
	<rect x="24.38" y="13.41" class="st0" width="1.49" height="8.97"/>
	<rect x="16.28" y="13.41" class="st0" width="1.49" height="8.97"/>
	<rect x="32.47" y="13.41" class="st0" width="1.49" height="8.97"/>
	<rect x="36.51" y="13.41" class="st0" width="1.49" height="8.97"/>
	<rect x="38.54" y="13.41" class="st0" width="1.49" height="8.97"/>
	<rect x="26.4" y="13.41" class="st0" width="1.49" height="8.97"/>
	<rect x="34.49" y="13.41" class="st0" width="1.49" height="8.97"/>
	<rect x="28.42" y="13.41" class="st0" width="1.49" height="8.97"/>
	<rect x="30.45" y="13.41" class="st0" width="1.49" height="8.97"/>
	<path class="st0" d="M40.56,13.41v8.97H62v-8.97H40.56z M60.28,19.48c0,0.51-0.41,0.91-0.91,0.91H43.2c-0.51,0-0.91-0.41-0.91-0.91v-3.17c0-0.51,0.41-0.91,0.91-0.91h16.17c0.51,0,0.91,0.41,0.91,0.91V19.48z"/>
	<path class="st0" d="M9.68,13.41H2v8.97h7.68V13.41z M8.1,20.37c0,0.37-0.3,0.66-0.66,0.66h-3.2c-0.37,0-0.66-0.3-0.66-0.66v-4.95c0-0.37,0.3-0.66,0.66-0.66h3.2c0.37,0,0.66,0.3,0.66,0.66V20.37z"/>
	<circle class="st0" cx="5.87" cy="16.28" r="0.5"/>
	<path class="st0" d="M4.67,18.48c-0.1,0.58-0.1,0.87,0,1.46c0.74,0.08,1.12,0.08,1.86,0l0.56-0.15v-1.21l-0.56-0.09C5.78,18.4,5.41,18.4,4.67,18.48z"/>
	<path class="st0" d="M4.17,47.93h55.66c0.16,0,0.29-0.13,0.29-0.29V26.35c0-0.16-0.13-0.29-0.29-0.29H4.17c-0.16,0-0.29,0.13-0.29,0.29v21.29C3.88,47.79,4.01,47.93,4.17,47.93z M14.09,41.9c0,0.28-0.23,0.51-0.51,0.51H12.2c-0.28,0-0.51-0.23-0.51-0.51v-1.28c0-0.28,0.23-0.51,0.51-0.51h1.38c0.28,0,0.51,0.23,0.51,0.51V41.9z M10.56,38.42c-0.28,0-0.51-0.23-0.51-0.51v-1.28c0-0.28,0.23-0.51,0.51-0.51h1.38c0.28,0,0.51,0.23,0.51,0.51v1.28c0,0.28-0.23,0.51-0.51,0.51H10.56z M37.14,33.91c0,0.28-0.23,0.51-0.51,0.51h-1.38c-0.28,0-0.51-0.23-0.51-0.51v-1.28c0-0.28,0.23-0.51,0.51-0.51h1.38c0.28,0,0.51,0.23,0.51,0.51V33.91z M38.27,36.11c0.28,0,0.51,0.23,0.51,0.51v1.28c0,0.28-0.23,0.51-0.51,0.51H36.9c-0.28,0-0.51-0.23-0.51-0.51v-1.28c0-0.28,0.23-0.51,0.51-0.51H38.27z M34.98,36.11c0.28,0,0.51,0.23,0.51,0.51v1.28
		c0,0.28-0.23,0.51-0.51,0.51H33.6c-0.28,0-0.51-0.23-0.51-0.51v-1.28c0-0.28,0.23-0.51,0.51-0.51H34.98z M33.33,40.1c0.28,0,0.51,0.23,0.51,0.51v1.28c0,0.28-0.23,0.51-0.51,0.51h-1.38c-0.28,0-0.51-0.23-0.51-0.51v-1.28c0-0.28,0.23-0.51,0.51-0.51H33.33z M32.2,37.91c0,0.28-0.23,0.51-0.51,0.51h-1.38c-0.28,0-0.51-0.23-0.51-0.51v-1.28c0-0.28,0.23-0.51,0.51-0.51h1.38c0.28,0,0.51,0.23,0.51,0.51V37.91z M30.04,40.1c0.28,0,0.51,0.23,0.51,0.51v1.28c0,0.28-0.23,0.51-0.51,0.51h-1.38c-0.28,0-0.51-0.23-0.51-0.51v-1.28c0-0.28,0.23-0.51,0.51-0.51H30.04z M28.91,37.91c0,0.28-0.23,0.51-0.51,0.51h-1.38c-0.28,0-0.51-0.23-0.51-0.51v-1.28c0-0.28,0.23-0.51,0.51-0.51h1.38c0.28,0,0.51,0.23,0.51,0.51V37.91z M27.26,40.61v1.28c0,0.28-0.23,0.51-0.51,0.51h-1.38c-0.28,0-0.51-0.23-0.51-0.51v-1.28c0-0.28,0.23-0.51,0.51-0.51h1.38C27.03,40.1,27.26,40.33,27.26,40.61z M27.26,33.91c0,0.28-0.23,0.51-0.51,0.51h-1.38c-0.28,0-0.51-0.23-0.51-0.51v-1.28c0-0.28,0.23-0.51,0.51-0.51h1.38c0.28,0,0.51,0.23,0.51,0.51V33.91z M25.1,36.11c0.28,0,0.51,0.23,0.51,0.51v1.28c0,0.28-0.23,0.51-0.51,0.51h-1.38c-0.28,0-0.51-0.23-0.51-0.51v-1.28c0-0.28,0.23-0.51,0.51-0.51H25.1z M23.46,40.1c0.28,0,0.51,0.23,0.51,0.51v1.28c0,0.28-0.23,0.51-0.51,0.51h-1.38c-0.28,0-0.51-0.23-0.51-0.51v-1.28c0-0.28,0.23-0.51,0.51-0.51H23.46z M22.32,37.91c0,0.28-0.23,0.51-0.51,0.51h-1.38c-0.28,0-0.51-0.23-0.51-0.51v-1.28c0-0.28,0.23-0.51,0.51-0.51h1.38c0.28,0,0.51,0.23,0.51,0.51V37.91z M20.16,40.1c0.28,0,0.51,0.23,0.51,0.51v1.28c0,0.28-0.23,0.51-0.51,0.51h-1.38c-0.28,0-0.51-0.23-0.51-0.51v-1.28c0-0.28,0.23-0.51,0.51-0.51H20.16z M19.03,37.91c0,0.28-0.23,0.51-0.51,0.51h-1.38c-0.28,0-0.51-0.23-0.51-0.51v-1.28c0-0.28,0.23-0.51,0.51-0.51h1.38c0.28,0,0.51,0.23,0.51,0.51V37.91z M17.38,33.91c0,0.28-0.23,0.51-0.51,0.51H15.5c-0.28,0-0.51-0.23-0.51-0.51v-1.28c0-0.28,0.23-0.51,0.51-0.51h1.38c0.28,0,0.51,0.23,0.51,0.51V33.91z M15.22,36.11c0.28,0,0.51,0.23,0.51,0.51v1.28c0,0.28-0.23,0.51-0.51,0.51h-1.38c-0.28,0-0.51-0.23-0.51-0.51v-1.28c0-0.28,0.23-0.51,0.51-0.51H15.22z M17.38,45.94c0,0.28-0.23,0.51-0.51,0.51H15.5c-0.28,0-0.51-0.23-0.51-0.51v-1.28c0-0.28,0.23-0.51,0.51-0.51h1.38c0.28,0,0.51,0.23,0.51,0.51V45.94z M17.38,41.9c0,0.28-0.23,0.51-0.51,0.51H15.5c-0.28,0-0.51-0.23-0.51-0.51v-1.28c0-0.28,0.23-0.51,0.51-0.51h1.38c0.28,0,0.51,0.23,0.51,0.51V41.9z M37.14,45.94c0,0.28-0.23,0.51-0.51,0.51H18.79c-0.28,0-0.51-0.23-0.51-0.51v-1.28c0-0.28,0.23-0.51,0.51-0.51h17.84c0.28,0,0.51,0.23,0.51,0.51V45.94z M37.14,41.9c0,0.28-0.23,0.51-0.51,0.51h-1.38c-0.28,0-0.51-0.23-0.51-0.51v-1.28c0-0.28,0.23-0.51,0.51-0.51h1.38c0.28,0,0.51,0.23,0.51,0.51V41.9z M43.72,41.9c0,0.28-0.23,0.51-0.51,0.51h-4.67c-0.28,0-0.51-0.23-0.51-0.51v-1.28c0-0.28,0.23-0.51,0.51-0.51h4.67c0.28,0,0.51,0.23,0.51,0.51V41.9z M39.67,37.91v-1.28c0-0.28,0.23-0.51,0.51-0.51h1.38c0.28,0,0.51,0.23,0.51,0.51v1.28c0,0.28-0.23,0.51-0.51,0.51h-1.38C39.91,38.42,39.67,38.19,39.67,37.91z M52.14,45.94c0,0.28-0.23,0.51-0.51,0.51h-1.38c-0.28,0-0.51-0.23-0.51-0.51v-1.28c0-0.28,0.23-0.51,0.51-0.51h1.38c0.28,0,0.51,0.23,0.51,0.51V45.94z M52.14,41.9c0,0.28-0.23,0.51-0.51,0.51h-1.38c-0.28,0-0.51-0.23-0.51-0.51v-1.28c0-0.28,0.23-0.51,0.51-0.51h1.38c0.28,0,0.51,0.23,0.51,0.51V41.9z M52.14,37.91c0,0.28-0.23,0.51-0.51,0.51h-1.38c-0.28,0-0.51-0.23-0.51-0.51v-1.28c0-0.28,0.23-0.51,0.51-0.51h1.38c0.28,0,0.51,0.23,0.51,0.51V37.91z M58.73,45.94c0,0.28-0.23,0.51-0.51,0.51h-4.67c-0.28,0-0.51-0.23-0.51-0.51v-1.28c0-0.28,0.23-0.51,0.51-0.51h4.67c0.28,0,0.51,0.23,0.51,0.51V45.94z M53.55,40.1h1.38c0.28,0,0.51,0.23,0.51,0.51v1.28c0,0.28-0.23,0.51-0.51,0.51h-1.38c-0.28,0-0.51-0.23-0.51-0.51v-1.28C53.03,40.33,53.26,40.1,53.55,40.1z M53.03,37.91v-1.28c0-0.28,0.23-0.51,0.51-0.51h1.38c0.28,0,0.51,0.23,0.51,0.51v1.28c0,0.28-0.23,0.51-0.51,0.51h-1.38C53.26,38.42,53.03,38.19,53.03,37.91z M58.73,41.9c0,0.28-0.23,0.51-0.51,0.51h-1.38c-0.28,0-0.51-0.23-0.51-0.51v-1.28c0-0.28,0.23-0.51,0.51-0.51h1.38c0.28,0,0.51,0.23,0.51,0.51V41.9z M58.73,37.91c0,0.28-0.23,0.51-0.51,0.51h-1.38c-0.28,0-0.51-0.23-0.51-0.51v-1.28c0-0.28,0.23-0.51,0.51-0.51h1.38c0.28,0,0.51,0.23,0.51,0.51V37.91z M58.73,33.91c0,0.28-0.23,0.51-0.51,0.51h-1.38c-0.28,0-0.51-0.23-0.51-0.51v-1.28c0-0.28,0.23-0.51,0.51-0.51h1.38c0.28,0,0.51,0.23,0.51,0.51V33.91z M56.31,27.71c0-0.28,0.23-0.51,0.51-0.51h1.38c0.28,0,0.51,0.23,0.51,0.51v1.28c0,0.28-0.23,0.51-0.51,0.51h-1.38c-0.28,0-0.51-0.23-0.51-0.51V27.71z M55.43,33.91c0,0.28-0.23,0.51-0.51,0.51h-1.38c-0.28,0-0.51-0.23-0.51-0.51v-1.28c0-0.28,0.23-0.51,0.51-0.51h1.38c0.28,0,0.51,0.23,0.51,0.51V33.91z M53.02,27.71c0-0.28,0.23-0.51,0.51-0.51h1.38c0.28,0,0.51,0.23,0.51,0.51v1.28c0,0.28-0.23,0.51-0.51,0.51h-1.38c-0.28,0-0.51-0.23-0.51-0.51V27.71z M52.14,33.91c0,0.28-0.23,0.51-0.51,0.51h-1.38c-0.28,0-0.51-0.23-0.51-0.51v-1.28c0-0.28,0.23-0.51,0.51-0.51h1.38c0.28,0,0.51,0.23,0.51,0.51V33.91z M49.73,27.71c0-0.28,0.23-0.51,0.51-0.51h1.38c0.28,0,0.51,0.23,0.51,0.51v1.28c0,0.28-0.23,0.51-0.51,0.51h-1.38c-0.28,0-0.51-0.23-0.51-0.51V27.71z M44.09,27.71c0-0.28,0.23-0.51,0.51-0.51h2.58c0.28,0,0.51,0.23,0.51,0.51v1.28c0,0.28-0.23,0.51-0.51,0.51h-2.58c-0.28,0-0.51-0.23-0.51-0.51V27.71z M39.1,27.71c0-0.28,0.23-0.51,0.51-0.51h2.58c0.28,0,0.51,0.23,0.51,0.51v1.28c0,0.28-0.23,0.51-0.51,0.51h-2.58c-0.28,0-0.51-0.23-0.51-0.51V27.71z M38.03,32.63c0-0.28,0.23-0.51,0.51-0.51h4.67c0.28,0,0.51,0.23,0.51,0.51v1.28c0,0.28-0.23,0.51-0.51,0.51h-4.67c-0.28,0-0.51-0.23-0.51-0.51V32.63z M34.11,27.71c0-0.28,0.23-0.51,0.51-0.51h2.58c0.28,0,0.51,0.23,0.51,0.51v1.28c0,0.28-0.23,0.51-0.51,0.51h-2.58c-0.28,0-0.51-0.23-0.51-0.51V27.71z M33.85,32.63v1.28c0,0.28-0.23,0.51-0.51,0.51h-1.38c-0.28,0-0.51-0.23-0.51-0.51v-1.28c0-0.28,0.23-0.51,0.51-0.51h1.38C33.61,32.12,33.85,32.35,33.85,32.63z M29.12,27.71c0-0.28,0.23-0.51,0.51-0.51h2.58c0.28,0,0.51,0.23,0.51,0.51v1.28c0,0.28-0.23,0.51-0.51,0.51h-2.58c-0.28,0-0.51-0.23-0.51-0.51V27.71z M28.15,32.63c0-0.28,0.23-0.51,0.51-0.51h1.38c0.28,0,0.51,0.23,0.51,0.51v1.28c0,0.28-0.23,0.51-0.51,0.51h-1.38c-0.28,0-0.51-0.23-0.51-0.51V32.63z M24.13,27.71c0-0.28,0.23-0.51,0.51-0.51h2.58c0.28,0,0.51,0.23,0.51,0.51v1.28c0,0.28-0.23,0.51-0.51,0.51h-2.58c-0.28,0-0.51-0.23-0.51-0.51V27.71z M23.97,32.63v1.28c0,0.28-0.23,0.51-0.51,0.51h-1.38c-0.28,0-0.51-0.23-0.51-0.51v-1.28c0-0.28,0.23-0.51,0.51-0.51h1.38C23.74,32.12,23.97,32.35,23.97,32.63z M19.14,27.71c0-0.28,0.23-0.51,0.51-0.51h2.58c0.28,0,0.51,0.23,0.51,0.51v1.28c0,0.28-0.23,0.51-0.51,0.51h-2.58c-0.28,0-0.51-0.23-0.51-0.51V27.71z M18.27,32.63c0-0.28,0.23-0.51,0.51-0.51h1.38c0.28,0,0.51,0.23,0.51,0.51v1.28c0,0.28-0.23,0.51-0.51,0.51h-1.38c-0.28,0-0.51-0.23-0.51-0.51V32.63z M14.15,27.71c0-0.28,0.23-0.51,0.51-0.51h2.58c0.28,0,0.51,0.23,0.51,0.51v1.28c0,0.28-0.23,0.51-0.51,0.51h-2.58c-0.28,0-0.51-0.23-0.51-0.51V27.71z M11.69,32.63c0-0.28,0.23-0.51,0.51-0.51h1.38c0.28,0,0.51,0.23,0.51,0.51v1.28c0,0.28-0.23,0.51-0.51,0.51H12.2c-0.28,0-0.51-0.23-0.51-0.51V32.63z M8.73,27.71c0-0.28,0.23-0.51,0.51-0.51h1.38c0.28,0,0.51,0.23,0.51,0.51v1.28c0,0.28-0.23,0.51-0.51,0.51H9.24c-0.28,0-0.51-0.23-0.51-0.51V27.71z M8.4,32.63c0-0.28,0.23-0.51,0.51-0.51h1.38c0.28,0,0.51,0.23,0.51,0.51v1.28c0,0.28-0.23,0.51-0.51,0.51H8.91c-0.28,0-0.51-0.23-0.51-0.51V32.63z M9.15,36.62v1.28c0,0.28-0.23,0.51-0.51,0.51H7.26c-0.28,0-0.51-0.23-0.51-0.51v-1.28c0-0.28,0.23-0.51,0.51-0.51h1.38C8.92,36.11,9.15,36.34,9.15,36.62z M5.44,27.71c0-0.28,0.23-0.51,0.51-0.51h1.38c0.28,0,0.51,0.23,0.51,0.51v1.28c0,0.28-0.23,0.51-0.51,0.51H5.95c-0.28,0-0.51-0.23-0.51-0.51V27.71z M5.11,40.61c0-0.28,0.23-0.51,0.51-0.51h4.67c0.28,0,0.51,0.23,0.51,0.51v1.28c0,0.28-0.23,0.51-0.51,0.51H5.62c-0.28,0-0.51-0.23-0.51-0.51V40.61z"/>
	<path class="st0" d="M2,50.59h60V23.92H2V50.59z M3.12,26.35c0-0.58,0.47-1.04,1.04-1.04h55.66c0.58,0,1.04,0.47,1.04,1.04v21.29c0,0.58-0.47,1.04-1.04,1.04H4.17c-0.58,0-1.04-0.47-1.04-1.04V26.35z"/>
</g>
</svg>