<?xml version="1.0" encoding="utf-8"?>
<!-- Generator: Adobe Illustrator 26.3.1, SVG Export Plug-In . SVG Version: 6.00 Build 0)  -->
<svg version="1.1"
	 id="svg2" xmlns:svg="http://www.w3.org/2000/svg" xmlns:sodipodi="http://sodipodi.sourceforge.net/DTD/sodipodi-0.dtd" xmlns:dc="http://purl.org/dc/elements/1.1/" xmlns:cc="http://creativecommons.org/ns#" xmlns:inkscape="http://www.inkscape.org/namespaces/inkscape" xmlns:rdf="http://www.w3.org/1999/02/22-rdf-syntax-ns#"
	 xmlns="http://www.w3.org/2000/svg" xmlns:xlink="http://www.w3.org/1999/xlink" x="0px" y="0px" viewBox="0 0 64 64"
	 style="enable-background:new 0 0 64 64;" xml:space="preserve">
<path id="path753" style="fill:#FFFFFF;" d="M50,53.3L50,53.3c0,0.5-0.2,0.9-0.5,1.3l-4.2,5.1c-0.2,0.2-0.5,0.4-0.8,0.4H13
	c0,0.6,0.4,1,1,1h31.5c0.3,0,0.6-0.1,0.8-0.4l4.2-5.1c0.3-0.4,0.5-0.8,0.5-1.3V54v-1h-0.7C50.1,53,50,53.1,50,53.3z"/>
<path style="fill:#FFFFFF;" d="M50.5,6h0.2C50.9,6,51,5.9,51,5.8V4c0-0.6-0.4-1-1-1h-4c-0.9,0.6-2.4,1-4,1s-3.1-0.4-4-1H14
	c-0.6,0-1,0.4-1,1v1.8C13,5.9,13.1,6,13.2,6h0.2C13.8,6,14,6.2,14,6.5v1C14,7.8,13.8,8,13.5,8h-0.2C13.1,8,13,8.1,13,8.2v1.5
	c0,0.1,0.1,0.2,0.2,0.2h0.2c0.3,0,0.5,0.2,0.5,0.5v1c0,0.3-0.2,0.5-0.5,0.5h-0.2c-0.1,0-0.2,0.1-0.2,0.2V59h30.5
	c0.3,0,0.6-0.1,0.8-0.4l4.2-5.1c0.3-0.4,0.5-0.8,0.5-1.3c0-0.2,0.1-0.3,0.3-0.3H50h1V12.2c0-0.1-0.1-0.2-0.2-0.2h-0.2
	c-0.3,0-0.5-0.2-0.5-0.5v-1c0-0.3,0.2-0.5,0.5-0.5h0.2c0.1,0,0.2-0.1,0.2-0.2V8.2C51,8.1,50.9,8,50.8,8h-0.2C50.2,8,50,7.8,50,7.5
	v-1C50,6.2,50.2,6,50.5,6z M27.8,12l4.2,8.4h-8.4L27.8,12z M23.6,30.1v-1.5l2.6-2.6l-2.6-2.6v-1.5h1.5l2.6,2.6l2.6-2.6H32v1.5
	L29.4,26l2.6,2.6v1.5h-1.5l-2.6-2.6l-2.6,2.6H23.6z M37.9,51.5c0,0.35-0.31,0.5-0.61,0.5H26.4c-0.3,0-0.6-0.2-0.6-0.5v-6.8
	c0-0.3,0.3-0.6,0.6-0.6h0.7V41c0-2.6,2.2-4.9,4.9-4.9c2.8,0,4.9,2.2,4.9,4.9v0.6h-2V41c0-1.7-1.4-3.1-3.1-3.1s-3.1,1.4-3.1,3.1v3.2
	h8.6c0.3,0,0.6,0.3,0.6,0.6V51.5z M36.2,30.1L32,25.9l4.2-4.2l4.2,4.2L36.2,30.1z M36.2,20.4c-2.4,0-4.2-1.8-4.2-4.2
	c0-2.4,1.8-4.2,4.2-4.2c2.4,0,4.2,1.8,4.2,4.2C40.4,18.6,38.6,20.4,36.2,20.4z"/>
</svg>
