<svg xmlns="http://www.w3.org/2000/svg" xml:space="preserve" id="svg2" x="0" y="0" version="1.1" viewBox="0 0 64 64"><style id="style751" type="text/css">.st0{fill:#fff}</style><path id="path753" d="M50 53.3c0 .5-.2.9-.5 1.3l-4.2 5.1c-.2.2-.5.4-.8.4H13c0 .6.4 1 1 1h31.5c.3 0 .6-.1.8-.4l4.2-5.1c.3-.4.5-.8.5-1.3V53h-.7q-.3 0-.3.3" class="st0"/><g id="g763"><circle id="circle755" cx="17.5" cy="35.5" r="1.5" class="st0"/><circle id="circle757" cx="44.5" cy="40.5" r="2.5" class="st0"/><circle id="circle759" cx="19.5" cy="40.5" r="2.5" class="st0"/><path id="path761" d="M50.5 6h.2c.2 0 .3-.1.3-.2V4c0-.6-.4-1-1-1h-4c-.9.6-2.4 1-4 1s-3.1-.4-4-1H14c-.6 0-1 .4-1 1v1.8c0 .1.1.2.2.2h.2c.4 0 .6.2.6.5v1c0 .3-.2.5-.5.5h-.2c-.2 0-.3.1-.3.2v1.5c0 .1.1.2.2.2h.2c.3 0 .5.2.5.5v1c0 .3-.2.5-.5.5h-.2c-.1 0-.2.1-.2.2V59h30.5c.3 0 .6-.1.8-.4l4.2-5.1c.3-.4.5-.8.5-1.3q0-.3.3-.3H51V12.2c0-.1-.1-.2-.2-.2h-.2c-.3 0-.5-.2-.5-.5v-1c0-.3.2-.5.5-.5h.2c.1 0 .2-.1.2-.2V8.2c0-.1-.1-.2-.2-.2h-.2c-.4 0-.6-.2-.6-.5v-1c0-.3.2-.5.5-.5M24 23.1c-2.5 2.2-4 5.4-4 8.9s1.5 6.7 4 8.9V45h-9V19h9zM39 44H25v-2.3c2 1.4 4.4 2.3 7 2.3s5-.8 7-2.3zm0-21.7c-2-1.4-4.4-2.3-7-2.3s-5 .8-7 2.3V20h14zM49 45h-9v-4.1c2.5-2.2 4-5.4 4-8.9s-1.5-6.7-4-8.9V19h9z" class="st0"/></g></svg>