<?xml version="1.0" encoding="utf-8"?>
<!-- Generator: Adobe Illustrator 26.3.1, SVG Export Plug-In . SVG Version: 6.00 Build 0)  -->
<svg version="1.1"
	 id="svg5205" xmlns:sodipodi="http://sodipodi.sourceforge.net/DTD/sodipodi-0.dtd" xmlns:inkscape="http://www.inkscape.org/namespaces/inkscape" xmlns:rdf="http://www.w3.org/1999/02/22-rdf-syntax-ns#" inkscape:export-ydpi="360" xmlns:cc="http://creativecommons.org/ns#" xmlns:dc="http://purl.org/dc/elements/1.1/" xmlns:svg="http://www.w3.org/2000/svg" inkscape:export-filename="/Users/margetts/Desktop/Icon Workshop/Monochrome Plus June/png/Sony - PlayStation Vita-content.png"
	 xmlns="http://www.w3.org/2000/svg" xmlns:xlink="http://www.w3.org/1999/xlink" x="0px" y="0px" viewBox="0 0 64 64"
	 style="enable-background:new 0 0 64 64;" xml:space="preserve">
<sodipodi:namedview  bordercolor="#666666" borderopacity="1" gridtolerance="10" guidetolerance="10" id="namedview5207" inkscape:current-layer="g5213" inkscape:cx="6.9736842" inkscape:cy="40" inkscape:pageopacity="0" inkscape:pageshadow="2" inkscape:window-height="1005" inkscape:window-maximized="1" inkscape:window-width="1676" inkscape:window-x="4" inkscape:window-y="1" inkscape:zoom="3.8" objecttolerance="10" pagecolor="#808080" showgrid="false">
	</sodipodi:namedview>
<g id="g5213" transform="matrix(1.25,0,0,-1.25,0,64)" inkscape:label="Sony - PlayStation Vita-content" inkscape:groupmode="layer">
	<g id="g5215" transform="scale(0.8,0.8)">
		<g>
			<g id="g5217">
				<g id="g5223" transform="translate(32.5,53)">
					<path id="path5225" inkscape:connector-curvature="0" style="fill:#FFFFFF;" d="M0-0.72c7.21,0,12.01-1.32,12.75-2.07V-6.5
						v-0.1v-31.06h-25.5V-6.6v0.1v3.71C-12.01-2.04-7.21-0.72,0-0.72"/>
				</g>
				<g id="g5227" transform="translate(47,47)">
					<path id="path5229" inkscape:connector-curvature="0" style="fill:#FFFFFF;" d="M0,0v-0.1v-33.28h-29V-0.1V0v4
						c0,1.47,6.49,3,14.5,3S0,5.47,0,4V0z M-11-36.54l-3.5-3l-3.5,3V-35l3.5-3l3.5,3V-36.54z M4,4v4c0,2.06-8.51,4-19,4
						s-19-1.94-19-4V4h1v-6h-1v-34l5-6H4v40H3v6H4z"/>
				</g>
			</g>
		</g>
	</g>
</g>
</svg>
