<?xml version="1.0" encoding="utf-8"?>
<svg version="1.1" xmlns="http://www.w3.org/2000/svg" xmlns:xlink="http://www.w3.org/1999/xlink" x="0px" y="0px" viewBox="0 0 64 64" style="enable-background:new 0 0 64 64;" xml:space="preserve">
<style type="text/css">
	.st0{fill:#FFFFFF;}
</style>
<g id="psn">
	<polygon class="st0" points="25.99,8.4 31.99,8.4 28.99,2.4"/>
	<rect x="32.98" y="10.26" transform="matrix(0.7071 -0.7071 0.7071 0.7071 1.5356 28.4214)" class="st0" width="4.2" height="4.2"/>
	<circle class="st0" cx="34.99" cy="5.4" r="3"/>
	<polygon class="st0" points="28.99,11.28 27.07,9.36 25.99,9.36 25.99,10.44 27.91,12.36 25.99,14.28 25.99,15.35 27.07,15.35 28.99,13.44 30.91,15.35 31.99,15.35 31.99,14.28 30.07,12.36 31.99,10.44 31.99,9.36 30.91,9.36"/>
</g>
<g id="ds4">
	<path class="st0" d="M57,28c-1.86-8.25-4-11-4-11c-0.12-0.12-0.72-0.93-1-1c-0.01-0.17-0.24-0.23-0.41-0.3C50.99,15.43,49.9,15,48,15c-2.79,0-3,1-3,1l0.03,0.01C44.93,16.05,44.25,17,44,17h-3v8c0,0.55-0.45,1-1,1H24c-0.55,0-1-0.45-1-1v-8h-3c-0.25,0-1-1-1-1s-0.03-1-2.83-1c-1.9,0-3.16,0.43-3.76,0.7c-0.17,0.07-0.4,0.14-0.41,0.3c-0.28,0.07-0.88,0.88-1,1c0,0-2.14,2.75-4,11S5,41,5,41s1.35,7,6,7c4.61,0,5.25-3.79,8-11c0,0,0.84-0.94,1-1c0.92,1.18,2.39,2,4,2c1.63,0,3.06-0.79,3.98-2h8.04c0.91,1.21,2.35,2,3.98,2c1.61,0,3.09-0.82,4-2c0.16,0.06,1,1,1,1c2.75,7.21,4.39,11,9,11c4.66,0,5-7,5-7S58.86,36.25,57,28z M14,20.27c0-0.15,0.1-0.27,0.23-0.27h2.53C16.9,20,17,20.12,17,20.27v1.95c0,0.25-0.07,0.5-0.21,0.69C16.5,23.32,15.95,24,15.5,24c-0.47,0-1.05-0.84-1.33-1.3C14.06,22.51,14,22.29,14,22.07V20.27z M13.07,26h-1.79C11.12,26,11,25.9,11,25.77v-2.53c0-0.13,0.12-0.23,0.27-0.23h1.94c0.25,0,0.5,0.07,0.69,0.21c0.42,0.28,1.1,0.83,1.1,1.28c0,0.47-0.84,1.05-1.3,1.33C13.51,25.94,13.29,26,13.07,26z M17,28.73c0,0.15-0.1,0.27-0.23,0.27h-2.53C14.1,29,14,28.88,14,28.73v-1.79c0-0.23,0.06-0.45,0.17-0.63c0.28-0.46,0.86-1.3,1.33-1.3c0.45,0,1,0.68,1.29,1.09c0.14,0.19,0.21,0.43,0.21,0.68V28.73z M19.73,26h-1.79c-0.23,0-0.45-0.06-0.63-0.17C16.84,25.55,16,24.97,16,24.5c0-0.45,0.68-1,1.09-1.29c0.19-0.14,0.44-0.21,0.69-0.21h1.94c0.15,0,0.27,0.1,0.27,0.23c0.01,0,0.01,2.54,0.01,2.54C20,25.9,19.88,26,19.73,26z M20,20.07v-1.14c0-0.51,0.42-0.93,0.93-0.93h0.14c0.51,0,0.93,0.42,0.93,0.93v1.14c0,0.51-0.42,0.93-0.93,0.93h-0.14C20.42,21,20,20.58,20,20.07z M24,36c-1.66,0-3-1.34-3-3c0-1.66,1.34-3,3-3s3,1.34,3,3C27,34.66,25.66,36,24,36z M32.5,34c-0.83,0-1.5-0.67-1.5-1.5c0-0.83,0.67-1.5,1.5-1.5s1.5,0.67,1.5,1.5C34,33.33,33.33,34,32.5,34z M49,19c1.1,0,2,0.9,2,2c0,1.1-0.9,2-2,2s-2-0.9-2-2C47,19.9,47.9,19,49,19z M42,18.93c0-0.51,0.42-0.93,0.93-0.93h0.14c0.51,0,0.93,0.42,0.93,0.93v1.14c0,0.51-0.42,0.93-0.93,0.93h-0.14C42.42,21,42,20.58,42,20.07V18.93z M40,36c-1.66,0-3-1.34-3-3c0-1.66,1.34-3,3-3s3,1.34,3,3C43,34.66,41.66,36,40,36z M45,27c-1.1,0-2-0.9-2-2c0-1.1,0.9-2,2-2s2,0.9,2,2C47,26.1,46.1,27,45,27z M49,31c-1.1,0-2-0.9-2-2c0-1.1,0.9-2,2-2s2,0.9,2,2C51,30.1,50.1,31,49,31z M53,27c-1.1,0-2-0.9-2-2c0-1.1,0.9-2,2-2s2,0.9,2,2C55,26.1,54.1,27,53,27z"/>
	<path id="path5101" class="st0" d="M39,25H25c-0.55,0-1-0.45-1-1v-7h16v7C40,24.55,39.55,25,39,25"/>
</g>
</svg>