<svg xmlns="http://www.w3.org/2000/svg" xml:space="preserve" viewBox="0 0 64 64"><path d="M50 53.3c0 .5-.2.9-.5 1.3l-4.2 5.1c-.2.2-.5.4-.8.4H13c0 .6.4 1 1 1h31.5c.3 0 .6-.1.8-.4l4.2-5.1c.3-.4.5-.8.5-1.3V53h-.7q-.3 0-.3.3" style="fill:#fff"/><path d="M50.5 6h.2c.2 0 .3-.1.3-.2V4c0-.6-.4-1-1-1h-4c-.9.6-2.4 1-4 1s-3.1-.4-4-1H14c-.6 0-1 .4-1 1v1.8c0 .1.1.2.2.2h.2c.4 0 .6.2.6.5v1c0 .3-.2.5-.5.5h-.2c-.2 0-.3.1-.3.2v1.5c0 .1.1.2.2.2h.2c.3 0 .5.2.5.5v1c0 .3-.2.5-.5.5h-.2c-.1 0-.2.1-.2.2V59h30.5c.3 0 .6-.1.8-.4l4.2-5.1c.3-.4.5-.8.5-1.3q0-.3.3-.3H51V12.2c0-.1-.1-.2-.2-.2h-.2c-.3 0-.5-.2-.5-.5v-1c0-.3.2-.5.5-.5h.2c.1 0 .2-.1.2-.2V8.2c0-.1-.1-.2-.2-.2h-.2c-.4 0-.6-.2-.6-.5v-1c0-.3.2-.5.5-.5m-22.7 6 4.2 8.4h-8.4zm-4.2 18.1v-1.5l2.6-2.6-2.6-2.6v-1.5h1.5l2.6 2.6 2.6-2.6H32v1.5L29.4 26l2.6 2.6v1.5h-1.5l-2.6-2.6-2.6 2.6zm14.3 21.4c0 .35-.31.5-.61.5H26.4c-.3 0-.6-.2-.6-.5v-6.8c0-.3.3-.6.6-.6h.7V41c0-2.6 2.2-4.9 4.9-4.9 2.8 0 4.9 2.2 4.9 4.9v.6h-2V41c0-1.7-1.4-3.1-3.1-3.1s-3.1 1.4-3.1 3.1v3.2h8.6c.3 0 .6.3.6.6zm-1.7-21.4L32 25.9l4.2-4.2 4.2 4.2zm0-9.7c-2.4 0-4.2-1.8-4.2-4.2s1.8-4.2 4.2-4.2 4.2 1.8 4.2 4.2-1.8 4.2-4.2 4.2" style="fill:#fff"/></svg>