<?xml version="1.0" encoding="utf-8"?>
<svg version="1.1" xmlns="http://www.w3.org/2000/svg" xmlns:xlink="http://www.w3.org/1999/xlink" x="0px" y="0px" viewBox="0 0 64 64" style="enable-background:new 0 0 64 64;" xml:space="preserve">
<path id="path101" style="fill:#FFFFFF;" d="M52,6h-3V3h2c0.6,0,1,0.4,1,1V6z"/>
<path id="path103" style="fill:#FFFFFF;" d="M12,6h3V3h-2c-0.6,0-1,0.4-1,1V6z"/>
<path id="path105" style="fill:#FFFFFF;" d="M36.7,7c0.2,0,0.3,0,0.5,0.1l6.5,3.7c0.2,0.1,0.3,0.1,0.5,0.1h2.3c0.3,0,0.6,0.1,0.8,0.4l3.5,4.4c0.1,0.2,0.2,0.4,0.2,0.6v14.4c0,0.2,0,0.4-0.1,0.5l-2.7,4.5c-0.1,0.2-0.2,0.5-0.1,0.7c0.3,1.2,1.6,1.9,2.4,2.3c0.4,0.2,0.6,0.5,0.6,0.9v15.9c0,0.3-0.1,0.5-0.3,0.7l-3.4,3.4c-0.2,0.2-0.4,0.3-0.7,0.3H16.8c-0.4,0-0.8-0.3-0.9-0.7c-0.4-1-1.6-1.7-2.3-2.1c-0.4-0.2-0.6-0.5-0.6-0.9V39.7c0-0.4,0.3-0.8,0.7-0.9c2.8-1,1.6-3.3,1.4-3.7C15,35,15,35,15,34.9l-1.9-5.7c0-0.1-0.1-0.2-0.1-0.3V11.4c0-0.3,0.1-0.5,0.3-0.7l3.4-3.4C16.9,7.1,17.1,7,17.4,7H12v53c0,0.5,0.4,1,1,1h38c0.5,0,1-0.4,1-1V7H36.7z M14,36c0.6,0,1,0.4,1,1s-0.4,1-1,1s-1-0.4-1-1S13.4,36,14,36z M14,60c-0.6,0-1-0.4-1-1s0.4-1,1-1s1,0.4,1,1S14.6,60,14,60z M50,60c-0.6,0-1-0.4-1-1s0.4-1,1-1s1,0.4,1,1S50.6,60,50,60z M50,37c-0.6,0-1-0.4-1-1s0.4-1,1-1s1,0.4,1,1S50.6,37,50,37z M50,10c-0.6,0-1-0.4-1-1s0.4-1,1-1s1,0.4,1,1S50.6,10,50,10z"/>
<polygon id="polygon109" style="fill:#FFFFFF;" points="47,3 16,3 16,6 47,6 48,6 48,3"/>
<path style="fill:#FFFFFF;" d="M46.5,16.7l-10.3-6.5C36,10.1,35.9,10,35.7,10H17c-0.6,0-1,0.4-1,1v38.8c0,0.2,0,0.3,0.1,0.4l0.8,1.6c0.1,0.1,0.1,0.3,0.1,0.4V56c0,0.6,0.4,1,1,1h28c0.6,0,1-0.4,1-1V17.5C47,17.2,46.8,16.9,46.5,16.7z M27.25,24.92l4.75,9.5h-9.5L27.25,24.92z M32,45.4h-1.7l-2.94-2.94l-2.94,2.94H22.5v-1.7l2.94-2.94l-2.94-2.94v-1.7h1.7l2.94,2.94l2.94-2.94H32v1.7l-2.94,2.94L32,43.7V45.4z M36.75,45.4L32,40.65l4.75-4.75l4.75,4.75L36.75,45.4z M36.75,34.42c-2.71,0-4.75-2.04-4.75-4.75s2.04-4.75,4.75-4.75s4.75,2.04,4.75,4.75S39.46,34.42,36.75,34.42z"/>
</svg>