<svg xmlns="http://www.w3.org/2000/svg" xml:space="preserve" viewBox="0 0 64 64"><path d="M0 0c0-1.66-1.34-3-3-3s-3 1.34-3 3 1.34 3 3 3 3-1.34 3-3" style="fill:#fff" transform="matrix(1 0 0 -1 35 23)"/><path d="M0 0c-1.1 0-2 .9-2 2s.9 2 2 2 2-.9 2-2-.9-2-2-2m-4.5 4.5c-1.1 0-2 .9-2 2s.9 2 2 2 2-.9 2-2-.9-2-2-2m0-9c-1.1 0-2 .9-2 2s.9 2 2 2 2-.9 2-2-.9-2-2-2M-9 0c-1.1 0-2 .9-2 2s.9 2 2 2 2-.9 2-2-.9-2-2-2m-4-12c-2.21 0-4 1.79-4 4s1.79 4 4 4 4-1.79 4-4-1.79-4-4-4m-8 10c-1.93 0-3.5 1.57-3.5 3.5S-22.93 5-21 5s3.5-1.57 3.5-3.5S-19.07-2-21-2m-5.5-4.5c-1.1 0-2 .9-2 2v1.79a5.52 5.52 0 0 0 3.79-3.79zm-2-6.79v1.79c0 1.1.9 2 2 2h1.79a5.52 5.52 0 0 0-3.79-3.79M-29 2c0 .83.67 1.5 1.5 1.5S-26 2.83-26 2-26.67.5-27.5.5-29 1.17-29 2m14.5 1.5c.83 0 1.5-.67 1.5-1.5S-13.67.5-14.5.5-16 1.17-16 2s.67 1.5 1.5 1.5m-17-8c0-1.1-.9-2-2-2h-1.79a5.52 5.52 0 0 0 3.79 3.79zm0-8.79a5.52 5.52 0 0 0-3.79 3.79h1.79c1.1 0 2-.9 2-2zM-38-2c-2.21 0-4 1.79-4 4s1.79 4 4 4 4-1.79 4-4-1.79-4-4-4M2 3.97c-.72 1.41-1.3 3-2 3.93-.71 4.02-6.34 3.02-8.01 2.92-.26-.01-.99-.96-.99-.96-1.51-.19-2.39-.48-3-.98-.83-.68-1.98-1.64-3-1.96-3.32-1.06-6-.98-6-.98s-2.68-.08-6 .98c-1.02.33-2.17 1.29-3 1.96-.61.5-1.49.79-3 .98 0 0-.73.95-.99.96-1.67.1-7.3 1.1-8.01-2.92-.7-.93-1.28-2.52-2-3.93-1.93-3.78-4-14.08-4-22.59 0 0 .4-13.56 11-3.93 0 0 7.32 4.55 16 4.55s16-4.55 16-4.55c10.6-9.63 11 3.93 11 3.93C6-10.11 3.93.19 2 3.97" style="fill:#fff" transform="matrix(1 0 0 -1 53 24.5)"/><path d="M33.71 12.82h-3.43l4.29-6.43h-2.14V2.1h-4.29v4.28H26l4.28 6.43h-3.21c-.43 0-.86.43-.86.86v.21c0 .43.43.86.86.86h6.64c.43 0 .86-.43.86-.86v-.2c0-.43-.43-.86-.86-.86m5.15-4.51V6.17h-2.15v2.14h-2.14v2.15h2.14v2.14h2.15v-2.14H41V8.31z" style="fill:#fff"/></svg>