<svg xmlns="http://www.w3.org/2000/svg" xml:space="preserve" width="64" height="64"><defs><clipPath id="a" clipPathUnits="userSpaceOnUse"><path d="M0 64h64V0H0z"/></clipPath></defs><g clip-path="url(#a)" transform="matrix(1 0 0 -1 0 64)"><path d="M0 0a3.5 3.5 0 1 0 0 7 3.5 3.5 0 0 0 0-7m-1.726-14.652C-3.848-17.314-6.991-19-10.5-19s-6.652 1.686-8.774 4.348c-.517.647-.088 1.652.704 1.652h16.14c.792 0 1.221-1.005.704-1.652M-22 0a3.5 3.5 0 1 0 0 7 3.5 3.5 0 0 0 0-7m7 10.5a3.5 3.5 0 1 0 0-7 3.5 3.5 0 0 0 0 7m4.5-7.5c1.155 0 2.268-.18 3.313-.511a.995.995 0 0 0 .687-.951V1a1 1 0 0 0-1-1h-6a1 1 0 0 0-1 1v.538c0 .432.275.82.687.951C-12.768 2.82-11.655 3-10.5 3m6-3a1 1 0 1 0 0 2 1 1 0 0 0 0-2m-13 1a1 1 0 1 0 2 0 1 1 0 0 0-2 0m14-3a1 1 0 0 0 1-1v-8a1 1 0 0 0-1-1h-14a1 1 0 0 0-1 1v8a1 1 0 0 0 1 1zM-7 10.5a3.5 3.5 0 1 0 0-7 3.5 3.5 0 0 0 0 7M-37.5-13a7 7 0 1 0 0 14 7 7 0 0 0 0-14m42 16.486c0 2.859-2.317 5.185-5.167 5.185-.63 0-1.246-.114-1.825-.335-.798 1.868-2.662 3.164-4.75 3.164A5.13 5.13 0 0 1-11 9.87a5.13 5.13 0 0 1-3.758 1.63c-2.088 0-3.952-1.296-4.75-3.164a5.1 5.1 0 0 1-1.825.335c-2.849 0-5.167-2.326-5.167-5.185 0-.911.244-1.762.657-2.507-.448.075-.86.3-1.141.662a12.58 12.58 0 0 1-10.564 4.844C-44.01 6.178-49.241.924-49.49-5.505c-.277-7.129 5.452-12.995 12.559-12.995 4.046 0 7.645 1.902 9.944 4.855.349.449.896.701 1.466.701h.693C-22.274-18.016-17.048-21.5-11-21.5c8.561 0 15.5 6.965 15.5 15.557 0 2.157-.438 4.211-1.229 6.078A5.17 5.17 0 0 1 4.5 3.486" style="fill:#fff;fill-opacity:1;fill-rule:nonzero;stroke:none" transform="translate(54.5 37)"/></g></svg>