<svg xmlns="http://www.w3.org/2000/svg" xml:space="preserve" viewBox="0 0 64 64"><g fill="#FFF"><path d="M22.49 24.16v13.42c0 .28.22.5.5.5h18.02c.28 0 .5-.22.5-.5V24.16c0-.28-.22-.5-.5-.5H22.99c-.27 0-.5.23-.5.5"/><path d="M51.58 21.34s-12.22-.75-19.58-.75-19.58.75-19.58.75a2.506 2.506 0 0 0-2.37 2.29c-.17 2.26-.28 5.38-.28 8.37s.11 6.11.29 8.36c.1 1.24 1.11 2.23 2.37 2.29 0 0 12.22.75 19.58.75s19.58-.75 19.58-.75a2.506 2.506 0 0 0 2.37-2.29c.18-2.25.29-5.37.29-8.36s-.11-6.11-.29-8.36a2.54 2.54 0 0 0-2.38-2.3M17.65 31.3s-.57.22-.79.44-.41.76-.41.76c-.21.58-.76 1-1.41 1s-1.2-.42-1.41-1c0 0-.19-.55-.41-.76-.22-.22-.79-.44-.79-.44-.58-.21-1-.76-1-1.41s.42-1.2 1-1.41c0 0 .57-.22.79-.44s.41-.76.41-.76c.21-.58.76-1 1.41-1s1.2.42 1.41 1c0 0 .19.55.41.76.22.22.79.44.79.44.58.21 1 .76 1 1.41s-.41 1.2-1 1.41m26.22 10.37c-3.82.16-8.39.31-11.87.31s-8.08-.15-11.9-.31V22.33c3.82-.16 8.42-.31 11.9-.31 3.47 0 8.05.15 11.87.31zm1.56-17.47a1.071 1.071 0 0 1 2.14 0 1.071 1.071 0 0 1-2.14 0m3.35 8.38c-1.6 0-2.89-1.3-2.89-2.89 0-1.6 1.3-2.89 2.89-2.89 1.6 0 2.89 1.3 2.89 2.89 0 1.6-1.3 2.89-2.89 2.89m2.35-7.31a1.071 1.071 0 0 1 0-2.14 1.071 1.071 0 0 1 0 2.14"/><path d="M61 32c0-3.63-1.71-5.94-1.71-5.94s.76-1.06.76-4.29-2.04-4.98-7.57-4.98c-2.04 0-4.59.5-6.98 1.35-4.2-.16-8.98-.29-13.5-.29s-9.31.13-13.51.29c-2.4-.85-4.94-1.35-6.98-1.35-5.53 0-7.57 2.7-7.57 5.93s.76 4.29.76 4.29S3 28.37 3 32s1.71 4.99 1.71 4.99-.76 1.2-.76 4.29 2.04 5.93 7.57 5.93c1.82 0 4.03-.41 6.18-1.1 4.37.17 9.48.32 14.3.32s9.93-.14 14.3-.32c2.15.69 4.36 1.1 6.18 1.1 5.53 0 7.57-1.9 7.57-4.98 0-3.09-.76-4.29-.76-4.29S61 35.63 61 32m-5.18 8.66c-.19 2.3-2.08 4.11-4.4 4.23-5.06.25-12.55.54-19.43.54s-14.36-.29-19.43-.54c-2.32-.11-4.21-1.93-4.4-4.23-.26-3.26-.4-6.13-.4-8.52s.13-5.26.4-8.52c.19-2.3 2.08-4.11 4.4-4.23 5.08-.25 12.57-.54 19.43-.54s14.35.29 19.43.54c2.32.11 4.21 1.93 4.4 4.23.26 3.26.4 6.13.4 8.52s-.13 5.26-.4 8.52"/></g></svg>