<?xml version="1.0" encoding="utf-8"?>
<!-- Generator: Adobe Illustrator 27.0.1, SVG Export Plug-In . SVG Version: 6.00 Build 0)  -->
<svg version="1.1" id="Layer_1" xmlns="http://www.w3.org/2000/svg" xmlns:xlink="http://www.w3.org/1999/xlink" x="0px" y="0px"
	 viewBox="0 0 64 64" style="enable-background:new 0 0 64 64;" xml:space="preserve">
<style type="text/css">
	.st0{fill:#FFFFFF;}
</style>
<g>
	<path class="st0" d="M51.8,8.1C49.1,7.8,42,7.3,32,7.3S14.9,7.8,12.2,8.1C11.5,8.2,11,8.7,11,9.4v39.5c0,0.8,0.6,1.4,1.4,1.4H13
		v5.2c0,0.7,0.5,1.2,1.2,1.2h35.5c0.7,0,1.2-0.5,1.2-1.2v-5.2h0.6c0.8,0,1.4-0.6,1.4-1.4V9.4C53,8.7,52.5,8.2,51.8,8.1z M15.4,55.4
		h-1v-5h1V55.4z M17.5,55.4h-1v-5h1V55.4z M19.5,55.4h-1v-5h1V55.4z M21.5,55.4h-1v-5h1V55.4z M23.5,55.4h-1v-5h1V55.4z M25.5,55.4
		h-1v-5h1V55.4z M27.5,55.4h-1v-5h1V55.4z M29.5,55.4h-1v-5h1V55.4z M31.5,55.4h-1v-5h1V55.4z M33.5,55.4h-1v-5h1V55.4z M35.5,55.4
		h-1v-5h1V55.4z M37.5,55.4h-1v-5h1V55.4z M39.5,55.4h-1v-5h1V55.4z M41.5,55.4h-1v-5h1V55.4z M43.5,55.4h-1v-5h1V55.4z M45.5,55.4
		h-1v-5h1V55.4z M47.5,55.4h-1v-5h1V55.4z M47.1,47.9H16.9c-1,0-1.9-0.8-1.9-1.8V16.5c0-0.9,0.7-1.7,1.7-1.8
		c2.4-0.2,7.5-0.3,15.3-0.3s12.8,0.1,15.3,0.3c1,0.1,1.7,0.9,1.7,1.8v29.6C49,47.1,48.1,47.9,47.1,47.9z M49.5,55.4h-1v-5h1V55.4z"
		/>
	<path class="st0" d="M17,16.6v29.3h30V16.6c-2.2-0.2-6.7-0.3-15-0.3C23.7,16.4,19.2,16.4,17,16.6z"/>
</g>
</svg>
