<svg xmlns="http://www.w3.org/2000/svg" xml:space="preserve" viewBox="0 0 64 64"><path d="M58.32 40.39c-.33-8.21-.79-22.34-.79-22.34 0-3.14-2.82-5.68-6.3-5.68-2.51.13-4.26.6-5.67 2.75-.73 1.06-1.23 2.32-1.35 3.5l.86 11.65H18.92l.86-11.65c-.36-1.35-.82-2.46-1.42-3.4-1.76-2.1-3.19-2.99-5.8-3.02-3.41 0-6.18 2.54-6.18 5.68 0 0-.53 14.32-.96 22.6 0 .01.01.02.01.02-.01.1-.01.2-.02.3 0 2.98 1.37 5.45 4.61 5.66v1.44c0 .55.71 1.05 1.59 1h2.95l-.53 1.81h5l.53-1.81h24.92l.52 1.83h5l-.54-1.83h2.94c.88 0 1.59-.45 1.59-1v-1.43c3.26-.25 4.35-2.71 4.35-5.65 0-.15-.01-.29-.02-.43m-39.5-9.12h26.34l.58 5.73c.05.55-.45.93-1 1 0 0-4.71 1.65-12.2 1.65-8.55 0-13.3-1.65-13.3-1.65-.55-.07-1.05-.45-1-1zM9.55 43.02a.501.501 0 0 1-.04-1h.04c.28 0 .5.22.5.5s-.22.5-.5.5m1.97-23.52c-1.93 0-3.5-.45-3.5-1s1.57-1 3.5-1 3.5.45 3.5 1-1.57 1-3.5 1m14 28.53c-.28 0-.5-.22-.5-.5s.22-.5.5-.5.5.22.5.5-.22.5-.5.5m12.99.02c-.28 0-.5-.22-.5-.5s.22-.5.5-.5.5.22.5.5-.23.5-.5.5M52 46.36c0 .01-.64.02-1.43.02H13.43c-.79 0-1.43-.01-1.43-.02v-.62c0-.01.64-.02 1.43-.02h37.14c.79 0 1.43.01 1.43.02zm2.51-3.43c-.28 0-.5-.22-.5-.5s.22-.5.5-.5.5.22.5.5-.22.5-.5.5M52.53 19.5c-1.93 0-3.5-.45-3.5-1s1.57-1 3.5-1 3.5.45 3.5 1-1.57 1-3.5 1" style="fill:#fff"/><path d="M20.78 17.62H43.2c.53-.92 1.01-2.25 1.52-3.04.39-.6.88-1.2 1.46-1.75l-28.57-.03c.64.59 1.17 1.24 1.58 1.88.53.9 1.15 2.29 1.59 2.94m6.38 17.44h9.68c.09 0 .16-.07.16-.16v-2.06c0-.09-.07-.16-.16-.16h-9.68c-.09 0-.16.07-.16.16v2.06c0 .09.07.16.16.16m-5.64-7.12h.5c0-3.29 4.48-5.97 9.98-5.97s9.98 2.68 9.98 5.97h.5c0-3.57-4.7-6.47-10.48-6.47s-10.48 2.9-10.48 6.47" style="fill:#fff"/></svg>