<svg enable-background="new 0 0 256 256" viewBox="0 0 256 256" xmlns="http://www.w3.org/2000/svg"><path clip-rule="evenodd" d="m29.6 14.9s48.2-2.9 97.6-2.9c49 0 99.1 2.9 99.1 2.9 8.1 0 14.7 6.6 14.7 14.7 0 0 2.9 49.7 2.9 99.1 0 48.9-2.9 97.6-2.9 97.6 0 8.1-6.6 14.7-14.7 14.7 0 0-50.2 2.9-99.1 2.9-49.4 0-97.7-2.9-97.7-2.9-8.1 0-14.7-6.6-14.7-14.7 0 0-2.9-49.5-2.9-98.8 0-49 2.9-97.9 2.9-97.9.1-8.1 6.7-14.7 14.8-14.7z" fill="#eec41b" fill-rule="evenodd"/><g fill="#eef0f1"><path d="m195.2 126.7c.8.5 1.4.9 2 1.3 5.3 3.2 7.4 7.2 6.7 12.5-.8 5.6-4.4 9.5-10.3 10.7-4.5 1-9 1-13.4-.1-5-1.2-8.7-4-9.8-9.4-1.1-5.6.6-10.2 5.3-13.6.6-.4 1.2-.8 1.9-1.3-.3-1.3-1.6-1.5-2.4-2.2-6.1-5.1-5.3-14.4 1.7-18.1 6.1-3.2 12.7-3.2 18.9-.7 8.5 3.4 9.5 13.3 2.2 18.8-.9.7-1.8 1.3-2.8 2.1zm-8.4 17.6c5 .1 7.6-1.9 7.6-5.8 0-3.2-4.2-8-7.3-8.2s-7.6 4.7-7.6 8.2c.1 3.7 2.5 5.7 7.3 5.8zm.2-32.6c-4.4 0-6.6 1.7-6.6 4.9.1 2.6 4 6.4 6.6 6.4s6.5-3.8 6.6-6.3c.1-3.3-2.2-5-6.6-5z"/><path d="m87.4 126.9c-.2-4 .3-8.9 2.3-13.5 2.8-6.5 7.9-9.3 16.6-9.1 7 .2 12 3.5 14.2 9.8 3.1 9.1 3.1 18.4.1 27.6-2.3 6.9-7.5 10.2-15.4 10.3-7.6.1-12.9-3.1-15.5-9.6-.7-1.6-1-3.4-1.5-5.1-1-3.1-.8-6.3-.8-10.4zm9.6 1c0 3.3 0 6.6.9 9.8 1 3.4 2.9 6 6.7 6.1s6-2.1 7-5.6c1.9-6.7 1.9-13.5 0-20.2-1-3.5-3.1-5.6-7-5.5-4 .1-5.7 2.7-6.7 6.1-.9 2.9-.9 6.1-.9 9.3z"/><path d="m159.4 120.2c0 4.1.1 8.1 0 12.2 0 1.9.2 3.3 2.6 3 3.3-.5 3 1.7 2.8 3.8-.1 1.9 1 4.7-2.7 4.3-3.1-.4-2.9 1.8-2.6 3.6.7 4.3-1.9 3.9-4.7 3.9-2.7 0-5.2.2-4.4-3.8.6-3-.8-4-3.7-3.8-5.4.2-10.8 0-16.2.1-2.2.1-2.7-.7-2.8-2.8-.2-3.8.6-7 3.1-10.1 6-7.5 11.5-15.3 17.3-23 1.5-2 8.7-3.4 10.6-2.2 1.1.7.7 1.8.7 2.7zm-22.5 15.1h11.6c.9 0 1.8-.2 1.8-1.4 0-5.1 0-10.1 0-15.2-.3 0-.5-.1-.8-.1-4 5.4-8 10.7-12.6 16.7z"/><path d="m60.9 142.2c6.2 0 11.4.1 16.7 0 2.3-.1 3.4.5 3.3 3.1-.2 6.7.6 5.5-5.3 5.6-7.5.1-15 .1-22.5 0-1.5 0-4.2 1.2-4.5-1.1-.3-2.7-1.4-5.9 1.6-8.4 4-3.4 7.9-7 11.7-10.7 2.5-2.3 4.8-4.9 6.3-7.9 1.5-2.9 2.7-5.9 0-8.7-2.1-2.2-6.6-1.7-9.8.4-1.2.8-1.7 3.2-3.3 2.4-2.2-1-4.2-2.7-6.1-4.3-1-.8.1-1.6.6-2.2 5.2-7.3 20.8-8.3 26.8-1.8 3.6 3.9 4.1 11 1.1 16.8-2.6 5.1-6.9 8.6-11 12.3-1.7 1.2-3.3 2.6-5.6 4.5z"/></g></svg>