<svg height="202.66666" viewBox="0 0 309.33331 202.66665" width="309.33331" xmlns="http://www.w3.org/2000/svg" xmlns:xlink="http://www.w3.org/1999/xlink"><clipPath id="a"><path d="m0 256h256v-256h-256z"/></clipPath><g transform="matrix(1.3333333 0 0 -1.3333333 -16 271.99999)"><path d="m244 52h-232v92h232z" fill="#93a3a3"/><path d="m236 56h-216v68h216z" fill="#d1d6d2"/><g fill="#2b3e51"><path d="m232 60h-36v44h36z"/><path d="m160 68h-136v36h136z"/><path d="m168 112h20v8h-20z"/></g><path d="m76 112h-32v8h32z" fill="#c13c28"/><path d="m116 112h-32v8h32z" fill="#c13c28"/><path d="m160 112h-32v8h32z" fill="#c13c28"/><path d="m240 128h-224v16h224z" fill="#d1d6d2"/><path d="m0 0h-232l8 60h216z" fill="#dadfe0" transform="translate(244 144)"/><path d="m28 168h-4v36h4z" fill="#d1d6d2"/><g clip-path="url(#a)"><g fill="#d1d6d2"><path d="m0 0c-2.209 0-4 1.791-4 4v48h4z" transform="translate(36 152)"/><path d="m44 152h-4v52h4z"/><path d="m52 152h-4v52h4z"/><path d="m60 152h-4v52h4z"/><path d="m68 152h-4v52h4z"/><path d="m76 152h-4v52h4z"/><path d="m0 0v52h4v-48c0-2.209-1.791-4-4-4" transform="translate(80 152)"/><path d="m92 168h-4v36h4z"/><path d="m100 168h-4v36h4z"/><path d="m108 168h-4v36h4z"/><path d="m116 168h-4v36h4z"/><path d="m124 168h-4v36h4z"/><path d="m132 168h-4v36h4z"/><path d="m140 168h-4v36h4z"/><path d="m148 168h-4v36h4z"/><path d="m156 168h-4v36h4z"/><path d="m164 168h-4v36h4z"/><path d="m176 168h-4v36h4z"/><path d="m184 168h-4v36h4z"/><path d="m192 168h-4v36h4z"/><path d="m200 168h-4v36h4z"/><path d="m208 168h-4v36h4z"/><path d="m216 168h-4v36h4z"/><path d="m224 168h-4v36h4z"/><path d="m232 168h-4v36h4z"/></g><path d="m36 132h-20v8h20z" fill="#eec41b"/><path d="m232 112h-36v8h36z" fill="#eec41b"/><path d="m228 128h-28v8h28z" fill="#f19c21"/><path d="m240 128h-224v-8h224z" fill="#7f8b8c"/><path d="m32 112h-8v8h8z" fill="#35495f"/><path d="m48 112h-8v8h8z" fill="#e94b36"/><path d="m58 112h-8v8h8z" fill="#e94b36"/><path d="m68 112h-8v8h8z" fill="#e94b36"/><path d="m78 112h-8v8h8z" fill="#e94b36"/><path d="m90 112h-8v8h8z" fill="#e94b36"/><path d="m100 112h-8v8h8z" fill="#e94b36"/><path d="m110 112h-8v8h8z" fill="#e94b36"/><path d="m120 112h-8v8h8z" fill="#e94b36"/><path d="m132 112h-8v8h8z" fill="#e94b36"/><path d="m142 112h-8v8h8z" fill="#e94b36"/><path d="m152 112h-8v8h8z" fill="#e94b36"/><path d="m172 112h-8v8h8z" fill="#35495f"/><path d="m182 112h-8v8h8z" fill="#35495f"/><path d="m192 112h-8v8h8z" fill="#35495f"/><path d="m164 84h28v20h-28z" fill="#2b3e51"/><path d="m172 96h-8v8h8z" fill="#35495f"/><path d="m182 96h-8v8h8z" fill="#35495f"/><path d="m192 96h-8v8h8z" fill="#35495f"/><path d="m204 96h-8v8h8z" fill="#35495f"/><path d="m214 96h-8v8h8z" fill="#35495f"/><path d="m224 96h-8v8h8z" fill="#35495f"/><path d="m204 84h-8v8h8z" fill="#6c7a88"/><path d="m214 84h-8v8h8z" fill="#6c7a88"/><path d="m224 84h-8v8h8z" fill="#6c7a88"/><path d="m204 72h-8v8h8z" fill="#6c7a88"/><path d="m214 72h-8v8h8z" fill="#6c7a88"/><path d="m224 72h-8v8h8z" fill="#6c7a88"/><path d="m204 60h-8v8h8z" fill="#6c7a88"/><path d="m214 60h-8v8h8z" fill="#6c7a88"/><path d="m224 60h-8v8h8z" fill="#6c7a88"/><path d="m172 84h-8v8h8z" fill="#35495f"/><path d="m182 84h-8v8h8z" fill="#35495f"/><path d="m192 84h-8v8h8z" fill="#35495f"/><path d="m164 60h28v8h-28z" fill="#2b3e51"/><path d="m182 72h-8v8h8z" fill="#35495f"/><path d="m182 64h-8v8h8z" fill="#2b3e51"/><path d="m172 60h-8v8h8z" fill="#35495f"/><path d="m182 60h-8v8h8z" fill="#35495f"/><path d="m192 60h-8v8h8z" fill="#35495f"/><path d="m162 112h-8v8h8z" fill="#e94b36"/><path d="m32 96h-8v8h8z" fill="#35495f"/><path d="m36 84h-12v8h12z" fill="#35495f"/><path d="m44 96h-8v8h8z" fill="#6c7a88"/><path d="m48 84h-8v8h8z" fill="#6c7a88"/><path d="m40 72h-16v8h16z" fill="#35495f"/><path d="m36 60h-12v8h12z" fill="#35495f"/><path d="m60 60h-12v8h12z" fill="#35495f"/><path d="m140 60h-12v8h12z" fill="#35495f"/><path d="m160 60h-12v8h12z" fill="#35495f"/><path d="m124 60h-60v8h60z" fill="#6c7a88"/><path d="m52 72h-8v8h8z" fill="#6c7a88"/><path d="m64 72h-8v8h8z" fill="#6c7a88"/><path d="m76 72h-8v8h8z" fill="#6c7a88"/><path d="m88 72h-8v8h8z" fill="#6c7a88"/><path d="m100 72h-8v8h8z" fill="#6c7a88"/><path d="m112 72h-8v8h8z" fill="#6c7a88"/><path d="m124 72h-8v8h8z" fill="#6c7a88"/><path d="m136 72h-8v8h8z" fill="#6c7a88"/><path d="m160 72h-20v8h20z" fill="#35495f"/><path d="m60 84h-8v8h8z" fill="#6c7a88"/><path d="m72 84h-8v8h8z" fill="#6c7a88"/><path d="m84 84h-8v8h8z" fill="#6c7a88"/><path d="m96 84h-8v8h8z" fill="#6c7a88"/><path d="m108 84h-8v8h8z" fill="#6c7a88"/><path d="m120 84h-8v8h8z" fill="#6c7a88"/><path d="m132 84h-8v8h8z" fill="#6c7a88"/><path d="m144 84h-8v8h8z" fill="#6c7a88"/><path d="m160 84h-12v8h12z" fill="#35495f"/><path d="m56 96h-8v8h8z" fill="#6c7a88"/><path d="m68 96h-8v8h8z" fill="#6c7a88"/><path d="m80 96h-8v8h8z" fill="#6c7a88"/><path d="m92 96h-8v8h8z" fill="#6c7a88"/><path d="m104 96h-8v8h8z" fill="#6c7a88"/><path d="m116 96h-8v8h8z" fill="#6c7a88"/><path d="m128 96h-8v8h8z" fill="#6c7a88"/><path d="m140 96h-8v8h8z" fill="#6c7a88"/><path d="m152 96h-8v8h8z" fill="#6c7a88"/><path d="m160 96h-4v8h4z" fill="#35495f"/><path d="m232 96h-6v8h6z" fill="#35495f"/><path d="m232 84h-6v8h6z" fill="#35495f"/><path d="m232 72h-6v8h6z" fill="#35495f"/><path d="m232 60h-6v8h6z" fill="#35495f"/></g></g></svg>