<svg enable-background="new 0 0 256 256" viewBox="0 0 256 256" xmlns="http://www.w3.org/2000/svg"><path clip-rule="evenodd" d="m50.008 38.303s38.221-2.303 77.442-2.303c38.821 0 78.643 2.303 78.643 2.303 6.403 0 11.606 5.206 11.606 11.613 0 0 2.301 39.443 2.301 78.686 0 38.842-2.301 77.484-2.301 77.484 0 6.407-5.203 11.613-11.606 11.613 0 0-39.822 2.303-78.643 2.303-39.221 0-77.542-2.303-77.542-2.303-6.403 0-11.606-5.206-11.606-11.613 0 0-2.301-39.343-2.301-78.485 0-38.842 2.301-77.584 2.301-77.584-.001-6.509 5.202-11.714 11.706-11.714z" fill="#7f8c8d" fill-rule="evenodd"/><path d="m128 64 16 48h48l-40 32 16 48-40-32-40 32 16-48-40-32h48z" fill="#efc51c"/><path d="m144 128h-12v-12c0-2.2-1.8-4-4-4s-4 1.8-4 4v12h-12c-2.2 0-4 1.8-4 4s1.8 4 4 4h12v12c0 2.2 1.8 4 4 4s4-1.8 4-4v-12h12c2.2 0 4-1.8 4-4s-1.8-4-4-4z" fill="#f29d22"/></svg>