<svg height="213.33333" viewBox="0 0 309.33331 213.33333" width="309.33331" xmlns="http://www.w3.org/2000/svg" xmlns:xlink="http://www.w3.org/1999/xlink"><clipPath id="a"><path d="m0 256h256v-256h-256z"/></clipPath><g clip-path="url(#a)" transform="matrix(1.3333333 0 0 -1.3333333 -16 277.33333)"><path d="m0 0 4-4-36-16s4 20 32 20" fill="#223140" transform="translate(72 208)"/><path d="m0 0-4-4 36-16s-4 20-32 20" fill="#223140" transform="translate(184 208)"/><path d="m0 0s0 16-36 16h-104c-36 0-36-16-36-16l-8-24 48-64h96l48 64z" fill="#2b3e51" transform="translate(216 188)"/><path d="m0 0c-7.732 0-14-6.268-14-14s6.268-14 14-14 14 6.268 14 14-6.268 14-14 14" fill="#223140" transform="translate(66 188)"/><path d="m0 0c5.514 0 10-4.486 10-10s-4.486-10-10-10-10 4.486-10 10 4.486 10 10 10" fill="#35495f" transform="translate(66 184)"/><path d="m0 0c-7.732 0-14-6.268-14-14s6.268-14 14-14 14 6.268 14 14-6.268 14-14 14" fill="#223140" transform="translate(158 148)"/><path d="m0 0c5.514 0 10-4.486 10-10s-4.486-10-10-10-10 4.486-10 10 4.486 10 10 10" fill="#35495f" transform="translate(158 144)"/><g fill="#223140"><path d="m0 0c0-3.314-2.686-6-6-6s-6 2.686-6 6 2.686 6 6 6 6-2.686 6-6" transform="translate(116 170)"/><path d="m0 0c0-3.314-2.686-6-6-6s-6 2.686-6 6 2.686 6 6 6 6-2.686 6-6" transform="translate(132 170)"/><path d="m0 0c0-3.314-2.686-6-6-6s-6 2.686-6 6 2.686 6 6 6 6-2.686 6-6" transform="translate(132 154)"/><path d="m0 0c0-3.314-2.686-6-6-6s-6 2.686-6 6 2.686 6 6 6 6-2.686 6-6" transform="translate(148 170)"/><path d="m0 0c0-4.418-3.582-8-8-8s-8 3.582-8 8 3.582 8 8 8 8-3.582 8-8" transform="translate(192 184)"/><path d="m0 0c0-4.418-3.582-8-8-8s-8 3.582-8 8 3.582 8 8 8 8-3.582 8-8" transform="translate(176 168)"/><path d="m0 0c0-4.418-3.582-8-8-8s-8 3.582-8 8 3.582 8 8 8 8-3.582 8-8" transform="translate(208 168)"/><path d="m0 0c0-4.418-3.582-8-8-8s-8 3.582-8 8 3.582 8 8 8 8-3.582 8-8" transform="translate(192 152)"/><path d="m0 0c-12.131 0-22-9.869-22-22s9.869-22 22-22 22 9.869 22 22-9.869 22-22 22m0-2c11.046 0 20-8.954 20-20s-8.954-20-20-20-20 8.954-20 20 8.954 20 20 20" transform="translate(96 158)"/></g><path d="m0 0v13.082c-1.894.595-3.909.918-6 .918s-4.106-.323-6-.918v-13.082h-13.082c-.595-1.894-.918-3.909-.918-6s.323-4.106.918-6h13.082v-13.082c1.894-.595 3.909-.918 6-.918s4.106.323 6 .918v13.082h13.082c.595 1.894.918 3.909.918 6s-.323 4.106-.918 6z" fill="#35495f" transform="translate(102 142)"/><path d="m0 0c0-3.314-2.686-6-6-6s-6 2.686-6 6 2.686 6 6 6 6-2.686 6-6" fill="#223140" transform="translate(102 136)"/><path d="m0 0c-2.209 0-4-1.791-4-4h8c0 2.209-1.791 4-4 4" fill="#35495f" transform="translate(124 104)"/><path d="m0 0c-1.105 0-2-.895-2-2h2 2c0 1.105-.895 2-2 2" fill="#223140" transform="translate(124 102)"/><path d="m0 0s-20-48-20-80 12-36 16-36h8 .081c1.144 0 2.228.484 2.989 1.338 1.154 1.297 2.742 3.38 4.93 6.662 8 12 28 44 36 44z" fill="#223140" transform="translate(32 164)"/><path d="m0 0s20-48 20-80-12-36-16-36h-8-.081c-1.144 0-2.228.484-2.989 1.338-1.154 1.297-2.742 3.38-4.93 6.662-8 12-28 44-36 44z" fill="#223140" transform="translate(224 164)"/></g></svg>