<svg height="208" viewBox="0 0 309.33331 208" width="309.33331" xmlns="http://www.w3.org/2000/svg" xmlns:xlink="http://www.w3.org/1999/xlink"><clipPath id="a"><path d="m0 256h256v-256h-256z"/></clipPath><g clip-path="url(#a)" transform="matrix(1.3333333 0 0 -1.3333333 -16 277.33333)"><path d="m0 0h-12c-20 0-28-24-28-24l44 20z" fill="#2b3e51" transform="translate(76 208)"/><path d="m0 0h12c20 0 28-24 28-24l-44 20z" fill="#2b3e51" transform="translate(180 208)"/><path d="m0 0s-8 48-20 68-32 20-32 20h-60-60s-20 0-32-20-20-68-20-68-4-20-4-36 8-28 16-28h8.209c2.399 0 4.672 1.077 6.192 2.934l28.798 35.198c3.039 3.714 7.584 5.868 12.383 5.868h88.836c4.799 0 9.344-2.154 12.383-5.868l28.798-35.198c1.52-1.857 3.793-2.934 6.192-2.934h8.209c8 0 16 12 16 28s-4 36-4 36" fill="#35495f" transform="translate(240 116)"/><path d="m0 0h-16-96-16c-15.464 0-28-12.536-28-28 0-2.827 1.158-11.263 4-16 9.865-16.442 30.544-43.697 37.589-52.875 1.514-1.971 3.858-3.125 6.344-3.125h44.067 44.067c2.486 0 4.83 1.154 6.344 3.125 7.045 9.178 27.724 36.433 37.589 52.875 2.842 4.737 4 13.173 4 16 0 15.464-12.536 28-28 28" fill="#2b3e51" transform="translate(192 196)"/><path d="m0 0c-7.72 0-14-6.28-14-14s6.28-14 14-14 14 6.28 14 14-6.28 14-14 14" fill="#223140" transform="translate(66 182)"/><path d="m0 0c5.523 0 10-4.477 10-10s-4.477-10-10-10-10 4.477-10 10 4.477 10 10 10" fill="#35495f" transform="translate(66 178)"/><path d="m0 0c-7.72 0-14-6.28-14-14s6.28-14 14-14 14 6.28 14 14-6.28 14-14 14" fill="#223140" transform="translate(160 142)"/><path d="m0 0c5.523 0 10-4.477 10-10s-4.477-10-10-10-10 4.477-10 10 4.477 10 10 10" fill="#35495f" transform="translate(160 138)"/><path d="m0 0c0-11.046-8.954-20-20-20s-20 8.954-20 20 8.954 20 20 20 20-8.954 20-20" fill="#35495f" transform="translate(116 128)"/><path d="m0 0v10.325c-2.451 1.071-5.154 1.675-8 1.675s-5.549-.604-8-1.675v-10.325h-10.325c-1.071-2.451-1.675-5.154-1.675-8s.604-5.549 1.675-8h10.325v-10.325c2.451-1.071 5.154-1.675 8-1.675s5.549.604 8 1.675v10.325h10.325c1.071 2.451 1.675 5.154 1.675 8s-.604 5.549-1.675 8z" fill="#223140" transform="translate(104 136)"/><path d="m0 0h-6c-.552 0-1 .448-1 1s.448 1 1 1h6c.552 0 1-.448 1-1s-.448-1-1-1" fill="#2b3e51" transform="translate(87 127)"/><path d="m0 0h-6c-.552 0-1 .448-1 1s.448 1 1 1h6c.552 0 1-.448 1-1s-.448-1-1-1" fill="#2b3e51" transform="translate(111 127)"/><path d="m0 0v6c0 .552.448 1 1 1s1-.448 1-1v-6c0-.552-.448-1-1-1s-1 .448-1 1" fill="#2b3e51" transform="translate(95 137)"/><path d="m0 0v6c0 .552.448 1 1 1s1-.448 1-1v-6c0-.552-.448-1-1-1s-1 .448-1 1" fill="#2b3e51" transform="translate(95 113)"/><path d="m0 0c0-2.209-1.791-4-4-4s-4 1.791-4 4 1.791 4 4 4 4-1.791 4-4" fill="#223140" transform="translate(132 156)"/><path d="m0 0c0-2.209-1.791-4-4-4s-4 1.791-4 4 1.791 4 4 4 4-1.791 4-4" fill="#223140" transform="translate(112 176)"/><path d="m0 0c0-2.209-1.791-4-4-4s-4 1.791-4 4 1.791 4 4 4 4-1.791 4-4" fill="#223140" transform="translate(152 176)"/><path d="m0 0c-5.514 0-10-4.486-10-10s4.486-10 10-10 10 4.486 10 10-4.486 10-10 10" fill="#854b9c" transform="translate(128 186)"/><g fill="#223140"><path d="m0 0c0-4.418-3.582-8-8-8s-8 3.582-8 8 3.582 8 8 8 8-3.582 8-8" transform="translate(136 176)"/><path d="m0 0c0-4.418-3.582-8-8-8s-8 3.582-8 8 3.582 8 8 8 8-3.582 8-8" transform="translate(180 164)"/><path d="m0 0c0-4.418-3.582-8-8-8s-8 3.582-8 8 3.582 8 8 8 8-3.582 8-8" transform="translate(212 164)"/><path d="m0 0c0-4.418-3.582-8-8-8s-8 3.582-8 8 3.582 8 8 8 8-3.582 8-8" transform="translate(196 180)"/><path d="m0 0c0-4.418-3.582-8-8-8s-8 3.582-8 8 3.582 8 8 8 8-3.582 8-8" transform="translate(196 148)"/></g></g></svg>