<svg height="309.33331" viewBox="0 0 309.33331 309.33331" width="309.33331" xmlns="http://www.w3.org/2000/svg" xmlns:xlink="http://www.w3.org/1999/xlink"><clipPath id="a"><path d="m0 256h256v-256h-256z"/></clipPath><g clip-path="url(#a)" transform="matrix(1.3333333 0 0 -1.3333333 -16 325.33333)"><path d="m0 0h-224c-2.209 0-4 1.791-4 4v224c0 2.209 1.791 4 4 4h224c2.209 0 4-1.791 4-4v-224c0-2.209-1.791-4-4-4" fill="#bec2c7" transform="translate(240 12)"/><path d="m0 0h-44l22-16zm-146-16-22 16h44z" fill="#94a4a4" transform="translate(212 44)"/><path d="m0 0h-160c-2.209 0-4 1.791-4 4v132h168v-132c0-2.209-1.791-4-4-4" fill="#1b80bb" transform="translate(208 108)"/></g></svg>