<svg xmlns="http://www.w3.org/2000/svg" viewBox="0 0 256 256"><path fill="#c13c28" d="M152 28h-48V14.001a2 2 0 0 1 2.392-1.961l18.723 3.698c1.907.35 3.862.35 5.769 0l18.723-3.698a2 2 0 0 1 2.392 1.961V28z"/><path fill="#35495f" d="M52 24h152v220H52z"/><path fill="#223140" d="M60 136h136v96H60z"/><path fill="#edefef" d="M90 164H70a2 2 0 0 1-2-2v-8a2 2 0 0 1 2-2h20a2 2 0 0 1 2 2v8a2 2 0 0 1-2 2m32 0h-20a2 2 0 0 1-2-2v-8a2 2 0 0 1 2-2h20a2 2 0 0 1 2 2v8a2 2 0 0 1-2 2m32 0h-20a2 2 0 0 1-2-2v-8a2 2 0 0 1 2-2h20a2 2 0 0 1 2 2v8a2 2 0 0 1-2 2m-64 28H70a2 2 0 0 1-2-2v-8a2 2 0 0 1 2-2h20a2 2 0 0 1 2 2v8a2 2 0 0 1-2 2m32 0h-20a2 2 0 0 1-2-2v-8a2 2 0 0 1 2-2h20a2 2 0 0 1 2 2v8a2 2 0 0 1-2 2m32 0h-20a2 2 0 0 1-2-2v-8a2 2 0 0 1 2-2h20a2 2 0 0 1 2 2v8a2 2 0 0 1-2 2m-64 28H70a2 2 0 0 1-2-2v-8a2 2 0 0 1 2-2h20a2 2 0 0 1 2 2v8a2 2 0 0 1-2 2m32 0h-20a2 2 0 0 1-2-2v-8a2 2 0 0 1 2-2h20a2 2 0 0 1 2 2v8a2 2 0 0 1-2 2m32 0h-20a2 2 0 0 1-2-2v-8a2 2 0 0 1 2-2h20a2 2 0 0 1 2 2v8a2 2 0 0 1-2 2"/><path fill="#3babe0" d="M186 192h-20a2 2 0 0 1-2-2v-8a2 2 0 0 1 2-2h20a2 2 0 0 1 2 2v8a2 2 0 0 1-2 2m0 28h-20a2 2 0 0 1-2-2v-8a2 2 0 0 1 2-2h20a2 2 0 0 1 2 2v8a2 2 0 0 1-2 2"/><path fill="#edefef" d="M186 164h-20a2 2 0 0 1-2-2v-8a2 2 0 0 1 2-2h20a2 2 0 0 1 2 2v8a2 2 0 0 1-2 2"/><path fill="#223140" d="M60 28h136v88H60z"/><path fill="#2b3e51" d="M128 26.8c-22.423 0-40.6 18.177-40.6 40.6S105.577 108 128 108s40.6-18.177 40.6-40.6-18.177-40.6-40.6-40.6"/><path fill="#edefef" d="M128 38.4c15.991 0 29 13.009 29 29s-13.009 29-29 29-29-13.009-29-29 13.009-29 29-29"/><path fill="#2b3e51" d="m52 24 8 4v88l-8 128zm152 0-8 4v88l8 128z"/></svg>