<svg xmlns="http://www.w3.org/2000/svg" viewBox="0 0 256 256"><path fill="#223140" d="M172.225 244H71.775a8 8 0 0 1-7.997-7.772L60 104h124l-3.778 132.228a8 8 0 0 1-7.997 7.772"/><path fill="#2b3e51" d="M172 12H72c-6.6 0-12 5.4-12 12v84c0 6.6 5.4 12 12 12h20a4 4 0 0 1 4 4v102a6 6 0 0 0 6 6h40a6 6 0 0 0 6-6V124a4 4 0 0 1 4-4h20c6.6 0 12-5.4 12-12V24c0-6.6-5.4-12-12-12"/><path fill="#35495f" d="M122 12c-25.364 0-46 20.636-46 46s20.636 46 46 46 46-20.636 46-46-20.636-46-46-46"/><path fill="#223140" d="M122 16c23.196 0 42 18.804 42 42s-18.804 42-42 42-42-18.804-42-42 18.804-42 42-42"/><path fill="#35495f" d="M122 28c-16.542 0-30 13.458-30 30s13.458 30 30 30 30-13.458 30-30-13.458-30-30-30"/><path fill="#edefef" d="M122 32c14.359 0 26 11.641 26 26s-11.641 26-26 26-26-11.641-26-26 11.641-26 26-26"/><path fill="#223140" d="M184 100h4v8h-4z"/><path fill="#35495f" d="M194 112h-4a2 2 0 0 1-2-2V98a2 2 0 0 1 2-2h4a2 2 0 0 1 2 2v12a2 2 0 0 1-2 2m-90 20h36v80h-36z"/></svg>