<svg height="293.33331" viewBox="0 0 240 293.33331" width="240" xmlns="http://www.w3.org/2000/svg" xmlns:xlink="http://www.w3.org/1999/xlink"><clipPath id="a"><path d="m0 256h256v-256h-256z"/></clipPath><g clip-path="url(#a)" transform="matrix(1.3333333 0 0 -1.3333333 -50.666665 317.33333)"><path d="m0 0c-41.314 0-76.125-5.527-86.703-7.393-1.911-.337-3.297-1.997-3.297-3.938v-196.889c0-6.506 5.274-11.78 11.78-11.78h156.44c6.506 0 11.78 5.274 11.78 11.78v196.889c0 1.941-1.386 3.601-3.297 3.938-10.578 1.866-45.389 7.393-86.703 7.393" fill="#223140" transform="translate(128 238)"/><path d="m0 0c0-33.137-26.863-60-60-60s-60 26.863-60 60 26.863 60 60 60 60-26.863 60-60" fill="#35495f" transform="translate(188 128)"/><path d="m0 0c0-29.823-24.177-54-54-54s-54 24.177-54 54 24.177 54 54 54 54-24.177 54-54" fill="#2b3e51" transform="translate(182 128)"/><path d="m0 0c0-24.301-19.699-44-44-44s-44 19.699-44 44 19.699 44 44 44 44-19.699 44-44" fill="#e6e6e6" transform="translate(172 128)"/><path d="m0 0h-92c-1.105 0-2 .895-2 2v24c0 1.105.895 2 2 2h92c1.105 0 2-.895 2-2v-24c0-1.105-.895-2-2-2" fill="#2b3e51" transform="translate(198 188)"/><path d="m0 0h-16l-8-14 8-14h16l8 14z" fill="#d35627" transform="translate(84 216)"/><path d="m0 0c0-4.418-3.582-8-8-8s-8 3.582-8 8 3.582 8 8 8 8-3.582 8-8" fill="#223140" transform="translate(84 200)"/><path d="m0 0c0-4.418-3.582-8-8-8s-8 3.582-8 8 3.582 8 8 8 8-3.582 8-8" fill="#35495f" transform="translate(84 204)"/></g></svg>