<svg enable-background="new 0 0 256 256" viewBox="0 0 256 256" xmlns="http://www.w3.org/2000/svg"><path d="m172.225 244h-100.45c-4.329 0-7.873-3.444-7.997-7.772l-3.778-132.228h124l-3.778 132.228c-.124 4.328-3.667 7.772-7.997 7.772z" fill="#223140"/><path d="m172 12h-100c-6.6 0-12 5.4-12 12v84c0 6.6 5.4 12 12 12h20c2.209 0 4 1.791 4 4v102c0 3.314 2.686 6 6 6h40c3.314 0 6-2.686 6-6v-102c0-2.209 1.791-4 4-4h20c6.6 0 12-5.4 12-12v-84c0-6.6-5.4-12-12-12z" fill="#2b3e51"/><path d="m122 12c-25.364 0-46 20.636-46 46s20.636 46 46 46 46-20.636 46-46-20.636-46-46-46z" fill="#35495f"/><path d="m122 16c23.196 0 42 18.804 42 42s-18.804 42-42 42-42-18.804-42-42 18.804-42 42-42" fill="#223140"/><path d="m122 28c-16.542 0-30 13.458-30 30s13.458 30 30 30 30-13.458 30-30-13.458-30-30-30z" fill="#35495f"/><path d="m122 32c14.359 0 26 11.641 26 26s-11.641 26-26 26-26-11.641-26-26 11.641-26 26-26" fill="#edefef"/><path d="m184 100h4v8h-4z" fill="#223140"/><g fill="#35495f"><path d="m194 112h-4c-1.105 0-2-.895-2-2v-12c0-1.105.895-2 2-2h4c1.105 0 2 .895 2 2v12c0 1.105-.895 2-2 2z"/><path d="m104 132h36v80h-36z"/></g></svg>