<svg enable-background="new 0 0 256 256" viewBox="0 0 256 256" xmlns="http://www.w3.org/2000/svg"><path d="m16 100h224v30.499h-224z" fill="#7f8c8d"/><path d="m12 76h232v28h-232z" fill="#bec2c7"/><path d="m244 128h-218.407-13.593v52h232z" fill="#bec2c7"/><path d="m32.233 100 31.408-24h-4.233l-31.408 24z" fill="#7f8c8d"/><path d="m41.666 100 31.408-24h-4.233l-31.408 24z" fill="#7f8c8d"/><path d="m51.099 100 31.408-24h-4.233l-31.408 24z" fill="#7f8c8d"/><path d="m60.531 100 31.408-24h-4.232l-31.408 24z" fill="#7f8c8d"/><path d="m69.964 100 31.408-24h-4.232l-31.408 24z" fill="#7f8c8d"/><path d="m79.397 100 31.408-24h-4.232l-31.409 24z" fill="#7f8c8d"/><path d="m88.83 100 31.408-24h-4.233l-31.408 24z" fill="#7f8c8d"/><path d="m98.263 100 31.408-24h-4.233l-31.408 24z" fill="#7f8c8d"/><path d="m107.696 100 31.408-24h-4.233l-31.408 24z" fill="#7f8c8d"/><path d="m117.129 100 31.408-24h-4.233l-31.408 24z" fill="#7f8c8d"/><path d="m126.562 100 31.408-24h-4.233l-31.408 24z" fill="#7f8c8d"/><path d="m135.995 100 31.408-24h-4.233l-31.408 24z" fill="#7f8c8d"/><path d="m145.428 100 31.408-24h-4.233l-31.408 24z" fill="#7f8c8d"/><path d="m154.86 100 31.408-24h-4.232l-31.408 24z" fill="#7f8c8d"/><path d="m164.293 100 31.408-24h-4.232l-31.408 24z" fill="#7f8c8d"/><path d="m173.726 100 31.408-24h-4.232l-31.409 24z" fill="#7f8c8d"/><path d="m183.159 100 31.408-24h-4.233l-31.408 24z" fill="#7f8c8d"/><path d="m192.592 100 31.408-24h-4.233l-31.408 24z" fill="#7f8c8d"/><path d="m12 108h232v16h-232z" fill="#bec2c7"/><path d="m176 118 3.805-4h48.195l-3.881 4z" fill="#94a4a4"/><path d="m16 131.925h8v8h-8z" fill="#eef0f1"/><path d="m28 124h-8l4-4h8z" fill="#eef0f1"/><path d="m36 128h-8l4-4h8z" fill="#94a4a4"/><path d="m24 128h-8l4-4h8z" fill="#94a4a4"/><path d="m48 128h-8l4-4h8z" fill="#94a4a4"/><path d="m60 128h-8l4-4h8z" fill="#94a4a4"/><path d="m72 128h-8l4-4h8z" fill="#94a4a4"/><path d="m84 128h-8l4-4h8z" fill="#94a4a4"/><path d="m96 128h-8l4-4h8z" fill="#94a4a4"/><path d="m108 128h-8l4-4h8z" fill="#94a4a4"/><path d="m120 128h-8l4-4h8z" fill="#94a4a4"/><path d="m132 128h-8l4-4h8z" fill="#94a4a4"/><path d="m144 128h-8l4-4h8z" fill="#94a4a4"/><g fill="#eef0f1"><path d="m40 124h-8l4-4h8z"/><path d="m52 124h-8l4-4h8z"/><path d="m64 124h-8l4-4h8z"/><path d="m76 124h-8l4-4h8z"/><path d="m88 124h-8l4-4h8z"/><path d="m100 124h-8l4-4h8z"/><path d="m112 124h-8l4-4h8z"/><path d="m124 124h-8l4-4h8z"/><path d="m136 124h-8l4-4h8z"/><path d="m148 124h-8l4-4h8z"/><path d="m16 143.925h12v8h-12z"/><path d="m28 131.925h8v8h-8z"/><path d="m32 143.925h8v8h-8z"/><path d="m36 155.925h8v8h-8z"/><path d="m48 155.925h8v8h-8z"/><path d="m60 155.925h8v8h-8z"/><path d="m72 155.925h8v8h-8z"/><path d="m84 155.925h8v8h-8z"/><path d="m96 155.925h8v8h-8z"/><path d="m108 155.925h8v8h-8z"/><path d="m120 155.925h8v8h-8z"/><path d="m132 155.925h8v8h-8z"/><path d="m44 143.925h8v8h-8z"/><path d="m56 143.925h8v8h-8z"/><path d="m68 143.925h8v8h-8z"/><path d="m80 143.925h8v8h-8z"/><path d="m92 143.925h8v8h-8z"/><path d="m104 143.925h8v8h-8z"/><path d="m116 143.925h8v8h-8z"/><path d="m128 143.925h8v8h-8z"/><path d="m156 143.925h8v8h-8z"/><path d="m196 131.925h8v8h-8z"/><path d="m208 131.925h8v8h-8z"/><path d="m220 131.925h8v8h-8z"/><path d="m232 131.925h8v8h-8z"/><path d="m196 143.925h8v8h-8z"/><path d="m208 143.925h8v8h-8z"/><path d="m220 143.925h8v8h-8z"/><path d="m232 143.925h8v8h-8z"/><path d="m196 155.925h8v8h-8z"/><path d="m208 155.925h8v8h-8z"/><path d="m220 155.925h8v8h-8z"/><path d="m196 167.925h8v8h-8z"/><path d="m208 167.925h8v8h-8z"/><path d="m220 167.925h8v8h-8z"/><path d="m232 155.925h8v20h-8z"/><path d="m168 143.925h8v8h-8z"/><path d="m180 143.925h8v8h-8z"/><path d="m156 155.925h8v8h-8z"/><path d="m168 155.925h8v8h-8z"/><path d="m180 155.925h8v8h-8z"/><path d="m140 143.925h8v20h-8z"/><path d="m40 131.925h8v8h-8z"/><path d="m52 131.925h8v8h-8z"/><path d="m64 131.925h8v8h-8z"/><path d="m76 131.925h8v8h-8z"/><path d="m88 131.925h8v8h-8z"/><path d="m100 131.925h8v8h-8z"/><path d="m112 131.925h8v8h-8z"/><path d="m124 131.925h8v8h-8z"/><path d="m136 131.925h12v8h-12z"/><path d="m156 131.925h12v8h-12z"/><path d="m176 131.925h12v8h-12z"/><path d="m16 155.85h16v8.075h-16z"/><path d="m16 167.925h16v8.075h-16z"/><path d="m120 167.925h16v8.075h-16z"/><path d="m36 167.925h80v8.075h-80z"/></g></svg>