<svg enable-background="new 0 0 256 256" viewBox="0 0 256 256" xmlns="http://www.w3.org/2000/svg"><path d="m171.885 18.658-8.864-6.658h-35.021-35.021l-8.864 6.658-4.115 52.655 10.763 168.862 7.782 3.825h29.455 29.455l7.782-3.825 10.763-168.862z" fill="#2b3e51"/><path d="m98 128h60v116h-60z" fill="#bdc1c6"/><path d="m79.556 22.361 4.592-2.361 3.852 3.934-2.222 37.141-5.482 6.925-4.296-2.833z" fill="#e94b36"/><path d="m176.444 22.361-4.592-2.361-3.852 3.934 2.222 37.141 5.482 6.925 4.296-2.833z" fill="#e94b36"/><g fill="#223140"><path d="m98 12h60v4h-60z"/><path d="m98 20h60v4h-60z"/><path d="m98 28h60v4h-60z"/><path d="m98 36h60v4h-60z"/><path d="m98 44h60v4h-60z"/><path d="m98 52h60v4h-60z"/><path d="m98 60h60v4h-60z"/></g><path d="m98 68h60v60h-60z" fill="#35495f"/><path d="m128 98 30-30h-60z" fill="#223140"/><path d="m128 98-30 30h60z" fill="#223140"/><circle cx="128" cy="98" fill="#2b3e51" r="20"/><circle cx="128" cy="98" fill="#223140" r="14"/><path clip-rule="evenodd" d="m114.059 148h15.882c1.137 0 2.059.867 2.059 1.935v76.129c0 1.069-.922 1.935-2.059 1.935h-15.882c-1.137 0-2.059-.867-2.059-1.935v-76.129c0-1.068.922-1.935 2.059-1.935z" fill="#dadfe0" fill-rule="evenodd"/><path clip-rule="evenodd" d="m137.266 148h6.734v20h-6.734z" fill="#1baf5d" fill-rule="evenodd"/><path clip-rule="evenodd" d="m137.266 168h6.734v20h-6.734z" fill="#227fbb" fill-rule="evenodd"/><path clip-rule="evenodd" d="m137.266 188h6.734v20h-6.734z" fill="#d55400" fill-rule="evenodd"/><path clip-rule="evenodd" d="m137.266 208h6.734v20h-6.734z" fill="#f2c500" fill-rule="evenodd"/><path d="m98 236h60v8h-60z" fill="#93a3a3"/></svg>