<svg enable-background="new 0 0 256 256" viewBox="0 0 256 256" xmlns="http://www.w3.org/2000/svg"><path d="m226.8 12h-197.6c-2.876 0-5.2 2.254-5.2 5.043v221.913c0 2.789 2.324 5.043 5.2 5.043h197.6c2.876 0 5.2-2.254 5.2-5.043v-221.913c0-2.789-2.324-5.043-5.2-5.043z" fill="#35495f"/><path d="m212.408 32h-168.816c-4.186 0-7.592 3.37-7.592 7.513v188.973c0 4.143 3.406 7.513 7.592 7.513h168.817c4.186 0 7.592-3.37 7.592-7.513v-188.973c-.001-4.143-3.407-7.513-7.593-7.513z" fill="#2b3e51"/><path d="m68.5 76h119c4.694 0 8.5 3.806 8.5 8.5v119c0 4.695-3.806 8.5-8.5 8.5h-119c-4.694 0-8.5-3.805-8.5-8.5v-119c0-4.694 3.806-8.5 8.5-8.5z" fill="#1b80bb"/></svg>