<svg xmlns="http://www.w3.org/2000/svg" viewBox="0 0 256 256"><path fill="#7f8c8d" fill-rule="evenodd" d="M50.038 38.301S88.266 36 127.445 36c38.862 0 78.597 2.301 78.597 2.301 6.424 0 11.659 5.237 11.659 11.664 0 0 2.3 39.434 2.3 78.63 0 38.799-2.3 77.44-2.3 77.44 0 6.427-5.234 11.664-11.659 11.664 0 0-39.814 2.301-78.597 2.301-39.179 0-77.486-2.301-77.486-2.301-6.424 0-11.659-5.237-11.659-11.664 0 0-2.3-39.276-2.3-78.392 0-38.879 2.3-77.678 2.3-77.678.079-6.427 5.314-11.664 11.738-11.664" clip-rule="evenodd"/><path fill="#eef0f1" d="M166.752 84c-1.95-15.805-15.667-28-32-28-10.651 0-18.183 3.996-24 12h-8c-8.837 0-16 7.163-16 16-20.058 1.039-36 17.683-36 38 0 20.987 15.013 38 36 38h80c20.987 0 36-17.013 36-38 0-20.401-15.825-37.086-36-38"/><path fill="#1b80bb" d="m126.768 184 39.984-48h-24V88a8 8 0 0 0-8-8h-16a8 8 0 0 0-8 8v48h-24zm-36.016 16h72a4 4 0 0 0 0-8h-72a4 4 0 0 0 0 8"/></svg>