<svg height="245.33333" viewBox="0 0 245.33333 245.33333" width="245.33333" xmlns="http://www.w3.org/2000/svg" xmlns:xlink="http://www.w3.org/1999/xlink"><clipPath id="a"><path d="m0 256h256v-256h-256z"/></clipPath><g clip-path="url(#a)" transform="matrix(1.3333333 0 0 -1.3333333 -47.999865 293.33333)"><path d="m0 0s38.228 2.301 77.407 2.301c38.862 0 78.596-2.301 78.596-2.301 6.425 0 11.659-5.237 11.659-11.664 0 0 2.3-39.434 2.3-78.63 0-38.8-2.3-77.44-2.3-77.44 0-6.427-5.234-11.664-11.659-11.664 0 0-39.813-2.301-78.596-2.301-39.179 0-77.486 2.301-77.486 2.301-6.424 0-11.659 5.237-11.659 11.664 0 0-2.3 39.275-2.3 78.392 0 38.879 2.3 77.678 2.3 77.678.079 6.427 5.314 11.664 11.738 11.664" fill="#36495f" fill-rule="evenodd" transform="translate(50.0379 217.699)"/><path d="m0 0c-70.842 0-85.333-10.792-85.333-64s14.266-64 85.333-64c71.076 0 85.333 10.771 85.333 64 0 53.234-14.491 64-85.333 64" fill="#2c3f51" transform="translate(128 192)"/><g fill="#eef0f1"><path d="m128 180h-4v8h4z"/><path d="m128 168h-4v8h4z"/><path d="m128 156h-4v8h4z"/><path d="m128 144h-4v8h4z"/><path d="m128 132h-4v8h4z"/><path d="m56 144h-4v16h4z"/><path d="m204 92h-4v16h4z"/><path d="m128 120h-4v8h4z"/><path d="m128 108h-4v8h4z"/><path d="m128 96h-4v8h4z"/><path d="m128 84h-4v8h4z"/><path d="m128 72h-4v8h4z"/><path d="m100 140h-4v4h4z"/></g></g></svg>