<svg xmlns="http://www.w3.org/2000/svg" viewBox="0 0 256 256"><path fill="#36495f" d="M15.742 60h224.516A3.733 3.733 0 0 1 244 63.724v100.552a3.733 3.733 0 0 1-3.742 3.724H15.742A3.733 3.733 0 0 1 12 164.276V63.724A3.733 3.733 0 0 1 15.742 60"/><path fill="#2c3f51" d="M25.097 186h205.806c5.183 0 11.226.43 11.226 5.613s-4.172 9.355-9.355 9.355H23.226c-5.183 0-9.355-4.172-9.355-9.355S19.914 186 25.097 186"/><path fill="#2c3f51" d="M21.729 172h212.542c2.059 0 3.729 1.567 3.729 3.5v21c0 1.933-1.669 3.5-3.729 3.5H21.729C19.67 200 18 198.433 18 196.5v-21c0-1.933 1.669-3.5 3.729-3.5"/><path fill="#2c3f51" d="M17.738 160h220.525c2.064 0 3.738 1.007 3.738 2.25v13.5c0 1.243-1.673 2.25-3.738 2.25H17.738c-2.064 0-3.738-1.007-3.738-2.25v-13.5c0-1.243 1.673-2.25 3.738-2.25"/><path fill="#14a386" d="M22 168h212v28H22z"/><path fill="#eef0f1" d="M20 164h216v8H20z"/><path fill="#d45727" d="M26 172v24h4v-24zm8 0v20h4v-20zm8 0v20h4v-20zm8 0v20h4v-20zm8 0v20h4v-20zm8 0v20h4v-20zm8 0v20h4v-20zm8 0v20h4v-20zm8 0v20h4v-20zm8 0v20h4v-20zm8 0v20h4v-20zm8 0v20h4v-20zm8 0v24h4v-24zm8 0v24h4v-24zm8 0v20h4v-20zm8 0v20h4v-20zm8 0v20h4v-20zm8 0v20h4v-20zm8 0v20h4v-20zm8 0v20h4v-20zm8 0v20h4v-20zm8 0v20h4v-20zm8 0v20h4v-20zm8 0v20h4v-20zm8 0v20h4v-20zm8 0v24h4v-24z"/><path fill="#2c3f51" d="M29.31 76h197.38c5.142 0 9.31 4.274 9.31 9.545v64.909c0 5.272-4.168 9.545-9.31 9.545H29.31c-5.142 0-9.31-4.274-9.31-9.545V85.545C20 80.274 24.168 76 29.31 76"/><path fill="#1b80bb" d="M32.963 80h190.074c4.952 0 8.966 3.867 8.966 8.636v58.727c0 4.77-4.014 8.636-8.966 8.636H32.963c-4.952 0-8.966-3.867-8.966-8.636V88.636c0-4.769 4.015-8.636 8.966-8.636"/><path fill="#2c3f51" d="M85.538 64h84.923c3.059 0 5.538 1.791 5.538 4s-2.48 4-5.538 4H85.538C82.48 72 80 70.209 80 68s2.48-4 5.538-4"/></svg>