<svg xmlns="http://www.w3.org/2000/svg" viewBox="0 0 256 256"><path fill="#36495f" d="M237.662 98.131C236.714 90.073 229.885 84 221.772 84H34.228c-8.113 0-14.942 6.073-15.89 14.131L12 152c0 9.941 51.935 16 116 16s116-6.059 116-16z"/><ellipse cx="48" cy="124" fill="#864c9d" rx="8" ry="6"/><ellipse cx="64" cy="108" fill="#eb4c37" rx="6" ry="8"/><ellipse cx="64" cy="140" fill="#f29d22" rx="6" ry="8"/><ellipse cx="80" cy="124" fill="#28b997" rx="8" ry="6"/><path fill="#2c3f51" d="M112 84v8c0 2.209 7.163 4 16 4s16-1.791 16-4v-8z"/><circle cx="174" cy="126" r="10" fill="#efc51c"/><circle cx="210" cy="122" r="10" fill="#bec2c7"/></svg>