<svg xmlns="http://www.w3.org/2000/svg" viewBox="0 0 256 256"><path fill="#bec2c7" d="M68 12h120v232H68z"/><path fill="#eef0f1" d="M128 164c-19.85 0-36 16.15-36 36s16.15 36 36 36 36-16.15 36-36-16.15-36-36-36"/><path fill="#bfbfbf" d="M128 168c-17.645 0-32 14.355-32 32s14.355 32 32 32 32-14.355 32-32-14.355-32-32-32"/><path fill="#eef0f1" d="M80 24h96v116H80z"/><path fill="#bec2c7" d="M84 28h88v108H84z"/><path fill="#e6e6e6" d="M88 32h80v100H88z"/><circle cx="128" cy="200" r="28" fill="#eef0f1"/><path fill="#2c3f51" d="M112 56H96a2 2 0 0 1-2-2V38a2 2 0 0 1 2-2h16a2 2 0 0 1 2 2v16a2 2 0 0 1-2 2m24 0h-16a2 2 0 0 1-2-2V38a2 2 0 0 1 2-2h16a2 2 0 0 1 2 2v16a2 2 0 0 1-2 2m24 0h-16a2 2 0 0 1-2-2V38a2 2 0 0 1 2-2h16a2 2 0 0 1 2 2v16a2 2 0 0 1-2 2m-48 24H96a2 2 0 0 1-2-2V62a2 2 0 0 1 2-2h16a2 2 0 0 1 2 2v16a2 2 0 0 1-2 2m24 0h-16a2 2 0 0 1-2-2V62a2 2 0 0 1 2-2h16a2 2 0 0 1 2 2v16a2 2 0 0 1-2 2m24 0h-16a2 2 0 0 1-2-2V62a2 2 0 0 1 2-2h16a2 2 0 0 1 2 2v16a2 2 0 0 1-2 2m-48 24H96a2 2 0 0 1-2-2V86a2 2 0 0 1 2-2h16a2 2 0 0 1 2 2v16a2 2 0 0 1-2 2m24 0h-16a2 2 0 0 1-2-2V86a2 2 0 0 1 2-2h16a2 2 0 0 1 2 2v16a2 2 0 0 1-2 2m24 0h-16a2 2 0 0 1-2-2V86a2 2 0 0 1 2-2h16a2 2 0 0 1 2 2v16a2 2 0 0 1-2 2m-48 24H96a2 2 0 0 1-2-2v-16a2 2 0 0 1 2-2h16a2 2 0 0 1 2 2v16a2 2 0 0 1-2 2m24 0h-16a2 2 0 0 1-2-2v-16a2 2 0 0 1 2-2h16a2 2 0 0 1 2 2v16a2 2 0 0 1-2 2m24 0h-16a2 2 0 0 1-2-2v-16a2 2 0 0 1 2-2h16a2 2 0 0 1 2 2v16a2 2 0 0 1-2 2"/><path fill="#94a4a4" d="M68 148h120v4H68z"/></svg>