<svg height="112" viewBox="0 0 309.33331 112" width="309.33331" xmlns="http://www.w3.org/2000/svg" xmlns:xlink="http://www.w3.org/1999/xlink"><clipPath id="a"><path d="m0 256h256v-256h-256z"/></clipPath><g clip-path="url(#a)" transform="matrix(1.3333333 0 0 -1.3333333 -16.000533 229.33386)"><path d="m0 0c-.948 8.058-7.777 14.131-15.89 14.131h-187.544c-8.114 0-14.943-6.073-15.891-14.131l-6.337-53.869c0-9.942 51.935-16 116-16s116 6.058 116 16z" fill="#36495f" transform="translate(237.6624 157.8694)"/><path d="m0 0c0-3.314-3.582-6-8-6s-8 2.686-8 6 3.582 6 8 6 8-2.686 8-6" fill="#864c9d" transform="translate(56 132)"/><path d="m0 0c-3.314 0-6 3.582-6 8s2.686 8 6 8 6-3.582 6-8-2.686-8-6-8" fill="#eb4c37" transform="translate(64 140)"/><path d="m0 0c-3.314 0-6 3.582-6 8s2.686 8 6 8 6-3.582 6-8-2.686-8-6-8" fill="#f29d22" transform="translate(64 108)"/><path d="m0 0c0-3.314-3.582-6-8-6s-8 2.686-8 6 3.582 6 8 6 8-2.686 8-6" fill="#28b997" transform="translate(88 132)"/><path d="m0 0v-8c0-2.209 7.163-4 16-4s16 1.791 16 4v8z" fill="#2c3f51" transform="translate(112 172)"/><path d="m0 0c0-5.523-4.477-10-10-10s-10 4.477-10 10 4.477 10 10 10 10-4.477 10-10" fill="#efc51c" transform="translate(184 130)"/><path d="m0 0c0-5.523-4.477-10-10-10s-10 4.477-10 10 4.477 10 10 10 10-4.477 10-10" fill="#bec2c7" transform="translate(220 134)"/></g></svg>