<svg enable-background="new 0 0 256 256" viewBox="0 0 256 256" xmlns="http://www.w3.org/2000/svg"><path d="m60 68h20v116h-20z" fill="#dadfe0"/><path d="m60 88h20v72h-20z" fill="#93a3a3"/><path d="m44 224h-12c-11.046 0-20-8.954-20-20v-152c0-11.046 8.954-20 20-20h12c11.046 0 20 8.954 20 20v152c0 11.046-8.954 20-20 20z" fill="#ececed"/><path d="m84 32c-6.627 0-12 5.373-12 12v46c0 1.105.895 2 2 2 1.105 0 2 .895 2 2v118c0 6.627 5.373 12 12 12h144c6.627 0 12-5.373 12-12v-168c0-6.627-5.373-12-12-12z" fill="#ececed"/><path d="m86 52h-14v-4h14c1.105 0 2 .895 2 2 0 1.105-.895 2-2 2z" fill="#dadfe0"/><path d="m86 60h-14v-4h14c1.105 0 2 .895 2 2 0 1.105-.895 2-2 2z" fill="#dadfe0"/><path d="m86 68h-14v-4h14c1.105 0 2 .895 2 2 0 1.105-.895 2-2 2z" fill="#dadfe0"/><path d="m226 52h18v-4h-18c-1.105 0-2 .895-2 2 0 1.105.895 2 2 2z" fill="#dadfe0"/><path d="m226 60h18v-4h-18c-1.105 0-2 .895-2 2 0 1.105.895 2 2 2z" fill="#dadfe0"/><path d="m226 68h18v-4h-18c-1.105 0-2 .895-2 2 0 1.105.895 2 2 2z" fill="#dadfe0"/><path d="m216 204h-32c-4.418 0-8-3.582-8-8v-88c0-4.418 3.582-8 8-8h32c4.418 0 8 3.582 8 8v88c0 4.418-3.582 8-8 8z" fill="#3394d1"/><path d="m212 192h-24v-4c0-2.209 1.791-4 4-4h16c2.209 0 4 1.791 4 4z" fill="#93a3a3"/><path d="m208 196h-16c-2.209 0-4-1.791-4-4 0-2.209 1.791-4 4-4h16c2.209 0 4 1.791 4 4 0 2.209-1.791 4-4 4z" fill="#ececed"/><g fill="#1b80bb"><path d="m180.586 111.414 36 36c.781.781 2.047.781 2.828 0s.781-2.047 0-2.828l-36-36c-.391-.391-.902-.586-1.414-.586s-1.023.195-1.414.586c-.781.781-.781 2.047 0 2.828z"/><path d="m206 148c1.782 0 2.674-2.154 1.414-3.414l-24-24c-.391-.391-.902-.586-1.414-.586-.56 0-1.12.234-1.522.702-.694.809-.56 2.045.194 2.798l23.914 23.914c.375.375.884.586 1.414.586z"/><path d="m181.878 148h.831c1.52 0 2.281-1.837 1.206-2.912l-.502-.502c-.39-.391-.901-.586-1.413-.586-.56 0-1.12.234-1.522.702-.694.809-.56 2.045.194 2.798.32.32.754.5 1.206.5z"/><path d="m194 148c1.782 0 2.674-2.154 1.414-3.414l-12-12c-.391-.391-.902-.586-1.414-.586-.56 0-1.12.234-1.522.702-.694.809-.56 2.045.194 2.798l11.914 11.914c.375.375.884.586 1.414.586z"/><path d="m190 104c-1.782 0-2.674 2.154-1.414 3.414l27.924 27.924c.705.705 1.839.877 2.648.295 1.03-.741 1.116-2.188.257-3.046l-28-28c-.376-.376-.885-.587-1.415-.587z"/><path d="m214 104c-1.782 0-2.674 2.154-1.414 3.414l3.924 3.924c.705.705 1.839.877 2.648.295 1.03-.741 1.116-2.188.257-3.046l-4-4c-.376-.376-.885-.587-1.415-.587z"/><path d="m202 104c-1.782 0-2.674 2.154-1.414 3.414l15.924 15.924c.705.705 1.839.877 2.648.295 1.03-.741 1.116-2.188.257-3.046l-16-16c-.376-.376-.885-.587-1.415-.587z"/></g><path d="m156 100h-14c-1.105 0-2-.895-2-2v-2c0-2.209-1.791-4-4-4h-16c-2.209 0-4 1.791-4 4v2c0 1.105-.895 2-2 2h-14c-4.418 0-8 3.582-8 8v88c0 4.418 3.582 8 8 8h56c4.418 0 8-3.582 8-8v-88c0-4.418-3.582-8-8-8z" fill="#dadfe0"/><path d="m122 152h-24c-1.105 0-2-.895-2-2v-20c0-1.105.895-2 2-2h24c1.105 0 2 .895 2 2v20c0 1.105-.895 2-2 2z" fill="#c13c28"/><circle cx="110" cy="140" fill="#e94b36" r="10"/><path d="m158 152h-24c-1.105 0-2-.895-2-2v-20c0-1.105.895-2 2-2h24c1.105 0 2 .895 2 2v20c0 1.105-.895 2-2 2z" fill="#10a284"/><circle cx="146" cy="140" fill="#25b796" r="10"/><path d="m122 200h-24c-1.105 0-2-.895-2-2v-20c0-1.105.895-2 2-2h24c1.105 0 2 .895 2 2v20c0 1.105-.895 2-2 2z" fill="#1b80bb"/><circle cx="110" cy="188" fill="#3394d1" r="10"/><path d="m158 200h-24c-1.105 0-2-.895-2-2v-20c0-1.105.895-2 2-2h24c1.105 0 2 .895 2 2v20c0 1.105-.895 2-2 2z" fill="#f19c21"/><circle cx="146" cy="188" fill="#eec41b" r="10"/></svg>