<svg xmlns="http://www.w3.org/2000/svg" viewBox="0 0 256 256"><path fill="#35495f" d="M244 140H12l4-72h224z"/><path fill="#bdc1c6" d="m12 140 3.088 9.265A4 4 0 0 0 18.883 152h54.645c1.515 0 2.9.856 3.578 2.211l14.472 28.944A16 16 0 0 0 105.889 192h123.248a8 8 0 0 0 7.907-6.784L244 140z"/><path fill="#2b3e51" d="M28 80h28v4H28z"/><path fill="#e94b36" d="M136 88h-4a4 4 0 0 1 0-8h4a4 4 0 0 1 0 8m0 16h-4a4 4 0 0 1 0-8h4a4 4 0 0 1 0 8"/><path fill="#bdc1c6" d="M168 88h-4a4 4 0 0 1 0-8h4a4 4 0 0 1 0 8m16 0h-4a4 4 0 0 1 0-8h4a4 4 0 0 1 0 8m16 0h-4a4 4 0 0 1 0-8h4a4 4 0 0 1 0 8m16 0h-4a4 4 0 0 1 0-8h4a4 4 0 0 1 0 8m-48 16h-4a4 4 0 0 1 0-8h4a4 4 0 0 1 0 8m16 0h-4a4 4 0 0 1 0-8h4a4 4 0 0 1 0 8m16 0h-4a4 4 0 0 1 0-8h4a4 4 0 0 1 0 8m16 0h-4a4 4 0 0 1 0-8h4a4 4 0 0 1 0 8"/><path fill="#f19c21" d="M168 120h-4a4 4 0 0 1 0-8h4a4 4 0 0 1 0 8m48 0h-4a4 4 0 0 1 0-8h4a4 4 0 0 1 0 8"/><circle cx="130" cy="122" r="2" fill="#c13c28"/><path fill="#2b3e51" d="M243.222 126H112c-1.103 0-2-.897-2-2V76c0-1.103.897-2 2-2h128.333l-.111-2H112a4 4 0 0 0-4 4v48a4 4 0 0 0 4 4h131.333z"/></svg>