<svg xmlns="http://www.w3.org/2000/svg" viewBox="0 0 256 256"><path fill="#f19c21" d="M52 188h152v12H52z"/><path fill="#edefef" d="m241.94 168.132-2.248-35.994a15.92 15.92 0 0 0-1.12-17.926l-2.637-42.216c0-8.837-7.159-16.001-15.991-16.001H36.055c-8.831 0-15.991 7.164-15.991 16.001l-6.004 96.136c-1.057 16.929 12.09 31.292 28.897 31.856.683.023 16.363-.014 17.044-.076l26.672-3.785a30 30 0 0 1 2.71-.123h77.236q1.358 0 2.71.123L196 199.912c.68.062 16.361.098 17.044.076 16.806-.565 29.954-14.928 28.896-31.856"/><path fill="#f19c21" d="m20.474 120 2.999-47.99c0-1.388.195-2.727.527-4.01h-3.413a16 16 0 0 0-.523 3.996L17.066 120z"/><path fill="#bdc1c6" d="m176.51 160-35.362 2.916c-8.751.722-17.546.722-26.297 0L79.49 160c-6.425 0-11.71-5.06-11.989-11.479l-2.957-68C64.248 73.696 69.701 68 76.533 68h102.934c6.832 0 12.285 5.696 11.989 12.521l-2.957 68C188.22 154.94 182.935 160 176.51 160"/><path fill="#7f8b8c" d="M76 80h104v72H76z"/><circle cx="52" cy="112" r="4" fill="#93a3a3"/><circle cx="204" cy="112" r="4" fill="#d35400"/><circle cx="40" cy="126" r="8" fill="#d35627"/><circle cx="214" cy="142" r="10" fill="#f19c21"/><circle cx="214" cy="142" r="6" fill="#e77f25"/><path fill="#f19c21" d="M226 116c-5.523 0-10 4.477-10 10 0 .744.087 1.466.241 2.164A10 10 0 0 1 218 128c4.779 0 8.769 3.355 9.759 7.836 4.683-.832 8.241-4.914 8.241-9.836 0-5.523-4.477-10-10-10m-24 52c5.523 0 10-4.477 10-10 0-.744-.087-1.466-.241-2.164A10 10 0 0 1 210 156c-4.779 0-8.769-3.355-9.759-7.836-4.682.832-8.241 4.914-8.241 9.836 0 5.523 4.477 10 10 10"/><circle cx="40" cy="158" r="8" fill="#d35627"/><circle cx="199" cy="71" r="1" fill="#93a3a3"/><circle cx="203" cy="71" r="1" fill="#93a3a3"/><circle cx="207" cy="71" r="1" fill="#93a3a3"/><circle cx="211" cy="71" r="1" fill="#7f8b8c"/><circle cx="215" cy="71" r="1" fill="#93a3a3"/><circle cx="219" cy="71" r="1" fill="#7f8b8c"/><circle cx="223" cy="71" r="1" fill="#93a3a3"/><circle cx="227" cy="71" r="1" fill="#93a3a3"/><circle cx="199" cy="75" r="1" fill="#93a3a3"/><circle cx="203" cy="75" r="1" fill="#93a3a3"/><circle cx="207" cy="75" r="1" fill="#7f8b8c"/><circle cx="211" cy="75" r="1" fill="#93a3a3"/><circle cx="215" cy="75" r="1" fill="#7f8b8c"/><circle cx="219" cy="75" r="1" fill="#93a3a3"/><circle cx="223" cy="75" r="1" fill="#7f8b8c"/><circle cx="227" cy="75" r="1" fill="#93a3a3"/><circle cx="199" cy="79" r="1" fill="#93a3a3"/><circle cx="203" cy="79" r="1" fill="#7f8b8c"/><circle cx="207" cy="79" r="1" fill="#93a3a3"/><circle cx="211" cy="79" r="1" fill="#7f8b8c"/><circle cx="215" cy="79" r="1" fill="#93a3a3"/><circle cx="219" cy="79" r="1" fill="#7f8b8c"/><circle cx="223" cy="79" r="1" fill="#93a3a3"/><circle cx="227" cy="79" r="1" fill="#7f8b8c"/><circle cx="199" cy="83" r="1" fill="#93a3a3"/><circle cx="203" cy="83" r="1" fill="#93a3a3"/><circle cx="207" cy="83" r="1" fill="#7f8b8c"/><circle cx="211" cy="83" r="1" fill="#93a3a3"/><circle cx="215" cy="83" r="1" fill="#7f8b8c"/><circle cx="219" cy="83" r="1" fill="#93a3a3"/><circle cx="223" cy="83" r="1" fill="#7f8b8c"/><circle cx="227" cy="83" r="1" fill="#93a3a3"/><circle cx="199" cy="87" r="1" fill="#93a3a3"/><circle cx="203" cy="87" r="1" fill="#7f8b8c"/><circle cx="207" cy="87" r="1" fill="#93a3a3"/><circle cx="211" cy="87" r="1" fill="#7f8b8c"/><circle cx="215" cy="87" r="1" fill="#93a3a3"/><circle cx="219" cy="87" r="1" fill="#7f8b8c"/><circle cx="223" cy="87" r="1" fill="#93a3a3"/><circle cx="227" cy="87" r="1" fill="#7f8b8c"/><circle cx="199" cy="91" r="1" fill="#93a3a3"/><circle cx="203" cy="91" r="1" fill="#93a3a3"/><circle cx="207" cy="91" r="1" fill="#7f8b8c"/><circle cx="211" cy="91" r="1" fill="#93a3a3"/><circle cx="215" cy="91" r="1" fill="#7f8b8c"/><circle cx="219" cy="91" r="1" fill="#93a3a3"/><circle cx="223" cy="91" r="1" fill="#7f8b8c"/><circle cx="227" cy="91" r="1" fill="#93a3a3"/><circle cx="199" cy="95" r="1" fill="#93a3a3"/><circle cx="203" cy="95" r="1" fill="#93a3a3"/><circle cx="207" cy="95" r="1" fill="#93a3a3"/><circle cx="211" cy="95" r="1" fill="#7f8b8c"/><circle cx="215" cy="95" r="1" fill="#93a3a3"/><circle cx="219" cy="95" r="1" fill="#7f8b8c"/><g fill="#93a3a3"><circle cx="223" cy="95" r="1"/><circle cx="227" cy="95" r="1"/><circle cx="199" cy="99" r="1"/><circle cx="231" cy="71" r="1"/><circle cx="231" cy="75" r="1"/><circle cx="231" cy="79" r="1"/><circle cx="231" cy="83" r="1"/><circle cx="231" cy="87" r="1"/><circle cx="231" cy="91" r="1"/><circle cx="231" cy="95" r="1"/><circle cx="231" cy="99" r="1"/><circle cx="203" cy="99" r="1"/><circle cx="207" cy="99" r="1"/><circle cx="211" cy="99" r="1"/><circle cx="215" cy="99" r="1"/><circle cx="219" cy="99" r="1"/><circle cx="223" cy="99" r="1"/><circle cx="227" cy="99" r="1"/></g><path fill="#d35627" d="M59.979 141.579c-.004-.059-.003-.117-.009-.176C59.664 137.265 56.217 134 52 134a7.93 7.93 0 0 0-5.164 1.901C45.327 137.187 43.473 138 41.49 138h-2.98c-1.983 0-3.836-.813-5.345-2.099A7.94 7.94 0 0 0 28 134c-4.217 0-7.664 3.265-7.97 7.404-.006.059-.005.117-.009.176-.007.14-.021.278-.021.42l.004.072c.001.083.008.164.012.246C20.184 146.587 23.689 150 28 150a7.93 7.93 0 0 0 5.164-1.901c1.509-1.286 3.363-2.099 5.345-2.099h2.981c1.983 0 3.836.813 5.345 2.099A7.94 7.94 0 0 0 52 150c4.311 0 7.816-3.413 7.984-7.682.004-.082.011-.163.012-.246 0-.024.004-.048.004-.072 0-.142-.014-.28-.021-.421"/></svg>