<svg height="176" viewBox="0 0 309.33331 176" width="309.33331" xmlns="http://www.w3.org/2000/svg" xmlns:xlink="http://www.w3.org/1999/xlink"><clipPath id="a"><path d="m0 256h256v-256h-256z"/></clipPath><g clip-path="url(#a)" transform="matrix(1.3333333 0 0 -1.3333333 -16 255.99999)"><path d="m0 0h-176c-15.464 0-28 12.536-28 28l4 88c0 8.837 3.163 16 12 16h200c8.837 0 12-7.163 12-16l4-88c0-15.464-12.536-28-28-28" fill="#35495f" transform="translate(216 60)"/><path d="m0 0h-168c-6.627 0-12-12.536-12-28s5.373-28 12-28h168c6.627 0 12 12.536 12 28s-5.373 28-12 28" fill="#bdc1c6" transform="translate(216 188)"/><path d="m216 140h-168v40h168z" fill="#7f8b8c"/><path d="m0 0h-4c-2.209 0-4 1.791-4 4 0 2.209 1.791 4 4 4h4c2.209 0 4-1.791 4-4 0-2.209-1.791-4-4-4" fill="#eec41b" transform="translate(28 116)"/><g fill="#2b3e51"><path d="m0 0c0-2.209-2.686-4-6-4s-6 1.791-6 4 2.686 4 6 4 6-1.791 6-4" transform="translate(112 112)"/><path d="m0 0c0-2.209-2.686-4-6-4s-6 1.791-6 4 2.686 4 6 4 6-1.791 6-4" transform="translate(112 96)"/><path d="m0 0c0-2.209-2.686-4-6-4s-6 1.791-6 4 2.686 4 6 4 6-1.791 6-4" transform="translate(140 112)"/><path d="m0 0c0-2.209-2.686-4-6-4s-6 1.791-6 4 2.686 4 6 4 6-1.791 6-4" transform="translate(140 96)"/><path d="m0 0c0-2.209-1.791-4-4-4s-4 1.791-4 4 1.791 4 4 4 4-1.791 4-4" transform="translate(110 80)"/><path d="m0 0c0-2.209-1.791-4-4-4s-4 1.791-4 4 1.791 4 4 4 4-1.791 4-4" transform="translate(138 80)"/></g><path d="m0 0c0-13.255-10.745-24-24-24s-24 10.745-24 24 10.745 24 24 24 24-10.745 24-24" fill="#bdc1c6" transform="translate(84 96)"/><path d="m0 0c0-4.418-3.582-8-8-8s-8 3.582-8 8 3.582 8 8 8 8-3.582 8-8" fill="#bdc1c6" transform="translate(220 84)"/><path d="m0 0-11.314 11.314 11.314 11.313c.781.781.781 2.048 0 2.829s-2.047.781-2.828 0l-11.314-11.314-11.314 11.314c-.781.781-2.047.781-2.828 0s-.781-2.048 0-2.829l11.313-11.313-11.313-11.314c-.781-.781-.781-2.047 0-2.828s2.047-.781 2.828 0l11.314 11.313 11.314-11.313c.781-.781 2.047-.781 2.828 0s.781 2.047 0 2.828" fill="#edefef" transform="translate(74.1421 84.6863)"/><path d="m0 0c-3.126-3.752-5.832-7.853-8.028-12.242-2.838-5.673 1.22-12.356 7.563-12.356 3.262 0 6.188 1.893 7.647 4.811 1.509 3.018 3.349 5.883 5.465 8.545z" fill="#bdc1c6" transform="translate(165.8166 100.5976)"/><path d="m0 0c-9.659-3.528-18.295-9.251-25.208-16.578l12.606-11.205c5.438 5.826 12.298 10.411 19.96 13.067z" fill="#bdc1c6" transform="translate(193.6793 120.1688)"/><path d="m0 0v.132c-6.398 0-12.6-.956-18.48-2.699l7.414-14.827c3.566.897 7.27 1.394 11.066 1.394 4.418 0 8 3.582 8 8s-3.582 8-8 8" fill="#bdc1c6" transform="translate(216 124)"/></g></svg>