<svg xmlns="http://www.w3.org/2000/svg" viewBox="0 0 256 256"><path fill="#35495f" d="M216 196H40c-15.464 0-28-12.536-28-28l4-88c0-8.837 3.163-16 12-16h200c8.837 0 12 7.163 12 16l4 88c0 15.464-12.536 28-28 28"/><path fill="#bdc1c6" d="M216 68H48c-6.627 0-12 12.536-12 28s5.373 28 12 28h168c6.627 0 12-12.536 12-28s-5.373-28-12-28"/><path fill="#7f8b8c" d="M48 76h168v40H48z"/><path fill="#eec41b" d="M28 140h-4a4 4 0 0 1 0-8h4a4 4 0 0 1 0 8"/><g fill="#2b3e51"><ellipse cx="106" cy="144" rx="6" ry="4"/><ellipse cx="106" cy="160" rx="6" ry="4"/><ellipse cx="134" cy="144" rx="6" ry="4"/><ellipse cx="134" cy="160" rx="6" ry="4"/><circle cx="106" cy="176" r="4"/><circle cx="134" cy="176" r="4"/></g><circle cx="60" cy="160" r="24" fill="#bdc1c6"/><circle cx="212" cy="172" r="8" fill="#bdc1c6"/><path fill="#edefef" d="M74.142 171.314 62.828 160l11.314-11.314a2 2 0 1 0-2.828-2.828L60 157.172l-11.314-11.314a2 2 0 1 0-2.828 2.828L57.172 160l-11.314 11.314a2 2 0 1 0 2.828 2.828L60 162.828l11.314 11.314a2 2 0 1 0 2.828-2.828"/><path fill="#bdc1c6" d="M165.817 155.402a63.6 63.6 0 0 0-8.028 12.242c-2.838 5.673 1.22 12.355 7.563 12.355 3.262 0 6.188-1.893 7.647-4.81a49 49 0 0 1 5.465-8.546zm27.862-19.571a65.7 65.7 0 0 0-25.208 16.578l12.606 11.205c5.438-5.826 12.298-10.411 19.96-13.067zM216 132v-.132c-6.398 0-12.6.956-18.48 2.699l7.414 14.828A45.3 45.3 0 0 1 216 148a8 8 0 0 0 0-16"/></svg>