<svg height="245.33333" viewBox="0 0 245.33333 245.33333" width="245.33333" xmlns="http://www.w3.org/2000/svg" xmlns:xlink="http://www.w3.org/1999/xlink"><clipPath id="a"><path d="m0 256h256v-256h-256z"/></clipPath><g clip-path="url(#a)" transform="matrix(1.3333333 0 0 -1.3333333 -47.999865 293.33333)"><path d="m0 0s38.228 2.301 77.407 2.301c38.862 0 78.596-2.301 78.596-2.301 6.425 0 11.659-5.237 11.659-11.664 0 0 2.3-39.434 2.3-78.63 0-38.8-2.3-77.44-2.3-77.44 0-6.427-5.234-11.664-11.659-11.664 0 0-39.813-2.301-78.596-2.301-39.179 0-77.486 2.301-77.486 2.301-6.424 0-11.659 5.237-11.659 11.664 0 0-2.3 39.275-2.3 78.392 0 38.879 2.3 77.678 2.3 77.678.079 6.427 5.314 11.664 11.738 11.664" fill="#7f8b8c" fill-rule="evenodd" transform="translate(50.0379 217.699)"/><path d="m0 0c-33.172 0-56-15.718-56-76.089 0-60.193 22.828-75.911 56-75.911s56 15.718 56 76.089c0 60.193-22.828 75.911-56 75.911" fill="#1b80bb" transform="translate(128 204)"/><path d="m0 0-11.08-11.19v22.211zm-11.08 58.84 11.08-10.84-11.08-11.371zm-12-98.891 40 40-24 24 24 24-40 40m0-51.803-23.808 23.717-8.192-8.261 28-27.653-28-27.652 8.192-8.261 23.808 23.717" fill="#edefef" transform="translate(147.0804 104.0508)"/></g></svg>