<svg enable-background="new 0 0 256 256" viewBox="0 0 256 256" xmlns="http://www.w3.org/2000/svg"><path d="m128 244c-37.555 0-68-30.445-68-68v-156c0-4.418 3.582-8 8-8h120c4.418 0 8 3.582 8 8v156c0 37.555-30.445 68-68 68z" fill="#35495f"/><path d="m72 48h108v28h-108z" fill="#edefef"/><g fill="#2b3e51"><circle cx="100" cy="104" r="16"/><circle cx="156" cy="104" r="16"/><path d="m60 32h8v4h-8z"/><path d="m60 40h8v4h-8z"/><path d="m60 48h8v4h-8z"/><path d="m60 56h8v4h-8z"/><path d="m60 64h8v4h-8z"/><path d="m60 72h8v4h-8z"/><path d="m60 80h8v4h-8z"/><path d="m60 88h8v4h-8z"/><path d="m60 96h8v4h-8z"/><path d="m60 104h8v4h-8z"/><path d="m60 112h8v4h-8z"/><path d="m60 120h8v4h-8z"/><path d="m60 128h8v4h-8z"/><path d="m60 136h8v4h-8z"/><path d="m60 144h8v4h-8z"/><path d="m188 32h8v4h-8z"/><path d="m188 40h8v4h-8z"/><path d="m188 48h8v4h-8z"/><path d="m188 56h8v4h-8z"/><path d="m188 64h8v4h-8z"/><path d="m188 72h8v4h-8z"/><path d="m188 80h8v4h-8z"/><path d="m188 88h8v4h-8z"/><path d="m188 96h8v4h-8z"/><path d="m188 104h8v4h-8z"/><path d="m188 112h8v4h-8z"/><path d="m188 120h8v4h-8z"/><path d="m188 128h8v4h-8z"/><path d="m188 136h8v4h-8z"/><path d="m188 144h8v4h-8z"/><circle cx="128" cy="180" r="52"/></g><circle cx="128" cy="180" fill="#35495f" r="44"/><path d="m128 216c-11 0-20-9-20-20v-32c0-11 9-20 20-20 11 0 20 9 20 20v32c0 11-9 20-20 20z" fill="#2b3e51"/><circle cx="128" cy="180" fill="#e94b36" r="16"/></svg>