<svg height="245.33333" viewBox="0 0 245.33333 245.33333" width="245.33333" xmlns="http://www.w3.org/2000/svg" xmlns:xlink="http://www.w3.org/1999/xlink"><clipPath id="a"><path d="m0 256h256v-256h-256z"/></clipPath><g clip-path="url(#a)" transform="matrix(1.3333333 0 0 -1.3333333 -47.999865 293.33333)"><path d="m0 0s38.228 2.301 77.407 2.301c38.862 0 78.596-2.301 78.596-2.301 6.425 0 11.659-5.237 11.659-11.664 0 0 2.3-39.434 2.3-78.63 0-38.8-2.3-77.44-2.3-77.44 0-6.427-5.234-11.664-11.659-11.664 0 0-39.813-2.301-78.596-2.301-39.179 0-77.486 2.301-77.486 2.301-6.424 0-11.659 5.237-11.659 11.664 0 0-2.3 39.275-2.3 78.392 0 38.879 2.3 77.678 2.3 77.678.079 6.427 5.314 11.664 11.738 11.664" fill="#1b80bb" fill-rule="evenodd" transform="translate(50.0379 217.699)"/><path d="m0 0c0-46.392-37.608-84-84-84s-84 37.608-84 84 37.608 84 84 84 84-37.608 84-84" fill="#e94b36" fill-rule="evenodd" transform="translate(212 128)"/><g fill="#c13c28"><path d="m0 0c22.371-.03 43.908-8.482 60.327-23.677l-27-32.475c-4.333 3.869-9.18 6.471-13.098 7.413-11.789 2.832-19.347-4.596-23.068-9.751-3.033 4.202-8.575 9.893-16.939 10.344-1.898.102-3.93-.069-6.111-.593-15.87-3.815-47.427-33.777 4.976-72.674l-32.276-38.821c-22.499 16.773-35.771 43.175-35.807 71.238.001 49.151 39.845 88.995 88.996 88.996z" transform="translate(128.1175 216.593)"/><path d="m0 0h.009c16.801-16.692 26.255-39.39 26.272-63.073 0-49.152-39.844-88.996-88.995-88.996-18.055.034-35.676 5.563-50.517 15.845l32.267 38.821c4.555-3.235 9.623-6.532 15.403-9.876-.009-.004-.015-.013-.026-.017h.059c-.01.003-.016.013-.025.017 56.392 32.629 51.843 60.553 38.537 74.786z" transform="translate(190.8403 190.6707)"/></g></g></svg>