<svg enable-background="new 0 0 256 256" viewBox="0 0 256 256" xmlns="http://www.w3.org/2000/svg"><path d="m235.407 56h-214.814c-4.744 0-8.593 3.795-8.593 8.471v127.059c0 4.676 3.849 8.471 8.593 8.471h25.777 163.26 25.778c4.743 0 8.593-3.795 8.593-8.471v-127.059c-.001-4.676-3.851-8.471-8.594-8.471zm-153.407 72c-7.728 0-14-6.267-14-14s6.272-14 14-14 14 6.267 14 14-6.272 14-14 14zm92 0c-7.728 0-14-6.268-14-14 0-7.733 6.272-14 14-14s14 6.267 14 14c0 7.732-6.272 14-14 14z" fill="#dadfe0"/><path d="m223.333 68h-190.666c-4.784 0-8.667 3.942-8.667 8.8v70.4c0 4.858 3.883 8.8 8.667 8.8h190.667c4.784 0 8.667-3.942 8.667-8.8v-70.4c-.001-4.858-3.884-8.8-8.668-8.8zm-141.333 60c-7.728 0-14-6.267-14-14s6.272-14 14-14 14 6.267 14 14-6.272 14-14 14zm92 0c-7.728 0-14-6.267-14-14s6.272-14 14-14 14 6.267 14 14-6.272 14-14 14z" fill="#1b80bb"/><path d="m199.778 180s0-4-4.235-4c-8.457 0-131.32 0-135.098 0-4.222 0-4.222 4-4.222 4l-4.223 20h152z" fill="#d1d6d2"/><g fill="#93a3a3"><circle cx="72" cy="192" r="4"/><circle cx="92" cy="188" r="4"/><circle cx="128" cy="184" r="4"/><circle cx="164" cy="188" r="4"/><circle cx="184" cy="192" r="4"/><circle cx="18" cy="194" r="2"/><circle cx="18" cy="62" r="2"/><circle cx="238" cy="194" r="2"/><circle cx="238" cy="62" r="2"/></g><path d="m82 104c5.514 0 10 4.486 10 10s-4.486 10-10 10-10-4.486-10-10 4.486-10 10-10m0-4c-7.728 0-14 6.267-14 14s6.272 14 14 14 14-6.267 14-14-6.272-14-14-14z" fill="#223140"/><path d="m174 104c5.514 0 10 4.486 10 10s-4.486 10-10 10-10-4.486-10-10 4.486-10 10-10m0-4c-7.728 0-14 6.267-14 14s6.272 14 14 14 14-6.267 14-14-6.272-14-14-14z" fill="#223140"/><path d="m156 124c0 2.212-2.086 4-4.667 4h-46.667c-2.581 0-4.667-1.788-4.667-4v-16c0-2.212 2.086-4 4.667-4h46.667c2.581 0 4.667 1.788 4.667 4z" fill="#93a3a3"/><path d="m100 108v16c0 2.212 2.486 4 5.561 4h2.737c2.352-3.654 3.702-7.709 3.702-12s-1.35-8.346-3.702-12h-2.737c-3.075 0-5.561 1.788-5.561 4z" fill="#223140"/></svg>