<svg height="149.33333" viewBox="0 0 309.33331 149.33333" width="309.33331" xmlns="http://www.w3.org/2000/svg" xmlns:xlink="http://www.w3.org/1999/xlink"><clipPath id="a"><path d="m0 256h256v-256h-256z"/></clipPath><g clip-path="url(#a)" transform="matrix(1.3333333 0 0 -1.3333333 -16 245.33333)"><path d="m0 0h-216c-4.418 0-8 3.582-8 8v100c0 2.209 1.791 4 4 4h224c2.209 0 4-1.791 4-4v-100c0-4.418-3.582-8-8-8" fill="#dadfe0" transform="translate(236 72)"/><path d="m0 0v-20h-4v-28h28v-8h100v8h44v24h4v24z" fill="#223140" transform="translate(24 148)"/><path d="m224 100h-16v48h16z" fill="#2b3e51"/><path d="m244 178h-232v2h232z" fill="#bdc1c6"/><path d="m244 174h-232v2h232z" fill="#bdc1c6"/><path d="m244 170h-232v2h232z" fill="#bdc1c6"/><path d="m244 166h-232v2h232z" fill="#bdc1c6"/><path d="m0 0h-60c-2.209 0-4 1.791-4 4s1.791 4 4 4h60c2.209 0 4-1.791 4-4s-1.791-4-4-4" fill="#6c7a88" transform="translate(88 169)"/><path d="m0 0h-12c-1.105 0-2 .895-2 2s.895 2 2 2h12c1.105 0 2-.895 2-2s-.895-2-2-2" fill="#6c7a88" transform="translate(218 171)"/><path d="m0 0c0-.552-.448-1-1-1s-1 .448-1 1 .448 1 1 1 1-.448 1-1" fill="#e94b36" transform="translate(219 173)"/><path d="m0 0h-220c-1.105 0-2-.895-2-2v-60c0-1.105.895-2 2-2h220c1.105 0 2 .895 2 2v60c0 1.105-.895 2-2 2m0-62h-220v60h220z" fill="#bdc1c6" transform="translate(238 152)"/><g fill="#2b3e51"><path d="m0 0c-1.105 0-2 .895-2 2v4c0 1.105.895 2 2 2 1.105 0 2-.895 2-2v-4c0-1.105-.895-2-2-2" transform="translate(26 140)"/><path d="m0 0h-4c-1.105 0-2 .895-2 2v4c0 1.105.895 2 2 2h4c1.105 0 2-.895 2-2v-4c0-1.105-.895-2-2-2" transform="translate(50 140)"/><path d="m0 0h-4c-1.105 0-2 .895-2 2v4c0 1.105.895 2 2 2h4c1.105 0 2-.895 2-2v-4c0-1.105-.895-2-2-2" transform="translate(38 140)"/><path d="m0 0h-4c-1.105 0-2 .895-2 2v4c0 1.105.895 2 2 2h4c1.105 0 2-.895 2-2v-4c0-1.105-.895-2-2-2" transform="translate(62 140)"/><path d="m0 0h-4c-1.105 0-2 .895-2 2v4c0 1.105.895 2 2 2h4c1.105 0 2-.895 2-2v-4c0-1.105-.895-2-2-2" transform="translate(74 140)"/><path d="m0 0h-4c-1.105 0-2 .895-2 2v4c0 1.105.895 2 2 2h4c1.105 0 2-.895 2-2v-4c0-1.105-.895-2-2-2" transform="translate(86 140)"/><path d="m0 0h-4c-1.105 0-2 .895-2 2v4c0 1.105.895 2 2 2h4c1.105 0 2-.895 2-2v-4c0-1.105-.895-2-2-2" transform="translate(98 140)"/><path d="m0 0h-4c-1.105 0-2 .895-2 2v4c0 1.105.895 2 2 2h4c1.105 0 2-.895 2-2v-4c0-1.105-.895-2-2-2" transform="translate(110 140)"/><path d="m0 0h-4c-1.105 0-2 .895-2 2v4c0 1.105.895 2 2 2h4c1.105 0 2-.895 2-2v-4c0-1.105-.895-2-2-2" transform="translate(122 140)"/><path d="m0 0h-4c-1.105 0-2 .895-2 2v4c0 1.105.895 2 2 2h4c1.105 0 2-.895 2-2v-4c0-1.105-.895-2-2-2" transform="translate(134 140)"/><path d="m0 0h-4c-1.105 0-2 .895-2 2v4c0 1.105.895 2 2 2h4c1.105 0 2-.895 2-2v-4c0-1.105-.895-2-2-2" transform="translate(146 140)"/><path d="m0 0h-4c-1.105 0-2 .895-2 2v4c0 1.105.895 2 2 2h4c1.105 0 2-.895 2-2v-4c0-1.105-.895-2-2-2" transform="translate(158 140)"/><path d="m0 0h-4c-1.105 0-2 .895-2 2v4c0 1.105.895 2 2 2h4c1.105 0 2-.895 2-2v-4c0-1.105-.895-2-2-2" transform="translate(170 140)"/><path d="m0 0h-4c-1.105 0-2 .895-2 2v4c0 1.105.895 2 2 2h4c1.105 0 2-.895 2-2v-4c0-1.105-.895-2-2-2" transform="translate(182 140)"/><path d="m0 0h-4c-1.105 0-2 .895-2 2v4c0 1.105.895 2 2 2h4c1.105 0 2-.895 2-2v-4c0-1.105-.895-2-2-2" transform="translate(194 140)"/><path d="m0 0h-4c-1.105 0-2 .895-2 2v4c0 1.105.895 2 2 2h4c1.105 0 2-.895 2-2v-4c0-1.105-.895-2-2-2" transform="translate(26 116)"/><path d="m0 0h-4c-1.105 0-2 .895-2 2v4c0 1.105.895 2 2 2h4c1.105 0 2-.895 2-2v-4c0-1.105-.895-2-2-2" transform="translate(38 116)"/><path d="m0 0h-4c-1.105 0-2 .895-2 2v4c0 1.105.895 2 2 2h4c1.105 0 2-.895 2-2v-4c0-1.105-.895-2-2-2" transform="translate(50 116)"/><path d="m0 0h-4c-1.105 0-2 .895-2 2v4c0 1.105.895 2 2 2h4c1.105 0 2-.895 2-2v-4c0-1.105-.895-2-2-2" transform="translate(62 116)"/><path d="m0 0h-4c-1.105 0-2 .895-2 2v4c0 1.105.895 2 2 2h4c1.105 0 2-.895 2-2v-4c0-1.105-.895-2-2-2" transform="translate(74 116)"/><path d="m0 0h-4c-1.105 0-2 .895-2 2v4c0 1.105.895 2 2 2h4c1.105 0 2-.895 2-2v-4c0-1.105-.895-2-2-2" transform="translate(86 116)"/><path d="m0 0h-4c-1.105 0-2 .895-2 2v4c0 1.105.895 2 2 2h4c1.105 0 2-.895 2-2v-4c0-1.105-.895-2-2-2" transform="translate(98 116)"/><path d="m0 0h-4c-1.105 0-2 .895-2 2v4c0 1.105.895 2 2 2h4c1.105 0 2-.895 2-2v-4c0-1.105-.895-2-2-2" transform="translate(110 116)"/><path d="m0 0h-4c-1.105 0-2 .895-2 2v4c0 1.105.895 2 2 2h4c1.105 0 2-.895 2-2v-4c0-1.105-.895-2-2-2" transform="translate(122 116)"/><path d="m0 0h-4c-1.105 0-2 .895-2 2v4c0 1.105.895 2 2 2h4c1.105 0 2-.895 2-2v-4c0-1.105-.895-2-2-2" transform="translate(134 116)"/><path d="m0 0h-4c-1.105 0-2 .895-2 2v4c0 1.105.895 2 2 2h4c1.105 0 2-.895 2-2v-4c0-1.105-.895-2-2-2" transform="translate(146 116)"/><path d="m0 0h-4c-1.105 0-2 .895-2 2v4c0 1.105.895 2 2 2h4c1.105 0 2-.895 2-2v-4c0-1.105-.895-2-2-2" transform="translate(158 116)"/><path d="m0 0h-4c-1.105 0-2 .895-2 2v4c0 1.105.895 2 2 2h4c1.105 0 2-.895 2-2v-4c0-1.105-.895-2-2-2" transform="translate(170 116)"/><path d="m0 0h-12c-1.105 0-2 .895-2 2v4c0 1.105.895 2 2 2h12c1.105 0 2-.895 2-2v-4c0-1.105-.895-2-2-2" transform="translate(190 116)"/><path d="m0 0h-8c-1.105 0-2 .895-2 2v4c0 1.105.895 2 2 2h8c1.105 0 2-.895 2-2v-4c0-1.105-.895-2-2-2" transform="translate(34 128)"/><path d="m0 0h-4c-1.105 0-2 .895-2 2v4c0 1.105.895 2 2 2h4c1.105 0 2-.895 2-2v-4c0-1.105-.895-2-2-2" transform="translate(46 128)"/><path d="m0 0h-4c-1.105 0-2 .895-2 2v4c0 1.105.895 2 2 2h4c1.105 0 2-.895 2-2v-4c0-1.105-.895-2-2-2" transform="translate(58 128)"/><path d="m0 0h-4c-1.105 0-2 .895-2 2v4c0 1.105.895 2 2 2h4c1.105 0 2-.895 2-2v-4c0-1.105-.895-2-2-2" transform="translate(70 128)"/><path d="m0 0h-4c-1.105 0-2 .895-2 2v4c0 1.105.895 2 2 2h4c1.105 0 2-.895 2-2v-4c0-1.105-.895-2-2-2" transform="translate(82 128)"/><path d="m0 0h-4c-1.105 0-2 .895-2 2v4c0 1.105.895 2 2 2h4c1.105 0 2-.895 2-2v-4c0-1.105-.895-2-2-2" transform="translate(94 128)"/><path d="m0 0h-4c-1.105 0-2 .895-2 2v4c0 1.105.895 2 2 2h4c1.105 0 2-.895 2-2v-4c0-1.105-.895-2-2-2" transform="translate(106 128)"/><path d="m0 0h-4c-1.105 0-2 .895-2 2v4c0 1.105.895 2 2 2h4c1.105 0 2-.895 2-2v-4c0-1.105-.895-2-2-2" transform="translate(118 128)"/><path d="m0 0h-4c-1.105 0-2 .895-2 2v4c0 1.105.895 2 2 2h4c1.105 0 2-.895 2-2v-4c0-1.105-.895-2-2-2" transform="translate(130 128)"/><path d="m0 0h-4c-1.105 0-2 .895-2 2v4c0 1.105.895 2 2 2h4c1.105 0 2-.895 2-2v-4c0-1.105-.895-2-2-2" transform="translate(142 128)"/><path d="m0 0h-4c-1.105 0-2 .895-2 2v4c0 1.105.895 2 2 2h4c1.105 0 2-.895 2-2v-4c0-1.105-.895-2-2-2" transform="translate(154 128)"/><path d="m0 0h-4c-1.105 0-2 .895-2 2v4c0 1.105.895 2 2 2h4c1.105 0 2-.895 2-2v-4c0-1.105-.895-2-2-2" transform="translate(166 128)"/><path d="m0 0h-4c-1.105 0-2 .895-2 2v4c0 1.105.895 2 2 2h4c1.105 0 2-.895 2-2v-4c0-1.105-.895-2-2-2" transform="translate(178 128)"/><path d="m0 0h-8c-1.105 0-2 .895-2 2v4c0 1.105.895 2 2 2h8c1.105 0 2-.895 2-2v-4c0-1.105-.895-2-2-2" transform="translate(42 104)"/><path d="m0 0h-4c-1.105 0-2 .895-2 2v4c0 1.105.895 2 2 2h4c1.105 0 2-.895 2-2v-4c0-1.105-.895-2-2-2" transform="translate(26 104)"/><path d="m0 0h-4c-1.105 0-2 .895-2 2v4c0 1.105.895 2 2 2h4c1.105 0 2-.895 2-2v-4c0-1.105-.895-2-2-2" transform="translate(54 104)"/><path d="m0 0h-4c-1.105 0-2 .895-2 2v4c0 1.105.895 2 2 2h4c1.105 0 2-.895 2-2v-4c0-1.105-.895-2-2-2" transform="translate(66 104)"/><path d="m0 0h-4c-1.105 0-2 .895-2 2v4c0 1.105.895 2 2 2h4c1.105 0 2-.895 2-2v-4c0-1.105-.895-2-2-2" transform="translate(78 104)"/><path d="m0 0h-4c-1.105 0-2 .895-2 2v4c0 1.105.895 2 2 2h4c1.105 0 2-.895 2-2v-4c0-1.105-.895-2-2-2" transform="translate(90 104)"/><path d="m0 0h-4c-1.105 0-2 .895-2 2v4c0 1.105.895 2 2 2h4c1.105 0 2-.895 2-2v-4c0-1.105-.895-2-2-2" transform="translate(102 104)"/><path d="m0 0h-4c-1.105 0-2 .895-2 2v4c0 1.105.895 2 2 2h4c1.105 0 2-.895 2-2v-4c0-1.105-.895-2-2-2" transform="translate(114 104)"/><path d="m0 0h-4c-1.105 0-2 .895-2 2v4c0 1.105.895 2 2 2h4c1.105 0 2-.895 2-2v-4c0-1.105-.895-2-2-2" transform="translate(126 104)"/><path d="m0 0h-4c-1.105 0-2 .895-2 2v4c0 1.105.895 2 2 2h4c1.105 0 2-.895 2-2v-4c0-1.105-.895-2-2-2" transform="translate(138 104)"/><path d="m0 0h-4c-1.105 0-2 .895-2 2v4c0 1.105.895 2 2 2h4c1.105 0 2-.895 2-2v-4c0-1.105-.895-2-2-2" transform="translate(150 104)"/><path d="m0 0h-8c-1.105 0-2 .895-2 2v4c0 1.105.895 2 2 2h8c1.105 0 2-.895 2-2v-4c0-1.105-.895-2-2-2" transform="translate(166 104)"/><path d="m0 0h-4c-1.105 0-2 .895-2 2v4c0 1.105.895 2 2 2h4c1.105 0 2-.895 2-2v-4c0-1.105-.895-2-2-2" transform="translate(178 104)"/><path d="m0 0h-4c-1.105 0-2 .895-2 2v4c0 1.105.895 2 2 2h4c1.105 0 2-.895 2-2v-4c0-1.105-.895-2-2-2" transform="translate(190 104)"/><path d="m0 0h-8c-1.105 0-2 .895-2 2v4c0 1.105.895 2 2 2h8c1.105 0 2-.895 2-2v-4c0-1.105-.895-2-2-2" transform="translate(194 128)"/><path d="m0 0h-96c-1.105 0-2 .895-2 2v4c0 1.105.895 2 2 2h96c1.105 0 2-.895 2-2v-4c0-1.105-.895-2-2-2" transform="translate(146 92)"/></g><path d="m0 0h-12c-1.105 0-2 .895-2 2v4c0 1.105.895 2 2 2h12c1.105 0 2-.895 2-2v-4c0-1.105-.895-2-2-2" fill="#35495f" transform="translate(222 140)"/><path d="m0 0h-12c-1.105 0-2 .895-2 2v4c0 1.105.895 2 2 2h12c1.105 0 2-.895 2-2v-4c0-1.105-.895-2-2-2" fill="#35495f" transform="translate(222 128)"/><path d="m0 0h-12c-1.105 0-2 .895-2 2v4c0 1.105.895 2 2 2h12c1.105 0 2-.895 2-2v-4c0-1.105-.895-2-2-2" fill="#35495f" transform="translate(222 116)"/><path d="m0 0h-12c-1.105 0-2 .895-2 2v4c0 1.105.895 2 2 2h12c1.105 0 2-.895 2-2v-4c0-1.105-.895-2-2-2" fill="#35495f" transform="translate(222 104)"/></g></svg>