<svg enable-background="new 0 0 256 256" viewBox="0 0 256 256" xmlns="http://www.w3.org/2000/svg"><path d="m220.638 80h-40.364c-2.144 0-4.245.817-5.705 2.387-1.293 1.389-2.149 3.079-2.481 4.964-.367 2.08-.055 3.76 1.413 7.621 2.318 6.099 2.695 7.158 3.853 10.813 1.662 5.246 1.654 5.205.944 6.134-.75.982-1.781 1.281-7.117 2.055-11.567 1.679-22.955 2.711-32.765 2.982-1.071.03-1.344.016-2.13.031-2.195.057-4.43.086-6.671.086-.063 0-.126 0-.188 0-.479 0-.948-.015-1.426-.018-.478.003-.947.017-1.426.018-.063 0-.126 0-.188 0-2.241 0-4.476-.029-6.671-.086-.787-.016-1.059-.002-2.13-.031-9.809-.271-21.198-1.303-32.765-2.982-5.335-.774-6.367-1.073-7.117-2.055-.709-.929-.718-.888.944-6.134 1.158-3.655 1.535-4.714 3.853-10.813 1.467-3.861 1.78-5.541 1.413-7.621-.332-1.885-1.188-3.574-2.481-4.964-1.462-1.57-3.563-2.387-5.707-2.387h-40.364c-2.126.807-4.693 2.41-6.432 4.104-3.364 3.279-4.378 5.389-8.061 16.737-4.086 12.589-6.786 24.982-8.386 38.457-1.263 10.638-.172 15.41 4.669 20.427 3.017 3.127 5.405 4.294 13.47 6.57 11.476 3.239 31.954 7.866 35.522 8.026.824.037 1.839.228 2.251.42 1.531.715 18.599 3.002 29.221 3.916 5.195.447 15.228 1.036 20.534 1.207 2.849.092 5.818.135 8.867.135.327 0 .654 0 .982-.001.328.001.656.001.982.001 3.049 0 6.017-.043 8.867-.135 5.306-.171 15.339-.76 20.534-1.207 10.623-.913 27.691-3.201 29.221-3.916.412-.192 1.427-.383 2.251-.42 3.568-.161 24.046-4.787 35.522-8.026 8.065-2.276 10.453-3.444 13.47-6.57 4.841-5.018 5.931-9.789 4.669-20.427-1.599-13.475-4.3-25.868-8.386-38.457-3.683-11.349-4.696-13.458-8.061-16.737-1.737-1.694-4.304-3.297-6.43-4.104z" fill="#2b3e51"/><path d="m219.843 84c1.551.699 3.297 1.86 4.434 2.969 2.664 2.596 3.427 3.95 7.048 15.108 4.028 12.41 6.639 24.388 8.218 37.694 1.226 10.33-.05 13.525-3.575 17.179-2.333 2.418-3.951 3.317-11.678 5.498-11.761 3.319-31.588 7.744-34.615 7.88-.223.01-2.141.112-3.563.704-2.203.627-17.215 2.71-28.072 3.643-5.158.443-15.033 1.024-20.32 1.194-2.731.088-5.671.132-8.738.132l-.994-.001h-.97c-3.068 0-6.008-.045-8.738-.132-5.287-.17-15.162-.751-20.32-1.194-10.856-.933-25.867-3.015-28.072-3.643-1.421-.591-3.34-.694-3.564-.704-3.027-.136-22.854-4.56-34.615-7.88-7.727-2.181-9.345-3.08-11.678-5.498-3.525-3.654-4.801-6.848-3.575-17.179 1.579-13.306 4.191-25.283 8.218-37.694 3.621-11.157 4.385-12.512 7.048-15.108 1.138-1.109 2.884-2.27 4.434-2.969h39.57c1.107 0 2.12.405 2.777 1.112.78.838 1.275 1.825 1.47 2.933.174.984.178 1.845-1.213 5.506-2.338 6.152-2.742 7.286-3.927 11.026l-.021.067c-1.78 5.616-2.258 7.125-.289 9.702 1.868 2.447 4.492 2.828 9.722 3.587 11.714 1.7 23.205 2.745 33.229 3.022.678.019 1.055.021 1.425.023.221.001.439.003.711.008 2.224.058 4.503.087 6.775.087h.19c.285 0 .567-.005.849-.01.199-.003.398-.007.552-.008.2.001.399.005.598.008.282.005.564.01.849.01h.19c2.271 0 4.55-.029 6.75-.087.297-.006.515-.007.736-.008.37-.002.748-.005 1.426-.023 10.024-.277 21.514-1.321 33.229-3.022 5.229-.759 7.854-1.14 9.736-3.606 1.954-2.559 1.476-4.068-.304-9.684l-.021-.067c-1.185-3.74-1.589-4.874-3.927-11.026-1.391-3.66-1.386-4.522-1.213-5.506.195-1.108.69-2.095 1.47-2.933.658-.707 1.67-1.112 2.777-1.112h39.571" fill="#35495f"/><path d="m195.996 104 20-8 .008 16-20 8z" fill="#2b3e51"/><path d="m46 100c9.941 0 18 8.058 18 17.999v.001c0 9.941-8.058 18-17.999 18 0 0 0 0-.001 0-9.941 0-18-8.058-18-17.999 0 0 0 0 0-.001 0-9.941 8.058-18 18-18z" fill="#2b3e51"/><path d="m200 128 23.996-8 .008 16-24.004 8z" fill="#2b3e51"/><path d="m224.004 120c4.418.002 7.998 3.586 7.996 8.004-.002 4.415-3.581 7.993-7.996 7.996-4.418.002-8.002-3.578-8.004-7.996s3.578-8.002 7.996-8.004z" fill="#3096cf"/><path d="m202 124c5.52 0 9.996 4.474 10 9.996 0 5.525-4.476 10.004-9.999 10.004h-.001c-5.522 0-10-4.478-10-10.003v-.001c.004-5.522 4.48-9.996 10-9.996z" fill="#b80000"/><g fill="#223140"><circle cx="58" cy="122" r="2"/><circle cx="34" cy="114" r="2"/><circle cx="50" cy="106" r="2"/><circle cx="42" cy="130" r="2"/></g><path d="m196.004 104c4.418.002 7.998 3.586 7.996 8.004-.002 4.415-3.581 7.993-7.996 7.996-4.418.002-8.002-3.578-8.004-7.996s3.578-8.002 7.996-8.004z" fill="#4eb96f"/><path d="m216.004 96c4.418.002 7.998 3.586 7.996 8.004-.002 4.415-3.581 7.993-7.996 7.996-4.418.002-8.002-3.578-8.004-7.996s3.578-8.002 7.996-8.004z" fill="#eac500"/><path d="m190.858 144c0-16.366-11.783-36.193-12.285-37.029l-.711.426c1.139 3.631 1.062 3.7.435 4.522-.268.352-.576.615-1.101.844 3.359 6.43 9.662 19.991 9.662 31.236v30.965c.355-.084.613-.159.746-.221.412-.192 1.427-.383 2.251-.42.251-.011.593-.047 1.002-.1v-30.223z" fill="#2b3e51"/><path d="m69.142 144c0-11.245 6.303-24.806 9.662-31.236-.524-.229-.833-.493-1.101-.844-.627-.822-.704-.891.435-4.522l-.711-.426c-.502.836-12.285 20.663-12.285 37.029v30.222c.409.053.752.089 1.002.1.824.037 1.839.228 2.251.42.133.062.392.137.746.221v-30.964z" fill="#2b3e51"/><path d="m76 80h-40v-2c0-1.105.895-2 2-2h36c1.105 0 2 .895 2 2z" fill="#223140"/><path d="m180 80h40v-2c0-1.105-.895-2-2-2h-36c-1.105 0-2 .895-2 2z" fill="#223140"/><path d="m186.174 143.005c-.042.017-.076.03-.119.041-2.395.646-17.248 2.701-28.014 3.627-5.157.443-15.032 1.024-20.32 1.194-2.73.088-5.671.132-8.741.132l-.992-.001-.968.002c-3.069 0-6.009-.045-8.74-.132-5.287-.17-15.162-.751-20.32-1.194-10.765-.926-25.617-2.981-28.014-3.627-.043-.012-.078-.025-.12-.041-.006-.002-.012-.005-.018-.007-.868-.346-1.808.327-1.808 1.261v2.347c.159.044.296.09.396.137 1.531.715 18.599 3.002 29.221 3.916 5.195.447 15.228 1.036 20.534 1.207 2.85.092 5.819.135 8.869.135.326 0 .652 0 .98-.001.327.001.654.001.98.001 3.05 0 6.019-.043 8.869-.135 5.306-.171 15.339-.76 20.534-1.207 10.623-.913 27.69-3.201 29.221-3.916.1-.047.237-.093.396-.137v-2.347c0-.934-.941-1.607-1.808-1.261-.006.001-.012.004-.018.006z" fill="#2b3e51"/><path d="m172 147.424c0-1.198-1.044-2.127-2.233-1.984-3.948.475-8.073.919-11.727 1.234-3.994.343-10.814.768-16.144 1.022-1.066.051-1.897.929-1.897 1.995v.003c0 1.14.951 2.051 2.089 1.997 5.378-.257 12.279-.687 16.293-1.032 3.512-.302 7.729-.754 11.855-1.25 1.007-.121 1.764-.973 1.764-1.985z" fill="#223140"/></svg>