<svg enable-background="new 0 0 256 256" viewBox="0 0 256 256" xmlns="http://www.w3.org/2000/svg"><path d="m128 12c-64.071 0-116 51.934-116 116s51.929 116 116 116c64.051 0 116-51.934 116-116s-51.949-116-116-116zm0 159.505c-23.993 0-43.505-19.517-43.505-43.505s19.512-43.505 43.505-43.505c23.988 0 43.5 19.517 43.5 43.505s-19.512 43.505-43.5 43.505z" fill="#bec2c7"/><path d="m128.003 82c-25.364 0-46.003 20.651-46.003 46s20.639 46 46.003 46c25.338 0 45.997-20.651 45.997-46s-20.659-46-45.997-46zm-.001 59.776c-7.596 0-13.786-6.176-13.786-13.776 0-7.604 6.19-13.785 13.786-13.785 7.6 0 13.777 6.181 13.777 13.785 0 7.599-6.177 13.776-13.777 13.776z" fill="#eef0f1"/></svg>