<svg height="138.66666" viewBox="0 0 309.33313 138.66666" width="309.33313" xmlns="http://www.w3.org/2000/svg" xmlns:xlink="http://www.w3.org/1999/xlink"><clipPath id="a"><path d="m0 256h256v-256h-256z"/></clipPath><g clip-path="url(#a)" transform="matrix(1.3333333 0 0 -1.3333333 -16.000211 239.99999)"><path d="m0 0h-40.364c-2.144 0-4.245-.817-5.706-2.387-1.293-1.389-2.149-3.079-2.481-4.964-.367-2.08-.055-3.76 1.413-7.621 2.318-6.099 2.694-7.158 3.853-10.813 1.662-5.246 1.653-5.205.944-6.134-.75-.983-1.781-1.281-7.117-2.056-11.567-1.679-22.955-2.711-32.764-2.981-1.072-.03-1.344-.016-2.13-.031-2.195-.057-4.431-.086-6.672-.086-.063 0-.125 0-.188 0-.479 0-.948.015-1.426.018-.478-.003-.947-.018-1.426-.018-.062 0-.125 0-.188 0-2.241 0-4.476.029-6.671.086-.787.015-1.059.001-2.13.031-9.81.27-21.198 1.302-32.765 2.981-5.335.775-6.367 1.073-7.117 2.056-.709.929-.718.888.945 6.134 1.158 3.655 1.535 4.714 3.853 10.813 1.467 3.861 1.779 5.541 1.412 7.621-.332 1.885-1.188 3.575-2.481 4.964-1.461 1.57-3.561 2.387-5.705 2.387h-40.365c-2.125-.807-4.693-2.41-6.431-4.104-3.365-3.279-4.378-5.389-8.061-16.738-4.086-12.589-6.787-24.981-8.386-38.457-1.262-10.638-.172-15.41 4.669-20.427 3.017-3.127 5.405-4.294 13.47-6.57 11.476-3.24 31.954-7.866 35.522-8.027.824-.037 1.839-.228 2.251-.42 1.531-.715 18.599-3.002 29.222-3.916 5.194-.446 15.227-1.036 20.533-1.206 2.849-.092 5.818-.135 8.867-.135.326 0 .654 0 .982.001.328-.001.656-.001.982-.001 3.05 0 6.018.043 8.867.135 5.306.17 15.339.76 20.534 1.206 10.623.914 27.69 3.201 29.221 3.916.412.192 1.427.383 2.252.42 3.568.161 24.045 4.787 35.522 8.027 8.064 2.276 10.453 3.443 13.47 6.57 4.841 5.017 5.931 9.789 4.668 20.427-1.599 13.476-4.3 25.868-8.385 38.457-3.683 11.349-4.697 13.459-8.061 16.738-1.739 1.694-4.306 3.297-6.432 4.104" fill="#2b3e51" transform="translate(220.6378 176)"/><path d="m0 0c1.551-.699 3.297-1.86 4.434-2.969 2.664-2.596 3.428-3.95 7.048-15.107 4.028-12.411 6.64-24.388 8.219-37.694 1.226-10.331-.05-13.525-3.575-17.179-2.334-2.418-3.952-3.317-11.678-5.498-11.762-3.319-31.589-7.743-34.616-7.88-.223-.01-2.141-.112-3.563-.703-2.203-.628-17.215-2.71-28.072-3.644-5.158-.443-15.033-1.023-20.32-1.194-2.731-.087-5.67-.132-8.738-.132l-.994.001-.971-.001c-3.067 0-6.007.045-8.738.132-5.286.171-15.161.751-20.319 1.194-10.856.934-25.868 3.016-28.072 3.643-1.421.592-3.34.694-3.564.704-3.027.137-22.854 4.561-34.615 7.88-7.727 2.181-9.345 3.08-11.678 5.498-3.525 3.654-4.801 6.848-3.575 17.179 1.579 13.306 4.19 25.283 8.218 37.694 3.621 11.157 4.385 12.511 7.048 15.107 1.138 1.109 2.884 2.27 4.435 2.969h39.569c1.108 0 2.12-.405 2.778-1.112.78-.838 1.274-1.825 1.47-2.933.173-.984.178-1.846-1.213-5.506-2.338-6.152-2.742-7.285-3.927-11.026l-.021-.067c-1.78-5.616-2.258-7.125-.29-9.702 1.868-2.447 4.493-2.828 9.722-3.587 11.714-1.7 23.205-2.745 33.229-3.022.678-.018 1.055-.021 1.425-.023.221-.001.44-.003.712-.008 2.223-.058 4.503-.087 6.775-.087h.189c.285 0 .567.005.85.01.198.003.397.006.552.008.2-.002.399-.005.598-.008.282-.005.564-.01.849-.01h.19c2.271 0 4.55.029 6.75.086.297.006.515.008.736.009.371.002.748.005 1.426.023 10.024.277 21.514 1.322 33.228 3.022 5.23.759 7.854 1.14 9.736 3.605 1.954 2.559 1.476 4.068-.303 9.684l-.022.067c-1.185 3.741-1.589 4.874-3.927 11.026-1.391 3.66-1.386 4.522-1.212 5.506.195 1.108.69 2.095 1.47 2.933.658.707 1.67 1.112 2.777 1.112z" fill="#35495f" transform="translate(219.8432 172)"/><path d="m0 0 20 8 .008-16-20-8z" fill="#2b3e51" transform="translate(195.9962 152)"/><path d="m0 0c9.941 0 18-8.058 18-17.999v-.001c0-9.941-8.058-18-17.999-18h-.001c-9.941 0-18 8.058-18 17.999v.001c0 9.941 8.058 18 17.999 18z" fill="#2b3e51" transform="translate(46 156)"/><path d="m0 0 23.996 8 .008-16-24.004-8z" fill="#2b3e51" transform="translate(200 128)"/><path d="m0 0c4.418-.002 7.998-3.586 7.996-8.004-.003-4.415-3.581-7.994-7.996-7.996-4.418-.002-8.002 3.578-8.004 7.996s3.578 8.002 7.996 8.004z" fill="#3096cf" transform="translate(224.0042 136)"/><path d="m0 0c5.52 0 9.996-4.474 10-9.996 0-5.525-4.476-10.004-9.999-10.004h-.001c-5.522 0-10 4.478-10 10.003v.001c.004 5.522 4.48 9.996 10 9.996" fill="#b80000" transform="translate(202 132)"/><g fill="#223140"><path d="m0 0c0-1.105-.895-2-2-2s-2 .895-2 2 .895 2 2 2 2-.895 2-2" transform="translate(60 134)"/><path d="m0 0c0-1.105-.895-2-2-2s-2 .895-2 2 .895 2 2 2 2-.895 2-2" transform="translate(36 142)"/><path d="m0 0c0-1.105-.895-2-2-2s-2 .895-2 2 .895 2 2 2 2-.895 2-2" transform="translate(52 150)"/><path d="m0 0c0-1.105-.895-2-2-2s-2 .895-2 2 .895 2 2 2 2-.895 2-2" transform="translate(44 126)"/></g><path d="m0 0c4.418-.002 7.998-3.586 7.996-8.004-.003-4.415-3.581-7.994-7.996-7.996-4.418-.002-8.002 3.578-8.004 7.996s3.578 8.002 7.996 8.004z" fill="#4eb96f" transform="translate(196.0042 152)"/><path d="m0 0c4.418-.002 7.998-3.586 7.996-8.004-.003-4.415-3.581-7.994-7.996-7.996-4.418-.002-8.002 3.578-8.004 7.996s3.578 8.002 7.996 8.004z" fill="#eac500" transform="translate(216.0042 160)"/><path d="m0 0c0 16.366-11.783 36.193-12.285 37.029l-.711-.427c1.14-3.63 1.062-3.7.435-4.521-.268-.352-.576-.615-1.101-.845 3.359-6.43 9.662-19.991 9.662-31.236v-30.965c.355.085.613.16.746.222.413.192 1.427.383 2.252.42.25.012.593.047 1.002.101z" fill="#2b3e51" transform="translate(190.8577 112)"/><path d="m0 0c0 11.245 6.303 24.806 9.662 31.236-.525.23-.833.493-1.101.845-.627.821-.705.891.435 4.521l-.711.427c-.502-.836-12.285-20.663-12.285-37.029v-30.222c.409-.054.752-.089 1.002-.101.825-.037 1.839-.228 2.252-.42.133-.062.391-.137.746-.222z" fill="#2b3e51" transform="translate(69.1423 112)"/><path d="m0 0h-40v2c0 1.105.895 2 2 2h36c1.105 0 2-.895 2-2z" fill="#223140" transform="translate(76 176)"/><path d="m0 0h40v2c0 1.105-.895 2-2 2h-36c-1.105 0-2-.895-2-2z" fill="#223140" transform="translate(180 176)"/><path d="m0 0c-.042-.017-.076-.03-.119-.041-2.396-.646-17.249-2.702-28.014-3.627-5.158-.444-15.033-1.024-20.32-1.194-2.73-.088-5.671-.133-8.741-.133l-.991.002-.968-.002c-3.069 0-6.01.045-8.741.133-5.287.17-15.162.75-20.32 1.194-10.765.925-25.616 2.98-28.013 3.627-.044.011-.078.024-.12.041-.006.002-.012.005-.018.007-.868.346-1.809-.327-1.809-1.261v-2.347c.159-.044.297-.09.396-.137 1.531-.715 18.599-3.002 29.222-3.916 5.194-.446 15.228-1.035 20.533-1.206 2.85-.092 5.82-.135 8.87-.135.325 0 .652.001.979.002.328-.001.655-.002.98-.002 3.05 0 6.019.043 8.87.135 5.305.171 15.338.76 20.533 1.206 10.623.914 27.691 3.201 29.221 3.916.1.047.238.093.396.137v2.347c0 .934-.94 1.607-1.808 1.261-.006-.002-.012-.005-.018-.007" fill="#2b3e51" transform="translate(186.1736 112.9947)"/><path d="m0 0c0 1.198-1.044 2.127-2.233 1.984-3.949-.475-8.073-.919-11.727-1.234-3.993-.343-10.813-.768-16.143-1.022-1.066-.05-1.897-.928-1.897-1.995v-.003c0-1.14.951-2.051 2.089-1.997 5.379.257 12.28.687 16.294 1.032 3.512.302 7.728.754 11.855 1.25 1.005.121 1.762.972 1.762 1.985z" fill="#223140" transform="translate(172 108.5761)"/></g></svg>