<svg xmlns="http://www.w3.org/2000/svg" viewBox="0 0 256 256"><path fill="#7f8c8d" fill-rule="evenodd" d="M50.008 38.303S88.229 36 127.45 36c38.821 0 78.643 2.303 78.643 2.303 6.403 0 11.606 5.206 11.606 11.613 0 0 2.301 39.443 2.301 78.686 0 38.842-2.301 77.484-2.301 77.484 0 6.407-5.203 11.613-11.606 11.613 0 0-39.822 2.303-78.643 2.303-39.221 0-77.542-2.303-77.542-2.303-6.403 0-11.606-5.206-11.606-11.613 0 0-2.301-39.343-2.301-78.485 0-38.842 2.301-77.584 2.301-77.584a11.66 11.66 0 0 1 11.706-11.714" clip-rule="evenodd"/><path fill="#1b80bb" d="M128 76c-28.721 0-52 23.281-52 52s23.279 52 52 52c28.713 0 52-23.281 52-52s-23.287-52-52-52m0 59.172a7.172 7.172 0 1 1 0-14.344 7.172 7.172 0 0 1 0 14.344"/><path fill="#3babe0" d="M128 77.793c-13.412 0-26.02 5.222-35.503 14.705-9.482 9.483-14.704 22.091-14.704 35.502s5.222 26.019 14.704 35.502 22.091 14.705 35.503 14.705c27.684 0 50.207-22.523 50.207-50.207S155.684 77.793 128 77.793m0 57.379a7.172 7.172 0 1 1 0-14.344 7.172 7.172 0 0 1 0 14.344"/><path fill="#3394d1" d="M174.363 108.799c-4.92-11.878-14.362-21.884-27.15-27.181l-16.469 39.759a7.15 7.15 0 0 1 3.882 3.882zm-92.749 38.418c5.132 12.389 14.782 22.039 27.172 27.171l16.469-39.759a7.15 7.15 0 0 1-3.882-3.882z"/><path fill="#1b80bb" d="M128.001 107.379c-11.37 0-20.622 9.257-20.622 20.621s9.252 20.621 20.622 20.621c11.358 0 20.619-9.257 20.619-20.621s-9.26-20.621-20.619-20.621m0 26.796c-3.405 0-6.18-2.769-6.18-6.175a6.19 6.19 0 0 1 6.18-6.18 6.183 6.183 0 0 1 6.176 6.18 6.18 6.18 0 0 1-6.176 6.175"/><circle cx="128" cy="128" r="4" fill="#7f8c8d"/></svg>