<svg height="245.33333" viewBox="0 0 245.33333 245.33333" width="245.33333" xmlns="http://www.w3.org/2000/svg" xmlns:xlink="http://www.w3.org/1999/xlink"><clipPath id="a"><path d="m0 256h256v-256h-256z"/></clipPath><g clip-path="url(#a)" transform="matrix(1.3333333 0 0 -1.3333333 -47.999465 293.33399)"><path d="m0 0s38.221 2.303 77.442 2.303c38.821 0 78.643-2.303 78.643-2.303 6.403 0 11.606-5.206 11.606-11.613 0 0 2.301-39.442 2.301-78.685 0-38.842-2.301-77.484-2.301-77.484 0-6.407-5.203-11.613-11.606-11.613 0 0-39.822-2.302-78.643-2.302-39.221 0-77.542 2.302-77.542 2.302-6.404 0-11.606 5.206-11.606 11.613 0 0-2.302 39.342-2.302 78.485 0 38.842 2.302 77.584 2.302 77.584 0 6.507 5.202 11.713 11.706 11.713" fill="#7f8c8d" fill-rule="evenodd" transform="translate(50.0076 217.6975)"/><path d="m0 0h-120c-4.418 0-8 3.582-8 8v120c0 4.418 3.582 8 8 8h120c4.418 0 8-3.582 8-8v-120c0-4.418-3.582-8-8-8" fill="#93a3a3" transform="translate(188 60)"/><g fill="#d1d6d2"><path d="m80 176h-4v16h4z"/><path d="m88 176h-4v16h4z"/><path d="m96 176h-4v16h4z"/><path d="m104 176h-4v16h4z"/><path d="m112 176h-4v16h4z"/><path d="m120 176h-4v16h4z"/><path d="m128 176h-4v16h4z"/><path d="m136 176h-4v16h4z"/><path d="m144 176h-4v16h4z"/><path d="m152 176h-4v16h4z"/><path d="m160 176h-4v16h4z"/><path d="m168 176h-4v16h4z"/><path d="m176 176h-4v16h4z"/><path d="m184 176h-4v16h4z"/><path d="m76 64h-4v16h4z"/><path d="m84 64h-4v16h4z"/><path d="m92 64h-4v16h4z"/><path d="m100 64h-4v16h4z"/><path d="m108 64h-4v16h4z"/><path d="m116 64h-4v16h4z"/><path d="m124 64h-4v16h4z"/><path d="m132 64h-4v16h4z"/><path d="m140 64h-4v16h4z"/><path d="m148 64h-4v16h4z"/><path d="m156 64h-4v16h4z"/><path d="m164 64h-4v16h4z"/><path d="m172 64h-4v16h4z"/><path d="m180 64h-4v16h4z"/><path d="m176 180h16v-4h-16z"/><path d="m176 172h16v-4h-16z"/><path d="m176 164h16v-4h-16z"/><path d="m176 156h16v-4h-16z"/><path d="m176 148h16v-4h-16z"/><path d="m176 140h16v-4h-16z"/><path d="m176 132h16v-4h-16z"/><path d="m176 124h16v-4h-16z"/><path d="m176 116h16v-4h-16z"/><path d="m176 108h16v-4h-16z"/><path d="m176 100h16v-4h-16z"/><path d="m176 92h16v-4h-16z"/><path d="m176 84h16v-4h-16z"/><path d="m176 76h16v-4h-16z"/><path d="m64 184h16v-4h-16z"/><path d="m64 176h16v-4h-16z"/><path d="m64 168h16v-4h-16z"/><path d="m64 160h16v-4h-16z"/><path d="m64 152h16v-4h-16z"/><path d="m64 144h16v-4h-16z"/><path d="m64 136h16v-4h-16z"/><path d="m64 128h16v-4h-16z"/><path d="m64 120h16v-4h-16z"/><path d="m64 112h16v-4h-16z"/><path d="m64 104h16v-4h-16z"/><path d="m64 96h16v-4h-16z"/><path d="m64 88h16v-4h-16z"/><path d="m64 80h16v-4h-16z"/></g><path d="m184 72h-112v112h112z" fill="#2b3e51"/><path d="m0 0h-28c-3.314 0-6 2.686-6 6v28c0 3.314 2.686 6 6 6h28c3.314 0 6-2.686 6-6v-28c0-3.314-2.686-6-6-6" fill="#35495f" transform="translate(142 108)"/><path d="m0 0h-16c-6.627 0-12-5.373-12-12v-16c0-6.627 5.373-12 12-12h16c6.627 0 12 5.373 12 12v16c0 6.627-5.373 12-12 12m0-4c4.411 0 8-3.589 8-8v-16c0-4.411-3.589-8-8-8h-16c-4.411 0-8 3.589-8 8v16c0 4.411 3.589 8 8 8z" fill="#6680a0" transform="translate(136 148)"/><path d="m0 0h-8v8h-8v-8h-8v-8h8v-8h8v8h8z" fill="#6680a0" transform="translate(140 132)"/><path d="m0 0c0-1.453-1.177-2.63-2.63-2.63-1.452 0-2.63 1.177-2.63 2.63s1.178 2.63 2.63 2.63c1.453 0 2.63-1.177 2.63-2.63" fill="#35495f" transform="translate(130.6298 128.0002)"/><path d="m0 0-2.597-2.597-2.597 2.597z" fill="#35495f" transform="translate(130.5969 121.1787)"/><path d="m0 0 2.597 2.597 2.597-2.597z" fill="#35495f" transform="translate(125.4028 134.8215)"/><path d="m0 0-2.597 2.597 2.597 2.597z" fill="#35495f" transform="translate(121.1785 125.4031)"/><path d="m0 0 2.597-2.597-2.597-2.597z" fill="#35495f" transform="translate(134.8213 130.5972)"/></g></svg>