<svg enable-background="new 0 0 256 256" viewBox="0 0 256 256" xmlns="http://www.w3.org/2000/svg"><path clip-rule="evenodd" d="m50.008 38.303s38.221-2.303 77.442-2.303c38.821 0 78.643 2.303 78.643 2.303 6.403 0 11.606 5.206 11.606 11.613 0 0 2.301 39.443 2.301 78.686 0 38.842-2.301 77.484-2.301 77.484 0 6.407-5.203 11.613-11.606 11.613 0 0-39.822 2.303-78.643 2.303-39.221 0-77.542-2.303-77.542-2.303-6.403 0-11.606-5.206-11.606-11.613 0 0-2.301-39.343-2.301-78.485 0-38.842 2.301-77.584 2.301-77.584-.001-6.509 5.202-11.714 11.706-11.714z" fill="#7f8c8d" fill-rule="evenodd"/><path d="m188 196h-120c-4.418 0-8-3.582-8-8v-120c0-4.418 3.582-8 8-8h120c4.418 0 8 3.582 8 8v120c0 4.418-3.582 8-8 8z" fill="#93a3a3"/><g fill="#6c7a88"><path d="m76 64h4v16h-4z"/><path d="m84 64h4v16h-4z"/><path d="m92 64h4v16h-4z"/><path d="m100 64h4v16h-4z"/><path d="m108 64h4v16h-4z"/><path d="m116 64h4v16h-4z"/><path d="m124 64h4v16h-4z"/><path d="m132 64h4v16h-4z"/><path d="m140 64h4v16h-4z"/><path d="m148 64h4v16h-4z"/><path d="m156 64h4v16h-4z"/><path d="m164 64h4v16h-4z"/><path d="m172 64h4v16h-4z"/><path d="m180 64h4v16h-4z"/><path d="m72 176h4v16h-4z"/><path d="m80 176h4v16h-4z"/><path d="m88 176h4v16h-4z"/><path d="m96 176h4v16h-4z"/><path d="m104 176h4v16h-4z"/><path d="m112 176h4v16h-4z"/><path d="m120 176h4v16h-4z"/><path d="m128 176h4v16h-4z"/><path d="m136 176h4v16h-4z"/><path d="m144 176h4v16h-4z"/><path d="m152 176h4v16h-4z"/><path d="m160 176h4v16h-4z"/><path d="m168 176h4v16h-4z"/><path d="m176 176h4v16h-4z"/><path d="m176 76h16v4h-16z"/><path d="m176 84h16v4h-16z"/><path d="m176 92h16v4h-16z"/><path d="m176 100h16v4h-16z"/><path d="m176 108h16v4h-16z"/><path d="m176 116h16v4h-16z"/><path d="m176 124h16v4h-16z"/><path d="m176 132h16v4h-16z"/><path d="m176 140h16v4h-16z"/><path d="m176 148h16v4h-16z"/><path d="m176 156h16v4h-16z"/><path d="m176 164h16v4h-16z"/><path d="m176 172h16v4h-16z"/><path d="m176 180h16v4h-16z"/><path d="m64 72h16v4h-16z"/><path d="m64 80h16v4h-16z"/><path d="m64 88h16v4h-16z"/><path d="m64 96h16v4h-16z"/><path d="m64 104h16v4h-16z"/><path d="m64 112h16v4h-16z"/><path d="m64 120h16v4h-16z"/><path d="m64 128h16v4h-16z"/><path d="m64 136h16v4h-16z"/><path d="m64 144h16v4h-16z"/><path d="m64 152h16v4h-16z"/><path d="m64 160h16v4h-16z"/><path d="m64 168h16v4h-16z"/><path d="m64 176h16v4h-16z"/></g><path d="m72 72h112v112h-112z" fill="#2b3e51"/><path d="m175.28 135.133c.355-2.342.72-4.685.72-7.133s-.365-4.79-.72-7.133l-9.926-1.45c-.97-4.224-2.64-8.16-4.877-11.722l6.029-8.112c-2.842-3.85-6.23-7.238-10.09-10.09l-8.112 6.029c-3.562-2.227-7.488-3.907-11.722-4.886l-1.45-9.917c-2.342-.354-4.684-.719-7.132-.719s-4.79.365-7.133.72l-1.45 9.917c-4.224.979-8.16 2.65-11.722 4.886l-8.112-6.029c-3.85 2.851-7.248 6.23-10.09 10.09l6.029 8.112c-2.227 3.562-3.907 7.488-4.877 11.722l-9.926 1.45c-.354 2.342-.719 4.684-.719 7.132s.365 4.79.72 7.133l9.926 1.45c.97 4.224 2.64 8.16 4.877 11.722l-6.029 8.112c2.842 3.85 6.23 7.238 10.09 10.09l8.112-6.029c3.562 2.227 7.488 3.907 11.722 4.886l1.45 9.917c2.342.355 4.685.72 7.133.72s4.79-.365 7.133-.72l1.45-9.917c4.224-.979 8.16-2.65 11.722-4.886l8.112 6.029c3.85-2.851 7.248-6.23 10.09-10.09l-6.029-8.112c2.227-3.562 3.907-7.488 4.877-11.722z" fill="#bdc1c6"/><path d="m128 80c2.448 0 4.79.365 7.133.72l1.45 9.917c4.234.979 8.16 2.659 11.722 4.886l8.112-6.029c3.859 2.851 7.248 6.24 10.09 10.09l-6.029 8.112c2.237 3.562 3.907 7.498 4.877 11.722l9.926 1.45c.355 2.342.72 4.685.72 7.133s-.365 4.79-.72 7.133l-9.926 1.45c-.97 4.234-2.65 8.16-4.877 11.722l6.029 8.112c-2.842 3.859-6.24 7.238-10.09 10.09l-8.112-6.029c-3.562 2.237-7.498 3.907-11.722 4.886l-1.45 9.917c-2.342.355-4.685.72-7.133.72s-4.79-.365-7.133-.72l-1.45-9.917c-4.234-.979-8.16-2.659-11.722-4.886l-8.112 6.029c-3.859-2.851-7.248-6.24-10.09-10.09l6.029-8.112c-2.237-3.562-3.907-7.498-4.877-11.722l-9.926-1.45c-.354-2.344-.719-4.686-.719-7.134s.365-4.79.72-7.133l9.926-1.45c.97-4.234 2.65-8.16 4.877-11.722l-6.029-8.112c2.842-3.859 6.24-7.238 10.09-10.09l8.112 6.029c3.562-2.237 7.498-3.907 11.722-4.886l1.45-9.917c2.342-.354 4.684-.719 7.132-.719m0-4c-2.69 0-5.165.376-7.56.739l-.173.026-2.93.444-.429 2.932-1.069 7.312c-2.726.824-5.362 1.923-7.878 3.285l-5.993-4.454-2.382-1.77-2.385 1.766c-4.204 3.114-7.881 6.792-10.93 10.932l-1.755 2.383 1.765 2.375 4.456 5.996c-1.367 2.529-2.465 5.163-3.282 7.875l-7.316 1.068-2.932.428-.444 2.93-.026.172c-.361 2.395-.737 4.871-.737 7.561s.376 5.166.739 7.56l.026.172.444 2.93 2.932.428 7.316 1.068c.819 2.724 1.916 5.359 3.28 7.878l-4.454 5.993-1.767 2.378 1.76 2.384c3.076 4.168 6.754 7.845 10.931 10.931l2.384 1.761 2.379-1.768 5.996-4.456c2.527 1.366 5.161 2.465 7.875 3.287l1.069 7.312.429 2.932 2.93.444.172.026c2.395.363 4.871.739 7.56.739 2.69 0 5.166-.376 7.561-.739l.172-.026 2.93-.444.429-2.932 1.069-7.312c2.726-.824 5.362-1.923 7.878-3.285l5.993 4.454 2.382 1.77 2.385-1.766c4.204-3.114 7.881-6.792 10.93-10.932l1.754-2.383-1.765-2.375-4.456-5.996c1.367-2.529 2.465-5.164 3.282-7.875l7.316-1.068 2.932-.428.444-2.93.026-.172c.361-2.394.737-4.87.737-7.56s-.376-5.166-.739-7.561l-.026-.172-.444-2.93-2.932-.428-7.316-1.068c-.819-2.724-1.916-5.359-3.28-7.878l4.454-5.993 1.767-2.378-1.759-2.384c-3.076-4.168-6.754-7.845-10.931-10.931l-2.384-1.761-2.379 1.768-5.995 4.456c-2.526-1.366-5.161-2.465-7.875-3.287l-1.069-7.312-.429-2.932-2.93-.444-.172-.026c-2.395-.363-4.871-.739-7.561-.739z" fill="#dadfe0"/><path d="m126.118 96-1.882 5.647v2.176c-1.762.272-3.442.786-5.059 1.412l-1.118-1.941-4.412-3.941-3.294 1.882 1.235 5.824 1.059 1.882c-1.373 1.106-2.6 2.333-3.706 3.706l-1.882-1.059-5.824-1.235-1.882 3.294 3.941 4.412 1.941 1.118c-.626 1.617-1.14 3.297-1.412 5.059h-2.176l-5.647 1.882v3.765l5.647 1.882h2.176c.271 1.762.786 3.442 1.412 5.059l-1.941 1.118-3.941 4.412 1.882 3.294 5.824-1.235 1.882-1.059c1.106 1.373 2.333 2.6 3.706 3.706l-1.059 1.882-1.235 5.823 3.294 1.882 4.412-3.941 1.118-1.941c1.617.626 3.297 1.141 5.059 1.412v2.176l1.882 5.647h3.765l1.882-5.647v-2.177c1.762-.271 3.442-.786 5.059-1.412l1.118 1.941 4.412 3.941 3.294-1.882-1.235-5.823-1.059-1.882c1.373-1.106 2.6-2.333 3.706-3.706l1.882 1.059 5.824 1.235 1.882-3.294-3.941-4.412-1.941-1.118c.626-1.617 1.14-3.297 1.412-5.059h2.176l5.647-1.882v-3.765l-5.647-1.882h-2.176c-.271-1.762-.786-3.442-1.412-5.059l1.941-1.118 3.941-4.412-1.882-3.294-5.824 1.235-1.882 1.059c-1.106-1.373-2.333-2.6-3.706-3.706l1.059-1.882 1.235-5.824-3.294-1.882-4.412 3.941-1.118 1.941c-1.617-.626-3.297-1.14-5.059-1.412v-2.176l-1.883-5.646z" fill="#6c7a88"/><path d="m131.353 109.706c.484-.068 1.027-.015 1.529.117 2.008.538 3.185 2.58 2.647 4.588-.538 2.009-2.58 3.244-4.588 2.706s-3.244-2.639-2.706-4.647c.404-1.506 1.665-2.562 3.118-2.765z" fill="#bdc1c6"/><path d="m120.706 111.176c1.206.084 2.35.757 3 1.882 1.04 1.801.448 4.137-1.353 5.176-1.801 1.04-4.078.389-5.118-1.412s-.448-4.078 1.353-5.118c.675-.388 1.395-.579 2.118-.528z" fill="#bdc1c6"/><path d="m140.588 116.706c1.456-.181 2.926.532 3.706 1.882 1.04 1.801.448 4.078-1.353 5.118s-4.137.448-5.176-1.353c-1.04-1.801-.389-4.078 1.412-5.118.45-.26.926-.469 1.411-.529z" fill="#bdc1c6"/><path d="m112.941 120.353c.484-.068.969-.015 1.471.117 2.008.538 3.244 2.58 2.706 4.588s-2.639 3.244-4.647 2.706-3.185-2.639-2.647-4.647c.403-1.507 1.664-2.563 3.117-2.764z" fill="#bdc1c6"/><circle cx="128" cy="127.999" fill="#223140" r="7.529"/><path d="m142.118 128.117c.214-.03.429-.015.647 0 .25.015.514.053.765.117 2.008.538 3.185 2.639 2.647 4.647s-2.58 3.185-4.588 2.647-3.244-2.58-2.706-4.588c.411-1.538 1.739-2.646 3.235-2.823z" fill="#bdc1c6"/><path d="m114.471 131.764c1.456-.181 2.985.532 3.765 1.882 1.04 1.801.389 4.078-1.412 5.118s-4.078.448-5.118-1.353-.448-4.078 1.353-5.118c.45-.26.926-.469 1.412-.529z" fill="#bdc1c6"/><path d="m135.059 137.293c1.456-.181 2.926.532 3.706 1.882 1.04 1.801.448 4.078-1.353 5.118s-4.078.448-5.118-1.353-.448-4.137 1.353-5.176c.45-.26.927-.411 1.412-.471z" fill="#bdc1c6"/><path d="m123.706 138.764c.214-.03.429-.015.647 0 .25.015.455.053.706.117 2.008.538 3.244 2.639 2.706 4.647s-2.639 3.185-4.647 2.647-3.185-2.58-2.647-4.588c.412-1.538 1.739-2.646 3.235-2.823z" fill="#bdc1c6"/></svg>