<svg xmlns="http://www.w3.org/2000/svg" viewBox="0 0 256 256"><path fill="#7f8c8d" fill-rule="evenodd" d="M50.008 38.303S88.229 36 127.45 36c38.821 0 78.643 2.303 78.643 2.303 6.403 0 11.606 5.206 11.606 11.613 0 0 2.301 39.443 2.301 78.686 0 38.842-2.301 77.484-2.301 77.484 0 6.407-5.203 11.613-11.606 11.613 0 0-39.822 2.303-78.643 2.303-39.221 0-77.542-2.303-77.542-2.303-6.403 0-11.606-5.206-11.606-11.613 0 0-2.301-39.343-2.301-78.485 0-38.842 2.301-77.584 2.301-77.584a11.66 11.66 0 0 1 11.706-11.714" clip-rule="evenodd"/><path fill="#87c777" d="M40 128h88L88 56z"/><path fill="#10a284" d="m128 128 40-72 48 72z"/><path fill="#1eae5b" d="m168 200-40-72-40 72z"/><path fill="#48b66a" d="m40 128 48 72 40-72z"/><path fill="#03844b" d="M128 128h88l-48 72z"/><path fill="#25b796" d="M88 56h80l-40 72z"/></svg>