<svg enable-background="new 0 0 256 256" viewBox="0 0 256 256" xmlns="http://www.w3.org/2000/svg"><path clip-rule="evenodd" d="m50.008 38.303s38.221-2.303 77.442-2.303c38.821 0 78.643 2.303 78.643 2.303 6.403 0 11.606 5.206 11.606 11.613 0 0 2.301 39.443 2.301 78.686 0 38.842-2.301 77.484-2.301 77.484 0 6.407-5.203 11.613-11.606 11.613 0 0-39.822 2.303-78.643 2.303-39.221 0-77.542-2.303-77.542-2.303-6.403 0-11.606-5.206-11.606-11.613 0 0-2.301-39.343-2.301-78.485 0-38.842 2.301-77.584 2.301-77.584-.001-6.509 5.202-11.714 11.706-11.714z" fill="#7f8c8d" fill-rule="evenodd"/><path d="m128 67.5-1.832.944c-9.777 5.039-21.977 17.065-32.636 32.171-5.272 7.471-17.532 26.387-17.532 40.65 0 13.589 7.933 22.719 19.74 22.719 5.788 0 12.202-2.199 18.955-6.449l-10.386 24.927-2.309 5.538h6 40 6l-2.308-5.538-10.386-24.927c6.753 4.25 13.167 6.449 18.955 6.449 11.807 0 19.74-9.13 19.74-22.719 0-14.263-12.26-33.178-17.532-40.649-10.659-15.106-22.859-27.133-32.636-32.171z" fill="#93a3a3"/><path d="m128 72c-19.2 9.895-48 49.475-48 69.265 0 18.926 17.567 28.775 44.291 3.637l-16.291 39.098h40l-16.291-39.098c26.724 25.138 44.291 15.289 44.291-3.637 0-19.79-28.8-59.37-48-69.265z" fill="#ececed"/></svg>