<svg height="245.33333" viewBox="0 0 245.33333 245.33333" width="245.33333" xmlns="http://www.w3.org/2000/svg" xmlns:xlink="http://www.w3.org/1999/xlink"><clipPath id="a"><path d="m0 256h256v-256h-256z"/></clipPath><g clip-path="url(#a)" transform="matrix(1.3333333 0 0 -1.3333333 -47.999465 293.33399)"><path d="m0 0s38.221 2.303 77.442 2.303c38.821 0 78.643-2.303 78.643-2.303 6.403 0 11.606-5.206 11.606-11.613 0 0 2.301-39.442 2.301-78.685 0-38.842-2.301-77.484-2.301-77.484 0-6.407-5.203-11.613-11.606-11.613 0 0-39.822-2.302-78.643-2.302-39.221 0-77.542 2.302-77.542 2.302-6.404 0-11.606 5.206-11.606 11.613 0 0-2.302 39.342-2.302 78.485 0 38.842 2.302 77.584 2.302 77.584 0 6.507 5.202 11.713 11.706 11.713" fill="#7f8c8d" fill-rule="evenodd" transform="translate(50.0076 217.6975)"/><path d="m0 0h120.929c1.953 0 3.535-1.583 3.535-3.536v-72.928c0-1.953-1.582-3.536-3.535-3.536h-120.929c-1.953 0-3.536 1.583-3.536 3.536v72.928c0 1.953 1.583 3.536 3.536 3.536" fill="#93a3a3" transform="translate(67.5355 164)"/><g fill="#ecf0f1"><path d="m0 0c-39.764 0-64-7.164-64-16v-16c0-8.836 24.236-16 64-16s64 7.164 64 16v16c0 8.836-24.236 16-64 16" transform="translate(128 192)"/><path d="m0 0c-39.764 0-64 7.164-64 16v-8-8-8c0-8.836 24.236-16 64-16s64 7.164 64 16v8 8 8c0-8.836-24.236-16-64-16" transform="translate(128 128)"/><path d="m0 0c-39.764 0-64 7.164-64 16v-8-8-8c0-8.836 24.236-16 64-16s64 7.164 64 16v8 8 8c0-8.836-24.236-16-64-16" transform="translate(128 88)"/></g><path d="m40 72h24v120h-24z" fill="#7f8c8d"/><path d="m192 72h24v120h-24z" fill="#7f8c8d"/></g></svg>