<svg height="309.33331" viewBox="0 0 309.33331 309.33331" width="309.33331" xmlns="http://www.w3.org/2000/svg" xmlns:xlink="http://www.w3.org/1999/xlink"><clipPath id="a"><path d="m0 256h256v-256h-256z"/></clipPath><g clip-path="url(#a)" transform="matrix(1.3333333 0 0 -1.3333333 -16 325.33306)"><path d="m0 0s48.2 2.901 97.6 2.901c49 0 99.1-2.901 99.1-2.901 8.1 0 14.7-6.603 14.7-14.706 0 0 2.9-49.722 2.9-99.143 0-48.921-2.9-97.642-2.9-97.642 0-8.104-6.6-14.707-14.7-14.707 0 0-50.2-2.901-99.1-2.901-49.4 0-97.7 2.901-97.7 2.901-8.1 0-14.7 6.603-14.7 14.707 0 0-2.9 49.521-2.9 98.842 0 49.022 2.9 97.943 2.9 97.943.1 8.103 6.7 14.706 14.8 14.706" fill="#edefef" fill-rule="evenodd" transform="translate(29.7 241.0988)"/></g></svg>