<svg xmlns="http://www.w3.org/2000/svg" viewBox="0 0 256 256"><path fill="#6680a0" d="M220.164 12H35.94L20 38.22v8.127h216V38.22z"/><path fill="#35495f" d="M20 40h216v204H20z"/><path fill="#2b3e51" d="M43.455 208h168v8h-168zM20 216h216v8H20zm0-16h216v8H20z"/><path fill="#c13c28" d="M48 64h160v128H48z"/><path fill="#223140" d="M65.523 56H36v-5.523A2.477 2.477 0 0 1 38.477 48h27.046A2.477 2.477 0 0 1 68 50.477v3.046A2.477 2.477 0 0 1 65.523 56"/><path fill="#2b3e51" d="M97.523 56H78.477A2.477 2.477 0 0 1 76 53.523v-3.046A2.477 2.477 0 0 1 78.477 48h19.046A2.477 2.477 0 0 1 100 50.477v3.046A2.477 2.477 0 0 1 97.523 56m80 0h-19.046A2.477 2.477 0 0 1 156 53.523v-3.046A2.477 2.477 0 0 1 158.477 48h19.046A2.477 2.477 0 0 1 180 50.477v3.046A2.477 2.477 0 0 1 177.523 56"/><path fill="#223140" d="M145.523 56h-35.046A2.477 2.477 0 0 1 108 53.523v-3.046A2.477 2.477 0 0 1 110.477 48h35.046A2.477 2.477 0 0 1 148 50.477v3.046A2.477 2.477 0 0 1 145.523 56M220 56h-29.523A2.477 2.477 0 0 1 188 53.523v-3.046A2.477 2.477 0 0 1 190.477 48h27.046A2.477 2.477 0 0 1 220 50.477z"/><path fill="#e94b36" d="M140 208h-24v-6a2 2 0 0 1 2-2h20a2 2 0 0 1 2 2z"/><path fill="#c13c28" d="M116 208h24v8h-24z"/><path fill="#e94b36" d="M138 224h-20a2 2 0 0 1-2-2v-6h24v6a2 2 0 0 1-2 2"/><path fill="#c13c28" d="M122 200h12v8h-12z"/><path fill="#e94b36" d="M122 208h12v8h-12z"/><path fill="#c13c28" d="M122 216h12v8h-12z"/><path fill="#2b3e51" d="M36.175 107.395h-4.262c-2.161 0-3.913 1.248-3.913 2.787v3.031c0 1.539 1.752 2.787 3.913 2.787h8.175c2.161 0 3.913-1.248 3.913-2.787V56h-7.825zm183.65-.63V55.37H212v57.213c0 1.539 1.752 2.787 3.913 2.787h8.175c2.161 0 3.913-1.248 3.913-2.787v-3.031c0-1.539-1.752-2.787-3.913-2.787z"/><path fill="#223140" d="M64 200h-4v.14h-4v6a2 2 0 0 0 2 2h2V214a2 2 0 0 0 2 2h4a2 2 0 0 0 2-2v-14zm32 0h-8v6a2 2 0 0 0 2 2h2v6a2 2 0 0 0 2 2h4a2 2 0 0 0 2-2v-14zm60 0v14a2 2 0 0 0 2 2h4a2 2 0 0 0 2-2v-6h2a2 2 0 0 0 2-2v-6zm32 0v14a2 2 0 0 0 2 2h4a2 2 0 0 0 2-2v-5.86l2-.14a2 2 0 0 0 2-2v-6zm46.089 28H21.911c-1.055 0-1.911.754-1.911 1.683v4.015c0 .93.855 1.683 1.911 1.683h51.11c1.055 0 1.911.754 1.911 1.683v5.252c0 .93.855 1.683 1.911 1.683h5.256c1.055 0 1.911-.754 1.911-1.683v-5.252c0-.93.855-1.683 1.911-1.683h19.687c1.055 0 1.911.754 1.911 1.683v5.109c0 .93.855 1.683 1.911 1.683h37.765c1.055 0 1.911-.754 1.911-1.683v-5.109c0-.93.855-1.683 1.911-1.683h18.787c1.055 0 1.911.754 1.911 1.683v5.252c0 .93.855 1.683 1.911 1.683h5.256c1.055 0 1.911-.754 1.911-1.683v-5.252c0-.93.855-1.683 1.911-1.683h51.39c1.055 0 1.911-.754 1.911-1.683v-4.015c-.005-.929-.86-1.683-1.916-1.683m-10.409-70.7h-3.892v-24.6h3.865c2.135 0 3.865-1.171 3.865-2.615v-3.469c0-1.444-1.731-2.615-3.865-2.615H212v42h8.238v39.385c0 1.444 1.731 2.615 3.865 2.615h.031c2.145 0 3.88-1.182 3.865-2.633l-.455-45.469c-.013-1.439-1.74-2.599-3.864-2.599m-191.36 0h3.892v-24.6h-3.865c-2.135 0-3.865-1.171-3.865-2.615v-3.469c0-1.444 1.731-2.615 3.865-2.615H44v42h-8.238v39.385c0 1.444-1.731 2.615-3.865 2.615h-.031c-2.145 0-3.88-1.182-3.865-2.633l.455-45.469c.013-1.439 1.74-2.599 3.864-2.599"/><path fill="#2b3e51" d="M48 236h16v8H48zm144.5 0h15v8h-15z"/><path fill="#e94b36" d="M60 72h25.695l2.557 1.739 2.558 1.739.063 23.625.063 23.625.915.774.915.774-.351.272a19250 19250 0 0 1-31.543 24.109c-.329.228-.319.188.282-1.125l.624-1.361V73.879l-.888-.938zm69.617.122h21.852l2.309 1.53 2.309 1.532v11.984c0 6.59-.038 16.975-.084 23.074l-.083 11.089-2.143 1.657c-6.021 4.657-13.008 10.027-13.045 10.027-.023 0-1.05-.804-2.282-1.787l-7.285-5.803c-2.775-2.21-5.072-4.06-5.105-4.111-.1-.157-.239-44.184-.143-45.183l.09-.932 1.805-1.54zm34.747 0c4.139 0 7.525.02 7.525.047s.539 1.96 1.198 4.302c.659 2.34 1.517 5.394 1.908 6.787.39 1.393.74 2.532.777 2.53.037 0 .386-1.057.775-2.348l2.06-6.833 1.353-4.485H196l-1.584 1.232-1.584 1.232v35.852c0 32.01.021 35.96.196 36.859.238 1.223.831 2.98 1.332 3.945.203.393.35.733.325.757s-.493-.302-1.043-.724c-1.134-.871-7.048-5.406-10.751-8.244l-2.478-1.9.754-.714.754-.714v-16.544c0-9.1-.033-16.513-.072-16.474-.039.038-.201.61-.359 1.27-.158.662-.798 3.262-1.422 5.778-.624 2.517-1.628 6.58-2.23 9.03s-1.443 5.854-1.869 7.566l-.775 3.112-.28-1.16c-.154-.638-1.52-6.596-3.036-13.24-3.737-16.388-3.639-15.963-3.732-16.17-.045-.1-.097 6.398-.115 14.44L168 131.939l-.47-.364c-1.099-.851-10.631-8.717-10.663-8.8-.019-.048.362-.432.846-.851l.881-.762V74.66l-.878-1.212c-.483-.667-.878-1.238-.878-1.27.001-.031 3.387-.056 7.526-.056m-66.601.244h21.912l1.837 1.556 1.836 1.556v46.006l-7.356 5.858c-4.046 3.222-7.389 5.869-7.429 5.883s-1.292-.92-2.783-2.075a6301 6301 0 0 0-7.618-5.883l-4.906-3.783V75.346l2.254-1.49zM72.813 83.1v17.819c0 9.8.031 17.819.069 17.819s1.604-1.243 3.48-2.762 3.482-2.847 3.568-2.953c.125-.151.151-3.28.125-15.025l-.032-14.833-3.606-.032zm64.336 0v17.833c0 14.247.032 17.81.157 17.718.086-.064 1.779-1.371 3.763-2.905l3.606-2.79-.032-14.896-.032-14.897-3.731-.032zm-32.326.248-.076.274c-.042.15-.076 6.848-.077 14.88l-.001 14.608.596.492c.646.533 6.846 5.363 6.898 5.373.017.003.032-8.011.032-17.811V83.348z"/></svg>