<svg enable-background="new 0 0 256 256" viewBox="0 0 256 256" xmlns="http://www.w3.org/2000/svg"><path d="m68 164h120v16h-120z" fill="#93a3a3"/><path d="m33.263 12h189.474c7.018 48.364 7.018 103.636 0 152h-189.474c-7.017-48.364-7.017-103.636 0-152z" fill="#dadfe0"/><path d="m51 24h154c3.866 0 7 3.084 7 6.889v110.222c0 3.805-3.134 6.889-7 6.889h-154c-3.866 0-7-3.084-7-6.889v-110.222c0-3.805 3.134-6.889 7-6.889z" fill="#d1d6d2"/><path d="m60.538 38.542c24.889-3.39 96-3.39 120.889 0 1.95.266 3.556 1.512 3.556 3.39v88.136c0 1.878-1.606 3.124-3.556 3.39-24.889 3.39-96 3.39-120.889 0-1.95-.266-3.556-1.512-3.556-3.39v-88.136c0-1.878 1.606-3.124 3.556-3.39z" fill="#35495f"/><path d="m120.982 40c25.602 0 48.556.96 59.905 2.506.034.005.066.01.095.016v86.957c-.03.006-.062.011-.095.016-11.348 1.545-34.302 2.505-59.905 2.505s-48.556-.96-59.905-2.506c-.034-.005-.066-.01-.095-.016v-86.956c.03-.006.062-.011.095-.016 11.349-1.546 34.303-2.506 59.905-2.506m0-4c-24 0-48 .847-60.444 2.542-1.95.266-3.556 1.512-3.556 3.39v88.136c0 1.878 1.606 3.124 3.556 3.39 12.444 1.695 36.444 2.542 60.444 2.542s48-.847 60.444-2.542c1.95-.266 3.556-1.512 3.556-3.39v-88.136c0-1.878-1.606-3.124-3.556-3.39-12.444-1.695-36.444-2.542-60.444-2.542z" fill="#223140"/><g fill="#dadfe0"><circle cx="198.175" cy="101.818" r="6"/><circle cx="198.175" cy="122.545" r="6"/><path d="m12 180h232v64h-232z"/></g><path d="m156 188.01h80v48h-80z" fill="#d1d6d2"/><path d="m216 200.001h-40" fill="#223140"/><path d="m176.001 198h39.999v4h-39.999z" fill="#223140"/><path d="m192 196h8v8h-8z" fill="#223140"/><path d="m208 204h8v4h-8z" fill="#dadfe0"/><path d="m232 224.001h-72" fill="#223140"/><path d="m160.002 222h71.998v4h-71.998z" fill="#223140"/><path d="m192 220h8v8h-8z" fill="#223140"/><path d="m224 228h8v4h-8z" fill="#dadfe0"/><path d="m24 227.334c0-4.411 3.588-8.001 7.999-8.001s8.001 3.59 8.001 8.001-3.59 7.999-8.001 7.999-7.999-3.588-7.999-7.999zm2 0c0 3.308 2.691 5.999 5.999 5.999 3.31 0 6.001-2.691 6.001-5.999 0-3.31-2.691-6.001-6.001-6.001-3.308 0-5.999 2.691-5.999 6.001z" fill="#d1d6d2"/><path d="m24 188h16v16h-16z" fill="#d1d6d2"/><path d="m71.935 48.801h-1.575v.799h-.786v4.8h.786v.801h1.574v-.801h.786v-.8h.788v1.6h-.788v.8h-3.146v-.799h-.788v-.801h-.786v-4.8h.786v-.799h.788v-.801h3.146v.801h.788v1.599h-.788v-.8h-.786v-.799z" fill="#edefef"/><path d="m77.441 49.6h1.574v1.6h-1.574zm0 4h1.574v1.6h-1.574z" fill="#edefef"/><path d="m86.885 55.201h-.786v-.801h-.788v-.8h-.786v-.799h-.786v-.801h-.789v-.799h-.786v-2.4h.786v.799h.788v.8h.786v.801h.786v.799h.788v.801h.786v.799h.788v2.4h-.788v-.799z" fill="#edefef"/></svg>