<svg height="309.33331" viewBox="0 0 309.33331 309.33331" width="309.33331" xmlns="http://www.w3.org/2000/svg" xmlns:xlink="http://www.w3.org/1999/xlink"><clipPath id="a"><path d="m0 256h256v-256h-256z"/></clipPath><g transform="matrix(1.3333333 0 0 -1.3333333 -16 325.33333)"><path d="m188 76h-120v16h120z" fill="#93a3a3"/><g clip-path="url(#a)"><path d="m0 0h189.474c7.017-48.364 7.017-103.636 0-152h-189.474c-7.018 48.364-7.018 103.636 0 152" fill="#dadfe0" transform="translate(33.2632 244)"/><path d="m0 0h154c3.866 0 7-3.084 7-6.889v-110.222c0-3.805-3.134-6.889-7-6.889h-154c-3.866 0-7 3.084-7 6.889v110.222c0 3.805 3.134 6.889 7 6.889" fill="#d1d6d2" transform="translate(51 232)"/><path d="m0 0c24.889 3.39 96 3.39 120.889 0 1.95-.266 3.555-1.512 3.555-3.39v-88.135c0-1.878-1.605-3.125-3.555-3.39-24.889-3.39-96-3.39-120.889 0-1.95.265-3.556 1.512-3.556 3.39v88.135c0 1.878 1.606 3.124 3.556 3.39" fill="#35495f" transform="translate(60.538 217.4576)"/><path d="m0 0c-24 0-48-.847-60.444-2.542-1.95-.266-3.556-1.512-3.556-3.39v-88.136c0-1.878 1.606-3.124 3.556-3.39 12.444-1.695 36.444-2.542 60.444-2.542s48 .847 60.444 2.542c1.95.266 3.556 1.512 3.556 3.39v88.136c0 1.878-1.606 3.124-3.556 3.39-12.444 1.695-36.444 2.542-60.444 2.542m0-4c25.602 0 48.556-.96 59.905-2.506.033-.004.065-.01.095-.016v-86.956c-.03-.006-.062-.012-.095-.016-11.349-1.546-34.303-2.506-59.905-2.506s-48.556.96-59.905 2.506c-.033.004-.065.01-.095.016v86.956c.03.006.062.012.095.016 11.349 1.546 34.303 2.506 59.905 2.506" fill="#223140" transform="translate(120.9825 220)"/><g fill="#dadfe0"><path d="m0 0c0-3.314-2.686-6-6-6s-6 2.686-6 6 2.686 6 6 6 6-2.686 6-6" transform="translate(204.1754 154.1818)"/><path d="m0 0c0-3.314-2.686-6-6-6s-6 2.686-6 6 2.686 6 6 6 6-2.686 6-6" transform="translate(204.1754 133.4545)"/><path d="m12 12h232v64h-232z"/></g><path d="m156 19.99h80v48h-80z" fill="#d1d6d2"/><path d="m0 0h-40" fill="#223140" transform="translate(216 55.9987)"/><path d="m176.001 54h39.999v4h-39.999z" fill="#223140"/><path d="m192 52h8v8h-8z" fill="#223140"/><path d="m208 48h8v4h-8z" fill="#dadfe0"/><path d="m0 0h-72" fill="#223140" transform="translate(232 31.9987)"/><path d="m160.002 30h71.998v4h-71.998z" fill="#223140"/><path d="m192 28h8v8h-8z" fill="#223140"/><path d="m224 24h8v4h-8z" fill="#dadfe0"/><path d="m0 0c0-3.308 2.691-5.999 5.999-5.999 3.31 0 6.001 2.691 6.001 5.999 0 3.31-2.691 6.001-6.001 6.001-3.308 0-5.999-2.691-5.999-6.001m-2 0c0 4.411 3.588 8.001 7.999 8.001s8.001-3.59 8.001-8.001-3.59-7.999-8.001-7.999-7.999 3.588-7.999 7.999" fill="#d1d6d2" transform="translate(26 28.666)"/><path d="m24 52h16v16h-16z" fill="#d1d6d2"/><path d="m0 0h-1.574v-.799h-.786v-4.799h.786v-.802h1.574v.802h.786v.799h.788v-1.601h-.788v-.799h-3.146v.799h-.789v.802h-.786v4.799h.786v.799h.789v.801h3.146v-.801h.788v-1.598h-.788v.799h-.786z" fill="#edefef" transform="translate(71.9347 207.1985)"/><path d="m77.441 202.4h1.574v-1.6h-1.574zm0 4h1.574v-1.6h-1.574z" fill="#edefef"/><path d="m0 0h-.786v.801h-.788v.799h-.786v.8h-.786v.801h-.789v.799h-.786v2.4h.786v-.8h.789v-.799h.786v-.801h.786v-.799h.788v-.801h.786v-.8h.788v-2.399h-.788z" fill="#edefef" transform="translate(86.8851 200.799)"/></g></g></svg>