<svg height="250.67313" viewBox="0 0 245.33381 250.67312" width="245.33382" xmlns="http://www.w3.org/2000/svg" xmlns:xlink="http://www.w3.org/1999/xlink"><clipPath id="a"><path d="m0 256h256v-256h-256z"/></clipPath><g clip-path="url(#a)" transform="matrix(1.3333333 0 0 -1.3333333 -47.999865 296.00293)"><path d="m0 0s38.228 2.301 77.407 2.301c38.862 0 78.596-2.301 78.596-2.301 6.425 0 11.659-5.237 11.659-11.664 0 0 2.3-39.434 2.3-78.63 0-38.8-2.3-77.44-2.3-77.44 0-6.427-5.234-11.664-11.659-11.664 0 0-39.813-2.301-78.596-2.301-39.179 0-77.486 2.301-77.486 2.301-6.424 0-11.659 5.237-11.659 11.664 0 0-2.3 39.275-2.3 78.392 0 38.879 2.3 77.678 2.3 77.678.079 6.427 5.314 11.664 11.738 11.664" fill="#1b80bb" fill-rule="evenodd" transform="translate(50.0379 217.699)"/><path d="m0 0s12-16 56-16 64 16 64 16l-8 8h-104z" fill="#e94b36" transform="translate(68 52)"/><path d="m0 0s-12.835 12.835 0 25.669c0 0 8.556 12.835-4.278 21.392 0 0-1.308.861-3.716 2.18l7.14 12.494 16.992 20.645 1.011 3.185v4.278c-.008 2.357-1.943 4.278-4.3 4.278h-8.681c-1.3 0-2.529-.591-3.341-1.605l-17.113-21.392-.208-.26-.166-.29-7.994-13.989c-11.041 3.93-26.008 7.589-43.798 7.589h-29.947s-42.783-4.279-51.339-21.392c0 0-4.278-4.278 4.278-29.947 0 0 3.793-4.301-4.521-12.846s-12.556-4.267-16.87-25.658c0 0 .036-12.835 12.835-21.392 0 0 12.834-12.834 8.556-21.391l-4.278-12.834 12.834-4.279 8.557 12.835s34.226-12.835 106.956 0l12.835-12.835 8.556 8.557-4.278 12.834 8.556 21.392s12.906 0 12.871 21.391c0 0-4.314 17.113-17.149 21.391" fill="#2b3e51" transform="translate(202.8512 127.8812)"/><path d="m0 0c-7.04-2.348-7.708-4.385-7.763-4.608l.151-.151.159-.583c3.267-4.902 4.111-8.907 2.51-11.903-2.214-4.136-7.925-4.257-8.569-4.257-4.236 0-7.069 1.279-8.418 3.802-2.118 3.957.572 9.357 1.826 11.498-.017.017-.038.033-.059.05-3.681 2.958-23.073.336-35.667-2.465l-.464-.05c-34.579 0-56.056 16.864-56.954 17.581-.921.737-1.069 2.082-.334 3.006.739.919 2.085 1.071 3.006.336.209-.165 21.176-16.566 54.05-16.645 5.904 1.304 32.528 6.798 39.041 1.573 1.199-.961 1.834-2.246 1.834-3.712v-.643l-.359-.542c-1.157-1.748-2.627-2.864-1.57-4.836.685-1.275 2.257-4 4-4 .969.008 3.143 2.387 4 4 .773 1.456.823 1.45-1.433 4.834-.56.504-1.366 2.156-.911 4.089.715 3.039 4.174 5.552 10.57 7.683 12.522 4.176 21.028 8.4 21.112 8.441 1.061.523 2.339.101 2.87-.956.526-1.057.1-2.342-.957-2.871-.355-.177-8.84-4.395-21.671-8.671" fill="#223140" transform="translate(173.5804 136.5494)"/><path d="m0 0s-12-20 0-20 0 20 0 20" fill="#f19c21" transform="translate(160 140)"/><path d="m0 0c-3.995-9.543-11.793-15.062-17.759-12.565-5.965 2.498-7.506 11.926-3.512 21.469 3.995 9.543 11.793 15.062 17.759 12.565 5.966-2.498 7.507-11.926 3.512-21.469" fill="#6c7a88" transform="translate(63.7661 99.8052)"/><path d="m0 0c0-9.597-4.696-17.113-10.696-17.113-5.999 0-10.695 7.516-10.695 17.113s4.696 17.113 10.695 17.113c6 0 10.696-7.516 10.696-17.113" fill="#6c7a88" transform="translate(215.6859 104.3509)"/><path d="m0 0s17.114-12.353 51.339-12.594c34.226-.241 55.617 12.594 55.617 12.594s4.153 4.092-4.278 4.278l-4.279-4.278h-4.278-4.278l-4.278-4.278-4.279 4.278-4.278-4.278h-4.278l-4.278-4.278-4.278 8.556-4.279-8.556-4.278 4.278-4.278-4.278-4.278 4.278-4.279-4.278-4.278 8.556-4.278-4.278h-4.278l-4.279-4.278-4.278 8.556-4.278-4.278-4.278 4.278h-4.279l-4.278 4.278z" fill="#c13c28" transform="translate(74.5041 46.5947)"/><path d="m0 0c-3.141 1.315-8.919-2.675-12.193-10.495-3.274-7.821-2.061-14.737 1.081-16.052 3.141-1.315 8.919 2.674 12.193 10.495 3.273 7.821 2.06 14.737-1.081 16.052" fill="#223140" transform="translate(58.6842 117.7175)"/><path d="m0 0c0-7.562 3.38-12.835 6.417-12.835 3.038 0 6.418 5.273 6.418 12.835s-3.38 12.835-6.418 12.835c-3.037 0-6.417-5.273-6.417-12.835" fill="#223140" transform="translate(198.573 104.3509)"/><path d="m0 0c0-11.046-30.445-20-68-20s-68 8.954-68 20 30.445 20 68 20 68-8.954 68-20" fill="#223140" transform="translate(196 164)"/><path d="m0 0c0-7.732-27.758-14-62-14s-62 6.268-62 14 27.758 14 62 14 62-6.268 62-14" fill="#f19c21" transform="translate(192 162)"/><path d="m0 0 17.113 21.391h8.556l.111-4.744-17.224-20.925-17.002-29.948c0-4.278-4.279-4.278-4.279-4.278-8.556 0-8.556 4.278-8.556 4.278z" fill="#e77f25" transform="translate(189.9063 196.333)"/><path d="m0 0-22.678-37.796c1.041-.231 2.306-.375 3.86-.375 0 0 4.278 0 4.278 4.278l17.003 29.948 17.223 20.925-.061 2.645z" fill="#d35627" transform="translate(196.3141 196)"/><g fill="#eec41b"><path d="m0 0c-1.1 0-2 .9-2 2s.9 2 2 2 2-.9 2-2-.9-2-2-2" transform="translate(82 164)"/><path d="m0 0c-1.1 0-2 .9-2 2s.9 2 2 2 2-.9 2-2-.9-2-2-2" transform="translate(110 156)"/><path d="m0 0c-1.1 0-2 .9-2 2s.9 2 2 2 2-.9 2-2-.9-2-2-2" transform="translate(138 168)"/><path d="m0 0c-1.1 0-2 .9-2 2s.9 2 2 2 2-.9 2-2-.9-2-2-2" transform="translate(142 152)"/><path d="m0 0c-1.1 0-2 .9-2 2s.9 2 2 2 2-.9 2-2-.9-2-2-2" transform="translate(186 160)"/></g><path d="m0 0c-1.1 0-2 .9-2 2s.9 2 2 2 2-.9 2-2-.9-2-2-2" fill="#e77f25" transform="translate(154 152)"/><path d="m0 0c-1.1 0-2 .9-2 2s.9 2 2 2 2-.9 2-2-.9-2-2-2" fill="#e77f25" transform="translate(118 152)"/><path d="m0 0c-1.1 0-2 .9-2 2s.9 2 2 2 2-.9 2-2-.9-2-2-2" fill="#e77f25" transform="translate(158 124)"/><path d="m0 0c-1.1 0-2 .9-2 2s.9 2 2 2 2-.9 2-2-.9-2-2-2" fill="#eec41b" transform="translate(162 128)"/><path d="m0 0c-1.1 0-2 .9-2 2s.9 2 2 2 2-.9 2-2-.9-2-2-2" fill="#e77f25" transform="translate(126 160)"/><path d="m0 0c-1.1 0-2 .9-2 2s.9 2 2 2 2-.9 2-2-.9-2-2-2" fill="#e77f25" transform="translate(150 168)"/><path d="m0 0c-1.1 0-2 .9-2 2s.9 2 2 2 2-.9 2-2-.9-2-2-2" fill="#e77f25" transform="translate(98 168)"/><path d="m0 0c-1.1 0-2 .9-2 2s.9 2 2 2 2-.9 2-2-.9-2-2-2" fill="#d35627" transform="translate(86 156)"/><path d="m0 0c-1.1 0-2 .9-2 2s.9 2 2 2 2-.9 2-2-.9-2-2-2" fill="#e77f25" transform="translate(74 160)"/><path d="m0 0c-1.1 0-2 .9-2 2s.9 2 2 2 2-.9 2-2-.9-2-2-2" fill="#e77f25" transform="translate(126 168)"/><path d="m0 0c-1.1 0-2 .9-2 2s.9 2 2 2 2-.9 2-2-.9-2-2-2" fill="#e77f25" transform="translate(98 156)"/><path d="m0 0c-1.1 0-2 .9-2 2s.9 2 2 2 2-.9 2-2-.9-2-2-2" fill="#d35627" transform="translate(162 160)"/><path d="m0 0c-1.1 0-2 .9-2 2s.9 2 2 2 2-.9 2-2-.9-2-2-2" fill="#e77f25" transform="translate(138 160)"/><path d="m0 0c-1.1 0-2 .9-2 2s.9 2 2 2 2-.9 2-2-.9-2-2-2" fill="#d35627" transform="translate(110 164)"/></g></svg>