<svg enable-background="new 0 0 256 256" viewBox="0 0 256 256" xmlns="http://www.w3.org/2000/svg"><path d="m128 148-112 4v.195c0 2.131 1.671 3.889 3.8 3.995l76.2 3.81h32 32l76.2-3.81c2.129-.106 3.8-1.864 3.8-3.995v-.195z" fill="#c13c28"/><path d="m240 96h-63.843c-.087 0-.157-.07-.157-.157 0-2.122-1.721-3.843-3.843-3.843h-88.314c-2.122 0-3.843 1.721-3.843 3.843 0 .087-.07.157-.157.157h-63.843c-2.209 0-4 1.791-4 4v48c0 2.209 1.791 4 4 4h80v6.534c0 5.206 4.26 9.466 9.466 9.466h45.069c5.206 0 9.466-4.26 9.466-9.466v-6.534h80c2.209 0 4-1.791 4-4v-48c-.001-2.209-1.792-4-4.001-4z" fill="#e94b36"/><path d="m170 100h-84c-1.1 0-2-.9-2-2 0-1.1.9-2 2-2h84c1.1 0 2 .9 2 2 0 1.1-.9 2-2 2z" fill="#93a3a3"/><path d="m20 104h32v12h-32z" fill="#223140"/><path d="m156 140h-52c-2.2 0-4-1.8-4-4 0-2.2 1.8-4 4-4h52c2.2 0 4 1.8 4 4 0 2.2-1.8 4-4 4z" fill="#223140"/><path d="m102 120c-3.3 0-6-2.7-6-6 0-3.3 2.7-6 6-6 3.3 0 6 2.7 6 6 0 3.3-2.7 6-6 6z" fill="#7f8b8c"/><circle cx="102" cy="114" fill="#93a3a3" r="2"/><path d="m190 116c-3.3 0-6-2.7-6-6 0-3.3 2.7-6 6-6 3.3 0 6 2.7 6 6 0 3.3-2.7 6-6 6z" fill="#7f8b8c"/><circle cx="190" cy="110" fill="#93a3a3" r="2"/><path d="m132 112h-8c-2.2 0-4-1.8-4-4 0-2.2 1.8-4 4-4h8c2.2 0 4 1.8 4 4 0 2.2-1.8 4-4 4z" fill="#d35627"/><circle cx="28" cy="136" fill="#c13c28" r="12"/><circle cx="28" cy="136" fill="#7f8b8c" r="4"/><circle cx="68" cy="136" fill="#c13c28" r="12"/><circle cx="68" cy="136" fill="#7f8b8c" r="4"/><circle cx="188" cy="136" fill="#c13c28" r="12"/><circle cx="188" cy="136" fill="#7f8b8c" r="4"/><circle cx="228" cy="136" fill="#c13c28" r="12"/><circle cx="228" cy="136" fill="#7f8b8c" r="4"/><path d="m104 160h4v4h-4z" fill="#223140"/><path d="m116 160h4v4h-4z" fill="#223140"/><path d="m148 160h4v4h-4z" fill="#223140"/><path d="m136 160h4v4h-4z" fill="#223140"/><g fill="#93a3a3"><path d="m111.184 164h-.367c-.449 0-.816-.367-.816-.816v-6.367c0-.449.367-.816.816-.816h.367c.449 0 .816.367.816.816v6.367c0 .449-.367.816-.816.816z"/><path d="m123.184 164h-.367c-.449 0-.816-.367-.816-.816v-6.367c0-.449.367-.816.816-.816h.367c.449 0 .816.367.816.816v6.367c0 .449-.367.816-.816.816z"/><path d="m133.184 164h-.367c-.449 0-.816-.367-.816-.816v-6.367c0-.449.367-.816.816-.816h.367c.449 0 .816.367.816.816v6.367c0 .449-.367.816-.816.816z"/><path d="m145.184 164h-.367c-.449 0-.816-.367-.816-.816v-6.367c0-.449.367-.816.816-.816h.367c.449 0 .816.367.816.816v6.367c0 .449-.367.816-.816.816z"/></g><circle cx="124" cy="108" fill="#e77f25" r="2"/><circle cx="132" cy="108" fill="#e77f25" r="2"/><path d="m226 116c-1.1 0-2-.9-2-2v-4c0-1.1.9-2 2-2 1.1 0 2 .9 2 2v4c0 1.1-.9 2-2 2z" fill="#93a3a3"/><path d="m24 108h4v4h-4z" fill="#ce2028"/></svg>