<svg height="309.33331" viewBox="0 0 293.33331 309.33331" width="293.33331" xmlns="http://www.w3.org/2000/svg" xmlns:xlink="http://www.w3.org/1999/xlink"><clipPath id="a"><path d="m0 256h256v-256h-256z"/></clipPath><g transform="matrix(1.3333333 0 0 -1.3333333 0 325.33333)"><path d="m220 12h-184v232h184z" fill="#2b3e51"/><g clip-path="url(#a)"><path d="m0 0h-136c-2.209 0-4 1.791-4 4v124c0 2.209 1.791 4 4 4h136c2.209 0 4-1.791 4-4v-124c0-2.209-1.791-4-4-4" fill="#1b80bb" transform="translate(196 100)"/><path d="m0 0v-20" fill="#6680a0" transform="translate(0 232.4878)"/><path d="m0 0v-20" fill="#223140" transform="translate(0 212.4878)"/><path d="m0 0v-20" fill="#35495f" transform="translate(0 187.4878)"/><path d="m0 0v-20" fill="#2b3e51" transform="translate(0 167.4878)"/><path d="m0 0v-20" fill="#93a3a3" transform="translate(0 147.4878)"/><path d="m0 0v-20" fill="#7f8b8c" transform="translate(0 127.4878)"/><path d="m0 0v-20" fill="#d1d6d2" transform="translate(0 102.4878)"/></g></g></svg>