<svg xmlns="http://www.w3.org/2000/svg" viewBox="0 0 256 256"><path fill="#d35627" d="M68 16h120v64H68z"/><path fill="#dadfe0" d="M180 76V12H76v64H48v144h160V76z"/><path fill="#e77f25" d="M184 12h12l12 12v52h-24zM72 12H60L48 24v52h24z"/><path fill="#d1d6d2" d="M76 40h104v4H76zm0-8h104v4H76zm0 16h104v4H76zm0 8h104v4H76z"/><path fill="#d35627" d="M48 32h24v4H48zm0 8h24v4H48zm0 8h24v4H48zm0 8h24v4H48zm136-24h24v4h-24zm0 8h24v4h-24zm0 8h24v4h-24zm0 8h24v4h-24z"/><path fill="#c13c28" d="M60 80h136v32H60z"/><path fill="#223140" d="M180 96H76L64 80h128z"/><g fill="#d1d6d2"><path d="M204 244H52l-4-24h160zM48 120h24v4H48zm0 8h24v4H48zm0 8h24v4H48zm0 8h24v4H48zm0 8h24v4H48zm0 8h24v4H48zm0 8h24v4H48zm0 8h24v4H48zm0 8h24v4H48zm0 8h24v4H48zm0 8h24v4H48zm0 8h24v4H48zm136-88h24v4h-24zm0 8h24v4h-24zm0 8h24v4h-24zm0 8h24v4h-24zm0 8h24v4h-24zm0 8h24v4h-24zm0 8h24v4h-24zm0 8h24v4h-24zm0 8h24v4h-24zm0 8h24v4h-24zm0 8h24v4h-24zm0 8h24v4h-24z"/><circle cx="128" cy="166" r="42"/></g><circle cx="128" cy="166" r="18" fill="#223140"/><circle cx="128" cy="166" r="14" fill="#2b3e51"/><path fill="#bdc1c6" d="m144.918 151.911 10.002-10.002a1.93 1.93 0 0 0 0-2.729l-.099-.099a1.93 1.93 0 0 0-2.729 0l-10.002 10.002c-.767.767-.733 1.996.035 2.763l.031.031c.765.767 1.995.801 2.762.034M108 166v-.02c.001-1.085-.843-1.98-1.929-1.98H91.93a1.93 1.93 0 0 0-1.93 1.93v.14a1.93 1.93 0 0 0 1.93 1.93h14.141c1.085 0 1.93-.894 1.929-1.98zm20-20h.02c1.085.001 1.98-.843 1.98-1.929V129.93a1.93 1.93 0 0 0-1.93-1.93h-.14a1.93 1.93 0 0 0-1.93 1.93v14.141c0 1.085.894 1.93 1.98 1.929zm-14.089 3.082-10.002-10.002a1.93 1.93 0 0 0-2.729 0l-.099.099a1.93 1.93 0 0 0 0 2.729l10.002 10.002c.767.767 1.996.733 2.763-.035l.031-.031c.767-.765.801-1.995.034-2.762M149.929 164c-1.085 0-1.93.894-1.929 1.98v.04c-.001 1.085.843 1.98 1.929 1.98h14.141a1.93 1.93 0 0 0 1.93-1.93v-.14a1.93 1.93 0 0 0-1.93-1.93zm-7.84 18.918 10.002 10.002a1.93 1.93 0 0 0 2.729 0l.099-.099a1.93 1.93 0 0 0 0-2.729l-10.002-10.002c-.767-.767-1.996-.733-2.763.035l-.031.031c-.767.765-.801 1.995-.034 2.762m-31.007-2.829-10.002 10.002a1.93 1.93 0 0 0 0 2.729l.099.099a1.93 1.93 0 0 0 2.729 0l10.002-10.002c.767-.767.733-1.996-.035-2.763l-.031-.031c-.765-.767-1.995-.801-2.762-.034M128 186h-.02c-1.085-.001-1.98.843-1.98 1.929v14.141a1.93 1.93 0 0 0 1.93 1.93h.14a1.93 1.93 0 0 0 1.93-1.93v-14.141c0-1.085-.894-1.93-1.98-1.929z"/></svg>