<svg height="309.33331" viewBox="0 0 95.999999 309.33331" width="96" xmlns="http://www.w3.org/2000/svg" xmlns:xlink="http://www.w3.org/1999/xlink"><clipPath id="a"><path d="m0 256h256v-256h-256z"/></clipPath><g clip-path="url(#a)" transform="matrix(1.3333333 0 0 -1.3333333 -122.66666 325.33333)"><path d="m0 0v12s0 4-12 8-8 32 20 32 40-20 40-24-4-8-16-8c-12.649 0-12-20-12-20z" fill="#223140" transform="translate(116 192)"/><path d="m0 0h-60c-3.314 0-6 2.686-6 6v160c0 3.314 2.686 6 6 6l30 4 30-4c3.314 0 6-2.686 6-6v-160c0-3.314-2.686-6-6-6" fill="#35495f" transform="translate(158 12)"/><path d="m0 0h-48v176.611c0 1.956 1.414 3.625 3.342 3.946l20.658 3.443 20.658-3.443c1.928-.321 3.342-1.99 3.342-3.946z" fill="#2b3e51" transform="translate(152 12)"/><g fill="#223140"><path d="m0 0c0-1.105-.895-2-2-2s-2 .895-2 2 .895 2 2 2 2-.895 2-2" transform="translate(100 178)"/><path d="m0 0c0-1.105-.895-2-2-2s-2 .895-2 2 .895 2 2 2 2-.895 2-2" transform="translate(160 178)"/><path d="m0 0c0-1.105-.895-2-2-2s-2 .895-2 2 .895 2 2 2 2-.895 2-2" transform="translate(100 18)"/><path d="m0 0c0-1.105-.895-2-2-2s-2 .895-2 2 .895 2 2 2 2-.895 2-2" transform="translate(160 18)"/><path d="m152 172h-48v4h48z"/><path d="m152 164h-48v4h48z"/><path d="m152 156h-48v4h48z"/><path d="m152 148h-48v4h48z"/><path d="m152 140h-48v4h48z"/><path d="m152 132h-48v4h48z"/><path d="m152 124h-48v4h48z"/><path d="m152 116h-48v4h48z"/><path d="m152 108h-48v4h48z"/><path d="m152 100h-48v4h48z"/><path d="m152 92h-48v4h48z"/><path d="m152 84h-48v4h48z"/><path d="m152 76h-48v4h48z"/><path d="m152 68h-48v4h48z"/><path d="m152 60h-48v4h48z"/><path d="m152 52h-48v4h48z"/><path d="m152 44h-48v4h48z"/><path d="m152 36h-48v4h48z"/><path d="m152 28h-48v4h48z"/></g><path d="m0 0h-40l-4 4h48z" fill="#6680a0" transform="translate(148 20)"/><path d="m0 0h-48l4 4h40z" fill="#223140" transform="translate(152 16)"/></g></svg>