<svg height="309.33331" viewBox="0 0 309.33331 309.33331" width="309.33331" xmlns="http://www.w3.org/2000/svg" xmlns:xlink="http://www.w3.org/1999/xlink"><clipPath id="a"><path d="m0 256h256v-256h-256z"/></clipPath><g clip-path="url(#a)" transform="matrix(1.3333333 0 0 -1.3333333 -15.999733 325.33306)"><path d="m0 0s48.191 2.903 97.644 2.903c48.949 0 99.159-2.903 99.159-2.903 8.074 0 14.634-6.564 14.634-14.642 0 0 2.901-49.732 2.901-99.212 0-48.975-2.901-97.698-2.901-97.698 0-8.078-6.56-14.642-14.634-14.642 0 0-50.21-2.903-99.159-2.903-49.453 0-97.77 2.903-97.77 2.903-8.074 0-14.634 6.564-14.634 14.642 0 0-2.902 49.606-2.902 98.96 0 48.975 2.902 97.824 2.902 97.824 0 8.204 6.56 14.768 14.76 14.768" fill="#223140" fill-rule="evenodd" transform="translate(29.6618 241.0968)"/><path d="m0 0 24-68h72l-60-48 24-68-60 44-60-44 24 68-60 48h72z" fill="#edefef" transform="translate(128 220)"/></g></svg>