<svg xmlns="http://www.w3.org/2000/svg" viewBox="0 0 256 256"><path fill="#10a284" d="M12 12v232h232V12zm8 228a4 4 0 1 1 0-8 4 4 0 0 1 0 8m0-216a4 4 0 1 1 0-8 4 4 0 0 1 0 8m216 216a4 4 0 1 1 0-8 4 4 0 0 1 0 8"/><path fill="#1b80bb" d="M88 160h12v4H88z"/><path fill="#eec41b" d="M104 160h12v4h-12z"/><path fill="#48b66a" d="M120 160h12v4h-12z"/><path fill="#e94b36" d="M136 160h12v4h-12z"/><path fill="#bdc1c6" d="M32 92h20v8H32z"/><path fill="#223140" d="M32.5 48h36v36h-36z"/><path fill="#2b3e51" d="M40 56h20v20H40z"/><path fill="#223140" d="M32 20h40v16H32zm48-4h12v36H80zm76 0h12v32h-12zm16 0h12v32h-12zm16 0h12v32h-12zm16 0h12v32h-12z"/><path fill="#6c7a88" d="M166 58v28h-8V58zm2-2h-12v32h12zm14 2v28h-8V58zm2-2h-12v32h12zm14 2v28h-8V58zm2-2h-12v32h12zm14 2v28h-8V58zm2-2h-12v32h12z"/><path fill="#223140" d="M227.864 15.543h12v36h-12zm0 40.457h12v36h-12zM80 56h12v36H80zm16-40h12v36H96zm0 40h12v36H96zm16-40h12v36h-12zm0 40h12v36h-12zm16-40h12v36h-12zm0 40h12v36h-12zM68 96h8v24h-8zm12 0h8v24h-8zm12 0h8v24h-8zm12 0h8v24h-8zm12 0h8v24h-8zm12 0h8v24h-8zm12 0h8v24h-8zm12 0h8v24h-8zm12 0h8v24h-8zm12 0h8v24h-8zm12 0h8v24h-8zm12 0h8v24h-8zm12 0h8v24h-8zm12 0h8v24h-8zm-39.863 64.075h8v20h-8zM196 160h8v20h-8zm-11.863 28.075h8v20h-8zM196 188h8v20h-8zm-11.863 24.075h8v20h-8zM196 212h8v20h-8zM87.849 172h8v32h-8zM100 172h8v32h-8zm12.151 0h8v32h-8zm12.151 0h8v32h-8zm12.152 0h8v32h-8zM148 172h12v32h-12zm-60.151 36h8v32h-8zM100 208h8v32h-8zm12.151 0h8v32h-8zm12.151 0h8v32h-8zm12.152 0h8v32h-8zM148 208h12v32h-12zM24 160h28v28H24zm36 0h8v20h-8zm12 0h8v20h-8zm-12 24h8v20h-8zm12 0h8v20h-8z"/><path fill="#bdc1c6" d="M28 208h8v16h-8zm12 0h8v16h-8zm12 0h8v16h-8zm12 0h8v16h-8z"/><path fill="#223140" d="M220 128h12v32h-12zm-8 40h8v32h-8zm0 40h8v32h-8zM52 104.423h8v16h-8zM40 104h8v16h-8zm-12-.423h8v16h-8zM28 136h8v16h-8zm12 0h8v16h-8zm12 0h8v16h-8zm12-8h8v24h-8zm12 0h8v24h-8zm12 0h8v24h-8zm12 0h8v24h-8zm12 0h8v24h-8zm12 0h8v24h-8zm12 0h8v24h-8zm12 0h8v24h-8zm12 0h8v24h-8zm12 0h8v24h-8zm12 0h8v24h-8zm12 0h8v24h-8zm12 0h8v24h-8z"/></svg>