<svg height="309.33331" viewBox="0 0 309.33331 309.33331" width="309.33331" xmlns="http://www.w3.org/2000/svg" xmlns:xlink="http://www.w3.org/1999/xlink"><clipPath id="a"><path d="m0 256h256v-256h-256z"/></clipPath><g clip-path="url(#a)" transform="matrix(1.3333333 0 0 -1.3333333 -16 325.33333)"><path d="m0 0c-2.209 0-4 1.791-4 4s1.791 4 4 4 4-1.791 4-4-1.791-4-4-4m-216 216c-2.209 0-4 1.791-4 4s1.791 4 4 4 4-1.791 4-4-1.791-4-4-4m0-216c-2.209 0-4 1.791-4 4s1.791 4 4 4 4-1.791 4-4-1.791-4-4-4m-8-4h232v232h-232z" fill="#10a284" transform="translate(236 16)"/><path d="m100 92h-12v4h12z" fill="#1b80bb"/><path d="m116 92h-12v4h12z" fill="#eec41b"/><path d="m132 92h-12v4h12z" fill="#48b66a"/><path d="m148 92h-12v4h12z" fill="#e94b36"/><path d="m52 156h-20v8h20z" fill="#bdc1c6"/><path d="m68.5 172h-36v36h36z" fill="#223140"/><path d="m60 180h-20v20h20z" fill="#2b3e51"/><path d="m72 220h-40v16h40z" fill="#223140"/><path d="m92 204h-12v36h12z" fill="#223140"/><path d="m168 208h-12v32h12z" fill="#223140"/><path d="m184 208h-12v32h12z" fill="#223140"/><path d="m200 208h-12v32h12z" fill="#223140"/><path d="m216 208h-12v32h12z" fill="#223140"/><path d="m168 200h-12v-32h12zm-2-30h-8v28h8z" fill="#6c7a88"/><path d="m184 200h-12v-32h12zm-2-30h-8v28h8z" fill="#6c7a88"/><path d="m200 200h-12v-32h12zm-2-30h-8v28h8z" fill="#6c7a88"/><path d="m216 200h-12v-32h12zm-2-30h-8v28h8z" fill="#6c7a88"/><g fill="#223140"><path d="m239.864 204.457h-12v36h12z"/><path d="m239.864 164h-12v36h12z"/><path d="m92 164h-12v36h12z"/><path d="m108 204h-12v36h12z"/><path d="m108 164h-12v36h12z"/><path d="m124 204h-12v36h12z"/><path d="m124 164h-12v36h12z"/><path d="m140 204h-12v36h12z"/><path d="m140 164h-12v36h12z"/><path d="m76 136h-8v24h8z"/><path d="m88 136h-8v24h8z"/><path d="m100 136h-8v24h8z"/><path d="m112 136h-8v24h8z"/><path d="m124 136h-8v24h8z"/><path d="m136 136h-8v24h8z"/><path d="m148 136h-8v24h8z"/><path d="m160 136h-8v24h8z"/><path d="m172 136h-8v24h8z"/><path d="m184 136h-8v24h8z"/><path d="m196 136h-8v24h8z"/><path d="m208 136h-8v24h8z"/><path d="m220 136h-8v24h8z"/><path d="m232 136h-8v24h8z"/><path d="m192.137 75.925h-8v20h8z"/><path d="m204 76h-8v20h8z"/><path d="m192.137 47.925h-8v20h8z"/><path d="m204 48h-8v20h8z"/><path d="m192.137 23.925h-8v20h8z"/><path d="m204 24h-8v20h8z"/><path d="m95.849 52h-8v32h8z"/><path d="m108 52h-8v32h8z"/><path d="m120.151 52h-8v32h8z"/><path d="m132.302 52h-8v32h8z"/><path d="m144.454 52h-8v32h8z"/><path d="m160 52h-12v32h12z"/><path d="m95.849 16h-8v32h8z"/><path d="m108 16h-8v32h8z"/><path d="m120.151 16h-8v32h8z"/><path d="m132.302 16h-8v32h8z"/><path d="m144.454 16h-8v32h8z"/><path d="m160 16h-12v32h12z"/><path d="m52 68h-28v28h28z"/><path d="m68 76h-8v20h8z"/><path d="m80 76h-8v20h8z"/><path d="m68 52h-8v20h8z"/><path d="m80 52h-8v20h8z"/></g><path d="m36 32h-8v16h8z" fill="#bdc1c6"/><path d="m48 32h-8v16h8z" fill="#bdc1c6"/><path d="m60 32h-8v16h8z" fill="#bdc1c6"/><path d="m72 32h-8v16h8z" fill="#bdc1c6"/><path d="m232 96h-12v32h12z" fill="#223140"/><path d="m220 56h-8v32h8z" fill="#223140"/><path d="m220 16h-8v32h8z" fill="#223140"/><path d="m60 135.577h-8v16h8z" fill="#223140"/><path d="m48 136h-8v16h8z" fill="#223140"/><path d="m36 136.423h-8v16h8z" fill="#223140"/><path d="m36 104h-8v16h8z" fill="#223140"/><path d="m48 104h-8v16h8z" fill="#223140"/><path d="m60 104h-8v16h8z" fill="#223140"/><path d="m72 104h-8v24h8z" fill="#223140"/><path d="m84 104h-8v24h8z" fill="#223140"/><path d="m96 104h-8v24h8z" fill="#223140"/><path d="m108 104h-8v24h8z" fill="#223140"/><path d="m120 104h-8v24h8z" fill="#223140"/><path d="m132 104h-8v24h8z" fill="#223140"/><path d="m144 104h-8v24h8z" fill="#223140"/><path d="m156 104h-8v24h8z" fill="#223140"/><path d="m168 104h-8v24h8z" fill="#223140"/><path d="m180 104h-8v24h8z" fill="#223140"/><path d="m192 104h-8v24h8z" fill="#223140"/><path d="m204 104h-8v24h8z" fill="#223140"/><path d="m216 104h-8v24h8z" fill="#223140"/></g></svg>