<svg enable-background="new 0 0 256 256" viewBox="0 0 256 256" xmlns="http://www.w3.org/2000/svg"><path d="m124 48c-64 0-96 8-96 8v4 148h200v-148-4s-40-8-104-8z" fill="#2b3e51"/><g fill="#35495f"><path d="m44 204h-32v-144c0-2.209 1.791-4 4-4h28z"/><path d="m212 204h32v-144c0-2.209-1.791-4-4-4h-28z"/><path d="m48 144h160v4h-160z"/><path d="m48 152h160v4h-160z"/><path d="m48 160h160v4h-160z"/><path d="m48 168h160v4h-160z"/><path d="m48 176h160v4h-160z"/><path d="m48 184h160v4h-160z"/><path d="m48 192h160v4h-160z"/><path d="m48 200h160v4h-160z"/></g><path d="m68 148h40v12h-40z" fill="#223140"/><path d="m148 148h40v12h-40z" fill="#223140"/><path d="m48 56h160v20h-160z" fill="#35495f"/><path d="m216 140h-176c-2.209 0-4-1.791-4-4v-64c0-2.209 1.791-4 4-4h176c2.209 0 4 1.791 4 4v64c0 2.209-1.791 4-4 4z" fill="#1b80bb"/></svg>