<svg enable-background="new 0 0 256 256" viewBox="0 0 256 256" xmlns="http://www.w3.org/2000/svg"><path d="m240 220h-224c-2.209 0-4-1.791-4-4v-176c0-2.209 1.791-4 4-4h224c2.209 0 4 1.791 4 4v176c0 2.209-1.791 4-4 4z" fill="#dadfe0"/><path d="m224 212h-104c-2.209 0-4-1.791-4-4v-100c0-2.209 1.791-4 4-4h104c2.209 0 4 1.791 4 4v100c0 2.209-1.791 4-4 4z" fill="#93a3a3"/><path d="m224 96h-104c-2.209 0-4-1.791-4-4v-52c0-2.209 1.791-4 4-4h104c2.209 0 4 1.791 4 4v52c0 2.209-1.791 4-4 4z" fill="#d1d6d2"/><path d="m128 52h92v24h-92z" fill="#35495f"/><path d="m128 62h92v4h-92z" fill="#2b3e51"/><circle cx="172" cy="172" fill="#223140" r="24"/><path d="m120 156h8v24h-8z" fill="#3394d1"/><path d="m124 152h96v24h-96z" fill="#35495f"/><path d="m124 176h96v8h-96z" fill="#2b3e51"/><path d="m124 152h96v8h-96z" fill="#6c7a88"/><path d="m64 188h-52v-116h52c2.209 0 4 1.791 4 4v108c0 2.209-1.791 4-4 4z" fill="#93a3a3"/><path d="m53 208h-30c-1.657 0-3-1.343-3-3v-146c0-1.657 1.343-3 3-3h30c1.657 0 3 1.343 3 3v146c0 1.657-1.343 3-3 3z" fill="#ececed"/><path d="m24 80h24v12h-24z" fill="#3394d1"/><path d="m76 188h28v12h-28z" fill="#bfbfbf"/><path d="m80 192h20v4h-20z" fill="#e94b36"/><path d="m88 192h4v4h-4z" fill="#c13c28"/><circle cx="78" cy="178" fill="#223140" r="2"/><circle cx="100" cy="176" fill="#e94b36" r="4"/></svg>