<svg xmlns="http://www.w3.org/2000/svg" viewBox="0 0 256 256"><path fill="#93a3a3" d="M29.077 73.077 32 76l36-8s0-11.714-38.578 3.436a1.004 1.004 0 0 0-.345 1.641m197.846 0L224 76l-36-8s0-11.714 38.578 3.436c.67.263.854 1.132.345 1.641M124 64H92l4-4h24zm40 0h-32l4-4h24z"/><path fill="#edefef" d="M224 76c-16-16-96-14-96-14s-80-2-96 14-16 52-16 52v24s0 44 36 44 28-4 76-4 40 4 76 4 36-44 36-44v-24s0-36-16-52"/><path fill="#35495f" d="M184 180a786 786 0 0 1-112 0 8 8 0 0 1-8-8l-.36-3.965A421 421 0 0 1 64 88a8 8 0 0 1 8-8 786 786 0 0 1 112 0 8 8 0 0 1 8 8 421 421 0 0 1 .36 80.035L192 172a8 8 0 0 1-8 8"/><path fill="#223140" d="M128 80.003c18.556 0 37.349.67 55.857 1.992l.072.005H184c3.308 0 6 2.692 6 6v.1l.01.099a420 420 0 0 1 .359 79.655l-.36 3.965-.008.09V172c0 3.308-2.692 6-6 6h-.071l-.071.005a787 787 0 0 1-55.857 1.992c-18.556 0-37.349-.67-55.857-1.992l-.074-.005H72c-3.308 0-6-2.692-6-6v-.091l-.008-.09-.36-3.965a420 420 0 0 1 .359-79.655L66 88.1V88c0-3.308 2.692-6 6-6h.071l.071-.005A788 788 0 0 1 128 80.003m0-2c-18.679 0-37.357.666-56 1.997a8 8 0 0 0-8 8 421 421 0 0 0-.36 80.035L64 172a8 8 0 0 0 8 8 786 786 0 0 0 112 0 8 8 0 0 0 8-8l.36-3.965A421 421 0 0 0 192 88a8 8 0 0 0-8-8 786 786 0 0 0-56-1.997"/><path fill="#6c7a88" d="M72 84h112v84H72z"/><circle cx="46" cy="134" r="6" fill="#93a3a3"/><circle cx="206" cy="134" r="6" fill="#93a3a3"/><circle cx="209" cy="111" r="7" fill="#93a3a3"/><path fill="#d1d6d2" d="M40 120.5c-9.098 0-16.5-7.402-16.5-16.5S30.902 87.5 40 87.5s16.5 7.402 16.5 16.5-7.402 16.5-16.5 16.5m0-32c-8.547 0-15.5 6.953-15.5 15.5s6.953 15.5 15.5 15.5 15.5-6.953 15.5-15.5S48.547 88.5 40 88.5"/><circle cx="40" cy="104" r="13" fill="#d1d6d2"/><circle cx="221" cy="99" r="7" fill="#93a3a3"/><circle cx="40" cy="104" r="6" fill="#bfbfbf"/><path fill="#93a3a3" d="M46 98a6 6 0 1 0-12 0 6 6 0 1 0 0 12 6 6 0 1 0 12 0 6 6 0 1 0 0-12"/><path fill="#7f8b8c" d="M31 104c0 .552.448 1 1 1s.552-2 0-2-1 .448-1 1m17 1a1 1 0 0 0 0-2c-.552 0-.552 2 0 2m-8-10c-.552 0-1 .448-1 1s2 .552 2 0-.448-1-1-1m-1 17a1 1 0 0 0 2 0c0-.552-2-.552-2 0"/><circle cx="40" cy="104" r="4" fill="#7f8b8c"/><path fill="#93a3a3" d="M54.856 164c0-.321.252-.572.572-.572s.572.251.572.572a.58.58 0 0 1-.572.572.58.58 0 0 1-.572-.572m-2.288 0c0-.321.252-.572.572-.572s.572.251.572.572a.58.58 0 0 1-.572.572.58.58 0 0 1-.572-.572m-2.288 0c0-.321.252-.572.572-.572s.572.251.572.572a.58.58 0 0 1-.572.572.58.58 0 0 1-.572-.572m-13.727 0c0-.321.252-.572.572-.572s.572.251.572.572a.58.58 0 0 1-.572.572.58.58 0 0 1-.572-.572m-2.265 0c0-.321.23-.572.55-.572.319 0 .572.251.572.572a.58.58 0 0 1-.572.572c-.32 0-.55-.275-.55-.572M32 164c0-.321.23-.572.55-.572.319 0 .572.251.572.572a.58.58 0 0 1-.572.572c-.32 0-.55-.275-.55-.572m12 10.856c.321 0 .572.252.572.572A.567.567 0 0 1 44 176a.58.58 0 0 1-.572-.572c0-.319.275-.572.572-.572m0-2.288c.321 0 .572.252.572.572a.567.567 0 0 1-.572.572.58.58 0 0 1-.572-.572c0-.319.275-.572.572-.572m0-2.288c.321 0 .572.252.572.572a.567.567 0 0 1-.572.572.58.58 0 0 1-.572-.572c0-.319.275-.572.572-.572m0-8.852c.321 0 .572.252.572.572a.567.567 0 0 1-.572.572.58.58 0 0 1-.572-.572c0-.319.275-.572.572-.572m0 4c.321 0 .572.252.572.572a.567.567 0 0 1-.572.572.58.58 0 0 1-.572-.572c0-.319.275-.572.572-.572M46.572 164a.566.566 0 0 1-.572.572.567.567 0 0 1-.572-.572c0-.297.252-.572.572-.572s.572.275.572.572m-4 0a.566.566 0 0 1-.572.572.567.567 0 0 1-.572-.572c0-.297.252-.572.572-.572s.572.275.572.572M44 156.553c.321 0 .572.252.572.572a.567.567 0 0 1-.572.572.58.58 0 0 1-.572-.572c0-.319.275-.572.572-.572m0-2.265c.321 0 .572.23.572.55a.567.567 0 0 1-.572.572.58.58 0 0 1-.572-.572c0-.32.275-.55.572-.55M44 152c.321 0 .572.23.572.55a.567.567 0 0 1-.572.572.58.58 0 0 1-.572-.572c0-.32.275-.55.572-.55m7.684 4.323a.567.567 0 0 1 0-.809.567.567 0 0 1 .809 0c.21.21.226.583 0 .809a.583.583 0 0 1-.809 0m-1.618 1.617a.567.567 0 0 1 0-.809.567.567 0 0 1 .809 0c.21.21.226.583 0 .809a.58.58 0 0 1-.809 0m-1.618 1.618a.567.567 0 0 1 0-.809.567.567 0 0 1 .809 0c.21.21.226.583 0 .809a.58.58 0 0 1-.809 0m-9.706 9.706a.567.567 0 0 1 0-.809.567.567 0 0 1 .809 0c.21.21.226.583 0 .809a.58.58 0 0 1-.809 0m-1.602 1.602c-.227-.227-.242-.567-.016-.793a.567.567 0 0 1 .809 0c.21.21.226.583 0 .809s-.583.195-.793-.016m-1.618 1.618c-.227-.227-.242-.567-.016-.793a.567.567 0 0 1 .809 0c.21.21.226.583 0 .809s-.583.194-.793-.016m16.155-.8a.567.567 0 0 1 .809 0 .567.567 0 0 1 0 .809.58.58 0 0 1-.809 0 .583.583 0 0 1 0-.809m-1.617-1.618a.567.567 0 0 1 .809 0 .567.567 0 0 1 0 .809.58.58 0 0 1-.809 0 .58.58 0 0 1 0-.809m-1.618-1.618a.567.567 0 0 1 .809 0 .567.567 0 0 1 0 .809.58.58 0 0 1-.809 0 .58.58 0 0 1 0-.809m-9.707-9.706a.567.567 0 0 1 .809 0 .567.567 0 0 1 0 .809.58.58 0 0 1-.809 0 .583.583 0 0 1 0-.809m-1.601-1.602c.227-.227.567-.242.793-.016a.567.567 0 0 1 0 .809.58.58 0 0 1-.809 0c-.226-.226-.195-.583.016-.793m-1.618-1.618c.227-.227.567-.242.793-.016a.567.567 0 0 1 0 .809.58.58 0 0 1-.809 0c-.226-.226-.194-.583.016-.793m12.644-1.551a.567.567 0 0 1-.31-.747.567.567 0 0 1 .747-.31.58.58 0 0 1 .31.747.583.583 0 0 1-.747.31m-.876 2.113a.567.567 0 0 1-.31-.747.567.567 0 0 1 .747-.31.58.58 0 0 1 .31.747.58.58 0 0 1-.747.31m-.876 2.114a.567.567 0 0 1-.31-.747.567.567 0 0 1 .747-.31.58.58 0 0 1 .31.747.58.58 0 0 1-.747.31m-.875 2.114a.567.567 0 0 1-.31-.747.567.567 0 0 1 .747-.31.58.58 0 0 1 .31.747.583.583 0 0 1-.747.31m-3.502 8.454a.567.567 0 0 1-.31-.747.567.567 0 0 1 .747-.31.58.58 0 0 1 .31.747.58.58 0 0 1-.747.31m-.876 2.114a.567.567 0 0 1-.31-.747.567.567 0 0 1 .747-.31.58.58 0 0 1 .31.747.58.58 0 0 1-.747.31m-.867 2.093c-.296-.123-.44-.431-.318-.727a.567.567 0 0 1 .747-.31.58.58 0 0 1 .31.747c-.122.296-.464.404-.739.29m-.875 2.114c-.296-.123-.44-.431-.318-.727a.567.567 0 0 1 .747-.31.58.58 0 0 1 .31.747c-.123.296-.465.404-.739.29m14.616-6.927a.567.567 0 0 1 .747-.31.567.567 0 0 1 .31.747.58.58 0 0 1-.747.31.583.583 0 0 1-.31-.747m-2.113-.876a.567.567 0 0 1 .747-.31.567.567 0 0 1 .31.747.58.58 0 0 1-.747.31.58.58 0 0 1-.31-.747m-2.114-.876a.567.567 0 0 1 .747-.31.567.567 0 0 1 .31.747.58.58 0 0 1-.747.31.58.58 0 0 1-.31-.747m-2.114-.875a.567.567 0 0 1 .747-.31.567.567 0 0 1 .31.747.58.58 0 0 1-.747.31.583.583 0 0 1-.31-.747m-8.454-3.502a.567.567 0 0 1 .747-.31.567.567 0 0 1 .31.747.58.58 0 0 1-.747.31.58.58 0 0 1-.31-.747m-2.114-.876a.567.567 0 0 1 .747-.31.567.567 0 0 1 .31.747.58.58 0 0 1-.747.31.58.58 0 0 1-.31-.747m-2.093-.867c.123-.296.431-.44.727-.318a.567.567 0 0 1 .31.747.58.58 0 0 1-.747.31c-.296-.122-.404-.464-.29-.739m-2.114-.875c.123-.296.431-.44.727-.318a.567.567 0 0 1 .31.747.58.58 0 0 1-.747.31c-.296-.123-.404-.465-.29-.739m21.12.43a.566.566 0 0 1 .31-.747.566.566 0 0 1 .747.31.58.58 0 0 1-.31.747.58.58 0 0 1-.747-.31m-2.113.876a.566.566 0 0 1 .31-.747.566.566 0 0 1 .747.31.58.58 0 0 1-.31.747.58.58 0 0 1-.747-.31m-2.114.875a.566.566 0 0 1 .31-.747.566.566 0 0 1 .747.31.58.58 0 0 1-.31.747.58.58 0 0 1-.747-.31m-2.114.876a.566.566 0 0 1 .31-.747.566.566 0 0 1 .747.31.58.58 0 0 1-.31.747.583.583 0 0 1-.747-.31m-8.455 3.502a.566.566 0 0 1 .31-.747.566.566 0 0 1 .747.31.58.58 0 0 1-.31.747.583.583 0 0 1-.747-.31m-2.113.875a.566.566 0 0 1 .31-.747.566.566 0 0 1 .747.31.58.58 0 0 1-.31.747.58.58 0 0 1-.747-.31m-2.093.867c-.123-.296-.006-.616.289-.739a.566.566 0 0 1 .747.31.58.58 0 0 1-.31.747c-.295.123-.613-.043-.726-.318m-2.114.876c-.123-.296-.006-.616.289-.739a.566.566 0 0 1 .747.31.58.58 0 0 1-.31.747c-.294.122-.612-.044-.726-.318m15.24 5.443a.566.566 0 0 1 .747.31.566.566 0 0 1-.31.747.58.58 0 0 1-.747-.31.58.58 0 0 1 .31-.747m-.876-2.113a.566.566 0 0 1 .747.31.566.566 0 0 1-.31.747.58.58 0 0 1-.747-.31.58.58 0 0 1 .31-.747m-.875-2.114a.566.566 0 0 1 .747.31.566.566 0 0 1-.31.747.58.58 0 0 1-.747-.31.58.58 0 0 1 .31-.747m-.876-2.114a.566.566 0 0 1 .747.31.566.566 0 0 1-.31.747.58.58 0 0 1-.747-.31.583.583 0 0 1 .31-.747m-3.502-8.455a.566.566 0 0 1 .747.31.566.566 0 0 1-.31.747.58.58 0 0 1-.747-.31.583.583 0 0 1 .31-.747m-.875-2.113a.566.566 0 0 1 .747.31.566.566 0 0 1-.31.747.58.58 0 0 1-.747-.31.58.58 0 0 1 .31-.747m-.867-2.093c.296-.123.616-.006.739.289a.566.566 0 0 1-.31.747.58.58 0 0 1-.747-.31c-.123-.295.043-.613.318-.726m-.876-2.114c.296-.123.616-.006.739.289a.566.566 0 0 1-.31.747.58.58 0 0 1-.747-.31c-.122-.294.044-.612.318-.726M222.856 164c0-.321.252-.572.572-.572s.572.251.572.572a.58.58 0 0 1-.572.572.58.58 0 0 1-.572-.572m-2.288 0c0-.321.252-.572.572-.572s.572.251.572.572a.58.58 0 0 1-.572.572.58.58 0 0 1-.572-.572m-2.288 0c0-.321.252-.572.572-.572s.572.251.572.572a.58.58 0 0 1-.572.572.58.58 0 0 1-.572-.572m-13.727 0c0-.321.252-.572.572-.572s.572.251.572.572a.58.58 0 0 1-.572.572.58.58 0 0 1-.572-.572m-2.265 0c0-.321.23-.572.55-.572.319 0 .572.251.572.572a.58.58 0 0 1-.572.572c-.32 0-.55-.275-.55-.572M200 164c0-.321.23-.572.55-.572.319 0 .572.251.572.572a.58.58 0 0 1-.572.572c-.32 0-.55-.275-.55-.572m12 10.856c.321 0 .572.252.572.572A.567.567 0 0 1 212 176a.58.58 0 0 1-.572-.572c0-.319.275-.572.572-.572m0-2.288c.321 0 .572.252.572.572a.567.567 0 0 1-.572.572.58.58 0 0 1-.572-.572c0-.319.275-.572.572-.572m0-2.288c.321 0 .572.252.572.572a.567.567 0 0 1-.572.572.58.58 0 0 1-.572-.572c0-.319.275-.572.572-.572m0-8.852c.321 0 .572.252.572.572a.567.567 0 0 1-.572.572.58.58 0 0 1-.572-.572c0-.319.275-.572.572-.572m0 4c.321 0 .572.252.572.572a.567.567 0 0 1-.572.572.58.58 0 0 1-.572-.572c0-.319.275-.572.572-.572m2.572-1.428a.566.566 0 0 1-.572.572.567.567 0 0 1-.572-.572c0-.297.252-.572.572-.572s.572.275.572.572m-4 0a.566.566 0 0 1-.572.572.567.567 0 0 1-.572-.572c0-.297.252-.572.572-.572s.572.275.572.572m1.428-7.447c.321 0 .572.252.572.572a.567.567 0 0 1-.572.572.58.58 0 0 1-.572-.572c0-.319.275-.572.572-.572m0-2.265c.321 0 .572.23.572.55a.567.567 0 0 1-.572.572.58.58 0 0 1-.572-.572c0-.32.275-.55.572-.55m0-2.288c.321 0 .572.23.572.55a.567.567 0 0 1-.572.572.58.58 0 0 1-.572-.572c0-.32.275-.55.572-.55m7.684 4.323a.567.567 0 0 1 0-.809.567.567 0 0 1 .809 0c.21.21.226.583 0 .809a.583.583 0 0 1-.809 0m-1.618 1.617a.567.567 0 0 1 0-.809.567.567 0 0 1 .809 0c.21.21.226.583 0 .809a.58.58 0 0 1-.809 0m-1.618 1.618a.567.567 0 0 1 0-.809.567.567 0 0 1 .809 0c.21.21.226.583 0 .809a.58.58 0 0 1-.809 0m-9.706 9.706a.567.567 0 0 1 0-.809.567.567 0 0 1 .809 0c.21.21.226.583 0 .809a.58.58 0 0 1-.809 0m-1.602 1.602c-.227-.227-.242-.567-.016-.793a.567.567 0 0 1 .809 0c.21.21.226.583 0 .809s-.583.195-.793-.016m-1.618 1.618c-.227-.227-.242-.567-.016-.793a.567.567 0 0 1 .809 0c.21.21.226.583 0 .809s-.583.194-.793-.016m16.155-.8a.567.567 0 0 1 .809 0 .567.567 0 0 1 0 .809.58.58 0 0 1-.809 0 .583.583 0 0 1 0-.809m-1.617-1.618a.567.567 0 0 1 .809 0 .567.567 0 0 1 0 .809.58.58 0 0 1-.809 0 .58.58 0 0 1 0-.809m-1.618-1.618a.567.567 0 0 1 .809 0 .567.567 0 0 1 0 .809.58.58 0 0 1-.809 0 .58.58 0 0 1 0-.809m-9.706-9.706a.567.567 0 0 1 .809 0 .567.567 0 0 1 0 .809.58.58 0 0 1-.809 0 .58.58 0 0 1 0-.809m-1.602-1.602c.227-.227.567-.242.793-.016a.567.567 0 0 1 0 .809.58.58 0 0 1-.809 0c-.226-.226-.195-.583.016-.793m-1.618-1.618c.227-.227.567-.242.793-.016a.567.567 0 0 1 0 .809.58.58 0 0 1-.809 0c-.226-.226-.194-.583.016-.793m12.644-1.551a.567.567 0 0 1-.31-.747.567.567 0 0 1 .747-.31.58.58 0 0 1 .31.747.583.583 0 0 1-.747.31m-.876 2.113a.567.567 0 0 1-.31-.747.567.567 0 0 1 .747-.31.58.58 0 0 1 .31.747.58.58 0 0 1-.747.31m-.876 2.114a.567.567 0 0 1-.31-.747.567.567 0 0 1 .747-.31.58.58 0 0 1 .31.747.58.58 0 0 1-.747.31m-.875 2.114a.567.567 0 0 1-.31-.747.567.567 0 0 1 .747-.31.58.58 0 0 1 .31.747.583.583 0 0 1-.747.31m-3.502 8.454a.567.567 0 0 1-.31-.747.567.567 0 0 1 .747-.31.58.58 0 0 1 .31.747.58.58 0 0 1-.747.31m-.876 2.114a.567.567 0 0 1-.31-.747.567.567 0 0 1 .747-.31.58.58 0 0 1 .31.747.58.58 0 0 1-.747.31m-.867 2.093c-.296-.123-.44-.431-.318-.727a.567.567 0 0 1 .747-.31.58.58 0 0 1 .31.747c-.122.296-.464.404-.739.29m-.875 2.114c-.296-.123-.44-.431-.318-.727a.567.567 0 0 1 .747-.31.58.58 0 0 1 .31.747c-.123.296-.465.404-.739.29m14.616-6.927a.567.567 0 0 1 .747-.31.567.567 0 0 1 .31.747.58.58 0 0 1-.747.31.583.583 0 0 1-.31-.747m-2.113-.876a.567.567 0 0 1 .747-.31.567.567 0 0 1 .31.747.58.58 0 0 1-.747.31.58.58 0 0 1-.31-.747m-2.114-.876a.567.567 0 0 1 .747-.31.567.567 0 0 1 .31.747.58.58 0 0 1-.747.31.58.58 0 0 1-.31-.747m-2.114-.875a.567.567 0 0 1 .747-.31.567.567 0 0 1 .31.747.58.58 0 0 1-.747.31.583.583 0 0 1-.31-.747m-8.454-3.502a.567.567 0 0 1 .747-.31.567.567 0 0 1 .31.747.58.58 0 0 1-.747.31.58.58 0 0 1-.31-.747m-2.114-.876a.567.567 0 0 1 .747-.31.567.567 0 0 1 .31.747.58.58 0 0 1-.747.31.58.58 0 0 1-.31-.747m-2.093-.867c.123-.296.431-.44.727-.318a.567.567 0 0 1 .31.747.58.58 0 0 1-.747.31c-.296-.122-.404-.464-.29-.739m-2.114-.875c.123-.296.431-.44.727-.318a.567.567 0 0 1 .31.747.58.58 0 0 1-.747.31c-.296-.123-.404-.465-.29-.739m21.12.43a.566.566 0 0 1 .31-.747.566.566 0 0 1 .747.31.58.58 0 0 1-.31.747.58.58 0 0 1-.747-.31m-2.113.876a.566.566 0 0 1 .31-.747.566.566 0 0 1 .747.31.58.58 0 0 1-.31.747.58.58 0 0 1-.747-.31m-2.114.875a.566.566 0 0 1 .31-.747.566.566 0 0 1 .747.31.58.58 0 0 1-.31.747.58.58 0 0 1-.747-.31m-2.114.876a.566.566 0 0 1 .31-.747.566.566 0 0 1 .747.31.58.58 0 0 1-.31.747.583.583 0 0 1-.747-.31m-8.455 3.502a.566.566 0 0 1 .31-.747.566.566 0 0 1 .747.31.58.58 0 0 1-.31.747.583.583 0 0 1-.747-.31m-2.113.875a.566.566 0 0 1 .31-.747.566.566 0 0 1 .747.31.58.58 0 0 1-.31.747.58.58 0 0 1-.747-.31m-2.093.867c-.123-.296-.006-.616.289-.739a.566.566 0 0 1 .747.31.58.58 0 0 1-.31.747c-.295.123-.613-.043-.726-.318m-2.114.876c-.123-.296-.006-.616.289-.739a.566.566 0 0 1 .747.31.58.58 0 0 1-.31.747c-.294.122-.612-.044-.726-.318m15.24 5.443a.566.566 0 0 1 .747.31.566.566 0 0 1-.31.747.58.58 0 0 1-.747-.31.58.58 0 0 1 .31-.747m-.876-2.113a.566.566 0 0 1 .747.31.566.566 0 0 1-.31.747.58.58 0 0 1-.747-.31.58.58 0 0 1 .31-.747m-.875-2.114a.566.566 0 0 1 .747.31.566.566 0 0 1-.31.747.58.58 0 0 1-.747-.31.58.58 0 0 1 .31-.747m-.876-2.114a.566.566 0 0 1 .747.31.566.566 0 0 1-.31.747.58.58 0 0 1-.747-.31.583.583 0 0 1 .31-.747m-3.502-8.455a.566.566 0 0 1 .747.31.566.566 0 0 1-.31.747.58.58 0 0 1-.747-.31.583.583 0 0 1 .31-.747m-.875-2.113a.566.566 0 0 1 .747.31.566.566 0 0 1-.31.747.58.58 0 0 1-.747-.31.58.58 0 0 1 .31-.747m-.867-2.093c.296-.123.616-.006.739.289a.566.566 0 0 1-.31.747.58.58 0 0 1-.747-.31c-.123-.295.043-.613.318-.726m-.876-2.114c.296-.123.616-.006.739.289a.566.566 0 0 1-.31.747.58.58 0 0 1-.747-.31c-.122-.294.044-.612.318-.726"/><path fill="#e94b36" d="M128 70a2 2 0 0 1-2-2v-6h4v6a2 2 0 0 1-2 2"/></svg>