<svg xmlns="http://www.w3.org/2000/svg" viewBox="0 0 256 256"><path fill="#2b3e51" d="m32 216 28 28h155.998a8 8 0 0 0 8-8.002L224 16a4 4 0 0 0-4-4H36a4 4 0 0 0-4 4z"/><path fill="#d35627" d="M68 128h120c6.627 0 12 5.373 12 12v64c0 6.627-5.373 12-12 12H68c-6.627 0-12-5.373-12-12v-64c0-6.627 5.373-12 12-12"/><path fill="#223140" d="M60 99.948C60.028 86.694 70.797 75.972 84.052 76S108.029 86.797 108 100.051c-.028 13.255-10.797 23.977-24.051 23.948-13.236-.027-23.95-10.766-23.949-24.001"/><path fill="#1b80bb" d="M62 12h132v52a8 8 0 0 1-8 8H70a8 8 0 0 1-8-8z"/><path fill="#e77f25" d="M72 132h112c6.627 0 12 5.373 12 12v56c0 6.627-5.373 12-12 12H72c-6.627 0-12-5.373-12-12v-56c0-6.627 5.373-12 12-12"/><path fill="#223140" d="M120 92h72v24h-72z"/><g fill="#d35627"><path d="M74 216v-39.365c3.913-.852 8.032-1.614 12-2.096V216h2v-41.671c2.079-.203 4.103-.329 6-.329 2.007 0 4.018.132 6 .358V216h2v-41.378c4.324.636 8.444 1.686 12 2.797V216h2v-37.931c5.689 1.918 9.515 3.804 9.628 3.86a86 86 0 0 0 2.372.896V216h2v-32.466a146 146 0 0 0 12 3.589V216h2v-28.392c3.83.896 7.938 1.66 12 2.07V216h2v-26.152c1.349.096 2.687.152 4 .152 2.605 0 5.304-.208 8-.552V216h2v-26.834c4.184-.638 8.303-1.575 12-2.564V216h2v-32.051c-6.988 2.011-16.037 4.051-24 4.051-15.618 0-35.43-7.849-35.553-7.895C125.785 179.774 110.052 172 94 172c-6.765 0-14.848 1.385-22 3.007V216zm-2-56.922C79.176 157.431 87.325 156 94 156c15.569 0 31.395 7.815 31.628 7.929.825.329 20.364 8.071 36.372 8.071 8.051 0 16.993-1.958 24-3.947V136h-2v30.503c-3.691 1.005-7.814 1.96-12 2.62V128h-2v41.409c-2.709.36-5.412.591-8 .591-1.308 0-2.647-.059-4-.16V128h-2v41.663c-4.048-.426-8.169-1.217-12-2.13V128h-2v39.037a149 149 0 0 1-12-3.63V128h-2v34.691c-.974-.358-1.533-.579-1.553-.586-.331-.165-4.428-2.191-10.447-4.175V128h-2v29.298c-3.571-1.089-7.676-2.098-12-2.707V128h-2v26.338a56 56 0 0 0-6-.338c-1.911 0-3.929.113-6 .308V128h-2v26.518c-3.979.467-8.092 1.208-12 2.047V128h-2v29.007z"/><path d="M56 172.949c.238-.08 24.344-7.949 40-7.949 15.569 0 31.395 7.815 31.628 7.929.825.329 20.364 8.071 36.372 8.071 15.003 0 33.107-6.8 36-7.925v-2.004c-.199.08-20.382 7.929-36 7.929s-35.43-7.849-35.553-7.895C127.785 170.774 112.052 163 96 163c-15.198 0-37.051 6.982-40 7.947z"/></g></svg>