<svg height="181.33333" viewBox="0 0 298.66665 181.33333" width="298.66666" xmlns="http://www.w3.org/2000/svg" xmlns:xlink="http://www.w3.org/1999/xlink"><clipPath id="a"><path d="m0 256h256v-256h-256z"/></clipPath><g clip-path="url(#a)" transform="matrix(1.3333333 0 0 -1.3333333 -21.333333 261.33333)"><path d="m0 0 2.923-2.923 36 8s0 11.714-38.578-3.436c-.67-.263-.854-1.132-.345-1.641" fill="#93a3a3" transform="translate(29.0771 182.9229)"/><path d="m0 0-2.923-2.923-36 8s0 11.714 38.578-3.436c.67-.263.854-1.132.345-1.641" fill="#93a3a3" transform="translate(226.9229 182.9229)"/><path d="m0 0h-32l4 4h24z" fill="#93a3a3" transform="translate(124 192)"/><path d="m0 0h-32l4 4h24z" fill="#93a3a3" transform="translate(164 192)"/><path d="m0 0c-16 16-96 14-96 14s-80 2-96-14-16-52-16-52v-24s0-44 36-44 28 4 76 4 40-4 76-4 36 44 36 44v24s0 36-16 52" fill="#edefef" transform="translate(224 180)"/><path d="m0 0c-37.286-2.663-74.714-2.663-112 0-4.418 0-8 3.582-8 8l-.36 3.965c-2.421 26.629-2.301 53.429.36 80.035 0 4.418 3.582 8 8 8 37.286 2.663 74.714 2.663 112 0 4.418 0 8-3.582 8-8 2.661-26.606 2.781-53.406.36-80.035l-.36-3.965c0-4.418-3.582-8-8-8" fill="#35495f" transform="translate(184 76)"/><path d="m0 0c-18.679 0-37.357-.666-56-1.997-4.418 0-8-3.582-8-8v-.001c-2.661-26.606-2.781-53.405-.36-80.034l.36-3.965c0-4.419 3.582-8 8-8 18.643-1.332 37.321-1.998 56-1.998s37.357.666 56 1.998c4.418 0 8 3.581 8 8l.36 3.965c2.421 26.629 2.301 53.428-.36 80.034v.001c0 4.418-3.582 8-8 8-18.643 1.331-37.321 1.997-56 1.997m0-2c18.556 0 37.349-.67 55.857-1.992l.072-.005h.071c3.308 0 6-2.692 6-6.001v-.099l.01-.1c2.642-26.416 2.762-53.215.359-79.654l-.361-3.965-.008-.091v-.09c0-3.309-2.692-6-6-6h-.071l-.072-.006c-18.508-1.322-37.301-1.992-55.857-1.992s-37.349.67-55.857 1.992l-.072.006h-.071c-3.308 0-6 2.691-6 6v.09l-.008.091-.361 3.965c-2.403 26.439-2.283 53.238.359 79.655l.01.099v.1c0 3.308 2.692 6 6 6h.071l.072.005c18.508 1.322 37.301 1.992 55.857 1.992" fill="#223140" transform="translate(128 177.9975)"/><path d="m184 88h-112v84h112z" fill="#6c7a88"/><path d="m0 0c0-3.314-2.686-6-6-6s-6 2.686-6 6 2.686 6 6 6 6-2.686 6-6" fill="#93a3a3" transform="translate(52 122)"/><path d="m0 0c0-3.314-2.686-6-6-6s-6 2.686-6 6 2.686 6 6 6 6-2.686 6-6" fill="#93a3a3" transform="translate(212 122)"/><path d="m0 0c0-3.866-3.134-7-7-7s-7 3.134-7 7 3.134 7 7 7 7-3.134 7-7" fill="#93a3a3" transform="translate(216 145)"/><path d="m0 0c-8.547 0-15.5-6.953-15.5-15.5s6.953-15.5 15.5-15.5 15.5 6.953 15.5 15.5-6.953 15.5-15.5 15.5m0-32c-9.098 0-16.5 7.402-16.5 16.5s7.402 16.5 16.5 16.5 16.5-7.402 16.5-16.5-7.402-16.5-16.5-16.5" fill="#d1d6d2" transform="translate(40 167.5)"/><path d="m0 0c0-7.18-5.82-13-13-13s-13 5.82-13 13 5.82 13 13 13 13-5.82 13-13" fill="#d1d6d2" transform="translate(53 152)"/><path d="m0 0c0-3.866-3.134-7-7-7s-7 3.134-7 7 3.134 7 7 7 7-3.134 7-7" fill="#93a3a3" transform="translate(228 157)"/><path d="m0 0c0-3.314-2.686-6-6-6s-6 2.686-6 6 2.686 6 6 6 6-2.686 6-6" fill="#bfbfbf" transform="translate(46 152)"/><path d="m0 0c0 3.314-2.686 6-6 6s-6-2.686-6-6c-3.314 0-6-2.686-6-6s2.686-6 6-6c0-3.314 2.686-6 6-6s6 2.686 6 6c3.314 0 6 2.686 6 6s-2.686 6-6 6" fill="#93a3a3" transform="translate(46 158)"/><path d="m0 0c0-.552.448-1 1-1s.552 2 0 2-1-.448-1-1" fill="#7f8b8c" transform="translate(31 152)"/><path d="m0 0c.552 0 1 .448 1 1s-.448 1-1 1-.552-2 0-2" fill="#7f8b8c" transform="translate(48 151)"/><path d="m0 0c-.552 0-1-.448-1-1s2-.552 2 0-.448 1-1 1" fill="#7f8b8c" transform="translate(40 161)"/><path d="m0 0c0-.552.448-1 1-1s1 .448 1 1-2 .552-2 0" fill="#7f8b8c" transform="translate(39 144)"/><path d="m0 0c0-2.209-1.791-4-4-4s-4 1.791-4 4 1.791 4 4 4 4-1.791 4-4" fill="#7f8b8c" transform="translate(44 152)"/><g fill="#93a3a3"><path d="m0 0c0 .321.252.572.572.572.319 0 .572-.251.572-.572 0-.297-.253-.572-.572-.572-.32 0-.572.275-.572.572" transform="translate(54.8561 92)"/><path d="m0 0c0 .321.252.572.572.572.319 0 .572-.251.572-.572 0-.297-.253-.572-.572-.572-.32 0-.572.275-.572.572" transform="translate(52.5682 92)"/><path d="m0 0c0 .321.252.572.572.572.319 0 .572-.251.572-.572 0-.297-.253-.572-.572-.572-.32 0-.572.275-.572.572" transform="translate(50.2804 92)"/><path d="m0 0c0 .321.252.572.572.572.319 0 .572-.251.572-.572 0-.297-.253-.572-.572-.572-.32 0-.572.275-.572.572" transform="translate(36.5533 92)"/><path d="m0 0c0 .321.23.572.55.572.319 0 .572-.251.572-.572 0-.297-.253-.572-.572-.572-.32 0-.55.275-.55.572" transform="translate(34.2878 92)"/><path d="m0 0c0 .321.23.572.55.572.319 0 .572-.251.572-.572 0-.297-.253-.572-.572-.572-.32 0-.55.275-.55.572" transform="translate(32 92)"/><path d="m0 0c.321 0 .572-.252.572-.572 0-.319-.251-.572-.572-.572-.297 0-.572.253-.572.572 0 .32.275.572.572.572" transform="translate(44 81.1439)"/><path d="m0 0c.321 0 .572-.252.572-.572 0-.319-.251-.572-.572-.572-.297 0-.572.253-.572.572 0 .32.275.572.572.572" transform="translate(44 83.4318)"/><path d="m0 0c.321 0 .572-.252.572-.572 0-.319-.251-.572-.572-.572-.297 0-.572.253-.572.572 0 .32.275.572.572.572" transform="translate(44 85.7196)"/><path d="m0 0c.321 0 .572-.252.572-.572 0-.319-.251-.572-.572-.572-.297 0-.572.253-.572.572 0 .32.275.572.572.572" transform="translate(44 94.572)"/><path d="m0 0c.321 0 .572-.252.572-.572 0-.319-.251-.572-.572-.572-.297 0-.572.253-.572.572 0 .32.275.572.572.572" transform="translate(44 90.572)"/><path d="m0 0c0-.321-.252-.572-.572-.572-.319 0-.572.251-.572.572 0 .297.253.572.572.572.32 0 .572-.275.572-.572" transform="translate(46.572 92)"/><path d="m0 0c0-.321-.252-.572-.572-.572-.319 0-.572.251-.572.572 0 .297.253.572.572.572.32 0 .572-.275.572-.572" transform="translate(42.572 92)"/><path d="m0 0c.321 0 .572-.252.572-.572 0-.319-.251-.572-.572-.572-.297 0-.572.253-.572.572 0 .32.275.572.572.572" transform="translate(44 99.4467)"/><path d="m0 0c.321 0 .572-.23.572-.55 0-.319-.251-.572-.572-.572-.297 0-.572.253-.572.572 0 .32.275.55.572.55" transform="translate(44 101.7122)"/><path d="m0 0c.321 0 .572-.23.572-.55 0-.319-.251-.572-.572-.572-.297 0-.572.253-.572.572 0 .32.275.55.572.55" transform="translate(44 104)"/><path d="m0 0c-.227.227-.226.583 0 .809s.582.227.809 0c.21-.21.226-.583 0-.809s-.599-.21-.809 0" transform="translate(51.6835 99.6775)"/><path d="m0 0c-.227.227-.226.583 0 .809s.582.227.809 0c.21-.21.226-.583 0-.809s-.599-.21-.809 0" transform="translate(50.0658 98.0597)"/><path d="m0 0c-.227.227-.226.583 0 .809s.582.227.809 0c.21-.21.226-.583 0-.809s-.599-.21-.809 0" transform="translate(48.448 96.442)"/><path d="m0 0c-.227.227-.226.583 0 .809s.582.227.809 0c.21-.21.226-.583 0-.809s-.599-.21-.809 0" transform="translate(38.7415 86.7355)"/><path d="m0 0c-.227.227-.242.567-.016.793s.582.227.809 0c.21-.21.226-.583 0-.809s-.583-.194-.793.016" transform="translate(37.1396 85.1335)"/><path d="m0 0c-.227.227-.242.567-.016.793s.582.227.809 0c.21-.21.226-.583 0-.809s-.583-.194-.793.016" transform="translate(35.5219 83.5158)"/><path d="m0 0c.227.227.583.226.809 0s.227-.582 0-.809c-.21-.21-.583-.226-.809 0s-.21.599 0 .809" transform="translate(51.6775 84.3165)"/><path d="m0 0c.227.227.583.226.809 0s.227-.582 0-.809c-.21-.21-.583-.226-.809 0s-.21.599 0 .809" transform="translate(50.0597 85.9342)"/><path d="m0 0c.227.227.583.226.809 0s.227-.582 0-.809c-.21-.21-.583-.226-.809 0s-.21.599 0 .809" transform="translate(48.442 87.552)"/><path d="m0 0c.227.227.583.226.809 0s.227-.582 0-.809c-.21-.21-.583-.226-.809 0s-.21.599 0 .809" transform="translate(38.7355 97.2585)"/><path d="m0 0c.227.227.567.242.793.016s.227-.582 0-.809c-.21-.21-.583-.226-.809 0s-.194.583.016.793" transform="translate(37.1335 98.8604)"/><path d="m0 0c.227.227.567.242.793.016s.227-.582 0-.809c-.21-.21-.583-.226-.809 0s-.194.583.016.793" transform="translate(35.5158 100.4781)"/><path d="m0 0c-.296.123-.432.452-.31.747.123.295.452.433.748.31.274-.114.432-.452.309-.747-.122-.296-.472-.424-.747-.31" transform="translate(48.1595 102.0295)"/><path d="m0 0c-.296.123-.432.452-.31.747.123.295.452.433.748.31.274-.114.432-.452.309-.747-.122-.296-.472-.424-.747-.31" transform="translate(47.284 99.9158)"/><path d="m0 0c-.296.123-.432.452-.31.747.123.295.452.433.748.31.274-.114.432-.452.309-.747-.122-.296-.472-.424-.747-.31" transform="translate(46.4085 97.8021)"/><path d="m0 0c-.296.123-.432.452-.31.747.123.295.452.433.748.31.274-.114.432-.452.309-.747-.122-.296-.472-.424-.747-.31" transform="translate(45.533 95.6884)"/><path d="m0 0c-.296.123-.432.452-.31.747.123.295.452.433.748.31.274-.114.432-.452.309-.747-.122-.296-.472-.424-.747-.31" transform="translate(42.0309 87.2336)"/><path d="m0 0c-.296.123-.432.452-.31.747.123.295.452.433.748.31.274-.114.432-.452.309-.747-.122-.296-.472-.424-.747-.31" transform="translate(41.1554 85.1199)"/><path d="m0 0c-.296.123-.44.431-.318.727.122.295.451.432.747.309.275-.113.432-.452.31-.747-.123-.295-.464-.403-.739-.289" transform="translate(40.2884 83.0269)"/><path d="m0 0c-.296.123-.44.431-.318.727.122.295.451.432.747.309.275-.113.432-.452.31-.747-.123-.295-.464-.403-.739-.289" transform="translate(39.4129 80.9132)"/><path d="m0 0c.123.296.452.432.747.31.295-.123.433-.452.31-.748-.114-.274-.452-.432-.747-.309-.296.122-.424.472-.31.747" transform="translate(54.0295 87.8405)"/><path d="m0 0c.123.296.452.432.747.31.295-.123.433-.452.31-.748-.114-.274-.452-.432-.747-.309-.296.122-.424.472-.31.747" transform="translate(51.9158 88.716)"/><path d="m0 0c.123.296.452.432.747.31.295-.123.433-.452.31-.748-.114-.274-.452-.432-.747-.309-.296.122-.424.472-.31.747" transform="translate(49.8021 89.5915)"/><path d="m0 0c.123.296.452.432.747.31.295-.123.433-.452.31-.748-.114-.274-.452-.432-.747-.309-.296.122-.424.472-.31.747" transform="translate(47.6884 90.4671)"/><path d="m0 0c.123.296.452.432.747.31.295-.123.433-.452.31-.748-.114-.274-.452-.432-.747-.309-.296.122-.424.472-.31.747" transform="translate(39.2336 93.9691)"/><path d="m0 0c.123.296.452.432.747.31.295-.123.433-.452.31-.748-.114-.274-.452-.432-.747-.309-.296.122-.424.472-.31.747" transform="translate(37.1199 94.8447)"/><path d="m0 0c.123.296.431.44.727.318.295-.122.432-.451.309-.747-.114-.275-.452-.432-.747-.31-.295.122-.403.464-.289.739" transform="translate(35.0269 95.7116)"/><path d="m0 0c.123.296.431.44.727.318.295-.122.432-.451.309-.747-.113-.275-.452-.432-.747-.31-.295.122-.403.464-.289.739" transform="translate(32.9132 96.5871)"/><path d="m0 0c-.123.296.014.625.31.747.295.123.624-.013.747-.309.114-.275-.015-.625-.31-.748-.295-.122-.633.035-.747.31" transform="translate(54.0333 96.1567)"/><path d="m0 0c-.123.296.014.625.31.747.295.123.624-.013.747-.309.114-.275-.015-.625-.31-.748-.295-.122-.633.035-.747.31" transform="translate(51.9196 95.2812)"/><path d="m0 0c-.123.296.014.625.31.747.295.123.624-.013.747-.309.114-.275-.015-.625-.31-.748-.295-.122-.633.035-.747.31" transform="translate(49.8059 94.4057)"/><path d="m0 0c-.123.296.014.625.31.747.295.123.624-.013.747-.309.114-.275-.015-.625-.31-.748-.295-.122-.633.035-.747.31" transform="translate(47.6922 93.5301)"/><path d="m0 0c-.123.296.014.625.31.747.295.123.624-.013.747-.309.114-.275-.015-.625-.31-.748-.295-.122-.633.035-.747.31" transform="translate(39.2375 90.0281)"/><path d="m0 0c-.123.296.014.625.31.747.295.123.624-.013.747-.309.114-.275-.015-.625-.31-.748-.295-.122-.633.035-.747.31" transform="translate(37.1238 89.1525)"/><path d="m0 0c-.123.296-.006.617.289.739s.625-.014.747-.31c.114-.274-.014-.625-.309-.747-.296-.122-.613.043-.727.318" transform="translate(35.0307 88.2856)"/><path d="m0 0c-.123.296-.006.617.289.739s.625-.014.747-.31c.114-.274-.014-.625-.309-.747-.296-.122-.613.043-.727.318" transform="translate(32.917 87.41)"/><path d="m0 0c.296.123.625-.014.747-.31.123-.295-.013-.624-.309-.747-.275-.114-.625.015-.748.31-.122.295.035.633.31.747" transform="translate(48.1567 81.9667)"/><path d="m0 0c.296.123.625-.014.747-.31.123-.295-.013-.624-.309-.747-.275-.114-.625.015-.748.31-.122.295.035.633.31.747" transform="translate(47.2812 84.0804)"/><path d="m0 0c.296.123.625-.014.747-.31.123-.295-.013-.624-.309-.747-.275-.114-.625.015-.748.31-.122.295.035.633.31.747" transform="translate(46.4057 86.1941)"/><path d="m0 0c.296.123.625-.014.747-.31.123-.295-.013-.624-.309-.747-.275-.114-.625.015-.748.31-.122.295.035.633.31.747" transform="translate(45.5301 88.3078)"/><path d="m0 0c.296.123.625-.014.747-.31.123-.295-.013-.624-.309-.747-.275-.114-.625.015-.748.31-.122.295.035.633.31.747" transform="translate(42.0281 96.7626)"/><path d="m0 0c.296.123.625-.014.747-.31.123-.295-.013-.624-.309-.747-.275-.114-.625.015-.748.31-.122.295.035.633.31.747" transform="translate(41.1525 98.8762)"/><path d="m0 0c.296.123.616.006.739-.289.122-.295-.014-.625-.31-.747-.274-.114-.625.014-.747.309-.122.296.043.613.318.727" transform="translate(40.2856 100.9693)"/><path d="m0 0c.296.123.616.006.739-.289.122-.295-.014-.625-.31-.747-.274-.114-.625.014-.747.309-.122.296.043.613.318.727" transform="translate(39.41 103.083)"/><path d="m0 0c0 .321.252.572.572.572.319 0 .572-.251.572-.572 0-.297-.253-.572-.572-.572-.32 0-.572.275-.572.572" transform="translate(222.8561 92)"/><path d="m0 0c0 .321.252.572.572.572.319 0 .572-.251.572-.572 0-.297-.253-.572-.572-.572-.32 0-.572.275-.572.572" transform="translate(220.5682 92)"/><path d="m0 0c0 .321.252.572.572.572.319 0 .572-.251.572-.572 0-.297-.253-.572-.572-.572-.32 0-.572.275-.572.572" transform="translate(218.2804 92)"/><path d="m0 0c0 .321.252.572.572.572.319 0 .572-.251.572-.572 0-.297-.253-.572-.572-.572-.32 0-.572.275-.572.572" transform="translate(204.5533 92)"/><path d="m0 0c0 .321.23.572.55.572.319 0 .572-.251.572-.572 0-.297-.253-.572-.572-.572-.32 0-.55.275-.55.572" transform="translate(202.2878 92)"/><path d="m0 0c0 .321.23.572.55.572.319 0 .572-.251.572-.572 0-.297-.253-.572-.572-.572-.32 0-.55.275-.55.572" transform="translate(200 92)"/><path d="m0 0c.321 0 .572-.252.572-.572 0-.319-.251-.572-.572-.572-.297 0-.572.253-.572.572 0 .32.275.572.572.572" transform="translate(212 81.1439)"/><path d="m0 0c.321 0 .572-.252.572-.572 0-.319-.251-.572-.572-.572-.297 0-.572.253-.572.572 0 .32.275.572.572.572" transform="translate(212 83.4318)"/><path d="m0 0c.321 0 .572-.252.572-.572 0-.319-.251-.572-.572-.572-.297 0-.572.253-.572.572 0 .32.275.572.572.572" transform="translate(212 85.7196)"/><path d="m0 0c.321 0 .572-.252.572-.572 0-.319-.251-.572-.572-.572-.297 0-.572.253-.572.572 0 .32.275.572.572.572" transform="translate(212 94.572)"/><path d="m0 0c.321 0 .572-.252.572-.572 0-.319-.251-.572-.572-.572-.297 0-.572.253-.572.572 0 .32.275.572.572.572" transform="translate(212 90.572)"/><path d="m0 0c0-.321-.252-.572-.572-.572-.319 0-.572.251-.572.572 0 .297.253.572.572.572.32 0 .572-.275.572-.572" transform="translate(214.572 92)"/><path d="m0 0c0-.321-.252-.572-.572-.572-.319 0-.572.251-.572.572 0 .297.253.572.572.572.32 0 .572-.275.572-.572" transform="translate(210.572 92)"/><path d="m0 0c.321 0 .572-.252.572-.572 0-.319-.251-.572-.572-.572-.297 0-.572.253-.572.572 0 .32.275.572.572.572" transform="translate(212 99.4467)"/><path d="m0 0c.321 0 .572-.23.572-.55 0-.319-.251-.572-.572-.572-.297 0-.572.253-.572.572 0 .32.275.55.572.55" transform="translate(212 101.7122)"/><path d="m0 0c.321 0 .572-.23.572-.55 0-.319-.251-.572-.572-.572-.297 0-.572.253-.572.572 0 .32.275.55.572.55" transform="translate(212 104)"/><path d="m0 0c-.227.227-.226.583 0 .809s.582.227.809 0c.21-.21.226-.583 0-.809s-.599-.21-.809 0" transform="translate(219.6835 99.6775)"/><path d="m0 0c-.227.227-.226.583 0 .809s.582.227.809 0c.21-.21.226-.583 0-.809s-.599-.21-.809 0" transform="translate(218.0658 98.0597)"/><path d="m0 0c-.227.227-.226.583 0 .809s.582.227.809 0c.21-.21.226-.583 0-.809s-.599-.21-.809 0" transform="translate(216.448 96.442)"/><path d="m0 0c-.227.227-.226.583 0 .809s.582.227.809 0c.21-.21.226-.583 0-.809s-.599-.21-.809 0" transform="translate(206.7415 86.7355)"/><path d="m0 0c-.227.227-.242.567-.016.793s.582.227.809 0c.21-.21.226-.583 0-.809s-.583-.194-.793.016" transform="translate(205.1396 85.1335)"/><path d="m0 0c-.227.227-.242.567-.016.793s.582.227.809 0c.21-.21.226-.583 0-.809s-.583-.194-.793.016" transform="translate(203.5219 83.5158)"/><path d="m0 0c.227.227.583.226.809 0s.227-.582 0-.809c-.21-.21-.583-.226-.809 0s-.21.599 0 .809" transform="translate(219.6775 84.3165)"/><path d="m0 0c.227.227.583.226.809 0s.227-.582 0-.809c-.21-.21-.583-.226-.809 0s-.21.599 0 .809" transform="translate(218.0597 85.9342)"/><path d="m0 0c.227.227.583.226.809 0s.227-.582 0-.809c-.21-.21-.583-.226-.809 0s-.21.599 0 .809" transform="translate(216.442 87.552)"/><path d="m0 0c.227.227.583.226.809 0s.227-.582 0-.809c-.21-.21-.583-.226-.809 0s-.21.599 0 .809" transform="translate(206.7355 97.2585)"/><path d="m0 0c.227.227.567.242.793.016s.227-.582 0-.809c-.21-.21-.583-.226-.809 0s-.194.583.016.793" transform="translate(205.1335 98.8604)"/><path d="m0 0c.227.227.567.242.793.016s.227-.582 0-.809c-.21-.21-.583-.226-.809 0s-.194.583.016.793" transform="translate(203.5158 100.4781)"/><path d="m0 0c-.296.123-.432.452-.31.747.123.295.452.433.748.31.274-.114.432-.452.309-.747-.122-.296-.472-.424-.747-.31" transform="translate(216.1595 102.0295)"/><path d="m0 0c-.296.123-.432.452-.31.747.123.295.452.433.748.31.274-.114.432-.452.309-.747-.122-.296-.472-.424-.747-.31" transform="translate(215.284 99.9158)"/><path d="m0 0c-.296.123-.432.452-.31.747.123.295.452.433.748.31.274-.114.432-.452.309-.747-.122-.296-.472-.424-.747-.31" transform="translate(214.4085 97.8021)"/><path d="m0 0c-.296.123-.432.452-.31.747.123.295.452.433.748.31.274-.114.432-.452.309-.747-.122-.296-.472-.424-.747-.31" transform="translate(213.533 95.6884)"/><path d="m0 0c-.296.123-.432.452-.31.747.123.295.452.433.748.31.274-.114.432-.452.309-.747-.122-.296-.472-.424-.747-.31" transform="translate(210.0309 87.2336)"/><path d="m0 0c-.296.123-.432.452-.31.747.123.295.452.433.748.31.274-.114.432-.452.309-.747-.122-.296-.472-.424-.747-.31" transform="translate(209.1553 85.1199)"/><path d="m0 0c-.296.123-.44.431-.318.727.122.295.451.432.747.309.275-.113.432-.452.31-.747-.123-.295-.464-.403-.739-.289" transform="translate(208.2884 83.0269)"/><path d="m0 0c-.296.123-.44.431-.318.727.122.295.451.432.747.309.275-.113.432-.452.31-.747-.123-.295-.464-.403-.739-.289" transform="translate(207.4129 80.9132)"/><path d="m0 0c.123.296.452.432.747.31.295-.123.433-.452.31-.748-.114-.274-.452-.432-.747-.309-.296.122-.424.472-.31.747" transform="translate(222.0295 87.8405)"/><path d="m0 0c.123.296.452.432.747.31.295-.123.433-.452.31-.748-.114-.274-.452-.432-.747-.309-.296.122-.424.472-.31.747" transform="translate(219.9158 88.716)"/><path d="m0 0c.123.296.452.432.747.31.295-.123.433-.452.31-.748-.114-.274-.452-.432-.747-.309-.296.122-.424.472-.31.747" transform="translate(217.8021 89.5915)"/><path d="m0 0c.123.296.452.432.747.31.295-.123.433-.452.31-.748-.114-.274-.452-.432-.747-.309-.296.122-.424.472-.31.747" transform="translate(215.6884 90.4671)"/><path d="m0 0c.123.296.452.432.747.31.295-.123.433-.452.31-.748-.114-.274-.452-.432-.747-.309-.296.122-.424.472-.31.747" transform="translate(207.2336 93.9691)"/><path d="m0 0c.123.296.452.432.747.31.295-.123.433-.452.31-.748-.114-.274-.452-.432-.747-.309-.296.122-.424.472-.31.747" transform="translate(205.1199 94.8447)"/><path d="m0 0c.123.296.431.44.727.318.295-.122.432-.451.309-.747-.114-.275-.452-.432-.747-.31-.295.122-.403.464-.289.739" transform="translate(203.0269 95.7116)"/><path d="m0 0c.123.296.431.44.727.318.295-.122.432-.451.309-.747-.114-.275-.452-.432-.747-.31-.295.122-.403.464-.289.739" transform="translate(200.9132 96.5871)"/><path d="m0 0c-.123.296.014.625.31.747.295.123.624-.013.747-.309.114-.275-.015-.625-.31-.748-.295-.122-.633.035-.747.31" transform="translate(222.0333 96.1567)"/><path d="m0 0c-.123.296.014.625.31.747.295.123.624-.013.747-.309.114-.275-.015-.625-.31-.748-.295-.122-.633.035-.747.31" transform="translate(219.9196 95.2812)"/><path d="m0 0c-.123.296.014.625.31.747.295.123.624-.013.747-.309.114-.275-.015-.625-.31-.748-.295-.122-.633.035-.747.31" transform="translate(217.8059 94.4057)"/><path d="m0 0c-.123.296.014.625.31.747.295.123.624-.013.747-.309.114-.275-.015-.625-.31-.748-.295-.122-.633.035-.747.31" transform="translate(215.6922 93.5301)"/><path d="m0 0c-.123.296.014.625.31.747.295.123.624-.013.747-.309.114-.275-.015-.625-.31-.748-.295-.122-.633.035-.747.31" transform="translate(207.2375 90.0281)"/><path d="m0 0c-.123.296.014.625.31.747.295.123.624-.013.747-.309.114-.275-.015-.625-.31-.748-.295-.122-.633.035-.747.31" transform="translate(205.1238 89.1525)"/><path d="m0 0c-.123.296-.006.617.289.739s.625-.014.747-.31c.114-.274-.014-.625-.309-.747-.296-.122-.613.043-.727.318" transform="translate(203.0307 88.2856)"/><path d="m0 0c-.123.296-.006.617.289.739s.625-.014.747-.31c.114-.274-.014-.625-.309-.747-.296-.122-.613.043-.727.318" transform="translate(200.917 87.41)"/><path d="m0 0c.296.123.625-.014.747-.31.123-.295-.013-.624-.309-.747-.275-.114-.625.015-.748.31-.122.295.035.633.31.747" transform="translate(216.1567 81.9667)"/><path d="m0 0c.296.123.625-.014.747-.31.123-.295-.013-.624-.309-.747-.275-.114-.625.015-.748.31-.122.295.035.633.31.747" transform="translate(215.2812 84.0804)"/><path d="m0 0c.296.123.625-.014.747-.31.123-.295-.013-.624-.309-.747-.275-.114-.625.015-.748.31-.122.295.035.633.31.747" transform="translate(214.4057 86.1941)"/><path d="m0 0c.296.123.625-.014.747-.31.123-.295-.013-.624-.309-.747-.275-.114-.625.015-.748.31-.122.295.035.633.31.747" transform="translate(213.5301 88.3078)"/><path d="m0 0c.296.123.625-.014.747-.31.123-.295-.013-.624-.309-.747-.275-.114-.625.015-.748.31-.122.295.035.633.31.747" transform="translate(210.0281 96.7626)"/><path d="m0 0c.296.123.625-.014.747-.31.123-.295-.013-.624-.309-.747-.275-.114-.625.015-.748.31-.122.295.035.633.31.747" transform="translate(209.1525 98.8762)"/><path d="m0 0c.296.123.616.006.739-.289.122-.295-.014-.625-.31-.747-.274-.114-.625.014-.747.309-.122.296.043.613.318.727" transform="translate(208.2856 100.9693)"/><path d="m0 0c.296.123.616.006.739-.289.122-.295-.014-.625-.31-.747-.274-.114-.625.014-.747.309-.122.296.043.613.318.727" transform="translate(207.41 103.083)"/></g><path d="m0 0c-1.105 0-2 .895-2 2v6h4v-6c0-1.105-.895-2-2-2" fill="#e94b36" transform="translate(128 186)"/></g></svg>