<svg height="202.66666" viewBox="0 0 309.33331 202.66665" width="309.33331" xmlns="http://www.w3.org/2000/svg" xmlns:xlink="http://www.w3.org/1999/xlink"><clipPath id="a"><path d="m0 256h256v-256h-256z"/></clipPath><g transform="matrix(1.3333333 0 0 -1.3333333 -16 271.99999)"><path d="m0 0h-6.121-219.758-6.121v-6.152-139.696-6.152h6.121 219.758 6.121v6.152 139.696z" fill="#223140" transform="translate(244 204)"/><g clip-path="url(#a)"><path d="m0 0h-206.499c-2.623 0-4.75 2.117-4.75 4.729v126.542c0 2.612 2.127 4.729 4.75 4.729h206.499c2.624 0 4.751-2.117 4.751-4.729v-126.542c0-2.612-2.127-4.729-4.751-4.729" fill="#dadfe0" transform="translate(231.2493 60)"/><path d="m0 0h-122.348c-2.665 0-4.826 2.165-4.826 4.835v98.33c0 2.67 2.161 4.835 4.826 4.835h122.348c2.665 0 4.826-2.165 4.826-4.835v-98.33c0-2.67-2.161-4.835-4.826-4.835" fill="#d1d6d2" transform="translate(189.1738 80)"/><path d="m0 0h-104.326c-2.119 0-3.837-1.691-3.837-3.776v-68.448c0-2.085 1.718-3.776 3.837-3.776h104.326c2.119 0 3.837 1.691 3.837 3.776v68.448c0 2.085-1.718 3.776-3.837 3.776" fill="#223140" transform="translate(180.1631 172)"/><path d="m180 100h-104v68h104z" fill="#6c7a88"/><path d="m0 0c0-1.105-.895-2-2-2s-2 .895-2 2 .895 2 2 2 2-.895 2-2" fill="#223140" transform="translate(92 74)"/><path d="m0 0c-5.514 0-10-4.486-10-10s4.486-10 10-10 10 4.486 10 10-4.486 10-10 10" fill="#223140" transform="translate(38 104)"/><path d="m0 0c0-4.418-3.582-8-8-8s-8 3.582-8 8 3.582 8 8 8 8-3.582 8-8" fill="#e94b36" transform="translate(46 94)"/><path d="m0 0c-5.514 0-10-4.486-10-10s4.486-10 10-10 10 4.486 10 10-4.486 10-10 10" fill="#223140" transform="translate(214 104)"/><path d="m0 0c0-4.418-3.582-8-8-8s-8 3.582-8 8 3.582 8 8 8 8-3.582 8-8" fill="#e94b36" transform="translate(222 94)"/><path d="m0 0h-4.278c-3.232 0-5.861-2.692-5.861-6s2.629-6 5.861-6h4.278c3.232 0 5.861 2.692 5.861 6s-2.629 6-5.861 6" fill="#223140" transform="translate(134.1389 76)"/><path d="m0 0h-4.906c-1.959 0-3.547 1.697-3.547 3.79v.42c0 2.093 1.588 3.79 3.547 3.79h4.906c1.959 0 3.547-1.697 3.547-3.79v-.42c0-2.093-1.588-3.79-3.547-3.79" fill="#8c8c8c" transform="translate(134.453 66)"/><path d="m0 0h-4.278c-3.232 0-5.861-2.692-5.861-6s2.629-6 5.861-6h4.278c3.232 0 5.861 2.692 5.861 6s-2.629 6-5.861 6" fill="#223140" transform="translate(158.1389 76)"/><path d="m0 0h-4.906c-1.959 0-3.547 1.697-3.547 3.79v.42c0 2.093 1.588 3.79 3.547 3.79h4.906c1.959 0 3.547-1.697 3.547-3.79v-.42c0-2.093-1.588-3.79-3.547-3.79" fill="#8c8c8c" transform="translate(158.453 66)"/><path d="m0 0h-4.278c-3.232 0-5.861-2.692-5.861-6s2.629-6 5.861-6h4.278c3.232 0 5.861 2.692 5.861 6s-2.629 6-5.861 6" fill="#223140" transform="translate(182.1389 76)"/><path d="m0 0h-4.906c-1.959 0-3.547 1.697-3.547 3.79v.42c0 2.093 1.588 3.79 3.547 3.79h4.906c1.959 0 3.547-1.697 3.547-3.79v-.42c0-2.093-1.588-3.79-3.547-3.79" fill="#8c8c8c" transform="translate(182.453 66)"/></g></g></svg>