<svg height="261.33331" viewBox="0 0 256 261.33331" width="256" xmlns="http://www.w3.org/2000/svg" xmlns:xlink="http://www.w3.org/1999/xlink"><clipPath id="a"><path d="m0 256h256v-256h-256z"/></clipPath><g clip-path="url(#a)" transform="matrix(1.3333333 0 0 -1.3333333 -42.666666 303.99999)"><g fill="#dadfe0"><path d="m0 0c19.85 0 36-16.15 36-36s-16.15-36-36-36-36 16.15-36 36 16.15 36 36 36" transform="translate(188 164)"/><path d="m0 0c19.85 0 36-16.15 36-36s-16.15-36-36-36-36 16.15-36 36 16.15 36 36 36" transform="translate(128 104)"/><path d="m0 0c19.85 0 36-16.15 36-36s-16.15-36-36-36-36 16.15-36 36 16.15 36 36 36" transform="translate(68 164)"/></g><path d="m0 0c-22.091 0-40-17.909-40-40s17.909-40 40-40 40 17.909 40 40-17.909 40-40 40" fill="#f19c21" transform="translate(128 228)"/><path d="m0 0c17.645 0 32-14.355 32-32s-14.355-32-32-32-32 14.355-32 32 14.355 32 32 32" fill="#eec41b" transform="translate(128 220)"/></g></svg>