<svg xmlns="http://www.w3.org/2000/svg" viewBox="0 0 256 256"><path fill="#223140" d="M80 72v16h96V72a4 4 0 0 0-4-4H84a4 4 0 0 0-4 4"/><path fill="#2b3e51" d="M72 88v16h112V88a4 4 0 0 0-4-4H76a4 4 0 0 0-4 4"/><path fill="#35495f" d="M64 104v84a4 4 0 0 0 4 4h120a4 4 0 0 0 4-4v-84a4 4 0 0 0-4-4H68a4 4 0 0 0-4 4"/><path fill="#eec41b" d="M154.098 116a9.8 9.8 0 0 0-7.018 2.933l-32.648 32.98-5.508-5.564c-1.872-1.891-4.365-2.933-7.018-2.933s-5.146 1.042-7.018 2.933C93.025 148.23 92 150.727 92 153.381s1.025 5.151 2.887 7.032l10.439 10.545 2.088 2.109c1.872 1.891 4.365 2.933 7.018 2.933s5.146-1.042 7.018-2.933l39.667-40.07c3.838-3.877 3.838-10.186 0-14.064a9.8 9.8 0 0 0-7.019-2.933"/><path fill="#edefef" d="M154.098 120c-1.577 0-3.06.62-4.175 1.747l-35.491 35.852-8.351-8.436c-1.115-1.127-2.598-1.747-4.175-1.747s-3.06.62-4.175 1.747S96 151.788 96 153.381s.614 3.091 1.73 4.218l10.439 10.545 2.088 2.109c1.115 1.127 2.598 1.747 4.175 1.747s3.06-.62 4.175-1.747l39.667-40.07c2.302-2.326 2.302-6.11 0-8.436a5.84 5.84 0 0 0-4.176-1.747"/></svg>