<svg enable-background="new 0 0 256 256" viewBox="0 0 256 256" xmlns="http://www.w3.org/2000/svg"><path d="m224 160c0 2.209-1.791 4-4 4h-56v56c0 2.209-1.791 4-4 4h-64c-2.209 0-4-1.791-4-4v-56h-56c-2.209 0-4-1.791-4-4v-64c0-2.209 1.791-4 4-4h56v-56c0-2.209 1.791-4 4-4h64c2.209 0 4 1.791 4 4v56h56c2.209 0 4 1.791 4 4z" fill="#dadfe0"/><path d="m92 164h-4v-72h4v-4h-56c-4.411 0-8 3.589-8 8v64c0 4.411 3.589 8 8 8h56z" fill="#223140"/><path d="m36 164c-2.209 0-4-1.791-4-4v-64c0-2.209 1.791-4 4-4h56v72" fill="#35495f"/><path d="m60 144h24v-32h-24v-8l-24 24 24 24z" fill="#223140"/></svg>