<svg height="256" viewBox="0 0 261.33331 256" width="261.33331" xmlns="http://www.w3.org/2000/svg" xmlns:xlink="http://www.w3.org/1999/xlink"><clipPath id="a"><path d="m0 256h256v-256h-256z"/></clipPath><g clip-path="url(#a)" transform="matrix(1.3333333 0 0 -1.3333333 -37.333332 298.66666)"><path d="m0 0c0-2.209-1.791-4-4-4h-56v-56c0-2.209-1.791-4-4-4h-64c-2.209 0-4 1.791-4 4v56h-56c-2.209 0-4 1.791-4 4v64c0 2.209 1.791 4 4 4h56v56c0 2.209 1.791 4 4 4h64c2.209 0 4-1.791 4-4v-56h56c2.209 0 4-1.791 4-4z" fill="#dadfe0" transform="translate(224 96)"/><path d="m0 0h-4v72h4v4h-56c-4.411 0-8-3.589-8-8v-64c0-4.411 3.589-8 8-8h56z" fill="#223140" transform="translate(92 92)"/><path d="m0 0c-2.209 0-4 1.791-4 4v64c0 2.209 1.791 4 4 4h56v-72" fill="#35495f" transform="translate(36 92)"/><path d="m0 0h24v32h-24v8l-24-24 24-24z" fill="#223140" transform="translate(60 112)"/></g></svg>