<svg xmlns="http://www.w3.org/2000/svg" viewBox="0 0 256 256"><path fill="#35495f" d="M244 212H12V52a4 4 0 0 1 4-4h224a4 4 0 0 1 4 4z"/><path fill="#223140" d="M182 132H74c-12.15 0-22-9.85-22-22s9.85-22 22-22h108c12.15 0 22 9.85 22 22s-9.85 22-22 22"/><path fill="#2b3e51" d="M52 108h152v4H52zm5.029-12h141.942a22 22 0 0 0-4.329-4H61.358a22 22 0 0 0-4.329 4m146.136 8a22 22 0 0 0-1.571-4H54.406a22 22 0 0 0-1.571 4zm-150.33 12a22 22 0 0 0 1.571 4h147.188a22 22 0 0 0 1.571-4zm4.194 8a22 22 0 0 0 4.329 4h133.284a22 22 0 0 0 4.329-4z"/><path fill="#1b80bb" d="M52 48h152v4H52z"/></svg>