<svg enable-background="new 0 0 256 256" viewBox="0 0 256 256" xmlns="http://www.w3.org/2000/svg"><path d="m64 12h128v168h-128z" fill="#223140"/><path d="m176 100h-96c-2.209 0-4-1.791-4-4v-72c0-2.209 1.791-4 4-4h96c2.209 0 4 1.791 4 4v72c0 2.209-1.791 4-4 4z" fill="#1b80bb"/><path d="m204 214c0-56.333-34.026-102-76-102s-76 45.667-76 102v10c0 11.046 34.026 20 76 20s76-8.954 76-20c0-.583 0-7.003 0-10z" fill="#2b3e51"/><g fill="#223140"><path d="m124 116.154c-1.344.101-2.677.254-4 .454v101.392c0 1.105.895 2 2 2 1.105 0 2-.895 2-2z"/><path d="m76 146.286c-1.396 1.986-2.729 4.054-4 6.193v71.521h4z"/><path d="m88 132.555c-1.367 1.248-2.701 2.56-4 3.93v69.515c0 1.105.895 2 2 2 1.105 0 2-.895 2-2z"/><path d="m100 123.714c-1.356.782-2.688 1.625-4 2.515v101.771h4z"/><path d="m112 118.443c-1.348.418-2.682.888-4 1.408v90.149c0 1.105.895 2 2 2 1.105 0 2-.895 2-2z"/><path d="m168 132.555v73.445c0 1.105.895 2 2 2 1.105 0 2-.895 2-2v-69.515c-1.299-1.369-2.633-2.681-4-3.93z"/><path d="m180 224h4v-71.521c-1.271-2.139-2.604-4.207-4-6.193z"/><path d="m156 228h4v-101.771c-1.312-.89-2.644-1.733-4-2.515z"/><path d="m146 212c1.105 0 2-.895 2-2v-90.15c-1.318-.52-2.652-.99-4-1.408v91.558c0 1.105.895 2 2 2z"/><path d="m134 220c1.105 0 2-.895 2-2v-101.392c-1.323-.2-2.656-.354-4-.454v101.846c0 1.105.895 2 2 2z"/><circle cx="74" cy="226" r="6"/><circle cx="98" cy="230" r="6"/><circle cx="158" cy="230" r="6"/><circle cx="182" cy="226" r="6"/><path d="m66 204c1.105 0 2-.895 2-2v-8c0-1.105-.895-2-2-2-1.105 0-2 .895-2 2v8c0 1.105.895 2 2 2z"/><path d="m190 204c1.105 0 2-.895 2-2v-8c0-1.105-.895-2-2-2-1.105 0-2 .895-2 2v8c0 1.105.895 2 2 2z"/></g></svg>