<svg xmlns="http://www.w3.org/2000/svg" viewBox="0 0 256 256"><path fill="#223140" d="M64 12h128v168H64z"/><path fill="#1b80bb" d="M176 100H80a4 4 0 0 1-4-4V24a4 4 0 0 1 4-4h96a4 4 0 0 1 4 4v72a4 4 0 0 1-4 4"/><path fill="#2b3e51" d="M204 214c0-56.333-34.026-102-76-102s-76 45.667-76 102v10c0 11.046 34.026 20 76 20s76-8.954 76-20z"/><g fill="#223140"><path d="M124 116.154a54 54 0 0 0-4 .454V218a2 2 0 1 0 4 0zm-48 30.132a96 96 0 0 0-4 6.193V224h4zm12-13.731a78 78 0 0 0-4 3.93V206a2 2 0 1 0 4 0zm12-8.841a65 65 0 0 0-4 2.515V228h4zm12-5.271a57 57 0 0 0-4 1.408V210a2 2 0 1 0 4 0zm56 14.112V206a2 2 0 1 0 4 0v-69.515a79 79 0 0 0-4-3.93M180 224h4v-71.521a96 96 0 0 0-4-6.193zm-24 4h4V126.229a65 65 0 0 0-4-2.515zm-10-16a2 2 0 0 0 2-2v-90.15a57 57 0 0 0-4-1.408V210a2 2 0 0 0 2 2m-12 8a2 2 0 0 0 2-2V116.608a53 53 0 0 0-4-.454V218a2 2 0 0 0 2 2"/><circle cx="74" cy="226" r="6"/><circle cx="98" cy="230" r="6"/><circle cx="158" cy="230" r="6"/><circle cx="182" cy="226" r="6"/><path d="M66 204a2 2 0 0 0 2-2v-8a2 2 0 1 0-4 0v8a2 2 0 0 0 2 2m124 0a2 2 0 0 0 2-2v-8a2 2 0 1 0-4 0v8a2 2 0 0 0 2 2"/></g></svg>