<svg height="288" viewBox="0 0 288 288" width="288" xmlns="http://www.w3.org/2000/svg" xmlns:xlink="http://www.w3.org/1999/xlink"><clipPath id="a"><path d="m0 256h256v-256h-256z"/></clipPath><g clip-path="url(#a)" transform="matrix(1.3333333 0 0 -1.3333333 -26.667066 314.66639)"><path d="m0 0s44.876 2.701 90.869 2.701c45.621 0 92.265-2.701 92.265-2.701 7.542 0 13.687-6.147 13.687-13.692 0 0 2.7-46.292 2.7-92.305 0-45.548-2.7-90.909-2.7-90.909 0-7.544-6.145-13.692-13.687-13.692 0 0-46.737-2.701-92.265-2.701-45.993 0-90.962 2.701-90.962 2.701-7.541 0-13.686 6.148-13.686 13.692 0 0-2.7 46.107-2.7 92.026 0 45.641 2.7 91.188 2.7 91.188.093 7.545 6.238 13.692 13.779 13.692" fill="#2b3e51" fill-rule="evenodd" transform="translate(36.4793 233.2988)"/></g></svg>