<svg height="298.66666" viewBox="0 0 245.33333 298.66665" width="245.33333" xmlns="http://www.w3.org/2000/svg" xmlns:xlink="http://www.w3.org/1999/xlink"><clipPath id="a"><path d="m0 256h256v-256h-256z"/></clipPath><g clip-path="url(#a)" transform="matrix(1.3333333 0 0 -1.3333333 -47.999999 319.99999)"><path d="m0 0h-180c-1.105 0-2 .895-2 2v220c0 1.105.895 2 2 2h180c1.105 0 2-.895 2-2v-220c0-1.105-.895-2-2-2" fill="#bdc1c6" transform="translate(218 16)"/><path d="m0 0h-164c-1.105 0-2 .895-2 2v160c0 1.105.895 2 2 2h164c1.105 0 2-.895 2-2v-160c0-1.105-.895-2-2-2" fill="#1b80bb" transform="translate(210 68)"/><path d="m48 44h-4v12h4z" fill="#93a3a3"/><path d="m48 32h-4v16h4z" fill="#d35627"/><path d="m56 44h-4v12h4z" fill="#93a3a3"/><path d="m56 32h-4v16h4z" fill="#d35627"/><path d="m64 44h-4v12h4z" fill="#93a3a3"/><path d="m64 32h-4v16h4z" fill="#d35627"/><path d="m72 44h-4v12h4z" fill="#93a3a3"/><path d="m72 32h-4v16h4z" fill="#d35627"/><path d="m80 44h-4v12h4z" fill="#93a3a3"/><path d="m80 32h-4v16h4z" fill="#d35627"/><path d="m88 44h-4v12h4z" fill="#93a3a3"/><path d="m88 32h-4v16h4z" fill="#d35627"/><path d="m96 44h-4v12h4z" fill="#93a3a3"/><path d="m96 32h-4v16h4z" fill="#d35627"/><path d="m104 44h-4v12h4z" fill="#93a3a3"/><path d="m104 32h-4v16h4z" fill="#d35627"/><path d="m112 44h-4v12h4z" fill="#93a3a3"/><path d="m112 32h-4v16h4z" fill="#d35627"/><path d="m120 44h-4v12h4z" fill="#93a3a3"/><path d="m120 32h-4v16h4z" fill="#d35627"/><path d="m128 44h-4v12h4z" fill="#93a3a3"/><path d="m128 32h-4v16h4z" fill="#d35627"/><path d="m136 44h-4v12h4z" fill="#93a3a3"/><path d="m136 32h-4v16h4z" fill="#d35627"/><path d="m144 44h-4v12h4z" fill="#93a3a3"/><path d="m144 32h-4v16h4z" fill="#d35627"/><path d="m152 44h-4v12h4z" fill="#93a3a3"/><path d="m152 32h-4v16h4z" fill="#d35627"/><path d="m160 44h-4v12h4z" fill="#93a3a3"/><path d="m160 32h-4v16h4z" fill="#d35627"/><path d="m168 44h-4v12h4z" fill="#93a3a3"/><path d="m168 32h-4v16h4z" fill="#d35627"/><path d="m176 44h-4v12h4z" fill="#93a3a3"/><path d="m176 32h-4v16h4z" fill="#d35627"/><path d="m184 44h-4v12h4z" fill="#93a3a3"/><path d="m184 32h-4v16h4z" fill="#d35627"/><path d="m192 44h-4v12h4z" fill="#93a3a3"/><path d="m192 32h-4v16h4z" fill="#d35627"/><path d="m200 44h-4v12h4z" fill="#93a3a3"/><path d="m200 32h-4v16h4z" fill="#d35627"/><path d="m208 44h-4v12h4z" fill="#93a3a3"/><path d="m208 32h-4v16h4z" fill="#d35627"/><g fill="#bfbfbf"><path d="m0 0h-2c-1.105 0-2 .895-2 2v46h4z" transform="translate(40 16)"/><path d="m0 0h-2v48h4v-46c0-1.105-.895-2-2-2" transform="translate(218 16)"/></g></g></svg>