<svg enable-background="new 0 0 256 256" viewBox="0 0 256 256" xmlns="http://www.w3.org/2000/svg"><path d="m190 56c-2.029 0-4.029.162-6 .453 0 0-36 7.547-56 7.547s-56.387-7.613-56.387-7.613c-1.845-.254-3.717-.387-5.613-.387-29.823 0-54 32.235-54 72 0 39.764 24.177 72 54 72 1.896 0 3.768-.133 5.613-.387 0 0 36.387-7.613 56.387-7.613s56 7.547 56 7.547c1.971.291 3.971.453 6 .453 29.823 0 54-32.236 54-72 0-39.765-24.177-72-54-72z" fill="#35495f"/><path d="m64 112.098c0-21.177-31.137-29.895-38.464-31.653-8.418 12.697-13.536 29.374-13.536 47.653 0 36.813 20.726 67.153 47.465 71.457-3.517-3.602-23.465-24.514-23.465-35.457 0-12 4-16 16-28s12-24 12-24z" fill="#2b3e51"/><path d="m192 112.098c0-21.177 31.137-29.895 38.464-31.653 8.418 12.697 13.536 29.374 13.536 47.653 0 36.813-20.726 67.153-47.465 71.457 3.517-3.602 23.465-24.514 23.465-35.457 0-12-4-16-16-28s-12-24-12-24z" fill="#2b3e51"/><path d="m172 80h-88c-6.627 0-12 20.595-12 46s5.373 46 12 46h88c6.627 0 12-20.595 12-46s-5.373-46-12-46z" fill="#223140"/><path d="m166 164h-76c-1.105 0-2-.895-2-2v-76c0-1.105.895-2 2-2h76c1.105 0 2 .895 2 2v76c0 1.105-.895 2-2 2z" fill="#6c7a88"/><circle cx="40" cy="76" fill="#2b3e51" r="4"/><circle cx="52" cy="80" fill="#2b3e51" r="4"/><circle cx="64" cy="88" fill="#2b3e51" r="4"/><circle cx="40" cy="112" fill="#223140" r="12"/><path d="m52 108h-8v-8h-8v8h-8v8h8v8h8v-8h8z" fill="#35495f"/><circle cx="40" cy="112" fill="#2b3e51" r="4"/><circle cx="208" cy="112" fill="#35495f" r="12"/><circle cx="226" cy="98" fill="#35495f" r="6"/><g fill="#2b3e51"><path d="m200 150c-3.977 0-7.498 1.951-9.681 4.94-.339.464-.234 1.117.244 1.436.44.294 1.035.193 1.346-.235 1.816-2.506 4.759-4.14 8.091-4.14 3.331 0 6.275 1.634 8.091 4.14.311.428.906.529 1.346.235.478-.319.583-.972.244-1.436-2.183-2.989-5.704-4.94-9.681-4.94z"/><path d="m187.234 154.156c.44.293 1.043.199 1.348-.233 2.535-3.579 6.698-5.923 11.418-5.923s8.883 2.344 11.417 5.924c.306.432.908.526 1.348.233l.001-.001c.457-.305.595-.932.278-1.38-2.9-4.092-7.659-6.775-13.045-6.775s-10.145 2.684-13.045 6.775c-.318.448-.18 1.075.278 1.38z"/><path d="m193.891 158.594c.442.295 1.023.178 1.347-.244 1.097-1.429 2.822-2.35 4.762-2.35s3.666.921 4.762 2.35c.323.421.905.538 1.347.244l.006-.004c.475-.316.591-.973.245-1.427-1.462-1.92-3.767-3.163-6.36-3.163s-4.899 1.243-6.36 3.163c-.346.454-.229 1.11.245 1.427z"/><path d="m200 176c3.977 0 7.498-1.951 9.681-4.94.339-.464.234-1.117-.244-1.436-.44-.294-1.035-.193-1.346.235-1.816 2.506-4.759 4.14-8.091 4.14-3.331 0-6.275-1.634-8.091-4.14-.311-.428-.906-.529-1.346-.235-.478.319-.583.972-.244 1.436 2.183 2.989 5.704 4.94 9.681 4.94z"/><path d="m212.766 171.844c-.44-.293-1.043-.199-1.348.233-2.535 3.579-6.698 5.923-11.418 5.923s-8.883-2.344-11.417-5.924c-.306-.432-.908-.526-1.348-.233l-.001.001c-.457.305-.595.932-.278 1.38 2.9 4.092 7.659 6.775 13.045 6.775s10.145-2.684 13.045-6.775c.318-.448.18-1.075-.278-1.38z"/><path d="m206.109 167.406c-.442-.295-1.023-.178-1.347.244-1.097 1.429-2.822 2.35-4.762 2.35s-3.666-.921-4.762-2.35c-.323-.421-.905-.538-1.347-.244l-.006.004c-.475.316-.591.973-.245 1.427 1.462 1.92 3.767 3.163 6.36 3.163s4.899-1.243 6.36-3.163c.346-.454.229-1.11-.245-1.427z"/></g></svg>