<svg height="250.66666" viewBox="0 0 309.33331 250.66665" width="309.33331" xmlns="http://www.w3.org/2000/svg" xmlns:xlink="http://www.w3.org/1999/xlink"><clipPath id="a"><path d="m0 256h256v-256h-256z"/></clipPath><g clip-path="url(#a)" transform="matrix(1.3333333 0 0 -1.3333333 -16 293.33333)"><path d="m0 0c2.209 0 4 1.791 4 4v152c0 24-32 28-32 28l-72 4h-24l-72-4s-32-4-32-28v-152c0-2.209 1.791-4 4-4z" fill="#eec41b" transform="translate(240 32)"/><path d="m0 0c0-4.418-3.582-8-8-8s-8 3.582-8 8 3.582 8 8 8 8-3.582 8-8" fill="#f19c21" transform="translate(44 196)"/><path d="m0 0c-53.207 0-97.314-8.787-102-20v-108c0-11.046 8.954-20 20-20h164c11.046 0 20 8.954 20 20v108c-4.686 11.213-48.793 20-102 20" fill="#f19c21" transform="translate(130 196)"/><path d="m0 0c25.402 0 49.702-2.031 68.422-5.72 22.929-4.517 28.362-9.599 29.578-11.296v-106.984c0-8.822-7.178-16-16-16h-164c-8.822 0-16 7.178-16 16v106.984c1.216 1.697 6.649 6.779 29.578 11.296 18.72 3.689 43.02 5.72 68.422 5.72" fill="#1b80bb" transform="translate(130 192)"/><path d="m0 0c0-2.555 2.36-4.46 4.853-3.902 1.486.332 3.059.664 4.725.992 18.72 3.688 43.02 5.72 68.422 5.72s49.702-2.032 68.422-5.72c.269-.053.536-.106.8-.16 2.474-.498 4.778 1.395 4.778 3.918v.005c0 1.901-1.329 3.541-3.192 3.918-.278.056-.558.112-.839.168-19.215 3.786-44.063 5.871-69.969 5.871s-50.754-2.085-69.969-5.871c-1.705-.336-3.344-.683-4.926-1.04-1.821-.411-3.105-2.032-3.105-3.899z" fill="#f19c21" transform="translate(52 201.1905)"/><path d="m0 0c0-2.555 2.36-4.46 4.853-3.902 1.486.332 3.059.664 4.725.992 18.72 3.688 43.02 5.72 68.422 5.72s49.702-2.032 68.422-5.72c.269-.053.536-.106.8-.16 2.474-.498 4.778 1.395 4.778 3.918v.005c0 1.901-1.329 3.541-3.192 3.918-.278.056-.558.112-.839.168-19.215 3.786-44.063 5.871-69.969 5.871s-50.754-2.085-69.969-5.871c-1.705-.336-3.344-.683-4.926-1.04-1.821-.411-3.105-2.032-3.105-3.899z" fill="#fde3a2" transform="translate(52 205.1905)"/><path d="m0 0c0-3.314-2.686-6-6-6s-6 2.686-6 6 2.686 6 6 6 6-2.686 6-6" fill="#223140" transform="translate(44 194)"/></g></svg>