<svg height="245.33333" viewBox="0 0 245.33333 245.33333" width="245.33333" xmlns="http://www.w3.org/2000/svg" xmlns:xlink="http://www.w3.org/1999/xlink"><clipPath id="a"><path d="m0 256h256v-256h-256z"/></clipPath><g clip-path="url(#a)" transform="matrix(1.3333333 0 0 -1.3333333 -47.999865 293.33333)"><path d="m0 0s38.228 2.301 77.407 2.301c38.862 0 78.596-2.301 78.596-2.301 6.425 0 11.659-5.237 11.659-11.664 0 0 2.3-39.434 2.3-78.63 0-38.8-2.3-77.44-2.3-77.44 0-6.427-5.234-11.664-11.659-11.664 0 0-39.813-2.301-78.596-2.301-39.179 0-77.486 2.301-77.486 2.301-6.424 0-11.659 5.237-11.659 11.664 0 0-2.3 39.275-2.3 78.392 0 38.879 2.3 77.678 2.3 77.678.079 6.427 5.314 11.664 11.738 11.664" fill="#7f8b8c" fill-rule="evenodd" transform="translate(50.0379 217.699)"/><path d="m0 0c-1.578 0-2.857-1.194-2.857-2.667v-10.666c0-1.473 1.279-2.667 2.857-2.667h17.143v13.333c0 1.473-1.279 2.667-2.857 2.667z" fill="#2b3e51" transform="translate(150.8571 176)"/><path d="m0 0c-11.634 0-20.708-5.491-28.291-14.348-1.791-2.092-.466-5.652 2.081-5.652h29.095v16.667c0 1.841-1.292 3.333-2.885 3.333" fill="#2b3e51" transform="translate(81.1149 176)"/><path d="m0 0c11.634 0 20.708-5.491 28.291-14.348 1.791-2.092.466-5.652-2.081-5.652h-29.095v16.667c0 1.841 1.292 3.333 2.885 3.333" fill="#2b3e51" transform="translate(174.8851 176)"/><path d="m0 0h-14.286c-1.578 0-2.857-1.194-2.857-2.667v-13.333h17.143c1.578 0 2.857 1.194 2.857 2.667v10.666c0 1.473-1.279 2.667-2.857 2.667" fill="#2b3e51" transform="translate(105.1429 176)"/><path d="m0 0h-88c-24.301 0-44-19.699-44-44v-13.655c0-16.759 13.586-30.345 30.345-30.345h39.235c2.029 0 3.924 1.014 5.049 2.703l2.466 3.698c1.125 1.688 3.02 2.702 5.05 2.702h11.71c2.03 0 3.924-1.014 5.05-2.702l2.24-3.361c1.267-1.899 3.399-3.04 5.681-3.04h38.829c16.759 0 30.345 13.586 30.345 30.345v13.655c0 24.301-19.699 44-44 44" fill="#223140" transform="translate(172 172)"/><path d="m0 0h-12v12h-16v-12h-12v-16h12v-12h16v12h12z" fill="#2b3e51" transform="translate(96 148)"/><path d="m0 0c0-6.627-5.373-12-12-12s-12 5.373-12 12 5.373 12 12 12 12-5.373 12-12" fill="#2b3e51" transform="translate(116 104)"/><path d="m0 0c0-6.627-5.373-12-12-12s-12 5.373-12 12 5.373 12 12 12 12-5.373 12-12" fill="#2b3e51" transform="translate(164 104)"/><path d="m0 0c0-4.418 3.582-8 8-8s8 3.582 8 8-3.582 8-8 8-8-3.582-8-8" fill="#1b80bb" transform="translate(160 140)"/><path d="m0 0c0-4.418 3.582-8 8-8s8 3.582 8 8-3.582 8-8 8-8-3.582-8-8" fill="#eec41b" transform="translate(172 152)"/><path d="m0 0c0-4.418 3.582-8 8-8s8 3.582 8 8-3.582 8-8 8-8-3.582-8-8" fill="#10a284" transform="translate(172 128)"/><path d="m0 0c0-4.418 3.582-8 8-8s8 3.582 8 8-3.582 8-8 8-8-3.582-8-8" fill="#c13c28" transform="translate(184 140)"/><path d="m0 0h-11.6c-.11 0-.2.09-.2.2v3.6c0 .11.09.2.2.2h11.6c.11 0 .2-.09.2-.2v-3.6c0-.11-.09-.2-.2-.2" fill="#2b3e51" transform="translate(119.8 128)"/><path d="m0 0h-11.6c-.11 0-.2.09-.2.2v3.6c0 .11.09.2.2.2h11.6c.11 0 .2-.09.2-.2v-3.6c0-.11-.09-.2-.2-.2" fill="#2b3e51" transform="translate(147.8 128)"/><g fill="#35495f"><path d="m0 0c0-4.418-3.582-8-8-8s-8 3.582-8 8 3.582 8 8 8 8-3.582 8-8" transform="translate(112 104)"/><path d="m0 0c0-4.418-3.582-8-8-8s-8 3.582-8 8 3.582 8 8 8 8-3.582 8-8" transform="translate(160 104)"/><path d="m0 0c0-2.209-1.791-4-4-4s-4 1.791-4 4 1.791 4 4 4 4-1.791 4-4" transform="translate(80 140)"/><path d="m0 0-4-4-4 4z" transform="translate(80 128)"/><path d="m0 0 4 4 4-4z" transform="translate(72 152)"/><path d="m0 0-4 4 4 4z" transform="translate(64 136)"/><path d="m0 0 4-4-4-4z" transform="translate(88 144)"/></g></g></svg>