<svg xmlns="http://www.w3.org/2000/svg" viewBox="0 0 256 256"><path fill="#1b80bb" fill-rule="evenodd" d="M50.038 38.301S88.266 36 127.445 36c38.862 0 78.597 2.301 78.597 2.301 6.424 0 11.659 5.237 11.659 11.664 0 0 2.3 39.434 2.3 78.63 0 38.799-2.3 77.44-2.3 77.44 0 6.427-5.234 11.664-11.659 11.664 0 0-39.814 2.301-78.597 2.301-39.179 0-77.486-2.301-77.486-2.301-6.424 0-11.659-5.237-11.659-11.664 0 0-2.3-39.276-2.3-78.392 0-38.879 2.3-77.678 2.3-77.678.079-6.427 5.314-11.664 11.738-11.664" clip-rule="evenodd"/><path fill="#3babe0" d="M108.521 84.021c-11.039.821-20.601 9.139-25.553 18.929-5.666 11.115-2.627 24.632 4.133 34.454 5.886 8.94 13.815 16.19 22.18 22.633 1.583 1.297 5.719 4.174 8.312 5.926 3.405 1.891 6.899 5.209 10.409 6.037V94.207c-.131.188-.292.356-.418.547-4.345-6.314-11.284-11.112-19.063-10.733"/><path fill="#3498db" d="M147.479 84.021c11.039.821 20.602 9.139 25.554 18.929 5.666 11.115 2.627 24.632-4.133 34.454-5.886 8.94-13.815 16.19-22.18 22.633-1.583 1.297-5.719 4.174-8.312 5.926-3.405 1.891-6.899 5.209-10.409 6.037V94.207c.131.188.292.356.418.547 4.344-6.314 11.283-11.112 19.062-10.733"/></svg>