<svg height="309.33331" viewBox="0 0 309.33331 309.33331" width="309.33331" xmlns="http://www.w3.org/2000/svg" xmlns:xlink="http://www.w3.org/1999/xlink"><clipPath id="a"><path d="m0 256h256v-256h-256z"/></clipPath><g clip-path="url(#a)" transform="matrix(1.3333333 0 0 -1.3333333 -16 325.33306)"><path d="m0 0s48.2 2.901 97.6 2.901c49 0 99.1-2.901 99.1-2.901 8.1 0 14.7-6.603 14.7-14.706 0 0 2.9-49.722 2.9-99.143 0-48.921-2.9-97.642-2.9-97.642 0-8.104-6.6-14.707-14.7-14.707 0 0-50.2-2.901-99.1-2.901-49.4 0-97.7 2.901-97.7 2.901-8.1 0-14.7 6.603-14.7 14.707 0 0-2.9 49.521-2.9 98.842 0 49.022 2.9 97.943 2.9 97.943.1 8.103 6.7 14.706 14.8 14.706" fill="#1b80bb" fill-rule="evenodd" transform="translate(29.7 241.0988)"/><path d="m0 0c22.485-.03 44.132-8.526 60.635-23.797l-114.095-137.255c-22.614 16.858-35.954 43.395-35.99 71.602 0 49.402 40.048 89.449 89.45 89.45z" fill="#3babe0" transform="translate(128.1175 217.0475)"/><path d="m0 0h.009c16.887-16.777 26.39-39.591 26.407-63.396-.001-49.402-40.048-89.449-89.451-89.45-18.147.035-35.858 5.592-50.775 15.927z" fill="#3394d1" transform="translate(191.1606 190.9928)"/><path d="m0 0c-11.039-.821-20.602-9.139-25.554-18.929-5.665-11.115-2.627-24.631 4.133-34.453 5.885-8.94 13.815-16.191 22.179-22.634 1.584-1.297 5.719-4.174 8.312-5.926 3.405-1.891 6.899-5.209 10.409-6.037v77.793c-.132-.188-.292-.356-.418-.548-4.343 6.315-11.283 11.112-19.061 10.734" fill="#edefef" transform="translate(108.5213 171.9791)"/><path d="m0 0c11.039-.821 20.602-9.139 25.554-18.929 5.665-11.115 2.627-24.631-4.133-34.453-5.885-8.94-13.815-16.191-22.179-22.634-1.584-1.297-5.719-4.174-8.312-5.926-3.405-1.891-6.899-5.209-10.409-6.037v77.793c.132-.188.292-.356.418-.548 4.343 6.315 11.283 11.112 19.061 10.734" fill="#dadfe0" transform="translate(147.4787 171.9791)"/></g></svg>