<svg enable-background="new 0 0 256 256" viewBox="0 0 256 256" xmlns="http://www.w3.org/2000/svg"><path d="m36 12h184v232h-184z" fill="#7f8b8c"/><path d="m194.444 212h-132.888c-3.069 0-5.556-2.429-5.556-5.425v-173.15c0-2.996 2.488-5.425 5.556-5.425h132.887c3.069 0 5.556 2.429 5.556 5.425v173.15c.001 2.996-2.487 5.425-5.555 5.425z" fill="#d1d6d2"/><path d="m194.444 28c3.069 0 5.556 2.429 5.556 5.425v173.15c0 2.996-2.488 5.425-5.556 5.425h-132.888c-3.069 0-5.556-2.429-5.556-5.425v-173.15c0-2.996 2.488-5.425 5.556-5.425zm0-4h-132.888c-5.269 0-9.556 4.228-9.556 9.425v173.15c0 5.197 4.287 9.425 9.556 9.425h132.887c5.269 0 9.556-4.228 9.556-9.425v-173.15c.001-5.197-4.286-9.425-9.555-9.425z" fill="#93a3a3"/><path d="m64 76h128v84h-128z" fill="#dadfe0"/><path d="m104 32h88v4h-88z" fill="#93a3a3"/><path d="m104 40h88v4h-88z" fill="#93a3a3"/><path d="m104 48h88v4h-88z" fill="#93a3a3"/><path d="m104 56h88v4h-88z" fill="#93a3a3"/><path d="m104 64h88v4h-88z" fill="#93a3a3"/><path d="m100 72h-44v-38.383c0-3.102 2.364-5.617 5.28-5.617h38.72z" fill="#e94b36"/><path d="m138.302 94.125 11.009-1.089c1.204-.119 2.209.906 2.066 2.107l-1.305 10.986c-.076.641.18 1.278.68 1.687l8.555 7.015c.935.767.921 2.203-.029 2.951l-8.691 6.846c-.507.4-.776 1.031-.712 1.673l1.089 11.009c.119 1.204-.906 2.209-2.107 2.066l-10.986-1.305c-.641-.076-1.277.18-1.687.68l-7.015 8.555c-.767.935-2.203.921-2.951-.029l-6.846-8.691c-.4-.507-1.031-.776-1.673-.712l-11.009 1.089c-1.204.119-2.209-.906-2.066-2.107l1.305-10.986c.076-.641-.18-1.278-.679-1.687l-8.555-7.015c-.935-.767-.921-2.203.029-2.951l8.691-6.846c.507-.4.776-1.031.712-1.673l-1.089-11.009c-.119-1.204.906-2.209 2.107-2.066l10.986 1.305c.641.076 1.278-.18 1.687-.679l7.015-8.555c.767-.935 2.203-.921 2.951.029l6.846 8.691c.398.506 1.029.774 1.672.711z" fill="#223140"/><circle cx="128" cy="116" fill="#2b3e51" r="24"/><circle cx="128" cy="116" fill="#35495f" r="12"/><circle cx="128" cy="116" fill="#6c7a88" r="8"/><path d="m60 32h36v4h-36z" fill="#c13c28"/><path d="m60 40h36v4h-36z" fill="#c13c28"/><path d="m60 56h36v4h-36z" fill="#c13c28"/><path d="m60 64h36v4h-36z" fill="#c13c28"/><g fill="#93a3a3"><path d="m64 164h128v4h-128z"/><path d="m64 172h128v4h-128z"/><path d="m64 180h128v4h-128z"/><path d="m64 188h128v4h-128z"/><path d="m64 196h128v4h-128z"/><path d="m64 204h128v4h-128z"/></g></svg>