<svg xmlns="http://www.w3.org/2000/svg" viewBox="0 0 256 256"><path fill="#35495f" d="M88 156h80v84H88z"/><path fill="#223140" d="M166 158v80H90v-80zm2-2H88v84h80z"/><path fill="#2b3e51" d="M176 52V16H80v36l4 12v60l-4 16v16.43c0 1.972 1.686 3.57 3.765 3.57h88.471c2.079 0 3.765-1.598 3.765-3.57V140l-4-16V64z"/><path fill="#223140" d="m84 52 4 11.958h80L172 52z"/><path fill="#1b80bb" d="M84 20h88v28H84z"/><path fill="#2b3e51" d="M137.281 204h-18.562a2.727 2.727 0 0 1-2.719-2.719v-26.562a2.727 2.727 0 0 1 2.719-2.719h18.562a2.727 2.727 0 0 1 2.719 2.719v26.562a2.726 2.726 0 0 1-2.719 2.719"/><path fill="#223140" d="M136 178.031v16.01h-16v-16.01zm2-2h-20v20.01h20z"/><path fill="#35495f" d="m80 140 4-16h88l4 16z"/><path fill="#c13c28" d="M122 180h4v4h-4zm8 0h4v4h-4z"/><path fill="#223140" d="M122 188h4v4h-4zm8 0h4v4h-4z"/><ellipse cx="116" cy="131" fill="#1b80bb" rx="2" ry="1"/><ellipse cx="122" cy="131" fill="#1b80bb" rx="2" ry="1"/><ellipse cx="90" cy="127" fill="#edefef" rx="2" ry="1"/><g fill="#1b80bb"><ellipse cx="110" cy="131" rx="2" ry="1"/><ellipse cx="116" cy="135" rx="2" ry="1"/><ellipse cx="122" cy="135" rx="2" ry="1"/><ellipse cx="110" cy="135" rx="2" ry="1"/></g><ellipse cx="100" cy="132.25" fill="#223140" rx="4.5" ry="2.25"/><path fill="#2b3e51" d="m98.875 132.314-1.125-6.651c0-.915 1.012-1.663 2.25-1.663s2.25.748 2.25 1.663l-1.125 6.651c0 .915-2.25.915-2.25 0"/><ellipse cx="160" cy="131" fill="#1b80bb" rx="2" ry="1"/><ellipse cx="166" cy="131" fill="#1b80bb" rx="2" ry="1"/><ellipse cx="134" cy="127" fill="#edefef" rx="2" ry="1"/><ellipse cx="154" cy="131" fill="#1b80bb" rx="2" ry="1"/><ellipse cx="160" cy="135" fill="#1b80bb" rx="2" ry="1"/><ellipse cx="166" cy="135" fill="#1b80bb" rx="2" ry="1"/><ellipse cx="154" cy="135" fill="#1b80bb" rx="2" ry="1"/><ellipse cx="144" cy="132.25" fill="#223140" rx="4.5" ry="2.25"/><path fill="#2b3e51" d="m142.875 132.314-1.125-6.651c0-.915 1.012-1.663 2.25-1.663s2.25.748 2.25 1.663l-1.125 6.651c0 .915-2.25.915-2.25 0"/><path fill="#223140" d="M164 120H92a4 4 0 0 1-4-4V72a4 4 0 0 1 4-4h72a4 4 0 0 1 4 4v44a4 4 0 0 1-4 4"/></svg>