<svg xmlns="http://www.w3.org/2000/svg" viewBox="0 0 256 256"><path fill="#c13c28" d="M100 92V52a4 4 0 0 0-4-4H56c-19.882 0-36 16.118-36 36v8zm56 0V52a4 4 0 0 1 4-4h40c19.882 0 36 16.118 36 36v8z"/><path fill="#223140" d="M232.337 115.994a45.8 45.8 0 0 0 3.612-15.998H236v-12C236 68.116 219.882 52 200 52H56c-19.882 0-36 16.116-36 35.996v11.999h.051a45.8 45.8 0 0 0 3.612 15.998S12 139.991 12 175.987s16 35.996 16 35.996c24.532 1.109 42.922-54.987 47.102-68.899 15.012-3.014 27.383-13.331 33.241-27.091h39.316c5.858 13.76 18.228 24.077 33.241 27.091 4.179 13.913 22.569 70.008 47.102 68.899 0 0 16 0 16-35.996s-11.665-59.993-11.665-59.993"/><circle cx="66" cy="98" r="46" fill="#2b3e51"/><circle cx="190" cy="98" r="46" fill="#2b3e51"/><path fill="#6c7a88" d="M200 52H56c-19.882 0-36 16.118-36 36v8h80v12l8.342 8h39.316l8.342-8V96h80v-8c0-19.882-16.118-36-36-36"/><path fill="#35495f" d="M64 56c-22.091 0-40 17.909-40 40s17.909 40 40 40 40-17.909 40-40-17.909-40-40-40"/><path fill="#2b3e51" d="M64 60.211c19.734 0 35.789 16.055 35.789 35.789S83.734 131.789 64 131.789 28.211 115.734 28.211 96 44.266 60.211 64 60.211M148 40h-40a4 4 0 0 0-4 4v18.343c0 1.061.421 2.078 1.172 2.828l5.657 5.657a4 4 0 0 1 1.172 2.828V92a4 4 0 0 0 4 4h24a4 4 0 0 0 4-4V73.657c0-1.061.421-2.078 1.172-2.828l5.657-5.657a4 4 0 0 0 1.172-2.828V44A4.003 4.003 0 0 0 148 40"/><path fill="#c13c28" d="M132 68h-8a4 4 0 0 1 0-8h8a4 4 0 0 1 0 8m0 16h-8a4 4 0 0 1 0-8h8a4 4 0 0 1 0 8"/><path fill="#35495f" d="M192 56c-22.091 0-40 17.909-40 40s17.909 40 40 40 40-17.909 40-40-17.909-40-40-40"/><path fill="#2b3e51" d="M192 60.211c19.734 0 35.789 16.055 35.789 35.789S211.734 131.789 192 131.789 156.211 115.734 156.211 96 172.266 60.211 192 60.211"/><circle cx="64" cy="96" r="16" fill="#c13c28"/><path fill="#10a284" d="M196 124h-8a4 4 0 0 1-4-4v-8a4 4 0 0 1 4-4h8a4 4 0 0 1 4 4v8a4 4 0 0 1-4 4"/><path fill="#eec41b" d="M176 104h-8a4 4 0 0 1-4-4v-8a4 4 0 0 1 4-4h8a4 4 0 0 1 4 4v8a4 4 0 0 1-4 4"/><path fill="#1b80bb" d="M216 104h-8a4 4 0 0 1-4-4v-8a4 4 0 0 1 4-4h8a4 4 0 0 1 4 4v8a4 4 0 0 1-4 4"/><path fill="#c13c28" d="M196 84h-8a4 4 0 0 1-4-4v-8a4 4 0 0 1 4-4h8a4 4 0 0 1 4 4v8a4 4 0 0 1-4 4"/><path fill="#223140" d="M64 72c13.234 0 24 10.766 24 24s-10.766 24-24 24-24-10.766-24-24 10.766-24 24-24m0-4c-15.464 0-28 12.536-28 28s12.536 28 28 28 28-12.536 28-28-12.536-28-28-28"/></svg>