<svg height="304" viewBox="0 0 245.33346 304" width="245.33347" xmlns="http://www.w3.org/2000/svg" xmlns:xlink="http://www.w3.org/1999/xlink"><clipPath id="a"><path d="m0 256h256v-256h-256z"/></clipPath><g transform="matrix(1.3333333 0 0 -1.3333333 -47.999865 325.33333)"><path d="m216 144h-176v52h176z" fill="#223140"/><g clip-path="url(#a)"><path d="m0 0h51.828v4h-52c-2.209 0-4 1.791-4 4v8h-72v-8c0-2.209-1.791-4-4-4h-52v-4h51.828c2.089 0 3.955-1.527 4.153-3.607.228-2.386-1.642-4.393-3.981-4.393h-52v-4h51.828c2.089 0 3.955-1.527 4.153-3.607.228-2.386-1.642-4.393-3.981-4.393h-52v-4h52c2.209 0 4-1.791 4-4s-1.791-4-4-4h-52v-132h184v132h-52c-2.209 0-4 1.791-4 4s1.791 4 4 4h52v4h-51.828c-2.089 0-3.955 1.527-4.153 3.607-.228 2.386 1.642 4.393 3.981 4.393h52v4h-52c-2.339 0-4.209 2.007-3.981 4.393.198 2.08 2.064 3.607 4.153 3.607" fill="#2b3e51" transform="translate(168.1719 180)"/><path d="m0 0h-176l-4-52h184z" fill="#35495f" transform="translate(216 244)"/><path d="m0 0h-172c-1.105 0-2 .895-2 2s.895 2 2 2h172c1.105 0 2-.895 2-2s-.895-2-2-2" fill="#35495f" transform="translate(214 136)"/><path d="m0 0c-.16 2.084-1.898 3.693-3.988 3.693h-146.367c-2.09 0-3.828-1.609-3.989-3.693l-1.538-20c-.179-2.323 1.658-4.307 3.988-4.307h149.444c2.33 0 4.167 1.984 3.988 4.307z" fill="#1b80bb" transform="translate(205.1718 228.3068)"/></g></g></svg>