<svg enable-background="new 0 0 256 256" viewBox="0 0 256 256" xmlns="http://www.w3.org/2000/svg"><path d="m40 60h176v52h-176z" fill="#223140"/><path d="m168.172 76h51.828v-4h-52c-2.209 0-4-1.791-4-4v-8h-72v8c0 2.209-1.791 4-4 4h-52v4h51.828c2.089 0 3.955 1.527 4.153 3.607.228 2.386-1.642 4.393-3.981 4.393h-52v4h51.828c2.089 0 3.955 1.527 4.153 3.607.228 2.386-1.642 4.393-3.981 4.393h-52v4h52c2.209 0 4 1.791 4 4 0 2.209-1.791 4-4 4h-52v132h184v-132h-52c-2.209 0-4-1.791-4-4 0-2.209 1.791-4 4-4h52v-4h-51.828c-2.089 0-3.955-1.527-4.153-3.607-.228-2.386 1.642-4.393 3.981-4.393h52v-4h-52c-2.339 0-4.209-2.007-3.981-4.393.198-2.08 2.064-3.607 4.153-3.607z" fill="#2b3e51"/><path d="m216 12h-176l-4 52h184z" fill="#35495f"/><path d="m214 120h-172c-1.105 0-2-.895-2-2 0-1.105.895-2 2-2h172c1.105 0 2 .895 2 2 0 1.105-.895 2-2 2z" fill="#35495f"/><path d="m205.172 27.693c-.16-2.084-1.898-3.693-3.988-3.693h-146.368c-2.09 0-3.828 1.609-3.988 3.693l-1.538 20c-.179 2.323 1.658 4.307 3.988 4.307h149.444c2.33 0 4.167-1.984 3.988-4.307z" fill="#1b80bb"/></svg>