<svg xmlns="http://www.w3.org/2000/svg" viewBox="0 0 256 256"><path fill="#223140" d="M182 96h-4a2 2 0 0 1-2-2V78a2 2 0 0 1 2-2h4a2 2 0 0 1 2 2v16a2 2 0 0 1-2 2m0 24h-4a2 2 0 0 1-2-2v-16a2 2 0 0 1 2-2h4a2 2 0 0 1 2 2v16a2 2 0 0 1-2 2M78 96h-4a2 2 0 0 1-2-2V78a2 2 0 0 1 2-2h4a2 2 0 0 1 2 2v16a2 2 0 0 1-2 2m0 24h-4a2 2 0 0 1-2-2v-16a2 2 0 0 1 2-2h4a2 2 0 0 1 2 2v16a2 2 0 0 1-2 2"/><path fill="#2b3e51" d="M172 16v-4H84v4h-8v228h104V16z"/><path fill="#35495f" d="M160 44h-60c-6.617 0-12 5.383-12 12v84c0 6.617 5.383 12 12 12h60c6.617 0 12-5.383 12-12V56c0-6.617-5.383-12-12-12"/><path fill="#d35627" d="M160 148h-60c-4.4 0-8-3.6-8-8V56c0-4.4 3.6-8 8-8h60c4.4 0 8 3.6 8 8v84c0 4.4-3.6 8-8 8"/><path fill="#35495f" d="M128 160c-19.85 0-36 16.15-36 36s16.15 36 36 36 36-16.15 36-36-16.15-36-36-36"/><path fill="#223140" d="M128 164c-17.645 0-32 14.355-32 32s14.355 32 32 32 32-14.355 32-32-14.355-32-32-32"/><circle cx="128" cy="196" r="28" fill="#d35627"/><path fill="#223140" d="M114 72H98a2 2 0 0 1-2-2V54a2 2 0 0 1 2-2h16a2 2 0 0 1 2 2v16a2 2 0 0 1-2 2"/><path fill="#e77f25" d="M106 54c-6.641 0-8 1.349-8 8s1.337 8 8 8 8-1.346 8-8-1.359-8-8-8"/><path fill="#223140" d="M138 72h-16a2 2 0 0 1-2-2V54a2 2 0 0 1 2-2h16a2 2 0 0 1 2 2v16a2 2 0 0 1-2 2"/><path fill="#e77f25" d="M130 54c-6.641 0-8 1.349-8 8s1.337 8 8 8 8-1.346 8-8-1.359-8-8-8"/><path fill="#223140" d="M162 72h-16a2 2 0 0 1-2-2V54a2 2 0 0 1 2-2h16a2 2 0 0 1 2 2v16a2 2 0 0 1-2 2"/><path fill="#e77f25" d="M154 54c-6.641 0-8 1.349-8 8s1.337 8 8 8 8-1.346 8-8-1.359-8-8-8"/><path fill="#223140" d="M114 96H98a2 2 0 0 1-2-2V78a2 2 0 0 1 2-2h16a2 2 0 0 1 2 2v16a2 2 0 0 1-2 2"/><path fill="#e77f25" d="M106 78c-6.641 0-8 1.349-8 8s1.337 8 8 8 8-1.346 8-8-1.359-8-8-8"/><path fill="#223140" d="M138 96h-16a2 2 0 0 1-2-2V78a2 2 0 0 1 2-2h16a2 2 0 0 1 2 2v16a2 2 0 0 1-2 2"/><path fill="#e77f25" d="M130 78c-6.641 0-8 1.349-8 8s1.337 8 8 8 8-1.346 8-8-1.359-8-8-8"/><path fill="#223140" d="M162 96h-16a2 2 0 0 1-2-2V78a2 2 0 0 1 2-2h16a2 2 0 0 1 2 2v16a2 2 0 0 1-2 2"/><path fill="#e77f25" d="M154 78c-6.641 0-8 1.349-8 8s1.337 8 8 8 8-1.346 8-8-1.359-8-8-8"/><path fill="#223140" d="M114 120H98a2 2 0 0 1-2-2v-16a2 2 0 0 1 2-2h16a2 2 0 0 1 2 2v16a2 2 0 0 1-2 2"/><path fill="#e77f25" d="M106 102c-6.641 0-8 1.349-8 8s1.337 8 8 8 8-1.346 8-8-1.359-8-8-8"/><path fill="#223140" d="M138 120h-16a2 2 0 0 1-2-2v-16a2 2 0 0 1 2-2h16a2 2 0 0 1 2 2v16a2 2 0 0 1-2 2"/><path fill="#e77f25" d="M130 102c-6.641 0-8 1.349-8 8s1.337 8 8 8 8-1.346 8-8-1.359-8-8-8"/><path fill="#223140" d="M162 120h-16a2 2 0 0 1-2-2v-16a2 2 0 0 1 2-2h16a2 2 0 0 1 2 2v16a2 2 0 0 1-2 2"/><path fill="#e77f25" d="M154 102c-6.641 0-8 1.349-8 8s1.337 8 8 8 8-1.346 8-8-1.359-8-8-8"/><path fill="#223140" d="M114 144H98a2 2 0 0 1-2-2v-16a2 2 0 0 1 2-2h16a2 2 0 0 1 2 2v16a2 2 0 0 1-2 2"/><path fill="#e77f25" d="M106 126c-6.641 0-8 1.349-8 8s1.337 8 8 8 8-1.346 8-8-1.359-8-8-8"/><path fill="#223140" d="M138 144h-16a2 2 0 0 1-2-2v-16a2 2 0 0 1 2-2h16a2 2 0 0 1 2 2v16a2 2 0 0 1-2 2"/><path fill="#e77f25" d="M130 126c-6.641 0-8 1.349-8 8s1.337 8 8 8 8-1.346 8-8-1.359-8-8-8"/><path fill="#223140" d="M162 144h-16a2 2 0 0 1-2-2v-16a2 2 0 0 1 2-2h16a2 2 0 0 1 2 2v16a2 2 0 0 1-2 2"/><path fill="#e77f25" d="M154 126c-6.641 0-8 1.349-8 8s1.337 8 8 8 8-1.346 8-8-1.359-8-8-8"/><path fill="#223140" d="M76 236h104v8H76zm8-224h88v4H84z"/></svg>