<svg xmlns="http://www.w3.org/2000/svg" viewBox="0 0 256 256"><path fill="#7f8b8c" fill-rule="evenodd" d="M50.038 38.301S88.266 36 127.445 36c38.862 0 78.597 2.301 78.597 2.301 6.424 0 11.659 5.237 11.659 11.664 0 0 2.3 39.434 2.3 78.63 0 38.799-2.3 77.44-2.3 77.44 0 6.427-5.234 11.664-11.659 11.664 0 0-39.814 2.301-78.597 2.301-39.179 0-77.486-2.301-77.486-2.301-6.424 0-11.659-5.237-11.659-11.664 0 0-2.3-39.276-2.3-78.392 0-38.879 2.3-77.678 2.3-77.678.079-6.427 5.314-11.664 11.738-11.664" clip-rule="evenodd"/><path fill="#2b3e51" d="M204 84H52v88h152V88.4z"/><path fill="#223140" d="M56 88h144v80H56z"/><path fill="#d1d6d2" d="M71 136a1 1 0 0 1 1 1v3h3a1 1 0 0 1 1 1v2a1 1 0 0 1-1 1h-3v3a1 1 0 0 1-1 1h-2a1 1 0 0 1-1-1v-3h-3a1 1 0 0 1-1-1v-2a1 1 0 0 1 1-1h3v-3a1 1 0 0 1 1-1zm0-4h-2a5.01 5.01 0 0 0-4.916 4.084A5.01 5.01 0 0 0 60 141v2a5.01 5.01 0 0 0 4.084 4.916A5.01 5.01 0 0 0 69 152h2a5.01 5.01 0 0 0 4.916-4.084A5.01 5.01 0 0 0 80 143v-2a5.01 5.01 0 0 0-4.084-4.916A5.01 5.01 0 0 0 71 132"/><path fill="#d1d6d2" d="M80 152a4 4 0 1 1 0 8 4 4 0 0 1 0-8m0-4c-4.411 0-8 3.589-8 8s3.589 8 8 8 8-3.589 8-8-3.589-8-8-8m96 4a4 4 0 1 1 0 8 4 4 0 0 1 0-8m0-4c-4.411 0-8 3.589-8 8s3.589 8 8 8 8-3.589 8-8-3.589-8-8-8"/><path fill="#d1d6d2" d="M186 136a2 2 0 1 1 .001 3.999A2 2 0 0 1 186 136m4 4a2 2 0 1 1 .001 3.999A2 2 0 0 1 190 140m-8 0a2 2 0 1 1 .001 3.999A2 2 0 0 1 182 140m4 4a2 2 0 1 1 .001 3.999A2 2 0 0 1 186 144m0-12a6.01 6.01 0 0 0-5.742 4.258c-2.462.748-4.258 3.039-4.258 5.742s1.796 4.994 4.258 5.742c.748 2.462 3.039 4.258 5.742 4.258s4.994-1.796 5.742-4.258c2.462-.748 4.258-3.039 4.258-5.742s-1.796-4.994-4.258-5.742A6.01 6.01 0 0 0 186 132"/><path fill="#2b3e51" d="m104 100-4-6a2 2 0 0 1 2-2h4a2 2 0 0 1 2 2zm12 0-4-6a2 2 0 0 1 2-2h4a2 2 0 0 1 2 2zm12 12a4 4 0 0 1-4-4v-4h8v4a4 4 0 0 1-4 4m12 0a4 4 0 0 1-4-4v-4h8v4a4 4 0 0 1-4 4m12 0a4 4 0 0 1-4-4v-4h8v4a4 4 0 0 1-4 4m-36 0a4 4 0 0 1-4-4v-4h8v4a4 4 0 0 1-4 4m-12 0a4 4 0 0 1-4-4v-4h8v4a4 4 0 0 1-4 4m24-12-4-6a2 2 0 0 1 2-2h4a2 2 0 0 1 2 2zm12 0-4-6a2 2 0 0 1 2-2h4a2 2 0 0 1 2 2zm12 0-4-6a2 2 0 0 1 2-2h4a2 2 0 0 1 2 2zm-40 52h-8v-6a2 2 0 0 1 2-2h4a2 2 0 0 1 2 2zm12 0h-8v-6a2 2 0 0 1 2-2h4a2 2 0 0 1 2 2zm16 0h-8v-6a2 2 0 0 1 2-2h4a2 2 0 0 1 2 2zm12 0h-8v-6a2 2 0 0 1 2-2h4a2 2 0 0 1 2 2z"/><path fill="#7f8b8c" d="M130 144a2 2 0 1 1-.001-3.999A2 2 0 0 1 130 144m-4-8a2 2 0 1 1-.001-3.999A2 2 0 0 1 126 136m0-16a2 2 0 1 1-.001-3.999A2 2 0 0 1 126 120m4 8a2 2 0 1 1-.001-3.999A2 2 0 0 1 130 128m2 32a4 4 0 0 0-8 0l-4 4h16z"/></svg>