<svg xmlns="http://www.w3.org/2000/svg" viewBox="0 0 256 256"><path fill="#7f8b8c" fill-rule="evenodd" d="M50.038 38.301S88.266 36 127.445 36c38.862 0 78.597 2.301 78.597 2.301 6.424 0 11.659 5.237 11.659 11.664 0 0 2.3 39.434 2.3 78.63 0 38.799-2.3 77.44-2.3 77.44 0 6.427-5.234 11.664-11.659 11.664 0 0-39.814 2.301-78.597 2.301-39.179 0-77.486-2.301-77.486-2.301-6.424 0-11.659-5.237-11.659-11.664 0 0-2.3-39.276-2.3-78.392 0-38.879 2.3-77.678 2.3-77.678.079-6.427 5.314-11.664 11.738-11.664" clip-rule="evenodd"/><path fill="#93a3a3" d="M160 100c-11.832 0-22.441 7.5-26.399 18.663A27.9 27.9 0 0 0 132 128c0 4.183.944 8.275 2.725 12h-13.45A27.8 27.8 0 0 0 124 128c0-15.439-12.561-28-28-28s-28 12.561-28 28 12.561 28 28 28h64c15.439 0 28-12.561 28-28s-12.561-28-28-28m0 40c-6.617 0-12-5.383-12-12s5.383-12 12-12 12 5.383 12 12-5.383 12-12 12m-64 0c-6.617 0-12-5.383-12-12s5.383-12 12-12 12 5.383 12 12-5.383 12-12 12"/><path fill="#edefef" d="M160 104c-10.43 0-19.327 6.688-22.629 16a23.9 23.9 0 0 0-1.371 8c0 6.15 2.345 11.749 6.162 16h-28.324c3.817-4.251 6.162-9.85 6.162-16 0-13.234-10.766-24-24-24s-24 10.766-24 24 10.766 24 24 24h64c13.234 0 24-10.766 24-24s-10.766-24-24-24m-80 24c0-8.837 7.163-16 16-16s16 7.163 16 16-7.163 16-16 16-16-7.163-16-16m80 16c-8.837 0-16-7.163-16-16s7.163-16 16-16 16 7.163 16 16-7.163 16-16 16"/></svg>