<svg enable-background="new 0 0 256 256" viewBox="0 0 256 256" xmlns="http://www.w3.org/2000/svg"><path clip-rule="evenodd" d="m50.038 38.301s38.228-2.301 77.407-2.301c38.862 0 78.597 2.301 78.597 2.301 6.424 0 11.659 5.237 11.659 11.664 0 0 2.3 39.434 2.3 78.63 0 38.799-2.3 77.44-2.3 77.44 0 6.427-5.234 11.664-11.659 11.664 0 0-39.814 2.301-78.597 2.301-39.179 0-77.486-2.301-77.486-2.301-6.424 0-11.659-5.237-11.659-11.664 0 0-2.3-39.276-2.3-78.392 0-38.879 2.3-77.678 2.3-77.678.079-6.427 5.314-11.664 11.738-11.664z" fill="#7f8b8c" fill-rule="evenodd"/><path d="m204 84h-4.471-143.058-4.471v4.4 79.2 4.4h4.471 143.059 4.47v-4.4-79.2z" fill="#2b3e51"/><path d="m56 88h144v80h-144z" fill="#223140"/><path d="m71 136c.552 0 1 .448 1 1v3h3c.552 0 1 .448 1 1v2c0 .552-.448 1-1 1h-3v3c0 .552-.448 1-1 1h-2c-.552 0-1-.448-1-1v-3h-3c-.552 0-1-.448-1-1v-2c0-.552.448-1 1-1h3v-3c0-.552.448-1 1-1zm0-4h-2c-2.444 0-4.484 1.763-4.916 4.084-2.321.432-4.084 2.472-4.084 4.916v2c0 2.444 1.763 4.484 4.084 4.916.432 2.321 2.472 4.084 4.916 4.084h2c2.444 0 4.484-1.763 4.916-4.084 2.321-.432 4.084-2.472 4.084-4.916v-2c0-2.444-1.763-4.484-4.084-4.916-.432-2.321-2.472-4.084-4.916-4.084z" fill="#d1d6d2"/><path d="m80 152c2.209 0 4 1.791 4 4s-1.791 4-4 4-4-1.791-4-4 1.791-4 4-4m0-4c-4.411 0-8 3.589-8 8s3.589 8 8 8 8-3.589 8-8-3.589-8-8-8z" fill="#d1d6d2"/><path d="m176 152c2.209 0 4 1.791 4 4s-1.791 4-4 4-4-1.791-4-4 1.791-4 4-4m0-4c-4.411 0-8 3.589-8 8s3.589 8 8 8 8-3.589 8-8-3.589-8-8-8z" fill="#d1d6d2"/><path d="m186 136c1.105 0 2 .895 2 2s-.895 2-2 2-2-.895-2-2 .895-2 2-2m4 4c1.105 0 2 .895 2 2s-.895 2-2 2-2-.895-2-2 .895-2 2-2m-8 0c1.105 0 2 .895 2 2s-.895 2-2 2-2-.895-2-2 .895-2 2-2m4 4c1.105 0 2 .895 2 2s-.895 2-2 2-2-.895-2-2 .895-2 2-2m0-12c-2.703 0-4.994 1.796-5.742 4.258-2.462.748-4.258 3.039-4.258 5.742s1.796 4.994 4.258 5.742c.748 2.462 3.039 4.258 5.742 4.258s4.994-1.796 5.742-4.258c2.462-.748 4.258-3.039 4.258-5.742s-1.796-4.994-4.258-5.742c-.748-2.462-3.039-4.258-5.742-4.258z" fill="#d1d6d2"/><g fill="#2b3e51"><path d="m104 100-4-6c0-1.105.895-2 2-2h4c1.105 0 2 .895 2 2z"/><path d="m116 100-4-6c0-1.105.895-2 2-2h4c1.105 0 2 .895 2 2z"/><path d="m128 112c-2.209 0-4-1.791-4-4v-4h8v4c0 2.209-1.791 4-4 4z"/><path d="m140 112c-2.209 0-4-1.791-4-4v-4h8v4c0 2.209-1.791 4-4 4z"/><path d="m152 112c-2.209 0-4-1.791-4-4v-4h8v4c0 2.209-1.791 4-4 4z"/><path d="m116 112c-2.209 0-4-1.791-4-4v-4h8v4c0 2.209-1.791 4-4 4z"/><path d="m104 112c-2.209 0-4-1.791-4-4v-4h8v4c0 2.209-1.791 4-4 4z"/><path d="m128 100-4-6c0-1.105.895-2 2-2h4c1.105 0 2 .895 2 2z"/><path d="m140 100-4-6c0-1.105.895-2 2-2h4c1.105 0 2 .895 2 2z"/><path d="m152 100-4-6c0-1.105.895-2 2-2h4c1.105 0 2 .895 2 2z"/><path d="m112 152h-8v-6c0-1.105.895-2 2-2h4c1.105 0 2 .895 2 2z"/><path d="m124 152h-8v-6c0-1.105.895-2 2-2h4c1.105 0 2 .895 2 2z"/><path d="m140 152h-8v-6c0-1.105.895-2 2-2h4c1.105 0 2 .895 2 2z"/><path d="m152 152h-8v-6c0-1.105.895-2 2-2h4c1.105 0 2 .895 2 2z"/></g><path d="m130 144c-1.105 0-2-.895-2-2 0-1.105.895-2 2-2 1.105 0 2 .895 2 2 0 1.105-.895 2-2 2z" fill="#7f8b8c"/><path d="m126 136c-1.105 0-2-.895-2-2 0-1.105.895-2 2-2 1.105 0 2 .895 2 2 0 1.105-.895 2-2 2z" fill="#7f8b8c"/><path d="m126 120c-1.105 0-2-.895-2-2 0-1.105.895-2 2-2 1.105 0 2 .895 2 2 0 1.105-.895 2-2 2z" fill="#7f8b8c"/><path d="m130 128c-1.105 0-2-.895-2-2 0-1.105.895-2 2-2 1.105 0 2 .895 2 2 0 1.105-.895 2-2 2z" fill="#7f8b8c"/><path d="m132 160c0-2.209-1.791-4-4-4s-4 1.791-4 4l-4 4h16z" fill="#7f8b8c"/></svg>