<svg height="245.33333" viewBox="0 0 245.33333 245.33333" width="245.33333" xmlns="http://www.w3.org/2000/svg" xmlns:xlink="http://www.w3.org/1999/xlink"><clipPath id="a"><path d="m0 256h256v-256h-256z"/></clipPath><g clip-path="url(#a)" transform="matrix(1.3333333 0 0 -1.3333333 -47.999865 293.33333)"><path d="m0 0s38.228 2.301 77.407 2.301c38.862 0 78.596-2.301 78.596-2.301 6.425 0 11.659-5.237 11.659-11.664 0 0 2.3-39.434 2.3-78.63 0-38.8-2.3-77.44-2.3-77.44 0-6.427-5.234-11.664-11.659-11.664 0 0-39.813-2.301-78.596-2.301-39.179 0-77.486 2.301-77.486 2.301-6.424 0-11.659 5.237-11.659 11.664 0 0-2.3 39.275-2.3 78.392 0 38.879 2.3 77.678 2.3 77.678.079 6.427 5.314 11.664 11.738 11.664" fill="#7f8b8c" fill-rule="evenodd" transform="translate(50.0379 217.699)"/><g fill="#93a3a3"><path d="m130 216h-4v4h4z"/><path d="m130 208h-4v4h4z"/><path d="m130 200h-4v4h4z"/><path d="m130 192h-4v4h4z"/><path d="m130 184h-4v4h4z"/><path d="m130 176h-4v4h4z"/><path d="m130 168h-4v4h4z"/><path d="m130 88h-4v4h4z"/><path d="m130 80h-4v4h4z"/><path d="m130 72h-4v4h4z"/><path d="m130 64h-4v4h4z"/><path d="m130 56h-4v4h4z"/><path d="m130 48h-4v4h4z"/><path d="m130 40h-4v4h4z"/><path d="m0 0 1.967 3.483 3.483-1.968-1.967-3.482z" transform="translate(201.8961 85.9617)"/><path d="m0 0 1.967 3.483 3.483-1.968-1.967-3.482z" transform="translate(194.9305 89.8963)"/><path d="m0 0 1.967 3.483 3.483-1.968-1.967-3.482z" transform="translate(187.965 93.8309)"/><path d="m0 0 1.967 3.483 3.483-1.968-1.967-3.482z" transform="translate(180.9994 97.7655)"/><path d="m0 0 1.967 3.483 3.483-1.968-1.967-3.482z" transform="translate(174.0338 101.7001)"/><path d="m0 0 1.967 3.483 3.483-1.968-1.967-3.482z" transform="translate(167.0683 105.6347)"/><path d="m0 0 1.967 3.483 3.483-1.968-1.967-3.482z" transform="translate(160.1027 109.5693)"/><path d="m0 0 1.967 3.483 3.483-1.968-1.967-3.482z" transform="translate(90.4472 148.9153)"/><path d="m0 0 1.967 3.483 3.483-1.968-1.967-3.482z" transform="translate(83.4816 152.8498)"/><path d="m0 0 1.967 3.483 3.483-1.968-1.967-3.482z" transform="translate(76.5161 156.7844)"/><path d="m0 0 1.967 3.483 3.483-1.968-1.967-3.482z" transform="translate(69.5505 160.719)"/><path d="m0 0 1.967 3.483 3.483-1.968-1.967-3.482z" transform="translate(62.585 164.6536)"/><path d="m0 0 1.967 3.483 3.483-1.968-1.967-3.482z" transform="translate(55.6194 168.5882)"/><path d="m0 0 1.967 3.483 3.483-1.968-1.967-3.482z" transform="translate(48.6539 172.5228)"/><path d="m0 0-2.032 3.446 3.446 2.031 2.032-3.445z" transform="translate(203.0974 171.9569)"/><path d="m0 0-2.032 3.446 3.446 2.031 2.032-3.445z" transform="translate(196.2061 167.8936)"/><path d="m0 0-2.032 3.446 3.446 2.031 2.032-3.445z" transform="translate(189.3148 163.8304)"/><path d="m0 0-2.032 3.446 3.446 2.031 2.032-3.445z" transform="translate(182.4235 159.7672)"/><path d="m0 0-2.032 3.446 3.446 2.031 2.032-3.445z" transform="translate(175.5322 155.704)"/><path d="m0 0-2.032 3.446 3.446 2.031 2.032-3.445z" transform="translate(168.6409 151.6407)"/><path d="m0 0-2.032 3.446 3.446 2.031 2.032-3.445z" transform="translate(161.7495 147.5775)"/><path d="m0 0-2.032 3.446 3.446 2.031 2.032-3.445z" transform="translate(92.8364 106.9452)"/><path d="m0 0-2.032 3.446 3.446 2.031 2.032-3.445z" transform="translate(85.9451 102.882)"/><path d="m0 0-2.032 3.446 3.446 2.031 2.032-3.445z" transform="translate(79.0538 98.8188)"/><path d="m0 0-2.032 3.446 3.446 2.031 2.032-3.445z" transform="translate(72.1625 94.7556)"/><path d="m0 0-2.032 3.446 3.446 2.031 2.032-3.445z" transform="translate(65.2712 90.6923)"/><path d="m0 0-2.032 3.446 3.446 2.031 2.032-3.445z" transform="translate(58.3799 86.6291)"/><path d="m0 0-2.032 3.446 3.446 2.031 2.032-3.445z" transform="translate(51.4885 82.5659)"/><path d="m0 0-3.464 2-2-3.465 3.464-2z" transform="translate(98.4258 47.8665)"/><path d="m0 0-3.464 2-2-3.465 3.464-2z" transform="translate(91.4971 51.8665)"/><path d="m0 0-3.464 2-2-3.465 3.464-2z" transform="translate(105.3535 43.8665)"/><path d="m0 0-2 3.464-3.464-2 2-3.464z" transform="translate(91.4971 204.4021)"/><path d="m0 0-2 3.464-3.464-2 2-3.464z" transform="translate(98.4258 208.4021)"/><path d="m0 0-2 3.464-3.464-2 2-3.464z" transform="translate(112.2822 216.4021)"/><path d="m0 0-3.465 2-2-3.465 3.465-2z" transform="translate(112.2822 39.8665)"/><path d="m0 0-2 3.464-3.464-2 2-3.464z" transform="translate(105.3535 212.4021)"/><path d="m0 0-2 3.464-3.464-2 2-3.464z" transform="translate(84.5693 200.4021)"/><path d="m40 94.134h4v4h-4z"/><path d="m40 102.134h4v4h-4z"/><path d="m40 110.134h4v4h-4z"/><path d="m40 86.134h4v4h-4z"/><path d="m0 0h-3.69l.923-1.598z" transform="translate(118.5135 220)"/><path d="m0 0-3.464 2-2-3.465 3.464-2z" transform="translate(84.5693 55.8665)"/><path d="m40 78.134h4v4h-4z"/><path d="m0 0-2 3.464-3.464-2 2-3.464z" transform="translate(77.6406 196.4021)"/><path d="m0 0-2 3.465-3.464-2 2-3.465z" transform="translate(169.9668 50.134)"/><path d="m0 0-3.464 2-2-3.464 3.464-2z" transform="translate(183.8232 197.5984)"/><path d="m0 0-2 3.465-3.464-2 2-3.465z" transform="translate(183.8232 58.134)"/><path d="m0 0-3.464 2-2-3.464 3.464-2z" transform="translate(176.8945 201.5984)"/><path d="m0 0-2 3.465-3.464-2 2-3.465z" transform="translate(190.751 62.134)"/><path d="m0 0-2 3.465-3.464-2 2-3.465z" transform="translate(176.8945 54.134)"/><path d="m0 0h3.692l-.923 1.599z" transform="translate(137.4847 36)"/><path d="m0 0-3.464 2-2-3.464 3.464-2z" transform="translate(190.751 193.5984)"/><path d="m0 0h4.31l-3.233 1.866z" transform="translate(114.6687 36)"/><path d="m0 0-2 3.465-3.464-2 2-3.465z" transform="translate(156.1104 42.134)"/><path d="m0 0-3.464 2-2-3.464 3.464-2z" transform="translate(156.1104 213.5984)"/><path d="m0 0h-4.308l3.231-1.865z" transform="translate(141.331 220)"/><path d="m0 0-3.464 2-2-3.464 3.464-2z" transform="translate(149.1816 217.5984)"/><path d="m0 0-3.464 2-2-3.464 3.464-2z" transform="translate(169.9668 205.5984)"/><path d="m0 0-2 3.465-3.465-2 2-3.465z" transform="translate(149.1826 38.134)"/><path d="m40 118.134h4v4h-4z"/><path d="m0 0-3.464 2-2-3.464 3.464-2z" transform="translate(163.0381 209.5984)"/><path d="m0 0-2 3.465-3.464-2 2-3.465z" transform="translate(163.0381 46.134)"/><path d="m40 126.134h4v4h-4z"/><path d="m212 85.866h4v4h-4z"/><path d="m212 93.866h4v4h-4z"/><path d="m212 101.866h4v4h-4z"/><path d="m212 77.866h4v4h-4z"/><path d="m0 0 2-3.465 3.464 2-2 3.465z" transform="translate(206.0723 75.5989)"/><path d="m0 0 3.464-2 2 3.464-3.464 2z" transform="translate(199.1436 184.1345)"/><path d="m0 0 3.464-2 2 3.464-3.464 2z" transform="translate(206.0723 180.1345)"/><path d="m212 109.866h4v4h-4z"/><path d="m0 0 2-3.465 3.464 2-2 3.465z" transform="translate(199.1436 71.5989)"/><path d="m212 165.866h4v4h-4z"/><path d="m212 157.866h4v4h-4z"/><path d="m212 173.866h4v4h-4z"/><path d="m212 149.866h4v4h-4z"/><path d="m212 141.866h4v4h-4z"/><path d="m212 125.866h4v4h-4z"/><path d="m212 117.866h4v4h-4z"/><path d="m212 133.866h4v4h-4z"/><path d="m0 0 3.464-2 2 3.465-3.464 2z" transform="translate(65.249 62.4016)"/><path d="m40 166.134h4v4h-4z"/><path d="m0 0 3.464-2 2 3.465-3.464 2z" transform="translate(44.4639 74.4016)"/><path d="m40 174.134h4v4h-4z"/><path d="m0 0 3.464-2 2 3.464-3.464 2z" transform="translate(192.2158 188.1345)"/><path d="m40 150.134h4v4h-4z"/><path d="m40 142.134h4v4h-4z"/><path d="m40 158.134h4v4h-4z"/><path d="m0 0 3.464-2 2 3.465-3.464 2z" transform="translate(51.3926 70.4016)"/><path d="m0 0 2-3.464 3.464 2-2 3.464z" transform="translate(44.4639 181.866)"/><path d="m0 0 2-3.464 3.464 2-2 3.464z" transform="translate(51.3926 185.866)"/><path d="m0 0 2-3.465 3.464 2-2 3.465z" transform="translate(192.2158 67.5989)"/><path d="m0 0 2-3.464 3.464 2-2 3.464z" transform="translate(65.249 193.866)"/><path d="m0 0-2-3.465 3.464-2 2 3.465z" transform="translate(74.1768 61.8665)"/><path d="m40 134.134h4v4h-4z"/><path d="m0 0 3.464-2 2 3.465-3.464 2z" transform="translate(58.3203 66.4016)"/><path d="m0 0 2-3.464 3.464 2-2 3.464z" transform="translate(58.3203 189.866)"/></g><path d="m0 0 32-16v-36l-32 16z" fill="#2b3e51" transform="translate(96 148)"/><path d="m0 0-32-16v-36l32 16z" fill="#223140" transform="translate(160 148)"/><path d="m0 0-32 16 32 16 32-16z" fill="#35495f" transform="translate(128 132)"/></g></svg>