<svg enable-background="new 0 0 256 256" viewBox="0 0 256 256" xmlns="http://www.w3.org/2000/svg"><path clip-rule="evenodd" d="m50.038 38.301s38.228-2.301 77.407-2.301c38.862 0 78.597 2.301 78.597 2.301 6.424 0 11.659 5.237 11.659 11.664 0 0 2.3 39.434 2.3 78.63 0 38.799-2.3 77.44-2.3 77.44 0 6.427-5.234 11.664-11.659 11.664 0 0-39.814 2.301-78.597 2.301-39.179 0-77.486-2.301-77.486-2.301-6.424 0-11.659-5.237-11.659-11.664 0 0-2.3-39.276-2.3-78.392 0-38.879 2.3-77.678 2.3-77.678.079-6.427 5.314-11.664 11.738-11.664z" fill="#7f8b8c" fill-rule="evenodd"/><circle cx="128" cy="100" fill="#fde3a2" r="36"/><path clip-rule="evenodd" d="m180 208c0-31.004-10.403-58.07-25.873-72.623-7.312 5.414-16.351 8.623-26.127 8.623s-18.815-3.209-26.127-8.623c-15.47 14.553-25.873 41.619-25.873 72.623 0 3.712.164 7.36.455 10.945 14.173.542 32.481 1.055 50.99 1.055 18.642 0 37.521-.532 52.103-1.084.289-3.575.452-7.214.452-10.916z" fill="#1b80bb" fill-rule="evenodd"/></svg>