<svg xmlns="http://www.w3.org/2000/svg" viewBox="0 0 256 256"><path fill="#7f8b8c" fill-rule="evenodd" d="M50.038 38.301S88.266 36 127.445 36c38.862 0 78.597 2.301 78.597 2.301 6.424 0 11.659 5.237 11.659 11.664 0 0 2.3 39.434 2.3 78.63 0 38.799-2.3 77.44-2.3 77.44 0 6.427-5.234 11.664-11.659 11.664 0 0-39.814 2.301-78.597 2.301-39.179 0-77.486-2.301-77.486-2.301-6.424 0-11.659-5.237-11.659-11.664 0 0-2.3-39.276-2.3-78.392 0-38.879 2.3-77.678 2.3-77.678.079-6.427 5.314-11.664 11.738-11.664" clip-rule="evenodd"/><path fill="#3394d1" d="M177.713 122.475a7.76 7.76 0 0 0-5.524-2.288h-36.378V83.809a7.76 7.76 0 0 0-2.288-5.524 7.76 7.76 0 0 0-5.524-2.288c-4.307 0-7.811 3.504-7.811 7.811v36.378H83.81c-4.307 0-7.811 3.504-7.811 7.811 0 2.087.813 4.049 2.288 5.524s3.437 2.287 5.523 2.288h36.378v36.378a7.76 7.76 0 0 0 2.288 5.524 7.76 7.76 0 0 0 5.524 2.287c4.307 0 7.811-3.504 7.811-7.811V135.81h36.378a7.76 7.76 0 0 0 5.524-2.288 7.76 7.76 0 0 0 2.287-5.524 7.76 7.76 0 0 0-2.287-5.523"/><path fill="#1b80bb" d="M131.898 131.898h40.205a3.897 3.897 0 0 0 3.898-3.898 3.897 3.897 0 0 0-3.898-3.898h-40.205V83.898A3.897 3.897 0 0 0 128 80a3.897 3.897 0 0 0-3.898 3.898v40.205H83.897a3.897 3.897 0 1 0-.001 7.795h40.205v40.205c0 1.077.436 2.051 1.141 2.756s1.68 1.141 2.756 1.141a3.897 3.897 0 0 0 3.898-3.898v-40.204z"/></svg>