<svg enable-background="new 0 0 256 256" viewBox="0 0 256 256" xmlns="http://www.w3.org/2000/svg"><path clip-rule="evenodd" d="m50.038 38.301s38.228-2.301 77.407-2.301c38.862 0 78.597 2.301 78.597 2.301 6.424 0 11.659 5.237 11.659 11.664 0 0 2.3 39.434 2.3 78.63 0 38.799-2.3 77.44-2.3 77.44 0 6.427-5.234 11.664-11.659 11.664 0 0-39.814 2.301-78.597 2.301-39.179 0-77.486-2.301-77.486-2.301-6.424 0-11.659-5.237-11.659-11.664 0 0-2.3-39.276-2.3-78.392 0-38.879 2.3-77.678 2.3-77.678.079-6.427 5.314-11.664 11.738-11.664z" fill="#7f8b8c" fill-rule="evenodd"/><path d="m181.348 124.341-20.864-7.468c-.439-.157-.895-.234-1.347-.234-.393 0-.779.073-1.154.186-.252-.675-.531-1.336-.827-1.989.746-.395 1.365-1.017 1.742-1.806l9.496-19.871c.291-.554.455-1.185.455-1.853 0-2.188-1.754-3.965-3.933-4-.023 0-.047-.001-.07-.001-.105 0-.21.004-.315.012-.525.041-1.021.183-1.47.407l-19.966 9.44c-.789.373-1.414.989-1.812 1.732-.648-.297-1.306-.575-1.977-.829.248-.807.246-1.684-.045-2.508l-7.382-20.894c-.564-1.596-2.071-2.664-3.763-2.668-.003 0-.006 0-.008 0-1.689 0-3.197 1.061-3.766 2.652l-7.468 20.864c-.294.821-.3 1.698-.056 2.505-.672.252-1.331.529-1.98.824-.395-.746-1.017-1.365-1.806-1.742l-20-9.557c-.551-.263-1.14-.391-1.724-.391-1.036 0-2.057.402-2.824 1.166-1.199 1.194-1.517 3.014-.794 4.544l9.476 20.042c.373.789.989 1.414 1.732 1.812-.298.651-.578 1.312-.833 1.986-.357-.109-.727-.188-1.119-.192-.018 0-.036 0-.054 0-.07 0-.141.002-.211.006-.424.022-.83.11-1.209.254l-20.806 7.351c-1.596.564-2.664 2.071-2.668 3.763s1.059 3.204 2.652 3.774l20.864 7.468c.44.157.895.234 1.347.234.393 0 .779-.073 1.154-.186.252.675.531 1.336.827 1.989-.746.395-1.365 1.017-1.742 1.806l-9.557 20c-.73 1.527-.419 3.348.775 4.547.768.771 1.794 1.178 2.835 1.178.579 0 1.162-.126 1.709-.384l20.042-9.476c.789-.373 1.414-.989 1.812-1.732.648.297 1.306.575 1.977.829-.248.807-.246 1.684.045 2.508l7.382 20.894c.564 1.596 2.071 2.664 3.763 2.668h.008c1.689 0 3.196-1.061 3.766-2.652l7.415-20.717c.186-.462.289-.967.289-1.495 0-.404-.077-.786-.188-1.153.675-.252 1.336-.531 1.989-.827.395.746 1.017 1.365 1.806 1.742l20 9.557c.551.263 1.14.391 1.724.391 1.036 0 2.057-.402 2.824-1.166 1.199-1.194 1.517-3.014.794-4.544l-9.476-20.042c-.373-.789-.989-1.414-1.732-1.812.298-.651.578-1.312.833-1.985.38.117.773.192 1.173.192.447 0 .897-.075 1.332-.229l20.894-7.382c1.596-.564 2.664-2.071 2.668-3.763s-1.061-3.204-2.654-3.775z" fill="#93a3a3"/><circle cx="128" cy="128" fill="#edefef" r="28"/><g fill="#ececed"><path d="m111.306 100.712-20-9.557 9.476 20.042c2.641-4.262 6.251-7.861 10.524-10.485z"/><path d="m155.288 111.306 9.557-20-20.042 9.476c4.262 2.641 7.861 6.251 10.485 10.524z"/><path d="m180 128.107-20.864-7.468c.559 2.365.864 4.827.864 7.361 0 2.579-.315 5.085-.894 7.489z"/><path d="m128 96c2.579 0 5.085.315 7.489.894l-7.382-20.894-7.468 20.864c2.365-.559 4.827-.864 7.361-.864z"/><path d="m144.694 155.288 20 9.557-9.476-20.042c-2.641 4.262-6.251 7.861-10.524 10.485z"/><path d="m128 160c-2.579 0-5.085-.315-7.489-.894l7.382 20.894 7.468-20.864c-2.365.559-4.827.864-7.361.864z"/><path d="m96 128c0-2.579.315-5.085.894-7.489l-20.894 7.382 20.864 7.468c-.559-2.365-.864-4.827-.864-7.361z"/><path d="m100.712 144.694-9.557 20 20.042-9.476c-4.262-2.641-7.861-6.251-10.485-10.524z"/></g></svg>