<svg height="245.33333" viewBox="0 0 245.33333 245.33333" width="245.33333" xmlns="http://www.w3.org/2000/svg" xmlns:xlink="http://www.w3.org/1999/xlink"><clipPath id="a"><path d="m0 256h256v-256h-256z"/></clipPath><g clip-path="url(#a)" transform="matrix(1.3333333 0 0 -1.3333333 -47.999865 293.33333)"><path d="m0 0s38.228 2.301 77.407 2.301c38.862 0 78.596-2.301 78.596-2.301 6.425 0 11.659-5.237 11.659-11.664 0 0 2.3-39.434 2.3-78.63 0-38.8-2.3-77.44-2.3-77.44 0-6.427-5.234-11.664-11.659-11.664 0 0-39.813-2.301-78.596-2.301-39.179 0-77.486 2.301-77.486 2.301-6.424 0-11.659 5.237-11.659 11.664 0 0-2.3 39.275-2.3 78.392 0 38.879 2.3 77.678 2.3 77.678.079 6.427 5.314 11.664 11.738 11.664" fill="#7f8b8c" fill-rule="evenodd" transform="translate(50.0379 217.699)"/><path d="m0 0h-88c-4.418 0-8 3.582-8 8v88c0 4.418 3.582 8 8 8h88c4.418 0 8-3.582 8-8v-88c0-4.418-3.582-8-8-8" fill="#223140" transform="translate(172 76)"/><path d="m0 0-6.333-8h14.333l2.571-12h9.094l-3.665 12h6l6-19.883-4-.079v-.038h-11.714l1.714-8h-14l10-12h-8l-9.5 12h-21l-9.5-12h-8l10 12h-14l1.714 8h-9.714-2-4l6 20h6l-3.6-12h9.029l2.571 12h14.333l-6.333 8h6l6.667-8h10.666l6.667 8z" fill="#d1d6d2" transform="translate(146 152)"/><g fill="#223140"><path d="m140 130h8v8h-8z"/><path d="m108 130h8v8h-8z"/></g></g></svg>