<svg enable-background="new 0 0 256 256" viewBox="0 0 256 256" xmlns="http://www.w3.org/2000/svg"><path clip-rule="evenodd" d="m50.038 38.301s38.228-2.301 77.407-2.301c38.862 0 78.597 2.301 78.597 2.301 6.424 0 11.659 5.237 11.659 11.664 0 0 2.3 39.434 2.3 78.63 0 38.799-2.3 77.44-2.3 77.44 0 6.427-5.234 11.664-11.659 11.664 0 0-39.814 2.301-78.597 2.301-39.179 0-77.486-2.301-77.486-2.301-6.424 0-11.659-5.237-11.659-11.664 0 0-2.3-39.276-2.3-78.392 0-38.879 2.3-77.678 2.3-77.678.079-6.427 5.314-11.664 11.738-11.664z" fill="#7f8b8c" fill-rule="evenodd"/><path d="m124 64h8v12h-8z" fill="#223140"/><path d="m139.9 127.414 31.941-31.941c.781-.781.781-2.047 0-2.828l-8.485-8.485c-.781-.781-2.047-.781-2.828 0l-21.113 21.113c-1.26 1.26-3.414.368-3.414-1.414v-29.859c0-1.105-.895-2-2-2h-12c-1.105 0-2 .895-2 2v29.858c0 1.782-2.154 2.674-3.414 1.414l-21.114-21.113c-.781-.781-2.047-.781-2.828 0l-8.485 8.485c-.781.781-.781 2.047 0 2.828l31.941 31.941c.375.375.884.586 1.414.586h20.971c.53.001 1.038-.21 1.414-.585z" fill="#2b3e51"/><path d="m128 76.5c28.414 0 51.5 23.146 51.5 51.538s-23.086 51.462-51.5 51.462-51.5-23.069-51.5-51.461 23.086-51.539 51.5-51.539z" fill="#93a3a3"/><path d="m128 81.478c-25.763 0-46.595 20.817-46.595 46.56s20.832 46.484 46.595 46.484 46.595-20.74 46.595-46.484-20.832-46.56-46.595-46.56z" fill="#edefef"/><path d="m134 68h-12c-1.105 0-2-.895-2-2v-4c0-1.105.895-2 2-2h12c1.105 0 2 .895 2 2v4c0 1.105-.895 2-2 2z" fill="#2b3e51"/><path d="m128 132 24 20-20-24v4z" fill="#e94b36"/><path d="m124 124 4-32 4 32-4-4z" fill="#2b3e51"/><path d="m128 124c2.209 0 4 1.791 4 4s-1.791 4-4 4-4-1.791-4-4 1.791-4 4-4m0-4c-4.411 0-8 3.589-8 8s3.589 8 8 8 8-3.589 8-8-3.589-8-8-8z" fill="#223140"/></svg>