<svg enable-background="new 0 0 256 256" viewBox="0 0 256 256" xmlns="http://www.w3.org/2000/svg"><path clip-rule="evenodd" d="m50.038 38.301s38.228-2.301 77.407-2.301c38.862 0 78.597 2.301 78.597 2.301 6.424 0 11.659 5.237 11.659 11.664 0 0 2.3 39.434 2.3 78.63 0 38.799-2.3 77.44-2.3 77.44 0 6.427-5.234 11.664-11.659 11.664 0 0-39.814 2.301-78.597 2.301-39.179 0-77.486-2.301-77.486-2.301-6.424 0-11.659-5.237-11.659-11.664 0 0-2.3-39.276-2.3-78.392 0-38.879 2.3-77.678 2.3-77.678.079-6.427 5.314-11.664 11.738-11.664z" fill="#7f8b8c" fill-rule="evenodd"/><path d="m106 92c-5.514 0-10 4.486-10 10v52c0 5.514 4.486 10 10 10s10-4.486 10-10v-52c0-5.514-4.486-10-10-10z" fill="#93a3a3"/><path d="m106 160c-3.3 0-6-2.7-6-6v-52c0-3.3 2.7-6 6-6 3.3 0 6 2.7 6 6v52c0 3.3-2.7 6-6 6z" fill="#edefef"/><path d="m150 92c-5.514 0-10 4.486-10 10v52c0 5.514 4.486 10 10 10s10-4.486 10-10v-52c0-5.514-4.486-10-10-10z" fill="#93a3a3"/><path d="m150 160c-3.3 0-6-2.7-6-6v-52c0-3.3 2.7-6 6-6 3.3 0 6 2.7 6 6v52c0 3.3-2.7 6-6 6z" fill="#edefef"/></svg>