<svg height="245.33333" viewBox="0 0 245.33333 245.33333" width="245.33333" xmlns="http://www.w3.org/2000/svg" xmlns:xlink="http://www.w3.org/1999/xlink"><clipPath id="a"><path d="m0 256h256v-256h-256z"/></clipPath><g clip-path="url(#a)" transform="matrix(1.3333333 0 0 -1.3333333 -47.999865 293.33333)"><path d="m0 0s38.228 2.301 77.407 2.301c38.862 0 78.596-2.301 78.596-2.301 6.425 0 11.659-5.237 11.659-11.664 0 0 2.3-39.434 2.3-78.63 0-38.8-2.3-77.44-2.3-77.44 0-6.427-5.234-11.664-11.659-11.664 0 0-39.813-2.301-78.596-2.301-39.179 0-77.486 2.301-77.486 2.301-6.424 0-11.659 5.237-11.659 11.664 0 0-2.3 39.275-2.3 78.392 0 38.879 2.3 77.678 2.3 77.678.079 6.427 5.314 11.664 11.738 11.664" fill="#7f8b8c" fill-rule="evenodd" transform="translate(50.0379 217.699)"/><path d="m0 0-4.528-.603c-.198-.026-.364-.045-.51-.062-.368-.042-.75-.085-1.189-.186l-17.21-3.969c-18.234-4.206-37.088-8.556-55.64-12.787-3.512-.801-5.316-3.109-5.361-6.86-.164-13.685-.365-27.602-.559-41.06-.107-7.453-.215-14.906-.317-22.358-.026-1.876-.029-3.743-.025-5.66-3.417 1.414-7.087 2.152-10.766 2.152-12.478 0-23.598-8.306-27.042-20.199-1.691-5.839-.789-11.901 2.475-16.631 3.271-4.741 8.634-7.743 14.715-8.236.888-.073 1.786-.109 2.669-.109 17.365 0 31.157 14.014 31.398 31.905.327 24.25.521 44.33.61 63.191 0 .024.001.046.001.068.004.001.009.002.013.003 11.973 2.589 24.122 5.298 35.872 7.917 4.69 1.046 9.38 2.091 14.07 3.132 2.541.564 5.085 1.114 7.56 1.648v-48.431c-3.266 1.164-6.681 1.753-10.185 1.753-12.533 0-23.707-7.387-28.468-18.82-2.233-5.363-1.921-11.305.854-16.303 2.637-4.746 7.212-7.97 12.552-8.844 2.373-.389 4.781-.585 7.156-.585 2.777 0 5.445.269 7.932.8 15.643 3.343 24.092 13.627 23.789 28.958-.286 14.489-.148 29.259-.015 43.542.06 6.398.122 13.014.145 19.526.018 5.072.013 10.044.008 15.309-.002 2.385-.004 4.792-.004 7.231z" fill="#93a3a3" transform="translate(187.9914 196.5681)"/><path d="m0 0c0-7.72.022-15.123-.004-22.526-.075-21.054-.545-42.116-.129-63.161.3-15.203-8.957-22.473-20.626-24.967-4.365-.933-9.181-.904-13.606-.18-9.046 1.481-13.892 11.177-10.359 19.662 5.718 13.733 21.993 20.152 35.599 14.04.907-.407 1.811-.824 3.361-1.531v59.482c-3.927-.851-8.181-1.755-12.426-2.697-16.638-3.693-33.264-7.443-49.921-11.045-2.413-.522-3.157-1.445-3.169-3.962-.099-21.052-.325-42.105-.609-63.156-.226-16.766-13.544-29.178-29.744-27.863-10.223.829-16.52 9.934-13.672 19.768 4.267 14.734 21.235 21.729 34.788 14.34.858-.468 1.712-.945 3.195-1.764 0 4.388-.046 8.289.008 12.188.29 21.142.622 42.283.876 63.425.021 1.716.411 2.589 2.25 3.008 24.297 5.541 48.575 11.162 72.859 16.758.341.078.695.096 1.329.181" fill="#edefef" transform="translate(183.9914 192)"/></g></svg>