<svg enable-background="new 0 0 256 256" viewBox="0 0 256 256" xmlns="http://www.w3.org/2000/svg"><path clip-rule="evenodd" d="m50.038 38.301s38.228-2.301 77.407-2.301c38.862 0 78.597 2.301 78.597 2.301 6.424 0 11.659 5.237 11.659 11.664 0 0 2.3 39.434 2.3 78.63 0 38.799-2.3 77.44-2.3 77.44 0 6.427-5.234 11.664-11.659 11.664 0 0-39.814 2.301-78.597 2.301-39.179 0-77.486-2.301-77.486-2.301-6.424 0-11.659-5.237-11.659-11.664 0 0-2.3-39.276-2.3-78.392 0-38.879 2.3-77.678 2.3-77.678.079-6.427 5.314-11.664 11.738-11.664z" fill="#7f8b8c" fill-rule="evenodd"/><path d="m140.571 72h-50.285c-3.473 0-6.286 2.784-6.286 6.222v99.556c0 3.438 2.813 6.222 6.286 6.222h75.429c3.473 0 6.286-2.784 6.286-6.222v-74.667z" fill="#d1d6d2"/><path d="m137.138 80 26.862 26.401v69.599h-72v-96z" fill="#edefef"/><path d="m155.213 106h-12.813c-3.536 0-6.4-2.864-6.4-6.4v-12.8-12.8l32 32z" fill="#dadfe0"/><path d="m149.34 127.56c-2.98-1.988-33.984-26.676-34.72-27.056-.624-.32-1.332-.504-2.08-.504-2.484 0-4.488 1.996-4.524 4.472-.004.02-.016.036-.016.056v54.932c0 2.508 2.032 4.54 4.54 4.54.752 0 1.456-.184 2.084-.504.74-.38 31.748-25.08 34.728-27.064 1.656-1.104 2.648-2.768 2.648-4.432s-.996-3.332-2.66-4.44z" fill="#93a3a3"/></svg>