<svg enable-background="new 0 0 256 256" viewBox="0 0 256 256" xmlns="http://www.w3.org/2000/svg"><path d="m89.185 49.174 2.815 2.817-44 16.009s0-19.448 38.322-20c1.072-.015 2.105.415 2.863 1.174z" fill="#223140"/><path d="m166.815 49.174-2.815 2.817 44 16.009s0-19.448-38.322-20c-1.072-.015-2.105.415-2.863 1.174z" fill="#223140"/><path d="m212 72s-8-20-48-20c-28.825 0-34.8 0-35.889 0-.003 0-.033 0-.111 0-.029 0-.066 0-.111 0-1.089 0-7.064 0-35.889 0-40 0-48 20-48 20s-32 84-32 104 20 32 24 32 16-12 28-28 24-16 24-16h40 40s12 0 24 16 24 28 28 28 24-12 24-32-32-104-32-104z" fill="#2b3e51"/><g fill="#223140"><circle cx="111" cy="90.994" r="5"/><circle cx="145" cy="90.994" r="5"/><circle cx="172" cy="91.994" r="8"/><circle cx="188" cy="75.994" r="8"/></g><circle cx="158" cy="126.994" fill="#35495f" r="17"/><circle cx="158" cy="126.994" fill="#223140" r="14"/><circle cx="188" cy="107.994" fill="#223140" r="8"/><circle cx="204" cy="91.994" fill="#223140" r="8"/><circle cx="158" cy="126.994" fill="#35495f" r="12"/><circle cx="158" cy="126.994" fill="#2b3e51" r="8"/><circle cx="67" cy="90.994" fill="#35495f" r="17"/><circle cx="67" cy="90.994" fill="#223140" r="14"/><circle cx="67" cy="90.994" fill="#35495f" r="12"/><path d="m96 109.994c-11.046 0-20 8.954-20 20h40c0-11.045-8.954-20-20-20z" fill="#35495f"/><path d="m96 149.994c11.046 0 20-8.954 20-20h-40c0 11.046 8.954 20 20 20z" fill="#2b3e51"/><circle cx="67" cy="90.994" fill="#2b3e51" r="8"/><circle cx="128" cy="67.994" fill="#edefef" r="8"/><path d="m130 107.994h-4c-2.209 0-4-1.791-4-4 0-2.209 1.791-4 4-4h4c2.209 0 4 1.791 4 4 0 2.209-1.791 4-4 4z" fill="#223140"/><path d="m91 146.994c0 .552.448 1 1 1l2.06.515c1.274.318 2.607.318 3.881 0l2.06-.515c.552 0 1-.448 1-1v-12h-10.001z" fill="#35495f"/><path d="m79 124.994c-.552 0-1 .448-1 1l-.515 2.06c-.318 1.274-.318 2.607 0 3.881l.515 2.06c0 .552.448 1 1 1h12v-10h-12z" fill="#223140"/><path d="m114.515 128.054-.515-2.06c0-.552-.448-1-1-1h-12v10h12c.552 0 1-.448 1-1l.515-2.06c.318-1.273.318-2.606 0-3.88z" fill="#223140"/><path d="m101 112.994c0-.552-.448-1-1-1l-2.06-.515c-1.274-.318-2.607-.318-3.881 0l-2.059.515c-.552 0-1 .448-1 1v12h10z" fill="#6680a0"/><path d="m91 124.994h10v10h-10z" fill="#2b3e51"/><path d="m96 111.994c9.925 0 18 8.075 18 18s-8.075 18-18 18-18-8.075-18-18 8.075-18 18-18m0-2c-11.046 0-20 8.954-20 20s8.954 20 20 20 20-8.954 20-20c0-11.045-8.954-20-20-20z" fill="#223140"/></svg>