<svg xmlns="http://www.w3.org/2000/svg" viewBox="0 0 256 256"><path fill="#1b80bb" d="M128 12C63.929 12 12 63.934 12 128s51.929 116 116 116c64.051 0 116-51.934 116-116S192.051 12 128 12m0 132c-8.837 0-16-7.163-16-16s7.163-16 16-16 16 7.163 16 16-7.163 16-16 16"/><path fill="#3babe0" d="M128 16c-29.918 0-58.045 11.65-79.198 32.804C27.649 69.957 16 98.083 16 128s11.649 58.043 32.802 79.196C69.955 228.35 98.082 240 128 240c61.757 0 112-50.243 112-112S189.757 16 128 16m0 128c-8.837 0-16-7.163-16-16s7.163-16 16-16 16 7.163 16 16-7.163 16-16 16"/><path fill="#3394d1" d="M231.425 85.167c-10.976-26.498-32.037-48.817-60.566-60.634l-36.738 88.692a15.95 15.95 0 0 1 8.659 8.659zM24.522 170.869c11.448 27.638 32.975 49.164 60.616 60.613l36.738-88.692a15.95 15.95 0 0 1-8.659-8.659z"/><path fill="#1b80bb" d="M128.003 82C102.639 82 82 102.651 82 128s20.639 46 46.003 46C153.341 174 174 153.349 174 128s-20.659-46-45.997-46m-.001 59.776c-7.596 0-13.786-6.176-13.786-13.776 0-7.604 6.19-13.785 13.786-13.785 7.6 0 13.777 6.181 13.777 13.785 0 7.599-6.177 13.776-13.777 13.776"/><path fill="#1eae5b" d="M127.998 12C84.252 12 46.157 36.229 26.397 72h203.207c-19.757-35.771-57.847-60-101.606-60"/></svg>