<svg enable-background="new 0 0 256 256" viewBox="0 0 256 256" xmlns="http://www.w3.org/2000/svg"><path d="m128 12c-64.071 0-116 51.934-116 116s51.929 116 116 116c64.051 0 116-51.934 116-116s-51.949-116-116-116zm0 132c-8.837 0-16-7.163-16-16s7.163-16 16-16 16 7.163 16 16-7.163 16-16 16z" fill="#1b80bb"/><path d="m128 16c-29.918 0-58.045 11.65-79.198 32.804-21.153 21.153-32.802 49.279-32.802 79.196s11.649 58.043 32.802 79.196c21.153 21.154 49.28 32.804 79.198 32.804 61.757 0 112-50.243 112-112s-50.243-112-112-112zm0 128c-8.837 0-16-7.163-16-16s7.163-16 16-16 16 7.163 16 16-7.163 16-16 16z" fill="#3babe0"/><path d="m231.425 85.167c-10.976-26.498-32.037-48.817-60.566-60.634l-36.738 88.692c4.082 1.691 7.092 4.876 8.659 8.659z" fill="#3394d1"/><path d="m24.522 170.869c11.448 27.638 32.975 49.164 60.616 60.613l36.738-88.692c-4.082-1.691-7.092-4.876-8.659-8.659z" fill="#3394d1"/><path d="m128.003 82c-25.364 0-46.003 20.651-46.003 46s20.639 46 46.003 46c25.338 0 45.997-20.651 45.997-46s-20.659-46-45.997-46zm-.001 59.776c-7.596 0-13.786-6.176-13.786-13.776 0-7.604 6.19-13.785 13.786-13.785 7.6 0 13.777 6.181 13.777 13.785 0 7.599-6.177 13.776-13.777 13.776z" fill="#1b80bb"/><path d="m234.058 80.957c-18.05-40.624-58.749-68.957-106.056-68.957-47.322 0-88.016 28.335-106.06 68.961l3.734-1.31c4.568-1.602 46.243-15.651 102.328-15.651 56.076 0 97.756 14.048 102.324 15.65z" fill="#2b3e51"/><path d="m128.002 12c-45.322 0-84.563 25.991-103.651 63.876 4.204-1.474 46.723-15.876 103.651-15.876 56.91 0 99.42 14.392 103.647 15.875-19.092-37.885-58.339-63.875-103.647-63.875z" fill="#1a1a1a"/><path d="m128.002 12c45.308 0 84.555 25.99 103.647 63.875-4.227-1.483-46.737-15.875-103.647-15.875-56.928 0-99.447 14.402-103.651 15.876 19.088-37.885 58.329-63.876 103.651-63.876" fill="#223140"/></svg>