<svg enable-background="new 0 0 256 256" viewBox="0 0 256 256" xmlns="http://www.w3.org/2000/svg"><path d="m16 108h220v16h-220z" fill="#35495f"/><path d="m12 120h228v88h-228z" fill="#2b3e51"/><path d="m12 48h228v64h-228z" fill="#2b3e51"/><path d="m35 136h-10c-.552 0-1-.448-1-1v-2c0-.552.448-1 1-1h10c.552 0 1 .448 1 1v2c0 .552-.448 1-1 1z" fill="#223140"/><path d="m51 136h-10c-.552 0-1-.448-1-1v-2c0-.552.448-1 1-1h10c.552 0 1 .448 1 1v2c0 .552-.448 1-1 1z" fill="#223140"/><path d="m67 136h-10c-.552 0-1-.448-1-1v-2c0-.552.448-1 1-1h10c.552 0 1 .448 1 1v2c0 .552-.448 1-1 1z" fill="#223140"/><path d="m83 136h-10c-.552 0-1-.448-1-1v-2c0-.552.448-1 1-1h10c.552 0 1 .448 1 1v2c0 .552-.448 1-1 1z" fill="#223140"/><path d="m99 136h-10c-.552 0-1-.448-1-1v-2c0-.552.448-1 1-1h10c.552 0 1 .448 1 1v2c0 .552-.448 1-1 1z" fill="#223140"/><path d="m115 136h-10c-.552 0-1-.448-1-1v-2c0-.552.448-1 1-1h10c.552 0 1 .448 1 1v2c0 .552-.448 1-1 1z" fill="#223140"/><path d="m131 136h-10c-.552 0-1-.448-1-1v-2c0-.552.448-1 1-1h10c.552 0 1 .448 1 1v2c0 .552-.448 1-1 1z" fill="#223140"/><path d="m155 136h-10c-.552 0-1-.448-1-1v-2c0-.552.448-1 1-1h10c.552 0 1 .448 1 1v2c0 .552-.448 1-1 1z" fill="#223140"/><path d="m171 136h-10c-.552 0-1-.448-1-1v-2c0-.552.448-1 1-1h10c.552 0 1 .448 1 1v2c0 .552-.448 1-1 1z" fill="#eec41b"/><circle cx="178" cy="134" fill="#e94b36" r="2"/><g fill="#223140"><path d="m24 140h8v8h-8z"/><path d="m36 140h8v8h-8z"/><path d="m48 140h8v8h-8z"/><path d="m60 140h8v8h-8z"/><path d="m72 140h8v8h-8z"/><path d="m84 140h8v8h-8z"/><path d="m96 140h8v8h-8z"/><path d="m108 140h8v8h-8z"/><path d="m120 140h8v8h-8z"/><path d="m132 140h8v8h-8z"/><path d="m144 140h8v8h-8z"/><path d="m156 140h8v8h-8z"/><path d="m40 152h8v8h-8z"/><path d="m24 152h12v8h-12z"/><path d="m24 164h16v8h-16z"/><path d="m24 176h24v8h-24z"/><path d="m52 152h8v8h-8z"/><path d="m64 152h8v8h-8z"/><path d="m76 152h8v8h-8z"/><path d="m88 152h8v8h-8z"/><path d="m100 152h8v8h-8z"/><path d="m112 152h8v8h-8z"/><path d="m124 152h8v8h-8z"/><path d="m136 152h8v8h-8z"/><path d="m148 152h8v8h-8z"/><path d="m160 152h8v8h-8z"/><path d="m52 176h8v8h-8z"/><path d="m52 188h96v8h-96z"/><path d="m64 176h8v8h-8z"/><path d="m76 176h8v8h-8z"/><path d="m88 176h8v8h-8z"/><path d="m100 176h8v8h-8z"/><path d="m112 176h8v8h-8z"/><path d="m124 176h8v8h-8z"/><path d="m136 176h8v8h-8z"/><path d="m148 176h8v8h-8z"/><path d="m160 176h8v8h-8z"/><path d="m44 164h8v8h-8z"/><path d="m56 164h8v8h-8z"/><path d="m68 164h8v8h-8z"/><path d="m80 164h8v8h-8z"/><path d="m92 164h8v8h-8z"/><path d="m104 164h8v8h-8z"/><path d="m116 164h8v8h-8z"/><path d="m128 164h8v8h-8z"/><path d="m140 164h8v8h-8z"/><path d="m152 164h8v8h-8z"/><path d="m152 188h8v8h-8z"/><path d="m40 188h8v8h-8z"/><path d="m28 188h8v8h-8z"/><path d="m164 164h8v8h-8z"/><path d="m176 160h8v12h-8z"/><path d="m168 140h16v8h-16z"/><path d="m172 176h12v8h-12z"/><path d="m172 152h12v8h-12z"/><path d="m192 132h8v8h-8z"/><path d="m204 132h8v8h-8z"/><path d="m216 132h8v8h-8z"/><path d="m228 132h8v8h-8z"/><path d="m192 144h8v8h-8z"/><path d="m204 144h8v8h-8z"/><path d="m216 144h8v8h-8z"/><path d="m228 144h8v8h-8z"/><path d="m192 156h8v8h-8z"/><path d="m204 156h8v8h-8z"/><path d="m216 156h8v8h-8z"/><path d="m228 156h8v8h-8z"/><path d="m192 168h8v8h-8z"/><path d="m204 168h8v8h-8z"/><path d="m216 168h8v8h-8z"/><path d="m228 168h8v8h-8z"/></g><path d="m28 88h200v20h-200z" fill="#35495f"/><path d="m28 108h200v20h-200z" fill="#223140"/><path d="m72 92h64v12h-64z" fill="#223140"/><path d="m20 48h4v8h-4z" fill="#223140"/><path d="m28 48h4v8h-4z" fill="#223140"/><path d="m36 48h4v8h-4z" fill="#223140"/><path d="m44 48h4v8h-4z" fill="#223140"/><path d="m52 48h4v8h-4z" fill="#223140"/><path d="m60 48h4v8h-4z" fill="#223140"/><path d="m68 48h4v8h-4z" fill="#223140"/><path d="m20 72h4v8h-4z" fill="#223140"/><path d="m28 72h4v8h-4z" fill="#223140"/><path d="m36 72h4v8h-4z" fill="#223140"/><path d="m44 72h4v8h-4z" fill="#223140"/><path d="m52 72h4v8h-4z" fill="#223140"/><path d="m60 72h4v8h-4z" fill="#223140"/><path d="m68 72h4v8h-4z" fill="#223140"/><path d="m20 60h4v8h-4z" fill="#223140"/><path d="m28 60h4v8h-4z" fill="#223140"/><path d="m36 60h4v8h-4z" fill="#223140"/><path d="m44 60h4v8h-4z" fill="#223140"/><path d="m52 60h4v8h-4z" fill="#223140"/><path d="m60 60h4v8h-4z" fill="#223140"/><path d="m68 60h4v8h-4z" fill="#223140"/><path d="m76 48h4v8h-4z" fill="#223140"/><path d="m84 48h4v8h-4z" fill="#223140"/><path d="m92 48h4v8h-4z" fill="#223140"/><path d="m100 48h4v8h-4z" fill="#223140"/><path d="m108 48h4v8h-4z" fill="#223140"/><path d="m116 48h4v8h-4z" fill="#223140"/><path d="m124 48h4v8h-4z" fill="#223140"/><path d="m132 48h4v8h-4z" fill="#223140"/><path d="m140 48h4v8h-4z" fill="#223140"/><path d="m148 48h4v8h-4z" fill="#223140"/><path d="m156 48h4v8h-4z" fill="#223140"/><path d="m164 48h4v8h-4z" fill="#223140"/><path d="m232 56h12v44h-12z" fill="#223140"/><path d="m200 200h-8v-20h8l4 8v4z" fill="#223140"/><path d="m236 200h-8l-4-8v-4l4-8h8z" fill="#223140"/><path d="m220 188h-12l-4-8h20z" fill="#223140"/><path d="m224 200h-20l4-8h12z" fill="#223140"/></svg>