<svg xmlns="http://www.w3.org/2000/svg" viewBox="0 0 256 256"><path fill="#93a3a3" d="M56 192s33.882-24 72-24 72 24 72 24v-32H56z"/><path fill="#bdc1c6" d="M180 56v-6.148c0-1.059.818-1.936 1.875-1.997C189.268 47.429 216 47.319 216 68zM76 56v-6.148a1.993 1.993 0 0 0-1.875-1.997C66.732 47.429 40 47.319 40 68z"/><path fill="#dadfe0" d="M224 79.102c-8-16-12-24-32-28-13.198-2.64-21.171 1.688-25.067 4.938-3.427 2.858-7.289 5.168-11.53 6.557C141.64 67.102 128 67.102 128 67.102s-13.64 0-27.403-4.506c-4.241-1.388-8.103-3.699-11.53-6.557C85.171 52.79 77.198 48.462 64 51.102c-20 4-24 12-32 28s-16 60-16 96c0 0 0 60 48 12 0 0 16-24 64-24s64 24 64 24c48 48 48-12 48-12 0-36-8-80-16-96"/><path fill="#d1d6d2" d="M102 84h52v12h-52z"/><circle cx="102" cy="90" r="6" fill="#ececed"/><circle cx="154" cy="90" r="6" fill="#ececed"/><path fill="#48b66a" d="M128 80c6.627 0 12 5.373 12 12s-5.373 12-12 12-12-5.373-12-12 5.373-12 12-12m0-2c-7.72 0-14 6.28-14 14s6.28 14 14 14 14-6.28 14-14-6.28-14-14-14"/><circle cx="128" cy="92" r="12" fill="#ececed"/><circle cx="90" cy="130" r="26" fill="#d1d6d2"/><circle cx="160" cy="132" r="24" fill="#d1d6d2"/><circle cx="90" cy="130" r="22" fill="#2b3e51"/><circle cx="178" cy="90" r="8" fill="#3394d1"/><circle cx="196" cy="72" r="8" fill="#eec41b"/><circle cx="196" cy="108" r="8" fill="#48b66a"/><circle cx="214" cy="90" r="8" fill="#e94b36"/><circle cx="160" cy="132" r="16" fill="#35495f"/><circle cx="160" cy="132" r="12" fill="#2b3e51"/><circle cx="56" cy="88" r="22" fill="#d1d6d2"/><circle cx="56" cy="88" r="16" fill="#35495f"/><circle cx="56" cy="88" r="12" fill="#2b3e51"/><path fill="#35495f" d="M104 124a8 8 0 0 1-8-8v-7.165a22 22 0 0 0-12 0V116a8 8 0 0 1-8 8h-7.165a22 22 0 0 0 0 12H76a8 8 0 0 1 8 8v7.165a22 22 0 0 0 12 0V144a8 8 0 0 1 8-8h7.165a22 22 0 0 0 0-12z"/></svg>