<svg enable-background="new 0 0 256 256" viewBox="0 0 256 256" xmlns="http://www.w3.org/2000/svg"><path d="m90 188h-4c-1.105 0-2-.895-2-2v-8c0-1.105.895-2 2-2h4c1.105 0 2 .895 2 2v8c0 1.105-.895 2-2 2z" fill="#d35627"/><path d="m170 188h-4c-1.105 0-2-.895-2-2v-8c0-1.105.895-2 2-2h4c1.105 0 2 .895 2 2v8c0 1.105-.895 2-2 2z" fill="#d35627"/><path d="m88 32h80v172h-80z" fill="#f19c21"/><path d="m156 204h-56v-128.136c0-2.134 1.73-3.864 3.864-3.864h48.271c2.134 0 3.864 1.73 3.864 3.864v128.136z" fill="#e77f25"/><path d="m148.157 132h-40.314c-2.122 0-3.843-1.721-3.843-3.843v-48.314c0-2.122 1.721-3.843 3.843-3.843h40.314c2.122 0 3.843 1.721 3.843 3.843v48.314c0 2.122-1.721 3.843-3.843 3.843z" fill="#d35627"/><path d="m88 12h80v20h-80z" fill="#223140"/><path d="m166 244h-76c-1.105 0-2-.895-2-2v-38h80v38c0 1.105-.895 2-2 2z" fill="#223140"/><path d="m150 240h-44c-3.314 0-6-2.686-6-6v-30h56v30c0 3.314-2.686 6-6 6z" fill="#2b3e51"/><path d="m128 212c-6.627 0-12 5.373-12 12s5.373 12 12 12 12-5.373 12-12-5.373-12-12-12z" fill="#223140"/><path d="m128 216c4.411 0 8 3.589 8 8s-3.589 8-8 8-8-3.589-8-8 3.589-8 8-8" fill="#35495f"/><path d="m108 80h40v48h-40z" fill="#6c7a88"/><g fill="#1b80bb"><path d="m148 36h-40c-4.411 0-8 4.101-8 9.143v13.714c0 5.041 3.589 9.143 8 9.143h40c4.411 0 8-4.101 8-9.143v-13.714c0-5.042-3.589-9.143-8-9.143z"/><path d="m104 156h12v8h-12z"/><path d="m122 156h12v8h-12z"/><path d="m140 156h12v8h-12z"/><path d="m104 144h12v8h-12z"/><path d="m122 144h12v8h-12z"/><path d="m140 144h12v8h-12z"/><path d="m104 168h12v8h-12z"/><path d="m122 168h12v8h-12z"/><path d="m140 168h12v8h-12z"/><path d="m104 180h12v8h-12z"/><path d="m122 180h12v8h-12z"/><path d="m140 180h12v8h-12z"/></g></svg>