<svg xmlns="http://www.w3.org/2000/svg" viewBox="0 0 256 256"><path fill="#d35627" d="M90 188h-4a2 2 0 0 1-2-2v-8a2 2 0 0 1 2-2h4a2 2 0 0 1 2 2v8a2 2 0 0 1-2 2m80 0h-4a2 2 0 0 1-2-2v-8a2 2 0 0 1 2-2h4a2 2 0 0 1 2 2v8a2 2 0 0 1-2 2"/><path fill="#f19c21" d="M88 32h80v172H88z"/><path fill="#e77f25" d="M156 204h-56V75.864A3.864 3.864 0 0 1 103.864 72h48.271a3.864 3.864 0 0 1 3.864 3.864V204z"/><path fill="#d35627" d="M148.157 132h-40.314a3.844 3.844 0 0 1-3.843-3.843V79.843A3.844 3.844 0 0 1 107.843 76h40.314A3.844 3.844 0 0 1 152 79.843v48.314a3.844 3.844 0 0 1-3.843 3.843"/><path fill="#223140" d="M88 12h80v20H88zm78 232H90a2 2 0 0 1-2-2v-38h80v38a2 2 0 0 1-2 2"/><path fill="#2b3e51" d="M150 240h-44a6 6 0 0 1-6-6v-30h56v30a6 6 0 0 1-6 6"/><path fill="#223140" d="M128 212c-6.627 0-12 5.373-12 12s5.373 12 12 12 12-5.373 12-12-5.373-12-12-12"/><path fill="#35495f" d="M128 216c4.411 0 8 3.589 8 8s-3.589 8-8 8-8-3.589-8-8 3.589-8 8-8"/><path fill="#6c7a88" d="M108 80h40v48h-40z"/><path fill="#1b80bb" d="M148 36h-40c-4.411 0-8 4.101-8 9.143v13.714c0 5.041 3.589 9.143 8 9.143h40c4.411 0 8-4.101 8-9.143V45.143c0-5.042-3.589-9.143-8-9.143m-44 120h12v8h-12zm18 0h12v8h-12zm18 0h12v8h-12zm-36-12h12v8h-12zm18 0h12v8h-12zm18 0h12v8h-12zm-36 24h12v8h-12zm18 0h12v8h-12zm18 0h12v8h-12zm-36 12h12v8h-12zm18 0h12v8h-12zm18 0h12v8h-12z"/></svg>