<svg height="309.33331" viewBox="0 0 160.00065 309.33331" width="160.00066" xmlns="http://www.w3.org/2000/svg" xmlns:xlink="http://www.w3.org/1999/xlink"><clipPath id="a"><path d="m0 256h256v-256h-256z"/></clipPath><g transform="matrix(1.3333333 0 0 -1.3333333 -90.666131 325.33333)"><path d="m160 112h-64v72h64z" fill="#6c7a88"/><g clip-path="url(#a)"><path d="m0 0h-6.343c-1.562 0-2.829 1.266-2.829 2.828v10.344c0 1.562 1.267 2.828 2.829 2.828h6.343c1.562 0 2.828-1.266 2.828-2.828v-10.344c0-1.562-1.266-2.828-2.828-2.828" fill="#d35627" transform="translate(77.1716 32)"/><path d="m0 0h-5.918c-1.525 0-2.762 1.237-2.762 2.762v10.476c0 1.525 1.237 2.762 2.762 2.762h5.918c1.525 0 2.762-1.237 2.762-2.762v-10.476c0-1.525-1.237-2.762-2.762-2.762" fill="#d35627" transform="translate(185.2381 32)"/><path d="m156 116h-56v64h56zm-84-104h112v232h-112z" fill="#e77f25"/><path d="m156 116h-56v64h56zm3.032 72h-62.064c-2.743 0-4.968-2.307-4.968-5.153v-170.847h72v170.847c0 2.846-2.225 5.153-4.968 5.153" fill="#f19c21"/><g fill="#0000b8"><path d="m0 0h-51.429c-5.671 0-10.285-5.64-10.285-12.571v-18.858c0-6.931 4.614-12.571 10.285-12.571h51.429c5.672 0 10.286 5.64 10.286 12.571v18.858c0 6.931-4.614 12.571-10.286 12.571" transform="translate(153.7143 240)"/><path d="m112 84h-16v12h16z"/><path d="m136 84h-16v12h16z"/><path d="m160 84h-16v12h16z"/><path d="m112 68h-16v12h16z"/><path d="m136 68h-16v12h16z"/><path d="m160 68h-16v12h16z"/><path d="m112 52h-16v12h16z"/><path d="m136 52h-16v12h16z"/><path d="m160 52h-16v12h16z"/><path d="m112 36h-16v12h16z"/><path d="m136 36h-16v12h16z"/><path d="m160 36h-16v12h16z"/></g></g></g></svg>