<svg height="192" viewBox="0 0 309.33331 192" width="309.33331" xmlns="http://www.w3.org/2000/svg"><g transform="matrix(1.3333333 0 0 -1.3333333 -16 266.66666)"><path d="m156 56h-56v28h56z" fill="#191919"/><path d="m168 56h-80v4h80z" fill="#262626"/><path d="m244 72h-232v128h232z" fill="#262626"/><path d="m240 76h-224v120h224z" fill="#191919"/><path d="m236 80h-216v112h216z" fill="#3394d1"/><path d="m0 0h112z" fill="#f19c21" transform="translate(124.0002 144)"/><path d="m0 0h8z" fill="#03844b" transform="translate(44.0001 144)"/><path d="m0 0h8z" fill="#00b800" transform="translate(75.9996 144)"/><path d="m0 0h8z" fill="#03844b" transform="translate(83.9997 144)"/><path d="m0 0h8z" fill="#03844b" transform="translate(171.9999 144)"/><path d="m0 0h8z" fill="#03844b" transform="translate(188.0001 144)"/><path d="m0 0h7.999z" fill="#03844b" transform="translate(68.0004 144)"/><path d="m0 0h8z" fill="#03844b" transform="translate(155.9997 144)"/><path d="m0 0h8z" fill="#00b800" transform="translate(124.0002 144)"/><path d="m0 0h8z" fill="#03844b" transform="translate(116.0001 144)"/><path d="m0 0h8z" fill="#03844b" transform="translate(219.9996 144)"/><path d="m0 0h8z" fill="#03844b" transform="translate(132.0003 144)"/><path d="m0 0 50-26 50 26-50 26z" fill="#87c777" transform="translate(78 166)"/><path d="m0 0 50-26v60l-50 26z" fill="#eec41b" transform="translate(78 106)"/><path d="m0 0v-60l-50-26v60z" fill="#f19c21" transform="translate(178 166)"/><path d="m0 0v13l-50 26v-12l4-2v4l4-2v-4l8-4v8l4-2v-8l4-2v4l4-2v-12l4-2v8l4-2v4l4-2v-4l4-2v4l4-2v-6z" fill="#1eae5b" transform="translate(128 127)"/><path d="m0 0v-13l2 1v4l4 2v-2l4 2v2l4 2v-6l4 2v8l4 2v-6l4 2v4l4 2v-6l4 2v8l4 2v-4l8 4v4l4 2v8z" fill="#03844b" transform="translate(128 140)"/><g fill="#f19c21"><path d="m86 138h-4v4h4z"/><path d="m86 130h-4v4h4z"/><path d="m86 118h-4v4h4z"/><path d="m86 110h-4v4h4z"/><path d="m94 142h-4v4h4z"/><path d="m94 134h-4v4h4z"/><path d="m94 122h-4v4h4z"/><path d="m94 114h-4v4h4z"/><path d="m102 130h-4v4h4z"/><path d="m102 138h-4v4h4z"/><path d="m102 122h-4v4h4z"/><path d="m102 110h-4v4h4z"/><path d="m102 102h-4v4h4z"/><path d="m110 122h-4v4h4z"/><path d="m110 114h-4v4h4z"/><path d="m110 106h-4v4h4z"/><path d="m110 98h-4v4h4z"/><path d="m118 130h-4v4h4z"/><path d="m118 122h-4v4h4z"/><path d="m118 110h-4v4h4z"/><path d="m118 98h-4v4h4z"/><path d="m126 122h-4v4h4z"/><path d="m126 106h-4v4h4z"/><path d="m126 92h-4v4h4z"/></g><path d="m82 144h-4v4h4z" fill="#e9d655"/><path d="m90 142h-4v4h4z" fill="#e9d655"/><path d="m82 134h-4v4h4z" fill="#e9d655"/><path d="m90 130h-4v4h4z" fill="#e9d655"/><path d="m98 134h-4v4h4z" fill="#e9d655"/><path d="m106 134h-4v4h4z" fill="#e9d655"/><path d="m82 126h-4v4h4z" fill="#e9d655"/><path d="m98 118h-4v4h4z" fill="#e9d655"/><path d="m98 110h-4v4h4z" fill="#e9d655"/><path d="m106 114h-4v4h4z" fill="#e9d655"/><path d="m122 110h-4v4h4z" fill="#e9d655"/><path d="m122 98h-4v4h4z" fill="#e9d655"/><path d="m90 122h-4v4h4z" fill="#e9d655"/><path d="m98 126h-4v4h4z" fill="#e9d655"/><path d="m106 126h-4v4h4z" fill="#e9d655"/><path d="m114 130h-4v4h4z" fill="#e9d655"/><path d="m114 118h-4v4h4z" fill="#e9d655"/><path d="m122 118h-4v4h4z" fill="#e9d655"/><path d="m114 110h-4v4h4z" fill="#e9d655"/><path d="m114 102h-4v4h4z" fill="#e9d655"/><path d="m114 94h-4v4h4z" fill="#e9d655"/><path d="m82 114h-4v4h4z" fill="#e9d655"/><path d="m90 106h-4v4h4z" fill="#e9d655"/><path d="m170 138h4v4h-4z" fill="#e77f25"/><path d="m170 130h4v4h-4z" fill="#e77f25"/><path d="m170 118h4v4h-4z" fill="#e77f25"/><path d="m170 110h4v4h-4z" fill="#e77f25"/><path d="m162 138h4v4h-4z" fill="#e77f25"/><path d="m162 130h4v4h-4z" fill="#e77f25"/><path d="m162 122h4v4h-4z" fill="#e77f25"/><path d="m162 114h4v4h-4z" fill="#e77f25"/><path d="m154 130h4v4h-4z" fill="#e77f25"/><path d="m154 122h4v4h-4z" fill="#e77f25"/><path d="m154 110h4v4h-4z" fill="#e77f25"/><path d="m154 102h4v4h-4z" fill="#e77f25"/><path d="m146 122h4v4h-4z" fill="#e77f25"/><path d="m146 114h4v4h-4z" fill="#e77f25"/><path d="m146 106h4v4h-4z" fill="#e77f25"/><path d="m146 98h4v4h-4z" fill="#e77f25"/><path d="m138 122h4v4h-4z" fill="#e77f25"/><path d="m130 122h4v4h-4z" fill="#e77f25"/><path d="m138 110h4v4h-4z" fill="#e77f25"/><path d="m138 98h4v4h-4z" fill="#e77f25"/><path d="m130 106h4v4h-4z" fill="#e77f25"/><path d="m130 114h4v4h-4z" fill="#e77f25"/><path d="m130 92h4v4h-4z" fill="#e77f25"/><path d="m174 144h4v4h-4z" fill="#e9d655"/><path d="m166 142h4v4h-4z" fill="#e9d655"/><path d="m174 134h4v4h-4z" fill="#e9d655"/><path d="m166 130h4v4h-4z" fill="#e9d655"/><path d="m158 134h4v4h-4z" fill="#e9d655"/><path d="m150 134h4v4h-4z" fill="#e9d655"/><path d="m174 126h4v4h-4z" fill="#e9d655"/><path d="m158 118h4v4h-4z" fill="#e9d655"/><path d="m158 110h4v4h-4z" fill="#e9d655"/><path d="m150 114h4v4h-4z" fill="#e9d655"/><path d="m134 110h4v4h-4z" fill="#e9d655"/><path d="m134 98h4v4h-4z" fill="#e9d655"/><path d="m166 122h4v4h-4z" fill="#e9d655"/><path d="m158 126h4v4h-4z" fill="#e9d655"/><path d="m150 126h4v4h-4z" fill="#e9d655"/><path d="m142 126h4v4h-4z" fill="#e9d655"/><path d="m142 118h4v4h-4z" fill="#e9d655"/><path d="m134 118h4v4h-4z" fill="#e9d655"/><path d="m142 110h4v4h-4z" fill="#e9d655"/><path d="m142 102h4v4h-4z" fill="#e9d655"/><path d="m142 94h4v4h-4z" fill="#e9d655"/><path d="m174 114h4v4h-4z" fill="#e9d655"/><path d="m166 106h4v4h-4z" fill="#e9d655"/><path d="m130 144h-4v4h4z" fill="#03844b"/><path d="m102 168h-4v4h4z" fill="#03844b"/><path d="m102 160h-4v4h4z" fill="#03844b"/><path d="m110 172h-4v4h4z" fill="#1eae5b"/><path d="m110 164h-4v4h4z" fill="#1eae5b"/><path d="m110 156h-4v4h4z" fill="#1eae5b"/><path d="m130 184h-4v4h4z" fill="#03844b"/><path d="m118 180h-4v4h4z" fill="#1eae5b"/><path d="m118 168h-4v4h4z" fill="#1eae5b"/><path d="m118 156h-4v4h4z" fill="#1eae5b"/><path d="m126 180h-4v4h4z" fill="#1eae5b"/><path d="m126 164h-4v4h4z" fill="#1eae5b"/><path d="m126 150h-4v4h4z" fill="#1eae5b"/><path d="m98 164h-4v4h4z" fill="#1eae5b"/><path d="m106 172h-4v4h4z" fill="#03844b"/><path d="m122 168h-4v4h4z" fill="#03844b"/><path d="m122 156h-4v4h4z" fill="#03844b"/><path d="m130 158h-4v4h4z" fill="#03844b"/><path d="m114 176h-4v4h4z" fill="#03844b"/><path d="m122 176h-4v4h4z" fill="#03844b"/><path d="m114 168h-4v4h4z" fill="#03844b"/><path d="m114 160h-4v4h4z" fill="#03844b"/><path d="m114 152h-4v4h4z" fill="#03844b"/><path d="m90 164h-4v4h4z" fill="#03844b"/><path d="m154 168h4v4h-4z" fill="#03844b"/><path d="m154 160h4v4h-4z" fill="#03844b"/><path d="m146 172h4v4h-4z" fill="#1eae5b"/><path d="m146 164h4v4h-4z" fill="#1eae5b"/><path d="m146 156h4v4h-4z" fill="#1eae5b"/><path d="m138 180h4v4h-4z" fill="#1eae5b"/><path d="m138 168h4v4h-4z" fill="#1eae5b"/><path d="m138 156h4v4h-4z" fill="#1eae5b"/><path d="m130 180h4v4h-4z" fill="#03844b"/><path d="m130 164h4v4h-4z" fill="#1eae5b"/><path d="m130 180h4v4h-4z" fill="#1eae5b"/><path d="m126 172h4v4h-4z" fill="#03844b"/><path d="m130 150h4v4h-4z" fill="#1eae5b"/><path d="m158 164h4v4h-4z" fill="#1eae5b"/><path d="m150 172h4v4h-4z" fill="#03844b"/><path d="m134 168h4v4h-4z" fill="#03844b"/><path d="m134 156h4v4h-4z" fill="#03844b"/><path d="m142 176h4v4h-4z" fill="#03844b"/><path d="m134 176h4v4h-4z" fill="#03844b"/><path d="m142 168h4v4h-4z" fill="#03844b"/><path d="m142 160h4v4h-4z" fill="#03844b"/><path d="m142 152h4v4h-4z" fill="#03844b"/><path d="m166 164h4v4h-4z" fill="#03844b"/></g></svg>