<svg height="298.66666" viewBox="0 0 266.66665 298.66665" width="266.66666" xmlns="http://www.w3.org/2000/svg"><g transform="matrix(1.3333333 0 0 -1.3333333 -37.333332 319.99999)"><path d="m0 0 100-52 100 52-100 52z" fill="#87c777" transform="translate(28 188)"/><path d="m0 0 100-52v120l-100 52z" fill="#eec41b" transform="translate(28 68)"/><path d="m0 0v-120l-100-52v120z" fill="#f19c21" transform="translate(228 188)"/><path d="m0 0v26l-100 52v-24l8-4v8l8-4v-8l16-8v16l8-4v-16l8-4v8l8-4v-24l8-4v16l8-4v8l8-4v-8l8-4v8l8-4v-12z" fill="#1eae5b" transform="translate(128 110)"/><path d="m0 0v-26l4 2v8l8 4v-4l8 4v4l8 4v-12l8 4v16l8 4v-12l8 4v8l8 4v-12l8 4v16l8 4v-8l16 8v8l8 4v16z" fill="#03844b" transform="translate(128 136)"/><g fill="#f19c21"><path d="m44 132h-8v8h8z"/><path d="m44 116h-8v8h8z"/><path d="m44 92h-8v8h8z"/><path d="m44 76h-8v8h8z"/><path d="m60 140h-8v8h8z"/><path d="m60 124h-8v8h8z"/><path d="m60 100h-8v8h8z"/><path d="m60 84h-8v8h8z"/><path d="m76 116h-8v8h8z"/><path d="m76 132h-8v8h8z"/><path d="m76 100h-8v8h8z"/><path d="m76 76h-8v8h8z"/><path d="m76 60h-8v8h8z"/><path d="m92 100h-8v8h8z"/><path d="m92 84h-8v8h8z"/><path d="m92 68h-8v8h8z"/><path d="m92 52h-8v8h8z"/><path d="m108 116h-8v8h8z"/><path d="m108 100h-8v8h8z"/><path d="m108 76h-8v8h8z"/><path d="m108 52h-8v8h8z"/><path d="m124 100h-8v8h8z"/><path d="m124 68h-8v8h8z"/><path d="m124 40h-8v8h8z"/></g><path d="m36 144h-8v8h8z" fill="#e9d655"/><path d="m52 140h-8v8h8z" fill="#e9d655"/><path d="m36 124h-8v8h8z" fill="#e9d655"/><path d="m52 116h-8v8h8z" fill="#e9d655"/><path d="m68 124h-8v8h8z" fill="#e9d655"/><path d="m84 124h-8v8h8z" fill="#e9d655"/><path d="m36 108h-8v8h8z" fill="#e9d655"/><path d="m68 92h-8v8h8z" fill="#e9d655"/><path d="m68 76h-8v8h8z" fill="#e9d655"/><path d="m84 84h-8v8h8z" fill="#e9d655"/><path d="m116 76h-8v8h8z" fill="#e9d655"/><path d="m116 52h-8v8h8z" fill="#e9d655"/><path d="m52 100h-8v8h8z" fill="#e9d655"/><path d="m68 108h-8v8h8z" fill="#e9d655"/><path d="m84 108h-8v8h8z" fill="#e9d655"/><path d="m100 116h-8v8h8z" fill="#e9d655"/><path d="m100 92h-8v8h8z" fill="#e9d655"/><path d="m116 92h-8v8h8z" fill="#e9d655"/><path d="m100 76h-8v8h8z" fill="#e9d655"/><path d="m100 60h-8v8h8z" fill="#e9d655"/><path d="m100 44h-8v8h8z" fill="#e9d655"/><path d="m36 84h-8v8h8z" fill="#e9d655"/><path d="m52 68h-8v8h8z" fill="#e9d655"/><path d="m212 132h8v8h-8z" fill="#e77f25"/><path d="m212 116h8v8h-8z" fill="#e77f25"/><path d="m212 92h8v8h-8z" fill="#e77f25"/><path d="m212 76h8v8h-8z" fill="#e77f25"/><path d="m196 132h8v8h-8z" fill="#e77f25"/><path d="m196 116h8v8h-8z" fill="#e77f25"/><path d="m196 100h8v8h-8z" fill="#e77f25"/><path d="m196 84h8v8h-8z" fill="#e77f25"/><path d="m180 116h8v8h-8z" fill="#e77f25"/><path d="m180 100h8v8h-8z" fill="#e77f25"/><path d="m180 76h8v8h-8z" fill="#e77f25"/><path d="m180 60h8v8h-8z" fill="#e77f25"/><path d="m164 100h8v8h-8z" fill="#e77f25"/><path d="m164 84h8v8h-8z" fill="#e77f25"/><path d="m164 68h8v8h-8z" fill="#e77f25"/><path d="m164 52h8v8h-8z" fill="#e77f25"/><path d="m148 100h8v8h-8z" fill="#e77f25"/><path d="m132 100h8v8h-8z" fill="#e77f25"/><path d="m148 76h8v8h-8z" fill="#e77f25"/><path d="m148 52h8v8h-8z" fill="#e77f25"/><path d="m132 68h8v8h-8z" fill="#e77f25"/><path d="m132 84h8v8h-8z" fill="#e77f25"/><path d="m132 40h8v8h-8z" fill="#e77f25"/><path d="m220 144h8v8h-8z" fill="#e9d655"/><path d="m204 140h8v8h-8z" fill="#e9d655"/><path d="m220 124h8v8h-8z" fill="#e9d655"/><path d="m204 116h8v8h-8z" fill="#e9d655"/><path d="m188 124h8v8h-8z" fill="#e9d655"/><path d="m172 124h8v8h-8z" fill="#e9d655"/><path d="m220 108h8v8h-8z" fill="#e9d655"/><path d="m188 92h8v8h-8z" fill="#e9d655"/><path d="m188 76h8v8h-8z" fill="#e9d655"/><path d="m172 84h8v8h-8z" fill="#e9d655"/><path d="m140 76h8v8h-8z" fill="#e9d655"/><path d="m140 52h8v8h-8z" fill="#e9d655"/><path d="m204 100h8v8h-8z" fill="#e9d655"/><path d="m188 108h8v8h-8z" fill="#e9d655"/><path d="m172 108h8v8h-8z" fill="#e9d655"/><path d="m156 108h8v8h-8z" fill="#e9d655"/><path d="m156 92h8v8h-8z" fill="#e9d655"/><path d="m140 92h8v8h-8z" fill="#e9d655"/><path d="m156 76h8v8h-8z" fill="#e9d655"/><path d="m156 60h8v8h-8z" fill="#e9d655"/><path d="m156 44h8v8h-8z" fill="#e9d655"/><path d="m220 84h8v8h-8z" fill="#e9d655"/><path d="m204 68h8v8h-8z" fill="#e9d655"/><path d="m132 144h-8v8h8z" fill="#03844b"/><path d="m76 192h-8v8h8z" fill="#03844b"/><path d="m76 176h-8v8h8z" fill="#03844b"/><path d="m92 200h-8v8h8z" fill="#1eae5b"/><path d="m92 184h-8v8h8z" fill="#1eae5b"/><path d="m92 168h-8v8h8z" fill="#1eae5b"/><path d="m132 224h-8v8h8z" fill="#03844b"/><path d="m108 216h-8v8h8z" fill="#1eae5b"/><path d="m108 192h-8v8h8z" fill="#1eae5b"/><path d="m108 168h-8v8h8z" fill="#1eae5b"/><path d="m124 216h-8v8h8z" fill="#1eae5b"/><path d="m124 184h-8v8h8z" fill="#1eae5b"/><path d="m124 156h-8v8h8z" fill="#1eae5b"/><path d="m68 184h-8v8h8z" fill="#1eae5b"/><path d="m84 200h-8v8h8z" fill="#03844b"/><path d="m116 192h-8v8h8z" fill="#03844b"/><path d="m116 168h-8v8h8z" fill="#03844b"/><path d="m132 172h-8v8h8z" fill="#03844b"/><path d="m100 208h-8v8h8z" fill="#03844b"/><path d="m116 208h-8v8h8z" fill="#03844b"/><path d="m100 192h-8v8h8z" fill="#03844b"/><path d="m100 176h-8v8h8z" fill="#03844b"/><path d="m100 160h-8v8h8z" fill="#03844b"/><path d="m52 184h-8v8h8z" fill="#03844b"/><path d="m180 192h8v8h-8z" fill="#03844b"/><path d="m180 176h8v8h-8z" fill="#03844b"/><path d="m164 200h8v8h-8z" fill="#1eae5b"/><path d="m164 184h8v8h-8z" fill="#1eae5b"/><path d="m164 168h8v8h-8z" fill="#1eae5b"/><path d="m148 216h8v8h-8z" fill="#1eae5b"/><path d="m148 192h8v8h-8z" fill="#1eae5b"/><path d="m148 168h8v8h-8z" fill="#1eae5b"/><path d="m132 216h8v8h-8z" fill="#03844b"/><path d="m132 184h8v8h-8z" fill="#1eae5b"/><path d="m132 216h8v8h-8z" fill="#1eae5b"/><path d="m124 200h8v8h-8z" fill="#03844b"/><path d="m132 156h8v8h-8z" fill="#1eae5b"/><path d="m188 184h8v8h-8z" fill="#1eae5b"/><path d="m172 200h8v8h-8z" fill="#03844b"/><path d="m140 192h8v8h-8z" fill="#03844b"/><path d="m140 168h8v8h-8z" fill="#03844b"/><path d="m156 208h8v8h-8z" fill="#03844b"/><path d="m140 208h8v8h-8z" fill="#03844b"/><path d="m156 192h8v8h-8z" fill="#03844b"/><path d="m156 176h8v8h-8z" fill="#03844b"/><path d="m156 160h8v8h-8z" fill="#03844b"/><path d="m204 184h8v8h-8z" fill="#03844b"/></g></svg>