<svg xmlns="http://www.w3.org/2000/svg" viewBox="0 0 256 256"><path fill="#223140" fill-rule="evenodd" d="M29.7 14.901S77.9 12 127.3 12c49 0 99.1 2.901 99.1 2.901 8.1 0 14.7 6.603 14.7 14.706 0 0 2.9 49.721 2.9 99.143 0 48.921-2.9 97.642-2.9 97.642 0 8.104-6.6 14.706-14.7 14.706 0 0-50.2 2.901-99.1 2.901-49.4 0-97.7-2.901-97.7-2.901-8.1 0-14.7-6.603-14.7-14.706 0 0-2.9-49.521-2.9-98.843 0-49.021 2.9-97.942 2.9-97.942.1-8.103 6.7-14.706 14.8-14.706" clip-rule="evenodd"/><path fill="#35495f" d="M76 60v136h104V60zm12.16 130.038c0 1.087-.91 1.962-2.04 1.962h-4.08c-1.13 0-2.04-.875-2.04-1.962v-3.923c0-1.087.91-1.962 2.04-1.962h4.08c1.13 0 2.04.875 2.04 1.962zm0-12c0 1.087-.91 1.962-2.04 1.962h-4.08c-1.13 0-2.04-.875-2.04-1.962v-3.923c0-1.087.91-1.962 2.04-1.962h4.08c1.13 0 2.04.875 2.04 1.962zm0-12c0 1.087-.91 1.962-2.04 1.962h-4.08c-1.13 0-2.04-.875-2.04-1.962v-3.923c0-1.087.91-1.962 2.04-1.962h4.08c1.13 0 2.04.875 2.04 1.962zm0-12c0 1.087-.91 1.962-2.04 1.962h-4.08c-1.13 0-2.04-.875-2.04-1.962v-3.923c0-1.087.91-1.962 2.04-1.962h4.08c1.13 0 2.04.875 2.04 1.962zm0-12c0 1.087-.91 1.962-2.04 1.962h-4.08c-1.13 0-2.04-.875-2.04-1.962v-3.923c0-1.087.91-1.962 2.04-1.962h4.08c1.13 0 2.04.875 2.04 1.962zm0-12c0 1.087-.91 1.962-2.04 1.962h-4.08c-1.13 0-2.04-.875-2.04-1.962v-3.923c0-1.087.91-1.962 2.04-1.962h4.08c1.13 0 2.04.875 2.04 1.962zm0-12c0 1.087-.91 1.962-2.04 1.962h-4.08c-1.13 0-2.04-.875-2.04-1.962v-3.923c0-1.087.91-1.962 2.04-1.962h4.08c1.13 0 2.04.875 2.04 1.962zm0-12c0 1.087-.91 1.962-2.04 1.962h-4.08c-1.13 0-2.04-.875-2.04-1.962v-3.923c0-1.087.91-1.962 2.04-1.962h4.08c1.13 0 2.04.875 2.04 1.962zm0-12c0 1.087-.91 1.962-2.04 1.962h-4.08c-1.13 0-2.04-.875-2.04-1.962v-3.923c0-1.087.91-1.962 2.04-1.962h4.08c1.13 0 2.04.875 2.04 1.962zm0-12c0 1.087-.91 1.962-2.04 1.962h-4.08c-1.13 0-2.04-.875-2.04-1.962v-3.923c0-1.087.91-1.962 2.04-1.962h4.08c1.13 0 2.04.875 2.04 1.962zm0-12c0 1.087-.91 1.962-2.04 1.962h-4.08c-1.13 0-2.04-.875-2.04-1.962v-3.923c0-1.087.91-1.962 2.04-1.962h4.08c1.13 0 2.04.875 2.04 1.962zm87.84 120c0 1.087-.91 1.962-2.04 1.962h-4.08c-1.13 0-2.04-.875-2.04-1.962v-3.923c0-1.087.91-1.962 2.04-1.962h4.08c1.13 0 2.04.875 2.04 1.962zm0-12c0 1.087-.91 1.962-2.04 1.962h-4.08c-1.13 0-2.04-.875-2.04-1.962v-3.923c0-1.087.91-1.962 2.04-1.962h4.08c1.13 0 2.04.875 2.04 1.962zm0-12c0 1.087-.91 1.962-2.04 1.962h-4.08c-1.13 0-2.04-.875-2.04-1.962v-3.923c0-1.087.91-1.962 2.04-1.962h4.08c1.13 0 2.04.875 2.04 1.962zm0-12c0 1.087-.91 1.962-2.04 1.962h-4.08c-1.13 0-2.04-.875-2.04-1.962v-3.923c0-1.087.91-1.962 2.04-1.962h4.08c1.13 0 2.04.875 2.04 1.962zm0-12c0 1.087-.91 1.962-2.04 1.962h-4.08c-1.13 0-2.04-.875-2.04-1.962v-3.923c0-1.087.91-1.962 2.04-1.962h4.08c1.13 0 2.04.875 2.04 1.962zm0-12c0 1.087-.91 1.962-2.04 1.962h-4.08c-1.13 0-2.04-.875-2.04-1.962v-3.923c0-1.087.91-1.962 2.04-1.962h4.08c1.13 0 2.04.875 2.04 1.962zm0-12c0 1.087-.91 1.962-2.04 1.962h-4.08c-1.13 0-2.04-.875-2.04-1.962v-3.923c0-1.087.91-1.962 2.04-1.962h4.08c1.13 0 2.04.875 2.04 1.962zm0-12c0 1.087-.91 1.962-2.04 1.962h-4.08c-1.13 0-2.04-.875-2.04-1.962v-3.923c0-1.087.91-1.962 2.04-1.962h4.08c1.13 0 2.04.875 2.04 1.962zm0-12c0 1.087-.91 1.962-2.04 1.962h-4.08c-1.13 0-2.04-.875-2.04-1.962v-3.923c0-1.087.91-1.962 2.04-1.962h4.08c1.13 0 2.04.875 2.04 1.962zm0-12c0 1.087-.91 1.962-2.04 1.962h-4.08c-1.13 0-2.04-.875-2.04-1.962v-3.923c0-1.087.91-1.962 2.04-1.962h4.08c1.13 0 2.04.875 2.04 1.962zm0-12c0 1.087-.91 1.962-2.04 1.962h-4.08c-1.13 0-2.04-.875-2.04-1.962v-3.923c0-1.087.91-1.962 2.04-1.962h4.08c1.13 0 2.04.875 2.04 1.962z"/><path fill="#d1d6d2" d="M98.42 84h59.159c3.546 0 6.42 2.662 6.42 5.945v28.11c0 3.283-2.875 5.945-6.42 5.945H98.42c-3.546 0-6.42-2.662-6.42-5.945v-28.11C92 86.662 94.875 84 98.42 84m0 44h59.159c3.546 0 6.42 2.662 6.42 5.945v28.11c0 3.283-2.875 5.945-6.42 5.945H98.42c-3.546 0-6.42-2.662-6.42-5.945v-28.11c0-3.283 2.875-5.945 6.42-5.945M92 60v14.055C92 77.338 94.875 80 98.42 80h59.159c3.546 0 6.42-2.662 6.42-5.945V60zm72 136v-18.055c0-3.283-2.875-5.945-6.42-5.945H98.42c-3.546 0-6.42 2.662-6.42 5.945V196z"/></svg>