<svg height="309.33331" viewBox="0 0 309.33331 309.33331" width="309.33331" xmlns="http://www.w3.org/2000/svg" xmlns:xlink="http://www.w3.org/1999/xlink"><clipPath id="a"><path d="m0 256h256v-256h-256z"/></clipPath><g clip-path="url(#a)" transform="matrix(1.3333333 0 0 -1.3333333 -16 325.33306)"><path d="m0 0s48.2 2.901 97.6 2.901c49 0 99.1-2.901 99.1-2.901 8.1 0 14.7-6.603 14.7-14.706 0 0 2.9-49.722 2.9-99.143 0-48.921-2.9-97.642-2.9-97.642 0-8.104-6.6-14.707-14.7-14.707 0 0-50.2-2.901-99.1-2.901-49.4 0-97.7 2.901-97.7 2.901-8.1 0-14.7 6.603-14.7 14.707 0 0-2.9 49.521-2.9 98.842 0 49.022 2.9 97.943 2.9 97.943.1 8.103 6.7 14.706 14.8 14.706" fill="#223140" fill-rule="evenodd" transform="translate(29.7 241.0988)"/><path d="m0 0c0-1.087-.91-1.962-2.04-1.962h-4.08c-1.13 0-2.04.875-2.04 1.962v3.923c0 1.087.91 1.962 2.04 1.962h4.08c1.13 0 2.04-.875 2.04-1.962zm0-12c0-1.087-.91-1.962-2.04-1.962h-4.08c-1.13 0-2.04.875-2.04 1.962v3.923c0 1.087.91 1.962 2.04 1.962h4.08c1.13 0 2.04-.875 2.04-1.962zm0-12c0-1.087-.91-1.962-2.04-1.962h-4.08c-1.13 0-2.04.875-2.04 1.962v3.923c0 1.087.91 1.962 2.04 1.962h4.08c1.13 0 2.04-.875 2.04-1.962zm0-12c0-1.087-.91-1.962-2.04-1.962h-4.08c-1.13 0-2.04.875-2.04 1.962v3.923c0 1.087.91 1.962 2.04 1.962h4.08c1.13 0 2.04-.875 2.04-1.962zm0-12c0-1.087-.91-1.962-2.04-1.962h-4.08c-1.13 0-2.04.875-2.04 1.962v3.923c0 1.087.91 1.962 2.04 1.962h4.08c1.13 0 2.04-.875 2.04-1.962zm0-12c0-1.087-.91-1.962-2.04-1.962h-4.08c-1.13 0-2.04.875-2.04 1.962v3.923c0 1.087.91 1.962 2.04 1.962h4.08c1.13 0 2.04-.875 2.04-1.962zm0-12c0-1.087-.91-1.962-2.04-1.962h-4.08c-1.13 0-2.04.875-2.04 1.962v3.923c0 1.087.91 1.962 2.04 1.962h4.08c1.13 0 2.04-.875 2.04-1.962zm0-12c0-1.087-.91-1.962-2.04-1.962h-4.08c-1.13 0-2.04.875-2.04 1.962v3.923c0 1.087.91 1.962 2.04 1.962h4.08c1.13 0 2.04-.875 2.04-1.962zm0-12c0-1.087-.91-1.962-2.04-1.962h-4.08c-1.13 0-2.04.875-2.04 1.962v3.923c0 1.087.91 1.962 2.04 1.962h4.08c1.13 0 2.04-.875 2.04-1.962zm0-12c0-1.087-.91-1.962-2.04-1.962h-4.08c-1.13 0-2.04.875-2.04 1.962v3.923c0 1.087.91 1.962 2.04 1.962h4.08c1.13 0 2.04-.875 2.04-1.962zm0-12c0-1.087-.91-1.962-2.04-1.962h-4.08c-1.13 0-2.04.875-2.04 1.962v3.923c0 1.087.91 1.962 2.04 1.962h4.08c1.13 0 2.04-.875 2.04-1.962zm-87.84 120c0-1.087-.91-1.962-2.04-1.962h-4.08c-1.13 0-2.04.875-2.04 1.962v3.923c0 1.087.91 1.962 2.04 1.962h4.08c1.13 0 2.04-.875 2.04-1.962zm0-12c0-1.087-.91-1.962-2.04-1.962h-4.08c-1.13 0-2.04.875-2.04 1.962v3.923c0 1.087.91 1.962 2.04 1.962h4.08c1.13 0 2.04-.875 2.04-1.962zm0-12c0-1.087-.91-1.962-2.04-1.962h-4.08c-1.13 0-2.04.875-2.04 1.962v3.923c0 1.087.91 1.962 2.04 1.962h4.08c1.13 0 2.04-.875 2.04-1.962zm0-12c0-1.087-.91-1.962-2.04-1.962h-4.08c-1.13 0-2.04.875-2.04 1.962v3.923c0 1.087.91 1.962 2.04 1.962h4.08c1.13 0 2.04-.875 2.04-1.962zm0-12c0-1.087-.91-1.962-2.04-1.962h-4.08c-1.13 0-2.04.875-2.04 1.962v3.923c0 1.087.91 1.962 2.04 1.962h4.08c1.13 0 2.04-.875 2.04-1.962zm0-12c0-1.087-.91-1.962-2.04-1.962h-4.08c-1.13 0-2.04.875-2.04 1.962v3.923c0 1.087.91 1.962 2.04 1.962h4.08c1.13 0 2.04-.875 2.04-1.962zm0-12c0-1.087-.91-1.962-2.04-1.962h-4.08c-1.13 0-2.04.875-2.04 1.962v3.923c0 1.087.91 1.962 2.04 1.962h4.08c1.13 0 2.04-.875 2.04-1.962zm0-12c0-1.087-.91-1.962-2.04-1.962h-4.08c-1.13 0-2.04.875-2.04 1.962v3.923c0 1.087.91 1.962 2.04 1.962h4.08c1.13 0 2.04-.875 2.04-1.962zm0-12c0-1.087-.91-1.962-2.04-1.962h-4.08c-1.13 0-2.04.875-2.04 1.962v3.923c0 1.087.91 1.962 2.04 1.962h4.08c1.13 0 2.04-.875 2.04-1.962zm0-12c0-1.087-.91-1.962-2.04-1.962h-4.08c-1.13 0-2.04.875-2.04 1.962v3.923c0 1.087.91 1.962 2.04 1.962h4.08c1.13 0 2.04-.875 2.04-1.962zm0-12c0-1.087-.91-1.962-2.04-1.962h-4.08c-1.13 0-2.04.875-2.04 1.962v3.923c0 1.087.91 1.962 2.04 1.962h4.08c1.13 0 2.04-.875 2.04-1.962zm-12.16-5.962h104v136h-104z" fill="#35495f" transform="translate(176 185.9615)"/><g fill="#d1d6d2"><path d="m0 0h59.159c3.546 0 6.421-2.662 6.421-5.945v-28.11c0-3.283-2.875-5.945-6.421-5.945h-59.159c-3.546 0-6.42 2.662-6.42 5.945v28.11c0 3.283 2.874 5.945 6.42 5.945" transform="translate(98.4205 172)"/><path d="m0 0h59.159c3.546 0 6.421-2.662 6.421-5.945v-28.11c0-3.283-2.875-5.945-6.421-5.945h-59.159c-3.546 0-6.42 2.662-6.42 5.945v28.11c0 3.283 2.874 5.945 6.42 5.945" transform="translate(98.4205 128)"/><path d="m0 0v-14.055c0-3.283 2.875-5.945 6.42-5.945h59.16c3.545 0 6.42 2.662 6.42 5.945v14.055z" transform="translate(92 196)"/><path d="m0 0v18.055c0 3.283-2.875 5.945-6.42 5.945h-59.16c-3.545 0-6.42-2.662-6.42-5.945v-18.055z" transform="translate(164 60)"/></g></g></svg>