<svg height="245.33333" viewBox="0 0 245.33333 245.33333" width="245.33333" xmlns="http://www.w3.org/2000/svg" xmlns:xlink="http://www.w3.org/1999/xlink"><clipPath id="a"><path d="m0 256h256v-256h-256z"/></clipPath><g clip-path="url(#a)" transform="matrix(1.3333333 0 0 -1.3333333 -47.999865 293.33333)"><path d="m0 0s38.228 2.301 77.407 2.301c38.862 0 78.596-2.301 78.596-2.301 6.425 0 11.659-5.237 11.659-11.664 0 0 2.3-39.434 2.3-78.63 0-38.8-2.3-77.44-2.3-77.44 0-6.427-5.234-11.664-11.659-11.664 0 0-39.813-2.301-78.596-2.301-39.179 0-77.486 2.301-77.486 2.301-6.424 0-11.659 5.237-11.659 11.664 0 0-2.3 39.275-2.3 78.392 0 38.879 2.3 77.678 2.3 77.678.079 6.427 5.314 11.664 11.738 11.664" fill="#7f8b8c" fill-rule="evenodd" transform="translate(50.0379 217.699)"/><path d="m0 0h-50.286c-3.473 0-6.285-2.784-6.285-6.222v-99.556c0-3.438 2.812-6.222 6.285-6.222h75.429c3.473 0 6.286 2.784 6.286 6.222v74.667z" fill="#dadfe0" transform="translate(140.5714 184)"/><path d="m0 0c0-.799-.669-1.442-1.5-1.442h-3c-.831 0-1.5.643-1.5 1.442v2.885c0 .799.669 1.442 1.5 1.442h3c.831 0 1.5-.643 1.5-1.442zm0-7.692c0-.799-.669-1.443-1.5-1.443h-3c-.831 0-1.5.644-1.5 1.443v2.884c0 .799.669 1.443 1.5 1.443h3c.831 0 1.5-.644 1.5-1.443zm0-7.693c0-.799-.669-1.442-1.5-1.442h-3c-.831 0-1.5.643-1.5 1.442v2.885c0 .799.669 1.442 1.5 1.442h3c.831 0 1.5-.643 1.5-1.442zm0-7.692c0-.799-.669-1.442-1.5-1.442h-3c-.831 0-1.5.643-1.5 1.442v2.885c0 .799.669 1.442 1.5 1.442h3c.831 0 1.5-.643 1.5-1.442zm0-7.692c0-.799-.669-1.443-1.5-1.443h-3c-.831 0-1.5.644-1.5 1.443v2.884c0 .799.669 1.443 1.5 1.443h3c.831 0 1.5-.644 1.5-1.443zm0-7.693c0-.798-.669-1.442-1.5-1.442h-3c-.831 0-1.5.643-1.5 1.442v2.885c0 .799.669 1.442 1.5 1.442h3c.831 0 1.5-.643 1.5-1.442zm0-7.692c0-.799-.669-1.442-1.5-1.442h-3c-.831 0-1.5.643-1.5 1.442v2.885c0 .799.669 1.442 1.5 1.442h3c.831 0 1.5-.643 1.5-1.442zm0-7.692c0-.799-.669-1.442-1.5-1.442h-3c-.831 0-1.5.643-1.5 1.442v2.884c0 .799.669 1.443 1.5 1.443h3c.831 0 1.5-.643 1.5-1.443zm0-7.692c0-.799-.669-1.443-1.5-1.443h-3c-.831 0-1.5.643-1.5 1.443v2.884c0 .799.669 1.442 1.5 1.442h3c.831 0 1.5-.643 1.5-1.442zm-62 84.615c0-.799-.669-1.442-1.5-1.442h-3c-.831 0-1.5.643-1.5 1.442v2.885c0 .798.669 1.442 1.5 1.442h3c.831 0 1.5-.643 1.5-1.442zm0-7.692c0-.799-.669-1.443-1.5-1.443h-3c-.831 0-1.5.644-1.5 1.443v2.884c0 .799.669 1.443 1.5 1.443h3c.831 0 1.5-.644 1.5-1.443zm0-7.693c0-.799-.669-1.442-1.5-1.442h-3c-.831 0-1.5.643-1.5 1.442v2.885c0 .799.669 1.442 1.5 1.442h3c.831 0 1.5-.643 1.5-1.442zm0-7.692c0-.799-.669-1.442-1.5-1.442h-3c-.831 0-1.5.643-1.5 1.442v2.885c0 .799.669 1.442 1.5 1.442h3c.831 0 1.5-.643 1.5-1.442zm0-7.692c0-.799-.669-1.443-1.5-1.443h-3c-.831 0-1.5.644-1.5 1.443v2.884c0 .799.669 1.443 1.5 1.443h3c.831 0 1.5-.644 1.5-1.443zm0-7.693c0-.799-.669-1.442-1.5-1.442h-3c-.831 0-1.5.643-1.5 1.442v2.885c0 .799.669 1.442 1.5 1.442h3c.831 0 1.5-.643 1.5-1.442zm0-7.692c0-.799-.669-1.442-1.5-1.442h-3c-.831 0-1.5.643-1.5 1.442v2.885c0 .799.669 1.442 1.5 1.442h3c.831 0 1.5-.643 1.5-1.442zm0-7.692c0-.799-.669-1.443-1.5-1.443h-3c-.831 0-1.5.644-1.5 1.443v2.884c0 .799.669 1.443 1.5 1.443h3c.831 0 1.5-.644 1.5-1.443zm0-7.693c0-.798-.669-1.442-1.5-1.442h-3c-.831 0-1.5.643-1.5 1.442v2.885c0 .799.669 1.442 1.5 1.442h3c.831 0 1.5-.643 1.5-1.442zm0-7.692c0-.799-.669-1.442-1.5-1.442h-3c-.831 0-1.5.643-1.5 1.442v2.885c0 .799.669 1.442 1.5 1.442h3c.831 0 1.5-.643 1.5-1.442zm0-7.692c0-.799-.669-1.442-1.5-1.442h-3c-.831 0-1.5.643-1.5 1.442v2.884c0 .799.669 1.443 1.5 1.443h3c.831 0 1.5-.643 1.5-1.443zm0-7.692c0-.799-.669-1.443-1.5-1.443h-3c-.831 0-1.5.643-1.5 1.443v2.884c0 .799.669 1.442 1.5 1.442h3c.831 0 1.5-.643 1.5-1.442zm36.757 90.865h-44.757v-96.154h2v.481c0 .799.669 1.442 1.5 1.442h3c.831 0 1.5-.643 1.5-1.442v-.481h56v.481c0 .799.669 1.442 1.5 1.442h3c.831 0 1.5-.643 1.5-1.442v-.481h2v69.231z" fill="#35495f" transform="translate(162 146.6731)"/><path d="m0 0h42.726c2.561 0 4.637-1.863 4.637-4.161v-19.678c0-2.298-2.076-4.161-4.637-4.161h-42.726c-2.561 0-4.637 1.863-4.637 4.161v19.678c0 2.298 2.076 4.161 4.637 4.161" fill="#93a3a3" transform="translate(106.637 128)"/><path d="m0 0h42.726c2.561 0 4.637-1.863 4.637-4.161v-19.678c0-2.298-2.076-4.161-4.637-4.161h-42.726c-2.561 0-4.637 1.863-4.637 4.161v19.678c0 2.298 2.076 4.161 4.637 4.161" fill="#93a3a3" transform="translate(106.637 160)"/><path d="m0 0h-31.94v-1.8c0-2.445 2.045-4.408 4.593-4.408h27.347z" fill="#9bc2dd" transform="translate(134.5335 176)"/><path d="m0 0v11.541c0 2.463-2.076 4.459-4.637 4.459h-42.726c-2.561 0-4.637-1.996-4.637-4.459v-11.541z" fill="#93a3a3" transform="translate(154 80)"/><path d="m0 0v-7.541c0-2.463 2.098-4.459 4.685-4.459h42.018l-9.73 12z" fill="#93a3a3" transform="translate(101.7297 176)"/><path d="m0 0h-12.813c-3.536 0-6.4 2.864-6.4 6.4v12.8 12.8l32-32z" fill="#edefef" transform="translate(155.2128 148)"/></g></svg>