<svg enable-background="new 0 0 256 256" viewBox="0 0 256 256" xmlns="http://www.w3.org/2000/svg"><ellipse cx="128" cy="224" fill="#223140" rx="68" ry="20"/><path d="m16 12v192s55.577 12 112 12 112-12 112-12v-192z" fill="#2b3e51"/><path d="m36 36h184v136h-184z" fill="#223140"/><path d="m40 40h176v128h-176z" fill="#f19c21"/><path d="m56 48h16v16h-16z" fill="#03844b"/><path d="m56 48h16v12h-16z" fill="#1eae5b"/><path d="m60 52h8v4h-8z" fill="#87c777"/><path d="m88 48h16v16h-16z" fill="#03844b"/><path d="m88 48h16v12h-16z" fill="#1eae5b"/><path d="m92 52h8v4h-8z" fill="#87c777"/><path d="m120 48h16v16h-16z" fill="#03844b"/><path d="m120 48h16v12h-16z" fill="#1eae5b"/><path d="m124 52h8v4h-8z" fill="#87c777"/><path d="m152 48h16v16h-16z" fill="#03844b"/><path d="m152 48h16v12h-16z" fill="#1eae5b"/><path d="m156 52h8v4h-8z" fill="#87c777"/><path d="m184 48h16v16h-16z" fill="#03844b"/><path d="m184 48h16v12h-16z" fill="#1eae5b"/><path d="m188 52h8v4h-8z" fill="#87c777"/><path d="m56 80h16v16h-16z" fill="#03844b"/><path d="m56 80h16v12h-16z" fill="#1eae5b"/><path d="m60 84h8v4h-8z" fill="#87c777"/><path d="m88 80h16v16h-16z" fill="#03844b"/><path d="m88 80h16v12h-16z" fill="#1eae5b"/><path d="m92 84h8v4h-8z" fill="#87c777"/><path d="m120 80h16v16h-16z" fill="#03844b"/><path d="m120 80h16v12h-16z" fill="#1eae5b"/><path d="m124 84h8v4h-8z" fill="#87c777"/><path d="m152 80h16v16h-16z" fill="#03844b"/><path d="m152 80h16v12h-16z" fill="#1eae5b"/><path d="m156 84h8v4h-8z" fill="#87c777"/><path d="m184 80h16v16h-16z" fill="#03844b"/><path d="m184 80h16v12h-16z" fill="#1eae5b"/><path d="m188 84h8v4h-8z" fill="#87c777"/><path d="m56 112h16v16h-16z" fill="#03844b"/><path d="m56 112h16v12h-16z" fill="#1eae5b"/><path d="m60 116h8v4h-8z" fill="#87c777"/><path d="m88 112h16v16h-16z" fill="#03844b"/><path d="m88 112h16v12h-16z" fill="#1eae5b"/><path d="m92 116h8v4h-8z" fill="#87c777"/><path d="m120 112h16v16h-16z" fill="#03844b"/><path d="m120 112h16v12h-16z" fill="#1eae5b"/><path d="m124 116h8v4h-8z" fill="#87c777"/><path d="m152 112h16v16h-16z" fill="#03844b"/><path d="m152 112h16v12h-16z" fill="#1eae5b"/><path d="m156 116h8v4h-8z" fill="#87c777"/><path d="m184 112h16v16h-16z" fill="#03844b"/><path d="m184 112h16v12h-16z" fill="#1eae5b"/><path d="m188 116h8v4h-8z" fill="#87c777"/><path d="m56 144h16v16h-16z" fill="#03844b"/><path d="m56 144h16v12h-16z" fill="#1eae5b"/><path d="m60 148h8v4h-8z" fill="#87c777"/><path d="m88 144h16v16h-16z" fill="#03844b"/><path d="m88 144h16v12h-16z" fill="#1eae5b"/><path d="m92 148h8v4h-8z" fill="#87c777"/><path d="m120 144h16v16h-16z" fill="#03844b"/><path d="m120 144h16v12h-16z" fill="#1eae5b"/><path d="m124 148h8v4h-8z" fill="#87c777"/><path d="m152 144h16v16h-16z" fill="#03844b"/><path d="m152 144h16v12h-16z" fill="#1eae5b"/><path d="m156 148h8v4h-8z" fill="#87c777"/><path d="m184 144h16v16h-16z" fill="#03844b"/><path d="m184 144h16v12h-16z" fill="#1eae5b"/><path d="m188 148h8v4h-8z" fill="#87c777"/><g fill="#eec41b"><path d="m42.343 50.343h11.314v11.314h-11.314z" transform="matrix(.7071 -.7071 .7071 .7071 -25.5391 50.3431)"/><path d="m74.343 50.343h11.314v11.314h-11.314z" transform="matrix(.7071 -.7071 .7071 .7071 -16.1665 72.9706)"/><path d="m106.343 50.343h11.314v11.314h-11.314z" transform="matrix(.7071 -.7071 .7071 .7071 -6.7939 95.598)"/><path d="m138.343 50.343h11.314v11.314h-11.314z" transform="matrix(.7071 -.7071 .7071 .7071 2.5786 118.2254)"/><path d="m170.343 50.343h11.314v11.314h-11.314z" transform="matrix(.7071 -.7071 .7071 .7071 11.9512 140.8528)"/><path d="m202.343 50.343h11.314v11.314h-11.314z" transform="matrix(.7071 -.7071 .7071 .7071 21.3238 163.4802)"/><path d="m48 48-8-8h16z"/><path d="m42.343 66.343h11.314v11.314h-11.314z" transform="matrix(.7071 -.7071 .7071 .7071 -36.8528 55.0294)"/><path d="m42.343 82.343h11.314v11.314h-11.314z" transform="matrix(.7071 -.7071 .7071 .7071 -48.1665 59.7157)"/><path d="m74.343 82.343h11.314v11.314h-11.314z" transform="matrix(.7071 -.7071 .7071 .7071 -38.7939 82.3431)"/><path d="m106.343 82.343h11.314v11.314h-11.314z" transform="matrix(.7071 -.7071 .7071 .7071 -29.4214 104.9706)"/><path d="m138.343 82.343h11.314v11.314h-11.314z" transform="matrix(.7071 -.7071 .7071 .7071 -20.0488 127.598)"/><path d="m170.343 82.343h11.314v11.314h-11.314z" transform="matrix(.7071 -.7071 .7071 .7071 -10.6762 150.2254)"/><path d="m202.343 82.343h11.314v11.314h-11.314z" transform="matrix(.7071 -.7071 .7071 .7071 -1.3036 172.8528)"/><path d="m42.343 98.343h11.314v11.314h-11.314z" transform="matrix(.7071 -.7071 .7071 .7071 -59.4802 64.402)"/><path d="m42.343 114.343h11.314v11.314h-11.314z" transform="matrix(.7071 -.7071 .7071 .7071 -70.7939 69.0883)"/><path d="m74.343 114.343h11.314v11.314h-11.314z" transform="matrix(.7071 -.7071 .7071 .7071 -61.4214 91.7157)"/><path d="m106.343 114.343h11.314v11.314h-11.314z" transform="matrix(.7071 -.7071 .7071 .7071 -52.0488 114.3431)"/><path d="m138.343 114.343h11.314v11.314h-11.314z" transform="matrix(.7071 -.7071 .7071 .7071 -42.6762 136.9706)"/><path d="m170.343 114.343h11.314v11.314h-11.314z" transform="matrix(.7071 -.7071 .7071 .7071 -33.3036 159.598)"/><path d="m202.343 114.343h11.314v11.314h-11.314z" transform="matrix(.7071 -.7071 .7071 .7071 -23.931 182.2254)"/><path d="m42.343 130.343h11.314v11.314h-11.314z" transform="matrix(.7071 -.7071 .7071 .7071 -82.1077 73.7746)"/><path d="m42.343 146.343h11.314v11.314h-11.314z" transform="matrix(.7071 -.7071 .7071 .7071 -93.4214 78.4609)"/><path d="m74.343 146.343h11.314v11.314h-11.314z" transform="matrix(.7071 -.7071 .7071 .7071 -84.0488 101.0883)"/><path d="m106.343 146.343h11.314v11.314h-11.314z" transform="matrix(.7071 -.7071 .7071 .7071 -74.6762 123.7157)"/><path d="m138.343 146.343h11.314v11.314h-11.314z" transform="matrix(.7071 -.7071 .7071 .7071 -65.3036 146.3431)"/><path d="m170.343 146.343h11.314v11.314h-11.314z" transform="matrix(.7071 -.7071 .7071 .7071 -55.931 168.9706)"/><path d="m202.343 146.343h11.314v11.314h-11.314z" transform="matrix(.7071 -.7071 .7071 .7071 -46.5584 191.598)"/><path d="m40 168 8-8 8 8z"/><path d="m64 48-8-8h16z"/><path d="m58.343 66.343h11.314v11.314h-11.314z" transform="matrix(.7071 -.7071 .7071 .7071 -32.1665 66.3431)"/><path d="m58.343 98.343h11.314v11.314h-11.314z" transform="matrix(.7071 -.7071 .7071 .7071 -54.7939 75.7157)"/><path d="m58.343 130.343h11.314v11.314h-11.314z" transform="matrix(.7071 -.7071 .7071 .7071 -77.4214 85.0883)"/><path d="m56 168 8-8 8 8z"/><path d="m80 48-8-8h16z"/><path d="m74.343 66.343h11.314v11.314h-11.314z" transform="matrix(.7071 -.7071 .7071 .7071 -27.4802 77.6569)"/><path d="m74.343 98.343h11.314v11.314h-11.314z" transform="matrix(.7071 -.7071 .7071 .7071 -50.1076 87.0294)"/><path d="m74.343 130.343h11.314v11.314h-11.314z" transform="matrix(.7071 -.7071 .7071 .7071 -72.7351 96.402)"/><path d="m72 168 8-8 8 8z"/><path d="m96 48-8-8h16z"/><path d="m90.343 66.343h11.314v11.314h-11.314z" transform="matrix(.7071 -.7071 .7071 .7071 -22.7939 88.9706)"/><path d="m90.343 98.343h11.314v11.314h-11.314z" transform="matrix(.7071 -.7071 .7071 .7071 -45.4214 98.3431)"/><path d="m90.343 130.343h11.314v11.314h-11.314z" transform="matrix(.7071 -.7071 .7071 .7071 -68.0488 107.7157)"/><path d="m88 168 8-8 8 8z"/><path d="m112 48-8-8h16z"/><path d="m106.343 66.343h11.314v11.314h-11.314z" transform="matrix(.7071 -.7071 .7071 .7071 -18.1076 100.2843)"/><path d="m106.343 98.343h11.314v11.314h-11.314z" transform="matrix(.7071 -.7071 .7071 .7071 -40.7351 109.6569)"/><path d="m106.343 130.343h11.314v11.314h-11.314z" transform="matrix(.7071 -.7071 .7071 .7071 -63.3625 119.0294)"/><path d="m104 168 8-8 8 8z"/><path d="m128 48-8-8h16z"/><path d="m122.343 66.343h11.314v11.314h-11.314z" transform="matrix(.7071 -.7071 .7071 .7071 -13.4214 111.598)"/><path d="m122.343 98.343h11.314v11.314h-11.314z" transform="matrix(.7071 -.7071 .7071 .7071 -36.0488 120.9706)"/><path d="m122.343 130.343h11.314v11.314h-11.314z" transform="matrix(.7071 -.7071 .7071 .7071 -58.6762 130.3431)"/><path d="m120 168 8-8 8 8z"/><path d="m144 48-8-8h16z"/><path d="m138.343 66.343h11.314v11.314h-11.314z" transform="matrix(.7071 -.7071 .7071 .7071 -8.7351 122.9117)"/><path d="m138.343 98.343h11.314v11.314h-11.314z" transform="matrix(.7071 -.7071 .7071 .7071 -31.3625 132.2843)"/><path d="m138.343 130.343h11.314v11.314h-11.314z" transform="matrix(.7071 -.7071 .7071 .7071 -53.9899 141.6569)"/><path d="m136 168 8-8 8 8z"/><path d="m160 48-8-8h16z"/><path d="m154.343 66.343h11.314v11.314h-11.314z" transform="matrix(.7071 -.7071 .7071 .7071 -4.0488 134.2254)"/><path d="m154.343 98.343h11.314v11.314h-11.314z" transform="matrix(.7071 -.7071 .7071 .7071 -26.6762 143.598)"/><path d="m154.343 130.343h11.314v11.314h-11.314z" transform="matrix(.7071 -.7071 .7071 .7071 -49.3036 152.9706)"/><path d="m152 168 8-8 8 8z"/><path d="m176 48-8-8h16z"/><path d="m170.343 66.343h11.314v11.314h-11.314z" transform="matrix(.7071 -.7071 .7071 .7071 .6375 145.5391)"/><path d="m170.343 98.343h11.314v11.314h-11.314z" transform="matrix(.7071 -.7071 .7071 .7071 -21.9899 154.9117)"/><path d="m170.343 130.343h11.314v11.314h-11.314z" transform="matrix(.7071 -.7071 .7071 .7071 -44.6173 164.2843)"/><path d="m168 168 8-8 8 8z"/><path d="m192 48-8-8h16z"/><path d="m186.343 66.343h11.314v11.314h-11.314z" transform="matrix(.7071 -.7071 .7071 .7071 5.3238 156.8528)"/><path d="m186.343 98.343h11.314v11.314h-11.314z" transform="matrix(.7071 -.7071 .7071 .7071 -17.3036 166.2254)"/><path d="m186.343 130.343h11.314v11.314h-11.314z" transform="matrix(.7071 -.7071 .7071 .7071 -39.931 175.598)"/><path d="m184 168 8-8 8 8z"/><path d="m208 48-8-8h16z"/><path d="m202.343 66.343h11.314v11.314h-11.314z" transform="matrix(.7071 -.7071 .7071 .7071 10.0101 168.1665)"/><path d="m202.343 98.343h11.314v11.314h-11.314z" transform="matrix(.7071 -.7071 .7071 .7071 -12.6173 177.5391)"/><path d="m202.343 130.343h11.314v11.314h-11.314z" transform="matrix(.7071 -.7071 .7071 .7071 -35.2447 186.9117)"/><path d="m200 168 8-8 8 8z"/></g><path d="m184 200h-116c-2.209 0-4-1.791-4-4 0-2.209 1.791-4 4-4h116c2.209 0 4 1.791 4 4 0 2.209-1.791 4-4 4z" fill="#35495f"/><path d="m148 140h-4v-20h-32v28h32v-4h4z" fill="#edefef"/><path d="m112 120v16h4v4h24v-4h4v-16z" fill="#3394d1"/><path d="m140 84v-4h-24v4h-4v8h-4v20h4v4h8v-4h-4v-20h4v-4h20 8v-4z" fill="#edefef"/><path d="m116 92h36v20h-36z" fill="#fde3a2"/><path d="m100 84h4v8h-4z" fill="#223140"/><path d="m116 76h24v4h-24z" fill="#223140"/><path d="m140 80h8v4h-8z" fill="#223140"/><path d="m148 84h4v4h-4z" fill="#223140"/><path d="m120 88h28v4h-28z" fill="#223140"/><path d="m108 92h4v-8h4v-4h-12v4h4z" fill="#223140"/><path d="m108 116h4v-4h-4v-20h-4v20h-4v4h4z" fill="#223140"/><path d="m112 96h4v12h-4z" fill="#223140"/><path d="m116 92h4v4h-4z" fill="#223140"/><path d="m116 108h4v4h-4z" fill="#223140"/><path d="m124 96h4v12h-4z" fill="#223140"/><path d="m140 96h4v12h-4z" fill="#223140"/><path d="m100 124v-8h-4v4h-4v12h4v-8z" fill="#223140"/><path d="m100 124h4v4h-4z" fill="#223140"/><path d="m156 120v-32h-4v4h-4v4h4v12h-4v4h-28v4h-4-4v4 4h4v-4h4 16v12h2 2v4h4v-4h4 2 2v-8h4v12h-8-4v4h4v4h-4v4h-8v-4h-4v-4h-8v8h-12v-16h12v-4h-12v-4h-4v4h-4v4h-8v4h8v4h4v8h-4v4h-4v4h4v4h4 4v4h36v-4h8v-4h4v-4h-4v-4-8h4v-2-2-16z" fill="#223140"/><path d="m148 116h4v4h-4z" fill="#edefef"/><path d="m112 152h12v4h-12z" fill="#9259a2"/><path d="m148 88h4v4h-4z" fill="#edefef"/><path d="m100 128v-4h-4v8h4 4v-4z" fill="#9259a2"/><path d="m152 124v8h-8v4h8 4v-4-8z" fill="#edefef"/><path d="m100 116h12v8h-12z" fill="#edefef"/><path d="m104 120h4v8h-4z" fill="#edefef"/><path d="m104 84h4v8h-4z" fill="#9259a2"/><path d="m124 128h12v4h-12z" fill="#fde3a2"/><path d="m140 120h8v8h-8z" fill="#9259a2"/><path d="m109.292 43.978c-.467 0-.941.008-1.425.024l-2.404.08-1.056 2.162-3.173 6.495c-.38.136-.796.291-1.233.462v-1.201h-4-4-2.472l-1.106 2.211-1.268 2.537c-.913-.465-1.962-.748-3.155-.748-2.37 0-4.505 1.18-6.143 2.486-2.138-1.657-4.052-2.494-5.714-2.494-.201 0-.397.011-.587.032-5.106.573-14.488 13.378-19.306 26.35-.683 1.839.014 3.886 1.695 4.979l.995.647h1.186 7.874 2.827l.944-2.666c.157-.444.318-.89.483-1.334h3.746 2.312l1.154-2.003c.374-.649.77-1.322 1.176-1.997h3.358 8 2.675l.333-.806 4.308.747c.114.02 2.831.483 6.89.483 6.815 0 16.276-1.243 24.786-6.736 1.956 2.068 4.877 3.869 8.876 4 .143.005.286.007.429.007 3.964 0 7.696-1.794 10.386-3.537 1.879 2.746 4.876 5.678 9.166 5.839.169.006.339.009.51.009 2.589 0 5.307-.737 7.64-1.625v1.319l3.689.288.074.006-.004.006h.086l3.845.3 2.292.179.331-.479h1.688 7.642l-1.73 4h6.088 4 2.503l1.094-2.251c.146-.3 3.578-7.407 4.366-13.211.26-1.915.744-5.479-1.515-8.066-1.433-1.641-3.575-2.472-6.367-2.472h-.11l-.929.007-.831.416-1.503.752c-1.89-1.548-4.701-3.299-7.739-3.299-.69 0-1.369.089-2.018.265-1.261.343-2.569.873-3.791 1.452-.238-.472-.527-.942-.874-1.401-2.105-2.782-5.565-4.192-10.286-4.192-4.566 0-8.305.722-11.13 2.148-2.424-2.812-6.537-6.004-12.779-6.147-.099-.002-.198-.003-.296-.003-.001 0-.001 0-.001 0-3.882 0-7.027 1.713-9.475 4.102-3.065-3.867-10.261-8.121-21.027-8.122z" fill="#223140"/><path d="m192 62-4 2s-4.431-4.97-8-4-8 4-8 4 2.259-8-8-8-12 4-12 4-3.42-7.804-12-8-12 11.875-12 11.875l-4.168-3.875s4.35-2.434 4.168-4-6.312-8.458-20-8l-3.908 8s-6.129 1.898-8.092 4v-4h-4l-4 8s-1.113-4-4-4-6 4-6 4-4.113-4.211-6-4-10.596 9.215-16 23.767c-.035.094.025.168.126.233h7.874s4.547-12.855 6.413-13.051c1.865-.196-2.203 9.051-2.203 9.051h3.79s6.209-10.78 7.813-11.091c1.604-.31.187 7.091.187 7.091h8s6.722-16.268 13.779-15.359l-5.779 15.359s18.469 3.204 32-8c0 0 2.031 5.495 8 5.69s12-5.6 12-5.6 2.777 7.714 8 7.91 12-4 12-4v4l4 .312s6.07-8.782 8-8.312c1.93.471-4 8-4 8h8.191s1.395-7.273 5.36-6.26c0 0 .536 5.433-1.551 10.26h4s3.289-6.765 4-12c.451-3.325.466-6.033-4-6zm-74.103 5.669c-.722 3.284-11.309 1.852-11.309 1.852l1.59-4.741s10.441-.395 9.719 2.889zm1.187-10.414c-.417 1.627-7.808 1.657-7.808 1.657l.691-4.088c4.256-.888 7.534.804 7.117 2.431zm21.149 8.193c-1.617 2.122-3.717 3.179-4.689 2.362-.973-.817-.45-3.199 1.167-5.321s3.717-3.179 4.689-2.362.45 3.199-1.167 5.321zm21.797 1.746c-1.617 2.122-3.717 3.179-4.689 2.362-.973-.817-.45-3.199 1.167-5.321s3.717-3.179 4.689-2.362.45 3.199-1.167 5.321z" fill="#edefef"/></svg>