<svg height="309.33359" viewBox="0 0 309.33331 309.33358" width="309.33331" xmlns="http://www.w3.org/2000/svg" xmlns:xlink="http://www.w3.org/1999/xlink"><clipPath id="a"><path d="m0 256h256v-256h-256z"/></clipPath><g clip-path="url(#a)" transform="matrix(1.3333333 0 0 -1.3333333 -16 325.33333)"><g fill-rule="evenodd"><path d="m0 0s48.2 2.901 97.6 2.901c49 0 99.1-2.901 99.1-2.901 8.1 0 14.7-6.603 14.7-14.706 0 0 2.9-49.722 2.9-99.143 0-48.921-2.9-97.642-2.9-97.642 0-8.104-6.6-14.707-14.7-14.707 0 0-50.2-2.901-99.1-2.901-49.4 0-97.7 2.901-97.7 2.901-8.1 0-14.7 6.603-14.7 14.707 0 0-2.9 49.521-2.9 98.842 0 49.022 2.9 97.943 2.9 97.943.1 8.103 6.7 14.706 14.8 14.706" fill="#eec41b" transform="translate(29.7 241.0988)"/><path d="m0 0 100-100 100 100-100 100z" fill="#f19c21" transform="translate(28 128)"/><path d="m0 0c5.541 0 11.097.038 16.596.104l-15.896 15.896-15.913-15.913c5.025-.056 10.113-.087 15.213-.087" fill="#f19c21" transform="translate(127.3 12)"/><path d="m0 0c0-5.471.036-10.943.099-16.351l15.901 15.901-15.91 15.909c-.057-5.114-.09-10.285-.09-15.459" fill="#f19c21" transform="translate(12 128.4502)"/><path d="m0 0c-5.101 0-10.189-.031-15.213-.087l15.913-15.913 15.897 15.897c-5.497.066-11.054.103-16.597.103" fill="#f19c21" transform="translate(127.3 244)"/><path d="m0 0 15.912-15.912c.056 5.016.088 10.087.088 15.162 0 5.569-.037 11.142-.102 16.648z" fill="#f19c21" transform="translate(228 128)"/></g><path d="m0 0v8h-8v8h-8v8h-8v8h-62.73v-8h-17.27v-8h-8v-16h-8v-64h8v-8-8h8v-8h16v-8h64v8h16v8h8v8h8v8 64z" fill="#223140" transform="translate(184 160)"/><path d="m0 0h-8v8h-24v8h-8v8 8 8 8 8 8h-24v-8h-16v-8h-8v-16h-8v-48h8v-16h8v-8h16v-8h32v8h16v8h8v16h8z" fill="#2b3e51" transform="translate(168 120)"/><path d="m0 0h-8v8 8h-16v-8h-8v-8h-8v-48h8v-8h24v8h8z" fill="#35495f" transform="translate(120 152)"/><path d="m0 0v8h-8v-8h-8v-40h8v-8h8 8v8 16 24z" fill="#6680a0" transform="translate(104 152)"/><path d="m0 0v-8h-8-8v8h8v24h-32v-40h8v-8h32v8h8v16z" fill="#6c7a88" transform="translate(168 152)"/><path d="m96 128h8v24h-8z" fill="#edefef"/><path d="m0 0v-8h-8v-8h-8v-16h8v8h8v8h8v8h8v8h-8z" fill="#edefef" transform="translate(168 184)"/><path d="m176 184h-8v8h8z" fill="#e94b36"/><path d="m191.737 184h-8v8h8z" fill="#e94b36"/><path d="m192 168h-8v8h8z" fill="#e94b36"/><path d="m152 168h-16v16h16z" fill="#7f8b8c"/><path d="m144 160h-16v16h16z" fill="#7f8b8c"/><path d="m136 152h-8v16h8z" fill="#edefef"/><path d="m144 168h-8v8h8z" fill="#edefef"/><path d="m152 152h-8v16h8z" fill="#223140"/><path d="m0 0h-8-8-8v-8h8v-8h8v8h8z" fill="#7f8b8c" transform="translate(160 144)"/></g></svg>