<svg height="245.33333" viewBox="0 0 245.33333 245.33333" width="245.33333" xmlns="http://www.w3.org/2000/svg" xmlns:xlink="http://www.w3.org/1999/xlink"><clipPath id="a"><path d="m0 256h256v-256h-256z"/></clipPath><g clip-path="url(#a)" transform="matrix(1.3333333 0 0 -1.3333333 -47.999865 293.33333)"><path d="m0 0s38.228 2.301 77.407 2.301c38.862 0 78.596-2.301 78.596-2.301 6.425 0 11.659-5.237 11.659-11.664 0 0 2.3-39.434 2.3-78.63 0-38.8-2.3-77.44-2.3-77.44 0-6.427-5.234-11.664-11.659-11.664 0 0-39.813-2.301-78.596-2.301-39.179 0-77.486 2.301-77.486 2.301-6.424 0-11.659 5.237-11.659 11.664 0 0-2.3 39.275-2.3 78.392 0 38.879 2.3 77.678 2.3 77.678.079 6.427 5.314 11.664 11.738 11.664" fill="#7f8b8c" fill-rule="evenodd" transform="translate(50.0379 217.699)"/><path d="m0 0h-50.286c-3.473 0-6.285-2.784-6.285-6.222v-99.556c0-3.438 2.812-6.222 6.285-6.222h75.429c3.473 0 6.286 2.784 6.286 6.222v74.667z" fill="#d1d6d2" transform="translate(140.5714 184)"/><path d="m0 0 26.862-27.501v-72.499h-72v100z" fill="#edefef" transform="translate(137.1379 178)"/><path d="m0 0h-12.813c-3.536 0-6.4 2.864-6.4 6.4v12.8 12.8l32-32z" fill="#dadfe0" transform="translate(155.2128 150)"/><path d="m0 0c0-3.981.011-7.798-.002-11.615-.039-10.856-.282-21.716-.067-32.567.155-7.839-4.633-11.588-10.668-12.874-2.258-.481-4.749-.466-7.038-.093-4.679.764-7.186 5.763-5.358 10.139 2.958 7.08 11.375 10.39 18.413 7.239.47-.21.937-.425 1.739-.79v30.671c-2.031-.439-4.232-.905-6.428-1.391-8.606-1.904-17.205-3.838-25.821-5.695-1.248-.269-1.633-.745-1.639-2.043-.051-10.855-.168-21.71-.315-32.565-.117-8.645-7.005-15.045-15.385-14.367-5.287.428-8.545 5.123-7.072 10.193 2.208 7.598 10.984 11.204 17.994 7.394.444-.241.886-.487 1.653-.909 0 2.263-.024 4.274.004 6.284.15 10.902.322 21.803.453 32.704.011.885.213 1.335 1.164 1.551 12.567 2.857 25.125 5.755 37.686 8.641.176.04.359.049.687.093" fill="#35495f" transform="translate(155.9955 148)"/></g></svg>