<svg xmlns="http://www.w3.org/2000/svg" viewBox="0 0 256 256"><path fill="#ececed" d="M196.6 244H59.4c-4.087 0-7.4-3.344-7.4-7.469V19.469C52 15.344 55.313 12 59.4 12h137.2c4.087 0 7.4 3.344 7.4 7.469v217.062c0 4.125-3.313 7.469-7.4 7.469"/><path fill="#1b80bb" d="M60 36h136v112H60z"/><path fill="#dadfe0" d="M148.391 23.226 127.81 30.71l-20.58-7.484v-7.484h41.161z"/><path fill="#2b3e51" d="M196 240H60v-76.364c0-4.217 3.291-7.636 7.351-7.636h121.297c4.06 0 7.351 3.419 7.351 7.636V240z"/><path fill="#d35627" d="M192 236h-4v-12h4zm-8 0h-4v-8h4zm-8 0h-4v-8h4zm-8 0h-4v-8h4zm-8 0h-4v-8h4zm-8 0h-4v-8h4zm-8 0h-4v-8h4zm-8 4h-4v-12h4zm-8-4h-4v-8h4zm-8 0h-4v-8h4zm-8 0h-4v-8h4zm-8 0h-4v-8h4zm-8 0h-4v-8h4zm-8 0h-4v-8h4zm-8 0h-4v-8h4zm-8 4h-4v-12h4z"/></svg>