<svg height="202.66666" viewBox="0 0 309.33331 202.66665" width="309.33331" xmlns="http://www.w3.org/2000/svg" xmlns:xlink="http://www.w3.org/1999/xlink"><clipPath id="a"><path d="m0 256h256v-256h-256z"/></clipPath><g clip-path="url(#a)" transform="matrix(1.3333333 0 0 -1.3333333 -16 271.99999)"><path d="m0 0h-224.448c-2.085 0-3.776 1.724-3.776 3.85v144.3c0 2.126 1.691 3.85 3.776 3.85h224.448c2.085 0 3.776-1.724 3.776-3.85v-144.3c0-2.126-1.691-3.85-3.776-3.85" fill="#35495f" transform="translate(240.224 52)"/><path d="m0 0s22.641 42.71 55.034 52.316c0 0 14.787 5.025 18.85-7.537s-3.461-15.89-3.461-15.89-29.042-9.972-45.745-41.451c0 0-7.072-10.197-18.132-4.286-11.06 5.912-6.546 16.848-6.546 16.848" fill="#2b3e51" transform="translate(132.9119 134.691)"/><path d="m0 0c0-16.569-13.431-30-30-30s-30 13.431-30 30 13.431 30 30 30 30-13.431 30-30" fill="#2b3e51" transform="translate(112 150)"/><path d="m0 0c0-7.257-5.883-13.141-13.141-13.141-7.257 0-13.14 5.884-13.14 13.141s5.883 13.141 13.14 13.141c7.258 0 13.141-5.884 13.141-13.141" fill="#35495f" transform="translate(95.375 149.9234)"/><g fill="#223140"><path d="m0 0c-6.617 0-12-5.383-12-12s5.383-12 12-12 12 5.383 12 12-5.383 12-12 12m0-26c-7.72 0-14 6.28-14 14s6.28 14 14 14 14-6.28 14-14-6.28-14-14-14" transform="translate(82 162)"/><path d="m0 0c0-4.418-3.582-8-8-8s-8 3.582-8 8 3.582 8 8 8 8-3.582 8-8" transform="translate(154 130)"/><path d="m0 0c0-4.418-3.582-8-8-8s-8 3.582-8 8 3.582 8 8 8 8-3.582 8-8" transform="translate(168 148)"/><path d="m0 0c0-4.418-3.582-8-8-8s-8 3.582-8 8 3.582 8 8 8 8-3.582 8-8" transform="translate(184 164)"/><path d="m0 0c0-4.418-3.582-8-8-8s-8 3.582-8 8 3.582 8 8 8 8-3.582 8-8" transform="translate(204 176)"/><path d="m0 0c-.074 0-.149.003-.224.008l-9.183.644c-.906.063-1.736.505-2.338 1.245-.603.741-.902 1.687-.843 2.663.059.977.469 1.873 1.155 2.523.686.649 1.563.972 2.467.909l9.183-.643c.906-.063 1.735-.506 2.338-1.246.602-.741.902-1.686.843-2.663s-.469-1.872-1.155-2.523c-.629-.596-1.419-.917-2.243-.917" transform="translate(124.595 184)"/></g><path d="m0 0c-.603 0-1.18-.235-1.641-.671-.503-.475-.803-1.129-.846-1.841-.043-.713.176-1.403.618-1.944.441-.541 1.048-.864 1.71-.91l9.011-.63c.658-.037 1.301.189 1.805.664.503.476.802 1.13.846 1.842.043.713-.176 1.402-.618 1.944-.441.541-1.049.863-1.71.91l-9.011.63c-.054.003-.109.006-.164.006" fill="#2b3e51" transform="translate(115.4921 191)"/><path d="m0 0c-1.779 0-3.281 1.496-3.398 3.44-.121 2.024 1.306 3.777 3.18 3.908l9.183.643c1.906.141 3.501-1.407 3.623-3.432.122-2.023-1.306-3.777-3.18-3.908l-9.183-.643c-.076-.005-.151-.008-.225-.008" fill="#223140" transform="translate(143.4049 184)"/><path d="m0 0c-.053 0-.108-.003-.163-.006l-9.009-.63c-1.372-.095-2.417-1.374-2.329-2.852.091-1.476 1.263-2.618 2.651-2.504l9.009.629c1.372.096 2.418 1.375 2.33 2.853-.087 1.417-1.187 2.51-2.489 2.51" fill="#2b3e51" transform="translate(152.5062 191)"/><path d="m0 0s104.021-8.196 117.269-7.996c13.247.2 106.731 7.996 106.731 7.996z" fill="#6680a0" transform="translate(16 204)"/><path d="m0 0h-228.224c-1.038 0-1.888.819-1.888 1.82v4.36c0 1.001.85 1.82 1.888 1.82h228.224c1.038 0 1.888-.819 1.888-1.82v-4.36c0-1.001-.85-1.82-1.888-1.82" fill="#2b3e51" transform="translate(242.112 52)"/></g></svg>