<svg height="309.33331" viewBox="0 0 298.66665 309.33331" width="298.66666" xmlns="http://www.w3.org/2000/svg" xmlns:xlink="http://www.w3.org/1999/xlink"><clipPath id="a"><path d="m0 256h256v-256h-256z"/></clipPath><g clip-path="url(#a)" transform="matrix(1.3333333 0 0 -1.3333333 -21.333333 325.33333)"><path d="m0 0h-200c-6.627 0-12-5.373-12-12v-96h224v96c0 6.627-5.373 12-12 12" fill="#35495f" transform="translate(228 244)"/><path d="m0 0h-200c-4.411 0-8-3.589-8-8v-96h4v-4h208v4h4v96c0 4.411-3.589 8-8 8" fill="#2b3e51" transform="translate(228 240)"/><path d="m236 164h4v12h-4z" fill="#bdc1c6"/><path d="m0 0h-2-128-2v-2-76-2h2 128 2v2 76z" fill="#223140" transform="translate(194 220)"/><path d="m192 142h-128v76h128z" fill="#6c7a88"/><path d="m0 0c0-2.209-1.791-4-4-4s-4 1.791-4 4 1.791 4 4 4 4-1.791 4-4" fill="#223140" transform="translate(132 232)"/><path d="m0 0c0 .552-.448 1-1 1s-1-.448-1-1 .448-1 1-1 1 .448 1 1m0 10c0 .552-.448 1-1 1s-1-.448-1-1 .448-1 1-1 1 .448 1 1m4-4c-.552 0-1-.448-1-1s.448-1 1-1 1 .448 1 1-.448 1-1 1m-10 0c-.552 0-1-.448-1-1s.448-1 1-1 1 .448 1 1-.448 1-1 1m6-1c0-.552-.448-1-1-1s-1 .448-1 1 .448 1 1 1 1-.448 1-1" fill="#223140" transform="translate(41 183)"/><path d="m0 0c0 .552-.448 1-1 1s-1-.448-1-1 .448-1 1-1 1 .448 1 1m0 10c0 .552-.448 1-1 1s-1-.448-1-1 .448-1 1-1 1 .448 1 1m4-4c-.552 0-1-.448-1-1s.448-1 1-1 1 .448 1 1-.448 1-1 1m-10 0c-.552 0-1-.448-1-1s.448-1 1-1 1 .448 1 1-.448 1-1 1m6-1c0-.552-.448-1-1-1s-1 .448-1 1 .448 1 1 1 1-.448 1-1" fill="#223140" transform="translate(217 183)"/><path d="m0 0h-198c-4.971 0-9 4.029-9 9v103h216v-103c0-4.971-4.029-9-9-9" fill="#2b3e51" transform="translate(227 12)"/><path d="m0 0h-112c-3.308 0-6-2.692-6-6v-100c0-3.308 2.692-6 6-6h112c3.308 0 6 2.692 6 6v100c0 3.308-2.692 6-6 6m0-2c2.209 0 4-1.791 4-4v-100c0-2.209-1.791-4-4-4h-112c-2.209 0-4 1.791-4 4v100c0 2.209 1.791 4 4 4z" fill="#223140" transform="translate(184 126)"/><path d="m224 120h-192v16h192z" fill="#35495f"/><path d="m0 0-6.865-6.865c-.727-.727-1.135-1.712-1.135-2.74 0-1.468.829-2.81 2.142-3.466l5.858-2.929h12v16z" fill="#223140" transform="translate(24 136)"/><path d="m0 0 6.865-6.865c.727-.727 1.135-1.712 1.135-2.74 0-1.468-.829-2.81-2.142-3.466l-5.858-2.929h-12v16z" fill="#223140" transform="translate(232 136)"/><path d="m228 126h4v4h-4z" fill="#6c7a88"/><path d="m0 0c0-10.461-8.481-18.942-18.942-18.942s-18.942 8.481-18.942 18.942 8.481 18.942 18.942 18.942 18.942-8.481 18.942-18.942" fill="#223140" transform="translate(64 89.058)"/><path d="m0 0c0-6.974-5.654-12.628-12.628-12.628s-12.628 5.654-12.628 12.628 5.654 12.628 12.628 12.628 12.628-5.654 12.628-12.628" fill="#bdc1c6" transform="translate(57.686 89.058)"/><path d="m0 0c0-5.231-4.24-9.471-9.471-9.471s-9.471 4.24-9.471 9.471 4.24 9.471 9.471 9.471 9.471-4.24 9.471-9.471" fill="#93a3a3" transform="translate(54.529 89.058)"/><path d="m0 0h-10.028v10.028c0 .616-.499 1.114-1.114 1.114h-6.686c-.615 0-1.114-.498-1.114-1.114v-10.028h-10.028c-.616 0-1.114-.499-1.114-1.114v-6.686c0-.615.498-1.114 1.114-1.114h10.028v-10.028c0-.615.499-1.114 1.114-1.114h6.686c.615 0 1.114.499 1.114 1.114v10.028h10.028c.615 0 1.114.499 1.114 1.114v6.686c0 .615-.499 1.114-1.114 1.114" fill="#223140" transform="translate(59.5431 51.1739)"/><path d="m43.944 60.088h2.228v-6.685h-2.228z" fill="#bdc1c6"/><path d="m43.944 40.032h2.228v-6.685h-2.228z" fill="#bdc1c6"/><path d="m58.429 45.603h-6.685v2.228h6.685z" fill="#bdc1c6"/><path d="m38.373 45.603h-6.685v2.228h6.685z" fill="#bdc1c6"/><path d="m180 32h-104v80h104z" fill="#6c7a88"/><path d="m0 0h-2-104-2v-2-80-2h2 104 2v2 80zm-2-82h-104v80h104z" fill="#223140" transform="translate(182 114)"/><path d="m104 20h-24v8h24z" fill="#223140"/><path d="m140 20h-24v8h24z" fill="#223140"/><path d="m176 20h-24v8h24z" fill="#223140"/><path d="m0 0h-4c-1.105 0-2 .895-2 2v4c0 1.105.895 2 2 2h4c1.105 0 2-.895 2-2v-4c0-1.105-.895-2-2-2" fill="#223140" transform="translate(198 24)"/><path d="m0 0c0-3.314-2.686-6-6-6s-6 2.686-6 6 2.686 6 6 6 6-2.686 6-6" fill="#223140" transform="translate(206 86)"/><path d="m0 0c0-3.314-2.686-6-6-6s-6 2.686-6 6 2.686 6 6 6 6-2.686 6-6" fill="#223140" transform="translate(218 98)"/><path d="m0 0c0-3.314-2.686-6-6-6s-6 2.686-6 6 2.686 6 6 6 6-2.686 6-6" fill="#223140" transform="translate(218 74)"/><path d="m0 0c0-3.314-2.686-6-6-6s-6 2.686-6 6 2.686 6 6 6 6-2.686 6-6" fill="#223140" transform="translate(230 86)"/><path d="m240 152h-4v12h4z" fill="#223140"/><g fill="#edefef"><path d="m108 200h-8v8h8z"/><path d="m108 188h-8v8h8z"/><path d="m108 176h-8v8h8z"/><path d="m108 164h-8v8h8z"/><path d="m108 152h-8v8h8z"/><path d="m120 200h-8v8h8z"/><path d="m120 188h-8v8h8z"/><path d="m120 176h-8v8h8z"/><path d="m120 164h-8v8h8z"/><path d="m120 152h-8v8h8z"/><path d="m132 200h-8v8h8z"/><path d="m132 188h-8v8h8z"/><path d="m132 176h-8v8h8z"/><path d="m132 164h-8v8h8z"/><path d="m132 152h-8v8h8z"/><path d="m144 200h-8v8h8z"/><path d="m144 188h-8v8h8z"/><path d="m144 176h-8v8h8z"/><path d="m144 164h-8v8h8z"/><path d="m144 152h-8v8h8z"/><path d="m156 200h-8v8h8z"/><path d="m156 188h-8v8h8z"/><path d="m156 176h-8v8h8z"/><path d="m156 164h-8v8h8z"/><path d="m156 152h-8v8h8z"/></g></g></svg>