<svg xmlns="http://www.w3.org/2000/svg" viewBox="0 0 256 256"><path fill="#dadfe0" d="M40 176v38.343c0 1.061.421 2.078 1.172 2.828l25.657 25.657A4 4 0 0 0 69.657 244H212a4 4 0 0 0 4-4v-48a4 4 0 0 0-4-4h-4v-52h4a4 4 0 0 0 4-4V16a4 4 0 0 0-4-4h-58.343a4 4 0 0 0-2.829 1.172l-1.656 1.657a4 4 0 0 1-2.829 1.172h-36.687a4 4 0 0 1-2.828-1.172l-1.657-1.657A4 4 0 0 0 102.343 12H44a4 4 0 0 0-4 4v140a4 4 0 0 0 4 4v12a4 4 0 0 0-4 4"/><path fill="#d1d6d2" d="M208 164h4a4 4 0 0 1 4 4v16a4 4 0 0 1-4 4h-4zM68 28h120c6.627 0 12 5.373 12 12v164c0 6.627-5.373 12-12 12H68c-6.627 0-12-5.373-12-12V40c0-6.627 5.373-12 12-12"/><path fill="#1b80bb" d="M68 212c-4.411 0-8-3.589-8-8V40c0-4.411 3.589-8 8-8h120c4.411 0 8 3.589 8 8v164c0 4.411-3.589 8-8 8z"/><path fill="#d1d6d2" d="M74 20h108a2 2 0 1 1 0 4H74a2 2 0 1 1 0-4"/><path fill="#edefef" d="M72 72h16v16H72zm0 24h16v16H72zm0 24h16v16H72zm0 24h16v16H72zm0 24h16v16H72zm24-96h16v16H96zm0 24h16v16H96zm0 24h16v16H96zm0 24h16v16H96zm0 24h16v16H96zm24-96h16v16h-16zm0 24h16v16h-16zm0 24h16v16h-16zm0 24h16v16h-16zm0 24h16v16h-16zm24-96h16v16h-16zm0 24h16v16h-16zm0 24h16v16h-16zm0 24h16v16h-16zm0 24h16v16h-16zm24-96h16v16h-16zm0 24h16v16h-16zm0 24h16v16h-16zm0 24h16v16h-16zm0 24h16v16h-16z"/></svg>