<svg xmlns="http://www.w3.org/2000/svg" viewBox="0 0 256 256"><path fill="#1b80bb" d="M184 48.927s24.187-3.257 40.001 11.7l-29.502-4.169z"/><path fill="#dadfe0" d="M48 56.682s4.105-11.267 24-7.059l-9.873 7.059z"/><path fill="#223140" d="M239.076 100.266C217.866 37.781 131.777 39.91 128 40.034c-3.777-.124-89.866-2.253-111.076 60.232 0 0-11.235 77.715.235 109.068 1.43 3.908 4.09 7.331 7.76 9.257 4.743 2.489 11.715 2.848 18.516-8.906 1.85-3.197 2.905-6.794 3.412-10.458 1.872-13.532 7.32-49.994 12.024-52.579 0 0 24.78-35.536 69.127-34.598 44.347-.938 69.127 34.598 69.127 34.598 4.704 2.585 10.153 39.046 12.024 52.579.507 3.664 1.562 7.26 3.412 10.458 6.802 11.754 13.773 11.395 18.516 8.906 3.671-1.926 6.331-5.349 7.76-9.257 11.474-31.353.239-109.068.239-109.068"/><path fill="#2b3e51" d="m148.577 123.582-.008-.003.028-.014a28 28 0 0 1 3.114-2.61c3.411-3.579 8.48-11.315 9.29-26.106-.012-.361-.038-.713-.04-1.076a42 42 0 0 1 .148-3.86l-.001-.058.004.001c1.759-21.012 19.33-37.628 40.928-37.853 22.931-.239 41.715 18.069 41.957 40.9.189 17.884-11.058 33.231-26.955 39.162l.004.002-.009-.002a41 41 0 0 1-3.444 1.111c-4.681 1.986-13.128 7.346-18.979 21.162-.076.179-.154.355-.227.537-.056.133-.116.266-.174.408l-.008-.006c-4.373 9.755-14.145 16.606-25.577 16.724-15.647.163-28.462-12.332-28.626-27.909-.085-8.033 3.215-15.312 8.575-20.51"/><path fill="#223140" d="m168.813 123.925-14.309 5.755L148 143.242l5.207 14.922 13.979 5.761 14.959-5.084L188 145.282l-5.529-15.26z"/><path fill="#2b3e51" d="m111.423 123.582.008-.003-.028-.014a28 28 0 0 0-3.114-2.61c-3.411-3.579-8.48-11.315-9.29-26.106.012-.361.038-.713.04-1.076a42 42 0 0 0-.148-3.86l.001-.058-.004.001c-1.759-21.012-19.33-37.628-40.928-37.853-22.931-.239-41.715 18.069-41.957 40.9-.189 17.884 11.058 33.231 26.955 39.162l-.004.002.009-.002c1.129.422 2.278.788 3.444 1.111 4.681 1.986 13.128 7.346 18.979 21.162.076.179.154.355.227.537.056.133.116.266.174.408l.008-.006c4.373 9.755 14.145 16.606 25.577 16.724 15.647.163 28.462-12.332 28.626-27.909.085-8.033-3.215-15.312-8.575-20.51"/><path fill="#35495f" d="M228 93.999C227.999 108.358 216.358 120 201.999 120c-14.358.001-26-11.641-25.999-25.999C176 79.641 187.641 68 202 68c14.356.001 25.999 11.641 26 25.999"/><path fill="#223140" d="M202 80c-7.72 0-14 6.28-14 14s6.28 14 14 14 14-6.28 14-14-6.28-14-14-14"/><circle cx="202" cy="94" r="12" fill="#48b66a"/><path fill="#223140" d="M176 98c-5.514 0-10 4.486-10 10s4.486 10 10 10 10-4.486 10-10-4.486-10-10-10"/><circle cx="176" cy="108" r="8" fill="#e94b36"/><path fill="#dadfe0" d="m203.685 65.741.019-.082s-.317-.12-.813-.265c-.2-.06-.391-.112-.6-.152-2.171-.527-6.684-1.115-12.203 1.15-5.734 2.354-7.564 5.596-8.133 7.131-.034.09-.062.176-.091.268a6 6 0 0 0-.162.612l.091.052c-.053.365-.163.72-.117 1.099.318 2.627 3.011 4.462 6.013 4.098a6.1 6.1 0 0 0 2.089-.645l.003.002c5.991-4.334 11.788-4.356 11.788-4.356 3.002-.364 5.178-2.789 4.86-5.416-.19-1.577-1.287-2.794-2.744-3.496"/><path fill="#223140" d="M195.717 64.904c2.9-.352 5.204.005 6.574.338.209.04.4.092.6.152.497.145.813.265.813.265l-.019.082c1.457.702 2.555 1.919 2.746 3.497.318 2.628-1.857 5.052-4.86 5.416 0 0-.435.002-1.19.093-2.001.243-6.249 1.116-10.598 4.263l-.003-.002a6.1 6.1 0 0 1-2.089.645c-3.002.364-5.694-1.471-6.013-4.098-.046-.379.064-.734.117-1.099l-.091-.052s.047-.248.162-.612c.028-.092.056-.178.091-.268.569-1.536 2.399-4.778 8.133-7.131a21.6 21.6 0 0 1 5.627-1.489m-.139-1.154c-2.021.245-4.046.78-6.019 1.59-6.108 2.507-8.174 5.998-8.862 7.855l-.11.326c-.135.429-.19.726-.19.726l-.137.737.103.06a2.8 2.8 0 0 0-.004.67c.395 3.259 3.746 5.543 7.471 5.092a7.6 7.6 0 0 0 2.597-.801c4.22-3.029 8.126-3.866 10.094-4.105.61-.074.976-.082 1.018-.082l.021-.003c3.885-.471 6.583-3.484 6.188-6.738-.19-1.567-1.117-2.953-2.584-3.906l.033-.137-.934-.448s-.358-.137-.919-.301a7 7 0 0 0-.735-.184c-1.468-.357-3.951-.724-7.031-.351"/><path fill="#dadfe0" d="m232.119 95.552.083.015s.103-.332.221-.851c.049-.209.091-.408.119-.625.409-2.261.75-6.932-1.829-12.476-2.679-5.76-6.035-7.457-7.608-7.955a6 6 0 0 0-.897-.21l-.047.097c-.37-.034-.732-.127-1.11-.058-2.62.476-4.313 3.346-3.782 6.411.134.775.401 1.485.763 2.111l-.002.004c4.681 5.912 5.023 11.869 5.023 11.869.531 3.065 3.085 5.164 5.705 4.688 1.576-.286 2.737-1.483 3.361-3.02"/><path fill="#223140" d="M232.52 87.316c.513 2.961.282 5.348.024 6.775-.028.217-.07.416-.119.625-.118.519-.221.851-.221.851l-.083-.015c-.624 1.537-1.785 2.734-3.359 3.02-2.62.476-5.174-1.623-5.705-4.688 0 0-.026-.447-.159-1.218-.354-2.043-1.466-6.359-4.864-10.651l.002-.004a6.4 6.4 0 0 1-.763-2.111c-.531-3.065 1.162-5.935 3.782-6.411.378-.069.74.024 1.11.058l.047-.097s.252.035.623.132c.094.024.182.048.274.078 1.573.498 4.928 2.195 7.608 7.955a22.8 22.8 0 0 1 1.803 5.701m1.15-.208a24.3 24.3 0 0 0-1.928-6.096c-2.854-6.135-6.472-8.062-8.375-8.664l-.333-.095c-.438-.115-.74-.154-.74-.154l-.747-.099-.054.11a2.8 2.8 0 0 0-.673.034c-3.25.59-5.358 4.164-4.699 7.966.162.933.48 1.816.947 2.624 3.274 4.166 4.33 8.133 4.678 10.142.108.622.136.998.139 1.042l.004.022c.687 3.966 3.861 6.568 7.105 5.979 1.563-.284 2.903-1.315 3.778-2.876l.139.026.398-.985s.118-.375.251-.962c.059-.247.109-.495.144-.765.279-1.532.511-4.105-.034-7.249"/><path fill="#f19c21" d="M186 143.998c0 9.94-8.056 18.003-18.001 18.002-9.94-.001-17.997-8.061-17.999-18.005.002-9.933 8.059-17.992 17.997-17.995 9.947.003 18.004 8.062 18.003 17.998"/><path fill="#eec41b" d="M178 143.999c.004 5.522-4.48 10.003-10.001 10.001-5.524.003-9.998-4.48-9.999-9.999 0-5.524 4.476-9.999 10.001-10.001 5.52.001 10.003 4.48 9.999 9.999"/><path fill="#35495f" d="M84 93.999c-.001 14.358-11.642 26-26.001 26.001-14.358.001-26-11.641-25.999-25.999C32 79.64 43.641 67.999 58 68c14.356.001 25.999 11.641 26 25.999"/><path fill="#2b3e51" d="M128 91c-3.86 0-7 3.14-7 7s3.14 7 7 7 7-3.14 7-7-3.14-7-7-7"/><circle cx="128" cy="98" r="6" fill="#dadfe0"/><path fill="#223140" d="M96 126h-8c-2.206 0-4 1.794-4 4v6h-6c-2.206 0-4 1.794-4 4v8c0 2.206 1.794 4 4 4h6v6c0 2.206 1.794 4 4 4h8c2.206 0 4-1.794 4-4v-6h6c2.206 0 4-1.794 4-4v-8c0-2.206-1.794-4-4-4h-6v-6c0-2.206-1.794-4-4-4"/><path fill="#dadfe0" d="M106 138h-8v-8a2 2 0 0 0-2-2h-8a2 2 0 0 0-2 2v8h-8a2 2 0 0 0-2 2v8a2 2 0 0 0 2 2h8v8a2 2 0 0 0 2 2h8a2 2 0 0 0 2-2v-8h8a2 2 0 0 0 2-2v-8a2 2 0 0 0-2-2"/><g fill="#d1d6d2"><circle cx="92" cy="144" r="4"/><path d="m78.214 143.672 5.143-2.621c.286-.146.643.036.643.328v5.242c0 .291-.357.473-.643.328l-5.143-2.621c-.285-.146-.285-.51 0-.656m27.572.656-5.143 2.621c-.286.146-.643-.036-.643-.328v-5.242c0-.291.357-.473.643-.328l5.143 2.621c.285.146.285.51 0 .656m-13.458-14.114 2.621 5.143c.146.286-.036.643-.328.643h-5.242c-.291 0-.473-.357-.328-.643l2.621-5.143c.146-.285.51-.285.656 0m-.656 27.572-2.621-5.143c-.146-.286.036-.643.328-.643h5.242c.291 0 .473.357.328.643l-2.621 5.143c-.146.285-.51.285-.656 0"/></g><path fill="#dadfe0" d="M74 94.001C74 102.836 66.836 110 58 110c-8.835.001-16-7.164-16-16s7.164-16 16-16c8.837.001 16.001 7.164 16 16.001"/><path fill="#d1d6d2" d="M54 94c0 2.206 1.795 4 3.999 4A4.004 4.004 0 0 0 62 94a4.003 4.003 0 0 0-4-4 4.004 4.004 0 0 0-4 4m1 0a3.005 3.005 0 0 1 2.999-3c1.655-.001 3 1.346 3.001 3s-1.346 3-3 3a3.004 3.004 0 0 1-3-3"/><path fill="#d1d6d2" d="M50 93.999c.001 4.411 3.589 8.001 7.999 8.001 4.413.001 8.001-3.587 8.001-8 0-4.409-3.588-8-8.001-8-4.41.001-7.999 3.591-7.999 7.999m1.001.001c0-3.86 3.139-7 6.998-7 3.862.001 7.003 3.141 7.002 7A7.007 7.007 0 0 1 58 101a7.007 7.007 0 0 1-6.999-7"/><path fill="#d1d6d2" d="M46 93.999C46 100.617 51.383 106 57.999 106c6.617.001 12.002-5.382 12.001-12 .001-6.617-5.384-11.998-12.001-12C51.384 82 46 87.383 46 93.999m.999.002c-.001-6.067 4.933-11 11-11 6.065-.002 11.001 4.933 11 10.998.001 6.066-4.935 11-11.001 11.002-6.065-.001-10.999-4.936-10.999-11"/><path fill="#93a3a3" d="M58 80.268c7.584 0 13.732 6.148 13.732 13.732S65.584 107.732 58 107.732 44.268 101.584 44.268 94 50.416 80.268 58 80.268M58 79c-8.271 0-15 6.729-15 15s6.729 15 15 15 15-6.729 15-15-6.729-15-15-15"/></svg>