<svg height="224" viewBox="0 0 309.33374 224" width="309.33374" xmlns="http://www.w3.org/2000/svg" xmlns:xlink="http://www.w3.org/1999/xlink"><clipPath id="a"><path d="m0 256h256v-256h-256z"/></clipPath><g transform="matrix(1.3333333 0 0 -1.3333333 -15.999333 282.66666)"><path d="m240 64h-224v124h224z" fill="#223140"/><g clip-path="url(#a)"><g fill="#2b3e51"><path d="m0 0c.803 0 1.52.619 1.525 1.422v.015 22.563h-232v-22.563c0-.005 0-.01 0-.015.005-.803.723-1.422 1.525-1.422z" transform="translate(242.4748 44)"/><path d="m0 0c.162.459.312.927.312 1.437v22.563h-232v-22.563c0-.51.151-.978.313-1.437z" transform="translate(243.6875 72)"/><path d="m0 0c.162.459.312.927.312 1.437v22.563h-232v-22.563c0-.51.151-.978.313-1.437z" transform="translate(243.6875 100)"/><path d="m0 0c.162.459.312.927.312 1.437v22.563h-232v-22.563c0-.51.151-.978.313-1.437z" transform="translate(243.6875 128)"/><path d="m0 0c.162.459.312.927.312 1.437v22.563h-232v-22.563c0-.51.151-.978.313-1.437z" transform="translate(243.6875 156)"/><path d="m0 0c.162.459.312.927.312 1.437v20.563c0 1.105-.895 2-2 2h-228c-1.104 0-2-.895-2-2v-20.563c0-.51.151-.978.313-1.437z" transform="translate(243.6875 184)"/></g><path d="m0 0h-152v167c0 .552.448 1 1 1h150c.552 0 1-.448 1-1z" fill="#35495f" transform="translate(203.9999 44)"/><path d="m0 0h-134c-.552 0-1 .448-1 1v79h136v-79c0-.552-.448-1-1-1" fill="#1b80bb" transform="translate(195 132)"/><path d="m0 0h-136v58c0 3.314 2.686 6 6 6h124c3.314 0 6-2.686 6-6z" fill="#2b3e51" transform="translate(196 44)"/><path d="m152 96h-48v12h48z" fill="#223140"/><path d="m0 0c-3.314 0-6-2.686-6-6s2.686-6 6-6 6 2.686 6 6-2.686 6-6 6" fill="#223140" transform="translate(30 62)"/><path d="m152 56h-48v24h48z" fill="#223140"/><path d="m0 0c2.209 0 4-1.791 4-4s-1.791-4-4-4-4 1.791-4 4 1.791 4 4 4" fill="#6c7a88" transform="translate(30 60)"/><path d="m0 0c-3.314 0-6-2.686-6-6s2.686-6 6-6 6 2.686 6 6-2.686 6-6 6" fill="#223140" transform="translate(226 62)"/><path d="m0 0c2.209 0 4-1.791 4-4s-1.791-4-4-4-4 1.791-4 4 1.791 4 4 4" fill="#6c7a88" transform="translate(226 60)"/></g></g></svg>