<svg enable-background="new 0 0 256 256" viewBox="0 0 256 256" xmlns="http://www.w3.org/2000/svg"><path d="m236 12h-13.818-2.182-194.182c-5.422 0-9.818 4.328-9.818 9.667v198.167c0 13.346 10.989 24.166 24.545 24.166h181.455c1.105 0 2-.895 2-2v-14h8v-168h4c4.418 0 8-3.582 8-8v-32c0-4.418-3.582-8-8-8z" fill="#bdc1c6"/><g fill="#93a3a3"><path d="m230 240h-6v-16h8v14c0 1.105-.895 2-2 2z"/><path d="m112 224h24l-12 8z"/><path d="m16 208h4v12h-4z"/></g><path d="m211.242 28h-170.484c-2.628 0-4.758 2.14-4.758 4.78v23.223 3.997 4 136 4l12 16h163.242c2.628 0 4.758-2.14 4.758-4.78v-15.22-136-4-27.22c0-2.64-2.13-4.78-4.758-4.78z" fill="#1b80bb"/><path d="m120.016 176 39.984-48h-24v-48c0-4.418-3.582-8-8-8h-16c-4.418 0-8 3.582-8 8v48h-24z" fill="#edefef"/><path d="m84 192h72c2.209 0 4-1.791 4-4 0-2.209-1.791-4-4-4h-72c-2.209 0-4 1.791-4 4 0 2.209 1.791 4 4 4z" fill="#edefef"/><path d="m176 156h-12v-12h-12v12h-12v12h12v12h12v-12h12z" fill="#edefef"/></svg>