<svg height="309.33331" viewBox="0 0 298.66665 309.33331" width="298.66666" xmlns="http://www.w3.org/2000/svg" xmlns:xlink="http://www.w3.org/1999/xlink"><clipPath id="a"><path d="m0 256h256v-256h-256z"/></clipPath><g clip-path="url(#a)" transform="matrix(1.3333333 0 0 -1.3333333 -21.333333 325.33333)"><path d="m0 0c0 1.105.895 2 2 2v4c-1.105 0-2 .895-2 2s.895 2 2 2v4c-1.105 0-2 .895-2 2s.895 2 2 2v4c-1.105 0-2 .895-2 2s.895 2 2 2v4c-1.105 0-2 .895-2 2s.895 2 2 2v6c0 1.105-.895 2-2 2h-220c-1.105 0-2-.895-2-2v-6c1.105 0 2-.895 2-2s-.895-2-2-2v-4c1.105 0 2-.895 2-2s-.895-2-2-2v-4c1.105 0 2-.895 2-2s-.895-2-2-2v-4c1.105 0 2-.895 2-2s-.895-2-2-2v-4c1.105 0 2-.895 2-2s-.895-2-2-2v-186c0-1.105.895-2 2-2h220c1.105 0 2 .895 2 2v186c-1.105 0-2 .895-2 2" fill="#35495f" transform="translate(238 202)"/><path d="m0 0c-1.485 0-2.6-1.091-2.6-2.545v-53.455h104v53.455c0 1.454-1.115 2.545-2.6 2.545z" fill="#2b3e51" transform="translate(78.6 68)"/><path d="m0 0c-3.314 0-6-2.686-6-6s2.686-6 6-6 6 2.686 6 6-2.686 6-6 6" fill="#223140" transform="translate(34 188)"/><path d="m0 0c2.209 0 4-1.791 4-4s-1.791-4-4-4-4 1.791-4 4 1.791 4 4 4" fill="#6c7a88" transform="translate(34 186)"/><path d="m0 0c-3.314 0-6-2.686-6-6s2.686-6 6-6 6 2.686 6 6-2.686 6-6 6" fill="#223140" transform="translate(222 188)"/><path d="m0 0c2.209 0 4-1.791 4-4s-1.791-4-4-4-4 1.791-4 4 1.791 4 4 4" fill="#6c7a88" transform="translate(222 186)"/><path d="m0 0c-3.314 0-6-2.686-6-6s2.686-6 6-6 6 2.686 6 6-2.686 6-6 6" fill="#223140" transform="translate(34 32)"/><path d="m0 0c2.209 0 4-1.791 4-4s-1.791-4-4-4-4 1.791-4 4 1.791 4 4 4" fill="#6c7a88" transform="translate(34 30)"/><path d="m0 0c-3.314 0-6-2.686-6-6s2.686-6 6-6 6 2.686 6 6-2.686 6-6 6" fill="#223140" transform="translate(222 32)"/><path d="m0 0c2.209 0 4-1.791 4-4s-1.791-4-4-4-4 1.791-4 4 1.791 4 4 4" fill="#6c7a88" transform="translate(222 30)"/><path d="m0 0h-87c-.276 0-.5.224-.5.5v19c0 .276.224.5.5.5h87c.276 0 .5-.224.5-.5v-19c0-.276-.224-.5-.5-.5" fill="#1b80bb" transform="translate(171.5 216)"/><path d="m144 44h-32v24h32z" fill="#223140"/><path d="m58 12h-2v232h2z" fill="#223140"/><path d="m200 12h-2v232h2z" fill="#223140"/><path d="m0 0h-160c-6.945 0-10-3.089-10-10.11v-55.78c0-7.021 3.055-10.11 10-10.11h160c6.945 0 10 3.089 10 10.11v55.78c0 7.021-3.055 10.11-10 10.11" fill="#1b80bb" transform="translate(207.9998 168)"/><path d="m0 0h-191.178c-1.333 0-2.411.895-2.411 2s1.078 2 2.411 2h191.178c1.333 0 2.411-.895 2.411-2s-1.078-2-2.411-2" fill="#223140" transform="translate(223.589 84)"/><path d="m0 0c0-6.627-5.373-12-12-12s-12 5.373-12 12 5.373 12 12 12 12-5.373 12-12" fill="#2b3e51" transform="translate(140 194)"/><path d="m0 0v-39.235c-38.203-14.451-62.044-14.451-100.247 0v39.235h-1.876v-39.235-1.343l1.228-.465c20.032-7.578 35.691-10.957 50.772-10.957 15.08 0 30.739 3.379 50.772 10.957l1.228.465v1.343 39.235z" fill="#223140" transform="translate(178.1234 244)"/><g fill="#2b3e51"><path d="m0 0c1.105 0 2-.895 2-2s-.895-2-2-2h10c1.105 0 2 .895 2 2s-.895 2-2 2z" transform="translate(16 236)"/><path d="m0 0c1.105 0 2-.895 2-2s-.895-2-2-2h10c1.105 0 2 .895 2 2s-.895 2-2 2z" transform="translate(16 228)"/><path d="m0 0c1.105 0 2-.895 2-2s-.895-2-2-2h10c1.105 0 2 .895 2 2s-.895 2-2 2z" transform="translate(16 220)"/><path d="m0 0c1.105 0 2-.895 2-2s-.895-2-2-2h10c1.105 0 2 .895 2 2s-.895 2-2 2z" transform="translate(16 212)"/><path d="m0 0c1.105 0 2-.895 2-2s-.895-2-2-2h10c1.105 0 2 .895 2 2s-.895 2-2 2z" transform="translate(16 204)"/><path d="m0 0c-1.105 0-2-.895-2-2s.895-2 2-2h-10c-1.105 0-2 .895-2 2s.895 2 2 2z" transform="translate(240 236)"/><path d="m0 0c-1.105 0-2-.895-2-2s.895-2 2-2h-10c-1.105 0-2 .895-2 2s.895 2 2 2z" transform="translate(240 228)"/><path d="m0 0c-1.105 0-2-.895-2-2s.895-2 2-2h-10c-1.105 0-2 .895-2 2s.895 2 2 2z" transform="translate(240 220)"/><path d="m0 0c-1.105 0-2-.895-2-2s.895-2 2-2h-10c-1.105 0-2 .895-2 2s.895 2 2 2z" transform="translate(240 212)"/><path d="m0 0c-1.105 0-2-.895-2-2s.895-2 2-2h-10c-1.105 0-2 .895-2 2s.895 2 2 2z" transform="translate(240 204)"/></g></g></svg>