<svg xmlns="http://www.w3.org/2000/svg" viewBox="0 0 256 256"><path fill="#d1d6d2" d="M224 92s-8.273-11.954-24.144-13.371-27.541 0-27.541 0-2.297.405-2.315 2.023zM32 92s8.273-11.954 24.144-13.371 27.541 0 27.541 0 2.297.405 2.315 2.023z"/><path fill="#ececed" d="M196.899 80H59.6c-25.609 0-46.918 20.632-47.584 46.721C11.325 153.815 32.671 176 59.101 176c9.969 0 19.213-3.158 26.825-8.543 2.695-1.907 5.924-2.874 9.205-2.874h65.767c3.279 0 6.498.982 9.193 2.886 7.696 5.44 17.059 8.603 27.151 8.53 25.498-.186 46.401-21.338 46.753-47.321.364-26.82-20.862-48.678-47.096-48.678"/><circle cx="196" cy="128" r="44" fill="#6c7a88"/><path fill="#223140" d="M78 120H68v-10a2 2 0 0 0-2-2H54a2 2 0 0 0-2 2v10H42a2 2 0 0 0-2 2v12a2 2 0 0 0 2 2h10v10a2 2 0 0 0 2 2h12a2 2 0 0 0 2-2v-10h10a2 2 0 0 0 2-2v-12a2 2 0 0 0-2-2"/><circle cx="60" cy="128" r="4" fill="#2b3e51"/><path fill="#d1d6d2" d="M208 112c0-6.617-5.383-12-12-12-2.456 0-4.739.744-6.643 2.015l-.001-.002-.021.015q-.078.054-.155.11l-22.976 16.361c-.773.428-1.487.945-2.144 1.526l-.06.044.005.007c-2.451 2.199-4.005 5.38-4.005 8.924 0 6.617 5.383 12 12 12 2.185 0 4.229-.596 5.995-1.621l.005.007.102-.072a12 12 0 0 0 1.631-1.153l22.769-16.091q.35-.23.683-.483l.004-.003c2.914-2.19 4.811-5.665 4.811-9.584"/><path fill="#48b66a" d="M172 121a8 8 0 1 0 0 16 8 8 0 0 0 0-16"/><path fill="#1eae5b" d="M172 121a8 8 0 1 1 0 16 8 8 0 0 1 0-16m0-1c-4.963 0-9 4.037-9 9s4.037 9 9 9 9-4.037 9-9-4.037-9-9-9"/><path fill="#3394d1" d="M196 104a8 8 0 1 0 0 16 8 8 0 0 0 0-16"/><path fill="#1b80bb" d="M196 104a8 8 0 1 1 0 16 8 8 0 0 1 0-16m0-1c-4.963 0-9 4.037-9 9s4.037 9 9 9 9-4.037 9-9-4.037-9-9-9"/><path fill="#d1d6d2" d="M232 131c0-6.617-5.383-12-12-12-2.456 0-4.739.744-6.643 2.015l-.001-.002-.021.015q-.078.054-.155.11l-22.976 16.361c-.773.428-1.487.945-2.144 1.526l-.06.044.005.007c-2.451 2.199-4.005 5.38-4.005 8.924 0 6.617 5.383 12 12 12 2.185 0 4.229-.596 5.995-1.621l.005.007.102-.072a12 12 0 0 0 1.631-1.153l22.769-16.091q.35-.23.683-.483l.004-.003c2.914-2.19 4.811-5.665 4.811-9.584"/><path fill="#eec41b" d="M196 140a8 8 0 1 0 0 16 8 8 0 0 0 0-16"/><path fill="#f19c21" d="M196 140a8 8 0 1 1 0 16 8 8 0 0 1 0-16m0-1c-4.963 0-9 4.037-9 9s4.037 9 9 9 9-4.037 9-9-4.037-9-9-9"/><path fill="#e94b36" d="M220 123a8 8 0 1 0 0 16 8 8 0 0 0 0-16"/><path fill="#c13c28" d="M220 123a8 8 0 1 1 0 16 8 8 0 0 1 0-16m0-1c-4.963 0-9 4.037-9 9s4.037 9 9 9 9-4.037 9-9-4.037-9-9-9"/><path fill="#223140" d="M139.387 137.011c-.567-.643-1.427-1.011-2.36-1.011-.658 0-1.283.184-1.806.534l-10.248 6.833c-1.3.867-1.547 2.492-.55 3.622.567.642 1.427 1.011 2.36 1.011a3.24 3.24 0 0 0 1.806-.534l10.249-6.834c1.3-.866 1.547-2.491.549-3.621"/><path fill="#d1d6d2" d="M137.028 136c.933 0 1.793.368 2.36 1.011.997 1.13.751 2.755-.549 3.622l-10.249 6.834a3.24 3.24 0 0 1-1.806.534c-.933 0-1.793-.369-2.36-1.011-.997-1.13-.751-2.755.55-3.622l10.248-6.833a3.2 3.2 0 0 1 1.806-.535m0-1c-.857 0-1.674.243-2.362.702l-10.248 6.833c-.876.584-1.451 1.481-1.58 2.461-.125.959.171 1.902.835 2.654.757.858 1.891 1.35 3.11 1.35.856 0 1.673-.243 2.361-.702l10.249-6.834c.876-.584 1.451-1.481 1.579-2.461.125-.959-.171-1.902-.835-2.654-.756-.857-1.89-1.349-3.109-1.349"/><path fill="#223140" d="M113.218 136c-.658 0-1.283.184-1.806.534l-10.248 6.833c-.63.42-1.034 1.028-1.138 1.712s.105 1.362.588 1.91c.567.642 1.427 1.011 2.36 1.011a3.24 3.24 0 0 0 1.806-.534l10.248-6.834c.63-.42 1.034-1.028 1.138-1.712s-.105-1.363-.588-1.91c-.567-.642-1.427-1.01-2.36-1.01"/><path fill="#d1d6d2" d="M113.218 136c.933 0 1.793.368 2.36 1.011.483.548.692 1.226.588 1.91s-.508 1.292-1.138 1.712l-10.248 6.834a3.24 3.24 0 0 1-1.806.534c-.933 0-1.793-.369-2.36-1.011-.483-.548-.692-1.226-.588-1.91s.508-1.292 1.138-1.712l10.248-6.833a3.2 3.2 0 0 1 1.806-.535m0-1c-.857 0-1.674.243-2.362.702l-10.248 6.833c-.867.578-1.425 1.428-1.571 2.394-.149.982.145 1.948.827 2.721.757.858 1.891 1.35 3.11 1.35.856 0 1.673-.243 2.361-.702l10.248-6.834c.867-.577 1.425-1.428 1.571-2.394.149-.982-.145-1.948-.827-2.721-.756-.857-1.889-1.349-3.109-1.349"/><path fill="#2b3e51" d="m42.417 127.357 6.332-3.256c.556-.286 1.251.072 1.251.643v6.512c0 .572-.695.929-1.251.643l-6.332-3.256c-.556-.285-.556-1 0-1.286m35.166 1.286-6.332 3.256c-.556.286-1.251-.072-1.251-.643v-6.512c0-.572.695-.929 1.251-.643l6.332 3.256c.556.285.556 1 0 1.286m-16.94-18.226 3.256 6.332c.286.556-.071 1.251-.643 1.251h-6.512c-.572 0-.929-.695-.643-1.251l3.256-6.332c.285-.556 1-.556 1.286 0m-1.286 35.166-3.256-6.332c-.286-.556.071-1.251.643-1.251h6.512c.572 0 .929.695.643 1.251l-3.256 6.332c-.285.556-1 .556-1.286 0"/><path fill="#d1d6d2" d="M60 102c14.336 0 26 11.664 26 26s-11.664 26-26 26-26-11.664-26-26 11.664-26 26-26m0-2c-15.464 0-28 12.536-28 28s12.536 28 28 28 28-12.536 28-28-12.536-28-28-28m64-20h8v2h-8z"/></svg>