<svg enable-background="new 0 0 256 256" viewBox="0 0 256 256" xmlns="http://www.w3.org/2000/svg"><path d="m36 52 80-8h24l80 8z" fill="#c13c28"/><path d="m60 210.105c4.993-5.941 10.41-18.16 20-32.991 12.752-19.72 36-25.114 48-25.114s35.248 5.394 48 25.115c9.59 14.831 15.007 27.049 20 32.991 1.819 2.164 8 2.864 8 0v-74.106h-24-12-80-8-28v74.105c0 2.864 6.181 2.165 8 0z" fill="#223140"/><path d="m14 120h.028l-2.015 17.779c-.135 1.185.811 2.221 2.027 2.221l9.96 4v-24h208v24l9.96-4c1.216 0 2.162-1.036 2.027-2.221l-2.015-17.779h.028c1.105 0 2-.895 2-2v-20c0-1.105-.895-2-2-2h-228c-1.105 0-2 .895-2 2v20c0 1.105.895 2 2 2z" fill="#2b3e51"/><path d="m36 128h184v12h-184z" fill="#c13c28"/><path d="m218 124h12c1.105 0 2 .895 2 2v18h-14c-1.105 0-2-.895-2-2v-16c0-1.105.895-2 2-2z" fill="#223140"/><path d="m38 124h-12c-1.105 0-2 .895-2 2v18h14c1.105 0 2-.895 2-2v-16c0-1.105-.895-2-2-2z" fill="#223140"/><path d="m36 134v-4c0-1.105.895-2 2-2h50 40 40 50c1.105 0 2 .895 2 2v4c0 1.105.895 2 2 2h19.871c1.154 0 2.068-.973 1.996-2.125l-3.867-61.875s-8-20-20-20-92-4-92-4-80 4-92 4-20 20-20 20l-3.867 61.875c-.072 1.151.842 2.125 1.996 2.125h19.871c1.105 0 2-.895 2-2z" fill="#e94b36"/><path d="m144 132h12v4h-12z" fill="#b80000" transform="matrix(-1 0 0 -1 300 268)"/><path d="m100 132h12v4h-12z" fill="#b80000" transform="matrix(-1 0 0 -1 212 268)"/><path d="m212 92h-44l-16-32h-48l-16 32h-44c-4.418 0-8 3.582-8 8v4c0 4.418 3.582 8 8 8l44 4v20l2.669 9.337c.785 1.569 2.492 2.445 4.223 2.159 5.159-.855 16.589-2.557 29.109-3.167v-.205c1.336 0 2.67.02 4 .054 1.33-.034 2.664-.054 4-.054v.205c12.52.611 23.95 2.312 29.109 3.167 1.731.287 3.438-.589 4.223-2.159l2.667-9.337v-20l44-4c4.418 0 8-3.582 8-8v-4c0-4.418-3.582-8-8-8z" fill="#d35627"/><path d="m164 92h4v24h-4z" fill="#c13c28"/><path d="m124 88h4 4l16-8v-8l-16-8h-4-4l-16 8v8z" fill="#999"/><path d="m223 54c.552 0 1 .448 1 1v68c0 .552-.448 1-1 1-.552 0-1-.448-1-1v-68c0-.552.448-1 1-1z" fill="#c13c28"/><path d="m140 78s0 0 0-4l8-2v8z" fill="#b3b3b3"/><path d="m88 92h4v24h-4z" fill="#c13c28"/><path d="m33 54c-.552 0-1 .448-1 1v68c0 .552.448 1 1 1 .552 0 1-.448 1-1v-68c0-.552-.448-1-1-1z" fill="#c13c28"/><path d="m116 78s0 0 0-4l-8-2v8z" fill="#b3b3b3"/><circle cx="128" cy="76" fill="#b3b3b3" r="12"/><path d="m116 74h24v4h-24z" fill="#ccc" transform="matrix(-1 0 0 -1 256 152)"/><path d="m92 94h72v20h-72z" fill="#e94b36"/><path d="m102 92h52c1.105 0 2 .895 2 2v20c0 1.105-.895 2-2 2h-52c-1.105 0-2-.895-2-2v-20c0-1.105.895-2 2-2z" fill="#999"/><path d="m124 92h8v24h-8z" fill="#b3b3b3" transform="matrix(-1 0 0 -1 256 208)"/><path d="m116 44c12 4 12 4 12 4l12-4z" fill="#e94b36"/><path d="m130 72h-4l2-4z" fill="#999"/><g fill="#8c8c8c"><path d="m108 102v4l-4-2z"/><path d="m148 106v-4l4 2z"/></g></svg>