<svg enable-background="new 0 0 256 256" viewBox="0 0 256 256" xmlns="http://www.w3.org/2000/svg"><path d="m187.111 17.796s24-4 24 64h-8z" fill="#1b80bb"/><path d="m215.22 113.821c-4.005-99.821-36.045-99.821-36.045-99.821h-96.12-6.007-2.003c-36.045 3.993-36.045 99.821-36.045 99.821v67.879c0 39.929 52.065 39.929 52.065 39.929 60.075 0 72.09 7.986 72.09 7.986 44.472 27.284 50.958 2.132 51.904-5.785.16-1.34.357-2.676.576-4.008.908-5.531 2.754-27.02-.415-106.001z" fill="#dadfe0"/><path d="m191.739 208h12 8c.859-8.898.893-30.702-1.687-95.203-3.8-95.001-34.2-95.001-34.2-95.001h-91.201-5.7c-2.033 0-4.072.257-5.995.916-30.106 10.318-29.217 94.085-29.217 94.085v63.203c0 38 48 40 48 40 57.001 0 68 8 68 8 13.35 8.216 24.89 11.675 32 12z" fill="#edefef"/><path d="m128 189c1.657 0 3 1.343 3 3s-1.343 3-3 3-3-1.343-3-3 1.343-3 3-3m0-2c-2.757 0-5 2.243-5 5s2.243 5 5 5 5-2.243 5-5-2.243-5-5-5z" fill="#dadfe0"/><path d="m128 160c4.418 0 8 3.582 8 8s-3.582 8-8 8-8-3.582-8-8 3.582-8 8-8m0-2c-5.514 0-10 4.486-10 10s4.486 10 10 10 10-4.486 10-10-4.486-10-10-10z" fill="#dadfe0"/><path d="m77.762 144.087c-13.655 1.06-24.693 12.166-25.686 25.826-.332 4.564.435 8.915 2.059 12.82.315.759 1.041 1.266 1.863 1.266h10.002c1.105 0 2 .895 2 2v10.002c0 .822.508 1.548 1.266 1.863 3.905 1.623 8.255 2.39 12.819 2.059 13.659-.992 24.766-12.029 25.828-25.683 1.339-17.226-12.924-31.491-30.151-30.153z" fill="#3394d1"/><ellipse cx="128" cy="88" fill="#223140" rx="68" ry="52"/><path d="m164 120h-72c-6.6 0-12-5.4-12-12v-40c0-6.6 5.4-12 12-12h72c6.6 0 12 5.4 12 12v40c0 6.6-5.4 12-12 12z" fill="#6c7a88"/><path d="m101 163h-12v-12c0-1.657-1.343-3-3-3h-12c-1.657 0-3 1.343-3 3v12h-12c-1.657 0-3 1.343-3 3v12c0 1.657 1.343 3 3 3h12v12c0 1.657 1.343 3 3 3h12c1.657 0 3-1.343 3-3v-12h12c1.657 0 3-1.343 3-3v-12c0-1.657-1.343-3-3-3z" fill="#1b80bb"/><g fill="#3394d1"><circle cx="80" cy="172" r="6"/><path d="m59.321 171.509 7.714-3.932c.429-.218.964.055.964.491v7.863c0 .437-.536.71-.964.491l-7.714-3.932c-.428-.217-.428-.763 0-.981z"/><path d="m100.679 172.491-7.714 3.932c-.429.218-.964-.055-.964-.491v-7.863c0-.437.536-.71.964-.491l7.714 3.932c.428.217.428.763 0 .981z"/><path d="m80.491 151.321 3.932 7.714c.218.429-.055.964-.491.964h-7.863c-.437 0-.71-.536-.491-.964l3.932-7.714c.217-.428.763-.428.981 0z"/><path d="m79.509 192.679-3.932-7.714c-.218-.429.055-.964.491-.964h7.863c.437 0 .71.536.491.964l-3.932 7.714c-.217.428-.763.428-.981 0z"/></g><circle cx="128" cy="168" fill="#d1d6d2" r="4"/><path d="m156 168h4v8h-4z" fill="#3394d1"/><path d="m149.172 193.172h5.657v5.657h-5.657z" fill="#3394d1" transform="matrix(.7071 -.7071 .7071 .7071 -94.0732 164.8873)"/><path d="m181.172 169.172h5.657v5.657h-5.657z" fill="#3394d1" transform="matrix(.7071 -.7071 .7071 .7071 -67.73 180.4853)"/><path d="m181.172 149.172h5.657v5.657h-5.657z" fill="#3394d1" transform="matrix(.7071 -.7071 .7071 .7071 -53.5879 174.6274)"/><path d="m197.172 169.172h5.657v5.657h-5.657z" fill="#3394d1" transform="matrix(.7071 -.7071 .7071 .7071 -63.0437 191.799)"/><circle cx="128" cy="192" fill="#d1d6d2" r="2"/><path d="m104 14h48v4h-48z" fill="#d1d6d2"/><circle cx="200" cy="216" fill="#d1d6d2" r="4"/><path d="m168 184h8v4h-8z" fill="#3394d1"/><circle cx="160" cy="185.796" fill="#1b80bb" r="12"/><circle cx="192" cy="161.796" fill="#1b80bb" r="12"/></svg>