<svg xmlns="http://www.w3.org/2000/svg" viewBox="0 0 256 256"><path fill="#dadfe0" d="M12 46v10a2 2 0 1 1 0 4v4a2 2 0 1 1 0 4v4a2 2 0 1 1 0 4v4a2 2 0 1 1 0 4v4a2 2 0 1 1 0 4v120a4 4 0 0 0 4 4h224a4 4 0 0 0 4-4V92a2 2 0 1 1 0-4v-4a2 2 0 1 1 0-4v-4a2 2 0 1 1 0-4v-4a2 2 0 1 1 0-4v-4a2 2 0 1 1 0-4V46a2 2 0 0 0-2-2H14a2 2 0 0 0-2 2"/><path fill="#7f8b8c" d="M54 44h2v172h-2zm146 0h2v172h-2z"/><path fill="#1b80bb" d="M209.778 54H46.222C39.123 54 36 56.926 36 63.578v52.844c0 6.652 3.123 9.578 10.222 9.578h163.555c7.099 0 10.222-2.926 10.222-9.578V63.578C220 56.926 216.877 54 209.778 54"/><path fill="#93a3a3" d="M190 164H66c-3.3 0-6-2.7-6-6s2.7-6 6-6h124c3.3 0 6 2.7 6 6s-2.7 6-6 6"/><path fill="#7f8b8c" d="M104 152h48v12h-48zm-74 46a6 6 0 1 0 0 12 6 6 0 0 0 0-12"/><circle cx="30" cy="204" r="4" fill="#6c7a88"/><path fill="#7f8b8c" d="M226 198a6 6 0 1 0 0 12 6 6 0 0 0 0-12"/><circle cx="226" cy="204" r="4" fill="#6c7a88"/><path fill="#7f8b8c" d="M12 56a2 2 0 1 1 0 4h10a2 2 0 1 0 0-4zm0 8a2 2 0 1 1 0 4h10a2 2 0 1 0 0-4zm0 8a2 2 0 1 1 0 4h10a2 2 0 1 0 0-4zm0 8a2 2 0 1 1 0 4h10a2 2 0 1 0 0-4zm0 8a2 2 0 1 1 0 4h10a2 2 0 1 0 0-4zm232-32a2 2 0 1 0 0 4h-10a2 2 0 1 1 0-4zm0 8a2 2 0 1 0 0 4h-10a2 2 0 1 1 0-4zm0 8a2 2 0 1 0 0 4h-10a2 2 0 1 1 0-4zm0 8a2 2 0 1 0 0 4h-10a2 2 0 1 1 0-4zm0 8a2 2 0 1 0 0 4h-10a2 2 0 1 1 0-4z"/></svg>