<svg xmlns="http://www.w3.org/2000/svg" viewBox="0 0 256 256"><path fill="#d1d6d2" d="M14 80h228v8H14z"/><path fill="#ececed" d="M62 79.971s20-19.983 64-19.983 64 19.983 64 19.983h52V32.013s0-11.99-12-11.99c-9.795 0-73.551-4.216-96.656-5.765a128 128 0 0 0-16.741-.026L26 20.023s-12 0-12 11.99v47.958z"/><circle cx="34" cy="57.029" r="4" fill="#dadfe0"/><circle cx="34" cy="57.029" r="2" fill="#d1d6d2"/><circle cx="222" cy="57.029" r="4" fill="#dadfe0"/><circle cx="222" cy="57.029" r="2" fill="#d1d6d2"/><path fill="#edefef" d="M14 88v128s28 24 112 24 116-24 116-24V88z"/><path fill="#dadfe0" d="M214 93.029H38c-6.6 0-12 5.4-12 12v72c0 2.2 1.8 4 4 4 0 0 32 20 96 20s96-20 96-20c2.2 0 4-1.8 4-4v-72c0-6.6-5.4-12-12-12m-104 128h32l-16 12z"/><path fill="#1b80bb" d="M38 97.029s-8 0-8 8v72s36 20 96 20 96-20 96-20v-72s0-8-8-8z"/><path fill="#10a284" d="M38 80h24v8H38zm152 0h28v8h-28z"/><path fill="#25b796" d="M38 32v48h24V40h128v40h28V32z"/><path fill="#7f8b8c" d="M62 60h128v28H62z"/><path fill="#93a3a3" d="M62 40v40s20-20 64-20 64 20 64 20V40z"/></svg>