<svg xmlns="http://www.w3.org/2000/svg" viewBox="0 0 256 256"><path fill="#1b80bb" d="M184.667 12H71.333C65.074 12 60 17.026 60 23.226v202.065c0 24.946 136 24.946 136 0V23.226c0-6.2-5.074-11.226-11.333-11.226"/><path fill="#3394d1" d="M84 12h88v208H84z"/><path fill="#223140" d="M180.778 20H75.222C71.233 20 68 23.222 68 27.196v85.292c0 4.637 3.772 8.395 8.426 8.395H75.5c35 4.04 70 4.269 105 0h-.926c4.654 0 8.426-3.759 8.426-8.395V27.196c0-3.974-3.233-7.196-7.222-7.196"/><path fill="#6c7a88" d="M88 32h80v68H88z"/><path fill="#223140" d="M104 156H92v-12H80v12H68v12h12v12h12v-12h12z"/><g fill="#2b3e51"><circle cx="86" cy="162" r="4"/><path d="m71 162 5-3v6zm30 0-5-3v6zm-15 15-3-5h6zm0-30-3 5h6z"/></g><circle cx="150" cy="166" r="8" fill="#223140"/><circle cx="172" cy="156" r="8" fill="#223140"/><path fill="#223140" d="M116.463 204h-8.926c-1.945 0-3.537-1.35-3.537-3s1.592-3 3.537-3h8.926c1.945 0 3.537 1.35 3.537 3s-1.592 3-3.537 3m28 0h-8.926c-1.945 0-3.537-1.35-3.537-3s1.592-3 3.537-3h8.926c1.945 0 3.537 1.35 3.537 3s-1.592 3-3.537 3"/><circle cx="161" cy="229" r="1" fill="#35495f"/><circle cx="161" cy="225" r="1" fill="#223140"/><circle cx="161" cy="221" r="1" fill="#35495f"/><circle cx="161" cy="217" r="1" fill="#223140"/><circle cx="161" cy="213" r="1" fill="#35495f"/><circle cx="161" cy="209" r="1" fill="#223140"/><circle cx="161" cy="205" r="1" fill="#35495f"/><circle cx="157" cy="225" r="1" fill="#35495f"/><circle cx="157" cy="221" r="1" fill="#223140"/><circle cx="157" cy="217" r="1" fill="#35495f"/><circle cx="157" cy="213" r="1" fill="#223140"/><circle cx="157" cy="209" r="1" fill="#35495f"/><circle cx="157" cy="205" r="1" fill="#223140"/><circle cx="161" cy="201" r="1" fill="#223140"/><circle cx="165" cy="229" r="1" fill="#223140"/><circle cx="165" cy="225" r="1" fill="#35495f"/><circle cx="165" cy="221" r="1" fill="#223140"/><circle cx="165" cy="217" r="1" fill="#35495f"/><circle cx="165" cy="213" r="1" fill="#223140"/><circle cx="165" cy="209" r="1" fill="#35495f"/><circle cx="165" cy="205" r="1" fill="#223140"/><circle cx="165" cy="201" r="1" fill="#35495f"/><circle cx="169" cy="229" r="1" fill="#35495f"/><circle cx="169" cy="225" r="1" fill="#223140"/><circle cx="169" cy="221" r="1" fill="#35495f"/><circle cx="169" cy="217" r="1" fill="#223140"/><circle cx="169" cy="213" r="1" fill="#35495f"/><circle cx="169" cy="209" r="1" fill="#223140"/><circle cx="169" cy="205" r="1" fill="#35495f"/><circle cx="169" cy="201" r="1" fill="#223140"/><circle cx="173" cy="229" r="1" fill="#223140"/><circle cx="173" cy="225" r="1" fill="#35495f"/><circle cx="173" cy="221" r="1" fill="#223140"/><circle cx="173" cy="217" r="1" fill="#35495f"/><circle cx="173" cy="213" r="1" fill="#223140"/><circle cx="173" cy="209" r="1" fill="#35495f"/><circle cx="173" cy="205" r="1" fill="#223140"/><circle cx="173" cy="201" r="1" fill="#35495f"/><circle cx="177" cy="229" r="1" fill="#35495f"/><circle cx="177" cy="225" r="1" fill="#223140"/><circle cx="177" cy="221" r="1" fill="#35495f"/><circle cx="177" cy="217" r="1" fill="#223140"/><circle cx="177" cy="213" r="1" fill="#35495f"/><circle cx="177" cy="209" r="1" fill="#223140"/><circle cx="177" cy="205" r="1" fill="#35495f"/><circle cx="177" cy="201" r="1" fill="#223140"/><circle cx="181" cy="229" r="1" fill="#223140"/><circle cx="181" cy="225" r="1" fill="#35495f"/><circle cx="181" cy="221" r="1" fill="#223140"/><circle cx="181" cy="217" r="1" fill="#35495f"/><circle cx="181" cy="213" r="1" fill="#223140"/><circle cx="181" cy="209" r="1" fill="#35495f"/><circle cx="181" cy="205" r="1" fill="#223140"/><circle cx="185" cy="225" r="1" fill="#223140"/><circle cx="185" cy="221" r="1" fill="#35495f"/><circle cx="185" cy="217" r="1" fill="#223140"/><circle cx="185" cy="213" r="1" fill="#35495f"/><circle cx="185" cy="209" r="1" fill="#223140"/><circle cx="185" cy="205" r="1" fill="#35495f"/><circle cx="181" cy="201" r="1" fill="#35495f"/><circle cx="78" cy="58" r="2" fill="#e94b36"/></svg>