<svg height="309.33331" viewBox="0 0 298.66665 309.33331" width="298.66666" xmlns="http://www.w3.org/2000/svg" xmlns:xlink="http://www.w3.org/1999/xlink"><clipPath id="a"><path d="m0 256h256v-256h-256z"/></clipPath><g clip-path="url(#a)" transform="matrix(1.3333333 0 0 -1.3333333 -21.333333 325.33333)"><path d="m0 0-4-4h-68l-4 4h-124c-6.6 0-12-5.4-12-12v-208c0-6.6 5.4-12 12-12h200c6.6 0 12 5.4 12 12v208c0 6.6-5.4 12-12 12" fill="#93a3a3" transform="translate(228 244)"/><path d="m0 0-4 4h-56v-44c0-17.673 14.327-32 32-32s32 14.327 32 32v40z" fill="#d1d6d2" transform="translate(156 240)"/><path d="m0 0h-32v-44c0-17.673 14.327-32 32-32z" fill="#7f8b8c" transform="translate(128 244)"/><path d="m0 0v-40c0-11.046 8.954-20 20-20s20 8.954 20 20v40z" fill="#dadfe0" transform="translate(108 244)"/><path d="m0 0h24l-12 8z" fill="#7f8b8c" transform="translate(116 220)"/><path d="m0 0v-60h32v28c0 17.673-14.327 32-32 32" fill="#d1d6d2" transform="translate(128 80)"/><path d="m0 0c-17.673 0-32-14.327-32-32v-28h32z" fill="#7f8b8c" transform="translate(128 80)"/><path d="m0 0c-11.046 0-20-8.954-20-20v-24-8h40v8 24c0 11.046-8.954 20-20 20" fill="#dadfe0" transform="translate(128 64)"/><g fill="#7f8b8c"><path d="m0 0c0-1.105-.895-2-2-2s-2 .895-2 2 .895 2 2 2 2-.895 2-2" transform="translate(118 30)"/><path d="m0 0c0-1.105-.895-2-2-2s-2 .895-2 2 .895 2 2 2 2-.895 2-2" transform="translate(126 30)"/><path d="m0 0c0-1.105-.895-2-2-2s-2 .895-2 2 .895 2 2 2 2-.895 2-2" transform="translate(134 30)"/><path d="m0 0c0-1.105-.895-2-2-2s-2 .895-2 2 .895 2 2 2 2-.895 2-2" transform="translate(142 30)"/><path d="m0 0c-9.762 0-19.611-.7-29.274-2.08l-27.597-4.153-.06-.009-.059-.013c-5.511-1.174-9.51-6.11-9.51-11.735v-52c0-6.617 5.383-12 12-12h112c6.617 0 12 5.383 12 12v52c0 6.569-5.306 11.922-11.857 11.999l-29.359 4.05c-9.34 1.288-18.856 1.941-28.284 1.941" transform="translate(126.5 163.9902)"/></g><path d="m0 0-29.489 4.067c-18.915 2.609-38.101 2.563-57.002-.137l-27.583-4.151c-4.513-.962-7.926-4.99-7.926-9.779v-52c0-5.5 4.5-10 10-10h112c5.5 0 10 4.5 10 10v52c0 5.5-4.5 10-10 10" fill="#1b80bb" transform="translate(184 156)"/><path d="m52 20h-16v224h16z" fill="#d1d6d2"/><path d="m204 20h16v220h-16z" fill="#7f8b8c"/><path d="m0 0h-72l16 4h44z" fill="#bdc1c6" transform="translate(108 20)"/><path d="m0 0h-72l12 4h44z" fill="#bdc1c6" transform="translate(220 20)"/></g></svg>