<svg height="301.37146" viewBox="0 0 304 301.37146" width="304" xmlns="http://www.w3.org/2000/svg" xmlns:xlink="http://www.w3.org/1999/xlink"><clipPath id="a"><path d="m0 256h256v-256h-256z"/></clipPath><g transform="matrix(1.3333333 0 0 -1.3333333 -18.666666 322.70479)"><path d="m242 168h-228v8h228z" fill="#d1d6d2"/><g clip-path="url(#a)"><path d="m0 0s20 19.983 64 19.983 64-19.983 64-19.983h52v47.958s0 11.99-12 11.99c-9.795 0-73.551 4.215-96.656 5.765-5.576.374-11.164.382-16.74.026l-90.604-5.791s-12 0-12-11.99v-47.958z" fill="#ececed" transform="translate(62 176.0287)"/><path d="m0 0c0-2.209-1.791-4-4-4s-4 1.791-4 4 1.791 4 4 4 4-1.791 4-4" fill="#dadfe0" transform="translate(38 198.9713)"/><path d="m0 0c0-1.105-.895-2-2-2s-2 .895-2 2 .895 2 2 2 2-.895 2-2" fill="#d1d6d2" transform="translate(36 198.9713)"/><path d="m0 0c0-2.209-1.791-4-4-4s-4 1.791-4 4 1.791 4 4 4 4-1.791 4-4" fill="#dadfe0" transform="translate(226 198.9713)"/><path d="m0 0c0-1.105-.895-2-2-2s-2 .895-2 2 .895 2 2 2 2-.895 2-2" fill="#d1d6d2" transform="translate(224 198.9713)"/><path d="m0 0v-128s28-24 112-24 116 24 116 24v128z" fill="#edefef" transform="translate(14 168)"/><path d="m0 0h-176c-6.6 0-12-5.4-12-12v-72c0-2.2 1.8-4 4-4 0 0 32-20 96-20s96 20 96 20c2.2 0 4 1.8 4 4v72c0 6.6-5.4 12-12 12" fill="#dadfe0" transform="translate(214 162.9713)"/><path d="m0 0h32l-16-12z" fill="#dadfe0" transform="translate(110 34.9713)"/><path d="m0 0s-8 0-8-8v-72s36-20 96-20 96 20 96 20v72s0 8-8 8z" fill="#1b80bb" transform="translate(38 158.9713)"/><path d="m62 168h-24v8h24z" fill="#10a284"/><path d="m218 168h-28v8h28z" fill="#10a284"/><path d="m0 0v-48h24v40h128v-40h28v48z" fill="#25b796" transform="translate(38 224)"/><path d="m190 168h-128v28h128z" fill="#7f8b8c"/><path d="m0 0v-40s20 20 64 20 64-20 64-20v40z" fill="#93a3a3" transform="translate(62 216)"/></g></g></svg>