<svg xmlns="http://www.w3.org/2000/svg" viewBox="0 0 256 256"><path fill="#223140" d="M16 68h224v124H16z"/><path fill="#2b3e51" d="M242.475 212c.803 0 1.52-.619 1.525-1.422V188H12v22.578c.005.803.722 1.422 1.525 1.422zm1.213-28c.162-.459.312-.927.312-1.437V160H12v22.563c0 .51.151.977.312 1.437zm0-28c.162-.459.312-.927.312-1.437V132H12v22.563c0 .51.151.977.312 1.437zm0-28c.162-.459.312-.927.312-1.437V104H12v22.563c0 .51.151.977.312 1.437zm0-28c.162-.459.312-.927.312-1.437V76H12v22.563c0 .51.151.977.312 1.437zm0-28c.162-.459.312-.927.312-1.437V50a2 2 0 0 0-2-2H14a2 2 0 0 0-2 2v20.563c0 .51.151.977.312 1.437z"/><path fill="#35495f" d="M204 212H52V45a1 1 0 0 1 1-1h150a1 1 0 0 1 1 1z"/><path fill="#1b80bb" d="M195 124H61a1 1 0 0 1-1-1V44h136v79a1 1 0 0 1-1 1"/><path fill="#2b3e51" d="M190 160H66c-3.3 0-6-2.7-6-6s2.7-6 6-6h124c3.3 0 6 2.7 6 6s-2.7 6-6 6"/><path fill="#223140" d="M104 148h48v12h-48zm-74 46a6 6 0 1 0 0 12 6 6 0 0 0 0-12"/><circle cx="30" cy="200" r="4" fill="#6c7a88"/><path fill="#223140" d="M226 194a6 6 0 1 0 0 12 6 6 0 0 0 0-12"/><circle cx="226" cy="200" r="4" fill="#6c7a88"/></svg>