<svg enable-background="new 0 0 256 256" viewBox="0 0 256 256" xmlns="http://www.w3.org/2000/svg"><path d="m226.182 12h-196.364c-5.422 0-9.818 4.328-9.818 9.667v198.167c0 13.346 10.989 24.166 24.545 24.166h181.455c1.105 0 2-.895 2-2v-14h8v-206.333c0-5.339-4.396-9.667-9.818-9.667z" fill="#2b3e51"/><g fill="#223140"><path d="m234 240h-6v-16h8v14c0 1.105-.895 2-2 2z"/><path d="m116 224h24l-12 8z"/><path d="m20 208h4v12h-4z"/></g><path d="m215.242 24h-170.484c-2.628 0-4.758 2.14-4.758 4.78v163.22 4 4l12 16h163.242c2.628 0 4.758-2.14 4.758-4.78v-15.22-4-163.22c0-2.64-2.13-4.78-4.758-4.78z" fill="#1b80bb"/></svg>