<svg xmlns="http://www.w3.org/2000/svg" viewBox="0 0 256 256"><path fill="#2b3e51" d="M216 12H40c-8.837 0-16 7.163-16 16v90a2 2 0 0 0 2 2h6v4h192v-4h6a2 2 0 0 0 2-2V28c0-8.837-7.163-16-16-16m-4 232H44c-11.046 0-20-8.954-20-20v-96h208v96c0 11.046-8.954 20-20 20"/><path fill="#223140" d="M72 232h34v12H72zm36 0h40v12h-40zm42 0h34v12h-34z"/><path fill="#223140" d="M184 130c3.308 0 6 2.692 6 6v100c0 3.308-2.692 6-6 6H72c-3.308 0-6-2.692-6-6V136c0-3.308 2.692-6 6-6zm0-2H72a8 8 0 0 0-8 8v100a8 8 0 0 0 8 8h112a8 8 0 0 0 8-8V136a8 8 0 0 0-8-8"/><circle cx="128" cy="18" r="4" fill="#223140"/><circle cx="128" cy="18" r="2" fill="#35495f"/><g fill="#223140"><circle cx="128" cy="18" r="1"/><circle cx="67" cy="19" r="3"/><circle cx="189" cy="19" r="3"/><path d="M219 69a1 1 0 1 1-2 0 1 1 0 0 1 2 0m-6-1a1 1 0 1 0 0 2 1 1 0 0 0 0-2m10 0a1 1 0 1 0 0 2 1 1 0 0 0 0-2m-4-4a1 1 0 1 0-2 0 1 1 0 0 0 2 0m0 10a1 1 0 1 0-2 0 1 1 0 0 0 2 0m-3.293-8.707a.999.999 0 1 0-1.414 1.414 1 1 0 1 0 1.414-1.414m6 0a.999.999 0 1 0-1.414 1.414 1 1 0 1 0 1.414-1.414m-6 6a.999.999 0 1 0-1.414 1.414 1 1 0 1 0 1.414-1.414m6 0a.999.999 0 1 0-1.414 1.414 1 1 0 1 0 1.414-1.414M39 69a1 1 0 1 1-2 0 1 1 0 0 1 2 0m-6-1a1 1 0 1 0 0 2 1 1 0 0 0 0-2m10 0a1 1 0 1 0 0 2 1 1 0 0 0 0-2m-4-4a1 1 0 1 0-2 0 1 1 0 0 0 2 0m0 10a1 1 0 1 0-2 0 1 1 0 0 0 2 0m-3.293-8.707a.999.999 0 1 0-1.414 1.414.999.999 0 1 0 1.414-1.414m6 0a.999.999 0 1 0-1.414 1.414.999.999 0 1 0 1.414-1.414m-6 6a.999.999 0 1 0-1.414 1.414.999.999 0 1 0 1.414-1.414m6 0a.999.999 0 1 0-1.414 1.414.999.999 0 1 0 1.414-1.414M200 28H56v88h144z"/></g><path fill="#35495f" d="M200 120H56a4 4 0 0 1-4-4V28a4 4 0 0 1 4-4h144a4 4 0 0 1 4 4v88a4 4 0 0 1-4 4"/><path fill="#223140" d="M200 28v88H56V28z"/><path fill="#6c7a88" d="M198 30v84H58V30z"/><path fill="#bdc1c6" d="M228 80h4v8h-4z"/><path fill="#223140" d="M228 88h4v12h-4zm-4 48H32a8 8 0 0 1 0-16h192a8 8 0 0 1 0 16"/><path fill="#2b3e51" d="M40 120h2v16h-2zm174 0h2v16h-2z"/><path fill="#6c7a88" d="M224 126h2v4h-2zM72 140h112v88H72z"/><circle cx="45" cy="162.118" r="15" fill="#223140"/><circle cx="45" cy="162.118" r="10" fill="#bdc1c6"/><circle cx="45" cy="162.118" r="7.5" fill="#93a3a3"/><path fill="#223140" d="M56.471 192.118H48.53v-7.941a.88.88 0 0 0-.882-.882h-5.294a.88.88 0 0 0-.882.882v7.941h-7.941a.88.88 0 0 0-.882.882v5.294c0 .487.395.882.882.882h7.941v7.941c0 .487.395.882.882.882h5.294a.88.88 0 0 0 .882-.882v-7.941h7.941a.88.88 0 0 0 .882-.882V193a.88.88 0 0 0-.882-.882"/><path fill="#bdc1c6" d="M44.118 185.059h1.765v5.294h-1.765zm0 15.882h1.765v5.294h-1.765zm6.176-6.176h5.294v1.765h-5.294zm-15.882 0h5.294v1.765h-5.294z"/><path fill="#3394d1" d="M200 240h2v4h-2z"/><path fill="#6c7a88" d="M208 240h2v4h-2z"/><circle cx="200" cy="230" r="4" fill="#223140"/><circle cx="210" cy="158" r="5" fill="#223140"/><circle cx="210" cy="179" r="5" fill="#223140"/><circle cx="220.5" cy="169" r="5" fill="#223140"/><circle cx="199.5" cy="169" r="5" fill="#223140"/><path fill="#edefef" d="M128.008 92 148 68h-12V44a4 4 0 0 0-4-4h-8a4 4 0 0 0-4 4v24h-12zM108 96h40v4h-40zm44-12h-4v-4h-4v4h-4v4h4v4h4v-4h4z"/></svg>