<svg height="309.33331" viewBox="0 0 234.66665 309.33331" width="234.66666" xmlns="http://www.w3.org/2000/svg" xmlns:xlink="http://www.w3.org/1999/xlink"><clipPath id="a"><path d="m0 256h256v-256h-256z"/></clipPath><g clip-path="url(#a)" transform="matrix(1.3333333 0 0 -1.3333333 -53.333332 325.33333)"><path d="m0 0v-38.343c0-1.061.421-2.078 1.172-2.829l25.656-25.656c.751-.751 1.768-1.172 2.829-1.172h142.343c2.209 0 4 1.791 4 4v48c0 2.209-1.791 4-4 4h-4v52h4c2.209 0 4 1.791 4 4v116c0 2.209-1.791 4-4 4h-58.343c-1.061 0-2.078-.421-2.829-1.172l-1.656-1.656c-.75-.751-1.768-1.172-2.829-1.172h-36.686c-1.061 0-2.078.421-2.829 1.172l-1.656 1.656c-.751.751-1.768 1.172-2.829 1.172h-58.343c-2.209 0-4-1.791-4-4v-140c0-2.209 1.791-4 4-4v-12c-2.209 0-4-1.791-4-4" fill="#93a3a3" transform="translate(40 80)"/><path d="m0 0h4c2.209 0 4-1.791 4-4v-16c0-2.209-1.791-4-4-4h-4z" fill="#7f8b8c" transform="translate(208 92)"/><path d="m0 0h120c6.627 0 12-5.373 12-12v-164c0-6.627-5.373-12-12-12h-120c-6.627 0-12 5.373-12 12v164c0 6.627 5.373 12 12 12" fill="#7f8b8c" transform="translate(68 228)"/><path d="m0 0c-4.411 0-8 3.589-8 8v164c0 4.411 3.589 8 8 8h120c4.411 0 8-3.589 8-8v-164c0-4.411-3.589-8-8-8z" fill="#1b80bb" transform="translate(68 44)"/><g fill="#edefef"><path d="m0 0 39.984 48h-24v48c0 4.418-3.582 8-8 8h-16c-4.418 0-8-3.582-8-8v-48h-24z" transform="translate(124.016 92)"/><path d="m0 0h72c2.209 0 4 1.791 4 4 0 2.209-1.791 4-4 4h-72c-2.209 0-4-1.791-4-4 0-2.209 1.791-4 4-4" transform="translate(88 76)"/><path d="m0 0h-12v12h-12v-12h-12v-12h12v-12h12v12h12z" transform="translate(180 112)"/></g><path d="m0 0h108c1.105 0 2-.895 2-2s-.895-2-2-2h-108c-1.105 0-2 .895-2 2s.895 2 2 2" fill="#7f8b8c" transform="translate(74 236)"/></g></svg>