<svg height="309.33331" viewBox="0 0 288 309.33331" width="288" xmlns="http://www.w3.org/2000/svg" xmlns:xlink="http://www.w3.org/1999/xlink"><clipPath id="a"><path d="m0 256h256v-256h-256z"/></clipPath><g clip-path="url(#a)" transform="matrix(1.3333333 0 0 -1.3333333 -26.666666 325.33333)"><path d="m0 0h-176c-11.046 0-20-8.954-20-20v-86c0-1.105.895-2 2-2h6v-8h200v8h6c1.105 0 2 .895 2 2v86c0 11.046-8.954 20-20 20" fill="#2b3e51" transform="translate(216 244)"/><path d="m0 0h-176c-11.046 0-20 8.954-20 20v96h216v-96c0-11.046-8.954-20-20-20" fill="#2b3e51" transform="translate(216 12)"/><path d="m0 0h-200c-4.418 0-8 3.582-8 8 0 4.418 3.582 8 8 8h200c4.418 0 8-3.582 8-8 0-4.418-3.582-8-8-8" fill="#35495f" transform="translate(228 120)"/><g fill="#223140"><path d="m0 0h-2c-.552 0-1 .448-1 1v2c0 .552.448 1 1 1h2c.552 0 1-.448 1-1v-2c0-.552-.448-1-1-1" transform="translate(37 228)"/><path d="m0 0h-2c-.552 0-1 .448-1 1v2c0 .552.448 1 1 1h2c.552 0 1-.448 1-1v-2c0-.552-.448-1-1-1" transform="translate(221 228)"/><path d="m0 0h-2c-.552 0-1 .448-1 1v2c0 .552.448 1 1 1h2c.552 0 1-.448 1-1v-2c0-.552-.448-1-1-1" transform="translate(37 140)"/><path d="m0 0h-2c-.552 0-1 .448-1 1v2c0 .552.448 1 1 1h2c.552 0 1-.448 1-1v-2c0-.552-.448-1-1-1" transform="translate(221 140)"/><path d="m0 0c0-2.209-1.791-4-4-4s-4 1.791-4 4 1.791 4 4 4 4-1.791 4-4" transform="translate(132 238)"/></g><path d="m0 0c0 1.105.895 2 2 2s2-.895 2-2-.895-2-2-2-2 .895-2 2" fill="#2b3e51" transform="translate(126 238)"/><path d="m0 0c0-.552-.448-1-1-1s-1 .448-1 1 .448 1 1 1 1-.448 1-1" fill="#223140" transform="translate(129 238)"/><path d="m0 0c0-1.105.895-2 2-2s2 .895 2 2-.895 2-2 2-2-.895-2-2" fill="#223140" transform="translate(133 238)"/><path d="m0 0c0-1.657-1.343-3-3-3s-3 1.343-3 3 1.343 3 3 3 3-1.343 3-3" fill="#223140" transform="translate(80 237)"/><path d="m0 0c0-1.657-1.343-3-3-3s-3 1.343-3 3 1.343 3 3 3 3-1.343 3-3" fill="#223140" transform="translate(182 237)"/><path d="m0 0h-144c-2.209 0-4 1.791-4 4v88c0 2.209 1.791 4 4 4h144c2.209 0 4-1.791 4-4v-88c0-2.209-1.791-4-4-4" fill="#223140" transform="translate(200 136)"/><path d="m200 140h-144v88h144z" fill="#6c7a88"/><path d="m0 0c0 .552-.448 1-1 1s-1-.448-1-1 .448-1 1-1 1 .448 1 1m0 10c0 .552-.448 1-1 1s-1-.448-1-1 .448-1 1-1 1 .448 1 1m4-4c-.552 0-1-.448-1-1s.448-1 1-1 1 .448 1 1-.448 1-1 1m-10 0c-.552 0-1-.448-1-1s.448-1 1-1 1 .448 1 1-.448 1-1 1m6-1c0-.552-.448-1-1-1s-1 .448-1 1 .448 1 1 1 1-.448 1-1" fill="#223140" transform="translate(37 187)"/><path d="m0 0c0 .552-.448 1-1 1s-1-.448-1-1 .448-1 1-1 1 .448 1 1m0 10c0 .552-.448 1-1 1s-1-.448-1-1 .448-1 1-1 1 .448 1 1m4-4c-.552 0-1-.448-1-1s.448-1 1-1 1 .448 1 1-.448 1-1 1m-10 0c-.552 0-1-.448-1-1s.448-1 1-1 1 .448 1 1-.448 1-1 1m6-1c0-.552-.448-1-1-1s-1 .448-1 1 .448 1 1 1 1-.448 1-1" fill="#223140" transform="translate(221 187)"/><path d="m24 152h-4v24h4z" fill="#223140"/><path d="m24 164h-4v8h4z" fill="#6c7a88"/><path d="m236 152h-4v24h4z" fill="#223140"/><path d="m236 168h-4v8h4z" fill="#6c7a88"/><path d="m42 120h-2v16h2z" fill="#223140"/><path d="m216 120h-2v16h2z" fill="#223140"/><path d="m0 0c-3.314 0-6-1.791-6-4h12c0 2.209-2.686 4-6 4" fill="#223140" transform="translate(202 124)"/><path d="m0 0c0 .552-.448 1-1 1s-1-.448-1-1 .448-1 1-1 1 .448 1 1" fill="#223140" transform="translate(226 128)"/><path d="m0 0c0-8.284-6.716-15-15-15s-15 6.716-15 15 6.716 15 15 15 15-6.716 15-15" fill="#223140" transform="translate(58 97)"/><path d="m0 0c0-5.523-4.477-10-10-10s-10 4.477-10 10 4.477 10 10 10 10-4.477 10-10" fill="#6c7a88" transform="translate(53 97)"/><path d="m0 0c0-4.142-3.358-7.5-7.5-7.5s-7.5 3.358-7.5 7.5 3.358 7.5 7.5 7.5 7.5-3.358 7.5-7.5" fill="#7f8b8c" transform="translate(50.5 97)"/><path d="m192 12h2v4h-2z" fill="#3394d1"/><path d="m0 0h-7.941v7.941c0 .487-.395.883-.883.883h-5.294c-.487 0-.882-.396-.882-.883v-7.941h-7.941c-.487 0-.883-.395-.883-.882v-5.294c0-.488.396-.883.883-.883h7.941v-7.941c0-.487.395-.882.882-.882h5.294c.488 0 .883.395.883.882v7.941h7.941c.487 0 .882.395.882.883v5.294c0 .487-.395.882-.882.882" fill="#223140" transform="translate(54.4706 67)"/><path d="m0 0h-112c-4.418 0-8 3.582-8 8v100h128v-100c0-4.418-3.582-8-8-8" fill="#223140" transform="translate(184 12)"/><path d="m42.118 74.059h1.765v-5.294h-1.765z" fill="#6c7a88"/><path d="m42.118 58.176h1.765v-5.294h-1.765z" fill="#6c7a88"/><path d="m53.588 62.588h-5.294v1.765h5.294z" fill="#6c7a88"/><path d="m37.706 62.588h-5.294v1.765h5.294z" fill="#6c7a88"/><path d="m188 114h-120v-88h120z" fill="#6c7a88"/><path d="m0 0h-8c-2.209 0-4 1.791-4 4 0 2.209 1.791 4 4 4h8c2.209 0 4-1.791 4-4 0-2.209-1.791-4-4-4" fill="#2b3e51" transform="translate(132 14)"/><path d="m178 12h2v4h-2z" fill="#6c7a88"/><path d="m201 12h2v4h-2z" fill="#6c7a88"/><path d="m210 12h2v4h-2z" fill="#eec41b"/><path d="m0 0c0-2.209 1.791-4 4-4s4 1.791 4 4-1.791 4-4 4-4-1.791-4-4" fill="#223140" transform="translate(196 36)"/><path d="m0 0c0-2.209 1.791-4 4-4s4 1.791 4 4-1.791 4-4 4-4-1.791-4-4" fill="#223140" transform="translate(196 52)"/><path d="m0 0c0-2.761-2.239-5-5-5s-5 2.239-5 5 2.239 5 5 5 5-2.239 5-5" fill="#6c7a88" transform="translate(206 109)"/><path d="m0 0c0-3.314-2.686-6-6-6s-6 2.686-6 6 2.686 6 6 6 6-2.686 6-6" fill="#223140" transform="translate(208 86)"/><path d="m0 0c0-3.314-2.686-6-6-6s-6 2.686-6 6 2.686 6 6 6 6-2.686 6-6" fill="#223140" transform="translate(220 98)"/><path d="m0 0c0-3.314-2.686-6-6-6s-6 2.686-6 6 2.686 6 6 6 6-2.686 6-6" fill="#223140" transform="translate(220 74)"/><path d="m0 0c0-3.314-2.686-6-6-6s-6 2.686-6 6 2.686 6 6 6 6-2.686 6-6" fill="#223140" transform="translate(232 86)"/></g></svg>