<svg height="223.99979" viewBox="0 0 309.33331 223.99978" width="309.33331" xmlns="http://www.w3.org/2000/svg" xmlns:xlink="http://www.w3.org/1999/xlink"><clipPath id="a"><path d="m0 256h256v-256h-256z"/></clipPath><g transform="matrix(1.3333333 0 0 -1.3333333 -16 282.66666)"><path d="m0 0 80 8h24l80-8z" fill="#c13c28" transform="translate(36 204)"/><g clip-path="url(#a)"><path d="m0 0c4.993 5.941 10.41 18.16 20 32.991 12.752 19.72 36 25.114 48 25.114s35.248-5.394 48-25.114c9.59-14.831 15.007-27.05 20-32.991 1.819-2.164 8-2.864 8 0v74.105h-24-12-80-8-28v-74.105c0-2.864 6.181-2.164 8 0" fill="#223140" transform="translate(60 45.8947)"/><path d="m0 0h.028l-2.015-17.779c-.135-1.185.811-2.221 2.027-2.221l9.96-4v24h208v-24l9.96 4c1.216 0 2.162 1.036 2.027 2.221l-2.015 17.779h.028c1.105 0 2 .895 2 2v20c0 1.105-.895 2-2 2h-228c-1.105 0-2-.895-2-2v-20c0-1.105.895-2 2-2" fill="#2b3e51" transform="translate(14 136)"/><path d="m36 128h184v-12h-184z" fill="#c13c28"/><path d="m0 0h12c1.105 0 2-.895 2-2v-18h-14c-1.105 0-2 .895-2 2v16c0 1.105.895 2 2 2" fill="#223140" transform="translate(218 132)"/><path d="m0 0h-12c-1.105 0-2-.895-2-2v-18h14c1.105 0 2 .895 2 2v16c0 1.105-.895 2-2 2" fill="#223140" transform="translate(38 132)"/><path d="m0 0v4c0 1.105.895 2 2 2h50 40 40 50c1.105 0 2-.895 2-2v-4c0-1.105.895-2 2-2h19.871c1.154 0 2.068.973 1.996 2.125l-3.867 61.875s-8 20-20 20-92 4-92 4-80-4-92-4-20-20-20-20l-3.867-61.875c-.072-1.152.842-2.125 1.996-2.125h19.871c1.105 0 2 .895 2 2" fill="#e94b36" transform="translate(36 122)"/><path d="m144 124h12v-4h-12z" fill="#b80000"/><path d="m100 124h12v-4h-12z" fill="#b80000"/><path d="m0 0h-44l-16 32h-48l-16-32h-44c-4.418 0-8-3.582-8-8v-4c0-4.418 3.582-8 8-8l44-4v-20l2.669-9.337c.784-1.57 2.492-2.446 4.222-2.159 5.159.855 16.589 2.557 29.109 3.168v.204c1.336 0 2.67-.019 4-.054 1.33.035 2.664.054 4 .054v-.204c12.52-.611 23.95-2.313 29.109-3.168 1.73-.287 3.438.589 4.222 2.159l2.669 9.337v20l44 4c4.418 0 8 3.582 8 8v4c0 4.418-3.582 8-8 8" fill="#d35627" transform="translate(212 164)"/><path d="m164 164h4v-24h-4z" fill="#c13c28"/><path d="m0 0h4 4l16 8v8l-16 8h-4-4l-16-8v-8z" fill="#999" transform="translate(124 168)"/><path d="m0 0c.552 0 1-.448 1-1v-68c0-.552-.448-1-1-1s-1 .448-1 1v68c0 .552.448 1 1 1" fill="#c13c28" transform="translate(223 202)"/><path d="m0 0v4l8 2v-8z" fill="#b3b3b3" transform="translate(140 178)"/><path d="m92 164h-4v-24h4z" fill="#c13c28"/><path d="m0 0c-.552 0-1-.448-1-1v-68c0-.552.448-1 1-1s1 .448 1 1v68c0 .552-.448 1-1 1" fill="#c13c28" transform="translate(33 202)"/><path d="m0 0v4l-8 2v-8z" fill="#b3b3b3" transform="translate(116 178)"/><path d="m0 0c0 6.627 5.373 12 12 12s12-5.373 12-12-5.373-12-12-12-12 5.373-12 12" fill="#b3b3b3" transform="translate(116 180)"/><path d="m116 182h24v-4h-24z" fill="#ccc"/><path d="m164 142h-72v20h72z" fill="#e94b36"/><path d="m0 0h52c1.105 0 2-.895 2-2v-20c0-1.105-.895-2-2-2h-52c-1.105 0-2 .895-2 2v20c0 1.105.895 2 2 2" fill="#999" transform="translate(102 164)"/><path d="m124 164h8v-24h-8z" fill="#b3b3b3"/><path d="m0 0 12-4 12 4z" fill="#e94b36" transform="translate(116 212)"/><path d="m0 0h-4l2 4z" fill="#999" transform="translate(130 184)"/><g fill="#8c8c8c"><path d="m0 0v-4l-4 2z" transform="translate(108 154)"/><path d="m0 0v4l4-2z" transform="translate(148 150)"/></g></g></g></svg>