<svg height="224" viewBox="0 0 309.33331 224" width="309.33331" xmlns="http://www.w3.org/2000/svg" xmlns:xlink="http://www.w3.org/1999/xlink"><clipPath id="a"><path d="m0 256h256v-256h-256z"/></clipPath><g transform="matrix(1.3333333 0 0 -1.3333333 -16 282.66666)"><path d="m0 0h-232l4 12h224z" fill="#35495f" transform="translate(244 200)"/><path d="m240 128h-224v12h224z" fill="#223140"/><path d="m240 136h-224v24h224z" fill="#2b3e51"/><path d="m0 0h-224l-4 20 4 4h224l4-4z" fill="#223140" transform="translate(240 156)"/><path d="m244 176h-232v24h232z" fill="#2b3e51"/><path d="m164 176h-68v24h68z" fill="#35495f"/><path d="m0 0h-60l-4 20h68z" fill="#35495f" transform="translate(160 156)"/><g clip-path="url(#a)"><path d="m0 0h-54c-1.657 0-3 1.343-3 3v14c0 1.657 1.343 3 3 3h54c1.657 0 3-1.343 3-3v-14c0-1.657-1.343-3-3-3" fill="#223140" transform="translate(157 172)"/><path d="m0 0 4-12h20l-4 12z" fill="#c13c28" transform="translate(20 176)"/><path d="m40 176h-20v12h20z" fill="#e94b36"/><path d="m0 0c0-2.209-1.791-4-4-4s-4 1.791-4 4 1.791 4 4 4 4-1.791 4-4" fill="#c13c28" transform="translate(34 182)"/><path d="m0 0h-216c-2.209 0-4 1.791-4 4v68h224v-68c0-2.209-1.791-4-4-4" fill="#35495f" transform="translate(236 44)"/><path d="m240 112h-224v20h224z" fill="#2b3e51"/><path d="m96 132h-72v4h72z" fill="#35495f"/><path d="m232 132h-68v4h68z" fill="#35495f"/><path d="m0 0h-144v-4h-4v-48.267c0-2.061 1.791-3.733 4-3.733h144c2.209 0 4 1.672 4 3.733v48.267h-4z" fill="#223140" transform="translate(200 112)"/><path d="m0 0h-4c-1.105 0-2 .895-2 2s.895 2 2 2h4c1.105 0 2-.895 2-2s-.895-2-2-2" fill="#dadfe0" transform="translate(62 100)"/><path d="m0 0h-4c-1.105 0-2 .895-2 2s.895 2 2 2h4c1.105 0 2-.895 2-2s-.895-2-2-2" fill="#dadfe0" transform="translate(74 100)"/><path d="m0 0h-8c-1.105 0-2 .895-2 2s.895 2 2 2h8c1.105 0 2-.895 2-2s-.895-2-2-2" fill="#dadfe0" transform="translate(66 92)"/><path d="m0 0h-8c-1.105 0-2 .895-2 2s.895 2 2 2h8c1.105 0 2-.895 2-2s-.895-2-2-2" fill="#dadfe0" transform="translate(82 92)"/><path d="m0 0h-8c-1.105 0-2 .895-2 2s.895 2 2 2h8c1.105 0 2-.895 2-2s-.895-2-2-2" fill="#dadfe0" transform="translate(98 92)"/><path d="m0 0h-8c-1.105 0-2 .895-2 2s.895 2 2 2h8c1.105 0 2-.895 2-2s-.895-2-2-2" fill="#dadfe0" transform="translate(114 92)"/><path d="m0 0h-8c-1.105 0-2 .895-2 2s.895 2 2 2h8c1.105 0 2-.895 2-2s-.895-2-2-2" fill="#dadfe0" transform="translate(130 92)"/><path d="m0 0h-8c-1.105 0-2 .895-2 2s.895 2 2 2h8c1.105 0 2-.895 2-2s-.895-2-2-2" fill="#dadfe0" transform="translate(146 92)"/><path d="m0 0h-8c-1.105 0-2 .895-2 2s.895 2 2 2h8c1.105 0 2-.895 2-2s-.895-2-2-2" fill="#dadfe0" transform="translate(162 92)"/><path d="m0 0h-8c-1.105 0-2 .895-2 2s.895 2 2 2h8c1.105 0 2-.895 2-2s-.895-2-2-2" fill="#dadfe0" transform="translate(178 92)"/><path d="m0 0h-8c-1.105 0-2 .895-2 2s.895 2 2 2h8c1.105 0 2-.895 2-2s-.895-2-2-2" fill="#dadfe0" transform="translate(194 92)"/><path d="m0 0h-8c-1.105 0-2 .895-2 2s.895 2 2 2h8c1.105 0 2-.895 2-2s-.895-2-2-2" fill="#dadfe0" transform="translate(66 84)"/><path d="m0 0h-8c-1.105 0-2 .895-2 2s.895 2 2 2h8c1.105 0 2-.895 2-2s-.895-2-2-2" fill="#dadfe0" transform="translate(82 84)"/><path d="m0 0h-8c-1.105 0-2 .895-2 2s.895 2 2 2h8c1.105 0 2-.895 2-2s-.895-2-2-2" fill="#dadfe0" transform="translate(98 84)"/><path d="m0 0h-8c-1.105 0-2 .895-2 2s.895 2 2 2h8c1.105 0 2-.895 2-2s-.895-2-2-2" fill="#dadfe0" transform="translate(114 84)"/><path d="m0 0h-8c-1.105 0-2 .895-2 2s.895 2 2 2h8c1.105 0 2-.895 2-2s-.895-2-2-2" fill="#dadfe0" transform="translate(130 84)"/><path d="m0 0h-8c-1.105 0-2 .895-2 2s.895 2 2 2h8c1.105 0 2-.895 2-2s-.895-2-2-2" fill="#dadfe0" transform="translate(146 84)"/><path d="m0 0h-8c-1.105 0-2 .895-2 2s.895 2 2 2h8c1.105 0 2-.895 2-2s-.895-2-2-2" fill="#dadfe0" transform="translate(162 84)"/><path d="m0 0h-8c-1.105 0-2 .895-2 2s.895 2 2 2h8c1.105 0 2-.895 2-2s-.895-2-2-2" fill="#dadfe0" transform="translate(178 84)"/><path d="m0 0h-8c-1.105 0-2 .895-2 2s.895 2 2 2h8c1.105 0 2-.895 2-2s-.895-2-2-2" fill="#e94b36" transform="translate(194 84)"/><g fill="#dadfe0"><path d="m0 0h-8c-1.105 0-2 .895-2 2s.895 2 2 2h8c1.105 0 2-.895 2-2s-.895-2-2-2" transform="translate(66 76)"/><path d="m0 0h-8c-1.105 0-2 .895-2 2s.895 2 2 2h8c1.105 0 2-.895 2-2s-.895-2-2-2" transform="translate(82 76)"/><path d="m0 0h-8c-1.105 0-2 .895-2 2s.895 2 2 2h8c1.105 0 2-.895 2-2s-.895-2-2-2" transform="translate(98 76)"/><path d="m0 0h-8c-1.105 0-2 .895-2 2s.895 2 2 2h8c1.105 0 2-.895 2-2s-.895-2-2-2" transform="translate(114 76)"/><path d="m0 0h-8c-1.105 0-2 .895-2 2s.895 2 2 2h8c1.105 0 2-.895 2-2s-.895-2-2-2" transform="translate(130 76)"/><path d="m0 0h-8c-1.105 0-2 .895-2 2s.895 2 2 2h8c1.105 0 2-.895 2-2s-.895-2-2-2" transform="translate(146 76)"/><path d="m0 0h-8c-1.105 0-2 .895-2 2s.895 2 2 2h8c1.105 0 2-.895 2-2s-.895-2-2-2" transform="translate(162 76)"/><path d="m0 0h-8c-1.105 0-2 .895-2 2s.895 2 2 2h8c1.105 0 2-.895 2-2s-.895-2-2-2" transform="translate(178 76)"/><path d="m0 0h-8c-1.105 0-2 .895-2 2s.895 2 2 2h8c1.105 0 2-.895 2-2s-.895-2-2-2" transform="translate(194 76)"/><path d="m0 0h-8c-1.105 0-2 .895-2 2 0 1.105.895 2 2 2h8c1.105 0 2-.895 2-2 0-1.105-.895-2-2-2" transform="translate(66 60)"/><path d="m0 0h-8c-1.105 0-2 .895-2 2 0 1.105.895 2 2 2h8c1.105 0 2-.895 2-2 0-1.105-.895-2-2-2" transform="translate(82 60)"/><path d="m0 0h-8c-1.105 0-2 .895-2 2 0 1.105.895 2 2 2h8c1.105 0 2-.895 2-2 0-1.105-.895-2-2-2" transform="translate(98 60)"/><path d="m0 0h-8c-1.105 0-2 .895-2 2 0 1.105.895 2 2 2h8c1.105 0 2-.895 2-2 0-1.105-.895-2-2-2" transform="translate(114 60)"/><path d="m0 0h-8c-1.105 0-2 .895-2 2 0 1.105.895 2 2 2h8c1.105 0 2-.895 2-2 0-1.105-.895-2-2-2" transform="translate(130 60)"/><path d="m0 0h-8c-1.105 0-2 .895-2 2 0 1.105.895 2 2 2h8c1.105 0 2-.895 2-2 0-1.105-.895-2-2-2" transform="translate(146 60)"/><path d="m0 0h-8c-1.105 0-2 .895-2 2 0 1.105.895 2 2 2h8c1.105 0 2-.895 2-2 0-1.105-.895-2-2-2" transform="translate(162 60)"/><path d="m0 0h-8c-1.105 0-2 .895-2 2 0 1.105.895 2 2 2h8c1.105 0 2-.895 2-2 0-1.105-.895-2-2-2" transform="translate(178 60)"/><path d="m0 0h-8c-1.105 0-2 .895-2 2 0 1.105.895 2 2 2h8c1.105 0 2-.895 2-2 0-1.105-.895-2-2-2" transform="translate(194 60)"/><path d="m0 0h-8c-1.105 0-2 .895-2 2s.895 2 2 2h8c1.105 0 2-.895 2-2s-.895-2-2-2" transform="translate(74 68)"/><path d="m0 0h-8c-1.105 0-2 .895-2 2s.895 2 2 2h8c1.105 0 2-.895 2-2s-.895-2-2-2" transform="translate(90 68)"/><path d="m0 0h-8c-1.105 0-2 .895-2 2s.895 2 2 2h8c1.105 0 2-.895 2-2s-.895-2-2-2" transform="translate(106 68)"/><path d="m0 0h-8c-1.105 0-2 .895-2 2s.895 2 2 2h8c1.105 0 2-.895 2-2s-.895-2-2-2" transform="translate(122 68)"/><path d="m0 0h-8c-1.105 0-2 .895-2 2s.895 2 2 2h8c1.105 0 2-.895 2-2s-.895-2-2-2" transform="translate(138 68)"/><path d="m0 0h-8c-1.105 0-2 .895-2 2s.895 2 2 2h8c1.105 0 2-.895 2-2s-.895-2-2-2" transform="translate(154 68)"/><path d="m0 0h-8c-1.105 0-2 .895-2 2s.895 2 2 2h8c1.105 0 2-.895 2-2s-.895-2-2-2" transform="translate(170 68)"/><path d="m0 0h-8c-1.105 0-2 .895-2 2s.895 2 2 2h8c1.105 0 2-.895 2-2s-.895-2-2-2" transform="translate(186 68)"/><path d="m0 0h-4c-1.105 0-2 .895-2 2s.895 2 2 2h4c1.105 0 2-.895 2-2s-.895-2-2-2" transform="translate(86 100)"/><path d="m0 0h-4c-1.105 0-2 .895-2 2s.895 2 2 2h4c1.105 0 2-.895 2-2s-.895-2-2-2" transform="translate(98 100)"/><path d="m0 0h-4c-1.105 0-2 .895-2 2s.895 2 2 2h4c1.105 0 2-.895 2-2s-.895-2-2-2" transform="translate(110 100)"/><path d="m0 0h-4c-1.105 0-2 .895-2 2s.895 2 2 2h4c1.105 0 2-.895 2-2s-.895-2-2-2" transform="translate(122 100)"/><path d="m0 0h-4c-1.105 0-2 .895-2 2s.895 2 2 2h4c1.105 0 2-.895 2-2s-.895-2-2-2" transform="translate(134 100)"/><path d="m0 0h-4c-1.105 0-2 .895-2 2s.895 2 2 2h4c1.105 0 2-.895 2-2s-.895-2-2-2" transform="translate(146 100)"/><path d="m0 0h-4c-1.105 0-2 .895-2 2s.895 2 2 2h4c1.105 0 2-.895 2-2s-.895-2-2-2" transform="translate(158 100)"/><path d="m0 0h-4c-1.105 0-2 .895-2 2s.895 2 2 2h4c1.105 0 2-.895 2-2s-.895-2-2-2" transform="translate(170 100)"/><path d="m0 0h-4c-1.105 0-2 .895-2 2s.895 2 2 2h4c1.105 0 2-.895 2-2s-.895-2-2-2" transform="translate(182 100)"/><path d="m0 0h-4c-1.105 0-2 .895-2 2s.895 2 2 2h4c1.105 0 2-.895 2-2s-.895-2-2-2" transform="translate(194 100)"/></g><path d="m240 48h-224v4h224z" fill="#2b3e51"/></g></g></svg>