<svg enable-background="new 0 0 256 256" viewBox="0 0 256 256" xmlns="http://www.w3.org/2000/svg"><path d="m128 12c-64.065 0-116 51.935-116 116s51.935 116 116 116 116-51.935 116-116-51.935-116-116-116zm0 101.032c8.266 0 14.968 6.701 14.968 14.968s-6.701 14.968-14.968 14.968-14.968-6.701-14.968-14.968 6.702-14.968 14.968-14.968z" fill="#2b3e51"/><path d="m128 16c-61.856 0-112 50.144-112 112s50.144 112 112 112 112-50.144 112-112-50.144-112-112-112zm0 97.067c8.247 0 14.933 6.686 14.933 14.933s-6.686 14.933-14.933 14.933-14.933-6.686-14.933-14.933 6.686-14.933 14.933-14.933z" fill="#223140"/><path d="m128 83.097c-24.799 0-44.903 20.104-44.903 44.903s20.104 44.903 44.903 44.903 44.903-20.104 44.903-44.903-20.104-44.903-44.903-44.903zm0 29.935c8.266 0 14.968 6.701 14.968 14.968s-6.701 14.968-14.968 14.968-14.968-6.701-14.968-14.968 6.702-14.968 14.968-14.968z" fill="#2b3e51"/><path d="m128 174.774c-25.792 0-46.774-20.983-46.774-46.774s20.982-46.774 46.774-46.774 46.774 20.983 46.774 46.774-20.982 46.774-46.774 46.774zm0-89.806c-23.729 0-43.032 19.305-43.032 43.032s19.303 43.032 43.032 43.032 43.032-19.305 43.032-43.032-19.303-43.032-43.032-43.032zm0 59.871c-9.285 0-16.839-7.553-16.839-16.839s7.553-16.839 16.839-16.839 16.839 7.553 16.839 16.839-7.554 16.839-16.839 16.839zm0-29.936c-7.221 0-13.097 5.876-13.097 13.097s5.876 13.097 13.097 13.097 13.097-5.876 13.097-13.097-5.876-13.097-13.097-13.097z" fill="#35495f"/><g fill="#c13c28"><path d="m98.563 203.171c-.764-.719-.529-3.191-.529-3.191 0-2.606 8.622-4.186 8.622-4.186.218 0 .393.18.393.401 0 .222-.175.401-.393.401-7.537 2.096-6.653 3.527-6.609 3.889.09.727 3.566 4.734 22.497 4.734.466 0 .466.555.466.555v4.408l-.945 22.445c0 .221-.176.401-.393.401-.216 0-.394-.18-.394-.401l-1.696-22.714c-12.886-1.261-18.495-3.846-21.019-6.742z"/><path d="m128.349 235.599c0 .221-.158.401-.35.401s-.349-.18-.349-.401l-1.863-26.549 1.862-28.649c0-.222.157-.401.35-.401.192 0 .35.179.35.401l1.86 28.649z"/><path d="m136.417 209.913-1.697 22.714c0 .221-.177.401-.393.401s-.393-.18-.393-.401l-.944-22.445v-4.407s0-.555.466-.555c18.931 0 22.407-4.007 22.497-4.734.044-.362.927-1.793-6.608-3.89-.218 0-.393-.179-.393-.401 0-.221.175-.401.393-.401 0 0 8.622 1.58 8.622 4.187 0 0 .235 2.471-.529 3.191-2.527 2.895-8.135 5.48-21.021 6.741z"/></g></svg>