<svg height="309.33331" viewBox="0 0 309.33331 309.33331" width="309.33331" xmlns="http://www.w3.org/2000/svg" xmlns:xlink="http://www.w3.org/1999/xlink"><clipPath id="a"><path d="m0 256h256v-256h-256z"/></clipPath><g clip-path="url(#a)" transform="matrix(1.3333333 0 0 -1.3333333 -16 325.33293)"><path d="m0 0c8.266 0 14.968-6.701 14.968-14.968 0-8.266-6.702-14.967-14.968-14.967s-14.968 6.701-14.968 14.967c0 8.267 6.702 14.968 14.968 14.968m0 101.032c-64.065 0-116-51.935-116-116s51.935-116 116-116 116 51.935 116 116-51.935 116-116 116" fill="#223140" transform="translate(128 142.9677)"/><path d="m0 0c8.247 0 14.933-6.686 14.933-14.933 0-8.248-6.686-14.934-14.933-14.934s-14.933 6.686-14.933 14.934c0 8.247 6.686 14.933 14.933 14.933m0 97.067c-61.856 0-112-50.144-112-112s50.144-112 112-112 112 50.144 112 112-50.144 112-112 112" fill="#2b3e51" transform="translate(128 142.9333)"/><path d="m0 0c8.266 0 14.968-6.701 14.968-14.968 0-8.266-6.702-14.967-14.968-14.967s-14.968 6.701-14.968 14.967c0 8.267 6.702 14.968 14.968 14.968m0 29.935c-24.799 0-44.903-20.103-44.903-44.903 0-24.799 20.104-44.903 44.903-44.903s44.903 20.104 44.903 44.903c0 24.8-20.104 44.903-44.903 44.903" fill="#35495f" transform="translate(128 142.9677)"/><path d="m0 0c-7.221 0-13.097-5.876-13.097-13.097s5.876-13.097 13.097-13.097 13.097 5.876 13.097 13.097-5.876 13.097-13.097 13.097m0-29.935c-9.285 0-16.839 7.553-16.839 16.838 0 9.286 7.554 16.839 16.839 16.839s16.839-7.553 16.839-16.839c0-9.285-7.554-16.838-16.839-16.838m0 59.87c-23.729 0-43.032-19.305-43.032-43.032s19.303-43.032 43.032-43.032 43.032 19.305 43.032 43.032-19.303 43.032-43.032 43.032m0-89.806c-25.792 0-46.774 20.983-46.774 46.774 0 25.792 20.982 46.774 46.774 46.774s46.774-20.982 46.774-46.774c0-25.791-20.982-46.774-46.774-46.774" fill="#223140" transform="translate(128 141.0968)"/><g fill="#10a284"><path d="m0 0c-.214 0-.604.008-1.002.017v6.223c0 .181.128 1.577 1.042 1.577.913 0 .962-1.395.962-1.577v-6.223c-.399-.009-.787-.017-1.002-.017m20.074 14.712c0 13.888-10.891 18.517-11.557 18.759s-.485-.272 0-.485c9.379-5.052 9.077-14.462 9.077-14.886 0-.405.359-14.547-13.433-17.701v5.841c0 1.361.964 2.121 2.142 2.121h.352c.113 0 .136.091.136.091l.046.182s.022.086-.148.086h-13.377c-.171 0-.147-.086-.147-.086l.045-.182s.023-.091.137-.091h.352c1.178 0 2.142-.76 2.142-2.121v-5.841c-13.793 3.154-13.434 17.296-13.434 17.701 0 .424-.302 9.834 9.078 14.886.484.213.666.727 0 .485s-11.559-4.871-11.559-18.759c0-9.569 7.505-17.364 15.915-19.221v-6.388s1.458-11.569 1.535-11.569c.076 0 1.624 11.569 1.624 11.569v5.974c.404-.025.843-.047 1.119-.047.24 0 .571.016.885.038v-5.965s1.547-11.568 1.623-11.568 1.534 11.569 1.534 11.569v6.388c8.41 1.857 15.913 9.651 15.913 19.22" transform="translate(128.0018 202.4656)"/><path d="m0 0c.214 0 .605-.008 1.001-.017v-6.223c0-.181-.127-1.577-1.041-1.577-.913 0-.962 1.395-.962 1.577v6.223c.399.009.788.017 1.002.017m-20.074-14.712c0-13.888 10.891-18.517 11.557-18.759s.485.272 0 .485c-9.379 5.052-9.077 14.462-9.077 14.886 0 .405-.359 14.546 13.433 17.702v-5.841c0-1.361-.964-2.121-2.142-2.121h-.352c-.113 0-.136-.092-.136-.092l-.046-.181s-.022-.086.148-.086h13.376c.172 0 .148.086.148.086l-.046.181s-.022.092-.136.092h-.352c-1.178 0-2.141.76-2.141 2.121v5.841c13.791-3.155 13.432-17.297 13.432-17.702 0-.423.303-9.834-9.076-14.886-.485-.213-.667-.727 0-.485.665.242 11.557 4.871 11.557 18.759 0 9.569-7.504 17.364-15.914 19.221v6.388s-1.459 11.569-1.535 11.569c-.075 0-1.625-11.569-1.625-11.569v-5.974c-.403.025-.843.047-1.119.047-.24 0-.571-.016-.885-.038v5.965s-1.549 11.569-1.624 11.569c-.077 0-1.535-11.569-1.535-11.569v-6.388c-8.407-1.858-15.91-9.653-15.91-19.221" transform="translate(127.9988 53.5345)"/><path d="m0 0c0 .214.008.604.017 1.002h6.223c.181 0 1.577-.128 1.577-1.042 0-.912-1.395-.963-1.577-.963h-6.223c-.009.399-.017.789-.017 1.003m14.712-20.074c13.888 0 18.517 10.89 18.759 11.557.242.665-.272.484-.485 0-5.052-9.379-14.462-9.078-14.886-9.078-.405 0-14.546-.359-17.702 13.434h5.841c1.361 0 2.121-.964 2.121-2.143v-.351c0-.113.092-.137.092-.137l.181-.046s.086-.021.086.148v13.377c0 .171-.086.148-.086.148l-.181-.046s-.092-.022-.092-.137v-.351c0-1.179-.76-2.142-2.121-2.142h-5.841c3.155 13.792 17.297 13.433 17.702 13.433.423 0 9.834.302 14.886-9.077.213-.485.727-.666.485 0s-4.871 11.558-18.759 11.558c-9.569 0-17.364-7.505-19.221-15.915h-6.388s-11.569-1.458-11.569-1.535c0-.075 11.569-1.624 11.569-1.624h5.974c-.025-.403-.047-.843-.047-1.119 0-.24.016-.57.038-.885h-5.965s-11.569-1.548-11.569-1.625c0-.076 11.569-1.533 11.569-1.533h6.388c1.858-8.408 9.652-15.911 19.221-15.911" transform="translate(202.4655 128.2059)"/><path d="m0 0c0-.214-.008-.604-.017-1.002h-6.223c-.181 0-1.577.128-1.577 1.042 0 .913 1.395.962 1.577.962h6.223c.01-.398.017-.788.017-1.002m-14.713 20.075c-13.887 0-18.516-10.891-18.759-11.557-.242-.666.273-.485.485 0 5.053 9.379 14.462 9.077 14.886 9.077.406 0 14.547.359 17.701-13.433h-5.841c-1.361 0-2.121.963-2.121 2.142v.351c0 .114-.091.137-.091.137l-.182.046s-.086.022-.086-.148v-13.377c0-.171.086-.148.086-.148l.182.046s.091.023.091.137v.351c0 1.179.76 2.142 2.121 2.142h5.841c-3.154-13.792-17.295-13.433-17.701-13.433-.424 0-9.833-.302-14.886 9.077-.212.485-.727.666-.485 0 .243-.666 4.872-11.558 18.759-11.558 9.57 0 17.364 7.505 19.221 15.915h6.388s11.569 1.458 11.569 1.535c0 .075-11.569 1.624-11.569 1.624h-5.974c.025.404.047.843.047 1.119 0 .24-.016.571-.038.885h5.965s11.569 1.546 11.569 1.621c0 .077-11.569 1.535-11.569 1.535h-6.388c-1.857 8.41-9.651 15.914-19.221 15.914" transform="translate(53.5352 128.0019)"/></g></g></svg>