<svg height="234.66666" viewBox="0 0 298.66665 234.66665" width="298.66666" xmlns="http://www.w3.org/2000/svg" xmlns:xlink="http://www.w3.org/1999/xlink"><clipPath id="a"><path d="m0 256h256v-256h-256z"/></clipPath><g transform="matrix(1.3333333 0 0 -1.3333333 -21.333333 287.99999)"><path d="m216 40h-176v28h176z" fill="#93a3a3"/><path d="m0 0h-216l-4-52v-100h224v100z" fill="#dadfe0" transform="translate(236 216)"/><path d="m240 64h-224v52h224z" fill="#d1d6d2"/><g clip-path="url(#a)"><path d="m0 0h-192c-2.209 0-4 1.791-4 4v80c0 2.209 1.791 4 4 4h192c2.209 0 4-1.791 4-4v-80c0-2.209-1.791-4-4-4" fill="#1b80bb" transform="translate(224 120)"/><path d="m32 68h-12v20h12z" fill="#93a3a3"/><path d="m236 68h-12v20h12z" fill="#93a3a3"/><path d="m0 0c-3.314 0-6-2.686-6-6s2.686-6 6-6 6 2.686 6 6-2.686 6-6 6" fill="#93a3a3" transform="translate(38 84)"/><path d="m0 0c2.206 0 4-1.794 4-4s-1.794-4-4-4-4 1.794-4 4 1.794 4 4 4" fill="#7f8b8c" transform="translate(38 82)"/><path d="m0 0c-3.314 0-6-2.686-6-6s2.686-6 6-6 6 2.686 6 6-2.686 6-6 6" fill="#93a3a3" transform="translate(218 84)"/><g fill="#7f8b8c"><path d="m0 0c2.206 0 4-1.794 4-4s-1.794-4-4-4-4 1.794-4 4 1.794 4 4 4" transform="translate(218 82)"/><path d="m48 40h-4v24h4z"/><path d="m56 40h-4v24h4z"/><path d="m64 40h-4v24h4z"/><path d="m72 40h-4v24h4z"/><path d="m80 40h-4v24h4z"/><path d="m88 40h-4v24h4z"/><path d="m96 40h-4v24h4z"/><path d="m104 40h-4v24h4z"/><path d="m112 40h-4v24h4z"/><path d="m120 40h-4v24h4z"/><path d="m128 40h-4v24h4z"/><path d="m136 40h-4v24h4z"/><path d="m144 40h-4v24h4z"/><path d="m152 40h-4v24h4z"/><path d="m160 40h-4v24h4z"/><path d="m168 40h-4v24h4z"/><path d="m176 40h-4v24h4z"/><path d="m184 40h-4v24h4z"/><path d="m192 40h-4v24h4z"/><path d="m200 40h-4v24h4z"/><path d="m208 40h-4v24h4z"/></g></g></g></svg>