<svg enable-background="new 0 0 256 256" viewBox="0 0 256 256" xmlns="http://www.w3.org/2000/svg"><path d="m40 188h176v28h-176z" fill="#93a3a3"/><path d="m236 40h-216l-4 52v100h224v-100z" fill="#dadfe0"/><path d="m16 140h224v52h-224z" fill="#d1d6d2"/><path d="m224 136h-192c-2.209 0-4-1.791-4-4v-80c0-2.209 1.791-4 4-4h192c2.209 0 4 1.791 4 4v80c0 2.209-1.791 4-4 4z" fill="#1b80bb"/><path d="m20 168h12v20h-12z" fill="#93a3a3"/><path d="m224 168h12v20h-12z" fill="#93a3a3"/><path d="m38 172c-3.314 0-6 2.686-6 6s2.686 6 6 6 6-2.686 6-6-2.686-6-6-6z" fill="#93a3a3"/><path d="m38 174c2.206 0 4 1.794 4 4s-1.794 4-4 4-4-1.794-4-4 1.794-4 4-4" fill="#7f8b8c"/><path d="m218 172c-3.314 0-6 2.686-6 6s2.686 6 6 6 6-2.686 6-6-2.686-6-6-6z" fill="#93a3a3"/><g fill="#7f8b8c"><path d="m218 174c2.206 0 4 1.794 4 4s-1.794 4-4 4-4-1.794-4-4 1.794-4 4-4"/><path d="m44 192h4v24h-4z"/><path d="m52 192h4v24h-4z"/><path d="m60 192h4v24h-4z"/><path d="m68 192h4v24h-4z"/><path d="m76 192h4v24h-4z"/><path d="m84 192h4v24h-4z"/><path d="m92 192h4v24h-4z"/><path d="m100 192h4v24h-4z"/><path d="m108 192h4v24h-4z"/><path d="m116 192h4v24h-4z"/><path d="m124 192h4v24h-4z"/><path d="m132 192h4v24h-4z"/><path d="m140 192h4v24h-4z"/><path d="m148 192h4v24h-4z"/><path d="m156 192h4v24h-4z"/><path d="m164 192h4v24h-4z"/><path d="m172 192h4v24h-4z"/><path d="m180 192h4v24h-4z"/><path d="m188 192h4v24h-4z"/><path d="m196 192h4v24h-4z"/><path d="m204 192h4v24h-4z"/></g></svg>