<svg height="293.33331" viewBox="0 0 240 293.33331" width="240" xmlns="http://www.w3.org/2000/svg" xmlns:xlink="http://www.w3.org/1999/xlink"><clipPath id="a"><path d="m0 256h256v-256h-256z"/></clipPath><g clip-path="url(#a)" transform="matrix(1.3333333 0 0 -1.3333333 -50.666665 319.99999)"><path d="m0 0h-130v-8h-4l-2.667 8h-35.333c-2.209 0-4-1.791-4-4v-212c0-2.209 1.791-4 4-4h172c2.209 0 4 1.791 4 4v212c0 2.209-1.791 4-4 4" fill="#35495f" transform="translate(214 240)"/><path d="m0 0c-4.4 0-8 3.6-8 8 0 4.4 3.6 8 8 8 4.4 0 8-3.6 8-8 0-4.4-3.6-8-8-8" fill="#2b3e51" transform="translate(184 216)"/><path d="m0 0c-4.4 0-8 3.6-8 8 0 4.4 3.6 8 8 8 4.4 0 8-3.6 8-8 0-4.4-3.6-8-8-8" fill="#2b3e51" transform="translate(72 216)"/><path d="m0 0c-4.4 0-8 3.6-8 8 0 4.4 3.6 8 8 8 4.4 0 8-3.6 8-8 0-4.4-3.6-8-8-8" fill="#2b3e51" transform="translate(128 104)"/><path d="m0 0c-7.732 0-14 6.268-14 14v24c0 7.732 6.268 14 14 14 7.732 0 14-6.268 14-14v-24c0-7.732-6.268-14-14-14" fill="#7f8b8c" transform="translate(128 176)"/><path d="m0 0h-160v68c0 2.209 1.791 4 4 4h152c2.209 0 4-1.791 4-4z" fill="#edefef" transform="translate(208 20)"/><path d="m0 0c-2.209 0-4 1.791-4 4s1.791 4 4 4 4-1.791 4-4-1.791-4-4-4" fill="#223140" transform="translate(184 220)"/><path d="m0 0c-2.209 0-4 1.791-4 4 0 2.209 1.791 4 4 4 2.209 0 4-1.791 4-4 0-2.209-1.791-4-4-4" fill="#223140" transform="translate(128 108)"/><path d="m0 0c0-11.046-8.954-20-20-20s-20 8.954-20 20 8.954 20 20 20 20-8.954 20-20" fill="#93a3a3" transform="translate(148 144)"/><path d="m0 0c0-8.837-7.163-16-16-16s-16 7.163-16 16 7.163 16 16 16 16-7.163 16-16" fill="#7f8b8c" transform="translate(144 144)"/><path d="m0 0c0-7.732-6.268-14-14-14s-14 6.268-14 14 6.268 14 14 14 14-6.268 14-14" fill="#93a3a3" transform="translate(142 144)"/><path d="m0 0c0-2.209-1.791-4-4-4s-4 1.791-4 4 1.791 4 4 4 4-1.791 4-4" fill="#c13c28" transform="translate(60 232)"/><path d="m0 0c0-2.209-1.791-4-4-4s-4 1.791-4 4 1.791 4 4 4 4-1.791 4-4" fill="#c13c28" transform="translate(204 232)"/><path d="m0 0c0-4.418-3.582-8-8-8s-8 3.582-8 8 3.582 8 8 8 8-3.582 8-8" fill="#7f8b8c" transform="translate(136 144)"/><path d="m0 0c0-2.209-1.791-4-4-4s-4 1.791-4 4 1.791 4 4 4 4-1.791 4-4" fill="#93a3a3" transform="translate(132 144)"/><path d="m0 0h-4c-1.105 0-2 .895-2 2v4c0 1.105.895 2 2 2h4c1.105 0 2-.895 2-2v-4c0-1.105-.895-2-2-2" fill="#223140" transform="translate(74 220)"/><path d="m0 0v.64c0 .741-.404 1.392-1.009 1.738-.349.583-.988.974-1.717.974h-7.899c-.406 0-.779-.131-1.095-.34-.317.211-.697.335-1.107.335h-4.274c-.409 0-.79-.123-1.106-.334-.317.211-.697.333-1.106.333h-4.274c-.413 0-.796-.125-1.114-.339-.316.208-.687.338-1.092.338h-7.892c-.714 0-1.345-.376-1.699-.944-.042-.024-.074-.06-.114-.087-.044.03-.08.069-.127.096-.355.565-.983.939-1.694.939h-9.317c-.263 0-.512-.054-.742-.146-.234.095-.488.15-.755.15h-10.037c-.413 0-.796-.125-1.114-.339-.316.208-.687.339-1.094.339h-7.899c-.404 0-.774-.129-1.09-.336-.317.211-.697.335-1.107.335h-3.597c-.791 0-1.474-.459-1.799-1.125-.324.666-1.008 1.125-1.799 1.125h-3.562c-.413 0-.797-.125-1.116-.34-.316.209-.689.339-1.095.339h-7.93c-.723 0-1.357-.384-1.709-.96-.028-.016-.05-.042-.078-.06-.042.028-.077.066-.121.09-.355.559-.979.93-1.689.93h-9.321c-1.105 0-2-.896-2-2v-1.412c0-.589.254-1.118.658-1.484v-9.298c-.411-.367-.668-.901-.668-1.492v-1.03c0-1.105.896-2 2-2h9.328c.406 0 .778.13 1.095.34.32-.217.705-.344 1.12-.344h4.258c.414 0 .798.126 1.117.341.316-.21.696-.332 1.104-.332h4.272c.118 0 .232.015.344.034.136-.029.276-.046.421-.046h3.597c.792 0 1.476.461 1.8 1.128.325-.665 1.008-1.123 1.798-1.123h3.562c.409 0 .788.124 1.105.335.316-.209.688-.338 1.095-.338h7.899c.409 0 .783.133 1.101.345.32-.216.705-.342 1.12-.342h10.021c.262 0 .51.053.739.144.234-.095.488-.15.756-.15h3.596c.57 0 1.084.239 1.448.621.363-.374.871-.606 1.434-.606h4.284c.408 0 .787.124 1.104.334.317-.211.691-.343 1.1-.343h7.894c.726 0 1.366.388 1.716.972.032.019.056.046.086.066.053-.036.098-.082.155-.113.357-.555.98-.92 1.684-.92h7.918c.741 0 1.388.403 1.734 1.001.019.012.034.03.053.042.033-.022.059-.052.094-.072.349-.586.988-.978 1.72-.978h7.899c.712 0 1.342.373 1.696.94.02.01.039.021.057.032.596.346.997.991.997 1.729 0 .084-.005.168-.016.249v6.938c0 .432-.137.833-.37 1.161.631.336 1.061 1.001 1.061 1.766v1.037c0 .605-.269 1.149-.696 1.517" fill="#c13c28" transform="translate(205.304 62.9295)"/><path d="m0 0h-4.308c-.566 0-1.077-.235-1.441-.613-.364.38-.876.617-1.444.617h-3.556c-.413 0-.797-.126-1.116-.34-.318.212-.693.345-1.102.345h-7.883c-.408 0-.781-.132-1.098-.342-.32.216-.705.342-1.12.342h-4.983c-.417 0-.804-.128-1.124-.347-.315.207-.685.335-1.088.335h-9.321c-1.105 0-2-.896-2-2v-1.386c0-.588.255-1.12.663-1.488v-9.311c-.406-.366-.66-.895-.66-1.485v-1.035c0-1.104.895-2 2-2h3.586c.564 0 1.073.234 1.437.609.364-.379.876-.616 1.444-.616h4.284c.127 0 .251.015.372.038.128-.026.261-.04.397-.04h4.999c.413 0 .796.125 1.114.339.318-.21.691-.342 1.099-.342h7.885c.408 0 .782.133 1.099.344.317-.211.697-.335 1.106-.335h3.601c.566 0 1.076.235 1.44.613.364-.38.877-.617 1.444-.617h4.27c1.105 0 2 .896 2 2v1.065c0 .606-.269 1.149-.696 1.516-.029.577-.304 1.093-.725 1.44-.029.578-.304 1.095-.725 1.442-.022.617-.324 1.163-.782 1.514-.017.062-.038.123-.06.182.085.206.136.43.148.663.415.349.686.864.711 1.443.317.262.551.619.66 1.025.466.353.77.904.792 1.524.418.366.681.904.681 1.503v1.398c0 1.105-.895 2-2 2" fill="#c13c28" transform="translate(91.5845 66.2763)"/><g fill="#edefef"><path d="m0 0h-.705c-.014-.244-.028-.461-.042-.701h-7.9v.672c-.245.014-.462.027-.725.042v1.772h-.694v1.426h4.281v-.662h2.153c.013.214.026.431.042.676h.667v.709c-.211.015-.428.03-.673.047v.68h-4.311c-.018.26-.033.477-.051.724h-.649c-.032.133-.059.241-.091.375h-.652v7.554h.676c.011.245.02.462.031.706h7.898v-.668c.245-.015.462-.028.727-.044v-2.124c.251-.012.456-.021.696-.033v-1.037h-4.272c-.01.209-.02.414-.031.655h-2.125c-.013-.203-.027-.42-.042-.664-.218-.012-.423-.023-.665-.036v-.685c.199-.011.416-.024.661-.038.014-.229.028-.446.044-.693h4.278c.015-.246.028-.462.042-.706.227-.016.444-.031.691-.049v-.679c.245-.01.461-.02.728-.032 0-2.408 0-4.804 0-7.2z" transform="translate(203.3223 50.2615)"/><path d="m0 0h2.839c.017.238.032.455.049.715h.673v.685c-.235.013-.452.025-.68.037-.016.246-.03.462-.043.668h-2.838zm5.012-5.428h.71v-1.415c.261-.017.477-.031.74-.048v-1.412h.693v-1.063h-4.285v2.471c-.246.015-.462.028-.725.044v1.411h-.71v1.425h-1.446v-5.344h-3.586v1.035h.661v12.24c-.208.014-.424.028-.664.044v1.385h9.322c.012-.2.025-.416.04-.66.227-.016.444-.03.681-.046v-6.082c-.212-.012-.428-.025-.674-.039-.016-.225-.031-.442-.047-.689h-.678v-.709c-.261-.017-.478-.031-.717-.046v-1.038c.205-.013.421-.026.685-.043z" transform="translate(55.5999 58.9279)"/><path d="m0 0h3.55v1.426h-.665c-.016.244-.03.46-.044.675h-2.121c-.016-.246-.03-.462-.043-.677-.25-.011-.455-.02-.677-.03zm-2.907 4.656h.706v.69h7.93c.01-.211.019-.416.031-.667.213-.014.43-.028.692-.045v-12.925c.259-.018.476-.033.712-.05v-1.025h-4.272v1.033h.659v4.309h-3.546v-4.287h.666v-1.063h-4.257v1.033c.202.013.418.027.679.043z" transform="translate(116.1336 58.9347)"/><path d="m0 0h2.882v.664c.245.017.462.032.673.046v.707h-.693v.682h-2.862zm-.001-9.382h-3.597v1.038c.213.012.429.025.672.039v12.217c-.214.01-.419.02-.659.031v1.397h9.316c.011-.217.022-.434.034-.679h.673v-6.113c-.213-.015-.429-.03-.675-.047v-.677h-.708c-.018-.262-.032-.478-.048-.724-.219-.01-.425-.02-.665-.031v-1.043c.206-.014.422-.029.685-.046v-1.412h.71v-1.43c.251-.012.456-.021.71-.033v-1.4c.262-.017.478-.031.718-.046v-1.026h-4.285v2.466c-.262.014-.478.025-.726.037v1.4c-.246.015-.462.028-.725.044v1.4h-1.43z" transform="translate(162.2533 58.9386)"/><path d="m0 0h-3.597v1.036c.215.013.432.026.673.04v12.222h-.662v1.426h3.561v-1.389c.247-.015.463-.028.726-.044v-1.411h.711v-1.071c.262-.014.478-.026.726-.039v-1.399c.246-.015.462-.028.725-.043v-1.402h.711v6.798h3.596v-1.391c-.215-.013-.432-.026-.673-.041v-12.221h.663v-1.066h-3.561v1.03c-.247.014-.463.027-.726.043v1.411h-.711v1.432c-.262.014-.478.025-.726.038v1.399c-.246.015-.462.028-.725.044v1.041h-.711z" transform="translate(127.6596 49.5576)"/><path d="m0 0v-8.235h2.867v.666c.245.016.461.03.677.045v6.806c-.245.014-.462.027-.707.042v.676zm-2.941 1.822h-.659v1.412h9.321v-.672h.707v-13.337h-.669c-.014-.246-.027-.462-.041-.707h-9.327v1.03c.208.012.424.025.668.039z" transform="translate(104.6136 61.0464)"/><path d="m0 0c.26-.015.477-.028.721-.043v-.669h2.133c.011.243.021.46.033.704h.679v6.814c-.237.016-.453.031-.68.046-.015.244-.028.46-.04.661h-2.126c-.012-.24-.022-.446-.033-.663-.244-.017-.46-.032-.687-.048zm-2.868 10.077h.673c.011.234.021.44.032.68h7.892c.012-.201.024-.417.039-.661.227-.016.444-.031.681-.048v-13.299h-.675c-.014-.245-.026-.462-.04-.704h-7.894c-.01.213-.019.419-.031.67-.214.013-.431.027-.677.042z" transform="translate(173.7822 53.5175)"/><path d="m0 0h.703v-5.368h-.673c-.012.215-.025.432-.039.674h-2.844v-2.104h5.728c.01.217.02.434.031.668h.675v-3.917h-10.021v1.033c.2.012.417.025.657.04v12.223h-.664v1.425h10.037v-3.905h-.678c-.013.215-.026.432-.041.667h-5.713v-2.114h2.842z" transform="translate(153.5804 59.6086)"/><path d="m0 0v-1.039c-.246-.015-.462-.028-.726-.044v-1.412h-.711v-1.431c-.261-.014-.478-.025-.713-.037v-1.402c.216-.013.432-.026.695-.042v-1.052h.711v-1.431c.262-.014.479-.025.726-.037v-1.399c.246-.015.463-.029.726-.045v-1.412h.693v-1.065h-4.27v2.469c-.263.017-.479.031-.742.048v1.413h-.711v1.424h-1.431v-5.35h-3.601v1.029c.208.012.424.025.668.04v12.218c-.214.009-.419.018-.658.028v1.4h3.556v-5.342h1.448v1.395h.711v1.068c.262.017.478.031.726.047v2.828h4.308v-1.398h-.68v-1.432c-.262-.013-.478-.024-.725-.037" transform="translate(90.1797 61.4093)"/><path d="m0 0h.677v-.678h2.154c.012.215.025.431.04.677h.669v9.358c-.214.014-.43.028-.667.044v1.387h4.275v-1.397h-.679v-12.602c-.262-.014-.478-.026-.723-.039v-.671h-7.919c-.013.215-.026.431-.041.676h-.684v12.598c-.261.018-.477.033-.714.048v1.387h4.274v-1.397h-.662z" transform="translate(185.3293 53.4882)"/><path d="m0 0v1.436h4.269v-1.395c-.211-.014-.427-.029-.675-.046v-3.917c-.245-.014-.461-.027-.708-.041-.015-.225-.03-.442-.046-.68h-7.9v.673c-.245.015-.461.028-.702.043v13.302h.677c.011.245.022.462.033.705h7.899v-.67c.245-.014.462-.026.726-.042v-2.126c.251-.011.457-.02.696-.031v-1.038h-4.274c-.009.211-.019.417-.029.656h-2.125c-.014-.206-.028-.422-.045-.666-.218-.011-.423-.022-.664-.034v-6.809c.202-.013.418-.026.663-.041.014-.229.027-.446.041-.681h2.12c.013.215.026.431.041.675.228.016.445.03.681.046v.681z" transform="translate(142.0792 54.2021)"/><path d="m0 0h.672c.017.245.032.462.048.7h7.883c.013-.207.026-.423.041-.673.222-.014.438-.028.702-.045v-2.134h.692v-1.063h-4.288v.666h-2.152c-.01-.21-.019-.415-.031-.667-.213-.013-.43-.027-.677-.042v-6.81c.208-.01.414-.02.665-.033.014-.212.029-.428.047-.675h2.124c.011.218.022.434.033.669h4.276v-1.404c-.216-.01-.433-.021-.68-.033v-1.76c-.246-.015-.462-.028-.707-.044-.014-.228-.027-.445-.042-.681h-7.885c-.013.215-.025.431-.04.675-.227.016-.444.031-.681.048z" transform="translate(70.0138 63.5853)"/><path d="m0 0v1.032c.226.016.443.032.68.049v12.206c-.21.012-.426.025-.67.039v1.401h4.983v-1.395c-.211-.014-.427-.029-.664-.045v-12.207c.21-.013.426-.025.67-.04v-1.04z" transform="translate(63.5234 49.559)"/></g></g></svg>