<svg height="245.33333" viewBox="0 0 245.33333 245.33333" width="245.33333" xmlns="http://www.w3.org/2000/svg" xmlns:xlink="http://www.w3.org/1999/xlink"><clipPath id="a"><path d="m0 256h256v-256h-256z"/></clipPath><g clip-path="url(#a)" transform="matrix(1.3333333 0 0 -1.3333333 -47.999865 293.33333)"><path d="m0 0s38.228 2.301 77.407 2.301c38.862 0 78.596-2.301 78.596-2.301 6.425 0 11.659-5.237 11.659-11.664 0 0 2.3-39.434 2.3-78.63 0-38.8-2.3-77.44-2.3-77.44 0-6.427-5.234-11.664-11.659-11.664 0 0-39.813-2.301-78.596-2.301-39.179 0-77.486 2.301-77.486 2.301-6.424 0-11.659 5.237-11.659 11.664 0 0-2.3 39.275-2.3 78.392 0 38.879 2.3 77.678 2.3 77.678.079 6.427 5.314 11.664 11.738 11.664" fill="#7f8b8c" fill-rule="evenodd" transform="translate(50.0379 217.699)"/><path d="m0 0h-50.286c-3.473 0-6.285-2.784-6.285-6.222v-99.556c0-3.438 2.812-6.222 6.285-6.222h75.429c3.473 0 6.286 2.784 6.286 6.222v74.667z" fill="#dadfe0" transform="translate(140.5714 184)"/><path d="m0 0h-12.813c-3.536 0-6.4 2.864-6.4 6.4v12.8 12.8l32-32z" fill="#edefef" transform="translate(155.2128 150)"/><path d="m0 0c-26.566 0-32-5.396-32-32s5.35-32 32-32c26.653 0 32 5.385 32 32 0 26.617-5.434 32-32 32" fill="#223140" transform="translate(128.0002 144)"/><path d="m0 0c-23.245 0-28-4.722-28-28s4.681-28 28-28c23.322 0 28 4.712 28 28 0 23.29-4.755 28-28 28" fill="#3394d1" transform="translate(128 140)"/><g fill="#ab463b"><path d="m0 0c-.013 0-.027.004-.038.013-.027.021-.032.059-.011.085.484.605.807 1.357.987 2.299.006.033.038.054.072.048s.056-.038.05-.071c-.184-.961-.515-1.73-1.011-2.351-.012-.015-.031-.023-.049-.023" transform="translate(113.7206 94.8683)"/><path d="m0 0c-.249 1.253.545 1.619.014-.013" transform="translate(114.8096 97.9781)"/><path d="m0 0c-.056-.063-.146-.331-.098-.769.139.492.121.708.098.769m-.11-1.082c-.006 0-.013.001-.019.003-.013.004-.024.012-.031.022-.013.009-.022.022-.025.038-.122.615 0 1.054.135 1.134.039.024.084.023.119-.004.126-.097.08-.538-.12-1.151-.008-.026-.033-.042-.059-.042" transform="translate(114.9334 98.9859)"/><path d="m0 0c.693 1.082 1.529.819.001-.019" transform="translate(115.0842 97.8694)"/><path d="m0 0c-.085-.008-.338-.145-.609-.497.446.268.583.438.609.497m-.793-.734c-.022 0-.043.011-.055.031-.006.012-.009.025-.007.037-.003.015 0 .031.008.044.341.531.736.771.891.74.045-.009.077-.04.084-.083.024-.154-.317-.446-.891-.761-.01-.005-.02-.008-.03-.008" transform="translate(115.8783 98.5233)"/><path d="m0 0c1.259.337 1.692-.409-.013-.014" transform="translate(115.2014 97.5078)"/><path d="m0 0c.513-.098.732-.064.792-.037-.068.05-.349.117-.792.037m.57-.186c-.209 0-.498.04-.842.12-.033.007-.054.04-.046.073.003.013.01.024.02.032.008.012.021.022.037.027.618.165 1.075.08 1.167-.045.027-.038.029-.081.004-.117-.041-.06-.16-.09-.34-.09" transform="translate(115.4464 97.5008)"/><path d="m0 0c-1.063.741-.746 1.541.02 0" transform="translate(114.514 97.8457)"/><path d="m0 0c.003-.083.128-.339.471-.624-.247.451-.412.595-.471.624m.64-.875c-.004 0-.007 0-.011.001-.015-.002-.031.002-.044.011-.522.363-.744.763-.703.913.012.044.046.072.09.077.159.017.437-.336.724-.915.015-.03.002-.066-.029-.081-.009-.004-.018-.006-.027-.006" transform="translate(113.8934 98.6595)"/><path d="m0 0c-1.162-.581-1.742.063.009.017" transform="translate(114.4698 97.5432)"/><path d="m0 0c.077-.036.366-.045.783.121-.522-.006-.73-.083-.783-.121m.157-.141c-.124 0-.214.023-.256.062-.035.03-.046.073-.029.113.06.145.506.224 1.164.207.034-.001.061-.029.06-.063 0-.013-.005-.025-.013-.035-.005-.014-.015-.026-.03-.034-.362-.18-.681-.25-.896-.25" transform="translate(113.4451 97.3799)"/><path d="m0 0c1.112-.668.851-1.488-.019-.001" transform="translate(115.0508 97.249)"/><path d="m0 0c.277-.433.452-.566.513-.591-.009.083-.15.329-.513.591m.533-.717c-.162 0-.453.327-.769.866-.017.029-.006.066.024.083.011.006.025.008.037.007.015.003.031.001.045-.008.546-.328.795-.712.764-.864-.009-.045-.04-.076-.084-.083-.005-.001-.011-.001-.017-.001" transform="translate(115.213 97.0692)"/></g><path d="m0 0c-17.714 3.648-34.793 6.997-56-.997v-1.764c1.08-17.513 7.103-21.329 27.935-21.329 21.89 0 27.431 4.195 28.065 24.09" fill="#1b80bb" transform="translate(156 108.0896)"/><path d="m0 0h-4-16-4v-4-16-4h4 16 4v4 16zm-4-20h-16v16h16z" fill="#edefef" transform="translate(140 124)"/><path d="m96 136h-4v8h4z" fill="#6c7a88"/><path d="m164 136h-4v8h4z" fill="#6c7a88"/><path d="m96 80h-4v8h4z" fill="#6c7a88"/><path d="m164 80h-4v8h4z" fill="#6c7a88"/><path d="m92 140h8v4h-8z" fill="#6c7a88"/><path d="m156 140h8v4h-8z" fill="#6c7a88"/><path d="m92 80h8v4h-8z" fill="#6c7a88"/><path d="m156 80h8v4h-8z" fill="#6c7a88"/><path d="m0 0h-2v2h-4v-2h-2v-4h2v-2h4v2h2z" fill="#edefef" transform="translate(132 114)"/></g></svg>