<svg xmlns="http://www.w3.org/2000/svg" viewBox="0 0 256 256"><path fill="#2b3e51" d="M244 88V55.8c0-2.105-1.669-3.8-3.742-3.8H15.742C13.669 52 12 53.695 12 55.8V88h4v4h-3.107c-.493 0-.893.427-.893.954v2.091c0 .528.4.955.893.955H16v4h-3.107c-.493 0-.893.427-.893.954v2.091c0 .527.4.954.893.954H16v4h-4v92.2c0 2.105 1.669 3.8 3.742 3.8h224.516c2.073 0 3.742-1.695 3.742-3.8V108h-4v-4h3.107c.493 0 .893-.427.893-.954v-2.091c0-.527-.4-.954-.893-.954H240v-4h3.107c.493-.001.893-.428.893-.955v-2.091c0-.527-.4-.954-.893-.954H240v-4z"/><path fill="#223140" d="M16 96h224v4H16zm0 8h224v4H16zm0-16h224v4H16z"/><path fill="#1b80bb" d="M236.267 52H16v28.445C16 82.408 17.671 84 19.733 84h216.533c2.062 0 3.733-1.592 3.733-3.556V52z"/></svg>