<svg height="309.33331" viewBox="0 0 309.33331 309.33331" width="309.33331" xmlns="http://www.w3.org/2000/svg" xmlns:xlink="http://www.w3.org/1999/xlink"><clipPath id="a"><path d="m0 256h256v-256h-256z"/></clipPath><g clip-path="url(#a)" transform="matrix(1.3333333 0 0 -1.3333333 -16.000533 325.33333)"><path d="m0 0c-7.721 0-14.001 6.281-14.001 14s6.28 14 14.001 14c7.72 0 13.999-6.281 13.999-14s-6.279-14-13.999-14m.002 130c-64.071 0-116-51.934-116-116s51.929-116 116-116c64.051 0 116 51.934 116 116s-51.949 116-116 116" fill="#bdc1c6" transform="translate(127.9984 114)"/><path d="m240 112h-56v32h56z" fill="#ececed"/><path d="m0 0h-32c0-17.673 14.327-32 32-32h4v32z" fill="#f19c21" transform="translate(176 144)"/></g></svg>