<svg height="186.66666" viewBox="0 0 309.33331 186.66665" width="309.33331" xmlns="http://www.w3.org/2000/svg" xmlns:xlink="http://www.w3.org/1999/xlink"><clipPath id="a"><path d="m0 256h256v-256h-256z"/></clipPath><g clip-path="url(#a)" transform="matrix(1.3333333 0 0 -1.3333333 -16 263.99999)"><path d="m0 0h-199.351c-7.911 0-14.324-6.556-14.324-14.643v-59.357h12v-10h-12v-29.357c0-8.087 6.413-14.643 14.324-14.643h199.351c7.911 0 14.325 6.556 14.325 14.643v98.714c0 8.087-6.414 14.643-14.325 14.643" fill="#35495f" transform="translate(227.6754 196)"/><path d="m0 0h-194c-.552 0-1 .448-1 1v138c0 .552.448 1 1 1h194c.552 0 1-.448 1-1v-138c0-.552-.448-1-1-1" fill="#2b3e51" transform="translate(225 58)"/><path d="m0 0h-154.327c-4.419 0-8 3.582-8 8v112h172v-110.327c0-5.342-4.331-9.673-9.673-9.673" fill="#1b80bb" transform="translate(204.3275 78)"/><path d="m0 0h-6.353c-3.119 0-5.647-2.201-5.647-4.917v-66.166c0-2.716 2.528-4.917 5.647-4.917h6.353z" fill="#223140" transform="translate(242 172)"/><g fill="#35495f"><path d="m244 166h-12v2h12z"/><path d="m244 162h-12v2h12z"/><path d="m244 158h-12v2h12z"/><path d="m244 154h-12v2h12z"/><path d="m244 150h-12v2h12z"/><path d="m244 146h-12v2h12z"/><path d="m244 142h-12v2h12z"/><path d="m244 138h-12v2h12z"/><path d="m244 134h-12v2h12z"/><path d="m244 130h-12v2h12z"/><path d="m244 126h-12v2h12z"/><path d="m244 122h-12v2h12z"/><path d="m244 118h-12v2h12z"/><path d="m244 114h-12v2h12z"/><path d="m244 110h-12v2h12z"/><path d="m244 106h-12v2h12z"/><path d="m244 102h-12v2h12z"/><path d="m244 98h-12v2h12z"/></g><path d="m0 0v45.11c0 2.701-2.528 4.89-5.647 4.89h-6.353v-50z" fill="#223140" transform="translate(26 122)"/><path d="m0 0v-16h6.353c3.119 0 5.647 2.452 5.647 5.476v10.524z" fill="#223140" transform="translate(14 112)"/><path d="m24 166h-12v2h12z" fill="#35495f"/><path d="m24 162h-12v2h12z" fill="#35495f"/><path d="m24 158h-12v2h12z" fill="#35495f"/><path d="m24 154h-12v2h12z" fill="#35495f"/><path d="m24 150h-12v2h12z" fill="#35495f"/><path d="m24 146h-12v2h12z" fill="#35495f"/><path d="m24 142h-12v2h12z" fill="#35495f"/><path d="m24 138h-12v2h12z" fill="#35495f"/><path d="m24 134h-12v2h12z" fill="#35495f"/><path d="m24 130h-12v2h12z" fill="#35495f"/><path d="m24 126h-12v2h12z" fill="#35495f"/><path d="m24 122h-12v2h12z" fill="#35495f"/><path d="m24 110h-12v2h12z" fill="#35495f"/><path d="m24 106h-12v2h12z" fill="#35495f"/><path d="m24 102h-12v2h12z" fill="#35495f"/><path d="m24 98h-12v2h12z" fill="#35495f"/><path d="m0 0c0-5.342-4.331-9.673-9.673-9.673h-154.327c-4.418 0-8 3.582-8 8v112h-2v-112c0-5.514 4.486-10 10-10h154.327c6.437 0 11.673 5.237 11.673 11.673v110.327h-2z" fill="#223140" transform="translate(214 87.6725)"/></g></svg>