<svg xmlns="http://www.w3.org/2000/svg" viewBox="0 0 256 256"><path fill="#35495f" d="M227.675 60H28.325C20.413 60 14 66.556 14 74.643V134h12v10H14v29.357C14 181.444 20.413 188 28.325 188h199.351c7.911 0 14.325-6.556 14.325-14.643V74.643C242 66.556 235.587 60 227.675 60"/><path fill="#2b3e51" d="M225 198H31a1 1 0 0 1-1-1V59a1 1 0 0 1 1-1h194a1 1 0 0 1 1 1v138a1 1 0 0 1-1 1"/><path fill="#1b80bb" d="M204.327 178H50a8 8 0 0 1-8-8V58h172v110.327c0 5.342-4.331 9.673-9.673 9.673"/><path fill="#223140" d="M242 84h-6.353c-3.119 0-5.647 2.201-5.647 4.917v66.167c0 2.715 2.528 4.917 5.647 4.917H242z"/><path fill="#35495f" d="M232 88h12v2h-12zm0 4h12v2h-12zm0 4h12v2h-12zm0 4h12v2h-12zm0 4h12v2h-12zm0 4h12v2h-12zm0 4h12v2h-12zm0 4h12v2h-12zm0 4h12v2h-12zm0 4h12v2h-12zm0 4h12v2h-12zm0 4h12v2h-12zm0 4h12v2h-12zm0 4h12v2h-12zm0 4h12v2h-12zm0 4h12v2h-12zm0 4h12v2h-12zm0 4h12v2h-12z"/><path fill="#223140" d="M26 134V88.89c0-2.701-2.528-4.89-5.647-4.89H14v50zm-12 10v16h6.353c3.119 0 5.647-2.452 5.647-5.476V144z"/><path fill="#35495f" d="M12 88h12v2H12zm0 4h12v2H12zm0 4h12v2H12zm0 4h12v2H12zm0 4h12v2H12zm0 4h12v2H12zm0 4h12v2H12zm0 4h12v2H12zm0 4h12v2H12zm0 4h12v2H12zm0 4h12v2H12zm0 4h12v2H12zm0 12h12v2H12zm0 4h12v2H12zm0 4h12v2H12zm0 4h12v2H12z"/><path fill="#223140" d="M214 168.327c0 5.342-4.331 9.673-9.673 9.673H50a8 8 0 0 1-8-8V58h-2v112c0 5.514 4.486 10 10 10h154.327c6.436 0 11.673-5.236 11.673-11.673V58h-2z"/></svg>