<svg enable-background="new 0 0 256 256" viewBox="0 0 256 256" xmlns="http://www.w3.org/2000/svg"><path d="m128 12c-64.071 0-116 51.934-116 116s51.929 116 116 116c64.051 0 116-51.934 116-116s-51.949-116-116-116zm0 132c-8.837 0-16-7.163-16-16s7.163-16 16-16 16 7.163 16 16-7.163 16-16 16z" fill="#1b80bb"/><path d="m128 16c-29.918 0-58.045 11.65-79.198 32.804-21.153 21.153-32.802 49.279-32.802 79.196s11.649 58.043 32.802 79.196c21.153 21.154 49.28 32.804 79.198 32.804 61.757 0 112-50.243 112-112s-50.243-112-112-112zm0 128c-8.837 0-16-7.163-16-16s7.163-16 16-16 16 7.163 16 16-7.163 16-16 16z" fill="#3babe0"/><path d="m231.425 85.167c-10.976-26.498-32.037-48.817-60.566-60.634l-36.738 88.692c4.082 1.691 7.092 4.876 8.659 8.659z" fill="#3394d1"/><path d="m24.522 170.869c11.448 27.638 32.975 49.164 60.616 60.613l36.738-88.692c-4.082-1.691-7.092-4.876-8.659-8.659z" fill="#3394d1"/><path d="m128.003 82c-25.364 0-46.003 20.651-46.003 46s20.639 46 46.003 46c25.338 0 45.997-20.651 45.997-46s-20.659-46-45.997-46zm-.001 59.776c-7.596 0-13.786-6.176-13.786-13.776 0-7.604 6.19-13.785 13.786-13.785 7.6 0 13.777 6.181 13.777 13.785 0 7.599-6.177 13.776-13.777 13.776z" fill="#1b80bb"/><g fill="#e77f25"><path d="m128.003 174c-14.568 0-27.568-6.82-36.003-17.423v1.726 17.697 62.973c11.391 3.26 23.474 5.027 36 5.027 12.525 0 24.608-1.768 36-5.029v-62.971-16.134-3.296c-8.438 10.606-21.44 17.43-35.997 17.43z"/><path d="m128.003 92c-19.85 0-36.003 16.162-36.003 36s16.153 36 36.003 36c19.83 0 35.997-16.162 35.997-36s-16.168-36-35.997-36zm-.001 49.995c-7.716 0-14.005-6.275-14.005-13.995 0-7.725 6.289-14.005 14.005-14.005 7.721 0 13.995 6.279 13.995 14.005.001 7.721-6.274 13.995-13.995 13.995z"/></g></svg>