<svg enable-background="new 0 0 256 256" viewBox="0 0 256 256" xmlns="http://www.w3.org/2000/svg"><path d="m220 28v-4h-4v-8c0-2.209-1.791-4-4-4h-168c-2.209 0-4 1.791-4 4v8h-4v4h4v4h-4v4h4v4h-4v4h4v4h-4v4h4v4h-4v4h4v4h-4v4h4v4h-4v4h4v4h-4v4h4v156c0 2.209 1.791 4 4 4h168c2.209 0 4-1.791 4-4v-156h4v-4h-4v-4h4v-4h-4v-4h4v-4h-4v-4h4v-4h-4v-4h4v-4h-4v-4h4v-4h-4v-4h4v-4h-4v-4z" fill="#35495f"/><path d="m50 12v125.185c0 2.663 2.051 4.815 4.588 4.815h146.823c2.537 0 4.588-2.152 4.588-4.815v-125.185z" fill="#2b3e51"/><path d="m198.933 12h-141.866c-2.802 0-5.067 2.488-5.067 5.565v116.87c0 3.078 2.265 5.565 5.067 5.565h141.867c2.802 0 5.067-2.488 5.067-5.565v-116.87c-.001-3.077-2.266-5.565-5.068-5.565z" fill="#1b80bb"/></svg>