<svg xmlns="http://www.w3.org/2000/svg" viewBox="0 0 256 256"><path fill="#2b3e51" d="M244.451 124.288c0-35.975-51.923-65.138-115.974-65.138-63.981 0-115.855 29.1-115.969 65.021h-.005c-.001.036.002.072 0 .108v.009l.001.005c-1.297 31.956 21.608 61.004 41.598 65.909 27.101 6.65 21.941-23.611 40.669-30.631s48.692-7.02 67.42 0 7.981 36.623 35.632 30.631c20.462-4.434 46.971-33.347 46.608-65.703.001-.072.02-.14.02-.211"/><path fill="#223140" d="M64.451 83.149c-19.85 0-36 16.15-36 36s16.15 36 36 36 36-16.15 36-36-16.149-36-36-36"/><path fill="#2b3e51" d="M64.451 91.149c-15.439 0-28 12.561-28 28s12.561 28 28 28 28-12.561 28-28-12.56-28-28-28"/><circle cx="64.451" cy="119.149" r="24" fill="#223140"/><path fill="#2b3e51" d="M84.451 113.163H70.437V99.149H58.466v14.014H44.451v11.972h14.015v14.014h11.971v-14.014h14.014zm-36-10.014 4 1.672-2.328 2.328zm32 0-4 1.672 2.329 2.328zm0 32-4-1.671 2.329-2.329zm-32 0 4-1.671-2.328-2.329z"/><circle cx="64.451" cy="119.149" r="4" fill="#223140"/><g fill="#ececed"><path d="m64.451 84.149 2 6h-4zm0 70-2-6h4zm35-35-6 2v-4zm-70 0 6-2v4z"/><circle cx="41.628" cy="96.326" r="1"/><circle cx="87.451" cy="96.149" r="1"/><circle cx="41.451" cy="142.149" r="1"/><circle cx="87.451" cy="142.149" r="1"/><path d="m186.553 89.141-13.912 5.779c-1.557.647-3.332-.119-3.965-1.71s.116-3.405 1.673-4.052l13.912-5.779c1.557-.647 3.332.119 3.965 1.71s-.116 3.405-1.673 4.052"/></g><path fill="#2b3e51" d="M160.826 144.299c-3.456-2.848-5.698-7.11-5.43-11.645.277-4.695 3.032-10.703 12.944-15.958 17.609-9.335 33.115-15.711 36.36-17.019.476-.192.95-.358 1.445-.493 3.275-.895 15.495-3.497 21.282 5.585 4.143 6.502 1.303 12.291-1.483 15.772a13.8 13.8 0 0 1-6.238 4.396c-8.193 2.87-32.133 11.685-41.192 19.709-7.055 6.249-13.773 2.879-17.688-.347"/><path fill="#223140" d="M213.762 98.144c4.706 0 10.283 1.318 13.665 6.624 4.143 6.502 1.303 12.291-1.483 15.772a13.8 13.8 0 0 1-6.238 4.396c-8.193 2.87-32.133 11.685-41.192 19.709-2.894 2.563-5.732 3.508-8.342 3.508-3.754 0-7.037-1.953-9.346-3.856-3.456-2.848-5.698-7.11-5.43-11.645.277-4.695 3.032-10.703 12.944-15.958 17.609-9.335 33.115-15.711 36.36-17.019.476-.192.95-.358 1.445-.493 1.361-.371 4.269-1.038 7.617-1.038m.001-2.995c-3.654 0-6.813.715-8.371 1.141a16 16 0 0 0-1.761.6c-2.99 1.206-18.81 7.698-36.633 17.147-6.325 3.353-13.978 9.274-14.519 18.437-.31 5.248 2.126 10.542 6.516 14.159 3.586 2.955 7.451 4.517 11.178 4.517 3.629 0 7.079-1.426 10.254-4.238 8.752-7.751 33.002-16.61 40.226-19.141a16.74 16.74 0 0 0 7.553-5.331c5.016-6.269 5.609-13.126 1.67-19.308-3.329-5.223-8.9-7.983-16.113-7.983"/><circle cx="168.451" cy="133.149" r="10" fill="#35495f"/><circle cx="192.451" cy="121.149" r="10" fill="#35495f"/><circle cx="216.451" cy="111.149" r="10" fill="#35495f"/></svg>