<svg height="197.33333" viewBox="0 0 309.33331 197.33333" width="309.33331" xmlns="http://www.w3.org/2000/svg" xmlns:xlink="http://www.w3.org/1999/xlink"><clipPath id="a"><path d="m0 256h256v-256h-256z"/></clipPath><g clip-path="url(#a)" transform="matrix(1.3333333 0 0 -1.3333333 -16 271.99999)"><path d="m0 0c-23.113 0-42.207-26.5-60.296-26.5-18.088 0-37.182 26.5-60.295 26.5-30.486 0-41.705-78.336-41.705-108s10.552-36 21.606-36c16.079 0 53.595 40 80.394 40 26.8 0 64.316-40 80.395-40 11.054 0 21.605 6.336 21.605 36s-11.219 108-41.704 108" fill="#223140" transform="translate(188.2956 204)"/><path d="m0 0c-23 0-42-12-60-12s-37 12-60 12c-30.336 0-56-78.336-56-108s25-36 36-36c16 0 53.332 40 80 40s64-40 80-40c11 0 36 6.336 36 36s-25.664 108-56 108" fill="#2b3e51" transform="translate(188 200)"/><path d="m0 0c-63.576 0-87.921-15.942-97.2-27.283-2.437-5.259-4.681-10.756-6.699-16.302-2.597-16.281-4.984-65.532 60.451-68.415 14.667 10 30.667 20 44.001 20 13.27 0 29.181-9.905 43.79-19.857l.21.001s79.77-6.816 58.302 73.456c0 0-.039.347-.191.972-.751 1.888-1.529 3.759-2.33 5.611-6.234 10.974-27.641 31.817-100.334 31.817" fill="#35495f" transform="translate(127.185 188)"/><path d="m0 0c-14.336 0-26-11.664-26-26s11.664-26 26-26 26 11.664 26 26-11.664 26-26 26" fill="#223140" transform="translate(60 154)"/><path d="m0 0c0-12.15-9.85-22-22-22s-22 9.85-22 22 9.85 22 22 22 22-9.85 22-22" fill="#2b3e51" transform="translate(82 128)"/><g fill="#223140"><path d="m0 0c4.416 0 8-3.584 8-8s-3.584-8-8-8-8 3.584-8 8 3.584 8 8 8" transform="translate(176 160)"/><path d="m0 0c0-2.212-1.788-4-4-4h-10v-10c0-2.212-1.788-4-4-4h-4c-2.212 0-4 1.788-4 4v10h-10c-2.212 0-4 1.788-4 4v4c0 2.212 1.788 4 4 4h10v10c0 2.212 1.788 4 4 4h4c2.212 0 4-1.788 4-4v-10h10c2.212 0 4-1.788 4-4z" transform="translate(80 126)"/><path d="m0 0c-4.416 0-8 .896-8 2s3.584 2 8 2 8-.896 8-2-3.584-2-8-2" transform="translate(128 108)"/><path d="m0 0c0 4.416 3.584 8 8 8s8-3.584 8-8-3.584-8-8-8-8 3.584-8 8" transform="translate(148 140)"/><path d="m0 0c-6.628 0-12 5.148-12 11.5s5.372 11.5 12 11.5 12-5.148 12-11.5-5.372-11.5-12-11.5" transform="translate(164 100.5)"/><path d="m0 0c-6.628 0-12 5.372-12 12s5.372 12 12 12 12-5.372 12-12-5.372-12-12-12" transform="translate(188 116)"/><path d="m0 0c-4.416 0-8 3.584-8 8s3.584 8 8 8 8-3.584 8-8-3.584-8-8-8" transform="translate(196 156)"/><path d="m0 0c-6.628 0-12 5.372-12 12s5.372 12 12 12 12-5.372 12-12-5.372-12-12-12" transform="translate(212 132)"/></g><path d="m0 0c0-2.209-1.791-4-4-4s-4 1.791-4 4 1.791 4 4 4 4-1.791 4-4" fill="#2b3e51" transform="translate(64 128)"/></g></svg>