<svg enable-background="new 0 0 256 256" viewBox="0 0 256 256" xmlns="http://www.w3.org/2000/svg"><path d="m208 212h-160c-6.6 0-12-5.4-12-12v-184c0-2.2 1.8-4 4-4h152c15.4 0 28 12.6 28 28v160c0 6.6-5.4 12-12 12z" fill="#eec41b"/><path d="m200 176h-164v-156h148c15.4 0 28 12.6 28 28v116c0 6.6-5.4 12-12 12z" fill="#f19c21"/><path d="m192 172h-144v-148h128c15.4 0 28 12.6 28 28v108c0 6.6-5.4 12-12 12z" fill="#1b80bb"/><path d="m72 212h112v32h-112z" fill="#f19c21"/><path d="m176 240h-96c-2.209 0-4-1.791-4-4v-16c0-2.209 1.791-4 4-4h96c2.209 0 4 1.791 4 4v16c0 2.209-1.791 4-4 4z" fill="#eec41b"/><path d="m188 188c2.209 0 4 1.791 4 4v4c0 2.209-1.791 4-4 4h-120c-2.209 0-4-1.791-4-4v-4c0-2.209 1.791-4 4-4zm0-4h-120c-4.411 0-8 3.589-8 8v4c0 4.411 3.589 8 8 8h120c4.411 0 8-3.589 8-8v-4c0-4.411-3.589-8-8-8z" fill="#f19c21"/><g fill="#eec41b"><path d="m54 44h-12c-1.105 0-2-.895-2-2v-8c0-1.105.895-2 2-2h12c1.105 0 2 .895 2 2v8c0 1.105-.895 2-2 2z"/><path d="m54 104h-12c-1.105 0-2-.895-2-2v-8c0-1.105.895-2 2-2h12c1.105 0 2 .895 2 2v8c0 1.105-.895 2-2 2z"/><path d="m54 164h-12c-1.105 0-2-.895-2-2v-8c0-1.105.895-2 2-2h12c1.105 0 2 .895 2 2v8c0 1.105-.895 2-2 2z"/></g></svg>