<svg enable-background="new 0 0 256 256" viewBox="0 0 256 256" xmlns="http://www.w3.org/2000/svg"><path d="m244 88v-32.2c0-2.105-1.669-3.8-3.742-3.8h-224.516c-2.073 0-3.742 1.695-3.742 3.8v32.2h4v4h-3.107c-.493 0-.893.427-.893.954v2.091c0 .528.4.955.893.955h3.107v4h-3.107c-.493 0-.893.427-.893.954v2.091c0 .527.4.954.893.954h3.107v4h-4v92.2c0 2.105 1.669 3.8 3.742 3.8h224.516c2.073 0 3.742-1.695 3.742-3.8v-92.199h-4v-4h3.107c.493 0 .893-.427.893-.954v-2.091c0-.527-.4-.954-.893-.954h-3.107v-4h3.107c.493-.001.893-.428.893-.955v-2.091c0-.527-.4-.954-.893-.954h-3.107v-4h4z" fill="#2b3e51"/><g fill="#223140"><path d="m16 96h224v4h-224z"/><path d="m16 104h224v4h-224z"/><path d="m16 88h224v4h-224z"/></g><path d="m236.267 52h-216.534-3.733v3.556 24.889c0 1.963 1.671 3.555 3.733 3.555h216.533c2.062 0 3.733-1.592 3.733-3.556v-24.888-3.556z" fill="#1b80bb"/></svg>