<svg enable-background="new 0 0 256 256" viewBox="0 0 256 256" xmlns="http://www.w3.org/2000/svg"><path clip-rule="evenodd" d="m50.008 38.303s38.221-2.303 77.442-2.303c38.821 0 78.643 2.303 78.643 2.303 6.403 0 11.606 5.206 11.606 11.613 0 0 2.301 39.443 2.301 78.686 0 38.842-2.301 77.484-2.301 77.484 0 6.407-5.203 11.613-11.606 11.613 0 0-39.822 2.303-78.643 2.303-39.221 0-77.542-2.303-77.542-2.303-6.403 0-11.606-5.206-11.606-11.613 0 0-2.301-39.343-2.301-78.485 0-38.842 2.301-77.584 2.301-77.584-.001-6.509 5.202-11.714 11.706-11.714z" fill="#7f8c8d" fill-rule="evenodd"/><path d="m172 120h-88c-15.439 0-28-12.563-28-28s12.561-28 28-28h88c15.439 0 28 12.563 28 28s-12.56 28-28 28z" fill="#223140"/><circle cx="172" cy="92" fill="#dadfe0" r="20"/><path d="m172 192h-88c-15.439 0-28-12.563-28-28s12.561-28 28-28h88c15.439 0 28 12.563 28 28s-12.56 28-28 28z" fill="#dadfe0"/><circle cx="84" cy="164" fill="#223140" r="20"/></svg>