<svg height="309.33331" viewBox="0 0 309.33331 309.33331" width="309.33331" xmlns="http://www.w3.org/2000/svg" xmlns:xlink="http://www.w3.org/1999/xlink"><clipPath id="a"><path d="m0 256h256v-256h-256z"/></clipPath><g clip-path="url(#a)" transform="matrix(1.3333333 0 0 -1.3333333 -15.999733 325.33306)"><path d="m0 0s48.191 2.903 97.644 2.903c48.949 0 99.159-2.903 99.159-2.903 8.074 0 14.634-6.564 14.634-14.642 0 0 2.901-49.732 2.901-99.212 0-48.975-2.901-97.698-2.901-97.698 0-8.078-6.56-14.642-14.634-14.642 0 0-50.21-2.903-99.159-2.903-49.453 0-97.77 2.903-97.77 2.903-8.074 0-14.634 6.564-14.634 14.642 0 0-2.902 49.606-2.902 98.96 0 48.975 2.902 97.824 2.902 97.824 0 8.204 6.56 14.768 14.76 14.768" fill="#7f8c8d" fill-rule="evenodd" transform="translate(29.6618 241.0968)"/><path d="m0 0c0 3.453-.421 6.807-1.206 10.015l10.821 5.585c-2.283 7.176-5.455 15.35-10.4 20.8l-12.35-5.746c-4.831 4.612-10.743 8.096-17.332 10.02l-.879 10.146c-3.562.764-7.248 1.18-11.039 1.18s-7.478-.416-11.05-1.186l-.874-10.145c-6.578-1.924-12.495-5.408-17.326-10.02l-12.35 5.751c-4.951-5.45-8.112-13.624-10.4-20.8l10.821-5.585c-.775-3.208-1.201-6.562-1.201-10.015s.426-6.802 1.201-10.015l-10.821-5.585c2.288-7.176 5.449-15.35 10.4-20.8l12.35 5.746c4.831-4.612 10.748-8.096 17.326-10.02l.874-10.146c3.572-.764 7.259-1.18 11.05-1.18s7.477.416 11.039 1.186l.879 10.145c6.589 1.924 12.501 5.408 17.332 10.02l12.35-5.751c4.945 5.45 8.117 13.624 10.4 20.8l-10.821 5.585c.785 3.213 1.206 6.562 1.206 10.015" fill="#dadfe0" transform="translate(150.3852 148)"/><path d="m0 0c.083 2.123-.092 4.196-.492 6.188l6.716 3.17c-1.215 4.468-2.947 9.572-5.822 13.044l-7.65-3.232c-2.826 2.954-6.337 5.241-10.298 6.585l-.289 6.26c-2.148.557-4.38.902-6.685.995s-4.558-.073-6.749-.459l-.776-6.217c-4.047-1.023-7.73-3.02-10.779-5.739l-7.372 3.838c-3.142-3.23-5.262-8.179-6.827-12.536l6.446-3.698c-.548-1.954-.889-4.006-.972-6.129-.083-2.123.095-4.193.489-6.188l-6.716-3.169c1.218-4.469 2.943-9.573 5.822-13.044l7.649 3.231c2.827-2.954 6.341-5.241 10.295-6.584l.287-6.26c2.154-.557 4.386-.903 6.691-.996 2.305-.092 4.557.073 6.742.46l.78 6.216c4.053 1.023 7.733 3.021 10.782 5.739l7.371-3.838c3.139 3.23 5.266 8.179 6.827 12.536l-6.446 3.698c.556 1.957.893 4.006.976 6.129" fill="#35495f" transform="translate(193.7761 86.9649)"/><path d="m0 0c0-19.882-16.118-36-36-36s-36 16.118-36 36 16.118 36 36 36 36-16.118 36-36" fill="#93a3a3" transform="translate(144 148)"/><path d="m0 0c0-11.046-8.954-20-20-20s-20 8.954-20 20 8.954 20 20 20 20-8.954 20-20" fill="#d1d6d2" transform="translate(128 148)"/><path d="m0 0c0-8.837-7.163-16-16-16s-16 7.163-16 16 7.163 16 16 16 16-7.163 16-16" fill="#223140" transform="translate(124 148)"/><path d="m0 0c0-11.046-8.954-20-20-20s-20 8.954-20 20 8.954 20 20 20 20-8.954 20-20" fill="#6c7a88" transform="translate(188 88)"/><path d="m0 0c0-6.627-5.373-12-12-12s-12 5.373-12 12 5.373 12 12 12 12-5.373 12-12" fill="#35495f" transform="translate(180 88)"/><path d="m0 0c0-4.418-3.582-8-8-8s-8 3.582-8 8 3.582 8 8 8 8-3.582 8-8" fill="#223140" transform="translate(176 88)"/></g></svg>