<svg enable-background="new 0 0 256 256" viewBox="0 0 256 256" xmlns="http://www.w3.org/2000/svg"><path d="m12 68h232v144h-232z" fill="#223140"/><path d="m244 208h-232v-91c0-2.761 2.239-5 5-5h222c2.761 0 5 2.239 5 5z" fill="#2b3e51"/><path d="m16 124h224v80h-224z" fill="#223140"/><g fill="#35495f"><path d="m20 128h16v12h-16z"/><path d="m40 128h16v12h-16z"/><path d="m60 128h16v12h-16z"/><path d="m80 128h16v12h-16z"/><path d="m100 128h16v12h-16z"/><path d="m120 128h16v12h-16z"/><path d="m140 128h16v12h-16z"/><path d="m160 128h16v12h-16z"/><path d="m180 128h16v12h-16z"/><path d="m200 128h16v12h-16z"/><path d="m32 148h16v12h-16z"/><path d="m52 148h16v12h-16z"/><path d="m72 148h16v12h-16z"/><path d="m92 148h16v12h-16z"/><path d="m112 148h16v12h-16z"/><path d="m132 148h16v12h-16z"/><path d="m152 148h16v12h-16z"/><path d="m172 148h16v12h-16z"/><path d="m192 148h16v12h-16z"/><path d="m212 148h16v12h-16z"/><path d="m24.24 188h16v12h-16z"/><path d="m44 188h16v12h-16z"/><path d="m63.76 188h16v12h-16z"/><path d="m83.52 188h16v12h-16z"/><path d="m103.28 188h16v12h-16z"/><path d="m123.041 188h16v12h-16z"/><path d="m142.801 188h16v12h-16z"/><path d="m162.561 188h16v12h-16z"/><path d="m182.321 188h16v12h-16z"/><path d="m36 168h16v12h-16z"/><path d="m56 168h16v12h-16z"/><path d="m76 168h16v12h-16z"/><path d="m96 168h16v12h-16z"/><path d="m116 168h16v12h-16z"/><path d="m136 168h16v12h-16z"/><path d="m156 168h16v12h-16z"/><path d="m176 168h16v12h-16z"/><path d="m196 168h16v12h-16z"/><path d="m216 168h16v12h-16z"/><path d="m202.081 188h29.919v12h-29.919z"/><path d="m12 44h232v24h-232z"/></g></svg>