<svg xmlns="http://www.w3.org/2000/svg" viewBox="0 0 256 256"><path fill="#2b3e51" d="M12 56h232v144H12z"/><path fill="#223140" d="M244 200H12v-91a5 5 0 0 1 5-5h222a5 5 0 0 1 5 5z"/><path fill="#35495f" d="M20 112h16v12H20zm20 0h16v12H40zm20 0h16v12H60zm20 0h16v12H80zm20 0h16v12h-16zm20 0h16v12h-16zm20 0h16v12h-16zm20 0h16v12h-16zm20 0h16v12h-16zm20 0h16v12h-16zM32 132h16v12H32zm20 0h16v12H52zm20 0h16v12H72zm20 0h16v12H92zm20 0h16v12h-16zm20 0h16v12h-16zm20 0h16v12h-16zm20 0h16v12h-16zm20 0h16v12h-16zm20 0h16v12h-16zM24.24 172h16v12h-16zM44 172h16v12H44zm19.76 0h16v12h-16zm19.76 0h16v12h-16zm19.76 0h16v12h-16zm19.761 0h16v12h-16zm19.76 0h16v12h-16zm19.76 0h16v12h-16zm19.76 0h16v12h-16z"/><path fill="#e94b36" d="m240 128-32 72h4l28-64h4v-8z"/><path fill="#eec41b" d="m240 136-28 64h4l24-56h4v-8z"/><path fill="#25b796" d="m240 144-24 56h4l20-48h4v-8z"/><path fill="#1b80bb" d="m240 152-20 48h4l16-40h4v-8z"/><path fill="#35495f" d="M36 152h16v12H36zm20 0h16v12H56zm20 0h16v12H76zm20 0h16v12H96zm20 0h16v12h-16zm20 0h16v12h-16zm20 0h16v12h-16zm20 0h16v12h-16zm20 0h16v12h-16zm20 0h16v12h-16zm-13.919 20H232v12h-29.919z"/></svg>