<svg xmlns="http://www.w3.org/2000/svg" viewBox="0 0 256 256"><path fill="#223140" d="M12 68h232v144H12z"/><path fill="#2b3e51" d="M244 208H12v-91a5 5 0 0 1 5-5h222a5 5 0 0 1 5 5z"/><path fill="#223140" d="M16 124h224v80H16z"/><path fill="#35495f" d="M20 128h16v12H20zm20 0h16v12H40zm20 0h16v12H60zm20 0h16v12H80zm20 0h16v12h-16zm20 0h16v12h-16zm20 0h16v12h-16zm20 0h16v12h-16zm20 0h16v12h-16zm20 0h16v12h-16zM32 148h16v12H32zm20 0h16v12H52zm20 0h16v12H72zm20 0h16v12H92zm20 0h16v12h-16zm20 0h16v12h-16zm20 0h16v12h-16zm20 0h16v12h-16zm20 0h16v12h-16zm20 0h16v12h-16zM24.24 188h16v12h-16zM44 188h16v12H44zm19.76 0h16v12h-16zm19.76 0h16v12h-16zm19.76 0h16v12h-16zm19.761 0h16v12h-16zm19.76 0h16v12h-16zm19.76 0h16v12h-16zm19.76 0h16v12h-16zM36 168h16v12H36zm20 0h16v12H56zm20 0h16v12H76zm20 0h16v12H96zm20 0h16v12h-16zm20 0h16v12h-16zm20 0h16v12h-16zm20 0h16v12h-16zm20 0h16v12h-16zm20 0h16v12h-16zm-13.919 20H232v12h-29.919zM12 44h232v24H12z"/></svg>