<svg xmlns="http://www.w3.org/2000/svg" viewBox="0 0 256 256"><path fill="#35495f" d="M242 172H14a2 2 0 0 1-2-2V86a2 2 0 0 1 2-2h228a2 2 0 0 1 2 2v84a2 2 0 0 1-2 2"/><path fill="#2b3e51" d="M188 104h56v64h-56zm-176 0h168v4H12zm0 8h176v4H12zm0 8h176v4H12zm0 8h176v4H12zm0 8h176v4H12zm0 8h176v4H12zm0 8h176v4H12zm0 8h176v4H12z"/><path fill="#223140" d="M40 124h8v8h-8zm0 12h12v8H40zm12-12h8v8h-8zm4 12h8v8h-8zm4 11.925h8v8h-8zm12 0h8v8h-8zm12 0h8v8h-8zm12 0h8v8h-8zm12 0h8v8h-8zm12 0h8v8h-8zm12 0h8v8h-8zm12 0h8v8h-8zm12 0h8v8h-8zM68 136h8v8h-8zm12 0h8v8h-8zm12 0h8v8h-8zm12 0h8v8h-8zm12 0h8v8h-8zm12 0h8v8h-8zm12 0h8v8h-8zm12-.075h8v8h-8zm12 0h8v20h-8zM64 124h8v8h-8zm12 0h8v8h-8zm12 0h8v8h-8zm12 0h8v8h-8zm12 0h8v8h-8zm12 0h8v8h-8zm12 0h8v8h-8zm12 0h8v8h-8zm12 0h12v8h-12zM40 147.85h16v8.075H40zm100 12.075h8V168h-8zM128 160h8v8.075h-8zm-88 0h8v8.075h-8zm12-.075h8V168h-8zm12-.075h8v8.075h-8zm12-.074h8v8.075h-8zm76 .149h8V168h-8zm12 0h8V168h-8zm-76 0h36V168H88z"/><path fill="#2b3e51" d="M16 84h4v4h-4zm8 0h4v4h-4zm8 0h4v4h-4zm8 0h4v4h-4zm8 0h4v4h-4zm8 0h4v4h-4zm8 0h4v4h-4zm8 0h4v4h-4zm8 0h4v4h-4zm8 0h4v4h-4zm8 0h4v4h-4zm8 0h4v4h-4zm8 0h4v4h-4zm8 0h4v4h-4zm8 0h4v4h-4zm8 0h4v4h-4zm8 0h4v4h-4zm8 0h4v4h-4zm8 0h4v4h-4zm8 0h4v4h-4zm8 0h4v4h-4zm8 0h4v4h-4zm8 0h4v4h-4zm8 0h4v4h-4zm8 0h4v4h-4zm8 0h4v4h-4zm8 0h4v4h-4zm8 0h4v4h-4zm12 4h-4v-4h2a2 2 0 0 1 2 2zm-60 28h4v56h-4z"/><path fill="#223140" d="M192 104h48v4h-48z"/><path fill="#e94b36" d="M184 104h4v4h-4z"/><path fill="#223140" d="M188 112h56v4h-56zm0 8h4v4h-4zm52 0h4v4h-4zm-52 8h4v4h-4zm52 0h4v4h-4zm-52 8h4v4h-4zm52 0h4v4h-4zm-52 8h4v4h-4zm52 0h4v4h-4zm-52 8h4v4h-4zm52 0h4v4h-4zm-52 8h4v4h-4zm52 0h4v4h-4zm-48-44h48v52h-48z"/><path fill="#e94b36" d="M192 148h48v4h-48z"/><path fill="#eec41b" d="M192 152h48v4h-48z"/><path fill="#25b796" d="M192 156h48v4h-48z"/><path fill="#3394d1" d="M192 160h48v4h-48z"/></svg>