<svg xmlns="http://www.w3.org/2000/svg" viewBox="0 0 256 256"><path fill="#223140" d="M40 82.34h40l-7.36-19.93a4.04 4.04 0 0 0-2.497-2.42c-6.907-2.33-13.651-2.076-20.274.139a4.05 4.05 0 0 0-2.516 2.418zm176 0h-40l7.36-19.93a4.04 4.04 0 0 1 2.497-2.42c6.907-2.33 13.651-2.076 20.274.139a4.05 4.05 0 0 1 2.516 2.418z"/><path fill="#2b3e51" d="M233.902 116.929c.058-.857.098-1.718.098-2.589 0-12.21-5.795-23.086-14.772-30.043l-6.011-15.903a4.06 4.06 0 0 0-2.046-2.211c-9.882-4.775-20.011-5.476-30.536.041-.848.444-1.488 1.206-1.827 2.101l-4.075 10.783a5 5 0 0 1-4.677 3.232H85.253a4 4 0 0 1-3.742-2.586l-4.32-11.429c-.338-.895-.979-1.657-1.827-2.101-10.525-5.517-20.654-4.816-30.536-.041a4.07 4.07 0 0 0-2.046 2.211l-6.011 15.903C27.795 91.254 22 102.13 22 114.34c0 .871.04 1.732.098 2.589C18.714 135.793 12 173.35 12 174.34c0 13.255 10.745 24 24 24 10.07 0 16-8 22.247-14.997L80 154.34h96l21.753 29.003C204 190.34 209.93 198.34 220 198.34c13.255 0 24-10.745 24-24 0-.99-6.714-38.547-10.098-57.411"/><path fill="#223140" d="M112 144.346h32v12h-32z"/><path fill="#35495f" d="M162.085 126.423A35.9 35.9 0 0 1 160 114.34c0-19.882 16.118-36 36-36s36 16.118 36 36-16.118 36-36 36c-2.759 0-5.442-.321-8.023-.909.011.302.023.604.023.909 0 13.255-10.745 24-24 24s-24-10.745-24-24c0-12.61 9.726-22.94 22.085-23.917m-68.17 0A35.9 35.9 0 0 0 96 114.34c0-19.882-16.118-36-36-36s-36 16.118-36 36 16.118 36 36 36c2.759 0 5.442-.321 8.023-.909-.011.302-.023.604-.023.909 0 13.255 10.745 24 24 24s24-10.745 24-24c0-12.61-9.726-22.94-22.085-23.917"/><g fill="#223140"><circle cx="92" cy="150.34" r="16"/><circle cx="164" cy="150.34" r="16"/><path d="M115 118.34h-10a1 1 0 0 1-1-1v-6a1 1 0 0 1 1-1h10a1 1 0 0 1 1 1v6a1 1 0 0 1-1 1m25.06-1.281v-5.438a1 1 0 0 1 1.243-.97l9.713 2.428c1.313.328 1.313 2.194 0 2.522l-9.713 2.428a1 1 0 0 1-1.243-.97"/><circle cx="196" cy="96.34" r="8"/><circle cx="196" cy="132.34" r="8"/><circle cx="214" cy="114.34" r="8"/><circle cx="178" cy="114.34" r="8"/></g><path fill="#2b3e51" d="M205 86.34a1 1 0 0 1 1 1v16a1 1 0 0 0 1 1h16a1 1 0 0 1 1 1v18a1 1 0 0 1-1 1h-16a1 1 0 0 0-1 1v16a1 1 0 0 1-1 1h-18a1 1 0 0 1-1-1v-16a1 1 0 0 0-1-1h-16a1 1 0 0 1-1-1v-18a1 1 0 0 1 1-1h16a1 1 0 0 0 1-1v-16a1 1 0 0 1 1-1zm0-1h-18c-1.103 0-2 .897-2 2v16h-16c-1.103 0-2 .897-2 2v18c0 1.103.897 2 2 2h16v16c0 1.103.897 2 2 2h18c1.103 0 2-.897 2-2v-16h16c1.103 0 2-.897 2-2v-18c0-1.103-.897-2-2-2h-16v-16c0-1.103-.897-2-2-2m-136 1a1 1 0 0 1 1 1v16a1 1 0 0 0 1 1h16a1 1 0 0 1 1 1v18a1 1 0 0 1-1 1H71a1 1 0 0 0-1 1v16a1 1 0 0 1-1 1H51a1 1 0 0 1-1-1v-16a1 1 0 0 0-1-1H33a1 1 0 0 1-1-1v-18a1 1 0 0 1 1-1h16a1 1 0 0 0 1-1v-16a1 1 0 0 1 1-1zm0-1H51c-1.103 0-2 .897-2 2v16H33c-1.103 0-2 .897-2 2v18c0 1.103.897 2 2 2h16v16c0 1.103.897 2 2 2h18c1.103 0 2-.897 2-2v-16h16c1.103 0 2-.897 2-2v-18c0-1.103-.897-2-2-2H71v-16c0-1.103-.897-2-2-2"/><path fill="#2b3e51" d="M82.75 117.59v-6.5l3.25 3.25zm-45.5-6.5v6.5L34 114.34zm19.5 26h6.5L60 140.34zm6.5-45.5h-6.5L60 88.34z"/><path fill="#223140" d="M40.5 108.849v10.981c0 .558.5 1.01 1.116 1.01h7.279c.921 0 1.821-.252 2.57-.736 1.875-1.214 5.286-3.704 5.286-5.764 0-1.967-2.745-4.329-4.431-5.594-.791-.593-1.791-.906-2.818-.906h-7.884c-.618 0-1.118.452-1.118 1.009m39 10.981v-10.981c0-.558-.5-1.01-1.116-1.01h-7.279c-.921 0-1.821.252-2.57.736-1.875 1.214-5.286 3.704-5.286 5.764 0 1.967 2.745 4.329 4.431 5.594.791.593 1.791.906 2.818.906h7.884c.618.001 1.118-.451 1.118-1.009M65.49 94.84H54.51c-.558 0-1.01.5-1.01 1.116v7.279c0 .921.252 1.821.736 2.57 1.213 1.875 3.704 5.286 5.764 5.286 1.967 0 4.329-2.745 5.594-4.431.593-.791.906-1.791.906-2.818v-7.884c0-.619-.452-1.118-1.01-1.118m-10.98 39h10.98c.558 0 1.01-.5 1.01-1.116v-7.279c0-.921-.252-1.821-.736-2.57C64.55 121 62.06 117.589 60 117.589c-1.967 0-4.329 2.745-5.594 4.431-.593.791-.906 1.791-.906 2.818v7.884c0 .618.452 1.118 1.01 1.118"/><circle cx="128" cy="130.346" r="6" fill="#223140"/><path fill="#854b9c" d="M128.003 103.067 136 96h-4V85.467c0-.81-.657-1.467-1.467-1.467h-5.067c-.81 0-1.467.657-1.467 1.467V96h-4zM134 108h-12a2 2 0 1 1 0-4h12a2 2 0 1 1 0 4"/></svg>