<svg enable-background="new 0 0 256 256" viewBox="0 0 256 256" xmlns="http://www.w3.org/2000/svg"><path d="m40 80h40l-7.36-19.93c-.422-1.142-1.343-2.031-2.497-2.42-6.907-2.33-13.651-2.076-20.274.139-1.16.388-2.09 1.272-2.516 2.418z" fill="#223140"/><path d="m216 80h-40l7.36-19.93c.422-1.142 1.343-2.031 2.497-2.42 6.907-2.33 13.651-2.076 20.274.139 1.16.388 2.09 1.272 2.516 2.418z" fill="#223140"/><path d="m233.902 114.589c.058-.857.098-1.718.098-2.589 0-12.21-5.795-23.086-14.772-30.043l-6.011-15.903c-.368-.975-1.108-1.758-2.046-2.211-9.882-4.775-20.011-5.476-30.536.041-.848.444-1.488 1.206-1.827 2.101l-4.075 10.783c-.735 1.945-2.598 3.232-4.677 3.232h-36.065c-.465 0-.915.16-1.269.462-1.097.935-2.802 1.538-4.722 1.538s-3.625-.603-4.723-1.538c-.354-.302-.803-.462-1.269-.462h-36.756c-1.664 0-3.154-1.03-3.742-2.586l-4.32-11.429c-.338-.895-.979-1.657-1.827-2.101-10.525-5.517-20.654-4.816-30.536-.041-.938.453-1.677 1.237-2.046 2.211l-6.011 15.903c-8.975 6.957-14.77 17.833-14.77 30.043 0 .871.04 1.732.098 2.589-3.384 18.864-10.098 56.421-10.098 57.411 0 13.255 10.745 24 24 24 10.07 0 16-8 22.247-14.997l21.753-29.003h48 48l21.753 29.003c6.247 6.997 12.177 14.997 22.247 14.997 13.255 0 24-10.745 24-24 0-.99-6.714-38.547-10.098-57.411z" fill="#2b3e51"/><path d="m162.085 124.083c-1.346-3.778-2.085-7.843-2.085-12.083 0-19.882 16.118-36 36-36s36 16.118 36 36-16.118 36-36 36c-2.759 0-5.442-.321-8.023-.909.011.302.023.604.023.909 0 13.255-10.745 24-24 24s-24-10.745-24-24c0-12.609 9.726-22.94 22.085-23.917z" fill="#35495f"/><path d="m93.915 124.083c1.346-3.778 2.085-7.843 2.085-12.083 0-19.882-16.118-36-36-36s-36 16.118-36 36 16.118 36 36 36c2.759 0 5.442-.321 8.023-.909-.011.302-.023.604-.023.909 0 13.255 10.745 24 24 24s24-10.745 24-24c0-12.609-9.726-22.94-22.085-23.917z" fill="#35495f"/><circle cx="92" cy="148" fill="#223140" r="16"/><circle cx="164" cy="148" fill="#223140" r="16"/><path d="m133 134h-10c-.552 0-1-.448-1-1v-4c0-.552.448-1 1-1h10c.552 0 1 .448 1 1v4c0 .552-.448 1-1 1z" fill="#223140"/><path d="m124 140h8v4h-8z" fill="#c13c28"/><g fill="#223140"><path d="m115 116h-10c-.552 0-1-.448-1-1v-6c0-.552.448-1 1-1h10c.552 0 1 .448 1 1v6c0 .552-.448 1-1 1z"/><path d="m140.06 114.719v-5.438c0-.651.611-1.128 1.243-.97l9.713 2.428c1.313.328 1.313 2.194 0 2.522l-9.713 2.428c-.632.158-1.243-.319-1.243-.97z"/><circle cx="196" cy="94" r="8"/><circle cx="196" cy="130" r="8"/><circle cx="214" cy="112" r="8"/><circle cx="178" cy="112" r="8"/></g><path d="m205 84c.552 0 1 .448 1 1v16c0 .552.448 1 1 1h16c.552 0 1 .448 1 1v18c0 .552-.448 1-1 1h-16c-.552 0-1 .448-1 1v16c0 .552-.448 1-1 1h-18c-.552 0-1-.448-1-1v-16c0-.552-.448-1-1-1h-16c-.552 0-1-.448-1-1v-18c0-.552.448-1 1-1h16c.552 0 1-.448 1-1v-16c0-.552.448-1 1-1zm0-1h-18c-1.103 0-2 .897-2 2v16h-16c-1.103 0-2 .897-2 2v18c0 1.103.897 2 2 2h16v16c0 1.103.897 2 2 2h18c1.103 0 2-.897 2-2v-16h16c1.103 0 2-.897 2-2v-18c0-1.103-.897-2-2-2h-16v-16c0-1.103-.897-2-2-2z" fill="#2b3e51"/><path d="m69 84c.552 0 1 .448 1 1v16c0 .552.448 1 1 1h16c.552 0 1 .448 1 1v18c0 .552-.448 1-1 1h-16c-.552 0-1 .448-1 1v16c0 .552-.448 1-1 1h-18c-.552 0-1-.448-1-1v-16c0-.552-.448-1-1-1h-16c-.552 0-1-.448-1-1v-18c0-.552.448-1 1-1h16c.552 0 1-.448 1-1v-16c0-.552.448-1 1-1zm0-1h-18c-1.103 0-2 .897-2 2v16h-16c-1.103 0-2 .897-2 2v18c0 1.103.897 2 2 2h16v16c0 1.103.897 2 2 2h18c1.103 0 2-.897 2-2v-16h16c1.103 0 2-.897 2-2v-18c0-1.103-.897-2-2-2h-16v-16c0-1.103-.897-2-2-2z" fill="#2b3e51"/><path d="m82.75 115.25v-6.5l3.25 3.25z" fill="#2b3e51"/><path d="m37.25 108.75v6.5l-3.25-3.25z" fill="#2b3e51"/><path d="m56.75 134.75h6.5l-3.25 3.25z" fill="#2b3e51"/><path d="m63.25 89.25h-6.5l3.25-3.25z" fill="#2b3e51"/><path d="m40.5 106.51v10.981c0 .558.5 1.01 1.116 1.01h7.279c.921 0 1.821-.252 2.57-.736 1.875-1.214 5.286-3.704 5.286-5.764 0-1.967-2.745-4.329-4.431-5.594-.791-.593-1.791-.906-2.818-.906h-7.884c-.618-.001-1.118.451-1.118 1.009z" fill="#223140"/><path d="m79.5 117.49v-10.98c0-.558-.5-1.01-1.116-1.01h-7.279c-.921 0-1.821.252-2.57.736-1.875 1.214-5.286 3.704-5.286 5.764 0 1.967 2.745 4.329 4.431 5.594.791.593 1.791.906 2.818.906h7.884c.618 0 1.118-.452 1.118-1.01z" fill="#223140"/><path d="m65.49 92.5h-10.98c-.558 0-1.01.5-1.01 1.116v7.279c0 .921.252 1.821.736 2.57 1.213 1.875 3.704 5.286 5.764 5.286 1.967 0 4.329-2.745 5.594-4.431.593-.791.906-1.791.906-2.818v-7.884c0-.618-.452-1.118-1.01-1.118z" fill="#223140"/><path d="m54.51 131.5h10.98c.558 0 1.01-.5 1.01-1.116v-7.279c0-.921-.252-1.821-.736-2.57-1.214-1.875-3.704-5.286-5.764-5.286-1.967 0-4.329 2.745-5.594 4.431-.593.791-.906 1.791-.906 2.818v7.884c0 .618.452 1.118 1.01 1.118z" fill="#223140"/></svg>