<svg enable-background="new 0 0 256 256" viewBox="0 0 256 256" xmlns="http://www.w3.org/2000/svg"><path d="m44 64-1.124-2.247c-.506-1.012-.081-2.243.949-2.711 2.604-1.184 7.996-3.042 16.175-3.042 12 0 12 4 12 4v4z" fill="#35495f"/><path d="m212 64 1.124-2.247c.506-1.012.081-2.243-.949-2.711-2.604-1.184-7.996-3.042-16.175-3.042-12 0-12 4-12 4v4z" fill="#35495f"/><path d="m236 112c-8-36-20-50-20-50-3.404-3.404-24.189-1.911-30.307-1.987-1.079-.013-2.114.408-2.877 1.171l-1.644 1.644c-.75.75-1.768 1.172-2.828 1.172h-100.687c-1.061 0-2.078-.421-2.828-1.172l-1.644-1.644c-.763-.763-1.798-1.185-2.877-1.171-6.119.076-26.904-1.417-30.308 1.987 0 0-12 14-20 50s-8 56-8 56 0 32 20 32c19.829 0 27.863-15.728 39.694-47.185.2-.532.514-1.023.916-1.426l2.218-2.218c.75-.75 1.768-1.172 2.828-1.172h50.344 50.343c1.061 0 2.078.421 2.828 1.172l2.218 2.218c.402.402.716.893.916 1.426 11.832 31.457 19.866 47.185 39.695 47.185 20 0 20-32 20-32s0-20-8-56z" fill="#2b3e51"/><path d="m160 108h-64c-4.418 0-8-3.582-8-8v-32c0-2.209 1.791-4 4-4h72c2.209 0 4 1.791 4 4v32c0 4.418-3.582 8-8 8z" fill="#223140"/><path d="m96 68h64v2h-64z" fill="#1b80bb"/><circle cx="54" cy="98" fill="#35495f" r="28"/><circle cx="202" cy="98" fill="#35495f" r="28"/><path d="m80 80c-2.209 0-4-1.791-4-4v-4c0-2.209 1.791-4 4-4 2.209 0 4 1.791 4 4v4c0 2.209-1.791 4-4 4z" fill="#35495f"/><path d="m176 80c-2.209 0-4-1.791-4-4v-4c0-2.209 1.791-4 4-4 2.209 0 4 1.791 4 4v4c0 2.209-1.791 4-4 4z" fill="#35495f"/><path d="m45.131 92h-8.93c-1.105 0-2 .895-2 2v8c0 1.105.895 2 2 2h8.93c.669 0 1.293-.334 1.664-.891l2.667-4c.448-.672.448-1.547 0-2.219l-2.667-4c-.37-.556-.995-.89-1.664-.89z" fill="#2b3e51"/><path d="m62.869 92h8.93c1.105 0 2 .895 2 2v8c0 1.105-.895 2-2 2h-8.93c-.669 0-1.293-.334-1.664-.891l-2.667-4c-.448-.672-.448-1.547 0-2.219l2.667-4c.37-.556.995-.89 1.664-.89z" fill="#2b3e51"/><path d="m60.202 89.131v-8.93c0-1.105-.895-2-2-2h-8c-1.105 0-2 .895-2 2v8.93c0 .669.334 1.293.891 1.664l4 2.667c.672.448 1.547.448 2.219 0l4-2.667c.556-.37.89-.995.89-1.664z" fill="#2b3e51"/><path d="m60.202 106.869v8.93c0 1.105-.895 2-2 2h-8c-1.105 0-2-.895-2-2v-8.93c0-.669.334-1.293.891-1.664l4-2.667c.672-.448 1.547-.448 2.219 0l4 2.667c.556.37.89.995.89 1.664z" fill="#2b3e51"/><path d="m32 96v4l-2-2z" fill="#223140"/><path d="m76 100v-4l2 2z" fill="#223140"/><path d="m56 76h-4l2-2z" fill="#223140"/><path d="m52 120h4l-2 2z" fill="#223140"/><circle cx="93" cy="132" fill="#35495f" r="22"/><path d="m93 116c-8.822 0-16 7.178-16 16s7.178 16 16 16 16-7.178 16-16-7.178-16-16-16z" fill="#223140"/><circle cx="93" cy="132" fill="#2b3e51" r="14"/><path d="m93 122c5.514 0 10 4.486 10 10s-4.486 10-10 10-10-4.486-10-10 4.486-10 10-10m0-2c-6.627 0-12 5.373-12 12s5.373 12 12 12 12-5.373 12-12-5.373-12-12-12z" fill="#35495f"/><circle cx="163" cy="132" fill="#35495f" r="22"/><path d="m163 116c-8.822 0-16 7.178-16 16s7.178 16 16 16 16-7.178 16-16-7.178-16-16-16z" fill="#223140"/><circle cx="163" cy="132" fill="#2b3e51" r="14"/><path d="m163 122c5.514 0 10 4.486 10 10s-4.486 10-10 10-10-4.486-10-10 4.486-10 10-10m0-2c-6.627 0-12 5.373-12 12s5.373 12 12 12 12-5.373 12-12-5.373-12-12-12z" fill="#35495f"/><g fill="#223140"><circle cx="128" cy="132" r="7"/><circle cx="120" cy="113" r="1"/><circle cx="124" cy="113" r="1"/><circle cx="128" cy="113" r="1"/><circle cx="132" cy="113" r="1"/><circle cx="136" cy="113" r="1"/><circle cx="122" cy="116" r="1"/><circle cx="126" cy="116" r="1"/><circle cx="130" cy="116" r="1"/><circle cx="134" cy="116" r="1"/><circle cx="124" cy="119" r="1"/><circle cx="128" cy="119" r="1"/><circle cx="132" cy="119" r="1"/><path d="m140 148h-24c0-1.105.895-2 2-2h20c1.105 0 2 .895 2 2z"/></g><circle cx="186" cy="97" fill="#2b3e51" r="8"/><circle cx="218" cy="97" fill="#2b3e51" r="8"/><circle cx="202" cy="82" fill="#2b3e51" r="8"/><circle cx="202" cy="114" fill="#2b3e51" r="8"/><path d="m62.11 92.165c-.361.149-.682.391-.905.726l-2.667 4c-.448.672-.448 1.547 0 2.219l2.667 4c.223.335.544.576.905.726 1.184-1.644 1.89-3.656 1.89-5.836s-.706-4.192-1.89-5.835z" fill="#223140"/><path d="m54 108c2.251 0 4.32-.753 5.992-2.007-.153-.313-.381-.589-.68-.788l-4-2.667c-.672-.448-1.547-.448-2.219 0l-4 2.667c-.371.247-.631.612-.771 1.022 1.613 1.116 3.568 1.773 5.678 1.773z" fill="#223140"/><path d="m49.462 96.891-2.667-4c-.223-.335-.544-.576-.905-.726-1.184 1.643-1.89 3.655-1.89 5.835s.706 4.192 1.89 5.835c.361-.149.682-.391.905-.726l2.667-4c.448-.671.448-1.547 0-2.218z" fill="#223140"/><path d="m55.311 93.462 4-2.667c.299-.199.527-.475.68-.788-1.671-1.254-3.74-2.007-5.991-2.007-2.11 0-4.065.657-5.678 1.773.14.41.4.775.771 1.022l4 2.667c.671.448 1.546.448 2.218 0z" fill="#223140"/></svg>