<svg xmlns="http://www.w3.org/2000/svg" viewBox="0 0 256 256"><path fill="#10a284" d="M52 20h152v32H52z"/><path fill="#25b796" d="M52 16v7a1 1 0 0 0 1 1h1a2 2 0 0 1 2 2v4a2 2 0 0 1-2 2h-1a1 1 0 0 0-1 1v6a1 1 0 0 0 1 1h1a2 2 0 0 1 2 2v4a2 2 0 0 1-2 2h-1a1 1 0 0 0-1 1v191a4 4 0 0 0 4 4h126.126a4 4 0 0 0 3.073-1.439l16.946-20.336a8 8 0 0 0 1.854-5.121V49a1 1 0 0 0-1-1h-1a2 2 0 0 1-2-2v-4a2 2 0 0 1 2-2h1a1 1 0 0 0 1-1v-6a1 1 0 0 0-1-1h-1a2 2 0 0 1-2-2v-4a2 2 0 0 1 2-2h1a1 1 0 0 0 1-1v-7a4 4 0 0 0-4-4h-16.027c-3.65 2.425-9.436 4-15.973 4s-12.323-1.575-15.973-4H56a4 4 0 0 0-4 4"/><path fill="#10a284" d="M196 209.104a8 8 0 0 1-1.854 5.122L177.2 234.562a4 4 0 0 1-3.073 1.439H52v4h126.126a4 4 0 0 0 3.073-1.439l16.946-20.336a8 8 0 0 0 1.854-5.122v-.004a1.1 1.1 0 0 1 1.1-1.1h2.9v-4h-6.9a1.1 1.1 0 0 0-1.1 1.1z"/><path fill="#1b80bb" d="M120.016 168 160 120h-24V72a8 8 0 0 0-8-8h-16a8 8 0 0 0-8 8v48H80zM84 184h72a4 4 0 0 0 0-8H84a4 4 0 0 0 0 8m92-36h-12v-12h-12v12h-12v12h12v12h12v-12h12z"/></svg>