<svg enable-background="new 0 0 256 256" viewBox="0 0 256 256" xmlns="http://www.w3.org/2000/svg"><path d="m40 82.34h40l-7.36-19.93c-.422-1.142-1.343-2.031-2.497-2.42-6.907-2.33-13.651-2.076-20.274.139-1.16.388-2.09 1.272-2.516 2.418z" fill="#223140"/><path d="m216 82.34h-40l7.36-19.93c.422-1.142 1.343-2.031 2.497-2.42 6.907-2.33 13.651-2.076 20.274.139 1.16.388 2.09 1.272 2.516 2.418z" fill="#223140"/><path d="m233.902 116.929c.058-.857.098-1.718.098-2.589 0-12.21-5.795-23.086-14.772-30.043l-6.011-15.903c-.368-.975-1.108-1.758-2.046-2.211-9.882-4.775-20.011-5.476-30.536.041-.848.444-1.488 1.206-1.827 2.101l-4.075 10.783c-.735 1.945-2.598 3.232-4.677 3.232h-84.803c-1.664 0-3.154-1.03-3.742-2.586l-4.32-11.429c-.338-.895-.979-1.657-1.827-2.101-10.525-5.517-20.654-4.816-30.536-.041-.938.453-1.677 1.237-2.046 2.211l-6.011 15.903c-8.976 6.957-14.771 17.833-14.771 30.043 0 .871.04 1.732.098 2.589-3.384 18.864-10.098 56.421-10.098 57.411 0 13.255 10.745 24 24 24 10.07 0 16-8 22.247-14.997l21.753-29.003h48 48l21.753 29.003c6.247 6.997 12.177 14.997 22.247 14.997 13.255 0 24-10.745 24-24 0-.99-6.714-38.547-10.098-57.411z" fill="#2b3e51"/><path d="m112 144.346h32v12h-32z" fill="#223140"/><path d="m162.085 126.423c-1.346-3.778-2.085-7.843-2.085-12.083 0-19.882 16.118-36 36-36s36 16.118 36 36-16.118 36-36 36c-2.759 0-5.442-.321-8.023-.909.011.302.023.604.023.909 0 13.255-10.745 24-24 24s-24-10.745-24-24c0-12.61 9.726-22.94 22.085-23.917z" fill="#35495f"/><path d="m93.915 126.423c1.346-3.778 2.085-7.844 2.085-12.083 0-19.882-16.118-36-36-36s-36 16.118-36 36 16.118 36 36 36c2.759 0 5.442-.321 8.023-.909-.011.302-.023.604-.023.909 0 13.255 10.745 24 24 24s24-10.745 24-24c0-12.61-9.726-22.94-22.085-23.917z" fill="#35495f"/><g fill="#223140"><circle cx="92" cy="150.34" r="16"/><circle cx="164" cy="150.34" r="16"/><path d="m115 118.34h-10c-.552 0-1-.448-1-1v-6c0-.552.448-1 1-1h10c.552 0 1 .448 1 1v6c0 .552-.448 1-1 1z"/><path d="m140.06 117.059v-5.438c0-.651.611-1.128 1.243-.97l9.713 2.428c1.313.328 1.313 2.194 0 2.522l-9.713 2.428c-.632.158-1.243-.319-1.243-.97z"/><circle cx="196" cy="96.34" r="8"/><circle cx="196" cy="132.34" r="8"/><circle cx="214" cy="114.34" r="8"/><circle cx="178" cy="114.34" r="8"/></g><path d="m205 86.34c.552 0 1 .448 1 1v16c0 .552.448 1 1 1h16c.552 0 1 .448 1 1v18c0 .552-.448 1-1 1h-16c-.552 0-1 .448-1 1v16c0 .552-.448 1-1 1h-18c-.552 0-1-.448-1-1v-16c0-.552-.448-1-1-1h-16c-.552 0-1-.448-1-1v-18c0-.552.448-1 1-1h16c.552 0 1-.448 1-1v-16c0-.552.448-1 1-1zm0-1h-18c-1.103 0-2 .897-2 2v16h-16c-1.103 0-2 .897-2 2v18c0 1.103.897 2 2 2h16v16c0 1.103.897 2 2 2h18c1.103 0 2-.897 2-2v-16h16c1.103 0 2-.897 2-2v-18c0-1.103-.897-2-2-2h-16v-16c0-1.103-.897-2-2-2z" fill="#2b3e51"/><path d="m69 86.34c.552 0 1 .448 1 1v16c0 .552.448 1 1 1h16c.552 0 1 .448 1 1v18c0 .552-.448 1-1 1h-16c-.552 0-1 .448-1 1v16c0 .552-.448 1-1 1h-18c-.552 0-1-.448-1-1v-16c0-.552-.448-1-1-1h-16c-.552 0-1-.448-1-1v-18c0-.552.448-1 1-1h16c.552 0 1-.448 1-1v-16c0-.552.448-1 1-1zm0-1h-18c-1.103 0-2 .897-2 2v16h-16c-1.103 0-2 .897-2 2v18c0 1.103.897 2 2 2h16v16c0 1.103.897 2 2 2h18c1.103 0 2-.897 2-2v-16h16c1.103 0 2-.897 2-2v-18c0-1.103-.897-2-2-2h-16v-16c0-1.103-.897-2-2-2z" fill="#2b3e51"/><path d="m82.75 117.59v-6.5l3.25 3.25z" fill="#2b3e51"/><path d="m37.25 111.09v6.5l-3.25-3.25z" fill="#2b3e51"/><path d="m56.75 137.09h6.5l-3.25 3.25z" fill="#2b3e51"/><path d="m63.25 91.59h-6.5l3.25-3.25z" fill="#2b3e51"/><path d="m40.5 108.849v10.981c0 .558.5 1.01 1.116 1.01h7.279c.921 0 1.821-.252 2.57-.736 1.875-1.214 5.286-3.704 5.286-5.764 0-1.967-2.745-4.329-4.431-5.594-.791-.593-1.791-.906-2.818-.906h-7.884c-.618 0-1.118.452-1.118 1.009z" fill="#223140"/><path d="m79.5 119.83v-10.981c0-.558-.5-1.01-1.116-1.01h-7.279c-.921 0-1.821.252-2.57.736-1.875 1.214-5.286 3.704-5.286 5.764 0 1.967 2.745 4.329 4.431 5.594.791.593 1.791.906 2.818.906h7.884c.618.001 1.118-.451 1.118-1.009z" fill="#223140"/><path d="m65.49 94.84h-10.98c-.558 0-1.01.5-1.01 1.116v7.279c0 .921.252 1.821.736 2.57 1.213 1.875 3.704 5.286 5.764 5.286 1.967 0 4.329-2.745 5.594-4.431.593-.791.906-1.791.906-2.818v-7.884c0-.619-.452-1.118-1.01-1.118z" fill="#223140"/><path d="m54.51 133.84h10.98c.558 0 1.01-.5 1.01-1.116v-7.279c0-.921-.252-1.821-.736-2.57-1.214-1.875-3.704-5.286-5.764-5.286-1.967 0-4.329 2.745-5.594 4.431-.593.791-.906 1.791-.906 2.818v7.884c0 .618.452 1.118 1.01 1.118z" fill="#223140"/><circle cx="128" cy="130.346" fill="#223140" r="6"/><path d="m128.003 103.067 7.997-7.067h-4v-10.533c0-.81-.657-1.467-1.467-1.467h-5.067c-.81 0-1.467.657-1.467 1.467v10.533h-4z" fill="#854b9c"/><path d="m134 108h-12c-1.105 0-2-.895-2-2 0-1.105.895-2 2-2h12c1.105 0 2 .895 2 2 0 1.105-.895 2-2 2z" fill="#854b9c"/></svg>