<svg height="309.33331" viewBox="0 0 202.66665 309.33331" width="202.66666" xmlns="http://www.w3.org/2000/svg" xmlns:xlink="http://www.w3.org/1999/xlink"><clipPath id="a"><path d="m0 256h256v-256h-256z"/></clipPath><g transform="matrix(1.3333333 0 0 -1.3333333 -69.333332 325.33333)"><path d="m204 204h-152v32h152z" fill="#10a284"/><g clip-path="url(#a)"><path d="m0 0v-7c0-.552.448-1 1-1h1c1.105 0 2-.895 2-2v-4c0-1.105-.895-2-2-2h-1c-.552 0-1-.448-1-1v-6c0-.552.448-1 1-1h1c1.105 0 2-.895 2-2v-4c0-1.105-.895-2-2-2h-1c-.552 0-1-.448-1-1v-189-2c0-2.209 1.791-4 4-4h126.126c1.188 0 2.313.527 3.073 1.439l16.947 20.336c1.198 1.438 1.854 3.25 1.854 5.121v1.104 167c0 .552-.448 1-1 1h-1c-1.105 0-2 .895-2 2v4c0 1.105.895 2 2 2h1c.552 0 1 .448 1 1v6c0 .552-.448 1-1 1h-1c-1.105 0-2 .895-2 2v4c0 1.105.895 2 2 2h1c.552 0 1 .448 1 1v7c0 2.209-1.791 4-4 4h-16.027c-3.65-2.425-9.436-4-15.973-4s-12.323 1.575-15.973 4h-96.027c-2.209 0-4-1.791-4-4" fill="#25b796" transform="translate(52 240)"/><path d="m0 0c0-1.872-.656-3.684-1.854-5.122l-16.947-20.335c-.76-.912-1.885-1.439-3.073-1.439h-122.126v-4h126.126c1.188 0 2.313.527 3.073 1.439l16.947 20.335c1.198 1.438 1.854 3.25 1.854 5.122v.004c0 .607.492 1.1 1.1 1.1h2.9v4h-4-2.9c-.608 0-1.1-.493-1.1-1.1z" fill="#10a284" transform="translate(196 46.8964)"/><g fill="#1b80bb"><path d="m0 0 39.984 48h-24v48c0 4.418-3.582 8-8 8h-16c-4.418 0-8-3.582-8-8v-48h-24z" transform="translate(120.016 88)"/><path d="m0 0h72c2.209 0 4 1.791 4 4 0 2.209-1.791 4-4 4h-72c-2.209 0-4-1.791-4-4 0-2.209 1.791-4 4-4" transform="translate(84 72)"/><path d="m0 0h-12v12h-12v-12h-12v-12h12v-12h12v12h12z" transform="translate(176 108)"/></g></g></g></svg>