<svg xmlns="http://www.w3.org/2000/svg" viewBox="0 0 256 256"><path fill="#2b3e51" d="M40 184h176v36H40z"/><path fill="#35495f" d="M36 216h184v24a4 4 0 0 1-4 4H40a4 4 0 0 1-4-4zM56 12h144c11.046 0 20 8.954 20 20v156H36V32c0-11.046 8.954-20 20-20M36 192h184v8H36zm0 12h184v8H36z"/><path fill="#1b80bb" d="M204 172a4 4 0 0 0 4-4V60a4 4 0 0 0-4-4h-28a4 4 0 0 0-4 4v16a4 4 0 0 1-4 4H88a4 4 0 0 1-4-4V60a4 4 0 0 0-4-4H52a4 4 0 0 0-4 4v108a4 4 0 0 0 4 4z"/><path fill="#2b3e51" d="M92 60h72v12H92z"/><path fill="#223140" d="M92 24h72v8H92z"/><path fill="#2b3e51" d="M92 32h72v28H92z"/><path fill="#223140" d="M96 52h64v4H96z"/><path fill="#35495f" d="M96 60h64v4H96z"/><path fill="#223140" d="M96 44h64v4H96zm0-8h64v4H96z"/><path fill="#2b3e51" d="M44 220h168v24H44z"/><path fill="#6c7a88" d="M192 240H64a4 4 0 0 1-4-4v-16h136v16a4 4 0 0 1-4 4"/><path fill="#d35627" d="M64 220h4v16h-4zm8 0h4v16h-4zm8 0h4v16h-4zm8 0h4v16h-4zm8 0h4v16h-4zm8 0h4v16h-4zm8 0h4v16h-4zm8 0h4v16h-4zm12 0h4v16h-4zm8 0h4v16h-4zm8 0h4v16h-4zm8 0h4v16h-4zm8 0h4v16h-4zm8 0h4v16h-4zm8 0h4v16h-4zm8 0h4v16h-4z"/></svg>