<svg height="181.33372" viewBox="0 0 309.33358 181.33372" width="309.33359" xmlns="http://www.w3.org/2000/svg" xmlns:xlink="http://www.w3.org/1999/xlink"><clipPath id="a"><path d="m0 256h256v-256h-256z"/></clipPath><g clip-path="url(#a)" transform="matrix(1.3333333 0 0 -1.3333333 -15.999771 261.33373)"><path d="m0 0v-10c0-1.105.895-2 2-2h9.669c.22 0 .44.018.658.054l23.673 3.946z" fill="#223140" transform="translate(48 72)"/><path d="m0 0c-3.999 51.309-43.985 59.203-59.979 59.203s-43.984-3.947-43.984-3.947h-11.915-.081-11.914s-27.991 3.947-43.985 3.947-55.98-7.894-59.979-59.203c0 0-3.998-59.203 43.985-71.043 0 0 23.991-3.947 39.986 0 15.554 3.838 31.104 3.944 31.948 3.947.843-.003 16.393-.109 31.948-3.947 15.994-3.947 39.985 0 39.985 0 47.984 11.84 43.985 71.043 43.985 71.043" fill="#2b3e51" transform="translate(243.9184 136.7973)"/><path d="m0 0h-12c-1.1 0-2 .9-2 2s.9 2 2 2h12c1.1 0 2-.9 2-2s-.9-2-2-2" fill="#93a3a3" transform="translate(134 184)"/><path d="m0 0h-128c-2.209 0-4 1.791-4 4v88c0 2.209 1.791 4 4 4h128c2.209 0 4-1.791 4-4v-88c0-2.209-1.791-4-4-4" fill="#223140" transform="translate(192 80)"/><path d="m64 84h128v88h-128z" fill="#6c7a88"/><path d="m0 0c0-3.314 2.686-6 6-6s6 2.686 6 6-2.686 6-6 6-6-2.686-6-6" fill="#223140" transform="translate(40 94)"/><path d="m0 0c0-3.314 2.686-6 6-6s6 2.686 6 6-2.686 6-6 6-6-2.686-6-6" fill="#bdc1c6" transform="translate(40 110)"/><path d="m0 0c0-8.837-7.163-18-16-18s-16 9.163-16 18 7.163 18 16 18 16-9.163 16-18" fill="#35495f" transform="translate(48 136)"/><path d="m0 0c0-3.314 2.686-6 6-6s6 2.686 6 6-2.686 6-6 6-6-2.686-6-6" fill="#223140" transform="translate(40 162)"/><path d="m0 0c0-6.627-5.373-12-12-12s-12 5.373-12 12 5.373 12 12 12 12-5.373 12-12" fill="#223140" transform="translate(44 136)"/><path d="m0 0c0-.552-.448-1-1-1s-1 .448-1 1 .448 1 1 1 1-.448 1-1" fill="#262626" transform="translate(33 136)"/><path d="m0 0c0-5.523-4.477-10-10-10s-10 4.477-10 10 4.477 10 10 10 10-4.477 10-10" fill="#2b3e51" transform="translate(42 136)"/><g fill="#223140"><path d="m0 0c0-.552-.448-1-1-1s-1 .448-1 1 .448 1 1 1 1-.448 1-1" transform="translate(33 142)"/><path d="m0 0c0-.552-.448-1-1-1s-1 .448-1 1 .448 1 1 1 1-.448 1-1" transform="translate(27 136)"/><path d="m0 0c0-.552-.448-1-1-1s-1 .448-1 1 .448 1 1 1 1-.448 1-1" transform="translate(39 136)"/><path d="m0 0c0-.552-.448-1-1-1s-1 .448-1 1 .448 1 1 1 1-.448 1-1" transform="translate(33 130)"/><path d="m0 0c0-.552-.448-1-1-1s-1 .448-1 1 .448 1 1 1 1-.448 1-1" transform="translate(37 132)"/><path d="m0 0c0-.552-.448-1-1-1s-1 .448-1 1 .448 1 1 1 1-.448 1-1" transform="translate(29 132)"/><path d="m0 0c0-.552-.448-1-1-1s-1 .448-1 1 .448 1 1 1 1-.448 1-1" transform="translate(37 140)"/><path d="m0 0c0-.552-.448-1-1-1s-1 .448-1 1 .448 1 1 1 1-.448 1-1" transform="translate(29 140)"/><path d="m0 0c-.552 0-1 .448-1 1v2c0 .552.448 1 1 1 .552 0 1-.448 1-1v-2c0-.552-.448-1-1-1" transform="translate(27 100)"/><path d="m0 0c-.552 0-1 .448-1 1v2c0 .552.448 1 1 1 .552 0 1-.448 1-1v-2c0-.552-.448-1-1-1" transform="translate(31 100)"/><path d="m0 0c-.552 0-1 .448-1 1v2c0 .552.448 1 1 1s1-.448 1-1v-2c0-.552-.448-1-1-1" transform="translate(35 100)"/><path d="m0 0c-.552 0-1 .448-1 1v2c0 .552.448 1 1 1s1-.448 1-1v-2c0-.552-.448-1-1-1" transform="translate(217 100)"/><path d="m0 0c-.552 0-1 .448-1 1v2c0 .552.448 1 1 1s1-.448 1-1v-2c0-.552-.448-1-1-1" transform="translate(221 100)"/><path d="m0 0c-.552 0-1 .448-1 1v2c0 .552.448 1 1 1s1-.448 1-1v-2c0-.552-.448-1-1-1" transform="translate(225 100)"/></g><path d="m0 0c0-11.046-8.954-20-20-20s-20 8.954-20 20 8.954 20 20 20 20-8.954 20-20" fill="#333" transform="translate(240 136)"/><path d="m0 0 4.702 4.702c.904.904.742 2.417-.333 3.107-5.235 3.356-11.988 3.356-17.223 0-1.076-.69-1.237-2.203-.334-3.107l4.703-4.702c2.343-2.343 6.142-2.343 8.485 0" fill="#bdc1c6" transform="translate(224.26 141.6569)"/><path d="m0 0-4.703 4.703c-.903.903-2.416.741-3.106-.334-3.356-5.235-3.356-11.988 0-17.223.69-1.076 2.203-1.237 3.106-.334l4.703 4.703c2.343 2.343 2.343 6.142 0 8.485" fill="#bdc1c6" transform="translate(214.3605 140.2426)"/><path d="m0 0 4.703-4.702c.903-.904 2.416-.742 3.106.333 3.356 5.235 3.356 11.988 0 17.223-.69 1.076-2.203 1.237-3.106.334l-4.703-4.703c-2.343-2.343-2.343-6.142 0-8.485" fill="#bdc1c6" transform="translate(225.6742 131.7574)"/><path d="m0 0-4.703-4.702c-.903-.904-.741-2.417.334-3.107 5.235-3.356 11.988-3.356 17.223 0 1.076.69 1.237 2.203.334 3.107l-4.703 4.702c-2.343 2.343-6.142 2.343-8.485 0" fill="#bdc1c6" transform="translate(215.7747 130.3431)"/><path d="m0 0 3.502 3.502c-2.091 1.769-4.791 2.841-7.745 2.841-2.953 0-5.653-1.072-7.744-2.841l3.502-3.502c2.343-2.343 6.142-2.343 8.485 0" fill="#93a3a3" transform="translate(224.2773 141.6569)"/><path d="m0 0-3.502-3.502c-2.343-2.343-2.343-6.142 0-8.485l3.502-3.502c1.77 2.091 2.841 4.791 2.841 7.745 0 2.953-1.071 5.653-2.841 7.744" fill="#93a3a3" transform="translate(229.1933 143.7444)"/><path d="m0 0 3.502 3.502c2.343 2.343 2.343 6.142 0 8.485l-3.502 3.502c-1.77-2.091-2.841-4.791-2.841-7.745 0-2.953 1.071-5.653 2.841-7.744" fill="#93a3a3" transform="translate(210.876 128.2556)"/><path d="m0 0-3.502 3.502c-2.343 2.343-6.142 2.343-8.485 0l-3.502-3.502c2.091-1.77 4.791-2.841 7.745-2.841 2.953 0 5.653 1.071 7.744 2.841" fill="#93a3a3" transform="translate(227.7791 126.8414)"/></g></svg>