<svg xmlns="http://www.w3.org/2000/svg" viewBox="0 0 256 256"><path fill="#2b3e51" d="M238.727 12H17.273A5.27 5.27 0 0 0 12 17.273v200.364L33.091 244h205.636a5.27 5.27 0 0 0 5.273-5.273V17.273A5.27 5.27 0 0 0 238.727 12M240 44h-16V32h16z"/><path fill="#223140" d="M220 244H60v-82.133c0-3.244 2.751-5.867 6.154-5.867h147.692c3.403 0 6.154 2.622 6.154 5.867z"/><path fill="#1b80bb" d="M36 12h184v110.2c0 3.207-2.419 5.8-5.412 5.8H41.412c-2.993 0-5.412-2.593-5.412-5.8z"/><path fill="#bdc1c6" d="M182.727 164H77.273c-2.916 0-5.273 3.251-5.273 7.273V244h116v-72.727c0-4.022-2.357-7.273-5.273-7.273M120 236H84v-64h36z"/></svg>