<svg xmlns="http://www.w3.org/2000/svg" viewBox="0 0 256 256"><path fill="#bdc1c6" d="M228 218H28a8 8 0 0 1-8-8V46a8 8 0 0 1 8-8h200a8 8 0 0 1 8 8v164a8 8 0 0 1-8 8"/><path fill="#d1d6d2" d="M214 200H87a4 4 0 0 1-4-4V69a4 4 0 0 1 4-4h127a4 4 0 0 1 4 4v127a4 4 0 0 1-4 4"/><path fill="#93a3a3" d="M189 173h-77a2 2 0 0 1-2-2V94a2 2 0 0 1 2-2h77a2 2 0 0 1 2 2v77a2 2 0 0 1-2 2"/><path fill="#7f8b8c" d="M178 164h-55a4 4 0 0 1-4-4v-55a4 4 0 0 1 4-4h55a4 4 0 0 1 4 4v55a4 4 0 0 1-4 4"/><circle cx="150.5" cy="132.5" r="31.5" fill="#223140"/><circle cx="51.5" cy="69.5" r="22.5" fill="#223140"/><path fill="#7f8b8c" d="M51.5 47C63.926 47 74 57.074 74 69.5S63.926 92 51.5 92 29 81.926 29 69.5 39.074 47 51.5 47m0-4C36.888 43 25 54.888 25 69.5S36.888 96 51.5 96 78 84.112 78 69.5 66.112 43 51.5 43"/><path fill="#dadfe0" d="M90.682 192.318 110 173h81l19.318 19.318c2.835 2.835.827 7.682-3.182 7.682H93.864c-4.009 0-6.017-4.847-3.182-7.682M210.318 72.682 191 92h-81L90.682 72.682C87.847 69.847 89.855 65 93.864 65h113.272c4.009 0 6.017 4.847 3.182 7.682"/></svg>