<svg height="213.33333" viewBox="0 0 309.33331 213.33333" width="309.33331" xmlns="http://www.w3.org/2000/svg" xmlns:xlink="http://www.w3.org/1999/xlink"><clipPath id="a"><path d="m0 256h256v-256h-256z"/></clipPath><g clip-path="url(#a)" transform="matrix(1.3333333 0 0 -1.3333333 -16 277.33333)"><path d="m0 0h-228c-1.105 0-2 .895-2 2v156c0 1.105.895 2 2 2h228c1.105 0 2-.895 2-2v-156c0-1.105-.895-2-2-2" fill="#223140" transform="translate(242 48)"/><path d="m0 0h-216c-2.209 0-4 1.791-4 4v40c0 2.209 1.791 4 4 4h216c2.209 0 4-1.791 4-4v-40c0-2.209-1.791-4-4-4" fill="#2b3e51" transform="translate(236 52)"/><path d="m236 104h-216v100h216z" fill="#1b80bb"/></g></svg>