<svg enable-background="new 0 0 256 256" viewBox="0 0 256 256" xmlns="http://www.w3.org/2000/svg"><path clip-rule="evenodd" d="m50.008 38.303s38.221-2.303 77.442-2.303c38.821 0 78.643 2.303 78.643 2.303 6.403 0 11.606 5.206 11.606 11.613 0 0 2.301 39.443 2.301 78.686 0 38.842-2.301 77.484-2.301 77.484 0 6.407-5.203 11.613-11.606 11.613 0 0-39.822 2.303-78.643 2.303-39.221 0-77.542-2.303-77.542-2.303-6.403 0-11.606-5.206-11.606-11.613 0 0-2.301-39.343-2.301-78.485 0-38.842 2.301-77.584 2.301-77.584-.001-6.509 5.202-11.714 11.706-11.714z" fill="#7f8c8d" fill-rule="evenodd"/><path d="m124.688 52c-1.125 0-2.212.252-3.232.749l-36.963 18.021c-2.499 1.218-4.052 3.703-4.052 6.483s1.553 5.265 4.052 6.483l36.963 18.021c1.02.497 2.108.75 3.232.75 4.032 0 7.312-3.244 7.312-7.232v-5.824c7.862.692 15.369 3.408 21.832 7.917 7.062 4.927 12.549 11.767 15.867 19.782 7.017 16.93 3.177 36.247-9.782 49.214-8.538 8.543-19.856 13.248-31.869 13.248-5.959 0-11.795-1.166-17.345-3.466-16.933-7.011-27.873-23.385-27.873-41.716v-6.206c0-3.301-2.686-5.987-5.987-5.987h-12.413c-3.301 0-5.987 2.686-5.987 5.987v6.206c0 28.228 16.85 53.446 42.928 64.244 8.525 3.535 17.505 5.329 26.688 5.329 18.509 0 35.946-7.244 49.099-20.397 19.961-19.961 25.875-49.708 15.068-75.784-5.16-12.464-13.724-23.075-24.764-30.684-10.49-7.23-22.714-11.405-35.463-12.132v-5.77c.001-3.992-3.279-7.236-7.311-7.236z" fill="#93a3a3"/><path d="m188.532 109.35c-9.926-23.975-32.782-39.673-58.585-40.433-1.08-.032-1.946-.893-1.946-1.973v-7.712c0-2.4-2.59-3.961-4.792-2.888l-36.963 18.02c-2.406 1.173-2.406 4.602 0 5.775l36.963 18.02c2.202 1.073 4.792-.488 4.792-2.887v-6.916-1.047c0-1.117.923-2.041 2.038-1.995 19.115.786 35.987 12.501 43.356 30.303 7.64 18.433 3.456 39.459-10.649 53.571-14.105 14.113-35.138 18.289-53.575 10.649-18.433-7.633-30.342-25.458-30.342-45.411v-6.206c0-1.097-.889-1.987-1.987-1.987h-12.412c-1.097 0-1.987.889-1.987 1.987v6.206c0 26.602 15.881 50.371 40.459 60.548 8.16 3.384 16.701 5.024 25.157 5.024 17.021 0 33.702-6.656 46.271-19.225 18.81-18.807 24.386-46.849 14.202-71.423z" fill="#ececed"/></svg>