<svg enable-background="new 0 0 256 256" viewBox="0 0 256 256" xmlns="http://www.w3.org/2000/svg"><path d="m240 220h-224c-2.209 0-4-1.791-4-4v-176c0-2.209 1.791-4 4-4h224c2.209 0 4 1.791 4 4v176c0 2.209-1.791 4-4 4z" fill="#e94b36"/><g fill="#c13c28"><path d="m12 52h232v4h-232z"/><path d="m12 60h232v4h-232z"/><path d="m12 68h232v4h-232z"/><path d="m12 76h232v4h-232z"/><path d="m12 84h232v4h-232z"/><path d="m12 92h232v4h-232z"/><path d="m12 100h232v4h-232z"/><path d="m12 108h232v4h-232z"/><path d="m12 116h232v4h-232z"/><path d="m12 124h232v4h-232z"/></g><path d="m80 36h96v184h-96z" fill="#223140"/><path d="m48 164h40v20h-40z" fill="#bdc1c6"/><path d="m88 164v20h-40v-20zm2-2h-2-40-2v2 20 2h2 40 2v-2-20z" fill="#c13c28"/><path d="m164 164h40v20h-40z" fill="#bdc1c6"/><path d="m204 164v20h-40v-20zm2-2h-2-40-2v2 20 2h2 40 2v-2-20z" fill="#c13c28"/></svg>