<svg enable-background="new 0 0 256 256" viewBox="0 0 256 256" xmlns="http://www.w3.org/2000/svg"><path d="m182 244h-108c-1.105 0-2-.895-2-2v-228c0-1.105.895-2 2-2h108c1.105 0 2 .895 2 2v228c0 1.105-.895 2-2 2z" fill="#2b3e51"/><path d="m172 240h-88v-145.967c0-2.239 1.713-2.027 3.826-2.027h80.348c2.113 0 3.826-.212 3.826 2.027z" fill="#223140"/><path d="m127.996 32c-15.463.002-27.996 12.538-27.996 28s12.533 27.998 27.996 28c15.466.002 28.004-12.535 28.004-28s-12.538-28.002-28.004-28z" fill="#223140"/><circle cx="128" cy="60" fill="#2b3e51" r="24"/><path d="m128.004 40c-11.046-.002-20.001 8.951-20.004 19.996-.002 11.048 8.955 20.005 20.004 20.004 11.046-.002 19.998-8.958 19.996-20.004-.002-11.042-8.954-19.994-19.996-19.996z" fill="#35495f"/><g fill="#2b3e51"><path d="m136 41.675c-1.271-.556-2.607-.991-4-1.274v3.599h4z"/><path d="m108.402 56c-.262 1.291-.402 2.627-.402 3.996v.004h4v-4z"/><path d="m109.675 52h2.325v-3.963c-.916 1.223-1.705 2.546-2.325 3.963z"/><path d="m124 56h4v4h-4z"/><path d="m108.402 64c.283 1.393.718 2.729 1.274 4h2.324v-4z"/><path d="m147.598 64c.262-1.293.401-2.63.401-4h-4v4z"/><path d="m124 64h4v4h-4z"/><path d="m120 78.324c1.271.556 2.607.991 4 1.274v-3.598h-4z"/><path d="m128 60h4v4h-4z"/><path d="m116.037 44h3.963v-2.324c-1.417.62-2.74 1.408-3.963 2.324z"/><path d="m143.972 72h-3.972v3.972c1.504-1.132 2.84-2.468 3.972-3.972z"/><path d="m146.324 68h-2.324v3.963c.916-1.223 1.704-2.546 2.324-3.963z"/><path d="m139.963 76h-3.963v2.325c1.417-.62 2.74-1.409 3.963-2.325z"/><path d="m128 40c-1.37 0-2.707.139-4 .401v3.599h4z"/><path d="m120 60h4v4h-4z"/><path d="m132 72h4v4h-4z"/><path d="m112.028 48h3.972v-3.972c-1.504 1.132-2.84 2.467-3.972 3.972z"/><path d="m132 56h4v4h-4z"/><path d="m128 52h4v4h-4z"/><path d="m147.598 56c-.283-1.393-.718-2.729-1.274-4h-2.324v4z"/><path d="m140 48v-3.972c-.012-.009-.025-.018-.037-.028h-3.963v4z"/><path d="m120 44h4v4h-4z"/><path d="m116 48h4v4h-4z"/><path d="m128 44h4v4h-4z"/><path d="m112 52h4v4h-4z"/><path d="m144 52v-3.963c-.009-.012-.018-.025-.028-.037h-3.972v4z"/><path d="m112 68v3.963c.009.012.018.025.028.037h3.972v-4z"/><path d="m132 64h4v4h-4z"/><path d="m124 72h4v4h-4z"/><path d="m140 56h4v4h-4z"/><path d="m116 72v3.972c.012.009.025.018.037.028h3.963v-4z"/><path d="m112 60h4v4h-4z"/><path d="m132 76h-4v4h.004c1.369 0 2.705-.14 3.996-.402z"/><path d="m132 48h4v4h-4z"/><path d="m124 48h4v4h-4z"/><path d="m120 52h4v4h-4z"/><path d="m140 64h4v4h-4z"/><path d="m136 60h4v4h-4z"/><path d="m136 52h4v4h-4z"/><path d="m128 68h4v4h-4z"/><path d="m136 68h4v4h-4z"/><path d="m116 64h4v4h-4z"/><path d="m116 56h4v4h-4z"/><path d="m120 68h4v4h-4z"/></g><circle cx="128" cy="60" fill="#223140" r="10"/><path d="m92 96h16v20h-16z" fill="#f19c21"/><path d="m112 96h16v20h-16z" fill="#f19c21"/><path d="m132 96h16v20h-16z" fill="#f19c21"/><path d="m152 96h16v20h-16z" fill="#f19c21"/><path d="m92 120h16v20h-16z" fill="#f19c21"/><path d="m112 120h16v20h-16z" fill="#f19c21"/><path d="m132 120h16v20h-16z" fill="#f19c21"/><path d="m152 120h16v20h-16z" fill="#f19c21"/><path d="m92 144h16v20h-16z" fill="#f19c21"/><path d="m112 144h16v20h-16z" fill="#f19c21"/><path d="m132 144h16v20h-16z" fill="#f19c21"/><path d="m152 144h16v20h-16z" fill="#f19c21"/><path d="m92 168h16v20h-16z" fill="#f19c21"/><path d="m112 168h16v20h-16z" fill="#f19c21"/><path d="m132 168h16v20h-16z" fill="#f19c21"/><path d="m152 168h16v20h-16z" fill="#f19c21"/><path d="m92 192h16v20h-16z" fill="#f19c21"/><path d="m112 192h16v20h-16z" fill="#f19c21"/><path d="m132 192h16v20h-16z" fill="#f19c21"/><path d="m152 192h16v20h-16z" fill="#f19c21"/><path d="m92 216h16v20h-16z" fill="#f19c21"/><path d="m112 216h16v20h-16z" fill="#f19c21"/><path d="m132 216h16v20h-16z" fill="#f19c21"/><path d="m152 216h16v20h-16z" fill="#f19c21"/><path d="m96 100h8v12h-8z" fill="#dadfe0"/><path d="m116 100h8v12h-8z" fill="#dadfe0"/><path d="m136 100h8v12h-8z" fill="#dadfe0"/><path d="m156 100h8v12h-8z" fill="#dadfe0"/><path d="m96 124h8v12h-8z" fill="#d35627"/><path d="m116 124h8v12h-8z" fill="#d35627"/><path d="m136 124h8v12h-8z" fill="#d35627"/><path d="m156 124h8v12h-8z" fill="#dadfe0"/><path d="m96 148h8v12h-8z" fill="#d35627"/><path d="m116 148h8v12h-8z" fill="#d35627"/><path d="m136 148h8v12h-8z" fill="#d35627"/><path d="m156 148h8v12h-8z" fill="#dadfe0"/><path d="m96 172h8v12h-8z" fill="#d35627"/><path d="m116 172h8v12h-8z" fill="#d35627"/><path d="m136 172h8v12h-8z" fill="#d35627"/><path d="m156 172h8v12h-8z" fill="#dadfe0"/><path d="m96 196h8v12h-8z" fill="#d35627"/><path d="m116 196h8v12h-8z" fill="#d35627"/><path d="m136 196h8v12h-8z" fill="#d35627"/><path d="m156 196h8v12h-8z" fill="#dadfe0"/><path d="m96 220h8v12h-8z" fill="#d35627"/><path d="m116 220h8v12h-8z" fill="#d35627"/><path d="m136 220h8v12h-8z" fill="#d35627"/><path d="m156 220h8v12h-8z" fill="#dadfe0"/></svg>