<svg xmlns="http://www.w3.org/2000/svg" width="277.333" height="304"><clipPath id="a"><path d="M0 256h256V0H0z"/></clipPath><g clip-path="url(#a)" transform="matrix(1.33333 0 0 -1.33333 -37.333 325.333)"><path fill="#e77f25" d="M36 50a2 2 0 1 0-4 0v58h4zm120 194h-48c-44.183 0-80-35.817-80-80V28c0-6.627 13.431-12 30-12 11.973 0 22.302 2.806 27.114 6.864.834.704 1.863 1.136 2.955 1.136h11.908c1.136 0 2.21-.431 3.101-1.135C108.209 18.807 119.228 16 132 16s23.791 2.807 28.922 6.865c.891.704 1.965 1.135 3.101 1.135h11.908c1.092 0 2.121-.432 2.955-1.136C183.698 18.806 194.027 16 206 16c16.569 0 30 5.373 30 12v136c0 44.183-35.817 80-80 80"/><path fill="#1b80bb" d="M138 109.746c-17.788 0-32.254 14.47-32.254 32.254s14.466 32.253 32.254 32.253c17.784 0 32.25-14.469 32.25-32.253s-14.466-32.254-32.25-32.254M138 228c-47.501 0-86-38.503-86-86s38.499-86 86-86c47.486 0 86 38.503 86 86s-38.514 86-86 86"/><path fill="#edefef" d="M138 113.746c-15.579 0-28.254 12.675-28.254 28.254s12.675 28.253 28.254 28.253c15.577 0 28.25-12.674 28.25-28.253s-12.673-28.254-28.25-28.254M138 232c-49.626 0-90-40.374-90-90 0-49.627 40.374-90 90-90s90 40.373 90 90c0 49.626-40.374 90-90 90m0-122.254c17.784 0 32.25 14.47 32.25 32.254s-14.466 32.253-32.25 32.253c-17.788 0-32.254-14.469-32.254-32.253s14.466-32.254 32.254-32.254M138 228c47.486 0 86-38.503 86-86s-38.514-86-86-86c-47.501 0-86 38.503-86 86s38.499 86 86 86"/><path fill="#edefef" d="M138.002 132.106c-5.512 0-10.005 4.482-10.005 9.998 0 5.518 4.493 10.004 10.005 10.004 5.516 0 9.998-4.486 9.998-10.004 0-5.516-4.482-9.998-9.998-9.998m0 43.998c-18.746 0-34.002-15.264-34.002-34s15.256-34 34.003-34c18.728 0 33.997 15.263 33.997 34 0 18.736-15.27 34-33.997 34"/><path fill="#f19c21" d="M224 96a4 4 0 0 1-4 4H52a4 4 0 0 1-4-4V50c0-7.732 39.399-14 88-14s88 6.268 88 14z"/><path fill="#d35627" d="M28 172v-2h10v-60H28v-2h12v64zm24 40a4 4 0 1 1 0-8 4 4 0 0 1 0 8m0-2c1.103 0 2-.897 2-2s-.897-2-2-2-2 .897-2 2 .897 2 2 2m30 22a6 6 0 1 1 0-12 6 6 0 0 1 0 12m0-2c2.206 0 4-1.794 4-4s-1.794-4-4-4-4 1.794-4 4 1.794 4 4 4m102 2a4 4 0 1 1 0-8 4 4 0 0 1 0 8m0-2c1.103 0 2-.897 2-2s-.897-2-2-2-2 .897-2 2 .897 2 2 2"/></g></svg>