<svg xmlns="http://www.w3.org/2000/svg" viewBox="0 0 256 256"><path fill="#35495f" d="M216 80v-4h4v-8h-4v-4h4v-8h-4v-4h4v-8h-4v-4h4v-8h-4v-4h4V16l-4-4H40l-4 4v12h4v4h-4v8h4v4h-4v8h4v4h-4v8h4v4h-4v8h4v4h-4v160l4 4h176l4-4V80z"/><g fill="#2b3e51"><path d="M40 28h8v4h-8zm0 12h8v4h-8zm0 12h8v4h-8zm0 12h8v4h-8zm0 12h8v4h-8zm168-48h8v4h-8zm0 12h8v4h-8zm0 12h8v4h-8zm0 12h8v4h-8zm0 12h8v4h-8zM52 116h152v12H52z"/><path d="M216 12H40l-4 4h16v68h152V16h16z"/></g><path fill="#1b80bb" d="M192 16H64l-8 36v28h144V52z"/></svg>