<svg enable-background="new 0 0 256 256" viewBox="0 0 256 256" xmlns="http://www.w3.org/2000/svg"><path d="m128 104h-13.016c-2.433 0-4.762-1.084-6.25-3.008-10.375-13.414-26.921-21.811-45.385-20.929-27.763 1.328-50.237 24.026-51.308 51.799-1.188 30.798 23.426 56.138 53.959 56.138 17.384 0 32.846-8.217 42.722-20.977 1.5-1.937 3.85-3.023 6.3-3.023h12.978z" fill="#e77f25"/><circle cx="64" cy="132" fill="#854b9c" r="28"/><path d="m244 94c0-12.131-9.869-22-22-22-2.682 0-5.307.485-7.775 1.423-3.396-7.924-11.334-13.423-20.225-13.423-6.167 0-11.906 2.553-16 6.916-4.094-4.363-9.833-6.916-16-6.916-8.891 0-16.829 5.499-20.225 13.423-2.468-.938-5.093-1.423-7.775-1.423-12.131 0-22 9.869-22 22 0 5.416 1.971 10.378 5.229 14.216-3.365 7.921-5.229 16.635-5.229 25.784 0 36.451 29.549 66 66 66s66-29.549 66-66c0-9.149-1.864-17.863-5.229-25.784 3.258-3.838 5.229-8.8 5.229-14.216z" fill="#854b9c"/><path d="m240 94c0-9.925-8.075-18-18-18-3.803 0-7.329 1.193-10.238 3.214-1.346-8.604-8.787-15.214-17.762-15.214-6.967 0-13.01 3.987-16 9.791-2.99-5.804-9.033-9.791-16-9.791-8.975 0-16.416 6.61-17.762 15.214-2.909-2.021-6.435-3.214-10.238-3.214-9.925 0-18 8.075-18 18s8.075 18 18 18c.447 0 .886-.029 1.325-.061-4.645 7.59-7.325 16.512-7.325 26.061 0 27.614 22.386 50 50 50s50-22.386 50-50c0-9.549-2.68-18.471-7.325-26.061.438.032.878.061 1.325.061 9.925 0 18-8.075 18-18z" fill="#7f8b8c"/><path d="m143.141 164c-3.419 0-5.272 4.02-3.041 6.61 9.168 10.648 22.746 17.39 37.9 17.39s28.732-6.742 37.901-17.39c2.231-2.591.377-6.61-3.041-6.61z" fill="#e77f25"/><circle cx="134" cy="94" fill="#c13c28" r="14"/><circle cx="162" cy="82" fill="#eec41b" r="14"/><circle cx="222" cy="94" fill="#25b796" r="14"/><circle cx="194" cy="82" fill="#1b80bb" r="14"/><g fill="#4b5da7"><path d="m168 108h24c2.209 0 4-1.791 4-4v-2.153c0-1.727-1.1-3.282-2.746-3.803-4.182-1.324-8.633-2.044-13.254-2.044s-9.072.72-13.254 2.044c-1.646.521-2.746 2.076-2.746 3.803v2.153c0 2.209 1.791 4 4 4z"/><circle cx="156" cy="104" r="4"/><circle cx="204" cy="104" r="4"/></g><path d="m206.082 115.26-25.587-3.198c-.329-.041-.661-.062-.992-.062h-3.004c-.332 0-.663.021-.992.062l-25.587 3.198c-3.511.439-6.317 3.133-6.899 6.623l-2.778 16.67c-.159.956-.144 1.934.047 2.884l2.582 12.908c.675 3.377 3.436 5.942 6.852 6.369l25.784 3.223c.329.041.661.062.992.062h3.004c.332 0 .663-.021.992-.062l25.784-3.223c3.417-.427 6.177-2.993 6.852-6.369l2.582-12.908c.19-.951.206-1.928.047-2.884l-2.778-16.67c-.584-3.49-3.39-6.184-6.901-6.623z" fill="#93a3a3"/><path d="m64 96c19.85 0 36 16.15 36 36s-16.15 36-36 36-36-16.15-36-36 16.15-36 36-36m0-4c-22.091 0-40 17.909-40 40s17.909 40 40 40 40-17.909 40-40-17.909-40-40-40z" fill="#d35627"/><path d="m208 160h-60c-2.209 0-4-1.791-4-4v-36c0-2.209 1.791-4 4-4h60c2.209 0 4 1.791 4 4v36c0 2.209-1.791 4-4 4z" fill="#dadfe0"/></svg>