<svg height="224" viewBox="0 0 309.33331 224" width="309.33331" xmlns="http://www.w3.org/2000/svg" xmlns:xlink="http://www.w3.org/1999/xlink"><clipPath id="a"><path d="m0 256h256v-256h-256z"/></clipPath><g transform="matrix(1.3333333 0 0 -1.3333333 -16 282.66666)"><path d="m164 188h-72v24h72z" fill="#2b3e51"/><path d="m0 0h-168l-32-20v-136h232v136z" fill="#35495f" transform="translate(212 200)"/><path d="m120 60h-88v60h88z" fill="#2b3e51"/><path d="m224 60h-88v60h88z" fill="#2b3e51"/><path d="m180 144h-104v48h104z" fill="#1b80bb"/><g clip-path="url(#a)"><g fill="#6c7a88"><path d="m0 0c0-2.209-1.791-4-4-4s-4 1.791-4 4 1.791 4 4 4 4-1.791 4-4" transform="translate(60 192)"/><path d="m0 0c0-2.209-1.791-4-4-4s-4 1.791-4 4 1.791 4 4 4 4-1.791 4-4" transform="translate(48 136)"/><path d="m0 0c0-2.209 1.791-4 4-4s4 1.791 4 4-1.791 4-4 4-4-1.791-4-4" transform="translate(196 192)"/><path d="m0 0c0-2.209 1.791-4 4-4s4 1.791 4 4-1.791 4-4 4-4-1.791-4-4" transform="translate(208 136)"/></g><path d="m0 0v-52h-32v-4h36v56z" fill="#2b3e51" transform="translate(44 200)"/><path d="m0 0v-52h32v-4h-36v56z" fill="#2b3e51" transform="translate(212 200)"/></g></g></svg>