<svg height="309.33331" viewBox="0 0 192 309.33331" width="192" xmlns="http://www.w3.org/2000/svg" xmlns:xlink="http://www.w3.org/1999/xlink"><clipPath id="a"><path d="m0 256h256v-256h-256z"/></clipPath><g clip-path="url(#a)" transform="matrix(1.3333333 0 0 -1.3333333 -74.666665 325.33333)"><path d="m0 0h-128c-4.418 0-8 3.582-8 8v100c0 4.418 3.582 8 8 8h128c4.418 0 8-3.582 8-8v-100c0-4.418-3.582-8-8-8" fill="#35495f" transform="translate(192 128)"/><path d="m0 0h-112c-2.209 0-4 1.791-4 4v80c0 2.209 1.791 4 4 4h112c2.209 0 4-1.791 4-4v-80c0-2.209-1.791-4-4-4" fill="#2b3e51" transform="translate(184 144)"/><path d="m164 152h-76v72h76z" fill="#6c7a88"/><path d="m180 112h-104v16h104z" fill="#223140"/><g fill="#2b3e51"><path d="m180 122h-104v2h104z"/><path d="m180 126h-104v2h104z"/><path d="m180 118h-104v2h104z"/><path d="m180 114h-104v2h104z"/><path d="m0 0h-112c-4.418 0-8-3.582-8-8v-48c0-24.301 19.699-44 44-44h40c24.301 0 44 19.699 44 44v48c0 4.418-3.582 8-8 8" transform="translate(184 112)"/></g><path d="m0 0v-56c0-19.85-16.15-36-36-36h-40c-19.85 0-36 16.15-36 36v56z" fill="#35495f" transform="translate(184 112)"/><path d="m0 0-9.657 9.657c-.75.75-1.767 1.171-2.828 1.171h-4.687c-1.06 0-2.078-.421-2.828-1.171l-9.657-9.657c-.75-.75-1.171-1.768-1.171-2.828v-4.687c0-1.061.421-2.078 1.171-2.828l9.657-9.657c.75-.75 1.768-1.172 2.828-1.172h4.687c1.061 0 2.078.422 2.828 1.172l9.657 9.657c.75.75 1.172 1.767 1.172 2.828v4.687c0 1.06-.422 2.078-1.172 2.828" fill="#223140" transform="translate(110.8284 81.1716)"/><path d="m0 0h-8v8c0 2.209-1.791 4-4 4-2.209 0-4-1.791-4-4v-8h-8c-2.209 0-4-1.791-4-4 0-2.209 1.791-4 4-4h8v-8c0-2.209 1.791-4 4-4 2.209 0 4 1.791 4 4v8h8c2.209 0 4 1.791 4 4 0 2.209-1.791 4-4 4" fill="#2b3e51" transform="translate(108 80)"/><path d="m0 0c0-4.418-3.582-8-8-8s-8 3.582-8 8 3.582 8 8 8 8-3.582 8-8" fill="#25b796" transform="translate(148 68)"/><path d="m0 0c0-4.418-3.582-8-8-8s-8 3.582-8 8 3.582 8 8 8 8-3.582 8-8" fill="#25b796" transform="translate(172 80)"/><path d="m172 50h-16v2h16z" fill="#223140"/><path d="m168 46h-16v2h16z" fill="#223140"/><path d="m164 42h-16v2h16z" fill="#223140"/><path d="m0 0h-12c-1.105 0-2 .895-2 2s.895 2 2 2h12c1.105 0 2-.895 2-2s-.895-2-2-2" fill="#223140" transform="translate(162 100)"/><path d="m0 0h-12c-1.105 0-2 .895-2 2s.895 2 2 2h12c1.105 0 2-.895 2-2s-.895-2-2-2" fill="#223140" transform="translate(142 100)"/></g></svg>