<svg height="147.24817" viewBox="0 0 213.28372 147.24817" width="213.28372" xmlns="http://www.w3.org/2000/svg" xmlns:xlink="http://www.w3.org/1999/xlink"><clipPath id="a"><path d="m0 256h256v-256h-256z"/></clipPath><g clip-path="url(#a)" fill="#bdc1c6" transform="matrix(1.3333333 0 0 -1.3333333 -64.025106 245.33399)"><path d="m0 0c-4.147 0-7.937-1.482-10.837-3.929-.461-.389-.502-1.082-.07-1.501l8.129-7.878c1.549-1.501 4.009-1.504 5.562-.006l8.144 7.861c.434.418.393 1.112-.066 1.501-2.903 2.46-6.703 3.952-10.862 3.952" transform="translate(127.9162 88)"/><path d="m0 0c-12.872 0-24.613-4.783-33.43-12.612-.875-.777-.921-2.098-.083-2.91l10.175-9.861c5.979 5.794 14.234 9.383 23.338 9.383 9.128 0 17.402-3.609 23.385-9.431l10.196 9.839c.84.812.796 2.132-.077 2.911-8.825 7.869-20.595 12.681-33.504 12.681" transform="translate(127.9162 120)"/><path d="m0 0c17.937 17.383 42.702 28.15 70.013 28.15 27.385 0 52.208-10.827 70.157-28.293l8.662 8.36c1.693 1.633 1.659 4.271-.087 5.848-20.652 18.655-48.34 30.085-78.732 30.085-30.306 0-57.925-11.364-78.558-29.925-1.749-1.574-1.788-4.211-.099-5.848z" transform="translate(57.9031 139.8505)"/><path d="m0 0c-21.195 0-40.55-7.781-55.183-20.55-1.75-1.527-1.785-4.241-.117-5.858l8.625-8.358c11.958 11.588 28.468 18.766 46.675 18.766 18.257 0 34.804-7.219 46.77-18.863l8.643 8.341c1.701 1.642 1.672 4.3-.106 5.858-14.648 12.836-34.051 20.664-55.307 20.664" transform="translate(127.9162 152)"/></g></svg>