<?xml version="1.0" encoding="utf-8"?>
<!-- Generator: Adobe Illustrator 24.1.1, SVG Export Plug-In . SVG Version: 6.00 Build 0)  -->
<svg version="1.1" id="Layer_1" xmlns="http://www.w3.org/2000/svg" xmlns:xlink="http://www.w3.org/1999/xlink" x="0px" y="0px"
	 viewBox="0 0 256 256" style="enable-background:new 0 0 256 256;" xml:space="preserve">
<style type="text/css">
	.st0{fill:#FFFFFF;}
</style>
<g>
	<path class="st0" d="M113.18,209.22c2.34,2.35,5.17,3.76,8.4,4.24v-12.63h-12.64C109.4,204.05,110.83,206.88,113.18,209.22z"/>
	<path class="st0" d="M125.71,213.46c3.22-0.47,6.05-1.89,8.4-4.24c2.34-2.35,3.76-5.17,4.24-8.4l-12.64,0.01
		C125.71,200.83,125.71,213.46,125.71,213.46z"/>
	<path class="st0" d="M89.89,190.49c0-1.78-0.58-3.23-1.78-4.43c-1.18-1.17-2.81-1.77-4.85-1.77h-4.39v12.69h4.39
		c1.95,0,3.56-0.63,4.78-1.86C89.27,193.9,89.89,192.34,89.89,190.49z"/>
	<path class="st0" d="M121.57,184.05c-3.22,0.47-6.05,1.89-8.4,4.21c-2.34,2.32-3.77,5.16-4.24,8.43h12.64V184.05z"/>
	<path class="st0" d="M125.72,184.05v12.63h12.63c-0.47-3.27-1.89-6.1-4.21-8.43C131.83,185.92,128.99,184.52,125.72,184.05z"/>
	<path class="st0" d="M59.73,67.41v0.07c0,0,0.04,44.44,0.09,44.44s8.47-7,8.58-7.14c0.15-0.19,0.11-37.31,0.11-37.31L59.73,67.41z"
		/>
	<polygon class="st0" points="108.48,67.48 99.33,67.48 99.33,104.79 108.44,111.92 	"/>
	<path class="st0" d="M128,19.43C37.87,19.43,19.43,37.74,19.43,128S37.58,236.57,128,236.57c90.43,0,108.57-18.27,108.57-108.57
		C236.57,37.69,218.13,19.43,128,19.43z M138.8,152.38v8.15l-14.68,12.22l-13.8-11.59v-4.58l7.43-5.92v3.9l6.09,4.98l5.72-4.15
		l-7.23-5.19v-6.09l7.23-5.19l-5.72-4.15l-6.09,4.98v3.9l-7.43-5.92v-4.58l13.8-11.59l14.68,12.22v8.15l-6.3,5.23L138.8,152.38z
		 M85.45,57.89l5.49-4.36h26.64l4.47,4.36v57.07l-17.99,14.82l-18.61-14.82V57.89z M46.31,146.21V55.87l-2.16-2.33h31.24l6.23,4.36
		l0.16,59.05l2.24,1.93c-0.01-0.01-38.48,30.24-38.8,30.46C44.81,149.61,46.31,146.21,46.31,146.21z M98.02,217.4L98.02,217.4
		l-16.21-16.15h-2.92v11.91c0,1.32,0.22,1.86,0.41,2.08c0.26,0.31,0.8,0.5,1.6,0.57h0.64l0.73,1.6H70.95l0.61-1.6h0.71
		c0.76-0.07,1.31-0.27,1.56-0.57c0.19-0.21,0.41-0.76,0.41-2.08v-28.83c0-1.32-0.22-1.86-0.41-2.08c-0.26-0.3-0.8-0.5-1.6-0.57
		h-0.67l-0.61-1.6h12.56c3.07,0,5.7,0.96,7.82,2.87c2.13,1.92,3.21,4.43,3.21,7.43c0,2.24-0.68,4.34-2.03,6.25
		c-1.23,1.74-2.86,3.02-4.86,3.83l12.42,12.41c1.26,1.27,2.14,2.07,2.61,2.39c0.44,0.29,1.01,0.49,1.69,0.57l0.08,0.02
		c0.05,0.02,0.12,0.02,0.21-0.01l0.34-0.09l0.64,1.66h-7.62V217.4z M137.44,212.53c-3.76,3.77-8.41,5.7-13.79,5.7
		c-5.34,0-9.97-1.93-13.75-5.71c-3.79-3.79-5.71-8.42-5.71-13.75c0-5.34,1.93-9.97,5.71-13.75c3.79-3.79,8.42-5.71,13.75-5.71
		c5.39,0,10.03,1.91,13.79,5.67s5.67,8.41,5.67,13.79C143.11,204.11,141.2,208.74,137.44,212.53z M126.22,114.95V57.88l4.33-4.36
		h26.58l5.62,4.36l-0.21,57.08l-18.47,14.83C144.04,129.79,126.22,114.95,126.22,114.95z M173.14,188.23l-1.66-0.72
		c0,0-0.26-2.01-0.55-2.27c-0.17-0.15-0.66-0.4-2.09-0.4h-11.29v10.4h11.03c1.39,0,1.88-0.24,2.05-0.37
		c0.28-0.24,0.54-2.23,0.54-2.23l1.66-0.72c0,0-0.13,3.9-0.13,4.14v3.05c0,0.2,0.13,4.1,0.13,4.1l-1.66-0.59
		c0,0-0.34-2.14-0.54-2.31c-0.17-0.13-0.65-0.37-2.05-0.37h-11.03v12.69h11.29c1.44,0,1.93-0.26,2.09-0.4
		c0.29-0.26,0.56-2.27,0.56-2.27l1.66-0.72c0,0-0.19,3.9-0.19,4.14v3.1c0,0.13,0.19,4.04,0.19,4.04l-1.66-0.59
		c0,0-0.26-2.02-0.55-2.28c-0.17-0.15-0.66-0.4-2.09-0.4h-11.89l-4.05,4.05v-21.33c-0.64,0.08-1.71,0.26-1.84,0.39
		c-0.17,0.19-0.52,2.25-0.52,2.25l-1.6,0.61c0,0,0.12-3.91,0.12-4.12v-3.05c0-0.25-0.12-4.15-0.12-4.15l1.6,0.73
		c0,0,0.36,1.97,0.53,2.16c0.12,0.14,1.19,0.31,1.84,0.39v-14.99h15.93c1.44,0,1.93-0.26,2.09-0.4c0.29-0.26,0.56-2.28,0.56-2.28
		l1.66-0.59c0,0-0.19,3.81-0.19,4.04v3.1C172.96,184.23,173.14,188.23,173.14,188.23z M208.32,101.56
		c-0.02,40.01,0.22,46.07,0.22,46.07s2.05,5.84,2.01,5.87c-0.02,0.03-17.35-13.59-17.35-13.59l1.82-1.79v-20.67
		c0-11.37-0.04-20.64-0.09-20.58c-0.05,0.05-8.08,33.44-8.08,33.44s-8.46-37.95-8.57-38.21c-0.05-0.11-0.17,36.32-0.17,36.32
		l-13.53-11.45l2.09-2.01V57.89c0,0-2.15-4.31-2.15-4.36c0.01-0.04,18.3-0.04,18.3,0s4.68,17.23,4.74,17.23
		c0.04,0,5.09-17.23,5.09-17.23h19.5l-3.84,4.36L208.32,101.56z"/>
	<path class="st0" d="M139.7,67.41c0,0,0,0.07-0.01,0.07l0.19,44.44l8.96-7.14l-0.07-37.31L139.7,67.41z"/>
</g>
</svg>
