<?xml version="1.0" encoding="UTF-8" standalone="no"?>
<svg
   xmlns:dc="http://purl.org/dc/elements/1.1/"
   xmlns:cc="http://creativecommons.org/ns#"
   xmlns:rdf="http://www.w3.org/1999/02/22-rdf-syntax-ns#"
   xmlns:svg="http://www.w3.org/2000/svg"
   xmlns="http://www.w3.org/2000/svg"
   viewBox="0 0 330.66653 192"
   height="192"
   width="330.66653"
   xml:space="preserve"
   id="svg2"
   version="1.1"><metadata
     id="metadata8"><rdf:RDF><cc:Work
         rdf:about=""><dc:format>image/svg+xml</dc:format><dc:type
           rdf:resource="http://purl.org/dc/dcmitype/StillImage" /></cc:Work></rdf:RDF></metadata><defs
     id="defs6"><clipPath
       id="clipPath18"
       clipPathUnits="userSpaceOnUse"><path
         id="path16"
         d="M 0,256 H 256 V 0 H 0 Z" /></clipPath><clipPath
       id="clipPath26"
       clipPathUnits="userSpaceOnUse"><path
         id="path24"
         d="M 4,200 H 252 V 56 H 4 Z" /></clipPath><clipPath
       id="clipPath44"
       clipPathUnits="userSpaceOnUse"><path
         id="path42"
         d="M 0,256 H 256 V 0 H 0 Z" /></clipPath></defs><g
     transform="matrix(1.3333333,0,0,-1.3333333,-5.3334665,266.66666)"
     id="g10"><g
       id="g12"><g
         clip-path="url(#clipPath18)"
         id="g14"><g
           id="g20"><g
             id="g22" /><g
             id="g34"><g
               style="opacity:0.5"
               id="g32"
               clip-path="url(#clipPath26)"><g
                 id="g30"
                 transform="translate(239.8571,200)"><path
                   id="path28"
                   style="fill:#ffffff;fill-opacity:1;fill-rule:nonzero;stroke:none"
                   d="m 0,0 h -84.79 -2.21 -4.143 -129.947 -2.624 c -6.696,0 -12.143,-5.503 -12.143,-12.267 v -119.466 c 0,-6.764 5.447,-12.267 12.143,-12.267 h 2.624 5.661 4.143 H -84.79 0 c 6.696,0 12.143,5.503 12.143,12.267 V -12.267 C 12.143,-5.503 6.696,0 0,0" /></g></g></g></g></g></g><path
       id="path36"
       style="fill:#262626;fill-opacity:1;fill-rule:nonzero;stroke:none"
       d="m 155.067,64 h -136.3 v 128 h 136.3 z" /><g
       id="g38"><g
         clip-path="url(#clipPath44)"
         id="g40"><g
           transform="translate(16.1429,192)"
           id="g46"><path
             id="path48"
             style="fill:#333333;fill-opacity:1;fill-rule:nonzero;stroke:none"
             d="m 0,0 c -2.291,0 -4.143,-1.907 -4.143,-4.267 v -119.466 c 0,-2.36 1.852,-4.267 4.143,-4.267 H 8.286 L 132.571,0 Z" /></g><g
           transform="translate(239.8571,192)"
           id="g50"><path
             id="path52"
             style="fill:#333333;fill-opacity:1;fill-rule:nonzero;stroke:none"
             d="M 0,0 H -87 L -211.286,-128 H 0 c 2.291,0 4.143,1.907 4.143,4.267 V -4.267 C 4.143,-1.907 2.291,0 0,0" /></g><g
           transform="translate(116,83.7281)"
           id="g54"><path
             id="path56"
             style="fill:#262626;fill-opacity:1;fill-rule:nonzero;stroke:none"
             d="M 0,0 21.421,-19.728 H 68 l -36.538,44 z" /></g><g
           transform="translate(172,83.7281)"
           id="g58"><path
             id="path60"
             style="fill:#262626;fill-opacity:1;fill-rule:nonzero;stroke:none"
             d="M 0,0 21.421,-19.728 H 68 l -36.538,44 z" /></g><g
           transform="translate(132,76)"
           id="g62"><path
             id="path64"
             style="fill:#ff0000;fill-opacity:1;fill-rule:nonzero;stroke:none"
             d="m 0,0 c -11.04,0 -20,8.96 -20,20 0,11.04 8.96,20 20,20 C 11.04,40 20,31.04 20,20 20,8.96 11.04,0 0,0" /></g><g
           transform="translate(188,76)"
           id="g66"><path
             id="path68"
             style="fill:#ff0000;fill-opacity:1;fill-rule:nonzero;stroke:none"
             d="m 0,0 c -11.04,0 -20,8.96 -20,20 0,11.04 8.96,20 20,20 C 11.04,40 20,31.04 20,20 20,8.96 11.04,0 0,0" /></g><g
           transform="translate(76,152)"
           id="g70"><path
             id="path72"
             style="fill:#999999;fill-opacity:1;fill-rule:nonzero;stroke:none"
             d="m 0,0 c 0,-15.464 -12.536,-28 -28,-28 -15.472,0 -28,12.536 -28,28 0,15.464 12.528,28 28,28 C -12.536,28 0,15.464 0,0" /></g><g
           transform="translate(66.136,158.1537)"
           id="g74"><path
             id="path76"
             style="fill:#8c8c8c;fill-opacity:1;fill-rule:nonzero;stroke:none"
             d="m 0,0 h -11.953 v 11.953 c 0,1.045 -0.847,1.893 -1.893,1.893 h -8.521 c -1.046,0 -1.893,-0.848 -1.893,-1.893 V 0 h -11.953 c -1.046,0 -1.894,-0.848 -1.894,-1.893 v -8.521 c 0,-1.046 0.848,-1.894 1.894,-1.894 H -24.26 V -24.26 c 0,-1.046 0.847,-1.894 1.893,-1.894 h 8.521 c 1.046,0 1.893,0.848 1.893,1.894 v 11.952 H 0 c 1.046,0 1.893,0.848 1.893,1.894 v 8.521 C 1.893,-0.848 1.046,0 0,0" /></g><g
           transform="translate(62,152)"
           id="g78"><path
             id="path80"
             style="fill:#a6a6a6;fill-opacity:1;fill-rule:nonzero;stroke:none"
             d="m 0,0 c 0,-7.732 -6.268,-14 -14,-14 -7.736,0 -14,6.268 -14,14 0,7.732 6.264,14 14,14 C -6.268,14 0,7.732 0,0" /></g></g></g></g></svg>