<?xml version="1.0" encoding="UTF-8" standalone="no"?>
<svg
   xmlns:dc="http://purl.org/dc/elements/1.1/"
   xmlns:cc="http://creativecommons.org/ns#"
   xmlns:rdf="http://www.w3.org/1999/02/22-rdf-syntax-ns#"
   xmlns:svg="http://www.w3.org/2000/svg"
   xmlns="http://www.w3.org/2000/svg"
   viewBox="0 0 330.66653 229.33279"
   height="229.33279"
   width="330.66653"
   xml:space="preserve"
   id="svg2"
   version="1.1"><metadata
     id="metadata8"><rdf:RDF><cc:Work
         rdf:about=""><dc:format>image/svg+xml</dc:format><dc:type
           rdf:resource="http://purl.org/dc/dcmitype/StillImage" /></cc:Work></rdf:RDF></metadata><defs
     id="defs6"><clipPath
       id="clipPath18"
       clipPathUnits="userSpaceOnUse"><path
         id="path16"
         d="M 0,256 H 256 V 0 H 0 Z" /></clipPath><clipPath
       id="clipPath26"
       clipPathUnits="userSpaceOnUse"><path
         id="path24"
         d="M 4,214 H 252 V 42 H 4 Z" /></clipPath></defs><g
     transform="matrix(1.3333333,0,0,-1.3333333,-5.3334665,285.33333)"
     id="g10"><g
       id="g12"><g
         clip-path="url(#clipPath18)"
         id="g14"><g
           id="g20"><g
             id="g22" /><g
             id="g34"><g
               style="opacity:0.5"
               id="g32"
               clip-path="url(#clipPath26)"><g
                 id="g30"
                 transform="translate(251.9121,92.2354)"><path
                   id="path28"
                   style="fill:#ffffff;fill-opacity:1;fill-rule:nonzero;stroke:none"
                   d="m 0,0 c -3.084,20.631 -9.988,39.434 -20.519,55.887 -8.75,13.671 -20.055,25.813 -33.603,36.09 -24.124,18.299 -49.335,26.019 -59.055,28.489 -3.391,0.862 -6.858,1.299 -10.303,1.299 h -0.864 c -3.445,0 -6.911,-0.437 -10.303,-1.299 -9.72,-2.47 -34.932,-10.19 -59.056,-28.489 C -207.25,81.7 -218.556,69.558 -227.306,55.887 -237.836,39.434 -244.74,20.631 -247.824,0 l -0.088,-0.588 v -0.595 c 0,-0.443 0.018,-10.988 1.643,-21.723 1.013,-6.689 2.465,-12.147 4.316,-16.223 1.884,-4.147 6.268,-11.106 14.47,-11.106 11.155,0 20.252,9.389 29.049,18.469 4.284,4.422 8.714,8.995 12.646,11.592 2.576,1.702 4.761,3.489 6.873,5.218 5.603,4.584 10.921,8.935 24.186,11.571 1.159,-0.546 2.453,-0.85 3.817,-0.85 h 6 c 2.584,0 4.917,1.094 6.56,2.844 1.509,0.095 3.066,0.173 4.666,0.236 1.651,-1.887 4.076,-3.08 6.774,-3.08 h 6 c 2.698,0 5.123,1.193 6.773,3.08 1.601,-0.063 3.158,-0.141 4.666,-0.236 1.644,-1.75 3.977,-2.844 6.561,-2.844 h 6 c 1.364,0 2.658,0.304 3.817,0.85 13.264,-2.636 18.582,-6.987 24.185,-11.571 2.113,-1.729 4.298,-3.516 6.874,-5.218 3.932,-2.597 8.362,-7.17 12.646,-11.592 8.797,-9.08 17.893,-18.469 29.049,-18.469 8.201,0 12.586,6.959 14.47,11.106 1.85,4.076 3.303,9.534 4.315,16.223 1.625,10.735 1.644,21.28 1.644,21.723 v 0.595 z" /></g></g></g></g><g
           transform="translate(131,98)"
           id="g36"><path
             id="path38"
             style="fill:#bfbfbf;fill-opacity:1;fill-rule:nonzero;stroke:none"
             d="m 0,0 h -6 c -0.552,0 -1,0.447 -1,1 v 6 c 0,0.553 0.448,1 1,1 H 0 C 0.553,8 1,7.553 1,7 V 1 C 1,0.447 0.553,0 0,0" /></g><g
           transform="translate(155,98)"
           id="g40"><path
             id="path42"
             style="fill:#bfbfbf;fill-opacity:1;fill-rule:nonzero;stroke:none"
             d="m 0,0 h -6 c -0.553,0 -1,0.447 -1,1 v 6 c 0,0.553 0.447,1 1,1 H 0 C 0.553,8 1,7.553 1,7 V 1 C 1,0.447 0.553,0 0,0" /></g><g
           transform="translate(107,98)"
           id="g44"><path
             id="path46"
             style="fill:#bfbfbf;fill-opacity:1;fill-rule:nonzero;stroke:none"
             d="m 0,0 h -6 c -0.552,0 -1,0.447 -1,1 v 6 c 0,0.553 0.448,1 1,1 H 0 C 0.552,8 1,7.553 1,7 V 1 C 1,0.447 0.552,0 0,0" /></g><g
           transform="translate(136.7656,206.9473)"
           id="g48"><path
             id="path50"
             style="fill:#e6e6e6;fill-opacity:1;fill-rule:nonzero;stroke:none"
             d="m 0,0 c -2.732,0.694 -5.514,1.053 -8.334,1.053 h -0.863 c -2.821,0 -5.602,-0.359 -8.334,-1.053 -19.497,-4.954 -94.598,-29.373 -107.235,-113.895 0,0 0,-41.052 12.429,-41.052 12.428,0 24.857,20.526 37.286,28.737 12.428,8.21 16.571,20.525 66.285,20.525 49.714,0 53.858,-12.315 66.287,-20.525 12.427,-8.211 24.856,-28.737 37.285,-28.737 12.428,0 12.428,41.052 12.428,41.052 C 94.598,-29.373 19.497,-4.954 0,0" /></g><g
           transform="translate(66,116)"
           id="g52"><path
             id="path54"
             style="fill:#d9d9d9;fill-opacity:1;fill-rule:nonzero;stroke:none"
             d="M 0,0 C -14.359,0 -26,11.641 -26,26 -26,40.359 -14.359,52 0,52 14.359,52 26,40.359 26,26 26,11.641 14.359,0 0,0" /></g><g
           transform="translate(128,176)"
           id="g56"><path
             id="path58"
             style="fill:#a6a6a6;fill-opacity:1;fill-rule:nonzero;stroke:none"
             d="m 0,0 c -14.336,0 -26,-11.664 -26,-26 0,-14.336 11.664,-26 26,-26 14.337,0 26,11.664 26,26 C 26,-11.664 14.337,0 0,0 m 0,-2 c 13.233,0 24,-10.767 24,-24 0,-13.233 -10.767,-24 -24,-24 -13.233,0 -24,10.767 -24,24 0,13.233 10.767,24 24,24" /></g><g
           transform="translate(164,152)"
           id="g60"><path
             id="path62"
             style="fill:#ffff00;fill-opacity:1;fill-rule:nonzero;stroke:none"
             d="M 0,0 C 0,4.418 3.582,8 8,8 12.418,8 16,4.418 16,0 16,-4.418 12.418,-8 8,-8 3.582,-8 0,-4.418 0,0" /></g><g
           transform="translate(180,168)"
           id="g64"><path
             id="path66"
             style="fill:#0000b8;fill-opacity:1;fill-rule:nonzero;stroke:none"
             d="M 0,0 C 0,4.418 3.582,8 8,8 12.418,8 16,4.418 16,0 16,-4.418 12.418,-8 8,-8 3.582,-8 0,-4.418 0,0" /></g><g
           transform="translate(168,127.9644)"
           id="g68"><path
             id="path70"
             style="fill:#ff0000;fill-opacity:1;fill-rule:nonzero;stroke:none"
             d="m 0,0 c 0,4.438 3.598,8.036 8.036,8.036 4.438,0 8.035,-3.598 8.035,-8.036 0,-4.438 -3.597,-8.036 -8.035,-8.036 C 3.598,-8.036 0,-4.438 0,0" /></g><g
           transform="translate(188,144)"
           id="g72"><path
             id="path74"
             style="fill:#003d00;fill-opacity:1;fill-rule:nonzero;stroke:none"
             d="M 0,0 C 0,4.418 3.582,8 8,8 12.418,8 16,4.418 16,0 16,-4.418 12.418,-8 8,-8 3.582,-8 0,-4.418 0,0" /></g><g
           transform="translate(128,134)"
           id="g76"><path
             id="path78"
             style="fill:#bfbfbf;fill-opacity:1;fill-rule:nonzero;stroke:none"
             d="m 0,0 c -8.836,0 -16,7.164 -16,16 0,8.836 7.164,16 16,16 C 8.837,32 16,24.836 16,16 16,7.164 8.837,0 0,0" /></g><g
           transform="translate(80,142)"
           id="g80"><path
             id="path82"
             style="fill:#cccccc;fill-opacity:1;fill-rule:nonzero;stroke:none"
             d="m 0,0 c 0,-7.732 -6.268,-14 -14,-14 -7.732,0 -14,6.268 -14,14 0,7.732 6.268,14 14,14 C -6.268,14 0,7.732 0,0" /></g><g
           transform="translate(67,160)"
           id="g84"><path
             id="path86"
             style="fill:#a6a6a6;fill-opacity:1;fill-rule:nonzero;stroke:none"
             d="M 0,0 H -2 C -2.552,0 -3,0.448 -3,1 L -1,4 1,1 C 1,0.448 0.552,0 0,0" /></g><g
           transform="translate(65,124)"
           id="g88"><path
             id="path90"
             style="fill:#a6a6a6;fill-opacity:1;fill-rule:nonzero;stroke:none"
             d="m 0,0 h 2 c 0.552,0 1,-0.447 1,-1 l -2,-3 -2,3 c 0,0.553 0.448,1 1,1" /></g><g
           transform="translate(84,141)"
           id="g92"><path
             id="path94"
             style="fill:#a6a6a6;fill-opacity:1;fill-rule:nonzero;stroke:none"
             d="M 0,0 V 2 C 0,2.552 0.448,3 1,3 L 4,1 1,-1 C 0.448,-1 0,-0.552 0,0" /></g><g
           transform="translate(48,143)"
           id="g96"><path
             id="path98"
             style="fill:#a6a6a6;fill-opacity:1;fill-rule:nonzero;stroke:none"
             d="m 0,0 v -2 c 0,-0.552 -0.448,-1 -1,-1 l -3,2 3,2 C -0.448,1 0,0.552 0,0" /></g><g
           transform="translate(130,169.8569)"
           id="g100"><path
             id="path102"
             style="fill:#a6a6a6;fill-opacity:1;fill-rule:nonzero;stroke:none"
             d="m 0,0 c 0,-1.104 -0.896,-2 -2,-2 -1.104,0 -2,0.896 -2,2 0,1.105 0.896,2 2,2 1.104,0 2,-0.895 2,-2" /></g><g
           transform="translate(130,130)"
           id="g104"><path
             id="path106"
             style="fill:#a6a6a6;fill-opacity:1;fill-rule:nonzero;stroke:none"
             d="m 0,0 c 0,-1.104 -0.896,-2 -2,-2 -1.104,0 -2,0.896 -2,2 0,1.104 0.896,2 2,2 1.104,0 2,-0.896 2,-2" /></g><g
           transform="translate(139.3135,161.3135)"
           id="g108"><path
             id="path110"
             style="fill:#a6a6a6;fill-opacity:1;fill-rule:nonzero;stroke:none"
             d="m 0,0 -22.627,-22.627 c 6.248,-6.248 16.379,-6.248 22.627,0 C 6.249,-16.379 6.249,-6.248 0,0" /></g><g
           transform="translate(128,139.3335)"
           id="g112"><path
             id="path114"
             style="fill:#cccccc;fill-opacity:1;fill-rule:nonzero;stroke:none"
             d="m 0,0 c -5.891,0 -10.667,4.775 -10.667,10.667 0,5.891 4.776,10.666 10.667,10.666 5.891,0 10.667,-4.775 10.667,-10.666 C 10.667,4.775 5.891,0 0,0" /></g><g
           transform="translate(135.543,157.5425)"
           id="g116"><path
             id="path118"
             style="fill:#b3b3b3;fill-opacity:1;fill-rule:nonzero;stroke:none"
             d="M 0,0 -15.085,-15.085 C -10.92,-19.25 -4.166,-19.25 0,-15.085 4.165,-10.919 4.165,-4.166 0,0" /></g><path
           id="path120"
           style="fill:#d9d9d9;fill-opacity:1;fill-rule:nonzero;stroke:none"
           d="m 136,180 h -16 v 16 h 16 z" /></g></g></g></svg>