<?xml version="1.0" encoding="UTF-8" standalone="no"?>
<svg
   xmlns:dc="http://purl.org/dc/elements/1.1/"
   xmlns:cc="http://creativecommons.org/ns#"
   xmlns:rdf="http://www.w3.org/1999/02/22-rdf-syntax-ns#"
   xmlns:svg="http://www.w3.org/2000/svg"
   xmlns="http://www.w3.org/2000/svg"
   viewBox="0 0 5120 2879.9995"
   height="2879.9995"
   width="5120"
   xml:space="preserve"
   id="svg2"
   version="1.1"><metadata
     id="metadata8"><rdf:RDF><cc:Work
         rdf:about=""><dc:format>image/svg+xml</dc:format><dc:type
           rdf:resource="http://purl.org/dc/dcmitype/StillImage" /></cc:Work></rdf:RDF></metadata><defs
     id="defs6" /><g
     transform="matrix(1.3333333,0,0,-1.3333333,0,2879.9993)"
     id="g10"><g
       transform="translate(3600.0002,2159.9995)"
       id="g12"><path
         id="path14"
         style="fill:#091b25;fill-opacity:1;fill-rule:nonzero;stroke:none"
         d="M 0,0 239.999,-360 V 0 Z" /></g><g
       transform="translate(3600.0002,1439.9996)"
       id="g16"><path
         id="path18"
         style="fill:#091b25;fill-opacity:1;fill-rule:nonzero;stroke:none"
         d="M 0,0 H 239.999 V 360 Z" /></g><g
       transform="translate(3600.0002,1439.9996)"
       id="g20"><path
         id="path22"
         style="fill:#091c27;fill-opacity:1;fill-rule:nonzero;stroke:none"
         d="M 0,0 239.999,-360 V 0 Z" /></g><g
       transform="translate(3600.0002,719.9998)"
       id="g24"><path
         id="path26"
         style="fill:#091c27;fill-opacity:1;fill-rule:nonzero;stroke:none"
         d="M 0,0 H 239.999 V 360 Z" /></g><g
       transform="translate(3600.0002,719.9998)"
       id="g28"><path
         id="path30"
         style="fill:#091b25;fill-opacity:1;fill-rule:nonzero;stroke:none"
         d="M 0,0 239.999,-360 V 0 Z" /></g><g
       transform="translate(3600.0002)"
       id="g32"><path
         id="path34"
         style="fill:#081a24;fill-opacity:1;fill-rule:nonzero;stroke:none"
         d="M 0,0 H 239.999 V 360 Z" /></g><g
       transform="translate(3600.0002,2159.9995)"
       id="g36"><path
         id="path38"
         style="fill:#0b222e;fill-opacity:1;fill-rule:nonzero;stroke:none"
         d="M 0,0 -240,-360 H 239.999 Z" /></g><g
       transform="translate(3360,1799.9996)"
       id="g40"><path
         id="path42"
         style="fill:#0a212d;fill-opacity:1;fill-rule:nonzero;stroke:none"
         d="M 0,0 240,-360 480,0 Z" /></g><g
       transform="translate(3119.9998,2159.9995)"
       id="g44"><path
         id="path46"
         style="fill:#113448;fill-opacity:1;fill-rule:nonzero;stroke:none"
         d="M 0,0 -240,-360 H 240 Z" /></g><g
       transform="translate(3360,1800)"
       id="g48"><path
         id="path50"
         style="fill:#12394e;fill-opacity:1;fill-rule:nonzero;stroke:none"
         d="M 0,0 -240,-360 -480,0 Z" /></g><g
       transform="translate(2640,2159.9995)"
       id="g52"><path
         id="path54"
         style="fill:#184c69;fill-opacity:1;fill-rule:nonzero;stroke:none"
         d="M 0,0 -240,-360 H 240 Z" /></g><g
       transform="translate(2880,1800)"
       id="g56"><path
         id="path58"
         style="fill:#1b5473;fill-opacity:1;fill-rule:nonzero;stroke:none"
         d="M 0,0 -240,-360 -480,0 Z" /></g><g
       transform="translate(2159.9995,2159.9995)"
       id="g60"><path
         id="path62"
         style="fill:#20648a;fill-opacity:1;fill-rule:nonzero;stroke:none"
         d="M 0,0 -239.999,-360 H 240 Z" /></g><g
       transform="translate(2400,1800)"
       id="g64"><path
         id="path66"
         style="fill:#226c94;fill-opacity:1;fill-rule:nonzero;stroke:none"
         d="M 0,0 -240,-360 -480,0 Z" /></g><g
       transform="translate(1680,2159.9995)"
       id="g68"><path
         id="path70"
         style="fill:#2981b1;fill-opacity:1;fill-rule:nonzero;stroke:none"
         d="M 0,0 -240,-360 H 240 Z" /></g><g
       transform="translate(1920,1800)"
       id="g72"><path
         id="path74"
         style="fill:#2678a5;fill-opacity:1;fill-rule:nonzero;stroke:none"
         d="M 0,0 -240,-360 -480,0 Z" /></g><g
       transform="translate(1200.0004,2159.9995)"
       id="g76"><path
         id="path78"
         style="fill:#1c5778;fill-opacity:1;fill-rule:nonzero;stroke:none"
         d="M 0,0 -240,-360 H 239.999 Z" /></g><g
       transform="translate(1440,1800)"
       id="g80"><path
         id="path82"
         style="fill:#194e6c;fill-opacity:1;fill-rule:nonzero;stroke:none"
         d="M 0,0 -240,-360 -480,0 Z" /></g><g
       transform="translate(719.9998,2159.9995)"
       id="g84"><path
         id="path86"
         style="fill:#103346;fill-opacity:1;fill-rule:nonzero;stroke:none"
         d="M 0,0 -240,-360 H 240 Z" /></g><g
       transform="translate(960,1800)"
       id="g88"><path
         id="path90"
         style="fill:#0e2d3d;fill-opacity:1;fill-rule:nonzero;stroke:none"
         d="M 0,0 -240,-360 -480,0 Z" /></g><g
       transform="translate(240.0003,2159.9995)"
       id="g92"><path
         id="path94"
         style="fill:#091d28;fill-opacity:1;fill-rule:nonzero;stroke:none"
         d="M 0,0 -240,-360 H 239.999 Z" /></g><g
       transform="translate(0,1799.9996)"
       id="g96"><path
         id="path98"
         style="fill:#0a1f2a;fill-opacity:1;fill-rule:nonzero;stroke:none"
         d="M 0,0 240,-360 480,0 Z" /></g><g
       transform="translate(3360,1079.9998)"
       id="g100"><path
         id="path102"
         style="fill:#0a212d;fill-opacity:1;fill-rule:nonzero;stroke:none"
         d="M 0,0 H 480 L 240,360 Z" /></g><g
       transform="translate(3360,1079.9998)"
       id="g104"><path
         id="path106"
         style="fill:#0b222e;fill-opacity:1;fill-rule:nonzero;stroke:none"
         d="M 0,0 240,-360 480,0 Z" /></g><g
       transform="translate(3360,1080)"
       id="g108"><path
         id="path110"
         style="fill:#103346;fill-opacity:1;fill-rule:nonzero;stroke:none"
         d="m 0,0 h -480 l 240,360 z" /></g><g
       transform="translate(3360,1080)"
       id="g112"><path
         id="path114"
         style="fill:#0e2e3f;fill-opacity:1;fill-rule:nonzero;stroke:none"
         d="M 0,0 -240,-360 -480,0 Z" /></g><g
       transform="translate(2880,1080)"
       id="g116"><path
         id="path118"
         style="fill:#164660;fill-opacity:1;fill-rule:nonzero;stroke:none"
         d="m 0,0 h -480 l 240,360 z" /></g><g
       transform="translate(2880,1080)"
       id="g120"><path
         id="path122"
         style="fill:#15415a;fill-opacity:1;fill-rule:nonzero;stroke:none"
         d="M 0,0 -240,-360 -480,0 Z" /></g><g
       transform="translate(2400,1080)"
       id="g124"><path
         id="path126"
         style="fill:#236d96;fill-opacity:1;fill-rule:nonzero;stroke:none"
         d="m 0,0 h -480 l 240,360 z" /></g><g
       transform="translate(2400,1080)"
       id="g128"><path
         id="path130"
         style="fill:#277ba9;fill-opacity:1;fill-rule:nonzero;stroke:none"
         d="M 0,0 -240,-360 -480,0 Z" /></g><g
       transform="translate(1920,1080)"
       id="g132"><path
         id="path134"
         style="fill:#277ba9;fill-opacity:1;fill-rule:nonzero;stroke:none"
         d="m 0,0 h -480 l 240,360 z" /></g><g
       transform="translate(1920,1080)"
       id="g136"><path
         id="path138"
         style="fill:#236d96;fill-opacity:1;fill-rule:nonzero;stroke:none"
         d="M 0,0 -240,-360 -480,0 Z" /></g><g
       transform="translate(1440,1080)"
       id="g140"><path
         id="path142"
         style="fill:#15415a;fill-opacity:1;fill-rule:nonzero;stroke:none"
         d="m 0,0 h -480 l 240,360 z" /></g><g
       transform="translate(1440,1080)"
       id="g144"><path
         id="path146"
         style="fill:#164660;fill-opacity:1;fill-rule:nonzero;stroke:none"
         d="M 0,0 -240,-360 -480,0 Z" /></g><g
       transform="translate(960,1080)"
       id="g148"><path
         id="path150"
         style="fill:#0e2e3f;fill-opacity:1;fill-rule:nonzero;stroke:none"
         d="m 0,0 h -480 l 240,360 z" /></g><g
       transform="translate(960,1080)"
       id="g152"><path
         id="path154"
         style="fill:#103346;fill-opacity:1;fill-rule:nonzero;stroke:none"
         d="M 0,0 -240,-360 -480,0 Z" /></g><g
       transform="translate(0,1079.9998)"
       id="g156"><path
         id="path158"
         style="fill:#0b222e;fill-opacity:1;fill-rule:nonzero;stroke:none"
         d="M 0,0 H 480 L 240,360 Z" /></g><g
       transform="translate(0,1079.9998)"
       id="g160"><path
         id="path162"
         style="fill:#0a212d;fill-opacity:1;fill-rule:nonzero;stroke:none"
         d="M 0,0 240,-360 480,0 Z" /></g><g
       transform="translate(3360,359.9999)"
       id="g164"><path
         id="path166"
         style="fill:#0a1f2a;fill-opacity:1;fill-rule:nonzero;stroke:none"
         d="M 0,0 H 480 L 240,360 Z" /></g><g
       transform="translate(3360,359.9999)"
       id="g168"><path
         id="path170"
         style="fill:#091d28;fill-opacity:1;fill-rule:nonzero;stroke:none"
         d="M 0,0 240,-360 480,0 Z" /></g><g
       transform="translate(3360,360)"
       id="g172"><path
         id="path174"
         style="fill:#0e2d3d;fill-opacity:1;fill-rule:nonzero;stroke:none"
         d="m 0,0 h -480 l 240,360 z" /></g><g
       transform="translate(2880.0002,359.9999)"
       id="g176"><path
         id="path178"
         style="fill:#103346;fill-opacity:1;fill-rule:nonzero;stroke:none"
         d="M 0,0 240,-360 480,0 Z" /></g><g
       transform="translate(2880,360)"
       id="g180"><path
         id="path182"
         style="fill:#194e6c;fill-opacity:1;fill-rule:nonzero;stroke:none"
         d="m 0,0 h -480 l 240,360 z" /></g><g
       transform="translate(2399.9998,359.9999)"
       id="g184"><path
         id="path186"
         style="fill:#1c5778;fill-opacity:1;fill-rule:nonzero;stroke:none"
         d="M 0,0 240,-360 480,0 Z" /></g><g
       transform="translate(2400,360)"
       id="g188"><path
         id="path190"
         style="fill:#2982b2;fill-opacity:1;fill-rule:nonzero;stroke:none"
         d="m 0,0 h -480 l 240,360 z" /></g><g
       transform="translate(1920.0002,359.9999)"
       id="g192"><path
         id="path194"
         style="fill:#2678a5;fill-opacity:1;fill-rule:nonzero;stroke:none"
         d="M 0,0 239.999,-360 480,0 Z" /></g><g
       transform="translate(1920,360)"
       id="g196"><path
         id="path198"
         style="fill:#226c94;fill-opacity:1;fill-rule:nonzero;stroke:none"
         d="m 0,0 h -480 l 240,360 z" /></g><g
       transform="translate(1439.9996,359.9999)"
       id="g200"><path
         id="path202"
         style="fill:#20648a;fill-opacity:1;fill-rule:nonzero;stroke:none"
         d="M 0,0 240,-360 480.001,0 Z" /></g><g
       transform="translate(1440,360)"
       id="g204"><path
         id="path206"
         style="fill:#1b5473;fill-opacity:1;fill-rule:nonzero;stroke:none"
         d="m 0,0 h -480 l 240,360 z" /></g><g
       transform="translate(960.0001,359.9999)"
       id="g208"><path
         id="path210"
         style="fill:#184c69;fill-opacity:1;fill-rule:nonzero;stroke:none"
         d="M 0,0 240,-360 480,0 Z" /></g><g
       transform="translate(960,360)"
       id="g212"><path
         id="path214"
         style="fill:#12394e;fill-opacity:1;fill-rule:nonzero;stroke:none"
         d="m 0,0 h -480 l 240,360 z" /></g><g
       transform="translate(479.9996,359.9999)"
       id="g216"><path
         id="path218"
         style="fill:#113448;fill-opacity:1;fill-rule:nonzero;stroke:none"
         d="M 0,0 240,-360 480.001,0 Z" /></g><g
       transform="translate(0,359.9999)"
       id="g220"><path
         id="path222"
         style="fill:#0a212d;fill-opacity:1;fill-rule:nonzero;stroke:none"
         d="M 0,0 H 480 L 240,360 Z" /></g><g
       transform="translate(0,359.9999)"
       id="g224"><path
         id="path226"
         style="fill:#0b222e;fill-opacity:1;fill-rule:nonzero;stroke:none"
         d="M 0,0 240,-360 480,0 Z" /></g><g
       transform="translate(3119.9998,2159.9995)"
       id="g228"><path
         id="path230"
         style="fill:#0d2939;fill-opacity:1;fill-rule:nonzero;stroke:none"
         d="M 0,0 240,-360 480,0 Z" /></g><g
       transform="translate(2640,2159.9995)"
       id="g232"><path
         id="path234"
         style="fill:#144058;fill-opacity:1;fill-rule:nonzero;stroke:none"
         d="M 0,0 240,-360 480,0 Z" /></g><g
       transform="translate(2159.9995,2159.9995)"
       id="g236"><path
         id="path238"
         style="fill:#1b5473;fill-opacity:1;fill-rule:nonzero;stroke:none"
         d="M 0,0 240,-360 480,0 Z" /></g><g
       transform="translate(1680,2159.9995)"
       id="g240"><path
         id="path242"
         style="fill:#308dc0;fill-opacity:1;fill-rule:nonzero;stroke:none"
         d="M 0,0 240,-360 480,0 Z" /></g><g
       transform="translate(1200.0004,2159.9995)"
       id="g244"><path
         id="path246"
         style="fill:#2678a5;fill-opacity:1;fill-rule:nonzero;stroke:none"
         d="M 0,0 239.999,-360 480,0 Z" /></g><g
       transform="translate(719.9998,2159.9995)"
       id="g248"><path
         id="path250"
         style="fill:#164660;fill-opacity:1;fill-rule:nonzero;stroke:none"
         d="M 0,0 240,-360 480.001,0 Z" /></g><g
       transform="translate(240.0003,2159.9995)"
       id="g252"><path
         id="path254"
         style="fill:#0c2533;fill-opacity:1;fill-rule:nonzero;stroke:none"
         d="M 0,0 239.999,-360 480,0 Z" /></g><g
       transform="translate(0,2159.9995)"
       id="g256"><path
         id="path258"
         style="fill:#081a24;fill-opacity:1;fill-rule:nonzero;stroke:none"
         d="M 0,0 V -360 L 240,0 Z" /></g><g
       transform="translate(0,1439.9996)"
       id="g260"><path
         id="path262"
         style="fill:#091b25;fill-opacity:1;fill-rule:nonzero;stroke:none"
         d="M 0,0 H 240 L 0,360 Z" /></g><g
       transform="translate(0,1439.9996)"
       id="g264"><path
         id="path266"
         style="fill:#091c27;fill-opacity:1;fill-rule:nonzero;stroke:none"
         d="M 0,0 V -360 L 240,0 Z" /></g><g
       transform="translate(0,719.9998)"
       id="g268"><path
         id="path270"
         style="fill:#091c27;fill-opacity:1;fill-rule:nonzero;stroke:none"
         d="M 0,0 H 240 L 0,360 Z" /></g><g
       transform="translate(0,719.9998)"
       id="g272"><path
         id="path274"
         style="fill:#07161f;fill-opacity:1;fill-rule:nonzero;stroke:none"
         d="M 0,0 V -360 L 240,0 Z" /></g><path
       id="path276"
       style="fill:#091b25;fill-opacity:1;fill-rule:nonzero;stroke:none"
       d="M 0,0 H 240 L 0,360 Z" /><g
       transform="translate(3600,1440)"
       id="g278"><path
         id="path280"
         style="fill:#0e2c3c;fill-opacity:1;fill-rule:nonzero;stroke:none"
         d="m 0,0 h -480 l 240,360 z" /></g><g
       transform="translate(3600,1440)"
       id="g282"><path
         id="path284"
         style="fill:#0d2939;fill-opacity:1;fill-rule:nonzero;stroke:none"
         d="M 0,0 -240,-360 -480,0 Z" /></g><g
       transform="translate(3120,1440)"
       id="g286"><path
         id="path288"
         style="fill:#1d5a7c;fill-opacity:1;fill-rule:nonzero;stroke:none"
         d="m 0,0 h -480 l 240,360 z" /></g><g
       transform="translate(3120,1440)"
       id="g290"><path
         id="path292"
         style="fill:#154159;fill-opacity:1;fill-rule:nonzero;stroke:none"
         d="M 0,0 -240,-360 -480,0 Z" /></g><g
       transform="translate(2640,1440)"
       id="g294"><path
         id="path296"
         style="fill:#1d5a7c;fill-opacity:1;fill-rule:nonzero;stroke:none"
         d="m 0,0 h -480 l 240,360 z" /></g><g
       transform="translate(2640,1440)"
       id="g298"><path
         id="path300"
         style="fill:#1a5372;fill-opacity:1;fill-rule:nonzero;stroke:none"
         d="M 0,0 -240,-360 -480,0 Z" /></g><g
       transform="translate(2160,1440)"
       id="g302"><path
         id="path304"
         style="fill:#2982b3;fill-opacity:1;fill-rule:nonzero;stroke:none"
         d="m 0,0 h -480 l 240,360 z" /></g><g
       transform="translate(2160,1440)"
       id="g306"><path
         id="path308"
         style="fill:#2c8abe;fill-opacity:1;fill-rule:nonzero;stroke:none"
         d="M 0,0 -240,-360 -480,0 Z" /></g><g
       transform="translate(1680,1440)"
       id="g310"><path
         id="path312"
         style="fill:#1d5d7f;fill-opacity:1;fill-rule:nonzero;stroke:none"
         d="m 0,0 h -480 l 240,360 z" /></g><g
       transform="translate(1680,1440)"
       id="g314"><path
         id="path316"
         style="fill:#1e6084;fill-opacity:1;fill-rule:nonzero;stroke:none"
         d="M 0,0 -240,-360 -480,0 Z" /></g><g
       transform="translate(1200,1440)"
       id="g318"><path
         id="path320"
         style="fill:#113448;fill-opacity:1;fill-rule:nonzero;stroke:none"
         d="m 0,0 h -480 l 240,360 z" /></g><g
       transform="translate(1200,1440)"
       id="g322"><path
         id="path324"
         style="fill:#103245;fill-opacity:1;fill-rule:nonzero;stroke:none"
         d="M 0,0 -240,-360 -480,0 Z" /></g><g
       transform="translate(720,1440)"
       id="g326"><path
         id="path328"
         style="fill:#0b222e;fill-opacity:1;fill-rule:nonzero;stroke:none"
         d="m 0,0 h -480 l 240,360 z" /></g><g
       transform="translate(720,1440)"
       id="g330"><path
         id="path332"
         style="fill:#0c2533;fill-opacity:1;fill-rule:nonzero;stroke:none"
         d="M 0,0 -240,-360 -480,0 Z" /></g><g
       transform="translate(3600,720)"
       id="g334"><path
         id="path336"
         style="fill:#0c2533;fill-opacity:1;fill-rule:nonzero;stroke:none"
         d="m 0,0 h -480 l 240,360 z" /></g><g
       transform="translate(3600,720)"
       id="g338"><path
         id="path340"
         style="fill:#0b222e;fill-opacity:1;fill-rule:nonzero;stroke:none"
         d="M 0,0 -240,-360 -480,0 Z" /></g><g
       transform="translate(3120,720)"
       id="g342"><path
         id="path344"
         style="fill:#103245;fill-opacity:1;fill-rule:nonzero;stroke:none"
         d="m 0,0 h -480 l 240,360 z" /></g><g
       transform="translate(3120,720)"
       id="g346"><path
         id="path348"
         style="fill:#113448;fill-opacity:1;fill-rule:nonzero;stroke:none"
         d="M 0,0 -240,-360 -480,0 Z" /></g><g
       transform="translate(2640,720)"
       id="g350"><path
         id="path352"
         style="fill:#1e6084;fill-opacity:1;fill-rule:nonzero;stroke:none"
         d="m 0,0 h -480 l 240,360 z" /></g><g
       transform="translate(2640,720)"
       id="g354"><path
         id="path356"
         style="fill:#1d5d7f;fill-opacity:1;fill-rule:nonzero;stroke:none"
         d="M 0,0 -240,-360 -480,0 Z" /></g><g
       transform="translate(2160,720)"
       id="g358"><path
         id="path360"
         style="fill:#2982b3;fill-opacity:1;fill-rule:nonzero;stroke:none"
         d="m 0,0 h -480 l 240,360 z" /></g><g
       transform="translate(2160,720)"
       id="g362"><path
         id="path364"
         style="fill:#2c8abe;fill-opacity:1;fill-rule:nonzero;stroke:none"
         d="M 0,0 -240,-360 -480,0 Z" /></g><g
       transform="translate(1680,720)"
       id="g366"><path
         id="path368"
         style="fill:#1a5372;fill-opacity:1;fill-rule:nonzero;stroke:none"
         d="m 0,0 h -480 l 240,360 z" /></g><g
       transform="translate(1680,720)"
       id="g370"><path
         id="path372"
         style="fill:#1d5a7c;fill-opacity:1;fill-rule:nonzero;stroke:none"
         d="M 0,0 -240,-360 -480,0 Z" /></g><g
       transform="translate(1200,720)"
       id="g374"><path
         id="path376"
         style="fill:#144159;fill-opacity:1;fill-rule:nonzero;stroke:none"
         d="m 0,0 h -480 l 240,360 z" /></g><g
       transform="translate(1200,720)"
       id="g378"><path
         id="path380"
         style="fill:#174863;fill-opacity:1;fill-rule:nonzero;stroke:none"
         d="M 0,0 -240,-360 -480,0 Z" /></g><g
       transform="translate(720,720)"
       id="g382"><path
         id="path384"
         style="fill:#0d2939;fill-opacity:1;fill-rule:nonzero;stroke:none"
         d="m 0,0 h -480 l 240,360 z" /></g><g
       transform="translate(720,720)"
       id="g386"><path
         id="path388"
         style="fill:#0e2c3c;fill-opacity:1;fill-rule:nonzero;stroke:none"
         d="M 0,0 -240,-360 -480,0 Z" /></g><g
       transform="translate(3119.9998)"
       id="g390"><path
         id="path392"
         style="fill:#0c2533;fill-opacity:1;fill-rule:nonzero;stroke:none"
         d="M 0,0 H 480 L 240,360 Z" /></g><g
       transform="translate(2640)"
       id="g394"><path
         id="path396"
         style="fill:#164660;fill-opacity:1;fill-rule:nonzero;stroke:none"
         d="M 0,0 H 480 L 240,360 Z" /></g><g
       transform="translate(2159.9995)"
       id="g398"><path
         id="path400"
         style="fill:#20648a;fill-opacity:1;fill-rule:nonzero;stroke:none"
         d="M 0,0 H 480 L 240,360 Z" /></g><g
       transform="translate(1680)"
       id="g402"><path
         id="path404"
         style="fill:#308dc0;fill-opacity:1;fill-rule:nonzero;stroke:none"
         d="M 0,0 H 480 L 240,360 Z" /></g><g
       transform="translate(1200.0004)"
       id="g406"><path
         id="path408"
         style="fill:#1b5473;fill-opacity:1;fill-rule:nonzero;stroke:none"
         d="M 0,0 H 480 L 239.999,360 Z" /></g><g
       transform="translate(719.9998)"
       id="g410"><path
         id="path412"
         style="fill:#144058;fill-opacity:1;fill-rule:nonzero;stroke:none"
         d="M 0,0 H 480.001 L 240,360 Z" /></g><g
       transform="translate(240.0003)"
       id="g414"><path
         id="path416"
         style="fill:#0d2939;fill-opacity:1;fill-rule:nonzero;stroke:none"
         d="M 0,0 H 480 L 239.999,360 Z" /></g></g></svg>