<?xml version="1.0" encoding="UTF-8" standalone="no"?>
<svg
   xmlns:dc="http://purl.org/dc/elements/1.1/"
   xmlns:cc="http://creativecommons.org/ns#"
   xmlns:rdf="http://www.w3.org/1999/02/22-rdf-syntax-ns#"
   xmlns:svg="http://www.w3.org/2000/svg"
   xmlns="http://www.w3.org/2000/svg"
   viewBox="0 0 234.66653 330.66613"
   height="330.66614"
   width="234.66653"
   xml:space="preserve"
   id="svg2"
   version="1.1"><metadata
     id="metadata8"><rdf:RDF><cc:Work
         rdf:about=""><dc:format>image/svg+xml</dc:format><dc:type
           rdf:resource="http://purl.org/dc/dcmitype/StillImage" /></cc:Work></rdf:RDF></metadata><defs
     id="defs6"><clipPath
       id="clipPath18"
       clipPathUnits="userSpaceOnUse"><path
         id="path16"
         d="M 0,256 H 256 V 0 H 0 Z" /></clipPath><clipPath
       id="clipPath26"
       clipPathUnits="userSpaceOnUse"><path
         id="path24"
         d="M 40,252 H 216 V 4 H 40 Z" /></clipPath></defs><g
     transform="matrix(1.3333333,0,0,-1.3333333,-53.333465,335.99946)"
     id="g10"><g
       id="g12"><g
         clip-path="url(#clipPath18)"
         id="g14"><g
           id="g20"><g
             id="g22" /><g
             id="g34"><g
               style="opacity:0.5"
               id="g32"
               clip-path="url(#clipPath26)"><g
                 id="g30"
                 transform="translate(215.0791,103.7256)"><path
                   id="path28"
                   style="fill:#ffffff;fill-opacity:1;fill-rule:nonzero;stroke:none"
                   d="m 0,0 -7.296,13.863 c -1.084,2.06 -2.708,3.714 -4.646,4.825 l -15.137,102.176 v 7.41 c 0,8.823 -7.178,16 -16,16 h -6.005 c -1.826,2.428 -4.73,4 -7.995,4 h -56 c -3.265,0 -6.169,-1.572 -7.995,-4 h -6.005 c -8.822,0 -16,-7.177 -16,-16 v -7.265 L -162.005,18.807 c -2.032,-1.112 -3.734,-2.81 -4.857,-4.944 L -174.158,0 l -0.921,-1.749 v -1.977 -4 c 0,-6.617 5.383,-12 12,-12 h 3.063 c 1.329,-1.483 3.022,-2.635 4.937,-3.314 v -68.686 -8 h 8 120 8 v 8 68.202 c 2.435,0.496 4.552,1.88 5.995,3.798 h 2.005 c 6.617,0 12,5.383 12,12 v 4 1.977 z" /></g></g></g></g><g
           transform="translate(158,236)"
           id="g36"><path
             id="path38"
             style="fill:#b3b3b3;fill-opacity:1;fill-rule:nonzero;stroke:none"
             d="m 0,0 h -56 c -1.104,0 -2,0.896 -2,2 v 4 c 0,1.104 0.896,2 2,2 H 0 C 1.104,8 2,7.104 2,6 V 2 C 2,0.896 1.104,0 0,0" /></g><g
           transform="translate(60,116)"
           id="g40"><path
             id="path42"
             style="fill:#bfbfbf;fill-opacity:1;fill-rule:nonzero;stroke:none"
             d="m 0,0 20,108 v 8 c 0,4.418 3.582,8 8,8 h 84 c 4.418,0 8,-3.582 8,-8 v -8 L 136,0 Z" /></g><path
           id="path44"
           style="fill:#cccccc;fill-opacity:1;fill-rule:nonzero;stroke:none"
           d="M 188,12 H 68 v 96 h 120 z" /><g
           transform="translate(183.5889,124.5)"
           id="g46"><path
             id="path48"
             style="fill:#404040;fill-opacity:1;fill-rule:nonzero;stroke:none"
             d="m 0,0 h -110.977 c -2.434,0 -4.304,2.156 -3.96,4.566 l 10.857,76 c 0.282,1.97 1.97,3.434 3.96,3.434 h 92.893 c 2.063,0 3.788,-1.568 3.983,-3.622 l 7.226,-76 C 4.205,2.03 2.358,0 0,0" /></g><g
           transform="translate(123.5474,84.5039)"
           id="g50"><path
             id="path52"
             style="fill:#b3b3b3;fill-opacity:1;fill-rule:nonzero;stroke:none"
             d="m 0,0 h -47.095 c -2.455,0 -4.452,-1.875 -4.452,-4.18 v -55.641 c 0,-2.304 1.997,-4.179 4.452,-4.179 H 0 c 2.455,0 4.453,1.875 4.453,4.179 V -4.18 C 4.453,-1.875 2.455,0 0,0 m 0,-2 c 1.353,0 2.453,-0.978 2.453,-2.18 V -59.821 C 2.453,-61.022 1.353,-62 0,-62 h -47.095 c -1.352,0 -2.452,0.978 -2.452,2.179 V -4.18 c 0,1.202 1.1,2.18 2.452,2.18 L 0,-2" /></g><g
           transform="translate(177.8193,84.5)"
           id="g54"><path
             id="path56"
             style="fill:#b3b3b3;fill-opacity:1;fill-rule:nonzero;stroke:none"
             d="m 0,0 h -24.699 c -3.116,0 -5.653,-2.674 -5.653,-5.957 v -20.086 c 0,-3.283 2.537,-5.957 5.653,-5.957 H 0 c 3.115,0 5.652,2.674 5.652,5.957 V -5.957 C 5.652,-2.674 3.115,0 0,0 m 0,-2 c 2.014,0 3.652,-1.775 3.652,-3.957 V -26.043 C 3.652,-28.225 2.014,-30 0,-30 h -24.699 c -2.014,0 -3.653,1.775 -3.653,3.957 v 20.086 c 0,2.182 1.639,3.957 3.653,3.957 L 0,-2" /></g><g
           transform="translate(178.083,48.5)"
           id="g58"><path
             id="path60"
             style="fill:#b3b3b3;fill-opacity:1;fill-rule:nonzero;stroke:none"
             d="m 0,0 h -36.53 c -3.161,0 -5.736,-2.283 -5.736,-5.089 v -21.822 c 0,-2.806 2.575,-5.089 5.736,-5.089 H 0 c 3.161,0 5.734,2.283 5.734,5.089 V -5.089 C 5.734,-2.283 3.161,0 0,0 m 0,-2 c 2.06,0 3.734,-1.386 3.734,-3.089 V -26.911 C 3.734,-28.614 2.06,-30 0,-30 h -36.53 c -2.06,0 -3.736,1.386 -3.736,3.089 v 21.822 c 0,1.703 1.676,3.089 3.736,3.089 L 0,-2" /></g><g
           transform="translate(102,212)"
           id="g62"><path
             id="path64"
             style="fill:#999999;fill-opacity:1;fill-rule:nonzero;stroke:none"
             d="m 0,0 h -12 c -1.104,0 -2,0.896 -2,2 v 4 c 0,1.104 0.896,2 2,2 H 0 C 1.104,8 2,7.104 2,6 V 2 C 2,0.896 1.104,0 0,0" /></g><g
           transform="translate(170,212)"
           id="g66"><path
             id="path68"
             style="fill:#999999;fill-opacity:1;fill-rule:nonzero;stroke:none"
             d="m 0,0 h -12 c -1.104,0 -2,0.896 -2,2 v 4 c 0,1.104 0.896,2 2,2 H 0 C 1.104,8 2,7.104 2,6 V 2 C 2,0.896 1.104,0 0,0" /></g><g
           transform="translate(174,224)"
           id="g70"><path
             id="path72"
             style="fill:#b62971;fill-opacity:1;fill-rule:nonzero;stroke:none"
             d="m 0,0 h -88 c -1.104,0 -2,0.896 -2,2 v 8 c 0,1.104 0.896,2 2,2 H 0 c 1.104,0 2,-0.896 2,-2 V 2 C 2,0.896 1.104,0 0,0" /></g><g
           transform="translate(48,100)"
           id="g74"><path
             id="path76"
             style="fill:#999999;fill-opacity:1;fill-rule:nonzero;stroke:none"
             d="M 0,0 7.296,13.863 C 7.988,15.177 9.351,16 10.836,16 h 138.328 c 1.485,0 2.848,-0.823 3.54,-2.137 L 160,0 Z" /></g><g
           transform="translate(195.5996,102)"
           id="g78"><path
             id="path80"
             style="fill:#262626;fill-opacity:1;fill-rule:nonzero;stroke:none"
             d="m 0,0 h -135.199 c -3.267,0 -5.392,2.738 -3.931,5.065 l 3.18,5.066 c 1.489,2.371 4.533,3.869 7.862,3.869 H -7.11 c 3.329,0 6.372,-1.498 7.861,-3.869 L 3.931,5.065 C 5.392,2.738 3.267,0 0,0" /></g><path
           id="path82"
           style="fill:#262626;fill-opacity:1;fill-rule:nonzero;stroke:none"
           d="m 172,60.5 h -4 v 4 h 4 z" /><g
           transform="translate(156,74.5)"
           id="g84"><path
             id="path86"
             style="fill:#262626;fill-opacity:1;fill-rule:nonzero;stroke:none"
             d="m 0,0 c 0,-1.104 -0.896,-2 -2,-2 -1.104,0 -2,0.896 -2,2 0,1.104 0.896,2 2,2 1.104,0 2,-0.896 2,-2" /></g><g
           transform="translate(100,78)"
           id="g88"><path
             id="path90"
             style="fill:#262626;fill-opacity:1;fill-rule:nonzero;stroke:none"
             d="m 0,0 c 0,-1.104 -0.896,-2 -2,-2 -1.104,0 -2,0.896 -2,2 0,1.104 0.896,2 2,2 1.104,0 2,-0.896 2,-2" /></g><g
           transform="translate(144,34.5)"
           id="g92"><path
             id="path94"
             style="fill:#262626;fill-opacity:1;fill-rule:nonzero;stroke:none"
             d="m 0,0 c 0,-1.104 -0.896,-2 -2,-2 -1.104,0 -2,0.896 -2,2 0,1.104 0.896,2 2,2 1.104,0 2,-0.896 2,-2" /></g><g
           transform="translate(194,88)"
           id="g96"><path
             id="path98"
             style="fill:#b3b3b3;fill-opacity:1;fill-rule:nonzero;stroke:none"
             d="m 0,0 h -130 c -2.209,0 -4,1.791 -4,4 V 8 H 2 V 2 C 2,0.896 1.104,0 0,0" /></g><g
           transform="translate(204,92)"
           id="g100"><path
             id="path102"
             style="fill:#bfbfbf;fill-opacity:1;fill-rule:nonzero;stroke:none"
             d="m 0,0 h -152 c -2.209,0 -4,1.791 -4,4 V 8 H 4 V 4 C 4,1.791 2.209,0 0,0" /></g><g
           transform="translate(182.8281,136.5)"
           id="g104"><path
             id="path106"
             style="fill:#262626;fill-opacity:1;fill-rule:nonzero;stroke:none"
             d="m 0,0 -5.325,56 h -95.748 l -8,-56 z" /></g><g
           transform="translate(186,112)"
           id="g108"><path
             id="path110"
             style="fill:#6700cc;fill-opacity:1;fill-rule:nonzero;stroke:none"
             d="m 0,0 c 0,-1.104 -1.343,-2 -3,-2 -1.657,0 -3,0.896 -3,2 0,1.104 1.343,2 3,2 1.657,0 3,-0.896 3,-2" /></g><g
           transform="translate(182,106)"
           id="g112"><path
             id="path114"
             style="fill:#6700cc;fill-opacity:1;fill-rule:nonzero;stroke:none"
             d="m 0,0 c 0,-1.104 -1.343,-2 -3,-2 -1.657,0 -3,0.896 -3,2 0,1.104 1.343,2 3,2 1.657,0 3,-0.896 3,-2" /></g><g
           transform="translate(178,112)"
           id="g116"><path
             id="path118"
             style="fill:#6700cc;fill-opacity:1;fill-rule:nonzero;stroke:none"
             d="m 0,0 c 0,-1.104 -1.343,-2 -3,-2 -1.657,0 -3,0.896 -3,2 0,1.104 1.343,2 3,2 1.657,0 3,-0.896 3,-2" /></g><g
           transform="translate(174,106)"
           id="g120"><path
             id="path122"
             style="fill:#6700cc;fill-opacity:1;fill-rule:nonzero;stroke:none"
             d="m 0,0 c 0,-1.104 -1.343,-2 -3,-2 -1.657,0 -3,0.896 -3,2 0,1.104 1.343,2 3,2 1.657,0 3,-0.896 3,-2" /></g><g
           transform="translate(170,112)"
           id="g124"><path
             id="path126"
             style="fill:#6700cc;fill-opacity:1;fill-rule:nonzero;stroke:none"
             d="m 0,0 c 0,-1.104 -1.343,-2 -3,-2 -1.657,0 -3,0.896 -3,2 0,1.104 1.343,2 3,2 1.657,0 3,-0.896 3,-2" /></g><g
           transform="translate(133,110)"
           id="g128"><path
             id="path130"
             style="fill:#eac500;fill-opacity:1;fill-rule:nonzero;stroke:none"
             d="m 0,0 c 0,-1.104 -1.343,-2 -3,-2 -1.657,0 -3,0.896 -3,2 0,1.104 1.343,2 3,2 1.657,0 3,-0.896 3,-2" /></g><g
           transform="translate(125,110)"
           id="g132"><path
             id="path134"
             style="fill:#eac500;fill-opacity:1;fill-rule:nonzero;stroke:none"
             d="m 0,0 c 0,-1.104 -1.343,-2 -3,-2 -1.657,0 -3,0.896 -3,2 0,1.104 1.343,2 3,2 1.657,0 3,-0.896 3,-2" /></g><g
           transform="translate(166,106)"
           id="g136"><path
             id="path138"
             style="fill:#6700cc;fill-opacity:1;fill-rule:nonzero;stroke:none"
             d="m 0,0 c 0,-1.104 -1.343,-2 -3,-2 -1.657,0 -3,0.896 -3,2 0,1.104 1.343,2 3,2 1.657,0 3,-0.896 3,-2" /></g><g
           transform="translate(110,112)"
           id="g140"><path
             id="path142"
             style="fill:#ed4792;fill-opacity:1;fill-rule:nonzero;stroke:none"
             d="m 0,0 c 0,-1.104 -1.343,-2 -3,-2 -1.657,0 -3,0.896 -3,2 0,1.104 1.343,2 3,2 1.657,0 3,-0.896 3,-2" /></g><g
           transform="translate(106,106)"
           id="g144"><path
             id="path146"
             style="fill:#ed4792;fill-opacity:1;fill-rule:nonzero;stroke:none"
             d="m 0,0 c 0,-1.104 -1.343,-2 -3,-2 -1.657,0 -3,0.896 -3,2 0,1.104 1.343,2 3,2 1.657,0 3,-0.896 3,-2" /></g><g
           transform="translate(102,112)"
           id="g148"><path
             id="path150"
             style="fill:#ed4792;fill-opacity:1;fill-rule:nonzero;stroke:none"
             d="m 0,0 c 0,-1.104 -1.343,-2 -3,-2 -1.657,0 -3,0.896 -3,2 0,1.104 1.343,2 3,2 1.657,0 3,-0.896 3,-2" /></g><g
           transform="translate(98,106)"
           id="g152"><path
             id="path154"
             style="fill:#ed4792;fill-opacity:1;fill-rule:nonzero;stroke:none"
             d="m 0,0 c 0,-1.104 -1.343,-2 -3,-2 -1.657,0 -3,0.896 -3,2 0,1.104 1.343,2 3,2 1.657,0 3,-0.896 3,-2" /></g><g
           transform="translate(94,112)"
           id="g156"><path
             id="path158"
             style="fill:#ed4792;fill-opacity:1;fill-rule:nonzero;stroke:none"
             d="m 0,0 c 0,-1.104 -1.343,-2 -3,-2 -1.657,0 -3,0.896 -3,2 0,1.104 1.343,2 3,2 1.657,0 3,-0.896 3,-2" /></g><g
           transform="translate(90,106)"
           id="g160"><path
             id="path162"
             style="fill:#ed4792;fill-opacity:1;fill-rule:nonzero;stroke:none"
             d="m 0,0 c 0,-1.104 -1.343,-2 -3,-2 -1.657,0 -3,0.896 -3,2 0,1.104 1.343,2 3,2 1.657,0 3,-0.896 3,-2" /></g><g
           transform="translate(158,109)"
           id="g164"><path
             id="path166"
             style="fill:#191919;fill-opacity:1;fill-rule:nonzero;stroke:none"
             d="m 0,0 c 0,-1.657 -2.687,-3 -6,-3 -3.313,0 -6,1.343 -6,3 0,1.657 2.687,3 6,3 3.313,0 6,-1.343 6,-3" /></g><g
           transform="translate(82,109)"
           id="g168"><path
             id="path170"
             style="fill:#191919;fill-opacity:1;fill-rule:nonzero;stroke:none"
             d="m 0,0 c 0,-1.657 -2.687,-3 -6,-3 -3.313,0 -6,1.343 -6,3 0,1.657 2.687,3 6,3 3.313,0 6,-1.343 6,-3" /></g><g
           transform="translate(76,108)"
           id="g172"><path
             id="path174"
             style="fill:#cccccc;fill-opacity:1;fill-rule:nonzero;stroke:none"
             d="M 0,0 V 0 C -1.1,0 -2,0.9 -2,2 V 6 C -2,7.1 -1.1,8 0,8 1.1,8 2,7.1 2,6 V 2 C 2,0.9 1.1,0 0,0" /></g><g
           transform="translate(80,116)"
           id="g176"><path
             id="path178"
             style="fill:#ed4792;fill-opacity:1;fill-rule:nonzero;stroke:none"
             d="m 0,0 c 0,-2.209 -1.791,-4 -4,-4 -2.209,0 -4,1.791 -4,4 0,2.209 1.791,4 4,4 2.209,0 4,-1.791 4,-4" /></g><g
           transform="translate(152,108)"
           id="g180"><path
             id="path182"
             style="fill:#cccccc;fill-opacity:1;fill-rule:nonzero;stroke:none"
             d="M 0,0 V 0 C -1.1,0 -2,0.9 -2,2 V 6 C -2,7.1 -1.1,8 0,8 1.1,8 2,7.1 2,6 V 2 C 2,0.9 1.1,0 0,0" /></g><g
           transform="translate(156,116)"
           id="g184"><path
             id="path186"
             style="fill:#6700cc;fill-opacity:1;fill-rule:nonzero;stroke:none"
             d="m 0,0 c 0,-2.209 -1.791,-4 -4,-4 -2.209,0 -4,1.791 -4,4 0,2.209 1.791,4 4,4 2.209,0 4,-1.791 4,-4" /></g></g></g></g></svg>