<?xml version="1.0" encoding="UTF-8" standalone="no"?>
<svg
   xmlns:dc="http://purl.org/dc/elements/1.1/"
   xmlns:cc="http://creativecommons.org/ns#"
   xmlns:rdf="http://www.w3.org/1999/02/22-rdf-syntax-ns#"
   xmlns:svg="http://www.w3.org/2000/svg"
   xmlns="http://www.w3.org/2000/svg"
   viewBox="0 0 266.66653 266.66665"
   height="266.66666"
   width="266.66653"
   xml:space="preserve"
   id="svg2"
   version="1.1"><metadata
     id="metadata8"><rdf:RDF><cc:Work
         rdf:about=""><dc:format>image/svg+xml</dc:format><dc:type
           rdf:resource="http://purl.org/dc/dcmitype/StillImage" /></cc:Work></rdf:RDF></metadata><defs
     id="defs6"><clipPath
       id="clipPath18"
       clipPathUnits="userSpaceOnUse"><path
         id="path16"
         d="M 0,256 H 256 V 0 H 0 Z" /></clipPath><clipPath
       id="clipPath26"
       clipPathUnits="userSpaceOnUse"><path
         id="path24"
         d="M 28,228 H 228 V 28 H 28 Z" /></clipPath></defs><g
     transform="matrix(1.3333333,0,0,-1.3333333,-37.333332,303.99999)"
     id="g10"><g
       id="g12"><g
         clip-path="url(#clipPath18)"
         id="g14"><g
           id="g20"><g
             id="g22" /><g
             id="g34"><g
               style="opacity:0.5"
               id="g32"
               clip-path="url(#clipPath26)"><g
                 id="g30"
                 transform="translate(205.4189,228)"><path
                   id="path28"
                   style="fill:#ffffff;fill-opacity:1;fill-rule:nonzero;stroke:none"
                   d="m 0,0 h -154.838 c -12.452,0 -22.581,-10.129 -22.581,-22.581 v -154.838 c 0,-12.451 10.129,-22.581 22.581,-22.581 L 0,-200 c 12.451,0 22.581,10.13 22.581,22.581 V -22.581 C 22.581,-10.129 12.451,0 0,0" /></g></g></g></g><g
           transform="translate(200,36)"
           id="g36"><path
             id="path38"
             style="fill:#0e6654;fill-opacity:1;fill-rule:nonzero;stroke:none"
             d="m 0,0 h -144 c -11.046,0 -20,8.954 -20,20 v 144 c 0,11.046 8.954,20 20,20 H 0 c 11.046,0 20,-8.954 20,-20 V 20 C 20,8.954 11.046,0 0,0" /></g><path
           id="path40"
           style="fill:#a3834a;fill-opacity:1;fill-rule:nonzero;stroke:none"
           d="m 80,176 h -4 v 16 h 4 z" /><path
           id="path42"
           style="fill:#a3834a;fill-opacity:1;fill-rule:nonzero;stroke:none"
           d="m 88,176 h -4 v 16 h 4 z" /><path
           id="path44"
           style="fill:#a3834a;fill-opacity:1;fill-rule:nonzero;stroke:none"
           d="m 96,176 h -4 v 16 h 4 z" /><path
           id="path46"
           style="fill:#a3834a;fill-opacity:1;fill-rule:nonzero;stroke:none"
           d="m 104,176 h -4 v 16 h 4 z" /><path
           id="path48"
           style="fill:#a3834a;fill-opacity:1;fill-rule:nonzero;stroke:none"
           d="m 112,176 h -4 v 16 h 4 z" /><path
           id="path50"
           style="fill:#a3834a;fill-opacity:1;fill-rule:nonzero;stroke:none"
           d="m 120,176 h -4 v 16 h 4 z" /><path
           id="path52"
           style="fill:#a3834a;fill-opacity:1;fill-rule:nonzero;stroke:none"
           d="m 128,176 h -4 v 16 h 4 z" /><path
           id="path54"
           style="fill:#a3834a;fill-opacity:1;fill-rule:nonzero;stroke:none"
           d="m 136,176 h -4 v 16 h 4 z" /><path
           id="path56"
           style="fill:#a3834a;fill-opacity:1;fill-rule:nonzero;stroke:none"
           d="m 144,176 h -4 v 16 h 4 z" /><path
           id="path58"
           style="fill:#a3834a;fill-opacity:1;fill-rule:nonzero;stroke:none"
           d="m 152,176 h -4 v 16 h 4 z" /><path
           id="path60"
           style="fill:#a3834a;fill-opacity:1;fill-rule:nonzero;stroke:none"
           d="m 160,176 h -4 v 16 h 4 z" /><path
           id="path62"
           style="fill:#a3834a;fill-opacity:1;fill-rule:nonzero;stroke:none"
           d="m 168,176 h -4 v 16 h 4 z" /><path
           id="path64"
           style="fill:#a3834a;fill-opacity:1;fill-rule:nonzero;stroke:none"
           d="m 176,176 h -4 v 16 h 4 z" /><path
           id="path66"
           style="fill:#a3834a;fill-opacity:1;fill-rule:nonzero;stroke:none"
           d="m 184,176 h -4 v 16 h 4 z" /><path
           id="path68"
           style="fill:#a3834a;fill-opacity:1;fill-rule:nonzero;stroke:none"
           d="m 76,64 h -4 v 16 h 4 z" /><path
           id="path70"
           style="fill:#a3834a;fill-opacity:1;fill-rule:nonzero;stroke:none"
           d="m 84,64 h -4 v 16 h 4 z" /><path
           id="path72"
           style="fill:#a3834a;fill-opacity:1;fill-rule:nonzero;stroke:none"
           d="m 92,64 h -4 v 16 h 4 z" /><path
           id="path74"
           style="fill:#a3834a;fill-opacity:1;fill-rule:nonzero;stroke:none"
           d="m 100,64 h -4 v 16 h 4 z" /><path
           id="path76"
           style="fill:#a3834a;fill-opacity:1;fill-rule:nonzero;stroke:none"
           d="m 108,64 h -4 v 16 h 4 z" /><path
           id="path78"
           style="fill:#a3834a;fill-opacity:1;fill-rule:nonzero;stroke:none"
           d="m 116,64 h -4 v 16 h 4 z" /><path
           id="path80"
           style="fill:#a3834a;fill-opacity:1;fill-rule:nonzero;stroke:none"
           d="m 124,64 h -4 v 16 h 4 z" /><path
           id="path82"
           style="fill:#a3834a;fill-opacity:1;fill-rule:nonzero;stroke:none"
           d="m 132,64 h -4 v 16 h 4 z" /><path
           id="path84"
           style="fill:#a3834a;fill-opacity:1;fill-rule:nonzero;stroke:none"
           d="m 140,64 h -4 v 16 h 4 z" /><path
           id="path86"
           style="fill:#a3834a;fill-opacity:1;fill-rule:nonzero;stroke:none"
           d="m 148,64 h -4 v 16 h 4 z" /><path
           id="path88"
           style="fill:#a3834a;fill-opacity:1;fill-rule:nonzero;stroke:none"
           d="m 156,64 h -4 v 16 h 4 z" /><path
           id="path90"
           style="fill:#a3834a;fill-opacity:1;fill-rule:nonzero;stroke:none"
           d="m 164,64 h -4 v 16 h 4 z" /><path
           id="path92"
           style="fill:#a3834a;fill-opacity:1;fill-rule:nonzero;stroke:none"
           d="m 172,64 h -4 v 16 h 4 z" /><path
           id="path94"
           style="fill:#a3834a;fill-opacity:1;fill-rule:nonzero;stroke:none"
           d="m 180,64 h -4 v 16 h 4 z" /><path
           id="path96"
           style="fill:#a3834a;fill-opacity:1;fill-rule:nonzero;stroke:none"
           d="m 176,180 h 16.221 v -4 H 176 Z" /><path
           id="path98"
           style="fill:#a3834a;fill-opacity:1;fill-rule:nonzero;stroke:none"
           d="m 176,172 h 16.221 v -4 H 176 Z" /><path
           id="path100"
           style="fill:#a3834a;fill-opacity:1;fill-rule:nonzero;stroke:none"
           d="m 176,164 h 16.221 v -4 H 176 Z" /><path
           id="path102"
           style="fill:#a3834a;fill-opacity:1;fill-rule:nonzero;stroke:none"
           d="m 176,156 h 16.221 v -4 H 176 Z" /><path
           id="path104"
           style="fill:#a3834a;fill-opacity:1;fill-rule:nonzero;stroke:none"
           d="m 176,148 h 16.221 v -4 H 176 Z" /><path
           id="path106"
           style="fill:#a3834a;fill-opacity:1;fill-rule:nonzero;stroke:none"
           d="m 176,140 h 16.221 v -4 H 176 Z" /><path
           id="path108"
           style="fill:#a3834a;fill-opacity:1;fill-rule:nonzero;stroke:none"
           d="m 176,132 h 16.221 v -4 H 176 Z" /><path
           id="path110"
           style="fill:#a3834a;fill-opacity:1;fill-rule:nonzero;stroke:none"
           d="m 176,124 h 16.221 v -4 H 176 Z" /><path
           id="path112"
           style="fill:#a3834a;fill-opacity:1;fill-rule:nonzero;stroke:none"
           d="m 176,116 h 16.221 v -4 H 176 Z" /><path
           id="path114"
           style="fill:#a3834a;fill-opacity:1;fill-rule:nonzero;stroke:none"
           d="m 176,108 h 16.221 v -4 H 176 Z" /><path
           id="path116"
           style="fill:#a3834a;fill-opacity:1;fill-rule:nonzero;stroke:none"
           d="m 176,100 h 16.221 V 96 H 176 Z" /><path
           id="path118"
           style="fill:#a3834a;fill-opacity:1;fill-rule:nonzero;stroke:none"
           d="m 176,92 h 16.221 V 88 H 176 Z" /><path
           id="path120"
           style="fill:#a3834a;fill-opacity:1;fill-rule:nonzero;stroke:none"
           d="m 176,84 h 16.221 V 80 H 176 Z" /><path
           id="path122"
           style="fill:#a3834a;fill-opacity:1;fill-rule:nonzero;stroke:none"
           d="m 176,76 h 16.221 V 72 H 176 Z" /><path
           id="path124"
           style="fill:#a3834a;fill-opacity:1;fill-rule:nonzero;stroke:none"
           d="M 63.779,184 H 80 v -4 H 63.779 Z" /><path
           id="path126"
           style="fill:#a3834a;fill-opacity:1;fill-rule:nonzero;stroke:none"
           d="M 63.779,176 H 80 v -4 H 63.779 Z" /><path
           id="path128"
           style="fill:#a3834a;fill-opacity:1;fill-rule:nonzero;stroke:none"
           d="M 63.779,168 H 80 v -4 H 63.779 Z" /><path
           id="path130"
           style="fill:#a3834a;fill-opacity:1;fill-rule:nonzero;stroke:none"
           d="M 63.779,160 H 80 v -4 H 63.779 Z" /><path
           id="path132"
           style="fill:#a3834a;fill-opacity:1;fill-rule:nonzero;stroke:none"
           d="M 63.779,152 H 80 v -4 H 63.779 Z" /><path
           id="path134"
           style="fill:#a3834a;fill-opacity:1;fill-rule:nonzero;stroke:none"
           d="M 63.779,144 H 80 v -4 H 63.779 Z" /><path
           id="path136"
           style="fill:#a3834a;fill-opacity:1;fill-rule:nonzero;stroke:none"
           d="M 63.779,136 H 80 v -4 H 63.779 Z" /><path
           id="path138"
           style="fill:#a3834a;fill-opacity:1;fill-rule:nonzero;stroke:none"
           d="M 63.779,128 H 80 v -4 H 63.779 Z" /><path
           id="path140"
           style="fill:#a3834a;fill-opacity:1;fill-rule:nonzero;stroke:none"
           d="M 63.779,120 H 80 v -4 H 63.779 Z" /><path
           id="path142"
           style="fill:#a3834a;fill-opacity:1;fill-rule:nonzero;stroke:none"
           d="M 63.779,112 H 80 v -4 H 63.779 Z" /><path
           id="path144"
           style="fill:#a3834a;fill-opacity:1;fill-rule:nonzero;stroke:none"
           d="M 63.779,104 H 80 v -4 H 63.779 Z" /><path
           id="path146"
           style="fill:#a3834a;fill-opacity:1;fill-rule:nonzero;stroke:none"
           d="M 63.779,96 H 80 V 92 H 63.779 Z" /><path
           id="path148"
           style="fill:#a3834a;fill-opacity:1;fill-rule:nonzero;stroke:none"
           d="M 63.779,88 H 80 V 84 H 63.779 Z" /><path
           id="path150"
           style="fill:#a3834a;fill-opacity:1;fill-rule:nonzero;stroke:none"
           d="M 63.779,80 H 80 V 76 H 63.779 Z" /><path
           id="path152"
           style="fill:#262626;fill-opacity:1;fill-rule:nonzero;stroke:none"
           d="M 184,72 H 72 v 112 h 112 z" /><g
           transform="translate(142,108)"
           id="g154"><path
             id="path156"
             style="fill:#404040;fill-opacity:1;fill-rule:nonzero;stroke:none"
             d="m 0,0 h -28 c -3.313,0 -6,2.687 -6,6 v 28 c 0,3.313 2.687,6 6,6 H 0 c 3.313,0 6,-2.687 6,-6 V 6 C 6,2.687 3.313,0 0,0" /></g><g
           transform="translate(136,148)"
           id="g158"><path
             id="path160"
             style="fill:#595959;fill-opacity:1;fill-rule:nonzero;stroke:none"
             d="m 0,0 h -16 c -6.627,0 -12,-5.373 -12,-12 v -16 c 0,-6.627 5.373,-12 12,-12 H 0 c 6.627,0 12,5.373 12,12 v 16 C 12,-5.373 6.627,0 0,0 m 0,-4 c 4.411,0 8,-3.589 8,-8 v -16 c 0,-4.411 -3.589,-8 -8,-8 h -16 c -4.411,0 -8,3.589 -8,8 v 16 c 0,4.411 3.589,8 8,8 H 0" /></g><path
           id="path162"
           style="fill:#191919;fill-opacity:1;fill-rule:nonzero;stroke:none"
           d="M 167.98,72 H 88 v 24 h 79.98 z" /><g
           transform="translate(99.5938,87.6172)"
           id="g164"><path
             id="path166"
             style="fill:#404040;fill-opacity:1;fill-rule:nonzero;stroke:none"
             d="M 0,0 H 1.054 V -7.972 H 0.743 C 0.333,-7.972 0,-7.711 0,-7.39 Z" /></g><g
           transform="translate(102.7583,80.4717)"
           id="g168"><path
             id="path170"
             style="fill:#404040;fill-opacity:1;fill-rule:nonzero;stroke:none"
             d="M 0,0 H 0.497 C 0.804,0 1.054,0.195 1.054,0.437 V 2.31 c 0,0.241 -0.25,0.436 -0.557,0.436 H 0 Z m 0,3.572 h 0.497 c 0.307,0 0.557,0.197 0.557,0.438 v 1.873 c 0,0.241 -0.25,0.436 -0.557,0.436 H 0 Z M -1.054,7.146 H 1.054 C 1.348,7.146 1.597,7.065 1.801,6.905 2.005,6.745 2.107,6.55 2.107,6.319 V 3.796 C 2.107,3.603 2.062,3.463 1.972,3.377 1.881,3.291 1.77,3.219 1.637,3.159 1.77,3.122 1.881,3.052 1.972,2.947 2.062,2.843 2.107,2.668 2.107,2.423 V 0 c 0,-0.231 -0.102,-0.427 -0.306,-0.587 -0.204,-0.16 -0.453,-0.239 -0.747,-0.239 h -2.108 z" /></g><g
           transform="translate(106.2695,87.585)"
           id="g172"><path
             id="path174"
             style="fill:#404040;fill-opacity:1;fill-rule:nonzero;stroke:none"
             d="m 0,0 h 8.509 c 0.265,0 0.487,-0.14 0.664,-0.419 l 1.396,-2.302 0.067,-0.209 -0.067,-0.209 -2.06,-1.883 2.127,-2.929 H 7.445 l -2.778,3.61 c -0.123,0.16 0.024,0.365 0.263,0.365 h 1.053 c 0.177,0 0.31,0.035 0.398,0.105 l 1.064,0.941 -0.531,1.046 c -0.089,0.14 -0.222,0.21 -0.399,0.21 H 3.191 V -7.951 H 0 Z" /></g><g
           transform="translate(138.7666,87.585)"
           id="g176"><path
             id="path178"
             style="fill:#404040;fill-opacity:1;fill-rule:nonzero;stroke:none"
             d="m 0,0 h 8.509 c 0.265,0 0.487,-0.14 0.664,-0.419 l 1.396,-2.302 0.067,-0.209 -0.067,-0.209 -2.06,-1.883 2.127,-2.929 H 7.444 l -2.777,3.61 c -0.123,0.16 0.024,0.365 0.263,0.365 h 1.052 c 0.177,0 0.311,0.035 0.399,0.105 l 1.063,0.941 -0.531,1.046 c -0.089,0.14 -0.222,0.21 -0.399,0.21 H 3.19 V -7.951 H 0 Z" /></g><g
           transform="translate(154.9307,81.2266)"
           id="g180"><path
             id="path182"
             style="fill:#404040;fill-opacity:1;fill-rule:nonzero;stroke:none"
             d="m 0,0 c -1.672,0 -3.026,1.063 -3.026,2.374 0,1.312 1.354,2.374 3.026,2.374 1.672,0 3.026,-1.062 3.026,-2.374 C 3.026,1.063 1.672,0 0,0 m 3.102,6.358 h -6.204 c -1.087,0 -1.977,-0.698 -1.977,-1.55 v -4.867 c 0,-0.852 0.89,-1.55 1.977,-1.55 h 6.204 c 1.087,0 1.967,0.698 1.967,1.55 v 4.867 c 0,0.852 -0.88,1.55 -1.967,1.55" /></g><g
           transform="translate(99.1602,79.6523)"
           id="g184"><path
             id="path186"
             style="fill:#404040;fill-opacity:1;fill-rule:nonzero;stroke:none"
             d="m 0,0 c -0.012,0.224 -0.118,0.417 -0.319,0.579 -0.19,0.161 -0.435,0.24 -0.734,0.24 H -1.054 -1.062 -2.107 V 7.965 H -3.16 V -0.007 H 0 L -0.009,0 Z" /></g><g
           transform="translate(120.6821,82.7725)"
           id="g188"><path
             id="path190"
             style="fill:#404040;fill-opacity:1;fill-rule:nonzero;stroke:none"
             d="M 0,0 H 6.381 V 1.674 H 0 l 0.665,1.255 c 0.088,0.139 0.221,0.21 0.398,0.21 h 6.382 v 1.673 h -8.509 c -0.266,0 -0.443,-0.07 -0.532,-0.208 L -3.058,2.511 C -3.146,2.371 -3.191,2.231 -3.191,2.092 V -3.139 H 7.445 v 1.674 H 0 Z" /></g><g
           transform="translate(138.2764,87.585)"
           id="g192"><path
             id="path194"
             style="fill:#404040;fill-opacity:1;fill-rule:nonzero;stroke:none"
             d="m 0,0 v 0 h -3.234 -3.191 -3.15 v -1.674 h 3.15 v -6.294 h 3.191 v 6.294 h 3.15 V 0 Z" /></g><g
           transform="translate(134.5225,127.4614)"
           id="g196"><path
             id="path198"
             style="fill:#191919;fill-opacity:1;fill-rule:nonzero;stroke:none"
             d="M 0,0 -0.465,4.172 2.252,2.16 Z m -6.786,-0.028 c -1.444,0 -2.574,0.999 -2.523,2.188 0.049,1.143 1.179,2.037 2.523,2.037 1.347,0 2.474,-0.894 2.524,-2.037 0.051,-1.189 -1.078,-2.188 -2.524,-2.188 m 0,-6.483 -2.747,2.636 h 5.496 z m 0,15.365 2.28,-1.688 H -9.065 Z M -13.571,0 l -2.251,2.16 2.716,2.012 z M -2.743,5.54 -3.1,10.431 h -4.599 c -1.531,0 -2.838,-0.908 -2.923,-2.073 L -10.828,5.54 h -6.809 l -0.839,-4.283 c -0.309,-1.576 0.966,-2.917 2.864,-2.917 h 4.258 l -0.562,-7.694 h 6.402 c 2.131,0 3.736,1.687 3.592,3.657 L -2.217,-1.66 H 5.478 L 4.557,3.036 C 4.28,4.446 2.705,5.54 1.025,5.54 Z" /></g></g></g></g></svg>