<?xml version="1.0" encoding="UTF-8" standalone="no"?>
<svg
   xmlns:dc="http://purl.org/dc/elements/1.1/"
   xmlns:cc="http://creativecommons.org/ns#"
   xmlns:rdf="http://www.w3.org/1999/02/22-rdf-syntax-ns#"
   xmlns:svg="http://www.w3.org/2000/svg"
   xmlns="http://www.w3.org/2000/svg"
   viewBox="0 0 330.66665 330.66665"
   height="330.66666"
   width="330.66666"
   xml:space="preserve"
   id="svg2"
   version="1.1"><metadata
     id="metadata8"><rdf:RDF><cc:Work
         rdf:about=""><dc:format>image/svg+xml</dc:format><dc:type
           rdf:resource="http://purl.org/dc/dcmitype/StillImage" /></cc:Work></rdf:RDF></metadata><defs
     id="defs6"><clipPath
       id="clipPath18"
       clipPathUnits="userSpaceOnUse"><path
         id="path16"
         d="M 0,256 H 256 V 0 H 0 Z" /></clipPath><clipPath
       id="clipPath26"
       clipPathUnits="userSpaceOnUse"><path
         id="path24"
         d="M 4,252 H 252 V 4 H 4 Z" /></clipPath></defs><g
     transform="matrix(1.3333333,0,0,-1.3333333,-5.3333332,335.99999)"
     id="g10"><g
       id="g12"><g
         clip-path="url(#clipPath18)"
         id="g14"><g
           id="g20"><g
             id="g22" /><g
             id="g34"><g
               style="opacity:0.5"
               id="g32"
               clip-path="url(#clipPath26)"><g
                 id="g30"
                 transform="translate(224,252)"><path
                   id="path28"
                   style="fill:#ffffff;fill-opacity:1;fill-rule:nonzero;stroke:none"
                   d="m 0,0 h -192 c -15.439,0 -28,-12.561 -28,-28 v -192 c 0,-15.439 12.561,-28 28,-28 H 0 c 15.439,0 28,12.561 28,28 V -28 C 28,-12.561 15.439,0 0,0" /></g></g></g></g><g
           transform="translate(224,12)"
           id="g36"><path
             id="path38"
             style="fill:#2c3e50;fill-opacity:1;fill-rule:nonzero;stroke:none"
             d="m 0,0 h -192 c -11.046,0 -20,8.954 -20,20 v 192 c 0,11.046 8.954,20 20,20 H 0 c 11.046,0 20,-8.954 20,-20 V 20 C 20,8.954 11.046,0 0,0" /></g><g
           transform="translate(18.3662,114)"
           id="g40"><path
             id="path42"
             style="fill:#9bc2dd;fill-opacity:1;fill-rule:nonzero;stroke:none"
             d="m 0,0 c -3.611,-2.73 20.387,-20.826 31.947,-32 12.439,-15.742 24.204,-31.08 31.947,-44 5.215,-1.475 31.175,3.803 39.933,0 16.308,-0.777 35.588,-0.563 43.927,-4 9.513,9.646 10.701,10.979 19.967,20 18.154,17.675 42.721,40.475 51.913,52 -2.249,3.398 -1.088,3.149 -3.993,8 C 203.66,20 192.809,46.374 182.77,66.18 179.623,72.389 175.399,76.884 171.714,80 L 79.867,108 C 72.366,105.612 57.21,90.451 47.92,72 42.118,60.476 34.212,51.949 23.96,40 12.367,26.489 7.162,13.976 0,0" /></g><g
           transform="translate(49.6992,150.1631)"
           id="g44"><path
             id="path46"
             style="fill:#ecf0f1;fill-opacity:1;fill-rule:nonzero;stroke:none"
             d="M 0,0 C 7.254,-30.938 11.133,-51.504 6.783,-52.325" /></g><g
           transform="translate(56.4805,96)"
           id="g48"><path
             id="path50"
             style="fill:#ecf0f1;fill-opacity:1;fill-rule:nonzero;stroke:none"
             d="m 0,0 c -0.811,0 -1.528,0.628 -1.672,1.521 -0.161,1 0.457,1.952 1.381,2.127 2.883,3.06 -5.412,38.438 -8.137,50.063 -0.231,0.984 0.32,1.983 1.23,2.233 0.902,0.247 1.834,-0.345 2.064,-1.33 C 3.036,19.767 5.029,5.905 2.48,1.651 1.805,0.522 0.918,0.146 0.293,0.027 0.195,0.009 0.097,0 0,0" /></g><g
           transform="translate(100.9238,131.1445)"
           id="g52"><path
             id="path54"
             style="fill:#4eb96f;fill-opacity:1;fill-rule:nonzero;stroke:none"
             d="m 0,0 c -6.201,0.044 -4.44,-8.448 -6.434,-12.466 -9.35,-18.838 9.679,-30.766 23.263,-39.889 3.27,-2.197 9.548,-0.572 13.363,-2.494 5.568,-2.803 21.341,15.131 22.769,19.447 8.489,25.657 -10.821,19.309 -18.314,34.405 -1.793,3.615 -2.315,19.429 -0.99,23.435 1.471,4.444 6.435,3.868 6.435,9.973 0,5.422 -4.201,15.33 -9.405,17.95 -5.209,2.624 -12.106,2.493 -18.313,2.493 -21.333,0 6.634,-31.309 2.97,-42.383 C 12.783,2.732 5.436,4.381 0,0" /></g><g
           transform="translate(144.6699,119.335)"
           id="g56"><path
             id="path58"
             style="fill:#ecf0f1;fill-opacity:1;fill-rule:nonzero;stroke:none"
             d="m 0,0 c -1.704,4.893 -6.019,4.881 -6.019,10.932 0,3.437 -4.226,9.447 -2.006,14.056 C 5.318,52.687 33.591,24.437 26.082,8.85 19.994,-3.786 0,-6.334 0,0" /></g><g
           transform="translate(91.4336,128.252)"
           id="g60"><path
             id="path62"
             style="fill:#ecf0f1;fill-opacity:1;fill-rule:nonzero;stroke:none"
             d="M 0,0 C -10.042,-2.522 -19.71,14.5 -15.141,23.625 -12.506,28.889 3.778,37.488 9.936,35.438 22.427,31.28 30.587,12.202 15.614,4.725 10.887,2.365 5.203,2.079 0,0" /></g><g
           transform="translate(75.7412,73.6533)"
           id="g64"><path
             id="path66"
             style="fill:#4eb96f;fill-opacity:1;fill-rule:nonzero;stroke:none"
             d="m 0,0 c -3.558,1.945 -15.438,38.347 -10.599,38.347 5.393,0 9.204,-17.956 15.141,-20.963 3.852,-1.951 10.792,16.518 13.122,15.339 1.238,-0.627 1.514,-5.316 1.514,-6.647 0,-7.926 7.846,-22.96 4.037,-30.678 C 18.92,-13.305 0,-10.11 0,0" /></g><g
           transform="translate(159.083,68.1797)"
           id="g68"><path
             id="path70"
             style="fill:#4eb96f;fill-opacity:1;fill-rule:nonzero;stroke:none"
             d="m 0,0 c -19.396,1.291 6.935,47.82 9.305,47.82 0.855,0 2.827,-17.505 5.686,-25.945 1.069,-3.156 19.913,8.007 24.812,5.596 C 46.289,24.279 22.44,10.923 20.16,10.175 16.859,9.092 -2.689,-13.233 0,0" /></g><g
           transform="translate(139.5371,144)"
           id="g72"><path
             id="path74"
             style="fill:#2c3e50;fill-opacity:1;fill-rule:nonzero;stroke:none"
             d="m 0,0 c -0.186,0 -0.361,0.114 -0.432,0.301 -3.149,8.333 -8.051,16.59 -13.727,26.15 -6.724,11.325 -14.346,24.162 -21.341,40.9 -0.1,0.237 0.01,0.512 0.246,0.613 0.234,0.098 0.505,-0.01 0.606,-0.25 6.969,-16.675 14.573,-29.483 21.28,-40.782 C -7.669,17.335 -2.746,9.045 0.432,0.635 0.523,0.394 0.404,0.124 0.164,0.031 0.11,0.01 0.055,0 0,0" /></g><g
           transform="translate(211.5352,112)"
           id="g76"><path
             id="path78"
             style="fill:#2c3e50;fill-opacity:1;fill-rule:nonzero;stroke:none"
             d="m 0,0 c -0.104,0 -0.209,0.033 -0.297,0.103 -4.183,3.356 -11.81,5.984 -21.471,9.31 -7.647,2.636 -16.316,5.622 -25.496,9.723 -0.232,0.105 -0.336,0.374 -0.229,0.601 0.107,0.226 0.384,0.325 0.618,0.222 9.14,-4.084 17.789,-7.063 25.418,-9.691 C -11.712,6.911 -4.015,4.259 0.296,0.804 0.494,0.645 0.521,0.357 0.359,0.165 0.267,0.057 0.134,0 0,0" /></g><g
           transform="translate(94.2925,53.7207)"
           id="g80"><path
             id="path82"
             style="fill:#2c3e50;fill-opacity:1;fill-rule:nonzero;stroke:none"
             d="m 0,0 c -0.061,0 -0.123,0.012 -0.183,0.037 -0.242,0.103 -0.356,0.38 -0.254,0.621 3.036,7.245 10.208,16.351 18.514,26.895 9.064,11.508 19.339,24.553 25.424,37.129 0.115,0.237 0.396,0.337 0.633,0.218 0.236,-0.113 0.333,-0.396 0.218,-0.633 C 38.222,51.599 27.915,38.512 18.819,26.965 10.902,16.912 3.422,7.416 0.437,0.291 0.361,0.109 0.185,0 0,0" /></g><g
           transform="translate(95.4141,163.0962)"
           id="g84"><path
             id="path86"
             style="fill:#2c3e50;fill-opacity:1;fill-rule:nonzero;stroke:none"
             d="m 0,0 c -9.823,0 -18.578,-6.127 -21.416,-13.146 -1.523,-3.771 -3.399,-13.306 12.059,-20.379 2.649,-1.213 5.211,-0.535 7.924,0.184 1.652,0.437 3.358,0.889 5.102,0.889 0.029,0 0.056,0 0.084,0 0.665,0.243 1.335,0.479 2.004,0.714 5.364,1.887 10.432,3.67 13.305,8.93 0.807,1.475 0.679,5.647 -0.31,10.145 -1.008,4.584 -2.593,8.08 -3.942,8.697 -3.581,1.637 -6.54,2.679 -9.594,3.378 C 3.461,-0.186 1.714,0 0,0 m -6.226,-35.096 c -1.172,0 -2.362,0.205 -3.574,0.76 -11.222,5.135 -15.911,13.174 -12.544,21.503 3.482,8.614 15.49,15.938 27.8,13.125 3.127,-0.715 6.148,-1.778 9.796,-3.447 2.497,-1.142 4.053,-7.429 4.47,-9.329 0.806,-3.666 1.349,-8.675 0.226,-10.73 -3.045,-5.574 -8.531,-7.504 -13.835,-9.37 -0.696,-0.246 -1.393,-0.49 -2.084,-0.743 l -0.093,-0.035 -0.101,0.002 c -1.673,0.037 -3.354,-0.418 -4.993,-0.851 -1.654,-0.439 -3.341,-0.885 -5.068,-0.885" /></g><g
           transform="translate(188.8203,180.9707)"
           id="g88"><path
             id="path90"
             style="fill:#ecf0f1;fill-opacity:1;fill-rule:nonzero;stroke:none"
             d="M 0,0 C -4.596,-2.162 -9.321,-4.083 -13.929,-5.954 -18.913,-7.977 -23.784,-9.96 -28.424,-12.183 -19.199,-7.362 -9.743,-2.854 0,0 M 6.963,1.315 C 6.663,1.896 6.114,2.259 5.516,2.345 5.642,2.691 5.673,3.076 5.581,3.461 5.334,4.507 4.293,5.145 3.249,4.903 3.179,4.886 3.108,4.865 3.038,4.848 3.06,5.029 3.065,5.214 3.034,5.402 2.856,6.463 1.853,7.185 0.806,7 -9.627,5.243 -18.812,0.168 -27.695,-4.74 c -7.531,-4.159 -15.316,-8.461 -23.659,-10.559 -1.037,-0.261 -1.667,-1.317 -1.407,-2.36 0.219,-0.883 1.007,-1.473 1.874,-1.473 0.156,0 0.314,0.018 0.471,0.058 0.522,0.131 1.032,0.294 1.549,0.44 -0.964,-0.497 -1.926,-0.991 -2.883,-1.472 -0.956,-0.481 -1.344,-1.649 -0.865,-2.611 0.34,-0.682 1.022,-1.075 1.732,-1.075 0.291,0 0.586,0.065 0.863,0.205 4.374,2.198 8.814,4.584 13.109,6.89 0.329,0.176 0.66,0.354 0.989,0.53 -4.225,-2.516 -8.166,-5.413 -11.697,-8.964 -0.756,-0.761 -0.756,-1.992 0,-2.752 0.378,-0.38 0.873,-0.57 1.368,-0.57 0.495,0 0.99,0.19 1.368,0.57 0.457,0.46 0.927,0.903 1.401,1.341 -0.164,-0.644 -0.003,-1.354 0.498,-1.858 0.378,-0.381 0.873,-0.571 1.368,-0.571 0.495,0 0.99,0.19 1.368,0.571 6.68,6.717 17.005,11.091 26.989,15.321 5.927,2.511 12.057,5.108 17.405,8.185 0.927,0.534 1.25,1.723 0.719,2.656 -0.047,0.081 -0.104,0.152 -0.16,0.224 0.476,0.239 0.958,0.46 1.43,0.706 0.948,0.495 1.319,1.668 0.828,2.623" /></g><g
           transform="translate(144.5752,121.668)"
           id="g92"><path
             id="path94"
             style="fill:#2c3e50;fill-opacity:1;fill-rule:nonzero;stroke:none"
             d="m 0,0 c -6.353,1.866 -10.345,8.636 -10.171,17.247 0.147,7.327 3.732,16.07 11.259,17.955 L 1.317,34.281 C -5.727,32.518 -9.085,24.205 -9.226,17.228 -9.35,11.023 -6.938,3.026 0.267,0.912 Z" /></g><g
           transform="translate(163.8477,124)"
           id="g96"><path
             id="path98"
             style="fill:#2c3e50;fill-opacity:1;fill-rule:nonzero;stroke:none"
             d="m 0,0 v 0.889 c 2.702,0 4.714,1.269 5.983,3.772 2.384,4.701 1.648,13.416 -1.677,19.841 -2.207,4.265 -5.077,6.609 -8.089,6.609 H -3.842 L -3.848,32 h 0.065 C -0.481,32 2.63,29.5 4.984,24.951 8.437,18.276 9.176,9.17 6.665,4.218 5.267,1.458 2.961,0 0,0" /></g><g
           transform="translate(153.3955,139.7236)"
           id="g100"><path
             id="path102"
             style="fill:#2c3e50;fill-opacity:1;fill-rule:nonzero;stroke:none"
             d="M 0,0 C 0.24,-0.04 0.525,0.252 0.852,0.838 1.427,1.876 1.456,2.862 1.313,3 0.484,2.998 -0.931,2.002 -1.079,1.143 -1.16,0.676 -0.796,0.292 0,0 m 0.021,-0.949 c -0.104,0 -0.193,0.014 -0.265,0.032 l -0.045,0.013 c -1.726,0.618 -1.82,1.649 -1.724,2.209 0.237,1.36 2.063,2.642 3.308,2.642 0.396,0 0.722,-0.208 0.893,-0.571 C 2.607,2.487 2.039,0.708 1.271,-0.23 0.794,-0.813 0.341,-0.949 0.021,-0.949" /></g><g
           transform="translate(64.6465,120)"
           id="g104"><path
             id="path106"
             style="fill:#2c3e50;fill-opacity:1;fill-rule:nonzero;stroke:none"
             d="m 0,0 c -0.137,0 -0.273,0.064 -0.362,0.187 -4.404,6.122 -5.472,16.068 -2.929,27.293 3.328,14.688 12.019,28.264 21.134,33.013 2.346,1.222 5.046,1.619 7.657,2.004 2.524,0.372 5.135,0.757 7.324,1.898 0.498,0.259 0.995,0.531 1.493,0.803 2.631,1.439 5.366,2.927 8.601,2.794 0.25,-0.012 0.445,-0.23 0.435,-0.49 -0.01,-0.26 -0.21,-0.48 -0.47,-0.453 -2.999,0.15 -5.619,-1.303 -8.145,-2.686 -0.504,-0.275 -1.006,-0.55 -1.509,-0.812 C 30.908,62.343 28.223,61.947 25.626,61.564 23.087,61.189 20.462,60.803 18.248,59.649 9.355,55.017 0.86,41.699 -2.41,27.264 -4.892,16.311 -3.881,6.648 0.362,0.755 0.512,0.545 0.471,0.25 0.271,0.094 0.19,0.031 0.095,0 0,0" /></g><g
           transform="translate(59.6157,100)"
           id="g108"><path
             id="path110"
             style="fill:#2c3e50;fill-opacity:1;fill-rule:nonzero;stroke:none"
             d="m 0,0 c -0.212,0 -0.384,0.199 -0.384,0.444 0,10.779 -2.358,23.522 -7.208,38.96 -0.073,0.231 0.03,0.486 0.229,0.569 0.201,0.084 0.421,-0.035 0.493,-0.265 C -1.989,24.171 0.384,11.328 0.384,0.444 0.384,0.199 0.212,0 0,0" /></g><g
           transform="translate(88.3735,66.6504)"
           id="g112"><path
             id="path114"
             style="fill:#2c3e50;fill-opacity:1;fill-rule:nonzero;stroke:none"
             d="m 0,0 c -0.262,0 -0.474,0.213 -0.474,0.475 0,0.26 0.212,0.473 0.474,0.473 3.543,0 5.984,0.935 7.461,2.855 C 10.923,8.301 8.532,17.394 6.22,26.188 4.798,31.595 3.443,36.747 3.59,40.506 2.818,39.418 2.065,38.3 1.328,37.21 -1.567,32.922 -4.561,28.484 -8.982,25.097 -9.097,25.01 -9.246,24.978 -9.385,25.013 c -3.915,0.98 -6.088,5.525 -8.19,9.92 -1.572,3.286 -3.194,6.679 -5.491,8.449 -4.181,-6.232 -0.728,-17.932 10.271,-34.792 0.143,-0.219 0.082,-0.513 -0.138,-0.655 -0.215,-0.149 -0.51,-0.084 -0.656,0.136 -11.466,17.577 -14.819,29.777 -9.966,36.26 0.153,0.198 0.437,0.246 0.642,0.109 2.713,-1.822 4.482,-5.521 6.193,-9.098 1.965,-4.109 3.994,-8.354 7.347,-9.349 4.199,3.278 7.104,7.582 9.917,11.749 1.078,1.596 2.192,3.249 3.355,4.802 0.135,0.178 0.375,0.239 0.578,0.144 C 4.679,42.596 4.79,42.374 4.741,42.155 3.941,38.578 5.493,32.677 7.136,26.429 9.507,17.414 11.958,8.092 8.211,3.223 6.565,1.084 3.803,0 0,0" /></g><g
           transform="translate(69.4761,87.7217)"
           id="g116"><path
             id="path118"
             style="fill:#2c3e50;fill-opacity:1;fill-rule:nonzero;stroke:none"
             d="M 0,0 C -0.064,0 -0.131,0.013 -0.194,0.042 -0.433,0.147 -0.539,0.43 -0.432,0.669 0.967,3.786 3.728,5.371 6.206,6.612 6.437,6.726 6.723,6.635 6.842,6.401 6.958,6.166 6.864,5.88 6.63,5.764 4.191,4.542 1.704,3.111 0.432,0.279 0.354,0.104 0.181,0 0,0" /></g><g
           transform="translate(93.7217,94.8643)"
           id="g120"><path
             id="path122"
             style="fill:#2c3e50;fill-opacity:1;fill-rule:nonzero;stroke:none"
             d="m 0,0 c -0.038,0 -0.076,0.004 -0.115,0.015 -1.589,0.396 -3.448,0.374 -5.245,0.35 -0.598,-0.008 -1.189,-0.018 -1.777,-0.01 -0.261,0.004 -0.47,0.219 -0.468,0.481 0.003,0.26 0.215,0.469 0.474,0.469 0.117,-0.002 0.315,-0.002 0.475,-0.002 0.424,0 0.853,0.006 1.283,0.011 1.857,0.024 3.781,0.048 5.488,-0.38 C 0.368,0.871 0.522,0.613 0.46,0.359 0.406,0.145 0.213,0 0,0" /></g><g
           transform="translate(121.6724,68.6387)"
           id="g124"><path
             id="path126"
             style="fill:#2c3e50;fill-opacity:1;fill-rule:nonzero;stroke:none"
             d="m 0,0 c -2.354,0 -4.537,0.194 -6.288,0.518 -0.256,0.047 -0.427,0.294 -0.379,0.553 0.046,0.258 0.293,0.436 0.552,0.38 7.821,-1.445 22.791,-0.057 24.77,7.864 0.062,0.252 0.314,0.417 0.573,0.345 C 19.482,9.597 19.637,9.34 19.573,9.085 17.859,2.211 7.955,0 0,0" /></g><g
           transform="translate(115.4712,103.792)"
           id="g128"><path
             id="path130"
             style="fill:#2c3e50;fill-opacity:1;fill-rule:nonzero;stroke:none"
             d="m 0,0 c -0.141,0 -0.281,0.062 -0.375,0.184 -0.16,0.207 -0.122,0.505 0.084,0.665 0.107,0.084 0.222,0.159 0.344,0.241 0.63,0.413 1.411,0.927 1.978,3.764 C 2.083,5.111 2.34,5.272 2.588,5.227 2.846,5.175 3.012,4.925 2.96,4.669 2.315,1.44 1.309,0.778 0.573,0.297 0.474,0.229 0.378,0.167 0.29,0.1 0.204,0.033 0.102,0 0,0" /></g><g
           transform="translate(136.8633,98.4355)"
           id="g132"><path
             id="path134"
             style="fill:#2c3e50;fill-opacity:1;fill-rule:nonzero;stroke:none"
             d="M 0,0 C -0.24,0 -0.446,0.182 -0.472,0.427 -0.627,1.95 0.029,2.843 0.664,3.707 1.09,4.285 1.491,4.832 1.682,5.588 1.745,5.84 1.998,6.007 2.256,5.933 2.509,5.87 2.664,5.612 2.6,5.358 2.364,4.419 1.867,3.742 1.429,3.144 0.851,2.359 0.354,1.681 0.472,0.522 0.498,0.262 0.309,0.029 0.048,0.002 0.031,0 0.015,0 0,0" /></g><g
           transform="translate(114.0454,110.5771)"
           id="g136"><path
             id="path138"
             style="fill:#2c3e50;fill-opacity:1;fill-rule:nonzero;stroke:none"
             d="M 0,0 C -0.213,0 -0.406,0.145 -0.46,0.359 -0.788,1.674 -0.891,3.27 -1,4.958 c -0.241,3.71 -0.489,7.547 -3.107,8.651 -0.24,0.102 -0.354,0.38 -0.252,0.621 0.101,0.242 0.376,0.36 0.62,0.254 3.158,-1.333 3.437,-5.653 3.684,-9.463 C 0.052,3.375 0.152,1.82 0.459,0.59 0.522,0.336 0.369,0.078 0.115,0.015 0.077,0.004 0.038,0 0,0" /></g><g
           transform="translate(126.1675,128.792)"
           id="g140"><path
             id="path142"
             style="fill:#2c3e50;fill-opacity:1;fill-rule:nonzero;stroke:none"
             d="m 0,0 c -0.262,0 -0.474,0.212 -0.474,0.475 0,10.442 -2.797,19.991 -5.504,29.227 -1.183,4.039 -2.406,8.215 -3.397,12.45 -0.06,0.255 0.099,0.51 0.353,0.57 0.257,0.065 0.511,-0.099 0.569,-0.353 0.985,-4.209 2.205,-8.373 3.385,-12.4 C -2.343,20.669 0.474,11.053 0.474,0.475 0.474,0.212 0.262,0 0,0" /></g><g
           transform="translate(143.4277,174.5566)"
           id="g144"><path
             id="path146"
             style="fill:#2c3e50;fill-opacity:1;fill-rule:nonzero;stroke:none"
             d="m 0,0 c -2.389,1.196 -4.424,3.499 -6.391,5.725 -1.8,2.038 -3.662,4.146 -5.757,5.36 l 0.473,0.821 C -9.443,10.615 -7.53,8.449 -5.68,6.354 -3.774,4.195 -1.802,1.963 0.422,0.849 Z" /></g><g
           transform="translate(161.5586,68.5254)"
           id="g148"><path
             id="path150"
             style="fill:#2c3e50;fill-opacity:1;fill-rule:nonzero;stroke:none"
             d="m 0,0 c -1.522,0 -2.97,0.436 -4.3,1.433 -0.209,0.158 -0.251,0.454 -0.094,0.666 0.158,0.209 0.457,0.246 0.665,0.094 6.127,-4.609 15.651,4.65 22.606,11.408 2.56,2.487 4.769,4.633 6.439,5.749 1.349,0.9 7.909,6.597 7.751,9.103 -0.022,0.361 -0.198,0.607 -0.568,0.792 h -0.02 c -0.485,0 -3.096,-1.162 -5.401,-2.19 C 19.695,23.763 13.359,21.146 10.749,22.46 9.542,23.063 9.01,27.545 8.201,38.032 7.912,41.779 7.589,45.974 7.248,47.217 5.3,45.299 -3.057,32.314 -5.729,26.958 -6.687,25.04 -6.796,22.712 -6.91,20.247 c -0.101,-2.178 -0.206,-4.43 -0.937,-6.452 -0.089,-0.246 -0.359,-0.374 -0.606,-0.285 -0.246,0.089 -0.374,0.361 -0.285,0.607 0.682,1.887 0.784,4.067 0.883,6.172 0.114,2.456 0.23,4.995 1.278,7.092 1.41,2.824 12.243,20.977 13.972,20.977 0.852,0 1.048,-1.148 1.75,-10.253 0.409,-5.289 1.091,-14.142 2.033,-14.8 2.427,-1.222 10.304,2.297 15.514,4.617 4.454,1.984 5.654,2.461 6.229,2.172 0.672,-0.336 1.049,-0.882 1.092,-1.581 C 34.218,25.23 26.556,19.036 25.842,18.561 24.243,17.492 22.062,15.374 19.536,12.92 13.75,7.295 6.243,0 0,0" /></g><g
           transform="translate(169.3096,95.2197)"
           id="g152"><path
             id="path154"
             style="fill:#2c3e50;fill-opacity:1;fill-rule:nonzero;stroke:none"
             d="m 0,0 c -0.083,0 -0.168,0.022 -0.244,0.069 -3.119,1.877 -6.273,3.456 -9.921,4.967 -0.242,0.102 -0.357,0.378 -0.257,0.621 0.102,0.244 0.379,0.354 0.619,0.257 C -6.111,4.384 -2.918,2.784 0.244,0.881 0.469,0.747 0.541,0.454 0.405,0.23 0.316,0.082 0.161,0 0,0" /></g><g
           transform="translate(181.0986,82.502)"
           id="g156"><path
             id="path158"
             style="fill:#2c3e50;fill-opacity:1;fill-rule:nonzero;stroke:none"
             d="m 0,0 c -1.651,1.653 -3.122,4.762 -3.348,7.076 l 0.944,0.093 C -2.2,5.078 -0.822,2.165 0.669,0.671 Z" /></g><g
           transform="translate(134.1094,136)"
           id="g160"><path
             id="path162"
             style="fill:#ecf0f1;fill-opacity:1;fill-rule:nonzero;stroke:none"
             d="m 0,0 c -0.784,0 -1.517,0.485 -1.786,1.254 -7.042,20.117 -16.268,42.25 -35.939,67.764 -0.63,0.818 -0.468,1.984 0.363,2.605 0.835,0.619 2.018,0.46 2.649,-0.357 C -14.721,45.334 -5.354,22.874 1.787,2.466 2.127,1.494 1.603,0.437 0.615,0.103 0.412,0.034 0.203,0 0,0" /></g><g
           transform="translate(162.127,40)"
           id="g164"><path
             id="path166"
             style="fill:#ecf0f1;fill-opacity:1;fill-rule:nonzero;stroke:none"
             d="M 0,0 C -0.121,0 -0.242,0.011 -0.364,0.035 -19.17,3.775 -43.538,4.507 -74.33,4.521 h -0.001 c -0.615,0 -1.191,0.305 -1.541,0.814 -1.776,2.58 -3.43,5.083 -5.083,7.587 -6.611,10.011 -13.448,20.363 -28.632,35.865 -0.727,0.743 -0.719,1.938 0.018,2.669 0.739,0.733 1.923,0.723 2.651,-0.018 15.438,-15.76 22.375,-26.266 29.085,-36.426 1.466,-2.219 2.933,-4.441 4.486,-6.715 C -42.792,8.293 -18.54,7.499 0.36,3.74 1.376,3.537 2.037,2.544 1.838,1.522 1.66,0.623 0.877,0 0,0" /></g><g
           transform="translate(201.4141,162.9844)"
           id="g168"><path
             id="path170"
             style="fill:#ecf0f1;fill-opacity:1;fill-rule:nonzero;stroke:none"
             d="m 0,0 c -3.377,-1.279 -6.821,-2.443 -10.19,-3.572 -3.132,-1.049 -6.208,-2.08 -9.183,-3.184 C -13.063,-4.103 -6.616,-1.668 0,0 M 6.45,1.136 C 6.227,1.584 5.775,1.86 5.285,1.913 5.348,2.119 5.365,2.339 5.314,2.563 5.144,3.3 4.363,3.767 3.571,3.612 3.471,3.592 3.371,3.569 3.27,3.548 3.278,3.648 3.277,3.75 3.261,3.854 3.141,4.6 2.375,5.112 1.591,5 -6.749,3.84 -14.108,0.485 -21.228,-2.761 c -6.054,-2.76 -12.314,-5.614 -19.038,-7.01 -0.792,-0.164 -1.29,-0.892 -1.112,-1.628 0.151,-0.635 0.76,-1.067 1.431,-1.067 0.107,0 0.214,0.012 0.323,0.034 0.21,0.044 0.415,0.101 0.625,0.147 -0.516,-0.217 -1.034,-0.447 -1.546,-0.659 -0.739,-0.308 -1.071,-1.114 -0.741,-1.802 0.244,-0.506 0.78,-0.808 1.341,-0.808 0.201,0 0.405,0.038 0.6,0.119 3.351,1.391 6.747,2.893 10.049,4.356 -2.833,-1.488 -5.49,-3.176 -7.907,-5.182 -0.604,-0.502 -0.656,-1.364 -0.116,-1.926 0.291,-0.301 0.692,-0.454 1.094,-0.454 0.35,0 0.701,0.114 0.98,0.346 0.445,0.37 0.9,0.728 1.364,1.076 -0.148,-0.443 -0.074,-0.94 0.282,-1.311 0.291,-0.301 0.693,-0.454 1.096,-0.454 0.349,0 0.699,0.114 0.979,0.346 5.373,4.46 13.673,7.363 21.701,10.17 4.753,1.662 9.668,3.381 13.956,5.416 0.721,0.343 1.007,1.164 0.638,1.835 -0.024,0.042 -0.055,0.078 -0.083,0.117 0.348,0.144 0.701,0.278 1.046,0.426 0.736,0.316 1.056,1.127 0.716,1.81" /></g><g
           transform="translate(207.3926,144.5269)"
           id="g172"><path
             id="path174"
             style="fill:#ecf0f1;fill-opacity:1;fill-rule:nonzero;stroke:none"
             d="M 0,0 C -2.177,-0.828 -4.392,-1.586 -6.561,-2.322 -8.527,-2.989 -10.456,-3.65 -12.332,-4.348 -8.312,-2.647 -4.209,-1.091 0,0 M 4.522,0.836 C 4.375,1.153 4.066,1.337 3.734,1.37 3.773,1.507 3.79,1.652 3.758,1.801 3.65,2.307 3.131,2.624 2.617,2.528 2.537,2.512 2.458,2.49 2.378,2.473 2.383,2.54 2.399,2.604 2.39,2.673 2.313,3.185 1.808,3.537 1.295,3.463 -4.264,2.682 -9.172,0.417 -13.919,-1.773 c -4.041,-1.865 -8.222,-3.793 -12.713,-4.736 -0.521,-0.11 -0.85,-0.608 -0.738,-1.112 0.098,-0.438 0.499,-0.737 0.941,-0.737 0.068,0 0.138,0.007 0.207,0.022 0.103,0.022 0.203,0.05 0.306,0.073 -0.298,-0.127 -0.597,-0.261 -0.895,-0.386 -0.49,-0.205 -0.713,-0.756 -0.501,-1.23 0.158,-0.352 0.511,-0.563 0.885,-0.563 0.128,0 0.259,0.025 0.384,0.077 2.233,0.938 4.466,1.937 6.708,2.943 -1.873,-0.999 -3.642,-2.12 -5.24,-3.463 -0.404,-0.339 -0.446,-0.929 -0.098,-1.319 0.192,-0.213 0.46,-0.323 0.73,-0.323 0.223,0 0.45,0.076 0.631,0.229 1.181,0.991 2.465,1.864 3.831,2.654 l 9.576,4.182 c 1.307,0.463 2.634,0.918 3.982,1.375 3.298,1.119 6.709,2.275 9.961,3.689 0.486,0.211 0.703,0.764 0.484,1.234" /></g><g
           transform="translate(210.8711,133.4956)"
           id="g176"><path
             id="path178"
             style="fill:#ecf0f1;fill-opacity:1;fill-rule:nonzero;stroke:none"
             d="M 0,0 C -1.437,-0.668 -2.905,-1.273 -4.342,-1.861 -5.758,-2.44 -7.143,-3.012 -8.479,-3.629 -5.721,-2.2 -2.899,-0.884 0,0 M 2.601,0.546 C 2.505,0.769 2.313,0.895 2.105,0.919 2.139,1.031 2.155,1.148 2.131,1.271 2.058,1.636 1.735,1.876 1.392,1.792 1.351,1.782 1.311,1.768 1.27,1.758 1.275,1.813 1.285,1.868 1.277,1.926 1.225,2.298 0.904,2.551 0.57,2.497 -2.904,1.907 -5.971,0.201 -8.935,-1.448 c -2.518,-1.403 -5.125,-2.853 -7.923,-3.56 -0.332,-0.085 -0.541,-0.451 -0.465,-0.819 0.066,-0.317 0.322,-0.53 0.604,-0.53 0.046,0 0.092,0.005 0.14,0.017 0.108,0.027 0.213,0.062 0.319,0.091 -0.239,-0.124 -0.478,-0.252 -0.718,-0.374 -0.311,-0.158 -0.448,-0.564 -0.304,-0.906 0.105,-0.252 0.329,-0.398 0.563,-0.398 0.087,0 0.176,0.02 0.259,0.062 1.458,0.74 2.915,1.526 4.38,2.318 0.002,0.002 0.005,0.003 0.007,0.004 -1.262,-0.79 -2.447,-1.685 -3.515,-2.767 -0.252,-0.255 -0.268,-0.687 -0.037,-0.964 0.123,-0.146 0.29,-0.222 0.457,-0.222 0.149,0 0.301,0.061 0.419,0.18 0.711,0.721 1.483,1.358 2.303,1.938 l 6.189,3.26 c 0.772,0.328 1.554,0.652 2.348,0.976 2.057,0.843 4.186,1.713 6.217,2.779 0.308,0.162 0.439,0.569 0.293,0.909" /></g></g></g></g></svg>