<?xml version="1.0" encoding="UTF-8" standalone="no"?>
<svg
   xmlns:dc="http://purl.org/dc/elements/1.1/"
   xmlns:cc="http://creativecommons.org/ns#"
   xmlns:rdf="http://www.w3.org/1999/02/22-rdf-syntax-ns#"
   xmlns:svg="http://www.w3.org/2000/svg"
   xmlns="http://www.w3.org/2000/svg"
   viewBox="0 0 223.99946 330.66626"
   height="330.66626"
   width="223.99947"
   xml:space="preserve"
   id="svg2"
   version="1.1"><metadata
     id="metadata8"><rdf:RDF><cc:Work
         rdf:about=""><dc:format>image/svg+xml</dc:format><dc:type
           rdf:resource="http://purl.org/dc/dcmitype/StillImage" /></cc:Work></rdf:RDF></metadata><defs
     id="defs6"><clipPath
       id="clipPath18"
       clipPathUnits="userSpaceOnUse"><path
         id="path16"
         d="M 0,256 H 256 V 0 H 0 Z" /></clipPath><clipPath
       id="clipPath26"
       clipPathUnits="userSpaceOnUse"><path
         id="path24"
         d="M 44,252 H 212 V 4 H 44 Z" /></clipPath><clipPath
       id="clipPath44"
       clipPathUnits="userSpaceOnUse"><path
         id="path42"
         d="M 0,256 H 256 V 0 H 0 Z" /></clipPath></defs><g
     transform="matrix(1.3333333,0,0,-1.3333333,-58.667199,335.99959)"
     id="g10"><g
       id="g12"><g
         clip-path="url(#clipPath18)"
         id="g14"><g
           id="g20"><g
             id="g22" /><g
             id="g34"><g
               style="opacity:0.5"
               id="g32"
               clip-path="url(#clipPath26)"><g
                 id="g30"
                 transform="translate(211.1554,111.5777)"><path
                   id="path28"
                   style="fill:#ffffff;fill-opacity:1;fill-rule:nonzero;stroke:none"
                   d="M 0,0 -7.362,14.724 -19.161,120.92 c -0.265,10.799 -9.133,19.502 -19.994,19.502 h -84 c -10.807,0 -19.639,-8.614 -19.99,-19.337 L -158.882,14.858 -166.311,0 c -0.555,-1.111 -0.844,-2.336 -0.844,-3.578 v -10.604 c 0,-9.074 7.045,-16.547 16,-17.328 v -68.068 c 0,-4.418 3.581,-8 8,-8 h 120 c 4.418,0 8,3.582 8,8 v 68.068 c 8.954,0.781 16,8.254 16,17.328 V -3.578 C 0.845,-2.336 0.555,-1.111 0,0" /></g></g></g></g></g></g><path
       id="path36"
       style="fill:#999999;fill-opacity:1;fill-rule:nonzero;stroke:none"
       d="M 188,12 H 68 v 96 h 120 z" /><g
       id="g38"><g
         clip-path="url(#clipPath44)"
         id="g40"><g
           transform="translate(184,232)"
           id="g46"><path
             id="path48"
             style="fill:#8f8f8f;fill-opacity:1;fill-rule:nonzero;stroke:none"
             d="m 0,0 c 0,6.627 -5.373,12 -12,12 h -84 c -6.627,0 -12,-5.373 -12,-12 l -16,-108 H 12 Z" /></g><g
           transform="translate(187.9872,132)"
           id="g50"><path
             id="path52"
             style="fill:#262626;fill-opacity:1;fill-rule:nonzero;stroke:none"
             d="m 0,0 h -119.987 l 12,84 h 100 z" /></g><g
           transform="translate(128,208)"
           id="g54"><path
             id="path56"
             style="fill:#191919;fill-opacity:1;fill-rule:nonzero;stroke:none"
             d="m 0,0 c -39.849,0 -48,-6.071 -48,-36 0,-29.929 8.025,-36 48,-36 39.98,0 48,6.059 48,36 C 48,-6.056 39.849,0 0,0" /></g><g
           transform="translate(123.5472,84.0037)"
           id="g58"><path
             id="path60"
             style="fill:#b3b3b3;fill-opacity:1;fill-rule:nonzero;stroke:none"
             d="m 0,0 h -47.094 c -2.455,0 -4.453,-1.875 -4.453,-4.179 v -55.642 c 0,-2.304 1.998,-4.179 4.453,-4.179 H 0 c 2.455,0 4.453,1.875 4.453,4.179 V -4.179 C 4.453,-1.875 2.455,0 0,0 m 0,-2 c 1.352,0 2.453,-0.978 2.453,-2.179 V -59.821 C 2.453,-61.022 1.352,-62 0,-62 h -47.094 c -1.353,0 -2.453,0.978 -2.453,2.179 v 55.642 c 0,1.201 1.1,2.179 2.453,2.179 L 0,-2" /></g><g
           transform="translate(177.8196,84)"
           id="g62"><path
             id="path64"
             style="fill:#b3b3b3;fill-opacity:1;fill-rule:nonzero;stroke:none"
             d="m 0,0 h -24.7 c -3.115,0 -5.652,-2.674 -5.652,-5.957 v -20.086 c 0,-3.283 2.537,-5.957 5.652,-5.957 H 0 c 3.115,0 5.652,2.674 5.652,5.957 V -5.957 C 5.652,-2.674 3.115,0 0,0 m 0,-2 c 2.014,0 3.652,-1.775 3.652,-3.957 V -26.043 C 3.652,-28.225 2.014,-30 0,-30 h -24.7 c -2.014,0 -3.652,1.775 -3.652,3.957 v 20.086 c 0,2.182 1.638,3.957 3.652,3.957 L 0,-2" /></g><g
           transform="translate(178.0832,48)"
           id="g66"><path
             id="path68"
             style="fill:#b3b3b3;fill-opacity:1;fill-rule:nonzero;stroke:none"
             d="m 0,0 h -36.531 c -3.161,0 -5.734,-2.284 -5.734,-5.089 v -21.822 c 0,-2.805 2.573,-5.089 5.734,-5.089 H 0 c 3.161,0 5.735,2.284 5.735,5.089 V -5.089 C 5.735,-2.284 3.161,0 0,0 m 0,-2 c 2.059,0 3.735,-1.386 3.735,-3.089 V -26.911 C 3.735,-28.614 2.059,-30 0,-30 h -36.531 c -2.059,0 -3.734,1.386 -3.734,3.089 v 21.822 c 0,1.703 1.675,3.089 3.734,3.089 L 0,-2" /></g><path
           id="path70"
           style="fill:#262626;fill-opacity:1;fill-rule:nonzero;stroke:none"
           d="M 108,220 H 88 v 16 h 20 z" /><path
           id="path72"
           style="fill:#262626;fill-opacity:1;fill-rule:nonzero;stroke:none"
           d="m 172,220 h -20 v 16 h 20 z" /><g
           transform="translate(52,108)"
           id="g74"><path
             id="path76"
             style="fill:#262626;fill-opacity:1;fill-rule:nonzero;stroke:none"
             d="M 0,0 8,16 H 144 L 152,0 Z" /></g><g
           transform="translate(187,120)"
           id="g78"><path
             id="path80"
             style="fill:#b80000;fill-opacity:1;fill-rule:nonzero;stroke:none"
             d="m 0,0 c 0,-1.105 -1.343,-2 -3,-2 -1.657,0 -3,0.895 -3,2 0,1.105 1.343,2 3,2 1.657,0 3,-0.895 3,-2" /></g><g
           transform="translate(187,114)"
           id="g82"><path
             id="path84"
             style="fill:#b80000;fill-opacity:1;fill-rule:nonzero;stroke:none"
             d="m 0,0 c 0,-1.105 -1.343,-2 -3,-2 -1.657,0 -3,0.895 -3,2 0,1.105 1.343,2 3,2 1.657,0 3,-0.895 3,-2" /></g><g
           transform="translate(179,120)"
           id="g86"><path
             id="path88"
             style="fill:#b80000;fill-opacity:1;fill-rule:nonzero;stroke:none"
             d="m 0,0 c 0,-1.105 -1.343,-2 -3,-2 -1.657,0 -3,0.895 -3,2 0,1.105 1.343,2 3,2 1.657,0 3,-0.895 3,-2" /></g><g
           transform="translate(179,114)"
           id="g90"><path
             id="path92"
             style="fill:#b80000;fill-opacity:1;fill-rule:nonzero;stroke:none"
             d="m 0,0 c 0,-1.105 -1.343,-2 -3,-2 -1.657,0 -3,0.895 -3,2 0,1.105 1.343,2 3,2 1.657,0 3,-0.895 3,-2" /></g><g
           transform="translate(171,120)"
           id="g94"><path
             id="path96"
             style="fill:#b80000;fill-opacity:1;fill-rule:nonzero;stroke:none"
             d="m 0,0 c 0,-1.105 -1.343,-2 -3,-2 -1.657,0 -3,0.895 -3,2 0,1.105 1.343,2 3,2 1.657,0 3,-0.895 3,-2" /></g><g
           transform="translate(131,118)"
           id="g98"><path
             id="path100"
             style="fill:#eac500;fill-opacity:1;fill-rule:nonzero;stroke:none"
             d="m 0,0 c 0,-1.105 -1.343,-2 -3,-2 -1.657,0 -3,0.895 -3,2 0,1.105 1.343,2 3,2 1.657,0 3,-0.895 3,-2" /></g><g
           transform="translate(123,118)"
           id="g102"><path
             id="path104"
             style="fill:#eac500;fill-opacity:1;fill-rule:nonzero;stroke:none"
             d="m 0,0 c 0,-1.105 -1.343,-2 -3,-2 -1.657,0 -3,0.895 -3,2 0,1.105 1.343,2 3,2 1.657,0 3,-0.895 3,-2" /></g><g
           transform="translate(171,114)"
           id="g106"><path
             id="path108"
             style="fill:#b80000;fill-opacity:1;fill-rule:nonzero;stroke:none"
             d="m 0,0 c 0,-1.105 -1.343,-2 -3,-2 -1.657,0 -3,0.895 -3,2 0,1.105 1.343,2 3,2 1.657,0 3,-0.895 3,-2" /></g><g
           transform="translate(111,120)"
           id="g110"><path
             id="path112"
             style="fill:#007b00;fill-opacity:1;fill-rule:nonzero;stroke:none"
             d="m 0,0 c 0,-1.105 -1.343,-2 -3,-2 -1.657,0 -3,0.895 -3,2 0,1.105 1.343,2 3,2 1.657,0 3,-0.895 3,-2" /></g><g
           transform="translate(111,114)"
           id="g114"><path
             id="path116"
             style="fill:#007b00;fill-opacity:1;fill-rule:nonzero;stroke:none"
             d="m 0,0 c 0,-1.105 -1.343,-2 -3,-2 -1.657,0 -3,0.895 -3,2 0,1.105 1.343,2 3,2 1.657,0 3,-0.895 3,-2" /></g><g
           transform="translate(103,120)"
           id="g118"><path
             id="path120"
             style="fill:#007b00;fill-opacity:1;fill-rule:nonzero;stroke:none"
             d="m 0,0 c 0,-1.105 -1.343,-2 -3,-2 -1.657,0 -3,0.895 -3,2 0,1.105 1.343,2 3,2 1.657,0 3,-0.895 3,-2" /></g><g
           transform="translate(103,114)"
           id="g122"><path
             id="path124"
             style="fill:#007b00;fill-opacity:1;fill-rule:nonzero;stroke:none"
             d="m 0,0 c 0,-1.105 -1.343,-2 -3,-2 -1.657,0 -3,0.895 -3,2 0,1.105 1.343,2 3,2 1.657,0 3,-0.895 3,-2" /></g><g
           transform="translate(95,120)"
           id="g126"><path
             id="path128"
             style="fill:#007b00;fill-opacity:1;fill-rule:nonzero;stroke:none"
             d="m 0,0 c 0,-1.105 -1.343,-2 -3,-2 -1.657,0 -3,0.895 -3,2 0,1.105 1.343,2 3,2 1.657,0 3,-0.895 3,-2" /></g><g
           transform="translate(95,114)"
           id="g130"><path
             id="path132"
             style="fill:#007b00;fill-opacity:1;fill-rule:nonzero;stroke:none"
             d="m 0,0 c 0,-1.105 -1.343,-2 -3,-2 -1.657,0 -3,0.895 -3,2 0,1.105 1.343,2 3,2 1.657,0 3,-0.895 3,-2" /></g><g
           transform="translate(156,117)"
           id="g134"><path
             id="path136"
             style="fill:#191919;fill-opacity:1;fill-rule:nonzero;stroke:none"
             d="m 0,0 c 0,-1.657 -2.686,-3 -6,-3 -3.314,0 -6,1.343 -6,3 0,1.657 2.686,3 6,3 3.314,0 6,-1.343 6,-3" /></g><g
           transform="translate(194.448,88)"
           id="g138"><path
             id="path140"
             style="fill:#808080;fill-opacity:1;fill-rule:nonzero;stroke:none"
             d="m 0,0 h -132.896 c -5.275,0 -9.552,4.206 -9.552,9.395 V 20 h 152 V 9.395 C 9.552,4.206 5.275,0 0,0" /></g><path
           id="path142"
           style="fill:#262626;fill-opacity:1;fill-rule:nonzero;stroke:none"
           d="m 172,60 h -4 v 4 h 4 z" /><g
           transform="translate(100,74)"
           id="g144"><path
             id="path146"
             style="fill:#262626;fill-opacity:1;fill-rule:nonzero;stroke:none"
             d="m 0,0 c 0,-1.105 -0.895,-2 -2,-2 -1.105,0 -2,0.895 -2,2 0,1.105 0.895,2 2,2 1.105,0 2,-0.895 2,-2" /></g><g
           transform="translate(156,74)"
           id="g148"><path
             id="path150"
             style="fill:#262626;fill-opacity:1;fill-rule:nonzero;stroke:none"
             d="m 0,0 c 0,-1.105 -0.895,-2 -2,-2 -1.105,0 -2,0.895 -2,2 0,1.105 0.895,2 2,2 1.105,0 2,-0.895 2,-2" /></g><g
           transform="translate(144,34)"
           id="g152"><path
             id="path154"
             style="fill:#262626;fill-opacity:1;fill-rule:nonzero;stroke:none"
             d="m 0,0 c 0,-1.105 -0.895,-2 -2,-2 -1.105,0 -2,0.895 -2,2 0,1.105 0.895,2 2,2 1.105,0 2,-0.895 2,-2" /></g><g
           transform="translate(148.5,116.9146)"
           id="g156"><path
             id="path158"
             style="fill:#b80000;fill-opacity:1;fill-rule:nonzero;stroke:none"
             d="m 0,0 -1.5,8.868 c 0,1.22 1.35,2.217 3,2.217 1.65,0 3,-0.997 3,-2.217 L 3,0 C 3,-1.219 0,-1.219 0,0" /></g><g
           transform="translate(80,117)"
           id="g160"><path
             id="path162"
             style="fill:#191919;fill-opacity:1;fill-rule:nonzero;stroke:none"
             d="m 0,0 c 0,-1.657 -2.686,-3 -6,-3 -3.314,0 -6,1.343 -6,3 0,1.657 2.686,3 6,3 3.314,0 6,-1.343 6,-3" /></g><g
           transform="translate(72.5,116.9146)"
           id="g164"><path
             id="path166"
             style="fill:#354f9f;fill-opacity:1;fill-rule:nonzero;stroke:none"
             d="m 0,0 -1.5,8.868 c 0,1.22 1.35,2.217 3,2.217 1.65,0 3,-0.997 3,-2.217 L 3,0 C 3,-1.219 0,-1.219 0,0" /></g></g></g></g></svg>