<?xml version="1.0" encoding="UTF-8" standalone="no"?>
<svg
   xmlns:dc="http://purl.org/dc/elements/1.1/"
   xmlns:cc="http://creativecommons.org/ns#"
   xmlns:rdf="http://www.w3.org/1999/02/22-rdf-syntax-ns#"
   xmlns:svg="http://www.w3.org/2000/svg"
   xmlns="http://www.w3.org/2000/svg"
   viewBox="0 0 266.66653 266.66665"
   height="266.66666"
   width="266.66653"
   xml:space="preserve"
   id="svg2"
   version="1.1"><metadata
     id="metadata8"><rdf:RDF><cc:Work
         rdf:about=""><dc:format>image/svg+xml</dc:format><dc:type
           rdf:resource="http://purl.org/dc/dcmitype/StillImage" /></cc:Work></rdf:RDF></metadata><defs
     id="defs6"><clipPath
       id="clipPath18"
       clipPathUnits="userSpaceOnUse"><path
         id="path16"
         d="M 0,256 H 256 V 0 H 0 Z" /></clipPath><clipPath
       id="clipPath26"
       clipPathUnits="userSpaceOnUse"><path
         id="path24"
         d="M 28,228 H 228 V 28 H 28 Z" /></clipPath></defs><g
     transform="matrix(1.3333333,0,0,-1.3333333,-37.333332,303.99999)"
     id="g10"><g
       id="g12"><g
         clip-path="url(#clipPath18)"
         id="g14"><g
           id="g20"><g
             id="g22" /><g
             id="g34"><g
               style="opacity:0.5"
               id="g32"
               clip-path="url(#clipPath26)"><g
                 id="g30"
                 transform="translate(205.4189,228)"><path
                   id="path28"
                   style="fill:#ffffff;fill-opacity:1;fill-rule:nonzero;stroke:none"
                   d="m 0,0 h -154.838 c -12.452,0 -22.581,-10.129 -22.581,-22.581 v -154.838 c 0,-12.451 10.129,-22.581 22.581,-22.581 L 0,-200 c 12.451,0 22.581,10.13 22.581,22.581 V -22.581 C 22.581,-10.129 12.451,0 0,0" /></g></g></g></g><g
           transform="translate(200,36)"
           id="g36"><path
             id="path38"
             style="fill:#4c4c4c;fill-opacity:1;fill-rule:nonzero;stroke:none"
             d="m 0,0 h -144 c -11.046,0 -20,8.954 -20,20 v 144 c 0,11.046 8.954,20 20,20 H 0 c 11.046,0 20,-8.954 20,-20 V 20 C 20,8.954 11.046,0 0,0" /></g><g
           transform="translate(166.752,172)"
           id="g40"><path
             id="path42"
             style="fill:#ffffff;fill-opacity:1;fill-rule:nonzero;stroke:none"
             d="m 0,0 c -1.95,15.805 -15.668,28 -32,28 -10.651,0 -18.184,-3.997 -24,-12 h -8 c -8.837,0 -16,-7.164 -16,-16 0,-0.018 0,0.018 0,0 -20.059,-1.039 -36,-17.683 -36,-38 0,-20.986 15.013,-38 36,-38 H 0 c 20.986,0 36,17.014 36,38 0,20.4 -15.825,37.086 -36,38" /></g><g
           transform="translate(90.752,56)"
           id="g44"><path
             id="path46"
             style="fill:#00b800;fill-opacity:1;fill-rule:nonzero;stroke:none"
             d="m 0,0 h 72 c 2.209,0 4,1.791 4,4 0,2.209 -1.791,4 -4,4 H 0 C -2.209,8 -4,6.209 -4,4 -4,1.791 -2.209,0 0,0" /></g><g
           transform="translate(112,120)"
           id="g48"><path
             id="path50"
             style="fill:#eac500;fill-opacity:1;fill-rule:nonzero;stroke:none"
             d="M 0,0 H -24 L -7.633,-19.633 16,4 0,20 Z" /></g><g
           transform="translate(104.3672,100.3672)"
           id="g52"><path
             id="path54"
             style="fill:#00b800;fill-opacity:1;fill-rule:nonzero;stroke:none"
             d="m 0,0 23.649,-28.367 23.623,28.36 -23.639,23.64 z" /></g><g
           transform="translate(128,124)"
           id="g56"><path
             id="path58"
             style="fill:#4b5da7;fill-opacity:1;fill-rule:nonzero;stroke:none"
             d="M 0,0 23.64,-23.64 40,-4 H 16 v 20 z" /></g><g
           transform="translate(136,176)"
           id="g60"><path
             id="path62"
             style="fill:#ff0000;fill-opacity:1;fill-rule:nonzero;stroke:none"
             d="m 0,0 h -16 c -4.418,0 -8,-3.582 -8,-8 V -36 L -8,-52 8,-36 V -8 C 8,-3.582 4.418,0 0,0" /></g></g></g></g></svg>