<?xml version="1.0" encoding="UTF-8" standalone="no"?>
<svg
   xmlns:dc="http://purl.org/dc/elements/1.1/"
   xmlns:cc="http://creativecommons.org/ns#"
   xmlns:rdf="http://www.w3.org/1999/02/22-rdf-syntax-ns#"
   xmlns:svg="http://www.w3.org/2000/svg"
   xmlns="http://www.w3.org/2000/svg"
   viewBox="0 0 266.66653 266.66665"
   height="266.66666"
   width="266.66653"
   xml:space="preserve"
   id="svg2"
   version="1.1"><metadata
     id="metadata8"><rdf:RDF><cc:Work
         rdf:about=""><dc:format>image/svg+xml</dc:format><dc:type
           rdf:resource="http://purl.org/dc/dcmitype/StillImage" /></cc:Work></rdf:RDF></metadata><defs
     id="defs6"><clipPath
       id="clipPath18"
       clipPathUnits="userSpaceOnUse"><path
         id="path16"
         d="M 0,256 H 256 V 0 H 0 Z" /></clipPath><clipPath
       id="clipPath26"
       clipPathUnits="userSpaceOnUse"><path
         id="path24"
         d="M 28,228 H 228 V 28 H 28 Z" /></clipPath></defs><g
     transform="matrix(1.3333333,0,0,-1.3333333,-37.333332,303.99999)"
     id="g10"><g
       id="g12"><g
         clip-path="url(#clipPath18)"
         id="g14"><g
           id="g20"><g
             id="g22" /><g
             id="g34"><g
               style="opacity:0.5"
               id="g32"
               clip-path="url(#clipPath26)"><g
                 id="g30"
                 transform="translate(205.4189,228)"><path
                   id="path28"
                   style="fill:#ffffff;fill-opacity:1;fill-rule:nonzero;stroke:none"
                   d="m 0,0 h -154.838 c -12.452,0 -22.581,-10.129 -22.581,-22.581 v -154.838 c 0,-12.451 10.129,-22.581 22.581,-22.581 L 0,-200 c 12.451,0 22.581,10.13 22.581,22.581 V -22.581 C 22.581,-10.129 12.451,0 0,0" /></g></g></g></g><g
           transform="translate(200,36)"
           id="g36"><path
             id="path38"
             style="fill:#737373;fill-opacity:1;fill-rule:nonzero;stroke:none"
             d="m 0,0 h -144 c -11.046,0 -20,8.954 -20,20 v 144 c 0,11.046 8.954,20 20,20 H 0 c 11.046,0 20,-8.954 20,-20 V 20 C 20,8.954 11.046,0 0,0" /></g><g
           transform="translate(140.5713,184)"
           id="g40"><path
             id="path42"
             style="fill:#e6e6e6;fill-opacity:1;fill-rule:nonzero;stroke:none"
             d="m 0,0 h -50.286 c -3.472,0 -6.285,-2.785 -6.285,-6.222 v -99.555 c 0,-3.439 2.813,-6.223 6.285,-6.223 h 75.429 c 3.473,0 6.286,2.784 6.286,6.223 v 74.666 z" /></g><g
           transform="translate(137.1377,176)"
           id="g44"><path
             id="path46"
             style="fill:#9bc2dd;fill-opacity:1;fill-rule:nonzero;stroke:none"
             d="M 0,0 26.862,-26.401 V -96 h -72 V 0 Z" /></g><g
           transform="translate(155.2129,150)"
           id="g48"><path
             id="path50"
             style="fill:#ffffff;fill-opacity:1;fill-rule:nonzero;stroke:none"
             d="m 0,0 h -12.813 c -3.536,0 -6.4,2.864 -6.4,6.4 V 19.2 32 l 32,-32 z" /></g><g
           transform="translate(88,80)"
           id="g52"><path
             id="path54"
             style="fill:#16a085;fill-opacity:1;fill-rule:nonzero;stroke:none"
             d="M 0,0 H 80 V 28 L 56,52 32,28 20,40 0,20 Z" /></g><g
           transform="translate(100,146)"
           id="g56"><path
             id="path58"
             style="fill:#eac500;fill-opacity:1;fill-rule:nonzero;stroke:none"
             d="m 0,0 c 0,-3.313 -2.687,-6 -6,-6 -3.313,0 -6,2.687 -6,6 0,3.313 2.687,6 6,6 3.313,0 6,-2.687 6,-6" /></g></g></g></g></svg>