<?xml version="1.0" encoding="UTF-8" standalone="no"?>
<svg
   xmlns:dc="http://purl.org/dc/elements/1.1/"
   xmlns:cc="http://creativecommons.org/ns#"
   xmlns:rdf="http://www.w3.org/1999/02/22-rdf-syntax-ns#"
   xmlns:svg="http://www.w3.org/2000/svg"
   xmlns="http://www.w3.org/2000/svg"
   viewBox="0 0 170.6664 330.66613"
   height="330.66614"
   width="170.6664"
   xml:space="preserve"
   id="svg2"
   version="1.1"><metadata
     id="metadata8"><rdf:RDF><cc:Work
         rdf:about=""><dc:format>image/svg+xml</dc:format><dc:type
           rdf:resource="http://purl.org/dc/dcmitype/StillImage" /></cc:Work></rdf:RDF></metadata><defs
     id="defs6"><clipPath
       id="clipPath18"
       clipPathUnits="userSpaceOnUse"><path
         id="path16"
         d="M 0,256 H 256 V 0 H 0 Z" /></clipPath><clipPath
       id="clipPath26"
       clipPathUnits="userSpaceOnUse"><path
         id="path24"
         d="M 64,252 H 192 V 4 H 64 Z" /></clipPath></defs><g
     transform="matrix(1.3333333,0,0,-1.3333333,-85.333598,335.99946)"
     id="g10"><g
       id="g12"><g
         clip-path="url(#clipPath18)"
         id="g14"><g
           id="g20"><g
             id="g22" /><g
             id="g34"><g
               style="opacity:0.5"
               id="g32"
               clip-path="url(#clipPath26)"><g
                 id="g30"
                 transform="translate(179.7402,246.0356)"><path
                   id="path28"
                   style="fill:#ffffff;fill-opacity:1;fill-rule:nonzero;stroke:none"
                   d="m 0,0 c -5.115,2.177 -10.889,3.039 -15.104,3.669 -9.911,1.48 -22.921,2.295 -36.636,2.295 -13.716,0 -26.726,-0.815 -36.636,-2.295 -4.215,-0.63 -9.989,-1.492 -15.104,-3.669 -10.667,-4.538 -12.26,-12.308 -12.26,-16.536 v -203 c 0,-4.227 1.593,-11.997 12.259,-16.535 5.116,-2.177 10.889,-3.039 15.105,-3.669 9.91,-1.48 22.921,-2.296 36.636,-2.296 13.715,0 26.725,0.816 36.636,2.296 4.215,0.63 9.989,1.492 15.104,3.669 10.667,4.538 12.26,12.308 12.26,16.535 v 203 C 12.26,-12.308 10.667,-4.538 0,0" /></g></g></g></g><g
           transform="translate(128,244)"
           id="g36"><path
             id="path38"
             style="fill:#bfbfbf;fill-opacity:1;fill-rule:nonzero;stroke:none"
             d="M 0,0 C -13.332,0 -25.923,-0.784 -35.454,-2.208 -43.138,-3.355 -56,-5.277 -56,-14.5 v -203 c 0,-9.223 12.862,-11.145 20.546,-12.292 9.531,-1.424 22.122,-2.208 35.454,-2.208 13.332,0 25.923,0.784 35.453,2.208 7.686,1.147 20.547,3.069 20.547,12.292 v 203 C 56,-5.277 43.139,-3.355 35.453,-2.208 25.923,-0.784 13.332,0 0,0" /></g><g
           transform="translate(128,235.9165)"
           id="g40"><path
             id="path42"
             style="fill:#f2f2f2;fill-opacity:1;fill-rule:nonzero;stroke:none"
             d="m 0,0 c -26.51,0 -48,-3.224 -48,-7.2 v -201.6 c 0,-3.976 21.49,-7.2 48,-7.2 26.51,0 48,3.224 48,7.2 V -7.2 C 48,-3.224 26.51,0 0,0" /></g><g
           transform="translate(128,101.917)"
           id="g44"><path
             id="path46"
             style="fill:#bfbfbf;fill-opacity:1;fill-rule:nonzero;stroke:none"
             d="m 0,0 c -18.748,0 -34,-15.253 -34,-34 0,-18.748 15.252,-34 34,-34 18.748,0 34,15.252 34,34 C 34,-15.253 18.748,0 0,0" /></g><g
           transform="translate(128,99.917)"
           id="g48"><path
             id="path50"
             style="fill:#1abf9f;fill-opacity:1;fill-rule:nonzero;stroke:none"
             d="m 0,0 c -17.673,0 -32,-14.327 -32,-32 0,-17.674 14.327,-32 32,-32 17.673,0 32,14.326 32,32 C 32,-14.327 17.673,0 0,0" /></g><path
           id="path52"
           style="fill:#8a8a8a;fill-opacity:1;fill-rule:nonzero;stroke:none"
           d="M 168,111.917 H 88 v 104 h 80 z" /><g
           transform="translate(128,95.917)"
           id="g54"><path
             id="path56"
             style="fill:#f2f2f2;fill-opacity:1;fill-rule:nonzero;stroke:none"
             d="m 0,0 c 15.439,0 28,-12.562 28,-28 0,-15.439 -12.561,-28 -28,-28 -15.439,0 -28,12.561 -28,28 0,15.438 12.561,28 28,28" /></g><g
           transform="translate(184,167.9165)"
           id="g58"><path
             id="path60"
             style="fill:#d9d9d9;fill-opacity:1;fill-rule:nonzero;stroke:none"
             d="M 0,0 V 32 C -2.209,32 -4,24.836 -4,16 -4,7.164 -2.209,0 0,0" /></g><g
           transform="translate(132,225.9165)"
           id="g62"><path
             id="path64"
             style="fill:#bfbfbf;fill-opacity:1;fill-rule:nonzero;stroke:none"
             d="m 0,0 c 0,-2.209 -1.791,-4 -4,-4 -2.209,0 -4,1.791 -4,4 0,2.209 1.791,4 4,4 2.209,0 4,-1.791 4,-4" /></g><g
           transform="translate(184,127.9165)"
           id="g66"><path
             id="path68"
             style="fill:#d9d9d9;fill-opacity:1;fill-rule:nonzero;stroke:none"
             d="M 0,0 V 32 C -2.209,32 -4,24.836 -4,16 -4,7.164 -2.209,0 0,0" /></g><g
           transform="translate(72,127.9165)"
           id="g70"><path
             id="path72"
             style="fill:#d9d9d9;fill-opacity:1;fill-rule:nonzero;stroke:none"
             d="M 0,0 V 32 C 2.209,32 4,24.836 4,16 4,7.164 2.209,0 0,0" /></g><g
           transform="translate(72,167.9165)"
           id="g74"><path
             id="path76"
             style="fill:#d9d9d9;fill-opacity:1;fill-rule:nonzero;stroke:none"
             d="M 0,0 V 32 C 2.209,32 4,24.836 4,16 4,7.164 2.209,0 0,0" /></g><g
           transform="translate(128,83.917)"
           id="g78"><path
             id="path80"
             style="fill:#bfbfbf;fill-opacity:1;fill-rule:nonzero;stroke:none"
             d="M 0,0 V 0 C -1.104,0 -2,0.896 -2,2 V 6 C -2,7.104 -1.104,8 0,8 1.104,8 2,7.104 2,6 V 2 C 2,0.896 1.104,0 0,0" /></g><g
           transform="translate(128,43.917)"
           id="g82"><path
             id="path84"
             style="fill:#bfbfbf;fill-opacity:1;fill-rule:nonzero;stroke:none"
             d="M 0,0 V 0 C -1.104,0 -2,0.896 -2,2 V 6 C -2,7.104 -1.104,8 0,8 1.104,8 2,7.104 2,6 V 2 C 2,0.896 1.104,0 0,0" /></g><g
           transform="translate(144,67.917)"
           id="g86"><path
             id="path88"
             style="fill:#bfbfbf;fill-opacity:1;fill-rule:nonzero;stroke:none"
             d="M 0,0 V 0 C 0,1.104 0.896,2 2,2 H 6 C 7.104,2 8,1.104 8,0 8,-1.104 7.104,-2 6,-2 H 2 C 0.896,-2 0,-1.104 0,0" /></g><g
           transform="translate(104,67.917)"
           id="g90"><path
             id="path92"
             style="fill:#bfbfbf;fill-opacity:1;fill-rule:nonzero;stroke:none"
             d="M 0,0 V 0 C 0,1.104 0.896,2 2,2 H 6 C 7.104,2 8,1.104 8,0 8,-1.104 7.104,-2 6,-2 H 2 C 0.896,-2 0,-1.104 0,0" /></g><g
           transform="translate(134.123,82.6982)"
           id="g94"><path
             id="path96"
             style="fill:#bfbfbf;fill-opacity:1;fill-rule:nonzero;stroke:none"
             d="m 0,0 v 0 c -1.021,0.423 -1.505,1.593 -1.082,2.613 l 1.53,3.696 C 0.871,7.329 2.041,7.814 3.062,7.392 4.082,6.969 4.566,5.799 4.144,4.778 L 2.613,1.083 C 2.19,0.062 1.021,-0.422 0,0" /></g><g
           transform="translate(118.8154,45.7432)"
           id="g98"><path
             id="path100"
             style="fill:#bfbfbf;fill-opacity:1;fill-rule:nonzero;stroke:none"
             d="M 0,0 V 0 C -1.021,0.423 -1.505,1.593 -1.082,2.613 L 0.449,6.309 C 0.871,7.329 2.041,7.814 3.062,7.392 4.082,6.969 4.567,5.799 4.144,4.778 L 2.613,1.083 C 2.19,0.062 1.021,-0.423 0,0" /></g><g
           transform="translate(142.7822,61.7939)"
           id="g102"><path
             id="path104"
             style="fill:#bfbfbf;fill-opacity:1;fill-rule:nonzero;stroke:none"
             d="m 0,0 v 0 c 0.423,1.021 1.593,1.505 2.613,1.082 l 3.696,-1.53 C 7.329,-0.871 7.813,-2.041 7.391,-3.062 6.968,-4.082 5.798,-4.566 4.777,-4.145 L 1.082,-2.613 C 0.062,-2.19 -0.423,-1.021 0,0" /></g><g
           transform="translate(105.8267,77.1006)"
           id="g106"><path
             id="path108"
             style="fill:#bfbfbf;fill-opacity:1;fill-rule:nonzero;stroke:none"
             d="M 0,0 V 0 C 0.423,1.021 1.593,1.506 2.613,1.083 L 6.309,-0.448 C 7.33,-0.871 7.814,-2.041 7.391,-3.062 6.969,-4.082 5.799,-4.566 4.778,-4.144 L 1.083,-2.612 C 0.062,-2.19 -0.422,-1.021 0,0" /></g><g
           transform="translate(139.3135,79.2305)"
           id="g110"><path
             id="path112"
             style="fill:#bfbfbf;fill-opacity:1;fill-rule:nonzero;stroke:none"
             d="m 0,0 v 0 c -0.781,0.781 -0.781,2.047 0,2.828 l 2.829,2.828 c 0.78,0.781 2.047,0.781 2.828,0 0.781,-0.78 0.781,-2.047 0,-2.828 L 2.829,0 C 2.048,-0.781 0.781,-0.781 0,0" /></g><g
           transform="translate(111.0293,50.9463)"
           id="g114"><path
             id="path116"
             style="fill:#bfbfbf;fill-opacity:1;fill-rule:nonzero;stroke:none"
             d="m 0,0 v 0 c -0.781,0.781 -0.781,2.047 0,2.828 l 2.829,2.828 c 0.78,0.781 2.047,0.781 2.828,0 0.781,-0.78 0.781,-2.047 0,-2.828 L 2.829,0 C 2.047,-0.781 0.781,-0.781 0,0" /></g><g
           transform="translate(139.3135,56.6025)"
           id="g118"><path
             id="path120"
             style="fill:#bfbfbf;fill-opacity:1;fill-rule:nonzero;stroke:none"
             d="m 0,0 v 0 c 0.781,0.781 2.048,0.781 2.829,0 l 2.828,-2.828 c 0.781,-0.781 0.781,-2.047 0,-2.828 -0.781,-0.781 -2.048,-0.781 -2.828,0 L 0,-2.828 C -0.781,-2.047 -0.781,-0.78 0,0" /></g><g
           transform="translate(111.0293,84.8867)"
           id="g122"><path
             id="path124"
             style="fill:#bfbfbf;fill-opacity:1;fill-rule:nonzero;stroke:none"
             d="m 0,0 v 0 c 0.781,0.781 2.047,0.781 2.829,0 l 2.828,-2.828 c 0.781,-0.781 0.781,-2.047 0,-2.828 -0.781,-0.781 -2.048,-0.781 -2.828,0 L 0,-2.828 C -0.781,-2.047 -0.781,-0.78 0,0" /></g><g
           transform="translate(142.7822,74.0391)"
           id="g126"><path
             id="path128"
             style="fill:#bfbfbf;fill-opacity:1;fill-rule:nonzero;stroke:none"
             d="M 0,0 V 0 C -0.423,1.021 0.062,2.19 1.082,2.613 L 4.777,4.145 C 5.798,4.567 6.968,4.082 7.391,3.062 7.813,2.041 7.329,0.871 6.309,0.449 L 2.613,-1.082 C 1.593,-1.505 0.423,-1.021 0,0" /></g><g
           transform="translate(105.8267,58.7324)"
           id="g130"><path
             id="path132"
             style="fill:#bfbfbf;fill-opacity:1;fill-rule:nonzero;stroke:none"
             d="M 0,0 V 0 C -0.422,1.021 0.062,2.19 1.083,2.613 L 4.778,4.144 C 5.799,4.566 6.969,4.082 7.391,3.062 7.814,2.041 7.33,0.871 6.309,0.448 L 2.613,-1.083 C 1.593,-1.505 0.423,-1.021 0,0" /></g><g
           transform="translate(134.123,53.1348)"
           id="g134"><path
             id="path136"
             style="fill:#bfbfbf;fill-opacity:1;fill-rule:nonzero;stroke:none"
             d="M 0,0 V 0 C 1.021,0.423 2.19,-0.062 2.613,-1.083 L 4.144,-4.778 C 4.566,-5.799 4.082,-6.969 3.062,-7.392 2.041,-7.814 0.871,-7.329 0.448,-6.309 l -1.53,3.696 C -1.505,-1.593 -1.021,-0.423 0,0" /></g><g
           transform="translate(118.8154,90.0898)"
           id="g138"><path
             id="path140"
             style="fill:#bfbfbf;fill-opacity:1;fill-rule:nonzero;stroke:none"
             d="M 0,0 V 0 C 1.021,0.423 2.19,-0.062 2.613,-1.083 L 4.144,-4.778 C 4.567,-5.799 4.082,-6.969 3.062,-7.392 2.041,-7.813 0.871,-7.329 0.449,-6.309 l -1.531,3.696 C -1.505,-1.593 -1.021,-0.423 0,0" /></g></g></g></g></svg>