<?xml version="1.0" encoding="UTF-8" standalone="no"?>
<svg
   xmlns:dc="http://purl.org/dc/elements/1.1/"
   xmlns:cc="http://creativecommons.org/ns#"
   xmlns:rdf="http://www.w3.org/1999/02/22-rdf-syntax-ns#"
   xmlns:svg="http://www.w3.org/2000/svg"
   xmlns="http://www.w3.org/2000/svg"
   viewBox="0 0 330.66665 330.66665"
   height="330.66666"
   width="330.66666"
   xml:space="preserve"
   id="svg2"
   version="1.1"><metadata
     id="metadata8"><rdf:RDF><cc:Work
         rdf:about=""><dc:format>image/svg+xml</dc:format><dc:type
           rdf:resource="http://purl.org/dc/dcmitype/StillImage" /></cc:Work></rdf:RDF></metadata><defs
     id="defs6"><clipPath
       id="clipPath18"
       clipPathUnits="userSpaceOnUse"><path
         id="path16"
         d="M 0,256 H 256 V 0 H 0 Z" /></clipPath><clipPath
       id="clipPath26"
       clipPathUnits="userSpaceOnUse"><path
         id="path24"
         d="M 4,252 H 252 V 4 H 4 Z" /></clipPath></defs><g
     transform="matrix(1.3333333,0,0,-1.3333333,-5.3333332,335.99999)"
     id="g10"><g
       id="g12"><g
         clip-path="url(#clipPath18)"
         id="g14"><g
           id="g20"><g
             id="g22" /><g
             id="g34"><g
               style="opacity:0.5"
               id="g32"
               clip-path="url(#clipPath26)"><g
                 id="g30"
                 transform="translate(224,252)"><path
                   id="path28"
                   style="fill:#ffffff;fill-opacity:1;fill-rule:nonzero;stroke:none"
                   d="m 0,0 h -192 c -15.439,0 -28,-12.561 -28,-28 v -192 c 0,-15.439 12.561,-28 28,-28 H 0 c 15.439,0 28,12.561 28,28 V -28 C 28,-12.561 15.439,0 0,0" /></g></g></g></g><g
           transform="translate(224,12)"
           id="g36"><path
             id="path38"
             style="fill:#000000;fill-opacity:1;fill-rule:nonzero;stroke:none"
             d="m 0,0 h -192 c -11.046,0 -20,8.954 -20,20 v 192 c 0,11.046 8.954,20 20,20 H 0 c 11.046,0 20,-8.954 20,-20 V 20 C 20,8.954 11.046,0 0,0" /></g><g
           transform="translate(127.9956,80)"
           id="g40"><path
             id="path42"
             style="fill:#4eb96f;fill-opacity:1;fill-rule:nonzero;stroke:none"
             d="m 0,0 c -2.021,-3.973 -4.777,-7.436 -7.995,-10.362 v -13.434 c -0.001,-0.077 -0.001,-0.152 0,-0.229 0.063,-4.467 3.695,-8.038 8.112,-7.974 4.419,0.062 7.949,3.735 7.886,8.203 v 13.408 C 4.78,-7.458 2.022,-3.985 0,0" /></g><g
           transform="translate(158,123.6885)"
           id="g44"><path
             id="path46"
             style="fill:#f39b11;fill-opacity:1;fill-rule:nonzero;stroke:none"
             d="m 0,0 c 0,7.424 -2.771,14.544 -7.682,20.017 -6.307,-4.494 -14,-7.167 -22.318,-7.167 -8.319,0 -16.011,2.673 -22.318,7.167 C -57.229,14.543 -60,7.421 -60,0 c 0,-16.533 13.458,-29.983 30,-29.983 16.542,0 30,13.45 30,29.983" /></g><g
           transform="translate(90.0127,175.9834)"
           id="g48"><path
             id="path50"
             style="fill:#d35400;fill-opacity:1;fill-rule:nonzero;stroke:none"
             d="m 0,0 c 0,1.356 0.071,2.696 0.208,4.017 -14.784,-2.022 -26.221,-14.687 -26.221,-30 0,-15.314 11.437,-27.978 26.221,-30 C 0.071,-54.662 0,-53.323 0,-51.967 0,-42.321 3.603,-33.063 9.987,-25.948 3.799,-19.048 0,-9.97 0,0" /></g><g
           transform="translate(192,150)"
           id="g52"><path
             id="path54"
             style="fill:#e77f22;fill-opacity:1;fill-rule:nonzero;stroke:none"
             d="m 0,0 c 0,15.313 -11.437,27.978 -26.219,30 0.136,-1.321 0.207,-2.661 0.207,-4.017 0,-9.97 -3.8,-19.05 -9.988,-25.95 6.385,-7.112 9.988,-16.366 9.988,-26.016 0,-1.357 -0.071,-2.696 -0.207,-4.017 C -11.437,-27.978 0,-15.313 0,0" /></g><g
           transform="translate(91.2402,109.2129)"
           id="g56"><path
             id="path58"
             style="fill:#4eb96f;fill-opacity:1;fill-rule:nonzero;stroke:none"
             d="M 0,0 C -7.331,0.386 -14.106,2.849 -19.742,6.787 -24.536,1.533 -27.24,-5.309 -27.24,-12.435 V -41.213 H 2.023 c 11.704,0 22.107,6.837 26.737,17.084 C 15.371,-21.737 4.431,-12.383 0,0" /></g><g
           transform="translate(128,145.2593)"
           id="g60"><path
             id="path62"
             style="fill:#f1c40f;fill-opacity:1;fill-rule:nonzero;stroke:none"
             d="M 0,0 C 16.542,0 30,13.458 30,30 30,46.542 16.542,60 0,60 -16.542,60 -30,46.542 -30,30 -30,13.458 -16.542,0 0,0" /></g><g
           transform="translate(164.7646,109.2109)"
           id="g64"><path
             id="path66"
             style="fill:#4eb96f;fill-opacity:1;fill-rule:nonzero;stroke:none"
             d="m 0,0 c -4.431,-12.385 -15.373,-21.742 -28.765,-24.13 4.619,-10.257 15.004,-17.081 26.744,-17.081 h 29.256 v 28.777 c 0,7.121 -2.702,13.969 -7.493,19.223 C 14.107,2.85 7.331,0.386 0,0" /></g></g></g></g></svg>