<?xml version="1.0" encoding="UTF-8" standalone="no"?>
<svg
   xmlns:dc="http://purl.org/dc/elements/1.1/"
   xmlns:cc="http://creativecommons.org/ns#"
   xmlns:rdf="http://www.w3.org/1999/02/22-rdf-syntax-ns#"
   xmlns:svg="http://www.w3.org/2000/svg"
   xmlns="http://www.w3.org/2000/svg"
   viewBox="0 0 266.66653 266.66665"
   height="266.66666"
   width="266.66653"
   xml:space="preserve"
   id="svg2"
   version="1.1"><metadata
     id="metadata8"><rdf:RDF><cc:Work
         rdf:about=""><dc:format>image/svg+xml</dc:format><dc:type
           rdf:resource="http://purl.org/dc/dcmitype/StillImage" /></cc:Work></rdf:RDF></metadata><defs
     id="defs6"><clipPath
       id="clipPath18"
       clipPathUnits="userSpaceOnUse"><path
         id="path16"
         d="M 0,256 H 256 V 0 H 0 Z" /></clipPath><clipPath
       id="clipPath26"
       clipPathUnits="userSpaceOnUse"><path
         id="path24"
         d="M 28,228 H 228 V 28 H 28 Z" /></clipPath></defs><g
     transform="matrix(1.3333333,0,0,-1.3333333,-37.333332,303.99999)"
     id="g10"><g
       id="g12"><g
         clip-path="url(#clipPath18)"
         id="g14"><g
           id="g20"><g
             id="g22" /><g
             id="g34"><g
               style="opacity:0.5"
               id="g32"
               clip-path="url(#clipPath26)"><g
                 id="g30"
                 transform="translate(205.4189,228)"><path
                   id="path28"
                   style="fill:#ffffff;fill-opacity:1;fill-rule:nonzero;stroke:none"
                   d="m 0,0 h -154.838 c -12.452,0 -22.581,-10.129 -22.581,-22.581 v -154.838 c 0,-12.451 10.129,-22.581 22.581,-22.581 L 0,-200 c 12.451,0 22.581,10.13 22.581,22.581 V -22.581 C 22.581,-10.129 12.451,0 0,0" /></g></g></g></g><g
           transform="translate(200,36)"
           id="g36"><path
             id="path38"
             style="fill:#737373;fill-opacity:1;fill-rule:nonzero;stroke:none"
             d="m 0,0 h -144 c -11.046,0 -20,8.954 -20,20 v 144 c 0,11.046 8.954,20 20,20 H 0 c 11.046,0 20,-8.954 20,-20 V 20 C 20,8.954 11.046,0 0,0" /></g><g
           transform="translate(160,112)"
           id="g40"><path
             id="path42"
             style="fill:#e77f22;fill-opacity:1;fill-rule:nonzero;stroke:none"
             d="M 0,0 V 36 L -32,54 -64,36 V 0 l 32,-18 z" /></g><g
           transform="translate(127.9756,120.1826)"
           id="g44"><path
             id="path46"
             style="fill:#ffffff;fill-opacity:1;fill-rule:nonzero;stroke:none"
             d="m 0,0 c -1.202,0 -2.3,-0.429 -3.14,-1.139 -0.133,-0.112 -0.146,-0.313 -0.02,-0.434 l 2.355,-2.282 c 0.449,-0.436 1.162,-0.437 1.612,-0.002 l 2.36,2.277 C 3.292,-1.459 3.28,-1.258 3.147,-1.145 2.307,-0.432 1.205,0 0,0" /></g><g
           transform="translate(127.9756,129.4551)"
           id="g48"><path
             id="path50"
             style="fill:#ffffff;fill-opacity:1;fill-rule:nonzero;stroke:none"
             d="M 0,0 C -3.73,0 -7.132,-1.386 -9.687,-3.654 -9.94,-3.88 -9.954,-4.262 -9.71,-4.498 l 2.948,-2.856 c 1.732,1.678 4.124,2.718 6.762,2.718 2.646,0 5.043,-1.046 6.776,-2.733 L 9.73,-4.518 C 9.974,-4.282 9.961,-3.9 9.708,-3.675 7.151,-1.394 3.74,0 0,0" /></g><g
           transform="translate(107.6885,135.207)"
           id="g52"><path
             id="path54"
             style="fill:#ffffff;fill-opacity:1;fill-rule:nonzero;stroke:none"
             d="m 0,0 c 5.198,5.037 12.374,8.157 20.287,8.157 7.936,0 15.128,-3.137 20.329,-8.198 l 2.51,2.422 c 0.49,0.473 0.48,1.238 -0.025,1.695 C 37.116,9.481 29.094,12.793 20.287,12.793 11.506,12.793 3.503,9.5 -2.476,4.122 -2.983,3.666 -2.994,2.902 -2.504,2.427 Z" /></g><g
           transform="translate(127.9756,138.7275)"
           id="g56"><path
             id="path58"
             style="fill:#ffffff;fill-opacity:1;fill-rule:nonzero;stroke:none"
             d="m 0,0 c -6.141,0 -11.75,-2.254 -15.99,-5.955 -0.507,-0.442 -0.517,-1.229 -0.034,-1.697 l 2.5,-2.422 c 3.464,3.358 8.248,5.438 13.524,5.438 5.29,0 10.085,-2.092 13.553,-5.466 l 2.504,2.417 c 0.493,0.476 0.484,1.246 -0.031,1.698 C 11.781,-2.269 6.159,0 0,0" /></g><path
           id="path60"
           style="fill:#cccccc;fill-opacity:1;fill-rule:nonzero;stroke:none"
           d="m 130,216 h -4 v 4 h 4 z" /><path
           id="path62"
           style="fill:#cccccc;fill-opacity:1;fill-rule:nonzero;stroke:none"
           d="m 130,208 h -4 v 4 h 4 z" /><path
           id="path64"
           style="fill:#cccccc;fill-opacity:1;fill-rule:nonzero;stroke:none"
           d="m 130,200 h -4 v 4 h 4 z" /><path
           id="path66"
           style="fill:#cccccc;fill-opacity:1;fill-rule:nonzero;stroke:none"
           d="m 130,192 h -4 v 4 h 4 z" /><path
           id="path68"
           style="fill:#cccccc;fill-opacity:1;fill-rule:nonzero;stroke:none"
           d="m 130,184 h -4 v 4 h 4 z" /><path
           id="path70"
           style="fill:#cccccc;fill-opacity:1;fill-rule:nonzero;stroke:none"
           d="m 130,176 h -4 v 4 h 4 z" /><path
           id="path72"
           style="fill:#cccccc;fill-opacity:1;fill-rule:nonzero;stroke:none"
           d="m 130,168 h -4 v 4 h 4 z" /><path
           id="path74"
           style="fill:#cccccc;fill-opacity:1;fill-rule:nonzero;stroke:none"
           d="m 130,88 h -4 v 4 h 4 z" /><path
           id="path76"
           style="fill:#cccccc;fill-opacity:1;fill-rule:nonzero;stroke:none"
           d="m 130,80 h -4 v 4 h 4 z" /><path
           id="path78"
           style="fill:#cccccc;fill-opacity:1;fill-rule:nonzero;stroke:none"
           d="m 130,72 h -4 v 4 h 4 z" /><path
           id="path80"
           style="fill:#cccccc;fill-opacity:1;fill-rule:nonzero;stroke:none"
           d="m 130,64 h -4 v 4 h 4 z" /><path
           id="path82"
           style="fill:#cccccc;fill-opacity:1;fill-rule:nonzero;stroke:none"
           d="m 130,56 h -4 v 4 h 4 z" /><path
           id="path84"
           style="fill:#cccccc;fill-opacity:1;fill-rule:nonzero;stroke:none"
           d="m 130,48 h -4 v 4 h 4 z" /><path
           id="path86"
           style="fill:#cccccc;fill-opacity:1;fill-rule:nonzero;stroke:none"
           d="m 130,40 h -4 v 4 h 4 z" /><g
           transform="translate(201.8965,85.9619)"
           id="g88"><path
             id="path90"
             style="fill:#cccccc;fill-opacity:1;fill-rule:nonzero;stroke:none"
             d="M 0,0 1.967,3.482 5.449,1.516 3.482,-1.968 Z" /></g><g
           transform="translate(194.9307,89.8965)"
           id="g92"><path
             id="path94"
             style="fill:#cccccc;fill-opacity:1;fill-rule:nonzero;stroke:none"
             d="M 0,0 1.967,3.482 5.45,1.516 3.482,-1.968 Z" /></g><g
           transform="translate(187.9648,93.8311)"
           id="g96"><path
             id="path98"
             style="fill:#cccccc;fill-opacity:1;fill-rule:nonzero;stroke:none"
             d="M 0,0 1.968,3.482 5.45,1.516 3.482,-1.968 Z" /></g><g
           transform="translate(180.999,97.7656)"
           id="g100"><path
             id="path102"
             style="fill:#cccccc;fill-opacity:1;fill-rule:nonzero;stroke:none"
             d="M 0,0 1.968,3.482 5.45,1.516 3.483,-1.968 Z" /></g><g
           transform="translate(174.0342,101.7002)"
           id="g104"><path
             id="path106"
             style="fill:#cccccc;fill-opacity:1;fill-rule:nonzero;stroke:none"
             d="M 0,0 1.967,3.482 5.45,1.516 3.482,-1.968 Z" /></g><g
           transform="translate(167.0684,105.6348)"
           id="g108"><path
             id="path110"
             style="fill:#cccccc;fill-opacity:1;fill-rule:nonzero;stroke:none"
             d="M 0,0 1.967,3.482 5.45,1.516 3.482,-1.968 Z" /></g><g
           transform="translate(160.1025,109.5693)"
           id="g112"><path
             id="path114"
             style="fill:#cccccc;fill-opacity:1;fill-rule:nonzero;stroke:none"
             d="M 0,0 1.968,3.482 5.45,1.516 3.483,-1.968 Z" /></g><g
           transform="translate(90.4473,148.915)"
           id="g116"><path
             id="path118"
             style="fill:#cccccc;fill-opacity:1;fill-rule:nonzero;stroke:none"
             d="M 0,0 1.967,3.483 5.45,1.516 3.483,-1.967 Z" /></g><g
           transform="translate(83.4814,152.8496)"
           id="g120"><path
             id="path122"
             style="fill:#cccccc;fill-opacity:1;fill-rule:nonzero;stroke:none"
             d="M 0,0 1.967,3.483 5.45,1.516 3.483,-1.967 Z" /></g><g
           transform="translate(76.5161,156.7847)"
           id="g124"><path
             id="path126"
             style="fill:#cccccc;fill-opacity:1;fill-rule:nonzero;stroke:none"
             d="M 0,0 1.967,3.482 5.45,1.515 3.483,-1.967 Z" /></g><g
           transform="translate(69.5503,160.7192)"
           id="g128"><path
             id="path130"
             style="fill:#cccccc;fill-opacity:1;fill-rule:nonzero;stroke:none"
             d="M 0,0 1.968,3.482 5.45,1.515 3.483,-1.967 Z" /></g><g
           transform="translate(62.585,164.6538)"
           id="g132"><path
             id="path134"
             style="fill:#cccccc;fill-opacity:1;fill-rule:nonzero;stroke:none"
             d="M 0,0 1.967,3.482 5.45,1.515 3.483,-1.967 Z" /></g><g
           transform="translate(55.6196,168.5884)"
           id="g136"><path
             id="path138"
             style="fill:#cccccc;fill-opacity:1;fill-rule:nonzero;stroke:none"
             d="M 0,0 1.967,3.482 5.45,1.515 3.482,-1.967 Z" /></g><g
           transform="translate(48.6538,172.5229)"
           id="g140"><path
             id="path142"
             style="fill:#cccccc;fill-opacity:1;fill-rule:nonzero;stroke:none"
             d="M 0,0 1.967,3.482 5.45,1.515 3.483,-1.967 Z" /></g><g
           transform="translate(203.0977,171.957)"
           id="g144"><path
             id="path146"
             style="fill:#cccccc;fill-opacity:1;fill-rule:nonzero;stroke:none"
             d="M 0,0 -2.032,3.445 1.414,5.477 3.445,2.031 Z" /></g><g
           transform="translate(196.2061,167.8936)"
           id="g148"><path
             id="path150"
             style="fill:#cccccc;fill-opacity:1;fill-rule:nonzero;stroke:none"
             d="M 0,0 -2.031,3.446 1.414,5.478 3.445,2.032 Z" /></g><g
           transform="translate(189.3145,163.8306)"
           id="g152"><path
             id="path154"
             style="fill:#cccccc;fill-opacity:1;fill-rule:nonzero;stroke:none"
             d="M 0,0 -2.031,3.445 1.414,5.477 3.446,2.031 Z" /></g><g
           transform="translate(182.4238,159.7671)"
           id="g156"><path
             id="path158"
             style="fill:#cccccc;fill-opacity:1;fill-rule:nonzero;stroke:none"
             d="M 0,0 -2.032,3.446 1.414,5.478 3.445,2.032 Z" /></g><g
           transform="translate(175.5322,155.7041)"
           id="g160"><path
             id="path162"
             style="fill:#cccccc;fill-opacity:1;fill-rule:nonzero;stroke:none"
             d="M 0,0 -2.031,3.445 1.414,5.477 3.445,2.031 Z" /></g><g
           transform="translate(168.6406,151.6406)"
           id="g164"><path
             id="path166"
             style="fill:#cccccc;fill-opacity:1;fill-rule:nonzero;stroke:none"
             d="M 0,0 -2.031,3.446 1.414,5.478 3.446,2.032 Z" /></g><g
           transform="translate(161.75,147.5776)"
           id="g168"><path
             id="path170"
             style="fill:#cccccc;fill-opacity:1;fill-rule:nonzero;stroke:none"
             d="M 0,0 -2.032,3.445 1.414,5.477 3.445,2.031 Z" /></g><g
           transform="translate(92.8364,106.9453)"
           id="g172"><path
             id="path174"
             style="fill:#cccccc;fill-opacity:1;fill-rule:nonzero;stroke:none"
             d="M 0,0 -2.032,3.445 1.414,5.478 3.446,2.031 Z" /></g><g
           transform="translate(85.9453,102.8818)"
           id="g176"><path
             id="path178"
             style="fill:#cccccc;fill-opacity:1;fill-rule:nonzero;stroke:none"
             d="M 0,0 -2.032,3.446 1.414,5.478 3.445,2.032 Z" /></g><g
           transform="translate(79.0537,98.8184)"
           id="g180"><path
             id="path182"
             style="fill:#cccccc;fill-opacity:1;fill-rule:nonzero;stroke:none"
             d="M 0,0 -2.032,3.446 1.414,5.478 3.446,2.032 Z" /></g><g
           transform="translate(72.1626,94.7559)"
           id="g184"><path
             id="path186"
             style="fill:#cccccc;fill-opacity:1;fill-rule:nonzero;stroke:none"
             d="M 0,0 -2.032,3.445 1.414,5.477 3.445,2.031 Z" /></g><g
           transform="translate(65.271,90.6924)"
           id="g188"><path
             id="path190"
             style="fill:#cccccc;fill-opacity:1;fill-rule:nonzero;stroke:none"
             d="M 0,0 -2.031,3.445 1.414,5.478 3.446,2.031 Z" /></g><g
           transform="translate(58.3799,86.6289)"
           id="g192"><path
             id="path194"
             style="fill:#cccccc;fill-opacity:1;fill-rule:nonzero;stroke:none"
             d="M 0,0 -2.032,3.446 1.414,5.478 3.446,2.032 Z" /></g><g
           transform="translate(51.4888,82.5654)"
           id="g196"><path
             id="path198"
             style="fill:#cccccc;fill-opacity:1;fill-rule:nonzero;stroke:none"
             d="M 0,0 -2.032,3.446 1.414,5.478 3.445,2.032 Z" /></g><g
           transform="translate(98.4258,47.8662)"
           id="g200"><path
             id="path202"
             style="fill:#cccccc;fill-opacity:1;fill-rule:nonzero;stroke:none"
             d="m 0,0 -3.464,2 -2,-3.465 3.464,-2 z" /></g><g
           transform="translate(91.4971,51.8662)"
           id="g204"><path
             id="path206"
             style="fill:#cccccc;fill-opacity:1;fill-rule:nonzero;stroke:none"
             d="m 0,0 -3.464,2 -2,-3.465 3.464,-2 z" /></g><g
           transform="translate(105.3535,43.8662)"
           id="g208"><path
             id="path210"
             style="fill:#cccccc;fill-opacity:1;fill-rule:nonzero;stroke:none"
             d="m 0,0 -3.464,2 -2,-3.465 3.464,-2 z" /></g><g
           transform="translate(91.4971,204.4023)"
           id="g212"><path
             id="path214"
             style="fill:#cccccc;fill-opacity:1;fill-rule:nonzero;stroke:none"
             d="m 0,0 -2,3.464 -3.464,-2 2,-3.464 z" /></g><g
           transform="translate(98.4258,208.4023)"
           id="g216"><path
             id="path218"
             style="fill:#cccccc;fill-opacity:1;fill-rule:nonzero;stroke:none"
             d="m 0,0 -2,3.464 -3.464,-2 2,-3.464 z" /></g><g
           transform="translate(112.2822,216.4023)"
           id="g220"><path
             id="path222"
             style="fill:#cccccc;fill-opacity:1;fill-rule:nonzero;stroke:none"
             d="m 0,0 -2,3.464 -3.464,-2 2,-3.464 z" /></g><g
           transform="translate(112.2822,39.8662)"
           id="g224"><path
             id="path226"
             style="fill:#cccccc;fill-opacity:1;fill-rule:nonzero;stroke:none"
             d="m 0,0 -3.465,2 -2,-3.465 3.465,-2 z" /></g><g
           transform="translate(105.3535,212.4023)"
           id="g228"><path
             id="path230"
             style="fill:#cccccc;fill-opacity:1;fill-rule:nonzero;stroke:none"
             d="m 0,0 -2,3.464 -3.464,-2 2,-3.464 z" /></g><g
           transform="translate(84.5693,200.4023)"
           id="g232"><path
             id="path234"
             style="fill:#cccccc;fill-opacity:1;fill-rule:nonzero;stroke:none"
             d="m 0,0 -2,3.464 -3.464,-2 2,-3.464 z" /></g><path
           id="path236"
           style="fill:#cccccc;fill-opacity:1;fill-rule:nonzero;stroke:none"
           d="m 40,94.134 h 4 v 4 h -4 z" /><path
           id="path238"
           style="fill:#cccccc;fill-opacity:1;fill-rule:nonzero;stroke:none"
           d="m 40,102.134 h 4 v 4 h -4 z" /><path
           id="path240"
           style="fill:#cccccc;fill-opacity:1;fill-rule:nonzero;stroke:none"
           d="m 40,110.134 h 4 v 4 h -4 z" /><path
           id="path242"
           style="fill:#cccccc;fill-opacity:1;fill-rule:nonzero;stroke:none"
           d="m 40,86.134 h 4 v 4 h -4 z" /><g
           transform="translate(118.5137,220)"
           id="g244"><path
             id="path246"
             style="fill:#cccccc;fill-opacity:1;fill-rule:nonzero;stroke:none"
             d="m 0,0 h -3.69 l 0.922,-1.598 z" /></g><g
           transform="translate(84.5693,55.8662)"
           id="g248"><path
             id="path250"
             style="fill:#cccccc;fill-opacity:1;fill-rule:nonzero;stroke:none"
             d="m 0,0 -3.464,2 -2,-3.465 3.464,-2 z" /></g><path
           id="path252"
           style="fill:#cccccc;fill-opacity:1;fill-rule:nonzero;stroke:none"
           d="m 40,78.134 h 4 v 4 h -4 z" /><g
           transform="translate(77.6406,196.4023)"
           id="g254"><path
             id="path256"
             style="fill:#cccccc;fill-opacity:1;fill-rule:nonzero;stroke:none"
             d="m 0,0 -2,3.464 -3.464,-2 2,-3.464 z" /></g><g
           transform="translate(169.9668,50.1338)"
           id="g258"><path
             id="path260"
             style="fill:#cccccc;fill-opacity:1;fill-rule:nonzero;stroke:none"
             d="m 0,0 -2,3.465 -3.464,-2 2,-3.465 z" /></g><g
           transform="translate(183.8232,197.5986)"
           id="g262"><path
             id="path264"
             style="fill:#cccccc;fill-opacity:1;fill-rule:nonzero;stroke:none"
             d="m 0,0 -3.464,2 -2,-3.464 3.464,-2 z" /></g><g
           transform="translate(183.8232,58.1338)"
           id="g266"><path
             id="path268"
             style="fill:#cccccc;fill-opacity:1;fill-rule:nonzero;stroke:none"
             d="m 0,0 -2,3.465 -3.464,-2 2,-3.465 z" /></g><g
           transform="translate(176.8945,201.5986)"
           id="g270"><path
             id="path272"
             style="fill:#cccccc;fill-opacity:1;fill-rule:nonzero;stroke:none"
             d="m 0,0 -3.464,2 -2,-3.464 3.464,-2 z" /></g><g
           transform="translate(190.751,62.1338)"
           id="g274"><path
             id="path276"
             style="fill:#cccccc;fill-opacity:1;fill-rule:nonzero;stroke:none"
             d="m 0,0 -2,3.465 -3.464,-2 2,-3.465 z" /></g><g
           transform="translate(176.8945,54.1338)"
           id="g278"><path
             id="path280"
             style="fill:#cccccc;fill-opacity:1;fill-rule:nonzero;stroke:none"
             d="m 0,0 -2,3.465 -3.464,-2 2,-3.465 z" /></g><g
           transform="translate(137.4844,36)"
           id="g282"><path
             id="path284"
             style="fill:#cccccc;fill-opacity:1;fill-rule:nonzero;stroke:none"
             d="M 0,0 H 3.692 L 2.77,1.599 Z" /></g><g
           transform="translate(190.751,193.5986)"
           id="g286"><path
             id="path288"
             style="fill:#cccccc;fill-opacity:1;fill-rule:nonzero;stroke:none"
             d="m 0,0 -3.464,2 -2,-3.464 3.464,-2 z" /></g><g
           transform="translate(114.6689,36)"
           id="g290"><path
             id="path292"
             style="fill:#cccccc;fill-opacity:1;fill-rule:nonzero;stroke:none"
             d="M 0,0 H 4.31 L 1.077,1.866 Z" /></g><g
           transform="translate(156.1104,42.1338)"
           id="g294"><path
             id="path296"
             style="fill:#cccccc;fill-opacity:1;fill-rule:nonzero;stroke:none"
             d="m 0,0 -2,3.465 -3.464,-2 2,-3.465 z" /></g><g
           transform="translate(156.1104,213.5986)"
           id="g298"><path
             id="path300"
             style="fill:#cccccc;fill-opacity:1;fill-rule:nonzero;stroke:none"
             d="m 0,0 -3.464,2 -2,-3.464 3.464,-2 z" /></g><g
           transform="translate(141.3311,220)"
           id="g302"><path
             id="path304"
             style="fill:#cccccc;fill-opacity:1;fill-rule:nonzero;stroke:none"
             d="m 0,0 h -4.308 l 3.231,-1.865 z" /></g><g
           transform="translate(149.1816,217.5986)"
           id="g306"><path
             id="path308"
             style="fill:#cccccc;fill-opacity:1;fill-rule:nonzero;stroke:none"
             d="m 0,0 -3.464,2 -2,-3.464 3.464,-2 z" /></g><g
           transform="translate(169.9668,205.5986)"
           id="g310"><path
             id="path312"
             style="fill:#cccccc;fill-opacity:1;fill-rule:nonzero;stroke:none"
             d="m 0,0 -3.464,2 -2,-3.464 3.464,-2 z" /></g><g
           transform="translate(149.1826,38.1338)"
           id="g314"><path
             id="path316"
             style="fill:#cccccc;fill-opacity:1;fill-rule:nonzero;stroke:none"
             d="m 0,0 -2,3.465 -3.465,-2 2,-3.465 z" /></g><path
           id="path318"
           style="fill:#cccccc;fill-opacity:1;fill-rule:nonzero;stroke:none"
           d="m 40,118.134 h 4 v 4 h -4 z" /><g
           transform="translate(163.0381,209.5986)"
           id="g320"><path
             id="path322"
             style="fill:#cccccc;fill-opacity:1;fill-rule:nonzero;stroke:none"
             d="m 0,0 -3.464,2 -2,-3.464 3.464,-2 z" /></g><g
           transform="translate(163.0381,46.1338)"
           id="g324"><path
             id="path326"
             style="fill:#cccccc;fill-opacity:1;fill-rule:nonzero;stroke:none"
             d="m 0,0 -2,3.465 -3.464,-2 2,-3.465 z" /></g><path
           id="path328"
           style="fill:#cccccc;fill-opacity:1;fill-rule:nonzero;stroke:none"
           d="m 40,126.134 h 4 v 4 h -4 z" /><path
           id="path330"
           style="fill:#cccccc;fill-opacity:1;fill-rule:nonzero;stroke:none"
           d="m 212,85.866 h 4 v 4 h -4 z" /><path
           id="path332"
           style="fill:#cccccc;fill-opacity:1;fill-rule:nonzero;stroke:none"
           d="m 212,93.866 h 4 v 4 h -4 z" /><path
           id="path334"
           style="fill:#cccccc;fill-opacity:1;fill-rule:nonzero;stroke:none"
           d="m 212,101.866 h 4 v 4 h -4 z" /><path
           id="path336"
           style="fill:#cccccc;fill-opacity:1;fill-rule:nonzero;stroke:none"
           d="m 212,77.866 h 4 v 4 h -4 z" /><g
           transform="translate(206.0723,75.5986)"
           id="g338"><path
             id="path340"
             style="fill:#cccccc;fill-opacity:1;fill-rule:nonzero;stroke:none"
             d="m 0,0 2,-3.465 3.464,2 -2,3.465 z" /></g><g
           transform="translate(199.1436,184.1348)"
           id="g342"><path
             id="path344"
             style="fill:#cccccc;fill-opacity:1;fill-rule:nonzero;stroke:none"
             d="m 0,0 3.464,-2 2,3.464 -3.464,2 z" /></g><g
           transform="translate(206.0723,180.1348)"
           id="g346"><path
             id="path348"
             style="fill:#cccccc;fill-opacity:1;fill-rule:nonzero;stroke:none"
             d="m 0,0 3.464,-2 2,3.464 -3.464,2 z" /></g><path
           id="path350"
           style="fill:#cccccc;fill-opacity:1;fill-rule:nonzero;stroke:none"
           d="m 212,109.866 h 4 v 4 h -4 z" /><g
           transform="translate(199.1436,71.5986)"
           id="g352"><path
             id="path354"
             style="fill:#cccccc;fill-opacity:1;fill-rule:nonzero;stroke:none"
             d="m 0,0 2,-3.465 3.464,2 -2,3.465 z" /></g><path
           id="path356"
           style="fill:#cccccc;fill-opacity:1;fill-rule:nonzero;stroke:none"
           d="m 212,165.866 h 4 v 4 h -4 z" /><path
           id="path358"
           style="fill:#cccccc;fill-opacity:1;fill-rule:nonzero;stroke:none"
           d="m 212,157.866 h 4 v 4 h -4 z" /><path
           id="path360"
           style="fill:#cccccc;fill-opacity:1;fill-rule:nonzero;stroke:none"
           d="m 212,173.866 h 4 v 4 h -4 z" /><path
           id="path362"
           style="fill:#cccccc;fill-opacity:1;fill-rule:nonzero;stroke:none"
           d="m 212,149.866 h 4 v 4 h -4 z" /><path
           id="path364"
           style="fill:#cccccc;fill-opacity:1;fill-rule:nonzero;stroke:none"
           d="m 212,141.866 h 4 v 4 h -4 z" /><path
           id="path366"
           style="fill:#cccccc;fill-opacity:1;fill-rule:nonzero;stroke:none"
           d="m 212,125.866 h 4 v 4 h -4 z" /><path
           id="path368"
           style="fill:#cccccc;fill-opacity:1;fill-rule:nonzero;stroke:none"
           d="m 212,117.866 h 4 v 4 h -4 z" /><path
           id="path370"
           style="fill:#cccccc;fill-opacity:1;fill-rule:nonzero;stroke:none"
           d="m 212,133.866 h 4 v 4 h -4 z" /><g
           transform="translate(65.249,62.4014)"
           id="g372"><path
             id="path374"
             style="fill:#cccccc;fill-opacity:1;fill-rule:nonzero;stroke:none"
             d="m 0,0 3.464,-2 2,3.465 -3.464,2 z" /></g><path
           id="path376"
           style="fill:#cccccc;fill-opacity:1;fill-rule:nonzero;stroke:none"
           d="m 40,166.134 h 4 v 4 h -4 z" /><g
           transform="translate(44.4639,74.4014)"
           id="g378"><path
             id="path380"
             style="fill:#cccccc;fill-opacity:1;fill-rule:nonzero;stroke:none"
             d="m 0,0 3.464,-2 2,3.465 -3.464,2 z" /></g><path
           id="path382"
           style="fill:#cccccc;fill-opacity:1;fill-rule:nonzero;stroke:none"
           d="m 40,174.134 h 4 v 4 h -4 z" /><g
           transform="translate(192.2158,188.1348)"
           id="g384"><path
             id="path386"
             style="fill:#cccccc;fill-opacity:1;fill-rule:nonzero;stroke:none"
             d="m 0,0 3.464,-2 2,3.464 -3.464,2 z" /></g><path
           id="path388"
           style="fill:#cccccc;fill-opacity:1;fill-rule:nonzero;stroke:none"
           d="m 40,150.134 h 4 v 4 h -4 z" /><path
           id="path390"
           style="fill:#cccccc;fill-opacity:1;fill-rule:nonzero;stroke:none"
           d="m 40,142.134 h 4 v 4 h -4 z" /><path
           id="path392"
           style="fill:#cccccc;fill-opacity:1;fill-rule:nonzero;stroke:none"
           d="m 40,158.134 h 4 v 4 h -4 z" /><g
           transform="translate(51.3926,70.4014)"
           id="g394"><path
             id="path396"
             style="fill:#cccccc;fill-opacity:1;fill-rule:nonzero;stroke:none"
             d="m 0,0 3.464,-2 2,3.465 -3.464,2 z" /></g><g
           transform="translate(44.4639,181.8662)"
           id="g398"><path
             id="path400"
             style="fill:#cccccc;fill-opacity:1;fill-rule:nonzero;stroke:none"
             d="m 0,0 2,-3.464 3.464,2 -2,3.464 z" /></g><g
           transform="translate(51.3926,185.8662)"
           id="g402"><path
             id="path404"
             style="fill:#cccccc;fill-opacity:1;fill-rule:nonzero;stroke:none"
             d="m 0,0 2,-3.464 3.464,2 -2,3.464 z" /></g><g
           transform="translate(192.2158,67.5986)"
           id="g406"><path
             id="path408"
             style="fill:#cccccc;fill-opacity:1;fill-rule:nonzero;stroke:none"
             d="m 0,0 2,-3.465 3.464,2 -2,3.465 z" /></g><g
           transform="translate(65.249,193.8662)"
           id="g410"><path
             id="path412"
             style="fill:#cccccc;fill-opacity:1;fill-rule:nonzero;stroke:none"
             d="m 0,0 2,-3.464 3.464,2 -2,3.464 z" /></g><g
           transform="translate(74.1768,61.8662)"
           id="g414"><path
             id="path416"
             style="fill:#cccccc;fill-opacity:1;fill-rule:nonzero;stroke:none"
             d="m 0,0 -2,-3.465 3.464,-2 2,3.465 z" /></g><path
           id="path418"
           style="fill:#cccccc;fill-opacity:1;fill-rule:nonzero;stroke:none"
           d="m 40,134.134 h 4 v 4 h -4 z" /><g
           transform="translate(58.3203,66.4014)"
           id="g420"><path
             id="path422"
             style="fill:#cccccc;fill-opacity:1;fill-rule:nonzero;stroke:none"
             d="m 0,0 3.464,-2 2,3.465 -3.464,2 z" /></g><g
           transform="translate(58.3203,189.8662)"
           id="g424"><path
             id="path426"
             style="fill:#cccccc;fill-opacity:1;fill-rule:nonzero;stroke:none"
             d="m 0,0 2,-3.464 3.464,2 -2,3.464 z" /></g></g></g></g></svg>