<?xml version="1.0" encoding="UTF-8" standalone="no"?>
<svg
   xmlns:dc="http://purl.org/dc/elements/1.1/"
   xmlns:cc="http://creativecommons.org/ns#"
   xmlns:rdf="http://www.w3.org/1999/02/22-rdf-syntax-ns#"
   xmlns:svg="http://www.w3.org/2000/svg"
   xmlns="http://www.w3.org/2000/svg"
   viewBox="0 0 266.66653 266.66665"
   height="266.66666"
   width="266.66653"
   xml:space="preserve"
   id="svg2"
   version="1.1"><metadata
     id="metadata8"><rdf:RDF><cc:Work
         rdf:about=""><dc:format>image/svg+xml</dc:format><dc:type
           rdf:resource="http://purl.org/dc/dcmitype/StillImage" /></cc:Work></rdf:RDF></metadata><defs
     id="defs6"><clipPath
       id="clipPath18"
       clipPathUnits="userSpaceOnUse"><path
         id="path16"
         d="M 0,256 H 256 V 0 H 0 Z" /></clipPath><clipPath
       id="clipPath26"
       clipPathUnits="userSpaceOnUse"><path
         id="path24"
         d="M 28,228 H 228 V 28 H 28 Z" /></clipPath></defs><g
     transform="matrix(1.3333333,0,0,-1.3333333,-37.333332,303.99999)"
     id="g10"><g
       id="g12"><g
         clip-path="url(#clipPath18)"
         id="g14"><g
           id="g20"><g
             id="g22" /><g
             id="g34"><g
               style="opacity:0.5"
               id="g32"
               clip-path="url(#clipPath26)"><g
                 id="g30"
                 transform="translate(205.4189,228)"><path
                   id="path28"
                   style="fill:#ffffff;fill-opacity:1;fill-rule:nonzero;stroke:none"
                   d="m 0,0 h -154.838 c -12.452,0 -22.581,-10.129 -22.581,-22.581 v -154.838 c 0,-12.451 10.129,-22.581 22.581,-22.581 L 0,-200 c 12.451,0 22.581,10.13 22.581,22.581 V -22.581 C 22.581,-10.129 12.451,0 0,0" /></g></g></g></g><g
           transform="translate(200,36)"
           id="g36"><path
             id="path38"
             style="fill:#737373;fill-opacity:1;fill-rule:nonzero;stroke:none"
             d="m 0,0 h -144 c -11.046,0 -20,8.954 -20,20 v 144 c 0,11.046 8.954,20 20,20 H 0 c 11.046,0 20,-8.954 20,-20 V 20 C 20,8.954 11.046,0 0,0" /></g><g
           transform="translate(204,172)"
           id="g40"><path
             id="path42"
             style="fill:#404040;fill-opacity:1;fill-rule:nonzero;stroke:none"
             d="M 0,0 H -4.471 -147.529 -152 V -4.4 -83.6 -88 h 4.471 H -4.471 0 v 4.4 79.2 z" /></g><path
           id="path44"
           style="fill:#000000;fill-opacity:1;fill-rule:nonzero;stroke:none"
           d="M 200,88 H 56 v 80 h 144 z" /><g
           transform="translate(71,124)"
           id="g46"><path
             id="path48"
             style="fill:#ffffff;fill-opacity:1;fill-rule:nonzero;stroke:none"
             d="M 0,0 H -2 C -4.444,0 -6.484,-1.763 -6.916,-4.084 -9.237,-4.516 -11,-6.556 -11,-9 v -2 c 0,-2.444 1.763,-4.484 4.084,-4.916 C -6.484,-18.237 -4.444,-20 -2,-20 h 2 c 2.444,0 4.484,1.763 4.916,4.084 C 7.237,-15.484 9,-13.444 9,-11 v 2 C 9,-6.556 7.237,-4.516 4.916,-4.084 4.484,-1.763 2.444,0 0,0 m 0,-4 c 0.552,0 1,-0.447 1,-1 v -3 h 3 c 0.552,0 1,-0.447 1,-1 v -2 c 0,-0.553 -0.448,-1 -1,-1 H 1 v -3 c 0,-0.553 -0.448,-1 -1,-1 h -2 c -0.552,0 -1,0.447 -1,1 v 3 h -3 c -0.552,0 -1,0.447 -1,1 v 2 c 0,0.553 0.448,1 1,1 h 3 v 3 c 0,0.553 0.448,1 1,1 h 2" /></g><g
           transform="translate(80,108)"
           id="g50"><path
             id="path52"
             style="fill:#ffffff;fill-opacity:1;fill-rule:nonzero;stroke:none"
             d="m 0,0 c -4.411,0 -8,-3.589 -8,-8 0,-4.411 3.589,-8 8,-8 4.411,0 8,3.589 8,8 0,4.411 -3.589,8 -8,8 m 0,-4 c 2.209,0 4,-1.791 4,-4 0,-2.209 -1.791,-4 -4,-4 -2.209,0 -4,1.791 -4,4 0,2.209 1.791,4 4,4" /></g><g
           transform="translate(176,108)"
           id="g54"><path
             id="path56"
             style="fill:#ffffff;fill-opacity:1;fill-rule:nonzero;stroke:none"
             d="m 0,0 c -4.411,0 -8,-3.589 -8,-8 0,-4.411 3.589,-8 8,-8 4.411,0 8,3.589 8,8 0,4.411 -3.589,8 -8,8 m 0,-4 c 2.209,0 4,-1.791 4,-4 0,-2.209 -1.791,-4 -4,-4 -2.209,0 -4,1.791 -4,4 0,2.209 1.791,4 4,4" /></g><g
           transform="translate(186,124)"
           id="g58"><path
             id="path60"
             style="fill:#ffffff;fill-opacity:1;fill-rule:nonzero;stroke:none"
             d="M 0,0 C -2.703,0 -4.994,-1.796 -5.742,-4.258 -8.204,-5.006 -10,-7.297 -10,-10 c 0,-2.703 1.796,-4.994 4.258,-5.742 C -4.994,-18.204 -2.703,-20 0,-20 c 2.703,0 4.994,1.796 5.742,4.258 C 8.204,-14.994 10,-12.703 10,-10 10,-7.297 8.204,-5.006 5.742,-4.258 4.994,-1.796 2.703,0 0,0 m 0,-12 c 1.104,0 2,-0.896 2,-2 0,-1.104 -0.896,-2 -2,-2 -1.104,0 -2,0.896 -2,2 0,1.104 0.896,2 2,2 m -4,4 c 1.104,0 2,-0.896 2,-2 0,-1.104 -0.896,-2 -2,-2 -1.104,0 -2,0.896 -2,2 0,1.104 0.896,2 2,2 m 8,0 c 1.104,0 2,-0.896 2,-2 0,-1.104 -0.896,-2 -2,-2 -1.104,0 -2,0.896 -2,2 0,1.104 0.896,2 2,2 m -4,4 c 1.104,0 2,-0.896 2,-2 0,-1.104 -0.896,-2 -2,-2 -1.104,0 -2,0.896 -2,2 0,1.104 0.896,2 2,2" /></g><g
           transform="translate(104,156)"
           id="g62"><path
             id="path64"
             style="fill:#404040;fill-opacity:1;fill-rule:nonzero;stroke:none"
             d="m 0,0 -4,6 c 0,1.104 0.896,2 2,2 H 2 C 3.104,8 4,7.104 4,6 Z" /></g><g
           transform="translate(116,156)"
           id="g66"><path
             id="path68"
             style="fill:#404040;fill-opacity:1;fill-rule:nonzero;stroke:none"
             d="m 0,0 -4,6 c 0,1.104 0.896,2 2,2 H 2 C 3.104,8 4,7.104 4,6 Z" /></g><g
           transform="translate(128,144)"
           id="g70"><path
             id="path72"
             style="fill:#404040;fill-opacity:1;fill-rule:nonzero;stroke:none"
             d="M 0,0 V 0 C -2.209,0 -4,1.791 -4,4 V 8 H 4 V 4 C 4,1.791 2.209,0 0,0" /></g><g
           transform="translate(140,144)"
           id="g74"><path
             id="path76"
             style="fill:#404040;fill-opacity:1;fill-rule:nonzero;stroke:none"
             d="M 0,0 V 0 C -2.209,0 -4,1.791 -4,4 V 8 H 4 V 4 C 4,1.791 2.209,0 0,0" /></g><g
           transform="translate(152,144)"
           id="g78"><path
             id="path80"
             style="fill:#404040;fill-opacity:1;fill-rule:nonzero;stroke:none"
             d="M 0,0 V 0 C -2.209,0 -4,1.791 -4,4 V 8 H 4 V 4 C 4,1.791 2.209,0 0,0" /></g><g
           transform="translate(116,144)"
           id="g82"><path
             id="path84"
             style="fill:#404040;fill-opacity:1;fill-rule:nonzero;stroke:none"
             d="M 0,0 V 0 C -2.209,0 -4,1.791 -4,4 V 8 H 4 V 4 C 4,1.791 2.209,0 0,0" /></g><g
           transform="translate(104,144)"
           id="g86"><path
             id="path88"
             style="fill:#404040;fill-opacity:1;fill-rule:nonzero;stroke:none"
             d="M 0,0 V 0 C -2.209,0 -4,1.791 -4,4 V 8 H 4 V 4 C 4,1.791 2.209,0 0,0" /></g><g
           transform="translate(128,156)"
           id="g90"><path
             id="path92"
             style="fill:#404040;fill-opacity:1;fill-rule:nonzero;stroke:none"
             d="m 0,0 -4,6 c 0,1.104 0.896,2 2,2 H 2 C 3.104,8 4,7.104 4,6 Z" /></g><g
           transform="translate(140,156)"
           id="g94"><path
             id="path96"
             style="fill:#404040;fill-opacity:1;fill-rule:nonzero;stroke:none"
             d="m 0,0 -4,6 c 0,1.104 0.896,2 2,2 H 2 C 3.104,8 4,7.104 4,6 Z" /></g><g
           transform="translate(152,156)"
           id="g98"><path
             id="path100"
             style="fill:#404040;fill-opacity:1;fill-rule:nonzero;stroke:none"
             d="m 0,0 -4,6 c 0,1.104 0.896,2 2,2 H 2 C 3.104,8 4,7.104 4,6 Z" /></g><g
           transform="translate(112,104)"
           id="g102"><path
             id="path104"
             style="fill:#404040;fill-opacity:1;fill-rule:nonzero;stroke:none"
             d="m 0,0 h -8 v 6 c 0,1.104 0.896,2 2,2 h 4 C -0.896,8 0,7.104 0,6 Z" /></g><g
           transform="translate(124,104)"
           id="g106"><path
             id="path108"
             style="fill:#404040;fill-opacity:1;fill-rule:nonzero;stroke:none"
             d="m 0,0 h -8 v 6 c 0,1.104 0.896,2 2,2 h 4 C -0.896,8 0,7.104 0,6 Z" /></g><g
           transform="translate(140,104)"
           id="g110"><path
             id="path112"
             style="fill:#404040;fill-opacity:1;fill-rule:nonzero;stroke:none"
             d="m 0,0 h -8 v 6 c 0,1.104 0.896,2 2,2 h 4 C -0.896,8 0,7.104 0,6 Z" /></g><g
           transform="translate(152,104)"
           id="g114"><path
             id="path116"
             style="fill:#404040;fill-opacity:1;fill-rule:nonzero;stroke:none"
             d="m 0,0 h -8 v 6 c 0,1.104 0.896,2 2,2 h 4 C -0.896,8 0,7.104 0,6 Z" /></g><g
           transform="translate(130,112)"
           id="g118"><path
             id="path120"
             style="fill:#999999;fill-opacity:1;fill-rule:nonzero;stroke:none"
             d="M 0,0 V 0 C -1.104,0 -2,0.896 -2,2 -2,3.104 -1.104,4 0,4 1.104,4 2,3.104 2,2 2,0.896 1.104,0 0,0" /></g><g
           transform="translate(126,120)"
           id="g122"><path
             id="path124"
             style="fill:#999999;fill-opacity:1;fill-rule:nonzero;stroke:none"
             d="M 0,0 V 0 C -1.104,0 -2,0.896 -2,2 -2,3.104 -1.104,4 0,4 1.104,4 2,3.104 2,2 2,0.896 1.104,0 0,0" /></g><g
           transform="translate(126,136)"
           id="g126"><path
             id="path128"
             style="fill:#999999;fill-opacity:1;fill-rule:nonzero;stroke:none"
             d="M 0,0 V 0 C -1.104,0 -2,0.896 -2,2 -2,3.104 -1.104,4 0,4 1.104,4 2,3.104 2,2 2,0.896 1.104,0 0,0" /></g><g
           transform="translate(130,128)"
           id="g130"><path
             id="path132"
             style="fill:#999999;fill-opacity:1;fill-rule:nonzero;stroke:none"
             d="M 0,0 V 0 C -1.104,0 -2,0.896 -2,2 -2,3.104 -1.104,4 0,4 1.104,4 2,3.104 2,2 2,0.896 1.104,0 0,0" /></g><g
           transform="translate(132,96)"
           id="g134"><path
             id="path136"
             style="fill:#999999;fill-opacity:1;fill-rule:nonzero;stroke:none"
             d="M 0,0 C 0,2.209 -1.791,4 -4,4 -6.209,4 -8,2.209 -8,0 l -4,-4 H 4 Z" /></g></g></g></g></svg>