<?xml version="1.0" encoding="UTF-8" standalone="no"?>
<svg
   xmlns:dc="http://purl.org/dc/elements/1.1/"
   xmlns:cc="http://creativecommons.org/ns#"
   xmlns:rdf="http://www.w3.org/1999/02/22-rdf-syntax-ns#"
   xmlns:svg="http://www.w3.org/2000/svg"
   xmlns="http://www.w3.org/2000/svg"
   viewBox="0 0 266.66653 266.66665"
   height="266.66666"
   width="266.66653"
   xml:space="preserve"
   id="svg2"
   version="1.1"><metadata
     id="metadata8"><rdf:RDF><cc:Work
         rdf:about=""><dc:format>image/svg+xml</dc:format><dc:type
           rdf:resource="http://purl.org/dc/dcmitype/StillImage" /></cc:Work></rdf:RDF></metadata><defs
     id="defs6"><clipPath
       id="clipPath18"
       clipPathUnits="userSpaceOnUse"><path
         id="path16"
         d="M 0,256 H 256 V 0 H 0 Z" /></clipPath><clipPath
       id="clipPath26"
       clipPathUnits="userSpaceOnUse"><path
         id="path24"
         d="M 28,228 H 228 V 28 H 28 Z" /></clipPath></defs><g
     transform="matrix(1.3333333,0,0,-1.3333333,-37.333332,303.99999)"
     id="g10"><g
       id="g12"><g
         clip-path="url(#clipPath18)"
         id="g14"><g
           id="g20"><g
             id="g22" /><g
             id="g34"><g
               style="opacity:0.5"
               id="g32"
               clip-path="url(#clipPath26)"><g
                 id="g30"
                 transform="translate(205.4189,228)"><path
                   id="path28"
                   style="fill:#ffffff;fill-opacity:1;fill-rule:nonzero;stroke:none"
                   d="m 0,0 h -154.838 c -12.452,0 -22.581,-10.129 -22.581,-22.581 v -154.838 c 0,-12.451 10.129,-22.581 22.581,-22.581 L 0,-200 c 12.451,0 22.581,10.13 22.581,22.581 V -22.581 C 22.581,-10.129 12.451,0 0,0" /></g></g></g></g><g
           transform="translate(200,36)"
           id="g36"><path
             id="path38"
             style="fill:#737373;fill-opacity:1;fill-rule:nonzero;stroke:none"
             d="m 0,0 h -144 c -11.046,0 -20,8.954 -20,20 v 144 c 0,11.046 8.954,20 20,20 H 0 c 11.046,0 20,-8.954 20,-20 V 20 C 20,8.954 11.046,0 0,0" /></g><g
           transform="translate(128,200)"
           id="g40"><path
             id="path42"
             style="fill:#a3834a;fill-opacity:1;fill-rule:nonzero;stroke:none"
             d="M 0,0 C -12.255,0 -31.952,-3.911 -32.785,-4.078 L -36,-4.721 V -8 c 0,-12.405 -20.457,-16.021 -20.664,-16.055 l -3.841,-0.653 0.545,-3.858 8,-55.999 0.016,-0.111 0.022,-0.108 c 3.454,-17.275 13.271,-32.943 28.389,-45.312 11.346,-9.283 21.616,-13.445 22.048,-13.618 l 1.485,-0.595 1.485,0.595 c 0.432,0.173 10.703,4.335 22.048,13.618 15.117,12.369 24.935,28.037 28.389,45.312 l 0.022,0.108 0.016,0.111 8,55.999 0.553,3.869 -3.856,0.643 C 56.457,-24.021 36,-20.405 36,-8 v 3.279 l -3.216,0.643 C 31.952,-3.911 12.255,0 0,0" /></g><g
           transform="translate(160,192)"
           id="g44"><path
             id="path46"
             style="fill:#bf9a57;fill-opacity:1;fill-rule:nonzero;stroke:none"
             d="m 0,0 c 0,0 -20,4 -32,4 -12,0 -32,-4 -32,-4 0,-16 -24,-20 -24,-20 l 8,-56 c 8,-40 48,-56 48,-56 0,0 40,16 48,56 l 8,56 c 0,0 -24,4 -24,20" /></g><g
           transform="translate(72,172)"
           id="g48"><path
             id="path50"
             style="fill:#d9af63;fill-opacity:1;fill-rule:nonzero;stroke:none"
             d="m 0,0 c 0,0 24,4 24,20 0,0 20,4 32,4 v -136 c 0,0 -40,16 -48,56 z" /></g><g
           transform="translate(112,144.1177)"
           id="g52"><path
             id="path54"
             style="fill:#737373;fill-opacity:1;fill-rule:nonzero;stroke:none"
             d="M 0,0 C 0,8.298 7.682,15.882 16,15.882 24.317,15.882 32,8.298 32,0 v -8.118 h 8 V 0 C 40,13.436 29.467,23.882 16,23.882 2.533,23.882 -8,13.436 -8,0 v -8.118 h 8 z" /></g><g
           transform="translate(152,136)"
           id="g56"><path
             id="path58"
             style="fill:#808080;fill-opacity:1;fill-rule:nonzero;stroke:none"
             d="m 0,0 h -8 -16 -16 -8 -4 v -33.526 c 0,-1.367 1.11,-2.474 2.479,-2.474 H 1.521 C 2.89,-36 4,-34.893 4,-33.526 V 0 Z" /></g><path
           id="path60"
           style="fill:#737373;fill-opacity:1;fill-rule:nonzero;stroke:none"
           d="m 156,104 h -56 v 4 h 56 z" /><path
           id="path62"
           style="fill:#737373;fill-opacity:1;fill-rule:nonzero;stroke:none"
           d="m 156,112 h -56 v 4 h 56 z" /></g></g></g></svg>