<?xml version="1.0" encoding="UTF-8" standalone="no"?>
<svg
   xmlns:dc="http://purl.org/dc/elements/1.1/"
   xmlns:cc="http://creativecommons.org/ns#"
   xmlns:rdf="http://www.w3.org/1999/02/22-rdf-syntax-ns#"
   xmlns:svg="http://www.w3.org/2000/svg"
   xmlns="http://www.w3.org/2000/svg"
   viewBox="0 0 319.9996 233.1364"
   height="233.1364"
   width="319.9996"
   xml:space="preserve"
   id="svg2"
   version="1.1"><metadata
     id="metadata8"><rdf:RDF><cc:Work
         rdf:about=""><dc:format>image/svg+xml</dc:format><dc:type
           rdf:resource="http://purl.org/dc/dcmitype/StillImage" /></cc:Work></rdf:RDF></metadata><defs
     id="defs6"><clipPath
       id="clipPath18"
       clipPathUnits="userSpaceOnUse"><path
         id="path16"
         d="M 0,256 H 256 V 0 H 0 Z" /></clipPath><clipPath
       id="clipPath26"
       clipPathUnits="userSpaceOnUse"><path
         id="path24"
         d="M 8,215.426 H 248 V 40.5736 H 8 Z" /></clipPath></defs><g
     transform="matrix(1.3333333,0,0,-1.3333333,-10.667066,287.23453)"
     id="g10"><g
       id="g12"><g
         clip-path="url(#clipPath18)"
         id="g14"><g
           id="g20"><g
             id="g22" /><g
             id="g34"><g
               style="opacity:0.5"
               id="g32"
               clip-path="url(#clipPath26)"><g
                 id="g30"
                 transform="translate(231.1553,178.7549)"><path
                   id="path28"
                   style="fill:#ffffff;fill-opacity:1;fill-rule:nonzero;stroke:none"
                   d="m 0,0 c -2.647,5.295 -4.978,9.955 -7.705,14.037 -1.719,8.753 -7.497,15.324 -16.826,19.08 -7.296,2.938 -15.458,3.554 -21.02,3.554 -1.424,0 -2.834,-0.039 -4.189,-0.117 -3.398,-0.196 -6.321,-2.081 -7.973,-4.81 -5.32,-1.555 -9.157,-4.051 -11.633,-6.116 -2.862,-2.387 -5.855,-4.102 -8.895,-5.097 -12.406,-4.062 -24.791,-4.109 -24.914,-4.109 -0.114,0 -12.612,0.081 -24.914,4.109 -3.04,0.995 -6.033,2.71 -8.896,5.097 -2.476,2.065 -6.313,4.561 -11.633,6.116 -1.652,2.729 -4.575,4.614 -7.971,4.81 -1.355,0.078 -2.765,0.117 -4.191,0.117 -5.561,0 -13.723,-0.616 -21.019,-3.554 -9.33,-3.756 -15.108,-10.326 -16.826,-19.08 -2.728,-4.082 -5.058,-8.742 -7.706,-14.037 -9.13,-18.262 -16.844,-63.862 -16.844,-99.578 0,-0.359 0.029,-8.871 2.496,-17.5 5.249,-18.361 16.662,-21.104 22.998,-21.104 8.916,0 18.971,5.156 30.703,15.752 l 0.603,0.452 c 0.292,0.218 30.401,22.4 63.2,22.4 32.952,0 62.901,-22.176 63.2,-22.4 l 0.602,-0.452 c 11.733,-10.596 21.788,-15.752 30.704,-15.752 6.336,0 17.752,2.743 23,21.104 2.465,8.63 2.494,17.142 2.494,17.501 C 16.845,-63.862 9.131,-18.262 0,0" /></g></g></g></g><g
           transform="translate(60,64)"
           id="g36"><path
             id="path38"
             style="fill:#b3b3b3;fill-opacity:1;fill-rule:nonzero;stroke:none"
             d="M 0,0 C 0,0 32,24 68,24 104,24 136,0 136,0 V 32 H 0 Z" /></g><g
           transform="translate(180,200)"
           id="g40"><path
             id="path42"
             style="fill:#cccccc;fill-opacity:1;fill-rule:nonzero;stroke:none"
             d="M 0,0 V 6.148 C 0,7.207 0.817,8.084 1.875,8.145 9.268,8.571 36,8.681 36,-12 Z" /></g><g
           transform="translate(76,200)"
           id="g44"><path
             id="path46"
             style="fill:#cccccc;fill-opacity:1;fill-rule:nonzero;stroke:none"
             d="M 0,0 V 6.148 C 0,7.207 -0.817,8.084 -1.875,8.145 -9.268,8.571 -36,8.681 -36,-12 Z" /></g><g
           transform="translate(224,176.8979)"
           id="g48"><path
             id="path50"
             style="fill:#d9d9d9;fill-opacity:1;fill-rule:nonzero;stroke:none"
             d="m 0,0 c -8,16 -12,24 -32,28 -13.198,2.64 -21.171,-1.688 -25.066,-4.938 -3.428,-2.857 -7.29,-5.168 -11.531,-6.556 C -82.359,12 -96,12 -96,12 c 0,0 -13.64,0 -27.403,4.506 -4.241,1.388 -8.103,3.699 -11.53,6.556 -3.897,3.25 -11.869,7.578 -25.067,4.938 -20,-4 -24,-12 -32,-28 -8,-16 -16,-60 -16,-96 0,0 0,-60 48,-12 0,0 16,24 64,24 48,0 64,-24 64,-24 48,-48 48,12 48,12 0,36 -8,80 -16,96" /></g><path
           id="path52"
           style="fill:#cccccc;fill-opacity:1;fill-rule:nonzero;stroke:none"
           d="m 154,160 h -52 v 12 h 52 z" /><g
           transform="translate(108,166)"
           id="g54"><path
             id="path56"
             style="fill:#e6e6e6;fill-opacity:1;fill-rule:nonzero;stroke:none"
             d="m 0,0 c 0,-3.313 -2.687,-6 -6,-6 -3.313,0 -6,2.687 -6,6 0,3.313 2.687,6 6,6 3.313,0 6,-2.687 6,-6" /></g><g
           transform="translate(160,166)"
           id="g58"><path
             id="path60"
             style="fill:#e6e6e6;fill-opacity:1;fill-rule:nonzero;stroke:none"
             d="m 0,0 c 0,-3.313 -2.687,-6 -6,-6 -3.313,0 -6,2.687 -6,6 0,3.313 2.687,6 6,6 3.313,0 6,-2.687 6,-6" /></g><g
           transform="translate(128,178)"
           id="g62"><path
             id="path64"
             style="fill:#00ff00;fill-opacity:1;fill-rule:nonzero;stroke:none"
             d="m 0,0 c -7.72,0 -14,-6.28 -14,-14 0,-7.72 6.28,-14 14,-14 7.72,0 14,6.28 14,14 C 14,-6.28 7.72,0 0,0 m 0,-2 c 6.627,0 12,-5.373 12,-12 0,-6.627 -5.373,-12 -12,-12 -6.627,0 -12,5.373 -12,12 0,6.627 5.373,12 12,12" /></g><g
           transform="translate(140,164)"
           id="g66"><path
             id="path68"
             style="fill:#b3b3b3;fill-opacity:1;fill-rule:nonzero;stroke:none"
             d="m 0,0 c 0,-6.627 -5.373,-12 -12,-12 -6.627,0 -12,5.373 -12,12 0,6.627 5.373,12 12,12 C -5.373,12 0,6.627 0,0" /></g><g
           transform="translate(116,126)"
           id="g70"><path
             id="path72"
             style="fill:#cccccc;fill-opacity:1;fill-rule:nonzero;stroke:none"
             d="m 0,0 c 0,-14.359 -11.641,-26 -26,-26 -14.359,0 -26,11.641 -26,26 0,14.359 11.641,26 26,26 C -11.641,26 0,14.359 0,0" /></g><g
           transform="translate(184,124)"
           id="g74"><path
             id="path76"
             style="fill:#cccccc;fill-opacity:1;fill-rule:nonzero;stroke:none"
             d="m 0,0 c 0,-13.255 -10.745,-24 -24,-24 -13.255,0 -24,10.745 -24,24 0,13.255 10.745,24 24,24 C -10.745,24 0,13.255 0,0" /></g><g
           transform="translate(112,126)"
           id="g78"><path
             id="path80"
             style="fill:#404040;fill-opacity:1;fill-rule:nonzero;stroke:none"
             d="m 0,0 c 0,-12.15 -9.85,-22 -22,-22 -12.15,0 -22,9.85 -22,22 0,12.15 9.85,22 22,22 C -9.85,22 0,12.15 0,0" /></g><g
           transform="translate(186,166)"
           id="g82"><path
             id="path84"
             style="fill:#354f9f;fill-opacity:1;fill-rule:nonzero;stroke:none"
             d="m 0,0 c 0,-4.418 -3.582,-8 -8,-8 -4.418,0 -8,3.582 -8,8 0,4.418 3.582,8 8,8 4.418,0 8,-3.582 8,-8" /></g><g
           transform="translate(204,184)"
           id="g86"><path
             id="path88"
             style="fill:#d4a600;fill-opacity:1;fill-rule:nonzero;stroke:none"
             d="m 0,0 c 0,-4.418 -3.582,-8 -8,-8 -4.418,0 -8,3.582 -8,8 0,4.418 3.582,8 8,8 4.418,0 8,-3.582 8,-8" /></g><g
           transform="translate(204,148)"
           id="g90"><path
             id="path92"
             style="fill:#007b00;fill-opacity:1;fill-rule:nonzero;stroke:none"
             d="m 0,0 c 0,-4.418 -3.582,-8 -8,-8 -4.418,0 -8,3.582 -8,8 0,4.418 3.582,8 8,8 4.418,0 8,-3.582 8,-8" /></g><g
           transform="translate(222,166)"
           id="g94"><path
             id="path96"
             style="fill:#b80000;fill-opacity:1;fill-rule:nonzero;stroke:none"
             d="m 0,0 c 0,-4.418 -3.582,-8 -8,-8 -4.418,0 -8,3.582 -8,8 0,4.418 3.582,8 8,8 4.418,0 8,-3.582 8,-8" /></g><g
           transform="translate(176,124)"
           id="g98"><path
             id="path100"
             style="fill:#4c4c4c;fill-opacity:1;fill-rule:nonzero;stroke:none"
             d="m 0,0 c 0,-8.837 -7.163,-16 -16,-16 -8.837,0 -16,7.163 -16,16 0,8.836 7.163,16 16,16 C -7.163,16 0,8.836 0,0" /></g><g
           transform="translate(172,124)"
           id="g102"><path
             id="path104"
             style="fill:#404040;fill-opacity:1;fill-rule:nonzero;stroke:none"
             d="m 0,0 c 0,-6.627 -5.373,-12 -12,-12 -6.627,0 -12,5.373 -12,12 0,6.627 5.373,12 12,12 C -5.373,12 0,6.627 0,0" /></g><g
           transform="translate(151,124)"
           id="g106"><path
             id="path108"
             style="fill:#474747;fill-opacity:1;fill-rule:nonzero;stroke:none"
             d="m 0,0 c 0,-0.553 -0.447,-1 -1,-1 -0.553,0 -1,0.447 -1,1 0,0.553 0.447,1 1,1 0.553,0 1,-0.447 1,-1" /></g><g
           transform="translate(171,124)"
           id="g110"><path
             id="path112"
             style="fill:#474747;fill-opacity:1;fill-rule:nonzero;stroke:none"
             d="m 0,0 c 0,-0.553 -0.447,-1 -1,-1 -0.553,0 -1,0.447 -1,1 0,0.553 0.447,1 1,1 0.553,0 1,-0.447 1,-1" /></g><g
           transform="translate(160,133)"
           id="g114"><path
             id="path116"
             style="fill:#474747;fill-opacity:1;fill-rule:nonzero;stroke:none"
             d="M 0,0 C -0.553,0 -1,0.448 -1,1 -1,1.552 -0.553,2 0,2 0.553,2 1,1.552 1,1 1,0.448 0.553,0 0,0" /></g><g
           transform="translate(160,113)"
           id="g118"><path
             id="path120"
             style="fill:#474747;fill-opacity:1;fill-rule:nonzero;stroke:none"
             d="M 0,0 C -0.553,0 -1,0.447 -1,1 -1,1.553 -0.553,2 0,2 0.553,2 1,1.553 1,1 1,0.447 0.553,0 0,0" /></g><g
           transform="translate(78,168)"
           id="g122"><path
             id="path124"
             style="fill:#cccccc;fill-opacity:1;fill-rule:nonzero;stroke:none"
             d="m 0,0 c 0,-12.15 -9.85,-22 -22,-22 -12.15,0 -22,9.85 -22,22 0,12.15 9.85,22 22,22 C -9.85,22 0,12.15 0,0" /></g><g
           transform="translate(72,168)"
           id="g126"><path
             id="path128"
             style="fill:#4c4c4c;fill-opacity:1;fill-rule:nonzero;stroke:none"
             d="m 0,0 c 0,-8.836 -7.164,-16 -16,-16 -8.836,0 -16,7.164 -16,16 0,8.836 7.164,16 16,16 C -7.164,16 0,8.836 0,0" /></g><g
           transform="translate(68,168)"
           id="g130"><path
             id="path132"
             style="fill:#404040;fill-opacity:1;fill-rule:nonzero;stroke:none"
             d="m 0,0 c 0,-6.627 -5.373,-12 -12,-12 -6.627,0 -12,5.373 -12,12 0,6.627 5.373,12 12,12 C -5.373,12 0,6.627 0,0" /></g><g
           transform="translate(47,168)"
           id="g134"><path
             id="path136"
             style="fill:#474747;fill-opacity:1;fill-rule:nonzero;stroke:none"
             d="m 0,0 c 0,-0.552 -0.448,-1 -1,-1 -0.552,0 -1,0.448 -1,1 0,0.552 0.448,1 1,1 0.552,0 1,-0.448 1,-1" /></g><g
           transform="translate(67,168)"
           id="g138"><path
             id="path140"
             style="fill:#474747;fill-opacity:1;fill-rule:nonzero;stroke:none"
             d="m 0,0 c 0,-0.552 -0.448,-1 -1,-1 -0.552,0 -1,0.448 -1,1 0,0.552 0.448,1 1,1 0.552,0 1,-0.448 1,-1" /></g><g
           transform="translate(56,177)"
           id="g142"><path
             id="path144"
             style="fill:#474747;fill-opacity:1;fill-rule:nonzero;stroke:none"
             d="M 0,0 C -0.552,0 -1,0.448 -1,1 -1,1.552 -0.552,2 0,2 0.552,2 1,1.552 1,1 1,0.448 0.552,0 0,0" /></g><g
           transform="translate(56,157)"
           id="g146"><path
             id="path148"
             style="fill:#474747;fill-opacity:1;fill-rule:nonzero;stroke:none"
             d="M 0,0 C -0.552,0 -1,0.448 -1,1 -1,1.552 -0.552,2 0,2 0.552,2 1,1.552 1,1 1,0.448 0.552,0 0,0" /></g><g
           transform="translate(104,132)"
           id="g150"><path
             id="path152"
             style="fill:#4c4c4c;fill-opacity:1;fill-rule:nonzero;stroke:none"
             d="m 0,0 c -4.418,0 -8,3.582 -8,8 v 7.165 c -1.908,0.54 -3.919,0.835 -6,0.835 -2.081,0 -4.092,-0.295 -6,-0.835 V 8 c 0,-4.418 -3.582,-8 -8,-8 h -7.165 C -35.705,-1.908 -36,-3.919 -36,-6 c 0,-2.081 0.295,-4.092 0.835,-6 H -28 c 4.418,0 8,-3.582 8,-8 v -7.165 c 1.908,-0.54 3.919,-0.835 6,-0.835 2.081,0 4.092,0.295 6,0.835 V -20 c 0,4.418 3.582,8 8,8 H 7.165 C 7.705,-10.092 8,-8.081 8,-6 8,-3.919 7.705,-1.908 7.165,0 Z" /></g></g></g></g></svg>