<?xml version="1.0" encoding="UTF-8" standalone="no"?>
<svg
   xmlns:dc="http://purl.org/dc/elements/1.1/"
   xmlns:cc="http://creativecommons.org/ns#"
   xmlns:rdf="http://www.w3.org/1999/02/22-rdf-syntax-ns#"
   xmlns:svg="http://www.w3.org/2000/svg"
   xmlns="http://www.w3.org/2000/svg"
   viewBox="0 0 303.99933 330.66665"
   height="330.66666"
   width="303.99933"
   xml:space="preserve"
   id="svg2"
   version="1.1"><metadata
     id="metadata8"><rdf:RDF><cc:Work
         rdf:about=""><dc:format>image/svg+xml</dc:format><dc:type
           rdf:resource="http://purl.org/dc/dcmitype/StillImage" /></cc:Work></rdf:RDF></metadata><defs
     id="defs6"><clipPath
       id="clipPath18"
       clipPathUnits="userSpaceOnUse"><path
         id="path16"
         d="M 0,256 H 256 V 0 H 0 Z" /></clipPath><clipPath
       id="clipPath26"
       clipPathUnits="userSpaceOnUse"><path
         id="path24"
         d="M 14,252 H 242 V 4 H 14 Z" /></clipPath><clipPath
       id="clipPath56"
       clipPathUnits="userSpaceOnUse"><path
         id="path54"
         d="M 0,256 H 256 V 0 H 0 Z" /></clipPath></defs><g
     transform="matrix(1.3333333,0,0,-1.3333333,-18.666666,335.99999)"
     id="g10"><g
       id="g12"><g
         clip-path="url(#clipPath18)"
         id="g14"><g
           id="g20"><g
             id="g22" /><g
             id="g34"><g
               style="opacity:0.5"
               id="g32"
               clip-path="url(#clipPath26)"><g
                 id="g30"
                 transform="translate(204.6025,146)"><path
                   id="path28"
                   style="fill:#ffffff;fill-opacity:1;fill-rule:nonzero;stroke:none"
                   d="m 0,0 v -4 -4 -4 -4 -4 -4 -4 -4 -4 -1.627 c -3.459,-1.236 -6.605,-3.134 -9.287,-5.541 l -2.638,1.439 -7.023,3.832 -7.023,3.831 h -0.002 v 0.001 l -3.212,1.751 -3.163,1.725 c 1.183,4.141 1.768,8.432 1.745,12.825 -0.022,4.385 -0.655,8.666 -1.887,12.797 l 5.562,3.033 -10e-4,10e-4 7.023,3.831 7.023,3.831 3.24,1.767 C -6.886,4.933 -3.614,2.919 0,1.627 Z m -66.603,-87.826 v 1.826 8 8 7.102 c 9.582,2.136 18.245,7.303 24.706,14.737 l 6.347,-3.464 7.024,-3.831 0.002,-10e-4 h -10e-4 l 2.932,-1.599 4.089,-2.23 0.002,-10e-4 3.067,-1.673 c -0.108,-0.999 -0.168,-2.013 -0.168,-3.04 0,-2.87 0.436,-5.641 1.242,-8.249 l -1.888,-1.091 -3.464,-2 -3.464,-1.999 -6.928,-4.001 -3.464,-2 -3.464,-1.999 -6.929,-4.001 -3.464,-2 -5.861,-3.384 c -2.883,3.063 -6.405,5.411 -10.316,6.898 m -32.712,-5.513 v 0.001 l -6.929,3.999 -0.179,0.104 -3.285,1.896 -3.464,1.999 v 0.001 0.001 l -6.928,3.999 -0.18,0.104 -3.284,1.896 -3.464,1.999 v 0.001 0.001 l -6.929,3.999 -0.179,0.104 -1.707,0.985 c 0.82,2.651 1.24,5.424 1.24,8.25 0,0.687 -0.032,1.367 -0.082,2.042 l 4.898,2.671 0.002,10e-4 0.158,0.086 6.865,3.744 v 0.001 l 7.023,3.83 5.066,2.764 c 6.393,-7.043 14.826,-11.959 24.07,-14.033 V -70 v -8 -8 -1.853 c -3.933,-1.509 -7.439,-3.881 -10.292,-6.884 l -2.42,1.397 z m 13.67,144.846 V 50 42 34 27.094 c -9.803,-1.962 -18.697,-7.076 -25.35,-14.58 l -5.703,3.111 -7.023,3.831 -10e-4,0.001 v 0 l -3.121,1.702 -3.9,2.128 v -10e-4 l -0.002,10e-4 -3.984,2.172 c 0.077,0.839 0.126,1.685 0.126,2.541 0,2.826 -0.42,5.599 -1.24,8.25 l 1.607,0.928 0.279,0.161 6.93,4 -0.001,0.001 3.464,2 h 10e-4 l 3.184,1.838 0.279,0.161 6.929,4 v 0.001 l 3.463,2 h 0.001 l 3.184,1.838 0.279,0.161 6.93,4 -0.001,0.001 2.42,1.397 c 3.082,-3.244 6.928,-5.751 11.25,-7.23 m 35.219,3.833 3.464,-2 6.928,-4 v 0 l 3.465,-2 3.464,-2 6.927,-4 v 0 l 3.465,-2 3.464,-2 1.889,-1.09 c -0.807,-2.609 -1.243,-5.38 -1.243,-8.25 0,-0.858 0.045,-1.705 0.122,-2.543 l -3.979,-2.17 -0.002,-10e-4 -0.158,-0.086 -6.865,-3.744 h 10e-4 l -7.024,-3.831 -5.74,-3.131 c -6.202,6.959 -14.396,11.917 -23.397,14.155 V 34 v 8 8 2.212 c 3.528,1.494 6.712,3.702 9.358,6.512 l 2.396,-1.384 v 0 z M -153.205,-32 v 4 4 4 4 4 4 4 4 1.647 c 3.608,1.292 6.859,3.316 9.608,5.868 l 3.275,-1.786 7.023,-3.831 7.023,-3.831 0.002,-10e-4 v -0.001 l 3.352,-1.828 2.2,-1.2 c -1.273,-4.281 -1.904,-8.721 -1.881,-13.273 0.024,-4.55 0.7,-8.983 2.017,-13.249 l -4.733,-2.581 0.001,-10e-4 -7.023,-3.83 -6.754,-3.685 -0.268,-0.147 -3.887,-2.119 c -2.82,2.709 -6.193,4.854 -9.955,6.201 V -36 Z M 20,-38.091 v 2.091 4 4 4 4 4 4 4 4 4 2.091 C 30.196,6.279 37.397,16.312 37.397,28 c 0,15.439 -12.56,28 -28,28 -5.189,0 -10.049,-1.424 -14.221,-3.895 l -0.96,0.555 -6.928,4 v 0 l -3.465,2 -3.464,2 -6.927,4 v 0 l -3.465,2 -3.464,2 -6.928,4 v 0 l -3.465,2 -3.464,2 -1.255,0.726 c 0.005,0.205 0.006,0.409 0.006,0.614 0,15.439 -12.56,28 -28,28 -15.439,0 -28,-12.561 -28,-28 0,-0.205 0.012,-0.406 0.016,-0.61 l -1.206,-0.697 -0.058,-0.032 -6.929,-4 V 72.66 l -3.464,-2 v 0 l -3.406,-1.967 -0.058,-0.032 -6.929,-4 0.001,-0.001 -3.464,-2 h -0.001 l -3.405,-1.967 -0.058,-0.032 -6.929,-4 V 56.66 l -3.464,-2 v 0 l -3.179,-1.836 -0.284,-0.163 -0.959,-0.554 c -4.278,2.537 -9.168,3.893 -14.224,3.893 -15.439,0 -28,-12.561 -28,-28 0,-11.546 7.118,-21.68 17.398,-25.897 V 0 v -4 -4 -4 -4 -4 -4 -4 -4 -4 -2.103 c -10.28,-4.217 -17.398,-14.351 -17.398,-25.897 0,-15.439 12.561,-28 28,-28 5.056,0 9.945,1.356 14.223,3.893 l 0.96,-0.554 0.123,-0.071 3.341,-1.929 v 0 l 0.08,-0.046 3.384,-1.953 v -0.001 -0.001 l 6.928,-3.999 0.074,-0.042 3.39,-1.958 h 0.001 l 0.079,-0.046 3.384,-1.953 10e-4,-0.001 -10e-4,-0.001 6.928,-3.999 0.074,-0.042 3.391,-1.958 v 0 l 0.08,-0.046 3.384,-1.953 v -0.001 -0.001 l 6.928,-3.999 0.074,-0.042 1.19,-0.688 c -0.004,-0.203 -0.016,-0.405 -0.016,-0.609 0,-15.439 12.561,-28 28,-28 15.44,0 28,12.561 28,28 0,0.204 -10e-4,0.408 -0.006,0.613 l 4.719,2.725 v 0.001 0.001 l 3.464,1.999 6.928,4 0.175,0.1 3.29,1.901 3.464,1.999 6.927,4 0.174,0.1 3.291,1.901 3.464,1.999 6.929,4.001 0.961,0.555 C -0.652,-90.576 4.208,-92 9.397,-92 c 15.44,0 28,12.561 28,28 0,11.687 -7.201,21.721 -17.397,25.909" /></g></g></g></g></g></g><g
       transform="translate(133.3252,222.0005)"
       id="g36"><path
         id="path38"
         style="fill:#e6e6e6;fill-opacity:1;fill-rule:nonzero;stroke:none"
         d="m 0,0 -3.464,2 2,3.464 3.464,-2 z m 6.929,-4 -3.464,2 2,3.464 3.464,-2 z m 6.927,-4 -3.463,2 2,3.464 3.463,-2 z m 6.929,-4 -3.464,2 2,3.464 3.464,-2 z m 6.928,-4 -3.464,2 2,3.464 3.464,-2 z m 6.929,-4 -3.464,2 2,3.464 3.464,-2 z m 6.927,-4 -3.464,2 2,3.464 3.464,-2 z m 6.929,-4 -3.464,2 2,3.464 3.464,-2 z m 6.928,-4 -3.464,2 2,3.464 3.464,-2 z m 6.928,-4 -3.463,2 2,3.464 3.463,-2 z m 6.928,-4 -3.464,2 2,3.464 3.464,-2 z m 6.929,-4 -3.464,2 2,3.464 3.464,-2 z m 6.464,-4.268 h -4 v 4 h 4 z m 0,-8 h -4 v 4 h 4 z m 0,-8 h -4 v 4 h 4 z m 0,-8 h -4 v 4 h 4 z m 0,-8 h -4 v 4 h 4 z m 0,-8 h -4 v 4 h 4 z m 0,-8 h -4 v 4 h 4 z m 0,-8 h -4 v 4 h 4 z m 0,-8 h -4 v 4 h 4 z m 0,-8 h -4 v 4 h 4 z m 0,-8 h -4 v 4 h 4 z m 0,-8 h -4 v 4 h 4 z m 0,-8 h -4 v 4 h 4 z m -7.928,-5.732 -2,3.464 3.464,2 2,-3.464 z m -6.929,-4 -2,3.464 3.464,2 2,-3.464 z m -6.927,-4 -2,3.464 3.463,2 2,-3.464 z m -6.929,-4 -2,3.464 3.464,2 2,-3.464 z m -6.928,-4 -2,3.464 3.464,2 2,-3.464 z m -6.929,-4 -2,3.464 3.464,2 2,-3.464 z m -6.927,-4 -2,3.464 3.464,2 2,-3.464 z m -6.929,-4 -2,3.464 3.464,2 2,-3.464 z m -6.928,-4 -2,3.464 3.464,2 2,-3.464 z m -6.928,-4 -2,3.464 3.464,2 2,-3.464 z m -6.928,-4 -2,3.464 3.464,2 2,-3.464 z m -6.929,-4 -2,3.464 3.465,2 2,-3.464 z" /></g><g
       transform="translate(120.6748,225.7319)"
       id="g40"><path
         id="path42"
         style="fill:#e6e6e6;fill-opacity:1;fill-rule:nonzero;stroke:none"
         d="m 0,0 3.464,2 2,-3.464 -3.464,-2 z m -6.929,-4 3.464,2 2,-3.464 -3.464,-2 z m -6.927,-4 3.463,2 2,-3.464 -3.463,-2 z m -6.929,-4 3.464,2 2,-3.464 -3.464,-2 z m -6.928,-4 3.464,2 2,-3.464 -3.464,-2 z m -6.929,-4 3.464,2 2,-3.464 -3.464,-2 z m -6.927,-4 3.464,2 2,-3.464 -3.464,-2 z m -6.929,-4 3.464,2 2,-3.464 -3.464,-2 z m -6.928,-4 3.464,2 2,-3.464 -3.464,-2 z m -6.928,-4 3.463,2 2,-3.464 -3.463,-2 z m -6.928,-4 3.464,2 2,-3.464 -3.464,-2 z m -6.929,-4 3.464,2 2,-3.464 -3.464,-2 z m -4.464,-3.732 h 4 v -4 h -4 z m 0,-8 h 4 v -4 h -4 z m 0,-8 h 4 v -4 h -4 z m 0,-8 h 4 v -4 h -4 z m 0,-8 h 4 v -4 h -4 z m 0,-8 h 4 v -4 h -4 z m 0,-8 h 4 v -4 h -4 z m 0,-8 h 4 v -4 h -4 z m 0,-8 h 4 v -4 h -4 z m 0,-8 h 4 v -4 h -4 z m 0,-8 h 4 v -4 h -4 z m 0,-8 h 4 v -4 h -4 z m 0,-8 h 4 v -4 h -4 z m 4.464,-7.732 2,3.464 3.464,-2 -2,-3.464 z m 6.929,-4 2,3.464 3.464,-2 -2,-3.464 z m 6.928,-4 2,3.464 3.463,-2 -2,-3.464 z m 6.928,-4 2,3.464 3.464,-2 -2,-3.464 z m 6.928,-4 2,3.464 3.464,-2 -2,-3.464 z m 6.929,-4 2,3.464 3.464,-2 -2,-3.464 z m 6.927,-4 2,3.464 3.464,-2 -2,-3.464 z m 6.929,-4 2,3.464 3.464,-2 -2,-3.464 z m 6.928,-4 2,3.464 3.464,-2 -2,-3.464 z m 6.928,-4 2,3.464 3.464,-2 -2,-3.464 z m 6.928,-4 2,3.464 3.464,-2 -2,-3.464 z m 6.928,-4 2,3.464 3.465,-2 -2,-3.464 z" /></g><path
       id="path44"
       style="fill:#e6e6e6;fill-opacity:1;fill-rule:nonzero;stroke:none"
       d="m 130.958,172 h -4 v -8 h 4 z" /><path
       id="path46"
       style="fill:#e6e6e6;fill-opacity:1;fill-rule:nonzero;stroke:none"
       d="m 126.958,196 h 4 v 8 h -4 z" /><path
       id="path48"
       style="fill:#e6e6e6;fill-opacity:1;fill-rule:nonzero;stroke:none"
       d="m 126.958,180 h 4 v 8 h -4 z" /><g
       id="g50"><g
         clip-path="url(#clipPath56)"
         id="g52"><g
           transform="translate(159.3809,108.7637)"
           id="g58"><path
             id="path60"
             style="fill:#e6e6e6;fill-opacity:1;fill-rule:nonzero;stroke:none"
             d="m 0,0 6.48,-3.534 1.916,3.512 -6.44,3.511 C 1.369,2.286 0.713,1.124 0,0" /></g><g
           transform="translate(179.9072,97.5674)"
           id="g62"><path
             id="path64"
             style="fill:#e6e6e6;fill-opacity:1;fill-rule:nonzero;stroke:none"
             d="M 0,0 1.916,3.512 -5.107,7.343 -7.023,3.831 Z" /></g><g
           transform="translate(208,82.2441)"
           id="g66"><path
             id="path68"
             style="fill:#e6e6e6;fill-opacity:1;fill-rule:nonzero;stroke:none"
             d="M 0,0 1.916,3.512 -5.107,7.343 -7.023,3.831 Z" /></g><g
           transform="translate(55.0234,89.5869)"
           id="g70"><path
             id="path72"
             style="fill:#e6e6e6;fill-opacity:1;fill-rule:nonzero;stroke:none"
             d="m 0,0 -7.023,-3.831 1.916,-3.512 7.023,3.831 z" /></g><g
           transform="translate(188.8457,97.248)"
           id="g74"><path
             id="path76"
             style="fill:#e6e6e6;fill-opacity:1;fill-rule:nonzero;stroke:none"
             d="m 0,0 -1.915,-3.512 7.023,-3.83 1.915,3.512 z" /></g><g
           transform="translate(96.5791,112.2539)"
           id="g78"><path
             id="path80"
             style="fill:#e6e6e6;fill-opacity:1;fill-rule:nonzero;stroke:none"
             d="m 0,0 -6.44,-3.513 1.916,-3.511 6.48,3.534 C 1.244,-2.366 0.586,-1.204 0,0" /></g><g
           transform="translate(69.0693,97.248)"
           id="g82"><path
             id="path84"
             style="fill:#e6e6e6;fill-opacity:1;fill-rule:nonzero;stroke:none"
             d="m 0,0 -7.023,-3.83 1.916,-3.512 7.023,3.83 z" /></g><g
           transform="translate(83.1162,104.9102)"
           id="g86"><path
             id="path88"
             style="fill:#e6e6e6;fill-opacity:1;fill-rule:nonzero;stroke:none"
             d="m 0,0 -7.023,-3.831 1.916,-3.512 7.023,3.831 z" /></g><g
           transform="translate(42,102)"
           id="g90"><path
             id="path92"
             style="fill:#7b0000;fill-opacity:1;fill-rule:nonzero;stroke:none"
             d="m 0,0 c 11.046,0 20,-8.954 20,-20 0,-11.046 -8.954,-20 -20,-20 -11.046,0 -20,8.954 -20,20 0,11.046 8.954,20 20,20" /></g><g
           transform="translate(214,102)"
           id="g94"><path
             id="path96"
             style="fill:#7b0000;fill-opacity:1;fill-rule:nonzero;stroke:none"
             d="m 0,0 c 11.046,0 20,-8.954 20,-20 0,-11.046 -8.954,-20 -20,-20 -11.046,0 -20,8.954 -20,20 0,11.046 8.954,20 20,20" /></g><g
           transform="translate(128,52)"
           id="g98"><path
             id="path100"
             style="fill:#737373;fill-opacity:1;fill-rule:nonzero;stroke:none"
             d="m 0,0 c 11.046,0 20,-8.954 20,-20 0,-11.046 -8.954,-20 -20,-20 -11.046,0 -20,8.954 -20,20 0,11.046 8.954,20 20,20" /></g><g
           transform="translate(128,244)"
           id="g102"><path
             id="path104"
             style="fill:#7b0000;fill-opacity:1;fill-rule:nonzero;stroke:none"
             d="m 0,0 c 11.046,0 20,-8.954 20,-20 0,-11.046 -8.954,-20 -20,-20 -11.046,0 -20,8.954 -20,20 0,11.046 8.954,20 20,20" /></g><path
           id="path106"
           style="fill:#e6e6e6;fill-opacity:1;fill-rule:nonzero;stroke:none"
           d="m 126,84 h 4 v 8 h -4 z" /><path
           id="path108"
           style="fill:#e6e6e6;fill-opacity:1;fill-rule:nonzero;stroke:none"
           d="m 130,60 h -4 v -8 h 4 z" /><path
           id="path110"
           style="fill:#e6e6e6;fill-opacity:1;fill-rule:nonzero;stroke:none"
           d="m 130,76 h -4 v -8 h 4 z" /><g
           transform="translate(97.5767,147.2363)"
           id="g112"><path
             id="path114"
             style="fill:#e6e6e6;fill-opacity:1;fill-rule:nonzero;stroke:none"
             d="M 0,0 -6.48,3.534 -8.395,0.022 -1.956,-3.49 C -1.369,-2.286 -0.712,-1.124 0,0" /></g><g
           transform="translate(77.0508,158.4326)"
           id="g116"><path
             id="path118"
             style="fill:#e6e6e6;fill-opacity:1;fill-rule:nonzero;stroke:none"
             d="m 0,0 -1.916,-3.512 7.023,-3.831 1.916,3.512 z" /></g><g
           transform="translate(48.958,173.7559)"
           id="g120"><path
             id="path122"
             style="fill:#e6e6e6;fill-opacity:1;fill-rule:nonzero;stroke:none"
             d="m 0,0 -1.916,-3.512 7.023,-3.831 1.916,3.512 z" /></g><g
           transform="translate(201.9346,166.4131)"
           id="g124"><path
             id="path126"
             style="fill:#e6e6e6;fill-opacity:1;fill-rule:nonzero;stroke:none"
             d="M 0,0 7.023,3.831 5.107,7.343 -1.916,3.512 Z" /></g><g
           transform="translate(68.1118,158.752)"
           id="g128"><path
             id="path130"
             style="fill:#e6e6e6;fill-opacity:1;fill-rule:nonzero;stroke:none"
             d="M 0,0 1.915,3.512 -5.108,7.342 -7.023,3.83 Z" /></g><g
           transform="translate(160.3789,143.7466)"
           id="g132"><path
             id="path134"
             style="fill:#e6e6e6;fill-opacity:1;fill-rule:nonzero;stroke:none"
             d="M 0,0 6.44,3.512 4.524,7.024 -1.956,3.49 C -1.243,2.366 -0.587,1.204 0,0" /></g><g
           transform="translate(187.8887,158.752)"
           id="g136"><path
             id="path138"
             style="fill:#e6e6e6;fill-opacity:1;fill-rule:nonzero;stroke:none"
             d="M 0,0 7.023,3.83 5.107,7.342 -1.916,3.512 Z" /></g><g
           transform="translate(173.8418,151.0898)"
           id="g140"><path
             id="path142"
             style="fill:#e6e6e6;fill-opacity:1;fill-rule:nonzero;stroke:none"
             d="M 0,0 7.023,3.831 5.107,7.343 -1.916,3.512 Z" /></g><g
           transform="translate(42,194)"
           id="g144"><path
             id="path146"
             style="fill:#737373;fill-opacity:1;fill-rule:nonzero;stroke:none"
             d="m 0,0 c 11.046,0 20,-8.954 20,-20 0,-11.046 -8.954,-20 -20,-20 -11.046,0 -20,8.954 -20,20 0,11.046 8.954,20 20,20" /></g><g
           transform="translate(214,194)"
           id="g148"><path
             id="path150"
             style="fill:#737373;fill-opacity:1;fill-rule:nonzero;stroke:none"
             d="m 0,0 c 11.046,0 20,-8.954 20,-20 0,-11.046 -8.954,-20 -20,-20 -11.046,0 -20,8.954 -20,20 0,11.046 8.954,20 20,20" /></g><g
           transform="translate(127.9971,90)"
           id="g152"><path
             id="path154"
             style="fill:#570203;fill-opacity:1;fill-rule:nonzero;stroke:none"
             d="M 0,0 C -20.863,0 -37.89,16.918 -37.997,37.805 -38.104,58.758 -21.145,75.892 -0.192,76 H 0.187 C 20.937,75.893 37.896,58.934 38.003,38.195 38.11,17.242 21.15,0.107 0.197,0 Z" /></g><g
           transform="translate(130,112.7246)"
           id="g156"><path
             id="path158"
             style="fill:#7b0000;fill-opacity:1;fill-rule:nonzero;stroke:none"
             d="M 0,0 V -18.197 C 5.246,-13.627 9.153,-8.07 11.683,-2.035 7.874,-0.85 3.946,-0.172 0,0" /></g><g
           transform="translate(114.3086,110.6875)"
           id="g160"><path
             id="path162"
             style="fill:#7b0000;fill-opacity:1;fill-rule:nonzero;stroke:none"
             d="m 0,0 c 1.689,-4.023 4.008,-7.857 6.968,-11.361 1.445,-1.711 3.032,-3.323 4.723,-4.797 V 2.037 C 7.742,1.865 3.812,1.186 0,0" /></g><g
           transform="translate(102.7695,105.2324)"
           id="g164"><path
             id="path166"
             style="fill:#7b0000;fill-opacity:1;fill-rule:nonzero;stroke:none"
             d="m 0,0 c 4.459,-4.936 10.342,-8.561 16.99,-10.223 -0.527,0.567 -1.041,1.145 -1.539,1.735 C 12.176,-4.609 9.62,-0.359 7.771,4.098 5.086,2.996 2.483,1.631 0,0" /></g><g
           transform="translate(145.4502,109.334)"
           id="g168"><path
             id="path170"
             style="fill:#7b0000;fill-opacity:1;fill-rule:nonzero;stroke:none"
             d="M 0,0 C -2.145,-5.184 -5.22,-10.047 -9.203,-14.322 -2.552,-12.66 3.326,-9.033 7.781,-4.102 5.294,-2.469 2.688,-1.102 0,0" /></g><g
           transform="translate(146.8252,113.0928)"
           id="g172"><path
             id="path174"
             style="fill:#7b0000;fill-opacity:1;fill-rule:nonzero;stroke:none"
             d="m 0,0 c 3.086,-1.253 6.077,-2.831 8.919,-4.726 3.578,5.041 5.817,11.093 6.198,17.633 H 2.263 C 2.096,8.533 1.338,4.188 0,0" /></g><g
           transform="translate(94.0576,126)"
           id="g176"><path
             id="path178"
             style="fill:#7b0000;fill-opacity:1;fill-rule:nonzero;stroke:none"
             d="m 0,0 c 0.382,-6.547 2.622,-12.596 6.198,-17.633 2.839,1.893 5.824,3.467 8.907,4.721 C 13.76,-8.703 13.012,-4.355 12.853,0 Z" /></g><g
           transform="translate(110.9111,126)"
           id="g180"><path
             id="path182"
             style="fill:#7b0000;fill-opacity:1;fill-rule:nonzero;stroke:none"
             d="m 0,0 c 0.156,-3.898 0.825,-7.785 2.018,-11.555 4.256,1.346 8.655,2.106 13.071,2.282 V 0 Z" /></g><g
           transform="translate(130,116.7266)"
           id="g184"><path
             id="path186"
             style="fill:#7b0000;fill-opacity:1;fill-rule:nonzero;stroke:none"
             d="m 0,0 c 4.412,-0.176 8.807,-0.935 13.061,-2.277 1.184,3.751 1.863,7.636 2.025,11.55 H 0 Z" /></g><g
           transform="translate(149.0752,129.9995)"
           id="g188"><path
             id="path190"
             style="fill:#7b0000;fill-opacity:1;fill-rule:nonzero;stroke:none"
             d="M 0,0 H 12.866 C 12.482,6.527 10.232,12.577 6.647,17.619 3.783,15.709 0.77,14.125 -2.344,12.868 -0.971,8.678 -0.192,4.343 0,0" /></g><g
           transform="translate(130,129.9995)"
           id="g192"><path
             id="path194"
             style="fill:#7b0000;fill-opacity:1;fill-rule:nonzero;stroke:none"
             d="M 0,0 H 15.073 C 14.885,3.89 14.186,7.764 12.964,11.52 8.741,10.196 4.379,9.447 0,9.272 Z" /></g><g
           transform="translate(110.9307,129.9995)"
           id="g196"><path
             id="path198"
             style="fill:#7b0000;fill-opacity:1;fill-rule:nonzero;stroke:none"
             d="M 0,0 H 15.069 V 9.272 C 10.694,9.447 6.337,10.195 2.116,11.516 0.903,7.78 0.195,3.904 0,0" /></g><g
           transform="translate(94.0576,129.9995)"
           id="g200"><path
             id="path202"
             style="fill:#7b0000;fill-opacity:1;fill-rule:nonzero;stroke:none"
             d="m 0,0 h 12.87 c 0.2,4.361 0.988,8.694 2.353,12.863 -3.125,1.262 -6.151,2.851 -9.026,4.77 C 2.62,12.592 0.381,6.538 0,0" /></g><g
           transform="translate(130,161.1016)"
           id="g204"><path
             id="path206"
             style="fill:#7b0000;fill-opacity:1;fill-rule:nonzero;stroke:none"
             d="m 0,0 v -17.827 c 3.901,0.17 7.785,0.834 11.553,1.994 C 9.876,-11.93 7.604,-8.207 4.724,-4.798 3.279,-3.087 1.692,-1.476 0,0" /></g><g
           transform="translate(114.4561,145.2666)"
           id="g208"><path
             id="path210"
             style="fill:#7b0000;fill-opacity:1;fill-rule:nonzero;stroke:none"
             d="M 0,0 C 3.766,-1.159 7.645,-1.823 11.544,-1.992 V 15.835 C 6.393,11.348 2.532,5.91 0,0" /></g><g
           transform="translate(102.7686,150.7661)"
           id="g212"><path
             id="path214"
             style="fill:#7b0000;fill-opacity:1;fill-rule:nonzero;stroke:none"
             d="m 0,0 c 2.527,-1.659 5.179,-3.044 7.913,-4.155 2.22,5.261 5.403,10.184 9.525,14.488 C 10.601,8.723 4.556,5.044 0,0" /></g><g
           transform="translate(135.7959,161.0913)"
           id="g216"><path
             id="path218"
             style="fill:#7b0000;fill-opacity:1;fill-rule:nonzero;stroke:none"
             d="m 0,0 c 0.685,-0.716 1.347,-1.453 1.984,-2.207 3.199,-3.787 5.709,-7.926 7.547,-12.27 2.724,1.107 5.364,2.486 7.881,4.136 C 12.854,-5.298 6.814,-1.616 0,0" /></g></g></g></g></svg>