<?xml version="1.0" encoding="UTF-8" standalone="no"?>
<svg
   xmlns:dc="http://purl.org/dc/elements/1.1/"
   xmlns:cc="http://creativecommons.org/ns#"
   xmlns:rdf="http://www.w3.org/1999/02/22-rdf-syntax-ns#"
   xmlns:svg="http://www.w3.org/2000/svg"
   xmlns="http://www.w3.org/2000/svg"
   viewBox="0 0 330.66665 239.99959"
   height="239.99959"
   width="330.66666"
   xml:space="preserve"
   id="svg2"
   version="1.1"><metadata
     id="metadata8"><rdf:RDF><cc:Work
         rdf:about=""><dc:format>image/svg+xml</dc:format><dc:type
           rdf:resource="http://purl.org/dc/dcmitype/StillImage" /></cc:Work></rdf:RDF></metadata><defs
     id="defs6"><clipPath
       id="clipPath18"
       clipPathUnits="userSpaceOnUse"><path
         id="path16"
         d="M 0,256 H 256 V 0 H 0 Z" /></clipPath><clipPath
       id="clipPath26"
       clipPathUnits="userSpaceOnUse"><path
         id="path24"
         d="M 4,218 H 252 V 38 H 4 Z" /></clipPath></defs><g
     transform="matrix(1.3333333,0,0,-1.3333333,-5.3333332,290.66626)"
     id="g10"><g
       id="g12"><g
         clip-path="url(#clipPath18)"
         id="g14"><g
           id="g20"><g
             id="g22" /><g
             id="g34"><g
               style="opacity:0.5"
               id="g32"
               clip-path="url(#clipPath26)"><g
                 id="g30"
                 transform="translate(251.916,82.8447)"><path
                   id="path28"
                   style="fill:#ffffff;fill-opacity:1;fill-rule:nonzero;stroke:none"
                   d="m 0,0 c 0.127,0.872 0.111,1.768 -0.058,2.653 0,0 -0.18,0.949 -0.521,2.658 -0.192,1.175 -0.433,2.36 -0.714,3.526 -4.386,21.367 -15.731,72.042 -28.378,92.074 -0.48,1.889 -1.097,3.745 -1.845,5.552 0.152,1.97 -0.221,3.971 -1.126,5.801 -6.976,14.12 -21.087,22.891 -36.825,22.891 h -3.306 c -3.113,0 -5.935,-1.264 -7.982,-3.306 h -6.895 c -1.108,0 -2.172,-0.187 -3.163,-0.532 -1.385,1.148 -3.164,1.838 -5.103,1.838 h -56 c -1.939,0 -3.718,-0.69 -5.103,-1.838 -0.991,0.345 -2.055,0.532 -3.162,0.532 h -6.896 c -2.047,2.042 -4.869,3.306 -7.982,3.306 h -3.306 c -15.739,0 -29.849,-8.771 -36.825,-22.891 -0.905,-1.83 -1.278,-3.831 -1.126,-5.801 -0.748,-1.807 -1.365,-3.663 -1.845,-5.552 -12.647,-20.032 -23.993,-70.707 -28.378,-92.074 -0.281,-1.166 -0.521,-2.351 -0.714,-3.526 -0.341,-1.709 -0.521,-2.658 -0.521,-2.658 -0.169,-0.885 -0.185,-1.781 -0.058,-2.653 -0.056,-0.966 -0.084,-1.917 -0.084,-2.845 0,-10.267 3.064,-20.008 8.629,-27.427 5.993,-7.99 14.511,-12.573 23.371,-12.573 5.948,0 11.665,2.003 16.617,5.744 6.3,-3.737 13.526,-5.744 20.934,-5.744 h 18.449 2.708 c 1.411,-1.245 3.263,-2 5.292,-2 h 56 c 2.029,0 3.882,0.755 5.292,2 h 2.708 18.449 c 7.408,0 14.634,2.007 20.934,5.744 4.952,-3.741 10.67,-5.744 16.617,-5.744 8.859,0 17.378,4.583 23.37,12.573 5.566,7.419 8.63,17.16 8.63,27.427 C 0.084,-1.917 0.056,-0.966 0,0" /></g></g></g></g><g
           transform="translate(44,184)"
           id="g36"><path
             id="path38"
             style="fill:#333333;fill-opacity:1;fill-rule:nonzero;stroke:none"
             d="m 0,0 c -13.418,-13.418 -26.834,-74.65 -30.815,-94.066 -0.256,-1.046 -0.474,-2.114 -0.649,-3.204 C -31.814,-99.023 -32,-100 -32,-100 h 0.193 c -0.123,-1.312 -0.193,-2.645 -0.193,-4 0,-17.673 10.745,-32 24,-32 13.255,0 24,14.327 24,32 0,0 0,120 -16,104" /></g><g
           transform="translate(80.1631,206.6938)"
           id="g40"><path
             id="path42"
             style="fill:#262626;fill-opacity:1;fill-rule:nonzero;stroke:none"
             d="m 0,0 c 0,1.826 -1.48,3.306 -3.306,3.306 h -3.306 c -13.007,0 -24.257,-7.513 -29.654,-18.435 -1.071,-2.169 0.579,-4.708 2.999,-4.708 z" /></g><g
           transform="translate(92,200)"
           id="g44"><path
             id="path46"
             style="fill:#666666;fill-opacity:1;fill-rule:nonzero;stroke:none"
             d="m 0,0 v 5.673 c 0,0.551 -0.44,0.998 -0.991,1 -3.831,0.012 -17.458,0.021 -17.458,0.021 -18.259,0 -33.061,-14.802 -33.061,-33.061 v -92.571 c 0,-18.26 14.802,-33.062 33.061,-33.062 H 8 L 1.6,0 Z" /></g><g
           transform="translate(175.8369,206.6938)"
           id="g48"><path
             id="path50"
             style="fill:#262626;fill-opacity:1;fill-rule:nonzero;stroke:none"
             d="m 0,0 c 0,1.826 1.48,3.306 3.306,3.306 h 3.306 c 13.007,0 24.257,-7.513 29.654,-18.435 1.071,-2.169 -0.579,-4.708 -2.998,-4.708 z" /></g><g
           transform="translate(212,184)"
           id="g52"><path
             id="path54"
             style="fill:#333333;fill-opacity:1;fill-rule:nonzero;stroke:none"
             d="m 0,0 c 13.418,-13.418 26.834,-74.65 30.815,-94.066 0.256,-1.046 0.474,-2.114 0.649,-3.204 C 31.813,-99.023 32,-100 32,-100 h -0.193 c 0.123,-1.312 0.193,-2.645 0.193,-4 0,-17.673 -10.745,-32 -24,-32 -13.255,0 -24,14.327 -24,32 0,0 0,120 16,104" /></g><g
           transform="translate(182.4492,206.6938)"
           id="g56"><path
             id="path58"
             style="fill:#666666;fill-opacity:1;fill-rule:nonzero;stroke:none"
             d="m 0,0 c 0,0 -13.627,-0.009 -17.458,-0.021 -0.552,-10e-4 -0.991,-0.449 -0.991,-1 v -5.673 h -1.6 l -6.4,-152 H 0 c 18.259,0 33.061,14.802 33.061,33.062 v 92.571 C 33.061,-14.802 18.259,0 0,0" /></g><path
           id="path60"
           style="fill:#262626;fill-opacity:1;fill-rule:nonzero;stroke:none"
           d="m 156,46 h -56 v 8 h 56 z" /><path
           id="path62"
           style="fill:#262626;fill-opacity:1;fill-rule:nonzero;stroke:none"
           d="m 88.429,190.163 h -9.918 v 3.306 h 9.918 z" /><g
           transform="translate(83,84)"
           id="g64"><path
             id="path66"
             style="fill:#262626;fill-opacity:1;fill-rule:nonzero;stroke:none"
             d="m 0,0 h -10 c -0.552,0 -1,0.447 -1,1 v 10 c 0,0.553 0.448,1 1,1 H 0 c 0.552,0 1,-0.447 1,-1 V 1 C 1,0.447 0.552,0 0,0" /></g><g
           transform="translate(82,90)"
           id="g68"><path
             id="path70"
             style="fill:#333333;fill-opacity:1;fill-rule:nonzero;stroke:none"
             d="m 0,0 c 0,-2.209 -1.791,-4 -4,-4 -2.209,0 -4,1.791 -4,4 0,2.209 1.791,4 4,4 2.209,0 4,-1.791 4,-4" /></g><g
           transform="translate(76,134)"
           id="g72"><path
             id="path74"
             style="fill:#262626;fill-opacity:1;fill-rule:nonzero;stroke:none"
             d="m 0,0 c 0,-3.313 -2.687,-6 -6,-6 -3.313,0 -6,2.687 -6,6 0,3.313 2.687,6 6,6 3.313,0 6,-2.687 6,-6" /></g><g
           transform="translate(76,110)"
           id="g76"><path
             id="path78"
             style="fill:#262626;fill-opacity:1;fill-rule:nonzero;stroke:none"
             d="m 0,0 c 0,-3.313 -2.687,-6 -6,-6 -3.313,0 -6,2.687 -6,6 0,3.313 2.687,6 6,6 3.313,0 6,-2.687 6,-6" /></g><g
           transform="translate(82,116)"
           id="g80"><path
             id="path82"
             style="fill:#262626;fill-opacity:1;fill-rule:nonzero;stroke:none"
             d="m 0,0 c -3.313,0 -6,2.687 -6,6 0,3.313 2.687,6 6,6 C 3.313,12 6,9.313 6,6 6,2.687 3.313,0 0,0" /></g><g
           transform="translate(58,116)"
           id="g84"><path
             id="path86"
             style="fill:#262626;fill-opacity:1;fill-rule:nonzero;stroke:none"
             d="m 0,0 c -3.313,0 -6,2.687 -6,6 0,3.313 2.687,6 6,6 C 3.313,12 6,9.313 6,6 6,2.687 3.313,0 0,0" /></g><g
           transform="translate(192,178)"
           id="g88"><path
             id="path90"
             style="fill:#262626;fill-opacity:1;fill-rule:nonzero;stroke:none"
             d="m 0,0 c 0,-3.313 -2.687,-6 -6,-6 -3.313,0 -6,2.687 -6,6 0,3.313 2.687,6 6,6 3.313,0 6,-2.687 6,-6" /></g><g
           transform="translate(192,154)"
           id="g92"><path
             id="path94"
             style="fill:#262626;fill-opacity:1;fill-rule:nonzero;stroke:none"
             d="m 0,0 c 0,-3.313 -2.687,-6 -6,-6 -3.313,0 -6,2.687 -6,6 0,3.313 2.687,6 6,6 3.313,0 6,-2.687 6,-6" /></g><g
           transform="translate(198,160)"
           id="g96"><path
             id="path98"
             style="fill:#262626;fill-opacity:1;fill-rule:nonzero;stroke:none"
             d="m 0,0 c -3.313,0 -6,2.687 -6,6 0,3.313 2.687,6 6,6 C 3.313,12 6,9.313 6,6 6,2.687 3.313,0 0,0" /></g><g
           transform="translate(174,160)"
           id="g100"><path
             id="path102"
             style="fill:#262626;fill-opacity:1;fill-rule:nonzero;stroke:none"
             d="m 0,0 c -3.313,0 -6,2.687 -6,6 0,3.313 2.687,6 6,6 C 3.313,12 6,9.313 6,6 6,2.687 3.313,0 0,0" /></g><g
           transform="translate(177.4902,193.4692)"
           id="g104"><path
             id="path106"
             style="fill:#262626;fill-opacity:1;fill-rule:nonzero;stroke:none"
             d="M 0,0 H -3.307 V 3.306 H -6.612 V 0 h -3.307 v -3.306 h 3.307 v -3.306 h 3.305 v 3.306 H 0 Z" /></g><g
           transform="translate(198,124)"
           id="g108"><path
             id="path110"
             style="fill:#191919;fill-opacity:1;fill-rule:nonzero;stroke:none"
             d="m 0,0 c 0,-6.627 -5.373,-12 -12,-12 -6.627,0 -12,5.373 -12,12 0,6.627 5.373,12 12,12 C -5.373,12 0,6.627 0,0" /></g><g
           transform="translate(185.1631,124.8369)"
           id="g112"><path
             id="path114"
             style="fill:#333333;fill-opacity:1;fill-rule:nonzero;stroke:none"
             d="M 0,0 V 9.163 C -4.877,8.76 -8.76,4.877 -9.163,0 Z" /></g><g
           transform="translate(186.8369,124.8369)"
           id="g116"><path
             id="path118"
             style="fill:#333333;fill-opacity:1;fill-rule:nonzero;stroke:none"
             d="M 0,0 H 9.163 C 8.76,4.877 4.877,8.76 0,9.163 Z" /></g><g
           transform="translate(185.1631,123.1631)"
           id="g120"><path
             id="path122"
             style="fill:#333333;fill-opacity:1;fill-rule:nonzero;stroke:none"
             d="M 0,0 H -9.163 C -8.76,-4.877 -4.877,-8.76 0,-9.163 Z" /></g><g
           transform="translate(186.8369,123.1631)"
           id="g124"><path
             id="path126"
             style="fill:#333333;fill-opacity:1;fill-rule:nonzero;stroke:none"
             d="M 0,0 V -9.163 C 4.877,-8.76 8.76,-4.877 9.163,0 Z" /></g><g
           transform="translate(194,124)"
           id="g128"><path
             id="path130"
             style="fill:#262626;fill-opacity:1;fill-rule:nonzero;stroke:none"
             d="m 0,0 c 0,-4.418 -3.582,-8 -8,-8 -4.418,0 -8,3.582 -8,8 0,4.418 3.582,8 8,8 4.418,0 8,-3.582 8,-8" /></g><g
           transform="translate(82,168)"
           id="g132"><path
             id="path134"
             style="fill:#191919;fill-opacity:1;fill-rule:nonzero;stroke:none"
             d="m 0,0 c 0,-6.627 -5.373,-12 -12,-12 -6.627,0 -12,5.373 -12,12 0,6.627 5.373,12 12,12 C -5.373,12 0,6.627 0,0" /></g><g
           transform="translate(69.1631,168.8369)"
           id="g136"><path
             id="path138"
             style="fill:#333333;fill-opacity:1;fill-rule:nonzero;stroke:none"
             d="M 0,0 V 9.163 C -4.877,8.76 -8.76,4.877 -9.163,0 Z" /></g><g
           transform="translate(70.8369,168.8369)"
           id="g140"><path
             id="path142"
             style="fill:#333333;fill-opacity:1;fill-rule:nonzero;stroke:none"
             d="M 0,0 H 9.163 C 8.76,4.877 4.877,8.76 0,9.163 Z" /></g><g
           transform="translate(69.1631,167.1631)"
           id="g144"><path
             id="path146"
             style="fill:#333333;fill-opacity:1;fill-rule:nonzero;stroke:none"
             d="M 0,0 H -9.163 C -8.76,-4.877 -4.877,-8.76 0,-9.163 Z" /></g><g
           transform="translate(70.8369,167.1631)"
           id="g148"><path
             id="path150"
             style="fill:#333333;fill-opacity:1;fill-rule:nonzero;stroke:none"
             d="M 0,0 V -9.163 C 4.877,-8.76 8.76,-4.877 9.163,0 Z" /></g><g
           transform="translate(78,168)"
           id="g152"><path
             id="path154"
             style="fill:#262626;fill-opacity:1;fill-rule:nonzero;stroke:none"
             d="m 0,0 c 0,-4.418 -3.582,-8 -8,-8 -4.418,0 -8,3.582 -8,8 0,4.418 3.582,8 8,8 4.418,0 8,-3.582 8,-8" /></g><g
           transform="translate(178,84)"
           id="g156"><path
             id="path158"
             style="fill:#262626;fill-opacity:1;fill-rule:nonzero;stroke:none"
             d="m 0,0 c -3.309,0 -6,2.691 -6,6 0,3.309 2.691,6 6,6 C 3.309,12 6,9.309 6,6 6,2.691 3.309,0 0,0" /></g><g
           transform="translate(178,94)"
           id="g160"><path
             id="path162"
             style="fill:#333333;fill-opacity:1;fill-rule:nonzero;stroke:none"
             d="m 0,0 c -2.205,0 -4,-1.795 -4,-4 0,-2.205 1.795,-4 4,-4 2.205,0 4,1.795 4,4 0,2.205 -1.795,4 -4,4" /></g><g
           transform="translate(156,204)"
           id="g164"><path
             id="path166"
             style="fill:#333333;fill-opacity:1;fill-rule:nonzero;stroke:none"
             d="M 0,0 V 4 H -56 V 0 c 0,-2.209 -1.791,-4 -4,-4 h -4 V -156 H 8 V -4 H 4 C 1.791,-4 0,-2.209 0,0" /></g><g
           transform="translate(104,150)"
           id="g168"><path
             id="path170"
             style="fill:#00ff00;fill-opacity:1;fill-rule:nonzero;stroke:none"
             d="m 0,0 c 0,-1.104 -0.896,-2 -2,-2 -1.104,0 -2,0.896 -2,2 0,1.104 0.896,2 2,2 1.104,0 2,-0.896 2,-2" /></g><g
           transform="translate(104,142)"
           id="g172"><path
             id="path174"
             style="fill:#404040;fill-opacity:1;fill-rule:nonzero;stroke:none"
             d="m 0,0 c 0,-1.104 -0.896,-2 -2,-2 -1.104,0 -2,0.896 -2,2 0,1.104 0.896,2 2,2 1.104,0 2,-0.896 2,-2" /></g><g
           transform="translate(104,134)"
           id="g176"><path
             id="path178"
             style="fill:#404040;fill-opacity:1;fill-rule:nonzero;stroke:none"
             d="m 0,0 c 0,-1.104 -0.896,-2 -2,-2 -1.104,0 -2,0.896 -2,2 0,1.104 0.896,2 2,2 1.104,0 2,-0.896 2,-2" /></g><g
           transform="translate(104,126)"
           id="g180"><path
             id="path182"
             style="fill:#404040;fill-opacity:1;fill-rule:nonzero;stroke:none"
             d="m 0,0 c 0,-1.104 -0.896,-2 -2,-2 -1.104,0 -2,0.896 -2,2 0,1.104 0.896,2 2,2 1.104,0 2,-0.896 2,-2" /></g><g
           transform="translate(156,150)"
           id="g184"><path
             id="path186"
             style="fill:#00ff00;fill-opacity:1;fill-rule:nonzero;stroke:none"
             d="m 0,0 c 0,-1.104 -0.896,-2 -2,-2 -1.104,0 -2,0.896 -2,2 0,1.104 0.896,2 2,2 1.104,0 2,-0.896 2,-2" /></g><g
           transform="translate(156,142)"
           id="g188"><path
             id="path190"
             style="fill:#404040;fill-opacity:1;fill-rule:nonzero;stroke:none"
             d="m 0,0 c 0,-1.104 -0.896,-2 -2,-2 -1.104,0 -2,0.896 -2,2 0,1.104 0.896,2 2,2 1.104,0 2,-0.896 2,-2" /></g><g
           transform="translate(156,134)"
           id="g192"><path
             id="path194"
             style="fill:#404040;fill-opacity:1;fill-rule:nonzero;stroke:none"
             d="m 0,0 c 0,-1.104 -0.896,-2 -2,-2 -1.104,0 -2,0.896 -2,2 0,1.104 0.896,2 2,2 1.104,0 2,-0.896 2,-2" /></g><g
           transform="translate(156,126)"
           id="g196"><path
             id="path198"
             style="fill:#404040;fill-opacity:1;fill-rule:nonzero;stroke:none"
             d="m 0,0 c 0,-1.104 -0.896,-2 -2,-2 -1.104,0 -2,0.896 -2,2 0,1.104 0.896,2 2,2 1.104,0 2,-0.896 2,-2" /></g></g></g></g></svg>