<?xml version="1.0" encoding="UTF-8" standalone="no"?>
<svg
   xmlns:dc="http://purl.org/dc/elements/1.1/"
   xmlns:cc="http://creativecommons.org/ns#"
   xmlns:rdf="http://www.w3.org/1999/02/22-rdf-syntax-ns#"
   xmlns:svg="http://www.w3.org/2000/svg"
   xmlns="http://www.w3.org/2000/svg"
   viewBox="0 0 330.66775 261.33319"
   height="261.33319"
   width="330.66776"
   xml:space="preserve"
   id="svg2"
   version="1.1"><metadata
     id="metadata8"><rdf:RDF><cc:Work
         rdf:about=""><dc:format>image/svg+xml</dc:format><dc:type
           rdf:resource="http://purl.org/dc/dcmitype/StillImage" /></cc:Work></rdf:RDF></metadata><defs
     id="defs6"><clipPath
       id="clipPath18"
       clipPathUnits="userSpaceOnUse"><path
         id="path16"
         d="M 0,256 H 256 V 0 H 0 Z" /></clipPath><clipPath
       id="clipPath26"
       clipPathUnits="userSpaceOnUse"><path
         id="path24"
         d="M 3.99896,228 H 252 V 32 H 3.99896 Z" /></clipPath></defs><g
     transform="matrix(1.3333333,0,0,-1.3333333,-5.3319802,303.99999)"
     id="g10"><g
       id="g12"><g
         clip-path="url(#clipPath18)"
         id="g14"><g
           id="g20"><g
             id="g22" /><g
             id="g34"><g
               style="opacity:0.5"
               id="g32"
               clip-path="url(#clipPath26)"><g
                 id="g30"
                 transform="translate(251.9129,101.2641)"><path
                   id="path28"
                   style="fill:#ffffff;fill-opacity:1;fill-rule:nonzero;stroke:none"
                   d="m 0,0 c -0.391,17.75 -1.997,35.153 -3.371,47.26 2.362,5.935 3.524,12.201 3.455,18.658 -0.231,21.858 -15.042,41.074 -36.104,46.972 -9.688,4.302 -19.534,5.216 -26.148,5.216 -1.982,0 -3.619,-0.083 -4.793,-0.171 -23.347,7.927 -45.729,8.801 -54.412,8.801 v 0 c -1.182,0 -2.036,-0.017 -2.541,-0.031 -0.47,0.013 -1.332,0.031 -2.52,0.031 -8.899,0 -31.766,-0.91 -55.457,-9.159 -2.183,0.311 -4.291,0.468 -6.291,0.468 -7.234,0 -12.282,-2.054 -15.58,-4.2 -10.738,-2.055 -20.561,-7.647 -27.834,-15.888 -7.816,-8.855 -12.189,-20.233 -12.314,-32.039 -0.031,-2.903 0.197,-5.817 0.677,-8.684 -0.907,-6.799 -3.179,-25.225 -4.19,-45.975 -1.441,-29.578 0.294,-51.314 5.157,-64.605 2.197,-6.008 6.301,-10.835 11.556,-13.592 2.941,-1.544 5.985,-2.326 9.048,-2.326 9.778,0 16.333,7.781 20.11,14.309 2.235,3.862 3.719,8.36 4.412,13.368 2.269,16.408 4.498,28.781 6.346,36.948 6.548,-10.122 17.879,-16.496 30.171,-16.623 l 0.386,-0.002 c 19.82,0 36.114,16.071 36.322,35.826 0.093,8.834 -2.949,17.166 -8.628,23.804 2.299,0.225 4.608,0.338 6.922,0.338 0.51,0 1.023,-0.005 1.539,-0.016 0.057,-0.001 0.113,-0.002 0.169,-0.002 0.057,0 0.113,10e-4 0.17,0.002 0.517,0.011 1.032,0.016 1.543,0.016 3.537,0 7.058,-0.263 10.54,-0.785 -5.437,-6.564 -8.342,-14.72 -8.251,-23.357 0.208,-19.755 16.502,-35.826 36.323,-35.826 l 0.386,0.002 c 10.524,0.109 20.344,4.797 27.061,12.497 1.653,-7.996 3.54,-18.971 5.455,-32.821 0.692,-5.008 2.177,-9.506 4.412,-13.369 3.778,-6.528 10.333,-14.309 20.11,-14.309 3.063,0 6.107,0.782 9.048,2.325 5.254,2.758 9.358,7.585 11.556,13.593 C -1.345,-41.826 0.525,-23.878 0,0" /></g></g></g></g><g
           transform="translate(184,207.0732)"
           id="g36"><path
             id="path38"
             style="fill:#263979;fill-opacity:1;fill-rule:nonzero;stroke:none"
             d="M 0,0 C 0,0 24.187,3.257 40.001,-11.7 L 10.499,-7.532 Z" /></g><g
           transform="translate(48,199.3176)"
           id="g40"><path
             id="path42"
             style="fill:#cccccc;fill-opacity:1;fill-rule:nonzero;stroke:none"
             d="M 0,0 C 0,0 4.105,11.267 24,7.059 L 14.127,0 Z" /></g><g
           transform="translate(239.076,155.7341)"
           id="g44"><path
             id="path46"
             style="fill:#354f9f;fill-opacity:1;fill-rule:nonzero;stroke:none"
             d="m 0,0 c -21.21,62.485 -107.299,60.355 -111.076,60.232 -3.777,0.123 -89.865,2.253 -111.076,-60.232 0,0 -11.234,-77.715 0.236,-109.068 1.429,-3.908 4.089,-7.33 7.76,-9.257 4.743,-2.489 11.715,-2.848 18.517,8.907 1.85,3.197 2.905,6.794 3.412,10.458 1.871,13.532 7.319,49.993 12.024,52.578 0,0 24.78,35.537 69.127,34.598 44.348,0.939 69.127,-34.598 69.127,-34.598 4.705,-2.585 10.153,-39.046 12.025,-52.578 0.506,-3.664 1.561,-7.261 3.412,-10.458 6.801,-11.755 13.773,-11.396 18.516,-8.907 3.671,1.927 6.331,5.349 7.76,9.257 C 11.235,-77.715 0,0 0,0" /></g><g
           transform="translate(148.5773,132.4176)"
           id="g48"><path
             id="path50"
             style="fill:#4b5da7;fill-opacity:1;fill-rule:nonzero;stroke:none"
             d="m 0,0 -0.008,0.003 c 0,0 0.013,0.006 0.028,0.015 0.972,0.941 2.012,1.814 3.114,2.61 3.411,3.578 8.48,11.315 9.29,26.106 -0.012,0.36 -0.038,0.713 -0.04,1.076 -0.014,1.301 0.043,2.588 0.149,3.86 -0.002,0.019 -10e-4,0.038 -10e-4,0.058 l 0.004,-0.001 C 14.295,54.739 31.866,71.354 53.464,71.58 76.395,71.819 95.179,53.511 95.42,30.68 95.609,12.796 84.363,-2.55 68.465,-8.481 l 0.004,-0.002 -0.009,0.002 c -1.13,-0.422 -2.279,-0.788 -3.444,-1.111 -4.682,-1.986 -13.128,-7.346 -18.979,-21.161 -0.077,-0.18 -0.154,-0.355 -0.228,-0.537 -0.056,-0.133 -0.116,-0.265 -0.174,-0.408 l -0.008,0.006 C 41.255,-41.447 31.483,-48.298 20.05,-48.416 4.403,-48.579 -8.412,-36.084 -8.576,-20.507 -8.66,-12.477 -5.36,-5.198 0,0" /></g><g
           transform="translate(168.8132,132.0754)"
           id="g52"><path
             id="path54"
             style="fill:#262626;fill-opacity:1;fill-rule:nonzero;stroke:none"
             d="m 0,0 -14.31,-5.755 -6.503,-13.562 5.207,-14.922 13.978,-5.761 14.959,5.083 5.856,13.56 -5.529,15.26 z" /></g><g
           transform="translate(111.4227,132.4176)"
           id="g56"><path
             id="path58"
             style="fill:#4b5da7;fill-opacity:1;fill-rule:nonzero;stroke:none"
             d="m 0,0 0.008,0.003 c 0,0 -0.013,0.006 -0.028,0.015 -0.972,0.941 -2.012,1.814 -3.114,2.61 -3.411,3.578 -8.48,11.315 -9.29,26.106 0.012,0.36 0.038,0.713 0.04,1.076 0.014,1.301 -0.043,2.588 -0.149,3.86 0.002,0.019 10e-4,0.038 10e-4,0.058 l -0.004,-0.001 c -1.759,21.012 -19.33,37.627 -40.928,37.853 -22.931,0.239 -41.715,-18.069 -41.956,-40.9 -0.189,-17.884 11.057,-33.23 26.955,-39.161 l -0.004,-0.002 0.009,0.002 c 1.13,-0.422 2.279,-0.788 3.444,-1.111 4.682,-1.986 13.128,-7.346 18.979,-21.161 0.077,-0.18 0.154,-0.355 0.228,-0.537 0.056,-0.133 0.116,-0.265 0.174,-0.408 l 0.008,0.006 c 4.372,-9.755 14.144,-16.606 25.577,-16.724 15.647,-0.163 28.462,12.332 28.626,27.909 C 8.66,-12.477 5.36,-5.198 0,0" /></g><g
           transform="translate(228,162.0013)"
           id="g60"><path
             id="path62"
             style="fill:#354f9f;fill-opacity:1;fill-rule:nonzero;stroke:none"
             d="m 0,0 c -0.001,-14.359 -11.642,-26.001 -26.001,-26.001 -14.358,-10e-4 -26,11.64 -25.999,25.999 0,14.36 11.641,26.001 26,26.001 C -11.644,25.998 -0.001,14.357 0,0" /></g><g
           transform="translate(202,176)"
           id="g64"><path
             id="path66"
             style="fill:#263979;fill-opacity:1;fill-rule:nonzero;stroke:none"
             d="m 0,0 c -7.72,0 -14,-6.28 -14,-14 0,-7.72 6.28,-14 14,-14 7.72,0 14,6.28 14,14 C 14,-6.28 7.72,0 0,0" /></g><g
           transform="translate(214,162)"
           id="g68"><path
             id="path70"
             style="fill:#4eb96f;fill-opacity:1;fill-rule:nonzero;stroke:none"
             d="m 0,0 c 0,-6.627 -5.373,-12 -12,-12 -6.627,0 -12,5.373 -12,12 0,6.627 5.373,12 12,12 C -5.373,12 0,6.627 0,0" /></g><g
           transform="translate(176,158)"
           id="g72"><path
             id="path74"
             style="fill:#263979;fill-opacity:1;fill-rule:nonzero;stroke:none"
             d="m 0,0 c -5.514,0 -10,-4.486 -10,-10 0,-5.514 4.486,-10 10,-10 5.514,0 10,4.486 10,10 C 10,-4.486 5.514,0 0,0" /></g><g
           transform="translate(184,148)"
           id="g76"><path
             id="path78"
             style="fill:#ff0000;fill-opacity:1;fill-rule:nonzero;stroke:none"
             d="m 0,0 c 0,-4.418 -3.582,-8 -8,-8 -4.418,0 -8,3.582 -8,8 0,4.418 3.582,8 8,8 4.418,0 8,-3.582 8,-8" /></g><g
           transform="translate(203.6846,190.2591)"
           id="g80"><path
             id="path82"
             style="fill:#cccccc;fill-opacity:1;fill-rule:nonzero;stroke:none"
             d="m 0,0 0.019,0.082 c 0,0 -0.316,0.121 -0.813,0.265 -0.2,0.061 -0.391,0.113 -0.6,0.152 -2.17,0.528 -6.683,1.115 -12.203,-1.15 -5.734,-2.354 -7.563,-5.596 -8.132,-7.131 -0.035,-0.09 -0.063,-0.176 -0.091,-0.268 -0.115,-0.364 -0.162,-0.613 -0.162,-0.613 l 0.091,-0.051 c -0.053,-0.366 -0.163,-0.72 -0.117,-1.1 0.319,-2.627 3.011,-4.462 6.013,-4.098 0.759,0.092 1.463,0.319 2.089,0.644 l 0.004,-10e-4 c 5.991,4.333 11.788,4.355 11.788,4.355 3.002,0.364 5.178,2.789 4.86,5.417 C 2.555,-1.919 1.457,-0.702 0,0" /></g><g
           transform="translate(195.5776,192.2498)"
           id="g84"><path
             id="path86"
             style="fill:#263979;fill-opacity:1;fill-rule:nonzero;stroke:none"
             d="m 0,0 c -2.021,-0.245 -4.046,-0.78 -6.019,-1.59 -6.108,-2.507 -8.174,-5.997 -8.862,-7.855 l -0.111,-0.326 c -0.135,-0.429 -0.19,-0.726 -0.19,-0.726 l -0.136,-0.737 0.103,-0.06 c -0.024,-0.204 -0.033,-0.429 -0.004,-0.67 0.395,-3.259 3.747,-5.544 7.471,-5.092 0.914,0.111 1.788,0.38 2.597,0.8 4.22,3.03 8.126,3.867 10.094,4.105 0.61,0.074 0.976,0.082 1.018,0.082 0.007,0.001 0.015,0.002 0.022,0.003 3.885,0.471 6.582,3.484 6.188,6.738 -0.19,1.567 -1.117,2.953 -2.584,3.905 l 0.032,0.138 -0.933,0.447 c 0,0 -0.358,0.137 -0.92,0.301 C 7.53,-0.466 7.292,-0.402 7.032,-0.353 5.564,0.006 3.081,0.373 0,0 m 0.14,-1.153 c 2.9,0.351 5.204,-0.006 6.574,-0.338 0.208,-0.04 0.399,-0.092 0.599,-0.152 0.497,-0.145 0.813,-0.266 0.813,-0.266 L 8.107,-1.991 c 1.457,-0.701 2.555,-1.919 2.746,-3.497 0.318,-2.628 -1.857,-5.053 -4.86,-5.416 0,0 -0.435,-0.002 -1.19,-0.094 -2,-0.242 -6.248,-1.116 -10.598,-4.262 l -0.004,0.002 c -0.626,-0.326 -1.33,-0.553 -2.089,-0.645 -3.002,-0.364 -5.694,1.471 -6.013,4.099 -0.046,0.379 0.064,0.734 0.117,1.099 l -0.091,0.052 c 0,0 0.047,0.248 0.162,0.612 0.028,0.092 0.056,0.178 0.091,0.268 0.569,1.536 2.398,4.778 8.132,7.131 2.036,0.836 3.935,1.283 5.63,1.489" /></g><g
           transform="translate(232.1191,160.4482)"
           id="g88"><path
             id="path90"
             style="fill:#cccccc;fill-opacity:1;fill-rule:nonzero;stroke:none"
             d="m 0,0 0.083,-0.015 c 0,0 0.104,0.332 0.222,0.851 0.049,0.208 0.091,0.408 0.119,0.624 0.41,2.261 0.75,6.933 -1.828,12.477 -2.68,5.76 -6.035,7.457 -7.608,7.954 -0.092,0.031 -0.18,0.054 -0.274,0.078 -0.372,0.098 -0.624,0.132 -0.624,0.132 l -0.047,-0.096 c -0.369,0.033 -0.731,0.126 -1.11,0.058 -2.619,-0.476 -4.313,-3.347 -3.782,-6.412 0.135,-0.775 0.401,-1.485 0.763,-2.11 l -0.002,-0.004 C -9.407,7.625 -9.064,1.668 -9.064,1.668 -8.533,-1.397 -5.979,-3.496 -3.359,-3.02 -1.785,-2.734 -0.624,-1.537 0,0" /></g><g
           transform="translate(233.6696,168.8924)"
           id="g92"><path
             id="path94"
             style="fill:#263979;fill-opacity:1;fill-rule:nonzero;stroke:none"
             d="m 0,0 c -0.357,2.063 -1.006,4.114 -1.928,6.096 -2.854,6.135 -6.472,8.061 -8.375,8.664 l -0.333,0.094 c -0.438,0.115 -0.74,0.155 -0.74,0.155 l -0.747,0.099 -0.054,-0.11 c -0.207,0.013 -0.433,0.01 -0.673,-0.034 -3.25,-0.59 -5.358,-4.164 -4.699,-7.966 0.162,-0.933 0.48,-1.816 0.947,-2.624 3.274,-4.165 4.33,-8.132 4.678,-10.141 0.108,-0.623 0.136,-0.999 0.139,-1.042 10e-4,-0.007 0.002,-0.015 0.003,-0.022 0.688,-3.966 3.862,-6.568 7.106,-5.978 1.562,0.284 2.902,1.314 3.778,2.876 l 0.139,-0.026 0.398,0.985 c 0,0 0.118,0.375 0.251,0.962 0.058,0.247 0.109,0.495 0.144,0.765 C 0.313,-5.718 0.545,-3.145 0,0 m -1.15,-0.209 c 0.513,-2.96 0.282,-5.348 0.024,-6.775 -0.028,-0.217 -0.07,-0.416 -0.12,-0.625 -0.118,-0.518 -0.221,-0.851 -0.221,-0.851 l -0.084,0.016 c -0.623,-1.538 -1.785,-2.734 -3.359,-3.02 -2.62,-0.476 -5.174,1.623 -5.705,4.688 0,0 -0.026,0.447 -0.159,1.218 -0.354,2.042 -1.466,6.358 -4.864,10.651 l 10e-4,0.003 c -0.361,0.626 -0.628,1.336 -0.762,2.111 -0.531,3.065 1.162,5.936 3.782,6.411 0.378,0.069 0.74,-0.024 1.11,-0.058 l 0.047,0.097 c 0,0 0.252,-0.035 0.623,-0.132 0.094,-0.024 0.182,-0.048 0.274,-0.078 1.573,-0.498 4.929,-2.195 7.608,-7.954 0.951,-2.046 1.505,-3.971 1.805,-5.702" /></g><g
           transform="translate(186,112.002)"
           id="g96"><path
             id="path98"
             style="fill:#eac500;fill-opacity:1;fill-rule:nonzero;stroke:none"
             d="m 0,0 c 0,-9.94 -8.056,-18.003 -18.001,-18.002 -9.941,10e-4 -17.997,8.061 -17.999,18.005 0.002,9.933 8.059,17.992 17.997,17.995 C -8.056,17.995 0.001,9.936 0,0" /></g><g
           transform="translate(178,112.0007)"
           id="g100"><path
             id="path102"
             style="fill:#ffff00;fill-opacity:1;fill-rule:nonzero;stroke:none"
             d="m 0,0 c 0.004,-5.522 -4.48,-10.003 -10.001,-10.001 -5.523,-0.002 -9.998,4.48 -9.999,10 0,5.523 4.476,9.999 10.001,10 C -4.479,9.998 0.004,5.52 0,0" /></g><g
           transform="translate(84,162.0013)"
           id="g104"><path
             id="path106"
             style="fill:#354f9f;fill-opacity:1;fill-rule:nonzero;stroke:none"
             d="m 0,0 c -0.001,-14.359 -11.642,-26.001 -26.001,-26.001 -14.358,-10e-4 -26,11.64 -25.999,25.999 0,14.36 11.641,26.001 26,26.001 C -11.644,25.998 -0.001,14.357 0,0" /></g><g
           transform="translate(58.7306,180)"
           id="g108"><path
             id="path110"
             style="fill:#191919;fill-opacity:1;fill-rule:nonzero;stroke:none"
             d="m 0,0 -12.878,-5.184 -5.853,-12.208 4.683,-13.422 L -1.464,-36 12,-31.425 17.269,-19.22 12.295,-5.489 Z" /></g><g
           transform="translate(74,161.9993)"
           id="g112"><path
             id="path114"
             style="fill:#cccccc;fill-opacity:1;fill-rule:nonzero;stroke:none"
             d="m 0,0 c 0,-8.836 -7.164,-15.999 -16,-15.999 -8.835,-10e-4 -16,7.164 -16,16 0,8.835 7.164,16 16,16 C -7.163,16 0.001,8.836 0,0" /></g><g
           transform="translate(55.0001,162.0004)"
           id="g116"><path
             id="path118"
             style="fill:#bfbfbf;fill-opacity:1;fill-rule:nonzero;stroke:none"
             d="M 0,0 C 0.001,1.654 1.347,3 2.999,3 4.655,3 6,1.654 6,0 6.001,-1.654 4.654,-3 3,-3 1.347,-3.001 0,-1.653 0,0 M -1,0 C -1,-2.206 0.795,-4 2.999,-4 5.207,-4 7.001,-2.206 7,0 7.001,2.206 5.206,4 3,4 0.795,4.001 -0.999,2.207 -1,0" /></g><g
           transform="translate(51.0013,162.0002)"
           id="g120"><path
             id="path122"
             style="fill:#bfbfbf;fill-opacity:1;fill-rule:nonzero;stroke:none"
             d="M 0,0 C 0,3.86 3.139,7 6.998,7 10.86,6.999 14.001,3.859 14,0 14,-3.862 10.859,-7.001 6.999,-7 3.14,-6.999 -0.001,-3.861 0,0 M -1.001,0.001 C -1.001,-4.41 2.588,-8 6.998,-8 c 4.413,-10e-4 8.001,3.587 8.001,7.999 0,4.409 -3.588,8 -8.002,8.001 C 2.588,7.999 -1.001,4.409 -1.001,0.001" /></g><g
           transform="translate(46.9993,161.9993)"
           id="g124"><path
             id="path126"
             style="fill:#bfbfbf;fill-opacity:1;fill-rule:nonzero;stroke:none"
             d="M 0,0 C -0.001,6.067 4.933,11 11,11 17.065,11.002 22.001,6.067 22,0.001 22.001,-6.065 17.065,-10.999 10.999,-11 4.934,-11 -0.001,-6.065 0,0 m -0.999,0.002 c 0,-6.618 5.383,-12.001 11.998,-12.001 6.617,-10e-4 12.002,5.382 12.002,12 10e-4,6.617 -5.384,11.998 -12.002,12 -6.615,0 -11.998,-5.383 -11.998,-11.999" /></g><g
           transform="translate(128,165)"
           id="g128"><path
             id="path130"
             style="fill:#263979;fill-opacity:1;fill-rule:nonzero;stroke:none"
             d="m 0,0 c -3.86,0 -7,-3.14 -7,-7 0,-3.86 3.14,-7 7,-7 3.86,0 7,3.14 7,7 0,3.86 -3.14,7 -7,7" /></g><g
           transform="translate(134,158)"
           id="g132"><path
             id="path134"
             style="fill:#cccccc;fill-opacity:1;fill-rule:nonzero;stroke:none"
             d="m 0,0 c 0,-3.314 -2.686,-6 -6,-6 -3.314,0 -6,2.686 -6,6 0,3.314 2.686,6 6,6 3.314,0 6,-2.686 6,-6" /></g><g
           transform="translate(96,130)"
           id="g136"><path
             id="path138"
             style="fill:#263979;fill-opacity:1;fill-rule:nonzero;stroke:none"
             d="m 0,0 h -8 c -2.206,0 -4,-1.794 -4,-4 v -6 h -6 c -2.206,0 -4,-1.794 -4,-4 v -8 c 0,-2.206 1.794,-4 4,-4 h 6 v -6 c 0,-2.206 1.794,-4 4,-4 h 8 c 2.206,0 4,1.794 4,4 v 6 h 6 c 2.206,0 4,1.794 4,4 v 8 c 0,2.206 -1.794,4 -4,4 H 4 v 6 C 4,-1.794 2.206,0 0,0" /></g><g
           transform="translate(106,118)"
           id="g140"><path
             id="path142"
             style="fill:#cccccc;fill-opacity:1;fill-rule:nonzero;stroke:none"
             d="m 0,0 h -8 v 8 c 0,1.105 -0.895,2 -2,2 h -8 c -1.105,0 -2,-0.895 -2,-2 V 0 h -8 c -1.105,0 -2,-0.895 -2,-2 v -8 c 0,-1.105 0.895,-2 2,-2 h 8 v -8 c 0,-1.105 0.895,-2 2,-2 h 8 c 1.105,0 2,0.895 2,2 v 8 h 8 c 1.105,0 2,0.895 2,2 v 8 C 2,-0.895 1.105,0 0,0" /></g><g
           transform="translate(96,112)"
           id="g144"><path
             id="path146"
             style="fill:#bfbfbf;fill-opacity:1;fill-rule:nonzero;stroke:none"
             d="m 0,0 c 0,-2.209 -1.791,-4 -4,-4 -2.209,0 -4,1.791 -4,4 0,2.209 1.791,4 4,4 2.209,0 4,-1.791 4,-4" /></g><g
           transform="translate(78.2143,112.3276)"
           id="g148"><path
             id="path150"
             style="fill:#bfbfbf;fill-opacity:1;fill-rule:nonzero;stroke:none"
             d="M 0,0 5.143,2.621 C 5.429,2.767 5.786,2.585 5.786,2.293 v -5.242 c 0,-0.291 -0.357,-0.473 -0.643,-0.327 L 0,-0.655 C -0.286,-0.51 -0.286,-0.146 0,0" /></g><g
           transform="translate(105.7857,111.6724)"
           id="g152"><path
             id="path154"
             style="fill:#bfbfbf;fill-opacity:1;fill-rule:nonzero;stroke:none"
             d="m 0,0 -5.143,-2.621 c -0.286,-0.146 -0.643,0.036 -0.643,0.328 v 5.242 c 0,0.291 0.357,0.473 0.643,0.327 L 0,0.655 C 0.286,0.51 0.286,0.146 0,0" /></g><g
           transform="translate(92.3276,125.7857)"
           id="g156"><path
             id="path158"
             style="fill:#bfbfbf;fill-opacity:1;fill-rule:nonzero;stroke:none"
             d="M 0,0 2.621,-5.143 C 2.767,-5.429 2.585,-5.786 2.293,-5.786 h -5.242 c -0.291,0 -0.473,0.357 -0.327,0.643 L -0.655,0 C -0.51,0.286 -0.146,0.286 0,0" /></g><g
           transform="translate(91.6724,98.2143)"
           id="g160"><path
             id="path162"
             style="fill:#bfbfbf;fill-opacity:1;fill-rule:nonzero;stroke:none"
             d="m 0,0 -2.621,5.143 c -0.146,0.286 0.036,0.643 0.328,0.643 h 5.242 c 0.291,0 0.473,-0.357 0.327,-0.643 L 0.655,0 C 0.51,-0.286 0.146,-0.286 0,0" /></g><g
           transform="translate(58,177)"
           id="g164"><path
             id="path166"
             style="fill:#999999;fill-opacity:1;fill-rule:nonzero;stroke:none"
             d="m 0,0 c -8.271,0 -15,-6.729 -15,-15 0,-8.271 6.729,-15 15,-15 8.271,0 15,6.729 15,15 C 15,-6.729 8.271,0 0,0 m 0,-1.268 c 7.584,0 13.732,-6.148 13.732,-13.732 0,-7.584 -6.148,-13.732 -13.732,-13.732 -7.584,0 -13.732,6.148 -13.732,13.732 0,7.584 6.148,13.732 13.732,13.732" /></g></g></g></g></svg>