<?xml version="1.0" encoding="UTF-8" standalone="no"?>
<svg
   xmlns:dc="http://purl.org/dc/elements/1.1/"
   xmlns:cc="http://creativecommons.org/ns#"
   xmlns:rdf="http://www.w3.org/1999/02/22-rdf-syntax-ns#"
   xmlns:svg="http://www.w3.org/2000/svg"
   xmlns="http://www.w3.org/2000/svg"
   viewBox="0 0 98.078666 153.01199"
   height="153.01199"
   width="98.078667"
   xml:space="preserve"
   id="svg2"
   version="1.1"><metadata
     id="metadata8"><rdf:RDF><cc:Work
         rdf:about=""><dc:format>image/svg+xml</dc:format><dc:type
           rdf:resource="http://purl.org/dc/dcmitype/StillImage" /></cc:Work></rdf:RDF></metadata><defs
     id="defs6"><clipPath
       id="clipPath18"
       clipPathUnits="userSpaceOnUse"><path
         id="path16"
         d="M 0,256 H 256 V 0 H 0 Z" /></clipPath><clipPath
       id="clipPath26"
       clipPathUnits="userSpaceOnUse"><path
         id="path24"
         d="M 94.8156,189.21 H 168.375 V 74.4506 H 94.8156 Z" /></clipPath></defs><g
     transform="matrix(1.3333333,0,0,-1.3333333,-126.4208,252.27946)"
     id="g10"><g
       id="g12"><g
         clip-path="url(#clipPath18)"
         id="g14"><g
           id="g20"><g
             id="g22" /><g
             id="g34"><g
               style="opacity:0.5"
               id="g32"
               clip-path="url(#clipPath26)"><g
                 id="g30"
                 transform="translate(94.8156,189.2096)"><path
                   id="path28"
                   style="fill:#ffffff;fill-opacity:1;fill-rule:nonzero;stroke:none"
                   d="m 0,0 v -18.21 -68.414 -13.238 l 11.72,6.156 9.807,5.152 8.33,-18.884 3.23,-7.321 7.32,3.23 14.706,6.49 7.319,3.23 -3.23,7.319 -8.325,18.865 10.172,3.617 12.51,4.449 -9.779,8.981 -50.369,46.26 z" /></g></g></g></g><g
           transform="translate(118.2633,110.1824)"
           id="g36"><path
             id="path38"
             style="fill:#191919;fill-opacity:1;fill-rule:nonzero;stroke:none"
             d="m 0,0 c 0.447,0 0.895,-0.071 1.322,-0.228 1.052,-0.361 1.903,-1.153 2.355,-2.165 l 10.052,-22.789 14.706,6.489 -10.056,22.789 c -0.452,1.028 -0.455,2.19 -0.012,3.218 0.439,1.02 1.291,1.82 2.342,2.189 l 14.212,5.054 -50.369,46.261 V -7.596 l 13.58,7.133 C -1.287,-0.157 -0.643,0 0,0" /></g></g></g></g></svg>