<?xml version="1.0" encoding="UTF-8" standalone="no"?>
<svg
   xmlns:dc="http://purl.org/dc/elements/1.1/"
   xmlns:cc="http://creativecommons.org/ns#"
   xmlns:rdf="http://www.w3.org/1999/02/22-rdf-syntax-ns#"
   xmlns:svg="http://www.w3.org/2000/svg"
   xmlns="http://www.w3.org/2000/svg"
   viewBox="0 0 330.66613 218.66626"
   height="218.66626"
   width="330.66614"
   xml:space="preserve"
   id="svg2"
   version="1.1"><metadata
     id="metadata8"><rdf:RDF><cc:Work
         rdf:about=""><dc:format>image/svg+xml</dc:format><dc:type
           rdf:resource="http://purl.org/dc/dcmitype/StillImage" /></cc:Work></rdf:RDF></metadata><defs
     id="defs6"><clipPath
       id="clipPath18"
       clipPathUnits="userSpaceOnUse"><path
         id="path16"
         d="M 0,256 H 256 V 0 H 0 Z" /></clipPath><clipPath
       id="clipPath26"
       clipPathUnits="userSpaceOnUse"><path
         id="path24"
         d="M 4,212 H 252 V 48 H 4 Z" /></clipPath></defs><g
     transform="matrix(1.3333333,0,0,-1.3333333,-5.3338665,282.66626)"
     id="g10"><g
       id="g12"><g
         clip-path="url(#clipPath18)"
         id="g14"><g
           id="g20"><g
             id="g22" /><g
             id="g34"><g
               style="opacity:0.5"
               id="g32"
               clip-path="url(#clipPath26)"><g
                 id="g30"
                 transform="translate(218.2144,189.2947)"><path
                   id="path28"
                   style="fill:#ffffff;fill-opacity:1;fill-rule:nonzero;stroke:none"
                   d="m 0,0 c -8.092,15.067 -18.156,22.705 -29.919,22.705 -10.329,0 -19.388,-4.276 -25.559,-7.757 -3.709,-0.995 -7.282,-2.084 -10.747,-3.141 -8.604,-2.623 -16.732,-5.102 -23.989,-5.102 -7.258,0 -15.385,2.479 -23.99,5.102 -3.465,1.057 -7.038,2.146 -10.747,3.141 -6.171,3.481 -15.23,7.757 -25.559,7.757 -11.763,0 -21.827,-7.638 -29.919,-22.705 -4.896,-6.356 -9.606,-14.267 -14.014,-23.538 l -0.619,-0.758 -0.426,-0.918 c -2.463,-5.315 -4.804,-11.011 -6.958,-16.93 l -0.262,-0.719 -0.12,-0.756 c -0.03,-0.183 -0.059,-0.371 -0.088,-0.563 -6.977,-19.724 -11.298,-40.013 -11.298,-53.113 0,-19.571 9.415,-30.214 17.313,-35.696 11.102,-7.705 23.233,-8.304 26.687,-8.304 9.475,0 20.75,7.777 35.025,17.623 14.397,9.931 32.312,22.288 44.844,22.374 10.695,-0.074 25.138,-8.917 39.154,-18.465 l 2.045,-1.393 h 0.254 c 1.228,-0.843 2.446,-1.683 3.65,-2.513 14.276,-9.848 25.552,-17.626 35.028,-17.626 3.453,0 15.584,0.599 26.686,8.304 7.898,5.482 17.314,16.125 17.314,35.696 C 33.786,-75.355 20.64,-26.784 0,0" /></g></g></g></g><g
           transform="translate(188.2956,204)"
           id="g36"><path
             id="path38"
             style="fill:#a12868;fill-opacity:1;fill-rule:nonzero;stroke:none"
             d="m 0,0 c -23.113,0 -42.207,-26.5 -60.296,-26.5 -18.088,0 -37.182,26.5 -60.295,26.5 -30.486,0 -41.705,-78.336 -41.705,-108 0,-29.664 10.552,-36 21.606,-36 16.079,0 53.595,40 80.394,40 26.8,0 64.316,-40 80.395,-40 11.054,0 21.605,6.336 21.605,36 C 41.704,-78.336 30.485,0 0,0" /></g><g
           transform="translate(188,200)"
           id="g40"><path
             id="path42"
             style="fill:#cccccc;fill-opacity:1;fill-rule:nonzero;stroke:none"
             d="m 0,0 c -23,0 -42,-12 -60,-12 -18,0 -37,12 -60,12 -30.336,0 -56,-78.336 -56,-108 0,-29.664 25,-36 36,-36 16,0 53.332,40 80,40 26.668,0 64,-40 80,-40 11,0 36,6.336 36,36 C 56,-78.336 30.336,0 0,0" /></g><g
           transform="translate(127.185,188)"
           id="g44"><path
             id="path46"
             style="fill:#d9d9d9;fill-opacity:1;fill-rule:nonzero;stroke:none"
             d="m 0,0 c -63.576,0 -87.921,-15.942 -97.2,-27.283 -2.437,-5.259 -4.681,-10.756 -6.699,-16.302 -2.597,-16.281 -4.984,-65.532 60.451,-68.415 14.667,10 30.667,20 44.001,20 13.27,0 29.181,-9.905 43.79,-19.857 l 0.21,0.001 c 0,0 79.77,-6.816 58.302,73.456 0,0 -0.039,0.347 -0.191,0.972 -0.751,1.888 -1.529,3.759 -2.33,5.611 C 94.1,-20.843 72.693,0 0,0" /></g><g
           transform="translate(60,154)"
           id="g48"><path
             id="path50"
             style="fill:#cccccc;fill-opacity:1;fill-rule:nonzero;stroke:none"
             d="m 0,0 c -14.336,0 -26,-11.664 -26,-26 0,-14.336 11.664,-26 26,-26 14.336,0 26,11.664 26,26 C 26,-11.664 14.336,0 0,0" /></g><g
           transform="translate(82,128)"
           id="g52"><path
             id="path54"
             style="fill:#3e4447;fill-opacity:1;fill-rule:nonzero;stroke:none"
             d="m 0,0 c 0,-12.15 -9.85,-22 -22,-22 -12.15,0 -22,9.85 -22,22 0,12.15 9.85,22 22,22 C -9.85,22 0,12.15 0,0" /></g><g
           transform="translate(176,160)"
           id="g56"><path
             id="path58"
             style="fill:#8d9397;fill-opacity:1;fill-rule:nonzero;stroke:none"
             d="m 0,0 c 4.416,0 8,-3.584 8,-8 0,-4.416 -3.584,-8 -8,-8 -4.416,0 -8,3.584 -8,8 0,4.416 3.584,8 8,8" /></g><g
           transform="translate(80,126)"
           id="g60"><path
             id="path62"
             style="fill:#464c4f;fill-opacity:1;fill-rule:nonzero;stroke:none"
             d="m 0,0 c 0,-2.212 -1.788,-4 -4,-4 h -10 v -10 c 0,-2.212 -1.788,-4 -4,-4 h -4 c -2.212,0 -4,1.788 -4,4 v 10 h -10 c -2.212,0 -4,1.788 -4,4 v 4 c 0,2.212 1.788,4 4,4 h 10 v 10 c 0,2.212 1.788,4 4,4 h 4 c 2.212,0 4,-1.788 4,-4 V 8 H -4 C -1.788,8 0,6.212 0,4 Z" /></g><g
           transform="translate(128,108)"
           id="g64"><path
             id="path66"
             style="fill:#a12868;fill-opacity:1;fill-rule:nonzero;stroke:none"
             d="M 0,0 C -4.416,0 -8,0.896 -8,2 -8,3.104 -4.416,4 0,4 4.416,4 8,3.104 8,2 8,0.896 4.416,0 0,0" /></g><g
           transform="translate(148,140)"
           id="g68"><path
             id="path70"
             style="fill:#8d9397;fill-opacity:1;fill-rule:nonzero;stroke:none"
             d="M 0,0 C 0,4.416 3.584,8 8,8 12.416,8 16,4.416 16,0 16,-4.416 12.416,-8 8,-8 3.584,-8 0,-4.416 0,0" /></g><g
           transform="translate(164,100.5)"
           id="g72"><path
             id="path74"
             style="fill:#16a085;fill-opacity:1;fill-rule:nonzero;stroke:none"
             d="M 0,0 C -6.628,0 -12,5.148 -12,11.5 -12,17.852 -6.628,23 0,23 6.628,23 12,17.852 12,11.5 12,5.148 6.628,0 0,0" /></g><g
           transform="translate(188,116)"
           id="g76"><path
             id="path78"
             style="fill:#ffff00;fill-opacity:1;fill-rule:nonzero;stroke:none"
             d="m 0,0 c -6.628,0 -12,5.372 -12,12 0,6.628 5.372,12 12,12 C 6.628,24 12,18.628 12,12 12,5.372 6.628,0 0,0" /></g><g
           transform="translate(196,156)"
           id="g80"><path
             id="path82"
             style="fill:#8d9397;fill-opacity:1;fill-rule:nonzero;stroke:none"
             d="m 0,0 c -4.416,0 -8,3.584 -8,8 0,4.416 3.584,8 8,8 C 4.416,16 8,12.416 8,8 8,3.584 4.416,0 0,0" /></g><g
           transform="translate(212,132)"
           id="g84"><path
             id="path86"
             style="fill:#354f9f;fill-opacity:1;fill-rule:nonzero;stroke:none"
             d="m 0,0 c -6.628,0 -12,5.372 -12,12 0,6.628 5.372,12 12,12 C 6.628,24 12,18.628 12,12 12,5.372 6.628,0 0,0" /></g><g
           transform="translate(64,128)"
           id="g88"><path
             id="path90"
             style="fill:#3e4447;fill-opacity:1;fill-rule:nonzero;stroke:none"
             d="m 0,0 c 0,-2.209 -1.791,-4 -4,-4 -2.209,0 -4,1.791 -4,4 0,2.209 1.791,4 4,4 2.209,0 4,-1.791 4,-4" /></g></g></g></g></svg>