<?xml version="1.0" encoding="UTF-8" standalone="no"?>
<svg
   xmlns:dc="http://purl.org/dc/elements/1.1/"
   xmlns:cc="http://creativecommons.org/ns#"
   xmlns:rdf="http://www.w3.org/1999/02/22-rdf-syntax-ns#"
   xmlns:svg="http://www.w3.org/2000/svg"
   xmlns="http://www.w3.org/2000/svg"
   viewBox="0 0 266.66665 330.66665"
   height="330.66666"
   width="266.66666"
   xml:space="preserve"
   id="svg2"
   version="1.1"><metadata
     id="metadata8"><rdf:RDF><cc:Work
         rdf:about=""><dc:format>image/svg+xml</dc:format><dc:type
           rdf:resource="http://purl.org/dc/dcmitype/StillImage" /></cc:Work></rdf:RDF></metadata><defs
     id="defs6"><clipPath
       id="clipPath18"
       clipPathUnits="userSpaceOnUse"><path
         id="path16"
         d="M 0,256 H 256 V 0 H 0 Z" /></clipPath><clipPath
       id="clipPath26"
       clipPathUnits="userSpaceOnUse"><path
         id="path24"
         d="M 28,252 H 228 V 4 H 28 Z" /></clipPath></defs><g
     transform="matrix(1.3333333,0,0,-1.3333333,-37.333332,335.99999)"
     id="g10"><g
       id="g12"><g
         clip-path="url(#clipPath18)"
         id="g14"><g
           id="g20"><g
             id="g22" /><g
             id="g34"><g
               style="opacity:0.5"
               id="g32"
               clip-path="url(#clipPath26)"><g
                 id="g30"
                 transform="translate(212,252)"><path
                   id="path28"
                   style="fill:#ffffff;fill-opacity:1;fill-rule:nonzero;stroke:none"
                   d="m 0,0 h -168 c -6.617,0 -12,-5.383 -12,-12 v -1.07 c -2.391,-1.383 -4,-3.969 -4,-6.93 v -4 c 0,-0.691 0.087,-1.361 0.252,-2 -0.165,-0.639 -0.252,-1.309 -0.252,-2 v -4 c 0,-0.691 0.087,-1.361 0.252,-2 -0.165,-0.639 -0.252,-1.309 -0.252,-2 v -4 c 0,-0.691 0.087,-1.361 0.252,-2 -0.165,-0.639 -0.252,-1.309 -0.252,-2 v -4 c 0,-0.691 0.087,-1.361 0.252,-2 -0.165,-0.639 -0.252,-1.309 -0.252,-2 v -4 c 0,-0.691 0.087,-1.361 0.252,-2 -0.165,-0.639 -0.252,-1.309 -0.252,-2 v -4 c 0,-0.691 0.087,-1.361 0.252,-2 -0.165,-0.639 -0.252,-1.309 -0.252,-2 v -4 c 0,-0.691 0.087,-1.361 0.252,-2 -0.165,-0.639 -0.252,-1.309 -0.252,-2 v -4 c 0,-2.961 1.609,-5.547 4,-6.93 V -236 c 0,-6.617 5.383,-12 12,-12 H 0 c 6.617,0 12,5.383 12,12 v 149.07 c 2.391,1.383 4,3.969 4,6.93 v 4 c 0,0.691 -0.087,1.361 -0.252,2 0.165,0.639 0.252,1.309 0.252,2 v 4 c 0,0.691 -0.087,1.361 -0.252,2 0.165,0.639 0.252,1.309 0.252,2 v 4 c 0,0.691 -0.087,1.361 -0.252,2 0.165,0.639 0.252,1.309 0.252,2 v 4 c 0,0.691 -0.087,1.361 -0.252,2 0.165,0.639 0.252,1.309 0.252,2 v 4 c 0,0.691 -0.087,1.361 -0.252,2 0.165,0.639 0.252,1.309 0.252,2 v 4 c 0,0.691 -0.087,1.361 -0.252,2 0.165,0.639 0.252,1.309 0.252,2 v 4 c 0,0.691 -0.087,1.361 -0.252,2 0.165,0.639 0.252,1.309 0.252,2 v 4 c 0,2.961 -1.609,5.547 -4,6.93 V -12 C 12,-5.383 6.617,0 0,0" /></g></g></g></g><g
           transform="translate(220,228)"
           id="g36"><path
             id="path38"
             style="fill:#3c3c3c;fill-opacity:1;fill-rule:nonzero;stroke:none"
             d="m 0,0 v 4 h -4 v 8 c 0,2.209 -1.791,4 -4,4 h -168 c -2.209,0 -4,-1.791 -4,-4 V 4 h -4 V 0 h 4 v -4 h -4 v -4 h 4 v -4 h -4 v -4 h 4 v -4 h -4 v -4 h 4 v -4 h -4 v -4 h 4 v -4 h -4 v -4 h 4 v -4 h -4 v -4 h 4 v -4 h -4 v -4 h 4 v -156 c 0,-2.209 1.791,-4 4,-4 H -8 c 2.209,0 4,1.791 4,4 v 156 h 4 v 4 h -4 v 4 h 4 v 4 h -4 v 4 h 4 v 4 h -4 v 4 h 4 v 4 h -4 v 4 h 4 v 4 h -4 v 4 h 4 v 4 h -4 v 4 h 4 v 4 h -4 v 4 z" /></g><g
           transform="translate(50,244)"
           id="g40"><path
             id="path42"
             style="fill:#262626;fill-opacity:1;fill-rule:nonzero;stroke:none"
             d="M 0,0 V -125.185 C 0,-127.848 2.051,-130 4.588,-130 h 146.824 c 2.537,0 4.588,2.152 4.588,4.815 V 0 Z" /></g><g
           transform="translate(198.9333,244)"
           id="g44"><path
             id="path46"
             style="fill:#000000;fill-opacity:1;fill-rule:nonzero;stroke:none"
             d="m 0,0 h -141.867 c -2.802,0 -5.066,-2.488 -5.066,-5.565 v -116.87 c 0,-3.077 2.264,-5.565 5.066,-5.565 H 0 c 2.802,0 5.067,2.488 5.067,5.565 V -5.565 C 5.067,-2.488 2.802,0 0,0" /></g><g
           transform="translate(60,137)"
           id="g48"><path
             id="path50"
             style="fill:#231f20;fill-opacity:1;fill-rule:nonzero;stroke:none"
             d="M 0,0 H 136" /></g><path
           id="path52"
           style="fill:#ffffff;fill-opacity:1;fill-rule:nonzero;stroke:none"
           d="M 196,136 H 60 v 2 h 136 z" /><g
           transform="translate(60,221)"
           id="g54"><path
             id="path56"
             style="fill:#231f20;fill-opacity:1;fill-rule:nonzero;stroke:none"
             d="M 0,0 H 136" /></g><path
           id="path58"
           style="fill:#ffffff;fill-opacity:1;fill-rule:nonzero;stroke:none"
           d="M 196,220 H 60 v 2 h 136 z" /></g></g></g></svg>