<?xml version="1.0" encoding="UTF-8" standalone="no"?>
<svg
   xmlns:dc="http://purl.org/dc/elements/1.1/"
   xmlns:cc="http://creativecommons.org/ns#"
   xmlns:rdf="http://www.w3.org/1999/02/22-rdf-syntax-ns#"
   xmlns:svg="http://www.w3.org/2000/svg"
   xmlns="http://www.w3.org/2000/svg"
   viewBox="0 0 320 256"
   height="256"
   width="320"
   xml:space="preserve"
   id="svg2"
   version="1.1"><metadata
     id="metadata8"><rdf:RDF><cc:Work
         rdf:about=""><dc:format>image/svg+xml</dc:format><dc:type
           rdf:resource="http://purl.org/dc/dcmitype/StillImage" /></cc:Work></rdf:RDF></metadata><defs
     id="defs6"><clipPath
       id="clipPath18"
       clipPathUnits="userSpaceOnUse"><path
         id="path16"
         d="M 0,256 H 256 V 0 H 0 Z" /></clipPath><clipPath
       id="clipPath26"
       clipPathUnits="userSpaceOnUse"><path
         id="path24"
         d="M 8,224 H 248 V 32 H 8 Z" /></clipPath></defs><g
     transform="matrix(1.3333333,0,0,-1.3333333,-10.666666,298.66666)"
     id="g10"><g
       id="g12"><g
         clip-path="url(#clipPath18)"
         id="g14"><g
           id="g20"><g
             id="g22" /><g
             id="g34"><g
               style="opacity:0.5"
               id="g32"
               clip-path="url(#clipPath26)"><g
                 id="g30"
                 transform="translate(240,208)"><path
                   id="path28"
                   style="fill:#ffffff;fill-opacity:1;fill-rule:nonzero;stroke:none"
                   d="m 0,0 h -8 v 8 8 h -8 -16 -144 -16 -8 V 8 -12 h -8 -16 -8 v -8 -48 -8 h 8 8 v -8 -8 h 8 8 v -44 -8 h 8 8 v -8 -16 -8 h 8 144 8 v 8 8 h 8 8 v 8 8 h 8 8 v 8 128 8 z" /></g></g></g></g></g></g><g
       transform="translate(208,216)"
       id="g36"><path
         id="path38"
         style="fill:#b80000;fill-opacity:1;fill-rule:nonzero;stroke:none"
         d="m 0,0 h -160 v -144 h 16 v -32 H 0 v 16 16 h 16 v 124 4 16 z" /></g><path
       id="path40"
       style="fill:#e6e6e6;fill-opacity:1;fill-rule:nonzero;stroke:none"
       d="M 208,120 H 64 v 80 h 144 z" /><path
       id="path42"
       style="fill:#7b0000;fill-opacity:1;fill-rule:nonzero;stroke:none"
       d="M 208,200 H 64 v 16 h 144 z" /><path
       id="path44"
       style="fill:#7b0000;fill-opacity:1;fill-rule:nonzero;stroke:none"
       d="M 208,40 H 64 v 16 h 144 z" /><path
       id="path46"
       style="fill:#000000;fill-opacity:1;fill-rule:nonzero;stroke:none"
       d="M 48,140 H 32 v -16 h 16 z m -16,0 H 16 v 48 h 16 z" /><path
       id="path48"
       style="fill:#000000;fill-opacity:1;fill-rule:nonzero;stroke:none"
       d="m 240,72 h -16 v 128 h 16 z" /><path
       id="path50"
       style="fill:#000000;fill-opacity:1;fill-rule:nonzero;stroke:none"
       d="m 224,56 h -16 v 16 h 16 z" /><g
       transform="translate(112,184)"
       id="g52"><path
         id="path54"
         style="fill:#d24444;fill-opacity:1;fill-rule:nonzero;stroke:none"
         d="M 0,0 V -16 H -16 V 0 h -16 v -32 h 16 V -48 H 0 v 16 H 16 V 0 Z" /></g><g
       transform="translate(176,184)"
       id="g56"><path
         id="path58"
         style="fill:#d24444;fill-opacity:1;fill-rule:nonzero;stroke:none"
         d="M 0,0 V -16 H -16 V 0 h -16 v -32 h 16 V -48 H 0 v 16 H 16 V 0 Z" /></g><g
       transform="translate(176,104)"
       id="g60"><path
         id="path62"
         style="fill:#e6e6e6;fill-opacity:1;fill-rule:nonzero;stroke:none"
         d="m 0,0 h -80 v -16 h 16 v -16 h 48 v 16 H 0 Z" /></g></g></svg>