<?xml version="1.0" encoding="iso-8859-1"?>
<!-- Generator: Adobe Illustrator 27.8.1, SVG Export Plug-In . SVG Version: 6.00 Build 0)  -->
<svg version="1.1" id="Layer_1" xmlns="http://www.w3.org/2000/svg" xmlns:xlink="http://www.w3.org/1999/xlink" x="0px" y="0px"
	 viewBox="0 0 320 223.5" style="enable-background:new 0 0 320 223.5;" xml:space="preserve">
<rect style="fill:#3D0000;stroke:#FFFFFF;stroke-miterlimit:10;" width="32" height="32"/>
<rect x="32" style="fill:#7B0000;stroke:#FFFFFF;stroke-miterlimit:10;" width="32" height="32"/>
<rect x="64" style="fill:#B80000;stroke:#FFFFFF;stroke-miterlimit:10;" width="32" height="32"/>
<rect x="96" style="fill:#FF0000;stroke:#FFFFFF;stroke-miterlimit:10;" width="32" height="32"/>
<rect x="128" style="fill:#D35400;stroke:#FFFFFF;stroke-miterlimit:10;" width="32" height="32"/>
<rect x="160" style="fill:#E77F22;stroke:#FFFFFF;stroke-miterlimit:10;" width="32" height="32"/>
<rect x="192" style="fill:#F99D1C;stroke:#FFFFFF;stroke-miterlimit:10;" width="32" height="32"/>
<rect x="224" style="fill:#FDB913;stroke:#FFFFFF;stroke-miterlimit:10;" width="32" height="32"/>
<rect x="256" style="fill:#FFCB05;stroke:#FFFFFF;stroke-miterlimit:10;" width="32" height="32"/>
<rect x="288" style="fill:#FFFF00;stroke:#FFFFFF;stroke-miterlimit:10;" width="32" height="32"/>
<rect x="0" y="32" style="fill:#003D00;stroke:#FFFFFF;stroke-miterlimit:10;" width="32" height="32"/>
<rect x="32" y="32" style="fill:#007B00;stroke:#FFFFFF;stroke-miterlimit:10;" width="32" height="32"/>
<rect x="64" y="32" style="fill:#00B800;stroke:#FFFFFF;stroke-miterlimit:10;" width="32" height="32"/>
<rect x="96" y="32" style="fill:#00FF00;stroke:#FFFFFF;stroke-miterlimit:10;" width="32" height="32"/>
<rect x="128" y="32" style="fill:#4EB96F;stroke:#FFFFFF;stroke-miterlimit:10;" width="32" height="32"/>
<rect x="160" y="32" style="fill:#74B743;stroke:#FFFFFF;stroke-miterlimit:10;" width="32" height="32"/>
<rect x="192" y="32" style="fill:#485915;stroke:#FFFFFF;stroke-miterlimit:10;" width="32" height="32"/>
<rect x="224" y="32" style="fill:#0E6654;stroke:#FFFFFF;stroke-miterlimit:10;" width="32" height="32"/>
<rect x="256" y="32" style="fill:#16A085;stroke:#FFFFFF;stroke-miterlimit:10;" width="32" height="32"/>
<rect x="288" y="32" style="fill:#1ABF9F;stroke:#FFFFFF;stroke-miterlimit:10;" width="32" height="32"/>
<rect y="64" style="fill:#005560;stroke:#FFFFFF;stroke-miterlimit:10;" width="32" height="32"/>
<rect x="32" y="64" style="fill:#036A6D;stroke:#FFFFFF;stroke-miterlimit:10;" width="32" height="32"/>
<rect x="64" y="64" style="fill:#169DA4;stroke:#FFFFFF;stroke-miterlimit:10;" width="32" height="32"/>
<rect x="96" y="64" style="fill:#263979;stroke:#FFFFFF;stroke-miterlimit:10;" width="32" height="32"/>
<rect x="128" y="64" style="fill:#354F9F;stroke:#FFFFFF;stroke-miterlimit:10;" width="32" height="32"/>
<rect x="160" y="64" style="fill:#4B5DA7;stroke:#FFFFFF;stroke-miterlimit:10;" width="32" height="32"/>
<rect x="192" y="64" style="fill:#0000FF;stroke:#FFFFFF;stroke-miterlimit:10;" width="32" height="32"/>
<rect x="224" y="64" style="fill:#0000B8;stroke:#FFFFFF;stroke-miterlimit:10;" width="32" height="32"/>
<rect x="256" y="64" style="fill:#00007B;stroke:#FFFFFF;stroke-miterlimit:10;" width="32" height="32"/>
<rect x="288" y="64" style="fill:#00003D;stroke:#FFFFFF;stroke-miterlimit:10;" width="32" height="32"/>
<rect y="96" style="fill:#330066;stroke:#FFFFFF;stroke-miterlimit:10;" width="32" height="32"/>
<rect x="32" y="96" style="fill:#4D0099;stroke:#FFFFFF;stroke-miterlimit:10;" width="32" height="32"/>
<rect x="64" y="96" style="fill:#6700CC;stroke:#FFFFFF;stroke-miterlimit:10;" width="32" height="32"/>
<rect x="96" y="96" style="fill:#2C3E50;stroke:#FFFFFF;stroke-miterlimit:10;" width="32" height="32"/>
<rect x="128" y="96" style="fill:#29678F;stroke:#FFFFFF;stroke-miterlimit:10;" width="32" height="32"/>
<rect x="160" y="96" style="fill:#2C8BBF;stroke:#FFFFFF;stroke-miterlimit:10;" width="32" height="32"/>
<rect x="192" y="96" style="fill:#3096CF;stroke:#FFFFFF;stroke-miterlimit:10;" width="32" height="32"/>
<rect x="224" y="96" style="fill:#9BC2DD;stroke:#FFFFFF;stroke-miterlimit:10;" width="32" height="32"/>
<rect x="288" y="128" style="fill:#FFFFFF;stroke:#FFFFFF;stroke-miterlimit:10;" width="32" height="32"/>
<rect x="256" y="96" style="fill:#A12868;stroke:#FFFFFF;stroke-miterlimit:10;" width="32" height="32"/>
<rect x="288" y="96" style="fill:#B62971;stroke:#FFFFFF;stroke-miterlimit:10;" width="32" height="32"/>
<rect y="128" style="fill:#ED4792;stroke:#FFFFFF;stroke-miterlimit:10;" width="32" height="32"/>
<rect y="160" style="fill:#F2F2F2;stroke:#FFFFFF;stroke-miterlimit:10;" width="32" height="32"/>
<rect x="32" y="160" style="fill:#E6E6E6;stroke:#FFFFFF;stroke-miterlimit:10;" width="32" height="32"/>
<rect x="64" y="160" style="fill:#D9D9D9;stroke:#FFFFFF;stroke-miterlimit:10;" width="32" height="32"/>
<rect x="96" y="160" style="fill:#CCCCCC;stroke:#FFFFFF;stroke-miterlimit:10;" width="32" height="32"/>
<rect x="128" y="160" style="fill:#BFBFBF;stroke:#FFFFFF;stroke-miterlimit:10;" width="32" height="32"/>
<rect x="160" y="160" style="fill:#B3B3B3;stroke:#FFFFFF;stroke-miterlimit:10;" width="32" height="32"/>
<rect x="192" y="160" style="fill:#A6A6A6;stroke:#FFFFFF;stroke-miterlimit:10;" width="32" height="32"/>
<rect x="224" y="160" style="fill:#999999;stroke:#FFFFFF;stroke-miterlimit:10;" width="32" height="32"/>
<rect x="256" y="160" style="fill:#8C8C8C;stroke:#FFFFFF;stroke-miterlimit:10;" width="32" height="32"/>
<rect x="288" y="160" style="fill:#808080;stroke:#FFFFFF;stroke-miterlimit:10;" width="32" height="32"/>
<rect y="192" style="fill:#737373;stroke:#FFFFFF;stroke-miterlimit:10;" width="32" height="32"/>
<rect x="32" y="192" style="fill:#666666;stroke:#FFFFFF;stroke-miterlimit:10;" width="32" height="32"/>
<rect x="64" y="192" style="fill:#595959;stroke:#FFFFFF;stroke-miterlimit:10;" width="32" height="32"/>
<rect x="96" y="192" style="fill:#4D4D4D;stroke:#FFFFFF;stroke-miterlimit:10;" width="32" height="32"/>
<rect x="128" y="192" style="fill:#404040;stroke:#FFFFFF;stroke-miterlimit:10;" width="32" height="32"/>
<rect x="160" y="192" style="fill:#333333;stroke:#FFFFFF;stroke-miterlimit:10;" width="32" height="32"/>
<rect x="192" y="192" style="fill:#262626;stroke:#FFFFFF;stroke-miterlimit:10;" width="32" height="32"/>
<rect x="224" y="192" style="fill:#1A1A1A;stroke:#FFFFFF;stroke-miterlimit:10;" width="32" height="32"/>
<rect x="256" y="192" style="fill:#0D0D0D;stroke:#FFFFFF;stroke-miterlimit:10;" width="32" height="32"/>
<rect x="288" y="192" style="stroke:#FFFFFF;stroke-miterlimit:10;" width="32" height="32"/>
<rect x="32" y="128" style="fill:#A3834A;stroke:#FFFFFF;stroke-miterlimit:10;" width="32" height="32"/>
<rect x="128" y="128" style="fill:#CCA37A;stroke:#FFFFFF;stroke-miterlimit:10;" width="32" height="32"/>
<rect x="160" y="128" style="fill:#FFCC99;stroke:#FFFFFF;stroke-miterlimit:10;" width="32" height="32"/>
<rect x="224" y="128" style="fill:#C4C0AA;stroke:#FFFFFF;stroke-miterlimit:10;" width="32" height="32"/>
<rect x="256" y="128" style="fill:#D9D4BC;stroke:#FFFFFF;stroke-miterlimit:10;" width="32" height="32"/>
<rect x="192" y="128" style="fill:#A6A390;stroke:#FFFFFF;stroke-miterlimit:10;" width="32" height="32"/>
<rect x="96" y="128" style="fill:#D9AF63;stroke:#FFFFFF;stroke-miterlimit:10;" width="32" height="32"/>
<rect x="64" y="128" style="fill:#BF9A57;stroke:#FFFFFF;stroke-miterlimit:10;" width="32" height="32"/>
</svg>
