<?xml version="1.0" encoding="UTF-8" standalone="no"?>
<svg
   xmlns:dc="http://purl.org/dc/elements/1.1/"
   xmlns:cc="http://creativecommons.org/ns#"
   xmlns:rdf="http://www.w3.org/1999/02/22-rdf-syntax-ns#"
   xmlns:svg="http://www.w3.org/2000/svg"
   xmlns="http://www.w3.org/2000/svg"
   viewBox="0 0 320 320"
   height="320"
   width="320"
   xml:space="preserve"
   id="svg2"
   version="1.1"><metadata
     id="metadata8"><rdf:RDF><cc:Work
         rdf:about=""><dc:format>image/svg+xml</dc:format><dc:type
           rdf:resource="http://purl.org/dc/dcmitype/StillImage" /></cc:Work></rdf:RDF></metadata><defs
     id="defs6"><clipPath
       id="clipPath18"
       clipPathUnits="userSpaceOnUse"><path
         id="path16"
         d="M 0,256 H 256 V 0 H 0 Z" /></clipPath></defs><g
     transform="matrix(1.3333333,0,0,-1.3333333,-10.6668,330.66666)"
     id="g10"><g
       id="g12"><g
         clip-path="url(#clipPath18)"
         id="g14"><g
           transform="translate(128.0001,24)"
           id="g20"><path
             id="path22"
             style="fill:#ffffff;fill-opacity:1;fill-rule:nonzero;stroke:none"
             d="m 0,0 c -4.411,0 -8,3.589 -8,8 v 32 c 0,4.411 3.589,8 8,8 4.411,0 8,-3.589 8,-8 V 8 C 8,3.589 4.411,0 0,0 m 42,87.5 c -1.103,0 -2,0.897 -2,2 0,1.103 0.897,2 2,2 1.103,0 2,-0.897 2,-2 0,-1.103 -0.897,-2 -2,-2 M 0,76 c -15.439,0 -28,12.561 -28,28 0,15.439 12.561,28 28,28 15.439,0 28,-12.561 28,-28 C 28,88.561 15.439,76 0,76 m 111.857,148 h -223.714 c -4.49,0 -8.143,-3.653 -8.143,-8.143 V -7.857 c 0,-4.49 3.653,-8.143 8.143,-8.143 H -32 h 4 v 4 -4 h 4 48 4 v 4 -4 h 4 79.857 c 4.49,0 8.143,3.653 8.143,8.143 V 156 v 4 h -4 -0.143 0.143 4 v 4 51.857 c 0,4.49 -3.653,8.143 -8.143,8.143 M 0,-4 C 6.648,-4 12,1.352 12,8 V 40 C 12,46.648 6.648,52 0,52 -6.648,52 -12,46.648 -12,40 V 8 C -12,1.352 -6.648,-4 0,-4 m 42,87.5 c 3.314,0 6,2.686 6,6 0,3.314 -2.686,6 -6,6 -3.314,0 -6,-2.686 -6,-6 0,-3.314 2.686,-6 6,-6 M 0,72 c 17.673,0 32,14.327 32,32 0,17.673 -14.327,32 -32,32 -17.673,0 -32,-14.327 -32,-32 0,-17.673 14.327,-32 32,-32 m 111.857,148 c 2.295,0 4.143,-1.848 4.143,-4.143 V 164 h -4.143 v -8 H 116 V -7.857 C 116,-10.152 114.152,-12 111.857,-12 H 32 c 0,2.288 -1.712,4.143 -4,4.143 -2.288,0 -4,-1.855 -4,-4.143 h -48 c 0,2.288 -1.712,4.143 -4,4.143 -2.288,0 -4,-1.855 -4,-4.143 h -79.857 c -2.295,0 -4.143,1.848 -4.143,4.143 v 223.714 c 0,2.295 1.848,4.143 4.143,4.143 z" /></g><g
           transform="translate(157.3077,240)"
           id="g24"><path
             id="path26"
             style="fill:#ffffff;fill-opacity:1;fill-rule:nonzero;stroke:none"
             d="m 0,0 h -134.615 c -3.753,0 -6.693,-3.514 -6.693,-8 v -48 c 0,-4.486 2.94,-8 6.693,-8 H 0 c 3.753,0 6.692,3.514 6.692,8 V -8 C 6.692,-3.514 3.753,0 0,0 m 0,-4 c 1.487,0 2.692,-1.791 2.692,-4 v -48 c 0,-2.209 -1.205,-4 -2.692,-4 h -134.615 c -1.487,0 -2.693,1.791 -2.693,4 v 48 c 0,2.209 1.206,4 2.693,4 z" /></g></g></g></g></svg>