<svg xmlns="http://www.w3.org/2000/svg" xml:space="preserve" width="320" height="240"><defs><clipPath id="a" clipPathUnits="userSpaceOnUse"><path d="M0 256h256V0H0Z"/></clipPath></defs><path d="M0 0h-240v-112H0V-4zm-4-108h-232V-4H-4Z" style="fill:#fff;fill-opacity:1;fill-rule:nonzero;stroke:none" transform="matrix(1.33333 0 0 -1.33333 320 90.667)"/><path d="M0 0h-224v-84H0v80zm-4-80h-216v76H-4Z" style="fill:#fff;fill-opacity:1;fill-rule:nonzero;stroke:none" transform="matrix(1.33333 0 0 -1.33333 309.333 117.333)"/><path d="M0 0h-232l-4-72H4Zm-3.784-4 3.556-64h-231.544l3.556 64z" style="fill:#fff;fill-opacity:1;fill-rule:nonzero;stroke:none" transform="matrix(1.33333 0 0 -1.33333 314.667 0)"/><path d="M0 0h-224v-16H0v12zm-4-12h-216v8H-4Z" style="fill:#fff;fill-opacity:1;fill-rule:nonzero;stroke:none" transform="matrix(1.33333 0 0 -1.33333 309.333 101.333)"/><path d="M0 0h-16v-16H0v12zm-4-12h-8v8h8z" style="fill:#fff;fill-opacity:1;fill-rule:nonzero;stroke:none" transform="matrix(1.33333 0 0 -1.33333 106.667 117.333)"/><path d="M0 0h-16v-16H0v12zm-4-12h-8v8h8z" style="fill:#fff;fill-opacity:1;fill-rule:nonzero;stroke:none" transform="matrix(1.33333 0 0 -1.33333 122.667 117.333)"/><path d="M0 0h-16v-16H0v12zm-4-12h-8v8h8z" style="fill:#fff;fill-opacity:1;fill-rule:nonzero;stroke:none" transform="matrix(1.33333 0 0 -1.33333 138.667 117.333)"/><path d="M0 0h-16v-16H0v12zm-4-12h-8v8h8z" style="fill:#fff;fill-opacity:1;fill-rule:nonzero;stroke:none" transform="matrix(1.33333 0 0 -1.33333 154.667 117.333)"/><path d="M0 0h-16v-16H0v12zm-4-12h-8v8h8z" style="fill:#fff;fill-opacity:1;fill-rule:nonzero;stroke:none" transform="matrix(1.33333 0 0 -1.33333 170.667 117.333)"/><path d="M0 0h-16v-16H0v12zm-4-12h-8v8h8z" style="fill:#fff;fill-opacity:1;fill-rule:nonzero;stroke:none" transform="matrix(1.33333 0 0 -1.33333 186.667 117.333)"/><path d="M0 0h-16v-16H0v12zm-4-12h-8v8h8z" style="fill:#fff;fill-opacity:1;fill-rule:nonzero;stroke:none" transform="matrix(1.33333 0 0 -1.33333 202.667 117.333)"/><path d="M0 0h-16v-16H0v12zm-4-12h-8v8h8z" style="fill:#fff;fill-opacity:1;fill-rule:nonzero;stroke:none" transform="matrix(1.33333 0 0 -1.33333 218.667 117.333)"/><path d="M0 0h-16v-16H0v12zm-4-12h-8v8h8z" style="fill:#fff;fill-opacity:1;fill-rule:nonzero;stroke:none" transform="matrix(1.33333 0 0 -1.33333 234.667 117.333)"/><path d="M0 0h-16v-16H0v12zm-4-12h-8v8h8z" style="fill:#fff;fill-opacity:1;fill-rule:nonzero;stroke:none" transform="matrix(1.33333 0 0 -1.33333 250.667 117.333)"/><path d="M0 0h-16v-16H0v12zm-4-12h-8v8h8z" style="fill:#fff;fill-opacity:1;fill-rule:nonzero;stroke:none" transform="matrix(1.33333 0 0 -1.33333 69.333 133.333)"/><path d="M0 0h-16v-16H0v12zm-4-12h-8v8h8z" style="fill:#fff;fill-opacity:1;fill-rule:nonzero;stroke:none" transform="matrix(1.33333 0 0 -1.33333 64 165.333)"/><path d="M0 0h-16v-16H0v12zm-4-12h-8v8h8z" style="fill:#fff;fill-opacity:1;fill-rule:nonzero;stroke:none" transform="matrix(1.33333 0 0 -1.33333 106.667 181.333)"/><path d="M0 0h-16v-16H0v12zm-4-12h-8v8h8z" style="fill:#fff;fill-opacity:1;fill-rule:nonzero;stroke:none" transform="matrix(1.33333 0 0 -1.33333 122.667 181.333)"/><path d="M0 0h-96v-16H0v12zm-4-12h-88v8h88z" style="fill:#fff;fill-opacity:1;fill-rule:nonzero;stroke:none" transform="matrix(1.33333 0 0 -1.33333 224 197.333)"/><path d="M0 0h-16v-16H0v12zm-4-12h-8v8h8z" style="fill:#fff;fill-opacity:1;fill-rule:nonzero;stroke:none" transform="matrix(1.33333 0 0 -1.33333 138.667 181.333)"/><path d="M0 0h-16v-16H0v12zm-4-12h-8v8h8z" style="fill:#fff;fill-opacity:1;fill-rule:nonzero;stroke:none" transform="matrix(1.33333 0 0 -1.33333 154.667 181.333)"/><path d="M0 0h-16v-16H0v12zm-4-12h-8v8h8z" style="fill:#fff;fill-opacity:1;fill-rule:nonzero;stroke:none" transform="matrix(1.33333 0 0 -1.33333 170.667 181.333)"/><path d="M0 0h-16v-16H0v12zm-4-12h-8v8h8z" style="fill:#fff;fill-opacity:1;fill-rule:nonzero;stroke:none" transform="matrix(1.33333 0 0 -1.33333 186.667 181.333)"/><path d="M0 0h-16v-16H0v12zm-4-12h-8v8h8z" style="fill:#fff;fill-opacity:1;fill-rule:nonzero;stroke:none" transform="matrix(1.33333 0 0 -1.33333 202.667 181.333)"/><path d="M0 0h-16v-16H0v12zm-4-12h-8v8h8z" style="fill:#fff;fill-opacity:1;fill-rule:nonzero;stroke:none" transform="matrix(1.33333 0 0 -1.33333 218.667 181.333)"/><path d="M0 0h-16v-16H0v12zm-4-12h-8v8h8z" style="fill:#fff;fill-opacity:1;fill-rule:nonzero;stroke:none" transform="matrix(1.33333 0 0 -1.33333 234.667 181.333)"/><path d="M0 0h-20v-16H0v12zm-4-12h-12v8h12z" style="fill:#fff;fill-opacity:1;fill-rule:nonzero;stroke:none" transform="matrix(1.33333 0 0 -1.33333 256 181.333)"/><path d="M0 0h-16v-16H0v12zm-4-12h-8v8h8z" style="fill:#fff;fill-opacity:1;fill-rule:nonzero;stroke:none" transform="matrix(1.33333 0 0 -1.33333 272 181.333)"/><path d="M0 0h-16v-16H0v12zm-4-12h-8v8h8z" style="fill:#fff;fill-opacity:1;fill-rule:nonzero;stroke:none" transform="matrix(1.33333 0 0 -1.33333 288 181.333)"/><path d="M0 0h-24v-16H0v12zm-4-12h-16v8h16z" style="fill:#fff;fill-opacity:1;fill-rule:nonzero;stroke:none" transform="matrix(1.33333 0 0 -1.33333 90.667 181.333)"/><path d="M0 0h-16v-16H0v12zm-4-12h-8v8h8z" style="fill:#fff;fill-opacity:1;fill-rule:nonzero;stroke:none" transform="matrix(1.33333 0 0 -1.33333 80 165.333)"/><path d="M0 0h-16v-16H0v12zm-4-12h-8v8h8z" style="fill:#fff;fill-opacity:1;fill-rule:nonzero;stroke:none" transform="matrix(1.33333 0 0 -1.33333 96 165.333)"/><path d="M0 0h-16v-16H0v12zm-4-12h-8v8h8z" style="fill:#fff;fill-opacity:1;fill-rule:nonzero;stroke:none" transform="matrix(1.33333 0 0 -1.33333 112 165.333)"/><path d="M0 0h-16v-16H0v12zm-4-12h-8v8h8z" style="fill:#fff;fill-opacity:1;fill-rule:nonzero;stroke:none" transform="matrix(1.33333 0 0 -1.33333 128 165.333)"/><path d="M0 0h-16v-16H0v12zm-4-12h-8v8h8z" style="fill:#fff;fill-opacity:1;fill-rule:nonzero;stroke:none" transform="matrix(1.33333 0 0 -1.33333 144 165.333)"/><path d="M0 0h-16v-16H0v12zm-4-12h-8v8h8z" style="fill:#fff;fill-opacity:1;fill-rule:nonzero;stroke:none" transform="matrix(1.33333 0 0 -1.33333 160 165.333)"/><path d="M0 0h-16v-16H0v12zm-4-12h-8v8h8z" style="fill:#fff;fill-opacity:1;fill-rule:nonzero;stroke:none" transform="matrix(1.33333 0 0 -1.33333 176 165.333)"/><path d="M0 0h-16v-16H0v12zm-4-12h-8v8h8z" style="fill:#fff;fill-opacity:1;fill-rule:nonzero;stroke:none" transform="matrix(1.33333 0 0 -1.33333 192 165.333)"/><path d="M0 0h-16v-16H0v12zm-4-12h-8v8h8z" style="fill:#fff;fill-opacity:1;fill-rule:nonzero;stroke:none" transform="matrix(1.33333 0 0 -1.33333 208 165.333)"/><path d="M0 0h-16v-16H0v12zm-4-12h-8v8h8z" style="fill:#fff;fill-opacity:1;fill-rule:nonzero;stroke:none" transform="matrix(1.33333 0 0 -1.33333 224 165.333)"/><path d="M0 0h-16v-16H0v12zm-4-12h-8v8h8z" style="fill:#fff;fill-opacity:1;fill-rule:nonzero;stroke:none" transform="matrix(1.33333 0 0 -1.33333 240 165.333)"/><path d="M0 0h-16v-16H0v12zm-4-12h-8v8h8z" style="fill:#fff;fill-opacity:1;fill-rule:nonzero;stroke:none" transform="matrix(1.33333 0 0 -1.33333 256 165.333)"/><path d="M0 0h-28v-16H0v12zm-4-12h-20v8h20z" style="fill:#fff;fill-opacity:1;fill-rule:nonzero;stroke:none" transform="matrix(1.33333 0 0 -1.33333 288 165.333)"/><path d="M0 0h-20v-16H0v12zm-4-12h-12v8h12z" style="fill:#fff;fill-opacity:1;fill-rule:nonzero;stroke:none" transform="matrix(1.33333 0 0 -1.33333 74.667 149.333)"/><path d="M0 0h-16v-16H0v12zm-4-12h-8v8h8z" style="fill:#fff;fill-opacity:1;fill-rule:nonzero;stroke:none" transform="matrix(1.33333 0 0 -1.33333 85.333 133.333)"/><path d="M0 0h-16v-16H0v12zm-4-12h-8v8h8z" style="fill:#fff;fill-opacity:1;fill-rule:nonzero;stroke:none" transform="matrix(1.33333 0 0 -1.33333 90.667 149.333)"/><path d="M0 0h-16v-16H0v12zm-4-12h-8v8h8z" style="fill:#fff;fill-opacity:1;fill-rule:nonzero;stroke:none" transform="matrix(1.33333 0 0 -1.33333 106.667 149.333)"/><path d="M0 0h-16v-16H0v12zm-4-12h-8v8h8z" style="fill:#fff;fill-opacity:1;fill-rule:nonzero;stroke:none" transform="matrix(1.33333 0 0 -1.33333 122.667 149.333)"/><path d="M0 0h-16v-16H0v12zm-4-12h-8v8h8z" style="fill:#fff;fill-opacity:1;fill-rule:nonzero;stroke:none" transform="matrix(1.33333 0 0 -1.33333 138.667 149.333)"/><path d="M0 0h-16v-16H0v12zm-4-12h-8v8h8z" style="fill:#fff;fill-opacity:1;fill-rule:nonzero;stroke:none" transform="matrix(1.33333 0 0 -1.33333 154.667 149.333)"/><path d="M0 0h-16v-16H0v12zm-4-12h-8v8h8z" style="fill:#fff;fill-opacity:1;fill-rule:nonzero;stroke:none" transform="matrix(1.33333 0 0 -1.33333 170.667 149.333)"/><path d="M0 0h-16v-16H0v12zm-4-12h-8v8h8z" style="fill:#fff;fill-opacity:1;fill-rule:nonzero;stroke:none" transform="matrix(1.33333 0 0 -1.33333 186.667 149.333)"/><path d="M0 0h-16v-16H0v12zm-4-12h-8v8h8z" style="fill:#fff;fill-opacity:1;fill-rule:nonzero;stroke:none" transform="matrix(1.33333 0 0 -1.33333 202.667 149.333)"/><path d="M0 0h-16v-16H0v12zm-4-12h-8v8h8z" style="fill:#fff;fill-opacity:1;fill-rule:nonzero;stroke:none" transform="matrix(1.33333 0 0 -1.33333 218.667 149.333)"/><path d="M0 0h-16v-16H0v12zm-4-12h-8v8h8z" style="fill:#fff;fill-opacity:1;fill-rule:nonzero;stroke:none" transform="matrix(1.33333 0 0 -1.33333 234.667 149.333)"/><path d="M0 0h-16v-16H0v12zm-4-12h-8v8h8z" style="fill:#fff;fill-opacity:1;fill-rule:nonzero;stroke:none" transform="matrix(1.33333 0 0 -1.33333 250.667 149.333)"/><path d="M0 0h-16v-16H0v12zm-4-12h-8v8h8z" style="fill:#fff;fill-opacity:1;fill-rule:nonzero;stroke:none" transform="matrix(1.33333 0 0 -1.33333 266.667 149.333)"/><path d="M0 0h-16v-16H0v12zm-4-12h-8v8h8z" style="fill:#fff;fill-opacity:1;fill-rule:nonzero;stroke:none" transform="matrix(1.33333 0 0 -1.33333 282.667 149.333)"/><path d="M0 0h-16v-16H0v12zm-4-12h-8v8h8z" style="fill:#fff;fill-opacity:1;fill-rule:nonzero;stroke:none" transform="matrix(1.33333 0 0 -1.33333 298.667 149.333)"/><path d="M0 0h-16v-16H0v12zm-4-12h-8v8h8z" style="fill:#fff;fill-opacity:1;fill-rule:nonzero;stroke:none" transform="matrix(1.33333 0 0 -1.33333 101.333 133.333)"/><path d="M0 0h-16v-16H0v12zm-4-12h-8v8h8z" style="fill:#fff;fill-opacity:1;fill-rule:nonzero;stroke:none" transform="matrix(1.33333 0 0 -1.33333 117.333 133.333)"/><path d="M0 0h-16v-16H0v12zm-4-12h-8v8h8z" style="fill:#fff;fill-opacity:1;fill-rule:nonzero;stroke:none" transform="matrix(1.33333 0 0 -1.33333 133.333 133.333)"/><path d="M0 0h-16v-16H0v12zm-4-12h-8v8h8z" style="fill:#fff;fill-opacity:1;fill-rule:nonzero;stroke:none" transform="matrix(1.33333 0 0 -1.33333 149.333 133.333)"/><path d="M0 0h-16v-16H0v12zm-4-12h-8v8h8z" style="fill:#fff;fill-opacity:1;fill-rule:nonzero;stroke:none" transform="matrix(1.33333 0 0 -1.33333 165.333 133.333)"/><path d="M0 0h-16v-16H0v12zm-4-12h-8v8h8z" style="fill:#fff;fill-opacity:1;fill-rule:nonzero;stroke:none" transform="matrix(1.33333 0 0 -1.33333 181.333 133.333)"/><path d="M0 0h-16v-16H0v12zm-4-12h-8v8h8z" style="fill:#fff;fill-opacity:1;fill-rule:nonzero;stroke:none" transform="matrix(1.33333 0 0 -1.33333 197.333 133.333)"/><path d="M0 0h-16v-16H0v12zm-4-12h-8v8h8z" style="fill:#fff;fill-opacity:1;fill-rule:nonzero;stroke:none" transform="matrix(1.33333 0 0 -1.33333 213.333 133.333)"/><path d="M0 0h-16v-16H0v12zm-4-12h-8v8h8z" style="fill:#fff;fill-opacity:1;fill-rule:nonzero;stroke:none" transform="matrix(1.33333 0 0 -1.33333 229.333 133.333)"/><path d="M0 0h-16v-16H0v12zm-4-12h-8v8h8z" style="fill:#fff;fill-opacity:1;fill-rule:nonzero;stroke:none" transform="matrix(1.33333 0 0 -1.33333 245.333 133.333)"/><path d="M0 0h-16v-16H0v12zm-4-12h-8v8h8z" style="fill:#fff;fill-opacity:1;fill-rule:nonzero;stroke:none" transform="matrix(1.33333 0 0 -1.33333 261.333 133.333)"/><path d="M0 0h-16v-16H0v12zm-4-12h-8v8h8z" style="fill:#fff;fill-opacity:1;fill-rule:nonzero;stroke:none" transform="matrix(1.33333 0 0 -1.33333 277.333 133.333)"/><path d="M0 0h-16v-16H0v12zm-4-12h-8v8h8z" style="fill:#fff;fill-opacity:1;fill-rule:nonzero;stroke:none" transform="matrix(1.33333 0 0 -1.33333 293.333 133.333)"/><g clip-path="url(#a)" transform="matrix(1.33333 0 0 -1.33333 -10.667 288)"><path d="M0 0a2 2 0 1 0-3.999-.001A2 2 0 0 0 0 0" style="fill:#fff;fill-opacity:1;fill-rule:nonzero;stroke:none" transform="translate(52 54)"/><path d="M0 0a2 2 0 1 0-3.999-.001A2 2 0 0 0 0 0" style="fill:#fff;fill-opacity:1;fill-rule:nonzero;stroke:none" transform="translate(76 54)"/><path d="M0 0a2 2 0 1 0-3.999-.001A2 2 0 0 0 0 0" style="fill:#fff;fill-opacity:1;fill-rule:nonzero;stroke:none" transform="translate(64 54)"/></g></svg>