<svg xmlns="http://www.w3.org/2000/svg" xml:space="preserve" width="320" height="320"><defs><clipPath id="a" clipPathUnits="userSpaceOnUse"><path d="M0 256h256V0H0Z"/></clipPath></defs><g clip-path="url(#a)" transform="matrix(1.33333 0 0 -1.33333 -10.667 330.667)"><path d="M0 0a5.27 5.27 0 0 0-5.273-5.273H-20V76.86c0 5.441-4.555 9.867-10.154 9.867h-147.692c-5.599 0-10.154-4.426-10.154-9.867V-5.273h-22.909L-232 21.091v200.364a5.27 5.27 0 0 0 5.273 5.272H-204v-110.2c0-5.404 4.011-9.8 8.941-9.8h158.118c4.93 0 8.941 4.396 8.941 9.8v110.2h22.727A5.27 5.27 0 0 0 0 221.455zm-52-5.273v72.728c0 6.321-4.153 11.272-9.454 11.272h-109.092c-5.301 0-9.454-4.951-9.454-11.272V-5.273h-4V76.86c0 3.245 2.751 5.867 6.154 5.867h147.692c3.403 0 6.154-2.622 6.154-5.867V-5.273Zm-124 0v72.728c0 4.021 2.438 7.272 5.454 7.272h109.092c3.016 0 5.454-3.251 5.454-7.272V-5.273Zm144 232v-110.2c0-3.207-2.209-5.8-4.941-5.8h-158.118c-2.732 0-4.941 2.593-4.941 5.8v110.2zm26.727 4h-221.454c-5.113 0-9.273-4.16-9.273-9.272V19.688l.877-1.096 21.091-26.364 1.2-1.501H-5.273C-.16-9.273 4-5.113 4 0v221.455c0 5.112-4.16 9.272-9.273 9.272" style="fill:#fff;fill-opacity:1;fill-rule:nonzero;stroke:none" transform="translate(244 17.273)"/><path d="M236 212h-12v12h12zm-12 15.464h-3.464v-18.928h18.928v18.928H236ZM84 76h28V24H84Zm-4-56h36v60H80Z" style="fill:#fff;fill-opacity:1;fill-rule:nonzero;stroke:none"/></g></svg>