<svg xmlns="http://www.w3.org/2000/svg" xml:space="preserve" width="245.333" height="245.333"><defs><clipPath id="a" clipPathUnits="userSpaceOnUse"><path d="M0 256h256V0H0Z"/></clipPath></defs><path d="m0 0-3.795-11.384-15.088-45.265h-56.52l8.904-7.123 37.822-30.258-15.118-45.354-4.283-12.85 10.577 8.462L0-113.771l37.501-30.001 10.577-8.462-4.283 12.85L28.677-94.03l37.822 30.258 8.904 7.123h-56.52L3.795-11.384Zm0-12.649 16-48h48l-40-32 16-48-40 32-40-32 16 48-40 32h48z" style="fill:#fff;fill-opacity:1;fill-rule:nonzero;stroke:none" transform="matrix(1.33333 0 0 -1.33333 122.667 20.468)"/><path d="M220 220H36V36h184Zm-4-180H40v176h176z" style="fill:#fff;fill-opacity:1;fill-rule:nonzero;stroke:none" transform="matrix(1.33333 0 0 -1.33333 -48 293.333)"/><g clip-path="url(#a)" transform="matrix(1.33333 0 0 -1.33333 -48 293.333)"><path d="M0 0c-4.411 0-8-3.589-8-8v-8h-8c-4.411 0-8-3.589-8-8s3.589-8 8-8h8v-8c0-4.411 3.589-8 8-8s8 3.589 8 8v8h8c4.411 0 8 3.589 8 8s-3.589 8-8 8H8v8c0 4.411-3.589 8-8 8m0-4a4 4 0 0 0 4-4v-12h12a4 4 0 0 0 0-8H4v-12a4 4 0 0 0-8 0v12h-12a4 4 0 0 0 0 8h12v12a4 4 0 0 0 4 4" style="fill:#fff;fill-opacity:1;fill-rule:nonzero;stroke:none" transform="translate(128 152)"/></g></svg>