<?xml version="1.0" encoding="UTF-8" standalone="no"?>
<svg
   xmlns:dc="http://purl.org/dc/elements/1.1/"
   xmlns:cc="http://creativecommons.org/ns#"
   xmlns:rdf="http://www.w3.org/1999/02/22-rdf-syntax-ns#"
   xmlns:svg="http://www.w3.org/2000/svg"
   xmlns="http://www.w3.org/2000/svg"
   viewBox="0 0 320 213.33333"
   height="213.33333"
   width="320"
   xml:space="preserve"
   id="svg2"
   version="1.1"><metadata
     id="metadata8"><rdf:RDF><cc:Work
         rdf:about=""><dc:format>image/svg+xml</dc:format><dc:type
           rdf:resource="http://purl.org/dc/dcmitype/StillImage" /></cc:Work></rdf:RDF></metadata><defs
     id="defs6"><clipPath
       id="clipPath18"
       clipPathUnits="userSpaceOnUse"><path
         id="path16"
         d="M 0,256 H 256 V 0 H 0 Z" /></clipPath></defs><g
     transform="matrix(1.3333333,0,0,-1.3333333,-10.666666,277.33333)"
     id="g10"><g
       id="g12"><g
         clip-path="url(#clipPath18)"
         id="g14"><g
           transform="translate(188,208)"
           id="g20"><path
             id="path22"
             style="fill:#ffffff;fill-opacity:1;fill-rule:nonzero;stroke:none"
             d="m 0,0 h -60 -60 c -0.909,0 -22.414,-0.249 -35.43,-21.942 -12.143,-20.238 -20.045,-66.592 -20.505,-69.338 -0.295,-1.488 -4.065,-20.806 -4.065,-36.72 0,-17.645 8.972,-32 20,-32 h 8.209 c 3.614,0 6.999,1.604 9.287,4.401 l 28.799,35.198 c 2.288,2.797 5.673,4.401 9.287,4.401 h 88.836 c 3.614,0 6.999,-1.604 9.287,-4.401 l 28.798,-35.198 c 2.289,-2.797 5.674,-4.401 9.288,-4.401 H 40 c 11.028,0 20,14.355 20,32 0,15.914 -3.77,35.232 -4.065,36.72 -0.46,2.746 -8.362,49.1 -20.505,69.338 C 22.414,-0.249 0.909,0 0,0 m 0,-4 c 0,0 20,0 32,-20 12,-20 20,-68 20,-68 0,0 4,-20 4,-36 0,-16 -8,-28 -16,-28 h -8.209 c -2.399,0 -4.672,1.077 -6.192,2.934 l -28.798,35.198 c -3.039,3.714 -7.584,5.868 -12.383,5.868 h -88.836 c -4.799,0 -9.344,-2.154 -12.383,-5.868 l -28.798,-35.198 c -1.52,-1.857 -3.793,-2.934 -6.192,-2.934 H -160 c -8,0 -16,12 -16,28 0,16 4,36 4,36 0,0 8,48 20,68 12,20 32,20 32,20 h 60 z" /></g><g
           transform="translate(192,200)"
           id="g24"><path
             id="path26"
             style="fill:#ffffff;fill-opacity:1;fill-rule:nonzero;stroke:none"
             d="m 0,0 h -16 -96 -16 c -17.645,0 -32,-14.355 -32,-32 0,-2.788 1.083,-12.246 4.57,-18.058 9.802,-16.337 29.733,-42.683 37.846,-53.252 2.255,-2.937 5.812,-4.69 9.517,-4.69 H -64 -19.933 c 3.705,0 7.262,1.753 9.517,4.69 8.113,10.569 28.044,36.915 37.846,53.252 C 30.917,-44.246 32,-34.788 32,-32 32,-14.355 17.645,0 0,0 m 0,-4 c 15.464,0 28,-12.536 28,-28 0,-2.827 -1.158,-11.263 -4,-16 -9.865,-16.442 -30.544,-43.697 -37.589,-52.875 -1.514,-1.971 -3.858,-3.125 -6.344,-3.125 H -64 -108.067 c -2.486,0 -4.83,1.154 -6.344,3.125 -7.045,9.178 -27.724,36.433 -37.589,52.875 -2.842,4.737 -4,13.173 -4,16 0,15.464 12.536,28 28,28 h 16 96 z" /></g><g
           transform="translate(66,182)"
           id="g28"><path
             id="path30"
             style="fill:#ffffff;fill-opacity:1;fill-rule:nonzero;stroke:none"
             d="m 0,0 c -7.72,0 -14,-6.28 -14,-14 0,-7.72 6.28,-14 14,-14 7.72,0 14,6.28 14,14 C 14,-6.28 7.72,0 0,0 m 0,-4 c 5.523,0 10,-4.477 10,-10 0,-5.523 -4.477,-10 -10,-10 -5.523,0 -10,4.477 -10,10 0,5.523 4.477,10 10,10" /></g><g
           transform="translate(160,142)"
           id="g32"><path
             id="path34"
             style="fill:#ffffff;fill-opacity:1;fill-rule:nonzero;stroke:none"
             d="m 0,0 c -7.72,0 -14,-6.28 -14,-14 0,-7.72 6.28,-14 14,-14 7.72,0 14,6.28 14,14 C 14,-6.28 7.72,0 0,0 m 0,-4 c 5.523,0 10,-4.477 10,-10 0,-5.523 -4.477,-10 -10,-10 -5.523,0 -10,4.477 -10,10 0,5.523 4.477,10 10,10" /></g><g
           transform="translate(96,152)"
           id="g36"><path
             id="path38"
             style="fill:#ffffff;fill-opacity:1;fill-rule:nonzero;stroke:none"
             d="m 0,0 c -13.234,0 -24,-10.766 -24,-24 0,-13.234 10.766,-24 24,-24 13.234,0 24,10.766 24,24 C 24,-10.766 13.234,0 0,0 m 0,-4 c 11.046,0 20,-8.954 20,-20 0,-11.046 -8.954,-20 -20,-20 -11.046,0 -20,8.954 -20,20 0,11.046 8.954,20 20,20" /></g><g
           transform="translate(96,152)"
           id="g40"><path
             id="path42"
             style="fill:#ffffff;fill-opacity:1;fill-rule:nonzero;stroke:none"
             d="M 0,0 C -3.321,0 -6.552,-0.676 -9.603,-2.01 L -12,-3.059 V -5.675 -12 h -6.325 -2.616 l -1.049,-2.397 C -23.324,-17.448 -24,-20.679 -24,-24 c 0,-3.321 0.676,-6.552 2.01,-9.603 L -20.941,-36 h 2.616 6.325 v -6.325 -2.616 l 2.397,-1.049 C -6.552,-47.324 -3.321,-48 0,-48 c 3.321,0 6.552,0.676 9.603,2.01 L 12,-44.941 v 2.616 6.325 h 6.325 2.616 l 1.049,2.397 c 1.334,3.051 2.01,6.282 2.01,9.603 0,3.321 -0.676,6.552 -2.01,9.603 L 20.941,-12 H 18.325 12 v 6.325 2.616 L 9.603,-2.01 C 6.552,-0.676 3.321,0 0,0 m 0,-4 c 2.846,0 5.549,-0.604 8,-1.675 V -16 h 10.325 c 1.071,-2.451 1.675,-5.154 1.675,-8 0,-2.846 -0.604,-5.549 -1.675,-8 H 8 V -42.325 C 5.549,-43.396 2.846,-44 0,-44 c -2.846,0 -5.549,0.604 -8,1.675 V -32 h -10.325 c -1.071,2.451 -1.675,5.154 -1.675,8 0,2.846 0.604,5.549 1.675,8 H -8 V -5.675 C -5.549,-4.604 -2.846,-4 0,-4" /></g><g
           transform="translate(128,164)"
           id="g44"><path
             id="path46"
             style="fill:#ffffff;fill-opacity:1;fill-rule:nonzero;stroke:none"
             d="m 0,0 c -4.411,0 -8,-3.589 -8,-8 0,-4.411 3.589,-8 8,-8 4.411,0 8,3.589 8,8 0,4.411 -3.589,8 -8,8 m 0,-4 c 2.209,0 4,-1.791 4,-4 0,-2.209 -1.791,-4 -4,-4 -2.209,0 -4,1.791 -4,4 0,2.209 1.791,4 4,4" /></g><g
           transform="translate(108,184)"
           id="g48"><path
             id="path50"
             style="fill:#ffffff;fill-opacity:1;fill-rule:nonzero;stroke:none"
             d="m 0,0 c -4.411,0 -8,-3.589 -8,-8 0,-4.411 3.589,-8 8,-8 4.411,0 8,3.589 8,8 0,4.411 -3.589,8 -8,8 m 0,-4 c 2.209,0 4,-1.791 4,-4 0,-2.209 -1.791,-4 -4,-4 -2.209,0 -4,1.791 -4,4 0,2.209 1.791,4 4,4" /></g><g
           transform="translate(148,184)"
           id="g52"><path
             id="path54"
             style="fill:#ffffff;fill-opacity:1;fill-rule:nonzero;stroke:none"
             d="m 0,0 c -4.411,0 -8,-3.589 -8,-8 0,-4.411 3.589,-8 8,-8 4.411,0 8,3.589 8,8 0,4.411 -3.589,8 -8,8 m 0,-4 c 2.209,0 4,-1.791 4,-4 0,-2.209 -1.791,-4 -4,-4 -2.209,0 -4,1.791 -4,4 0,2.209 1.791,4 4,4" /></g><g
           transform="translate(128,188)"
           id="g56"><path
             id="path58"
             style="fill:#ffffff;fill-opacity:1;fill-rule:nonzero;stroke:none"
             d="m 0,0 c -6.617,0 -12,-5.383 -12,-12 0,-6.617 5.383,-12 12,-12 6.617,0 12,5.383 12,12 C 12,-5.383 6.617,0 0,0 m 0,-4 c 4.418,0 8,-3.582 8,-8 0,-4.418 -3.582,-8 -8,-8 -4.418,0 -8,3.582 -8,8 0,4.418 3.582,8 8,8" /></g><g
           transform="translate(172,176)"
           id="g60"><path
             id="path62"
             style="fill:#ffffff;fill-opacity:1;fill-rule:nonzero;stroke:none"
             d="m 0,0 c -6.617,0 -12,-5.383 -12,-12 0,-6.617 5.383,-12 12,-12 6.617,0 12,5.383 12,12 C 12,-5.383 6.617,0 0,0 m 0,-4 c 4.418,0 8,-3.582 8,-8 0,-4.418 -3.582,-8 -8,-8 -4.418,0 -8,3.582 -8,8 0,4.418 3.582,8 8,8" /></g><g
           transform="translate(204,176)"
           id="g64"><path
             id="path66"
             style="fill:#ffffff;fill-opacity:1;fill-rule:nonzero;stroke:none"
             d="m 0,0 c -6.617,0 -12,-5.383 -12,-12 0,-6.617 5.383,-12 12,-12 6.617,0 12,5.383 12,12 C 12,-5.383 6.617,0 0,0 m 0,-4 c 4.418,0 8,-3.582 8,-8 0,-4.418 -3.582,-8 -8,-8 -4.418,0 -8,3.582 -8,8 0,4.418 3.582,8 8,8" /></g><g
           transform="translate(188,192)"
           id="g68"><path
             id="path70"
             style="fill:#ffffff;fill-opacity:1;fill-rule:nonzero;stroke:none"
             d="m 0,0 c -6.617,0 -12,-5.383 -12,-12 0,-6.617 5.383,-12 12,-12 6.617,0 12,5.383 12,12 C 12,-5.383 6.617,0 0,0 m 0,-4 c 4.418,0 8,-3.582 8,-8 0,-4.418 -3.582,-8 -8,-8 -4.418,0 -8,3.582 -8,8 0,4.418 3.582,8 8,8" /></g><g
           transform="translate(188,160)"
           id="g72"><path
             id="path74"
             style="fill:#ffffff;fill-opacity:1;fill-rule:nonzero;stroke:none"
             d="m 0,0 c -6.617,0 -12,-5.383 -12,-12 0,-6.617 5.383,-12 12,-12 6.617,0 12,5.383 12,12 C 12,-5.383 6.617,0 0,0 m 0,-4 c 4.418,0 8,-3.582 8,-8 0,-4.418 -3.582,-8 -8,-8 -4.418,0 -8,3.582 -8,8 0,4.418 3.582,8 8,8" /></g></g></g></g></svg>