<svg xmlns="http://www.w3.org/2000/svg" xml:space="preserve" viewBox="0 0 256 256"><path d="m227.997 119.852-3.929-106.074A5.98 5.98 0 0 0 218.072 8H162a6.01 6.01 0 0 0-5.657 4H99.657A6.01 6.01 0 0 0 94 8H37.927a5.98 5.98 0 0 0-5.996 5.778l-3.929 106.074-.153 4.148H28v8h.151l3.778 98.231A5.98 5.98 0 0 0 37.925 236h-.397l1.789 3.578A7.96 7.96 0 0 0 46.472 244h163.056a7.96 7.96 0 0 0 7.155-4.422l1.789-3.578h-.397a5.98 5.98 0 0 0 5.996-5.769L227.849 132H228v-8h.151zM156 16v24h-56V16zm-56 28h56v16h-56zM35.929 13.926A2 2 0 0 1 37.927 12H94a2 2 0 0 1 2 2v50h64V14a2 2 0 0 1 2-2h56.073a2 2 0 0 1 1.999 1.926L224 120H32zm177.177 223.863a4 4 0 0 1-3.578 2.211H46.472c-1.515 0-2.9-.856-3.578-2.211L42 236h172zM72 232H60v-8h12zm148.154-4H220v2.527a2 2 0 0 1-1.925 1.473H76v-12H56v12H37.925a2 2 0 0 1-1.999-1.923L32.154 132h191.692zM224 128H32v-4h192z" style="fill:#fff"/><path d="M86 16H42c-3.308 0-6 2.692-6 6v84c0 3.308 2.692 6 6 6h44c3.308 0 6-2.692 6-6V22c0-3.308-2.692-6-6-6m2 90a2 2 0 0 1-2 2H42a2 2 0 0 1-2-2V22a2 2 0 0 1 2-2h44a2 2 0 0 1 2 2zm-40.255 90.57c.298 4.166 3.803 7.43 7.98 7.43h144.551c4.177 0 7.682-3.264 7.98-7.43l3.735-52.285.306-4.285H43.704l.306 4.285zM200 144l-3.688 40.571a4 4 0 0 1-3.749 3.631L132 192h-8l-60.563-3.798a4 4 0 0 1-3.749-3.631L56 144zm-148.016 0 .033.362 3.688 40.571a7.95 7.95 0 0 0 7.497 7.262l60.548 3.797.125.008h8.25l.125-.008 60.563-3.798c3.968-.233 7.121-3.287 7.482-7.261l3.688-40.571.033-.362H208l-3.735 52.285a4 4 0 0 1-3.99 3.715H55.724a4 4 0 0 1-3.99-3.715L48 144zM176 208h-4v4h-48v12h84v-16zm28 8v4h-76v-4h48v-4h28z" style="fill:#fff"/><path d="M82.2 24H45.8a1.8 1.8 0 0 0-1.8 1.8v.4a1.8 1.8 0 0 0 1.8 1.8h36.4a1.8 1.8 0 0 0 1.8-1.8v-.4a1.8 1.8 0 0 0-1.8-1.8m0 8H45.8a1.8 1.8 0 0 0-1.8 1.8v.4a1.8 1.8 0 0 0 1.8 1.8h36.4a1.8 1.8 0 0 0 1.8-1.8v-.4a1.8 1.8 0 0 0-1.8-1.8m0 8H45.8a1.8 1.8 0 0 0-1.8 1.8v.4a1.8 1.8 0 0 0 1.8 1.8h36.4a1.8 1.8 0 0 0 1.8-1.8v-.4a1.8 1.8 0 0 0-1.8-1.8m0 8H45.8a1.8 1.8 0 0 0-1.8 1.8v.4a1.8 1.8 0 0 0 1.8 1.8h36.4a1.8 1.8 0 0 0 1.8-1.8v-.4a1.8 1.8 0 0 0-1.8-1.8m0 8H45.8a1.8 1.8 0 0 0-1.8 1.8v.4a1.8 1.8 0 0 0 1.8 1.8h36.4a1.8 1.8 0 0 0 1.8-1.8v-.4a1.8 1.8 0 0 0-1.8-1.8m0 8H45.8a1.8 1.8 0 0 0-1.8 1.8v.4a1.8 1.8 0 0 0 1.8 1.8h36.4a1.8 1.8 0 0 0 1.8-1.8v-.4a1.8 1.8 0 0 0-1.8-1.8m0 8H45.8a1.8 1.8 0 0 0-1.8 1.8v.4a1.8 1.8 0 0 0 1.8 1.8h36.4a1.8 1.8 0 0 0 1.8-1.8v-.4a1.8 1.8 0 0 0-1.8-1.8m0 8H45.8a1.8 1.8 0 0 0-1.8 1.8v.4a1.8 1.8 0 0 0 1.8 1.8h36.4a1.8 1.8 0 0 0 1.8-1.8v-.4a1.8 1.8 0 0 0-1.8-1.8m0 8H45.8a1.8 1.8 0 0 0-1.8 1.8v.4a1.8 1.8 0 0 0 1.8 1.8h36.4a1.8 1.8 0 0 0 1.8-1.8v-.4a1.8 1.8 0 0 0-1.8-1.8m0 8H45.8a1.8 1.8 0 0 0-1.8 1.8v.4a1.8 1.8 0 0 0 1.8 1.8h36.4a1.8 1.8 0 0 0 1.8-1.8v-.4a1.8 1.8 0 0 0-1.8-1.8M214 16h-44c-3.308 0-6 2.692-6 6v84c0 3.308 2.692 6 6 6h44c3.308 0 6-2.692 6-6V22c0-3.308-2.692-6-6-6m2 90a2 2 0 0 1-2 2h-44a2 2 0 0 1-2-2V22a2 2 0 0 1 2-2h44a2 2 0 0 1 2 2z" style="fill:#fff"/><path d="M210.2 24h-36.4a1.8 1.8 0 0 0-1.8 1.8v.4a1.8 1.8 0 0 0 1.8 1.8h36.4a1.8 1.8 0 0 0 1.8-1.8v-.4a1.8 1.8 0 0 0-1.8-1.8m0 8h-36.4a1.8 1.8 0 0 0-1.8 1.8v.4a1.8 1.8 0 0 0 1.8 1.8h36.4a1.8 1.8 0 0 0 1.8-1.8v-.4a1.8 1.8 0 0 0-1.8-1.8m0 8h-36.4a1.8 1.8 0 0 0-1.8 1.8v.4a1.8 1.8 0 0 0 1.8 1.8h36.4a1.8 1.8 0 0 0 1.8-1.8v-.4a1.8 1.8 0 0 0-1.8-1.8m0 8h-36.4a1.8 1.8 0 0 0-1.8 1.8v.4a1.8 1.8 0 0 0 1.8 1.8h36.4a1.8 1.8 0 0 0 1.8-1.8v-.4a1.8 1.8 0 0 0-1.8-1.8m0 8h-36.4a1.8 1.8 0 0 0-1.8 1.8v.4a1.8 1.8 0 0 0 1.8 1.8h36.4a1.8 1.8 0 0 0 1.8-1.8v-.4a1.8 1.8 0 0 0-1.8-1.8m0 8h-36.4a1.8 1.8 0 0 0-1.8 1.8v.4a1.8 1.8 0 0 0 1.8 1.8h36.4a1.8 1.8 0 0 0 1.8-1.8v-.4a1.8 1.8 0 0 0-1.8-1.8m0 8h-36.4a1.8 1.8 0 0 0-1.8 1.8v.4a1.8 1.8 0 0 0 1.8 1.8h36.4a1.8 1.8 0 0 0 1.8-1.8v-.4a1.8 1.8 0 0 0-1.8-1.8m0 8h-36.4a1.8 1.8 0 0 0-1.8 1.8v.4a1.8 1.8 0 0 0 1.8 1.8h36.4a1.8 1.8 0 0 0 1.8-1.8v-.4a1.8 1.8 0 0 0-1.8-1.8m0 8h-36.4a1.8 1.8 0 0 0-1.8 1.8v.4a1.8 1.8 0 0 0 1.8 1.8h36.4a1.8 1.8 0 0 0 1.8-1.8v-.4a1.8 1.8 0 0 0-1.8-1.8m0 8h-36.4a1.8 1.8 0 0 0-1.8 1.8v.4a1.8 1.8 0 0 0 1.8 1.8h36.4a1.8 1.8 0 0 0 1.8-1.8v-.4a1.8 1.8 0 0 0-1.8-1.8" style="fill:#fff"/></svg>