<svg xmlns="http://www.w3.org/2000/svg" xml:space="preserve" width="314.672" height="133.055"><defs><clipPath id="a" clipPathUnits="userSpaceOnUse"><path d="M0 256h256V0H0Z"/></clipPath></defs><g clip-path="url(#a)" transform="matrix(1.33333 0 0 -1.33333 -13.33 237.055)"><path d="m0 0-51.33 3.953Q-51.942 4-52.559 4h-82.427q-.615 0-1.229-.047L-187.545 0c-23.974 0-19.977 52-19.977 52 0 25.475 12.004 34.926 19.023 38.274a15.7 15.7 0 0 0 6.775 1.517q.68 0 1.359-.057l44.099-3.678q.665-.056 1.33-.056h82.327q.665 0 1.33.056l44.099 3.678q.68.057 1.359.057c2.339 0 4.654-.505 6.774-1.517C7.973 86.926 19.978 77.475 19.978 52c0 0 3.996-52-19.978-52m23.978 52.147c-.047 27.492-13.361 37.949-21.302 41.738a19.85 19.85 0 0 1-8.497 1.906c-.562 0-1.13-.023-1.691-.07l-44.1-3.679c-.33-.028-.666-.042-.997-.042h-82.327c-.331 0-.667.014-.997.042l-44.1 3.679c-.561.047-1.13.07-1.691.07-2.944 0-5.882-.659-8.497-1.906-7.941-3.789-21.255-14.246-21.301-41.738-.091-1.274-.612-9.507.179-19.266 1.172-14.454 4.585-24.826 10.145-30.829C-197.479-1.964-192.886-4-187.545-4h.154l.154.012 51.329 3.953c.305.023.616.035.922.035h82.427c.306 0 .617-.012.922-.035L-.308-3.988-.154-4H0c5.341 0 9.935 2.036 13.653 6.052 5.56 6.003 8.973 16.375 10.145 30.829.791 9.759.269 17.992.18 19.266" style="fill:#fff;fill-opacity:1;fill-rule:nonzero;stroke:none" transform="translate(221.773 82)"/><path d="M104 148h60v-40h-60zm60-44h4v48h-68v-48h4z" style="fill:#fff;fill-opacity:1;fill-rule:nonzero;stroke:none"/><path d="M0 0h4a2 2 0 0 1 0 4H0a2 2 0 0 1 0-4" style="fill:#fff;fill-opacity:1;fill-rule:nonzero;stroke:none" transform="translate(90 134)"/><path d="M0 0h4a2 2 0 0 1 0 4H0a2 2 0 0 1 0-4" style="fill:#fff;fill-opacity:1;fill-rule:nonzero;stroke:none" transform="translate(90 122)"/><path d="M0 0h4a2 2 0 0 1 0 4H0a2 2 0 0 1 0-4" style="fill:#fff;fill-opacity:1;fill-rule:nonzero;stroke:none" transform="translate(174 128)"/><path d="M0 0h4a2 2 0 0 1 0 4H0a2 2 0 0 1 0-4" style="fill:#fff;fill-opacity:1;fill-rule:nonzero;stroke:none" transform="translate(174 116)"/><path d="M0 0h4a2 2 0 0 1 0 4H0a2 2 0 0 1 0-4" style="fill:#fff;fill-opacity:1;fill-rule:nonzero;stroke:none" transform="translate(174 140)"/><path d="M0 0a2 2 0 0 0-2-2h-4v-4a2 2 0 0 0-2-2h-4a2 2 0 0 0-2 2v4h-4a2 2 0 0 0-2 2v4a2 2 0 0 0 2 2h4v4a2 2 0 0 0 2 2h4a2 2 0 0 0 2-2V6h4a2 2 0 0 0 2-2Zm-2 10c0 3.309-2.691 6-6 6h-4c-3.309 0-6-2.691-6-6-3.309 0-6-2.691-6-6V0c0-3.309 2.691-6 6-6 0-3.309 2.691-6 6-6h4c3.309 0 6 2.691 6 6 3.309 0 6 2.691 6 6v4c0 3.309-2.691 6-6 6" style="fill:#fff;fill-opacity:1;fill-rule:nonzero;stroke:none" transform="translate(66.125 126)"/><path d="M0 0a6 6 0 0 0 0-12A6 6 0 0 0 0 0m16-4a6 6 0 0 0 0-12 6 6 0 0 0 0 12m-28.125-8h-124V3.431C-129.973 8.189-126 15.638-126 24s-3.973 15.811-10.125 20.569V60h124zM-152 2c-12.15 0-22 9.85-22 22s9.85 22 22 22 22-9.85 22-22-9.85-22-22-22M0 56a6 6 0 0 0 0-12 6 6 0 0 0 0 12m16 4a6 6 0 0 0 0-12 6 6 0 0 0 0 12M0 40c4.295 0 7.955 2.727 9.368 6.536A9.95 9.95 0 0 1 16 44c5.514 0 10 4.486 10 10s-4.486 10-10 10c-4.295 0-7.955-2.727-9.368-6.536A9.95 9.95 0 0 1 0 60c-3.348 0-6.309-1.659-8.125-4.192V64h-132V47.118A25.84 25.84 0 0 1-152 50c-14.336 0-26-11.664-26-26s11.664-26 26-26c4.277 0 8.313 1.045 11.875 2.882V-16h132v4.192C-6.309-14.341-3.348-16 0-16c2.545 0 4.864.964 6.632 2.535C8.045-17.273 11.705-20 16-20c5.514 0 10 4.486 10 10S21.514 0 16 0a9.95 9.95 0 0 1-6.632-2.535C7.955 1.273 4.295 4 0 4-3.348 4-6.309 2.341-8.125-.192v44.384C-6.309 41.659-3.348 40 0 40" style="fill:#fff;fill-opacity:1;fill-rule:nonzero;stroke:none" transform="translate(208.125 104)"/></g></svg>