<?xml version="1.0" encoding="UTF-8" standalone="no"?>
<svg
   xmlns:dc="http://purl.org/dc/elements/1.1/"
   xmlns:cc="http://creativecommons.org/ns#"
   xmlns:rdf="http://www.w3.org/1999/02/22-rdf-syntax-ns#"
   xmlns:svg="http://www.w3.org/2000/svg"
   xmlns="http://www.w3.org/2000/svg"
   viewBox="0 0 320 202.66665"
   height="202.66666"
   width="320"
   xml:space="preserve"
   id="svg2"
   version="1.1"><metadata
     id="metadata8"><rdf:RDF><cc:Work
         rdf:about=""><dc:format>image/svg+xml</dc:format><dc:type
           rdf:resource="http://purl.org/dc/dcmitype/StillImage" /></cc:Work></rdf:RDF></metadata><defs
     id="defs6"><clipPath
       id="clipPath18"
       clipPathUnits="userSpaceOnUse"><path
         id="path16"
         d="M 0,256 H 256 V 0 H 0 Z" /></clipPath></defs><g
     transform="matrix(1.3333333,0,0,-1.3333333,-10.666666,271.99999)"
     id="g10"><g
       id="g12"><g
         clip-path="url(#clipPath18)"
         id="g14"><g
           transform="translate(48,144)"
           id="g20"><path
             id="path22"
             style="fill:#ffffff;fill-opacity:1;fill-rule:nonzero;stroke:none"
             d="m 0,0 c -4.418,0 -8,3.582 -8,8 0,4.418 3.582,8 8,8 C 4.418,16 8,12.418 8,8 8,3.582 4.418,0 0,0 M 12,8 C 12,14.617 6.617,20 0,20 -6.617,20 -12,14.617 -12,8 -12,1.383 -6.617,-4 0,-4 6.617,-4 12,1.383 12,8" /></g><g
           transform="translate(80,144)"
           id="g24"><path
             id="path26"
             style="fill:#ffffff;fill-opacity:1;fill-rule:nonzero;stroke:none"
             d="m 0,0 c -4.418,0 -8,3.582 -8,8 0,4.418 3.582,8 8,8 C 4.418,16 8,12.418 8,8 8,3.582 4.418,0 0,0 M 12,8 C 12,14.617 6.617,20 0,20 -6.617,20 -12,14.617 -12,8 -12,1.383 -6.617,-4 0,-4 6.617,-4 12,1.383 12,8" /></g><g
           transform="translate(152,144)"
           id="g28"><path
             id="path30"
             style="fill:#ffffff;fill-opacity:1;fill-rule:nonzero;stroke:none"
             d="m 0,0 c -4.418,0 -8,3.582 -8,8 0,4.418 3.582,8 8,8 C 4.418,16 8,12.418 8,8 8,3.582 4.418,0 0,0 M 12,8 C 12,14.617 6.617,20 0,20 -6.617,20 -12,14.617 -12,8 -12,1.383 -6.617,-4 0,-4 6.617,-4 12,1.383 12,8" /></g><g
           transform="translate(176,144)"
           id="g32"><path
             id="path34"
             style="fill:#ffffff;fill-opacity:1;fill-rule:nonzero;stroke:none"
             d="m 0,0 c -4.418,0 -8,3.582 -8,8 0,4.418 3.582,8 8,8 C 4.418,16 8,12.418 8,8 8,3.582 4.418,0 0,0 M 12,8 C 12,14.617 6.617,20 0,20 -6.617,20 -12,14.617 -12,8 -12,1.383 -6.617,-4 0,-4 6.617,-4 12,1.383 12,8" /></g><g
           transform="translate(208,144)"
           id="g36"><path
             id="path38"
             style="fill:#ffffff;fill-opacity:1;fill-rule:nonzero;stroke:none"
             d="m 0,0 c -4.418,0 -8,3.582 -8,8 0,4.418 3.582,8 8,8 C 4.418,16 8,12.418 8,8 8,3.582 4.418,0 0,0 M 12,8 C 12,14.617 6.617,20 0,20 -6.617,20 -12,14.617 -12,8 -12,1.383 -6.617,-4 0,-4 6.617,-4 12,1.383 12,8" /></g><g
           transform="translate(244,56)"
           id="g40"><path
             id="path42"
             style="fill:#ffffff;fill-opacity:1;fill-rule:nonzero;stroke:none"
             d="m 0,0 h -232 v 144 h 29.01 c -0.849,-1.137 -1.188,-2.593 -0.902,-4 H -224 -228 V 133.528 4 H -4 V 133.528 140 h -4 -20.108 c 0.286,1.407 -0.053,2.863 -0.902,4 H 0 Z m -199.63,141.781 2.454,2 c 0.174,0.142 0.39,0.219 0.613,0.219 h 9.126 c 0.223,0 0.439,-0.077 0.613,-0.219 l 2.454,-2 c 0.724,-0.591 0.314,-1.781 -0.613,-1.781 h -14.034 c -0.927,0 -1.337,1.19 -0.613,1.781 M -50.99,144 c -0.849,-1.137 -1.188,-2.593 -0.902,-4 h -128.216 c 0.286,1.407 -0.053,2.863 -0.902,4 z M -16,132 h -200 l -8,4 h 24.983 14.034 137.966 14.034 H -8 Z m -4,-16 h -192 v 12 h 192 z m -192.792,-4 h 193.583 l 6.223,-28 H -36 h -32 -24 -72 -32 -23.014 z M -224,76 v 4 51.528 l 6.211,-3.106 0.845,-0.422 H -216 v -12 l -8,-36 H -8 l -8,36 v 12 h 0.944 l 0.845,0.422 6.211,3.106 V 80 76 Z m 0,-4 H -8 v -4 h -216 z m 0,-8 H -8 v -4 h -216 z m 0,-8 H -8 v -4 h -216 z m 0,-8 H -8 v -4 h -216 z m 0,-8 H -8 v -4 h -216 z m 0,-8 H -8 V 28 H -224 Z M -8,8 h -216 v 8 H -8 Z M -224,24 H -8 v -4 h -216 z m 176.37,117.781 2.454,2 c 0.174,0.142 0.39,0.219 0.613,0.219 h 9.125 c 0.224,0 0.44,-0.077 0.614,-0.219 l 2.454,-2 C -31.646,141.19 -32.056,140 -32.983,140 h -14.034 c -0.927,0 -1.337,1.19 -0.613,1.781 M 0,148 h -35.438 -9.125 -142.874 -9.126 -35.437 -4 V 144 0 -4 h 4 232 4 v 4 144 4 z" /></g></g></g></g></svg>