<svg xmlns="http://www.w3.org/2000/svg" xml:space="preserve" width="320" height="298.667"><defs><clipPath id="a" clipPathUnits="userSpaceOnUse"><path d="M0 256h256V0H0Z"/></clipPath></defs><path d="m0 0-8-8h-216l-8 8v4h20v8h-20v4h20v8h-20v4h20v8h-20v4h20v8h-20v4h20v8h-20v4h20v8h-20v4h20v8h-20v4h20v8h-20v4h20v8h-20v4h20v8h-20v4h20v8h-20v4h20v8h-20v4h20v8h-20v4h20v8h-20v4h20v8h-20v4h20v8h-20v8l8 8H-8l8-7.99V192h-20v-8H0v-4h-20v-8H0v-4h-20v-8H0v-4h-20v-8H0v-4h-20v-8H0v-4h-20v-8H0v-4h-20v-8H0v-4h-20v-8H0v-4h-20v-8H0v-4h-20v-8H0v-4h-20v-8H0v-4h-20v-8H0v-4h-20v-8H0v-4h-20v-8H0v-4h-20v-8H0v-4h-20V4H0Zm2.826 202.84-8 7.99-1.171 1.17h-219.312l-1.172-1.171-8-8-1.171-1.172V-1.657l1.171-1.171 8-8 1.172-1.172H-6.343l1.171 1.172 8 8L4-1.657v203.325z" style="fill:#fff;fill-opacity:1;fill-rule:nonzero;stroke:none" transform="matrix(1.33333 0 0 -1.33333 314.667 282.667)"/><g clip-path="url(#a)" transform="matrix(1.33333 0 0 -1.33333 -10.667 320)"><path d="M0 0v20a4 4 0 0 0 4 4h168a4 4 0 0 0 4-4V0Zm176-104a4 4 0 0 0-4-4H4a4 4 0 0 0-4 4v76h28v-68h120v68h28zM32-24H0v20h176v-20h-32zm0-4h112v-64H32Zm140 56H4c-4.411 0-8-3.589-8-8v-124c0-4.411 3.589-8 8-8h168c4.411 0 8 3.589 8 8V20c0 4.411-3.589 8-8 8" style="fill:#fff;fill-opacity:1;fill-rule:nonzero;stroke:none" transform="translate(40 192)"/></g></svg>