<?xml version="1.0" encoding="iso-8859-1"?>
<!-- Generator: Adobe Illustrator 28.1.0, SVG Export Plug-In . SVG Version: 6.00 Build 0)  -->
<svg version="1.1" id="Layer_1" xmlns="http://www.w3.org/2000/svg" xmlns:xlink="http://www.w3.org/1999/xlink" x="0px" y="0px"
	 viewBox="0 0 256 256" style="enable-background:new 0 0 256 256;" xml:space="preserve">
<g>
	<path style="fill:#FFFFFF;" d="M200,8H56h-4v4v232v4h4h144h4v-4V12V8H200z M200,20h-8v4h8v4h-8v4h8v4h-8v4h8v4h-8v4h8v4h-8v4h8v4
		h-8v4h8v4h-8v4h8v172H56V72h8v-4h-8v-4h8v-4h-8v-4h8v-4h-8v-4h8v-4h-8v-4h8v-4h-8v-4h8v-4h-8v-4h8v-4h-8v-8h144V20z"/>
	<path style="fill:#FFFFFF;" d="M188,112V44V20H68v24v68v12h120V112z M184,108H72V48h112V108z M72,24h112v20H72V24z M72,120v-8h112
		v8H72z"/>
</g>
</svg>
