<svg xmlns="http://www.w3.org/2000/svg" xml:space="preserve" viewBox="0 0 256 256"><path d="M157.339 188h-54.924a4.98 4.98 0 0 0-4.619 3.087 4.985 4.985 0 0 0 1.084 5.449l25.631 25.631a4.97 4.97 0 0 0 3.536 1.464 5 5 0 0 0 3.292-1.237l29.293-25.631a4.96 4.96 0 0 0 1.388-5.522 4.96 4.96 0 0 0-4.681-3.241m.658 5.753-29.293 25.631a1 1 0 0 1-1.365-.046l-25.631-25.631c-.63-.63-.184-1.707.707-1.707h54.924c.923 0 1.353 1.145.658 1.753" style="fill:#fff"/><path d="M220 36h-4V8H40v28h-8v212h192V36zm-8-24v24h-24V12zm-28 0v24H72V12zM44 12h24v24H44zm-8 232V119.65a6 6 0 0 0 2 .35h6v56c0 4.411 3.589 8 8 8h152c4.411 0 8-3.589 8-8v-56h6a6 6 0 0 0 2-.35V244zm140-128H80V78a2 2 0 0 1 2-2h92a2 2 0 0 1 2 2zm32 4v56a4 4 0 0 1-4 4H52a4 4 0 0 1-4-4v-56zm12-6a2 2 0 0 1-2 2h-38V78c0-3.308-2.692-6-6-6H82c-3.308 0-6 2.692-6 6v38H38a2 2 0 0 1-2-2V40h184z" style="fill:#fff"/></svg>