<svg xmlns="http://www.w3.org/2000/svg" xml:space="preserve" width="320.002" height="186.667"><defs><clipPath id="a" clipPathUnits="userSpaceOnUse"><path d="M0 256h256V0H0Z"/></clipPath></defs><g clip-path="url(#a)" transform="matrix(1.33333 0 0 -1.33333 -10.664 266.667)"><path d="M0 0c0 5.01-2.393 9.795-6.4 12.8l-7.2 5.4A6.03 6.03 0 0 0-16 23v23c0 7.65-1.668 14.387-4.957 20.023-3.083 5.282-8.588 8.748-14.727 9.273-37.391 3.199-137.486 10.619-138.493 10.693l-.11.008.199.003h126.762c9.48 0 18.953-.729 28.303-2.299C-6.482 81.594-.324 79.07 0 67.18Zm0-26.922C-.508-34.3-4.881-40.436-20.066-44.38L-32.959-46h-35.508q-3.533 0-7.055.271l-40.365 3.105q-3.524.27-7.055.27c-3.056 0-6.112-.152-9.155-.456l-27.337-2.733a92 92 0 0 0-9.154-.457h-33.704c-5.332 0-10.631 1.225-15.288 3.821-2.371 1.323-4.551 2.97-5.665 4.912a55 55 0 0 0-1.502 2.817c-4.216 8.474-7.371 37.748-7.249 64.11.01-1.884.037-3.676.077-5.327.443-18.595 2.951-42.337 7.409-50.525a51 51 0 0 1 1.574-2.698c4.148-6.614 11.985-10.729 20.462-10.749 2.19-.062 64.654-1.84 93.824-2.297l.075-.001.075.002c32.64.724 75.828 3.529 96.221 12.777C-4.82-25.775 0-18.274 0-10.05Zm-224.747 101.63c6.741 7.762 14.179 9.4 21.868 9.994.82.064 1.642.116 2.462.176a169 169 0 0 1-3.173-.354c-5.816-.702-13.38-2.444-20.306-9.732-3.165-3.331-5.141-9.71-6.349-17.139 1.165 7.977 2.955 14.126 5.498 17.055M-26-11.847c.537 0 1.073-.207 1.438-.621l6.679-7.636c.585-.671.63-1.656.109-2.379C-19.411-24.736-22.353-26-25.821-26q-.759 0-1.545.078c-2.72.283-6 1.425-7.055 3.781a1.91 1.91 0 0 0 .304 2.037l6.68 7.636c.364.414.9.621 1.437.621m4.47 2.415a1.9 1.9 0 0 0-.653 1.436c0 .552.237 1.073.653 1.435l7.634 6.682c.351.315.798.474 1.25.474.267 0 .536-.056.788-.168 2.355-1.059 3.496-4.34 3.777-7.059.427-4.132-.857-7.719-3.437-9.591a1.904 1.904 0 0 0-2.378.109zM-16 15l7.2-5.4A12 12 0 0 0-4 0v-10.05c0-6.655-3.87-12.717-9.932-15.466a52 52 0 0 0-1.972-.842c.495.471.963.969 1.365 1.523a5.9 5.9 0 0 1 1.052 4.323c.28-.04.561-.076.847-.076 1.265 0 2.471.395 3.489 1.14 3.73 2.708 5.625 7.657 5.049 13.227-.513 4.956-2.799 8.805-6.117 10.296a5.9 5.9 0 0 1-2.427.52 5.87 5.87 0 0 1-3.916-1.491l-7.603-6.655a5.9 5.9 0 0 1-2.01-4.304c-1.652-.048-3.2-.757-4.267-1.973l-6.686-7.643a5.92 5.92 0 0 1-.94-6.312c1.482-3.311 5.329-5.601 10.288-6.117.178-.018.346-.014.524-.027-22.376-5.573-55.93-7.445-81.332-8.009-29.858.468-93.826 2.297-93.826 2.297-7.01 0-13.634 3.295-17.133 8.874a47 47 0 0 0-1.45 2.486c-7.233 13.285-11.23 84.498 0 96.315 5.56 5.851 11.612 7.759 17.887 8.518C-193.625 81.7-184.04 82-174.472 82c0 0 100.647-7.456 138.447-10.689 4.828-.413 9.171-3.12 11.613-7.304C-21.799 59.53-20 53.666-20 46V23c0-3.147 1.482-6.111 4-8M3.998 67.289c-.42 15.422-10.374 18.343-22.359 20.357C-27.661 89.208-37.406 90-47.326 90h-126.762c-8.394 0-17.369-.404-29.099-1.31-8.192-.632-16.839-2.446-24.58-11.359-7.966-9.173-8.525-39.44-8.15-56.666.458-20.977 3.028-47.729 7.589-56.897a58 58 0 0 1 1.613-3.023c1.346-2.349 3.764-4.509 7.187-6.417 5.077-2.832 11.037-4.328 17.236-4.328h33.704c3.177 0 6.391.16 9.552.477l27.337 2.733a88.3 88.3 0 0 0 15.506.178l40.364-3.105A96 96 0 0 1-68.467-50h35.758l.248.031 6.447.811 6.447.809.256.033.25.065C-4.055-44.354 3.27-37.664 3.99-27.197l.01.137v94.294z" style="fill:#fff;fill-opacity:1;fill-rule:nonzero;stroke:none" transform="translate(244 110)"/><path d="M0 0c-.594-1.163-1.902-1.968-3.415-2.099-13.527-1.175-39.656-3.123-50.209-3.902v1.695c0 3.309-2.691 6-6 6h-14a5.98 5.98 0 0 1-4-1.531 5.98 5.98 0 0 1-4 1.531h-30c-3.308 0-6-2.691-6-6v-1.898c-1.426.291-2.608 1.184-3.037 2.369-16.344 45.214-3.951 83.828.237 94.585.444 1.141 1.403 2.321 2.377 2.37 7.545.381 15.744.574 24.369.574 38.783 0 76.841-3.788 89.404-6.523 1.502-.326 2.722-1.346 3.108-2.597C13.904 35.704 4.67 9.148 0 0m-3.424 91.08c-13.539 2.947-52.389 6.614-90.254 6.614-8.332 0-16.613-.177-24.571-.579-2.808-.142-4.946-2.456-5.903-4.913-4.764-12.239-16.939-51.286-.27-97.397 1.113-3.079 4.3-5.111 7.808-5.111h.99a2 2 0 0 1 2 2v4a2 2 0 0 0 2 2h30a2 2 0 0 0 2-2 2 2 0 0 1 4 0 2 2 0 0 0 2 2h14a2 2 0 0 0 2-2v-3.847a1.997 1.997 0 0 1 2.143-1.995c8.183.601 37.739 2.79 52.413 4.064 2.875.25 5.397 1.849 6.631 4.266 4.852 9.506 14.619 37.223-.907 87.571-.82 2.66-3.172 4.694-6.08 5.327" style="fill:#fff;fill-opacity:1;fill-rule:nonzero;stroke:none" transform="translate(197.624 86.306)"/><path d="M0 0h-6.857c-1.42 0-2.572-.896-2.572-2s1.152-2 2.572-2H0c1.42 0 2.571.896 2.571 2S1.42 0 0 0" style="fill:#fff;fill-opacity:1;fill-rule:nonzero;stroke:none" transform="translate(113.429 80)"/><path d="M0 0h-6.857c-1.42 0-2.572-.896-2.572-2s1.152-2 2.572-2H0c1.42 0 2.571.896 2.571 2S1.42 0 0 0" style="fill:#fff;fill-opacity:1;fill-rule:nonzero;stroke:none" transform="translate(133.429 80)"/><path d="M0 0h-6.857c-1.42 0-2.572-.896-2.572-2s1.152-2 2.572-2H0c1.42 0 2.571.896 2.571 2S1.42 0 0 0" style="fill:#fff;fill-opacity:1;fill-rule:nonzero;stroke:none" transform="translate(97.429 80)"/><path d="M0 0c.336.242.73.363 1.124.363.448 0 .896-.157 1.254-.471l7.634-6.681a1.906 1.906 0 0 0 0-2.874l-7.634-6.681a1.91 1.91 0 0 0-2.037-.304c-2.356 1.055-3.495 4.334-3.778 7.052C-3.866-5.462-2.58-1.875 0 0m6.061 5.917c1.055 2.356 4.334 3.495 7.051 3.778q.775.078 1.521.077c3.488 0 6.434-1.258 8.074-3.514a1.914 1.914 0 0 0-.108-2.379l-6.681-7.635a1.906 1.906 0 0 0-2.874 0L6.365 3.879a1.91 1.91 0 0 0-.304 2.038M28.623.196c2.356-1.055 3.494-4.334 3.777-7.052.429-4.135-.857-7.721-3.437-9.596a1.91 1.91 0 0 0-2.378.108l-7.634 6.681a1.91 1.91 0 0 0 0 2.874l7.634 6.681a1.9 1.9 0 0 0 2.038.304M22.707-22.71c-1.637-2.252-4.578-3.518-8.048-3.518q-.76 0-1.547.081c-2.717.283-5.996 1.422-7.051 3.778a1.91 1.91 0 0 0 .304 2.037l6.679 7.636c.364.416.901.623 1.437.623.538 0 1.074-.207 1.437-.623l6.681-7.636c.585-.668.63-1.657.108-2.378m-24.001 2.411a5.8 5.8 0 0 1 2.416-.517c.282 0 .561.036.837.076a5.9 5.9 0 0 1 .453-3.268c1.483-3.312 5.329-5.601 10.285-6.118a19 19 0 0 1 1.962-.102c4.785 0 8.898 1.883 11.283 5.166a5.9 5.9 0 0 1 1.054 4.323c.279-.041.56-.077.845-.077 1.252 0 2.45.388 3.465 1.121 3.757 2.732 5.651 7.683 5.073 13.252-.517 4.959-2.805 8.804-6.122 10.29a5.8 5.8 0 0 1-2.418.519c-.284 0-.564-.036-.842-.076a5.88 5.88 0 0 1-1.049 4.312c-2.389 3.289-6.511 5.17-11.315 5.17-.63 0-1.277-.032-1.921-.097-4.971-.518-8.817-2.807-10.302-6.124a5.9 5.9 0 0 1-.451-3.263 6 6 0 0 1-.835.075 5.9 5.9 0 0 1-3.462-1.117C-6.1.511-7.993-4.44-7.416-10.009c.517-4.959 2.806-8.804 6.122-10.29" style="fill:#fff;fill-opacity:1;fill-rule:nonzero;stroke:none" transform="translate(27.519 170.227)"/><path d="M0 0a1.906 1.906 0 0 0-2.378.108l-7.635 6.683a1.9 1.9 0 0 0-.652 1.436c0 .551.237 1.073.652 1.435l7.635 6.682a1.87 1.87 0 0 0 1.251.473c.266 0 .535-.055.786-.168 2.356-1.058 3.497-4.339 3.778-7.058C3.864 5.459 2.58 1.872 0 0m-6.257-6.261c-1.637-2.253-4.577-3.516-8.046-3.516q-.76 0-1.546.078c-2.719.283-5.999 1.425-7.054 3.781a1.9 1.9 0 0 0 .303 2.036l6.681 7.637c.363.414.9.621 1.437.621s1.073-.207 1.437-.621l6.68-7.637c.585-.671.63-1.655.108-2.379M-28.624-.197c-2.355 1.058-3.496 4.34-3.777 7.058-.427 4.132.857 7.719 3.437 9.591a1.91 1.91 0 0 0 2.378-.108l7.634-6.682c.416-.362.653-.884.653-1.435 0-.553-.237-1.075-.653-1.436L-26.586.108a1.9 1.9 0 0 0-2.038-.305m5.721 22.567c1.055 2.357 4.335 3.498 7.054 3.781q.75.072 1.474.072c3.497 0 6.47-1.245 8.118-3.51a1.914 1.914 0 0 0-.108-2.379l-6.68-7.637a1.912 1.912 0 0 0-2.874 0l-6.681 7.637a1.91 1.91 0 0 0-.303 2.036m24.202-2.072a5.9 5.9 0 0 1-2.426.519c-.285 0-.564-.036-.842-.077a5.88 5.88 0 0 1-1.044 4.313c-2.394 3.291-6.532 5.17-11.362 5.17a20 20 0 0 1-1.855-.09c-4.991-.52-8.838-2.81-10.324-6.129a5.87 5.87 0 0 1-.452-3.262c-.277.04-.556.076-.838.076a5.86 5.86 0 0 1-3.481-1.136c-3.737-2.712-5.631-7.661-5.055-13.232.513-4.956 2.799-8.804 6.116-10.296a5.9 5.9 0 0 1 2.422-.519c.282 0 .559.036.836.076a5.9 5.9 0 0 1 .456-3.272c1.482-3.31 5.329-5.6 10.287-6.117a20 20 0 0 1 1.96-.099c4.784 0 8.897 1.882 11.282 5.165a5.9 5.9 0 0 1 1.052 4.323c.28-.04.561-.076.847-.076 1.265 0 2.471.394 3.488 1.139 3.731 2.708 5.625 7.658 5.05 13.228-.513 4.956-2.8 8.805-6.117 10.296" style="fill:#fff;fill-opacity:1;fill-rule:nonzero;stroke:none" transform="translate(56.482 89.777)"/><path d="M84 160h100v-60H84Zm-4-64h108v68H80Z" style="fill:#fff;fill-opacity:1;fill-rule:nonzero;stroke:none"/></g></svg>