<svg xmlns="http://www.w3.org/2000/svg" xml:space="preserve" width="320.003" height="181.333"><defs><clipPath id="a" clipPathUnits="userSpaceOnUse"><path d="M0 256h256V0H0Z"/></clipPath></defs><g clip-path="url(#a)" transform="matrix(1.33333 0 0 -1.33333 -10.664 261.333)"><path d="M0 0c-10.375-1.84-19.437-2.892-27.687-3.481-9.898-.5-38.769-.526-44.417-.526h-.824c-28.592.353-45.464 1.228-54.2 1.847a274 274 0 0 1-19.379.672h-32.772c-7.262 0-14.122 3.514-17.745 9.466a49 49 0 0 0-1.502 2.65c-7.492 14.171-11.631 90.132 0 102.737 5.758 6.241 12.027 8.277 18.525 9.085 9.824 1.223 19.752 1.543 29.661 1.543h128.628c9.682 0 19.359-.654 28.909-2.164 11.868-1.876 18.012-4.117 18.912-13.836H-3.779a2 2 0 1 1 0-4h30v-4h-26a2 2 0 1 1 0-4h26v-4h-22a2 2 0 1 1 0-4h22V17.714C25.649 9.909 20.197 3.582 0 0m30.219 106.396c-.426 14.718-10.396 17.486-22.398 19.384-9.287 1.469-19.223 2.213-29.533 2.213H-150.34c-12.111 0-21.411-.485-30.155-1.574-6.011-.748-13.827-2.599-20.971-10.341-8.039-8.713-8.607-37.314-8.23-53.587.459-19.792 3.043-45.049 7.634-53.732a55 55 0 0 1 1.621-2.862c4.276-7.023 12.385-11.385 21.162-11.385h32.772c6.48 0 12.904-.223 19.096-.661 9.235-.656 26.175-1.509 54.434-1.857l.024-.001h.849c5.698 0 34.627.026 44.62.53l.041.002.042.003c9.215.66 18.407 1.815 28.099 3.534C20.281-.466 29.384 6.122 30.21 17.422l.011.145v88.771z" style="fill:#fff;fill-opacity:1;fill-rule:nonzero;stroke:none" transform="translate(217.78 68.007)"/><path d="M0 0c-.594-1.163-1.902-1.968-3.415-2.099-14.055-1.22-52.945-3.312-65.831-3.992l-.001 3.716a6.074 6.074 0 0 1-6.067 6.067h-37.114a6.075 6.075 0 0 1-6.068-6.068v-3.563c-1.023.419-1.828 1.171-2.165 2.104-16.344 45.214-3.951 83.828.237 94.585.444 1.141 1.403 2.321 2.377 2.37 7.545.381 15.744.574 24.369.574 38.783 0 76.841-3.788 89.404-6.523 1.502-.326 2.722-1.346 3.108-2.597C13.904 35.704 4.67 9.148 0 0m2.656 85.753c-.82 2.66-3.172 4.694-6.081 5.327-13.539 2.947-52.388 6.614-90.253 6.614-8.333 0-16.613-.177-24.571-.579-2.808-.142-4.946-2.456-5.903-4.913-4.764-12.239-16.94-51.286-.27-97.397 1.112-3.079 4.3-5.111 7.808-5.111h2.118v7.93c0 1.143.926 2.068 2.068 2.068h37.114a2.067 2.067 0 0 0 2.067-2.068l.001-7.93s53.044 2.734 70.178 4.222c2.875.25 5.397 1.849 6.631 4.266 4.852 9.506 14.619 37.223-.907 87.571" style="fill:#fff;fill-opacity:1;fill-rule:nonzero;stroke:none" transform="translate(197.624 86.306)"/><path d="M0 0h-6.857c-1.42 0-2.572-.896-2.572-2s1.152-2 2.572-2H0c1.42 0 2.571.896 2.571 2S1.42 0 0 0" style="fill:#fff;fill-opacity:1;fill-rule:nonzero;stroke:none" transform="translate(117.429 80)"/><path d="M0 0h-6.857c-1.42 0-2.572-.896-2.572-2s1.152-2 2.572-2H0c1.42 0 2.571.896 2.571 2S1.42 0 0 0" style="fill:#fff;fill-opacity:1;fill-rule:nonzero;stroke:none" transform="translate(97.429 80)"/><path d="M0 0c.336.242.73.363 1.124.363.448 0 .896-.157 1.254-.471l7.634-6.681a1.906 1.906 0 0 0 0-2.874l-7.634-6.681a1.91 1.91 0 0 0-2.037-.304c-2.356 1.055-3.494 4.334-3.778 7.052C-3.866-5.462-2.58-1.875 0 0m6.061 5.917c1.055 2.356 4.334 3.495 7.051 3.778a15 15 0 0 0 1.522.077c3.487 0 6.433-1.258 8.073-3.514a1.914 1.914 0 0 0-.108-2.379l-6.68-7.635a1.906 1.906 0 0 0-2.874 0l-6.68 7.635a1.91 1.91 0 0 0-.304 2.038M28.623.196c2.356-1.055 3.494-4.334 3.778-7.052.429-4.135-.858-7.721-3.437-9.596a1.91 1.91 0 0 0-2.379.108l-7.634 6.681a1.91 1.91 0 0 0 0 2.874l7.634 6.681a1.9 1.9 0 0 0 2.038.304M22.707-22.71c-1.637-2.252-4.578-3.518-8.048-3.518q-.758 0-1.547.081c-2.717.283-5.996 1.422-7.051 3.778a1.91 1.91 0 0 0 .304 2.037l6.68 7.636c.363.416.9.623 1.437.623s1.074-.207 1.437-.623l6.68-7.636c.585-.668.63-1.657.108-2.378m-24.001 2.411a5.85 5.85 0 0 1 2.416-.517c.283 0 .561.036.837.076a5.9 5.9 0 0 1 .454-3.268c1.483-3.312 5.328-5.601 10.284-6.118a19 19 0 0 1 1.962-.102c4.785 0 8.898 1.883 11.284 5.166a5.9 5.9 0 0 1 1.054 4.323c.279-.041.56-.077.845-.077 1.251 0 2.449.388 3.464 1.121 3.758 2.732 5.651 7.683 5.073 13.252-.517 4.959-2.805 8.804-6.121 10.29-.748.34-1.57.519-2.418.519-.285 0-.564-.036-.842-.076a5.88 5.88 0 0 1-1.05 4.312c-2.389 3.289-6.511 5.17-11.314 5.17-.631 0-1.277-.032-1.921-.097-4.972-.518-8.817-2.807-10.302-6.124a5.9 5.9 0 0 1-.452-3.263 6 6 0 0 1-.835.075 5.9 5.9 0 0 1-3.462-1.117C-6.1.511-7.993-4.44-7.416-10.009c.518-4.959 2.806-8.804 6.122-10.29" style="fill:#fff;fill-opacity:1;fill-rule:nonzero;stroke:none" transform="translate(27.518 170.227)"/><path d="M0 0a1.906 1.906 0 0 0-2.378.108l-7.635 6.683a1.9 1.9 0 0 0-.652 1.436c0 .551.236 1.073.652 1.435l7.635 6.682a1.87 1.87 0 0 0 1.25.473c.267 0 .536-.055.787-.168 2.356-1.058 3.496-4.339 3.778-7.058C3.864 5.459 2.58 1.872 0 0m-6.257-6.261c-1.637-2.253-4.578-3.516-8.047-3.516q-.758 0-1.545.078c-2.719.283-6 1.425-7.054 3.781a1.9 1.9 0 0 0 .303 2.036l6.681 7.637c.363.414.9.621 1.437.621.536 0 1.073-.207 1.437-.621l6.68-7.637c.585-.671.63-1.655.108-2.379M-28.624-.197c-2.355 1.058-3.496 4.34-3.778 7.058-.427 4.132.858 7.719 3.437 9.591a1.91 1.91 0 0 0 2.379-.108l7.634-6.682c.416-.362.652-.884.652-1.435 0-.553-.236-1.075-.652-1.436L-26.586.108a1.9 1.9 0 0 0-2.038-.305m5.721 22.567c1.054 2.357 4.335 3.498 7.054 3.781q.75.072 1.474.072c3.497 0 6.47-1.245 8.118-3.51a1.914 1.914 0 0 0-.108-2.379l-6.68-7.637a1.912 1.912 0 0 0-2.874 0l-6.681 7.637a1.91 1.91 0 0 0-.303 2.036m24.202-2.072a5.9 5.9 0 0 1-2.427.519c-.284 0-.563-.036-.841-.077a5.88 5.88 0 0 1-1.044 4.313c-2.394 3.291-6.532 5.17-11.362 5.17a20 20 0 0 1-1.855-.09c-4.992-.52-8.839-2.81-10.324-6.129a5.9 5.9 0 0 1-.453-3.262c-.277.04-.555.076-.838.076a5.86 5.86 0 0 1-3.48-1.136c-3.737-2.712-5.631-7.661-5.056-13.232.514-4.956 2.8-8.804 6.117-10.296a5.9 5.9 0 0 1 2.421-.519c.283 0 .56.036.837.076a5.9 5.9 0 0 1 .456-3.272c1.481-3.31 5.328-5.6 10.287-6.117a20 20 0 0 1 1.959-.099c4.785 0 8.898 1.882 11.283 5.165A5.9 5.9 0 0 1-1.97-4.289c.281-.04.562-.076.848-.076 1.265 0 2.471.394 3.488 1.139 3.731 2.708 5.625 7.658 5.05 13.228-.514 4.956-2.8 8.805-6.117 10.296" style="fill:#fff;fill-opacity:1;fill-rule:nonzero;stroke:none" transform="translate(56.482 89.777)"/><path d="M0 0a1.91 1.91 0 0 0-2.379.108l-7.634 6.683a1.9 1.9 0 0 0-.652 1.436c0 .551.236 1.073.652 1.435l7.634 6.682c.352.314.799.473 1.251.473.267 0 .535-.055.787-.168 2.356-1.058 3.496-4.339 3.778-7.058C3.863 5.459 2.579 1.872 0 0m-6.257-6.261c-1.637-2.253-4.578-3.516-8.047-3.516q-.758 0-1.545.078c-2.719.283-6 1.425-7.054 3.781a1.9 1.9 0 0 0 .303 2.036l6.68 7.637c.364.414.9.621 1.438.621s1.073-.207 1.437-.621l6.68-7.637c.585-.671.63-1.655.108-2.379m7.556 26.559a5.9 5.9 0 0 1-2.427.519 5.87 5.87 0 0 1-3.916-1.491l-7.603-6.654a5.9 5.9 0 0 1-2.011-4.305c-1.652-.048-3.199-.757-4.267-1.972l-6.685-7.643a5.92 5.92 0 0 1-.941-6.313c1.483-3.31 5.329-5.6 10.288-6.117a20 20 0 0 1 1.959-.099c4.785 0 8.898 1.882 11.283 5.165A5.9 5.9 0 0 1-1.97-4.289c.281-.04.562-.076.848-.076 1.265 0 2.471.394 3.488 1.139 3.731 2.708 5.625 7.658 5.05 13.228-.514 4.956-2.8 8.805-6.117 10.296" style="fill:#fff;fill-opacity:1;fill-rule:nonzero;stroke:none" transform="translate(232.482 93.777)"/><path d="M84 160h100v-60H84Zm-4-64h108v68H80Z" style="fill:#fff;fill-opacity:1;fill-rule:nonzero;stroke:none"/></g></svg>