<svg xmlns="http://www.w3.org/2000/svg" xml:space="preserve" width="320" height="181.333"><defs><clipPath id="a" clipPathUnits="userSpaceOnUse"><path d="M0 256h256V0H0Z"/></clipPath></defs><g clip-path="url(#a)" transform="matrix(1.33333 0 0 -1.33333 -10.667 256)"><path d="M0 0a8 8 0 0 0-7.907-6.784h-123.25a16 16 0 0 0-14.311 8.845l-14.472 28.944a4 4 0 0 1-3.578 2.211h-54.645a4 4 0 0 0-3.795 2.736l-3.089 9.264H6.956Zm-221.047 121.216H2.956l.223-4h-128.224a4 4 0 0 1-4-4v-48a4 4 0 0 1 4-4H6.29l.666-12h-232.003zm208.003-48c0 4.412-3.589 8-8 8 4.411 0 8 3.589 8 8 0 4.412-3.589 8-8 8 4.411 0 8 3.589 8 8 0 4.412-3.589 8-8 8H3.401l2.667-48h-27.112c4.411 0 8 3.589 8 8m-8 4a4 4 0 1 0 0-8h-4a4 4 0 0 0 0 8zm-40-4c0 4.412-3.589 8-8.001 8a7.98 7.98 0 0 1 6.001 2.727 7.97 7.97 0 0 1 6-2.727h4a7.97 7.97 0 0 1 6 2.727 7.97 7.97 0 0 1 6-2.727h4a7.97 7.97 0 0 1 6 2.727 7.97 7.97 0 0 1 6-2.727c-4.411 0-8-3.588-8-8 0-4.411 3.589-8 8-8h-44.001c4.412 0 8.001 3.589 8.001 8m-8.001 4a4 4 0 1 0 0-8h-4a4 4 0 0 0 0 8zm6.001 33.274a7.98 7.98 0 0 1-6.001 2.726h12.001a7.97 7.97 0 0 1-6-2.726m16 0a7.98 7.98 0 0 1-6 2.726h12a7.98 7.98 0 0 1-6-2.726m16 0a7.98 7.98 0 0 1-6 2.726h12a7.98 7.98 0 0 1-6-2.726m2-5.274a4 4 0 0 0 4 4h4a4 4 0 1 0 0-8h-4a4 4 0 0 0-4 4m-12-12h4a4 4 0 1 0 0-8h-4a4 4 0 0 0 0 8m-4 12a4 4 0 0 0 4 4h4a4 4 0 1 0 0-8h-4a4 4 0 0 0-4 4m-8-8a7.97 7.97 0 0 1 6 2.727 7.97 7.97 0 0 1 6-2.727 7.98 7.98 0 0 1-6-2.726 7.98 7.98 0 0 1-6 2.726m-4-4h4a4 4 0 1 0 0-8h-4a4 4 0 1 0 0 8m-4 12c0 2.21 1.79 4 4 4h4a4 4 0 1 0 0-8h-4a4 4 0 0 0-4 4m-12.001-4a4 4 0 0 0 0 8h4a4 4 0 1 0 0-8zm8-12a4 4 0 0 0-4-4h-4a4 4 0 0 0 0 8h4c2.21 0 4-1.79 4-4m-4 8a7.98 7.98 0 0 1 6.001 2.727 7.97 7.97 0 0 1 6-2.727 7.97 7.97 0 0 1-6-2.726 7.98 7.98 0 0 1-6.001 2.726m38.001-2.726a7.98 7.98 0 0 1-6 2.726 7.97 7.97 0 0 1 6 2.727 7.97 7.97 0 0 1 6-2.727 7.98 7.98 0 0 1-6-2.726m10-1.274a4 4 0 1 0 0-8h-4a4 4 0 0 0 0 8zm-80.001 0a4 4 0 1 0 0-8h-4a4 4 0 0 0 0 8zm0 16a4 4 0 1 0 0-8h-4a4 4 0 0 0 0 8zm-6-36c-3.309 0-6-2.691-6-6 0-.702.127-1.373.35-2h-12.35v48h20c-4.411 0-8-3.588-8-8 0-4.411 3.589-8 8-8-4.411 0-8-3.588-8-8 0-4.411 3.589-8 8-8h4c4.411 0 8 3.589 8 8 0 4.412-3.589 8-8 8 4.411 0 8 3.589 8 8 0 4.412-3.589 8-8 8h28c-4.411 0-8-3.588-8-8 0-4.411 3.589-8 8-8-4.411 0-8-3.588-8-8 0-4.411 3.589-8 8-8-4.411 0-8-3.588-8-8 0-4.411 3.589-8 8-8h-28.35a6 6 0 0 1 .35 2c0 3.309-2.692 6-6 6m-2-6a2 2 0 1 0 3.999.001 2 2 0 0 0-3.999-.001M10.95 49.438l-3.991 75.778h-232l-4-75.778v-4.222c0-.424.062-.851.2-1.264l3.088-9.265a7.99 7.99 0 0 1 7.59-5.471h54.645L-149.046.272c3.41-6.819 10.265-11.056 17.889-11.056h123.25c5.965 0 10.953 4.28 11.861 10.176l6.932 45.061q.073.371.073.763z" style="fill:#fff;fill-opacity:1;fill-rule:nonzero;stroke:none" transform="translate(237.041 66.784)"/><path d="M27.995 172h28v4h-28z" style="fill:#fff;fill-opacity:1;fill-rule:nonzero;stroke:none"/></g></svg>