<svg xmlns="http://www.w3.org/2000/svg" xml:space="preserve" width="320" height="186.667"><defs><clipPath id="a" clipPathUnits="userSpaceOnUse"><path d="M0 256h256V0H0Z"/></clipPath></defs><g clip-path="url(#a)" transform="matrix(1.33333 0 0 -1.33333 -10.667 261.333)"><path d="M0 0h-176c-15.464 0-28 12.536-28 28l4 88c0 8.836 3.164 16 12 16H12c8.837 0 12-7.164 12-16l4-88C28 12.536 15.464 0 0 0m31.996 28.182L28 116.094C27.97 128.561 21.994 136 12 136h-200c-9.994 0-15.97-7.439-16-19.906l-3.996-87.912-.004-.091V28c0-17.645 14.355-32 32-32H0c17.645 0 32 14.355 32 32v.091z" style="fill:#fff;fill-opacity:1;fill-rule:nonzero;stroke:none" transform="translate(216 60)"/><path d="M0 0h-168c-2.82 0-8 9.112-8 24s5.18 24 8 24H0c2.82 0 8-9.112 8-24S2.82 0 0 0m0 52h-168c-6.627 0-12-12.536-12-28s5.373-28 12-28H0C6.627-4 12 8.536 12 24S6.627 52 0 52" style="fill:#fff;fill-opacity:1;fill-rule:nonzero;stroke:none" transform="translate(216 136)"/><path d="M52 176h160v-32H52Zm-4-36h168v40H48Z" style="fill:#fff;fill-opacity:1;fill-rule:nonzero;stroke:none"/><path d="M0 0h-4a4 4 0 0 0 0 8h4a4 4 0 0 0 0-8m8 4c0 4.411-3.589 8-8 8h-4c-4.411 0-8-3.589-8-8s3.589-8 8-8h4C4.411-4 8-.411 8 4" style="fill:#fff;fill-opacity:1;fill-rule:nonzero;stroke:none" transform="translate(28 116)"/><path d="M0 0c-3.313 0-6 1.791-6 4s2.687 4 6 4 6-1.791 6-4-2.687-4-6-4m10 4c0 4.486-4.393 8-10 8s-10-3.514-10-8 4.393-8 10-8S10-.486 10 4" style="fill:#fff;fill-opacity:1;fill-rule:nonzero;stroke:none" transform="translate(106 108)"/><path d="M0 0c3.313 0 6-1.791 6-4S3.313-8 0-8s-6 1.791-6 4 2.687 4 6 4m-10-4c0-4.486 4.393-8 10-8s10 3.514 10 8S5.607 4 0 4-10 .486-10-4" style="fill:#fff;fill-opacity:1;fill-rule:nonzero;stroke:none" transform="translate(106 100)"/><path d="M0 0c-3.313 0-6 1.791-6 4s2.687 4 6 4 6-1.791 6-4-2.687-4-6-4m10 4c0 4.486-4.393 8-10 8s-10-3.514-10-8 4.393-8 10-8S10-.486 10 4" style="fill:#fff;fill-opacity:1;fill-rule:nonzero;stroke:none" transform="translate(134 108)"/><path d="M0 0c3.313 0 6-1.791 6-4S3.313-8 0-8s-6 1.791-6 4 2.687 4 6 4m-10-4c0-4.486 4.393-8 10-8s10 3.514 10 8S5.607 4 0 4-10 .486-10-4" style="fill:#fff;fill-opacity:1;fill-rule:nonzero;stroke:none" transform="translate(134 100)"/><path d="M0 0a4 4 0 1 0 0-8 4 4 0 0 0 0 8m-8-4c0-4.411 3.589-8 8-8s8 3.589 8 8-3.589 8-8 8-8-3.589-8-8" style="fill:#fff;fill-opacity:1;fill-rule:nonzero;stroke:none" transform="translate(106 84)"/><path d="M0 0a4 4 0 1 0 0-8 4 4 0 0 0 0 8m-8-4c0-4.411 3.589-8 8-8s8 3.589 8 8-3.589 8-8 8-8-3.589-8-8" style="fill:#fff;fill-opacity:1;fill-rule:nonzero;stroke:none" transform="translate(134 84)"/><path d="M0 0c-13.255 0-24 10.745-24 24s10.745 24 24 24 24-10.745 24-24S13.255 0 0 0m0 52c-15.439 0-28-12.561-28-28S-15.439-4 0-4 28 8.561 28 24 15.439 52 0 52" style="fill:#fff;fill-opacity:1;fill-rule:nonzero;stroke:none" transform="translate(60 72)"/><path d="M0 0a8 8 0 1 0 0 16A8 8 0 0 0 0 0m0 20c-6.617 0-12-5.383-12-12S-6.617-4 0-4 12 1.383 12 8 6.617 20 0 20" style="fill:#fff;fill-opacity:1;fill-rule:nonzero;stroke:none" transform="translate(212 76)"/><path d="M0 0c-.781.78-2.047.78-2.829 0l-11.313-11.314L-25.456 0a2 2 0 0 1-2.828-2.829l11.313-11.314-11.313-11.313a2 2 0 0 1 2.828-2.829l11.314 11.314 11.313-11.314A2 2 0 0 1 0-25.456l-11.313 11.313L0-2.829A2 2 0 0 1 0 0" style="fill:#fff;fill-opacity:1;fill-rule:nonzero;stroke:none" transform="translate(74.142 110.143)"/><path d="M0 0c-3.796 0-7.5-.496-11.066-1.395l-7.414 14.829A65 65 0 0 0 0 16.132V16A8 8 0 0 0 0 0m-34.923-15.614L-47.528-4.409A65.7 65.7 0 0 0-22.32 12.169l7.357-14.716c-7.662-2.656-14.521-7.241-19.96-13.067m-8.079-11.575C-44.461-30.107-47.387-32-50.648-32c-6.344 0-10.402 6.682-7.564 12.355a63.6 63.6 0 0 0 8.028 12.243l12.648-11.243a49 49 0 0 1-5.466-8.544m44.24 47.126A4 4 0 0 1 0 20.132a69 69 0 0 1-19.617-2.863 4 4 0 0 1-1.844-1.203 4 4 0 0 1-.86.104c-.457 0-.92-.079-1.372-.244-10.13-3.699-19.378-9.782-26.745-17.59-.028-.029-.046-.065-.073-.096l-.102.091-2.644-3.173a67.7 67.7 0 0 1-8.532-13.013c-1.968-3.934-1.767-8.508.538-12.238A12.38 12.38 0 0 1-50.648-36c4.757 0 9.058 2.69 11.224 7.021a45 45 0 0 0 5.019 7.846l1.794 2.257c.216.154.423.33.613.532 5.107 5.472 11.451 9.627 18.346 12.017.622.216 1.16.592 1.599 1.062.321-.082.65-.13.986-.13q.487 0 .977.122A41.4 41.4 0 0 0 0-4C6.617-4 12 1.383 12 8c0 6.199-4.724 11.315-10.762 11.937" style="fill:#fff;fill-opacity:1;fill-rule:nonzero;stroke:none" transform="translate(216 108)"/></g></svg>