<svg xmlns="http://www.w3.org/2000/svg" xml:space="preserve" width="197.333" height="320"><defs><clipPath id="a" clipPathUnits="userSpaceOnUse"><path d="M0 256h256V0H0Z"/></clipPath></defs><path d="M0 0h-124v-68H0v64zm-4-64h-116v60H-4Z" style="fill:#fff;fill-opacity:1;fill-rule:nonzero;stroke:none" transform="matrix(1.33333 0 0 -1.33333 184 229.333)"/><g clip-path="url(#a)" transform="matrix(1.33333 0 0 -1.33333 -72 330.667)"><path d="M0 0h-32c-2.2 0-4-1.8-4-4v-12c0-2.2 1.8-4 4-4H0c2.2 0 4 1.8 4 4v12c0 2.2-1.8 4-4 4m0-16h-32v12H0Z" style="fill:#fff;fill-opacity:1;fill-rule:nonzero;stroke:none" transform="translate(176 68)"/><path d="M0 0h-32c-2.2 0-4-1.8-4-4v-20c0-2.2 1.8-4 4-4H0c2.2 0 4 1.8 4 4v20c0 2.2-1.8 4-4 4m0-24h-32v20H0Z" style="fill:#fff;fill-opacity:1;fill-rule:nonzero;stroke:none" transform="translate(176 44)"/><path d="M0 0h-80.433a8 8 0 0 1-7.987-7.556l-3.556-64a8.04 8.04 0 0 1 2.176-5.942A8.04 8.04 0 0 1-83.988-80H3.555c2.189 0 4.307.912 5.812 2.502a8.04 8.04 0 0 1 2.176 5.942l-3.556 64A8 8 0 0 1 0 0m0-4a4 4 0 0 0 3.993-3.778l3.556-64A4 4 0 0 0 3.555-76h-87.543a4 4 0 0 0-3.994 4.222l3.556 64A4 4 0 0 0-80.433-4z" style="fill:#fff;fill-opacity:1;fill-rule:nonzero;stroke:none" transform="translate(171.988 204)"/><path d="M0 0h-47.095c-2.455 0-4.452-1.523-4.452-3.396v-45.208c0-1.873 1.997-3.396 4.452-3.396H0c2.455 0 4.453 1.523 4.453 3.396v45.208C4.453-1.523 2.455 0 0 0m0-4c.184 0 .335-.025.453-.059v-43.882A1.6 1.6 0 0 0 0-48h-47.095a1.6 1.6 0 0 0-.452.059v43.882c.117.034.269.059.452.059z" style="fill:#fff;fill-opacity:1;fill-rule:nonzero;stroke:none" transform="translate(127.547 68)"/><path d="M0 0a2 2 0 1 0-4.001.001A2 2 0 0 0 0 0" style="fill:#fff;fill-opacity:1;fill-rule:nonzero;stroke:none" transform="translate(160 58)"/><path d="M0 0a2 2 0 1 0-4.001.001A2 2 0 0 0 0 0" style="fill:#fff;fill-opacity:1;fill-rule:nonzero;stroke:none" transform="translate(108 58)"/><path d="M0 0a2 2 0 1 0-4.001.001A2 2 0 0 0 0 0" style="fill:#fff;fill-opacity:1;fill-rule:nonzero;stroke:none" transform="translate(152 30)"/><path d="M0 0c0-1.104-1.343-2-3-2s-3 .896-3 2 1.343 2 3 2 3-.896 3-2" style="fill:#fff;fill-opacity:1;fill-rule:nonzero;stroke:none" transform="translate(188 100)"/><path d="M0 0c0-1.104-1.343-2-3-2s-3 .896-3 2 1.343 2 3 2 3-.896 3-2" style="fill:#fff;fill-opacity:1;fill-rule:nonzero;stroke:none" transform="translate(184 94)"/><path d="M0 0c0-1.104-1.343-2-3-2s-3 .896-3 2 1.343 2 3 2 3-.896 3-2" style="fill:#fff;fill-opacity:1;fill-rule:nonzero;stroke:none" transform="translate(180 100)"/><path d="M0 0c0-1.104-1.343-2-3-2s-3 .896-3 2 1.343 2 3 2 3-.896 3-2" style="fill:#fff;fill-opacity:1;fill-rule:nonzero;stroke:none" transform="translate(176 94)"/><path d="M0 0c0-1.104-1.343-2-3-2s-3 .896-3 2 1.343 2 3 2 3-.896 3-2" style="fill:#fff;fill-opacity:1;fill-rule:nonzero;stroke:none" transform="translate(172 100)"/><path d="M0 0c0-1.104-1.343-2-3-2s-3 .896-3 2 1.343 2 3 2 3-.896 3-2" style="fill:#fff;fill-opacity:1;fill-rule:nonzero;stroke:none" transform="translate(137 98)"/><path d="M0 0c0-1.104-1.343-2-3-2s-3 .896-3 2 1.343 2 3 2 3-.896 3-2" style="fill:#fff;fill-opacity:1;fill-rule:nonzero;stroke:none" transform="translate(129 98)"/><path d="M0 0c0-1.104-1.343-2-3-2s-3 .896-3 2 1.343 2 3 2 3-.896 3-2" style="fill:#fff;fill-opacity:1;fill-rule:nonzero;stroke:none" transform="translate(168 94)"/><path d="M0 0c0-1.104-1.343-2-3-2s-3 .896-3 2 1.343 2 3 2 3-.896 3-2" style="fill:#fff;fill-opacity:1;fill-rule:nonzero;stroke:none" transform="translate(116 100)"/><path d="M0 0c0-1.104-1.343-2-3-2s-3 .896-3 2 1.343 2 3 2 3-.896 3-2" style="fill:#fff;fill-opacity:1;fill-rule:nonzero;stroke:none" transform="translate(112 94)"/><path d="M0 0c0-1.104-1.343-2-3-2s-3 .896-3 2 1.343 2 3 2 3-.896 3-2" style="fill:#fff;fill-opacity:1;fill-rule:nonzero;stroke:none" transform="translate(108 100)"/><path d="M0 0c0-1.104-1.343-2-3-2s-3 .896-3 2 1.343 2 3 2 3-.896 3-2" style="fill:#fff;fill-opacity:1;fill-rule:nonzero;stroke:none" transform="translate(104 94)"/><path d="M0 0c0-1.104-1.343-2-3-2s-3 .896-3 2 1.343 2 3 2 3-.896 3-2" style="fill:#fff;fill-opacity:1;fill-rule:nonzero;stroke:none" transform="translate(100 100)"/><path d="M0 0c0-1.104-1.343-2-3-2s-3 .896-3 2 1.343 2 3 2 3-.896 3-2" style="fill:#fff;fill-opacity:1;fill-rule:nonzero;stroke:none" transform="translate(96 94)"/><path d="M0 0a4 4 0 0 0-4-4h-132a4 4 0 0 0-4 4v8H0Zm-134.667 24H-126c0-.805.124-1.594.357-2.345C-127.144 20.434-128 18.817-128 17c0-2.018 1.042-3.758 2.8-5h-13.467zm14.524 126.521c.095.978.368 1.929.807 2.808l1.336 1.67v-14.468l3.435-.491 28-4 .281-.04h-27.867c-3.104 0-5.731-2.393-5.98-5.447l-7.696-94.234-.006-.083-.004-.082a7.7 7.7 0 0 1 2.171-5.689 8 8 0 0 1 1.597-1.267 8 8 0 0 1-.848-1.198H-132ZM-114 160v4h28v-24l-28 4zm96.075-28c1.075 0 1.957-.816 1.999-1.849l3.846-96.154c.044-1.091-.863-1.997-1.998-1.997h-105.765c-2.27 0-4.085 1.813-3.997 3.994l7.695 94.234c.082 1 .95 1.772 1.994 1.772zM-82 156h32v-16h-32zm0 8h32v-4h-32zm36-8v8h28v-20l-28-4zm28.565-15.96 3.435.491v14.502l1.276-1.585a8 8 0 0 0 .828-3.063L-4 28h-10.078c1.639 0 3.225.673 4.353 1.847a5.9 5.9 0 0 1 1.642 4.31l-3.847 96.154c-.127 3.19-2.76 5.689-5.995 5.689h-27.791l.281.04zM-50 24a4 4 0 0 0 8 0c0-1.477-.81-2.752-2-3.445v-.73c2.329-.412 4-1.519 4-2.825 0-1.657-2.687-3-6-3s-6 1.343-6 3c0 1.306 1.671 2.413 4 2.825v.73c-1.19.693-2 1.968-2 3.445m-60.357-2.345c.233.751.357 1.54.357 2.345h56c0-.805.124-1.594.357-2.345C-55.144 20.434-56 18.817-56 17c0-2.018 1.041-3.758 2.8-5h-57.6c1.758 1.242 2.8 2.982 2.8 5 0 1.817-.856 3.434-2.357 4.655M-122 24a4 4 0 0 0 8 0c0-1.477-.81-2.752-2-3.445v-.73c2.329-.412 4-1.519 4-2.825 0-1.657-2.687-3-6-3s-6 1.343-6 3c0 1.306 1.671 2.413 4 2.825v.73c-1.19.693-2 1.968-2 3.445M-.667 12H-38.8c1.759 1.242 2.8 2.982 2.8 5 0 1.817-.856 3.434-2.357 4.655.233.751.357 1.54.357 2.345h35.333zm.675 16-.016.258-7.896 122.385a11.9 11.9 0 0 1-1.242 4.593l-.193.385-.269.335L-14 161.41V168h-104v-6.597l-4.459-5.576-.265-.331-.19-.379a12 12 0 0 1-1.211-4.21L-136.019 28-144 12V0c0-4.411 3.589-8 8-8H-4C.411-8 4-4.411 4 0v12z" style="fill:#fff;fill-opacity:1;fill-rule:nonzero;stroke:none" transform="translate(198 80)"/><path d="M0 0h-.229l.119-.007Z" style="fill:#fff;fill-opacity:1;fill-rule:nonzero;stroke:none" transform="translate(130.117 80)"/></g></svg>