<svg xmlns="http://www.w3.org/2000/svg" xml:space="preserve" width="224" height="320"><defs><clipPath id="a" clipPathUnits="userSpaceOnUse"><path d="M0 256h256V0H0Z"/></clipPath></defs><g clip-path="url(#a)" transform="matrix(1.33333 0 0 -1.33333 -58.667 330.667)"><path d="M0 0c0-6.627-5.373-12-12-12h-136c-6.627 0-12 5.373-12 12v36H0Zm-160 48h8.521l-.347-8H-160Zm0 20v4h9.565l-.174-4zm8.87-12-.174-4H-160v4zm-8.87 4v4h9.217l-.174-4zm9.913 20-.174-4H-160v4zm-5.008 126.187c.081.063.17.127.255.19a24 24 0 0 0 .998.701q.462.308.977.62l.116.072a38 38 0 0 0 2.939 1.583q.728.354 1.523.71l.091.041a63 63 0 0 0 3.832 1.548h.001L-149.913 84H-160v112.499c0 3.461 1.477 6.763 4.092 9.031.248.215.523.435.813.657m17.679 7.684A7.97 7.97 0 0 1-140 208c0-4.411 3.589-8 8-8s8 3.589 8 8c0 3.659-2.473 6.745-5.833 7.693C-117.84 218.205-101.555 220-80 220c28.357 0 47.606-3.104 59.932-6.864l.072-1.657L-14.453 84H-38a2 2 0 0 1 0-4h23.721l.174-4H-30a2 2 0 0 1 0-4h16.068l.174-4H-22a2 2 0 0 1 0-4h8.416l.174-4H-18a2 2 0 0 1 0-4h4.764l.173-4H-14a2 2 0 0 1 0-4h1.111l.348-8h-135.281l.347 8H-146a2 2 0 0 1 0 4h-1.301l.175 4H-142a2 2 0 0 1 0 4h-4.953l.174 4H-138a2 2 0 0 1 0 4h-8.605l.174 4H-130a2 2 0 0 1 0 4h-16.257l.174 4H-122a2 2 0 0 1 0 4h-23.909l5.542 127.479.067 1.542c.926.287 1.878.571 2.884.85M-132 212a4 4 0 1 0 0-8 4 4 0 0 0 0 8M-.363 48v-8h-8.174l-.348 8zm0 8v-4h-8.696l-.173 4zm0 8v-4h-9.043l-.174 4zm0 8v-4h-9.391l-.174 4zm0 8v-4h-9.739l-.174 4zm-4.091 125.53c2.614-2.268 4.091-5.57 4.091-9.031V84H-10.45L-16 211.652c5.615-2.066 9.362-4.229 11.546-6.122m2.983 3.021c-3.538 3.07-9.453 5.928-17.022 8.281l-1.759.53a115 115 0 0 1-5.783 1.516C-40.489 222.277-58.646 224-80 224s-39.511-1.723-53.965-5.122a114 114 0 0 1-6.151-1.623l-5.628-1.849c-.311-.114-.605-.233-.908-.349l-.644-.248a71 71 0 0 1-1.836-.758c-.286-.123-.573-.246-.851-.371a54 54 0 0 1-1.098-.509c-.16-.076-.326-.15-.483-.227a47 47 0 0 1-1.571-.801l-.133-.074a38 38 0 0 1-1.319-.745q-.16-.095-.317-.191a33 33 0 0 1-1.369-.873 26 26 0 0 1-.9-.637c-.101-.074-.206-.148-.304-.222a21 21 0 0 1-1.052-.85 15.8 15.8 0 0 1-2.322-2.502 15.9 15.9 0 0 1-2.783-6.132 16 16 0 0 1-.366-3.418V0c0-3.859 1.374-7.404 3.658-10.172C-157.405-13.729-152.963-16-148-16h136c4.963 0 9.404 2.271 12.342 5.828A15.93 15.93 0 0 1 4 0v196.499c0 4.644-1.994 9.037-5.471 12.052" style="fill:#fff;fill-opacity:1;fill-rule:nonzero;stroke:none" transform="translate(208 24)"/><path d="M148 152h32v-16h-32zm0-20h32a4 4 0 0 1 4 4v16a4 4 0 0 1-4 4h-32a4 4 0 0 1-4-4v-16a4 4 0 0 1 4-4m-76 80h56v-72H72Zm0-76h56a4 4 0 0 1 4 4v72a4 4 0 0 1-4 4H72a4 4 0 0 1-4-4v-72a4 4 0 0 1 4-4" style="fill:#fff;fill-opacity:1;fill-rule:nonzero;stroke:none"/></g></svg>