<svg xmlns="http://www.w3.org/2000/svg" xml:space="preserve" width="213.333" height="320"><defs><clipPath id="a" clipPathUnits="userSpaceOnUse"><path d="M0 256h256V0H0Z"/></clipPath></defs><g clip-path="url(#a)" transform="matrix(1.33333 0 0 -1.33333 -64 330.667)"><path d="M0 0h-32c-3.309 0-6-2.691-6-6v-24c0-3.309 2.691-6 6-6H0c3.309 0 6 2.691 6 6v24c0 3.309-2.691 6-6 6m0-4c1.1 0 2-.9 2-2v-24c0-1.1-.9-2-2-2h-32c-1.1 0-2 .9-2 2v24c0 1.1.9 2 2 2z" style="fill:#fff;fill-opacity:1;fill-rule:nonzero;stroke:none" transform="translate(110 128)"/><path d="M0 0c-4.411 0-8-3.589-8-8s3.589-8 8-8 8 3.589 8 8-3.589 8-8 8m0-4a4 4 0 1 0 0-8 4 4 0 0 0 0 8" style="fill:#fff;fill-opacity:1;fill-rule:nonzero;stroke:none" transform="translate(180 32)"/><path d="M0 0c-4.411 0-8-3.589-8-8s3.589-8 8-8 8 3.589 8 8-3.589 8-8 8m0-4a4 4 0 1 0 0-8 4 4 0 0 0 0 8" style="fill:#fff;fill-opacity:1;fill-rule:nonzero;stroke:none" transform="translate(72 32)"/><path d="M0 0h-56c-3.309 0-6-2.691-6-6v-88c0-3.309 2.691-6 6-6H0c3.309 0 6 2.691 6 6v88c0 3.309-2.691 6-6 6m0-4a2 2 0 0 0 2-2v-88a2 2 0 0 0-2-2h-56a2 2 0 0 0-2 2v88a2 2 0 0 0 2 2z" style="fill:#fff;fill-opacity:1;fill-rule:nonzero;stroke:none" transform="translate(190 128)"/><path d="M0 0a8 8 0 1 0 0 16A8 8 0 0 0 0 0m12 8c0 6.617-5.383 12-12 12s-12-5.383-12-12S-6.617-4 0-4 12 1.383 12 8" style="fill:#fff;fill-opacity:1;fill-rule:nonzero;stroke:none" transform="translate(128 208)"/><path d="M0 0a4 4 0 1 0 0 8 4 4 0 0 0 0-8m0 12c-4.411 0-8-3.589-8-8s3.589-8 8-8S8-.411 8 4s-3.589 8-8 8" style="fill:#fff;fill-opacity:1;fill-rule:nonzero;stroke:none" transform="translate(180 228)"/><path d="M0 0c0-4.4-3.6-8-8-8h-64c-.332 0-.658.027-.98.067-.092.011-.182.028-.273.042a8 8 0 0 0-.719.149q-.121.029-.241.062a8 8 0 0 0-1.769.757l-.137.083a8 8 0 0 0-.718.49l-.08.06A8.2 8.2 0 0 0-78.912-4 7.9 7.9 0 0 0-80 0v104c0 4.4 3.6 8 8 8h64a7.9 7.9 0 0 0 4-1.088q.438-.256.838-.562l.03-.023a8 8 0 0 0 1.422-1.41l.06-.08q.263-.344.49-.718l.083-.137c.32-.552.575-1.145.757-1.769q.033-.12.062-.241.092-.354.149-.719c.014-.091.031-.181.042-.273.04-.322.067-.648.067-.98Zm-84 104V0c0-1.404.255-2.747.7-4H-140v188c6.617 0 12 5.383 12 12 0 3.099-1.191 5.918-3.126 8.05 4.001.437 7.126 3.834 7.126 7.95 0 4.411-3.589 8-8 8s-8-3.589-8-8c0-1.481.412-2.865 1.117-4.057-.368.035-.74.057-1.117.057v16h124v-24h-44v-4h44v-4h-44v-4h44v-4h-44v-4h44v-4h-44v-4h44v-4h-44v-4h44v-4h-44v-4h44v-4h-44v-4h44v-4h-44v-4h44v-24h-56c-6.617 0-12-5.383-12-12m-52 108a4 4 0 1 0 8 0 4 4 0 0 0-8 0m-8-22.921a8.1 8.1 0 0 0-2.293 1.992l-.059.079q-.263.345-.488.717-.044.07-.086.141a8 8 0 0 0-.755 1.771c-.023.079-.041.16-.062.241q-.09.355-.149.721-.023.137-.041.275c-.04.323-.067.65-.067.984s.027.661.067.984q.018.138.041.275.059.366.149.721.03.122.062.241a8 8 0 0 0 .755 1.771q.042.071.086.141.225.372.488.717l.059.079a8 8 0 0 0 2.293 1.992 7.96 7.96 0 0 0 4 1.079 8 8 0 0 0 0-16 7.96 7.96 0 0 0-4 1.079m0-192.382c-4.658 1.65-8 6.08-8 11.303v204c0 5.223 3.342 9.653 8 11.303V207.3c-4.653-1.653-8-6.087-8-11.3s3.347-9.647 8-11.3zm132 226.606c4.657-1.65 8-6.08 8-11.303v-96.7c-1.253.445-2.596.7-4 .7h-4v84zM0 112.919V212c0 7.439-5.11 13.69-12 15.474l-4 .526h-124l-4-.526c-6.89-1.784-12-8.035-12-15.474V8c0-7.439 5.11-13.69 12-15.474l4-.526h59.081c2.199-2.448 5.377-4 8.919-4h64C-1.383-12 4-6.617 4 0v104c0 3.542-1.552 6.72-4 8.919" style="fill:#fff;fill-opacity:1;fill-rule:nonzero;stroke:none" transform="translate(204 20)"/></g></svg>