<svg xmlns="http://www.w3.org/2000/svg" xml:space="preserve" width="320" height="325.333"><defs><clipPath id="a" clipPathUnits="userSpaceOnUse"><path d="M0 256h256V0H0Z"/></clipPath></defs><g clip-path="url(#a)" transform="matrix(1.33333 0 0 -1.33333 -10.667 333.333)"><path d="M0 0a2 2 0 1 1-4.001-.001A2 2 0 0 1 0 0" style="fill:#fff;fill-opacity:1;fill-rule:nonzero;stroke:none" transform="translate(28 238)"/><path d="M0 0a2 2 0 1 1-4.001-.001A2 2 0 0 1 0 0" style="fill:#fff;fill-opacity:1;fill-rule:nonzero;stroke:none" transform="translate(232 238)"/><path d="M0 0a15.94 15.94 0 0 1-10.522 5.007c-.372.034-.745.056-1.124.056h-54c0 27.571-22.429 50-49.997 50-27.572 0-50.003-22.429-50.003-50h-54c-.38 0-.754-.022-1.124-.056a15.94 15.94 0 0 1-10.523-5.008 117 117 0 0 0-.353 9.064c0 64.066 51.929 116 116 116 64.05 0 116-51.934 116-116C.354 6.013.232 2.99 0 0m-105.867 5.063h-19.563c0 5.396 4.389 9.786 9.785 9.786 5.392 0 9.778-4.39 9.778-9.786m-9.778 13.786c-7.595 0-13.785-6.181-13.785-13.786h-32.216c0 25.349 20.639 46 46.003 46 25.337 0 45.997-20.651 45.997-46h-32.221c0 7.605-6.177 13.786-13.778 13.786M.354-18.937h-20v8h-192v-8h-20v1.412l4.425 13.139a7.99 7.99 0 0 0 7.575 5.449h208a7.99 7.99 0 0 0 7.574-5.448L.354-17.522zm0-8h-20v4h20zm0-8h-20v4h20zm0-8h-20v4h20zm-208 28h184v-64h-184zm184-80h-184v12h184zm24-16h-232v64h20v-52h192v52h20zm-232 72h20v-4h-20zm0 8h20v-4h-20zm0 8h20v-4h-20zm8 146h70.336c-17.594-5.792-33.714-15.668-47.191-29.146-9.605-9.605-17.373-20.556-23.145-32.422zm216 0V61.488C-13.42 73.356-21.19 84.31-30.799 93.917c-13.479 13.478-29.598 23.354-47.191 29.146ZM3.697-3.523c.436 4.174.657 8.409.657 12.586 0 15.032-2.747 29.642-8 43.257v74.743h-90.05a121.3 121.3 0 0 1-21.95 2c-7.446 0-14.786-.682-21.955-2h-90.045V52.326c-5.254-13.617-8-28.228-8-43.263 0-4.177.22-8.412.656-12.586l.23-2.208a15.9 15.9 0 0 1-.886-5.206v-104h240v104c0 1.825-.323 3.572-.887 5.206z" style="fill:#fff;fill-opacity:1;fill-rule:nonzero;stroke:none" transform="translate(243.647 120.936)"/></g></svg>