<svg xmlns="http://www.w3.org/2000/svg" xml:space="preserve" width="314.667" height="218.667"><defs><clipPath id="a" clipPathUnits="userSpaceOnUse"><path d="M0 256h256V0H0Z"/></clipPath></defs><g clip-path="url(#a)" transform="matrix(1.33333 0 0 -1.33333 -10.667 282.667)"><path d="M0 0v-2h-24v-4H0v-4h-24v-4H0v-4h-24v-4H0v-4h-24v-10c0-1.32-.031-.656-.093-2H0v-4h-24v-4H0v-4h-25.119c-3.274-20.396-13.679-39.115-29.553-53.03C-71.07-117.405-92.07-125.489-114-125.955c-21.929.466-42.93 8.55-59.329 22.925-15.874 13.915-26.278 32.634-29.552 53.03H-228v4h24v4h-24v4h24.093c-.062 1.344-.093.68-.093 2v10h-24v4h24v4h-24v4h24v4h-24v4h24v4h-24v4h28v4c.095 0 9.542.158 12.439 5.822l1.114 2.178h144.893l1.115-2.178C-37.541 6.158-28.095 6-28 6V2H0Zm0-34h-20v4H0Zm0-104a4 4 0 0 0-4-4h-220a4 4 0 0 0-4 4v84h21.775c3.986-19.977 14.644-38.35 30.26-52.038 16.629-14.577 37.79-22.968 59.965-23.872v-.09c.668 0 1.333.031 2 .045.667-.014 1.332-.045 2-.045v.09c22.176.904 43.336 9.295 59.965 23.872C-36.419-92.35-25.761-73.977-21.775-54H0ZM-228-30h20v-4h-20zM0 6h-20v4h-7.965c-2.342.052-7.564 1.007-8.913 3.644l-1.114 2.178L-39.106 18h-149.787l-1.115-2.178-1.114-2.178c-1.349-2.637-6.572-3.592-8.913-3.644H-208V6h-24v-144c0-4.411 3.589-8 8-8H-4c4.411 0 8 3.589 8 8V6z" style="fill:#fff;fill-opacity:1;fill-rule:nonzero;stroke:none" transform="translate(240 194)"/><path d="M0 0h136v-16h-16v8H16v-8H0Zm0 8h136V4H0Zm0 8h136v-4H0Zm0 8h136v-4H0Zm20-52v16h96v-16zm50-56h-4C30.278-84 1.114-55.469.051-20H16v-12h104v12h15.949C134.886-55.469 105.722-84 70-84M-4-16v-4h.051C-2.888-57.732 28.011-88 66-88h4c37.989 0 68.888 30.268 69.949 68H140v48H-4Z" style="fill:#fff;fill-opacity:1;fill-rule:nonzero;stroke:none" transform="translate(60 176)"/></g></svg>