<svg xmlns="http://www.w3.org/2000/svg" xml:space="preserve" width="320" height="208"><defs><clipPath id="a" clipPathUnits="userSpaceOnUse"><path d="M0 256h256V0H0Z"/></clipPath></defs><g clip-path="url(#a)" transform="matrix(1.33333 0 0 -1.33333 -10.667 277.333)"><path d="M0 0a2 2 0 1 0 .001 4.001A2 2 0 0 0 0 0m-4.243 6.242a6 6 0 0 1 0-8.484 6 6 0 0 1 8.486 0 6 6 0 0 1 0 8.484 6 6 0 0 1-8.486 0" style="fill:#fff;fill-opacity:1;fill-rule:nonzero;stroke:none" transform="translate(46 92)"/><path d="M0 0a2 2 0 1 0-.001-4.001A2 2 0 0 0 0 0m4.242-6.242a5.997 5.997 0 0 1 0 8.484 5.997 5.997 0 0 1-8.484 0 5.997 5.997 0 0 1 0-8.484 5.997 5.997 0 0 1 8.484 0" style="fill:#fff;fill-opacity:1;fill-rule:nonzero;stroke:none" transform="translate(210 96)"/><path d="m0 0-2.546-28h-26.148L-31.24 0Zm-27.62-32h24v-4h-24zm-4-8h32l4 44h-40z" style="fill:#fff;fill-opacity:1;fill-rule:nonzero;stroke:none" transform="translate(143.62 136)"/><path d="M136 80h-16v-4h16z" style="fill:#fff;fill-opacity:1;fill-rule:nonzero;stroke:none"/><path d="M0 0a2 2 0 1 0-4.001.001A2 2 0 0 0 0 0m-8 0A6 6 0 0 1 4 0 6 6 0 0 1-8 0" style="fill:#fff;fill-opacity:1;fill-rule:nonzero;stroke:none" transform="translate(144 66)"/><path d="M110 60h4v8h-4z" style="fill:#fff;fill-opacity:1;fill-rule:nonzero;stroke:none"/><path d="M0 0a2 2 0 1 0 .001 4.001A2 2 0 0 0 0 0m-4.243 6.242a6 6 0 0 1 0-8.484 6 6 0 0 1 8.486 0 6 6 0 0 1 0 8.484 6 6 0 0 1-8.486 0" style="fill:#fff;fill-opacity:1;fill-rule:nonzero;stroke:none" transform="translate(78 76)"/><path d="M0 0a2 2 0 1 0 .001 4.001A2 2 0 0 0 0 0m-4.242 6.242a5.997 5.997 0 0 1 0-8.484 5.997 5.997 0 0 1 8.484 0 5.997 5.997 0 0 1 0 8.484 5.997 5.997 0 0 1-8.484 0" style="fill:#fff;fill-opacity:1;fill-rule:nonzero;stroke:none" transform="translate(178 76)"/><path d="m0 0-4 20h-120l-4-20h-52l8 24H44l8-24Zm52-84.11L18.994-28l-7.199 17.265L10.883-8H0v4h52ZM37.429-92 4-40l6 12h4.353L52-92Zm-52.014-30.584-21.321 35.536L-32.319-44H1.816l32.54-50.618zm-11.818.584L-45.07-94h-37.86l-18.666-28h-6.804L-88-88l-4 48h-35.528l-.894 1.789L-133.528-28H5.528L.422-38.211-.473-40H-36l-4-48 20.4-34zm-70.386 0 16 24h33.578l16-24zm-16.626-.584-48.941 27.966 1.683 2.618 30.857 48h34.135l3.588-43.048zM-180-92l37.647 64H-138l6-12-33.429-52zm52 84h-10.883l-.912-2.735L-146.994-28-180-84.11V-4h52zM0-12h8l4-12h-152l4 12h8zm-4 4h-120v7.604L-120.721 16H-7.279L-4-.396Zm59.795 9.265-8 24L46.883 28h-221.766l-.912-2.735-8-24-.205-.616V-96h16l56-32 1.2 2h93.6l1.2-2 56 32h16V.649z" style="fill:#fff;fill-opacity:1;fill-rule:nonzero;stroke:none" transform="translate(192 180)"/></g></svg>