<svg xmlns="http://www.w3.org/2000/svg" xml:space="preserve" width="320" height="144"><defs><clipPath id="a" clipPathUnits="userSpaceOnUse"><path d="M0 256h256V0H0Z"/></clipPath></defs><path d="M244 76H12v100h232zm0 104H8V72h240v108z" style="fill:#fff;fill-opacity:1;fill-rule:nonzero;stroke:none" transform="matrix(1.33333 0 0 -1.33333 -10.667 240)"/><path d="M20 168h216V84H20Zm216-88h4v92H16V80h4z" style="fill:#fff;fill-opacity:1;fill-rule:nonzero;stroke:none" transform="matrix(1.33333 0 0 -1.33333 -10.667 240)"/><path d="M0 0h-200v24H0Zm-4-40h-56v36h56zm-136 0h-56v36h56zm-60 68h-4V-4h4v-40h64v40h72v-40H0v40h4v32H0Z" style="fill:#fff;fill-opacity:1;fill-rule:nonzero;stroke:none" transform="matrix(1.33333 0 0 -1.33333 293.333 58.667)"/><g clip-path="url(#a)" transform="matrix(1.33333 0 0 -1.33333 -10.667 240)"><path d="M0 0h56v-4H0Zm56-24H0v4h56zM8-12v-4H0v8h8zm33.541-4H12v8h29.541A5.97 5.97 0 0 1 40-12c0-1.537.586-2.938 1.541-4m8.918 8H56v-8h-5.541A5.97 5.97 0 0 1 52-12a5.97 5.97 0 0 1-1.541 4M46-10a2 2 0 1 0-.001-4.001A2 2 0 0 0 46-10M-4-4v-24h64V4H-4Z" style="fill:#fff;fill-opacity:1;fill-rule:nonzero;stroke:none" transform="translate(100 124)"/><path d="M0 0c2.206 0 4-1.794 4-4S2.206-8 0-8s-4 1.795-4 4 1.794 4 4 4m0-12A8 8 0 1 1 0 4a8 8 0 0 1 0-16" style="fill:#fff;fill-opacity:1;fill-rule:nonzero;stroke:none" transform="translate(60 116)"/><path d="M0 0c2.206 0 4-1.794 4-4S2.206-8 0-8s-4 1.795-4 4 1.795 4 4 4m0-12A8 8 0 1 1 0 4a8 8 0 0 1 0-16" style="fill:#fff;fill-opacity:1;fill-rule:nonzero;stroke:none" transform="translate(196 116)"/></g></svg>