<svg xmlns="http://www.w3.org/2000/svg" xml:space="preserve" width="320.169" height="154.639"><defs><clipPath id="a" clipPathUnits="userSpaceOnUse"><path d="M0 256h256V0H0Z"/></clipPath></defs><g clip-path="url(#a)" transform="matrix(1.33333 0 0 -1.33333 -10.667 245.333)"><path d="M0 0c-6.033-.31-65.805-3.421-73.079-3.953h-49.556c-5.559.503-51.004 3.564-58.773 3.954-2.234.979-9.366 9.198-9.366 36.036 0 .065.017 5.296.518 12.01H8.835c.5-6.711.518-11.939.518-12C9.353 9.111 2.173.926 0 0m-186.681 69.353c13.641 1.693 56.196 2.693 91.907 2.694h8.127c35.712 0 78.268-1.001 91.906-2.693.861-2.424 2.155-7.239 3.091-15.933q.073-.69.139-1.374h-198.401q.067.683.141 1.374c.935 8.694 2.229 13.509 3.09 15.932M8.068 72.984c-10.935 1.925-55.418 3.063-94.715 3.063h-8.127c-39.297-.001-83.779-1.139-94.716-3.063-.941-1.842-2.953-7.005-4.259-19.135-1.006-9.354-1.025-17.724-1.025-17.807 0-30.771 9.051-39.266 12.692-40.014 8.669-.377 58.652-3.871 59.308-3.981h49.698c.695.124 65.078 3.604 73.736 3.981 3.641.748 12.693 9.243 12.693 40.019 0 .078-.02 8.448-1.027 17.802-1.305 12.131-3.317 17.293-4.258 19.135" style="fill:#fff;fill-opacity:1;fill-rule:nonzero;stroke:none" transform="translate(218.774 91.953)"/><path d="M0 0s-63.664-3.629-68.127-3.974c.071.021-6.055.028-14.418.028-17.758 0-45.596-.032-45.582-.033l-56 3.979s-24 0-24 52c0 0 0 44 12 48s100 4 100 4H-88s88 0 100-4 12-48 12-48C24 0 0 0 0 0m26.466 75.018c-2.268 17.386-6.462 26.53-13.201 28.777C1.003 107.882-78.927 108-88 108h-8.127c-9.074 0-89.003-.118-101.265-4.205-6.739-2.247-10.934-11.391-13.201-28.777-1.516-11.624-1.534-22.558-1.534-23.018 0-53.495 25.074-55.895 27.798-55.996l55.918-3.973q.143-.01.284-.01h.026c.618.001 27.927.033 45.556.033 11.049 0 13.67-.013 14.181-.021a3.6 3.6 0 0 1 .545.005c4.312.333 65.706 3.835 67.986 3.965C2.707-3.915 28-1.728 28 52c0 .46-.018 11.394-1.534 23.018" style="fill:#fff;fill-opacity:1;fill-rule:nonzero;stroke:none" transform="translate(220.127 76)"/><path d="M0 0a8 8 0 1 0 0 16A8 8 0 0 0 0 0m0 20c-6.627 0-12-5.373-12-12S-6.627-4 0-4 12 1.373 12 8 6.627 20 0 20" style="fill:#fff;fill-opacity:1;fill-rule:nonzero;stroke:none" transform="translate(56 108)"/><path d="M0 0a8 8 0 1 0 0 16A8 8 0 0 0 0 0m0 20c-6.627 0-12-5.373-12-12S-6.627-4 0-4 12 1.373 12 8 6.627 20 0 20" style="fill:#fff;fill-opacity:1;fill-rule:nonzero;stroke:none" transform="translate(196 108)"/><path d="M120 108h12v-4h-12zm-8 0h-4v8h4zm40 6v-10c0-4.411-3.589-8-8-8h-36c-4.411 0-8 3.589-8 8v16c0 4.411 3.589 8 8 8h8v-8h-12v-16h12v-4h20v12h-20v4h20v12h8c4.411 0 8-3.589 8-8zm-32 10h12v-4h-12zm24 8h-36c-6.6 0-12-5.4-12-12v-16c0-6.6 5.4-12 12-12h36c6.6 0 12 5.4 12 12v16c0 6.6-5.4 12-12 12" style="fill:#fff;fill-opacity:1;fill-rule:nonzero;stroke:none"/><path d="M0 0a2 2 0 1 0 .001 4.001A2 2 0 0 0 0 0m0 8c-3.309 0-6-2.691-6-6s2.691-6 6-6 6 2.691 6 6-2.691 6-6 6" style="fill:#fff;fill-opacity:1;fill-rule:nonzero;stroke:none" transform="translate(146 112)"/><path d="M0 0h21.117v-4h-22.45zm-1.333-8h22.45a4 4 0 0 1 4 4v4a4 4 0 0 1-4 4H0a4 4 0 0 1-3.795-2.735l-1.333-4C-5.992-5.325-4.063-8-1.333-8" style="fill:#fff;fill-opacity:1;fill-rule:nonzero;stroke:none" transform="translate(41.336 156)"/></g></svg>