<svg xmlns="http://www.w3.org/2000/svg" xml:space="preserve" width="320" height="160"><defs><clipPath id="a" clipPathUnits="userSpaceOnUse"><path d="M0 256h256V0H0Z"/></clipPath></defs><g clip-path="url(#a)" transform="matrix(1.33333 0 0 -1.33333 -10.667 250.667)"><path d="M0 0a4 4 0 0 0 4 4h224a4 4 0 0 0 4-4zm232-8H0v4h232zm0-92a8 8 0 0 0-8-8H8a8 8 0 0 0-8 8v88h232ZM228 8H4C-.411 8-4 4.411-4 0v-100c0-6.617 5.383-12 12-12h216c6.617 0 12 5.383 12 12V0c0 4.411-3.589 8-8 8" style="fill:#fff;fill-opacity:1;fill-rule:nonzero;stroke:none" transform="translate(12 180)"/><path d="M0 0a2 2 0 0 0 2 2h4a2 2 0 0 0 2-2v-4a2 2 0 0 0-2-2H2a2 2 0 0 0-2 2zm4 24a2 2 0 0 0 4 0v-4a2 2 0 0 0-4 0Zm10 2h4a2 2 0 0 0 2-2v-4a2 2 0 0 0-2-2h-4a2 2 0 0 0-2 2v4a2 2 0 0 0 2 2m12 0h4a2 2 0 0 0 2-2v-4a2 2 0 0 0-2-2h-4a2 2 0 0 0-2 2v4a2 2 0 0 0 2 2m12 0h4a2 2 0 0 0 2-2v-4a2 2 0 0 0-2-2h-4a2 2 0 0 0-2 2v4a2 2 0 0 0 2 2m12 0h4a2 2 0 0 0 2-2v-4a2 2 0 0 0-2-2h-4a2 2 0 0 0-2 2v4a2 2 0 0 0 2 2m12 0h4a2 2 0 0 0 2-2v-4a2 2 0 0 0-2-2h-4a2 2 0 0 0-2 2v4a2 2 0 0 0 2 2m12 0h4a2 2 0 0 0 2-2v-4a2 2 0 0 0-2-2h-4a2 2 0 0 0-2 2v4a2 2 0 0 0 2 2m12 0h4a2 2 0 0 0 2-2v-4a2 2 0 0 0-2-2h-4a2 2 0 0 0-2 2v4a2 2 0 0 0 2 2m12 0h4a2 2 0 0 0 2-2v-4a2 2 0 0 0-2-2h-4a2 2 0 0 0-2 2v4a2 2 0 0 0 2 2m12 0h4a2 2 0 0 0 2-2v-4a2 2 0 0 0-2-2h-4a2 2 0 0 0-2 2v4a2 2 0 0 0 2 2m12 0h4a2 2 0 0 0 2-2v-4a2 2 0 0 0-2-2h-4a2 2 0 0 0-2 2v4a2 2 0 0 0 2 2m12 0h4a2 2 0 0 0 2-2v-4a2 2 0 0 0-2-2h-4a2 2 0 0 0-2 2v4a2 2 0 0 0 2 2m12 0h4a2 2 0 0 0 2-2v-4a2 2 0 0 0-2-2h-4a2 2 0 0 0-2 2v4a2 2 0 0 0 2 2m12 0h4a2 2 0 0 0 2-2v-4a2 2 0 0 0-2-2h-4a2 2 0 0 0-2 2v4a2 2 0 0 0 2 2m12 0h4a2 2 0 0 0 2-2v-4a2 2 0 0 0-2-2h-4a2 2 0 0 0-2 2v4a2 2 0 0 0 2 2m6-18a2 2 0 0 0-2-2h-8a2 2 0 0 0-2 2v4a2 2 0 0 0 2 2h8a2 2 0 0 0 2-2zm-4-24a2 2 0 0 0-2-2h-4a2 2 0 0 0-2 2v4a2 2 0 0 0 2 2h4a2 2 0 0 0 2-2zm-14-2h-4a2 2 0 0 0-2 2v4a2 2 0 0 0 2 2h4a2 2 0 0 0 2-2v-4a2 2 0 0 0-2-2m-12 0h-8a2 2 0 0 0-2 2v4a2 2 0 0 0 2 2h8a2 2 0 0 0 2-2v-4a2 2 0 0 0-2-2m-16 0h-4a2 2 0 0 0-2 2v4a2 2 0 0 0 2 2h4a2 2 0 0 0 2-2v-4a2 2 0 0 0-2-2m-2-10a2 2 0 0 0-2-2H30a2 2 0 0 0-2 2v4a2 2 0 0 0 2 2h96a2 2 0 0 0 2-2zM22-18h-8a2 2 0 0 0-2 2v4a2 2 0 0 0 2 2h8a2 2 0 0 0 2-2v-4a2 2 0 0 0-2-2M12 0a2 2 0 0 0 2 2h4a2 2 0 0 0 2-2v-4a2 2 0 0 0-2-2h-4a2 2 0 0 0-2 2zm16 12V8a2 2 0 0 0-2-2h-4a2 2 0 0 0-2 2v4a2 2 0 0 0 2 2h4a2 2 0 0 0 2-2m12 0V8a2 2 0 0 0-2-2h-4a2 2 0 0 0-2 2v4a2 2 0 0 0 2 2h4a2 2 0 0 0 2-2m12 0V8a2 2 0 0 0-2-2h-4a2 2 0 0 0-2 2v4a2 2 0 0 0 2 2h4a2 2 0 0 0 2-2m12 0V8a2 2 0 0 0-2-2h-4a2 2 0 0 0-2 2v4a2 2 0 0 0 2 2h4a2 2 0 0 0 2-2m12 0V8a2 2 0 0 0-2-2h-4a2 2 0 0 0-2 2v4a2 2 0 0 0 2 2h4a2 2 0 0 0 2-2m12 0V8a2 2 0 0 0-2-2h-4a2 2 0 0 0-2 2v4a2 2 0 0 0 2 2h4a2 2 0 0 0 2-2m12 0V8a2 2 0 0 0-2-2h-4a2 2 0 0 0-2 2v4a2 2 0 0 0 2 2h4a2 2 0 0 0 2-2m12 0V8a2 2 0 0 0-2-2h-4a2 2 0 0 0-2 2v4a2 2 0 0 0 2 2h4a2 2 0 0 0 2-2m12 0V8a2 2 0 0 0-2-2h-4a2 2 0 0 0-2 2v4a2 2 0 0 0 2 2h4a2 2 0 0 0 2-2m12 0V8a2 2 0 0 0-2-2h-4a2 2 0 0 0-2 2v4a2 2 0 0 0 2 2h4a2 2 0 0 0 2-2m12 0V8a2 2 0 0 0-2-2h-4a2 2 0 0 0-2 2v4a2 2 0 0 0 2 2h4a2 2 0 0 0 2-2m12 0V8a2 2 0 0 0-2-2h-4a2 2 0 0 0-2 2v4a2 2 0 0 0 2 2h4a2 2 0 0 0 2-2M144-4v4a2 2 0 0 0 2 2h4a2 2 0 0 0 2-2v-4a2 2 0 0 0-2-2h-4a2 2 0 0 0-2 2m-10-2a2 2 0 0 0-2 2v4a2 2 0 0 0 2 2h4a2 2 0 0 0 2-2v-4a2 2 0 0 0-2-2zm-12 0a2 2 0 0 0-2 2v4a2 2 0 0 0 2 2h4a2 2 0 0 0 2-2v-4a2 2 0 0 0-2-2zm-10-10v4a2 2 0 0 0 2 2h4a2 2 0 0 0 2-2v-4a2 2 0 0 0-2-2h-4a2 2 0 0 0-2 2m-12 0v4a2 2 0 0 0 2 2h4a2 2 0 0 0 2-2v-4a2 2 0 0 0-2-2h-4a2 2 0 0 0-2 2m-12 0v4a2 2 0 0 0 2 2h4a2 2 0 0 0 2-2v-4a2 2 0 0 0-2-2h-4a2 2 0 0 0-2 2m-12 0v4a2 2 0 0 0 2 2h4a2 2 0 0 0 2-2v-4a2 2 0 0 0-2-2h-4a2 2 0 0 0-2 2m-12 0v4a2 2 0 0 0 2 2h4a2 2 0 0 0 2-2v-4a2 2 0 0 0-2-2h-4a2 2 0 0 0-2 2m-12 0v4a2 2 0 0 0 2 2h4a2 2 0 0 0 2-2v-4a2 2 0 0 0-2-2h-4a2 2 0 0 0-2 2m-12 0v4a2 2 0 0 0 2 2h4a2 2 0 0 0 2-2v-4a2 2 0 0 0-2-2h-4a2 2 0 0 0-2 2m-12 0v4a2 2 0 0 0 2 2h4a2 2 0 0 0 2-2v-4a2 2 0 0 0-2-2h-4a2 2 0 0 0-2 2m2 18a2 2 0 0 0 2-2v-4a2 2 0 0 0-2-2h-4a2 2 0 0 0-2 2v4a2 2 0 0 0 2 2zm12 0a2 2 0 0 0 2-2v-4a2 2 0 0 0-2-2h-4a2 2 0 0 0-2 2v4a2 2 0 0 0 2 2zm12 0a2 2 0 0 0 2-2v-4a2 2 0 0 0-2-2h-4a2 2 0 0 0-2 2v4a2 2 0 0 0 2 2zm12 0a2 2 0 0 0 2-2v-4a2 2 0 0 0-2-2h-4a2 2 0 0 0-2 2v4a2 2 0 0 0 2 2zm12 0a2 2 0 0 0 2-2v-4a2 2 0 0 0-2-2h-4a2 2 0 0 0-2 2v4a2 2 0 0 0 2 2zm12 0a2 2 0 0 0 2-2v-4a2 2 0 0 0-2-2h-4a2 2 0 0 0-2 2v4a2 2 0 0 0 2 2zm12 0a2 2 0 0 0 2-2v-4a2 2 0 0 0-2-2h-4a2 2 0 0 0-2 2v4a2 2 0 0 0 2 2zm12 0a2 2 0 0 0 2-2v-4a2 2 0 0 0-2-2h-4a2 2 0 0 0-2 2v4a2 2 0 0 0 2 2zm58-2v-4a2 2 0 0 0-2-2h-12a2 2 0 0 0-2 2v4a2 2 0 0 0 2 2h12a2 2 0 0 0 2-2M4 8v4a2 2 0 0 0 2 2h8a2 2 0 0 0 2-2V8a2 2 0 0 0-2-2H6a2 2 0 0 0-2 2m2-26H2a2 2 0 0 0-2 2v4a2 2 0 0 0 2 2h4a2 2 0 0 0 2-2v-4a2 2 0 0 0-2-2m-4-4h4c1.538 0 2.937.586 4 1.541A5.97 5.97 0 0 1 14-22h8c.933 0 1.813.221 2.602.602A5.95 5.95 0 0 1 24-24v-4c0-3.309 2.691-6 6-6h96c3.309 0 6 2.691 6 6v4c0 .783-.155 1.529-.429 2.216A6 6 0 0 1 134-20.459 5.97 5.97 0 0 1 138-22h8c1.537 0 2.937.586 4 1.541A5.97 5.97 0 0 1 154-22h4c1.537 0 2.937.586 4 1.541A5.97 5.97 0 0 1 166-22h4c3.309 0 6 2.691 6 6v4a5.97 5.97 0 0 1-1.541 4A5.97 5.97 0 0 1 176-4v4c0 .783-.155 1.529-.429 2.216C178.118 2.908 180 5.236 180 8v4a5.97 5.97 0 0 1-1.541 4A5.97 5.97 0 0 1 180 20v4c0 3.309-2.691 6-6 6h-4a5.97 5.97 0 0 1-4-1.541A5.97 5.97 0 0 1 162 30h-4a5.97 5.97 0 0 1-4-1.541A5.97 5.97 0 0 1 150 30h-4a5.97 5.97 0 0 1-4-1.541A5.97 5.97 0 0 1 138 30h-4a5.97 5.97 0 0 1-4-1.541A5.97 5.97 0 0 1 126 30h-4a5.97 5.97 0 0 1-4-1.541A5.97 5.97 0 0 1 114 30h-4a5.97 5.97 0 0 1-4-1.541A5.97 5.97 0 0 1 102 30h-4a5.97 5.97 0 0 1-4-1.541A5.97 5.97 0 0 1 90 30h-4a5.97 5.97 0 0 1-4-1.541A5.97 5.97 0 0 1 78 30h-4a5.97 5.97 0 0 1-4-1.541A5.97 5.97 0 0 1 66 30h-4a5.97 5.97 0 0 1-4-1.541A5.97 5.97 0 0 1 54 30h-4a5.97 5.97 0 0 1-4-1.541A5.97 5.97 0 0 1 42 30h-4a5.97 5.97 0 0 1-4-1.541A5.97 5.97 0 0 1 30 30h-4a5.97 5.97 0 0 1-4-1.541A5.97 5.97 0 0 1 18 30h-4a5.97 5.97 0 0 1-4-1.541A5.97 5.97 0 0 1 6 30c-3.309 0-6-2.691-6-6v-4c0-1.538.586-2.937 1.541-4A5.97 5.97 0 0 1 0 12V8c0-.783.155-1.529.429-2.216C-2.119 5.091-4 2.764-4 0v-4c0-1.537.586-2.937 1.541-4A5.97 5.97 0 0 1-4-12v-4c0-3.309 2.691-6 6-6" style="fill:#fff;fill-opacity:1;fill-rule:nonzero;stroke:none" transform="translate(20 122)"/><path d="M0 0a2 2 0 0 0 2 2h12a2 2 0 0 0 2-2v-4a2 2 0 0 0-2-2H2a2 2 0 0 0-2 2zm0-16v4a2 2 0 0 0 2 2h12a2 2 0 0 0 2-2v-4a2 2 0 0 0-2-2H2a2 2 0 0 0-2 2m0-12v4a2 2 0 0 0 2 2h12a2 2 0 0 0 2-2v-4a2 2 0 0 0-2-2H2a2 2 0 0 0-2 2m16-12a2 2 0 0 0-2-2H2a2 2 0 0 0-2 2v4a2 2 0 0 0 2 2h12a2 2 0 0 0 2-2zM2-46h12c3.309 0 6 2.691 6 6v4a5.97 5.97 0 0 1-1.541 4A5.97 5.97 0 0 1 20-28v4a5.97 5.97 0 0 1-1.541 4A5.97 5.97 0 0 1 20-16v4a5.97 5.97 0 0 1-1.541 4A5.97 5.97 0 0 1 20-4v4c0 3.309-2.691 6-6 6H2c-3.309 0-6-2.691-6-6v-4c0-1.538.586-2.937 1.541-4A5.97 5.97 0 0 1-4-12v-4c0-1.538.586-2.937 1.541-4A5.97 5.97 0 0 1-4-24v-4c0-1.537.586-2.937 1.541-4A5.97 5.97 0 0 1-4-36v-4c0-3.309 2.691-6 6-6" style="fill:#fff;fill-opacity:1;fill-rule:nonzero;stroke:none" transform="translate(208 146)"/></g></svg>