<svg xmlns="http://www.w3.org/2000/svg" xml:space="preserve" width="245.333" height="245.333"><defs><clipPath id="a" clipPathUnits="userSpaceOnUse"><path d="M0 256h256V0H0Z"/></clipPath></defs><path d="M220 220H36V36h184Zm-4-180H40v176h176z" style="fill:#fff;fill-opacity:1;fill-rule:nonzero;stroke:none" transform="matrix(1.33333 0 0 -1.33333 -48 293.333)"/><g clip-path="url(#a)" transform="matrix(1.33333 0 0 -1.33333 -48 293.333)"><path d="m0 0-1.833-.944C-11.609-5.983-23.81-18.01-34.468-33.116-39.74-40.586-52-59.502-52-73.765c0-13.589 7.933-22.718 19.739-22.718 5.788 0 12.202 2.199 18.955 6.449l-10.386-24.928L-26-120.5h52l-2.308 5.538-10.386 24.928c6.753-4.25 13.167-6.449 18.955-6.449C44.067-96.483 52-87.354 52-73.765c0 14.263-12.261 33.179-17.531 40.649C23.81-18.01 11.609-5.983 1.832-.944Zm0-4.5c19.2-9.895 48-49.475 48-69.265 0-10.85-5.776-18.718-15.739-18.718-7.415 0-17.149 4.354-28.552 15.081L20-116.5h-40l16.291 39.098c-11.403-10.727-21.136-15.081-28.552-15.081-9.963 0-15.739 7.868-15.739 18.718 0 19.79 28.8 59.37 48 69.265" style="fill:#fff;fill-opacity:1;fill-rule:nonzero;stroke:none" transform="translate(128 188.5)"/></g></svg>