<svg xmlns="http://www.w3.org/2000/svg" xml:space="preserve" width="320" height="320"><defs><clipPath id="a" clipPathUnits="userSpaceOnUse"><path d="M0 256h256V0H0Z"/></clipPath></defs><g clip-path="url(#a)" transform="matrix(1.33333 0 0 -1.33333 -10.667 330.667)"><path d="M0 0a5.267 5.267 0 0 0-5.272-5.272H-20V76.86c0 5.442-4.555 9.868-10.154 9.868h-147.692c-5.599 0-10.154-4.426-10.154-9.868V-5.272h-22.909L-232 21.091v200.364a5.27 5.27 0 0 0 5.272 5.273H-212V116.527c0-5.403 4.222-9.799 9.412-9.799h173.176c5.19 0 9.412 4.396 9.412 9.799v110.201h14.728A5.267 5.267 0 0 0 0 221.455zm-52-5.272v72.727c0 6.321-4.073 11.273-9.272 11.273h-105.456c-5.199 0-9.272-4.952-9.272-11.273V-5.272h-8V76.86c0 3.245 2.751 5.868 6.154 5.868h147.692c3.403 0 6.154-2.623 6.154-5.868V-5.272Zm-120 0v72.727c0 4.022 2.357 7.273 5.272 7.273h105.456c2.916 0 5.272-3.251 5.272-7.273V-5.272Zm148 232V116.527c0-3.207-2.419-5.799-5.412-5.799h-173.176c-2.993 0-5.412 2.592-5.412 5.799v110.201zm18.728 4h-221.456c-5.112 0-9.272-4.16-9.272-9.273V19.688l.876-1.095 21.092-26.364 1.2-1.501h207.56C-.16-9.272 4-5.112 4 0v221.455c0 5.113-4.16 9.273-9.272 9.273" style="fill:#fff;fill-opacity:1;fill-rule:nonzero;stroke:none" transform="translate(244 17.273)"/><path d="M232 220h4v-4h-4zm-4-8h12v12h-12zM88 80h28V24H88Zm-4-60h36v64H84Z" style="fill:#fff;fill-opacity:1;fill-rule:nonzero;stroke:none"/><path d="M0 0q.003 0 .005.002c.086.063 1.779 1.371 3.763 2.904l3.606 2.789-.032 14.897-.032 14.897-3.731.032-3.731.032V17.72C-.152 3.651-.121 0 0 0" style="fill:#fff;fill-opacity:1;fill-rule:nonzero;stroke:none" transform="translate(137.302 181.346)"/><path d="M0 0h12.848l2.557-1.739 2.557-1.739.063-23.625.063-23.624.915-.774.915-.774-.351-.272c-1.944-1.504-31.287-23.931-31.543-24.108-.092-.064-.157-.107-.191-.107-.086 0 .04.285.473 1.232l.624 1.362v72.292l-.888.938-.889.938Zm22.662-1.856 2.254 1.49h21.912l1.837-1.556 1.836-1.556v-46.006l-7.355-5.857c-4.046-3.222-7.39-5.869-7.429-5.884h-.001c-.057 0-1.302.929-2.782 2.075h-.001a6301 6301 0 0 1-7.618 5.883l-4.906 3.783v23.069l-.001 23.068zM53.07-4.133l.09.932 1.804 1.539 1.805 1.54h21.852l2.309-1.531 2.31-1.531v-11.984c0-6.591-.038-16.975-.084-23.074l-.083-11.09-2.143-1.657c-6.021-4.657-13.008-10.027-13.045-10.027-.023 0-1.051.804-2.283 1.787s-4.51 3.593-7.285 5.803-5.071 4.059-5.105 4.111c-.1.157-.239 44.184-.142 45.182M91.516-.122c4.139 0 7.526-.021 7.526-.046 0-.026.539-1.962 1.198-4.302l1.908-6.787c.39-1.392.739-2.532.776-2.532.037.001.386 1.059.775 2.35l2.06 6.833 1.354 4.484h16.04l-1.584-1.232-1.584-1.231v-35.853c0-32.01.021-35.96.196-36.859.239-1.223.832-2.979 1.332-3.945.203-.392.35-.733.325-.757l-.004-.001c-.052 0-.507.318-1.039.725-1.133.871-7.047 5.406-10.75 8.244l-2.478 1.9.754.714.754.713v16.544c0 9.075-.033 16.473-.073 16.474v-.001c-.039-.038-.201-.61-.359-1.271s-.798-3.26-1.422-5.777c-.625-2.517-1.628-6.58-2.23-9.03s-1.443-5.855-1.869-7.566l-.775-3.112-.28 1.159c-.154.638-1.521 6.596-3.036 13.241-3.738 16.388-3.639 15.962-3.732 16.169l-.001.001c-.045 0-.096-6.46-.114-14.441l-.031-14.624-.47.364c-1.1.852-10.632 8.718-10.663 8.8-.019.049.361.432.847.852l.881.762v46.501l-.878 1.212c-.483.666-.878 1.238-.878 1.269s3.385.056 7.524.056M-15.07-3.469v-69.827l-.261-.568c-.675-1.476-1.441-3.149-.222-5.049l1.18-1.839 2.206-.01c1.288 0 2.146.595 2.47.819.505.35 30.385 23.214 31.672 24.201l.898-.693c2.696-2.078 6.121-4.724 7.611-5.878 3.334-2.58 3.762-2.912 5.232-2.912h.704l.664.242c.672.237.672.237 8.553 6.512l6.304 5.02c.839-.68 2.065-1.655 3.885-3.105l7.283-5.801c3.019-2.408 3.335-2.659 4.776-2.659 1.388 0 1.388 0 6.716 4.096 2.283 1.755 5.187 3.993 7.964 6.139.855-.726 2.075-1.733 3.84-3.19 2.286-1.886 5.184-4.266 5.829-4.765l.469-.364 6.432-4.983.006 2.879 3.149-13.026 1.694 6.805 1.149-.881 2.479-1.9c3.701-2.837 9.614-7.371 10.748-8.242 1.085-.833 2.021-1.552 3.474-1.552h1.621l1.167 1.128c1.448 1.408 1.595 3.247.443 5.471-.288.555-.755 1.882-.944 2.804-.125 1.242-.136 9.987-.136 36.159v33.896l.04.031 1.583 1.232 9.204 7.157h-30.671l-.857-2.844-.224-.74-.137.502-.009-.003c-.294 1.186-1.259 3.01-4.408 3.056-.39.006-.954.011-1.65.015-1.37.009-3.261.014-5.34.014-2.08 0-3.973-.006-5.344-.016-.699-.006-1.265-.012-1.658-.019-1.471-.026-2.464-.44-3.134-.994l-.548.363-1.005.666H55.295l-1.122-.957-1.805-1.54-.704-.601-.414.35-1.836 1.556-1.119.948H23.713l-1.004-.663-2.253-1.491-1.354-.895-1.448.984-2.558 1.739L14.079 4h-36.225l6.395-6.751z" style="fill:#fff;fill-opacity:1;fill-rule:nonzero;stroke:none" transform="translate(72.847 228)"/><path d="M0 0c1.876 1.519 3.481 2.847 3.568 2.952.124.152.151 3.279.125 15.026l-.031 14.833-3.606.032-3.606.032V15.057c0-9.801.031-17.819.07-17.819.038 0 1.604 1.243 3.48 2.762" style="fill:#fff;fill-opacity:1;fill-rule:nonzero;stroke:none" transform="translate(76.363 184.023)"/><path d="M0 0c.017 0 .031 8.013.031 17.811v17.816h-7.37l-.076-.274c-.042-.151-.076-6.848-.077-14.882l-.002-14.606.596-.492C-6.252 4.84-.052.01 0 0" style="fill:#fff;fill-opacity:1;fill-rule:nonzero;stroke:none" transform="translate(112.162 181.024)"/></g></svg>