<svg xmlns="http://www.w3.org/2000/svg" xml:space="preserve" width="320" height="320"><defs><clipPath id="a" clipPathUnits="userSpaceOnUse"><path d="M0 256h256V0H0Z"/></clipPath></defs><g clip-path="url(#a)" transform="matrix(1.33333 0 0 -1.33333 -10.667 330.667)"><path d="M0 0c-15.439 0-28 12.561-28 28s12.561 28 28 28 28-12.561 28-28S15.439 0 0 0m120 148h-240V-84c0-4.411 3.589-8 8-8h88v4-4h48v4-4h88c4.411 0 8 3.589 8 8V84h-8v4h8v56zM0-4c17.673 0 32 14.327 32 32S17.673 60 0 60s-32-14.327-32-32S-17.673-4 0-4m116 148V92h-8V80h8V-84a4 4 0 0 0-4-4H28a4 4 0 0 1-8 0h-40a4 4 0 0 1-8 0h-84a4 4 0 0 0-4 4v228z" style="fill:#fff;fill-opacity:1;fill-rule:nonzero;stroke:none" transform="translate(128 100)"/><path d="M0 0h-200c-4.411 0-8-3.589-8-8v-44c0-4.411 3.589-8 8-8H0c4.411 0 8 3.589 8 8v44c0 4.411-3.589 8-8 8m0-4a4 4 0 0 0 4-4v-44a4 4 0 0 0-4-4h-200a4 4 0 0 0-4 4v44a4 4 0 0 0 4 4z" style="fill:#fff;fill-opacity:1;fill-rule:nonzero;stroke:none" transform="translate(228 236)"/><path d="M0 0c-8.822 0-16-7.178-16-16v-36c0-8.822 7.178-16 16-16s16 7.178 16 16v36C16-7.178 8.822 0 0 0m0-4c6.627 0 12-5.373 12-12v-36c0-6.627-5.373-12-12-12s-12 5.373-12 12v36C-12-9.373-6.627-4 0-4" style="fill:#fff;fill-opacity:1;fill-rule:nonzero;stroke:none" transform="translate(128 84)"/><path d="M0 0c-5.514 0-10-4.486-10-10s4.486-10 10-10 10 4.486 10 10S5.514 0 0 0m0-4a6 6 0 0 0 0-12A6 6 0 0 0 0-4" style="fill:#fff;fill-opacity:1;fill-rule:nonzero;stroke:none" transform="translate(170 128)"/><path d="M0 0c-13.255 0-24-10.745-24-24s10.745-24 24-24 24 10.745 24 24S13.255 0 0 0m0-4c11.028 0 20-8.972 20-20S11.028-44 0-44s-20 8.972-20 20S-11.028-4 0-4" style="fill:#fff;fill-opacity:1;fill-rule:nonzero;stroke:none" transform="translate(128 152)"/></g></svg>