<?xml version="1.0" encoding="UTF-8" standalone="no"?>
<svg
   xmlns:dc="http://purl.org/dc/elements/1.1/"
   xmlns:cc="http://creativecommons.org/ns#"
   xmlns:rdf="http://www.w3.org/1999/02/22-rdf-syntax-ns#"
   xmlns:svg="http://www.w3.org/2000/svg"
   xmlns="http://www.w3.org/2000/svg"
   viewBox="0 0 202.66665 320"
   height="320"
   width="202.66666"
   xml:space="preserve"
   id="svg2"
   version="1.1"><metadata
     id="metadata8"><rdf:RDF><cc:Work
         rdf:about=""><dc:format>image/svg+xml</dc:format><dc:type
           rdf:resource="http://purl.org/dc/dcmitype/StillImage" /></cc:Work></rdf:RDF></metadata><defs
     id="defs6"><clipPath
       id="clipPath18"
       clipPathUnits="userSpaceOnUse"><path
         id="path16"
         d="M 0,256 H 256 V 0 H 0 Z" /></clipPath></defs><g
     transform="matrix(1.3333333,0,0,-1.3333333,-69.333332,330.66666)"
     id="g10"><g
       id="g12"><g
         clip-path="url(#clipPath18)"
         id="g14"><g
           transform="translate(200,13)"
           id="g20"><path
             id="path22"
             style="fill:#ffffff;fill-opacity:1;fill-rule:nonzero;stroke:none"
             d="m 0,0 c 0,-0.553 -0.447,-1 -1,-1 h -142 c -0.552,0 -1,0.447 -1,1 v 230 c 0,0.552 0.448,1 1,1 h 6 c 0.552,0 1,-0.448 1,-1 v -1 H -8 v 1 c 0,0.552 0.447,1 1,1 h 6 c 0.553,0 1,-0.448 1,-1 z m -1,235 h -6 c -1.633,0 -3.085,-0.786 -3.998,-2 h -122.004 c -0.914,1.214 -2.366,2 -3.998,2 h -6 c -2.757,0 -5,-2.243 -5,-5 V 0 c 0,-2.757 2.243,-5 5,-5 H -1 c 2.757,0 5,2.243 5,5 v 230 c 0,2.757 -2.243,5 -5,5" /></g><path
           id="path24"
           style="fill:#ffffff;fill-opacity:1;fill-rule:nonzero;stroke:none"
           d="M 64,232 H 192 V 200 H 64 Z M 192,84 H 64 v 112 h 128 z m 0,-60 H 64 v 56 h 128 z m 3,212 H 61 c -0.552,0 -1,-0.448 -1,-1 V 200 196 84 80 21 c 0,-0.553 0.448,-1 1,-1 h 134 c 0.553,0 1,0.447 1,1 v 59 4 112 4 35 c 0,0.552 -0.447,1 -1,1" /></g></g></g></svg>