<svg xmlns="http://www.w3.org/2000/svg" xml:space="preserve" width="309.333" height="154.667"><defs><clipPath id="a" clipPathUnits="userSpaceOnUse"><path d="M0 256h256V0H0Z"/></clipPath></defs><g clip-path="url(#a)" transform="matrix(1.33333 0 0 -1.33333 -16 245.333)"><path d="M0 0a4 4 0 0 0-4-4h-216a4 4 0 0 0-4 4v100a4 4 0 0 0 4 4H-4a4 4 0 0 0 4-4zm-4 108h-216c-4.411 0-8-3.589-8-8V0c0-4.411 3.589-8 8-8H-4C.411-8 4-4.411 4 0v100c0 4.411-3.589 8-8 8" style="fill:#fff;fill-opacity:1;fill-rule:nonzero;stroke:none" transform="translate(240 76)"/><path d="M24 164h208v-48H24Zm208-80H24v12h208ZM24 112h208v-12H24Zm0 60h208v-4H24Zm0 4h-4V80h216v96h-4z" style="fill:#fff;fill-opacity:1;fill-rule:nonzero;stroke:none"/></g></svg>