<?xml version="1.0" encoding="UTF-8" standalone="no"?>
<svg
   xmlns:dc="http://purl.org/dc/elements/1.1/"
   xmlns:cc="http://creativecommons.org/ns#"
   xmlns:rdf="http://www.w3.org/1999/02/22-rdf-syntax-ns#"
   xmlns:svg="http://www.w3.org/2000/svg"
   xmlns="http://www.w3.org/2000/svg"
   viewBox="0 0 309.33331 234.66665"
   height="234.66666"
   width="309.33331"
   xml:space="preserve"
   id="svg2"
   version="1.1"><metadata
     id="metadata8"><rdf:RDF><cc:Work
         rdf:about=""><dc:format>image/svg+xml</dc:format><dc:type
           rdf:resource="http://purl.org/dc/dcmitype/StillImage" /></cc:Work></rdf:RDF></metadata><defs
     id="defs6"><clipPath
       id="clipPath18"
       clipPathUnits="userSpaceOnUse"><path
         id="path16"
         d="M 0,256 H 256 V 0 H 0 Z" /></clipPath></defs><g
     transform="matrix(1.3333333,0,0,-1.3333333,-16,287.99999)"
     id="g10"><g
       id="g12"><g
         clip-path="url(#clipPath18)"
         id="g14"><path
           id="path20"
           style="fill:#ffffff;fill-opacity:1;fill-rule:nonzero;stroke:none"
           d="m 240,72 h -56 v 112 h 56 z M 76,44 v 26 30 H 180 V 70 44 Z M 16,184 H 72 V 72 H 16 Z m 164,4 H 76 v 24 H 180 Z M 76,184 H 180 V 104 H 76 Z m 166,4 h -58 v 24 4 H 180 76 72 v -4 -24 H 14 c -1.104,0 -2,-0.896 -2,-2 V 70 c 0,-1.104 0.896,-2 2,-2 H 72 V 44 40 h 4 104 4 v 4 24 h 58 c 1.104,0 2,0.896 2,2 v 116 c 0,1.104 -0.896,2 -2,2" /><path
           id="path22"
           style="fill:#ffffff;fill-opacity:1;fill-rule:nonzero;stroke:none"
           d="M 168,112 H 88 v 60 h 80 z m 2,64 H 86 c -1.104,0 -2,-0.896 -2,-2 v -64 c 0,-1.104 0.896,-2 2,-2 h 84 c 1.104,0 2,0.896 2,2 v 64 c 0,1.104 -0.896,2 -2,2" /><path
           id="path24"
           style="fill:#ffffff;fill-opacity:1;fill-rule:nonzero;stroke:none"
           d="m 168,56 h -8 v 32 h 8 z m -68,32 h 56 V 56 h -56 z m -12,0 h 8 V 56 h -8 z m 8,4 H 84 V 52 h 12 64 12 v 40 h -12 z" /><path
           id="path26"
           style="fill:#ffffff;fill-opacity:1;fill-rule:nonzero;stroke:none"
           d="M 100,200 H 88 v -4 h 12 z" /><path
           id="path28"
           style="fill:#ffffff;fill-opacity:1;fill-rule:nonzero;stroke:none"
           d="m 168,200 h -12 v -4 h 12 z" /><path
           id="path30"
           style="fill:#ffffff;fill-opacity:1;fill-rule:nonzero;stroke:none"
           d="m 120,200 h -8 v -4 h 8 z" /><path
           id="path32"
           style="fill:#ffffff;fill-opacity:1;fill-rule:nonzero;stroke:none"
           d="m 144,200 h -8 v -4 h 8 z" /><path
           id="path34"
           style="fill:#ffffff;fill-opacity:1;fill-rule:nonzero;stroke:none"
           d="m 48,168 h -4 v 4 h 4 z m 4,8 H 40 v -12 h 12 z" /><path
           id="path36"
           style="fill:#ffffff;fill-opacity:1;fill-rule:nonzero;stroke:none"
           d="m 48,152 h -4 v 4 h 4 z m 4,8 H 40 v -12 h 12 z" /><path
           id="path38"
           style="fill:#ffffff;fill-opacity:1;fill-rule:nonzero;stroke:none"
           d="m 48,136 h -4 v 4 h 4 z m 4,8 H 40 v -12 h 12 z" /><path
           id="path40"
           style="fill:#ffffff;fill-opacity:1;fill-rule:nonzero;stroke:none"
           d="m 48,116 h -4 v 4 h 4 z m 4,8 H 40 v -12 h 12 z" /><path
           id="path42"
           style="fill:#ffffff;fill-opacity:1;fill-rule:nonzero;stroke:none"
           d="m 56,104 h 4 v -4 h -4 z m -4,-8 h 12 v 12 H 52 Z" /><path
           id="path44"
           style="fill:#ffffff;fill-opacity:1;fill-rule:nonzero;stroke:none"
           d="m 36,100 h -4 v 4 h 4 z m 4,8 H 28 V 96 h 12 z" /><path
           id="path46"
           style="fill:#ffffff;fill-opacity:1;fill-rule:nonzero;stroke:none"
           d="m 44,88 h 4 V 84 H 44 Z M 40,80 H 52 V 92 H 40 Z" /><path
           id="path48"
           style="fill:#ffffff;fill-opacity:1;fill-rule:nonzero;stroke:none"
           d="m 212,168 h -4 v 4 h 4 z m 4,8 h -12 v -12 h 12 z" /><path
           id="path50"
           style="fill:#ffffff;fill-opacity:1;fill-rule:nonzero;stroke:none"
           d="m 220,156 h 4 v -4 h -4 z m -4,-8 h 12 v 12 h -12 z" /><path
           id="path52"
           style="fill:#ffffff;fill-opacity:1;fill-rule:nonzero;stroke:none"
           d="m 200,152 h -4 v 4 h 4 z m 4,8 h -12 v -12 h 12 z" /><path
           id="path54"
           style="fill:#ffffff;fill-opacity:1;fill-rule:nonzero;stroke:none"
           d="m 208,140 h 4 v -4 h -4 z m -4,-8 h 12 v 12 h -12 z" /><path
           id="path56"
           style="fill:#ffffff;fill-opacity:1;fill-rule:nonzero;stroke:none"
           d="m 208,120 h 4 v -4 h -4 z m -4,-8 h 12 v 12 h -12 z" /><path
           id="path58"
           style="fill:#ffffff;fill-opacity:1;fill-rule:nonzero;stroke:none"
           d="m 208,104 h 4 v -4 h -4 z m -4,-8 h 12 v 12 h -12 z" /><path
           id="path60"
           style="fill:#ffffff;fill-opacity:1;fill-rule:nonzero;stroke:none"
           d="m 208,88 h 4 v -4 h -4 z m -4,-8 h 12 v 12 h -12 z" /></g></g></g></svg>