<svg xmlns="http://www.w3.org/2000/svg" xml:space="preserve" width="320" height="266.667"><defs><clipPath id="a" clipPathUnits="userSpaceOnUse"><path d="M0 256h256V0H0Z"/></clipPath></defs><g clip-path="url(#a)" transform="matrix(1.33333 0 0 -1.33333 -10.667 304)"><path d="M0 0a4 4 0 0 1-5.265 3.795L-16 .216V104l16-4zm0-60-16-28v24c.425 0 .852.068 1.265.205l12 4A4 4 0 0 1 0-56Zm-212-4h192v-24h-192zm-20 4v4a4 4 0 0 1 2.735-3.795l12-4c.413-.137.84-.205 1.265-.205v-24zm0 160 16 4V.216l-10.735 3.579A4 4 0 0 1-232 0Zm212 0h-192v4h192zm4-104 12 4v-56l-12-4zm-196 0h154a4 4 0 0 1-4-4v-12h-10a4 4 0 0 1-4-4v-12a4 4 0 0 1 4-4h10v-12a4 4 0 0 1 4-4h20a4 4 0 0 1 4 4v12h10a4 4 0 0 1 4 4v-24h-192zm-4-56-12 4V0l12-4zm116 92h-88v44h88zm-112 48h24a4 4 0 0 1-4-4V32a4 4 0 0 1 4-4h88a4 4 0 0 1 4 4v44a4 4 0 0 1-4 4h80V0h-192zm192 12h-192v4h192zm0-8h-192v4h192ZM-34-20v12a4 4 0 0 1-4 4h18v-20a4 4 0 0 1-4 4zm-4-16h-6v12h20v-12zm-20-4h20v-12h-20zm0 16h6v-12h-20v12zm20 4h-20v12h20zM.97 103.881l-16 4A4 4 0 0 1-16 108h-200a4 4 0 0 1-.97-.119l-16-4A4 4 0 0 1-236 100V-60c0-.696.182-1.38.527-1.985l16-28A4 4 0 0 1-216-92h200a4 4 0 0 1 3.473 2.015l16 28C3.818-61.38 4-60.696 4-60v160a4 4 0 0 1-3.03 3.881" style="fill:#fff;fill-opacity:1;fill-rule:nonzero;stroke:none" transform="translate(244 120)"/><path d="M136 172H64v16h72zm4 20H60v-24h80z" style="fill:#fff;fill-opacity:1;fill-rule:nonzero;stroke:none"/><path d="M0 0h-16a4 4 0 0 1 4 4v12a4 4 0 0 1-4 4 4 4 0 0 1 4 4v12a4 4 0 0 1-4 4H0Zm-36 0a4 4 0 0 1 4 4 4 4 0 0 1 4-4zm-24 0v40h12a4 4 0 0 1-4-4V24a4 4 0 0 1 4-4 4 4 0 0 1-4-4V4a4 4 0 0 1 4-4zm36 36h8V24h-8zm-20-12h-4v12h4zm8 0h-4v12h4zm8 0h-4v12h4zm-8-20h-12v12h12zm4 12a4 4 0 0 1-4 4h8a4 4 0 0 1-4-4m16-12h-12v12h12zM0 44h-60a4 4 0 0 1-4-4V0a4 4 0 0 1 4-4H0a4 4 0 0 1 4 4v40a4 4 0 0 1-4 4" style="fill:#fff;fill-opacity:1;fill-rule:nonzero;stroke:none" transform="translate(160 68)"/><path d="M80 80h-8v20h8zm-24 20h12V80H56Zm-12 0h8V80h-8zm36 4H44a4 4 0 0 1-4-4V80a4 4 0 0 1 4-4h36a4 4 0 0 1 4 4v20a4 4 0 0 1-4 4" style="fill:#fff;fill-opacity:1;fill-rule:nonzero;stroke:none"/></g></svg>