<?xml version="1.0" encoding="UTF-8" standalone="no"?>
<svg
   xmlns:dc="http://purl.org/dc/elements/1.1/"
   xmlns:cc="http://creativecommons.org/ns#"
   xmlns:rdf="http://www.w3.org/1999/02/22-rdf-syntax-ns#"
   xmlns:svg="http://www.w3.org/2000/svg"
   xmlns="http://www.w3.org/2000/svg"
   viewBox="0 0 320 266.66665"
   height="266.66666"
   width="320"
   xml:space="preserve"
   id="svg2"
   version="1.1"><metadata
     id="metadata8"><rdf:RDF><cc:Work
         rdf:about=""><dc:format>image/svg+xml</dc:format><dc:type
           rdf:resource="http://purl.org/dc/dcmitype/StillImage" /></cc:Work></rdf:RDF></metadata><defs
     id="defs6"><clipPath
       id="clipPath18"
       clipPathUnits="userSpaceOnUse"><path
         id="path16"
         d="M 0,256 H 256 V 0 H 0 Z" /></clipPath></defs><g
     transform="matrix(1.3333333,0,0,-1.3333333,-10.666666,303.99999)"
     id="g10"><g
       id="g12"><g
         clip-path="url(#clipPath18)"
         id="g14"><g
           transform="translate(244,120)"
           id="g20"><path
             id="path22"
             style="fill:#ffffff;fill-opacity:1;fill-rule:nonzero;stroke:none"
             d="M 0,0 C 0,1.286 -0.618,2.493 -1.661,3.245 -2.351,3.742 -3.171,4 -4,4 -4.425,4 -4.852,3.932 -5.265,3.795 L -16,0.216 V 104 l 16,-4 z m 0,-60 -16,-28 v 24 0 c 0.425,0 0.852,0.068 1.265,0.205 l 12,4 C -1.102,-59.25 0,-57.722 0,-56 Z m -212,-4 h 192 v -24 h -192 z m -20,4 v 4 c 0,-1.722 1.102,-3.25 2.735,-3.795 l 12,-4 c 0.413,-0.137 0.84,-0.205 1.265,-0.205 v 0 -24 z m 0,160 16,4 V 0.216 l -10.735,3.579 C -227.148,3.932 -227.575,4 -228,4 -228.829,4 -229.649,3.742 -230.339,3.245 -231.382,2.493 -232,1.286 -232,0 Z m 212,0 h -192 v 4 h 192 z m 4,-104 12,4 v -56 l -12,-4 z m -196,0 h 154 c -2.209,0 -4,-1.791 -4,-4 v -12 h -10 c -2.209,0 -4,-1.791 -4,-4 v -12 c 0,-2.209 1.791,-4 4,-4 h 10 v -12 c 0,-2.209 1.791,-4 4,-4 h 20 c 2.209,0 4,1.791 4,4 v 12 h 10 c 2.209,0 4,1.791 4,4 v -24 h -192 z m -4,-56 -12,4 V 0 l 12,-4 z m 116,92 h -88 v 44 h 88 z m -112,48 h 24 c -2.209,0 -4,-1.791 -4,-4 V 32 c 0,-2.209 1.791,-4 4,-4 h 88 c 2.209,0 4,1.791 4,4 v 44 c 0,2.209 -1.791,4 -4,4 h 80 V 0 h -192 z m 192,12 h -192 v 4 h 192 z m 0,-8 h -192 v 4 H -20 Z M -34,-20 v 12 c 0,2.209 -1.791,4 -4,4 h 18 v -20 c 0,2.209 -1.791,4 -4,4 z m -4,-16 h -6 v 12 h 6 14 v -12 z m -20,-4 h 6 8 6 v -12 h -20 z m 0,16 h 6 v -12 h -6 -14 v 12 z m 20,4 h -6 -8 -6 v 12 h 20 z m 38.97,123.881 -16,4 c -0.32,0.08 -0.646,0.119 -0.97,0.119 0,0 0,0 -0.001,0 H -20 h -192 -3.999 c -0.001,0 -0.001,0 -0.001,0 -0.324,0 -0.65,-0.039 -0.97,-0.119 l -16,-4 C -234.751,103.435 -236,101.836 -236,100 V -60 c 0,-0.696 0.182,-1.38 0.527,-1.985 l 16,-28 c 0.725,-1.268 2.063,-2.015 3.473,-2.015 0.002,0 0.003,0 0.005,0 h 3.995 192 3.995 c 0.002,0 0.003,0 0.005,0 1.41,0 2.748,0.747 3.473,2.015 l 16,28 C 3.818,-61.38 4,-60.696 4,-60 v 160 c 0,1.836 -1.249,3.435 -3.03,3.881" /></g><path
           id="path24"
           style="fill:#ffffff;fill-opacity:1;fill-rule:nonzero;stroke:none"
           d="M 136,172 H 64 v 16 h 72 z m 4,20 H 60 v -24 h 80 z" /><g
           transform="translate(160,68)"
           id="g26"><path
             id="path28"
             style="fill:#ffffff;fill-opacity:1;fill-rule:nonzero;stroke:none"
             d="m 0,0 h -16 c 2.209,0 4,1.791 4,4 v 12 c 0,2.209 -1.791,4 -4,4 2.209,0 4,1.791 4,4 v 12 c 0,2.209 -1.791,4 -4,4 H 0 Z m -36,0 c 2.209,0 4,1.791 4,4 0,-2.209 1.791,-4 4,-4 z m -24,0 v 40 h 12 c -2.209,0 -4,-1.791 -4,-4 V 24 c 0,-2.209 1.791,-4 4,-4 -2.209,0 -4,-1.791 -4,-4 V 4 c 0,-2.209 1.791,-4 4,-4 z m 36,36 h 8 V 24 h -8 z M -44,24 h -4 v 12 h 4 z m 8,0 h -4 v 12 h 4 z m 8,0 h -4 v 12 h 4 z M -36,4 h -12 v 12 h 12 z m 4,12 c 0,2.209 -1.791,4 -4,4 h 8 c -2.209,0 -4,-1.791 -4,-4 M -16,4 h -12 v 12 h 12 z M 0,44 h -60 c -2.209,0 -4,-1.791 -4,-4 V 0 c 0,-2.209 1.791,-4 4,-4 H 0 c 2.209,0 4,1.791 4,4 v 40 c 0,2.209 -1.791,4 -4,4" /></g><path
           id="path30"
           style="fill:#ffffff;fill-opacity:1;fill-rule:nonzero;stroke:none"
           d="m 80,80 h -8 v 20 h 8 z M 56,100 H 68 V 80 H 56 Z m -12,0 h 8 V 80 h -8 z m 36,4 H 68 56 44 c -2.209,0 -4,-1.791 -4,-4 V 80 c 0,-2.209 1.791,-4 4,-4 h 12 12 12 c 2.209,0 4,1.791 4,4 v 20 c 0,2.209 -1.791,4 -4,4" /></g></g></g></svg>