<svg xmlns="http://www.w3.org/2000/svg" xml:space="preserve" width="320" height="112"><defs><clipPath id="a" clipPathUnits="userSpaceOnUse"><path d="M0 256h256V0H0Z"/></clipPath></defs><g clip-path="url(#a)" transform="matrix(1.33333 0 0 -1.33333 -10.667 224)"><path d="M0 0v-12a4 4 0 0 0-4-4h-80v-6.534c0-3.172-1.587-5.987-4-7.706V-20h-24v-12h-8v12h-24v-10.24c-2.414 1.719-4 4.534-4 7.706V-16h-80a4 4 0 0 0-4 4v48a4 4 0 0 0 4 4h63.843c.087 0 .157.07.157.157A3.844 3.844 0 0 0-160.157 44h88.314A3.844 3.844 0 0 0-68 40.157c0-.087.07-.157.157-.157H-4a4 4 0 0 0 4-4zm-7.8-20.19-72.264-3.613c.039.418.064.84.064 1.269V-20h73.187a4 4 0 0 0-.987-.19M-92-28h-4v4h4zm-12 0h-4v4h4zm-20 0h-4v4h4zm-12 0h-4v4h4zm-88.2 7.81a4 4 0 0 0-.986.19H-152v-2.534c0-.429.025-.851.064-1.269zM-4 44h-61.008a7.85 7.85 0 0 1-6.835 4h-88.314a7.85 7.85 0 0 1-6.835-4H-228c-4.411 0-8-3.589-8-8v-48c0-3.192 1.884-5.946 4.595-7.229a8 8 0 0 1 7.006-4.956l73.502-3.675c2.068-4.783 6.829-8.14 12.363-8.14h45.068c5.533 0 10.294 3.357 12.362 8.14l73.503 3.675a8 8 0 0 1 7.006 4.956C2.115-17.946 4-15.192 4-12v48c0 4.411-3.589 8-8 8" style="fill:#fff;fill-opacity:1;fill-rule:nonzero;stroke:none" transform="translate(244 120)"/><path d="M0 0h-84c-1.1 0-2-.9-2-2s.9-2 2-2H0c1.1 0 2 .9 2 2s-.9 2-2 2" style="fill:#fff;fill-opacity:1;fill-rule:nonzero;stroke:none" transform="translate(170 160)"/><path d="M20 152h32v-12H20Zm36-16v20H16v-20h36z" style="fill:#fff;fill-opacity:1;fill-rule:nonzero;stroke:none"/><path d="M0 0h-52c-2.2 0-4 1.8-4 4s1.8 4 4 4H0c2.2 0 4-1.8 4-4S2.2 0 0 0m0 12h-52c-4.411 0-8-3.589-8-8s3.589-8 8-8H0C4.411-4 8-.411 8 4s-3.589 8-8 8" style="fill:#fff;fill-opacity:1;fill-rule:nonzero;stroke:none" transform="translate(156 116)"/><path d="M0 0a2 2 0 1 0 4.001-.001A2 2 0 0 0 0 0m8 0c0 3.3-2.7 6-6 6s-6-2.7-6-6 2.7-6 6-6 6 2.7 6 6" style="fill:#fff;fill-opacity:1;fill-rule:nonzero;stroke:none" transform="translate(100 142)"/><path d="M0 0a2 2 0 1 0 .001 4.001A2 2 0 0 0 0 0m0 8c-3.3 0-6-2.7-6-6s2.7-6 6-6 6 2.7 6 6-2.7 6-6 6" style="fill:#fff;fill-opacity:1;fill-rule:nonzero;stroke:none" transform="translate(190 144)"/><path d="M0 0c-6.627 0-12 5.373-12 12s5.373 12 12 12 12-5.373 12-12S6.627 0 0 0m16 12c0 8.822-7.178 16-16 16s-16-7.178-16-16S-8.822-4 0-4s16 7.178 16 16" style="fill:#fff;fill-opacity:1;fill-rule:nonzero;stroke:none" transform="translate(28 108)"/><path d="M0 0a4 4 0 1 0 0 8 4 4 0 0 0 0-8m0 12c-4.411 0-8-3.589-8-8s3.589-8 8-8S8-.411 8 4s-3.589 8-8 8" style="fill:#fff;fill-opacity:1;fill-rule:nonzero;stroke:none" transform="translate(28 116)"/><path d="M0 0c-6.627 0-12 5.373-12 12s5.373 12 12 12 12-5.373 12-12S6.627 0 0 0m16 12c0 8.822-7.178 16-16 16s-16-7.178-16-16S-8.822-4 0-4s16 7.178 16 16" style="fill:#fff;fill-opacity:1;fill-rule:nonzero;stroke:none" transform="translate(68 108)"/><path d="M0 0a4 4 0 1 0 0 8 4 4 0 0 0 0-8m0 12c-4.411 0-8-3.589-8-8s3.589-8 8-8S8-.411 8 4s-3.589 8-8 8" style="fill:#fff;fill-opacity:1;fill-rule:nonzero;stroke:none" transform="translate(68 116)"/><path d="M0 0c-6.627 0-12 5.373-12 12s5.373 12 12 12 12-5.373 12-12S6.627 0 0 0m16 12c0 8.822-7.178 16-16 16s-16-7.178-16-16S-8.822-4 0-4s16 7.178 16 16" style="fill:#fff;fill-opacity:1;fill-rule:nonzero;stroke:none" transform="translate(188 108)"/><path d="M0 0a4 4 0 1 0 0 8 4 4 0 0 0 0-8m0 12c-4.411 0-8-3.589-8-8s3.589-8 8-8S8-.411 8 4s-3.589 8-8 8" style="fill:#fff;fill-opacity:1;fill-rule:nonzero;stroke:none" transform="translate(188 116)"/><path d="M0 0c-6.627 0-12 5.373-12 12s5.373 12 12 12 12-5.373 12-12S6.627 0 0 0m0 28c-8.822 0-16-7.178-16-16S-8.822-4 0-4s16 7.178 16 16S8.822 28 0 28" style="fill:#fff;fill-opacity:1;fill-rule:nonzero;stroke:none" transform="translate(228 108)"/><path d="M0 0a4 4 0 1 0 0 8 4 4 0 0 0 0-8m0 12c-4.411 0-8-3.589-8-8s3.589-8 8-8S8-.411 8 4s-3.589 8-8 8" style="fill:#fff;fill-opacity:1;fill-rule:nonzero;stroke:none" transform="translate(228 116)"/><path d="M0 0a2 2 0 1 0 4.001-.001A2 2 0 0 0 0 0m10 2a2 2 0 1 0-.001-4.001A2 2 0 0 0 10 2m0-8c3.309 0 6 2.691 6 6s-2.691 6-6 6H2c-3.309 0-6-2.691-6-6s2.691-6 6-6z" style="fill:#fff;fill-opacity:1;fill-rule:nonzero;stroke:none" transform="translate(122 148)"/><path d="M0 0c-1.1 0-2-.9-2-2v-4c0-1.1.9-2 2-2s2 .9 2 2v4c0 1.1-.9 2-2 2" style="fill:#fff;fill-opacity:1;fill-rule:nonzero;stroke:none" transform="translate(226 148)"/><path d="M24 144h4v4h-4z" style="fill:#fff;fill-opacity:1;fill-rule:nonzero;stroke:none"/></g></svg>