<svg xmlns="http://www.w3.org/2000/svg" xml:space="preserve" width="320" height="267.105"><defs><clipPath id="a" clipPathUnits="userSpaceOnUse"><path d="M0 256h256V0H0Z"/></clipPath></defs><path d="M120 56h-12v12h12zm-16 0H92v12h12zm-16 0H76v12h12Zm-16 0H60v12h12Zm-16 0H44v12h12zm52 16H40V52h84v20h-4zm44 4h64v-8h-64zm-4-12h72v16h-72zm4-8h64v-8h-64zm-4-12h72v16h-72z" style="fill:#fff;fill-opacity:1;fill-rule:nonzero;stroke:none" transform="matrix(1.33333 0 0 -1.33333 -10.667 304.439)"/><g clip-path="url(#a)" transform="matrix(1.33333 0 0 -1.33333 -10.667 304.439)"><path d="M0 0v116l8 8V-68Zm-219.502-64H3.502l.471-4h-223.946ZM-216 116V0l-8-68v192zm206-16h-196c-3.309 0-6-2.691-6-6v18H-4V94c0 3.309-2.691 6-6 6m-198-12H-8v-2a2 2 0 0 0-2-2h-196a2 2 0 0 0-2 2zm200 4h-200v2a2 2 0 0 0 2 2h196a2 2 0 0 0 2-2zM-213.778-52l15.556 28H-104v-28ZM-3.973-.468 3.031-60h-222.062l.47 4H-100v36h-100.576l-1.143-2.058-15.555-28-.746-1.34 5.993 50.93.027.234V0H-4v-.234ZM-4 4h-208v82c0-3.309 2.691-6 6-6h196c3.309 0 6 2.691 6 6zm0 113.657V116h-208v1.657l-1.171 1.172-5.172 5.171H2.343l-5.171-5.171zm10.672 10.672L6.343 128h-228.686l-.329.329H-228V-72H12v200.329z" style="fill:#fff;fill-opacity:1;fill-rule:nonzero;stroke:none" transform="translate(236 100)"/><path d="M0 0h72l4 4H0Z" style="fill:#fff;fill-opacity:1;fill-rule:nonzero;stroke:none" transform="translate(152 92)"/><path d="M0 0h64.421L68 4H0Z" style="fill:#fff;fill-opacity:1;fill-rule:nonzero;stroke:none" transform="translate(152 84)"/></g></svg>