<svg xmlns="http://www.w3.org/2000/svg" xml:space="preserve" width="245.333" height="245.333"><path d="m0 0-20-56h-56l48-40-20-56 48 36 48-36-20 56 52 39.826L20-56Zm0-11.893 16.233-45.452.945-2.647 2.81-.008 48.255-.14-42.676-32.684-2.315-1.774.981-2.748 15.527-43.473L2.4-112.8 0-111l-2.4-1.8-37.36-28.019 15.527 43.473.94 2.631-2.146 1.788L-64.952-60h47.771l.948 2.655z" style="fill:#fff;fill-opacity:1;fill-rule:nonzero;stroke:none" transform="matrix(1.33333 0 0 -1.33333 122.667 16)"/><path d="M220 220H36V36h184Zm-4-180H40v176h176z" style="fill:#fff;fill-opacity:1;fill-rule:nonzero;stroke:none" transform="matrix(1.33333 0 0 -1.33333 -48 293.333)"/></svg>