<svg xmlns="http://www.w3.org/2000/svg" xml:space="preserve" viewBox="0 0 256 256"><path d="M172 8H80v232c0 4.411 3.589 8 8 8h80c4.411 0 8-3.589 8-8V8zm0 232a4 4 0 0 1-4 4H88a4 4 0 0 1-4-4V12h88z" style="fill:#fff"/><path d="M118.943 168h18.113c3.829 0 6.943-2.725 6.943-6.076V54.076c0-3.35-3.115-6.076-6.943-6.076h-18.113c-3.829 0-6.943 2.725-6.943 6.076v107.849c0 3.35 3.115 6.075 6.943 6.075M116 54.076c0-1.146 1.115-2.076 2.491-2.076h19.019c1.375 0 2.491.929 2.491 2.076v107.849c0 1.146-1.115 2.076-2.491 2.076h-19.019c-1.375 0-2.491-.929-2.491-2.076zM136.4 204h-16.8a3.604 3.604 0 0 0-3.6 3.6v16.8c0 1.985 1.615 3.6 3.6 3.6h16.8c1.985 0 3.6-1.615 3.6-3.6v-16.8c0-1.985-1.615-3.6-3.6-3.6m-.4 19a1 1 0 0 1-1 1h-14a1 1 0 0 1-1-1v-14a1 1 0 0 1 1-1h14a1 1 0 0 1 1 1zM92 76h12c2.206 0 4-1.794 4-4V32c0-2.206-1.794-4-4-4H92c-2.206 0-4 1.794-4 4v40c0 2.206 1.794 4 4 4m0-42.182c0-1.004.672-1.818 1.5-1.818h9c.828 0 1.5.814 1.5 1.818v36.364c0 1.004-.672 1.818-1.5 1.818h-9c-.828 0-1.5-.814-1.5-1.818zM92 176h72v4H92zm0 8h72v4H92zm0 8h72v4H92z" style="fill:#fff"/></svg>