<?xml version="1.0" encoding="iso-8859-1"?>
<!-- Generator: Adobe Illustrator 28.1.0, SVG Export Plug-In . SVG Version: 6.00 Build 0)  -->
<svg version="1.1" id="Layer_1" xmlns="http://www.w3.org/2000/svg" xmlns:xlink="http://www.w3.org/1999/xlink" x="0px" y="0px"
	 viewBox="0 0 256 256" style="enable-background:new 0 0 256 256;" xml:space="preserve">
<g>
	<path style="fill:#FFFFFF;" d="M172,8H84h-4v4v228c0,4.411,3.589,8,8,8h80c4.411,0,8-3.589,8-8V12V8H172z M172,240
		c0,2.209-1.791,4-4,4H88c-2.209,0-4-1.791-4-4V12h88V240z"/>
	<path style="fill:#FFFFFF;" d="M118.943,168h18.113c3.829,0,6.943-2.725,6.943-6.076V54.076c0-3.35-3.115-6.076-6.943-6.076
		h-18.113c-3.829,0-6.943,2.725-6.943,6.076v107.849C112,165.275,115.115,168,118.943,168z M116,54.076
		c0-1.146,1.115-2.076,2.491-2.076h19.019c1.375,0,2.491,0.929,2.491,2.076v107.849c0,1.146-1.115,2.076-2.491,2.076h-19.019
		c-1.375,0-2.491-0.929-2.491-2.076V54.076z"/>
	<path style="fill:#FFFFFF;" d="M136.4,204h-16.8c-1.985,0-3.6,1.615-3.6,3.6v16.8c0,1.985,1.615,3.6,3.6,3.6h16.8
		c1.985,0,3.6-1.615,3.6-3.6v-16.8C140,205.615,138.385,204,136.4,204z M136,223c0,0.552-0.448,1-1,1h-14c-0.552,0-1-0.448-1-1v-14
		c0-0.552,0.448-1,1-1h14c0.552,0,1,0.448,1,1V223z"/>
	<path style="fill:#FFFFFF;" d="M92,76h12c2.206,0,4-1.794,4-4V32c0-2.206-1.794-4-4-4h-2h-4h-6c-2.206,0-4,1.794-4,4v40
		C88,74.206,89.794,76,92,76z M92,33.818C92,32.814,92.672,32,93.5,32h9c0.828,0,1.5,0.814,1.5,1.818v36.364
		c0,1.004-0.672,1.818-1.5,1.818h-9c-0.828,0-1.5-0.814-1.5-1.818V33.818z"/>
	<rect x="92" y="176" style="fill:#FFFFFF;" width="72" height="4"/>
	<rect x="92" y="184" style="fill:#FFFFFF;" width="72" height="4"/>
	<rect x="92" y="192" style="fill:#FFFFFF;" width="72" height="4"/>
</g>
</svg>
