<svg xmlns="http://www.w3.org/2000/svg" xml:space="preserve" viewBox="0 0 256 256"><path d="M248 54c0-3.308-2.692-6-6-6H14c-3.308 0-6 2.692-6 6v54c0 2.093.815 3.996 2.135 5.423a6 6 0 0 0-.658.636 6 6 0 0 0-1.421 4.758l11.542 83.84a5.974 5.974 0 0 0 5.969 5.342h204.865a5.974 5.974 0 0 0 5.969-5.342l11.542-83.84a6 6 0 0 0-1.421-4.758 6 6 0 0 0-.658-.636 7.96 7.96 0 0 0 2.135-5.423zM12 54a2 2 0 0 1 2-2h228a2 2 0 0 1 2 2v54a4 4 0 0 1-4 4H16a4 4 0 0 1-4-4zm40 146h-8v-8h8zm-20-56v8h-8v-8zm-8-6v-8h8v8zm12 18v8H24v-8zm-8 12h12v8H28zm148-36v8h-8v-8zm-8-4v-8h8v8zm12 16v8h-12v-8zm-24-4v-8h8v8zm8 4v8h-8v-8zm-8-16v-8h8v8zm-80 36v-8h8v8zm4 16v8h-8v-8zm-32-28v-8h8v8zm4 16v8h-8v-8zm12-40H48v-8h16zm4 16v8h-8v-8zm-4-12v8H48v-8zm-12 24h8v8h-8zm4 12h8v8h-8zm4 12h8v8h-8zm4-16v-8h8v8zm4-24v-8h16v8zm36-8v8H88v-8zm-16-4v-8h16v8zm16 16v8h-8v-8zm-12 0v8h-8v-8zm-8-16H68v-8h16zm-12 16h8v8h-8zm8 24h8v8h-8zm4 12h8v8h-8zm4-16v-8h8v8zm4 4h8v8h-8zm4 12h8v8h-8zm4-16v-8h8v8zm4 4h8v8h-8zm20-40h-16v-8h16zm4 16v8h-8v-8zm-4-12v8h-16v-8zm-8 12v8h-8v-8zm-8 36h8v8h-8zm4-16v-8h8v8zm4 4h8v8h-8zm4 12h8v8h-8zm4-16v-8h8v8zm20-36h-16v-8h16zm8 16v8h-8v-8zm-8-12v8h-16v-8zm-4 12v8h-8v-8zm-12 24h8v8h-8zm4 12h8v8h-8zm4-16v-8h8v8zm4 4h8v8h-8zm4 12h8v8h-8zm4-16v-8h8v8zm4-44v20h-4v-24h4zM48 164h-8v-8h8zm-4-12h-8v-8h8zm-12 28h12v8H32zm16 8v-8h8v8zm8 4h12v8H56zm12-24h8v8h-8zm4 24h80v8H72zm80-24h8v8h-8zm12 12v8h-8v-8zm-8 12h8v8h-8zm4-28v-8h20v20h-16v-12zm8 16h12v8h-12zm60-60v8h-12v-8zm-20 56v-8h8v8zm8 4v8h-8v-8zm-8-16v-8h8v8zm0-12v-8h8v8zm4-24h-12v-8h12zm-16 48v-8h8v8zm8 4v8h-8v-8zm-8-16v-8h8v8zm-12-24v-8h12v8zm0 36v-8h8v8zm8 4v8h-8v-8zm-8-16v-8h8v8zm0-12v-8h8v8zm0-24v-8h12v8zm0 64h20v8h-20zm20-40h-8v-8h8zm-4-12v-8h12v8zm8 52h8v8h-8zm8-60h12v8h-12zm4 32v-8h8v8zm8 4v8h-8v-8zm-8-16v-8h8v8zm0 28h8v20h-8zM25.568 204a2.004 2.004 0 0 1-1.997-1.819l-11.552-83.909A2.002 2.002 0 0 1 14.005 116H44v24h-8v-14H20v42h4v12h4v12h12v12zM168 204v-12h12v12zm75.981-85.728-11.552 83.909a2 2 0 0 1-.429 1.06V116h9.995a2.002 2.002 0 0 1 1.986 2.272" style="fill:#fff"/><path d="M196 80h36v-4h8v-4h-8v-4h8v-4h-8v-4h8v-4H16v4h180v4H16v4h180v4H16v4h180zm4-20h28v16h-28z" style="fill:#fff"/><path d="M208 68v4h12v-4h-6z" style="fill:#fff"/></svg>