<svg xmlns="http://www.w3.org/2000/svg" xml:space="preserve" width="320" height="256"><defs><clipPath id="a" clipPathUnits="userSpaceOnUse"><path d="M0 256h256V0H0Z"/></clipPath></defs><g clip-path="url(#a)" transform="matrix(1.33333 0 0 -1.33333 -10.667 298.667)"><path d="M0 0a4 4 0 0 0 4-4v-100a4 4 0 0 0-4-4h-104a4 4 0 0 0-4 4V-4a4 4 0 0 0 4 4zm-164-84V32h4a4 4 0 0 0 4-4V-80a4 4 0 0 0-4-4zm-40-17V45a3 3 0 0 0 3 3h30a3 3 0 0 0 3-3v-146a3 3 0 0 0-3-3h-30a3 3 0 0 0-3 3m224-11a4 4 0 0 0-4-4h-224a4 4 0 0 0-4 4v24h4v-13c0-3.859 3.14-7 7-7h30c3.86 0 7 3.141 7 7v13h4c4.411 0 8 3.589 8 8V28c0 4.411-3.589 8-8 8h-4v9c0 3.86-3.14 7-7 7h-30c-3.86 0-7-3.14-7-7v-9h-4v28a4 4 0 0 0 4 4h97.083A7.93 7.93 0 0 1-112 64V12c0-4.411 3.589-8 8-8-4.411 0-8-3.589-8-8v-100c0-4.411 3.589-8 8-8H0c4.411 0 8 3.589 8 8V-4C8 .411 4.411 4 0 4c4.411 0 8 3.589 8 8v52a7.94 7.94 0 0 1-1.082 4H16a4 4 0 0 0 4-4zM-212 32h4V-84h-4zM0 68a4 4 0 0 0 4-4V12a4 4 0 0 0-4-4h-104a4 4 0 0 0-4 4v52a4 4 0 0 0 4 4zm16 4h-224c-4.411 0-8-3.589-8-8v-176c0-4.411 3.589-8 8-8H16c4.411 0 8 3.589 8 8V64c0 4.411-3.589 8-8 8" style="fill:#fff;fill-opacity:1;fill-rule:nonzero;stroke:none" transform="translate(224 152)"/><path d="M128 190h92v-10h-92zm0 14h92v-10h-92zm92-28h4v32H124v-32h4z" style="fill:#fff;fill-opacity:1;fill-rule:nonzero;stroke:none"/><path d="M0 0v-24h-88V0zm-44 8c4.905 0 9.464-1.475 13.265-4h-26.53c3.801 2.525 8.36 4 13.265 4m0-48c-8.882 0-16.631 4.828-20.781 12h41.562C-27.369-35.172-35.118-40-44-40M-96 0v-24h4v-4h22.707C-64.791-37.451-55.146-44-44-44s20.791 6.549 25.293 16H4V4h-28.431C-29.482 8.944-36.39 12-44 12s-14.518-3.056-19.569-8H-92V0Z" style="fill:#fff;fill-opacity:1;fill-rule:nonzero;stroke:none" transform="translate(216 100)"/><path d="M28 176h20v-12H28Zm20-15.651h3.651v19.302H24.349v-19.302H28ZM80 64h8v-4h-8zm20-4h-8v4h8zm-24-4h28v12H76Z" style="fill:#fff;fill-opacity:1;fill-rule:nonzero;stroke:none"/><path d="M0 0a2 2 0 1 0-.001-4.001A2 2 0 0 0 0 0m0-8c3.309 0 6 2.691 6 6S3.309 4 0 4s-6-2.691-6-6 2.691-6 6-6" style="fill:#fff;fill-opacity:1;fill-rule:nonzero;stroke:none" transform="translate(78 80)"/><path d="M0 0a4 4 0 1 0 0 8 4 4 0 0 0 0-8m0 12c-4.411 0-8-3.589-8-8s3.589-8 8-8S8-.411 8 4s-3.589 8-8 8" style="fill:#fff;fill-opacity:1;fill-rule:nonzero;stroke:none" transform="translate(100 76)"/></g></svg>