<?xml version="1.0" encoding="UTF-8" standalone="no"?>
<svg
   xmlns:dc="http://purl.org/dc/elements/1.1/"
   xmlns:cc="http://creativecommons.org/ns#"
   xmlns:rdf="http://www.w3.org/1999/02/22-rdf-syntax-ns#"
   xmlns:svg="http://www.w3.org/2000/svg"
   xmlns="http://www.w3.org/2000/svg"
   viewBox="0 0 320 213.33333"
   height="213.33333"
   width="320"
   xml:space="preserve"
   id="svg2"
   version="1.1"><metadata
     id="metadata8"><rdf:RDF><cc:Work
         rdf:about=""><dc:format>image/svg+xml</dc:format><dc:type
           rdf:resource="http://purl.org/dc/dcmitype/StillImage" /></cc:Work></rdf:RDF></metadata><defs
     id="defs6"><clipPath
       id="clipPath22"
       clipPathUnits="userSpaceOnUse"><path
         id="path20"
         d="M 0,256 H 256 V 0 H 0 Z" /></clipPath></defs><g
     transform="matrix(1.3333333,0,0,-1.3333333,-10.666666,277.33346)"
     id="g10"><g
       transform="translate(244,197.8481)"
       id="g12"><path
         id="path14"
         style="fill:#ffffff;fill-opacity:1;fill-rule:nonzero;stroke:none"
         d="m 0,0 v -139.697 -6.151 H -6.121 -225.879 -232 v 6.151 V 0 6.152 h 6.121 H -6.121 0 Z m 0,10.152 h -6.121 -219.758 -6.121 -4 v -4 V 0 v -139.697 -6.151 -4 h 4 6.121 H -6.121 0 4 v 4 6.151 V 0 v 6.152 4 z" /></g><g
       id="g16"><g
         clip-path="url(#clipPath22)"
         id="g18"><g
           transform="translate(66.8262,84)"
           id="g24"><path
             id="path26"
             style="fill:#ffffff;fill-opacity:1;fill-rule:nonzero;stroke:none"
             d="m 0,0 c -0.456,0 -0.826,0.375 -0.826,0.835 v 98.33 c 0,0.46 0.37,0.835 0.826,0.835 h 122.348 c 0.455,0 0.826,-0.375 0.826,-0.835 V 0.835 C 123.174,0.375 122.803,0 122.348,0 Z m 63.035,-20 c -3.232,0 -5.861,2.691 -5.861,6 0,3.309 2.629,6 5.861,6 h 4.278 c 3.232,0 5.861,-2.691 5.861,-6 0,-3.309 -2.629,-6 -5.861,-6 z m 106.139,0.729 c 0,-2.612 -2.127,-4.729 -4.751,-4.729 h -97.11 c 5.437,0 9.861,4.486 9.861,10 0,5.514 -4.424,10 -9.861,10 h 55.035 c 2.665,0 4.826,2.165 4.826,4.835 v 98.33 c 0,2.67 -2.161,4.835 -4.826,4.835 L 0,104 c -2.666,0 -4.826,-2.165 -4.826,-4.835 V 0.835 C -4.826,-1.835 -2.666,-4 0,-4 h 63.035 c -5.437,0 -9.861,-4.486 -9.861,-10 0,-5.514 4.424,-10 9.861,-10 H -42.076 c -2.623,0 -4.75,2.117 -4.75,4.729 v 126.542 c 0,2.612 2.127,4.729 4.75,4.729 h 206.499 c 2.624,0 4.751,-2.117 4.751,-4.729 z M 164.423,116 H -42.076 c -4.824,0 -8.75,-3.916 -8.75,-8.729 V -19.271 c 0,-4.813 3.926,-8.729 8.75,-8.729 h 206.499 c 4.825,0 8.751,3.916 8.751,8.729 v 126.542 c 0,4.813 -3.926,8.729 -8.751,8.729" /></g><path
           id="path28"
           style="fill:#ffffff;fill-opacity:1;fill-rule:nonzero;stroke:none"
           d="M 180,100 H 76 v 68 H 180 Z M 76,172 h -4 v -4 -68 -4 h 4 104 4 v 4 68 4 h -4 z" /><g
           transform="translate(90,72)"
           id="g30"><path
             id="path32"
             style="fill:#ffffff;fill-opacity:1;fill-rule:nonzero;stroke:none"
             d="M 0,0 C 1.104,0 2,0.896 2,2 2,3.104 1.104,4 0,4 -1.104,4 -2,3.104 -2,2 -2,0.896 -1.104,0 0,0" /></g><g
           transform="translate(38,84)"
           id="g34"><path
             id="path36"
             style="fill:#ffffff;fill-opacity:1;fill-rule:nonzero;stroke:none"
             d="m 0,0 c -5.514,0 -10,4.486 -10,10 0,5.514 4.486,10 10,10 C 5.514,20 10,15.514 10,10 10,4.486 5.514,0 0,0 M 0,24 C -7.72,24 -14,17.72 -14,10 -14,2.28 -7.72,-4 0,-4 7.72,-4 14,2.28 14,10 14,17.72 7.72,24 0,24" /></g><g
           transform="translate(214,84)"
           id="g38"><path
             id="path40"
             style="fill:#ffffff;fill-opacity:1;fill-rule:nonzero;stroke:none"
             d="m 0,0 c -5.514,0 -10,4.486 -10,10 0,5.514 4.486,10 10,10 C 5.514,20 10,15.514 10,10 10,4.486 5.514,0 0,0 M 0,24 C -7.72,24 -14,17.72 -14,10 -14,2.28 -7.72,-4 0,-4 7.72,-4 14,2.28 14,10 14,17.72 7.72,24 0,24" /></g><g
           transform="translate(162,69.79)"
           id="g42"><path
             id="path44"
             style="fill:#ffffff;fill-opacity:1;fill-rule:nonzero;stroke:none"
             d="M 0,0 C 0,-2.093 -1.588,-3.79 -3.547,-3.79 H -8.453 C -10.412,-3.79 -12,-2.093 -12,0 v 0.42 c 0,2.093 1.588,3.79 3.547,3.79 h 4.906 C -1.588,4.21 0,2.513 0,0.42 Z M -3.547,8.21 H -8.453 C -12.614,8.21 -16,4.715 -16,0.42 V 0 c 0,-4.295 3.386,-7.79 7.547,-7.79 h 4.906 C 0.614,-7.79 4,-4.295 4,0 V 0.42 C 4,4.715 0.614,8.21 -3.547,8.21" /></g><g
           transform="translate(186,69.79)"
           id="g46"><path
             id="path48"
             style="fill:#ffffff;fill-opacity:1;fill-rule:nonzero;stroke:none"
             d="M 0,0 C 0,-2.093 -1.588,-3.79 -3.547,-3.79 H -8.453 C -10.412,-3.79 -12,-2.093 -12,0 v 0.42 c 0,2.093 1.588,3.79 3.547,3.79 h 4.906 C -1.588,4.21 0,2.513 0,0.42 Z M -3.547,8.21 H -8.453 C -12.614,8.21 -16,4.715 -16,0.42 V 0 c 0,-4.295 3.386,-7.79 7.547,-7.79 h 4.906 C 0.614,-7.79 4,-4.295 4,0 V 0.42 C 4,4.715 0.614,8.21 -3.547,8.21" /></g></g></g></g></svg>