<svg xmlns="http://www.w3.org/2000/svg" xml:space="preserve" width="320" height="309.333"><defs><clipPath id="a" clipPathUnits="userSpaceOnUse"><path d="M0 256h256V0H0Z"/></clipPath></defs><g clip-path="url(#a)" transform="matrix(1.33333 0 0 -1.33333 -10.667 325.333)"><path d="M0 0h-224c-4.411 0-8-3.589-8-8v-188c0-4.411 3.589-8 8-8h.343a6 6 0 0 1-.343-2v-18c0-4.411 3.589-8 8-8H-4c4.411 0 8 3.589 8 8v18c0 .701-.121 1.374-.343 2H8V-8c0 4.411-3.589 8-8 8m0-4a4 4 0 0 0 4-4v-192h-8v-4h2a2 2 0 0 0 2-2v-18a4 4 0 0 0-4-4h-212a4 4 0 0 0-4 4v18a2 2 0 0 0 2 2h6v4h-12a4 4 0 0 0-4 4V-8a4 4 0 0 0 4 4z" style="fill:#fff;fill-opacity:1;fill-rule:nonzero;stroke:none" transform="translate(240 244)"/><path d="M0 0h-168c-13.233 0-24-10.767-24-24v-164H24v164C24-10.767 13.233 0 0 0m0-4c11.046 0 20-8.954 20-20v-160h-208v160c0 11.046 8.954 20 20 20z" style="fill:#fff;fill-opacity:1;fill-rule:nonzero;stroke:none" transform="translate(216 228)"/><path d="M192 216H68v4h124zm0-8H68v4h124z" style="fill:#fff;fill-opacity:1;fill-rule:nonzero;stroke:none"/><path d="M0 0h-168c-6.617 0-12-5.383-12-12v-120c0-6.617 5.383-12 12-12H0c6.617 0 12 5.383 12 12v120C12-5.383 6.617 0 0 0m0-4a8 8 0 0 0 8-8v-120a8 8 0 0 0-8-8h-168a8 8 0 0 0-8 8v120a8 8 0 0 0 8 8z" style="fill:#fff;fill-opacity:1;fill-rule:nonzero;stroke:none" transform="translate(216 204)"/><path d="M32 20h-4v20h4zm12 0h-4v20h4zm12 0h-4v20h4zm12 0h-4v20h4zm12 0h-4v20h4zm12 0h-4v20h4zm12 0h-4v20h4zm12 0h-4v20h4zm12 0h-4v20h4zm12 0h-4v20h4zm12 0h-4v20h4zm12 0h-4v20h4zm12 0h-4v20h4zm12 0h-4v20h4zm12 0h-4v20h4zm12 4h-4v16h4zm12 0h-4v16h4zm12 0h-4v16h4z" style="fill:#fff;fill-opacity:1;fill-rule:nonzero;stroke:none"/></g></svg>