<svg xmlns="http://www.w3.org/2000/svg" xml:space="preserve" width="320" height="170.667"><defs><clipPath id="a" clipPathUnits="userSpaceOnUse"><path d="M0 256h256V0H0Z"/></clipPath></defs><g clip-path="url(#a)" transform="matrix(1.33333 0 0 -1.33333 -10.667 256)"><path d="M0 0c0 2.206 1.794 4 4 4h84c2.206 0 4-1.794 4-4v-80c0-2.206-1.794-4-4-4H4c-2.206 0-4 1.794-4 4zm4-88h84a8 8 0 0 1 8 8V0a8 8 0 0 1-8 8H4a8 8 0 0 1-8-8v-80a8 8 0 0 1 8-8" style="fill:#fff;fill-opacity:1;fill-rule:nonzero;stroke:none" transform="translate(84 176)"/><path d="M104 164h52v-60h-52zm52-64h4v68h-60v-68h4z" style="fill:#fff;fill-opacity:1;fill-rule:nonzero;stroke:none"/><path d="m0 0-7.589 2.53-2.53-7.59-7.59 2.531 2.53 7.59-7.59 2.529 2.53 7.59 7.59-2.531 2.53 7.59 7.589-2.53-2.53-7.589 7.59-2.53zm0 12.649 1.265 3.795 1.265 3.795-3.795 1.265-7.589 2.529-3.795 1.266-1.265-3.795-1.265-3.795-3.795 1.265-3.795 1.265-1.264-3.795-2.53-7.59-1.265-3.794 3.795-1.265 3.794-1.265-1.264-3.795-1.266-3.795 3.795-1.264 7.59-2.53 3.795-1.265 1.264 3.795 1.265 3.795 3.795-1.265L2.53-5.06l1.264 3.795 2.531 7.59 1.264 3.795-3.795 1.265z" style="fill:#fff;fill-opacity:1;fill-rule:nonzero;stroke:none" transform="translate(53.47 88.41)"/><path d="M0 0a4 4 0 1 0 0 8 4 4 0 0 0 0-8m0 12c-4.411 0-8-3.589-8-8s3.589-8 8-8S8-.411 8 4s-3.589 8-8 8" style="fill:#fff;fill-opacity:1;fill-rule:nonzero;stroke:none" transform="translate(204 132)"/><path d="M0 0a4 4 0 1 0 0-8 4 4 0 0 0 0 8m0-12c4.411 0 8 3.589 8 8S4.411 4 0 4-8 .411-8-4s3.589-8 8-8" style="fill:#fff;fill-opacity:1;fill-rule:nonzero;stroke:none" transform="translate(220 144)"/><path d="M0 0a8 8 0 1 0 0 16A8 8 0 0 0 0 0m0 20c-6.617 0-12-5.383-12-12S-6.617-4 0-4 12 1.383 12 8 6.617 20 0 20" style="fill:#fff;fill-opacity:1;fill-rule:nonzero;stroke:none" transform="translate(224 96)"/><path d="M0 0h-168c-17.673 0-32 10.327-32 28l10.364 76H-192v.685a6 6 0 0 1 2.775-.685h22.135l20.879-80.039A16.006 16.006 0 0 1-130.729 12H-36c4.901 0 9.289 2.22 12.227 5.701C-22.697 12.182-17.83 8-12 8c6.617 0 12 5.383 12 12s-5.383 12-12 12c-3.075 0-5.874-1.173-8-3.081V100c0 2.206 1.795 4 4 4H4c4.411 0 8 3.589 8 8v4h1.017a8 8 0 0 0 7.926-6.919L32 28C32 10.327 17.673 0 0 0m-12 28a8 8 0 1 0 0-16 8 8 0 0 0 0 16m-179.123 82.632 1.378 4.135c1.051 3.15 2.427 5.095 5.745 5.233H4a4 4 0 0 0 4-4v-4a4 4 0 0 0-4-4h-20a8 8 0 0 1-8-8V28c0-6.627-5.373-12-12-12h-94.729a12 12 0 0 0-11.611 8.971l-20.88 80.039a4 4 0 0 1-3.87 2.99h-22.135a2 2 0 0 0-1.898 2.632M35.963 28.54l-11.056 81.081C24.1 115.538 18.988 120 13.017 120h-2.099c-1.387 2.387-3.965 4-6.918 4h-188.083l-.084-.003c-6.812-.284-8.672-5.865-9.372-7.966l-1.378-4.134a6.02 6.02 0 0 1 .824-5.405 6 6 0 0 1 .657-.751l-10.527-77.201-.037-.269V28c0-18.841 14.804-32 36-32H0C21.196-4 36 9.159 36 28v.271z" style="fill:#fff;fill-opacity:1;fill-rule:nonzero;stroke:none" transform="translate(212 68)"/></g></svg>