<svg xmlns="http://www.w3.org/2000/svg" xml:space="preserve" viewBox="0 0 256 256"><circle cx="238" cy="210" r="2" style="fill:#fff"/><circle cx="18" cy="46" r="2" style="fill:#fff"/><circle cx="18" cy="210" r="2" style="fill:#fff"/><circle cx="238" cy="46" r="2" style="fill:#fff"/><circle cx="50" cy="50" r="2" style="fill:#fff"/><circle cx="30" cy="50" r="2" style="fill:#fff"/><path d="M28 164h4v20h-4zm8 0h4v20h-4zm-8 24h4v20h-4zm8 0h4v20h-4zM28 80a4 4 0 1 0 0-8 4 4 0 0 0 0 8m0-6c1.103 0 2 .897 2 2s-.897 2-2 2-2-.897-2-2 .897-2 2-2m-4-14a4 4 0 1 0 0 8 4 4 0 0 0 0-8m0 6c-1.103 0-2-.897-2-2s.897-2 2-2 2 .897 2 2-.897 2-2 2" style="fill:#fff"/><path d="M32 60a4 4 0 1 0 0 8 4 4 0 0 0 0-8m0 6c-1.103 0-2-.897-2-2s.897-2 2-2 2 .897 2 2-.897 2-2 2" style="fill:#fff"/><path d="M40 60a4 4 0 1 0 0 8 4 4 0 0 0 0-8m0 6c-1.103 0-2-.897-2-2s.897-2 2-2 2 .897 2 2-.897 2-2 2" style="fill:#fff"/><path d="M48 60a4 4 0 1 0 0 8 4 4 0 0 0 0-8m0 6c-1.103 0-2-.897-2-2s.897-2 2-2 2 .897 2 2-.897 2-2 2" style="fill:#fff"/><path d="M52 64a4 4 0 1 0 8 0 4 4 0 0 0-8 0m4-2c1.103 0 2 .897 2 2s-.897 2-2 2-2-.897-2-2 .897-2 2-2m-20 46h20v4H36zM24 92h16v4H24zm0-8h16v4H24zm0 16h16v4H24z" style="fill:#fff"/><path d="M244 36H8v184h240V36zm-28 20V44h4v16h-4zm0 8h4v16h-4zm0 28v-8h4v16h-4zm0 24v-12h4v16h-4zm0 8h4v16h-4zm0 20h4v16h-4zM188 44h24v4h-24zm-4 8h28v4h-28zm24 88v-16h4v16zm4 4v16h-4v-16zm-24-28V92h24v24zm-12 32h-4v32h-8v-32h-36v-4h28v-4h20v4h28v4zm24 4v24h-24v-24zm-40 0v24h-24v-24zm-24 28v28h-4v-28zm-44 20h-4v-4h16v-28h4v32zm16 4v4H92v-4zM88 88h28v20H88zM64 72V60h24v12zm4 4v4H52v-4zm4 0h16v4H72zm24 4V64h16v16zm56 8v8h-32v-8zm-28-8v-4h12v4zm12-16h-12v-4h12zm0 4v4h-16v-4zm-16-4h-4v-4h4zm0 12v8h-4v-8zm0 36h4v4h-24v-4zm-20 20v-4h24v4zm24 4v4h-24v-4zm-24-12v-4h24v4zm-4-12v4H64v-4zm0 8v4H64v-4zm0 8v4H64v-4zm0 8v4H64v-4zm4 16h4v4H88v-4zm4 8v4H88v-4zm-4 12v20H88v-20zm4-24h-4v-4h24v4zm8 44h16v4h-16zm0-4v-4h16v4zm0-8v-4h16v4zm0-8v-4h16v4zm0-8v-4h16v4zm0-8v-4h16v4zm12-48h-4v-8h32v8zm4 24v-4h24v4zm24 4v4h-24v-4zm-24-12v-4h24v4zm0-8v-4h24v4zm52-24v4h-24v-4zm-24-4v-4h24v4zm24 12v4h-24v-4zm0 8v4h-24v-4zm0 8v4h-24v-4zm-8 8v4h-16v-4zm0 8v4h-16v-4zm16-48V60h24v24zm12 40v16h-20v-16zm-36-80h16v4h-16zm0 8h16v4h-16zm0 8h16v4h-16zm0 8h16v4h-16zm16 8v4h-24v-4zm-40-32v-4h20v16h-20zm0 16h16v4h-16zm0 20V68h20v4h-8v12h-12zm-40-36h36v12h-36zm-44 0h40v12H56zm-8 104v8h-4v-12h4zm0-12h-4v-12h4zm-4-16H32v40h16v56H12v-20h8v-8h-8v-64h8v-4h-8v-20h8v-8h-8V40h40v20h8v12H48v12h8v8h-8v-8h-4v20h4v-8h8v8h4V84h4v20h12v-4h-8v-4h8v-4h-8v-4h8v-4h8v24H60v40h-8v-28zm-8 16v-12h4v12zm4 8v12h-4v-12zm44 68H52v-12h32zm0-20v4H52v-12h32zm0-20v8H52v-12h32zm0-16v8H52v-12h32zm-20-8v-4h32v4zm80 36v32H88v-4h24v-12h16v12h12v-32h4zm44 28h-40v-12h40zm0-16h-40v-12h40zm40-16v32h-12v-40h12zm16 36h-12v-32h12zm-4-120v40h-8V96zm-8-4V52h8v40zm8 48v40h-8v-40zm4-92h-16v120h-16v48h-20v-36h12v-16h20V40h20z" style="fill:#fff"/><path d="M76 88h4v4h-4zm0 8h4v4h-4z" style="fill:#fff"/></svg>