<svg xmlns="http://www.w3.org/2000/svg" xml:space="preserve" width="320.319" height="170.667"><defs><clipPath id="a" clipPathUnits="userSpaceOnUse"><path d="M0 256h256V0H0Z"/></clipPath></defs><path d="m0 0-4 4h-4l4-4Z" style="fill:#fff;fill-opacity:1;fill-rule:nonzero;stroke:none" transform="matrix(1.33333 0 0 -1.33333 250.667 32)"/><path d="m0 0-4 4h-4l4-4Z" style="fill:#fff;fill-opacity:1;fill-rule:nonzero;stroke:none" transform="matrix(1.33333 0 0 -1.33333 261.333 32)"/><path d="m0 0-4 4h-4l4-4Z" style="fill:#fff;fill-opacity:1;fill-rule:nonzero;stroke:none" transform="matrix(1.33333 0 0 -1.33333 272 32)"/><path d="m0 0-4 4h-4l4-4Z" style="fill:#fff;fill-opacity:1;fill-rule:nonzero;stroke:none" transform="matrix(1.33333 0 0 -1.33333 282.667 32)"/><g clip-path="url(#a)" transform="matrix(1.33333 0 0 -1.33333 -10.667 256)"><path d="M0 0h-4l-4-4-3.862.292 3.784 18.923.157.785H4Zm-38.428-12.08a4.07 4.07 0 0 1-2.313-2.111l-2.561-5.391a5.5 5.5 0 0 1-.477-3.098l7.127-52.514c.344-2.536-1.526-4.806-3.96-4.806H-52L-64.994-5.284l39.359-2.187zM-68.443-80c-2.029 0-3.736 1.598-3.973 3.719L-80-8.421l-10.239 2.829 3.078 1.539 18.067-1.004L-56.061-80H-68Zm-15.638 46.693a3.994 3.994 0 0 0-2.519 5.092c.682 1.97 1.578 4.708 2.6 8.215 2.333 8-12 8-12 8l-2.862 4.293 2.103-.233 13.084-3.616 2.541-22.733zM-176 20h76l12 8h64l12-12-3.881-19.405-.772.058L-16-4l-72 4-8-4-72 8zm-44-8h-4l-2 4h47.528l3.707-7.414zm-4 16h128.789l-6-4h-81.261l2-4H-228Zm29.212 11.821c.262.122.529.179.789.179 1.055 0 1.999-.931 1.999-2.19V32h-19.469zM-16 36h4l2-4h-10ZM0 24l2-4h-12.343l-8 8H-8l4-4zm7.578-6.211-4 8L2.473 28h-4.816l-2.37 2.37-3.709 7.419L-9.527 40h-8.13l-1.171-1.171L-25.657 32H-188v5.81c0 3.413-2.691 6.19-5.999 6.19a5.8 5.8 0 0 1-2.487-.558L-220.891 32h-5.581L-232 20l5.528-12h6.321l47.47-3.583 2.077-4.152 66.549-7.395 4.727-7.089L-98.141-16H-96c3.125-.012 7.299-.922 8.195-2.122.034-.044.134-.179-.035-.758a169 169 0 0 0-2.54-8.025 7.93 7.93 0 0 1 .383-6.139 7.95 7.95 0 0 1 4.651-4.057l4.701-1.567 4.254-38.058c.463-4.147 3.88-7.274 7.948-7.274h27.831c2.271 0 4.442.994 5.957 2.729a8.35 8.35 0 0 1 1.967 6.615l-7.127 52.513c-.039.289.005.589.127.844l2.56 5.391a.2.2 0 0 0 .044.063l21.674 7.806 2.652-.148.157.788.287-.287 4.013-.303 1.831-.138 1.298 1.298L-2.343-4h5.466l.758 3.03 4 16 .358 1.435z" style="fill:#fff;fill-opacity:1;fill-rule:nonzero;stroke:none" transform="translate(240 148)"/><path d="m0 0 .067.202-.259.087Z" style="fill:#fff;fill-opacity:1;fill-rule:nonzero;stroke:none" transform="translate(126.397 155.192)"/></g></svg>