<svg xmlns="http://www.w3.org/2000/svg" xml:space="preserve" width="266.667" height="266.667"><defs><clipPath id="a" clipPathUnits="userSpaceOnUse"><path d="M0 256h256V0H0Z"/></clipPath></defs><g clip-path="url(#a)" transform="matrix(1.33333 0 0 -1.33333 -37.333 304)"><path d="M0 0a4 4 0 0 1-4-4v-72a4 4 0 0 1 4-4h140a4 4 0 0 1 4 4v72a4 4 0 0 1-4 4zm0-4h140v-72H0Z" style="fill:#fff;fill-opacity:1;fill-rule:nonzero;stroke:none" transform="translate(40 228)"/><path d="M0 0h192c0-39.701-32.299-72-72-72H72C32.299-72 0-39.701 0 0m-4 0c0-41.974 34.026-76 76-76h48c41.974 0 76 34.026 76 76a4 4 0 0 1-4 4H0a4 4 0 0 1-4-4" style="fill:#fff;fill-opacity:1;fill-rule:nonzero;stroke:none" transform="translate(32 104)"/><path d="M0 0a4 4 0 0 1-4-4v-56a4 4 0 0 1 4-4h124a4 4 0 0 1 4 4v56a4 4 0 0 1-4 4zm0-4h124v-56H0Z" style="fill:#fff;fill-opacity:1;fill-rule:nonzero;stroke:none" transform="translate(48 220)"/></g></svg>