<?xml version="1.0" encoding="UTF-8" standalone="no"?>
<svg
   xmlns:dc="http://purl.org/dc/elements/1.1/"
   xmlns:cc="http://creativecommons.org/ns#"
   xmlns:rdf="http://www.w3.org/1999/02/22-rdf-syntax-ns#"
   xmlns:svg="http://www.w3.org/2000/svg"
   xmlns="http://www.w3.org/2000/svg"
   viewBox="0 0 245.33333 298.66665"
   height="298.66666"
   width="245.33333"
   xml:space="preserve"
   id="svg2"
   version="1.1"><metadata
     id="metadata8"><rdf:RDF><cc:Work
         rdf:about=""><dc:format>image/svg+xml</dc:format><dc:type
           rdf:resource="http://purl.org/dc/dcmitype/StillImage" /></cc:Work></rdf:RDF></metadata><defs
     id="defs6"><clipPath
       id="clipPath18"
       clipPathUnits="userSpaceOnUse"><path
         id="path16"
         d="M 0,256 H 256 V 0 H 0 Z" /></clipPath></defs><g
     transform="matrix(1.3333333,0,0,-1.3333333,-47.999999,319.99999)"
     id="g10"><g
       id="g12"><g
         clip-path="url(#clipPath18)"
         id="g14"><path
           id="path20"
           style="fill:#ffffff;fill-opacity:1;fill-rule:nonzero;stroke:none"
           d="M 216,20 H 40 v 216 h 176 z m 2,220 H 38 c -1.104,0 -2,-0.896 -2,-2 V 18 c 0,-1.104 0.896,-2 2,-2 h 180 c 1.104,0 2,0.896 2,2 v 220 c 0,1.104 -0.896,2 -2,2" /><path
           id="path22"
           style="fill:#ffffff;fill-opacity:1;fill-rule:nonzero;stroke:none"
           d="M 208,72 H 48 V 88 H 208 Z M 48.136,207.864 H 207.865 V 92.135 H 48.136 Z M 48,228 H 208 V 212 H 48 Z M 45.954,68 h 164.092 c 1.079,0 1.954,0.875 1.954,1.954 V 88 v 4 116 4 18.046 c 0,1.079 -0.875,1.954 -1.954,1.954 H 45.954 C 44.875,232 44,231.125 44,230.046 V 212 208 92 88 69.954 C 44,68.875 44.875,68 45.954,68" /></g></g></g></svg>