<?xml version="1.0" encoding="UTF-8" standalone="no"?>
<svg
   xmlns:dc="http://purl.org/dc/elements/1.1/"
   xmlns:cc="http://creativecommons.org/ns#"
   xmlns:rdf="http://www.w3.org/1999/02/22-rdf-syntax-ns#"
   xmlns:svg="http://www.w3.org/2000/svg"
   xmlns="http://www.w3.org/2000/svg"
   viewBox="0 0 320 261.33331"
   height="261.33331"
   width="320"
   xml:space="preserve"
   id="svg2"
   version="1.1"><metadata
     id="metadata8"><rdf:RDF><cc:Work
         rdf:about=""><dc:format>image/svg+xml</dc:format><dc:type
           rdf:resource="http://purl.org/dc/dcmitype/StillImage" /></cc:Work></rdf:RDF></metadata><defs
     id="defs6"><clipPath
       id="clipPath18"
       clipPathUnits="userSpaceOnUse"><path
         id="path16"
         d="M 0,256 H 256 V 0 H 0 Z" /></clipPath></defs><g
     transform="matrix(1.3333333,0,0,-1.3333333,-10.667066,298.66666)"
     id="g10"><g
       id="g12"><g
         clip-path="url(#clipPath18)"
         id="g14"><g
           transform="translate(140.1113,224)"
           id="g20"><path
             id="path22"
             style="fill:#ffffff;fill-opacity:1;fill-rule:nonzero;stroke:none"
             d="m 0,0 h -0.111 -24 -0.111 l -0.111,-0.006 -72,-4 -0.138,-0.008 -0.136,-0.017 c -0.355,-0.044 -8.778,-1.134 -17.293,-5.391 -11.914,-5.957 -18.211,-15.148 -18.211,-26.578 v -152 c 0,-4.411 3.589,-8 8,-8 h 224 c 4.411,0 8,3.589 8,8 v 152 c 0,11.43 -6.297,20.621 -18.211,26.578 -8.516,4.257 -16.939,5.347 -17.293,5.391 l -0.137,0.017 -0.138,0.008 -72,4 z m -0.111,-4 72,-4 c 0,0 32,-4 32,-28 v -152 c 0,-2.209 -1.791,-4 -4,-4 h -224 c -2.209,0 -4,1.791 -4,4 v 152 c 0,24 32,28 32,28 l 72,4 h 24" /></g><g
           transform="translate(36,204)"
           id="g24"><path
             id="path26"
             style="fill:#ffffff;fill-opacity:1;fill-rule:nonzero;stroke:none"
             d="m 0,0 c -4.418,0 -8,-3.582 -8,-8 0,-4.418 3.582,-8 8,-8 4.418,0 8,3.582 8,8 0,4.418 -3.582,8 -8,8 m 0,-4 c 2.206,0 4,-1.794 4,-4 0,-2.206 -1.794,-4 -4,-4 -2.206,0 -4,1.794 -4,4 0,2.206 1.794,4 4,4" /></g><g
           transform="translate(228,68)"
           id="g28"><path
             id="path30"
             style="fill:#ffffff;fill-opacity:1;fill-rule:nonzero;stroke:none"
             d="m 0,0 c 0,-8.822 -7.178,-16 -16,-16 h -164 c -8.822,0 -16,7.178 -16,16 v 106.984 c 1.216,1.697 6.649,6.779 29.578,11.296 18.72,3.689 43.02,5.72 68.422,5.72 25.402,0 49.701,-2.031 68.422,-5.72 22.93,-4.517 28.361,-9.599 29.578,-11.296 z m -98,128 c -53.207,0 -97.314,-8.787 -102,-20 V 0 c 0,-11.046 8.954,-20 20,-20 h 164 c 11.046,0 20,8.954 20,20 v 108 c -4.686,11.213 -48.793,20 -102,20" /></g><g
           transform="translate(130,216)"
           id="g32"><path
             id="path34"
             style="fill:#ffffff;fill-opacity:1;fill-rule:nonzero;stroke:none"
             d="m 0,0 c -26.157,0 -51.28,-2.112 -70.742,-5.946 -1.692,-0.333 -3.386,-0.691 -5.033,-1.063 C -79.44,-7.836 -82,-11.043 -82,-14.81 c 0,-4.411 3.578,-8 7.977,-8 0.585,0 1.174,0.066 1.75,0.195 1.478,0.331 3.033,0.657 4.624,0.971 C -49.175,-18.004 -25.15,-16 0,-16 c 25.15,0 49.176,-2.004 67.648,-5.644 l 0.785,-0.156 c 0.522,-0.106 1.056,-0.159 1.586,-0.159 4.401,0 7.981,3.588 7.981,7.998 0,3.796 -2.691,7.093 -6.398,7.843 l -0.86,0.172 C 51.28,-2.112 26.157,0 0,0 m 0,-4 c 25.905,0 50.754,-2.085 69.969,-5.871 0.281,-0.055 0.561,-0.111 0.84,-0.167 1.862,-0.377 3.191,-2.018 3.191,-3.918 v -0.005 c 0,-2.25 -1.831,-3.998 -3.981,-3.998 -0.262,0 -0.529,0.026 -0.797,0.08 -0.264,0.053 -0.531,0.106 -0.8,0.159 C 49.701,-14.031 25.402,-12 0,-12 c -25.402,0 -49.702,-2.031 -68.422,-5.72 -1.666,-0.328 -3.239,-0.659 -4.724,-0.992 -0.296,-0.066 -0.589,-0.098 -0.877,-0.098 -2.143,0 -3.977,1.748 -3.977,4 0,1.867 1.284,3.488 3.105,3.899 1.582,0.357 3.221,0.704 4.927,1.04 C -50.754,-6.085 -25.906,-4 0,-4" /></g></g></g></g></svg>