<svg xmlns="http://www.w3.org/2000/svg" xml:space="preserve" width="313.398" height="224"><defs><clipPath id="a" clipPathUnits="userSpaceOnUse"><path d="M0 256h256V0H0Z"/></clipPath></defs><g clip-path="url(#a)" transform="matrix(1.33333 0 0 -1.33333 -13.967 282.667)"><path d="M0 0c0-4.411-3.589-8-8-8h-92c-4.411 0-8 3.589-8 8v80c0 4.411 3.589 8 8 8h92c4.411 0 8-3.589 8-8zm-34.717-20h-34.566c3.454 4.777 9.887 8 17.283 8s13.829-3.223 17.283-8m11.799-4c1.387-2.387 3.965-4 6.918-4s5.531 1.613 6.918 4H-4c2.2 0 4-1.8 4-4s-1.8-4-4-4h-5.082c-1.387 2.387-3.965 4-6.918 4s-5.531-1.613-6.918-4h-62.165c-1.385 2.387-3.964 4-6.917 4s-5.532-1.613-6.917-4H-104c-2.2 0-4 1.8-4 4s1.8 4 4 4h5.083c1.385-2.387 3.964-4 6.917-4s5.532 1.613 6.917 4h56.6zm3.232 5.557A4.01 4.01 0 0 0-16-16a4 4 0 1 0-3.686-2.443M-16-40q-.415 0-.807.081a4 4 0 0 0-1.429.603 4 4 0 0 0-1.45 1.759A4 4 0 1 0-16-40m-36-4c-7.396 0-13.829 3.223-17.283 8h34.566c-3.454-4.777-9.887-8-17.283-8m-40 4q-.415 0-.806.081a4 4 0 0 0-1.43.603 4.03 4.03 0 0 0-1.45 1.759A4 4 0 1 0-92-40m-3.686 21.557a4.03 4.03 0 0 0 1.45 1.759A3.95 3.95 0 0 0-92-16a4 4 0 1 0-3.686-2.443M-8 92h-92c-6.627 0-12-5.373-12-12V0c0-6.627 5.373-12 12-12h33.65c-3.303-2.063-5.944-4.813-7.622-8H-84c0 4.411-3.589 8-8 8s-8-3.589-8-8h-4c-4.411 0-8-3.589-8-8s3.589-8 8-8h4c0-4.411 3.589-8 8-8s8 3.589 8 8h10.028C-70.259-43.053-61.818-48-52-48s18.259 4.947 21.972 12H-24c0-4.411 3.589-8 8-8s8 3.589 8 8h4c4.411 0 8 3.589 8 8s-3.589 8-8 8h-4c0 4.411-3.589 8-8 8s-8-3.589-8-8h-6.028c-1.678 3.187-4.319 5.937-7.622 8H-8C-1.373-12 4-6.627 4 0v80c0 6.627-5.373 12-12 12" style="fill:#fff;fill-opacity:1;fill-rule:nonzero;stroke:none" transform="translate(180 100)"/><path d="M84 176h84v-76H84Zm-4-80h92v84H80Z" style="fill:#fff;fill-opacity:1;fill-rule:nonzero;stroke:none"/><path d="m0 0-20.12 14.077a24 24 0 0 1-.779-4.337L-1.354-3.935A29.4 29.4 0 0 1 0 0" style="fill:#fff;fill-opacity:1;fill-rule:nonzero;stroke:none" transform="translate(208.996 88.349)"/><path d="m0 0-2.325 1.627A24 24 0 0 1-6.992.01L.382-5.148A885 885 0 0 1 0 0" style="fill:#fff;fill-opacity:1;fill-rule:nonzero;stroke:none" transform="translate(208.847 117.744)"/><path d="M0 0q0 .689-.01 1.417l-17.651 12.35a24 24 0 0 1-2.017-3.472L-.192-3.337C-.07-2.249 0-1.139 0 0" style="fill:#fff;fill-opacity:1;fill-rule:nonzero;stroke:none" transform="translate(210 96)"/><path d="m0 0 13.904-9.728a32 32 0 0 1 2.245 3.312L-1.492 5.926A24 24 0 0 1 0 0" style="fill:#fff;fill-opacity:1;fill-rule:nonzero;stroke:none" transform="translate(189.67 87.225)"/><path d="m0 0-11.521 8.061a24 24 0 0 1-3.14-2.685L.27-5.069A314 314 0 0 1 0 0" style="fill:#fff;fill-opacity:1;fill-rule:nonzero;stroke:none" transform="translate(209.57 107.475)"/><path d="M0 0a6 6 0 0 0 12 0A6 6 0 0 0 0 0m20-58S16.598-75.013.377-77.656c-4.111-.671-8.197-1.492-12.211-2.608a509 509 0 0 0-27.513-6.817c.668 1.503 2.511 3.253 8.612 5.286 6.879 2.293 14.037 7.082 19.214 13.861l2.928-2.049a24.2 24.2 0 0 1 6.078.629l-6.749 4.722a37 37 0 0 1 1.906 3.549l9.51-6.654a24 24 0 0 1 3.807 2.218l-11.783 8.245a35 35 0 0 1 1.097 4.113l13.826-9.672a24 24 0 0 1 2.57 3.083L-4.11-48.71c.066.891.11 1.792.11 2.71 0 .675-.009 1.385-.022 2.109l17.707-12.387a24 24 0 0 1 1.446 3.87L-4.188-38.893a317 317 0 0 1-.275 5.075L15.91-48.072a24 24 0 0 1-.081 4.938L-4.807-28.696c-.12 1.678-.249 3.398-.383 5.15l19.527-13.662a23.9 23.9 0 0 1-8.575 10.882 23.86 23.86 0 0 1-11.06 4.172c-.175 2.228-.356 4.502-.541 6.802A14.05 14.05 0 0 1-.483-7.6 9.95 9.95 0 0 1 6-10c5.514 0 10 4.486 10 10S11.514 10 6 10c-3.889 0-7.258-2.236-8.911-5.485a14.1 14.1 0 0 1-4.647 3.902C-7.828 13.298-8 17.904-8 22a37 37 0 0 1-.265 4.269A10 10 0 0 1-6 26c5.514 0 10 4.486 10 10S-.486 46-6 46a9.95 9.95 0 0 1-6.833-2.719C-15.328 49.623-19.051 57.178-24.579 66h2.69C-14.356 65.8-.049 63.464 8 42 20 10 24-26 20-58M-9.011 30.815A6 6 0 0 0-12 36c0 1.061.277 2.055.761 2.92q.179.317.394.609l.074.1q.207.272.442.519l.033.036q.26.267.551.499l.079.059q.244.19.51.354l.146.089q.284.166.587.301l.057.028q.332.14.681.242.09.025.18.046.27.07.55.115.104.018.209.032c.245.03.493.051.746.051a6 6 0 0 0 0-12 6 6 0 0 0-.739.05q-.092.013-.182.028-.298.046-.586.12-.062.015-.122.032a6 6 0 0 0-1.382.585m2.769-41.12a10 10 0 0 0-3.784-2.87 10 10 0 0 0-1.874-.6l-.043-.011a10 10 0 0 0-.887-.14c-.044-.005-.086-.015-.131-.02A10 10 0 0 0-14-14c-5.522 0-10 4.477-10 10s4.478 10 10 10c.43 0 .85-.036 1.265-.088l.157-.025a9.95 9.95 0 0 0 6.037-3.243l.004-.004a10 10 0 0 0 .62-.769q.012-.015.022-.031.276-.381.515-.788l.047-.078A10 10 0 0 0-4.93.19l.067-.136q.164-.376.299-.765l.073-.201c.079-.245.143-.496.204-.748.021-.085.047-.168.065-.254.054-.25.09-.507.124-.764.012-.09.032-.176.041-.267Q-4.002-3.465-4-4q-.002-.486-.049-.959c-.01-.107-.028-.212-.042-.319a10 10 0 0 0-.093-.612q-.038-.19-.084-.376a10 10 0 0 0-.258-.919 12 12 0 0 0-.336-.867q-.097-.211-.201-.417c-.068-.135-.134-.271-.208-.402-.071-.127-.149-.249-.225-.372a10 10 0 0 0-.726-1.035zm-37.473-77.701-.31-.064q-1.071-.221-2.154-.438l-.732-.147q-1.118-.222-2.249-.44l-.669-.13q-1.204-.229-2.417-.453l-.533-.098a341 341 0 0 0-9.033-1.532q-.32-.049-.642-.096-1.163-.18-2.326-.349-.487-.07-.973-.137-.997-.141-1.993-.276l-1.126-.147q-.923-.12-1.845-.233-.596-.073-1.191-.142a273 273 0 0 0-1.768-.201q-.614-.067-1.226-.131-.861-.088-1.717-.171-.623-.06-1.242-.116-.848-.075-1.69-.144-.614-.05-1.225-.097a168 168 0 0 0-1.691-.116q-.596-.041-1.189-.076-.866-.05-1.725-.089-.555-.029-1.106-.053-.939-.036-1.867-.06c-.305-.008-.615-.021-.917-.028Q-90.651-94-92-94t-2.728.03c-.304.007-.612.02-.918.028q-.928.024-1.867.06-.55.024-1.106.053-.858.04-1.724.089-.594.035-1.191.076-.841.053-1.69.116-.611.046-1.225.097-.842.069-1.69.144l-1.242.116q-.857.082-1.716.171-.613.064-1.228.131-.882.098-1.767.201l-1.192.142q-.92.113-1.844.233l-1.126.147q-.996.135-1.993.276l-.973.137q-1.163.17-2.326.349l-.642.096c-3.031.471-6.052.986-9.032 1.532l-.533.098q-1.214.224-2.418.453l-.669.13q-1.13.218-2.249.44l-.732.147q-1.083.217-2.153.438l-.312.064C-140.99-83.705-143.445-80.852-152-78c-12 4-24 16-24 32 0 6.291.619 15.061 1.37 24.597C-170.772-20.016-168-16.33-168-12v2h2c5.514 0 10 4.486 10 10s-4.486 10-10 10h-2v2c0 3.268-1.582 6.165-4.013 7.991Q-172 21.014-172 22c0 .363.013.73.025 1.098.148.086.283.19.423.285C-170.464 20.255-167.494 18-164 18c4.411 0 8 3.589 8 8s-3.589 8-8 8a7.95 7.95 0 0 1-4.453-1.358 8 8 0 0 1-1.35 2.409c3.653 12.166 10.977 24.512 14.999 30.76 7.111-.395 22.727-1.342 36.608-2.194l.249-.015 10.831-.666.387-.024 8.609-.533.146-.008 3.261-.203.071-.004 2.135-.132L-92 62l.948.059 1.765.109 3.262.203.144.008 8.997.557 10.831.666.249.015c13.881.852 29.497 1.799 36.608 2.194 3.581-5.563 9.78-15.96 13.676-26.759A10 10 0 0 1-16 36c0-2.973 1.312-5.64 3.378-7.473.395-2.235.622-4.426.622-6.527 0-3.717.139-7.849.363-12.215-.769.132-1.556.215-2.363.215-7.72 0-14-6.28-14-14s6.28-14 14-14c1.503 0 2.948.244 4.306.685C-8.806-28.412-8-38.818-8-46c0-16-12-28-24-32-8.556-2.852-11.01-5.705-11.715-10.006M-188 22a4 4 0 1 0 0 8 4 4 0 0 0 0-8m7.543 1.36A7.96 7.96 0 0 1-176 22l-.001-.201a9.9 9.9 0 0 1-5.498-.443c.437.61.789 1.284 1.042 2.004M-166 6a6 6 0 0 0 0-12h-6v-6q-.002-.335-.038-.662-.014-.1-.031-.2a5 5 0 0 0-.078-.444q-.026-.11-.056-.219a6 6 0 0 0-.12-.406 7 7 0 0 0-.246-.607l-.084-.175a6 6 0 0 0-.236-.418q-.036-.062-.074-.122a6 6 0 0 0-.362-.504A5.99 5.99 0 0 0-178-18c-.524 0-1.029.074-1.513.2l-.004.001a6 6 0 0 0-.533.166l-.014.005a6 6 0 0 0-.499.209l-.027.014a6 6 0 0 0-.46.245l-.045.027q-.212.128-.414.273l-.062.047q-.19.139-.366.293l-.081.073a6 6 0 0 0-.316.305l-.095.104a6 6 0 0 0-.268.311l-.103.137q-.115.153-.222.313c-.038.056-.071.117-.107.174q-.093.151-.178.307c-.037.07-.068.143-.103.215q-.072.146-.137.295c-.035.085-.063.173-.095.26-.033.092-.069.183-.097.278-.032.102-.054.206-.08.31-.021.084-.046.167-.063.252-.025.126-.041.254-.058.383-.009.067-.023.133-.03.2q-.03.298-.03.603v6h-6a6 6 0 0 0 0 12h6v6a6 6 0 0 0 6 6c.319 0 .631-.032.937-.08l.101-.016a5.99 5.99 0 0 0 4.902-5.1l.011-.07c.029-.241.049-.485.049-.734V6Zm-10 20a4 4 0 1 0 0 8 4 4 0 0 0 0-8m12 4a4 4 0 1 0 0-8 4 4 0 0 0 0 8m-8.166-110.264c-4.014 1.116-8.099 1.937-12.211 2.608C-200.598-75.013-204-58-204-58c-4 32 0 68 12 100 8.049 21.464 22.356 23.8 29.889 24h2.691c-7.322-11.683-11.482-21.148-13.805-28.506A8 8 0 0 1-176 38c-3.485 0-6.449-2.244-7.543-5.36A7.96 7.96 0 0 1-188 34c-4.411 0-8-3.589-8-8s3.589-8 8-8a8 8 0 0 1 2.268.332A9.95 9.95 0 0 1-188 12v-2h-2c-5.514 0-10-4.486-10-10s4.486-10 10-10h2v-2c0-5.282 4.12-9.609 9.313-9.965C-179.414-31.253-180-39.761-180-46c0-18.471 13.859-31.503 26.735-35.795 6.101-2.033 7.943-3.783 8.612-5.286a508 508 0 0 0-27.513 6.817M11.745 43.404C7.908 53.636 2.244 61.04-5.091 65.41c-4.898 2.92-10.358 4.421-16.691 4.589l-.054.001h-3.516c-.202 0-.807-.026-1.736-.073l-.005.007-2.325-.129c-3.578-.199-9.347-.54-15.973-.939A26237 26237 0 0 1-92 66.008c-4.803.299-28.767 1.786-46.609 2.858-6.626.399-12.395.74-15.974.939l-2.324.129-.005-.007c-.929.047-1.535.073-1.736.073h-3.516l-.053-.001c-6.333-.168-11.793-1.669-16.693-4.589-7.334-4.37-12.999-11.774-16.835-22.006-12.073-32.193-16.414-68.382-12.224-101.9l.018-.146.029-.142c.161-.806 4.161-19.767 22.901-22.82 4.459-.727 8.313-1.549 11.785-2.514a509 509 0 0 1 29.444-7.226l.004-.023 2.692-.557c16.826-3.482 31.435-5.478 43.544-5.959l.184-.008q1.15-.044 2.269-.068l.479-.014q1.332-.026 2.62-.027 1.288 0 2.619.027l.48.014q1.119.024 2.269.068l.184.008c12.109.481 26.719 2.477 43.544 5.959l2.692.557.004.023a509 509 0 0 1 29.444 7.226c3.472.965 7.326 1.787 11.785 2.514 18.74 3.053 22.74 22.014 22.901 22.82l.029.142.018.146c4.19 33.518-.152 69.707-12.224 101.9" style="fill:#fff;fill-opacity:1;fill-rule:nonzero;stroke:none" transform="translate(220 142)"/></g></svg>