<svg xmlns="http://www.w3.org/2000/svg" xml:space="preserve" width="320" height="261.333"><defs><clipPath id="a" clipPathUnits="userSpaceOnUse"><path d="M0 256h256V0H0Z"/></clipPath></defs><g clip-path="url(#a)" transform="matrix(1.33333 0 0 -1.33333 -10.667 298.667)"><path d="M0 0h-24.222l-.111-.006-72-4-.138-.008-.136-.017c-.355-.044-8.778-1.134-17.293-5.391-11.914-5.957-18.211-15.148-18.211-26.578v-152c0-4.411 3.589-8 8-8h224c4.411 0 8 3.589 8 8v152c0 11.43-6.297 20.621-18.211 26.578-8.516 4.257-16.939 5.347-17.293 5.391l-.137.017-.138.008-72 4zm-.111-4 72-4s32-4 32-28v-152a4 4 0 0 0-4-4h-224a4 4 0 0 0-4 4v152c0 24 32 28 32 28l72 4z" style="fill:#fff;fill-opacity:1;fill-rule:nonzero;stroke:none" transform="translate(140.111 224)"/><path d="M0 0a8 8 0 1 1 0-16A8 8 0 0 1 0 0m0-4c2.206 0 4-1.794 4-4s-1.794-4-4-4-4 1.794-4 4 1.794 4 4 4" style="fill:#fff;fill-opacity:1;fill-rule:nonzero;stroke:none" transform="translate(36 204)"/><path d="M0 0c0-8.822-7.178-16-16-16h-164c-8.822 0-16 7.178-16 16v106.984c1.216 1.697 6.649 6.779 29.578 11.296 18.72 3.689 43.02 5.72 68.422 5.72s49.701-2.031 68.422-5.72c22.93-4.517 28.361-9.599 29.578-11.296zm-98 128c-53.207 0-97.314-8.787-102-20V0c0-11.046 8.954-20 20-20h164C-4.954-20 4-11.046 4 0v108c-4.686 11.213-48.793 20-102 20" style="fill:#fff;fill-opacity:1;fill-rule:nonzero;stroke:none" transform="translate(228 68)"/><path d="M0 0c-26.157 0-51.28-2.112-70.742-5.946a186 186 0 0 1-5.033-1.063C-79.44-7.836-82-11.043-82-14.81c0-4.411 3.578-8 7.977-8 .585 0 1.174.066 1.75.195 1.478.331 3.033.657 4.624.971C-49.175-18.004-25.15-16 0-16s49.176-2.004 67.648-5.644l.785-.156a8 8 0 0 1 1.586-.159c4.401 0 7.981 3.588 7.981 7.998 0 3.796-2.691 7.093-6.398 7.843l-.86.172C51.28-2.112 26.157 0 0 0m0-4c25.905 0 50.754-2.085 69.969-5.871l.84-.167A3.99 3.99 0 0 0 74-13.956v-.005a3.994 3.994 0 0 0-4.778-3.918l-.8.159C49.701-14.031 25.402-12 0-12s-49.702-2.031-68.422-5.72a184 184 0 0 1-4.724-.992 4 4 0 0 0-.877-.098 3.995 3.995 0 0 0-3.977 4 3.99 3.99 0 0 0 3.105 3.899c1.582.357 3.221.704 4.927 1.04C-50.754-6.085-25.906-4 0-4" style="fill:#fff;fill-opacity:1;fill-rule:nonzero;stroke:none" transform="translate(130 216)"/></g></svg>