<svg xmlns="http://www.w3.org/2000/svg" xml:space="preserve" viewBox="0 0 256 256"><path d="M80 111.881h96a3.88 3.88 0 0 0 3.881-3.881V44A3.88 3.88 0 0 0 176 40.119H80A3.88 3.88 0 0 0 76.119 44v64A3.88 3.88 0 0 0 80 111.881M80 44h96v64H80z" style="fill:#fff"/><path d="M99.432 60q-.242 0-.486.011c-4.205.189-8.468 2.341-11.404 5.759-2.613 3.042-3.849 6.625-3.478 10.09.593 5.559 8.44 12.14 14.475 12.14q.365 0 .716-.03c3.609-.312 8.405-2.046 11.044-5.981 1.627-2.426 2.097-5.32 1.345-8.203C111.078 65.768 106.001 60 99.432 60m-.52 23.984a4 4 0 0 1-.373.016c-3.961 0-10.123-5.047-10.499-8.565-.575-5.378 5.03-11.157 11.084-11.428q.155-.007.308-.007c4.465 0 7.958 4.396 8.246 10.458 1.752 5.608-3.996 9.115-8.766 9.526M145.377 56h-.036c-3.298 0-6.713 1.58-9.37 4.336-2.637 2.734-4.082 6.173-3.964 9.434.194 5.354 5.7 10.23 11.553 10.23q.257 0 .514-.013c10.736-.533 12.073-6.819 11.915-10.519-.334-7.784-4.797-13.448-10.612-13.468m-1.502 19.992q-.157.008-.315.008c-3.673 0-7.438-3.134-7.555-6.375-.167-4.603 4.709-9.625 9.337-9.625h.022c3.615.012 6.389 4.046 6.629 9.639.173 4.078-2.369 6.068-8.118 6.353" style="fill:#fff"/><path d="M199.111 16.003H56.889c-7.105 0-12.886 5.681-12.886 12.663v138.667c0 6.983 5.78 12.663 12.886 12.663h8.88l-.004-.028h26.888c-.17.546-.334 1.15-.452 1.802-1.087 6.013-2.221 12.431-3.094 18.961-.298 2.229-.439 5.529.578 8.587q.114.339.245.678l.107.287a4 4 0 0 0 1.554 1.978c-.096.24-.176.485-.224.738a6.1 6.1 0 0 0-2.223-.42 6.17 6.17 0 0 0-3.434 1.028c-1.694-.879-3.47-1.324-5.304-1.324-3.766 0-6.968 1.846-9.541 3.329-.554.319-1.157.614-1.797.925-2.306 1.124-5.176 2.524-7.323 5.981-4.106 6.612.033 10.886 1.801 12.712 1.991 2.056 4.859 3.494 7.483 3.752 6.298.619 11.979 1.131 17.726 1.131q.984 0 1.966-.021c5.326-.115 10.172-2.675 13.297-7.022 3.004-4.18 3.877-9.298 2.394-14.04-.556-1.779-1.677-3.508-3.427-5.284a5 5 0 0 1-.383-.431c.123-.069.247-.135.363-.217q.164-.117.352-.233a4 4 0 0 0 1.297-5.565c-4.064-6.389-2.61-17.077 3.383-24.86a4 4 0 0 0 .821-2.472h28.067c-.01.47.062.945.221 1.401 1.863 5.361 3.276 11.274 4.642 16.992.582 2.436 1.184 4.956 1.818 7.422.63 2.454 1.183 5.038 1.718 7.537q.378 1.777.769 3.549a4 4 0 0 0 1.704 2.447l-5.143 3.057a4 4 0 0 0-1.512 1.606 15.5 15.5 0 0 0-1.447 4.259 6.01 6.01 0 0 0 2.256 5.851c.944.715 1.875 1.236 2.847 1.593 2.274.835 4.598.942 6.369.942.86 0 1.704-.029 2.521-.057.567-.019 1.132-.039 1.687-.047 9.386-.138 17.46-4.01 25.59-8.31 2.37-1.254 4.109-3.283 5.635-5.29 3.141-4.129 2.277-9.511-2.102-13.087-4.039-3.299-8.758-4.903-14.427-4.903-1.687 0-3.439.14-5.358.428-3.384.508-5.928 1.029-7.846 3.104a8.1 8.1 0 0 0-1.398 2.111l-.655-5.15c-.998-7.829-2.031-15.925-3.003-23.893-.063-.517-.138-1.04-.212-1.563h40.565l.002.028h6.985c7.105 0 12.886-5.681 12.886-12.663V28.667c0-6.983-5.781-12.664-12.886-12.664M90.635 236.094q-.94.02-1.88.02c-5.778 0-11.576-.546-17.335-1.112-1.758-.173-3.753-1.265-5.001-2.553-2.048-2.115-3.561-4.138-1.276-7.819 2.04-3.285 4.98-3.971 7.719-5.551 2.471-1.425 4.94-2.795 7.543-2.795 1.512 0 3.069.462 4.7 1.643.452.327 1.14.329 1.906.532l.006-.043c.162-1.15 1.132-1.837 2.126-1.837.586 0 1.18.239 1.621.763l4.868 5.787c2.348-1.458 4.316-2.745 1.771-6.026-.8-1.032-1.486-2.177-2.107-3.362l3.773 1.509c.273.422.625.856 1.066 1.303 1.022 1.037 2.035 2.315 2.459 3.67 2.356 7.534-3.584 15.69-11.959 15.871m10.604-26.646q-.316.194-.592.39c-1.609-.561-3.62-.91-6.129-.91q-.35 0-.715.009c-.105-.294-.224-.588-.322-.881-.695-2.089-.706-4.571-.409-6.795.84-6.285 1.937-12.538 3.065-18.779.138-.763.376-1.504.632-2.212l2.235.141 5.823-.411c-6.45 8.379-8.964 20.995-3.588 29.448m56.374 7.954c1.514-6.596 1.551-7.17 7.655-8.087 1.604-.241 3.196-.384 4.764-.384 4.224 0 8.27 1.039 11.897 4.001 2.575 2.103 3.381 5.027 1.448 7.568-1.206 1.585-2.614 3.272-4.322 4.175-7.463 3.948-15.056 7.718-23.778 7.846-1.357.02-2.764.104-4.149.104-1.745 0-3.456-.133-4.99-.697-.643-.236-1.241-.595-1.81-1.027a1.97 1.97 0 0 1-.74-1.928 11.5 11.5 0 0 1 1.07-3.162l8.41-4.998c1.742-.401 4.212-1.96 4.545-3.411m-5.613-2.09-2.042.688c-.833-3.74-1.571-7.527-2.517-11.211-2.126-8.276-3.824-16.87-6.556-24.732l6.641-.057c.097.675.193 1.349.274 2.015 1.356 11.11 2.794 22.2 4.2 33.297M188 176v-14a2 2 0 1 0-4 0v14h-4v-14a2 2 0 1 0-4 0v14h-4v-14a2 2 0 1 0-4 0v14h-4v-14a2 2 0 1 0-4 0v14h-4v-14a2 2 0 1 0-4 0v14h-4v-14a2 2 0 1 0-4 0v14h-4v-14a2 2 0 1 0-4 0v14h-4v-14a2 2 0 1 0-4 0v14h-4v-14a2 2 0 1 0-4 0v14h-4v-14a2 2 0 1 0-4 0v14h-4v-14a2 2 0 1 0-4 0v14h-4v-14a2 2 0 1 0-4 0v14h-4v-14a2 2 0 1 0-4 0v14h-4v-14a2 2 0 1 0-4 0v14h-4v-14a2 2 0 1 0-4 0v14h-4v-20h124v20zm20-8.667c0 4.786-3.98 8.667-8.889 8.667h-3.143v-23.968H64.032V176H56v-.044c-4.492-.435-8-4.129-8-8.623V28.667C48 23.88 51.98 20 56.889 20h142.222c4.909 0 8.889 3.88 8.889 8.667z" style="fill:#fff"/><path d="M184 32H72a4 4 0 0 0-4 4v80a4 4 0 0 0 4 4h112a4 4 0 0 0 4-4V36a4 4 0 0 0-4-4m0 84H72V36h112z" style="fill:#fff"/></svg>