<svg xmlns="http://www.w3.org/2000/svg" xml:space="preserve" width="320" height="320"><defs><clipPath id="a" clipPathUnits="userSpaceOnUse"><path d="M0 256h256V0H0Z"/></clipPath></defs><g clip-path="url(#a)" transform="matrix(1.33333 0 0 -1.33333 -10.667 330.667)"><path d="m0 0 92.261 92.261a589 589 0 0 1 16.146-17.142c2.647-2.698 3.053-3.113 4.747-3.113.598 0 1.189.135 1.728.392.712.341.882.422 8.04 7.908 3.787 3.96 9.505 10.048 15.234 16.558 22.99 26.127 23.009 32.67 23.016 35.133.022 7.724-2.893 15.09-7.997 20.209-.161.162-.33.315-.496.473l76.493 76.493V0Zm148.291 151.184.071-.056a22 22 0 0 0 1.489-1.277c4.886-4.602 7.34-11.216 7.321-17.842-.035-12.006-44.015-56.005-44.018-56.003-.003 0-8.521 8.521-18.062 19.086l.001.001a428 428 0 0 0-2.673 2.984v-.001c-11.403 12.846-23.265 27.7-23.283 33.933C69.103 144.017 77.172 156 93.172 156c15.425 0 19.696-7.433 19.982-7.967.287.534 4.558 7.967 19.983 7.967 5.427 0 9.939-1.382 13.535-3.672a22 22 0 0 0 1.619-1.144M226.344 232l-76.788-76.789c-4.572 3.142-10.16 4.789-16.419 4.789-7.215 0-13.207-1.482-17.813-4.407a21 21 0 0 1-2.189-1.596c-3.374 2.808-9.51 6.003-19.963 6.003-8.025 0-14.954-2.695-20.038-7.794-5.105-5.119-8.019-12.485-7.997-20.209.007-2.463.026-9.007 23.016-35.134.479-.545.957-1.081 1.435-1.619L-2.828 2.828V232Zm2.828 4h-236V-4h240v240z" style="fill:#fff;fill-opacity:1;fill-rule:nonzero;stroke:none" transform="translate(14.828 12)"/></g></svg>