<svg xmlns="http://www.w3.org/2000/svg" xml:space="preserve" width="309.333" height="240"><defs><clipPath id="a" clipPathUnits="userSpaceOnUse"><path d="M0 256h256V0H0Z"/></clipPath></defs><path d="M0 0v-124h-224v20h8v8h-8v4h8v4h-8v4h8v4h-8v4h8v4h-8v4h8v4h-8v4h8v4h-8v4h8v4h-8v4h8v4h-8v4h8v4h-8v4h8v4h-8v4h8v4h-8v4h8v8h-8v52H0Zm0 52h-228v-180H4V52z" style="fill:#fff;fill-opacity:1;fill-rule:nonzero;stroke:none" transform="matrix(1.33333 0 0 -1.33333 304 69.333)"/><g clip-path="url(#a)" transform="matrix(1.33333 0 0 -1.33333 -16 288)"><path d="M0 0a2 2 0 1 1 .001-4.001A2 2 0 0 1 0 0" style="fill:#fff;fill-opacity:1;fill-rule:nonzero;stroke:none" transform="translate(22 48)"/><path d="M0 0a2 2 0 1 1-.001 4.001A2 2 0 0 1 0 0" style="fill:#fff;fill-opacity:1;fill-rule:nonzero;stroke:none" transform="translate(22 204)"/><path d="M0 0a2 2 0 1 1 .001-4.001A2 2 0 0 1 0 0" style="fill:#fff;fill-opacity:1;fill-rule:nonzero;stroke:none" transform="translate(234 48)"/><path d="M0 0a2 2 0 1 1-.001 4.001A2 2 0 0 1 0 0" style="fill:#fff;fill-opacity:1;fill-rule:nonzero;stroke:none" transform="translate(234 204)"/><path d="M0 0h36v-8H0Zm4 12h40V4H4Zm28-40h-8v16h8zm-12 0H4v12h16ZM-4 0v-12h4v-20h36v20h4V0h8v16H0V4h-4z" style="fill:#fff;fill-opacity:1;fill-rule:nonzero;stroke:none" transform="translate(68 188)"/><path d="M0 0a4 4 0 1 0-8 0 4 4 0 0 0 8 0m-8 12a4 4 0 1 0 8 0 4 4 0 0 0-8 0m-4-12c0-4.411 3.589-8 8-8s8 3.589 8 8a7.98 7.98 0 0 1-2.726 6A7.98 7.98 0 0 1 4 12c0 4.411-3.589 8-8 8s-8-3.589-8-8a7.98 7.98 0 0 1 2.726-6A7.98 7.98 0 0 1-12 0" style="fill:#fff;fill-opacity:1;fill-rule:nonzero;stroke:none" transform="translate(32 180)"/><path d="M0 0a4 4 0 1 0 0-8 4 4 0 0 0 0 8m4-16a4 4 0 1 0-8 0 4 4 0 0 0 8 0m-9.274 6A7.98 7.98 0 0 1-8-16c0-4.411 3.589-8 8-8s8 3.589 8 8a7.98 7.98 0 0 1-2.726 6A7.98 7.98 0 0 1 8-4C8 .411 4.411 4 0 4S-8 .411-8-4a7.98 7.98 0 0 1 2.726-6" style="fill:#fff;fill-opacity:1;fill-rule:nonzero;stroke:none" transform="translate(44 184)"/><path d="M0 0a2 2 0 1 1-.001 4.001A2 2 0 0 1 0 0" style="fill:#fff;fill-opacity:1;fill-rule:nonzero;stroke:none" transform="translate(38 196)"/><path d="M0 0a2 2 0 1 1-.001 4.001A2 2 0 0 1 0 0" style="fill:#fff;fill-opacity:1;fill-rule:nonzero;stroke:none" transform="translate(46 196)"/><path d="M0 0a2 2 0 1 1-.001 4.001A2 2 0 0 1 0 0" style="fill:#fff;fill-opacity:1;fill-rule:nonzero;stroke:none" transform="translate(54 196)"/><path d="M0 0a2 2 0 1 1-.001 4.001A2 2 0 0 1 0 0" style="fill:#fff;fill-opacity:1;fill-rule:nonzero;stroke:none" transform="translate(62 200)"/><path d="M164 192h-24v-4h24zm0-12h-24v-4h24zm-52-4h24v4h-24zm-4-8h20v4h-20zm36 4h-12v-4h12zm20 0h-16v-4h16zm-56-12h24v4h-24zm-44 0H48v-4h16zm-32-4h12v4H32Z" style="fill:#fff;fill-opacity:1;fill-rule:nonzero;stroke:none"/><path d="M0 0h20v-20H0Zm24 8v24h8V-4h-8v8ZM0 32h20V12H0Zm24 16v24h8V36h-8ZM0 72h20V52H0Zm24 8v28h8V76h-8ZM0 104h20V84H0Zm36 4h8V76h-8zm8-72h-8v36h8zm0-40h-8v36h8zm0-16h-8v12h8zm-12 0h-8v12h8zm-12-4h28v136H20v-4H-4V80h24v-4H-4V48h24V36H-4V8h24V4H-4v-28h4z" style="fill:#fff;fill-opacity:1;fill-rule:nonzero;stroke:none" transform="translate(184 92)"/><path d="M164 100h-28v8h28zm-32 0h-28v8h28zm36 0v12h-68V96h68zm32 108h-16v-4h16z" style="fill:#fff;fill-opacity:1;fill-rule:nonzero;stroke:none"/><path d="M0 0h-20v8H0Zm-4-12h-16v8h16zm4-12h-20v8H0zm-4-12h-16v8h16zm4-16h-20v8H0Zm-20 64h-4v-68H4v16H0v12h4v16H0v8h4v16H0Z" style="fill:#fff;fill-opacity:1;fill-rule:nonzero;stroke:none" transform="translate(52 116)"/><path d="M28 52h28v4H28Zm0-8h28v4H28Zm32 76h16v4H60Zm36 4H80v-4h16zm-36-12h16v4H60Zm20 0h16v4H80Zm-20-8h16v4H60Zm20 0h16v4H80Zm-20-8h16v4H60Zm20 0h16v4H80Zm-20-8h16v4H60Zm20 0h24v4H80Zm-20-8h16v4H60Zm0-8h16v4H60Zm0-8h16v4H60Zm0-8h16v4H60Zm0-8h16v4H60Zm20 24h16v4H80Zm0-8h16v4H80Zm0-8h16v4H80Zm0-8h16v4H80Zm20 24h12v4h-12zm0-8h12v4h-12zm0-8h12v4h-12zm0-8h12v4h-12zm16 24h12v4h-12zm0-8h12v4h-12zm0-8h12v4h-12zm0-8h12v4h-12zM80 80h24v4H80Zm44 12h-16v-4h16zm-16-12h16v4h-16zm36 12h-12v-4h12zm-12-12h12v4h-12zm0-8h12v4h-12zm0-8h12v4h-12zm0-8h12v4h-12zm0-8h12v4h-12zm20 40h16v4h-16zm0-8h16v4h-16zm0-8h16v4h-16z" style="fill:#fff;fill-opacity:1;fill-rule:nonzero;stroke:none"/><path d="M0 0a4 4 0 1 0 8 0 4 4 0 0 0-8 0m12 0c0 4.411-3.589 8-8 8s-8-3.589-8-8 3.589-8 8-8 8 3.589 8 8" style="fill:#fff;fill-opacity:1;fill-rule:nonzero;stroke:none" transform="translate(32 144)"/><path d="M0 0h-60v16H0V4Zm28-4v-8H0v8h4zm-32-8h-32v8h32zm-84 28h24V8h-24Zm92 8h20V8H4v12zM24 4h4v24H8v4H-4v-4h4v-8h-92V4h28v-8h24v-12h72V0H4v4z" style="fill:#fff;fill-opacity:1;fill-rule:nonzero;stroke:none" transform="translate(140 132)"/><path d="M0 0h8v-4H4L0-8v-8h12v4H4v4h8V4H4Z" style="fill:#fff;fill-opacity:1;fill-rule:nonzero;stroke:none" transform="translate(148 60)"/><path d="M168 60h4V48h-4zm0 4-4-4V44h8l4 4v16h-4z" style="fill:#fff;fill-opacity:1;fill-rule:nonzero;stroke:none"/><path d="M0 0v16h-4l-4-4h4V0l-4-4h8l4 4z" style="fill:#fff;fill-opacity:1;fill-rule:nonzero;stroke:none" transform="translate(188 48)"/><path d="M0 0h-20l4 4H4Z" style="fill:#fff;fill-opacity:1;fill-rule:nonzero;stroke:none" transform="translate(232 60)"/><path d="M0 0h-16l4 4H4Z" style="fill:#fff;fill-opacity:1;fill-rule:nonzero;stroke:none" transform="translate(228 52)"/><path d="M0 0h-12l4 4H4Z" style="fill:#fff;fill-opacity:1;fill-rule:nonzero;stroke:none" transform="translate(224 44)"/><path d="M204 48h-4v4h4zm4 12v4h-8l-4-4V44h8l4 4v8h-8v4z" style="fill:#fff;fill-opacity:1;fill-rule:nonzero;stroke:none"/></g></svg>