<svg xmlns="http://www.w3.org/2000/svg" xml:space="preserve" width="77.333" height="57.333"><defs><clipPath id="a" clipPathUnits="userSpaceOnUse"><path d="M0 64h64V0H0Z"/></clipPath></defs><g clip-path="url(#a)" transform="matrix(1.33333 0 0 -1.33333 -4 72)"><path d="M0 0a1 1 0 0 0-1-1h-2a1 1 0 0 0-1 1v2a1 1 0 0 0 1 1h2a1 1 0 0 0 1-1Zm-5 5a1 1 0 0 0-1-1h-2a1 1 0 0 0-1 1v2a1 1 0 0 0 1 1h2a1 1 0 0 0 1-1zm0-10a1 1 0 0 0-1-1h-2a1 1 0 0 0-1 1v2a1 1 0 0 0 1 1h2a1 1 0 0 0 1-1zm-5 5a1 1 0 0 0-1-1h-2a1 1 0 0 0-1 1v2a1 1 0 0 0 1 1h2a1 1 0 0 0 1-1zm-12 8h-2a1 1 0 0 0 0 2h2a1 1 0 1 0 0-2m0-4h-2a1 1 0 0 0 0 2h2a1 1 0 1 0 0-2m-17-7a4 4 0 1 0 0 8 4 4 0 0 0 0-8m42.084-.999a11.4 11.4 0 0 1 .903 4H4V4a9 9 0 0 1-9 9h-10a1 1 0 0 1-1-1h-1v2a1 1 0 0 1-1 1h-10a1 1 0 0 1-1-1v-2h-1a1 1 0 0 1-1 1h-10a9 9 0 0 1-9-9V.001h.013a11.4 11.4 0 0 1 .903-4S-52-9.998-52-18.997s4-8.999 4-8.999c6.133-.277 10.73 13.747 11.775 17.225a11.52 11.52 0 0 1 8.31 6.772h9.829a11.52 11.52 0 0 1 8.311-6.772C-8.73-14.249-4.133-28.273 2-27.996c0 0 4 0 4 8.999S3.084-3.999 3.084-3.999" style="fill:#fff;fill-opacity:1;fill-rule:nonzero;stroke:none" transform="translate(55 39)"/></g></svg>