<svg xmlns="http://www.w3.org/2000/svg" xml:space="preserve" width="245.333" height="245.333"><defs><clipPath id="a" clipPathUnits="userSpaceOnUse"><path d="M0 256h256V0H0Z"/></clipPath></defs><g clip-path="url(#a)" transform="matrix(1.33333 0 0 -1.33333 -48 293.333)"><path d="M0 0a8.5 8.5 0 0 1-3.9-.94c-.583-.3-.672-.345-13.655-10.573-5.957-4.693-13.475-10.616-17.905-14.037v17.01C-35.46-3.831-39.291 0-44 0a8.5 8.5 0 0 1-3.9-.94c-.584-.3-.672-.345-13.654-10.573-8.399-6.616-19.902-15.678-21.475-16.725-2.775-1.851-4.431-4.752-4.431-7.762 0-3.013 1.661-5.917 4.443-7.77 1.573-1.048 13.087-10.118 21.494-16.74 12.954-10.203 13.041-10.248 13.608-10.54A8.6 8.6 0 0 1-44-72c4.504 0 8.244 3.568 8.509 8.031q.031.246.031.497v17.023c4.432-3.423 11.968-9.359 17.938-14.061C-4.569-70.713-4.482-70.758-3.915-71.05A8.6 8.6 0 0 1 0-72c4.505 0 8.244 3.568 8.51 8.031q.03.246.03.497V-8.54C8.54-3.831 4.709 0 0 0m-44-4a4.54 4.54 0 0 0 4.54-4.54v-54.932c0-.02-.012-.036-.016-.056a4.527 4.527 0 0 0-6.604-3.968c-.736.38-31.74 25.068-34.72 27.056-1.664 1.108-2.66 2.776-2.66 4.44s.992 3.328 2.648 4.432c2.98 1.984 33.988 26.684 34.728 27.064.628.32 1.332.504 2.084.504M0-4a4.54 4.54 0 0 0 4.54-4.54v-54.932c0-.02-.012-.036-.016-.056a4.527 4.527 0 0 0-6.604-3.968c-.736.38-31.74 25.068-34.72 27.056-1.664 1.108-2.66 2.776-2.66 4.44s.992 3.328 2.648 4.432c2.98 1.984 33.988 26.684 34.728 27.064C-1.456-4.184-.752-4 0-4" style="fill:#fff;fill-opacity:1;fill-rule:nonzero;stroke:none" transform="translate(163.46 164)"/><path d="M220 220H36V36h184Zm-4-180H40v176h176z" style="fill:#fff;fill-opacity:1;fill-rule:nonzero;stroke:none"/></g></svg>