<svg xmlns="http://www.w3.org/2000/svg" xml:space="preserve" width="245.333" height="245.333"><defs><clipPath id="a" clipPathUnits="userSpaceOnUse"><path d="M0 256h256V0H0Z"/></clipPath></defs><g clip-path="url(#a)" transform="matrix(1.33333 0 0 -1.33333 -48 293.333)"><path d="M0 0a5.17 5.17 0 0 1-3.854-1.732c-5.394-6.049-8.364-13.89-8.364-22.08 0-8.165 2.954-15.988 8.318-22.029a5.17 5.17 0 0 1 3.861-1.741c1.401 0 2.711.557 3.689 1.565l5.715 5.897 2.698 2.784-2.698 2.783c-2.78 2.868-4.31 6.683-4.31 10.741 0 4.07 1.538 7.893 4.332 10.763l2.703 2.778-2.692 2.79-5.702 5.908A5.16 5.16 0 0 1 0 0m0-4c.295 0 .591-.115.818-.351l5.702-5.908c-3.374-3.467-5.465-8.262-5.465-13.553 0-5.275 2.079-10.059 5.437-13.524L.778-43.232a1.13 1.13 0 0 0-.817-.35c-.318 0-.636.134-.87.397-4.537 5.11-7.309 11.914-7.309 19.373 0 7.482 2.789 14.303 7.349 19.417C-.635-4.133-.317-4 0-4" style="fill:#fff;fill-opacity:1;fill-rule:nonzero;stroke:none" transform="translate(99.91 149.763)"/><path d="M0 0a6.33 6.33 0 0 1-4.683-2.091C-16.591-15.274-23.149-32.431-23.149-50.4c0-17.916 6.523-35.034 18.368-48.201a6.33 6.33 0 0 1 4.691-2.102c1.721 0 3.335.688 4.544 1.936l4.855 5.01 2.698 2.783-2.698 2.784C-.484-78.085-5.877-64.665-5.877-50.4c0 14.306 5.42 27.754 15.263 37.868l2.703 2.779-2.692 2.789-4.844 5.019A6.28 6.28 0 0 1 0 0m0-4c.604 0 1.209-.24 1.675-.722l4.844-5.02C-3.603-20.144-9.877-34.529-9.877-50.4c0-15.827 6.239-30.179 16.314-40.574l-4.855-5.009a2.32 2.32 0 0 0-1.672-.72 2.3 2.3 0 0 0-1.717.777C-12.564-83.968-19.149-67.962-19.149-50.4c0 17.613 6.624 33.659 17.435 45.628A2.3 2.3 0 0 0 0-4" style="fill:#fff;fill-opacity:1;fill-rule:nonzero;stroke:none" transform="translate(73.751 176.351)"/><path d="M0 0a6.3 6.3 0 0 1-4.724-2.151c-8.361-9.542-12.966-21.862-12.966-34.688 0-12.789 4.579-25.08 12.895-34.61a6.28 6.28 0 0 1 4.733-2.147c1.705 0 3.362.702 4.548 1.926l4.844 4.998 2.698 2.784-2.698 2.783C3.044-54.619-.418-46-.418-36.839c0 9.187 3.48 17.822 9.798 24.315l2.703 2.778-2.691 2.789-4.834 5.009A6.3 6.3 0 0 1 0 0m0-4c.605 0 1.213-.243 1.68-.726l4.833-5.009C-.235-16.669-4.418-26.259-4.418-36.839c0-10.551 4.16-20.119 10.876-27.049l-4.845-4.999a2.32 2.32 0 0 0-1.675-.709 2.27 2.27 0 0 0-1.719.777c-7.4 8.481-11.909 19.697-11.909 31.98 0 12.318 4.536 23.563 11.975 32.051C-1.255-4.262-.629-4 0-4" style="fill:#fff;fill-opacity:1;fill-rule:nonzero;stroke:none" transform="translate(86.837 162.79)"/><path d="M0 0c-1.4 0-2.711-.556-3.688-1.565l-5.715-5.897-2.699-2.784 2.699-2.783c2.779-2.868 4.31-6.683 4.31-10.741 0-4.069-1.539-7.892-4.333-10.763l-2.703-2.778 2.691-2.789 5.704-5.909a5.16 5.16 0 0 1 3.696-1.573 5.17 5.17 0 0 1 3.853 1.733C9.209-39.8 12.18-31.959 12.18-23.77c0 8.165-2.954 15.988-8.319 22.029A5.17 5.17 0 0 1 0 0m0-4c.318 0 .637-.134.87-.397C5.407-9.506 8.18-16.311 8.18-23.77c0-7.481-2.789-14.303-7.35-19.417a1.16 1.16 0 0 0-.868-.395 1.13 1.13 0 0 0-.818.351l-5.703 5.908c3.374 3.468 5.466 8.263 5.466 13.553 0 5.275-2.08 10.06-5.438 13.524l5.715 5.897C-.59-4.115-.295-4 0-4" style="fill:#fff;fill-opacity:1;fill-rule:nonzero;stroke:none" transform="translate(156.129 149.819)"/><path d="M0 0a6.28 6.28 0 0 1-4.544-1.935l-4.854-5.009-2.698-2.784 2.698-2.784C.395-22.617 5.787-36.038 5.787-50.302c0-14.306-5.42-27.754-15.263-37.868l-2.703-2.779 2.692-2.789 4.844-5.019a6.3 6.3 0 0 1 4.553-1.946 6.33 6.33 0 0 1 4.684 2.092C16.502-85.428 23.06-68.272 23.06-50.302c0 17.915-6.524 35.034-18.369 48.201A6.33 6.33 0 0 1 0 0m0-4c.627 0 1.253-.259 1.718-.776C12.475-16.733 19.06-32.739 19.06-50.302c0-17.614-6.623-33.659-17.435-45.627a2.3 2.3 0 0 0-1.715-.774c-.603 0-1.209.242-1.675.723l-4.843 5.02C3.514-80.558 9.787-66.172 9.787-50.302c0 15.827-6.239 30.178-16.313 40.574l4.855 5.009C-1.206-4.239-.603-4 0-4" style="fill:#fff;fill-opacity:1;fill-rule:nonzero;stroke:none" transform="translate(182.338 176.351)"/><path d="M0 0a6.37 6.37 0 0 1-4.547-1.925l-4.844-4.999-2.698-2.784 2.698-2.783C-3.105-18.978.356-27.596.356-36.757c0-9.186-3.479-17.822-9.797-24.315l-2.704-2.778 2.692-2.79 4.834-5.007a6.3 6.3 0 0 1 4.558-1.949c1.804 0 3.526.784 4.723 2.151 8.362 9.543 12.967 21.861 12.967 34.688 0 12.789-4.579 25.08-12.896 34.61A6.28 6.28 0 0 1 0 0m0-4c.635 0 1.268-.259 1.72-.777 7.4-8.481 11.909-19.697 11.909-31.98 0-12.318-4.536-23.563-11.975-32.052a2.27 2.27 0 0 0-1.715-.787 2.33 2.33 0 0 0-1.68.726l-4.833 5.009c6.748 6.934 10.93 16.524 10.93 27.104 0 10.551-4.159 20.119-10.875 27.049l4.844 4.999A2.33 2.33 0 0 0 0-4" style="fill:#fff;fill-opacity:1;fill-rule:nonzero;stroke:none" transform="translate(169.224 162.806)"/><path d="M0 0c-8.822 0-16-7.178-16-16s7.178-16 16-16 16 7.178 16 16S8.822 0 0 0m0-4c6.627 0 12-5.373 12-12S6.627-28 0-28s-12 5.373-12 12S-6.627-4 0-4" style="fill:#fff;fill-opacity:1;fill-rule:nonzero;stroke:none" transform="translate(128 142)"/><path d="M220 220H36V36h184Zm-4-180H40v176h176z" style="fill:#fff;fill-opacity:1;fill-rule:nonzero;stroke:none"/></g></svg>