<?xml version="1.0" encoding="UTF-8" standalone="no"?>
<svg
   xmlns:dc="http://purl.org/dc/elements/1.1/"
   xmlns:cc="http://creativecommons.org/ns#"
   xmlns:rdf="http://www.w3.org/1999/02/22-rdf-syntax-ns#"
   xmlns:svg="http://www.w3.org/2000/svg"
   xmlns="http://www.w3.org/2000/svg"
   viewBox="0 0 245.33333 245.33333"
   height="245.33333"
   width="245.33333"
   xml:space="preserve"
   id="svg2"
   version="1.1"><metadata
     id="metadata8"><rdf:RDF><cc:Work
         rdf:about=""><dc:format>image/svg+xml</dc:format><dc:type
           rdf:resource="http://purl.org/dc/dcmitype/StillImage" /></cc:Work></rdf:RDF></metadata><defs
     id="defs6"><clipPath
       id="clipPath18"
       clipPathUnits="userSpaceOnUse"><path
         id="path16"
         d="M 0,256 H 256 V 0 H 0 Z" /></clipPath></defs><g
     transform="matrix(1.3333333,0,0,-1.3333333,-47.999999,293.33333)"
     id="g10"><g
       id="g12"><g
         clip-path="url(#clipPath18)"
         id="g14"><g
           transform="translate(136.4854,119.5146)"
           id="g20"><path
             id="path22"
             style="fill:#ffffff;fill-opacity:1;fill-rule:nonzero;stroke:none"
             d="m 0,0 c -2.343,-2.343 -5.414,-3.515 -8.485,-3.515 -3.072,0 -6.142,1.172 -8.486,3.515 -4.686,4.687 -4.686,12.284 0,16.971 2.344,2.343 5.414,3.514 8.486,3.514 3.071,0 6.142,-1.171 8.485,-3.514 C 4.687,12.284 4.687,4.687 0,0 m -4.485,-47.515 c 0,-2.209 -1.791,-4 -4,-4 -2.209,0 -4,1.791 -4,4 v 40.521 c 1.293,-0.331 2.63,-0.521 4,-0.521 1.369,0 2.707,0.19 4,0.521 z m -8,112 c 0,2.209 1.791,4 4,4 2.209,0 4,-1.791 4,-4 v -40.52 c -1.293,0.331 -2.631,0.52 -4,0.52 -1.37,0 -2.707,-0.189 -4,-0.52 z M 2.828,19.799 c -1.001,1.002 -2.12,1.838 -3.313,2.531 v 42.155 c 0,4.411 -3.589,8 -8,8 -4.411,0 -8,-3.589 -8,-8 V 22.33 c -1.194,-0.693 -2.313,-1.529 -3.314,-2.531 -6.239,-6.238 -6.239,-16.389 0,-22.627 1.002,-1.002 2.12,-1.839 3.314,-2.53 v -42.157 c 0,-4.411 3.589,-8 8,-8 4.411,0 8,3.589 8,8 v 42.157 c 1.193,0.691 2.312,1.528 3.313,2.53 6.238,6.238 6.238,16.389 0,22.627" /></g><g
           transform="translate(88.4854,139.5146)"
           id="g24"><path
             id="path26"
             style="fill:#ffffff;fill-opacity:1;fill-rule:nonzero;stroke:none"
             d="m 0,0 c -2.343,-2.343 -5.414,-3.515 -8.485,-3.515 -3.072,0 -6.142,1.172 -8.486,3.515 -4.686,4.687 -4.686,12.284 0,16.971 2.344,2.343 5.414,3.514 8.486,3.514 3.071,0 6.142,-1.171 8.485,-3.514 C 4.686,12.284 4.686,4.687 0,0 m -4.485,-67.515 c 0,-2.209 -1.791,-4 -4,-4 -2.209,0 -4,1.791 -4,4 v 60.521 c 1.293,-0.332 2.63,-0.521 4,-0.521 1.369,0 2.707,0.189 4,0.521 z m -8,112 c 0,2.209 1.791,4 4,4 2.209,0 4,-1.791 4,-4 v -20.52 c -1.293,0.331 -2.631,0.52 -4,0.52 -1.37,0 -2.707,-0.189 -4,-0.52 z M 2.828,19.799 c -1.001,1.002 -2.12,1.838 -3.313,2.531 v 22.155 c 0,4.411 -3.589,8 -8,8 -4.411,0 -8,-3.589 -8,-8 V 22.33 c -1.194,-0.693 -2.313,-1.529 -3.314,-2.531 -6.239,-6.238 -6.239,-16.389 0,-22.627 1.002,-1.002 2.12,-1.839 3.314,-2.531 v -62.156 c 0,-4.411 3.589,-8 8,-8 4.411,0 8,3.589 8,8 v 62.156 c 1.193,0.692 2.312,1.529 3.313,2.531 6.239,6.238 6.239,16.389 0,22.627" /></g><g
           transform="translate(184.4854,147.5146)"
           id="g28"><path
             id="path30"
             style="fill:#ffffff;fill-opacity:1;fill-rule:nonzero;stroke:none"
             d="m 0,0 c -2.343,-2.343 -5.414,-3.515 -8.485,-3.515 -3.072,0 -6.143,1.172 -8.486,3.515 -4.686,4.687 -4.686,12.284 0,16.971 2.343,2.343 5.414,3.514 8.486,3.514 3.071,0 6.142,-1.171 8.485,-3.514 C 4.687,12.284 4.687,4.687 0,0 m -4.485,-75.515 c 0,-2.209 -1.791,-4 -4,-4 -2.209,0 -4,1.791 -4,4 v 68.521 c 1.293,-0.332 2.631,-0.521 4,-0.521 1.369,0 2.707,0.189 4,0.521 z m -8,112 c 0,2.209 1.791,4 4,4 2.209,0 4,-1.791 4,-4 v -12.52 c -1.293,0.331 -2.631,0.52 -4,0.52 -1.369,0 -2.707,-0.189 -4,-0.52 z M 2.828,19.799 c -1.001,1.002 -2.12,1.838 -3.313,2.531 v 14.155 c 0,4.411 -3.589,8 -8,8 -4.411,0 -8,-3.589 -8,-8 V 22.33 c -1.194,-0.693 -2.313,-1.529 -3.314,-2.531 -6.238,-6.238 -6.238,-16.389 0,-22.627 1.001,-1.002 2.12,-1.839 3.314,-2.531 v -70.156 c 0,-4.411 3.589,-8 8,-8 4.411,0 8,3.589 8,8 v 70.156 c 1.193,0.692 2.312,1.529 3.313,2.531 6.238,6.238 6.238,16.389 0,22.627" /></g><path
           id="path32"
           style="fill:#ffffff;fill-opacity:1;fill-rule:nonzero;stroke:none"
           d="M 220,220 H 36 V 36 H 220 Z M 216,40 H 40 v 176 h 176 z" /></g></g></g></svg>