<svg xmlns="http://www.w3.org/2000/svg" xml:space="preserve" width="245.333" height="245.333"><defs><clipPath id="a" clipPathUnits="userSpaceOnUse"><path d="M0 256h256V0H0Z"/></clipPath></defs><g clip-path="url(#a)" transform="matrix(1.33333 0 0 -1.33333 -48 293.333)"><path d="M0 0s20 4 32 4 32-4 32-4c0-16 24-20 24-20l-8-56c-8-40-48-56-48-56s-40 16-48 56l-8 56S0-16 0 0m-19.96-76.565.016-.111.022-.108c3.454-17.275 13.272-32.943 28.389-45.312 11.345-9.283 21.616-13.445 22.048-13.618l1.485-.595 1.485.595c.432.173 10.703 4.335 22.048 13.618 15.117 12.369 24.935 28.037 28.389 45.312l.022.108.016.111 8 56 .553 3.868-3.856.643C88.457-16.021 68-12.405 68 0v3.279l-3.216.643C63.952 4.089 44.255 8 32 8S.048 4.089-.785 3.922L-4 3.279V0c0-12.405-20.457-16.021-20.664-16.055l-3.841-.653.545-3.857z" style="fill:#fff;fill-opacity:1;fill-rule:nonzero;stroke:none" transform="translate(96 192)"/><path d="M0 0h-24v4.118C-24 10.226-18.168 16-12 16S0 10.226 0 4.118Zm-12 20c-8.318 0-16-7.584-16-15.882V-4H4v8.118C4 12.416-3.683 20-12 20" style="fill:#fff;fill-opacity:1;fill-rule:nonzero;stroke:none" transform="translate(140 140)"/><path d="M0 0h56v-1.526A2.476 2.476 0 0 0 53.521-4H2.479A2.476 2.476 0 0 0 0-1.526Zm0 8h56V4H0Zm0 24h4v8.118C4 53.553 14.533 64 28 64s24-10.447 24-23.882V32h4V12H0ZM2.479-8h51.042C57.093-8 60-5.096 60-1.526V36h-4v4.118C56 55.753 43.701 68 28 68S0 55.753 0 40.118V36h-4V-1.526C-4-5.096-1.093-8 2.479-8" style="fill:#fff;fill-opacity:1;fill-rule:nonzero;stroke:none" transform="translate(100 104)"/><path d="M220 220H36V36h184Zm-4-180H40v176h176z" style="fill:#fff;fill-opacity:1;fill-rule:nonzero;stroke:none"/></g></svg>