<?xml version="1.0" encoding="UTF-8" standalone="no"?>
<svg
   xmlns:dc="http://purl.org/dc/elements/1.1/"
   xmlns:cc="http://creativecommons.org/ns#"
   xmlns:rdf="http://www.w3.org/1999/02/22-rdf-syntax-ns#"
   xmlns:svg="http://www.w3.org/2000/svg"
   xmlns="http://www.w3.org/2000/svg"
   viewBox="0 0 245.33333 245.33333"
   height="245.33333"
   width="245.33333"
   xml:space="preserve"
   id="svg2"
   version="1.1"><metadata
     id="metadata8"><rdf:RDF><cc:Work
         rdf:about=""><dc:format>image/svg+xml</dc:format><dc:type
           rdf:resource="http://purl.org/dc/dcmitype/StillImage" /></cc:Work></rdf:RDF></metadata><defs
     id="defs6" /><g
     transform="matrix(1.3333333,0,0,-1.3333333,-47.999999,293.33333)"
     id="g10"><g
       transform="translate(79.7886,156.8696)"
       id="g12"><path
         id="path14"
         style="fill:#ffffff;fill-opacity:1;fill-rule:nonzero;stroke:none"
         d="M 0,0 -1.789,0.894 -3.577,0 l -1.789,3.577 3.577,1.79 3.578,-1.79 z" /></g><g
       transform="translate(68.3779,152.9526)"
       id="g16"><path
         id="path18"
         style="fill:#ffffff;fill-opacity:1;fill-rule:nonzero;stroke:none"
         d="m 0,0 -1.789,3.578 4.7,2.35 L 4.7,2.35 Z m -7.833,-3.916 -1.789,3.577 4.7,2.35 1.789,-3.577 z m -7.834,-3.917 -1.789,3.578 4.701,2.35 1.789,-3.578 z" /></g><g
       transform="translate(48,141)"
       id="g20"><path
         id="path22"
         style="fill:#ffffff;fill-opacity:1;fill-rule:nonzero;stroke:none"
         d="M 0,0 H -4 V 4.236 L -0.211,6.13 1.578,2.553 0,1.764 Z" /></g><path
       id="path24"
       style="fill:#ffffff;fill-opacity:1;fill-rule:nonzero;stroke:none"
       d="m 48,132.177 h -4 v 5.294 h 4 z m 0,-8.823 h -4 v 5.293 h 4 z m 0,-8.825 h -4 v 5.294 h 4 z" /><g
       transform="translate(47.7886,104.8691)"
       id="g26"><path
         id="path28"
         style="fill:#ffffff;fill-opacity:1;fill-rule:nonzero;stroke:none"
         d="m 0,0 -3.789,1.895 v 4.236 h 4 V 4.367 L 1.789,3.578 Z" /></g><g
       transform="translate(55.6226,100.9531)"
       id="g30"><path
         id="path32"
         style="fill:#ffffff;fill-opacity:1;fill-rule:nonzero;stroke:none"
         d="m 0,0 -4.7,2.35 1.788,3.578 4.7,-2.35 z m 7.833,-3.917 -4.7,2.35 1.789,3.578 4.7,-2.35 z m 7.833,-3.917 -4.7,2.351 1.789,3.578 4.7,-2.351 z" /></g><g
       transform="translate(78,89.7637)"
       id="g34"><path
         id="path36"
         style="fill:#ffffff;fill-opacity:1;fill-rule:nonzero;stroke:none"
         d="M 0,0 -3.578,1.789 -1.789,5.367 0,4.473 1.789,5.367 3.578,1.789 Z" /></g><g
       transform="translate(100.3774,100.9521)"
       id="g38"><path
         id="path40"
         style="fill:#ffffff;fill-opacity:1;fill-rule:nonzero;stroke:none"
         d="M 0,0 -1.789,3.578 2.911,5.929 4.7,2.351 Z m -7.833,-3.916 -1.789,3.578 4.7,2.35 1.789,-3.578 z m -7.834,-3.917 -1.788,3.578 4.7,2.35 1.788,-3.578 z" /></g><g
       transform="translate(108.2114,104.8691)"
       id="g42"><path
         id="path44"
         style="fill:#ffffff;fill-opacity:1;fill-rule:nonzero;stroke:none"
         d="m 0,0 -1.789,3.578 1.578,0.789 v 1.764 h 4 V 1.895 Z" /></g><path
       id="path46"
       style="fill:#ffffff;fill-opacity:1;fill-rule:nonzero;stroke:none"
       d="m 112,132.176 h -4 v 5.294 h 4 z m 0,-8.823 h -4 v 5.294 h 4 z m 0,-8.824 h -4 v 5.294 h 4 z" /><g
       transform="translate(112,141)"
       id="g48"><path
         id="path50"
         style="fill:#ffffff;fill-opacity:1;fill-rule:nonzero;stroke:none"
         d="M 0,0 H -4 V 1.764 L -5.578,2.553 -3.789,6.13 0,4.236 Z" /></g><g
       transform="translate(87.6226,152.9526)"
       id="g52"><path
         id="path54"
         style="fill:#ffffff;fill-opacity:1;fill-rule:nonzero;stroke:none"
         d="m 0,0 -4.7,2.35 1.789,3.578 4.7,-2.35 z m 7.833,-3.917 -4.7,2.351 1.789,3.577 4.7,-2.35 z m 7.834,-3.916 -4.701,2.35 1.789,3.578 4.701,-2.35 z" /></g><g
       transform="translate(179.7891,156.8691)"
       id="g56"><path
         id="path58"
         style="fill:#ffffff;fill-opacity:1;fill-rule:nonzero;stroke:none"
         d="M 0,0 -1.789,0.895 -3.578,0 -5.367,3.578 -1.789,5.367 1.789,3.578 Z" /></g><g
       transform="translate(168.3779,152.9526)"
       id="g60"><path
         id="path62"
         style="fill:#ffffff;fill-opacity:1;fill-rule:nonzero;stroke:none"
         d="m 0,0 -1.789,3.578 4.7,2.35 L 4.7,2.35 Z m -7.833,-3.917 -1.789,3.579 4.7,2.35 1.789,-3.578 z m -7.834,-3.916 -1.789,3.578 4.7,2.35 1.789,-3.578 z" /></g><g
       transform="translate(148,141)"
       id="g64"><path
         id="path66"
         style="fill:#ffffff;fill-opacity:1;fill-rule:nonzero;stroke:none"
         d="M 0,0 H -4 V 4.236 L -0.211,6.131 1.578,2.553 0,1.764 Z" /></g><path
       id="path68"
       style="fill:#ffffff;fill-opacity:1;fill-rule:nonzero;stroke:none"
       d="m 148,132.177 h -4 v 5.294 h 4 z m 0,-8.823 h -4 v 5.293 h 4 z m 0,-8.825 h -4 v 5.294 h 4 z" /><g
       transform="translate(147.7891,104.8691)"
       id="g70"><path
         id="path72"
         style="fill:#ffffff;fill-opacity:1;fill-rule:nonzero;stroke:none"
         d="m 0,0 -3.789,1.895 v 4.236 h 4 V 4.367 L 1.789,3.578 Z" /></g><g
       transform="translate(155.6221,100.9531)"
       id="g74"><path
         id="path76"
         style="fill:#ffffff;fill-opacity:1;fill-rule:nonzero;stroke:none"
         d="m 0,0 -4.7,2.35 1.789,3.578 4.7,-2.35 z m 7.833,-3.917 -4.7,2.35 1.789,3.578 4.7,-2.35 z m 7.834,-3.917 -4.7,2.351 1.789,3.578 4.7,-2.351 z" /></g><g
       transform="translate(178,89.7637)"
       id="g78"><path
         id="path80"
         style="fill:#ffffff;fill-opacity:1;fill-rule:nonzero;stroke:none"
         d="M 0,0 -3.578,1.789 -1.789,5.367 0,4.473 1.789,5.367 3.578,1.789 Z" /></g><g
       transform="translate(200.3779,100.9521)"
       id="g82"><path
         id="path84"
         style="fill:#ffffff;fill-opacity:1;fill-rule:nonzero;stroke:none"
         d="M 0,0 -1.789,3.578 2.911,5.929 4.7,2.351 Z m -7.834,-3.916 -1.789,3.578 4.7,2.35 1.789,-3.578 z m -7.833,-3.917 -1.789,3.578 4.7,2.35 1.789,-3.578 z" /></g><g
       transform="translate(208.2109,104.8691)"
       id="g86"><path
         id="path88"
         style="fill:#ffffff;fill-opacity:1;fill-rule:nonzero;stroke:none"
         d="m 0,0 -1.789,3.578 1.578,0.789 v 1.764 h 4 V 1.895 Z" /></g><path
       id="path90"
       style="fill:#ffffff;fill-opacity:1;fill-rule:nonzero;stroke:none"
       d="m 212,132.176 h -4 v 5.294 h 4 z m 0,-8.823 h -4 v 5.294 h 4 z m 0,-8.824 h -4 v 5.294 h 4 z" /><g
       transform="translate(212,141)"
       id="g92"><path
         id="path94"
         style="fill:#ffffff;fill-opacity:1;fill-rule:nonzero;stroke:none"
         d="M 0,0 H -4 V 1.764 L -5.578,2.553 -3.789,6.131 0,4.236 Z" /></g><g
       transform="translate(187.6221,152.9526)"
       id="g96"><path
         id="path98"
         style="fill:#ffffff;fill-opacity:1;fill-rule:nonzero;stroke:none"
         d="m 0,0 -4.7,2.35 1.789,3.578 4.7,-2.35 z m 7.834,-3.917 -4.7,2.35 1.789,3.578 4.7,-2.35 z m 7.833,-3.916 -4.7,2.35 1.789,3.578 4.7,-2.35 z" /></g><path
       id="path100"
       style="fill:#ffffff;fill-opacity:1;fill-rule:nonzero;stroke:none"
       d="M 220,220 H 36 V 36 H 220 Z M 216,40 H 40 v 176 h 176 z" /><g
       transform="translate(128,124)"
       id="g102"><path
         id="path104"
         style="fill:#ffffff;fill-opacity:1;fill-rule:nonzero;stroke:none"
         d="m 0,0 h -4 -4 v 4 h 4 4 L 4,2 Z m 5.789,5.578 -4,2 L -4,10.472 V 8 h -4 -4 V 4 0 -4 h 4 4 v -2.472 l 5.789,2.894 4,2 L 12.944,2 Z" /></g></g></svg>