<svg xmlns="http://www.w3.org/2000/svg" xml:space="preserve" width="256.588" height="320"><defs><clipPath id="a" clipPathUnits="userSpaceOnUse"><path d="M0 256h256V0H0Z"/></clipPath></defs><g clip-path="url(#a)" transform="matrix(1.33333 0 0 -1.33333 -42.373 330.108)"><path d="m0 0 4.012 109.411-1.999 107.973h167.555a4 4 0 0 0 1.789-.423l.746-.373a4 4 0 0 0 2.199-3.89l-7.573-96.553a48 48 0 0 1-.114-5.53l3.897-105.231s0-8-16-8C140.624-2.616 33.313-2.616 0 0m-9.488 4.576v.808l5.647 100.326a48 48 0 0 1 .141 7.358l-5.358 92.869-1.022 8.484q-.046.178-.047.371c0 1.151 1.439 2.592 8.639 2.592h.5l2.001-107.945L-2.994.263a77 77 0 0 0-3.06.352 3.99 3.99 0 0 0-3.434 3.961m64.801 222.407a12 12 0 0 0 7.199 2.401h104a4 4 0 0 0 4-4v-4.058a8 8 0 0 1-.944.058H47.846ZM174.512 5.384v.074l-.003.073-3.897 105.233a44 44 0 0 0 .104 5.069l7.574 96.552q.024.316.024.627a7.93 7.93 0 0 1-3.802 6.788v5.584c0 4.411-3.589 8-8 8h-104a16.1 16.1 0 0 1-9.599-3.2l-11.734-8.8H-1.488c-3.126 0-12.639 0-12.639-6.592 0-.341.032-.685.097-1.024l.986-8.185 5.351-92.745a44 44 0 0 0-.13-6.745l-.007-.079-.004-.079-5.647-100.327-.007-.112v-.92c0-3.971 2.959-7.377 6.883-7.923 21.792-3.034 128.831-3.269 161.117-3.269 19.773 0 20 11.51 20 12" style="fill:#fff;fill-opacity:1;fill-rule:nonzero;stroke:none" transform="translate(45.907 14.197)"/><path d="M0 0a2 2 0 1 1 4.001.001A2 2 0 0 1 0 0" style="fill:#fff;fill-opacity:1;fill-rule:nonzero;stroke:none" transform="translate(192.419 221.581)"/><path d="M0 0a2 2 0 1 1-4.001-.001A2 2 0 0 1 0 0" style="fill:#fff;fill-opacity:1;fill-rule:nonzero;stroke:none" transform="translate(196.419 213.581)"/><path d="M0 0a2 2 0 1 1 4.001.001A2 2 0 0 1 0 0" style="fill:#fff;fill-opacity:1;fill-rule:nonzero;stroke:none" transform="translate(188.419 217.581)"/><path d="M0 0a2 2 0 1 1 4.001.001A2 2 0 0 1 0 0" style="fill:#fff;fill-opacity:1;fill-rule:nonzero;stroke:none" transform="translate(184.419 221.581)"/><path d="M0 0a2 2 0 1 1-4.001-.001A2 2 0 0 1 0 0" style="fill:#fff;fill-opacity:1;fill-rule:nonzero;stroke:none" transform="translate(188.419 213.581)"/><path d="M0 0a2 2 0 1 1-4.001-.001A2 2 0 0 1 0 0" style="fill:#fff;fill-opacity:1;fill-rule:nonzero;stroke:none" transform="translate(184.419 217.581)"/><path d="M0 0a2 2 0 1 1 4.001.001A2 2 0 0 1 0 0" style="fill:#fff;fill-opacity:1;fill-rule:nonzero;stroke:none" transform="translate(176.419 221.581)"/><path d="M0 0a2 2 0 1 1-4.001-.001A2 2 0 0 1 0 0" style="fill:#fff;fill-opacity:1;fill-rule:nonzero;stroke:none" transform="translate(180.419 213.581)"/><path d="M0 0a2 2 0 1 1-4.001-.001A2 2 0 0 1 0 0" style="fill:#fff;fill-opacity:1;fill-rule:nonzero;stroke:none" transform="translate(176.419 217.581)"/><path d="M0 0a2 2 0 1 1 4.001.001A2 2 0 0 1 0 0" style="fill:#fff;fill-opacity:1;fill-rule:nonzero;stroke:none" transform="translate(168.419 221.581)"/><path d="M0 0a2 2 0 1 1-4.001-.001A2 2 0 0 1 0 0" style="fill:#fff;fill-opacity:1;fill-rule:nonzero;stroke:none" transform="translate(172.419 213.581)"/><path d="M0 0a2 2 0 1 1-4.001-.001A2 2 0 0 1 0 0" style="fill:#fff;fill-opacity:1;fill-rule:nonzero;stroke:none" transform="translate(168.419 217.581)"/><path d="M0 0a2 2 0 1 1 4.001.001A2 2 0 0 1 0 0" style="fill:#fff;fill-opacity:1;fill-rule:nonzero;stroke:none" transform="translate(160.419 221.581)"/><path d="M0 0a2 2 0 1 1-4.001-.001A2 2 0 0 1 0 0" style="fill:#fff;fill-opacity:1;fill-rule:nonzero;stroke:none" transform="translate(164.419 213.581)"/><path d="M0 0a2 2 0 1 1-4.001-.001A2 2 0 0 1 0 0" style="fill:#fff;fill-opacity:1;fill-rule:nonzero;stroke:none" transform="translate(160.419 217.581)"/><path d="M0 0a2 2 0 1 1 4.001.001A2 2 0 0 1 0 0" style="fill:#fff;fill-opacity:1;fill-rule:nonzero;stroke:none" transform="translate(152.419 221.581)"/><path d="M0 0a2 2 0 1 1-4.001-.001A2 2 0 0 1 0 0" style="fill:#fff;fill-opacity:1;fill-rule:nonzero;stroke:none" transform="translate(156.419 213.581)"/><path d="M0 0a2 2 0 1 1-4.001-.001A2 2 0 0 1 0 0" style="fill:#fff;fill-opacity:1;fill-rule:nonzero;stroke:none" transform="translate(152.419 217.581)"/><path d="M0 0a2 2 0 1 1 4.001.001A2 2 0 0 1 0 0" style="fill:#fff;fill-opacity:1;fill-rule:nonzero;stroke:none" transform="translate(144.419 221.581)"/><path d="M0 0a2 2 0 1 1-4.001-.001A2 2 0 0 1 0 0" style="fill:#fff;fill-opacity:1;fill-rule:nonzero;stroke:none" transform="translate(148.419 213.581)"/><path d="M0 0a2 2 0 1 1-4.001-.001A2 2 0 0 1 0 0" style="fill:#fff;fill-opacity:1;fill-rule:nonzero;stroke:none" transform="translate(144.419 217.581)"/><path d="M0 0a2 2 0 1 1 4.001.001A2 2 0 0 1 0 0" style="fill:#fff;fill-opacity:1;fill-rule:nonzero;stroke:none" transform="translate(136.419 221.581)"/><path d="M0 0a2 2 0 1 1-4.001-.001A2 2 0 0 1 0 0" style="fill:#fff;fill-opacity:1;fill-rule:nonzero;stroke:none" transform="translate(140.419 213.581)"/><path d="M0 0a2 2 0 1 1-4.001-.001A2 2 0 0 1 0 0" style="fill:#fff;fill-opacity:1;fill-rule:nonzero;stroke:none" transform="translate(136.419 217.581)"/><path d="M0 0a2 2 0 1 1 4.001.001A2 2 0 0 1 0 0" style="fill:#fff;fill-opacity:1;fill-rule:nonzero;stroke:none" transform="translate(128.419 221.581)"/><path d="M0 0a2 2 0 1 1-4.001-.001A2 2 0 0 1 0 0" style="fill:#fff;fill-opacity:1;fill-rule:nonzero;stroke:none" transform="translate(132.419 213.581)"/><path d="M0 0a2 2 0 1 1-4 0 2 2 0 0 1 4 0" style="fill:#fff;fill-opacity:1;fill-rule:nonzero;stroke:none" transform="translate(128.419 217.581)"/><path d="M0 0a2 2 0 1 1 4.001.001A2 2 0 0 1 0 0" style="fill:#fff;fill-opacity:1;fill-rule:nonzero;stroke:none" transform="translate(120.419 221.581)"/><path d="M0 0a2 2 0 1 1-4 0 2 2 0 0 1 4 0" style="fill:#fff;fill-opacity:1;fill-rule:nonzero;stroke:none" transform="translate(124.419 213.581)"/><path d="M0 0a2 2 0 1 1-4 0 2 2 0 0 1 4 0" style="fill:#fff;fill-opacity:1;fill-rule:nonzero;stroke:none" transform="translate(120.419 217.581)"/><path d="M0 0a2 2 0 1 1 4.001.001A2 2 0 0 1 0 0" style="fill:#fff;fill-opacity:1;fill-rule:nonzero;stroke:none" transform="translate(112.419 221.581)"/><path d="M0 0a2 2 0 1 1-4 0 2 2 0 0 1 4 0" style="fill:#fff;fill-opacity:1;fill-rule:nonzero;stroke:none" transform="translate(116.419 213.581)"/><path d="M0 0a2 2 0 1 1-4 0 2 2 0 0 1 4 0" style="fill:#fff;fill-opacity:1;fill-rule:nonzero;stroke:none" transform="translate(112.419 217.581)"/><path d="M0 0a2 2 0 1 1 4.001.001A2 2 0 0 1 0 0" style="fill:#fff;fill-opacity:1;fill-rule:nonzero;stroke:none" transform="translate(104.419 221.581)"/><path d="M0 0a2 2 0 1 1-4 0 2 2 0 0 1 4 0" style="fill:#fff;fill-opacity:1;fill-rule:nonzero;stroke:none" transform="translate(108.419 213.581)"/><path d="M0 0a2 2 0 1 1-4 0 2 2 0 0 1 4 0" style="fill:#fff;fill-opacity:1;fill-rule:nonzero;stroke:none" transform="translate(104.419 217.581)"/><path d="M0 0a2 2 0 1 1 4.001.001A2 2 0 0 1 0 0" style="fill:#fff;fill-opacity:1;fill-rule:nonzero;stroke:none" transform="translate(96.419 221.581)"/><path d="M0 0a2 2 0 1 1-4 0 2 2 0 0 1 4 0" style="fill:#fff;fill-opacity:1;fill-rule:nonzero;stroke:none" transform="translate(100.419 213.581)"/><path d="M0 0a2 2 0 1 1-4 0 2 2 0 0 1 4 0" style="fill:#fff;fill-opacity:1;fill-rule:nonzero;stroke:none" transform="translate(96.419 217.581)"/><path d="M0 0a2 2 0 1 1 4.001.001A2 2 0 0 1 0 0" style="fill:#fff;fill-opacity:1;fill-rule:nonzero;stroke:none" transform="translate(88.419 221.581)"/><path d="M0 0a2 2 0 1 1-4 0 2 2 0 0 1 4 0" style="fill:#fff;fill-opacity:1;fill-rule:nonzero;stroke:none" transform="translate(92.419 213.581)"/><path d="M0 0a2 2 0 1 1-4 0 2 2 0 0 1 4 0" style="fill:#fff;fill-opacity:1;fill-rule:nonzero;stroke:none" transform="translate(88.419 217.581)"/><path d="M0 0a2 2 0 1 1 4.001.001A2 2 0 0 1 0 0" style="fill:#fff;fill-opacity:1;fill-rule:nonzero;stroke:none" transform="translate(80.419 221.581)"/><path d="M0 0a2 2 0 1 1-4 0 2 2 0 0 1 4 0" style="fill:#fff;fill-opacity:1;fill-rule:nonzero;stroke:none" transform="translate(84.419 213.581)"/><path d="M0 0a2 2 0 1 1-4 0 2 2 0 0 1 4 0" style="fill:#fff;fill-opacity:1;fill-rule:nonzero;stroke:none" transform="translate(80.419 217.581)"/><path d="M0 0a2 2 0 1 1 4.001.001A2 2 0 0 1 0 0" style="fill:#fff;fill-opacity:1;fill-rule:nonzero;stroke:none" transform="translate(72.419 221.581)"/><path d="M0 0a2 2 0 1 1-4 0 2 2 0 0 1 4 0" style="fill:#fff;fill-opacity:1;fill-rule:nonzero;stroke:none" transform="translate(76.419 213.581)"/><path d="M0 0a2 2 0 1 1-4 0 2 2 0 0 1 4 0" style="fill:#fff;fill-opacity:1;fill-rule:nonzero;stroke:none" transform="translate(72.419 217.581)"/><path d="M0 0a2 2 0 1 1-4 0 2 2 0 0 1 4 0" style="fill:#fff;fill-opacity:1;fill-rule:nonzero;stroke:none" transform="translate(68.419 221.581)"/><path d="M0 0a2 2 0 1 1-4 0 2 2 0 0 1 4 0" style="fill:#fff;fill-opacity:1;fill-rule:nonzero;stroke:none" transform="translate(68.419 213.581)"/><path d="M0 0a2 2 0 1 1 4.001.001A2 2 0 0 1 0 0" style="fill:#fff;fill-opacity:1;fill-rule:nonzero;stroke:none" transform="translate(192.419 29.581)"/><path d="M0 0a2 2 0 1 1-4.001-.001A2 2 0 0 1 0 0" style="fill:#fff;fill-opacity:1;fill-rule:nonzero;stroke:none" transform="translate(196.419 21.581)"/><path d="M0 0a2 2 0 1 1 4.001.001A2 2 0 0 1 0 0" style="fill:#fff;fill-opacity:1;fill-rule:nonzero;stroke:none" transform="translate(188.419 25.581)"/><path d="M0 0a2 2 0 1 1 4.001.001A2 2 0 0 1 0 0" style="fill:#fff;fill-opacity:1;fill-rule:nonzero;stroke:none" transform="translate(184.419 29.581)"/><path d="M0 0a2 2 0 1 1-4.001-.001A2 2 0 0 1 0 0" style="fill:#fff;fill-opacity:1;fill-rule:nonzero;stroke:none" transform="translate(188.419 21.581)"/><path d="M0 0a2 2 0 1 1-4.001-.001A2 2 0 0 1 0 0" style="fill:#fff;fill-opacity:1;fill-rule:nonzero;stroke:none" transform="translate(184.419 25.581)"/><path d="M0 0a2 2 0 1 1 4.001.001A2 2 0 0 1 0 0" style="fill:#fff;fill-opacity:1;fill-rule:nonzero;stroke:none" transform="translate(176.419 29.581)"/><path d="M0 0a2 2 0 1 1-4.001-.001A2 2 0 0 1 0 0" style="fill:#fff;fill-opacity:1;fill-rule:nonzero;stroke:none" transform="translate(180.419 21.581)"/><path d="M0 0a2 2 0 1 1-4.001-.001A2 2 0 0 1 0 0" style="fill:#fff;fill-opacity:1;fill-rule:nonzero;stroke:none" transform="translate(176.419 25.581)"/><path d="M0 0a2 2 0 1 1 4.001.001A2 2 0 0 1 0 0" style="fill:#fff;fill-opacity:1;fill-rule:nonzero;stroke:none" transform="translate(168.419 29.581)"/><path d="M0 0a2 2 0 1 1-4.001-.001A2 2 0 0 1 0 0" style="fill:#fff;fill-opacity:1;fill-rule:nonzero;stroke:none" transform="translate(172.419 21.581)"/><path d="M0 0a2 2 0 1 1-4.001-.001A2 2 0 0 1 0 0" style="fill:#fff;fill-opacity:1;fill-rule:nonzero;stroke:none" transform="translate(168.419 25.581)"/><path d="M0 0a2 2 0 1 1 4.001.001A2 2 0 0 1 0 0" style="fill:#fff;fill-opacity:1;fill-rule:nonzero;stroke:none" transform="translate(160.419 29.581)"/><path d="M0 0a2 2 0 1 1-4.001-.001A2 2 0 0 1 0 0" style="fill:#fff;fill-opacity:1;fill-rule:nonzero;stroke:none" transform="translate(164.419 21.581)"/><path d="M0 0a2 2 0 1 1-4.001-.001A2 2 0 0 1 0 0" style="fill:#fff;fill-opacity:1;fill-rule:nonzero;stroke:none" transform="translate(160.419 25.581)"/><path d="M0 0a2 2 0 1 1 4.001.001A2 2 0 0 1 0 0" style="fill:#fff;fill-opacity:1;fill-rule:nonzero;stroke:none" transform="translate(152.419 29.581)"/><path d="M0 0a2 2 0 1 1-4.001-.001A2 2 0 0 1 0 0" style="fill:#fff;fill-opacity:1;fill-rule:nonzero;stroke:none" transform="translate(156.419 21.581)"/><path d="M0 0a2 2 0 1 1-4.001-.001A2 2 0 0 1 0 0" style="fill:#fff;fill-opacity:1;fill-rule:nonzero;stroke:none" transform="translate(152.419 25.581)"/><path d="M0 0a2 2 0 1 1 4.001.001A2 2 0 0 1 0 0" style="fill:#fff;fill-opacity:1;fill-rule:nonzero;stroke:none" transform="translate(144.419 29.581)"/><path d="M0 0a2 2 0 1 1-4.001-.001A2 2 0 0 1 0 0" style="fill:#fff;fill-opacity:1;fill-rule:nonzero;stroke:none" transform="translate(148.419 21.581)"/><path d="M0 0a2 2 0 1 1-4.001-.001A2 2 0 0 1 0 0" style="fill:#fff;fill-opacity:1;fill-rule:nonzero;stroke:none" transform="translate(144.419 25.581)"/><path d="M0 0a2 2 0 1 1 4.001.001A2 2 0 0 1 0 0" style="fill:#fff;fill-opacity:1;fill-rule:nonzero;stroke:none" transform="translate(136.419 29.581)"/><path d="M0 0a2 2 0 1 1-4.001-.001A2 2 0 0 1 0 0" style="fill:#fff;fill-opacity:1;fill-rule:nonzero;stroke:none" transform="translate(140.419 21.581)"/><path d="M0 0a2 2 0 1 1-4.001-.001A2 2 0 0 1 0 0" style="fill:#fff;fill-opacity:1;fill-rule:nonzero;stroke:none" transform="translate(136.419 25.581)"/><path d="M0 0a2 2 0 1 1 4.001.001A2 2 0 0 1 0 0" style="fill:#fff;fill-opacity:1;fill-rule:nonzero;stroke:none" transform="translate(128.419 29.581)"/><path d="M0 0a2 2 0 1 1-4.001-.001A2 2 0 0 1 0 0" style="fill:#fff;fill-opacity:1;fill-rule:nonzero;stroke:none" transform="translate(132.419 21.581)"/><path d="M0 0a2 2 0 1 1-4 0 2 2 0 0 1 4 0" style="fill:#fff;fill-opacity:1;fill-rule:nonzero;stroke:none" transform="translate(128.419 25.581)"/><path d="M0 0a2 2 0 1 1 4.001.001A2 2 0 0 1 0 0" style="fill:#fff;fill-opacity:1;fill-rule:nonzero;stroke:none" transform="translate(120.419 29.581)"/><path d="M0 0a2 2 0 1 1-4 0 2 2 0 0 1 4 0" style="fill:#fff;fill-opacity:1;fill-rule:nonzero;stroke:none" transform="translate(124.419 21.581)"/><path d="M0 0a2 2 0 1 1-4 0 2 2 0 0 1 4 0" style="fill:#fff;fill-opacity:1;fill-rule:nonzero;stroke:none" transform="translate(120.419 25.581)"/><path d="M0 0a2 2 0 1 1 4.001.001A2 2 0 0 1 0 0" style="fill:#fff;fill-opacity:1;fill-rule:nonzero;stroke:none" transform="translate(112.419 29.581)"/><path d="M0 0a2 2 0 1 1-4 0 2 2 0 0 1 4 0" style="fill:#fff;fill-opacity:1;fill-rule:nonzero;stroke:none" transform="translate(116.419 21.581)"/><path d="M0 0a2 2 0 1 1-4 0 2 2 0 0 1 4 0" style="fill:#fff;fill-opacity:1;fill-rule:nonzero;stroke:none" transform="translate(112.419 25.581)"/><path d="M0 0a2 2 0 1 1 4.001.001A2 2 0 0 1 0 0" style="fill:#fff;fill-opacity:1;fill-rule:nonzero;stroke:none" transform="translate(104.419 29.581)"/><path d="M0 0a2 2 0 1 1-4 0 2 2 0 0 1 4 0" style="fill:#fff;fill-opacity:1;fill-rule:nonzero;stroke:none" transform="translate(108.419 21.581)"/><path d="M0 0a2 2 0 1 1-4 0 2 2 0 0 1 4 0" style="fill:#fff;fill-opacity:1;fill-rule:nonzero;stroke:none" transform="translate(104.419 25.581)"/><path d="M0 0a2 2 0 1 1 4.001.001A2 2 0 0 1 0 0" style="fill:#fff;fill-opacity:1;fill-rule:nonzero;stroke:none" transform="translate(96.419 29.581)"/><path d="M0 0a2 2 0 1 1-4 0 2 2 0 0 1 4 0" style="fill:#fff;fill-opacity:1;fill-rule:nonzero;stroke:none" transform="translate(100.419 21.581)"/><path d="M0 0a2 2 0 1 1-4 0 2 2 0 0 1 4 0" style="fill:#fff;fill-opacity:1;fill-rule:nonzero;stroke:none" transform="translate(96.419 25.581)"/><path d="M0 0a2 2 0 1 1 4.001.001A2 2 0 0 1 0 0" style="fill:#fff;fill-opacity:1;fill-rule:nonzero;stroke:none" transform="translate(88.419 29.581)"/><path d="M0 0a2 2 0 1 1-4 0 2 2 0 0 1 4 0" style="fill:#fff;fill-opacity:1;fill-rule:nonzero;stroke:none" transform="translate(92.419 21.581)"/><path d="M0 0a2 2 0 1 1-4 0 2 2 0 0 1 4 0" style="fill:#fff;fill-opacity:1;fill-rule:nonzero;stroke:none" transform="translate(88.419 25.581)"/><path d="M0 0a2 2 0 1 1 4.001.001A2 2 0 0 1 0 0" style="fill:#fff;fill-opacity:1;fill-rule:nonzero;stroke:none" transform="translate(80.419 29.581)"/><path d="M0 0a2 2 0 1 1-4 0 2 2 0 0 1 4 0" style="fill:#fff;fill-opacity:1;fill-rule:nonzero;stroke:none" transform="translate(84.419 21.581)"/><path d="M0 0a2 2 0 1 1-4 0 2 2 0 0 1 4 0" style="fill:#fff;fill-opacity:1;fill-rule:nonzero;stroke:none" transform="translate(80.419 25.581)"/><path d="M0 0a2 2 0 1 1 4.001.001A2 2 0 0 1 0 0" style="fill:#fff;fill-opacity:1;fill-rule:nonzero;stroke:none" transform="translate(72.419 29.581)"/><path d="M0 0a2 2 0 1 1-4 0 2 2 0 0 1 4 0" style="fill:#fff;fill-opacity:1;fill-rule:nonzero;stroke:none" transform="translate(76.419 21.581)"/><path d="M0 0a2 2 0 1 1-4 0 2 2 0 0 1 4 0" style="fill:#fff;fill-opacity:1;fill-rule:nonzero;stroke:none" transform="translate(72.419 25.581)"/><path d="M0 0a2 2 0 1 1-4 0 2 2 0 0 1 4 0" style="fill:#fff;fill-opacity:1;fill-rule:nonzero;stroke:none" transform="translate(68.419 29.581)"/><path d="M0 0a2 2 0 1 1-4 0 2 2 0 0 1 4 0" style="fill:#fff;fill-opacity:1;fill-rule:nonzero;stroke:none" transform="translate(68.419 21.581)"/></g></svg>