<?xml version="1.0" encoding="UTF-8" standalone="no"?>
<svg
   xmlns:dc="http://purl.org/dc/elements/1.1/"
   xmlns:cc="http://creativecommons.org/ns#"
   xmlns:rdf="http://www.w3.org/1999/02/22-rdf-syntax-ns#"
   xmlns:svg="http://www.w3.org/2000/svg"
   xmlns="http://www.w3.org/2000/svg"
   viewBox="0 0 320 320"
   height="320"
   width="320"
   xml:space="preserve"
   id="svg2"
   version="1.1"><metadata
     id="metadata8"><rdf:RDF><cc:Work
         rdf:about=""><dc:format>image/svg+xml</dc:format><dc:type
           rdf:resource="http://purl.org/dc/dcmitype/StillImage" /></cc:Work></rdf:RDF></metadata><defs
     id="defs6"><clipPath
       id="clipPath18"
       clipPathUnits="userSpaceOnUse"><path
         id="path16"
         d="M 0,256 H 256 V 0 H 0 Z" /></clipPath></defs><g
     transform="matrix(1.3333333,0,0,-1.3333333,-10.666666,330.66666)"
     id="g10"><g
       id="g12"><g
         clip-path="url(#clipPath18)"
         id="g14"><g
           transform="translate(98.4204,92)"
           id="g20"><path
             id="path22"
             style="fill:#ffffff;fill-opacity:1;fill-rule:nonzero;stroke:none"
             d="M 0,0 C -1.312,0 -2.42,0.891 -2.42,1.944 V 30.056 C -2.42,31.109 -1.312,32 0,32 h 59.159 c 1.312,0 2.421,-0.891 2.421,-1.944 V 1.944 C 61.58,0.891 60.471,0 59.159,0 Z m 0,44 c -1.312,0 -2.42,0.891 -2.42,1.945 v 28.11 C -2.42,75.109 -1.312,76 0,76 h 59.159 c 1.312,0 2.421,-0.891 2.421,-1.945 V 45.945 C 61.58,44.891 60.471,44 59.159,44 Z m 85.58,64 h -4 -16 -4 V 104 89.945 C 61.58,88.891 60.471,88 59.159,88 H 0 c -1.312,0 -2.42,0.891 -2.42,1.945 V 104 v 4 h -4 -16 -4 v -4 -136 -4 h 4 16 4 v 4 18.056 c 0,1.053 1.108,1.944 2.42,1.944 h 59.159 c 1.312,0 2.421,-0.891 2.421,-1.944 V -32 -36 h 4 16 4 v 4 136 z M -16.38,-28 h 4.08 c 1.13,0 2.04,0.875 2.04,1.962 v 3.923 c 0,1.087 -0.91,1.961 -2.04,1.961 h -4.08 c -1.131,0 -2.04,-0.874 -2.04,-1.961 v -3.923 c 0,-1.087 0.909,-1.962 2.04,-1.962 m 87.839,0 h 4.081 c 1.129,0 2.04,0.875 2.04,1.962 v 3.923 c 0,1.087 -0.911,1.961 -2.04,1.961 h -4.081 c -1.129,0 -2.04,-0.874 -2.04,-1.961 v -3.923 c 0,-1.087 0.911,-1.962 2.04,-1.962 m -87.839,12 h 4.08 c 1.13,0 2.04,0.875 2.04,1.962 v 3.923 c 0,1.087 -0.91,1.961 -2.04,1.961 h -4.08 c -1.131,0 -2.04,-0.874 -2.04,-1.961 v -3.923 c 0,-1.087 0.909,-1.962 2.04,-1.962 m 87.839,0 h 4.081 c 1.129,0 2.04,0.875 2.04,1.962 v 3.923 c 0,1.087 -0.911,1.961 -2.04,1.961 h -4.081 c -1.129,0 -2.04,-0.874 -2.04,-1.961 v -3.923 c 0,-1.087 0.911,-1.962 2.04,-1.962 M -16.38,-4 h 4.08 c 1.13,0 2.04,0.875 2.04,1.962 v 3.923 c 0,1.087 -0.91,1.961 -2.04,1.961 h -4.08 c -1.131,0 -2.04,-0.874 -2.04,-1.961 v -3.923 c 0,-1.087 0.909,-1.962 2.04,-1.962 m 87.839,0 h 4.081 c 1.129,0 2.04,0.875 2.04,1.962 v 3.923 c 0,1.087 -0.911,1.961 -2.04,1.961 h -4.081 c -1.129,0 -2.04,-0.874 -2.04,-1.961 V -2.038 C 69.419,-3.125 70.33,-4 71.459,-4 M -16.38,8 h 4.08 c 1.13,0 2.04,0.875 2.04,1.962 v 3.923 c 0,1.087 -0.91,1.961 -2.04,1.961 h -4.08 c -1.131,0 -2.04,-0.874 -2.04,-1.961 V 9.962 C -18.42,8.875 -17.511,8 -16.38,8 m 87.839,0 h 4.081 c 1.129,0 2.04,0.875 2.04,1.962 v 3.923 c 0,1.087 -0.911,1.961 -2.04,1.961 h -4.081 c -1.129,0 -2.04,-0.874 -2.04,-1.961 V 9.962 C 69.419,8.875 70.33,8 71.459,8 M -16.38,20 h 4.08 c 1.13,0 2.04,0.875 2.04,1.962 v 3.923 c 0,1.087 -0.91,1.961 -2.04,1.961 h -4.08 c -1.131,0 -2.04,-0.874 -2.04,-1.961 v -3.923 c 0,-1.087 0.909,-1.962 2.04,-1.962 m 87.839,0 h 4.081 c 1.129,0 2.04,0.875 2.04,1.962 v 3.923 c 0,1.087 -0.911,1.961 -2.04,1.961 h -4.081 c -1.129,0 -2.04,-0.874 -2.04,-1.961 V 21.962 C 69.419,20.875 70.33,20 71.459,20 M 0,-4 h 59.159 c 3.546,0 6.421,2.662 6.421,5.944 V 30.056 C 65.58,33.339 62.705,36 59.159,36 H 0 c -3.546,0 -6.42,-2.661 -6.42,-5.944 V 1.944 C -6.42,-1.338 -3.546,-4 0,-4 m -16.38,36 h 4.08 c 1.13,0 2.04,0.875 2.04,1.962 v 3.923 c 0,1.087 -0.91,1.961 -2.04,1.961 h -4.08 c -1.131,0 -2.04,-0.875 -2.04,-1.961 v -3.923 c 0,-1.087 0.909,-1.962 2.04,-1.962 m 87.839,0 h 4.081 c 1.129,0 2.04,0.875 2.04,1.962 v 3.923 c 0,1.087 -0.911,1.961 -2.04,1.961 h -4.081 c -1.129,0 -2.04,-0.875 -2.04,-1.961 V 33.962 C 69.419,32.875 70.33,32 71.459,32 M -16.38,44 h 4.08 c 1.13,0 2.04,0.875 2.04,1.961 v 3.924 c 0,1.087 -0.91,1.961 -2.04,1.961 h -4.08 c -1.131,0 -2.04,-0.875 -2.04,-1.961 v -3.924 c 0,-1.086 0.909,-1.961 2.04,-1.961 m 87.839,0 h 4.081 c 1.129,0 2.04,0.875 2.04,1.961 v 3.924 c 0,1.087 -0.911,1.961 -2.04,1.961 h -4.081 c -1.129,0 -2.04,-0.875 -2.04,-1.961 V 45.961 C 69.419,44.875 70.33,44 71.459,44 M -16.38,56 h 4.08 c 1.13,0 2.04,0.875 2.04,1.961 v 3.924 c 0,1.087 -0.91,1.961 -2.04,1.961 h -4.08 c -1.131,0 -2.04,-0.875 -2.04,-1.961 v -3.924 c 0,-1.086 0.909,-1.961 2.04,-1.961 m 87.839,0 h 4.081 c 1.129,0 2.04,0.875 2.04,1.961 v 3.924 c 0,1.087 -0.911,1.961 -2.04,1.961 h -4.081 c -1.129,0 -2.04,-0.875 -2.04,-1.961 V 57.961 C 69.419,56.875 70.33,56 71.459,56 M -16.38,68 h 4.08 c 1.13,0 2.04,0.875 2.04,1.961 v 3.924 c 0,1.087 -0.91,1.961 -2.04,1.961 h -4.08 c -1.131,0 -2.04,-0.875 -2.04,-1.961 v -3.924 c 0,-1.086 0.909,-1.961 2.04,-1.961 m 87.839,0 h 4.081 c 1.129,0 2.04,0.875 2.04,1.961 v 3.924 c 0,1.087 -0.911,1.961 -2.04,1.961 h -4.081 c -1.129,0 -2.04,-0.875 -2.04,-1.961 V 69.961 C 69.419,68.875 70.33,68 71.459,68 M 0,40 h 59.159 c 3.546,0 6.421,2.662 6.421,5.945 v 28.11 C 65.58,77.338 62.705,80 59.159,80 H 0 c -3.546,0 -6.42,-2.662 -6.42,-5.945 V 45.945 C -6.42,42.662 -3.546,40 0,40 m -16.38,40 h 4.08 c 1.13,0 2.04,0.875 2.04,1.961 v 3.924 c 0,1.087 -0.91,1.961 -2.04,1.961 h -4.08 c -1.131,0 -2.04,-0.875 -2.04,-1.961 v -3.924 c 0,-1.086 0.909,-1.961 2.04,-1.961 m 87.839,0 h 4.081 c 1.129,0 2.04,0.875 2.04,1.961 v 3.924 c 0,1.087 -0.911,1.961 -2.04,1.961 h -4.081 c -1.129,0 -2.04,-0.875 -2.04,-1.961 V 81.961 C 69.419,80.875 70.33,80 71.459,80 M -16.38,92 h 4.08 c 1.13,0 2.04,0.875 2.04,1.961 v 3.924 c 0,1.087 -0.91,1.961 -2.04,1.961 h -4.08 c -1.131,0 -2.04,-0.875 -2.04,-1.961 v -3.924 c 0,-1.086 0.909,-1.961 2.04,-1.961 m 87.839,0 h 4.081 c 1.129,0 2.04,0.875 2.04,1.961 v 3.924 c 0,1.087 -0.911,1.961 -2.04,1.961 h -4.081 c -1.129,0 -2.04,-0.875 -2.04,-1.961 V 93.961 C 69.419,92.875 70.33,92 71.459,92 M 81.58,104 V -32 h -16 v 18.056 C 65.58,-10.661 62.706,-8 59.159,-8 H 0 c -3.546,0 -6.42,-2.661 -6.42,-5.944 V -32 h -16 v 136 h 16 V 89.945 C -6.42,86.662 -3.546,84 0,84 h 59.159 c 3.547,0 6.421,2.662 6.421,5.945 V 104 h 16" /></g><path
           id="path24"
           style="fill:#ffffff;fill-opacity:1;fill-rule:nonzero;stroke:none"
           d="M 244,12 H 12 v 232 h 232 z m 0,236 H 12 8 V 244 12 8 h 4 232 4 v 4 232 4 z" /></g></g></g></svg>