<svg xmlns="http://www.w3.org/2000/svg" xml:space="preserve" width="245.333" height="245.333"><defs><clipPath id="a" clipPathUnits="userSpaceOnUse"><path d="M0 256h256V0H0Z"/></clipPath></defs><g clip-path="url(#a)" transform="matrix(1.33333 0 0 -1.33333 -48 293.333)"><path d="M0 0v-72h-88V48h44V4h18.561l-1.052-.242c-9.43-2.168-19.18-4.41-28.773-6.591-1.27-.289-4.229-1.394-4.277-5.404-.085-7.052-.187-14.105-.289-21.158q-.084-5.768-.164-11.539l-.004-.309a16.5 16.5 0 0 1-3.647.411c-7.307 0-13.821-4.856-15.841-11.81-1.036-3.567-.476-7.287 1.536-10.206 2.022-2.932 5.323-4.788 9.054-5.09A19 19 0 0 1-67.36-68c10.05 0 18.032 8.065 18.171 18.362.161 11.861.259 21.787.308 31.078 5.708 1.237 11.47 2.517 17.057 3.759q3.637.808 7.275 1.614.783.174 1.564.343v-20.047a17.7 17.7 0 0 1-3.338.315c-7.263 0-13.741-4.276-16.505-10.893-1.384-3.311-1.191-6.987.527-10.084a11 11 0 0 1 7.877-5.544c1.33-.216 2.68-.326 4.012-.326 1.57 0 3.086.152 4.504.455 8.966 1.909 14.009 8.057 13.834 16.865-.148 7.443-.076 15.043-.008 22.394.032 3.36.063 6.72.075 10.08.01 2.616.007 5.233.005 7.901L-12.005 2v2H0Zm-16.073-42.182c.155-7.839-4.633-11.589-10.669-12.874a17.7 17.7 0 0 0-3.67-.367c-1.137 0-2.276.096-3.367.275-4.68.763-7.186 5.762-5.359 10.137 2.196 5.256 7.401 8.435 12.815 8.435 1.881 0 3.785-.383 5.598-1.195.47-.21.938-.425 1.74-.79V-7.89c-2.032-.439-4.232-.905-6.428-1.391-8.607-1.904-17.205-3.838-25.821-5.695-1.248-.269-1.633-.745-1.639-2.043a3761 3761 0 0 0-.315-32.565C-53.3-57.808-59.539-64-67.36-64q-.601 0-1.213.049c-5.288.428-8.545 5.123-7.072 10.193 1.602 5.514 6.664 8.926 12 8.926 2.016 0 4.071-.486 5.994-1.531.443-.241.885-.488 1.652-.91 0 2.262-.023 4.274.004 6.285.15 10.9.322 21.801.453 32.703.011.885.213 1.335 1.165 1.551 12.566 2.857 25.125 5.755 37.686 8.641.175.04.358.05.686.093 0-3.981.012-7.798-.002-11.615-.038-10.856-.281-21.716-.066-32.567M-40 42.343-5.657 8H-40ZM4 4l-48 48h-48V-76H4Z" style="fill:#fff;fill-opacity:1;fill-rule:nonzero;stroke:none" transform="translate(172 140)"/><path d="M216 40H40v176h176ZM36 36h184v184H36Z" style="fill:#fff;fill-opacity:1;fill-rule:nonzero;stroke:none"/></g></svg>