<svg xmlns="http://www.w3.org/2000/svg" xml:space="preserve" width="170.667" height="320"><defs><clipPath id="a" clipPathUnits="userSpaceOnUse"><path d="M0 256h256V0H0Z"/></clipPath></defs><path d="M80 236h-4v-60h4zm8 0h-4v-60h4zm8 0h-4v-60h4zm8 0h-4v-60h4zm8 0h-4v-60h4zm8 0h-4v-60h4zm16-60h4v60h-4zm8 0h4v60h-4zm8 0h4v60h-4zm8 0h4v60h-4zm8 0h4v60h-4zm8 0h4v60h-4z" style="fill:#fff;fill-opacity:1;fill-rule:nonzero;stroke:none" transform="matrix(1.33333 0 0 -1.33333 -85.333 330.667)"/><g clip-path="url(#a)" transform="matrix(1.33333 0 0 -1.33333 -85.333 330.667)"><path d="M132 244h56v-76h-56Zm56-192h-56v112h56zm0-40h-56v16.075c11.912.36 23.961 2.295 34.326 5.567 6.41 2.022 17.682 6.319 21.146 12.371l.528.924Zm-56.438 34.684L128.949 36a.98.98 0 0 0-.949-.684.98.98 0 0 0-.949.684l-2.613 10.684a1 1 0 0 0 .95 1.316h5.224a1 1 0 0 0 .95-1.316M124 52H68v112h56zm0-19.932C97.559 32.88 75.698 41.539 72 48h48.496a5 5 0 0 1 .081-2.363l2.589-10.587.039-.159.052-.156c.173-.52.427-.996.743-1.418zM124 12H68v34.937l.528-.924c3.464-6.052 14.735-10.349 21.145-12.371 10.367-3.272 22.415-5.207 34.327-5.567Zm11.504 36H184c-3.698-6.461-25.56-15.12-52-15.932v1.249c.316.422.57.898.743 1.418l.052.156.039.159 2.589 10.587c.22.776.239 1.587.081 2.363M68 244h56v-76H68Zm120 4H64V8h128v240z" style="fill:#fff;fill-opacity:1;fill-rule:nonzero;stroke:none"/></g></svg>