<svg xmlns="http://www.w3.org/2000/svg" xml:space="preserve" width="277.333" height="189.963"><defs><clipPath id="a" clipPathUnits="userSpaceOnUse"><path d="M0 256h256V0H0Z"/></clipPath></defs><g clip-path="url(#a)" transform="matrix(1.33333 0 0 -1.33333 -32 266.667)"><path d="M0 0h-200a4 4 0 0 1-4-4v-36H4v36a4 4 0 0 1-4 4m0-4v-32h-200v32z" style="fill:#fff;fill-opacity:1;fill-rule:nonzero;stroke:none" transform="translate(228 200)"/><path d="M104 192H32v-24h72zm-4-20H36v16h64zm124 20h-72v-24h72zm-4-20h-64v16h64zm-72 20h-40v-16h40zm-4-12h-32v8h32zm24-92h4v18h-4zm8 4h4v14h-4zm8 0h4v14h-4zm8-4h4v18h-4z" style="fill:#fff;fill-opacity:1;fill-rule:nonzero;stroke:none"/><path d="M0 0c20.953 0 38-17.047 38-38a37.76 37.76 0 0 0-5.368-19.443C27.683-53.92 16.863-48 0-48s-27.683-5.92-32.632-9.443A37.76 37.76 0 0 0-38-38C-38-17.047-20.953 0 0 0m0-76c-12.414 0-23.456 5.984-30.395 15.219C-25.995-57.648-15.87-52 0-52c15.878 0 26.005-5.654 30.395-8.779C23.457-70.015 12.415-76 0-76m-42 38a41.8 41.8 0 0 1 6.223-22S-28-80 0-80s35.777 20 35.777 20A41.8 41.8 0 0 1 42-38C42-14.804 23.196 4 0 4s-42-18.804-42-42" style="fill:#fff;fill-opacity:1;fill-rule:nonzero;stroke:none" transform="translate(74 156)"/><path d="M0 0a2 2 0 1 0 .001 4.001A2 2 0 0 0 0 0m-2-12a4 4 0 1 0 0 8 4 4 0 0 0 0-8M0 8c-3.309 0-6-2.691-6-6 0-.983.238-1.912.659-2.731C-8.089-2-10-4.78-10-8c0-4.411 3.589-8 8-8s8 3.589 8 8a7.97 7.97 0 0 1-2.124 5.424A5.99 5.99 0 0 1 6 2c0 3.309-2.691 6-6 6" style="fill:#fff;fill-opacity:1;fill-rule:nonzero;stroke:none" transform="translate(114 88)"/><path d="M0 0v38.138C0 52.421-12.536 64-28 64s-28-11.579-28-25.862V0h-18v40h8V26a2 2 0 0 1 2-2h-1.931 2.001A1.93 1.93 0 0 1-62 25.93V44h-12v20h92V44H6V25.93A1.93 1.93 0 0 1 7.93 24H8a2 2 0 0 1 2 2v14h8V0Zm18-8H0v4h18zm0-8H0v4h18zm0-8h-1.931v2c0 .702-.128 1.373-.35 2H18Zm-9.931 0v2a2 2 0 0 0 4 0v-2zM0-24v4h4.419a6 6 0 0 1-.35-2v-2zm-11.931 0v2.896c0 8.861-7.209 16.07-16.069 16.07s-16.069-7.209-16.069-16.07V-24H-52v36h48v-36zm-21.125 0h-7.013v2.896c0 6.666 5.403 12.07 12.069 12.07s12.069-5.404 12.069-12.07V-24ZM-58-32v4h8zm-2.281 12H-56v-4h-3.931v2c0 .702-.128 1.373-.35 2m-7.65-4v2a2 2 0 0 0 4 0v-2H-64ZM-74-24v4h2.419a6 6 0 0 1-.35-2v-2zm18 16h-18v4h18zm-18-4h18v-4h-18Zm70 28h-48v22.138C-52 50.193-41.233 60-28 60s24-9.807 24-21.862Zm-74-40h-8v88h8v-84zM-90-6v-18h-78.019A9.94 9.94 0 0 1-166-18c0 5.514-4.486 10-10 10a9.93 9.93 0 0 1-6-2.02V64h92zm-16-26-8 4h8zm-70 8a6 6 0 0 0 0 12 6 6 0 0 0 0-12M18 68h-204v-92a4 4 0 0 1 4-4h59.056l7.155-3.578 8-4 5.789-2.894V-28h40v-10.472l5.789 2.894 8 4L-41.056-28H22v96z" style="fill:#fff;fill-opacity:1;fill-rule:nonzero;stroke:none" transform="translate(210 96)"/></g></svg>