<svg xmlns="http://www.w3.org/2000/svg" xml:space="preserve" width="320" height="208"><defs><clipPath id="a" clipPathUnits="userSpaceOnUse"><path d="M0 256h256V0H0Z"/></clipPath></defs><g clip-path="url(#a)" transform="matrix(1.33333 0 0 -1.33333 -10.667 272)"><path d="M0 0a3.994 3.994 0 0 0-3.732-3.991C-17.136-4.869-64.568-7.739-112-7.739c-47.942 0-101.748 2.931-116.239 3.775A3.994 3.994 0 0 0-232 .029v128.232a4 4 0 0 0 4 4h12v-100s6.373-.335 16-.811V-5.295l4-.085v36.634c12.384-.605 28.776-1.371 44-1.977V-7.09l4-.059v36.27c5.66-.218 11.084-.407 16-.553v-.307h32v.307c31.494.933 84 3.693 84 3.693v100h12a4 4 0 0 0 4-4zm-212 134.387c0 1.054.812 1.927 1.864 1.995 8.799.567 47.043 2.953 78.136 3.672v-3.98c-25.079-.503-58.804-1.912-80-2.87zm108 5.751v-3.991c-4.36.073-8.409.114-12 .114-3.592 0-7.64-.041-12-.114v3.991c4.198.078 8.231.123 12 .123s7.802-.045 12-.123m84-5.751v-1.183c-21.195.958-54.921 2.367-80 2.87v3.98c31.093-.719 69.338-3.105 78.136-3.672A1.994 1.994 0 0 0-20 134.387m-80-6.313v4c25.09-.505 58.856-1.918 80-2.874v-3.996c-21.195.958-54.921 2.367-80 2.87m0-8v4c25.09-.505 58.856-1.918 80-2.874v-3.996c-21.195.958-54.921 2.367-80 2.87m0-83.242v79.242c25.09-.505 58.856-1.918 80-2.874V37.236c0-1.069-.84-1.95-1.908-1.998-21.226-.953-53.742-2.298-78.092-2.787Zm-32 91.242c-25.079-.503-58.804-1.912-80-2.87v3.996c21.145.956 54.911 2.37 80 2.874zm16 .187c-3.592 0-7.64-.041-12-.114v4c4.361.072 8.41.114 12 .114s7.639-.042 12-.115v-3.999c-4.36.073-8.409.114-12 .114m-16-8.187c-25.079-.503-58.804-1.912-80-2.87v3.996c21.145.956 54.911 2.37 80 2.874zm16 .187c-3.592 0-7.64-.041-12-.114v4c4.361.072 8.41.114 12 .114s7.639-.042 12-.115v-3.999c-4.36.073-8.409.114-12 .114m12-79.303a47 47 0 0 1-12 1.572 47 47 0 0 1-12-1.572v75.189c4.361.072 8.41.114 12 .114s7.639-.042 12-.115zm-24-8.58v4.454l.194.056A43 43 0 0 0-116 38.53c3.987 0 7.975-.548 11.806-1.642l.194-.056v-4.455a740 740 0 0 0-12-.113c-3.591 0-7.638.041-12 .114m-82.112 2.861A1.99 1.99 0 0 0-212 37.028V113.2c21.145.956 54.911 2.37 80 2.874V32.451c-24.357.489-56.887 1.835-78.112 2.788M-4 136.261h-12.301a6.01 6.01 0 0 1-5.305 4.113c-10.077.649-61.982 3.887-94.394 3.887s-84.317-3.238-94.393-3.887a6.01 6.01 0 0 1-5.307-4.113H-228c-4.411 0-8-3.589-8-8V.029c0-4.232 3.307-7.74 7.528-7.986 15.241-.888 68.68-3.782 116.472-3.782 47.501 0 95.079 2.875 108.529 3.756C.719-7.709 4-4.202 4 0v128.261c0 4.411-3.589 8-8 8" style="fill:#fff;fill-opacity:1;fill-rule:nonzero;stroke:none" transform="translate(244 59.74)"/><path d="M0 0c-5.522 0-10 4.478-10 10a10.1 10.1 0 0 0 .449 2.974q.295.94.758 1.793a10.05 10.05 0 0 0 4.9 4.447A10 10 0 0 0 0 20a9.96 9.96 0 0 0 6.361-2.283 10.05 10.05 0 0 0 3.19-4.743A10 10 0 0 0 10 10C10 4.478 5.522 0 0 0m13.37 14.161a14 14 0 0 1-5.54 7.445A13.94 13.94 0 0 1 0 24a13.9 13.9 0 0 1-7.83-2.394A13.98 13.98 0 0 1-14 10C-14 2.28-7.72-4 0-4s14 6.28 14 14a14 14 0 0 1-.63 4.161" style="fill:#fff;fill-opacity:1;fill-rule:nonzero;stroke:none" transform="translate(210 64)"/></g></svg>