<?xml version="1.0" encoding="UTF-8" standalone="no"?>
<svg
   xmlns:dc="http://purl.org/dc/elements/1.1/"
   xmlns:cc="http://creativecommons.org/ns#"
   xmlns:rdf="http://www.w3.org/1999/02/22-rdf-syntax-ns#"
   xmlns:svg="http://www.w3.org/2000/svg"
   xmlns="http://www.w3.org/2000/svg"
   viewBox="0 0 277.33331 320"
   height="320"
   width="277.33331"
   xml:space="preserve"
   id="svg2"
   version="1.1"><metadata
     id="metadata8"><rdf:RDF><cc:Work
         rdf:about=""><dc:format>image/svg+xml</dc:format><dc:type
           rdf:resource="http://purl.org/dc/dcmitype/StillImage" /></cc:Work></rdf:RDF></metadata><defs
     id="defs6"><clipPath
       id="clipPath38"
       clipPathUnits="userSpaceOnUse"><path
         id="path36"
         d="M 0,256 H 256 V 0 H 0 Z" /></clipPath></defs><g
     transform="matrix(1.3333333,0,0,-1.3333333,-31.999999,330.66666)"
     id="g10"><path
       id="path12"
       style="fill:#ffffff;fill-opacity:1;fill-rule:nonzero;stroke:none"
       d="m 84,144 h -4 v 36 h 4 z" /><path
       id="path14"
       style="fill:#ffffff;fill-opacity:1;fill-rule:nonzero;stroke:none"
       d="m 76,148 h -4 v 28 h 4 z" /><path
       id="path16"
       style="fill:#ffffff;fill-opacity:1;fill-rule:nonzero;stroke:none"
       d="m 68,152 h -4 v 20 h 4 z" /><path
       id="path18"
       style="fill:#ffffff;fill-opacity:1;fill-rule:nonzero;stroke:none"
       d="m 60,156 h -4 v 12 h 4 z" /><path
       id="path20"
       style="fill:#ffffff;fill-opacity:1;fill-rule:nonzero;stroke:none"
       d="m 52,160 h -4 v 4 h 4 z" /><path
       id="path22"
       style="fill:#ffffff;fill-opacity:1;fill-rule:nonzero;stroke:none"
       d="m 172,144 h 4 v 36 h -4 z" /><path
       id="path24"
       style="fill:#ffffff;fill-opacity:1;fill-rule:nonzero;stroke:none"
       d="m 180,148 h 4 v 28 h -4 z" /><path
       id="path26"
       style="fill:#ffffff;fill-opacity:1;fill-rule:nonzero;stroke:none"
       d="m 188,152 h 4 v 20 h -4 z" /><path
       id="path28"
       style="fill:#ffffff;fill-opacity:1;fill-rule:nonzero;stroke:none"
       d="m 196,156 h 4 v 12 h -4 z" /><path
       id="path30"
       style="fill:#ffffff;fill-opacity:1;fill-rule:nonzero;stroke:none"
       d="m 204,160 h 4 v 4 h -4 z" /><g
       id="g32"><g
         clip-path="url(#clipPath38)"
         id="g34"><g
           transform="translate(168,248)"
           id="g40"><path
             id="path42"
             style="fill:#ffffff;fill-opacity:1;fill-rule:nonzero;stroke:none"
             d="m 0,0 h -80 c -4.411,0 -8,-3.589 -8,-8 v -42.262 l -41.138,-16.94 C -138.167,-70.919 -144,-79.63 -144,-89.394 l 0.328,-78.623 0.001,-0.208 0.023,-0.207 c 2.131,-19.656 13.997,-37.818 33.41,-51.139 C -91.042,-232.745 -66.097,-240 -40,-240 c 25.198,0 49.496,6.821 68.417,19.208 2.243,1.469 3.583,3.963 3.583,6.673 v 4.462 l 5.657,5.657 h 6.216 c 2.472,0 4.833,1.155 6.317,3.09 7.679,10.009 12.206,20.936 13.458,32.478 l 0.023,0.207 10e-4,0.208 0.328,78.606 c 0,9.781 -5.834,18.492 -14.862,22.209 L 8,-50.262 V -8 C 8,-3.589 4.411,0 0,0 m 0,-4 c 2.209,0 4,-1.791 4,-4 V -52.941 L 47.615,-70.9 C 55.109,-73.986 60,-81.29 60,-89.394 L 59.672,-168 c -1.195,-11.017 -5.654,-21.35 -12.655,-30.476 -0.746,-0.972 -1.918,-1.524 -3.144,-1.524 h -7.045 c -0.53,0 -1.039,-0.211 -1.414,-0.586 l -6.828,-6.828 C 28.211,-207.789 28,-208.298 28,-208.828 v -5.291 c 0,-1.335 -0.657,-2.595 -1.774,-3.326 C 8.589,-228.991 -14.6,-236 -40,-236 c -52.499,0 -95.544,29.938 -99.672,68 L -140,-89.394 c 0,8.104 4.891,15.408 12.385,18.494 L -84,-52.941 V -8 c 0,2.209 1.791,4 4,4 H 0" /></g><g
           transform="translate(160,96)"
           id="g44"><path
             id="path46"
             style="fill:#ffffff;fill-opacity:1;fill-rule:nonzero;stroke:none"
             d="m 0,0 h -4 -56 -4 v -4 -77.057 -3.23 l 3.158,-0.681 C -51.502,-86.979 -41.798,-88 -32,-88 c 9.798,0 19.502,1.021 28.843,3.032 L 0,-84.287 v 3.23 V -4 Z M -4,-4 V -81.057 C -12.885,-82.972 -22.28,-84 -32,-84 c -9.72,0 -19.115,1.028 -28,2.943 V -4 h 56" /></g><g
           transform="translate(160,96)"
           id="g48"><path
             id="path50"
             style="fill:#ffffff;fill-opacity:1;fill-rule:nonzero;stroke:none"
             d="m 0,0 h -4 -56 -4 v -4 -64 -4 h 4 16 4 v 4 12 c 0,4.411 3.589,8 8,8 4.411,0 8,-3.589 8,-8 v -12 -4 h 4 16 4 v 4 64 z m -4,-4 v -64 h -16 v 12 c 0,6.6 -5.4,12 -12,12 -6.6,0 -12,-5.4 -12,-12 v -12 h -16 v 64 h 56" /></g><g
           transform="translate(152.3076,228)"
           id="g52"><path
             id="path54"
             style="fill:#ffffff;fill-opacity:1;fill-rule:nonzero;stroke:none"
             d="m 0,0 h -0.465 c -2.217,0 -4.319,-0.923 -5.819,-2.516 l -1.602,-0.801 c -2.727,-1.364 -4.422,-4.105 -4.422,-7.155 V -100 h -24 v 89.528 c 0,3.05 -1.694,5.791 -4.422,7.155 l -1.601,0.801 C -43.832,-0.923 -45.934,0 -48.151,0 h -0.464 c -1.31,0 -2.591,-0.322 -3.745,-0.937 l -6.401,-1.698 c -3.246,-0.818 -5.547,-4.04 -5.547,-7.823 v -89.506 c 0,-0.634 0.069,-1.265 0.204,-1.888 -0.091,-2.101 -0.059,-4.187 0.097,-6.21 l 3.427,-44.551 c 0.319,-4.143 3.822,-7.387 7.976,-7.387 H 3.988 c 4.155,0 7.658,3.244 7.977,7.387 l 3.427,44.551 c 0.155,2.023 0.188,4.109 0.097,6.21 0.135,0.623 0.203,1.254 0.203,1.888 v 89.506 c 0,3.783 -2.3,7.005 -5.593,7.835 L 3.745,-0.937 C 2.591,-0.322 1.31,0 0,0 m 0,-4 c 0.81,0 1.562,-0.247 2.195,-0.664 L 9.12,-6.501 c 1.496,-0.377 2.572,-2.033 2.572,-3.957 v -89.506 c 0,-0.523 -0.085,-1.019 -0.228,-1.477 0.116,-2.104 0.101,-4.212 -0.061,-6.314 L 7.977,-152.307 C 7.816,-154.391 6.078,-156 3.988,-156 h -56.592 c -2.09,0 -3.827,1.609 -3.988,3.693 l -3.427,44.552 c -0.161,2.102 -0.176,4.21 -0.061,6.314 -0.143,0.458 -0.228,0.954 -0.228,1.477 v 89.506 c 0,1.924 1.077,3.58 2.573,3.957 l 6.924,1.837 c 0.633,0.417 1.386,0.664 2.196,0.664 h 0.464 c 1.357,0 2.558,-0.679 3.282,-1.719 l 2.35,-1.176 c 1.355,-0.677 2.211,-2.062 2.211,-3.577 V -100 h -0.16 l 0.16,-4 h 32 l 0.161,4 h -0.161 v 89.528 c 0,1.515 0.857,2.9 2.211,3.577 l 2.351,1.176 C -3.022,-4.679 -1.821,-4 -0.465,-4 H 0" /></g><g
           transform="translate(92,60)"
           id="g56"><path
             id="path58"
             style="fill:#ffffff;fill-opacity:1;fill-rule:nonzero;stroke:none"
             d="m 0,0 h -4 -12 -4 v -4 -6 c 0,-3.309 2.691,-6 6,-6 h 8 c 3.309,0 6,2.691 6,6 v 6 z m -4,-4 v -6 c 0,-1.104 -0.896,-2 -2,-2 h -8 c -1.104,0 -2,0.896 -2,2 v 6 h 12" /></g><path
           id="path60"
           style="fill:#ffffff;fill-opacity:1;fill-rule:nonzero;stroke:none"
           d="m 84,48 h -4 v 8 h 4 z" /><g
           transform="translate(148,248)"
           id="g62"><path
             id="path64"
             style="fill:#ffffff;fill-opacity:1;fill-rule:nonzero;stroke:none"
             d="m 0,0 h -40 v -16 c 0,-2.209 1.791,-4 4,-4 h 32 c 2.209,0 4,1.791 4,4 z m -4,-16 h -32 v 12 h 32 z" /></g><path
           id="path66"
           style="fill:#ffffff;fill-opacity:1;fill-rule:nonzero;stroke:none"
           d="m 144,216 h -32 v 4 h 32 z" /><path
           id="path68"
           style="fill:#ffffff;fill-opacity:1;fill-rule:nonzero;stroke:none"
           d="m 92,216 h -8 v 4 h 8 z" /><path
           id="path70"
           style="fill:#ffffff;fill-opacity:1;fill-rule:nonzero;stroke:none"
           d="m 172,216 h -8 v 4 h 8 z" /><path
           id="path72"
           style="fill:#ffffff;fill-opacity:1;fill-rule:nonzero;stroke:none"
           d="m 124,200 h -4 v 16 h 4 z" /><path
           id="path74"
           style="fill:#ffffff;fill-opacity:1;fill-rule:nonzero;stroke:none"
           d="m 132,200 h -4 v 16 h 4 z" /></g></g></g></svg>