<svg xmlns="http://www.w3.org/2000/svg" xml:space="preserve" width="277.333" height="320"><defs><clipPath id="a" clipPathUnits="userSpaceOnUse"><path d="M0 256h256V0H0Z"/></clipPath></defs><path d="M84 144h-4v36h4zm-8 4h-4v28h4zm-8 4h-4v20h4zm-8 4h-4v12h4zm-8 4h-4v4h4zm120-16h4v36h-4zm8 4h4v28h-4zm8 4h4v20h-4zm8 4h4v12h-4zm8 4h4v4h-4z" style="fill:#fff;fill-opacity:1;fill-rule:nonzero;stroke:none" transform="matrix(1.33333 0 0 -1.33333 -32 330.667)"/><g clip-path="url(#a)" transform="matrix(1.33333 0 0 -1.33333 -32 330.667)"><path d="M0 0h-80c-4.411 0-8-3.589-8-8v-42.262l-41.138-16.94A23.92 23.92 0 0 1-144-89.394l.328-78.623.001-.208.023-.207c2.131-19.656 13.997-37.818 33.41-51.139C-91.042-232.745-66.097-240-40-240c25.198 0 49.496 6.821 68.417 19.208 2.243 1.469 3.583 3.963 3.583 6.673v4.462L37.657-204h6.216c2.472 0 4.833 1.155 6.317 3.09 7.679 10.009 12.206 20.936 13.458 32.478l.023.207.001.208L64-89.411c0 9.781-5.834 18.492-14.862 22.209L8-50.262V-8c0 4.411-3.589 8-8 8m0-4a4 4 0 0 0 4-4v-44.941L47.615-70.9A20 20 0 0 0 60-89.394L59.672-168c-1.195-11.017-5.654-21.35-12.655-30.476-.746-.972-1.918-1.524-3.144-1.524h-7.045a2 2 0 0 1-1.414-.586l-6.828-6.828a2 2 0 0 1-.586-1.414v-5.291c0-1.335-.657-2.595-1.774-3.326C8.589-228.991-14.6-236-40-236c-52.499 0-95.544 29.938-99.672 68L-140-89.394A20 20 0 0 0-127.615-70.9L-84-52.941V-8a4 4 0 0 0 4 4z" style="fill:#fff;fill-opacity:1;fill-rule:nonzero;stroke:none" transform="translate(168 248)"/><path d="M0 0h-64v-84.287l3.158-.681C-51.502-86.979-41.798-88-32-88s19.502 1.021 28.843 3.032L0-84.287V-4Zm-4-4v-77.057C-12.885-82.972-22.28-84-32-84s-19.115 1.028-28 2.943V-4z" style="fill:#fff;fill-opacity:1;fill-rule:nonzero;stroke:none" transform="translate(160 96)"/><path d="M0 0h-64v-72h24v16c0 4.411 3.589 8 8 8s8-3.589 8-8v-16H0v68zm-4-4v-64h-16v12c0 6.6-5.4 12-12 12s-12-5.4-12-12v-12h-16v64z" style="fill:#fff;fill-opacity:1;fill-rule:nonzero;stroke:none" transform="translate(160 96)"/><path d="M0 0h-.465a8 8 0 0 1-5.819-2.516l-1.602-.801a7.96 7.96 0 0 1-4.422-7.155V-100h-24v89.528a7.96 7.96 0 0 1-4.422 7.155l-1.601.801A8 8 0 0 1-48.151 0h-.464a7.95 7.95 0 0 1-3.745-.937l-6.401-1.698c-3.246-.818-5.547-4.04-5.547-7.823v-89.506q0-.952.204-1.888a52 52 0 0 1 .097-6.21l3.427-44.551c.319-4.143 3.822-7.387 7.976-7.387H3.988c4.155 0 7.658 3.244 7.977 7.387l3.427 44.551c.155 2.023.188 4.109.097 6.21q.203.936.203 1.888v89.506c0 3.783-2.3 7.005-5.593 7.835L3.745-.937A7.95 7.95 0 0 1 0 0m0-4c.81 0 1.562-.247 2.195-.664L9.12-6.501c1.496-.377 2.572-2.033 2.572-3.957v-89.506c0-.523-.085-1.019-.228-1.477a48 48 0 0 0-.061-6.314l-3.426-44.552A4 4 0 0 0 3.988-156h-56.592a4 4 0 0 0-3.988 3.693l-3.427 44.552a48 48 0 0 0-.061 6.314 5 5 0 0 0-.228 1.477v89.506c0 1.924 1.077 3.58 2.573 3.957l6.924 1.837A4 4 0 0 0-48.615-4h.464a4 4 0 0 0 3.282-1.719l2.35-1.176a4 4 0 0 0 2.211-3.577V-100h-.16l.16-4h32l.161 4h-.161v89.528a4 4 0 0 0 2.211 3.577l2.351 1.176A3.99 3.99 0 0 0-.465-4z" style="fill:#fff;fill-opacity:1;fill-rule:nonzero;stroke:none" transform="translate(152.308 228)"/><path d="M0 0h-20v-10c0-3.309 2.691-6 6-6h8c3.309 0 6 2.691 6 6v6zm-4-4v-6a2 2 0 0 0-2-2h-8a2 2 0 0 0-2 2v6z" style="fill:#fff;fill-opacity:1;fill-rule:nonzero;stroke:none" transform="translate(92 60)"/><path d="M84 48h-4v8h4z" style="fill:#fff;fill-opacity:1;fill-rule:nonzero;stroke:none"/><path d="M0 0h-40v-16a4 4 0 0 1 4-4h32a4 4 0 0 1 4 4zm-4-16h-32v12h32z" style="fill:#fff;fill-opacity:1;fill-rule:nonzero;stroke:none" transform="translate(148 248)"/><path d="M144 216h-32v4h32zm-52 0h-8v4h8zm80 0h-8v4h8zm-48-16h-4v16h4zm8 0h-4v16h4z" style="fill:#fff;fill-opacity:1;fill-rule:nonzero;stroke:none"/></g></svg>