<svg xmlns="http://www.w3.org/2000/svg" xml:space="preserve" width="320" height="234.667"><defs><clipPath id="a" clipPathUnits="userSpaceOnUse"><path d="M0 256h256V0H0Z"/></clipPath></defs><g clip-path="url(#a)" transform="matrix(1.33333 0 0 -1.33333 -10.667 288)"><path d="M0 0a4 4 0 0 0-4-4h-52v72h7c18.196 0 33 14.804 33 33v2c0 18.196-14.804 33-33 33h-7v6.343l10.828 10.828 2.829 2.829H0Zm-172 68h112V-4h-112zm-20-72v32.063c.333-.024.662-.063 1-.063 6.573 0 12.162 4.596 15 11.493V-4Zm-28 0v38l13.533 6.767c1.987-5.689 5.762-10.018 10.467-11.83V-4Zm-8 0a4 4 0 0 0-4 4v156h42.343l2.828-2.829L-176 142.343V136h-7c-18.196 0-33-14.804-33-33v-2c0-13.411 8.045-24.971 19.56-30.127C-203.223 67.997-208 59.86-208 50c0-1.986.212-3.893.577-5.711L-224 36V-4Zm168 148h-112l-12 12h12l8-8h96l8 8h12zm-112-4h112v-4h-112Zm119-56h3c9.925 0 18 8.075 18 18s-8.075 18-18 18h-3l-3 12h7c15.95 0 29-13.05 29-29v-2c0-15.95-13.05-29-29-29h-7zm-122 0h118l-3-12h-112zm119 32h6c7.7 0 14-6.3 14-14s-6.3-14-14-14h-132c-7.7 0-14 6.3-14 14s6.3 14 14 14h6zm-119 4 3 12h112l3-12zm-8-48c-15.95 0-29 13.05-29 29v2c0 15.95 13.05 29 29 29h7l-3-12h-3c-9.925 0-18-8.075-18-18s8.075-18 18-18h3l3-12zm-9-32c6.617 0 12 5.383 12 12s-5.383 12-12 12c-5.009 0-9.307-3.088-11.101-7.458C-201.209 63.244-196.511 68-191 68c7.18 0 13-8.059 13-18s-5.82-18-13-18c-.337 0-.669.035-1 .07zm-8 12a8 8 0 1 0 16 0 8 8 0 0 0-16 0m-.632-8.315A12 12 0 0 1-196 40.7v-7.316c-3.036 1.754-5.48 5.06-6.835 9.198zM-204 50c0 .393.024.776.042 1.163a11.9 11.9 0 0 1 1.237-4.523l-.974-.488A25 25 0 0 0-204 50m28 10.507c-1.235 3.001-2.998 5.553-5.128 7.493H-176ZM-228 164H-4a4 4 0 0 0 4-4h-61.657l-1.171-1.171-6.829-6.829h-92.686l-6.828 6.829-1.172 1.171H-232a4 4 0 0 0 4 4m224 4h-224c-4.411 0-8-3.589-8-8V0c0-4.411 3.589-8 8-8H-4C.411-8 4-4.411 4 0v160c0 4.411-3.589 8-8 8" style="fill:#fff;fill-opacity:1;fill-rule:nonzero;stroke:none" transform="translate(244 48)"/><path d="M80 152H64v4h16zm92 0H84v4h88zm20 0h-16v4h16zm0-8h-16v4h16zm-108 4h88v-4H84Zm-20 0h16v-4H64Zm-4 4v-12h136v20H60Zm88 56h-36v-4h36zm28 0h-24v-4h24zm-68 0H84v-4h24z" style="fill:#fff;fill-opacity:1;fill-rule:nonzero;stroke:none"/></g></svg>