<svg xmlns="http://www.w3.org/2000/svg" xml:space="preserve" width="320" height="320"><defs><clipPath id="a" clipPathUnits="userSpaceOnUse"><path d="M0 256h256V0H0Z"/></clipPath></defs><g clip-path="url(#a)" transform="matrix(1.33333 0 0 -1.33333 -10.667 330.667)"><path d="M0 0c-12.131 0-22-9.869-22-22s9.869-22 22-22 22 9.869 22 22S12.131 0 0 0m0-4c9.941 0 18-8.059 18-18S9.941-40 0-40s-18 8.059-18 18S-9.941-4 0-4" style="fill:#fff;fill-opacity:1;fill-rule:nonzero;stroke:none" transform="translate(126 240)"/><path d="M0 0h-44v-44H0v40zm-4-40h-36v36h36z" style="fill:#fff;fill-opacity:1;fill-rule:nonzero;stroke:none" transform="translate(64 196)"/><path d="M0 0h-44v-44H0v40zm-4-40h-36v36h36z" style="fill:#fff;fill-opacity:1;fill-rule:nonzero;stroke:none" transform="translate(152 60)"/><path d="M0 0h-44v-44H0v40zm-4-40h-36v36h36z" style="fill:#fff;fill-opacity:1;fill-rule:nonzero;stroke:none" transform="translate(236 196)"/><path d="M0 0c-12.131 0-22-9.869-22-22s9.869-22 22-22 22 9.869 22 22S12.131 0 0 0m0-4c9.941 0 18-8.059 18-18S9.941-40 0-40s-18 8.059-18 18S-9.941-4 0-4" style="fill:#fff;fill-opacity:1;fill-rule:nonzero;stroke:none" transform="translate(42 104)"/><path d="M0 0c-12.131 0-22-9.869-22-22s9.869-22 22-22 22 9.869 22 22S12.131 0 0 0m0-4c9.941 0 18-8.059 18-18S9.941-40 0-40s-18 8.059-18 18S-9.941-4 0-4" style="fill:#fff;fill-opacity:1;fill-rule:nonzero;stroke:none" transform="translate(214 104)"/><path d="m0 0-2.829-2.829-2.828-2.828-36-36-2.828-2.828-2.829-2.829 2.829-2.828 2.828-2.829 36-36 2.828-2.828L0-94.627l2.828 2.828 2.829 2.828 36 36 2.828 2.829 2.828 2.828-2.828 2.829-2.828 2.828-36 36-2.829 2.828zm0-5.657 2.828-2.828 36-36 2.829-2.829-2.829-2.828-36-36L0-88.971l-2.829 2.829-36 36-2.828 2.828 2.828 2.829 36 36z" style="fill:#fff;fill-opacity:1;fill-rule:nonzero;stroke:none" transform="translate(128 175.314)"/><path d="M244 12H12v232h232zm0 236H8V8h240v240z" style="fill:#fff;fill-opacity:1;fill-rule:nonzero;stroke:none"/></g></svg>