<svg xmlns="http://www.w3.org/2000/svg" xml:space="preserve" width="245.333" height="325.333"><defs><clipPath id="a" clipPathUnits="userSpaceOnUse"><path d="M0 256h256V0H0Z"/></clipPath></defs><path d="M208 24H48v4h160zm-12 8H60v4h136zM96 80H68V56h28Zm-4-20H72v16h20zm96 20h-28V56h28zm-4-20h-20v16h20z" style="fill:#fff;fill-opacity:1;fill-rule:nonzero;stroke:none" transform="matrix(1.33333 0 0 -1.33333 -48 336)"/><path d="M0 0h-56v-64H0v60zm-4-60h-48v56h48z" style="fill:#fff;fill-opacity:1;fill-rule:nonzero;stroke:none" transform="matrix(1.33333 0 0 -1.33333 160 160)"/><path d="M0 0h-16v-36H0v32zm-4-32h-8v28h8z" style="fill:#fff;fill-opacity:1;fill-rule:nonzero;stroke:none" transform="matrix(1.33333 0 0 -1.33333 133.333 160)"/><path d="M96 64H80v4h16z" style="fill:#fff;fill-opacity:1;fill-rule:nonzero;stroke:none" transform="matrix(1.33333 0 0 -1.33333 -48 336)"/><g clip-path="url(#a)" transform="matrix(1.33333 0 0 -1.33333 -48 336)"><path d="M0 0h-8c-4.411 0-8-3.589-8-8v-116c0-4.411 3.589-8 8-8h8c4.411 0 8 3.589 8 8V-8c0 4.411-3.589 8-8 8m0-4c2.2 0 4-1.8 4-4v-116c0-2.2-1.8-4-4-4h-8c-2.2 0-4 1.8-4 4V-8c0 2.2 1.8 4 4 4z" style="fill:#fff;fill-opacity:1;fill-rule:nonzero;stroke:none" transform="translate(52 224)"/><path d="M0 0h-8c-4.411 0-8-3.589-8-8v-116c0-4.411 3.589-8 8-8h8c4.411 0 8 3.589 8 8V-8c0 4.411-3.589 8-8 8m0-4c2.2 0 4-1.8 4-4v-116c0-2.2-1.8-4-4-4h-8c-2.2 0-4 1.8-4 4V-8c0 2.2 1.8 4 4 4z" style="fill:#fff;fill-opacity:1;fill-rule:nonzero;stroke:none" transform="translate(212 224)"/><path d="M52 96h-4v124h4zm156 0h-4v124h4z" style="fill:#fff;fill-opacity:1;fill-rule:nonzero;stroke:none"/><path d="M0 0h-8a6.01 6.01 0 0 1-5.657-4H-20c-3.309 0-6-2.691-6-6v-108c0-3.309 2.691-6 6-6h132c3.309 0 6 2.691 6 6v108c0 3.309-2.691 6-6 6H5.657A6.01 6.01 0 0 1 0 0m0-4a2 2 0 0 0 2-2v-2h110a2 2 0 0 0 2-2v-108a2 2 0 0 0-2-2H-20a2 2 0 0 0-2 2v108a2 2 0 0 0 2 2h10v2a2 2 0 0 0 2 2z" style="fill:#fff;fill-opacity:1;fill-rule:nonzero;stroke:none" transform="translate(82 252)"/><path d="M188 196H68v4h120zm-48-8H68v4h72zm52 0h-12v4h12zm-4-8H68v4h120z" style="fill:#fff;fill-opacity:1;fill-rule:nonzero;stroke:none"/><path d="M0 0h-48v-20H0v16zm-4-16h-40v12h40z" style="fill:#fff;fill-opacity:1;fill-rule:nonzero;stroke:none" transform="translate(184 200)"/><path d="M68 132h-4v112h4zm124 0h-4v112h4z" style="fill:#fff;fill-opacity:1;fill-rule:nonzero;stroke:none"/><path d="M0 0h4v28h-128v-4H0Z" style="fill:#fff;fill-opacity:1;fill-rule:nonzero;stroke:none" transform="translate(208 220)"/><path d="M0 0v24h22v4H-4V0Z" style="fill:#fff;fill-opacity:1;fill-rule:nonzero;stroke:none" transform="translate(48 220)"/><path d="M0 0v-84h-160V0h-4v-88H4V0z" style="fill:#fff;fill-opacity:1;fill-rule:nonzero;stroke:none" transform="translate(208 96)"/><path d="M0 0v-28l-4-40h-4V0h-4v-72H-.38l.36 3.602 4 40 .02.199V0Z" style="fill:#fff;fill-opacity:1;fill-rule:nonzero;stroke:none" transform="translate(56 96)"/><path d="M0 0h-4l-4 40v28h-4V39.801l.02-.199 4-40L-7.62-4H4v72H0Z" style="fill:#fff;fill-opacity:1;fill-rule:nonzero;stroke:none" transform="translate(208 28)"/><path d="M200 40H56v4h144zm0 8H56v4h144z" style="fill:#fff;fill-opacity:1;fill-rule:nonzero;stroke:none"/><path d="M0 0v16h16v4H-4V-4h20v4z" style="fill:#fff;fill-opacity:1;fill-rule:nonzero;stroke:none" transform="translate(80 60)"/><path d="M0 0v16h-16v4H4V-4h-20v4z" style="fill:#fff;fill-opacity:1;fill-rule:nonzero;stroke:none" transform="translate(176 60)"/><path d="M152 96h-48v4h48z" style="fill:#fff;fill-opacity:1;fill-rule:nonzero;stroke:none"/></g></svg>