<svg xmlns="http://www.w3.org/2000/svg" xml:space="preserve" width="298.76" height="320"><defs><clipPath id="a" clipPathUnits="userSpaceOnUse"><path d="M0 256h256V0H0Z"/></clipPath></defs><path d="M72 236h112v-88H72Zm112-92h4v96H68v-96h4zM76 108h104V28H76Zm-4-84h112v88H72ZM44 236h-4v-4h4zm172 0h-4v-4h4zM40 144h4v4h-4zm172 0h4v4h-4z" style="fill:#fff;fill-opacity:1;fill-rule:nonzero;stroke:none" transform="matrix(1.33333 0 0 -1.33333 -21.334 330.667)"/><g clip-path="url(#a)" transform="matrix(1.33333 0 0 -1.33333 -21.334 330.667)"><path d="M0 0a4 4 0 1 0 0 8 4 4 0 0 0 0-8m0 12c-4.411 0-8-3.589-8-8s3.589-8 8-8S8-.411 8 4s-3.589 8-8 8" style="fill:#fff;fill-opacity:1;fill-rule:nonzero;stroke:none" transform="translate(56 28)"/><path d="M0 0c0-.72-.583-1.303-1.302-1.303h-9.116c-.72 0-1.303.583-1.303 1.303v6.837h-6.837c-.719 0-1.302.583-1.302 1.302v9.117c0 .719.583 1.302 1.302 1.302h6.837v6.837c0 .719.583 1.302 1.303 1.302h9.116c.719 0 1.302-.583 1.302-1.302v-6.837h6.837c.72 0 1.303-.583 1.303-1.302V8.139c0-.719-.583-1.302-1.303-1.302H0Zm4 0v2.837h2.837a5.31 5.31 0 0 1 5.303 5.302v9.117a5.31 5.31 0 0 1-5.303 5.302H4v2.837a5.31 5.31 0 0 1-5.302 5.302h-9.116a5.31 5.31 0 0 1-5.303-5.302v-2.837h-2.837a5.31 5.31 0 0 1-5.302-5.302V8.139a5.31 5.31 0 0 1 5.302-5.302h2.837V0a5.31 5.31 0 0 1 5.303-5.303h9.116A5.31 5.31 0 0 1 4 0" style="fill:#fff;fill-opacity:1;fill-rule:nonzero;stroke:none" transform="translate(47.86 73.303)"/><path d="M0 0a4 4 0 1 0 0 8 4 4 0 0 0 0-8m0-12a4 4 0 1 0 0 8 4 4 0 0 0 0-8M8 4c0 4.411-3.589 8-8 8s-8-3.589-8-8a7.97 7.97 0 0 1 2.727-6A7.97 7.97 0 0 1-8-8c0-4.411 3.589-8 8-8s8 3.589 8 8a7.97 7.97 0 0 1-2.727 6A7.97 7.97 0 0 1 8 4" style="fill:#fff;fill-opacity:1;fill-rule:nonzero;stroke:none" transform="translate(200 36)"/><path d="M0 0c-3.309 0-6 2.691-6 6s2.691 6 6 6 6-2.691 6-6-2.691-6-6-6m-10-10c-3.309 0-6 2.691-6 6s2.691 6 6 6 6-2.691 6-6-2.691-6-6-6M-20 0c-3.309 0-6 2.691-6 6s2.691 6 6 6 6-2.691 6-6-2.691-6-6-6m10 22c3.309 0 6-2.691 6-6s-2.691-6-6-6-6 2.691-6 6 2.691 6 6 6m10-6c0 5.514-4.486 10-10 10s-10-4.486-10-10c-5.514 0-10-4.486-10-10s4.486-10 10-10c0-5.514 4.486-10 10-10S0-9.514 0-4C5.514-4 10 .486 10 6S5.514 16 0 16" style="fill:#fff;fill-opacity:1;fill-rule:nonzero;stroke:none" transform="translate(222 80)"/><path d="M0 0c1.1 0 2 .9 2 2v4c0 1.1-.9 2-2 2s-2-.9-2-2V2c0-1.1.9-2 2-2" style="fill:#fff;fill-opacity:1;fill-rule:nonzero;stroke:none" transform="translate(42 124)"/><path d="M0 0c1.1 0 2 .9 2 2v4c0 1.1-.9 2-2 2s-2-.9-2-2V2c0-1.1.9-2 2-2" style="fill:#fff;fill-opacity:1;fill-rule:nonzero;stroke:none" transform="translate(34 124)"/><path d="M0 0c1.1 0 2 .9 2 2v4c0 1.1-.9 2-2 2s-2-.9-2-2V2c0-1.1.9-2 2-2" style="fill:#fff;fill-opacity:1;fill-rule:nonzero;stroke:none" transform="translate(26 124)"/><path d="M0 0c0-8.389-6.467-15.188-14.445-15.188h-187.11C-209.533-15.188-216-8.389-216 0v88.812H0Zm-216.07 104.171c0 2.563 2.351 4.641 5.251 4.641h22.749v-16H-216v4h-.07zm116-3.359a2 2 0 1 0 4 0 2 2 0 0 0-4 0m-8 4a4 4 0 1 0 0-8 4 4 0 0 0 0 8m-8-4c0-4.412 3.589-8 8-8 2.616 0 4.935 1.267 6.395 3.214a5.97 5.97 0 0 1 3.605-1.214c3.308 0 6 2.691 6 6 0 3.308-2.692 6-6 6-1.354 0-2.6-.457-3.605-1.215-1.46 1.946-3.778 3.214-6.393 3.215h75.998v-16h-152v16h75.997c-4.41-.002-7.997-3.59-7.997-8m116 3.359V92.812h-28v16h22.749c2.9 0 5.251-2.078 5.251-4.641m-216 98.196c0 7.977 6.467 14.445 14.445 14.445h187.109c7.979 0 14.446-6.468 14.446-14.445v-91.091a9.65 9.65 0 0 1-5.251 1.536h-205.498c-1.95 0-3.758-.57-5.251-1.536zm220-105.555v7.359c0 .216-.018.428-.035.641h.035v97.555c0 10.17-8.275 18.445-18.446 18.445h-187.109c-10.171 0-18.445-8.275-18.445-18.445v-97.555h.034c-.016-.213-.034-.425-.034-.641V88.812h.07V0c0-10.581 8.274-19.188 18.445-19.188h187.11C-4.274-19.188 4-10.581 4 0v96.812z" style="fill:#fff;fill-opacity:1;fill-rule:nonzero;stroke:none" transform="translate(236.07 27.189)"/><path d="M0 0a2 2 0 1 1-.001 4.001A2 2 0 0 1 0 0" style="fill:#fff;fill-opacity:1;fill-rule:nonzero;stroke:none" transform="translate(38 184)"/><path d="M0 0a2 2 0 1 1-4.001-.001A2 2 0 0 1 0 0" style="fill:#fff;fill-opacity:1;fill-rule:nonzero;stroke:none" transform="translate(44 178)"/><path d="M0 0a2 2 0 1 1-.001 4.001A2 2 0 0 1 0 0" style="fill:#fff;fill-opacity:1;fill-rule:nonzero;stroke:none" transform="translate(50 176)"/><path d="M0 0a2 2 0 1 1-.001 4.001A2 2 0 0 1 0 0" style="fill:#fff;fill-opacity:1;fill-rule:nonzero;stroke:none" transform="translate(34 176)"/><path d="M0 0a2 2 0 1 1-.001 4.001A2 2 0 0 1 0 0" style="fill:#fff;fill-opacity:1;fill-rule:nonzero;stroke:none" transform="translate(46 184)"/><path d="M0 0a2 2 0 1 1 .001-4.001A2 2 0 0 1 0 0" style="fill:#fff;fill-opacity:1;fill-rule:nonzero;stroke:none" transform="translate(38 172)"/><path d="M0 0a2 2 0 1 1 .001-4.001A2 2 0 0 1 0 0" style="fill:#fff;fill-opacity:1;fill-rule:nonzero;stroke:none" transform="translate(46 172)"/><path d="M0 0a2 2 0 1 1-.001 4.001A2 2 0 0 1 0 0" style="fill:#fff;fill-opacity:1;fill-rule:nonzero;stroke:none" transform="translate(210 184)"/><path d="M0 0a2 2 0 1 1-4.001-.001A2 2 0 0 1 0 0" style="fill:#fff;fill-opacity:1;fill-rule:nonzero;stroke:none" transform="translate(216 178)"/><path d="M0 0a2 2 0 1 1-.001 4.001A2 2 0 0 1 0 0" style="fill:#fff;fill-opacity:1;fill-rule:nonzero;stroke:none" transform="translate(222 176)"/><path d="M0 0a2 2 0 1 1-.001 4.001A2 2 0 0 1 0 0" style="fill:#fff;fill-opacity:1;fill-rule:nonzero;stroke:none" transform="translate(206 176)"/><path d="M0 0a2 2 0 1 1-.001 4.001A2 2 0 0 1 0 0" style="fill:#fff;fill-opacity:1;fill-rule:nonzero;stroke:none" transform="translate(218 184)"/><path d="M0 0a2 2 0 1 1 .001-4.001A2 2 0 0 1 0 0" style="fill:#fff;fill-opacity:1;fill-rule:nonzero;stroke:none" transform="translate(210 172)"/><path d="M0 0a2 2 0 1 1 .001-4.001A2 2 0 0 1 0 0" style="fill:#fff;fill-opacity:1;fill-rule:nonzero;stroke:none" transform="translate(218 172)"/><path d="M0 0h-36a2 2 0 0 0 0 4H0a2 2 0 0 0 0-4m0 8h-36c-3.309 0-6-2.691-6-6s2.691-6 6-6H0c3.309 0 6 2.691 6 6S3.309 8 0 8" style="fill:#fff;fill-opacity:1;fill-rule:nonzero;stroke:none" transform="translate(146 156)"/><path d="M0 0h-4v-4h-4v4h-4v4h4v4h4V4h4Zm-12.79 8 .79.948V8ZM-27.992-4-48 20h12v24a4 4 0 0 0 4 4h8a4 4 0 0 0 4-4V20h12ZM0 12h-9.458l4.531 5.44L.538 24H-16v20c0 4.411-3.589 8-8 8h-8c-4.411 0-8-3.589-8-8V24h-16.542l5.47-6.562 20.008-24 3.073-3.686 3.072 3.688L-16 4.146V-4h4v-4H0v4h4V8H0Z" style="fill:#fff;fill-opacity:1;fill-rule:nonzero;stroke:none" transform="translate(156 176)"/></g></svg>