<svg xmlns="http://www.w3.org/2000/svg" xml:space="preserve" width="245.333" height="320"><defs><clipPath id="a" clipPathUnits="userSpaceOnUse"><path d="M0 256h256V0H0Z"/></clipPath></defs><g clip-path="url(#a)" transform="matrix(1.33333 0 0 -1.33333 -48 330.667)"><path d="M0 0v-52h4a4 4 0 0 0 4-4v-48a4 4 0 0 0-4-4h-142.343a4 4 0 0 0-2.828 1.172l-25.658 25.656A4 4 0 0 0-168-78.343V-40a4 4 0 0 0 4 4v12a4 4 0 0 0-4 4v140a4 4 0 0 0 4 4h58.343a4 4 0 0 0 2.828-1.171l1.658-1.658A4 4 0 0 1-98.343 120h36.687c1.06 0 2.078.421 2.828 1.172l1.656 1.656A4 4 0 0 0-54.343 124H4a4 4 0 0 0 4-4V4a4 4 0 0 0-4-4Zm8-32v-16c0-.347-.058-.677-.141-.997A7.94 7.94 0 0 1 4-48v20a4 4 0 0 0 4-4m4 36v116c0 4.411-3.589 8-8 8h-58.343A7.95 7.95 0 0 1-60 125.657L-61.656 124h-36.687l-1.657 1.657a7.95 7.95 0 0 1-5.657 2.343H-164c-4.411 0-8-3.589-8-8V-20a8 8 0 0 1 4-6.927v-6.146A8 8 0 0 1-172-40v-38.343c0-2.137.832-4.146 2.343-5.657L-144-109.657a7.95 7.95 0 0 1 5.657-2.343H4c4.411 0 8 3.589 8 8v48a7.94 7.94 0 0 1-1.082 3.999A7.9 7.9 0 0 1 12-48v16c0 4.411-3.589 8-8 8v20c4.411 0 8 3.589 8 8" style="fill:#fff;fill-opacity:1;fill-rule:nonzero;stroke:none" transform="translate(208 120)"/><path d="M0 0c0-4.411-3.589-8-8-8h-120c-4.411 0-8 3.589-8 8v164c0 4.411 3.589 8 8 8H-8c4.411 0 8-3.589 8-8zm-8 176h-120c-6.627 0-12-5.373-12-12V0c0-6.627 5.373-12 12-12H-8C-1.373-12 4-6.627 4 0v164c0 6.627-5.373 12-12 12" style="fill:#fff;fill-opacity:1;fill-rule:nonzero;stroke:none" transform="translate(196 52)"/><path d="M0 0h108a2 2 0 0 1 0 4H0a2 2 0 0 1 0-4" style="fill:#fff;fill-opacity:1;fill-rule:nonzero;stroke:none" transform="translate(74 232)"/><path d="M76 180h8v-8h-8zm-4-12h16v16H72Zm4-12h8v-8h-8zm-4-12h16v16H72Zm4-12h8v-8h-8zm-4-12h16v16H72Zm4-12h8v-8h-8Zm-4-12h16v16H72Zm4-12h8v-8h-8Zm-4-12h16v16H72Zm28 108h8v-8h-8zm-4-12h16v16H96Zm4-12h8v-8h-8zm-4-12h16v16H96Zm4-12h8v-8h-8zm-4-12h16v16H96Zm4-12h8v-8h-8zm-4-12h16v16H96Zm4-12h8v-8h-8zm-4-12h16v16H96Zm28 108h8v-8h-8zm-4-12h16v16h-16zm4-12h8v-8h-8zm-4-12h16v16h-16zm4-12h8v-8h-8zm-4-12h16v16h-16zm4-12h8v-8h-8zm-4-12h16v16h-16zm4-12h8v-8h-8zm-4-12h16v16h-16zm28 108h8v-8h-8zm-4-12h16v16h-16zm4-12h8v-8h-8zm-4-12h16v16h-16zm4-12h8v-8h-8zm-4-12h16v16h-16zm4-12h8v-8h-8zm-4-12h16v16h-16zm4-12h8v-8h-8zm-4-12h16v16h-16zm28 108h8v-8h-8zm-4-12h16v16h-16zm4-12h8v-8h-8zm-4-12h16v16h-16zm4-12h8v-8h-8zm-4-12h16v16h-16zm4-12h8v-8h-8zm-4-12h16v16h-16zm4-12h8v-8h-8zm-4-12h16v16h-16z" style="fill:#fff;fill-opacity:1;fill-rule:nonzero;stroke:none"/></g></svg>