<svg xmlns="http://www.w3.org/2000/svg" xml:space="preserve" width="320" height="320"><defs><clipPath id="a" clipPathUnits="userSpaceOnUse"><path d="M0 256h256V0H0Z"/></clipPath></defs><g clip-path="url(#a)" transform="matrix(1.33333 0 0 -1.33333 -10.667 330.667)"><path d="M0 0a8 8 0 0 0-8-8h-4v232h4a8 8 0 0 0 8-8zm-216-8V97.581c.28-.087.582-.18.89-.273l.36-.111.553-.168c14.95-4.521 49.582-13.365 93.306-13.992l.245-.005q2.307-.031 4.646-.032 2.339.001 4.646.032l.245.005c43.739.627 78.38 9.477 93.322 13.997l.525.159.388.12c.303.091.599.183.874.268V-8Zm-8 0a8 8 0 0 0-8 8v216a8 8 0 0 0 8 8h4V-8Zm208 232V101.774l-.302-.095C-27.164 98.235-66.456 87-116 87s-88.836 11.235-99.698 14.679l-.302.095V224zm8 4h-216c-6.617 0-12-5.383-12-12V0c0-6.617 5.383-12 12-12H-8C-1.383-12 4-6.617 4 0v216c0 6.617-5.383 12-12 12" style="fill:#fff;fill-opacity:1;fill-rule:nonzero;stroke:none" transform="translate(244 20)"/><path d="M0 0h-168c-8.822 0-16-7.178-16-16v-24c0-8.822 7.178-16 16-16H0c8.822 0 16 7.178 16 16v24C16-7.178 8.822 0 0 0m0-4c6.6 0 12-5.4 12-12v-24c0-6.6-5.4-12-12-12h-168c-6.6 0-12 5.4-12 12v24c0 6.6 5.4 12 12 12z" style="fill:#fff;fill-opacity:1;fill-rule:nonzero;stroke:none" transform="translate(212 188)"/><path d="M0 0h-56.8c-5.5 0-10-4.5-10-10v-32.4H10V-10C10-4.5 5.5 0 0 0m0-4c3.308 0 6-2.691 6-6v-28.4h-68.8V-10c0 3.309 2.692 6 6 6z" style="fill:#fff;fill-opacity:1;fill-rule:nonzero;stroke:none" transform="translate(113.2 174.4)"/><path d="M0 0h-56.8c-5.5 0-10-4.5-10-10v-32.4H10V-10C10-4.5 5.5 0 0 0m0-4c3.309 0 6-2.691 6-6v-28.4h-68.8V-10c0 3.309 2.692 6 6 6z" style="fill:#fff;fill-opacity:1;fill-rule:nonzero;stroke:none" transform="translate(199.6 174.4)"/><path d="M0 0c-6.627 0-12 5.373-12 12s5.373 12 12 12 12-5.373 12-12S6.627 0 0 0m16 12c0 8.822-7.178 16-16 16s-16-7.178-16-16S-8.822-4 0-4s16 7.178 16 16" style="fill:#fff;fill-opacity:1;fill-rule:nonzero;stroke:none" transform="translate(64 72)"/><path d="M0 0c-5.338 0-9.889 3.534-11.435 8.377C-8.527 5.681-4.479 4 0 4s8.527 1.681 11.435 4.377C9.889 3.534 5.338 0 0 0m12 24v-5.5C12 12.725 6.6 8 0 8s-12 4.725-12 10.5V24c0 6.6 5.4 12 12 12s12-5.4 12-12m-28 1.5V12C-16 3.178-8.822-4 0-4s16 7.178 16 16v13.5C16 33.495 8.822 40 0 40s-16-6.505-16-14.5" style="fill:#fff;fill-opacity:1;fill-rule:nonzero;stroke:none" transform="translate(64 28)"/></g></svg>