<?xml version="1.0" encoding="UTF-8" standalone="no"?>
<svg
   xmlns:dc="http://purl.org/dc/elements/1.1/"
   xmlns:cc="http://creativecommons.org/ns#"
   xmlns:rdf="http://www.w3.org/1999/02/22-rdf-syntax-ns#"
   xmlns:svg="http://www.w3.org/2000/svg"
   xmlns="http://www.w3.org/2000/svg"
   viewBox="0 0 298.66665 320"
   height="320"
   width="298.66666"
   xml:space="preserve"
   id="svg2"
   version="1.1"><metadata
     id="metadata8"><rdf:RDF><cc:Work
         rdf:about=""><dc:format>image/svg+xml</dc:format><dc:type
           rdf:resource="http://purl.org/dc/dcmitype/StillImage" /></cc:Work></rdf:RDF></metadata><defs
     id="defs6"><clipPath
       id="clipPath18"
       clipPathUnits="userSpaceOnUse"><path
         id="path16"
         d="M 0,256 H 256 V 0 H 0 Z" /></clipPath></defs><g
     transform="matrix(1.3333333,0,0,-1.3333333,-21.333333,330.66666)"
     id="g10"><g
       id="g12"><g
         clip-path="url(#clipPath18)"
         id="g14"><g
           transform="translate(232,28)"
           id="g20"><path
             id="path22"
             style="fill:#ffffff;fill-opacity:1;fill-rule:nonzero;stroke:none"
             d="m 0,0 h -4 v -4 -8 -2 c 0,-1.104 -0.896,-2 -2,-2 h -181.455 c -12.111,0 -22.168,8.64 -24.174,20 h 3.629 4 v 4 12 4 h -4 -4 v 182.333 c 0,5.339 4.396,9.667 9.818,9.667 H -5.818 C -0.396,216 4,211.672 4,206.333 V 0 Z m 4,-10 c 0,-1.104 -0.896,-2 -2,-2 H 0 v 8 H 4 Z M -212,8.167 V 20 h 4 V 8 h -3.996 c 0,0.056 -0.004,0.11 -0.004,0.167 M -5.818,220 H -202.182 C -209.801,220 -216,213.869 -216,206.333 V 24 20 8.167 8 4 h 0.314 c 2.047,-13.563 13.926,-24 28.231,-24 H -6 c 2.606,0 4.823,1.674 5.65,4 H 0 2 c 3.309,0 6,2.691 6,6 v 6 4 206.333 C 8,213.869 1.801,220 -5.818,220" /></g><g
           transform="translate(40,60)"
           id="g24"><path
             id="path26"
             style="fill:#ffffff;fill-opacity:1;fill-rule:nonzero;stroke:none"
             d="m 0,0 v 137.464 l 57.237,-6.43 0.698,-0.083 6.721,6.513 h 48.165 l 5.849,-6.476 61.33,3.257 V 0 Z m 180,-19.22 c 0,-2.639 -2.13,-4.78 -4.758,-4.78 H 113.211 100 76 62.789 12 L 0,-8 v 4 H 180 Z M 88,-36 76,-28 h 24 z M 4.758,168 h 170.484 c 2.628,0 4.758,-2.14 4.758,-4.78 v -25.437 l -60.066,-3.187 -5.783,6.404 h -50.7 L 56.876,134.63 0,141.003 v 22.217 c 0,2.64 2.13,4.78 4.758,4.78 m 170.484,4 H 4.758 C -0.071,172 -4,168.062 -4,163.22 V -8 -9.333 l 0.8,-1.067 12,-16 1.2,-1.6 h 2 56.789 l 4.992,-3.328 12,-8 2.219,-1.48 2.219,1.48 12,8 4.992,3.328 h 68.031 c 4.829,0 8.758,3.938 8.758,8.78 v 182.44 c 0,4.842 -3.929,8.78 -8.758,8.78" /></g></g></g></g></svg>