<svg xmlns="http://www.w3.org/2000/svg" xml:space="preserve" width="298.76" height="320"><defs><clipPath id="a" clipPathUnits="userSpaceOnUse"><path d="M0 256h256V0H0Z"/></clipPath></defs><path d="M72 236h112v-88H72Zm112-92h4v96H68v-96h4zM76 108h104V28H76Zm-4-84h112v88H72ZM44 236h-4v-4h4zm172 0h-4v-4h4zM44 148h-4v-4h4zm172 0h-4v-4h4z" style="fill:#fff;fill-opacity:1;fill-rule:nonzero;stroke:none" transform="matrix(1.33333 0 0 -1.33333 -21.333 330.667)"/><g clip-path="url(#a)" transform="matrix(1.33333 0 0 -1.33333 -21.333 330.667)"><path d="M0 0a4 4 0 1 0 0 8 4 4 0 0 0 0-8m0 12c-4.411 0-8-3.589-8-8s3.589-8 8-8S8-.411 8 4s-3.589 8-8 8" style="fill:#fff;fill-opacity:1;fill-rule:nonzero;stroke:none" transform="translate(56 28)"/><path d="M0 0c0-.72-.583-1.303-1.302-1.303h-9.116c-.72 0-1.303.583-1.303 1.303v6.837h-6.837c-.719 0-1.302.583-1.302 1.302v9.117c0 .719.583 1.302 1.302 1.302h6.837v6.837c0 .719.583 1.302 1.303 1.302h9.116c.719 0 1.302-.583 1.302-1.302v-6.837h6.837c.72 0 1.303-.583 1.303-1.302V8.139c0-.719-.583-1.302-1.303-1.302H0Zm4 0v2.837h2.837a5.31 5.31 0 0 1 5.303 5.302v9.117a5.31 5.31 0 0 1-5.303 5.302H4v2.837a5.31 5.31 0 0 1-5.302 5.302h-9.116a5.31 5.31 0 0 1-5.303-5.302v-2.837h-2.837a5.31 5.31 0 0 1-5.302-5.302V8.139a5.31 5.31 0 0 1 5.302-5.302h2.837V0a5.31 5.31 0 0 1 5.303-5.303h9.116A5.31 5.31 0 0 1 4 0" style="fill:#fff;fill-opacity:1;fill-rule:nonzero;stroke:none" transform="translate(47.86 73.303)"/><path d="M0 0a4 4 0 1 0 8 0 4 4 0 0 0-8 0m8-12a4 4 0 1 0-8 0 4 4 0 0 0 8 0m4 12c0 4.411-3.589 8-8 8s-8-3.589-8-8a7.97 7.97 0 0 1 2.727-6A7.97 7.97 0 0 1-4-12c0-4.411 3.589-8 8-8s8 3.589 8 8a7.97 7.97 0 0 1-2.727 6A7.97 7.97 0 0 1 12 0" style="fill:#fff;fill-opacity:1;fill-rule:nonzero;stroke:none" transform="translate(196 40)"/><path d="M0 0c-3.309 0-6 2.691-6 6s2.691 6 6 6 6-2.691 6-6-2.691-6-6-6m-10-10c-3.309 0-6 2.691-6 6s2.691 6 6 6 6-2.691 6-6-2.691-6-6-6M-20 0c-3.309 0-6 2.691-6 6s2.691 6 6 6 6-2.691 6-6-2.691-6-6-6m10 22c3.309 0 6-2.691 6-6s-2.691-6-6-6-6 2.691-6 6 2.691 6 6 6m10-6c0 5.514-4.486 10-10 10s-10-4.486-10-10c-5.514 0-10-4.486-10-10s4.486-10 10-10c0-5.514 4.486-10 10-10S0-9.514 0-4C5.514-4 10 .486 10 6S5.514 16 0 16" style="fill:#fff;fill-opacity:1;fill-rule:nonzero;stroke:none" transform="translate(222 80)"/><path d="M0 0c1.1 0 2 .9 2 2v4c0 1.1-.9 2-2 2s-2-.9-2-2V2c0-1.1.9-2 2-2" style="fill:#fff;fill-opacity:1;fill-rule:nonzero;stroke:none" transform="translate(42 124)"/><path d="M0 0c1.1 0 2 .9 2 2v4c0 1.1-.9 2-2 2s-2-.9-2-2V2c0-1.1.9-2 2-2" style="fill:#fff;fill-opacity:1;fill-rule:nonzero;stroke:none" transform="translate(34 124)"/><path d="M0 0c1.1 0 2 .9 2 2v4c0 1.1-.9 2-2 2s-2-.9-2-2V2c0-1.1.9-2 2-2" style="fill:#fff;fill-opacity:1;fill-rule:nonzero;stroke:none" transform="translate(26 124)"/><path d="M0 0h-187.11c-7.977 0-14.445 6.8-14.445 15.188V104h216V15.188C14.445 6.8 7.979 0 0 0m-201.625 112v7.359c0 2.563 2.351 4.641 5.251 4.641h22.749v-16h-27.93v4zm116 4a2 2 0 1 0 4.001-.001 2 2 0 0 0-4.001.001m-8 4a4 4 0 1 0 0-8 4 4 0 0 0 0 8m-8-4c0-4.411 3.589-8 8-8 2.616 0 4.936 1.268 6.396 3.215A5.96 5.96 0 0 1-83.625 110c3.309 0 6 2.691 6 6s-2.691 6-6 6c-1.354 0-2.6-.456-3.604-1.215-1.46 1.947-3.779 3.214-6.394 3.215h75.998v-16h-152v16h75.998c-4.411-.001-7.998-3.59-7.998-8m88 8H9.124c2.9 0 5.251-2.078 5.251-4.641V108h-28zM-187.18 232H-.07c7.978 0 14.445-6.467 14.445-14.445v-91.09A9.65 9.65 0 0 1 9.124 128h-205.498a9.65 9.65 0 0 1-5.251-1.535v91.09c0 7.978 6.467 14.445 14.445 14.445M18.375 112v7.359c0 .217-.018.429-.035.641h.035v97.555C18.375 227.726 10.101 236-.07 236h-187.11c-10.171 0-18.445-8.274-18.445-18.445V120h.035c-.017-.212-.035-.424-.035-.641V104h.07V15.188C-205.555 4.607-197.28-4-187.11-4H0c10.171 0 18.445 8.607 18.445 19.188V112Z" style="fill:#fff;fill-opacity:1;fill-rule:nonzero;stroke:none" transform="translate(221.625 12)"/><path d="M0 0a2 2 0 1 1-.001 4.001A2 2 0 0 1 0 0" style="fill:#fff;fill-opacity:1;fill-rule:nonzero;stroke:none" transform="translate(38 184)"/><path d="M0 0a2 2 0 1 1 .001-4.001A2 2 0 0 1 0 0" style="fill:#fff;fill-opacity:1;fill-rule:nonzero;stroke:none" transform="translate(42 180)"/><path d="M0 0a2 2 0 1 1-.001 4.001A2 2 0 0 1 0 0" style="fill:#fff;fill-opacity:1;fill-rule:nonzero;stroke:none" transform="translate(50 176)"/><path d="M0 0a2 2 0 1 1-.001 4.001A2 2 0 0 1 0 0" style="fill:#fff;fill-opacity:1;fill-rule:nonzero;stroke:none" transform="translate(34 176)"/><path d="M0 0a2 2 0 1 1-.001 4.001A2 2 0 0 1 0 0" style="fill:#fff;fill-opacity:1;fill-rule:nonzero;stroke:none" transform="translate(46 184)"/><path d="M0 0a2 2 0 1 1 .001-4.001A2 2 0 0 1 0 0" style="fill:#fff;fill-opacity:1;fill-rule:nonzero;stroke:none" transform="translate(38 172)"/><path d="M0 0a2 2 0 1 1 .001-4.001A2 2 0 0 1 0 0" style="fill:#fff;fill-opacity:1;fill-rule:nonzero;stroke:none" transform="translate(46 172)"/><path d="M0 0a2 2 0 1 1-.001 4.001A2 2 0 0 1 0 0" style="fill:#fff;fill-opacity:1;fill-rule:nonzero;stroke:none" transform="translate(210 184)"/><path d="M0 0a2 2 0 1 1 .001-4.001A2 2 0 0 1 0 0" style="fill:#fff;fill-opacity:1;fill-rule:nonzero;stroke:none" transform="translate(214 180)"/><path d="M0 0a2 2 0 1 1-.001 4.001A2 2 0 0 1 0 0" style="fill:#fff;fill-opacity:1;fill-rule:nonzero;stroke:none" transform="translate(222 176)"/><path d="M0 0a2 2 0 1 1-.001 4.001A2 2 0 0 1 0 0" style="fill:#fff;fill-opacity:1;fill-rule:nonzero;stroke:none" transform="translate(206 176)"/><path d="M0 0a2 2 0 1 1-.001 4.001A2 2 0 0 1 0 0" style="fill:#fff;fill-opacity:1;fill-rule:nonzero;stroke:none" transform="translate(218 184)"/><path d="M0 0a2 2 0 1 1 .001-4.001A2 2 0 0 1 0 0" style="fill:#fff;fill-opacity:1;fill-rule:nonzero;stroke:none" transform="translate(210 172)"/><path d="M0 0a2 2 0 1 1 .001-4.001A2 2 0 0 1 0 0" style="fill:#fff;fill-opacity:1;fill-rule:nonzero;stroke:none" transform="translate(218 172)"/></g></svg>