<svg xmlns="http://www.w3.org/2000/svg" xml:space="preserve" width="320" height="165.333"><defs><clipPath id="a" clipPathUnits="userSpaceOnUse"><path d="M0 256h256V0H0Z"/></clipPath></defs><g clip-path="url(#a)" transform="matrix(1.33333 0 0 -1.33333 -10.667 250.667)"><path d="M0 0a4 4 0 0 0-4-4h-224a4 4 0 0 0-4 4v108a4 4 0 0 0 4 4H-4a4 4 0 0 0 4-4zm-4 116h-224c-4.411 0-8-3.589-8-8V0c0-4.411 3.589-8 8-8H-4C.411-8 4-4.411 4 0v108c0 4.411-3.589 8-8 8" style="fill:#fff;fill-opacity:1;fill-rule:nonzero;stroke:none" transform="translate(244 72)"/><path d="M0 0a2 2 0 0 0 2-2v-8a2 2 0 0 0-2-2h-12v-12a2 2 0 0 0-2-2h-8a2 2 0 0 0-2 2v12h-12a2 2 0 0 0-2 2v8a2 2 0 0 0 2 2h12v12a2 2 0 0 0 2 2h8a2 2 0 0 0 2-2V0Zm150-10c0-5.522-4.478-10-10-10s-10 4.478-10 10 4.478 10 10 10 10-4.477 10-10m26 10c0-5.523-4.478-10-10-10s-10 4.477-10 10 4.478 10 10 10 10-4.477 10-10m-10 14c-7.72 0-14-6.28-14-14 0-1.326.197-2.604.543-3.82C150.255.805 145.5 4 140 4c-7.72 0-14-6.28-14-14s6.28-14 14-14 14 6.28 14 14c0 1.326-.197 2.604-.543 3.82C155.745-10.804 160.5-14 166-14c3.916 0 7.457 1.621 10 4.221v-51.456C163.021-59.108 125.782-54 68-54s-95.021-5.108-108-7.235v46.776A5.97 5.97 0 0 1-36-16h8v-8c0-3.309 2.691-6 6-6h8c3.309 0 6 2.691 6 6v8h8c3.309 0 6 2.691 6 6v8c0 3.309-2.691 6-6 6h-8v8c0 3.309-2.691 6-6 6h-8c-3.309 0-6-2.691-6-6V4h-8a5.97 5.97 0 0 1-4-1.541v34.884C-25.529 35.237 15.751 30 68 30s93.529 5.237 108 7.343V9.779c-2.543 2.6-6.084 4.221-10 4.221m12.01 27.663q-.15 0-.304-.023C167.444 40.083 123.805 34 68 34s-99.445 6.083-109.706 7.64A1.998 1.998 0 0 1-44 39.662V-63.601a1.998 1.998 0 0 1 2.341-1.97C-32.143-63.912 6.104-58 68-58s100.143-5.912 109.659-7.571q.176-.031.348-.031c1.08 0 1.993.877 1.993 2.001V39.662c0 1.12-.908 2.001-1.99 2.001" style="fill:#fff;fill-opacity:1;fill-rule:nonzero;stroke:none" transform="translate(60 138)"/><path d="M96 72h24v4H96Zm36 0h24v4h-24zm-52 84h92V96H80Zm-4-64h100v68H76Z" style="fill:#fff;fill-opacity:1;fill-rule:nonzero;stroke:none"/></g></svg>