<?xml version="1.0" encoding="UTF-8" standalone="no"?>
<svg
   xmlns:dc="http://purl.org/dc/elements/1.1/"
   xmlns:cc="http://creativecommons.org/ns#"
   xmlns:rdf="http://www.w3.org/1999/02/22-rdf-syntax-ns#"
   xmlns:svg="http://www.w3.org/2000/svg"
   xmlns="http://www.w3.org/2000/svg"
   viewBox="0 0 309.33331 160"
   height="160"
   width="309.33331"
   xml:space="preserve"
   id="svg2"
   version="1.1"><metadata
     id="metadata8"><rdf:RDF><cc:Work
         rdf:about=""><dc:format>image/svg+xml</dc:format><dc:type
           rdf:resource="http://purl.org/dc/dcmitype/StillImage" /></cc:Work></rdf:RDF></metadata><defs
     id="defs6"><clipPath
       id="clipPath18"
       clipPathUnits="userSpaceOnUse"><path
         id="path16"
         d="M 0,256 H 256 V 0 H 0 Z" /></clipPath></defs><g
     transform="matrix(1.3333333,0,0,-1.3333333,-16,250.66666)"
     id="g10"><g
       id="g12"><g
         clip-path="url(#clipPath18)"
         id="g14"><g
           transform="translate(240,76)"
           id="g20"><path
             id="path22"
             style="fill:#ffffff;fill-opacity:1;fill-rule:nonzero;stroke:none"
             d="m 0,0 c 0,-2.206 -1.794,-4 -4,-4 h -216 c -2.206,0 -4,1.794 -4,4 v 104 c 0,2.206 1.794,4 4,4 H -4 c 2.206,0 4,-1.794 4,-4 z m -4,112 h -216 c -4.418,0 -8,-3.582 -8,-8 V 0 c 0,-4.418 3.582,-8 8,-8 H -4 c 4.418,0 8,3.582 8,8 v 104 c 0,4.418 -3.582,8 -8,8" /></g><g
           transform="translate(224,126)"
           id="g24"><path
             id="path26"
             style="fill:#ffffff;fill-opacity:1;fill-rule:nonzero;stroke:none"
             d="m 0,0 c 0,-14.359 -11.641,-26 -26,-26 h -140 c -14.359,0 -26,11.641 -26,26 0,14.359 11.641,26 26,26 H -26 C -11.641,26 0,14.359 0,0 m -26,30 h -140 c -16.542,0 -30,-13.458 -30,-30 0,-16.542 13.458,-30 30,-30 H -26 C -9.458,-30 4,-16.542 4,0 4,16.542 -9.458,30 -26,30" /></g><path
           id="path28"
           style="fill:#ffffff;fill-opacity:1;fill-rule:nonzero;stroke:none"
           d="m 148,80 h -40 v 8 h 40 z m -40,12 h -4 v -4 -8 -4 h 4 40 4 v 4 8 4 h -4 z" /><g
           transform="translate(69,125.5693)"
           id="g30"><path
             id="path32"
             style="fill:#ffffff;fill-opacity:1;fill-rule:nonzero;stroke:none"
             d="M 0,0 C 0,-1.419 -1.15,-2.569 -2.569,-2.569 H -19.431 C -20.85,-2.569 -22,-1.419 -22,0 v 0.861 c 0,1.419 1.15,2.57 2.569,2.57 H -2.569 C -1.15,3.431 0,2.28 0,0.861 Z m -3,6.431 h -16 c -3.313,0 -6,-2.687 -6,-6 0,-3.314 2.687,-6 6,-6 h 16 c 3.313,0 6,2.686 6,6 0,3.313 -2.687,6 -6,6" /></g><g
           transform="translate(92,124)"
           id="g34"><path
             id="path36"
             style="fill:#ffffff;fill-opacity:1;fill-rule:nonzero;stroke:none"
             d="m 0,0 c 0,-2.209 -1.791,-4 -4,-4 -2.209,0 -4,1.791 -4,4 v 4 c 0,2.209 1.791,4 4,4 2.209,0 4,-1.791 4,-4 z m -4,12 c -4.411,0 -8,-3.589 -8,-8 V 0 c 0,-4.411 3.589,-8 8,-8 4.411,0 8,3.589 8,8 v 2 2 c 0,4.411 -3.589,8 -8,8" /></g><g
           transform="translate(102,124)"
           id="g38"><path
             id="path40"
             style="fill:#ffffff;fill-opacity:1;fill-rule:nonzero;stroke:none"
             d="M 0,0 C -1.103,0 -2,0.897 -2,2 -2,3.103 -1.103,4 0,4 1.103,4 2,3.103 2,2 2,0.897 1.103,0 0,0 m 0,8 c -3.313,0 -6,-2.687 -6,-6 0,-3.313 2.687,-6 6,-6 3.313,0 6,2.687 6,6 0,3.313 -2.687,6 -6,6" /></g><g
           transform="translate(144,123)"
           id="g42"><path
             id="path44"
             style="fill:#ffffff;fill-opacity:1;fill-rule:nonzero;stroke:none"
             d="m 0,0 h -8 v 1 4 1 h 8 z m -8,10 h -4 V 6 5 H -28 V 1 h 16 V 0 -4 h 4 8 4 v 4 6 4 H 0 Z" /></g><path
           id="path46"
           style="fill:#ffffff;fill-opacity:1;fill-rule:nonzero;stroke:none"
           d="m 166,123 h -8 v 6 h 8 z m 4,6 v 4 h -4 -8 -4 v -4 -1 h -2 v -4 h 2 v -1 -4 h 4 8 4 v 4 1 h 2 v 4 h -2 z" /><g
           transform="translate(198,112)"
           id="g48"><path
             id="path50"
             style="fill:#ffffff;fill-opacity:1;fill-rule:nonzero;stroke:none"
             d="m 0,0 c -7.72,0 -14,6.28 -14,14 0,7.72 6.28,14 14,14 C 7.72,28 14,21.72 14,14 14,6.28 7.72,0 0,0 M 0,32 C -9.941,32 -18,23.941 -18,14 -18,4.059 -9.941,-4 0,-4 9.941,-4 18,4.059 18,14 18,23.941 9.941,32 0,32" /></g><g
           transform="translate(198,120)"
           id="g52"><path
             id="path54"
             style="fill:#ffffff;fill-opacity:1;fill-rule:nonzero;stroke:none"
             d="m 0,0 c -3.309,0 -6,2.691 -6,6 0,3.309 2.691,6 6,6 C 3.309,12 6,9.309 6,6 6,2.691 3.309,0 0,0 M 0,16 C -5.522,16 -10,11.523 -10,6 -10,0.478 -5.522,-4 0,-4 5.522,-4 10,0.478 10,6 10,11.523 5.522,16 0,16" /></g></g></g></g></svg>