<svg xmlns="http://www.w3.org/2000/svg" xml:space="preserve" width="320" height="208"><defs><clipPath id="a" clipPathUnits="userSpaceOnUse"><path d="M0 256h256V0H0Z"/></clipPath></defs><g clip-path="url(#a)" transform="matrix(1.33333 0 0 -1.33333 -10.854 277.333)"><path d="M0 0v86.37c0 .449.394.815.878.815h190.244c.484 0 .878-.366.878-.815V0c0-.45-.394-.815-.878-.815H.878C.394-.815 0-.45 0 0m196 0v86.37c0 2.659-2.184 4.815-4.878 4.815H.878C-1.816 91.185-4 89.029-4 86.37V0C-4-2.659-1.816-4.815.878-4.815h190.244C193.816-4.815 196-2.659 196 0" style="fill:#fff;fill-opacity:1;fill-rule:nonzero;stroke:none" transform="translate(32 96.815)"/><path d="M0 0h-16.141v-20h-4V4h16v112c0 4.411-3.588 8-8 8h-208c-4.411 0-8-3.589-8-8V4h16v-24h-4V0H-232v118.452c0 5.274 4.328 9.548 9.667 9.548H-9.667C-4.328 128 0 123.726 0 118.452Zm-208.141-20V8h-16v108a4 4 0 0 0 4 4h208a4 4 0 0 0 4-4V8h-16v-28ZM-9.667 132h-212.666c-7.536 0-13.667-6.078-13.667-13.548V-4h15.859v-20h208v20H4v122.452C4 125.922-2.131 132-9.667 132" style="fill:#fff;fill-opacity:1;fill-rule:nonzero;stroke:none" transform="translate(244.14 76)"/></g></svg>