<svg xmlns="http://www.w3.org/2000/svg" xml:space="preserve" width="320" height="192"><defs><clipPath id="a" clipPathUnits="userSpaceOnUse"><path d="M0 256h256V0H0Z"/></clipPath></defs><g clip-path="url(#a)" transform="matrix(1.33333 0 0 -1.33333 -10.667 266.667)"><path d="M0 0h-222a5.01 5.01 0 0 1-4.955-4.327A6.01 6.01 0 0 1-231-10v-134H9v134a6.01 6.01 0 0 1-4.045 5.673A5.01 5.01 0 0 1 0 0m0-4a1 1 0 0 0 1-1v-1a2 2 0 0 1 2-2 2 2 0 0 0 2-2v-130h-232v130a2 2 0 0 0 2 2 2 2 0 0 1 2 2v1a1 1 0 0 0 1 1z" style="fill:#fff;fill-opacity:1;fill-rule:nonzero;stroke:none" transform="translate(239 200)"/><path d="M0 0h-208a4 4 0 0 1-4-4v-120a4 4 0 0 1 4-4h12v2a2 2 0 0 0 2 2h8a2 2 0 0 0 2-2v-2h40v4a2 2 0 0 0 4 0v-4h116v2a2 2 0 0 0 2 2h8a2 2 0 0 0 2-2v-2H0a4 4 0 0 1 4 4V-4a4 4 0 0 1-4 4m0-4v-120h-8.343A6.01 6.01 0 0 1-14-120h-8a6.01 6.01 0 0 1-5.657-4H-136c0 3.309-2.691 6-6 6s-6-2.691-6-6h-32.343a6.01 6.01 0 0 1-5.657 4h-8a6.01 6.01 0 0 1-5.657-4H-208V-4z" style="fill:#fff;fill-opacity:1;fill-rule:nonzero;stroke:none" transform="translate(232 192)"/><path d="M220 180H36V76h184Zm-4-100H40v96h176z" style="fill:#fff;fill-opacity:1;fill-rule:nonzero;stroke:none"/></g></svg>