<svg xmlns="http://www.w3.org/2000/svg" xml:space="preserve" width="309.333" height="320"><defs><clipPath id="a" clipPathUnits="userSpaceOnUse"><path d="M0 256h256V0H0Z"/></clipPath></defs><g clip-path="url(#a)" transform="matrix(1.33333 0 0 -1.33333 -16 330.667)"><path d="M0 0c0-6.6-5.4-12-12-12h-76v4h72v224l4 4c6.6 0 12-5.4 12-12zm-132-12v32c0 11.046 8.954 20 20 20s20-8.954 20-20v-32zm-80 0c-6.6 0-12 5.4-12 12v208c0 6.6 5.4 12 12 12h4V-8h72v-4zm24 232V0h44v24c0 17.673 14.327 32 32 32s32-14.327 32-32V0h44v216h16V-4h-68v24c0 13.233-10.767 24-24 24s-24-10.767-24-24V-4h-68v224zm40 0v-44c0-15.991 10.483-29.574 24.937-34.253a198 198 0 0 1-19.087-1.86l-26.777-4.155-.124-.019-.121-.027C-175.446 134.307-180 128.551-180 122V70c0-7.72 6.145-14 13.697-14h37.843C-140.052 50.013-148 37.921-148 24V4h-36v216zm12 0v-27.192l-1.211-.808H-136v-12c0-13.233 10.767-24 24-24s24 10.767 24 24v12h1.211l-1.211.808V220l4-4h4v-40c0-17.673-14.327-32-32-32s-32 14.327-32 32v44zm12-24 12 8 12-8zm-8-4h40v-12c0-11.046-8.954-20-20-20s-20 8.954-20 20zm20 28h20v-24.526l-5.781 3.854-12 8-2.219 1.48-2.219-1.48-12-8-5.781-3.854V220Zm25.707-83.933L-57.697 132c5.334 0 9.697-4.5 9.697-10V70c0-5.5-4.363-10-9.697-10h-108.606c-5.333 0-9.697 4.5-9.697 10v52c0 4.789 3.31 8.817 7.686 9.779l26.747 4.151a193 193 0 0 0 55.274.137M-40 216V4h-36v20c0 13.921-7.948 26.013-19.539 32h37.842C-50.145 56-44 62.28-44 70v52c0 7.615-5.979 13.829-13.39 13.997l-28.339 4.031a197 197 0 0 1-15.623 1.58C-86.684 146.159-76 159.855-76 176v40zm28 8h-1.657l-1.171-1.171-2.829-2.829h-64.686l-2.829 2.829-1.171 1.171H-212c-8.822 0-16-7.178-16-16V0c0-8.822 7.178-16 16-16h200C-3.178-16 4-8.822 4 0v208c0 8.822-7.178 16-16 16" style="fill:#fff;fill-opacity:1;fill-rule:nonzero;stroke:none" transform="translate(240 24)"/><path d="M0 0a2 2 0 1 1 .001-4.001A2 2 0 0 1 0 0" style="fill:#fff;fill-opacity:1;fill-rule:nonzero;stroke:none" transform="translate(116 32)"/><path d="M0 0a2 2 0 1 1 .001-4.001A2 2 0 0 1 0 0" style="fill:#fff;fill-opacity:1;fill-rule:nonzero;stroke:none" transform="translate(124 32)"/><path d="M0 0a2 2 0 1 1 .001-4.001A2 2 0 0 1 0 0" style="fill:#fff;fill-opacity:1;fill-rule:nonzero;stroke:none" transform="translate(132 32)"/><path d="M0 0a2 2 0 1 1 .001-4.001A2 2 0 0 1 0 0" style="fill:#fff;fill-opacity:1;fill-rule:nonzero;stroke:none" transform="translate(140 32)"/></g></svg>