<svg xmlns="http://www.w3.org/2000/svg" xml:space="preserve" width="320" height="256"><path d="M0 0h-24v184H0Zm-68 16h40V0h-40ZM-204 0v28h132V0Zm-28 0v184h160V32h-136V0Zm164 164h40v-20h-40zm40-28h-40v4h40zm-40-4h40v-4h-40zm0-8h40v-4h-40zm0-8h40v-4h-40zm0-8h40v-4h-40zm0-8h40v-4h-40zm0-8h40v-4h-40zm0-8h40v-4h-40zm0-8h40v-4h-40zm0-8h40v-4h-40zm40-20h-40v4h40zm-40 12h40v-4h-40zm0-16h40v-4h-40zm40-24h-40v16h40zm0 148h-40v16h40zm28 20h-236V-4H4v192z" style="fill:#fff;fill-opacity:1;fill-rule:nonzero;stroke:none" transform="matrix(1.33333 0 0 -1.33333 314.667 250.667)"/></svg>