<svg xmlns="http://www.w3.org/2000/svg" xml:space="preserve" width="298.667" height="320"><defs><clipPath id="a" clipPathUnits="userSpaceOnUse"><path d="M0 256h256V0H0Z"/></clipPath></defs><g clip-path="url(#a)" transform="matrix(1.33333 0 0 -1.33333 -21.333 330.667)"><path d="M0 0a1 1 0 0 0 1 1h2a1 1 0 0 0 1-1v-2a1 1 0 0 0-1-1H1a1 1 0 0 0-1 1zm1-7h2c2.757 0 5 2.243 5 5v2c0 2.757-2.243 5-5 5H1c-2.757 0-5-2.243-5-5v-2c0-2.757 2.243-5 5-5" style="fill:#fff;fill-opacity:1;fill-rule:nonzero;stroke:none" transform="translate(36 231)"/><path d="M0 0a1 1 0 0 0 1 1h2a1 1 0 0 0 1-1v-2a1 1 0 0 0-1-1H1a1 1 0 0 0-1 1zm1-7h2c2.757 0 5 2.243 5 5v2c0 2.757-2.243 5-5 5H1c-2.757 0-5-2.243-5-5v-2c0-2.757 2.243-5 5-5" style="fill:#fff;fill-opacity:1;fill-rule:nonzero;stroke:none" transform="translate(216 231)"/><path d="M0 0a1 1 0 0 0-1-1h-2a1 1 0 0 0-1 1v2a1 1 0 0 0 1 1h2a1 1 0 0 0 1-1Zm-1 7h-2c-2.757 0-5-2.243-5-5V0c0-2.757 2.243-5 5-5h2c2.757 0 5 2.243 5 5v2c0 2.757-2.243 5-5 5" style="fill:#fff;fill-opacity:1;fill-rule:nonzero;stroke:none" transform="translate(40 149)"/><path d="M0 0a1 1 0 0 0-1-1h-2a1 1 0 0 0-1 1v2a1 1 0 0 0 1 1h2a1 1 0 0 0 1-1Zm-1 7h-2c-2.757 0-5-2.243-5-5V0c0-2.757 2.243-5 5-5h2c2.757 0 5 2.243 5 5v2c0 2.757-2.243 5-5 5" style="fill:#fff;fill-opacity:1;fill-rule:nonzero;stroke:none" transform="translate(220 149)"/><path d="M0 0a7.5 7.5 0 0 0-7.5 7.5A7.5 7.5 0 0 0 0 15a7.5 7.5 0 0 0 7.5-7.5A7.5 7.5 0 0 0 0 0m0 17.5c-5.523 0-10-4.478-10-10s4.477-10 10-10 10 4.478 10 10-4.477 10-10 10" style="fill:#fff;fill-opacity:1;fill-rule:nonzero;stroke:none" transform="translate(43 89.5)"/><path d="M0 0a2 2 0 1 0 4.001-.001A2 2 0 0 0 0 0m103-62h-4v-24h4v-14c0-.32-.082-.618-.215-.886A11.94 11.94 0 0 1 95-98H71v88a4 4 0 0 1-4 4H50.89A6.98 6.98 0 0 1 53-1c0 3.86-3.141 7-7 7s-7-3.14-7-7c0-1.958.811-3.729 2.11-5H.273c.074.064.152.124.222.191A6.006 6.006 0 0 1 8 0 6.006 6.006 0 0 1 .495 5.809c-.07.067-.148.127-.222.191H83c11.046 0 20-8.954 20-20zm-8-56H83v16h12a7.99 7.99 0 0 0 6.894-3.955l.027-.045a7.95 7.95 0 0 0 1.079-4 8 8 0 0 0-8-8m-32-68a4 4 0 1 0 8 0 4 4 0 0 0-8 0m0-16a4 4 0 1 0 8 0 4 4 0 0 0-8 0m40 50v-54c0-11.046-8.954-20-20-20H59.919c1.908 2.126 3.081 4.925 3.081 8v9.082A7.94 7.94 0 0 1 67-210c4.411 0 8 3.589 8 8s-3.589 8-8 8a7.94 7.94 0 0 1-4-1.082v2.164A7.94 7.94 0 0 1 67-194c4.411 0 8 3.589 8 8s-3.589 8-8 8a7.94 7.94 0 0 1-4-1.082v19.102a9.93 9.93 0 0 1 6-2.02c.781 0 1.539.1 2.27.27-.17-.731-.27-1.489-.27-2.27 0-5.514 4.486-10 10-10s10 4.486 10 10c0 .781-.1 1.539-.27 2.27.731-.17 1.489-.27 2.27-.27 5.514 0 10 4.486 10 10s-4.486 10-10 10c-.781 0-1.539-.1-2.27-.27.17.731.27 1.489.27 2.27 0 5.514-4.486 10-10 10a9.9 9.9 0 0 1-4.218-.946c.139.628.218 1.277.218 1.946a8.99 8.99 0 0 1-3.355 7H95c3.075 0 5.874 1.173 8 3.081zm-164 24H51v-80H-61Zm65.273-98A7.97 7.97 0 0 1 7-220c0 4.411-3.589 8-8 8h56v88H-65v-88h56c-4.411 0-8-3.589-8-8a7.97 7.97 0 0 1 2.726-6H-61a8 8 0 0 0-8 8v96H59v-96a8 8 0 0 0-8-8zM-13-220a4 4 0 0 0 4 4h8a4 4 0 0 0 0-8h-8a4 4 0 0 0-4 4m-77 64c-8.284 0-15 6.716-15 15s6.716 15 15 15 15-6.716 15-15-6.716-15-15-15m11.471-15a.88.88 0 0 0 .882-.883v-5.294a.88.88 0 0 0-.882-.882h-7.942V-186a.883.883 0 0 0-.882-.883h-5.294a.883.883 0 0 0-.882.883v7.941h-7.942a.88.88 0 0 0-.882.882v5.294c0 .488.395.883.882.883h7.942v7.941c0 .488.395.882.882.882h5.294a.88.88 0 0 0 .882-.882V-171ZM-113-206v87.081a11.94 11.94 0 0 1 8-3.081h32v-10.565C-76.114-126.314-82.555-122-90-122c-10.477 0-19-8.523-19-19 0-8.542 5.667-15.781 13.438-18.166-1.187-.891-1.967-2.297-1.967-3.893V-167h-3.942a4.89 4.89 0 0 1-4.882-4.883v-5.294a4.89 4.89 0 0 1 4.882-4.882h3.942V-186a4.89 4.89 0 0 1 4.882-4.883h5.294A4.89 4.89 0 0 1-82.471-186v3.941h3.942a4.89 4.89 0 0 1 4.882 4.882v5.294A4.89 4.89 0 0 1-78.529-167h-3.942v3.941c0 1.596-.78 3.002-1.967 3.893 5.013 1.538 9.133 5.105 11.438 9.731V-218c0-3.075 1.172-5.874 3.081-8H-93c-11.046 0-20 8.954-20 20m1.079 100 .027.045A7.99 7.99 0 0 0-105-102h12v-16h-12a8 8 0 0 0-8 8c0 1.459.397 2.822 1.079 4M-113-86h4v24h-4v48c0 11.046 8.954 20 20 20h82.726A7.98 7.98 0 0 1-13 0a7.98 7.98 0 0 1 2.726-6H-51.11A6.98 6.98 0 0 1-49-1c0 3.86-3.14 7-7 7s-7-3.14-7-7c0-1.958.81-3.729 2.11-5H-77a4 4 0 0 1-4-4v-88h-24a11.94 11.94 0 0 1-7.785-2.886A2 2 0 0 0-113-100zM-9 0a4 4 0 1 0 8 0 4 4 0 0 0-8 0m-50-1a3 3 0 1 0 6 0 3 3 0 0 0-6 0M67-98H-77v88H67Zm-4-20c0 2.209 2.687 4 6 4s6-1.791 6-4zm5-16a5 5 0 0 0-5 5 5 5 0 0 0 5 5 5 5 0 0 0 5-5 5 5 0 0 0-5-5m3.27-8.27c-.731.17-1.489.27-2.27.27a9.93 9.93 0 0 1-6-2.02v7.541a8.96 8.96 0 0 1 8.371-.86A10 10 0 0 1 71-140c0-.781.1-1.539.27-2.27M81-146a6 6 0 0 0 0 12 6 6 0 0 0 0-12m6-6a6 6 0 0 0 12 0 6 6 0 0 0-12 0m-6-6a6 6 0 0 0 0-12 6 6 0 0 0 0 12m-2.27 8.27c.731-.17 1.489-.27 2.27-.27s1.539.1 2.27.27c-.17-.731-.27-1.489-.27-2.27s.1-1.539.27-2.27c-.731.17-1.489.27-2.27.27s-1.539-.1-2.27-.27c.17.731.27 1.489.27 2.27s-.1 1.539-.27 2.27M75-152a6 6 0 0 0-12 0 6 6 0 0 0 12 0m4 34c0 4.486-4.393 8-10 8-3.771 0-6.987-1.594-8.692-4H-73v-4h-16v16H79ZM43-1a3 3 0 1 0 6 0 3 3 0 0 0-6 0m64-13c0 13.233-10.767 24-24 24H-93c-13.233 0-24-10.767-24-24v-86c0-1.564.606-2.985 1.59-4.055A11.9 11.9 0 0 1-117-110v-96c0-13.255 10.745-24 24-24H83c13.255 0 24 10.745 24 24v100h-.7a12 12 0 0 1-.89 1.945A5.97 5.97 0 0 1 107-100z" style="fill:#fff;fill-opacity:1;fill-rule:nonzero;stroke:none" transform="translate(133 238)"/><path d="M0 0a2 2 0 1 1-.001 4.001A2 2 0 0 1 0 0" style="fill:#fff;fill-opacity:1;fill-rule:nonzero;stroke:none" transform="translate(30 188)"/><path d="M0 0a2 2 0 1 1-.001 4.001A2 2 0 0 1 0 0" style="fill:#fff;fill-opacity:1;fill-rule:nonzero;stroke:none" transform="translate(38 188)"/><path d="M0 0a2 2 0 1 1-.001 4.001A2 2 0 0 1 0 0" style="fill:#fff;fill-opacity:1;fill-rule:nonzero;stroke:none" transform="translate(38 196)"/><path d="M0 0a2 2 0 1 1-.001 4.001A2 2 0 0 1 0 0" style="fill:#fff;fill-opacity:1;fill-rule:nonzero;stroke:none" transform="translate(38 180)"/><path d="M0 0a2 2 0 1 1-.001 4.001A2 2 0 0 1 0 0" style="fill:#fff;fill-opacity:1;fill-rule:nonzero;stroke:none" transform="translate(46 188)"/><path d="M0 0a2 2 0 1 1 .001-4.001A2 2 0 0 1 0 0" style="fill:#fff;fill-opacity:1;fill-rule:nonzero;stroke:none" transform="translate(210 192)"/><path d="M0 0a2 2 0 1 1 .001-4.001A2 2 0 0 1 0 0" style="fill:#fff;fill-opacity:1;fill-rule:nonzero;stroke:none" transform="translate(218 192)"/><path d="M0 0a2 2 0 1 1 .001-4.001A2 2 0 0 1 0 0" style="fill:#fff;fill-opacity:1;fill-rule:nonzero;stroke:none" transform="translate(218 200)"/><path d="M0 0a2 2 0 1 1 .001-4.001A2 2 0 0 1 0 0" style="fill:#fff;fill-opacity:1;fill-rule:nonzero;stroke:none" transform="translate(218 184)"/><path d="M0 0a2 2 0 1 1 .001-4.001A2 2 0 0 1 0 0" style="fill:#fff;fill-opacity:1;fill-rule:nonzero;stroke:none" transform="translate(226 192)"/></g></svg>