<svg xmlns="http://www.w3.org/2000/svg" xml:space="preserve" width="202.667" height="320"><defs><clipPath id="a" clipPathUnits="userSpaceOnUse"><path d="M0 256h256V0H0Z"/></clipPath></defs><path d="M184 148h4v8h-4zm0 12h4v8h-4zm0 12h4v8h-4zm0 12h4v8h-4z" style="fill:#fff;fill-opacity:1;fill-rule:nonzero;stroke:none" transform="matrix(1.33333 0 0 -1.33333 -69.333 330.666)"/><g clip-path="url(#a)" transform="matrix(1.33333 0 0 -1.33333 -69.333 330.666)"><path d="M0 0v-4.349h-124v220H-4c1.104 0 4-.895 4-2v-6.348c2.329-.825 4-3.04 4-5.652A6 6 0 0 0 0 196V11.303c2.329-.824 4-3.04 4-5.652A6 6 0 0 0 0 0m0-14.349c0-1.104-2.896-2-4-2h-132c-1.104 0-4 .896-4 2v6H0Zm-140 228c0 1.105 2.896 2 4 2h8v-220h-12zM4 13.644v180.015a10.01 10.01 0 0 1 4 7.992 10.01 10.01 0 0 1-4 7.993v4.007c0 4.578-5.864 6-8 6h-132c-2.136 0-8-1.422-8-6v-228c0-4.578 5.864-6 8-6H-4c2.136 0 8 1.422 8 6v12.008a10.01 10.01 0 0 1 4 7.992 10.01 10.01 0 0 1-4 7.993" style="fill:#fff;fill-opacity:1;fill-rule:nonzero;stroke:none" transform="translate(196 28.349)"/><path d="M176 148h4v8h-4zm0 12h4v8h-4zm0 12h4v8h-4zm0 12h4v8h-4z" style="fill:#fff;fill-opacity:1;fill-rule:nonzero;stroke:none"/></g></svg>