<svg xmlns="http://www.w3.org/2000/svg" xml:space="preserve" width="316.522" height="252"><defs><clipPath id="a" clipPathUnits="userSpaceOnUse"><path d="M0 256h256V0H0Z"/></clipPath></defs><g clip-path="url(#a)" transform="matrix(1.33333 0 0 -1.33333 -12.474 297.333)"><path d="m0 0-12.934-109.239h-7.145L-7.673-4.451l.417 3.524.417 3.523-3.465.41 8.75-1.035A1.775 1.775 0 0 0 0 0m-14.734-153.239h-2.747a2 2 0 0 0-2-2h-8a2 2 0 0 0-2 2h-184a2 2 0 0 0-2-2h-8a2 2 0 0 0-2 2h-3.253l6 40h212zM-187.373 16.825-11.196-4.034l-12.456-105.205h-178.646zm-16.992 7.371a1.774 1.774 0 0 0 1.97 1.553L-10.362 3.013l-.417-3.523-42.283 5.006.417 3.524-3.523.417-.417-3.524-130.371 15.435.417 3.524-3.523.417-15.809-133.528h-14.292zM2.772 3.783a5.74 5.74 0 0 1-3.855 2.16l-200.841 23.778a5.774 5.774 0 0 1-6.413-5.055l-15.853-133.905h-1.989l-.511-3.406-6-40-.689-4.594h5.429c1.1-1.226 2.696-2 4.469-2h8c1.773 0 3.369.774 4.468 2h179.064a6 6 0 0 1 4.468-2h8c1.773 0 3.369.774 4.468 2h3.899l.36 3.602 4 40 .44 4.398h-2.591L3.972-.47a5.73 5.73 0 0 1-1.2 4.253" style="fill:#fff;fill-opacity:1;fill-rule:nonzero;stroke:none" transform="translate(242.734 193.239)"/></g></svg>