<svg xmlns="http://www.w3.org/2000/svg" xml:space="preserve" viewBox="0 0 256 256"><path d="M160 15.907c0-4.705-5.754-5.902-11.648-6.724C142.886 8.42 135.658 8 128 8s-14.886.42-20.352 1.183C101.754 10.005 96 11.202 96 15.907v160.186c0 .783.172 1.461.465 2.064A3.9 3.9 0 0 0 96 180v60c0 4.73 6.006 5.984 11.635 6.788 5.47.782 12.703 1.212 20.365 1.212s14.895-.43 20.365-1.212C153.994 245.984 160 244.73 160 240v-60c0-.669-.173-1.292-.465-1.843a4.64 4.64 0 0 0 .465-2.064zm-60 0C100 13.749 112.536 12 128 12s28 1.749 28 3.907v160.186c0 2.158-12.536 3.907-28 3.907s-28-1.749-28-3.907zm-2 164.058.043.035H98zM128 244c-15.464 0-28-1.791-28-4v-58.93c2.128.883 4.869 1.359 7.648 1.747 4.288.598 9.667.982 15.482 1.121q.84.021 1.698.035l.56.008q1.291.017 2.612.018c1.321.001 1.752-.007 2.612-.018l.56-.008a184 184 0 0 0 1.698-.035c5.814-.139 11.193-.523 15.482-1.121 2.779-.388 5.52-.864 7.648-1.747V240c0 2.209-12.536 4-28 4m29.957-64 .043-.035V180z" style="fill:#fff"/></svg>