<svg xmlns="http://www.w3.org/2000/svg" xml:space="preserve" width="213.333" height="96"><defs><clipPath id="a" clipPathUnits="userSpaceOnUse"><path d="M0 256h256V0H0Z"/></clipPath></defs><g clip-path="url(#a)" transform="matrix(1.33333 0 0 -1.33333 -64 218.667)"><path d="M0 0h-88c-19.882 0-36-16.118-36-36s16.118-36 36-36H0c19.851 0 36 16.149 36 36S19.851 0 0 0m0-4c17.645 0 32-14.355 32-32S17.645-68 0-68h-88c-17.645 0-32 14.355-32 32s14.355 32 32 32z" style="fill:#fff;fill-opacity:1;fill-rule:nonzero;stroke:none" transform="translate(172 164)"/><path d="M0 0c-13.233 0-24 10.767-24 24s10.767 24 24 24 24-10.767 24-24S13.233 0 0 0m0 52c-15.464 0-28-12.536-28-28S-15.464-4 0-4 28 8.536 28 24 15.464 52 0 52" style="fill:#fff;fill-opacity:1;fill-rule:nonzero;stroke:none" transform="translate(84 104)"/></g></svg>