<svg xmlns="http://www.w3.org/2000/svg" xml:space="preserve" width="213.333" height="320"><defs><clipPath id="a" clipPathUnits="userSpaceOnUse"><path d="M0 256h256V0H0Z"/></clipPath></defs><g clip-path="url(#a)" transform="matrix(1.33333 0 0 -1.33333 -64 330.667)"><path d="m0 0-.034-.261v-2.538c0-.616-.952-1.333-2.179-1.333h-123.558c-1.227 0-2.178.717-2.178 1.333v2.538l-.035.262q-.006.04-.008.076v121.44c0 .522.85 1.28 2.182 1.28H-2.174c1.332 0 2.182-.758 2.182-1.28V.081zm-2.174 126.797H-125.81c-3.419 0-6.182-2.36-6.182-5.28V.077q.001-.306.043-.601v-2.275c0-2.949 2.762-5.333 6.178-5.333H-2.213c3.417 0 6.179 2.384 6.179 5.333v2.275c.025.198.042.397.042.601v121.44c0 2.92-2.763 5.28-6.182 5.28" style="fill:#fff;fill-opacity:1;fill-rule:nonzero;stroke:none" transform="translate(192.42 57.203)"/><path d="M0 0h-92v24h-28V0h-32v182h.028c.538 8.906 8.661 44.524 8.661 44.524 1.253 5.199 10.252 5.476 12.155 5.476.227 0 .353-.004.353-.004h109.606s.126.004.353.004c1.904 0 10.902-.277 12.155-5.476 0 0 8.123-35.618 8.661-44.524H0Zm-116 20h20V0h-20zM3.551 186c-1.743 12.429-8.042 40.104-8.34 41.414-1.922 7.97-12.774 8.586-16.055 8.586q-.284 0-.403-.004h-109.505q-.119.004-.404.004c-3.281 0-14.134-.615-16.043-8.538-.309-1.353-6.608-29.032-8.352-41.462l-.449-4V-4H4v186z" style="fill:#fff;fill-opacity:1;fill-rule:nonzero;stroke:none" transform="translate(204 12)"/><path d="m0 0 2.858 26h88.805l2.858-26Zm95.247 30H-.726L-4.464-4H98.985Z" style="fill:#fff;fill-opacity:1;fill-rule:nonzero;stroke:none" transform="translate(80.74 198)"/><path d="m0 0-12 12h10v76h4V12h10zm6 16v76H-6V16h-15.657l6.828-6.828 12-12L0-5.657l2.828 2.829 12 12L21.657 16H12Z" style="fill:#fff;fill-opacity:1;fill-rule:nonzero;stroke:none" transform="translate(128 60)"/></g></svg>