<?xml version="1.0" encoding="UTF-8" standalone="no"?>
<svg
   xmlns:dc="http://purl.org/dc/elements/1.1/"
   xmlns:cc="http://creativecommons.org/ns#"
   xmlns:rdf="http://www.w3.org/1999/02/22-rdf-syntax-ns#"
   xmlns:svg="http://www.w3.org/2000/svg"
   xmlns="http://www.w3.org/2000/svg"
   viewBox="0 0 320 277.33331"
   height="277.33331"
   width="320"
   xml:space="preserve"
   id="svg2"
   version="1.1"><metadata
     id="metadata8"><rdf:RDF><cc:Work
         rdf:about=""><dc:format>image/svg+xml</dc:format><dc:type
           rdf:resource="http://purl.org/dc/dcmitype/StillImage" /></cc:Work></rdf:RDF></metadata><defs
     id="defs6"><clipPath
       id="clipPath20"
       clipPathUnits="userSpaceOnUse"><path
         id="path18"
         d="M 0,256 H 256 V 0 H 0 Z" /></clipPath></defs><g
     transform="matrix(1.3333333,0,0,-1.3333333,-10.666666,309.33333)"
     id="g10"><path
       id="path12"
       style="fill:#ffffff;fill-opacity:1;fill-rule:nonzero;stroke:none"
       d="M 244,48 H 12 V 228 H 244 Z M 240,28 H 16 l -4,16 h 232 z m 4,204 H 12 8 V 228 44 43.508 l 0.119,-0.478 4,-16 L 12.877,24 H 16 h 224 3.123 l 0.758,3.03 4,16 0.119,0.478 V 44 v 184 4 z" /><g
       id="g14"><g
         clip-path="url(#clipPath20)"
         id="g16"><g
           transform="translate(28.5544,90.336)"
           id="g22"><path
             id="path24"
             style="fill:#ffffff;fill-opacity:1;fill-rule:nonzero;stroke:none"
             d="m 0,0 33,-22 c 0.329,-0.219 0.715,-0.336 1.109,-0.336 h 10e-4 c 1.978,0 2.755,2.566 1.109,3.664 l -33,22 C 0.89,4.214 -0.891,3.261 -0.891,1.664 -0.891,0.995 -0.556,0.371 0,0" /></g><g
           transform="translate(28.5544,114.336)"
           id="g26"><path
             id="path28"
             style="fill:#ffffff;fill-opacity:1;fill-rule:nonzero;stroke:none"
             d="m 0,0 69,-46 c 0.329,-0.219 0.715,-0.336 1.109,-0.336 1.979,0 2.756,2.566 1.11,3.664 l -69,46 C 0.89,4.214 -0.891,3.261 -0.891,1.664 -0.891,0.995 -0.556,0.371 0,0" /></g><g
           transform="translate(28.5544,106.336)"
           id="g30"><path
             id="path32"
             style="fill:#ffffff;fill-opacity:1;fill-rule:nonzero;stroke:none"
             d="m 0,0 57,-38 c 0.329,-0.219 0.715,-0.336 1.109,-0.336 1.979,0 2.756,2.566 1.11,3.664 l -57,38 C 0.89,4.214 -0.891,3.261 -0.891,1.664 -0.891,0.995 -0.556,0.371 0,0" /></g><g
           transform="translate(28.5544,98.336)"
           id="g34"><path
             id="path36"
             style="fill:#ffffff;fill-opacity:1;fill-rule:nonzero;stroke:none"
             d="m 0,0 45,-30 c 0.329,-0.219 0.715,-0.336 1.109,-0.336 h 10e-4 c 1.978,0 2.755,2.566 1.109,3.664 l -45,30 C 0.89,4.214 -0.891,3.261 -0.891,1.664 -0.891,0.995 -0.556,0.371 0,0" /></g><g
           transform="translate(28.5544,183.2268)"
           id="g38"><path
             id="path40"
             style="fill:#ffffff;fill-opacity:1;fill-rule:nonzero;stroke:none"
             d="m 0,0 88.336,-58.891 c 0.919,-0.612 2.161,-0.364 2.773,0.555 0.613,0.919 0.365,2.161 -0.554,2.773 L 2.219,3.328 C 0.89,4.214 -0.891,3.261 -0.891,1.664 v 0 C -0.891,0.995 -0.556,0.371 0,0" /></g><g
           transform="translate(28.5544,151.2268)"
           id="g42"><path
             id="path44"
             style="fill:#ffffff;fill-opacity:1;fill-rule:nonzero;stroke:none"
             d="m 0,0 88.336,-58.891 c 0.919,-0.612 2.161,-0.364 2.773,0.555 0.613,0.919 0.365,2.161 -0.554,2.773 L 2.219,3.328 C 0.89,4.214 -0.891,3.261 -0.891,1.664 v 0 C -0.891,0.995 -0.556,0.371 0,0" /></g><g
           transform="translate(28.5544,159.2268)"
           id="g46"><path
             id="path48"
             style="fill:#ffffff;fill-opacity:1;fill-rule:nonzero;stroke:none"
             d="m 0,0 88.336,-58.891 c 0.919,-0.612 2.161,-0.364 2.773,0.555 0.613,0.919 0.365,2.161 -0.554,2.773 L 2.219,3.328 C 0.89,4.214 -0.891,3.261 -0.891,1.664 v 0 C -0.891,0.995 -0.556,0.371 0,0" /></g><g
           transform="translate(28.5544,175.2268)"
           id="g50"><path
             id="path52"
             style="fill:#ffffff;fill-opacity:1;fill-rule:nonzero;stroke:none"
             d="m 0,0 88.336,-58.891 c 0.919,-0.612 2.161,-0.364 2.773,0.555 0.613,0.919 0.365,2.161 -0.554,2.773 L 2.219,3.328 C 0.89,4.214 -0.891,3.261 -0.891,1.664 v 0 C -0.891,0.995 -0.556,0.371 0,0" /></g><g
           transform="translate(28.5544,167.2268)"
           id="g54"><path
             id="path56"
             style="fill:#ffffff;fill-opacity:1;fill-rule:nonzero;stroke:none"
             d="m 0,0 88.336,-58.891 c 0.919,-0.612 2.161,-0.364 2.773,0.555 0.613,0.919 0.365,2.161 -0.554,2.773 L 2.219,3.328 C 0.89,4.214 -0.891,3.261 -0.891,1.664 v 0 C -0.891,0.995 -0.556,0.371 0,0" /></g><g
           transform="translate(79.5544,208.336)"
           id="g58"><path
             id="path60"
             style="fill:#ffffff;fill-opacity:1;fill-rule:nonzero;stroke:none"
             d="m 0,0 37.336,-24.891 c 0.919,-0.612 2.161,-0.364 2.773,0.555 0.613,0.919 0.365,2.161 -0.554,2.773 L 2.219,3.328 C 1.89,3.547 1.504,3.664 1.109,3.664 -0.869,3.664 -1.646,1.098 0,0" /></g><g
           transform="translate(67.5544,208.336)"
           id="g62"><path
             id="path64"
             style="fill:#ffffff;fill-opacity:1;fill-rule:nonzero;stroke:none"
             d="m 0,0 49.336,-32.891 c 0.919,-0.612 2.161,-0.364 2.773,0.555 0.613,0.919 0.365,2.161 -0.554,2.773 L 2.219,3.328 C 1.89,3.547 1.504,3.664 1.109,3.664 -0.869,3.664 -1.646,1.098 0,0" /></g><g
           transform="translate(43.5544,208.336)"
           id="g66"><path
             id="path68"
             style="fill:#ffffff;fill-opacity:1;fill-rule:nonzero;stroke:none"
             d="m 0,0 73.336,-48.891 c 0.919,-0.612 2.161,-0.364 2.773,0.555 0.613,0.919 0.365,2.161 -0.554,2.773 L 2.219,3.328 C 1.89,3.547 1.504,3.664 1.109,3.664 -0.869,3.664 -1.646,1.098 0,0" /></g><g
           transform="translate(55.5544,208.336)"
           id="g70"><path
             id="path72"
             style="fill:#ffffff;fill-opacity:1;fill-rule:nonzero;stroke:none"
             d="m 0,0 61.336,-40.891 c 0.919,-0.612 2.161,-0.364 2.773,0.555 0.613,0.919 0.365,2.161 -0.554,2.773 L 2.219,3.328 C 1.89,3.547 1.504,3.664 1.109,3.664 -0.869,3.664 -1.646,1.098 0,0" /></g><g
           transform="translate(224.8907,93.6641)"
           id="g74"><path
             id="path76"
             style="fill:#ffffff;fill-opacity:1;fill-rule:nonzero;stroke:none"
             d="m 0,0 -33,-22 c -1.647,-1.098 -0.87,-3.664 1.109,-3.664 0.395,0 0.781,0.117 1.11,0.336 l 33,22 c 0.556,0.371 0.89,0.995 0.89,1.664 C 3.109,-0.067 1.329,0.886 0,0" /></g><g
           transform="translate(224.8907,117.6641)"
           id="g78"><path
             id="path80"
             style="fill:#ffffff;fill-opacity:1;fill-rule:nonzero;stroke:none"
             d="m 0,0 -69,-46 c -1.647,-1.098 -0.87,-3.664 1.109,-3.664 0.395,0 0.781,0.117 1.11,0.336 l 69,46 c 0.556,0.371 0.89,0.995 0.89,1.664 C 3.109,-0.067 1.329,0.886 0,0" /></g><g
           transform="translate(224.8907,109.6641)"
           id="g82"><path
             id="path84"
             style="fill:#ffffff;fill-opacity:1;fill-rule:nonzero;stroke:none"
             d="m 0,0 -57,-38 c -1.647,-1.098 -0.87,-3.664 1.109,-3.664 0.395,0 0.781,0.117 1.11,0.336 l 57,38 c 0.556,0.371 0.89,0.995 0.89,1.664 C 3.109,-0.067 1.329,0.886 0,0" /></g><g
           transform="translate(224.8907,101.6641)"
           id="g86"><path
             id="path88"
             style="fill:#ffffff;fill-opacity:1;fill-rule:nonzero;stroke:none"
             d="m 0,0 -45,-30 c -1.647,-1.098 -0.87,-3.664 1.109,-3.664 0.395,0 0.781,0.117 1.11,0.336 l 45,30 c 0.556,0.371 0.89,0.995 0.89,1.664 C 3.109,-0.067 1.329,0.886 0,0" /></g><g
           transform="translate(138.7734,124.3361)"
           id="g90"><path
             id="path92"
             style="fill:#ffffff;fill-opacity:1;fill-rule:nonzero;stroke:none"
             d="m 0,0 88.336,58.891 c 0.556,0.371 0.891,0.995 0.891,1.664 v 0 c 0,1.597 -1.781,2.55 -3.11,1.664 L -2.219,3.328 C -3.138,2.715 -3.386,1.474 -2.773,0.555 -2.161,-0.364 -0.919,-0.613 0,0" /></g><g
           transform="translate(138.7734,92.3361)"
           id="g94"><path
             id="path96"
             style="fill:#ffffff;fill-opacity:1;fill-rule:nonzero;stroke:none"
             d="m 0,0 88.336,58.891 c 0.556,0.371 0.891,0.995 0.891,1.664 v 0 c 0,1.597 -1.781,2.55 -3.11,1.664 L -2.219,3.328 C -3.138,2.715 -3.386,1.474 -2.773,0.555 -2.161,-0.364 -0.919,-0.613 0,0" /></g><g
           transform="translate(138.7734,100.3361)"
           id="g98"><path
             id="path100"
             style="fill:#ffffff;fill-opacity:1;fill-rule:nonzero;stroke:none"
             d="m 0,0 88.336,58.891 c 0.556,0.371 0.891,0.995 0.891,1.664 v 0 c 0,1.597 -1.781,2.55 -3.11,1.664 L -2.219,3.328 C -3.138,2.715 -3.386,1.474 -2.773,0.555 -2.161,-0.364 -0.919,-0.613 0,0" /></g><g
           transform="translate(138.7734,116.3361)"
           id="g102"><path
             id="path104"
             style="fill:#ffffff;fill-opacity:1;fill-rule:nonzero;stroke:none"
             d="m 0,0 88.336,58.891 c 0.556,0.371 0.891,0.995 0.891,1.664 v 0 c 0,1.597 -1.781,2.55 -3.11,1.664 L -2.219,3.328 C -3.138,2.715 -3.386,1.474 -2.773,0.555 -2.161,-0.364 -0.919,-0.613 0,0" /></g><g
           transform="translate(138.7734,108.3361)"
           id="g106"><path
             id="path108"
             style="fill:#ffffff;fill-opacity:1;fill-rule:nonzero;stroke:none"
             d="m 0,0 88.336,58.891 c 0.556,0.371 0.891,0.995 0.891,1.664 v 0 c 0,1.597 -1.781,2.55 -3.11,1.664 L -2.219,3.328 C -3.138,2.715 -3.386,1.474 -2.773,0.555 -2.161,-0.364 -0.919,-0.613 0,0" /></g><g
           transform="translate(138.7734,183.4453)"
           id="g110"><path
             id="path112"
             style="fill:#ffffff;fill-opacity:1;fill-rule:nonzero;stroke:none"
             d="m 0,0 37.336,24.891 c 1.646,1.097 0.869,3.664 -1.109,3.664 -0.395,0 -0.781,-0.117 -1.11,-0.336 L -2.219,3.328 C -3.138,2.715 -3.386,1.474 -2.773,0.555 -2.161,-0.364 -0.919,-0.613 0,0" /></g><g
           transform="translate(138.7734,175.4453)"
           id="g114"><path
             id="path116"
             style="fill:#ffffff;fill-opacity:1;fill-rule:nonzero;stroke:none"
             d="m 0,0 49.336,32.891 c 1.646,1.097 0.869,3.664 -1.109,3.664 -0.395,0 -0.781,-0.117 -1.11,-0.336 L -2.219,3.328 C -3.138,2.715 -3.386,1.474 -2.773,0.555 -2.161,-0.364 -0.919,-0.613 0,0" /></g><g
           transform="translate(138.7734,159.4453)"
           id="g118"><path
             id="path120"
             style="fill:#ffffff;fill-opacity:1;fill-rule:nonzero;stroke:none"
             d="m 0,0 73.336,48.891 c 1.646,1.097 0.869,3.664 -1.109,3.664 -0.395,0 -0.781,-0.117 -1.11,-0.336 L -2.219,3.328 C -3.138,2.715 -3.386,1.474 -2.773,0.555 -2.161,-0.364 -0.919,-0.613 0,0" /></g><g
           transform="translate(138.7734,167.4453)"
           id="g122"><path
             id="path124"
             style="fill:#ffffff;fill-opacity:1;fill-rule:nonzero;stroke:none"
             d="m 0,0 61.336,40.891 c 1.646,1.097 0.869,3.664 -1.109,3.664 -0.395,0 -0.781,-0.117 -1.11,-0.336 L -2.219,3.328 C -3.138,2.715 -3.386,1.474 -2.773,0.555 -2.161,-0.364 -0.919,-0.613 0,0" /></g></g></g></g></svg>