<?xml version="1.0" encoding="iso-8859-1"?>
<!-- Generator: Adobe Illustrator 28.1.0, SVG Export Plug-In . SVG Version: 6.00 Build 0)  -->
<svg version="1.1" id="Layer_1" xmlns="http://www.w3.org/2000/svg" xmlns:xlink="http://www.w3.org/1999/xlink" x="0px" y="0px"
	 viewBox="0 0 256 256" style="enable-background:new 0 0 256 256;" xml:space="preserve">
<sodipodi:namedview  bordercolor="#666666" borderopacity="1.0" id="namedview7" pagecolor="#ffffff" showgrid="false">
	</sodipodi:namedview>
<g id="c4Xtof_00000163757510034936967510000002604143267696497281_">
</g>
<path style="fill:#FFFFFF;" d="M152,160v16h-8v8h-8v8h-16v-8h-8v-8h-8v-16h16v8h16v-8H152 M156,156h-4h-16h-4v4v4h-8v-4v-4h-4h-16
	h-4v4v16v4h4h4v4v4h4h4v4v4h4h16h4v-4v-4h4h4v-4v-4h4h4v-4v-16V156L156,156z"/>
<path style="fill:#FFFFFF;" d="M136,64v8h8v8h8v16h-16v-8h-16v8h-16V80h8v-8h8v-8H136 M140,60h-4h-16h-4v4v4h-4h-4v4v4h-4h-4v4v16v4
	h4h16h4v-4v-4h8v4v4h4h16h4v-4V80v-4h-4h-4v-4v-4h-4h-4v-4V60L140,60z"/>
<path style="fill:#FFFFFF;" d="M176,104v8h8v8h8v16h-8v8h-8v8h-16v-16h8v-16h-8v-16H176 M180,100h-4h-16h-4v4v16v4h4h4v8h-4h-4v4v16
	v4h4h16h4v-4v-4h4h4v-4v-4h4h4v-4v-16v-4h-4h-4v-4v-4h-4h-4v-4V100L180,100z"/>
<path style="fill:#FFFFFF;" d="M96,104v16h-8v16h8v16H80v-8h-8v-8h-8v-16h8v-8h8v-8H96 M100,100h-4H80h-4v4v4h-4h-4v4v4h-4h-4v4v16
	v4h4h4v4v4h4h4v4v4h4h16h4v-4v-16v-4h-4h-4v-8h4h4v-4v-16V100L100,100z"/>
<path style="fill:#FFFFFF;" d="M208,44H48h-4v4v160v4h4h160h4v-4V48v-4H208z M208,208H48V48h160V208z"/>
</svg>
