<svg xmlns="http://www.w3.org/2000/svg" xml:space="preserve" width="224" height="224"><defs><clipPath id="a" clipPathUnits="userSpaceOnUse"><path d="M0 256h256V0H0Z"/></clipPath></defs><g clip-path="url(#a)" transform="matrix(1.33333 0 0 -1.33333 -58.667 282.667)"><path d="M0 0c5.959-6.72 25.259-14.023 39.401-15.14l4.358-45.36c.119-2.5 2.125-4.417 4.655-4.417 2.51 0 4.575 2.005 4.654 4.497l2.995 48.768v9.774c0 2.797-2.105 4.991-4.793 4.991-13.964.079-25.803 1.354-34.193 3.696-4.22 1.176-6.71 2.372-8.104 3.221 1.591.87 4.813 2.254 11.247 4.012a4.67 4.67 0 0 1 3.972 4.616c0 2.569-2.451 4.654-5.02 4.654-.208-.039-5.327-1.047-10.169-2.628-5.564-1.819-11.948-4.576-11.948-9.745 0-.691.208-7.006 2.945-10.939m134.4.04c2.728 3.962 2.935 10.277 2.935 10.959 0 5.168-6.394 7.926-11.947 9.744-4.853 1.591-9.972 2.589-10.169 2.629-2.619 0-5.021-2.046-5.021-4.655a4.67 4.67 0 0 1 3.973-4.615c6.463-1.769 9.684-3.152 11.266-4.022-3.626-2.204-14.517-6.809-42.336-6.908-3.004 0-4.813-2.54-4.813-4.99v-9.774l2.994-48.76c.079-2.539 2.096-4.506 4.656-4.506a4.663 4.663 0 0 1 4.654 4.407L94.95-15.1c14.171 1.067 33.482 8.37 39.45 15.14M67.2 58.039a4.66 4.66 0 0 1-4.655-4.467L57.842-10.16l4.703-57.04c.109-2.51 2.105-4.457 4.655-4.457 2.5 0 4.546 1.977 4.654 4.447l4.705 57.041-4.705 63.731c-.108 2.491-2.154 4.477-4.654 4.477M19.538 19.547a.89.89 0 0 0 .909-.909.903.903 0 0 0-.909-.919C2.659 13.133 4.032 10.268 4.121 9.487 4.319 7.886 13.816-.465 51.28-.662c1.047 0 1.047-1.235 1.047-1.235v-9.665l-2.994-48.721a.907.907 0 0 0-.909-.909.897.897 0 0 0-.919.909L42.82-11.562c-13.272.068-34.242 7.52-39.855 13.864C.82 5.396.82 10.92.82 10.92c-.009 4.991 18.718 8.627 18.718 8.627m95.324.069s18.738-3.637 18.738-8.617c0 0 0-5.524-2.145-8.647-5.623-6.374-26.603-13.825-39.904-13.825l-4.685-48.721a.91.91 0 0 0-.919-.909.883.883 0 0 0-.909.909l-2.994 48.721v9.664s0 1.236 1.077 1.236c37.474.128 46.931 8.518 47.158 10.119.129.81 1.463 3.677-15.417 8.262a.89.89 0 0 0-.909.919c-.01.504.376.889.909.889M67.2 54.293a.906.906 0 0 0 .909-.909l4.685-63.513-4.685-56.854a.906.906 0 0 0-.909-.909.89.89 0 0 0-.909.909l-4.684 56.854 4.684 63.513c0 .485.385.909.909.909" style="fill:#fff;fill-opacity:1;fill-rule:nonzero;stroke:none" transform="translate(60.8 134.81)"/><path d="M208.008 47.992H48.012v159.996h159.996ZM212 212H44V44h168z" style="fill:#fff;fill-opacity:1;fill-rule:nonzero;stroke:none"/></g></svg>