<svg xmlns="http://www.w3.org/2000/svg" xml:space="preserve" width="224" height="224"><defs><clipPath id="a" clipPathUnits="userSpaceOnUse"><path d="M0 256h256V0H0Z"/></clipPath></defs><g clip-path="url(#a)" transform="matrix(1.33333 0 0 -1.33333 -58.667 282.667)"><path d="M0 0c-.563.237-1.285.416-1.888.416-1.729 0-3.34-1.098-4.121-2.659-.899-2.154-.069-4.724 1.977-5.84q.029-.016.059-.03C6.76-13.727 13.173-24.637 13.173-37.276c0-12.828-7.185-24.222-18.322-29.795v7.382h1.997a3.743 3.743 0 0 1 3.745 3.745c0 2.728-1.996 5.653-4.961 5.653h-31.397c-2.984 0-4.99-2.925-4.99-5.653a3.75 3.75 0 0 1 3.745-3.745h1.858v-7.293c-11.058 5.613-18.193 16.978-18.193 29.716 0 12.64 6.413 23.55 17.146 29.162.019.021.049.021.069.04a4.543 4.543 0 0 1 2.016 5.742A4.45 4.45 0 0 1-38.235.425a4.5 4.5 0 0 1-1.957-.454c-16.246-7.63-26.327-23.708-26.327-41.981 0-19.932 12.769-37.641 31.387-44.036l.049-10.722 3.687-22.492a4.496 4.496 0 0 1 4.476-4.061 4.49 4.49 0 0 1 4.477 4.071l2.332 14.507 2.372-14.507a4.5 4.5 0 0 1 4.476-4.062 4.493 4.493 0 0 1 4.478 4.072l3.606 22.502.04 10.663C13.559-79.721 26.376-61.992 26.376-42c0 18.332-10.1 34.43-26.376 42m-20.081-74.374c.79 0 1.561.029 2.342.079v15.752a2.41 2.41 0 0 1-2.411 2.412 2.41 2.41 0 0 1-2.412-2.412v-15.752c.831-.04 1.651-.079 2.481-.079m18.5 70.975C12.966-10.169 22.62-24.735 22.62-42.01c0-19.764-13.36-36.386-31.515-41.308v-12.847l-3.636-22.67a.74.74 0 0 0-.751-.751.756.756 0 0 0-.751.751l-3.706 22.67v11.414a46 46 0 0 0-2.342-.069c-.83 0-1.65.03-2.471.079v-11.434l-3.646-22.67a.74.74 0 0 0-.751-.751.74.74 0 0 0-.752.751l-3.715 22.67v12.887c-18.095 4.971-31.387 21.553-31.387 41.259 0 17.235 9.656 31.781 24.193 38.571a.735.735 0 0 0 1.007-.356.79.79 0 0 0-.355-1.008c-11.81-6.177-19.152-18.214-19.152-32.493 0-16.504 10.801-30.507 25.694-35.3v13.449a3.194 3.194 0 0 1-3.182 3.192h-2.422c0 .811.554 1.908 1.236 1.908h31.406c.652 0 1.205-1.097 1.205-1.908h-2.559a3.196 3.196 0 0 1-3.192-3.192v-13.499c14.982 4.744 25.822 18.777 25.822 35.359 0 14.31-7.352 26.307-19.151 32.494-.356.197-.515.612-.356 1.007.464.771 1.028.406 1.028.406" style="fill:#fff;fill-opacity:1;fill-rule:nonzero;stroke:none" transform="translate(148.071 189.448)"/><path d="M208.008 47.992H48.012v159.996h159.996ZM212 212H44V44h168z" style="fill:#fff;fill-opacity:1;fill-rule:nonzero;stroke:none"/></g></svg>