<svg xmlns="http://www.w3.org/2000/svg" xml:space="preserve" width="224" height="224"><path d="M0 0h24v8H8v8H0v8h-8V8h8z" style="fill:#fff;fill-opacity:1;fill-rule:nonzero;stroke:none" transform="matrix(1.33333 0 0 -1.33333 101.333 112)"/><path d="M0 0h-36v20h-8v8h-8v8h-8v8h8v16h8v8h8v16h-8v16h16v16h16v16h-32v24h-24v-8h-8v8h-40v-8h-8v-16h-24v-16h16V92h8v-8h-8V68h8V52h-16V36h8v-8h16V0h-44v160H0Zm-55.75 0v8H-60v4h-4v20h8v-8h8v-8h8V0ZM-92 60v-8h-8v8h4zm12-24v4h-8v16h32v-8h-8v-8h-8v-8h-4v4zm-48 68v8h16v-8h8v8h32v-8h4v-4h4v-4h16V80h8v-8h-8v-8h-48v24h-4v4h-4v4h-24zm64 4v4h32v-8h-28v4zm-56 28v8h8v8h32v-8h16v8h16v-16h-16v-8h48v-8h-128v8h72v8zm-8-64v8h8v8h12v-4h4V56h-16v16zm-8-32v8h40v-8h-8v-8h-24v8zm64-40h-40v24h16v8h12v-4h4v-4h8V8h4V4h4V0ZM0 164h-164V-4H4v168z" style="fill:#fff;fill-opacity:1;fill-rule:nonzero;stroke:none" transform="matrix(1.33333 0 0 -1.33333 218.667 218.667)"/></svg>