<svg xmlns="http://www.w3.org/2000/svg" xml:space="preserve" width="245.333" height="245.333"><defs><clipPath id="a" clipPathUnits="userSpaceOnUse"><path d="M0 256h256V0H0Z"/></clipPath></defs><g clip-path="url(#a)" transform="matrix(1.33333 0 0 -1.33333 -48 293.333)"><path d="M0 0c-7.988 0-14.623-6.297-15.155-14.357a10 10 0 0 1-.054-1.014v-73.242C-15.209-97.098-8.386-104 0-104c2.436 0 4.777.572 6.958 1.701.364.191 57.73 33.575 62.258 36.637 4.744 3.213 7.575 8.319 7.575 13.662 0 5.346-2.838 10.458-7.591 13.672C64.834-35.368 7.359-1.914 6.997-1.724A15.2 15.2 0 0 1 0 0m0-4c1.771 0 3.543-.436 5.138-1.266.361-.19 57.485-33.436 61.822-36.375 3.651-2.47 5.831-6.342 5.831-10.359 0-4.014-2.173-7.882-5.816-10.349-4.495-3.04-61.49-36.207-61.856-36.398A11.04 11.04 0 0 0 0-100c-6.181 0-11.209 5.108-11.209 11.387v73.242q0 .335.04.663C-10.821-8.758-5.912-4 0-4" style="fill:#fff;fill-opacity:1;fill-rule:nonzero;stroke:none" transform="translate(99.209 180)"/><path d="M220 220H36V36h184Zm-4-180H40v176h176z" style="fill:#fff;fill-opacity:1;fill-rule:nonzero;stroke:none"/></g></svg>