<?xml version="1.0" encoding="UTF-8" standalone="no"?>
<svg
   xmlns:dc="http://purl.org/dc/elements/1.1/"
   xmlns:cc="http://creativecommons.org/ns#"
   xmlns:rdf="http://www.w3.org/1999/02/22-rdf-syntax-ns#"
   xmlns:svg="http://www.w3.org/2000/svg"
   xmlns="http://www.w3.org/2000/svg"
   viewBox="0 0 320 320"
   height="320"
   width="320"
   xml:space="preserve"
   id="svg2"
   version="1.1"><metadata
     id="metadata8"><rdf:RDF><cc:Work
         rdf:about=""><dc:format>image/svg+xml</dc:format><dc:type
           rdf:resource="http://purl.org/dc/dcmitype/StillImage" /></cc:Work></rdf:RDF></metadata><defs
     id="defs6"><clipPath
       id="clipPath18"
       clipPathUnits="userSpaceOnUse"><path
         id="path16"
         d="M 0,256 H 256 V 0 H 0 Z" /></clipPath></defs><g
     transform="matrix(1.3333333,0,0,-1.3333333,-10.666666,330.66666)"
     id="g10"><g
       id="g12"><g
         clip-path="url(#clipPath18)"
         id="g14"><g
           transform="translate(126.2622,196)"
           id="g20"><path
             id="path22"
             style="fill:#ffffff;fill-opacity:1;fill-rule:nonzero;stroke:none"
             d="m 0,0 c -7.23,0 -14.17,-0.812 -20.628,-2.413 -6.569,-1.632 -12.455,-4.09 -17.498,-7.305 -5.186,-3.307 -9.376,-7.463 -12.456,-12.352 -3.396,-5.392 -3.68,-11.814 -3.68,-17.93 0,-5.802 0.336,-11.954 4.349,-17.782 3.394,-4.929 7.663,-9.349 12.687,-13.137 4.893,-3.693 10.258,-6.952 15.945,-9.685 l 9.484,-4.562 5.783,-2.783 c 4.53,-2.184 8.346,-4.289 11.339,-6.257 1.839,-1.214 2.94,-2.438 2.94,-3.27 0,-1.114 -0.2,-1.79 -0.596,-2.008 -0.657,-0.365 -2.281,-0.971 -5.816,-0.971 -3.061,0 -6.432,0.454 -10.02,1.351 -3.755,0.934 -7.466,2.141 -11.032,3.589 -3.551,1.437 -6.884,3.122 -9.913,5.013 -2.87,1.79 -4.579,3.285 -4.596,3.3 -1.489,1.322 -3.428,2.053 -5.456,2.053 -2.198,0 -4.246,-0.84 -5.764,-2.365 l -0.06,-0.06 -0.057,-0.062 -16.168,-17.663 -2.468,-2.697 2.464,-2.7 c 7.316,-8.015 15.682,-13.792 27.127,-18.734 10.104,-4.36 22.663,-6.57 37.331,-6.57 7.34,0 14.749,0.803 22.021,2.387 7.385,1.612 14.102,4.102 19.966,7.4 6.04,3.397 11.028,7.801 14.824,13.092 3.614,5.036 5.686,12.734 5.686,21.121 0,7.373 -1.43,12.491 -5.099,18.252 -3.412,5.346 -7.754,9.997 -12.906,13.828 -4.986,3.699 -10.403,6.9 -16.105,9.515 -5.48,2.511 -10.693,4.813 -15.495,6.844 -4.606,1.946 -8.445,3.836 -11.411,5.62 -2.215,1.329 -2.805,2.337 -2.805,2.724 0,0.536 0.131,0.818 0.539,1.159 0.203,0.171 1.046,0.717 3.559,0.717 2.006,0 4.444,-0.309 7.248,-0.919 2.874,-0.628 6.031,-1.591 9.381,-2.862 3.39,-1.288 6.913,-2.865 10.469,-4.685 3.409,-1.751 6.568,-3.915 6.599,-3.937 1.423,-0.979 3.099,-1.497 4.845,-1.497 2.499,0 4.8,1.063 6.313,2.917 l 0.024,0.03 0.023,0.029 13.967,17.795 2.437,3.104 -3.071,2.478 C 55.22,-13.598 45.472,-9.681 34.583,-5.665 24.383,-1.906 12.749,0 0,0 M 0,-4 C 12.337,-4 23.404,-5.808 33.2,-9.417 42.994,-13.03 52.945,-16.902 61.738,-24 L 47.77,-41.795 c -0.773,-0.949 -1.978,-1.446 -3.213,-1.446 -0.892,0 -1.801,0.259 -2.578,0.793 0,0 -3.343,2.301 -7.043,4.202 -3.702,1.895 -7.327,3.517 -10.874,4.865 -3.549,1.346 -6.866,2.356 -9.949,3.03 -3.087,0.671 -5.783,1.01 -8.098,1.01 -2.776,0 -4.823,-0.551 -6.131,-1.653 -1.312,-1.101 -1.967,-2.509 -1.967,-4.223 0,-2.202 1.58,-4.254 4.744,-6.152 3.158,-1.899 7.132,-3.856 11.914,-5.876 4.78,-2.021 9.909,-4.286 15.385,-6.796 5.474,-2.51 10.604,-5.541 15.386,-9.09 4.782,-3.555 8.754,-7.807 11.919,-12.765 3.158,-4.959 4.473,-9.249 4.473,-16.104 0,-6.611 -1.467,-13.954 -4.936,-18.789 -3.47,-4.837 -7.981,-8.815 -13.535,-11.938 -5.552,-3.122 -11.841,-5.446 -18.856,-6.978 C 17.39,-131.234 10.333,-132 3.241,-132 c -14.192,0 -26.107,2.083 -35.745,6.242 -9.64,4.162 -18.048,9.31 -25.758,17.758 l 16.168,17.663 c 0.786,0.789 1.855,1.188 2.93,1.188 1.006,0 2.017,-0.348 2.807,-1.049 0,0 1.888,-1.678 5.127,-3.698 3.238,-2.021 6.745,-3.795 10.526,-5.325 3.777,-1.533 7.635,-2.786 11.567,-3.764 3.935,-0.983 7.596,-1.47 10.99,-1.47 3.391,0 5.978,0.488 7.75,1.47 1.772,0.978 2.662,2.815 2.662,5.509 0,2.325 -1.585,4.528 -4.743,6.612 -3.163,2.079 -7.097,4.252 -11.801,6.519 -4.706,2.265 -9.796,4.712 -15.27,7.347 -5.476,2.632 -10.565,5.723 -15.269,9.273 -4.707,3.549 -8.64,7.622 -11.8,12.212 -3.163,4.592 -3.644,9.513 -3.644,15.513 0,5.877 0.288,11.39 3.065,15.798 2.776,4.409 6.514,8.11 11.221,11.111 4.703,2.998 10.14,5.262 16.31,6.796 C -13.498,-4.766 -6.94,-4 0,-4" /></g><path
           id="path24"
           style="fill:#ffffff;fill-opacity:1;fill-rule:nonzero;stroke:none"
           d="M 244,12 H 12 v 232 h 232 z m 0,236 H 12 8 V 244 12 8 h 4 232 4 v 4 232 4 z" /></g></g></g></svg>