<svg xmlns="http://www.w3.org/2000/svg" xml:space="preserve" width="256" height="320"><defs><clipPath id="a" clipPathUnits="userSpaceOnUse"><path d="M0 256h256V0H0Z"/></clipPath></defs><g clip-path="url(#a)" transform="matrix(1.33333 0 0 -1.33333 -42.667 330.667)"><path d="M0 0h-4v-4h4v-4h-4v-4h4v-4h-4v-4h4v-4h-4v-4h4v-4h-4v-4h4v-4h-4v-4h4v-4h-4v-4h4v-4h-4v-156a4 4 0 0 0-4-4h-168a4 4 0 0 0-4 4v156h-4v4h4v4h-4v4h4v4h-4v4h4v4h-4v4h4v4h-4v4h4v4h-4v4h4v4h-4v4h4v4h-4v4h4v8a4 4 0 0 0 4 4h4v-123.26c0-4.819 3.8-8.74 8.471-8.74h143.058c4.671 0 8.471 3.921 8.471 8.74V16h4a4 4 0 0 0 4-4V4h4zm-16 16v-123.26c0-2.621-1.998-4.74-4.471-4.74h-143.058c-2.472 0-4.471 2.119-4.471 4.74V16ZM0 8v4c0 4.411-3.589 8-8 8h-168c-4.411 0-8-3.589-8-8V8h-4v-68h4v-152c0-4.411 3.589-8 8-8H-8c4.411 0 8 3.589 8 8v152h4V8z" style="fill:#fff;fill-opacity:1;fill-rule:nonzero;stroke:none" transform="translate(220 228)"/></g></svg>