<?xml version="1.0" encoding="iso-8859-1"?>
<!-- Generator: Adobe Illustrator 28.1.0, SVG Export Plug-In . SVG Version: 6.00 Build 0)  -->
<svg version="1.1" id="Layer_1" xmlns="http://www.w3.org/2000/svg" xmlns:xlink="http://www.w3.org/1999/xlink" x="0px" y="0px"
	 viewBox="0 0 256 256" style="enable-background:new 0 0 256 256;" xml:space="preserve">
<g>
	<circle style="fill:#FFFFFF;" cx="150" cy="184" r="2"/>
	<path style="fill:#FFFFFF;" d="M61.467,176H46.533C40.725,176,36,180.486,36,186c0,5.514,4.725,10,10.533,10h14.933
		C67.275,196,72,191.514,72,186C72,180.486,67.275,176,61.467,176z M61.467,192H46.533c-3.602,0-6.533-2.692-6.533-6
		s2.931-6,6.533-6h14.933c3.602,0,6.533,2.692,6.533,6S65.069,192,61.467,192z"/>
	<path style="fill:#FFFFFF;" d="M64,152h-4H48h-4h-4h-4v4v12v4h4h4h4h12h4h4h4v-4v-12v-4h-4H64z M40,168v-12h4v12H40z M48,168v-12h4
		v12H48z M56,168v-12h4v12H56z M68,168h-4v-12h4V168z"/>
	<path style="fill:#FFFFFF;" d="M245.657,60L236,50.343c-1.511-1.511-3.52-2.343-5.657-2.343H228h-54.05
		c-7.518-2.579-15.569-4-23.95-4s-16.432,1.421-23.95,4H28h-2.343c-2.137,0-4.146,0.832-5.657,2.343L10.343,60
		C8.832,61.511,8,63.52,8,65.657v136.686c0,2.137,0.832,4.146,2.343,5.657l2.243,2.243c1.134,1.133,2.64,1.757,4.243,1.757H24h4h200
		h4h7.172c1.602,0,3.109-0.624,4.242-1.757l2.243-2.243c1.511-1.511,2.343-3.52,2.343-5.657V65.657
		C248,63.52,247.168,61.511,245.657,60z M220,118c0,9.441-1.88,18.44-5.269,26.658l-0.764,1.714
		c-6.945,15.592-19.158,27.775-33.968,34.831v-4.439c21.35-10.943,36-33.17,36-58.764c0-8.057-1.457-15.779-4.112-22.923
		c-0.082-0.346-0.219-0.67-0.386-0.978C201.905,69.49,177.964,52,150,52c-27.95,0-51.88,17.472-61.487,42.061
		c-0.166,0.299-0.291,0.619-0.377,0.954C85.466,102.177,84,109.919,84,118c0,25.594,14.65,47.821,36,58.764v4.439
		c-14.81-7.056-27.023-19.238-33.968-34.831l-0.764-1.715C81.88,136.439,80,127.441,80,118c0-38.66,31.34-70,70-70
		S220,79.34,220,118z M217.622,148H220h1.992H232l4,8h-17.913c-13.359,23.844-38.867,40-68.087,40s-54.728-16.156-68.087-40H80v52
		l-4-60h2.008H80h2.378c0,0,0,0.001,0.001,0.002c1.073,2.409,2.271,4.749,3.586,7.015c0.016,0.028,0.032,0.056,0.048,0.084
		c1.73,2.972,3.659,5.81,5.772,8.502c0.077,0.099,0.154,0.197,0.232,0.296c0.509,0.641,1.025,1.276,1.554,1.9
		c0.002,0.003,0.005,0.005,0.007,0.008c1.119,1.319,2.283,2.598,3.49,3.836c0.015,0.015,0.029,0.03,0.043,0.045
		c0.521,0.532,1.052,1.053,1.588,1.57c0.188,0.181,0.377,0.361,0.567,0.54c0.523,0.494,1.049,0.984,1.587,1.462
		c0.12,0.107,0.243,0.209,0.363,0.315c1.011,0.888,2.047,1.748,3.105,2.581c0.268,0.211,0.534,0.425,0.805,0.633
		c0.492,0.377,0.991,0.745,1.493,1.109c0.344,0.25,0.691,0.496,1.04,0.74c0.483,0.339,0.966,0.678,1.457,1.005
		c0.502,0.334,1.012,0.655,1.523,0.977c0.677,0.427,1.36,0.843,2.051,1.248c0.477,0.28,0.955,0.559,1.439,0.829
		c0.443,0.247,0.889,0.488,1.338,0.725c0.528,0.28,1.061,0.551,1.596,0.818c0.402,0.201,0.801,0.406,1.208,0.6
		c0.571,0.272,1.15,0.531,1.729,0.789v0.071l2.513,1.006c0.109,0.044,0.22,0.08,0.329,0.123c0.376,0.149,0.755,0.293,1.134,0.436
		c0.391,0.147,0.783,0.292,1.177,0.433c0.723,0.259,1.453,0.504,2.186,0.741c0.292,0.094,0.581,0.195,0.874,0.286
		c0.232,0.072,0.467,0.137,0.699,0.206c0.247,0.074,0.496,0.142,0.744,0.213c0.527,0.151,1.053,0.303,1.585,0.442
		c0.294,0.077,0.591,0.147,0.886,0.22c0.264,0.066,0.528,0.132,0.793,0.195c0.529,0.126,1.06,0.243,1.593,0.357
		c0.351,0.075,0.701,0.15,1.054,0.22c0.024,0.005,0.047,0.01,0.071,0.015c0.148,0.029,0.294,0.064,0.442,0.092
		c0.751,0.144,1.507,0.27,2.265,0.391c0.162,0.026,0.323,0.058,0.485,0.083c0.133,0.02,0.266,0.036,0.399,0.056
		c0.292,0.043,0.585,0.076,0.877,0.116c0.667,0.09,1.336,0.175,2.008,0.247c0.19,0.02,0.38,0.042,0.571,0.06
		c0.278,0.027,0.557,0.048,0.836,0.072c0.688,0.06,1.378,0.109,2.071,0.15c0.243,0.014,0.484,0.037,0.728,0.049
		c0.15,0.007,0.301,0.011,0.451,0.017c1.07,0.046,2.145,0.076,3.226,0.076s2.156-0.03,3.226-0.076
		c0.15-0.006,0.301-0.01,0.451-0.017c0.244-0.012,0.485-0.035,0.728-0.049c0.693-0.041,1.383-0.09,2.071-0.15
		c0.279-0.024,0.558-0.044,0.836-0.072c0.191-0.019,0.381-0.04,0.571-0.06c0.673-0.072,1.341-0.157,2.008-0.247
		c0.292-0.039,0.585-0.073,0.877-0.116c0.133-0.019,0.267-0.036,0.399-0.056c0.163-0.025,0.323-0.057,0.485-0.083
		c0.758-0.121,1.515-0.247,2.265-0.391c0.148-0.028,0.295-0.063,0.444-0.093c0.023-0.005,0.047-0.01,0.07-0.015
		c0.352-0.07,0.703-0.145,1.054-0.22c0.533-0.114,1.064-0.232,1.593-0.357c0.265-0.063,0.529-0.129,0.793-0.195
		c0.295-0.074,0.592-0.143,0.886-0.22c0.532-0.14,1.058-0.291,1.585-0.442c0.248-0.071,0.497-0.14,0.744-0.213
		c0.233-0.069,0.468-0.134,0.699-0.206c0.294-0.091,0.582-0.192,0.874-0.286c0.733-0.237,1.463-0.482,2.186-0.741
		c0.394-0.141,0.786-0.286,1.177-0.433c0.379-0.143,0.758-0.287,1.134-0.436c0.109-0.043,0.22-0.079,0.329-0.123l2.513-1.006v-0.071
		c0.579-0.258,1.158-0.516,1.729-0.789c0.406-0.194,0.805-0.399,1.208-0.6c0.535-0.267,1.068-0.539,1.596-0.818
		c0.449-0.238,0.895-0.479,1.338-0.725c0.484-0.27,0.962-0.548,1.439-0.829c0.691-0.405,1.374-0.821,2.051-1.248
		c0.51-0.322,1.021-0.643,1.523-0.977c0.492-0.327,0.974-0.666,1.457-1.005c0.349-0.244,0.696-0.49,1.04-0.74
		c0.502-0.365,1.001-0.732,1.493-1.109c0.271-0.208,0.537-0.422,0.805-0.633c1.058-0.833,2.094-1.692,3.105-2.581
		c0.12-0.106,0.243-0.208,0.363-0.315c0.538-0.479,1.064-0.969,1.587-1.462c0.19-0.179,0.379-0.359,0.567-0.54
		c0.536-0.517,1.068-1.038,1.588-1.57c0.015-0.015,0.029-0.03,0.043-0.045c1.207-1.237,2.371-2.517,3.49-3.836
		c0.002-0.003,0.005-0.005,0.007-0.008c0.529-0.624,1.045-1.258,1.554-1.9c0.078-0.098,0.155-0.197,0.232-0.296
		c2.113-2.691,4.043-5.53,5.772-8.502c0.016-0.028,0.032-0.056,0.048-0.084c1.315-2.266,2.513-4.606,3.586-7.015
		C217.621,148.001,217.621,148,217.622,148z M152,120c-44,0-60-4-60-4h2h112h2C208,116,196,120,152,120z M92.053,95.983
		C92.915,95.714,105.591,92,148,92c42.586,0,58.941,3.747,59.949,3.988c0.002,0.004,0.003,0.008,0.005,0.012H206H94h-1.954
		C92.049,95.994,92.051,95.989,92.053,95.983z M204,100.667V104H96v-3.333c0-0.368,0.425-0.667,0.947-0.667h106.105
		C203.575,100,204,100.299,204,100.667z M203.053,112H96.947c-0.522,0-0.947-0.299-0.947-0.667V108h108v3.333
		C204,111.701,203.575,112,203.053,112z M92,100v4v4v4c-1.96,0-3.61,1.423-3.932,3.339c0.229-5.389,1.142-10.604,2.667-15.555
		C91.135,99.919,91.558,100,92,100z M208,112v-4v-4v-4c0.442,0,0.865-0.084,1.265-0.217c1.521,4.938,2.435,10.137,2.667,15.511
		c-0.334-1.871-1.959-3.293-3.926-3.293H208z M148,88c-32.56,0-47.951,2.193-53.999,3.414C103.973,70.494,125.323,56,150,56
		c24.721,0,46.102,14.548,56.051,35.528C199.646,90.386,182.183,88,148,88z M88.039,116.457c0.187,1.621,1.345,3.012,2.991,3.423
		C91.703,120.049,108.013,124,152,124c41.935,0,55.411-3.64,57.095-4.152c1.525-0.433,2.67-1.75,2.867-3.36
		c0.012,0.504,0.038,1.005,0.038,1.512c0,23.308-12.936,43.64-32,54.227v-4.228V144c0-4.411-3.589-8-8-8h-44c-4.411,0-8,3.589-8,8
		v23.999v4.228C100.936,161.64,88,141.308,88,118C88,117.483,88.026,116.972,88.039,116.457z M176,169.855l-1.683,0.781
		C166.645,174.195,158.464,176,150,176s-16.645-1.805-24.316-5.364L124,169.855V144c0-2.209,1.791-4,4-4h44c2.209,0,4,1.791,4,4
		V169.855z M124,176v-1.736c7.913,3.672,16.718,5.736,26,5.736s18.087-2.064,26-5.736V176v2.654v4.302
		c-2.612,1.05-5.291,1.95-8.029,2.682c-0.155,0.041-0.309,0.085-0.464,0.126c-0.635,0.165-1.274,0.317-1.915,0.464
		c-0.323,0.074-0.647,0.145-0.972,0.214c-0.582,0.125-1.165,0.248-1.751,0.358c-0.501,0.094-1.005,0.175-1.51,0.258
		c-0.68,0.112-1.363,0.216-2.048,0.308c-0.044,0.006-0.088,0.011-0.132,0.017c-0.631,0.083-1.262,0.165-1.898,0.231
		c-0.335,0.035-0.671,0.063-1.007,0.093c-0.359,0.032-0.72,0.056-1.08,0.082c-0.372,0.028-0.742,0.06-1.115,0.081
		c-0.305,0.018-0.61,0.037-0.916,0.051c-1.049,0.047-2.101,0.08-3.161,0.08s-2.113-0.033-3.161-0.08
		c-0.306-0.014-0.611-0.033-0.916-0.051c-0.373-0.022-0.744-0.054-1.115-0.081c-0.36-0.026-0.721-0.05-1.08-0.082
		c-0.336-0.03-0.672-0.058-1.007-0.093c-0.636-0.066-1.267-0.148-1.898-0.231c-0.044-0.006-0.088-0.011-0.132-0.017
		c-0.685-0.092-1.367-0.196-2.047-0.308c-0.505-0.083-1.01-0.164-1.511-0.258c-0.586-0.11-1.169-0.233-1.751-0.358
		c-0.325-0.07-0.649-0.14-0.973-0.214c-0.641-0.147-1.28-0.299-1.914-0.464c-0.155-0.04-0.309-0.084-0.464-0.126
		c-2.738-0.731-5.416-1.631-8.029-2.682v-4.302V176z M12,72l12-4h20v4H24l-12,4V72z M12,80l12-4h20v4H24l-12,4V80z M12,88l12-4h20v4
		H24l-12,4V88z M12,96l12-4h20v4H24l-12,4V96z M12,104l12-4h20v4H24l-12,4V104z M12,112l12-4h20v4H24l-12,4V112z M12,120l12-4h20v4
		H24l-12,4V120z M12,128l12-4h20v4H24l-12,4V128z M15.414,207.414l-2.243-2.243c-0.75-0.75-1.172-1.768-1.172-2.828V136l12-4h20h2
		c1.105,0,2-0.895,2-2v-6v-4v-4v-4v-4v-4v-4v-4v-4v-4v-4v-4v-4v-4v-6c0-1.105-0.895-2-2-2h-2H24l-12,4v-2.343
		c0-1.061,0.421-2.078,1.172-2.828l9.657-9.657c0.75-0.75,1.768-1.172,2.828-1.172H28h88.598C92.536,64.228,76,89.211,76,118
		c0,9.147,1.68,17.906,4.728,26H80h-1.992H76h-4.276H28h-4c-1.515,0-2.9,0.856-3.578,2.211l-4,8
		c-0.323,0.646-0.455,1.354-0.409,2.051c0,0.015-0.002,0.029-0.001,0.044L19.988,208h-3.16
		C16.298,208,15.789,207.789,15.414,207.414z M28,156h-8l4-8h4V156z M24,208l-3.692-48H28v48H24z M32,156v-8h39.991l0.018,0.266
		L75.991,208H32V156z M244,202.343c0,1.061-0.421,2.078-1.172,2.828l-2.243,2.243c-0.375,0.375-0.884,0.586-1.414,0.586H232h-4H84
		v-41.404C99.363,187.418,123.826,200,150,200c28.834,0,55.589-15.266,70.392-40H236h6.472l-2.894-5.789l-4-8L234.472,144H232
		h-10.008H220h-0.728c3.048-8.094,4.728-16.853,4.728-26c0-28.789-16.536-53.772-40.598-66H228h2.343
		c1.061,0,2.078,0.421,2.828,1.172l9.657,9.657c0.75,0.75,1.172,1.768,1.172,2.828V202.343z"/>
</g>
</svg>
