<svg xmlns="http://www.w3.org/2000/svg" xml:space="preserve" viewBox="0 0 256 256"><path d="M239.399 36h-224c-4.411 0-8 3.589-8 8v168c0 4.65 5.648 5.949 12.472 7.062 5.964.972 14.452 1.842 25.228 2.586 21.998 1.517 51.226 2.353 82.3 2.353s60.301-.836 82.3-2.353c10.776-.743 19.264-1.613 25.228-2.586 6.824-1.113 12.472-2.412 12.472-7.062V44c0-4.411-3.588-8-8-8m-52 4v24h-120V40zM90.072 158.284C100.716 159.396 113.716 160 127.4 160c13.683 0 26.684-.605 37.328-1.716 6.67 2.56 10.672 5.39 10.672 7.431 0 4.734-21.49 10.286-48 10.286s-48-5.552-48-10.286c-.001-2.042 4.001-4.872 10.672-7.431m10.289-3.143c7.701-1.855 17.008-3.141 27.038-3.141s19.337 1.286 27.038 3.141c-8.127.548-17.307.859-27.038.859s-18.911-.311-27.038-.859m62.129-1.579c-6.021-1.966-18.585-5.265-35.091-5.265-16.505 0-29.07 3.299-35.091 5.265q-1.082.354-2.094.714c-13.891-1.465-22.815-3.731-22.815-6.276h120c0 2.545-8.924 4.811-22.815 6.276a85 85 0 0 0-2.094-.714m-95.091-.045c3.076 1.615 8.094 2.836 15.552 3.894-4.811 2.584-7.255 5.361-7.255 8.303 0 2.862 1.756 7.068 16.939 10.529 9.791 2.231 22.137 3.46 34.764 3.46s24.973-1.229 34.764-3.46c15.183-3.46 16.939-7.666 16.939-10.529 0-2.942-2.444-5.72-7.255-8.303 7.458-1.058 12.476-2.28 15.552-3.894V184h-120zm0-9.517V68h120v76zm176 68c0 4.418-51.935 8-116 8s-116-3.582-116-8V44a4 4 0 0 1 4-4h48v148h128V40h48a4 4 0 0 1 4 4z" style="fill:#fff"/><path d="M175.399 48h-8v-4h-80v4h-8v12h96zm-4 8h-88v-4h8v-4h72v4h8zm-142 112c7.72 0 14-6.28 14-14s-6.28-14-14-14-14 6.28-14 14 6.281 14 14 14m0-24c5.523 0 10 4.477 10 10s-4.477 10-10 10-10-4.477-10-10 4.477-10 10-10m20 20c-7.72 0-14 6.28-14 14s6.28 14 14 14 14-6.28 14-14-6.28-14-14-14m0 24c-5.523 0-10-4.477-10-10s4.477-10 10-10 10 4.477 10 10-4.477 10-10 10m14 12c0 6.617 5.383 12 12 12s12-5.383 12-12-5.383-12-12-12-12 5.383-12 12m12-8a8 8 0 1 1 0 16 8 8 0 0 1 0-16m-46 0h-4c-3.308 0-6 2.692-6 6 0 1.537.586 2.937 1.541 4a5.97 5.97 0 0 0-1.541 4c0 3.308 2.692 6 6 6h4c3.308 0 6-2.692 6-6a5.97 5.97 0 0 0-1.541-4 5.97 5.97 0 0 0 1.541-4c0-3.308-2.691-6-6-6m-4 4h4c1.1 0 2 .9 2 2s-.9 2-2 2h-4c-1.1 0-2-.9-2-2s.9-2 2-2m4 12h-4c-1.1 0-2-.9-2-2s.9-2 2-2h4c1.1 0 2 .9 2 2s-.9 2-2 2m178-32c-4.411 0-8 3.589-8 8s3.589 8 8 8 8-3.589 8-8-3.588-8-8-8m0 12a4 4 0 1 1 0-8 4 4 0 0 1 0 8m16-20c-4.411 0-8 3.589-8 8s3.589 8 8 8 8-3.589 8-8-3.588-8-8-8m0 12a4 4 0 1 1 0-8 4 4 0 0 1 0 8m-16-8c4.411 0 8-3.589 8-8s-3.589-8-8-8-8 3.589-8 8 3.589 8 8 8m0-12a4 4 0 1 1 0 8 4 4 0 0 1 0-8m16-36c-4.411 0-8 3.589-8 8v12a7.98 7.98 0 0 0 2.726 6 7.98 7.98 0 0 0-2.726 6c0 4.411 3.589 8 8 8s8-3.589 8-8a7.98 7.98 0 0 0-2.726-6 7.98 7.98 0 0 0 2.726-6v-12c0-4.411-3.588-8-8-8m4 32a4 4 0 1 1-8 0 4 4 0 0 1 8 0m-8-12v-12a4 4 0 0 1 8 0v12a4 4 0 0 1-8 0" style="fill:#fff"/></svg>