<svg xmlns="http://www.w3.org/2000/svg" xml:space="preserve" width="320" height="213.333"><defs><clipPath id="a" clipPathUnits="userSpaceOnUse"><path d="M0 256h256V0H0Z"/></clipPath></defs><g clip-path="url(#a)" transform="matrix(1.33333 0 0 -1.33333 -10.667 277.333)"><path d="M0 0a8 8 0 0 0-8-8h-216a8 8 0 0 0-8 8v120h52c2.206 0 4-1.794 4-4V44c0-6.617 5.383-12 12-12h120c6.617 0 12 5.383 12 12v72c0 2.206 1.794 4 4 4H0Zm-232 128c0 8.836 7.164 16 16 16h20v-16h4v16h4v-16h4v16h4v-16h4v16h4v-16h4v16h4v-16h4v16h88v-16h4v16h4v-16h4v16h4v-16h4v16h4v-16h4v16h4v-16h4v16h20c8.837 0 16-7.164 16-16v-4h-28a8 8 0 0 1-8-8V44a8 8 0 0 0-8-8h-120a8 8 0 0 0-8 8v72a8 8 0 0 1-8 8h-52zm216 20h-200c-11.028 0-20-8.972-20-20V0c0-6.617 5.383-12 12-12H-8C-1.383-12 4-6.617 4 0v128c0 11.028-8.972 20-20 20" style="fill:#fff;fill-opacity:1;fill-rule:nonzero;stroke:none" transform="translate(244 60)"/><path d="M0 0h1.487c.754-3.964 1.396-10.166 1.842-15.272.506-5.811.506-11.645 0-17.455C2.883-37.834 2.241-44.036 1.487-48H0Zm114.435 0c-.109-.648-.208-1.306-.306-1.961-.492-3.279-.978-7.64-1.442-12.964a104.6 104.6 0 0 1 0-18.15c.464-5.324.95-9.686 1.442-12.964.098-.655.197-1.313.306-1.961H5.566c.108.648.207 1.306.306 1.961.491 3.278.977 7.64 1.441 12.964.526 6.022.526 12.128 0 18.15-.464 5.324-.95 9.685-1.441 12.964-.099.655-.198 1.313-.306 1.961ZM120 0v-48h-1.486c-.755 3.964-1.397 10.166-1.842 15.273a100 100 0 0 0 0 17.455c.445 5.106 1.087 11.308 1.842 15.272zM0-52h120a4 4 0 0 1 4 4V0a4 4 0 0 1-4 4H0a4 4 0 0 1-4-4v-48a4 4 0 0 1 4-4" style="fill:#fff;fill-opacity:1;fill-rule:nonzero;stroke:none" transform="translate(80 168)"/><path d="M0 0c-12.131 0-22 9.869-22 22s9.869 22 22 22 22-9.869 22-22S12.131 0 0 0m0 48c-14.359 0-26-11.641-26-26S-14.359-4 0-4 26 7.641 26 22 14.359 48 0 48" style="fill:#fff;fill-opacity:1;fill-rule:nonzero;stroke:none" transform="translate(42 104)"/><path d="M0 0c-5.514 0-10 4.486-10 10s4.486 10 10 10 10-4.486 10-10S5.514 0 0 0m0 24c-7.732 0-14-6.268-14-14S-7.732-4 0-4s14 6.268 14 14S7.732 24 0 24" style="fill:#fff;fill-opacity:1;fill-rule:nonzero;stroke:none" transform="translate(42 116)"/><path d="M0 0h-4v8h4c2.2 0 4-1.8 4-4S2.2 0 0 0m-16 0c-2.2 0-4 1.8-4 4s1.8 4 4 4h8V0Zm-12 4c0 2.2 1.8 4 4 4h1.083a7.93 7.93 0 0 1 0-8H-24c-2.2 0-4 1.8-4 4m28 8h-24c-4.411 0-8-3.589-8-8s3.589-8 8-8H0C4.411-4 8-.411 8 4s-3.589 8-8 8" style="fill:#fff;fill-opacity:1;fill-rule:nonzero;stroke:none" transform="translate(56 72)"/><path d="M0 0h92a2 2 0 0 1 0 4H0a2 2 0 0 1 0-4" style="fill:#fff;fill-opacity:1;fill-rule:nonzero;stroke:none" transform="translate(94 124)"/></g></svg>