<svg xmlns="http://www.w3.org/2000/svg" xml:space="preserve" width="320" height="208"><defs><clipPath id="a" clipPathUnits="userSpaceOnUse"><path d="M0 256h256V0H0Z"/></clipPath></defs><g clip-path="url(#a)" transform="matrix(1.33333 0 0 -1.33333 -10.667 274.667)"><path d="M0 0h-142.885c-43.651 0-44.557 7.227-44.557 7.227v1.691l.792.327c.176.072 4.433 1.793 14.606 4.083 3.917.881 6.696 2.776 8.259 5.631 2.241 4.094 1.072 8.553.824 9.38-.431 3.305-9.979 74.976-12.309 90.138-2.418 15.739-10.818 16.498-12.098 16.522.737 7.274 6.942 13.001 14.426 13.001h4.497l8.45-97.463.049-.35c.141-.728 3.607-17.838 16.626-19.987l2.993-.502c12.122-2.049 37.197-6.286 65.177-6.665l3.417-.033 3.576.018.001.009c28.16.343 53.408 4.611 65.605 6.672l2.984.501c13.021 2.149 16.488 19.259 16.629 19.988L25.561 148h4.497c7.483 0 13.688-5.727 14.425-13.001-1.189-.017-9.666-.698-12.098-16.522-2.33-15.16-11.877-86.832-12.309-90.138-.248-.827-1.417-5.285.824-9.38 1.564-2.855 4.342-4.75 8.259-5.631 10.173-2.29 14.431-4.011 14.604-4.081l.795-.329V7.227S43.651 0 0 0m-187.442 131.803h.021c.282 0 6.94-.157 9.039-13.819 2.272-14.784 12.257-89.617 12.358-90.371l.039-.173c.012-.038 1.203-3.861-.616-7.04-1.121-1.959-3.182-3.288-6.126-3.951-8.98-2.021-13.457-3.608-14.715-4.088zM21.138 148l-8.413-97.029c-.194-.925-3.268-14.837-13.014-16.447-.885-.145-1.891-.315-3.01-.504-12.617-2.132-38.872-6.568-67.845-6.629l-.126-.001-.471.001c-28.973.061-55.228 4.497-67.845 6.629q-1.68.285-3.01.504c-9.729 1.608-12.819 15.523-13.013 16.447L-164.022 148Zm23.42-135.639c-1.262.479-5.775 2.075-14.716 4.088-2.937.661-4.995 1.987-6.118 3.938-1.819 3.16-.636 7.016-.624 7.053l.039.173c.1.754 10.087 75.587 12.358 90.371 2.1 13.662 8.758 13.819 8.961 13.823l.1-.01zM30.058 152h-203c-10.202 0-18.5-8.278-18.5-18.454V6.977l.031-.248C-190.519-.391-174.192-4-142.885-4H0C31.308-4 47.634-.391 48.526 6.729l.032.248v126.569c0 10.176-8.299 18.454-18.5 18.454" style="fill:#fff;fill-opacity:1;fill-rule:nonzero;stroke:none" transform="translate(199.442 54)"/><path d="M52 184h152v-80H52Zm-3-84h158a1 1 0 0 1 1 1v86a1 1 0 0 1-1 1H49a1 1 0 0 1-1-1v-86a1 1 0 0 1 1-1m19-40h4v12h-4zm24 0h4v12h-4zm24 0h4v12h-4zm20 0h4v12h-4zm20 0h4v12h-4zm24 0h4v12h-4z" style="fill:#fff;fill-opacity:1;fill-rule:nonzero;stroke:none"/></g></svg>