<svg xmlns="http://www.w3.org/2000/svg" xml:space="preserve" viewBox="0 0 256 256"><path d="M126 100h8a4 4 0 0 0 4-4v-8a4 4 0 0 0-4-4h-8a4 4 0 0 0-4 4v8a4 4 0 0 0 4 4m0-12h8v8h-8zm56 12h8a4 4 0 0 0 4-4v-8a4 4 0 0 0-4-4h-8a4 4 0 0 0-4 4v8a4 4 0 0 0 4 4m0-12h8v8h-8zm13.029 24H60.971c-.536 0-.971.448-.971 1v30c0 .552.435 1 .971 1h134.057c.536 0 .971-.448.971-1v-30c.001-.552-.434-1-.97-1M192 140H64v-24h128z" style="fill:#fff"/><path d="M241.983 68h-89.46c-7.677-3.251-15.996-5-24.523-5s-16.846 1.749-24.523 5h-89.46A6.024 6.024 0 0 0 8 74.017v107.966A6.024 6.024 0 0 0 14.017 188h87.204A62.9 62.9 0 0 0 128 194a62.9 62.9 0 0 0 26.777-6h87.206a6.024 6.024 0 0 0 6.017-6.017V74.017A6.024 6.024 0 0 0 241.983 68m-70.186 20h-1.207C159.995 76.935 144.839 70 128 70s-31.995 6.935-42.59 18h-1.207C94.837 75.754 110.508 68 128 68s33.163 7.754 43.797 20M226 172a4 4 0 1 1 8 0 4 4 0 0 1-8 0m8-88a4 4 0 1 1-8 0 4 4 0 0 1 8 0m-4 8a7.98 7.98 0 0 0 6-2.726v77.452a7.98 7.98 0 0 0-6-2.726c-4.411 0-8 3.589-8 8a7.94 7.94 0 0 0 1.082 4h-51.048a63 63 0 0 0 3.467-3.641 4.998 4.998 0 0 0-3.7-8.359h-1.212a5 5 0 0 0-3.611 1.542c-.116.121-.239.233-.356.352.24-.585.377-1.223.377-1.894v-8a5 5 0 0 0-5-5h-8a5 5 0 0 0-5 5v8a5 5 0 0 0 5 5h8c.583 0 1.135-.119 1.655-.303C153.943 177.191 141.195 182 128 182c-14.756 0-28.963-5.999-38.979-16.458A5 5 0 0 0 85.41 164h-1.207c-.418 0-.825.062-1.219.162.001-.055.016-.107.016-.162v-8a5 5 0 0 0-5-5h-8a5 5 0 0 0-5 5v8a5 5 0 0 0 5 5h8c.421 0 .824-.068 1.215-.166a5 5 0 0 0 1.213 3.444A63 63 0 0 0 83.966 176H36.918A7.94 7.94 0 0 0 38 172c0-4.411-3.589-8-8-8a7.98 7.98 0 0 0-6 2.726v-29.069l6.828-6.828L33.657 128l-2.828-2.828L24 118.343V89.274A7.98 7.98 0 0 0 30 92c4.411 0 8-3.589 8-8a7.94 7.94 0 0 0-1.082-4h48.069a63 63 0 0 0-4.559 4.722c-.02.023-.035.05-.055.074A3.97 3.97 0 0 0 78 84h-8a4 4 0 0 0-4 4v8a4 4 0 0 0 4 4h8a4 4 0 0 0 4-4v-3.52a5 5 0 0 0 2.203.52h1.207a5 5 0 0 0 3.611-1.542 52 52 0 0 1 5.201-4.719A4 4 0 0 0 94 88v8a4 4 0 0 0 4 4h8a4 4 0 0 0 4-4v-8a4 4 0 0 0-4-4h-8l-.008.001A54.57 54.57 0 0 1 128 75a54.6 54.6 0 0 1 30.007 9H154a4 4 0 0 0-4 4v8a4 4 0 0 0 4 4h8a4 4 0 0 0 4-4v-5.512c.326.323.661.638.979.97A5 5 0 0 0 170.59 93h1.207a4.999 4.999 0 0 0 3.775-8.278A63 63 0 0 0 171.013 80h52.069A7.94 7.94 0 0 0 222 84c0 4.411 3.589 8 8 8m-68 64v8h-8v-8zm-84 0v8h-8v-8zM34 84a4 4 0 1 1-8 0 4 4 0 0 1 8 0m-8 88a4 4 0 1 1 8 0 4 4 0 0 1-8 0m-6-36-8 8v-32l8 8 4 4 4 4-4 4zm58-48v8h-8v-8zm20 8v-8h8v8zm64-8v8h-8v-8zM12 74.017c0-1.114.903-2.017 2.017-2.017H95.59a63 63 0 0 0-5.868 4H22.018A2.02 2.02 0 0 0 20 78.018v36.325l-5.172-5.172L12 106.343zM14.017 184A2.017 2.017 0 0 1 12 181.983v-32.326l2.828-2.828L20 141.657v36.325c0 1.115.904 2.018 2.018 2.018H88v-.359A63 63 0 0 0 94 184zm70.186-15h1.207c10.596 11.065 25.751 18 42.59 18s31.995-6.935 42.59-18h1.207c-10.634 12.246-26.305 20-43.797 20s-33.163-7.754-43.797-20M244 181.983a2.017 2.017 0 0 1-2.017 2.017h-79.981a63 63 0 0 0 5.999-4.357V180h69.982a2.02 2.02 0 0 0 2.018-2.018V78.018A2.02 2.02 0 0 0 237.983 76h-71.705a63 63 0 0 0-5.868-4h81.573c1.114 0 2.017.903 2.017 2.017z" style="fill:#fff"/><path d="M106 151h-8a5 5 0 0 0-5 5v8a5 5 0 0 0 5 5h8a5 5 0 0 0 5-5v-8a5 5 0 0 0-5-5m0 13h-8v-8h8zm28-13h-8a5 5 0 0 0-5 5v8a5 5 0 0 0 5 5h8a5 5 0 0 0 5-5v-8a5 5 0 0 0-5-5m0 13h-8v-8h8zm56-13h-8a5 5 0 0 0-5 5v8a5 5 0 0 0 5 5h8a5 5 0 0 0 5-5v-8a5 5 0 0 0-5-5m0 13h-8v-8h8z" style="fill:#fff"/></svg>