<svg xmlns="http://www.w3.org/2000/svg" xml:space="preserve" viewBox="0 0 256 256"><path d="M192 90c0-2.764-1.881-5.091-4.429-5.784A6 6 0 0 0 188 82c0-3.308-2.692-6-6-6s-6 2.692-6 6c0 2.764 1.881 5.091 4.429 5.784A6 6 0 0 0 180 90c0 3.308 2.692 6 6 6s6-2.692 6-6m-10-10a2 2 0 1 1 .001 3.999A2 2 0 0 1 182 80m2 10a2 2 0 1 1 3.999-.001A2 2 0 0 1 184 90" style="fill:#fff"/><path d="M203.991 124V80H204V64h-.009V48c0-2.206-1.794-4-4-4h-60.789c-.725 0-1.36.159-1.787.448-4.87 3.296-17.63 3.552-21.424 3.552s-16.554-.256-21.424-3.552C94.14 44.159 93.505 44 92.78 44H35.991c-2.206 0-4 1.794-4 4v76c0 2.206 1.794 4 4 4h164c2.206 0 4-1.794 4-4M180 66a2 2 0 1 1-3.999.001A2 2 0 0 1 180 66m-48.009-6v-4h56v4zM192 60h7.991v4H192zm0 8h7.991v8H192zM35.991 124V48h56.703c5.595 3.474 16.941 4 23.297 4s17.703-.527 23.297-4h60.703v8H192v-4H39.991v8H36v4h3.991v44H36v4h3.991v12zM96 68h-.009v.087A3.995 3.995 0 0 1 88 68a4 4 0 0 1 8 0m27.991 28h8v4h-8zM128 108h16v8h-16zm14-4h-6.009v-8h.359a6 6 0 0 0-.35 2c0 3.308 2.692 6 6 6a6 6 0 0 0 2-.35v.35zm0-4a2 2 0 1 1-.001-3.999A2 2 0 0 1 142 100m1.991-8h-4v-4h4zM136 84h-4v-4h4zm-.009 4v4h-8v-4zm-16 4h-20V72h20zM112 112H76v-8h36zm0 8H55.991v-4H112zM43.991 60v-4h12v8h29.091a7.94 7.94 0 0 0 0 8H75.65a6 6 0 0 0 .35-2c0-3.308-2.692-6-6-6s-6 2.692-6 6 2.692 6 6 6c.699 0 1.367-.126 1.991-.347V84h12v8H84v8h-4V86h-8.011A10 10 0 0 0 66 84c-2.256 0-4.334.76-6.009 2.026V75.653C62.322 74.829 64 72.61 64 70c0-3.308-2.692-6-6-6-.783 0-1.529.155-2.216.429C55.091 61.881 52.764 60 50 60c-3.308 0-6 2.692-6 6s2.692 6 6 6c.783 0 1.529-.155 2.216-.429q.06.218.134.429h-8.359v-8H44v-4zm52 16v4h-8v-4zm0 12h-8v-4h8zm-12-8h-8v-4h8zM88 92h4v4h-4zM70 72a2 2 0 1 1-.001-3.999A2 2 0 0 1 70 72m2 40H59.991v-10.026A9.93 9.93 0 0 0 66 104c2.171 0 4.272-.714 5.989-2H72zM50 68a2 2 0 1 1-.001-3.999A2 2 0 0 1 50 68m8 4a2 2 0 1 1-.001-3.999A2 2 0 0 1 58 72m-2.009 4v4h-8v-4zm0 24h-4v-4h4zM76 98h-5.537A5.98 5.98 0 0 1 66 100a6 6 0 1 1 0-12c1.775 0 3.365.775 4.463 2H76zM47.991 84h8v4h-8zm4 24h4v4h-4zm8-48v-4H116v4zm-16 64v-12H44v-4h-.009V92h4v24h4v8zM116 124v-24H96v-4h23.991v8H124v16h20v4zm32 0v-20h15.991v16H164v4zm20-16h11.991v8H168zm15.991 16H168v-4h15.991v-16H168v-4h-20.35c.223-.627.35-1.298.35-2s-.127-1.373-.35-2h8.341v-8h8v8h12V84h-8v-8h-16v8H140v-8h-12v8h-4.009v-8.353A6 6 0 0 0 126 76c3.308 0 6-2.692 6-6s-2.692-6-6-6c-2.606 0-4.824 1.673-5.65 4H100a7.94 7.94 0 0 0-1.082-4H120v-8h7.991v8h44.359a6 6 0 0 0-.35 2c0 3.308 2.692 6 6 6s6-2.692 6-6a6 6 0 0 0-.35-2H188v16h11.991v36h-4.341a6 6 0 0 0 .35-2c0-3.308-2.692-6-6-6s-6 2.692-6 6c0 2.603 1.669 4.818 3.991 5.647V124zm-36-32v-4h4v4zm20-4h4v4h-4zm-4-4h-8v-4h8zM124 70a2 2 0 1 1 3.999-.001A2 2 0 0 1 124 70m64 44a2 2 0 1 1 3.999-.001A2 2 0 0 1 188 114m3.991 6h8v4h-8z" style="fill:#fff"/><path d="M211.991 124V48c0-6.617-5.383-12-12-12h-60.789c-2.34 0-4.508.63-6.271 1.823-1.125.759-7.25 2.177-16.941 2.177s-15.815-1.418-16.941-2.177C97.288 36.63 95.12 36 92.78 36H35.991c-6.617 0-12 5.383-12 12v76c0 6.617 5.383 12 12 12h27.716l29.425 4.204c2.335.334 4.819.893 7.594 1.71 4.569 1.345 10.701 2.086 17.265 2.086q.807 0 1.6-.017l.422.06.535-.082c5.276-.158 10.101-.793 13.968-1.837a49 49 0 0 1 5.345-1.134l32.437-4.99h27.694c6.616 0 11.999-5.383 11.999-12m-40 8-32.739 5.037q-2.924.452-5.78 1.226c-3.487.942-8.125 1.568-13.287 1.708l-.194.03-.158-.023q-.911.022-1.842.023c-6.378 0-12.119-.741-16.135-1.924-2.678-.789-5.394-1.438-8.158-1.833L63.991 132h-28a8 8 0 0 1-8-8V48a8 8 0 0 1 8-8H92.78c1.422 0 2.851.339 4.029 1.136C99.256 42.792 106.918 44 115.991 44s16.735-1.208 19.182-2.864c1.178-.797 2.607-1.136 4.029-1.136h60.789a8 8 0 0 1 8 8v76a8 8 0 0 1-8 8zM32 164h-4v20h60v-20zm52 16H32v-12h52zm8-4h28v4H92z" style="fill:#fff"/><path d="M247.747 38c-.89-3.447-4.026-6-7.747-6h-16.009v-4h-87.088c-3.01 0-5.849.732-8.21 2.117-1.291.757-5.739 1.883-12.702 1.883s-11.411-1.126-12.702-1.883c-2.361-1.385-5.2-2.117-8.21-2.117H23.991c-4.411 0-8 3.589-8 8v45h-2.165A5.83 5.83 0 0 0 8 86.826v6.349A5.83 5.83 0 0 0 13.826 99h2.165v117c0 4.411 3.589 8 8 8h115a84.7 84.7 0 0 0 25.756-4H240c4.411 0 8-3.589 8-8V40zM13.826 95A1.825 1.825 0 0 1 12 93.174v-6.349c0-1.008.817-1.825 1.826-1.825h2.165v10zm10.165 125a4 4 0 0 1-4-4V36a4 4 0 0 1 4-4h71.088c2.161 0 4.323.474 6.187 1.567 2.439 1.43 8.114 2.433 14.725 2.433 6.612 0 12.286-1.003 14.725-2.433 1.864-1.093 4.026-1.567 6.187-1.567h83.088v107c0 44.735-36.265 81-81 81zM244 206v6a4 4 0 0 1-4 4h-65.062c28.948-13.569 49.053-42.974 49.053-77V36H240a4 4 0 0 1 4 4z" style="fill:#fff"/></svg>