<svg xmlns="http://www.w3.org/2000/svg" xml:space="preserve" width="320" height="178.667"><defs><clipPath id="a" clipPathUnits="userSpaceOnUse"><path d="M0 256h256V0H0Z"/></clipPath></defs><g clip-path="url(#a)" transform="matrix(1.33333 0 0 -1.33333 -10.667 261.333)"><path d="M0 0a6 6 0 0 0 0 12A6 6 0 0 0 0 0m0 16c-5.514 0-10-4.486-10-10S-5.514-4 0-4 10 .486 10 6 5.514 16 0 16" style="fill:#fff;fill-opacity:1;fill-rule:nonzero;stroke:none" transform="translate(58 80)"/><path d="M0 0a6 6 0 0 0 0 12A6 6 0 0 0 0 0m0 16c-5.514 0-10-4.486-10-10S-5.514-4 0-4 10 .486 10 6 5.514 16 0 16" style="fill:#fff;fill-opacity:1;fill-rule:nonzero;stroke:none" transform="translate(34 80)"/><path d="M0 0a4 4 0 1 0-8 0 4 4 0 0 0 8 0m10 12a4 4 0 1 0-8 0 4 4 0 0 0 8 0M8 26a4 4 0 1 0 8 0 4 4 0 0 0-8 0m14 16v-4h-.116a69.6 69.6 0 0 0-1.918-12.666c.018.221.034.441.034.666 0 4.411-3.589 8-8 8s-8-3.589-8-8a7.97 7.97 0 0 1 2.77-6.039q-.38.038-.77.039c-4.411 0-8-3.589-8-8 0-1.854.639-3.557 1.701-4.914A7.95 7.95 0 0 1-4 8c-4.411 0-8-3.589-8-8s3.589-8 8-8 8 3.589 8 8a7.95 7.95 0 0 1-1.701 4.914A7.95 7.95 0 0 1 6 4c4.411 0 8 3.589 8 8a7.97 7.97 0 0 1-2.77 6.039q.38-.038.77-.039c3.227 0 6.006 1.924 7.27 4.681C15.261 8.754 7.045-3.409-3.922-12.323a1.94 1.94 0 0 0-1.229-.436 2.01 2.01 0 0 0-1.627.829l-1.618 2.226-.143-.118C-19.607-18.965-33.621-24-48-24c-13.407 0-26.173 4.215-36.915 12.188l-.042.032-1.43-2.199a2 2 0 0 0-2.866-.522q-.339.249-.674.501h-66.087c-1.824-2.425-4.717-4-7.986-4s-6.162 1.575-7.986 4h-8.028c-1.824-2.425-4.717-4-7.986-4s-6.162 1.575-7.986 4H-206a4 4 0 0 0-4 4v44h102.543c2.219-16.622 11.264-31.493 25.203-41.222l.227-.158-1.696-2.825A59.73 59.73 0 0 1-48-22 59.75 59.75 0 0 1-9.813-8.28L-20.474 7.71C-10.439 15.781-4 28.149-4 42a43.7 43.7 0 0 1-6 22.14V102H2c11.046 0 20-8.954 20-20zm-232 52a8 8 0 0 0 8 8h116V64.14A43.7 43.7 0 0 1-92 42c0-14.64 7.193-27.624 18.224-35.627l-2.058-3.43C-88.464 11.974-96 26.547-96 42c0 2.465.191 4.951.569 7.387l.716 4.613H-210zm122-52c0 22.091 17.908 40 40 40S-8 64.091-8 42-25.908 2-48 2s-40 17.908-40 40M-62.299.398q.383-.133.77-.261-.387.128-.77.261M-63.431.8l.044-.018zm-3.16 1.334.336-.153zm-1.619.803q.18-.095.362-.187-.182.092-.362.187m-1.427.773.148-.085zm43.069-.117.271.156zm-1.741-.923q.232.117.461.236-.229-.119-.461-.236m-3.61-1.613q.311.12.619.244c-.205-.084-.412-.162-.619-.244m-1.797-.663c.196.067.396.129.591.2-.195-.071-.395-.133-.591-.2m-3.09-.947c.333.088.661.188.991.282-.33-.094-.658-.194-.991-.282m-2.003-.474c.36.077.716.163 1.073.248-.357-.085-.713-.171-1.073-.248M-77.321-7.31l.786 1.31 2.063 3.438L-72.58.592l.088.147C-65.089-3.682-56.704-6-48-6c9.42 0 18.685 2.823 26.514 8.019l6.277-9.416A56.1 56.1 0 0 0-48-18c-10.896 0-21.322 3.081-30.368 8.944zM-106 50h6.617a52 52 0 0 1-.617-8c0-17.548 8.746-33.082 22.098-42.503l-2.063-3.438C-93.451 5.47-102.614 20.653-103.846 38H-106Zm-12-8h8v-4h-8zm-48 0h44v-4h-44zm-12 0h8v-4h-8zm-4-4h-24v12h24zm12 8h-8v4h8zm48 0h-44v4h44zm4 4h8v-4h-8zm104 52V69.896C-22.076 79.722-34.318 86-48 86s-25.924-6.278-34-16.104V102Zm16 4h-204c-6.617 0-12-5.383-12-12V50h4V38h-4v-48c0-4.411 3.589-8 8-8h8.212c2.601-2.563 6.069-4 9.788-4s7.188 1.437 9.788 4h4.424c2.601-2.563 6.069-4 9.788-4s7.188 1.437 9.788 4h62.999a5.95 5.95 0 0 1 3.145-.891c1.527 0 2.964.572 4.057 1.576C-73.295-24.318-60.929-28-48-28c14 0 27.678 4.485 38.926 12.699a6.04 6.04 0 0 1 3.923-1.458c1.364 0 2.696.473 3.753 1.331C13.777-3.092 23.469 14.756 25.565 34H26v48c0 13.233-10.767 24-24 24" style="fill:#fff;fill-opacity:1;fill-rule:nonzero;stroke:none" transform="translate(222 90)"/><path d="M0 0a4 4 0 1 0 0 8 4 4 0 0 0 0-8m0 12c-4.411 0-8-3.589-8-8s3.589-8 8-8S8-.411 8 4s-3.589 8-8 8" style="fill:#fff;fill-opacity:1;fill-rule:nonzero;stroke:none" transform="translate(236 128)"/><path d="M0 0a55.7 55.7 0 0 1 20-4.483v4A51.7 51.7 0 0 0 0 4.358Z" style="fill:#fff;fill-opacity:1;fill-rule:nonzero;stroke:none" transform="translate(152 80.534)"/><path d="M0 0a51.7 51.7 0 0 0-20-4.842v-4A55.6 55.6 0 0 1 0-4.358z" style="fill:#fff;fill-opacity:1;fill-rule:nonzero;stroke:none" transform="translate(196 84.893)"/></g></svg>