<?xml version="1.0" encoding="UTF-8" standalone="no"?>
<svg
   xmlns:dc="http://purl.org/dc/elements/1.1/"
   xmlns:cc="http://creativecommons.org/ns#"
   xmlns:rdf="http://www.w3.org/1999/02/22-rdf-syntax-ns#"
   xmlns:svg="http://www.w3.org/2000/svg"
   xmlns="http://www.w3.org/2000/svg"
   viewBox="0 0 320 128"
   height="128"
   width="320"
   xml:space="preserve"
   id="svg2"
   version="1.1"><metadata
     id="metadata8"><rdf:RDF><cc:Work
         rdf:about=""><dc:format>image/svg+xml</dc:format><dc:type
           rdf:resource="http://purl.org/dc/dcmitype/StillImage" /></cc:Work></rdf:RDF></metadata><defs
     id="defs6"><clipPath
       id="clipPath18"
       clipPathUnits="userSpaceOnUse"><path
         id="path16"
         d="M 0,256 H 256 V 0 H 0 Z" /></clipPath></defs><g
     transform="matrix(1.3333333,0,0,-1.3333333,-10.666666,234.66666)"
     id="g10"><g
       id="g12"><g
         clip-path="url(#clipPath18)"
         id="g14"><g
           transform="translate(244,144)"
           id="g20"><path
             id="path22"
             style="fill:#ffffff;fill-opacity:1;fill-rule:nonzero;stroke:none"
             d="m 0,0 h -56 -176 v 4 h 168 v 4 h -168 v 18 c 0,1.104 0.896,2 2,2 h 2 v -4 h 4 v 4 h 4 v -4 h 4 v 4 h 4 v -4 h 4 v 4 h 4 v -4 h 4 v 4 h 4 v -4 h 4 v 4 h 4 v -4 h 4 v 4 h 4 v -4 h 4 v 4 h 4 v -4 h 4 v 4 h 4 v -4 h 4 v 4 h 4 v -4 h 4 v 4 h 4 v -4 h 4 v 4 h 4 v -4 h 4 v 4 h 4 v -4 h 4 v 4 h 4 v -4 h 4 v 4 h 4 v -4 h 4 v 4 h 4 v -4 h 4 v 4 h 4 v -4 h 4 v 4 h 4 v -4 h 4 v 4 h 4 v -4 h 4 v 4 h 4 v -4 h 4 v 4 h 4 v -4 h 4 v 4 h 4 v -4 h 4 v 4 h 4 v -4 h 4 v 4 h 4 v -4 h 4 v 4 h 4 v -4 h 4 v 4 h 4 v -4 h 4 v 4 h 4 v -4 h 4 v 4 h 4 v -4 h 4 v 4 h 4 v -4 h 4 z m 0,-8 h -4 v -4 h 4 v -4 h -4 v -4 h 4 v -4 h -4 v -4 h 4 v -4 h -4 v -4 h 4 v -4 h -4 v -4 h 4 v -4 h -4 v -4 h 4 v -6 c 0,-1.104 -0.896,-2 -2,-2 h -54 v 8 h 4 v 4 h -4 v 4 h 4 v 4 h -4 v 4 h 4 v 4 h -4 v 4 h 4 v 4 h -4 v 4 h 4 v 4 h -4 v 4 h 4 v 4 h -4 v 4 H 0 Z m -68,-52 v 4 8.075 4 20 4 7.925 4 h -4 -12 -4 -8 -4 -8 -4 -8 -4 -8 -4 -8 -4 -8 -4 -8 -4 -8 -4 -8 -4 -8 -4 v -4 -8 -4 -8 -4 -7.925 V -44 -47.925 -48 -56.075 -60 h -22 c -1.104,0 -2,0.896 -2,2 v 6 h 20 v 4 h -20 v 4 h 20 v 4 h -20 v 4 h 20 v 4 h -20 v 4 h 20 v 4 h -20 v 4 h 20 v 4 h -20 v 4 h 20 v 4 h -20 v 4 h 172 v -4 h -4 v -4 h 4 v -4 h -4 v -4 h 4 v -4 h -4 v -4 h 4 v -4 h -4 v -4 h 4 v -4 h -4 v -4 h 4 v -4 h -4 v -4 h 4 v -8 z m -136,12 h 8 v -8 -0.075 h -8 z m 20,28 h -8 v 8 h 8 z m 4,-12 h -8 v 8 h 8 z m -12,-16 v 0.075 h 8 V -56 h -8 z m -12,12.149 h 16 v -8.074 h -16 z m 28,-8.074 h -8 v 8 h 8 z m 4,23.925 h -8 v 8 h 8 z m 0,-35.925 h -8 v 8.074 h 8 z m 4,23.925 h -8 v 8 h 8 z m 4,-11.925 h -8 v 8 h 8 z m 4,23.925 h -8 v 8 h 8 z m 4,-12 h -8 v 8 h 8 z m -4,-23.851 h -8 v 8.075 h 8 z m 8,11.926 h -8 v 8 h 8 z m 4,23.925 h -8 v 8 h 8 z m 4,-12 h -8 v 8 h 8 z m 4,-11.925 h -8 v 8 h 8 z m 4,23.925 h -8 v 8 h 8 z m 4,-12 h -8 v 8 h 8 z m 4,-11.925 h -8 v 8 h 8 z m 4,23.925 h -8 v 8 h 8 z m 4,-12 h -8 v 8 h 8 z m 4,-11.925 h -8 v 8 h 8 z m 4,23.925 h -8 v 8 h 8 z m 4,-12 h -8 v 8 h 8 z m 0,-24.075 h -8 V -48 h 8 z m -48,8.15 h 36 V -56 h -36 z m 52,4 h -8 v 8 h 8 z m 4,23.925 h -8 v 8 h 8 z m 4,-12 h -8 v 8 h 8 z m 0,-24 h -8 v 8.075 h 8 z m 4,12.075 h -8 v 8 h 8 z M -88,-20 h -8 v 8 h 8 z m 4,-11.925 h -8 v 8 h 8 z M -84,-56 h -8 v 8.075 h 8 z m 4,20.075 v 12 h 8 v -20 h -8 -8 v 8 z M -72,-20 h -12 v 8 h 12 z m 0,-36 h -8 v 8.075 h 8 z m -132,44 h 8 v -8 h -8 z m 8,-12 h 4 v -8 h -12 v 8 z M 0,28 v 4 h -4 -4 -4 -4 -4 -4 -4 -4 -4 -4 -4 -4 -4 -4 -4 -4 -4 -4 -4 -4 -4 -4 -4 -4 -4 -4 -4 -4 -4 -4 -4 -4 -4 -4 -4 -4 -4 -4 -4 -4 -4 -4 -4 -4 -4 -4 -4 -4 -4 -4 -4 -4 -4 -4 -4 -4 -4 -2 c -3.309,0 -6,-2.691 -6,-6 v -84 c 0,-3.309 2.691,-6 6,-6 H -2 c 3.309,0 6,2.691 6,6 v 82 4 z" /></g><path
           id="path24"
           style="fill:#ffffff;fill-opacity:1;fill-rule:nonzero;stroke:none"
           d="m 192,148 h 48 v 4 h -48 z" /><path
           id="path26"
           style="fill:#ffffff;fill-opacity:1;fill-rule:nonzero;stroke:none"
           d="m 184,148 h 4 v 4 h -4 z" /><path
           id="path28"
           style="fill:#ffffff;fill-opacity:1;fill-rule:nonzero;stroke:none"
           d="m 192,104 h 48 v 4 h -48 z" /><path
           id="path30"
           style="fill:#ffffff;fill-opacity:1;fill-rule:nonzero;stroke:none"
           d="m 192,96 h 48 v 4 h -48 z" /></g></g></g></svg>