<svg xmlns="http://www.w3.org/2000/svg" xml:space="preserve" width="320" height="149.333"><defs><clipPath id="a" clipPathUnits="userSpaceOnUse"><path d="M0 256h256V0H0Z"/></clipPath></defs><g clip-path="url(#a)" transform="matrix(1.33333 0 0 -1.33333 -10.667 245.334)"><path d="M0 0c-3.932-2.697-9.76-5.878-16.677-7.12C-13.83-4.592-8.487-1.093 0 0m-166.578-7.656c-12 12-28 12-28 12s-16 16-16 44 20 40 20 40c13.616 0 21.439 5.794 23.467 7.52.364.31.821.48 1.299.48h142.427c.518 0 1.014-.211 1.388-.569 7.005-6.708 13.943-8.071 18.427-8.071 3.072 0 4.992.64 4.992.64s20-16 20-44-16-40-16-40c-20 0-28-12-28-12zm-21.887 7.191c4.067-.87 9.599-2.678 14.818-6.425-6.019 1.289-11.145 3.993-14.818 6.425m13.231 95.961c-2.078-.958-4.706-1.873-7.886-2.47 2.157.955 4.791 1.849 7.886 2.47M-3.38 91.708c-.065 0-.124-.004-.19-.004-3.088 0-7.477.789-12.211 4.113 5.405-.832 9.547-2.53 12.401-4.109m28.802-47.364c0 28.64-19.33 45.335-21.358 47.006-1.397 1.306-10.32 8.994-26.642 8.994h-144c-15.722 0-24.558-7.116-26.437-8.808-2.995-1.938-21.563-15.086-21.563-43.192 0-22.792 9.951-38.019 14.711-44h-.368l2.828-2.828 1.172-1.172h.098c3.546-3.112 14.14-11.319 27.861-11.959l.041-.041h147.798l.049.074C-4.943-10.652 6.437-.232 8.061 1.33c2.154 1.72 17.361 14.855 17.361 43.014" style="fill:#fff;fill-opacity:1;fill-rule:nonzero;stroke:none" transform="translate(222.578 83.656)"/><path d="M0 0a6 6 0 0 0 0 12A6 6 0 0 0 0 0m-2-18A6 6 0 0 0-2-6a6 6 0 0 0 0-12M10 6c0 5.514-4.486 10-10 10s-10-4.486-10-10c0-3.612 1.932-6.773 4.81-8.531C-9.143-3.867-12-7.603-12-12c0-5.514 4.486-10 10-10S8-17.514 8-12c0 3.612-1.932 6.773-4.81 8.531C7.143-2.133 10 1.603 10 6" style="fill:#fff;fill-opacity:1;fill-rule:nonzero;stroke:none" transform="translate(40 110)"/><path d="M0 0a6 6 0 0 0-12 0A6 6 0 0 0 0 0m-16 0c0-5.514 4.486-10 10-10S4-5.514 4 0-.486 10-6 10-16 5.514-16 0" style="fill:#fff;fill-opacity:1;fill-rule:nonzero;stroke:none" transform="translate(222 116)"/><path d="m0 0-.211-.422h-6l-3.293 3.293a1 1 0 0 0 0 1.414l3.293 3.293h6L0 7.155A8 8 0 0 0 0 0m-8.211-8.367-.422-.211a8 8 0 0 0-7.156 0l-.422.211v6l3.293 3.293a1 1 0 0 0 .707.293 1 1 0 0 0 .707-.293l3.293-3.293zm-10 7.945h-6l-.211.422a8 8 0 0 0 0 7.155l.211.423h6l3.293-3.293a1 1 0 0 0 0-1.414zm2 16.055.422.211a8 8 0 0 0 3.578.845 8 8 0 0 0 3.578-.845l.422-.211v-6l-3.293-3.293a.997.997 0 0 0-1.414 0l-3.293 3.293zM3.367 9.366l-1.106 2.212h-6.472v6.527l-2.211 1.106-.423.211a12.05 12.05 0 0 1-5.366 1.267c-1.853 0-3.709-.438-5.367-1.267l-.422-.211-2.211-1.106v-6.527h-6.472l-1.106-2.212-.211-.422a12.06 12.06 0 0 1 0-10.733l.211-.422 1.106-2.211h6.472v-6.417L-18-11.944l.422-.212a12.1 12.1 0 0 1 5.367-1.266c1.853 0 3.709.438 5.367 1.266l.422.212 2.211 1.105v6.417h6.472l1.106 2.211.211.422a12.06 12.06 0 0 1 0 10.733z" style="fill:#fff;fill-opacity:1;fill-rule:nonzero;stroke:none" transform="translate(46.262 140.367)"/><path d="M0 0c0-2.206-1.794-4-4-4h-136c-2.206 0-4 1.794-4 4v84c0 2.206 1.794 4 4 4H-4c2.206 0 4-1.794 4-4zm12.5 63a5 5 0 1 0 0-10 5 5 0 0 0 0 10m9.5 9.5a5 5 0 1 0 0-10 5 5 0 0 0 0 10m9.5-9.5a5 5 0 1 0 0-10 5 5 0 0 0 0 10m-10.015-4.485a9 9 0 0 1 1.03 0 9 9 0 0 1 0-1.03 9 9 0 0 1-1.03 0 9 9 0 0 1 0 1.03M22 43.5a5 5 0 1 0 0 10 5 5 0 0 0 0-10M4 12v43.068C5.22 51.543 8.564 49 12.5 49q.259 0 .515.015A9 9 0 0 1 13 48.5c0-4.962 4.037-9 9-9s9 4.038 9 9q0 .259-.015.515.256-.015.515-.015c4.963 0 9 4.038 9 9 0 4.963-4.037 9-9 9q-.259 0-.515-.015.015.256.015.515c0 4.963-4.037 9-9 9s-9-4.037-9-9q0-.259.015-.515-.256.015-.515.015c-3.936 0-7.28-2.543-8.5-6.068V84c0 4.4-3.6 8-8 8h-136c-4.4 0-8-3.6-8-8V0c0-4.4 3.6-8 8-8H-4C.4-8 4-4.4 4 0z" style="fill:#fff;fill-opacity:1;fill-rule:nonzero;stroke:none" transform="translate(200 86)"/><path d="M64 164h128V96H64Zm-4-72h136v76H60Z" style="fill:#fff;fill-opacity:1;fill-rule:nonzero;stroke:none"/><path d="M0 0a4 4 0 1 0 0-8 4 4 0 0 0 0 8m12 0a4 4 0 1 0 0-8 4 4 0 0 0 0 8M0-12a7.97 7.97 0 0 1 6 2.727A7.97 7.97 0 0 1 12-12c4.411 0 8 3.589 8 8s-3.589 8-8 8a7.97 7.97 0 0 1-6-2.727A7.97 7.97 0 0 1 0 4C-4.411 4-8 .411-8-4s3.589-8 8-8" style="fill:#fff;fill-opacity:1;fill-rule:nonzero;stroke:none" transform="translate(212 102)"/><path d="M0 0a2 2 0 1 1-.001 4.001A2 2 0 0 1 0 0" style="fill:#fff;fill-opacity:1;fill-rule:nonzero;stroke:none" transform="translate(210 160)"/></g></svg>