<?xml version="1.0" encoding="UTF-8" standalone="no"?>
<svg
   xmlns:dc="http://purl.org/dc/elements/1.1/"
   xmlns:cc="http://creativecommons.org/ns#"
   xmlns:rdf="http://www.w3.org/1999/02/22-rdf-syntax-ns#"
   xmlns:svg="http://www.w3.org/2000/svg"
   xmlns="http://www.w3.org/2000/svg"
   viewBox="0 0 213.33333 320"
   height="320"
   width="213.33333"
   xml:space="preserve"
   id="svg2"
   version="1.1"><metadata
     id="metadata8"><rdf:RDF><cc:Work
         rdf:about=""><dc:format>image/svg+xml</dc:format><dc:type
           rdf:resource="http://purl.org/dc/dcmitype/StillImage" /></cc:Work></rdf:RDF></metadata><defs
     id="defs6"><clipPath
       id="clipPath18"
       clipPathUnits="userSpaceOnUse"><path
         id="path16"
         d="M 0,256 H 256 V 0 H 0 Z" /></clipPath></defs><g
     transform="matrix(1.3333333,0,0,-1.3333333,-63.999998,330.66666)"
     id="g10"><g
       id="g12"><g
         clip-path="url(#clipPath18)"
         id="g14"><g
           transform="translate(202,224)"
           id="g20"><path
             id="path22"
             style="fill:#ffffff;fill-opacity:1;fill-rule:nonzero;stroke:none"
             d="M 0,0 H 1 C 1.553,0 2,-0.448 2,-1 V -7 C 2,-7.552 1.553,-8 1,-8 H 0 c -1.104,0 -2,-0.896 -2,-2 v -4 c 0,-1.104 0.896,-2 2,-2 h 1 c 0.553,0 1,-0.448 1,-1 v -159 h -4 -2.9 c -0.608,0 -1.1,-0.492 -1.1,-1.1 v -0.004 c 0,-1.871 -0.656,-3.683 -1.854,-5.121 l -16.947,-20.336 c -0.76,-0.912 -1.886,-1.439 -3.073,-1.439 H -150 v 187 c 0,0.552 0.448,1 1,1 h 1 c 1.104,0 2,0.896 2,2 v 4 c 0,1.104 -0.896,2 -2,2 h -1 c -0.552,0 -1,0.448 -1,1 v 6 c 0,0.552 0.448,1 1,1 h 1 c 1.104,0 2,0.896 2,2 v 4 c 0,1.104 -0.896,2 -2,2 h -1 c -0.552,0 -1,0.448 -1,1 v 7 c 0,2.209 1.791,4 4,4 h 96.027 c 3.65,-2.425 9.436,-4 15.973,-4 6.537,0 12.323,1.575 15.973,4 L -2,20 c 2.209,0 4,-1.791 4,-4 V 9 C 2,8.448 1.553,8 1,8 H 0 C -1.104,8 -2,7.104 -2,6 V 2 C -2,0.896 -1.104,0 0,0 m 2,-184 v -1.104 c 0,-1.871 -0.656,-3.683 -1.854,-5.121 l -16.947,-20.336 c -0.76,-0.912 -1.886,-1.439 -3.072,-1.439 L -146,-212 c -2.209,0 -4,1.791 -4,4 h 126.126 c 1.187,0 2.313,0.527 3.073,1.439 l 16.947,20.336 c 1.198,1.438 1.854,3.25 1.854,5.121 v 0.004 c 0,0.608 0.492,1.1 1.1,1.1 H 2 Z M 6,9 v 7 c 0,4.411 -3.589,8 -8,8 h -16.027 -1.208 l -1.006,-0.668 C -23.381,21.246 -28.524,20 -34,20 c -5.476,0 -10.619,1.246 -13.759,3.332 L -48.765,24 H -49.973 -146 c -4.411,0 -8,-3.589 -8,-8 V 9 c 0,-2.415 1.721,-4.435 4,-4.899 V 3.899 c -2.279,-0.464 -4,-2.484 -4,-4.899 v -6 c 0,-2.415 1.721,-4.435 4,-4.899 v -0.202 c -2.279,-0.464 -4,-2.484 -4,-4.899 v -189 -2 c 0,-4.411 3.589,-8 8,-8 h 126.127 c 2.381,0 4.621,1.049 6.145,2.879 l 16.947,20.335 c 1.794,2.152 2.781,4.881 2.781,7.682 L 6,-184 v 167 c 0,2.415 -1.721,4.435 -4,4.899 v 0.202 c 2.279,0.464 4,2.484 4,4.899 v 6 C 6,1.415 4.279,3.435 2,3.899 V 4.101 C 4.279,4.565 6,6.585 6,9" /></g><g
           transform="translate(176,96)"
           id="g24"><path
             id="path26"
             style="fill:#ffffff;fill-opacity:1;fill-rule:nonzero;stroke:none"
             d="M 0,0 H -12 V -12 H -24 V 0 h -12 v 12 h 12 v 12 h 12 V 12 H 0 Z m -20,-24 h -72 c -2.209,0 -4,1.791 -4,4 0,2.209 1.791,4 4,4 h 72 c 2.209,0 4,-1.791 4,-4 0,-2.209 -1.791,-4 -4,-4 m -16,20 h 8 v -8 h -26.11 l 1.199,1.439 L -40,4.938 V 0 -4 Z m 8,23.345 V 16 h -2.786 z M -96,40 h 24 v 48 c 0,4.418 3.582,8 8,8 h 16 c 4.418,0 8,-3.582 8,-8 V 40 h 24 L -55.984,-8 Z M -8,16 v 8 4 h -4 -8.79 l 7.863,9.44 5.465,6.56 H -16 -36 v 44 c 0,6.617 -5.383,12 -12,12 h -16 c -6.617,0 -12,-5.383 -12,-12 V 44 h -20 -8.542 l 5.47,-6.562 40.015,-48 1.2,-1.438 H -92 c -4.411,0 -8,-3.589 -8,-8 0,-4.411 3.589,-8 8,-8 h 72 c 4.411,0 8,3.589 8,8 0,1.456 -0.391,2.822 -1.073,4 H -12 -8 v 4 8 h 8 4 v 4 12 4 H 0 Z" /></g></g></g></g></svg>