<?xml version="1.0" encoding="UTF-8" standalone="no"?>
<svg
   xmlns:dc="http://purl.org/dc/elements/1.1/"
   xmlns:cc="http://creativecommons.org/ns#"
   xmlns:rdf="http://www.w3.org/1999/02/22-rdf-syntax-ns#"
   xmlns:svg="http://www.w3.org/2000/svg"
   xmlns="http://www.w3.org/2000/svg"
   viewBox="0 0 314.55093 144.01333"
   height="144.01334"
   width="314.55093"
   xml:space="preserve"
   id="svg2"
   version="1.1"><metadata
     id="metadata8"><rdf:RDF><cc:Work
         rdf:about=""><dc:format>image/svg+xml</dc:format><dc:type
           rdf:resource="http://purl.org/dc/dcmitype/StillImage" /></cc:Work></rdf:RDF></metadata><defs
     id="defs6"><clipPath
       id="clipPath18"
       clipPathUnits="userSpaceOnUse"><path
         id="path16"
         d="M 0,256 H 256 V 0 H 0 Z" /></clipPath></defs><g
     transform="matrix(1.3333333,0,0,-1.3333333,-13.391538,245.33986)"
     id="g10"><g
       id="g12"><g
         clip-path="url(#clipPath18)"
         id="g14"><g
           transform="translate(48,161.3335)"
           id="g20"><path
             id="path22"
             style="fill:#ffffff;fill-opacity:1;fill-rule:nonzero;stroke:none"
             d="M 0,0 C 0.736,0 1.333,0.597 1.333,1.333 1.333,2.07 0.736,2.667 0,2.667 -0.736,2.667 -1.333,2.07 -1.333,1.333 -1.333,0.597 -0.736,0 0,0" /></g><g
           transform="translate(50.6665,158.6665)"
           id="g24"><path
             id="path26"
             style="fill:#ffffff;fill-opacity:1;fill-rule:nonzero;stroke:none"
             d="M 0,0 C 0.737,0 1.333,0.597 1.333,1.333 1.333,2.07 0.737,2.667 0,2.667 -0.736,2.667 -1.333,2.07 -1.333,1.333 -1.333,0.597 -0.736,0 0,0" /></g><g
           transform="translate(45.3335,158.6665)"
           id="g28"><path
             id="path30"
             style="fill:#ffffff;fill-opacity:1;fill-rule:nonzero;stroke:none"
             d="M 0,0 C 0.736,0 1.333,0.597 1.333,1.333 1.333,2.07 0.736,2.667 0,2.667 -0.737,2.667 -1.333,2.07 -1.333,1.333 -1.333,0.597 -0.737,0 0,0" /></g><g
           transform="translate(48,158.6665)"
           id="g32"><path
             id="path34"
             style="fill:#ffffff;fill-opacity:1;fill-rule:nonzero;stroke:none"
             d="m 0,0 c -0.736,0 -1.333,-0.597 -1.333,-1.333 0,-0.736 0.597,-1.334 1.333,-1.334 0.736,0 1.333,0.598 1.333,1.334 C 1.333,-0.597 0.736,0 0,0" /></g><g
           transform="translate(36.0005,96.0049)"
           id="g36"><path
             id="path38"
             style="fill:#ffffff;fill-opacity:1;fill-rule:nonzero;stroke:none"
             d="m 0,0 c -4.419,0 -8,3.582 -8,8 0,4.418 3.581,8 8,8 C 4.418,16 8,12.418 8,8 8,3.582 4.418,0 0,0 M 12,8 C 12,14.617 6.617,20 0,20 -6.617,20 -12,14.617 -12,8 -12,1.383 -6.617,-4 0,-4 6.617,-4 12,1.383 12,8" /></g><g
           transform="translate(50.416,130.5947)"
           id="g40"><path
             id="path42"
             style="fill:#ffffff;fill-opacity:1;fill-rule:nonzero;stroke:none"
             d="m 0,0 v -0.189 h -6.019 l -2.958,3.061 c -2.058,2.061 0,3.907 0,3.907 l 2.958,3.063 H 0 V 9.76 C 0.897,9.364 1.584,7.337 1.584,4.88 1.584,2.421 0.897,0.396 0,0 m -9.4,-9.006 h -0.084 c -0.395,-0.897 -2.422,-1.584 -4.88,-1.584 -2.459,0 -4.485,0.687 -4.88,1.584 h -0.189 v 6.02 l 3.062,2.956 c 0.687,0.687 1.35,0.915 1.929,0.915 1.157,0 1.979,-0.915 1.979,-0.915 L -9.4,-2.986 Z m -13.413,8.817 h -6.019 V 0 c -0.898,0.396 -1.584,2.421 -1.584,4.88 0,2.457 0.686,4.484 1.584,4.88 v 0.082 h 6.019 l 2.956,-3.063 c 0,0 2.059,-1.846 0,-3.907 z m 8.925,5.034 c -0.183,0.016 -0.362,0.04 -0.554,0.04 -0.158,0 -0.327,-0.007 -0.503,-0.021 -10e-4,0.034 0.002,0.073 10e-4,0.106 -0.01,0.352 -0.055,0.682 -0.116,1 0.217,-0.021 0.427,-0.035 0.618,-0.035 0.233,0 0.452,0.025 0.671,0.049 -0.062,-0.322 -0.108,-0.657 -0.118,-1.014 -0.001,-0.039 0.002,-0.084 10e-4,-0.125 m -5.545,14.981 h 0.189 c 0.395,0.898 2.421,1.584 4.88,1.584 2.458,0 4.485,-0.686 4.88,-1.584 H -9.4 v -6.02 l -3.063,-2.956 c 0,0 -0.822,-0.915 -1.979,-0.915 -0.579,0 -1.242,0.229 -1.929,0.915 l -3.062,2.956 z M 0,13.842 h -5.4 v 5.984 c 0,1.11 -0.452,2.113 -1.181,2.838 -2.034,2.452 -6.002,2.746 -7.783,2.746 -1.677,0 -5.293,-0.261 -7.408,-2.338 -1.006,-0.727 -1.661,-1.91 -1.661,-3.246 v -5.984 h -5.399 c -1.105,0 -2.105,-0.447 -2.829,-1.172 -2.46,-2.031 -2.755,-6.007 -2.755,-7.79 0,-1.677 0.261,-5.295 2.339,-7.409 0.727,-1.006 1.91,-1.66 3.245,-1.66 h 5.399 v -4.817 c 0,-1.336 0.655,-2.519 1.661,-3.245 2.115,-2.078 5.731,-2.339 7.408,-2.339 1.781,0 5.749,0.294 7.783,2.746 0.729,0.725 1.181,1.729 1.181,2.838 v 4.817 H 0 c 1.336,0 2.519,0.655 3.245,1.661 2.078,2.114 2.339,5.731 2.339,7.408 0,1.782 -0.295,5.757 -2.754,7.789 C 2.106,13.394 1.105,13.842 0,13.842" /></g><g
           transform="translate(188,164.0049)"
           id="g44"><path
             id="path46"
             style="fill:#ffffff;fill-opacity:1;fill-rule:nonzero;stroke:none"
             d="M 0,0 V -0.01 -60 -60.01 H -120 V -60 -0.01 0 Z M -124,-64 H 4 V 4 h -128 z" /></g><g
           transform="translate(228,88.0049)"
           id="g48"><path
             id="path50"
             style="fill:#ffffff;fill-opacity:1;fill-rule:nonzero;stroke:none"
             d="m 0,0 h -16 c -1.898,0 -3.778,-0.777 -5.467,-1.847 1.483,1.705 1.886,4.053 0.99,6.138 -0.965,2.25 -3.221,3.704 -5.746,3.704 H -28 v 28.846 c 1.227,-0.538 2.578,-0.841 4,-0.841 2.286,0 4.39,0.779 6.075,2.075 C -19.221,36.39 -20,34.286 -20,32 c 0,-5.514 4.486,-10 10,-10 5.514,0 10,4.486 10,10 0,2.286 -0.779,4.39 -2.075,6.075 C -0.39,36.779 1.714,36 4,36 c 5.095,0 9.304,3.832 9.915,8.764 C 15.081,18.29 0,0 0,0 m -188,-8 h -1.679 c -1.839,0 -4.419,2 -6.54,4 H -184 c 2.091,0 4.749,-2.061 6.688,-4 z m 158,54 c 0,3.314 2.686,6 6,6 3.314,0 6,-2.686 6,-6 0,-3.313 -2.686,-6 -6,-6 -3.314,0 -6,2.687 -6,6 m -1.98,6 C -33.242,50.326 -34,48.252 -34,46 c 0,-2.252 0.758,-4.326 2.02,-6 H -32 V 8 H -168 V 84 H -32 V 52 Z M -24.602,0.631 -32,-6.783 c -0.816,-0.788 -1.913,-1.222 -3.087,-1.222 H -38 c 3.309,0 6,2.692 6,6 0,3.309 -2.691,6 -6,6 h 11.777 c 0.924,0 1.737,-0.503 2.071,-1.282 0.308,-0.719 0.136,-1.517 -0.45,-2.082 M -142,3.995 h 16 52 c -3.309,0 -6,-2.691 -6,-6 0,-3.308 2.691,-6 6,-6 h -52 -16 -22.913 c -1.174,0 -2.27,0.434 -3.087,1.222 l -7.398,7.414 c -0.586,0.565 -0.759,1.363 -0.45,2.082 0.334,0.779 1.147,1.282 2.071,1.282 z m 68,-8 c -1.1,0 -2,0.901 -2,2 0,1.1 0.9,2 2,2 h 12 c 1.1,0 2,-0.9 2,-2 0,-1.099 -0.9,-2 -2,-2 z m 18,2 c 0,-3.308 2.691,-6 6,-6 h -12 c 3.309,0 6,2.692 6,6 0,3.309 -2.691,6 -6,6 h 12 c -3.309,0 -6,-2.691 -6,-6 m 18,2 c 1.1,0 2,-0.9 2,-2 0,-1.099 -0.9,-2 -2,-2 h -12 c -1.1,0 -2,0.901 -2,2 0,1.1 0.9,2 2,2 z M -16,60 c 0,3.314 2.686,6 6,6 3.314,0 6,-2.686 6,-6 0,-3.314 -2.686,-6 -6,-6 -3.314,0 -6,2.686 -6,6 M -4,32 c 0,-3.313 -2.686,-6 -6,-6 -3.314,0 -6,2.687 -6,6 0,3.313 2.686,6 6,6 3.314,0 6,-2.687 6,-6 m 0.075,7.924 C -5.61,41.221 -7.714,42 -10,42 c -2.286,0 -4.39,-0.779 -6.075,-2.076 1.296,1.687 2.075,3.79 2.075,6.076 0,2.286 -0.779,4.389 -2.075,6.076 C -14.39,50.78 -12.286,50 -10,50 c 2.286,0 4.39,0.78 6.075,2.076 C -5.221,50.389 -6,48.286 -6,46 c 0,-2.286 0.779,-4.389 2.075,-6.076 M 10,46 c 0,-3.313 -2.686,-6 -6,-6 -3.314,0 -6,2.687 -6,6 0,3.314 2.686,6 6,6 3.314,0 6,-2.686 6,-6 M -200,0 c 0,0 -31.466,38.143 0,84 h 16 c 0,0 5.414,1.414 12,8 h 144 c 6.586,-6.586 12,-8 12,-8 H 0 C 8.621,71.437 12.512,59.455 13.626,48.675 12.452,52.893 8.587,56 4,56 1.714,56 -0.39,55.221 -2.075,53.924 -0.779,55.611 0,57.714 0,60 c 0,5.514 -4.486,10 -10,10 -5.514,0 -10,-4.486 -10,-10 0,-2.286 0.779,-4.389 2.075,-6.076 C -19.61,55.221 -21.714,56 -24,56 c -1.422,0 -2.773,-0.303 -4,-0.841 v 20.8 L -27.716,76 H -28 v 8 4 h -4 -136 -4 V 84 47.47 8 7.995 h -1.777 c -2.525,0 -4.78,-1.454 -5.746,-3.704 -0.895,-2.084 -0.493,-4.431 0.988,-6.136 C -180.223,-0.776 -182.102,0 -184,0 Z m 10.321,92 h 1.679 10.016 c -3.196,-2.554 -5.71,-3.646 -6.659,-4 h -11.576 c 2.121,2 4.701,4 6.54,4 M -12,92 h 1.679 c 1.839,0 4.419,-2 6.54,-4 h -11.582 c -0.917,0.342 -3.438,1.431 -6.653,4 z M 4.805,84 3.194,86.414 1.835,88 c -3.107,3.492 -7.937,8 -12.156,8 H -12 -26.343 -28 -172 -173.657 -188 h -1.679 c -1.946,0 -6.028,-1.081 -12.159,-8 L -203.194,86.414 -204.805,84 C -220.342,59.959 -219.354,38.093 -215.673,23.806 -212.715,12.323 -207.682,3.955 -204.959,0 l 1.882,-2.556 c 0,-10e-4 0.001,-10e-4 0.002,-0.002 L -201.838,-4 c 6.131,-6.919 10.213,-8 12.159,-8 h 1.679 13.972 l 0.007,-0.01 h 2.021 144 2.021 l 1.2,1.627 C -23.234,-8.305 -19.049,-4 -16,-4 H 0 1.886 l 1.2,1.455 C 3.43,-2.128 11.565,7.86 15.674,23.806 19.354,38.093 20.343,59.959 4.805,84" /></g><g
           transform="translate(86,88)"
           id="g52"><path
             id="path54"
             style="fill:#ffffff;fill-opacity:1;fill-rule:nonzero;stroke:none"
             d="m 0,0 c 1.104,0 2,-0.896 2,-2 0,-1.104 -0.896,-2 -2,-2 -1.104,0 -2,0.896 -2,2 0,1.104 0.896,2 2,2 m -6,-2 c 0,-3.309 2.691,-6 6,-6 3.309,0 6,2.691 6,6 C 6,1.309 3.309,4 0,4 -3.309,4 -6,1.309 -6,-2" /></g><g
           transform="translate(102,88)"
           id="g56"><path
             id="path58"
             style="fill:#ffffff;fill-opacity:1;fill-rule:nonzero;stroke:none"
             d="m 0,0 c 1.104,0 2,-0.896 2,-2 0,-1.104 -0.896,-2 -2,-2 -1.104,0 -2,0.896 -2,2 0,1.104 0.896,2 2,2 m -6,-2 c 0,-3.309 2.691,-6 6,-6 3.309,0 6,2.691 6,6 C 6,1.309 3.309,4 0,4 -3.309,4 -6,1.309 -6,-2" /></g></g></g></g></svg>