<?xml version="1.0" encoding="UTF-8" standalone="no"?>
<svg
   xmlns:dc="http://purl.org/dc/elements/1.1/"
   xmlns:cc="http://creativecommons.org/ns#"
   xmlns:rdf="http://www.w3.org/1999/02/22-rdf-syntax-ns#"
   xmlns:svg="http://www.w3.org/2000/svg"
   xmlns="http://www.w3.org/2000/svg"
   viewBox="0 0 320 321.33331"
   height="321.33331"
   width="320"
   xml:space="preserve"
   id="svg2"
   version="1.1"><metadata
     id="metadata8"><rdf:RDF><cc:Work
         rdf:about=""><dc:format>image/svg+xml</dc:format><dc:type
           rdf:resource="http://purl.org/dc/dcmitype/StillImage" /></cc:Work></rdf:RDF></metadata><defs
     id="defs6"><clipPath
       id="clipPath18"
       clipPathUnits="userSpaceOnUse"><path
         id="path16"
         d="M 0,256 H 256 V 0 H 0 Z" /></clipPath></defs><g
     transform="matrix(1.3333333,0,0,-1.3333333,-10.667066,330.66666)"
     id="g10"><g
       id="g12"><g
         clip-path="url(#clipPath18)"
         id="g14"><g
           transform="translate(239.9043,15.123)"
           id="g20"><path
             id="path22"
             style="fill:#ffffff;fill-opacity:1;fill-rule:nonzero;stroke:none"
             d="m 0,0 -12.397,15.497 c -3.244,4.055 -8.082,6.38 -13.275,6.38 h -172.465 c -5.192,0 -10.031,-2.325 -13.275,-6.38 L -223.809,0 l -2.067,-2.584 c -1.206,0.689 -2.028,1.973 -2.028,3.461 v 224 c 0,2.209 1.791,4 4,4 h 204 4 v -116 c 0,-0.002 10e-4,-16 20,-16 v -96 c 0,-1.488 -0.823,-2.772 -2.029,-3.461 z m -219.904,-3.123 12.397,15.496 c 2.277,2.847 5.725,4.504 9.37,4.504 h 172.465 c 3.646,0 7.094,-1.657 9.37,-4.504 L -3.904,-3.123 Z m 208,222 c 0,3.313 2.686,6 6,6 3.313,0 6,-2.687 6,-6 0,-3.314 -2.687,-6 -6,-6 -3.314,0 -6,2.686 -6,6 m 0,-52 c 0,3.313 2.686,6 6,6 3.313,0 6,-2.687 6,-6 0,-3.314 -2.687,-6 -6,-6 -3.314,0 -6,2.686 -6,6 m 0,-7.981 c 1.674,-1.261 3.747,-2.019 6,-2.019 5.513,0 10,4.486 10,10 0,5.514 -4.487,10 -10,10 -2.253,0 -4.326,-0.758 -6,-2.019 v 36.038 c 1.674,-1.261 3.747,-2.019 6,-2.019 5.513,0 10,4.486 10,10 0,5.514 -4.487,10 -10,10 -2.253,0 -4.326,-0.758 -6,-2.019 v 2.019 h 6 6 c 2.209,0 4,-1.791 4,-4 v -6 -52 -66 c -6.678,0 -11.37,1.974 -13.946,5.866 -1.974,2.986 -2.054,6.137 -2.054,6.169 z m 12,73.981 h -12 -4 -4 -204 c -4.411,0 -8,-3.589 -8,-8 v -224 c 0,-2.746 1.391,-5.173 3.506,-6.613 l -1.91,-2.387 h 10.404 216 10.403 L 4.59,-5.736 c 2.114,1.44 3.506,3.867 3.506,6.613 v 96 4 124 c 0,4.411 -3.589,8 -8,8" /></g></g></g></g></svg>