<?xml version="1.0" encoding="UTF-8" standalone="no"?>
<svg
   xmlns:dc="http://purl.org/dc/elements/1.1/"
   xmlns:cc="http://creativecommons.org/ns#"
   xmlns:rdf="http://www.w3.org/1999/02/22-rdf-syntax-ns#"
   xmlns:svg="http://www.w3.org/2000/svg"
   xmlns="http://www.w3.org/2000/svg"
   viewBox="0 0 303.40182 245.33333"
   height="245.33333"
   width="303.40182"
   xml:space="preserve"
   id="svg2"
   version="1.1"><metadata
     id="metadata8"><rdf:RDF><cc:Work
         rdf:about=""><dc:format>image/svg+xml</dc:format><dc:type
           rdf:resource="http://purl.org/dc/dcmitype/StillImage" /></cc:Work></rdf:RDF></metadata><defs
     id="defs6"><clipPath
       id="clipPath18"
       clipPathUnits="userSpaceOnUse"><path
         id="path16"
         d="M 0,256 H 256 V 0 H 0 Z" /></clipPath></defs><g
     transform="matrix(1.3333333,0,0,-1.3333333,-19.281872,293.33333)"
     id="g10"><g
       id="g12"><g
         clip-path="url(#clipPath18)"
         id="g14"><g
           transform="translate(216,40)"
           id="g20"><path
             id="path22"
             style="fill:#ffffff;fill-opacity:1;fill-rule:nonzero;stroke:none"
             d="M 0,0 H -174.014 -176 l -1.519,2.024 c -0.017,-0.019 -0.036,-0.036 -0.054,-0.054 -13.856,17.747 -18.78,35.385 -19.767,50.03 h 3.34 c 1.1,0 2,0.9 2,2 0,1.1 -0.9,2 -2,2 h -3.516 c -0.303,14.313 2.989,25.242 4.626,29.745 C -185.813,70.561 -176,64 -176,64 H 0 C 0,64 9.267,71.729 16.283,87.176 20.269,75.75 21.924,65.335 22.036,55.996 22.024,55.996 22.013,56 22,56 h -4 c -1.1,0 -2,-0.9 -2,-2 0,-1.1 0.9,-2 2,-2 h 3.991 C 20.812,18.509 0,0 0,0 m -182,0 c -3.309,0 -6,2.691 -6,6 0,1.038 0.278,2.007 0.745,2.858 1.811,-2.916 3.838,-5.851 6.101,-8.791 C -181.431,0.027 -181.712,0 -182,0 m -12.361,102.984 c 1.319,0.644 2.794,1.016 4.361,1.016 5.523,0 10,-4.477 10,-10 0,-4.73 -3.293,-8.669 -7.707,-9.706 -3.064,5.704 -5.287,11.948 -6.654,18.69 m 9.608,59.652 c 4.191,7.06 8.431,11.545 10.311,13.364 H -1.331 C 0.472,174.562 4.713,170.814 8.902,164.433 16.267,153.217 20,139.613 20,124 20,104.422 13.884,90.008 8.753,81.364 4.562,74.305 0.321,69.819 -1.558,68 h -173.11 c -1.804,1.438 -6.045,5.186 -10.234,11.567 -0.25,0.381 -0.486,0.772 -0.728,1.159 5.607,1.846 9.63,7.128 9.63,13.274 0,7.72 -6.28,14 -14,14 -1.746,0 -3.458,-0.329 -5.066,-0.955 -0.615,4.148 -0.934,8.466 -0.934,12.955 0,19.578 6.116,33.992 11.247,42.636 M 19.767,89.345 18.819,92 H 18.292 C 21.586,100.66 24,111.322 24,124 24,164 0,180 0,180 h -176 c 0,0 -24,-20 -24,-60 0,-11.668 2.048,-21.28 4.941,-29.062 l -0.583,-1.283 c -0.217,-0.479 -5.338,-11.927 -5.856,-29.034 -0.375,-12.368 1.711,-29.674 12.027,-48.015 C -191.034,10.844 -192,8.542 -192,6 c 0,-5.522 4.477,-10 10,-10 H 0 1.521 l 1.136,1.011 c 0.395,0.35 9.739,8.766 16.513,24.398 6.217,14.348 11.367,37.779 0.597,67.936" /></g><path
           id="path24"
           style="fill:#ffffff;fill-opacity:1;fill-rule:nonzero;stroke:none"
           d="M 204,116 H 52 v 4 H 204 Z M 52,208 H 204 V 124 H 52 Z m 156,-88 v 4 84 4 H 204 52 48 v -4 -84 -4 -8 h 160 z" /><g
           transform="translate(34,184)"
           id="g26"><path
             id="path28"
             style="fill:#ffffff;fill-opacity:1;fill-rule:nonzero;stroke:none"
             d="M 0,0 C 1.104,0 2,0.896 2,2 2,3.104 1.104,4 0,4 -1.104,4 -2,3.104 -2,2 -2,0.896 -1.104,0 0,0" /></g><g
           transform="translate(38,180)"
           id="g30"><path
             id="path32"
             style="fill:#ffffff;fill-opacity:1;fill-rule:nonzero;stroke:none"
             d="M 0,0 C 1.104,0 2,0.896 2,2 2,3.104 1.104,4 0,4 -1.104,4 -2,3.104 -2,2 -2,0.896 -1.104,0 0,0" /></g><g
           transform="translate(30,180)"
           id="g34"><path
             id="path36"
             style="fill:#ffffff;fill-opacity:1;fill-rule:nonzero;stroke:none"
             d="M 0,0 C 1.104,0 2,0.896 2,2 2,3.104 1.104,4 0,4 -1.104,4 -2,3.104 -2,2 -2,0.896 -1.104,0 0,0" /></g><g
           transform="translate(34,180)"
           id="g38"><path
             id="path40"
             style="fill:#ffffff;fill-opacity:1;fill-rule:nonzero;stroke:none"
             d="m 0,0 c -1.104,0 -2,-0.896 -2,-2 0,-1.104 0.896,-2 2,-2 1.104,0 2,0.896 2,2 0,1.104 -0.896,2 -2,2" /></g><g
           transform="translate(30,192)"
           id="g42"><path
             id="path44"
             style="fill:#ffffff;fill-opacity:1;fill-rule:nonzero;stroke:none"
             d="M 0,0 H 4 C 5.1,0 6,0.9 6,2 6,3.1 5.1,4 4,4 H 0 C -1.1,4 -2,3.1 -2,2 -2,0.9 -1.1,0 0,0" /></g><g
           transform="translate(222,184)"
           id="g46"><path
             id="path48"
             style="fill:#ffffff;fill-opacity:1;fill-rule:nonzero;stroke:none"
             d="M 0,0 C 1.104,0 2,0.896 2,2 2,3.104 1.104,4 0,4 -1.104,4 -2,3.104 -2,2 -2,0.896 -1.104,0 0,0" /></g><g
           transform="translate(218,180)"
           id="g50"><path
             id="path52"
             style="fill:#ffffff;fill-opacity:1;fill-rule:nonzero;stroke:none"
             d="M 0,0 C 1.104,0 2,0.896 2,2 2,3.104 1.104,4 0,4 -1.104,4 -2,3.104 -2,2 -2,0.896 -1.104,0 0,0" /></g><g
           transform="translate(226,184)"
           id="g54"><path
             id="path56"
             style="fill:#ffffff;fill-opacity:1;fill-rule:nonzero;stroke:none"
             d="m 0,0 c -1.104,0 -2,-0.896 -2,-2 0,-1.104 0.896,-2 2,-2 1.104,0 2,0.896 2,2 0,1.104 -0.896,2 -2,2" /></g><g
           transform="translate(222,180)"
           id="g58"><path
             id="path60"
             style="fill:#ffffff;fill-opacity:1;fill-rule:nonzero;stroke:none"
             d="m 0,0 c -1.104,0 -2,-0.896 -2,-2 0,-1.104 0.896,-2 2,-2 1.104,0 2,0.896 2,2 0,1.104 -0.896,2 -2,2" /></g><g
           transform="translate(222,192)"
           id="g62"><path
             id="path64"
             style="fill:#ffffff;fill-opacity:1;fill-rule:nonzero;stroke:none"
             d="M 0,0 H 4 C 5.1,0 6,0.9 6,2 6,3.1 5.1,4 4,4 H 0 C -1.1,4 -2,3.1 -2,2 -2,0.9 -1.1,0 0,0" /></g><g
           transform="translate(74.6294,48.7324)"
           id="g66"><path
             id="path68"
             style="fill:#ffffff;fill-opacity:1;fill-rule:nonzero;stroke:none"
             d="M 0,0 C 0.164,0.437 0.27,0.903 0.27,1.398 V 9.591 C 0.484,9.556 0.7,9.525 0.92,9.525 h 8.279 c 0.304,0 0.599,0.039 0.884,0.104 C 7.762,5.5 4.244,2.134 0,0 m -31.341,9.629 c 0.285,-0.065 0.579,-0.104 0.883,-0.104 h 8.279 c 0.22,0 0.435,0.031 0.649,0.066 V 1.398 c 0,-0.489 0.092,-0.955 0.252,-1.387 -4.234,2.134 -7.745,5.496 -10.063,9.618 m 10.063,32.814 c -0.16,-0.433 -0.252,-0.899 -0.252,-1.388 v -8.281 c 0,-0.552 0.117,-1.091 0.332,-1.588 -0.319,0.081 -0.646,0.136 -0.981,0.136 h -8.279 c -0.685,0 -1.319,-0.187 -1.882,-0.491 2.234,5.03 6.164,9.144 11.062,11.612 M -3.147,17.735 c -2.832,2.834 0,5.375 0,5.375 l 4.067,4.212 h 8.279 v -0.113 c 1.234,-0.544 2.178,-3.332 2.178,-6.712 0,-3.381 -0.944,-6.168 -2.178,-6.712 v -0.26 H 0.92 Z m -14.383,-8.056 4.213,4.065 c 0.943,0.944 1.855,1.259 2.651,1.259 1.593,0 2.723,-1.259 2.723,-1.259 L -3.73,9.679 V 1.398 H -3.846 C -4.39,0.164 -7.177,-0.78 -10.558,-0.78 c -3.381,0 -6.168,0.944 -6.712,2.178 h -0.26 z m 10.273,14.632 c -0.575,-0.938 -1.105,-2.196 -1.147,-3.731 -0.015,-0.582 0.047,-1.283 0.254,-2.047 -0.736,0.274 -1.571,0.47 -2.515,0.47 -0.678,0 -1.52,-0.104 -2.436,-0.438 0.2,0.751 0.26,1.441 0.244,2.015 -0.041,1.518 -0.56,2.766 -1.126,3.699 1.254,-0.649 2.427,-0.829 3.317,-0.829 1.353,0 2.496,0.387 3.409,0.861 m 3.527,8.463 -4.213,-4.065 c 0,0 -1.13,-1.259 -2.723,-1.259 -0.796,0 -1.708,0.315 -2.651,1.259 l -4.213,4.065 v 8.281 h 0.26 c 0.544,1.234 3.331,2.178 6.712,2.178 3.381,0 6.168,-0.944 6.712,-2.178 H -3.73 Z M -32.636,20.497 c 0,3.38 0.943,6.168 2.178,6.712 v 0.113 h 8.279 l 4.066,-4.212 c 0,0 2.832,-2.541 0,-5.375 l -4.066,-4.21 h -8.279 v 0.26 c -1.235,0.544 -2.178,3.331 -2.178,6.712 m 43.718,10.334 c -0.563,0.303 -1.198,0.491 -1.883,0.491 H 0.92 c -0.336,0 -0.663,-0.055 -0.983,-0.137 0.215,0.497 0.333,1.037 0.333,1.589 v 8.281 C 0.27,41.55 0.164,42.016 0,42.453 4.908,39.986 8.845,35.868 11.082,30.831 m -21.711,18.27 c -15.37,0 -27.874,-12.504 -27.874,-27.874 0,-15.37 12.504,-27.873 27.874,-27.873 15.369,0 27.873,12.503 27.873,27.873 0,15.37 -12.504,27.874 -27.873,27.874" /></g><g
           transform="translate(200.1699,47.6602)"
           id="g70"><path
             id="path72"
             style="fill:#ffffff;fill-opacity:1;fill-rule:nonzero;stroke:none"
             d="m 0,0 c 1.753,1.949 2.83,4.518 2.83,7.34 0,1.458 -0.291,2.848 -0.809,4.122 1.456,-0.712 3.083,-1.122 4.809,-1.122 2.512,0 4.822,0.855 6.677,2.278 C 10.898,6.8 6.021,2.212 0,0 m -29.846,12.618 c 1.854,-1.423 4.164,-2.278 6.676,-2.278 1.726,0 3.354,0.41 4.809,1.122 -0.518,-1.274 -0.809,-2.664 -0.809,-4.122 0,-2.821 1.077,-5.391 2.83,-7.34 -6.019,2.213 -10.897,6.8 -13.506,12.618 m 13.39,31.934 c -1.685,-1.933 -2.714,-4.452 -2.714,-7.212 0,-2.903 1.139,-5.539 2.983,-7.507 -1.901,1.565 -4.334,2.507 -6.983,2.507 -3.014,0 -5.747,-1.22 -7.736,-3.191 2.146,7.11 7.54,12.822 14.45,15.403 M -0.17,21.34 c 0,3.866 3.134,7 7,7 3.866,0 7,-3.134 7,-7 0,-3.866 -3.134,-7 -7,-7 -3.866,0 -7,3.134 -7,7 m -23,-7 c -3.866,0 -7,3.134 -7,7 0,3.866 3.134,7 7,7 3.866,0 7,-3.134 7,-7 0,-3.866 -3.134,-7 -7,-7 m 8,23 c 0,3.866 3.134,7 7,7 3.866,0 7,-3.134 7,-7 0,-3.866 -3.134,-7 -7,-7 -3.866,0 -7,3.134 -7,7 m 7,-19 c -1.726,0 -3.353,-0.41 -4.809,-1.122 0.518,1.274 0.809,2.664 0.809,4.122 0,2.903 -1.139,5.539 -2.982,7.507 1.9,-1.566 4.334,-2.507 6.982,-2.507 2.649,0 5.082,0.941 6.983,2.507 -1.844,-1.968 -2.983,-4.604 -2.983,-7.507 0,-1.458 0.291,-2.848 0.809,-4.122 -1.455,0.712 -3.083,1.122 -4.809,1.122 m 0,-4 c 3.866,0 7,-3.134 7,-7 0,-3.866 -3.134,-7 -7,-7 -3.866,0 -7,3.134 -7,7 0,3.866 3.134,7 7,7 m 22.736,14.809 c -1.989,1.97 -4.722,3.191 -7.736,3.191 -2.648,0 -5.082,-0.942 -6.982,-2.507 1.843,1.968 2.982,4.604 2.982,7.507 0,2.76 -1.029,5.279 -2.715,7.213 C 7.026,41.972 12.42,36.259 14.566,29.149 M -8.17,50.173 c -15.369,0 -27.874,-12.504 -27.874,-27.874 0,-15.369 12.505,-27.873 27.874,-27.873 15.369,0 27.874,12.504 27.874,27.873 0,15.37 -12.505,27.874 -27.874,27.874" /></g><g
           transform="translate(108,52)"
           id="g74"><path
             id="path76"
             style="fill:#ffffff;fill-opacity:1;fill-rule:nonzero;stroke:none"
             d="m 0,0 c -4.418,0 -8,3.582 -8,8 0,4.418 3.582,8 8,8 C 4.418,16 8,12.418 8,8 8,3.582 4.418,0 0,0 M 0,20 C -6.617,20 -12,14.617 -12,8 -12,1.383 -6.617,-4 0,-4 6.617,-4 12,1.383 12,8 12,14.617 6.617,20 0,20" /></g><g
           transform="translate(130,48)"
           id="g78"><path
             id="path80"
             style="fill:#ffffff;fill-opacity:1;fill-rule:nonzero;stroke:none"
             d="m 0,0 h -4 c -1.1,0 -2,-0.9 -2,-2 0,-1.1 0.9,-2 2,-2 h 4 c 1.1,0 2,0.9 2,2 0,1.1 -0.9,2 -2,2" /></g><g
           transform="translate(140.2617,62)"
           id="g82"><path
             id="path84"
             style="fill:#ffffff;fill-opacity:1;fill-rule:nonzero;stroke:none"
             d="m 0,0 c 0.89,3.448 4.012,6 7.738,6 3.727,0 6.849,-2.552 7.739,-6 z M 7.738,-10 C 4.012,-10 0.89,-7.448 0,-4 h 15.477 c -0.89,-3.448 -4.012,-6 -7.739,-6 m 0,20 C 2.269,10 -2.506,6.299 -3.873,0.999 -4.13,0.339 -4.262,-0.363 -4.262,-1.072 v -1.856 c 0,-0.709 0.132,-1.411 0.389,-2.071 1.367,-5.3 6.142,-9.001 11.611,-9.001 5.47,0 10.244,3.701 11.612,9.001 0.256,0.66 0.388,1.362 0.388,2.071 v 1.856 c 0,0.709 -0.132,1.411 -0.388,2.071 C 17.982,6.299 13.208,10 7.738,10" /></g></g></g></g></svg>