<svg xmlns="http://www.w3.org/2000/svg" xml:space="preserve" width="213.333" height="320"><defs><clipPath id="a" clipPathUnits="userSpaceOnUse"><path d="M0 256h256V0H0Z"/></clipPath></defs><g clip-path="url(#a)" transform="matrix(1.33333 0 0 -1.33333 -64 330.667)"><path d="M0 0h1a1 1 0 0 0 1-1v-6a1 1 0 0 0-1-1H0a2 2 0 0 1-2-2v-4a2 2 0 0 1 2-2h1a1 1 0 0 0 1-1v-159h-6.9a1.1 1.1 0 0 1-1.1-1.1v-.004a8 8 0 0 0-1.854-5.121l-16.947-20.336A4 4 0 0 0-27.874-204H-150v187a1 1 0 0 0 1 1h1a2 2 0 0 1 2 2v4a2 2 0 0 1-2 2h-1a1 1 0 0 0-1 1v6a1 1 0 0 0 1 1h1a2 2 0 0 1 2 2v4a2 2 0 0 1-2 2h-1a1 1 0 0 0-1 1v7a4 4 0 0 0 4 4h96.027c3.65-2.425 9.436-4 15.973-4s12.323 1.575 15.973 4H-2a4 4 0 0 0 4-4V9a1 1 0 0 0-1-1H0a2 2 0 0 1-2-2V2a2 2 0 0 1 2-2m2-184v-1.104a8 8 0 0 0-1.854-5.121l-16.947-20.336A4 4 0 0 0-19.873-212H-146a4 4 0 0 0-4 4h126.126a4 4 0 0 1 3.073 1.439l16.947 20.336A8 8 0 0 1-2-181.104v.004A1.1 1.1 0 0 0-.9-180H2ZM6 9v7c0 4.411-3.589 8-8 8h-17.235l-1.006-.668C-23.381 21.246-28.524 20-34 20s-10.619 1.246-13.759 3.332l-1.006.668H-146c-4.411 0-8-3.589-8-8V9a5.01 5.01 0 0 1 4-4.899v-.202A5.01 5.01 0 0 1-154-1v-6a5.01 5.01 0 0 1 4-4.899v-.202A5.01 5.01 0 0 1-154-17v-191c0-4.411 3.589-8 8-8h126.127a7.98 7.98 0 0 1 6.145 2.879l16.947 20.335A12.02 12.02 0 0 1 6-185.104V-17a5.01 5.01 0 0 1-4 4.899v.202C4.279-11.435 6-9.415 6-7v6a5.01 5.01 0 0 1-4 4.899v.202C4.279 4.565 6 6.585 6 9" style="fill:#fff;fill-opacity:1;fill-rule:nonzero;stroke:none" transform="translate(202 224)"/><path d="M0 0c-3.309 0-6 2.691-6 6s2.691 6 6 6 6-2.691 6-6-2.691-6-6-6m0 16c-5.523 0-10-4.478-10-10S-5.523-4 0-4 10 .478 10 6 5.523 16 0 16" style="fill:#fff;fill-opacity:1;fill-rule:nonzero;stroke:none" transform="translate(78 88)"/><path d="M0 0c0 1.103.897 2 2 2s2-.897 2-2-.897-2-2-2-2 .897-2 2m8 0A6 6 0 0 1-4 0 6 6 0 0 1 8 0" style="fill:#fff;fill-opacity:1;fill-rule:nonzero;stroke:none" transform="translate(68 114)"/><path d="M0 0h-36v16.262a48.3 48.3 0 0 1 6.626 7.283l.079.109a49 49 0 0 1 1.294 1.851c.085.128.165.26.249.389q.53.808 1.026 1.641c.11.184.214.371.321.556a47 47 0 0 1 .854 1.538q.177.338.348.677a46 46 0 0 1 2.02 4.535 47 47 0 0 1 1.268 3.768q.14.468.268.941.19.719.36 1.446c.076.323.154.645.224.97.104.489.195.983.284 1.477.059.327.123.651.175.979.082.51.146 1.025.21 1.54.04.318.088.633.123.953.059.565.099 1.137.139 1.708.019.273.048.543.063.817q.067 1.273.069 2.56-.002 1.287-.069 2.559c-.015.275-.044.545-.063.818-.04.572-.08 1.143-.139 1.708-.035.32-.083.635-.123.953-.064.515-.128 1.03-.21 1.541-.052.328-.116.651-.175.978-.089.494-.18.988-.284 1.477-.07.325-.148.647-.224.969a49 49 0 0 1-.36 1.447q-.129.473-.268.941a46 46 0 0 1-2.217 6.056q-.17.385-.347.766-.35.748-.724 1.481-.171.34-.348.677a47 47 0 0 1-.854 1.538c-.107.185-.211.372-.321.556q-.496.832-1.026 1.642c-.084.128-.164.26-.249.388a49 49 0 0 1-1.294 1.851l-.079.11A48.5 48.5 0 0 1-36 87.739V104H0Zm-68 4h-28v9.05a48 48 0 0 1 6.072-3.727l.311-.159q.703-.358 1.419-.692.165-.076.331-.15a48 48 0 0 1 4.357-1.736q.383-.133.769-.261.56-.18 1.127-.346.481-.143.966-.276.518-.144 1.041-.276c.42-.105.845-.199 1.27-.294.265-.058.528-.123.795-.177a45 45 0 0 1 2.037-.365c.252-.04.507-.071.761-.108a50 50 0 0 1 2.266-.267 45 45 0 0 1 1.519-.115c.239-.015.477-.033.717-.044C-69.499 4.022-68.752 4-68 4s1.498.022 2.242.057c.24.011.479.029.717.044a45 45 0 0 1 3.785.382c.254.037.509.068.761.108q1.026.16 2.037.365c.268.054.53.119.795.177.425.095.85.189 1.27.294q.523.132 1.041.276.485.133.966.276.566.165 1.127.346.386.127.77.261a48 48 0 0 1 4.356 1.736l.331.15q.716.334 1.419.692l.311.159A48 48 0 0 1-40 13.05V4Zm-68-4v104h36V87.739a48.5 48.5 0 0 1-6.626-7.283l-.079-.11a49 49 0 0 1-1.294-1.851c-.085-.128-.165-.26-.249-.388a49 49 0 0 1-1.027-1.642q-.161-.277-.32-.556a49 49 0 0 1-.855-1.538q-.175-.337-.346-.676-.376-.735-.726-1.483-.176-.38-.346-.763a47 47 0 0 1-1.475-3.728 46 46 0 0 1-.742-2.33q-.138-.468-.268-.941a46 46 0 0 1-.359-1.447c-.077-.322-.155-.644-.225-.969a51 51 0 0 1-.284-1.477c-.059-.327-.123-.65-.175-.978-.082-.511-.146-1.026-.211-1.541-.04-.318-.087-.633-.121-.953-.06-.565-.1-1.136-.14-1.708-.019-.273-.048-.543-.062-.818A48 48 0 0 1-116 52q.001-1.287.07-2.56c.014-.274.043-.544.062-.817.04-.571.08-1.143.14-1.708.034-.32.081-.635.121-.953.065-.515.129-1.03.211-1.54.052-.328.116-.652.175-.979.09-.494.18-.988.284-1.477.07-.325.148-.647.225-.97q.168-.728.359-1.446c.085-.316.177-.628.268-.941a46 46 0 0 1 2.217-6.057q.17-.384.346-.764.35-.749.726-1.482.17-.34.346-.677.414-.777.855-1.538.159-.279.32-.556.498-.833 1.027-1.641c.084-.129.164-.261.249-.389a49 49 0 0 1 1.294-1.851l.079-.109A48.3 48.3 0 0 1-100 16.262V0Zm68 100h28v-9.05a48 48 0 0 1-6.072 3.727l-.311.159q-.703.358-1.419.692-.165.076-.331.15a48 48 0 0 1-4.356 1.736c-.257.087-.512.177-.77.261a49 49 0 0 1-2.093.621c-.346.095-.692.19-1.041.277-.42.105-.845.2-1.27.294-.265.058-.527.123-.795.177q-1.011.204-2.037.365c-.252.04-.507.072-.761.108a50 50 0 0 1-2.266.267q-.756.07-1.519.116-.357.024-.717.043c-.744.035-1.49.057-2.242.057s-1.499-.022-2.242-.057c-.24-.011-.478-.028-.717-.043a48 48 0 0 1-3.785-.383c-.254-.036-.509-.068-.761-.108a47 47 0 0 1-2.037-.365c-.267-.054-.53-.119-.795-.177-.425-.094-.85-.189-1.27-.294-.349-.087-.695-.182-1.041-.277a41 41 0 0 1-.966-.275 46 46 0 0 1-1.127-.346c-.258-.084-.513-.174-.769-.261a48 48 0 0 1-4.357-1.736q-.166-.074-.331-.15-.716-.334-1.419-.692l-.311-.159A48 48 0 0 1-96 90.95V100Zm29.33-80.76-.996-.892a43 43 0 0 0-1.507-1.213l-1.166-.841a43.9 43.9 0 0 0-13.4-6.55q-.352-.102-.703-.199a43 43 0 0 0-1.044-.272q-.494-.12-.993-.228c-.29-.065-.578-.131-.869-.19a43 43 0 0 0-1.845-.329c-.182-.028-.366-.049-.547-.075a42 42 0 0 0-1.469-.186q-.348-.038-.695-.069a45 45 0 0 0-1.42-.107q-.317-.02-.633-.037A45 45 0 0 0-68 8c-.685 0-1.365.021-2.043.052q-.316.016-.633.037-.713.042-1.419.107-.35.031-.696.069c-.492.052-.981.117-1.468.186-.182.026-.366.047-.548.075q-.93.145-1.845.329c-.291.059-.58.125-.869.19q-.499.109-.993.228a42 42 0 0 0-1.044.272q-.351.097-.703.199a43.8 43.8 0 0 0-13.4 6.55l-1.166.841q-.767.59-1.507 1.213l-.996.892C-106.653 27.597-112 39.537-112 52s5.347 24.404 14.67 32.76l.995.892q.74.623 1.508 1.213l1.166.841a43.8 43.8 0 0 0 13.4 6.55q.352.102.703.2.52.141 1.044.27.494.12.993.229c.289.065.578.131.869.19q.915.184 1.845.329c.182.028.366.049.548.075q.73.105 1.468.187.346.036.696.068.706.064 1.419.108.317.02.633.036c.678.031 1.358.052 2.043.052s1.365-.021 2.043-.052l.633-.036q.712-.044 1.42-.108.348-.032.695-.068.738-.082 1.469-.187c.181-.026.365-.047.547-.075q.93-.145 1.845-.329c.291-.059.579-.125.869-.19a41 41 0 0 0 2.037-.499q.352-.098.703-.2a43.9 43.9 0 0 0 13.4-6.55l1.166-.841a43 43 0 0 0 1.508-1.213l.995-.892C-29.347 76.404-24 64.463-24 52s-5.347-24.403-14.67-32.76M-36 108h-4v-4h-56v4h-44V-4h44v4h56v-4H4v112H0Z" style="fill:#fff;fill-opacity:1;fill-rule:nonzero;stroke:none" transform="translate(196 76)"/><path d="M0 0c3.309 0 6-2.691 6-6s-2.691-6-6-6-6 2.691-6 6 2.691 6 6 6m-10-6c0-5.522 4.478-10 10-10s10 4.478 10 10S5.522 4 0 4-10-.478-10-6" style="fill:#fff;fill-opacity:1;fill-rule:nonzero;stroke:none" transform="translate(178 100)"/></g></svg>