<svg xmlns="http://www.w3.org/2000/svg" xml:space="preserve" width="303.402" height="245.333"><defs><clipPath id="a" clipPathUnits="userSpaceOnUse"><path d="M0 256h256V0H0Z"/></clipPath></defs><g clip-path="url(#a)" transform="matrix(1.33333 0 0 -1.33333 -19.282 293.333)"><path d="M0 0h-176l-1.519 2.024q-.026-.028-.054-.054c-13.856 17.747-18.78 35.385-19.767 50.03h3.34c1.1 0 2 .9 2 2s-.9 2-2 2h-3.516c-.303 14.313 2.989 25.242 4.626 29.745C-185.813 70.561-176 64-176 64H0s9.267 7.729 16.283 23.176c3.986-11.426 5.641-21.841 5.753-31.18-.012 0-.023.004-.036.004h-4c-1.1 0-2-.9-2-2s.9-2 2-2h3.991C20.812 18.509 0 0 0 0m-182 0c-3.309 0-6 2.691-6 6 0 1.038.278 2.007.745 2.858a107 107 0 0 1 6.101-8.791A6 6 0 0 0-182 0m-12.361 102.984A9.9 9.9 0 0 0-190 104c5.523 0 10-4.477 10-10 0-4.73-3.293-8.669-7.707-9.706-3.064 5.704-5.287 11.948-6.654 18.69m9.608 59.652c4.191 7.06 8.431 11.545 10.311 13.364H-1.331c1.803-1.438 6.044-5.186 10.233-11.567C16.267 153.217 20 139.613 20 124c0-19.578-6.116-33.992-11.247-42.636C4.562 74.305.321 69.819-1.558 68h-173.11c-1.804 1.438-6.045 5.186-10.234 11.567-.25.381-.486.772-.728 1.159C-180.023 82.572-176 87.854-176 94c0 7.72-6.28 14-14 14-1.746 0-3.458-.329-5.066-.955A88 88 0 0 0-196 120c0 19.578 6.116 33.992 11.247 42.636m204.52-73.291L18.819 92h-.527C21.586 100.66 24 111.322 24 124c0 40-24 56-24 56h-176s-24-20-24-60c0-11.668 2.048-21.28 4.941-29.062l-.583-1.283c-.217-.479-5.338-11.927-5.856-29.034-.375-12.368 1.711-29.674 12.027-48.015C-191.034 10.844-192 8.542-192 6c0-5.522 4.477-10 10-10H1.521l1.136 1.011c.395.35 9.739 8.766 16.513 24.398 6.217 14.348 11.367 37.779.597 67.936" style="fill:#fff;fill-opacity:1;fill-rule:nonzero;stroke:none" transform="translate(216 40)"/><path d="M204 116H52v4h152ZM52 208h152v-84H52Zm156-88v92H48V112h160z" style="fill:#fff;fill-opacity:1;fill-rule:nonzero;stroke:none"/><path d="M0 0a2 2 0 1 1-.001 4.001A2 2 0 0 1 0 0" style="fill:#fff;fill-opacity:1;fill-rule:nonzero;stroke:none" transform="translate(34 184)"/><path d="M0 0a2 2 0 1 1-.001 4.001A2 2 0 0 1 0 0" style="fill:#fff;fill-opacity:1;fill-rule:nonzero;stroke:none" transform="translate(38 180)"/><path d="M0 0a2 2 0 1 1-.001 4.001A2 2 0 0 1 0 0" style="fill:#fff;fill-opacity:1;fill-rule:nonzero;stroke:none" transform="translate(30 180)"/><path d="M0 0a2 2 0 1 1 .001-4.001A2 2 0 0 1 0 0" style="fill:#fff;fill-opacity:1;fill-rule:nonzero;stroke:none" transform="translate(34 180)"/><path d="M0 0h4c1.1 0 2 .9 2 2s-.9 2-2 2H0c-1.1 0-2-.9-2-2s.9-2 2-2" style="fill:#fff;fill-opacity:1;fill-rule:nonzero;stroke:none" transform="translate(30 192)"/><path d="M0 0a2 2 0 1 1-.001 4.001A2 2 0 0 1 0 0" style="fill:#fff;fill-opacity:1;fill-rule:nonzero;stroke:none" transform="translate(222 184)"/><path d="M0 0a2 2 0 1 1-.001 4.001A2 2 0 0 1 0 0" style="fill:#fff;fill-opacity:1;fill-rule:nonzero;stroke:none" transform="translate(218 180)"/><path d="M0 0a2 2 0 1 1 .001-4.001A2 2 0 0 1 0 0" style="fill:#fff;fill-opacity:1;fill-rule:nonzero;stroke:none" transform="translate(226 184)"/><path d="M0 0a2 2 0 1 1 .001-4.001A2 2 0 0 1 0 0" style="fill:#fff;fill-opacity:1;fill-rule:nonzero;stroke:none" transform="translate(222 180)"/><path d="M0 0h4c1.1 0 2 .9 2 2s-.9 2-2 2H0c-1.1 0-2-.9-2-2s.9-2 2-2" style="fill:#fff;fill-opacity:1;fill-rule:nonzero;stroke:none" transform="translate(222 192)"/><path d="M0 0c.164.437.27.903.27 1.398v8.193c.214-.035.43-.066.65-.066h8.279c.304 0 .599.039.884.104A23.9 23.9 0 0 0 0 0m-31.341 9.629c.285-.065.579-.104.883-.104h8.279c.22 0 .435.031.649.066V1.398c0-.489.092-.955.252-1.387a23.9 23.9 0 0 0-10.063 9.618m10.063 32.814a4 4 0 0 1-.252-1.388v-8.281c0-.552.117-1.091.332-1.588a4 4 0 0 1-.981.136h-8.279a3.94 3.94 0 0 1-1.882-.491 23.9 23.9 0 0 0 11.062 11.612m18.131-24.708c-2.832 2.834 0 5.375 0 5.375L.92 27.322h8.279v-.113c1.234-.544 2.178-3.332 2.178-6.712s-.944-6.168-2.178-6.712v-.26H.92ZM-17.53 9.679l4.213 4.065c.943.944 1.855 1.259 2.651 1.259 1.593 0 2.723-1.259 2.723-1.259l4.213-4.065V1.398h-.116C-4.39.164-7.177-.78-10.558-.78s-6.168.944-6.712 2.178h-.26zm10.273 14.632c-.575-.938-1.105-2.196-1.147-3.731a7.2 7.2 0 0 1 .254-2.047 7.1 7.1 0 0 1-2.515.47c-.678 0-1.52-.104-2.436-.438.2.751.26 1.441.244 2.015-.041 1.518-.56 2.766-1.126 3.699a7.2 7.2 0 0 1 3.317-.829c1.353 0 2.496.387 3.409.861m3.527 8.463-4.213-4.065s-1.13-1.259-2.723-1.259c-.796 0-1.708.315-2.651 1.259l-4.213 4.065v8.281h.26c.544 1.234 3.331 2.178 6.712 2.178s6.168-.944 6.712-2.178h.116Zm-28.906-12.277c0 3.38.943 6.168 2.178 6.712v.113h8.279l4.066-4.212s2.832-2.541 0-5.375l-4.066-4.21h-8.279v.26c-1.235.544-2.178 3.331-2.178 6.712m43.718 10.334a3.96 3.96 0 0 1-1.883.491H.92c-.336 0-.663-.055-.983-.137.215.497.333 1.037.333 1.589v8.281c0 .495-.106.961-.27 1.398a23.9 23.9 0 0 0 11.082-11.622m-21.711 18.27c-15.37 0-27.874-12.504-27.874-27.874S-25.999-6.646-10.629-6.646 17.244 5.857 17.244 21.227 4.74 49.101-10.629 49.101" style="fill:#fff;fill-opacity:1;fill-rule:nonzero;stroke:none" transform="translate(74.63 48.732)"/><path d="M0 0a10.94 10.94 0 0 1 2.83 7.34c0 1.458-.291 2.848-.809 4.122A10.9 10.9 0 0 1 6.83 10.34c2.512 0 4.822.855 6.677 2.278C10.898 6.8 6.021 2.212 0 0m-29.846 12.618a10.93 10.93 0 0 1 6.676-2.278c1.726 0 3.354.41 4.809 1.122a10.9 10.9 0 0 1-.809-4.122c0-2.821 1.077-5.391 2.83-7.34a23.88 23.88 0 0 0-13.506 12.618m13.39 31.934a10.94 10.94 0 0 1-2.714-7.212c0-2.903 1.139-5.539 2.983-7.507a10.95 10.95 0 0 1-6.983 2.507 10.96 10.96 0 0 1-7.736-3.191c2.146 7.11 7.54 12.822 14.45 15.403M-.17 21.34a7 7 0 1 0 14 0 7 7 0 0 0-14 0m-23-7a7 7 0 1 0 0 14 7 7 0 0 0 0-14m8 23a7 7 0 1 0 14 0 7 7 0 0 0-14 0m7-19a10.9 10.9 0 0 1-4.809-1.122c.518 1.274.809 2.664.809 4.122 0 2.903-1.139 5.539-2.982 7.507A10.95 10.95 0 0 1-8.17 26.34c2.649 0 5.082.941 6.983 2.507A10.95 10.95 0 0 1-4.17 21.34c0-1.458.291-2.848.809-4.122A10.9 10.9 0 0 1-8.17 18.34m0-4a7 7 0 1 0 0-14 7 7 0 0 0 0 14m22.736 14.809A10.96 10.96 0 0 1 6.83 32.34a10.95 10.95 0 0 1-6.982-2.507A10.95 10.95 0 0 1 2.83 37.34c0 2.76-1.029 5.279-2.715 7.213 6.911-2.581 12.305-8.294 14.451-15.404M-8.17 50.173c-15.369 0-27.874-12.504-27.874-27.874S-23.539-5.574-8.17-5.574 19.704 6.93 19.704 22.299 7.199 50.173-8.17 50.173" style="fill:#fff;fill-opacity:1;fill-rule:nonzero;stroke:none" transform="translate(200.17 47.66)"/><path d="M0 0a8 8 0 1 0 0 16A8 8 0 0 0 0 0m0 20c-6.617 0-12-5.383-12-12S-6.617-4 0-4 12 1.383 12 8 6.617 20 0 20" style="fill:#fff;fill-opacity:1;fill-rule:nonzero;stroke:none" transform="translate(108 52)"/><path d="M0 0h-4c-1.1 0-2-.9-2-2s.9-2 2-2h4c1.1 0 2 .9 2 2s-.9 2-2 2" style="fill:#fff;fill-opacity:1;fill-rule:nonzero;stroke:none" transform="translate(130 48)"/><path d="M0 0c.89 3.448 4.012 6 7.738 6s6.849-2.552 7.739-6zm7.738-10C4.012-10 .89-7.448 0-4h15.477c-.89-3.448-4.012-6-7.739-6m0 20A11.99 11.99 0 0 1-3.873.999a5.7 5.7 0 0 1-.389-2.071v-1.856c0-.709.132-1.411.389-2.071a11.991 11.991 0 0 1 23.223 0c.256.66.388 1.362.388 2.071v1.856c0 .709-.132 1.411-.388 2.071A11.99 11.99 0 0 1 7.738 10" style="fill:#fff;fill-opacity:1;fill-rule:nonzero;stroke:none" transform="translate(140.262 62)"/></g></svg>