<svg xmlns="http://www.w3.org/2000/svg" xml:space="preserve" width="229.333" height="320"><defs><clipPath id="a" clipPathUnits="userSpaceOnUse"><path d="M0 256h256V0H0Z"/></clipPath></defs><g clip-path="url(#a)" transform="matrix(1.33333 0 0 -1.33333 -56 330.667)"><path d="M0 0h-4v-24h4v-172h-144l-20 24v148h4V0h-4v20c0 8.836 36.713 16 82 16S0 28.836 0 20zm-23.251 35.24C-38.983 38.31-59.848 40-82 40s-43.017-1.69-58.749-4.76C-159.341 31.612-168 26.77-168 20V-4h4v-16h-4v-153.448l.927-1.113 20-24 1.199-1.439H4v180H0v16h4v24c0 6.77-8.659 11.612-27.251 15.24" style="fill:#fff;fill-opacity:1;fill-rule:nonzero;stroke:none" transform="translate(210 208)"/><path d="M0 0v-148h-128V20c0 6.627 28.654 12 64 12S0 26.627 0 20zm-54.4-152.8L-68-163l-13.6 10.2-1.067.8h29.334zm2.4-7.2-16-12-16 12v4l16-12 16 12zm33.992 192.417C-30.332 34.728-46.665 36-64 36s-33.668-1.272-45.992-3.583C-125.212 29.563-132 25.733-132 20v-172h44v-10l1.6-1.2 16-12 2.4-1.8 2.4 1.8 16 12 1.6 1.2v10H4V20c0 5.733-6.787 9.563-22.008 12.417" style="fill:#fff;fill-opacity:1;fill-rule:nonzero;stroke:none" transform="translate(194 192)"/></g></svg>