<svg xmlns="http://www.w3.org/2000/svg" xml:space="preserve" width="298.667" height="325.333"><defs><clipPath id="a" clipPathUnits="userSpaceOnUse"><path d="M0 256h256V0H0Z"/></clipPath></defs><g clip-path="url(#a)" transform="matrix(1.33333 0 0 -1.33333 -21.333 336)"><path d="M0 0c2.251 0 4.075-1.791 4.075-4v-204c0-2.209-1.824-4-4.075-4h-207.85c-2.25 0-4.075 1.791-4.075 4V-4c0 2.209 1.825 4 4.075 4zm-3.313-236h-201.223a4 4 0 0 0-3.946 3.343l-.109.657H.742l-.11-.657A4 4 0 0 0-3.313-236m5.388 12-.667-4h-210.666l-.667 4zm1.471 8.823L2.742-220h-213.333l-.805 4.823a8.1 8.1 0 0 1 3.546-.823H0c1.272 0 2.474.302 3.546.823M-215.925-4v-204l3.497-25.315a7.98 7.98 0 0 1 7.892-6.685H-3.313a7.976 7.976 0 0 1 7.891 6.685L8.075-208V-4C8.075.411 4.452 4 0 4h-207.85c-4.452 0-8.075-3.589-8.075-8" style="fill:#fff;fill-opacity:1;fill-rule:nonzero;stroke:none" transform="translate(231.925 248)"/></g></svg>