<svg xmlns="http://www.w3.org/2000/svg" xml:space="preserve" width="261.333" height="320"><defs><clipPath id="a" clipPathUnits="userSpaceOnUse"><path d="M0 256h256V0H0Z"/></clipPath></defs><g clip-path="url(#a)" transform="matrix(1.33333 0 0 -1.33333 -40 330.667)"><path d="M0 0v112h26V0Zm26-112c0-1.157-11.548-2.199-30-2.93V-4h30zm-188 0v224c0 2.209 42.085 4 94 4 22.817 0 43.72-.347 60-.922v-230.157c-16.279-.575-37.189-.921-60-.921-51.915 0-94 1.791-94 4M26 116H-2.015c-.565 1.329-1.583 2.919-3.836 3.003-17.191.643-39.262.997-62.149.997-25.163 0-48.829-.417-66.638-1.175-8.71-.371-15.565-.804-20.376-1.288-2.573-.259-4.5-.525-5.891-.815C-166 115.663-166 112.906-166 112v-224c0-3.663 3.835-4.46 5.095-4.723 1.391-.289 3.318-.555 5.891-.814 4.811-.484 11.666-.917 20.376-1.288C-116.829-119.583-93.163-120-68-120s48.829.417 66.638 1.175c8.71.371 15.565.804 20.376 1.288 2.573.259 4.5.525 5.89.814C30-115.663 30-112.906 30-112v228z" style="fill:#fff;fill-opacity:1;fill-rule:nonzero;stroke:none" transform="translate(196 128)"/></g></svg>