<?xml version="1.0" encoding="UTF-8" standalone="no"?>
<svg
   xmlns:dc="http://purl.org/dc/elements/1.1/"
   xmlns:cc="http://creativecommons.org/ns#"
   xmlns:rdf="http://www.w3.org/1999/02/22-rdf-syntax-ns#"
   xmlns:svg="http://www.w3.org/2000/svg"
   xmlns="http://www.w3.org/2000/svg"
   viewBox="0 0 298.66665 320"
   height="320"
   width="298.66666"
   xml:space="preserve"
   id="svg2"
   version="1.1"><metadata
     id="metadata8"><rdf:RDF><cc:Work
         rdf:about=""><dc:format>image/svg+xml</dc:format><dc:type
           rdf:resource="http://purl.org/dc/dcmitype/StillImage" /></cc:Work></rdf:RDF></metadata><defs
     id="defs6"><clipPath
       id="clipPath18"
       clipPathUnits="userSpaceOnUse"><path
         id="path16"
         d="M 0,256 H 256 V 0 H 0 Z" /></clipPath></defs><g
     transform="matrix(1.3333333,0,0,-1.3333333,-21.333333,330.66666)"
     id="g10"><g
       id="g12"><g
         clip-path="url(#clipPath18)"
         id="g14"><g
           transform="translate(128,248)"
           id="g20"><path
             id="path22"
             style="fill:#ffffff;fill-opacity:1;fill-rule:nonzero;stroke:none"
             d="m 0,0 c -29.923,0 -58.053,-11.778 -79.21,-33.166 -21.145,-21.375 -32.79,-49.79 -32.79,-80.01 v -77.334 c 0,-10.375 8.853,-15.913 10.825,-17.017 C -70.713,-230.587 -41.374,-240 0,-240 c 41.48,0 70.863,9.461 101.419,32.657 l 0.128,0.098 0.12,0.107 c 1.726,1.543 10.333,9.6 10.333,16.628 v 77.334 c 0,30.22 -11.646,58.635 -32.79,80.01 C 58.054,-11.778 29.923,0 0,0 m 0,-4 c 59.643,0 108,-48.884 108,-109.176 v -77.334 c 0,-5.595 -9,-13.647 -9,-13.647 C 68.913,-226.997 40.522,-236 0,-236 c -40.518,0 -68.917,9.003 -99,31.843 0,0 -9,4.55 -9,13.647 v 77.334 C -108,-52.884 -59.643,-4 0,-4" /></g><g
           transform="translate(128,240)"
           id="g24"><path
             id="path26"
             style="fill:#ffffff;fill-opacity:1;fill-rule:nonzero;stroke:none"
             d="m 0,0 c -57.346,0 -104,-46.654 -104,-104 0,-57.346 46.654,-104 104,-104 57.346,0 104,46.654 104,104 C 104,-46.654 57.346,0 0,0 m 0,-4 c 55.228,0 100,-44.773 100,-100 0,-55.228 -44.772,-100 -100,-100 -55.227,0 -100,44.772 -100,100 0,55.227 44.773,100 100,100" /></g><g
           transform="translate(128,230)"
           id="g28"><path
             id="path30"
             style="fill:#ffffff;fill-opacity:1;fill-rule:nonzero;stroke:none"
             d="m 0,0 c -51.832,0 -94,-42.168 -94,-94 0,-51.832 42.168,-94 94,-94 51.832,0 94,42.168 94,94 C 94,-42.168 51.832,0 0,0 m 0,-4 c 49.707,0 90,-40.293 90,-90 0,-49.707 -40.293,-90 -90,-90 -49.707,0 -90,40.293 -90,90 0,49.707 40.293,90 90,90" /></g><g
           transform="translate(128,176)"
           id="g32"><path
             id="path34"
             style="fill:#ffffff;fill-opacity:1;fill-rule:nonzero;stroke:none"
             d="m 0,0 c -22.056,0 -40,-17.944 -40,-40 0,-22.056 17.944,-40 40,-40 22.056,0 40,17.944 40,40 C 40,-17.944 22.056,0 0,0 m 0,-4 c 19.881,0 36,-16.114 36,-36 0,-19.881 -16.119,-36 -36,-36 -19.881,0 -36,16.119 -36,36 0,19.886 16.119,36 36,36" /></g><g
           transform="translate(152,164.8794)"
           id="g36"><path
             id="path38"
             style="fill:#ffffff;fill-opacity:1;fill-rule:nonzero;stroke:none"
             d="M 0,0 -4.784,-0.957 -36.785,-7.357 -40,-8 v -3.279 -21.789 c -0.788,0.125 -1.591,0.189 -2.4,0.189 -7.499,0 -13.6,-5.383 -13.6,-12 0,-6.618 6.101,-12 13.6,-12 7.499,0 13.6,5.382 13.6,12 v 24.56 l 17.6,3.52 v -9.869 c -0.788,0.125 -1.591,0.189 -2.4,0.189 -7.499,0 -13.6,-5.384 -13.6,-12 0,-6.617 6.101,-12 13.6,-12 7.499,0 13.6,5.383 13.6,12 v 33.6 z m -4,-4.879 v -33.6 c 0,-4.419 -4.298,-8 -9.6,-8 -5.302,0 -9.6,3.581 -9.6,8 0,4.418 4.298,8 9.6,8 2.462,0 4.701,-0.779 6.4,-2.049 v 20.609 l -25.6,-5.121 v -27.839 c 0,-4.418 -4.298,-8 -9.6,-8 -5.302,0 -9.6,3.582 -9.6,8 0,4.418 4.298,8 9.6,8 2.462,0 4.701,-0.78 6.4,-2.049 v 27.649 l 32,6.4" /></g></g></g></g></svg>