<svg xmlns="http://www.w3.org/2000/svg" xml:space="preserve" width="213.333" height="314.667"><defs><clipPath id="a" clipPathUnits="userSpaceOnUse"><path d="M0 256h256V0H0Z"/></clipPath></defs><path d="M168 152H88v60h80zm-80 64h-4v-68h88v68h-4z" style="fill:#fff;fill-opacity:1;fill-rule:nonzero;stroke:none" transform="matrix(1.33333 0 0 -1.33333 -64 330.667)"/><g clip-path="url(#a)" transform="matrix(1.33333 0 0 -1.33333 -64 330.667)"><path d="M0 0a2 2 0 1 1-.001 4.001A2 2 0 0 1 0 0" style="fill:#fff;fill-opacity:1;fill-rule:nonzero;stroke:none" transform="translate(90 220)"/><path d="M0 0a2 2 0 1 1-.001 4.001A2 2 0 0 1 0 0" style="fill:#fff;fill-opacity:1;fill-rule:nonzero;stroke:none" transform="translate(166 220)"/><path d="M0 0a2 2 0 1 1 .001-4.001A2 2 0 0 1 0 0" style="fill:#fff;fill-opacity:1;fill-rule:nonzero;stroke:none" transform="translate(98 144)"/><path d="M0 0a2 2 0 1 1 .001-4.001A2 2 0 0 1 0 0" style="fill:#fff;fill-opacity:1;fill-rule:nonzero;stroke:none" transform="translate(106 144)"/><path d="M0 0a2 2 0 1 1 .001-4.001A2 2 0 0 1 0 0" style="fill:#fff;fill-opacity:1;fill-rule:nonzero;stroke:none" transform="translate(150 144)"/><path d="M0 0a2 2 0 1 1 .001-4.001A2 2 0 0 1 0 0" style="fill:#fff;fill-opacity:1;fill-rule:nonzero;stroke:none" transform="translate(158 144)"/><path d="M0 0a5.285 5.285 0 0 0-5.286-5.286H-7.82a21 21 0 0 1-2.328 2h4.772A3.386 3.386 0 0 1-2 .09v17.247a3.387 3.387 0 0 1-3.376 3.377h-31.248A3.387 3.387 0 0 1-40 17.337V5.631a7.94 7.94 0 0 1-4 1.083h-64a7.94 7.94 0 0 1-4-1.083v11.706a3.387 3.387 0 0 1-3.376 3.377h-31.248A3.387 3.387 0 0 1-150 17.337V.09a3.386 3.386 0 0 1 3.376-3.376h4.773a21 21 0 0 1-2.329-2h-2.534A5.286 5.286 0 0 0-152 0v17.428a5.286 5.286 0 0 0 5.286 5.286h22.713a59.73 59.73 0 0 0-11.999 36c0 33.137 26.863 60 60 60s60-26.863 60-60a59.73 59.73 0 0 0-11.999-36h22.713A5.286 5.286 0 0 0 0 17.428Zm-4.02-56.103-1.483-31.382c-2.048 3.692-5.983 6.199-10.497 6.199-2.676 0-5.141-.891-7.138-2.377l-4.464 4.464A53.64 53.64 0 0 1-22-55.286a53.68 53.68 0 0 1-10 31.259v20.741h11.732c7.936-1.138 14.204-7.912 14.592-16.14L-4.02-54.47c.026-.542.026-1.091 0-1.633M-16-101.286c-4.411 0-8 3.589-8 8s3.589 8 8 8 8-3.589 8-8-3.589-8-8-8m-6.023-6.163L-60-108.815v1.949c12.843 3.992 23.639 12.663 30.404 24.005l3.679-3.679A11.94 11.94 0 0 1-28-93.286c0-6.617 5.383-12 12-12 .629 0 1.241.063 1.845.157a16.64 16.64 0 0 0-7.868-2.32m-48.132-1.732a163 163 0 0 0-11.689 0l-6.156.221v1.034a54 54 0 0 1 12-1.36c4.125 0 8.138.48 12 1.36v-1.034zM-116 1.382l-14.12-.508a21 21 0 0 1-1.903-.16H-146v16h30zm8-6.668c-1.794 0-3.295 1.189-3.802 2.817a5 5 0 0 0-.133.536 4 4 0 0 0-.065.647q.001.42.083.813c.007.034.022.062.03.094.054.23.119.455.211.667l.013.024a4 4 0 0 0 .868 1.257A3.98 3.98 0 0 0-108 2.714zm8 0h-4v8h4zm44 0h-40v8h40zm8 0h-4v8h4zm7.663 5.598.013-.024c.092-.212.158-.437.212-.667.007-.032.021-.06.028-.094q.083-.394.084-.813c0-.222-.03-.435-.065-.647a5 5 0 0 0-.133-.536c-.507-1.628-2.007-2.817-3.802-2.817v8A4.01 4.01 0 0 0-40.337.312m18.457.562L-36 1.382v15.332h30v-16h-13.977c-.627.08-1.26.137-1.903.16m-25.874-10.16H-44c3.72 0 6.845 2.556 7.736 6H-36v-15.77a54.5 54.5 0 0 1-11.754 9.77m-67.983 6c.892-3.444 4.017-6 7.737-6h3.749A54.4 54.4 0 0 1-116-19.053v15.767zm39.737-102c-27.57 0-50 22.43-50 50 0 20.622 12.551 38.365 30.414 46h39.172C-38.551-16.921-26-34.664-26-55.286c0-27.57-22.43-50-50-50m-57.984-1.502v1.502h-2v-.794c-.642.277-1.261.598-1.861.951a12 12 0 0 1 1.845-.157c6.617 0 12 5.383 12 12s-5.383 12-12 12c-4.513 0-8.449-2.507-10.498-6.199l-1.482 31.382a17 17 0 0 0 0 1.633l1.656 35.044c.388 8.228 6.656 15.002 14.592 16.14H-120v-20.732a53.7 53.7 0 0 1-10-31.268c0-24.207 16.012-44.744 38-51.58v-1.949l-37.977 1.366a16.5 16.5 0 0 0-4.007.661M-144-93.286c0 4.411 3.589 8 8 8s8-3.589 8-8-3.589-8-8-8-8 3.589-8 8m138.714 120h-15.273c5.62 9.687 8.559 20.613 8.559 32 0 35.289-28.71 64-64 64s-64-28.711-64-64c0-11.387 2.939-22.313 8.559-32h-15.273c-5.12 0-9.286-4.166-9.286-9.286V0c0-4.934 3.87-8.97 8.732-9.258a21.14 21.14 0 0 1-3.052-9.979l-1.656-35.044a21 21 0 0 1 0-2.01l1.656-35.044c.519-10.976 9.3-19.72 20.2-20.111l48.132-1.733a168 168 0 0 1 11.976 0l48.132 1.733c10.9.391 19.681 9.135 20.2 20.111l1.657 35.044q.047 1.006 0 2.01L-1.68-19.237a21.14 21.14 0 0 1-3.052 9.979C.13-8.969 4-4.934 4 0v17.428c0 5.12-4.166 9.286-9.286 9.286" style="fill:#fff;fill-opacity:1;fill-rule:nonzero;stroke:none" transform="translate(204 125.286)"/></g></svg>