<svg xmlns="http://www.w3.org/2000/svg" xml:space="preserve" width="320" height="250.667"><defs><clipPath id="a" clipPathUnits="userSpaceOnUse"><path d="M0 256h256V0H0Z"/></clipPath></defs><path d="M0 0h-240v-188H0V-4zm-4-184h-232V-4H-4Z" style="fill:#fff;fill-opacity:1;fill-rule:nonzero;stroke:none" transform="matrix(1.33333 0 0 -1.33333 320 0)"/><path d="M0 0h-224v-152H0V-4zm-4-148h-216V-4H-4Z" style="fill:#fff;fill-opacity:1;fill-rule:nonzero;stroke:none" transform="matrix(1.33333 0 0 -1.33333 309.333 16)"/><g clip-path="url(#a)" transform="matrix(1.33333 0 0 -1.33333 -10.667 298.667)"><path d="M0 0h-180c-3.309 0-6-2.691-6-6v-112c0-3.309 2.691-6 6-6H0c3.309 0 6 2.691 6 6V-6c0 3.309-2.691 6-6 6m0-4a2 2 0 0 0 2-2v-112a2 2 0 0 0-2-2h-180a2 2 0 0 0-2 2V-6a2 2 0 0 0 2 2z" style="fill:#fff;fill-opacity:1;fill-rule:nonzero;stroke:none" transform="translate(218 196)"/></g></svg>