<svg xmlns="http://www.w3.org/2000/svg" xml:space="preserve" width="245.333" height="245.333"><defs><clipPath id="a" clipPathUnits="userSpaceOnUse"><path d="M0 256h256V0H0Z"/></clipPath></defs><g clip-path="url(#a)" transform="matrix(1.33333 0 0 -1.33333 -48 293.333)"><path d="M0 0c-3.389 0-6.54-.478-9.32-.9l-.201-.031-5.859-.888-.857-5.864-.948-6.482a53 53 0 0 1-5.871-2.448l-5.324 3.957-4.764 3.541-4.77-3.533a64 64 0 0 1-13.451-13.456l-3.509-4.766 3.53-4.75 3.96-5.328a52 52 0 0 1-2.447-5.867l-6.485-.947-5.865-.857-.888-5.86-.031-.201c-.422-2.78-.9-5.931-.9-9.32s.478-6.54.9-9.32l.031-.201.888-5.86 5.865-.856 6.484-.948a52 52 0 0 1 2.445-5.871l-3.957-5.324-3.534-4.756 3.519-4.767a63.9 63.9 0 0 1 13.453-13.454l4.768-3.523 4.758 3.536 5.328 3.959a53 53 0 0 1 5.867-2.449l.948-6.483.857-5.864 5.859-.888.2-.031c2.78-.421 5.931-.9 9.321-.9s6.541.479 9.321.9l.2.031 5.859.888.857 5.864.948 6.482a53 53 0 0 1 5.871 2.448l5.324-3.957 4.764-3.541 4.769 3.533a64 64 0 0 1 13.452 13.456l3.509 4.766-3.53 4.75-3.959 5.328a52 52 0 0 1 2.445 5.867l6.486.948 5.865.856.888 5.86.031.2c.421 2.78.9 5.931.9 9.321s-.479 6.541-.9 9.321l-.031.2-.888 5.86-5.865.857-6.485.947a52 52 0 0 1-2.444 5.871l3.957 5.324 3.535 4.756-3.52 4.767a63.9 63.9 0 0 1-13.454 13.454L33.138-9.12l-4.758-3.536-5.327-3.959a53 53 0 0 1-5.867 2.449l-.949 6.483-.857 5.864-5.859.888L9.32-.9C6.54-.478 3.39 0 0 0m0-8c2.856 0 5.589-.426 8.321-.84l1.692-11.57c4.939-1.142 9.52-3.102 13.674-5.7l9.465 7.033a55.9 55.9 0 0 0 11.771-11.771l-7.033-9.464a44.3 44.3 0 0 0 5.689-13.675l11.581-1.691c.414-2.733.84-5.466.84-8.322s-.426-5.589-.84-8.321l-11.581-1.692c-1.131-4.939-3.091-9.52-5.689-13.675l7.033-9.464a55.8 55.8 0 0 0-11.771-11.771l-9.464 7.033a44.7 44.7 0 0 0-13.675-5.701L8.321-119.16C5.589-119.574 2.855-120 0-120c-2.856 0-5.589.426-8.322.84l-1.691 11.569c-4.939 1.143-9.52 3.103-13.675 5.701l-9.464-7.033a55.8 55.8 0 0 0-11.771 11.771l7.033 9.464a44.3 44.3 0 0 0-5.689 13.675l-11.581 1.692C-55.574-69.589-56-66.855-56-64c0 2.856.426 5.589.84 8.322l11.581 1.691c1.131 4.939 3.091 9.52 5.689 13.675l-7.033 9.464a55.9 55.9 0 0 0 11.771 11.771l9.464-7.033a44.6 44.6 0 0 0 13.675 5.7l1.691 11.57C-5.589-8.426-2.856-8 0-8" style="fill:#fff;fill-opacity:1;fill-rule:nonzero;stroke:none" transform="translate(128 192)"/><path d="M0 0c-17.645 0-32-14.355-32-32s14.355-32 32-32 32 14.355 32 32S17.645 0 0 0m0-8.17c13.154 0 23.83-10.676 23.83-23.83S13.154-55.83 0-55.83-23.83-45.154-23.83-32-13.154-8.17 0-8.17" style="fill:#fff;fill-opacity:1;fill-rule:nonzero;stroke:none" transform="translate(128 160)"/><path d="M220 220H36V36h184Zm-4-180H40v176h176z" style="fill:#fff;fill-opacity:1;fill-rule:nonzero;stroke:none"/></g></svg>