<?xml version="1.0" encoding="UTF-8" standalone="no"?>
<svg
   xmlns:dc="http://purl.org/dc/elements/1.1/"
   xmlns:cc="http://creativecommons.org/ns#"
   xmlns:rdf="http://www.w3.org/1999/02/22-rdf-syntax-ns#"
   xmlns:svg="http://www.w3.org/2000/svg"
   xmlns="http://www.w3.org/2000/svg"
   viewBox="0 0 320 202.66665"
   height="202.66666"
   width="320"
   xml:space="preserve"
   id="svg2"
   version="1.1"><metadata
     id="metadata8"><rdf:RDF><cc:Work
         rdf:about=""><dc:format>image/svg+xml</dc:format><dc:type
           rdf:resource="http://purl.org/dc/dcmitype/StillImage" /></cc:Work></rdf:RDF></metadata><defs
     id="defs6"><clipPath
       id="clipPath18"
       clipPathUnits="userSpaceOnUse"><path
         id="path16"
         d="M 0,256 H 256 V 0 H 0 Z" /></clipPath></defs><g
     transform="matrix(1.3333333,0,0,-1.3333333,-10.666,272.00026)"
     id="g10"><g
       id="g12"><g
         clip-path="url(#clipPath18)"
         id="g14"><g
           transform="translate(235.5685,160.0042)"
           id="g20"><path
             id="path22"
             style="fill:#ffffff;fill-opacity:1;fill-rule:nonzero;stroke:none"
             d="M 0,0 C -0.002,2.184 -1.752,3.958 -3.927,3.995 -3.951,3.996 -3.976,3.996 -4.001,3.996 -4.042,3.996 -4.084,3.995 -4.126,3.994 -4.217,3.991 -4.307,3.985 -4.397,3.977 l -91.952,-7.996 c -0.975,-0.085 -1.827,-0.525 -2.469,-1.169 l -1.184,1.184 h -24 v -8 h -3.019 c 1.979,4.377 3.019,9.175 3.019,14 0,4.929 -1.057,9.679 -3.013,14 h 115.013 l 4,8 12,-4 4,-4 z m -8.002,-4.004 -88,-4 92,8 z m -127.242,-32 h -8.14 c 3.411,3.561 6.615,6.068 8.949,7.242 -0.836,-0.56 -1.567,-1.534 -1.567,-3.242 0,-1.11 0.313,-2.53 0.758,-4 m 14.086,16 h 2.684 l -8,-16 h -4.566 c -0.566,1.626 -0.962,3.107 -0.962,4 0,0.02 0,0.038 0.001,0.055 2.399,1.526 4.42,3.844 5.857,6.717 l 0.082,0.163 c 1.817,1.312 3.726,3.03 4.904,5.065 m 6.159,-22.195 c -0.629,-1.132 -1.768,-1.89 -3.055,-2.033 l -30.868,-3.43 c -1.337,-0.148 -2.471,-0.953 -3.08,-2.088 v 1.746 4 3.531 l -3.504,0.438 -32,4 -0.496,0.062 v 11.969 l -2.024,3.372 13.147,-5.634 c 5.604,-3.755 12.122,-5.738 18.877,-5.738 11.797,0 22.631,6.073 28.833,16 h 5.167 c 0,-4 -8,-8 -8,-8 -8,0 -20,-16 -20,-16 h 26.764 c 0.757,0 1.45,0.428 1.789,1.105 l 10,20 c 0.665,1.33 -0.302,2.895 -1.789,2.895 h -4.764 v 4 4 h 18.343 l 2.828,-2.829 0.809,-0.808 z m -43.983,-54.665 c -0.086,-0.598 0.013,-1.207 0.283,-1.747 l 0.103,-0.205 c 0.317,-0.634 0.874,-1.084 1.504,-1.409 0.739,-0.38 1.214,-1.209 1.061,-2.121 -0.165,-0.983 -1.095,-1.658 -2.093,-1.658 h -5.878 -2 -31.694 c -1.217,0 -2.152,1.078 -1.98,2.283 l 6.509,45.563 1.607,0.178 36,4 3.038,0.338 z m -33.02,48.86 4,8 32,-4 v -4 l -36,-4 z m -16,32 -8,16 v 8 h 4 l 20,-24 z m -12,0 -4,8 h 7.528 l 4,-8 z m 0,18 v -2 -0.944 l 0.422,-0.845 1.106,-2.211 h -3.928 z m 9.143,22 h 39.007 c -7.298,-4.604 -12.15,-12.733 -12.15,-22 0,-0.674 0.034,-1.339 0.084,-2 h -16.211 l -8.8,10.561 -1.2,1.439 h -1.873 -4 z m 6.857,16 h 68 l 4,-12 h -77.143 z m 24,-38 c 0,12.131 9.869,22 22,22 12.131,0 22,-9.869 22,-22 0,-12.131 -9.869,-22 -22,-22 -12.131,0 -22,9.869 -22,22 m 52,0 c 0,-5.053 -1.256,-9.818 -3.472,-14 -5.038,-9.508 -15.039,-16 -26.528,-16 -6.286,0 -12.123,1.947 -16.949,5.264 l -9.692,4.154 -4.286,5.143 -7.866,9.439 h 13.497 c 2.709,-11.465 13.003,-20 25.296,-20 14.359,0 26,11.64 26,26 0,9.267 -4.852,17.396 -12.15,22 h 6.488 c 5.933,-5.478 9.662,-13.306 9.662,-22 m 138.828,16.828 -4,4 -0.667,0.668 -0.896,0.299 -12,4 -3.291,1.097 -1.552,-3.103 -2.894,-5.789 h -114.689 c -0.875,1.394 -1.847,2.73 -2.923,3.99 l 0.294,0.015 5.246,0.276 -1.661,4.984 -4,12 -0.912,2.735 h -2.883 -68 -3.123 l -19.566,-48 h -0.878 v -4.944 -0.845 l 3.989,-8 1.106,-2.211 h 2.472 9.528 2.472 12.935 l 3.065,-5.108 V -39.06 l -3.578,-7.155 -0.422,-0.845 v -0.66 l -7.634,-53.436 c -0.246,-1.722 0.267,-3.465 1.407,-4.779 1.141,-1.315 2.793,-2.069 4.533,-2.069 h 31.694 2 5.878 c 3.012,0 5.551,2.101 6.038,4.995 0.415,2.469 -0.724,4.899 -2.853,6.162 l 6.458,45.21 30.868,3.429 c 2.57,0.286 4.854,1.806 6.11,4.066 l 17.913,32.243 85.77,3.899 1.549,0.07 1.097,1.097 2.829,2.829 h 2.343 2.472 l 1.106,2.211 8,16 0.855,1.789 z" /></g></g></g></g></svg>