<svg xmlns="http://www.w3.org/2000/svg" xml:space="preserve" width="320" height="320"><defs><clipPath id="a" clipPathUnits="userSpaceOnUse"><path d="M0 256h256V0H0Z"/></clipPath></defs><g clip-path="url(#a)" transform="matrix(1.33333 0 0 -1.33333 -10.667 330.667)"><path d="M0 0c-6.62 0-12.006 5.381-12.006 11.994C-12.006 18.614-6.62 24 0 24c6.614 0 11.994-5.386 11.994-12.006C11.994 5.381 6.614 0 0 0m0 28c-8.818 0-16.006-7.176-16.006-16.005C-16.006 3.171-8.818-4 0-4c8.823 0 15.994 7.171 15.994 15.995C15.994 20.824 8.823 28 0 28" style="fill:#fff;fill-opacity:1;fill-rule:nonzero;stroke:none" transform="translate(128.006 116)"/><path d="M0 0c-64.071 0-116 51.934-116 116S-64.071 232 0 232c64.051 0 116-51.934 116-116S64.051 0 0 0m84.848 200.853C62.181 223.518 32.048 236 0 236c-32.055 0-62.191-12.482-84.855-35.147S-120 148.054-120 116s12.481-62.189 35.145-84.853C-62.191 8.482-32.055-4 0-4 32.048-4 62.181 8.482 84.848 31.147 107.516 53.813 120 83.948 120 116s-12.484 62.187-35.152 84.853" style="fill:#fff;fill-opacity:1;fill-rule:nonzero;stroke:none" transform="translate(128 12)"/><path d="M0 0c-22.057 0-40.003 17.944-40.003 40S-22.057 80 0 80c22.055 0 39.997-17.944 39.997-40S22.055 0 0 0m0 84c-24.267 0-44.003-19.739-44.003-44S-24.267-4 0-4c24.262 0 43.997 19.739 43.997 44S24.262 84 0 84" style="fill:#fff;fill-opacity:1;fill-rule:nonzero;stroke:none" transform="translate(128.002 88)"/></g></svg>