<?xml version="1.0" encoding="UTF-8" standalone="no"?>
<svg
   xmlns:dc="http://purl.org/dc/elements/1.1/"
   xmlns:cc="http://creativecommons.org/ns#"
   xmlns:rdf="http://www.w3.org/1999/02/22-rdf-syntax-ns#"
   xmlns:svg="http://www.w3.org/2000/svg"
   xmlns="http://www.w3.org/2000/svg"
   viewBox="0 0 320 213.33333"
   height="213.33333"
   width="320"
   xml:space="preserve"
   id="svg2"
   version="1.1"><metadata
     id="metadata8"><rdf:RDF><cc:Work
         rdf:about=""><dc:format>image/svg+xml</dc:format><dc:type
           rdf:resource="http://purl.org/dc/dcmitype/StillImage" /></cc:Work></rdf:RDF></metadata><defs
     id="defs6"><clipPath
       id="clipPath22"
       clipPathUnits="userSpaceOnUse"><path
         id="path20"
         d="M 0,256 H 256 V 0 H 0 Z" /></clipPath></defs><g
     transform="matrix(1.3333333,0,0,-1.3333333,-10.666666,277.33333)"
     id="g10"><g
       transform="translate(244,52)"
       id="g12"><path
         id="path14"
         style="fill:#ffffff;fill-opacity:1;fill-rule:nonzero;stroke:none"
         d="m 0,0 h -232 v 152 h 8 v -52 -4 h 4 212 4 v 4 52 h 4 z m -8,100 h -212 v 52 H -8 Z m 8,56 h -4 -4 -212 -4 -8 -4 V 152 0 -4 h 4 232 4 v 4 152 4 z" /></g><g
       id="g16"><g
         clip-path="url(#clipPath22)"
         id="g18"><g
           transform="translate(36,68)"
           id="g24"><path
             id="path26"
             style="fill:#ffffff;fill-opacity:1;fill-rule:nonzero;stroke:none"
             d="m 0,0 c 0,-2.209 -1.791,-4 -4,-4 -2.209,0 -4,1.791 -4,4 v 16 c 0,2.209 1.791,4 4,4 2.209,0 4,-1.791 4,-4 z m -4,24 c -4.411,0 -8,-3.589 -8,-8 V 0 c 0,-4.411 3.589,-8 8,-8 4.411,0 8,3.589 8,8 v 16 c 0,4.411 -3.589,8 -8,8" /></g><g
           transform="translate(228,68)"
           id="g28"><path
             id="path30"
             style="fill:#ffffff;fill-opacity:1;fill-rule:nonzero;stroke:none"
             d="m 0,0 c 0,-2.209 -1.791,-4 -4,-4 -2.209,0 -4,1.791 -4,4 v 16 c 0,2.209 1.791,4 4,4 2.209,0 4,-1.791 4,-4 z m -4,24 c -4.411,0 -8,-3.589 -8,-8 V 0 c 0,-4.411 3.589,-8 8,-8 4.411,0 8,3.589 8,8 v 16 c 0,4.411 -3.589,8 -8,8" /></g><g
           transform="translate(115.2,140)"
           id="g32"><path
             id="path34"
             style="fill:#ffffff;fill-opacity:1;fill-rule:nonzero;stroke:none"
             d="m 0,0 h 25.6 l 3.2,4 h -32 z" /></g><g
           transform="translate(121.6,132)"
           id="g36"><path
             id="path38"
             style="fill:#ffffff;fill-opacity:1;fill-rule:nonzero;stroke:none"
             d="M 0,0 H 12.8 L 16,4 H -3.2 Z" /></g><g
           transform="translate(128,124)"
           id="g40"><path
             id="path42"
             style="fill:#ffffff;fill-opacity:1;fill-rule:nonzero;stroke:none"
             d="M 0,0 3.2,4 H -3.2 Z" /></g></g></g></g></svg>