<svg xmlns="http://www.w3.org/2000/svg" xml:space="preserve" viewBox="0 0 256 256"><path d="M12 60v132h232V60zm28 128H16V64h24zm172 0H44V64h168zm28 0h-24V64h24z" style="fill:#fff"/><path d="M32 108h4V80H20v28zm-8-24h8v8h-8zm8 12v8h-8v-8zm0 36h4v-16H20v16zm-8-12h8v8h-8zm208-12h4V80h-16v28zm-8-24h8v8h-8zm8 12v8h-8v-8zm0 36h4v-16h-16v16zm-8-12h8v8h-8zM60 184h136a8 8 0 0 0 8-8V76a8 8 0 0 0-8-8H60a8 8 0 0 0-8 8v100a8 8 0 0 0 8 8M56 76c0-2.206 1.794-4 4-4h136c2.206 0 4 1.794 4 4v100c0 2.206-1.794 4-4 4H60c-2.206 0-4-1.794-4-4z" style="fill:#fff"/><path d="M64 115.778V172c0 2.206 1.794 4 4 4h120c2.206 0 4-1.794 4-4v-56.222l.024-.22 3.971-35.742A4.004 4.004 0 0 0 192 76H64a4.006 4.006 0 0 0-3.996 3.816l3.971 35.742zM191.951 80l-3.902 35.116-.024.22-.024.22V172H68v-56.444l-.024-.22-.024-.22L64.049 80z" style="fill:#fff"/><path d="M73.965 103.93h108.07a5.903 5.903 0 0 0 5.896-5.896v-8.07a5.903 5.903 0 0 0-5.896-5.896H73.965a5.903 5.903 0 0 0-5.896 5.896v8.07a5.903 5.903 0 0 0 5.896 5.896M72 89.965C72 88.88 72.88 88 73.965 88h108.07c1.085 0 1.965.88 1.965 1.965v8.07c0 1.085-.88 1.965-1.965 1.965H73.965A1.965 1.965 0 0 1 72 98.035zM96 108h-4v20h72v-20zm64 16H96v-12h64zm-20 8h-40v28h56v-28zm-4 24h-32v-20h32zm16 0h-12v-20h12z" style="fill:#fff"/></svg>