<svg xmlns="http://www.w3.org/2000/svg" xml:space="preserve" viewBox="0 0 256 256"><path d="M241.735 86.168C237.927 82.191 232.796 80 227.289 80H28.711c-5.507 0-10.637 2.191-14.446 6.168s-5.774 9.198-5.535 14.7l2.398 52.232c.59 12.841 11.121 22.9 23.975 22.9h185.795a23.964 23.964 0 0 0 23.975-22.899l2.398-52.222c.239-5.512-1.727-10.733-5.536-14.711M218 84a2 2 0 1 1 0 4h-4a2 2 0 1 1 0-4zM46 84a2 2 0 1 1 0 4h-4a2 2 0 1 1 0-4zM32 94h3a1 1 0 0 1 1 1v2a1 1 0 0 1-1 1h-3a2 2 0 0 0-2 2v3a1 1 0 0 1-1 1h-2a1 1 0 0 1-1-1v-3a2 2 0 0 0-2-2h-3a1 1 0 0 1-1-1v-2a1 1 0 0 1 1-1h3a2 2 0 0 0 2-2v-3a1 1 0 0 1 1-1h2a1 1 0 0 1 1 1v3a2 2 0 0 0 2 2m188.897 78H35.103c-10.689 0-19.489-8.405-19.979-19.083l-2.398-52.222c-.339-7.79 4.947-14.459 12.187-16.224C23.199 85.265 22 86.99 22 89v1h-1c-2.757 0-5 2.243-5 5v2c0 2.757 2.243 5 5 5h1v1c0 2.757 2.243 5 5 5h2c2.757 0 5-2.243 5-5v-1h1c2.757 0 5-2.243 5-5v-2c0-2.757-2.243-5-5-5h-1v-1c0-2.757-2.243-5-5-5h7.35a6 6 0 0 0-.35 2c0 3.308 2.692 6 6 6h4c3.308 0 6-2.692 6-6a6 6 0 0 0-.35-2h156.7a6 6 0 0 0-.35 2c0 3.308 2.692 6 6 6h4c3.308 0 6-2.692 6-6a6 6 0 0 0-.35-2h3.639c9.102 0 16.368 7.583 15.985 16.674a8.04 8.04 0 0 0-5.483-4.464C236.974 92.659 233.795 90 230 90s-6.974 2.659-7.791 6.209c-3.55.817-6.209 3.996-6.209 7.791s2.659 6.974 6.209 7.791c.816 3.551 3.996 6.209 7.791 6.209s6.974-2.659 7.791-6.209a8.04 8.04 0 0 0 5.15-3.823l-2.064 44.949c-.491 10.678-9.291 19.083-19.98 19.083M228 104a4 4 0 1 1-8 0 4 4 0 0 1 8 0m-2-6a4 4 0 1 1 8 0 4 4 0 0 1-8 0m4 8a4 4 0 1 1 0 8 4 4 0 0 1 0-8m2-2a4 4 0 1 1 8 0 4 4 0 0 1-8 0" style="fill:#fff"/><path d="M188 96H68v64h120zm-4 60H72v-56h112z" style="fill:#fff"/><path d="M220.769 116h-21.538a3.235 3.235 0 0 0-3.231 3.231V89a1 1 0 0 0-1-1H61a1 1 0 0 0-1 1v30.231A3.235 3.235 0 0 0 56.769 116H35.231A3.235 3.235 0 0 0 32 119.231v21.538A3.235 3.235 0 0 0 35.231 144H46c-3.308 0-6 2.692-6 6s2.692 6 6 6h8c3.308 0 6-2.692 6-6s-2.692-6-6-6h2.769A3.235 3.235 0 0 0 60 140.769V167a1 1 0 0 0 1 1h134a1 1 0 0 0 1-1v-26.231a3.235 3.235 0 0 0 3.231 3.231H202c-3.308 0-6 2.692-6 6s2.692 6 6 6h8c3.308 0 6-2.692 6-6s-2.692-6-6-6h10.769a3.235 3.235 0 0 0 3.231-3.231v-21.538a3.234 3.234 0 0 0-3.231-3.231M56 150a2 2 0 0 1-2 2h-8a2 2 0 1 1 0-4h8a2 2 0 0 1 2 2m0-10H36v-20h20zm136 24H64V92h128zm20-14a2 2 0 0 1-2 2h-8a2 2 0 1 1 0-4h8a2 2 0 0 1 2 2m8-10h-20v-20h20z" style="fill:#fff"/><path d="M206 112c5.523 0 10-4.477 10-10s-4.477-10-10-10-10 4.477-10 10 4.477 10 10 10m0-16c3.308 0 6 2.692 6 6s-2.692 6-6 6-6-2.692-6-6 2.692-6 6-6M50 92c-5.523 0-10 4.477-10 10s4.477 10 10 10 10-4.477 10-10-4.477-10-10-10m0 16c-3.308 0-6-2.692-6-6s2.692-6 6-6 6 2.692 6 6-2.692 6-6 6" style="fill:#fff"/></svg>