<svg xmlns="http://www.w3.org/2000/svg" xml:space="preserve" viewBox="0 0 256 256"><path d="M184 12c11.046 0 20 8.954 20 20v182c0 16.569-13.431 30-30 30H72c-11.046 0-20-8.954-20-20V32c0-11.046 8.954-20 20-20zm0-4H72C58.766 8 48 18.766 48 32v192c0 13.234 10.766 24 24 24h102c18.748 0 34-15.252 34-34V32c0-13.234-10.766-24-24-24" style="fill:#fff"/><path d="M153.091 176.936c6.025 0 10.909 4.884 10.909 10.909s-4.884 10.909-10.909 10.909-10.909-4.884-10.909-10.909 4.884-10.909 10.909-10.909m0-4c-8.221 0-14.909 6.688-14.909 14.909s6.688 14.909 14.909 14.909S168 196.066 168 187.845s-6.688-14.909-14.909-14.909m20.182-21.091c5.925 0 10.727 4.803 10.727 10.727s-4.803 10.727-10.727 10.727-10.727-4.803-10.727-10.727c-.001-5.924 4.802-10.727 10.727-10.727m0-4c-8.121 0-14.727 6.607-14.727 14.727s6.607 14.727 14.727 14.727S188 170.692 188 162.572s-6.607-14.727-14.727-14.727M108 148v16h16v16h-16v16H92v-16H76v-16h16v-16zm4-4H88v16H72v24h16v16h24v-16h16v-24h-16zm68-112a4 4 0 0 1 4 4v88a4 4 0 0 1-4 4H76a4 4 0 0 1-4-4V36a4 4 0 0 1 4-4zm0-4H76c-4.411 0-8 3.589-8 8v88c0 4.411 3.589 8 8 8h104c4.411 0 8-3.589 8-8V36c0-4.411-3.589-8-8-8" style="fill:#fff"/></svg>