<?xml version="1.0" encoding="UTF-8" standalone="no"?>
<svg
   xmlns:dc="http://purl.org/dc/elements/1.1/"
   xmlns:cc="http://creativecommons.org/ns#"
   xmlns:rdf="http://www.w3.org/1999/02/22-rdf-syntax-ns#"
   xmlns:svg="http://www.w3.org/2000/svg"
   xmlns="http://www.w3.org/2000/svg"
   viewBox="0 0 320 181.33333"
   height="181.33333"
   width="320"
   xml:space="preserve"
   id="svg2"
   version="1.1"><metadata
     id="metadata8"><rdf:RDF><cc:Work
         rdf:about=""><dc:format>image/svg+xml</dc:format><dc:type
           rdf:resource="http://purl.org/dc/dcmitype/StillImage" /></cc:Work></rdf:RDF></metadata><defs
     id="defs6"><clipPath
       id="clipPath20"
       clipPathUnits="userSpaceOnUse"><path
         id="path18"
         d="M 0,256 H 256 V 0 H 0 Z" /></clipPath></defs><g
     transform="matrix(1.3333333,0,0,-1.3333333,-10.666666,261.33333)"
     id="g10"><path
       id="path12"
       style="fill:#ffffff;fill-opacity:1;fill-rule:nonzero;stroke:none"
       d="m 12,192 h 232 v -8 H 12 Z M 244,64 H 12 v 88 h 4 4 v 4 16 h 216 v -16 -4 h 4 4 z M 16,176 v -20 h -4 v 20 4 h 232 v -4 -20 h -4 v 20 z m 228,20 H 12 8 v -4 -8 -4 -4 -20 -4 -88 -4 h 4 232 4 v 4 88 4 20 4 4 8 4 z" /><g
       id="g14"><g
         clip-path="url(#clipPath20)"
         id="g16"><g
           transform="translate(224,92)"
           id="g22"><path
             id="path24"
             style="fill:#ffffff;fill-opacity:1;fill-rule:nonzero;stroke:none"
             d="m 0,0 h -38 c -1.105,0 -2,0.895 -2,2 v 6 c 13.234,0 24,10.766 24,24 0,13.234 -10.766,24 -24,24 v 2 c 0,1.105 0.895,2 2,2 H 0 C 6.627,60 12,46.569 12,30 12,13.431 6.627,0 0,0 m -32,32 c 0,4.411 -3.589,8 -8,8 v 4 c 6.627,0 12,-5.373 12,-12 0,-6.627 -5.373,-12 -12,-12 v 4 c 4.411,0 8,3.589 8,8 m -8,4 c 2.209,0 4,-1.791 4,-4 0,-2.209 -1.791,-4 -4,-4 z m 0,-20 c 8.822,0 16,7.178 16,16 0,8.822 -7.178,16 -16,16 v 4 c 11.046,0 20,-8.954 20,-20 0,-11.046 -8.954,-20 -20,-20 z M -48,4 c 0,-2.209 -1.791,-4 -4,-4 h -88 c -2.209,0 -4,1.791 -4,4 v 52 c 0,2.209 1.791,4 4,4 h 88 c 2.209,0 4,-1.791 4,-4 z m -112,28 c 0,-4.411 3.589,-8 8,-8 v -8 c -8.837,0 -16,7.163 -16,16 0,8.837 7.163,16 16,16 v -8 c -4.411,0 -8,-3.589 -8,-8 m 8,-4 c -2.209,0 -4,1.791 -4,4 0,2.209 1.791,4 4,4 z m 0,-26 c 0,-1.105 -0.895,-2 -2,-2 h -14 -15.768 C -191.371,8.493 -196,19.704 -196,32 c 0,10.453 3.352,20.118 9.024,28 h 18.976 14 c 1.105,0 2,-0.895 2,-2 v -6 c -11.028,0 -20,-8.972 -20,-20 0,-11.028 8.972,-20 20,-20 z m -52,28 c 0,16.569 5.373,30 12,30 h 0.2 c -5.368,-8.367 -8.2,-17.986 -8.2,-28 0,-11.65 3.904,-22.88 11.036,-32 H -192 c -6.627,0 -12,13.431 -12,30 M 0,64 h -38 c -3.308,0 -6,-2.692 -6,-6 v -2 c 0,4.411 -3.589,8 -8,8 h -88 c -4.411,0 -8,-3.589 -8,-8 v 2 c 0,3.308 -2.692,6 -6,6 h -14 -18.976 -2.049 -2.975 c -2.868,0 -8.266,-1.468 -12.199,-11.301 C -206.65,46.571 -208,38.51 -208,30 c 0,-16.896 5.496,-34 16,-34 h 6.444 1.788 15.768 14 c 3.308,0 6,2.692 6,6 v 2 c 0,-4.411 3.589,-8 8,-8 h 88 c 4.411,0 8,3.589 8,8 V 2 c 0,-3.308 2.692,-6 6,-6 H 0 C 2.868,-4 8.266,-2.532 12.199,7.301 14.65,13.429 16,21.49 16,30 16,46.896 10.504,64 0,64" /></g></g></g></g></svg>