<?xml version="1.0" encoding="UTF-8" standalone="no"?>
<svg
   xmlns:dc="http://purl.org/dc/elements/1.1/"
   xmlns:cc="http://creativecommons.org/ns#"
   xmlns:rdf="http://www.w3.org/1999/02/22-rdf-syntax-ns#"
   xmlns:svg="http://www.w3.org/2000/svg"
   xmlns="http://www.w3.org/2000/svg"
   viewBox="0 0 320 320"
   height="320"
   width="320"
   xml:space="preserve"
   id="svg2"
   version="1.1"><metadata
     id="metadata8"><rdf:RDF><cc:Work
         rdf:about=""><dc:format>image/svg+xml</dc:format><dc:type
           rdf:resource="http://purl.org/dc/dcmitype/StillImage" /></cc:Work></rdf:RDF></metadata><defs
     id="defs6"><clipPath
       id="clipPath18"
       clipPathUnits="userSpaceOnUse"><path
         id="path16"
         d="M 0,256 H 256 V 0 H 0 Z" /></clipPath></defs><g
     transform="matrix(1.3333333,0,0,-1.3333333,-10.666666,330.66666)"
     id="g10"><g
       id="g12"><g
         clip-path="url(#clipPath18)"
         id="g14"><g
           transform="translate(120,248)"
           id="g20"><path
             id="path22"
             style="fill:#ffffff;fill-opacity:1;fill-rule:nonzero;stroke:none"
             d="M 0,0 C -45.145,0 -73.132,-3.578 -76.272,-4 H -108 h -4 v -4 -224 -4 h 4 31.728 c 3.14,-0.422 31.127,-4 76.272,-4 47.555,0 123.449,3.966 124.21,4.006 l 3.79,0.199 V -232 -8 -4.205 l -3.79,0.2 C 123.449,-3.965 47.555,0 0,0 m 0,-4 c 48,0 124,-4 124,-4 v -224 c 0,0 -76,-4 -124,-4 -48,0 -76,4 -76,4 h -32 V -8 h 32 c 0,0 28,4 76,4" /></g><g
           transform="translate(52,196.3457)"
           id="g24"><path
             id="path26"
             style="fill:#ffffff;fill-opacity:1;fill-rule:nonzero;stroke:none"
             d="m 0,0 h -26 c -1.104,0 -2,-0.896 -2,-2 0,-1.104 0.896,-2 2,-2 H 0 c 0,0 18.75,0 34.465,3.631 C 35.368,-0.16 36,0.654 36,1.581 V 1.653 C 36,2.881 34.911,3.821 33.697,3.629 27.404,2.638 9.745,0 0,0" /></g><g
           transform="translate(52,184)"
           id="g28"><path
             id="path30"
             style="fill:#ffffff;fill-opacity:1;fill-rule:nonzero;stroke:none"
             d="m 0,0 h -26 c -1.104,0 -2,-0.896 -2,-2 0,-1.104 0.896,-2 2,-2 H 0 c 0,0 18.75,0 34.465,3.631 C 35.368,-0.16 36,0.654 36,1.581 V 1.653 C 36,2.881 34.911,3.821 33.697,3.629 27.404,2.638 9.745,0 0,0" /></g><g
           transform="translate(52,172)"
           id="g32"><path
             id="path34"
             style="fill:#ffffff;fill-opacity:1;fill-rule:nonzero;stroke:none"
             d="m 0,0 h -26 c -1.104,0 -2,-0.896 -2,-2 0,-1.104 0.896,-2 2,-2 H 0 c 0,0 18.75,0 34.465,3.631 C 35.368,-0.16 36,0.654 36,1.581 V 1.653 C 36,2.881 34.911,3.821 33.697,3.629 27.404,2.638 9.745,0 0,0" /></g><g
           transform="translate(52,160)"
           id="g36"><path
             id="path38"
             style="fill:#ffffff;fill-opacity:1;fill-rule:nonzero;stroke:none"
             d="m 0,0 h -26 c -1.104,0 -2,-0.896 -2,-2 0,-1.104 0.896,-2 2,-2 H 0 c 0,0 18.75,0 34.465,3.631 C 35.368,-0.16 36,0.654 36,1.581 V 1.653 C 36,2.881 34.911,3.821 33.697,3.629 27.404,2.638 9.745,0 0,0" /></g><g
           transform="translate(52,148)"
           id="g40"><path
             id="path42"
             style="fill:#ffffff;fill-opacity:1;fill-rule:nonzero;stroke:none"
             d="m 0,0 h -26 c -1.104,0 -2,-0.896 -2,-2 0,-1.104 0.896,-2 2,-2 H 0 c 0,0 18.75,0 34.465,3.631 C 35.368,-0.16 36,0.654 36,1.581 V 1.653 C 36,2.881 34.911,3.821 33.697,3.629 27.404,2.638 9.745,0 0,0" /></g><g
           transform="translate(52,136)"
           id="g44"><path
             id="path46"
             style="fill:#ffffff;fill-opacity:1;fill-rule:nonzero;stroke:none"
             d="m 0,0 h -26 c -1.104,0 -2,-0.896 -2,-2 0,-1.104 0.896,-2 2,-2 H 0 c 0,0 18.75,0 34.465,3.631 C 35.368,-0.16 36,0.654 36,1.581 V 1.653 C 36,2.881 34.911,3.821 33.697,3.629 27.404,2.638 9.745,0 0,0" /></g><g
           transform="translate(52,124)"
           id="g48"><path
             id="path50"
             style="fill:#ffffff;fill-opacity:1;fill-rule:nonzero;stroke:none"
             d="m 0,0 h -26 c -1.104,0 -2,-0.896 -2,-2 0,-1.104 0.896,-2 2,-2 H 0 c 0,0 18.75,0 34.465,3.631 C 35.368,-0.16 36,0.654 36,1.581 V 1.652 C 36,2.881 34.911,3.821 33.697,3.629 27.404,2.638 9.745,0 0,0" /></g><g
           transform="translate(52,112)"
           id="g52"><path
             id="path54"
             style="fill:#ffffff;fill-opacity:1;fill-rule:nonzero;stroke:none"
             d="m 0,0 h -26 c -1.104,0 -2,-0.896 -2,-2 0,-1.104 0.896,-2 2,-2 H 0 c 0,0 18.75,0 34.465,3.631 C 35.368,-0.16 36,0.654 36,1.581 V 1.652 C 36,2.881 34.911,3.82 33.697,3.63 27.404,2.638 9.745,0 0,0" /></g><g
           transform="translate(52,100)"
           id="g56"><path
             id="path58"
             style="fill:#ffffff;fill-opacity:1;fill-rule:nonzero;stroke:none"
             d="m 0,0 h -26 c -1.104,0 -2,-0.896 -2,-2 0,-1.104 0.896,-2 2,-2 H 0 c 0,0 18.75,0 34.465,3.631 C 35.368,-0.16 36,0.654 36,1.581 V 1.652 C 36,2.881 34.911,3.82 33.697,3.63 27.404,2.638 9.745,0 0,0" /></g><g
           transform="translate(52,88)"
           id="g60"><path
             id="path62"
             style="fill:#ffffff;fill-opacity:1;fill-rule:nonzero;stroke:none"
             d="m 0,0 h -26 c -1.104,0 -2,-0.896 -2,-2 0,-1.104 0.896,-2 2,-2 H 0 c 0,0 18.75,0 34.465,3.631 C 35.368,-0.16 36,0.654 36,1.581 V 1.652 C 36,2.881 34.911,3.82 33.697,3.63 27.404,2.638 9.745,0 0,0" /></g><g
           transform="translate(52,76)"
           id="g64"><path
             id="path66"
             style="fill:#ffffff;fill-opacity:1;fill-rule:nonzero;stroke:none"
             d="m 0,0 h -26 c -1.104,0 -2,-0.896 -2,-2 0,-1.104 0.896,-2 2,-2 H 0 c 0,0 18.75,0 34.465,3.631 C 35.368,-0.16 36,0.654 36,1.581 V 1.652 C 36,2.881 34.911,3.82 33.697,3.63 27.404,2.638 9.745,0 0,0" /></g><g
           transform="translate(52,64)"
           id="g68"><path
             id="path70"
             style="fill:#ffffff;fill-opacity:1;fill-rule:nonzero;stroke:none"
             d="m 0,0 h -26 c -1.104,0 -2,-0.896 -2,-2 0,-1.104 0.896,-2 2,-2 H 0 c 0,0 18.75,0 34.465,3.631 C 35.368,-0.16 36,0.654 36,1.581 V 1.652 C 36,2.881 34.911,3.82 33.697,3.63 27.404,2.638 9.745,0 0,0" /></g></g></g></g></svg>