<?xml version="1.0" encoding="UTF-8" standalone="no"?>
<svg
   xmlns:dc="http://purl.org/dc/elements/1.1/"
   xmlns:cc="http://creativecommons.org/ns#"
   xmlns:rdf="http://www.w3.org/1999/02/22-rdf-syntax-ns#"
   xmlns:svg="http://www.w3.org/2000/svg"
   xmlns="http://www.w3.org/2000/svg"
   xmlns:sodipodi="http://sodipodi.sourceforge.net/DTD/sodipodi-0.dtd"
   xmlns:inkscape="http://www.inkscape.org/namespaces/inkscape"
   viewBox="0 0 341.33334 341.33334"
   height="256"
   width="256"
   xml:space="preserve"
   id="svg2"
   version="1.1"
   sodipodi:docname="Atari - Jaguar-content.svg"
   inkscape:version="0.92.2 (5c3e80d, 2017-08-06)"
   inkscape:export-filename="D:\Documents\Github\Retrosystem-retroarch-theme\png\Atari - Jaguar-content.png"
   inkscape:export-xdpi="96"
   inkscape:export-ydpi="96"><sodipodi:namedview
     pagecolor="#ffffff"
     bordercolor="#666666"
     borderopacity="1"
     objecttolerance="10"
     gridtolerance="10"
     guidetolerance="10"
     inkscape:pageopacity="0"
     inkscape:pageshadow="2"
     inkscape:window-width="1024"
     inkscape:window-height="705"
     id="namedview101"
     showgrid="false"
     inkscape:pagecheckerboard="true"
     inkscape:zoom="1.9555922"
     inkscape:cx="125.00948"
     inkscape:cy="118.94389"
     inkscape:window-x="-8"
     inkscape:window-y="-8"
     inkscape:window-maximized="1"
     inkscape:current-layer="svg2" /><metadata
     id="metadata8"><rdf:RDF><cc:Work
         rdf:about=""><dc:format>image/svg+xml</dc:format><dc:type
           rdf:resource="http://purl.org/dc/dcmitype/StillImage" /><dc:title /></cc:Work></rdf:RDF></metadata><defs
     id="defs6"><clipPath
       id="clipPath18"
       clipPathUnits="userSpaceOnUse"><path
         id="path16"
         d="M 0,256 H 256 V 0 H 0 Z" /></clipPath><clipPath
       id="clipPath26"
       clipPathUnits="userSpaceOnUse"><path
         id="path24"
         d="M 4,236 H 252 V 20 H 4 Z" /></clipPath></defs><g
     id="g36"
     transform="matrix(1.3333333,0,0,-1.3333333,318.88893,37.333338)"
     style="fill:#262626;fill-opacity:1;"><path
       inkscape:connector-curvature="0"
       d="m 0,0 c -14.5,0 -77.333,-5 -111.167,-5 -33.833,0 -96.666,5 -111.166,5 -4.834,0 -4.834,-2.235 -4.834,-5 v -20 c 0,-2.765 0,-5 4.834,-5 1.285,0 2.972,-0.05 4.833,-0.12 V -40 c -2.673,0 -4.833,-2.235 -4.833,-5 v -150 c 0,-2.765 2.16,-5 4.833,-5 H -4.833 c 2.673,0 4.833,2.235 4.833,5 v 150 c 0,2.765 -2.16,5 -4.833,5 v 9.88 c 1.86,0.07 3.547,0.12 4.833,0.12 4.833,0 4.833,2.235 4.833,5 v 20 c 0,2.765 0,5 -4.833,5"
       style="fill:#262626;fill-opacity:1;fill-rule:nonzero;stroke:none"
       id="path38" /></g><path
     inkscape:connector-curvature="0"
     d="M 309.33333,277.33333 H 31.999999 V 272 H 309.33333 Z"
     style="fill:#141414;fill-opacity:1;fill-rule:nonzero;stroke:none;stroke-width:1.33333325"
     id="path40" /><path
     inkscape:connector-curvature="0"
     d="M 309.33333,266.66667 H 31.999999 v -5.33334 H 309.33333 Z"
     style="fill:#141414;fill-opacity:1;fill-rule:nonzero;stroke:none;stroke-width:1.33333325"
     id="path42" /><path
     inkscape:connector-curvature="0"
     d="M 309.33333,256 H 31.999999 v -5.33333 H 309.33333 Z"
     style="fill:#141414;fill-opacity:1;fill-rule:nonzero;stroke:none;stroke-width:1.33333325"
     id="path44" /><g
     id="g46"
     transform="matrix(1.3333333,0,0,-1.3333333,309.33333,230.66667)"
     style="fill:#141414;fill-opacity:1"><path
       inkscape:connector-curvature="0"
       d="m 0,0 c 0,-2.765 -2.214,-5 -4.952,-5 h -198.096 c -2.738,0 -4.952,2.235 -4.952,5 v 90 c 0,2.765 2.214,5 4.952,5 H -4.952 C -2.214,95 0,92.765 0,90 Z"
       style="fill:#141414;fill-opacity:1;fill-rule:nonzero;stroke:none"
       id="path48" /></g><g
     id="g50"
     transform="matrix(1.3333333,0,0,-1.3333333,303.99999,224.33333)"><path
       inkscape:connector-curvature="0"
       d="m 0,0 c 0,-3.18 -2.353,-5.75 -5.263,-5.75 h -189.474 c -2.91,0 -5.263,2.57 -5.263,5.75 v 80.5 c 0,3.18 2.353,5.75 5.263,5.75 H -5.263 C -2.353,86.25 0,83.68 0,80.5 Z"
       style="fill:#000000;fill-opacity:1;fill-rule:nonzero;stroke:none"
       id="path52" /></g><g
     id="g54"
     transform="matrix(1.3333333,0,0,-1.3333333,50.664399,212.39267)"
     style="fill:#ff0000"><path
       inkscape:connector-curvature="0"
       d="M 0,0 C 0.294,-0.575 0.44,-0.878 0.44,-0.911 0.345,-1.03 0.257,-1.156 0.176,-1.288 0.095,-1.42 0.007,-1.555 -0.088,-1.694 -0.176,-1.813 -0.29,-1.915 -0.429,-2.001 -0.569,-2.087 -0.73,-2.16 -0.914,-2.219 -1.178,-2.312 -1.427,-2.403 -1.662,-2.492 -1.897,-2.581 -2.11,-2.668 -2.3,-2.754 c -0.213,-0.093 -0.443,-0.154 -0.688,-0.184 -0.246,-0.029 -0.483,-0.057 -0.71,-0.084 -0.162,-0.039 -0.321,-0.064 -0.479,-0.074 -0.158,-0.01 -0.303,-0.015 -0.435,-0.015 -0.11,0 -0.202,0.005 -0.275,0.015 -0.074,0.01 -0.136,0.028 -0.187,0.054 -0.066,0.04 -0.131,0.08 -0.193,0.119 -0.062,0.04 -0.123,0.076 -0.182,0.109 -0.124,0.066 -0.22,0.116 -0.286,0.149 -0.088,0.046 -0.152,0.178 -0.192,0.396 -0.041,0.218 -0.061,0.535 -0.061,0.953 0,0.291 0.092,0.753 0.275,1.387 0.184,0.634 0.275,1.058 0.275,1.27 0,0.046 -0.007,0.11 -0.022,0.193 -0.014,0.083 -0.022,0.15 -0.022,0.203 0,0.185 0.072,0.606 0.215,1.263 0.143,0.659 0.215,1.117 0.215,1.374 0,0.126 -0.053,0.216 -0.16,0.273 -0.106,0.056 -0.159,0.14 -0.159,0.252 0,0.159 0.014,0.337 0.044,0.535 0.029,0.198 0.08,0.416 0.154,0.652 0.058,0.192 0.113,0.385 0.165,0.58 0.051,0.195 0.102,0.385 0.154,0.57 0.051,0.218 0.104,0.439 0.159,0.664 0.055,0.222 0.101,0.44 0.138,0.652 0.044,0.145 0.114,0.323 0.209,0.535 0.096,0.211 0.209,0.452 0.341,0.723 0.066,0.132 0.125,0.256 0.177,0.37 0.051,0.115 0.106,0.239 0.165,0.371 0.058,0.106 0.143,0.2 0.253,0.283 0.11,0.082 0.246,0.157 0.407,0.223 0.132,0.046 0.25,0.081 0.352,0.104 0.103,0.023 0.173,0.034 0.209,0.034 0.199,0 0.343,-0.061 0.435,-0.183 0.092,-0.122 0.138,-0.309 0.138,-0.56 0,-0.079 -0.006,-0.17 -0.017,-0.272 C -1.899,10.078 -1.926,9.96 -1.97,9.828 -2,9.689 -2.027,9.571 -2.053,9.472 -2.079,9.372 -2.099,9.293 -2.113,9.234 -2.121,9.075 -2.132,8.93 -2.146,8.798 -2.161,8.666 -2.179,8.544 -2.201,8.431 -2.245,8.352 -2.304,8.256 -2.378,8.144 -2.429,7.833 -2.471,7.574 -2.504,7.366 -2.537,7.158 -2.554,7.011 -2.554,6.925 -2.554,6.648 -2.633,6.299 -2.79,5.88 -2.948,5.461 -3.027,5.142 -3.027,4.924 -3.027,4.832 -3.045,4.711 -3.082,4.562 -3.119,4.414 -3.174,4.237 -3.247,4.032 -3.328,3.755 -3.392,3.54 -3.44,3.388 -3.487,3.236 -3.519,3.144 -3.533,3.111 -3.548,3.012 -3.564,2.896 -3.583,2.764 -3.601,2.632 -3.629,2.477 -3.665,2.299 -3.834,1.579 -3.961,0.982 -4.045,0.51 -4.13,0.038 -4.172,-0.317 -4.172,-0.555 c 0,-0.218 0.026,-0.386 0.077,-0.505 0.052,-0.119 0.129,-0.178 0.231,-0.178 0.463,0 0.931,0.046 1.404,0.138 0.473,0.093 0.967,0.228 1.48,0.406 0.059,0.007 0.116,0.02 0.171,0.04 0.055,0.02 0.112,0.04 0.171,0.06 0.088,0.092 0.154,0.178 0.198,0.257 0.095,0.053 0.18,0.107 0.253,0.164 C -0.114,-0.117 -0.051,-0.059 0,0"
       style="fill:#ff0000;fill-opacity:1;fill-rule:nonzero;stroke:none"
       id="path56" /></g><g
     id="g58"
     transform="matrix(1.3333333,0,0,-1.3333333,52.645732,213.39667)"
     style="fill:#ff0000"><path
       inkscape:connector-curvature="0"
       d="M 0,0 C 0,0.37 0.017,0.682 0.05,0.936 0.083,1.191 0.121,1.39 0.165,1.536 0.15,1.648 0.132,1.764 0.11,1.882 0.11,2.021 0.128,2.252 0.165,2.576 0.202,2.9 0.257,3.322 0.33,3.844 0.396,4.346 0.453,4.734 0.501,5.008 0.549,5.282 0.583,5.449 0.605,5.509 0.591,5.621 0.574,5.743 0.556,5.875 0.538,6.007 0.506,6.153 0.462,6.311 L 0.22,6.47 0.165,6.588 c 0.015,0.185 0.028,0.372 0.039,0.56 0.011,0.188 0.034,0.378 0.071,0.57 0.015,0.238 0.05,0.446 0.105,0.624 0.055,0.178 0.112,0.334 0.17,0.466 0.022,0.033 0.046,0.079 0.072,0.138 0.026,0.06 0.06,0.123 0.104,0.189 0.067,0.237 0.133,0.475 0.199,0.713 0.066,0.238 0.135,0.469 0.209,0.694 0.11,0.224 0.268,0.406 0.473,0.544 0.206,0.139 0.455,0.228 0.749,0.268 0.205,0.099 0.381,0.173 0.528,0.223 0.147,0.049 0.264,0.074 0.352,0.074 0.103,0 0.184,-0.036 0.242,-0.109 0.059,-0.072 0.088,-0.175 0.088,-0.307 0,-0.053 -0.029,-0.236 -0.088,-0.55 C 3.42,10.371 3.328,9.937 3.203,9.382 3.181,9.197 3.144,8.978 3.093,8.724 3.042,8.469 2.972,8.167 2.884,7.817 2.774,7.427 2.666,7 2.559,6.534 2.453,6.068 2.356,5.555 2.267,4.993 2.231,4.756 2.19,4.521 2.146,4.29 2.102,4.059 2.062,3.824 2.025,3.587 1.981,3.316 1.943,3.06 1.91,2.819 1.877,2.578 1.86,2.361 1.86,2.17 1.86,2.097 1.866,2.028 1.877,1.962 1.888,1.896 1.893,1.833 1.893,1.773 1.908,1.701 1.906,1.605 1.888,1.486 1.869,1.367 1.849,1.225 1.827,1.06 1.798,0.902 1.772,0.758 1.75,0.629 1.728,0.5 1.717,0.403 1.717,0.337 1.717,0 1.726,-0.272 1.745,-0.481 c 0.018,-0.208 0.038,-0.345 0.06,-0.411 0.052,-0.178 0.103,-0.37 0.154,-0.574 0,-0.113 -0.165,-0.279 -0.495,-0.501 -0.33,-0.221 -0.569,-0.332 -0.716,-0.332 -0.088,0 -0.166,0.029 -0.236,0.085 -0.07,0.056 -0.141,0.14 -0.215,0.252 -0.051,0.106 -0.092,0.202 -0.121,0.288 -0.029,0.086 -0.044,0.165 -0.044,0.237 0,0.04 0.015,0.103 0.044,0.189 C 0.205,-1.162 0.22,-1.1 0.22,-1.06 0.161,-0.862 0.095,-0.697 0.022,-0.565 0.007,-0.631 0,-0.618 0,-0.525 Z"
       style="fill:#ff0000;fill-opacity:1;fill-rule:nonzero;stroke:none"
       id="path60" /></g><g
     id="g62"
     transform="matrix(1.3333333,0,0,-1.3333333,65.281865,200.04133)"
     style="fill:#ff0000"><path
       inkscape:connector-curvature="0"
       d="M 0,0 C -0.279,0 -0.504,-0.018 -0.677,-0.054 -0.849,-0.091 -0.972,-0.149 -1.046,-0.228 -1.104,-0.281 -1.165,-0.383 -1.227,-0.535 -1.29,-0.687 -1.358,-0.895 -1.431,-1.158 -1.46,-1.303 -1.48,-1.465 -1.491,-1.643 -1.502,-1.821 -1.504,-2.016 -1.497,-2.228 -1.578,-2.399 -1.662,-2.545 -1.75,-2.663 l 0.055,-0.256 c -0.088,-0.331 -0.151,-0.595 -0.187,-0.793 -0.037,-0.198 -0.055,-0.33 -0.055,-0.396 0,-0.099 0.022,-0.169 0.066,-0.208 0.044,-0.04 0.106,-0.06 0.187,-0.06 0.073,0 0.248,0.073 0.523,0.218 0.275,0.145 0.655,0.363 1.139,0.654 0.536,0.317 0.945,0.558 1.227,0.727 0.283,0.168 0.446,0.262 0.49,0.282 0.096,0.106 0.189,0.21 0.281,0.312 0.092,0.102 0.181,0.203 0.269,0.302 0.125,0.139 0.217,0.263 0.276,0.372 0.058,0.109 0.088,0.206 0.088,0.292 0,0.157 -0.055,0.299 -0.165,0.424 -0.11,0.126 -0.276,0.235 -0.496,0.327 C 1.875,-0.439 1.745,-0.4 1.558,-0.347 1.37,-0.294 1.13,-0.241 0.837,-0.188 0.594,-0.129 0.404,-0.083 0.264,-0.05 0.125,-0.017 0.037,0 0,0 m -2.135,-7.427 c -0.118,0 -0.219,-0.091 -0.303,-0.273 -0.084,-0.181 -0.152,-0.451 -0.204,-0.807 -0.029,-0.332 -0.058,-0.664 -0.088,-0.998 -0.029,-0.333 -0.058,-0.665 -0.088,-0.997 -0.044,-0.165 -0.081,-0.34 -0.11,-0.525 l 0.022,-0.099 0.088,-0.04 c 0.294,0.073 0.62,0.149 0.98,0.228 0.249,0 0.398,0.022 0.446,0.065 0.047,0.043 0.64,0.292 1.777,0.749 0.485,0.185 0.848,0.359 1.09,0.52 0.242,0.162 0.363,0.303 0.363,0.421 0,0.073 -0.033,0.142 -0.099,0.208 -0.066,0.067 -0.165,0.136 -0.297,0.209 -0.345,0.199 -0.727,0.379 -1.145,0.541 -0.418,0.162 -0.877,0.309 -1.376,0.441 -0.066,0.02 -0.141,0.041 -0.225,0.064 -0.085,0.024 -0.178,0.048 -0.281,0.075 -0.161,0.066 -0.284,0.119 -0.369,0.158 -0.084,0.04 -0.145,0.06 -0.181,0.06 m -3.38,-4.7 c 0.066,0.053 0.16,0.124 0.281,0.213 0.121,0.089 0.277,0.197 0.468,0.322 0.147,0.086 0.253,0.169 0.319,0.248 0.066,0.079 0.099,0.162 0.099,0.248 0,0.31 -0.002,0.51 -0.005,0.596 -0.004,0.086 -0.006,0.152 -0.006,0.198 0,0.634 0.019,1.129 0.055,1.488 0.037,0.356 0.085,0.578 0.143,0.663 l -0.022,0.298 -0.066,0.069 c 0,0.073 0.002,0.137 0.006,0.193 0.003,0.056 0.005,0.104 0.005,0.144 0,0.363 -0.178,0.596 -0.534,0.695 -0.356,0.099 -0.533,0.301 -0.533,0.604 0,0.093 0.102,0.207 0.308,0.342 0.205,0.136 0.506,0.299 0.902,0.491 0.052,0.322 0.107,0.675 0.165,1.058 0.059,0.383 0.129,0.806 0.21,1.267 -0.03,0.085 -0.052,0.156 -0.066,0.213 -0.015,0.056 -0.022,0.107 -0.022,0.153 0,0.231 0.029,0.443 0.088,0.634 0.058,0.192 0.139,0.373 0.242,0.545 0.066,0.093 0.15,0.192 0.253,0.301 0.103,0.109 0.227,0.229 0.374,0.361 0.118,0.099 0.206,0.187 0.264,0.263 0.059,0.076 0.088,0.137 0.088,0.183 0,0.053 -0.023,0.096 -0.071,0.129 -0.048,0.033 -0.116,0.049 -0.204,0.049 -0.271,0 -0.671,-0.077 -1.2,-0.232 -0.528,-0.156 -0.924,-0.233 -1.188,-0.233 -0.088,0 -0.153,0.01 -0.193,0.03 -0.04,0.019 -0.061,0.052 -0.061,0.099 0,0.132 0.008,0.247 0.022,0.346 0.015,0.099 0.034,0.169 0.056,0.208 0.124,0.086 0.221,0.169 0.291,0.248 0.07,0.079 0.105,0.159 0.105,0.238 0,0.033 0.038,0.076 0.115,0.129 0.077,0.053 0.2,0.099 0.369,0.138 0.675,0.172 1.191,0.304 1.547,0.397 0.356,0.092 0.559,0.145 0.611,0.158 0.41,0.093 0.803,0.16 1.177,0.203 0.375,0.043 0.723,0.065 1.046,0.065 0.037,0 0.11,-0.009 0.22,-0.025 C 0.253,1.593 0.327,1.592 0.363,1.605 0.51,1.625 0.664,1.648 0.826,1.674 0.87,1.674 0.998,1.656 1.211,1.62 1.424,1.584 1.721,1.532 2.102,1.466 2.183,1.48 2.271,1.496 2.367,1.516 2.579,1.516 2.757,1.486 2.9,1.427 3.043,1.367 3.155,1.285 3.236,1.179 3.339,1.159 3.438,1.149 3.533,1.149 3.724,1.149 3.898,1.101 4.056,1.006 4.214,0.91 4.352,0.773 4.469,0.594 4.572,0.423 4.652,0.254 4.711,0.086 4.77,-0.083 4.799,-0.256 4.799,-0.434 4.799,-0.784 4.717,-1.116 4.551,-1.43 4.386,-1.744 4.139,-2.036 3.808,-2.305 3.772,-2.325 3.594,-2.442 3.275,-2.657 2.955,-2.872 2.491,-3.17 1.882,-3.553 1.816,-3.593 1.739,-3.649 1.651,-3.722 1.563,-3.795 1.457,-3.871 1.332,-3.95 0.73,-4.273 0.15,-4.584 -0.407,-4.879 c -0.47,-0.232 -0.826,-0.426 -1.068,-0.585 -0.242,-0.158 -0.363,-0.271 -0.363,-0.337 0,-0.132 0.062,-0.249 0.187,-0.352 0.125,-0.102 0.315,-0.193 0.572,-0.272 0.375,-0.119 0.796,-0.254 1.266,-0.406 0.47,-0.154 0.972,-0.335 1.508,-0.547 0.051,-0.013 0.116,-0.039 0.193,-0.079 0.077,-0.04 0.163,-0.083 0.258,-0.129 0.631,-0.211 1.099,-0.47 1.404,-0.778 0.304,-0.307 0.457,-0.662 0.457,-1.066 0,-0.588 -0.589,-1.146 -1.767,-1.675 -1.178,-0.53 -2.941,-1.032 -5.289,-1.507 -0.037,-0.093 -0.079,-0.185 -0.127,-0.278 -0.047,-0.092 -0.089,-0.181 -0.126,-0.267 -0.052,-0.073 -0.125,-0.131 -0.22,-0.173 -0.096,-0.043 -0.206,-0.065 -0.331,-0.065 -0.139,0 -0.249,0.045 -0.33,0.134 -0.08,0.089 -0.135,0.229 -0.165,0.421 -0.059,0.046 -0.106,0.066 -0.143,0.059 l -0.627,-0.148 c -0.081,0.039 -0.156,0.074 -0.226,0.104 -0.07,0.03 -0.141,0.061 -0.215,0.094 -0.073,0.04 -0.132,0.087 -0.176,0.144 -0.044,0.056 -0.066,0.117 -0.066,0.183 0,0.059 0.024,0.107 0.072,0.144 0.047,0.036 0.119,0.08 0.214,0.133"
       style="fill:#ff0000;fill-opacity:1;fill-rule:nonzero;stroke:none"
       id="path64" /></g><g
     id="g66"
     transform="matrix(1.3333333,0,0,-1.3333333,74.821465,202.5512)"
     style="fill:#ff0000"><path
       inkscape:connector-curvature="0"
       d="M 0,0 C 0.139,0.092 0.271,0.183 0.396,0.272 0.521,0.362 0.682,0.406 0.881,0.406 0.969,0.406 1.077,0.32 1.205,0.145 1.334,-0.03 1.398,-0.16 1.398,-0.246 1.398,-0.292 1.38,-0.398 1.343,-0.563 1.306,-0.728 1.247,-0.953 1.167,-1.237 0.998,-1.877 0.903,-2.277 0.881,-2.439 0.859,-2.601 0.811,-2.853 0.737,-3.197 0.708,-3.283 0.679,-3.395 0.649,-3.534 c 0,-0.059 0.013,-0.102 0.039,-0.128 0.026,-0.027 0.06,-0.04 0.105,-0.04 1.46,0.66 2.216,1.004 2.267,1.03 0.059,0.014 0.121,0.032 0.187,0.055 0.066,0.023 0.129,0.048 0.187,0.074 l 0.165,0.188 c 0.426,0.245 0.866,0.504 1.321,0.781 0.286,0.199 0.499,0.393 0.639,0.585 0.139,0.191 0.209,0.383 0.209,0.575 0,0.244 -0.158,0.485 -0.474,0.721 C 4.979,0.545 4.506,0.773 3.875,0.991 3.339,1.182 2.851,1.323 2.411,1.412 1.97,1.501 1.57,1.546 1.211,1.546 0.741,1.546 0.387,1.471 0.149,1.323 -0.09,1.174 -0.209,0.954 -0.209,0.664 c 0,-0.225 0.018,-0.395 0.055,-0.51 C -0.117,0.038 -0.066,-0.013 0,0 m 1.156,-4.772 c 0,-0.132 0.104,-0.309 0.313,-0.53 0.21,-0.221 0.523,-0.494 0.942,-0.818 0.271,-0.204 0.552,-0.404 0.842,-0.601 0.289,-0.194 0.577,-0.391 0.864,-0.589 0.124,-0.093 0.286,-0.213 0.484,-0.362 0.198,-0.148 0.429,-0.322 0.693,-0.52 0.191,-0.132 0.391,-0.264 0.6,-0.396 0.209,-0.132 0.435,-0.264 0.677,-0.396 0.162,-0.113 0.342,-0.235 0.54,-0.367 0.198,-0.132 0.425,-0.274 0.682,-0.428 0.147,-0.079 0.261,-0.223 0.341,-0.431 0.081,-0.208 0.129,-0.477 0.143,-0.807 l -0.099,-0.258 -0.11,-0.049 c -0.073,0 -0.17,0.028 -0.291,0.084 -0.122,0.056 -0.274,0.137 -0.457,0.243 -0.037,0.02 -0.204,0.092 -0.501,0.218 -0.297,0.125 -0.725,0.304 -1.282,0.536 -0.309,0.119 -0.591,0.253 -0.848,0.402 -0.257,0.148 -0.492,0.305 -0.704,0.47 C 3.86,-9.272 3.7,-9.163 3.506,-9.044 3.311,-8.925 3.082,-8.796 2.818,-8.657 2.546,-8.519 2.312,-8.387 2.113,-8.26 1.915,-8.134 1.757,-8.028 1.64,-7.942 1.244,-7.652 0.921,-7.431 0.671,-7.279 0.422,-7.127 0.249,-7.051 0.154,-7.051 0.081,-7.143 0.04,-7.239 0.033,-7.338 -0.055,-7.649 -0.149,-8.04 -0.248,-8.514 c -0.099,-0.472 -0.207,-1.022 -0.324,-1.651 0,-0.112 -0.022,-0.197 -0.066,-0.253 -0.044,-0.056 -0.11,-0.084 -0.199,-0.084 -0.286,0 -0.502,0.063 -0.649,0.188 -0.147,0.126 -0.22,0.314 -0.22,0.565 0,0.339 0.024,0.692 0.071,1.062 0.048,0.37 0.127,0.761 0.237,1.171 0.037,0.178 0.064,0.338 0.083,0.48 0.018,0.142 0.027,0.273 0.027,0.391 0,0.304 -0.145,0.567 -0.435,0.785 -0.289,0.218 -0.434,0.373 -0.434,0.465 0,0.146 0.023,0.273 0.071,0.382 0.048,0.109 0.119,0.196 0.215,0.262 0.242,0.139 0.466,0.271 0.671,0.397 0.052,0.026 0.086,0.071 0.105,0.133 0.018,0.063 0.027,0.149 0.027,0.263 v 0.211 0.213 c 0.022,0.588 0.041,1.199 0.055,1.833 v 0.218 c 0,0.099 -0.007,0.228 -0.022,0.387 -0.014,0.118 -0.018,0.227 -0.011,0.33 0.008,0.102 0.011,0.196 0.011,0.282 -0.044,0.132 -0.082,0.246 -0.115,0.342 -0.033,0.096 -0.05,0.187 -0.05,0.272 0,0.08 0.008,0.204 0.022,0.372 0.015,0.168 0.022,0.289 0.022,0.362 0,0.092 -0.009,0.221 -0.027,0.386 -0.019,0.165 -0.028,0.291 -0.028,0.376 0,0.238 0.061,0.464 0.182,0.682 0.121,0.218 0.306,0.433 0.556,0.644 0.242,0.185 0.49,0.326 0.743,0.421 0.253,0.096 0.512,0.144 0.776,0.144 0.124,0 0.31,-0.008 0.556,-0.025 C 1.847,3.476 2.04,3.468 2.179,3.468 2.275,3.468 2.535,3.395 2.961,3.25 3.13,3.236 3.28,3.218 3.412,3.195 3.544,3.172 3.651,3.147 3.731,3.121 3.915,3.042 4.058,2.98 4.161,2.938 4.263,2.895 4.337,2.87 4.381,2.863 4.506,2.824 4.614,2.791 4.706,2.764 4.797,2.738 4.873,2.705 4.931,2.665 5.027,2.625 5.139,2.579 5.267,2.526 5.395,2.474 5.54,2.414 5.702,2.348 5.966,2.229 6.214,2.09 6.445,1.932 6.676,1.773 6.894,1.602 7.1,1.418 7.334,1.181 7.511,0.948 7.628,0.72 7.745,0.492 7.804,0.266 7.804,0.041 7.804,-0.025 7.799,-0.119 7.788,-0.241 7.777,-0.363 7.756,-0.5 7.727,-0.652 7.705,-0.844 7.595,-1.05 7.397,-1.271 7.199,-1.493 6.913,-1.735 6.538,-2 6.208,-2.231 5.9,-2.422 5.614,-2.578 5.327,-2.733 5.063,-2.843 4.821,-2.909 4.726,-2.969 4.652,-3.025 4.601,-3.078 4.528,-3.144 4.374,-3.236 4.139,-3.355 3.904,-3.474 3.585,-3.623 3.181,-3.801 2.447,-4.125 1.926,-4.338 1.618,-4.44 1.31,-4.543 1.156,-4.653 1.156,-4.772"
       style="fill:#ff0000;fill-opacity:1;fill-rule:nonzero;stroke:none"
       id="path68" /></g><g
     id="g70"
     transform="matrix(1.3333333,0,0,-1.3333333,97.452264,212.39267)"
     style="fill:#ff0000"><path
       inkscape:connector-curvature="0"
       d="M 0,0 0.418,-0.911 C 0.338,-0.978 0.24,-1.049 0.127,-1.124 0.013,-1.2 -0.121,-1.281 -0.275,-1.367 -0.429,-1.413 -0.615,-1.48 -0.831,-1.565 -1.048,-1.651 -1.295,-1.75 -1.574,-1.863 -1.787,-1.981 -1.961,-2.071 -2.097,-2.13 c -0.136,-0.06 -0.229,-0.089 -0.281,-0.089 -0.095,0 -0.269,-0.037 -0.522,-0.109 -0.254,-0.073 -0.586,-0.182 -0.997,-0.327 -0.22,-0.073 -0.453,-0.147 -0.699,-0.223 -0.245,-0.076 -0.5,-0.144 -0.765,-0.203 l -0.682,0.129 -0.418,-0.169 c -0.14,0 -0.281,0.002 -0.424,0.005 -0.143,0.003 -0.281,0.012 -0.413,0.025 -0.213,0.006 -0.372,0.033 -0.479,0.079 -0.106,0.046 -0.159,0.112 -0.159,0.198 l 0.066,0.377 -0.066,0.069 c -0.25,0 -0.417,0.03 -0.501,0.089 -0.084,0.06 -0.127,0.198 -0.127,0.416 0,0.099 0.006,0.265 0.017,0.496 0.011,0.231 0.027,0.531 0.049,0.901 0,0.033 0.024,0.103 0.072,0.208 0.048,0.106 0.072,0.182 0.072,0.228 -0.037,0.066 -0.059,0.119 -0.066,0.159 -0.008,0.039 -0.012,0.076 -0.012,0.109 0.015,0.257 0.046,0.574 0.094,0.951 0.048,0.376 0.108,0.822 0.182,1.337 0.088,0.311 0.161,0.661 0.22,1.051 -0.015,0.29 -0.03,0.587 -0.044,0.891 0.271,1.097 0.55,2.2 0.836,3.309 0.044,0.198 0.127,0.387 0.248,0.565 0.121,0.178 0.266,0.35 0.435,0.515 0.073,0.046 0.121,0.083 0.143,0.109 0.037,0.06 0.084,0.134 0.143,0.223 0.059,0.089 0.128,0.19 0.209,0.302 0.044,0.027 0.116,0.066 0.215,0.119 0.099,0.053 0.233,0.126 0.402,0.218 0.073,0.053 0.157,0.116 0.253,0.188 0.095,0.073 0.205,0.159 0.33,0.258 0.279,0.152 0.537,0.312 0.776,0.481 0.238,0.168 0.537,0.272 0.897,0.312 0.169,0.006 0.338,0.014 0.506,0.024 0.169,0.01 0.331,0.022 0.485,0.035 0.146,0.026 0.275,0.043 0.385,0.05 0.073,0.013 0.137,0.026 0.193,0.039 0.055,0.013 0.104,0.02 0.148,0.02 0.044,0 0.105,-0.005 0.182,-0.015 0.077,-0.01 0.181,-0.025 0.313,-0.044 0.103,-0.007 0.191,-0.01 0.265,-0.01 0.073,0 0.143,0.003 0.209,0.01 0.293,-0.08 0.51,-0.195 0.649,-0.347 0.14,-0.152 0.209,-0.334 0.209,-0.545 C 0.451,9.828 0.402,9.49 0.303,9.268 0.204,9.047 0.048,8.937 -0.165,8.937 c -0.162,0 -0.345,0.074 -0.55,0.222 -0.206,0.149 -0.76,0.223 -1.663,0.223 C -2.752,9.316 -3.122,9.25 -3.489,9.184 -3.526,9.131 -3.568,9.092 -3.616,9.065 -3.664,9.039 -3.706,9.019 -3.742,9.006 L -4.128,9.135 C -4.245,9.095 -4.377,8.986 -4.524,8.808 -4.671,8.629 -4.825,8.385 -4.986,8.075 -5.023,8.009 -5.05,7.926 -5.069,7.827 -5.087,7.728 -5.096,7.612 -5.096,7.48 -5.228,7.005 -5.361,6.546 -5.493,6.103 -5.617,5.627 -5.718,5.267 -5.795,5.023 -5.872,4.779 -5.918,4.63 -5.933,4.577 -5.955,4.511 -5.973,4.448 -5.988,4.389 -6.003,4.33 -6.01,4.27 -6.01,4.211 c 0,-0.086 0.018,-0.152 0.055,-0.198 0.037,-0.047 0.092,-0.07 0.165,-0.07 0.066,0 0.226,0.109 0.479,0.327 0.253,0.218 0.442,0.34 0.567,0.367 0.154,0.039 0.31,0.082 0.468,0.128 0.157,0.047 0.321,0.103 0.49,0.169 0.066,0.02 0.24,0.046 0.522,0.079 0.283,0.033 0.677,0.073 1.184,0.119 l 0.308,-0.079 0.583,0.099 0.308,-0.129 C -0.807,4.957 -0.739,4.876 -0.677,4.78 -0.615,4.685 -0.558,4.581 -0.506,4.468 -0.506,4.072 -0.554,3.771 -0.649,3.567 -0.745,3.362 -0.888,3.26 -1.079,3.26 L -1.684,3.478 C -2.183,3.431 -2.677,3.387 -3.165,3.344 -3.653,3.301 -4.15,3.26 -4.656,3.22 -5.272,3.108 -5.746,2.926 -6.076,2.675 -6.406,2.424 -6.59,2.094 -6.626,1.684 -6.634,1.598 -6.659,1.466 -6.703,1.288 -6.747,1.11 -6.799,0.888 -6.857,0.624 L -6.78,0.327 C -6.846,0.043 -6.898,-0.225 -6.935,-0.476 -6.971,-0.727 -6.99,-0.951 -6.99,-1.149 c 0,-0.066 0.011,-0.114 0.033,-0.144 0.022,-0.03 0.048,-0.038 0.078,-0.025 0.352,0.027 0.634,0.047 0.847,0.06 0.213,0.013 0.363,0.016 0.451,0.01 0.191,-0.014 0.386,-0.027 0.584,-0.04 l 0.693,0.05 c 0.074,0.013 0.233,0.066 0.479,0.158 0.246,0.093 0.468,0.139 0.666,0.139 0.213,0 0.427,0.02 0.644,0.059 0.216,0.04 0.424,0.093 0.622,0.159 0.198,0.066 0.394,0.134 0.589,0.203 0.194,0.069 0.39,0.137 0.589,0.203 0.073,0.02 0.17,0.056 0.291,0.109 C -0.303,-0.155 -0.161,-0.086 0,0"
       style="fill:#ff0000;fill-opacity:1;fill-rule:nonzero;stroke:none"
       id="path72" /></g><g
     id="g74"
     transform="matrix(1.3333333,0,0,-1.3333333,101.16613,197.6504)"
     style="fill:#ff0000"><path
       inkscape:connector-curvature="0"
       d="m 0,0 c 0.301,0.079 0.629,0.139 0.985,0.178 0.356,0.04 0.75,0.06 1.183,0.06 0.081,0 0.2,-0.012 0.358,-0.035 C 2.684,0.18 2.811,0.168 2.906,0.168 3.045,0.149 3.152,0.129 3.225,0.109 3.306,0.089 3.416,0.066 3.555,0.04 L 3.864,0.119 C 3.93,0.112 4.001,0.088 4.078,0.045 4.155,0.002 4.249,-0.046 4.359,-0.099 c 0.059,0.033 0.143,0.073 0.253,0.119 0.11,0 0.2,-0.038 0.27,-0.114 0.069,-0.076 0.115,-0.183 0.137,-0.322 V -0.728 C 5.019,-0.831 5.012,-0.938 4.997,-1.05 4.99,-1.103 4.994,-1.186 5.008,-1.298 5.023,-1.41 5.03,-1.496 5.03,-1.555 5.03,-1.628 5.012,-1.681 4.975,-1.714 4.939,-1.747 4.891,-1.764 4.832,-1.764 4.553,-1.764 4.278,-1.742 4.007,-1.699 3.735,-1.656 3.464,-1.592 3.192,-1.506 2.957,-1.546 2.752,-1.575 2.576,-1.595 2.436,-1.608 2.334,-1.628 2.267,-1.655 2.201,-1.681 2.168,-1.714 2.168,-1.754 2.198,-1.8 2.238,-1.849 2.29,-1.902 2.341,-1.955 2.403,-2.005 2.477,-2.051 2.528,-2.084 2.587,-2.155 2.653,-2.264 2.719,-2.373 2.788,-2.52 2.862,-2.705 2.891,-2.777 2.911,-2.847 2.922,-2.913 2.933,-2.979 2.939,-3.042 2.939,-3.101 2.939,-3.24 2.924,-3.413 2.895,-3.621 2.866,-3.829 2.833,-3.999 2.796,-4.131 2.73,-4.389 2.678,-4.602 2.642,-4.77 2.605,-4.939 2.576,-5.066 2.554,-5.152 2.539,-5.218 2.528,-5.297 2.521,-5.39 2.513,-5.482 2.506,-5.588 2.499,-5.707 2.491,-5.806 2.462,-5.93 2.411,-6.078 2.359,-6.227 2.308,-6.397 2.256,-6.588 2.256,-6.674 2.245,-6.773 2.223,-6.886 2.201,-6.998 2.172,-7.127 2.135,-7.272 2.113,-7.358 2.079,-7.455 2.031,-7.564 1.983,-7.673 1.937,-7.8 1.893,-7.946 1.908,-8.045 1.919,-8.147 1.926,-8.253 1.897,-8.438 1.868,-8.629 1.838,-8.828 1.794,-9.112 1.75,-9.399 1.706,-9.689 1.662,-9.98 1.622,-10.261 1.585,-10.532 1.541,-10.611 1.493,-10.7 1.442,-10.799 c 0,-0.046 0.009,-0.117 0.027,-0.213 0.019,-0.096 0.028,-0.174 0.028,-0.233 0,-0.073 -0.015,-0.18 -0.044,-0.322 -0.029,-0.142 -0.044,-0.246 -0.044,-0.312 0,-0.126 -0.004,-0.32 -0.011,-0.585 -0.007,-0.264 -0.011,-0.462 -0.011,-0.594 0.037,-0.112 0.07,-0.221 0.099,-0.327 -0.022,-0.092 -0.046,-0.167 -0.072,-0.223 -0.025,-0.056 -0.06,-0.101 -0.104,-0.134 -0.132,-0.072 -0.253,-0.132 -0.363,-0.178 -0.074,-0.066 -0.134,-0.119 -0.182,-0.158 -0.048,-0.04 -0.09,-0.06 -0.127,-0.06 -0.161,0 -0.275,0.02 -0.341,0.06 -0.066,0.039 -0.099,0.092 -0.099,0.158 0.015,0.218 0.04,0.429 0.077,0.634 -0.014,0.027 -0.031,0.066 -0.049,0.119 -0.019,0.053 -0.046,0.119 -0.083,0.198 -0.037,0.515 -0.084,1.044 -0.143,1.585 0.022,0.39 0.033,0.783 0.033,1.179 0,0.185 0.009,0.418 0.028,0.699 0.018,0.281 0.053,0.606 0.104,0.976 0.051,0.37 0.088,0.693 0.11,0.971 0.022,0.277 0.033,0.505 0.033,0.683 0,0.079 0.009,0.18 0.028,0.302 0.018,0.123 0.038,0.273 0.06,0.451 0.022,0.152 0.044,0.289 0.066,0.411 0.022,0.123 0.033,0.233 0.033,0.332 0,0.053 -0.003,0.109 -0.011,0.169 -0.007,0.059 -0.014,0.112 -0.022,0.158 0.074,0.165 0.129,0.299 0.165,0.401 0.037,0.103 0.055,0.171 0.055,0.204 -0.029,0.085 -0.062,0.171 -0.099,0.257 0.044,0.093 0.092,0.259 0.143,0.5 0.052,0.242 0.107,0.557 0.166,0.947 v 0.287 c 0,0.112 0.003,0.248 0.011,0.406 l -0.066,0.179 c -0.03,0.013 -0.083,0.029 -0.16,0.049 -0.077,0.02 -0.174,0.036 -0.292,0.05 L 0.242,-1.863 C 0.147,-1.882 0.05,-1.902 -0.05,-1.922 c -0.099,-0.02 -0.203,-0.043 -0.313,-0.069 -0.763,-0.192 -1.519,-0.38 -2.268,-0.565 -0.058,0 -0.106,0.021 -0.143,0.064 -0.036,0.043 -0.055,0.101 -0.055,0.174 0,0.039 0.019,0.109 0.055,0.208 0.037,0.099 0.096,0.228 0.176,0.386 0.015,0.231 0.033,0.423 0.055,0.575 0.022,0.152 0.048,0.267 0.077,0.346 0.059,0.146 0.149,0.268 0.27,0.367 0.121,0.099 0.266,0.175 0.435,0.228 0.337,0.099 0.653,0.165 0.946,0.198 C -0.521,0.023 -0.249,0.026 0,0"
       style="fill:#ff0000;fill-opacity:1;fill-rule:nonzero;stroke:none"
       id="path76" /></g><g
     id="g78"
     transform="matrix(1.3333333,0,0,-1.3333333,111.17866,201.41853)"
     style="fill:#ff0000"><path
       inkscape:connector-curvature="0"
       d="M 0,0 C 0.29,0.181 0.72,0.271 1.291,0.271 1.728,0.271 2.214,0.217 2.75,0.108 3.285,0 3.878,-0.171 4.529,-0.403 5.296,-0.668 5.872,-0.945 6.255,-1.234 6.639,-1.521 6.831,-1.815 6.831,-2.112 6.831,-2.344 6.746,-2.577 6.576,-2.81 6.407,-3.043 6.148,-3.28 5.8,-3.521 5.247,-3.858 4.712,-4.173 4.195,-4.47 L 3.994,-4.699 C 3.923,-4.731 3.847,-4.761 3.767,-4.789 3.686,-4.817 3.61,-4.839 3.539,-4.855 3.477,-4.888 2.558,-5.305 0.783,-6.108 c -0.054,0 -0.096,0.016 -0.127,0.048 -0.032,0.032 -0.047,0.084 -0.047,0.157 0.035,0.168 0.071,0.305 0.107,0.409 0.089,0.418 0.147,0.725 0.174,0.922 0.027,0.196 0.142,0.682 0.348,1.461 0.098,0.345 0.169,0.618 0.214,0.819 0.044,0.2 0.067,0.329 0.067,0.385 0,0.104 -0.078,0.263 -0.234,0.476 -0.157,0.213 -0.288,0.317 -0.395,0.317 -0.241,0 -0.437,-0.054 -0.589,-0.163 -0.152,-0.108 -0.312,-0.218 -0.482,-0.331 -0.08,-0.016 -0.142,0.046 -0.187,0.187 -0.045,0.14 -0.067,0.347 -0.067,0.62 0,0.353 0.145,0.62 0.435,0.801 m 13.595,-19.04 c -0.169,0.106 -0.327,0.228 -0.517,0.308 -0.445,0.189 -0.859,0.398 -1.157,0.712 -0.026,0.027 -0.067,0.047 -0.102,0.069 -0.305,0.194 -0.557,0.433 -0.91,0.587 -0.008,0.004 -0.013,0.01 -0.02,0.015 -0.495,0.333 -0.923,0.711 -1.306,1.111 -0.392,0.409 -0.835,0.76 -1.469,0.965 -0.148,0.048 -0.247,0.134 -0.317,0.246 -0.053,0.083 -0.138,0.162 -0.233,0.222 -0.184,0.115 -0.375,0.226 -0.581,0.317 -0.611,0.271 -1.231,0.532 -1.849,0.795 -0.175,0.075 -0.373,0.127 -0.423,0.3 -0.011,0.038 -0.085,0.067 -0.129,0.101 -0.064,0.049 -0.128,0.098 -0.189,0.148 -0.109,0.091 -0.211,0.188 -0.327,0.274 -0.144,0.106 -0.296,0.206 -0.452,0.303 -0.367,0.228 -0.74,0.452 -1.107,0.68 -0.048,0.029 -0.098,0.067 -0.119,0.108 -0.131,0.252 -0.377,0.408 -0.715,0.509 -0.294,0.087 -0.519,0.238 -0.601,0.475 -0.046,0.135 -0.176,0.215 -0.322,0.295 -0.17,0.092 -0.332,0.195 -0.478,0.307 -0.07,0.054 -0.131,0.113 -0.196,0.17 0.058,0.127 0.125,0.269 0.2,0.425 0.389,-0.337 0.778,-0.675 1.169,-1.011 0.081,-0.069 0.185,-0.138 0.298,-0.173 0.382,-0.118 0.702,-0.3 1.025,-0.485 0.342,-0.197 0.705,-0.374 1.058,-0.561 0.045,-0.023 0.083,-0.053 0.127,-0.076 0.118,-0.063 0.226,-0.145 0.357,-0.182 0.191,-0.053 0.335,-0.137 0.468,-0.245 0.667,-0.539 1.329,-1.083 2.011,-1.611 0.402,-0.311 0.838,-0.598 1.345,-0.821 0.279,-0.122 0.554,-0.252 0.809,-0.398 0.445,-0.256 0.876,-0.526 1.31,-0.792 0.718,-0.441 1.385,-0.929 2.207,-1.273 0.047,-0.02 0.082,-0.055 0.121,-0.084 0.328,-0.241 0.655,-0.483 0.984,-0.723 0.06,-0.044 0.108,-0.113 0.26,-0.071 -0.039,0.083 -0.045,0.198 -0.12,0.233 -0.178,0.083 -0.286,0.207 -0.426,0.312 -0.533,0.399 -1.064,0.799 -1.599,1.196 -0.102,0.075 -0.171,0.157 -0.195,0.262 -0.033,0.141 -0.139,0.25 -0.31,0.322 -0.2,0.086 -0.394,0.185 -0.607,0.248 -0.228,0.068 -0.394,0.175 -0.518,0.324 -0.195,0.233 -0.436,0.439 -0.706,0.628 -0.255,0.178 -0.502,0.364 -0.762,0.538 -0.653,0.437 -1.33,0.849 -2.126,1.146 -0.15,0.056 -0.273,0.156 -0.397,0.245 -0.211,0.151 -0.412,0.31 -0.617,0.466 -0.077,0.058 -0.173,0.108 -0.225,0.176 -0.166,0.218 -0.394,0.394 -0.651,0.553 -0.242,0.149 -0.493,0.291 -0.719,0.452 -0.138,0.098 -0.277,0.179 -0.469,0.198 -0.171,0.017 -0.284,0.083 -0.362,0.194 -0.234,0.334 -0.595,0.586 -0.982,0.825 -0.475,0.292 -0.948,0.586 -1.415,0.886 0.077,0.151 0.155,0.304 0.233,0.453 0.218,-0.126 0.45,-0.24 0.687,-0.349 0.058,-0.027 0.142,-0.048 0.206,-0.04 0.206,0.026 0.333,-0.046 0.443,-0.158 0.107,-0.11 0.208,-0.226 0.332,-0.325 0.226,-0.182 0.532,-0.312 0.675,-0.55 0.014,-0.022 0.05,-0.041 0.081,-0.055 0.353,-0.158 0.518,-0.464 0.892,-0.607 0.037,-0.014 0.059,-0.051 0.083,-0.08 0.142,-0.176 0.343,-0.303 0.591,-0.391 0.173,-0.062 0.305,-0.152 0.405,-0.271 0.122,-0.145 0.251,-0.286 0.375,-0.429 0.235,-0.271 0.545,-0.48 0.939,-0.622 0.225,-0.081 0.455,-0.156 0.672,-0.247 0.175,-0.074 0.35,-0.156 0.498,-0.255 0.369,-0.249 0.722,-0.511 1.083,-0.766 0.059,-0.042 0.12,-0.087 0.192,-0.116 0.684,-0.283 1.282,-0.65 1.869,-1.027 0.201,-0.129 0.394,-0.272 0.552,-0.429 0.13,-0.129 0.276,-0.236 0.451,-0.327 0.573,-0.296 1.207,-0.53 1.732,-0.918 0.018,0.214 -0.016,0.378 -0.216,0.522 -0.604,0.433 -1.203,0.871 -1.792,1.315 -0.459,0.346 -0.892,0.711 -1.352,1.056 -0.362,0.271 -0.738,0.534 -1.128,0.783 -0.271,0.174 -0.596,0.303 -0.865,0.478 -0.451,0.293 -0.878,0.607 -1.315,0.912 -0.203,0.143 -3.387,2.433 -3.421,2.416 -0.348,0.528 -0.811,0.992 -1.43,1.372 -0.173,0.106 -0.318,0.237 -0.492,0.37 0.004,0.007 0.008,0.01 0.013,0.016 0.007,0.004 0.013,0.008 0.014,0.016 0.064,0.078 0.12,0.134 0.16,0.148 0.375,0.124 1.008,0.383 1.9,0.777 0.491,0.216 0.879,0.397 1.164,0.541 0.286,0.145 0.473,0.257 0.562,0.338 0.063,0.064 0.152,0.132 0.268,0.204 0.294,0.081 0.615,0.215 0.963,0.404 0.348,0.189 0.723,0.421 1.124,0.702 0.455,0.322 0.803,0.617 1.044,0.886 0.241,0.269 0.375,0.52 0.401,0.752 0.036,0.185 0.06,0.352 0.074,0.5 0.013,0.149 0.02,0.263 0.02,0.343 0,0.273 -0.071,0.548 -0.214,0.825 C 8.949,-0.456 8.735,-0.173 8.45,0.116 8.2,0.339 7.934,0.548 7.653,0.741 7.373,0.933 7.071,1.102 6.75,1.247 6.554,1.327 6.378,1.399 6.222,1.463 6.066,1.527 5.93,1.584 5.814,1.632 5.742,1.68 5.651,1.72 5.539,1.752 5.428,1.784 5.296,1.825 5.145,1.873 5.091,1.881 5.002,1.911 4.877,1.963 4.752,2.015 4.578,2.09 4.355,2.186 4.257,2.218 4.128,2.248 3.967,2.276 3.807,2.304 3.624,2.326 3.419,2.342 2.901,2.519 2.585,2.607 2.469,2.607 2.299,2.607 2.065,2.617 1.766,2.638 1.467,2.658 1.242,2.668 1.09,2.668 0.769,2.668 0.455,2.609 0.147,2.493 -0.161,2.377 -0.462,2.206 -0.756,1.981 -1.059,1.724 -1.285,1.463 -1.432,1.198 c -0.147,-0.265 -0.22,-0.54 -0.22,-0.829 0,-0.104 0.011,-0.257 0.033,-0.457 0.022,-0.201 0.033,-0.358 0.033,-0.47 0,-0.088 -0.008,-0.235 -0.026,-0.44 -0.018,-0.204 -0.027,-0.355 -0.027,-0.451 0,-0.105 0.02,-0.215 0.06,-0.331 0.04,-0.117 0.087,-0.255 0.141,-0.416 0,-0.104 -0.005,-0.219 -0.014,-0.343 -0.009,-0.125 -0.004,-0.257 0.014,-0.402 0.017,-0.192 0.026,-0.349 0.026,-0.469 v -0.265 c -0.017,-0.742 -0.038,-1.457 -0.064,-2.147 -0.157,0.074 -0.305,0.162 -0.427,0.291 -0.06,0.063 -0.165,0.107 -0.259,0.149 -0.092,0.04 -0.174,0.022 -0.235,-0.049 -0.058,-0.068 -0.126,-0.13 -0.192,-0.194 -0.143,-0.139 -0.144,-0.284 0.024,-0.414 0.1,-0.078 0.232,-0.134 0.341,-0.206 0.176,-0.116 0.376,-0.219 0.446,-0.394 -0.27,-0.182 -0.409,-0.217 -0.71,-0.137 -0.489,0.128 -0.581,0.029 -0.755,-0.24 -0.008,-0.012 -0.019,-0.023 -0.026,-0.036 -0.151,-0.228 -0.138,-0.276 0.146,-0.416 0.445,-0.22 0.891,-0.438 1.337,-0.656 0,-0.148 0.002,-0.297 0.005,-0.444 -0.107,0.052 -0.21,0.109 -0.295,0.182 -0.024,0.02 -0.053,0.037 -0.081,0.055 -0.194,0.127 -0.387,0.255 -0.583,0.38 -0.256,0.164 -0.548,0.275 -0.885,0.327 -0.253,0.038 -0.499,0.101 -0.752,0.138 -0.188,0.028 -0.387,0.05 -0.594,-0.084 0.024,-0.145 0.05,-0.298 0.075,-0.452 0.038,-0.23 0.221,-0.368 0.524,-0.418 0.289,-0.048 0.578,-0.101 0.87,-0.125 0.269,-0.023 0.447,-0.111 0.55,-0.29 0.111,-0.195 0.298,-0.334 0.553,-0.437 0.169,-0.068 0.321,-0.164 0.463,-0.261 0.064,-0.044 0.126,-0.088 0.19,-0.132 0,-0.09 -0.012,-0.195 -0.021,-0.296 -0.02,0.012 -0.036,0.025 -0.057,0.037 -0.283,0.163 -0.602,0.276 -0.947,0.331 -0.424,0.067 -0.776,0.215 -1.086,0.429 -0.04,0.027 -0.092,0.048 -0.128,0.078 -0.206,0.175 -0.481,0.182 -0.763,0.175 -0.12,-0.003 -0.223,-0.034 -0.253,-0.123 -0.031,-0.09 -0.008,-0.177 0.117,-0.229 0.112,-0.047 0.222,-0.101 0.342,-0.135 0.287,-0.082 0.48,-0.224 0.587,-0.434 0.121,-0.238 0.335,-0.375 0.69,-0.445 0.625,-0.123 0.614,-0.083 0.776,-0.552 0.041,-0.118 0.118,-0.22 0.285,-0.255 0.087,-0.019 0.153,-0.053 0.218,-0.088 -0.076,-0.336 -0.141,-0.664 -0.182,-0.976 -0.058,-0.449 -0.087,-0.879 -0.087,-1.291 0,-0.305 0.09,-0.533 0.268,-0.686 0.178,-0.153 0.442,-0.229 0.789,-0.229 0.107,0 0.188,0.034 0.241,0.103 0.054,0.068 0.081,0.17 0.081,0.307 0.109,0.587 0.21,1.099 0.306,1.574 0.214,-0.178 0.423,-0.359 0.642,-0.532 0.315,-0.249 0.673,-0.468 1.011,-0.7 0.093,-0.065 0.194,-0.125 0.275,-0.197 0.404,-0.364 0.872,-0.667 1.47,-0.851 0.145,-0.045 0.285,-0.1 0.429,-0.147 0.244,-0.079 0.439,-0.186 0.539,-0.381 0.061,-0.118 0.173,-0.225 0.275,-0.329 0.058,-0.059 0.139,-0.108 0.218,-0.153 0.25,-0.14 0.512,-0.27 0.756,-0.416 0.79,-0.474 1.566,-0.961 2.362,-1.429 0.513,-0.301 1.054,-0.576 1.578,-0.867 0.382,-0.214 0.759,-0.434 1.134,-0.654 0.261,-0.153 0.509,-0.317 0.774,-0.465 0.25,-0.139 0.514,-0.266 0.777,-0.393 0.2,-0.097 0.412,-0.181 0.612,-0.279 0.185,-0.09 0.364,-0.187 0.539,-0.287 0.216,-0.125 0.466,-0.227 0.567,-0.433 0.007,-0.014 0.039,-0.021 0.061,-0.033 0.094,0.222 -0.057,0.514 -0.336,0.569 -0.251,0.05 -0.437,0.13 -0.555,0.297 -0.017,0.023 -0.049,0.042 -0.076,0.06 -0.43,0.289 -0.849,0.589 -1.295,0.865 -0.758,0.47 -1.534,0.925 -2.235,1.443 -0.145,0.108 -0.343,0.186 -0.535,0.248 -0.513,0.165 -0.978,0.376 -1.381,0.664 -0.227,0.162 -0.452,0.319 -0.625,0.516 -0.07,0.081 -0.195,0.142 -0.309,0.195 -0.232,0.106 -0.492,0.184 -0.707,0.305 -0.294,0.164 -0.554,0.362 -0.836,0.538 -0.112,0.07 -0.185,0.144 -0.213,0.252 -0.021,0.076 -0.056,0.173 -0.131,0.216 -0.369,0.208 -0.681,0.49 -1.19,0.531 -0.275,0.022 -0.446,0.142 -0.577,0.313 -0.104,0.135 -0.217,0.271 -0.357,0.386 -0.203,0.167 -0.437,0.314 -0.653,0.474 -0.622,0.457 -1.242,0.915 -1.862,1.374 0.056,0.258 0.111,0.493 0.164,0.706 0.162,-0.194 0.386,-0.323 0.675,-0.404 0.109,-0.031 0.222,-0.073 0.305,-0.131 0.355,-0.248 0.689,-0.514 1.052,-0.755 0.846,-0.561 1.705,-1.113 2.559,-1.668 0.034,-0.022 0.072,-0.046 0.114,-0.057 0.433,-0.12 0.783,-0.334 1.147,-0.534 0.238,-0.131 0.468,-0.275 0.73,-0.373 0.298,-0.112 0.535,-0.265 0.756,-0.441 0.138,-0.11 0.278,-0.22 0.425,-0.324 0.233,-0.165 0.474,-0.324 0.711,-0.487 0.121,-0.084 0.263,-0.158 0.354,-0.257 0.232,-0.252 0.558,-0.387 0.945,-0.463 0.06,-0.012 0.128,-0.034 0.168,-0.067 0.329,-0.274 0.752,-0.463 1.15,-0.674 0.376,-0.199 0.758,-0.393 1.128,-0.598 0.274,-0.153 0.539,-0.314 0.709,-0.541 0.021,-0.028 0.056,-0.063 0.093,-0.071 0.326,-0.069 0.529,-0.244 0.716,-0.433 0.059,-0.06 0.127,-0.112 0.228,-0.064 0.118,0.057 0.055,0.131 0,0.195 -0.029,0.034 -0.068,0.065 -0.11,0.091"
       style="fill:#ff0000;fill-opacity:1;fill-rule:nonzero;stroke:none"
       id="path80" /></g><g
     id="g82"
     transform="matrix(1.3333333,0,0,-1.3333333,132.69346,201.15107)"
     style="fill:#ff0000"><path
       inkscape:connector-curvature="0"
       d="M 0,0 C -0.176,0 -0.356,-0.02 -0.539,-0.059 -0.723,-0.099 -0.91,-0.155 -1.101,-0.228 L -2.168,-0.654 C -2.242,-0.687 -2.324,-0.74 -2.416,-0.812 -2.508,-0.885 -2.609,-0.984 -2.719,-1.11 l -0.506,-0.564 c -0.162,-0.172 -0.305,-0.486 -0.429,-0.942 -0.125,-0.455 -0.235,-1.05 -0.331,-1.783 -0.073,-0.561 -0.124,-1.085 -0.154,-1.57 -0.029,-0.486 -0.044,-0.933 -0.044,-1.343 0,-0.839 0.143,-1.464 0.43,-1.877 0.286,-0.413 0.719,-0.619 1.298,-0.619 0.272,0 0.576,0.064 0.914,0.193 0.338,0.129 0.704,0.325 1.101,0.589 0.337,0.225 0.634,0.451 0.891,0.679 0.257,0.228 0.47,0.461 0.639,0.698 0.073,0.093 0.189,0.288 0.346,0.585 0.158,0.297 0.377,0.703 0.655,1.219 0.184,0.376 0.327,0.758 0.43,1.144 0.102,0.386 0.154,0.784 0.154,1.194 -0.044,0.198 -0.092,0.393 -0.143,0.584 l 0.077,0.426 C 2.535,-2.417 2.473,-2.345 2.422,-2.279 2.4,-2.226 2.381,-2.183 2.367,-2.15 2.139,-1.437 1.831,-0.9 1.442,-0.54 1.053,-0.18 0.572,0 0,0 m -6.604,-4.845 c 0,0.086 0.027,0.189 0.082,0.307 0.055,0.119 0.138,0.255 0.248,0.407 0.154,0.198 0.27,0.353 0.347,0.465 0.077,0.113 0.119,0.185 0.126,0.218 0.037,0.073 0.086,0.169 0.149,0.288 0.062,0.118 0.134,0.254 0.214,0.406 0.074,0.072 0.158,0.229 0.254,0.47 0.095,0.241 0.205,0.56 0.33,0.956 0.059,0.106 0.121,0.233 0.187,0.382 0.066,0.148 0.147,0.325 0.242,0.53 0.029,0.152 0.085,0.33 0.165,0.535 0.081,0.205 0.184,0.433 0.308,0.684 0.155,0.237 0.316,0.472 0.485,0.703 0.169,0.231 0.411,0.403 0.726,0.515 0.125,-0.073 0.22,-0.145 0.286,-0.218 0.066,-0.073 0.099,-0.142 0.099,-0.208 0,-0.165 -0.082,-0.385 -0.247,-0.659 -0.165,-0.274 -0.248,-0.46 -0.248,-0.56 0,-0.052 0.033,-0.102 0.099,-0.148 0.059,0.026 0.165,0.106 0.319,0.238 0.155,0.132 0.356,0.31 0.606,0.535 0.205,0.171 0.391,0.312 0.556,0.421 0.165,0.109 0.321,0.176 0.467,0.203 0.096,0.033 0.217,0.063 0.364,0.089 0.146,0.026 0.312,0.069 0.495,0.129 0.095,0.046 0.172,0.092 0.231,0.138 0.052,0.04 0.132,0.08 0.242,0.119 L 0.693,2.071 C 0.759,2.011 0.943,1.95 1.244,1.887 1.545,1.825 1.735,1.793 1.816,1.793 1.882,1.76 1.959,1.707 2.047,1.635 2.135,1.562 2.249,1.483 2.389,1.397 2.682,1.238 2.955,1.006 3.209,0.698 3.462,0.391 3.691,0.01 3.897,-0.446 4.087,-0.862 4.232,-1.258 4.331,-1.635 4.43,-2.011 4.48,-2.374 4.48,-2.725 4.48,-3.828 4.326,-4.785 4.018,-5.598 3.709,-6.41 3.243,-7.077 2.62,-7.599 2.561,-7.652 2.489,-7.716 2.405,-7.792 2.321,-7.868 2.216,-7.959 2.091,-8.065 V -8.174 C 2.077,-8.24 2.035,-8.311 1.965,-8.387 1.895,-8.463 1.798,-8.55 1.673,-8.649 1.402,-8.874 1.126,-9.1 0.848,-9.328 0.569,-9.556 0.283,-9.779 -0.011,-9.997 c -0.367,-0.284 -0.715,-0.508 -1.046,-0.673 -0.33,-0.165 -0.649,-0.281 -0.957,-0.347 -0.132,-0.106 -0.296,-0.187 -0.49,-0.243 -0.195,-0.056 -0.431,-0.084 -0.71,-0.084 -0.411,0 -0.745,0.025 -1.002,0.074 -0.257,0.05 -0.44,0.121 -0.55,0.213 -0.066,0.06 -0.143,0.119 -0.231,0.179 -0.088,0.059 -0.191,0.135 -0.308,0.228 -0.125,0.085 -0.243,0.242 -0.353,0.47 -0.11,0.228 -0.209,0.524 -0.297,0.887 -0.059,0.271 -0.104,0.533 -0.137,0.787 -0.033,0.255 -0.05,0.491 -0.05,0.709 0,0.066 0.018,0.175 0.055,0.327 0.037,0.152 0.051,0.267 0.044,0.347 0,0.151 -0.007,0.284 -0.022,0.396 0,0.119 0.04,0.307 0.121,0.565 0.081,0.257 0.121,0.462 0.121,0.614 0,0.033 -0.022,0.082 -0.066,0.148 -0.117,-0.118 -0.202,-0.227 -0.253,-0.327 -0.044,-0.066 -0.095,-0.115 -0.154,-0.148 -0.059,-0.033 -0.114,-0.05 -0.165,-0.05 -0.081,0 -0.145,0.03 -0.193,0.09 -0.048,0.059 -0.071,0.148 -0.071,0.267 0,0.079 0.02,0.198 0.06,0.357 0.041,0.158 0.061,0.28 0.061,0.366"
       style="fill:#ff0000;fill-opacity:1;fill-rule:nonzero;stroke:none"
       id="path84" /></g><g
     id="g86"
     transform="matrix(1.3333333,0,0,-1.3333333,47.914532,222.10213)"><path
       inkscape:connector-curvature="0"
       d="m 0,0 c 0,-0.978 -0.881,-1.771 -1.968,-1.771 -1.087,0 -1.968,0.793 -1.968,1.771 0,0.978 0.881,1.771 1.968,1.771 C -0.881,1.771 0,0.978 0,0"
       style="fill:#ffff00;fill-opacity:1;fill-rule:nonzero;stroke:none"
       id="path88" /></g><g
     id="g90"
     transform="matrix(1.3333333,0,0,-1.3333333,55.808265,222.10213)"><path
       inkscape:connector-curvature="0"
       d="m 0,0 c 0,-0.978 -0.881,-1.771 -1.968,-1.771 -1.087,0 -1.968,0.793 -1.968,1.771 0,0.978 0.881,1.771 1.968,1.771 C -0.881,1.771 0,0.978 0,0"
       style="fill:#ffff00;fill-opacity:1;fill-rule:nonzero;stroke:none"
       id="path92" /></g><g
     id="g94"
     transform="matrix(1.3333333,0,0,-1.3333333,63.702132,222.10213)"><path
       inkscape:connector-curvature="0"
       d="m 0,0 c 0,-0.978 -0.881,-1.771 -1.968,-1.771 -1.087,0 -1.968,0.793 -1.968,1.771 0,0.978 0.881,1.771 1.968,1.771 C -0.881,1.771 0,0.978 0,0"
       style="fill:#ffff00;fill-opacity:1;fill-rule:nonzero;stroke:none"
       id="path96" /></g><g
     id="g98"
     transform="matrix(1.3333333,0,0,-1.3333333,71.595865,222.10213)"><path
       inkscape:connector-curvature="0"
       d="m 0,0 c 0,-0.978 -0.881,-1.771 -1.968,-1.771 -1.087,0 -1.968,0.793 -1.968,1.771 0,0.978 0.881,1.771 1.968,1.771 C -0.881,1.771 0,0.978 0,0"
       style="fill:#ffff00;fill-opacity:1;fill-rule:nonzero;stroke:none"
       id="path100" /></g><g
     id="g102"
     transform="matrix(1.3333333,0,0,-1.3333333,79.489598,222.10213)"><path
       inkscape:connector-curvature="0"
       d="m 0,0 c 0,-0.978 -0.881,-1.771 -1.968,-1.771 -1.087,0 -1.968,0.793 -1.968,1.771 0,0.978 0.881,1.771 1.968,1.771 C -0.881,1.771 0,0.978 0,0"
       style="fill:#ffff00;fill-opacity:1;fill-rule:nonzero;stroke:none"
       id="path104" /></g><g
     id="g106"
     transform="matrix(1.3333333,0,0,-1.3333333,87.383331,222.10213)"><path
       inkscape:connector-curvature="0"
       d="m 0,0 c 0,-0.978 -0.881,-1.771 -1.968,-1.771 -1.087,0 -1.968,0.793 -1.968,1.771 0,0.978 0.881,1.771 1.968,1.771 C -0.881,1.771 0,0.978 0,0"
       style="fill:#ffff00;fill-opacity:1;fill-rule:nonzero;stroke:none"
       id="path108" /></g><g
     id="g110"
     transform="matrix(1.3333333,0,0,-1.3333333,95.277198,222.10213)"><path
       inkscape:connector-curvature="0"
       d="m 0,0 c 0,-0.978 -0.881,-1.771 -1.968,-1.771 -1.087,0 -1.968,0.793 -1.968,1.771 0,0.978 0.881,1.771 1.968,1.771 C -0.881,1.771 0,0.978 0,0"
       style="fill:#ffff00;fill-opacity:1;fill-rule:nonzero;stroke:none"
       id="path112" /></g><g
     id="g114"
     transform="matrix(1.3333333,0,0,-1.3333333,103.17093,222.10213)"><path
       inkscape:connector-curvature="0"
       d="m 0,0 c 0,-0.978 -0.881,-1.771 -1.968,-1.771 -1.087,0 -1.968,0.793 -1.968,1.771 0,0.978 0.881,1.771 1.968,1.771 C -0.881,1.771 0,0.978 0,0"
       style="fill:#ffff00;fill-opacity:1;fill-rule:nonzero;stroke:none"
       id="path116" /></g><g
     id="g118"
     transform="matrix(1.3333333,0,0,-1.3333333,311.99999,77.624537)"
     style="fill:#141414;fill-opacity:1"><path
       inkscape:connector-curvature="0"
       d="m 0,0 c -20.303,-0.78 -75.197,-5.278 -106,-5.278 -30.803,0 -85.697,4.498 -106,5.278 V -10.029 H 0 Z"
       style="fill:#141414;fill-opacity:1;fill-rule:nonzero;stroke:none"
       id="path120" /></g><g
     id="g122"
     transform="matrix(1.3333333,0,0,-1.3333333,279.74826,212.7196)"
     style="fill:#ff0000"><path
       inkscape:connector-curvature="0"
       d="M 0,0 C 0.265,-0.051 0.32,0.215 0.478,0.226 1.013,0.263 0.876,0.749 1.028,1.04 1.057,1.096 1.042,1.166 0.992,1.21 0.939,1.257 0.869,1.25 0.83,1.198 0.541,0.818 0.227,0.454 0,0 m -4.263,-2.253 c -0.351,-0.222 -0.542,-0.476 -0.749,-0.708 -0.282,-0.317 -0.611,-0.478 -1.042,-0.433 -0.239,0.024 -0.388,0.118 -0.454,0.356 -0.152,0.544 -0.08,1.069 0.053,1.612 0.265,1.077 0.63,2.118 1.147,3.087 0.248,0.464 0.309,1.07 0.862,1.358 0.228,0.119 0.316,0.152 0.505,-0.099 0.364,-0.483 0.136,-0.846 -0.086,-1.263 -0.329,-0.619 -0.608,-1.263 -0.932,-1.884 -0.24,-0.46 -0.512,-0.902 -0.679,-1.398 -0.088,-0.257 -0.18,-0.514 -0.254,-0.776 -0.029,-0.103 -0.041,-0.23 0.065,-0.309 0.109,-0.08 0.212,-0.024 0.304,0.042 0.591,0.429 1.126,0.926 1.585,1.491 0.249,0.306 0.287,0.731 0.384,1.113 0.208,0.817 0.582,1.56 0.985,2.288 0.16,0.289 0.721,0.385 0.98,0.196 0.121,-0.088 0.26,-0.782 0.172,-0.937 -0.691,-1.21 -1.171,-2.511 -1.641,-3.818 -0.062,-0.171 -0.1,-0.32 0.029,-0.486 0.149,-0.193 0.236,-0.257 0.387,0.013 0.144,0.255 0.358,0.469 0.538,0.704 0.059,0.078 0.136,0.181 -0.041,0.201 -0.081,0.009 -0.211,-0.038 -0.183,0.084 0.027,0.122 -0.033,0.285 0.116,0.37 0.063,0.036 0.121,0.084 0.187,0.111 0.769,0.314 1.024,1.103 1.508,1.678 0.56,0.666 0.992,1.449 1.739,1.943 C 1.369,2.38 1.31,2.528 1.317,2.656 1.332,2.948 1.502,2.98 1.68,2.84 1.85,2.707 2.029,2.661 2.221,2.646 2.451,2.629 2.529,2.51 2.483,2.3 2.078,0.413 2.085,-1.516 1.911,-3.427 1.869,-3.89 1.807,-4.352 1.751,-4.843 c -0.175,0.142 -0.274,0.322 -0.262,0.519 0.017,0.279 -0.047,0.527 -0.167,0.767 -0.051,0.103 -0.078,0.204 -0.075,0.32 0.004,0.211 -0.061,0.389 -0.157,0.589 -0.159,0.33 -0.024,0.724 -0.066,1.091 -0.027,0.232 0,0.472 0.01,0.708 0.01,0.235 -0.105,0.295 -0.298,0.211 -0.224,-0.098 -0.45,-0.2 -0.657,-0.331 -0.196,-0.125 -0.383,-0.232 -0.618,-0.294 -0.264,-0.069 -0.387,-0.365 -0.499,-0.6 -0.305,-0.639 -0.638,-1.263 -1.027,-1.848 -0.254,-0.384 -0.572,-0.722 -0.81,-1.128 -0.083,-0.143 -0.359,-0.177 -0.553,-0.242 -0.067,-0.022 -0.141,-0.008 -0.181,-0.089 -0.056,-0.111 -0.134,-0.268 -0.264,-0.159 -0.109,0.093 -0.201,0.275 -0.069,0.432 0.242,0.288 0.356,0.651 0.566,0.957 0.052,0.076 0.154,0.164 0.08,0.262 -0.068,0.09 -0.178,0.044 -0.273,0.015 -0.578,-0.179 -0.812,0.005 -0.784,0.629 0.01,0.23 -0.033,0.464 0.09,0.781"
       style="fill:#ff0000;fill-opacity:1;fill-rule:nonzero;stroke:none"
       id="path124" /></g><g
     id="g126"
     transform="matrix(1.3333333,0,0,-1.3333333,294.35119,221.17373)"
     style="fill:#ff0000"><path
       inkscape:connector-curvature="0"
       d="m 0,0 c -0.471,0.522 -1.137,0.759 -1.602,1.272 -0.204,0.224 -0.488,0.362 -0.707,0.55 -0.503,0.431 -0.999,0.887 -1.515,1.295 -0.464,0.366 -0.76,0.887 -1.266,1.214 -0.217,0.14 -0.425,0.283 -0.666,0.381 -0.193,0.078 -0.361,0.21 -0.243,0.451 0.116,0.238 0.291,0.089 0.441,0.025 0.067,-0.028 0.127,-0.079 0.204,-0.031 -0.213,0.347 -0.169,0.444 0.235,0.497 0.083,0.01 0.185,-0.021 0.207,0.096 0.016,0.084 -0.054,0.135 -0.116,0.176 -0.114,0.078 -0.264,0.165 -0.141,0.316 0.127,0.155 0.228,0.007 0.328,-0.087 0.249,-0.231 0.513,-0.204 0.699,0.086 0.161,0.249 0.39,0.444 0.51,0.725 0.105,0.244 0.069,0.422 -0.15,0.581 C -4.212,7.86 -4.757,7.939 -5.153,7.618 -5.391,7.426 -5.609,7.151 -5.765,6.883 -6.311,5.948 -6.51,4.885 -6.743,3.839 -6.813,3.525 -6.87,3.208 -6.936,2.893 -6.971,2.723 -6.939,2.469 -7.251,2.636 -7.33,2.678 -7.371,2.621 -7.385,2.524 -7.438,2.152 -7.714,1.868 -7.793,1.504 -7.795,1.492 -7.796,1.469 -7.798,1.469 -8.197,1.483 -8.193,1.056 -8.42,0.887 -8.535,0.802 -8.674,0.815 -8.66,1.013 c 0.02,0.293 -0.045,0.603 0.144,0.867 0.267,0.372 0.268,0.838 0.43,1.244 0.476,1.2 0.7,2.487 1.244,3.663 0.033,0.072 0.12,0.15 0.034,0.234 -0.081,0.078 -0.171,0.018 -0.23,-0.034 -0.388,-0.344 -0.696,-0.026 -1.016,0.13 -0.065,0.032 -0.111,0.121 -0.194,0.157 -0.301,0.128 -0.175,0.281 -0.031,0.454 0.51,0.611 1.198,0.86 1.926,1.105 0.469,0.157 0.931,0.258 1.41,0.352 0.393,0.077 0.776,0.209 1.181,0.183 1.098,-0.07 2.338,-1.164 1.641,-2.563 C -2.345,6.353 -2.72,6.025 -3.144,5.759 -3.258,5.687 -3.375,5.618 -3.49,5.546 -3.652,5.444 -3.688,5.33 -3.516,5.201 -3.197,4.961 -2.98,4.628 -2.735,4.321 -2.603,4.155 -2.46,4.005 -2.297,3.872 -1.631,3.327 -0.997,2.749 -0.378,2.15 0.045,1.742 0.537,1.409 0.981,1.022 1.097,0.922 1.358,0.779 1.238,0.637 1.077,0.445 0.964,0.731 0.843,0.824 0.091,1.395 -0.624,2.014 -1.377,2.586 -2.125,3.155 -2.773,3.847 -3.437,4.518 -3.749,4.832 -4.168,5.038 -4.579,5.32 -4.607,5.084 -4.484,5.009 -4.393,4.925 -4.094,4.65 -3.761,4.408 -3.494,4.105 -3.118,3.676 -2.71,3.292 -2.264,2.943 -1.523,2.362 -0.871,1.673 -0.113,1.112 0.014,1.018 0.148,0.924 0.211,0.765 0.225,0.73 0.258,0.702 0.281,0.671 0.21,0.664 0.17,0.52 0.068,0.63 -0.394,1.129 -0.988,1.462 -1.498,1.904 -2.249,2.556 -2.918,3.31 -3.791,3.819 -4.14,4.023 -4.24,4.493 -4.595,4.72 -4.75,4.82 -4.884,4.94 -5.146,4.896 -4.811,4.614 -4.531,4.339 -4.257,4.057 -3.782,3.57 -3.307,3.085 -2.809,2.619 -2.335,2.176 -1.804,1.84 -1.306,1.447 -0.858,1.094 -0.469,0.664 -0.059,0.263 -0.007,0.211 0.079,0.149 0,0"
       style="fill:#ff0000;fill-opacity:1;fill-rule:nonzero;stroke:none"
       id="path128" /></g><g
     id="g130"
     transform="matrix(1.3333333,0,0,-1.3333333,263.61079,207.68453)"
     style="fill:#ff0000"><path
       inkscape:connector-curvature="0"
       d="m 0,0 c -0.12,-0.023 -0.239,-0.058 -0.36,-0.065 -0.198,-0.012 -0.373,0.04 -0.212,-0.296 0.091,-0.19 -0.172,-0.355 -0.364,-0.43 -0.643,-0.251 -1.258,-0.561 -1.867,-0.887 -0.123,-0.066 -0.164,-0.16 -0.195,-0.289 -0.161,-0.668 -0.324,-1.336 -0.502,-1.999 -0.257,-0.958 -0.531,-1.932 -1.055,-2.762 -0.502,-0.796 -1.015,-1.626 -1.849,-2.149 -0.562,-0.354 -1.127,-0.405 -1.744,-0.132 -0.471,0.21 -0.966,0.362 -1.3,0.797 -0.052,0.068 -0.15,0.12 -0.165,0.192 -0.017,0.085 -0.17,0.164 -0.049,0.253 0.089,0.065 0.185,0.009 0.258,-0.07 1.089,-1.174 2.129,-0.697 2.956,0.32 0.689,0.847 1.072,1.845 1.427,2.87 0.272,0.789 0.404,1.607 0.634,2.403 0.066,0.228 0.033,0.314 -0.237,0.271 -0.65,-0.104 -1.304,-0.186 -1.959,-0.247 -0.178,-0.017 -0.372,0.044 -0.539,0.153 -0.091,0.059 -0.176,0.092 -0.095,0.221 0.039,0.063 0.075,0.159 0.003,0.204 -0.297,0.188 -0.302,0.304 0.067,0.365 0.052,0.009 0.061,0.073 0.028,0.121 -0.243,0.356 0.043,0.283 0.228,0.286 0.895,0.015 1.777,0.139 2.654,0.315 0.721,0.144 1.444,0.273 2.167,0.409 0.084,-0.208 0.223,-0.317 0.456,-0.282 0.275,0.04 0.283,0.272 0.34,0.469 0.424,0.069 0.847,0.138 1.271,0.206 C -0.002,0.165 -0.001,0.082 0,0"
       style="fill:#ff0000;fill-opacity:1;fill-rule:nonzero;stroke:none"
       id="path132" /></g><g
     id="g134"
     transform="matrix(1.3333333,0,0,-1.3333333,263.11919,212.17267)"
     style="fill:#ff0000"><path
       inkscape:connector-curvature="0"
       d="M 0,0 C 0,0.202 -0.001,0.326 0,0.45 0.001,0.539 0.003,0.64 -0.094,0.671 -0.207,0.706 -0.28,0.621 -0.329,0.533 -0.609,0.025 -0.885,-0.486 -1.162,-0.996 -1.187,-1.041 -1.205,-1.09 -1.16,-1.131 c 0.046,-0.043 0.094,-0.023 0.122,0.021 0.109,0.172 0.296,0.204 0.459,0.283 C -0.208,-0.646 0.186,-0.472 0,0 m -3.125,-4.97 c -0.134,0.047 -0.018,0.217 -0.136,0.277 -0.107,-0.069 -0.193,-0.177 -0.201,-0.294 -0.022,-0.311 -0.335,-0.307 -0.482,-0.484 -0.081,-0.098 -0.161,0.033 -0.166,0.146 -0.006,0.17 0.076,0.311 0.147,0.456 0.411,0.83 0.822,1.661 1.234,2.491 0.074,0.151 0.193,0.281 -0.038,0.428 -0.126,0.08 -0.073,0.263 0.076,0.277 0.563,0.049 0.644,0.56 0.791,0.921 0.188,0.465 0.48,0.853 0.706,1.287 0.254,0.488 0.532,0.964 0.788,1.452 0.081,0.152 0.121,0.342 0.32,0.117 C -0.046,2.059 0.031,2.044 0.035,2.065 0.128,2.49 0.546,2.269 0.774,2.446 0.957,2.587 1.052,2.492 1.161,2.23 1.557,1.284 1.159,0.356 1.18,-0.576 1.204,-1.639 1.118,-2.705 1.146,-3.771 1.149,-3.904 1.328,-4.31 0.86,-4.102 0.747,-4.051 0.774,-4.215 0.76,-4.29 0.747,-4.359 0.774,-4.457 0.67,-4.463 c -0.097,-0.005 -0.111,0.08 -0.109,0.157 0.007,0.203 -0.061,0.31 -0.282,0.354 -0.214,0.044 -0.157,0.265 -0.165,0.428 -0.031,0.65 -0.061,1.3 -0.092,1.95 -0.009,0.195 -0.153,0.306 -0.291,0.225 -0.339,-0.202 -0.73,-0.24 -1.075,-0.414 -0.521,-0.263 -0.608,-0.817 -0.838,-1.266 -0.286,-0.56 -0.511,-1.153 -0.767,-1.729 -0.037,-0.082 -0.048,-0.201 -0.176,-0.212"
       style="fill:#ff0000;fill-opacity:1;fill-rule:nonzero;stroke:none"
       id="path136" /></g><g
     id="g138"
     transform="matrix(1.3333333,0,0,-1.3333333,269.10893,214.11413)"
     style="fill:#ff0000"><path
       inkscape:connector-curvature="0"
       d="m 0,0 c -0.323,0.062 -0.559,-0.165 -0.839,-0.238 -0.075,-0.019 -0.142,-0.147 -0.224,-0.051 -0.088,0.105 0.03,0.198 0.081,0.252 0.335,0.356 0.745,0.597 1.203,0.753 0.15,0.051 0.296,0.085 0.413,0.218 C 0.868,1.201 1.139,1.027 1.39,0.953 1.475,0.928 1.49,0.816 1.47,0.726 1.403,0.41 1.355,0.088 1.257,-0.218 1.037,-0.906 0.985,-1.604 1.093,-2.315 1.106,-2.406 1.136,-2.492 1.04,-2.544 0.944,-2.596 0.886,-2.527 0.828,-2.456 0.766,-2.381 0.683,-2.323 0.624,-2.245 0.466,-2.034 0.334,-2.084 0.18,-2.257 c -0.471,-0.53 -1.052,-0.602 -1.685,-0.263 -1.403,0.752 -1.492,1.812 -1.358,3.115 0.064,0.618 0.408,1.124 0.75,1.639 0.37,0.555 0.772,1.024 1.38,1.317 C -0.062,3.874 0.165,3.85 0.651,3.289 0.683,3.253 0.725,3.225 0.763,3.194 1.03,2.976 1.007,2.784 0.682,2.672 0.348,2.557 0.011,2.478 -0.313,2.31 -1.067,1.917 -1.624,1.343 -1.959,0.573 c -0.432,-0.991 0.208,-2.272 1.234,-2.551 0.249,-0.067 0.484,-0.048 0.706,0.092 0.199,0.125 0.325,0.23 0.202,0.529 -0.132,0.323 -0.017,0.685 0.086,1.019 C 0.35,-0.08 0.378,0.13 0,0"
       style="fill:#ff0000;fill-opacity:1;fill-rule:nonzero;stroke:none"
       id="path140" /></g><g
     id="g142"
     transform="matrix(1.3333333,0,0,-1.3333333,296.91933,223.98027)"
     style="fill:#ff0000"><path
       inkscape:connector-curvature="0"
       d="m 0,0 c -0.287,-0.07 -0.427,0.125 -0.595,0.249 -1.346,0.99 -2.688,1.983 -3.985,3.041 -0.745,0.609 -1.465,1.241 -2.109,1.954 -0.388,0.43 -0.775,0.85 -1.26,1.165 -0.074,0.048 -0.075,0.09 -0.035,0.144 0.032,0.043 0.061,0.074 0.143,0.037 0.523,-0.235 1.102,-0.374 1.324,-1.028 0.073,-0.217 0.28,-0.371 0.455,-0.529 0.201,-0.182 0.428,-0.338 0.573,-0.575 0.165,-0.27 0.361,-0.46 0.673,-0.596 0.343,-0.15 0.531,-0.55 0.852,-0.778 C -3.496,2.751 -3.055,2.38 -2.601,2.026 -1.735,1.35 -0.867,0.675 0,0"
       style="fill:#ff0000;fill-opacity:1;fill-rule:nonzero;stroke:none"
       id="path144" /></g><g
     id="g146"
     transform="matrix(1.3333333,0,0,-1.3333333,295.17519,221.66413)"
     style="fill:#ff0000"><path
       inkscape:connector-curvature="0"
       d="M 0,0 C 0.664,-0.158 1.084,-0.64 1.493,-1.139 0.925,-0.853 0.469,-0.417 0,0"
       style="fill:#ff0000;fill-opacity:1;fill-rule:nonzero;stroke:none"
       id="path148" /></g><g
     id="g150"
     transform="matrix(1.3333333,0,0,-1.3333333,296.26666,220.56053)"
     style="fill:#ff0000"><path
       inkscape:connector-curvature="0"
       d="M 0,0 C 0.321,-0.075 0.608,-0.201 0.805,-0.568 0.382,-0.548 0.229,-0.215 0,0"
       style="fill:#ff0000;fill-opacity:1;fill-rule:nonzero;stroke:none"
       id="path152" /></g><g
     id="g154"
     transform="matrix(1.3333333,0,0,-1.3333333,284.55959,218.9912)"
     style="fill:#ff0000"><path
       inkscape:connector-curvature="0"
       d="M 0,0 C -0.086,0.019 -0.158,0.082 -0.118,0.123 0.023,0.273 -0.152,0.572 0.121,0.642 0.206,0.665 0.259,0.585 0.237,0.504 0.186,0.32 0.127,0.138 0,0"
       style="fill:#ff0000;fill-opacity:1;fill-rule:nonzero;stroke:none"
       id="path156" /></g><g
     id="g158"
     transform="matrix(1.3333333,0,0,-1.3333333,298.03933,222.7956)"
     style="fill:#ff0000"><path
       inkscape:connector-curvature="0"
       d="m 0,0 c -0.283,0.004 -0.383,0.225 -0.56,0.323 -0.04,0.022 -0.065,0.082 -0.023,0.125 0.02,0.021 0.085,0.033 0.097,0.02 C -0.346,0.304 -0.07,0.287 0,0"
       style="fill:#ff0000;fill-opacity:1;fill-rule:nonzero;stroke:none"
       id="path160" /></g><g
     id="g162"
     transform="matrix(1.3333333,0,0,-1.3333333,298.37466,221.99187)"
     style="fill:#ff0000"><path
       inkscape:connector-curvature="0"
       d="M 0,0 C -0.253,-0.089 -0.368,0.069 -0.474,0.236 -0.504,0.282 -0.49,0.351 -0.431,0.346 -0.217,0.329 -0.102,0.178 0,0"
       style="fill:#ff0000;fill-opacity:1;fill-rule:nonzero;stroke:none"
       id="path164" /></g><g
     id="g166"
     transform="matrix(1.3333333,0,0,-1.3333333,298.66666,222.10667)"
     style="fill:#ff0000"><path
       inkscape:connector-curvature="0"
       d="m 0,0 c -0.009,-0.026 -0.017,-0.053 -0.026,-0.079 -0.068,0.037 -0.21,0.052 -0.167,0.137 C -0.148,0.149 -0.055,0.065 0,0"
       style="fill:#ff0000;fill-opacity:1;fill-rule:nonzero;stroke:none"
       id="path168" /></g><g
     id="g170"
     transform="matrix(1.3333333,0,0,-1.3333333,270.62466,205.28587)"><path
       inkscape:connector-curvature="0"
       d="m 0,0 c 0,-0.523 -0.007,-1.046 0.003,-1.569 0.005,-0.245 -0.078,-0.358 -0.333,-0.379 -0.698,-0.056 -1.394,-0.055 -2.093,-0.001 -0.249,0.019 -0.36,0.136 -0.361,0.37 -0.003,1.084 -0.003,2.167 10e-4,3.25 0,0.107 0.003,0.256 0.153,0.248 0.121,-0.006 0.116,-0.14 0.117,-0.239 0.002,-0.211 0.006,-0.423 -10e-4,-0.635 -0.009,-0.297 0.008,-0.574 0.323,-0.727 0.132,-0.064 0.118,-0.205 0.119,-0.33 0.003,-0.361 0,-0.722 0.01,-1.083 0.012,-0.431 0.126,-0.547 0.547,-0.587 0.012,-0.001 0.024,-0.001 0.037,-0.002 1.16,-0.079 1.237,-0.006 1.237,1.172 0,0.722 -0.002,1.444 0.002,2.166 0.001,0.101 -0.04,0.268 0.117,0.262 C 0.017,1.912 -0.001,1.753 -0.001,1.644 0.001,1.096 0,0.548 0,0"
       style="fill:#ffff00;fill-opacity:1;fill-rule:nonzero;stroke:none"
       id="path172" /></g><g
     id="g174"
     transform="matrix(1.3333333,0,0,-1.3333333,252.02066,205.13853)"><path
       inkscape:connector-curvature="0"
       d="m 0,0 c 0,-0.436 0.004,-0.871 -0.001,-1.307 -0.004,-0.306 0.15,-0.447 0.438,-0.488 0.706,-0.101 0.901,0.063 0.907,0.763 0.003,0.37 -0.102,0.768 0.328,1.016 0.131,0.076 0.117,0.289 0.118,0.453 0,0.386 10e-4,0.772 10e-4,1.158 0,0.091 0.012,0.198 0.107,0.213 C 2.03,1.829 2.061,1.7 2.062,1.608 2.07,0.998 2.069,0.388 2.066,-0.221 2.065,-0.309 2.035,-0.412 1.956,-0.447 1.574,-0.618 1.626,-0.958 1.625,-1.279 1.623,-2.069 1.597,-2.095 0.829,-2.098 c -0.012,0 -0.024,0 -0.037,0 -1.054,-0.002 -1.057,-0.002 -1.073,1.043 -0.004,0.239 -0.04,0.447 -0.28,0.558 -0.146,0.068 -0.169,0.2 -0.168,0.344 0.002,0.535 0.009,1.07 0.001,1.605 -0.003,0.257 0.128,0.362 0.355,0.376 0.229,0.014 0.342,-0.113 0.344,-0.337 C -0.024,0.994 -0.027,0.497 -0.027,0 -0.018,0 -0.009,0 0,0"
       style="fill:#ffff00;fill-opacity:1;fill-rule:nonzero;stroke:none"
       id="path176" /></g><g
     id="g178"
     transform="matrix(1.3333333,0,0,-1.3333333,273.56186,204.86813)"><path
       inkscape:connector-curvature="0"
       d="M 0,0 C 0.296,0.016 0.654,-0.074 0.732,0.364 0.766,0.557 0.749,0.762 0.736,0.96 0.722,1.157 0.597,1.282 0.409,1.312 0.143,1.356 -0.126,1.357 -0.394,1.304 -0.56,1.272 -0.65,1.173 -0.701,1.02 -0.916,0.367 -0.666,0.002 0,0 m 1.466,-1.163 c 0,-0.299 0.001,-0.597 -10e-4,-0.896 -0.001,-0.098 0.003,-0.223 -0.128,-0.229 -0.134,-0.005 -0.139,0.122 -0.141,0.219 -0.005,0.373 -0.003,0.746 -0.005,1.119 -0.004,0.584 -0.079,0.66 -0.663,0.67 -0.233,0.003 -0.467,0.002 -0.699,-0.006 -0.436,-0.016 -0.553,-0.14 -0.562,-0.595 -0.006,-0.336 -0.011,-0.672 0.001,-1.007 0.01,-0.274 -0.123,-0.394 -0.371,-0.393 -0.237,0 -0.357,0.133 -0.357,0.376 10e-4,0.547 -0.001,1.095 -0.001,1.642 0.001,0.103 0.017,0.212 0.121,0.254 0.333,0.137 0.327,0.418 0.326,0.714 -0.005,0.928 -10e-4,0.928 0.933,0.927 0.257,0 0.515,0.003 0.772,-0.008 C 0.905,1.614 1.031,1.504 1.028,1.27 1.026,1.046 1.041,0.821 1.032,0.598 1.021,0.343 1.066,0.126 1.321,0.009 c 0.136,-0.062 0.146,-0.185 0.145,-0.314 -10e-4,-0.286 0,-0.572 0,-0.858"
       style="fill:#ffff00;fill-opacity:1;fill-rule:nonzero;stroke:none"
       id="path180" /></g><g
     id="g182"
     transform="matrix(1.3333333,0,0,-1.3333333,259.28293,204.86707)"><path
       inkscape:connector-curvature="0"
       d="m 0,0 v 0.001 c 0.16,0 0.319,-0.005 0.479,0.001 0.367,0.014 0.49,0.159 0.498,0.581 0.01,0.552 -0.1,0.732 -0.49,0.75 C 0.168,1.348 -0.152,1.343 -0.471,1.334 -0.698,1.328 -0.9,1.24 -0.926,0.986 -0.997,0.266 -0.969,-0.068 -0.184,-0.001 -0.123,0.005 -0.061,0 0,0 m -1.223,-0.34 c 0,0.498 0.012,0.997 -0.004,1.494 -0.011,0.335 0.125,0.483 0.452,0.479 C -0.26,1.627 0.256,1.628 0.772,1.632 1.102,1.635 1.276,1.493 1.261,1.141 1.252,0.93 1.266,0.718 1.264,0.506 1.261,0.292 1.31,0.112 1.526,0.02 c 0.148,-0.064 0.179,-0.194 0.179,-0.338 0.002,-0.523 0,-1.046 0.002,-1.569 0,-0.122 -0.019,-0.245 -0.161,-0.245 -0.179,0.001 -0.114,0.161 -0.116,0.256 -0.009,0.349 0.005,0.698 -0.007,1.046 -0.014,0.39 -0.161,0.531 -0.548,0.539 -0.306,0.006 -0.614,0.002 -0.92,-0.004 -0.299,-0.006 -0.45,-0.168 -0.453,-0.469 -0.003,-0.361 -0.003,-0.722 -0.001,-1.083 0.001,-0.26 -0.085,-0.443 -0.375,-0.436 -0.288,0.007 -0.361,0.183 -0.353,0.449 0.013,0.498 0.004,0.996 0.004,1.494"
       style="fill:#ffff00;fill-opacity:1;fill-rule:nonzero;stroke:none"
       id="path184" /></g><g
     id="g186"
     transform="matrix(1.3333333,0,0,-1.3333333,278.03199,207.9)"><path
       inkscape:connector-curvature="0"
       d="m 0,0 c -0.281,-0.011 -0.562,-0.043 -0.845,0.004 -0.206,0.035 -0.304,0.121 -0.303,0.337 0.003,1.096 0,2.192 0.002,3.288 0,0.095 -0.012,0.223 0.13,0.217 0.113,-0.004 0.107,-0.118 0.109,-0.203 0.004,-0.187 -0.016,-0.376 0.006,-0.56 0.037,-0.305 -0.044,-0.662 0.347,-0.829 0.13,-0.056 0.089,-0.22 0.094,-0.34 C -0.445,1.529 -0.43,1.143 -0.425,0.758 -0.421,0.405 -0.221,0.275 0.092,0.269 0.35,0.263 0.608,0.269 0.866,0.264 0.949,0.262 1.054,0.262 1.061,0.144 1.068,0.025 0.963,0.005 0.881,0.003 0.588,-0.005 0.294,0 0,0"
       style="fill:#ffff00;fill-opacity:1;fill-rule:nonzero;stroke:none"
       id="path188" /></g><g
     id="g190"
     transform="matrix(1.3333333,0,0,-1.3333333,263.97466,207.29413)"><path
       inkscape:connector-curvature="0"
       d="M 0,0 C -0.007,0.82 -0.015,1.64 -0.022,2.461 -0.027,3.045 -0.136,3.147 -0.71,3.163 -0.877,3.167 -1.176,3.063 -1.182,3.281 -1.19,3.569 -0.88,3.442 -0.71,3.446 -0.073,3.462 0.565,3.454 1.202,3.45 1.33,3.449 1.516,3.483 1.51,3.286 1.506,3.106 1.325,3.18 1.216,3.16 1.168,3.151 1.118,3.158 1.069,3.158 0.311,3.154 0.163,2.979 0.26,2.217 0.276,2.097 0.311,1.981 0.41,1.933 0.715,1.786 0.71,1.523 0.703,1.243 0.693,0.795 0.702,0.348 0.694,-0.1 0.691,-0.269 0.645,-0.426 0.438,-0.447 0.267,-0.464 0.086,-0.496 0.038,-0.251 0.182,-0.194 0.475,-0.318 0.456,-0.102 0.435,0.145 0.161,-0.025 0,0"
       style="fill:#ffff00;fill-opacity:1;fill-rule:nonzero;stroke:none"
       id="path192" /></g><g
     id="g194"
     transform="matrix(1.3333333,0,0,-1.3333333,263.97466,207.29413)"><path
       inkscape:connector-curvature="0"
       d="M 0,0 C 0.161,-0.025 0.435,0.145 0.456,-0.102 0.475,-0.318 0.182,-0.194 0.038,-0.251 -0.042,-0.178 -0.024,-0.089 0,0"
       style="fill:#ff0000;fill-opacity:1;fill-rule:nonzero;stroke:none"
       id="path196" /></g><g
     id="g198"
     transform="matrix(1.3333333,0,0,-1.3333333,255.76826,205.216)"><path
       inkscape:connector-curvature="0"
       d="m 0,0 c 0,0.521 -0.002,1.043 0.002,1.564 0,0.105 -0.033,0.266 0.116,0.269 C 0.268,1.835 0.237,1.673 0.24,1.568 0.246,1.333 0.247,1.096 0.241,0.861 0.235,0.61 0.277,0.387 0.531,0.273 0.669,0.211 0.682,0.092 0.681,-0.037 0.681,-0.571 0.674,-1.104 0.684,-1.638 0.688,-1.89 0.59,-2.002 0.34,-2.002 c -0.25,0 -0.348,0.112 -0.343,0.364 C 0.007,-1.092 0,-0.546 0,0"
       style="fill:#ffff00;fill-opacity:1;fill-rule:nonzero;stroke:none"
       id="path200" /></g></svg>