<?xml version="1.0" encoding="UTF-8" standalone="no"?>
<svg
   xmlns:dc="http://purl.org/dc/elements/1.1/"
   xmlns:cc="http://creativecommons.org/ns#"
   xmlns:rdf="http://www.w3.org/1999/02/22-rdf-syntax-ns#"
   xmlns:svg="http://www.w3.org/2000/svg"
   xmlns="http://www.w3.org/2000/svg"
   xmlns:sodipodi="http://sodipodi.sourceforge.net/DTD/sodipodi-0.dtd"
   xmlns:inkscape="http://www.inkscape.org/namespaces/inkscape"
   viewBox="0 0 341.33334 341.33334"
   height="256"
   width="256"
   xml:space="preserve"
   id="svg2"
   version="1.1"
   sodipodi:docname="Commodore - 64-content.svg"
   inkscape:version="0.92.2 (5c3e80d, 2017-08-06)"
   inkscape:export-filename="D:\Documents\Github\Retrosystem-retroarch-theme\png\Commodore - 64-content.png"
   inkscape:export-xdpi="72"
   inkscape:export-ydpi="72"><sodipodi:namedview
     pagecolor="#ffffff"
     bordercolor="#666666"
     borderopacity="1"
     objecttolerance="10"
     gridtolerance="10"
     guidetolerance="10"
     inkscape:pageopacity="0"
     inkscape:pageshadow="2"
     inkscape:window-width="1024"
     inkscape:window-height="705"
     id="namedview30"
     showgrid="false"
     inkscape:zoom="0.97779607"
     inkscape:cx="-36.107686"
     inkscape:cy="283.8181"
     inkscape:window-x="-8"
     inkscape:window-y="-8"
     inkscape:window-maximized="1"
     inkscape:current-layer="svg2"
     inkscape:pagecheckerboard="true" /><metadata
     id="metadata8"><rdf:RDF><cc:Work
         rdf:about=""><dc:format>image/svg+xml</dc:format><dc:type
           rdf:resource="http://purl.org/dc/dcmitype/StillImage" /><dc:title /></cc:Work></rdf:RDF></metadata><defs
     id="defs6"><clipPath
       id="clipPath18"
       clipPathUnits="userSpaceOnUse"><path
         id="path16"
         d="M 0,256 H 256 V 0 H 0 Z" /></clipPath><clipPath
       id="clipPath26"
       clipPathUnits="userSpaceOnUse"><path
         id="path24"
         d="M 4,252 H 252 V 4 H 4 Z" /></clipPath></defs><g
     id="g22"
     transform="matrix(1.3333333,0,0,-1.3333333,0,341.33333)" /><path
     id="path38"
     style="fill:#191919;fill-opacity:1;fill-rule:nonzero;stroke:none;stroke-width:1.33333325"
     d="m 170.66666,213.33333 c -23.564,0 -42.66667,-19.10267 -42.66667,-42.66667 0,-23.564 19.10267,-42.66666 42.66667,-42.66666 23.564,0 42.66667,19.10266 42.66667,42.66666 0,23.564 -19.10267,42.66667 -42.66667,42.66667 M 325.33332,85.333333 V 16.000002 H 15.999997 V 319.99999 c 0,2.94534 2.388,5.33334 5.333333,5.33334 h 112 c 0,-2.94534 2.388,-5.33334 5.33333,-5.33334 2.94533,0 5.33333,2.388 5.33333,5.33334 h 53.33334 c 0,-2.94534 2.388,-5.33334 5.33333,-5.33334 2.94533,0 5.33333,2.388 5.33333,5.33334 h 112 c 2.94533,0 5.33333,-2.388 5.33333,-5.33334 V 101.33333 H 314.66666 V 85.333333 Z"
     inkscape:connector-curvature="0" /><path
     id="path42"
     style="fill:#e6e6e6;fill-opacity:1;fill-rule:nonzero;stroke:none;stroke-width:1.3333333;font-variant-east_asian:normal;opacity:1;vector-effect:none;stroke-linecap:butt;stroke-linejoin:miter;stroke-miterlimit:4;stroke-dasharray:none;stroke-dashoffset:0;stroke-opacity:1"
     d="M 303.99999,101.33334 H 37.33333 c -2.945333,0 -5.333333,-2.388 -5.333333,-5.333333 V 37.333342 c 0,-2.945334 2.388,-5.333334 5.333333,-5.333334 h 266.66666 c 2.94533,0 5.33333,2.388 5.33333,5.333334 v 58.666665 c 0,2.945333 -2.388,5.333333 -5.33333,5.333333"
     inkscape:connector-curvature="0" /><path
     id="path46"
     style="fill:#433d39;fill-opacity:1;fill-rule:nonzero;stroke:none;stroke-width:1.33333325;font-variant-east_asian:normal;opacity:1;vector-effect:none;stroke-linecap:butt;stroke-linejoin:miter;stroke-miterlimit:4;stroke-dasharray:none;stroke-dashoffset:0;stroke-opacity:1"
     d="m 170.66666,314.66666 v 0 c -8.836,0 -16,-7.164 -16,-16 v -48 c 0,-8.836 7.164,-16 16,-16 8.836,0 16,7.164 16,16 v 48 c 0,8.836 -7.164,16 -16,16"
     inkscape:connector-curvature="0" /><path
     id="path50"
     style="fill:#433d39;fill-opacity:1;fill-rule:nonzero;stroke:none;stroke-width:1.33333325;font-variant-east_asian:normal;opacity:1;vector-effect:none;stroke-linecap:butt;stroke-linejoin:miter;stroke-miterlimit:4;stroke-dasharray:none;stroke-dashoffset:0;stroke-opacity:1"
     d="m 234.66666,184 c 0,4.41733 -3.58267,8 -8,8 -4.41733,0 -8,-3.58267 -8,-8 0,-4.41733 3.58267,-8 8,-8 4.41733,0 8,3.58267 8,8"
     inkscape:connector-curvature="0" /><path
     id="path54"
     style="fill:#262626;fill-opacity:1;fill-rule:nonzero;stroke:none;stroke-width:1.33333325"
     d="m 170.66666,202.66667 c -17.67333,0 -32,-14.32667 -32,-32 0,-17.67333 14.32667,-32 32,-32 17.67333,0 32,14.32667 32,32 0,17.67333 -14.32667,32 -32,32 m 0,-74.66666 c -23.564,0 -42.66667,19.10266 -42.66667,42.66666 0,23.564 19.10267,42.66667 42.66667,42.66667 23.564,0 42.66667,-19.10267 42.66667,-42.66667 0,-23.564 -19.10267,-42.66666 -42.66667,-42.66666"
     inkscape:connector-curvature="0" /><path
     id="path58"
     style="fill:#433d39;fill-opacity:1;fill-rule:nonzero;stroke:none;stroke-width:1.33333325;font-variant-east_asian:normal;opacity:1;vector-effect:none;stroke-linecap:butt;stroke-linejoin:miter;stroke-miterlimit:4;stroke-dasharray:none;stroke-dashoffset:0;stroke-opacity:1"
     d="m 170.66666,125.33334 c -25.03733,0 -45.33333,20.296 -45.33333,45.33333 0,25.036 20.296,45.33333 45.33333,45.33333 25.036,0 45.33333,-20.29733 45.33333,-45.33333 0,-25.03733 -20.29733,-45.33333 -45.33333,-45.33333 m 0,5.33333 c 22.056,0 40,17.944 40,40 0,22.056 -17.944,40 -40,40 -22.056,0 -40,-17.944 -40,-40 0,-22.056 17.944,-40 40,-40"
     inkscape:connector-curvature="0" /><path
     inkscape:connector-curvature="0"
     d="m 142.78672,77.032176 h -3.77175 V 56.116018 h 3.77175 z"
     style="fill:#263979;fill-opacity:1;fill-rule:nonzero;stroke:none;stroke-width:2.63759708"
     id="path70" /><path
     inkscape:connector-curvature="0"
     d="m 150.2643,77.032176 h -3.77175 V 62.382949 h 3.77175 z m 0,-17.988425 h -3.77175 v -2.927733 h 3.77175 z"
     style="fill:#263979;fill-opacity:1;fill-rule:nonzero;stroke:none;stroke-width:2.63759708"
     id="path72" /><path
     id="path76"
     style="fill:#263979;fill-opacity:1;fill-rule:nonzero;stroke:none;stroke-width:2.63759708"
     d="m 161.46645,64.973083 c -2.44769,0 -3.67417,1.413752 -3.67417,4.243894 0,2.218219 0.20837,3.639884 0.62775,4.267632 0.41674,0.627748 1.361,0.94426 2.83277,0.94426 1.53772,0 2.51891,-0.290136 2.94884,-0.86777 0.42729,-0.574996 0.64093,-1.896432 0.64093,-3.959033 0,-1.922808 -0.211,-3.173029 -0.63302,-3.755938 -0.42201,-0.582909 -1.33726,-0.873045 -2.7431,-0.873045 M 153.9704,77.032177 V 56.116032 h 3.7744 v 8.366458 l 0.0818,0.03165 c 0.64621,-1.542994 2.28943,-2.31581 4.92439,-2.31581 2.26306,0 3.81397,0.514331 4.65272,1.540357 0.84139,1.028662 1.26077,2.93037 1.26077,5.70776 0,3.035874 -0.42465,5.085287 -1.27659,6.153514 -0.85195,1.068227 -2.48462,1.601021 -4.90066,1.601021 -2.44769,0 -4.05662,-0.828205 -4.8268,-2.481979 h -0.0818 l 0.16617,2.313173 z"
     inkscape:connector-curvature="0" /><path
     id="path80"
     style="fill:#263979;fill-opacity:1;fill-rule:nonzero;stroke:none;stroke-width:2.63759708"
     d="m 171.90976,62.383484 h 3.77176 l -0.22947,2.054688 0.0818,0.01319 c 0.89942,-1.532444 2.31581,-2.297347 4.24917,-2.297347 2.76684,0 4.15158,1.62476 4.15158,4.871642 v 1.028663 h -3.55812 c 0.0448,-0.398277 0.0659,-0.6594 0.0659,-0.783367 0,-1.561457 -0.65413,-2.344823 -1.95974,-2.344823 -1.86742,0 -2.80113,1.160542 -2.80113,3.47899 v 8.62758 h -3.77176 z"
     inkscape:connector-curvature="0" /><path
     id="path84"
     style="fill:#263979;fill-opacity:1;fill-rule:nonzero;stroke:none;stroke-width:2.63759708"
     d="m 196.20626,68.191215 -0.0158,-0.582909 c 0,-1.16318 -0.21628,-1.920171 -0.65148,-2.268333 -0.43257,-0.345526 -1.37419,-0.519607 -2.82487,-0.519607 -1.40584,0 -2.31845,0.20837 -2.7431,0.627748 -0.42202,0.419378 -0.63302,1.334624 -0.63302,2.743101 z m -0.0316,4.151578 h 3.78759 v 0.567083 c 0,2.861793 -2.30526,4.291371 -6.91842,4.291371 -3.13083,0 -5.1776,-0.495869 -6.14296,-1.484967 -0.968,-0.991737 -1.45068,-3.091264 -1.45068,-6.298582 0,-2.851243 0.50378,-4.766138 1.51398,-5.747324 1.01284,-0.981187 2.98312,-1.47178 5.91349,-1.47178 2.81168,0 4.69493,0.477405 5.65237,1.434853 0.95481,0.95481 1.43222,2.830142 1.43222,5.63127 v 1.070864 h -10.65853 c -0.0211,0.327062 -0.0317,0.543345 -0.0317,0.643574 0,1.440128 0.23738,2.402851 0.71479,2.882894 0.48004,0.480042 1.43221,0.720064 2.85915,0.720064 1.38474,0 2.28416,-0.14243 2.7009,-0.422016 0.41674,-0.282223 0.62775,-0.886232 0.62775,-1.817304"
     inkscape:connector-curvature="0" /><path
     id="path88"
     style="fill:#263979;fill-opacity:1;fill-rule:nonzero;stroke:none;stroke-width:2.63759708"
     d="m 213.27122,62.383484 v 2.666611 h -6.0612 v 7.356258 c 0,1.358362 0.5539,2.036225 1.66433,2.036225 1.21857,0 1.82785,-0.82293 1.82785,-2.466153 v -0.582909 h 3.21259 v 0.735889 c 0,0.675225 -0.0237,1.250221 -0.0659,1.732902 -0.211,2.236682 -1.99929,3.355023 -5.37014,3.355023 -3.3603,0 -5.04045,-1.434853 -5.04045,-4.307196 v -7.860039 h -2.04414 v -2.666611 h 2.04414 v -3.278533 h 3.77176 v 3.278533 z"
     inkscape:connector-curvature="0" /><path
     id="path92"
     style="fill:#263979;fill-opacity:1;fill-rule:nonzero;stroke:none;stroke-width:2.63759708"
     d="m 216.08791,62.383484 h 3.77176 l -0.22947,2.054688 0.0818,0.01319 c 0.89942,-1.532444 2.31581,-2.297347 4.24917,-2.297347 2.76684,0 4.15158,1.62476 4.15158,4.871642 v 1.028663 h -3.55812 c 0.0448,-0.398277 0.0659,-0.6594 0.0659,-0.783367 0,-1.561457 -0.65413,-2.344823 -1.95974,-2.344823 -1.86742,0 -2.80113,1.160542 -2.80113,3.47899 v 8.62758 h -3.77176 z"
     inkscape:connector-curvature="0" /><path
     id="path96"
     style="fill:#263979;fill-opacity:1;fill-rule:nonzero;stroke:none;stroke-width:2.63759708"
     d="m 237.09005,64.988375 c -1.56937,0 -2.56902,0.26376 -2.99895,0.788642 -0.42729,0.527519 -0.64093,1.754002 -0.64093,3.684723 0,2.207668 0.20309,3.587132 0.60928,4.13839 0.40619,0.551257 1.42167,0.828205 3.04643,0.828205 1.572,0 2.5611,-0.292773 2.97257,-0.873045 0.4141,-0.582909 0.61983,-1.983473 0.61983,-4.199054 0,-1.870057 -0.21628,-3.064888 -0.64357,-3.587132 -0.42729,-0.519607 -1.41639,-0.780729 -2.96466,-0.780729 m 0.0317,-2.774752 c 3.04379,0 5.03517,0.453667 5.97943,1.358362 0.9469,0.902059 1.41903,2.811679 1.41903,5.723586 0,3.246882 -0.46158,5.378061 -1.38474,6.38826 -0.92316,1.012838 -2.86707,1.516619 -5.83172,1.516619 -3.21787,0 -5.30157,-0.469493 -6.25111,-1.408477 -0.94953,-0.938985 -1.4243,-3.009499 -1.4243,-6.206266 0,-3.075438 0.46685,-5.072099 1.40056,-5.992621 0.93371,-0.917884 2.96466,-1.379463 6.09285,-1.379463"
     inkscape:connector-curvature="0" /><path
     id="path100"
     style="fill:#263979;fill-opacity:1;fill-rule:nonzero;stroke:none;stroke-width:2.63759708"
     d="m 117.91419,61.39122 h 10.55039 l -4.92967,5.275194 h -5.62072 z"
     inkscape:connector-curvature="0" /><path
     id="path104"
     style="fill:#ff0000;fill-opacity:1;fill-rule:nonzero;stroke:none;stroke-width:2.63759708"
     d="m 117.91419,71.941601 h 10.55039 l -4.92967,-5.275194 h -5.62072 z"
     inkscape:connector-curvature="0" /><path
     id="path108"
     style="fill:#263979;fill-opacity:1;fill-rule:nonzero;stroke:none;stroke-width:2.63759708"
     d="M 104.16941,72.113052 V 56.116026 h -7.356258 v 15.997026 2.17338 2.93037 h 21.100778 v -5.10375 z"
     inkscape:connector-curvature="0" /></svg>
