<?xml version="1.0" encoding="UTF-8" standalone="no"?>
<svg
   xmlns:dc="http://purl.org/dc/elements/1.1/"
   xmlns:cc="http://creativecommons.org/ns#"
   xmlns:rdf="http://www.w3.org/1999/02/22-rdf-syntax-ns#"
   xmlns:svg="http://www.w3.org/2000/svg"
   xmlns="http://www.w3.org/2000/svg"
   xmlns:sodipodi="http://sodipodi.sourceforge.net/DTD/sodipodi-0.dtd"
   xmlns:inkscape="http://www.inkscape.org/namespaces/inkscape"
   viewBox="0 0 341.33334 341.33334"
   height="256"
   width="256"
   xml:space="preserve"
   id="svg2"
   version="1.1"
   sodipodi:docname="database.svg"
   inkscape:version="0.92.2 (5c3e80d, 2017-08-06)"><sodipodi:namedview
     pagecolor="#ffffff"
     bordercolor="#666666"
     borderopacity="1"
     objecttolerance="10"
     gridtolerance="10"
     guidetolerance="10"
     inkscape:pageopacity="0"
     inkscape:pageshadow="2"
     inkscape:window-width="1024"
     inkscape:window-height="705"
     id="namedview22"
     showgrid="false"
     inkscape:pagecheckerboard="true"
     inkscape:zoom="15.644737"
     inkscape:cx="90.284867"
     inkscape:cy="199.41089"
     inkscape:window-x="-8"
     inkscape:window-y="-8"
     inkscape:window-maximized="1"
     inkscape:current-layer="svg2" /><metadata
     id="metadata8"><rdf:RDF><cc:Work
         rdf:about=""><dc:format>image/svg+xml</dc:format><dc:type
           rdf:resource="http://purl.org/dc/dcmitype/StillImage" /><dc:title /></cc:Work></rdf:RDF></metadata><defs
     id="defs6"><clipPath
       id="clipPath18"
       clipPathUnits="userSpaceOnUse"><path
         id="path16"
         d="M 0,256 H 256 V 0 H 0 Z" /></clipPath><clipPath
       id="clipPath30"
       clipPathUnits="userSpaceOnUse"><path
         id="path28"
         d="M 58.56,197.44 H 197.44 V 58.56 H 58.56 Z" /></clipPath></defs><g
     id="g20"
     transform="matrix(1.5211289,0,0,-1.3333333,234.23312,239.5896)"><path
       inkscape:connector-curvature="0"
       d="m 0,0 h -83.578 c -6.6,0 -12,5.4 -12,12 v 73.003 c 0,6.6 5.4,12 12,12 H 0 c 6.6,0 12,-5.4 12,-12 V 12 C 12,5.4 6.6,0 0,0"
       style="fill:#b3b3b3;fill-opacity:1;fill-rule:nonzero;stroke:none"
       id="path22" /></g><g
     id="g40"
     transform="matrix(1.3333333,0,0,-1.3333333,170.66666,221.86667)"><path
       inkscape:connector-curvature="0"
       d="M 0,0 C -38.173,0 -61.44,6.877 -61.44,15.36 V 7.68 0 -7.68 c 0,-8.483 23.267,-15.36 61.44,-15.36 38.173,0 61.44,6.877 61.44,15.36 V 0 7.68 15.36 C 61.44,6.877 38.173,0 0,0 m 0,38.4 c -38.173,0 -61.44,6.877 -61.44,15.36 V 46.08 38.4 30.72 c 0,-8.483 23.267,-15.36 61.44,-15.36 38.173,0 61.44,6.877 61.44,15.36 v 7.68 7.68 7.68 C 61.44,45.277 38.173,38.4 0,38.4 m 0,61.44 c -38.173,0 -61.44,-6.877 -61.44,-15.36 V 69.12 c 0,-8.483 23.267,-15.36 61.44,-15.36 38.173,0 61.44,6.877 61.44,15.36 V 84.48 C 61.44,92.963 38.173,99.84 0,99.84"
       style="fill:#808080;fill-opacity:1;fill-rule:nonzero;stroke:none"
       id="path42" /></g></svg>
