<?xml version="1.0" encoding="UTF-8" standalone="no"?>
<svg
   xmlns:dc="http://purl.org/dc/elements/1.1/"
   xmlns:cc="http://creativecommons.org/ns#"
   xmlns:rdf="http://www.w3.org/1999/02/22-rdf-syntax-ns#"
   xmlns:svg="http://www.w3.org/2000/svg"
   xmlns="http://www.w3.org/2000/svg"
   xmlns:sodipodi="http://sodipodi.sourceforge.net/DTD/sodipodi-0.dtd"
   xmlns:inkscape="http://www.inkscape.org/namespaces/inkscape"
   viewBox="0 0 341.33334 341.33334"
   height="256"
   width="256"
   xml:space="preserve"
   id="svg2"
   version="1.1"
   sodipodi:docname="Microsoft - MSX.svg"
   inkscape:version="0.92.2 (5c3e80d, 2017-08-06)"><sodipodi:namedview
     pagecolor="#ffffff"
     bordercolor="#666666"
     borderopacity="1"
     objecttolerance="10"
     gridtolerance="10"
     guidetolerance="10"
     inkscape:pageopacity="0"
     inkscape:pageshadow="2"
     inkscape:window-width="1024"
     inkscape:window-height="705"
     id="namedview127"
     showgrid="false"
     inkscape:pagecheckerboard="true"
     inkscape:zoom="0.69140623"
     inkscape:cx="170.66667"
     inkscape:cy="170.66667"
     inkscape:window-x="-8"
     inkscape:window-y="-8"
     inkscape:window-maximized="1"
     inkscape:current-layer="svg2" /><metadata
     id="metadata8"><rdf:RDF><cc:Work
         rdf:about=""><dc:format>image/svg+xml</dc:format><dc:type
           rdf:resource="http://purl.org/dc/dcmitype/StillImage" /><dc:title></dc:title></cc:Work></rdf:RDF></metadata><defs
     id="defs6"><clipPath
       id="clipPath18"
       clipPathUnits="userSpaceOnUse"><path
         id="path16"
         d="M 0,256 H 256 V 0 H 0 Z" /></clipPath><clipPath
       id="clipPath26"
       clipPathUnits="userSpaceOnUse"><path
         id="path24"
         d="M 4,200 H 252 V 56 H 4 Z" /></clipPath><clipPath
       id="clipPath218"
       clipPathUnits="userSpaceOnUse"><path
         id="path216"
         d="M 0,256 H 256 V 0 H 0 Z" /></clipPath></defs><path
     inkscape:connector-curvature="0"
     d="M 319.99999,256 H 21.333333 V 138.66667 H 319.99999 Z"
     style="fill:#8c8c8c;fill-opacity:1;fill-rule:nonzero;stroke:none;stroke-width:1.33333325"
     id="path36" /><path
     inkscape:connector-curvature="0"
     d="M 325.33333,138.66667 H 16 v -48 h 309.33333 z"
     style="fill:#808080;fill-opacity:1;fill-rule:nonzero;stroke:none;stroke-width:1.33333325"
     id="path38" /><path
     inkscape:connector-curvature="0"
     d="M 325.33333,128 H 16 V 96.000003 h 309.33333 z"
     style="fill:#8c8c8c;fill-opacity:1;fill-rule:nonzero;stroke:none;stroke-width:1.33333325"
     id="path40" /><path
     inkscape:connector-curvature="0"
     d="M 314.66666,122.66667 H 197.33333 v -21.33333 h 117.33333 z"
     style="fill:#999999;fill-opacity:1;fill-rule:nonzero;stroke:none;stroke-width:1.33333325"
     id="path42" /><path
     id="path46"
     style="fill:#333333;fill-opacity:1;fill-rule:nonzero;stroke:none;stroke-width:1.33333325"
     d="M 297.09133,106.66667 H 214.90867 213.334 v 1.016 8.63467 1.016 h 1.57467 82.18266 1.576 v -1.016 -8.63467 -1.016 z"
     inkscape:connector-curvature="0" /><path
     inkscape:connector-curvature="0"
     d="M 149.33333,138.66667 H 31.999999 V 96.000003 H 149.33333 Z"
     style="fill:#404040;fill-opacity:1;fill-rule:nonzero;stroke:none;stroke-width:1.33333325"
     id="path48" /><path
     inkscape:connector-curvature="0"
     d="M 149.33333,141.33333 H 31.999999 V 125.33334 H 149.33333 Z"
     style="fill:#b3b3b3;fill-opacity:1;fill-rule:nonzero;stroke:none;stroke-width:1.33333325"
     id="path50" /><path
     inkscape:connector-curvature="0"
     d="M 149.33333,96.000003 H 31.999999 V 85.333336 H 149.33333 Z"
     style="fill:#b3b3b3;fill-opacity:1;fill-rule:nonzero;stroke:none;stroke-width:1.33333325"
     id="path52" /><path
     inkscape:connector-curvature="0"
     d="M 149.33333,101.33334 H 31.999999 V 98.666669 H 149.33333 Z"
     style="fill:#b3b3b3;fill-opacity:1;fill-rule:nonzero;stroke:none;stroke-width:1.33333325"
     id="path54" /><path
     inkscape:connector-curvature="0"
     d="M 149.33333,106.66667 H 31.999999 V 104 H 149.33333 Z"
     style="fill:#b3b3b3;fill-opacity:1;fill-rule:nonzero;stroke:none;stroke-width:1.33333325"
     id="path56" /><path
     inkscape:connector-curvature="0"
     d="M 149.33333,112 H 31.999999 v -2.66666 H 149.33333 Z"
     style="fill:#b3b3b3;fill-opacity:1;fill-rule:nonzero;stroke:none;stroke-width:1.33333325"
     id="path58" /><path
     inkscape:connector-curvature="0"
     d="M 149.33333,117.33334 H 31.999999 v -2.66667 H 149.33333 Z"
     style="fill:#b3b3b3;fill-opacity:1;fill-rule:nonzero;stroke:none;stroke-width:1.33333325"
     id="path60" /><path
     inkscape:connector-curvature="0"
     d="M 149.33333,122.66667 H 31.999999 V 120 H 149.33333 Z"
     style="fill:#b3b3b3;fill-opacity:1;fill-rule:nonzero;stroke:none;stroke-width:1.33333325"
     id="path62" /><path
     inkscape:connector-curvature="0"
     d="M 314.66666,245.33333 H 26.666666 V 138.66667 H 314.66666 Z"
     style="fill:#4c4c4c;fill-opacity:1;fill-rule:nonzero;stroke:none;stroke-width:1.33333325"
     id="path64" /><path
     inkscape:connector-curvature="0"
     d="M 63.999998,149.33333 H 47.999999 V 144 h 15.999999 z"
     style="fill:#999999;fill-opacity:1;fill-rule:nonzero;stroke:none;stroke-width:1.33333325"
     id="path66" /><path
     inkscape:connector-curvature="0"
     d="M 85.333331,149.33333 H 69.333332 V 144 h 15.999999 z"
     style="fill:#999999;fill-opacity:1;fill-rule:nonzero;stroke:none;stroke-width:1.33333325"
     id="path68" /><path
     inkscape:connector-curvature="0"
     d="M 106.66666,149.33333 H 90.666664 V 144 h 15.999996 z"
     style="fill:#999999;fill-opacity:1;fill-rule:nonzero;stroke:none;stroke-width:1.33333325"
     id="path70" /><path
     inkscape:connector-curvature="0"
     d="M 128,149.33333 H 112 V 144 h 16 z"
     style="fill:#999999;fill-opacity:1;fill-rule:nonzero;stroke:none;stroke-width:1.33333325"
     id="path72" /><path
     inkscape:connector-curvature="0"
     d="m 149.33333,149.33333 h -16 V 144 h 16 z"
     style="fill:#999999;fill-opacity:1;fill-rule:nonzero;stroke:none;stroke-width:1.33333325"
     id="path74" /><path
     inkscape:connector-curvature="0"
     d="m 223.99999,149.33333 h -16 V 144 h 16 z"
     style="fill:#999999;fill-opacity:1;fill-rule:nonzero;stroke:none;stroke-width:1.33333325"
     id="path76" /><path
     inkscape:connector-curvature="0"
     d="m 245.33333,149.33333 h -16 V 144 h 16 z"
     style="fill:#999999;fill-opacity:1;fill-rule:nonzero;stroke:none;stroke-width:1.33333325"
     id="path78" /><path
     inkscape:connector-curvature="0"
     d="m 309.33333,149.33333 h -16 V 144 h 16 z"
     style="fill:#999999;fill-opacity:1;fill-rule:nonzero;stroke:none;stroke-width:1.33333325"
     id="path80" /><path
     inkscape:connector-curvature="0"
     d="m 287.99999,149.33333 h -16 V 144 h 16 z"
     style="fill:#999999;fill-opacity:1;fill-rule:nonzero;stroke:none;stroke-width:1.33333325"
     id="path82" /><path
     inkscape:connector-curvature="0"
     d="m 266.66666,149.33333 h -16 V 144 h 16 z"
     style="fill:#999999;fill-opacity:1;fill-rule:nonzero;stroke:none;stroke-width:1.33333325"
     id="path84" /><path
     id="path88"
     style="fill:#3b96cc;fill-opacity:1;fill-rule:nonzero;stroke:none;stroke-width:1.33333325"
     d="m 264.22666,174.2068 -2.89333,2.38667 v 30.81333 l 2.89333,2.38667 17.42267,-17.79334 z"
     inkscape:connector-curvature="0" /><path
     id="path92"
     style="fill:#3b96cc;fill-opacity:1;fill-rule:nonzero;stroke:none;stroke-width:1.33333325"
     d="m 301.10666,209.7932 2.89333,-2.38667 V 176.5932 l -2.89333,-2.38667 -17.42267,17.79334 z"
     inkscape:connector-curvature="0" /><path
     id="path96"
     style="fill:#3b96cc;fill-opacity:1;fill-rule:nonzero;stroke:none;stroke-width:1.33333325"
     d="m 300.45986,173.56 -2.38667,-2.89333 h -30.81333 l -2.38667,2.89333 17.79334,17.42267 z"
     inkscape:connector-curvature="0" /><path
     id="path100"
     style="fill:#3b96cc;fill-opacity:1;fill-rule:nonzero;stroke:none;stroke-width:1.33333325"
     d="m 264.87346,210.44 2.38667,2.89333 h 30.81333 l 2.38667,-2.89333 -17.79334,-17.42267 z"
     inkscape:connector-curvature="0" /><path
     inkscape:connector-curvature="0"
     d="M 42.666666,170.66667 H 31.999999 V 160 h 10.666667 z"
     style="fill:#999999;fill-opacity:1;fill-rule:nonzero;stroke:none;stroke-width:1.33333325"
     id="path102" /><path
     inkscape:connector-curvature="0"
     d="M 58.666665,170.66667 H 47.999999 V 160 h 10.666666 z"
     style="fill:#d9d9d9;fill-opacity:1;fill-rule:nonzero;stroke:none;stroke-width:1.33333325"
     id="path104" /><path
     inkscape:connector-curvature="0"
     d="M 74.666665,170.66667 H 63.999998 V 160 h 10.666667 z"
     style="fill:#d9d9d9;fill-opacity:1;fill-rule:nonzero;stroke:none;stroke-width:1.33333325"
     id="path106" /><path
     inkscape:connector-curvature="0"
     d="M 90.666664,170.66667 H 79.999998 V 160 h 10.666666 z"
     style="fill:#d9d9d9;fill-opacity:1;fill-rule:nonzero;stroke:none;stroke-width:1.33333325"
     id="path108" /><path
     inkscape:connector-curvature="0"
     d="M 106.66666,170.66667 H 95.999998 V 160 h 10.666662 z"
     style="fill:#d9d9d9;fill-opacity:1;fill-rule:nonzero;stroke:none;stroke-width:1.33333325"
     id="path110" /><path
     inkscape:connector-curvature="0"
     d="M 122.66666,170.66667 H 112 V 160 h 10.66666 z"
     style="fill:#d9d9d9;fill-opacity:1;fill-rule:nonzero;stroke:none;stroke-width:1.33333325"
     id="path112" /><path
     inkscape:connector-curvature="0"
     d="M 138.66666,170.66667 H 128 V 160 h 10.66666 z"
     style="fill:#d9d9d9;fill-opacity:1;fill-rule:nonzero;stroke:none;stroke-width:1.33333325"
     id="path114" /><path
     inkscape:connector-curvature="0"
     d="M 154.66666,170.66667 H 144 V 160 h 10.66666 z"
     style="fill:#d9d9d9;fill-opacity:1;fill-rule:nonzero;stroke:none;stroke-width:1.33333325"
     id="path116" /><path
     inkscape:connector-curvature="0"
     d="M 170.66666,170.66667 H 160 V 160 h 10.66666 z"
     style="fill:#d9d9d9;fill-opacity:1;fill-rule:nonzero;stroke:none;stroke-width:1.33333325"
     id="path118" /><path
     inkscape:connector-curvature="0"
     d="M 186.66666,170.66667 H 176 V 160 h 10.66666 z"
     style="fill:#d9d9d9;fill-opacity:1;fill-rule:nonzero;stroke:none;stroke-width:1.33333325"
     id="path120" /><path
     inkscape:connector-curvature="0"
     d="M 202.66666,170.66667 H 192 V 160 h 10.66666 z"
     style="fill:#d9d9d9;fill-opacity:1;fill-rule:nonzero;stroke:none;stroke-width:1.33333325"
     id="path122" /><path
     inkscape:connector-curvature="0"
     d="M 218.66666,170.66667 H 207.99999 V 160 h 10.66667 z"
     style="fill:#d9d9d9;fill-opacity:1;fill-rule:nonzero;stroke:none;stroke-width:1.33333325"
     id="path124" /><path
     inkscape:connector-curvature="0"
     d="M 63.999998,186.66667 H 53.333332 V 176 h 10.666666 z"
     style="fill:#d9d9d9;fill-opacity:1;fill-rule:nonzero;stroke:none;stroke-width:1.33333325"
     id="path126" /><path
     inkscape:connector-curvature="0"
     d="m 47.999999,186.66667 h -16 V 176 h 16 z"
     style="fill:#999999;fill-opacity:1;fill-rule:nonzero;stroke:none;stroke-width:1.33333325"
     id="path128" /><path
     inkscape:connector-curvature="0"
     d="M 53.333332,202.66667 H 31.999999 V 192 h 21.333333 z"
     style="fill:#999999;fill-opacity:1;fill-rule:nonzero;stroke:none;stroke-width:1.33333325"
     id="path130" /><path
     inkscape:connector-curvature="0"
     d="M 63.999998,218.66667 H 31.999999 V 208 h 31.999999 z"
     style="fill:#999999;fill-opacity:1;fill-rule:nonzero;stroke:none;stroke-width:1.33333325"
     id="path132" /><path
     inkscape:connector-curvature="0"
     d="M 79.999998,186.66667 H 69.333332 V 176 h 10.666666 z"
     style="fill:#d9d9d9;fill-opacity:1;fill-rule:nonzero;stroke:none;stroke-width:1.33333325"
     id="path134" /><path
     inkscape:connector-curvature="0"
     d="M 95.999998,186.66667 H 85.333331 V 176 h 10.666667 z"
     style="fill:#d9d9d9;fill-opacity:1;fill-rule:nonzero;stroke:none;stroke-width:1.33333325"
     id="path136" /><path
     inkscape:connector-curvature="0"
     d="M 112,186.66667 H 101.33333 V 176 H 112 Z"
     style="fill:#d9d9d9;fill-opacity:1;fill-rule:nonzero;stroke:none;stroke-width:1.33333325"
     id="path138" /><path
     inkscape:connector-curvature="0"
     d="M 128,186.66667 H 117.33333 V 176 H 128 Z"
     style="fill:#d9d9d9;fill-opacity:1;fill-rule:nonzero;stroke:none;stroke-width:1.33333325"
     id="path140" /><path
     inkscape:connector-curvature="0"
     d="M 144,186.66667 H 133.33333 V 176 H 144 Z"
     style="fill:#d9d9d9;fill-opacity:1;fill-rule:nonzero;stroke:none;stroke-width:1.33333325"
     id="path142" /><path
     inkscape:connector-curvature="0"
     d="M 160,186.66667 H 149.33333 V 176 H 160 Z"
     style="fill:#d9d9d9;fill-opacity:1;fill-rule:nonzero;stroke:none;stroke-width:1.33333325"
     id="path144" /><path
     inkscape:connector-curvature="0"
     d="M 176,186.66667 H 165.33333 V 176 H 176 Z"
     style="fill:#d9d9d9;fill-opacity:1;fill-rule:nonzero;stroke:none;stroke-width:1.33333325"
     id="path146" /><path
     inkscape:connector-curvature="0"
     d="M 192,186.66667 H 181.33333 V 176 H 192 Z"
     style="fill:#d9d9d9;fill-opacity:1;fill-rule:nonzero;stroke:none;stroke-width:1.33333325"
     id="path148" /><path
     inkscape:connector-curvature="0"
     d="M 207.99999,186.66667 H 197.33333 V 176 h 10.66666 z"
     style="fill:#d9d9d9;fill-opacity:1;fill-rule:nonzero;stroke:none;stroke-width:1.33333325"
     id="path150" /><path
     inkscape:connector-curvature="0"
     d="M 223.99999,186.66667 H 213.33333 V 176 h 10.66666 z"
     style="fill:#d9d9d9;fill-opacity:1;fill-rule:nonzero;stroke:none;stroke-width:1.33333325"
     id="path152" /><path
     inkscape:connector-curvature="0"
     d="M 79.999998,218.66667 H 69.333332 V 208 h 10.666666 z"
     style="fill:#d9d9d9;fill-opacity:1;fill-rule:nonzero;stroke:none;stroke-width:1.33333325"
     id="path154" /><path
     inkscape:connector-curvature="0"
     d="M 197.33333,234.66667 H 69.333332 V 224 H 197.33333 Z"
     style="fill:#d9d9d9;fill-opacity:1;fill-rule:nonzero;stroke:none;stroke-width:1.33333325"
     id="path156" /><path
     inkscape:connector-curvature="0"
     d="M 95.999998,218.66667 H 85.333331 V 208 h 10.666667 z"
     style="fill:#d9d9d9;fill-opacity:1;fill-rule:nonzero;stroke:none;stroke-width:1.33333325"
     id="path158" /><path
     inkscape:connector-curvature="0"
     d="M 112,218.66667 H 101.33333 V 208 H 112 Z"
     style="fill:#d9d9d9;fill-opacity:1;fill-rule:nonzero;stroke:none;stroke-width:1.33333325"
     id="path160" /><path
     inkscape:connector-curvature="0"
     d="M 128,218.66667 H 117.33333 V 208 H 128 Z"
     style="fill:#d9d9d9;fill-opacity:1;fill-rule:nonzero;stroke:none;stroke-width:1.33333325"
     id="path162" /><path
     inkscape:connector-curvature="0"
     d="M 144,218.66667 H 133.33333 V 208 H 144 Z"
     style="fill:#d9d9d9;fill-opacity:1;fill-rule:nonzero;stroke:none;stroke-width:1.33333325"
     id="path164" /><path
     inkscape:connector-curvature="0"
     d="M 160,218.66667 H 149.33333 V 208 H 160 Z"
     style="fill:#d9d9d9;fill-opacity:1;fill-rule:nonzero;stroke:none;stroke-width:1.33333325"
     id="path166" /><path
     inkscape:connector-curvature="0"
     d="M 176,218.66667 H 165.33333 V 208 H 176 Z"
     style="fill:#d9d9d9;fill-opacity:1;fill-rule:nonzero;stroke:none;stroke-width:1.33333325"
     id="path168" /><path
     inkscape:connector-curvature="0"
     d="M 192,218.66667 H 181.33333 V 208 H 192 Z"
     style="fill:#d9d9d9;fill-opacity:1;fill-rule:nonzero;stroke:none;stroke-width:1.33333325"
     id="path170" /><path
     inkscape:connector-curvature="0"
     d="M 207.99999,218.66667 H 197.33333 V 208 h 10.66666 z"
     style="fill:#d9d9d9;fill-opacity:1;fill-rule:nonzero;stroke:none;stroke-width:1.33333325"
     id="path172" /><path
     inkscape:connector-curvature="0"
     d="M 223.99999,218.66667 H 213.33333 V 208 h 10.66666 z"
     style="fill:#d9d9d9;fill-opacity:1;fill-rule:nonzero;stroke:none;stroke-width:1.33333325"
     id="path174" /><path
     inkscape:connector-curvature="0"
     d="M 69.333332,202.66667 H 58.666665 V 192 h 10.666667 z"
     style="fill:#d9d9d9;fill-opacity:1;fill-rule:nonzero;stroke:none;stroke-width:1.33333325"
     id="path176" /><path
     inkscape:connector-curvature="0"
     d="M 85.333331,202.66667 H 74.666665 V 192 h 10.666666 z"
     style="fill:#d9d9d9;fill-opacity:1;fill-rule:nonzero;stroke:none;stroke-width:1.33333325"
     id="path178" /><path
     inkscape:connector-curvature="0"
     d="M 101.33333,202.66667 H 90.666664 V 192 h 10.666666 z"
     style="fill:#d9d9d9;fill-opacity:1;fill-rule:nonzero;stroke:none;stroke-width:1.33333325"
     id="path180" /><path
     inkscape:connector-curvature="0"
     d="M 117.33333,202.66667 H 106.66666 V 192 h 10.66667 z"
     style="fill:#d9d9d9;fill-opacity:1;fill-rule:nonzero;stroke:none;stroke-width:1.33333325"
     id="path182" /><path
     inkscape:connector-curvature="0"
     d="M 133.33333,202.66667 H 122.66666 V 192 h 10.66667 z"
     style="fill:#d9d9d9;fill-opacity:1;fill-rule:nonzero;stroke:none;stroke-width:1.33333325"
     id="path184" /><path
     inkscape:connector-curvature="0"
     d="M 149.33333,202.66667 H 138.66666 V 192 h 10.66667 z"
     style="fill:#d9d9d9;fill-opacity:1;fill-rule:nonzero;stroke:none;stroke-width:1.33333325"
     id="path186" /><path
     inkscape:connector-curvature="0"
     d="M 165.33333,202.66667 H 154.66666 V 192 h 10.66667 z"
     style="fill:#d9d9d9;fill-opacity:1;fill-rule:nonzero;stroke:none;stroke-width:1.33333325"
     id="path188" /><path
     inkscape:connector-curvature="0"
     d="M 181.33333,202.66667 H 170.66666 V 192 h 10.66667 z"
     style="fill:#d9d9d9;fill-opacity:1;fill-rule:nonzero;stroke:none;stroke-width:1.33333325"
     id="path190" /><path
     inkscape:connector-curvature="0"
     d="M 197.33333,202.66667 H 186.66666 V 192 h 10.66667 z"
     style="fill:#d9d9d9;fill-opacity:1;fill-rule:nonzero;stroke:none;stroke-width:1.33333325"
     id="path192" /><path
     inkscape:connector-curvature="0"
     d="M 213.33333,202.66667 H 202.66666 V 192 h 10.66667 z"
     style="fill:#d9d9d9;fill-opacity:1;fill-rule:nonzero;stroke:none;stroke-width:1.33333325"
     id="path194" /><path
     inkscape:connector-curvature="0"
     d="M 213.33333,234.66667 H 202.66666 V 224 h 10.66667 z"
     style="fill:#999999;fill-opacity:1;fill-rule:nonzero;stroke:none;stroke-width:1.33333325"
     id="path196" /><path
     inkscape:connector-curvature="0"
     d="M 63.999998,234.66667 H 53.333332 V 224 h 10.666666 z"
     style="fill:#999999;fill-opacity:1;fill-rule:nonzero;stroke:none;stroke-width:1.33333325"
     id="path198" /><path
     inkscape:connector-curvature="0"
     d="M 47.999999,234.66667 H 37.333332 V 224 h 10.666667 z"
     style="fill:#999999;fill-opacity:1;fill-rule:nonzero;stroke:none;stroke-width:1.33333325"
     id="path200" /><path
     inkscape:connector-curvature="0"
     d="M 229.33333,202.66667 H 218.66666 V 192 h 10.66667 z"
     style="fill:#d9d9d9;fill-opacity:1;fill-rule:nonzero;stroke:none;stroke-width:1.33333325"
     id="path202" /><path
     inkscape:connector-curvature="0"
     d="m 245.33333,202.66667 h -10.66667 v -16 h 10.66667 z"
     style="fill:#999999;fill-opacity:1;fill-rule:nonzero;stroke:none;stroke-width:1.33333325"
     id="path204" /><path
     inkscape:connector-curvature="0"
     d="M 245.33333,170.66667 H 223.99999 V 160 h 21.33334 z"
     style="fill:#999999;fill-opacity:1;fill-rule:nonzero;stroke:none;stroke-width:1.33333325"
     id="path206" /><path
     inkscape:connector-curvature="0"
     d="m 245.33333,218.66667 h -16 V 208 h 16 z"
     style="fill:#999999;fill-opacity:1;fill-rule:nonzero;stroke:none;stroke-width:1.33333325"
     id="path208" /><path
     inkscape:connector-curvature="0"
     d="m 245.33333,186.66667 h -16 V 176 h 16 z"
     style="fill:#999999;fill-opacity:1;fill-rule:nonzero;stroke:none;stroke-width:1.33333325"
     id="path210" /><g
     id="g220"
     transform="matrix(1.3333333,0,0,-1.3333333,293.80599,229.1304)"><path
       inkscape:connector-curvature="0"
       d="M 0,0 3.372,3.829 0.296,3.848 -1.549,1.749 -3.44,3.829 -10.872,3.824 c -1.845,0 -3.287,-1.052 -3.3,-2.388 -0.064,-1.457 1.255,-2.55 2.506,-2.541 l 2.914,-0.031 c 0.596,0 0.564,-0.877 0.039,-0.882 l -9.317,-0.007 v 5.873 h -2.324 v -7.98 h 11.803 c 0.941,-0.042 2.895,0.759 2.878,2.512 0.04,1.508 -1.58,2.474 -2.731,2.48 l -2.721,0.034 c -0.685,-0.017 -0.711,0.879 -0.006,0.884 l 6.46,0.008 1.55,-1.823 -3.555,-4.105 3.122,-0.003 2.018,2.383 2.122,-2.383 3.06,-0.007 z"
       style="fill:#d9d9d9;fill-opacity:1;fill-rule:nonzero;stroke:none"
       id="path222" /></g><g
     id="g224"
     transform="matrix(1.3333333,0,0,-1.3333333,37.333332,87.619603)"><path
       inkscape:connector-curvature="0"
       d="M 0,0 H 1.107 V -4.186 H 3.752 V -5.103 H 0 Z"
       style="fill:#404040;fill-opacity:1;fill-rule:nonzero;stroke:none"
       id="path226" /></g><path
     inkscape:connector-curvature="0"
     d="m 42.667999,89.392003 h 1.385333 v 5.032 h -1.385333 z m 1.384,-0.6 h -1.385333 v -1.214667 h 1.385333 z"
     style="fill:#404040;fill-opacity:1;fill-rule:nonzero;stroke:none;stroke-width:1.33333325"
     id="path228" /><g
     id="g230"
     transform="matrix(1.3333333,0,0,-1.3333333,48.123332,93.062136)"><path
       inkscape:connector-curvature="0"
       d="m 0,0 c 0.147,0.205 0.221,0.475 0.221,0.81 0,0.268 -0.036,0.489 -0.109,0.665 -0.137,0.332 -0.391,0.498 -0.761,0.498 -0.374,0 -0.631,-0.162 -0.771,-0.488 -0.073,-0.173 -0.109,-0.397 -0.109,-0.671 0,-0.324 0.075,-0.591 0.225,-0.804 0.149,-0.212 0.377,-0.318 0.684,-0.318 0.266,0 0.473,0.103 0.62,0.308 M 0.856,2.299 C 1.149,1.941 1.295,1.479 1.295,0.914 1.295,0.328 1.151,-0.158 0.862,-0.544 0.573,-0.929 0.17,-1.122 -0.348,-1.122 c -0.325,0 -0.586,0.063 -0.784,0.187 -0.118,0.074 -0.246,0.203 -0.383,0.388 v -0.474 h -1.01 V 4.075 H -1.5 V 2.261 c 0.13,0.175 0.273,0.309 0.43,0.401 0.186,0.116 0.422,0.173 0.709,0.173 0.518,0 0.924,-0.178 1.217,-0.536"
       style="fill:#404040;fill-opacity:1;fill-rule:nonzero;stroke:none"
       id="path232" /></g><g
     id="g234"
     transform="matrix(1.3333333,0,0,-1.3333333,53.131732,89.274536)"><path
       inkscape:connector-curvature="0"
       d="m 0,0 c 0.013,-0.001 0.043,-0.003 0.088,-0.005 v -1.011 c -0.065,0.007 -0.122,0.011 -0.172,0.014 -0.051,0.002 -0.091,0.003 -0.123,0.003 -0.412,0 -0.688,-0.129 -0.83,-0.388 -0.079,-0.145 -0.118,-0.369 -0.118,-0.671 v -1.804 h -1.032 v 3.774 h 0.978 v -0.658 c 0.158,0.251 0.296,0.423 0.413,0.516 0.192,0.154 0.441,0.232 0.747,0.232 C -0.029,0.002 -0.013,0.001 0,0"
       style="fill:#404040;fill-opacity:1;fill-rule:nonzero;stroke:none"
       id="path236" /></g><g
     id="g238"
     transform="matrix(1.3333333,0,0,-1.3333333,54.839865,90.630936)"><path
       inkscape:connector-curvature="0"
       d="M 0,0 C -0.144,-0.144 -0.235,-0.338 -0.273,-0.584 H 1.492 C 1.473,-0.322 1.382,-0.123 1.219,0.013 1.056,0.148 0.853,0.216 0.612,0.216 0.349,0.216 0.145,0.144 0,0 M 1.532,0.853 C 1.806,0.735 2.032,0.548 2.209,0.294 2.369,0.07 2.474,-0.19 2.522,-0.486 2.549,-0.659 2.56,-0.909 2.555,-1.235 h -2.853 c 0.016,-0.378 0.153,-0.644 0.41,-0.796 0.156,-0.095 0.344,-0.142 0.565,-0.142 0.233,0 0.423,0.058 0.568,0.173 0.08,0.062 0.151,0.149 0.211,0.26 H 2.502 C 2.474,-1.964 2.348,-2.192 2.122,-2.422 1.771,-2.789 1.28,-2.973 0.648,-2.973 c -0.521,0 -0.981,0.155 -1.379,0.464 -0.399,0.31 -0.598,0.814 -0.598,1.511 0,0.654 0.18,1.155 0.54,1.504 0.359,0.349 0.826,0.523 1.4,0.523 0.341,0 0.648,-0.058 0.921,-0.176"
       style="fill:#404040;fill-opacity:1;fill-rule:nonzero;stroke:none"
       id="path240" /></g><g
     id="g242"
     transform="matrix(1.3333333,0,0,-1.3333333,57.831332,90.37547)"><path
       inkscape:connector-curvature="0"
       d="M 0,0 V 0.703 H 0.546 V 1.755 H 1.56 V 0.703 H 2.196 V 0 H 1.56 v -1.994 c 0,-0.155 0.02,-0.251 0.061,-0.289 0.04,-0.038 0.165,-0.057 0.373,-0.057 0.032,0 0.065,0 0.1,10e-4 0.035,10e-4 0.068,0.003 0.102,0.006 V -3.071 L 1.711,-3.088 C 1.227,-3.104 0.896,-3.024 0.719,-2.846 0.604,-2.733 0.546,-2.559 0.546,-2.323 V 0 Z"
       style="fill:#404040;fill-opacity:1;fill-rule:nonzero;stroke:none"
       id="path244" /></g><g
     id="g246"
     transform="matrix(1.3333333,0,0,-1.3333333,63.968398,89.274536)"><path
       inkscape:connector-curvature="0"
       d="m 0,0 c 0.013,-0.001 0.043,-0.003 0.088,-0.005 v -1.011 c -0.065,0.007 -0.122,0.011 -0.172,0.014 -0.051,0.002 -0.091,0.003 -0.123,0.003 -0.412,0 -0.688,-0.129 -0.83,-0.388 -0.079,-0.145 -0.118,-0.369 -0.118,-0.671 v -1.804 h -1.032 v 3.774 h 0.978 v -0.658 c 0.158,0.251 0.296,0.423 0.413,0.516 0.192,0.154 0.441,0.232 0.747,0.232 C -0.029,0.002 -0.013,0.001 0,0"
       style="fill:#404040;fill-opacity:1;fill-rule:nonzero;stroke:none"
       id="path248" /></g><g
     id="g250"
     transform="matrix(1.3333333,0,0,-1.3333333,67.579598,93.081336)"><path
       inkscape:connector-curvature="0"
       d="m 0,0 c 0.161,0.205 0.241,0.497 0.241,0.875 0,0.378 -0.08,0.669 -0.241,0.873 -0.161,0.203 -0.391,0.306 -0.69,0.306 -0.299,0 -0.53,-0.103 -0.692,-0.306 -0.161,-0.204 -0.242,-0.495 -0.242,-0.873 0,-0.378 0.081,-0.67 0.242,-0.875 0.162,-0.205 0.393,-0.308 0.692,-0.308 0.299,0 0.529,0.103 0.69,0.308 m 0.819,-0.545 c -0.33,-0.394 -0.832,-0.59 -1.505,-0.59 -0.674,0 -1.175,0.196 -1.506,0.59 -0.331,0.393 -0.496,0.866 -0.496,1.42 0,0.544 0.165,1.016 0.496,1.415 0.331,0.398 0.832,0.598 1.506,0.598 0.673,0 1.175,-0.2 1.505,-0.598 C 1.15,1.891 1.315,1.419 1.315,0.875 1.315,0.321 1.15,-0.152 0.819,-0.545"
       style="fill:#404040;fill-opacity:1;fill-rule:nonzero;stroke:none"
       id="path252" /></g></svg>
