<?xml version="1.0" encoding="UTF-8" standalone="no"?>
<svg
   xmlns:dc="http://purl.org/dc/elements/1.1/"
   xmlns:cc="http://creativecommons.org/ns#"
   xmlns:rdf="http://www.w3.org/1999/02/22-rdf-syntax-ns#"
   xmlns:svg="http://www.w3.org/2000/svg"
   xmlns="http://www.w3.org/2000/svg"
   xmlns:sodipodi="http://sodipodi.sourceforge.net/DTD/sodipodi-0.dtd"
   xmlns:inkscape="http://www.inkscape.org/namespaces/inkscape"
   viewBox="0 0 341.33334 341.33334"
   height="256"
   width="256"
   xml:space="preserve"
   id="svg2"
   version="1.1"
   sodipodi:docname="Microsoft - XBOX 360.svg"
   inkscape:version="0.92.2 (5c3e80d, 2017-08-06)"
   inkscape:export-filename="C:\Users\Alfre\AppData\Roaming\RetroArch\assets\xmb\custom\png\Microsoft - XBOX 360.png"
   inkscape:export-xdpi="96"
   inkscape:export-ydpi="96"><sodipodi:namedview
     pagecolor="#ffffff"
     bordercolor="#666666"
     borderopacity="1"
     objecttolerance="10"
     gridtolerance="10"
     guidetolerance="10"
     inkscape:pageopacity="0"
     inkscape:pageshadow="2"
     inkscape:window-width="1920"
     inkscape:window-height="1001"
     id="namedview77"
     showgrid="false"
     inkscape:zoom="0.9777961"
     inkscape:cx="155.04552"
     inkscape:cy="244.47297"
     inkscape:window-x="-9"
     inkscape:window-y="-9"
     inkscape:window-maximized="1"
     inkscape:current-layer="svg2"
     inkscape:pagecheckerboard="true"
     inkscape:snap-object-midpoints="true"
     showguides="true"
     inkscape:guide-bbox="true" /><metadata
     id="metadata8"><rdf:RDF><cc:Work
         rdf:about=""><dc:format>image/svg+xml</dc:format><dc:type
           rdf:resource="http://purl.org/dc/dcmitype/StillImage" /><dc:title /></cc:Work></rdf:RDF></metadata><defs
     id="defs6"><clipPath
       id="clipPath18"
       clipPathUnits="userSpaceOnUse"><path
         id="path16"
         d="M 0,256 H 256 V 0 H 0 Z" /></clipPath><clipPath
       id="clipPath26"
       clipPathUnits="userSpaceOnUse"><path
         id="path24"
         d="M 8,215.426 H 248 V 40.5736 H 8 Z" /></clipPath><filter
       inkscape:collect="always"
       style="color-interpolation-filters:sRGB"
       id="filter854"
       x="-0.0030489811"
       width="1.006098"
       y="-0.0043941145"
       height="1.0087882"><feGaussianBlur
         inkscape:collect="always"
         stdDeviation="0.37942874"
         id="feGaussianBlur856" /></filter></defs><g
     id="g22"
     transform="matrix(1.3333333,0,0,-1.3333333,0,341.33333)" /><path
     id="path38"
     style="fill:#262626;fill-opacity:1;fill-rule:nonzero;stroke:none;stroke-width:1.33333325"
     d="m 79.999998,256 c 0,0 42.666662,-32 90.666662,-32 48,0 90.66667,32 90.66667,32 V 213.33333 H 79.999998 Z"
     inkscape:connector-curvature="0" /><path
     id="path42"
     style="fill:#4d4d4d;fill-opacity:1;fill-rule:nonzero;stroke:none;stroke-width:1.33333325"
     d="m 239.99999,74.66667 v -8.197333 c 0,-1.412 1.08933,-2.581333 2.5,-2.662667 9.85733,-0.568 45.5,-0.714666 45.5,26.86 z"
     inkscape:connector-curvature="0" /><path
     id="path46"
     style="fill:#4d4d4d;fill-opacity:1;fill-rule:nonzero;stroke:none;stroke-width:1.33333325"
     d="m 101.33333,74.66667 v -8.197333 c 0,-1.412 -1.08933,-2.581333 -2.5,-2.662667 -9.857333,-0.568 -45.499999,-0.714666 -45.499999,26.86 z"
     inkscape:connector-curvature="0" /><path
     id="path50"
     style="fill:#191919;fill-opacity:1;fill-rule:nonzero;stroke:none;stroke-width:1.33333325;filter:url(#filter854)"
     d="m 298.66666,105.46947 c -10.66667,-21.333333 -16,-31.999999 -42.66667,-37.333332 -17.59733,-3.52 -28.22799,2.250666 -33.42133,6.583999 -4.57066,3.809334 -9.72,6.890667 -15.37466,8.741334 -18.34934,6.007999 -36.53734,6.007999 -36.53734,6.007999 0,0 -18.18666,0 -36.53733,-6.007999 -5.65467,-1.850667 -10.804,-4.932 -15.37333,-8.741334 -5.196,-4.333333 -15.82534,-10.103999 -33.422668,-6.583999 -26.666666,5.333333 -31.999999,15.999999 -42.666666,37.333332 -10.666666,21.33333 -21.333332,80 -21.333332,128 0,0 0,79.99999 63.999998,16 0,0 21.333328,-32 85.333328,-32 64,0 85.33333,32 85.33333,32 64,63.99999 64,-16 64,-16 0,-48 -10.66666,-106.66667 -21.33333,-128"
     inkscape:connector-curvature="0" /><path
     inkscape:connector-curvature="0"
     d="M 205.33333,128 H 136 v -16 h 69.33333 z"
     style="fill:#262626;fill-opacity:1;fill-rule:nonzero;stroke:none;stroke-width:1.33333325"
     id="path52" /><path
     id="path56"
     style="fill:#4d4d4d;fill-opacity:1;fill-rule:nonzero;stroke:none;stroke-width:1.33333325"
     d="m 144,120 c 0,4.41733 -3.58267,8 -8,8 -4.41733,0 -8,-3.58267 -8,-8 0,-4.41733 3.58267,-8 8,-8 4.41733,0 8,3.58267 8,8"
     inkscape:connector-curvature="0" /><path
     id="path60"
     style="fill:#4d4d4d;fill-opacity:1;fill-rule:nonzero;stroke:none;stroke-width:1.33333325"
     d="m 213.33333,120 c 0,4.41733 -3.58267,8 -8,8 -4.41733,0 -8,-3.58267 -8,-8 0,-4.41733 3.58267,-8 8,-8 4.41733,0 8,3.58267 8,8"
     inkscape:connector-curvature="0" /><path
     id="path64-7"
     style="fill:#007b00;fill-opacity:1;fill-rule:nonzero;stroke:none;stroke-width:1.33333325"
     d="m 170.66666,104 c -10.29333,0 -18.66667,8.37333 -18.66667,18.66667 0,10.29333 8.37334,18.66666 18.66667,18.66666 10.29333,0 18.66667,-8.37333 18.66667,-18.66666 C 189.33333,112.37333 180.95999,104 170.66666,104"
     inkscape:connector-curvature="0"
     sodipodi:nodetypes="csssc" /><path
     sodipodi:nodetypes="cccccccsccscccccccccccscccc"
     inkscape:connector-curvature="0"
     style="fill:#b3b3b3;fill-opacity:1;fill-rule:nonzero;stroke:none;stroke-width:1.33333325"
     d="m 181.94792,111.32552 c -0.58385,0.15589 -1.38441,0.50125 -1.9948,0.88021 -1.04913,0.65115 -2.02222,1.41808 -3.42186,2.69792 l -1.07292,0.97916 0.99218,1.23959 c 3.14783,3.94062 6.5762,9.73621 7.60156,12.85156 0.10907,0.33162 0.19947,0.66191 0.27866,0.98438 1.47205,-2.42037 2.33593,-5.25198 2.33593,-8.29167 0,-4.43325 -1.80561,-8.44331 -4.71875,-11.34115 z m -22.57813,0.0131 c -2.90467,2.89668 -4.70312,6.90214 -4.70312,11.32808 0,3.05058 0.86976,5.89171 2.35156,8.31771 0.12466,-0.50391 0.27557,-1.02374 0.47136,-1.55209 1.25298,-3.38215 4.58052,-8.85016 7.73437,-12.70573 l 0.6823,-0.83072 -1.2448,-1.1198 c -2.13132,-1.91936 -3.50643,-2.86618 -4.79167,-3.29948 -0.21742,-0.0732 -0.34992,-0.10154 -0.5,-0.13802 z m 11.36199,9.07292 c -0.33643,-0.0746 -3.45006,2.6942 -5.6849,5.05729 -3.07152,3.24584 -5.12675,6.16868 -5.89063,8.29166 2.91031,3.0189 6.98633,4.90621 11.51042,4.90621 4.52805,0 8.60744,-1.89047 11.51823,-4.91407 -0.57166,-1.53818 -1.79124,-3.50495 -3.60416,-5.71874 -1.95968,-2.39358 -7.19387,-7.47676 -7.84896,-7.6224 z"
     id="path68-2" /><path
     id="path64"
     style="fill:#00d400;fill-opacity:1;fill-rule:nonzero;stroke:none;stroke-width:1.33333325"
     d="m 170.66666,104 c -10.29333,0 -18.66667,8.37333 -18.66667,18.66667 0,10.29333 8.37334,18.66666 18.66667,18.66666 10.29333,0 18.66667,-8.37333 18.66667,-18.66666 C 189.33333,112.37333 180.95999,104 170.66666,104 m 0,2.66667 c 8.836,0 16,7.164 16,16 0,8.836 -7.164,16 -16,16 -8.836,0 -16,-7.164 -16,-16 0,-8.836 7.164,-16 16,-16"
     inkscape:connector-curvature="0" /><path
     id="path72"
     style="fill:#262626;fill-opacity:1;fill-rule:nonzero;stroke:none;stroke-width:1.02564096"
     d="m 154.66667,175.99999 c 0,14.72718 -11.93948,26.66668 -26.66667,26.66668 -14.72718,0 -26.66667,-11.9395 -26.66667,-26.66668 0,-14.72717 11.93949,-26.66666 26.66667,-26.66666 14.72719,0 26.66667,11.93949 26.66667,26.66666"
     inkscape:connector-curvature="0" /><path
     id="path76"
     style="fill:#262626;fill-opacity:1;fill-rule:nonzero;stroke:none;stroke-width:1.33333325"
     d="m 240,176 c 0,14.72777 -11.93889,26.66667 -26.66666,26.66667 -14.72778,0 -26.66667,-11.9389 -26.66667,-26.66667 0,-14.72777 11.93889,-26.66666 26.66667,-26.66666 C 228.06111,149.33334 240,161.27223 240,176"
     inkscape:connector-curvature="0" /><path
     id="path80"
     style="fill:#202020;fill-opacity:1;fill-rule:nonzero;stroke:none;stroke-width:1.02564096"
     d="m 150.5641,176 c 0,12.46155 -10.10256,22.5641 -22.5641,22.5641 -12.46154,0 -22.5641,-10.10256 -22.5641,-22.5641 0,-12.46153 10.10256,-22.5641 22.5641,-22.5641 12.46154,0 22.5641,10.10258 22.5641,22.5641"
     inkscape:connector-curvature="0" /><path
     id="path84"
     style="fill:#354f9f;fill-opacity:1;fill-rule:nonzero;stroke:none;stroke-width:1.33333325"
     d="m 247.99999,120 c 0,5.89067 -4.776,10.66667 -10.66667,10.66667 -5.89066,0 -10.66666,-4.776 -10.66666,-10.66667 0,-5.89067 4.776,-10.66667 10.66666,-10.66667 5.89067,0 10.66667,4.776 10.66667,10.66667"
     inkscape:connector-curvature="0" /><path
     id="path88"
     style="fill:#d4a600;fill-opacity:1;fill-rule:nonzero;stroke:none;stroke-width:1.33333325"
     d="m 271.99999,96.000003 c 0,5.890667 -4.776,10.666667 -10.66667,10.666667 -5.89066,0 -10.66666,-4.776 -10.66666,-10.666667 0,-5.890667 4.776,-10.666666 10.66666,-10.666666 5.89067,0 10.66667,4.775999 10.66667,10.666666"
     inkscape:connector-curvature="0" /><path
     id="path92"
     style="fill:#007b00;fill-opacity:1;fill-rule:nonzero;stroke:none;stroke-width:1.33333325"
     d="m 271.99999,144 c 0,5.89067 -4.776,10.66667 -10.66667,10.66667 -5.89066,0 -10.66666,-4.776 -10.66666,-10.66667 0,-5.89067 4.776,-10.66667 10.66666,-10.66667 5.89067,0 10.66667,4.776 10.66667,10.66667"
     inkscape:connector-curvature="0" /><path
     id="path96"
     style="fill:#b80000;fill-opacity:1;fill-rule:nonzero;stroke:none;stroke-width:1.33333325"
     d="m 295.99999,120 c 0,5.89067 -4.776,10.66667 -10.66667,10.66667 -5.89066,0 -10.66666,-4.776 -10.66666,-10.66667 0,-5.89067 4.776,-10.66667 10.66666,-10.66667 5.89067,0 10.66667,4.776 10.66667,10.66667"
     inkscape:connector-curvature="0" /><g
     id="g882"
     transform="translate(3.53334,-3.53333)"><path
       inkscape:connector-curvature="0"
       d="m 227.59999,179.53333 c 0,9.83117 -7.96884,17.8 -17.8,17.8 -9.83116,0 -17.8,-7.96883 -17.8,-17.8 0,-9.83005 7.96884,-17.8 17.8,-17.8 9.83116,0 17.8,7.96995 17.8,17.8"
       style="fill:#4d4d4d;fill-opacity:1;fill-rule:nonzero;stroke:#000000;stroke-width:1.73333335;stroke-miterlimit:4;stroke-dasharray:none;stroke-opacity:1"
       id="path100" /><path
       inkscape:connector-curvature="0"
       d="m 223.14999,179.53333 c 0,7.37254 -5.97746,13.35 -13.35,13.35 -7.37253,0 -13.34999,-5.97746 -13.34999,-13.35 0,-7.37254 5.97746,-13.35 13.34999,-13.35 7.37254,0 13.35,5.97746 13.35,13.35"
       style="fill:#202020;fill-opacity:1;fill-rule:nonzero;stroke:none;stroke-width:1.33333325"
       id="path104" /><path
       inkscape:connector-curvature="0"
       d="m 199.7875,179.53333 c 0,0.61521 -0.49729,1.1125 -1.1125,1.1125 -0.61522,0 -1.11251,-0.49729 -1.11251,-1.1125 0,-0.61521 0.49729,-1.1125 1.11251,-1.1125 0.61521,0 1.1125,0.49729 1.1125,1.1125"
       style="fill:#4d4d4d;fill-opacity:1;fill-rule:nonzero;stroke:none;stroke-width:1.33333325"
       id="path108" /><path
       inkscape:connector-curvature="0"
       d="m 222.03749,179.53333 c 0,0.61521 -0.49729,1.1125 -1.1125,1.1125 -0.61522,0 -1.1125,-0.49729 -1.1125,-1.1125 0,-0.61521 0.49728,-1.1125 1.1125,-1.1125 0.61521,0 1.1125,0.49729 1.1125,1.1125"
       style="fill:#4d4d4d;fill-opacity:1;fill-rule:nonzero;stroke:none;stroke-width:1.33333325"
       id="path112" /><path
       inkscape:connector-curvature="0"
       d="m 209.79999,169.52083 c -0.61521,0 -1.11249,-0.4984 -1.11249,-1.1125 0,-0.6141 0.49728,-1.1125 1.11249,-1.1125 0.61521,0 1.1125,0.4984 1.1125,1.1125 0,0.6141 -0.49729,1.1125 -1.1125,1.1125"
       style="fill:#4d4d4d;fill-opacity:1;fill-rule:nonzero;stroke:none;stroke-width:1.33333325"
       id="path116" /><path
       inkscape:connector-curvature="0"
       d="m 209.79999,191.77084 c -0.61521,0 -1.11249,-0.49729 -1.11249,-1.1125 0,-0.61522 0.49728,-1.11251 1.11249,-1.11251 0.61521,0 1.1125,0.49729 1.1125,1.11251 0,0.61521 -0.49729,1.1125 -1.1125,1.1125"
       style="fill:#4d4d4d;fill-opacity:1;fill-rule:nonzero;stroke:none;stroke-width:1.33333325"
       id="path120" /></g><path
     id="path124"
     style="fill:#262626;fill-opacity:1;fill-rule:nonzero;stroke:none;stroke-width:1.33333325"
     d="m 101.33333,117.33334 c 0,14.72728 -11.939389,26.66667 -26.666662,26.66667 -14.727273,0 -26.666667,-11.93939 -26.666667,-26.66667 0,-14.72727 11.939394,-26.666668 26.666667,-26.666668 14.727273,0 26.666662,11.939398 26.666662,26.666668"
     inkscape:connector-curvature="0" /><g
     id="g874"
     transform="translate(0.806113,0.898406)"><path
       inkscape:connector-curvature="0"
       d="m 91.660555,116.43493 c 0,9.83005 -7.969951,17.8 -17.800001,17.8 -9.83005,0 -17.8,-7.96995 -17.8,-17.8 0,-9.83005 7.96995,-17.799995 17.8,-17.799995 9.83005,0 17.800001,7.969945 17.800001,17.799995"
       style="fill:#4d4d4d;fill-opacity:1;fill-rule:nonzero;stroke:#000000;stroke-width:1.73333335;stroke-miterlimit:4;stroke-dasharray:none;stroke-opacity:1"
       id="path128" /><path
       inkscape:connector-curvature="0"
       d="m 87.210554,116.43493 c 0,7.37254 -5.977463,13.35 -13.35,13.35 -7.372537,0 -13.35,-5.97746 -13.35,-13.35 0,-7.37254 5.977463,-13.35 13.35,-13.35 7.372537,0 13.35,5.97746 13.35,13.35"
       style="fill:#202020;fill-opacity:1;fill-rule:nonzero;stroke:none;stroke-width:1.33333325"
       id="path132" /><path
       inkscape:connector-curvature="0"
       d="m 63.848054,116.43493 c 0,0.6141 -0.4984,1.1125 -1.1125,1.1125 -0.6141,0 -1.1125,-0.4984 -1.1125,-1.1125 0,-0.6141 0.4984,-1.1125 1.1125,-1.1125 0.6141,0 1.1125,0.4984 1.1125,1.1125"
       style="fill:#4d4d4d;fill-opacity:1;fill-rule:nonzero;stroke:none;stroke-width:1.33333325"
       id="path136" /><path
       inkscape:connector-curvature="0"
       d="m 86.098054,116.43493 c 0,0.6141 -0.4984,1.1125 -1.1125,1.1125 -0.6141,0 -1.1125,-0.4984 -1.1125,-1.1125 0,-0.6141 0.4984,-1.1125 1.1125,-1.1125 0.6141,0 1.1125,0.4984 1.1125,1.1125"
       style="fill:#4d4d4d;fill-opacity:1;fill-rule:nonzero;stroke:none;stroke-width:1.33333325"
       id="path140" /><path
       inkscape:connector-curvature="0"
       d="m 73.860554,106.42243 c -0.6141,0 -1.112499,-0.4984 -1.112499,-1.1125 0,-0.6141 0.498399,-1.1125 1.112499,-1.1125 0.6141,0 1.1125,0.4984 1.1125,1.1125 0,0.6141 -0.4984,1.1125 -1.1125,1.1125"
       style="fill:#4d4d4d;fill-opacity:1;fill-rule:nonzero;stroke:none;stroke-width:1.33333325"
       id="path144" /><path
       inkscape:connector-curvature="0"
       d="m 73.860554,128.67243 c -0.6141,0 -1.112499,-0.4984 -1.112499,-1.1125 0,-0.6141 0.498399,-1.11251 1.112499,-1.11251 0.6141,0 1.1125,0.49841 1.1125,1.11251 0,0.6141 -0.4984,1.1125 -1.1125,1.1125"
       style="fill:#4d4d4d;fill-opacity:1;fill-rule:nonzero;stroke:none;stroke-width:1.33333325"
       id="path148" /></g><path
     id="path152"
     style="fill:#4d4d4d;fill-opacity:1;fill-rule:nonzero;stroke:none;stroke-width:1.02564096"
     d="m 142.35898,169.84615 c -4.53129,0 -8.20513,-3.67385 -8.20513,-8.20513 v -7.34872 c -1.95692,-0.55384 -4.01949,-0.85641 -6.15385,-0.85641 -2.13435,0 -4.19692,0.30257 -6.15384,0.85641 v 7.34872 c 0,4.53128 -3.67385,8.20513 -8.20513,8.20513 h -7.34873 c -0.55384,1.95692 -0.85641,4.01948 -0.85641,6.15384 0,2.13436 0.30257,4.19693 0.85641,6.15385 h 7.34873 c 4.53128,0 8.20513,3.67385 8.20513,8.20513 v 7.34872 c 1.95692,0.55385 4.01949,0.85641 6.15384,0.85641 2.13436,0 4.19693,-0.30256 6.15385,-0.85641 v -7.34872 c 0,-4.53129 3.67384,-8.20513 8.20513,-8.20513 h 7.34872 c 0.55384,-1.95692 0.85641,-4.01948 0.85641,-6.15385 0,-2.13435 -0.30257,-4.19692 -0.85641,-6.15384 z"
     inkscape:connector-curvature="0" /><text
     xml:space="preserve"
     style="font-style:normal;font-weight:normal;font-size:19.60959625px;line-height:1.25;font-family:sans-serif;letter-spacing:0px;word-spacing:0px;fill:#00d400;fill-opacity:1;stroke:none;stroke-width:0.49023989;"
     x="254.45096"
     y="150.23729"
     id="text81"><tspan
       sodipodi:role="line"
       id="tspan79"
       x="254.45096"
       y="150.23729"
       style="stroke-width:0.49023989;fill:#00d400;fill-opacity:1;">A</tspan></text>
<text
     xml:space="preserve"
     style="font-style:normal;font-weight:normal;font-size:19.60935974px;line-height:1.25;font-family:sans-serif;letter-spacing:0px;word-spacing:0px;fill:#ff1313;fill-opacity:1;stroke:none;stroke-width:0.49023399;"
     x="279.04202"
     y="127.1285"
     id="text890"><tspan
       sodipodi:role="line"
       id="tspan888"
       x="279.04202"
       y="127.1285"
       style="stroke-width:0.49023399;fill:#ff1313;fill-opacity:1;">B</tspan></text>
<text
     xml:space="preserve"
     style="font-style:normal;font-weight:normal;font-size:19.60935974px;line-height:1.25;font-family:sans-serif;letter-spacing:0px;word-spacing:0px;fill:#7e92ce;fill-opacity:1;stroke:none;stroke-width:0.49023399;"
     x="230.61176"
     y="127.1285"
     id="text894"><tspan
       sodipodi:role="line"
       id="tspan892"
       x="230.61176"
       y="127.1285"
       style="stroke-width:0.49023399;fill:#7e92ce;fill-opacity:1;">X</tspan></text>
<text
     xml:space="preserve"
     style="font-style:normal;font-weight:normal;font-size:19.60935974px;line-height:1.25;font-family:sans-serif;letter-spacing:0px;word-spacing:0px;fill:#ffdd25;fill-opacity:1;stroke:none;stroke-width:0.49023399;"
     x="255.30115"
     y="103.1285"
     id="text898"><tspan
       sodipodi:role="line"
       id="tspan896"
       x="255.30115"
       y="103.1285"
       style="stroke-width:0.49023399;fill:#ffdd25;fill-opacity:1;">Y</tspan></text>
</svg>