<?xml version="1.0" encoding="UTF-8" standalone="no"?>
<svg
   xmlns:dc="http://purl.org/dc/elements/1.1/"
   xmlns:cc="http://creativecommons.org/ns#"
   xmlns:rdf="http://www.w3.org/1999/02/22-rdf-syntax-ns#"
   xmlns:svg="http://www.w3.org/2000/svg"
   xmlns="http://www.w3.org/2000/svg"
   xmlns:sodipodi="http://sodipodi.sourceforge.net/DTD/sodipodi-0.dtd"
   xmlns:inkscape="http://www.inkscape.org/namespaces/inkscape"
   viewBox="0 0 341.33334 341.33334"
   height="256"
   width="256"
   xml:space="preserve"
   id="svg2"
   version="1.1"
   sodipodi:docname="SNK - Neo Geo CD.svg"
   inkscape:version="0.92.2 (5c3e80d, 2017-08-06)"
   inkscape:export-filename="D:\Documents\Github\Retrosystem-retroarch-theme\png\SNK - Neo Geo CD.png"
   inkscape:export-xdpi="96"
   inkscape:export-ydpi="96"><sodipodi:namedview
     pagecolor="#ffffff"
     bordercolor="#666666"
     borderopacity="1"
     objecttolerance="10"
     gridtolerance="10"
     guidetolerance="10"
     inkscape:pageopacity="0"
     inkscape:pageshadow="2"
     inkscape:window-width="1024"
     inkscape:window-height="705"
     id="namedview112"
     showgrid="false"
     inkscape:pagecheckerboard="true"
     inkscape:zoom="0.97779603"
     inkscape:cx="152.27753"
     inkscape:cy="32.505689"
     inkscape:window-x="-8"
     inkscape:window-y="-8"
     inkscape:window-maximized="1"
     inkscape:current-layer="svg2" /><metadata
     id="metadata8"><rdf:RDF><cc:Work
         rdf:about=""><dc:format>image/svg+xml</dc:format><dc:type
           rdf:resource="http://purl.org/dc/dcmitype/StillImage" /><dc:title /></cc:Work></rdf:RDF></metadata><defs
     id="defs6"><clipPath
       id="clipPath18"
       clipPathUnits="userSpaceOnUse"><path
         id="path16"
         d="M 0,256 H 256 V 0 H 0 Z" /></clipPath><clipPath
       id="clipPath26"
       clipPathUnits="userSpaceOnUse"><path
         id="path24"
         d="M 4.00005,208 H 252 V 48 H 4.00005 Z" /></clipPath></defs><g
     id="g22"
     transform="matrix(1.3333333,0,0,-1.3333333,0,341.33333)" /><path
     id="path38"
     style="fill:#191919;fill-opacity:1;fill-rule:nonzero;stroke:none;stroke-width:1.33333325"
     d="m 170.66666,74.66667 c -89.806664,0 -154.511996,35.368 -154.666663,96 0,65.684 54.881332,96 74.838665,96 28.478668,0 48.470668,-10.16134 79.827998,-10.10534 40.21867,0.0707 74.83866,10.10534 79.828,10.10534 34.92533,0 74.83866,-40.42134 74.83866,-96 0,-65.684 -64.86,-96 -154.66666,-96"
     inkscape:connector-curvature="0" /><path
     id="path42"
     style="fill:#4d4d4d;fill-opacity:1;fill-rule:nonzero;stroke:none;stroke-width:1.33333325"
     d="m 202.66666,85.333336 c -5.88133,0 -10.66667,4.785333 -10.66667,10.666666 0,5.881338 4.78534,10.666668 10.66667,10.666668 5.88133,0 10.66667,-4.78533 10.66667,-10.666668 0,-5.881333 -4.78534,-10.666666 -10.66667,-10.666666"
     inkscape:connector-curvature="0" /><path
     id="path46"
     style="fill:#4d4d4d;fill-opacity:1;fill-rule:nonzero;stroke:none;stroke-width:1.33333325"
     d="m 202.66666,88.000003 c 4.416,0 8,3.584 8,8 0,4.415997 -3.584,7.999997 -8,7.999997 -4.416,0 -8,-3.584 -8,-7.999997 0,-4.416 3.584,-8 8,-8"
     inkscape:connector-curvature="0" /><path
     id="path50"
     style="fill:#4d4d4d;fill-opacity:1;fill-rule:nonzero;stroke:none;stroke-width:1.33333325"
     d="m 165.33333,101.33334 c -5.88133,0 -10.66667,4.78533 -10.66667,10.66667 0,5.88133 4.78534,10.66666 10.66667,10.66666 5.88133,0 10.66667,-4.78533 10.66667,-10.66666 0,-5.88134 -4.78534,-10.66667 -10.66667,-10.66667"
     inkscape:connector-curvature="0" /><path
     id="path54"
     style="fill:#4d4d4d;fill-opacity:1;fill-rule:nonzero;stroke:none;stroke-width:1.33333325"
     d="m 165.33333,104 c 4.416,0 8,3.584 8,8 0,4.416 -3.584,8 -8,8 -4.416,0 -8,-3.584 -8,-8 0,-4.416 3.584,-8 8,-8"
     inkscape:connector-curvature="0" /><path
     id="path58"
     style="fill:#333333;fill-opacity:1;fill-rule:nonzero;stroke:none;stroke-width:1.33333325"
     d="m 93.333331,192 c -16.197333,0 -29.333333,-13.136 -29.333333,-29.33333 0,-16.19734 13.136,-29.33334 29.333333,-29.33334 16.197329,0 29.333329,13.136 29.333329,29.33334 0,16.19733 -13.136,29.33333 -29.333329,29.33333"
     inkscape:connector-curvature="0" /><path
     id="path78"
     style="fill:#0d0d0d;fill-opacity:1;fill-rule:nonzero;stroke:none;stroke-width:1.33333325"
     d="m 93.333331,141.33333 c -11.781333,0 -21.333333,9.552 -21.333333,21.33333 0,11.78134 9.552,21.33334 21.333333,21.33334 11.781329,0 21.333329,-9.552 21.333329,-21.33334 0,-11.78133 -9.552,-21.33333 -21.333329,-21.33333"
     inkscape:connector-curvature="0" /><path
     id="path62"
     style="fill:#e10000;fill-opacity:1;fill-rule:nonzero;stroke:none;stroke-width:1.33333325"
     d="m 165.33333,181.33333 c -8.836,0 -16,-7.164 -16,-16 0,-8.836 7.164,-16 16,-16 8.836,0 16,7.164 16,16 0,8.836 -7.164,16 -16,16"
     inkscape:connector-curvature="0" /><path
     id="path66"
     style="fill:#e10000;fill-opacity:1;fill-rule:nonzero;stroke:none;stroke-width:1.33333325"
     d="m 202.66666,154.66667 c -8.836,0 -16,-7.164 -16,-16 0,-8.836 7.164,-16 16,-16 8.836,0 16,7.164 16,16 0,8.836 -7.164,16 -16,16"
     inkscape:connector-curvature="0" /><path
     id="path70"
     style="fill:#4d4d4d;fill-opacity:1;fill-rule:nonzero;stroke:none;stroke-width:1.33333325"
     d="m 247.99999,144 c -8.836,0 -16,-7.164 -16,-16 0,-8.836 7.164,-16 16,-16 8.836,0 16,7.164 16,16 0,8.836 -7.164,16 -16,16"
     inkscape:connector-curvature="0" /><path
     id="path74"
     style="fill:#4d4d4d;fill-opacity:1;fill-rule:nonzero;stroke:none;stroke-width:1.33333325"
     d="m 287.99999,160 c -8.836,0 -16,-7.164 -16,-16 0,-8.836 7.164,-16 16,-16 8.836,0 16,7.164 16,16 0,8.836 -7.164,16 -16,16"
     inkscape:connector-curvature="0" /><path
     id="path82"
     style="fill:#191919;fill-opacity:1;fill-rule:nonzero;stroke:none;stroke-width:1.33333325"
     d="m 93.333331,141.33333 c -11.781333,0 -21.333333,9.552 -21.333333,21.33333 0,11.78134 9.552,21.33334 21.333333,21.33334 11.781329,0 21.333329,-9.552 21.333329,-21.33334 0,-11.78133 -9.552,-21.33333 -21.333329,-21.33333 m 0,5.33333 c 8.822669,0 15.999999,7.17734 15.999999,16 0,8.82267 -7.17733,16 -15.999999,16 -8.822666,0 -16,-7.17733 -16,-16 0,-8.82266 7.177334,-16 16,-16"
     inkscape:connector-curvature="0" /><path
     id="path86"
     style="fill:#000000;fill-opacity:1;fill-rule:nonzero;stroke:none;stroke-width:1.33333325"
     d="M 171.14733,255.97733 168.00066,256 c 0.30667,-2.09867 7.87067,-52.08267 36.83467,-70.22933 28.82267,-18.05867 114.21066,-5.65734 117.832,-5.12134 l -0.41467,3.23334 c -0.87733,-0.13067 -87.904,-12.78134 -115.75733,4.67466 -27.688,17.34933 -35.27333,66.92267 -35.348,67.42"
     inkscape:connector-curvature="0" /><path
     id="path90"
     style="fill:#bc8a31;fill-opacity:1;fill-rule:nonzero;stroke:none;stroke-width:1.33333325"
     d="m 71.412932,224.07467 2.892,3.188 v -2.20933 c 0,-0.30934 -0.05067,-0.51734 -0.150667,-0.62667 -0.138666,-0.14667 -0.370666,-0.21733 -0.696,-0.212 v -0.14 h 1.936 v 0.14 c -0.248,0.028 -0.413333,0.064 -0.498666,0.108 -0.08533,0.044 -0.152,0.116 -0.198667,0.216 -0.048,0.1 -0.072,0.272 -0.072,0.51467 v 4.28 h -0.146667 l -3.964,-4.28 v 3.268 c 0,0.296 0.076,0.49466 0.230667,0.59866 0.154667,0.104 0.330667,0.156 0.529333,0.156 h 0.138667 v 0.14 h -2.08 v -0.14 c 0.322667,-0.003 0.548,-0.0613 0.674667,-0.17466 0.126666,-0.11334 0.190666,-0.30667 0.190666,-0.58 v -3.628 L 70.072932,224.556 c -0.124,-0.136 -0.233333,-0.22666 -0.329333,-0.26933 -0.09467,-0.0427 -0.232,-0.0667 -0.410667,-0.072 v -0.14 z"
     inkscape:connector-curvature="0" /><path
     id="path94"
     style="fill:#bc8a31;fill-opacity:1;fill-rule:nonzero;stroke:none;stroke-width:1.33333325"
     d="m 78.014798,224.37027 v 2.09333 h 0.117333 c 0.370667,0 0.641334,-0.10266 0.808,-0.308 0.166667,-0.204 0.273334,-0.50666 0.32,-0.90533 h 0.164 v 2.692 h -0.164 c -0.03467,-0.29333 -0.108,-0.53333 -0.218666,-0.72133 -0.110667,-0.18667 -0.24,-0.312 -0.386667,-0.37734 -0.146667,-0.064 -0.36,-0.096 -0.64,-0.096 v 1.448 c 0,0.28267 0.01333,0.456 0.04133,0.52 0.02667,0.0627 0.07867,0.11467 0.153334,0.15467 0.07467,0.0413 0.196,0.0613 0.362666,0.0613 h 0.350667 c 0.548,0 0.986667,-0.112 1.316,-0.33333 0.330667,-0.22267 0.568,-0.56133 0.712,-1.016 h 0.16 l -0.264,1.63333 h -5.066667 v -0.14 h 0.193334 c 0.170666,0 0.308,-0.0267 0.412,-0.08 0.07467,-0.0347 0.132,-0.096 0.172,-0.18133 0.032,-0.0613 0.048,-0.22 0.048,-0.47867 v -3.38133 c 0,-0.232 -0.0067,-0.376 -0.02133,-0.428 -0.02933,-0.0893 -0.08267,-0.15733 -0.16,-0.20533 -0.109333,-0.0707 -0.26,-0.10667 -0.450666,-0.10667 h -0.193334 v -0.14 h 4.906667 v 1.52 h -0.164 c -0.084,-0.37067 -0.201333,-0.63733 -0.353333,-0.8 -0.150667,-0.16133 -0.365334,-0.28 -0.641334,-0.356 -0.161333,-0.0453 -0.464,-0.068 -0.908,-0.068 z"
     inkscape:connector-curvature="0" /><path
     id="path98"
     style="fill:#bc8a31;fill-opacity:1;fill-rule:nonzero;stroke:none;stroke-width:1.33333325"
     d="m 84.979731,224.2452 c -0.536,0 -0.944,0.24 -1.224,0.72 -0.226667,0.39467 -0.341333,0.96133 -0.341333,1.69867 0,0.87733 0.176,1.52533 0.528,1.94533 0.245333,0.29333 0.588,0.44 1.029333,0.44 0.296,0 0.544,-0.064 0.742667,-0.18933 0.253333,-0.16267 0.452,-0.42134 0.592,-0.776 0.141333,-0.35467 0.212,-0.81867 0.212,-1.38934 0,-0.68 -0.072,-1.18933 -0.216,-1.52666 -0.144,-0.33734 -0.328,-0.57467 -0.550667,-0.71467 -0.224,-0.13867 -0.481333,-0.208 -0.772,-0.208 m -0.052,-0.24267 c 0.933333,-0.0307 1.693333,0.208 2.276,0.716 0.584,0.508 0.876,1.144 0.876,1.908 0,0.652 -0.217333,1.22534 -0.653333,1.72134 -0.576,0.65733 -1.390667,0.98533 -2.442667,0.98533 -1.054667,0 -1.870667,-0.31333 -2.446667,-0.94 -0.456,-0.496 -0.682666,-1.08267 -0.682666,-1.76267 0,-0.764 0.296,-1.4 0.888,-1.90933 0.592,-0.50933 1.321333,-0.74933 2.185333,-0.71867"
     inkscape:connector-curvature="0" /><path
     id="path102"
     style="fill:#bc8a31;fill-opacity:1;fill-rule:nonzero;stroke:none;stroke-width:1.33333325"
     d="m 89.964664,225.5684 c 0.342667,0 0.634667,0.10533 0.873333,0.316 0.238667,0.212 0.358667,0.468 0.358667,0.768 0,0.29867 -0.12,0.55333 -0.361333,0.76667 -0.24,0.212 -0.530667,0.31866 -0.870667,0.31866 -0.342667,0 -0.634667,-0.10666 -0.876,-0.31866 -0.24,-0.21334 -0.36,-0.468 -0.36,-0.76667 0,-0.3 0.118667,-0.556 0.358667,-0.768 0.238666,-0.21067 0.532,-0.316 0.877333,-0.316"
     inkscape:connector-curvature="0" /><path
     id="path106"
     style="fill:#bc8a31;fill-opacity:1;fill-rule:nonzero;stroke:none;stroke-width:1.33333325"
     d="m 93.846798,224.35133 v 2.252 h 0.246667 c 0.4,0 0.7,-0.032 0.898666,-0.096 0.198667,-0.0653 0.356,-0.18133 0.470667,-0.34933 0.113333,-0.168 0.169333,-0.388 0.169333,-0.65734 0,-0.392 -0.104,-0.68133 -0.312,-0.86933 -0.209333,-0.18667 -0.546666,-0.28 -1.010666,-0.28 z m 0,2.52133 v 1.44134 c 0,0.27733 0.02,0.452 0.05867,0.524 0.04,0.072 0.106666,0.13066 0.205333,0.17333 0.09733,0.0427 0.281333,0.064 0.549333,0.064 v 0.14 h -3.001333 v -0.14 c 0.270667,0 0.456,-0.0213 0.552,-0.0667 0.09733,-0.044 0.164,-0.10133 0.204,-0.172 0.03867,-0.0707 0.05733,-0.24533 0.05733,-0.52266 v -3.33734 c 0,-0.27733 -0.01867,-0.45333 -0.05733,-0.52533 -0.04,-0.072 -0.108,-0.12933 -0.206667,-0.172 -0.09733,-0.0427 -0.281333,-0.064 -0.549333,-0.064 v -0.1413 h 2.724 c 0.709333,0 1.228,0.044 1.556,0.12933 0.329333,0.0867 0.597333,0.24533 0.805333,0.476 0.206667,0.23067 0.310667,0.50267 0.310667,0.81333 0,0.37867 -0.156,0.692 -0.466667,0.94 -0.198666,0.15734 -0.477333,0.27467 -0.834666,0.35334 l 1.409333,1.74 c 0.184,0.224 0.316,0.36533 0.393333,0.42 0.118667,0.0787 0.254667,0.12133 0.410667,0.12933 v 0.14 h -1.845333 l -1.889334,-2.34267 z"
     inkscape:connector-curvature="0" /><path
     id="path110"
     style="fill:#bc8a31;fill-opacity:1;fill-rule:nonzero;stroke:none;stroke-width:1.33333325"
     d="m 100.3016,224.37027 v 2.09333 h 0.11733 c 0.37067,0 0.64134,-0.10266 0.808,-0.308 0.16667,-0.204 0.27334,-0.50666 0.32,-0.90533 h 0.164 v 2.692 h -0.164 c -0.0347,-0.29333 -0.108,-0.53333 -0.21866,-0.72133 -0.11067,-0.18667 -0.24,-0.312 -0.38667,-0.37734 -0.14667,-0.064 -0.36,-0.096 -0.64,-0.096 v 1.448 c 0,0.28267 0.0133,0.456 0.0413,0.52 0.0267,0.0627 0.0787,0.11467 0.15334,0.15467 0.0747,0.0413 0.196,0.0613 0.36266,0.0613 h 0.35067 c 0.548,0 0.98667,-0.112 1.316,-0.33333 0.33067,-0.22267 0.568,-0.56133 0.712,-1.016 h 0.16 l -0.264,1.63333 h -5.066667 v -0.14 h 0.193334 c 0.170666,0 0.308,-0.0267 0.412,-0.08 0.07467,-0.0347 0.132,-0.096 0.172,-0.18133 0.032,-0.0613 0.048,-0.22 0.048,-0.47867 v -3.38133 c 0,-0.232 -0.0067,-0.376 -0.02133,-0.428 -0.02933,-0.0893 -0.08267,-0.15733 -0.16,-0.20533 -0.109333,-0.0707 -0.26,-0.10667 -0.450666,-0.10667 h -0.193334 v -0.14 h 4.906663 v 1.52 h -0.164 c -0.084,-0.37067 -0.20133,-0.63733 -0.35333,-0.8 -0.15067,-0.16133 -0.36534,-0.28 -0.64134,-0.356 -0.16133,-0.0453 -0.464,-0.068 -0.908,-0.068 z"
     inkscape:connector-curvature="0" /><path
     id="path114"
     style="fill:#bc8a31;fill-opacity:1;fill-rule:nonzero;stroke:none;stroke-width:1.33333325"
     d="m 109.3808,224.07467 v 1.392 h -0.156 c -0.092,-0.32133 -0.19467,-0.552 -0.30667,-0.692 -0.112,-0.14133 -0.26666,-0.252 -0.46266,-0.336 -0.10934,-0.0453 -0.30134,-0.068 -0.57467,-0.068 h -0.43733 v 3.96533 c 0,0.26267 0.0173,0.428 0.0507,0.49334 0.032,0.0653 0.0973,0.12266 0.19467,0.172 0.096,0.0493 0.228,0.0747 0.39467,0.0747 h 0.19466 v 0.14 h -3.06933 v -0.14 h 0.19467 c 0.16933,0 0.30666,-0.0267 0.41066,-0.08 0.0747,-0.036 0.13334,-0.096 0.17734,-0.18266 0.032,-0.06 0.0467,-0.21867 0.0467,-0.47734 v -3.96533 h -0.42266 c -0.39467,0 -0.68267,0.0733 -0.86134,0.22 -0.25066,0.204 -0.40933,0.496 -0.47466,0.876 h -0.164 v -1.392 z"
     inkscape:connector-curvature="0" /><path
     id="path118"
     style="fill:#bc8a31;fill-opacity:1;fill-rule:nonzero;stroke:none;stroke-width:1.33333325"
     d="m 112.05266,224.35133 v 2.252 h 0.24667 c 0.4,0 0.7,-0.032 0.89866,-0.096 0.19867,-0.0653 0.356,-0.18133 0.46934,-0.34933 0.11333,-0.168 0.17066,-0.388 0.17066,-0.65734 0,-0.392 -0.104,-0.68133 -0.31333,-0.86933 -0.20933,-0.18667 -0.54533,-0.28 -1.00933,-0.28 z m 0,2.52133 v 1.44134 c 0,0.27733 0.02,0.452 0.0587,0.524 0.0387,0.072 0.10666,0.13066 0.20533,0.17333 0.0973,0.0427 0.28133,0.064 0.54933,0.064 v 0.14 h -3.00133 v -0.14 c 0.27067,0 0.45467,-0.0213 0.552,-0.0667 0.096,-0.044 0.164,-0.10133 0.20267,-0.172 0.0387,-0.0707 0.0587,-0.24533 0.0587,-0.52266 v -3.33734 c 0,-0.27733 -0.02,-0.45333 -0.0587,-0.52533 -0.0387,-0.072 -0.10667,-0.12933 -0.20534,-0.172 -0.0973,-0.0427 -0.28133,-0.064 -0.54933,-0.064 v -0.1413 h 2.724 c 0.70933,0 1.228,0.044 1.556,0.12933 0.32933,0.0867 0.59733,0.24533 0.80533,0.476 0.20667,0.23067 0.31067,0.50267 0.31067,0.81333 0,0.37867 -0.156,0.692 -0.46667,0.94 -0.19866,0.15734 -0.47733,0.27467 -0.83466,0.35334 l 1.40933,1.74 c 0.184,0.224 0.316,0.36533 0.39333,0.42 0.11867,0.0787 0.25467,0.12133 0.41067,0.12933 v 0.14 h -1.84533 l -1.88934,-2.34267 z"
     inkscape:connector-curvature="0" /><path
     id="path122"
     style="fill:#bc8a31;fill-opacity:1;fill-rule:nonzero;stroke:none;stroke-width:1.33333325"
     d="m 119.5668,224.2452 c -0.536,0 -0.944,0.24 -1.224,0.72 -0.22667,0.39467 -0.34133,0.96133 -0.34133,1.69867 0,0.87733 0.176,1.52533 0.528,1.94533 0.24533,0.29333 0.588,0.44 1.02933,0.44 0.296,0 0.544,-0.064 0.74267,-0.18933 0.25333,-0.16267 0.452,-0.42134 0.592,-0.776 0.14133,-0.35467 0.212,-0.81867 0.212,-1.38934 0,-0.68 -0.072,-1.18933 -0.216,-1.52666 -0.144,-0.33734 -0.328,-0.57467 -0.55067,-0.71467 -0.224,-0.13867 -0.48133,-0.208 -0.772,-0.208 m -0.052,-0.24267 c 0.93333,-0.0307 1.69333,0.208 2.276,0.716 0.584,0.508 0.876,1.144 0.876,1.908 0,0.652 -0.21733,1.22534 -0.65333,1.72134 -0.576,0.65733 -1.39067,0.98533 -2.44267,0.98533 -1.05467,0 -1.87067,-0.31333 -2.44667,-0.94 -0.456,-0.496 -0.68266,-1.08267 -0.68266,-1.76267 0,-0.764 0.296,-1.4 0.888,-1.90933 0.592,-0.50933 1.32133,-0.74933 2.18533,-0.71867"
     inkscape:connector-curvature="0" /><path
     id="path126"
     style="fill:#ffffff;fill-opacity:1;fill-rule:nonzero;stroke:none;stroke-width:1.33333325"
     d="m 70.884665,233.55627 -0.410667,-1.18933 h -0.008 l -0.417333,1.18933 z m -0.228,-1.496 0.964,2.54933 h -0.362667 l -0.269333,-0.768 h -1.044 l -0.276,0.768 h -0.336 l 0.961333,-2.54933 z"
     inkscape:connector-curvature="0" /><path
     id="path130"
     style="fill:#ffffff;fill-opacity:1;fill-rule:nonzero;stroke:none;stroke-width:1.33333325"
     d="m 72.736532,234.324 c 0.03733,0 0.08267,-0.003 0.138667,-0.009 0.05467,-0.005 0.113333,-0.02 0.176,-0.0427 0.06133,-0.0227 0.124,-0.0547 0.184,-0.0973 0.06133,-0.044 0.116,-0.10134 0.164,-0.176 0.04933,-0.0733 0.08933,-0.16534 0.12,-0.276 0.03067,-0.11067 0.04667,-0.24534 0.04667,-0.40267 0,-0.152 -0.01467,-0.288 -0.044,-0.408 -0.028,-0.12 -0.07467,-0.22267 -0.141333,-0.30667 -0.06533,-0.0853 -0.149333,-0.14933 -0.253333,-0.19333 -0.104,-0.044 -0.232,-0.0653 -0.384,-0.0653 h -0.552 v 1.97733 z m -0.028,-2.26267 c 0.38,0 0.673333,0.0987 0.877333,0.29867 0.205334,0.2 0.308,0.50533 0.308,0.91467 0,0.21466 -0.02267,0.404 -0.06933,0.56933 -0.04533,0.16533 -0.117333,0.304 -0.213333,0.41733 -0.09733,0.11334 -0.22,0.19867 -0.370667,0.25867 -0.149333,0.06 -0.326667,0.0893 -0.532,0.0893 h -0.846667 v -2.548 z"
     inkscape:connector-curvature="0" /><path
     id="path134"
     style="fill:#ffffff;fill-opacity:1;fill-rule:nonzero;stroke:none;stroke-width:1.33333325"
     d="m 74.892265,234.60947 -0.866667,-2.54933 h 0.352 l 0.705334,2.21066 h 0.0067 l 0.712,-2.21066 h 0.341334 l -0.877334,2.54933 z"
     inkscape:connector-curvature="0" /><path
     id="path138"
     style="fill:#ffffff;fill-opacity:1;fill-rule:nonzero;stroke:none;stroke-width:1.33333325"
     d="m 77.507731,233.55627 -0.410667,-1.18933 h -0.008 l -0.417333,1.18933 z m -0.228,-1.496 0.964,2.54933 h -0.362667 l -0.269333,-0.768 h -1.044 l -0.276,0.768 h -0.334667 l 0.96,-2.54933 z"
     inkscape:connector-curvature="0" /><path
     id="path142"
     style="fill:#ffffff;fill-opacity:1;fill-rule:nonzero;stroke:none;stroke-width:1.33333325"
     d="m 78.830798,232.06067 1.298667,2.06667 h 0.008 v -2.06667 h 0.310666 V 234.61 h -0.36 l -1.288,-2.04666 h -0.0067 V 234.61 h -0.312 v -2.54933 z"
     inkscape:connector-curvature="0" /><path
     id="path146"
     style="fill:#ffffff;fill-opacity:1;fill-rule:nonzero;stroke:none;stroke-width:1.33333325"
     d="m 82.470665,232.4212 c -0.125333,-0.0907 -0.274667,-0.136 -0.448,-0.136 -0.146667,0 -0.273333,0.0293 -0.377333,0.0867 -0.105334,0.056 -0.192,0.13333 -0.26,0.22933 -0.068,0.096 -0.117334,0.20667 -0.149334,0.33067 -0.03333,0.124 -0.04933,0.252 -0.04933,0.38533 0,0.14533 0.016,0.28267 0.04933,0.412 0.032,0.13067 0.08133,0.24267 0.149334,0.34 0.068,0.096 0.154666,0.172 0.261333,0.22933 0.105333,0.0573 0.232,0.0867 0.38,0.0867 0.108,0 0.204,-0.0187 0.288,-0.056 0.084,-0.0373 0.157333,-0.088 0.218667,-0.15333 0.06,-0.0653 0.108,-0.14267 0.142666,-0.23334 0.03467,-0.0907 0.056,-0.188 0.06267,-0.29333 h 0.328 c -0.032,0.32133 -0.14,0.57067 -0.321333,0.74933 -0.182667,0.17867 -0.430667,0.268 -0.746667,0.268 -0.190667,0 -0.357333,-0.0333 -0.501333,-0.10133 -0.142667,-0.068 -0.261334,-0.16133 -0.354667,-0.28 -0.09467,-0.12 -0.165333,-0.26 -0.213333,-0.42133 -0.04667,-0.16267 -0.07067,-0.336 -0.07067,-0.52134 0,-0.18666 0.02533,-0.36 0.076,-0.52266 0.05067,-0.164 0.125333,-0.30534 0.222667,-0.42667 0.09867,-0.12133 0.22,-0.21733 0.366666,-0.288 0.146667,-0.0707 0.313334,-0.10533 0.502667,-0.10533 0.129333,0 0.250667,0.0173 0.366667,0.0533 0.114666,0.036 0.217333,0.088 0.306666,0.15733 0.09067,0.0693 0.165334,0.15467 0.225334,0.25867 0.06,0.104 0.09867,0.22267 0.117333,0.35867 h -0.328 c -0.03733,-0.18 -0.118667,-0.316 -0.244,-0.40667"
     inkscape:connector-curvature="0" /><path
     id="path150"
     style="fill:#ffffff;fill-opacity:1;fill-rule:nonzero;stroke:none;stroke-width:1.33333325"
     d="m 85.177465,232.06067 v 0.28533 h -1.374667 v 0.81067 h 1.281334 v 0.28533 h -1.281334 v 0.88134 h 1.385334 V 234.61 h -1.714667 v -2.54933 z"
     inkscape:connector-curvature="0" /><path
     id="path154"
     style="fill:#ffffff;fill-opacity:1;fill-rule:nonzero;stroke:none;stroke-width:1.33333325"
     d="m 86.459331,234.324 c 0.03733,0 0.08267,-0.003 0.138667,-0.009 0.05467,-0.005 0.113333,-0.02 0.176,-0.0427 0.06133,-0.0227 0.124,-0.0547 0.184,-0.0973 0.06133,-0.044 0.116,-0.10134 0.164,-0.176 0.04933,-0.0733 0.08933,-0.16534 0.12,-0.276 0.03067,-0.11067 0.04667,-0.24534 0.04667,-0.40267 0,-0.152 -0.01467,-0.288 -0.044,-0.408 -0.028,-0.12 -0.07467,-0.22267 -0.141333,-0.30667 -0.06533,-0.0853 -0.149333,-0.14933 -0.253333,-0.19333 -0.104,-0.044 -0.232,-0.0653 -0.384,-0.0653 h -0.552 v 1.97733 z m -0.028,-2.26267 c 0.38,0 0.673333,0.0987 0.877333,0.29867 0.205334,0.2 0.308,0.50533 0.308,0.91467 0,0.21466 -0.02267,0.404 -0.06933,0.56933 -0.04533,0.16533 -0.117333,0.304 -0.213333,0.41733 -0.09733,0.11334 -0.22,0.19867 -0.370667,0.25867 -0.149333,0.06 -0.326667,0.0893 -0.532,0.0893 h -0.846667 v -2.548 z"
     inkscape:connector-curvature="0" /><path
     id="path158"
     style="fill:#ffffff;fill-opacity:1;fill-rule:nonzero;stroke:none;stroke-width:1.33333325"
     d="m 90.681198,232.06067 v 0.28533 h -1.374667 v 0.81067 h 1.281334 v 0.28533 h -1.281334 v 0.88134 h 1.385334 V 234.61 h -1.714667 v -2.54933 z"
     inkscape:connector-curvature="0" /><path
     id="path162"
     style="fill:#ffffff;fill-opacity:1;fill-rule:nonzero;stroke:none;stroke-width:1.33333325"
     d="m 91.544931,232.06067 0.777333,2.14133 0.781334,-2.14133 h 0.449333 V 234.61 h -0.312 v -2.12133 h -0.0067 L 92.463598,234.61 h -0.28 l -0.769334,-2.12133 h -0.008 V 234.61 h -0.310666 v -2.54933 z"
     inkscape:connector-curvature="0" /><path
     id="path166"
     style="fill:#ffffff;fill-opacity:1;fill-rule:nonzero;stroke:none;stroke-width:1.33333325"
     d="m 95.815198,234.42187 c -0.168,0.16267 -0.408,0.24533 -0.718667,0.24533 -0.317333,0 -0.565333,-0.0787 -0.744,-0.23466 -0.178666,-0.156 -0.268,-0.404 -0.268,-0.744 v -1.628 h 0.328 v 1.628 c 0,0.228 0.05867,0.40133 0.176,0.51866 0.117334,0.11867 0.286667,0.17734 0.508,0.17734 0.209334,0 0.369334,-0.0587 0.478667,-0.17734 0.109333,-0.11733 0.164,-0.29066 0.164,-0.51866 v -1.628 h 0.328 v 1.628 c 0,0.32533 -0.084,0.57066 -0.252,0.73333"
     inkscape:connector-curvature="0" /><path
     id="path170"
     style="fill:#ffffff;fill-opacity:1;fill-rule:nonzero;stroke:none;stroke-width:1.33333325"
     d="m 96.920664,232.06067 v 2.26267 h 1.305333 V 234.61 h -1.633333 v -2.54933 z"
     inkscape:connector-curvature="0" /><path
     id="path174"
     style="fill:#ffffff;fill-opacity:1;fill-rule:nonzero;stroke:none;stroke-width:1.33333325"
     d="m 99.774531,233.55627 -0.410667,-1.18933 h -0.008 l -0.417333,1.18933 z m -0.228,-1.496 0.963999,2.54933 h -0.36267 l -0.269329,-0.768 h -1.044 l -0.276,0.768 h -0.336 l 0.961333,-2.54933 z"
     inkscape:connector-curvature="0" /><path
     id="path178"
     style="fill:#ffffff;fill-opacity:1;fill-rule:nonzero;stroke:none;stroke-width:1.33333325"
     d="m 100.17186,232.34613 v -0.28533 h 1.97333 v 0.28533 h -0.82266 v 2.26267 h -0.328 v -2.26267 z"
     inkscape:connector-curvature="0" /><path
     inkscape:connector-curvature="0"
     d="m 102.76,234.60933 h -0.328 V 232.06 h 0.328 z"
     style="fill:#ffffff;fill-opacity:1;fill-rule:nonzero;stroke:none;stroke-width:1.33333325"
     id="path180" /><path
     id="path184"
     style="fill:#ffffff;fill-opacity:1;fill-rule:nonzero;stroke:none;stroke-width:1.33333325"
     d="m 103.55066,233.7152 c 0.032,0.12533 0.0827,0.23733 0.152,0.33733 0.0693,0.1 0.15733,0.18 0.26667,0.24134 0.108,0.06 0.236,0.0907 0.38666,0.0907 0.14934,0 0.27867,-0.0307 0.38667,-0.0907 0.108,-0.0613 0.19733,-0.14134 0.26533,-0.24134 0.0693,-0.1 0.12,-0.212 0.152,-0.33733 0.0333,-0.12533 0.0493,-0.252 0.0493,-0.38 0,-0.128 -0.016,-0.256 -0.0493,-0.38 -0.032,-0.12533 -0.0827,-0.23733 -0.152,-0.33733 -0.068,-0.1 -0.15733,-0.18134 -0.26533,-0.24134 -0.108,-0.0613 -0.23733,-0.0907 -0.38667,-0.0907 -0.15066,0 -0.27866,0.0293 -0.38666,0.0907 -0.10934,0.06 -0.19734,0.14134 -0.26667,0.24134 -0.0693,0.1 -0.12,0.212 -0.152,0.33733 -0.032,0.124 -0.048,0.252 -0.048,0.38 0,0.128 0.016,0.25467 0.048,0.38 m -0.30267,-0.88133 c 0.0493,-0.16134 0.124,-0.30267 0.22267,-0.42667 0.1,-0.124 0.22267,-0.22267 0.37067,-0.29733 0.14666,-0.0733 0.31866,-0.10934 0.51466,-0.10934 0.196,0 0.36667,0.036 0.51467,0.10934 0.14667,0.0747 0.27067,0.17333 0.36933,0.29733 0.0987,0.124 0.17334,0.26533 0.22267,0.42667 0.0493,0.16 0.0747,0.328 0.0747,0.50133 0,0.17333 -0.0253,0.34 -0.0747,0.50133 -0.0493,0.16134 -0.124,0.30267 -0.22267,0.42667 -0.0987,0.124 -0.22266,0.22133 -0.36933,0.29467 -0.148,0.072 -0.31867,0.10933 -0.51467,0.10933 -0.196,0 -0.368,-0.0373 -0.51466,-0.10933 -0.148,-0.0733 -0.27067,-0.17067 -0.37067,-0.29467 -0.0987,-0.124 -0.17333,-0.26533 -0.22267,-0.42667 -0.0493,-0.16133 -0.0747,-0.328 -0.0747,-0.50133 0,-0.17333 0.0253,-0.34133 0.0747,-0.50133"
     inkscape:connector-curvature="0" /><path
     id="path188"
     style="fill:#ffffff;fill-opacity:1;fill-rule:nonzero;stroke:none;stroke-width:1.33333325"
     d="m 106.28346,232.06067 1.29867,2.06667 h 0.008 v -2.06667 h 0.31066 V 234.61 h -0.36 l -1.288,-2.04666 h -0.007 V 234.61 h -0.312 v -2.54933 z"
     inkscape:connector-curvature="0" /><path
     id="path192"
     style="fill:#ffffff;fill-opacity:1;fill-rule:nonzero;stroke:none;stroke-width:1.33333325"
     d="m 110.62786,232.40853 c -0.10933,-0.0813 -0.24933,-0.12267 -0.42,-0.12267 -0.0693,0 -0.13733,0.007 -0.204,0.0213 -0.0667,0.0133 -0.12533,0.0373 -0.17733,0.0707 -0.052,0.0333 -0.0933,0.0787 -0.124,0.13467 -0.032,0.0547 -0.0467,0.12533 -0.0467,0.208 0,0.0787 0.0213,0.14267 0.0667,0.192 0.0453,0.048 0.10533,0.088 0.18,0.11867 0.0747,0.032 0.16,0.0573 0.25333,0.0773 0.0947,0.02 0.19067,0.0413 0.28933,0.0653 0.0973,0.024 0.19334,0.052 0.288,0.084 0.0947,0.032 0.17867,0.076 0.25334,0.13067 0.076,0.0547 0.136,0.124 0.18,0.20667 0.0453,0.084 0.068,0.188 0.068,0.31466 0,0.136 -0.0293,0.252 -0.088,0.348 -0.0587,0.096 -0.13467,0.17467 -0.22667,0.236 -0.092,0.06 -0.196,0.104 -0.30933,0.132 -0.11334,0.0267 -0.228,0.0413 -0.34,0.0413 -0.13867,0 -0.26934,-0.0187 -0.392,-0.0547 -0.124,-0.0347 -0.232,-0.0893 -0.32534,-0.16267 -0.0933,-0.072 -0.16666,-0.164 -0.22133,-0.27733 -0.0533,-0.11333 -0.0813,-0.248 -0.0813,-0.40133 h 0.312 c 0,0.10666 0.02,0.19866 0.06,0.276 0.04,0.0773 0.0933,0.14133 0.15866,0.19066 0.0653,0.0507 0.14267,0.0867 0.22934,0.11067 0.088,0.024 0.17866,0.036 0.27066,0.036 0.0733,0 0.148,-0.007 0.22267,-0.0213 0.0747,-0.0147 0.14133,-0.0387 0.20133,-0.0733 0.06,-0.0347 0.108,-0.0813 0.14534,-0.14133 0.0373,-0.0587 0.056,-0.13467 0.056,-0.228 0,-0.088 -0.0227,-0.16 -0.068,-0.21467 -0.0453,-0.0547 -0.10534,-0.0987 -0.18,-0.13333 -0.0747,-0.0347 -0.15867,-0.0627 -0.25334,-0.084 -0.0947,-0.0213 -0.19066,-0.044 -0.288,-0.0667 -0.0987,-0.0227 -0.19466,-0.048 -0.28933,-0.0773 -0.0947,-0.0307 -0.17867,-0.0693 -0.25333,-0.11867 -0.0747,-0.048 -0.13467,-0.112 -0.18,-0.18933 -0.0453,-0.0773 -0.068,-0.17467 -0.068,-0.29067 0,-0.128 0.0253,-0.24 0.076,-0.33333 0.0507,-0.0947 0.11866,-0.172 0.20266,-0.232 0.084,-0.0613 0.18,-0.10667 0.28667,-0.136 0.10667,-0.0293 0.21733,-0.044 0.33067,-0.044 0.12533,0 0.244,0.0147 0.352,0.0453 0.108,0.0307 0.20266,0.08 0.28533,0.14667 0.0813,0.0667 0.14533,0.15067 0.19333,0.252 0.0467,0.10133 0.072,0.22133 0.0773,0.36267 h -0.31067 c -0.0187,-0.184 -0.0827,-0.316 -0.192,-0.39867"
     inkscape:connector-curvature="0" /><path
     id="path196"
     style="fill:#ffffff;fill-opacity:1;fill-rule:nonzero;stroke:none;stroke-width:1.33333325"
     d="m 112.6508,234.60947 h -0.328 v -1.04267 l -0.95333,-1.50666 h 0.38933 l 0.74,1.21466 0.72267,-1.21466 h 0.372 l -0.94267,1.50666 z"
     inkscape:connector-curvature="0" /><path
     id="path200"
     style="fill:#ffffff;fill-opacity:1;fill-rule:nonzero;stroke:none;stroke-width:1.33333325"
     d="m 115.10546,232.40853 c -0.10933,-0.0813 -0.24933,-0.12267 -0.42,-0.12267 -0.0693,0 -0.13733,0.007 -0.204,0.0213 -0.0667,0.0133 -0.12533,0.0373 -0.17733,0.0707 -0.052,0.0333 -0.0933,0.0787 -0.124,0.13467 -0.032,0.0547 -0.0467,0.12533 -0.0467,0.208 0,0.0787 0.0213,0.14267 0.0667,0.192 0.0453,0.048 0.10533,0.088 0.18,0.11867 0.0747,0.032 0.16,0.0573 0.25333,0.0773 0.0947,0.02 0.19067,0.0413 0.28933,0.0653 0.0973,0.024 0.19334,0.052 0.288,0.084 0.0947,0.032 0.17867,0.076 0.25334,0.13067 0.076,0.0547 0.136,0.124 0.18,0.20667 0.0453,0.084 0.068,0.188 0.068,0.31466 0,0.136 -0.0293,0.252 -0.088,0.348 -0.0587,0.096 -0.13467,0.17467 -0.22667,0.236 -0.092,0.06 -0.196,0.104 -0.30933,0.132 -0.11334,0.0267 -0.228,0.0413 -0.34,0.0413 -0.13867,0 -0.26934,-0.0187 -0.392,-0.0547 -0.124,-0.0347 -0.232,-0.0893 -0.32534,-0.16267 -0.0933,-0.072 -0.16666,-0.164 -0.22133,-0.27733 -0.0533,-0.11333 -0.0813,-0.248 -0.0813,-0.40133 h 0.312 c 0,0.10666 0.02,0.19866 0.06,0.276 0.04,0.0773 0.0933,0.14133 0.15866,0.19066 0.0653,0.0507 0.14267,0.0867 0.22934,0.11067 0.088,0.024 0.17866,0.036 0.27066,0.036 0.0733,0 0.148,-0.007 0.22267,-0.0213 0.0747,-0.0147 0.14133,-0.0387 0.20133,-0.0733 0.06,-0.0347 0.108,-0.0813 0.14534,-0.14133 0.0373,-0.0587 0.056,-0.13467 0.056,-0.228 0,-0.088 -0.0227,-0.16 -0.068,-0.21467 -0.0453,-0.0547 -0.10534,-0.0987 -0.18,-0.13333 -0.0747,-0.0347 -0.15867,-0.0627 -0.25334,-0.084 -0.0947,-0.0213 -0.19066,-0.044 -0.288,-0.0667 -0.0987,-0.0227 -0.19466,-0.048 -0.28933,-0.0773 -0.0947,-0.0307 -0.17867,-0.0693 -0.25333,-0.11867 -0.0747,-0.048 -0.13467,-0.112 -0.18,-0.18933 -0.0453,-0.0773 -0.068,-0.17467 -0.068,-0.29067 0,-0.128 0.0253,-0.24 0.076,-0.33333 0.0507,-0.0947 0.11866,-0.172 0.20266,-0.232 0.084,-0.0613 0.18,-0.10667 0.28667,-0.136 0.10667,-0.0293 0.21733,-0.044 0.33067,-0.044 0.12533,0 0.244,0.0147 0.352,0.0453 0.108,0.0307 0.20266,0.08 0.28533,0.14667 0.0813,0.0667 0.14533,0.15067 0.19333,0.252 0.0467,0.10133 0.072,0.22133 0.0773,0.36267 h -0.31067 c -0.0187,-0.184 -0.0827,-0.316 -0.192,-0.39867"
     inkscape:connector-curvature="0" /><path
     id="path204"
     style="fill:#ffffff;fill-opacity:1;fill-rule:nonzero;stroke:none;stroke-width:1.33333325"
     d="m 115.84653,232.34613 v -0.28533 h 1.97333 v 0.28533 h -0.82266 v 2.26267 h -0.328 v -2.26267 z"
     inkscape:connector-curvature="0" /><path
     id="path208"
     style="fill:#ffffff;fill-opacity:1;fill-rule:nonzero;stroke:none;stroke-width:1.33333325"
     d="m 119.7956,232.06067 v 0.28533 h -1.37467 v 0.81067 h 1.28134 v 0.28533 h -1.28134 v 0.88134 h 1.38534 V 234.61 h -1.71334 v -2.54933 z"
     inkscape:connector-curvature="0" /><path
     id="path212"
     style="fill:#ffffff;fill-opacity:1;fill-rule:nonzero;stroke:none;stroke-width:1.33333325"
     d="m 120.65933,232.06067 0.77733,2.14133 0.78134,-2.14133 h 0.448 V 234.61 h -0.31067 v -2.12133 h -0.007 L 121.578,234.61 h -0.28 l -0.76934,-2.12133 h -0.008 V 234.61 H 120.21 v -2.54933 z"
     inkscape:connector-curvature="0" /></svg>