<?xml version="1.0" encoding="UTF-8" standalone="no"?>
<svg
   xmlns:dc="http://purl.org/dc/elements/1.1/"
   xmlns:cc="http://creativecommons.org/ns#"
   xmlns:rdf="http://www.w3.org/1999/02/22-rdf-syntax-ns#"
   xmlns:svg="http://www.w3.org/2000/svg"
   xmlns="http://www.w3.org/2000/svg"
   xmlns:sodipodi="http://sodipodi.sourceforge.net/DTD/sodipodi-0.dtd"
   xmlns:inkscape="http://www.inkscape.org/namespaces/inkscape"
   viewBox="0 0 341.33334 341.33334"
   height="256"
   width="256"
   xml:space="preserve"
   id="svg2"
   version="1.1"
   sodipodi:docname="SNK - Neo Geo CD-content.svg"
   inkscape:version="0.92.2 (5c3e80d, 2017-08-06)"><sodipodi:namedview
     pagecolor="#ffffff"
     bordercolor="#666666"
     borderopacity="1"
     objecttolerance="10"
     gridtolerance="10"
     guidetolerance="10"
     inkscape:pageopacity="0"
     inkscape:pageshadow="2"
     inkscape:window-width="1024"
     inkscape:window-height="705"
     id="namedview56"
     showgrid="false"
     inkscape:pagecheckerboard="true"
     inkscape:zoom="0.69140623"
     inkscape:cx="-192.12517"
     inkscape:cy="170.66667"
     inkscape:window-x="-8"
     inkscape:window-y="-8"
     inkscape:window-maximized="1"
     inkscape:current-layer="svg2" /><metadata
     id="metadata8"><rdf:RDF><cc:Work
         rdf:about=""><dc:format>image/svg+xml</dc:format><dc:type
           rdf:resource="http://purl.org/dc/dcmitype/StillImage" /><dc:title /></cc:Work></rdf:RDF></metadata><defs
     id="defs6"><clipPath
       id="clipPath18"
       clipPathUnits="userSpaceOnUse"><path
         id="path16"
         d="M 0,256 H 256 V 0 H 0 Z" /></clipPath><clipPath
       id="clipPath26"
       clipPathUnits="userSpaceOnUse"><path
         id="path24"
         d="M 4,252 H 252 V 4 H 4 Z" /></clipPath></defs><g
     id="g36"
     transform="matrix(1.3333333,0,0,-1.3333333,170.66666,228.6732)"
     style="fill:#262626;fill-opacity:1"><path
       inkscape:connector-curvature="0"
       d="M 0,0 C -23.993,0 -43.505,19.517 -43.505,43.505 -43.505,67.493 -23.993,87.01 0,87.01 23.988,87.01 43.5,67.493 43.5,43.505 43.5,19.517 23.988,0 0,0 m 0,159.505 c -64.071,0 -116,-51.934 -116,-116 0,-64.066 51.929,-116 116,-116 64.051,0 116,51.934 116,116 0,64.066 -51.949,116 -116,116"
       style="fill:#262626;fill-opacity:1;fill-rule:nonzero;stroke:none"
       id="path38" /></g><path
     id="path42"
     style="fill:#e6e6e6;fill-opacity:0.49019608;fill-rule:nonzero;stroke:none;stroke-width:1.33333325"
     d="m 170.6696,189.03427 c -10.128,0 -18.38133,-8.23467 -18.38133,-18.368 0,-10.13867 8.25333,-18.38 18.38133,-18.38 10.13333,0 18.36933,8.24133 18.36933,18.38 0,10.13333 -8.236,18.368 -18.36933,18.368 m 0.001,-79.70133 c -33.81866,0 -61.33733,27.53466 -61.33733,61.33333 0,33.79867 27.51867,61.33333 61.33733,61.33333 33.784,0 61.32934,-27.53466 61.32934,-61.33333 0,-33.79867 -27.54534,-61.33333 -61.32934,-61.33333"
     inkscape:connector-curvature="0" /><g
     id="g44"
     transform="matrix(1.3333333,0,0,-1.3333333,282.47746,99.132003)"><path
       inkscape:connector-curvature="0"
       d="m 0,0 c -0.093,0.456 -0.462,0.868 -0.748,1.267 -6.057,8.461 -12.13,16.909 -18.168,25.384 -0.615,0.864 -1.318,1.339 -2.351,1.59 -7.974,1.937 -15.946,3.889 -23.888,5.956 -1.566,0.407 -2.306,0.006 -3.132,-1.323 -4.232,-6.805 -8.531,-13.568 -12.91,-20.277 -0.844,-1.293 -0.832,-2.29 -0.234,-3.63 3.165,-7.096 6.235,-14.235 9.368,-21.345 0.43,-0.975 0.929,-1.952 1.568,-2.795 5.989,-7.894 12.022,-15.753 18.02,-23.64 0.624,-0.82 1.33,-1.384 2.316,-1.724 4.579,-1.579 9.156,-3.169 13.693,-4.867 1.3,-0.486 2.01,-0.282 2.858,0.857 5.57,7.486 11.224,14.908 16.85,22.351 0.447,0.59 0.985,1.143 0.888,1.53 C 2.699,-13.466 1.37,-6.729 0,0"
       style="fill:#bfbfbf;fill-opacity:1;fill-rule:nonzero;stroke:none"
       id="path46" /></g><g
     id="g48"
     transform="matrix(1.3333333,0,0,-1.3333333,298.63399,241.00453)"><path
       inkscape:connector-curvature="0"
       d="m 0,0 c -0.541,5.737 -1.393,28.801 -1.784,34.549 -0.113,1.664 -0.344,2.392 -2.303,2.164 -11.698,-1.36 -23.41,-2.592 -35.122,-3.814 -1.3,-0.136 -2.098,-0.661 -2.801,-1.775 -7.65,-12.113 -15.339,-24.2 -23.053,-36.272 -0.726,-1.136 -1.01,-2.237 -0.884,-3.597 0.726,-7.839 1.399,-15.682 2.022,-23.53 0.109,-1.374 0.49,-2.364 1.668,-3.195 3.119,-2.199 6.175,-4.493 9.19,-6.835 1.175,-0.912 2.203,-1.211 3.698,-0.676 5.716,2.045 11.476,3.963 17.246,5.849 1.088,0.355 1.928,0.892 2.672,1.739 9.449,10.74 18.903,21.475 28.39,32.181 C -0.204,-2.246 0.121,-1.286 0,0"
       style="fill:#bfbfbf;fill-opacity:1;fill-rule:nonzero;stroke:none"
       id="path50" /></g><g
     id="g52"
     transform="matrix(1.3333333,0,0,-1.3333333,252.96706,273.15187)"><path
       inkscape:connector-curvature="0"
       d="m 0,0 c 4.252,2.604 6.678,7.135 9.914,10.826 0.834,0.951 -0.229,1.789 -1.025,2.409 -2.272,1.768 -4.605,3.451 -6.809,5.31 -1.325,1.117 -2.059,0.764 -3.039,-0.311 -5.434,-5.963 -5.455,-5.929 -12.933,-1.607 -0.626,0.362 -1.525,1.402 -1.997,0.621 -1.726,-2.861 -5.182,-4.564 -4.694,-8.964 0.27,-2.439 0.971,-4.276 2.764,-6.019 4.487,-4.363 4.443,-4.482 9.569,-1.841 1.198,0.618 2.211,0.822 3.353,-0.175 C -3.253,-1.184 -1.634,-1.393 0,0"
       style="fill:#333333;fill-opacity:1;fill-rule:nonzero;stroke:none"
       id="path54" /></g><g
     id="g56"
     transform="matrix(1.3333333,0,0,-1.3333333,192.95,21.792405)"><path
       inkscape:connector-curvature="0"
       d="m 0,0 c -2.375,-1.041 -4.75,-2.081 -7.609,-3.334 h 5.713 l 0.333,-0.452 c -3.062,-1.554 -6.123,-3.108 -9.681,-4.914 3.885,-0.215 7.162,0.249 10.475,0.306 -0.032,-0.743 -0.939,-0.799 -1.498,-1.035 -9.834,-4.151 -19.687,-8.28 -29.536,-12.415 -0.547,-0.229 -1.097,-0.457 -1.631,-0.699 -0.714,-0.324 -1.438,-0.754 -1.182,-1.356 0.34,-0.799 1.379,-0.366 2.125,-0.33 11.36,0.548 22.719,1.112 34.08,1.658 0.498,0.024 1.07,0.199 1.698,-0.24 -0.697,-0.383 -1.358,-0.771 -2.056,-1.125 -10.828,-5.491 -21.606,-11.03 -32.539,-16.423 -2.223,-1.096 -2.97,-2.201 -2.787,-4.013 0.374,-3.697 0.228,-3.693 5.491,-3.056 7.49,0.907 14.986,1.797 22.762,2.391 -2.279,-1.111 -4.557,-2.222 -7.314,-3.566 2.065,-0.304 3.426,0.403 4.905,0.008 -0.331,-0.83 -1.853,-0.891 -2.47,-1.807 1.788,-0.171 3.571,0.312 5.811,-0.172 -13.782,-7.09 -27.185,-13.986 -40.977,-21.082 -0.23,4.394 -0.467,8.424 -0.649,12.455 -0.714,15.817 -1.379,31.636 -2.17,47.452 -0.072,1.444 0.457,2.012 2.533,2.442 14.4,2.98 28.749,6.075 43.117,9.127 0.945,0.201 1.915,0.351 2.873,0.524 C -0.122,0.23 -0.061,0.115 0,0"
       style="fill:#bfbfbf;fill-opacity:1;fill-rule:nonzero;stroke:none"
       id="path58" /></g><g
     id="g60"
     transform="matrix(1.3333333,0,0,-1.3333333,126.98973,300.53973)"><path
       inkscape:connector-curvature="0"
       d="m 0,0 c -1.061,-0.366 -2.084,0.485 -3.27,-0.313 0.992,-0.696 2.337,-0.917 3.044,-2.282 -3.519,1.125 -6.785,2.171 -10.053,3.215 -7.902,2.525 -15.795,5.07 -23.719,7.547 -1.067,0.333 -1.35,0.794 -1.212,1.904 1.906,15.273 3.772,30.545 5.583,45.817 0.156,1.316 0.544,1.601 1.884,1.497 7.002,-0.541 14.025,-0.985 21.174,-1.472 -0.511,-0.888 -1.561,-0.589 -2.03,-1.408 2.319,-0.75 4.628,-1.496 7.16,-2.315 -1.852,-0.953 -3.717,-0.905 -5.415,-2.091 1.256,-0.286 2.35,-0.535 3.496,-0.796 -0.538,-0.998 -1.352,-0.881 -1.979,-1.043 -5.284,-1.366 -10.576,-2.682 -15.866,-4.017 -0.944,-0.238 -2.089,-0.332 -2.357,-1.469 -0.287,-1.22 0.767,-1.585 1.664,-1.973 6.068,-2.632 12.138,-5.26 18.207,-7.89 0.54,-0.234 1.072,-0.481 1.667,-0.748 -2.273,-1.389 -4.374,-2.746 -6.541,-3.982 -4.462,-2.544 -8.963,-5.018 -13.443,-7.53 -2.621,-1.47 -2.685,-2.442 -0.203,-3.721 6.155,-3.172 12.328,-6.317 18.493,-9.475 C -2.276,6.717 -0.841,5.97 0.758,5.143 -0.552,4.052 -2.13,3.973 -3.529,3.064 -2.283,2.105 -1.098,1.194 0.087,0.282 0.057,0.188 0.028,0.094 0,0"
       style="fill:#bfbfbf;fill-opacity:1;fill-rule:nonzero;stroke:none"
       id="path62" /></g><g
     id="g64"
     transform="matrix(1.3333333,0,0,-1.3333333,87.560264,51.996937)"><path
       inkscape:connector-curvature="0"
       d="m 0,0 c 0.781,-1.012 1.449,-1.878 2.304,-2.986 0.61,2.03 1.114,3.708 1.797,5.984 8.899,-19.83 17.561,-36.684 26.229,-56 -0.789,-0.678 -3.343,-0.122 -4,0 -13.692,2.533 -25.506,2.561 -39.168,5.181 -1.932,0.371 -2.54,0.205 -2.548,-1.913 -0.04,-11.001 -0.249,-22.019 -0.403,-33.032 -0.008,-0.609 -0.051,-1.222 -0.095,-2.236 -1.366,3.345 -2.661,6.286 -3.783,9.3 -4.456,11.966 -8.769,23.991 -13.35,35.902 -0.954,2.482 -0.908,4.58 0.437,7.141 2.356,4.488 2.217,4.534 7.051,3.761 8.438,-1.35 16.878,-2.695 25.319,-4.036 0.629,-0.1 1.273,-0.149 2.311,-0.268 -2.895,11.516 -5.722,22.762 -8.548,34.007 2.269,-1.224 2.903,-3.558 4.477,-5.345 1.217,1.243 0.887,2.894 1.97,4.54"
       style="fill:#bfbfbf;fill-opacity:1;fill-rule:nonzero;stroke:none"
       id="path66" /></g><g
     id="g68"
     transform="matrix(1.3333333,0,0,-1.3333333,266.66666,106.66667)"><path
       inkscape:connector-curvature="0"
       d="m 0,0 c -0.725,-4.602 -1.703,-8.581 -4.136,-12.039 -2.011,-2.859 -9.342,-4.657 -12.72,-3.704 -0.697,0.197 -1.355,0.428 -1.977,0.698 -2.263,0.98 -0.93,4.281 1.4,3.461 0.027,-0.01 0.054,-0.019 0.081,-0.029 2.769,-0.98 5.073,-0.181 7.396,1.074 2.749,1.485 4.802,3.65 6.545,6.149 C -2.458,-3.023 -1.366,-1.747 0,0"
       style="fill:#333333;fill-opacity:1;fill-rule:nonzero;stroke:none"
       id="path70" /></g><g
     id="g72"
     transform="matrix(1.3333333,0,0,-1.3333333,220.20653,100.10654)"><path
       inkscape:connector-curvature="0"
       d="M 0,0 C -1.356,1.167 -1.575,4.964 -0.352,6.103 0.841,7.214 4.541,7.436 5.693,6.466 6.878,5.468 7.271,1.348 6.289,0.216 5.063,-1.197 1.532,-1.318 0,0"
       style="fill:#333333;fill-opacity:1;fill-rule:nonzero;stroke:none"
       id="path74" /></g><g
     id="g76"
     transform="matrix(1.3333333,0,0,-1.3333333,247.53959,80.000003)"><path
       inkscape:connector-curvature="0"
       d="M 0,0 C 1.01,-0.259 2.225,-0.206 2.344,-1.822 2.392,-2.467 0.767,-4.221 0.18,-3.977 -0.594,-3.655 -1.653,-3.511 -1.655,-2.151 -1.656,-1.047 -0.933,-0.046 0,0"
       style="fill:#333333;fill-opacity:1;fill-rule:nonzero;stroke:none"
       id="path78" /></g><g
     id="g80"
     transform="matrix(1.3333333,0,0,-1.3333333,278.41173,239.99547)"><path
       inkscape:connector-curvature="0"
       d="m 0,0 c -1.978,-0.14 -5.376,4.101 -4.695,5.865 0.185,0.477 0.389,0.947 0.588,1.419 1.323,3.133 4.451,4.953 8.051,4.687 C 5.046,11.889 7.338,8.336 7.212,6.904 6.862,2.933 4.101,0.29 0,0"
       style="fill:#333333;fill-opacity:1;fill-rule:nonzero;stroke:none"
       id="path82" /></g><g
     id="g84"
     transform="matrix(1.3333333,0,0,-1.3333333,261.32013,216.88507)"><path
       inkscape:connector-curvature="0"
       d="m 0,0 c 0.163,-1.907 -1.724,-5.281 -2.982,-5.334 -2.211,-0.093 -4.746,2.47 -4.987,4.938 -0.244,2.495 1.692,2.803 3.322,2.97 C -1.17,2.93 -0.193,2.263 0,0"
       style="fill:#333333;fill-opacity:1;fill-rule:nonzero;stroke:none"
       id="path86" /></g><g
     id="g88"
     transform="matrix(1.3333333,0,0,-1.3333333,165.67573,246.4804)"><path
       inkscape:connector-curvature="0"
       d="M 0,0 3.029,3.063 H 0 L 3.029,8.86 -5.524,5.636 c -0.005,0.02 -0.011,0.063 -0.011,0.063 0,0 -3.27,-1.281 -6.758,-2.615 l -0.055,-0.021 v 0 c -0.915,-0.35 -1.843,-0.702 -2.732,-1.037 -0.655,-0.245 -12.591,-4.009 -12.591,-4.009 l 4.496,-3.242 -4.893,-2.323 c -0.268,-0.128 -0.245,-0.598 0.034,-0.687 l 4.859,-1.541 c 0,0 -3.227,-4.224 -1.809,-4.279 0.82,-0.032 8.812,2.852 8.812,2.852 l -2.716,-39.292 c -0.044,-0.637 6.713,-1.192 6.819,0.343 l 2.886,41.753 12.926,5.341 z"
       style="fill:#bfbfbf;fill-opacity:1;fill-rule:nonzero;stroke:none"
       id="path90" /></g><g
     id="g92"
     transform="matrix(1.3333333,0,0,-1.3333333,78.534931,183.24427)"><path
       inkscape:connector-curvature="0"
       d="m 0,0 c -0.462,-1.993 -2.471,-4.715 -6.03,-8.163 -3.56,-3.449 -6.236,-5.382 -8.026,-5.799 l 2.523,10.889 C -6.014,0.504 -2.376,2.08 -0.62,1.655 0.014,1.502 0.22,0.95 0,0 M 8.467,0.808 C 8.424,0.968 7.663,2.529 6.182,5.496 5.618,6.633 5.018,7.781 4.379,8.939 3.74,10.094 2.93,10.941 1.951,11.481 c -0.564,0.286 -1.127,0.496 -1.685,0.631 -1.456,0.352 -3.31,0.137 -5.561,-0.646 -2.251,-0.783 -3.701,-1.123 -4.345,-1.016 -0.683,0.116 -1.755,0.639 -3.215,1.567 -1.462,0.929 -2.425,1.401 -2.894,1.416 -1.51,0.115 -14.293,-52.994 -14.293,-52.994 -0.143,-0.617 -0.309,-1.115 -0.493,-1.496 -0.19,-0.382 -0.309,-0.69 -0.365,-0.927 -0.175,-0.759 13.594,13.998 13.594,13.998 l 8.564,-16.879 3.168,-5.702 1.072,6.436 2.573,-0.832 v 2.788 h 2.014 l 0.15,3.632 c -3.724,8.269 -6.159,13.492 -7.308,15.675 9.615,6.792 14.95,12.97 16.002,18.527 0.331,1.773 0.178,3.489 -0.462,5.149"
       style="fill:#bfbfbf;fill-opacity:1;fill-rule:nonzero;stroke:none"
       id="path94" /></g><g
     id="g96"
     transform="matrix(1.3333333,0,0,-1.3333333,191.34573,256.0412)"><path
       inkscape:connector-curvature="0"
       d="M 0,0 C -2.453,-4.575 -4.425,-7.475 -5.91,-8.697 L -5.784,1.472 C -1.64,7.115 1.239,10.194 2.857,10.707 3.439,10.893 3.726,10.543 3.715,9.655 3.692,7.794 2.454,4.576 0,0 m 8.071,17.198 c -0.71,0.655 -1.454,1.302 -2.233,1.937 -0.781,0.633 -1.65,0.931 -2.61,0.893 -0.547,-0.042 -1.079,-0.147 -1.593,-0.311 -1.34,-0.426 -2.921,-1.513 -4.739,-3.26 -1.819,-1.747 -5.264,-3.305 -6.717,-3.26 -1.455,0.043 -2.388,-0.044 -2.801,-0.261 -1.342,-0.647 -2.379,-50.473 -2.379,-50.473 0,0 -0.818,-7.058 -0.378,-6.387 0.44,0.671 3.41,6.364 3.908,5.685 0.498,-0.68 1.952,-1.817 1.952,-1.817 l 0.138,3.202 c 0,0 4.274,-3.293 3.994,-2.911 -0.281,0.383 -0.842,5.679 -0.842,5.679 l 0.154,12.294 c 0,0 0.861,1.272 2.03,3.026 L 24.491,-40.462 0.688,-11.506 c 5.297,8.278 11.748,18.982 11.664,21.986 -0.048,1.617 -0.511,2.949 -1.388,3.995 -0.067,0.111 -1.031,1.017 -2.893,2.723"
       style="fill:#bfbfbf;fill-opacity:1;fill-rule:nonzero;stroke:none"
       id="path98" /></g><g
     id="g100"
     transform="matrix(1.3333333,0,0,-1.3333333,295.59386,154.6712)"><path
       inkscape:connector-curvature="0"
       d="m 0,0 c 3.425,0 6.85,-0.002 10.275,0.001 1.169,0.001 2.183,-0.382 3.058,-1.103 1.013,-0.834 1.622,-1.903 1.957,-3.124 0.012,-0.044 0.011,-0.092 0.011,-0.138 10e-4,-1.144 -10e-4,-2.287 0.004,-3.43 0,-0.111 -0.026,-0.14 -0.146,-0.14 -2.662,0.004 -5.323,0.003 -7.984,0.002 -0.073,0 -0.142,0.011 -0.21,0.032 -4.053,1.223 -8.107,2.445 -12.16,3.667 -1.771,0.535 -3.542,1.071 -5.316,1.599 -0.149,0.044 -0.186,0.104 -0.184,0.245 0.008,0.744 0.007,1.488 0,2.232 -10e-4,0.125 0.027,0.161 0.166,0.16 C -7.02,-0.001 -3.51,0 0,0"
       style="fill:#bfbfbf;fill-opacity:1;fill-rule:nonzero;stroke:none"
       id="path102" /></g><g
     id="g104"
     transform="matrix(1.3333333,0,0,-1.3333333,292.84346,162.18613)"><path
       inkscape:connector-curvature="0"
       d="M 0,0 C 0.487,-0.147 0.958,-0.289 1.43,-0.432 3.265,-0.985 5.101,-1.54 6.938,-2.089 7.067,-2.128 7.105,-2.179 7.105,-2.308 7.1,-4.365 7.101,-6.422 7.102,-8.479 c 0,-0.192 -0.029,-0.165 0.179,-0.166 0.661,-0.001 1.322,-0.002 1.983,0.002 0.105,0.001 0.145,-0.014 0.145,-0.128 -0.004,-1.819 -0.004,-3.638 -0.001,-5.458 0.001,-0.107 -0.031,-0.131 -0.14,-0.131 -4.06,0.003 -8.12,0.003 -12.179,0 -0.119,0 -0.147,0.027 -0.147,0.139 0.005,0.893 0.005,1.785 10e-4,2.678 0,0.089 0.029,0.133 0.113,0.174 0.942,0.448 1.88,0.902 2.822,1.35 0.092,0.044 0.125,0.092 0.125,0.193 C -0.001,-6.609 0,-3.391 0,-0.174 Z"
       style="fill:#bfbfbf;fill-opacity:1;fill-rule:nonzero;stroke:none"
       id="path106" /></g><g
     id="g108"
     transform="matrix(1.3333333,0,0,-1.3333333,309.68906,166.06227)"><path
       inkscape:connector-curvature="0"
       d="m 0,0 c 1.527,0 3.054,-0.001 4.581,0.003 0.123,0 0.152,-0.032 0.152,-0.147 -0.004,-1.58 -0.004,-3.161 0,-4.741 0,-0.109 -0.022,-0.142 -0.144,-0.142 -3.059,0.004 -6.117,0.004 -9.175,0 -0.12,0 -0.146,0.029 -0.146,0.14 0.004,1.581 0.004,3.161 0,4.742 0,0.113 0.025,0.148 0.151,0.148 C -3.054,-0.002 -1.527,0 0,0"
       style="fill:#bfbfbf;fill-opacity:1;fill-rule:nonzero;stroke:none"
       id="path110" /></g></svg>