<?xml version="1.0" encoding="UTF-8" standalone="no"?>
<svg
   xmlns:dc="http://purl.org/dc/elements/1.1/"
   xmlns:cc="http://creativecommons.org/ns#"
   xmlns:rdf="http://www.w3.org/1999/02/22-rdf-syntax-ns#"
   xmlns:svg="http://www.w3.org/2000/svg"
   xmlns="http://www.w3.org/2000/svg"
   xmlns:sodipodi="http://sodipodi.sourceforge.net/DTD/sodipodi-0.dtd"
   xmlns:inkscape="http://www.inkscape.org/namespaces/inkscape"
   viewBox="0 0 341.33334 341.33334"
   height="256"
   width="256"
   xml:space="preserve"
   id="svg2"
   version="1.1"
   sodipodi:docname="Sony - PlayStation 4.svg"
   inkscape:version="0.92.2 (5c3e80d, 2017-08-06)"
   inkscape:export-filename="C:\Users\Alfre\AppData\Roaming\RetroArch\assets\xmb\custom\png\Sony - PlayStation 4.png"
   inkscape:export-xdpi="96"
   inkscape:export-ydpi="96"><sodipodi:namedview
     pagecolor="#ffffff"
     bordercolor="#666666"
     borderopacity="1"
     objecttolerance="10"
     gridtolerance="10"
     guidetolerance="10"
     inkscape:pageopacity="0"
     inkscape:pageshadow="2"
     inkscape:window-width="1920"
     inkscape:window-height="1001"
     id="namedview111"
     showgrid="false"
     inkscape:zoom="15.644738"
     inkscape:cx="205.18537"
     inkscape:cy="159.69233"
     inkscape:window-x="-9"
     inkscape:window-y="-9"
     inkscape:window-maximized="1"
     inkscape:current-layer="svg2"
     inkscape:pagecheckerboard="true"
     showguides="false" /><metadata
     id="metadata8"><rdf:RDF><cc:Work
         rdf:about=""><dc:format>image/svg+xml</dc:format><dc:type
           rdf:resource="http://purl.org/dc/dcmitype/StillImage" /><dc:title /></cc:Work></rdf:RDF></metadata><defs
     id="defs6"><clipPath
       id="clipPath18"
       clipPathUnits="userSpaceOnUse"><path
         id="path16"
         d="M 0,256 H 256 V 0 H 0 Z" /></clipPath><clipPath
       id="clipPath26"
       clipPathUnits="userSpaceOnUse"><path
         id="path24"
         d="M 4,208 H 252 V 48 H 4 Z" /></clipPath><clipPath
       id="clipPath124"
       clipPathUnits="userSpaceOnUse"><path
         inkscape:connector-curvature="0"
         id="path122"
         d="m 40.5,150.5 h 16.25 v -13 H 40.5 Z" /></clipPath></defs><g
     id="g36"
     transform="matrix(1.3333333,0,0,-1.3333333,58.666665,85.333336)"
     style="fill:#4d4d4d;fill-opacity:1"><path
       inkscape:connector-curvature="0"
       d="M 0,0 -1.124,2.248 C -1.63,3.259 -1.205,4.49 -0.175,4.958 2.43,6.142 7.821,8 16,8 28,8 28,4 28,4 V 0 Z"
       style="fill:#4d4d4d;fill-opacity:1;fill-rule:nonzero;stroke:none"
       id="path38" /></g><g
     id="g40"
     transform="matrix(1.3333333,0,0,-1.3333333,282.66666,85.333336)"
     style="fill:#4d4d4d;fill-opacity:1"><path
       inkscape:connector-curvature="0"
       d="M 0,0 1.124,2.248 C 1.63,3.259 1.205,4.49 0.175,4.958 -2.43,6.142 -7.821,8 -16,8 -28,8 -28,4 -28,4 V 0 Z"
       style="fill:#4d4d4d;fill-opacity:1;fill-rule:nonzero;stroke:none"
       id="path42" /></g><g
     id="g44"
     transform="matrix(1.3333333,0,0,-1.3333333,314.66666,149.33333)"
     style="fill:#191919;fill-opacity:1"><path
       inkscape:connector-curvature="0"
       d="m 0,0 c -8,36 -20,50 -20,50 -3.404,3.404 -24.189,1.911 -30.308,1.987 -1.078,0.013 -2.114,-0.408 -2.877,-1.172 l -1.643,-1.644 C -55.578,48.421 -56.596,48 -57.657,48 h -100.686 c -1.061,0 -2.078,0.421 -2.828,1.171 l -1.644,1.644 c -0.764,0.764 -1.799,1.185 -2.878,1.172 -6.118,-0.076 -26.903,1.417 -30.307,-1.987 0,0 -12,-14 -20,-50 -8,-36 -8,-56 -8,-56 0,0 0,-32 20,-32 19.83,0 27.863,15.729 39.694,47.185 0.2,0.532 0.514,1.023 0.916,1.425 l 2.219,2.218 c 0.75,0.75 1.767,1.172 2.828,1.172 H -108 -57.657 c 1.061,0 2.079,-0.422 2.829,-1.172 l 2.218,-2.218 c 0.402,-0.402 0.716,-0.893 0.917,-1.425 C -39.862,-72.271 -31.829,-88 -12,-88 c 20,0 20,32 20,32 0,0 0,20 -8,56"
       style="fill:#191919;fill-opacity:1;fill-rule:nonzero;stroke:none"
       id="path46" /></g><g
     id="g48"
     transform="matrix(1.3333333,0,0,-1.3333333,213.33333,144)"
     style="fill:#0a0a0a;fill-opacity:1"><path
       inkscape:connector-curvature="0"
       d="m 0,0 h -64 c -4.418,0 -8,3.582 -8,8 v 32 c 0,2.209 1.791,4 4,4 H 4 c 2.209,0 4,-1.791 4,-4 V 8 C 8,3.582 4.418,0 0,0"
       style="fill:#0a0a0a;fill-opacity:1;fill-rule:nonzero;stroke:none"
       id="path50" /></g><path
     inkscape:connector-curvature="0"
     d="M 213.33333,93.333336 H 128 V 90.66667 h 85.33333 z"
     style="fill:#0000ff;fill-opacity:1;fill-rule:nonzero;stroke:none;stroke-width:1.33333325"
     id="path52" /><g
     id="g54"
     transform="matrix(1.3333333,0,0,-1.3333333,109.33333,130.66667)"
     style="fill:#282828;fill-opacity:1"><path
       inkscape:connector-curvature="0"
       d="m 0,0 c 0,-15.464 -12.536,-28 -28,-28 -15.464,0 -28,12.536 -28,28 0,15.464 12.536,28 28,28 C -12.536,28 0,15.464 0,0"
       style="fill:#282828;fill-opacity:1;fill-rule:nonzero;stroke:none"
       id="path56" /></g><g
     id="g58"
     transform="matrix(1.3333333,0,0,-1.3333333,269.33333,168)"
     style="fill:#282828;fill-opacity:1"><path
       inkscape:connector-curvature="0"
       d="M 0,0 C -15.439,0 -28,12.561 -28,28 -28,43.439 -15.439,56 0,56 15.439,56 28,43.439 28,28 28,12.561 15.439,0 0,0"
       style="fill:#282828;fill-opacity:1;fill-rule:nonzero;stroke:none"
       id="path60" /></g><g
     id="g62"
     transform="matrix(1.3333333,0,0,-1.3333333,106.66666,106.66667)"
     style="fill:#4d4d4d;stroke:#4d4d4d;stroke-opacity:1;fill-opacity:1"><path
       inkscape:connector-curvature="0"
       d="m 0,0 v 0 c -2.209,0 -4,1.791 -4,4 v 4 c 0,2.209 1.791,4 4,4 2.209,0 4,-1.791 4,-4 V 4 C 4,1.791 2.209,0 0,0"
       style="fill:#4d4d4d;fill-opacity:1;fill-rule:nonzero;stroke:#4d4d4d;stroke-opacity:1"
       id="path64" /></g><g
     id="g66"
     transform="matrix(1.3333333,0,0,-1.3333333,234.66666,106.66667)"
     style="fill:#4d4d4d;stroke:#4d4d4d;stroke-opacity:1;fill-opacity:1"><path
       inkscape:connector-curvature="0"
       d="m 0,0 v 0 c -2.209,0 -4,1.791 -4,4 v 4 c 0,2.209 1.791,4 4,4 2.209,0 4,-1.791 4,-4 V 4 C 4,1.791 2.209,0 0,0"
       style="fill:#4d4d4d;fill-opacity:1;fill-rule:nonzero;stroke:#4d4d4d;stroke-opacity:1"
       id="path68" /></g><g
     id="g70"
     transform="matrix(1.3333333,0,0,-1.3333333,60.175065,122.66667)"
     style="fill:#4d4d4d;fill-opacity:1"><path
       inkscape:connector-curvature="0"
       d="m 0,0 h -8.93 c -1.104,0 -2,-0.896 -2,-2 v -8 c 0,-1.104 0.896,-2 2,-2 H 0 c 0.669,0 1.293,0.334 1.664,0.891 l 2.667,4 c 0.448,0.672 0.448,1.547 0,2.218 l -2.667,4 C 1.293,-0.334 0.669,0 0,0"
       style="fill:#4d4d4d;fill-opacity:1;fill-rule:nonzero;stroke:none"
       id="path72" /></g><g
     id="g74"
     transform="matrix(1.3333333,0,0,-1.3333333,83.824931,122.66667)"
     style="fill:#4d4d4d;fill-opacity:1"><path
       inkscape:connector-curvature="0"
       d="m 0,0 h 8.93 c 1.104,0 2,-0.896 2,-2 v -8 c 0,-1.104 -0.896,-2 -2,-2 H 0 c -0.669,0 -1.293,0.334 -1.664,0.891 l -2.667,4 c -0.448,0.672 -0.448,1.547 0,2.218 l 2.667,4 C -1.293,-0.334 -0.669,0 0,0"
       style="fill:#4d4d4d;fill-opacity:1;fill-rule:nonzero;stroke:none"
       id="path76" /></g><g
     id="g78"
     transform="matrix(1.3333333,0,0,-1.3333333,80.268931,118.84174)"
     style="fill:#4d4d4d;fill-opacity:1"><path
       inkscape:connector-curvature="0"
       d="m 0,0 v 8.93 c 0,1.104 -0.895,2 -2,2 h -8 c -1.104,0 -2,-0.896 -2,-2 V 0 c 0,-0.669 0.334,-1.293 0.891,-1.664 l 4,-2.667 c 0.672,-0.448 1.547,-0.448 2.218,0 l 4,2.667 C -0.334,-1.293 0,-0.669 0,0"
       style="fill:#4d4d4d;fill-opacity:1;fill-rule:nonzero;stroke:none"
       id="path80" /></g><g
     id="g82"
     transform="matrix(1.3333333,0,0,-1.3333333,80.268931,142.4916)"
     style="fill:#4d4d4d;fill-opacity:1"><path
       inkscape:connector-curvature="0"
       d="m 0,0 v -8.93 c 0,-1.104 -0.895,-2 -2,-2 h -8 c -1.104,0 -2,0.896 -2,2 V 0 c 0,0.669 0.334,1.293 0.891,1.664 l 4,2.667 c 0.672,0.448 1.547,0.448 2.218,0 l 4,-2.667 C -0.334,1.293 0,0.669 0,0"
       style="fill:#4d4d4d;fill-opacity:1;fill-rule:nonzero;stroke:none"
       id="path84" /></g><g
     id="g86"
     transform="matrix(1.3333333,0,0,-1.3333333,42.666666,128)"
     style="fill:#4d4d4d;fill-opacity:1"><path
       inkscape:connector-curvature="0"
       d="m 0,0 v -4 l -2,2 z"
       style="fill:#4d4d4d;fill-opacity:1;fill-rule:nonzero;stroke:none"
       id="path88" /></g><g
     id="g90"
     transform="matrix(1.3333333,0,0,-1.3333333,101.33333,133.33334)"
     style="fill:#4d4d4d;fill-opacity:1"><path
       inkscape:connector-curvature="0"
       d="M 0,0 V 4 L 2,2 Z"
       style="fill:#4d4d4d;fill-opacity:1;fill-rule:nonzero;stroke:none"
       id="path92" /></g><g
     id="g94"
     transform="matrix(1.3333333,0,0,-1.3333333,74.666665,101.33334)"
     style="fill:#4d4d4d;fill-opacity:1"><path
       inkscape:connector-curvature="0"
       d="m 0,0 h -4 l 2,2 z"
       style="fill:#4d4d4d;fill-opacity:1;fill-rule:nonzero;stroke:none"
       id="path96" /></g><g
     id="g98"
     transform="matrix(1.3333333,0,0,-1.3333333,69.333332,160)"
     style="fill:#4d4d4d;fill-opacity:1"><path
       inkscape:connector-curvature="0"
       d="M 0,0 H 4 L 2,-2 Z"
       style="fill:#4d4d4d;fill-opacity:1;fill-rule:nonzero;stroke:none"
       id="path100" /></g><g
     id="g102"
     transform="matrix(1.3333333,0,0,-1.3333333,153.33333,176)"
     style="fill:#282828;fill-opacity:1;font-variant-east_asian:normal;opacity:1;vector-effect:none;stroke-width:1;stroke-linecap:butt;stroke-linejoin:miter;stroke-miterlimit:4;stroke-dasharray:none;stroke-dashoffset:0;stroke-opacity:1;stroke:none"><path
       inkscape:connector-curvature="0"
       d="m 0,0 c 0,-12.15 -9.85,-22 -22,-22 -12.15,0 -22,9.85 -22,22 0,12.15 9.85,22 22,22 C -9.85,22 0,12.15 0,0"
       style="fill:#282828;fill-opacity:1;fill-rule:nonzero;stroke:none;font-variant-east_asian:normal;vector-effect:none;stroke-width:1;stroke-linecap:butt;stroke-linejoin:miter;stroke-miterlimit:4;stroke-dasharray:none;stroke-dashoffset:0;stroke-opacity:1"
       id="path104" /></g><g
     id="g106"
     transform="matrix(1.3333333,0,0,-1.3333333,124,154.66667)"><path
       inkscape:connector-curvature="0"
       d="m 0,0 c -8.822,0 -16,-7.178 -16,-16 0,-8.822 7.178,-16 16,-16 8.822,0 16,7.178 16,16 C 16,-7.178 8.822,0 0,0"
       style="fill:#262626;fill-opacity:1;fill-rule:nonzero;stroke:none"
       id="path108" /></g><g
     id="g110"
     transform="matrix(1.3333333,0,0,-1.3333333,142.66666,176)"
     style="fill:#4d4d4d;fill-opacity:1"><path
       inkscape:connector-curvature="0"
       d="m 0,0 c 0,-7.732 -6.268,-14 -14,-14 -7.732,0 -14,6.268 -14,14 0,7.732 6.268,14 14,14 C -6.268,14 0,7.732 0,0"
       style="fill:#4d4d4d;fill-opacity:1;fill-rule:nonzero;stroke:none"
       id="path112" /></g><g
     id="g114"
     transform="matrix(1.3333333,0,0,-1.3333333,124,160)"
     style="fill:#4d4d4d;fill-opacity:1"><path
       inkscape:connector-curvature="0"
       d="m 0,0 c -6.627,0 -12,-5.373 -12,-12 0,-6.627 5.373,-12 12,-12 6.627,0 12,5.373 12,12 C 12,-5.373 6.627,0 0,0 m 0,-2 c 5.514,0 10,-4.486 10,-10 0,-5.514 -4.486,-10 -10,-10 -5.514,0 -10,4.486 -10,10 0,5.514 4.486,10 10,10"
       style="fill:#4d4d4d;fill-opacity:1;fill-rule:nonzero;stroke:none"
       id="path116" /></g><g
     id="g118"
     transform="matrix(1.3333333,0,0,-1.3333333,246.66666,176)"
     style="fill:#282828;fill-opacity:1;font-variant-east_asian:normal;opacity:1;vector-effect:none;stroke-width:1;stroke-linecap:butt;stroke-linejoin:miter;stroke-miterlimit:4;stroke-dasharray:none;stroke-dashoffset:0;stroke-opacity:1;stroke:none"><path
       inkscape:connector-curvature="0"
       d="m 0,0 c 0,-12.15 -9.85,-22 -22,-22 -12.15,0 -22,9.85 -22,22 0,12.15 9.85,22 22,22 C -9.85,22 0,12.15 0,0"
       style="fill:#282828;fill-opacity:1;fill-rule:nonzero;stroke:none;font-variant-east_asian:normal;vector-effect:none;stroke-width:1;stroke-linecap:butt;stroke-linejoin:miter;stroke-miterlimit:4;stroke-dasharray:none;stroke-dashoffset:0;stroke-opacity:1"
       id="path120" /></g><g
     id="g122"
     transform="matrix(1.3333333,0,0,-1.3333333,217.33333,154.66667)"><path
       inkscape:connector-curvature="0"
       d="m 0,0 c -8.822,0 -16,-7.178 -16,-16 0,-8.822 7.178,-16 16,-16 8.822,0 16,7.178 16,16 C 16,-7.178 8.822,0 0,0"
       style="fill:#262626;fill-opacity:1;fill-rule:nonzero;stroke:none"
       id="path124" /></g><g
     id="g126"
     transform="matrix(1.3333333,0,0,-1.3333333,235.99999,176)"
     style="fill:#4d4d4d;fill-opacity:1"><path
       inkscape:connector-curvature="0"
       d="m 0,0 c 0,-7.732 -6.268,-14 -14,-14 -7.732,0 -14,6.268 -14,14 0,7.732 6.268,14 14,14 C -6.268,14 0,7.732 0,0"
       style="fill:#4d4d4d;fill-opacity:1;fill-rule:nonzero;stroke:none"
       id="path128" /></g><g
     id="g130"
     transform="matrix(1.3333333,0,0,-1.3333333,217.33333,160)"
     style="fill:#4d4d4d;fill-opacity:1"><path
       inkscape:connector-curvature="0"
       d="m 0,0 c -6.627,0 -12,-5.373 -12,-12 0,-6.627 5.373,-12 12,-12 6.627,0 12,5.373 12,12 C 12,-5.373 6.627,0 0,0 m 0,-2 c 5.514,0 10,-4.486 10,-10 0,-5.514 -4.486,-10 -10,-10 -5.514,0 -10,4.486 -10,10 0,5.514 4.486,10 10,10"
       style="fill:#4d4d4d;fill-opacity:1;fill-rule:nonzero;stroke:none"
       id="path132" /></g><g
     id="g134"
     transform="matrix(1.3333333,0,0,-1.3333333,180,176)"><path
       inkscape:connector-curvature="0"
       d="m 0,0 c 0,-3.866 -3.134,-7 -7,-7 -3.866,0 -7,3.134 -7,7 0,3.866 3.134,7 7,7 3.866,0 7,-3.134 7,-7"
       style="fill:#191919;fill-opacity:1;fill-rule:nonzero;stroke:none"
       id="path136" /></g><g
     id="g138"
     transform="matrix(1.3333333,0,0,-1.3333333,158.66666,150.66667)"><path
       inkscape:connector-curvature="0"
       d="M 0,0 C 0,-0.552 0.448,-1 1,-1 1.552,-1 2,-0.552 2,0 2,0.552 1.552,1 1,1 0.448,1 0,0.552 0,0"
       style="fill:#191919;fill-opacity:1;fill-rule:nonzero;stroke:none"
       id="path140" /></g><g
     id="g142"
     transform="matrix(1.3333333,0,0,-1.3333333,164,150.66667)"><path
       inkscape:connector-curvature="0"
       d="M 0,0 C 0,-0.552 0.448,-1 1,-1 1.552,-1 2,-0.552 2,0 2,0.552 1.552,1 1,1 0.448,1 0,0.552 0,0"
       style="fill:#191919;fill-opacity:1;fill-rule:nonzero;stroke:none"
       id="path144" /></g><g
     id="g146"
     transform="matrix(1.3333333,0,0,-1.3333333,169.33333,150.66667)"><path
       inkscape:connector-curvature="0"
       d="M 0,0 C 0,-0.552 0.448,-1 1,-1 1.552,-1 2,-0.552 2,0 2,0.552 1.552,1 1,1 0.448,1 0,0.552 0,0"
       style="fill:#191919;fill-opacity:1;fill-rule:nonzero;stroke:none"
       id="path148" /></g><g
     id="g150"
     transform="matrix(1.3333333,0,0,-1.3333333,174.66666,150.66667)"><path
       inkscape:connector-curvature="0"
       d="M 0,0 C 0,-0.552 0.447,-1 1,-1 1.553,-1 2,-0.552 2,0 2,0.552 1.553,1 1,1 0.447,1 0,0.552 0,0"
       style="fill:#191919;fill-opacity:1;fill-rule:nonzero;stroke:none"
       id="path152" /></g><g
     id="g154"
     transform="matrix(1.3333333,0,0,-1.3333333,180,150.66667)"><path
       inkscape:connector-curvature="0"
       d="M 0,0 C 0,-0.552 0.447,-1 1,-1 1.553,-1 2,-0.552 2,0 2,0.552 1.553,1 1,1 0.447,1 0,0.552 0,0"
       style="fill:#191919;fill-opacity:1;fill-rule:nonzero;stroke:none"
       id="path156" /></g><g
     id="g158"
     transform="matrix(1.3333333,0,0,-1.3333333,161.33333,154.66667)"><path
       inkscape:connector-curvature="0"
       d="M 0,0 C 0,-0.552 0.448,-1 1,-1 1.552,-1 2,-0.552 2,0 2,0.552 1.552,1 1,1 0.448,1 0,0.552 0,0"
       style="fill:#191919;fill-opacity:1;fill-rule:nonzero;stroke:none"
       id="path160" /></g><g
     id="g162"
     transform="matrix(1.3333333,0,0,-1.3333333,166.66666,154.66667)"><path
       inkscape:connector-curvature="0"
       d="M 0,0 C 0,-0.552 0.448,-1 1,-1 1.552,-1 2,-0.552 2,0 2,0.552 1.552,1 1,1 0.448,1 0,0.552 0,0"
       style="fill:#191919;fill-opacity:1;fill-rule:nonzero;stroke:none"
       id="path164" /></g><g
     id="g166"
     transform="matrix(1.3333333,0,0,-1.3333333,172,154.66667)"><path
       inkscape:connector-curvature="0"
       d="M 0,0 C 0,-0.552 0.447,-1 1,-1 1.553,-1 2,-0.552 2,0 2,0.552 1.553,1 1,1 0.447,1 0,0.552 0,0"
       style="fill:#191919;fill-opacity:1;fill-rule:nonzero;stroke:none"
       id="path168" /></g><g
     id="g170"
     transform="matrix(1.3333333,0,0,-1.3333333,177.33333,154.66667)"><path
       inkscape:connector-curvature="0"
       d="M 0,0 C 0,-0.552 0.447,-1 1,-1 1.553,-1 2,-0.552 2,0 2,0.552 1.553,1 1,1 0.447,1 0,0.552 0,0"
       style="fill:#191919;fill-opacity:1;fill-rule:nonzero;stroke:none"
       id="path172" /></g><g
     id="g174"
     transform="matrix(1.3333333,0,0,-1.3333333,164,158.66667)"><path
       inkscape:connector-curvature="0"
       d="M 0,0 C 0,-0.552 0.448,-1 1,-1 1.552,-1 2,-0.552 2,0 2,0.552 1.552,1 1,1 0.448,1 0,0.552 0,0"
       style="fill:#191919;fill-opacity:1;fill-rule:nonzero;stroke:none"
       id="path176" /></g><g
     id="g178"
     transform="matrix(1.3333333,0,0,-1.3333333,169.33333,158.66667)"><path
       inkscape:connector-curvature="0"
       d="M 0,0 C 0,-0.552 0.448,-1 1,-1 1.552,-1 2,-0.552 2,0 2,0.552 1.552,1 1,1 0.448,1 0,0.552 0,0"
       style="fill:#191919;fill-opacity:1;fill-rule:nonzero;stroke:none"
       id="path180" /></g><g
     id="g182"
     transform="matrix(1.3333333,0,0,-1.3333333,174.66666,158.66667)"><path
       inkscape:connector-curvature="0"
       d="M 0,0 C 0,-0.552 0.447,-1 1,-1 1.553,-1 2,-0.552 2,0 2,0.552 1.553,1 1,1 0.447,1 0,0.552 0,0"
       style="fill:#191919;fill-opacity:1;fill-rule:nonzero;stroke:none"
       id="path184" /></g><g
     id="g186"
     transform="matrix(1.3333333,0,0,-1.3333333,186.66666,197.33333)"><path
       inkscape:connector-curvature="0"
       d="m 0,0 h -24 c 0,1.104 0.896,2 2,2 H -2 C -0.896,2 0,1.104 0,0"
       style="fill:#191919;fill-opacity:1;fill-rule:nonzero;stroke:none"
       id="path188" /></g><g
     id="g190"
     transform="matrix(1.3333333,0,0,-1.3333333,258.66666,129.33334)"
     style="fill:#4d4d4d;fill-opacity:1"><path
       inkscape:connector-curvature="0"
       d="m 0,0 c 0,-4.418 -3.582,-8 -8,-8 -4.418,0 -8,3.582 -8,8 0,4.418 3.582,8 8,8 4.418,0 8,-3.582 8,-8"
       style="fill:#4d4d4d;fill-opacity:1;fill-rule:nonzero;stroke:none"
       id="path192" /></g><g
     id="g194"
     transform="matrix(1.3333333,0,0,-1.3333333,301.33333,129.33334)"
     style="fill:#4d4d4d;fill-opacity:1"><path
       inkscape:connector-curvature="0"
       d="m 0,0 c 0,-4.418 -3.582,-8 -8,-8 -4.418,0 -8,3.582 -8,8 0,4.418 3.582,8 8,8 4.418,0 8,-3.582 8,-8"
       style="fill:#4d4d4d;fill-opacity:1;fill-rule:nonzero;stroke:none"
       id="path196" /></g><g
     id="g198"
     transform="matrix(1.3333333,0,0,-1.3333333,269.33333,120)"
     style="fill:#4d4d4d;fill-opacity:1"><path
       inkscape:connector-curvature="0"
       d="m 0,0 c -4.418,0 -8,3.582 -8,8 0,4.418 3.582,8 8,8 C 4.418,16 8,12.418 8,8 8,3.582 4.418,0 0,0"
       style="fill:#4d4d4d;fill-opacity:1;fill-rule:nonzero;stroke:none"
       id="path200" /></g><g
     id="g202"
     transform="matrix(1.3333333,0,0,-1.3333333,269.33333,162.66667)"
     style="fill:#4d4d4d;fill-opacity:1"><path
       inkscape:connector-curvature="0"
       d="m 0,0 c -4.418,0 -8,3.582 -8,8 0,4.418 3.582,8 8,8 C 4.418,16 8,12.418 8,8 8,3.582 4.418,0 0,0"
       style="fill:#4d4d4d;fill-opacity:1;fill-rule:nonzero;stroke:none"
       id="path204" /></g><g
     id="g206"
     transform="matrix(1.3333333,0,0,-1.3333333,82.813198,122.88667)"
     style="fill:#4d4d4d;fill-opacity:1"><path
       inkscape:connector-curvature="0"
       d="m 0,0 c -0.361,-0.149 -0.682,-0.391 -0.905,-0.726 l -2.667,-4 c -0.448,-0.671 -0.448,-1.546 0,-2.218 l 2.667,-4 c 0.223,-0.335 0.544,-0.577 0.905,-0.726 1.185,1.643 1.89,3.654 1.89,5.835 C 1.89,-3.654 1.185,-1.643 0,0"
       style="fill:#4d4d4d;fill-opacity:1;fill-rule:nonzero;stroke:none"
       id="path208" /></g><g
     id="g210"
     transform="matrix(1.3333333,0,0,-1.3333333,71.999998,144)"
     style="fill:#4d4d4d;fill-opacity:1"><path
       inkscape:connector-curvature="0"
       d="M 0,0 C 2.25,0 4.32,0.752 5.992,2.007 5.838,2.321 5.61,2.596 5.312,2.795 l -4,2.667 c -0.672,0.448 -1.548,0.448 -2.22,0 l -4,-2.667 C -5.278,2.548 -5.538,2.184 -5.679,1.773 -4.065,0.657 -2.11,0 0,0"
       style="fill:#4d4d4d;fill-opacity:1;fill-rule:nonzero;stroke:none"
       id="path212" /></g><g
     id="g214"
     transform="matrix(1.3333333,0,0,-1.3333333,65.949865,129.18747)"
     style="fill:#4d4d4d;fill-opacity:1"><path
       inkscape:connector-curvature="0"
       d="m 0,0 -2.667,4 c -0.223,0.335 -0.544,0.576 -0.905,0.726 -1.185,-1.643 -1.89,-3.655 -1.89,-5.835 0,-2.181 0.705,-4.192 1.89,-5.835 0.361,0.149 0.682,0.39 0.905,0.725 l 2.667,4 C 0.448,-1.547 0.448,-0.672 0,0"
       style="fill:#4d4d4d;fill-opacity:1;fill-rule:nonzero;stroke:none"
       id="path216" /></g><g
     id="g218"
     transform="matrix(1.3333333,0,0,-1.3333333,73.748665,124.61654)"
     style="fill:#4d4d4d;fill-opacity:1"><path
       inkscape:connector-curvature="0"
       d="M 0,0 4,2.667 C 4.299,2.866 4.527,3.142 4.68,3.455 3.009,4.71 0.939,5.462 -1.312,5.462 c -2.11,0 -4.064,-0.657 -5.678,-1.773 0.14,-0.41 0.4,-0.775 0.771,-1.022 L -2.219,0 C -1.547,-0.448 -0.672,-0.448 0,0"
       style="fill:#4d4d4d;fill-opacity:1;fill-rule:nonzero;stroke:none"
       id="path220" /></g><path
     inkscape:connector-curvature="0"
     d="m 243.5992,133.73512 h 8.80256 v -8.80256 h -8.80256 z m 9.73413,0.93155 h -10.66667 v -10.66666 h 10.66667 z"
     style="fill:#ed4792;fill-opacity:1;fill-rule:nonzero;stroke:none;stroke-width:0.99418998"
     id="path88-6" /><path
     id="path92-4"
     style="fill:#d40000;fill-opacity:1;fill-rule:nonzero;stroke:none;stroke-width:1.00735378"
     d="m 290.66667,123.61056 c -3.15504,0 -5.72278,2.56775 -5.72278,5.72278 0,3.15503 2.56774,5.72277 5.72278,5.72277 3.15503,0 5.72278,-2.56775 5.72278,-5.72277 0,-3.15503 -2.56775,-5.72278 -5.72278,-5.72278 m 0,12.38945 c -3.67584,0 -6.66667,-2.99083 -6.66667,-6.66667 0,-3.67583 2.99083,-6.66666 6.66667,-6.66666 3.67583,0 6.66666,2.99083 6.66666,6.66666 0,3.67583 -2.99083,6.66667 -6.66666,6.66667"
     inkscape:connector-curvature="0" /><path
     id="path96-7"
     style="fill:#1abf9f;fill-opacity:1;fill-rule:nonzero;stroke:none;stroke-width:1.03407955"
     d="m 269.19839,102.62403 -6.6512,11.41831 h 13.57229 z m 0.0165,1.89754 5.1828,8.55081 h -10.16397 z"
     inkscape:connector-curvature="0" /><path
     id="path100-0"
     style="fill:#9bc2dd;fill-opacity:1;fill-rule:nonzero;stroke:none;stroke-width:1.03407955"
     d="m 275.00784,147.01057 -0.68559,-0.68559 -4.98944,4.98943 -4.98943,-4.98943 -0.68456,0.68559 4.98841,4.98943 -4.98841,4.98944 0.68456,0.68559 4.98943,-4.98943 4.98944,4.98943 0.68559,-0.68559 L 270.01841,152 Z"
     inkscape:connector-curvature="0" /><g
     id="g1076"
     transform="matrix(0.7427376,0,0,0.7427376,82.57891,-29.442309)"
     style="fill:#808080"><path
       inkscape:connector-curvature="0"
       d="m 126.9504,273.06385 c -0.212,-0.544 -0.56667,-1.04 -1.06267,-1.484 -0.27066,-0.24267 -0.56133,-0.452 -0.87333,-0.62667 -0.30933,-0.17466 -0.62133,-0.324 -0.93467,-0.45333 -0.17466,-0.0773 -5.504,-1.98 -5.504,-1.98 v 10.71867 l -2.30133,1.32133 c -0.37733,0.21467 -0.81067,0.368 -1.29867,0.46267 -0.48933,0.0947 -0.97066,0.064 -1.45066,-0.0907 -0.62667,-0.20267 -0.88534,-0.43467 -0.77467,-0.696 0.11067,-0.26 0.40267,-0.53067 0.87733,-0.81067 l 4.06667,-2.312 c 0.59867,-0.34 0.50133,-1.16666 -0.16133,-1.38133 l -0.15867,-0.052 c -0.24,-0.0773 -0.504,-0.0507 -0.72,0.0733 l -5.524,3.156 c -1.14267,0.64934 -1.78933,1.248 -1.94133,1.796 -0.152,0.54934 0.47466,1.06 1.88,1.532 1.34666,0.444 2.59866,0.568 3.75866,0.372 1.16,-0.196 2.284,-0.61066 3.37467,-1.24 l 2.34933,-1.32266 0.0253,0.0107 v -0.024 l 0.29466,-0.16666 c 0.41734,-0.22667 0.84,-0.40534 1.26267,-0.53467 0.12533,-0.0373 0.26,-0.06 0.4,-0.0747 l -0.29333,-1.55466 c -0.37067,0.06 -0.72534,0.13733 -1.04534,0.25066 -0.216,0.0747 -0.42133,0.15467 -0.61866,0.23867 v -7.34533 l 2.364,0.852 v 0.012 c 0.52,0.188 0.98533,0.43466 1.39466,0.74133 0.41067,0.308 0.60667,0.756 0.588,1.34267 0,0.53466 -0.18533,0.82533 -0.55333,0.87333 -0.368,0.0467 -0.804,-0.0227 -1.30667,-0.20933 l -0.44933,-0.168 v 1.55866 l -0.003,-0.004 0.003,0.08 0.308,1.69467 c -0.003,0 -0.004,0 -0.005,10e-4 l 0.15333,0.812 0.43867,2.42 -4.14134,2.35467 c -0.59733,0.34 -0.5,1.16667 0.16267,1.38 l 0.16,0.052 c 0.23867,0.0773 0.50267,0.0507 0.71733,-0.0707 l 5.21067,-2.96266 -0.007,-0.0147 0.02,0.007 -2.968,-5.65467 0.38667,0.14933 c 0.10933,0.0413 0.21867,0.0827 0.328,0.124 0.10933,0.0413 0.22,0.0827 0.33067,0.12534 0.42133,0.14266 0.83866,0.256 1.25066,0.33866 0.412,0.0827 0.796,0.0747 1.152,-0.024 0.42267,-0.128 0.72534,-0.37333 0.90934,-0.74 0.184,-0.36666 0.27066,-0.78666 0.26133,-1.25866 -0.009,-0.516 -0.12,-1.048 -0.332,-1.59467"
       style="fill:#808080;fill-opacity:1;fill-rule:nonzero;stroke:none;stroke-width:1.33333325"
       id="path226" /><path
       inkscape:connector-curvature="0"
       d="m 126.13494,278.04892 c -0.11333,-0.036 -0.22667,-0.0707 -0.34,-0.104 -0.11333,-0.032 -0.232,-0.0627 -0.356,-0.0947 -0.34667,-0.0893 -0.72933,-0.14666 -1.12267,-0.19333 l 1.88267,3.612 c 1.04533,-0.61333 1.65733,-1.18133 1.808,-1.69867 0.15733,-0.54133 -0.46667,-1.04933 -1.872,-1.52133"
       style="fill:#808080;fill-opacity:1;fill-rule:nonzero;stroke:none;stroke-width:1.33333325"
       id="path230" /></g></svg>