<svg xmlns="http://www.w3.org/2000/svg" width="64" height="64"><rect width="60" height="60" x="2" y="2" rx="2" ry="2" style="fill:#34495e;fill-opacity:1;stroke:none"/><path d="M15 52.5a3.5 3.5 0 1 1-7 0 3.5 3.5 0 1 1 7 0" style="fill:#243342;fill-opacity:1;stroke:none" transform="matrix(2 0 0 2 -12 -52)"/><rect width="14" height="18.449" x="38.255" y="11.243" rx="0" ry="0" style="fill:#243342;fill-opacity:1;stroke:none" transform="rotate(45)"/><path d="M15 52.5a3.5 3.5 0 1 1-7 0 3.5 3.5 0 1 1 7 0" style="fill:#c0392b;fill-opacity:1;stroke:none" transform="translate(-5.429 -22)scale(1.42857)"/><path d="M52 32a20 20 0 1 1-40 0 20 20 0 1 1 40 0" style="fill:#243342;fill-opacity:1;stroke:none" transform="matrix(1.1 0 0 1.1 -3.2 -3.2)"/><path d="M48 32a16 16 0 1 1-32 0 16 16 0 1 1 32 0" style="fill:#151e27;fill-opacity:1;stroke:none"/><path d="M48 32a16 16 0 1 1-32 0 16 16 0 1 1 32 0" style="fill:#1c2834;fill-opacity:1;stroke:none" transform="translate(3 4)scale(.875)"/><path d="M48 32a16 16 0 1 1-32 0 16 16 0 1 1 32 0" style="fill:#151e27;fill-opacity:1;stroke:none" transform="matrix(.75 0 0 .75 6 8)"/><path d="M48 32a16 16 0 1 1-32 0 16 16 0 1 1 32 0" style="fill:#1c2834;fill-opacity:1;stroke:none" transform="translate(9 12)scale(.625)"/><path d="M-3 14c-.88.44-3.643.274-4.464-.268s-2.06-3.018-2-4C-9.405 8.75-7.88 6.44-7 6s3.643-.274 4.464.268 2.06 3.018 2 4C-.595 11.25-2.12 13.56-3 14" style="fill:#243342;fill-opacity:1;stroke:#243342;stroke-width:1.06099999;stroke-linecap:round;stroke-linejoin:round;stroke-miterlimit:4;stroke-opacity:1;stroke-dasharray:none" transform="rotate(-92.842 22.353 4.93)"/><path d="M29 36.56 21 38V26.36l8 1.186z" style="fill:#243342;stroke:#243342;stroke-width:1px;stroke-linecap:round;stroke-linejoin:round;stroke-opacity:1;fill-opacity:1"/><path d="M-3 14c-.4.2-4.09-.022-4.464-.268-.373-.246-2.027-3.554-2-4S-7.4 6.2-7 6s4.09.022 4.464.268c.373.246 2.027 3.554 2 4S-2.6 13.8-3 14" style="fill:#2c3e50;fill-opacity:1;stroke:#2c3e50;stroke-width:1.06099999;stroke-linecap:round;stroke-linejoin:round;stroke-miterlimit:4;stroke-opacity:1;stroke-dasharray:none" transform="rotate(-93.557 16.058 9.764)scale(1.3447)"/><path d="M52 32a20 20 0 1 1-40 0 20 20 0 1 1 40 0z" style="fill:none;stroke:#f39c12;stroke-opacity:1;stroke-width:1.025;stroke-miterlimit:4;stroke-dasharray:none" transform="translate(.78 .78)scale(.97561)"/></svg>