<svg xmlns="http://www.w3.org/2000/svg" id="png_Atari_-_7800.png_src_Atari_-_7800.svg" width="256" height="256" data-name="png/Atari - 7800.png, src/Atari - 7800.svg" version="1.1"><defs id="defs4"><style id="style2">.cls-1{fill:#c23824}.cls-1,.cls-2,.cls-7{fill-rule:evenodd}.cls-2{fill:#2c3e51}.cls-3,.cls-7{fill:#33495f}</style></defs><g id="g884" transform="translate(71.983 -4)"><g id="Shoulder_pads" data-name="Shoulder pads" transform="translate(0 8)"><path id="Rounded_Rectangle_4" d="m82.9 15.655 5.125.759a5.17 5.17 0 0 1 4.364 5.87L87.44 55.5a5.18 5.18 0 0 1-5.886 4.351l-5.125-.759a5.17 5.17 0 0 1-4.364-5.87l4.948-33.219a5.18 5.18 0 0 1 5.887-4.348" class="cls-1" data-name="Rounded Rectangle 4" style="fill:#c23824;fill-rule:evenodd" transform="translate(-72 -4)"/><path id="Rounded_Rectangle_4-2" d="m172.99 15.694-5.2.752a5.14 5.14 0 0 0-4.424 5.816l5.016 32.916a5.235 5.235 0 0 0 5.968 4.312l5.2-.752a5.14 5.14 0 0 0 4.424-5.816l-5.017-32.916a5.234 5.234 0 0 0-5.967-4.312" class="cls-1" data-name="Rounded Rectangle 4" style="fill:#c23824;fill-rule:evenodd" transform="translate(-72 -4)"/></g><g id="Body" transform="translate(0 8)"><path id="Rounded_Rectangle_1" d="M89.486 4H167.2a5.174 5.174 0 0 1 5.181 5.167l7.772 61.822-7.772 175.844A5.174 5.174 0 0 1 167.2 252H89.486a5.174 5.174 0 0 1-5.181-5.167L76.533 71.167l7.772-62A5.174 5.174 0 0 1 89.486 4" class="cls-2" data-name="Rounded Rectangle 1" style="fill:#2c3e51;fill-rule:evenodd" transform="translate(-72 -4)"/><rect id="Rounded_Rectangle_2" width="75.125" height="240.25" x="18.781" y="0" class="cls-3" data-name="Rounded Rectangle 2" rx="4" ry="4" style="fill:#33495f"/><path id="Rounded_Rectangle_3" d="M103.848 68.583h48.992a4 4 0 0 1 4 4v48.834a4 4 0 0 1-4 4h-48.992a4 4 0 0 1-4-4V72.583a4 4 0 0 1 4-4" class="cls-2" data-name="Rounded Rectangle 3" style="fill:#2c3e51;fill-rule:evenodd" transform="translate(-72 -4)"/><path id="Rounded_Rectangle_3-2" d="M103.848 68.583h48.992a4 4 0 0 1 4 4v48.834a4 4 0 0 1-4 4h-48.992a4 4 0 0 1-4-4V72.583a4 4 0 0 1 4-4" class="cls-2" data-name="Rounded Rectangle 3" style="fill:#2c3e51;fill-rule:evenodd" transform="translate(-72 -4)"/><path id="Rounded_Rectangle_3-3" d="M103.848 68.583h48.992a4 4 0 0 1 4 4v37.209a4 4 0 0 1-4 4h-48.992a4 4 0 0 1-4-4V72.583a4 4 0 0 1 4-4" class="cls-2" data-name="Rounded Rectangle 3" style="fill:#2c3e51;fill-rule:evenodd" transform="translate(-72 -4)"/><path id="Rounded_Rectangle_3-4" d="M103.848 68.583h48.992a4 4 0 0 1 4 4v37.209a4 4 0 0 1-4 4h-48.992a4 4 0 0 1-4-4V72.583a4 4 0 0 1 4-4" class="cls-2" data-name="Rounded Rectangle 3" style="fill:#2c3e51;fill-rule:evenodd" transform="translate(-72 -4)"/><path id="Rounded_Rectangle_3-5" d="M101.848 134.458h52.992a2 2 0 0 1 2 2V250a2 2 0 0 1-2 2h-52.992a2 2 0 0 1-2-2V136.458a2 2 0 0 1 2-2" data-name="Rounded Rectangle 3" style="fill:#95a5a6;fill-rule:evenodd" transform="translate(-72 -4)"/><path id="Rounded_Rectangle_3-6" d="M99.848 244.25h56.992V250a2 2 0 0 1-2 2h-52.992a2 2 0 0 1-2-2z" data-name="Rounded Rectangle 3" style="fill:#7f8c8d;fill-rule:evenodd" transform="translate(-72 -4)"/><path id="Rounded_Rectangle_3-7" d="M110.915 149.958h15.429a2 2 0 0 1 2 2v78.667a2 2 0 0 1-2 2h-15.429a2 2 0 0 1-2-2v-78.667a2 2 0 0 1 2-2" data-name="Rounded Rectangle 3" style="fill:#bdc3c7;fill-rule:evenodd" transform="translate(-72 -4)"/><path id="Coches" d="M146.183 117.667h.59a1 1 0 0 1 1 1v5.75a1 1 0 0 1-1 1h-.59a1 1 0 0 1-1-1v-5.75a1 1 0 0 1 1-1m-5.182 0h.591a1 1 0 0 1 1 1v5.75a1 1 0 0 1-1 1H141a1 1 0 0 1-1-1v-5.75a1 1 0 0 1 1-1zm-5.181 0h.591a1 1 0 0 1 1 1v5.75a1 1 0 0 1-1 1h-.591a1 1 0 0 1-1-1v-5.75a1 1 0 0 1 1-1m-5.181 0h.591a1 1 0 0 1 1 1v5.75a1 1 0 0 1-1 1h-.591a1 1 0 0 1-1-1v-5.75a1 1 0 0 1 1-1m-5.181 0h.591a1 1 0 0 1 1 1v5.75a1 1 0 0 1-1 1h-.591a1 1 0 0 1-1-1v-5.75a1 1 0 0 1 1-1m-5.181 0h.591a1 1 0 0 1 1 1v5.75a1 1 0 0 1-1 1h-.591a1 1 0 0 1-1-1v-5.75a1 1 0 0 1 1-1m-5.181 0h.591a1 1 0 0 1 1 1v5.75a1 1 0 0 1-1 1h-.587a1 1 0 0 1-1-1v-5.75a1 1 0 0 1 1-1zm-5.181 0h.591a1 1 0 0 1 1 1v5.75a1 1 0 0 1-1 1h-.591a1 1 0 0 1-1-1v-5.75a1 1 0 0 1 1-1" class="cls-7" style="fill:#33495f;fill-rule:evenodd" transform="translate(-72 -4)"/><path id="Coches-2" d="M146.183 68.583h.59a1 1 0 0 1 1 1v5.75a1 1 0 0 1-1 1h-.59a1 1 0 0 1-1-1v-5.75a1 1 0 0 1 1-1m-5.182 0h.591a1 1 0 0 1 1 1v5.75a1 1 0 0 1-1 1H141a1 1 0 0 1-1-1v-5.75a1 1 0 0 1 1-1zm-5.181 0h.591a1 1 0 0 1 1 1v5.75a1 1 0 0 1-1 1h-.591a1 1 0 0 1-1-1v-5.75a1 1 0 0 1 1-1m-5.181 0h.591a1 1 0 0 1 1 1v5.75a1 1 0 0 1-1 1h-.591a1 1 0 0 1-1-1v-5.75a1 1 0 0 1 1-1m-5.181 0h.591a1 1 0 0 1 1 1v5.75a1 1 0 0 1-1 1h-.591a1 1 0 0 1-1-1v-5.75a1 1 0 0 1 1-1m-5.181 0h.591a1 1 0 0 1 1 1v5.75a1 1 0 0 1-1 1h-.591a1 1 0 0 1-1-1v-5.75a1 1 0 0 1 1-1m-5.181 0h.591a1 1 0 0 1 1 1v5.75a1 1 0 0 1-1 1h-.587a1 1 0 0 1-1-1v-5.75a1 1 0 0 1 1-1zm-5.181 0h.591a1 1 0 0 1 1 1v5.75a1 1 0 0 1-1 1h-.591a1 1 0 0 1-1-1v-5.75a1 1 0 0 1 1-1" class="cls-7" data-name="Coches" style="fill:#33495f;fill-rule:evenodd" transform="translate(-72 -4)"/><path id="Coches-3" d="M100.848 13.042h54.992a1 1 0 0 1 1 1v.583a1 1 0 0 1-1 1h-54.992a1 1 0 0 1-1-1v-.583a1 1 0 0 1 1-1m0 5.167h54.992a1 1 0 0 1 1 1v.583a1 1 0 0 1-1 1h-54.992a1 1 0 0 1-1-1v-.584a1 1 0 0 1 1-1zm0 5.167h54.992a1 1 0 0 1 1 1v.583a1 1 0 0 1-1 1h-54.992a1 1 0 0 1-1-1v-.584a1 1 0 0 1 1-1zm0 5.167h54.992a1 1 0 0 1 1 1v.583a1 1 0 0 1-1 1h-54.992a1 1 0 0 1-1-1v-.584a1 1 0 0 1 1-1zm0 5.167h54.992a1 1 0 0 1 1 1v.583a1 1 0 0 1-1 1h-54.992a1 1 0 0 1-1-1v-.585a1 1 0 0 1 1-1zm0 5.167h54.992a1 1 0 0 1 1 1v.583a1 1 0 0 1-1 1h-54.992a1 1 0 0 1-1-1v-.585a1 1 0 0 1 1-1zm0 5.167h54.992a1 1 0 0 1 1 1v.583a1 1 0 0 1-1 1h-54.992a1 1 0 0 1-1-1v-.585a1 1 0 0 1 1-1zm0 5.167h54.992a1 1 0 0 1 1 1v.583a1 1 0 0 1-1 1h-54.992a1 1 0 0 1-1-1v-.586a1 1 0 0 1 1-1z" data-name="Coches" style="fill:#2b3e51;fill-rule:evenodd" transform="translate(-72 -4)"/><g id="Colors"><path id="path21" d="M140 149.958h5.182v20.667H140Z" style="fill:#1baf5d;fill-rule:evenodd" transform="translate(-72 -4)"/><path id="path23" d="M140 170.625h5.182v20.667H140Z" style="fill:#227fbb;fill-rule:evenodd" transform="translate(-72 -4)"/><path id="path25" d="M140 191.292h5.182v20.666H140Z" style="fill:#d55400;fill-rule:evenodd" transform="translate(-72 -4)"/><path id="path27" d="M140 211.958h5.182v20.667H140Z" style="fill:#f2c500;fill-rule:evenodd" transform="translate(-72 -4)"/></g></g><g id="Knob" transform="translate(0 8)"><path id="path31" d="M122.571 71.8a1.8 1.8 0 1 1-1.8 1.8 1.8 1.8 0 0 1 1.8-1.8m-4.771 4.761a1.8 1.8 0 1 1-1.8 1.8 1.8 1.8 0 0 1 1.8-1.8m-3.6 5.974a1.8 1.8 0 1 1-1.8 1.8 1.8 1.8 0 0 1 1.793-1.8zm45.991 2.3a1.8 1.8 0 1 1-1.271-2.19 1.8 1.8 0 0 1 1.264 2.193zM156.795 79a1.8 1.8 0 1 1-1.271-2.19 1.8 1.8 0 0 1 1.271 2.19m-4.856-5a1.8 1.8 0 1 1-1.271-2.19 1.8 1.8 0 0 1 1.271 2.19m-1.823 37.114a1.777 1.777 0 1 1-1.821 1.776 1.8 1.8 0 0 1 1.821-1.777zm4.8-4.722a1.756 1.756 0 1 1-1.8 1.755 1.78 1.78 0 0 1 1.797-1.756zm3.6-5.894a1.776 1.776 0 1 1-1.8 1.776 1.79 1.79 0 0 1 1.799-1.774zm-44.868 1.252a1.8 1.8 0 0 1 2.2-1.252 1.766 1.766 0 0 1 1.273 2.168 1.8 1.8 0 0 1-2.2 1.252 1.767 1.767 0 0 1-1.274-2.169zm3.394 5.781a1.8 1.8 0 0 1 2.2-1.252 1.767 1.767 0 0 1 1.272 2.168 1.8 1.8 0 0 1-2.2 1.251 1.767 1.767 0 0 1-1.273-2.168zm4.864 4.946a1.8 1.8 0 0 1 2.2-1.252 1.767 1.767 0 0 1 1.273 2.168 1.8 1.8 0 0 1-2.2 1.252 1.766 1.766 0 0 1-1.274-2.169zm15.056-43.059a23.25 23.25 0 1 1-23.355 23.25 23.3 23.3 0 0 1 23.354-23.251z" style="opacity:.5;fill:#213142;fill-rule:evenodd" transform="translate(-72 -4)"/><path id="Rayures_joystick" d="M119.515 60.375a1.938 1.938 0 1 1-1.943 1.938 1.94 1.94 0 0 1 1.943-1.938m-5.181 5.167a1.938 1.938 0 1 1-1.943 1.938 1.94 1.94 0 0 1 1.943-1.938M110.449 72a1.938 1.938 0 1 1-1.943 1.938A1.94 1.94 0 0 1 110.449 72" class="cls-2" data-name="Rayures joystick" style="fill:#2c3e51;fill-rule:evenodd" transform="translate(-72 -4)"/><path id="Rayures_joystick-2" d="M160.173 74.5a1.942 1.942 0 1 1-1.374-2.373 1.943 1.943 0 0 1 1.374 2.373m-3.663-6.33a1.943 1.943 0 1 1-1.374-2.373 1.944 1.944 0 0 1 1.374 2.373m-5.25-5.414a1.943 1.943 0 1 1-1.374-2.373 1.944 1.944 0 0 1 1.374 2.372z" class="cls-2" data-name="Rayures joystick" style="fill:#2c3e51;fill-rule:evenodd" transform="translate(-72 -4)"/><path id="Rayures_joystick-3" d="M149.286 102.96a1.918 1.918 0 1 1-1.963 1.917 1.94 1.94 0 0 1 1.963-1.917m5.2-5.127a1.918 1.918 0 1 1-1.943 1.917 1.93 1.93 0 0 1 1.945-1.917zm3.885-6.378a1.918 1.918 0 1 1-1.943 1.917 1.93 1.93 0 0 1 1.945-1.916z" class="cls-2" data-name="Rayures joystick" style="fill:#2c3e51;fill-rule:evenodd" transform="translate(-72 -4)"/><path id="Rayures_joystick-4" d="M109.863 92.818a1.95 1.95 0 0 1 2.383-1.356 1.915 1.915 0 0 1 1.376 2.349 1.95 1.95 0 0 1-2.383 1.356 1.915 1.915 0 0 1-1.376-2.349m3.669 6.263a1.95 1.95 0 0 1 2.383-1.356 1.913 1.913 0 0 1 1.376 2.348 1.95 1.95 0 0 1-2.383 1.356 1.915 1.915 0 0 1-1.376-2.348m5.258 5.358a1.95 1.95 0 0 1 2.384-1.356 1.916 1.916 0 0 1 1.376 2.349 1.95 1.95 0 0 1-2.384 1.356 1.915 1.915 0 0 1-1.376-2.349" class="cls-7" data-name="Rayures joystick" style="fill:#33495f;fill-rule:evenodd" transform="translate(-72 -4)"/><circle id="circle37" cx="63.062" cy="78.969" r="25.25" class="cls-3" style="fill:#33495f"/><circle id="circle39" cx="63.703" cy="78.328" r="22.015" style="fill:#2c3e51"/><circle id="circle41" cx="63.703" cy="78.328" r="16.828" class="cls-3" style="fill:#33495f"/></g></g></svg>