<?xml version="1.0" encoding="UTF-8" standalone="no"?>
<svg
   xmlns:dc="http://purl.org/dc/elements/1.1/"
   xmlns:cc="http://creativecommons.org/ns#"
   xmlns:rdf="http://www.w3.org/1999/02/22-rdf-syntax-ns#"
   xmlns:svg="http://www.w3.org/2000/svg"
   xmlns="http://www.w3.org/2000/svg"
   xmlns:sodipodi="http://sodipodi.sourceforge.net/DTD/sodipodi-0.dtd"
   xmlns:inkscape="http://www.inkscape.org/namespaces/inkscape"
   id="png_Coleco_-_ColecoVision.svg_src_Coleco_-_ColecoVision.svg"
   data-name="png/Coleco - ColecoVision.svg, src/Coleco - ColecoVision.svg"
   width="256"
   height="256"
   viewBox="0 0 256 256"
   version="1.1"
   sodipodi:docname="Coleco - ColecoVision.svg"
   inkscape:version="0.92.3 (2405546, 2018-03-11)">
  <metadata
     id="metadata38">
    <rdf:RDF>
      <cc:Work
         rdf:about="">
        <dc:format>image/svg+xml</dc:format>
        <dc:type
           rdf:resource="http://purl.org/dc/dcmitype/StillImage" />
        <dc:title></dc:title>
      </cc:Work>
    </rdf:RDF>
  </metadata>
  <sodipodi:namedview
     pagecolor="#ffffff"
     bordercolor="#666666"
     borderopacity="1"
     objecttolerance="10"
     gridtolerance="10"
     guidetolerance="10"
     inkscape:pageopacity="0"
     inkscape:pageshadow="2"
     inkscape:window-width="1024"
     inkscape:window-height="705"
     id="namedview36"
     showgrid="false"
     inkscape:zoom="0.9516129"
     inkscape:cx="55"
     inkscape:cy="124"
     inkscape:window-x="-8"
     inkscape:window-y="-8"
     inkscape:window-maximized="1"
     inkscape:current-layer="png_Coleco_-_ColecoVision.svg_src_Coleco_-_ColecoVision.svg" />
  <defs
     id="defs4">
    <style
       id="style2">
      .cls-1 {
        fill: #2c3e51;
      }

      .cls-1, .cls-2, .cls-3, .cls-6, .cls-7, .cls-8 {
        fill-rule: evenodd;
      }

      .cls-2 {
        fill: #33495f;
      }

      .cls-3 {
        fill: #95a5a6;
      }

      .cls-4 {
        fill: #bdc3c7;
      }

      .cls-5 {
        fill: #25374a;
      }

      .cls-6 {
        fill: #bdc3c8;
      }

      .cls-7 {
        fill: #213142;
        opacity: 0.5;
      }

      .cls-8 {
        fill: #405873;
      }
    </style>
  </defs>
  <g
     id="g868"
     transform="translate(72.9995,-4)">
    <g
       transform="translate(0,8)"
       id="Body">
      <path
         style="fill:#2c3e51;fill-rule:evenodd"
         inkscape:connector-curvature="0"
         transform="translate(-72,-4)"
         d="m 77.171,4 h 99.659 a 5.172,5.172 0 0 1 5.178,5.167 V 246.833 A 5.172,5.172 0 0 1 176.83,252 H 77.171 a 5.172,5.172 0 0 1 -5.178,-5.167 V 9.167 A 5.172,5.172 0 0 1 77.171,4 Z"
         class="cls-1"
         data-name="Rounded Rectangle 1"
         id="Rounded_Rectangle_1" />
      <path
         style="fill:#33495f;fill-rule:evenodd"
         inkscape:connector-curvature="0"
         transform="translate(-72,-4)"
         d="m 81.781,4 h 90.126 a 4,4 0 0 1 4,4 v 69.445 l -8,4.444 v 19.668 l 8,4.8 V 240.25 a 4,4 0 0 1 -4,4 H 81.781 a 4,4 0 0 1 -4,-4 V 107.183 l 8,-4.924 V 81.814 l -8,-4.631 V 8 a 4,4 0 0 1 4,-4 z"
         class="cls-2"
         data-name="Rounded Rectangle 2"
         id="Rounded_Rectangle_2" />
      <path
         style="fill:#95a5a6;fill-rule:evenodd"
         inkscape:connector-curvature="0"
         id="path8"
         transform="translate(-72,-4)"
         d="m 72,82 h 10 a 2,2 0 0 1 2,2 v 16 a 2,2 0 0 1 -2,2 H 72 Z m 100,0 h 10 v 20 h -10 a 2,2 0 0 1 -2,-2 V 84 a 2,2 0 0 1 2,-2 z"
         class="cls-3" />
      <g
         id="Pad">
        <rect
           style="fill:#bdc3c7"
           ry="4"
           rx="4"
           height="26"
           width="26"
           y="110"
           x="42"
           class="cls-4"
           data-name="Rounded Rectangle 11"
           id="Rounded_Rectangle_11" />
        <rect
           style="fill:#bdc3c7"
           ry="4"
           rx="4"
           height="26"
           width="26"
           y="110"
           x="8"
           class="cls-4"
           data-name="Rounded Rectangle 11"
           id="Rounded_Rectangle_11-2" />
        <rect
           style="fill:#bdc3c7"
           ry="4"
           rx="4"
           height="26"
           width="26"
           y="110"
           x="76"
           class="cls-4"
           data-name="Rounded Rectangle 11"
           id="Rounded_Rectangle_11-3" />
        <rect
           style="fill:#bdc3c7"
           ry="4"
           rx="4"
           height="26"
           width="26"
           y="144"
           x="42"
           class="cls-4"
           data-name="Rounded Rectangle 11"
           id="Rounded_Rectangle_11-4" />
        <rect
           style="fill:#bdc3c7"
           ry="4"
           rx="4"
           height="26"
           width="26"
           y="144"
           x="8"
           class="cls-4"
           data-name="Rounded Rectangle 11"
           id="Rounded_Rectangle_11-5" />
        <rect
           style="fill:#bdc3c7"
           ry="4"
           rx="4"
           height="26"
           width="26"
           y="144"
           x="76"
           class="cls-4"
           data-name="Rounded Rectangle 11"
           id="Rounded_Rectangle_11-6" />
        <rect
           style="fill:#bdc3c7"
           ry="4"
           rx="4"
           height="26"
           width="26"
           y="178"
           x="42"
           class="cls-4"
           data-name="Rounded Rectangle 11"
           id="Rounded_Rectangle_11-7" />
        <rect
           style="fill:#bdc3c7"
           ry="4"
           rx="4"
           height="26"
           width="26"
           y="178"
           x="8"
           class="cls-4"
           data-name="Rounded Rectangle 11"
           id="Rounded_Rectangle_11-8" />
        <rect
           style="fill:#bdc3c7"
           ry="4"
           rx="4"
           height="26"
           width="26"
           y="178"
           x="76"
           class="cls-4"
           data-name="Rounded Rectangle 11"
           id="Rounded_Rectangle_11-9" />
        <rect
           style="fill:#bdc3c7"
           ry="4"
           rx="4"
           height="26"
           width="26"
           y="212"
           x="42"
           class="cls-4"
           data-name="Rounded Rectangle 11"
           id="Rounded_Rectangle_11-10" />
        <rect
           style="fill:#25374a"
           ry="4"
           rx="4"
           height="26"
           width="26"
           y="212"
           x="8"
           class="cls-5"
           data-name="Rounded Rectangle 11"
           id="Rounded_Rectangle_11-11" />
        <rect
           style="fill:#25374a"
           ry="4"
           rx="4"
           height="26"
           width="26"
           y="212"
           x="76"
           class="cls-5"
           data-name="Rounded Rectangle 11"
           id="Rounded_Rectangle_11-12" />
      </g>
      <path
         style="fill:#bdc3c8;fill-rule:evenodd"
         inkscape:connector-curvature="0"
         id="path23"
         transform="translate(-72,-4)"
         d="m 72,82 h 6 v 20 h -6 z m 104,0 h 6 v 20 h -6 z"
         class="cls-6" />
    </g>
    <g
       transform="translate(0,8)"
       id="Knob">
      <path
         style="opacity:0.5;fill:#213142;fill-rule:evenodd"
         inkscape:connector-curvature="0"
         id="path26"
         transform="translate(-72,-4)"
         d="M 130.546,25.136 C 147.917,25.136 162,38.985 162,56.068 162,73.151 147.917,87 130.546,87 113.175,87 99.092,73.151 99.092,56.068 c 0,-17.083 14.082,-30.932 31.454,-30.932 z"
         class="cls-7" />
      <path
         style="fill:#405873;fill-rule:evenodd"
         inkscape:connector-curvature="0"
         id="path28"
         transform="translate(-72,-4)"
         d="m 128,11 c 18.778,0 34,15 34,33.51 0,18.51 -15.222,33.51 -34,33.51 -18.778,0 -34,-15 -34,-33.51 C 94,26 109.222,11 128,11 Z"
         class="cls-8" />
      <path
         style="fill:#2c3e51;fill-rule:evenodd"
         inkscape:connector-curvature="0"
         id="path30"
         transform="translate(-72,-4)"
         d="M 127.916,13.952 A 31.932,31.932 0 1 1 95.6,45.882 32.125,32.125 0 0 1 127.916,13.952 Z"
         class="cls-1" />
      <circle
         style="fill:#bdc3c7"
         id="circle32"
         r="27"
         cy="41"
         cx="56"
         class="cls-4" />
    </g>
  </g>
</svg>
