<svg xmlns="http://www.w3.org/2000/svg" xml:space="preserve" width="64" height="64"><g transform="matrix(2 0 0 2 -32 -32)"><path d="M31.898 20.945c6.931.126 13.876 4.38 16.33 10.993-2.073 5.45-7.233 9.253-12.773 10.65a14.2 14.2 0 0 1-3.557.555 14.2 14.2 0 0 1-3.556-.555c-5.54-1.397-10.7-5.2-12.774-10.65 2.455-6.613 9.4-10.867 16.33-10.993Z" style="clip-rule:evenodd;fill:#ecf0f1;fill-opacity:1;fill-rule:evenodd;stroke:#2c3e50;stroke-width:2;stroke-miterlimit:4;stroke-dasharray:none;stroke-opacity:1;image-rendering:optimizeQuality;shape-rendering:geometricPrecision;text-rendering:geometricPrecision" transform="matrix(.5 0 0 .5 16 16)"/><circle cx="32" cy="32" r="4.116" style="opacity:1;vector-effect:none;fill:#27ae60;fill-opacity:1;stroke:#2c3e50;stroke-width:3;stroke-linecap:butt;stroke-linejoin:miter;stroke-miterlimit:4;stroke-dasharray:none;stroke-dashoffset:0;stroke-opacity:1;paint-order:stroke fill markers"/><path d="M31.555 19.252C23.618 19.247 15.77 25.062 14.246 33c3.292 6.626 10.286 11.202 17.652 11.68 7.367-.478 14.36-5.054 17.653-11.68-1.525-7.939-9.373-13.753-17.309-13.748-.114 0-.229.015-.344.018-.114-.003-.229-.018-.343-.018zm.343 1.693c6.931.126 13.876 4.38 16.33 10.993-2.073 5.45-7.233 9.253-12.773 10.65a14.2 14.2 0 0 1-3.557.555 14.2 14.2 0 0 1-3.556-.555c-5.54-1.397-10.7-5.2-12.774-10.65 2.455-6.613 9.4-10.867 16.33-10.993z" style="clip-rule:evenodd;fill:#ecf0f1;fill-opacity:1;fill-rule:evenodd;stroke:#2c3e50;stroke-width:2;stroke-miterlimit:4;stroke-dasharray:none;stroke-opacity:1;image-rendering:optimizeQuality;shape-rendering:geometricPrecision;text-rendering:geometricPrecision" transform="matrix(.5 0 0 .5 16 16)"/><ellipse cx="32.025" cy="31.968" class="fil1" rx="1.962" ry="1.938" style="clip-rule:evenodd;fill:#2c3e50;fill-rule:evenodd;stroke-width:.5;image-rendering:optimizeQuality;shape-rendering:geometricPrecision;text-rendering:geometricPrecision;fill-opacity:1"/></g></svg>