<?xml version="1.0" encoding="utf-8"?>
<!-- Generator: Adobe Illustrator 24.1.1, SVG Export Plug-In . SVG Version: 6.00 Build 0)  -->
<svg version="1.1" id="Layer_1" xmlns="http://www.w3.org/2000/svg" xmlns:xlink="http://www.w3.org/1999/xlink" x="0px" y="0px"
	 viewBox="0 0 64 64" style="enable-background:new 0 0 64 64;" xml:space="preserve">
<style type="text/css">
	.st0{fill:#8AA2B3;}
	.st1{fill:#D97811;}
	.st2{fill:#F39C12;}
	.st3{fill:#1D6EA1;}
	.st4{fill:#807B7B;}
	.st5{fill:none;stroke:#6E4B3A;stroke-width:0.3;stroke-linejoin:round;stroke-miterlimit:10;}
	.st6{fill:none;stroke:#475B6F;stroke-width:0.3;stroke-linejoin:round;stroke-miterlimit:10;}
	.st7{fill:none;stroke:#33495F;stroke-width:0.3;stroke-linejoin:round;stroke-miterlimit:10;}
	.st8{fill:none;stroke:#33495F;stroke-miterlimit:10;}
	.st9{fill:none;stroke:#33495F;stroke-linejoin:round;stroke-miterlimit:10;}
</style>
<g id="FILLS_1_">
	<polygon class="st0" points="17,17.4 17,29.1 21.7,29.1 21.8,19.4 25,19.4 25,29.8 29.8,29.8 29.8,17.4 	"/>
	<polygon class="st0" points="7.8,23.1 6.1,19 4.7,20.4 3.2,20.4 3.2,37.9 4.7,36.4 4.7,34.4 7.9,34.4 	"/>
	<polygon class="st1" points="29.8,29.8 29.8,34.8 25,34 25,29.8 	"/>
	<polygon class="st1" points="49.8,40.8 49.8,27 46,28.3 46,35.6 47.8,35.6 47.7,39.3 	"/>
	<polygon class="st2" points="45.2,37.6 45.9,36.7 45.9,35.6 47.8,35.6 47.7,39.3 	"/>
	<polygon class="st3" points="31.6,19 31.6,16 33.3,14.4 42.5,14.4 44.5,15.9 44.5,16.3 32.9,19 	"/>
	<path class="st0" d="M60.6,20.6h-7.3l-2.9-2.4h-2.7l-1.7-2v12h1.4l2.4-1.3l1,4.4l4.8-1l0.3-1.1l0.3,6.7h4.4V20.6z M51.7,23.9
		L51.7,23.9L51.7,23.9L51.7,23.9z"/>
	<polygon class="st2" points="44.4,35.5 44.4,36.3 37.9,41.4 31.6,36.2 31.6,35.5 41,35.5 	"/>
	<polygon class="st2" points="29.8,36.3 23.6,41.5 17,36.3 17,31.4 21.8,31.4 21.8,32.7 25,35.3 25,33 28.1,33 29.8,34.8 	"/>
	<polygon class="st3" points="45.2,14.4 51.5,14.4 53.3,20.6 53.3,20.9 51.2,20.9 50.4,22 50.4,18.3 47.7,18.3 45.9,16 	"/>
	<polygon class="st3" points="53.3,20.6 55,14.4 61.8,14.4 60.6,15.5 60.6,20.6 	"/>
	<path class="st1" d="M11.2,31.2L11,32.8l-3.2,2.5v-0.9H4.7v1.9l-1.5,1.5c0,0,0,6.8,0,8.1c0,1.3-0.4,2.3-0.4,2.3l9.3-7.3l3.5-4.2
		v-5.6h-4.4V31.2z"/>
	<polygon class="st3" points="15.6,15.9 13.4,14.4 2,14.4 3.2,15.6 3.2,20.4 4.7,20.4 5.9,19.1 5.9,23.1 7.8,23.1 7.8,19.4 
		11.1,19.4 11.2,22.5 13.9,19.8 15.6,19.8 	"/>
	<polygon class="st3" points="19,14.4 28.3,14.4 29.8,15.9 29.8,19.5 25.8,19.5 24.7,18.8 24.7,18.3 25.3,17.6 20.4,17.6 20.4,19.2 
		17,19.2 17,15.9 	"/>
	<polygon class="st1" points="54,29.5 54,28.7 53.3,28.7 52.7,28.7 51.7,30 50.5,30 52.7,40.2 52.7,40.2 52.9,41.7 55.9,30.3 	"/>
	<path class="st4" d="M31.4,25.5h1c0,0,0.5,0.2,0.5,0.9s0,4.3,0,4.3s0,0.5-0.5,0.5s-0.9,0-0.9,0L31.4,25.5L31.4,25.5z"/>
	<polygon class="st1" points="17,29.1 17,33.5 19.7,33.5 19.7,34.6 18,34.6 20.8,36.8 20.8,32.3 21.7,32.3 21.7,29.1 	"/>
	<polygon class="st2" points="16.4,37.6 12.1,40.9 12.1,36.8 15.6,36.8 	"/>
	<polygon class="st0" points="44.4,16.3 35.7,16.3 32.9,19 31.6,19 31.7,31.7 34.7,32.8 36.3,32.8 36.3,19.4 39.7,19.4 39.7,30.7 
		44.5,30.7 	"/>
	<polygon class="st0" points="15.6,19.8 13.9,19.8 11.1,22.5 11.2,31.2 15.6,31.2 	"/>
	<path class="st1" d="M60.5,46.9c0-1.4,0-11.4,0-11.4h-3c0,0,0.3-0.3,0.3-0.6c0-0.2,0-1.1,0-1.9c0-0.5-0.6-0.7-0.6-0.7h-1.3
		c0,0,0,11.6,0,12S55.3,45,55.3,45l6,4.8C61.3,49.8,60.5,48.3,60.5,46.9z"/>
	<polygon class="st1" points="30.8,38.4 34.2,41.2 34.2,43.5 32.8,44.5 34.2,45.7 34.2,48.1 30.8,50.7 27.2,48 27.2,47 29.1,45.3 
		29.1,46.3 30.5,47.5 31.7,46.6 30.3,45.2 30.3,44 31.7,42.4 30.5,41.5 29.1,42.7 29.1,43.9 27.2,42.5 27.2,41.4 	"/>
	<path class="st1" d="M39.7,30.7v2l-3.3,2.7v-2.5h-1.6v-3H33c0,1.1,0.2,1.5-1.2,1.5v4.5h3.3l1.7,2.4h1.9l2.6-2.6h3.5v-4.8h-5.1V30.7
		z"/>
</g>
<g id="LINES">
	<line class="st5" x1="28.1" y1="33" x2="25" y2="33"/>
	<line class="st6" x1="52.7" y1="28.7" x2="52.7" y2="26.7"/>
	<line class="st6" x1="5.9" y1="21.1" x2="3.2" y2="21.1"/>
	<line class="st6" x1="5.9" y1="20.4" x2="3.4" y2="20.4"/>
	<polyline class="st6" points="49.2,23.8 51.7,23.8 51.7,26.7 	"/>
	<polyline class="st6" points="50.2,28.5 51.7,26.7 53.3,26.7 	"/>
	<polyline class="st6" points="3.2,31.2 4.7,32.8 4.7,34.4 	"/>
	<polyline class="st6" points="50.4,23.1 49.2,23.1 49.2,23.8 	"/>
	<polyline class="st6" points="60.5,31.4 57,27.9 57,25 	"/>
	<polyline class="st7" points="55.7,20.6 56.4,19.9 60.5,19.9 	"/>
	<polyline class="st7" points="51.2,14.4 51.2,19.6 50.4,19.9 	"/>
	<polyline class="st7" points="51.2,18.3 47.7,18.3 46.1,16.3 	"/>
	<path class="st5" d="M60.5,36.8h-2.6c0,0-0.8,0-0.8,0.8s0,1.6,0,1.6h-1"/>
	<polyline class="st5" points="46,35.5 49.1,35.5 49.1,32.7 46,32.7 	"/>
	<path class="st5" d="M47,32.7c0,0,0.6-0.3,0.6-0.8s0-1.8,0-1.8L45.9,29"/>
	<line class="st5" x1="47.7" y1="35.5" x2="47.7" y2="39.3"/>
	<line class="st7" x1="50.4" y1="18.3" x2="50.4" y2="19.9"/>
	<polyline class="st6" points="52.9,22.7 49.8,22.7 49.8,22.4 48.6,22.4 	"/>
	<line class="st6" x1="47.1" y1="21.1" x2="46" y2="21.1"/>
	<polyline class="st7" points="56.4,19.9 58.3,18.1 60.5,18.1 	"/>
	<line class="st7" x1="57.3" y1="19" x2="60.5" y2="19"/>
	<path class="st7" d="M60.5,17.1h-3.8c0,0-1.1,0.9-1.1,2.8h-2"/>
	<polygon class="st6" points="53.3,20.9 51.2,20.9 50.4,21.8 53.3,21.8 	"/>
	<line class="st7" x1="47.7" y1="17.1" x2="45.9" y2="15"/>
	<line class="st5" x1="52.7" y1="40" x2="52.7" y2="28.7"/>
	<polyline class="st6" points="53.3,27.7 53.3,25 60.5,25 	"/>
	<polyline class="st6" points="55.5,30.1 54,29.5 54,25.9 	"/>
	<line class="st5" x1="48.6" y1="27.6" x2="49" y2="28.5"/>
	<polyline class="st6" points="39.8,20.6 41.9,22.7 41.9,26.1 39.7,28.2 	"/>
	<polyline class="st7" points="31.8,19 32.9,19 35.7,16.3 44.4,16.3 	"/>
	<path class="st6" d="M44.4,18.4h-1.8c0,0-0.3,0-0.3,0.4s0,0.5,0,0.5h2.1"/>
	<polyline class="st6" points="39.7,19.6 39.7,18.4 41.8,18.4 41.8,21.6 44.4,21.6 	"/>
	<path class="st6" d="M41.1,21.1c0,0,0.7,0,0.7-0.7"/>
	<path class="st6" d="M41.8,27.5V30c0,0,0,0.6,0.5,0.6"/>
	<line class="st5" x1="39.7" y1="30.7" x2="44.4" y2="30.7"/>
	<polyline class="st5" points="44.4,35.5 41,35.5 38.4,38.1 33.8,38.1 	"/>
	<path class="st6" d="M31.9,22c0,0,0.4,0,0.4,0.4s0,1.4,0,1.4h0.5"/>
	<polyline class="st6" points="33.5,24 33.5,24.6 32.5,25.6 	"/>
	<path class="st6" d="M32.9,29.8c0,0,0-2.6,0-3.5c0-0.8-1-0.8-1-0.8h-0.5"/>
	<polyline class="st5" points="31.7,31.8 33.7,33.8 34.7,33.8 35,34.2 36.2,34.2 	"/>
	<polyline class="st6" points="34.7,29.8 34.7,26.4 34.2,26.4 34.2,24.5 	"/>
	<path class="st6" d="M33.5,24.6c0,0,0.4,0,0.8,0c0.4,0,2-1.5,2-1.5"/>
	<line class="st6" x1="36.3" y1="21.1" x2="33.4" y2="23.4"/>
	<path class="st6" d="M33.3,20.4c0.1,0,3-2.7,3-2.7h7.3"/>
	<line class="st6" x1="37.5" y1="17.1" x2="37.5" y2="18.1"/>
	<line class="st5" x1="29.8" y1="34.8" x2="25" y2="29.8"/>
	<line class="st5" x1="27" y1="30.7" x2="28.4" y2="32"/>
	<line class="st5" x1="29.8" y1="29.8" x2="25" y2="29.8"/>
	<polyline class="st6" points="25.1,27.9 28.4,27.9 28.4,26.5 28.1,26.5 28.1,23.8 	"/>
	<polyline class="st6" points="26.9,26.3 27.5,26.5 27.5,25.6 	"/>
	<polyline class="st6" points="29.8,20.4 28.7,20.4 28.7,23.8 25.1,23.8 	"/>
	<polyline class="st7" points="23.9,14.6 20.4,17.6 20.4,16.5 22.3,14.6 	"/>
	<rect x="19" y="17.4" class="st7" width="0.7" height="1.4"/>
	<line class="st7" x1="17" y1="18.7" x2="19.1" y2="18.7"/>
	<line class="st7" x1="19.1" y1="17.4" x2="17" y2="17.4"/>
	<line class="st7" x1="19.2" y1="16.8" x2="21.4" y2="14.6"/>
	<line class="st7" x1="20.4" y1="19.2" x2="17.1" y2="19.2"/>
	<line class="st6" x1="20.4" y1="21.1" x2="17" y2="21.1"/>
	<line class="st6" x1="17.1" y1="21.7" x2="19.9" y2="21.7"/>
	<polyline class="st6" points="21.7,23.1 17.7,23.1 19.2,24.3 	"/>
	<line class="st6" x1="21.7" y1="23.8" x2="18.6" y2="23.8"/>
	<polyline class="st6" points="21.7,24.9 18.3,24.9 17,24 	"/>
	<polyline class="st6" points="21.7,26.8 17.6,26.8 17.6,27.5 18.1,27.5 	"/>
	<line class="st5" x1="21.7" y1="29.1" x2="17" y2="29.1"/>
	<polyline class="st6" points="21,27.7 21,28.3 20.3,28.3 	"/>
	<line class="st5" x1="21.7" y1="31.4" x2="17" y2="31.4"/>
	<rect x="20.8" y="35.5" class="st5" width="3.4" height="1.2"/>
	<polyline class="st5" points="17,33.5 18.3,33.5 19.7,33.5 19.7,34.8 19.7,35.2 	"/>
	<polyline class="st5" points="20.8,35.5 20.8,32.3 21.7,32.3 	"/>
	<polyline class="st5" points="20.8,36.8 18,34.5 19.7,34.5 	"/>
	<polygon class="st5" points="4.2,39.8 7.9,36.2 7.9,38.1 5.5,40.5 5.5,42.9 4.2,42.9 	"/>
	<line class="st5" x1="8.1" y1="39" x2="7" y2="40.2"/>
	<line class="st5" x1="8.4" y1="43.7" x2="3.2" y2="43.7"/>
	<polyline class="st5" points="12.1,40.8 12.1,32.8 11.1,32.8 	"/>
	<line class="st5" x1="11.8" y1="32.8" x2="11.8" y2="31.2"/>
	<line class="st5" x1="11.1" y1="31.2" x2="15.6" y2="31.2"/>
	<path class="st5" d="M15.6,34.4c0,0-0.2-0.9-0.8-0.9s-2.6,0-2.6,0"/>
	<polyline class="st5" points="14.8,33.5 14.8,32.6 15.6,32.6 	"/>
	<path class="st5" d="M13.1,33.4v-1.3c0,0-0.4-0.9-1.3-0.9"/>
	<polyline class="st5" points="13.1,33.5 13.1,32.8 14,31.9 15.6,31.9 	"/>
	<polyline class="st6" points="15.6,27 13.1,27 11.2,29 	"/>
	<line class="st6" x1="13.4" y1="28" x2="12.6" y2="28.8"/>
	<line class="st6" x1="15.6" y1="25.6" x2="14.1" y2="24.1"/>
	<polyline class="st6" points="15.6,24.8 14.2,23.4 11.2,26.4 	"/>
	<polyline class="st6" points="11.2,25.3 14.4,22 15.6,22 	"/>
	<polyline class="st6" points="15.6,22.9 14.6,22.9 14.2,23.4 	"/>
	<polyline class="st6" points="15.6,26.4 13.3,26.4 13.3,25.9 14.6,24.5 	"/>
	<polyline class="st6" points="15.6,19.8 13.9,19.8 11.2,22.5 	"/>
	<polyline class="st7" points="15.6,16.2 8.8,16.2 8.8,18.5 11.8,18.5 12.5,19.3 15.6,19.3 	"/>
	<line class="st7" x1="14.2" y1="18.4" x2="15.6" y2="18.4"/>
	<line class="st7" x1="9.8" y1="17" x2="9.8" y2="18.5"/>
	<polyline class="st7" points="8.8,17.6 5.9,17.6 5.9,23.1 	"/>
	<line class="st6" x1="7.8" y1="23.1" x2="3.2" y2="23.1"/>
	<line class="st6" x1="7.8" y1="25.5" x2="3.2" y2="25.5"/>
	<polyline class="st6" points="3.2,26.2 5.7,26.2 5.7,28.4 7.8,30.6 	"/>
	<line class="st6" x1="4.9" y1="27" x2="4" y2="27"/>
	<line class="st6" x1="5.4" y1="33.4" x2="5.4" y2="34"/>
	<line class="st7" x1="5.9" y1="18.4" x2="3.4" y2="18.4"/>
	<polyline class="st7" points="5.9,19.2 4.7,20.4 3.2,20.4 	"/>
	<line class="st7" x1="8.4" y1="17.6" x2="5.4" y2="14.6"/>
	<line class="st7" x1="9.8" y1="16.2" x2="8.1" y2="14.5"/>
	<line class="st6" x1="60.5" y1="20.6" x2="53.3" y2="20.6"/>
	<line class="st7" x1="49.7" y1="19.2" x2="49.7" y2="19.4"/>
	<line class="st7" x1="34.2" y1="16.5" x2="33.1" y2="17.6"/>
	<polyline class="st6" points="27.5,21.7 27.5,20.2 25.8,20.2 25.8,21.6 	"/>
	<polyline class="st6" points="28.7,22.4 27.7,22.4 27.7,23.1 	"/>
	<line class="st6" x1="26" y1="22.4" x2="27.7" y2="22.4"/>
	<line class="st7" x1="25.3" y1="17.6" x2="22.9" y2="17.6"/>
	<polyline class="st7" points="27,16.5 26.1,15.7 22.5,15.7 	"/>
	<line class="st7" x1="28.3" y1="16.5" x2="28.3" y2="14.8"/>
	<line class="st7" x1="29.8" y1="17" x2="28.5" y2="17"/>
	<line class="st6" x1="29.8" y1="19.5" x2="28.5" y2="19.5"/>
	<polygon class="st7" points="25.8,19.5 24.7,18.8 24.7,18.3 26.3,16.5 28.5,16.5 28.5,19.5 	"/>
	<polyline class="st7" points="22.9,19.3 22.9,17.6 20.4,17.6 20.4,22.4 	"/>
	<polyline class="st6" points="46,19.9 50.4,19.9 50.4,22.7 	"/>
	<line class="st5" x1="24.2" y1="35.5" x2="24.2" y2="34.6"/>
	<polyline class="st6" points="46,23.8 49.8,23.8 49.8,27 	"/>
	<line class="st5" x1="55.9" y1="35.5" x2="60.5" y2="35.5"/>
	<polyline class="st5" points="49.8,27 47.4,28.3 46,28.3 	"/>
	<line class="st5" x1="12.2" y1="36.8" x2="15.5" y2="36.8"/>
	<polyline class="st5" points="3.2,37.9 4.7,36.4 4.7,34.4 7.8,34.4 	"/>
	<polyline class="st5" points="55.7,30.2 54,29.5 54,28.7 52.7,28.7 51.7,30 50.5,30 	"/>
	<path class="st5" d="M56.3,32.3H57c0.8,0,0.7,0.6,0.7,0.6v2c0,0,0,0.6-0.7,0.6"/>
	<polyline class="st5" points="31.6,35.8 34.9,35.8 36.5,38 	"/>
	<rect x="55.3" y="22.4" class="st6" width="2" height="0.7"/>
	<path class="st5" d="M31.4,31.2c0,0,0.4,0,0.9,0s0.5-0.5,0.5-0.5v-0.9h1.8v3h1.6"/>
	<polyline class="st5" points="42.1,33 41.4,33 41.4,31.8 	"/>
	<line class="st5" x1="58.9" y1="42.6" x2="58.9" y2="44.2"/>
</g>
<g id="OUTLINES">
	<g>
		<path class="st8" d="M29.7,16v20.2l-6.1,5l-6.4-5V16l1.8-1.4h9.2L29.7,16z M25.3,19.2h-3.7v13.6l3.7,2.9V19.2z"/>
	</g>
	<g>
		<path class="st8" d="M60.4,15.5c0,0,0,28.8,0,30.8s0.5,3,0.5,3L55.6,45l0.5-0.5V27.7l-3.1,13L49.8,26v14.5l-4.4-2.9l0.7-0.8V15.9
			l-0.6-1.3h5.9l1.9,6.8l1.9-6.8h6.1L60.4,15.5z"/>
	</g>
	<g>
		<path class="st8" d="M15.5,16v20.9l0.7,0.7l-13,10.3c0,0,0.3-0.7,0.3-1.3s0-31.1,0-31.1l-0.9-0.9h10.9L15.5,16z M11.4,32.8V19.2
			H7.7v16.5L11.4,32.8z"/>
	</g>
	<g>
		<path class="st8" d="M44.3,16v20.2l-6.4,5l-6.1-5V16l1.5-1.4h9.2L44.3,16z M39.9,32.8V19.2h-3.7v16.5L39.9,32.8z"/>
	</g>
	<polygon class="st9" points="30.8,38.4 34.2,41.2 34.2,43.5 32.8,44.5 34.2,45.7 34.2,48.1 30.8,50.7 27.2,48.1 27.2,47 29.1,45.3 
		29.1,46.3 30.5,47.5 31.7,46.6 30.3,45.2 30.3,44 31.7,42.4 30.5,41.5 29.1,42.7 29.1,43.9 27.2,42.5 27.2,41.2 	"/>
</g>
</svg>
