<?xml version="1.0" encoding="utf-8"?>
<!-- Generator: Adobe Illustrator 24.1.3, SVG Export Plug-In . SVG Version: 6.00 Build 0)  -->
<svg version="1.1" id="Layer_1" xmlns="http://www.w3.org/2000/svg" xmlns:xlink="http://www.w3.org/1999/xlink" x="0px" y="0px"
	 viewBox="0 0 256 256" style="enable-background:new 0 0 256 256;" xml:space="preserve">
<style type="text/css">
	.st0{fill:#496785;}
	.st1{fill:#F1D35C;}
	.st2{fill:#2C3E50;}
	.st3{fill:#2D5950;}
	.st4{fill:#16A085;}
	.st5{fill:#E0FCC0;}
	.st6{fill:#2D5948;}
	.st7{fill:#E67E22;}
</style>
<g id="Layer_1_1_">
</g>
<polygon class="st0" points="76,34.8 179.9,34.8 159.5,58 96,58 "/>
<path class="st1" d="M191.3,38.6c0,0,0-1.8,0-5.6s3.8-5.7,7-5.2c0,0,7.7,2.2,12.6,3.7c8.4,2.5,5.3,11.4,5.3,11.4L191.3,38.6z"/>
<path class="st2" d="M41.7,49.9l11.2,118.3l50.5,30c0,0,0,0,0-0.1h49.1c0,0.1,0,0.1,0,0.1l50.5-30l11.2-118.3H41.7z"/>
<path class="st1" d="M39.8,42.8c0,0-3.1-8.8,5.3-11.4c4.8-1.4,12.6-3.7,12.6-3.7c3.2-0.5,7,1.4,7,5.2s0,5.6,0,5.6L39.8,42.8z"/>
<polygon class="st3" points="108.6,49.9 113.8,43.7 128,39.7 142.3,43.7 147.4,49.9 149.1,66 106.5,66 "/>
<path class="st4" d="M128,24.3c0,0-14.3,0-14.3,10.7c0,6.3,0,8.2,0,8.7h28.6c0-0.5,0-2.4,0-8.7C142.3,24.3,128,24.3,128,24.3z"/>
<polygon class="st3" points="76.5,29.4 97.3,45.4 97.3,49.9 76.5,58 70.2,45.9 "/>
<g>
	<polygon class="st4" points="62.6,166.6 55.4,81.4 59.9,62 76.4,58 76.4,29.4 63.8,35.8 19.5,47.3 19.5,191.6 71.6,202.6 
		103.4,243.4 83.9,181.4 	"/>
</g>
<polygon class="st3" points="84.7,171.5 77.9,138 84.9,135.4 71.7,90.5 56,95 62.6,166.6 83.9,181.4 103.4,243.4 103.4,198.1 
	94.9,169.2 "/>
<path class="st0" d="M116.9,155.6c0,24.7-8.8,32.2-8.8,32.2s4.1-7.9,4.1-29.8s-19.3-25-19.3-25C92.8,133.1,116.9,130.9,116.9,155.6z
	"/>
<g>
	<ellipse class="st0" cx="53.3" cy="73.3" rx="14.8" ry="22.1"/>
	<ellipse class="st5" cx="47.4" cy="73.3" rx="8.8" ry="12.8"/>
	<ellipse class="st0" cx="44.7" cy="73.3" rx="4.1" ry="6"/>
</g>
<g>
	
		<ellipse transform="matrix(0.9801 -0.1987 0.1987 0.9801 -29.1299 19.2394)" class="st0" cx="81.3" cy="154.8" rx="14.4" ry="17.1"/>
	<ellipse transform="matrix(0.9801 -0.1987 0.1987 0.9801 -29.309 18.6357)" class="st5" cx="78.2" cy="155.4" rx="8.6" ry="12.5"/>
	<ellipse transform="matrix(0.9677 -0.2523 0.2523 0.9677 -36.7559 24.5013)" class="st0" cx="77.2" cy="155.6" rx="4" ry="5.8"/>
</g>
<g>
	
		<ellipse transform="matrix(0.9108 -0.4129 0.4129 0.9108 -36.3606 40.7302)" class="st0" cx="76.1" cy="104.5" rx="10.9" ry="14.6"/>
	<path class="st2" d="M82.4,105l-11.1,3.4c-0.8,0.2-1.6-0.2-2-0.9l-1-2.5c-0.4-0.9,0.1-1.9,1-2.1l11-3.6c0.8-0.3,1.7,0.1,2,0.9
		l1.1,2.7C83.8,103.7,83.3,104.7,82.4,105z"/>
</g>
<g>
	<ellipse transform="matrix(0.931 -0.3651 0.3651 0.931 -40.8509 39.0558)" class="st0" cx="82.9" cy="127.6" rx="6" ry="8.1"/>
	<ellipse transform="matrix(0.931 -0.3651 0.3651 0.931 -40.8509 39.0558)" class="st2" cx="82.9" cy="127.6" rx="3.3" ry="4.4"/>
</g>
<polygon class="st3" points="185.8,45.9 179.5,58 158.7,49.9 158.7,45.4 179.5,29.4 "/>
<g>
	<polygon class="st4" points="172.1,181.4 152.6,243.4 184.4,202.6 236.5,191.6 236.5,47.3 192.2,35.8 179.6,29.4 179.6,58 
		196.1,62 200.6,81.4 193.4,166.6 	"/>
</g>
<polygon class="st3" points="171.3,171.5 178.1,138 171.1,135.4 184.3,90.5 200,95 193.4,166.6 172.1,181.4 152.6,243.4 
	152.6,198.1 161.1,169.2 "/>
<g>
	<path class="st6" d="M166.2,99.1H89.8c0,0-0.3,1.5,1,10.8c0.8,5.5,7.3,9.6,10.9,9.3c2.3-0.2,2.4,1.7,5.1,6.4c2,3.4,7.8,3.6,8.8,5.8
		c2.7,6.2,12.4,6.5,12.4,6.5s9.7-0.3,12.4-6.5c1-2.2,6.8-2.4,8.8-5.8c2.7-4.7,2.8-6.6,5.1-6.4c3.6,0.3,10.1-3.8,10.9-9.3
		C166.5,100.6,166.2,99.1,166.2,99.1z"/>
	<path class="st5" d="M145.3,112l0-33.4h-34.6V112c0,0-0.2,6.6,1.7,8.4c1.3,1.3,5,2.7,6.3,3.6c3.2,2.2,4.3,6.4,9.3,6.4
		s6.1-4.2,9.3-6.4c1.3-0.9,5-2.3,6.3-3.6C145.5,118.6,145.3,112,145.3,112z"/>
	<path class="st1" d="M161.7,75.7c-4-4-9.8-7.3-11.2-8.6c-3.4-2.8-2.5-10.7-6.1-15.5c-3.6-4.8-10.2-10.5-10.2-10.5s1-2.7,1-4.6
		c0-1.9,0.5-4.3-7.2-4.3s-7.2,2.4-7.2,4.3c0,1.9,1,4.6,1,4.6s-6.6,5.7-10.2,10.5c-3.6,4.8-2.7,12.7-6.1,15.5
		c-1.4,1.3-7.2,4.6-11.2,8.6c-5.1,5.1-6.3,17.9-4,26.4c4.1,15.1,20.3,10,20.3,10l3.1-13.2c0.8-2.2,2.8-3.6,4.9-3.6
		c0,0,4.6-2.2,4.6-5l1.7-7.5h3.1h3.1l1.7,7.5c0,2.8,4.6,5,4.6,5c2.1,0,4.1,1.4,4.9,3.6l3.1,13.2c0,0,16.2,5.1,20.3-10
		C168,93.6,166.8,80.8,161.7,75.7z"/>
	<g>
		<path class="st7" d="M155,85.5c-5.4,2.7-12.8-2.4-12.8-2.4C143.2,79.7,160.4,82.8,155,85.5z"/>
		<path class="st7" d="M143.7,67.5c-2.4,2.1-7.4-2-7.4-2C138.3,62,146.2,65.3,143.7,67.5z"/>
		<path class="st7" d="M137.4,54.8c-1.8,1.3-5-1.8-5-1.8C134,50.7,139.2,53.4,137.4,54.8z"/>
	</g>
</g>
<path class="st0" d="M163.1,133c0,0-19.3,3.1-19.3,25s4.1,29.8,4.1,29.8s-8.8-7.5-8.8-32.2S163.2,133.1,163.1,133z"/>
<g>
	<ellipse class="st0" cx="202.8" cy="73.3" rx="14.8" ry="22.1"/>
	<ellipse class="st5" cx="208.6" cy="73.3" rx="8.8" ry="12.8"/>
	<ellipse class="st0" cx="211.3" cy="73.3" rx="4.1" ry="6"/>
</g>
<g>
	
		<ellipse transform="matrix(0.1987 -0.9801 0.9801 0.1987 -11.6919 295.2321)" class="st0" cx="174.7" cy="154.8" rx="17.1" ry="14.4"/>
	
		<ellipse transform="matrix(0.1987 -0.9801 0.9801 0.1987 -9.7886 298.7412)" class="st5" cx="177.8" cy="155.4" rx="12.5" ry="8.6"/>
	<ellipse transform="matrix(0.2523 -0.9677 0.9677 0.2523 -16.8369 289.3799)" class="st0" cx="178.8" cy="155.6" rx="5.8" ry="4"/>
</g>
<g>
	
		<ellipse transform="matrix(0.4129 -0.9108 0.9108 0.4129 10.4646 225.2338)" class="st0" cx="179.9" cy="104.5" rx="14.6" ry="10.9"/>
	<path class="st2" d="M172.6,102.9l1.1-2.7c0.3-0.8,1.2-1.2,2-0.9l11,3.6c0.9,0.2,1.4,1.2,1,2.1l-1,2.5c-0.4,0.7-1.2,1.1-2,0.9
		l-11.1-3.4C172.7,104.7,172.2,103.7,172.6,102.9z"/>
</g>
<g>
	<ellipse transform="matrix(0.3651 -0.931 0.931 0.3651 -8.8245 242.1786)" class="st0" cx="173.1" cy="127.6" rx="8.1" ry="6"/>
	<ellipse transform="matrix(0.3651 -0.931 0.931 0.3651 -8.8245 242.1786)" class="st2" cx="173.1" cy="127.6" rx="4.4" ry="3.3"/>
</g>
<g>
	<path class="st7" d="M113.8,83.1c0,0-7.4,5.1-12.8,2.4S112.8,79.7,113.8,83.1z"/>
	<path class="st7" d="M119.7,65.5c0,0-5,4.1-7.4,2C109.8,65.3,117.7,62,119.7,65.5z"/>
	<path class="st7" d="M123.6,53c0,0-3.2,3.1-5,1.8C116.8,53.4,122,50.7,123.6,53z"/>
</g>
</svg>
