<svg xmlns="http://www.w3.org/2000/svg" xml:space="preserve" width="256" height="256" viewBox="0 0 341.333 341.333"><path d="M296.57 158.667c0 .978-69.808.185-70.46 0-38.445-10.771-85.53-22.389-123.974-33.151-16.805-4.704-33.601-9.433-50.432-14.084-1.4-.387-1.762-.916-1.744-2.157.08-6.553.07-13.097.009-19.65-.01-1.1.246-1.418 1.567-1.418 33.293.035 66.576.026 99.869.026 32.49 0 42.223.018 74.705-.008 11.089-.01 43.456 3.364 51.762 9.714 9.6 7.346 15.378 14.744 18.557 25.498zm-164.73-20.789c4.625 1.295 9.09 2.545 13.564 3.805 17.404 4.87 34.816 9.758 52.238 14.594 1.224.343 1.594.792 1.585 1.929-.044 18.117-.035 36.234-.026 54.35 0 1.692-.274 1.454 1.7 1.463 6.27.009 12.541.017 18.812-.018.987-.009 1.374.124 1.374 1.128-.044 16.02-.044 32.041-.009 48.071 0 .942-.29 1.154-1.339 1.154-38.497-.027-77.004-.027-115.51 0-1.127 0-1.4-.238-1.392-1.224.053-7.866.044-15.722.01-23.587-.01-.784.272-1.171 1.074-1.532 8.93-3.946 17.835-7.945 26.766-11.89.872-.388 1.18-.81 1.18-1.7-.035-28.334-.026-56.677-.026-85.01z" style="fill:#3498db;fill-opacity:1;fill-rule:nonzero;stroke:#2c3e50;stroke-width:5.33333349;stroke-miterlimit:4;stroke-dasharray:none;stroke-opacity:1"/><path d="M251.676 163.482c14.48 0 28.968.01 43.447-.026 1.172 0 1.453.282 1.445 1.295-.036 13.915-.036 27.84 0 41.756 0 .96-.203 1.25-1.366 1.25-29.011-.035-58.015-.035-87.027 0-1.136 0-1.382-.255-1.382-1.232.044-13.925.035-27.841 0-41.766 0-.995.237-1.303 1.435-1.303 14.48.044 28.968.026 43.448.026" style="fill:#3498db;fill-opacity:1;fill-rule:nonzero;stroke:#2c3e50;stroke-width:5.33333349;stroke-miterlimit:4;stroke-dasharray:none;stroke-opacity:1"/></svg>