<svg xmlns="http://www.w3.org/2000/svg" width="64" height="64"><rect width="60" height="27" x="2" y="3" ry=".964" style="fill:#243342;fill-opacity:1;stroke:none"/><rect width="56" height="24" x="4" y="2" ry=".96" style="fill:#2c3e50;fill-opacity:1;stroke:none"/><path d="M5 24c-.554 0-1 .436-1 1s-.419 1-1 1-1 .446-1 1v34c0 .554.446 1 1 1h58c.554 0 1-.446 1-1V27c0-.554-.444-1-1-1s-1-.46-1-1-.446-1-1-1z" style="fill:#34495e;fill-opacity:1;stroke:none"/><rect width="56" height="30" x="4" y="29" ry="2" style="fill:#3498ff;fill-opacity:1;stroke:none"/><path d="M27 11h2v1h6v-1h2l-5-4z" style="fill:#243342;stroke:none;stroke-width:1px;stroke-linecap:butt;stroke-linejoin:miter;stroke-opacity:1;fill-opacity:1"/></svg>