<svg xmlns="http://www.w3.org/2000/svg" xml:space="preserve" id="svg21" width="81.921" height="81.921" style="shape-rendering:geometricPrecision;text-rendering:geometricPrecision;image-rendering:optimizeQuality;fill-rule:evenodd;clip-rule:evenodd" version="1.1" viewBox="0 0 55309 55309"><defs id="defs4"><style id="style2" type="text/css">.fil3{fill:#3498db}</style></defs><path id="rect7" d="M0 0h55309v55309H0z" style="fill:none"/><path id="path9" d="M9029.347 28381c-34-5313 2094-10412 5895-14125 7732-7552 20123-7406 27675 326s7406 20122-326 27674c-7325 7155-18928 7454-26611 685" style="fill:none;stroke:#ecf0f1;stroke-width:4320.93017578;stroke-opacity:1"/><path id="polygon11" d="m1290 28420 3391 4031 3392 4032 3344-4070 3345-4070-6736 38z" style="fill:#ecf0f1;fill-opacity:1;stroke:none;stroke-opacity:1" transform="translate(1003.347)"/><path id="path15" d="m26957.347 29197 264 13027c10 499 427 898 926 888l1505-30c499-10 899-426 889-925l-265-13027c-1-94-18-185-46-270 77-46 148-104 211-174l6234-6983c332-373 300-949-73-1281l-1123-1003c-372-332-948-300-1280 72l-6235 6984c-132 148-1012 2474-1007 2722" class="fil3" style="fill:#3498db"/><circle id="circle17" cx="28599.348" cy="28256" r="2133" class="fil3" style="fill:#2c3e50;fill-opacity:1"/></svg>