<svg xmlns="http://www.w3.org/2000/svg" width="64" height="64"><circle cx="32" cy="32" r="22.726" style="opacity:1;vector-effect:none;fill:#2980b9;fill-opacity:1;stroke:none;stroke-width:4;stroke-linecap:butt;stroke-linejoin:miter;stroke-miterlimit:4;stroke-dasharray:none;stroke-dashoffset:0;stroke-opacity:1;paint-order:stroke fill markers"/><path d="M18.803 50.501A22.73 22.73 0 0 1 9.507 28.76a22.73 22.73 0 0 1 15.057-18.234 22.73 22.73 0 0 1 23.108 5.018L32 32Z" style="opacity:1;vector-effect:none;fill:#3498db;fill-opacity:1;stroke:none;stroke-width:4;stroke-linecap:butt;stroke-linejoin:miter;stroke-miterlimit:4;stroke-dasharray:none;stroke-dashoffset:0;stroke-opacity:1;paint-order:stroke fill markers"/><path d="M32 8.5C19.021 8.5 8.5 19.021 8.5 32S19.021 55.5 32 55.5 55.5 44.979 55.5 32 44.979 8.5 32 8.5Zm-.002.773a22.72 22.72 0 0 1 15.404 6.046L18.417 50.192A22.68 22.68 0 0 1 9.273 32c0-12.552 10.175-22.727 22.725-22.727Zm16.017 6.62h.002A22.73 22.73 0 0 1 54.725 32c0 12.552-10.174 22.727-22.725 22.727a22.7 22.7 0 0 1-12.899-4.047Z" style="opacity:1;vector-effect:none;fill:#2c3e50;fill-opacity:1;stroke:#2c3e50;stroke-width:1;stroke-linecap:butt;stroke-linejoin:miter;stroke-miterlimit:2;stroke-dasharray:none;stroke-dashoffset:0;stroke-opacity:1;paint-order:stroke fill markers"/><path d="M27.19 21.138c-2.786.202-5.2 2.25-6.45 4.66-1.43 2.737-.663 6.064 1.043 8.483 1.486 2.2 3.486 3.986 5.597 5.573.4.319 1.444 1.027 2.098 1.458.86.466 1.742 1.283 2.628 1.487a48 48 0 0 0 4.512-2.944 33 33 0 0 0 2.566-2.116c2.493-2.304 4.875-5.337 4.827-8.905-.088-3.553-2.922-6.725-6.308-7.582-2.215-.53-4.474.71-5.703 2.529-1.096-1.555-2.847-2.736-4.81-2.643z" style="opacity:1;vector-effect:none;fill:#ecf0f1;fill-opacity:1;stroke:#2c3e50;stroke-width:4;stroke-linecap:butt;stroke-linejoin:miter;stroke-miterlimit:4;stroke-dasharray:none;stroke-dashoffset:0;stroke-opacity:1;paint-order:stroke fill markers"/></svg>