<?xml version="1.0" encoding="UTF-8" standalone="no"?>
<svg
   xmlns:dc="http://purl.org/dc/elements/1.1/"
   xmlns:cc="http://creativecommons.org/ns#"
   xmlns:rdf="http://www.w3.org/1999/02/22-rdf-syntax-ns#"
   xmlns:svg="http://www.w3.org/2000/svg"
   xmlns="http://www.w3.org/2000/svg"
   xmlns:sodipodi="http://sodipodi.sourceforge.net/DTD/sodipodi-0.dtd"
   xmlns:inkscape="http://www.inkscape.org/namespaces/inkscape"
   id="svg39"
   height="64"
   width="64"
   version="1.1"
   sodipodi:docname="Lutro-content.svg"
   inkscape:version="0.92.3 (2405546, 2018-03-11)">
  <sodipodi:namedview
     pagecolor="#ffffff"
     bordercolor="#666666"
     borderopacity="1"
     objecttolerance="10"
     gridtolerance="10"
     guidetolerance="10"
     inkscape:pageopacity="0"
     inkscape:pageshadow="2"
     inkscape:window-width="1024"
     inkscape:window-height="705"
     id="namedview9"
     showgrid="false"
     inkscape:zoom="256"
     inkscape:cx="31.76737"
     inkscape:cy="21.385947"
     inkscape:window-x="-8"
     inkscape:window-y="-8"
     inkscape:window-maximized="1"
     inkscape:current-layer="svg39"
     showguides="true"
     inkscape:guide-bbox="true" />
  <metadata
     id="metadata45">
    <rdf:RDF>
      <cc:Work
         rdf:about="">
        <dc:format>image/svg+xml</dc:format>
        <dc:type
           rdf:resource="http://purl.org/dc/dcmitype/StillImage" />
        <dc:title></dc:title>
      </cc:Work>
    </rdf:RDF>
  </metadata>
  <defs
     id="defs43" />
  <desc
     id="desc2"
     codePlatform="0"
     snapToGrid="no"
     showGrid="no"
     gridStep="4"
     version="4.6"
     iVinci="yes" />
  <path
     style="opacity:1;vector-effect:none;fill:#2980b9;fill-opacity:1;stroke:none;stroke-width:4;stroke-linecap:butt;stroke-linejoin:miter;stroke-miterlimit:4;stroke-dasharray:none;stroke-dashoffset:0;stroke-opacity:1;paint-order:stroke fill markers"
     d="M 27.189453 21.138672 C 24.403475 21.340802 21.990056 23.388751 20.740234 25.798828 C 19.310325 28.535393 20.07715 31.863062 21.783203 34.28125 C 23.26861 36.482196 25.269782 38.267229 27.380859 39.853516 C 27.780461 40.172862 28.824153 40.881184 29.478516 41.3125 C 30.337921 41.778065 31.21966 42.594923 32.105469 42.798828 L 32.105469 23.646484 C 32.072297 23.692741 32.031813 23.734198 32 23.78125 C 30.903851 22.226646 29.152526 21.045496 27.189453 21.138672 z "
     id="rect826" />
  <path
     id="path833"
     d="m 37.021485,21.138672 c 2.785978,0.20213 5.199397,2.250079 6.449219,4.660156 1.429909,2.736565 0.663084,6.064234 -1.042969,8.482422 -1.485407,2.200946 -3.486579,3.985979 -5.597656,5.572266 -0.399602,0.319346 -1.443294,1.027668 -2.097657,1.458984 -0.859405,0.465565 -1.741144,1.282423 -2.626953,1.486328 V 23.646484 c 0.03317,0.04626 0.07366,0.08771 0.105469,0.134766 1.096149,-1.554604 2.847474,-2.735754 4.810547,-2.642578 z"
     style="opacity:1;vector-effect:none;fill:#3498db;fill-opacity:1;stroke:none;stroke-width:4;stroke-linecap:butt;stroke-linejoin:miter;stroke-miterlimit:4;stroke-dasharray:none;stroke-dashoffset:0;stroke-opacity:1;paint-order:stroke fill markers"
     inkscape:connector-curvature="0" />
</svg>
