<svg xmlns="http://www.w3.org/2000/svg" xml:space="preserve" width="64" height="64"><defs><clipPath id="a" clipPathUnits="userSpaceOnUse"><path d="M36 14H20a2 2 0 0 0-2 2v32a2 2 0 0 0 2 2h24a2 2 0 0 0 2-2V24Z" style="fill:#ecf0f1;fill-opacity:1"/></clipPath></defs><g clip-path="url(#a)"><g transform="translate(30.339 -941.108)"><path d="M-12.339 953.108v40h28v-40zm2.143 1.429h1.428c.396 0 .715.318.715.714v1.428a.713.713 0 0 1-.715.715h-1.428a.713.713 0 0 1-.714-.715v-1.428c0-.396.318-.714.714-.714m22.286 0h1.428c.396 0 .714.318.714.714v1.428a.713.713 0 0 1-.714.715H12.09a.713.713 0 0 1-.715-.715v-1.428c0-.396.319-.714.715-.714m-22.286 4.285h1.428c.396 0 .715.319.715.715v1.428a.713.713 0 0 1-.715.714h-1.428a.713.713 0 0 1-.714-.714v-1.428c0-.396.318-.715.714-.715m22.286 0h1.428c.396 0 .714.319.714.715v1.428a.713.713 0 0 1-.714.714H12.09a.713.713 0 0 1-.715-.714v-1.428c0-.396.319-.715.715-.715m-22.286 4.286h1.428c.396 0 .715.319.715.714v1.429a.713.713 0 0 1-.715.714h-1.428a.713.713 0 0 1-.714-.714v-1.429c0-.395.318-.714.714-.714m22.286 0h1.428c.396 0 .714.319.714.714v1.429a.713.713 0 0 1-.714.714H12.09a.713.713 0 0 1-.715-.714v-1.429c0-.395.319-.714.715-.714m-22.286 4.286h1.428c.396 0 .715.318.715.714v1.429a.713.713 0 0 1-.715.714h-1.428a.713.713 0 0 1-.714-.714v-1.429c0-.396.318-.714.714-.714m22.286 0h1.428c.396 0 .714.318.714.714v1.429a.713.713 0 0 1-.714.714H12.09a.713.713 0 0 1-.715-.714v-1.429c0-.396.319-.714.715-.714m-22.286 4.285h1.428c.396 0 .715.319.715.715v1.428a.713.713 0 0 1-.715.715h-1.428a.713.713 0 0 1-.714-.715v-1.428c0-.396.318-.715.714-.715m22.286 0h1.428c.396 0 .714.319.714.715v1.428a.713.713 0 0 1-.714.715H12.09a.713.713 0 0 1-.715-.715v-1.428c0-.396.319-.715.715-.715m-22.286 4.286h1.428c.396 0 .715.319.715.714v1.429a.713.713 0 0 1-.715.714h-1.428a.713.713 0 0 1-.714-.714v-1.429c0-.395.318-.714.714-.714m22.286 0h1.428c.396 0 .714.319.714.714v1.429a.713.713 0 0 1-.714.714H12.09a.713.713 0 0 1-.715-.714v-1.429c0-.395.319-.714.715-.714m-22.286 4.286h1.428c.396 0 .715.318.715.714v1.429a.713.713 0 0 1-.715.714h-1.428a.713.713 0 0 1-.714-.714v-1.429c0-.396.318-.714.714-.714m22.286 0h1.428c.396 0 .714.318.714.714v1.429a.713.713 0 0 1-.714.714H12.09a.713.713 0 0 1-.715-.714v-1.429c0-.396.319-.714.715-.714m-22.286 4.286h1.428c.396 0 .715.318.715.714v1.428a.713.713 0 0 1-.715.715h-1.428a.713.713 0 0 1-.714-.715v-1.428c0-.396.318-.714.714-.714m22.286 0h1.428c.396 0 .714.318.714.714v1.428a.713.713 0 0 1-.714.715H12.09a.713.713 0 0 1-.715-.715v-1.428c0-.396.319-.714.715-.714m-22.286 4.285h1.428c.396 0 .715.319.715.715v1.428a.713.713 0 0 1-.715.714h-1.428a.713.713 0 0 1-.714-.714v-1.428c0-.396.318-.715.714-.715m22.286 0h1.428c.396 0 .714.319.714.715v1.428a.713.713 0 0 1-.714.714H12.09a.713.713 0 0 1-.715-.714v-1.428c0-.396.319-.715.715-.715" style="fill:#2c3e50;fill-opacity:1;stroke:none"/><path d="M-6.625 953.108v6.027a2.537 2.537 0 0 0 2.545 2.544H7.402c1.412 0 2.1-1.205 2.545-2.544v-6.027z" style="fill:#3498db;fill-opacity:1;stroke:none"/><rect width="16.571" height="17.143" x="-6.625" y="964.537" ry="2.548" style="fill:#3498db;fill-opacity:1;stroke:none;stroke-width:1"/><path d="M9.947 993.108v-6.027a2.537 2.537 0 0 0-2.545-2.544H-4.08a2.537 2.537 0 0 0-2.545 2.544v6.027z" style="fill:#3498db;fill-opacity:1;stroke:none"/></g><path d="M28 28v8l8-4z" style="fill:#ecf0f1;fill-opacity:1;stroke:none;stroke-width:1;stroke-miterlimit:4;stroke-dasharray:none;paint-order:markers stroke fill"/></g><path d="M36 14v8a2 2 0 0 0 2 2h8Z" style="fill:#bdc3c7;fill-opacity:1"/></svg>