<svg xmlns="http://www.w3.org/2000/svg" width="64" height="64"><g style="display:inline"><rect width="62" height="27" x="1" y="19" ry="1" style="display:inline;fill:#c0392b;fill-opacity:1;fill-rule:nonzero;stroke:none"/><rect width="47" height="13.43" x="14" y="30.57" ry="1.033" style="display:inline;fill:#decd87;fill-opacity:1;stroke-width:1.52058"/><rect width="24.939" height="23" x="3" y="21" ry="1" style="display:inline;fill:#decd87;fill-opacity:1;stroke-width:3.01743"/><rect width="7" height="13" x="10" y="28" ry="1.182" style="display:inline;fill:#c0392b;fill-opacity:1;fill-rule:nonzero;stroke:none"/><rect width="7" height="13" x="31" y="-20" ry="1.182" style="display:inline;fill:#c0392b;fill-opacity:1;fill-rule:nonzero;stroke:none" transform="rotate(90)"/><rect width="5" height="11" x="11" y="29" ry="1" style="display:inline;fill:#2c3e50;fill-opacity:1;fill-rule:nonzero;stroke:none"/><rect width="5" height="11" x="32" y="-19" ry="1" style="display:inline;fill:#2c3e50;fill-opacity:1;fill-rule:nonzero;stroke:none" transform="rotate(90)"/><rect width="17" height="6" x="23" y="34" ry="3" style="display:inline;fill:#c0392b;fill-opacity:1;fill-rule:nonzero;stroke:none"/><rect width="5" height="2" x="33" y="36" ry=".864" style="display:inline;fill:#2c3e50;fill-opacity:1;fill-rule:nonzero;stroke:none"/><rect width="5" height="2" x="25" y="36" ry=".864" style="display:inline;fill:#2c3e50;fill-opacity:1;fill-rule:nonzero;stroke:none"/><rect width="6" height="6" x="43" y="34" ry="3" style="display:inline;fill:#c0392b;fill-opacity:1;fill-rule:nonzero;stroke:none"/><circle cx="45" cy="24" r="2" style="display:inline;fill:#2c3e50;fill-opacity:1;fill-rule:evenodd;stroke:none" transform="translate(1 13)"/><rect width="6" height="6" x="51" y="34" ry="3" style="display:inline;fill:#c0392b;fill-opacity:1;fill-rule:nonzero;stroke:none"/><circle cx="45" cy="24" r="2" style="display:inline;fill:#34495e;fill-opacity:1;fill-rule:evenodd;stroke:none" transform="translate(9 13)"/><rect width="1.57" height="1.493" x="27.43" y="29.507" ry=".747" style="fill:#decd87;fill-opacity:1;stroke-width:1.00893"/><ellipse cx="28.922" cy="29.571" rx=".981" ry=".997" style="fill:#c0392b;fill-opacity:1;stroke-width:1.00313"/></g></svg>