<svg xmlns="http://www.w3.org/2000/svg" width="64" height="64"><g style="display:inline"><path d="M16 15.5c-4.5.5-4.5.5-8.5 1-1.5 0-4 .5-4 3 0 1 1.5 2.5 1.5 2z" style="fill:#bdc3c7;fill-opacity:1;stroke:none;display:inline"/><path d="M48 15.5c4.5.5 4.5.5 8.5 1 1.5 0 4 .5 4 3 0 1-1.5 2.5-1.5 2z" style="fill:#bdc3c7;fill-opacity:1;stroke:none"/><path d="M16 15c0-1 32-1 32 0 3 2 7 3 11 4 3 1 3 18 3 21 0 2-1.5 3-3 3.5l-6 2c-3.5 2-11.976 3.272-20.951 3.385C23 49 14.5 47.5 11 45.5l-6-2C3.5 43 2 42 2 40c0-3 0-20 3-21 4-1 8-2 11-4" style="fill:#9b59b6;fill-opacity:1;stroke:none"/><path d="M20 19c12-1 12-1 24 0 1.993.166 2.889 1 3 3l1 18c.111 2-1.048 3.566-3 4-9 2-17.138 1.952-26 0-1.953-.43-3.111-2-3-4l1-18c.111-2 1.007-2.834 3-3" style="fill:#2c3e50;fill-opacity:1;stroke:none"/><rect width="26" height="17" x="19" y="22" ry="0" style="fill:#7f8c8d;fill-opacity:1;stroke:none"/><path d="M54 30a2 2 0 1 1-4 0 2 2 0 1 1 4 0" style="fill:#bdc3c7;fill-opacity:1;stroke:none"/><path d="M54 30a2 2 0 1 1-4 0 2 2 0 1 1 4 0" style="fill:#bdc3c7;fill-opacity:1;stroke:none;display:inline" transform="translate(5 -2)"/><rect width="3" height="8" x="8" y="25" ry="1" style="fill:#bdc3c7;fill-opacity:1;stroke:none"/><rect width="3" height="8" x="27.5" y="-13.5" ry="1" style="fill:#bdc3c7;fill-opacity:1;stroke:none;display:inline" transform="rotate(90)"/><path d="M14 37a1 1 0 1 1-2 0 1 1 0 1 1 2 0" style="fill:#bdc3c7;fill-opacity:1;stroke:none" transform="translate(1 1)"/><path d="M14 37a1 1 0 1 1-2 0 1 1 0 1 1 2 0" style="fill:#bdc3c7;fill-opacity:1;stroke:none;display:inline" transform="translate(1 4)"/><path d="M52 20.5a.5.5 0 1 1-1 0 .5.5 0 1 1 1 0" style="fill:#27ae60;fill-opacity:1;stroke:none"/><rect width="7" height=".5" x="38.293" y="48.124" ry=".25" style="fill:#8e44ad;fill-opacity:1;stroke:none" transform="rotate(-15)"/><rect width="7" height=".5" x="38.035" y="49.09" ry=".25" style="fill:#8e44ad;fill-opacity:1;stroke:none;display:inline" transform="rotate(-15)"/><rect width="7" height=".5" x="37.776" y="50.056" ry=".25" style="fill:#8e44ad;fill-opacity:1;stroke:none;display:inline" transform="rotate(-15)"/><rect width="7" height=".5" x="37.517" y="51.022" ry=".25" style="fill:#8e44ad;fill-opacity:1;stroke:none;display:inline" transform="rotate(-15)"/><rect width="7" height=".5" x="37.258" y="51.988" ry=".25" style="fill:#8e44ad;fill-opacity:1;stroke:none;display:inline" transform="rotate(-15)"/></g></svg>