<svg xmlns="http://www.w3.org/2000/svg" viewBox="0 0 256 256"><path fill="#1b80bb" d="M184.667 12H71.333C65.074 12 60 17.026 60 23.226v202.065c0 24.946 136 24.946 136 0V23.226c0-6.2-5.074-11.226-11.333-11.226" style="fill:#f1c40f;fill-opacity:1"/><path fill="#223140" d="M180.778 20H75.222C71.233 20 68 23.222 68 27.196v85.292c0 4.637 3.772 8.395 8.426 8.395H75.5c35 4.04 70 4.269 105 0h-.926c4.654 0 8.426-3.759 8.426-8.395V27.196c0-3.974-3.233-7.196-7.222-7.196" style="fill:#2c3e50;fill-opacity:1"/><path fill="#6c7a88" d="M88 32h80v68H88z" style="fill:#7f8c8d;fill-opacity:1"/><path fill="#223140" d="M110 156H98v-12H86v12H74v12h12v12h12v-12h12z" style="fill:#34495e;fill-opacity:1"/><circle cx="155" cy="166" r="8" fill="#223140" style="fill:#34495e;fill-opacity:1"/><circle cx="177" cy="156" r="8" fill="#223140" style="fill:#34495e;fill-opacity:1"/><path fill="#223140" d="M118.463 204h-8.926c-1.945 0-3.537-1.35-3.537-3s1.592-3 3.537-3h8.926c1.945 0 3.537 1.35 3.537 3s-1.592 3-3.537 3m28 0h-8.926c-1.945 0-3.537-1.35-3.537-3s1.592-3 3.537-3h8.926c1.945 0 3.537 1.35 3.537 3s-1.592 3-3.537 3" style="fill:#34495e;fill-opacity:1"/></svg>