<svg xmlns="http://www.w3.org/2000/svg" width="64" height="64"><g transform="translate(0 -988.362)"><path d="M10 1000.362c1.592-.963 5.455-2 5.455-2h0c8.545-2 24.545-2 33.09 0 1.943.455 3.87 1.048 5.455 2" style="fill:none;stroke:#7f8c8d;stroke-opacity:1;stroke-linejoin:round;stroke-linecap:round"/><path d="m5 1008.362 11 11s-3 16-7 16c-6 0-7-18-4-27m54 0-11 11s3 16 7 16c6 0 7-18 4-27" style="fill:#bdc3c7;fill-opacity:1;stroke:none"/><path d="M15.455 1000.362c8.545-2 24.545-2 33.09 0 5.64 1.32 10.455 2.663 10.455 8.456v.089c0 5.792-4.798 11.21-10.455 12.455l-4.545 1c-6 0-4 26-12 26s-6-26-12-26l-4.545-1C9.798 1020.118 5 1014.7 5 1008.907v-.089c0-5.792 4.816-7.135 10.455-8.456" style="fill:#7f8c8d;fill-opacity:1;stroke:none"/><path d="M15.455 10C24 8 40 8 48.545 10 54.185 11.32 59 14.663 59 20.455v.09c0 5.792-4.798 9.21-10.455 10.455L44 32c-6 0-4 28-12 28s-6-28-12-28l-4.545-1C9.798 29.755 5 26.337 5 20.545v-.09C5 14.663 9.816 11.32 15.455 10" style="fill:#bdc3c7;fill-opacity:1;stroke:none" transform="translate(0 988.362)"/><path d="M35 22.5a2.5 2.5 0 0 1-2.5 2.5 2.5 2.5 0 0 1-2.5-2.5 2.5 2.5 0 0 1 2.5-2.5 2.5 2.5 0 0 1 2.5 2.5" style="fill:none;fill-opacity:1;stroke:none" transform="translate(-.5 988.362)"/><path d="M38 34.5a6 5.5 0 0 1-6 5.5 6 5.5 0 0 1-6-5.5 6 5.5 0 0 1 6-5.5 6 5.5 0 0 1 6 5.5" style="fill:#7f8c8d;fill-opacity:1;stroke:none" transform="matrix(1 0 0 1.0909 0 985.226)"/><path d="m35 38-3 1.243L29 38l-1.243-3L29 32l3-1.243L35 32l1.243 3z" style="fill:#bdc3c7;fill-opacity:1;stroke:none" transform="translate(0 987.863)"/><path d="M36 35a3 3 0 0 1-3 3 3 3 0 0 1-3-3 3 3 0 0 1 3-3 3 3 0 0 1 3 3" style="fill:#ecf0f1;fill-opacity:1;stroke:none" transform="translate(-1 987.862)"/><path d="M34 22a2 2 0 0 1-2 2 2 2 0 0 1-2-2 2 2 0 0 1 2-2 2 2 0 0 1 2 2" style="fill:#c0392b;fill-opacity:1;stroke:none" transform="translate(0 988.862)"/><path d="M21 20.5a6.5 6.5 0 0 1-6.5 6.5A6.5 6.5 0 0 1 8 20.5a6.5 6.5 0 0 1 6.5-6.5 6.5 6.5 0 0 1 6.5 6.5" style="fill:none;fill-opacity:1;stroke:none" transform="translate(0 988.362)"/><path d="M56 19.5a4.5 4.5 0 0 1-4.5 4.5 4.5 4.5 0 0 1-4.5-4.5 4.5 4.5 0 0 1 4.5-4.5 4.5 4.5 0 0 1 4.5 4.5" style="fill:none;fill-opacity:.58545453999999997;stroke:none;stroke-opacity:1;stroke-linejoin:round;stroke-linecap:round;stroke-width:.5;stroke-miterlimit:4;stroke-dasharray:none" transform="translate(0 988.362)"/><path d="m43 1010.362 5 5" style="fill:none;fill-opacity:1;stroke:none;stroke-width:.5;stroke-linecap:round;stroke-linejoin:round;stroke-miterlimit:4;stroke-opacity:1;stroke-dasharray:none"/><path d="M46 22.5a2.5 2.5 0 0 1-2.5 2.5 2.5 2.5 0 0 1-2.5-2.5 2.5 2.5 0 0 1 2.5-2.5 2.5 2.5 0 0 1 2.5 2.5" style="fill:#16a085;fill-opacity:1;stroke:none" transform="translate(0 988.362)"/><path d="M46 22.5a2.5 2.5 0 0 1-2.5 2.5 2.5 2.5 0 0 1-2.5-2.5 2.5 2.5 0 0 1 2.5-2.5 2.5 2.5 0 0 1 2.5 2.5" style="fill:#226998;fill-opacity:1;stroke:none" transform="translate(4 992.362)"/><path d="M49 19a2 2 0 0 1-2 2 2 2 0 0 1-2-2 2 2 0 0 1 2-2 2 2 0 0 1 2 2" style="fill:#f1c40f;fill-opacity:1;stroke:none" transform="translate(1 988.862)"/><path d="M49 19a2 2 0 0 1-2 2 2 2 0 0 1-2-2 2 2 0 0 1 2-2 2 2 0 0 1 2 2" style="fill:#f1c40f;fill-opacity:1;stroke:none" transform="translate(8 988.862)"/><path d="M49 19a2 2 0 0 1-2 2 2 2 0 0 1-2-2 2 2 0 0 1 2-2 2 2 0 0 1 2 2" style="fill:#f1c40f;fill-opacity:1;stroke:none" transform="rotate(90 -443.431 513.931)"/><path d="M49 19a2 2 0 0 1-2 2 2 2 0 0 1-2-2 2 2 0 0 1 2-2 2 2 0 0 1 2 2" style="fill:#f1c40f;fill-opacity:1;stroke:none" transform="rotate(90 -446.931 517.431)"/><rect width="3" height="9" x="13" y="16" ry=".5" style="fill:#7f8c8d;fill-opacity:1;stroke:none" transform="translate(0 988.362)"/><rect width="3" height="9" x="1007.362" y="-19" ry=".5" style="fill:#7f8c8d;fill-opacity:1;stroke:none" transform="rotate(90)"/><path d="M23 18 21 6.8l-1 2.4z" style="fill:#7f8c8d;fill-opacity:1;stroke:none" transform="translate(0 988.362)"/><path d="m41 1006.362 2-11.2 1 2.4z" style="fill:#7f8c8d;fill-opacity:1;stroke:none"/><path d="M22 6c5-2 15-2 20 0 .514.206 1 .446 1 1l-2 11H23L21 7c-.1-.545.486-.794 1-1" style="fill:#bdc3c7;fill-opacity:1;stroke:none" transform="translate(0 988.362)"/></g></svg>