<svg xmlns="http://www.w3.org/2000/svg" width="64" height="64"><g transform="translate(-35.573 78.842)"><circle cx="67.573" cy="-46.842" r="21.5" style="opacity:1;vector-effect:none;fill:none;fill-opacity:1;stroke:#2c3e50;stroke-width:3.99999976;stroke-linecap:butt;stroke-linejoin:miter;stroke-miterlimit:4;stroke-dasharray:none;stroke-dashoffset:0;stroke-opacity:1;paint-order:stroke fill markers"/><path d="M67.572-68.342a21.5 21.5 0 0 0-21.5 21.5 21.5 21.5 0 0 0 21.5 21.5 21.5 21.5 0 0 0 21.5-21.5 21.5 21.5 0 0 0-21.5-21.5m0 13.262c4.694 0 8.239 3.545 8.239 8.238 0 4.694-3.545 8.238-8.239 8.238-4.693 0-8.236-3.544-8.236-8.238s3.543-8.238 8.236-8.238" style="color:#000;font-style:normal;font-variant:normal;font-weight:400;font-stretch:normal;font-size:medium;line-height:normal;font-family:sans-serif;font-variant-ligatures:normal;font-variant-position:normal;font-variant-caps:normal;font-variant-numeric:normal;font-variant-alternates:normal;font-feature-settings:normal;text-indent:0;text-align:start;text-decoration:none;text-decoration-line:none;text-decoration-style:solid;text-decoration-color:#000;letter-spacing:normal;word-spacing:normal;text-transform:none;writing-mode:lr-tb;direction:ltr;text-orientation:mixed;dominant-baseline:auto;baseline-shift:baseline;text-anchor:start;white-space:normal;shape-padding:0;clip-rule:nonzero;display:inline;overflow:visible;visibility:visible;opacity:1;isolation:auto;mix-blend-mode:normal;color-interpolation:sRGB;color-interpolation-filters:linearRGB;solid-color:#000;solid-opacity:1;vector-effect:none;fill:#227fbb;fill-opacity:1;fill-rule:nonzero;stroke:none;stroke-width:87px;stroke-linecap:butt;stroke-linejoin:miter;stroke-miterlimit:4;stroke-dasharray:none;stroke-dashoffset:0;stroke-opacity:1;color-rendering:auto;image-rendering:auto;shape-rendering:auto;text-rendering:auto"/><circle cx="67.573" cy="-46.842" r="7.409" class="cls-2" style="fill:none;stroke:#227fbb;stroke-width:28.00000191;stroke-miterlimit:4;stroke-dasharray:none;stroke-opacity:1"/><path d="m78.467-65.35-5.29 8.776a10.8 10.8 0 0 1 3.594 3.715l8.979-5.452a21.5 21.5 0 0 0-7.283-7.039M76.77-52.86l-6.132 3.725a3.83 3.83 0 0 1 .765 2.293 3.83 3.83 0 0 1-3.832 3.83 3.83 3.83 0 0 1-2.105-.633l-3.297 5.678A10.826 10.826 0 0 0 76.77-52.859m-14.6 14.893a10.8 10.8 0 0 1-3.734-3.435l-9.133 5.869a21.5 21.5 0 0 0 7.3 7.152zm-3.734-3.435 5.734-3.684a3.8 3.8 0 0 1-.428-1.756 3.83 3.83 0 0 1 3.83-3.83 3.8 3.8 0 0 1 1.783.442l3.823-6.344a10.83 10.83 0 0 0-5.75-1.668A10.826 10.826 0 0 0 56.6-47.416a10.83 10.83 0 0 0 1.836 6.014" style="fill:#2c97de;fill-rule:evenodd;stroke:none;stroke-width:1"/><path d="M67.573-59.643c-7.064 0-12.801 5.738-12.801 12.801 0 7.064 5.737 12.802 12.8 12.802s12.802-5.738 12.802-12.802-5.738-12.801-12.801-12.801m0 2.504A10.29 10.29 0 0 1 77.87-46.842a10.29 10.29 0 0 1-10.297 10.297 10.29 10.29 0 0 1-10.297-10.297 10.29 10.29 0 0 1 10.297-10.297" style="color:#000;font-style:normal;font-variant:normal;font-weight:400;font-stretch:normal;font-size:medium;line-height:normal;font-family:sans-serif;font-variant-ligatures:normal;font-variant-position:normal;font-variant-caps:normal;font-variant-numeric:normal;font-variant-alternates:normal;font-feature-settings:normal;text-indent:0;text-align:start;text-decoration:none;text-decoration-line:none;text-decoration-style:solid;text-decoration-color:#000;letter-spacing:normal;word-spacing:normal;text-transform:none;writing-mode:lr-tb;direction:ltr;text-orientation:mixed;dominant-baseline:auto;baseline-shift:baseline;text-anchor:start;white-space:normal;shape-padding:0;clip-rule:nonzero;display:inline;overflow:visible;visibility:visible;opacity:1;isolation:auto;mix-blend-mode:normal;color-interpolation:sRGB;color-interpolation-filters:linearRGB;solid-color:#000;solid-opacity:1;vector-effect:none;fill:#33495f;fill-opacity:1;fill-rule:nonzero;stroke:none;stroke-width:4;stroke-linecap:butt;stroke-linejoin:miter;stroke-miterlimit:4;stroke-dasharray:none;stroke-dashoffset:0;stroke-opacity:1;color-rendering:auto;image-rendering:auto;shape-rendering:auto;text-rendering:auto"/><path d="M67.573-57.139a10.29 10.29 0 0 0-10.297 10.297 10.29 10.29 0 0 0 10.297 10.297A10.29 10.29 0 0 0 77.87-46.842a10.29 10.29 0 0 0-10.297-10.297m0 6.667a3.63 3.63 0 0 1 3.63 3.63 3.63 3.63 0 0 1-3.63 3.63 3.63 3.63 0 0 1-3.63-3.63 3.63 3.63 0 0 1 3.63-3.63" style="color:#000;font-style:normal;font-variant:normal;font-weight:400;font-stretch:normal;font-size:medium;line-height:normal;font-family:sans-serif;font-variant-ligatures:normal;font-variant-position:normal;font-variant-caps:normal;font-variant-numeric:normal;font-variant-alternates:normal;font-feature-settings:normal;text-indent:0;text-align:start;text-decoration:none;text-decoration-line:none;text-decoration-style:solid;text-decoration-color:#000;letter-spacing:normal;word-spacing:normal;text-transform:none;writing-mode:lr-tb;direction:ltr;text-orientation:mixed;dominant-baseline:auto;baseline-shift:baseline;text-anchor:start;white-space:normal;shape-padding:0;clip-rule:nonzero;display:inline;overflow:visible;visibility:visible;opacity:1;isolation:auto;mix-blend-mode:normal;color-interpolation:sRGB;color-interpolation-filters:linearRGB;solid-color:#000;solid-opacity:1;vector-effect:none;fill:#2c97de;fill-opacity:1;fill-rule:nonzero;stroke:none;stroke-width:4;stroke-linecap:butt;stroke-linejoin:miter;stroke-miterlimit:4;stroke-dasharray:none;stroke-dashoffset:0;stroke-opacity:1;color-rendering:auto;image-rendering:auto;shape-rendering:auto;text-rendering:auto"/></g></svg>