<svg xmlns="http://www.w3.org/2000/svg" width="64" height="64"><path d="M59 28c5 11.273 3.112 16.91 3 24-2 5-7 5-9 0-1-11-1-11-2-20-1-3-3-5-5-5h-5c1.42-9.967 16.092-11.32 18-8-2 4-1.775 6.671 0 9M5 28C0 39.273 1.888 44.91 2 52c2 5 7 5 9 0 1-11 1-11 2-20 1-3 3-5 5-5h5c-1.42-9.967-16.092-11.32-18-8 2 4 1.775 6.671 0 9" style="fill:#2c3e50;fill-opacity:1;stroke:none"/><rect width="22" height="25" x="21" y="12" ry=".96" style="opacity:1;fill:#2c3e50;fill-opacity:1;stroke:none"/><path d="M27.317 14.4c6.014 6 1.002 13-6.014 11l-13.03-3c-9.022-3-3.008-22 11.025-13z" style="fill:#34495e;fill-opacity:1;stroke:none"/><rect width="3" height="8" x="11" y="10.5" ry=".56" style="fill:#2c3e50;fill-opacity:1;stroke:none"/><rect width="3" height="8" x="13" y="-16.5" ry=".56" style="fill:#2c3e50;fill-opacity:1;stroke:none" transform="rotate(90)"/><path d="M22 18a2 2 0 1 1-4 0 2 2 0 1 1 4 0" style="fill:#95a5a6;fill-opacity:1;stroke:none" transform="translate(2.25 2)scale(.875)"/><path d="M22 18a2 2 0 1 1-4 0 2 2 0 1 1 4 0" style="fill:#95a5a6;fill-opacity:1;stroke:none" transform="matrix(.84064 0 0 .875 7.506 4)"/><path d="M36.683 14.4c-6.014 6-1.002 13 6.014 11l13.03-3c9.022-3 3.008-22-11.025-13z" style="fill:#34495e;fill-opacity:1;stroke:none"/><rect width="3" height="8" x="-53" y="10.5" ry=".56" style="fill:#2c3e50;fill-opacity:1;stroke:none" transform="scale(-1 1)"/><rect width="3" height="8" x="13" y="47.5" ry=".56" style="fill:#2c3e50;fill-opacity:1;stroke:none" transform="matrix(0 1 1 0 0 0)"/><path d="M22 18a2 2 0 1 1-4 0 2 2 0 1 1 4 0" style="fill:#c0392b;fill-opacity:1;stroke:none" transform="matrix(-.875 0 0 .875 61.75 2)"/><path d="M22 18a2 2 0 1 1-4 0 2 2 0 1 1 4 0" style="fill:#c0392b;fill-opacity:1;stroke:none" transform="matrix(-.84064 0 0 .875 56.494 4)"/><path d="m31 15-1.5-1h6L34 15z" style="fill:#7f8c8d;fill-opacity:1;stroke:#7f8c8d;stroke-linecap:round;stroke-linejoin:round;stroke-opacity:1"/><path d="M30.5 15 29 14h5l-1.5 1z" style="fill:#000;fill-opacity:1;stroke:#95a5a6;stroke-opacity:1;stroke-linejoin:round;stroke-linecap:round"/></svg>