<svg xmlns="http://www.w3.org/2000/svg" xml:space="preserve" width="64" height="64"><path fill="#E74C3C" stroke="#C0392B" stroke-width="1.333" d="M4.534 27.507c-.724-.667-.501-2.966-.501-2.966 0-2.425 8.18-3.895 8.18-3.895a.374.374 0 0 1 0 .749c-7.15 1.948-6.312 3.28-6.271 3.617.086.675 3.383 4.402 21.344 4.402.443 0 .443.518.443.518v4.096l-.896 20.877a.374.374 0 0 1-.748 0L24.476 33.78C12.25 32.604 6.93 30.203 4.534 27.507zm27.797 30.165c0 .205-.148.373-.331.373s-.332-.168-.332-.373l-1.765-24.699 1.764-26.644c0-.206.15-.374.333-.374.182 0 .331.167.331.374l1.77 26.644zm7.192-23.893-1.609 21.125a.373.373 0 0 1-.747 0l-.896-20.877v-4.096s0-.518.446-.518c17.957 0 21.256-3.728 21.34-4.402.042-.337.881-1.669-6.269-3.617a.374.374 0 0 1 0-.749s8.179 1.47 8.179 3.895c0 0 .225 2.299-.501 2.966-2.394 2.697-7.716 5.098-19.943 6.273z"/></svg>