<svg xmlns="http://www.w3.org/2000/svg" xml:space="preserve" id="svg4569" width="256" height="256" style="shape-rendering:geometricPrecision;text-rendering:geometricPrecision;image-rendering:optimizeQuality;fill-rule:evenodd;clip-rule:evenodd" version="1.1"><defs id="defs4558"><style id="style4556" type="text/css">.fil1{fill:#fff}</style></defs><path id="rect4561" d="M0 0h256v256H0z" style="fill:none"/><g id="_2354085383792" style="stroke-width:.5" transform="matrix(2 0 0 2 -128 -128)"><path id="path4563" d="M98 152h60c4 0 7-3 7-7v-28c0-4-3-7-7-7h-6c-3-5-9-6-15-6s-12 1-15 6h-11c0-4-3-5-7-5s-7 1-7 5c-4 0-6 3-6 7v28c0 4 3 7 7 7m6-35c2 0 4-2 4-4s-2-4-4-4-4 2-4 4 2 4 4 4m33-4c9 0 17 8 17 17 0 10-8 18-17 18-10 0-18-8-18-18 0-9 8-17 18-17" class="fil1" style="fill:#ecf0f1;stroke-width:.5"/><circle id="circle4565" cx="137" cy="130" r="11" class="fil1" style="fill:#ecf0f1;stroke-width:.5"/></g></svg>