<?xml version="1.0" encoding="utf-8"?>
<!-- Generator: Adobe Illustrator 24.1.3, SVG Export Plug-In . SVG Version: 6.00 Build 0)  -->
<svg version="1.1" id="Layer_1" xmlns="http://www.w3.org/2000/svg" xmlns:xlink="http://www.w3.org/1999/xlink" x="0px" y="0px"
	 viewBox="0 0 256 256" style="enable-background:new 0 0 256 256;" xml:space="preserve">
<style type="text/css">
	.st0{fill:#2C3E50;}
	.st1{fill:#6A5300;}
	.st2{fill:#E5D28A;}
</style>
<g id="g1076" transform="translate(716.5967,190.8296)">
	<path id="path1078_1_" class="st0" d="M-511-44.8c5.6,38.6-18.7,61.5-21.7,63.8c-11.8,9.1-27.8,15.7-47.7,17.1
		c-30,2-53.8-9.2-69.2-23.6c-7.9-7.4-19.3-19.5-14-34.6c2.7-7.7,10.8-15.7,16.6-22.6c2.2-2.5,5.4-5.1,5.6-7.5
		c0.2-4.5-7.1-11.3-9-14.6c-8.7-15.1-11.4-39.9-3.1-58.8c10-22.5,36.4-38.7,72.3-36.2c13.7,0.9,27.7,5.3,39.7,12
		c17.1,9.8,41.7,25.6,29.1,44.6c0,0-11.9,17-13.7,23C-528.1-76-516.2-80-511-44.8z"/>
</g>
<path class="st1" d="M188.2,70.2h-63.5v21.1c0-0.5,0-1,0.1-1.5v1.5c0-2.1,0.6-3.9,2-5.3c0.1-0.1,0.2-0.2,0.3-0.3v-0.1l0,0v0.1
	c1.4-1.2,3.4-1.8,5.8-1.8c2.4,0,5,0.4,8,1.3c3.1,0.8,6.3,2.1,9.9,3.8s7.2,3.8,10.9,6.1c3.8,2.4,6.9,5.2,7.1,5.3
	c0.1,0.1,0.2,0.1,0.3,0.2c0.2,0.2,0.5,0.4,0.7,0.4l0,0c0.1,0,0.1,0,0.2,0.1c0.5,0.2,1,0.3,1.5,0.3c0.9,0,1.8-0.3,2.5-0.9l0,0
	c0.3-0.2,0.5-0.5,0.7-0.8l0,0l0,0v-0.1l13.3-20.1v-9.2H188.2z"/>
<path class="st1" d="M189.1,154.7v9.1c0,8.1-1.8,15.3-5.3,21.3c-3.5,6-7.9,11-13.6,14.9c-5.6,3.9-11.8,6.8-19,8.7
	c-7,1.9-14.1,2.8-21.2,2.8c-14.2,0-26.2-2.6-35.9-7.7c-9.6-5.2-18.5-13-26.1-23.4v-9.1l60.4,11.9
	C128.6,183.1,189.1,158.8,189.1,154.7"/>
<path id="path2256_2_" class="st1" d="M139.2,142.8v25.8c0-3-1.6-5.6-4.7-8.1c-3.2-2.6-7.1-5.3-11.8-8c-4.7-2.8-9.8-5.8-15.3-9.1
	c-5.6-3.3-10.7-7.1-15.3-11.5c-4.7-4.4-8.7-9.5-11.8-15.2c-3.2-5.8-4.7-12.2-4.7-19.7v-9.1L139.2,142.8z"/>
<g id="path2308">
	<path class="st2" d="M172.5,116.9c4.9,4.4,8.8,9.7,11.9,15.8c3.2,6.1,4.7,13.5,4.7,21.9c0,8.1-1.8,15.3-5.3,21.3
		c-3.4,6.1-7.9,11-13.5,14.9c-5.6,3.9-11.8,6.8-19,8.7c-7,1.9-14.1,2.8-21.2,2.8c-14.2,0-26.2-2.6-35.9-7.7
		c-9.6-5.2-18.5-13-26.1-23.4l16.6-20.5c0.8-0.9,1.9-1.5,3-1.5c1.1,0,2,0.4,2.8,1.3c0.1,0.1,1.9,2.1,5.2,4.6
		c3.4,2.5,6.8,4.7,10.6,6.6c3.8,1.9,7.6,3.5,11.6,4.7c4,1.3,7.6,1.8,11,1.8c3.4,0,6-0.6,7.7-1.8c1.8-1.3,2.6-3.5,2.6-6.8
		c0-3-1.6-5.6-4.7-8.1c-3.2-2.6-7.1-5.3-11.8-8c-4.7-2.8-9.8-5.8-15.3-9.1c-5.6-3.3-10.7-7.1-15.3-11.5c-4.7-4.6-8.7-9.6-11.8-15.3
		c-3.2-5.8-4.7-12.2-4.7-19.7c0-7.3,1.4-13.7,4.2-19.1c2.8-5.5,6.4-10,11.3-13.8c4.7-3.8,10.1-6.4,16.4-8.4
		c6.1-1.9,12.8-2.8,19.6-2.8c12.3,0,23.4,2.2,33.2,6.6c9.8,4.5,19.1,11.1,28,19.9L175,90.3c-0.7,1.2-2,1.8-3.3,1.8
		c-0.9,0-1.8-0.3-2.6-0.9c-0.2-0.1-3.4-2.8-7.1-5.3c-3.7-2.3-7.3-4.4-10.9-6.1c-3.6-1.7-6.9-3-9.9-3.8c-3.2-0.8-5.8-1.3-8.1-1.3
		c-2.8,0-4.9,0.7-6.1,2.1c-1.3,1.4-2,3.2-2,5.3c0,2.7,1.6,5.3,4.7,7.6c3.2,2.4,7.1,4.9,11.9,7.3c5.3,2.7,10.3,5.6,15.4,8.4
		C162.5,108.8,167.6,112.5,172.5,116.9z"/>
</g>
</svg>
