<svg xmlns="http://www.w3.org/2000/svg" xml:space="preserve" width="256" height="256" viewBox="0 0 341.333 341.333"><path d="M170.667 90.667S33.845 92.143 16.977 189.58c-2.26 13.052-.702 26.702 5.743 38.33 6.19 11.166 17.39 22.332 37.432 22.332 0 0 15.017 3.813 35.04-11.438 20.021-15.249 56.587-20.694 75.475-20.694s53.356 8.554 75.474 20.694c21.611 11.862 35.04 11.438 35.04 11.438 20.043 0 31.243-11.166 37.432-22.332 6.446-11.628 8.003-25.278 5.743-38.33-16.868-97.438-153.69-98.914-153.69-98.914" style="fill:#34495e;fill-opacity:1;fill-rule:nonzero;stroke:none;stroke-width:1.33333325"/><path d="M99.355 118.364h-.002c-13.818.001-28.122 5.05-40.277 14.215-26.436 19.934-34.95 53.701-18.98 75.27 8.084 10.92 21.436 17.182 36.63 17.182 13.817 0 28.12-5.048 40.277-14.215 26.436-19.935 34.95-53.701 18.98-75.27-8.086-10.92-21.435-17.182-36.628-17.182" style="fill:#2c3e50;fill-opacity:1;fill-rule:nonzero;stroke:none;stroke-width:1.33333325"/><path d="M99.167 129.03c11.469 0 21.79 4.333 28.158 12.957 12.486 16.912 5.018 43.924-16.68 60.333-10.632 8.04-22.712 12.044-33.733 12.044-11.47 0-21.792-4.332-28.159-12.956-12.485-16.912-5.017-43.924 16.679-60.333 10.633-8.04 22.713-12.043 33.735-12.044" style="fill:#34495e;fill-opacity:1;fill-rule:nonzero;stroke:none;stroke-width:1.33333325"/><path d="M242.018 117.333c-15.194 0-28.543 6.263-36.628 17.182-15.97 21.569-7.456 55.336 18.98 75.27C236.527 218.952 250.83 224 264.646 224c15.194 0 28.546-6.263 36.63-17.181 15.97-21.57 7.456-55.336-18.98-75.271-12.154-9.165-26.458-14.213-40.277-14.215z" style="fill:#2c3e50;fill-opacity:1;fill-rule:nonzero;stroke:none;stroke-width:1.33333325"/><path d="M242.206 128c11.021.001 23.101 4.004 33.735 12.044 21.696 16.41 29.164 43.421 16.678 60.333-6.366 8.624-16.69 12.956-28.158 12.956-11.022 0-23.102-4.004-33.734-12.044-21.697-16.409-29.165-43.421-16.68-60.333 6.368-8.624 16.69-12.957 28.159-12.956" style="fill:#34495e;fill-opacity:1;fill-rule:nonzero;stroke:none;stroke-width:1.33333325"/><path d="M120 170.667c0 17.673-14.327 32-32 32s-32-14.327-32-32 14.327-32 32-32 32 14.326 32 32" style="fill:#7f8c8d;fill-opacity:1;fill-rule:nonzero;stroke:none;stroke-width:1.33333325"/><path d="M114.667 162.667H96V144H80v18.667H61.333v16H80v18.666h16v-18.666h18.667z" style="fill:#95a5a6;fill-opacity:1;fill-rule:nonzero;stroke:none;stroke-width:1.33333325"/><path d="m106.667 149.333-5.334 2.23 3.104 3.104zm-37.334 0 5.334 2.23-3.104 3.104zm0 42.667 5.334-2.23-3.104-3.103zm37.334 0-5.334-2.23 3.104-3.103z" style="fill:#95a5a6;fill-opacity:1;fill-rule:nonzero;stroke:none;stroke-width:1.33333325"/><path d="M96 170.667a8 8 0 0 1-8 8 8 8 0 0 1-8-8 8 8 0 0 1 8-8 8 8 0 0 1 8 8" style="fill:#7f8c8d;fill-opacity:1;fill-rule:nonzero;stroke:none;stroke-width:1.33333325"/><path d="M178.223 170.667H163.11c-3.19 0-5.777-2.387-5.777-5.33v-.008c0-2.942 2.586-5.329 5.777-5.329h15.113c3.191 0 5.776 2.387 5.776 5.33v.007c0 2.943-2.585 5.33-5.776 5.33" style="fill:#bdc3c7;fill-opacity:1;fill-rule:nonzero;stroke:none;stroke-width:1.33333325"/><path d="M245.333 194.667c0 7.364-5.969 13.333-13.333 13.333s-13.333-5.97-13.333-13.333 5.969-13.334 13.333-13.334 13.333 5.97 13.333 13.334m29.334-13.334c0 7.364-5.97 13.334-13.334 13.334S248 188.697 248 181.333 253.97 168 261.333 168s13.334 5.97 13.334 13.333M304 168c0 7.364-5.97 13.333-13.333 13.333s-13.334-5.969-13.334-13.333 5.97-13.333 13.334-13.333S304 160.636 304 168" style="fill:#7f8c8d;fill-opacity:1;fill-rule:nonzero;stroke:none;stroke-width:1.33333325"/><path d="M226.667 170.667c0 5.89-4.776 10.666-10.667 10.666-5.89 0-10.667-4.776-10.667-10.666S210.11 160 216 160s10.667 4.776 10.667 10.667M256 157.333c0 5.891-4.776 10.667-10.667 10.667-5.89 0-10.666-4.776-10.666-10.667 0-5.89 4.776-10.666 10.666-10.666S256 151.443 256 157.333M285.333 144c0 5.89-4.776 10.667-10.666 10.667S264 149.89 264 144s4.776-10.667 10.667-10.667c5.89 0 10.666 4.776 10.666 10.667" style="fill:#bdc3c7;fill-opacity:1;fill-rule:nonzero;stroke:none;stroke-width:1.33333325"/><path d="M119.702 106.517c8.165-2.044 51.218-11.595 101.776.077.768.177 1.586.027 2.205-.417l4.688-3.363c1.57-1.127 1.148-3.361-.76-3.93-14.144-4.226-61.277-15.763-113.864-.715-1.807.517-2.34 2.596-.99 3.79l4.493 3.982c.644.572 1.58.794 2.452.576" style="fill:#2c3e50;fill-opacity:1;fill-rule:nonzero;stroke:none;stroke-width:1.33333325"/></svg>