<svg xmlns="http://www.w3.org/2000/svg" width="64" height="64"><g style="display:inline"><path d="M4 13.5h56c1 0 3 .5 3 1.5v31c0 2-3.012 3.78-5 4-18 2-34.223 1.998-52 0-1.99-.224-5-2-5-4V15c0-1 2-1.5 3-1.5" style="fill:#95a5a6;fill-opacity:1;stroke:none"/><path d="M62 14v32c0 2-2 3-4 4-18 2-34.223 1.998-52 0-1.99-.224-4-2-4-4V14c0-2 60-2 60 0" style="fill:#bdc3c7;fill-opacity:1;stroke:none"/><path d="M16.994 14h30.012c.55 0 .994.446.994 1v30c0 1-32 1-32 0V15c0-.554.443-1 .994-1" style="fill:#95a5a6;fill-opacity:1;stroke:none"/><path d="M18.994 17h26.012c.55 0 .994.446.994 1v25c0 1-28 1-28 0V18c0-.554.443-1 .994-1" style="fill:#2c3e50;fill-opacity:1;stroke:none"/><rect width="24" height="23" x="20" y="19" rx="0" ry="0" style="fill:#7f8c8d;fill-opacity:1;stroke:none"/><rect width="4" height="2" x="4" y="19" rx=".994" ry="1" style="fill:#2c3e50;fill-opacity:1;stroke:none"/><rect width="2" height="2" x="11" y="19" rx=".994" ry="1" style="fill:#2c3e50;fill-opacity:1;stroke:none"/><path d="M55 29.5a2.5 2.5 0 1 1-5 0 2.5 2.5 0 1 1 5 0" style="fill:#2c3e50;fill-opacity:1;stroke:none"/><path d="M55 29.5a2.5 2.5 0 1 1-5 0 2.5 2.5 0 1 1 5 0" style="fill:#2c3e50;fill-opacity:1;stroke:none;display:inline" transform="translate(5 -4)"/><path d="M14.465 29.232a5.232 5.232 0 1 1-10.465 0 5.232 5.232 0 1 1 10.465 0" style="fill:#34495e;fill-opacity:1;stroke:none"/><path d="M12 29a3 3 0 1 1-6 0 3 3 0 1 1 6 0m48-11.5a1.5 1.5 0 1 1-3 0 1.5 1.5 0 1 1 3 0" style="fill:#2c3e50;fill-opacity:1;stroke:none" transform="translate(-1)"/><path d="M7 39.75a.25.25 0 1 1-.5 0 .25.25 0 1 1 .5 0" style="fill:#2c3e50;fill-opacity:1;stroke:none" transform="matrix(2 0 0 2 -7 -40)"/><path d="M7 39.75a.25.25 0 1 1-.5 0 .25.25 0 1 1 .5 0" style="fill:#2c3e50;fill-opacity:1;stroke:none;display:inline" transform="matrix(2 0 0 2 -5.5 -40)"/><path d="M7 39.75a.25.25 0 1 1-.5 0 .25.25 0 1 1 .5 0" style="fill:#2c3e50;fill-opacity:1;stroke:none;display:inline" transform="matrix(2 0 0 2 -2.5 -40)"/><path d="M7 39.75a.25.25 0 1 1-.5 0 .25.25 0 1 1 .5 0" style="fill:#2c3e50;fill-opacity:1;stroke:none;display:inline" transform="matrix(2 0 0 2 -4 -40)"/><path d="M7 39.75a.25.25 0 1 1-.5 0 .25.25 0 1 1 .5 0" style="fill:#2c3e50;fill-opacity:1;stroke:none;display:inline" transform="matrix(2 0 0 2 -1 -40)"/><path d="M7 39.75a.25.25 0 1 1-.5 0 .25.25 0 1 1 .5 0" style="fill:#2c3e50;fill-opacity:1;stroke:none;display:inline" transform="matrix(2 0 0 2 -7 -38.5)"/><path d="M7 39.75a.25.25 0 1 1-.5 0 .25.25 0 1 1 .5 0" style="fill:#2c3e50;fill-opacity:1;stroke:none;display:inline" transform="matrix(2 0 0 2 -5.5 -38.5)"/><path d="M7 39.75a.25.25 0 1 1-.5 0 .25.25 0 1 1 .5 0" style="fill:#2c3e50;fill-opacity:1;stroke:none;display:inline" transform="matrix(2 0 0 2 -2.5 -38.5)"/><path d="M7 39.75a.25.25 0 1 1-.5 0 .25.25 0 1 1 .5 0" style="fill:#2c3e50;fill-opacity:1;stroke:none;display:inline" transform="matrix(2 0 0 2 -4 -38.5)"/><path d="M7 39.75a.25.25 0 1 1-.5 0 .25.25 0 1 1 .5 0" style="fill:#2c3e50;fill-opacity:1;stroke:none;display:inline" transform="matrix(2 0 0 2 -1 -38.5)"/><path d="M7 39.75a.25.25 0 1 1-.5 0 .25.25 0 1 1 .5 0" style="fill:#2c3e50;fill-opacity:1;stroke:none;display:inline" transform="matrix(2 0 0 2 -7 -37)"/><path d="M7 39.75a.25.25 0 1 1-.5 0 .25.25 0 1 1 .5 0" style="fill:#2c3e50;fill-opacity:1;stroke:none;display:inline" transform="matrix(2 0 0 2 -5.5 -37)"/><path d="M7 39.75a.25.25 0 1 1-.5 0 .25.25 0 1 1 .5 0" style="fill:#2c3e50;fill-opacity:1;stroke:none;display:inline" transform="matrix(2 0 0 2 -2.5 -37)"/><path d="M7 39.75a.25.25 0 1 1-.5 0 .25.25 0 1 1 .5 0" style="fill:#2c3e50;fill-opacity:1;stroke:none;display:inline" transform="matrix(2 0 0 2 -4 -37)"/><path d="M7 39.75a.25.25 0 1 1-.5 0 .25.25 0 1 1 .5 0" style="fill:#2c3e50;fill-opacity:1;stroke:none;display:inline" transform="matrix(2 0 0 2 -1 -37)"/><path d="M7 39.75a.25.25 0 1 1-.5 0 .25.25 0 1 1 .5 0" style="fill:#2c3e50;fill-opacity:1;stroke:none;display:inline" transform="matrix(2 0 0 2 -7 -35.5)"/><path d="M7 39.75a.25.25 0 1 1-.5 0 .25.25 0 1 1 .5 0" style="fill:#2c3e50;fill-opacity:1;stroke:none;display:inline" transform="matrix(2 0 0 2 -5.5 -35.5)"/><path d="M7 39.75a.25.25 0 1 1-.5 0 .25.25 0 1 1 .5 0" style="fill:#2c3e50;fill-opacity:1;stroke:none;display:inline" transform="matrix(2 0 0 2 -2.5 -35.5)"/><path d="M7 39.75a.25.25 0 1 1-.5 0 .25.25 0 1 1 .5 0" style="fill:#2c3e50;fill-opacity:1;stroke:none;display:inline" transform="matrix(2 0 0 2 -4 -35.5)"/><path d="M7 39.75a.25.25 0 1 1-.5 0 .25.25 0 1 1 .5 0" style="fill:#2c3e50;fill-opacity:1;stroke:none;display:inline" transform="matrix(2 0 0 2 -1 -35.5)"/></g></svg>