<svg xmlns="http://www.w3.org/2000/svg" width="64" height="64"><path d="m9.495 16 4.075.002L13.568 19l-9.578-.005C6.346 16.549 7.313 15.999 9.495 16m45.062 0-4.074.018.002 2.985 9.575-.006C57.705 16.55 56.739 16 54.556 16M8.776 43.998l3.256.002.001-.82H8.776s-1.993.402-3.794-1.497c-.883 0-1.342-.007-1.342-.007 1.815 1.919 3.267 2.321 5.136 2.322" style="fill:#ecf0f1;fill-opacity:1;fill-rule:evenodd;stroke:none"/><path d="M64 30c0-5-2-9-4-11 0 0-3.353.047-5 0l-3-3H32v28h20l3-2h5c2-2 4-7 4-12M0 30c0-5 2-9 4-11h5l3-3h20v28H12l-3-2H4c-2-2-4-7-4-12" style="fill:#2c3e50;fill-opacity:1;fill-rule:evenodd;stroke:none"/><path d="M14 19h36v21H14Z" style="fill:#7f8c8d;fill-opacity:1;fill-rule:evenodd;stroke:none"/><path d="M52.47 28.721a4.41 4.41 0 0 1 4.412-4.408 4.41 4.41 0 1 1-4.413 4.408" style="fill:#34495e;fill-opacity:1;fill-rule:evenodd;stroke:none"/><path d="M52.61 28.716a4.276 4.276 0 0 1 4.279-4.273 4.276 4.276 0 1 1-4.28 4.273" style="fill:#2c3e50;fill-opacity:1;fill-rule:evenodd;stroke:none"/><path d="M5.805 26.266s.869 1.256 1.529 1.257c.676 0 1.594-1.255 1.594-1.255l.001-2.092a8.6 8.6 0 0 0-3.123-.002zm-.003 4.861s.87-1.255 1.53-1.255c.677 0 1.594 1.257 1.594 1.257l-.001 2.092A8.6 8.6 0 0 1 5.8 33.22zm3.996-3.843s-1.257.868-1.257 1.528c0 .675 1.255 1.593 1.255 1.593h2.094a8.6 8.6 0 0 0 .001-3.12zm-4.864-.003s1.256.87 1.255 1.53c0 .675-1.257 1.591-1.257 1.591H2.84c-.183-.994-.197-2 .001-3.122zm.681 10.137a1.958 1.958 0 1 1 3.915.003 1.958 1.958 0 0 1-3.915-.003M55.272 24.99a1.7 1.7 0 1 1 3.4.002 1.7 1.7 0 0 1-3.4-.001m-.004 7.374a1.7 1.7 0 1 1 3.4.001 1.7 1.7 0 0 1-3.4-.001m5.392-5.192a1.7 1.7 0 1 1-.002 3.402 1.7 1.7 0 0 1 .001-3.402m-7.377-.003a1.7 1.7 0 1 1 0 3.4 1.7 1.7 0 0 1 0-3.4m-4.576 14.217 3.2.002c.63.308.63 1.055-.001 1.394l-3.2-.002c-.665-.404-.63-.99 0-1.394m-4.537 0 3.2.002c.631.308.63 1.055 0 1.394l-3.2-.002c-.666-.404-.63-.99 0-1.394" style="fill:#7f8c8d;fill-opacity:1;fill-rule:evenodd;stroke:none"/><path d="M59.84 28.887a.824.824 0 1 1 1.648.001.824.824 0 0 1-1.648 0m-2.878-4.873.875 1.556-1.752-.001zM52.55 28.13l1.444.001-.001 1.442H52.55zm3.754 3.72.109-.11 1.202 1.203-.11.109z" style="fill:#ecf0f1;fill-opacity:1;fill-rule:evenodd;stroke:none"/><path d="M59.99 28.887a.675.675 0 1 1 1.35.002.675.675 0 0 1-1.35-.002m-3.024-4.607.65 1.165h-1.302zm-4.27 3.995h1.154v1.154h-1.155z" style="fill:#7f8c8d;fill-opacity:1;fill-rule:evenodd;stroke:none"/><path d="m57.506 31.74.11.11-1.204 1.201-.109-.11z" style="fill:#ecf0f1;fill-opacity:1;fill-rule:evenodd;stroke:none"/><path d="m13.314 41.097 2.871-.007c.874.44.873 1.507 0 1.993l-2.872.007c-.921-.578-.873-1.415 0-1.993" style="fill:#7f8c8d;fill-opacity:1;fill-rule:evenodd;stroke:none"/></svg>