<?xml version="1.0" encoding="utf-8"?>
<!-- Generator: Adobe Illustrator 24.1.1, SVG Export Plug-In . SVG Version: 6.00 Build 0)  -->
<svg version="1.1" id="Layer_1" xmlns="http://www.w3.org/2000/svg" xmlns:xlink="http://www.w3.org/1999/xlink" x="0px" y="0px"
	 viewBox="0 0 64 64" style="enable-background:new 0 0 64 64;" xml:space="preserve">
<style type="text/css">
	.st0{fill:#ECF0F1;}
	.st1{fill:#7F8C8D;}
	.st2{fill:#3498DB;}
	.st3{fill:#2C3E50;}
</style>
<g id="svg2" xmlns:cc="http://creativecommons.org/ns#" xmlns:dc="http://purl.org/dc/elements/1.1/" xmlns:inkscape="http://www.inkscape.org/namespaces/inkscape" xmlns:rdf="http://www.w3.org/1999/02/22-rdf-syntax-ns#" xmlns:sodipodi="http://sodipodi.sourceforge.net/DTD/sodipodi-0.dtd" xmlns:svg="http://www.w3.org/2000/svg">
	
		<sodipodi:namedview  bordercolor="#666666" borderopacity="1" gridtolerance="10" guidetolerance="10" id="namedview216" inkscape:current-layer="svg2" inkscape:cx="207.95812" inkscape:cy="22.909177" inkscape:pagecheckerboard="true" inkscape:pageopacity="0" inkscape:pageshadow="2" inkscape:snap-object-midpoints="true" inkscape:window-height="705" inkscape:window-maximized="1" inkscape:window-width="1024" inkscape:window-x="-8" inkscape:window-y="-8" inkscape:zoom="11.062499" objecttolerance="10" pagecolor="#ffffff" showgrid="false">
		</sodipodi:namedview>
	<g id="g22" transform="matrix(1.3333333,0,0,-1.3333333,0,341.33333)">
	</g>
</g>
<g>
	<g id="Layer_2_2_">
		<path class="st0" d="M39.9,9.9c0,0-0.7,2.9-1.7,3.7c-0.9,0.7-6.2,0.7-6.2,0.7s-5.3,0-6.2-0.6c-1-0.8-1.5-3.8-1.5-3.8l0,0
			c2.4-0.7,5-1,7.6-1C34.7,8.8,37.3,9.1,39.9,9.9L39.9,9.9z"/>
		<path class="st0" d="M35,14.5h-6l-1.9-3.4c0,0,0.9-0.2,4.9-0.2s4.9,0.2,4.9,0.2L35,14.5z"/>
		<path class="st0" d="M11.8,36.5c0,0,0,8.1,0.6,10.5c0.6,2.5,1.3,3.6,3.2,4.4c4,1.5,16.5,1.4,16.5,1.4s12.3,0.1,16.3-1.4
			c1.8-0.8,2.7-1.9,3.3-4.4c0.5-2.4,0.6-10.5,0.6-10.5s0-8.1-0.6-10.5c-0.6-2.5-2.4-4.3-4.2-5.1c-4-1.5-15.4-1.7-15.4-1.7
			s-11.5,0.2-15.5,1.7c-1.8,0.8-3.6,2.6-4.2,5.1C11.8,28.3,11.8,36.5,11.8,36.5z"/>
		<path class="st0" d="M35,14.5c0-1.2,0.7-3.4,1.9-3.4c0.4,0,2.5,0.4,2.5,0.4l-0.1,2.8L35,14.5z"/>
		<path class="st0" d="M29,14.5c0-1.2-0.7-3.4-1.9-3.4c-0.4,0-2.5,0.4-2.5,0.4l0.2,2.8L29,14.5z"/>
		<path class="st0" d="M45.2,49.8H18.8c-0.5,0-0.9-0.4-0.9-0.9V23.6c0-0.5,0.4-0.9,0.9-0.9h26.4c0.5,0,0.9,0.4,0.9,0.9v25.3
			C46.1,49.4,45.7,49.8,45.2,49.8z"/>
		<path class="st0" d="M22.7,10.4c0,0,0.6,3.4,1.8,4.4c1.2,0.9,7.5,0.9,7.5,0.9s6.4,0,7.5-0.9c1.2-0.9,1.8-4.4,1.8-4.4l-1.5-0.5
			c0,0-0.7,2.9-1.7,3.7c-0.8,0.7-6.1,0.7-6.1,0.7s-5.3,0-6.2-0.6c-1-0.8-1.5-3.8-1.5-3.8L22.7,10.4z"/>
		<g>
			<path class="st0" d="M60,47.4V36.8l0,0c0-15.5-12.5-28-28-28S4,21.3,4,36.8l0,0v10.6h3.1v4.3c0,0.7,0.5,1.3,1.2,1.4
				c3.1,0.6,11.4,2.2,23.7,2.2s20.6-1.5,23.7-2.2c0.7-0.1,1.2-0.7,1.2-1.4v-4.3L60,47.4L60,47.4z"/>
		</g>
	</g>
	<g id="Layer_2_1_">
		<g>
			<path class="st1" d="M32,14.3c0,0,1.6,0,3.2-0.1l1.7-3c0,0-0.9-0.2-4.9-0.2s-4.9,0.2-4.9,0.2l1.7,3C30.4,14.3,32,14.3,32,14.3z"
				/>
			<path class="st2" d="M38.2,13.6c0.5-0.4,0.9-1.3,1.2-2.1c-0.3-0.1-2.1-0.4-2.5-0.4c-1.1,0-1.8,1.9-1.9,3.1
				C36.4,14.1,37.8,13.9,38.2,13.6z"/>
			<path class="st2" d="M25.8,13.6c0.4,0.3,1.8,0.5,3.2,0.6c-0.1-1.2-0.8-3.1-1.9-3.1c-0.3,0-1.8,0.3-2.4,0.3
				C25,12.3,25.3,13.2,25.8,13.6z"/>
		</g>
	</g>
	<path class="st3" d="M11.8,36.5c0,0,0,8.1,0.6,10.5c0.6,2.5,1.3,3.6,3.2,4.4c4,1.5,16.5,1.4,16.5,1.4s12.3,0.1,16.3-1.4
		c1.8-0.8,2.7-1.9,3.3-4.4c0.5-2.4,0.6-10.5,0.6-10.5s0-8.1-0.6-10.5c-0.6-2.5-2.4-4.3-4.2-5.1c-4-1.5-15.4-1.7-15.4-1.7
		s-11.5,0.2-15.5,1.7c-1.8,0.8-3.6,2.6-4.2,5.1C11.8,28.3,11.8,36.5,11.8,36.5z"/>
	<path class="st2" d="M45.2,49.8H18.8c-0.5,0-0.9-0.4-0.9-0.9V23.6c0-0.5,0.4-0.9,0.9-0.9h26.4c0.5,0,0.9,0.4,0.9,0.9v25.3
		C46.1,49.4,45.7,49.8,45.2,49.8z"/>
	<g>
		<path class="st3" d="M28.5,40.3l-1.1,0.4C26.8,41,26,41,25.5,40.8c-0.5-0.2-0.4-0.4,0.2-0.6l2.8-1v-1.8l-4,1.4
			c0,0-1.1,0.4-1.7,0.8c-0.7,0.5-0.4,1.4,1.1,1.8c1.6,0.5,3.2,0.6,4.7,0.4L28.5,40.3L28.5,40.3z"/>
		<path class="st3" d="M34,32.5v4.6c2,0.9,3.5,0,3.5-2.5c0-2.6-0.9-3.7-3.6-4.6c-1-0.4-3-0.9-4.3-1.2v5.8v8l3.1,1V32.1
			c0-0.5,0.2-0.9,0.6-0.8C33.9,31.4,34,31.9,34,32.5z"/>
		<path class="st3" d="M40.2,38.6c-1.3-0.5-3-0.7-4.3-0.5c-0.9,0.1-1.6,0.3-2,0.4v1.8l2.8-1c0.6-0.2,1.4-0.2,1.9-0.1
			c0.5,0.2,0.4,0.4-0.2,0.6l-4.5,1.6v1.9l6.3-2.3c0,0,0.9-0.3,1.3-0.8C41.8,39.8,41.7,39,40.2,38.6z"/>
	</g>
</g>
</svg>
