<?xml version="1.0" encoding="utf-8"?>
<!-- Generator: Adobe Illustrator 24.1.1, SVG Export Plug-In . SVG Version: 6.00 Build 0)  -->
<svg version="1.1" id="Layer_1" xmlns="http://www.w3.org/2000/svg" xmlns:xlink="http://www.w3.org/1999/xlink" x="0px" y="0px"
	 viewBox="0 0 256 256" style="enable-background:new 0 0 256 256;" xml:space="preserve">
<style type="text/css">
	.st0{fill:#F1C40F;}
	.st1{fill:#ECF0F1;}
</style>
<path class="st0" d="M127.5,43c0,0,22.2,36.9,36.6,77.3c14.4,40.4,19.9,91.2,19.9,91.2s-24.6-48.9-46.3-48.9
	c-30.8,0-63.1,50.3-63.1,50.3S76,167.4,89,124.6S121.6,49.7,127.5,43z"/>
<path class="st1" d="M87.6,175.8c-0.3,1.8,2.1,2.9,3.2,1.4c7.7-9.7,25.6-28.6,46.4-28.6c10.1,0,20.4,10,26.3,16.9
	c1.2,1.5,3.6,0.2,3.2-1.6c-12.5-53.3-32.6-86.3-38.1-94.7c-0.7-1.1-2.2-1.1-3-0.1C99.7,104,90.2,156.9,87.6,175.8z"/>
</svg>
