<?xml version="1.0" encoding="utf-8"?>
<!-- Generator: Adobe Illustrator 25.0.1, SVG Export Plug-In . SVG Version: 6.00 Build 0)  -->
<svg version="1.1"
	 id="svg2" xmlns:cc="http://creativecommons.org/ns#" xmlns:dc="http://purl.org/dc/elements/1.1/" xmlns:inkscape="http://www.inkscape.org/namespaces/inkscape" xmlns:rdf="http://www.w3.org/1999/02/22-rdf-syntax-ns#" xmlns:sodipodi="http://sodipodi.sourceforge.net/DTD/sodipodi-0.dtd" xmlns:svg="http://www.w3.org/2000/svg"
	 xmlns="http://www.w3.org/2000/svg" xmlns:xlink="http://www.w3.org/1999/xlink" x="0px" y="0px" viewBox="0 0 256 256"
	 style="enable-background:new 0 0 256 256;" xml:space="preserve">
<style type="text/css">
	.st0{fill:#C0392B;}
	.st1{fill:#2C3E50;}
	.st2{fill:#34495E;}
	.st3{fill:#BDC3C7;}
</style>
<sodipodi:namedview  bordercolor="#666666" borderopacity="1" gridtolerance="10" guidetolerance="10" id="namedview37" inkscape:current-layer="svg2" inkscape:cx="170.66667" inkscape:cy="170.66667" inkscape:pagecheckerboard="true" inkscape:pageopacity="0" inkscape:pageshadow="2" inkscape:window-height="705" inkscape:window-maximized="1" inkscape:window-width="1024" inkscape:window-x="-8" inkscape:window-y="-8" inkscape:zoom="0.69140623" objecttolerance="10" pagecolor="#ffffff" showgrid="false">
	</sodipodi:namedview>
<g id="g36" transform="matrix(1.3333333,0,0,-1.3333333,319.99999,293.33333)">
	<path id="path38" inkscape:connector-curvature="0" class="st0" d="M-60,55h-168c-1.7,0-3,1.3-3,3v132c0,1.7,1.3,3,3,3h168
		c1.7,0,3-1.3,3-3V58C-57,56.3-58.3,55-60,55"/>
</g>
<path id="path40" inkscape:connector-curvature="0" class="st1" d="M244,56H12v-4h232V56z"/>
<path id="path42" inkscape:connector-curvature="0" class="st1" d="M244,64H12v-4h232V64z"/>
<path id="path44" inkscape:connector-curvature="0" class="st1" d="M244,72H12v-4h232V72z"/>
<path id="path46" inkscape:connector-curvature="0" class="st1" d="M244,80H12v-4h232V80z"/>
<path id="path48" inkscape:connector-curvature="0" class="st1" d="M244,88H12v-4h232V88z"/>
<path id="path50" inkscape:connector-curvature="0" class="st1" d="M244,96H12v-4h232V96z"/>
<path id="path52" inkscape:connector-curvature="0" class="st1" d="M244,104H12v-4h232V104z"/>
<path id="path54" inkscape:connector-curvature="0" class="st1" d="M244,112H12v-4h232V112z"/>
<path id="path56" inkscape:connector-curvature="0" class="st1" d="M244,120H12v-4h232V120z"/>
<path id="path58" inkscape:connector-curvature="0" class="st1" d="M244,128H12v-4h232V128z"/>
<path id="path60" inkscape:connector-curvature="0" class="st2" d="M176,220H80V36h96V220z"/>
<path id="path62" inkscape:connector-curvature="0" class="st3" d="M47,163h42v22H47V163z"/>
<g id="g64" transform="matrix(1.3333333,0,0,-1.3333333,120,216)">
	<path id="path66" inkscape:connector-curvature="0" class="st0" d="M-22.5,40.5H-24h-30h-1.5V39V24v-1.5h1.5h30h1.5V24v15V40.5z
		 M-24,24h-30v15h30V24z"/>
</g>
<path id="path68" inkscape:connector-curvature="0" class="st3" d="M163,163h42v22h-42L163,163z"/>
<g id="g70" transform="matrix(1.3333333,0,0,-1.3333333,274.66666,216)">
	<path id="path72" inkscape:connector-curvature="0" class="st0" d="M-51.5,40.5H-53h-30h-1.5V39V24v-1.5h1.5h30h1.5V24v15V40.5z
		 M-53,24h-30v15h30V24z"/>
</g>
</svg>
