<svg xmlns="http://www.w3.org/2000/svg" xml:space="preserve" width="64" height="64"><path d="M20 14a2 2 0 0 0-2 2v32a2 2 0 0 0 2 2h24a2 2 0 0 0 2-2V16a2 2 0 0 0-2-2z" style="fill:#95a5a6;fill-opacity:1"/><path d="M28 14v20c0 1.108.892 2 2 2h4c1.108 0 2-.892 2-2V14z" style="opacity:1;vector-effect:none;fill:#7f8c8d;fill-opacity:1;stroke:none;stroke-width:10;stroke-linecap:butt;stroke-linejoin:miter;stroke-miterlimit:4;stroke-dasharray:none;stroke-dashoffset:0;stroke-opacity:1;paint-order:stroke fill markers"/><path d="M30 14h4v20h-4z" style="opacity:1;vector-effect:none;fill:#bdc3c7;fill-opacity:1;stroke:none;stroke-width:10;stroke-linecap:butt;stroke-linejoin:miter;stroke-miterlimit:4;stroke-dasharray:none;stroke-dashoffset:0;stroke-opacity:1;paint-order:stroke fill markers"/><path d="M32 14h2v2h-2zm-2 2h2v2h-2zm2 2h2v2h-2z" style="opacity:1;vector-effect:none;fill:#ecf0f1;fill-opacity:1;stroke:none;stroke-width:10;stroke-linecap:butt;stroke-linejoin:miter;stroke-miterlimit:4;stroke-dasharray:none;stroke-dashoffset:0;stroke-opacity:1;paint-order:stroke fill markers"/><path d="M-32 20h2v2h-2zm-2 2h2v2h-2zm2 2h2v2h-2z" style="opacity:1;vector-effect:none;fill:#ecf0f1;fill-opacity:1;stroke:none;stroke-width:10;stroke-linecap:butt;stroke-linejoin:miter;stroke-miterlimit:4;stroke-dasharray:none;stroke-dashoffset:0;stroke-opacity:1;paint-order:stroke fill markers" transform="scale(-1 1)"/><path d="M32 26h2v2h-2zm-2 2h2v2h-2z" style="opacity:1;vector-effect:none;fill:#ecf0f1;fill-opacity:1;stroke:none;stroke-width:10;stroke-linecap:butt;stroke-linejoin:miter;stroke-miterlimit:4;stroke-dasharray:none;stroke-dashoffset:0;stroke-opacity:1;paint-order:stroke fill markers"/><path d="M25-4h2v2h-2z" style="opacity:1;vector-effect:none;fill:#bdc3c7;fill-opacity:1;stroke:none;stroke-width:10;stroke-linecap:butt;stroke-linejoin:miter;stroke-miterlimit:4;stroke-dasharray:none;stroke-dashoffset:0;stroke-opacity:1;paint-order:stroke fill markers"/><path d="M-32 32h2v2h-2zm7-36h2v2h-2z" style="opacity:1;vector-effect:none;fill:#ecf0f1;fill-opacity:1;stroke:none;stroke-width:10;stroke-linecap:butt;stroke-linejoin:miter;stroke-miterlimit:4;stroke-dasharray:none;stroke-dashoffset:0;stroke-opacity:1;paint-order:stroke fill markers" transform="scale(-1 1)"/><path d="M-25-4h2v2h-2z" style="opacity:1;vector-effect:none;fill:#ecf0f1;fill-opacity:1;stroke:none;stroke-width:10;stroke-linecap:butt;stroke-linejoin:miter;stroke-miterlimit:4;stroke-dasharray:none;stroke-dashoffset:0;stroke-opacity:1;paint-order:stroke fill markers" transform="scale(-1 1)"/><path d="M32 30h2v2h-2z" style="opacity:1;vector-effect:none;fill:#ecf0f1;fill-opacity:1;stroke:none;stroke-width:10;stroke-linecap:butt;stroke-linejoin:miter;stroke-miterlimit:4;stroke-dasharray:none;stroke-dashoffset:0;stroke-opacity:1;paint-order:stroke fill markers"/><path d="M27-4h2v2h-2z" style="opacity:1;vector-effect:none;fill:#95a5a6;fill-opacity:1;stroke:none;stroke-width:10;stroke-linecap:butt;stroke-linejoin:miter;stroke-miterlimit:4;stroke-dasharray:none;stroke-dashoffset:0;stroke-opacity:1;paint-order:stroke fill markers"/><path d="M29-4h2v2h-2z" style="opacity:1;vector-effect:none;fill:#7f8c8d;fill-opacity:1;stroke:none;stroke-width:10;stroke-linecap:butt;stroke-linejoin:miter;stroke-miterlimit:4;stroke-dasharray:none;stroke-dashoffset:0;stroke-opacity:1;paint-order:stroke fill markers"/><rect width="6" height="12" x="29" y="34" ry="2.4" style="opacity:1;vector-effect:none;fill:#ecf0f1;fill-opacity:1;stroke:#7f8c8d;stroke-width:2;stroke-linecap:butt;stroke-linejoin:miter;stroke-miterlimit:4;stroke-dasharray:none;stroke-dashoffset:0;stroke-opacity:1;paint-order:stroke fill markers"/><rect width="2" height="4.424" x="31" y="40" ry="1" style="opacity:1;vector-effect:none;fill:#95a5a6;fill-opacity:1;stroke:none;stroke-width:10;stroke-linecap:butt;stroke-linejoin:miter;stroke-miterlimit:4;stroke-dasharray:none;stroke-dashoffset:0;stroke-opacity:1;paint-order:stroke fill markers"/><circle cx="32" cy="37" r="1" style="opacity:1;vector-effect:none;fill:#95a5a6;fill-opacity:1;stroke:none;stroke-width:10;stroke-linecap:butt;stroke-linejoin:miter;stroke-miterlimit:4;stroke-dasharray:none;stroke-dashoffset:0;stroke-opacity:1;paint-order:stroke fill markers"/></svg>