<?xml version="1.0" encoding="UTF-8" standalone="no"?>
<svg
   xmlns:dc="http://purl.org/dc/elements/1.1/"
   xmlns:cc="http://creativecommons.org/ns#"
   xmlns:rdf="http://www.w3.org/1999/02/22-rdf-syntax-ns#"
   xmlns:svg="http://www.w3.org/2000/svg"
   xmlns="http://www.w3.org/2000/svg"
   viewBox="0 0 320 320"
   height="320"
   width="320"
   xml:space="preserve"
   version="1.1"
   id="svg2"><metadata
     id="metadata8"><rdf:RDF><cc:Work
         rdf:about=""><dc:format>image/svg+xml</dc:format><dc:type
           rdf:resource="http://purl.org/dc/dcmitype/StillImage" /></cc:Work></rdf:RDF></metadata><defs
     id="defs6"><clipPath
       id="clipPath16"
       clipPathUnits="userSpaceOnUse"><path
         id="path18"
         d="M 0,256 256,256 256,0 0,0 0,256 Z" /></clipPath><clipPath
       id="clipPath24"
       clipPathUnits="userSpaceOnUse"><path
         id="path26"
         d="m 74.6244,172 106.7516,0 0,-88 -106.7516,0 0,88 z" /></clipPath></defs><g
     transform="matrix(1.25,0,0,-1.25,0,320)"
     id="g10"><g
       id="g12"><g
         clip-path="url(#clipPath16)"
         id="g14"><g
           id="g20"><g
             id="g22" /><g
             id="g28"><g
               style="opacity:0.5"
               id="g30"
               clip-path="url(#clipPath24)"><g
                 id="g32"
                 transform="translate(154.4863,172)"><path
                   id="path34"
                   style="fill:#ffffff;fill-opacity:1;fill-rule:nonzero;stroke:none"
                   d="m 0,0 -4.486,0 -44,0 -4.487,0 -2.34,-3.829 -22,-36 -2.549,-4.171 2.549,-4.172 22,-36 2.34,-3.828 4.487,0 44,0 4.486,0 2.34,3.828 22,36 2.55,4.172 -2.55,4.171 -22,36 L 0,0 Z" /></g></g></g></g></g></g><g
       transform="translate(150,164)"
       id="g36"><path
         id="path38"
         style="fill:#eac500;fill-opacity:1;fill-rule:nonzero;stroke:none"
         d="m 0,0 -44,0 -22,-36 22,-36 44,0 22,36 L 0,0 Z" /></g><g
       transform="translate(128,160)"
       id="g40"><path
         id="path42"
         style="fill:#191919;fill-opacity:1;fill-rule:nonzero;stroke:none"
         d="m 0,0 8,-24 24,0 -20,-16 8,-24 -20,16 -20,-16 8,24 -20,16 24,0 8,24 z" /></g></g></svg>