<?xml version="1.0" encoding="UTF-8" standalone="no"?>
<svg
   xmlns:dc="http://purl.org/dc/elements/1.1/"
   xmlns:cc="http://creativecommons.org/ns#"
   xmlns:rdf="http://www.w3.org/1999/02/22-rdf-syntax-ns#"
   xmlns:svg="http://www.w3.org/2000/svg"
   xmlns="http://www.w3.org/2000/svg"
   viewBox="0 0 330.66665 245.33333"
   height="245.33333"
   width="330.66666"
   xml:space="preserve"
   id="svg2"
   version="1.1"><metadata
     id="metadata8"><rdf:RDF><cc:Work
         rdf:about=""><dc:format>image/svg+xml</dc:format><dc:type
           rdf:resource="http://purl.org/dc/dcmitype/StillImage" /></cc:Work></rdf:RDF></metadata><defs
     id="defs6"><clipPath
       id="clipPath18"
       clipPathUnits="userSpaceOnUse"><path
         id="path16"
         d="M 0,256 H 256 V 0 H 0 Z" /></clipPath><clipPath
       id="clipPath26"
       clipPathUnits="userSpaceOnUse"><path
         id="path24"
         d="M 4,220 H 252 V 36 H 4 Z" /></clipPath></defs><g
     transform="matrix(1.3333333,0,0,-1.3333333,-5.3333332,293.33333)"
     id="g10"><g
       id="g12"><g
         clip-path="url(#clipPath18)"
         id="g14"><g
           id="g20"><g
             id="g22" /><g
             id="g34"><g
               style="opacity:0.5"
               id="g32"
               clip-path="url(#clipPath26)"><g
                 id="g30"
                 transform="translate(239,220)"><path
                   id="path28"
                   style="fill:#ffffff;fill-opacity:1;fill-rule:nonzero;stroke:none"
                   d="m 0,0 h -222 c -7.168,0 -13,-5.832 -13,-13 v -158 c 0,-7.168 5.832,-13 13,-13 H 0 c 7.168,0 13,5.832 13,13 V -13 C 13,-5.832 7.168,0 0,0" /></g></g></g></g><g
           transform="translate(239,44)"
           id="g36"><path
             id="path38"
             style="fill:#404040;fill-opacity:1;fill-rule:nonzero;stroke:none"
             d="m 0,0 h -222 c -2.761,0 -5,2.238 -5,5 v 158 c 0,2.761 2.239,5 5,5 H 0 c 2.762,0 5,-2.239 5,-5 V 5 C 5,2.238 2.762,0 0,0" /></g><path
           id="path40"
           style="fill:#ff0000;fill-opacity:1;fill-rule:nonzero;stroke:none"
           d="M 240,108 H 16 v 44 h 224 z" /><path
           id="path42"
           style="fill:#333333;fill-opacity:1;fill-rule:nonzero;stroke:none"
           d="M 244,56 H 12 v 16 h 232 z" /><g
           transform="translate(63,60)"
           id="g44"><path
             id="path46"
             style="fill:#404040;fill-opacity:1;fill-rule:nonzero;stroke:none"
             d="m 0,0 h -18 c -0.552,0 -1,0.447 -1,1 v 6 c 0,0.553 0.448,1 1,1 H 0 C 0.552,8 1,7.553 1,7 V 1 C 1,0.447 0.552,0 0,0" /></g><g
           transform="translate(215,60)"
           id="g48"><path
             id="path50"
             style="fill:#404040;fill-opacity:1;fill-rule:nonzero;stroke:none"
             d="m 0,0 h -18 c -0.553,0 -1,0.447 -1,1 v 6 c 0,0.553 0.447,1 1,1 H 0 C 0.553,8 1,7.553 1,7 V 1 C 1,0.447 0.553,0 0,0" /></g></g></g></g></svg>