<?xml version="1.0" encoding="UTF-8" standalone="no"?>
<svg
   xmlns:dc="http://purl.org/dc/elements/1.1/"
   xmlns:cc="http://creativecommons.org/ns#"
   xmlns:rdf="http://www.w3.org/1999/02/22-rdf-syntax-ns#"
   xmlns:svg="http://www.w3.org/2000/svg"
   xmlns="http://www.w3.org/2000/svg"
   viewBox="0 0 320 320"
   height="320"
   width="320"
   xml:space="preserve"
   version="1.1"
   id="svg2"><metadata
     id="metadata8"><rdf:RDF><cc:Work
         rdf:about=""><dc:format>image/svg+xml</dc:format><dc:type
           rdf:resource="http://purl.org/dc/dcmitype/StillImage" /></cc:Work></rdf:RDF></metadata><defs
     id="defs6"><clipPath
       id="clipPath16"
       clipPathUnits="userSpaceOnUse"><path
         id="path18"
         d="M 0,256 256,256 256,0 0,0 0,256 Z" /></clipPath><clipPath
       id="clipPath24"
       clipPathUnits="userSpaceOnUse"><path
         id="path26"
         d="M 4,236 252,236 252,20 4,20 4,236 Z" /></clipPath></defs><g
     transform="matrix(1.25,0,0,-1.25,0,320)"
     id="g10"><g
       id="g12"><g
         clip-path="url(#clipPath16)"
         id="g14"><g
           id="g20"><g
             id="g22" /><g
             id="g28"><g
               style="opacity:0.5"
               id="g30"
               clip-path="url(#clipPath24)"><g
                 id="g32"
                 transform="translate(239.1667,236)"><path
                   id="path34"
                   style="fill:#ffffff;fill-opacity:1;fill-rule:nonzero;stroke:none"
                   d="M 0,0 C -5.972,0 -19.042,-0.769 -35.588,-1.742 -60.255,-3.194 -90.954,-5 -111.167,-5 c -20.212,0 -50.911,1.806 -75.578,3.258 -16.547,0.973 -29.616,1.742 -35.588,1.742 -4.996,0 -8.657,-1.689 -10.882,-5.019 -1.952,-2.922 -1.952,-5.967 -1.952,-7.981 l 0,-20 c 0,-2.014 0,-5.059 1.952,-7.981 1.324,-1.981 3.156,-3.382 5.475,-4.191 -1.627,-2.179 -2.593,-4.891 -2.593,-7.828 l 0,-150 c 0,-7.168 5.757,-13 12.833,-13 l 212.667,0 C 2.243,-216 8,-210.168 8,-203 l 0,150 c 0,2.937 -0.966,5.649 -2.594,7.828 2.319,0.809 4.152,2.21 5.475,4.191 1.952,2.922 1.952,5.967 1.952,7.981 l 0,20 c 0,2.014 0,5.059 -1.952,7.981 C 8.656,-1.689 4.995,0 0,0" /></g></g></g></g><g
           transform="translate(239.1667,228)"
           id="g36"><path
             id="path38"
             style="fill:#404040;fill-opacity:1;fill-rule:nonzero;stroke:none"
             d="m 0,0 c -14.5,0 -77.333,-5 -111.167,-5 -33.833,0 -96.666,5 -111.166,5 -4.834,0 -4.834,-2.235 -4.834,-5 l 0,-20 c 0,-2.765 0,-5 4.834,-5 1.285,0 2.972,-0.05 4.833,-0.12 l 0,-9.88 c -2.673,0 -4.833,-2.235 -4.833,-5 l 0,-150 c 0,-2.765 2.16,-5 4.833,-5 l 212.667,0 c 2.673,0 4.833,2.235 4.833,5 l 0,150 c 0,2.765 -2.16,5 -4.833,5 l 0,9.88 c 1.86,0.07 3.547,0.12 4.833,0.12 4.833,0 4.833,2.235 4.833,5 l 0,20 c 0,2.765 0,5 -4.833,5" /></g><path
           id="path40"
           style="fill:#333333;fill-opacity:1;fill-rule:nonzero;stroke:none"
           d="m 232,48 -208,0 0,4 208,0 0,-4 z" /><path
           id="path42"
           style="fill:#333333;fill-opacity:1;fill-rule:nonzero;stroke:none"
           d="m 232,56 -208,0 0,4 208,0 0,-4 z" /><path
           id="path44"
           style="fill:#333333;fill-opacity:1;fill-rule:nonzero;stroke:none"
           d="m 232,64 -208,0 0,4 208,0 0,-4 z" /><g
           transform="translate(232,83)"
           id="g46"><path
             id="path48"
             style="fill:#333333;fill-opacity:1;fill-rule:nonzero;stroke:none"
             d="m 0,0 c 0,-2.765 -2.214,-5 -4.952,-5 l -198.096,0 c -2.738,0 -4.952,2.235 -4.952,5 l 0,90 c 0,2.765 2.214,5 4.952,5 L -4.952,95 C -2.214,95 0,92.765 0,90 L 0,0 Z" /></g><g
           transform="translate(228,87.75)"
           id="g50"><path
             id="path52"
             style="fill:#000000;fill-opacity:1;fill-rule:nonzero;stroke:none"
             d="m 0,0 c 0,-3.18 -2.353,-5.75 -5.263,-5.75 l -189.474,0 c -2.91,0 -5.263,2.57 -5.263,5.75 l 0,80.5 c 0,3.18 2.353,5.75 5.263,5.75 l 189.474,0 C -2.353,86.25 0,83.68 0,80.5 L 0,0 Z" /></g><g
           transform="translate(234,197.7816)"
           id="g54"><path
             id="path56"
             style="fill:#333333;fill-opacity:1;fill-rule:nonzero;stroke:none"
             d="m 0,0 c -20.303,-0.78 -75.197,-5.278 -106,-5.278 -30.803,0 -85.697,4.498 -106,5.278 l 0,-10.029 212,0 L 0,0 Z" /></g></g></g></g></svg>