<?xml version="1.0" encoding="UTF-8" standalone="no"?>
<svg
   xmlns:dc="http://purl.org/dc/elements/1.1/"
   xmlns:cc="http://creativecommons.org/ns#"
   xmlns:rdf="http://www.w3.org/1999/02/22-rdf-syntax-ns#"
   xmlns:svg="http://www.w3.org/2000/svg"
   xmlns="http://www.w3.org/2000/svg"
   viewBox="0 0 272 176"
   height="176"
   width="272"
   xml:space="preserve"
   id="svg2"
   version="1.1"><metadata
     id="metadata8"><rdf:RDF><cc:Work
         rdf:about=""><dc:format>image/svg+xml</dc:format><dc:type
           rdf:resource="http://purl.org/dc/dcmitype/StillImage" /></cc:Work></rdf:RDF></metadata><defs
     id="defs6"><clipPath
       id="clipPath18"
       clipPathUnits="userSpaceOnUse"><path
         id="path16"
         d="M 0,256 H 256 V 0 H 0 Z" /></clipPath><clipPath
       id="clipPath26"
       clipPathUnits="userSpaceOnUse"><path
         id="path24"
         d="M 26,196 H 230 V 64 H 26 Z" /></clipPath><clipPath
       id="clipPath62"
       clipPathUnits="userSpaceOnUse"><path
         id="path60"
         d="M 0,256 H 256 V 0 H 0 Z" /></clipPath></defs><g
     transform="matrix(1.3333333,0,0,-1.3333333,-34.666666,261.33333)"
     id="g10"><g
       id="g12"><g
         clip-path="url(#clipPath18)"
         id="g14"><g
           id="g20"><g
             id="g22" /><g
             id="g34"><g
               style="opacity:0.5"
               id="g32"
               clip-path="url(#clipPath26)"><g
                 id="g30"
                 transform="translate(222,196)"><path
                   id="path28"
                   style="fill:#ffffff;fill-opacity:1;fill-rule:nonzero;stroke:none"
                   d="m 0,0 h -188 -8 v -8 -16 -4 -4 -8 -8 -8 -4 -0.25 l 0.016,-0.249 1.5,-24 2.5,-40 0.468,-7.501 H -184 -180.17 -7.83 -4 3.516 l 0.468,7.501 2.5,40 1.5,24 L 8,-60.25 v 0.25 4 8 8 8 4 4 16 8 z" /></g></g></g></g></g></g><g
       transform="translate(220,164)"
       id="g36"><path
         id="path38"
         style="fill:#0d0d0d;fill-opacity:1;fill-rule:nonzero;stroke:none"
         d="M 0,0 V 24 H -188 V 0 h 4 v -20 h -4 v -8 h 4 180 4 v 8 H -4 V 0 Z" /></g><g
       transform="translate(216,164)"
       id="g40"><path
         id="path42"
         style="fill:#191919;fill-opacity:1;fill-rule:nonzero;stroke:none"
         d="m 0,0 h -180 v -4 h -4 v -4 h 4 v -4 h -4 v -4 h 4 v -4 h -4 v -4 H 4 v 4 H 0 v 4 h 4 v 4 H 0 v 4 h 4 v 4 H 0 Z" /></g><g
       transform="translate(216,72)"
       id="g44"><path
         id="path46"
         style="fill:#0d0d0d;fill-opacity:1;fill-rule:nonzero;stroke:none"
         d="m 0,0 h -180 l -4,64 H 4 Z" /></g><g
       transform="translate(212.1699,72)"
       id="g48"><path
         id="path50"
         style="fill:#191919;fill-opacity:1;fill-rule:nonzero;stroke:none"
         d="m 0,0 h -172.34 l -3.83,64 h 180 z" /></g><path
       id="path52"
       style="fill:#0d0d0d;fill-opacity:1;fill-rule:nonzero;stroke:none"
       d="M 88,144 H 72 v 16 h 16 z" /><path
       id="path54"
       style="fill:#0d0d0d;fill-opacity:1;fill-rule:nonzero;stroke:none"
       d="M 64,144 H 48 v 16 h 16 z" /><g
       id="g56"><g
         clip-path="url(#clipPath62)"
         id="g58"><g
           transform="translate(192,144)"
           id="g64"><path
             id="path66"
             style="fill:#191919;fill-opacity:1;fill-rule:nonzero;stroke:none"
             d="m 0,0 v 0 c -2.2,0 -4,1.8 -4,4 v 8 c 0,2.2 1.8,4 4,4 2.2,0 4,-1.8 4,-4 V 4 C 4,1.8 2.2,0 0,0" /></g><g
           transform="translate(154,160)"
           id="g68"><path
             id="path70"
             style="fill:#0d0d0d;fill-opacity:1;fill-rule:nonzero;stroke:none"
             d="m 0,0 h -56 c -1.104,0 -2,-0.896 -2,-2 v -12 c 0,-1.104 0.896,-2 2,-2 H 0 c 1.104,0 2,0.896 2,2 V -2 C 2,-0.896 1.104,0 0,0 M 0,-14 H -56 V -2 H 0 Z" /></g><path
           id="path72"
           style="fill:#0d0d0d;fill-opacity:1;fill-rule:nonzero;stroke:none"
           d="m 108,148 h -8 v 4 h 8 z" /><path
           id="path74"
           style="fill:#0d0d0d;fill-opacity:1;fill-rule:nonzero;stroke:none"
           d="m 152,148 h -8 v 4 h 8 z" /><path
           id="path76"
           style="fill:#0d0d0d;fill-opacity:1;fill-rule:nonzero;stroke:none"
           d="m 204,144 h -16 v 16 h 16 z" /><path
           id="path78"
           style="fill:#0d0d0d;fill-opacity:1;fill-rule:nonzero;stroke:none"
           d="m 180,144 h -16 v 16 h 16 z" /><path
           id="path80"
           style="fill:#191919;fill-opacity:1;fill-rule:nonzero;stroke:none"
           d="M 220,168 H 32 v 4 h 188 z" /><g
           transform="translate(218.5,112)"
           id="g82"><path
             id="path84"
             style="fill:#666666;fill-opacity:1;fill-rule:nonzero;stroke:none"
             d="m 0,0 1.5,24 h -188 L -185,0 Z" /></g><g
           transform="translate(214.5635,112)"
           id="g86"><path
             id="path88"
             style="fill:#808080;fill-opacity:1;fill-rule:nonzero;stroke:none"
             d="m 0,0 1.437,24 h -180 l 1.436,-24 z" /></g><path
           id="path90"
           style="fill:#e77f22;fill-opacity:1;fill-rule:nonzero;stroke:none"
           d="M 80,116 H 48 v 4 h 32 z" /><path
           id="path92"
           style="fill:#eac500;fill-opacity:1;fill-rule:nonzero;stroke:none"
           d="M 112,116 H 80 v 4 h 32 z" /><path
           id="path94"
           style="fill:#007b00;fill-opacity:1;fill-rule:nonzero;stroke:none"
           d="m 144,116 h -32 v 4 h 32 z" /><path
           id="path96"
           style="fill:#3096cf;fill-opacity:1;fill-rule:nonzero;stroke:none"
           d="m 176,116 h -32 v 4 h 32 z" /><path
           id="path98"
           style="fill:#4b5da7;fill-opacity:1;fill-rule:nonzero;stroke:none"
           d="m 208,116 h -32 v 4 h 32 z" /><path
           id="path100"
           style="fill:#ff0000;fill-opacity:1;fill-rule:nonzero;stroke:none"
           d="m 56,117 h -4 v 2 h 4 z" /><path
           id="path102"
           style="fill:#262626;fill-opacity:1;fill-rule:nonzero;stroke:none"
           d="M 64,144 H 48 v 4 h 16 z" /><path
           id="path104"
           style="fill:#262626;fill-opacity:1;fill-rule:nonzero;stroke:none"
           d="M 64,156 H 48 v 4 h 16 z" /><path
           id="path106"
           style="fill:#262626;fill-opacity:1;fill-rule:nonzero;stroke:none"
           d="M 88,144 H 72 v 4 h 16 z" /><path
           id="path108"
           style="fill:#262626;fill-opacity:1;fill-rule:nonzero;stroke:none"
           d="M 88,156 H 72 v 4 h 16 z" /><path
           id="path110"
           style="fill:#262626;fill-opacity:1;fill-rule:nonzero;stroke:none"
           d="m 180,156 h -16 v 4 h 16 z" /><path
           id="path112"
           style="fill:#262626;fill-opacity:1;fill-rule:nonzero;stroke:none"
           d="m 204,156 h -16 v 4 h 16 z" /><path
           id="path114"
           style="fill:#262626;fill-opacity:1;fill-rule:nonzero;stroke:none"
           d="m 180,144 h -16 v 4 h 16 z" /><path
           id="path116"
           style="fill:#262626;fill-opacity:1;fill-rule:nonzero;stroke:none"
           d="m 204,144 h -16 v 4 h 16 z" /></g></g></g></svg>