<?xml version="1.0" encoding="UTF-8" standalone="no"?>
<svg
   xmlns:dc="http://purl.org/dc/elements/1.1/"
   xmlns:cc="http://creativecommons.org/ns#"
   xmlns:rdf="http://www.w3.org/1999/02/22-rdf-syntax-ns#"
   xmlns:svg="http://www.w3.org/2000/svg"
   xmlns="http://www.w3.org/2000/svg"
   viewBox="0 0 320 320"
   height="320"
   width="320"
   xml:space="preserve"
   version="1.1"
   id="svg2"><metadata
     id="metadata8"><rdf:RDF><cc:Work
         rdf:about=""><dc:format>image/svg+xml</dc:format><dc:type
           rdf:resource="http://purl.org/dc/dcmitype/StillImage" /></cc:Work></rdf:RDF></metadata><defs
     id="defs6"><clipPath
       id="clipPath16"
       clipPathUnits="userSpaceOnUse"><path
         id="path18"
         d="M 0,256 256,256 256,0 0,0 0,256 Z" /></clipPath><clipPath
       id="clipPath24"
       clipPathUnits="userSpaceOnUse"><path
         id="path26"
         d="m 26,196 204,0 0,-132 -204,0 0,132 z" /></clipPath><clipPath
       id="clipPath60"
       clipPathUnits="userSpaceOnUse"><path
         id="path62"
         d="M 0,256 256,256 256,0 0,0 0,256 Z" /></clipPath></defs><g
     transform="matrix(1.25,0,0,-1.25,0,320)"
     id="g10"><g
       id="g12"><g
         clip-path="url(#clipPath16)"
         id="g14"><g
           id="g20"><g
             id="g22" /><g
             id="g28"><g
               style="opacity:0.5"
               id="g30"
               clip-path="url(#clipPath24)"><g
                 id="g32"
                 transform="translate(222,196)"><path
                   id="path34"
                   style="fill:#ffffff;fill-opacity:1;fill-rule:nonzero;stroke:none"
                   d="m 0,0 -188,0 -8,0 0,-8 0,-16 0,-4 0,-4 0,-8 0,-8 0,-8 0,-4 0,-0.25 0.016,-0.249 1.5,-24 2.5,-40 0.468,-7.501 7.516,0 3.83,0 172.34,0 3.83,0 7.516,0 0.468,7.501 2.5,40 1.5,24 0.016,0.249 0,0.25 0,4 0,8 0,8 0,8 0,4 0,4 0,16 0,8 -8,0 z" /></g></g></g></g></g></g><g
       transform="translate(220,164)"
       id="g36"><path
         id="path38"
         style="fill:#0d0d0d;fill-opacity:1;fill-rule:nonzero;stroke:none"
         d="m 0,0 0,24 -188,0 0,-24 4,0 0,-20 -4,0 0,-8 4,0 180,0 4,0 0,8 -4,0 0,20 4,0 z" /></g><g
       transform="translate(216,164)"
       id="g40"><path
         id="path42"
         style="fill:#191919;fill-opacity:1;fill-rule:nonzero;stroke:none"
         d="m 0,0 -180,0 0,-4 -4,0 0,-4 4,0 0,-4 -4,0 0,-4 4,0 0,-4 -4,0 0,-4 188,0 0,4 -4,0 0,4 4,0 0,4 -4,0 0,4 4,0 0,4 -4,0 0,4 z" /></g><g
       transform="translate(216,72)"
       id="g44"><path
         id="path46"
         style="fill:#0d0d0d;fill-opacity:1;fill-rule:nonzero;stroke:none"
         d="M 0,0 -180,0 -184,64 4,64 0,0 Z" /></g><g
       transform="translate(212.1699,72)"
       id="g48"><path
         id="path50"
         style="fill:#191919;fill-opacity:1;fill-rule:nonzero;stroke:none"
         d="m 0,0 -172.34,0 -3.83,64 180,0 L 0,0 Z" /></g><path
       id="path52"
       style="fill:#0d0d0d;fill-opacity:1;fill-rule:nonzero;stroke:none"
       d="m 88,144 -16,0 0,16 16,0 0,-16 z" /><path
       id="path54"
       style="fill:#0d0d0d;fill-opacity:1;fill-rule:nonzero;stroke:none"
       d="m 64,144 -16,0 0,16 16,0 0,-16 z" /><g
       id="g56"><g
         clip-path="url(#clipPath60)"
         id="g58"><g
           transform="translate(192,144)"
           id="g64"><path
             id="path66"
             style="fill:#191919;fill-opacity:1;fill-rule:nonzero;stroke:none"
             d="m 0,0 0,0 c -2.2,0 -4,1.8 -4,4 l 0,8 c 0,2.2 1.8,4 4,4 2.2,0 4,-1.8 4,-4 L 4,4 C 4,1.8 2.2,0 0,0" /></g><g
           transform="translate(154,160)"
           id="g68"><path
             id="path70"
             style="fill:#0d0d0d;fill-opacity:1;fill-rule:nonzero;stroke:none"
             d="m 0,0 -56,0 c -1.104,0 -2,-0.896 -2,-2 l 0,-12 c 0,-1.104 0.896,-2 2,-2 l 56,0 c 1.104,0 2,0.896 2,2 L 2,-2 C 2,-0.896 1.104,0 0,0 m 0,-14 -56,0 0,12 56,0 0,-12 z" /></g><path
           id="path72"
           style="fill:#0d0d0d;fill-opacity:1;fill-rule:nonzero;stroke:none"
           d="m 108,148 -8,0 0,4 8,0 0,-4 z" /><path
           id="path74"
           style="fill:#0d0d0d;fill-opacity:1;fill-rule:nonzero;stroke:none"
           d="m 152,148 -8,0 0,4 8,0 0,-4 z" /><path
           id="path76"
           style="fill:#262626;fill-opacity:1;fill-rule:nonzero;stroke:none"
           d="m 64,144 -16,0 0,4 16,0 0,-4 z" /><path
           id="path78"
           style="fill:#262626;fill-opacity:1;fill-rule:nonzero;stroke:none"
           d="m 64,156 -16,0 0,4 16,0 0,-4 z" /><path
           id="path80"
           style="fill:#262626;fill-opacity:1;fill-rule:nonzero;stroke:none"
           d="m 88,144 -16,0 0,4 16,0 0,-4 z" /><path
           id="path82"
           style="fill:#262626;fill-opacity:1;fill-rule:nonzero;stroke:none"
           d="m 88,156 -16,0 0,4 16,0 0,-4 z" /><path
           id="path84"
           style="fill:#0d0d0d;fill-opacity:1;fill-rule:nonzero;stroke:none"
           d="m 204,144 -16,0 0,16 16,0 0,-16 z" /><path
           id="path86"
           style="fill:#0d0d0d;fill-opacity:1;fill-rule:nonzero;stroke:none"
           d="m 180,144 -16,0 0,16 16,0 0,-16 z" /><path
           id="path88"
           style="fill:#262626;fill-opacity:1;fill-rule:nonzero;stroke:none"
           d="m 180,156 -16,0 0,4 16,0 0,-4 z" /><path
           id="path90"
           style="fill:#262626;fill-opacity:1;fill-rule:nonzero;stroke:none"
           d="m 204,156 -16,0 0,4 16,0 0,-4 z" /><path
           id="path92"
           style="fill:#191919;fill-opacity:1;fill-rule:nonzero;stroke:none"
           d="m 220,168 -188,0 0,4 188,0 0,-4 z" /><g
           transform="translate(218.5,112)"
           id="g94"><path
             id="path96"
             style="fill:#191919;fill-opacity:1;fill-rule:nonzero;stroke:none"
             d="m 0,0 1.5,24 -188,0 L -185,0 0,0 Z" /></g><g
           transform="translate(214.5635,112)"
           id="g98"><path
             id="path100"
             style="fill:#262626;fill-opacity:1;fill-rule:nonzero;stroke:none"
             d="m 0,0 1.437,24 -180,0 1.436,-24 L 0,0 Z" /></g><path
           id="path102"
           style="fill:#ff0000;fill-opacity:1;fill-rule:nonzero;stroke:none"
           d="m 56,117 -4,0 0,2 4,0 0,-2 z" /><path
           id="path104"
           style="fill:#262626;fill-opacity:1;fill-rule:nonzero;stroke:none"
           d="m 180,144 -16,0 0,4 16,0 0,-4 z" /><path
           id="path106"
           style="fill:#262626;fill-opacity:1;fill-rule:nonzero;stroke:none"
           d="m 204,144 -16,0 0,4 16,0 0,-4 z" /></g></g></g></svg>