<?xml version="1.0" encoding="UTF-8" standalone="no"?>
<svg
   xmlns:dc="http://purl.org/dc/elements/1.1/"
   xmlns:cc="http://creativecommons.org/ns#"
   xmlns:rdf="http://www.w3.org/1999/02/22-rdf-syntax-ns#"
   xmlns:svg="http://www.w3.org/2000/svg"
   xmlns="http://www.w3.org/2000/svg"
   viewBox="0 0 320 320"
   height="320"
   width="320"
   xml:space="preserve"
   version="1.1"
   id="svg2"><metadata
     id="metadata8"><rdf:RDF><cc:Work
         rdf:about=""><dc:format>image/svg+xml</dc:format><dc:type
           rdf:resource="http://purl.org/dc/dcmitype/StillImage" /></cc:Work></rdf:RDF></metadata><defs
     id="defs6"><clipPath
       id="clipPath16"
       clipPathUnits="userSpaceOnUse"><path
         id="path18"
         d="M 0,256 256,256 256,0 0,0 0,256 Z" /></clipPath><clipPath
       id="clipPath24"
       clipPathUnits="userSpaceOnUse"><path
         id="path26"
         d="m 4,242 248,0 0,-227.9999 -248,0 L 4,242 Z" /></clipPath></defs><g
     transform="matrix(1.25,0,0,-1.25,0,320)"
     id="g10"><g
       id="g12"><g
         clip-path="url(#clipPath16)"
         id="g14"><g
           id="g20"><g
             id="g22" /><g
             id="g28"><g
               style="opacity:0.5"
               id="g30"
               clip-path="url(#clipPath24)"><g
                 id="g32"
                 transform="translate(252,228.0098)"><path
                   id="path34"
                   style="fill:#ffffff;fill-opacity:1;fill-rule:nonzero;stroke:none"
                   d="m 0,0 0,1.122 c -0.001,2.744 -1.384,5.166 -3.49,6.607 l -6.353,4.695 c -1.376,1.017 -3.043,1.566 -4.755,1.566 l -218.804,0 c -1.711,0 -3.376,-0.548 -4.752,-1.563 l -6.597,-4.871 C -246.794,6.048 -248,3.659 -248,1.12 l 0,-9.13 c 0,-1.457 0.39,-2.823 1.07,-4 -0.68,-1.177 -1.07,-2.543 -1.07,-4 l 0,-4 c 0,-1.457 0.39,-2.823 1.07,-4 -0.68,-1.177 -1.07,-2.543 -1.07,-4 l 0,-4 c 0,-1.457 0.39,-2.823 1.07,-4 -0.68,-1.177 -1.07,-2.543 -1.07,-4 l 0,-4 c 0,-1.457 0.39,-2.823 1.07,-4 -0.68,-1.177 -1.07,-2.543 -1.07,-4 l 0,-4 c 0,-1.457 0.39,-2.823 1.07,-4 -0.68,-1.177 -1.07,-2.543 -1.07,-4 l 0,-4 c 0,-1.457 0.39,-2.823 1.07,-4 -0.68,-1.177 -1.07,-2.543 -1.07,-4 l 0,-4 c 0,-1.457 0.39,-2.823 1.07,-4 -0.68,-1.177 -1.07,-2.543 -1.07,-4 l 0,-4 c 0,-1.457 0.39,-2.823 1.07,-4 -0.68,-1.177 -1.07,-2.543 -1.07,-4 l 0,-4 c 0,-1.457 0.39,-2.823 1.07,-4 -0.68,-1.177 -1.07,-2.543 -1.07,-4 l 0,-4 c 0,-1.457 0.39,-2.823 1.07,-4 -0.68,-1.177 -1.07,-2.543 -1.07,-4 l 0,-4 c 0,-1.457 0.39,-2.823 1.07,-4 -0.68,-1.177 -1.07,-2.543 -1.07,-4 l 0,-4 c 0,-1.457 0.39,-2.823 1.07,-4 -0.68,-1.177 -1.07,-2.543 -1.07,-4 l 0,-4 c 0,-1.457 0.39,-2.823 1.07,-4 -0.68,-1.177 -1.07,-2.543 -1.07,-4 l 0,-4 c 0,-1.457 0.39,-2.823 1.07,-4 -0.68,-1.177 -1.07,-2.543 -1.07,-4 l 0,-4 c 0,-1.457 0.39,-2.823 1.07,-4 -0.68,-1.177 -1.07,-2.543 -1.07,-4 l 0,-4 c 0,-1.457 0.39,-2.823 1.07,-4 -0.68,-1.177 -1.07,-2.543 -1.07,-4 l 0,-4.01 0,-0.857 c 0,-2.469 1.14,-4.799 3.088,-6.314 l 6.597,-5.133 c 1.405,-1.092 3.133,-1.686 4.913,-1.686 l 218.804,0 c 1.78,0 3.508,0.594 4.912,1.686 l 6.598,5.133 c 1.948,1.515 3.088,3.845 3.088,6.314 l 0,4.867 c 0,1.457 -0.39,2.823 -1.07,4 0.68,1.177 1.07,2.543 1.07,4 l 0,4 c 0,1.457 -0.39,2.823 -1.07,4 0.68,1.177 1.07,2.543 1.07,4 l 0,4 c 0,1.457 -0.39,2.823 -1.07,4 0.68,1.177 1.07,2.543 1.07,4 l 0,4 c 0,1.457 -0.39,2.823 -1.07,4 0.68,1.177 1.07,2.543 1.07,4 l 0,4 c 0,1.457 -0.39,2.823 -1.07,4 0.68,1.177 1.07,2.543 1.07,4 l 0,4 c 0,1.457 -0.39,2.823 -1.07,4 0.68,1.177 1.07,2.543 1.07,4 l 0,4 c 0,1.457 -0.39,2.823 -1.07,4 0.68,1.177 1.07,2.543 1.07,4 l 0,4 c 0,1.457 -0.39,2.823 -1.07,4 0.68,1.177 1.07,2.543 1.07,4 l 0,4 c 0,1.457 -0.39,2.823 -1.07,4 0.68,1.177 1.07,2.543 1.07,4 l 0,4 c 0,1.457 -0.39,2.823 -1.07,4 0.68,1.177 1.07,2.543 1.07,4 l 0,4 c 0,1.457 -0.39,2.823 -1.07,4 0.68,1.177 1.07,2.543 1.07,4 l 0,4 c 0,1.457 -0.39,2.823 -1.07,4 0.68,1.177 1.07,2.543 1.07,4 l 0,4 c 0,1.457 -0.39,2.823 -1.07,4 0.68,1.177 1.07,2.543 1.07,4 l 0,4 c 0,1.457 -0.39,2.823 -1.07,4 0.68,1.177 1.07,2.543 1.07,4 l 0,4 c 0,1.457 -0.39,2.823 -1.07,4 0.68,1.177 1.07,2.543 1.07,4 l 0,4 c 0,1.457 -0.39,2.823 -1.07,4 0.68,1.177 1.07,2.543 1.07,4 L 0,0 Z" /></g></g></g></g><g
           transform="translate(211.9541,219.8271)"
           id="g36"><path
             id="path38"
             style="fill:#191919;fill-opacity:1;fill-rule:nonzero;stroke:none"
             d="m 0,0 -167.877,0 c -4.446,0 -8.062,-3.624 -8.062,-8.078 l 0,-123.843 c 0,-4.455 3.617,-8.079 8.062,-8.079 L 0,-140 c 4.445,0 8.062,3.624 8.062,8.079 l 0,123.843 C 8.062,-3.624 4.445,0 0,0" /></g><g
           transform="translate(240,32)"
           id="g40"><path
             id="path42"
             style="fill:#262626;fill-opacity:1;fill-rule:nonzero;stroke:none"
             d="m 0,0 0,8 4,0 0,4 -4,0 0,8 4,0 0,4 -4,0 0,8 4,0 0,4 -4,0 0,8 4,0 0,4 -4,0 0,8 4,0 0,4 -4,0 0,8 4,0 0,4 -4,0 0,8 4,0 0,4 -4,0 0,8 4,0 0,4 -4,0 0,8 4,0 0,4 -4,0 0,8 4,0 0,4 -4,0 0,8 4,0 0,4 -4,0 0,8 4,0 0,4 -4,0 0,8 4,0 0,4 -4,0 0,8 4,0 0,4 -4,0 0,8 4,0 0,4 -4,0 0,8 4,0 0,8.01 0,1.12 -0.009,0 -6.589,4.87 -218.804,0 -6.598,-4.87 0,-9.13 4,0 0,-8 -4,0 0,-4 4,0 0,-8 -4,0 0,-4 4,0 0,-8 -4,0 0,-4 4,0 0,-8 -4,0 0,-4 4,0 0,-8 -4,0 0,-4 4,0 0,-8 -4,0 0,-4 4,0 0,-8 -4,0 0,-4 4,0 0,-8 -4,0 0,-4 4,0 0,-8 -4,0 0,-4 4,0 0,-8 -4,0 0,-4 4,0 0,-8 -4,0 0,-4 4,0 0,-8 -4,0 0,-4 4,0 0,-8 -4,0 0,-4 4,0 0,-8 -4,0 0,-4 4,0 0,-8 -4,0 0,-4 4,0 0,-8 -4,0 0,-4.01 0,-0.857 6.598,-5.133 218.804,0 L 4,-4.867 4,0 0,0 Z" /></g><g
           transform="translate(211.8975,216)"
           id="g44"><path
             id="path46"
             style="fill:#b3b3b3;fill-opacity:1;fill-rule:nonzero;stroke:none"
             d="m 0,0 c 2.269,0 4.103,-1.823 4.103,-4.079 l 0,-123.843 C 4.103,-130.177 2.269,-132 0,-132 l -167.795,0 c -2.269,0 -4.102,1.823 -4.102,4.078 l 0,123.843 c 0,2.256 1.833,4.079 4.102,4.079 L 0,0" /></g><path
           id="path48"
           style="fill:#0d0d0d;fill-opacity:1;fill-rule:nonzero;stroke:none"
           d="m 24,212 -8,0 0,8 8,0 0,-8 z" /><path
           id="path50"
           style="fill:#0d0d0d;fill-opacity:1;fill-rule:nonzero;stroke:none"
           d="m 24,200 -8,0 0,8 8,0 0,-8 z" /><path
           id="path52"
           style="fill:#0d0d0d;fill-opacity:1;fill-rule:nonzero;stroke:none"
           d="m 24,188 -8,0 0,8 8,0 0,-8 z" /><path
           id="path54"
           style="fill:#0d0d0d;fill-opacity:1;fill-rule:nonzero;stroke:none"
           d="m 24,176 -8,0 0,8 8,0 0,-8 z" /><path
           id="path56"
           style="fill:#0d0d0d;fill-opacity:1;fill-rule:nonzero;stroke:none"
           d="m 24,164 -8,0 0,8 8,0 0,-8 z" /><path
           id="path58"
           style="fill:#0d0d0d;fill-opacity:1;fill-rule:nonzero;stroke:none"
           d="m 24,152 -8,0 0,8 8,0 0,-8 z" /><path
           id="path60"
           style="fill:#0d0d0d;fill-opacity:1;fill-rule:nonzero;stroke:none"
           d="m 24,140 -8,0 0,8 8,0 0,-8 z" /><path
           id="path62"
           style="fill:#0d0d0d;fill-opacity:1;fill-rule:nonzero;stroke:none"
           d="m 24,128 -8,0 0,8 8,0 0,-8 z" /><path
           id="path64"
           style="fill:#0d0d0d;fill-opacity:1;fill-rule:nonzero;stroke:none"
           d="m 24,116 -8,0 0,8 8,0 0,-8 z" /><path
           id="path66"
           style="fill:#0d0d0d;fill-opacity:1;fill-rule:nonzero;stroke:none"
           d="m 24,104 -8,0 0,8 8,0 0,-8 z" /><path
           id="path68"
           style="fill:#0d0d0d;fill-opacity:1;fill-rule:nonzero;stroke:none"
           d="m 24,92 -8,0 0,8 8,0 0,-8 z" /><path
           id="path70"
           style="fill:#0d0d0d;fill-opacity:1;fill-rule:nonzero;stroke:none"
           d="m 24,80 -8,0 0,8 8,0 0,-8 z" /><path
           id="path72"
           style="fill:#0d0d0d;fill-opacity:1;fill-rule:nonzero;stroke:none"
           d="m 24,68 -8,0 0,8 8,0 0,-8 z" /><path
           id="path74"
           style="fill:#0d0d0d;fill-opacity:1;fill-rule:nonzero;stroke:none"
           d="m 24,56 -8,0 0,8 8,0 0,-8 z" /><path
           id="path76"
           style="fill:#0d0d0d;fill-opacity:1;fill-rule:nonzero;stroke:none"
           d="m 24,44 -8,0 0,8 8,0 0,-8 z" /><path
           id="path78"
           style="fill:#0d0d0d;fill-opacity:1;fill-rule:nonzero;stroke:none"
           d="m 24,32 -8,0 0,8 8,0 0,-8 z" /><path
           id="path80"
           style="fill:#191919;fill-opacity:1;fill-rule:nonzero;stroke:none"
           d="m 32,212 -8,0 0,8 8,0 0,-8 z" /><path
           id="path82"
           style="fill:#191919;fill-opacity:1;fill-rule:nonzero;stroke:none"
           d="m 32,200 -8,0 0,8 8,0 0,-8 z" /><path
           id="path84"
           style="fill:#191919;fill-opacity:1;fill-rule:nonzero;stroke:none"
           d="m 32,188 -8,0 0,8 8,0 0,-8 z" /><path
           id="path86"
           style="fill:#191919;fill-opacity:1;fill-rule:nonzero;stroke:none"
           d="m 32,176 -8,0 0,8 8,0 0,-8 z" /><path
           id="path88"
           style="fill:#191919;fill-opacity:1;fill-rule:nonzero;stroke:none"
           d="m 32,164 -8,0 0,8 8,0 0,-8 z" /><path
           id="path90"
           style="fill:#191919;fill-opacity:1;fill-rule:nonzero;stroke:none"
           d="m 32,152 -8,0 0,8 8,0 0,-8 z" /><path
           id="path92"
           style="fill:#191919;fill-opacity:1;fill-rule:nonzero;stroke:none"
           d="m 32,140 -8,0 0,8 8,0 0,-8 z" /><path
           id="path94"
           style="fill:#191919;fill-opacity:1;fill-rule:nonzero;stroke:none"
           d="m 32,128 -8,0 0,8 8,0 0,-8 z" /><path
           id="path96"
           style="fill:#191919;fill-opacity:1;fill-rule:nonzero;stroke:none"
           d="m 32,116 -8,0 0,8 8,0 0,-8 z" /><path
           id="path98"
           style="fill:#191919;fill-opacity:1;fill-rule:nonzero;stroke:none"
           d="m 32,104 -8,0 0,8 8,0 0,-8 z" /><path
           id="path100"
           style="fill:#191919;fill-opacity:1;fill-rule:nonzero;stroke:none"
           d="m 32,92 -8,0 0,8 8,0 0,-8 z" /><path
           id="path102"
           style="fill:#191919;fill-opacity:1;fill-rule:nonzero;stroke:none"
           d="m 32,80 -8,0 0,8 8,0 0,-8 z" /><path
           id="path104"
           style="fill:#191919;fill-opacity:1;fill-rule:nonzero;stroke:none"
           d="m 32,68 -8,0 0,8 8,0 0,-8 z" /><path
           id="path106"
           style="fill:#191919;fill-opacity:1;fill-rule:nonzero;stroke:none"
           d="m 32,56 -8,0 0,8 8,0 0,-8 z" /><path
           id="path108"
           style="fill:#191919;fill-opacity:1;fill-rule:nonzero;stroke:none"
           d="m 32,44 -8,0 0,8 8,0 0,-8 z" /><path
           id="path110"
           style="fill:#191919;fill-opacity:1;fill-rule:nonzero;stroke:none"
           d="m 32,32 -8,0 0,8 8,0 0,-8 z" /><path
           id="path112"
           style="fill:#0d0d0d;fill-opacity:1;fill-rule:nonzero;stroke:none"
           d="m 240,212 -8,0 0,8 8,0 0,-8 z" /><path
           id="path114"
           style="fill:#0d0d0d;fill-opacity:1;fill-rule:nonzero;stroke:none"
           d="m 240,200 -8,0 0,8 8,0 0,-8 z" /><path
           id="path116"
           style="fill:#0d0d0d;fill-opacity:1;fill-rule:nonzero;stroke:none"
           d="m 240,188 -8,0 0,8 8,0 0,-8 z" /><path
           id="path118"
           style="fill:#0d0d0d;fill-opacity:1;fill-rule:nonzero;stroke:none"
           d="m 240,176 -8,0 0,8 8,0 0,-8 z" /><path
           id="path120"
           style="fill:#0d0d0d;fill-opacity:1;fill-rule:nonzero;stroke:none"
           d="m 240,164 -8,0 0,8 8,0 0,-8 z" /><path
           id="path122"
           style="fill:#0d0d0d;fill-opacity:1;fill-rule:nonzero;stroke:none"
           d="m 240,152 -8,0 0,8 8,0 0,-8 z" /><path
           id="path124"
           style="fill:#0d0d0d;fill-opacity:1;fill-rule:nonzero;stroke:none"
           d="m 240,140 -8,0 0,8 8,0 0,-8 z" /><path
           id="path126"
           style="fill:#0d0d0d;fill-opacity:1;fill-rule:nonzero;stroke:none"
           d="m 240,128 -8,0 0,8 8,0 0,-8 z" /><path
           id="path128"
           style="fill:#0d0d0d;fill-opacity:1;fill-rule:nonzero;stroke:none"
           d="m 240,116 -8,0 0,8 8,0 0,-8 z" /><path
           id="path130"
           style="fill:#0d0d0d;fill-opacity:1;fill-rule:nonzero;stroke:none"
           d="m 240,104 -8,0 0,8 8,0 0,-8 z" /><path
           id="path132"
           style="fill:#0d0d0d;fill-opacity:1;fill-rule:nonzero;stroke:none"
           d="m 240,92 -8,0 0,8 8,0 0,-8 z" /><path
           id="path134"
           style="fill:#0d0d0d;fill-opacity:1;fill-rule:nonzero;stroke:none"
           d="m 240,80 -8,0 0,8 8,0 0,-8 z" /><path
           id="path136"
           style="fill:#0d0d0d;fill-opacity:1;fill-rule:nonzero;stroke:none"
           d="m 240,68 -8,0 0,8 8,0 0,-8 z" /><path
           id="path138"
           style="fill:#0d0d0d;fill-opacity:1;fill-rule:nonzero;stroke:none"
           d="m 240,56 -8,0 0,8 8,0 0,-8 z" /><path
           id="path140"
           style="fill:#0d0d0d;fill-opacity:1;fill-rule:nonzero;stroke:none"
           d="m 240,44 -8,0 0,8 8,0 0,-8 z" /><path
           id="path142"
           style="fill:#0d0d0d;fill-opacity:1;fill-rule:nonzero;stroke:none"
           d="m 240,32 -8,0 0,8 8,0 0,-8 z" /><path
           id="path144"
           style="fill:#354f9f;fill-opacity:1;fill-rule:nonzero;stroke:none"
           d="m 216,168 -176,0 0,16 176,0 0,-16 z" /><path
           id="path146"
           style="fill:#eac500;fill-opacity:1;fill-rule:nonzero;stroke:none"
           d="m 84,184 -44,0 0,4 44,0 0,-4 z" /><path
           id="path148"
           style="fill:#ff0000;fill-opacity:1;fill-rule:nonzero;stroke:none"
           d="m 128,184 -44,0 0,4 44,0 0,-4 z" /><path
           id="path150"
           style="fill:#0000b8;fill-opacity:1;fill-rule:nonzero;stroke:none"
           d="m 172,184 -44,0 0,4 44,0 0,-4 z" /><path
           id="path152"
           style="fill:#00b800;fill-opacity:1;fill-rule:nonzero;stroke:none"
           d="m 216,184 -44,0 0,4 44,0 0,-4 z" /><path
           id="path154"
           style="fill:#191919;fill-opacity:1;fill-rule:nonzero;stroke:none"
           d="m 232,212 -8,0 0,8 8,0 0,-8 z" /><path
           id="path156"
           style="fill:#191919;fill-opacity:1;fill-rule:nonzero;stroke:none"
           d="m 232,200 -8,0 0,8 8,0 0,-8 z" /><path
           id="path158"
           style="fill:#191919;fill-opacity:1;fill-rule:nonzero;stroke:none"
           d="m 232,188 -8,0 0,8 8,0 0,-8 z" /><path
           id="path160"
           style="fill:#191919;fill-opacity:1;fill-rule:nonzero;stroke:none"
           d="m 232,176 -8,0 0,8 8,0 0,-8 z" /><path
           id="path162"
           style="fill:#191919;fill-opacity:1;fill-rule:nonzero;stroke:none"
           d="m 232,164 -8,0 0,8 8,0 0,-8 z" /><path
           id="path164"
           style="fill:#191919;fill-opacity:1;fill-rule:nonzero;stroke:none"
           d="m 232,152 -8,0 0,8 8,0 0,-8 z" /><path
           id="path166"
           style="fill:#191919;fill-opacity:1;fill-rule:nonzero;stroke:none"
           d="m 232,140 -8,0 0,8 8,0 0,-8 z" /><path
           id="path168"
           style="fill:#191919;fill-opacity:1;fill-rule:nonzero;stroke:none"
           d="m 232,128 -8,0 0,8 8,0 0,-8 z" /><path
           id="path170"
           style="fill:#191919;fill-opacity:1;fill-rule:nonzero;stroke:none"
           d="m 232,116 -8,0 0,8 8,0 0,-8 z" /><path
           id="path172"
           style="fill:#191919;fill-opacity:1;fill-rule:nonzero;stroke:none"
           d="m 232,104 -8,0 0,8 8,0 0,-8 z" /><path
           id="path174"
           style="fill:#191919;fill-opacity:1;fill-rule:nonzero;stroke:none"
           d="m 232,92 -8,0 0,8 8,0 0,-8 z" /><path
           id="path176"
           style="fill:#191919;fill-opacity:1;fill-rule:nonzero;stroke:none"
           d="m 232,80 -8,0 0,8 8,0 0,-8 z" /><path
           id="path178"
           style="fill:#191919;fill-opacity:1;fill-rule:nonzero;stroke:none"
           d="m 232,68 -8,0 0,8 8,0 0,-8 z" /><path
           id="path180"
           style="fill:#191919;fill-opacity:1;fill-rule:nonzero;stroke:none"
           d="m 232,56 -8,0 0,8 8,0 0,-8 z" /><path
           id="path182"
           style="fill:#191919;fill-opacity:1;fill-rule:nonzero;stroke:none"
           d="m 232,44 -8,0 0,8 8,0 0,-8 z" /><path
           id="path184"
           style="fill:#191919;fill-opacity:1;fill-rule:nonzero;stroke:none"
           d="m 232,32 -8,0 0,8 8,0 0,-8 z" /><path
           id="path186"
           style="fill:#000000;fill-opacity:1;fill-rule:nonzero;stroke:none"
           d="m 184,100 -112,0 0,68 112,0 0,-68 z" /></g></g></g></svg>