<?xml version="1.0" encoding="UTF-8" standalone="no"?>
<svg
   xmlns:dc="http://purl.org/dc/elements/1.1/"
   xmlns:cc="http://creativecommons.org/ns#"
   xmlns:rdf="http://www.w3.org/1999/02/22-rdf-syntax-ns#"
   xmlns:svg="http://www.w3.org/2000/svg"
   xmlns="http://www.w3.org/2000/svg"
   viewBox="0 0 330.66626 181.33333"
   height="181.33333"
   width="330.66626"
   xml:space="preserve"
   id="svg2"
   version="1.1"><metadata
     id="metadata8"><rdf:RDF><cc:Work
         rdf:about=""><dc:format>image/svg+xml</dc:format><dc:type
           rdf:resource="http://purl.org/dc/dcmitype/StillImage" /></cc:Work></rdf:RDF></metadata><defs
     id="defs6"><clipPath
       id="clipPath18"
       clipPathUnits="userSpaceOnUse"><path
         id="path16"
         d="M 0,256 H 256 V 0 H 0 Z" /></clipPath><clipPath
       id="clipPath26"
       clipPathUnits="userSpaceOnUse"><path
         id="path24"
         d="M 4,196 H 252 V 60 H 4 Z" /></clipPath></defs><g
     transform="matrix(1.3333333,0,0,-1.3333333,-5.3333332,261.33333)"
     id="g10"><g
       id="g12"><g
         clip-path="url(#clipPath18)"
         id="g14"><g
           id="g20"><g
             id="g22" /><g
             id="g34"><g
               style="opacity:0.5"
               id="g32"
               clip-path="url(#clipPath26)"><g
                 id="g30"
                 transform="translate(231.5957,196)"><path
                   id="path28"
                   style="fill:#ffffff;fill-opacity:1;fill-rule:nonzero;stroke:none"
                   d="m 0,0 h -207.191 c -11.251,0 -20.405,-9.153 -20.405,-20.405 v -95.191 c 0,-11.251 9.154,-20.404 20.405,-20.404 H 0 c 11.251,0 20.404,9.153 20.404,20.404 v 95.191 C 20.404,-9.153 11.251,0 0,0" /></g></g></g></g><g
           transform="translate(231.5957,188)"
           id="g36"><path
             id="path38"
             style="fill:#404040;fill-opacity:1;fill-rule:nonzero;stroke:none"
             d="m 0,0 h -207.191 c -6.84,0 -12.405,-5.564 -12.405,-12.405 v -95.191 c 0,-6.84 5.565,-12.404 12.405,-12.404 H 0 c 6.84,0 12.404,5.564 12.404,12.404 v 95.191 C 12.404,-5.564 6.84,0 0,0" /></g><g
           transform="translate(231.5957,184)"
           id="g40"><path
             id="path42"
             style="fill:#4c4c4c;fill-opacity:1;fill-rule:nonzero;stroke:none"
             d="m 0,0 c 4.642,0 8.404,-3.763 8.404,-8.405 v -95.191 C 8.404,-108.237 4.642,-112 0,-112 h -207.191 c -4.642,0 -8.405,3.763 -8.405,8.404 v 95.191 c 0,4.642 3.763,8.405 8.405,8.405 L 0,0" /></g><g
           transform="translate(172,80)"
           id="g44"><path
             id="path46"
             style="fill:#cccccc;fill-opacity:1;fill-rule:nonzero;stroke:none"
             d="m 0,0 h -88 c -2.209,0 -4,1.791 -4,4 v 88 c 0,2.209 1.791,4 4,4 H 0 c 2.209,0 4,-1.791 4,-4 V 4 C 4,1.791 2.209,0 0,0" /></g><g
           transform="translate(168,172)"
           id="g48"><path
             id="path50"
             style="fill:#404040;fill-opacity:1;fill-rule:nonzero;stroke:none"
             d="m 0,0 h -80 c -2.209,0 -4,-1.791 -4,-4 v -80 c 0,-2.209 1.791,-4 4,-4 H 0 c 2.209,0 4,1.791 4,4 V -4 C 4,-1.791 2.209,0 0,0 m 0,-2 c 1.103,0 2,-0.897 2,-2 v -80 c 0,-1.103 -0.897,-2 -2,-2 h -80 c -1.103,0 -2,0.897 -2,2 v 80 c 0,1.103 0.897,2 2,2 H 0" /></g><g
           transform="translate(122.1025,108)"
           id="g52"><path
             id="path54"
             style="fill:#404040;fill-opacity:1;fill-rule:nonzero;stroke:none"
             d="m 0,0 h -32.205 c -1.048,0 -1.898,-0.85 -1.898,-1.897 v -16.206 c 0,-1.047 0.85,-1.897 1.898,-1.897 L 0,-20 c 1.048,0 1.897,0.85 1.897,1.897 V -1.897 C 1.897,-0.85 1.048,0 0,0" /></g><g
           transform="translate(122,106)"
           id="g56"><path
             id="path58"
             style="fill:#4c4c4c;fill-opacity:1;fill-rule:nonzero;stroke:none"
             d="m 0,0 v -15 c 0,-0.553 -0.448,-1 -1,-1 h -30 c -0.552,0 -1,0.447 -1,1 v 14 c 0,0.553 0.448,1 1,1 H 0" /></g><g
           transform="translate(166.1025,108)"
           id="g60"><path
             id="path62"
             style="fill:#404040;fill-opacity:1;fill-rule:nonzero;stroke:none"
             d="m 0,0 h -32.205 c -1.048,0 -1.898,-0.85 -1.898,-1.897 v -16.206 c 0,-1.047 0.85,-1.897 1.898,-1.897 L 0,-20 c 1.048,0 1.897,0.85 1.897,1.897 V -1.897 C 1.897,-0.85 1.048,0 0,0" /></g><g
           transform="translate(166,106)"
           id="g64"><path
             id="path66"
             style="fill:#4c4c4c;fill-opacity:1;fill-rule:nonzero;stroke:none"
             d="m 0,0 v -15 c 0,-0.553 -0.447,-1 -1,-1 h -30 c -0.553,0 -1,0.447 -1,1 v 14 c 0,0.553 0.447,1 1,1 H 0" /></g><path
           id="path68"
           style="fill:#3096cf;fill-opacity:1;fill-rule:nonzero;stroke:none"
           d="m 96,152 h -4 v 8 h 4 z" /><path
           id="path70"
           style="fill:#3096cf;fill-opacity:1;fill-rule:nonzero;stroke:none"
           d="m 96,140 h -4 v 8 h 4 z" /><path
           id="path72"
           style="fill:#3096cf;fill-opacity:1;fill-rule:nonzero;stroke:none"
           d="m 96,128 h -4 v 8 h 4 z" /><path
           id="path74"
           style="fill:#3096cf;fill-opacity:1;fill-rule:nonzero;stroke:none"
           d="m 96,116 h -4 v 8 h 4 z" /><path
           id="path76"
           style="fill:#74b743;fill-opacity:1;fill-rule:nonzero;stroke:none"
           d="m 100,152 h -4 v 8 h 4 z" /><path
           id="path78"
           style="fill:#74b743;fill-opacity:1;fill-rule:nonzero;stroke:none"
           d="m 100,140 h -4 v 8 h 4 z" /><path
           id="path80"
           style="fill:#74b743;fill-opacity:1;fill-rule:nonzero;stroke:none"
           d="m 100,128 h -4 v 8 h 4 z" /><path
           id="path82"
           style="fill:#74b743;fill-opacity:1;fill-rule:nonzero;stroke:none"
           d="m 100,116 h -4 v 8 h 4 z" /><path
           id="path84"
           style="fill:#ff0000;fill-opacity:1;fill-rule:nonzero;stroke:none"
           d="m 104,152 h -4 v 8 h 4 z" /><path
           id="path86"
           style="fill:#ff0000;fill-opacity:1;fill-rule:nonzero;stroke:none"
           d="m 104,140 h -4 v 8 h 4 z" /><path
           id="path88"
           style="fill:#ff0000;fill-opacity:1;fill-rule:nonzero;stroke:none"
           d="m 104,128 h -4 v 8 h 4 z" /><path
           id="path90"
           style="fill:#ff0000;fill-opacity:1;fill-rule:nonzero;stroke:none"
           d="m 104,116 h -4 v 8 h 4 z" /><path
           id="path92"
           style="fill:#3096cf;fill-opacity:1;fill-rule:nonzero;stroke:none"
           d="m 136,152 h -4 v 8 h 4 z" /><path
           id="path94"
           style="fill:#3096cf;fill-opacity:1;fill-rule:nonzero;stroke:none"
           d="m 136,140 h -4 v 8 h 4 z" /><path
           id="path96"
           style="fill:#3096cf;fill-opacity:1;fill-rule:nonzero;stroke:none"
           d="m 136,128 h -4 v 8 h 4 z" /><path
           id="path98"
           style="fill:#3096cf;fill-opacity:1;fill-rule:nonzero;stroke:none"
           d="m 136,116 h -4 v 8 h 4 z" /><path
           id="path100"
           style="fill:#74b743;fill-opacity:1;fill-rule:nonzero;stroke:none"
           d="m 140,152 h -4 v 8 h 4 z" /><path
           id="path102"
           style="fill:#74b743;fill-opacity:1;fill-rule:nonzero;stroke:none"
           d="m 140,140 h -4 v 8 h 4 z" /><path
           id="path104"
           style="fill:#74b743;fill-opacity:1;fill-rule:nonzero;stroke:none"
           d="m 140,128 h -4 v 8 h 4 z" /><path
           id="path106"
           style="fill:#74b743;fill-opacity:1;fill-rule:nonzero;stroke:none"
           d="m 140,116 h -4 v 8 h 4 z" /><path
           id="path108"
           style="fill:#ff0000;fill-opacity:1;fill-rule:nonzero;stroke:none"
           d="m 144,152 h -4 v 8 h 4 z" /><path
           id="path110"
           style="fill:#ff0000;fill-opacity:1;fill-rule:nonzero;stroke:none"
           d="m 144,140 h -4 v 8 h 4 z" /><path
           id="path112"
           style="fill:#ff0000;fill-opacity:1;fill-rule:nonzero;stroke:none"
           d="m 144,128 h -4 v 8 h 4 z" /><path
           id="path114"
           style="fill:#ff0000;fill-opacity:1;fill-rule:nonzero;stroke:none"
           d="m 144,116 h -4 v 8 h 4 z" /><path
           id="path116"
           style="fill:#9bc2dd;fill-opacity:1;fill-rule:nonzero;stroke:none"
           d="m 124,152 h -12 v 8 h 12 z" /><path
           id="path118"
           style="fill:#9bc2dd;fill-opacity:1;fill-rule:nonzero;stroke:none"
           d="m 124,140 h -12 v 8 h 12 z" /><path
           id="path120"
           style="fill:#9bc2dd;fill-opacity:1;fill-rule:nonzero;stroke:none"
           d="m 124,128 h -12 v 8 h 12 z" /><path
           id="path122"
           style="fill:#9bc2dd;fill-opacity:1;fill-rule:nonzero;stroke:none"
           d="m 124,116 h -12 v 8 h 12 z" /><path
           id="path124"
           style="fill:#9bc2dd;fill-opacity:1;fill-rule:nonzero;stroke:none"
           d="m 164,152 h -12 v 8 h 12 z" /><path
           id="path126"
           style="fill:#9bc2dd;fill-opacity:1;fill-rule:nonzero;stroke:none"
           d="m 164,140 h -12 v 8 h 12 z" /><path
           id="path128"
           style="fill:#9bc2dd;fill-opacity:1;fill-rule:nonzero;stroke:none"
           d="m 164,128 h -12 v 8 h 12 z" /><path
           id="path130"
           style="fill:#9bc2dd;fill-opacity:1;fill-rule:nonzero;stroke:none"
           d="m 164,116 h -12 v 8 h 12 z" /><g
           transform="translate(24,72)"
           id="g132"><path
             id="path134"
             style="fill:#a6a6a6;fill-opacity:1;fill-rule:nonzero;stroke:none"
             d="m 0,0 h 40 c 4.4,0 8,3.6 8,8 v 96 c 0,4.4 -3.6,8 -8,8 H 0 c -4.4,0 -8,-3.6 -8,-8 V 8 C -8,3.6 -4.4,0 0,0" /></g><g
           transform="translate(24.8447,80)"
           id="g136"><path
             id="path138"
             style="fill:#999999;fill-opacity:1;fill-rule:nonzero;stroke:none"
             d="M 0,0 H -8.845 V 56 H 0 c 3.936,0 7.155,-3.22 7.155,-7.155 V 7.155 C 7.155,3.22 3.936,0 0,0" /></g><g
           transform="translate(63.1553,80)"
           id="g140"><path
             id="path142"
             style="fill:#999999;fill-opacity:1;fill-rule:nonzero;stroke:none"
             d="M 0,0 H 8.845 V 56 H 0 c -3.936,0 -7.155,-3.22 -7.155,-7.155 V 7.155 C -7.155,3.22 -3.936,0 0,0" /></g><path
           id="path144"
           style="fill:#666666;fill-opacity:1;fill-rule:nonzero;stroke:none"
           d="M 52,84 H 36 v 48 h 16 z" /><g
           transform="translate(64,160)"
           id="g146"><path
             id="path148"
             style="fill:#666666;fill-opacity:1;fill-rule:nonzero;stroke:none"
             d="m 0,0 c 0,-11.046 -8.954,-20 -20,-20 -11.046,0 -20,8.954 -20,20 0,11.046 8.954,20 20,20 C -8.954,20 0,11.046 0,0" /></g><g
           transform="translate(44,176)"
           id="g150"><path
             id="path152"
             style="fill:#58595b;fill-opacity:1;fill-rule:nonzero;stroke:none"
             d="m 0,0 c -8.822,0 -16,-7.178 -16,-16 0,-8.822 7.178,-16 16,-16 8.822,0 16,7.178 16,16 C 16,-7.178 8.822,0 0,0" /></g><g
           transform="translate(56,160)"
           id="g154"><path
             id="path156"
             style="fill:#c7c7c7;fill-opacity:1;fill-rule:nonzero;stroke:none"
             d="m 0,0 c 0,-6.627 -5.373,-12 -12,-12 -6.627,0 -12,5.373 -12,12 0,6.627 5.373,12 12,12 C -5.373,12 0,6.627 0,0" /></g><g
           transform="translate(192,72)"
           id="g158"><path
             id="path160"
             style="fill:#a6a6a6;fill-opacity:1;fill-rule:nonzero;stroke:none"
             d="m 0,0 h 40 c 4.4,0 8,3.6 8,8 v 96 c 0,4.4 -3.6,8 -8,8 H 0 c -4.4,0 -8,-3.6 -8,-8 V 8 C -8,3.6 -4.4,0 0,0" /></g><g
           transform="translate(192.8447,80)"
           id="g162"><path
             id="path164"
             style="fill:#999999;fill-opacity:1;fill-rule:nonzero;stroke:none"
             d="M 0,0 H -8.845 V 56 H 0 c 3.936,0 7.155,-3.22 7.155,-7.155 V 7.155 C 7.155,3.22 3.936,0 0,0" /></g><g
           transform="translate(231.1553,80)"
           id="g166"><path
             id="path168"
             style="fill:#999999;fill-opacity:1;fill-rule:nonzero;stroke:none"
             d="M 0,0 H 8.845 V 56 H 0 c -3.936,0 -7.155,-3.22 -7.155,-7.155 V 7.155 C -7.155,3.22 -3.936,0 0,0" /></g><path
           id="path170"
           style="fill:#666666;fill-opacity:1;fill-rule:nonzero;stroke:none"
           d="m 220,84 h -16 v 48 h 16 z" /><g
           transform="translate(232,160)"
           id="g172"><path
             id="path174"
             style="fill:#666666;fill-opacity:1;fill-rule:nonzero;stroke:none"
             d="m 0,0 c 0,-11.046 -8.954,-20 -20,-20 -11.046,0 -20,8.954 -20,20 0,11.046 8.954,20 20,20 C -8.954,20 0,11.046 0,0" /></g><g
           transform="translate(212,176)"
           id="g176"><path
             id="path178"
             style="fill:#58595b;fill-opacity:1;fill-rule:nonzero;stroke:none"
             d="m 0,0 c -8.822,0 -16,-7.178 -16,-16 0,-8.822 7.178,-16 16,-16 8.822,0 16,7.178 16,16 C 16,-7.178 8.822,0 0,0" /></g><g
           transform="translate(224,160)"
           id="g180"><path
             id="path182"
             style="fill:#c7c7c7;fill-opacity:1;fill-rule:nonzero;stroke:none"
             d="m 0,0 c 0,-6.627 -5.373,-12 -12,-12 -6.627,0 -12,5.373 -12,12 0,6.627 5.373,12 12,12 C -5.373,12 0,6.627 0,0" /></g></g></g></g></svg>