<?xml version="1.0" encoding="UTF-8" standalone="no"?>
<svg
   xmlns:dc="http://purl.org/dc/elements/1.1/"
   xmlns:cc="http://creativecommons.org/ns#"
   xmlns:rdf="http://www.w3.org/1999/02/22-rdf-syntax-ns#"
   xmlns:svg="http://www.w3.org/2000/svg"
   xmlns="http://www.w3.org/2000/svg"
   viewBox="0 0 330.66665 266.66665"
   height="266.66666"
   width="330.66666"
   xml:space="preserve"
   id="svg2"
   version="1.1"><metadata
     id="metadata8"><rdf:RDF><cc:Work
         rdf:about=""><dc:format>image/svg+xml</dc:format><dc:type
           rdf:resource="http://purl.org/dc/dcmitype/StillImage" /></cc:Work></rdf:RDF></metadata><defs
     id="defs6"><clipPath
       id="clipPath18"
       clipPathUnits="userSpaceOnUse"><path
         id="path16"
         d="M 0,256 H 256 V 0 H 0 Z" /></clipPath><clipPath
       id="clipPath26"
       clipPathUnits="userSpaceOnUse"><path
         id="path24"
         d="M 4,228 H 252 V 28 H 4 Z" /></clipPath></defs><g
     transform="matrix(1.3333333,0,0,-1.3333333,-5.3333332,303.99999)"
     id="g10"><g
       id="g12"><g
         clip-path="url(#clipPath18)"
         id="g14"><g
           id="g20"><g
             id="g22" /><g
             id="g34"><g
               style="opacity:0.5"
               id="g32"
               clip-path="url(#clipPath26)"><g
                 id="g30"
                 transform="translate(252,228)"><path
                   id="path28"
                   style="fill:#ffffff;fill-opacity:1;fill-rule:nonzero;stroke:none"
                   d="m 0,0 h -8 -232 -8 v -8 -184 -8 h 8 232 8 v 8 184 z" /></g></g></g></g></g></g><path
       id="path36"
       style="fill:#262626;fill-opacity:1;fill-rule:nonzero;stroke:none"
       d="M 244,36 H 12 v 184 h 232 z" /><path
       id="path38"
       style="fill:#191919;fill-opacity:1;fill-rule:nonzero;stroke:none"
       d="M 192,116 H 64 v 104 h 128 z" /><path
       id="path40"
       style="fill:#262626;fill-opacity:1;fill-rule:nonzero;stroke:none"
       d="M 188,212 H 68 v 2 h 120 z" /><path
       id="path42"
       style="fill:#262626;fill-opacity:1;fill-rule:nonzero;stroke:none"
       d="M 188,208 H 68 v 2 h 120 z" /><path
       id="path44"
       style="fill:#262626;fill-opacity:1;fill-rule:nonzero;stroke:none"
       d="M 188,204 H 68 v 2 h 120 z" /><path
       id="path46"
       style="fill:#262626;fill-opacity:1;fill-rule:nonzero;stroke:none"
       d="M 188,200 H 68 v 2 h 120 z" /><path
       id="path48"
       style="fill:#262626;fill-opacity:1;fill-rule:nonzero;stroke:none"
       d="M 188,196 H 68 v 2 h 120 z" /><path
       id="path50"
       style="fill:#262626;fill-opacity:1;fill-rule:nonzero;stroke:none"
       d="M 188,192 H 68 v 2 h 120 z" /><path
       id="path52"
       style="fill:#262626;fill-opacity:1;fill-rule:nonzero;stroke:none"
       d="M 188,188 H 68 v 2 h 120 z" /><path
       id="path54"
       style="fill:#262626;fill-opacity:1;fill-rule:nonzero;stroke:none"
       d="M 188,184 H 68 v 2 h 120 z" /><path
       id="path56"
       style="fill:#262626;fill-opacity:1;fill-rule:nonzero;stroke:none"
       d="M 188,180 H 68 v 2 h 120 z" /><path
       id="path58"
       style="fill:#262626;fill-opacity:1;fill-rule:nonzero;stroke:none"
       d="M 188,216 H 68 v 2 h 120 z" /><path
       id="path60"
       style="fill:#ffffff;fill-opacity:1;fill-rule:nonzero;stroke:none"
       d="M 188,168 H 68 v 8 h 120 z" /><path
       id="path62"
       style="fill:#ffffff;fill-opacity:1;fill-rule:nonzero;stroke:none"
       d="M 188,124 H 68 v 32 h 120 z" /><path
       id="path64"
       style="fill:#4b5da7;fill-opacity:1;fill-rule:nonzero;stroke:none"
       d="M 100,124 H 68 v 32 h 32 z" /><path
       id="path66"
       style="fill:#0d0d0d;fill-opacity:1;fill-rule:nonzero;stroke:none"
       d="M 188,156 H 68 v 12 h 120 z" /><path
       id="path68"
       style="fill:#191919;fill-opacity:1;fill-rule:nonzero;stroke:none"
       d="M 244,36 H 12 v 32 h 232 z" /></g></svg>