<?xml version="1.0" encoding="UTF-8" standalone="no"?>
<svg
   xmlns:dc="http://purl.org/dc/elements/1.1/"
   xmlns:cc="http://creativecommons.org/ns#"
   xmlns:rdf="http://www.w3.org/1999/02/22-rdf-syntax-ns#"
   xmlns:svg="http://www.w3.org/2000/svg"
   xmlns="http://www.w3.org/2000/svg"
   viewBox="0 0 330.66665 213.33333"
   height="213.33333"
   width="330.66666"
   xml:space="preserve"
   id="svg2"
   version="1.1"><metadata
     id="metadata8"><rdf:RDF><cc:Work
         rdf:about=""><dc:format>image/svg+xml</dc:format><dc:type
           rdf:resource="http://purl.org/dc/dcmitype/StillImage" /></cc:Work></rdf:RDF></metadata><defs
     id="defs6"><clipPath
       id="clipPath18"
       clipPathUnits="userSpaceOnUse"><path
         id="path16"
         d="M 0,256 H 256 V 0 H 0 Z" /></clipPath><clipPath
       id="clipPath26"
       clipPathUnits="userSpaceOnUse"><path
         id="path24"
         d="M 4,208 H 252 V 48 H 4 Z" /></clipPath><clipPath
       id="clipPath44"
       clipPathUnits="userSpaceOnUse"><path
         id="path42"
         d="M 0,256 H 256 V 0 H 0 Z" /></clipPath></defs><g
     transform="matrix(1.3333333,0,0,-1.3333333,-5.3333332,277.33333)"
     id="g10"><g
       id="g12"><g
         clip-path="url(#clipPath18)"
         id="g14"><g
           id="g20"><g
             id="g22" /><g
             id="g34"><g
               style="opacity:0.5"
               id="g32"
               clip-path="url(#clipPath26)"><g
                 id="g30"
                 transform="translate(240,208)"><path
                   id="path28"
                   style="fill:#ffffff;fill-opacity:1;fill-rule:nonzero;stroke:none"
                   d="m 0,0 h -224 c -6.617,0 -12,-5.383 -12,-12 v -112 -4 -24 -8 h 8 232 8 v 8 24 4 112 C 12,-5.383 6.617,0 0,0" /></g></g></g></g></g></g><path
       id="path36"
       style="fill:#d4a600;fill-opacity:1;fill-rule:nonzero;stroke:none"
       d="M 244,56 H 12 v 28 h 232 z" /><g
       id="g38"><g
         clip-path="url(#clipPath44)"
         id="g40"><g
           transform="translate(244,80)"
           id="g46"><path
             id="path48"
             style="fill:#eac500;fill-opacity:1;fill-rule:nonzero;stroke:none"
             d="m 0,0 h -232 v 116 c 0,2.209 1.791,4 4,4 H -4 c 2.209,0 4,-1.791 4,-4 z" /></g><g
           transform="translate(211,96)"
           id="g50"><path
             id="path52"
             style="fill:#ffffff;fill-opacity:1;fill-rule:nonzero;stroke:none"
             d="m 0,0 h -166 c -2.761,0 -5,2.238 -5,5 v 58 c 0,2.761 2.239,5 5,5 H 0 c 2.762,0 5,-2.239 5,-5 V 5 C 5,2.238 2.762,0 0,0" /></g><g
           transform="translate(174,172)"
           id="g54"><path
             id="path56"
             style="fill:#d4a600;fill-opacity:1;fill-rule:nonzero;stroke:none"
             d="m 0,0 h -92 c -1.104,0 -2,0.896 -2,2 0,1.104 0.896,2 2,2 H 0 C 1.104,4 2,3.104 2,2 2,0.896 1.104,0 0,0" /></g><g
           transform="translate(174,180)"
           id="g58"><path
             id="path60"
             style="fill:#d4a600;fill-opacity:1;fill-rule:nonzero;stroke:none"
             d="m 0,0 h -92 c -1.104,0 -2,0.896 -2,2 0,1.104 0.896,2 2,2 H 0 C 1.104,4 2,3.104 2,2 2,0.896 1.104,0 0,0" /></g><g
           transform="translate(174,188)"
           id="g62"><path
             id="path64"
             style="fill:#d4a600;fill-opacity:1;fill-rule:nonzero;stroke:none"
             d="m 0,0 h -92 c -1.104,0 -2,0.896 -2,2 0,1.104 0.896,2 2,2 H 0 C 1.104,4 2,3.104 2,2 2,0.896 1.104,0 0,0" /></g><path
           id="path66"
           style="fill:#f39b11;fill-opacity:1;fill-rule:nonzero;stroke:none"
           d="M 216,116 H 40 v 28 h 176 z" /><path
           id="path68"
           style="fill:#1abf9f;fill-opacity:1;fill-rule:nonzero;stroke:none"
           d="M 236,60 H 20 v 16 h 216 z" /><path
           id="path70"
           style="fill:#a3834a;fill-opacity:1;fill-rule:nonzero;stroke:none"
           d="m 28,64 h -4 v 12 h 4 z" /><path
           id="path72"
           style="fill:#a3834a;fill-opacity:1;fill-rule:nonzero;stroke:none"
           d="m 36,64 h -4 v 12 h 4 z" /><path
           id="path74"
           style="fill:#a3834a;fill-opacity:1;fill-rule:nonzero;stroke:none"
           d="m 44,64 h -4 v 12 h 4 z" /><path
           id="path76"
           style="fill:#a3834a;fill-opacity:1;fill-rule:nonzero;stroke:none"
           d="m 52,64 h -4 v 12 h 4 z" /><path
           id="path78"
           style="fill:#a3834a;fill-opacity:1;fill-rule:nonzero;stroke:none"
           d="m 60,64 h -4 v 12 h 4 z" /><path
           id="path80"
           style="fill:#a3834a;fill-opacity:1;fill-rule:nonzero;stroke:none"
           d="m 68,64 h -4 v 12 h 4 z" /><path
           id="path82"
           style="fill:#a3834a;fill-opacity:1;fill-rule:nonzero;stroke:none"
           d="m 76,64 h -4 v 12 h 4 z" /><path
           id="path84"
           style="fill:#a3834a;fill-opacity:1;fill-rule:nonzero;stroke:none"
           d="m 84,64 h -4 v 12 h 4 z" /><path
           id="path86"
           style="fill:#a3834a;fill-opacity:1;fill-rule:nonzero;stroke:none"
           d="m 92,64 h -4 v 12 h 4 z" /><path
           id="path88"
           style="fill:#a3834a;fill-opacity:1;fill-rule:nonzero;stroke:none"
           d="m 100,64 h -4 v 12 h 4 z" /><path
           id="path90"
           style="fill:#a3834a;fill-opacity:1;fill-rule:nonzero;stroke:none"
           d="m 108,64 h -4 v 12 h 4 z" /><path
           id="path92"
           style="fill:#a3834a;fill-opacity:1;fill-rule:nonzero;stroke:none"
           d="m 116,60 h -4 v 16 h 4 z" /><path
           id="path94"
           style="fill:#a3834a;fill-opacity:1;fill-rule:nonzero;stroke:none"
           d="m 124,60 h -4 v 16 h 4 z" /><path
           id="path96"
           style="fill:#a3834a;fill-opacity:1;fill-rule:nonzero;stroke:none"
           d="m 132,64 h -4 v 12 h 4 z" /><path
           id="path98"
           style="fill:#a3834a;fill-opacity:1;fill-rule:nonzero;stroke:none"
           d="m 140,64 h -4 v 12 h 4 z" /><path
           id="path100"
           style="fill:#a3834a;fill-opacity:1;fill-rule:nonzero;stroke:none"
           d="m 148,64 h -4 v 12 h 4 z" /><path
           id="path102"
           style="fill:#a3834a;fill-opacity:1;fill-rule:nonzero;stroke:none"
           d="m 156,64 h -4 v 12 h 4 z" /><path
           id="path104"
           style="fill:#a3834a;fill-opacity:1;fill-rule:nonzero;stroke:none"
           d="m 164,64 h -4 v 12 h 4 z" /><path
           id="path106"
           style="fill:#a3834a;fill-opacity:1;fill-rule:nonzero;stroke:none"
           d="m 172,64 h -4 v 12 h 4 z" /><path
           id="path108"
           style="fill:#a3834a;fill-opacity:1;fill-rule:nonzero;stroke:none"
           d="m 180,64 h -4 v 12 h 4 z" /><path
           id="path110"
           style="fill:#a3834a;fill-opacity:1;fill-rule:nonzero;stroke:none"
           d="m 188,64 h -4 v 12 h 4 z" /><path
           id="path112"
           style="fill:#a3834a;fill-opacity:1;fill-rule:nonzero;stroke:none"
           d="m 196,64 h -4 v 12 h 4 z" /><path
           id="path114"
           style="fill:#a3834a;fill-opacity:1;fill-rule:nonzero;stroke:none"
           d="m 204,64 h -4 v 12 h 4 z" /><path
           id="path116"
           style="fill:#a3834a;fill-opacity:1;fill-rule:nonzero;stroke:none"
           d="m 212,64 h -4 v 12 h 4 z" /><path
           id="path118"
           style="fill:#a3834a;fill-opacity:1;fill-rule:nonzero;stroke:none"
           d="m 220,64 h -4 v 12 h 4 z" /><path
           id="path120"
           style="fill:#a3834a;fill-opacity:1;fill-rule:nonzero;stroke:none"
           d="m 228,60 h -4 v 16 h 4 z" /><path
           id="path122"
           style="fill:#cccccc;fill-opacity:1;fill-rule:nonzero;stroke:none"
           d="M 236,76 H 20 v 4 h 216 z" /></g></g></g></svg>