<?xml version="1.0" encoding="UTF-8" standalone="no"?>
<svg
   xmlns:dc="http://purl.org/dc/elements/1.1/"
   xmlns:cc="http://creativecommons.org/ns#"
   xmlns:rdf="http://www.w3.org/1999/02/22-rdf-syntax-ns#"
   xmlns:svg="http://www.w3.org/2000/svg"
   xmlns="http://www.w3.org/2000/svg"
   viewBox="0 0 224 330.66626"
   height="330.66626"
   width="224"
   xml:space="preserve"
   id="svg2"
   version="1.1"><metadata
     id="metadata8"><rdf:RDF><cc:Work
         rdf:about=""><dc:format>image/svg+xml</dc:format><dc:type
           rdf:resource="http://purl.org/dc/dcmitype/StillImage" /></cc:Work></rdf:RDF></metadata><defs
     id="defs6"><clipPath
       id="clipPath18"
       clipPathUnits="userSpaceOnUse"><path
         id="path16"
         d="M 0,256 H 256 V 0 H 0 Z" /></clipPath><clipPath
       id="clipPath26"
       clipPathUnits="userSpaceOnUse"><path
         id="path24"
         d="M 44,252 H 212 V 4 H 44 Z" /></clipPath></defs><g
     transform="matrix(1.3333333,0,0,-1.3333333,-58.666665,335.99959)"
     id="g10"><g
       id="g12"><g
         clip-path="url(#clipPath18)"
         id="g14"><g
           id="g20"><g
             id="g22" /><g
             id="g34"><g
               style="opacity:0.5"
               id="g32"
               clip-path="url(#clipPath26)"><g
                 id="g30"
                 transform="translate(208,134.5527)"><path
                   id="path28"
                   style="fill:#ffffff;fill-opacity:1;fill-rule:nonzero;stroke:none"
                   d="m 0,0 v 97.447 c 0,11.029 -8.972,20 -20,20 h -124 c -11.028,0 -20,-8.971 -20,-20 v -204 c 0,-11.028 8.972,-20 20,-20 h 57.447 c 2.885,-2.535 6.632,-4 10.553,-4 h 64 c 8.822,0 16,7.178 16,16 v 104 C 4,-6.631 2.535,-2.885 0,0" /></g></g></g></g><g
           transform="translate(188,16)"
           id="g36"><path
             id="path38"
             style="fill:#737373;fill-opacity:1;fill-rule:nonzero;stroke:none"
             d="m 0,0 h -124 c -6.627,0 -12,5.373 -12,12 v 204 c 0,6.627 5.373,12 12,12 H 0 c 6.627,0 12,-5.373 12,-12 V 12 C 12,5.373 6.627,0 0,0" /></g><path
           id="path40"
           style="fill:#666666;fill-opacity:1;fill-rule:nonzero;stroke:none"
           d="M 188,16 H 64 v 228 h 124 z" /><g
           transform="translate(72,216)"
           id="g42"><path
             id="path44"
             style="fill:#d9d9d9;fill-opacity:1;fill-rule:nonzero;stroke:none"
             d="m 0,0 c 0,-4.418 -3.582,-8 -8,-8 -4.418,0 -8,3.582 -8,8 0,4.418 3.582,8 8,8 4.418,0 8,-3.582 8,-8" /></g><g
           transform="translate(136,216)"
           id="g46"><path
             id="path48"
             style="fill:#d9d9d9;fill-opacity:1;fill-rule:nonzero;stroke:none"
             d="m 0,0 c 0,-4.418 -3.582,-8 -8,-8 -4.418,0 -8,3.582 -8,8 0,4.418 3.582,8 8,8 4.418,0 8,-3.582 8,-8" /></g><g
           transform="translate(184,232)"
           id="g50"><path
             id="path52"
             style="fill:#333333;fill-opacity:1;fill-rule:nonzero;stroke:none"
             d="m 0,0 c 0,-2.209 -1.791,-4 -4,-4 -2.209,0 -4,1.791 -4,4 0,2.209 1.791,4 4,4 2.209,0 4,-1.791 4,-4" /></g><g
           transform="translate(76,232)"
           id="g54"><path
             id="path56"
             style="fill:#333333;fill-opacity:1;fill-rule:nonzero;stroke:none"
             d="m 0,0 c 0,-2.209 -1.791,-4 -4,-4 -2.209,0 -4,1.791 -4,4 0,2.209 1.791,4 4,4 2.209,0 4,-1.791 4,-4" /></g><path
           id="path58"
           style="fill:#333333;fill-opacity:1;fill-rule:nonzero;stroke:none"
           d="m 188,216 h -44 v 2 h 44 z" /><path
           id="path60"
           style="fill:#333333;fill-opacity:1;fill-rule:nonzero;stroke:none"
           d="m 188,212 h -44 v 2 h 44 z" /><path
           id="path62"
           style="fill:#333333;fill-opacity:1;fill-rule:nonzero;stroke:none"
           d="m 188,208 h -44 v 2 h 44 z" /><path
           id="path64"
           style="fill:#333333;fill-opacity:1;fill-rule:nonzero;stroke:none"
           d="m 188,204 h -44 v 2 h 44 z" /><path
           id="path66"
           style="fill:#333333;fill-opacity:1;fill-rule:nonzero;stroke:none"
           d="m 188,200 h -44 v 2 h 44 z" /><path
           id="path68"
           style="fill:#333333;fill-opacity:1;fill-rule:nonzero;stroke:none"
           d="m 188,196 h -44 v 2 h 44 z" /><path
           id="path70"
           style="fill:#333333;fill-opacity:1;fill-rule:nonzero;stroke:none"
           d="m 188,192 h -44 v 2 h 44 z" /><path
           id="path72"
           style="fill:#333333;fill-opacity:1;fill-rule:nonzero;stroke:none"
           d="m 188,188 h -44 v 2 h 44 z" /><path
           id="path74"
           style="fill:#333333;fill-opacity:1;fill-rule:nonzero;stroke:none"
           d="m 188,184 h -44 v 2 h 44 z" /><path
           id="path76"
           style="fill:#333333;fill-opacity:1;fill-rule:nonzero;stroke:none"
           d="m 188,180 h -44 v 2 h 44 z" /><path
           id="path78"
           style="fill:#333333;fill-opacity:1;fill-rule:nonzero;stroke:none"
           d="m 188,176 h -44 v 2 h 44 z" /><path
           id="path80"
           style="fill:#333333;fill-opacity:1;fill-rule:nonzero;stroke:none"
           d="m 188,172 h -44 v 2 h 44 z" /><path
           id="path82"
           style="fill:#333333;fill-opacity:1;fill-rule:nonzero;stroke:none"
           d="m 188,168 h -44 v 2 h 44 z" /><path
           id="path84"
           style="fill:#333333;fill-opacity:1;fill-rule:nonzero;stroke:none"
           d="m 188,164 h -44 v 2 h 44 z" /><path
           id="path86"
           style="fill:#333333;fill-opacity:1;fill-rule:nonzero;stroke:none"
           d="m 188,160 h -44 v 2 h 44 z" /><path
           id="path88"
           style="fill:#333333;fill-opacity:1;fill-rule:nonzero;stroke:none"
           d="m 188,156 h -44 v 2 h 44 z" /><g
           transform="translate(114,96)"
           id="g90"><path
             id="path92"
             style="fill:#bfbfbf;fill-opacity:1;fill-rule:nonzero;stroke:none"
             d="m 0,0 h -32 c -1.1,0 -2,0.9 -2,2 v 24 c 0,1.1 0.9,2 2,2 H 0 c 1.1,0 2,-0.9 2,-2 V 2 C 2,0.9 1.1,0 0,0" /></g><g
           transform="translate(196,12)"
           id="g94"><path
             id="path96"
             style="fill:#4c4c4c;fill-opacity:1;fill-rule:nonzero;stroke:none"
             d="m 0,0 h -64 c -4.4,0 -8,3.6 -8,8 v 104 c 0,4.4 3.6,8 8,8 H 0 c 4.4,0 8,-3.6 8,-8 V 8 C 8,3.6 4.4,0 0,0" /></g><g
           transform="translate(192,16)"
           id="g98"><path
             id="path100"
             style="fill:#666666;fill-opacity:1;fill-rule:nonzero;stroke:none"
             d="m 0,0 h -56 c -4.4,0 -8,3.6 -8,8 v 96 c 0,4.4 3.6,8 8,8 H 0 c 4.4,0 8,-3.6 8,-8 V 8 C 8,3.6 4.4,0 0,0" /></g><g
           transform="translate(184,24)"
           id="g102"><path
             id="path104"
             style="fill:#333333;fill-opacity:1;fill-rule:nonzero;stroke:none"
             d="m 0,0 c 0,-2.209 -1.791,-4 -4,-4 -2.209,0 -4,1.791 -4,4 0,2.209 1.791,4 4,4 2.209,0 4,-1.791 4,-4" /></g><g
           transform="translate(76,24)"
           id="g106"><path
             id="path108"
             style="fill:#333333;fill-opacity:1;fill-rule:nonzero;stroke:none"
             d="m 0,0 c 0,-2.209 -1.791,-4 -4,-4 -2.209,0 -4,1.791 -4,4 0,2.209 1.791,4 4,4 2.209,0 4,-1.791 4,-4" /></g><g
           transform="translate(190,124)"
           id="g110"><path
             id="path112"
             style="fill:#ffffff;fill-opacity:1;fill-rule:nonzero;stroke:none"
             d="m 0,0 h -56 c -1.104,0 -2,-0.896 -2,-2 v -88 c 0,-1.104 0.896,-2 2,-2 H 0 c 1.104,0 2,0.896 2,2 V -2 C 2,-0.896 1.104,0 0,0" /></g><path
           id="path114"
           style="fill:#141414;fill-opacity:1;fill-rule:nonzero;stroke:none"
           d="m 176,216 h -20 v 2 h 20 z" /><path
           id="path116"
           style="fill:#141414;fill-opacity:1;fill-rule:nonzero;stroke:none"
           d="m 176,212 h -20 v 2 h 20 z" /><path
           id="path118"
           style="fill:#141414;fill-opacity:1;fill-rule:nonzero;stroke:none"
           d="m 180,208 h -28 v 2 h 28 z" /><path
           id="path120"
           style="fill:#141414;fill-opacity:1;fill-rule:nonzero;stroke:none"
           d="m 180,204 h -28 v 2 h 28 z" /><path
           id="path122"
           style="fill:#141414;fill-opacity:1;fill-rule:nonzero;stroke:none"
           d="m 180,200 h -28 v 2 h 28 z" /><path
           id="path124"
           style="fill:#141414;fill-opacity:1;fill-rule:nonzero;stroke:none"
           d="m 176,196 h -20 v 2 h 20 z" /><path
           id="path126"
           style="fill:#141414;fill-opacity:1;fill-rule:nonzero;stroke:none"
           d="m 176,192 h -20 v 2 h 20 z" /><g
           transform="translate(182,232)"
           id="g128"><path
             id="path130"
             style="fill:#191919;fill-opacity:1;fill-rule:nonzero;stroke:none"
             d="m 0,0 c 0,-1.104 -0.896,-2 -2,-2 -1.104,0 -2,0.896 -2,2 0,1.104 0.896,2 2,2 1.104,0 2,-0.896 2,-2" /></g><g
           transform="translate(74,232)"
           id="g132"><path
             id="path134"
             style="fill:#191919;fill-opacity:1;fill-rule:nonzero;stroke:none"
             d="m 0,0 c 0,-1.104 -0.896,-2 -2,-2 -1.104,0 -2,0.896 -2,2 0,1.104 0.896,2 2,2 1.104,0 2,-0.896 2,-2" /></g><g
           transform="translate(182,24)"
           id="g136"><path
             id="path138"
             style="fill:#191919;fill-opacity:1;fill-rule:nonzero;stroke:none"
             d="m 0,0 c 0,-1.104 -0.896,-2 -2,-2 -1.104,0 -2,0.896 -2,2 0,1.104 0.896,2 2,2 1.104,0 2,-0.896 2,-2" /></g><g
           transform="translate(74,24)"
           id="g140"><path
             id="path142"
             style="fill:#191919;fill-opacity:1;fill-rule:nonzero;stroke:none"
             d="m 0,0 c 0,-1.104 -0.896,-2 -2,-2 -1.104,0 -2,0.896 -2,2 0,1.104 0.896,2 2,2 1.104,0 2,-0.896 2,-2" /></g><g
           transform="translate(60,216)"
           id="g144"><path
             id="path146"
             style="fill:#bfbfbf;fill-opacity:1;fill-rule:nonzero;stroke:none"
             d="M 0,0 C 0,0.171 0.029,0.334 0.05,0.5 H -4 v -1 H 0.05 C 0.029,-0.334 0,-0.171 0,0" /></g><g
           transform="translate(64,220)"
           id="g148"><path
             id="path150"
             style="fill:#bfbfbf;fill-opacity:1;fill-rule:nonzero;stroke:none"
             d="M 0,0 C 0.171,0 0.334,-0.029 0.5,-0.05 V 4 h -1 V -0.05 C -0.334,-0.029 -0.171,0 0,0" /></g><g
           transform="translate(64,212)"
           id="g152"><path
             id="path154"
             style="fill:#bfbfbf;fill-opacity:1;fill-rule:nonzero;stroke:none"
             d="M 0,0 C -0.171,0 -0.334,0.029 -0.5,0.05 V -4 h 1 V 0.05 C 0.334,0.029 0.171,0 0,0" /></g><g
           transform="translate(67.9497,216.5)"
           id="g156"><path
             id="path158"
             style="fill:#bfbfbf;fill-opacity:1;fill-rule:nonzero;stroke:none"
             d="M 0,0 C 0.021,-0.166 0.05,-0.329 0.05,-0.5 0.05,-0.671 0.021,-0.834 0,-1 h 4.05 v 1 z" /></g><g
           transform="translate(124,216)"
           id="g160"><path
             id="path162"
             style="fill:#bfbfbf;fill-opacity:1;fill-rule:nonzero;stroke:none"
             d="M 0,0 C 0,0.171 0.029,0.334 0.05,0.5 H -4 v -1 H 0.05 C 0.029,-0.334 0,-0.171 0,0" /></g><g
           transform="translate(128,220)"
           id="g164"><path
             id="path166"
             style="fill:#bfbfbf;fill-opacity:1;fill-rule:nonzero;stroke:none"
             d="M 0,0 C 0.171,0 0.334,-0.029 0.5,-0.05 V 4 h -1 V -0.05 C -0.334,-0.029 -0.171,0 0,0" /></g><g
           transform="translate(128,212)"
           id="g168"><path
             id="path170"
             style="fill:#bfbfbf;fill-opacity:1;fill-rule:nonzero;stroke:none"
             d="M 0,0 C -0.171,0 -0.334,0.029 -0.5,0.05 V -4 h 1 V 0.05 C 0.334,0.029 0.171,0 0,0" /></g><g
           transform="translate(131.9492,216.5)"
           id="g172"><path
             id="path174"
             style="fill:#bfbfbf;fill-opacity:1;fill-rule:nonzero;stroke:none"
             d="M 0,0 C 0.021,-0.166 0.051,-0.329 0.051,-0.5 0.051,-0.671 0.021,-0.834 0,-1 h 4.051 v 1 z" /></g></g></g></g></svg>