<?xml version="1.0" encoding="UTF-8" standalone="no"?>
<svg
   xmlns:dc="http://purl.org/dc/elements/1.1/"
   xmlns:cc="http://creativecommons.org/ns#"
   xmlns:rdf="http://www.w3.org/1999/02/22-rdf-syntax-ns#"
   xmlns:svg="http://www.w3.org/2000/svg"
   xmlns="http://www.w3.org/2000/svg"
   viewBox="0 0 320 320"
   height="320"
   width="320"
   xml:space="preserve"
   version="1.1"
   id="svg2"><metadata
     id="metadata8"><rdf:RDF><cc:Work
         rdf:about=""><dc:format>image/svg+xml</dc:format><dc:type
           rdf:resource="http://purl.org/dc/dcmitype/StillImage" /></cc:Work></rdf:RDF></metadata><defs
     id="defs6"><clipPath
       id="clipPath16"
       clipPathUnits="userSpaceOnUse"><path
         id="path18"
         d="M 0,256 256,256 256,0 0,0 0,256 Z" /></clipPath><clipPath
       id="clipPath24"
       clipPathUnits="userSpaceOnUse"><path
         id="path26"
         d="M 4,252 252,252 252,4 4,4 4,252 Z" /></clipPath></defs><g
     transform="matrix(1.25,0,0,-1.25,0,320)"
     id="g10"><g
       id="g12"><g
         clip-path="url(#clipPath16)"
         id="g14"><g
           id="g20"><g
             id="g22" /><g
             id="g28"><g
               style="opacity:0.5"
               id="g30"
               clip-path="url(#clipPath24)"><g
                 id="g32"
                 transform="translate(252,128)"><path
                   id="path34"
                   style="fill:#ffffff;fill-opacity:1;fill-rule:nonzero;stroke:none"
                   d="M 0,0 C 0,33.121 -12.9,64.26 -36.324,87.682 -59.746,111.102 -90.884,124 -124,124 -157.124,124 -188.264,111.102 -211.684,87.682 -235.103,64.262 -248,33.123 -248,0 c 0,-3.803 0.177,-7.651 0.527,-11.463 -0.35,-1.492 -0.527,-3.012 -0.527,-4.537 l 0,-8 0,-8 0,-8 0,-8 0,-8 0,-60 0,-8 8,0 232,0 8,0 0,8 0,60 0,8 0,8 0,8 0,8 0,8 c 0,1.525 -0.177,3.045 -0.527,4.537 C -0.177,-7.651 0,-3.803 0,0" /></g></g></g></g><g
           transform="translate(128,84.4951)"
           id="g36"><path
             id="path38"
             style="fill:#354f9f;fill-opacity:1;fill-rule:nonzero;stroke:none"
             d="M 0,0 C -23.993,0 -43.505,19.518 -43.505,43.505 -43.505,67.493 -23.993,87.01 0,87.01 23.987,87.01 43.5,67.493 43.5,43.505 43.5,19.518 23.987,0 0,0 m 0,159.505 c -64.071,0 -116,-51.934 -116,-116 0,-64.066 51.929,-116 116,-116 64.051,0 116,51.934 116,116 0,64.066 -51.949,116 -116,116" /></g><g
           transform="translate(128.0024,114.2246)"
           id="g40"><path
             id="path42"
             style="fill:#e6e6e6;fill-opacity:1;fill-rule:nonzero;stroke:none"
             d="m 0,0 c -7.596,0 -13.786,6.176 -13.786,13.775 0,7.605 6.19,13.786 13.786,13.786 7.6,0 13.777,-6.181 13.777,-13.786 C 13.777,6.176 7.6,0 0,0 m 0.001,59.775 c -25.364,0 -46.003,-20.65 -46.003,-46 0,-25.348 20.639,-46 46.003,-46 25.337,0 45.997,20.652 45.997,46 0,25.35 -20.66,46 -45.997,46" /></g><g
           transform="translate(240,76)"
           id="g44"><path
             id="path46"
             style="fill:#404040;fill-opacity:1;fill-rule:nonzero;stroke:none"
             d="m 0,0 0,4 4,0 0,4 -4,0 0,4 4,0 0,4 -4,0 0,4 4,0 0,4 -4,0 0,4 4,0 0,8 c 0,6.627 -5.373,12 -12,12 l -208,0 c -6.627,0 -12,-5.373 -12,-12 l 0,-8 4,0 0,-4 -4,0 0,-4 4,0 0,-4 -4,0 0,-4 4,0 0,-4 -4,0 0,-4 4,0 0,-4 -4,0 0,-64 232,0 0,64 -4,0 z" /></g><path
           id="path48"
           style="fill:#ffffff;fill-opacity:1;fill-rule:nonzero;stroke:none"
           d="m 220,44 -184,0 0,64 184,0 0,-64 z" /><path
           id="path50"
           style="fill:#354f9f;fill-opacity:1;fill-rule:nonzero;stroke:none"
           d="m 220,28 -184,0 0,16 184,0 0,-16 z" /><path
           id="path52"
           style="fill:#333333;fill-opacity:1;fill-rule:nonzero;stroke:none"
           d="m 32,100 -16,0 0,4 16,0 0,-4 z" /><path
           id="path54"
           style="fill:#333333;fill-opacity:1;fill-rule:nonzero;stroke:none"
           d="m 32,92 -16,0 0,4 16,0 0,-4 z" /><path
           id="path56"
           style="fill:#333333;fill-opacity:1;fill-rule:nonzero;stroke:none"
           d="m 32,84 -16,0 0,4 16,0 0,-4 z" /><path
           id="path58"
           style="fill:#333333;fill-opacity:1;fill-rule:nonzero;stroke:none"
           d="m 32,76 -16,0 0,4 16,0 0,-4 z" /><path
           id="path60"
           style="fill:#333333;fill-opacity:1;fill-rule:nonzero;stroke:none"
           d="m 240,100 -16,0 0,4 16,0 0,-4 z" /><path
           id="path62"
           style="fill:#333333;fill-opacity:1;fill-rule:nonzero;stroke:none"
           d="m 240,92 -16,0 0,4 16,0 0,-4 z" /><path
           id="path64"
           style="fill:#333333;fill-opacity:1;fill-rule:nonzero;stroke:none"
           d="m 240,84 -16,0 0,4 16,0 0,-4 z" /><path
           id="path66"
           style="fill:#333333;fill-opacity:1;fill-rule:nonzero;stroke:none"
           d="m 240,76 -16,0 0,4 16,0 0,-4 z" /></g></g></g></svg>