<?xml version="1.0" encoding="UTF-8" standalone="no"?>
<svg
   xmlns:dc="http://purl.org/dc/elements/1.1/"
   xmlns:cc="http://creativecommons.org/ns#"
   xmlns:rdf="http://www.w3.org/1999/02/22-rdf-syntax-ns#"
   xmlns:svg="http://www.w3.org/2000/svg"
   xmlns="http://www.w3.org/2000/svg"
   viewBox="0 0 320 320"
   height="320"
   width="320"
   xml:space="preserve"
   version="1.1"
   id="svg2"><metadata
     id="metadata8"><rdf:RDF><cc:Work
         rdf:about=""><dc:format>image/svg+xml</dc:format><dc:type
           rdf:resource="http://purl.org/dc/dcmitype/StillImage" /></cc:Work></rdf:RDF></metadata><defs
     id="defs6"><clipPath
       id="clipPath16"
       clipPathUnits="userSpaceOnUse"><path
         id="path18"
         d="M 0,256 256,256 256,0 0,0 0,256 Z" /></clipPath><clipPath
       id="clipPath24"
       clipPathUnits="userSpaceOnUse"><path
         id="path26"
         d="M 6,208 250,208 250,48 6,48 6,208 Z" /></clipPath></defs><g
     transform="matrix(1.25,0,0,-1.25,0,320)"
     id="g10"><g
       id="g12"><g
         clip-path="url(#clipPath16)"
         id="g14"><g
           id="g20"><g
             id="g22" /><g
             id="g28"><g
               style="opacity:0.5"
               id="g30"
               clip-path="url(#clipPath24)"><g
                 id="g32"
                 transform="translate(244.5293,199.5894)"><path
                   id="path34"
                   style="fill:#ffffff;fill-opacity:1;fill-rule:nonzero;stroke:none"
                   d="m 0,0 -8.952,2.984 c -1.071,3.156 -4.06,5.427 -7.577,5.427 l -2,0 c -0.339,0 -0.672,-0.021 -1,-0.062 -0.328,0.041 -0.661,0.062 -1,0.062 l -2,0 c -0.339,0 -0.672,-0.021 -1,-0.062 -0.328,0.041 -0.661,0.062 -1,0.062 l -2,0 c -0.339,0 -0.672,-0.021 -1,-0.062 -0.328,0.041 -0.661,0.062 -1,0.062 l -2,0 c -0.339,0 -0.672,-0.021 -1,-0.062 -0.328,0.041 -0.661,0.062 -1,0.062 l -2,0 c -0.339,0 -0.672,-0.021 -1,-0.062 -0.328,0.041 -0.661,0.062 -1,0.062 l -2,0 c -0.339,0 -0.672,-0.021 -1,-0.062 -0.328,0.041 -0.661,0.062 -1,0.062 l -2,0 c -0.339,0 -0.672,-0.021 -1,-0.062 -0.328,0.041 -0.661,0.062 -1,0.062 l -2,0 c -0.339,0 -0.672,-0.021 -1,-0.062 -0.328,0.041 -0.661,0.062 -1,0.062 l -2,0 c -0.339,0 -0.672,-0.021 -1,-0.062 -0.328,0.041 -0.661,0.062 -1,0.062 l -2,0 c -0.339,0 -0.672,-0.021 -1,-0.062 -0.328,0.041 -0.661,0.062 -1,0.062 l -2,0 c -0.339,0 -0.672,-0.021 -1,-0.062 -0.328,0.041 -0.661,0.062 -1,0.062 l -2,0 c -0.339,0 -0.672,-0.021 -1,-0.062 -0.328,0.041 -0.661,0.062 -1,0.062 l -2,0 c -0.339,0 -0.672,-0.021 -1,-0.062 -0.328,0.041 -0.661,0.062 -1,0.062 l -2,0 c -0.339,0 -0.672,-0.021 -1,-0.062 -0.328,0.041 -0.661,0.062 -1,0.062 l -2,0 c -0.339,0 -0.672,-0.021 -1,-0.062 -0.328,0.041 -0.661,0.062 -1,0.062 l -2,0 c -0.339,0 -0.672,-0.021 -1,-0.062 -0.328,0.041 -0.661,0.062 -1,0.062 l -2,0 c -0.339,0 -0.672,-0.021 -1,-0.062 -0.328,0.041 -0.661,0.062 -1,0.062 l -2,0 c -0.339,0 -0.672,-0.021 -1,-0.062 -0.328,0.041 -0.661,0.062 -1,0.062 l -2,0 c -0.339,0 -0.672,-0.021 -1,-0.062 -0.328,0.041 -0.661,0.062 -1,0.062 l -2,0 c -0.339,0 -0.672,-0.021 -1,-0.062 -0.328,0.041 -0.661,0.062 -1,0.062 l -2,0 c -0.339,0 -0.672,-0.021 -1,-0.062 -0.328,0.041 -0.661,0.062 -1,0.062 l -2,0 c -0.339,0 -0.672,-0.021 -1,-0.062 -0.328,0.041 -0.661,0.062 -1,0.062 l -2,0 c -0.339,0 -0.672,-0.021 -1,-0.062 -0.328,0.041 -0.661,0.062 -1,0.062 l -2,0 c -0.339,0 -0.672,-0.021 -1,-0.062 -0.328,0.041 -0.661,0.062 -1,0.062 l -2,0 c -0.339,0 -0.672,-0.021 -1,-0.062 -0.328,0.041 -0.661,0.062 -1,0.062 l -2,0 c -0.339,0 -0.673,-0.021 -1,-0.062 -0.328,0.041 -0.661,0.062 -1,0.062 l -2,0 c -0.339,0 -0.673,-0.021 -1,-0.062 -0.328,0.041 -0.661,0.062 -1,0.062 l -2,0 c -0.339,0 -0.673,-0.021 -1,-0.062 -0.328,0.041 -0.661,0.062 -1,0.062 l -2,0 c -0.339,0 -0.673,-0.021 -1,-0.062 -0.328,0.041 -0.661,0.062 -1,0.062 l -2,0 c -0.339,0 -0.673,-0.021 -1,-0.062 -0.328,0.041 -0.661,0.062 -1,0.062 l -2,0 c -0.339,0 -0.673,-0.021 -1,-0.062 -0.328,0.041 -0.661,0.062 -1,0.062 l -2,0 c -0.339,0 -0.673,-0.021 -1,-0.062 -0.328,0.041 -0.661,0.062 -1,0.062 l -2,0 c -0.339,0 -0.673,-0.021 -1,-0.062 -0.328,0.041 -0.661,0.062 -1,0.062 l -2,0 c -0.339,0 -0.673,-0.021 -1,-0.062 -0.328,0.041 -0.661,0.062 -1,0.062 l -2,0 c -0.339,0 -0.673,-0.021 -1,-0.062 -0.328,0.041 -0.661,0.062 -1,0.062 l -2,0 c -0.339,0 -0.673,-0.021 -1,-0.062 -0.328,0.041 -0.661,0.062 -1,0.062 l -2,0 c -0.339,0 -0.673,-0.021 -1,-0.062 -0.328,0.041 -0.661,0.062 -1,0.062 l -2,0 c -0.339,0 -0.673,-0.021 -1,-0.062 -0.328,0.041 -0.661,0.062 -1,0.062 l -2,0 c -0.339,0 -0.673,-0.021 -1,-0.062 -0.328,0.041 -0.661,0.062 -1,0.062 l -2,0 c -0.339,0 -0.673,-0.021 -1,-0.062 -0.328,0.041 -0.661,0.062 -1,0.062 l -2,0 c -0.339,0 -0.673,-0.021 -1,-0.062 -0.328,0.041 -0.661,0.062 -1,0.062 l -2,0 c -0.339,0 -0.673,-0.021 -1,-0.062 -0.328,0.041 -0.661,0.062 -1,0.062 l -2,0 c -0.339,0 -0.673,-0.021 -1,-0.062 -0.328,0.041 -0.661,0.062 -1,0.062 l -2,0 c -0.339,0 -0.673,-0.021 -1,-0.062 -0.328,0.041 -0.661,0.062 -1,0.062 l -2,0 c -0.339,0 -0.673,-0.021 -1,-0.062 -0.328,0.041 -0.661,0.062 -1,0.062 l -2,0 c -0.339,0 -0.673,-0.021 -1,-0.062 -0.328,0.041 -0.661,0.062 -1,0.062 l -2,0 c -0.339,0 -0.673,-0.021 -1,-0.062 -0.328,0.041 -0.661,0.062 -1,0.062 l -2,0 c -0.339,0 -0.673,-0.021 -1,-0.062 -0.328,0.041 -0.661,0.062 -1,0.062 l -2,0 c -0.339,0 -0.673,-0.021 -1,-0.062 -0.328,0.041 -0.661,0.062 -1,0.062 l -2,0 c -3.225,0 -6.005,-1.909 -7.271,-4.658 L -233.059,0 c -3.267,-1.089 -5.47,-4.146 -5.47,-7.589 l 0,-48 0,-88 c 0,-4.418 3.581,-8 8,-8 l 228,0 c 4.418,0 8,3.582 8,8 l 0,88 0,48 C 5.471,-4.146 3.268,-1.089 0,0" /></g></g></g></g></g></g><g
       transform="translate(228,196)"
       id="g36"><path
         id="path38"
         style="fill:#262626;fill-opacity:1;fill-rule:nonzero;stroke:none"
         d="m 0,0 0,-4 -204,0 0,4 -12,-4 0,-48 0,-88 228,0 0,88 0,48 -12,4 z" /></g><path
       id="path40"
       style="fill:#191919;fill-opacity:1;fill-rule:nonzero;stroke:none"
       d="m 236,64 -220,0 0,80 220,0 0,-80 z" /><path
       id="path42"
       style="fill:#333333;fill-opacity:1;fill-rule:nonzero;stroke:none"
       d="m 236,68 -220,0 0,76 220,0 0,-76 z" /><g
       transform="translate(24,144)"
       id="g44"><path
         id="path46"
         style="fill:#b3b3b3;fill-opacity:1;fill-rule:nonzero;stroke:none"
         d="m 0,0 0,-60 44,0 0,-8 116,0 0,8 20,0 0,16 16,0 0,12 12,0 0,32 L 0,0 Z" /></g><path
       id="path48"
       style="fill:#333333;fill-opacity:1;fill-rule:nonzero;stroke:none"
       d="m 228,156 -204,0 0,36 204,0 0,-36 z" /><path
       id="path50"
       style="fill:#191919;fill-opacity:1;fill-rule:nonzero;stroke:none"
       d="m 224,168 -196,0 0,28 196,0 0,-28 z" /><path
       id="path52"
       style="fill:#262626;fill-opacity:1;fill-rule:nonzero;stroke:none"
       d="m 30,172 -2,0 0,28 2,0 0,-28 z" /><path
       id="path54"
       style="fill:#262626;fill-opacity:1;fill-rule:nonzero;stroke:none"
       d="m 34,172 -2,0 0,28 2,0 0,-28 z" /><path
       id="path56"
       style="fill:#262626;fill-opacity:1;fill-rule:nonzero;stroke:none"
       d="m 38,172 -2,0 0,28 2,0 0,-28 z" /><path
       id="path58"
       style="fill:#262626;fill-opacity:1;fill-rule:nonzero;stroke:none"
       d="m 42,172 -2,0 0,28 2,0 0,-28 z" /><path
       id="path60"
       style="fill:#262626;fill-opacity:1;fill-rule:nonzero;stroke:none"
       d="m 46,172 -2,0 0,28 2,0 0,-28 z" /><path
       id="path62"
       style="fill:#262626;fill-opacity:1;fill-rule:nonzero;stroke:none"
       d="m 50,172 -2,0 0,28 2,0 0,-28 z" /><path
       id="path64"
       style="fill:#262626;fill-opacity:1;fill-rule:nonzero;stroke:none"
       d="m 54,172 -2,0 0,28 2,0 0,-28 z" /><path
       id="path66"
       style="fill:#262626;fill-opacity:1;fill-rule:nonzero;stroke:none"
       d="m 58,172 -2,0 0,28 2,0 0,-28 z" /><path
       id="path68"
       style="fill:#262626;fill-opacity:1;fill-rule:nonzero;stroke:none"
       d="m 62,172 -2,0 0,28 2,0 0,-28 z" /><path
       id="path70"
       style="fill:#262626;fill-opacity:1;fill-rule:nonzero;stroke:none"
       d="m 66,172 -2,0 0,28 2,0 0,-28 z" /><path
       id="path72"
       style="fill:#262626;fill-opacity:1;fill-rule:nonzero;stroke:none"
       d="m 70,172 -2,0 0,28 2,0 0,-28 z" /><path
       id="path74"
       style="fill:#262626;fill-opacity:1;fill-rule:nonzero;stroke:none"
       d="m 74,172 -2,0 0,28 2,0 0,-28 z" /><path
       id="path76"
       style="fill:#262626;fill-opacity:1;fill-rule:nonzero;stroke:none"
       d="m 78,172 -2,0 0,28 2,0 0,-28 z" /><path
       id="path78"
       style="fill:#262626;fill-opacity:1;fill-rule:nonzero;stroke:none"
       d="m 82,172 -2,0 0,28 2,0 0,-28 z" /><path
       id="path80"
       style="fill:#262626;fill-opacity:1;fill-rule:nonzero;stroke:none"
       d="m 86,172 -2,0 0,28 2,0 0,-28 z" /><path
       id="path82"
       style="fill:#262626;fill-opacity:1;fill-rule:nonzero;stroke:none"
       d="m 90,172 -2,0 0,28 2,0 0,-28 z" /><path
       id="path84"
       style="fill:#262626;fill-opacity:1;fill-rule:nonzero;stroke:none"
       d="m 94,172 -2,0 0,28 2,0 0,-28 z" /><path
       id="path86"
       style="fill:#262626;fill-opacity:1;fill-rule:nonzero;stroke:none"
       d="m 98,172 -2,0 0,28 2,0 0,-28 z" /><path
       id="path88"
       style="fill:#262626;fill-opacity:1;fill-rule:nonzero;stroke:none"
       d="m 102,172 -2,0 0,28 2,0 0,-28 z" /><path
       id="path90"
       style="fill:#262626;fill-opacity:1;fill-rule:nonzero;stroke:none"
       d="m 106,172 -2,0 0,28 2,0 0,-28 z" /><path
       id="path92"
       style="fill:#262626;fill-opacity:1;fill-rule:nonzero;stroke:none"
       d="m 110,172 -2,0 0,28 2,0 0,-28 z" /><path
       id="path94"
       style="fill:#262626;fill-opacity:1;fill-rule:nonzero;stroke:none"
       d="m 114,172 -2,0 0,28 2,0 0,-28 z" /><path
       id="path96"
       style="fill:#262626;fill-opacity:1;fill-rule:nonzero;stroke:none"
       d="m 118,172 -2,0 0,28 2,0 0,-28 z" /><path
       id="path98"
       style="fill:#262626;fill-opacity:1;fill-rule:nonzero;stroke:none"
       d="m 122,172 -2,0 0,28 2,0 0,-28 z" /><path
       id="path100"
       style="fill:#262626;fill-opacity:1;fill-rule:nonzero;stroke:none"
       d="m 126,172 -2,0 0,28 2,0 0,-28 z" /><path
       id="path102"
       style="fill:#262626;fill-opacity:1;fill-rule:nonzero;stroke:none"
       d="m 130,172 -2,0 0,28 2,0 0,-28 z" /><path
       id="path104"
       style="fill:#262626;fill-opacity:1;fill-rule:nonzero;stroke:none"
       d="m 134,172 -2,0 0,28 2,0 0,-28 z" /><path
       id="path106"
       style="fill:#262626;fill-opacity:1;fill-rule:nonzero;stroke:none"
       d="m 138,172 -2,0 0,28 2,0 0,-28 z" /><path
       id="path108"
       style="fill:#262626;fill-opacity:1;fill-rule:nonzero;stroke:none"
       d="m 142,172 -2,0 0,28 2,0 0,-28 z" /><path
       id="path110"
       style="fill:#262626;fill-opacity:1;fill-rule:nonzero;stroke:none"
       d="m 146,172 -2,0 0,28 2,0 0,-28 z" /><path
       id="path112"
       style="fill:#262626;fill-opacity:1;fill-rule:nonzero;stroke:none"
       d="m 150,172 -2,0 0,28 2,0 0,-28 z" /><path
       id="path114"
       style="fill:#262626;fill-opacity:1;fill-rule:nonzero;stroke:none"
       d="m 154,172 -2,0 0,28 2,0 0,-28 z" /><path
       id="path116"
       style="fill:#262626;fill-opacity:1;fill-rule:nonzero;stroke:none"
       d="m 158,172 -2,0 0,28 2,0 0,-28 z" /><path
       id="path118"
       style="fill:#262626;fill-opacity:1;fill-rule:nonzero;stroke:none"
       d="m 162,172 -2,0 0,28 2,0 0,-28 z" /><path
       id="path120"
       style="fill:#262626;fill-opacity:1;fill-rule:nonzero;stroke:none"
       d="m 166,172 -2,0 0,28 2,0 0,-28 z" /><path
       id="path122"
       style="fill:#262626;fill-opacity:1;fill-rule:nonzero;stroke:none"
       d="m 170,172 -2,0 0,28 2,0 0,-28 z" /><path
       id="path124"
       style="fill:#262626;fill-opacity:1;fill-rule:nonzero;stroke:none"
       d="m 174,172 -2,0 0,28 2,0 0,-28 z" /><path
       id="path126"
       style="fill:#262626;fill-opacity:1;fill-rule:nonzero;stroke:none"
       d="m 178,172 -2,0 0,28 2,0 0,-28 z" /><path
       id="path128"
       style="fill:#262626;fill-opacity:1;fill-rule:nonzero;stroke:none"
       d="m 182,172 -2,0 0,28 2,0 0,-28 z" /><path
       id="path130"
       style="fill:#262626;fill-opacity:1;fill-rule:nonzero;stroke:none"
       d="m 186,172 -2,0 0,28 2,0 0,-28 z" /><path
       id="path132"
       style="fill:#262626;fill-opacity:1;fill-rule:nonzero;stroke:none"
       d="m 190,172 -2,0 0,28 2,0 0,-28 z" /><path
       id="path134"
       style="fill:#262626;fill-opacity:1;fill-rule:nonzero;stroke:none"
       d="m 194,172 -2,0 0,28 2,0 0,-28 z" /><path
       id="path136"
       style="fill:#262626;fill-opacity:1;fill-rule:nonzero;stroke:none"
       d="m 198,172 -2,0 0,28 2,0 0,-28 z" /><path
       id="path138"
       style="fill:#262626;fill-opacity:1;fill-rule:nonzero;stroke:none"
       d="m 202,172 -2,0 0,28 2,0 0,-28 z" /><path
       id="path140"
       style="fill:#262626;fill-opacity:1;fill-rule:nonzero;stroke:none"
       d="m 206,172 -2,0 0,28 2,0 0,-28 z" /><path
       id="path142"
       style="fill:#262626;fill-opacity:1;fill-rule:nonzero;stroke:none"
       d="m 210,172 -2,0 0,28 2,0 0,-28 z" /><path
       id="path144"
       style="fill:#262626;fill-opacity:1;fill-rule:nonzero;stroke:none"
       d="m 214,172 -2,0 0,28 2,0 0,-28 z" /><path
       id="path146"
       style="fill:#262626;fill-opacity:1;fill-rule:nonzero;stroke:none"
       d="m 218,172 -2,0 0,28 2,0 0,-28 z" /><path
       id="path148"
       style="fill:#262626;fill-opacity:1;fill-rule:nonzero;stroke:none"
       d="m 222,172 -2,0 0,28 2,0 0,-28 z" /><path
       id="path150"
       style="fill:#262626;fill-opacity:1;fill-rule:nonzero;stroke:none"
       d="m 226,172 -2,0 0,28 2,0 0,-28 z" /><g
       transform="translate(16,144)"
       id="g152"><path
         id="path154"
         style="fill:#191919;fill-opacity:1;fill-rule:nonzero;stroke:none"
         d="M 0,0 8,12 212,12 220,0 0,0 Z" /></g><path
       id="path156"
       style="fill:#cccccc;fill-opacity:1;fill-rule:nonzero;stroke:none"
       d="m 36,132 -12,0 0,12 12,0 0,-12 z" /><path
       id="path158"
       style="fill:#cccccc;fill-opacity:1;fill-rule:nonzero;stroke:none"
       d="m 52,132 -12,0 0,12 12,0 0,-12 z" /><path
       id="path160"
       style="fill:#cccccc;fill-opacity:1;fill-rule:nonzero;stroke:none"
       d="m 68,132 -12,0 0,12 12,0 0,-12 z" /><path
       id="path162"
       style="fill:#cccccc;fill-opacity:1;fill-rule:nonzero;stroke:none"
       d="m 84,132 -12,0 0,12 12,0 0,-12 z" /><path
       id="path164"
       style="fill:#cccccc;fill-opacity:1;fill-rule:nonzero;stroke:none"
       d="m 100,132 -12,0 0,12 12,0 0,-12 z" /><path
       id="path166"
       style="fill:#cccccc;fill-opacity:1;fill-rule:nonzero;stroke:none"
       d="m 116,132 -12,0 0,12 12,0 0,-12 z" /><path
       id="path168"
       style="fill:#cccccc;fill-opacity:1;fill-rule:nonzero;stroke:none"
       d="m 132,132 -12,0 0,12 12,0 0,-12 z" /><path
       id="path170"
       style="fill:#cccccc;fill-opacity:1;fill-rule:nonzero;stroke:none"
       d="m 148,132 -12,0 0,12 12,0 0,-12 z" /><path
       id="path172"
       style="fill:#cccccc;fill-opacity:1;fill-rule:nonzero;stroke:none"
       d="m 164,132 -12,0 0,12 12,0 0,-12 z" /><path
       id="path174"
       style="fill:#cccccc;fill-opacity:1;fill-rule:nonzero;stroke:none"
       d="m 180,132 -12,0 0,12 12,0 0,-12 z" /><path
       id="path176"
       style="fill:#cccccc;fill-opacity:1;fill-rule:nonzero;stroke:none"
       d="m 196,132 -12,0 0,12 12,0 0,-12 z" /><path
       id="path178"
       style="fill:#cccccc;fill-opacity:1;fill-rule:nonzero;stroke:none"
       d="m 212,132 -12,0 0,12 12,0 0,-12 z" /><path
       id="path180"
       style="fill:#cccccc;fill-opacity:1;fill-rule:nonzero;stroke:none"
       d="m 228,132 -12,0 0,12 12,0 0,-12 z" /><path
       id="path182"
       style="fill:#cccccc;fill-opacity:1;fill-rule:nonzero;stroke:none"
       d="m 36,100 -12,0 0,12 12,0 0,-12 z" /><path
       id="path184"
       style="fill:#cccccc;fill-opacity:1;fill-rule:nonzero;stroke:none"
       d="m 36,84 -12,0 0,12 12,0 0,-12 z" /><path
       id="path186"
       style="fill:#cccccc;fill-opacity:1;fill-rule:nonzero;stroke:none"
       d="m 52,100 -12,0 0,12 12,0 0,-12 z" /><path
       id="path188"
       style="fill:#cccccc;fill-opacity:1;fill-rule:nonzero;stroke:none"
       d="m 68,100 -12,0 0,12 12,0 0,-12 z" /><path
       id="path190"
       style="fill:#cccccc;fill-opacity:1;fill-rule:nonzero;stroke:none"
       d="m 84,100 -12,0 0,12 12,0 0,-12 z" /><path
       id="path192"
       style="fill:#cccccc;fill-opacity:1;fill-rule:nonzero;stroke:none"
       d="m 100,100 -12,0 0,12 12,0 0,-12 z" /><path
       id="path194"
       style="fill:#cccccc;fill-opacity:1;fill-rule:nonzero;stroke:none"
       d="m 116,100 -12,0 0,12 12,0 0,-12 z" /><path
       id="path196"
       style="fill:#cccccc;fill-opacity:1;fill-rule:nonzero;stroke:none"
       d="m 132,100 -12,0 0,12 12,0 0,-12 z" /><path
       id="path198"
       style="fill:#cccccc;fill-opacity:1;fill-rule:nonzero;stroke:none"
       d="m 148,100 -12,0 0,12 12,0 0,-12 z" /><path
       id="path200"
       style="fill:#cccccc;fill-opacity:1;fill-rule:nonzero;stroke:none"
       d="m 164,100 -12,0 0,12 12,0 0,-12 z" /><path
       id="path202"
       style="fill:#cccccc;fill-opacity:1;fill-rule:nonzero;stroke:none"
       d="m 180,100 -12,0 0,12 12,0 0,-12 z" /><path
       id="path204"
       style="fill:#cccccc;fill-opacity:1;fill-rule:nonzero;stroke:none"
       d="m 196,100 -12,0 0,12 12,0 0,-12 z" /><path
       id="path206"
       style="fill:#cccccc;fill-opacity:1;fill-rule:nonzero;stroke:none"
       d="m 220,100 -20,0 0,12 20,0 0,-12 z" /><path
       id="path208"
       style="fill:#cccccc;fill-opacity:1;fill-rule:nonzero;stroke:none"
       d="m 40,116 -16,0 0,12 16,0 0,-12 z" /><path
       id="path210"
       style="fill:#cccccc;fill-opacity:1;fill-rule:nonzero;stroke:none"
       d="m 56,116 -12,0 0,12 12,0 0,-12 z" /><path
       id="path212"
       style="fill:#cccccc;fill-opacity:1;fill-rule:nonzero;stroke:none"
       d="m 72,116 -12,0 0,12 12,0 0,-12 z" /><path
       id="path214"
       style="fill:#cccccc;fill-opacity:1;fill-rule:nonzero;stroke:none"
       d="m 88,116 -12,0 0,12 12,0 0,-12 z" /><path
       id="path216"
       style="fill:#cccccc;fill-opacity:1;fill-rule:nonzero;stroke:none"
       d="m 104,116 -12,0 0,12 12,0 0,-12 z" /><path
       id="path218"
       style="fill:#cccccc;fill-opacity:1;fill-rule:nonzero;stroke:none"
       d="m 120,116 -12,0 0,12 12,0 0,-12 z" /><path
       id="path220"
       style="fill:#cccccc;fill-opacity:1;fill-rule:nonzero;stroke:none"
       d="m 136,116 -12,0 0,12 12,0 0,-12 z" /><path
       id="path222"
       style="fill:#cccccc;fill-opacity:1;fill-rule:nonzero;stroke:none"
       d="m 152,116 -12,0 0,12 12,0 0,-12 z" /><path
       id="path224"
       style="fill:#cccccc;fill-opacity:1;fill-rule:nonzero;stroke:none"
       d="m 168,116 -12,0 0,12 12,0 0,-12 z" /><path
       id="path226"
       style="fill:#cccccc;fill-opacity:1;fill-rule:nonzero;stroke:none"
       d="m 184,116 -12,0 0,12 12,0 0,-12 z" /><path
       id="path228"
       style="fill:#cccccc;fill-opacity:1;fill-rule:nonzero;stroke:none"
       d="m 200,116 -12,0 0,12 12,0 0,-12 z" /><path
       id="path230"
       style="fill:#cccccc;fill-opacity:1;fill-rule:nonzero;stroke:none"
       d="m 56,84 -16,0 0,12 16,0 0,-12 z" /><path
       id="path232"
       style="fill:#cccccc;fill-opacity:1;fill-rule:nonzero;stroke:none"
       d="m 72,84 -12,0 0,12 12,0 0,-12 z" /><path
       id="path234"
       style="fill:#cccccc;fill-opacity:1;fill-rule:nonzero;stroke:none"
       d="m 88,84 -12,0 0,12 12,0 0,-12 z" /><path
       id="path236"
       style="fill:#cccccc;fill-opacity:1;fill-rule:nonzero;stroke:none"
       d="m 104,84 -12,0 0,12 12,0 0,-12 z" /><path
       id="path238"
       style="fill:#cccccc;fill-opacity:1;fill-rule:nonzero;stroke:none"
       d="m 120,84 -12,0 0,12 12,0 0,-12 z" /><path
       id="path240"
       style="fill:#cccccc;fill-opacity:1;fill-rule:nonzero;stroke:none"
       d="m 136,84 -12,0 0,12 12,0 0,-12 z" /><path
       id="path242"
       style="fill:#cccccc;fill-opacity:1;fill-rule:nonzero;stroke:none"
       d="m 152,84 -12,0 0,12 12,0 0,-12 z" /><path
       id="path244"
       style="fill:#cccccc;fill-opacity:1;fill-rule:nonzero;stroke:none"
       d="m 168,84 -12,0 0,12 12,0 0,-12 z" /><path
       id="path246"
       style="fill:#cccccc;fill-opacity:1;fill-rule:nonzero;stroke:none"
       d="m 184,84 -12,0 0,12 12,0 0,-12 z" /><path
       id="path248"
       style="fill:#cccccc;fill-opacity:1;fill-rule:nonzero;stroke:none"
       d="m 204,84 -16,0 0,12 16,0 0,-12 z" /><path
       id="path250"
       style="fill:#cccccc;fill-opacity:1;fill-rule:nonzero;stroke:none"
       d="m 216,116 -12,0 0,12 12,0 0,-12 z" /><path
       id="path252"
       style="fill:#cccccc;fill-opacity:1;fill-rule:nonzero;stroke:none"
       d="m 232,116 -12,0 0,12 12,0 0,-12 z" /><path
       id="path254"
       style="fill:#cccccc;fill-opacity:1;fill-rule:nonzero;stroke:none"
       d="m 184,68 -116,0 0,12 116,0 0,-12 z" /><path
       id="path256"
       style="fill:#404040;fill-opacity:1;fill-rule:nonzero;stroke:none"
       d="m 60,148 -24,0 0,4 24,0 0,-4 z" /><path
       id="path258"
       style="fill:#404040;fill-opacity:1;fill-rule:nonzero;stroke:none"
       d="m 88,148 -24,0 0,4 24,0 0,-4 z" /><path
       id="path260"
       style="fill:#404040;fill-opacity:1;fill-rule:nonzero;stroke:none"
       d="m 116,148 -24,0 0,4 24,0 0,-4 z" /><path
       id="path262"
       style="fill:#404040;fill-opacity:1;fill-rule:nonzero;stroke:none"
       d="m 144,148 -24,0 0,4 24,0 0,-4 z" /><g
       transform="translate(227.5352,93.4141)"
       id="g264"><path
         id="path266"
         style="fill:#bfbfbf;fill-opacity:1;fill-rule:nonzero;stroke:none"
         d="M 0,0 -5.535,5.535 -11.07,0 l 1.414,-1.414 3.121,3.121 0,-7.121 2,0 0,7.121 3.121,-3.121 L 0,0 Z" /></g><g
       transform="translate(216.4648,78.5859)"
       id="g268"><path
         id="path270"
         style="fill:#bfbfbf;fill-opacity:1;fill-rule:nonzero;stroke:none"
         d="M 0,0 5.535,-5.535 11.07,0 9.656,1.414 6.535,-1.707 l 0,7.121 -2,0 0,-7.121 L 1.414,1.414 0,0 Z" /></g><g
       transform="translate(229.4141,80.4648)"
       id="g272"><path
         id="path274"
         style="fill:#bfbfbf;fill-opacity:1;fill-rule:nonzero;stroke:none"
         d="M 0,0 5.535,5.535 0,11.07 -1.414,9.656 1.707,6.535 l -7.121,0 0,-2 7.121,0 L -1.414,1.414 0,0 Z" /></g><g
       transform="translate(214.5859,91.5352)"
       id="g276"><path
         id="path278"
         style="fill:#bfbfbf;fill-opacity:1;fill-rule:nonzero;stroke:none"
         d="M 0,0 -5.535,-5.535 0,-11.07 l 1.414,1.414 -3.121,3.121 7.121,0 0,2 -7.121,0 3.121,3.121 L 0,0 Z" /></g><path
       id="path280"
       style="fill:#262626;fill-opacity:1;fill-rule:nonzero;stroke:none"
       d="m 144,160 -108,0 0,4 108,0 0,-4 z" /></g></svg>