<?xml version="1.0" encoding="UTF-8" standalone="no"?>
<svg
   xmlns:dc="http://purl.org/dc/elements/1.1/"
   xmlns:cc="http://creativecommons.org/ns#"
   xmlns:rdf="http://www.w3.org/1999/02/22-rdf-syntax-ns#"
   xmlns:svg="http://www.w3.org/2000/svg"
   xmlns="http://www.w3.org/2000/svg"
   viewBox="0 0 330.66665 266.66665"
   height="266.66666"
   width="330.66666"
   xml:space="preserve"
   id="svg2"
   version="1.1"><metadata
     id="metadata8"><rdf:RDF><cc:Work
         rdf:about=""><dc:format>image/svg+xml</dc:format><dc:type
           rdf:resource="http://purl.org/dc/dcmitype/StillImage" /></cc:Work></rdf:RDF></metadata><defs
     id="defs6"><clipPath
       id="clipPath18"
       clipPathUnits="userSpaceOnUse"><path
         id="path16"
         d="M 0,256 H 256 V 0 H 0 Z" /></clipPath><clipPath
       id="clipPath26"
       clipPathUnits="userSpaceOnUse"><path
         id="path24"
         d="M 4,228 H 252 V 28 H 4 Z" /></clipPath></defs><g
     transform="matrix(1.3333333,0,0,-1.3333333,-5.3333332,303.99999)"
     id="g10"><g
       id="g12"><g
         clip-path="url(#clipPath18)"
         id="g14"><g
           id="g20"><g
             id="g22" /><g
             id="g34"><g
               style="opacity:0.5"
               id="g32"
               clip-path="url(#clipPath26)"><g
                 id="g30"
                 transform="translate(232,228)"><path
                   id="path28"
                   style="fill:#ffffff;fill-opacity:1;fill-rule:nonzero;stroke:none"
                   d="m 0,0 h -208 c -11.028,0 -20,-8.972 -20,-20 v -140 -4 -12 c 0,-11.028 8.972,-20 20,-20 h 8 v -4 h 8 6 20 4 20 4 20 4 20 4 20 4 20 6 8 v 4 H 0 c 11.028,0 20,8.972 20,20 v 12 4 140 C 20,-8.972 11.028,0 0,0" /></g></g></g></g><g
           transform="translate(232,40)"
           id="g36"><path
             id="path38"
             style="fill:#cccccc;fill-opacity:1;fill-rule:nonzero;stroke:none"
             d="m 0,0 h -208 c -6.627,0 -12,5.373 -12,12 v 156 c 0,6.627 5.373,12 12,12 H 0 c 6.627,0 12,-5.373 12,-12 V 12 C 12,5.373 6.627,0 0,0" /></g><g
           transform="translate(232,64)"
           id="g40"><path
             id="path42"
             style="fill:#b3b3b3;fill-opacity:1;fill-rule:nonzero;stroke:none"
             d="m 0,0 h -208 c 0,0 -8,0 -12,4 V 0 c 0,0 4,-4 12,-4 H 0 c 8,0 12,4 12,4 V 4 C 8,0 0,0 0,0" /></g><path
           id="path44"
           style="fill:#8c8c8c;fill-opacity:1;fill-rule:nonzero;stroke:none"
           d="M 192,64 H 40 v 144 h 152 z" /><path
           id="path46"
           style="fill:#8c8c8c;fill-opacity:1;fill-rule:nonzero;stroke:none"
           d="M 192,36 H 40 v 24 h 152 z" /><g
           transform="translate(66,36)"
           id="g48"><path
             id="path50"
             style="fill:#333333;fill-opacity:1;fill-rule:nonzero;stroke:none"
             d="m 0,0 h -20 c -1.104,0 -2,0.896 -2,2 v 24 c 0,1.104 0.896,2 2,2 H 0 c 1.104,0 2,-0.896 2,-2 V 2 C 2,0.896 1.104,0 0,0" /></g><g
           transform="translate(66,60)"
           id="g52"><path
             id="path54"
             style="fill:#262626;fill-opacity:1;fill-rule:nonzero;stroke:none"
             d="m 0,0 h -20 c -1.104,0 -2,0.896 -2,2 V 4 H 2 V 2 C 2,0.896 1.104,0 0,0" /></g><g
           transform="translate(90,36)"
           id="g56"><path
             id="path58"
             style="fill:#333333;fill-opacity:1;fill-rule:nonzero;stroke:none"
             d="m 0,0 h -20 c -1.104,0 -2,0.896 -2,2 v 24 c 0,1.104 0.896,2 2,2 H 0 c 1.104,0 2,-0.896 2,-2 V 2 C 2,0.896 1.104,0 0,0" /></g><g
           transform="translate(90,60)"
           id="g60"><path
             id="path62"
             style="fill:#262626;fill-opacity:1;fill-rule:nonzero;stroke:none"
             d="m 0,0 h -20 c -1.104,0 -2,0.896 -2,2 V 4 H 2 V 2 C 2,0.896 1.104,0 0,0" /></g><g
           transform="translate(114,36)"
           id="g64"><path
             id="path66"
             style="fill:#333333;fill-opacity:1;fill-rule:nonzero;stroke:none"
             d="m 0,0 h -20 c -1.104,0 -2,0.896 -2,2 v 24 c 0,1.104 0.896,2 2,2 H 0 c 1.104,0 2,-0.896 2,-2 V 2 C 2,0.896 1.104,0 0,0" /></g><g
           transform="translate(114,60)"
           id="g68"><path
             id="path70"
             style="fill:#262626;fill-opacity:1;fill-rule:nonzero;stroke:none"
             d="m 0,0 h -20 c -1.104,0 -2,0.896 -2,2 V 4 H 2 V 2 C 2,0.896 1.104,0 0,0" /></g><g
           transform="translate(138,36)"
           id="g72"><path
             id="path74"
             style="fill:#333333;fill-opacity:1;fill-rule:nonzero;stroke:none"
             d="m 0,0 h -20 c -1.104,0 -2,0.896 -2,2 v 24 c 0,1.104 0.896,2 2,2 H 0 c 1.104,0 2,-0.896 2,-2 V 2 C 2,0.896 1.104,0 0,0" /></g><g
           transform="translate(138,60)"
           id="g76"><path
             id="path78"
             style="fill:#262626;fill-opacity:1;fill-rule:nonzero;stroke:none"
             d="m 0,0 h -20 c -1.104,0 -2,0.896 -2,2 V 4 H 2 V 2 C 2,0.896 1.104,0 0,0" /></g><g
           transform="translate(162,36)"
           id="g80"><path
             id="path82"
             style="fill:#333333;fill-opacity:1;fill-rule:nonzero;stroke:none"
             d="m 0,0 h -20 c -1.104,0 -2,0.896 -2,2 v 24 c 0,1.104 0.896,2 2,2 H 0 c 1.104,0 2,-0.896 2,-2 V 2 C 2,0.896 1.104,0 0,0" /></g><g
           transform="translate(162,60)"
           id="g84"><path
             id="path86"
             style="fill:#262626;fill-opacity:1;fill-rule:nonzero;stroke:none"
             d="m 0,0 h -20 c -1.104,0 -2,0.896 -2,2 V 4 H 2 V 2 C 2,0.896 1.104,0 0,0" /></g><g
           transform="translate(186,36)"
           id="g88"><path
             id="path90"
             style="fill:#333333;fill-opacity:1;fill-rule:nonzero;stroke:none"
             d="m 0,0 h -20 c -1.104,0 -2,0.896 -2,2 v 24 c 0,1.104 0.896,2 2,2 H 0 c 1.104,0 2,-0.896 2,-2 V 2 C 2,0.896 1.104,0 0,0" /></g><g
           transform="translate(66,36)"
           id="g92"><path
             id="path94"
             style="fill:#595959;fill-opacity:1;fill-rule:nonzero;stroke:none"
             d="m 0,0 h -20 c -1.104,0 -2,0.896 -2,2 v 4 c 0,1.104 0.896,2 2,2 H 0 C 1.104,8 2,7.104 2,6 V 2 C 2,0.896 1.104,0 0,0" /></g><g
           transform="translate(90,36)"
           id="g96"><path
             id="path98"
             style="fill:#595959;fill-opacity:1;fill-rule:nonzero;stroke:none"
             d="m 0,0 h -20 c -1.104,0 -2,0.896 -2,2 v 4 c 0,1.104 0.896,2 2,2 H 0 C 1.104,8 2,7.104 2,6 V 2 C 2,0.896 1.104,0 0,0" /></g><g
           transform="translate(114,36)"
           id="g100"><path
             id="path102"
             style="fill:#595959;fill-opacity:1;fill-rule:nonzero;stroke:none"
             d="m 0,0 h -20 c -1.104,0 -2,0.896 -2,2 v 4 c 0,1.104 0.896,2 2,2 H 0 C 1.104,8 2,7.104 2,6 V 2 C 2,0.896 1.104,0 0,0" /></g><g
           transform="translate(138,36)"
           id="g104"><path
             id="path106"
             style="fill:#595959;fill-opacity:1;fill-rule:nonzero;stroke:none"
             d="m 0,0 h -20 c -1.104,0 -2,0.896 -2,2 v 4 c 0,1.104 0.896,2 2,2 H 0 C 1.104,8 2,7.104 2,6 V 2 C 2,0.896 1.104,0 0,0" /></g><g
           transform="translate(162,36)"
           id="g108"><path
             id="path110"
             style="fill:#595959;fill-opacity:1;fill-rule:nonzero;stroke:none"
             d="m 0,0 h -20 c -1.104,0 -2,0.896 -2,2 v 4 c 0,1.104 0.896,2 2,2 H 0 C 1.104,8 2,7.104 2,6 V 2 C 2,0.896 1.104,0 0,0" /></g><g
           transform="translate(186,36)"
           id="g112"><path
             id="path114"
             style="fill:#595959;fill-opacity:1;fill-rule:nonzero;stroke:none"
             d="m 0,0 h -20 c -1.104,0 -2,0.896 -2,2 v 4 c 0,1.104 0.896,2 2,2 H 0 C 1.104,8 2,7.104 2,6 V 2 C 2,0.896 1.104,0 0,0" /></g><g
           transform="translate(186,60)"
           id="g116"><path
             id="path118"
             style="fill:#262626;fill-opacity:1;fill-rule:nonzero;stroke:none"
             d="m 0,0 h -20 c -1.104,0 -2,0.896 -2,2 V 4 H 2 V 2 C 2,0.896 1.104,0 0,0" /></g><path
           id="path120"
           style="fill:#bfbfbf;fill-opacity:1;fill-rule:nonzero;stroke:none"
           d="m 228,88 h -36 v 12 h 36 z" /><path
           id="path122"
           style="fill:#bfbfbf;fill-opacity:1;fill-rule:nonzero;stroke:none"
           d="m 228,108 h -36 v 20 h 36 z" /><path
           id="path124"
           style="fill:#282224;fill-opacity:1;fill-rule:nonzero;stroke:none"
           d="m 212,116 h -16 v 8 h 16 z" /><path
           id="path126"
           style="fill:#282224;fill-opacity:1;fill-rule:nonzero;stroke:none"
           d="m 224,116 h -8 v 8 h 8 z" /><g
           transform="translate(200,94)"
           id="g128"><path
             id="path130"
             style="fill:#b80000;fill-opacity:1;fill-rule:nonzero;stroke:none"
             d="m 0,0 c 0,-1.104 -0.896,-2 -2,-2 -1.104,0 -2,0.896 -2,2 0,1.104 0.896,2 2,2 1.104,0 2,-0.896 2,-2" /></g><g
           transform="translate(164,180)"
           id="g132"><path
             id="path134"
             style="fill:#595959;fill-opacity:1;fill-rule:nonzero;stroke:none"
             d="m 0,0 -8,8 h -80 l -8,-8 h -16 v -48 h 16 l 8,-8 h 80 l 8,8 H 16 V 0 Z" /></g><path
           id="path136"
           style="fill:#4c4c4c;fill-opacity:1;fill-rule:nonzero;stroke:none"
           d="m 52,132 h 8 v 48 h -8 z" /><path
           id="path138"
           style="fill:#4c4c4c;fill-opacity:1;fill-rule:nonzero;stroke:none"
           d="m 172,132 h 8 v 48 h -8 z" /><path
           id="path140"
           style="fill:#d35400;fill-opacity:1;fill-rule:nonzero;stroke:none"
           d="m 132,144 h -32 v 24 h 32 z" /><g
           transform="translate(96,156)"
           id="g142"><path
             id="path144"
             style="fill:#333333;fill-opacity:1;fill-rule:nonzero;stroke:none"
             d="m 0,0 c 0,-4.418 -3.582,-8 -8,-8 -4.418,0 -8,3.582 -8,8 0,4.418 3.582,8 8,8 4.418,0 8,-3.582 8,-8" /></g><g
           transform="translate(92,156)"
           id="g146"><path
             id="path148"
             style="fill:#262626;fill-opacity:1;fill-rule:nonzero;stroke:none"
             d="m 0,0 c 0,-2.209 -1.791,-4 -4,-4 -2.209,0 -4,1.791 -4,4 0,2.209 1.791,4 4,4 2.209,0 4,-1.791 4,-4" /></g><g
           transform="translate(152,156)"
           id="g150"><path
             id="path152"
             style="fill:#333333;fill-opacity:1;fill-rule:nonzero;stroke:none"
             d="m 0,0 c 0,-4.418 -3.582,-8 -8,-8 -4.418,0 -8,3.582 -8,8 0,4.418 3.582,8 8,8 4.418,0 8,-3.582 8,-8" /></g><g
           transform="translate(148,156)"
           id="g154"><path
             id="path156"
             style="fill:#262626;fill-opacity:1;fill-rule:nonzero;stroke:none"
             d="m 0,0 c 0,-2.209 -1.791,-4 -4,-4 -2.209,0 -4,1.791 -4,4 0,2.209 1.791,4 4,4 2.209,0 4,-1.791 4,-4" /></g><g
           transform="translate(184,204)"
           id="g158"><path
             id="path160"
             style="fill:#282224;fill-opacity:1;fill-rule:nonzero;stroke:none"
             d="m 0,0 h -136 c -2.209,0 -4,-1.791 -4,-4 v -84 c 0,-2.209 1.791,-4 4,-4 H 0 c 2.209,0 4,1.791 4,4 V -4 C 4,-1.791 2.209,0 0,0 M 0,-88 H -136 V -4 H 0 Z" /></g><g
           transform="translate(66,36)"
           id="g162"><path
             id="path164"
             style="fill:#191919;fill-opacity:1;fill-rule:nonzero;stroke:none"
             d="M 0,0 V 0 28 H 2 V 2 C 2,0.896 1.104,0 0,0" /></g><g
           transform="translate(90,36)"
           id="g166"><path
             id="path168"
             style="fill:#191919;fill-opacity:1;fill-rule:nonzero;stroke:none"
             d="M 0,0 V 0 28 H 2 V 2 C 2,0.896 1.104,0 0,0" /></g><g
           transform="translate(114,36)"
           id="g170"><path
             id="path172"
             style="fill:#191919;fill-opacity:1;fill-rule:nonzero;stroke:none"
             d="M 0,0 V 0 28 H 2 V 2 C 2,0.896 1.104,0 0,0" /></g><g
           transform="translate(138,36)"
           id="g174"><path
             id="path176"
             style="fill:#191919;fill-opacity:1;fill-rule:nonzero;stroke:none"
             d="M 0,0 V 0 28 H 2 V 2 C 2,0.896 1.104,0 0,0" /></g><g
           transform="translate(162,36)"
           id="g178"><path
             id="path180"
             style="fill:#191919;fill-opacity:1;fill-rule:nonzero;stroke:none"
             d="M 0,0 V 0 28 H 2 V 2 C 2,0.896 1.104,0 0,0" /></g></g></g></g></svg>