<?xml version="1.0" encoding="UTF-8" standalone="no"?>
<svg
   xmlns:dc="http://purl.org/dc/elements/1.1/"
   xmlns:cc="http://creativecommons.org/ns#"
   xmlns:rdf="http://www.w3.org/1999/02/22-rdf-syntax-ns#"
   xmlns:svg="http://www.w3.org/2000/svg"
   xmlns="http://www.w3.org/2000/svg"
   viewBox="0 0 330.66665 170.66665"
   height="170.66666"
   width="330.66666"
   xml:space="preserve"
   id="svg2"
   version="1.1"><metadata
     id="metadata8"><rdf:RDF><cc:Work
         rdf:about=""><dc:format>image/svg+xml</dc:format><dc:type
           rdf:resource="http://purl.org/dc/dcmitype/StillImage" /></cc:Work></rdf:RDF></metadata><defs
     id="defs6"><clipPath
       id="clipPath18"
       clipPathUnits="userSpaceOnUse"><path
         id="path16"
         d="M 0,256 H 256 V 0 H 0 Z" /></clipPath><clipPath
       id="clipPath26"
       clipPathUnits="userSpaceOnUse"><path
         id="path24"
         d="M 4,192 H 252 V 64 H 4 Z" /></clipPath></defs><g
     transform="matrix(1.3333333,0,0,-1.3333333,-5.3333332,255.99999)"
     id="g10"><g
       id="g12"><g
         clip-path="url(#clipPath18)"
         id="g14"><g
           id="g20"><g
             id="g22" /><g
             id="g34"><g
               style="opacity:0.5"
               id="g32"
               clip-path="url(#clipPath26)"><g
                 id="g30"
                 transform="translate(240,192)"><path
                   id="path28"
                   style="fill:#ffffff;fill-opacity:1;fill-rule:nonzero;stroke:none"
                   d="m 0,0 h -224 c -6.617,0 -12,-5.383 -12,-12 v -100 c 0,-8.822 7.178,-16 16,-16 H -4 c 8.822,0 16,7.178 16,16 V -12 C 12,-5.383 6.617,0 0,0" /></g></g></g></g><g
           transform="translate(236,72)"
           id="g36"><path
             id="path38"
             style="fill:#cccccc;fill-opacity:1;fill-rule:nonzero;stroke:none"
             d="m 0,0 h -216 c -4.418,0 -8,3.582 -8,8 v 100 c 0,2.209 1.791,4 4,4 H 4 c 2.209,0 4,-1.791 4,-4 V 8 C 8,3.582 4.418,0 0,0" /></g><g
           transform="translate(24,148)"
           id="g40"><path
             id="path42"
             style="fill:#404040;fill-opacity:1;fill-rule:nonzero;stroke:none"
             d="m 0,0 v -20 h -4 v -28 h 28 v -8 h 100 v 8 h 44 v 24 h 4 V 0 Z" /></g><path
           id="path44"
           style="fill:#a3834a;fill-opacity:1;fill-rule:nonzero;stroke:none"
           d="m 224,100 h -16 v 48 h 16 z" /><path
           id="path46"
           style="fill:#bfbfbf;fill-opacity:1;fill-rule:nonzero;stroke:none"
           d="M 244,178 H 12 v 2 h 232 z" /><path
           id="path48"
           style="fill:#bfbfbf;fill-opacity:1;fill-rule:nonzero;stroke:none"
           d="M 244,174 H 12 v 2 h 232 z" /><path
           id="path50"
           style="fill:#bfbfbf;fill-opacity:1;fill-rule:nonzero;stroke:none"
           d="M 244,170 H 12 v 2 h 232 z" /><path
           id="path52"
           style="fill:#bfbfbf;fill-opacity:1;fill-rule:nonzero;stroke:none"
           d="M 244,166 H 12 v 2 h 232 z" /><g
           transform="translate(218,171)"
           id="g54"><path
             id="path56"
             style="fill:#808080;fill-opacity:1;fill-rule:nonzero;stroke:none"
             d="m 0,0 h -12 c -1.104,0 -2,0.896 -2,2 0,1.104 0.896,2 2,2 H 0 C 1.104,4 2,3.104 2,2 2,0.896 1.104,0 0,0" /></g><g
           transform="translate(219,173)"
           id="g58"><path
             id="path60"
             style="fill:#ff0000;fill-opacity:1;fill-rule:nonzero;stroke:none"
             d="m 0,0 c 0,-0.552 -0.447,-1 -1,-1 -0.553,0 -1,0.448 -1,1 0,0.552 0.447,1 1,1 0.553,0 1,-0.448 1,-1" /></g><g
           transform="translate(238,152)"
           id="g62"><path
             id="path64"
             style="fill:#bfbfbf;fill-opacity:1;fill-rule:nonzero;stroke:none"
             d="m 0,0 h -220 c -1.104,0 -2,-0.896 -2,-2 v -60 c 0,-1.104 0.896,-2 2,-2 H 0 c 1.104,0 2,0.896 2,2 V -2 C 2,-0.896 1.104,0 0,0 M 0,-62 H -220 V -2 H 0 Z" /></g><g
           transform="translate(26,140)"
           id="g66"><path
             id="path68"
             style="fill:#4c4c4c;fill-opacity:1;fill-rule:nonzero;stroke:none"
             d="M 0,0 V 0 C -1.104,0 -2,0.896 -2,2 V 6 C -2,7.104 -1.104,8 0,8 1.104,8 2,7.104 2,6 V 2 C 2,0.896 1.104,0 0,0" /></g><g
           transform="translate(50,140)"
           id="g70"><path
             id="path72"
             style="fill:#4c4c4c;fill-opacity:1;fill-rule:nonzero;stroke:none"
             d="m 0,0 h -4 c -1.104,0 -2,0.896 -2,2 v 4 c 0,1.104 0.896,2 2,2 H 0 C 1.104,8 2,7.104 2,6 V 2 C 2,0.896 1.104,0 0,0" /></g><g
           transform="translate(38,140)"
           id="g74"><path
             id="path76"
             style="fill:#4c4c4c;fill-opacity:1;fill-rule:nonzero;stroke:none"
             d="m 0,0 h -4 c -1.104,0 -2,0.896 -2,2 v 4 c 0,1.104 0.896,2 2,2 H 0 C 1.104,8 2,7.104 2,6 V 2 C 2,0.896 1.104,0 0,0" /></g><g
           transform="translate(62,140)"
           id="g78"><path
             id="path80"
             style="fill:#4c4c4c;fill-opacity:1;fill-rule:nonzero;stroke:none"
             d="m 0,0 h -4 c -1.104,0 -2,0.896 -2,2 v 4 c 0,1.104 0.896,2 2,2 H 0 C 1.104,8 2,7.104 2,6 V 2 C 2,0.896 1.104,0 0,0" /></g><g
           transform="translate(74,140)"
           id="g82"><path
             id="path84"
             style="fill:#4c4c4c;fill-opacity:1;fill-rule:nonzero;stroke:none"
             d="m 0,0 h -4 c -1.104,0 -2,0.896 -2,2 v 4 c 0,1.104 0.896,2 2,2 H 0 C 1.104,8 2,7.104 2,6 V 2 C 2,0.896 1.104,0 0,0" /></g><g
           transform="translate(86,140)"
           id="g86"><path
             id="path88"
             style="fill:#4c4c4c;fill-opacity:1;fill-rule:nonzero;stroke:none"
             d="m 0,0 h -4 c -1.104,0 -2,0.896 -2,2 v 4 c 0,1.104 0.896,2 2,2 H 0 C 1.104,8 2,7.104 2,6 V 2 C 2,0.896 1.104,0 0,0" /></g><g
           transform="translate(98,140)"
           id="g90"><path
             id="path92"
             style="fill:#4c4c4c;fill-opacity:1;fill-rule:nonzero;stroke:none"
             d="m 0,0 h -4 c -1.104,0 -2,0.896 -2,2 v 4 c 0,1.104 0.896,2 2,2 H 0 C 1.104,8 2,7.104 2,6 V 2 C 2,0.896 1.104,0 0,0" /></g><g
           transform="translate(110,140)"
           id="g94"><path
             id="path96"
             style="fill:#4c4c4c;fill-opacity:1;fill-rule:nonzero;stroke:none"
             d="m 0,0 h -4 c -1.104,0 -2,0.896 -2,2 v 4 c 0,1.104 0.896,2 2,2 H 0 C 1.104,8 2,7.104 2,6 V 2 C 2,0.896 1.104,0 0,0" /></g><g
           transform="translate(122,140)"
           id="g98"><path
             id="path100"
             style="fill:#4c4c4c;fill-opacity:1;fill-rule:nonzero;stroke:none"
             d="m 0,0 h -4 c -1.104,0 -2,0.896 -2,2 v 4 c 0,1.104 0.896,2 2,2 H 0 C 1.104,8 2,7.104 2,6 V 2 C 2,0.896 1.104,0 0,0" /></g><g
           transform="translate(134,140)"
           id="g102"><path
             id="path104"
             style="fill:#4c4c4c;fill-opacity:1;fill-rule:nonzero;stroke:none"
             d="m 0,0 h -4 c -1.104,0 -2,0.896 -2,2 v 4 c 0,1.104 0.896,2 2,2 H 0 C 1.104,8 2,7.104 2,6 V 2 C 2,0.896 1.104,0 0,0" /></g><g
           transform="translate(146,140)"
           id="g106"><path
             id="path108"
             style="fill:#4c4c4c;fill-opacity:1;fill-rule:nonzero;stroke:none"
             d="m 0,0 h -4 c -1.104,0 -2,0.896 -2,2 v 4 c 0,1.104 0.896,2 2,2 H 0 C 1.104,8 2,7.104 2,6 V 2 C 2,0.896 1.104,0 0,0" /></g><g
           transform="translate(158,140)"
           id="g110"><path
             id="path112"
             style="fill:#4c4c4c;fill-opacity:1;fill-rule:nonzero;stroke:none"
             d="m 0,0 h -4 c -1.104,0 -2,0.896 -2,2 v 4 c 0,1.104 0.896,2 2,2 H 0 C 1.104,8 2,7.104 2,6 V 2 C 2,0.896 1.104,0 0,0" /></g><g
           transform="translate(170,140)"
           id="g114"><path
             id="path116"
             style="fill:#4c4c4c;fill-opacity:1;fill-rule:nonzero;stroke:none"
             d="m 0,0 h -4 c -1.104,0 -2,0.896 -2,2 v 4 c 0,1.104 0.896,2 2,2 H 0 C 1.104,8 2,7.104 2,6 V 2 C 2,0.896 1.104,0 0,0" /></g><g
           transform="translate(182,140)"
           id="g118"><path
             id="path120"
             style="fill:#4c4c4c;fill-opacity:1;fill-rule:nonzero;stroke:none"
             d="m 0,0 h -4 c -1.104,0 -2,0.896 -2,2 v 4 c 0,1.104 0.896,2 2,2 H 0 C 1.104,8 2,7.104 2,6 V 2 C 2,0.896 1.104,0 0,0" /></g><g
           transform="translate(194,140)"
           id="g122"><path
             id="path124"
             style="fill:#4c4c4c;fill-opacity:1;fill-rule:nonzero;stroke:none"
             d="m 0,0 h -4 c -1.104,0 -2,0.896 -2,2 v 4 c 0,1.104 0.896,2 2,2 H 0 C 1.104,8 2,7.104 2,6 V 2 C 2,0.896 1.104,0 0,0" /></g><g
           transform="translate(26,116)"
           id="g126"><path
             id="path128"
             style="fill:#4c4c4c;fill-opacity:1;fill-rule:nonzero;stroke:none"
             d="m 0,0 h -4 c -1.104,0 -2,0.896 -2,2 v 4 c 0,1.104 0.896,2 2,2 H 0 C 1.104,8 2,7.104 2,6 V 2 C 2,0.896 1.104,0 0,0" /></g><g
           transform="translate(38,116)"
           id="g130"><path
             id="path132"
             style="fill:#4c4c4c;fill-opacity:1;fill-rule:nonzero;stroke:none"
             d="m 0,0 h -4 c -1.104,0 -2,0.896 -2,2 v 4 c 0,1.104 0.896,2 2,2 H 0 C 1.104,8 2,7.104 2,6 V 2 C 2,0.896 1.104,0 0,0" /></g><g
           transform="translate(50,116)"
           id="g134"><path
             id="path136"
             style="fill:#4c4c4c;fill-opacity:1;fill-rule:nonzero;stroke:none"
             d="m 0,0 h -4 c -1.104,0 -2,0.896 -2,2 v 4 c 0,1.104 0.896,2 2,2 H 0 C 1.104,8 2,7.104 2,6 V 2 C 2,0.896 1.104,0 0,0" /></g><g
           transform="translate(62,116)"
           id="g138"><path
             id="path140"
             style="fill:#4c4c4c;fill-opacity:1;fill-rule:nonzero;stroke:none"
             d="m 0,0 h -4 c -1.104,0 -2,0.896 -2,2 v 4 c 0,1.104 0.896,2 2,2 H 0 C 1.104,8 2,7.104 2,6 V 2 C 2,0.896 1.104,0 0,0" /></g><g
           transform="translate(74,116)"
           id="g142"><path
             id="path144"
             style="fill:#4c4c4c;fill-opacity:1;fill-rule:nonzero;stroke:none"
             d="m 0,0 h -4 c -1.104,0 -2,0.896 -2,2 v 4 c 0,1.104 0.896,2 2,2 H 0 C 1.104,8 2,7.104 2,6 V 2 C 2,0.896 1.104,0 0,0" /></g><g
           transform="translate(86,116)"
           id="g146"><path
             id="path148"
             style="fill:#4c4c4c;fill-opacity:1;fill-rule:nonzero;stroke:none"
             d="m 0,0 h -4 c -1.104,0 -2,0.896 -2,2 v 4 c 0,1.104 0.896,2 2,2 H 0 C 1.104,8 2,7.104 2,6 V 2 C 2,0.896 1.104,0 0,0" /></g><g
           transform="translate(98,116)"
           id="g150"><path
             id="path152"
             style="fill:#4c4c4c;fill-opacity:1;fill-rule:nonzero;stroke:none"
             d="m 0,0 h -4 c -1.104,0 -2,0.896 -2,2 v 4 c 0,1.104 0.896,2 2,2 H 0 C 1.104,8 2,7.104 2,6 V 2 C 2,0.896 1.104,0 0,0" /></g><g
           transform="translate(110,116)"
           id="g154"><path
             id="path156"
             style="fill:#4c4c4c;fill-opacity:1;fill-rule:nonzero;stroke:none"
             d="m 0,0 h -4 c -1.104,0 -2,0.896 -2,2 v 4 c 0,1.104 0.896,2 2,2 H 0 C 1.104,8 2,7.104 2,6 V 2 C 2,0.896 1.104,0 0,0" /></g><g
           transform="translate(122,116)"
           id="g158"><path
             id="path160"
             style="fill:#4c4c4c;fill-opacity:1;fill-rule:nonzero;stroke:none"
             d="m 0,0 h -4 c -1.104,0 -2,0.896 -2,2 v 4 c 0,1.104 0.896,2 2,2 H 0 C 1.104,8 2,7.104 2,6 V 2 C 2,0.896 1.104,0 0,0" /></g><g
           transform="translate(134,116)"
           id="g162"><path
             id="path164"
             style="fill:#4c4c4c;fill-opacity:1;fill-rule:nonzero;stroke:none"
             d="m 0,0 h -4 c -1.104,0 -2,0.896 -2,2 v 4 c 0,1.104 0.896,2 2,2 H 0 C 1.104,8 2,7.104 2,6 V 2 C 2,0.896 1.104,0 0,0" /></g><g
           transform="translate(146,116)"
           id="g166"><path
             id="path168"
             style="fill:#4c4c4c;fill-opacity:1;fill-rule:nonzero;stroke:none"
             d="m 0,0 h -4 c -1.104,0 -2,0.896 -2,2 v 4 c 0,1.104 0.896,2 2,2 H 0 C 1.104,8 2,7.104 2,6 V 2 C 2,0.896 1.104,0 0,0" /></g><g
           transform="translate(158,116)"
           id="g170"><path
             id="path172"
             style="fill:#4c4c4c;fill-opacity:1;fill-rule:nonzero;stroke:none"
             d="m 0,0 h -4 c -1.104,0 -2,0.896 -2,2 v 4 c 0,1.104 0.896,2 2,2 H 0 C 1.104,8 2,7.104 2,6 V 2 C 2,0.896 1.104,0 0,0" /></g><g
           transform="translate(170,116)"
           id="g174"><path
             id="path176"
             style="fill:#4c4c4c;fill-opacity:1;fill-rule:nonzero;stroke:none"
             d="m 0,0 h -4 c -1.104,0 -2,0.896 -2,2 v 4 c 0,1.104 0.896,2 2,2 H 0 C 1.104,8 2,7.104 2,6 V 2 C 2,0.896 1.104,0 0,0" /></g><g
           transform="translate(190,116)"
           id="g178"><path
             id="path180"
             style="fill:#4c4c4c;fill-opacity:1;fill-rule:nonzero;stroke:none"
             d="m 0,0 h -12 c -1.104,0 -2,0.896 -2,2 v 4 c 0,1.104 0.896,2 2,2 H 0 C 1.104,8 2,7.104 2,6 V 2 C 2,0.896 1.104,0 0,0" /></g><g
           transform="translate(34,128)"
           id="g182"><path
             id="path184"
             style="fill:#4c4c4c;fill-opacity:1;fill-rule:nonzero;stroke:none"
             d="m 0,0 h -8 c -1.104,0 -2,0.896 -2,2 v 4 c 0,1.104 0.896,2 2,2 H 0 C 1.104,8 2,7.104 2,6 V 2 C 2,0.896 1.104,0 0,0" /></g><g
           transform="translate(46,128)"
           id="g186"><path
             id="path188"
             style="fill:#4c4c4c;fill-opacity:1;fill-rule:nonzero;stroke:none"
             d="m 0,0 h -4 c -1.104,0 -2,0.896 -2,2 v 4 c 0,1.104 0.896,2 2,2 H 0 C 1.104,8 2,7.104 2,6 V 2 C 2,0.896 1.104,0 0,0" /></g><g
           transform="translate(58,128)"
           id="g190"><path
             id="path192"
             style="fill:#4c4c4c;fill-opacity:1;fill-rule:nonzero;stroke:none"
             d="m 0,0 h -4 c -1.104,0 -2,0.896 -2,2 v 4 c 0,1.104 0.896,2 2,2 H 0 C 1.104,8 2,7.104 2,6 V 2 C 2,0.896 1.104,0 0,0" /></g><g
           transform="translate(70,128)"
           id="g194"><path
             id="path196"
             style="fill:#4c4c4c;fill-opacity:1;fill-rule:nonzero;stroke:none"
             d="m 0,0 h -4 c -1.104,0 -2,0.896 -2,2 v 4 c 0,1.104 0.896,2 2,2 H 0 C 1.104,8 2,7.104 2,6 V 2 C 2,0.896 1.104,0 0,0" /></g><g
           transform="translate(82,128)"
           id="g198"><path
             id="path200"
             style="fill:#4c4c4c;fill-opacity:1;fill-rule:nonzero;stroke:none"
             d="m 0,0 h -4 c -1.104,0 -2,0.896 -2,2 v 4 c 0,1.104 0.896,2 2,2 H 0 C 1.104,8 2,7.104 2,6 V 2 C 2,0.896 1.104,0 0,0" /></g><g
           transform="translate(94,128)"
           id="g202"><path
             id="path204"
             style="fill:#4c4c4c;fill-opacity:1;fill-rule:nonzero;stroke:none"
             d="m 0,0 h -4 c -1.104,0 -2,0.896 -2,2 v 4 c 0,1.104 0.896,2 2,2 H 0 C 1.104,8 2,7.104 2,6 V 2 C 2,0.896 1.104,0 0,0" /></g><g
           transform="translate(106,128)"
           id="g206"><path
             id="path208"
             style="fill:#4c4c4c;fill-opacity:1;fill-rule:nonzero;stroke:none"
             d="m 0,0 h -4 c -1.104,0 -2,0.896 -2,2 v 4 c 0,1.104 0.896,2 2,2 H 0 C 1.104,8 2,7.104 2,6 V 2 C 2,0.896 1.104,0 0,0" /></g><g
           transform="translate(118,128)"
           id="g210"><path
             id="path212"
             style="fill:#4c4c4c;fill-opacity:1;fill-rule:nonzero;stroke:none"
             d="m 0,0 h -4 c -1.104,0 -2,0.896 -2,2 v 4 c 0,1.104 0.896,2 2,2 H 0 C 1.104,8 2,7.104 2,6 V 2 C 2,0.896 1.104,0 0,0" /></g><g
           transform="translate(130,128)"
           id="g214"><path
             id="path216"
             style="fill:#4c4c4c;fill-opacity:1;fill-rule:nonzero;stroke:none"
             d="m 0,0 h -4 c -1.104,0 -2,0.896 -2,2 v 4 c 0,1.104 0.896,2 2,2 H 0 C 1.104,8 2,7.104 2,6 V 2 C 2,0.896 1.104,0 0,0" /></g><g
           transform="translate(142,128)"
           id="g218"><path
             id="path220"
             style="fill:#4c4c4c;fill-opacity:1;fill-rule:nonzero;stroke:none"
             d="m 0,0 h -4 c -1.104,0 -2,0.896 -2,2 v 4 c 0,1.104 0.896,2 2,2 H 0 C 1.104,8 2,7.104 2,6 V 2 C 2,0.896 1.104,0 0,0" /></g><g
           transform="translate(154,128)"
           id="g222"><path
             id="path224"
             style="fill:#4c4c4c;fill-opacity:1;fill-rule:nonzero;stroke:none"
             d="m 0,0 h -4 c -1.104,0 -2,0.896 -2,2 v 4 c 0,1.104 0.896,2 2,2 H 0 C 1.104,8 2,7.104 2,6 V 2 C 2,0.896 1.104,0 0,0" /></g><g
           transform="translate(166,128)"
           id="g226"><path
             id="path228"
             style="fill:#4c4c4c;fill-opacity:1;fill-rule:nonzero;stroke:none"
             d="m 0,0 h -4 c -1.104,0 -2,0.896 -2,2 v 4 c 0,1.104 0.896,2 2,2 H 0 C 1.104,8 2,7.104 2,6 V 2 C 2,0.896 1.104,0 0,0" /></g><g
           transform="translate(178,128)"
           id="g230"><path
             id="path232"
             style="fill:#4c4c4c;fill-opacity:1;fill-rule:nonzero;stroke:none"
             d="m 0,0 h -4 c -1.104,0 -2,0.896 -2,2 v 4 c 0,1.104 0.896,2 2,2 H 0 C 1.104,8 2,7.104 2,6 V 2 C 2,0.896 1.104,0 0,0" /></g><g
           transform="translate(42,104)"
           id="g234"><path
             id="path236"
             style="fill:#4c4c4c;fill-opacity:1;fill-rule:nonzero;stroke:none"
             d="m 0,0 h -8 c -1.104,0 -2,0.896 -2,2 v 4 c 0,1.104 0.896,2 2,2 H 0 C 1.104,8 2,7.104 2,6 V 2 C 2,0.896 1.104,0 0,0" /></g><g
           transform="translate(26,104)"
           id="g238"><path
             id="path240"
             style="fill:#4c4c4c;fill-opacity:1;fill-rule:nonzero;stroke:none"
             d="m 0,0 h -4 c -1.104,0 -2,0.896 -2,2 v 4 c 0,1.104 0.896,2 2,2 H 0 C 1.104,8 2,7.104 2,6 V 2 C 2,0.896 1.104,0 0,0" /></g><g
           transform="translate(54,104)"
           id="g242"><path
             id="path244"
             style="fill:#4c4c4c;fill-opacity:1;fill-rule:nonzero;stroke:none"
             d="m 0,0 h -4 c -1.104,0 -2,0.896 -2,2 v 4 c 0,1.104 0.896,2 2,2 H 0 C 1.104,8 2,7.104 2,6 V 2 C 2,0.896 1.104,0 0,0" /></g><g
           transform="translate(66,104)"
           id="g246"><path
             id="path248"
             style="fill:#4c4c4c;fill-opacity:1;fill-rule:nonzero;stroke:none"
             d="m 0,0 h -4 c -1.104,0 -2,0.896 -2,2 v 4 c 0,1.104 0.896,2 2,2 H 0 C 1.104,8 2,7.104 2,6 V 2 C 2,0.896 1.104,0 0,0" /></g><g
           transform="translate(78,104)"
           id="g250"><path
             id="path252"
             style="fill:#4c4c4c;fill-opacity:1;fill-rule:nonzero;stroke:none"
             d="m 0,0 h -4 c -1.104,0 -2,0.896 -2,2 v 4 c 0,1.104 0.896,2 2,2 H 0 C 1.104,8 2,7.104 2,6 V 2 C 2,0.896 1.104,0 0,0" /></g><g
           transform="translate(90,104)"
           id="g254"><path
             id="path256"
             style="fill:#4c4c4c;fill-opacity:1;fill-rule:nonzero;stroke:none"
             d="m 0,0 h -4 c -1.104,0 -2,0.896 -2,2 v 4 c 0,1.104 0.896,2 2,2 H 0 C 1.104,8 2,7.104 2,6 V 2 C 2,0.896 1.104,0 0,0" /></g><g
           transform="translate(102,104)"
           id="g258"><path
             id="path260"
             style="fill:#4c4c4c;fill-opacity:1;fill-rule:nonzero;stroke:none"
             d="m 0,0 h -4 c -1.104,0 -2,0.896 -2,2 v 4 c 0,1.104 0.896,2 2,2 H 0 C 1.104,8 2,7.104 2,6 V 2 C 2,0.896 1.104,0 0,0" /></g><g
           transform="translate(114,104)"
           id="g262"><path
             id="path264"
             style="fill:#4c4c4c;fill-opacity:1;fill-rule:nonzero;stroke:none"
             d="m 0,0 h -4 c -1.104,0 -2,0.896 -2,2 v 4 c 0,1.104 0.896,2 2,2 H 0 C 1.104,8 2,7.104 2,6 V 2 C 2,0.896 1.104,0 0,0" /></g><g
           transform="translate(126,104)"
           id="g266"><path
             id="path268"
             style="fill:#4c4c4c;fill-opacity:1;fill-rule:nonzero;stroke:none"
             d="m 0,0 h -4 c -1.104,0 -2,0.896 -2,2 v 4 c 0,1.104 0.896,2 2,2 H 0 C 1.104,8 2,7.104 2,6 V 2 C 2,0.896 1.104,0 0,0" /></g><g
           transform="translate(138,104)"
           id="g270"><path
             id="path272"
             style="fill:#4c4c4c;fill-opacity:1;fill-rule:nonzero;stroke:none"
             d="m 0,0 h -4 c -1.104,0 -2,0.896 -2,2 v 4 c 0,1.104 0.896,2 2,2 H 0 C 1.104,8 2,7.104 2,6 V 2 C 2,0.896 1.104,0 0,0" /></g><g
           transform="translate(150,104)"
           id="g274"><path
             id="path276"
             style="fill:#4c4c4c;fill-opacity:1;fill-rule:nonzero;stroke:none"
             d="m 0,0 h -4 c -1.104,0 -2,0.896 -2,2 v 4 c 0,1.104 0.896,2 2,2 H 0 C 1.104,8 2,7.104 2,6 V 2 C 2,0.896 1.104,0 0,0" /></g><g
           transform="translate(166,104)"
           id="g278"><path
             id="path280"
             style="fill:#4c4c4c;fill-opacity:1;fill-rule:nonzero;stroke:none"
             d="m 0,0 h -8 c -1.104,0 -2,0.896 -2,2 v 4 c 0,1.104 0.896,2 2,2 H 0 C 1.104,8 2,7.104 2,6 V 2 C 2,0.896 1.104,0 0,0" /></g><g
           transform="translate(178,104)"
           id="g282"><path
             id="path284"
             style="fill:#4c4c4c;fill-opacity:1;fill-rule:nonzero;stroke:none"
             d="m 0,0 h -4 c -1.104,0 -2,0.896 -2,2 v 4 c 0,1.104 0.896,2 2,2 H 0 C 1.104,8 2,7.104 2,6 V 2 C 2,0.896 1.104,0 0,0" /></g><g
           transform="translate(190,104)"
           id="g286"><path
             id="path288"
             style="fill:#4c4c4c;fill-opacity:1;fill-rule:nonzero;stroke:none"
             d="m 0,0 h -4 c -1.104,0 -2,0.896 -2,2 v 4 c 0,1.104 0.896,2 2,2 H 0 C 1.104,8 2,7.104 2,6 V 2 C 2,0.896 1.104,0 0,0" /></g><g
           transform="translate(194,128)"
           id="g290"><path
             id="path292"
             style="fill:#4c4c4c;fill-opacity:1;fill-rule:nonzero;stroke:none"
             d="m 0,0 h -8 c -1.104,0 -2,0.896 -2,2 v 4 c 0,1.104 0.896,2 2,2 H 0 C 1.104,8 2,7.104 2,6 V 2 C 2,0.896 1.104,0 0,0" /></g><g
           transform="translate(146,92)"
           id="g294"><path
             id="path296"
             style="fill:#4c4c4c;fill-opacity:1;fill-rule:nonzero;stroke:none"
             d="m 0,0 h -96 c -1.104,0 -2,0.896 -2,2 v 4 c 0,1.104 0.896,2 2,2 H 0 C 1.104,8 2,7.104 2,6 V 2 C 2,0.896 1.104,0 0,0" /></g><g
           transform="translate(222,140)"
           id="g298"><path
             id="path300"
             style="fill:#bf9a57;fill-opacity:1;fill-rule:nonzero;stroke:none"
             d="m 0,0 h -12 c -1.104,0 -2,0.896 -2,2 v 4 c 0,1.104 0.896,2 2,2 H 0 C 1.104,8 2,7.104 2,6 V 2 C 2,0.896 1.104,0 0,0" /></g><g
           transform="translate(222,128)"
           id="g302"><path
             id="path304"
             style="fill:#bf9a57;fill-opacity:1;fill-rule:nonzero;stroke:none"
             d="m 0,0 h -12 c -1.104,0 -2,0.896 -2,2 v 4 c 0,1.104 0.896,2 2,2 H 0 C 1.104,8 2,7.104 2,6 V 2 C 2,0.896 1.104,0 0,0" /></g><g
           transform="translate(222,116)"
           id="g306"><path
             id="path308"
             style="fill:#bf9a57;fill-opacity:1;fill-rule:nonzero;stroke:none"
             d="m 0,0 h -12 c -1.104,0 -2,0.896 -2,2 v 4 c 0,1.104 0.896,2 2,2 H 0 C 1.104,8 2,7.104 2,6 V 2 C 2,0.896 1.104,0 0,0" /></g><g
           transform="translate(222,104)"
           id="g310"><path
             id="path312"
             style="fill:#bf9a57;fill-opacity:1;fill-rule:nonzero;stroke:none"
             d="m 0,0 h -12 c -1.104,0 -2,0.896 -2,2 v 4 c 0,1.104 0.896,2 2,2 H 0 C 1.104,8 2,7.104 2,6 V 2 C 2,0.896 1.104,0 0,0" /></g><g
           transform="translate(88,177)"
           id="g314"><path
             id="path316"
             style="fill:#a6a6a6;fill-opacity:1;fill-rule:nonzero;stroke:none"
             d="M 0,0 H -20 V -8 H 0 c 2.209,0 4,1.791 4,4 0,2.209 -1.791,4 -4,4" /></g><g
           transform="translate(68,177)"
           id="g318"><path
             id="path320"
             style="fill:#808080;fill-opacity:1;fill-rule:nonzero;stroke:none"
             d="m 0,0 h -40 c -2.209,0 -4,-1.791 -4,-4 0,-2.209 1.791,-4 4,-4 H 0 Z" /></g></g></g></g></svg>