<?xml version="1.0" encoding="UTF-8" standalone="no"?>
<svg
   xmlns:dc="http://purl.org/dc/elements/1.1/"
   xmlns:cc="http://creativecommons.org/ns#"
   xmlns:rdf="http://www.w3.org/1999/02/22-rdf-syntax-ns#"
   xmlns:svg="http://www.w3.org/2000/svg"
   xmlns="http://www.w3.org/2000/svg"
   viewBox="0 0 142.33546 117.33333"
   height="117.33333"
   width="142.33546"
   xml:space="preserve"
   id="svg2"
   version="1.1"><metadata
     id="metadata8"><rdf:RDF><cc:Work
         rdf:about=""><dc:format>image/svg+xml</dc:format><dc:type
           rdf:resource="http://purl.org/dc/dcmitype/StillImage" /></cc:Work></rdf:RDF></metadata><defs
     id="defs6"><clipPath
       id="clipPath18"
       clipPathUnits="userSpaceOnUse"><path
         id="path16"
         d="M 0,256 H 256 V 0 H 0 Z" /></clipPath><clipPath
       id="clipPath26"
       clipPathUnits="userSpaceOnUse"><path
         id="path24"
         d="M 74.6244,172 H 181.376 V 84 H 74.6244 Z" /></clipPath></defs><g
     transform="matrix(1.3333333,0,0,-1.3333333,-99.499198,229.33333)"
     id="g10"><g
       id="g12"><g
         clip-path="url(#clipPath18)"
         id="g14"><g
           id="g20"><g
             id="g22" /><g
             id="g34"><g
               style="opacity:0.5"
               id="g32"
               clip-path="url(#clipPath26)"><g
                 id="g30"
                 transform="translate(154.4863,172)"><path
                   id="path28"
                   style="fill:#ffffff;fill-opacity:1;fill-rule:nonzero;stroke:none"
                   d="m 0,0 h -4.486 -44 -4.487 l -2.34,-3.829 -22,-36 -2.549,-4.171 2.549,-4.172 22,-36 2.34,-3.828 h 4.487 44 H 0 l 2.34,3.828 22,36 2.55,4.172 -2.55,4.171 -22,36 z" /></g></g></g></g></g></g><g
       transform="translate(150,164)"
       id="g36"><path
         id="path38"
         style="fill:#354f9f;fill-opacity:1;fill-rule:nonzero;stroke:none"
         d="m 0,0 h -44 l -22,-36 22,-36 H 0 l 22,36 z" /></g><path
       id="path40"
       style="fill:#f2f2f2;fill-opacity:1;fill-rule:nonzero;stroke:none"
       d="m 136,104 h -16 v 32 h 16 z" /><g
       transform="translate(135.8613,144)"
       id="g42"><path
         id="path44"
         style="fill:#f2f2f2;fill-opacity:1;fill-rule:nonzero;stroke:none"
         d="m 0,0 h -15.861 l 0.138,8 H 0.139 Z" /></g></g></svg>