<?xml version="1.0" encoding="utf-8"?>
<!-- Generator: Adobe Illustrator 24.2.1, SVG Export Plug-In . SVG Version: 6.00 Build 0)  -->
<svg version="1.1"
	 id="svg2" xmlns:cc="http://creativecommons.org/ns#" xmlns:dc="http://purl.org/dc/elements/1.1/" xmlns:inkscape="http://www.inkscape.org/namespaces/inkscape" xmlns:rdf="http://www.w3.org/1999/02/22-rdf-syntax-ns#" xmlns:sodipodi="http://sodipodi.sourceforge.net/DTD/sodipodi-0.dtd" xmlns:svg="http://www.w3.org/2000/svg"
	 xmlns="http://www.w3.org/2000/svg" xmlns:xlink="http://www.w3.org/1999/xlink" x="0px" y="0px" viewBox="0 0 256 256"
	 style="enable-background:new 0 0 256 256;" xml:space="preserve">
<style type="text/css">
	.st0{opacity:0.5;clip-path:url(#SVGID_2_);}
	.st1{fill:#FFFFFF;}
	.st2{fill:#8A3700;}
	.st3{fill:#8AA2B3;}
	.st4{fill:#D97811;}
	.st5{fill:#F39C12;}
	.st6{fill:#1D6EA1;}
	.st7{fill:#807B7B;}
	.st8{fill:none;stroke:#6E4B3A;stroke-width:0.7274;stroke-linejoin:round;stroke-miterlimit:10;}
	.st9{fill:none;stroke:#475B6F;stroke-width:0.7274;stroke-linejoin:round;stroke-miterlimit:10;}
	.st10{fill:none;stroke:#33495F;stroke-width:0.7274;stroke-linejoin:round;stroke-miterlimit:10;}
	.st11{fill:none;stroke:#000000;stroke-width:2.4248;stroke-miterlimit:10;}
	.st12{fill:#D97811;stroke:#000000;stroke-width:2.4248;stroke-linejoin:round;stroke-miterlimit:10;}
	.st13{fill:#F39C12;stroke:#000000;stroke-width:2.4248;stroke-linecap:round;stroke-linejoin:round;stroke-miterlimit:10;}
</style>
<sodipodi:namedview  bordercolor="#666666" borderopacity="1" gridtolerance="10" guidetolerance="10" id="namedview94" inkscape:current-layer="svg2" inkscape:cx="67.878895" inkscape:cy="163.61943" inkscape:pageopacity="0" inkscape:pageshadow="2" inkscape:window-height="705" inkscape:window-maximized="1" inkscape:window-width="1024" inkscape:window-x="-8" inkscape:window-y="-8" inkscape:zoom="0.48889803" objecttolerance="10" pagecolor="#ffffff" showgrid="false">
	</sodipodi:namedview>
<g>
	<g>
		<g>
			<g id="g14" transform="matrix(1.3333333,0,0,-1.3333333,0,341.33333)">
				<g id="g20">
					<g id="g22">
					</g>
					<g id="g34">
						<g>
							<g>
								<g>
									<g>
										<defs>
											<rect id="SVGID_1_" x="-200.8" y="-96" width="593.7" height="512"/>
										</defs>
										<clipPath id="SVGID_2_">
											<use xlink:href="#SVGID_1_"  style="overflow:visible;"/>
										</clipPath>
										<g id="g32" class="st0">
											<g id="g30" transform="translate(190.6084,236)">
												<path id="path28" inkscape:connector-curvature="0" class="st1" d="M-47.7,5h-3.5h-87h-3.5l-1.7-3l-43.5-75l-1.7-3
													l1.7-3l43.5-75l1.7-3h3.5h87h3.5l1.7,3l43.5,75l1.7,3l-1.7,3L-45.9,2L-47.7,5z"/>
											</g>
										</g>
									</g>
								</g>
							</g>
						</g>
					</g>
				</g>
			</g>
		</g>
	</g>
</g>
<path id="path38" inkscape:connector-curvature="0" class="st2" d="M186,28H70L12,128l58,100h116l58-100L186,28z"/>
<g>
	<g>
		<g id="FILLS_2_">
			<polygon class="st3" points="91.9,73.3 91.9,101.5 103.3,101.5 103.5,78.2 111.3,78.2 111.3,103.1 122.9,103.1 122.9,73.3 			"/>
			<polygon class="st3" points="69.6,87.1 65.5,77.2 62,80.4 58.4,80.6 58.4,123 62,119.2 62,114.6 69.8,114.6 			"/>
			<polygon class="st4" points="122.9,103.1 122.9,115.5 111.3,113.4 111.3,103.1 			"/>
			<polygon class="st4" points="171.4,130.1 171.4,96.4 162.2,99.8 162.2,117.5 166.5,117.2 166.3,126.4 			"/>
			<polygon class="st5" points="160.3,122.3 162,119.9 162,117.2 166.5,117.2 166.3,126.4 			"/>
			<polygon class="st6" points="127.3,77.2 127.3,69.9 131.4,66.1 153.7,66.1 158.6,69.7 158.6,70.6 130.4,77.2 			"/>
			<path class="st3" d="M197.6,81.1h-17.7l-7-5.8h-6.5l-4.1-4.8v29.1h3.4l5.8-3.1l2.4,10.7l11.7-2.4l0.7-2.7l0.7,16.3h10.7
				L197.6,81.1L197.6,81.1z M176,89.1L176,89.1L176,89.1L176,89.1z"/>
			<polygon class="st5" points="158.3,117 158.3,119.2 142.6,131.3 127.3,118.9 127.3,117.2 150.1,117 			"/>
			<polygon class="st5" points="122.9,118.9 107.9,131.5 91.9,118.9 91.9,107.3 103.3,107.3 103.3,110.4 111.3,116.7 111.3,110.9 
				118.8,110.9 122.9,115.5 			"/>
			<polygon class="st6" points="160.3,66.1 175.5,66.1 179.9,81.1 179.9,81.6 174.8,81.6 172.8,84.5 172.8,75.2 166.3,75.2 
				162,69.9 			"/>
			<polygon class="st6" points="179.9,81.1 184,66.1 200.5,66.1 197.6,68.5 197.6,81.1 			"/>
			<path class="st4" d="M77.8,106.8l-0.5,3.9l-7.7,6v-2.2H62v4.6l-3.6,3.6c0,0,0,16.5,0,19.6s-1,5.6-1,5.6L80,130.2l8.5-10.2v-13.6
				H77.8C77.8,106.5,77.8,106.8,77.8,106.8z"/>
			<polygon class="st6" points="88.5,69.7 83.2,66.1 55.5,66.1 58.4,68.7 58.4,80.6 62,80.4 65,77.5 65,87.1 69.6,87.1 69.6,78.2 
				77.6,78.2 77.8,85.7 84.4,79.2 88.5,79.2 			"/>
			<polygon class="st6" points="96.7,66.1 119.3,66.1 122.9,69.7 122.9,78.4 113.2,78.4 110.5,76.7 110.5,75.2 112,73.8 100.1,73.8 
				100.1,77.7 91.9,77.7 91.9,69.7 			"/>
			<polygon class="st4" points="181.6,102.4 181.6,100.7 179.9,100.7 178.4,100.7 176,103.6 173.1,103.6 178.4,128.3 178.4,128.3 
				178.9,132.3 186.2,104.4 			"/>
			<path class="st7" d="M126.8,92.7h2.4c0,0,1.2,0.5,1.2,2.2s0,10.5,0,10.5s0,1.2-1.2,1.2s-2.2,0-2.2,0L126.8,92.7L126.8,92.7z"/>
			<polygon class="st4" points="91.9,101.5 91.9,112.4 98.4,112.4 98.4,114.8 94.3,114.8 101.1,120.1 101.1,109.2 103.3,109.2 
				103.3,101.5 			"/>
			<polygon class="st5" points="90.4,122.3 80,130.3 80,120.4 88.5,120.4 			"/>
			<polygon class="st3" points="158.3,70.6 137.2,70.6 130.4,77.2 127.3,77.2 127.5,107.7 134.8,110.6 138.7,110.6 138.7,78.2 
				146.9,78.2 146.9,105.3 158.6,105.3 			"/>
			<polygon class="st3" points="88.5,79.2 84.4,79.2 77.6,85.7 77.8,106.8 88.5,106.8 			"/>
			<path class="st4" d="M197.4,144.8c0-3.4,0-27.7,0-27.7h-7.3c0,0,0.7-0.7,0.7-1.4c0-0.5,0-2.7,0-4.6c0-1.2-1.4-1.7-1.4-1.7h-3.1
				c0,0,0,28.2,0,29.1c0,1-1.7,1.9-1.7,1.9l14.6,11.7C199.3,151.7,197.4,148,197.4,144.8z"/>
			<path class="st4" d="M146.9,105.3v4.8l-8,6.5v-6H135v-7.3h-4.4c0,2.7,0.5,3.6-2.9,3.6V118h8l4.1,5.8h4.6l6.3-6.3h8.5v-11.7h-12.4
				L146.9,105.3L146.9,105.3z"/>
		</g>
		<g id="LINES_1_">
			<line class="st8" x1="118.8" y1="110.9" x2="111.3" y2="110.9"/>
			<line class="st9" x1="178.4" y1="100.7" x2="178.4" y2="95.9"/>
			<line class="st9" x1="65" y1="82.3" x2="58.4" y2="82.3"/>
			<line class="st9" x1="65" y1="80.4" x2="58.9" y2="80.4"/>
			<polyline class="st9" points="169.9,88.8 176,88.8 176,95.9 			"/>
			<polyline class="st9" points="172.3,100 176,95.9 179.9,95.9 			"/>
			<polyline class="st9" points="58.4,106.8 62,110.4 62,114.6 			"/>
			<polyline class="st9" points="172.8,87.1 169.9,87.1 169.9,88.8 			"/>
			<polyline class="st9" points="197.4,107 188.8,98.8 188.8,91.5 			"/>
			<polyline class="st10" points="185.7,81.1 187.4,79.4 197.4,79.4 			"/>
			<polyline class="st10" points="174.8,65.8 174.8,78.7 172.8,79.2 			"/>
			<polyline class="st10" points="174.8,75.2 166.3,75.2 162.4,70.6 			"/>
			<path class="st8" d="M197.4,120.1h-6.3c0,0-1.9,0-1.9,1.9s0,3.9,0,3.9h-2.4"/>
			<polyline class="st8" points="162.2,117.2 169.7,117.2 169.7,110.2 162.2,110.2 			"/>
			<path class="st8" d="M164.6,110.2c0,0,1.4-0.7,1.4-1.9c0-1.2,0-4.3,0-4.3l-4.1-2.7"/>
			<line class="st8" x1="166.3" y1="117.2" x2="166.3" y2="126.4"/>
			<line class="st10" x1="172.8" y1="75.2" x2="172.8" y2="79.2"/>
			<polyline class="st9" points="178.9,85.9 171.4,85.9 171.4,85.4 168.5,85.4 			"/>
			<line class="st9" x1="164.9" y1="82.3" x2="162.2" y2="82.3"/>
			<polyline class="st10" points="187.4,79.4 192,74.8 197.4,74.8 			"/>
			<line class="st10" x1="189.6" y1="77" x2="197.4" y2="77"/>
			<path class="st10" d="M197.4,72.6h-9.2c0,0-2.7,2.2-2.7,6.8h-4.8"/>
			<polygon class="st9" points="179.9,81.6 174.8,81.6 172.8,84 179.9,84 			"/>
			<line class="st10" x1="166.3" y1="72.6" x2="162" y2="67.5"/>
			<line class="st8" x1="178.4" y1="127.9" x2="178.4" y2="100.7"/>
			<polyline class="st9" points="179.9,98.3 179.9,91.5 197.4,91.5 			"/>
			<polyline class="st9" points="185.2,104.1 181.6,102.7 181.6,93.7 			"/>
			<line class="st8" x1="168.5" y1="98.1" x2="169.4" y2="100.2"/>
			<polyline class="st9" points="147.2,81.1 152.2,86.2 152.2,94.2 146.9,99.5 			"/>
			<polyline class="st10" points="127.8,77.2 130.4,77.2 137.2,70.6 158.3,70.6 			"/>
			<path class="st9" d="M158.3,75.5h-4.4c0,0-0.7,0-0.7,1s0,1.2,0,1.2h5.1"/>
			<polyline class="st9" points="146.9,78.7 146.9,75.5 152,75.5 152,83.3 158.3,83.3 			"/>
			<path class="st9" d="M150.3,82.3c0,0,1.7,0,1.7-1.7"/>
			<path class="st9" d="M152,97.6v6c0,0,0,1.4,1.2,1.4"/>
			<line class="st8" x1="146.9" y1="105.3" x2="158.3" y2="105.3"/>
			<polyline class="st8" points="158.3,117 150.1,117 143.8,123.3 132.6,123.3 			"/>
			<path class="st9" d="M128,84.5c0,0,1,0,1,1s0,3.4,0,3.4h1.2"/>
			<polyline class="st9" points="131.9,89.3 131.9,90.5 129.4,92.9 			"/>
			<path class="st9" d="M130.4,103.1c0,0,0-6.3,0-8.5c0-1.9-2.4-1.9-2.4-1.9h-1.2"/>
			<polyline class="st8" points="127.5,108 132.4,113.1 134.8,113.1 135.5,113.8 138.5,113.8 			"/>
			<polyline class="st9" points="134.8,103.4 134.8,94.9 133.6,94.9 133.6,90.5 			"/>
			<path class="st9" d="M131.9,90.5c0,0,1,0,1.9,0c1,0,4.8-3.6,4.8-3.6"/>
			<line class="st9" x1="138.7" y1="82.3" x2="131.6" y2="87.9"/>
			<path class="st9" d="M131.4,80.4c0.2,0,7.3-6.5,7.3-6.5h17.7"/>
			<line class="st9" x1="141.6" y1="72.6" x2="141.6" y2="75"/>
			<line class="st8" x1="122.9" y1="115.5" x2="111.3" y2="103.1"/>
			<line class="st8" x1="116.1" y1="105.3" x2="119.5" y2="108.7"/>
			<line class="st8" x1="122.9" y1="103.1" x2="111.3" y2="103.1"/>
			<polyline class="st9" points="111.5,98.8 119.5,98.8 119.5,95.4 118.8,95.4 118.8,88.8 			"/>
			<polyline class="st9" points="115.9,94.7 117.3,95.4 117.3,93.2 			"/>
			<polyline class="st9" points="122.9,80.4 120.3,80.4 120.3,88.8 111.5,88.8 			"/>
			<polyline class="st10" points="108.6,66.5 100.1,73.8 100.1,71.1 104.7,66.5 			"/>
			<rect x="96.7" y="73.1" class="st10" width="1.7" height="3.4"/>
			<line class="st10" x1="91.9" y1="76.5" x2="96.9" y2="76.5"/>
			<line class="st10" x1="96.9" y1="73.1" x2="91.9" y2="73.1"/>
			<line class="st10" x1="97.2" y1="71.6" x2="102.6" y2="66.5"/>
			<line class="st10" x1="100.1" y1="77.7" x2="92.1" y2="77.7"/>
			<line class="st9" x1="100.1" y1="82.3" x2="91.9" y2="82.3"/>
			<line class="st9" x1="92.1" y1="83.8" x2="98.9" y2="83.8"/>
			<polyline class="st9" points="103.3,87.1 93.6,87.1 97.2,90 			"/>
			<line class="st9" x1="103.3" y1="88.8" x2="95.7" y2="88.8"/>
			<polyline class="st9" points="103.3,91.5 95,91.5 91.9,89.3 			"/>
			<polyline class="st9" points="103.3,96.1 93.3,96.1 93.3,97.8 94.5,97.8 			"/>
			<line class="st8" x1="103.3" y1="101.5" x2="91.9" y2="101.5"/>
			<polyline class="st9" points="101.6,98.3 101.6,99.5 99.8,99.5 			"/>
			<line class="st8" x1="103.3" y1="107.3" x2="91.9" y2="107.3"/>
			<rect x="101.1" y="117.2" class="st8" width="8.2" height="2.9"/>
			<polyline class="st8" points="91.9,112.4 95,112.4 98.4,112.4 98.4,115.5 98.4,116.5 			"/>
			<polyline class="st8" points="101.1,117.2 101.1,109.2 103.3,109.2 			"/>
			<polyline class="st8" points="101.1,120.1 94.3,114.8 98.4,114.8 			"/>
			<polygon class="st8" points="60.8,127.6 69.8,118.7 69.8,123.3 64,129.3 64,134.9 60.8,134.9 			"/>
			<line class="st8" x1="70.3" y1="125.7" x2="67.6" y2="128.3"/>
			<line class="st8" x1="71" y1="136.9" x2="58.4" y2="136.9"/>
			<polyline class="st8" points="80,130.1 80,110.6 77.6,110.6 			"/>
			<line class="st8" x1="79.2" y1="110.6" x2="79.2" y2="106.8"/>
			<line class="st8" x1="77.6" y1="106.8" x2="88.5" y2="106.8"/>
			<path class="st8" d="M88.5,114.6c0,0-0.5-2.2-1.9-2.2s-6.3,0-6.3,0"/>
			<polyline class="st8" points="86.6,112.4 86.6,110.2 88.5,110.2 			"/>
			<path class="st8" d="M82.4,112.2V109c0,0-1-2.2-3.1-2.2"/>
			<polyline class="st8" points="82.4,112.4 82.4,110.6 84.6,108.2 88.5,108.2 			"/>
			<polyline class="st9" points="88.5,96.6 82.4,96.6 77.8,101.2 			"/>
			<line class="st9" x1="83.2" y1="99" x2="81.2" y2="101"/>
			<line class="st9" x1="88.5" y1="93.2" x2="84.9" y2="89.6"/>
			<polyline class="st9" points="88.5,91.2 85.1,87.6 77.8,94.9 			"/>
			<polyline class="st9" points="77.8,92.5 85.6,84.5 88.5,84.5 			"/>
			<polyline class="st9" points="88.5,86.7 86.1,86.7 85.1,87.6 			"/>
			<polyline class="st9" points="88.5,94.9 82.9,94.9 82.9,93.7 86.1,90.5 			"/>
			<polyline class="st9" points="88.5,79.2 84.4,79.2 77.8,85.7 			"/>
			<polyline class="st10" points="88.5,70.4 72,70.4 72,76 79.2,76 80.9,77.7 88.5,77.7 			"/>
			<line class="st10" x1="85.1" y1="75.5" x2="88.5" y2="75.5"/>
			<line class="st10" x1="74.4" y1="72.1" x2="74.4" y2="76"/>
			<polyline class="st10" points="72,73.8 65,73.8 65,87.1 			"/>
			<line class="st9" x1="69.6" y1="87.1" x2="58.4" y2="87.1"/>
			<line class="st9" x1="69.6" y1="92.7" x2="58.4" y2="92.7"/>
			<polyline class="st9" points="58.4,94.7 64.4,94.7 64.4,100 69.6,105.1 			"/>
			<line class="st9" x1="62.5" y1="96.6" x2="60.3" y2="96.6"/>
			<line class="st9" x1="63.7" y1="112.2" x2="63.7" y2="113.4"/>
			<line class="st10" x1="65" y1="75.5" x2="58.9" y2="75.5"/>
			<polyline class="st10" points="65,77.7 62,80.4 58.4,80.4 			"/>
			<line class="st10" x1="71" y1="73.8" x2="63.7" y2="66.5"/>
			<line class="st10" x1="74.4" y1="70.4" x2="70.3" y2="66.3"/>
			<line class="st9" x1="197.4" y1="81.1" x2="179.9" y2="81.1"/>
			<line class="st10" x1="171.1" y1="77.7" x2="171.1" y2="78.2"/>
			<line class="st10" x1="133.6" y1="71.1" x2="130.9" y2="73.8"/>
			<polyline class="st9" points="117.3,83.8 117.3,80.1 113.2,80.1 113.2,83.5 			"/>
			<polyline class="st9" points="120.3,85.4 117.8,85.4 117.8,87.1 			"/>
			<line class="st9" x1="113.7" y1="85.4" x2="117.8" y2="85.4"/>
			<line class="st10" x1="112" y1="73.8" x2="106.2" y2="73.8"/>
			<polyline class="st10" points="116.1,71.1 113.9,69.2 105.2,69.2 			"/>
			<line class="st10" x1="119.3" y1="71.1" x2="119.3" y2="67"/>
			<line class="st10" x1="122.9" y1="72.1" x2="119.8" y2="72.1"/>
			<line class="st9" x1="122.9" y1="78.4" x2="119.8" y2="78.4"/>
			<polygon class="st10" points="113.2,78.4 110.5,76.7 110.5,75.2 114.4,71.1 119.8,71.1 119.8,78.4 			"/>
			<polyline class="st10" points="106.2,77.7 106.2,73.8 100.1,73.8 100.1,85.4 			"/>
			<polyline class="st9" points="162.2,79.2 172.8,79.2 172.8,85.9 			"/>
			<line class="st8" x1="109.3" y1="117.2" x2="109.3" y2="114.8"/>
			<polyline class="st9" points="162.2,88.8 171.4,88.8 171.4,96.4 			"/>
			<line class="st8" x1="186.2" y1="117" x2="197.4" y2="117"/>
			<polyline class="st8" points="171.4,96.4 165.6,99.8 162.2,99.8 			"/>
			<line class="st8" x1="80.2" y1="120.1" x2="88.2" y2="120.1"/>
			<polyline class="st8" points="58.4,123 62,119.2 62,114.6 69.6,114.6 			"/>
			<polyline class="st8" points="185.7,104.4 181.6,102.7 181.6,100.7 178.4,100.7 176,103.6 173.1,103.6 			"/>
			<path class="st8" d="M187.1,109.2h1.7c1.9,0,1.7,1.4,1.7,1.4v4.8c0,0,0,1.4-1.7,1.4"/>
			<polyline class="st8" points="127.3,118 135.3,118 139.2,123.3 			"/>
			<rect x="184.7" y="85.4" class="st9" width="4.8" height="1.7"/>
			<path class="st8" d="M126.8,106.5c0,0,1,0,2.2,0s1.2-1.2,1.2-1.2v-2.2h4.4v7.2h3.9"/>
			<polyline class="st8" points="152.7,110.9 151,110.9 151,108 			"/>
			<line class="st8" x1="193.5" y1="134.4" x2="193.5" y2="138.1"/>
		</g>
		<g id="OUTLINES_1_">
			<g>
				<path class="st11" d="M122.7,69.9v49L107.9,131l-15.5-12.1v-49l4.3-3.4H119L122.7,69.9z M112,77.7h-9v33l8.9,7L112,77.7
					L112,77.7z"/>
			</g>
			<g>
				<path class="st11" d="M197.1,68.7c0,0,0,70.1,0,74.7s1.2,7.3,1.2,7.3l-12.9-10.2l1.2-1.2v-41l-7.5,31.5l-8-35.9v35.2l-10.7-7
					l1.7-1.9V69.7l-1.4-3.1H175l4.6,16.5l4.6-16.5H199L197.1,68.7z"/>
			</g>
			<g>
				<path class="st11" d="M88.2,69.9v50.7l1.7,1.7L58.4,147c0,0,0.7-1.7,0.7-3.1s0-75.4,0-75.4l-2.4-1.9h26.4L88.2,69.9z
					 M78.3,110.4V77.7h-8.9v40L78.3,110.4z"/>
			</g>
			<g>
				<path class="st11" d="M158.1,69.9v49L142.6,131l-14.8-12.1v-49l3.6-3.4h22.3L158.1,69.9z M147.4,110.4V77.7h-8.9v40L147.4,110.4
					z"/>
			</g>
		</g>
		<polygon class="st12" points="125.3,124.2 133.6,131.1 133.6,136.6 130.2,139 133.6,141.7 133.6,147.5 125.3,154.1 116.6,147.5 
			116.6,145.1 121.2,141 121.2,143.4 124.6,146.3 127.5,144.1 124.1,140.7 124.1,137.6 127.5,133.7 124.6,131.8 121.2,134.7 
			121.2,137.3 116.6,134.2 116.6,131.1 		"/>
		<g>
			<g>
				<g>
					<path class="st13" d="M76.3,193.4H77c0.5,0,1.2-0.2,1.2-0.7v-26.4c0-1.4-1.9-1.2-1.9-1.2l-1.5-3.9h12.9
						c3.1,0,10.9,1.9,10.9,10.5c0,4.8-2.9,7.7-5.3,9.2c4.6,4.4,11.7,11.4,12.1,11.9c0,0,0.7,0.2,1.9,0.2l1.7,4.1h-8.9l-14.3-14.3h-1
						v9.8c0,0.5,0.7,0.7,1.2,0.7h0.7l1.7,3.6H74.9L76.3,193.4z M87.5,176.1c0.2,0,4.6,0,4.6-4.6c0-3.9-3.6-4.3-4.6-4.3h-2.7v8.9
						L87.5,176.1L87.5,176.1z"/>
				</g>
			</g>
			<g>
				<path class="st13" d="M125.8,197.5c-10.2,0-18.4-8.2-18.4-18.4s8.2-18.4,18.4-18.4s18.4,8.2,18.4,18.4
					C144.3,189.2,136,197.5,125.8,197.5z M114.2,182.2c1,3.4,5.1,7.7,8.7,8.7v-8.7H114.2L114.2,182.2z M129,190.7
					c3.4-1,7.7-5.1,8.7-8.7H129V190.7z M137.5,175.9c-1-3.4-5.1-7.7-8.7-8.7v8.7H137.5z M122.7,175.9v-8.7c-3.4,1-7.7,5.1-8.7,8.7
					H122.7z"/>
			</g>
			<path class="st13" d="M169.4,190.5c-0.2,0-9.7,0-9.7,0v-8.9h8.5l0.2,1.9l3.6,1.4c0,0-0.2-5.1-0.2-5.3v-2.7c0-0.2,0.2-3.9,0.2-5.3
				l-3.6,1.2c0,0-0.2,1.7-0.2,1.9c-0.2,0-8.5,0-8.5,0V168c0,0,9.5,0,9.7,0c0,0.2,0.2,1.9,0.2,1.9l2.9,1.4l0.7,0.2v-1.4
				c0,0-0.2-3.1-0.2-3.6v-1.7v-1c0-0.5,0.2-3.6,0.2-3.6v-1.7l-3.9,1.2c0,0-0.2,1.7-0.2,1.9c-0.2,0-16.3,0-16.3,0V173l-3.6-1.7
				c0,0,0.2,5.3,0.2,5.6v2.7c0,0.2-0.2,5.3-0.2,5.3l3.6-1.4v18.9l5.3-5.3c0,0,10.9,0,11.2,0c0,0.2,0.2,1.9,0.2,1.9l3.9,1.4
				c0,0-0.2-5.1-0.2-5.3v-2.7c0-0.2,0.2-3.6,0.2-3.6v-1.9l-3.9,1.7C169.7,188.5,169.4,190.2,169.4,190.5z"/>
		</g>
	</g>
</g>
</svg>
