<?xml version="1.0" encoding="UTF-8" standalone="no"?>
<svg
   xmlns:dc="http://purl.org/dc/elements/1.1/"
   xmlns:cc="http://creativecommons.org/ns#"
   xmlns:rdf="http://www.w3.org/1999/02/22-rdf-syntax-ns#"
   xmlns:svg="http://www.w3.org/2000/svg"
   xmlns="http://www.w3.org/2000/svg"
   viewBox="0 0 320 320"
   height="320"
   width="320"
   xml:space="preserve"
   version="1.1"
   id="svg2"><metadata
     id="metadata8"><rdf:RDF><cc:Work
         rdf:about=""><dc:format>image/svg+xml</dc:format><dc:type
           rdf:resource="http://purl.org/dc/dcmitype/StillImage" /></cc:Work></rdf:RDF></metadata><defs
     id="defs6"><clipPath
       id="clipPath18"
       clipPathUnits="userSpaceOnUse"><path
         id="path20"
         d="M 0,256 256,256 256,0 0,0 0,256 Z" /></clipPath></defs><g
     transform="matrix(1.25,0,0,-1.25,0,320)"
     id="g10"><path
       id="path12"
       style="fill:#cccccc;fill-opacity:1;fill-rule:nonzero;stroke:none"
       d="m 12,220 232,0 0,-184 -232,0 0,184 z" /><g
       id="g14"><g
         clip-path="url(#clipPath18)"
         id="g16"><g
           transform="translate(212,72)"
           id="g22"><path
             id="path24"
             style="fill:#00007b;fill-opacity:1;fill-rule:nonzero;stroke:none"
             d="m 0,0 c 0,-4.418 -22.96,-8 -82,-8 -59.04,0 -82,3.582 -82,8 0,4.418 36.713,8 82,8 C -36.713,8 0,4.418 0,0" /></g><path
           id="path26"
           style="fill:#d9d9d9;fill-opacity:1;fill-rule:nonzero;stroke:none"
           d="m 244,36 -232,0 0,24 232,0 0,-24 z" /><path
           id="path28"
           style="fill:#b3b3b3;fill-opacity:1;fill-rule:nonzero;stroke:none"
           d="m 236,36 -140,0 0,12 140,0 0,-12 z" /><path
           id="path30"
           style="fill:#b3b3b3;fill-opacity:1;fill-rule:nonzero;stroke:none"
           d="m 76,36 -4,0 0,8 4,0 0,-8 z" /><path
           id="path32"
           style="fill:#b3b3b3;fill-opacity:1;fill-rule:nonzero;stroke:none"
           d="m 84,36 -4,0 0,8 4,0 0,-8 z" /><path
           id="path34"
           style="fill:#b3b3b3;fill-opacity:1;fill-rule:nonzero;stroke:none"
           d="m 68,36 -4,0 0,8 4,0 0,-8 z" /><path
           id="path36"
           style="fill:#b3b3b3;fill-opacity:1;fill-rule:nonzero;stroke:none"
           d="m 60,36 -4,0 0,8 4,0 0,-8 z" /><path
           id="path38"
           style="fill:#b3b3b3;fill-opacity:1;fill-rule:nonzero;stroke:none"
           d="m 52,36 -4,0 0,8 4,0 0,-8 z" /><path
           id="path40"
           style="fill:#b3b3b3;fill-opacity:1;fill-rule:nonzero;stroke:none"
           d="m 44,36 -4,0 0,8 4,0 0,-8 z" /><path
           id="path42"
           style="fill:#b3b3b3;fill-opacity:1;fill-rule:nonzero;stroke:none"
           d="m 36,36 -4,0 0,8 4,0 0,-8 z" /><path
           id="path44"
           style="fill:#b3b3b3;fill-opacity:1;fill-rule:nonzero;stroke:none"
           d="m 28,36 -4,0 0,8 4,0 0,-8 z" /><path
           id="path46"
           style="fill:#d9d9d9;fill-opacity:1;fill-rule:nonzero;stroke:none"
           d="m 212,88 -164,0 0,140 164,0 0,-140 z" /><g
           transform="translate(212,68)"
           id="g48"><path
             id="path50"
             style="fill:#e6e6e6;fill-opacity:1;fill-rule:nonzero;stroke:none"
             d="m 0,0 -164,0 c -2.209,0 -4,1.791 -4,4 l 0,24 L 4,28 4,4 C 4,1.791 2.209,0 0,0" /></g><path
           id="path52"
           style="fill:#b3b3b3;fill-opacity:1;fill-rule:nonzero;stroke:none"
           d="m 56,104 -4,0 0,24 4,0 0,-24 z" /><path
           id="path54"
           style="fill:#b3b3b3;fill-opacity:1;fill-rule:nonzero;stroke:none"
           d="m 64,104 -4,0 0,24 4,0 0,-24 z" /><path
           id="path56"
           style="fill:#b3b3b3;fill-opacity:1;fill-rule:nonzero;stroke:none"
           d="m 72,104 -4,0 0,24 4,0 0,-24 z" /><path
           id="path58"
           style="fill:#b3b3b3;fill-opacity:1;fill-rule:nonzero;stroke:none"
           d="m 80,104 -4,0 0,24 4,0 0,-24 z" /><path
           id="path60"
           style="fill:#b3b3b3;fill-opacity:1;fill-rule:nonzero;stroke:none"
           d="m 88,104 -4,0 0,24 4,0 0,-24 z" /><path
           id="path62"
           style="fill:#b3b3b3;fill-opacity:1;fill-rule:nonzero;stroke:none"
           d="m 96,104 -4,0 0,24 4,0 0,-24 z" /><path
           id="path64"
           style="fill:#b3b3b3;fill-opacity:1;fill-rule:nonzero;stroke:none"
           d="m 104,104 -4,0 0,24 4,0 0,-24 z" /><path
           id="path66"
           style="fill:#b3b3b3;fill-opacity:1;fill-rule:nonzero;stroke:none"
           d="m 112,104 -4,0 0,24 4,0 0,-24 z" /><path
           id="path68"
           style="fill:#b3b3b3;fill-opacity:1;fill-rule:nonzero;stroke:none"
           d="m 120,104 -4,0 0,24 4,0 0,-24 z" /><path
           id="path70"
           style="fill:#b3b3b3;fill-opacity:1;fill-rule:nonzero;stroke:none"
           d="m 128,104 -4,0 0,24 4,0 0,-24 z" /><path
           id="path72"
           style="fill:#b3b3b3;fill-opacity:1;fill-rule:nonzero;stroke:none"
           d="m 136,104 -4,0 0,24 4,0 0,-24 z" /><path
           id="path74"
           style="fill:#b3b3b3;fill-opacity:1;fill-rule:nonzero;stroke:none"
           d="m 144,104 -4,0 0,24 4,0 0,-24 z" /><path
           id="path76"
           style="fill:#b3b3b3;fill-opacity:1;fill-rule:nonzero;stroke:none"
           d="m 152,104 -4,0 0,24 4,0 0,-24 z" /><path
           id="path78"
           style="fill:#b3b3b3;fill-opacity:1;fill-rule:nonzero;stroke:none"
           d="m 160,104 -4,0 0,24 4,0 0,-24 z" /><path
           id="path80"
           style="fill:#b3b3b3;fill-opacity:1;fill-rule:nonzero;stroke:none"
           d="m 168,104 -4,0 0,24 4,0 0,-24 z" /><path
           id="path82"
           style="fill:#b3b3b3;fill-opacity:1;fill-rule:nonzero;stroke:none"
           d="m 176,104 -4,0 0,24 4,0 0,-24 z" /><path
           id="path84"
           style="fill:#b3b3b3;fill-opacity:1;fill-rule:nonzero;stroke:none"
           d="m 184,104 -4,0 0,24 4,0 0,-24 z" /><path
           id="path86"
           style="fill:#b3b3b3;fill-opacity:1;fill-rule:nonzero;stroke:none"
           d="m 192,104 -4,0 0,24 4,0 0,-24 z" /><path
           id="path88"
           style="fill:#b3b3b3;fill-opacity:1;fill-rule:nonzero;stroke:none"
           d="m 200,104 -4,0 0,24 4,0 0,-24 z" /><path
           id="path90"
           style="fill:#b3b3b3;fill-opacity:1;fill-rule:nonzero;stroke:none"
           d="m 208,104 -4,0 0,24 4,0 0,-24 z" /><g
           transform="translate(236,44)"
           id="g92"><path
             id="path94"
             style="fill:#262626;fill-opacity:1;fill-rule:nonzero;stroke:none"
             d="m 0,0 -140,0 0,4 c 0,2.209 1.791,4 4,4 L -4,8 C -1.791,8 0,6.209 0,4 L 0,0 Z" /></g><path
           id="path96"
           style="fill:#0d0d0d;fill-opacity:1;fill-rule:nonzero;stroke:none"
           d="m 164,44 -64,0 0,4 64,0 0,-4 z" /><path
           id="path98"
           style="fill:#0d0d0d;fill-opacity:1;fill-rule:nonzero;stroke:none"
           d="m 232,44 -64,0 0,4 64,0 0,-4 z" /></g></g></g></svg>