<?xml version="1.0" encoding="UTF-8" standalone="no"?>
<svg
   xmlns:dc="http://purl.org/dc/elements/1.1/"
   xmlns:cc="http://creativecommons.org/ns#"
   xmlns:rdf="http://www.w3.org/1999/02/22-rdf-syntax-ns#"
   xmlns:svg="http://www.w3.org/2000/svg"
   xmlns="http://www.w3.org/2000/svg"
   viewBox="0 0 320 320"
   height="320"
   width="320"
   xml:space="preserve"
   version="1.1"
   id="svg2"><metadata
     id="metadata8"><rdf:RDF><cc:Work
         rdf:about=""><dc:format>image/svg+xml</dc:format><dc:type
           rdf:resource="http://purl.org/dc/dcmitype/StillImage" /></cc:Work></rdf:RDF></metadata><defs
     id="defs6"><clipPath
       id="clipPath16"
       clipPathUnits="userSpaceOnUse"><path
         id="path18"
         d="M 0,256 256,256 256,0 0,0 0,256 Z" /></clipPath><clipPath
       id="clipPath24"
       clipPathUnits="userSpaceOnUse"><path
         id="path26"
         d="M 4,200 252,200 252,56 4,56 4,200 Z" /></clipPath><clipPath
       id="clipPath48"
       clipPathUnits="userSpaceOnUse"><path
         id="path50"
         d="M 0,256 256,256 256,0 0,0 0,256 Z" /></clipPath></defs><g
     transform="matrix(1.25,0,0,-1.25,0,320)"
     id="g10"><g
       id="g12"><g
         clip-path="url(#clipPath16)"
         id="g14"><g
           id="g20"><g
             id="g22" /><g
             id="g28"><g
               style="opacity:0.5"
               id="g30"
               clip-path="url(#clipPath24)"><g
                 id="g32"
                 transform="translate(252,200)"><path
                   id="path34"
                   style="fill:#ffffff;fill-opacity:1;fill-rule:nonzero;stroke:none"
                   d="m 0,0 -8,0 -232,0 -8,0 0,-8 0,-128 0,-8 8,0 232,0 8,0 0,8 0,128 0,8 z" /></g></g></g></g></g></g><path
       id="path36"
       style="fill:#666666;fill-opacity:1;fill-rule:nonzero;stroke:none"
       d="m 244,64 -232,0 0,128 232,0 0,-128 z" /><path
       id="path38"
       style="fill:#d9d9d9;fill-opacity:1;fill-rule:nonzero;stroke:none"
       d="m 172,104 -88,0 0,44 88,0 0,-44 z" /><path
       id="path40"
       style="fill:#666666;fill-opacity:1;fill-rule:nonzero;stroke:none"
       d="m 164,108 -72,0 0,12 72,0 0,-12 z" /><path
       id="path42"
       style="fill:#d9d9d9;fill-opacity:1;fill-rule:nonzero;stroke:none"
       d="m 160,110 -16,0 0,8 16,0 0,-8 z" /><g
       id="g44"><g
         clip-path="url(#clipPath48)"
         id="g46"><g
           transform="translate(94,114)"
           id="g52"><path
             id="path54"
             style="fill:#cccccc;fill-opacity:1;fill-rule:nonzero;stroke:none"
             d="M 0,0 C 0,-2.209 1.791,-4 4,-4 6.209,-4 8,-2.209 8,0 8,2.209 6.209,4 4,4 1.791,4 0,2.209 0,0" /></g><g
           transform="translate(106,114)"
           id="g56"><path
             id="path58"
             style="fill:#cccccc;fill-opacity:1;fill-rule:nonzero;stroke:none"
             d="M 0,0 C 0,-2.209 1.791,-4 4,-4 6.209,-4 8,-2.209 8,0 8,2.209 6.209,4 4,4 1.791,4 0,2.209 0,0" /></g><g
           transform="translate(118,114)"
           id="g60"><path
             id="path62"
             style="fill:#cccccc;fill-opacity:1;fill-rule:nonzero;stroke:none"
             d="M 0,0 C 0,-2.209 1.791,-4 4,-4 6.209,-4 8,-2.209 8,0 8,2.209 6.209,4 4,4 1.791,4 0,2.209 0,0" /></g><g
           transform="translate(130,114)"
           id="g64"><path
             id="path66"
             style="fill:#cccccc;fill-opacity:1;fill-rule:nonzero;stroke:none"
             d="M 0,0 C 0,-2.209 1.791,-4 4,-4 6.209,-4 8,-2.209 8,0 8,2.209 6.209,4 4,4 1.791,4 0,2.209 0,0" /></g><g
           transform="translate(162,142)"
           id="g68"><path
             id="path70"
             style="fill:#ff0000;fill-opacity:1;fill-rule:nonzero;stroke:none"
             d="m 0,0 c 0,-1.104 -0.896,-2 -2,-2 -1.104,0 -2,0.896 -2,2 0,1.104 0.896,2 2,2 1.104,0 2,-0.896 2,-2" /></g><path
           id="path72"
           style="fill:#595959;fill-opacity:1;fill-rule:nonzero;stroke:none"
           d="m 172,72 -88,0 0,20 88,0 0,-20 z" /><path
           id="path74"
           style="fill:#4c4c4c;fill-opacity:1;fill-rule:nonzero;stroke:none"
           d="m 90,72 -2,0 0,20 2,0 0,-20 z" /><path
           id="path76"
           style="fill:#4c4c4c;fill-opacity:1;fill-rule:nonzero;stroke:none"
           d="m 86,72 -2,0 0,20 2,0 0,-20 z" /><path
           id="path78"
           style="fill:#4c4c4c;fill-opacity:1;fill-rule:nonzero;stroke:none"
           d="m 94,72 -2,0 0,20 2,0 0,-20 z" /><path
           id="path80"
           style="fill:#4c4c4c;fill-opacity:1;fill-rule:nonzero;stroke:none"
           d="m 98,72 -2,0 0,20 2,0 0,-20 z" /><path
           id="path82"
           style="fill:#4c4c4c;fill-opacity:1;fill-rule:nonzero;stroke:none"
           d="m 102,72 -2,0 0,20 2,0 0,-20 z" /><path
           id="path84"
           style="fill:#4c4c4c;fill-opacity:1;fill-rule:nonzero;stroke:none"
           d="m 106,72 -2,0 0,20 2,0 0,-20 z" /><path
           id="path86"
           style="fill:#4c4c4c;fill-opacity:1;fill-rule:nonzero;stroke:none"
           d="m 110,72 -2,0 0,20 2,0 0,-20 z" /><path
           id="path88"
           style="fill:#4c4c4c;fill-opacity:1;fill-rule:nonzero;stroke:none"
           d="m 114,72 -2,0 0,20 2,0 0,-20 z" /><path
           id="path90"
           style="fill:#4c4c4c;fill-opacity:1;fill-rule:nonzero;stroke:none"
           d="m 118,72 -2,0 0,20 2,0 0,-20 z" /><path
           id="path92"
           style="fill:#4c4c4c;fill-opacity:1;fill-rule:nonzero;stroke:none"
           d="m 122,72 -2,0 0,20 2,0 0,-20 z" /><path
           id="path94"
           style="fill:#4c4c4c;fill-opacity:1;fill-rule:nonzero;stroke:none"
           d="m 126,72 -2,0 0,20 2,0 0,-20 z" /><path
           id="path96"
           style="fill:#4c4c4c;fill-opacity:1;fill-rule:nonzero;stroke:none"
           d="m 130,72 -2,0 0,20 2,0 0,-20 z" /><path
           id="path98"
           style="fill:#4c4c4c;fill-opacity:1;fill-rule:nonzero;stroke:none"
           d="m 134,72 -2,0 0,20 2,0 0,-20 z" /><path
           id="path100"
           style="fill:#4c4c4c;fill-opacity:1;fill-rule:nonzero;stroke:none"
           d="m 138,72 -2,0 0,20 2,0 0,-20 z" /><path
           id="path102"
           style="fill:#4c4c4c;fill-opacity:1;fill-rule:nonzero;stroke:none"
           d="m 142,72 -2,0 0,20 2,0 0,-20 z" /><path
           id="path104"
           style="fill:#4c4c4c;fill-opacity:1;fill-rule:nonzero;stroke:none"
           d="m 146,72 -2,0 0,20 2,0 0,-20 z" /><path
           id="path106"
           style="fill:#4c4c4c;fill-opacity:1;fill-rule:nonzero;stroke:none"
           d="m 150,72 -2,0 0,20 2,0 0,-20 z" /><path
           id="path108"
           style="fill:#4c4c4c;fill-opacity:1;fill-rule:nonzero;stroke:none"
           d="m 154,72 -2,0 0,20 2,0 0,-20 z" /><path
           id="path110"
           style="fill:#4c4c4c;fill-opacity:1;fill-rule:nonzero;stroke:none"
           d="m 158,72 -2,0 0,20 2,0 0,-20 z" /><path
           id="path112"
           style="fill:#4c4c4c;fill-opacity:1;fill-rule:nonzero;stroke:none"
           d="m 162,72 -2,0 0,20 2,0 0,-20 z" /><path
           id="path114"
           style="fill:#4c4c4c;fill-opacity:1;fill-rule:nonzero;stroke:none"
           d="m 166,72 -2,0 0,20 2,0 0,-20 z" /><path
           id="path116"
           style="fill:#4c4c4c;fill-opacity:1;fill-rule:nonzero;stroke:none"
           d="m 170,72 -2,0 0,20 2,0 0,-20 z" /><path
           id="path118"
           style="fill:#595959;fill-opacity:1;fill-rule:nonzero;stroke:none"
           d="m 172,160 -88,0 0,20 88,0 0,-20 z" /><path
           id="path120"
           style="fill:#4c4c4c;fill-opacity:1;fill-rule:nonzero;stroke:none"
           d="m 170,162 -84,0 0,16 84,0 0,-16 z" /><path
           id="path122"
           style="fill:#333333;fill-opacity:1;fill-rule:nonzero;stroke:none"
           d="m 170,169.5 -84,0 0,1 84,0 0,-1 z" /><path
           id="path124"
           style="fill:#4c4c4c;fill-opacity:1;fill-rule:nonzero;stroke:none"
           d="m 76,68 -56,0 0,124 56,0 0,-124 z" /><path
           id="path126"
           style="fill:#666666;fill-opacity:1;fill-rule:nonzero;stroke:none"
           d="m 72,112 -48,0 0,64 48,0 0,-64 z" /><path
           id="path128"
           style="fill:#737373;fill-opacity:1;fill-rule:nonzero;stroke:none"
           d="m 76,172 -56,0 0,16 56,0 0,-16 z" /><path
           id="path130"
           style="fill:#737373;fill-opacity:1;fill-rule:nonzero;stroke:none"
           d="m 76,72 -56,0 0,44 56,0 0,-44 z" /><path
           id="path132"
           style="fill:#d9d9d9;fill-opacity:1;fill-rule:nonzero;stroke:none"
           d="m 68,120 -40,0 0,52 40,0 0,-52 z" /><g
           transform="translate(36,168)"
           id="g134"><path
             id="path136"
             style="fill:#808080;fill-opacity:1;fill-rule:nonzero;stroke:none"
             d="m 0,0 c -2.209,0 -4,-1.791 -4,-4 0,-2.209 1.791,-4 4,-4 2.209,0 4,1.791 4,4 0,2.209 -1.791,4 -4,4 m 0,-1 c 1.654,0 3,-1.346 3,-3 0,-1.654 -1.346,-3 -3,-3 -1.654,0 -3,1.346 -3,3 0,1.654 1.346,3 3,3" /></g><g
           transform="translate(48,168)"
           id="g138"><path
             id="path140"
             style="fill:#808080;fill-opacity:1;fill-rule:nonzero;stroke:none"
             d="m 0,0 c -2.209,0 -4,-1.791 -4,-4 0,-2.209 1.791,-4 4,-4 2.209,0 4,1.791 4,4 0,2.209 -1.791,4 -4,4 m 0,-1 c 1.654,0 3,-1.346 3,-3 0,-1.654 -1.346,-3 -3,-3 -1.654,0 -3,1.346 -3,3 0,1.654 1.346,3 3,3" /></g><g
           transform="translate(60,168)"
           id="g142"><path
             id="path144"
             style="fill:#808080;fill-opacity:1;fill-rule:nonzero;stroke:none"
             d="m 0,0 c -2.209,0 -4,-1.791 -4,-4 0,-2.209 1.791,-4 4,-4 2.209,0 4,1.791 4,4 0,2.209 -1.791,4 -4,4 m 0,-1 c 1.654,0 3,-1.346 3,-3 0,-1.654 -1.346,-3 -3,-3 -1.654,0 -3,1.346 -3,3 0,1.654 1.346,3 3,3" /></g><g
           transform="translate(36,156)"
           id="g146"><path
             id="path148"
             style="fill:#808080;fill-opacity:1;fill-rule:nonzero;stroke:none"
             d="m 0,0 c -2.209,0 -4,-1.791 -4,-4 0,-2.209 1.791,-4 4,-4 2.209,0 4,1.791 4,4 0,2.209 -1.791,4 -4,4 m 0,-1 c 1.654,0 3,-1.346 3,-3 0,-1.654 -1.346,-3 -3,-3 -1.654,0 -3,1.346 -3,3 0,1.654 1.346,3 3,3" /></g><g
           transform="translate(48,156)"
           id="g150"><path
             id="path152"
             style="fill:#808080;fill-opacity:1;fill-rule:nonzero;stroke:none"
             d="m 0,0 c -2.209,0 -4,-1.791 -4,-4 0,-2.209 1.791,-4 4,-4 2.209,0 4,1.791 4,4 0,2.209 -1.791,4 -4,4 m 0,-1 c 1.654,0 3,-1.346 3,-3 0,-1.654 -1.346,-3 -3,-3 -1.654,0 -3,1.346 -3,3 0,1.654 1.346,3 3,3" /></g><g
           transform="translate(60,156)"
           id="g154"><path
             id="path156"
             style="fill:#808080;fill-opacity:1;fill-rule:nonzero;stroke:none"
             d="m 0,0 c -2.209,0 -4,-1.791 -4,-4 0,-2.209 1.791,-4 4,-4 2.209,0 4,1.791 4,4 0,2.209 -1.791,4 -4,4 m 0,-1 c 1.654,0 3,-1.346 3,-3 0,-1.654 -1.346,-3 -3,-3 -1.654,0 -3,1.346 -3,3 0,1.654 1.346,3 3,3" /></g><g
           transform="translate(36,144)"
           id="g158"><path
             id="path160"
             style="fill:#808080;fill-opacity:1;fill-rule:nonzero;stroke:none"
             d="m 0,0 c -2.209,0 -4,-1.791 -4,-4 0,-2.209 1.791,-4 4,-4 2.209,0 4,1.791 4,4 0,2.209 -1.791,4 -4,4 m 0,-1 c 1.654,0 3,-1.346 3,-3 0,-1.654 -1.346,-3 -3,-3 -1.654,0 -3,1.346 -3,3 0,1.654 1.346,3 3,3" /></g><g
           transform="translate(48,144)"
           id="g162"><path
             id="path164"
             style="fill:#808080;fill-opacity:1;fill-rule:nonzero;stroke:none"
             d="m 0,0 c -2.209,0 -4,-1.791 -4,-4 0,-2.209 1.791,-4 4,-4 2.209,0 4,1.791 4,4 0,2.209 -1.791,4 -4,4 m 0,-1 c 1.654,0 3,-1.346 3,-3 0,-1.654 -1.346,-3 -3,-3 -1.654,0 -3,1.346 -3,3 0,1.654 1.346,3 3,3" /></g><g
           transform="translate(60,144)"
           id="g166"><path
             id="path168"
             style="fill:#808080;fill-opacity:1;fill-rule:nonzero;stroke:none"
             d="m 0,0 c -2.209,0 -4,-1.791 -4,-4 0,-2.209 1.791,-4 4,-4 2.209,0 4,1.791 4,4 0,2.209 -1.791,4 -4,4 m 0,-1 c 1.654,0 3,-1.346 3,-3 0,-1.654 -1.346,-3 -3,-3 -1.654,0 -3,1.346 -3,3 0,1.654 1.346,3 3,3" /></g><g
           transform="translate(36,132)"
           id="g170"><path
             id="path172"
             style="fill:#808080;fill-opacity:1;fill-rule:nonzero;stroke:none"
             d="m 0,0 c -2.209,0 -4,-1.791 -4,-4 0,-2.209 1.791,-4 4,-4 2.209,0 4,1.791 4,4 0,2.209 -1.791,4 -4,4 m 0,-1 c 1.654,0 3,-1.346 3,-3 0,-1.654 -1.346,-3 -3,-3 -1.654,0 -3,1.346 -3,3 0,1.654 1.346,3 3,3" /></g><g
           transform="translate(48,132)"
           id="g174"><path
             id="path176"
             style="fill:#808080;fill-opacity:1;fill-rule:nonzero;stroke:none"
             d="m 0,0 c -2.209,0 -4,-1.791 -4,-4 0,-2.209 1.791,-4 4,-4 2.209,0 4,1.791 4,4 0,2.209 -1.791,4 -4,4 m 0,-1 c 1.654,0 3,-1.346 3,-3 0,-1.654 -1.346,-3 -3,-3 -1.654,0 -3,1.346 -3,3 0,1.654 1.346,3 3,3" /></g><g
           transform="translate(60,132)"
           id="g178"><path
             id="path180"
             style="fill:#808080;fill-opacity:1;fill-rule:nonzero;stroke:none"
             d="m 0,0 c -2.209,0 -4,-1.791 -4,-4 0,-2.209 1.791,-4 4,-4 2.209,0 4,1.791 4,4 0,2.209 -1.791,4 -4,4 m 0,-1 c 1.654,0 3,-1.346 3,-3 0,-1.654 -1.346,-3 -3,-3 -1.654,0 -3,1.346 -3,3 0,1.654 1.346,3 3,3" /></g><g
           transform="translate(64,92)"
           id="g182"><path
             id="path184"
             style="fill:#d9d9d9;fill-opacity:1;fill-rule:nonzero;stroke:none"
             d="m 0,0 c 0,-8.837 -7.164,-16 -16,-16 -8.836,0 -16,7.163 -16,16 0,8.837 7.164,16 16,16 C -7.164,16 0,8.837 0,0" /></g><g
           transform="translate(52,92)"
           id="g186"><path
             id="path188"
             style="fill:#595959;fill-opacity:1;fill-rule:nonzero;stroke:none"
             d="m 0,0 c 0,-2.209 -1.791,-4 -4,-4 -2.209,0 -4,1.791 -4,4 0,2.209 1.791,4 4,4 2.209,0 4,-1.791 4,-4" /></g><g
           transform="translate(50,92)"
           id="g190"><path
             id="path192"
             style="fill:#4c4c4c;fill-opacity:1;fill-rule:nonzero;stroke:none"
             d="m 0,0 c 0,-1.104 -0.896,-2 -2,-2 -1.104,0 -2,0.896 -2,2 0,1.104 0.896,2 2,2 1.104,0 2,-0.896 2,-2" /></g><path
           id="path194"
           style="fill:#d9d9d9;fill-opacity:1;fill-rule:nonzero;stroke:none"
           d="m 72,176 -48,0 0,8 48,0 0,-8 z" /><path
           id="path196"
           style="fill:#4c4c4c;fill-opacity:1;fill-rule:nonzero;stroke:none"
           d="m 236,68 -56,0 0,124 56,0 0,-124 z" /><path
           id="path198"
           style="fill:#666666;fill-opacity:1;fill-rule:nonzero;stroke:none"
           d="m 232,112 -48,0 0,64 48,0 0,-64 z" /><path
           id="path200"
           style="fill:#737373;fill-opacity:1;fill-rule:nonzero;stroke:none"
           d="m 236,172 -56,0 0,16 56,0 0,-16 z" /><path
           id="path202"
           style="fill:#737373;fill-opacity:1;fill-rule:nonzero;stroke:none"
           d="m 236,72 -56,0 0,44 56,0 0,-44 z" /><path
           id="path204"
           style="fill:#d9d9d9;fill-opacity:1;fill-rule:nonzero;stroke:none"
           d="m 228,120 -40,0 0,52 40,0 0,-52 z" /><g
           transform="translate(196,168)"
           id="g206"><path
             id="path208"
             style="fill:#808080;fill-opacity:1;fill-rule:nonzero;stroke:none"
             d="m 0,0 c -2.209,0 -4,-1.791 -4,-4 0,-2.209 1.791,-4 4,-4 2.209,0 4,1.791 4,4 0,2.209 -1.791,4 -4,4 m 0,-1 c 1.654,0 3,-1.346 3,-3 0,-1.654 -1.346,-3 -3,-3 -1.654,0 -3,1.346 -3,3 0,1.654 1.346,3 3,3" /></g><g
           transform="translate(208,168)"
           id="g210"><path
             id="path212"
             style="fill:#808080;fill-opacity:1;fill-rule:nonzero;stroke:none"
             d="m 0,0 c -2.209,0 -4,-1.791 -4,-4 0,-2.209 1.791,-4 4,-4 2.209,0 4,1.791 4,4 0,2.209 -1.791,4 -4,4 m 0,-1 c 1.654,0 3,-1.346 3,-3 0,-1.654 -1.346,-3 -3,-3 -1.654,0 -3,1.346 -3,3 0,1.654 1.346,3 3,3" /></g><g
           transform="translate(220,168)"
           id="g214"><path
             id="path216"
             style="fill:#808080;fill-opacity:1;fill-rule:nonzero;stroke:none"
             d="m 0,0 c -2.209,0 -4,-1.791 -4,-4 0,-2.209 1.791,-4 4,-4 2.209,0 4,1.791 4,4 0,2.209 -1.791,4 -4,4 m 0,-1 c 1.654,0 3,-1.346 3,-3 0,-1.654 -1.346,-3 -3,-3 -1.654,0 -3,1.346 -3,3 0,1.654 1.346,3 3,3" /></g><g
           transform="translate(196,156)"
           id="g218"><path
             id="path220"
             style="fill:#808080;fill-opacity:1;fill-rule:nonzero;stroke:none"
             d="m 0,0 c -2.209,0 -4,-1.791 -4,-4 0,-2.209 1.791,-4 4,-4 2.209,0 4,1.791 4,4 0,2.209 -1.791,4 -4,4 m 0,-1 c 1.654,0 3,-1.346 3,-3 0,-1.654 -1.346,-3 -3,-3 -1.654,0 -3,1.346 -3,3 0,1.654 1.346,3 3,3" /></g><g
           transform="translate(208,156)"
           id="g222"><path
             id="path224"
             style="fill:#808080;fill-opacity:1;fill-rule:nonzero;stroke:none"
             d="m 0,0 c -2.209,0 -4,-1.791 -4,-4 0,-2.209 1.791,-4 4,-4 2.209,0 4,1.791 4,4 0,2.209 -1.791,4 -4,4 m 0,-1 c 1.654,0 3,-1.346 3,-3 0,-1.654 -1.346,-3 -3,-3 -1.654,0 -3,1.346 -3,3 0,1.654 1.346,3 3,3" /></g><g
           transform="translate(220,156)"
           id="g226"><path
             id="path228"
             style="fill:#808080;fill-opacity:1;fill-rule:nonzero;stroke:none"
             d="m 0,0 c -2.209,0 -4,-1.791 -4,-4 0,-2.209 1.791,-4 4,-4 2.209,0 4,1.791 4,4 0,2.209 -1.791,4 -4,4 m 0,-1 c 1.654,0 3,-1.346 3,-3 0,-1.654 -1.346,-3 -3,-3 -1.654,0 -3,1.346 -3,3 0,1.654 1.346,3 3,3" /></g><g
           transform="translate(196,144)"
           id="g230"><path
             id="path232"
             style="fill:#808080;fill-opacity:1;fill-rule:nonzero;stroke:none"
             d="m 0,0 c -2.209,0 -4,-1.791 -4,-4 0,-2.209 1.791,-4 4,-4 2.209,0 4,1.791 4,4 0,2.209 -1.791,4 -4,4 m 0,-1 c 1.654,0 3,-1.346 3,-3 0,-1.654 -1.346,-3 -3,-3 -1.654,0 -3,1.346 -3,3 0,1.654 1.346,3 3,3" /></g><g
           transform="translate(208,144)"
           id="g234"><path
             id="path236"
             style="fill:#808080;fill-opacity:1;fill-rule:nonzero;stroke:none"
             d="m 0,0 c -2.209,0 -4,-1.791 -4,-4 0,-2.209 1.791,-4 4,-4 2.209,0 4,1.791 4,4 0,2.209 -1.791,4 -4,4 m 0,-1 c 1.654,0 3,-1.346 3,-3 0,-1.654 -1.346,-3 -3,-3 -1.654,0 -3,1.346 -3,3 0,1.654 1.346,3 3,3" /></g><g
           transform="translate(220,144)"
           id="g238"><path
             id="path240"
             style="fill:#808080;fill-opacity:1;fill-rule:nonzero;stroke:none"
             d="m 0,0 c -2.209,0 -4,-1.791 -4,-4 0,-2.209 1.791,-4 4,-4 2.209,0 4,1.791 4,4 0,2.209 -1.791,4 -4,4 m 0,-1 c 1.654,0 3,-1.346 3,-3 0,-1.654 -1.346,-3 -3,-3 -1.654,0 -3,1.346 -3,3 0,1.654 1.346,3 3,3" /></g><g
           transform="translate(196,132)"
           id="g242"><path
             id="path244"
             style="fill:#808080;fill-opacity:1;fill-rule:nonzero;stroke:none"
             d="m 0,0 c -2.209,0 -4,-1.791 -4,-4 0,-2.209 1.791,-4 4,-4 2.209,0 4,1.791 4,4 0,2.209 -1.791,4 -4,4 m 0,-1 c 1.654,0 3,-1.346 3,-3 0,-1.654 -1.346,-3 -3,-3 -1.654,0 -3,1.346 -3,3 0,1.654 1.346,3 3,3" /></g><g
           transform="translate(208,132)"
           id="g246"><path
             id="path248"
             style="fill:#808080;fill-opacity:1;fill-rule:nonzero;stroke:none"
             d="m 0,0 c -2.209,0 -4,-1.791 -4,-4 0,-2.209 1.791,-4 4,-4 2.209,0 4,1.791 4,4 0,2.209 -1.791,4 -4,4 m 0,-1 c 1.654,0 3,-1.346 3,-3 0,-1.654 -1.346,-3 -3,-3 -1.654,0 -3,1.346 -3,3 0,1.654 1.346,3 3,3" /></g><g
           transform="translate(220,132)"
           id="g250"><path
             id="path252"
             style="fill:#808080;fill-opacity:1;fill-rule:nonzero;stroke:none"
             d="m 0,0 c -2.209,0 -4,-1.791 -4,-4 0,-2.209 1.791,-4 4,-4 2.209,0 4,1.791 4,4 0,2.209 -1.791,4 -4,4 m 0,-1 c 1.654,0 3,-1.346 3,-3 0,-1.654 -1.346,-3 -3,-3 -1.654,0 -3,1.346 -3,3 0,1.654 1.346,3 3,3" /></g><g
           transform="translate(224,92)"
           id="g254"><path
             id="path256"
             style="fill:#d9d9d9;fill-opacity:1;fill-rule:nonzero;stroke:none"
             d="m 0,0 c 0,-8.837 -7.163,-16 -16,-16 -8.837,0 -16,7.163 -16,16 0,8.837 7.163,16 16,16 C -7.163,16 0,8.837 0,0" /></g><g
           transform="translate(212,92)"
           id="g258"><path
             id="path260"
             style="fill:#595959;fill-opacity:1;fill-rule:nonzero;stroke:none"
             d="m 0,0 c 0,-2.209 -1.791,-4 -4,-4 -2.209,0 -4,1.791 -4,4 0,2.209 1.791,4 4,4 2.209,0 4,-1.791 4,-4" /></g><g
           transform="translate(210,92)"
           id="g262"><path
             id="path264"
             style="fill:#4c4c4c;fill-opacity:1;fill-rule:nonzero;stroke:none"
             d="m 0,0 c 0,-1.104 -0.896,-2 -2,-2 -1.104,0 -2,0.896 -2,2 0,1.104 0.896,2 2,2 1.104,0 2,-0.896 2,-2" /></g><path
           id="path266"
           style="fill:#d9d9d9;fill-opacity:1;fill-rule:nonzero;stroke:none"
           d="m 232,176 -48,0 0,8 48,0 0,-8 z" /></g></g></g></svg>