<?xml version="1.0" encoding="UTF-8" standalone="no"?>
<svg
   xmlns:dc="http://purl.org/dc/elements/1.1/"
   xmlns:cc="http://creativecommons.org/ns#"
   xmlns:rdf="http://www.w3.org/1999/02/22-rdf-syntax-ns#"
   xmlns:svg="http://www.w3.org/2000/svg"
   xmlns="http://www.w3.org/2000/svg"
   viewBox="0 0 224 330.66665"
   height="330.66666"
   width="224"
   xml:space="preserve"
   id="svg2"
   version="1.1"><metadata
     id="metadata8"><rdf:RDF><cc:Work
         rdf:about=""><dc:format>image/svg+xml</dc:format><dc:type
           rdf:resource="http://purl.org/dc/dcmitype/StillImage" /></cc:Work></rdf:RDF></metadata><defs
     id="defs6"><clipPath
       id="clipPath18"
       clipPathUnits="userSpaceOnUse"><path
         id="path16"
         d="M 0,256 H 256 V 0 H 0 Z" /></clipPath><clipPath
       id="clipPath26"
       clipPathUnits="userSpaceOnUse"><path
         id="path24"
         d="M 44,252 H 212 V 4 H 44 Z" /></clipPath></defs><g
     transform="matrix(1.3333333,0,0,-1.3333333,-58.666665,335.99999)"
     id="g10"><g
       id="g12"><g
         clip-path="url(#clipPath18)"
         id="g14"><g
           id="g20"><g
             id="g22" /><g
             id="g34"><g
               style="opacity:0.5"
               id="g32"
               clip-path="url(#clipPath26)"><g
                 id="g30"
                 transform="translate(200,252)"><path
                   id="path28"
                   style="fill:#ffffff;fill-opacity:1;fill-rule:nonzero;stroke:none"
                   d="m 0,0 h -144 c -6.617,0 -12,-5.383 -12,-12 v -226 c 0,-5.514 4.486,-10 10,-10 H 2 c 5.514,0 10,4.486 10,10 V -12 C 12,-5.383 6.617,0 0,0" /></g></g></g></g><g
           transform="translate(202,12)"
           id="g36"><path
             id="path38"
             style="fill:#595959;fill-opacity:1;fill-rule:nonzero;stroke:none"
             d="m 0,0 h -148 c -1.104,0 -2,0.896 -2,2 v 226 c 0,2.209 1.791,4 4,4 H -2 c 2.209,0 4,-1.791 4,-4 V 2 C 2,0.896 1.104,0 0,0" /></g><path
           id="path40"
           style="fill:#4c4c4c;fill-opacity:1;fill-rule:nonzero;stroke:none"
           d="M 196,20 H 60 v 216 h 136 z" /><g
           transform="translate(188,24)"
           id="g42"><path
             id="path44"
             style="fill:#ffffff;fill-opacity:1;fill-rule:nonzero;stroke:none"
             d="m 0,0 h -120 c -2.2,0 -4,1.8 -4,4 v 164 c 0,2.2 1.8,4 4,4 H 0 c 2.2,0 4,-1.8 4,-4 V 4 C 4,1.8 2.2,0 0,0" /></g><g
           transform="translate(188,232)"
           id="g46"><path
             id="path48"
             style="fill:#191919;fill-opacity:1;fill-rule:nonzero;stroke:none"
             d="m 0,0 h -120 c -2.209,0 -4,-1.791 -4,-4 v -28 c 0,-2.209 1.791,-4 4,-4 H 0 c 2.209,0 4,1.791 4,4 V -4 C 4,-1.791 2.209,0 0,0" /></g><path
           id="path50"
           style="fill:#ffff00;fill-opacity:1;fill-rule:nonzero;stroke:none"
           d="M 192,196 H 64 v 8 h 128 z" /><path
           id="path52"
           style="fill:#9bc2dd;fill-opacity:1;fill-rule:nonzero;stroke:none"
           d="M 192,188 H 64 v 8 h 128 z" /></g></g></g></svg>