<?xml version="1.0" encoding="UTF-8" standalone="no"?>
<svg
   xmlns:dc="http://purl.org/dc/elements/1.1/"
   xmlns:cc="http://creativecommons.org/ns#"
   xmlns:rdf="http://www.w3.org/1999/02/22-rdf-syntax-ns#"
   xmlns:svg="http://www.w3.org/2000/svg"
   xmlns="http://www.w3.org/2000/svg"
   viewBox="0 0 320 320"
   height="320"
   width="320"
   xml:space="preserve"
   version="1.1"
   id="svg2"><metadata
     id="metadata8"><rdf:RDF><cc:Work
         rdf:about=""><dc:format>image/svg+xml</dc:format><dc:type
           rdf:resource="http://purl.org/dc/dcmitype/StillImage" /></cc:Work></rdf:RDF></metadata><defs
     id="defs6"><clipPath
       id="clipPath16"
       clipPathUnits="userSpaceOnUse"><path
         id="path18"
         d="M 0,256 256,256 256,0 0,0 0,256 Z" /></clipPath><clipPath
       id="clipPath24"
       clipPathUnits="userSpaceOnUse"><path
         id="path26"
         d="M 4,244 252,244 252,12 4,12 4,244 Z" /></clipPath><clipPath
       id="clipPath70"
       clipPathUnits="userSpaceOnUse"><path
         id="path72"
         d="M 0,256 256,256 256,0 0,0 0,256 Z" /></clipPath></defs><g
     transform="matrix(1.25,0,0,-1.25,0,320)"
     id="g10"><g
       id="g12"><g
         clip-path="url(#clipPath16)"
         id="g14"><g
           id="g20"><g
             id="g22" /><g
             id="g28"><g
               style="opacity:0.5"
               id="g30"
               clip-path="url(#clipPath24)"><path
                 id="path32"
                 style="fill:#ffffff;fill-opacity:1;fill-rule:nonzero;stroke:none"
                 d="M 252,12 4,12 4,244 252,244 252,12 Z" /></g></g></g></g></g><path
       id="path34"
       style="fill:#404040;fill-opacity:1;fill-rule:nonzero;stroke:none"
       d="m 244,20 -232,0 0,216 232,0 0,-216 z" /><path
       id="path36"
       style="fill:#333333;fill-opacity:1;fill-rule:nonzero;stroke:none"
       d="m 244,216 -232,0 0,4 232,0 0,-4 z" /><path
       id="path38"
       style="fill:#333333;fill-opacity:1;fill-rule:nonzero;stroke:none"
       d="m 244,204 -232,0 0,4 232,0 0,-4 z" /><path
       id="path40"
       style="fill:#333333;fill-opacity:1;fill-rule:nonzero;stroke:none"
       d="m 244,192 -232,0 0,4 232,0 0,-4 z" /><path
       id="path42"
       style="fill:#333333;fill-opacity:1;fill-rule:nonzero;stroke:none"
       d="m 244,180 -232,0 0,4 232,0 0,-4 z" /><path
       id="path44"
       style="fill:#333333;fill-opacity:1;fill-rule:nonzero;stroke:none"
       d="m 244,168 -232,0 0,4 232,0 0,-4 z" /><path
       id="path46"
       style="fill:#333333;fill-opacity:1;fill-rule:nonzero;stroke:none"
       d="m 244,156 -232,0 0,4 232,0 0,-4 z" /><path
       id="path48"
       style="fill:#333333;fill-opacity:1;fill-rule:nonzero;stroke:none"
       d="m 228,104 -84,0 0,20 84,0 0,-20 z" /><path
       id="path50"
       style="fill:#333333;fill-opacity:1;fill-rule:nonzero;stroke:none"
       d="m 228,20 -84,0 0,44 84,0 0,-44 z" /><path
       id="path52"
       style="fill:#333333;fill-opacity:1;fill-rule:nonzero;stroke:none"
       d="m 244,228 -232,0 0,8 232,0 0,-8 z" /><g
       transform="translate(12,20)"
       id="g54"><path
         id="path56"
         style="fill:#3d0000;fill-opacity:1;fill-rule:nonzero;stroke:none"
         d="M 0,0 8,108 8,208 0,216 0,0 Z" /></g><g
       transform="translate(244,20)"
       id="g58"><path
         id="path60"
         style="fill:#3d0000;fill-opacity:1;fill-rule:nonzero;stroke:none"
         d="m 0,0 -8,108 0,100 8,8 L 0,0 Z" /></g><path
       id="path62"
       style="fill:#191919;fill-opacity:1;fill-rule:nonzero;stroke:none"
       d="m 228,64 -84,0 0,12 84,0 0,-12 z" /><path
       id="path64"
       style="fill:#404040;fill-opacity:1;fill-rule:nonzero;stroke:none"
       d="m 216,64 -60,0 0,8 60,0 0,-8 z" /><g
       id="g66"><g
         clip-path="url(#clipPath70)"
         id="g68"><g
           transform="translate(24,120)"
           id="g74"><path
             id="path76"
             style="fill:#333333;fill-opacity:1;fill-rule:nonzero;stroke:none"
             d="m 0,0 0,-44 4,-56 104,0 0,100 c 0,2.209 -1.791,4 -4,4 L 4,4 C 1.791,4 0,2.209 0,0" /></g><path
           id="path78"
           style="fill:#404040;fill-opacity:1;fill-rule:nonzero;stroke:none"
           d="m 120,40 -12,0 0,12 12,0 0,-12 z" /><path
           id="path80"
           style="fill:#404040;fill-opacity:1;fill-rule:nonzero;stroke:none"
           d="m 104,40 -12,0 0,12 12,0 0,-12 z" /><path
           id="path82"
           style="fill:#404040;fill-opacity:1;fill-rule:nonzero;stroke:none"
           d="m 88,40 -12,0 0,12 12,0 0,-12 z" /><path
           id="path84"
           style="fill:#404040;fill-opacity:1;fill-rule:nonzero;stroke:none"
           d="m 72,40 -12,0 0,12 12,0 0,-12 z" /><path
           id="path86"
           style="fill:#404040;fill-opacity:1;fill-rule:nonzero;stroke:none"
           d="m 56,40 -12,0 0,12 12,0 0,-12 z" /><path
           id="path88"
           style="fill:#191919;fill-opacity:1;fill-rule:nonzero;stroke:none"
           d="m 216,56 -60,0 0,4 60,0 0,-4 z" /><path
           id="path90"
           style="fill:#191919;fill-opacity:1;fill-rule:nonzero;stroke:none"
           d="m 216,48 -60,0 0,4 60,0 0,-4 z" /><path
           id="path92"
           style="fill:#191919;fill-opacity:1;fill-rule:nonzero;stroke:none"
           d="m 216,40 -60,0 0,4 60,0 0,-4 z" /><path
           id="path94"
           style="fill:#191919;fill-opacity:1;fill-rule:nonzero;stroke:none"
           d="m 216,32 -60,0 0,4 60,0 0,-4 z" /><path
           id="path96"
           style="fill:#191919;fill-opacity:1;fill-rule:nonzero;stroke:none"
           d="m 216,24 -60,0 0,4 60,0 0,-4 z" /><g
           transform="translate(221.1172,88)"
           id="g98"><path
             id="path100"
             style="fill:#4c4c4c;fill-opacity:1;fill-rule:nonzero;stroke:none"
             d="m 0,0 -70.234,0 c -1.722,0 -3.25,-1.102 -3.795,-2.735 l -3.088,-9.265 84,0 -3.088,9.265 C 3.25,-1.102 1.722,0 0,0" /></g><path
           id="path102"
           style="fill:#262626;fill-opacity:1;fill-rule:nonzero;stroke:none"
           d="m 132,100 -108,0 0,-24 108,0 0,24 z" /><path
           id="path104"
           style="fill:#404040;fill-opacity:1;fill-rule:nonzero;stroke:none"
           d="m 40,40 -4,0 0,12 4,0 0,-12 z" /></g></g></g></svg>