<?xml version="1.0" encoding="UTF-8" standalone="no"?>
<svg
   xmlns:dc="http://purl.org/dc/elements/1.1/"
   xmlns:cc="http://creativecommons.org/ns#"
   xmlns:rdf="http://www.w3.org/1999/02/22-rdf-syntax-ns#"
   xmlns:svg="http://www.w3.org/2000/svg"
   xmlns="http://www.w3.org/2000/svg"
   viewBox="0 0 330.66665 234.66665"
   height="234.66666"
   width="330.66666"
   xml:space="preserve"
   id="svg2"
   version="1.1"><metadata
     id="metadata8"><rdf:RDF><cc:Work
         rdf:about=""><dc:format>image/svg+xml</dc:format><dc:type
           rdf:resource="http://purl.org/dc/dcmitype/StillImage" /></cc:Work></rdf:RDF></metadata><defs
     id="defs6"><clipPath
       id="clipPath18"
       clipPathUnits="userSpaceOnUse"><path
         id="path16"
         d="M 0,256 H 256 V 0 H 0 Z" /></clipPath><clipPath
       id="clipPath26"
       clipPathUnits="userSpaceOnUse"><path
         id="path24"
         d="M 4,216 H 252 V 40 H 4 Z" /></clipPath></defs><g
     transform="matrix(1.3333333,0,0,-1.3333333,-5.3333332,287.99999)"
     id="g10"><g
       id="g12"><g
         clip-path="url(#clipPath18)"
         id="g14"><g
           id="g20"><g
             id="g22" /><g
             id="g34"><g
               style="opacity:0.5"
               id="g32"
               clip-path="url(#clipPath26)"><g
                 id="g30"
                 transform="translate(240,208)"><path
                   id="path28"
                   style="fill:#ffffff;fill-opacity:1;fill-rule:nonzero;stroke:none"
                   d="M 0,0 H -11.234 C -17.373,1.161 -56.104,8 -116,8 -174.807,8 -206.889,1.379 -212.931,0 H -224 c -6.617,0 -12,-5.383 -12,-12 v -144 -8 h 8 8 v -4 h 8 200 8 v 4 h 8 8 v 8 144 C 12,-5.383 6.617,0 0,0" /></g></g></g></g><g
           transform="translate(124,208)"
           id="g36"><path
             id="path38"
             style="fill:#404040;fill-opacity:1;fill-rule:nonzero;stroke:none"
             d="m 0,0 c -64,0 -96,-8 -96,-8 v -4 -148 h 200 v 148 4 C 104,-8 64,0 0,0" /></g><g
           transform="translate(44,52)"
           id="g40"><path
             id="path42"
             style="fill:#4c4c4c;fill-opacity:1;fill-rule:nonzero;stroke:none"
             d="m 0,0 h -32 v 144 c 0,2.209 1.791,4 4,4 H 0 Z" /></g><g
           transform="translate(212,52)"
           id="g44"><path
             id="path46"
             style="fill:#4c4c4c;fill-opacity:1;fill-rule:nonzero;stroke:none"
             d="m 0,0 h 32 v 144 c 0,2.209 -1.791,4 -4,4 H 0 Z" /></g><path
           id="path48"
           style="fill:#4c4c4c;fill-opacity:1;fill-rule:nonzero;stroke:none"
           d="M 208,108 H 48 v 4 h 160 z" /><path
           id="path50"
           style="fill:#4c4c4c;fill-opacity:1;fill-rule:nonzero;stroke:none"
           d="M 208,100 H 48 v 4 h 160 z" /><path
           id="path52"
           style="fill:#4c4c4c;fill-opacity:1;fill-rule:nonzero;stroke:none"
           d="M 208,92 H 48 v 4 h 160 z" /><path
           id="path54"
           style="fill:#4c4c4c;fill-opacity:1;fill-rule:nonzero;stroke:none"
           d="M 208,84 H 48 v 4 h 160 z" /><path
           id="path56"
           style="fill:#4c4c4c;fill-opacity:1;fill-rule:nonzero;stroke:none"
           d="M 208,76 H 48 v 4 h 160 z" /><path
           id="path58"
           style="fill:#4c4c4c;fill-opacity:1;fill-rule:nonzero;stroke:none"
           d="M 208,68 H 48 v 4 h 160 z" /><path
           id="path60"
           style="fill:#4c4c4c;fill-opacity:1;fill-rule:nonzero;stroke:none"
           d="M 208,60 H 48 v 4 h 160 z" /><path
           id="path62"
           style="fill:#4c4c4c;fill-opacity:1;fill-rule:nonzero;stroke:none"
           d="M 208,52 H 48 v 4 h 160 z" /><path
           id="path64"
           style="fill:#2a2923;fill-opacity:1;fill-rule:nonzero;stroke:none"
           d="M 108,96 H 68 v 12 h 40 z" /><path
           id="path66"
           style="fill:#2a2923;fill-opacity:1;fill-rule:nonzero;stroke:none"
           d="m 188,96 h -40 v 12 h 40 z" /><path
           id="path68"
           style="fill:#4c4c4c;fill-opacity:1;fill-rule:nonzero;stroke:none"
           d="M 208,180 H 48 v 20 h 160 z" /><g
           transform="translate(216,116)"
           id="g70"><path
             id="path72"
             style="fill:#ffffff;fill-opacity:1;fill-rule:nonzero;stroke:none"
             d="m 0,0 h -176 c -2.209,0 -4,1.791 -4,4 v 64 c 0,2.209 1.791,4 4,4 H 0 c 2.209,0 4,-1.791 4,-4 V 4 C 4,1.791 2.209,0 0,0" /></g></g></g></g></svg>