<?xml version="1.0" encoding="utf-8"?>
<!-- Generator: Adobe Illustrator 24.1.3, SVG Export Plug-In . SVG Version: 6.00 Build 0)  -->
<svg version="1.1"
	 id="svg2" xmlns:cc="http://creativecommons.org/ns#" xmlns:dc="http://purl.org/dc/elements/1.1/" xmlns:rdf="http://www.w3.org/1999/02/22-rdf-syntax-ns#" xmlns:svg="http://www.w3.org/2000/svg"
	 xmlns="http://www.w3.org/2000/svg" xmlns:xlink="http://www.w3.org/1999/xlink" x="0px" y="0px" viewBox="0 0 256 256"
	 style="enable-background:new 0 0 256 256;" xml:space="preserve">
<style type="text/css">
	.st0{opacity:0.5;}
	.st1{fill:#FFFFFF;}
	.st2{fill:#660000;}
	.st3{fill:#100F13;}
	.st4{fill:#F39B11;}
	.st5{fill:#29678F;}
	.st6{fill:#3096CF;}
</style>
<g id="g10" transform="matrix(1.3333333,0,0,-1.3333333,0,341.33333)">
	<g id="g12" class="st0">
		<g>
			<g>
				<g id="g14">
					<g id="g20">
						<g id="g22">
						</g>
						<g id="g34">
							<g>
								<g>
									<g id="g32" class="st0">
										<g id="g30" transform="translate(190.6084,236)">
											<path id="path28" class="st1" d="M-47.7,5h-3.5h-87h-3.5l-1.7-3l-43.5-75l-1.7-3l1.7-3l43.5-75l1.7-3h3.5h87h3.5l1.7,3
												l43.5,75l1.7,3l-1.7,3L-45.9,2L-47.7,5z"/>
										</g>
									</g>
								</g>
							</g>
						</g>
					</g>
				</g>
			</g>
		</g>
	</g>
	<g id="g36" transform="translate(186,228)">
		<path id="path38" class="st2" d="M-46.5,7h-87L-177-68l43.5-75h87L-3-68L-46.5,7z"/>
	</g>
	<g>
		<path class="st3" d="M65.6,121.8h-7.5l-5,18.3l5,18.3h7.5V121.8z"/>
		<polygon class="st3" points="133.9,121.8 126.4,121.8 126.4,158.5 133.9,158.5 138.9,140.1 		"/>
		<path class="st4" d="M118.3,126.1h-4v-7.3H77.7v7.3h-3.8V153c0,2.5,2,4.3,4.3,4.3h35.9c2.3,0,4-2,4.3-4.3L118.3,126.1L118.3,126.1
			z"/>
		<path class="st5" d="M133.9,157.2v6.3c0,21.8-17.1,39.7-37.9,39.7s-37.9-18.1-37.9-39.7v-6.3l-7.3-5.3v11.6
			c0,25.9,20.3,46.7,45.2,46.7s45.2-20.8,45.2-46.7l0.3-11.6L133.9,157.2z"/>
		<path class="st1" d="M111.6,150.9H80.7c-1.3,0-2.3-1-2.3-2v-13.3c0-1.3,1-2,2.3-2h30.9c1.3,0,2.3,1,2.3,2v13.3
			C113.8,149.9,112.8,150.9,111.6,150.9z"/>
		<path class="st6" d="M58.1,121.8c-10.3,0-18.3,8.3-18.3,18.3s8.3,18.3,18.3,18.3V121.8z"/>
		<path class="st6" d="M133.9,158.5c10.3,0,18.3-8.3,18.3-18.3s-8.3-18.3-18.3-18.3V158.5z"/>
		<path class="st4" d="M99,186.6v-16.8c0-3.3-2.8-6-6-6c-3.3,0-6,2.8-6,6c0,3.3,2.8,6,6,6c1,0,2-0.3,3-0.8v16.8
			c0,0.8,0.8,1.5,1.5,1.5l0,0c3.3,0,9.8-1,9.8-12.1c0-4-2.3-5.8-2.3-5.8s-1-0.8-1.5-0.5c-0.5,0.5-0.5,1,0,1.3c0.3,0.3,1,0,1,3.8
			C104.5,184.8,101.5,186.3,99,186.6z"/>
	</g>
</g>
</svg>
