<?xml version="1.0" encoding="UTF-8" standalone="no"?>
<svg
   xmlns:dc="http://purl.org/dc/elements/1.1/"
   xmlns:cc="http://creativecommons.org/ns#"
   xmlns:rdf="http://www.w3.org/1999/02/22-rdf-syntax-ns#"
   xmlns:svg="http://www.w3.org/2000/svg"
   xmlns="http://www.w3.org/2000/svg"
   viewBox="0 0 320 320"
   height="320"
   width="320"
   xml:space="preserve"
   version="1.1"
   id="svg2"><metadata
     id="metadata8"><rdf:RDF><cc:Work
         rdf:about=""><dc:format>image/svg+xml</dc:format><dc:type
           rdf:resource="http://purl.org/dc/dcmitype/StillImage" /></cc:Work></rdf:RDF></metadata><defs
     id="defs6"><clipPath
       id="clipPath16"
       clipPathUnits="userSpaceOnUse"><path
         id="path18"
         d="M 0,256 256,256 256,0 0,0 0,256 Z" /></clipPath><clipPath
       id="clipPath24"
       clipPathUnits="userSpaceOnUse"><path
         id="path26"
         d="m 3.88715,252 248.22585,0 0,-248 -248.22585,0 0,248 z" /></clipPath></defs><g
     transform="matrix(1.25,0,0,-1.25,0,320)"
     id="g10"><g
       id="g12"><g
         clip-path="url(#clipPath16)"
         id="g14"><g
           id="g20"><g
             id="g22" /><g
             id="g28"><g
               style="opacity:0.5"
               id="g30"
               clip-path="url(#clipPath24)"><g
                 id="g32"
                 transform="translate(251.8871,146.877)"><path
                   id="path34"
                   style="fill:#ffffff;fill-opacity:1;fill-rule:nonzero;stroke:none"
                   d="m 0,0 0,89.409 c 0,6.186 -4.826,11.268 -10.916,11.686 -2.146,2.468 -5.29,4.028 -8.787,4.028 l -208.594,0 c -3.497,0 -6.641,-1.56 -8.787,-4.028 -6.09,-0.418 -10.916,-5.5 -10.916,-11.686 l 0,-96.572 c 0,-0.748 0.076,-1.498 0.226,-2.244 l 0,-121.68 c 0,-6.501 5.323,-11.79 11.866,-11.79 l 224.267,0 c 6.543,0 11.867,5.289 11.867,11.79 l 0,128.842 C 0.226,-1.498 0.15,-0.747 0,0" /></g></g></g></g><g
           transform="translate(15.7286,240)"
           id="g36"><path
             id="path38"
             style="fill:#404040;fill-opacity:1;fill-rule:nonzero;stroke:none"
             d="m 0,0 224.543,0 c 2.059,0 3.728,-1.663 3.728,-3.714 l 0,-96.572 c 0,-2.051 -1.669,-3.714 -3.728,-3.714 L 0,-104 c -2.059,0 -3.729,1.663 -3.729,3.714 l 0,96.572 C -3.729,-1.663 -2.059,0 0,0" /></g><g
           transform="translate(23.7029,244)"
           id="g40"><path
             id="path42"
             style="fill:#262626;fill-opacity:1;fill-rule:nonzero;stroke:none"
             d="m 0,0 208.594,0 c 2.045,0 3.703,-1.719 3.703,-3.84 l 0,-88.32 c 0,-2.121 -1.658,-3.84 -3.703,-3.84 L 0,-96 c -2.045,0 -3.703,1.719 -3.703,3.84 l 0,88.32 C -3.703,-1.719 -2.045,0 0,0" /></g><g
           transform="translate(23.8257,156)"
           id="g44"><path
             id="path46"
             style="fill:#333333;fill-opacity:1;fill-rule:nonzero;stroke:none"
             d="m 0,0 c -2.142,0 -3.867,-1.65 -3.867,-3.789 0,-2.14 -1.619,-3.79 -3.866,-3.79 -2.247,0 -3.867,-1.69 -3.867,-3.789 l 0,-128.843 c 0,-2.099 1.725,-3.789 3.867,-3.789 l 224.266,0 c 2.142,0 3.867,1.69 3.867,3.789 l 0,128.843 c 0,2.099 -1.716,3.789 -3.867,3.789 -2.151,0 -3.866,1.744 -3.866,3.79 0,2.045 -1.725,3.789 -3.867,3.789 L 0,0 Z" /></g><g
           transform="translate(27.6924,140.5226)"
           id="g48"><path
             id="path50"
             style="fill:#d9d9d9;fill-opacity:1;fill-rule:nonzero;stroke:none"
             d="m 0,0 201.067,0 c 4.271,0 7.733,-3.462 7.733,-7.733 l 0,-100.534 c 0,-4.271 -3.462,-7.733 -7.733,-7.733 L 0,-116 c -4.271,0 -7.733,3.462 -7.733,7.733 l 0,100.534 C -7.733,-3.462 -4.271,0 0,0" /></g><g
           transform="translate(128,228)"
           id="g52"><path
             id="path54"
             style="fill:#333333;fill-opacity:1;fill-rule:nonzero;stroke:none"
             d="m 0,0 c -0.54,0 -1.081,-0.175 -1.527,-0.526 l -19.555,-15.36 c -0.811,-0.637 -1.124,-1.707 -0.78,-2.668 0.344,-0.962 1.268,-1.606 2.307,-1.606 l 5.377,0 0,-1.44 c 0,-1.325 1.095,-2.4 2.445,-2.4 l 23.466,0 c 1.35,0 2.445,1.075 2.445,2.4 l 0,1.44 5.377,0 c 1.039,0 1.963,0.644 2.307,1.606 0.344,0.961 0.031,2.031 -0.78,2.668 L 1.527,-0.526 C 1.081,-0.175 0.54,0 0,0 m 0,-2.4 19.555,-15.36 -7.822,0 0,-3.84 -23.466,0 0,3.84 -7.822,0 L 0,-2.4" /></g></g></g></g></svg>