<?xml version="1.0" encoding="UTF-8" standalone="no"?>
<svg
   xmlns:dc="http://purl.org/dc/elements/1.1/"
   xmlns:cc="http://creativecommons.org/ns#"
   xmlns:rdf="http://www.w3.org/1999/02/22-rdf-syntax-ns#"
   xmlns:svg="http://www.w3.org/2000/svg"
   xmlns="http://www.w3.org/2000/svg"
   viewBox="0 0 202.66653 325.33267"
   height="325.33267"
   width="202.66653"
   xml:space="preserve"
   id="svg2"
   version="1.1"><metadata
     id="metadata8"><rdf:RDF><cc:Work
         rdf:about=""><dc:format>image/svg+xml</dc:format><dc:type
           rdf:resource="http://purl.org/dc/dcmitype/StillImage" /></cc:Work></rdf:RDF></metadata><defs
     id="defs6"><clipPath
       id="clipPath18"
       clipPathUnits="userSpaceOnUse"><path
         id="path16"
         d="M 0,256 H 256 V 0 H 0 Z" /></clipPath><clipPath
       id="clipPath26"
       clipPathUnits="userSpaceOnUse"><path
         id="path24"
         d="M 52,252 H 204 V 8 H 52 Z" /></clipPath></defs><g
     transform="matrix(1.3333333,0,0,-1.3333333,-69.333332,335.99999)"
     id="g10"><g
       id="g12"><g
         clip-path="url(#clipPath18)"
         id="g14"><g
           id="g20"><g
             id="g22" /><g
             id="g34"><g
               style="opacity:0.5"
               id="g32"
               clip-path="url(#clipPath26)"><g
                 id="g30"
                 transform="translate(195.6699,232.7725)"><path
                   id="path28"
                   style="fill:#ffffff;fill-opacity:1;fill-rule:nonzero;stroke:none"
                   d="m 0,0 c -2.022,6.828 -4.375,11.687 -7.19,14.855 -3.382,3.805 -6.765,4.373 -8.48,4.373 h -4 -40 -4 -4 -44 -4 c -4.19,-0.006 -10.134,-2.827 -14.714,-16.235 -4.976,-14.563 -7.983,-39.454 -8.946,-74.019 -2.671,-2.033 -4.34,-5.234 -4.34,-8.746 v -10 c 0,-3.362 1.528,-6.438 4.001,-8.477 0.04,-49.517 2.11,-84.871 6.154,-105.093 2.12,-10.596 5.422,-21.43 13.845,-21.43 h 4 48 4 4 44 4 c 8.423,0 11.726,10.834 13.845,21.43 4.084,20.423 6.155,56.278 6.155,106.57 C 8.33,-51.213 5.527,-18.654 0,0" /></g></g></g></g><g
           transform="translate(180,244)"
           id="g36"><path
             id="path38"
             style="fill:#354f9f;fill-opacity:1;fill-rule:nonzero;stroke:none"
             d="m 0,0 h -48 -4 -48 c 0,0 -16,0 -16,-108 0,-120 12,-120 12,-120 h 52 4 52 c 0,0 12,0 12,120 C 16,0 0,0 0,0" /></g><g
           transform="translate(176,244)"
           id="g40"><path
             id="path42"
             style="fill:#4b5da7;fill-opacity:1;fill-rule:nonzero;stroke:none"
             d="m 0,0 h -40 -4 -48 c 0,0 -16,0 -16,-108 0,-120 12,-120 12,-120 h 52 4 44 c 0,0 12,0 12,120 C 16,0 0,0 0,0" /></g><g
           transform="translate(176,236)"
           id="g44"><path
             id="path46"
             style="fill:#262626;fill-opacity:1;fill-rule:nonzero;stroke:none"
             d="m 0,0 h -88 c 0,0 -8,-12 -8,-108 0,-84 8,-96 8,-96 H 0 c 0,0 8,12 8,96 C 8,-12 0,0 0,0" /></g><g
           transform="translate(64,140)"
           id="g48"><path
             id="path50"
             style="fill:#e77f22;fill-opacity:1;fill-rule:nonzero;stroke:none"
             d="m 0,0 h -1 c -1.657,0 -3,1.343 -3,3 v 10 c 0,1.657 1.343,3 3,3 h 1 z" /></g><g
           transform="translate(68,160)"
           id="g52"><path
             id="path54"
             style="fill:#263979;fill-opacity:1;fill-rule:nonzero;stroke:none"
             d="M 0,0 C 0,0 4,-4 4,-12 4,-20 0,-24 0,-24 l -5.109,3.406 C -5.666,-20.223 -6,-19.598 -6,-18.93 v 13.86 c 0,0.668 0.334,1.293 0.891,1.664 z" /></g><path
           id="path56"
           style="fill:#d35400;fill-opacity:1;fill-rule:nonzero;stroke:none"
           d="M 100,68 H 88 v 16 h 12 z" /><path
           id="path58"
           style="fill:#e77f22;fill-opacity:1;fill-rule:nonzero;stroke:none"
           d="M 100,72 H 88 v 16 h 12 z" /><g
           transform="translate(144,88)"
           id="g60"><path
             id="path62"
             style="fill:#e77f22;fill-opacity:1;fill-rule:nonzero;stroke:none"
             d="m 0,0 v -12 l 4,-4 h 4 l 4,4 V 0 Z" /></g><g
           transform="translate(156,44)"
           id="g64"><path
             id="path66"
             style="fill:#e77f22;fill-opacity:1;fill-rule:nonzero;stroke:none"
             d="m 0,0 v 12 l -4,4 h -4 l -4,-4 V 0 Z" /></g><g
           transform="translate(128,60)"
           id="g68"><path
             id="path70"
             style="fill:#e77f22;fill-opacity:1;fill-rule:nonzero;stroke:none"
             d="m 0,0 h 12 l 4,4 v 4 l -4,4 H 0 Z" /></g><g
           transform="translate(172,72)"
           id="g72"><path
             id="path74"
             style="fill:#e77f22;fill-opacity:1;fill-rule:nonzero;stroke:none"
             d="m 0,0 h -12 l -4,-4 v -4 l 4,-4 H 0 Z" /></g><g
           transform="translate(122,84)"
           id="g76"><path
             id="path78"
             style="fill:#191919;fill-opacity:1;fill-rule:nonzero;stroke:none"
             d="m 0,0 h -16 c -1.1,0 -2,0.9 -2,2 0,1.1 0.9,2 2,2 H 0 C 1.1,4 2,3.1 2,2 2,0.9 1.1,0 0,0" /></g><g
           transform="translate(122,76)"
           id="g80"><path
             id="path82"
             style="fill:#191919;fill-opacity:1;fill-rule:nonzero;stroke:none"
             d="m 0,0 h -16 c -1.1,0 -2,0.9 -2,2 0,1.1 0.9,2 2,2 H 0 C 1.1,4 2,3.1 2,2 2,0.9 1.1,0 0,0" /></g><g
           transform="translate(122,68)"
           id="g84"><path
             id="path86"
             style="fill:#191919;fill-opacity:1;fill-rule:nonzero;stroke:none"
             d="m 0,0 h -16 c -1.1,0 -2,0.9 -2,2 0,1.1 0.9,2 2,2 H 0 C 1.1,4 2,3.1 2,2 2,0.9 1.1,0 0,0" /></g><g
           transform="translate(122,60)"
           id="g88"><path
             id="path90"
             style="fill:#191919;fill-opacity:1;fill-rule:nonzero;stroke:none"
             d="m 0,0 h -32 c -1.1,0 -2,0.9 -2,2 0,1.1 0.9,2 2,2 H 0 C 1.1,4 2,3.1 2,2 2,0.9 1.1,0 0,0" /></g><g
           transform="translate(122,52)"
           id="g92"><path
             id="path94"
             style="fill:#191919;fill-opacity:1;fill-rule:nonzero;stroke:none"
             d="m 0,0 h -32 c -1.1,0 -2,0.9 -2,2 0,1.1 0.9,2 2,2 H 0 C 1.1,4 2,3.1 2,2 2,0.9 1.1,0 0,0" /></g><g
           transform="translate(122,44)"
           id="g96"><path
             id="path98"
             style="fill:#191919;fill-opacity:1;fill-rule:nonzero;stroke:none"
             d="m 0,0 h -32 c -1.1,0 -2,0.9 -2,2 0,1.1 0.9,2 2,2 H 0 C 1.1,4 2,3.1 2,2 2,0.9 1.1,0 0,0" /></g><g
           transform="translate(122,36)"
           id="g100"><path
             id="path102"
             style="fill:#191919;fill-opacity:1;fill-rule:nonzero;stroke:none"
             d="m 0,0 h -32 c -1.1,0 -2,0.9 -2,2 0,1.1 0.9,2 2,2 H 0 C 1.1,4 2,3.1 2,2 2,0.9 1.1,0 0,0" /></g><path
           id="path104"
           style="fill:#191919;fill-opacity:1;fill-rule:nonzero;stroke:none"
           d="m 160,212 h -56 v 16 h 56 z" /><g
           transform="translate(164,228)"
           id="g106"><path
             id="path108"
             style="fill:#191919;fill-opacity:1;fill-rule:nonzero;stroke:none"
             d="m 0,0 v -4 h 15.102 c -0.255,1.505 -0.504,2.834 -0.744,4 z" /></g><g
           transform="translate(180.2568,216)"
           id="g110"><path
             id="path112"
             style="fill:#191919;fill-opacity:1;fill-rule:nonzero;stroke:none"
             d="M 0,0 H -16.257 V -4 H 0.467 C 0.312,-2.586 0.156,-1.257 0,0" /></g><g
           transform="translate(100,212)"
           id="g114"><path
             id="path116"
             style="fill:#191919;fill-opacity:1;fill-rule:nonzero;stroke:none"
             d="M 0,0 V 4 H -16.256 C -16.413,2.743 -16.569,1.414 -16.723,0 Z" /></g><g
           transform="translate(100,222)"
           id="g118"><path
             id="path120"
             style="fill:#191919;fill-opacity:1;fill-rule:nonzero;stroke:none"
             d="M 0,0 H -15.425 C -15.615,-1.229 -15.808,-2.558 -16,-4 H 0 Z" /></g><g
           transform="translate(164,218)"
           id="g122"><path
             id="path124"
             style="fill:#191919;fill-opacity:1;fill-rule:nonzero;stroke:none"
             d="M 0,0 H 16 C 15.808,1.442 15.615,2.771 15.425,4 H 0 Z" /></g><g
           transform="translate(100,228)"
           id="g126"><path
             id="path128"
             style="fill:#191919;fill-opacity:1;fill-rule:nonzero;stroke:none"
             d="m 0,0 h -14.359 c -0.239,-1.166 -0.488,-2.495 -0.742,-4 H 0 Z" /></g><g
           transform="translate(188,152)"
           id="g130"><path
             id="path132"
             style="fill:#191919;fill-opacity:1;fill-rule:nonzero;stroke:none"
             d="m 0,0 c 0,-30.928 -25.072,-56 -56,-56 -30.928,0 -56,25.072 -56,56 0,30.928 25.072,56 56,56 C -25.072,56 0,30.928 0,0" /></g><g
           transform="translate(180,152)"
           id="g134"><path
             id="path136"
             style="fill:#262626;fill-opacity:1;fill-rule:nonzero;stroke:none"
             d="m 0,0 c 0,-26.51 -21.49,-48 -48,-48 -26.51,0 -48,21.49 -48,48 0,26.51 21.49,48 48,48 C -21.49,48 0,26.51 0,0" /></g><g
           transform="translate(132,196)"
           id="g138"><path
             id="path140"
             style="fill:#ffff00;fill-opacity:1;fill-rule:nonzero;stroke:none"
             d="m 0,0 c -24.301,0 -44,-19.699 -44,-44 0,-24.3 19.699,-44 44,-44 24.301,0 44,19.7 44,44 C 44,-19.699 24.301,0 0,0 m 0,-2 c 23.159,0 42,-18.841 42,-42 0,-23.159 -18.841,-42 -42,-42 -23.159,0 -42,18.841 -42,42 0,23.159 18.841,42 42,42" /></g><path
           id="path142"
           style="fill:#00007b;fill-opacity:1;fill-rule:nonzero;stroke:none"
           d="m 144,170 h -24 v 20 h 24 z" /><g
           transform="translate(133,144.0698)"
           id="g144"><path
             id="path146"
             style="fill:#ffff00;fill-opacity:1;fill-rule:nonzero;stroke:none"
             d="M 0,0 C 3.616,0.452 6.479,3.313 6.931,6.93 H 4.91 C 4.486,4.423 2.506,2.445 0,2.021 Z" /></g><g
           transform="translate(133,136.0488)"
           id="g148"><path
             id="path150"
             style="fill:#ffff00;fill-opacity:1;fill-rule:nonzero;stroke:none"
             d="m 0,0 c 8.035,0.498 14.451,6.915 14.949,14.951 h -2 C 12.457,8.03 6.92,2.492 0,2 Z" /></g><g
           transform="translate(145.9492,153)"
           id="g152"><path
             id="path154"
             style="fill:#ffff00;fill-opacity:1;fill-rule:nonzero;stroke:none"
             d="M 0,0 H 2 C 1.502,8.036 -4.914,14.453 -12.949,14.951 V 12.952 C -6.029,12.459 -0.492,6.921 0,0" /></g><g
           transform="translate(133,128.0244)"
           id="g156"><path
             id="path158"
             style="fill:#ffff00;fill-opacity:1;fill-rule:nonzero;stroke:none"
             d="m 0,0 c 12.458,0.512 22.463,10.517 22.975,22.976 h -2 C 20.465,11.641 11.334,2.538 0,2.025 Z" /></g><g
           transform="translate(122.0137,180.2744)"
           id="g160"><path
             id="path162"
             style="fill:#ffff00;fill-opacity:1;fill-rule:nonzero;stroke:none"
             d="m 0,0 v 0 c 0.038,0.82 0.239,1.597 0.575,2.3 0,0 0,0 0,0 0.241,0.504 0.549,0.97 0.914,1.384 l 0.009,0.01 C 1.68,3.899 1.874,4.093 2.082,4.272 h 0.001 c 0.205,0.177 0.422,0.34 0.65,0.488 0.017,0.011 0.036,0.021 0.053,0.032 0.2,0.127 0.408,0.241 0.624,0.344 0.039,0.019 0.078,0.039 0.117,0.057 0.235,0.105 0.475,0.199 0.724,0.274 0.028,0.009 0.057,0.014 0.085,0.022 0.217,0.063 0.44,0.111 0.666,0.149 0.066,0.01 0.132,0.021 0.199,0.03 0.257,0.034 0.518,0.058 0.785,0.058 h 8 c 0.267,0 0.529,-0.024 0.786,-0.058 0.067,-0.009 0.132,-0.02 0.199,-0.03 0.226,-0.038 0.449,-0.086 0.666,-0.149 0.028,-0.008 0.056,-0.013 0.085,-0.022 0.249,-0.075 0.489,-0.169 0.723,-0.274 0.04,-0.018 0.078,-0.038 0.118,-0.057 0.215,-0.103 0.423,-0.217 0.624,-0.344 0.017,-0.011 0.036,-0.021 0.053,-0.032 0.228,-0.148 0.445,-0.311 0.65,-0.488 10e-4,0 10e-4,0 10e-4,0 0.208,-0.179 0.402,-0.373 0.584,-0.578 l 0.008,-0.01 C 18.849,3.27 19.156,2.804 19.397,2.3 v 0 c 0.336,-0.703 0.539,-1.48 0.576,-2.3 0.004,-0.092 0.013,-0.182 0.013,-0.274 0,-0.246 -0.019,-0.486 -0.048,-0.724 C 19.93,-1.066 19.918,-1.133 19.907,-1.201 19.88,-1.376 19.846,-1.55 19.803,-1.72 19.787,-1.784 19.771,-1.848 19.754,-1.911 19.693,-2.125 19.623,-2.334 19.54,-2.538 19.536,-2.546 19.534,-2.555 19.53,-2.563 19.436,-2.791 19.326,-3.01 19.206,-3.223 19.195,-3.241 19.184,-3.258 19.174,-3.276 19.062,-3.469 18.937,-3.655 18.806,-3.833 18.79,-3.854 18.774,-3.876 18.758,-3.896 17.661,-5.338 15.934,-6.274 13.986,-6.274 h -3 -2 -3 c -1.946,0 -3.675,0.936 -4.772,2.378 -0.016,0.02 -0.031,0.042 -0.047,0.063 -0.132,0.178 -0.255,0.364 -0.368,0.557 -0.01,0.018 -0.022,0.035 -0.032,0.053 -0.121,0.213 -0.23,0.432 -0.325,0.66 -0.003,0.008 -0.005,0.017 -0.009,0.025 -0.083,0.204 -0.153,0.413 -0.214,0.627 -0.018,0.063 -0.033,0.127 -0.049,0.191 -0.043,0.17 -0.077,0.344 -0.105,0.519 -0.01,0.068 -0.023,0.135 -0.031,0.203 -0.029,0.238 -0.048,0.478 -0.048,0.724 0,0.092 0.01,0.182 0.014,0.274 m -1.988,-0.78 c 0.134,-2.145 1.111,-4.056 2.606,-5.414 -8.304,-3.527 -14.217,-11.584 -14.606,-21.08 h 2 c 0.411,9.133 6.424,16.81 14.673,19.718 1.007,-0.457 2.123,-0.718 3.301,-0.718 h 8 c 1.179,0 2.294,0.261 3.302,0.718 8.249,-2.908 14.262,-10.585 14.673,-19.718 h 2 c -0.39,9.496 -6.303,17.553 -14.607,21.08 1.496,1.358 2.472,3.269 2.607,5.414 10.306,-4.506 17.609,-14.637 18,-26.494 h 2 C 41.559,-14.206 33.323,-3.12 21.792,1.461 20.999,5.044 17.808,7.726 13.986,7.726 h -8 c -3.821,0 -7.012,-2.682 -7.805,-6.265 -11.532,-4.581 -19.767,-15.667 -20.169,-28.735 h 2 c 0.391,11.857 7.694,21.988 18,26.494" /></g><g
           transform="translate(133,157.9092)"
           id="g164"><path
             id="path166"
             style="fill:#ffff00;fill-opacity:1;fill-rule:nonzero;stroke:none"
             d="M 0,0 C 2.506,-0.424 4.486,-2.402 4.91,-4.909 H 6.931 C 6.479,-1.292 3.616,1.569 0,2.021 Z" /></g><g
           transform="translate(118.0508,151)"
           id="g168"><path
             id="path170"
             style="fill:#ffff00;fill-opacity:1;fill-rule:nonzero;stroke:none"
             d="m 0,0 h -2 c 0.498,-8.036 6.915,-14.453 14.949,-14.951 v 1.999 C 6.029,-12.458 0.493,-6.921 0,0" /></g><g
           transform="translate(116.0503,153)"
           id="g172"><path
             id="path174"
             style="fill:#ffff00;fill-opacity:1;fill-rule:nonzero;stroke:none"
             d="m 0,0 h 2 c 0.493,6.921 6.029,12.458 12.95,12.952 v 1.999 C 6.915,14.453 0.499,8.036 0,0" /></g><g
           transform="translate(102.0254,151)"
           id="g176"><path
             id="path178"
             style="fill:#ffff00;fill-opacity:1;fill-rule:nonzero;stroke:none"
             d="m 0,0 h -2 c 0.519,-16.876 14.099,-30.456 30.975,-30.976 v 2 C 13.228,-28.456 0.52,-15.747 0,0" /></g><g
           transform="translate(133,122.0244)"
           id="g180"><path
             id="path182"
             style="fill:#ffff00;fill-opacity:1;fill-rule:nonzero;stroke:none"
             d="m 0,0 v -2 c 16.876,0.52 30.455,14.099 30.975,30.976 h -2 C 28.455,13.229 15.747,0.52 0,0" /></g><g
           transform="translate(124.0693,153)"
           id="g184"><path
             id="path186"
             style="fill:#ffff00;fill-opacity:1;fill-rule:nonzero;stroke:none"
             d="m 0,0 h 2.021 c 0.423,2.507 2.404,4.485 4.91,4.909 V 6.93 C 3.315,6.478 0.452,3.617 0,0" /></g><g
           transform="translate(110.0254,151)"
           id="g188"><path
             id="path190"
             style="fill:#ffff00;fill-opacity:1;fill-rule:nonzero;stroke:none"
             d="m 0,0 h -2 c 0.511,-12.458 10.516,-22.464 22.975,-22.976 v 2.025 C 9.641,-20.437 0.51,-11.334 0,0" /></g><g
           transform="translate(126.0903,151)"
           id="g192"><path
             id="path194"
             style="fill:#ffff00;fill-opacity:1;fill-rule:nonzero;stroke:none"
             d="m 0,0 h -2.021 c 0.452,-3.617 3.315,-6.478 6.931,-6.93 v 2.021 C 2.404,-4.485 0.423,-2.507 0,0" /></g><g
           transform="translate(111,28)"
           id="g196"><path
             id="path198"
             style="fill:#354f9f;fill-opacity:1;fill-rule:nonzero;stroke:none"
             d="m 0,0 h -22 c -0.552,0 -1,0.447 -1,1 0,0.553 0.448,1 1,1 H 0 C 0.552,2 1,1.553 1,1 1,0.447 0.552,0 0,0" /></g><g
           transform="translate(111,24)"
           id="g200"><path
             id="path202"
             style="fill:#354f9f;fill-opacity:1;fill-rule:nonzero;stroke:none"
             d="m 0,0 h -22 c -0.552,0 -1,0.447 -1,1 0,0.553 0.448,1 1,1 H 0 C 0.552,2 1,1.553 1,1 1,0.447 0.552,0 0,0" /></g><g
           transform="translate(111,20)"
           id="g204"><path
             id="path206"
             style="fill:#354f9f;fill-opacity:1;fill-rule:nonzero;stroke:none"
             d="m 0,0 h -22 c -0.552,0 -1,0.447 -1,1 0,0.553 0.448,1 1,1 H 0 C 0.552,2 1,1.553 1,1 1,0.447 0.552,0 0,0" /></g><g
           transform="translate(175,28)"
           id="g208"><path
             id="path210"
             style="fill:#354f9f;fill-opacity:1;fill-rule:nonzero;stroke:none"
             d="m 0,0 h -22 c -0.553,0 -1,0.447 -1,1 0,0.553 0.447,1 1,1 H 0 C 0.553,2 1,1.553 1,1 1,0.447 0.553,0 0,0" /></g><g
           transform="translate(175,24)"
           id="g212"><path
             id="path214"
             style="fill:#354f9f;fill-opacity:1;fill-rule:nonzero;stroke:none"
             d="m 0,0 h -22 c -0.553,0 -1,0.447 -1,1 0,0.553 0.447,1 1,1 H 0 C 0.553,2 1,1.553 1,1 1,0.447 0.553,0 0,0" /></g><g
           transform="translate(175,20)"
           id="g216"><path
             id="path218"
             style="fill:#354f9f;fill-opacity:1;fill-rule:nonzero;stroke:none"
             d="m 0,0 h -22 c -0.553,0 -1,0.447 -1,1 0,0.553 0.447,1 1,1 H 0 C 0.553,2 1,1.553 1,1 1,0.447 0.553,0 0,0" /></g><g
           transform="translate(147,20)"
           id="g220"><path
             id="path222"
             style="fill:#354f9f;fill-opacity:1;fill-rule:nonzero;stroke:none"
             d="m 0,0 h -30 c -0.552,0 -1,0.447 -1,1 v 8 c 0,0.553 0.448,1 1,1 H 0 C 0.553,10 1,9.553 1,9 V 1 C 1,0.447 0.553,0 0,0" /></g></g></g></g></svg>