<?xml version="1.0" encoding="UTF-8" standalone="no"?>
<svg
   xmlns:dc="http://purl.org/dc/elements/1.1/"
   xmlns:cc="http://creativecommons.org/ns#"
   xmlns:rdf="http://www.w3.org/1999/02/22-rdf-syntax-ns#"
   xmlns:svg="http://www.w3.org/2000/svg"
   xmlns="http://www.w3.org/2000/svg"
   viewBox="0 0 330.66638 181.33319"
   height="181.33319"
   width="330.66638"
   xml:space="preserve"
   id="svg2"
   version="1.1"><metadata
     id="metadata8"><rdf:RDF><cc:Work
         rdf:about=""><dc:format>image/svg+xml</dc:format><dc:type
           rdf:resource="http://purl.org/dc/dcmitype/StillImage" /></cc:Work></rdf:RDF></metadata><defs
     id="defs6"><clipPath
       id="clipPath18"
       clipPathUnits="userSpaceOnUse"><path
         id="path16"
         d="M 0,256 H 256 V 0 H 0 Z" /></clipPath><clipPath
       id="clipPath26"
       clipPathUnits="userSpaceOnUse"><path
         id="path24"
         d="M 4,196 H 252 V 60 H 4 Z" /></clipPath></defs><g
     transform="matrix(1.3333333,0,0,-1.3333333,-5.3333332,261.33333)"
     id="g10"><g
       id="g12"><g
         clip-path="url(#clipPath18)"
         id="g14"><g
           id="g20"><g
             id="g22" /><g
             id="g34"><g
               style="opacity:0.5"
               id="g32"
               clip-path="url(#clipPath26)"><g
                 id="g30"
                 transform="translate(251.9268,97.0811)"><path
                   id="path28"
                   style="fill:#ffffff;fill-opacity:1;fill-rule:nonzero;stroke:none"
                   d="m 0,0 -11.057,81.081 c -1.076,7.889 -7.891,13.838 -15.853,13.838 h -0.08 c -2.198,2.454 -5.391,4 -8.937,4 h -88 -100 c -0.111,0 -0.222,-0.002 -0.333,-0.007 -6.349,-0.265 -10.723,-3.863 -13.001,-10.697 l -1.378,-4.134 c -0.958,-2.875 -0.551,-6.044 1.081,-8.579 L -247.854,0 c -0.048,-0.358 -0.073,-0.72 -0.073,-1.081 0,-10.729 4.359,-20.244 12.273,-26.791 7.178,-5.939 17.025,-9.209 27.727,-9.209 h 168 c 10.702,0 20.549,3.27 27.727,9.209 7.915,6.547 12.273,16.062 12.273,26.791 C 0.073,-0.72 0.049,-0.358 0,0" /></g></g></g></g><g
           transform="translate(212,68)"
           id="g36"><path
             id="path38"
             style="fill:#595959;fill-opacity:1;fill-rule:nonzero;stroke:none"
             d="m 0,0 h -168 c -17.673,0 -32,10.327 -32,28 l 11.057,81.081 c 0.54,3.964 3.925,6.919 7.926,6.919 H 13.017 c 4.001,0 7.386,-2.955 7.926,-6.919 L 32,28 C 32,10.327 17.673,0 0,0" /></g><g
           transform="translate(22.2554,182.7666)"
           id="g40"><path
             id="path42"
             style="fill:#100f13;fill-opacity:1;fill-rule:nonzero;stroke:none"
             d="M 0,0 -1.378,-4.134 C -1.81,-5.429 -0.846,-6.767 0.52,-6.767 h 22.134 c 1.821,0 3.411,-1.229 3.871,-2.99 l 20.879,-80.039 c 1.379,-5.284 6.151,-8.971 11.612,-8.971 h 94.729 c 6.627,0 12,5.373 12,12 v 72 c 0,4.419 3.582,8 8,8 h 20 c 2.209,0 4,1.791 4,4 v 4 c 0,2.209 -1.791,4 -4,4 h -88 -100 C 2.426,5.095 1.05,3.15 0,0" /></g><g
           transform="translate(172,88)"
           id="g44"><path
             id="path46"
             style="fill:#999999;fill-opacity:1;fill-rule:nonzero;stroke:none"
             d="m 0,0 h -84 c -4.418,0 -8,3.582 -8,8 v 80 c 0,4.418 3.582,8 8,8 H 0 c 4.418,0 8,-3.582 8,-8 V 8 C 8,3.582 4.418,0 0,0" /></g><path
           id="path48"
           style="fill:#808080;fill-opacity:1;fill-rule:nonzero;stroke:none"
           d="m 156,104 h -52 v 60 h 52 z" /><g
           transform="translate(46,159)"
           id="g50"><path
             id="path52"
             style="fill:#191919;fill-opacity:1;fill-rule:nonzero;stroke:none"
             d="M 0,0 C 0,-0.552 0.448,-1 1,-1 1.552,-1 2,-0.552 2,0 2,0.552 1.552,1 1,1 0.448,1 0,0.552 0,0" /></g><g
           transform="translate(40,159)"
           id="g54"><path
             id="path56"
             style="fill:#191919;fill-opacity:1;fill-rule:nonzero;stroke:none"
             d="M 0,0 C 0,-0.552 0.448,-1 1,-1 1.552,-1 2,-0.552 2,0 2,0.552 1.552,1 1,1 0.448,1 0,0.552 0,0" /></g><g
           transform="translate(34,159)"
           id="g58"><path
             id="path60"
             style="fill:#191919;fill-opacity:1;fill-rule:nonzero;stroke:none"
             d="M 0,0 C 0,-0.552 0.448,-1 1,-1 1.552,-1 2,-0.552 2,0 2,0.552 1.552,1 1,1 0.448,1 0,0.552 0,0" /></g><g
           transform="translate(46,155)"
           id="g62"><path
             id="path64"
             style="fill:#191919;fill-opacity:1;fill-rule:nonzero;stroke:none"
             d="M 0,0 C 0,-0.552 0.448,-1 1,-1 1.552,-1 2,-0.552 2,0 2,0.552 1.552,1 1,1 0.448,1 0,0.552 0,0" /></g><g
           transform="translate(40,155)"
           id="g66"><path
             id="path68"
             style="fill:#191919;fill-opacity:1;fill-rule:nonzero;stroke:none"
             d="M 0,0 C 0,-0.552 0.448,-1 1,-1 1.552,-1 2,-0.552 2,0 2,0.552 1.552,1 1,1 0.448,1 0,0.552 0,0" /></g><g
           transform="translate(34,155)"
           id="g70"><path
             id="path72"
             style="fill:#191919;fill-opacity:1;fill-rule:nonzero;stroke:none"
             d="M 0,0 C 0,-0.552 0.448,-1 1,-1 1.552,-1 2,-0.552 2,0 2,0.552 1.552,1 1,1 0.448,1 0,0.552 0,0" /></g><g
           transform="translate(28,155)"
           id="g74"><path
             id="path76"
             style="fill:#191919;fill-opacity:1;fill-rule:nonzero;stroke:none"
             d="M 0,0 C 0,-0.552 0.448,-1 1,-1 1.552,-1 2,-0.552 2,0 2,0.552 1.552,1 1,1 0.448,1 0,0.552 0,0" /></g><g
           transform="translate(46,151)"
           id="g78"><path
             id="path80"
             style="fill:#191919;fill-opacity:1;fill-rule:nonzero;stroke:none"
             d="M 0,0 C 0,-0.552 0.448,-1 1,-1 1.552,-1 2,-0.552 2,0 2,0.552 1.552,1 1,1 0.448,1 0,0.552 0,0" /></g><g
           transform="translate(40,151)"
           id="g82"><path
             id="path84"
             style="fill:#191919;fill-opacity:1;fill-rule:nonzero;stroke:none"
             d="M 0,0 C 0,-0.552 0.448,-1 1,-1 1.552,-1 2,-0.552 2,0 2,0.552 1.552,1 1,1 0.448,1 0,0.552 0,0" /></g><g
           transform="translate(34,151)"
           id="g86"><path
             id="path88"
             style="fill:#191919;fill-opacity:1;fill-rule:nonzero;stroke:none"
             d="M 0,0 C 0,-0.552 0.448,-1 1,-1 1.552,-1 2,-0.552 2,0 2,0.552 1.552,1 1,1 0.448,1 0,0.552 0,0" /></g><g
           transform="translate(28,151)"
           id="g90"><path
             id="path92"
             style="fill:#191919;fill-opacity:1;fill-rule:nonzero;stroke:none"
             d="M 0,0 C 0,-0.552 0.448,-1 1,-1 1.552,-1 2,-0.552 2,0 2,0.552 1.552,1 1,1 0.448,1 0,0.552 0,0" /></g><g
           transform="translate(46,147)"
           id="g94"><path
             id="path96"
             style="fill:#191919;fill-opacity:1;fill-rule:nonzero;stroke:none"
             d="M 0,0 C 0,-0.552 0.448,-1 1,-1 1.552,-1 2,-0.552 2,0 2,0.552 1.552,1 1,1 0.448,1 0,0.552 0,0" /></g><g
           transform="translate(40,147)"
           id="g98"><path
             id="path100"
             style="fill:#191919;fill-opacity:1;fill-rule:nonzero;stroke:none"
             d="M 0,0 C 0,-0.552 0.448,-1 1,-1 1.552,-1 2,-0.552 2,0 2,0.552 1.552,1 1,1 0.448,1 0,0.552 0,0" /></g><g
           transform="translate(34,147)"
           id="g102"><path
             id="path104"
             style="fill:#191919;fill-opacity:1;fill-rule:nonzero;stroke:none"
             d="M 0,0 C 0,-0.552 0.448,-1 1,-1 1.552,-1 2,-0.552 2,0 2,0.552 1.552,1 1,1 0.448,1 0,0.552 0,0" /></g><g
           transform="translate(56,96)"
           id="g106"><path
             id="path108"
             style="fill:#999999;fill-opacity:1;fill-rule:nonzero;stroke:none"
             d="m 0,0 -7.589,2.53 2.529,7.589 -7.589,2.53 -2.53,-7.589 -7.59,2.53 -2.529,-7.59 7.589,-2.53 -2.53,-7.589 7.59,-2.53 2.53,7.589 7.589,-2.53 z" /></g><g
           transform="translate(46.1968,95.0518)"
           id="g110"><path
             id="path112"
             style="fill:#808080;fill-opacity:1;fill-rule:nonzero;stroke:none"
             d="m 0,0 c -0.524,-1.572 -2.223,-2.422 -3.794,-1.897 -1.572,0.523 -2.422,2.222 -1.898,3.793 0.524,1.573 2.223,2.422 3.795,1.898 C -0.325,3.271 0.524,1.571 0,0" /></g><g
           transform="translate(208,136)"
           id="g114"><path
             id="path116"
             style="fill:#808080;fill-opacity:1;fill-rule:nonzero;stroke:none"
             d="m 0,0 c 0,-2.209 -1.791,-4 -4,-4 -2.209,0 -4,1.791 -4,4 0,2.209 1.791,4 4,4 2.209,0 4,-1.791 4,-4" /></g><g
           transform="translate(224,140)"
           id="g118"><path
             id="path120"
             style="fill:#808080;fill-opacity:1;fill-rule:nonzero;stroke:none"
             d="m 0,0 c 0,-2.209 -1.791,-4 -4,-4 -2.209,0 -4,1.791 -4,4 0,2.209 1.791,4 4,4 2.209,0 4,-1.791 4,-4" /></g><g
           transform="translate(232,116)"
           id="g122"><path
             id="path124"
             style="fill:#404040;fill-opacity:1;fill-rule:nonzero;stroke:none"
             d="m 0,0 h -0.769 l -51.333,-44 h 1.538 L 0,-0.658 Z" /></g><g
           transform="translate(192,88)"
           id="g126"><path
             id="path128"
             style="fill:#808080;fill-opacity:1;fill-rule:nonzero;stroke:none"
             d="m 0,0 c 0,-4.418 3.582,-8 8,-8 4.418,0 8,3.582 8,8 C 16,4.418 12.418,8 8,8 3.582,8 0,4.418 0,0" /></g><g
           transform="translate(216,104)"
           id="g130"><path
             id="path132"
             style="fill:#808080;fill-opacity:1;fill-rule:nonzero;stroke:none"
             d="m 0,0 c 0,-4.418 3.582,-8 8,-8 4.418,0 8,3.582 8,8 C 16,4.418 12.418,8 8,8 3.582,8 0,4.418 0,0" /></g><g
           transform="translate(72.0313,72)"
           id="g134"><path
             id="path136"
             style="fill:#404040;fill-opacity:1;fill-rule:nonzero;stroke:none"
             d="m 0,0 c -1.94,15.556 -7.479,27.273 -16.522,34.846 -12.489,10.46 -27.41,9.106 -27.559,9.088 l 0.1,-0.995 c 0.145,0.014 14.647,1.332 26.817,-8.86 C -8.346,26.694 -2.929,15.234 -1.008,0 Z" /></g></g></g></g></svg>