<?xml version="1.0" encoding="UTF-8" standalone="no"?>
<svg
   xmlns:dc="http://purl.org/dc/elements/1.1/"
   xmlns:cc="http://creativecommons.org/ns#"
   xmlns:rdf="http://www.w3.org/1999/02/22-rdf-syntax-ns#"
   xmlns:svg="http://www.w3.org/2000/svg"
   xmlns="http://www.w3.org/2000/svg"
   viewBox="0 0 330.66665 234.66612"
   height="234.66612"
   width="330.66666"
   xml:space="preserve"
   id="svg2"
   version="1.1"><metadata
     id="metadata8"><rdf:RDF><cc:Work
         rdf:about=""><dc:format>image/svg+xml</dc:format><dc:type
           rdf:resource="http://purl.org/dc/dcmitype/StillImage" /></cc:Work></rdf:RDF></metadata><defs
     id="defs6"><clipPath
       id="clipPath18"
       clipPathUnits="userSpaceOnUse"><path
         id="path16"
         d="M 0,256 H 256 V 0 H 0 Z" /></clipPath><clipPath
       id="clipPath26"
       clipPathUnits="userSpaceOnUse"><path
         id="path24"
         d="M 4,216 H 252 V 40 H 4 Z" /></clipPath></defs><g
     transform="matrix(1.3333333,0,0,-1.3333333,-5.3333332,287.99946)"
     id="g10"><g
       id="g12"><g
         clip-path="url(#clipPath18)"
         id="g14"><g
           id="g20"><g
             id="g22" /><g
             id="g34"><g
               style="opacity:0.39999402"
               id="g32"
               clip-path="url(#clipPath26)"><g
                 id="g30"
                 transform="translate(251.4648,72.8496)"><path
                   id="path28"
                   style="fill:#ffffff;fill-opacity:1;fill-rule:nonzero;stroke:none"
                   d="m 0,0 -27.175,70.664 v 28.42 2.451 25.858 2.451 c 0,0.781 -0.114,1.547 -0.331,2.278 -0.496,6.164 -5.671,11.028 -11.961,11.028 h -135.998 -2 -58 c -6.617,0 -12,-5.383 -12,-12 V 50.703 48.252 22.395 19.943 -8.85 c 0,-6.617 5.383,-12 12,-12 h 58 2 101.154 l 2.643,-6.871 c 0.763,-1.984 2.283,-3.582 4.227,-4.443 1.03,-0.456 2.134,-0.686 3.24,-0.686 0.979,0 1.959,0.18 2.889,0.54 l 56.735,21.979 C -0.464,-8.737 1.583,-4.116 0,0" /></g></g></g></g><g
           transform="translate(212,60)"
           id="g36"><path
             id="path38"
             style="fill:#f2f2f2;fill-opacity:1;fill-rule:nonzero;stroke:none"
             d="m 0,0 h -196 c -2.209,0 -4,1.791 -4,4 v 140 c 0,2.209 1.791,4 4,4 H 0 c 2.209,0 4,-1.791 4,-4 V 4 C 4,1.791 2.209,0 0,0" /></g><g
           transform="translate(188,191.9185)"
           id="g40"><path
             id="path42"
             style="fill:#cccccc;fill-opacity:1;fill-rule:nonzero;stroke:none"
             d="M 0,0 28.292,-52.266 V 8.323 Z" /></g><path
           id="path44"
           style="fill:#d9d9d9;fill-opacity:1;fill-rule:nonzero;stroke:none"
           d="m 76,60 h -2 v 148 h 2 z" /><g
           transform="translate(216.292,202.6929)"
           id="g46"><path
             id="path48"
             style="fill:#d9d9d9;fill-opacity:1;fill-rule:nonzero;stroke:none"
             d="m 0,0 -204.292,-79.14 v -2.451 L 0,-2.451 Z" /></g><g
           transform="translate(216.292,174.3848)"
           id="g50"><path
             id="path52"
             style="fill:#d9d9d9;fill-opacity:1;fill-rule:nonzero;stroke:none"
             d="m 0,0 -204.292,-79.141 v -2.451 L 0,-2.451 Z" /></g><g
           transform="translate(244,69.9785)"
           id="g54"><path
             id="path56"
             style="fill:#e6e6e6;fill-opacity:1;fill-rule:nonzero;stroke:none"
             d="m 0,0 -56.734,-21.979 -47.193,122.716 56.735,21.978 z" /></g><g
           transform="translate(196.2637,161.9419)"
           id="g58"><path
             id="path60"
             style="fill:#9bc2dd;fill-opacity:1;fill-rule:nonzero;stroke:none"
             d="M 0,0 -32.046,-12.415 -44.063,-10.228 -52.03,7.929 -2.12,27.264 4.567,9.875 Z" /></g><g
           transform="translate(202.6104,121.96)"
           id="g62"><path
             id="path64"
             style="fill:#d9d9d9;fill-opacity:1;fill-rule:nonzero;stroke:none"
             d="m 0,0 -18.685,-7.238 c -6.182,-2.395 -9.27,-9.391 -6.884,-15.595 2.386,-6.205 9.356,-9.304 15.539,-6.909 l 18.684,7.238 c 6.182,2.395 9.271,9.391 6.884,15.595 C 13.152,-0.704 6.182,2.396 0,0" /></g><g
           transform="translate(195.7266,106.3652)"
           id="g66"><path
             id="path68"
             style="fill:#9bc2dd;fill-opacity:1;fill-rule:nonzero;stroke:none"
             d="m 0,0 c 1.593,-4.144 -0.462,-8.798 -4.589,-10.397 -4.128,-1.599 -8.765,0.463 -10.359,4.606 -1.593,4.143 0.462,8.798 4.59,10.396 C -6.231,6.205 -1.593,4.143 0,0" /></g><g
           transform="translate(214.4121,113.6035)"
           id="g70"><path
             id="path72"
             style="fill:#9bc2dd;fill-opacity:1;fill-rule:nonzero;stroke:none"
             d="m 0,0 c 1.593,-4.143 -0.462,-8.798 -4.59,-10.396 -4.128,-1.6 -8.765,0.462 -10.358,4.605 -1.594,4.144 0.461,8.798 4.589,10.397 C -6.231,6.205 -1.594,4.143 0,0" /></g><g
           transform="translate(204.2754,147.6938)"
           id="g74"><path
             id="path76"
             style="fill:#d9d9d9;fill-opacity:1;fill-rule:nonzero;stroke:none"
             d="m 0,0 c 0,-11.102 -8.968,-20.102 -20.029,-20.102 -11.062,0 -20.029,9 -20.029,20.102 0,11.102 8.967,20.102 20.029,20.102 C -8.968,20.102 0,11.102 0,0" /></g><g
           transform="translate(196.2637,147.6938)"
           id="g78"><path
             id="path80"
             style="fill:#9bc2dd;fill-opacity:1;fill-rule:nonzero;stroke:none"
             d="m 0,0 c 0,-6.661 -5.381,-12.062 -12.018,-12.062 -6.636,0 -12.016,5.401 -12.016,12.062 0,6.661 5.38,12.061 12.016,12.061 C -5.381,12.061 0,6.661 0,0" /></g><g
           transform="translate(53.688,124.3223)"
           id="g82"><path
             id="path84"
             style="fill:#d9d9d9;fill-opacity:1;fill-rule:nonzero;stroke:none"
             d="m 0,0 -18.686,-7.238 c -6.181,-2.395 -9.269,-9.391 -6.883,-15.596 2.386,-6.204 9.356,-9.304 15.538,-6.909 l 18.685,7.239 c 6.182,2.395 9.27,9.391 6.884,15.595 C 13.152,-0.705 6.182,2.395 0,0" /></g><g
           transform="translate(124.6914,151.8281)"
           id="g86"><path
             id="path88"
             style="fill:#d9d9d9;fill-opacity:1;fill-rule:nonzero;stroke:none"
             d="m 0,0 -37.371,-14.477 c -6.181,-2.395 -9.269,-9.391 -6.883,-15.595 2.386,-6.204 9.356,-9.304 15.538,-6.909 l 37.37,14.477 c 6.182,2.395 9.27,9.391 6.884,15.595 C 13.152,-0.705 6.182,2.395 0,0" /></g><g
           transform="translate(46.8037,108.7275)"
           id="g90"><path
             id="path92"
             style="fill:#9bc2dd;fill-opacity:1;fill-rule:nonzero;stroke:none"
             d="m 0,0 c 1.593,-4.144 -0.461,-8.798 -4.589,-10.397 -4.128,-1.599 -8.765,0.462 -10.359,4.606 -1.593,4.143 0.462,8.798 4.589,10.396 C -6.231,6.205 -1.593,4.143 0,0" /></g><g
           transform="translate(65.4888,115.9658)"
           id="g94"><path
             id="path96"
             style="fill:#9bc2dd;fill-opacity:1;fill-rule:nonzero;stroke:none"
             d="m 0,0 c 1.593,-4.144 -0.461,-8.798 -4.589,-10.397 -4.128,-1.599 -8.765,0.463 -10.359,4.606 -1.593,4.143 0.462,8.798 4.59,10.396 C -6.231,6.205 -1.593,4.143 0,0" /></g><g
           transform="translate(99.1221,128.9946)"
           id="g98"><path
             id="path100"
             style="fill:#9bc2dd;fill-opacity:1;fill-rule:nonzero;stroke:none"
             d="m 0,0 c 1.593,-4.143 -0.461,-8.797 -4.589,-10.397 -4.128,-1.599 -8.765,0.463 -10.359,4.606 -1.593,4.143 0.462,8.798 4.589,10.397 C -6.231,6.205 -1.593,4.143 0,0" /></g><g
           transform="translate(117.8076,136.2329)"
           id="g102"><path
             id="path104"
             style="fill:#9bc2dd;fill-opacity:1;fill-rule:nonzero;stroke:none"
             d="m 0,0 c 1.593,-4.143 -0.462,-8.798 -4.589,-10.397 -4.128,-1.599 -8.766,0.464 -10.359,4.606 -1.594,4.144 0.461,8.798 4.589,10.397 C -6.231,6.205 -1.593,4.143 0,0" /></g><g
           transform="translate(136.4922,143.4712)"
           id="g106"><path
             id="path108"
             style="fill:#9bc2dd;fill-opacity:1;fill-rule:nonzero;stroke:none"
             d="m 0,0 c 1.594,-4.143 -0.461,-8.797 -4.589,-10.396 -4.128,-1.6 -8.765,0.462 -10.359,4.605 -1.593,4.144 0.462,8.798 4.59,10.397 C -6.23,6.206 -1.593,4.143 0,0" /></g></g></g></g></svg>