<?xml version="1.0" encoding="UTF-8" standalone="no"?>
<svg
   xmlns:dc="http://purl.org/dc/elements/1.1/"
   xmlns:cc="http://creativecommons.org/ns#"
   xmlns:rdf="http://www.w3.org/1999/02/22-rdf-syntax-ns#"
   xmlns:svg="http://www.w3.org/2000/svg"
   xmlns="http://www.w3.org/2000/svg"
   viewBox="0 0 320 320"
   height="320"
   width="320"
   xml:space="preserve"
   version="1.1"
   id="svg2"><metadata
     id="metadata8"><rdf:RDF><cc:Work
         rdf:about=""><dc:format>image/svg+xml</dc:format><dc:type
           rdf:resource="http://purl.org/dc/dcmitype/StillImage" /></cc:Work></rdf:RDF></metadata><defs
     id="defs6"><clipPath
       id="clipPath16"
       clipPathUnits="userSpaceOnUse"><path
         id="path18"
         d="M 0,256 256,256 256,0 0,0 0,256 Z" /></clipPath><clipPath
       id="clipPath24"
       clipPathUnits="userSpaceOnUse"><path
         id="path26"
         d="m 88,176 80,0 0,-96 -80,0 0,96 z" /></clipPath></defs><g
     transform="matrix(1.25,0,0,-1.25,0,320)"
     id="g10"><g
       id="g12"><g
         clip-path="url(#clipPath16)"
         id="g14"><g
           id="g20"><g
             id="g22" /><g
             id="g28"><g
               style="opacity:0.5"
               id="g30"
               clip-path="url(#clipPath24)"><g
                 id="g32"
                 transform="translate(156,104)"><path
                   id="path34"
                   style="fill:#ffffff;fill-opacity:1;fill-rule:nonzero;stroke:none"
                   d="m 0,0 -12.7,0 c 0.445,1.253 0.7,2.596 0.7,4 l 0,20.008 8.012,0.004 c 3.03,0.002 5.799,1.715 7.153,4.425 1.354,2.711 1.06,5.954 -0.759,8.377 L -21.602,68.802 C -23.113,70.815 -25.483,72 -28,72 l -0.001,0 c -2.517,0 -4.887,-1.185 -6.398,-3.199 l -24,-31.988 c -1.818,-2.423 -2.112,-5.666 -0.758,-8.376 1.354,-2.711 4.123,-4.423 7.153,-4.425 l 8.012,-0.004 0,-20.008 c 0,-1.404 0.255,-2.747 0.7,-4 L -56,0 c -6.617,0 -12,-5.383 -12,-12 0,-6.617 5.383,-12 12,-12 l 56,0 c 6.617,0 12,5.383 12,12 C 12,-5.383 6.617,0 0,0" /></g></g></g></g><g
           transform="translate(120,136.004)"
           id="g36"><path
             id="path38"
             style="fill:#354f9f;fill-opacity:1;fill-rule:nonzero;stroke:none"
             d="m 0,0 0.008,0 0,-28.004 c 0,-2.212 1.788,-4 4,-4 l 7.992,0 c 2.212,0 4,1.788 4,4 L 16,0 l 0.008,0 16,0.008 L 8,31.996 -16,0.008 0,0 Z" /></g><g
           transform="translate(156,96)"
           id="g40"><path
             id="path42"
             style="fill:#808080;fill-opacity:1;fill-rule:nonzero;stroke:none"
             d="m 0,0 -56,0 c -2.212,0 -4,-1.788 -4,-4 0,-2.212 1.788,-4 4,-4 l 56,0 c 2.212,0 4,1.788 4,4 0,2.212 -1.788,4 -4,4" /></g></g></g></g></svg>