<?xml version="1.0" encoding="UTF-8" standalone="no"?>
<svg
   xmlns:dc="http://purl.org/dc/elements/1.1/"
   xmlns:cc="http://creativecommons.org/ns#"
   xmlns:rdf="http://www.w3.org/1999/02/22-rdf-syntax-ns#"
   xmlns:svg="http://www.w3.org/2000/svg"
   xmlns="http://www.w3.org/2000/svg"
   viewBox="0 0 320 320"
   height="320"
   width="320"
   xml:space="preserve"
   version="1.1"
   id="svg2"><metadata
     id="metadata8"><rdf:RDF><cc:Work
         rdf:about=""><dc:format>image/svg+xml</dc:format><dc:type
           rdf:resource="http://purl.org/dc/dcmitype/StillImage" /></cc:Work></rdf:RDF></metadata><defs
     id="defs6"><clipPath
       id="clipPath16"
       clipPathUnits="userSpaceOnUse"><path
         id="path18"
         d="M 0,256 256,256 256,0 0,0 0,256 Z" /></clipPath><clipPath
       id="clipPath24"
       clipPathUnits="userSpaceOnUse"><path
         id="path26"
         d="m 4,252 248,0 0,-248.00024 -248,0 L 4,252 Z" /></clipPath></defs><g
     transform="matrix(1.25,0,0,-1.25,0,320)"
     id="g10"><g
       id="g12"><g
         clip-path="url(#clipPath16)"
         id="g14"><g
           id="g20"><g
             id="g22" /><g
             id="g28"><g
               style="opacity:0.5"
               id="g30"
               clip-path="url(#clipPath24)"><g
                 id="g32"
                 transform="translate(248.3848,236)"><path
                   id="path34"
                   style="fill:#ffffff;fill-opacity:1;fill-rule:nonzero;stroke:none"
                   d="m 0,0 0,8 0,8 -8.013,0 -228.359,0 -8.013,0 0,-8 0,-232 0,-8 8.013,0 228.359,0 8.013,0 0,8 0,100 3.615,0 0,8 0,108 0,8 L 0,0 Z" /></g></g></g></g><g
           transform="translate(232,16)"
           id="g36"><path
             id="path38"
             style="fill:#16a085;fill-opacity:1;fill-rule:nonzero;stroke:none"
             d="M 0,0 C -2.209,0 -4,1.791 -4,4 -4,6.209 -2.209,8 0,8 2.209,8 4,6.209 4,4 4,1.791 2.209,0 0,0 m -212,216 c -2.209,0 -4,1.791 -4,4 0,2.209 1.791,4 4,4 2.209,0 4,-1.791 4,-4 0,-2.209 -1.791,-4 -4,-4 m 0,-216 c -2.209,0 -4,1.791 -4,4 0,2.209 1.791,4 4,4 2.209,0 4,-1.791 4,-4 0,-2.209 -1.791,-4 -4,-4 m -7.609,-4 228,0 0,232 -228,0 0,-232 z" /></g><path
           id="path40"
           style="fill:#1abf9f;fill-opacity:1;fill-rule:nonzero;stroke:none"
           d="m 244,120 -108,0 0,108 108,0 0,-108 z" /><path
           id="path42"
           style="fill:#595959;fill-opacity:1;fill-rule:nonzero;stroke:none"
           d="m 236,152 -76,0 0,76 76,0 0,-76 z" /><path
           id="path44"
           style="fill:#737373;fill-opacity:1;fill-rule:nonzero;stroke:none"
           d="m 208,184 -32,0 0,32 32,0 0,-32 z" /><path
           id="path46"
           style="fill:#595959;fill-opacity:1;fill-rule:nonzero;stroke:none"
           d="m 148,196 -8,0 0,24 8,0 0,-24 z" /><path
           id="path48"
           style="fill:#595959;fill-opacity:1;fill-rule:nonzero;stroke:none"
           d="m 148,168 -8,0 0,24 8,0 0,-24 z" /><path
           id="path50"
           style="fill:#e6e6e6;fill-opacity:1;fill-rule:nonzero;stroke:none"
           d="m 204,120.066 -28,0 0,4 28,0 0,-4 z" /><path
           id="path52"
           style="fill:#e6e6e6;fill-opacity:1;fill-rule:nonzero;stroke:none"
           d="m 172,120 -16,0 0,4 16,0 0,-4 z" /><path
           id="path54"
           style="fill:#e6e6e6;fill-opacity:1;fill-rule:nonzero;stroke:none"
           d="m 148,120 -8,0 0,4 8,0 0,-4 z" /><path
           id="path56"
           style="fill:#e6e6e6;fill-opacity:1;fill-rule:nonzero;stroke:none"
           d="m 236,120 -28,0 0,4 28,0 0,-4 z" /><path
           id="path58"
           style="fill:#bfbfbf;fill-opacity:1;fill-rule:nonzero;stroke:none"
           d="m 204,127.965 -28,0 0,4 28,0 0,-4 z" /><path
           id="path60"
           style="fill:#bfbfbf;fill-opacity:1;fill-rule:nonzero;stroke:none"
           d="m 172,127.965 -16,0 0,4 16,0 0,-4 z" /><path
           id="path62"
           style="fill:#bfbfbf;fill-opacity:1;fill-rule:nonzero;stroke:none"
           d="m 148,128 -8,0 0,4 8,0 0,-4 z" /><path
           id="path64"
           style="fill:#bfbfbf;fill-opacity:1;fill-rule:nonzero;stroke:none"
           d="m 236,127.965 -28,0 0,4 28,0 0,-4 z" /><path
           id="path66"
           style="fill:#bfbfbf;fill-opacity:1;fill-rule:nonzero;stroke:none"
           d="m 44,199.936 -20,0 0,8 20,0 0,-8 z" /><path
           id="path68"
           style="fill:#bfbfbf;fill-opacity:1;fill-rule:nonzero;stroke:none"
           d="m 88,199.936 -36,0 0,8 36,0 0,-8 z" /><path
           id="path70"
           style="fill:#bfbfbf;fill-opacity:1;fill-rule:nonzero;stroke:none"
           d="m 132,199.936 -36,0 0,8 36,0 0,-8 z" /><path
           id="path72"
           style="fill:#4c4c4c;fill-opacity:1;fill-rule:nonzero;stroke:none"
           d="m 204,144 -24,0 0,4 24,0 0,-4 z" /><path
           id="path74"
           style="fill:#4c4c4c;fill-opacity:1;fill-rule:nonzero;stroke:none"
           d="m 204,136 -24,0 0,4 24,0 0,-4 z" /><path
           id="path76"
           style="fill:#4c4c4c;fill-opacity:1;fill-rule:nonzero;stroke:none"
           d="m 236,144 -24,0 0,4 24,0 0,-4 z" /><path
           id="path78"
           style="fill:#4c4c4c;fill-opacity:1;fill-rule:nonzero;stroke:none"
           d="m 236,136 -24,0 0,4 24,0 0,-4 z" /><path
           id="path80"
           style="fill:#8c8c8c;fill-opacity:1;fill-rule:nonzero;stroke:none"
           d="m 158,136 -2,0 0,4 2,0 0,-4 z" /><path
           id="path82"
           style="fill:#8c8c8c;fill-opacity:1;fill-rule:nonzero;stroke:none"
           d="m 162,136 -2,0 0,4 2,0 0,-4 z" /><path
           id="path84"
           style="fill:#8c8c8c;fill-opacity:1;fill-rule:nonzero;stroke:none"
           d="m 166,136 -2,0 0,4 2,0 0,-4 z" /><path
           id="path86"
           style="fill:#8c8c8c;fill-opacity:1;fill-rule:nonzero;stroke:none"
           d="m 170,136 -2,0 0,4 2,0 0,-4 z" /><path
           id="path88"
           style="fill:#8c8c8c;fill-opacity:1;fill-rule:nonzero;stroke:none"
           d="m 174,136 -2,0 0,4 2,0 0,-4 z" /><path
           id="path90"
           style="fill:#595959;fill-opacity:1;fill-rule:nonzero;stroke:none"
           d="m 76,180 -52,0 0,16 52,0 0,-16 z" /><path
           id="path92"
           style="fill:#595959;fill-opacity:1;fill-rule:nonzero;stroke:none"
           d="m 132,180 -52,0 0,16 52,0 0,-16 z" /><path
           id="path94"
           style="fill:#595959;fill-opacity:1;fill-rule:nonzero;stroke:none"
           d="m 76,160 -52,0 0,16 52,0 0,-16 z" /><path
           id="path96"
           style="fill:#595959;fill-opacity:1;fill-rule:nonzero;stroke:none"
           d="m 132,160 -52,0 0,16 52,0 0,-16 z" /><path
           id="path98"
           style="fill:#595959;fill-opacity:1;fill-rule:nonzero;stroke:none"
           d="m 76,140 -52,0 0,16 52,0 0,-16 z" /><path
           id="path100"
           style="fill:#595959;fill-opacity:1;fill-rule:nonzero;stroke:none"
           d="m 132,140 -52,0 0,16 52,0 0,-16 z" /><path
           id="path102"
           style="fill:#595959;fill-opacity:1;fill-rule:nonzero;stroke:none"
           d="m 76,120 -52,0 0,16 52,0 0,-16 z" /><path
           id="path104"
           style="fill:#595959;fill-opacity:1;fill-rule:nonzero;stroke:none"
           d="m 132,136 -52,0 0,-16 52,0 0,16 z m -2,-14 -48,0 0,12 48,0 0,-12 z" /><path
           id="path106"
           style="fill:#595959;fill-opacity:1;fill-rule:nonzero;stroke:none"
           d="m 76,100 -52,0 0,16 52,0 0,-16 z" /><path
           id="path108"
           style="fill:#595959;fill-opacity:1;fill-rule:nonzero;stroke:none"
           d="m 132,116 -52,0 0,-16 52,0 0,16 z m -2,-14 -48,0 0,12 48,0 0,-12 z" /><path
           id="path110"
           style="fill:#595959;fill-opacity:1;fill-rule:nonzero;stroke:none"
           d="m 76,80 -52,0 0,16 52,0 0,-16 z" /><path
           id="path112"
           style="fill:#595959;fill-opacity:1;fill-rule:nonzero;stroke:none"
           d="m 132,96 -52,0 0,-16 52,0 0,16 z m -2,-14 -48,0 0,12 48,0 0,-12 z" /><path
           id="path114"
           style="fill:#595959;fill-opacity:1;fill-rule:nonzero;stroke:none"
           d="m 64,48 -36,0 0,12 36,0 0,-12 z" /><path
           id="path116"
           style="fill:#595959;fill-opacity:1;fill-rule:nonzero;stroke:none"
           d="m 108,48 -36,0 0,12 36,0 0,-12 z" /><path
           id="path118"
           style="fill:#595959;fill-opacity:1;fill-rule:nonzero;stroke:none"
           d="m 108,32 -36,0 0,12 36,0 0,-12 z" /><path
           id="path120"
           style="fill:#595959;fill-opacity:1;fill-rule:nonzero;stroke:none"
           d="m 188,92 -40,0 0,-12 40,0 0,12 z m -2,-10 -36,0 0,8 36,0 0,-8 z" /><path
           id="path122"
           style="fill:#595959;fill-opacity:1;fill-rule:nonzero;stroke:none"
           d="m 188,76 -40,0 0,-12 40,0 0,12 z m -2,-10 -36,0 0,8 36,0 0,-8 z" /><path
           id="path124"
           style="fill:#595959;fill-opacity:1;fill-rule:nonzero;stroke:none"
           d="m 188,60 -40,0 0,-12 40,0 0,12 z m -2,-10 -36,0 0,8 36,0 0,-8 z" /><path
           id="path126"
           style="fill:#595959;fill-opacity:1;fill-rule:nonzero;stroke:none"
           d="m 188,44 -40,0 0,-12 40,0 0,12 z m -2,-10 -36,0 0,8 36,0 0,-8 z" /><path
           id="path128"
           style="fill:#595959;fill-opacity:1;fill-rule:nonzero;stroke:none"
           d="m 232,92 -40,0 0,-12 40,0 0,12 z m -2,-10 -36,0 0,8 36,0 0,-8 z" /><path
           id="path130"
           style="fill:#595959;fill-opacity:1;fill-rule:nonzero;stroke:none"
           d="m 232,76 -40,0 0,-12 40,0 0,12 z m -2,-10 -36,0 0,8 36,0 0,-8 z" /><path
           id="path132"
           style="fill:#595959;fill-opacity:1;fill-rule:nonzero;stroke:none"
           d="m 232,60 -40,0 0,-12 40,0 0,12 z m -2,-10 -36,0 0,8 36,0 0,-8 z" /><path
           id="path134"
           style="fill:#595959;fill-opacity:1;fill-rule:nonzero;stroke:none"
           d="m 232,44 -40,0 0,-12 40,0 0,12 z m -2,-10 -36,0 0,8 36,0 0,-8 z" /><path
           id="path136"
           style="fill:#595959;fill-opacity:1;fill-rule:nonzero;stroke:none"
           d="m 140.292,44 -24,0 0,8 24,0 0,-8 z" /><path
           id="path138"
           style="fill:#595959;fill-opacity:1;fill-rule:nonzero;stroke:none"
           d="m 140,32 -24,0 0,8 24,0 0,-8 z" /><path
           id="path140"
           style="fill:#595959;fill-opacity:1;fill-rule:nonzero;stroke:none"
           d="m 140,20 -24,0 0,8 24,0 0,-8 z" /><path
           id="path142"
           style="fill:#595959;fill-opacity:1;fill-rule:nonzero;stroke:none"
           d="m 44,212 -20,0 0,8 20,0 0,-8 z" /><path
           id="path144"
           style="fill:#595959;fill-opacity:1;fill-rule:nonzero;stroke:none"
           d="m 64,212 -12,0 0,8 12,0 0,-8 z" /><g
           transform="translate(68,228)"
           id="g146"><path
             id="path148"
             style="fill:#bfbfbf;fill-opacity:1;fill-rule:nonzero;stroke:none"
             d="m 0,0 8,0 0,-4 -8,0 0,-4 0,-8 4,0 8,0 0,4 -8,0 0,4 4,0 4,0 0,8 0,4 L 0,4 0,0 Z" /></g><path
           id="path150"
           style="fill:#bfbfbf;fill-opacity:1;fill-rule:nonzero;stroke:none"
           d="m 92,216 -4,0 0,12 4,0 0,-12 z m -4,16 -4,0 0,-20 4,0 4,0 4,0 0,20 -4,0 -4,0 z" /><path
           id="path152"
           style="fill:#bfbfbf;fill-opacity:1;fill-rule:nonzero;stroke:none"
           d="m 112,216 -4,0 0,12 4,0 0,-12 z m -8,16 0,-4 0,-16 4,0 8,0 0,4 0,12 0,4 -12,0 z" /><path
           id="path154"
           style="fill:#bfbfbf;fill-opacity:1;fill-rule:nonzero;stroke:none"
           d="m 128,216 -4,0 0,12 4,0 0,-12 z m -8,16 0,-4 0,-16 4,0 8,0 0,4 0,12 0,4 -12,0 z" /></g></g></g></svg>