<?xml version="1.0" encoding="UTF-8" standalone="no"?>
<svg
   xmlns:dc="http://purl.org/dc/elements/1.1/"
   xmlns:cc="http://creativecommons.org/ns#"
   xmlns:rdf="http://www.w3.org/1999/02/22-rdf-syntax-ns#"
   xmlns:svg="http://www.w3.org/2000/svg"
   xmlns="http://www.w3.org/2000/svg"
   viewBox="0 0 320 320"
   height="320"
   width="320"
   xml:space="preserve"
   version="1.1"
   id="svg2"><metadata
     id="metadata8"><rdf:RDF><cc:Work
         rdf:about=""><dc:format>image/svg+xml</dc:format><dc:type
           rdf:resource="http://purl.org/dc/dcmitype/StillImage" /></cc:Work></rdf:RDF></metadata><defs
     id="defs6"><clipPath
       id="clipPath16"
       clipPathUnits="userSpaceOnUse"><path
         id="path18"
         d="M 0,256 256,256 256,0 0,0 0,256 Z" /></clipPath><clipPath
       id="clipPath24"
       clipPathUnits="userSpaceOnUse"><path
         id="path26"
         d="M 8,220 248,220 248,32 8,32 8,220 Z" /></clipPath></defs><g
     transform="matrix(1.25,0,0,-1.25,0,320)"
     id="g10"><g
       id="g12"><g
         clip-path="url(#clipPath16)"
         id="g14"><g
           id="g20"><g
             id="g22" /><g
             id="g28"><g
               style="opacity:0.5"
               id="g30"
               clip-path="url(#clipPath24)"><g
                 id="g32"
                 transform="translate(248,220)"><path
                   id="path34"
                   style="fill:#ffffff;fill-opacity:1;fill-rule:nonzero;stroke:none"
                   d="m 0,0 -8,0 -224,0 -8,0 0,-8 0,-52 0,-8 0,-20 0,-8 0,-56 0,-8 0,-20 0,-8 8,0 8,0 8,0 208,0 8,0 0,8 0,120 0,4 0,48 0,8 z" /></g></g></g></g><g
           transform="translate(234,204)"
           id="g36"><path
             id="path38"
             style="fill:#16a085;fill-opacity:1;fill-rule:nonzero;stroke:none"
             d="M 0,0 C -1.104,0 -2,0.896 -2,2 -2,3.104 -1.104,4 0,4 1.104,4 2,3.104 2,2 2,0.896 1.104,0 0,0 m 0,-160 c -1.104,0 -2,0.896 -2,2 0,1.104 0.896,2 2,2 1.104,0 2,-0.896 2,-2 0,-1.104 -0.896,-2 -2,-2 M -212,0 c -1.104,0 -2,0.896 -2,2 0,1.104 0.896,2 2,2 1.104,0 2,-0.896 2,-2 0,-1.104 -0.896,-2 -2,-2 m 0,-160 c -1.104,0 -2,0.896 -2,2 0,1.104 0.896,2 2,2 1.104,0 2,-0.896 2,-2 0,-1.104 -0.896,-2 -2,-2 m -6,168 0,-52 8,0 0,-8 -8,0 0,-20 8,0 0,-4 -8,0 0,-60 8,0 0,-8 -8,0 0,-20 8,0 8,0 208,0 0,120 0,4 0,48 -224,0 z" /></g><path
           id="path40"
           style="fill:#595959;fill-opacity:1;fill-rule:nonzero;stroke:none"
           d="m 112,196 -40,0 0,8 40,0 0,-8 z" /><path
           id="path42"
           style="fill:#595959;fill-opacity:1;fill-rule:nonzero;stroke:none"
           d="m 104,180 -36,0 0,8 36,0 0,-8 z" /><path
           id="path44"
           style="fill:#595959;fill-opacity:1;fill-rule:nonzero;stroke:none"
           d="m 136,184 -28,0 0,8 28,0 0,-8 z" /><g
           transform="translate(28,196)"
           id="g46"><path
             id="path48"
             style="fill:#595959;fill-opacity:1;fill-rule:nonzero;stroke:none"
             d="m 0,0 c 0,-2.209 -1.791,-4 -4,-4 -2.209,0 -4,1.791 -4,4 0,2.209 1.791,4 4,4 2.209,0 4,-1.791 4,-4" /></g><g
           transform="translate(28,184)"
           id="g50"><path
             id="path52"
             style="fill:#595959;fill-opacity:1;fill-rule:nonzero;stroke:none"
             d="m 0,0 c 0,-2.209 -1.791,-4 -4,-4 -2.209,0 -4,1.791 -4,4 0,2.209 1.791,4 4,4 2.209,0 4,-1.791 4,-4" /></g><g
           transform="translate(48,184)"
           id="g54"><path
             id="path56"
             style="fill:#cccccc;fill-opacity:1;fill-rule:nonzero;stroke:none"
             d="m 0,0 c 0,-2.209 -1.791,-4 -4,-4 -2.209,0 -4,1.791 -4,4 0,2.209 1.791,4 4,4 2.209,0 4,-1.791 4,-4" /></g><g
           transform="translate(48,172)"
           id="g58"><path
             id="path60"
             style="fill:#cccccc;fill-opacity:1;fill-rule:nonzero;stroke:none"
             d="m 0,0 c 0,-2.209 -1.791,-4 -4,-4 -2.209,0 -4,1.791 -4,4 0,2.209 1.791,4 4,4 2.209,0 4,-1.791 4,-4" /></g><g
           transform="translate(36,194)"
           id="g62"><path
             id="path64"
             style="fill:#595959;fill-opacity:1;fill-rule:nonzero;stroke:none"
             d="m 0,0 c 0,-1.104 -0.896,-2 -2,-2 -1.104,0 -2,0.896 -2,2 0,1.104 0.896,2 2,2 1.104,0 2,-0.896 2,-2" /></g><g
           transform="translate(44,194)"
           id="g66"><path
             id="path68"
             style="fill:#595959;fill-opacity:1;fill-rule:nonzero;stroke:none"
             d="m 0,0 c 0,-1.104 -0.896,-2 -2,-2 -1.104,0 -2,0.896 -2,2 0,1.104 0.896,2 2,2 1.104,0 2,-0.896 2,-2" /></g><g
           transform="translate(52,194)"
           id="g70"><path
             id="path72"
             style="fill:#595959;fill-opacity:1;fill-rule:nonzero;stroke:none"
             d="m 0,0 c 0,-1.104 -0.896,-2 -2,-2 -1.104,0 -2,0.896 -2,2 0,1.104 0.896,2 2,2 1.104,0 2,-0.896 2,-2" /></g><g
           transform="translate(60,198)"
           id="g74"><path
             id="path76"
             style="fill:#595959;fill-opacity:1;fill-rule:nonzero;stroke:none"
             d="m 0,0 c 0,-1.104 -0.896,-2 -2,-2 -1.104,0 -2,0.896 -2,2 0,1.104 0.896,2 2,2 1.104,0 2,-0.896 2,-2" /></g><path
           id="path78"
           style="fill:#595959;fill-opacity:1;fill-rule:nonzero;stroke:none"
           d="m 164,188 -24,0 0,4 24,0 0,-4 z" /><path
           id="path80"
           style="fill:#595959;fill-opacity:1;fill-rule:nonzero;stroke:none"
           d="m 164,176 -24,0 0,4 24,0 0,-4 z" /><path
           id="path82"
           style="fill:#595959;fill-opacity:1;fill-rule:nonzero;stroke:none"
           d="m 136,176 -24,0 0,4 24,0 0,-4 z" /><path
           id="path84"
           style="fill:#ff0000;fill-opacity:1;fill-rule:nonzero;stroke:none"
           d="m 128,168 -20,0 0,4 20,0 0,-4 z" /><path
           id="path86"
           style="fill:#ff0000;fill-opacity:1;fill-rule:nonzero;stroke:none"
           d="m 144,168 -12,0 0,4 12,0 0,-4 z" /><path
           id="path88"
           style="fill:#ff0000;fill-opacity:1;fill-rule:nonzero;stroke:none"
           d="m 164,168 -16,0 0,4 16,0 0,-4 z" /><path
           id="path90"
           style="fill:#595959;fill-opacity:1;fill-rule:nonzero;stroke:none"
           d="m 132,160 -24,0 0,4 24,0 0,-4 z" /><path
           id="path92"
           style="fill:#595959;fill-opacity:1;fill-rule:nonzero;stroke:none"
           d="m 148,160 -12,0 0,4 12,0 0,-4 z" /><path
           id="path94"
           style="fill:#595959;fill-opacity:1;fill-rule:nonzero;stroke:none"
           d="m 64,160 -16,0 0,4 16,0 0,-4 z" /><path
           id="path96"
           style="fill:#595959;fill-opacity:1;fill-rule:nonzero;stroke:none"
           d="m 44,160 -12,0 0,4 12,0 0,-4 z" /><path
           id="path98"
           style="fill:#595959;fill-opacity:1;fill-rule:nonzero;stroke:none"
           d="m 76,144 -24,0 0,8 24,0 0,-8 z" /><path
           id="path100"
           style="fill:#595959;fill-opacity:1;fill-rule:nonzero;stroke:none"
           d="m 140,136 -60,0 0,16 60,0 0,-16 z" /><path
           id="path102"
           style="fill:#595959;fill-opacity:1;fill-rule:nonzero;stroke:none"
           d="m 88,160 -16,0 0,12 16,0 0,-12 z" /><path
           id="path104"
           style="fill:#cccccc;fill-opacity:1;fill-rule:nonzero;stroke:none"
           d="m 104,160 -8,0 0,16 8,0 0,-16 z" /><path
           id="path106"
           style="fill:#595959;fill-opacity:1;fill-rule:nonzero;stroke:none"
           d="m 200,172 -20,0 0,20 20,0 0,-20 z" /><path
           id="path108"
           style="fill:#595959;fill-opacity:1;fill-rule:nonzero;stroke:none"
           d="m 200,140 -20,0 0,20 20,0 0,-20 z" /><path
           id="path110"
           style="fill:#595959;fill-opacity:1;fill-rule:nonzero;stroke:none"
           d="m 200,100 -20,0 0,20 20,0 0,-20 z" /><path
           id="path112"
           style="fill:#595959;fill-opacity:1;fill-rule:nonzero;stroke:none"
           d="m 200,68 -20,0 0,20 20,0 0,-20 z" /><path
           id="path114"
           style="fill:#595959;fill-opacity:1;fill-rule:nonzero;stroke:none"
           d="m 132,124 -32,0 0,8 32,0 0,-8 z" /><path
           id="path116"
           style="fill:#595959;fill-opacity:1;fill-rule:nonzero;stroke:none"
           d="m 164,124 -28,0 0,8 28,0 0,-8 z" /><path
           id="path118"
           style="fill:#595959;fill-opacity:1;fill-rule:nonzero;stroke:none"
           d="m 132,112 -32,0 0,8 32,0 0,-8 z" /><path
           id="path120"
           style="fill:#595959;fill-opacity:1;fill-rule:nonzero;stroke:none"
           d="m 164,112 -28,0 0,8 28,0 0,-8 z" /><path
           id="path122"
           style="fill:#595959;fill-opacity:1;fill-rule:nonzero;stroke:none"
           d="m 132,96 -28,0 0,8 28,0 0,-8 z" /><path
           id="path124"
           style="fill:#595959;fill-opacity:1;fill-rule:nonzero;stroke:none"
           d="m 164,96 -28,0 0,8 28,0 0,-8 z" /><path
           id="path126"
           style="fill:#595959;fill-opacity:1;fill-rule:nonzero;stroke:none"
           d="m 220,84 -8,0 0,36 8,0 0,-36 z" /><path
           id="path128"
           style="fill:#595959;fill-opacity:1;fill-rule:nonzero;stroke:none"
           d="m 220,68 -8,0 0,12 8,0 0,-12 z" /><path
           id="path130"
           style="fill:#595959;fill-opacity:1;fill-rule:nonzero;stroke:none"
           d="m 232,124 -8,0 0,36 8,0 0,-36 z" /><path
           id="path132"
           style="fill:#595959;fill-opacity:1;fill-rule:nonzero;stroke:none"
           d="m 232,164 -8,0 0,36 8,0 0,-36 z" /><path
           id="path134"
           style="fill:#595959;fill-opacity:1;fill-rule:nonzero;stroke:none"
           d="m 208,200 -16,0 0,4 16,0 0,-4 z" /><path
           id="path136"
           style="fill:#595959;fill-opacity:1;fill-rule:nonzero;stroke:none"
           d="m 56,120 -20,0 0,8 20,0 0,-8 z" /><path
           id="path138"
           style="fill:#595959;fill-opacity:1;fill-rule:nonzero;stroke:none"
           d="m 56,96 -20,0 0,8 20,0 0,-8 z" /><path
           id="path140"
           style="fill:#595959;fill-opacity:1;fill-rule:nonzero;stroke:none"
           d="m 56,64 -20,0 0,8 20,0 0,-8 z" /><path
           id="path142"
           style="fill:#cccccc;fill-opacity:1;fill-rule:nonzero;stroke:none"
           d="m 56,52 -28,0 0,4 28,0 0,-4 z" /><path
           id="path144"
           style="fill:#cccccc;fill-opacity:1;fill-rule:nonzero;stroke:none"
           d="m 56,44 -28,0 0,4 28,0 0,-4 z" /><path
           id="path146"
           style="fill:#595959;fill-opacity:1;fill-rule:nonzero;stroke:none"
           d="m 76,128 -16,0 0,4 16,0 0,-4 z" /><path
           id="path148"
           style="fill:#595959;fill-opacity:1;fill-rule:nonzero;stroke:none"
           d="m 96,128 -16,0 0,4 16,0 0,-4 z" /><path
           id="path150"
           style="fill:#595959;fill-opacity:1;fill-rule:nonzero;stroke:none"
           d="m 76,120 -16,0 0,4 16,0 0,-4 z" /><path
           id="path152"
           style="fill:#595959;fill-opacity:1;fill-rule:nonzero;stroke:none"
           d="m 96,120 -16,0 0,4 16,0 0,-4 z" /><path
           id="path154"
           style="fill:#595959;fill-opacity:1;fill-rule:nonzero;stroke:none"
           d="m 76,112 -16,0 0,4 16,0 0,-4 z" /><path
           id="path156"
           style="fill:#595959;fill-opacity:1;fill-rule:nonzero;stroke:none"
           d="m 96,112 -16,0 0,4 16,0 0,-4 z" /><path
           id="path158"
           style="fill:#595959;fill-opacity:1;fill-rule:nonzero;stroke:none"
           d="m 76,104 -16,0 0,4 16,0 0,-4 z" /><path
           id="path160"
           style="fill:#595959;fill-opacity:1;fill-rule:nonzero;stroke:none"
           d="m 96,104 -16,0 0,4 16,0 0,-4 z" /><path
           id="path162"
           style="fill:#595959;fill-opacity:1;fill-rule:nonzero;stroke:none"
           d="m 76,96 -16,0 0,4 16,0 0,-4 z" /><path
           id="path164"
           style="fill:#595959;fill-opacity:1;fill-rule:nonzero;stroke:none"
           d="m 96,96 -16,0 0,4 16,0 0,-4 z" /><path
           id="path166"
           style="fill:#595959;fill-opacity:1;fill-rule:nonzero;stroke:none"
           d="m 76,88 -16,0 0,4 16,0 0,-4 z" /><path
           id="path168"
           style="fill:#595959;fill-opacity:1;fill-rule:nonzero;stroke:none"
           d="m 104,88 -24,0 0,4 24,0 0,-4 z" /><path
           id="path170"
           style="fill:#595959;fill-opacity:1;fill-rule:nonzero;stroke:none"
           d="m 76,80 -16,0 0,4 16,0 0,-4 z" /><path
           id="path172"
           style="fill:#595959;fill-opacity:1;fill-rule:nonzero;stroke:none"
           d="m 76,72 -16,0 0,4 16,0 0,-4 z" /><path
           id="path174"
           style="fill:#595959;fill-opacity:1;fill-rule:nonzero;stroke:none"
           d="m 76,64 -16,0 0,4 16,0 0,-4 z" /><path
           id="path176"
           style="fill:#ff0000;fill-opacity:1;fill-rule:nonzero;stroke:none"
           d="m 76,56 -16,0 0,4 16,0 0,-4 z" /><path
           id="path178"
           style="fill:#595959;fill-opacity:1;fill-rule:nonzero;stroke:none"
           d="m 76,48 -16,0 0,4 16,0 0,-4 z" /><path
           id="path180"
           style="fill:#595959;fill-opacity:1;fill-rule:nonzero;stroke:none"
           d="m 96,72 -16,0 0,4 16,0 0,-4 z" /><path
           id="path182"
           style="fill:#595959;fill-opacity:1;fill-rule:nonzero;stroke:none"
           d="m 96,64 -16,0 0,4 16,0 0,-4 z" /><path
           id="path184"
           style="fill:#ff0000;fill-opacity:1;fill-rule:nonzero;stroke:none"
           d="m 96,56 -16,0 0,4 16,0 0,-4 z" /><path
           id="path186"
           style="fill:#595959;fill-opacity:1;fill-rule:nonzero;stroke:none"
           d="m 96,48 -16,0 0,4 16,0 0,-4 z" /><path
           id="path188"
           style="fill:#595959;fill-opacity:1;fill-rule:nonzero;stroke:none"
           d="m 112,72 -12,0 0,4 12,0 0,-4 z" /><path
           id="path190"
           style="fill:#595959;fill-opacity:1;fill-rule:nonzero;stroke:none"
           d="m 112,64 -12,0 0,4 12,0 0,-4 z" /><path
           id="path192"
           style="fill:#ff0000;fill-opacity:1;fill-rule:nonzero;stroke:none"
           d="m 112,56 -12,0 0,4 12,0 0,-4 z" /><path
           id="path194"
           style="fill:#595959;fill-opacity:1;fill-rule:nonzero;stroke:none"
           d="m 112,48 -12,0 0,4 12,0 0,-4 z" /><path
           id="path196"
           style="fill:#595959;fill-opacity:1;fill-rule:nonzero;stroke:none"
           d="m 132,72 -12,0 0,4 12,0 0,-4 z" /><path
           id="path198"
           style="fill:#595959;fill-opacity:1;fill-rule:nonzero;stroke:none"
           d="m 132,64 -12,0 0,4 12,0 0,-4 z" /><path
           id="path200"
           style="fill:#ff0000;fill-opacity:1;fill-rule:nonzero;stroke:none"
           d="m 132,56 -12,0 0,4 12,0 0,-4 z" /><path
           id="path202"
           style="fill:#595959;fill-opacity:1;fill-rule:nonzero;stroke:none"
           d="m 132,48 -12,0 0,4 12,0 0,-4 z" /><path
           id="path204"
           style="fill:#595959;fill-opacity:1;fill-rule:nonzero;stroke:none"
           d="m 104,80 -24,0 0,4 24,0 0,-4 z" /><path
           id="path206"
           style="fill:#595959;fill-opacity:1;fill-rule:nonzero;stroke:none"
           d="m 124,88 -16,0 0,4 16,0 0,-4 z" /><path
           id="path208"
           style="fill:#595959;fill-opacity:1;fill-rule:nonzero;stroke:none"
           d="m 124,80 -16,0 0,4 16,0 0,-4 z" /><path
           id="path210"
           style="fill:#595959;fill-opacity:1;fill-rule:nonzero;stroke:none"
           d="m 148,88 -16,0 0,4 16,0 0,-4 z" /><path
           id="path212"
           style="fill:#595959;fill-opacity:1;fill-rule:nonzero;stroke:none"
           d="m 148,80 -16,0 0,4 16,0 0,-4 z" /><path
           id="path214"
           style="fill:#595959;fill-opacity:1;fill-rule:nonzero;stroke:none"
           d="m 168,88 -16,0 0,4 16,0 0,-4 z" /><path
           id="path216"
           style="fill:#595959;fill-opacity:1;fill-rule:nonzero;stroke:none"
           d="m 168,68 -16,0 0,12 16,0 0,-12 z" /><path
           id="path218"
           style="fill:#cccccc;fill-opacity:1;fill-rule:nonzero;stroke:none"
           d="m 148,64 -12,0 0,8 12,0 0,-8 z" /><path
           id="path220"
           style="fill:#cccccc;fill-opacity:1;fill-rule:nonzero;stroke:none"
           d="m 148,48 -12,0 0,8 12,0 0,-8 z" /><g
           transform="translate(164,60)"
           id="g222"><path
             id="path224"
             style="fill:#ff0000;fill-opacity:1;fill-rule:nonzero;stroke:none"
             d="m 0,0 8,0 0,-4 -8,0 0,-4 0,-8 4,0 8,0 0,4 -8,0 0,4 4,0 4,0 0,8 0,4 L 0,4 0,0 Z" /></g><path
           id="path226"
           style="fill:#ff0000;fill-opacity:1;fill-rule:nonzero;stroke:none"
           d="m 188,48 -4,0 0,12 4,0 0,-12 z m -4,16 -4,0 0,-20 4,0 4,0 4,0 0,20 -4,0 -4,0 z" /><path
           id="path228"
           style="fill:#ff0000;fill-opacity:1;fill-rule:nonzero;stroke:none"
           d="m 224,48 -4,0 0,12 4,0 0,-12 z m -8,16 0,-4 0,-16 4,0 8,0 0,4 0,12 0,4 -12,0 z" /><g
           transform="translate(208,48)"
           id="g230"><path
             id="path232"
             style="fill:#ff0000;fill-opacity:1;fill-rule:nonzero;stroke:none"
             d="m 0,0 0,12 0,4 -4,0 -4,0 0,-4 4,0 0,-12 -4,0 0,-4 4,0 4,0 4,0 0,4 -4,0 z" /></g><path
           id="path234"
           style="fill:#595959;fill-opacity:1;fill-rule:nonzero;stroke:none"
           d="m 160,48 -8,0 0,16 8,0 0,-16 z" /><path
           id="path236"
           style="fill:#595959;fill-opacity:1;fill-rule:nonzero;stroke:none"
           d="m 52,80 -16,0 0,8 16,0 0,-8 z" /><path
           id="path238"
           style="fill:#595959;fill-opacity:1;fill-rule:nonzero;stroke:none"
           d="m 52,108 -16,0 0,8 16,0 0,-8 z" /><g
           transform="translate(40,148)"
           id="g240"><path
             id="path242"
             style="fill:#ff0000;fill-opacity:1;fill-rule:nonzero;stroke:none"
             d="m 0,0 c 0,-2.209 -1.791,-4 -4,-4 -2.209,0 -4,1.791 -4,4 0,2.209 1.791,4 4,4 2.209,0 4,-1.791 4,-4" /></g><path
           id="path244"
           style="fill:#0e6654;fill-opacity:1;fill-rule:nonzero;stroke:none"
           d="m 220,164 -8,0 0,36 8,0 0,-36 z" /><path
           id="path246"
           style="fill:#0e6654;fill-opacity:1;fill-rule:nonzero;stroke:none"
           d="m 220,124 -8,0 0,36 8,0 0,-36 z" /><path
           id="path248"
           style="fill:#0e6654;fill-opacity:1;fill-rule:nonzero;stroke:none"
           d="m 232,84 -8,0 0,36 8,0 0,-36 z" /><path
           id="path250"
           style="fill:#0e6654;fill-opacity:1;fill-rule:nonzero;stroke:none"
           d="m 232,68 -8,0 0,12 8,0 0,-12 z" /><path
           id="path252"
           style="fill:#cccccc;fill-opacity:1;fill-rule:nonzero;stroke:none"
           d="m 168,136 -20,0 0,16 20,0 0,-16 z" /><path
           id="path254"
           style="fill:#bf9a57;fill-opacity:1;fill-rule:nonzero;stroke:none"
           d="m 24,144 -8,0 0,4 8,0 0,-4 z" /><path
           id="path256"
           style="fill:#bf9a57;fill-opacity:1;fill-rule:nonzero;stroke:none"
           d="m 24,136 -8,0 0,4 8,0 0,-4 z" /><path
           id="path258"
           style="fill:#bf9a57;fill-opacity:1;fill-rule:nonzero;stroke:none"
           d="m 24,120 -8,0 0,4 8,0 0,-4 z" /><path
           id="path260"
           style="fill:#bf9a57;fill-opacity:1;fill-rule:nonzero;stroke:none"
           d="m 24,112 -8,0 0,4 8,0 0,-4 z" /><path
           id="path262"
           style="fill:#bf9a57;fill-opacity:1;fill-rule:nonzero;stroke:none"
           d="m 24,104 -8,0 0,4 8,0 0,-4 z" /><path
           id="path264"
           style="fill:#bf9a57;fill-opacity:1;fill-rule:nonzero;stroke:none"
           d="m 24,96 -8,0 0,4 8,0 0,-4 z" /><path
           id="path266"
           style="fill:#bf9a57;fill-opacity:1;fill-rule:nonzero;stroke:none"
           d="m 24,88 -8,0 0,4 8,0 0,-4 z" /><path
           id="path268"
           style="fill:#bf9a57;fill-opacity:1;fill-rule:nonzero;stroke:none"
           d="m 24,80 -8,0 0,4 8,0 0,-4 z" /><path
           id="path270"
           style="fill:#bf9a57;fill-opacity:1;fill-rule:nonzero;stroke:none"
           d="m 24,72 -8,0 0,4 8,0 0,-4 z" /></g></g></g></svg>