<?xml version="1.0" encoding="UTF-8" standalone="no"?>
<svg
   xmlns:dc="http://purl.org/dc/elements/1.1/"
   xmlns:cc="http://creativecommons.org/ns#"
   xmlns:rdf="http://www.w3.org/1999/02/22-rdf-syntax-ns#"
   xmlns:svg="http://www.w3.org/2000/svg"
   xmlns="http://www.w3.org/2000/svg"
   viewBox="0 0 312.974 266.66665"
   height="266.66666"
   width="312.974"
   xml:space="preserve"
   id="svg2"
   version="1.1"><metadata
     id="metadata8"><rdf:RDF><cc:Work
         rdf:about=""><dc:format>image/svg+xml</dc:format><dc:type
           rdf:resource="http://purl.org/dc/dcmitype/StillImage" /></cc:Work></rdf:RDF></metadata><defs
     id="defs6"><clipPath
       id="clipPath18"
       clipPathUnits="userSpaceOnUse"><path
         id="path16"
         d="M 0,256 H 256 V 0 H 0 Z" /></clipPath><clipPath
       id="clipPath26"
       clipPathUnits="userSpaceOnUse"><path
         id="path24"
         d="M 10.6345,228 H 245.365 V 28 H 10.6345 Z" /></clipPath><clipPath
       id="clipPath46"
       clipPathUnits="userSpaceOnUse"><path
         id="path44"
         d="M 0,256 H 256 V 0 H 0 Z" /></clipPath></defs><g
     transform="matrix(1.3333333,0,0,-1.3333333,-14.179333,303.99999)"
     id="g10"><g
       id="g12"><g
         clip-path="url(#clipPath18)"
         id="g14"><g
           id="g20"><g
             id="g22" /><g
             id="g34"><g
               style="opacity:0.5"
               id="g32"
               clip-path="url(#clipPath26)"><g
                 id="g30"
                 transform="translate(184.4961,228)"><path
                   id="path28"
                   style="fill:#ffffff;fill-opacity:1;fill-rule:nonzero;stroke:none"
                   d="m 0,0 h -4.496 -104 -4.496 l -2.338,-3.84 -56,-92 -2.532,-4.16 2.532,-4.159 56,-92 2.338,-3.841 h 4.496 104 H 0 l 2.338,3.841 56,92 2.531,4.159 -2.531,4.16 -56,92 z" /></g></g></g></g></g></g><g
       transform="translate(180,220)"
       id="g36"><path
         id="path38"
         style="fill:#666666;fill-opacity:1;fill-rule:nonzero;stroke:none"
         d="m 0,0 h -104 l -56,-92 56,-92 H 0 l 56,92 z" /></g><g
       id="g40"><g
         clip-path="url(#clipPath46)"
         id="g42"><g
           transform="translate(128,216)"
           id="g48"><path
             id="path50"
             style="fill:#333333;fill-opacity:1;fill-rule:nonzero;stroke:none"
             d="m 0,0 c -48.523,0 -88,-39.477 -88,-88 0,-48.523 39.477,-88 88,-88 48.523,0 88,39.477 88,88 C 88,-39.477 48.523,0 0,0" /></g><g
           transform="translate(212,128)"
           id="g52"><path
             id="path54"
             style="fill:#999999;fill-opacity:1;fill-rule:nonzero;stroke:none"
             d="m 0,0 c 0,-46.392 -37.608,-84 -84,-84 -46.392,0 -84,37.608 -84,84 0,46.392 37.608,84 84,84 C -37.608,84 0,46.392 0,0" /></g><g
           transform="translate(180,91.3027)"
           id="g56"><path
             id="path58"
             style="fill:#333333;fill-opacity:1;fill-rule:nonzero;stroke:none"
             d="m 0,0 v 73.395 c 4.657,1.649 8,6.08 8,11.302 0,6.628 -5.373,12 -12,12 -6.627,0 -12,-5.372 -12,-12 0,-5.222 3.343,-9.653 8,-11.302 V 44.697 c 0,-2.209 -1.791,-4 -4,-4 h -32 c -2.209,0 -4,1.791 -4,4 v 28.698 c 4.657,1.649 8,6.08 8,11.302 0,6.628 -5.373,12 -12,12 -6.627,0 -12,-5.372 -12,-12 0,-5.222 3.342,-9.653 8,-11.302 V 44.697 c 0,-2.209 -1.791,-4 -4,-4 h -32 c -2.209,0 -4,1.791 -4,4 v 28.698 c 4.658,1.649 8,6.08 8,11.302 0,6.628 -5.373,12 -12,12 -6.627,0 -12,-5.372 -12,-12 0,-5.222 3.342,-9.653 8,-11.302 V 0 c -4.658,-1.649 -8,-6.08 -8,-11.303 0,-6.627 5.373,-12 12,-12 6.627,0 12,5.373 12,12 0,5.223 -3.342,9.654 -8,11.303 v 28.697 c 0,2.209 1.791,4 4,4 h 32 c 2.209,0 4,-1.791 4,-4 V 0 c -4.658,-1.649 -8,-6.08 -8,-11.303 0,-6.627 5.373,-12 12,-12 6.627,0 12,5.373 12,12 0,5.223 -3.343,9.654 -8,11.303 v 28.697 c 0,2.209 1.791,4 4,4 h 32 c 2.209,0 4,-1.791 4,-4 V 0 c -4.657,-1.649 -8,-6.08 -8,-11.303 0,-6.627 5.373,-12 12,-12 6.627,0 12,5.373 12,12 C 8,-6.08 4.657,-1.649 0,0" /></g><g
           transform="translate(152,128)"
           id="g60"><path
             id="path62"
             style="fill:#666666;fill-opacity:1;fill-rule:nonzero;stroke:none"
             d="m 0,0 c 0,-13.255 -10.745,-24 -24,-24 -13.255,0 -24,10.745 -24,24 0,13.255 10.745,24 24,24 C -10.745,24 0,13.255 0,0" /></g><g
           transform="translate(148,128)"
           id="g64"><path
             id="path66"
             style="fill:#cccccc;fill-opacity:1;fill-rule:nonzero;stroke:none"
             d="m 0,0 c 0,-11.046 -8.954,-20 -20,-20 -11.046,0 -20,8.954 -20,20 0,11.046 8.954,20 20,20 C -8.954,20 0,11.046 0,0" /></g><g
           transform="translate(142.1426,113.8574)"
           id="g68"><path
             id="path70"
             style="fill:#b3b3b3;fill-opacity:1;fill-rule:nonzero;stroke:none"
             d="M 0,0 C 7.81,7.811 7.81,20.474 0,28.285 L -28.285,0 C -20.474,-7.81 -7.811,-7.81 0,0" /></g></g></g></g></svg>