<?xml version="1.0" encoding="UTF-8" standalone="no"?>
<svg
   xmlns:dc="http://purl.org/dc/elements/1.1/"
   xmlns:cc="http://creativecommons.org/ns#"
   xmlns:rdf="http://www.w3.org/1999/02/22-rdf-syntax-ns#"
   xmlns:svg="http://www.w3.org/2000/svg"
   xmlns="http://www.w3.org/2000/svg"
   viewBox="0 0 312.974 266.66665"
   height="266.66666"
   width="312.974"
   xml:space="preserve"
   id="svg2"
   version="1.1"><metadata
     id="metadata8"><rdf:RDF><cc:Work
         rdf:about=""><dc:format>image/svg+xml</dc:format><dc:type
           rdf:resource="http://purl.org/dc/dcmitype/StillImage" /></cc:Work></rdf:RDF></metadata><defs
     id="defs6"><clipPath
       id="clipPath18"
       clipPathUnits="userSpaceOnUse"><path
         id="path16"
         d="M 0,256 H 256 V 0 H 0 Z" /></clipPath><clipPath
       id="clipPath26"
       clipPathUnits="userSpaceOnUse"><path
         id="path24"
         d="M 10.6345,228 H 245.365 V 28 H 10.6345 Z" /></clipPath><clipPath
       id="clipPath46"
       clipPathUnits="userSpaceOnUse"><path
         id="path44"
         d="M 0,256 H 256 V 0 H 0 Z" /></clipPath></defs><g
     transform="matrix(1.3333333,0,0,-1.3333333,-14.179333,303.99999)"
     id="g10"><g
       id="g12"><g
         clip-path="url(#clipPath18)"
         id="g14"><g
           id="g20"><g
             id="g22" /><g
             id="g34"><g
               style="opacity:0.5"
               id="g32"
               clip-path="url(#clipPath26)"><g
                 id="g30"
                 transform="translate(184.4961,228)"><path
                   id="path28"
                   style="fill:#ffffff;fill-opacity:1;fill-rule:nonzero;stroke:none"
                   d="m 0,0 h -4.496 -104 -4.496 l -2.338,-3.84 -56,-92 -2.532,-4.16 2.532,-4.159 56,-92 2.338,-3.841 h 4.496 104 H 0 l 2.338,3.841 56,92 2.531,4.159 -2.531,4.16 -56,92 z" /></g></g></g></g></g></g><g
       transform="translate(180,220)"
       id="g36"><path
         id="path38"
         style="fill:#737373;fill-opacity:1;fill-rule:nonzero;stroke:none"
         d="m 0,0 h -104 l -56,-92 56,-92 H 0 l 56,92 z" /></g><g
       id="g40"><g
         clip-path="url(#clipPath46)"
         id="g42"><g
           transform="translate(175.5566,135.7695)"
           id="g48"><path
             id="path50"
             style="fill:#404040;fill-opacity:1;fill-rule:nonzero;stroke:none"
             d="m 0,0 c -1.572,1.049 -13.087,10.118 -21.494,16.74 -12.953,10.203 -13.041,10.248 -13.608,10.541 -1.214,0.623 -2.565,0.949 -3.915,0.949 -4.504,0 -8.244,-3.568 -8.509,-8.031 -0.02,-0.164 -0.031,-0.33 -0.031,-0.496 V 2.68 c -4.43,3.422 -11.965,9.357 -17.937,14.06 -12.953,10.203 -13.041,10.248 -13.608,10.541 -1.214,0.623 -2.565,0.949 -3.915,0.949 -4.504,0 -8.244,-3.568 -8.509,-8.03 -0.02,-0.165 -0.031,-0.331 -0.031,-0.497 v -54.932 c 0,-4.709 3.831,-8.541 8.54,-8.541 1.364,0 2.676,0.317 3.9,0.941 0.584,0.3 0.672,0.345 13.655,10.572 5.959,4.695 13.477,10.617 17.905,14.038 v -17.01 c 0,-4.709 3.831,-8.541 8.54,-8.541 1.365,0 2.676,0.317 3.901,0.941 0.583,0.3 0.672,0.345 13.654,10.572 8.399,6.617 19.901,15.679 21.474,16.726 2.775,1.85 4.431,4.752 4.431,7.761 C 4.443,-4.757 2.782,-1.853 0,0" /></g><g
           transform="translate(173.3398,132.4399)"
           id="g52"><path
             id="path54"
             style="fill:#ffffff;fill-opacity:1;fill-rule:nonzero;stroke:none"
             d="m 0,0 c -2.979,1.988 -33.983,26.676 -34.72,27.056 -0.624,0.32 -1.332,0.504 -2.08,0.504 -2.484,0 -4.488,-1.996 -4.524,-4.472 -0.004,-0.02 -0.016,-0.036 -0.016,-0.056 V -31.9 c 0,-2.508 2.032,-4.54 4.54,-4.54 0.752,0 1.456,0.184 2.084,0.504 0.74,0.38 31.748,25.08 34.728,27.064 C 1.668,-7.768 2.66,-6.104 2.66,-4.44 2.66,-2.776 1.664,-1.108 0,0" /></g><g
           transform="translate(129.3398,132.4399)"
           id="g56"><path
             id="path58"
             style="fill:#ffffff;fill-opacity:1;fill-rule:nonzero;stroke:none"
             d="m 0,0 c -2.98,1.988 -33.984,26.676 -34.72,27.056 -0.624,0.32 -1.332,0.504 -2.08,0.504 -2.484,0 -4.488,-1.996 -4.524,-4.472 -0.004,-0.02 -0.016,-0.036 -0.016,-0.056 V -31.9 c 0,-2.508 2.032,-4.54 4.54,-4.54 0.752,0 1.456,0.184 2.084,0.504 0.74,0.38 31.748,25.08 34.728,27.064 C 1.668,-7.768 2.66,-6.104 2.66,-4.44 2.66,-2.776 1.664,-1.108 0,0" /></g></g></g></g></svg>