<?xml version="1.0" encoding="UTF-8" standalone="no"?>
<svg
   xmlns:dc="http://purl.org/dc/elements/1.1/"
   xmlns:cc="http://creativecommons.org/ns#"
   xmlns:rdf="http://www.w3.org/1999/02/22-rdf-syntax-ns#"
   xmlns:svg="http://www.w3.org/2000/svg"
   xmlns="http://www.w3.org/2000/svg"
   viewBox="0 0 322.31186 260.58185"
   height="260.58185"
   width="322.31186"
   xml:space="preserve"
   id="svg2"
   version="1.1"><metadata
     id="metadata8"><rdf:RDF><cc:Work
         rdf:about=""><dc:format>image/svg+xml</dc:format><dc:type
           rdf:resource="http://purl.org/dc/dcmitype/StillImage" /></cc:Work></rdf:RDF></metadata><defs
     id="defs6"><clipPath
       id="clipPath18"
       clipPathUnits="userSpaceOnUse"><path
         id="path16"
         d="M 0,256 H 256 V 0 H 0 Z" /></clipPath><clipPath
       id="clipPath26"
       clipPathUnits="userSpaceOnUse"><path
         id="path24"
         d="M 7.13297,224 H 248.867 V 28.5636 H 7.13297 Z" /></clipPath><clipPath
       id="clipPath42"
       clipPathUnits="userSpaceOnUse"><path
         id="path40"
         d="m 100.785,64 h 54.43 V 36 h -54.43 z" /></clipPath><clipPath
       id="clipPath60"
       clipPathUnits="userSpaceOnUse"><path
         id="path58"
         d="M 0,256 H 256 V 0 H 0 Z" /></clipPath><clipPath
       id="clipPath68"
       clipPathUnits="userSpaceOnUse"><path
         id="path66"
         d="M 12,198 H 244 V 58 H 12 Z" /></clipPath><clipPath
       id="clipPath88"
       clipPathUnits="userSpaceOnUse"><path
         id="path86"
         d="m 100.636,220 h 54.728 v -28 h -54.728 z" /></clipPath><clipPath
       id="clipPath104"
       clipPathUnits="userSpaceOnUse"><path
         id="path102"
         d="M 12,220 H 244 V 32.6362 H 12 Z" /></clipPath></defs><g
     transform="matrix(1.3333333,0,0,-1.3333333,-9.5107998,298.66666)"
     id="g10"><g
       id="g12"><g
         clip-path="url(#clipPath18)"
         id="g14"><g
           id="g20"><g
             id="g22" /><g
             id="g34"><g
               style="opacity:0.5"
               id="g32"
               clip-path="url(#clipPath26)"><g
                 id="g30"
                 transform="translate(247.5781,61.7891)"><path
                   id="path28"
                   style="fill:#ffffff;fill-opacity:1;fill-rule:nonzero;stroke:none"
                   d="m 0,0 -2.364,4.729 c 1.649,0.817 2.786,2.519 2.786,4.482 v 2 c 0,1.125 -0.373,2.164 -1.002,3 0.629,0.836 1.002,1.875 1.002,3 v 2 c 0,1.125 -0.373,2.164 -1.002,3 0.629,0.836 1.002,1.875 1.002,3 v 2 c 0,1.125 -0.373,2.164 -1.002,3 0.629,0.836 1.002,1.875 1.002,3 v 2 c 0,1.125 -0.373,2.164 -1.002,3 0.629,0.836 1.002,1.875 1.002,3 v 2 c 0,1.125 -0.373,2.164 -1.002,3 0.629,0.836 1.002,1.875 1.002,3 v 2 c 0,1.125 -0.373,2.164 -1.002,3 0.629,0.836 1.002,1.875 1.002,3 v 2 c 0,1.125 -0.373,2.164 -1.002,3 0.629,0.836 1.002,1.875 1.002,3 v 2 c 0,1.124 -0.373,2.164 -1.002,3 0.629,0.836 1.002,1.875 1.002,3 v 2 c 0,1.124 -0.373,2.164 -1.002,3 0.629,0.836 1.002,1.875 1.002,3 v 2 c 0,1.124 -0.373,2.164 -1.002,3 0.629,0.836 1.002,1.875 1.002,3 v 2 c 0,1.124 -0.373,2.164 -1.002,3 0.629,0.836 1.002,1.875 1.002,3 v 2 c 0,1.124 -0.373,2.164 -1.002,3 0.629,0.836 1.002,1.875 1.002,3 v 2 c 0,1.124 -0.373,2.164 -1.002,3 0.629,0.836 1.002,1.875 1.002,3 v 2 c 0,1.124 -0.373,2.164 -1.002,3 0.629,0.836 1.002,1.875 1.002,3 v 2 c 0,1.963 -1.137,3.665 -2.786,4.483 l 2.364,4.728 1.289,2.579 -1.21,1.21 0.919,0.92 -0.781,2.345 -4,12 -0.79,2.37 -2.477,0.33 c -0.455,0.06 -46.046,6.086 -91.716,7.657 l -0.143,0.004 -0.151,0.006 c -2.199,0.074 -4.398,0.138 -6.593,0.192 l -0.39,0.009 c -2.244,0.053 -4.455,0.094 -6.568,0.121 l -0.16,0.002 -0.142,0.001 c -2.318,0.028 -4.56,0.043 -6.665,0.043 -2.106,0 -4.347,-0.015 -6.662,-0.043 l -0.146,-0.001 -0.159,-0.002 c -2.113,-0.027 -4.324,-0.068 -6.57,-0.121 l -0.387,-0.009 c -2.197,-0.054 -4.395,-0.118 -6.594,-0.192 l -0.151,-0.006 -0.143,-0.004 c -45.671,-1.571 -91.261,-7.597 -91.717,-7.657 l -2.476,-0.33 -0.79,-2.37 -4,-12 -0.757,-2.271 0.918,-0.972 -1.233,-1.232 1.289,-2.579 2.364,-4.728 c -1.649,-0.818 -2.786,-2.52 -2.786,-4.483 v -2 c 0,-1.125 0.373,-2.164 1.002,-3 -0.629,-0.836 -1.002,-1.876 -1.002,-3 v -2 c 0,-1.125 0.373,-2.164 1.002,-3 -0.629,-0.836 -1.002,-1.876 -1.002,-3 v -2 c 0,-1.125 0.373,-2.164 1.002,-3 -0.629,-0.836 -1.002,-1.876 -1.002,-3 v -2 c 0,-1.125 0.373,-2.164 1.002,-3 -0.629,-0.836 -1.002,-1.876 -1.002,-3 v -2 c 0,-1.125 0.373,-2.164 1.002,-3 -0.629,-0.836 -1.002,-1.876 -1.002,-3 v -2 c 0,-1.125 0.373,-2.164 1.002,-3 -0.629,-0.836 -1.002,-1.876 -1.002,-3 v -2 c 0,-1.125 0.373,-2.164 1.002,-3 -0.629,-0.836 -1.002,-1.876 -1.002,-3 v -2 c 0,-1.125 0.373,-2.164 1.002,-3 -0.629,-0.836 -1.002,-1.875 -1.002,-3 v -2 c 0,-1.125 0.373,-2.164 1.002,-3 -0.629,-0.836 -1.002,-1.875 -1.002,-3 v -2 c 0,-1.125 0.373,-2.164 1.002,-3 -0.629,-0.836 -1.002,-1.875 -1.002,-3 v -2 c 0,-1.125 0.373,-2.164 1.002,-3 -0.629,-0.836 -1.002,-1.875 -1.002,-3 v -2 c 0,-1.125 0.373,-2.164 1.002,-3 -0.629,-0.836 -1.002,-1.875 -1.002,-3 v -2 c 0,-1.125 0.373,-2.164 1.002,-3 -0.629,-0.836 -1.002,-1.875 -1.002,-3 v -2 c 0,-1.125 0.373,-2.164 1.002,-3 -0.629,-0.836 -1.002,-1.875 -1.002,-3 v -2 c 0,-1.963 1.137,-3.665 2.786,-4.482 L -239.156,0 l -1.289,-2.579 1.233,-1.233 -0.918,-0.971 0.757,-2.271 4,-12 0.734,-2.202 2.276,-0.455 c 0.415,-0.083 41.982,-8.328 85.462,-11.135 l 1.806,-0.117 1.28,1.28 2.51,2.51 c 7.767,-0.414 14.843,-0.616 21.577,-0.616 6.876,0 14.111,0.141 22.063,0.43 l 2.622,-2.622 1.244,-1.245 1.758,0.077 c 43.284,1.879 84.579,7.34 84.991,7.395 l 2.694,0.359 0.659,2.636 4,16 0.549,2.197 -0.773,0.773 1.21,1.21 z" /></g></g></g></g><g
           id="g36"><g
             id="g38" /><g
             id="g50"><g
               style="opacity:0.80000299"
               id="g48"
               clip-path="url(#clipPath42)"><g
                 id="g46"
                 transform="translate(127.8506,36)"><path
                   id="path44"
                   style="fill:#333333;fill-opacity:1;fill-rule:nonzero;stroke:none"
                   d="M 0,0 C 8.999,0 18.238,0.24 27.364,0.636 L 0,28 -27.065,0.935 C -18.036,0.352 -8.901,0 0,0" /></g></g></g></g></g></g><path
       id="path52"
       style="fill:#808080;fill-opacity:1;fill-rule:nonzero;stroke:none"
       d="M 236,44 H 20 v 168 h 216 z" /><g
       id="g54"><g
         clip-path="url(#clipPath60)"
         id="g56"><g
           id="g62"><g
             id="g64" /><g
             id="g80"><g
               style="opacity:0.89999402"
               id="g78"
               clip-path="url(#clipPath68)"><g
                 id="g72"
                 transform="translate(12,60)"><path
                   id="path70"
                   style="fill:#404040;fill-opacity:1;fill-rule:nonzero;stroke:none"
                   d="M 0,0 1.943,-1.943 68,68 1.943,137.943 0,136 4,128 V 8 Z" /></g><g
                 id="g76"
                 transform="translate(244,196)"><path
                   id="path74"
                   style="fill:#404040;fill-opacity:1;fill-rule:nonzero;stroke:none"
                   d="m 0,0 -2,2 -70,-70 70,-70 2,2 -4,8 V -8 Z" /></g></g></g></g><g
           id="g82"><g
             id="g84" /><g
             id="g96"><g
               style="opacity:0.80000299"
               id="g94"
               clip-path="url(#clipPath88)"><g
                 id="g92"
                 transform="translate(128,192)"><path
                   id="path90"
                   style="fill:#333333;fill-opacity:1;fill-rule:nonzero;stroke:none"
                   d="M 0,0 27.364,27.364 C 18.238,27.76 8.999,28 0,28 -8.999,28 -18.238,27.76 -27.364,27.364 Z" /></g></g></g></g><g
           id="g98"><g
             id="g100" /><g
             id="g112"><g
               style="opacity:0.89999402"
               id="g110"
               clip-path="url(#clipPath104)"><g
                 id="g108"
                 transform="translate(244,200)"><path
                   id="path106"
                   style="fill:#666666;fill-opacity:1;fill-rule:nonzero;stroke:none"
                   d="m 0,0 -4,12 c 0,0 -60,8 -112,8 -52,0 -112,-8 -112,-8 l -4,-12 68,-72 -68,-72 4,-12 c 0,0 41.217,-8.243 84.935,-11.065 L -116,-140 -88.636,-167.364 C -45.029,-165.471 -4,-160 -4,-160 l 4,16 -72,72 z" /></g></g></g></g><g
           transform="translate(13,186)"
           id="g114"><path
             id="path116"
             style="fill:#404040;fill-opacity:1;fill-rule:nonzero;stroke:none"
             d="m 0,0 c -0.552,0 -1,-0.448 -1,-1 v -2 c 0,-0.552 0.448,-1 1,-1 h 16 l -3.778,4 z" /></g><g
           transform="translate(243,186)"
           id="g118"><path
             id="path120"
             style="fill:#404040;fill-opacity:1;fill-rule:nonzero;stroke:none"
             d="m 0,0 h -13 l -4,-4 H 0 c 0.553,0 1,0.448 1,1 v 2 C 1,-0.448 0.553,0 0,0" /></g><g
           transform="translate(243,174)"
           id="g122"><path
             id="path124"
             style="fill:#404040;fill-opacity:1;fill-rule:nonzero;stroke:none"
             d="M 0,0 C 0.553,0 1,0.448 1,1 V 3 C 1,3.552 0.553,4 0,4 h -21 l -4,-4 z" /></g><g
           transform="translate(13,178)"
           id="g126"><path
             id="path128"
             style="fill:#404040;fill-opacity:1;fill-rule:nonzero;stroke:none"
             d="m 0,0 c -0.552,0 -1,-0.448 -1,-1 v -2 c 0,-0.552 0.448,-1 1,-1 h 23.556 l -3.778,4 z" /></g><g
           transform="translate(243,166)"
           id="g130"><path
             id="path132"
             style="fill:#404040;fill-opacity:1;fill-rule:nonzero;stroke:none"
             d="M 0,0 C 0.553,0 1,0.448 1,1 V 3 C 1,3.552 0.553,4 0,4 h -29 l -4,-4 z" /></g><g
           transform="translate(13,170)"
           id="g134"><path
             id="path136"
             style="fill:#404040;fill-opacity:1;fill-rule:nonzero;stroke:none"
             d="m 0,0 c -0.552,0 -1,-0.448 -1,-1 v -2 c 0,-0.552 0.448,-1 1,-1 h 31.111 l -3.778,4 z" /></g><g
           transform="translate(13,162)"
           id="g138"><path
             id="path140"
             style="fill:#404040;fill-opacity:1;fill-rule:nonzero;stroke:none"
             d="m 0,0 c -0.552,0 -1,-0.448 -1,-1 v -2 c 0,-0.552 0.448,-1 1,-1 h 38.667 l -3.778,4 z" /></g><g
           transform="translate(243,158)"
           id="g142"><path
             id="path144"
             style="fill:#404040;fill-opacity:1;fill-rule:nonzero;stroke:none"
             d="M 0,0 C 0.553,0 1,0.448 1,1 V 3 C 1,3.552 0.553,4 0,4 h -37 l -4,-4 z" /></g><g
           transform="translate(13,154)"
           id="g146"><path
             id="path148"
             style="fill:#404040;fill-opacity:1;fill-rule:nonzero;stroke:none"
             d="m 0,0 c -0.552,0 -1,-0.448 -1,-1 v -2 c 0,-0.552 0.448,-1 1,-1 h 46.222 l -3.778,4 z" /></g><g
           transform="translate(243,150)"
           id="g150"><path
             id="path152"
             style="fill:#404040;fill-opacity:1;fill-rule:nonzero;stroke:none"
             d="M 0,0 C 0.553,0 1,0.448 1,1 V 3 C 1,3.552 0.553,4 0,4 h -45 l -4,-4 z" /></g><g
           transform="translate(13,146)"
           id="g154"><path
             id="path156"
             style="fill:#404040;fill-opacity:1;fill-rule:nonzero;stroke:none"
             d="m 0,0 c -0.552,0 -1,-0.448 -1,-1 v -2 c 0,-0.552 0.448,-1 1,-1 H 53.778 L 50,0 Z" /></g><g
           transform="translate(243,142)"
           id="g158"><path
             id="path160"
             style="fill:#404040;fill-opacity:1;fill-rule:nonzero;stroke:none"
             d="M 0,0 C 0.553,0 1,0.448 1,1 V 3 C 1,3.552 0.553,4 0,4 h -53 l -4,-4 z" /></g><g
           transform="translate(243,134)"
           id="g162"><path
             id="path164"
             style="fill:#404040;fill-opacity:1;fill-rule:nonzero;stroke:none"
             d="M 0,0 C 0.553,0 1,0.448 1,1 V 3 C 1,3.552 0.553,4 0,4 h -61 l -4,-4 z" /></g><g
           transform="translate(13,138)"
           id="g166"><path
             id="path168"
             style="fill:#404040;fill-opacity:1;fill-rule:nonzero;stroke:none"
             d="m 0,0 c -0.552,0 -1,-0.448 -1,-1 v -2 c 0,-0.552 0.448,-1 1,-1 h 61.333 l -3.777,4 z" /></g><g
           transform="translate(78.1113,130)"
           id="g170"><path
             id="path172"
             style="fill:#404040;fill-opacity:1;fill-rule:nonzero;stroke:none"
             d="m 0,0 h -65.111 c -0.553,0 -1,-0.448 -1,-1 v -2 c 0,-0.553 0.447,-1 1,-1 H 0 l 1.889,2 z" /></g><g
           transform="translate(174,126)"
           id="g174"><path
             id="path176"
             style="fill:#404040;fill-opacity:1;fill-rule:nonzero;stroke:none"
             d="m 0,0 h 69 c 0.553,0 1,0.447 1,1 v 2 c 0,0.552 -0.447,1 -1,1 H 0 L -2,2 Z" /></g><g
           transform="translate(243,118)"
           id="g178"><path
             id="path180"
             style="fill:#404040;fill-opacity:1;fill-rule:nonzero;stroke:none"
             d="M 0,0 C 0.553,0 1,0.447 1,1 V 3 C 1,3.553 0.553,4 0,4 h -65 l 4,-4 z" /></g><g
           transform="translate(13,122)"
           id="g182"><path
             id="path184"
             style="fill:#404040;fill-opacity:1;fill-rule:nonzero;stroke:none"
             d="m 0,0 c -0.552,0 -1,-0.447 -1,-1 v -2 c 0,-0.553 0.448,-1 1,-1 h 57.556 l 3.777,4 z" /></g><g
           transform="translate(243,110)"
           id="g186"><path
             id="path188"
             style="fill:#404040;fill-opacity:1;fill-rule:nonzero;stroke:none"
             d="M 0,0 C 0.553,0 1,0.447 1,1 V 3 C 1,3.553 0.553,4 0,4 h -57 l 4,-4 z" /></g><g
           transform="translate(13,114)"
           id="g190"><path
             id="path192"
             style="fill:#404040;fill-opacity:1;fill-rule:nonzero;stroke:none"
             d="m 0,0 c -0.552,0 -1,-0.447 -1,-1 v -2 c 0,-0.553 0.448,-1 1,-1 h 50 l 3.778,4 z" /></g><g
           transform="translate(13,106)"
           id="g194"><path
             id="path196"
             style="fill:#404040;fill-opacity:1;fill-rule:nonzero;stroke:none"
             d="m 0,0 c -0.552,0 -1,-0.447 -1,-1 v -2 c 0,-0.553 0.448,-1 1,-1 h 42.444 l 3.778,4 z" /></g><g
           transform="translate(243,102)"
           id="g198"><path
             id="path200"
             style="fill:#404040;fill-opacity:1;fill-rule:nonzero;stroke:none"
             d="M 0,0 C 0.553,0 1,0.447 1,1 V 3 C 1,3.553 0.553,4 0,4 h -49 l 4,-4 z" /></g><g
           transform="translate(243,94)"
           id="g202"><path
             id="path204"
             style="fill:#404040;fill-opacity:1;fill-rule:nonzero;stroke:none"
             d="M 0,0 C 0.553,0 1,0.447 1,1 V 3 C 1,3.553 0.553,4 0,4 h -41 l 4,-4 z" /></g><g
           transform="translate(13,98)"
           id="g206"><path
             id="path208"
             style="fill:#404040;fill-opacity:1;fill-rule:nonzero;stroke:none"
             d="m 0,0 c -0.552,0 -1,-0.447 -1,-1 v -2 c 0,-0.553 0.448,-1 1,-1 h 34.889 l 3.778,4 z" /></g><g
           transform="translate(13,90)"
           id="g210"><path
             id="path212"
             style="fill:#404040;fill-opacity:1;fill-rule:nonzero;stroke:none"
             d="m 0,0 c -0.552,0 -1,-0.447 -1,-1 v -2 c 0,-0.553 0.448,-1 1,-1 h 27.333 l 3.778,4 z" /></g><g
           transform="translate(243,86)"
           id="g214"><path
             id="path216"
             style="fill:#404040;fill-opacity:1;fill-rule:nonzero;stroke:none"
             d="M 0,0 C 0.553,0 1,0.447 1,1 V 3 C 1,3.553 0.553,4 0,4 h -33 l 4,-4 z" /></g><g
           transform="translate(243,78)"
           id="g218"><path
             id="path220"
             style="fill:#404040;fill-opacity:1;fill-rule:nonzero;stroke:none"
             d="M 0,0 C 0.553,0 1,0.447 1,1 V 3 C 1,3.553 0.553,4 0,4 h -25 l 4,-4 z" /></g><g
           transform="translate(13,82)"
           id="g222"><path
             id="path224"
             style="fill:#404040;fill-opacity:1;fill-rule:nonzero;stroke:none"
             d="m 0,0 c -0.552,0 -1,-0.447 -1,-1 v -2 c 0,-0.553 0.448,-1 1,-1 h 19.778 l 3.778,4 z" /></g><g
           transform="translate(243,70)"
           id="g226"><path
             id="path228"
             style="fill:#404040;fill-opacity:1;fill-rule:nonzero;stroke:none"
             d="M 0,0 C 0.553,0 1,0.447 1,1 V 3 C 1,3.553 0.553,4 0,4 h -17 l 4,-4 z" /></g><g
           transform="translate(13,74)"
           id="g230"><path
             id="path232"
             style="fill:#404040;fill-opacity:1;fill-rule:nonzero;stroke:none"
             d="m 0,0 c -0.552,0 -1,-0.447 -1,-1 v -2 c 0,-0.553 0.448,-1 1,-1 H 12.222 L 16,0 Z" /></g><g
           transform="translate(160,128)"
           id="g234"><path
             id="path236"
             style="fill:#404040;fill-opacity:1;fill-rule:nonzero;stroke:none"
             d="m 0,0 c 0,-17.673 -14.327,-32 -32,-32 -17.673,0 -32,14.327 -32,32 0,17.673 14.327,32 32,32 C -14.327,32 0,17.673 0,0" /></g><g
           transform="translate(152,128)"
           id="g238"><path
             id="path240"
             style="fill:#262626;fill-opacity:1;fill-rule:nonzero;stroke:none"
             d="m 0,0 c 0,-13.255 -10.745,-24 -24,-24 -13.255,0 -24,10.745 -24,24 0,13.255 10.745,24 24,24 C -10.745,24 0,13.255 0,0" /></g></g></g></g></svg>