<?xml version="1.0" encoding="UTF-8" standalone="no"?>
<svg
   xmlns:dc="http://purl.org/dc/elements/1.1/"
   xmlns:cc="http://creativecommons.org/ns#"
   xmlns:rdf="http://www.w3.org/1999/02/22-rdf-syntax-ns#"
   xmlns:svg="http://www.w3.org/2000/svg"
   xmlns="http://www.w3.org/2000/svg"
   viewBox="0 0 330.66665 218.66639"
   height="218.6664"
   width="330.66666"
   xml:space="preserve"
   id="svg2"
   version="1.1"><metadata
     id="metadata8"><rdf:RDF><cc:Work
         rdf:about=""><dc:format>image/svg+xml</dc:format><dc:type
           rdf:resource="http://purl.org/dc/dcmitype/StillImage" /></cc:Work></rdf:RDF></metadata><defs
     id="defs6"><clipPath
       id="clipPath18"
       clipPathUnits="userSpaceOnUse"><path
         id="path16"
         d="M 0,256 H 256 V 0 H 0 Z" /></clipPath><clipPath
       id="clipPath26"
       clipPathUnits="userSpaceOnUse"><path
         id="path24"
         d="M 3.99997,208 H 252 V 44 H 3.99997 Z" /></clipPath></defs><g
     transform="matrix(1.3333333,0,0,-1.3333333,-5.3333332,277.33306)"
     id="g10"><g
       id="g12"><g
         clip-path="url(#clipPath18)"
         id="g14"><g
           id="g20"><g
             id="g22" /><g
             id="g34"><g
               style="opacity:0.5"
               id="g32"
               clip-path="url(#clipPath26)"><g
                 id="g30"
                 transform="translate(252,182.0908)"><path
                   id="path28"
                   style="fill:#ffffff;fill-opacity:1;fill-rule:nonzero;stroke:none"
                   d="m 0,0 c 0,1.4 -0.291,2.733 -0.816,3.942 0.331,0.767 0.57,1.587 0.701,2.447 0.44,2.893 -0.398,5.822 -2.299,8.036 -1.902,2.214 -4.667,3.484 -7.586,3.484 h -10.201 c -0.929,4.559 -4.97,8 -9.799,8 h -104 -2 -82 c -4.842,0 -8.891,-3.459 -9.806,-8.035 -0.406,-0.037 -0.805,-0.1 -1.194,-0.189 -0.644,0.147 -1.312,0.224 -2,0.224 h -7 c -5.514,0 -10,-4.486 -10,-10 v -0.11 c 0,-1.399 0.292,-2.731 0.818,-3.939 C -247.718,2.618 -248,1.271 -248,-0.114 v -0.068 c 0,-1.401 0.292,-2.736 0.818,-3.946 C -247.718,-5.369 -248,-6.715 -248,-8.1 v -0.082 c 0,-1.401 0.292,-2.736 0.818,-3.946 -0.536,-1.241 -0.818,-2.587 -0.818,-3.972 v -0.082 c 0,-1.401 0.292,-2.736 0.818,-3.946 -0.536,-1.241 -0.818,-2.587 -0.818,-3.972 v -0.082 c 0,-1.401 0.292,-2.736 0.818,-3.946 -0.536,-1.241 -0.818,-2.587 -0.818,-3.972 v -0.082 c 0,-1.401 0.292,-2.736 0.818,-3.946 -0.536,-1.241 -0.818,-2.587 -0.818,-3.972 v -0.082 c 0,-1.401 0.292,-2.736 0.818,-3.946 -0.536,-1.241 -0.818,-2.587 -0.818,-3.972 v -0.082 c 0,-1.401 0.292,-2.736 0.818,-3.946 -0.536,-1.241 -0.818,-2.587 -0.818,-3.972 v -0.082 c 0,-1.401 0.292,-2.736 0.818,-3.946 -0.536,-1.24 -0.818,-2.587 -0.818,-3.972 v -0.082 c 0,-1.401 0.292,-2.736 0.818,-3.946 -0.536,-1.24 -0.818,-2.587 -0.818,-3.972 v -0.082 c 0,-1.401 0.292,-2.736 0.818,-3.946 -0.536,-1.24 -0.818,-2.587 -0.818,-3.972 v -0.082 c 0,-1.401 0.292,-2.736 0.818,-3.946 -0.536,-1.24 -0.818,-2.587 -0.818,-3.972 v -0.082 c 0,-1.401 0.292,-2.736 0.818,-3.946 -0.536,-1.24 -0.818,-2.587 -0.818,-3.972 v -0.082 c 0,-1.401 0.292,-2.735 0.817,-3.944 -0.525,-1.219 -0.817,-2.562 -0.817,-3.974 v -0.082 c 0,-1.4 0.292,-2.734 0.817,-3.943 -0.535,-1.239 -0.817,-2.585 -0.817,-3.967 v -0.09 c 0,-1.4 0.292,-2.734 0.817,-3.943 -0.536,-1.239 -0.817,-2.585 -0.817,-3.967 v -0.09 c 0,-1.4 0.292,-2.733 0.816,-3.942 -0.331,-0.767 -0.569,-1.587 -0.7,-2.446 -0.442,-2.894 0.396,-5.823 2.298,-8.036 1.902,-2.215 4.667,-3.485 7.586,-3.485 h 18 4 10 2 46 2 146.11 c 5.453,0 9.89,4.437 9.89,9.89 v 0.221 c 0,1.379 -0.284,2.695 -0.797,3.889 0.513,1.195 0.797,2.51 0.797,3.89 v 0.221 c 0,1.379 -0.284,2.695 -0.797,3.889 0.513,1.195 0.797,2.51 0.797,3.89 v 0.221 c 0,1.379 -0.284,2.695 -0.797,3.889 0.513,1.195 0.797,2.51 0.797,3.89 v 0.221 c 0,1.379 -0.284,2.695 -0.797,3.889 0.513,1.195 0.797,2.51 0.797,3.89 v 0.221 c 0,1.379 -0.284,2.695 -0.797,3.889 0.513,1.195 0.797,2.51 0.797,3.89 v 0.221 c 0,1.379 -0.284,2.695 -0.797,3.889 0.513,1.195 0.797,2.51 0.797,3.89 v 0.221 c 0,1.379 -0.284,2.695 -0.797,3.889 0.513,1.195 0.797,2.51 0.797,3.89 v 0.221 c 0,1.379 -0.284,2.695 -0.797,3.889 0.513,1.195 0.797,2.51 0.797,3.89 v 0.221 c 0,1.379 -0.284,2.695 -0.797,3.889 0.513,1.195 0.797,2.51 0.797,3.89 v 0.221 c 0,1.379 -0.284,2.695 -0.797,3.889 0.513,1.195 0.797,2.51 0.797,3.89 v 0.22 c 0,1.38 -0.284,2.696 -0.797,3.89 0.513,1.195 0.797,2.51 0.797,3.89 v 0.22 c 0,1.38 -0.284,2.696 -0.797,3.89 0.513,1.195 0.797,2.51 0.797,3.89 v 0.22 c 0,1.397 -0.291,2.726 -0.815,3.932 0.524,1.216 0.815,2.558 0.815,3.967 L 0,-24 c 0,1.401 -0.292,2.735 -0.817,3.945 0.525,1.218 0.817,2.562 0.817,3.973 V -16 c 0,1.401 -0.292,2.735 -0.817,3.945 C -0.292,-10.837 0,-9.493 0,-8.082 V -8 c 0,1.401 -0.292,2.735 -0.817,3.945 C -0.292,-2.837 0,-1.493 0,-0.082 Z" /></g></g></g></g><g
           transform="translate(242.0264,180)"
           id="g36"><path
             id="path38"
             style="fill:#4c4c4c;fill-opacity:1;fill-rule:nonzero;stroke:none"
             d="M 0,0 C 1.085,-0.014 1.974,0.924 1.974,2.009 V 2.091 C 1.974,3.155 1.128,4 0.084,4 H 0.081 C -0.874,4 -1.774,4.618 -1.978,5.55 -2.258,6.837 -1.298,7.976 -0.065,8 0.914,8.019 1.802,8.717 1.949,9.686 2.139,10.93 1.182,12 -0.026,12 h -18 v 6 c 0,1.104 -0.896,2 -2,2 h -188 c -1.105,0 -2,-0.896 -2,-2 v -6 -2 h -2 v 1 c 0,0.552 -0.448,1 -1,1 -0.553,0 -1,-0.448 -1,-1 v -1 h -2 v 1 c 0,0.552 -0.448,1 -1,1 -0.553,0 -1,-0.448 -1,-1 v -1 h -2 v 1 c 0,0.552 -0.448,1 -1,1 h -7 c -1.105,0 -2,-0.896 -2,-2 V 9.89 c 0,-1.044 0.846,-1.89 1.89,-1.89 h 0.003 c 0.952,0 1.851,-0.614 2.056,-1.544 0.289,-1.31 -0.706,-2.468 -1.968,-2.456 -1.089,0.01 -1.981,-0.935 -1.981,-2.023 V 1.909 c 0,-1.064 0.846,-1.909 1.89,-1.909 h 0.003 c 0.952,0 1.851,-0.614 2.056,-1.544 0.29,-1.312 -0.71,-2.472 -1.976,-2.456 -1.085,0.014 -1.973,-0.924 -1.973,-2.009 v -0.082 c 0,-1.064 0.846,-1.909 1.89,-1.909 h 0.003 c 0.952,0 1.851,-0.614 2.056,-1.544 0.29,-1.312 -0.71,-2.472 -1.976,-2.456 -1.085,0.014 -1.973,-0.924 -1.973,-2.009 v -0.082 c 0,-1.064 0.846,-1.909 1.89,-1.909 h 0.003 c 0.952,0 1.851,-0.614 2.056,-1.544 0.29,-1.312 -0.71,-2.472 -1.976,-2.456 -1.085,0.014 -1.973,-0.924 -1.973,-2.009 v -0.082 c 0,-1.064 0.846,-1.909 1.89,-1.909 h 0.003 c 0.952,0 1.851,-0.614 2.056,-1.544 0.29,-1.312 -0.71,-2.472 -1.976,-2.456 -1.085,0.014 -1.973,-0.924 -1.973,-2.009 v -0.082 c 0,-1.064 0.846,-1.909 1.89,-1.909 h 0.003 c 0.952,0 1.851,-0.614 2.056,-1.544 0.29,-1.312 -0.71,-2.472 -1.976,-2.456 -1.085,0.014 -1.973,-0.924 -1.973,-2.009 v -0.082 c 0,-1.064 0.846,-1.909 1.89,-1.909 h 0.003 c 0.952,0 1.851,-0.614 2.056,-1.544 0.29,-1.312 -0.71,-2.472 -1.976,-2.456 -1.085,0.014 -1.973,-0.924 -1.973,-2.009 v -0.082 c 0,-1.064 0.846,-1.909 1.89,-1.909 h 0.003 c 0.952,0 1.851,-0.614 2.056,-1.544 0.29,-1.312 -0.71,-2.472 -1.976,-2.456 -1.085,0.014 -1.973,-0.924 -1.973,-2.009 v -0.082 c 0,-1.064 0.846,-1.909 1.89,-1.909 h 0.003 c 0.952,0 1.851,-0.614 2.056,-1.544 0.29,-1.312 -0.71,-2.473 -1.976,-2.456 -1.085,0.015 -1.973,-0.924 -1.973,-2.009 v -0.082 c 0,-1.064 0.846,-1.909 1.89,-1.909 h 0.003 c 0.952,0 1.851,-0.614 2.056,-1.544 0.29,-1.312 -0.71,-2.473 -1.976,-2.456 -1.085,0.015 -1.973,-0.924 -1.973,-2.009 v -0.082 c 0,-1.064 0.846,-1.909 1.89,-1.909 h 0.003 c 0.952,0 1.851,-0.614 2.056,-1.544 0.29,-1.312 -0.71,-2.473 -1.976,-2.456 -1.085,0.015 -1.973,-0.924 -1.973,-2.009 v -0.082 c 0,-1.064 0.846,-1.909 1.89,-1.909 h 0.003 c 0.952,0 1.851,-0.614 2.056,-1.544 0.29,-1.312 -0.71,-2.473 -1.976,-2.456 -1.085,0.015 -1.973,-0.924 -1.973,-2.009 v -0.082 c 0,-1.064 0.846,-1.909 1.89,-1.909 h 0.003 c 0.952,0 1.851,-0.614 2.056,-1.544 0.29,-1.312 -0.71,-2.473 -1.976,-2.456 -1.085,0.015 -1.973,-0.924 -1.973,-2.009 v -0.082 c 0,-1.064 0.846,-1.909 1.89,-1.909 h 0.003 c 0.952,0 1.851,-0.614 2.056,-1.544 0.29,-1.312 -0.71,-2.473 -1.976,-2.456 -1.085,0.015 -1.973,-0.924 -1.973,-2.009 v -0.082 c 0,-1.064 0.846,-1.909 1.89,-1.909 h 0.003 c 0.952,0 1.851,-0.614 2.056,-1.544 0.29,-1.315 -0.714,-2.477 -1.984,-2.456 -1.08,0.019 -1.965,-0.921 -1.965,-2.001 v -0.09 c 0,-1.064 0.846,-1.909 1.89,-1.909 h 0.003 c 0.952,0 1.851,-0.614 2.056,-1.544 0.29,-1.315 -0.714,-2.477 -1.984,-2.456 -1.08,0.019 -1.965,-0.921 -1.965,-2.001 v -0.09 c 0,-1.064 0.846,-1.909 1.89,-1.909 h 0.003 c 0.954,0 1.854,-0.617 2.058,-1.55 0.28,-1.287 -0.679,-2.426 -1.912,-2.45 -0.98,-0.019 -1.867,-0.717 -2.015,-1.686 -0.19,-1.244 0.768,-2.314 1.976,-2.314 H 0.084 c 1.044,0 1.89,0.846 1.89,1.89 v 0.22 c 0,1.044 -0.846,1.89 -1.89,1.89 h -0.11 c -1.215,0 -2.177,1.083 -1.973,2.336 0.16,0.983 1.083,1.664 2.08,1.664 h 0.003 c 1.044,0 1.89,0.846 1.89,1.89 v 0.22 c 0,1.044 -0.846,1.89 -1.89,1.89 H 0.081 c -0.997,0 -1.92,0.681 -2.08,1.664 -0.204,1.253 0.758,2.336 1.973,2.336 h 0.11 c 1.044,0 1.89,0.846 1.89,1.89 v 0.22 c 0,1.044 -0.846,1.89 -1.89,1.89 H 0.081 c -0.997,0 -1.92,0.681 -2.08,1.664 -0.204,1.253 0.758,2.336 1.973,2.336 h 0.11 c 1.044,0 1.89,0.846 1.89,1.89 v 0.22 c 0,1.044 -0.846,1.89 -1.89,1.89 H 0.081 c -0.997,0 -1.92,0.681 -2.08,1.664 -0.204,1.253 0.758,2.336 1.973,2.336 h 0.11 c 1.044,0 1.89,0.846 1.89,1.89 v 0.22 c 0,1.044 -0.846,1.89 -1.89,1.89 H 0.081 c -0.997,0 -1.92,0.681 -2.08,1.664 -0.204,1.253 0.758,2.336 1.973,2.336 h 0.11 c 1.044,0 1.89,0.846 1.89,1.89 v 0.22 c 0,1.044 -0.846,1.89 -1.89,1.89 H 0.081 c -0.997,0 -1.92,0.681 -2.08,1.664 -0.204,1.253 0.758,2.336 1.973,2.336 h 0.11 c 1.044,0 1.89,0.846 1.89,1.89 v 0.22 c 0,1.044 -0.846,1.89 -1.89,1.89 H 0.081 c -0.996,0 -1.92,0.681 -2.08,1.664 -0.204,1.253 0.758,2.336 1.973,2.336 h 0.11 c 1.044,0 1.89,0.846 1.89,1.89 v 0.22 c 0,1.044 -0.846,1.89 -1.89,1.89 H 0.081 c -0.996,0 -1.92,0.681 -2.08,1.664 -0.204,1.253 0.758,2.336 1.973,2.336 h 0.11 c 1.044,0 1.89,0.846 1.89,1.89 v 0.22 c 0,1.044 -0.846,1.89 -1.89,1.89 H 0.081 c -0.996,0 -1.92,0.681 -2.08,1.664 -0.204,1.253 0.758,2.336 1.973,2.336 h 0.11 c 1.044,0 1.89,0.846 1.89,1.89 v 0.22 c 0,1.044 -0.846,1.89 -1.89,1.89 H 0.081 c -0.996,0 -1.92,0.681 -2.08,1.664 -0.204,1.253 0.758,2.336 1.973,2.336 h 0.11 c 1.044,0 1.89,0.846 1.89,1.89 v 0.22 c 0,1.044 -0.846,1.89 -1.89,1.89 H 0.081 c -0.996,0 -1.92,0.681 -2.08,1.664 -0.204,1.253 0.758,2.336 1.973,2.336 h 0.11 c 1.044,0 1.89,0.846 1.89,1.89 v 0.22 c 0,1.044 -0.846,1.89 -1.89,1.89 H 0.081 c -0.996,0 -1.92,0.681 -2.08,1.664 -0.204,1.253 0.758,2.336 1.973,2.336 h 0.11 c 1.044,0 1.89,0.846 1.89,1.89 v 0.22 c 0,1.044 -0.846,1.89 -1.89,1.89 H 0.081 c -0.953,0 -1.852,0.614 -2.057,1.544 -0.29,1.313 0.71,2.472 1.976,2.456 1.085,-0.014 1.974,0.924 1.974,2.009 v 0.082 c 0,1.064 -0.846,1.909 -1.89,1.909 H 0.081 c -0.953,0 -1.852,0.614 -2.057,1.544 -0.29,1.313 0.71,2.472 1.976,2.456 1.085,-0.014 1.974,0.924 1.974,2.009 v 0.082 c 0,1.064 -0.846,1.909 -1.89,1.909 H 0.081 c -0.953,0 -1.852,0.614 -2.057,1.544 -0.29,1.313 0.71,2.472 1.976,2.456 1.085,-0.014 1.974,0.924 1.974,2.009 v 0.082 C 1.974,-4.845 1.128,-4 0.084,-4 H 0.081 c -0.953,0 -1.852,0.614 -2.057,1.544 C -2.266,-1.143 -1.266,0.016 0,0" /></g><path
           id="path40"
           style="fill:#404040;fill-opacity:1;fill-rule:nonzero;stroke:none"
           d="m 24,92 h -2 v 98 h 2 z" /><path
           id="path42"
           style="fill:#404040;fill-opacity:1;fill-rule:nonzero;stroke:none"
           d="m 28,92 h -2 v 98 h 2 z" /><path
           id="path44"
           style="fill:#404040;fill-opacity:1;fill-rule:nonzero;stroke:none"
           d="m 32,92 h -2 v 98 h 2 z" /><path
           id="path46"
           style="fill:#404040;fill-opacity:1;fill-rule:nonzero;stroke:none"
           d="M 116,92 H 32 v 2 h 84 z" /><g
           transform="translate(206,108)"
           id="g48"><path
             id="path50"
             style="fill:#404040;fill-opacity:1;fill-rule:nonzero;stroke:none"
             d="m 0,0 h -68 c -1.1,0 -2,0.9 -2,2 0,1.1 0.9,2 2,2 H 0 C 1.1,4 2,3.1 2,2 2,0.9 1.1,0 0,0" /></g><g
           transform="translate(202,76)"
           id="g52"><path
             id="path54"
             style="fill:#404040;fill-opacity:1;fill-rule:nonzero;stroke:none"
             d="m 0,0 h -114 l -7.998,-0.002 -2.588,2.588 c -0.781,0.781 -2.047,0.781 -2.828,0 L -130,0 l -2.586,2.586 c -0.781,0.781 -2.047,0.781 -2.828,0 L -138,0 l -2.586,2.586 c -0.781,0.781 -2.047,0.781 -2.828,0 L -146,0 h -20 -2 c -1.104,0 -2,-0.896 -2,-2 v -22 h 4 v 20 h 24 l 2.586,-2.586 c 0.781,-0.781 2.047,-0.781 2.828,0 L -134,-4 l 2.586,-2.586 c 0.781,-0.781 2.047,-0.781 2.828,0 L -126,-4 l 2.586,-2.586 c 0.781,-0.781 2.047,-0.781 2.828,0 L -118,-4 H 0 c 1.1,0 2,0.9 2,2 0,1.1 -0.9,2 -2,2" /></g><g
           transform="translate(182,72)"
           id="g56"><path
             id="path58"
             style="fill:#191919;fill-opacity:1;fill-rule:nonzero;stroke:none"
             d="m 0,0 h -8 c -1.1,0 -2,0.9 -2,2 0,1.1 0.9,2 2,2 H 0 C 1.1,4 2,3.1 2,2 2,0.9 1.1,0 0,0" /></g><g
           transform="translate(178,72)"
           id="g60"><path
             id="path62"
             style="fill:#262626;fill-opacity:1;fill-rule:nonzero;stroke:none"
             d="m 0,0 h -8 c -1.1,0 -2,0.9 -2,2 0,1.1 0.9,2 2,2 H 0 C 1.1,4 2,3.1 2,2 2,0.9 1.1,0 0,0" /></g><path
           id="path64"
           style="fill:#191919;fill-opacity:1;fill-rule:nonzero;stroke:none"
           d="m 132,73 h -8 v 2 h 8 z" /><g
           transform="translate(220,74)"
           id="g66"><path
             id="path68"
             style="fill:#262626;fill-opacity:1;fill-rule:nonzero;stroke:none"
             d="m 0,0 c 0,-5.522 -4.478,-10 -10,-10 -5.522,0 -10,4.478 -10,10 0,5.522 4.478,10 10,10 C -4.478,10 0,5.522 0,0" /></g><g
           transform="translate(210,84)"
           id="g70"><path
             id="path72"
             style="fill:#404040;fill-opacity:1;fill-rule:nonzero;stroke:none"
             d="m 0,0 c -5.522,0 -10,-4.478 -10,-10 0,-5.522 4.478,-10 10,-10 5.522,0 10,4.478 10,10 C 10,-4.478 5.522,0 0,0 m 0,-2 c 4.411,0 8,-3.589 8,-8 0,-4.411 -3.589,-8 -8,-8 -4.411,0 -8,3.589 -8,8 0,4.411 3.589,8 8,8" /></g><g
           transform="translate(20,192)"
           id="g74"><path
             id="path76"
             style="fill:#4c4c4c;fill-opacity:1;fill-rule:nonzero;stroke:none"
             d="M 0,0 Z" /></g><g
           transform="translate(32,192)"
           id="g78"><path
             id="path80"
             style="fill:#404040;fill-opacity:1;fill-rule:nonzero;stroke:none"
             d="M 0,0 Z" /></g><path
           id="path82"
           style="fill:#333333;fill-opacity:1;fill-rule:nonzero;stroke:none"
           d="m 48,52 h -2 v 40 h 2 z" /><path
           id="path84"
           style="fill:#333333;fill-opacity:1;fill-rule:nonzero;stroke:none"
           d="m 96,52 h -2 v 40 h 2 z" /><g
           transform="translate(224,192)"
           id="g86"><path
             id="path88"
             style="fill:#333333;fill-opacity:1;fill-rule:nonzero;stroke:none"
             d="M 0,0 V -98 H -106 V 8 h -2 v -106 -2 h 2 H 0 2 V 0 Z" /></g></g></g></g></svg>