<?xml version="1.0" encoding="UTF-8" standalone="no"?>
<svg
   xmlns:dc="http://purl.org/dc/elements/1.1/"
   xmlns:cc="http://creativecommons.org/ns#"
   xmlns:rdf="http://www.w3.org/1999/02/22-rdf-syntax-ns#"
   xmlns:svg="http://www.w3.org/2000/svg"
   xmlns="http://www.w3.org/2000/svg"
   viewBox="0 0 320 320"
   height="320"
   width="320"
   xml:space="preserve"
   version="1.1"
   id="svg2"><metadata
     id="metadata8"><rdf:RDF><cc:Work
         rdf:about=""><dc:format>image/svg+xml</dc:format><dc:type
           rdf:resource="http://purl.org/dc/dcmitype/StillImage" /></cc:Work></rdf:RDF></metadata><defs
     id="defs6"><clipPath
       id="clipPath16"
       clipPathUnits="userSpaceOnUse"><path
         id="path18"
         d="M 0,256 256,256 256,0 0,0 0,256 Z" /></clipPath><clipPath
       id="clipPath24"
       clipPathUnits="userSpaceOnUse"><path
         id="path26"
         d="M 20,252 236,252 236,4 20,4 20,252 Z" /></clipPath></defs><g
     transform="matrix(1.25,0,0,-1.25,0,320)"
     id="g10"><g
       id="g12"><g
         clip-path="url(#clipPath16)"
         id="g14"><g
           id="g20"><g
             id="g22" /><g
             id="g28"><g
               style="opacity:0.5"
               id="g30"
               clip-path="url(#clipPath24)"><g
                 id="g32"
                 transform="translate(218.6611,184.4971)"><path
                   id="path34"
                   style="fill:#ffffff;fill-opacity:1;fill-rule:nonzero;stroke:none"
                   d="m 0,0 -38.661,15.919 0,15.584 0,2 0,22 c 0,6.617 -5.383,12 -12,12 l -14,0 -2,0 -44,0 -2,0 -18,0 c -6.617,0 -12,-5.383 -12,-12 l 0,-22 0,-2 0,-15.584 L -181.322,0 c -10.533,-4.337 -17.339,-14.5 -17.339,-25.891 l 0.328,-78.639 0.002,-0.416 0.045,-0.413 c 3.795,-34.993 36.46,-64.204 81.283,-72.689 l 0.122,-0.023 0.259,-0.05 c 2.228,-0.415 4.518,-0.782 6.807,-1.092 l 0.139,-0.018 0.397,-0.054 c 1.246,-0.163 2.375,-0.298 3.454,-0.413 l 0.048,-0.005 0.029,-0.003 c 1.004,-0.106 2.079,-0.205 3.283,-0.304 l 0.718,-0.058 c 1.26,-0.097 2.379,-0.171 3.421,-0.226 l 0.049,-0.003 0.074,-0.003 c 0.994,-0.052 2.062,-0.094 3.265,-0.13 l 0.855,-0.022 c 1.302,-0.03 2.39,-0.045 3.422,-0.045 1.375,0 2.855,0.025 4.527,0.077 0.345,0.011 0.687,0.025 1.03,0.04 l 0.358,0.016 c 1.078,0.044 2.148,0.098 3.181,0.164 l 0.126,0.008 c 0.457,0.029 0.913,0.057 1.367,0.091 1.119,0.082 2.293,0.184 3.487,0.301 l 0.314,0.029 c 0.215,0.019 0.43,0.039 0.644,0.061 1.362,0.144 2.746,0.312 4.23,0.513 0.349,0.048 0.697,0.099 1.044,0.152 l 0.423,0.063 c 0.951,0.139 1.899,0.287 2.84,0.446 0.553,0.093 1.106,0.187 1.656,0.287 0.944,0.171 1.878,0.353 2.811,0.542 l 0.442,0.088 c 0.314,0.061 0.627,0.124 0.939,0.19 0.099,0.02 0.182,0.036 0.264,0.054 l 6.317,1.36 0,0.171 c 12.629,3.382 24.487,8.583 34.607,15.208 3.377,2.211 5.393,5.956 5.393,10.02 l 0,2.805 3.313,3.314 4.56,0 c 3.707,0 7.255,1.74 9.491,4.655 8.131,10.599 12.929,22.2 14.261,34.483 l 0.045,0.413 0.002,0.416 0.328,78.606 C 17.339,-14.5 10.533,-4.337 0,0" /></g></g></g></g><g
           transform="translate(215.6152,177.0996)"
           id="g36"><path
             id="path38"
             style="fill:#404040;fill-opacity:1;fill-rule:nonzero;stroke:none"
             d="m 0,0 -55.615,22.9 -32,0 -32,0 L -175.23,0 c -7.494,-3.086 -12.385,-10.389 -12.385,-18.494 l 0.328,-78.606 c 4.128,-38.062 47.173,-68 99.672,-68 25.4,0 48.589,7.009 66.225,18.555 1.118,0.732 1.775,1.991 1.775,3.326 l 0,5.291 c 0,0.531 0.211,1.039 0.586,1.414 l 6.828,6.828 c 0.375,0.375 0.884,0.586 1.414,0.586 l 7.045,0 c 1.225,0 2.397,0.552 3.143,1.525 7.001,9.126 11.46,19.459 12.656,30.475 l 0.328,78.606 C 12.385,-10.389 7.494,-3.086 0,0" /></g><g
           transform="translate(168,188)"
           id="g40"><path
             id="path42"
             style="fill:#404040;fill-opacity:1;fill-rule:nonzero;stroke:none"
             d="m 0,0 -80,0 c -2.209,0 -4,1.791 -4,4 l 0,48 c 0,2.209 1.791,4 4,4 l 80,0 c 2.209,0 4,-1.791 4,-4 L 4,4 C 4,1.791 2.209,0 0,0" /></g><path
           id="path44"
           style="fill:#333333;fill-opacity:1;fill-rule:nonzero;stroke:none"
           d="m 172,216 -88,0 0,2 88,0 0,-2 z" /><g
           transform="translate(112,217.5278)"
           id="g46"><path
             id="path48"
             style="fill:#333333;fill-opacity:1;fill-rule:nonzero;stroke:none"
             d="M 0,0 C 0,1.515 -0.856,2.9 -2.211,3.578 L -8,6.472 -17.428,3.971 C -18.923,3.594 -20,1.938 -20,0.014 l 0,-89.506 c 0,-2.229 1.433,-4.036 3.2,-4.036 l 9.6,0 c 1.758,0 3.181,1.788 3.197,4 L 0,-89.528 0,0 Z" /></g><g
           transform="translate(161.4277,221.499)"
           id="g50"><path
             id="path52"
             style="fill:#333333;fill-opacity:1;fill-rule:nonzero;stroke:none"
             d="m 0,0 -9.428,2.501 -0.164,-0.082 -5.625,-2.813 c -1.354,-0.677 -2.211,-2.062 -2.211,-3.577 l 0,-89.528 4.003,0 c 0.016,-2.212 1.44,-4 3.197,-4 l 9.6,0 c 1.768,0 3.2,1.807 3.2,4.035 l 0,89.507 C 2.572,-2.033 1.496,-0.377 0,0" /></g><g
           transform="translate(100,14.9434)"
           id="g54"><path
             id="path56"
             style="fill:#191919;fill-opacity:1;fill-rule:nonzero;stroke:none"
             d="m 0,0 c 8.885,-1.915 18.28,-2.943 28,-2.943 9.72,0 19.115,1.028 28,2.943 l 0,77.057 -56,0 L 0,0 Z" /></g><g
           transform="translate(100,92)"
           id="g58"><path
             id="path60"
             style="fill:#262626;fill-opacity:1;fill-rule:nonzero;stroke:none"
             d="m 0,0 0,-64 16,0 0,12 c 0,6.6 5.4,12 12,12 6.6,0 12,-5.4 12,-12 l 0,-12 16,0 0,64 -56,0 z" /></g><g
           transform="translate(147.8467,220.1597)"
           id="g62"><path
             id="path64"
             style="fill:#474747;fill-opacity:1;fill-rule:nonzero;stroke:none"
             d="m 0,0 -3.847,-96.16 -32,0 L -39.693,0 c -0.086,2.146 -1.85,3.84 -3.997,3.84 l -0.464,0 c -2.085,0 -3.821,-1.602 -3.987,-3.681 l -7.405,-92.564 c -0.2,-2.5 -0.204,-5.011 -0.012,-7.51 l 3.427,-44.551 c 0.16,-2.084 1.898,-3.694 3.988,-3.694 l 56.592,0 c 2.09,0 3.828,1.61 3.989,3.694 l 3.426,44.551 c 0.193,2.499 0.189,5.01 -0.011,7.51 L 8.448,0.159 C 8.281,2.238 6.546,3.84 4.461,3.84 l -0.465,0 C 1.85,3.84 0.086,2.146 0,0" /></g><path
           id="path66"
           style="fill:#333333;fill-opacity:1;fill-rule:nonzero;stroke:none"
           d="m 156,72 -56,0 0,20 56,0 0,-20 z" /><g
           transform="translate(78,47.5)"
           id="g68"><path
             id="path70"
             style="fill:#16a085;fill-opacity:1;fill-rule:nonzero;stroke:none"
             d="m 0,0 c -1.378,0 -2.5,1.121 -2.5,2.5 l 0,6.5 13,0 0,-6.5 C 10.5,1.121 9.378,0 8,0 L 0,0 Z" /></g><g
           transform="translate(89,57)"
           id="g72"><path
             id="path74"
             style="fill:#333333;fill-opacity:1;fill-rule:nonzero;stroke:none"
             d="m 0,0 -1,0 -12,0 -1,0 0,-1 0,-6 c 0,-1.654 1.346,-3 3,-3 l 8,0 c 1.654,0 3,1.346 3,3 l 0,6 0,1 z m -1,-1 0,-6 c 0,-1.104 -0.896,-2 -2,-2 l -8,0 c -1.104,0 -2,0.896 -2,2 l 0,6 12,0" /></g><path
           id="path76"
           style="fill:#1abf9f;fill-opacity:1;fill-rule:nonzero;stroke:none"
           d="m 84,48 -4,0 0,8 4,0 0,-8 z" /><path
           id="path78"
           style="fill:#333333;fill-opacity:1;fill-rule:nonzero;stroke:none"
           d="m 84,144 -2,0 0,36 2,0 0,-36 z" /><path
           id="path80"
           style="fill:#333333;fill-opacity:1;fill-rule:nonzero;stroke:none"
           d="m 88,140 -2,0 0,44 2,0 0,-44 z" /><path
           id="path82"
           style="fill:#333333;fill-opacity:1;fill-rule:nonzero;stroke:none"
           d="m 80,144 -2,0 0,36 2,0 0,-36 z" /><path
           id="path84"
           style="fill:#333333;fill-opacity:1;fill-rule:nonzero;stroke:none"
           d="m 76,148 -2,0 0,28 2,0 0,-28 z" /><path
           id="path86"
           style="fill:#333333;fill-opacity:1;fill-rule:nonzero;stroke:none"
           d="m 72,148 -2,0 0,28 2,0 0,-28 z" /><path
           id="path88"
           style="fill:#333333;fill-opacity:1;fill-rule:nonzero;stroke:none"
           d="m 68,152 -2,0 0,20 2,0 0,-20 z" /><path
           id="path90"
           style="fill:#333333;fill-opacity:1;fill-rule:nonzero;stroke:none"
           d="m 64,152 -2,0 0,20 2,0 0,-20 z" /><path
           id="path92"
           style="fill:#333333;fill-opacity:1;fill-rule:nonzero;stroke:none"
           d="m 60,156 -2,0 0,12 2,0 0,-12 z" /><path
           id="path94"
           style="fill:#333333;fill-opacity:1;fill-rule:nonzero;stroke:none"
           d="m 56,156 -2,0 0,12 2,0 0,-12 z" /><path
           id="path96"
           style="fill:#333333;fill-opacity:1;fill-rule:nonzero;stroke:none"
           d="m 52,160 -2,0 0,4 2,0 0,-4 z" /><path
           id="path98"
           style="fill:#333333;fill-opacity:1;fill-rule:nonzero;stroke:none"
           d="m 172,180 2,0 0,-36 -2,0 0,36 z" /><path
           id="path100"
           style="fill:#333333;fill-opacity:1;fill-rule:nonzero;stroke:none"
           d="m 168,184 2,0 0,-44 -2,0 0,44 z" /><path
           id="path102"
           style="fill:#333333;fill-opacity:1;fill-rule:nonzero;stroke:none"
           d="m 176,180 2,0 0,-36 -2,0 0,36 z" /><path
           id="path104"
           style="fill:#333333;fill-opacity:1;fill-rule:nonzero;stroke:none"
           d="m 180,176 2,0 0,-28 -2,0 0,28 z" /><path
           id="path106"
           style="fill:#333333;fill-opacity:1;fill-rule:nonzero;stroke:none"
           d="m 184,176 2,0 0,-28 -2,0 0,28 z" /><path
           id="path108"
           style="fill:#333333;fill-opacity:1;fill-rule:nonzero;stroke:none"
           d="m 188,172 2,0 0,-20 -2,0 0,20 z" /><path
           id="path110"
           style="fill:#333333;fill-opacity:1;fill-rule:nonzero;stroke:none"
           d="m 192,172 2,0 0,-20 -2,0 0,20 z" /><path
           id="path112"
           style="fill:#333333;fill-opacity:1;fill-rule:nonzero;stroke:none"
           d="m 196,168 2,0 0,-12 -2,0 0,12 z" /><path
           id="path114"
           style="fill:#333333;fill-opacity:1;fill-rule:nonzero;stroke:none"
           d="m 200,168 2,0 0,-12 -2,0 0,12 z" /><path
           id="path116"
           style="fill:#333333;fill-opacity:1;fill-rule:nonzero;stroke:none"
           d="m 204,164 2,0 0,-4 -2,0 0,4 z" /><g
           transform="translate(152,244)"
           id="g118"><path
             id="path120"
             style="fill:#333333;fill-opacity:1;fill-rule:nonzero;stroke:none"
             d="m 0,0 0,-10 c 0,-2.209 -1.791,-4 -4,-4 l -36,0 c -2.209,0 -4,1.791 -4,4 l 0,10 -2,0 0,-10 c 0,-3.309 2.691,-6 6,-6 l 36,0 c 3.309,0 6,2.691 6,6 L 2,0 0,0 Z" /></g><path
           id="path122"
           style="fill:#4c4c4c;fill-opacity:1;fill-rule:nonzero;stroke:none"
           d="m 144,242 -28,0 0,-2 28,0 0,2 z" /><path
           id="path124"
           style="fill:#4c4c4c;fill-opacity:1;fill-rule:nonzero;stroke:none"
           d="m 144,238 -28,0 0,-2 28,0 0,2 z" /><path
           id="path126"
           style="fill:#4c4c4c;fill-opacity:1;fill-rule:nonzero;stroke:none"
           d="m 144,234 -28,0 0,-2 28,0 0,2 z" /><path
           id="path128"
           style="fill:#333333;fill-opacity:1;fill-rule:nonzero;stroke:none"
           d="m 119,200 -2,0 0,16 2,0 0,-16 z" /><path
           id="path130"
           style="fill:#333333;fill-opacity:1;fill-rule:nonzero;stroke:none"
           d="m 123,200 -2,0 0,16 2,0 0,-16 z" /><path
           id="path132"
           style="fill:#333333;fill-opacity:1;fill-rule:nonzero;stroke:none"
           d="m 127,200 -2,0 0,16 2,0 0,-16 z" /><path
           id="path134"
           style="fill:#333333;fill-opacity:1;fill-rule:nonzero;stroke:none"
           d="m 131,200 -2,0 0,16 2,0 0,-16 z" /><path
           id="path136"
           style="fill:#333333;fill-opacity:1;fill-rule:nonzero;stroke:none"
           d="m 135,200 -2,0 0,16 2,0 0,-16 z" /><path
           id="path138"
           style="fill:#333333;fill-opacity:1;fill-rule:nonzero;stroke:none"
           d="m 139,200 -2,0 0,16 2,0 0,-16 z" /><path
           id="path140"
           style="fill:#333333;fill-opacity:1;fill-rule:nonzero;stroke:none"
           d="m 144,124 -32,0 0,4 32,0 0,-4 z" /><g
           transform="translate(76,186.0005)"
           id="g142"><path
             id="path144"
             style="fill:#333333;fill-opacity:1;fill-rule:nonzero;stroke:none"
             d="m 0,0 0,-0.001 c 0,-0.707 0.714,-1.191 1.372,-0.928 l 10,4 C 11.751,3.223 12,3.59 12,3.999 L 12,4 c 0,0.708 -0.714,1.191 -1.372,0.928 l -10,-4 C 0.249,0.776 0,0.409 0,0" /></g></g></g></g></svg>