<?xml version="1.0" encoding="UTF-8" standalone="no"?>
<svg
   xmlns:dc="http://purl.org/dc/elements/1.1/"
   xmlns:cc="http://creativecommons.org/ns#"
   xmlns:rdf="http://www.w3.org/1999/02/22-rdf-syntax-ns#"
   xmlns:svg="http://www.w3.org/2000/svg"
   xmlns="http://www.w3.org/2000/svg"
   viewBox="0 0 330.66665 330.66665"
   height="330.66666"
   width="330.66666"
   xml:space="preserve"
   id="svg2"
   version="1.1"><metadata
     id="metadata8"><rdf:RDF><cc:Work
         rdf:about=""><dc:format>image/svg+xml</dc:format><dc:type
           rdf:resource="http://purl.org/dc/dcmitype/StillImage" /></cc:Work></rdf:RDF></metadata><defs
     id="defs6"><clipPath
       id="clipPath18"
       clipPathUnits="userSpaceOnUse"><path
         id="path16"
         d="M 0,256 H 256 V 0 H 0 Z" /></clipPath><clipPath
       id="clipPath26"
       clipPathUnits="userSpaceOnUse"><path
         id="path24"
         d="M 4,252 H 252 V 4 H 4 Z" /></clipPath></defs><g
     transform="matrix(1.3333333,0,0,-1.3333333,-5.3333332,335.99999)"
     id="g10"><g
       id="g12"><g
         clip-path="url(#clipPath18)"
         id="g14"><g
           id="g20"><g
             id="g22" /><g
             id="g34"><g
               style="opacity:0.5"
               id="g32"
               clip-path="url(#clipPath26)"><g
                 id="g30"
                 transform="translate(232,252)"><path
                   id="path28"
                   style="fill:#ffffff;fill-opacity:1;fill-rule:nonzero;stroke:none"
                   d="m 0,0 h -40 -4 -4 -4 -4 -4 -4 -4 -4 -4 -4 -4 -4 -4 -4 -4 -4 -4 -4 -4 -4 -4 -4 -4 -4 -4 -4 -4 -4 -4 -4 -4 -4 -4 -36 c -11.028,0 -20,-8.972 -20,-20 v -212 c 0,-6.617 5.383,-12 12,-12 h 4 8 5.07 c 1.384,-2.392 3.969,-4 6.93,-4 h 4 c 2.961,0 5.546,1.608 6.93,4 h 1.07 12 16 20 56 20 16 20 8 16 4 c 6.617,0 12,5.383 12,12 V -20 C 20,-8.972 11.028,0 0,0" /></g></g></g></g><g
           transform="translate(240,16)"
           id="g36"><path
             id="path38"
             style="fill:#404040;fill-opacity:1;fill-rule:nonzero;stroke:none"
             d="m 0,0 h -224 c -2.2,0 -4,1.8 -4,4 v 212 c 0,6.6 5.4,12 12,12 H -8 c 6.6,0 12,-5.4 12,-12 V 4 C 4,1.8 2.2,0 0,0" /></g><g
           transform="translate(236,16)"
           id="g40"><path
             id="path42"
             style="fill:#4c4c4c;fill-opacity:1;fill-rule:nonzero;stroke:none"
             d="m 0,0 h -216 c -2.2,0 -4,1.8 -4,4 v 208.069 c 0,6.6 5.4,12 12,12 H -8 c 6.6,0 12,-5.4 12,-12 V 4 C 4,1.8 2.2,0 0,0" /></g><g
           transform="translate(64,52)"
           id="g44"><path
             id="path46"
             style="fill:#404040;fill-opacity:1;fill-rule:nonzero;stroke:none"
             d="m 0,0 h -20 c -2.209,0 -4,-1.791 -4,-4 v -32 h 8 v 28 h 28 z" /></g><g
           transform="translate(192,52)"
           id="g48"><path
             id="path50"
             style="fill:#404040;fill-opacity:1;fill-rule:nonzero;stroke:none"
             d="m 0,0 h 20 c 2.209,0 4,-1.791 4,-4 v -32 h -8 v 28 h -28 z" /></g><g
           transform="translate(128,236)"
           id="g52"><path
             id="path54"
             style="fill:#333333;fill-opacity:1;fill-rule:nonzero;stroke:none"
             d="m 0,0 c -57.438,0 -104,-46.563 -104,-104 0,-57.437 46.562,-104 104,-104 57.438,0 104,46.563 104,104 C 104,-46.563 57.438,0 0,0" /></g><g
           transform="translate(128,232.0757)"
           id="g56"><path
             id="path58"
             style="fill:#595959;fill-opacity:1;fill-rule:nonzero;stroke:none"
             d="m 0,0 c 55.182,0 100.075,-44.894 100.075,-100.076 0,-55.181 -44.893,-100.075 -100.075,-100.075 -55.182,0 -100.076,44.894 -100.076,100.075 C -100.076,-44.894 -55.182,0 0,0" /></g><path
           id="path60"
           style="fill:#4c4c4c;fill-opacity:1;fill-rule:nonzero;stroke:none"
           d="M 176,16 H 80 v 92 h 96 z" /><path
           id="path62"
           style="fill:#333333;fill-opacity:1;fill-rule:nonzero;stroke:none"
           d="M 80,108 H 16 v 4 h 64 z" /><path
           id="path64"
           style="fill:#333333;fill-opacity:1;fill-rule:nonzero;stroke:none"
           d="M 80,100 H 16 v 4 h 64 z" /><path
           id="path66"
           style="fill:#333333;fill-opacity:1;fill-rule:nonzero;stroke:none"
           d="M 80,92 H 16 v 4 h 64 z" /><path
           id="path68"
           style="fill:#333333;fill-opacity:1;fill-rule:nonzero;stroke:none"
           d="M 80,84 H 16 v 4 h 64 z" /><path
           id="path70"
           style="fill:#333333;fill-opacity:1;fill-rule:nonzero;stroke:none"
           d="M 80,76 H 16 v 4 h 64 z" /><path
           id="path72"
           style="fill:#333333;fill-opacity:1;fill-rule:nonzero;stroke:none"
           d="m 240,108 h -64 v 4 h 64 z" /><path
           id="path74"
           style="fill:#333333;fill-opacity:1;fill-rule:nonzero;stroke:none"
           d="m 240,100 h -64 v 4 h 64 z" /><path
           id="path76"
           style="fill:#333333;fill-opacity:1;fill-rule:nonzero;stroke:none"
           d="m 240,92 h -64 v 4 h 64 z" /><path
           id="path78"
           style="fill:#333333;fill-opacity:1;fill-rule:nonzero;stroke:none"
           d="m 240,84 h -64 v 4 h 64 z" /><path
           id="path80"
           style="fill:#333333;fill-opacity:1;fill-rule:nonzero;stroke:none"
           d="m 240,76 h -64 v 4 h 64 z" /><path
           id="path82"
           style="fill:#333333;fill-opacity:1;fill-rule:nonzero;stroke:none"
           d="M 80,68 H 16 v 4 h 64 z" /><path
           id="path84"
           style="fill:#333333;fill-opacity:1;fill-rule:nonzero;stroke:none"
           d="m 240,68 h -64 v 4 h 64 z" /><path
           id="path86"
           style="fill:#333333;fill-opacity:1;fill-rule:nonzero;stroke:none"
           d="m 96,40 h -2 v 64 h 2 z" /><path
           id="path88"
           style="fill:#333333;fill-opacity:1;fill-rule:nonzero;stroke:none"
           d="m 104,64 h -2 v 40 h 2 z" /><path
           id="path90"
           style="fill:#333333;fill-opacity:1;fill-rule:nonzero;stroke:none"
           d="m 112,64 h -2 v 40 h 2 z" /><path
           id="path92"
           style="fill:#333333;fill-opacity:1;fill-rule:nonzero;stroke:none"
           d="m 120,64 h -2 v 40 h 2 z" /><path
           id="path94"
           style="fill:#333333;fill-opacity:1;fill-rule:nonzero;stroke:none"
           d="m 140,64 h -2 v 40 h 2 z" /><path
           id="path96"
           style="fill:#404040;fill-opacity:1;fill-rule:nonzero;stroke:none"
           d="m 138,64 h -2 v 40 h 2 z" /><path
           id="path98"
           style="fill:#404040;fill-opacity:1;fill-rule:nonzero;stroke:none"
           d="m 118,64 h -2 v 40 h 2 z" /><path
           id="path100"
           style="fill:#404040;fill-opacity:1;fill-rule:nonzero;stroke:none"
           d="m 110,64 h -2 v 40 h 2 z" /><path
           id="path102"
           style="fill:#404040;fill-opacity:1;fill-rule:nonzero;stroke:none"
           d="m 102,64 h -2 v 40 h 2 z" /><path
           id="path104"
           style="fill:#404040;fill-opacity:1;fill-rule:nonzero;stroke:none"
           d="m 94,40 h -2 v 64 h 2 z" /><path
           id="path106"
           style="fill:#333333;fill-opacity:1;fill-rule:nonzero;stroke:none"
           d="m 88,40 h -2 v 64 h 2 z" /><path
           id="path108"
           style="fill:#404040;fill-opacity:1;fill-rule:nonzero;stroke:none"
           d="m 86,40 h -2 v 64 h 2 z" /><path
           id="path110"
           style="fill:#4c4c4c;fill-opacity:1;fill-rule:nonzero;stroke:none"
           d="M 88,240.069 H 84 V 244 h 4 z" /><path
           id="path112"
           style="fill:#4c4c4c;fill-opacity:1;fill-rule:nonzero;stroke:none"
           d="M 96,240.069 H 92 V 244 h 4 z" /><path
           id="path114"
           style="fill:#4c4c4c;fill-opacity:1;fill-rule:nonzero;stroke:none"
           d="m 104,240.069 h -4 V 244 h 4 z" /><path
           id="path116"
           style="fill:#4c4c4c;fill-opacity:1;fill-rule:nonzero;stroke:none"
           d="m 112,240.069 h -4 V 244 h 4 z" /><path
           id="path118"
           style="fill:#4c4c4c;fill-opacity:1;fill-rule:nonzero;stroke:none"
           d="m 120,240.069 h -4 V 244 h 4 z" /><path
           id="path120"
           style="fill:#4c4c4c;fill-opacity:1;fill-rule:nonzero;stroke:none"
           d="m 128,240.069 h -4 V 244 h 4 z" /><path
           id="path122"
           style="fill:#4c4c4c;fill-opacity:1;fill-rule:nonzero;stroke:none"
           d="m 136,240.069 h -4 V 244 h 4 z" /><path
           id="path124"
           style="fill:#4c4c4c;fill-opacity:1;fill-rule:nonzero;stroke:none"
           d="m 144,240.069 h -4 V 244 h 4 z" /><path
           id="path126"
           style="fill:#4c4c4c;fill-opacity:1;fill-rule:nonzero;stroke:none"
           d="m 152,240.069 h -4 V 244 h 4 z" /><path
           id="path128"
           style="fill:#4c4c4c;fill-opacity:1;fill-rule:nonzero;stroke:none"
           d="m 160,240.069 h -4 V 244 h 4 z" /><path
           id="path130"
           style="fill:#4c4c4c;fill-opacity:1;fill-rule:nonzero;stroke:none"
           d="m 168,240.069 h -4 V 244 h 4 z" /><path
           id="path132"
           style="fill:#4c4c4c;fill-opacity:1;fill-rule:nonzero;stroke:none"
           d="m 176,240.069 h -4 V 244 h 4 z" /><path
           id="path134"
           style="fill:#4c4c4c;fill-opacity:1;fill-rule:nonzero;stroke:none"
           d="m 184,240.069 h -4 V 244 h 4 z" /><path
           id="path136"
           style="fill:#4c4c4c;fill-opacity:1;fill-rule:nonzero;stroke:none"
           d="m 192,240.069 h -4 V 244 h 4 z" /><path
           id="path138"
           style="fill:#4c4c4c;fill-opacity:1;fill-rule:nonzero;stroke:none"
           d="M 80,240.069 H 76 V 244 h 4 z" /><path
           id="path140"
           style="fill:#4c4c4c;fill-opacity:1;fill-rule:nonzero;stroke:none"
           d="M 72,240.069 H 68 V 244 h 4 z" /><path
           id="path142"
           style="fill:#4c4c4c;fill-opacity:1;fill-rule:nonzero;stroke:none"
           d="M 64,240.069 H 60 V 244 h 4 z" /><path
           id="path144"
           style="fill:#333333;fill-opacity:1;fill-rule:nonzero;stroke:none"
           d="m 148,64 h -2 v 40 h 2 z" /><path
           id="path146"
           style="fill:#333333;fill-opacity:1;fill-rule:nonzero;stroke:none"
           d="m 156,64 h -2 v 40 h 2 z" /><path
           id="path148"
           style="fill:#333333;fill-opacity:1;fill-rule:nonzero;stroke:none"
           d="m 164,40 h -2 v 64 h 2 z" /><path
           id="path150"
           style="fill:#404040;fill-opacity:1;fill-rule:nonzero;stroke:none"
           d="m 146,64 h -2 v 40 h 2 z" /><path
           id="path152"
           style="fill:#404040;fill-opacity:1;fill-rule:nonzero;stroke:none"
           d="m 154,64 h -2 v 40 h 2 z" /><path
           id="path154"
           style="fill:#404040;fill-opacity:1;fill-rule:nonzero;stroke:none"
           d="m 162,40 h -2 v 64 h 2 z" /><path
           id="path156"
           style="fill:#333333;fill-opacity:1;fill-rule:nonzero;stroke:none"
           d="m 172,40 h -2 v 64 h 2 z" /><path
           id="path158"
           style="fill:#404040;fill-opacity:1;fill-rule:nonzero;stroke:none"
           d="m 170,40 h -2 v 64 h 2 z" /><g
           transform="translate(132.8945,92.4473)"
           id="g160"><path
             id="path162"
             style="fill:#333333;fill-opacity:1;fill-rule:nonzero;stroke:none"
             d="m 0,0 -4,8 c -0.169,0.339 -0.532,0.508 -0.895,0.508 v -36.955 h 2 V 1.316 l 1.106,-2.211 c 0.176,-0.35 0.528,-0.552 0.895,-0.552 0.151,0 0.303,0.034 0.447,0.105 C 0.047,-1.095 0.247,-0.494 0,0" /></g><g
           transform="translate(123.1055,92.4473)"
           id="g164"><path
             id="path166"
             style="fill:#3b3b3b;fill-opacity:1;fill-rule:nonzero;stroke:none"
             d="m 0,0 4,8 c 0.169,0.339 0.532,0.509 0.895,0.509 v -36.956 h -2 V 1.316 L 1.789,-0.895 C 1.613,-1.245 1.261,-1.447 0.894,-1.447 0.743,-1.447 0.591,-1.413 0.447,-1.342 -0.047,-1.095 -0.247,-0.494 0,0" /></g><g
           transform="translate(128,60)"
           id="g168"><path
             id="path170"
             style="fill:#333333;fill-opacity:1;fill-rule:nonzero;stroke:none"
             d="m 0,0 c -15.464,0 -28,-12.536 -28,-28 v -8 -8 h 56 v 8 8 C 28,-12.536 15.464,0 0,0" /></g><g
           transform="translate(36,184)"
           id="g172"><path
             id="path174"
             style="fill:#333333;fill-opacity:1;fill-rule:nonzero;stroke:none"
             d="M 0,0 H 4 C 6.209,0 0,-8 0,-8 h -20 l -4,4 4,4 z" /></g><g
           transform="translate(220.4756,184)"
           id="g176"><path
             id="path178"
             style="fill:#333333;fill-opacity:1;fill-rule:nonzero;stroke:none"
             d="M 0,0 H -4 C -6.209,0 0,-8 0,-8 H 19.999 L 24,-4 19.999,0 Z" /></g><path
           id="path180"
           style="fill:#16a085;fill-opacity:1;fill-rule:nonzero;stroke:none"
           d="m 40,12 h 4 v 4 h -4 z" /><g
           transform="translate(80,108)"
           id="g182"><path
             id="path184"
             style="fill:#333333;fill-opacity:1;fill-rule:nonzero;stroke:none"
             d="m 0,0 h 96 v -92 h 4 V 0 4 H 96 0 -4 V 0 -92 h 4 z" /></g></g></g></g></svg>