<?xml version="1.0" encoding="UTF-8" standalone="no"?>
<svg
   xmlns:dc="http://purl.org/dc/elements/1.1/"
   xmlns:cc="http://creativecommons.org/ns#"
   xmlns:rdf="http://www.w3.org/1999/02/22-rdf-syntax-ns#"
   xmlns:svg="http://www.w3.org/2000/svg"
   xmlns="http://www.w3.org/2000/svg"
   viewBox="0 0 307.07052 325.33307"
   height="325.33307"
   width="307.07053"
   xml:space="preserve"
   id="svg2"
   version="1.1"><metadata
     id="metadata8"><rdf:RDF><cc:Work
         rdf:about=""><dc:format>image/svg+xml</dc:format><dc:type
           rdf:resource="http://purl.org/dc/dcmitype/StillImage" /></cc:Work></rdf:RDF></metadata><defs
     id="defs6"><clipPath
       id="clipPath18"
       clipPathUnits="userSpaceOnUse"><path
         id="path16"
         d="M 0,256 H 256 V 0 H 0 Z" /></clipPath><clipPath
       id="clipPath26"
       clipPathUnits="userSpaceOnUse"><path
         id="path24"
         d="M 12.8483,250 H 243.152 V 6 H 12.8483 Z" /></clipPath><clipPath
       id="clipPath60"
       clipPathUnits="userSpaceOnUse"><path
         id="path58"
         d="M 0,256 H 256 V 0 H 0 Z" /></clipPath></defs><g
     transform="matrix(1.3333333,0,0,-1.3333333,-17.131066,333.33306)"
     id="g10"><g
       id="g12"><g
         clip-path="url(#clipPath18)"
         id="g14"><g
           id="g20"><g
             id="g22" /><g
             id="g34"><g
               style="opacity:0.5"
               id="g32"
               clip-path="url(#clipPath26)"><g
                 id="g30"
                 transform="translate(230.9932,103.8848)"><path
                   id="path28"
                   style="fill:#ffffff;fill-opacity:1;fill-rule:nonzero;stroke:none"
                   d="m 0,0 -2.286,4.115 h -0.707 v 40 h 0.707 L 0,48.23 l 10,18 2.158,3.885 L 10,74 0,92 -2.286,96.115 h -4.707 -20 -1.471 L -76.881,125.586 -86,142 l -2.286,4.115 h -4.707 -20 -4.707 l -2.286,-4.115 -9.119,-16.414 -48.417,-29.471 h -1.471 -20 -4.707 l -2.286,-4.115 -10,-18 -2.159,-3.885 2.159,-3.885 10,-18 2.286,-4.115 h 0.707 v -40 H -203.7 L -205.986,0 l -10,-18 -2.159,-3.885 2.159,-3.885 10,-18 2.286,-4.115 h 4.707 20 1.471 l 48.417,-29.47 9.119,-16.415 2.286,-4.115 h 4.707 20 4.707 l 2.286,4.115 9.119,16.415 48.417,29.47 h 1.471 20 4.707 L 0,-43.77 l 10,18 2.158,3.885 L 10,-18 Z" /></g></g></g></g></g></g><g
       transform="translate(220,76)"
       id="g36"><path
         id="path38"
         style="fill:#737373;fill-opacity:1;fill-rule:nonzero;stroke:none"
         d="m 0,0 v 104 l -92,56 -92,-56 V 0 l 92,-56 z" /></g><g
       transform="translate(147.1816,214.0005)"
       id="g40"><path
         id="path42"
         style="fill:#e6e6e6;fill-opacity:1;fill-rule:nonzero;stroke:none"
         d="M 0,0 -3.182,1.837 -3.464,2 l 2,3.464 3.464,-2 z m 6.929,-4 -3.464,2 2,3.464 3.464,-2 z m 6.927,-4 -3.463,2 2,3.464 3.463,-2 z m 6.929,-4 -3.464,2 2,3.464 3.464,-2 z m 6.928,-4 -3.464,2 2,3.464 3.464,-2 z m 6.929,-4 -3.464,2 2,3.464 3.464,-2 z m 6.927,-4 -3.464,2 2,3.464 3.464,-2 z m 6.929,-4 -3.464,2 2,3.464 3.464,-2 z m 20.32,-36.268 h -4 v 4 h 4 z m 0,-8 h -4 v 4 h 4 z m 0,-8 h -4 v 4 h 4 z m 0,-8 h -4 v 4 h 4 z m 0,-8 h -4 v 4 h 4 z m 0,-8 h -4 v 4 h 4 z m 0,-8 h -4 v 4 h 4 z M 47.034,-150 l -2,3.464 3.464,2 2,-3.464 z m -6.929,-4 -2,3.464 3.464,2 2,-3.464 z m -6.927,-4 -2,3.464 3.464,2 2,-3.464 z m -6.929,-4 -2,3.464 3.464,2 2,-3.464 z m -6.928,-4 -2,3.464 3.464,2 2,-3.464 z m -6.928,-4 -2,3.464 3.463,2 2,-3.464 z m -6.928,-4 -2,3.464 3.464,2 2,-3.464 z m -6.929,-4 -2,3.464 3.465,2 2,-3.464 z" /></g><g
       transform="translate(117.21,223.7319)"
       id="g44"><path
         id="path46"
         style="fill:#e6e6e6;fill-opacity:1;fill-rule:nonzero;stroke:none"
         d="m 0,0 2,-3.464 -3.464,-2 -2,3.464 m -6.928,-4 3.464,2 2,-3.464 -3.464,-2 z m -6.928,-4 3.464,2 2,-3.464 -3.464,-2 z m -6.928,-4 3.464,2 2,-3.464 -3.464,-2 z m -6.929,-4 3.464,2 2,-3.464 -3.464,-2 z m -6.927,-4 3.463,2 2,-3.464 -3.463,-2 z m -6.929,-4 3.464,2 2,-3.464 -3.464,-2 z m -6.928,-4 3.464,2 2,-3.464 -3.464,-2 z m -6.929,-4 3.464,2 2,-3.464 -3.464,-2 z m -18.32,-35.732 h 4 v -4 h -4 z m 0,-8 h 4 v -4 h -4 z m 0,-8 h 4 v -4 h -4 z m 0,-8 h 4 v -4 h -4 z m 0,-8 h 4 v -4 h -4 z m 0,-8 h 4 v -4 h -4 z m 0,-8 h 4 v -4 h -4 z m 18.32,-39.732 2,3.464 3.464,-2 -2,-3.464 z m 6.929,-4 2,3.464 3.464,-2 -2,-3.464 z m 6.928,-4 2,3.464 3.464,-2 -2,-3.464 z m 6.929,-4 2,3.464 3.463,-2 -2,-3.464 z m 6.927,-4 2,3.464 3.464,-2 -2,-3.464 z m 6.929,-4 2,3.464 3.464,-2 -2,-3.464 z m 6.928,-4 2,3.464 3.464,-2 -2,-3.464 z m 6.927,-4 2,3.464 3.465,-2 -2,-3.464 z" /></g><path
       id="path48"
       style="fill:#e6e6e6;fill-opacity:1;fill-rule:nonzero;stroke:none"
       d="m 130,172 h -4 v -8 h 4 z" /><path
       id="path50"
       style="fill:#e6e6e6;fill-opacity:1;fill-rule:nonzero;stroke:none"
       d="m 126,196 h 4 v 8 h -4 z" /><path
       id="path52"
       style="fill:#e6e6e6;fill-opacity:1;fill-rule:nonzero;stroke:none"
       d="m 126,180 h 4 v 8 h -4 z" /><g
       id="g54"><g
         clip-path="url(#clipPath60)"
         id="g56"><g
           transform="translate(158.4229,108.7637)"
           id="g62"><path
             id="path64"
             style="fill:#e6e6e6;fill-opacity:1;fill-rule:nonzero;stroke:none"
             d="m 0,0 6.48,-3.534 1.916,3.512 -6.44,3.511 C 1.369,2.286 0.713,1.124 0,0" /></g><g
           transform="translate(178.9492,97.5674)"
           id="g66"><path
             id="path68"
             style="fill:#e6e6e6;fill-opacity:1;fill-rule:nonzero;stroke:none"
             d="M 0,0 1.916,3.512 -5.107,7.343 -7.023,3.831 Z" /></g><g
           transform="translate(207.042,82.2441)"
           id="g70"><path
             id="path72"
             style="fill:#e6e6e6;fill-opacity:1;fill-rule:nonzero;stroke:none"
             d="M 0,0 1.916,3.512 -5.107,7.343 -7.023,3.831 Z" /></g><g
           transform="translate(54.0654,89.5869)"
           id="g74"><path
             id="path76"
             style="fill:#e6e6e6;fill-opacity:1;fill-rule:nonzero;stroke:none"
             d="m 0,0 -7.023,-3.831 1.916,-3.512 7.023,3.831 z" /></g><g
           transform="translate(187.8877,97.248)"
           id="g78"><path
             id="path80"
             style="fill:#e6e6e6;fill-opacity:1;fill-rule:nonzero;stroke:none"
             d="m 0,0 -1.915,-3.512 7.023,-3.83 1.915,3.512 z" /></g><g
           transform="translate(95.6211,112.2539)"
           id="g82"><path
             id="path84"
             style="fill:#e6e6e6;fill-opacity:1;fill-rule:nonzero;stroke:none"
             d="m 0,0 -6.44,-3.513 1.916,-3.511 6.48,3.534 C 1.244,-2.366 0.586,-1.204 0,0" /></g><g
           transform="translate(68.1113,97.248)"
           id="g86"><path
             id="path88"
             style="fill:#e6e6e6;fill-opacity:1;fill-rule:nonzero;stroke:none"
             d="m 0,0 -7.023,-3.83 1.916,-3.512 7.023,3.83 z" /></g><g
           transform="translate(82.1582,104.9102)"
           id="g90"><path
             id="path92"
             style="fill:#e6e6e6;fill-opacity:1;fill-rule:nonzero;stroke:none"
             d="m 0,0 -7.023,-3.831 1.916,-3.512 7.023,3.831 z" /></g><g
           transform="translate(160,110)"
           id="g94"><path
             id="path96"
             style="fill:#191919;fill-opacity:1;fill-rule:nonzero;stroke:none"
             d="M 0,0 V 36 L -32,54 -64,36 V 0 l 32,-18 z" /></g><g
           transform="translate(136.6201,132.3613)"
           id="g98"><path
             id="path100"
             style="fill:#d9d9d9;fill-opacity:1;fill-rule:nonzero;stroke:none"
             d="m 0,0 h -8.62 -8.62 v 5.422 c 0,4.849 3.867,8.795 8.62,8.795 4.753,0 8.62,-3.946 8.62,-8.795 z m 5.963,0 h -0.65 v 5.422 c 0,7.851 -6.238,14.217 -13.933,14.217 -7.695,0 -13.934,-6.366 -13.934,-14.217 V 0 h -0.649 c -0.783,0 -1.417,-0.647 -1.417,-1.446 v -17.469 c 0,-0.799 0.634,-1.446 1.417,-1.446 H 5.963 c 0.782,0 1.417,0.647 1.417,1.446 V -1.446 C 7.38,-0.647 6.745,0 5.963,0" /></g><g
           transform="translate(52,192)"
           id="g102"><path
             id="path104"
             style="fill:#191919;fill-opacity:1;fill-rule:nonzero;stroke:none"
             d="m 0,0 h -20 l -10,-18 10,-18 H 0 l 10,18 z" /></g><g
           transform="translate(224,192)"
           id="g106"><path
             id="path108"
             style="fill:#191919;fill-opacity:1;fill-rule:nonzero;stroke:none"
             d="m 0,0 h -20 l -10,-18 10,-18 H 0 l 10,18 z" /></g><g
           transform="translate(138,50)"
           id="g110"><path
             id="path112"
             style="fill:#191919;fill-opacity:1;fill-rule:nonzero;stroke:none"
             d="m 0,0 h -20 l -10,-18 10,-18 H 0 l 10,18 z" /></g><g
           transform="translate(138,242)"
           id="g114"><path
             id="path116"
             style="fill:#4c4c4c;fill-opacity:1;fill-rule:nonzero;stroke:none"
             d="m 0,0 h -20 l -10,-18 10,-18 H 0 l 10,18 z" /></g><g
           transform="translate(52,100)"
           id="g118"><path
             id="path120"
             style="fill:#4c4c4c;fill-opacity:1;fill-rule:nonzero;stroke:none"
             d="m 0,0 h -20 l -10,-18 10,-18 H 0 l 10,18 z" /></g><g
           transform="translate(224,100)"
           id="g122"><path
             id="path124"
             style="fill:#4c4c4c;fill-opacity:1;fill-rule:nonzero;stroke:none"
             d="m 0,0 h -20 l -10,-18 10,-18 H 0 l 10,18 z" /></g></g></g></g></svg>