<?xml version="1.0" encoding="UTF-8" standalone="no"?>
<svg
   xmlns:dc="http://purl.org/dc/elements/1.1/"
   xmlns:cc="http://creativecommons.org/ns#"
   xmlns:rdf="http://www.w3.org/1999/02/22-rdf-syntax-ns#"
   xmlns:svg="http://www.w3.org/2000/svg"
   xmlns="http://www.w3.org/2000/svg"
   viewBox="0 0 330.66665 170.66665"
   height="170.66666"
   width="330.66666"
   xml:space="preserve"
   id="svg2"
   version="1.1"><metadata
     id="metadata8"><rdf:RDF><cc:Work
         rdf:about=""><dc:format>image/svg+xml</dc:format><dc:type
           rdf:resource="http://purl.org/dc/dcmitype/StillImage" /></cc:Work></rdf:RDF></metadata><defs
     id="defs6"><clipPath
       id="clipPath18"
       clipPathUnits="userSpaceOnUse"><path
         id="path16"
         d="M 0,256 H 256 V 0 H 0 Z" /></clipPath><clipPath
       id="clipPath26"
       clipPathUnits="userSpaceOnUse"><path
         id="path24"
         d="M 4,192 H 252 V 64 H 4 Z" /></clipPath></defs><g
     transform="matrix(1.3333333,0,0,-1.3333333,-5.3333332,255.99999)"
     id="g10"><g
       id="g12"><g
         clip-path="url(#clipPath18)"
         id="g14"><g
           id="g20"><g
             id="g22" /><g
             id="g34"><g
               style="opacity:0.5"
               id="g32"
               clip-path="url(#clipPath26)"><g
                 id="g30"
                 transform="translate(236,192)"><path
                   id="path28"
                   style="fill:#ffffff;fill-opacity:1;fill-rule:nonzero;stroke:none"
                   d="m 0,0 h -216 c -8.822,0 -16,-7.178 -16,-16 v -92 -1.298 l 0.411,-1.231 3.544,-10.633 c 1.363,-4.09 5.176,-6.838 9.486,-6.838 H 2.559 c 4.31,0 8.123,2.748 9.486,6.838 l 3.545,10.633 0.41,1.231 V -108 -16 C 16,-7.178 8.822,0 0,0" /></g></g></g></g><g
           transform="translate(244,84)"
           id="g36"><path
             id="path38"
             style="fill:#404040;fill-opacity:1;fill-rule:nonzero;stroke:none"
             d="m 0,0 h -232 v 92 c 0,4.418 3.582,8 8,8 H -8 c 4.418,0 8,-3.582 8,-8 z" /></g><g
           transform="translate(244,84)"
           id="g40"><path
             id="path42"
             style="fill:#262626;fill-opacity:1;fill-rule:nonzero;stroke:none"
             d="m 0,0 h -232 l 3.544,-10.633 c 0.272,-0.816 1.037,-1.367 1.897,-1.367 H -5.441 c 0.86,0 1.625,0.551 1.897,1.367 z" /></g><g
           transform="translate(232,84)"
           id="g44"><path
             id="path46"
             style="fill:#4c4c4c;fill-opacity:1;fill-rule:nonzero;stroke:none"
             d="m 0,0 h -204 v 60 c 0,4.418 3.582,8 8,8 H -8 c 4.418,0 8,-3.582 8,-8 z" /></g><g
           transform="translate(216,88)"
           id="g48"><path
             id="path50"
             style="fill:#d4a600;fill-opacity:1;fill-rule:nonzero;stroke:none"
             d="m 0,0 h -172 c -2.209,0 -4,1.791 -4,4 v 44 c 0,2.209 1.791,4 4,4 H 0 c 2.209,0 4,-1.791 4,-4 V 4 C 4,1.791 2.209,0 0,0" /></g><g
           transform="translate(52,104)"
           id="g52"><path
             id="path54"
             style="fill:#3b3224;fill-opacity:1;fill-rule:nonzero;stroke:none"
             d="m 0,0 h -4 c -2.2,0 -4,-1.8 -4,-4 v -4 c 0,-2.2 1.8,-4 4,-4 h 4 c 2.2,0 4,1.8 4,4 v 4 C 4,-1.8 2.2,0 0,0" /></g><g
           transform="translate(52,102)"
           id="g56"><path
             id="path58"
             style="fill:#eac500;fill-opacity:1;fill-rule:nonzero;stroke:none"
             d="M 0,0 C 1.103,0 2,-0.897 2,-2 V -6 C 2,-7.103 1.103,-8 0,-8 h -4 c -1.103,0 -2,0.897 -2,2 v 4 c 0,1.103 0.897,2 2,2 h 4" /></g><g
           transform="translate(64,104)"
           id="g60"><path
             id="path62"
             style="fill:#3b3224;fill-opacity:1;fill-rule:nonzero;stroke:none"
             d="m 0,0 h -4 c -2.2,0 -4,-1.8 -4,-4 v -4 c 0,-2.2 1.8,-4 4,-4 h 4 c 2.2,0 4,1.8 4,4 v 4 C 4,-1.8 2.2,0 0,0" /></g><g
           transform="translate(64,102)"
           id="g64"><path
             id="path66"
             style="fill:#eac500;fill-opacity:1;fill-rule:nonzero;stroke:none"
             d="M 0,0 C 1.103,0 2,-0.897 2,-2 V -6 C 2,-7.103 1.103,-8 0,-8 h -4 c -1.103,0 -2,0.897 -2,2 v 4 c 0,1.103 0.897,2 2,2 h 4" /></g><g
           transform="translate(76,104)"
           id="g68"><path
             id="path70"
             style="fill:#3b3224;fill-opacity:1;fill-rule:nonzero;stroke:none"
             d="m 0,0 h -4 c -2.2,0 -4,-1.8 -4,-4 v -4 c 0,-2.2 1.8,-4 4,-4 h 4 c 2.2,0 4,1.8 4,4 v 4 C 4,-1.8 2.2,0 0,0" /></g><g
           transform="translate(76,102)"
           id="g72"><path
             id="path74"
             style="fill:#eac500;fill-opacity:1;fill-rule:nonzero;stroke:none"
             d="M 0,0 C 1.103,0 2,-0.897 2,-2 V -6 C 2,-7.103 1.103,-8 0,-8 h -4 c -1.103,0 -2,0.897 -2,2 v 4 c 0,1.103 0.897,2 2,2 h 4" /></g><g
           transform="translate(88,104)"
           id="g76"><path
             id="path78"
             style="fill:#3b3224;fill-opacity:1;fill-rule:nonzero;stroke:none"
             d="m 0,0 h -4 c -2.2,0 -4,-1.8 -4,-4 v -4 c 0,-2.2 1.8,-4 4,-4 h 4 c 2.2,0 4,1.8 4,4 v 4 C 4,-1.8 2.2,0 0,0" /></g><g
           transform="translate(88,102)"
           id="g80"><path
             id="path82"
             style="fill:#eac500;fill-opacity:1;fill-rule:nonzero;stroke:none"
             d="M 0,0 C 1.103,0 2,-0.897 2,-2 V -6 C 2,-7.103 1.103,-8 0,-8 h -4 c -1.103,0 -2,0.897 -2,2 v 4 c 0,1.103 0.897,2 2,2 h 4" /></g><g
           transform="translate(100,104)"
           id="g84"><path
             id="path86"
             style="fill:#3b3224;fill-opacity:1;fill-rule:nonzero;stroke:none"
             d="m 0,0 h -4 c -2.2,0 -4,-1.8 -4,-4 v -4 c 0,-2.2 1.8,-4 4,-4 h 4 c 2.2,0 4,1.8 4,4 v 4 C 4,-1.8 2.2,0 0,0" /></g><g
           transform="translate(100,102)"
           id="g88"><path
             id="path90"
             style="fill:#eac500;fill-opacity:1;fill-rule:nonzero;stroke:none"
             d="M 0,0 C 1.103,0 2,-0.897 2,-2 V -6 C 2,-7.103 1.103,-8 0,-8 h -4 c -1.103,0 -2,0.897 -2,2 v 4 c 0,1.103 0.897,2 2,2 h 4" /></g><g
           transform="translate(112,104)"
           id="g92"><path
             id="path94"
             style="fill:#3b3224;fill-opacity:1;fill-rule:nonzero;stroke:none"
             d="m 0,0 h -4 c -2.2,0 -4,-1.8 -4,-4 v -4 c 0,-2.2 1.8,-4 4,-4 h 4 c 2.2,0 4,1.8 4,4 v 4 C 4,-1.8 2.2,0 0,0" /></g><g
           transform="translate(112,102)"
           id="g96"><path
             id="path98"
             style="fill:#eac500;fill-opacity:1;fill-rule:nonzero;stroke:none"
             d="M 0,0 C 1.103,0 2,-0.897 2,-2 V -6 C 2,-7.103 1.103,-8 0,-8 h -4 c -1.103,0 -2,0.897 -2,2 v 4 c 0,1.103 0.897,2 2,2 h 4" /></g><g
           transform="translate(124,104)"
           id="g100"><path
             id="path102"
             style="fill:#3b3224;fill-opacity:1;fill-rule:nonzero;stroke:none"
             d="m 0,0 h -4 c -2.2,0 -4,-1.8 -4,-4 v -4 c 0,-2.2 1.8,-4 4,-4 h 4 c 2.2,0 4,1.8 4,4 v 4 C 4,-1.8 2.2,0 0,0" /></g><g
           transform="translate(124,102)"
           id="g104"><path
             id="path106"
             style="fill:#eac500;fill-opacity:1;fill-rule:nonzero;stroke:none"
             d="M 0,0 C 1.103,0 2,-0.897 2,-2 V -6 C 2,-7.103 1.103,-8 0,-8 h -4 c -1.103,0 -2,0.897 -2,2 v 4 c 0,1.103 0.897,2 2,2 h 4" /></g><g
           transform="translate(136,104)"
           id="g108"><path
             id="path110"
             style="fill:#3b3224;fill-opacity:1;fill-rule:nonzero;stroke:none"
             d="m 0,0 h -4 c -2.2,0 -4,-1.8 -4,-4 v -4 c 0,-2.2 1.8,-4 4,-4 h 4 c 2.2,0 4,1.8 4,4 v 4 C 4,-1.8 2.2,0 0,0" /></g><g
           transform="translate(136,102)"
           id="g112"><path
             id="path114"
             style="fill:#eac500;fill-opacity:1;fill-rule:nonzero;stroke:none"
             d="M 0,0 C 1.103,0 2,-0.897 2,-2 V -6 C 2,-7.103 1.103,-8 0,-8 h -4 c -1.103,0 -2,0.897 -2,2 v 4 c 0,1.103 0.897,2 2,2 h 4" /></g><g
           transform="translate(148,104)"
           id="g116"><path
             id="path118"
             style="fill:#3b3224;fill-opacity:1;fill-rule:nonzero;stroke:none"
             d="m 0,0 h -4 c -2.2,0 -4,-1.8 -4,-4 v -4 c 0,-2.2 1.8,-4 4,-4 h 4 c 2.2,0 4,1.8 4,4 v 4 C 4,-1.8 2.2,0 0,0" /></g><g
           transform="translate(148,102)"
           id="g120"><path
             id="path122"
             style="fill:#eac500;fill-opacity:1;fill-rule:nonzero;stroke:none"
             d="M 0,0 C 1.103,0 2,-0.897 2,-2 V -6 C 2,-7.103 1.103,-8 0,-8 h -4 c -1.103,0 -2,0.897 -2,2 v 4 c 0,1.103 0.897,2 2,2 h 4" /></g><g
           transform="translate(160,104)"
           id="g124"><path
             id="path126"
             style="fill:#3b3224;fill-opacity:1;fill-rule:nonzero;stroke:none"
             d="m 0,0 h -4 c -2.2,0 -4,-1.8 -4,-4 v -4 c 0,-2.2 1.8,-4 4,-4 h 4 c 2.2,0 4,1.8 4,4 v 4 C 4,-1.8 2.2,0 0,0" /></g><g
           transform="translate(160,102)"
           id="g128"><path
             id="path130"
             style="fill:#eac500;fill-opacity:1;fill-rule:nonzero;stroke:none"
             d="M 0,0 C 1.103,0 2,-0.897 2,-2 V -6 C 2,-7.103 1.103,-8 0,-8 h -4 c -1.103,0 -2,0.897 -2,2 v 4 c 0,1.103 0.897,2 2,2 h 4" /></g><g
           transform="translate(172,104)"
           id="g132"><path
             id="path134"
             style="fill:#3b3224;fill-opacity:1;fill-rule:nonzero;stroke:none"
             d="m 0,0 h -4 c -2.2,0 -4,-1.8 -4,-4 v -4 c 0,-2.2 1.8,-4 4,-4 h 4 c 2.2,0 4,1.8 4,4 v 4 C 4,-1.8 2.2,0 0,0" /></g><g
           transform="translate(172,102)"
           id="g136"><path
             id="path138"
             style="fill:#eac500;fill-opacity:1;fill-rule:nonzero;stroke:none"
             d="M 0,0 C 1.103,0 2,-0.897 2,-2 V -6 C 2,-7.103 1.103,-8 0,-8 h -4 c -1.103,0 -2,0.897 -2,2 v 4 c 0,1.103 0.897,2 2,2 h 4" /></g><g
           transform="translate(184,104)"
           id="g140"><path
             id="path142"
             style="fill:#3b3224;fill-opacity:1;fill-rule:nonzero;stroke:none"
             d="m 0,0 h -4 c -2.2,0 -4,-1.8 -4,-4 v -4 c 0,-2.2 1.8,-4 4,-4 h 4 c 2.2,0 4,1.8 4,4 v 4 C 4,-1.8 2.2,0 0,0" /></g><g
           transform="translate(184,102)"
           id="g144"><path
             id="path146"
             style="fill:#eac500;fill-opacity:1;fill-rule:nonzero;stroke:none"
             d="M 0,0 C 1.103,0 2,-0.897 2,-2 V -6 C 2,-7.103 1.103,-8 0,-8 h -4 c -1.103,0 -2,0.897 -2,2 v 4 c 0,1.103 0.897,2 2,2 h 4" /></g><g
           transform="translate(196,104)"
           id="g148"><path
             id="path150"
             style="fill:#3b3224;fill-opacity:1;fill-rule:nonzero;stroke:none"
             d="m 0,0 h -4 c -2.2,0 -4,-1.8 -4,-4 v -4 c 0,-2.2 1.8,-4 4,-4 h 4 c 2.2,0 4,1.8 4,4 v 4 C 4,-1.8 2.2,0 0,0" /></g><g
           transform="translate(196,102)"
           id="g152"><path
             id="path154"
             style="fill:#eac500;fill-opacity:1;fill-rule:nonzero;stroke:none"
             d="M 0,0 C 1.103,0 2,-0.897 2,-2 V -6 C 2,-7.103 1.103,-8 0,-8 h -4 c -1.103,0 -2,0.897 -2,2 v 4 c 0,1.103 0.897,2 2,2 h 4" /></g><g
           transform="translate(212,104)"
           id="g156"><path
             id="path158"
             style="fill:#3b3224;fill-opacity:1;fill-rule:nonzero;stroke:none"
             d="m 0,0 h -4 c -2.2,0 -4,-1.8 -4,-4 v -4 c 0,-2.2 1.8,-4 4,-4 h 4 c 2.2,0 4,1.8 4,4 v 4 C 4,-1.8 2.2,0 0,0" /></g><g
           transform="translate(212,102)"
           id="g160"><path
             id="path162"
             style="fill:#eac500;fill-opacity:1;fill-rule:nonzero;stroke:none"
             d="M 0,0 C 1.103,0 2,-0.897 2,-2 V -6 C 2,-7.103 1.103,-8 0,-8 h -4 c -1.103,0 -2,0.897 -2,2 v 4 c 0,1.103 0.897,2 2,2 h 4" /></g><g
           transform="translate(212,128)"
           id="g164"><path
             id="path166"
             style="fill:#3b3224;fill-opacity:1;fill-rule:nonzero;stroke:none"
             d="m 0,0 h -4 c -2.2,0 -4,-1.8 -4,-4 v -4 c 0,-2.2 1.8,-4 4,-4 h 4 c 2.2,0 4,1.8 4,4 v 4 C 4,-1.8 2.2,0 0,0" /></g><g
           transform="translate(212,126)"
           id="g168"><path
             id="path170"
             style="fill:#eac500;fill-opacity:1;fill-rule:nonzero;stroke:none"
             d="M 0,0 C 1.103,0 2,-0.897 2,-2 V -6 C 2,-7.103 1.103,-8 0,-8 h -4 c -1.103,0 -2,0.897 -2,2 v 4 c 0,1.103 0.897,2 2,2 h 4" /></g><g
           transform="translate(196,128)"
           id="g172"><path
             id="path174"
             style="fill:#3b3224;fill-opacity:1;fill-rule:nonzero;stroke:none"
             d="m 0,0 h -4 c -2.2,0 -4,-1.8 -4,-4 v -4 c 0,-2.2 1.8,-4 4,-4 h 4 c 2.2,0 4,1.8 4,4 v 4 C 4,-1.8 2.2,0 0,0" /></g><g
           transform="translate(196,126)"
           id="g176"><path
             id="path178"
             style="fill:#eac500;fill-opacity:1;fill-rule:nonzero;stroke:none"
             d="M 0,0 C 1.103,0 2,-0.897 2,-2 V -6 C 2,-7.103 1.103,-8 0,-8 h -4 c -1.103,0 -2,0.897 -2,2 v 4 c 0,1.103 0.897,2 2,2 h 4" /></g><g
           transform="translate(148,128)"
           id="g180"><path
             id="path182"
             style="fill:#3b3224;fill-opacity:1;fill-rule:nonzero;stroke:none"
             d="m 0,0 h -4 c -2.2,0 -4,-1.8 -4,-4 v -4 c 0,-2.2 1.8,-4 4,-4 h 4 c 2.2,0 4,1.8 4,4 v 4 C 4,-1.8 2.2,0 0,0" /></g><g
           transform="translate(148,126)"
           id="g184"><path
             id="path186"
             style="fill:#eac500;fill-opacity:1;fill-rule:nonzero;stroke:none"
             d="M 0,0 C 1.103,0 2,-0.897 2,-2 V -6 C 2,-7.103 1.103,-8 0,-8 h -4 c -1.103,0 -2,0.897 -2,2 v 4 c 0,1.103 0.897,2 2,2 h 4" /></g><g
           transform="translate(172,136)"
           id="g188"><path
             id="path190"
             style="fill:#3b3224;fill-opacity:1;fill-rule:nonzero;stroke:none"
             d="m 0,0 h -4 c -2.2,0 -4,-1.8 -4,-4 v -4 c 0,-2.2 1.8,-4 4,-4 h 4 c 2.2,0 4,1.8 4,4 v 4 C 4,-1.8 2.2,0 0,0" /></g><g
           transform="translate(172,134)"
           id="g192"><path
             id="path194"
             style="fill:#eac500;fill-opacity:1;fill-rule:nonzero;stroke:none"
             d="M 0,0 C 1.103,0 2,-0.897 2,-2 V -6 C 2,-7.103 1.103,-8 0,-8 h -4 c -1.103,0 -2,0.897 -2,2 v 4 c 0,1.103 0.897,2 2,2 h 4" /></g><g
           transform="translate(172,120)"
           id="g196"><path
             id="path198"
             style="fill:#3b3224;fill-opacity:1;fill-rule:nonzero;stroke:none"
             d="m 0,0 h -4 c -2.2,0 -4,-1.8 -4,-4 v -4 c 0,-2.2 1.8,-4 4,-4 h 4 c 2.2,0 4,1.8 4,4 v 4 C 4,-1.8 2.2,0 0,0" /></g><g
           transform="translate(172,118)"
           id="g200"><path
             id="path202"
             style="fill:#eac500;fill-opacity:1;fill-rule:nonzero;stroke:none"
             d="M 0,0 C 1.103,0 2,-0.897 2,-2 V -6 C 2,-7.103 1.103,-8 0,-8 h -4 c -1.103,0 -2,0.897 -2,2 v 4 c 0,1.103 0.897,2 2,2 h 4" /></g><g
           transform="translate(227,176)"
           id="g204"><path
             id="path206"
             style="fill:#333333;fill-opacity:1;fill-rule:nonzero;stroke:none"
             d="M 0,0 H -59 V 2 H 0 C 0.553,2 1,1.552 1,1 1,0.448 0.553,0 0,0" /></g><g
           transform="translate(227,164)"
           id="g208"><path
             id="path210"
             style="fill:#333333;fill-opacity:1;fill-rule:nonzero;stroke:none"
             d="M 0,0 H -59 V 2 H 0 C 0.553,2 1,1.552 1,1 1,0.448 0.553,0 0,0" /></g><g
           transform="translate(29,176)"
           id="g212"><path
             id="path214"
             style="fill:#333333;fill-opacity:1;fill-rule:nonzero;stroke:none"
             d="M 0,0 H 59 V 2 H 0 C -0.552,2 -1,1.552 -1,1 -1,0.448 -0.552,0 0,0" /></g><g
           transform="translate(29,172)"
           id="g216"><path
             id="path218"
             style="fill:#333333;fill-opacity:1;fill-rule:nonzero;stroke:none"
             d="M 0,0 H 59 V 2 H 0 C -0.552,2 -1,1.552 -1,1 -1,0.448 -0.552,0 0,0" /></g><g
           transform="translate(29,168)"
           id="g220"><path
             id="path222"
             style="fill:#333333;fill-opacity:1;fill-rule:nonzero;stroke:none"
             d="M 0,0 H 59 V 2 H 0 C -0.552,2 -1,1.552 -1,1 -1,0.448 -0.552,0 0,0" /></g><g
           transform="translate(29,164)"
           id="g224"><path
             id="path226"
             style="fill:#333333;fill-opacity:1;fill-rule:nonzero;stroke:none"
             d="M 0,0 H 59 V 2 H 0 C -0.552,2 -1,1.552 -1,1 -1,0.448 -0.552,0 0,0" /></g><g
           transform="translate(216,174)"
           id="g228"><path
             id="path230"
             style="fill:#333333;fill-opacity:1;fill-rule:nonzero;stroke:none"
             d="M 0,0 H -48 V -2 H -3.445 C -2.752,-0.81 -1.477,0 0,0" /></g><g
           transform="translate(219.4453,172)"
           id="g232"><path
             id="path234"
             style="fill:#333333;fill-opacity:1;fill-rule:nonzero;stroke:none"
             d="m 0,0 h 7.555 c 0.552,0 1,0.448 1,1 0,0.552 -0.448,1 -1,1 h -11 C -1.969,2 -0.693,1.19 0,0" /></g><g
           transform="translate(212,170)"
           id="g236"><path
             id="path238"
             style="fill:#333333;fill-opacity:1;fill-rule:nonzero;stroke:none"
             d="M 0,0 H -44 V -2 H 0.555 C 0.211,-1.41 0,-0.732 0,0" /></g><g
           transform="translate(227,170)"
           id="g240"><path
             id="path242"
             style="fill:#333333;fill-opacity:1;fill-rule:nonzero;stroke:none"
             d="m 0,0 h -7 c 0,-0.732 -0.211,-1.41 -0.555,-2 H 0 c 0.553,0 1,0.448 1,1 0,0.552 -0.447,1 -1,1" /></g><g
           transform="translate(218,170)"
           id="g244"><path
             id="path246"
             style="fill:#ff0000;fill-opacity:1;fill-rule:nonzero;stroke:none"
             d="m 0,0 c 0,-1.104 -0.896,-2 -2,-2 -1.104,0 -2,0.896 -2,2 0,1.104 0.896,2 2,2 1.104,0 2,-0.896 2,-2" /></g><g
           transform="translate(164,152)"
           id="g248"><path
             id="path250"
             style="fill:#333333;fill-opacity:1;fill-rule:nonzero;stroke:none"
             d="m 0,0 h -72 v 26 c 0,1.104 0.896,2 2,2 h 68 c 1.104,0 2,-0.896 2,-2 z" /></g><g
           transform="translate(158,156)"
           id="g252"><path
             id="path254"
             style="fill:#262626;fill-opacity:1;fill-rule:nonzero;stroke:none"
             d="m 0,0 h -60 c -1.104,0 -2,0.896 -2,2 v 16 c 0,1.104 0.896,2 2,2 H 0 c 1.104,0 2,-0.896 2,-2 V 2 C 2,0.896 1.104,0 0,0" /></g><path
           id="path256"
           style="fill:#404040;fill-opacity:1;fill-rule:nonzero;stroke:none"
           d="m 148,156 h -40 v 4 h 40 z" /><path
           id="path258"
           style="fill:#a3834a;fill-opacity:1;fill-rule:nonzero;stroke:none"
           d="m 112,156 h -2 v 4 h 2 z" /><path
           id="path260"
           style="fill:#a3834a;fill-opacity:1;fill-rule:nonzero;stroke:none"
           d="m 116,156 h -2 v 4 h 2 z" /><path
           id="path262"
           style="fill:#a3834a;fill-opacity:1;fill-rule:nonzero;stroke:none"
           d="m 120,156 h -2 v 4 h 2 z" /><path
           id="path264"
           style="fill:#a3834a;fill-opacity:1;fill-rule:nonzero;stroke:none"
           d="m 124,156 h -2 v 4 h 2 z" /><path
           id="path266"
           style="fill:#a3834a;fill-opacity:1;fill-rule:nonzero;stroke:none"
           d="m 128,156 h -2 v 4 h 2 z" /><path
           id="path268"
           style="fill:#a3834a;fill-opacity:1;fill-rule:nonzero;stroke:none"
           d="m 132,156 h -2 v 4 h 2 z" /><path
           id="path270"
           style="fill:#a3834a;fill-opacity:1;fill-rule:nonzero;stroke:none"
           d="m 136,156 h -2 v 4 h 2 z" /><path
           id="path272"
           style="fill:#a3834a;fill-opacity:1;fill-rule:nonzero;stroke:none"
           d="m 140,156 h -2 v 4 h 2 z" /><path
           id="path274"
           style="fill:#a3834a;fill-opacity:1;fill-rule:nonzero;stroke:none"
           d="m 144,156 h -2 v 4 h 2 z" /></g></g></g></svg>