<?xml version="1.0" encoding="UTF-8" standalone="no"?>
<svg
   xmlns:dc="http://purl.org/dc/elements/1.1/"
   xmlns:cc="http://creativecommons.org/ns#"
   xmlns:rdf="http://www.w3.org/1999/02/22-rdf-syntax-ns#"
   xmlns:svg="http://www.w3.org/2000/svg"
   xmlns="http://www.w3.org/2000/svg"
   viewBox="0 0 320 320"
   height="320"
   width="320"
   xml:space="preserve"
   version="1.1"
   id="svg2"><metadata
     id="metadata8"><rdf:RDF><cc:Work
         rdf:about=""><dc:format>image/svg+xml</dc:format><dc:type
           rdf:resource="http://purl.org/dc/dcmitype/StillImage" /></cc:Work></rdf:RDF></metadata><defs
     id="defs6"><clipPath
       id="clipPath16"
       clipPathUnits="userSpaceOnUse"><path
         id="path18"
         d="M 0,256 256,256 256,0 0,0 0,256 Z" /></clipPath><clipPath
       id="clipPath24"
       clipPathUnits="userSpaceOnUse"><path
         id="path26"
         d="M 32,252 224,252 224,4 32,4 32,252 Z" /></clipPath></defs><g
     transform="matrix(1.25,0,0,-1.25,0,320)"
     id="g10"><g
       id="g12"><g
         clip-path="url(#clipPath16)"
         id="g14"><g
           id="g20"><g
             id="g22" /><g
             id="g28"><g
               style="opacity:0.5"
               id="g30"
               clip-path="url(#clipPath24)"><g
                 id="g32"
                 transform="translate(32,80)"><path
                   id="path34"
                   style="fill:#ffffff;fill-opacity:1;fill-rule:nonzero;stroke:none"
                   d="m 0,0 0,-38.343 c 0,-3.206 1.248,-6.219 3.515,-8.485 L 29.171,-72.485 C 31.438,-74.752 34.451,-76 37.657,-76 L 180,-76 c 6.617,0 12,5.383 12,12 l 0,48 c 0,1.401 -0.242,2.748 -0.686,4 0.444,1.252 0.686,2.599 0.686,4 l 0,16 c 0,5.215 -3.344,9.664 -8,11.314 l 0,13.372 c 4.656,1.65 8,6.099 8,11.314 l 0,116 c 0,6.617 -5.383,12 -12,12 l -58.343,0 c -3.206,0 -6.219,-1.248 -8.485,-3.515 l -0.485,-0.485 -33.374,0 -0.485,0.485 C 76.562,170.752 73.548,172 70.343,172 L 12,172 C 5.383,172 0,166.617 0,160 L 0,20 C 0,16.454 1.546,13.262 4,11.063 L 4,8.937 C 1.546,6.738 0,3.546 0,0" /></g></g></g></g><g
           transform="translate(40,80)"
           id="g36"><path
             id="path38"
             style="fill:#808080;fill-opacity:1;fill-rule:nonzero;stroke:none"
             d="m 0,0 0,-38.343 c 0,-1.061 0.421,-2.079 1.171,-2.829 L 26.829,-66.828 C 27.579,-67.578 28.596,-68 29.657,-68 L 172,-68 c 2.209,0 4,1.791 4,4 l 0,48 c 0,2.209 -1.791,4 -4,4 l -4,0 0,52 4,0 c 2.209,0 4,1.791 4,4 l 0,116 c 0,2.209 -1.791,4 -4,4 l -58.343,0 c -1.061,0 -2.079,-0.421 -2.829,-1.172 l -1.656,-1.656 C 108.422,160.421 107.404,160 106.344,160 l -36.687,0 c -1.061,0 -2.078,0.421 -2.828,1.171 l -1.658,1.658 C 64.421,163.579 63.404,164 62.343,164 L 4,164 c -2.209,0 -4,-1.791 -4,-4 L 0,20 C 0,17.791 1.791,16 4,16 L 4,4 C 1.791,4 0,2.209 0,0" /></g><g
           transform="translate(208,92)"
           id="g40"><path
             id="path42"
             style="fill:#999999;fill-opacity:1;fill-rule:nonzero;stroke:none"
             d="m 0,0 4,0 c 2.209,0 4,-1.791 4,-4 l 0,-16 c 0,-2.209 -1.791,-4 -4,-4 l -4,0 0,24 z" /></g><g
           transform="translate(68,228)"
           id="g44"><path
             id="path46"
             style="fill:#737373;fill-opacity:1;fill-rule:nonzero;stroke:none"
             d="m 0,0 120,0 c 6.627,0 12,-5.373 12,-12 l 0,-164 c 0,-6.627 -5.373,-12 -12,-12 l -120,0 c -6.627,0 -12,5.373 -12,12 l 0,164 c 0,6.627 5.373,12 12,12" /></g><g
           transform="translate(68,44)"
           id="g48"><path
             id="path50"
             style="fill:#d9d9d9;fill-opacity:1;fill-rule:nonzero;stroke:none"
             d="m 0,0 c -4.411,0 -8,3.589 -8,8 l 0,164 c 0,4.411 3.589,8 8,8 l 120,0 c 4.411,0 8,-3.589 8,-8 L 128,8 c 0,-4.411 -3.589,-8 -8,-8 L 0,0" /></g><g
           transform="translate(124.0161,92)"
           id="g52"><path
             id="path54"
             style="fill:#3096cf;fill-opacity:1;fill-rule:nonzero;stroke:none"
             d="m 0,0 39.984,48 -24,0 0,48 c 0,4.418 -3.582,8 -8,8 l -16,0 c -4.419,0 -8,-3.582 -8,-8 l 0,-48 -24,0 L 0,0 Z" /></g><g
           transform="translate(88,76)"
           id="g56"><path
             id="path58"
             style="fill:#3096cf;fill-opacity:1;fill-rule:nonzero;stroke:none"
             d="m 0,0 72,0 c 2.209,0 4,1.791 4,4 0,2.209 -1.791,4 -4,4 L 0,8 C -2.209,8 -4,6.209 -4,4 -4,1.791 -2.209,0 0,0" /></g><g
           transform="translate(180,112)"
           id="g60"><path
             id="path62"
             style="fill:#3096cf;fill-opacity:1;fill-rule:nonzero;stroke:none"
             d="m 0,0 -12,0 0,12 -12,0 0,-12 -12,0 0,-12 12,0 0,-12 12,0 0,12 12,0 0,12 z" /></g><g
           transform="translate(74,236)"
           id="g64"><path
             id="path66"
             style="fill:#737373;fill-opacity:1;fill-rule:nonzero;stroke:none"
             d="m 0,0 108,0 c 1.104,0 2,-0.896 2,-2 0,-1.104 -0.896,-2 -2,-2 L 0,-4 c -1.104,0 -2,0.896 -2,2 0,1.104 0.896,2 2,2" /></g></g></g></g></svg>