<?xml version="1.0" encoding="UTF-8" standalone="no"?>
<svg
   xmlns:dc="http://purl.org/dc/elements/1.1/"
   xmlns:cc="http://creativecommons.org/ns#"
   xmlns:rdf="http://www.w3.org/1999/02/22-rdf-syntax-ns#"
   xmlns:svg="http://www.w3.org/2000/svg"
   xmlns="http://www.w3.org/2000/svg"
   viewBox="0 0 320 320"
   height="320"
   width="320"
   xml:space="preserve"
   version="1.1"
   id="svg2"><metadata
     id="metadata8"><rdf:RDF><cc:Work
         rdf:about=""><dc:format>image/svg+xml</dc:format><dc:type
           rdf:resource="http://purl.org/dc/dcmitype/StillImage" /></cc:Work></rdf:RDF></metadata><defs
     id="defs6"><clipPath
       id="clipPath16"
       clipPathUnits="userSpaceOnUse"><path
         id="path18"
         d="M 0,256 256,256 256,0 0,0 0,256 Z" /></clipPath><clipPath
       id="clipPath24"
       clipPathUnits="userSpaceOnUse"><path
         id="path26"
         d="M 24,252 232,252 232,4 24,4 24,252 Z" /></clipPath><clipPath
       id="clipPath42"
       clipPathUnits="userSpaceOnUse"><path
         id="path44"
         d="M 0,256 256,256 256,0 0,0 0,256 Z" /></clipPath></defs><g
     transform="matrix(1.25,0,0,-1.25,0,320)"
     id="g10"><g
       id="g12"><g
         clip-path="url(#clipPath16)"
         id="g14"><g
           id="g20"><g
             id="g22" /><g
             id="g28"><g
               style="opacity:0.5"
               id="g30"
               clip-path="url(#clipPath24)"><g
                 id="g32"
                 transform="translate(212,252)"><path
                   id="path34"
                   style="fill:#ffffff;fill-opacity:1;fill-rule:nonzero;stroke:none"
                   d="m 0,0 -10,0 -158,0 c -11.028,0 -20,-8.972 -20,-20 l 0,-208 c 0,-11.028 8.972,-20 20,-20 l 168,0 c 11.028,0 20,8.972 20,20 l 0,208 C 20,-8.972 11.028,0 0,0" /></g></g></g></g></g></g><path
       id="path36"
       style="fill:#999999;fill-opacity:1;fill-rule:nonzero;stroke:none"
       d="m 200,236 -144,0 0,8 144,0 0,-8 z" /><g
       id="g38"><g
         clip-path="url(#clipPath42)"
         id="g40"><g
           transform="translate(212,244)"
           id="g46"><path
             id="path48"
             style="fill:#bfbfbf;fill-opacity:1;fill-rule:nonzero;stroke:none"
             d="m 0,0 -14,0 0,-4 -4,0 0,4 -4,0 0,-4 -4,0 0,4 -4,0 0,-4 -4,0 0,4 -4,0 0,-4 -4,0 0,4 -4,0 0,-4 -4,0 0,4 -4,0 0,-4 -4,0 0,4 -4,0 0,-4 -4,0 0,4 -4,0 0,-4 -4,0 0,4 -4,0 0,-4 -4,0 0,4 -4,0 0,-4 -4,0 0,4 -4,0 0,-4 -4,0 0,4 -4,0 0,-4 -4,0 0,4 -4,0 0,-4 -4,0 0,4 -4,0 0,-4 -4,0 0,4 -4,0 0,-4 -4,0 0,4 -4,0 0,-4 -4,0 0,4 -4,0 0,-4 -4,0 0,4 -4,0 0,-4 -4,0 0,4 -14,0 c -6.627,0 -12,-5.373 -12,-12 l 0,-208 c 0,-6.627 5.373,-12 12,-12 l 168,0 c 6.627,0 12,5.373 12,12 l 0,208 C 12,-5.373 6.627,0 0,0" /></g><g
           transform="translate(208,16)"
           id="g50"><path
             id="path52"
             style="fill:#cccccc;fill-opacity:1;fill-rule:nonzero;stroke:none"
             d="m 0,0 -160,0 c -6.627,0 -12,5.373 -12,12 l 0,200 c 0,6.627 5.373,12 12,12 l 160,0 c 6.627,0 12,-5.373 12,-12 L 12,12 C 12,5.373 6.627,0 0,0" /></g><g
           transform="translate(200,52)"
           id="g54"><path
             id="path56"
             style="fill:#999999;fill-opacity:1;fill-rule:nonzero;stroke:none"
             d="m 0,0 -144,0 c -6.627,0 -12,5.373 -12,12 l 0,144 c 0,6.627 5.373,12 12,12 l 144,0 c 6.627,0 12,-5.373 12,-12 L 12,12 C 12,5.373 6.627,0 0,0" /></g><path
           id="path58"
           style="fill:#bfbfbf;fill-opacity:1;fill-rule:nonzero;stroke:none"
           d="m 58,220 -2,0 0,20 2,0 0,-20 z" /><path
           id="path60"
           style="fill:#bfbfbf;fill-opacity:1;fill-rule:nonzero;stroke:none"
           d="m 200,220 -2,0 0,20 2,0 0,-20 z" /><path
           id="path62"
           style="fill:#bfbfbf;fill-opacity:1;fill-rule:nonzero;stroke:none"
           d="m 58,16 -2,0 0,36 2,0 0,-36 z" /><path
           id="path64"
           style="fill:#bfbfbf;fill-opacity:1;fill-rule:nonzero;stroke:none"
           d="m 200,16 -2,0 0,36 2,0 0,-36 z" /><g
           transform="translate(84,64)"
           id="g66"><path
             id="path68"
             style="fill:#bfbfbf;fill-opacity:1;fill-rule:nonzero;stroke:none"
             d="m 0,0 -20,0 c -2.2,0 -4,1.8 -4,4 l 0,24 c 0,2.2 1.8,4 4,4 l 20,0 c 2.2,0 4,-1.8 4,-4 L 4,4 C 4,1.8 2.2,0 0,0" /></g><g
           transform="translate(192,64)"
           id="g70"><path
             id="path72"
             style="fill:#bfbfbf;fill-opacity:1;fill-rule:nonzero;stroke:none"
             d="m 0,0 -20,0 c -2.2,0 -4,1.8 -4,4 l 0,24 c 0,2.2 1.8,4 4,4 l 20,0 c 2.2,0 4,-1.8 4,-4 L 4,4 C 4,1.8 2.2,0 0,0" /></g><g
           transform="translate(156,64)"
           id="g74"><path
             id="path76"
             style="fill:#a6a6a6;fill-opacity:1;fill-rule:nonzero;stroke:none"
             d="m 0,0 -56,0 c -2.2,0 -4,1.8 -4,4 l 0,24 c 0,2.2 1.8,4 4,4 l 56,0 c 2.2,0 4,-1.8 4,-4 L 4,4 C 4,1.8 2.2,0 0,0" /></g><g
           transform="translate(82,66)"
           id="g78"><path
             id="path80"
             style="fill:#737373;fill-opacity:1;fill-rule:nonzero;stroke:none"
             d="m 0,0 -16,0 c -2.2,0 -4,1.8 -4,4 l 0,14 c 0,2.2 1.8,4 4,4 l 16,0 c 2.2,0 4,-1.8 4,-4 L 4,4 C 4,1.8 2.2,0 0,0" /></g><g
           transform="translate(190,66)"
           id="g82"><path
             id="path84"
             style="fill:#737373;fill-opacity:1;fill-rule:nonzero;stroke:none"
             d="m 0,0 -16,0 c -2.2,0 -4,1.8 -4,4 l 0,20 c 0,2.2 1.8,4 4,4 l 16,0 c 2.2,0 4,-1.8 4,-4 L 4,4 C 4,1.8 2.2,0 0,0" /></g><g
           transform="translate(84,72)"
           id="g86"><path
             id="path88"
             style="fill:#808080;fill-opacity:1;fill-rule:nonzero;stroke:none"
             d="m 0,0 -20,0 c -1.1,0 -2,0.9 -2,2 l 0,16 c 0,2.2 1.8,4 4,4 l 16,0 c 2.2,0 4,-1.8 4,-4 L 2,2 C 2,0.9 1.1,0 0,0" /></g><g
           transform="translate(186.333,160)"
           id="g90"><path
             id="path92"
             style="fill:#8c8c8c;fill-opacity:1;fill-rule:nonzero;stroke:none"
             d="m 0,0 -116.667,0 c -6.416,0 -11.666,-5.4 -11.666,-12 l 0,-4 c 0,-6.6 5.25,-12 11.666,-12 l 45.791,-3.623 C -67.7,-31.874 -64.517,-32 -61.332,-32 l 12.909,0 c 3.762,0 7.522,0.175 11.268,0.526 L 0,-28 c 6.417,0 11.667,5.4 11.667,12 l 0,4 C 11.667,-5.4 6.417,0 0,0" /></g><g
           transform="translate(188.1006,160)"
           id="g94"><path
             id="path96"
             style="fill:#666666;fill-opacity:1;fill-rule:nonzero;stroke:none"
             d="m 0,0 c 4.355,0 7.899,-4.187 7.899,-9.333 l 0,-4.667 c 0,-5.146 -3.544,-9.333 -7.899,-9.333 l -0.191,0 -0.192,-0.021 -38.282,-4.053 C -42.382,-27.8 -46.158,-28 -49.89,-28 l -13.3,0 c -3.159,0 -6.358,0.143 -9.509,0.425 l -47.177,4.227 -0.163,0.015 -0.163,0 c -4.355,0 -7.899,4.187 -7.899,9.333 l 0,4.667 c 0,5.146 3.544,9.333 7.899,9.333 L 0,0" /></g><g
           transform="translate(186.7275,136.5415)"
           id="g98"><path
             id="path100"
             style="fill:#404040;fill-opacity:1;fill-rule:nonzero;stroke:none"
             d="m 0,0 0,23.458 -2.061,0 0,-23.676 L 0,0 Z" /></g><g
           transform="translate(75.4546,136.0044)"
           id="g102"><path
             id="path104"
             style="fill:#404040;fill-opacity:1;fill-rule:nonzero;stroke:none"
             d="m 0,0 0,23.996 -2.061,0 0,-23.811 L 0,0 Z" /></g><g
           transform="translate(192,212)"
           id="g106"><path
             id="path108"
             style="fill:#8c8c8c;fill-opacity:1;fill-rule:nonzero;stroke:none"
             d="m 0,0 c -6.627,0 -12,-5.373 -12,-12 0,-6.627 5.373,-12 12,-12 6.627,0 12,5.373 12,12 C 12,-5.373 6.627,0 0,0 m 0,-1 c 6.065,0 11,-4.935 11,-11 0,-6.065 -4.935,-11 -11,-11 -6.065,0 -11,4.935 -11,11 0,6.065 4.935,11 11,11" /></g><g
           transform="translate(186,20)"
           id="g110"><path
             id="path112"
             style="fill:#b80000;fill-opacity:1;fill-rule:nonzero;stroke:none"
             d="m 0,0 -8,0 c -1.1,0 -2,0.9 -2,2 0,1.1 0.9,2 2,2 L 0,4 C 1.1,4 2,3.1 2,2 2,0.9 1.1,0 0,0" /></g><g
           transform="translate(86,84)"
           id="g114"><path
             id="path116"
             style="fill:#8c8c8c;fill-opacity:1;fill-rule:nonzero;stroke:none"
             d="m 0,0 0,2 c 0,1.1 -0.9,2 -2,2 l -20,0 c -1.1,0 -2,-0.9 -2,-2 l 0,-2 24,0 z" /></g><g
           transform="translate(62,84)"
           id="g118"><path
             id="path120"
             style="fill:#737373;fill-opacity:1;fill-rule:nonzero;stroke:none"
             d="m 0,0 0,-2 c 0,-1.1 0.9,-2 2,-2 l 20,0 c 1.1,0 2,0.9 2,2 L 24,0 0,0 Z" /></g><g
           transform="translate(103.2729,133.5122)"
           id="g122"><path
             id="path124"
             style="fill:#404040;fill-opacity:1;fill-rule:nonzero;stroke:none"
             d="m 0,0 2.061,-0.185 0,10.339 49.454,0 0,-10.507 2.061,0.219 0,12.622 L 0,12.488 0,0 Z" /></g></g></g></g></svg>