<?xml version="1.0" encoding="UTF-8" standalone="no"?>
<svg
   xmlns:dc="http://purl.org/dc/elements/1.1/"
   xmlns:cc="http://creativecommons.org/ns#"
   xmlns:rdf="http://www.w3.org/1999/02/22-rdf-syntax-ns#"
   xmlns:svg="http://www.w3.org/2000/svg"
   xmlns="http://www.w3.org/2000/svg"
   viewBox="0 0 330.66665 181.33333"
   height="181.33333"
   width="330.66666"
   xml:space="preserve"
   id="svg2"
   version="1.1"><metadata
     id="metadata8"><rdf:RDF><cc:Work
         rdf:about=""><dc:format>image/svg+xml</dc:format><dc:type
           rdf:resource="http://purl.org/dc/dcmitype/StillImage" /></cc:Work></rdf:RDF></metadata><defs
     id="defs6"><clipPath
       id="clipPath18"
       clipPathUnits="userSpaceOnUse"><path
         id="path16"
         d="M 0,256 H 256 V 0 H 0 Z" /></clipPath><clipPath
       id="clipPath26"
       clipPathUnits="userSpaceOnUse"><path
         id="path24"
         d="M 4,196 H 252 V 60 H 4 Z" /></clipPath></defs><g
     transform="matrix(1.3333333,0,0,-1.3333333,-5.3333332,261.33333)"
     id="g10"><g
       id="g12"><g
         clip-path="url(#clipPath18)"
         id="g14"><g
           id="g20"><g
             id="g22" /><g
             id="g34"><g
               style="opacity:0.5"
               id="g32"
               clip-path="url(#clipPath26)"><g
                 id="g30"
                 transform="translate(236,196)"><path
                   id="path28"
                   style="fill:#ffffff;fill-opacity:1;fill-rule:nonzero;stroke:none"
                   d="m 0,0 h -216 c -8.822,0 -16,-7.178 -16,-16 v -104 c 0,-8.822 7.178,-16 16,-16 H 0 c 8.822,0 16,7.178 16,16 V -16 C 16,-7.178 8.822,0 0,0" /></g></g></g></g><g
           transform="translate(236,68)"
           id="g36"><path
             id="path38"
             style="fill:#f39b11;fill-opacity:1;fill-rule:nonzero;stroke:none"
             d="m 0,0 h -216 c -4.418,0 -8,3.582 -8,8 v 104 c 0,4.418 3.582,8 8,8 H 0 c 4.418,0 8,-3.582 8,-8 V 8 C 8,3.582 4.418,0 0,0" /></g><g
           transform="translate(198,156)"
           id="g40"><path
             id="path42"
             style="fill:#e77f22;fill-opacity:1;fill-rule:nonzero;stroke:none"
             d="m 0,0 h -140 c -16.542,0 -30,-13.458 -30,-30 0,-16.542 13.458,-30 30,-30 H 0 c 16.542,0 30,13.458 30,30 C 30,-13.458 16.542,0 0,0" /></g><g
           transform="translate(198,152)"
           id="g44"><path
             id="path46"
             style="fill:#262626;fill-opacity:1;fill-rule:nonzero;stroke:none"
             d="m 0,0 h -140 c -14.359,0 -26,-11.641 -26,-26 0,-14.359 11.641,-26 26,-26 H 0 c 14.359,0 26,11.641 26,26 C 26,-11.641 14.359,0 0,0" /></g><g
           transform="translate(198,148)"
           id="g48"><path
             id="path50"
             style="fill:#ffffff;fill-opacity:1;fill-rule:nonzero;stroke:none"
             d="m 0,0 h -140 c -12.131,0 -22,-9.869 -22,-22 0,-12.131 9.869,-22 22,-22 H 0 c 12.131,0 22,9.869 22,22 C 22,-9.869 12.131,0 0,0 m 0,-2 c 11.028,0 20,-8.972 20,-20 0,-11.028 -8.972,-20 -20,-20 h -140 c -11.028,0 -20,8.972 -20,20 0,11.028 8.972,20 20,20 H 0" /></g><path
           id="path52"
           style="fill:#000000;fill-opacity:1;fill-rule:nonzero;stroke:none"
           d="m 148,80 h -40 v 8 h 40 z" /><g
           transform="translate(66,134)"
           id="g54"><path
             id="path56"
             style="fill:#e77f22;fill-opacity:1;fill-rule:nonzero;stroke:none"
             d="m 0,0 h -16 c -4.411,0 -8,-3.589 -8,-8 0,-4.411 3.589,-8 8,-8 H 0 c 4.411,0 8,3.589 8,8 0,4.411 -3.589,8 -8,8" /></g><g
           transform="translate(66,132)"
           id="g58"><path
             id="path60"
             style="fill:#d9d9d9;fill-opacity:1;fill-rule:nonzero;stroke:none"
             d="m 0,0 c 3.313,0 6,-2.687 6,-6 0,-3.313 -2.687,-6 -6,-6 h -16 c -3.313,0 -6,2.687 -6,6 0,3.313 2.687,6 6,6 H 0" /></g><g
           transform="translate(66.4312,123)"
           id="g62"><path
             id="path64"
             style="fill:#e6e6e6;fill-opacity:1;fill-rule:nonzero;stroke:none"
             d="m 0,0 h -16.862 c -1.419,0 -2.569,1.15 -2.569,2.569 v 0.862 c 0,1.419 1.15,2.569 2.569,2.569 H 0 C 1.418,6 2.569,4.85 2.569,3.431 V 2.569 C 2.569,1.15 1.418,0 0,0" /></g><g
           transform="translate(88,120)"
           id="g66"><path
             id="path68"
             style="fill:#bfbfbf;fill-opacity:1;fill-rule:nonzero;stroke:none"
             d="m 0,0 v 0 c -2.209,0 -4,1.791 -4,4 v 4 c 0,2.209 1.791,4 4,4 2.209,0 4,-1.791 4,-4 V 4 C 4,1.791 2.209,0 0,0" /></g><g
           transform="translate(108,126)"
           id="g70"><path
             id="path72"
             style="fill:#b80000;fill-opacity:1;fill-rule:nonzero;stroke:none"
             d="m 0,0 c 0,-3.313 -2.687,-6 -6,-6 -3.313,0 -6,2.687 -6,6 0,3.313 2.687,6 6,6 3.313,0 6,-2.687 6,-6" /></g><g
           transform="translate(92,124)"
           id="g74"><path
             id="path76"
             style="fill:#d9d9d9;fill-opacity:1;fill-rule:nonzero;stroke:none"
             d="m 0,0 c 0,-2.209 -1.791,-4 -4,-4 -2.209,0 -4,1.791 -4,4 0,2.209 1.791,4 4,4 2.209,0 4,-1.791 4,-4" /></g><path
           id="path78"
           style="fill:#000000;fill-opacity:1;fill-rule:nonzero;stroke:none"
           d="m 144,124 h -28 v 4 h 28 z" /><path
           id="path80"
           style="fill:#000000;fill-opacity:1;fill-rule:nonzero;stroke:none"
           d="m 172,124 h -20 v 4 h 20 z" /><path
           id="path82"
           style="fill:#bfbfbf;fill-opacity:1;fill-rule:nonzero;stroke:none"
           d="m 144,123 h -8 v 6 h 8 z" /><path
           id="path84"
           style="fill:#000000;fill-opacity:1;fill-rule:nonzero;stroke:none"
           d="m 141,123 h -2 v 6 h 2 z" /><path
           id="path86"
           style="fill:#bfbfbf;fill-opacity:1;fill-rule:nonzero;stroke:none"
           d="m 166,123 h -8 v 6 h 8 z" /><path
           id="path88"
           style="fill:#000000;fill-opacity:1;fill-rule:nonzero;stroke:none"
           d="m 163,123 h -2 v 6 h 2 z" /><g
           transform="translate(216,126)"
           id="g90"><path
             id="path92"
             style="fill:#cccccc;fill-opacity:1;fill-rule:nonzero;stroke:none"
             d="m 0,0 c 0,-9.941 -8.059,-18 -18,-18 -9.941,0 -18,8.059 -18,18 0,9.941 8.059,18 18,18 C -8.059,18 0,9.941 0,0" /></g><g
           transform="translate(198,136)"
           id="g94"><path
             id="path96"
             style="fill:#d9d9d9;fill-opacity:1;fill-rule:nonzero;stroke:none"
             d="m 0,0 c -5.522,0 -10,-4.477 -10,-10 0,-5.522 4.478,-10 10,-10 5.522,0 10,4.478 10,10 C 10,-4.477 5.522,0 0,0" /></g><g
           transform="translate(198,134)"
           id="g98"><path
             id="path100"
             style="fill:#f2f2f2;fill-opacity:1;fill-rule:nonzero;stroke:none"
             d="m 0,0 c 4.411,0 8,-3.589 8,-8 0,-4.411 -3.589,-8 -8,-8 -4.411,0 -8,3.589 -8,8 0,4.411 3.589,8 8,8" /></g><path
           id="path102"
           style="fill:#b80000;fill-opacity:1;fill-rule:nonzero;stroke:none"
           d="m 84,136 h -4 v 4 h 4 z" /><path
           id="path104"
           style="fill:#eac500;fill-opacity:1;fill-rule:nonzero;stroke:none"
           d="m 88,136 h -4 v 4 h 4 z" /><path
           id="path106"
           style="fill:#1abf9f;fill-opacity:1;fill-rule:nonzero;stroke:none"
           d="m 92,136 h -4 v 4 h 4 z" /><path
           id="path108"
           style="fill:#ffffff;fill-opacity:1;fill-rule:nonzero;stroke:none"
           d="M 172,116 H 76 v -2 h 96 z" /><path
           id="path110"
           style="fill:#b80000;fill-opacity:1;fill-rule:nonzero;stroke:none"
           d="M 92,112 H 80 v 2 h 12 z" /><path
           id="path112"
           style="fill:#eac500;fill-opacity:1;fill-rule:nonzero;stroke:none"
           d="M 92,110 H 80 v 2 h 12 z" /><path
           id="path114"
           style="fill:#1abf9f;fill-opacity:1;fill-rule:nonzero;stroke:none"
           d="M 92,108 H 80 v 2 h 12 z" /><path
           id="path116"
           style="fill:#b80000;fill-opacity:1;fill-rule:nonzero;stroke:none"
           d="M 108,112 H 96 v 2 h 12 z" /><path
           id="path118"
           style="fill:#eac500;fill-opacity:1;fill-rule:nonzero;stroke:none"
           d="M 108,111 H 96 v 1 h 12 z" /><path
           id="path120"
           style="fill:#1abf9f;fill-opacity:1;fill-rule:nonzero;stroke:none"
           d="M 108,108 H 96 v 2 h 12 z" /><path
           id="path122"
           style="fill:#b80000;fill-opacity:1;fill-rule:nonzero;stroke:none"
           d="m 124,112 h -12 v 2 h 12 z" /><path
           id="path124"
           style="fill:#eac500;fill-opacity:1;fill-rule:nonzero;stroke:none"
           d="m 124,110 h -12 v 2 h 12 z" /><path
           id="path126"
           style="fill:#eac500;fill-opacity:1;fill-rule:nonzero;stroke:none"
           d="m 124,107 h -12 v 1 h 12 z" /><path
           id="path128"
           style="fill:#1abf9f;fill-opacity:1;fill-rule:nonzero;stroke:none"
           d="m 124,109 h -12 v 1 h 12 z" /><path
           id="path130"
           style="fill:#b80000;fill-opacity:1;fill-rule:nonzero;stroke:none"
           d="m 140,113 h -12 v 1 h 12 z" /><path
           id="path132"
           style="fill:#eac500;fill-opacity:1;fill-rule:nonzero;stroke:none"
           d="m 140,112 h -12 v 1 h 12 z" /><path
           id="path134"
           style="fill:#1abf9f;fill-opacity:1;fill-rule:nonzero;stroke:none"
           d="m 140,111 h -12 v 1 h 12 z" /><path
           id="path136"
           style="fill:#b80000;fill-opacity:1;fill-rule:nonzero;stroke:none"
           d="m 140,110 h -12 v 1 h 12 z" /><path
           id="path138"
           style="fill:#eac500;fill-opacity:1;fill-rule:nonzero;stroke:none"
           d="m 140,109 h -12 v 1 h 12 z" /><path
           id="path140"
           style="fill:#1abf9f;fill-opacity:1;fill-rule:nonzero;stroke:none"
           d="m 140,108 h -12 v 1 h 12 z" /><path
           id="path142"
           style="fill:#b80000;fill-opacity:1;fill-rule:nonzero;stroke:none"
           d="m 168,112 h -4 v 2 h 4 z" /><path
           id="path144"
           style="fill:#eac500;fill-opacity:1;fill-rule:nonzero;stroke:none"
           d="m 172,110 h -12 v 2 h 12 z" /><path
           id="path146"
           style="fill:#1abf9f;fill-opacity:1;fill-rule:nonzero;stroke:none"
           d="m 170,108 h -8 v 2 h 8 z" /><path
           id="path148"
           style="fill:#b80000;fill-opacity:1;fill-rule:nonzero;stroke:none"
           d="m 156,112 h -12 v 2 h 12 z" /><path
           id="path150"
           style="fill:#eac500;fill-opacity:1;fill-rule:nonzero;stroke:none"
           d="m 154,110 h -8 v 2 h 8 z" /><path
           id="path152"
           style="fill:#1abf9f;fill-opacity:1;fill-rule:nonzero;stroke:none"
           d="m 152,108 h -4 v 2 h 4 z" /><path
           id="path154"
           style="fill:#1abf9f;fill-opacity:1;fill-rule:nonzero;stroke:none"
           d="m 152,113 h -4 v 1 h 4 z" /></g></g></g></svg>