<?xml version="1.0" encoding="UTF-8" standalone="no"?>
<svg
   xmlns:dc="http://purl.org/dc/elements/1.1/"
   xmlns:cc="http://creativecommons.org/ns#"
   xmlns:rdf="http://www.w3.org/1999/02/22-rdf-syntax-ns#"
   xmlns:svg="http://www.w3.org/2000/svg"
   xmlns="http://www.w3.org/2000/svg"
   viewBox="0 0 320 320"
   height="320"
   width="320"
   xml:space="preserve"
   version="1.1"
   id="svg2"><metadata
     id="metadata8"><rdf:RDF><cc:Work
         rdf:about=""><dc:format>image/svg+xml</dc:format><dc:type
           rdf:resource="http://purl.org/dc/dcmitype/StillImage" /></cc:Work></rdf:RDF></metadata><defs
     id="defs6"><clipPath
       id="clipPath16"
       clipPathUnits="userSpaceOnUse"><path
         id="path18"
         d="M 0,256 256,256 256,0 0,0 0,256 Z" /></clipPath><clipPath
       id="clipPath24"
       clipPathUnits="userSpaceOnUse"><path
         id="path26"
         d="M 40,252 216,252 216,4 40,4 40,252 Z" /></clipPath></defs><g
     transform="matrix(1.25,0,0,-1.25,0,320)"
     id="g10"><g
       id="g12"><g
         clip-path="url(#clipPath16)"
         id="g14"><g
           id="g20"><g
             id="g22" /><g
             id="g28"><g
               style="opacity:0.5"
               id="g30"
               clip-path="url(#clipPath24)"><g
                 id="g32"
                 transform="translate(188,252)"><path
                   id="path34"
                   style="fill:#ffffff;fill-opacity:1;fill-rule:nonzero;stroke:none"
                   d="m 0,0 -120,0 c -15.439,0 -28,-12.561 -28,-28 l 0,-192 c 0,-15.439 12.561,-28 28,-28 l 120,0 c 15.439,0 28,12.561 28,28 l 0,192 C 28,-12.561 15.439,0 0,0" /></g></g></g></g><g
           transform="translate(188,12)"
           id="g36"><path
             id="path38"
             style="fill:#333333;fill-opacity:1;fill-rule:nonzero;stroke:none"
             d="m 0,0 -120,0 c -11.046,0 -20,8.954 -20,20 l 0,192 c 0,11.046 8.954,20 20,20 l 120,0 c 11.046,0 20,-8.954 20,-20 L 20,20 C 20,8.954 11.046,0 0,0" /></g><path
           id="path40"
           style="fill:#ffffff;fill-opacity:1;fill-rule:nonzero;stroke:none"
           d="m 196,68 -136,0 0,116 136,0 0,-116 z" /><g
           transform="translate(196,184)"
           id="g42"><path
             id="path44"
             style="fill:#ff0000;fill-opacity:1;fill-rule:nonzero;stroke:none"
             d="m 0,0 -136,0 0,36 c 0,2.209 1.791,4 4,4 l 128,0 c 2.209,0 4,-1.791 4,-4 L 0,0 Z" /></g><g
           transform="translate(192,44)"
           id="g46"><path
             id="path48"
             style="fill:#191919;fill-opacity:1;fill-rule:nonzero;stroke:none"
             d="m 0,0 -128,0 c -2.209,0 -4,1.791 -4,4 l 0,20 L 4,24 4,4 C 4,1.791 2.209,0 0,0" /></g><g
           transform="translate(116,32)"
           id="g50"><path
             id="path52"
             style="fill:#262626;fill-opacity:1;fill-rule:nonzero;stroke:none"
             d="M 0,0 24,0 12,-12 0,0 Z" /></g><g
           transform="translate(150,228)"
           id="g54"><path
             id="path56"
             style="fill:#262626;fill-opacity:1;fill-rule:nonzero;stroke:none"
             d="m 0,0 -44,0 c -1.104,0 -2,0.896 -2,2 0,1.104 0.896,2 2,2 L 0,4 C 1.104,4 2,3.104 2,2 2,0.896 1.104,0 0,0" /></g></g></g></g></svg>