<?xml version="1.0" encoding="UTF-8" standalone="no"?>
<svg
   xmlns:dc="http://purl.org/dc/elements/1.1/"
   xmlns:cc="http://creativecommons.org/ns#"
   xmlns:rdf="http://www.w3.org/1999/02/22-rdf-syntax-ns#"
   xmlns:svg="http://www.w3.org/2000/svg"
   xmlns="http://www.w3.org/2000/svg"
   viewBox="0 0 320 320"
   height="320"
   width="320"
   xml:space="preserve"
   version="1.1"
   id="svg2"><metadata
     id="metadata8"><rdf:RDF><cc:Work
         rdf:about=""><dc:format>image/svg+xml</dc:format><dc:type
           rdf:resource="http://purl.org/dc/dcmitype/StillImage" /></cc:Work></rdf:RDF></metadata><defs
     id="defs6"><clipPath
       id="clipPath16"
       clipPathUnits="userSpaceOnUse"><path
         id="path18"
         d="M 0,256 256,256 256,0 0,0 0,256 Z" /></clipPath><clipPath
       id="clipPath24"
       clipPathUnits="userSpaceOnUse"><path
         id="path26"
         d="M 4,252 252,252 252,4 4,4 4,252 Z" /></clipPath></defs><g
     transform="matrix(1.25,0,0,-1.25,0,320)"
     id="g10"><g
       id="g12"><g
         clip-path="url(#clipPath16)"
         id="g14"><g
           id="g20"><g
             id="g22" /><g
             id="g28"><g
               style="opacity:0.5"
               id="g30"
               clip-path="url(#clipPath24)"><g
                 id="g32"
                 transform="translate(236,252)"><path
                   id="path34"
                   style="fill:#ffffff;fill-opacity:1;fill-rule:nonzero;stroke:none"
                   d="m 0,0 -216,0 c -8.822,0 -16,-7.178 -16,-16 l 0,-216 c 0,-8.822 7.178,-16 16,-16 l 216,0 c 8.822,0 16,7.178 16,16 l 0,216 C 16,-7.178 8.822,0 0,0" /></g></g></g></g><g
           transform="translate(236,12)"
           id="g36"><path
             id="path38"
             style="fill:#bfbfbf;fill-opacity:1;fill-rule:nonzero;stroke:none"
             d="m 0,0 -216,0 c -4.418,0 -8,3.582 -8,8 l 0,216 c 0,4.418 3.582,8 8,8 l 216,0 c 4.418,0 8,-3.582 8,-8 L 8,8 C 8,3.582 4.418,0 0,0" /></g><g
           transform="translate(76,84)"
           id="g40"><path
             id="path42"
             style="fill:#808080;fill-opacity:1;fill-rule:nonzero;stroke:none"
             d="m 0,0 c 0,-6.627 -5.373,-12 -12,-12 -6.627,0 -12,5.373 -12,12 0,6.627 5.373,12 12,12 C -5.373,12 0,6.627 0,0" /></g><g
           transform="translate(64,28)"
           id="g44"><path
             id="path46"
             style="fill:#a6a6a6;fill-opacity:1;fill-rule:nonzero;stroke:none"
             d="m 0,0 0,0 c -6.6,0 -12,5.4 -12,12 l 0,12 c 0,6.6 5.4,12 12,12 6.6,0 12,-5.4 12,-12 L 12,12 C 12,5.4 6.6,0 0,0" /></g><g
           transform="translate(76,52)"
           id="g48"><path
             id="path50"
             style="fill:#808080;fill-opacity:1;fill-rule:nonzero;stroke:none"
             d="M 0,0 C 0,6.6 -5.4,12 -12,12 -18.6,12 -24,6.6 -24,0 l 0,-8 c 0,-6.6 5.4,-12 12,-12 6.6,0 12,5.4 12,12 l 0,8 z" /></g><g
           transform="translate(227.6982,118.1328)"
           id="g52"><path
             id="path54"
             style="fill:#a6a6a6;fill-opacity:1;fill-rule:nonzero;stroke:none"
             d="m 0,0 c -10.862,-3.443 -50.154,-14.679 -99.698,-14.679 -49.545,0 -88.836,11.236 -99.698,14.679 l -1.302,0.413 0,-1.366 0,-2.096 0,-0.735 0.701,-0.219 c 14.088,-4.413 52.064,-14.676 100.299,-14.676 48.234,0 86.21,10.263 100.299,14.676 l 0.701,0.219 0,0.735 0,2.096 0,1.366 L 0,0 Z" /></g><g
           transform="translate(28.3022,121.6787)"
           id="g56"><path
             id="path58"
             style="fill:#cccccc;fill-opacity:1;fill-rule:nonzero;stroke:none"
             d="m 0,0 c 10.862,-3.443 50.153,-14.679 99.698,-14.679 49.544,0 88.836,11.236 99.698,14.679 l 0.302,0.096 0,122.225 -200,0 0,-122.225 L 0,0 Z" /></g><g
           transform="translate(50,49)"
           id="g60"><path
             id="path62"
             style="fill:#999999;fill-opacity:1;fill-rule:nonzero;stroke:none"
             d="m 0,0 c 0,-0.553 -0.448,-1 -1,-1 -0.552,0 -1,0.447 -1,1 0,0.553 0.448,1 1,1 0.552,0 1,-0.447 1,-1" /></g><g
           transform="translate(56,49)"
           id="g64"><path
             id="path66"
             style="fill:#666666;fill-opacity:1;fill-rule:nonzero;stroke:none"
             d="m 0,0 c 0,-0.553 -0.448,-1 -1,-1 -0.552,0 -1,0.447 -1,1 0,0.553 0.448,1 1,1 0.552,0 1,-0.447 1,-1" /></g><g
           transform="translate(50,43)"
           id="g68"><path
             id="path70"
             style="fill:#999999;fill-opacity:1;fill-rule:nonzero;stroke:none"
             d="m 0,0 c 0,-0.553 -0.448,-1 -1,-1 -0.552,0 -1,0.447 -1,1 0,0.553 0.448,1 1,1 0.552,0 1,-0.447 1,-1" /></g><g
           transform="translate(28,138)"
           id="g72"><path
             id="path74"
             style="fill:#999999;fill-opacity:1;fill-rule:nonzero;stroke:none"
             d="m 0,0 0,28 0,2 0,4 0,72 -2,0 0,-232 2,0 0,120 0,4 0,2 z" /></g><g
           transform="translate(228,244)"
           id="g76"><path
             id="path78"
             style="fill:#999999;fill-opacity:1;fill-rule:nonzero;stroke:none"
             d="m 0,0 0,-72 0,-4 0,-2 0,-28 0,-2 0,-4 0,-120 2,0 L 2,0 0,0 Z" /></g><g
           transform="translate(204,172)"
           id="g80"><path
             id="path82"
             style="fill:#bfbfbf;fill-opacity:1;fill-rule:nonzero;stroke:none"
             d="m 0,0 -152,0 c -6.617,0 -12,-5.383 -12,-12 l 0,-8.558 c 0,-8.555 6.694,-15.575 15.239,-15.982 l 58.301,-2.776 c 4.795,-0.228 9.66,-0.344 14.46,-0.344 4.8,0 9.665,0.116 14.46,0.344 l 58.301,2.776 C 5.307,-36.133 12,-29.113 12,-20.558 L 12,-12 C 12,-5.383 6.617,0 0,0" /></g><g
           transform="translate(200.5703,139.4556)"
           id="g84"><path
             id="path86"
             style="fill:#808080;fill-opacity:1;fill-rule:nonzero;stroke:none"
             d="m 0,0 -58.301,-2.776 c -9.508,-0.453 -19.031,-0.453 -28.539,0 L -145.141,0 c -6.399,0.305 -11.429,5.581 -11.429,11.987 l 0,8.557 c 0,4.419 3.581,8 8,8 l 152,0 c 4.418,0 8,-3.581 8,-8 l 0,-8.557 C 11.43,5.581 6.398,0.305 0,0" /></g><path
           id="path88"
           style="fill:#737373;fill-opacity:1;fill-rule:nonzero;stroke:none"
           d="m 212,153 -168,0 0,2 168,0 0,-2 z" /><g
           transform="translate(194,139.1431)"
           id="g90"><path
             id="path92"
             style="fill:#737373;fill-opacity:1;fill-rule:nonzero;stroke:none"
             d="m 0,0 0,28.857 -2,0 L -2,-0.095 0,0 Z" /></g><g
           transform="translate(64,139.0479)"
           id="g94"><path
             id="path96"
             style="fill:#737373;fill-opacity:1;fill-rule:nonzero;stroke:none"
             d="m 0,0 0,28.952 -2,0 L -2,0.095 0,0 Z" /></g><path
           id="path98"
           style="fill:#999999;fill-opacity:1;fill-rule:nonzero;stroke:none"
           d="m 230,120 -2,0 0,124 2,0 0,-124 z" /><g
           transform="translate(227.6982,121.6787)"
           id="g100"><path
             id="path102"
             style="fill:#999999;fill-opacity:1;fill-rule:nonzero;stroke:none"
             d="m 0,0 c -10.862,-3.443 -50.154,-14.679 -99.698,-14.679 -49.545,0 -88.836,11.236 -99.698,14.679 l -1.302,0.412 0,-1.366 0,-2.096 0,-0.734 0.701,-0.22 c 14.088,-4.412 52.064,-14.675 100.299,-14.675 48.234,0 86.21,10.263 100.299,14.675 l 0.701,0.22 0,0.734 0,2.096 0,1.366 L 0,0 Z" /></g><g
           transform="translate(212,136)"
           id="g104"><path
             id="path106"
             style="fill:#737373;fill-opacity:1;fill-rule:nonzero;stroke:none"
             d="m 0,0 -168,0 c -6.6,0 -12,5.4 -12,12 l 0,24 c 0,6.6 5.4,12 12,12 L 0,48 C 6.6,48 12,42.6 12,36 L 12,12 C 12,5.4 6.6,0 0,0" /></g><g
           transform="translate(123.2002,136)"
           id="g108"><path
             id="path110"
             style="fill:#595959;fill-opacity:1;fill-rule:nonzero;stroke:none"
             d="m 0,0 -76.8,0 0,28.4 c 0,5.5 4.5,10 10,10 l 56.8,0 c 5.5,0 10,-4.5 10,-10 L 0,0 Z" /></g><g
           transform="translate(209.5996,136)"
           id="g112"><path
             id="path114"
             style="fill:#595959;fill-opacity:1;fill-rule:nonzero;stroke:none"
             d="m 0,0 -76.8,0 0,28.4 c 0,5.5 4.5,10 10,10 l 56.8,0 c 5.5,0 10,-4.5 10,-10 L 0,0 Z" /></g></g></g></g></svg>