<?xml version="1.0" encoding="UTF-8" standalone="no"?>
<svg
   xmlns:dc="http://purl.org/dc/elements/1.1/"
   xmlns:cc="http://creativecommons.org/ns#"
   xmlns:rdf="http://www.w3.org/1999/02/22-rdf-syntax-ns#"
   xmlns:svg="http://www.w3.org/2000/svg"
   xmlns="http://www.w3.org/2000/svg"
   viewBox="0 0 330.66665 202.66665"
   height="202.66666"
   width="330.66666"
   xml:space="preserve"
   id="svg2"
   version="1.1"><metadata
     id="metadata8"><rdf:RDF><cc:Work
         rdf:about=""><dc:format>image/svg+xml</dc:format><dc:type
           rdf:resource="http://purl.org/dc/dcmitype/StillImage" /></cc:Work></rdf:RDF></metadata><defs
     id="defs6"><clipPath
       id="clipPath18"
       clipPathUnits="userSpaceOnUse"><path
         id="path16"
         d="M 0,256 H 256 V 0 H 0 Z" /></clipPath><clipPath
       id="clipPath26"
       clipPathUnits="userSpaceOnUse"><path
         id="path24"
         d="M 4,204 H 252 V 52 H 4 Z" /></clipPath></defs><g
     transform="matrix(1.3333333,0,0,-1.3333333,-5.3333332,271.99999)"
     id="g10"><g
       id="g12"><g
         clip-path="url(#clipPath18)"
         id="g14"><g
           id="g20"><g
             id="g22" /><g
             id="g34"><g
               style="opacity:0.5"
               id="g32"
               clip-path="url(#clipPath26)"><g
                 id="g30"
                 transform="translate(240,204)"><path
                   id="path28"
                   style="fill:#ffffff;fill-opacity:1;fill-rule:nonzero;stroke:none"
                   d="m 0,0 h -224 c -6.617,0 -12,-5.383 -12,-12 v -20 c 0,-3.546 1.546,-6.738 4,-8.937 V -140 c 0,-6.617 5.383,-12 12,-12 H -4 c 6.617,0 12,5.383 12,12 v 99.063 c 2.454,2.199 4,5.391 4,8.937 v 20 C 12,-5.383 6.617,0 0,0" /></g></g></g></g><g
           transform="translate(240,196)"
           id="g36"><path
             id="path38"
             style="fill:#595959;fill-opacity:1;fill-rule:nonzero;stroke:none"
             d="m 0,0 h -224 c -2.209,0 -4,-1.791 -4,-4 v -20 c 0,-2.209 1.791,-4 4,-4 v -104 c 0,-2.209 1.791,-4 4,-4 H -4 c 2.209,0 4,1.791 4,4 v 104 c 2.209,0 4,1.791 4,4 V -4 C 4,-1.791 2.209,0 0,0" /></g><g
           transform="translate(47.8261,160)"
           id="g40"><path
             id="path42"
             style="fill:#cccccc;fill-opacity:1;fill-rule:nonzero;stroke:none"
             d="m 0,0 h 168.348 c 2.113,0 3.826,-1.635 3.826,-3.652 v -76.696 c 0,-2.017 -1.713,-3.652 -3.826,-3.652 H 0 c -2.113,0 -3.826,1.635 -3.826,3.652 V -3.652 C -3.826,-1.635 -2.113,0 0,0" /></g><g
           transform="translate(216.1739,162)"
           id="g44"><path
             id="path46"
             style="fill:#404040;fill-opacity:1;fill-rule:nonzero;stroke:none"
             d="m 0,0 h -168.348 c -3.212,0 -5.826,-2.536 -5.826,-5.652 v -76.696 c 0,-3.116 2.614,-5.652 5.826,-5.652 H 0 c 3.212,0 5.826,2.536 5.826,5.652 V -5.652 C 5.826,-2.536 3.212,0 0,0 m 0,-2 c 2.113,0 3.826,-1.635 3.826,-3.652 V -82.348 C 3.826,-84.365 2.113,-86 0,-86 h -168.348 c -2.113,0 -3.826,1.635 -3.826,3.652 v 76.696 c 0,2.017 1.713,3.652 3.826,3.652 L 0,-2" /></g><g
           transform="translate(102,72)"
           id="g48"><path
             id="path50"
             style="fill:#404040;fill-opacity:1;fill-rule:nonzero;stroke:none"
             d="M 0,0 H 52 L 26,-8 Z" /></g><g
           transform="translate(50,176)"
           id="g52"><path
             id="path54"
             style="fill:#404040;fill-opacity:1;fill-rule:nonzero;stroke:none"
             d="M 0,0 C 48.286,16 107.714,16 156,0 107.714,9.6 48.286,9.6 0,0" /></g></g></g></g></svg>