<?xml version="1.0" encoding="UTF-8" standalone="no"?>
<svg
   xmlns:dc="http://purl.org/dc/elements/1.1/"
   xmlns:cc="http://creativecommons.org/ns#"
   xmlns:rdf="http://www.w3.org/1999/02/22-rdf-syntax-ns#"
   xmlns:svg="http://www.w3.org/2000/svg"
   xmlns="http://www.w3.org/2000/svg"
   viewBox="0 0 277.33331 330.66665"
   height="330.66666"
   width="277.33331"
   xml:space="preserve"
   id="svg2"
   version="1.1"><metadata
     id="metadata8"><rdf:RDF><cc:Work
         rdf:about=""><dc:format>image/svg+xml</dc:format><dc:type
           rdf:resource="http://purl.org/dc/dcmitype/StillImage" /></cc:Work></rdf:RDF></metadata><defs
     id="defs6"><clipPath
       id="clipPath18"
       clipPathUnits="userSpaceOnUse"><path
         id="path16"
         d="M 0,256 H 256 V 0 H 0 Z" /></clipPath><clipPath
       id="clipPath26"
       clipPathUnits="userSpaceOnUse"><path
         id="path24"
         d="M 24,252 H 232 V 4 H 24 Z" /></clipPath></defs><g
     transform="matrix(1.3333333,0,0,-1.3333333,-31.999999,335.99999)"
     id="g10"><g
       id="g12"><g
         clip-path="url(#clipPath18)"
         id="g14"><g
           id="g20"><g
             id="g22" /><g
             id="g34"><g
               style="opacity:0.5"
               id="g32"
               clip-path="url(#clipPath26)"><g
                 id="g30"
                 transform="translate(212,252)"><path
                   id="path28"
                   style="fill:#ffffff;fill-opacity:1;fill-rule:nonzero;stroke:none"
                   d="m 0,0 h -10 -8 -8 -8 -8 -8 -8 -8 -8 -8 -8 -8 -8 -8 -8 -8 -8 -8 -8 -14 c -11.028,0 -20,-8.972 -20,-20 v -208 c 0,-11.028 8.972,-20 20,-20 H 0 c 11.028,0 20,8.972 20,20 V -20 C 20,-8.972 11.028,0 0,0" /></g></g></g></g><g
           transform="translate(212,244)"
           id="g36"><path
             id="path38"
             style="fill:#404040;fill-opacity:1;fill-rule:nonzero;stroke:none"
             d="m 0,0 h -14 v -4 h -4 v 4 h -4 v -4 h -4 v 4 h -4 v -4 h -4 v 4 h -4 v -4 h -4 v 4 h -4 v -4 h -4 v 4 h -4 v -4 h -4 v 4 h -4 v -4 h -4 v 4 h -4 v -4 h -4 v 4 h -4 v -4 h -4 v 4 h -4 v -4 h -4 v 4 h -4 v -4 h -4 v 4 h -4 v -4 h -4 v 4 h -4 v -4 h -4 v 4 h -4 v -4 h -4 v 4 h -4 v -4 h -4 v 4 h -4 v -4 h -4 v 4 h -4 v -4 h -4 v 4 h -4 v -4 h -4 v 4 h -14 c -6.627,0 -12,-5.373 -12,-12 v -208 c 0,-6.627 5.373,-12 12,-12 H 0 c 6.627,0 12,5.373 12,12 V -12 C 12,-5.373 6.627,0 0,0" /></g><g
           transform="translate(208,16)"
           id="g40"><path
             id="path42"
             style="fill:#4c4c4c;fill-opacity:1;fill-rule:nonzero;stroke:none"
             d="m 0,0 h -160 c -6.627,0 -12,5.373 -12,12 v 200 c 0,6.627 5.373,12 12,12 H 0 c 6.627,0 12,-5.373 12,-12 V 12 C 12,5.373 6.627,0 0,0" /></g><g
           transform="translate(200,52)"
           id="g44"><path
             id="path46"
             style="fill:#333333;fill-opacity:1;fill-rule:nonzero;stroke:none"
             d="m 0,0 h -144 c -6.627,0 -12,5.373 -12,12 v 144 c 0,6.627 5.373,12 12,12 H 0 c 6.627,0 12,-5.373 12,-12 V 12 C 12,5.373 6.627,0 0,0" /></g><path
           id="path48"
           style="fill:#404040;fill-opacity:1;fill-rule:nonzero;stroke:none"
           d="m 58,220 h -2 v 20 h 2 z" /><path
           id="path50"
           style="fill:#404040;fill-opacity:1;fill-rule:nonzero;stroke:none"
           d="m 200,220 h -2 v 20 h 2 z" /><path
           id="path52"
           style="fill:#404040;fill-opacity:1;fill-rule:nonzero;stroke:none"
           d="m 58,16 h -2 v 36 h 2 z" /><path
           id="path54"
           style="fill:#404040;fill-opacity:1;fill-rule:nonzero;stroke:none"
           d="m 200,16 h -2 v 36 h 2 z" /><g
           transform="translate(84,64)"
           id="g56"><path
             id="path58"
             style="fill:#262626;fill-opacity:1;fill-rule:nonzero;stroke:none"
             d="m 0,0 h -20 c -2.2,0 -4,1.8 -4,4 v 24 c 0,2.2 1.8,4 4,4 H 0 c 2.2,0 4,-1.8 4,-4 V 4 C 4,1.8 2.2,0 0,0" /></g><g
           transform="translate(192,64)"
           id="g60"><path
             id="path62"
             style="fill:#262626;fill-opacity:1;fill-rule:nonzero;stroke:none"
             d="m 0,0 h -20 c -2.2,0 -4,1.8 -4,4 v 24 c 0,2.2 1.8,4 4,4 H 0 c 2.2,0 4,-1.8 4,-4 V 4 C 4,1.8 2.2,0 0,0" /></g><g
           transform="translate(156,64)"
           id="g64"><path
             id="path66"
             style="fill:#404040;fill-opacity:1;fill-rule:nonzero;stroke:none"
             d="m 0,0 h -56 c -2.2,0 -4,1.8 -4,4 v 24 c 0,2.2 1.8,4 4,4 H 0 c 2.2,0 4,-1.8 4,-4 V 4 C 4,1.8 2.2,0 0,0" /></g><g
           transform="translate(190,66)"
           id="g68"><path
             id="path70"
             style="fill:#191919;fill-opacity:1;fill-rule:nonzero;stroke:none"
             d="m 0,0 h -16 c -2.2,0 -4,1.8 -4,4 v 20 c 0,2.2 1.8,4 4,4 H 0 c 2.2,0 4,-1.8 4,-4 V 4 C 4,1.8 2.2,0 0,0" /></g><g
           transform="translate(186.333,160)"
           id="g72"><path
             id="path74"
             style="fill:#262626;fill-opacity:1;fill-rule:nonzero;stroke:none"
             d="m 0,0 h -116.667 c -6.416,0 -11.666,-5.4 -11.666,-12 v -4 c 0,-6.6 5.25,-12 11.666,-12 l 45.791,-3.623 C -67.7,-31.874 -64.517,-32 -61.332,-32 h 12.909 c 3.762,0 7.522,0.175 11.268,0.526 L 0,-28 c 6.417,0 11.667,5.4 11.667,12 v 4 C 11.667,-5.4 6.417,0 0,0" /></g><g
           transform="translate(186.333,156)"
           id="g76"><path
             id="path78"
             style="fill:#191919;fill-opacity:1;fill-rule:nonzero;stroke:none"
             d="m 0,0 c 4.228,0 7.667,-3.589 7.667,-8 v -4 c 0,-4.411 -3.439,-8 -7.667,-8 h -0.187 l -0.185,-0.018 -37.156,-3.474 C -41.135,-23.829 -44.801,-24 -48.423,-24 h -12.909 c -3.066,0 -6.171,0.123 -9.229,0.365 l -45.79,3.622 -0.157,0.013 h -0.159 c -4.227,0 -7.666,3.589 -7.666,8 v 4 c 0,4.411 3.439,8 7.666,8 H 0" /></g><path
           id="path80"
           style="fill:#262626;fill-opacity:1;fill-rule:nonzero;stroke:none"
           d="m 77,140 h -2 v 12 h 2 z" /><path
           id="path82"
           style="fill:#262626;fill-opacity:1;fill-rule:nonzero;stroke:none"
           d="m 185,140 h -2 v 12 h 2 z" /><g
           transform="translate(192,212)"
           id="g84"><path
             id="path86"
             style="fill:#262626;fill-opacity:1;fill-rule:nonzero;stroke:none"
             d="m 0,0 c -6.627,0 -12,-5.373 -12,-12 0,-6.627 5.373,-12 12,-12 6.627,0 12,5.373 12,12 C 12,-5.373 6.627,0 0,0 m 0,-1 c 6.065,0 11,-4.935 11,-11 0,-6.065 -4.935,-11 -11,-11 -6.065,0 -11,4.935 -11,11 0,6.065 4.935,11 11,11" /></g><g
           transform="translate(186,20)"
           id="g88"><path
             id="path90"
             style="fill:#b80000;fill-opacity:1;fill-rule:nonzero;stroke:none"
             d="m 0,0 h -8 c -1.1,0 -2,0.9 -2,2 0,1.1 0.9,2 2,2 H 0 C 1.1,4 2,3.1 2,2 2,0.9 1.1,0 0,0" /></g><g
           transform="translate(82,66)"
           id="g92"><path
             id="path94"
             style="fill:#0d0d0d;fill-opacity:1;fill-rule:nonzero;stroke:none"
             d="m 0,0 h -16 c -2.2,0 -4,1.8 -4,4 v 14 c 0,2.2 1.8,4 4,4 H 0 c 2.2,0 4,-1.8 4,-4 V 4 C 4,1.8 2.2,0 0,0" /></g><g
           transform="translate(84,72)"
           id="g96"><path
             id="path98"
             style="fill:#191919;fill-opacity:1;fill-rule:nonzero;stroke:none"
             d="m 0,0 h -20 c -1.1,0 -2,0.9 -2,2 v 16 c 0,2.2 1.8,4 4,4 h 16 c 2.2,0 4,-1.8 4,-4 V 2 C 2,0.9 1.1,0 0,0" /></g><g
           transform="translate(86,84)"
           id="g100"><path
             id="path102"
             style="fill:#262626;fill-opacity:1;fill-rule:nonzero;stroke:none"
             d="m 0,0 v 2 c 0,1.1 -0.9,2 -2,2 h -20 c -1.1,0 -2,-0.9 -2,-2 V 0 Z" /></g><g
           transform="translate(62,84)"
           id="g104"><path
             id="path106"
             style="fill:#0d0d0d;fill-opacity:1;fill-rule:nonzero;stroke:none"
             d="m 0,0 v -2 c 0,-1.1 0.9,-2 2,-2 h 20 c 1.1,0 2,0.9 2,2 v 2 z" /></g></g></g></g></svg>