<?xml version="1.0" encoding="UTF-8" standalone="no"?>
<svg
   xmlns:dc="http://purl.org/dc/elements/1.1/"
   xmlns:cc="http://creativecommons.org/ns#"
   xmlns:rdf="http://www.w3.org/1999/02/22-rdf-syntax-ns#"
   xmlns:svg="http://www.w3.org/2000/svg"
   xmlns="http://www.w3.org/2000/svg"
   viewBox="0 0 320 320"
   height="320"
   width="320"
   xml:space="preserve"
   version="1.1"
   id="svg2"><metadata
     id="metadata8"><rdf:RDF><cc:Work
         rdf:about=""><dc:format>image/svg+xml</dc:format><dc:type
           rdf:resource="http://purl.org/dc/dcmitype/StillImage" /></cc:Work></rdf:RDF></metadata><defs
     id="defs6"><clipPath
       id="clipPath16"
       clipPathUnits="userSpaceOnUse"><path
         id="path18"
         d="M 0,256 256,256 256,0 0,0 0,256 Z" /></clipPath><clipPath
       id="clipPath24"
       clipPathUnits="userSpaceOnUse"><path
         id="path26"
         d="M 48,252 208,252 208,4 48,4 48,252 Z" /></clipPath></defs><g
     transform="matrix(1.25,0,0,-1.25,0,320)"
     id="g10"><g
       id="g12"><g
         clip-path="url(#clipPath16)"
         id="g14"><g
           id="g20"><g
             id="g22" /><g
             id="g28"><g
               style="opacity:0.5"
               id="g30"
               clip-path="url(#clipPath24)"><g
                 id="g32"
                 transform="translate(192.7969,252)"><path
                   id="path34"
                   style="fill:#ffffff;fill-opacity:1;fill-rule:nonzero;stroke:none"
                   d="m 0,0 -34.481,0 -60.632,0 -34.481,0 c -8.383,0 -15.203,-6.779 -15.203,-15.113 l 0,-34.048 0,-22.081 0,-105.516 0,-22.081 0,-34.048 c 0,-8.334 6.82,-15.113 15.203,-15.113 l 34.481,0 23.113,0 37.519,0 c 27.396,0 49.684,22.054 49.684,49.161 l 0,22.081 0,127.597 0,34.048 C 15.203,-6.779 8.383,0 0,0" /></g></g></g></g><g
           transform="translate(192.7969,244)"
           id="g36"><path
             id="path38"
             style="fill:#354f9f;fill-opacity:1;fill-rule:nonzero;stroke:none"
             d="m 0,0 -34.481,0 -60.632,0 -34.481,0 c -3.978,0 -7.203,-3.184 -7.203,-7.112 l 0,-34.049 0,-22.081 0,-105.516 0,-22.081 0,-34.048 c 0,-3.928 3.225,-7.113 7.203,-7.113 l 34.481,0 23.113,0 37.519,0 c 23.021,0 41.684,18.429 41.684,41.161 l 0,22.081 0,127.597 0,34.049 C 7.203,-3.184 3.979,0 0,0" /></g><g
           transform="translate(184.25,228)"
           id="g40"><path
             id="path42"
             style="fill:#595959;fill-opacity:1;fill-rule:nonzero;stroke:none"
             d="m 0,0 -112.5,0 c -2.071,0 -3.75,-1.647 -3.75,-3.68 l 0,-84.818 c 0,-1.934 1.598,-3.502 3.569,-3.502 l 52.863,0 41.068,0 c 12.427,0 22.5,9.886 22.5,22.08 l 0,66.24 C 3.75,-1.647 2.071,0 0,0" /></g><g
           transform="translate(166,214)"
           id="g44"><path
             id="path46"
             style="fill:#4c4c4c;fill-opacity:1;fill-rule:nonzero;stroke:none"
             d="m 0,0 -2,0 -72,0 -2,0 0,-2 0,-68 0,-2 2,0 72,0 2,0 0,2 0,68 0,2 z" /></g><path
           id="path48"
           style="fill:#485915;fill-opacity:1;fill-rule:nonzero;stroke:none"
           d="m 92,212 72,0 0,-68 -72,0 0,68 z" /><g
           transform="translate(192,98)"
           id="g50"><path
             id="path52"
             style="fill:#263979;fill-opacity:1;fill-rule:nonzero;stroke:none"
             d="m 0,0 c 0,6.617 -5.383,12 -12,12 -1.396,0 -2.729,-0.252 -3.977,-0.691 l -10e-4,0.003 -0.035,-0.017 C -16.727,11.041 -47.383,-3.268 -47.956,-3.597 L -48,-3.617 -47.998,-3.622 C -51.58,-5.701 -54,-9.569 -54,-14 c 0,-6.617 5.383,-12 12,-12 1.284,0 2.52,0.208 3.682,0.583 l 10e-4,-0.003 0.033,0.016 c 0.887,0.29 31.797,14.753 31.797,14.753 l -0.001,0.004 C -2.64,-8.647 0,-4.629 0,0" /></g><g
           transform="translate(160,84)"
           id="g54"><path
             id="path56"
             style="fill:#595959;fill-opacity:1;fill-rule:nonzero;stroke:none"
             d="m 0,0 c 0,-5.522 -4.478,-10 -10,-10 -5.522,0 -10,4.478 -10,10 0,5.522 4.478,10 10,10 C -4.478,10 0,5.522 0,0" /></g><g
           transform="translate(190,98)"
           id="g58"><path
             id="path60"
             style="fill:#595959;fill-opacity:1;fill-rule:nonzero;stroke:none"
             d="m 0,0 c 0,-5.522 -4.478,-10 -10,-10 -5.522,0 -10,4.478 -10,10 0,5.522 4.478,10 10,10 C -4.478,10 0,5.522 0,0" /></g><g
           transform="translate(115.3779,55.918)"
           id="g62"><path
             id="path64"
             style="fill:#595959;fill-opacity:1;fill-rule:nonzero;stroke:none"
             d="m 0,0 c -0.774,0.181 -1.62,0.061 -2.326,-0.332 l -11.57,-6.518 c -1.39,-0.785 -1.885,-2.402 -1.128,-3.687 0.389,-0.654 1.037,-1.113 1.826,-1.296 0.242,-0.056 0.488,-0.083 0.731,-0.083 0.553,0 1.098,0.142 1.59,0.417 l 11.568,6.518 c 1.396,0.783 1.892,2.402 1.13,3.683 C 1.437,-0.646 0.789,-0.185 0,0" /></g><g
           transform="translate(143.6455,54.6201)"
           id="g66"><path
             id="path68"
             style="fill:#595959;fill-opacity:1;fill-rule:nonzero;stroke:none"
             d="M 0,0 C -0.384,0.654 -1.031,1.113 -1.822,1.298 -2.604,1.479 -3.45,1.358 -4.146,0.964 l -11.569,-6.518 c -1.396,-0.783 -1.891,-2.402 -1.129,-3.683 0.379,-0.644 1.044,-1.117 1.825,-1.3 0.243,-0.056 0.489,-0.083 0.734,-0.083 0.551,0 1.098,0.141 1.587,0.417 l 11.571,6.517 C 0.263,-2.9 0.758,-1.283 0,0" /></g><g
           transform="translate(147.417,36.7217)"
           id="g70"><path
             id="path72"
             style="fill:#263979;fill-opacity:1;fill-rule:nonzero;stroke:none"
             d="m 0,0 10.989,-18.108 c 0.502,-0.829 0.215,-1.88 -0.641,-2.351 L 10.28,-20.496 C 9.424,-20.967 8.322,-20.677 7.819,-19.85 L -3.17,-1.74 c -0.502,0.827 -0.215,1.88 0.642,2.35 l 0.067,0.037 C -1.604,1.117 -0.503,0.828 0,0" /></g><g
           transform="translate(154.748,40.3252)"
           id="g74"><path
             id="path76"
             style="fill:#263979;fill-opacity:1;fill-rule:nonzero;stroke:none"
             d="m 0,0 10.999,-18.113 c 0.503,-0.828 0.216,-1.881 -0.642,-2.352 l -0.067,-0.037 c -0.857,-0.471 -1.96,-0.181 -2.463,0.648 l -11,18.113 C -3.676,-0.913 -3.388,0.14 -2.53,0.61 l 0.067,0.037 C -1.605,1.118 -0.503,0.828 0,0" /></g><g
           transform="translate(162.083,43.9258)"
           id="g78"><path
             id="path80"
             style="fill:#263979;fill-opacity:1;fill-rule:nonzero;stroke:none"
             d="m 0,0 10.999,-18.113 c 0.503,-0.828 0.216,-1.881 -0.642,-2.352 l -0.067,-0.037 c -0.857,-0.471 -1.96,-0.181 -2.463,0.648 L -3.172,-1.741 C -3.675,-0.913 -3.388,0.14 -2.53,0.61 l 0.067,0.037 C -1.605,1.118 -0.503,0.828 0,0" /></g><g
           transform="translate(169.418,47.5264)"
           id="g82"><path
             id="path84"
             style="fill:#263979;fill-opacity:1;fill-rule:nonzero;stroke:none"
             d="m 0,0 10.999,-18.113 c 0.503,-0.828 0.216,-1.881 -0.642,-2.352 l -0.067,-0.037 c -0.857,-0.471 -1.96,-0.181 -2.463,0.648 L -3.172,-1.741 C -3.676,-0.913 -3.388,0.14 -2.53,0.61 l 0.067,0.037 C -1.605,1.118 -0.503,0.828 0,0" /></g><g
           transform="translate(176.7529,51.127)"
           id="g86"><path
             id="path88"
             style="fill:#263979;fill-opacity:1;fill-rule:nonzero;stroke:none"
             d="m 0,0 10.999,-18.113 c 0.503,-0.828 0.216,-1.882 -0.642,-2.352 l -0.067,-0.037 c -0.857,-0.471 -1.96,-0.181 -2.463,0.648 L -3.172,-1.741 C -3.676,-0.913 -3.388,0.14 -2.53,0.61 l 0.067,0.037 C -1.605,1.118 -0.503,0.828 0,0" /></g><g
           transform="translate(80,189.9272)"
           id="g90"><path
             id="path92"
             style="fill:#ff0000;fill-opacity:1;fill-rule:nonzero;stroke:none"
             d="m 0,0 c 0,-1.104 -0.896,-2 -2,-2 -1.104,0 -2,0.896 -2,2 0,1.104 0.896,2 2,2 1.104,0 2,-0.896 2,-2" /></g><path
           id="path94"
           style="fill:#7b0000;fill-opacity:1;fill-rule:nonzero;stroke:none"
           d="m 180,222 -104,0 0,2 104,0 0,-2 z" /><path
           id="path96"
           style="fill:#00003d;fill-opacity:1;fill-rule:nonzero;stroke:none"
           d="m 180,218 -104,0 0,2 104,0 0,-2 z" /><g
           transform="translate(98,89)"
           id="g98"><path
             id="path100"
             style="fill:#595959;fill-opacity:1;fill-rule:nonzero;stroke:none"
             d="m 0,0 -9,0 0,8 c 0,1.65 -1.35,3 -3,3 l -4,0 c -1.65,0 -3,-1.35 -3,-3 l 0,-8 -9,0 c -1.1,0 -2,-0.9 -2,-2 l 0,-6 c 0,-1.1 0.9,-2 2,-2 l 9,0 0,-8 c 0,-1.65 1.35,-3 3,-3 l 4,0 c 1.65,0 3,1.35 3,3 l 0,8 9,0 c 1.1,0 2,0.9 2,2 l 0,6 C 2,-0.9 1.1,0 0,0" /></g><g
           transform="translate(88,84)"
           id="g102"><path
             id="path104"
             style="fill:#4c4c4c;fill-opacity:1;fill-rule:nonzero;stroke:none"
             d="m 0,0 c 0,-2.209 -1.791,-4 -4,-4 -2.209,0 -4,1.791 -4,4 0,2.209 1.791,4 4,4 2.209,0 4,-1.791 4,-4" /></g><g
           transform="translate(186,234)"
           id="g106"><path
             id="path108"
             style="fill:#263979;fill-opacity:1;fill-rule:nonzero;stroke:none"
             d="m 0,0 0,10 -2,0 0,-10 -112,0 0,10 -2,0 0,-10 -14,0 0,-2 14,0 2,0 112,0 2,0 14,0 0,2 -14,0 z" /></g><g
           transform="translate(102,240)"
           id="g110"><path
             id="path112"
             style="fill:#263979;fill-opacity:1;fill-rule:nonzero;stroke:none"
             d="m 0,0 -12,0 0,4 -2,0 0,-4 -2,0 0,4 -2,0 0,-4 -2,0 0,4 -2,0 0,-4 -2,0 c -1.104,0 -2,-0.896 -2,-2 0,-1.104 0.896,-2 2,-2 l 24,0 c 1.104,0 2,0.896 2,2 0,1.104 -0.896,2 -2,2" /></g><g
           transform="translate(106,16)"
           id="g114"><path
             id="path116"
             style="fill:#263979;fill-opacity:1;fill-rule:nonzero;stroke:none"
             d="m 0,0 12,0 0,-4 2,0 0,4 2,0 0,-4 2,0 0,4 2,0 0,-4 2,0 0,4 2,0 c 1.104,0 2,0.896 2,2 0,1.104 -0.896,2 -2,2 L 0,4 C -1.104,4 -2,3.104 -2,2 -2,0.896 -1.104,0 0,0" /></g></g></g></g></svg>