<?xml version="1.0" encoding="UTF-8" standalone="no"?>
<svg
   xmlns:dc="http://purl.org/dc/elements/1.1/"
   xmlns:cc="http://creativecommons.org/ns#"
   xmlns:rdf="http://www.w3.org/1999/02/22-rdf-syntax-ns#"
   xmlns:svg="http://www.w3.org/2000/svg"
   xmlns="http://www.w3.org/2000/svg"
   viewBox="0 0 325.33331 330.66665"
   height="330.66666"
   width="325.33331"
   xml:space="preserve"
   id="svg2"
   version="1.1"><metadata
     id="metadata8"><rdf:RDF><cc:Work
         rdf:about=""><dc:format>image/svg+xml</dc:format><dc:type
           rdf:resource="http://purl.org/dc/dcmitype/StillImage" /></cc:Work></rdf:RDF></metadata><defs
     id="defs6"><clipPath
       id="clipPath18"
       clipPathUnits="userSpaceOnUse"><path
         id="path16"
         d="M 0,256 H 256 V 0 H 0 Z" /></clipPath><clipPath
       id="clipPath26"
       clipPathUnits="userSpaceOnUse"><path
         id="path24"
         d="M 8,252 H 252 V 4 H 8 Z" /></clipPath></defs><g
     transform="matrix(1.3333333,0,0,-1.3333333,-10.666666,335.99999)"
     id="g10"><g
       id="g12"><g
         clip-path="url(#clipPath18)"
         id="g14"><g
           id="g20"><g
             id="g22" /><g
             id="g34"><g
               style="opacity:0.5"
               id="g32"
               clip-path="url(#clipPath26)"><g
                 id="g30"
                 transform="translate(236,252)"><path
                   id="path28"
                   style="fill:#ffffff;fill-opacity:1;fill-rule:nonzero;stroke:none"
                   d="M 0,0 H -13.818 -16 -210.182 C -220.007,0 -228,-7.925 -228,-17.667 v -198.166 c 0,-17.737 14.6,-32.167 32.545,-32.167 H -14 c 5.514,0 10,4.486 10,10 v 6 h 8 v 8 160.506 c 6.894,1.781 12,8.052 12,15.494 v 32 C 16,-7.178 8.822,0 0,0" /></g></g></g></g><g
           transform="translate(214.2969,233.9307)"
           id="g36"><path
             id="path38"
             style="fill:#4c4c4c;fill-opacity:1;fill-rule:nonzero;stroke:none"
             d="m 0,0 h -173.195 c -3.331,0 -6.041,-2.71 -6.041,-6.042 v -174 -0.44 l 0.284,-0.338 12.889,-15.306 0.362,-0.43 h 0.562 H 0 c 3.331,0 6.041,2.71 6.041,6.042 V -6.042 C 6.041,-2.71 3.331,0 0,0" /></g><g
           transform="translate(230,16)"
           id="g40"><path
             id="path42"
             style="fill:#999999;fill-opacity:1;fill-rule:nonzero;stroke:none"
             d="M 0,0 H -6 V 16 H 2 V 2 C 2,0.896 1.104,0 0,0" /></g><g
           transform="translate(112,32)"
           id="g44"><path
             id="path46"
             style="fill:#4c4c4c;fill-opacity:1;fill-rule:nonzero;stroke:none"
             d="M 0,0 H 24 L 12,-8 Z" /></g><path
           id="path48"
           style="fill:#4c4c4c;fill-opacity:1;fill-rule:nonzero;stroke:none"
           d="m 20,36 h -4 v 12 h 4 z" /><g
           transform="translate(236,244)"
           id="g50"><path
             id="path52"
             style="fill:#b3b3b3;fill-opacity:1;fill-rule:nonzero;stroke:none"
             d="M 0,0 H -13.818 -16 -210.182 C -215.604,0 -220,-4.328 -220,-9.667 v -198.166 c 0,-13.347 10.989,-24.167 24.545,-24.167 H -14 c 1.104,0 2,0.896 2,2 v 14 h 8 v 168 h 4 c 4.418,0 8,3.582 8,8 V -8 C 8,-3.582 4.418,0 0,0" /></g><g
           transform="translate(155.0928,195.7773)"
           id="g54"><path
             id="path56"
             style="fill:#e6e6e6;fill-opacity:1;fill-rule:nonzero;stroke:none"
             d="m 0,0 -0.189,0.223 h -61.093 l -0.23,-0.236 -0.225,0.029 -1.737,0.207 h -55.619 v -140 h 180 v 140 H 3.956 Z" /></g><g
           transform="translate(36,52)"
           id="g58"><path
             id="path60"
             style="fill:#ffffff;fill-opacity:1;fill-rule:nonzero;stroke:none"
             d="m 0,0 12,-16 h 163.242 c 2.628,0 4.758,2.141 4.758,4.78 V 4 H 0 Z" /></g><g
           transform="translate(211.2422,228)"
           id="g62"><path
             id="path64"
             style="fill:#ffffff;fill-opacity:1;fill-rule:nonzero;stroke:none"
             d="m 0,0 h -170.484 c -2.628,0 -4.758,-2.14 -4.758,-4.78 V -28.003 -36 h 180 V -4.78 C 4.758,-2.14 2.628,0 0,0" /></g></g></g></g></svg>