<?xml version="1.0" encoding="UTF-8" standalone="no"?>
<svg
   xmlns:dc="http://purl.org/dc/elements/1.1/"
   xmlns:cc="http://creativecommons.org/ns#"
   xmlns:rdf="http://www.w3.org/1999/02/22-rdf-syntax-ns#"
   xmlns:svg="http://www.w3.org/2000/svg"
   xmlns="http://www.w3.org/2000/svg"
   viewBox="0 0 320 320"
   height="320"
   width="320"
   xml:space="preserve"
   version="1.1"
   id="svg2"><metadata
     id="metadata8"><rdf:RDF><cc:Work
         rdf:about=""><dc:format>image/svg+xml</dc:format><dc:type
           rdf:resource="http://purl.org/dc/dcmitype/StillImage" /></cc:Work></rdf:RDF></metadata><defs
     id="defs6"><clipPath
       id="clipPath16"
       clipPathUnits="userSpaceOnUse"><path
         id="path18"
         d="M 0,256 256,256 256,0 0,0 0,256 Z" /></clipPath><clipPath
       id="clipPath24"
       clipPathUnits="userSpaceOnUse"><path
         id="path26"
         d="M 24,252 232,252 232,4 24,4 24,252 Z" /></clipPath></defs><g
     transform="matrix(1.25,0,0,-1.25,0,320)"
     id="g10"><g
       id="g12"><g
         clip-path="url(#clipPath16)"
         id="g14"><g
           id="g20"><g
             id="g22" /><g
             id="g28"><g
               style="opacity:0.5"
               id="g30"
               clip-path="url(#clipPath24)"><g
                 id="g32"
                 transform="translate(220,252)"><path
                   id="path34"
                   style="fill:#ffffff;fill-opacity:1;fill-rule:nonzero;stroke:none"
                   d="m 0,0 -16,0 c -2.961,0 -5.547,-1.608 -6.93,-4 l -138.14,0 c -1.384,2.392 -3.969,4 -6.93,4 l -16,0 c -6.617,0 -12,-5.383 -12,-12 l 0,-224 c 0,-6.617 5.383,-12 12,-12 l 16,0 152,0 16,0 c 6.617,0 12,5.383 12,12 l 0,224 C 12,-5.383 6.617,0 0,0" /></g></g></g></g><g
           transform="translate(204,244)"
           id="g36"><path
             id="path38"
             style="fill:#7b0000;fill-opacity:1;fill-rule:nonzero;stroke:none"
             d="m 0,0 0,-216 -152,0 0,216 -16,0 c -2.209,0 -4,-1.791 -4,-4 l 0,-224 c 0,-2.209 1.791,-4 4,-4 l 16,0 152,0 16,0 c 2.209,0 4,1.791 4,4 l 0,224 c 0,2.209 -1.791,4 -4,4 L 0,0 Z" /></g><g
           transform="translate(216,20)"
           id="g40"><path
             id="path42"
             style="fill:#b80000;fill-opacity:1;fill-rule:nonzero;stroke:none"
             d="m 0,0 -176,0 c -2.209,0 -4,1.791 -4,4 l 0,212 c 0,2.209 1.791,4 4,4 l 176,0 c 2.209,0 4,-1.791 4,-4 L 4,4 C 4,1.791 2.209,0 0,0" /></g><path
           id="path44"
           style="fill:#333333;fill-opacity:1;fill-rule:nonzero;stroke:none"
           d="m 212,28 -168,0 0,212 168,0 0,-212 z" /><g
           transform="translate(77.6567,28)"
           id="g46"><path
             id="path48"
             style="fill:#262626;fill-opacity:1;fill-rule:nonzero;stroke:none"
             d="m 0,0 -2.828,2.828 -28,28 -2.829,2.829 0,-5.657 28,-28 L 0,0 Z" /></g><g
           transform="translate(212,61.6572)"
           id="g50"><path
             id="path52"
             style="fill:#262626;fill-opacity:1;fill-rule:nonzero;stroke:none"
             d="m 0,0 -2.828,-2.829 -28,-28 -2.829,-2.828 5.657,0 28,28 L 0,0 Z" /></g></g></g></g></svg>