<?xml version="1.0" encoding="utf-8"?>
<!-- Generator: Adobe Illustrator 16.0.0, SVG Export Plug-In . SVG Version: 6.00 Build 0)  -->
<!DOCTYPE svg PUBLIC "-//W3C//DTD SVG 1.1//EN" "http://www.w3.org/Graphics/SVG/1.1/DTD/svg11.dtd">
<svg version="1.1"
	 id="svg2" xmlns:dc="http://purl.org/dc/elements/1.1/" xmlns:cc="http://creativecommons.org/ns#" xmlns:rdf="http://www.w3.org/1999/02/22-rdf-syntax-ns#" xmlns:svg="http://www.w3.org/2000/svg"
	 xmlns="http://www.w3.org/2000/svg" xmlns:xlink="http://www.w3.org/1999/xlink" x="0px" y="0px" width="330.666px"
	 height="330.666px" viewBox="0 0 330.666 330.666" enable-background="new 0 0 330.666 330.666" xml:space="preserve">
<g id="g22">
</g>
<g id="g20">
	<g id="g34">
		<g id="g32" opacity="0.5">
			<g id="g30" transform="translate(252,128)">
				<path id="path28" fill="#FFFFFF" d="M78.666,37.333c0,91.311-74.021,165.333-165.333,165.333
					C-177.978,202.666-252,128.644-252,37.333C-252-53.978-177.977-128-86.667-128C4.643-128,78.666-53.977,78.666,37.333"/>
			</g>
		</g>
	</g>
</g>
<g id="g36" transform="translate(128,142.9677)">
	<path id="path38" fill="#262626" d="M37.333,2.409c11.021,0,19.957,8.935,19.957,19.957c0,11.021-8.936,19.957-19.957,19.957
		c-11.021,0-19.957-8.936-19.957-19.957C17.376,11.343,26.312,2.409,37.333,2.409 M37.333-132.3
		c-85.42,0-154.667,69.246-154.667,154.666c0,85.421,69.247,154.667,154.667,154.667s154.666-69.246,154.666-154.667
		C191.999-63.054,122.753-132.3,37.333-132.3"/>
</g>
<g id="g40" transform="translate(128,142.9333)">
	<path id="path42" fill="#2B3329" d="M37.333,2.489c10.996,0,19.911,8.915,19.911,19.911c0,10.997-8.915,19.912-19.911,19.912
		s-19.91-8.915-19.91-19.912C17.423,11.404,26.337,2.489,37.333,2.489 M37.333-126.934C-45.141-126.934-112-60.075-112,22.4
		c0,82.474,66.858,149.333,149.333,149.333c82.476,0,149.333-66.859,149.333-149.333C186.666-60.075,119.808-126.934,37.333-126.934
		"/>
</g>
<g id="g44" transform="translate(128,142.9677)">
	<path id="path46" fill="#2B3329" d="M37.333,2.409c11.021,0,19.957,8.935,19.957,19.957c0,11.021-8.936,19.957-19.957,19.957
		c-11.021,0-19.957-8.936-19.957-19.957C17.376,11.343,26.312,2.409,37.333,2.409 M37.333-37.505
		c-33.064,0-59.871,26.804-59.871,59.87c0,33.065,26.807,59.872,59.871,59.872c33.065,0,59.871-26.807,59.871-59.872
		C97.204-10.701,70.399-37.505,37.333-37.505"/>
</g>
<g id="g48" transform="translate(128,141.0968)">
	<path id="path50" fill="#262626" d="M37.333,6.775c-9.628,0-17.463,7.834-17.463,17.462c0,9.628,7.835,17.463,17.463,17.463
		s17.463-7.835,17.463-17.463C54.796,14.609,46.961,6.775,37.333,6.775 M37.333,46.687c-12.38,0-22.452-10.07-22.452-22.45
		c0-12.381,10.072-22.451,22.452-22.451s22.452,10.07,22.452,22.451C59.785,36.616,49.713,46.687,37.333,46.687 M37.333-33.14
		c-31.639,0-57.376,25.74-57.376,57.376c0,31.637,25.737,57.376,57.376,57.376c31.64,0,57.376-25.739,57.376-57.376
		C94.709-7.399,68.972-33.14,37.333-33.14 M37.333,86.601c-34.39,0-62.365-27.977-62.365-62.364
		c0-34.388,27.977-62.366,62.365-62.366c34.39,0,62.365,27.977,62.365,62.365C99.698,58.624,71.723,86.601,37.333,86.601"/>
</g>
<g>
	<path fill="#246100" d="M192.101,46.43c0-18.517-14.522-24.689-15.41-25.012c-0.888-0.323-0.646,0.363,0,0.646
		c12.506,6.737,12.103,19.283,12.103,19.848c0,0.541,0.479,19.396-17.911,23.602v-7.788c0-1.815,1.285-2.828,2.856-2.828
		c0.213,0,0.297,0,0.469,0c0.151,0,0.182-0.122,0.182-0.122l0.061-0.242c0,0,0.03-0.115-0.197-0.115c-0.13,0-17.706,0-17.836,0
		c-0.228,0-0.197,0.115-0.197,0.115l0.061,0.242c0,0,0.03,0.122,0.182,0.122c0.172,0,0.256,0,0.469,0
		c1.571,0,2.856,1.013,2.856,2.828v7.788c-18.39-4.206-17.911-23.061-17.911-23.602c0-0.565-0.403-13.111,12.103-19.848
		c0.646-0.283,0.888-0.969,0-0.646c-0.888,0.323-15.411,6.495-15.411,25.012c0,12.759,10.006,23.152,21.22,25.628v8.517
		c0,0,1.944,15.426,2.046,15.426c0.101,0,2.166-15.426,2.166-15.426s0-3.613,0-7.965c0.538,0.033,1.124,0.063,1.492,0.063
		c0.32,0,0.761-0.022,1.18-0.051c0,4.347,0,7.953,0,7.953S168.736,96,168.837,96c0.102,0,2.046-15.426,2.046-15.426v-8.517
		C182.096,69.581,192.101,59.188,192.101,46.43z M165.335,66.046c-0.286,0-0.806-0.01-1.336-0.023c0-4.44,0-8.199,0-8.297
		c0-0.241,0.171-2.103,1.389-2.103s1.283,1.86,1.283,2.103c0,0.098,0,3.856,0,8.297C166.139,66.036,165.621,66.046,165.335,66.046z"
		/>
	<path fill="#246100" d="M138.565,284.237c0,18.517,14.522,24.689,15.41,25.012c0.888,0.323,0.646-0.362,0-0.646
		c-12.506-6.736-12.103-19.283-12.103-19.848c0-0.541-0.479-19.396,17.911-23.603v7.788c0,1.815-1.285,2.828-2.856,2.828
		c-0.213,0-0.297,0-0.469,0c-0.151,0-0.182,0.122-0.182,0.122l-0.061,0.242c0,0-0.03,0.115,0.197,0.115c0.13,0,17.707,0,17.835,0
		c0.229,0,0.197-0.115,0.197-0.115l-0.061-0.242c0,0-0.029-0.122-0.182-0.122c-0.172,0-0.256,0-0.469,0
		c-1.57,0-2.855-1.013-2.855-2.828v-7.788c18.389,4.206,17.91,23.062,17.91,23.603c0,0.564,0.404,13.111-12.102,19.848
		c-0.646,0.283-0.889,0.969,0,0.646c0.887-0.322,15.41-6.495,15.41-25.012c0-12.759-10.006-23.152-21.219-25.628v-8.517
		c0,0-1.945-15.426-2.047-15.426c-0.1,0-2.166,15.426-2.166,15.426s0,3.613,0,7.965c-0.537-0.033-1.124-0.063-1.492-0.063
		c-0.32,0-0.761,0.022-1.18,0.051c0-4.347,0-7.953,0-7.953s-2.065-15.426-2.166-15.426c-0.102,0-2.046,15.426-2.046,15.426v8.517
		C148.57,261.086,138.565,271.479,138.565,284.237z M165.331,264.621c0.286,0,0.806,0.01,1.335,0.023c0,4.44,0,8.199,0,8.297
		c0,0.241-0.17,2.103-1.388,2.103c-1.218,0-1.283-1.86-1.283-2.103c0-0.098,0-3.856,0-8.297
		C164.527,264.631,165.045,264.621,165.331,264.621z"/>
	<path fill="#246100" d="M284.236,191.825c18.517,0,24.689-14.521,25.012-15.41c0.323-0.887-0.362-0.645-0.646,0
		c-6.736,12.506-19.283,12.104-19.848,12.104c-0.541,0-19.396,0.479-23.603-17.912h7.788c1.815,0,2.828,1.285,2.828,2.857
		c0,0.213,0,0.297,0,0.469c0,0.15,0.122,0.182,0.122,0.182l0.242,0.061c0,0,0.115,0.029,0.115-0.197c0-0.131,0-17.707,0-17.836
		c0-0.228-0.115-0.197-0.115-0.197l-0.242,0.061c0,0-0.122,0.03-0.122,0.182c0,0.172,0,0.256,0,0.469
		c0,1.571-1.013,2.856-2.828,2.856h-7.788c4.206-18.39,23.062-17.911,23.603-17.911c0.564,0,13.111-0.403,19.848,12.103
		c0.283,0.646,0.969,0.888,0.646,0c-0.322-0.888-6.495-15.411-25.012-15.411c-12.759,0-23.152,10.006-25.628,21.22h-8.517
		c0,0-15.426,1.944-15.426,2.046c0,0.101,15.426,2.166,15.426,2.166s3.613,0,7.965,0c-0.033,0.538-0.063,1.124-0.063,1.492
		c0,0.32,0.022,0.76,0.051,1.18c-4.347,0-7.953,0-7.953,0s-15.426,2.064-15.426,2.166s15.426,2.045,15.426,2.045h8.517
		C261.085,181.821,271.477,191.825,284.236,191.825z M264.62,165.059c0-0.286,0.01-0.806,0.023-1.336c4.44,0,8.199,0,8.297,0
		c0.241,0,2.103,0.171,2.103,1.389c0,1.217-1.86,1.284-2.103,1.284c-0.098,0-3.856,0-8.297,0
		C264.63,165.864,264.62,165.345,264.62,165.059z"/>
	<path fill="#246100" d="M46.429,138.564c-18.517,0-24.689,14.522-25.012,15.41c-0.323,0.888,0.363,0.646,0.646,0
		c6.737-12.506,19.283-12.103,19.848-12.103c0.541,0,19.396-0.479,23.602,17.911h-7.788c-1.815,0-2.828-1.285-2.828-2.856
		c0-0.213,0-0.297,0-0.469c0-0.151-0.122-0.182-0.122-0.182l-0.242-0.061c0,0-0.115-0.03-0.115,0.197c0,0.13,0,17.706,0,17.836
		c0,0.228,0.115,0.197,0.115,0.197l0.242-0.061c0,0,0.122-0.03,0.122-0.182c0-0.172,0-0.256,0-0.469
		c0-1.571,1.013-2.856,2.828-2.856h7.788c-4.206,18.39-23.061,17.911-23.602,17.911c-0.565,0-13.111,0.403-19.848-12.103
		c-0.283-0.646-0.969-0.888-0.646,0c0.323,0.888,6.495,15.411,25.012,15.411c12.759,0,23.152-10.006,25.628-21.22h8.517
		c0,0,15.426-1.944,15.426-2.046c0-0.101-15.426-2.166-15.426-2.166s-3.613,0-7.965,0c0.033-0.538,0.063-1.124,0.063-1.492
		c0-0.32-0.022-0.761-0.051-1.18c4.347,0,7.953,0,7.953,0S96,161.93,96,161.829c0-0.102-15.426-2.046-15.426-2.046h-8.517
		C69.581,148.569,59.188,138.564,46.429,138.564z M66.046,165.331c0,0.286-0.01,0.806-0.023,1.336c-4.44,0-8.199,0-8.297,0
		c-0.241,0-2.103-0.171-2.103-1.389s1.86-1.283,2.103-1.283c0.098,0,3.856,0,8.297,0C66.036,164.526,66.046,165.045,66.046,165.331z
		"/>
</g>
</svg>
