<?xml version="1.0" encoding="UTF-8" standalone="no"?>
<svg
   xmlns:dc="http://purl.org/dc/elements/1.1/"
   xmlns:cc="http://creativecommons.org/ns#"
   xmlns:rdf="http://www.w3.org/1999/02/22-rdf-syntax-ns#"
   xmlns:svg="http://www.w3.org/2000/svg"
   xmlns="http://www.w3.org/2000/svg"
   viewBox="0 0 330.66665 282.66665"
   height="282.66666"
   width="330.66666"
   xml:space="preserve"
   id="svg2"
   version="1.1"><metadata
     id="metadata8"><rdf:RDF><cc:Work
         rdf:about=""><dc:format>image/svg+xml</dc:format><dc:type
           rdf:resource="http://purl.org/dc/dcmitype/StillImage" /></cc:Work></rdf:RDF></metadata><defs
     id="defs6"><clipPath
       id="clipPath18"
       clipPathUnits="userSpaceOnUse"><path
         id="path16"
         d="M 0,256 H 256 V 0 H 0 Z" /></clipPath><clipPath
       id="clipPath26"
       clipPathUnits="userSpaceOnUse"><path
         id="path24"
         d="M 4,232 H 252 V 20 H 4 Z" /></clipPath><clipPath
       id="clipPath44"
       clipPathUnits="userSpaceOnUse"><path
         id="path42"
         d="M 0,256 H 256 V 0 H 0 Z" /></clipPath></defs><g
     transform="matrix(1.3333333,0,0,-1.3333333,-5.3333332,309.33333)"
     id="g10"><g
       id="g12"><g
         clip-path="url(#clipPath18)"
         id="g14"><g
           id="g20"><g
             id="g22" /><g
             id="g34"><g
               style="opacity:0.5"
               id="g32"
               clip-path="url(#clipPath26)"><g
                 id="g30"
                 transform="translate(244,232)"><path
                   id="path28"
                   style="fill:#ffffff;fill-opacity:1;fill-rule:nonzero;stroke:none"
                   d="m 0,0 h -232 -8 v -8 -180 -8 h 8 32 v -8 -8 h 8 152 8 v 8 8 H 0 8 v 8 180 8 z" /></g></g></g></g></g></g><path
       id="path36"
       style="fill:#333333;fill-opacity:1;fill-rule:nonzero;stroke:none"
       d="M 244,44 H 12 v 180 h 232 z" /><g
       id="g38"><g
         clip-path="url(#clipPath44)"
         id="g40"><g
           transform="translate(29,216)"
           id="g46"><path
             id="path48"
             style="fill:#404040;fill-opacity:1;fill-rule:nonzero;stroke:none"
             d="m 0,0 h 198 c 4.971,0 9,-3.979 9,-8.889 v -142.222 c 0,-4.91 -4.029,-8.889 -9,-8.889 H 0 c -4.971,0 -9,3.979 -9,8.889 V -8.889 C -9,-3.979 -4.971,0 0,0" /></g><path
           id="path50"
           style="fill:#262626;fill-opacity:1;fill-rule:nonzero;stroke:none"
           d="M 204,28 H 52 v 24 h 152 z" /><g
           transform="translate(130,208)"
           id="g52"><path
             id="path54"
             style="fill:#bfbfbf;fill-opacity:1;fill-rule:nonzero;stroke:none"
             d="M 0,0 C 37.252,0 70.69,-1.446 87.268,-3.774 88.528,-3.951 90,-4.666 90,-6.096 v -131.808 c 0,-1.431 -1.472,-2.145 -2.732,-2.322 C 70.69,-142.554 37.252,-144 0,-144 c -37.251,0 -70.69,1.446 -87.268,3.774 -1.26,0.177 -2.732,0.891 -2.732,2.322 V -6.096 c 0,1.43 1.472,2.145 2.732,2.322 C -70.69,-1.446 -37.251,0 0,0" /></g><path
           id="path56"
           style="fill:#999999;fill-opacity:1;fill-rule:nonzero;stroke:none"
           d="m 220,192 h -36 v 4 h 36 z" /><g
           transform="translate(104,208)"
           id="g58"><path
             id="path60"
             style="fill:#999999;fill-opacity:1;fill-rule:nonzero;stroke:none"
             d="M 0,0 H 4 L 16,-16 H 12 Z" /></g><g
           transform="translate(76,204)"
           id="g62"><path
             id="path64"
             style="fill:#999999;fill-opacity:1;fill-rule:nonzero;stroke:none"
             d="m 0,0 h -4 -12 -4 v -4 -8 -4 h 4 12 4 v 4 8 z m -4,-12 h -12 v 8 h 12 z" /></g><g
           transform="translate(92,204)"
           id="g66"><path
             id="path68"
             style="fill:#999999;fill-opacity:1;fill-rule:nonzero;stroke:none"
             d="m 0,0 h -4 -12 -4 v -4 -8 -4 h 4 12 4 v 4 8 z m -4,-12 h -12 v 8 h 12 z" /></g><g
           transform="translate(79.8589,96)"
           id="g70"><path
             id="path72"
             style="fill:#999999;fill-opacity:1;fill-rule:nonzero;stroke:none"
             d="m 0,0 h -4 -4 -4 v -4 -16 -4 h 4 4 4 v 4 16 z m -4,-20 h -4 v 16 h 4 z" /></g><g
           transform="translate(58,152)"
           id="g74"><path
             id="path76"
             style="fill:#999999;fill-opacity:1;fill-rule:nonzero;stroke:none"
             d="m 0,0 c -5.514,0 -10,-4.486 -10,-10 0,-5.514 4.486,-10 10,-10 5.514,0 10,4.486 10,10 C 10,-4.486 5.514,0 0,0 m 0,-4 c 3.313,0 6,-2.687 6,-6 0,-3.313 -2.687,-6 -6,-6 -3.313,0 -6,2.687 -6,6 0,3.313 2.687,6 6,6" /></g><g
           transform="translate(58,144)"
           id="g78"><path
             id="path80"
             style="fill:#999999;fill-opacity:1;fill-rule:nonzero;stroke:none"
             d="m 0,0 c 1.104,0 2,-0.896 2,-2 0,-1.104 -0.896,-2 -2,-2 -1.104,0 -2,0.896 -2,2 0,1.104 0.896,2 2,2" /></g><g
           transform="translate(214,108)"
           id="g82"><path
             id="path84"
             style="fill:#999999;fill-opacity:1;fill-rule:nonzero;stroke:none"
             d="m 0,0 c 1.104,0 2,-0.896 2,-2 0,-1.104 -0.896,-2 -2,-2 -1.104,0 -2,0.896 -2,2 0,1.104 0.896,2 2,2" /></g><g
           transform="translate(116,132)"
           id="g86"><path
             id="path88"
             style="fill:#999999;fill-opacity:1;fill-rule:nonzero;stroke:none"
             d="m 0,0 h -4 -4 -4 v -4 -24 -4 h 4 4 4 v 4 24 z m -4,-28 h -4 v 24 h 4 z" /></g><g
           transform="translate(58,96)"
           id="g90"><path
             id="path92"
             style="fill:#999999;fill-opacity:1;fill-rule:nonzero;stroke:none"
             d="m 0,0 c -3.309,0 -6,-2.691 -6,-6 0,-3.309 2.691,-6 6,-6 3.309,0 6,2.691 6,6 0,3.309 -2.691,6 -6,6 m 0,-4 c 1.104,0 2,-0.896 2,-2 0,-1.104 -0.896,-2 -2,-2 -1.104,0 -2,0.896 -2,2 0,1.104 0.896,2 2,2" /></g><g
           transform="translate(58,88)"
           id="g94"><path
             id="path96"
             style="fill:#999999;fill-opacity:1;fill-rule:nonzero;stroke:none"
             d="m 0,0 c -3.309,0 -6,-2.691 -6,-6 0,-3.309 2.691,-6 6,-6 3.309,0 6,2.691 6,6 0,3.309 -2.691,6 -6,6 m 0,-4 c 1.104,0 2,-0.896 2,-2 0,-1.104 -0.896,-2 -2,-2 -1.104,0 -2,0.896 -2,2 0,1.104 0.896,2 2,2" /></g><g
           transform="translate(58,80)"
           id="g98"><path
             id="path100"
             style="fill:#999999;fill-opacity:1;fill-rule:nonzero;stroke:none"
             d="m 0,0 c -3.309,0 -6,-2.691 -6,-6 0,-3.309 2.691,-6 6,-6 3.309,0 6,2.691 6,6 0,3.309 -2.691,6 -6,6 m 0,-4 c 1.104,0 2,-0.896 2,-2 0,-1.104 -0.896,-2 -2,-2 -1.104,0 -2,0.896 -2,2 0,1.104 0.896,2 2,2" /></g><g
           transform="translate(86,186.6924)"
           id="g102"><path
             id="path104"
             style="fill:#999999;fill-opacity:1;fill-rule:nonzero;stroke:none"
             d="m 0,0 c -2.757,0 -5,-2.243 -5,-5 0,-2.757 2.243,-5 5,-5 2.757,0 5,2.243 5,5 0,2.757 -2.243,5 -5,5 m 0,-3 c 1.104,0 2,-0.896 2,-2 0,-1.104 -0.896,-2 -2,-2 -1.104,0 -2,0.896 -2,2 0,1.104 0.896,2 2,2" /></g><g
           transform="translate(100,172)"
           id="g106"><path
             id="path108"
             style="fill:#999999;fill-opacity:1;fill-rule:nonzero;stroke:none"
             d="M 0,0 V 36 H -4 V 0 l 8,-8 v -28 h 4 v 28 z" /></g><path
           id="path110"
           style="fill:#999999;fill-opacity:1;fill-rule:nonzero;stroke:none"
           d="m 120,132 h -4 v 60 h 4 z" /><g
           transform="translate(88,168)"
           id="g112"><path
             id="path114"
             style="fill:#999999;fill-opacity:1;fill-rule:nonzero;stroke:none"
             d="M 0,0 H -16 L -48,32 V 28 L -16,-4 H 0 l 8,-8 V -64 H 4 v 48 l -8,8 h -12 l -32,32 v -4 l 32,-32 h 12 l 4,-4 v -20 l -12,-12 h -40 v -4 h 40 l 12,12 v -4 l -12,-12 h -40 v -4 h 40 l 12,12 v -16 h -36 v -4 h 36 4 4 4 v 4 52 z" /></g><g
           transform="translate(50,108)"
           id="g116"><path
             id="path118"
             style="fill:#999999;fill-opacity:1;fill-rule:nonzero;stroke:none"
             d="m 0,0 c -3.309,0 -6,-2.691 -6,-6 0,-3.309 2.691,-6 6,-6 3.309,0 6,2.691 6,6 0,3.309 -2.691,6 -6,6 m 0,-4 c 1.104,0 2,-0.896 2,-2 0,-1.104 -0.896,-2 -2,-2 -1.104,0 -2,0.896 -2,2 0,1.104 0.896,2 2,2" /></g><g
           transform="translate(98,84)"
           id="g120"><path
             id="path122"
             style="fill:#999999;fill-opacity:1;fill-rule:nonzero;stroke:none"
             d="m 0,0 c -3.309,0 -6,-2.691 -6,-6 0,-3.309 2.691,-6 6,-6 3.309,0 6,2.691 6,6 0,3.309 -2.691,6 -6,6 m 0,-4 c 1.104,0 2,-0.896 2,-2 0,-1.104 -0.896,-2 -2,-2 -1.104,0 -2,0.896 -2,2 0,1.104 0.896,2 2,2" /></g><path
           id="path124"
           style="fill:#999999;fill-opacity:1;fill-rule:nonzero;stroke:none"
           d="M 108,88 H 76 v 4 h 32 z" /><path
           id="path126"
           style="fill:#999999;fill-opacity:1;fill-rule:nonzero;stroke:none"
           d="M 96,76 H 76 v 4 h 20 z" /><path
           id="path128"
           style="fill:#999999;fill-opacity:1;fill-rule:nonzero;stroke:none"
           d="m 112,76 h -4 v 16 h 4 z" /><g
           transform="translate(120,64)"
           id="g130"><path
             id="path132"
             style="fill:#999999;fill-opacity:1;fill-rule:nonzero;stroke:none"
             d="M 0,0 H 4 L -8,12 h -4 z" /></g><g
           transform="translate(108,92)"
           id="g134"><path
             id="path136"
             style="fill:#999999;fill-opacity:1;fill-rule:nonzero;stroke:none"
             d="m 0,0 -12,12 h 4 L 4,0 Z" /></g><g
           transform="translate(188,84)"
           id="g138"><path
             id="path140"
             style="fill:#999999;fill-opacity:1;fill-rule:nonzero;stroke:none"
             d="m 0,0 h -4 -4 -4 v -4 -4 -4 h 4 4 4 v 4 4 z m -4,-8 h -4 v 4 h 4 z" /></g><g
           transform="translate(180,188)"
           id="g142"><path
             id="path144"
             style="fill:#999999;fill-opacity:1;fill-rule:nonzero;stroke:none"
             d="m 0,0 h -34 c -1.104,0 -2,0.896 -2,2 0,1.104 0.896,2 2,2 H 0 Z" /></g><g
           transform="translate(180,192)"
           id="g146"><path
             id="path148"
             style="fill:#999999;fill-opacity:1;fill-rule:nonzero;stroke:none"
             d="m 0,0 12,12 h 4 L 0,-4 Z" /></g><path
           id="path150"
           style="fill:#999999;fill-opacity:1;fill-rule:nonzero;stroke:none"
           d="m 220,200 h -28 v 4 h 28 z" /><g
           transform="translate(194,188)"
           id="g152"><path
             id="path154"
             style="fill:#999999;fill-opacity:1;fill-rule:nonzero;stroke:none"
             d="m 0,0 c -3.309,0 -6,-2.691 -6,-6 0,-3.309 2.691,-6 6,-6 3.309,0 6,2.691 6,6 0,3.309 -2.691,6 -6,6 m 0,-4 c 1.104,0 2,-0.896 2,-2 0,-1.104 -0.896,-2 -2,-2 -1.104,0 -2,0.896 -2,2 0,1.104 0.896,2 2,2" /></g><g
           transform="translate(194,180)"
           id="g156"><path
             id="path158"
             style="fill:#999999;fill-opacity:1;fill-rule:nonzero;stroke:none"
             d="m 0,0 c -3.309,0 -6,-2.691 -6,-6 0,-3.309 2.691,-6 6,-6 3.309,0 6,2.691 6,6 0,3.309 -2.691,6 -6,6 m 0,-4 c 1.104,0 2,-0.896 2,-2 0,-1.104 -0.896,-2 -2,-2 -1.104,0 -2,0.896 -2,2 0,1.104 0.896,2 2,2" /></g><g
           transform="translate(186,164)"
           id="g160"><path
             id="path162"
             style="fill:#999999;fill-opacity:1;fill-rule:nonzero;stroke:none"
             d="m 0,0 c -3.309,0 -6,-2.691 -6,-6 0,-3.309 2.691,-6 6,-6 3.309,0 6,2.691 6,6 0,3.309 -2.691,6 -6,6 m 0,-4 c 1.104,0 2,-0.896 2,-2 0,-1.104 -0.896,-2 -2,-2 -1.104,0 -2,0.896 -2,2 0,1.104 0.896,2 2,2" /></g><g
           transform="translate(156,124)"
           id="g164"><path
             id="path166"
             style="fill:#999999;fill-opacity:1;fill-rule:nonzero;stroke:none"
             d="M 0,0 V 4" /></g><g
           transform="translate(220,128)"
           id="g168"><path
             id="path170"
             style="fill:#999999;fill-opacity:1;fill-rule:nonzero;stroke:none"
             d="M 0,0 H -69.194 L -84,28 v 6 c 0,1.104 0.896,2 2,2 1.104,0 2,-0.896 2,-2 V 28 L -66.806,4 H 0 Z" /></g><g
           transform="translate(220,120)"
           id="g172"><path
             id="path174"
             style="fill:#999999;fill-opacity:1;fill-rule:nonzero;stroke:none"
             d="m 0,0 h -74 c -1.104,0 -2,0.896 -2,2 0,1.104 0.896,2 2,2 H 0 Z" /></g><g
           transform="translate(216,164)"
           id="g176"><path
             id="path178"
             style="fill:#999999;fill-opacity:1;fill-rule:nonzero;stroke:none"
             d="m 0,0 h -18 c -1.104,0 -2,0.896 -2,2 0,1.104 0.896,2 2,2 H 0 Z" /></g><g
           transform="translate(220,176)"
           id="g180"><path
             id="path182"
             style="fill:#999999;fill-opacity:1;fill-rule:nonzero;stroke:none"
             d="m 0,0 h -14 c -1.104,0 -2,0.896 -2,2 0,1.104 0.896,2 2,2 H 0 Z" /></g><g
           transform="translate(133.6445,60.8613)"
           id="g184"><path
             id="path186"
             style="fill:#999999;fill-opacity:1;fill-rule:nonzero;stroke:none"
             d="m 0,0 -3.289,2.277 36.597,52.862 h 31.047 c 1.105,0 2,-0.896 2,-2 0,-1.105 -0.895,-2 -2,-2 H 35.403 Z" /></g><g
           transform="translate(159.3125,140)"
           id="g188"><path
             id="path190"
             style="fill:#999999;fill-opacity:1;fill-rule:nonzero;stroke:none"
             d="m 0,0 -11.313,20 v 2 c 0,1.104 -0.895,2 -2,2 -1.104,0 -2,-0.896 -2,-2 V 20 L -2.389,-4 h 63.077 v 4 z" /></g><g
           transform="translate(163.0039,148)"
           id="g192"><path
             id="path194"
             style="fill:#999999;fill-opacity:1;fill-rule:nonzero;stroke:none"
             d="m 0,0 -7.004,12 v 2 c 0,1.104 -0.895,2 -2,2 -1.104,0 -2,-0.896 -2,-2 v -2 l 8.615,-16 h 59.385 v 4 z" /></g><path
           id="path196"
           style="fill:#999999;fill-opacity:1;fill-rule:nonzero;stroke:none"
           d="m 140,172 h -4 v 4 h 4 z m 0,8 h -4 c -2.209,0 -4,-1.791 -4,-4 v -4 c 0,-2.209 1.791,-4 4,-4 h 4 c 2.209,0 4,1.791 4,4 v 4 c 0,2.209 -1.791,4 -4,4" /><path
           id="path198"
           style="fill:#999999;fill-opacity:1;fill-rule:nonzero;stroke:none"
           d="m 156,172 h -4 v 4 h 4 z m 0,8 h -4 c -2.209,0 -4,-1.791 -4,-4 v -4 c 0,-2.209 1.791,-4 4,-4 h 4 c 2.209,0 4,1.791 4,4 v 4 c 0,2.209 -1.791,4 -4,4" /><path
           id="path200"
           style="fill:#999999;fill-opacity:1;fill-rule:nonzero;stroke:none"
           d="m 172,172 h -4 v 4 h 4 z m 0,8 h -4 c -2.209,0 -4,-1.791 -4,-4 v -4 c 0,-2.209 1.791,-4 4,-4 h 4 c 2.209,0 4,1.791 4,4 v 4 c 0,2.209 -1.791,4 -4,4" /><path
           id="path202"
           style="fill:#999999;fill-opacity:1;fill-rule:nonzero;stroke:none"
           d="m 160,200 h -8 v 4 h 8 z m 0,8 h -8 c -2.209,0 -4,-1.791 -4,-4 v -4 c 0,-2.209 1.791,-4 4,-4 h 8 c 2.199,0 3.981,1.782 3.981,3.981 v 4.038 c 0,2.199 -1.782,3.981 -3.981,3.981" /><g
           transform="translate(219.9854,67.9854)"
           id="g204"><path
             id="path206"
             style="fill:#999999;fill-opacity:1;fill-rule:nonzero;stroke:none"
             d="m 0,0 -20.584,24.015 h -17.401 c -1.105,0 -2,-0.896 -2,-2 0,-1.105 0.895,-2 2,-2 h 15.561 L -2.837,-2.837 Z" /></g><g
           transform="translate(194,108)"
           id="g208"><path
             id="path210"
             style="fill:#999999;fill-opacity:1;fill-rule:nonzero;stroke:none"
             d="M 0,0 H -23.048 L -53.51,-44 h 4.865 l 27.693,40 H 0 c 1.104,0 2,0.896 2,2 0,1.104 -0.896,2 -2,2" /></g><g
           transform="translate(186,100)"
           id="g212"><path
             id="path214"
             style="fill:#999999;fill-opacity:1;fill-rule:nonzero;stroke:none"
             d="m 0,0 h -11.048 l -24.923,-36 h 4.866 L -8.952,-4 H 0 c 1.104,0 2,0.896 2,2 0,1.104 -0.896,2 -2,2" /></g><g
           transform="translate(220,106)"
           id="g216"><path
             id="path218"
             style="fill:#999999;fill-opacity:1;fill-rule:nonzero;stroke:none"
             d="m 0,0 c 0,-3.313 -2.687,-6 -6,-6 -3.313,0 -6,2.687 -6,6 0,3.313 2.687,6 6,6 3.313,0 6,-2.687 6,-6 V 7.98 C -1.674,9.242 -3.747,10 -6,10 -11.514,10 -16,5.514 -16,0 c 0,-5.514 4.486,-10 10,-10 2.253,0 4.326,0.758 6,2.02 z" /></g><g
           transform="translate(69.1826,144.0034)"
           id="g220"><path
             id="path222"
             style="fill:#9c0000;fill-opacity:1;fill-rule:nonzero;stroke:none"
             d="m 0,0 c -1.605,1.489 -1.111,6.609 -1.111,6.609 0,5.397 18.133,8.67 18.133,8.67 0.459,0 0.826,-0.372 0.826,-0.831 0,-0.46 -0.368,-0.832 -0.826,-0.832 C 1.173,9.273 3.031,6.311 3.123,5.562 c 0.189,-1.505 7.5,-9.806 47.313,-9.806 0.981,0 0.981,-1.15 0.981,-1.15 v -9.129 L 49.43,-61.016 c 0,-0.458 -0.372,-0.83 -0.826,-0.83 -0.455,0 -0.829,0.372 -0.829,0.83 l -3.567,47.051 C 17.105,-11.354 5.309,-6.001 0,0" /></g><g
           transform="translate(128.7344,76.8301)"
           id="g224"><path
             id="path226"
             style="fill:#9c0000;fill-opacity:1;fill-rule:nonzero;stroke:none"
             d="m 0,0 c 0,-0.458 -0.331,-0.83 -0.735,-0.83 -0.405,0 -0.733,0.372 -0.733,0.83 l -3.918,54.996 3.916,59.342 c 0,0.46 0.328,0.832 0.735,0.832 0.404,0 0.735,-0.372 0.735,-0.832 L 3.915,54.996 Z" /></g><g
           transform="translate(142.6094,130.0376)"
           id="g228"><path
             id="path230"
             style="fill:#9c0000;fill-opacity:1;fill-rule:nonzero;stroke:none"
             d="m 0,0 -3.568,-47.05 c 0,-0.458 -0.373,-0.83 -0.828,-0.83 -0.454,0 -0.827,0.372 -0.827,0.83 l -1.986,46.493 v 9.129 c 0,0 0,1.15 0.98,1.15 39.814,0 47.125,8.3 47.314,9.806 0.092,0.749 1.949,3.711 -13.898,8.054 -0.46,0 -0.828,0.372 -0.828,0.832 0,0.459 0.368,0.831 0.828,0.831 0,0 18.131,-3.273 18.131,-8.67 0,0 0.495,-5.12 -1.111,-6.609 C 38.897,7.964 27.101,2.612 0,0" /></g><g
           transform="translate(236,48)"
           id="g232"><path
             id="path234"
             style="fill:#262626;fill-opacity:1;fill-rule:nonzero;stroke:none"
             d="M 0,0 C -2.209,0 -4,1.791 -4,4 -4,6.209 -2.209,8 0,8 2.209,8 4,6.209 4,4 4,1.791 2.209,0 0,0" /></g><g
           transform="translate(128,212)"
           id="g236"><path
             id="path238"
             style="fill:#000000;fill-opacity:1;fill-rule:nonzero;stroke:none"
             d="M 0,0 C -34.5,0 -69,-1.288 -86.889,-3.864 -89.692,-4.268 -92,-6.163 -92,-9.017 v -133.966 c 0,-2.855 2.308,-4.748 5.111,-5.153 C -69,-150.712 -34.5,-152 0,-152 c 34.5,0 69,1.288 86.889,3.864 2.803,0.405 5.111,2.298 5.111,5.153 V -9.017 c 0,2.854 -2.308,4.749 -5.111,5.153 C 69,-1.288 34.5,0 0,0 M 0,-4 C 36.867,-4 69.942,-5.465 86.318,-7.824 86.388,-7.833 88,-8.077 88,-9.017 v -133.966 c 0,-0.941 -1.612,-1.184 -1.682,-1.194 C 69.942,-146.535 36.867,-148 0,-148 c -36.867,0 -69.942,1.465 -86.319,3.823 -0.068,0.01 -1.681,0.253 -1.681,1.194 V -9.017 c 0,0.94 1.613,1.184 1.681,1.193 C -69.942,-5.465 -36.867,-4 0,-4" /></g></g></g></g></svg>