<?xml version="1.0" encoding="UTF-8" standalone="no"?>
<svg
   xmlns:dc="http://purl.org/dc/elements/1.1/"
   xmlns:cc="http://creativecommons.org/ns#"
   xmlns:rdf="http://www.w3.org/1999/02/22-rdf-syntax-ns#"
   xmlns:svg="http://www.w3.org/2000/svg"
   xmlns="http://www.w3.org/2000/svg"
   viewBox="0 0 333.99411 288"
   height="288"
   width="333.99411"
   xml:space="preserve"
   id="svg2"
   version="1.1"><metadata
     id="metadata8"><rdf:RDF><cc:Work
         rdf:about=""><dc:format>image/svg+xml</dc:format><dc:type
           rdf:resource="http://purl.org/dc/dcmitype/StillImage" /></cc:Work></rdf:RDF></metadata><defs
     id="defs6"><clipPath
       id="clipPath18"
       clipPathUnits="userSpaceOnUse"><path
         id="path16"
         d="M 0,256 H 256 V 0 H 0 Z" /></clipPath><clipPath
       id="clipPath26"
       clipPathUnits="userSpaceOnUse"><path
         id="path24"
         d="M 2.7518,236 H 253.248 V 20 H 2.7518 Z" /></clipPath><clipPath
       id="clipPath46"
       clipPathUnits="userSpaceOnUse"><path
         id="path44"
         d="M 0,256 H 256 V 0 H 0 Z" /></clipPath></defs><g
     transform="matrix(1.3333333,0,0,-1.3333333,-3.6698666,314.66666)"
     id="g10"><g
       id="g12"><g
         clip-path="url(#clipPath18)"
         id="g14"><g
           id="g20"><g
             id="g22" /><g
             id="g34"><g
               style="opacity:0.5"
               id="g32"
               clip-path="url(#clipPath26)"><g
                 id="g30"
                 transform="translate(190.6084,236)"><path
                   id="path28"
                   style="fill:#ffffff;fill-opacity:1;fill-rule:nonzero;stroke:none"
                   d="m 0,0 h -4.608 -116 -4.609 l -2.312,-3.986 -58,-100 -2.327,-4.014 2.327,-4.014 58,-100 2.312,-3.986 h 4.609 116 H 0 l 2.312,3.986 58,100 2.328,4.014 -2.328,4.014 -58,100 z" /></g></g></g></g></g></g><g
       transform="translate(186,228)"
       id="g36"><path
         id="path38"
         style="fill:#000000;fill-opacity:1;fill-rule:nonzero;stroke:none"
         d="m 0,0 h -116 l -58,-100 58,-100 H 0 l 58,100 z" /></g><g
       id="g40"><g
         clip-path="url(#clipPath46)"
         id="g42"><g
           transform="translate(166.6543,135.583)"
           id="g48"><path
             id="path50"
             style="fill:#3b96cc;fill-opacity:1;fill-rule:nonzero;stroke:none"
             d="m 0,0 c 0,-3.002 -2.434,-5.436 -5.436,-5.436 h -6.308 c -3.002,0 -5.436,2.434 -5.436,5.436 v 6.309 c 0,3.002 2.434,5.435 5.436,5.435 h 6.308 C -2.434,11.744 0,9.311 0,6.309 Z m -60.129,0 c 0,-3.002 -2.434,-5.436 -5.436,-5.436 h -6.308 c -3.002,0 -5.436,2.434 -5.436,5.436 v 6.309 c 0,3.002 2.434,5.435 5.436,5.435 h 6.308 c 3.002,0 5.436,-2.433 5.436,-5.435 z M 53.035,-8.99 42.949,24.629 H 30.064 L 36.373,4.228 H 20.267 l -7.382,20.401 h -25.77 L 0,41.809 h -9.261 c -2.281,0 -4.429,-1.074 -5.798,-2.899 L -25.77,24.629 H -51.539 L -62.25,38.91 c -1.368,1.825 -3.517,2.899 -5.798,2.899 h -9.261 l 12.885,-17.18 H -90.193 L -97.576,4.228 h -16.106 l 6.308,20.401 h -12.884 L -130.344,-8.99 c -1.395,-4.651 2.087,-9.33 6.942,-9.33 h 20.324 l -4.296,-17.18 h 25.77 l -17.179,-21.475 h 21.474 l 17.18,21.475 H -17.18 L 0.269,-56.975 H 21.475 L 4.295,-35.5 h 25.769 l -4.294,17.18 h 20.324 c 4.854,0 8.337,4.679 6.941,9.33" /></g></g></g></g></svg>