<?xml version="1.0" encoding="UTF-8" standalone="no"?>
<svg
   xmlns:dc="http://purl.org/dc/elements/1.1/"
   xmlns:cc="http://creativecommons.org/ns#"
   xmlns:rdf="http://www.w3.org/1999/02/22-rdf-syntax-ns#"
   xmlns:svg="http://www.w3.org/2000/svg"
   xmlns="http://www.w3.org/2000/svg"
   viewBox="0 0 95.999999 106.66666"
   height="106.66666"
   width="96"
   xml:space="preserve"
   id="svg2"
   version="1.1"><metadata
     id="metadata8"><rdf:RDF><cc:Work
         rdf:about=""><dc:format>image/svg+xml</dc:format><dc:type
           rdf:resource="http://purl.org/dc/dcmitype/StillImage" /></cc:Work></rdf:RDF></metadata><defs
     id="defs6"><clipPath
       id="clipPath18"
       clipPathUnits="userSpaceOnUse"><path
         id="path16"
         d="M 0,256 H 256 V 0 H 0 Z" /></clipPath><clipPath
       id="clipPath30"
       clipPathUnits="userSpaceOnUse"><path
         id="path28"
         d="m 92,168 h 72 V 88 H 92 Z" /></clipPath></defs><g
     transform="matrix(1.3333333,0,0,-1.3333333,-122.66666,223.99999)"
     id="g10"><g
       id="g12"><g
         clip-path="url(#clipPath18)"
         id="g14"><g
           transform="translate(153.34,132.44)"
           id="g20"><path
             id="path22"
             style="fill:#191919;fill-opacity:1;fill-rule:nonzero;stroke:none"
             d="m 0,0 c -2.98,1.988 -45.984,26.676 -46.72,27.056 -0.624,0.32 -1.332,0.504 -2.08,0.504 -2.484,0 -4.488,-1.996 -4.524,-4.472 -0.004,-0.02 -0.016,-0.036 -0.016,-0.056 V -31.9 c 0,-2.508 2.032,-4.54 4.54,-4.54 0.752,0 1.456,0.184 2.084,0.504 0.74,0.38 43.748,25.08 46.728,27.064 C 1.668,-7.768 2.66,-6.104 2.66,-4.44 2.66,-2.776 1.664,-1.108 0,0" /></g><g
           id="g24"><g
             id="g26" /><g
             id="g38"><g
               style="opacity:0.5"
               id="g36"
               clip-path="url(#clipPath30)"><g
                 id="g34"
                 transform="translate(104.54,168)"><path
                   id="path32"
                   style="fill:#ffffff;fill-opacity:1;fill-rule:nonzero;stroke:none"
                   d="m 0,0 c -6.577,0 -12.044,-5.175 -12.494,-11.671 -0.031,-0.283 -0.046,-0.569 -0.046,-0.857 V -67.46 C -12.54,-74.375 -6.915,-80 0,-80 c 1.973,0 3.949,0.476 5.716,1.376 0.292,0.15 44.073,25.232 47.529,27.533 3.893,2.595 6.215,6.74 6.215,11.091 0,4.354 -2.328,8.503 -6.226,11.099 C 49.588,-26.469 6.027,-1.538 5.75,-1.396 3.963,-0.479 1.982,0 0,0 m 0,-8 c 0.748,0 1.456,-0.184 2.08,-0.504 0.736,-0.38 43.74,-25.068 46.72,-27.056 1.664,-1.108 2.66,-2.776 2.66,-4.44 0,-1.664 -0.992,-3.328 -2.648,-4.432 C 45.832,-46.416 2.824,-71.116 2.084,-71.496 1.456,-71.816 0.752,-72 0,-72 c -2.508,0 -4.54,2.032 -4.54,4.54 v 54.932 c 0,0.02 0.012,0.036 0.016,0.056 C -4.488,-9.996 -2.484,-8 0,-8" /></g></g></g></g></g></g></g></svg>