<?xml version="1.0" encoding="UTF-8" standalone="no"?>
<svg
   xmlns:dc="http://purl.org/dc/elements/1.1/"
   xmlns:cc="http://creativecommons.org/ns#"
   xmlns:rdf="http://www.w3.org/1999/02/22-rdf-syntax-ns#"
   xmlns:svg="http://www.w3.org/2000/svg"
   xmlns="http://www.w3.org/2000/svg"
   viewBox="0 0 106.66666 128"
   height="128"
   width="106.66666"
   xml:space="preserve"
   id="svg2"
   version="1.1"><metadata
     id="metadata8"><rdf:RDF><cc:Work
         rdf:about=""><dc:format>image/svg+xml</dc:format><dc:type
           rdf:resource="http://purl.org/dc/dcmitype/StillImage" /></cc:Work></rdf:RDF></metadata><defs
     id="defs6"><clipPath
       id="clipPath18"
       clipPathUnits="userSpaceOnUse"><path
         id="path16"
         d="M 0,256 H 256 V 0 H 0 Z" /></clipPath><clipPath
       id="clipPath26"
       clipPathUnits="userSpaceOnUse"><path
         id="path24"
         d="m 88,176 h 80 V 80 H 88 Z" /></clipPath></defs><g
     transform="matrix(1.3333333,0,0,-1.3333333,-117.33333,234.66666)"
     id="g10"><g
       id="g12"><g
         clip-path="url(#clipPath18)"
         id="g14"><g
           id="g20"><g
             id="g22" /><g
             id="g34"><g
               style="opacity:0.5"
               id="g32"
               clip-path="url(#clipPath26)"><g
                 id="g30"
                 transform="translate(156,104)"><path
                   id="path28"
                   style="fill:#ffffff;fill-opacity:1;fill-rule:nonzero;stroke:none"
                   d="M 0,0 H -17.99 L 2.407,27.187 c 1.819,2.423 2.112,5.666 0.758,8.376 -1.354,2.71 -4.123,4.423 -7.153,4.425 L -12,39.992 V 60 c 0,6.617 -5.383,12 -12,12 h -7.992 c -6.617,0 -12,-5.383 -12,-12 V 39.992 l -8.012,-0.004 c -3.03,-0.002 -5.799,-1.715 -7.153,-4.425 -1.354,-2.711 -1.06,-5.954 0.759,-8.377 L -37.995,0 H -56 c -6.617,0 -12,-5.383 -12,-12 0,-6.617 5.383,-12 12,-12 H 0 c 6.617,0 12,5.383 12,12 C 12,-5.383 6.617,0 0,0" /></g></g></g></g><g
           transform="translate(156,88)"
           id="g36"><path
             id="path38"
             style="fill:#999999;fill-opacity:1;fill-rule:nonzero;stroke:none"
             d="m 0,0 h -34.667 c -2.2,0 -4,1.8 -4,4 0,2.2 1.8,4 4,4 H 0 C 2.2,8 4,6.2 4,4 4,1.8 2.2,0 0,0" /></g><g
           transform="translate(136,88)"
           id="g40"><path
             id="path42"
             style="fill:#333333;fill-opacity:1;fill-rule:nonzero;stroke:none"
             d="m 0,0 h -36 c -2.2,0 -4,1.8 -4,4 0,2.2 1.8,4 4,4 H 0 C 2.2,8 4,6.2 4,4 4,1.8 2.2,0 0,0" /></g><g
           transform="translate(136.0078,135.9961)"
           id="g44"><path
             id="path46"
             style="fill:#1abf9f;fill-opacity:1;fill-rule:nonzero;stroke:none"
             d="m 0,0 h -0.008 v 28.004 c 0,2.212 -1.788,4 -4,4 H -12 c -2.212,0 -4,-1.788 -4,-4 V 0 h -0.008 l -16,-0.008 L -8,-31.996 16,-0.008 Z" /></g></g></g></g></svg>