<?xml version="1.0" encoding="UTF-8" standalone="no"?>
<svg
   xmlns:dc="http://purl.org/dc/elements/1.1/"
   xmlns:cc="http://creativecommons.org/ns#"
   xmlns:rdf="http://www.w3.org/1999/02/22-rdf-syntax-ns#"
   xmlns:svg="http://www.w3.org/2000/svg"
   xmlns="http://www.w3.org/2000/svg"
   viewBox="0 0 320 320"
   height="320"
   width="320"
   xml:space="preserve"
   version="1.1"
   id="svg2"><metadata
     id="metadata8"><rdf:RDF><cc:Work
         rdf:about=""><dc:format>image/svg+xml</dc:format><dc:type
           rdf:resource="http://purl.org/dc/dcmitype/StillImage" /></cc:Work></rdf:RDF></metadata><defs
     id="defs6"><clipPath
       id="clipPath16"
       clipPathUnits="userSpaceOnUse"><path
         id="path18"
         d="M 0,256 256,256 256,0 0,0 0,256 Z" /></clipPath><clipPath
       id="clipPath24"
       clipPathUnits="userSpaceOnUse"><path
         id="path26"
         d="m 76,192 104,0 0,-128 -104,0 0,128 z" /></clipPath></defs><g
     transform="matrix(1.25,0,0,-1.25,0,320)"
     id="g10"><g
       id="g12"><g
         clip-path="url(#clipPath16)"
         id="g14"><g
           id="g20"><g
             id="g22" /><g
             id="g28"><g
               style="opacity:0.5"
               id="g30"
               clip-path="url(#clipPath24)"><g
                 id="g32"
                 transform="translate(143.8614,192)"><path
                   id="path34"
                   style="fill:#ffffff;fill-opacity:1;fill-rule:nonzero;stroke:none"
                   d="m 0,0 -3.29,0 -50.286,0 c -7.877,0 -14.285,-6.38 -14.285,-14.222 l 0,-99.556 c 0,-7.842 6.408,-14.222 14.285,-14.222 l 75.429,0 c 7.877,0 14.286,6.38 14.286,14.222 l 0,74.667 0,3.337 -2.372,2.348 L 2.338,-2.314 0,0 Z" /></g></g></g></g><g
           transform="translate(140.5714,184)"
           id="g36"><path
             id="path38"
             style="fill:#e6e6e6;fill-opacity:1;fill-rule:nonzero;stroke:none"
             d="m 0,0 -50.286,0 c -3.473,0 -6.285,-2.784 -6.285,-6.222 l 0,-99.556 c 0,-3.438 2.812,-6.222 6.285,-6.222 l 75.429,0 c 3.473,0 6.286,2.784 6.286,6.222 l 0,74.667 L 0,0 Z" /></g><g
           transform="translate(128.0002,140)"
           id="g40"><path
             id="path42"
             style="fill:#333333;fill-opacity:1;fill-rule:nonzero;stroke:none"
             d="m 0,0 c -26.566,0 -32,-5.396 -32,-32 0,-26.604 5.35,-32 32,-32 26.653,0 32,5.385 32,32 C 32,-5.383 26.566,0 0,0" /></g><g
           transform="translate(128,136)"
           id="g44"><path
             id="path46"
             style="fill:#4699c7;fill-opacity:1;fill-rule:nonzero;stroke:none"
             d="m 0,0 c -23.245,0 -28,-4.722 -28,-28 0,-23.278 4.681,-28 28,-28 23.322,0 28,4.712 28,28 C 28,-4.71 23.245,0 0,0" /></g><g
           transform="translate(113.7206,90.8683)"
           id="g48"><path
             id="path50"
             style="fill:#ab463b;fill-opacity:1;fill-rule:nonzero;stroke:none"
             d="M 0,0 C -0.013,0 -0.027,0.004 -0.038,0.013 -0.065,0.034 -0.07,0.072 -0.049,0.098 0.435,0.703 0.758,1.455 0.938,2.397 0.944,2.43 0.976,2.451 1.01,2.445 1.044,2.439 1.066,2.407 1.06,2.374 0.876,1.413 0.545,0.644 0.049,0.023 0.037,0.008 0.018,0 0,0" /></g><g
           transform="translate(114.8096,93.9781)"
           id="g52"><path
             id="path54"
             style="fill:#ab463b;fill-opacity:1;fill-rule:nonzero;stroke:none"
             d="M 0,0 C -0.249,1.253 0.545,1.619 0.014,-0.013" /></g><g
           transform="translate(114.9334,94.9859)"
           id="g56"><path
             id="path58"
             style="fill:#ab463b;fill-opacity:1;fill-rule:nonzero;stroke:none"
             d="M 0,0 C -0.056,-0.063 -0.146,-0.331 -0.098,-0.769 0.041,-0.277 0.023,-0.061 0,0 m -0.11,-1.082 c -0.006,0 -0.013,0.001 -0.019,0.003 -0.013,0.004 -0.024,0.012 -0.031,0.022 -0.013,0.009 -0.022,0.022 -0.025,0.038 -0.122,0.615 0,1.054 0.135,1.134 0.039,0.024 0.084,0.023 0.119,-0.004 0.126,-0.097 0.08,-0.538 -0.12,-1.151 -0.008,-0.026 -0.033,-0.042 -0.059,-0.042" /></g><g
           transform="translate(115.0842,93.8694)"
           id="g60"><path
             id="path62"
             style="fill:#ab463b;fill-opacity:1;fill-rule:nonzero;stroke:none"
             d="M 0,0 C 0.693,1.082 1.529,0.819 0.001,-0.019" /></g><g
           transform="translate(115.8783,94.5233)"
           id="g64"><path
             id="path66"
             style="fill:#ab463b;fill-opacity:1;fill-rule:nonzero;stroke:none"
             d="M 0,0 C -0.085,-0.008 -0.338,-0.145 -0.609,-0.497 -0.163,-0.229 -0.026,-0.059 0,0 m -0.793,-0.734 c -0.022,0 -0.043,0.011 -0.055,0.031 -0.006,0.012 -0.009,0.025 -0.007,0.037 -0.003,0.015 0,0.031 0.008,0.044 0.341,0.531 0.736,0.771 0.891,0.74 0.045,-0.009 0.077,-0.04 0.084,-0.083 0.024,-0.154 -0.317,-0.446 -0.891,-0.761 -0.01,-0.005 -0.02,-0.008 -0.03,-0.008" /></g><g
           transform="translate(115.2014,93.5078)"
           id="g68"><path
             id="path70"
             style="fill:#ab463b;fill-opacity:1;fill-rule:nonzero;stroke:none"
             d="M 0,0 C 1.259,0.337 1.692,-0.409 -0.013,-0.014" /></g><g
           transform="translate(115.4464,93.5008)"
           id="g72"><path
             id="path74"
             style="fill:#ab463b;fill-opacity:1;fill-rule:nonzero;stroke:none"
             d="M 0,0 C 0.513,-0.098 0.732,-0.064 0.792,-0.037 0.724,0.013 0.443,0.08 0,0 m 0.57,-0.186 c -0.209,0 -0.498,0.04 -0.842,0.12 -0.033,0.007 -0.054,0.04 -0.046,0.073 0.003,0.013 0.01,0.024 0.02,0.032 0.008,0.012 0.021,0.022 0.037,0.027 0.618,0.165 1.075,0.08 1.167,-0.045 0.027,-0.038 0.029,-0.081 0.004,-0.117 -0.041,-0.06 -0.16,-0.09 -0.34,-0.09" /></g><g
           transform="translate(114.514,93.8457)"
           id="g76"><path
             id="path78"
             style="fill:#ab463b;fill-opacity:1;fill-rule:nonzero;stroke:none"
             d="M 0,0 C -1.063,0.741 -0.746,1.541 0.02,0" /></g><g
           transform="translate(113.8934,94.6595)"
           id="g80"><path
             id="path82"
             style="fill:#ab463b;fill-opacity:1;fill-rule:nonzero;stroke:none"
             d="M 0,0 C 0.003,-0.083 0.128,-0.339 0.471,-0.624 0.224,-0.173 0.059,-0.029 0,0 m 0.64,-0.875 c -0.004,0 -0.007,0 -0.011,0.001 C 0.614,-0.876 0.598,-0.872 0.585,-0.863 0.063,-0.5 -0.159,-0.1 -0.118,0.05 -0.106,0.094 -0.072,0.122 -0.028,0.127 0.131,0.144 0.409,-0.209 0.696,-0.788 0.711,-0.818 0.698,-0.854 0.667,-0.869 0.658,-0.873 0.649,-0.875 0.64,-0.875" /></g><g
           transform="translate(114.4698,93.5432)"
           id="g84"><path
             id="path86"
             style="fill:#ab463b;fill-opacity:1;fill-rule:nonzero;stroke:none"
             d="M 0,0 C -1.162,-0.581 -1.742,0.063 0.009,0.017" /></g><g
           transform="translate(113.4451,93.3799)"
           id="g88"><path
             id="path90"
             style="fill:#ab463b;fill-opacity:1;fill-rule:nonzero;stroke:none"
             d="M 0,0 C 0.077,-0.036 0.366,-0.045 0.783,0.121 0.261,0.115 0.053,0.038 0,0 m 0.157,-0.141 c -0.124,0 -0.214,0.023 -0.256,0.062 -0.035,0.03 -0.046,0.073 -0.029,0.113 0.06,0.145 0.506,0.224 1.164,0.207 C 1.07,0.24 1.097,0.212 1.096,0.178 1.096,0.165 1.091,0.153 1.083,0.143 1.078,0.129 1.068,0.117 1.053,0.109 0.691,-0.071 0.372,-0.141 0.157,-0.141" /></g><g
           transform="translate(115.0508,93.249)"
           id="g92"><path
             id="path94"
             style="fill:#ab463b;fill-opacity:1;fill-rule:nonzero;stroke:none"
             d="M 0,0 C 1.112,-0.668 0.851,-1.488 -0.019,-0.001" /></g><g
           transform="translate(115.213,93.0692)"
           id="g96"><path
             id="path98"
             style="fill:#ab463b;fill-opacity:1;fill-rule:nonzero;stroke:none"
             d="M 0,0 C 0.277,-0.433 0.452,-0.566 0.513,-0.591 0.504,-0.508 0.363,-0.262 0,0 m 0.533,-0.717 c -0.162,0 -0.453,0.327 -0.769,0.866 -0.017,0.029 -0.006,0.066 0.024,0.083 0.011,0.006 0.025,0.008 0.037,0.007 C -0.16,0.242 -0.144,0.24 -0.13,0.231 0.416,-0.097 0.665,-0.481 0.634,-0.633 0.625,-0.678 0.594,-0.709 0.55,-0.716 0.545,-0.717 0.539,-0.717 0.533,-0.717" /></g><g
           transform="translate(156,104.0896)"
           id="g100"><path
             id="path102"
             style="fill:#1c5778;fill-opacity:1;fill-rule:nonzero;stroke:none"
             d="m 0,0 c -17.714,3.648 -34.793,6.997 -56,-0.997 l 0,-1.764 c 1.08,-17.513 7.103,-21.329 27.935,-21.329 21.89,0 27.431,4.195 28.065,24.09" /></g><path
           id="path104"
           style="fill:#ffffff;fill-opacity:1;fill-rule:nonzero;stroke:none"
           d="m 121,101 14,0 0,14 -14,0 0,-14 z m 15,-1 -16,0 0,16 16,0 0,-16 z" /><g
           transform="translate(128.5625,108.5625)"
           id="g106"><path
             id="path108"
             style="fill:#ffffff;fill-opacity:1;fill-rule:nonzero;stroke:none"
             d="m 0,0 0,5.438 -1.125,0 0,-5.438 -5.437,0 0,-1.125 5.437,0 0,-5.437 1.125,0 0,5.437 5.438,0 L 5.438,0 0,0 Z" /></g><g
           transform="translate(100,140)"
           id="g110"><path
             id="path112"
             style="fill:#808080;fill-opacity:1;fill-rule:nonzero;stroke:none"
             d="m 0,0 -6,0 -2,0 0,-2 0,-6 2,0 0,6 6,0 0,2 z" /></g><g
           transform="translate(92,84)"
           id="g114"><path
             id="path116"
             style="fill:#808080;fill-opacity:1;fill-rule:nonzero;stroke:none"
             d="m 0,0 0,-6 0,-2 2,0 6,0 0,2 -6,0 0,6 -2,0 z" /></g><g
           transform="translate(156,76)"
           id="g118"><path
             id="path120"
             style="fill:#808080;fill-opacity:1;fill-rule:nonzero;stroke:none"
             d="M 0,0 6,0 8,0 8,2 8,8 6,8 6,2 0,2 0,0 Z" /></g><g
           transform="translate(164,132)"
           id="g122"><path
             id="path124"
             style="fill:#808080;fill-opacity:1;fill-rule:nonzero;stroke:none"
             d="m 0,0 0,6 0,2 -2,0 -6,0 0,-2 6,0 0,-6 2,0 z" /></g></g></g></g></svg>