<?xml version="1.0" encoding="UTF-8" standalone="no"?>
<svg
   xmlns:dc="http://purl.org/dc/elements/1.1/"
   xmlns:cc="http://creativecommons.org/ns#"
   xmlns:rdf="http://www.w3.org/1999/02/22-rdf-syntax-ns#"
   xmlns:svg="http://www.w3.org/2000/svg"
   xmlns="http://www.w3.org/2000/svg"
   viewBox="0 0 320 320"
   height="320"
   width="320"
   xml:space="preserve"
   version="1.1"
   id="svg2"><metadata
     id="metadata8"><rdf:RDF><cc:Work
         rdf:about=""><dc:format>image/svg+xml</dc:format><dc:type
           rdf:resource="http://purl.org/dc/dcmitype/StillImage" /></cc:Work></rdf:RDF></metadata><defs
     id="defs6"><clipPath
       id="clipPath16"
       clipPathUnits="userSpaceOnUse"><path
         id="path18"
         d="M 0,256 256,256 256,0 0,0 0,256 Z" /></clipPath><clipPath
       id="clipPath24"
       clipPathUnits="userSpaceOnUse"><path
         id="path26"
         d="M 4,212 252,212 252,48 4,48 4,212 Z" /></clipPath></defs><g
     transform="matrix(1.25,0,0,-1.25,0,320)"
     id="g10"><g
       id="g12"><g
         clip-path="url(#clipPath16)"
         id="g14"><g
           id="g20"><g
             id="g22" /><g
             id="g28"><g
               style="opacity:0.5"
               id="g30"
               clip-path="url(#clipPath24)"><g
                 id="g32"
                 transform="translate(239.1667,212)"><path
                   id="path34"
                   style="fill:#ffffff;fill-opacity:1;fill-rule:nonzero;stroke:none"
                   d="m 0,0 -222.333,0 c -7.077,0 -12.834,-5.75 -12.834,-12.818 l 0,-135.955 0,-0.5 0.062,-0.496 c 0.573,-4.568 4.416,-8.013 11.422,-10.241 8.325,-2.647 22.139,-3.989 41.061,-3.99 l 142.911,0 c 18.921,0.001 32.736,1.343 41.061,3.99 7.006,2.228 10.848,5.673 11.421,10.241 l 0.062,0.496 0,0.5 0,135.955 C 12.833,-5.75 7.076,0 0,0" /></g></g></g></g><g
           transform="translate(239.1667,204)"
           id="g36"><path
             id="path38"
             style="fill:#262626;fill-opacity:1;fill-rule:nonzero;stroke:none"
             d="m 0,0 -222.333,0 c -2.659,0 -4.834,-2.168 -4.834,-4.818 l 0,-135.955 c 0,0 0.906,-7.226 44.545,-7.227 l 142.911,0 c 43.638,0.001 44.544,7.227 44.544,7.227 l 0,135.955 C 4.833,-2.168 2.658,0 0,0" /></g><g
           transform="translate(211.7778,202.237)"
           id="g40"><path
             id="path42"
             style="fill:#191919;fill-opacity:1;fill-rule:nonzero;stroke:none"
             d="m 0,0 -165.542,0 0,-125.779 c 0,-2.67 2.164,-4.834 4.834,-4.834 l 155.875,0 c 2.669,0 4.833,2.164 4.833,4.834 L 0,0 Z" /></g><g
           transform="translate(208,204)"
           id="g44"><path
             id="path46"
             style="fill:#808080;fill-opacity:1;fill-rule:nonzero;stroke:none"
             d="M 0,0 0,-125.541 C 0,-126.897 -1.079,-128 -2.406,-128 l -155.188,0 c -1.327,0 -2.406,1.103 -2.406,2.459 L -160,0 0,0" /></g><g
           transform="translate(207.49,76)"
           id="g48"><path
             id="path50"
             style="fill:#ff0000;fill-opacity:1;fill-rule:nonzero;stroke:none"
             d="m 0,0 -135.49,0 0,20 136,0 0,-19.49 C 0.51,0.228 0.282,0 0,0" /></g><g
           transform="translate(80,76)"
           id="g52"><path
             id="path54"
             style="fill:#0000ff;fill-opacity:1;fill-rule:nonzero;stroke:none"
             d="M 0,0 -31.49,0 C -31.772,0 -32,0.228 -32,0.51 L -32,128 0,128 0,0 Z" /></g></g></g></g></svg>