<?xml version="1.0" encoding="UTF-8" standalone="no"?>
<svg
   xmlns:dc="http://purl.org/dc/elements/1.1/"
   xmlns:cc="http://creativecommons.org/ns#"
   xmlns:rdf="http://www.w3.org/1999/02/22-rdf-syntax-ns#"
   xmlns:svg="http://www.w3.org/2000/svg"
   xmlns="http://www.w3.org/2000/svg"
   viewBox="0 0 320 320"
   height="320"
   width="320"
   xml:space="preserve"
   version="1.1"
   id="svg2"><metadata
     id="metadata8"><rdf:RDF><cc:Work
         rdf:about=""><dc:format>image/svg+xml</dc:format><dc:type
           rdf:resource="http://purl.org/dc/dcmitype/StillImage" /></cc:Work></rdf:RDF></metadata><defs
     id="defs6"><clipPath
       id="clipPath16"
       clipPathUnits="userSpaceOnUse"><path
         id="path18"
         d="M 0,256 256,256 256,0 0,0 0,256 Z" /></clipPath><clipPath
       id="clipPath24"
       clipPathUnits="userSpaceOnUse"><path
         id="path26"
         d="M 4,188 252,188 252,68 4,68 4,188 Z" /></clipPath><clipPath
       id="clipPath44"
       clipPathUnits="userSpaceOnUse"><path
         id="path46"
         d="M 0,256 256,256 256,0 0,0 0,256 Z" /></clipPath></defs><g
     transform="matrix(1.25,0,0,-1.25,0,320)"
     id="g10"><g
       id="g12"><g
         clip-path="url(#clipPath16)"
         id="g14"><g
           id="g20"><g
             id="g22" /><g
             id="g28"><g
               style="opacity:0.5"
               id="g30"
               clip-path="url(#clipPath24)"><g
                 id="g32"
                 transform="translate(247.9395,176.9912)"><path
                   id="path34"
                   style="fill:#ffffff;fill-opacity:1;fill-rule:nonzero;stroke:none"
                   d="m 0,0 c -0.348,2.815 -2.158,5.176 -4.646,6.302 -1.255,2.776 -4.049,4.707 -7.293,4.707 l -216,0 c -3.245,0 -6.038,-1.931 -7.293,-4.707 -2.489,-1.126 -4.299,-3.487 -4.647,-6.302 -2.489,-2.201 -4.06,-5.416 -4.06,-8.991 l 0,-80 c 0,-3.546 1.546,-6.738 4,-8.937 l 0,-3.063 c 0,-4.418 3.581,-8 8,-8 l 152,0 36,0 36,0 c 4.418,0 8,3.582 8,8 l 0,3.063 c 2.454,2.199 4,5.391 4,8.937 l 0,80 C 4.061,-5.416 2.488,-2.201 0,0" /></g></g></g></g></g></g><path
       id="path36"
       style="fill:#bfbfbf;fill-opacity:1;fill-rule:nonzero;stroke:none"
       d="m 236,172 -216,0 0,8 216,0 0,-8 z" /><path
       id="path38"
       style="fill:#d9d9d9;fill-opacity:1;fill-rule:nonzero;stroke:none"
       d="m 240,76 -224,0 0,100 224,0 0,-100 z" /><g
       id="g40"><g
         clip-path="url(#clipPath44)"
         id="g42"><g
           transform="translate(16,172)"
           id="g48"><path
             id="path50"
             style="fill:#cccccc;fill-opacity:1;fill-rule:nonzero;stroke:none"
             d="m 0,0 c -2.2,0 -4,-1.8 -4,-4 l 0,-80 c 0,-2.2 1.8,-4 4,-4 L 0,0 Z" /></g><g
           transform="translate(240,84)"
           id="g52"><path
             id="path54"
             style="fill:#cccccc;fill-opacity:1;fill-rule:nonzero;stroke:none"
             d="m 0,0 c 2.2,0 4,1.8 4,4 l 0,80 c 0,2.2 -1.8,4 -4,4 L 0,0 Z" /></g><path
           id="path56"
           style="fill:#8c8c8c;fill-opacity:1;fill-rule:nonzero;stroke:none"
           d="m 30,156 -2,0 0,16 2,0 0,-16 z" /><path
           id="path58"
           style="fill:#8c8c8c;fill-opacity:1;fill-rule:nonzero;stroke:none"
           d="m 34,156 -2,0 0,16 2,0 0,-16 z" /><path
           id="path60"
           style="fill:#8c8c8c;fill-opacity:1;fill-rule:nonzero;stroke:none"
           d="m 38,156 -2,0 0,16 2,0 0,-16 z" /><path
           id="path62"
           style="fill:#8c8c8c;fill-opacity:1;fill-rule:nonzero;stroke:none"
           d="m 42,156 -2,0 0,16 2,0 0,-16 z" /><path
           id="path64"
           style="fill:#8c8c8c;fill-opacity:1;fill-rule:nonzero;stroke:none"
           d="m 46,156 -2,0 0,16 2,0 0,-16 z" /><path
           id="path66"
           style="fill:#8c8c8c;fill-opacity:1;fill-rule:nonzero;stroke:none"
           d="m 50,156 -2,0 0,16 2,0 0,-16 z" /><path
           id="path68"
           style="fill:#8c8c8c;fill-opacity:1;fill-rule:nonzero;stroke:none"
           d="m 54,156 -2,0 0,16 2,0 0,-16 z" /><path
           id="path70"
           style="fill:#8c8c8c;fill-opacity:1;fill-rule:nonzero;stroke:none"
           d="m 58,156 -2,0 0,16 2,0 0,-16 z" /><path
           id="path72"
           style="fill:#8c8c8c;fill-opacity:1;fill-rule:nonzero;stroke:none"
           d="m 62,156 -2,0 0,16 2,0 0,-16 z" /><path
           id="path74"
           style="fill:#8c8c8c;fill-opacity:1;fill-rule:nonzero;stroke:none"
           d="m 66,156 -2,0 0,16 2,0 0,-16 z" /><path
           id="path76"
           style="fill:#8c8c8c;fill-opacity:1;fill-rule:nonzero;stroke:none"
           d="m 70,156 -2,0 0,16 2,0 0,-16 z" /><path
           id="path78"
           style="fill:#8c8c8c;fill-opacity:1;fill-rule:nonzero;stroke:none"
           d="m 74,156 -2,0 0,16 2,0 0,-16 z" /><path
           id="path80"
           style="fill:#8c8c8c;fill-opacity:1;fill-rule:nonzero;stroke:none"
           d="m 78,156 -2,0 0,16 2,0 0,-16 z" /><path
           id="path82"
           style="fill:#8c8c8c;fill-opacity:1;fill-rule:nonzero;stroke:none"
           d="m 82,156 -2,0 0,16 2,0 0,-16 z" /><path
           id="path84"
           style="fill:#8c8c8c;fill-opacity:1;fill-rule:nonzero;stroke:none"
           d="m 86,156 -2,0 0,16 2,0 0,-16 z" /><path
           id="path86"
           style="fill:#8c8c8c;fill-opacity:1;fill-rule:nonzero;stroke:none"
           d="m 90,156 -2,0 0,16 2,0 0,-16 z" /><path
           id="path88"
           style="fill:#8c8c8c;fill-opacity:1;fill-rule:nonzero;stroke:none"
           d="m 94,156 -2,0 0,16 2,0 0,-16 z" /><path
           id="path90"
           style="fill:#8c8c8c;fill-opacity:1;fill-rule:nonzero;stroke:none"
           d="m 98,156 -2,0 0,16 2,0 0,-16 z" /><path
           id="path92"
           style="fill:#8c8c8c;fill-opacity:1;fill-rule:nonzero;stroke:none"
           d="m 102,156 -2,0 0,16 2,0 0,-16 z" /><path
           id="path94"
           style="fill:#8c8c8c;fill-opacity:1;fill-rule:nonzero;stroke:none"
           d="m 106,156 -2,0 0,16 2,0 0,-16 z" /><path
           id="path96"
           style="fill:#8c8c8c;fill-opacity:1;fill-rule:nonzero;stroke:none"
           d="m 110,156 -2,0 0,16 2,0 0,-16 z" /><path
           id="path98"
           style="fill:#8c8c8c;fill-opacity:1;fill-rule:nonzero;stroke:none"
           d="m 114,156 -2,0 0,16 2,0 0,-16 z" /><path
           id="path100"
           style="fill:#8c8c8c;fill-opacity:1;fill-rule:nonzero;stroke:none"
           d="m 118,156 -2,0 0,16 2,0 0,-16 z" /><path
           id="path102"
           style="fill:#8c8c8c;fill-opacity:1;fill-rule:nonzero;stroke:none"
           d="m 122,156 -2,0 0,16 2,0 0,-16 z" /><path
           id="path104"
           style="fill:#8c8c8c;fill-opacity:1;fill-rule:nonzero;stroke:none"
           d="m 126,156 -2,0 0,16 2,0 0,-16 z" /><path
           id="path106"
           style="fill:#8c8c8c;fill-opacity:1;fill-rule:nonzero;stroke:none"
           d="m 130,156 -2,0 0,16 2,0 0,-16 z" /><path
           id="path108"
           style="fill:#8c8c8c;fill-opacity:1;fill-rule:nonzero;stroke:none"
           d="m 134,156 -2,0 0,16 2,0 0,-16 z" /><path
           id="path110"
           style="fill:#8c8c8c;fill-opacity:1;fill-rule:nonzero;stroke:none"
           d="m 138,156 -2,0 0,16 2,0 0,-16 z" /><path
           id="path112"
           style="fill:#8c8c8c;fill-opacity:1;fill-rule:nonzero;stroke:none"
           d="m 142,156 -2,0 0,16 2,0 0,-16 z" /><path
           id="path114"
           style="fill:#8c8c8c;fill-opacity:1;fill-rule:nonzero;stroke:none"
           d="m 146,156 -2,0 0,16 2,0 0,-16 z" /><path
           id="path116"
           style="fill:#8c8c8c;fill-opacity:1;fill-rule:nonzero;stroke:none"
           d="m 150,156 -2,0 0,16 2,0 0,-16 z" /><path
           id="path118"
           style="fill:#8c8c8c;fill-opacity:1;fill-rule:nonzero;stroke:none"
           d="m 154,156 -2,0 0,16 2,0 0,-16 z" /><path
           id="path120"
           style="fill:#8c8c8c;fill-opacity:1;fill-rule:nonzero;stroke:none"
           d="m 158,156 -2,0 0,16 2,0 0,-16 z" /><path
           id="path122"
           style="fill:#8c8c8c;fill-opacity:1;fill-rule:nonzero;stroke:none"
           d="m 162,156 -2,0 0,16 2,0 0,-16 z" /><path
           id="path124"
           style="fill:#8c8c8c;fill-opacity:1;fill-rule:nonzero;stroke:none"
           d="m 166,156 -2,0 0,16 2,0 0,-16 z" /><path
           id="path126"
           style="fill:#8c8c8c;fill-opacity:1;fill-rule:nonzero;stroke:none"
           d="m 170,156 -2,0 0,16 2,0 0,-16 z" /><path
           id="path128"
           style="fill:#8c8c8c;fill-opacity:1;fill-rule:nonzero;stroke:none"
           d="m 174,156 -2,0 0,16 2,0 0,-16 z" /><path
           id="path130"
           style="fill:#8c8c8c;fill-opacity:1;fill-rule:nonzero;stroke:none"
           d="m 178,156 -2,0 0,16 2,0 0,-16 z" /><path
           id="path132"
           style="fill:#8c8c8c;fill-opacity:1;fill-rule:nonzero;stroke:none"
           d="m 182,156 -2,0 0,16 2,0 0,-16 z" /><path
           id="path134"
           style="fill:#8c8c8c;fill-opacity:1;fill-rule:nonzero;stroke:none"
           d="m 186,156 -2,0 0,16 2,0 0,-16 z" /><path
           id="path136"
           style="fill:#8c8c8c;fill-opacity:1;fill-rule:nonzero;stroke:none"
           d="m 190,156 -2,0 0,16 2,0 0,-16 z" /><path
           id="path138"
           style="fill:#8c8c8c;fill-opacity:1;fill-rule:nonzero;stroke:none"
           d="m 194,156 -2,0 0,16 2,0 0,-16 z" /><path
           id="path140"
           style="fill:#8c8c8c;fill-opacity:1;fill-rule:nonzero;stroke:none"
           d="m 198,156 -2,0 0,16 2,0 0,-16 z" /><path
           id="path142"
           style="fill:#8c8c8c;fill-opacity:1;fill-rule:nonzero;stroke:none"
           d="m 202,156 -2,0 0,16 2,0 0,-16 z" /><path
           id="path144"
           style="fill:#8c8c8c;fill-opacity:1;fill-rule:nonzero;stroke:none"
           d="m 206,156 -2,0 0,16 2,0 0,-16 z" /><path
           id="path146"
           style="fill:#8c8c8c;fill-opacity:1;fill-rule:nonzero;stroke:none"
           d="m 210,156 -2,0 0,16 2,0 0,-16 z" /><path
           id="path148"
           style="fill:#8c8c8c;fill-opacity:1;fill-rule:nonzero;stroke:none"
           d="m 214,156 -2,0 0,16 2,0 0,-16 z" /><path
           id="path150"
           style="fill:#8c8c8c;fill-opacity:1;fill-rule:nonzero;stroke:none"
           d="m 218,156 -2,0 0,16 2,0 0,-16 z" /><path
           id="path152"
           style="fill:#8c8c8c;fill-opacity:1;fill-rule:nonzero;stroke:none"
           d="m 222,156 -2,0 0,16 2,0 0,-16 z" /><path
           id="path154"
           style="fill:#8c8c8c;fill-opacity:1;fill-rule:nonzero;stroke:none"
           d="m 226,156 -2,0 0,16 2,0 0,-16 z" /><path
           id="path156"
           style="fill:#8c8c8c;fill-opacity:1;fill-rule:nonzero;stroke:none"
           d="m 238,156 -2,0 0,16 2,0 0,-16 z" /><path
           id="path158"
           style="fill:#191919;fill-opacity:1;fill-rule:nonzero;stroke:none"
           d="m 224,112 -92,0 0,32 92,0 0,-32 z" /><path
           id="path160"
           style="fill:#191919;fill-opacity:1;fill-rule:nonzero;stroke:none"
           d="m 224,104 -92,0 0,4 92,0 0,-4 z" /><path
           id="path162"
           style="fill:#191919;fill-opacity:1;fill-rule:nonzero;stroke:none"
           d="m 204,120 -36,0 0,4 36,0 0,-4 z" /><path
           id="path164"
           style="fill:#eac500;fill-opacity:1;fill-rule:nonzero;stroke:none"
           d="m 184,104 -12,0 0,4 12,0 0,-4 z" /><path
           id="path166"
           style="fill:#d9d9d9;fill-opacity:1;fill-rule:nonzero;stroke:none"
           d="m 204,76 -36,0 0,12 36,0 0,-12 z" /><path
           id="path168"
           style="fill:#191919;fill-opacity:1;fill-rule:nonzero;stroke:none"
           d="m 20,136 -4,0 0,36 4,0 0,-36 z" /><path
           id="path170"
           style="fill:#191919;fill-opacity:1;fill-rule:nonzero;stroke:none"
           d="m 240,136 -4,0 0,36 4,0 0,-36 z" /><g
           transform="translate(240,76)"
           id="g172"><path
             id="path174"
             style="fill:#cccccc;fill-opacity:1;fill-rule:nonzero;stroke:none"
             d="m 0,0 -224,0 4,12 216,0 4,-12 z" /></g><path
           id="path176"
           style="fill:#d9d9d9;fill-opacity:1;fill-rule:nonzero;stroke:none"
           d="m 208,120 -60,0 0,16 60,0 0,-16 z" /><path
           id="path178"
           style="fill:#bfbfbf;fill-opacity:1;fill-rule:nonzero;stroke:none"
           d="m 204,122 -52,0 0,12 52,0 0,-12 z" /></g></g></g></svg>