<?xml version="1.0" encoding="UTF-8" standalone="no"?>
<svg
   xmlns:dc="http://purl.org/dc/elements/1.1/"
   xmlns:cc="http://creativecommons.org/ns#"
   xmlns:rdf="http://www.w3.org/1999/02/22-rdf-syntax-ns#"
   xmlns:svg="http://www.w3.org/2000/svg"
   xmlns="http://www.w3.org/2000/svg"
   viewBox="0 0 320.02948 301.33307"
   height="301.33307"
   width="320.02948"
   xml:space="preserve"
   id="svg2"
   version="1.1"><metadata
     id="metadata8"><rdf:RDF><cc:Work
         rdf:about=""><dc:format>image/svg+xml</dc:format><dc:type
           rdf:resource="http://purl.org/dc/dcmitype/StillImage" /></cc:Work></rdf:RDF></metadata><defs
     id="defs6"><clipPath
       id="clipPath18"
       clipPathUnits="userSpaceOnUse"><path
         id="path16"
         d="M 0,256 H 256 V 0 H 0 Z" /></clipPath><clipPath
       id="clipPath26"
       clipPathUnits="userSpaceOnUse"><path
         id="path24"
         d="M 7.98882,241 H 248.011 V 15 H 7.98882 Z" /></clipPath></defs><g
     transform="matrix(1.3333333,0,0,-1.3333333,-10.651848,321.33333)"
     id="g10"><g
       id="g12"><g
         clip-path="url(#clipPath18)"
         id="g14"><g
           id="g20"><g
             id="g22" /><g
             id="g34"><g
               style="opacity:0.5"
               id="g32"
               clip-path="url(#clipPath26)"><g
                 id="g30"
                 transform="translate(246.7341,48.9972)"><path
                   id="path28"
                   style="fill:#ffffff;fill-opacity:1;fill-rule:nonzero;stroke:none"
                   d="m 0,0 -14.381,47.994 c -0.819,2.734 -2.341,5.176 -4.389,7.093 0.023,0.302 0.035,0.608 0.035,0.916 v 12 38.005 c 2.428,1.826 4,4.73 4,7.995 0,1.421 -0.298,2.774 -0.835,4 0.537,1.225 0.835,2.578 0.835,4 0,3.265 -1.572,6.169 -4,7.995 v 34.005 c 0,5.321 -2.251,12.87 -12.973,18.614 -5.388,2.887 -12.663,5.162 -21.621,6.761 -4.854,0.867 -10.197,1.539 -15.885,1.997 l -4.529,0.566 c -0.329,0.041 -0.66,0.062 -0.992,0.062 h -8 -24 -8 -8 -8 -24 -8 c -0.332,0 -0.663,-0.021 -0.992,-0.062 l -4.531,-0.566 c -5.686,-0.458 -11.029,-1.13 -15.883,-1.997 -8.959,-1.599 -16.233,-3.874 -21.621,-6.761 -10.722,-5.744 -12.973,-13.293 -12.973,-18.614 v -4 -92 -12 c 0,-0.308 0.012,-0.614 0.034,-0.916 -2.047,-1.917 -3.569,-4.359 -4.388,-7.093 L -237.47,0 c -0.695,-2.085 -3.669,-12.538 2.891,-21.858 5.67,-8.055 16.281,-12.139 31.538,-12.139 7.311,0 15.904,0.94 25.55,2.795 h 50.819 15.874 50.819 c 9.646,-1.855 18.239,-2.795 25.55,-2.795 15.261,0 25.874,4.085 31.543,12.141 C 3.671,-12.538 0.696,-2.089 0,0" /></g></g></g></g><g
           transform="translate(164,232)"
           id="g36"><path
             id="path38"
             style="fill:#354f9f;fill-opacity:1;fill-rule:nonzero;stroke:none"
             d="M 0,0 H -72 C -72,0 -86,0 -99.999,-2.5 -114,-5 -128,-10 -128,-20 v -4 -92 -12 c 0,-2.209 1.791,-4 4,-4 h 4 v 12 H 48 v -12 h 4 c 2.209,0 4,1.791 4,4 v 12 96 C 56,0 0,0 0,0" /></g><g
           transform="translate(172,232)"
           id="g40"><path
             id="path42"
             style="fill:#4b5da7;fill-opacity:1;fill-rule:nonzero;stroke:none"
             d="m 0,0 h -32 -8 -8 -8 -32 l -19.999,-2.5 c 0,0 11.999,-1.5 15.999,-5.5 h 36 8 8 8 36 c 4,4 15.999,5.5 15.999,5.5 z" /></g><path
           id="path44"
           style="fill:#354f9f;fill-opacity:1;fill-rule:nonzero;stroke:none"
           d="m 164,224 h -16 v 4 h 16 z" /><g
           transform="translate(132,124)"
           id="g46"><path
             id="path48"
             style="fill:#4b5da7;fill-opacity:1;fill-rule:nonzero;stroke:none"
             d="m 0,0 h -84 c -2.209,0 -4,1.791 -4,4 V 28 H 0 Z" /></g><g
           transform="translate(44,216)"
           id="g50"><path
             id="path52"
             style="fill:#263979;fill-opacity:1;fill-rule:nonzero;stroke:none"
             d="m 0,0 v -68 c 0,-2.209 1.791,-4 4,-4 h 72 v -12 c 0,-4.418 3.582,-8 8,-8 h 12 v -4 h 56 v 4 h 12 c 2.209,0 4,1.791 4,4 v 16 4 60 c 0,6.627 -5.373,12 -12,12 H 4 C 1.791,4 0,2.209 0,0" /></g><g
           transform="translate(239.1145,45.5583)"
           id="g54"><path
             id="path56"
             style="fill:#16a085;fill-opacity:1;fill-rule:nonzero;stroke:none"
             d="m 0,0 -14.424,48.137 c -0.553,1.847 -1.753,3.443 -3.386,4.469 -2.924,1.836 -5.305,1.836 -5.305,1.836 h -4 v 12 h -76.063 -15.873 -76.064 v -12 h -4 c 0,0 -2.38,0 -5.304,-1.836 -1.633,-1.026 -2.833,-2.622 -3.386,-4.469 L -222.229,0 c 0,0 -11.905,-33.221 51.589,-20.763 h 51.589 15.873 51.589 C 11.905,-33.221 0,0 0,0" /></g><path
           id="path58"
           style="fill:#0e6654;fill-opacity:1;fill-rule:nonzero;stroke:none"
           d="M 200,104 H 56 v 4 h 144 z" /><g
           transform="translate(60,98)"
           id="g60"><path
             id="path62"
             style="fill:#0e6654;fill-opacity:1;fill-rule:nonzero;stroke:none"
             d="m 0,0 h -8 c -7.449,0 -15.233,-6.034 -17.352,-13.451 l -9.142,-32 c -1.098,-3.843 -0.533,-7.632 1.552,-10.395 2.02,-2.679 5.196,-4.154 8.942,-4.154 h 8 c 7.449,0 15.233,6.034 17.352,13.451 l 9.142,32 c 1.098,3.843 0.533,7.632 -1.552,10.395 C 6.922,-1.475 3.746,0 0,0 m 0,-2 c 6.6,0 10.457,-5.4 8.571,-12 L -0.571,-46 C -2.457,-52.6 -9.4,-58 -16,-58 h -8 c -6.6,0 -10.457,5.4 -8.571,12 l 9.142,32 C -21.543,-7.4 -14.6,-2 -8,-2 h 8" /></g><g
           transform="translate(80,96)"
           id="g64"><path
             id="path66"
             style="fill:#ffff00;fill-opacity:1;fill-rule:nonzero;stroke:none"
             d="M 0,0 -8,-48 H 128 L 120,0 Z" /></g><g
           transform="translate(60,74)"
           id="g68"><path
             id="path70"
             style="fill:#b80000;fill-opacity:1;fill-rule:nonzero;stroke:none"
             d="m 0,0 c 0,-3.314 -5.373,-6 -12,-6 -6.627,0 -12,2.686 -12,6 0,3.314 5.373,6 12,6 C -5.373,6 0,3.314 0,0" /></g><g
           transform="translate(224,170)"
           id="g72"><path
             id="path74"
             style="fill:#b80000;fill-opacity:1;fill-rule:nonzero;stroke:none"
             d="M 0,0 V 0 C 0,1.105 -0.895,2 -2,2 H -4 V 6 H -6 C -7.105,6 -8,5.105 -8,4 V -8 c 0,-1.105 0.895,-2 2,-2 h 2 2 c 1.105,0 2,0.895 2,2 0,1.105 -0.895,2 -2,2 h -1 c -0.552,0 -1,0.448 -1,1 v 2 c 0,0.552 0.448,1 1,1 h 1 c 1.105,0 2,0.895 2,2" /></g><g
           transform="translate(50.3947,59.7143)"
           id="g76"><path
             id="path78"
             style="fill:#ffffff;fill-opacity:1;fill-rule:nonzero;stroke:none"
             d="M 0,0 C -0.947,-2.367 -3.505,-4.286 -5.714,-4.286 -7.923,-4.286 -8.947,-2.367 -8,0 -7.053,2.367 -4.495,4.286 -2.286,4.286 -0.077,4.286 0.947,2.367 0,0" /></g><g
           transform="translate(45.8233,48.2857)"
           id="g80"><path
             id="path82"
             style="fill:#f39b11;fill-opacity:1;fill-rule:nonzero;stroke:none"
             d="M 0,0 C -0.947,-2.367 -3.505,-4.286 -5.714,-4.286 -7.923,-4.286 -8.947,-2.367 -8,0 -7.053,2.367 -4.495,4.286 -2.286,4.286 -0.077,4.286 0.947,2.367 0,0" /></g><g
           transform="translate(52.9661,51.1429)"
           id="g84"><path
             id="path86"
             style="fill:#00b800;fill-opacity:1;fill-rule:nonzero;stroke:none"
             d="m 0,0 c -3.314,0 -5.488,1.279 -4.857,2.857 0.631,1.578 3.829,2.857 7.143,2.857 3.313,0 5.488,-1.279 4.857,-2.857 C 6.512,1.279 3.314,0 0,0" /></g><g
           transform="translate(32.9661,51.1429)"
           id="g88"><path
             id="path90"
             style="fill:#354f9f;fill-opacity:1;fill-rule:nonzero;stroke:none"
             d="m 0,0 c -3.314,0 -5.488,1.279 -4.857,2.857 0.631,1.578 3.829,2.857 7.143,2.857 3.313,0 5.488,-1.279 4.857,-2.857 C 6.512,1.279 3.314,0 0,0" /></g><g
           transform="translate(225.1861,41.8474)"
           id="g92"><path
             id="path94"
             style="fill:#0e6654;fill-opacity:1;fill-rule:nonzero;stroke:none"
             d="m 0,0 v 0 c 2.115,0.604 3.352,2.83 2.747,4.945 l -7.692,26.923 c -0.604,2.115 -2.83,3.351 -4.945,2.747 v 0 c -2.115,-0.605 -3.352,-2.83 -2.747,-4.945 L -4.945,2.747 C -4.341,0.632 -2.115,-0.604 0,0" /></g><g
           transform="translate(215.2961,76.4622)"
           id="g96"><path
             id="path98"
             style="fill:#b80000;fill-opacity:1;fill-rule:nonzero;stroke:none"
             d="m 0,0 v 0 c 2.115,0.604 3.352,2.83 2.747,4.945 l -2.198,7.692 c -0.604,2.116 -2.829,3.352 -4.945,2.747 v 0 C -6.511,14.78 -7.747,12.555 -7.143,10.439 L -4.945,2.747 C -4.341,0.632 -2.115,-0.604 0,0" /></g><g
           transform="translate(222.9883,49.5396)"
           id="g100"><path
             id="path102"
             style="fill:#ffff00;fill-opacity:1;fill-rule:nonzero;stroke:none"
             d="m 0,0 v 0 c 2.115,0.604 3.352,2.83 2.747,4.945 l -7.692,26.923 c -0.604,2.115 -2.83,3.351 -4.945,2.747 v 0 c -2.115,-0.605 -3.352,-2.83 -2.747,-4.945 L -4.945,2.747 C -4.341,0.632 -2.115,-0.604 0,0" /></g><g
           transform="translate(182,28)"
           id="g104"><path
             id="path106"
             style="fill:#0e6654;fill-opacity:1;fill-rule:nonzero;stroke:none"
             d="m 0,0 h -4 c -1.1,0 -2,0.9 -2,2 v 0 c 0,1.1 0.9,2 2,2 H 0 C 1.1,4 2,3.1 2,2 V 2 C 2,0.9 1.1,0 0,0" /></g><g
           transform="translate(186,28)"
           id="g108"><path
             id="path110"
             style="fill:#ffff00;fill-opacity:1;fill-rule:nonzero;stroke:none"
             d="m 0,0 h -4 c -1.1,0 -2,0.9 -2,2 v 0 c 0,1.1 0.9,2 2,2 H 0 C 1.1,4 2,3.1 2,2 V 2 C 2,0.9 1.1,0 0,0" /></g><g
           transform="translate(52,148)"
           id="g112"><path
             id="path114"
             style="fill:#354f9f;fill-opacity:1;fill-rule:nonzero;stroke:none"
             d="m 0,0 h -2 c -1.105,0 -2,0.895 -2,2 v 64 c 0,1.105 0.895,2 2,2 h 2 z" /></g><g
           transform="translate(202,128)"
           id="g116"><path
             id="path118"
             style="fill:#354f9f;fill-opacity:1;fill-rule:nonzero;stroke:none"
             d="m 0,0 h -72 c -3.314,0 -6,2.686 -6,6 v 76 c 0,3.314 2.686,6 6,6 H -6 C 0.627,88 6,82.627 6,76 V 6 C 6,2.686 3.314,0 0,0" /></g><path
           id="path120"
           style="fill:#354f9f;fill-opacity:1;fill-rule:nonzero;stroke:none"
           d="m 196,120 h -56 v 12 h 56 z" /><path
           id="path122"
           style="fill:#ffff00;fill-opacity:1;fill-rule:nonzero;stroke:none"
           d="m 196,124 h -56 v 4 h 56 z" /><g
           transform="translate(196,210)"
           id="g124"><path
             id="path126"
             style="fill:#ffff00;fill-opacity:1;fill-rule:nonzero;stroke:none"
             d="m 0,0 c 0,-1.105 -0.895,-2 -2,-2 -1.105,0 -2,0.895 -2,2 0,1.105 0.895,2 2,2 1.105,0 2,-0.895 2,-2" /></g><g
           transform="translate(188,210)"
           id="g128"><path
             id="path130"
             style="fill:#ffff00;fill-opacity:1;fill-rule:nonzero;stroke:none"
             d="m 0,0 c 0,-1.105 -0.895,-2 -2,-2 -1.105,0 -2,0.895 -2,2 0,1.105 0.895,2 2,2 1.105,0 2,-0.895 2,-2" /></g><g
           transform="translate(180,210)"
           id="g132"><path
             id="path134"
             style="fill:#ffff00;fill-opacity:1;fill-rule:nonzero;stroke:none"
             d="m 0,0 c 0,-1.105 -0.895,-2 -2,-2 -1.105,0 -2,0.895 -2,2 0,1.105 0.895,2 2,2 1.105,0 2,-0.895 2,-2" /></g><g
           transform="translate(172,210)"
           id="g136"><path
             id="path138"
             style="fill:#ffff00;fill-opacity:1;fill-rule:nonzero;stroke:none"
             d="m 0,0 c 0,-1.105 -0.895,-2 -2,-2 -1.105,0 -2,0.895 -2,2 0,1.105 0.895,2 2,2 1.105,0 2,-0.895 2,-2" /></g></g></g></g></svg>