<?xml version="1.0" encoding="UTF-8" standalone="no"?>
<svg
   xmlns:dc="http://purl.org/dc/elements/1.1/"
   xmlns:cc="http://creativecommons.org/ns#"
   xmlns:rdf="http://www.w3.org/1999/02/22-rdf-syntax-ns#"
   xmlns:svg="http://www.w3.org/2000/svg"
   xmlns="http://www.w3.org/2000/svg"
   viewBox="0 0 320 320"
   height="320"
   width="320"
   xml:space="preserve"
   version="1.1"
   id="svg2"><metadata
     id="metadata8"><rdf:RDF><cc:Work
         rdf:about=""><dc:format>image/svg+xml</dc:format><dc:type
           rdf:resource="http://purl.org/dc/dcmitype/StillImage" /></cc:Work></rdf:RDF></metadata><defs
     id="defs6"><clipPath
       id="clipPath16"
       clipPathUnits="userSpaceOnUse"><path
         id="path18"
         d="M 0,256 256,256 256,0 0,0 0,256 Z" /></clipPath><clipPath
       id="clipPath24"
       clipPathUnits="userSpaceOnUse"><path
         id="path26"
         d="m 2.7518,236 250.4962,0 0,-216 -250.4962,0 0,216 z" /></clipPath><clipPath
       id="clipPath44"
       clipPathUnits="userSpaceOnUse"><path
         id="path46"
         d="M 0,256 256,256 256,0 0,0 0,256 Z" /></clipPath></defs><g
     transform="matrix(1.25,0,0,-1.25,0,320)"
     id="g10"><g
       id="g12"><g
         clip-path="url(#clipPath16)"
         id="g14"><g
           id="g20"><g
             id="g22" /><g
             id="g28"><g
               style="opacity:0.5"
               id="g30"
               clip-path="url(#clipPath24)"><g
                 id="g32"
                 transform="translate(190.6084,236)"><path
                   id="path34"
                   style="fill:#ffffff;fill-opacity:1;fill-rule:nonzero;stroke:none"
                   d="m 0,0 -4.608,0 -116,0 -4.609,0 -2.312,-3.986 -58,-100 -2.327,-4.014 2.327,-4.014 58,-100 2.312,-3.986 4.609,0 116,0 4.608,0 2.312,3.986 58,100 2.328,4.014 -2.328,4.014 -58,100 L 0,0 Z" /></g></g></g></g></g></g><g
       transform="translate(186,228)"
       id="g36"><path
         id="path38"
         style="fill:#000000;fill-opacity:1;fill-rule:nonzero;stroke:none"
         d="m 0,0 -116,0 -58,-100 58,-100 116,0 58,100 L 0,0 Z" /></g><g
       id="g40"><g
         clip-path="url(#clipPath44)"
         id="g42"><g
           transform="translate(104,131.2261)"
           id="g48"><path
             id="path50"
             style="fill:#808080;fill-opacity:1;fill-rule:nonzero;stroke:none"
             d="M 0,0 C -11.487,0 -20.8,9.318 -20.8,20.795 -20.8,32.287 -11.487,41.6 0,41.6 11.487,41.6 20.8,32.287 20.8,20.795 20.8,9.318 11.487,0 0,0 m 42.385,20.774 c 0,3.453 -0.421,6.807 -1.206,10.015 L 52,36.374 c -2.283,7.176 -5.455,15.35 -10.4,20.8 L 29.25,51.428 c -4.831,4.613 -10.743,8.096 -17.332,10.02 L 11.04,71.594 c -3.562,0.764 -7.249,1.18 -11.04,1.18 -3.791,0 -7.478,-0.416 -11.05,-1.186 l -0.874,-10.145 c -6.577,-1.924 -12.495,-5.408 -17.326,-10.02 l -12.35,5.751 c -4.95,-5.45 -8.112,-13.624 -10.4,-20.8 l 10.821,-5.585 c -0.775,-3.208 -1.201,-6.562 -1.201,-10.015 0,-3.453 0.426,-6.802 1.201,-10.015 L -52,5.174 c 2.288,-7.176 5.45,-15.35 10.4,-20.8 l 12.35,5.746 c 4.831,-4.613 10.749,-8.096 17.326,-10.021 l 0.874,-10.144 c 3.572,-0.765 7.259,-1.181 11.05,-1.181 3.791,0 7.478,0.416 11.04,1.185 l 0.878,10.146 c 6.589,1.924 12.501,5.407 17.332,10.02 l 12.35,-5.751 c 4.945,5.45 8.117,13.624 10.4,20.8 l -10.821,5.585 c 0.785,3.213 1.206,6.562 1.206,10.015" /></g><g
           transform="translate(171.498,71.2256)"
           id="g52"><path
             id="path54"
             style="fill:#666666;fill-opacity:1;fill-rule:nonzero;stroke:none"
             d="M 0,0 C -6.985,0.281 -12.424,6.238 -12.146,13.295 -11.869,20.361 -5.98,25.861 1.005,25.58 7.99,25.3 13.43,19.346 13.151,12.279 12.875,5.223 6.985,-0.28 0,0 m 26.278,11.739 c 0.083,2.123 -0.091,4.197 -0.492,6.188 l 6.716,3.17 c -1.215,4.468 -2.946,9.572 -5.822,13.044 l -7.65,-3.232 c -2.826,2.954 -6.338,5.241 -10.298,6.585 l -0.289,6.26 C 6.295,44.311 4.063,44.656 1.758,44.749 -0.548,44.842 -2.8,44.676 -4.99,44.29 l -0.777,-6.217 c -4.046,-1.022 -7.73,-3.02 -10.779,-5.738 l -7.371,3.838 c -3.143,-3.231 -5.263,-8.18 -6.827,-12.536 l 6.445,-3.699 c -0.549,-1.954 -0.888,-4.005 -0.972,-6.128 -0.083,-2.123 0.095,-4.194 0.489,-6.188 l -6.716,-3.17 c 1.218,-4.469 2.943,-9.572 5.822,-13.044 l 7.65,3.232 c 2.826,-2.954 6.34,-5.242 10.295,-6.585 l 0.286,-6.26 c 2.154,-0.557 4.385,-0.902 6.691,-0.995 2.306,-0.093 4.558,0.073 6.742,0.459 l 0.78,6.217 c 4.053,1.022 7.733,3.02 10.782,5.738 l 7.371,-3.838 c 3.14,3.23 5.266,8.18 6.827,12.536 L 25.303,5.61 c 0.554,1.957 0.891,4.006 0.975,6.129" /></g></g></g></g></svg>