<?xml version="1.0" encoding="UTF-8" standalone="no"?>
<svg
   xmlns:dc="http://purl.org/dc/elements/1.1/"
   xmlns:cc="http://creativecommons.org/ns#"
   xmlns:rdf="http://www.w3.org/1999/02/22-rdf-syntax-ns#"
   xmlns:svg="http://www.w3.org/2000/svg"
   xmlns="http://www.w3.org/2000/svg"
   viewBox="0 0 320 320"
   height="320"
   width="320"
   xml:space="preserve"
   version="1.1"
   id="svg2"><metadata
     id="metadata8"><rdf:RDF><cc:Work
         rdf:about=""><dc:format>image/svg+xml</dc:format><dc:type
           rdf:resource="http://purl.org/dc/dcmitype/StillImage" /></cc:Work></rdf:RDF></metadata><defs
     id="defs6"><clipPath
       id="clipPath16"
       clipPathUnits="userSpaceOnUse"><path
         id="path18"
         d="M 0,256 256,256 256,0 0,0 0,256 Z" /></clipPath><clipPath
       id="clipPath24"
       clipPathUnits="userSpaceOnUse"><path
         id="path26"
         d="M 4,252 252,252 252,4 4,4 4,252 Z" /></clipPath></defs><g
     transform="matrix(1.25,0,0,-1.25,0,320)"
     id="g10"><g
       id="g12"><g
         clip-path="url(#clipPath16)"
         id="g14"><g
           id="g20"><g
             id="g22" /><g
             id="g28"><g
               style="opacity:0.5"
               id="g30"
               clip-path="url(#clipPath24)"><g
                 id="g32"
                 transform="translate(252,226.5356)"><path
                   id="path34"
                   style="fill:#ffffff;fill-opacity:1;fill-rule:nonzero;stroke:none"
                   d="m 0,0 0,5.464 c 0,11.029 -8.972,20 -20,20 l -40,0 -2,0 -124,0 -2,0 -40,0 c -11.028,0 -20,-8.971 -20,-20 L -248,0 c 0,-3.364 1.396,-6.562 3.779,-8.754 0.101,-0.35 0.221,-0.964 0.221,-1.782 0,-1.033 -0.192,-1.74 -0.294,-2.003 -2.695,-3.567 -2.695,-8.426 0,-11.994 0.102,-0.262 0.294,-0.969 0.294,-2.003 0,-1.033 -0.192,-1.74 -0.294,-2.003 -2.695,-3.567 -2.695,-8.426 0,-11.994 0.102,-0.262 0.294,-0.969 0.294,-2.003 0,-1.033 -0.192,-1.74 -0.294,-2.003 -2.695,-3.567 -2.695,-8.426 0,-11.994 0.102,-0.262 0.294,-0.969 0.294,-2.003 0,-1.033 -0.192,-1.74 -0.294,-2.003 -2.695,-3.567 -2.695,-8.426 0,-11.994 0.102,-0.262 0.294,-0.969 0.294,-2.003 0,-1.033 -0.192,-1.74 -0.294,-2.003 -2.695,-3.567 -2.695,-8.426 0,-11.994 0.102,-0.262 0.294,-0.969 0.294,-2.003 0,-0.818 -0.12,-1.431 -0.221,-1.781 -2.383,-2.192 -3.779,-5.391 -3.779,-8.755 l 0,-88.641 c 0,-5.56 2.34,-10.912 6.419,-14.685 7.325,-6.774 22.987,-18.138 45.581,-18.138 l 16,0 32,0 48,0 32,0 16,0 c 22.594,0 38.256,11.364 45.58,18.138 4.08,3.773 6.42,9.125 6.42,14.685 l 0,88.641 c 0,3.364 -1.396,6.564 -3.779,8.755 -0.101,0.351 -0.221,0.964 -0.221,1.781 0,1.034 0.192,1.741 0.294,2.003 2.695,3.567 2.695,8.427 0,11.994 -0.102,0.263 -0.294,0.97 -0.294,2.003 0,1.034 0.192,1.741 0.294,2.003 2.695,3.567 2.695,8.427 0,11.994 -0.102,0.263 -0.294,0.97 -0.294,2.003 0,1.034 0.192,1.741 0.294,2.003 2.695,3.567 2.695,8.427 0,11.994 -0.102,0.263 -0.294,0.97 -0.294,2.003 0,1.034 0.192,1.741 0.294,2.003 2.695,3.567 2.695,8.427 0,11.994 -0.102,0.263 -0.294,0.97 -0.294,2.003 0,1.034 0.192,1.741 0.294,2.003 2.695,3.567 2.695,8.427 0,11.994 -0.102,0.263 -0.294,0.97 -0.294,2.003 0,0.818 0.12,1.431 0.221,1.782 C -1.396,-6.563 0,-3.364 0,0" /></g></g></g></g><g
           transform="translate(240,136)"
           id="g36"><path
             id="path38"
             style="fill:#4c4c4c;fill-opacity:1;fill-rule:nonzero;stroke:none"
             d="m 0,0 c 0,2.857 0.749,5.365 1.876,6.78 0.568,0.714 0.568,1.726 0,2.44 C 0.749,10.635 0,13.143 0,16 c 0,2.857 0.749,5.365 1.876,6.78 0.568,0.714 0.568,1.726 0,2.44 C 0.749,26.635 0,29.143 0,32 c 0,2.857 0.749,5.365 1.876,6.78 0.568,0.714 0.568,1.726 0,2.44 C 0.749,42.635 0,45.143 0,48 c 0,2.857 0.749,5.365 1.876,6.78 0.568,0.714 0.568,1.726 0,2.44 C 0.749,58.635 0,61.143 0,64 c 0,2.857 0.749,5.365 1.876,6.78 0.568,0.714 0.568,1.726 0,2.44 C 0.749,74.635 0,77.143 0,80 0,83.42 1.073,86.339 2.583,87.483 3.521,88.194 4,89.359 4,90.536 L 4,96 c 0,6.6 -5.4,12 -12,12 l -208,0 c -6.6,0 -12,-5.4 -12,-12 l 0,-5.464 c 0,-1.177 0.479,-2.342 1.417,-3.053 1.51,-1.144 2.583,-4.063 2.583,-7.483 0,-2.857 -0.749,-5.365 -1.876,-6.78 -0.568,-0.714 -0.568,-1.726 0,-2.44 1.127,-1.415 1.876,-3.923 1.876,-6.78 0,-2.857 -0.749,-5.365 -1.876,-6.78 -0.568,-0.714 -0.568,-1.726 0,-2.44 1.127,-1.415 1.876,-3.923 1.876,-6.78 0,-2.857 -0.749,-5.365 -1.876,-6.78 -0.568,-0.714 -0.568,-1.726 0,-2.44 1.127,-1.415 1.876,-3.923 1.876,-6.78 0,-2.857 -0.749,-5.365 -1.876,-6.78 -0.568,-0.714 -0.568,-1.726 0,-2.44 1.127,-1.415 1.876,-3.923 1.876,-6.78 0,-2.857 -0.749,-5.365 -1.876,-6.78 -0.568,-0.714 -0.568,-1.726 0,-2.44 C -224.749,5.365 -224,2.857 -224,0 c 0,-3.42 -1.073,-6.339 -2.583,-7.483 -0.938,-0.711 -1.417,-1.875 -1.417,-3.053 l 0,-88.642 c 0,-3.347 1.393,-6.538 3.851,-8.811 6.31,-5.835 20.177,-16.011 40.149,-16.011 l 144,0 c 19.973,0 33.839,10.176 40.148,16.011 2.458,2.273 3.852,5.464 3.852,8.811 l 0,88.642 C 4,-9.358 3.521,-8.194 2.583,-7.483 1.073,-6.339 0,-3.42 0,0" /></g><path
           id="path40"
           style="fill:#595959;fill-opacity:1;fill-rule:nonzero;stroke:none"
           d="m 216,64 -176,0 0,120 176,0 0,-120 z" /><g
           transform="translate(32,184)"
           id="g42"><path
             id="path44"
             style="fill:#333333;fill-opacity:1;fill-rule:nonzero;stroke:none"
             d="M 0,0 32,-4 160,-4 192,0 0,0 Z" /></g><g
           transform="translate(52,34)"
           id="g46"><path
             id="path48"
             style="fill:#737373;fill-opacity:1;fill-rule:nonzero;stroke:none"
             d="m 0,0 c 0,-5.522 -4.477,-10 -10,-10 -5.523,0 -10,4.478 -10,10 0,5.522 4.477,10 10,10 C -4.477,10 0,5.522 0,0" /></g><path
           id="path50"
           style="fill:#3b3b3b;fill-opacity:1;fill-rule:nonzero;stroke:none"
           d="m 192,196 -128,0 0,6 128,0 0,-6 z" /><path
           id="path52"
           style="fill:#3b3b3b;fill-opacity:1;fill-rule:nonzero;stroke:none"
           d="m 192,204 -128,0 0,6 128,0 0,-6 z" /><path
           id="path54"
           style="fill:#3b3b3b;fill-opacity:1;fill-rule:nonzero;stroke:none"
           d="m 192,212 -128,0 0,6 128,0 0,-6 z" /><path
           id="path56"
           style="fill:#3b3b3b;fill-opacity:1;fill-rule:nonzero;stroke:none"
           d="m 192,220 -128,0 0,6 128,0 0,-6 z" /><path
           id="path58"
           style="fill:#3b3b3b;fill-opacity:1;fill-rule:nonzero;stroke:none"
           d="m 192,228 -128,0 0,6 128,0 0,-6 z" /><g
           transform="translate(190,244)"
           id="g60"><path
             id="path62"
             style="fill:#333333;fill-opacity:1;fill-rule:nonzero;stroke:none"
             d="m 0,0 0,-46 -124,0 0,46 -2,0 0,-48 128,0 0,48 -2,0 z" /></g><path
           id="path64"
           style="fill:#404040;fill-opacity:1;fill-rule:nonzero;stroke:none"
           d="m 104,12 -32,0 0,52 32,0 0,-52 z" /><path
           id="path66"
           style="fill:#404040;fill-opacity:1;fill-rule:nonzero;stroke:none"
           d="m 184,12 -32,0 0,52 32,0 0,-52 z" /><g
           transform="translate(32,64)"
           id="g68"><path
             id="path70"
             style="fill:#404040;fill-opacity:1;fill-rule:nonzero;stroke:none"
             d="m 0,0 c 0,0 48,-28 96,-28 48,0 96,28 96,28 L 0,0 Z" /></g><g
           transform="translate(192.1113,64)"
           id="g72"><path
             id="path74"
             style="fill:#4c4c4c;fill-opacity:1;fill-rule:nonzero;stroke:none"
             d="m 0,0 -0.111,0 c 0,0 0.066,-0.088 0.205,-0.245 C 0.062,-0.163 0.022,-0.082 0,0" /></g><g
           transform="translate(128,52)"
           id="g76"><path
             id="path78"
             style="fill:#4c4c4c;fill-opacity:1;fill-rule:nonzero;stroke:none"
             d="M 0,0 C -26.129,0 -48.586,3.115 -58.529,7.579 -50.906,2.844 -34.009,-4 0,-4 34.009,-4 50.906,2.844 58.529,7.579 48.586,3.115 26.129,0 0,0" /></g><g
           transform="translate(130,26)"
           id="g80"><path
             id="path82"
             style="fill:#b80000;fill-opacity:1;fill-rule:nonzero;stroke:none"
             d="m 0,0 c 0,-1.104 -0.896,-2 -2,-2 -1.104,0 -2,0.896 -2,2 0,1.104 0.896,2 2,2 1.104,0 2,-0.896 2,-2" /></g><g
           transform="translate(190,184)"
           id="g84"><path
             id="path86"
             style="fill:#333333;fill-opacity:1;fill-rule:nonzero;stroke:none"
             d="m 0,0 0,-119.272 c 0,-1.01 -3.078,-4.244 -17.135,-7.039 C -29.099,-128.689 -45.032,-130 -62,-130 c -16.968,0 -32.901,1.311 -44.865,3.689 -14.057,2.795 -17.135,6.029 -17.135,7.039 L -124,0 l -2,0 0,-119.272 c 0,-7.03 28.654,-12.728 64,-12.728 35.347,0 64,5.698 64,12.728 L 2,0 0,0 Z" /></g><path
           id="path88"
           style="fill:#333333;fill-opacity:1;fill-rule:nonzero;stroke:none"
           d="m 192,204 -128,0 0,2 128,0 0,-2 z" /><path
           id="path90"
           style="fill:#333333;fill-opacity:1;fill-rule:nonzero;stroke:none"
           d="m 192,212 -128,0 0,2 128,0 0,-2 z" /><path
           id="path92"
           style="fill:#333333;fill-opacity:1;fill-rule:nonzero;stroke:none"
           d="m 192,220 -128,0 0,2 128,0 0,-2 z" /><path
           id="path94"
           style="fill:#333333;fill-opacity:1;fill-rule:nonzero;stroke:none"
           d="m 192,228 -128,0 0,2 128,0 0,-2 z" /></g></g></g></svg>