<?xml version="1.0" encoding="UTF-8" standalone="no"?>
<svg
   xmlns:dc="http://purl.org/dc/elements/1.1/"
   xmlns:cc="http://creativecommons.org/ns#"
   xmlns:rdf="http://www.w3.org/1999/02/22-rdf-syntax-ns#"
   xmlns:svg="http://www.w3.org/2000/svg"
   xmlns="http://www.w3.org/2000/svg"
   viewBox="0 0 223.99992 330.656"
   height="330.65601"
   width="223.99992"
   xml:space="preserve"
   id="svg2"
   version="1.1"><metadata
     id="metadata8"><rdf:RDF><cc:Work
         rdf:about=""><dc:format>image/svg+xml</dc:format><dc:type
           rdf:resource="http://purl.org/dc/dcmitype/StillImage" /></cc:Work></rdf:RDF></metadata><defs
     id="defs6"><clipPath
       id="clipPath18"
       clipPathUnits="userSpaceOnUse"><path
         id="path16"
         d="M 0,256 H 256 V 0 H 0 Z" /></clipPath><clipPath
       id="clipPath26"
       clipPathUnits="userSpaceOnUse"><path
         id="path24"
         d="M 44,252 H 212 V 4.00757 H 44 Z" /></clipPath></defs><g
     transform="matrix(1.3333333,0,0,-1.3333333,-58.666732,335.99972)"
     id="g10"><g
       id="g12"><g
         clip-path="url(#clipPath18)"
         id="g14"><g
           id="g20"><g
             id="g22" /><g
             id="g34"><g
               style="opacity:0.5"
               id="g32"
               clip-path="url(#clipPath26)"><g
                 id="g30"
                 transform="translate(191.5303,16.4668)"><path
                   id="path28"
                   style="fill:#ffffff;fill-opacity:1;fill-rule:nonzero;stroke:none"
                   d="M 0,0 C 1.122,0.627 2.181,1.354 3.165,2.171 2.181,1.354 1.122,0.627 0,0 m -9.41,-2.627 -48.132,-1.732 48.132,1.732 c 2.044,0.073 4.013,0.44 5.867,1.061 -1.854,-0.621 -3.823,-0.988 -5.867,-1.061 m -1.067,142.116 c 1.109,2.093 2.097,4.258 2.956,6.488 -0.859,-2.23 -1.847,-4.395 -2.956,-6.488 -1.478,-2.789 -3.169,-5.449 -5.052,-7.956 1.883,2.507 3.574,5.167 5.052,7.956 M 5.932,102.124 c -0.407,0.489 -0.834,0.959 -1.283,1.409 H 4.65 c 0.448,-0.45 0.875,-0.92 1.282,-1.409 1.218,-1.468 2.243,-3.104 3.035,-4.872 -0.792,1.768 -1.817,3.404 -3.035,4.872 m 14.538,24.123 c 0,7.326 -5.96,13.286 -13.286,13.286 h -8.716 c 3.952,8.719 6.002,18.199 6.002,28 0,37.495 -30.505,68 -68,68 -37.495,0 -68,-30.505 -68,-68 0,-9.801 2.05,-19.281 6.002,-28 h -8.716 c -7.326,0 -13.286,-5.96 -13.286,-13.286 v -17.428 c 0,-3.606 1.444,-6.881 3.784,-9.277 -1.222,-3.023 -1.938,-6.258 -2.095,-9.582 l -1.657,-35.044 c -0.043,-0.917 -0.043,-1.849 0,-2.767 l 1.657,-35.043 c 0.345,-7.307 3.383,-14.168 8.553,-19.315 5.185,-5.163 12.058,-8.15 19.35,-8.413 l 48.132,-1.732 c 0.485,-0.017 0.969,-0.024 1.453,-0.03 0.249,-0.003 0.497,-0.005 0.746,-0.011 1.352,-0.043 2.723,-0.064 4.077,-0.064 1.353,0 2.724,0.021 4.077,0.064 0.248,0.006 0.497,0.008 0.745,0.011 0.484,0.006 0.969,0.013 1.453,0.03 l 48.133,1.732 c 7.292,0.263 14.164,3.25 19.349,8.413 5.17,5.147 8.209,12.008 8.554,19.315 l 1.656,35.044 c 0.043,0.917 0.043,1.849 0,2.767 L 18.781,89.96 c -0.157,3.324 -0.874,6.559 -2.095,9.582 2.339,2.396 3.784,5.671 3.784,9.277 z" /></g></g></g></g><g
           transform="translate(182.1201,13.8398)"
           id="g36"><path
             id="path38"
             style="fill:#d9d9d9;fill-opacity:1;fill-rule:nonzero;stroke:none"
             d="m 0,0 -48.132,-1.732 c -3.991,-0.144 -7.986,-0.144 -11.976,0 L -108.24,0 c -10.9,0.392 -19.681,9.136 -20.2,20.111 l -1.656,35.044 c -0.032,0.67 -0.032,1.34 0,2.01 l 1.656,35.044 c 0.519,10.976 9.3,19.72 20.2,20.111 l 48.132,1.732 c 3.99,0.144 7.985,0.144 11.976,0 L 0,112.32 c 10.899,-0.391 19.681,-9.135 20.2,-20.111 l 1.656,-35.044 c 0.032,-0.67 0.032,-1.34 0,-2.01 L 20.2,20.111 C 19.681,9.136 10.899,0.392 0,0" /></g><g
           transform="translate(140,18)"
           id="g40"><path
             id="path42"
             style="fill:#b3b3b3;fill-opacity:1;fill-rule:nonzero;stroke:none"
             d="m 0,0 h -12 -12 v -5.578 l 6.518,-0.297 c 3.653,-0.167 7.31,-0.167 10.964,0 L 0,-5.578 Z" /></g><g
           transform="translate(177.3457,35.8906)"
           id="g44"><path
             id="path46"
             style="fill:#b3b3b3;fill-opacity:1;fill-rule:nonzero;stroke:none"
             d="M 0,0 -5.243,5.243 -4.316,6.17 0.927,0.927 Z" /></g><g
           transform="translate(166.8174,126.6133)"
           id="g48"><path
             id="path50"
             style="fill:#b3b3b3;fill-opacity:1;fill-rule:nonzero;stroke:none"
             d="m 0,0 2.476,-22.613 1.302,-4 -2.454,26.566 z" /></g><g
           transform="translate(68.0161,15.2314)"
           id="g52"><path
             id="path54"
             style="fill:#00ff00;fill-opacity:1;fill-rule:nonzero;stroke:none"
             d="M 0,0 C 0.648,-0.297 1.316,-0.54 2,-0.728 V 4.769 H 0 Z" /></g><g
           transform="translate(86.707,104)"
           id="g56"><path
             id="path58"
             style="fill:#b3b3b3;fill-opacity:1;fill-rule:nonzero;stroke:none"
             d="M 0,0 2.476,22.613 1.152,22.566 -1.302,-4 Z" /></g><g
           transform="translate(78.7998,32)"
           id="g60"><path
             id="path62"
             style="fill:#d9d9d9;fill-opacity:1;fill-rule:nonzero;stroke:none"
             d="m 0,0 c 0,-5.965 -4.835,-10.8 -10.8,-10.8 -5.965,0 -10.8,4.835 -10.8,10.8 0,5.965 4.835,10.8 10.8,10.8 C -4.835,10.8 0,5.965 0,0" /></g><g
           transform="translate(68,44)"
           id="g64"><path
             id="path66"
             style="fill:#bfbfbf;fill-opacity:1;fill-rule:nonzero;stroke:none"
             d="m 0,0 c -6.617,0 -12,-5.383 -12,-12 0,-6.617 5.383,-12 12,-12 6.617,0 12,5.383 12,12 C 12,-5.383 6.617,0 0,0 m 0,-2 c 5.514,0 10,-4.486 10,-10 0,-5.514 -4.486,-10 -10,-10 -5.514,0 -10,4.486 -10,10 0,5.514 4.486,10 10,10" /></g><g
           transform="translate(188,44)"
           id="g68"><path
             id="path70"
             style="fill:#bfbfbf;fill-opacity:1;fill-rule:nonzero;stroke:none"
             d="m 0,0 c -6.617,0 -12,-5.383 -12,-12 0,-6.617 5.383,-12 12,-12 6.617,0 12,5.383 12,12 C 12,-5.383 6.617,0 0,0 m 0,-2 c 5.514,0 10,-4.486 10,-10 0,-5.514 -4.486,-10 -10,-10 -5.514,0 -10,4.486 -10,10 0,5.514 4.486,10 10,10" /></g><g
           transform="translate(128,124)"
           id="g72"><path
             id="path74"
             style="fill:#bfbfbf;fill-opacity:1;fill-rule:nonzero;stroke:none"
             d="m 0,0 c -29.776,0 -54,-24.225 -54,-54 0,-29.775 24.224,-54 54,-54 29.775,0 54,24.225 54,54 C 54,-24.225 29.775,0 0,0 m 0,-2 c 28.673,0 52,-23.327 52,-52 0,-28.673 -23.327,-52 -52,-52 -28.673,0 -52,23.327 -52,52 0,28.673 23.327,52 52,52" /></g><g
           transform="translate(164.0459,42.9082)"
           id="g76"><path
             id="path78"
             style="fill:#bfbfbf;fill-opacity:1;fill-rule:nonzero;stroke:none"
             d="m 0,0 c 0,-0.362 -0.294,-0.655 -0.655,-0.655 -0.363,0 -0.656,0.293 -0.656,0.655 0,0.361 0.293,0.655 0.656,0.655 C -0.294,0.655 0,0.361 0,0" /></g><g
           transform="translate(166.667,45.5293)"
           id="g80"><path
             id="path82"
             style="fill:#bfbfbf;fill-opacity:1;fill-rule:nonzero;stroke:none"
             d="m 0,0 c 0,-0.362 -0.293,-0.655 -0.655,-0.655 -0.362,0 -0.656,0.293 -0.656,0.655 0,0.362 0.294,0.655 0.656,0.655 C -0.293,0.655 0,0.362 0,0" /></g><g
           transform="translate(169.2891,48.1514)"
           id="g84"><path
             id="path86"
             style="fill:#bfbfbf;fill-opacity:1;fill-rule:nonzero;stroke:none"
             d="m 0,0 c 0,-0.362 -0.294,-0.656 -0.655,-0.656 -0.363,0 -0.657,0.294 -0.657,0.656 0,0.361 0.294,0.655 0.657,0.655 C -0.294,0.655 0,0.361 0,0" /></g><g
           transform="translate(171.2549,51.4277)"
           id="g88"><path
             id="path90"
             style="fill:#bfbfbf;fill-opacity:1;fill-rule:nonzero;stroke:none"
             d="m 0,0 c 0,-0.362 -0.293,-0.655 -0.655,-0.655 -0.363,0 -0.656,0.293 -0.656,0.655 0,0.362 0.293,0.655 0.656,0.655 C -0.293,0.655 0,0.362 0,0" /></g><g
           transform="translate(166.667,40.2861)"
           id="g92"><path
             id="path94"
             style="fill:#bfbfbf;fill-opacity:1;fill-rule:nonzero;stroke:none"
             d="m 0,0 c 0,-0.361 -0.293,-0.655 -0.655,-0.655 -0.362,0 -0.656,0.294 -0.656,0.655 0,0.362 0.294,0.655 0.656,0.655 C -0.293,0.655 0,0.362 0,0" /></g><g
           transform="translate(169.2891,42.9082)"
           id="g96"><path
             id="path98"
             style="fill:#bfbfbf;fill-opacity:1;fill-rule:nonzero;stroke:none"
             d="m 0,0 c 0,-0.362 -0.294,-0.655 -0.655,-0.655 -0.363,0 -0.657,0.293 -0.657,0.655 0,0.361 0.294,0.655 0.657,0.655 C -0.294,0.655 0,0.361 0,0" /></g><g
           transform="translate(171.9102,45.5293)"
           id="g100"><path
             id="path102"
             style="fill:#bfbfbf;fill-opacity:1;fill-rule:nonzero;stroke:none"
             d="m 0,0 c 0,-0.362 -0.293,-0.655 -0.655,-0.655 -0.363,0 -0.656,0.293 -0.656,0.655 0,0.362 0.293,0.655 0.656,0.655 C -0.293,0.655 0,0.362 0,0" /></g><g
           transform="translate(173.876,48.8066)"
           id="g104"><path
             id="path106"
             style="fill:#bfbfbf;fill-opacity:1;fill-rule:nonzero;stroke:none"
             d="m 0,0 c 0,-0.362 -0.293,-0.655 -0.655,-0.655 -0.362,0 -0.656,0.293 -0.656,0.655 0,0.361 0.294,0.655 0.656,0.655 C -0.293,0.655 0,0.361 0,0" /></g><g
           transform="translate(198.7139,120)"
           id="g108"><path
             id="path110"
             style="fill:#cccccc;fill-opacity:1;fill-rule:nonzero;stroke:none"
             d="m 0,0 h -141.428 c -2.919,0 -5.286,2.366 -5.286,5.286 v 17.428 c 0,2.919 2.367,5.286 5.286,5.286 H 0 c 2.92,0 5.286,-2.367 5.286,-5.286 V 5.286 C 5.286,2.366 2.92,0 0,0" /></g><g
           transform="translate(88.6235,122)"
           id="g112"><path
             id="path114"
             style="fill:#bfbfbf;fill-opacity:1;fill-rule:nonzero;stroke:none"
             d="m 0,0 h -31.247 c -1.857,0 -3.377,1.52 -3.377,3.376 v 17.248 c 0,1.856 1.52,3.376 3.377,3.376 L 0,24 c 1.857,0 3.376,-1.52 3.376,-3.376 V 3.376 C 3.376,1.52 1.857,0 0,0" /></g><g
           transform="translate(198.624,122)"
           id="g116"><path
             id="path118"
             style="fill:#bfbfbf;fill-opacity:1;fill-rule:nonzero;stroke:none"
             d="m 0,0 h -31.248 c -1.856,0 -3.376,1.52 -3.376,3.376 v 17.248 c 0,1.856 1.52,3.376 3.376,3.376 L 0,24 c 1.856,0 3.376,-1.52 3.376,-3.376 V 3.376 C 3.376,1.52 1.856,0 0,0" /></g><g
           transform="translate(160,120)"
           id="g120"><path
             id="path122"
             style="fill:#e6e6e6;fill-opacity:1;fill-rule:nonzero;stroke:none"
             d="m 0,0 h -64 c -2.209,0 -4,1.791 -4,4 0,2.209 1.791,4 4,4 H 0 C 2.209,8 4,6.209 4,4 4,1.791 2.209,0 0,0" /></g><path
           id="path124"
           style="fill:#d9d9d9;fill-opacity:1;fill-rule:nonzero;stroke:none"
           d="m 98,120 h -2 v 8 h 2 z" /><path
           id="path126"
           style="fill:#d9d9d9;fill-opacity:1;fill-rule:nonzero;stroke:none"
           d="m 106,120 h -2 v 8 h 2 z" /><path
           id="path128"
           style="fill:#d9d9d9;fill-opacity:1;fill-rule:nonzero;stroke:none"
           d="m 152,120 h -2 v 8 h 2 z" /><path
           id="path130"
           style="fill:#d9d9d9;fill-opacity:1;fill-rule:nonzero;stroke:none"
           d="m 160,120 h -2 v 8 h 2 z" /><g
           transform="translate(188,184)"
           id="g132"><path
             id="path134"
             style="fill:#d9d9d9;fill-opacity:1;fill-rule:nonzero;stroke:none"
             d="m 0,0 c 0,-33.137 -26.863,-60 -60,-60 -33.137,0 -60,26.863 -60,60 0,33.137 26.863,60 60,60 C -26.863,60 0,33.137 0,0" /></g><path
           id="path136"
           style="fill:#808080;fill-opacity:1;fill-rule:nonzero;stroke:none"
           d="M 168,152 H 88 v 60 h 80 z" /><g
           transform="translate(92,222)"
           id="g138"><path
             id="path140"
             style="fill:#cccccc;fill-opacity:1;fill-rule:nonzero;stroke:none"
             d="m 0,0 c 0,-1.104 -0.896,-2 -2,-2 -1.104,0 -2,0.896 -2,2 0,1.104 0.896,2 2,2 1.104,0 2,-0.896 2,-2" /></g><g
           transform="translate(168,222)"
           id="g142"><path
             id="path144"
             style="fill:#cccccc;fill-opacity:1;fill-rule:nonzero;stroke:none"
             d="m 0,0 c 0,-1.104 -0.896,-2 -2,-2 -1.104,0 -2,0.896 -2,2 0,1.104 0.896,2 2,2 1.104,0 2,-0.896 2,-2" /></g><g
           transform="translate(100,142)"
           id="g146"><path
             id="path148"
             style="fill:#b3b3b3;fill-opacity:1;fill-rule:nonzero;stroke:none"
             d="m 0,0 c 0,-1.104 -0.896,-2 -2,-2 -1.104,0 -2,0.896 -2,2 0,1.104 0.896,2 2,2 1.104,0 2,-0.896 2,-2" /></g><g
           transform="translate(108,142)"
           id="g150"><path
             id="path152"
             style="fill:#b3b3b3;fill-opacity:1;fill-rule:nonzero;stroke:none"
             d="m 0,0 c 0,-1.104 -0.896,-2 -2,-2 -1.104,0 -2,0.896 -2,2 0,1.104 0.896,2 2,2 1.104,0 2,-0.896 2,-2" /></g><g
           transform="translate(152,142)"
           id="g154"><path
             id="path156"
             style="fill:#b3b3b3;fill-opacity:1;fill-rule:nonzero;stroke:none"
             d="m 0,0 c 0,-1.104 -0.896,-2 -2,-2 -1.104,0 -2,0.896 -2,2 0,1.104 0.896,2 2,2 1.104,0 2,-0.896 2,-2" /></g><g
           transform="translate(160,142)"
           id="g158"><path
             id="path160"
             style="fill:#b3b3b3;fill-opacity:1;fill-rule:nonzero;stroke:none"
             d="m 0,0 c 0,-1.104 -0.896,-2 -2,-2 -1.104,0 -2,0.896 -2,2 0,1.104 0.896,2 2,2 1.104,0 2,-0.896 2,-2" /></g></g></g></g></svg>