<?xml version="1.0" encoding="UTF-8" standalone="no"?>
<svg
   xmlns:dc="http://purl.org/dc/elements/1.1/"
   xmlns:cc="http://creativecommons.org/ns#"
   xmlns:rdf="http://www.w3.org/1999/02/22-rdf-syntax-ns#"
   xmlns:svg="http://www.w3.org/2000/svg"
   xmlns="http://www.w3.org/2000/svg"
   viewBox="0 0 320 320"
   height="320"
   width="320"
   xml:space="preserve"
   version="1.1"
   id="svg2"><metadata
     id="metadata8"><rdf:RDF><cc:Work
         rdf:about=""><dc:format>image/svg+xml</dc:format><dc:type
           rdf:resource="http://purl.org/dc/dcmitype/StillImage" /></cc:Work></rdf:RDF></metadata><defs
     id="defs6"><clipPath
       id="clipPath16"
       clipPathUnits="userSpaceOnUse"><path
         id="path18"
         d="M 0,256 256,256 256,0 0,0 0,256 Z" /></clipPath><clipPath
       id="clipPath24"
       clipPathUnits="userSpaceOnUse"><path
         id="path26"
         d="M 4,248 252,248 252,8 4,8 4,248 Z" /></clipPath><clipPath
       id="clipPath44"
       clipPathUnits="userSpaceOnUse"><path
         id="path46"
         d="M 0,256 256,256 256,0 0,0 0,256 Z" /></clipPath></defs><g
     transform="matrix(1.25,0,0,-1.25,0,320)"
     id="g10"><g
       id="g12"><g
         clip-path="url(#clipPath16)"
         id="g14"><g
           id="g20"><g
             id="g22" /><g
             id="g28"><g
               style="opacity:0.5"
               id="g30"
               clip-path="url(#clipPath24)"><g
                 id="g32"
                 transform="translate(240,248)"><path
                   id="path34"
                   style="fill:#ffffff;fill-opacity:1;fill-rule:nonzero;stroke:none"
                   d="m 0,0 -204,0 c -0.96,0 -1.907,-0.121 -2.878,-0.369 l -6.437,-1.073 -4,-0.667 -6,-1 -2,-0.333 -0.659,-0.11 C -231.783,-4.52 -236,-9.498 -236,-15.389 l 0,-201.222 c 0,-4.953 2.982,-9.262 7.386,-11.083 L -228,-240 l 232,0 0.441,8.857 c 4.425,1.781 7.559,6.138 7.559,11.218 l 0,207.85 C 12,-5.417 6.617,0 0,0" /></g></g></g></g></g></g><g
       transform="translate(164,24)"
       id="g36"><path
         id="path38"
         style="fill:#333333;fill-opacity:1;fill-rule:nonzero;stroke:none"
         d="M 0,0 0,4 -72,4 -72,0 -152,-8 80,-8 0,0 Z" /></g><g
       id="g40"><g
         clip-path="url(#clipPath44)"
         id="g42"><g
           transform="translate(32,28.0752)"
           id="g48"><path
             id="path50"
             style="fill:#262626;fill-opacity:1;fill-rule:nonzero;stroke:none"
             d="m 0,0 0,207.849 c 0,2.251 1.791,4.076 4,4.076 l 204,0 c 2.209,0 4,-1.825 4,-4.076 L 212,0 c 0,-2.251 -1.791,-4.075 -4,-4.075 l -204,0 C 1.791,-4.075 0,-2.251 0,0" /></g><g
           transform="translate(36,240)"
           id="g52"><path
             id="path54"
             style="fill:#333333;fill-opacity:1;fill-rule:nonzero;stroke:none"
             d="M 0,0 -20.658,-3.443 C -22.586,-3.764 -24,-5.433 -24,-7.389 l 0,-201.222 c 0,-1.955 1.414,-3.624 3.342,-3.946 L 0,-216 0,0 Z" /></g><g
           transform="translate(28,238.6665)"
           id="g56"><path
             id="path58"
             style="fill:#262626;fill-opacity:1;fill-rule:nonzero;stroke:none"
             d="m 0,0 -4,-0.667 0,-212 4,-0.666 L 0,0 Z" /></g><g
           transform="translate(16,27.333)"
           id="g60"><path
             id="path62"
             style="fill:#262626;fill-opacity:1;fill-rule:nonzero;stroke:none"
             d="M 0,0 4,-0.666 4,210 0,209.333 0,0 Z" /></g><path
           id="path64"
           style="fill:#0000ff;fill-opacity:1;fill-rule:nonzero;stroke:none"
           d="m 19,232 1,0 0,-144 -1,0 0,144 z" /></g></g></g></svg>