<?xml version="1.0" encoding="UTF-8" standalone="no"?>
<svg
   xmlns:dc="http://purl.org/dc/elements/1.1/"
   xmlns:cc="http://creativecommons.org/ns#"
   xmlns:rdf="http://www.w3.org/1999/02/22-rdf-syntax-ns#"
   xmlns:svg="http://www.w3.org/2000/svg"
   xmlns="http://www.w3.org/2000/svg"
   viewBox="0 0 319.95761 202.66626"
   height="202.66626"
   width="319.95761"
   xml:space="preserve"
   id="svg2"
   version="1.1"><metadata
     id="metadata8"><rdf:RDF><cc:Work
         rdf:about=""><dc:format>image/svg+xml</dc:format><dc:type
           rdf:resource="http://purl.org/dc/dcmitype/StillImage" /></cc:Work></rdf:RDF></metadata><defs
     id="defs6"><clipPath
       id="clipPath18"
       clipPathUnits="userSpaceOnUse"><path
         id="path16"
         d="M 0,256 H 256 V 0 H 0 Z" /></clipPath><clipPath
       id="clipPath26"
       clipPathUnits="userSpaceOnUse"><path
         id="path24"
         d="M 8.01578,204 H 247.984 V 52 H 8.01578 Z" /></clipPath></defs><g
     transform="matrix(1.3333333,0,0,-1.3333333,-10.687706,271.99959)"
     id="g10"><g
       id="g12"><g
         clip-path="url(#clipPath18)"
         id="g14"><g
           id="g20"><g
             id="g22" /><g
             id="g34"><g
               style="opacity:0.5"
               id="g32"
               clip-path="url(#clipPath26)"><g
                 id="g30"
                 transform="translate(247.957,120.9697)"><path
                   id="path28"
                   style="fill:#ffffff;fill-opacity:1;fill-rule:nonzero;stroke:none"
                   d="m 0,0 -3.528,59.97 c -0.469,7.975 -6.752,14.318 -14.575,15 -2.109,2.464 -5.187,4.039 -8.596,4.187 l -88.91,3.866 c -0.117,0.005 -0.232,0.007 -0.348,0.007 h -8 c -0.116,0 -0.231,-0.002 -0.348,-0.007 l -88.91,-3.866 c -3.409,-0.148 -6.487,-1.723 -8.597,-4.187 -7.822,-0.682 -14.105,-7.025 -14.574,-15 l -3.528,-59.969 c -0.039,-0.664 -0.036,-1.338 0.008,-2.003 l 2.971,-44.564 c 0.837,-12.563 11.356,-22.404 23.947,-22.404 h 26.795 2.236 128 2.236 26.795 c 12.591,0 23.11,9.841 23.947,22.404 l 2.971,44.563 C 0.036,-1.338 0.039,-0.664 0,0" /></g></g></g></g><g
           transform="translate(221.0312,60)"
           id="g36"><path
             id="path38"
             style="fill:#333333;fill-opacity:1;fill-rule:nonzero;stroke:none"
             d="m 0,0 h -186.062 c -8.424,0 -15.405,6.531 -15.965,14.936 l -2.971,44.563 c -0.022,0.334 -0.023,0.668 -0.004,1.002 l 3.528,59.969 c 0.248,4.228 3.75,7.53 7.986,7.53 l 100.457,8 100.457,-8 c 4.235,0 7.737,-3.302 7.986,-7.53 l 3.527,-59.969 c 0.02,-0.334 0.019,-0.668 -0.003,-1.002 L 15.965,14.936 C 15.404,6.531 8.423,0 0,0" /></g><g
           transform="translate(64,60)"
           id="g40"><path
             id="path42"
             style="fill:#262626;fill-opacity:1;fill-rule:nonzero;stroke:none"
             d="m 0,0 8,16 h 112 l 8,-16 h 2.236 l -0.447,0.895 -8,16 L 121.236,18 H 120 8 6.764 l -0.553,-1.105 -8,-16 L -2.236,0 Z" /></g><g
           transform="translate(224.6484,188.9761)"
           id="g44"><path
             id="path46"
             style="fill:#d9d9d9;fill-opacity:1;fill-rule:nonzero;stroke:none"
             d="m 0,0 c -0.382,1.781 -1.918,3.079 -3.738,3.158 l -88.91,3.866 h -8 L -189.559,3.158 C -191.378,3.079 -192.915,1.781 -193.296,0 l -9.279,-43.3 c -1.067,-4.98 2.729,-9.676 7.823,-9.676 h 9.773 c 11.731,0 21.744,-8.482 23.673,-20.055 l 5.872,-31.945 c 1.607,-9.644 9.951,-16 19.728,-16 h 78.115 c 9.777,0 18.12,6.356 19.728,16 l 5.872,31.945 c 1.929,11.573 11.941,20.055 23.674,20.055 h 9.773 c 5.093,0 8.89,4.696 7.822,9.676 z" /></g><g
           transform="translate(174.4082,92)"
           id="g48"><path
             id="path50"
             style="fill:#cccccc;fill-opacity:1;fill-rule:nonzero;stroke:none"
             d="m 0,0 h -92.816 c -5.361,0 -9.768,4.228 -9.992,9.584 l -3.426,82.249 c -0.095,2.273 1.721,4.167 3.996,4.167 H 9.422 c 2.274,0 4.091,-1.894 3.996,-4.167 L 9.991,9.584 C 9.768,4.228 5.36,0 0,0" /></g><g
           transform="translate(172,100)"
           id="g52"><path
             id="path54"
             style="fill:#74b743;fill-opacity:1;fill-rule:nonzero;stroke:none"
             d="m 0,0 h -88 c -2.209,0 -4,1.791 -4,4 v 68 c 0,2.209 1.791,4 4,4 H 0 c 2.209,0 4,-1.791 4,-4 V 4 C 4,1.791 2.209,0 0,0" /></g><g
           transform="translate(52,186)"
           id="g56"><path
             id="path58"
             style="fill:#333333;fill-opacity:1;fill-rule:nonzero;stroke:none"
             d="m 0,0 c 0,-1.104 -0.896,-2 -2,-2 -1.104,0 -2,0.896 -2,2 0,1.104 0.896,2 2,2 1.104,0 2,-0.896 2,-2" /></g><g
           transform="translate(34,186)"
           id="g60"><path
             id="path62"
             style="fill:#666666;fill-opacity:1;fill-rule:nonzero;stroke:none"
             d="M 0,0 C 0,2.209 1.791,4 4,4 6.209,4 8,2.209 8,0 8,-2.209 6.209,-4 4,-4 1.791,-4 0,-2.209 0,0" /></g><g
           transform="translate(40,186)"
           id="g64"><path
             id="path66"
             style="fill:#cccccc;fill-opacity:1;fill-rule:nonzero;stroke:none"
             d="m 0,0 c 0,-1.104 -0.896,-2 -2,-2 -1.104,0 -2,0.896 -2,2 0,1.104 0.896,2 2,2 1.104,0 2,-0.896 2,-2" /></g><g
           transform="translate(76,78)"
           id="g68"><path
             id="path70"
             style="fill:#666666;fill-opacity:1;fill-rule:nonzero;stroke:none"
             d="M 0,0 C 0,2.209 1.791,4 4,4 6.209,4 8,2.209 8,0 8,-2.209 6.209,-4 4,-4 1.791,-4 0,-2.209 0,0" /></g><g
           transform="translate(82,78)"
           id="g72"><path
             id="path74"
             style="fill:#cccccc;fill-opacity:1;fill-rule:nonzero;stroke:none"
             d="m 0,0 c 0,-1.104 -0.896,-2 -2,-2 -1.104,0 -2,0.896 -2,2 0,1.104 0.896,2 2,2 1.104,0 2,-0.896 2,-2" /></g><g
           transform="translate(172,78)"
           id="g76"><path
             id="path78"
             style="fill:#666666;fill-opacity:1;fill-rule:nonzero;stroke:none"
             d="M 0,0 C 0,2.209 1.791,4 4,4 6.209,4 8,2.209 8,0 8,-2.209 6.209,-4 4,-4 1.791,-4 0,-2.209 0,0" /></g><g
           transform="translate(178,78)"
           id="g80"><path
             id="path82"
             style="fill:#cccccc;fill-opacity:1;fill-rule:nonzero;stroke:none"
             d="m 0,0 c 0,-1.104 -0.896,-2 -2,-2 -1.104,0 -2,0.896 -2,2 0,1.104 0.896,2 2,2 1.104,0 2,-0.896 2,-2" /></g><g
           transform="translate(214,186)"
           id="g84"><path
             id="path86"
             style="fill:#666666;fill-opacity:1;fill-rule:nonzero;stroke:none"
             d="M 0,0 C 0,2.209 1.791,4 4,4 6.209,4 8,2.209 8,0 8,-2.209 6.209,-4 4,-4 1.791,-4 0,-2.209 0,0" /></g><g
           transform="translate(220,186)"
           id="g88"><path
             id="path90"
             style="fill:#cccccc;fill-opacity:1;fill-rule:nonzero;stroke:none"
             d="m 0,0 c 0,-1.104 -0.896,-2 -2,-2 -1.104,0 -2,0.896 -2,2 0,1.104 0.896,2 2,2 1.104,0 2,-0.896 2,-2" /></g><g
           transform="translate(212,170)"
           id="g92"><path
             id="path94"
             style="fill:#29678f;fill-opacity:1;fill-rule:nonzero;stroke:none"
             d="m 0,0 c 0,-3.313 -2.687,-6 -6,-6 -3.313,0 -6,2.687 -6,6 0,3.313 2.687,6 6,6 3.313,0 6,-2.687 6,-6" /></g><g
           transform="translate(58,110)"
           id="g96"><path
             id="path98"
             style="fill:#262626;fill-opacity:1;fill-rule:nonzero;stroke:none"
             d="m 0,0 c 0,-11.046 -8.954,-20 -20,-20 -11.046,0 -20,8.954 -20,20 0,11.046 8.954,20 20,20 C -8.954,20 0,11.046 0,0" /></g><g
           transform="translate(238,110)"
           id="g100"><path
             id="path102"
             style="fill:#262626;fill-opacity:1;fill-rule:nonzero;stroke:none"
             d="m 0,0 c 0,-11.046 -8.954,-20 -20,-20 -11.046,0 -20,8.954 -20,20 0,11.046 8.954,20 20,20 C -8.954,20 0,11.046 0,0" /></g><g
           transform="translate(50,114)"
           id="g104"><path
             id="path106"
             style="fill:#333333;fill-opacity:1;fill-rule:nonzero;stroke:none"
             d="m 0,0 h -6 c -1.104,0 -2,0.896 -2,2 v 6 h -8 V 2 c 0,-1.104 -0.896,-2 -2,-2 h -6 v -8 h 6 c 1.104,0 2,-0.896 2,-2 v -6 h 8 v 6 c 0,1.104 0.896,2 2,2 h 6 z" /></g><g
           transform="translate(41,110)"
           id="g108"><path
             id="path110"
             style="fill:#262626;fill-opacity:1;fill-rule:nonzero;stroke:none"
             d="m 0,0 c 0,-1.657 -1.343,-3 -3,-3 -1.657,0 -3,1.343 -3,3 0,1.657 1.343,3 3,3 1.657,0 3,-1.343 3,-3" /></g><g
           transform="translate(38,126)"
           id="g112"><path
             id="path114"
             style="fill:#333333;fill-opacity:1;fill-rule:nonzero;stroke:none"
             d="m 0,0 c -8.836,0 -16,-7.163 -16,-16 0,-8.837 7.164,-16 16,-16 8.836,0 16,7.163 16,16 C 16,-7.163 8.836,0 0,0 m 0,-2 c 7.72,0 14,-6.28 14,-14 0,-7.72 -6.28,-14 -14,-14 -7.72,0 -14,6.28 -14,14 0,7.72 6.28,14 14,14" /></g><g
           transform="translate(32,115.5)"
           id="g116"><path
             id="path118"
             style="fill:#333333;fill-opacity:1;fill-rule:nonzero;stroke:none"
             d="m 0,0 c -0.128,0 -0.256,0.049 -0.354,0.146 l -2,2 c -0.195,0.196 -0.195,0.512 0,0.708 0.196,0.195 0.512,0.195 0.708,0 l 2,-2 C 0.549,0.658 0.549,0.342 0.354,0.146 0.256,0.049 0.128,0 0,0" /></g><g
           transform="translate(44.5,115.5)"
           id="g120"><path
             id="path122"
             style="fill:#333333;fill-opacity:1;fill-rule:nonzero;stroke:none"
             d="m 0,0 c 0.128,0 0.256,0.049 0.354,0.146 l 2,2 c 0.195,0.196 0.195,0.512 0,0.708 -0.196,0.195 -0.512,0.195 -0.708,0 l -2,-2 C -0.549,0.658 -0.549,0.342 -0.354,0.146 -0.256,0.049 -0.128,0 0,0" /></g><g
           transform="translate(44.5,104)"
           id="g124"><path
             id="path126"
             style="fill:#333333;fill-opacity:1;fill-rule:nonzero;stroke:none"
             d="m 0,0 c 0.128,0 0.256,-0.049 0.354,-0.146 l 2,-2 c 0.195,-0.196 0.195,-0.512 0,-0.708 -0.196,-0.195 -0.512,-0.195 -0.708,0 l -2,2 c -0.195,0.196 -0.195,0.512 0,0.708 C -0.256,-0.049 -0.128,0 0,0" /></g><g
           transform="translate(32,104)"
           id="g128"><path
             id="path130"
             style="fill:#333333;fill-opacity:1;fill-rule:nonzero;stroke:none"
             d="m 0,0 c -0.128,0 -0.256,-0.049 -0.354,-0.146 l -2,-2 c -0.195,-0.196 -0.195,-0.512 0,-0.708 0.196,-0.195 0.512,-0.195 0.708,0 l 2,2 c 0.195,0.196 0.195,0.512 0,0.708 C 0.256,-0.049 0.128,0 0,0" /></g><g
           transform="translate(96,68)"
           id="g132"><path
             id="path134"
             style="fill:#cccccc;fill-opacity:1;fill-rule:nonzero;stroke:none"
             d="M 0,0 C 0,0 8,12 32,12 56,12 64,0 64,0 Z" /></g><g
           transform="translate(220,158.3433)"
           id="g136"><path
             id="path138"
             style="fill:#29678f;fill-opacity:1;fill-rule:nonzero;stroke:none"
             d="m 0,0 c 0,-2.209 -4.478,-5.791 -10,-8 -5.522,-2.209 -10,-2.209 -10,0 0,2.209 4.478,5.791 10,8 5.522,2.209 10,2.209 10,0" /></g><g
           transform="translate(220,146.3433)"
           id="g140"><path
             id="path142"
             style="fill:#29678f;fill-opacity:1;fill-rule:nonzero;stroke:none"
             d="m 0,0 c 0,-2.209 -4.478,-5.791 -10,-8 -5.522,-2.209 -10,-2.209 -10,0 0,2.209 4.478,5.791 10,8 5.522,2.209 10,2.209 10,0" /></g><g
           transform="translate(46,143.7651)"
           id="g144"><path
             id="path146"
             style="fill:#cccccc;fill-opacity:1;fill-rule:nonzero;stroke:none"
             d="m 0,0 -8,4 c -1.1,0.55 -2,1.9 -2,3 0,1.1 0.9,1.55 2,1 L 0,4 C 1.1,3.45 2,2.1 2,1 2,-0.1 1.1,-0.55 0,0" /></g><g
           transform="translate(50,141.7651)"
           id="g148"><path
             id="path150"
             style="fill:#333333;fill-opacity:1;fill-rule:nonzero;stroke:none"
             d="m 0,0 -8,4 c -1.1,0.55 -2,1.9 -2,3 0,1.1 0.9,1.55 2,1 L 0,4 C 1.1,3.45 2,2.1 2,1 2,-0.1 1.1,-0.55 0,0" /></g><g
           transform="translate(46,151.7651)"
           id="g152"><path
             id="path154"
             style="fill:#cccccc;fill-opacity:1;fill-rule:nonzero;stroke:none"
             d="m 0,0 -8,4 c -1.1,0.55 -2,1.9 -2,3 0,1.1 0.9,1.55 2,1 L 0,4 C 1.1,3.45 2,2.1 2,1 2,-0.1 1.1,-0.55 0,0" /></g><g
           transform="translate(50,149.7651)"
           id="g156"><path
             id="path158"
             style="fill:#333333;fill-opacity:1;fill-rule:nonzero;stroke:none"
             d="m 0,0 -8,4 c -1.1,0.55 -2,1.9 -2,3 0,1.1 0.9,1.55 2,1 L 0,4 C 1.1,3.45 2,2.1 2,1 2,-0.1 1.1,-0.55 0,0" /></g><g
           transform="translate(46,159.7651)"
           id="g160"><path
             id="path162"
             style="fill:#cccccc;fill-opacity:1;fill-rule:nonzero;stroke:none"
             d="m 0,0 -8,4 c -1.1,0.55 -2,1.9 -2,3 0,1.1 0.9,1.55 2,1 L 0,4 C 1.1,3.45 2,2.1 2,1 2,-0.1 1.1,-0.55 0,0" /></g><g
           transform="translate(50,157.7651)"
           id="g164"><path
             id="path166"
             style="fill:#333333;fill-opacity:1;fill-rule:nonzero;stroke:none"
             d="m 0,0 -8,4 c -1.1,0.55 -2,1.9 -2,3 0,1.1 0.9,1.55 2,1 L 0,4 C 1.1,3.45 2,2.1 2,1 2,-0.1 1.1,-0.55 0,0" /></g><g
           transform="translate(46,167.7651)"
           id="g168"><path
             id="path170"
             style="fill:#cccccc;fill-opacity:1;fill-rule:nonzero;stroke:none"
             d="m 0,0 -8,4 c -1.1,0.55 -2,1.9 -2,3 0,1.1 0.9,1.55 2,1 L 0,4 C 1.1,3.45 2,2.1 2,1 2,-0.1 1.1,-0.55 0,0" /></g><g
           transform="translate(50,165.7651)"
           id="g172"><path
             id="path174"
             style="fill:#333333;fill-opacity:1;fill-rule:nonzero;stroke:none"
             d="m 0,0 -8,4 c -1.1,0.55 -2,1.9 -2,3 0,1.1 0.9,1.55 2,1 L 0,4 C 1.1,3.45 2,2.1 2,1 2,-0.1 1.1,-0.55 0,0" /></g><g
           transform="translate(220,120)"
           id="g176"><path
             id="path178"
             style="fill:#595959;fill-opacity:1;fill-rule:nonzero;stroke:none"
             d="m 0,0 c 0,-3.313 2.687,-6 6,-6 3.313,0 6,2.687 6,6 C 12,3.313 9.313,6 6,6 2.687,6 0,3.313 0,0" /></g><g
           transform="translate(220,104)"
           id="g180"><path
             id="path182"
             style="fill:#595959;fill-opacity:1;fill-rule:nonzero;stroke:none"
             d="m 0,0 c 0,-3.313 2.687,-6 6,-6 3.313,0 6,2.687 6,6 C 12,3.313 9.313,6 6,6 2.687,6 0,3.313 0,0" /></g><g
           transform="translate(204,116)"
           id="g184"><path
             id="path186"
             style="fill:#595959;fill-opacity:1;fill-rule:nonzero;stroke:none"
             d="m 0,0 c 0,-3.313 2.687,-6 6,-6 3.313,0 6,2.687 6,6 C 12,3.313 9.313,6 6,6 2.687,6 0,3.313 0,0" /></g><g
           transform="translate(204,100)"
           id="g188"><path
             id="path190"
             style="fill:#595959;fill-opacity:1;fill-rule:nonzero;stroke:none"
             d="m 0,0 c 0,-3.313 2.687,-6 6,-6 3.313,0 6,2.687 6,6 C 12,3.313 9.313,6 6,6 2.687,6 0,3.313 0,0" /></g><g
           transform="translate(148.6953,72)"
           id="g192"><path
             id="path194"
             style="fill:#29678f;fill-opacity:1;fill-rule:nonzero;stroke:none"
             d="M 0,0 C 2.149,0 2.791,2.926 0.837,3.821 -4.147,6.104 -11.156,8 -20.695,8 -30.235,8 -37.243,6.104 -42.227,3.821 -44.181,2.926 -43.541,0 -41.391,0 Z" /></g></g></g></g></svg>