<?xml version="1.0" encoding="UTF-8" standalone="no"?>
<svg
   xmlns:dc="http://purl.org/dc/elements/1.1/"
   xmlns:cc="http://creativecommons.org/ns#"
   xmlns:rdf="http://www.w3.org/1999/02/22-rdf-syntax-ns#"
   xmlns:svg="http://www.w3.org/2000/svg"
   xmlns="http://www.w3.org/2000/svg"
   viewBox="0 0 319.50381 328.32785"
   height="328.32785"
   width="319.50381"
   xml:space="preserve"
   id="svg2"
   version="1.1"><metadata
     id="metadata8"><rdf:RDF><cc:Work
         rdf:about=""><dc:format>image/svg+xml</dc:format><dc:type
           rdf:resource="http://purl.org/dc/dcmitype/StillImage" /></cc:Work></rdf:RDF></metadata><defs
     id="defs6"><clipPath
       id="clipPath18"
       clipPathUnits="userSpaceOnUse"><path
         id="path16"
         d="M 0,256 H 256 V 0 H 0 Z" /></clipPath><clipPath
       id="clipPath26"
       clipPathUnits="userSpaceOnUse"><path
         id="path24"
         d="M 8.18613,251.123 H 247.814 V 4.87692 H 8.18613 Z" /></clipPath></defs><g
     transform="matrix(1.3333333,0,0,-1.3333333,-10.91484,334.83066)"
     id="g10"><g
       id="g12"><g
         clip-path="url(#clipPath18)"
         id="g14"><g
           id="g20"><g
             id="g22" /><g
             id="g34"><g
               style="opacity:0.5"
               id="g32"
               clip-path="url(#clipPath26)"><g
                 id="g30"
                 transform="translate(237.415,51.4561)"><path
                   id="path28"
                   style="fill:#ffffff;fill-opacity:1;fill-rule:nonzero;stroke:none"
                   d="M 0,0 C -0.489,-0.214 -1.031,-0.333 -1.601,-0.333 -1.031,-0.333 -0.489,-0.214 0,0 0.489,0.214 0.928,0.523 1.291,0.903 0.928,0.523 0.489,0.214 0,0 m 6.104,94.472 c -4.866,56.483 -30.894,88.174 -42.034,99.314 -3.793,3.793 -8.824,5.881 -14.167,5.881 h -59.318 -59.319 c -5.343,0 -10.373,-2.088 -14.166,-5.881 -11.14,-11.14 -37.169,-42.831 -42.034,-99.314 l -0.608,-9.421 -3.675,-80.839 c -0.148,-3.258 1.059,-6.478 3.312,-8.835 2.253,-2.357 5.415,-3.71 8.676,-3.71 h 15.628 v -28 -10.246 l 9.94,2.485 c 12.336,3.083 51.869,3.76 66.06,3.761 h 8 v 8 24 h 8.186 8 v -24 -8 h 8 c 14.191,-0.001 53.725,-0.678 66.06,-3.761 l 9.94,-2.485 v 10.246 28 h 15.814 c 3.261,0 6.423,1.353 8.676,3.71 2.252,2.357 3.459,5.577 3.312,8.835 L 6.712,85.051 Z" /></g></g></g></g><g
           transform="translate(236,140)"
           id="g36"><path
             id="path38"
             style="fill:#ff0000;fill-opacity:1;fill-rule:nonzero;stroke:none"
             d="m 0,0 c -3.238,58.287 -30.068,90.359 -40.172,100.462 -2.26,2.26 -5.313,3.538 -8.51,3.538 H -108 -167.319 c -3.196,0 -6.249,-1.278 -8.509,-3.538 C -185.931,90.359 -212.762,58.287 -216,0 l -3.81,-83.818 c -0.104,-2.279 1.716,-4.182 3.996,-4.182 H -108 -0.186 c 2.281,0 4.099,1.903 3.996,4.182 z" /></g><g
           transform="translate(144,20)"
           id="g40"><path
             id="path42"
             style="fill:#262626;fill-opacity:1;fill-rule:nonzero;stroke:none"
             d="M 0,0 C 0,0 52,0 68,-4 V 32 H 0 Z" /></g><g
           transform="translate(188,232)"
           id="g44"><path
             id="path46"
             style="fill:#b80000;fill-opacity:1;fill-rule:nonzero;stroke:none"
             d="M 0,0 4,-48 44,-76 8,-44 Z" /></g><path
           id="path48"
           style="fill:#262626;fill-opacity:1;fill-rule:nonzero;stroke:none"
           d="M 164,144 H 92 v 28 h 72 z" /><g
           transform="translate(111.814,20)"
           id="g50"><path
             id="path52"
             style="fill:#262626;fill-opacity:1;fill-rule:nonzero;stroke:none"
             d="M 0,0 C 0,0 -52,0 -68,-4 V 32 H 0 Z" /></g><g
           transform="translate(67.814,232)"
           id="g54"><path
             id="path56"
             style="fill:#b80000;fill-opacity:1;fill-rule:nonzero;stroke:none"
             d="m 0,0 -4,-48 -40,-28 36,32 z" /></g><g
           transform="translate(168,172)"
           id="g58"><path
             id="path60"
             style="fill:#b80000;fill-opacity:1;fill-rule:nonzero;stroke:none"
             d="M 0,0 V -32 H -80 V 0 l -48,-36 -4,-72 h 92 92 l -4,72 z M 4,-8 44.109,-38.082 47.771,-104 H -40 -127.771 l 3.662,65.918 L -84,-8 v -24 -4 h 4 80 4 v 4 z" /></g><path
           id="path62"
           style="fill:#999999;fill-opacity:1;fill-rule:nonzero;stroke:none"
           d="M 200,76 H 56 v 48 h 144 z" /><g
           transform="translate(128,198)"
           id="g64"><path
             id="path66"
             style="fill:#b80000;fill-opacity:1;fill-rule:nonzero;stroke:none"
             d="M 0,0 H 31.306 L 108,-58 c -0.079,1.428 -0.185,2.828 -0.291,4.224 L 32.694,4 H 0 -32.694 l -75.015,-57.776 c -0.107,-1.396 -0.212,-2.796 -0.291,-4.224 l 76.694,58 z" /></g><g
           transform="translate(56,214)"
           id="g68"><path
             id="path70"
             style="fill:#eac500;fill-opacity:1;fill-rule:nonzero;stroke:none"
             d="m 0,0 c 0,-1.104 -0.896,-2 -2,-2 -1.104,0 -2,0.896 -2,2 0,1.104 0.896,2 2,2 1.104,0 2,-0.896 2,-2" /></g><g
           transform="translate(204,214)"
           id="g72"><path
             id="path74"
             style="fill:#eac500;fill-opacity:1;fill-rule:nonzero;stroke:none"
             d="m 0,0 c 0,-1.104 -0.896,-2 -2,-2 -1.104,0 -2,0.896 -2,2 0,1.104 0.896,2 2,2 1.104,0 2,-0.896 2,-2" /></g><g
           transform="translate(216,194)"
           id="g76"><path
             id="path78"
             style="fill:#eac500;fill-opacity:1;fill-rule:nonzero;stroke:none"
             d="m 0,0 c 0,-3.313 -2.687,-6 -6,-6 -3.313,0 -6,2.687 -6,6 0,3.313 2.687,6 6,6 3.313,0 6,-2.687 6,-6" /></g><g
           transform="translate(52,196)"
           id="g80"><path
             id="path82"
             style="fill:#eac500;fill-opacity:1;fill-rule:nonzero;stroke:none"
             d="M 0,0 H -2 C -3.104,0 -4,0.896 -4,2 V 4 H -8 V 2 C -8,0.896 -8.896,0 -10,0 h -2 v -4 h 2 c 1.104,0 2,-0.896 2,-2 v -2 h 4 v 2 c 0,1.104 0.896,2 2,2 h 2 z" /></g><g
           transform="translate(48,194)"
           id="g84"><path
             id="path86"
             style="fill:#d4a600;fill-opacity:1;fill-rule:nonzero;stroke:none"
             d="m 0,0 c 0,-1.104 -0.896,-2 -2,-2 -1.104,0 -2,0.896 -2,2 0,1.104 0.896,2 2,2 1.104,0 2,-0.896 2,-2" /></g></g></g></g></svg>