<?xml version="1.0" encoding="UTF-8" standalone="no"?>
<svg
   xmlns:dc="http://purl.org/dc/elements/1.1/"
   xmlns:cc="http://creativecommons.org/ns#"
   xmlns:rdf="http://www.w3.org/1999/02/22-rdf-syntax-ns#"
   xmlns:svg="http://www.w3.org/2000/svg"
   xmlns="http://www.w3.org/2000/svg"
   viewBox="0 0 320 320"
   height="320"
   width="320"
   xml:space="preserve"
   version="1.1"
   id="svg2"><metadata
     id="metadata8"><rdf:RDF><cc:Work
         rdf:about=""><dc:format>image/svg+xml</dc:format><dc:type
           rdf:resource="http://purl.org/dc/dcmitype/StillImage" /></cc:Work></rdf:RDF></metadata><defs
     id="defs6"><clipPath
       id="clipPath16"
       clipPathUnits="userSpaceOnUse"><path
         id="path18"
         d="M 0,256 256,256 256,0 0,0 0,256 Z" /></clipPath><clipPath
       id="clipPath24"
       clipPathUnits="userSpaceOnUse"><path
         id="path26"
         d="M 52,252 204,252 204,4 52,4 52,252 Z" /></clipPath></defs><g
     transform="matrix(1.25,0,0,-1.25,0,320)"
     id="g10"><g
       id="g12"><g
         clip-path="url(#clipPath16)"
         id="g14"><g
           id="g20"><g
             id="g22" /><g
             id="g28"><g
               style="opacity:0.5"
               id="g30"
               clip-path="url(#clipPath24)"><g
                 id="g32"
                 transform="translate(191.6758,252)"><path
                   id="path34"
                   style="fill:#ffffff;fill-opacity:1;fill-rule:nonzero;stroke:none"
                   d="m 0,0 -127.352,0 c -6.795,0 -12.324,-5.383 -12.324,-12 l 0,-208 c 0,-15.439 12.901,-28 28.757,-28 l 94.486,0 c 15.857,0 28.757,12.561 28.757,28 l 0,208 C 12.324,-5.383 6.796,0 0,0" /></g></g></g></g><g
           transform="translate(176,12)"
           id="g36"><path
             id="path38"
             style="fill:#666666;fill-opacity:1;fill-rule:nonzero;stroke:none"
             d="m 0,0 -96,0 c -11.046,0 -20,8.954 -20,20 l 0,208 c 0,2.209 1.791,4 4,4 l 128,0 c 2.209,0 4,-1.791 4,-4 L 20,20 C 20,8.954 11.046,0 0,0" /></g><g
           transform="translate(180,120)"
           id="g40"><path
             id="path42"
             style="fill:#262626;fill-opacity:1;fill-rule:nonzero;stroke:none"
             d="m 0,0 -104,0 c -2.209,0 -4,1.791 -4,4 l 0,104 c 0,2.209 1.791,4 4,4 l 104,0 c 2.209,0 4,-1.791 4,-4 L 4,4 C 4,1.791 2.209,0 0,0" /></g><path
           id="path44"
           style="fill:#485915;fill-opacity:1;fill-rule:nonzero;stroke:none"
           d="m 172,132 -88,0 0,88 88,0 0,-88 z" /><g
           transform="translate(66,108)"
           id="g46"><path
             id="path48"
             style="fill:#595959;fill-opacity:1;fill-rule:nonzero;stroke:none"
             d="m 0,0 -6,0 0,4 6,0 C 1.104,4 2,3.104 2,2 2,0.896 1.104,0 0,0" /></g><g
           transform="translate(66,100)"
           id="g50"><path
             id="path52"
             style="fill:#595959;fill-opacity:1;fill-rule:nonzero;stroke:none"
             d="m 0,0 -6,0 0,4 6,0 C 1.104,4 2,3.104 2,2 2,0.896 1.104,0 0,0" /></g><g
           transform="translate(66,92)"
           id="g54"><path
             id="path56"
             style="fill:#595959;fill-opacity:1;fill-rule:nonzero;stroke:none"
             d="m 0,0 -6,0 0,4 6,0 C 1.104,4 2,3.104 2,2 2,0.896 1.104,0 0,0" /></g><g
           transform="translate(66,84)"
           id="g58"><path
             id="path60"
             style="fill:#595959;fill-opacity:1;fill-rule:nonzero;stroke:none"
             d="m 0,0 -6,0 0,4 6,0 C 1.104,4 2,3.104 2,2 2,0.896 1.104,0 0,0" /></g><g
           transform="translate(66,76)"
           id="g62"><path
             id="path64"
             style="fill:#595959;fill-opacity:1;fill-rule:nonzero;stroke:none"
             d="m 0,0 -6,0 0,4 6,0 C 1.104,4 2,3.104 2,2 2,0.896 1.104,0 0,0" /></g><g
           transform="translate(66,68)"
           id="g66"><path
             id="path68"
             style="fill:#595959;fill-opacity:1;fill-rule:nonzero;stroke:none"
             d="m 0,0 -6,0 0,4 6,0 C 1.104,4 2,3.104 2,2 2,0.896 1.104,0 0,0" /></g><g
           transform="translate(66,60)"
           id="g70"><path
             id="path72"
             style="fill:#595959;fill-opacity:1;fill-rule:nonzero;stroke:none"
             d="m 0,0 -6,0 0,4 6,0 C 1.104,4 2,3.104 2,2 2,0.896 1.104,0 0,0" /></g><g
           transform="translate(66,52)"
           id="g74"><path
             id="path76"
             style="fill:#595959;fill-opacity:1;fill-rule:nonzero;stroke:none"
             d="m 0,0 -6,0 0,4 6,0 C 1.104,4 2,3.104 2,2 2,0.896 1.104,0 0,0" /></g><g
           transform="translate(190,108)"
           id="g78"><path
             id="path80"
             style="fill:#595959;fill-opacity:1;fill-rule:nonzero;stroke:none"
             d="M 0,0 6,0 6,4 0,4 C -1.104,4 -2,3.104 -2,2 -2,0.896 -1.104,0 0,0" /></g><g
           transform="translate(190,100)"
           id="g82"><path
             id="path84"
             style="fill:#595959;fill-opacity:1;fill-rule:nonzero;stroke:none"
             d="M 0,0 6,0 6,4 0,4 C -1.104,4 -2,3.104 -2,2 -2,0.896 -1.104,0 0,0" /></g><g
           transform="translate(190,92)"
           id="g86"><path
             id="path88"
             style="fill:#595959;fill-opacity:1;fill-rule:nonzero;stroke:none"
             d="M 0,0 6,0 6,4 0,4 C -1.104,4 -2,3.104 -2,2 -2,0.896 -1.104,0 0,0" /></g><g
           transform="translate(190,84)"
           id="g90"><path
             id="path92"
             style="fill:#595959;fill-opacity:1;fill-rule:nonzero;stroke:none"
             d="M 0,0 6,0 6,4 0,4 C -1.104,4 -2,3.104 -2,2 -2,0.896 -1.104,0 0,0" /></g><g
           transform="translate(190,76)"
           id="g94"><path
             id="path96"
             style="fill:#595959;fill-opacity:1;fill-rule:nonzero;stroke:none"
             d="M 0,0 6,0 6,4 0,4 C -1.104,4 -2,3.104 -2,2 -2,0.896 -1.104,0 0,0" /></g><g
           transform="translate(190,68)"
           id="g98"><path
             id="path100"
             style="fill:#595959;fill-opacity:1;fill-rule:nonzero;stroke:none"
             d="M 0,0 6,0 6,4 0,4 C -1.104,4 -2,3.104 -2,2 -2,0.896 -1.104,0 0,0" /></g><g
           transform="translate(190,60)"
           id="g102"><path
             id="path104"
             style="fill:#595959;fill-opacity:1;fill-rule:nonzero;stroke:none"
             d="M 0,0 6,0 6,4 0,4 C -1.104,4 -2,3.104 -2,2 -2,0.896 -1.104,0 0,0" /></g><g
           transform="translate(190,52)"
           id="g106"><path
             id="path108"
             style="fill:#595959;fill-opacity:1;fill-rule:nonzero;stroke:none"
             d="M 0,0 6,0 6,4 0,4 C -1.104,4 -2,3.104 -2,2 -2,0.896 -1.104,0 0,0" /></g><g
           transform="translate(160,66)"
           id="g110"><path
             id="path112"
             style="fill:#1abf9f;fill-opacity:1;fill-rule:nonzero;stroke:none"
             d="m 0,0 c 0,-5.522 -4.478,-10 -10,-10 -5.522,0 -10,4.478 -10,10 0,5.522 4.478,10 10,10 C -4.478,10 0,5.522 0,0" /></g><g
           transform="translate(184,82)"
           id="g114"><path
             id="path116"
             style="fill:#1abf9f;fill-opacity:1;fill-rule:nonzero;stroke:none"
             d="m 0,0 c 0,-5.522 -4.478,-10 -10,-10 -5.522,0 -10,4.478 -10,10 0,5.522 4.478,10 10,10 C -4.478,10 0,5.522 0,0" /></g><g
           transform="translate(179,42.0322)"
           id="g118"><path
             id="path120"
             style="fill:#191919;fill-opacity:1;fill-rule:nonzero;stroke:none"
             d="m 0,0 -18,0 c -0.553,0 -1,0.447 -1,1 0,0.553 0.447,1 1,1 L 0,2 C 0.553,2 1,1.553 1,1 1,0.447 0.553,0 0,0" /></g><g
           transform="translate(175,38)"
           id="g122"><path
             id="path124"
             style="fill:#191919;fill-opacity:1;fill-rule:nonzero;stroke:none"
             d="m 0,0 -18,0 c -0.553,0 -1,0.447 -1,1 0,0.553 0.447,1 1,1 L 0,2 C 0.553,2 1,1.553 1,1 1,0.447 0.553,0 0,0" /></g><g
           transform="translate(171,33.9678)"
           id="g126"><path
             id="path128"
             style="fill:#191919;fill-opacity:1;fill-rule:nonzero;stroke:none"
             d="m 0,0 -18,0 c -0.553,0 -1,0.447 -1,1 0,0.553 0.447,1 1,1 L 0,2 C 0.553,2 1,1.553 1,1 1,0.447 0.553,0 0,0" /></g><g
           transform="translate(166,104)"
           id="g130"><path
             id="path132"
             style="fill:#191919;fill-opacity:1;fill-rule:nonzero;stroke:none"
             d="m 0,0 -12,0 c -1.104,0 -2,0.896 -2,2 0,1.104 0.896,2 2,2 L 0,4 C 1.104,4 2,3.104 2,2 2,0.896 1.104,0 0,0" /></g><g
           transform="translate(142,104)"
           id="g134"><path
             id="path136"
             style="fill:#191919;fill-opacity:1;fill-rule:nonzero;stroke:none"
             d="m 0,0 -12,0 c -1.104,0 -2,0.896 -2,2 0,1.104 0.896,2 2,2 L 0,4 C 1.104,4 2,3.104 2,2 2,0.896 1.104,0 0,0" /></g><g
           transform="translate(118,72)"
           id="g138"><path
             id="path140"
             style="fill:#191919;fill-opacity:1;fill-rule:nonzero;stroke:none"
             d="m 0,0 c 0,-3.313 -2.687,-6 -6,-6 -3.313,0 -6,2.687 -6,6 0,3.313 2.687,6 6,6 3.313,0 6,-2.687 6,-6" /></g><g
           transform="translate(90,72)"
           id="g142"><path
             id="path144"
             style="fill:#191919;fill-opacity:1;fill-rule:nonzero;stroke:none"
             d="m 0,0 c 0,-3.313 -2.687,-6 -6,-6 -3.313,0 -6,2.687 -6,6 0,3.313 2.687,6 6,6 3.313,0 6,-2.687 6,-6" /></g><g
           transform="translate(98,52)"
           id="g146"><path
             id="path148"
             style="fill:#191919;fill-opacity:1;fill-rule:nonzero;stroke:none"
             d="m 0,0 c -3.313,0 -6,2.687 -6,6 0,3.313 2.687,6 6,6 C 3.313,12 6,9.313 6,6 6,2.687 3.313,0 0,0" /></g><g
           transform="translate(98,80)"
           id="g150"><path
             id="path152"
             style="fill:#191919;fill-opacity:1;fill-rule:nonzero;stroke:none"
             d="m 0,0 c -3.313,0 -6,2.687 -6,6 0,3.313 2.687,6 6,6 C 3.313,12 6,9.313 6,6 6,2.687 3.313,0 0,0" /></g><path
           id="path154"
           style="fill:#595959;fill-opacity:1;fill-rule:nonzero;stroke:none"
           d="m 104,12 -4,0 0,8 4,0 0,-8 z" /><path
           id="path156"
           style="fill:#595959;fill-opacity:1;fill-rule:nonzero;stroke:none"
           d="m 96,12 -4,0 0,8 4,0 0,-8 z" /><path
           id="path158"
           style="fill:#595959;fill-opacity:1;fill-rule:nonzero;stroke:none"
           d="m 112,12 -4,0 0,8 4,0 0,-8 z" /><path
           id="path160"
           style="fill:#595959;fill-opacity:1;fill-rule:nonzero;stroke:none"
           d="m 120,12 -4,0 0,8 4,0 0,-8 z" /><path
           id="path162"
           style="fill:#595959;fill-opacity:1;fill-rule:nonzero;stroke:none"
           d="m 128,12 -4,0 0,8 4,0 0,-8 z" /><path
           id="path164"
           style="fill:#595959;fill-opacity:1;fill-rule:nonzero;stroke:none"
           d="m 136,12 -4,0 0,8 4,0 0,-8 z" /><path
           id="path166"
           style="fill:#595959;fill-opacity:1;fill-rule:nonzero;stroke:none"
           d="m 144,12 -4,0 0,8 4,0 0,-8 z" /><path
           id="path168"
           style="fill:#595959;fill-opacity:1;fill-rule:nonzero;stroke:none"
           d="m 152,12 -4,0 0,8 4,0 0,-8 z" /><path
           id="path170"
           style="fill:#595959;fill-opacity:1;fill-rule:nonzero;stroke:none"
           d="m 160,12 -4,0 0,8 4,0 0,-8 z" /><path
           id="path172"
           style="fill:#595959;fill-opacity:1;fill-rule:nonzero;stroke:none"
           d="m 168,12 -4,0 0,8 4,0 0,-8 z" /><g
           transform="translate(196,48)"
           id="g174"><path
             id="path176"
             style="fill:#595959;fill-opacity:1;fill-rule:nonzero;stroke:none"
             d="m 0,0 -8,0 c -2.209,0 -4,-1.791 -4,-4 l 0,-20 -112,0 0,20 c 0,2.209 -1.791,4 -4,4 l -8,0 0,-4 8,0 0,-20 c 0,-2.209 1.791,-4 4,-4 l 112,0 c 2.209,0 4,1.791 4,4 l 0,20 8,0 0,4 z" /></g></g></g></g></svg>