<?xml version="1.0" encoding="UTF-8" standalone="no"?>
<svg
   xmlns:dc="http://purl.org/dc/elements/1.1/"
   xmlns:cc="http://creativecommons.org/ns#"
   xmlns:rdf="http://www.w3.org/1999/02/22-rdf-syntax-ns#"
   xmlns:svg="http://www.w3.org/2000/svg"
   xmlns="http://www.w3.org/2000/svg"
   viewBox="0 0 320 320"
   height="320"
   width="320"
   xml:space="preserve"
   version="1.1"
   id="svg2"><metadata
     id="metadata8"><rdf:RDF><cc:Work
         rdf:about=""><dc:format>image/svg+xml</dc:format><dc:type
           rdf:resource="http://purl.org/dc/dcmitype/StillImage" /></cc:Work></rdf:RDF></metadata><defs
     id="defs6"><clipPath
       id="clipPath16"
       clipPathUnits="userSpaceOnUse"><path
         id="path18"
         d="M 0,256 256,256 256,0 0,0 0,256 Z" /></clipPath><clipPath
       id="clipPath24"
       clipPathUnits="userSpaceOnUse"><path
         id="path26"
         d="M 6,252 250,252 250,4 6,4 6,252 Z" /></clipPath><clipPath
       id="clipPath46"
       clipPathUnits="userSpaceOnUse"><path
         id="path48"
         d="M 0,256 256,256 256,0 0,0 0,256 Z" /></clipPath></defs><g
     transform="matrix(1.25,0,0,-1.25,0,320)"
     id="g10"><g
       id="g12"><g
         clip-path="url(#clipPath16)"
         id="g14"><g
           id="g20"><g
             id="g22" /><g
             id="g28"><g
               style="opacity:0.5"
               id="g30"
               clip-path="url(#clipPath24)"><g
                 id="g32"
                 transform="translate(242,252)"><path
                   id="path34"
                   style="fill:#ffffff;fill-opacity:1;fill-rule:nonzero;stroke:none"
                   d="m 0,0 -228,0 -8,0 0,-8 0,-28 0,-20 0,-156 0,-8 8,0 0,-20 0,-8 8,0 8,0 8,0 8,0 8,0 8,0 8,0 8,0 8,0 8,0 8,0 8,0 8,0 8,0 8,0 8,0 8,0 8,0 8,0 8,0 8,0 8,0 8,0 8,0 8,0 8,0 4,0 8,0 8,0 0,8 0,20 8,0 0,8 0,156 0,20 0,28 0,8 -8,0 z" /></g></g></g></g></g></g><g
       transform="translate(228,32)"
       id="g36"><path
         id="path38"
         style="fill:#b3b3b3;fill-opacity:1;fill-rule:nonzero;stroke:none"
         d="m 0,0 0,12 -196,0 0,-12 -8,0 0,-20 212,0 0,20 -8,0 z" /></g><path
       id="path40"
       style="fill:#808080;fill-opacity:1;fill-rule:nonzero;stroke:none"
       d="m 244,40 -228,0 0,204 228,0 0,-204 z" /><g
       id="g42"><g
         clip-path="url(#clipPath46)"
         id="g44"><g
           transform="translate(216,68)"
           id="g50"><path
             id="path52"
             style="fill:#e6e6e6;fill-opacity:1;fill-rule:nonzero;stroke:none"
             d="m 0,0 -172,0 c -6.627,0 -12,5.373 -12,12 l 0,100 c 0,6.627 5.373,12 12,12 l 172,0 c 6.627,0 12,-5.373 12,-12 L 12,12 C 12,5.373 6.627,0 0,0" /></g><g
           transform="translate(16,196)"
           id="g54"><path
             id="path56"
             style="fill:#666666;fill-opacity:1;fill-rule:nonzero;stroke:none"
             d="m 0,0 20,0 20,12 148,0 20,-12 20,0 0,48 L 0,48 0,0 Z" /></g><g
           transform="translate(16,216)"
           id="g58"><path
             id="path60"
             style="fill:#808080;fill-opacity:1;fill-rule:nonzero;stroke:none"
             d="m 0,0 20,0 20,12 148,0 20,-12 20,0 0,28 L 0,28 0,0 Z" /></g><path
           id="path62"
           style="fill:#bf9a57;fill-opacity:1;fill-rule:nonzero;stroke:none"
           d="m 48,12 -8,0 0,28 8,0 0,-28 z" /><path
           id="path64"
           style="fill:#bf9a57;fill-opacity:1;fill-rule:nonzero;stroke:none"
           d="m 32,12 -8,0 0,20 8,0 0,-20 z" /><path
           id="path66"
           style="fill:#bf9a57;fill-opacity:1;fill-rule:nonzero;stroke:none"
           d="m 64,12 -8,0 0,28 8,0 0,-28 z" /><path
           id="path68"
           style="fill:#bf9a57;fill-opacity:1;fill-rule:nonzero;stroke:none"
           d="m 80,12 -8,0 0,28 8,0 0,-28 z" /><path
           id="path70"
           style="fill:#bf9a57;fill-opacity:1;fill-rule:nonzero;stroke:none"
           d="m 96,12 -8,0 0,28 8,0 0,-28 z" /><path
           id="path72"
           style="fill:#bf9a57;fill-opacity:1;fill-rule:nonzero;stroke:none"
           d="m 112,12 -8,0 0,28 8,0 0,-28 z" /><path
           id="path74"
           style="fill:#bf9a57;fill-opacity:1;fill-rule:nonzero;stroke:none"
           d="m 128,12 -8,0 0,28 8,0 0,-28 z" /><path
           id="path76"
           style="fill:#bf9a57;fill-opacity:1;fill-rule:nonzero;stroke:none"
           d="m 144,12 -8,0 0,28 8,0 0,-28 z" /><path
           id="path78"
           style="fill:#bf9a57;fill-opacity:1;fill-rule:nonzero;stroke:none"
           d="m 160,12 -8,0 0,28 8,0 0,-28 z" /><path
           id="path80"
           style="fill:#bf9a57;fill-opacity:1;fill-rule:nonzero;stroke:none"
           d="m 176,12 -8,0 0,28 8,0 0,-28 z" /><path
           id="path82"
           style="fill:#bf9a57;fill-opacity:1;fill-rule:nonzero;stroke:none"
           d="m 192,12 -8,0 0,28 8,0 0,-28 z" /><path
           id="path84"
           style="fill:#bf9a57;fill-opacity:1;fill-rule:nonzero;stroke:none"
           d="m 208,12 -8,0 0,28 8,0 0,-28 z" /><path
           id="path86"
           style="fill:#bf9a57;fill-opacity:1;fill-rule:nonzero;stroke:none"
           d="m 224,12 -8,0 0,28 8,0 0,-28 z" /><path
           id="path88"
           style="fill:#bf9a57;fill-opacity:1;fill-rule:nonzero;stroke:none"
           d="m 236,12 -8,0 0,20 8,0 0,-20 z" /><g
           transform="translate(186,220)"
           id="g90"><path
             id="path92"
             style="fill:#808080;fill-opacity:1;fill-rule:nonzero;stroke:none"
             d="m 0,0 -116,0 c -1.104,0 -2,0.896 -2,2 0,1.104 0.896,2 2,2 L 0,4 C 1.104,4 2,3.104 2,2 2,0.896 1.104,0 0,0" /></g><g
           transform="translate(186,212)"
           id="g94"><path
             id="path96"
             style="fill:#808080;fill-opacity:1;fill-rule:nonzero;stroke:none"
             d="m 0,0 -116,0 c -1.104,0 -2,0.896 -2,2 0,1.104 0.896,2 2,2 L 0,4 C 1.104,4 2,3.104 2,2 2,0.896 1.104,0 0,0" /></g></g></g></g></svg>