<?xml version="1.0" encoding="UTF-8" standalone="no"?>
<svg
   xmlns:dc="http://purl.org/dc/elements/1.1/"
   xmlns:cc="http://creativecommons.org/ns#"
   xmlns:rdf="http://www.w3.org/1999/02/22-rdf-syntax-ns#"
   xmlns:svg="http://www.w3.org/2000/svg"
   xmlns="http://www.w3.org/2000/svg"
   viewBox="0 0 312.974 266.66665"
   height="266.66666"
   width="312.974"
   xml:space="preserve"
   id="svg2"
   version="1.1"><metadata
     id="metadata8"><rdf:RDF><cc:Work
         rdf:about=""><dc:format>image/svg+xml</dc:format><dc:type
           rdf:resource="http://purl.org/dc/dcmitype/StillImage" /></cc:Work></rdf:RDF></metadata><defs
     id="defs6"><clipPath
       id="clipPath18"
       clipPathUnits="userSpaceOnUse"><path
         id="path16"
         d="M 0,256 H 256 V 0 H 0 Z" /></clipPath><clipPath
       id="clipPath26"
       clipPathUnits="userSpaceOnUse"><path
         id="path24"
         d="M 10.6345,228 H 245.365 V 28 H 10.6345 Z" /></clipPath><clipPath
       id="clipPath46"
       clipPathUnits="userSpaceOnUse"><path
         id="path44"
         d="M 0,256 H 256 V 0 H 0 Z" /></clipPath></defs><g
     transform="matrix(1.3333333,0,0,-1.3333333,-14.179333,303.99999)"
     id="g10"><g
       id="g12"><g
         clip-path="url(#clipPath18)"
         id="g14"><g
           id="g20"><g
             id="g22" /><g
             id="g34"><g
               style="opacity:0.5"
               id="g32"
               clip-path="url(#clipPath26)"><g
                 id="g30"
                 transform="translate(184.4961,228)"><path
                   id="path28"
                   style="fill:#ffffff;fill-opacity:1;fill-rule:nonzero;stroke:none"
                   d="m 0,0 h -4.496 -104 -4.496 l -2.338,-3.84 -56,-92 -2.532,-4.16 2.532,-4.159 56,-92 2.338,-3.841 h 4.496 104 H 0 l 2.338,3.841 56,92 2.531,4.159 -2.531,4.16 -56,92 z" /></g></g></g></g></g></g><g
       transform="translate(180,220)"
       id="g36"><path
         id="path38"
         style="fill:#737373;fill-opacity:1;fill-rule:nonzero;stroke:none"
         d="m 0,0 h -104 l -56,-92 56,-92 H 0 l 56,92 z" /></g><g
       id="g40"><g
         clip-path="url(#clipPath46)"
         id="g42"><g
           transform="translate(140.5713,184)"
           id="g48"><path
             id="path50"
             style="fill:#e6e6e6;fill-opacity:1;fill-rule:nonzero;stroke:none"
             d="m 0,0 h -50.286 c -3.472,0 -6.285,-2.785 -6.285,-6.222 v -99.555 c 0,-3.439 2.813,-6.223 6.285,-6.223 h 75.429 c 3.473,0 6.286,2.784 6.286,6.223 v 74.666 z" /></g><g
           transform="translate(137.2041,175.7251)"
           id="g52"><path
             id="path54"
             style="fill:#595959;fill-opacity:1;fill-rule:nonzero;stroke:none"
             d="M 0,0 26.796,-26.326 V -95.725 H -45.027 V 0 Z" /></g><g
           transform="translate(92,176)"
           id="g56"><path
             id="path58"
             style="fill:#00b800;fill-opacity:1;fill-rule:nonzero;stroke:none"
             d="m 0,0 c 0,0 29.095,-12.633 36.052,-48.138 0,0 0.764,15.906 17.54,33.202 C 58.42,-9.957 44.688,0 44.688,0 Z" /></g><g
           transform="translate(129.6865,139.7246)"
           id="g60"><path
             id="path62"
             style="fill:#cccccc;fill-opacity:1;fill-rule:nonzero;stroke:none"
             d="m 0,0 c -0.271,0.025 -0.731,-0.544 -0.857,-0.916 -0.06,-0.176 0.418,-0.6 0.735,-0.781 0.263,-0.149 0.691,-0.024 0.968,-0.162 0.708,-0.353 1.372,-0.786 2.187,-1.266 0.32,0.924 0.528,1.528 0.76,2.201 C 3.437,-0.765 3.28,-0.662 3.108,-0.623 2.076,-0.39 1.048,-0.097 0,0" /></g><g
           transform="translate(135.0674,150.0693)"
           id="g64"><path
             id="path66"
             style="fill:#cccccc;fill-opacity:1;fill-rule:nonzero;stroke:none"
             d="M 0,0 C -0.335,0.119 -0.75,0.446 -0.965,0.351 -1.27,0.215 -1.57,-0.218 -1.588,-0.538 c -0.012,-0.212 0.46,-0.467 0.741,-0.67 0.236,-0.17 0.547,-0.254 0.759,-0.442 0.576,-0.514 1.117,-1.063 1.791,-1.712 0.543,0.852 0.89,1.396 1.318,2.068 C 2.344,-0.958 1.767,-0.646 1.167,-0.382 0.796,-0.218 0.385,-0.136 0,0" /></g><g
           transform="translate(133.0723,146.521)"
           id="g68"><path
             id="path70"
             style="fill:#cccccc;fill-opacity:1;fill-rule:nonzero;stroke:none"
             d="m 0,0 c -0.316,0.069 -0.815,0.267 -0.923,0.15 -0.27,-0.293 -0.446,-0.724 -0.485,-1.115 -0.013,-0.129 0.51,-0.314 0.796,-0.456 0.289,-0.145 0.611,-0.239 0.881,-0.409 0.635,-0.399 1.248,-0.831 1.985,-1.327 0.401,0.863 0.671,1.443 1.008,2.166 C 2.524,-0.735 1.904,-0.503 1.271,-0.306 0.857,-0.177 0.427,-0.093 0,0" /></g><g
           transform="translate(131.5557,143.0312)"
           id="g72"><path
             id="path74"
             style="fill:#cccccc;fill-opacity:1;fill-rule:nonzero;stroke:none"
             d="m 0,0 c -0.34,0.081 -0.835,0.268 -1.008,0.128 -0.257,-0.21 -0.432,-0.69 -0.369,-1.007 0.043,-0.214 0.548,-0.359 0.861,-0.505 0.261,-0.12 0.572,-0.155 0.812,-0.3 0.649,-0.392 1.272,-0.822 2.066,-1.341 0.341,0.894 0.579,1.52 0.914,2.398 C 2.374,-0.505 1.648,-0.425 0.931,-0.301 0.612,-0.245 0.317,-0.075 0,0" /></g><g
           transform="translate(111.104,163.812)"
           id="g76"><path
             id="path78"
             style="fill:#cccccc;fill-opacity:1;fill-rule:nonzero;stroke:none"
             d="M 0,0 C 0.194,0.259 0.407,0.803 0.288,0.917 -0.017,1.209 -0.668,1.596 -0.887,1.474 -1.75,0.992 -2.496,0.323 -3.296,-0.262 c -0.22,-0.16 -0.48,-0.271 -0.84,-0.469 0.702,-0.707 1.186,-1.195 1.883,-1.898 0.524,0.741 0.925,1.369 1.396,1.947 C -0.634,-0.409 -0.209,-0.279 0,0" /></g><g
           transform="translate(97.3726,174.2817)"
           id="g80"><path
             id="path82"
             style="fill:#cccccc;fill-opacity:1;fill-rule:nonzero;stroke:none"
             d="m 0,0 c -0.211,-0.242 -0.37,-0.527 -0.595,-0.757 -0.497,-0.509 -1.022,-0.994 -1.644,-1.595 0.789,-0.486 1.355,-0.836 2.234,-1.377 0.305,0.84 0.541,1.558 0.829,2.256 0.105,0.255 0.36,0.451 0.497,0.698 0.163,0.294 0.467,0.711 0.361,0.9 C 1.521,0.414 1.065,0.699 0.727,0.706 0.49,0.711 0.229,0.263 0,0" /></g><g
           transform="translate(108.0537,166.522)"
           id="g84"><path
             id="path86"
             style="fill:#cccccc;fill-opacity:1;fill-rule:nonzero;stroke:none"
             d="M 0,0 C 0.209,0.233 0.575,0.615 0.501,0.748 0.309,1.094 -0.048,1.411 -0.42,1.588 -0.546,1.647 -0.903,1.239 -1.172,1.068 -1.58,0.81 -2.016,0.589 -2.417,0.321 c -0.484,-0.325 -0.944,-0.684 -1.521,-1.106 0.806,-0.718 1.297,-1.157 1.999,-1.784 0.424,0.673 0.795,1.31 1.222,1.913 C -0.536,-0.401 -0.215,-0.239 0,0" /></g><g
           transform="translate(125.0039,140.3853)"
           id="g88"><path
             id="path90"
             style="fill:#cccccc;fill-opacity:1;fill-rule:nonzero;stroke:none"
             d="M 0,0 C 0.317,0.18 0.795,0.604 0.735,0.781 0.609,1.152 0.148,1.722 -0.122,1.697 -1.169,1.6 -2.197,1.307 -3.229,1.074 -3.402,1.035 -3.558,0.932 -3.915,0.773 c 0.233,-0.673 0.441,-1.278 0.76,-2.202 0.816,0.481 1.48,0.913 2.187,1.267 C -0.691,-0.024 -0.262,-0.149 0,0" /></g><g
           transform="translate(118.2759,154.3271)"
           id="g92"><path
             id="path94"
             style="fill:#cccccc;fill-opacity:1;fill-rule:nonzero;stroke:none"
             d="M 0,0 C 0.282,0.203 0.753,0.458 0.741,0.67 0.724,0.99 0.423,1.423 0.119,1.559 -0.096,1.654 -0.512,1.327 -0.846,1.208 -1.231,1.072 -1.642,0.99 -2.013,0.827 -2.613,0.562 -3.19,0.25 -3.867,-0.086 c 0.429,-0.672 0.775,-1.215 1.318,-2.068 0.674,0.65 1.215,1.198 1.791,1.712 C -0.546,-0.254 -0.235,-0.169 0,0" /></g><g
           transform="translate(116.085,157.5342)"
           id="g96"><path
             id="path98"
             style="fill:#cccccc;fill-opacity:1;fill-rule:nonzero;stroke:none"
             d="M 0,0 C 0.276,0.212 0.789,0.521 0.745,0.662 0.63,1.03 0.317,1.393 -0.021,1.62 -0.137,1.698 -0.554,1.359 -0.842,1.229 -1.209,1.063 -1.598,0.937 -1.956,0.756 -2.542,0.458 -3.111,0.131 -3.841,-0.268 c 0.547,-0.73 0.937,-1.251 1.508,-2.012 0.61,0.683 1.092,1.251 1.611,1.786 C -0.525,-0.291 -0.23,-0.177 0,0" /></g><g
           transform="translate(113.4497,160.6489)"
           id="g100"><path
             id="path102"
             style="fill:#cccccc;fill-opacity:1;fill-rule:nonzero;stroke:none"
             d="M 0,0 C 0.286,0.258 0.854,0.579 0.807,0.749 0.709,1.103 0.334,1.475 -0.028,1.634 -0.19,1.705 -0.581,1.256 -0.893,1.084 -1.202,0.913 -1.561,0.819 -1.866,0.643 -2.435,0.315 -2.981,-0.048 -3.671,-0.48 c 0.539,-0.641 0.979,-1.163 1.619,-1.923 0.572,0.716 1.031,1.305 1.508,1.881 C -0.386,-0.331 -0.187,-0.169 0,0" /></g><g
           transform="translate(122.1089,147.457)"
           id="g104"><path
             id="path106"
             style="fill:#cccccc;fill-opacity:1;fill-rule:nonzero;stroke:none"
             d="M 0,0 C 0.287,0.143 0.808,0.328 0.795,0.456 0.757,0.847 0.581,1.278 0.31,1.571 0.203,1.687 -0.295,1.491 -0.612,1.421 -1.039,1.329 -1.469,1.244 -1.884,1.115 -2.517,0.918 -3.137,0.686 -3.874,0.431 c 0.337,-0.724 0.606,-1.304 1.008,-2.167 0.737,0.497 1.349,0.928 1.985,1.328 C -0.611,-0.238 -0.29,-0.145 0,0" /></g><g
           transform="translate(120.5566,150.5654)"
           id="g108"><path
             id="path110"
             style="fill:#cccccc;fill-opacity:1;fill-rule:nonzero;stroke:none"
             d="M 0,0 C 0.287,0.143 0.808,0.328 0.795,0.456 0.757,0.848 0.581,1.279 0.31,1.571 0.203,1.688 -0.295,1.491 -0.612,1.422 -1.039,1.329 -1.469,1.244 -1.884,1.115 -2.517,0.918 -3.137,0.687 -3.874,0.431 c 0.337,-0.724 0.606,-1.304 1.008,-2.166 0.737,0.496 1.349,0.927 1.985,1.327 C -0.611,-0.238 -0.29,-0.145 0,0" /></g><g
           transform="translate(123.5283,144.0044)"
           id="g112"><path
             id="path114"
             style="fill:#cccccc;fill-opacity:1;fill-rule:nonzero;stroke:none"
             d="M 0,0 C 0.314,0.146 0.819,0.292 0.862,0.505 0.925,0.821 0.75,1.303 0.493,1.512 0.32,1.652 -0.175,1.465 -0.516,1.384 -0.833,1.309 -1.127,1.139 -1.446,1.083 -2.163,0.959 -2.89,0.879 -3.792,0.757 c 0.335,-0.879 0.574,-1.504 0.914,-2.399 0.795,0.52 1.418,0.95 2.067,1.342 0.24,0.145 0.551,0.179 0.811,0.3" /></g><g
           transform="translate(104.9082,169.1245)"
           id="g116"><path
             id="path118"
             style="fill:#cccccc;fill-opacity:1;fill-rule:nonzero;stroke:none"
             d="M 0,0 C 0.2,0.279 0.579,0.642 0.506,0.849 0.397,1.156 -0.014,1.499 -0.349,1.557 -0.585,1.597 -0.91,1.194 -1.191,0.984 -1.508,0.748 -1.823,0.51 -2.132,0.266 -2.644,-0.14 -3.149,-0.551 -3.791,-1.067 c 0.747,-0.606 1.253,-1.017 2.012,-1.633 0.434,0.721 0.795,1.346 1.185,1.955 C -0.424,-0.48 -0.184,-0.257 0,0" /></g><g
           transform="translate(101.8413,171.3921)"
           id="g120"><path
             id="path122"
             style="fill:#cccccc;fill-opacity:1;fill-rule:nonzero;stroke:none"
             d="M 0,0 C 0.179,0.283 0.507,0.679 0.414,0.873 0.272,1.17 -0.159,1.474 -0.498,1.508 -0.72,1.53 -1.002,1.089 -1.245,0.844 -1.474,0.615 -1.67,0.354 -1.911,0.136 -2.443,-0.347 -2.994,-0.812 -3.649,-1.38 c 0.776,-0.534 1.35,-0.928 2.188,-1.502 0.356,0.856 0.617,1.541 0.929,2.204 C -0.414,-0.427 -0.152,-0.241 0,0" /></g><g
           transform="translate(122.2197,137.9238)"
           id="g124"><path
             id="path126"
             style="fill:#cccccc;fill-opacity:1;fill-rule:nonzero;stroke:none"
             d="m 0,0 c 0.091,-0.646 0.7,-1.704 0.576,-1.906 0.066,-0.098 0.132,-0.196 0.197,-0.294 0.608,0.271 1.208,0.556 1.825,0.807 0.305,0.123 0.646,0.164 0.956,0.278 0.332,0.121 0.853,0.225 0.92,0.44 C 4.568,-0.368 4.432,0.137 4.19,0.359 4.023,0.512 0.663,0.135 0,0" /></g><g
           transform="translate(126.7598,120.708)"
           id="g128"><path
             id="path130"
             style="fill:#ffffff;fill-opacity:1;fill-rule:nonzero;stroke:none"
             d="m 0,0 -7.366,12.616 c -0.551,0.944 0.138,2.124 1.241,2.124 h 14.73 c 1.103,0 1.792,-1.18 1.241,-2.124 L 2.48,0 C 1.929,-0.944 0.551,-0.944 0,0" /></g><g
           transform="translate(124.2754,128.6831)"
           id="g132"><path
             id="path134"
             style="fill:#808080;fill-opacity:1;fill-rule:nonzero;stroke:none"
             d="M 0,0 H 2.327 V -0.683 H -1.164 V 0 L 1.198,2.49 H -1.164 V 3.179 H 2.327 V 2.49 Z" /></g><path
           id="path136"
           style="fill:#808080;fill-opacity:1;fill-rule:nonzero;stroke:none"
           d="m 127.444,131.862 h 0.911 V 128 h -0.911 z" /><g
           transform="translate(131.0908,131.1733)"
           id="g138"><path
             id="path140"
             style="fill:#808080;fill-opacity:1;fill-rule:nonzero;stroke:none"
             d="m 0,0 h -1.008 v -1.14 h 1.06 c 0.211,0 0.393,0.038 0.548,0.116 0.153,0.077 0.23,0.226 0.23,0.448 0.008,0.248 -0.074,0.405 -0.245,0.471 -0.171,0.066 -0.365,0.1 -0.585,0.1 z M 0.012,0.689 C 0.016,0.685 0.021,0.683 0.026,0.683 H 0.041 0.26 C 0.332,0.683 0.405,0.679 0.479,0.672 0.609,0.665 0.738,0.648 0.867,0.621 0.996,0.594 1.116,0.55 1.228,0.49 1.431,0.378 1.576,0.226 1.662,0.032 1.749,-0.161 1.794,-0.364 1.798,-0.576 1.802,-0.77 1.767,-0.956 1.691,-1.134 1.616,-1.314 1.492,-1.462 1.319,-1.582 1.174,-1.678 1.015,-1.742 0.845,-1.772 0.673,-1.803 0.5,-1.821 0.323,-1.829 H 0.185 0.047 l -1.055,0.006 v -1.35 h -0.87 v 3.862 z" /></g><g
           transform="translate(155.2129,148)"
           id="g142"><path
             id="path144"
             style="fill:#ffffff;fill-opacity:1;fill-rule:nonzero;stroke:none"
             d="m 0,0 h -12.813 c -3.536,0 -6.4,2.864 -6.4,6.4 V 19.2 32 l 32,-32 z" /></g><path
           id="path146"
           style="fill:#cccccc;fill-opacity:1;fill-rule:nonzero;stroke:none"
           d="m 128,118 h -4 v 2 h 4 z" /><path
           id="path148"
           style="fill:#cccccc;fill-opacity:1;fill-rule:nonzero;stroke:none"
           d="m 132,116 h -4 v 2 h 4 z" /><path
           id="path150"
           style="fill:#cccccc;fill-opacity:1;fill-rule:nonzero;stroke:none"
           d="m 128,114 h -4 v 2 h 4 z" /><path
           id="path152"
           style="fill:#cccccc;fill-opacity:1;fill-rule:nonzero;stroke:none"
           d="m 132,112 h -4 v 2 h 4 z" /><path
           id="path154"
           style="fill:#cccccc;fill-opacity:1;fill-rule:nonzero;stroke:none"
           d="m 128,110 h -4 v 2 h 4 z" /><path
           id="path156"
           style="fill:#cccccc;fill-opacity:1;fill-rule:nonzero;stroke:none"
           d="m 132,108 h -4 v 2 h 4 z" /><path
           id="path158"
           style="fill:#cccccc;fill-opacity:1;fill-rule:nonzero;stroke:none"
           d="m 128,106 h -4 v 2 h 4 z" /><path
           id="path160"
           style="fill:#cccccc;fill-opacity:1;fill-rule:nonzero;stroke:none"
           d="m 132,104 h -4 v 2 h 4 z" /><path
           id="path162"
           style="fill:#cccccc;fill-opacity:1;fill-rule:nonzero;stroke:none"
           d="m 128,102 h -4 v 2 h 4 z" /><path
           id="path164"
           style="fill:#cccccc;fill-opacity:1;fill-rule:nonzero;stroke:none"
           d="m 132,100 h -4 v 2 h 4 z" /><path
           id="path166"
           style="fill:#cccccc;fill-opacity:1;fill-rule:nonzero;stroke:none"
           d="m 128,98 h -4 v 2 h 4 z" /><path
           id="path168"
           style="fill:#cccccc;fill-opacity:1;fill-rule:nonzero;stroke:none"
           d="m 132,96 h -4 v 2 h 4 z" /><path
           id="path170"
           style="fill:#cccccc;fill-opacity:1;fill-rule:nonzero;stroke:none"
           d="m 128,94 h -4 v 2 h 4 z" /><path
           id="path172"
           style="fill:#cccccc;fill-opacity:1;fill-rule:nonzero;stroke:none"
           d="m 132,92 h -4 v 2 h 4 z" /><path
           id="path174"
           style="fill:#cccccc;fill-opacity:1;fill-rule:nonzero;stroke:none"
           d="m 128,90 h -4 v 2 h 4 z" /><path
           id="path176"
           style="fill:#cccccc;fill-opacity:1;fill-rule:nonzero;stroke:none"
           d="m 132,88 h -4 v 2 h 4 z" /><path
           id="path178"
           style="fill:#cccccc;fill-opacity:1;fill-rule:nonzero;stroke:none"
           d="m 128,86 h -4 v 2 h 4 z" /><path
           id="path180"
           style="fill:#cccccc;fill-opacity:1;fill-rule:nonzero;stroke:none"
           d="m 132,84 h -4 v 2 h 4 z" /><path
           id="path182"
           style="fill:#cccccc;fill-opacity:1;fill-rule:nonzero;stroke:none"
           d="m 128,82 h -4 v 2 h 4 z" /><path
           id="path184"
           style="fill:#cccccc;fill-opacity:1;fill-rule:nonzero;stroke:none"
           d="m 132,80 h -4 v 2 h 4 z" /></g></g></g></svg>