<?xml version="1.0" encoding="utf-8"?>
<!-- Generator: Adobe Illustrator 16.0.0, SVG Export Plug-In . SVG Version: 6.00 Build 0)  -->
<!DOCTYPE svg PUBLIC "-//W3C//DTD SVG 1.1 Tiny//EN" "http://www.w3.org/Graphics/SVG/1.1/DTD/svg11-tiny.dtd">
<svg version="1.1" baseProfile="tiny" id="Calque_1"
	 xmlns="http://www.w3.org/2000/svg" xmlns:xlink="http://www.w3.org/1999/xlink" x="0px" y="0px" width="64px" height="64px"
	 viewBox="0 0 64 64" xml:space="preserve">
<g id="Master_System_1_">
	<path fill="#F2F2F2" d="M30,43v1h30c0.515,0,1-0.483,1-1v-1H31C30,42,30,42,30,43z"/>
	<path fill="#F2F2F2" d="M3,21v22c0,0.517,0.484,1,1,1h2V20H4C3.484,20,3,20.484,3,21z"/>
	<path fill="#F2F2F2" d="M60,20H30v6c0,1,0,1,1,1h30v-6C61,20.484,60.515,20,60,20z"/>
	<path fill="#F2F2F2" d="M29,27v-7H7v24h22v-2c0-0.794,0.208-1,1-1h31V28H30C29.208,28,29,27.794,29,27z M18.5,41
		c-4.695,0-8.5-3.805-8.5-8.5s3.805-8.5,8.5-8.5s8.5,3.805,8.5,8.5S23.195,41,18.5,41z M49,29h8v1h-8V29z M49,31h8v8h-8V31z M40,29
		h8v1h-8V29z M40,31h8v8h-8V31z"/>
	<circle fill="#F2F2F2" cx="44" cy="35" r="3"/>
	<circle fill="#F2F2F2" cx="53" cy="35" r="3"/>
	<circle fill="#F2F2F2" cx="18.5" cy="32.5" r="2.5"/>
	<rect x="18" y="26" fill="#F2F2F2" width="1" height="3"/>
	<rect x="18" y="36" fill="#F2F2F2" width="1" height="3"/>
	<rect x="22" y="32" fill="#F2F2F2" width="3" height="1"/>
	<rect x="12" y="32" fill="#F2F2F2" width="3" height="1"/>
	<polygon fill="#F2F2F2" points="16,29 14,28 15,30 	"/>
	<polygon fill="#F2F2F2" points="23,28 21,29 22,30 	"/>
	<polygon fill="#F2F2F2" points="21,36 23,37 22,35 	"/>
	<polygon fill="#F2F2F2" points="14,37 16,36 15,35 	"/>
</g>
</svg>
