<?xml version="1.0" encoding="utf-8"?>
<!-- Generator: Adobe Illustrator 16.0.0, SVG Export Plug-In . SVG Version: 6.00 Build 0)  -->
<!DOCTYPE svg PUBLIC "-//W3C//DTD SVG 1.1 Tiny//EN" "http://www.w3.org/Graphics/SVG/1.1/DTD/svg11-tiny.dtd">
<svg version="1.1" baseProfile="tiny" id="Calque_1"
	 xmlns="http://www.w3.org/2000/svg" xmlns:xlink="http://www.w3.org/1999/xlink" x="0px" y="0px" width="64px" height="64px"
	 viewBox="0 0 64 64" xml:space="preserve">
<path id="NES_1_" fill="#F2F2F2" d="M32,48l-3-5h6L32,48z M47,38c0,1-1,2-2,2H30c-1,0-2-1-2-2V12c0-1,1-2,2-2h15c1,0,2,1,2,2V38z
	 M45,37c0,0.553-0.447,1-1,1H31c-0.553,0-1-0.447-1-1V13c0-0.553,0.447-1,1-1h13c0.553,0,1,0.447,1,1V37z M52,8h-1v1h-2V8H15v1h-2V8
	h-1c-0.553,0-1,0.447-1,1v37c0,0.553,0.447,1,1,1h2v8c0,0.553,0.447,1,1,1h34c0.553,0,1-0.447,1-1v-8h2c0.553,0,1-0.447,1-1V9
	C53,8.447,52.553,8,52,8z"/>
</svg>
