<?xml version="1.0" encoding="utf-8"?>
<!-- Generator: Adobe Illustrator 16.0.0, SVG Export Plug-In . SVG Version: 6.00 Build 0)  -->
<!DOCTYPE svg PUBLIC "-//W3C//DTD SVG 1.1 Tiny//EN" "http://www.w3.org/Graphics/SVG/1.1/DTD/svg11-tiny.dtd">
<svg version="1.1" baseProfile="tiny" id="Calque_1"
	 xmlns="http://www.w3.org/2000/svg" xmlns:xlink="http://www.w3.org/1999/xlink" x="0px" y="0px" width="64px" height="64px"
	 viewBox="0 0 64 64" xml:space="preserve">
<g id="PC_Engine_1_">
	<path fill="#F2F2F2" d="M30,38h-3c-0.649,0-1,0.414-1,1c0,0.584,0.351,1,1,1h3c0.65,0,1-0.416,1-1C31,38.414,30.65,38,30,38z"/>
	<path fill="#F2F2F2" d="M37,38h-3c-0.649,0-1,0.414-1,1c0,0.584,0.351,1,1,1h3c0.65,0,1-0.416,1-1C38,38.414,37.65,38,37,38z"/>
	<path fill="#F2F2F2" d="M54,36h-7c-1.656,0-3,1.344-3,3s1.344,3,3,3h7c1.656,0,3-1.344,3-3S55.656,36,54,36z M47,41
		c-1.104,0-2-0.896-2-2s0.896-2,2-2s2,0.896,2,2S48.104,41,47,41z M54,41c-1.104,0-2-0.896-2-2s0.896-2,2-2s2,0.896,2,2
		S55.104,41,54,41z"/>
	<path fill="#F2F2F2" d="M59.283,22.592L40,20c0-0.521-0.478-1-1-1H25c-0.521,0-1,0.479-1,1L4.715,22.592
		C3.785,22.731,3,24.059,3,25v18c0,1.044,0.958,2,2,2h54c1.043,0,2-0.958,2-2V25C61,24.059,60.215,22.731,59.283,22.592z M13,41h-1
		c-0.553,0-1-0.447-1-1v-2H9c-0.553,0-1-0.447-1-1v-1c0-0.553,0.447-1,1-1h2v-2c0-0.553,0.447-1,1-1h1c0.553,0,1,0.447,1,1v2h2
		c0.553,0,1,0.447,1,1v1c0,0.553-0.447,1-1,1h-2v2C14,40.553,13.553,41,13,41z M54,43H16c-1.417,0-1.179-0.821-1-1c1-1,3-2,3-5
		s-2-6-6-6c-1,0-2.222,0.406-3,1c-1.124,0.857-1.007-0.899-1-1c-0.012,0.012,0-5,0-5c0-1.042,0.956-2,2-2h10c1.043,0,2,0.958,2,2
		c0,5.716,4.284,10,10,10s10-4.284,10-10c0-1.042,0.958-2,2-2h10c1.042,0,2,0.958,2,2v9c0.865,0.774,2,2,2,4
		C58,41.346,56.346,43,54,43z"/>
</g>
</svg>
