<?xml version="1.0" encoding="utf-8"?>
<!-- Generator: Adobe Illustrator 16.0.0, SVG Export Plug-In . SVG Version: 6.00 Build 0)  -->
<!DOCTYPE svg PUBLIC "-//W3C//DTD SVG 1.1//EN" "http://www.w3.org/Graphics/SVG/1.1/DTD/svg11.dtd">
<svg version="1.1"
	 id="svg2" inkscape:export-filename="/home/kivutar/Bureau/lakka-menu/reload.png" inkscape:export-xdpi="90" inkscape:version="0.48.4 r9939" inkscape:export-ydpi="90" sodipodi:docname="reload.svg" xmlns:svg="http://www.w3.org/2000/svg" xmlns:cc="http://creativecommons.org/ns#" xmlns:sodipodi="http://sodipodi.sourceforge.net/DTD/sodipodi-0.dtd" xmlns:rdf="http://www.w3.org/1999/02/22-rdf-syntax-ns#" xmlns:dc="http://purl.org/dc/elements/1.1/" xmlns:inkscape="http://www.inkscape.org/namespaces/inkscape"
	 xmlns="http://www.w3.org/2000/svg" xmlns:xlink="http://www.w3.org/1999/xlink" x="0px" y="0px" width="64px" height="64px"
	 viewBox="0 128 64 64" enable-background="new 0 128 64 64" xml:space="preserve">
<g>
	<path fill="#F2F2F2" d="M27.758,164.242C26.672,163.156,26,161.656,26,160c0-3.314,2.688-6,6-6v2l6-3l-6-3v2c-4.416,0-8,3.58-8,8
		c0,2.209,0.896,4.209,2.344,5.656L27.758,164.242z"/>
	<path fill="#F2F2F2" d="M37.656,154.344l-1.414,1.414C37.328,156.844,38,158.344,38,160c0,3.314-2.688,6-6,6v-2l-6,3l6,3v-2
		c4.416,0,8-3.58,8-8C40,157.791,39.104,155.791,37.656,154.344z"/>
</g>
</svg>
