<?xml version="1.0" encoding="utf-8"?>
<!-- Generator: Adobe Illustrator 16.0.0, SVG Export Plug-In . SVG Version: 6.00 Build 0)  -->
<!DOCTYPE svg PUBLIC "-//W3C//DTD SVG 1.1 Tiny//EN" "http://www.w3.org/Graphics/SVG/1.1/DTD/svg11-tiny.dtd">
<svg version="1.1" baseProfile="tiny" id="Calque_1"
	 xmlns="http://www.w3.org/2000/svg" xmlns:xlink="http://www.w3.org/1999/xlink" x="0px" y="0px" width="64px" height="64px"
	 viewBox="0 0 64 64" xml:space="preserve">
<path id="Super_NES" fill="#F2F2F2" d="M56.849,21.406l0.051-0.16c0.168-0.527-0.122-1.088-0.648-1.256c0,0-5.381-2.706-5.682-2.807
	S49.39,17,49,17s-6,0-6,0c-0.553,0-1,0.447-1,1H22c0-0.553-0.447-1-1-1c0,0-5.61,0-6,0s-1.269,0.083-1.569,0.184
	S7.749,19.99,7.749,19.99c-0.526,0.168-0.816,0.729-0.648,1.256l0.051,0.16C3.439,23.924,1,28.177,1,33c0,7.732,6.268,14,14,14
	c3.265,0,6.262-1.127,8.643-3h16.715c2.381,1.873,5.378,3,8.643,3c7.732,0,14-6.268,14-14C63,28.177,60.561,23.924,56.849,21.406z
	 M18,34c0,0.553-0.447,1-1,1h-2v2c0,0.553-0.447,1-1,1h-2c-0.553,0-1-0.447-1-1v-2H9c-0.553,0-1-0.447-1-1v-2c0-0.553,0.447-1,1-1h2
	v-2c0-0.553,0.447-1,1-1h2c0.553,0,1,0.447,1,1v2h2c0.553,0,1,0.447,1,1V34z M31.054,34.836l-3.002,2
	c-0.171,0.114-0.364,0.166-0.554,0.166c-0.324,0-0.641-0.155-0.834-0.443c-0.308-0.463-0.183-1.082,0.275-1.388l3.004-2.002
	c0.461-0.307,1.081-0.183,1.387,0.276C31.637,33.906,31.512,34.528,31.054,34.836z M37.059,34.836l-3.003,2
	c-0.169,0.114-0.364,0.166-0.555,0.166c-0.324,0-0.639-0.155-0.833-0.443c-0.309-0.463-0.183-1.082,0.278-1.388l3.001-2.002
	c0.46-0.307,1.082-0.183,1.39,0.276C37.643,33.906,37.519,34.528,37.059,34.836z M43.5,35c-1.381,0-2.5-1.119-2.5-2.5
	s1.119-2.5,2.5-2.5s2.5,1.119,2.5,2.5S44.881,35,43.5,35z M49.5,40c-1.381,0-2.5-1.119-2.5-2.5s1.119-2.5,2.5-2.5s2.5,1.119,2.5,2.5
	S50.881,40,49.5,40z M49.5,30c-1.381,0-2.5-1.119-2.5-2.5s1.119-2.5,2.5-2.5s2.5,1.119,2.5,2.5S50.881,30,49.5,30z M55.5,35
	c-1.381,0-2.5-1.119-2.5-2.5s1.119-2.5,2.5-2.5s2.5,1.119,2.5,2.5S56.881,35,55.5,35z"/>
</svg>
