<?xml version="1.0" encoding="UTF-8" standalone="no"?>
<!-- Created with Inkscape (http://www.inkscape.org/) -->

<svg
   xmlns:dc="http://purl.org/dc/elements/1.1/"
   xmlns:cc="http://creativecommons.org/ns#"
   xmlns:rdf="http://www.w3.org/1999/02/22-rdf-syntax-ns#"
   xmlns:svg="http://www.w3.org/2000/svg"
   xmlns="http://www.w3.org/2000/svg"
   xmlns:sodipodi="http://sodipodi.sourceforge.net/DTD/sodipodi-0.dtd"
   xmlns:inkscape="http://www.inkscape.org/namespaces/inkscape"
   id="svg4806"
   version="1.1"
   inkscape:version="0.48.5 r10040"
   width="1341.9"
   height="190.4875"
   xml:space="preserve"
   sodipodi:docname="retroarch_logo_color.pdf"><metadata
     id="metadata4812"><rdf:RDF><cc:Work
         rdf:about=""><dc:format>image/svg+xml</dc:format><dc:type
           rdf:resource="http://purl.org/dc/dcmitype/StillImage" /><dc:title></dc:title></cc:Work></rdf:RDF></metadata><defs
     id="defs4810"><clipPath
       clipPathUnits="userSpaceOnUse"
       id="clipPath4820"><path
         d="m 0,152.39 1073.52,0 L 1073.52,0 0,0 0,152.39 z"
         id="path4822" /></clipPath></defs><sodipodi:namedview
     pagecolor="#ffffff"
     bordercolor="#666666"
     borderopacity="1"
     objecttolerance="10"
     gridtolerance="10"
     guidetolerance="10"
     inkscape:pageopacity="0"
     inkscape:pageshadow="2"
     inkscape:window-width="640"
     inkscape:window-height="480"
     id="namedview4808"
     showgrid="false"
     inkscape:zoom="0.3599374"
     inkscape:cx="670.95001"
     inkscape:cy="95.243752"
     inkscape:window-x="0"
     inkscape:window-y="0"
     inkscape:window-maximized="0"
     inkscape:current-layer="g4814" /><g
     id="g4814"
     inkscape:groupmode="layer"
     inkscape:label="retroarch_logo_color"
     transform="matrix(1.25,0,0,-1.25,0,190.4875)"><g
       id="g4816"><g
         id="g4818"
         clip-path="url(#clipPath4820)"><g
           id="g4824"
           transform="translate(991.5544,87.4849)"><path
             d="m 0,0 c 0,-4.64 -3.761,-8.401 -8.401,-8.401 l -9.749,0 c -4.64,0 -8.401,3.761 -8.401,8.401 l 0,9.749 c 0,4.64 3.761,8.401 8.401,8.401 l 9.749,0 C -3.761,18.15 0,14.389 0,9.749 L 0,0 z m -92.93,0 c 0,-4.64 -3.761,-8.401 -8.4,-8.401 l -9.75,0 c -4.639,0 -8.401,3.761 -8.401,8.401 l 0,9.749 c 0,4.64 3.762,8.401 8.401,8.401 l 9.75,0 c 4.639,0 8.4,-3.761 8.4,-8.401 l 0,-9.749 z m 174.896,-13.894 -15.588,51.958 -19.913,0 9.749,-31.53 -24.892,0 -11.409,31.53 -39.826,0 L 0,64.615 l -14.313,0 c -3.525,0 -6.845,-1.66 -8.961,-4.48 l -16.553,-22.071 -39.827,0 -16.553,22.071 c -2.115,2.82 -5.435,4.48 -8.961,4.48 l -14.313,0 19.914,-26.551 -39.827,0 -11.409,-31.53 -24.892,0 9.75,31.53 -19.914,0 -15.587,-51.958 c -2.156,-7.187 3.225,-14.42 10.729,-14.42 l 31.409,0 -6.637,-26.552 39.826,0 -26.551,-33.189 33.189,0 26.551,33.189 66.379,0 26.966,-33.189 32.774,0 -26.551,33.189 39.827,0 -6.638,26.552 31.41,0 c 7.503,0 12.885,7.233 10.729,14.42"
             style="fill:#3b96cc;fill-opacity:1;fill-rule:nonzero;stroke:none"
             id="path4826" /></g><g
           id="g4828"
           transform="translate(690.62,130.25)"><path
             d="m 0,0 c -0.019,2.221 0.449,4.419 1.37,6.44 0.882,1.949 2.116,3.719 3.64,5.22 1.538,1.506 3.337,2.719 5.31,3.58 4.17,1.789 8.891,1.789 13.06,0 1.973,-0.861 3.772,-2.074 5.31,-3.58 1.528,-1.501 2.765,-3.27 3.65,-5.22 0.917,-2.012 1.385,-4.199 1.37,-6.41 l 0,-12.11 -11.24,0 0,11 c -0.027,3.176 -2.624,5.727 -5.8,5.7 l 0,0 C 13.693,4.648 11.258,2.257 11.23,-0.72 l 0,0 0,-73.4 c 0.028,-3.176 2.624,-5.727 5.8,-5.7 l 0,0 c 2.977,-0.028 5.412,2.363 5.44,5.34 l 0,0 0,11.38 11.23,0 0,-12.08 c 0.016,-2.214 -0.451,-4.405 -1.37,-6.42 -0.882,-1.949 -2.116,-3.719 -3.64,-5.22 -1.539,-1.505 -3.338,-2.718 -5.31,-3.58 -4.169,-1.791 -8.891,-1.791 -13.06,0 -1.973,0.861 -3.772,2.074 -5.31,3.58 -1.524,1.501 -2.758,3.271 -3.64,5.22 -0.919,2.015 -1.386,4.206 -1.37,6.42 L 0,0 z"
             style="fill:#3b96cc;fill-opacity:1;fill-rule:nonzero;stroke:none"
             id="path4830" /></g><g
           id="g4832"
           transform="translate(633.64,98.2)"><path
             d="m 0,0 -11.19,0 0,31 c 0.027,3.176 2.624,5.727 5.8,5.7 l 0,0 c 2.977,0.028 5.412,-2.363 5.44,-5.34 l 0,0 0,-31.38 L 0,0 z m 9.87,38.49 c -0.882,1.949 -2.116,3.719 -3.64,5.22 -1.538,1.506 -3.337,2.719 -5.31,3.58 -4.17,1.789 -8.891,1.789 -13.06,0 -1.973,-0.861 -3.772,-2.074 -5.31,-3.58 -1.513,-1.504 -2.737,-3.273 -3.61,-5.22 -0.917,-2.012 -1.385,-4.199 -1.37,-6.41 l 0,-32.2 -10.61,0 c 0.07,-2.886 1.252,-5.634 3.3,-7.67 1.889,-2.037 4.541,-3.197 7.32,-3.2 l 0,-47.81 11.23,0 0,47.74 11.24,0 0,-47.74 11.23,0 0,90.85 c 0.006,2.224 -0.475,4.422 -1.41,6.44"
             style="fill:#3b96cc;fill-opacity:1;fill-rule:nonzero;stroke:none"
             id="path4834" /></g><g
           id="g4836"
           transform="translate(741.21,145.92)"><path
             d="m 0,0 0,-47.74 11.24,0 0,47.74 11.23,0 0,-47.84 10.46,0 c -0.07,-2.886 -1.252,-5.634 -3.3,-7.67 -1.853,-1.993 -4.439,-3.145 -7.16,-3.19 l 0,-47.83 -11.24,0 0,47.75 -11.23,0 0,-47.74 -11.24,0 L -11.24,0 0,0 z"
             style="fill:#3b96cc;fill-opacity:1;fill-rule:nonzero;stroke:none"
             id="path4838" /></g><g
           id="g4840"
           transform="translate(663.51,134.88)"><path
             d="m 0,0 5.44,0 c 3.176,0.028 5.772,-2.524 5.8,-5.7 l 0,0 0,-25.3 c -0.027,-3.176 -2.624,-5.727 -5.8,-5.7 l 0,0 L 0,-36.7 0,0 z m 9.38,-47.74 1.86,0 c 2.992,-0.063 5.881,1.096 8,3.21 2.132,2.04 3.314,4.879 3.26,7.83 l 0,36.7 c 0.041,2.948 -1.152,5.779 -3.29,7.81 -2.119,2.114 -5.008,3.273 -8,3.21 l -22.44,0 0,-106.5 11.23,0 0,42.86 14,-35.57 c 1.772,-4.416 6.062,-7.302 10.82,-7.28 l 3.35,0 -18.79,47.73 z"
             style="fill:#3b96cc;fill-opacity:1;fill-rule:nonzero;stroke:none"
             id="path4842" /></g><g
           id="g4844"
           transform="translate(0.42,152.1)"><path
             d="m 0,0 94.09,0 c 2.94,0 5.39,-1.967 7.35,-5.9 l 15.43,-32.44 0.73,-2.95 -0.73,-2.95 -22.78,-26.54 23.51,-41.29 -35.3,0 -30.7,50.9 c -0.967,1.603 -0.45,3.687 1.153,4.653 0.528,0.318 1.131,0.486 1.747,0.487 l 11.59,0 c 1.608,-0.122 3.197,0.407 4.41,1.47 l 11.8,13.27 -5.87,14.75 c -0.724,1.797 -2.473,2.967 -4.41,2.95 l -36.75,0 0,-88.47 -35.27,0 L 0,0 z"
             style="fill:#000000;fill-opacity:1;fill-rule:nonzero;stroke:none"
             id="path4846" /></g><g
           id="g4848"
           transform="translate(359.65,152.1)"><path
             d="m 0,0 94.06,0 c 2.94,0 5.39,-1.967 7.35,-5.9 l 15.45,-32.44 0.73,-2.95 -0.73,-2.95 -22.8,-26.54 23.51,-41.29 -35.27,0 -30.7,50.89 c -0.967,1.603 -0.45,3.687 1.153,4.653 0.528,0.318 1.131,0.486 1.747,0.487 l 11.63,0 c 1.608,-0.123 3.197,0.407 4.41,1.47 l 11.76,13.27 -5.88,14.75 c -0.724,1.797 -2.473,2.967 -4.41,2.95 l -36.74,0 0,-88.47 -35.27,0 L 0,0 z"
             style="fill:#000000;fill-opacity:1;fill-rule:nonzero;stroke:none"
             id="path4850" /></g><g
           id="g4852"
           transform="translate(538.34,62.49)"><path
             d="m 0,0 c -18.479,0 -33.46,14.981 -33.46,33.46 0,18.479 14.981,33.46 33.46,33.46 18.479,0 33.46,-14.981 33.46,-33.46 C 33.455,14.984 18.476,0.01 0,0.01 L 0,0 z m 34.29,89.61 -68.58,0 C -46.349,89.577 -56.117,79.809 -56.15,67.75 l 0,-68.55 c 0.033,-12.059 9.801,-21.827 21.86,-21.86 l 68.57,0 c 12.041,0.039 21.777,9.819 21.76,21.86 l 0,68.55 c 0.017,12.037 -9.713,21.816 -21.75,21.86"
             style="fill:#000000;fill-opacity:1;fill-rule:nonzero;stroke:none"
             id="path4854" /></g><g
           id="g4856"
           transform="translate(159.74,84.27)"><path
             d="m 0,0 70.54,0 0,23.59 -70.54,0 7.35,17.69 c 0.722,1.804 2.477,2.979 4.42,2.96 l 70.54,0 0,23.59 -94.06,0 c -2.94,0 -4.9,-0.983 -5.88,-2.95 L -33.8,35.42 c -0.945,-1.824 -1.449,-3.845 -1.47,-5.9 l 0,-73.73 117.57,0 0,23.57 -82.3,0 L 0,0 z"
             style="fill:#000000;fill-opacity:1;fill-rule:nonzero;stroke:none"
             id="path4858" /></g><g
           id="g4860"
           transform="translate(0,24.54)"><path
             d="m 0,0 770.13,0 c 2.209,0 4,-1.791 4,-4 l 0,-20.54 -770.13,0 c -2.209,0 -4,1.791 -4,4 L 0,0 z"
             style="fill:#2c7199;fill-opacity:1;fill-rule:nonzero;stroke:none"
             id="path4862" /></g><g
           id="g4864"
           transform="translate(354.23,152.1)"><path
             d="m 0,0 0,0 -105.84,0 0,-23.6 34.82,0 0,-88.69 35.27,0 0,88.69 34.82,0 0,23.6 L 0,0 z"
             style="fill:#000000;fill-opacity:1;fill-rule:nonzero;stroke:none"
             id="path4866" /></g></g></g></g></svg>