<?xml version="1.0" encoding="UTF-8" standalone="no"?>
<svg
   xmlns:dc="http://purl.org/dc/elements/1.1/"
   xmlns:cc="http://creativecommons.org/ns#"
   xmlns:rdf="http://www.w3.org/1999/02/22-rdf-syntax-ns#"
   xmlns:svg="http://www.w3.org/2000/svg"
   xmlns="http://www.w3.org/2000/svg"
   xmlns:sodipodi="http://sodipodi.sourceforge.net/DTD/sodipodi-0.dtd"
   xmlns:inkscape="http://www.inkscape.org/namespaces/inkscape"
   inkscape:version="1.0rc1 (09960d6, 2020-04-09)"
   sodipodi:docname="key.svg"
   xml:space="preserve"
   style="enable-background:new 0 0 256 256;"
   viewBox="0 0 256 256"
   height="256px"
   width="256px"
   y="0px"
   x="0px"
   id="Layer_1"
   version="1.1"><metadata
   id="metadata41"><rdf:RDF><cc:Work
       rdf:about=""><dc:format>image/svg+xml</dc:format><dc:type
         rdf:resource="http://purl.org/dc/dcmitype/StillImage" /></cc:Work></rdf:RDF></metadata><defs
   id="defs39" /><sodipodi:namedview
   inkscape:current-layer="Layer_1"
   inkscape:window-maximized="0"
   inkscape:window-y="23"
   inkscape:window-x="0"
   inkscape:cy="128"
   inkscape:cx="128"
   inkscape:zoom="1.0625"
   inkscape:pagecheckerboard="true"
   showgrid="false"
   id="namedview37"
   inkscape:window-height="480"
   inkscape:window-width="689"
   inkscape:pageshadow="2"
   inkscape:pageopacity="0"
   guidetolerance="10"
   gridtolerance="10"
   objecttolerance="10"
   borderopacity="1"
   bordercolor="#666666"
   pagecolor="#ffffff" />
<style
   id="style23"
   type="text/css">
	.st0{fill:#1C1F1F;}
	.st1{fill:#2E3436;}
	.st2{fill:url(#SVGID_1_);}
</style>
<path
   id="path25"
   d="M224,16H32c-8.8,0-16,7.2-16,16v192c0,8.8,7.2,16,16,16h192c8.8,0,16-7.2,16-16V32C240,23.2,232.8,16,224,16  L224,16z"
   class="st0" />
<path
   id="path27"
   d="M224,17c8.3,0,15,6.7,15,15v192c0,8.3-6.7,15-15,15H32c-8.3,0-15-6.7-15-15V32c0-8.3,6.7-15,15-15H224z"
   class="st1" />
<linearGradient
   y2="17"
   x2="128"
   y1="32"
   x1="128"
   gradientUnits="userSpaceOnUse"
   id="SVGID_1_">
	<stop
   id="stop29"
   style="stop-color:#2E3436"
   offset="0" />
	<stop
   id="stop31"
   style="stop-color:#414B4D"
   offset="1" />
</linearGradient>
<path
   id="path34"
   d="M32,19h192c7.2,0,13,5.8,13,13h2c0-8.3-6.7-15-15-15H32c-8.3,0-15,6.7-15,15h2C19,24.8,24.8,19,32,19z"
   class="st2" />
</svg>
