<svg xmlns="http://www.w3.org/2000/svg" xml:space="preserve" id="Layer_1" width="192" height="192" x="0" y="0" version="1.1"><style id="style10" type="text/css">.st0{fill:#fff}</style><path id="path12" d="M156 24H36c-6.6 0-12 5.4-12 12v120c0 6.6 5.4 12 12 12h120c6.6 0 12-5.4 12-12V36c0-6.6-5.4-12-12-12m-18 72c0 1.8-.2 3.7-.4 5.5l11.8 9.3c1.1.9 1.4 2.4.7 3.6l-11.2 19.4c-.7 1.2-2.2 1.7-3.4 1.2l-13.9-5.6c-2.9 2.2-6 4.1-9.5 5.5l-2.1 14.8c-.2 1.3-1.4 2.4-2.8 2.4H84.8c-1.4 0-2.5-1-2.8-2.4l-2.1-14.8c-3.4-1.4-6.6-3.3-9.5-5.5L56.5 135c-1.3.5-2.7 0-3.4-1.2l-11.2-19.4c-.7-1.2-.4-2.7.7-3.6l11.8-9.3c-.2-1.8-.4-3.7-.4-5.5s.2-3.7.4-5.5l-11.8-9.3c-1.1-.9-1.4-2.4-.7-3.6l11.2-19.4c.7-1.2 2.2-1.7 3.4-1.2l13.9 5.6c2.9-2.2 6-4.1 9.5-5.5L82 42.4c.2-1.3 1.4-2.4 2.8-2.4h22.4c1.4 0 2.5 1 2.8 2.4l2.1 14.8c3.4 1.4 6.6 3.3 9.5 5.5l13.9-5.6c1.3-.5 2.7 0 3.4 1.2l11.2 19.4c.7 1.2.4 2.7-.7 3.6l-11.8 9.3c.2 1.7.4 3.6.4 5.4" class="st0"/><circle id="circle14" cx="96" cy="96" r="16" class="st0"/></svg>