<?xml version="1.0" encoding="UTF-8" standalone="no"?>
<svg
   xmlns:dc="http://purl.org/dc/elements/1.1/"
   xmlns:cc="http://creativecommons.org/ns#"
   xmlns:rdf="http://www.w3.org/1999/02/22-rdf-syntax-ns#"
   xmlns:svg="http://www.w3.org/2000/svg"
   xmlns="http://www.w3.org/2000/svg"
   xmlns:sodipodi="http://sodipodi.sourceforge.net/DTD/sodipodi-0.dtd"
   xmlns:inkscape="http://www.inkscape.org/namespaces/inkscape"
   inkscape:version="1.0rc1 (09960d6, 2020-04-09)"
   sodipodi:docname="search.svg"
   xml:space="preserve"
   style="enable-background:new 0 0 192 192;"
   viewBox="0 0 192 192"
   height="192px"
   width="192px"
   y="0px"
   x="0px"
   id="Layer_1"
   version="1.1"><metadata
   id="metadata32"><rdf:RDF><cc:Work
       rdf:about=""><dc:format>image/svg+xml</dc:format><dc:type
         rdf:resource="http://purl.org/dc/dcmitype/StillImage" /><dc:title></dc:title></cc:Work></rdf:RDF></metadata><defs
   id="defs30" /><sodipodi:namedview
   inkscape:current-layer="Layer_1"
   inkscape:window-maximized="0"
   inkscape:window-y="23"
   inkscape:window-x="0"
   inkscape:cy="96"
   inkscape:cx="96"
   inkscape:zoom="1.4166667"
   inkscape:pagecheckerboard="true"
   showgrid="false"
   id="namedview28"
   inkscape:window-height="480"
   inkscape:window-width="693"
   inkscape:pageshadow="2"
   inkscape:pageopacity="0"
   guidetolerance="10"
   gridtolerance="10"
   objecttolerance="10"
   borderopacity="1"
   bordercolor="#666666"
   pagecolor="#ffffff" />
<style
   id="style23"
   type="text/css">
	.st0{fill:#FFFFFF;}
</style>
<path
   id="path25"
   d="M111.9,104.9h-3.7l-1.3-1.3c4.5-5.3,7.3-12.1,7.3-19.6c0-16.6-13.5-30.1-30.1-30.1S54,67.5,54,84.1  s13.5,30.1,30.1,30.1c7.5,0,14.3-2.7,19.6-7.2l1.3,1.3v3.7l23.2,23.1l6.9-6.9L111.9,104.9z M84.1,104.9c-11.5,0-20.8-9.3-20.8-20.8  s9.3-20.8,20.8-20.8s20.8,9.3,20.8,20.8S95.6,104.9,84.1,104.9z"
   class="st0" />
</svg>
