<svg xmlns="http://www.w3.org/2000/svg" xml:space="preserve" width="256" height="256" viewBox="0 0 341.333 341.333"><defs><clipPath id="a" clipPathUnits="userSpaceOnUse"><path d="M0 256h256V0H0Z"/></clipPath><clipPath id="b" clipPathUnits="userSpaceOnUse"><path d="M2.752 236h250.496V20H2.752Z"/></clipPath><clipPath id="c" clipPathUnits="userSpaceOnUse"><path d="M0 256h256V0H0Z"/></clipPath></defs><g clip-path="url(#a)" transform="matrix(1.33333 0 0 -1.33333 0 341.333)"><g clip-path="url(#b)" style="opacity:.5"><path d="M0 0h-125.217l-2.312-3.986-58-100-2.327-4.014 2.327-4.014 58-100 2.312-3.986H0l2.312 3.986 58 100L62.64-108l-2.328 4.014-58 100z" style="fill:#fff;fill-opacity:1;fill-rule:nonzero;stroke:none" transform="translate(190.608 236)"/></g></g><path d="M0 0h-116l-58-100 58-100H0l58 100z" style="fill:#000;fill-opacity:1;fill-rule:nonzero;stroke:none" transform="matrix(1.33333 0 0 -1.33333 248 37.333)"/><g clip-path="url(#c)" transform="matrix(1.33333 0 0 -1.33333 0 341.333)"><path d="M0 0h-50.77v50.769a4.615 4.615 0 1 1-9.23 0V0h-50.77a4.616 4.616 0 0 1 0-9.231H-60V-60a4.616 4.616 0 1 1 9.23 0v50.769H0A4.615 4.615 0 1 1 0 0" style="fill:#fff;fill-opacity:1;fill-rule:nonzero;stroke:none" transform="translate(183.385 132.616)"/></g></svg>