<svg xmlns="http://www.w3.org/2000/svg" xml:space="preserve" width="256" height="256" viewBox="0 0 341.333 341.333"><defs><clipPath id="a" clipPathUnits="userSpaceOnUse"><path d="M0 256h256V0H0Z"/></clipPath></defs><path d="M320 138.667H21.333V128H320Z" style="fill:#000;fill-opacity:1;fill-rule:nonzero;stroke:none;stroke-width:1.33333325"/><path d="M312 128v5.333h-2.667V128h-2.666v5.333H304V128h-2.667v5.333h-2.666V128H296v5.333h-2.667V128h-2.666v5.333H288V128h-2.667v5.333h-2.666V128H280v5.333h-2.667V128h-2.666v5.333H272V128h-2.667v5.333h-2.666V128H264v5.333h-2.667V128h-2.666v5.333H256V128h-2.667v5.333h-2.666V128H248v5.333h-2.667V128h-2.666v5.333H240V128h-2.667v5.333h-2.666V128H232v5.333h-2.667V128h-2.666v5.333H224V128h-2.667v5.333h-2.666V128H216v5.333h-2.667V128h-2.666v5.333H208V128h-2.667v5.333h-2.666V128H200v5.333h-2.667V128h-2.666v5.333H192V128h-2.667v5.333h-2.666V128H184v5.333h-2.667V128h-2.666v5.333H176V128h-2.667v5.333h-2.666V128H168v5.333h-2.667V128h-2.666v5.333H160V128h-2.667v5.333h-2.666V128H152v5.333h-2.667V128h-2.666v5.333H144V128h-2.667v5.333h-2.666V128H136v5.333h-2.667V128h-2.666v5.333H128V128h-2.667v5.333h-2.666V128H120v5.333h-2.667V128h-2.666v5.333H112V128h-2.667v5.333h-2.666V128H104v5.333h-2.667V128h-2.666v5.333H96V128h-2.667v5.333h-2.666V128H88v5.333h-2.667V128h-2.666v5.333H80V128h-2.667v5.333h-2.666V128H72v5.333h-2.667V128h-2.666v5.333H64V128h-2.667v5.333h-2.666V128H56v5.333h-2.667V128h-2.666v5.333H48V128h-2.667v5.333h-2.666V128H40v5.333h-2.667V128h-2.666v5.333H32V128h-2.667v5.333h-2.666V128H16v90.667h309.333V128Z" style="fill:#262626;fill-opacity:1;fill-rule:nonzero;stroke:none;stroke-width:1.33333325"/><path d="M197.333 149.333H32v-10.666h165.333Z" style="fill:#4d4d4d;fill-opacity:1;fill-rule:nonzero;stroke:none;stroke-width:1.33333325"/><path d="M42.667 165.333H32v-10.666h10.667z" style="fill:#d40000;fill-opacity:1;fill-rule:nonzero;stroke:none;stroke-width:1.33333325"/><path d="M42.667 181.333H32v-10.666h10.667z" style="fill:#4eb96f;fill-opacity:1;fill-rule:nonzero;stroke:none;stroke-width:1.33333325"/><path d="M58.667 165.333H48v-10.666h10.667zm0 16H48v-10.666h10.667zm10.666 15.9H58.667v-10.666h10.666zm16 0H74.667v-10.666h10.666zm16 0H90.667v-10.666h10.666zm16 0h-10.666v-10.666h10.666zm16 0h-10.666v-10.666h10.666zm16 0h-10.666v-10.666h10.666zm16 0h-10.666v-10.666h10.666z" style="fill:#4d4d4d;fill-opacity:1;fill-rule:nonzero;stroke:none;stroke-width:1.33333325"/><path d="M197.333 197.333h-26.666v-10.666h26.666z" style="fill:#4eb96f;fill-opacity:1;fill-rule:nonzero;stroke:none;stroke-width:2.10818481"/><path d="M170.667 213.333H160v-10.666h10.667z" style="fill:#4eb96f;fill-opacity:1;fill-rule:nonzero;stroke:none;stroke-width:1.33333325"/><path d="M74.667 181.333H64v-10.666h10.667zm16 0H80v-10.666h10.667zm16 0H96v-10.666h10.667zm16 0H112v-10.666h10.667zm16 0H128v-10.666h10.667zm16 0H144v-10.666h10.667zm16 0H160v-10.666h10.667z" style="fill:#4d4d4d;fill-opacity:1;fill-rule:nonzero;stroke:none;stroke-width:1.33333325"/><path d="M186.667 170.567v.056H176v10.71h21.333v-10.766z" style="fill:#3096cf;fill-opacity:1;fill-rule:nonzero;stroke:none;stroke-width:.99684578"/><path d="M74.667 165.333H64v-10.666h10.667zm16 0H80v-10.666h10.667zm16 0H96v-10.666h10.667zm16 0H112v-10.666h10.667zm16 0H128v-10.666h10.667zm16 0H144v-10.666h10.667zm16 0H160v-10.666h10.667z" style="fill:#4d4d4d;fill-opacity:1;fill-rule:nonzero;stroke:none;stroke-width:1.33333325"/><path d="M229.333 154.667h-10.666V144h10.666z" style="fill:#4eb96f;fill-opacity:1;fill-rule:nonzero;stroke:none;stroke-width:1.33333325"/><path d="M218.667 154.667H208V144h10.667zm21.333 0h-10.667V144H240zM229.333 144h-10.666v-10.667h10.666zm0 21.333h-10.666v-10.666h10.666z" style="fill:#4d4d4d;fill-opacity:1;fill-rule:nonzero;stroke:none;stroke-width:1.33333325"/><path d="M197.333 165.333h-16v-10.666h16zm-144 31.9H32v-10.765h21.333z" style="fill:#4eb96f;fill-opacity:1;fill-rule:nonzero;stroke:none;stroke-width:1.33333325"/><path d="M154.667 213.333H64v-10.766h90.667zm58.666-32h-10.666v-10.666h10.666zm16 0h-10.666v-10.666h10.666zm16 0h-10.666v-10.666h10.666zm-32 16h-10.666v-10.666h10.666zm16 0h-10.666v-10.666h10.666zm16 0h-10.666v-10.666h10.666zm-32 16h-10.666v-10.666h10.666zm16 0h-10.666v-10.666h10.666z" style="fill:#4d4d4d;fill-opacity:1;fill-rule:nonzero;stroke:none;stroke-width:1.33333325"/><path d="M245.333 213.333h-10.666v-10.666h10.666z" style="fill:#3096cf;fill-opacity:1;fill-rule:nonzero;stroke:none;stroke-width:1.33333325"/><path d="M266.667 213.333H256v-10.666h10.667z" style="fill:#d40000;fill-opacity:1;fill-rule:nonzero;stroke:none;stroke-width:1.33333325"/><path d="M282.667 213.333H272v-10.666h10.667zm16 0H288v-10.666h10.667zm16 0H304v-10.666h10.667zm0-16h-64v-26.666h64z" style="fill:#4d4d4d;fill-opacity:1;fill-rule:nonzero;stroke:none;stroke-width:1.33333325"/><path d="M314.667 176h-64v-26.667h64z" style="fill:gray;fill-opacity:1;fill-rule:nonzero;stroke:none;stroke-width:1.33333325"/><path d="M309.333 170.667H256v-16h53.333z" style="fill:#666;fill-opacity:1;fill-rule:nonzero;stroke:none;stroke-width:1.33333325"/><g clip-path="url(#a)" transform="matrix(1.33333 0 0 -1.33333 0 341.333)"><path d="M0 0a2 2 0 1 0-4.001.001A2 2 0 0 0 0 0" style="fill:#404040;fill-opacity:1;fill-rule:nonzero;stroke:none" transform="translate(204 130)"/><path d="M0 0a2 2 0 1 0-4.001.001A2 2 0 0 0 0 0" style="fill:#404040;fill-opacity:1;fill-rule:nonzero;stroke:none" transform="translate(224 130)"/><path d="M216 128h-8v4h8z" style="fill:gray;fill-opacity:1;fill-rule:nonzero;stroke:none"/><path d="M232 116h-40v-4h40z" style="fill:#d40000;fill-opacity:1;fill-rule:nonzero;stroke:none"/><g style="fill:red"><path d="M0 0a1 1 0 1 0-2 0 1 1 0 0 0 2 0" style="fill:red;fill-opacity:1;fill-rule:nonzero;stroke:none" transform="translate(143 150)"/></g></g></svg>