<?xml version="1.0" encoding="UTF-8" standalone="no"?>
<svg
   xmlns:dc="http://purl.org/dc/elements/1.1/"
   xmlns:cc="http://creativecommons.org/ns#"
   xmlns:rdf="http://www.w3.org/1999/02/22-rdf-syntax-ns#"
   xmlns:svg="http://www.w3.org/2000/svg"
   xmlns="http://www.w3.org/2000/svg"
   xmlns:sodipodi="http://sodipodi.sourceforge.net/DTD/sodipodi-0.dtd"
   xmlns:inkscape="http://www.inkscape.org/namespaces/inkscape"
   viewBox="0 0 341.33334 341.33334"
   height="256"
   width="256"
   xml:space="preserve"
   id="svg2"
   version="1.1"
   sodipodi:docname="Amstrad - CPC-content.svg"
   inkscape:version="0.92.3 (2405546, 2018-03-11)"
   inkscape:export-filename="D:\Documents\Github\Retrosystem-retroarch-theme\png\Amstrad - CPC-content.png"
   inkscape:export-xdpi="72"
   inkscape:export-ydpi="72"><sodipodi:namedview
   pagecolor="#ffffff"
   bordercolor="#666666"
   borderopacity="1"
   objecttolerance="10"
   gridtolerance="10"
   guidetolerance="10"
   inkscape:pageopacity="0"
   inkscape:pageshadow="2"
   inkscape:window-width="1920"
   inkscape:window-height="1001"
   id="namedview52"
   showgrid="false"
   inkscape:pagecheckerboard="true"
   inkscape:zoom="7.8223682"
   inkscape:cx="90.601574"
   inkscape:cy="76.022916"
   inkscape:window-x="-9"
   inkscape:window-y="-9"
   inkscape:window-maximized="1"
   inkscape:current-layer="svg2"
   inkscape:snap-object-midpoints="true" /><metadata
   id="metadata8"><rdf:RDF><cc:Work
       rdf:about=""><dc:format>image/svg+xml</dc:format><dc:type
         rdf:resource="http://purl.org/dc/dcmitype/StillImage" /><dc:title /></cc:Work></rdf:RDF></metadata><defs
   id="defs6"><clipPath
     id="clipPath18"
     clipPathUnits="userSpaceOnUse"><path
       id="path16"
       d="M 0,256 H 256 V 0 H 0 Z" /></clipPath><clipPath
     id="clipPath26"
     clipPathUnits="userSpaceOnUse"><path
       id="path24"
       d="M 4,208 H 252 V 48 H 4 Z" /></clipPath></defs><path
   style="color:#000000;font-style:normal;font-variant:normal;font-weight:normal;font-stretch:normal;font-size:medium;line-height:normal;font-family:sans-serif;font-variant-ligatures:normal;font-variant-position:normal;font-variant-caps:normal;font-variant-numeric:normal;font-variant-alternates:normal;font-feature-settings:normal;text-indent:0;text-align:start;text-decoration:none;text-decoration-line:none;text-decoration-style:solid;text-decoration-color:#000000;letter-spacing:normal;word-spacing:normal;text-transform:none;writing-mode:lr-tb;direction:ltr;text-orientation:mixed;dominant-baseline:auto;baseline-shift:baseline;text-anchor:start;white-space:normal;shape-padding:0;clip-rule:nonzero;display:inline;overflow:visible;visibility:visible;opacity:1;isolation:auto;mix-blend-mode:normal;color-interpolation:sRGB;color-interpolation-filters:linearRGB;solid-color:#000000;solid-opacity:1;vector-effect:none;fill:#433d39;fill-opacity:1;fill-rule:nonzero;stroke:none;stroke-width:29.06926727;stroke-linecap:butt;stroke-linejoin:miter;stroke-miterlimit:4;stroke-dasharray:none;stroke-dashoffset:0;stroke-opacity:1;color-rendering:auto;image-rendering:auto;shape-rendering:auto;text-rendering:auto;enable-background:accumulate"
   d="m 109.33396,112.43945 c -21.677018,0 -39.560546,17.88353 -39.560546,39.56055 0,21.67702 17.883528,39.56055 39.560546,39.56055 21.67703,0 39.56055,-17.88352 39.56055,-39.56055 0,-21.67703 -17.88352,-39.56055 -39.56055,-39.56055 z m 0,25.8418 A 13.719664,13.719664 0 0 1 123.05271,152 13.719664,13.719664 0 0 1 109.33396,165.71875 13.719664,13.719664 0 0 1 95.615211,152 13.719664,13.719664 0 0 1 109.33396,138.28125 Z"
   id="path2833"
   inkscape:connector-curvature="0" /><path
   style="fill:#ffffff;fill-opacity:0.23529412;fill-rule:nonzero;stroke:#ffffff;stroke-width:1.8;stroke-miterlimit:4;stroke-dasharray:none"
   d="M 139.55664 138.66602 C 136.1153 138.66602 133.33398 141.05066 133.33398 144 L 133.33398 160.05859 L 208 160.05859 L 208 144 C 208 141.05066 205.21868 138.66602 201.77734 138.66602 L 139.55664 138.66602 z "
   id="path833-9" /><rect
   style="fill:#f9f9f9;fill-opacity:1;stroke:#f9f9f9;stroke-width:1;stroke-miterlimit:4;stroke-dasharray:none;stroke-opacity:1"
   id="rect3615"
   width="4.8096719"
   height="2.9725406"
   x="195.93202"
   y="19.208063"
   ry="0"
   transform="rotate(48.548166)" /><rect
   transform="rotate(-53.045221)"
   style="fill:#f9f9f9;fill-opacity:1;stroke:#f9f9f9;stroke-width:1;stroke-miterlimit:4;stroke-dasharray:none;stroke-opacity:1"
   id="rect3617"
   width="4.8096719"
   height="2.9725406"
   x="-70.602646"
   y="179.0038"
   ry="0" /><path
   inkscape:connector-curvature="0"
   id="path1377"
   d="m 249.93653,152.00001 a 17.935902,17.935902 0 0 1 -17.9359,17.9359 17.935902,17.935902 0 0 1 -17.9359,-17.9359 17.935902,17.935902 0 0 1 17.9359,-17.9359 17.935902,17.935902 0 0 1 17.9359,17.9359 z"
   style="fill:none;fill-opacity:1;stroke:#f2f2f2;stroke-width:6.97064734;stroke-linecap:round;stroke-miterlimit:4;stroke-dasharray:none;stroke-opacity:1" /><path
   style="fill:#d9d9d9;fill-opacity:1;fill-rule:nonzero;stroke:none;stroke-width:1.33333325"
   d="M 27.457031 74.666016 C 21.133032 74.666016 16 79.726266 16 85.960938 L 16 255.37109 C 16 261.60576 21.133032 266.66602 27.457031 266.66602 L 61.826172 266.66602 L 279.50586 266.66602 L 313.87695 266.66602 C 320.20095 266.66602 325.33398 261.60576 325.33398 255.37109 L 325.33398 85.960938 C 325.33398 79.72627 320.20095 74.666016 313.87695 74.666016 L 27.457031 74.666016 z M 109.33398 133.33398 C 119.63798 133.33398 128 141.69067 128 152 C 128 162.30934 119.63798 170.66602 109.33398 170.66602 C 99.029997 170.66602 90.666016 162.30934 90.666016 152 C 90.666016 141.69067 99.029997 133.33398 109.33398 133.33398 z M 232 133.33398 C 242.304 133.33398 250.66602 141.68934 250.66602 152 C 250.66602 162.30934 242.304 170.66602 232 170.66602 C 221.69467 170.66602 213.33398 162.30934 213.33398 152 C 213.33398 141.68934 221.69467 133.33398 232 133.33398 z M 139.55664 138.66602 L 201.77734 138.66602 C 205.21868 138.66602 208 141.05066 208 144 L 208 160.05859 L 133.33398 160.05859 L 133.33398 144 C 133.33398 141.05066 136.1153 138.66602 139.55664 138.66602 z M 216.62109 245.55273 L 220.71289 245.55273 C 222.41263 245.55273 223.7793 246.92135 223.7793 248.62109 L 223.7793 252.71289 C 223.7793 254.41263 222.41263 255.7793 220.71289 255.7793 L 216.62109 255.7793 C 214.92135 255.7793 213.55273 254.41263 213.55273 252.71289 L 213.55273 248.62109 C 213.55273 246.92135 214.92135 245.55273 216.62109 245.55273 z M 120.67969 245.58203 L 124.76953 245.58203 C 126.46927 245.58203 127.83789 246.95065 127.83789 248.65039 L 127.83789 252.74219 C 127.83789 254.44193 126.46927 255.80859 124.76953 255.80859 L 120.67969 255.80859 C 118.97995 255.80859 117.61133 254.44193 117.61133 252.74219 L 117.61133 248.65039 C 117.61133 246.95065 118.97995 245.58203 120.67969 245.58203 z M 96 250.66602 C 98.949333 250.66602 101.33398 253.05066 101.33398 256 C 101.33398 258.94933 98.949333 261.33398 96 261.33398 C 93.050667 261.33398 90.666016 258.94933 90.666016 256 C 90.666016 253.05066 93.050667 250.66602 96 250.66602 z M 245.33398 250.66602 C 248.28331 250.66602 250.66602 253.05066 250.66602 256 C 250.66602 258.94933 248.28331 261.33398 245.33398 261.33398 C 242.38465 261.33398 240 258.94933 240 256 C 240 253.05066 242.38465 250.66602 245.33398 250.66602 z "
   id="path38" /><path
   style="fill:#2c8abe;fill-opacity:1;fill-rule:nonzero;stroke:#bbbbbb;stroke-width:1.33333325;stroke-opacity:1"
   d="M 43.556641 90.666016 L 32 102.40039 L 32 196.26758 C 32 202.74491 37.177974 208 43.556641 208 L 297.77734 208 C 304.15601 208 309.33398 202.74491 309.33398 196.26758 L 309.33398 102.40039 L 297.77734 90.666016 L 43.556641 90.666016 z M 109.33398 133.33398 C 119.63798 133.33398 128 141.69067 128 152 C 128 162.30934 119.63798 170.66602 109.33398 170.66602 C 99.029981 170.66602 90.666016 162.30934 90.666016 152 C 90.666016 141.69067 99.029981 133.33398 109.33398 133.33398 z M 232 133.33398 C 242.30533 133.33398 250.66602 141.68934 250.66602 152 C 250.66602 162.31067 242.30533 170.66602 232 170.66602 C 221.696 170.66602 213.33398 162.31067 213.33398 152 C 213.33398 141.68934 221.696 133.33398 232 133.33398 z M 139.55664 138.66602 L 201.77734 138.66602 C 205.21868 138.66602 208 141.05066 208 144 L 208 160.05859 L 133.33398 160.05859 L 133.33398 144 C 133.33398 141.05066 136.1153 138.66602 139.55664 138.66602 z "
   id="path42" /><path
   style="fill:none;fill-opacity:1;stroke:#f2f2f2;stroke-width:6.97064734;stroke-linecap:round;stroke-miterlimit:4;stroke-dasharray:none;stroke-opacity:1"
   d="M 127.26986,152 A 17.935902,17.935902 0 0 1 109.33396,169.9359 17.935902,17.935902 0 0 1 91.398061,152 17.935902,17.935902 0 0 1 109.33396,134.0641 17.935902,17.935902 0 0 1 127.26986,152 Z"
   id="path877"
   inkscape:connector-curvature="0" /><path
   id="path78"
   style="fill:#c3c3c3;fill-opacity:1;fill-rule:nonzero;stroke:none;stroke-width:1.33333325"
   d="m 23.999999,85.333336 c -1.472,0 -2.666667,-1.194667 -2.666667,-2.666667 0,-1.472 1.194667,-2.666666 2.666667,-2.666666 1.472,0 2.666667,1.194666 2.666667,2.666666 0,1.472 -1.194667,2.666667 -2.666667,2.666667"
   inkscape:connector-curvature="0" /><path
   id="path86"
   style="fill:#c3c3c3;fill-opacity:1;fill-rule:nonzero;stroke:none;stroke-width:1.33333325"
   d="m 317.33333,85.333336 c -1.472,0 -2.66667,-1.194667 -2.66667,-2.666667 0,-1.472 1.19467,-2.666666 2.66667,-2.666666 1.472,0 2.66667,1.194666 2.66667,2.666666 0,1.472 -1.19467,2.666667 -2.66667,2.666667"
   inkscape:connector-curvature="0" /><path
   style="opacity:1;vector-effect:none;fill:#ffffff;fill-opacity:1;stroke:#ffffff;stroke-width:1.65482724;stroke-linecap:round;stroke-linejoin:round;stroke-miterlimit:4;stroke-dasharray:none;stroke-dashoffset:0;stroke-opacity:1"
   d="M 102.7207 130.77148 C 93.657133 132.41675 86.94104 142.7883 86.9375 152 C 86.9445 161.20857 93.660213 171.5838 102.7207 173.22852 L 238.36328 173.22852 C 247.39879 172.27343 254.38423 161.08584 254.39453 152 C 254.39153 142.9086 247.40432 131.72716 238.36328 130.77148 L 102.7207 130.77148 z M 109.33398 134.06445 C 119.23943 134.06464 127.26934 142.09455 127.26953 152 C 127.26934 161.90545 119.23943 169.93536 109.33398 169.93555 C 99.427772 169.93643 91.396678 161.90621 91.396484 152 C 91.396678 142.09379 99.427772 134.06357 109.33398 134.06445 z M 232 135.27539 C 241.23668 135.27555 248.72445 142.76332 248.72461 152 C 248.72445 161.23668 241.23668 168.72445 232 168.72461 C 222.76332 168.72445 215.27555 161.23668 215.27539 152 C 215.27555 142.76332 222.76332 135.27555 232 135.27539 z M 139.55664 138.66602 L 201.77734 138.66602 C 205.21868 138.66602 208 141.05066 208 144 L 208 160.05859 L 133.33398 160.05859 L 133.33398 144 C 133.33398 141.05066 136.1153 138.66602 139.55664 138.66602 z "
   id="rect1145" /><rect
   style="fill:#f9f9f9;fill-opacity:1;stroke:#f9f9f9;stroke-width:1;stroke-miterlimit:4;stroke-dasharray:none;stroke-opacity:1"
   id="rect3609"
   width="4.8096719"
   height="2.9725404"
   x="95.600502"
   y="151.04645"
   ry="0" /><rect
   ry="0"
   y="151.04645"
   x="117.8113"
   height="2.9725404"
   width="4.8096719"
   id="rect3611"
   style="fill:#f9f9f9;fill-opacity:1;stroke:#f9f9f9;stroke-width:1;stroke-miterlimit:4;stroke-dasharray:none;stroke-opacity:1" /><rect
   ry="0"
   y="16.210012"
   x="172.36916"
   height="2.9725406"
   width="4.8096719"
   id="rect3613"
   style="fill:#f9f9f9;fill-opacity:1;stroke:#f9f9f9;stroke-width:1;stroke-miterlimit:4;stroke-dasharray:none;stroke-opacity:1"
   transform="rotate(48.548166)" /><rect
   transform="rotate(-53.045221)"
   ry="0"
   y="175.80736"
   x="-46.796581"
   height="2.9725406"
   width="4.8096719"
   id="rect3619"
   style="fill:#f9f9f9;fill-opacity:1;stroke:#f9f9f9;stroke-width:1;stroke-miterlimit:4;stroke-dasharray:none;stroke-opacity:1" /><rect
   ry="0"
   y="151.04646"
   x="218.26717"
   height="2.9725404"
   width="4.8096719"
   id="rect1365"
   style="fill:#f9f9f9;fill-opacity:1;stroke:#f9f9f9;stroke-width:1;stroke-miterlimit:4;stroke-dasharray:none;stroke-opacity:1" /><rect
   style="fill:#f9f9f9;fill-opacity:1;stroke:#f9f9f9;stroke-width:1;stroke-miterlimit:4;stroke-dasharray:none;stroke-opacity:1"
   id="rect1367"
   width="4.8096719"
   height="2.9725404"
   x="240.47797"
   y="151.04646"
   ry="0" /><rect
   transform="rotate(48.548166)"
   style="fill:#f9f9f9;fill-opacity:1;stroke:#f9f9f9;stroke-width:1;stroke-miterlimit:4;stroke-dasharray:none;stroke-opacity:1"
   id="rect1369"
   width="4.8096719"
   height="2.9725406"
   x="253.5733"
   y="-75.730179"
   ry="0" /><rect
   transform="rotate(48.548166)"
   ry="0"
   y="-72.732124"
   x="277.13617"
   height="2.9725406"
   width="4.8096719"
   id="rect1371"
   style="fill:#f9f9f9;fill-opacity:1;stroke:#f9f9f9;stroke-width:1;stroke-miterlimit:4;stroke-dasharray:none;stroke-opacity:1" /><rect
   ry="0"
   y="277.02795"
   x="3.1426442"
   height="2.9725406"
   width="4.8096719"
   id="rect1373"
   style="fill:#f9f9f9;fill-opacity:1;stroke:#f9f9f9;stroke-width:1;stroke-miterlimit:4;stroke-dasharray:none;stroke-opacity:1"
   transform="rotate(-53.045221)" /><rect
   style="fill:#f9f9f9;fill-opacity:1;stroke:#f9f9f9;stroke-width:1;stroke-miterlimit:4;stroke-dasharray:none;stroke-opacity:1"
   id="rect1375"
   width="4.8096719"
   height="2.9725406"
   x="26.948709"
   y="273.83151"
   ry="0"
   transform="rotate(-53.045221)" /><circle
   style="fill:none;fill-opacity:1;stroke:#f9f9f9;stroke-width:1.874;stroke-linecap:round;stroke-miterlimit:4;stroke-dasharray:none;stroke-opacity:1"
   id="circle1379"
   cx="232.00063"
   cy="152.00002"
   r="13.719664" /><circle
   r="13.719664"
   cy="152"
   cx="109.33396"
   id="circle1135"
   style="fill:none;fill-opacity:1;stroke:#f9f9f9;stroke-width:1.874;stroke-linecap:round;stroke-miterlimit:4;stroke-dasharray:none;stroke-opacity:1" /><path
   style="fill:none;stroke:#000000;stroke-width:1px;stroke-linecap:butt;stroke-linejoin:miter;stroke-opacity:1"
   d="M 133.82696,168.29034 V 161.1491"
   id="path1393"
   inkscape:connector-curvature="0" /><path
   style="fill:none;stroke:#000000;stroke-width:1px;stroke-linecap:butt;stroke-linejoin:miter;stroke-opacity:1"
   d="M 207.50766,168.29034 V 161.1491"
   id="path1409"
   inkscape:connector-curvature="0" /><path
   inkscape:connector-curvature="0"
   id="path1397"
   d="M 170.66731,168.29034 V 161.1491"
   style="fill:none;stroke:#000000;stroke-width:1px;stroke-linecap:butt;stroke-linejoin:miter;stroke-opacity:1" /><path
   inkscape:connector-curvature="0"
   id="path1399"
   d="M 141.19503,167.00401 V 161.1491"
   style="fill:none;stroke:#000000;stroke-width:0.90546817px;stroke-linecap:butt;stroke-linejoin:miter;stroke-opacity:1" /><path
   style="fill:none;stroke:#000000;stroke-width:0.90546817px;stroke-linecap:butt;stroke-linejoin:miter;stroke-opacity:1"
   d="M 155.93118,167.00401 V 161.1491"
   id="path1401"
   inkscape:connector-curvature="0" /><path
   inkscape:connector-curvature="0"
   id="path1403"
   d="M 163.29923,167.00401 V 161.1491"
   style="fill:none;stroke:#000000;stroke-width:0.90546817px;stroke-linecap:butt;stroke-linejoin:miter;stroke-opacity:1" /><path
   style="fill:none;stroke:#000000;stroke-width:0.90546817px;stroke-linecap:butt;stroke-linejoin:miter;stroke-opacity:1"
   d="M 148.56311,167.00401 V 161.1491"
   id="path1405"
   inkscape:connector-curvature="0" /><path
   style="fill:none;stroke:#000000;stroke-width:0.90546817px;stroke-linecap:butt;stroke-linejoin:miter;stroke-opacity:1"
   d="M 178.03538,167.00401 V 161.1491"
   id="path1411"
   inkscape:connector-curvature="0" /><path
   inkscape:connector-curvature="0"
   id="path1413"
   d="M 192.77153,167.00401 V 161.1491"
   style="fill:none;stroke:#000000;stroke-width:0.90546817px;stroke-linecap:butt;stroke-linejoin:miter;stroke-opacity:1" /><path
   style="fill:none;stroke:#000000;stroke-width:0.90546817px;stroke-linecap:butt;stroke-linejoin:miter;stroke-opacity:1"
   d="M 200.13958,167.00401 V 161.1491"
   id="path1415"
   inkscape:connector-curvature="0" /><path
   inkscape:connector-curvature="0"
   id="path1417"
   d="M 185.40346,167.00401 V 161.1491"
   style="fill:none;stroke:#000000;stroke-width:0.90546817px;stroke-linecap:butt;stroke-linejoin:miter;stroke-opacity:1" /><text
   xml:space="preserve"
   style="font-style:normal;font-weight:normal;font-size:5.44743443px;line-height:1.25;font-family:sans-serif;letter-spacing:0px;word-spacing:0px;fill:#000000;fill-opacity:1;stroke:none;stroke-width:0.13618587"
   x="205.77342"
   y="173.25089"
   id="text1421"><tspan
     sodipodi:role="line"
     id="tspan1419"
     x="205.77342"
     y="173.25089"
     style="stroke-width:0.13618587">0</tspan></text>



<text
   id="text1425"
   y="173.25089"
   x="167.13234"
   style="font-style:normal;font-weight:normal;font-size:5.44743443px;line-height:1.25;font-family:sans-serif;letter-spacing:0px;word-spacing:0px;fill:#000000;fill-opacity:1;stroke:none;stroke-width:0.13618587"
   xml:space="preserve"><tspan
     style="stroke-width:0.13618587"
     y="173.25089"
     x="167.13234"
     id="tspan1423"
     sodipodi:role="line">50</tspan></text>



<text
   xml:space="preserve"
   style="font-style:normal;font-weight:normal;font-size:5.44743443px;line-height:1.25;font-family:sans-serif;letter-spacing:0px;word-spacing:0px;fill:#000000;fill-opacity:1;stroke:none;stroke-width:0.13618587"
   x="128.43671"
   y="173.25089"
   id="text1429"><tspan
     sodipodi:role="line"
     id="tspan1427"
     x="128.43671"
     y="173.25089"
     style="stroke-width:0.13618587">100</tspan></text>



<g
   id="g22"
   transform="matrix(1.3333333,0,0,-1.3333333,0,341.33333)" /><path
   id="path74"
   style="fill:#c3c3c3;fill-opacity:1;fill-rule:nonzero;stroke:none;stroke-width:1.33333325"
   d="m 24.046266,261.33333 c -1.472,0.0253 -2.686667,-1.148 -2.712,-2.62 -0.02667,-1.472 1.148,-2.68667 2.62,-2.71333 1.470667,-0.0253 2.686667,1.148 2.712,2.62 0.02533,1.472 -1.148,2.68666 -2.62,2.71333"
   inkscape:connector-curvature="0" /><path
   id="path82"
   style="fill:#c3c3c3;fill-opacity:1;fill-rule:nonzero;stroke:none;stroke-width:1.33333325"
   d="m 317.33333,261.33333 c -1.472,0 -2.66667,-1.19467 -2.66667,-2.66667 0,-1.472 1.19467,-2.66666 2.66667,-2.66666 1.472,0 2.66667,1.19466 2.66667,2.66666 0,1.472 -1.19467,2.66667 -2.66667,2.66667"
   inkscape:connector-curvature="0" /><text
   xml:space="preserve"
   style="font-style:normal;font-weight:normal;font-size:12.18278027px;line-height:1.25;font-family:sans-serif;text-align:center;letter-spacing:0px;word-spacing:0px;text-anchor:middle;fill:#ffffff;fill-opacity:1;stroke:#ffffff;stroke-width:0.40155116;stroke-miterlimit:4;stroke-dasharray:none"
   x="59.536015"
   y="150.89482"
   id="text990"><tspan
     sodipodi:role="line"
     id="tspan988"
     x="59.536015"
     y="150.89482"
     style="stroke:#ffffff;stroke-width:0.40155116;stroke-miterlimit:4;stroke-dasharray:none">SIDE</tspan><tspan
     sodipodi:role="line"
     x="59.536015"
     y="166.12329"
     id="tspan992"
     style="stroke:#ffffff;stroke-width:0.40155116;stroke-miterlimit:4;stroke-dasharray:none">1</tspan></text>



<text
   xml:space="preserve"
   style="font-style:normal;font-weight:normal;font-size:12.99153709px;line-height:1.25;font-family:sans-serif;letter-spacing:0px;word-spacing:0px;fill:#ffffff;fill-opacity:1;stroke:#ffffff;stroke-width:0.5;stroke-miterlimit:4;stroke-dasharray:none"
   x="65.126274"
   y="196.75847"
   id="text996"><tspan
     sodipodi:role="line"
     id="tspan994"
     x="65.126274"
     y="196.75847"
     style="stroke-width:0.5;stroke:#ffffff;stroke-miterlimit:4;stroke-dasharray:none">CONTINUOUS DEMONSTRATION</tspan></text>



<text
   xml:space="preserve"
   style="font-style:normal;font-weight:normal;font-size:23.82587051px;line-height:1.25;font-family:sans-serif;letter-spacing:0px;word-spacing:0px;fill:none;fill-opacity:1;stroke:#ffffff;stroke-width:1.02308226;stroke-miterlimit:4;stroke-dasharray:none"
   x="171.12982"
   y="113.23309"
   id="text1000"
   transform="scale(0.94526623,1.057903)"><tspan
     sodipodi:role="line"
     id="tspan998"
     x="171.12982"
     y="113.23309"
     style="fill:none;stroke:#ffffff;stroke-width:1.02308226;stroke-miterlimit:4;stroke-dasharray:none">LIBRETRO</tspan></text>



<path
   style="fill:#f2f2f2;fill-opacity:1;fill-rule:nonzero;stroke:none;stroke-width:1.33333325"
   d="M 80.591797 234.66602 C 74.962464 234.66602 74.962891 240 74.962891 240 L 69.333984 266.66602 L 272 266.66602 L 266.36914 240 C 266.36914 240 266.36994 234.66602 260.72461 234.66602 L 80.591797 234.66602 z M 216.62109 245.55273 L 220.71289 245.55273 C 222.41263 245.55273 223.7793 246.92135 223.7793 248.62109 L 223.7793 252.71289 C 223.7793 254.41263 222.41263 255.7793 220.71289 255.7793 L 216.62109 255.7793 C 214.92135 255.7793 213.55273 254.41263 213.55273 252.71289 L 213.55273 248.62109 C 213.55273 246.92135 214.92135 245.55273 216.62109 245.55273 z M 120.67969 245.58203 L 124.76953 245.58203 C 126.46927 245.58203 127.83789 246.95065 127.83789 248.65039 L 127.83789 252.74219 C 127.83789 254.44193 126.46927 255.80859 124.76953 255.80859 L 120.67969 255.80859 C 118.97995 255.80859 117.61133 254.44193 117.61133 252.74219 L 117.61133 248.65039 C 117.61133 246.95065 118.97995 245.58203 120.67969 245.58203 z M 96 250.66602 C 98.949333 250.66602 101.33398 253.05066 101.33398 256 C 101.33398 258.94933 98.949333 261.33398 96 261.33398 C 93.050667 261.33398 90.666016 258.94933 90.666016 256 C 90.666016 253.05066 93.050667 250.66602 96 250.66602 z M 245.33398 250.66602 C 248.28331 250.66602 250.66602 253.05066 250.66602 256 C 250.66602 258.94933 248.28331 261.33398 245.33398 261.33398 C 242.38465 261.33398 240 258.94933 240 256 C 240 253.05066 242.38465 250.66602 245.33398 250.66602 z "
   id="path50" /><path
   style="fill:none;fill-opacity:1;fill-rule:nonzero;stroke:#1a1a1a;stroke-width:2.66666675;stroke-miterlimit:4;stroke-dasharray:none"
   d="m 27.457346,74.666015 c -6.324,0 -11.458334,5.0596 -11.458334,11.29427 V 255.37175 c 0,6.23467 5.134334,11.29427 11.458334,11.29427 h 34.369793 7.507813 202.664078 7.50781 34.36979 c 6.324,0 11.45834,-5.0596 11.45834,-11.29427 V 85.960285 c 0,-6.23467 -5.13434,-11.29427 -11.45834,-11.29427 z"
   id="path871"
   inkscape:connector-curvature="0"
   sodipodi:nodetypes="ssssccccsssss" /></svg>