<svg xmlns="http://www.w3.org/2000/svg" xml:space="preserve" width="256" height="256" viewBox="0 0 341.333 341.333"><path d="M293.111 16H48.221a6.44 6.44 0 0 0-6.443 6.444v302.89h257.777V22.443A6.44 6.44 0 0 0 293.111 16" style="fill:#292929;fill-opacity:1;fill-rule:nonzero;stroke:none;stroke-width:1.33333325"/><path d="M282.667 309.333h-224V38.603c0-3.651 2.952-6.603 6.588-6.603h210.824a6.59 6.59 0 0 1 6.588 6.603z" style="fill:#0d0d0d;fill-opacity:1;fill-rule:nonzero;stroke:none;stroke-width:1.33333325"/><path d="M277.333 304H64V44.35c0-3.88 3.179-7.017 7.11-7.017h199.113c3.932 0 7.11 3.138 7.11 7.018z" style="fill:#999;fill-opacity:1;fill-rule:nonzero;stroke:none;stroke-width:1.33333325"/><path d="M93.333 106.667H248v145c0 5.338-4.328 9.666-9.667 9.666H103c-5.339 0-9.667-4.328-9.667-9.666z" style="fill:#000;fill-opacity:1;fill-rule:nonzero;stroke:none;stroke-width:1.33333325"/><path d="M168.78 122.667c.392 11.353.505 22.706-.035 34.057-.521 10.955-1.47 21.861-3.97 32.58-2.54 10.893-7.575 20.573-14.442 29.35-6.083 7.775-13.295 14.305-21.916 19.211-7.95 4.526-16.45 7.24-25.67 7.463-.414.01-.829.001-1.334.001-.024-.355-.063-.661-.063-.97-.004-5.293.011-10.586-.017-15.88-.004-.746.153-1.034.988-1.091 2.893-.202 5.59-1.199 8.21-2.356 10.211-4.515 18.966-11.083 26.686-19.047 4.919-5.075 9.328-10.539 12.319-17.008 2.568-5.553 4.241-11.39 5.518-17.348 1.743-8.128 2.88-16.348 3.28-24.644.39-8.1.523-16.212.77-24.319zm3.774 0c-.392 11.353-.506 22.706.034 34.057.522 10.955 1.471 21.861 3.971 32.58 2.539 10.893 7.575 20.573 14.441 29.35 6.083 7.775 13.295 14.305 21.916 19.211 7.951 4.526 16.45 7.24 25.671 7.463.413.01.828.001 1.333.001.024-.355.063-.661.063-.97.004-5.293-.01-10.586.017-15.88.004-.746-.153-1.034-.988-1.091-2.893-.202-5.59-1.199-8.209-2.356-10.212-4.515-18.967-11.083-26.687-19.047-4.918-5.075-9.328-10.539-12.318-17.008-2.568-5.553-4.242-11.39-5.519-17.348-1.743-8.128-2.88-16.348-3.28-24.644-.39-8.1-.523-16.212-.77-24.319z" style="fill:#fff;fill-opacity:1;fill-rule:nonzero;stroke:none;stroke-width:1.33333325"/><path d="M93.333 104H248v5.333H93.333Z" style="fill:red;fill-opacity:1;fill-rule:nonzero;stroke:none;stroke-width:1.33333325"/><path d="M211.426 85.866c-1.867 0-3.38-2.719-3.38-6.074 0-3.353 1.513-6.072 3.38-6.072s3.38 2.72 3.38 6.072c0 3.355-1.514 6.074-3.38 6.074m-24.715 0c-1.867 0-3.38-2.719-3.38-6.074 0-3.353 1.513-6.072 3.38-6.072 1.868 0 3.38 2.72 3.38 6.072 0 3.355-1.512 6.074-3.38 6.074m-24.17 2.528c-1.409-.04-2.765-1.484-2.707-2.882.064-1.509 1.273-2.826 2.581-2.808 1.528.022 2.847 1.267 2.844 2.69-.003 1.64-1.272 3.04-2.717 3m-.15-17.03c1.212-.013 2.216 1.142 2.183 2.508-.032 1.271-1.068 2.27-2.279 2.2-1.162-.068-2.033-1.138-2.026-2.492.004-1.137 1.026-2.202 2.122-2.216m58.271-2.44c-5.076-7.253-15.559-6.29-19.807 1.552-.809 1.492-1.317 3.158-2.06 4.982-.506-1.366-.909-2.636-1.437-3.85-3.577-8.24-13.67-9.462-19.255-3.58-2.94 3.095-4.205 7.003-4.116 11.36.022.995.004 1.994.004 3.015l-4.618-3.139c.586-.344 1.108-.63 1.612-.946 3.464-2.168 4.11-6.663 1.526-9.91-2.292-2.88-5.42-3.625-8.733-3.738-3.708-.127-7.41.068-10.825 2.888 0-1.47-1.694-2.036-1.694-2.036-.652.088-15.116.009-21.684 0-1.222-.002-1.62.574-1.572 1.742.076 1.895.16 3.791.14 5.686-.013 1.37.543 1.87 1.843 1.844 2.799-.058 5.601-.02 8.401-.02 1.064 0 1.51.253.94 1.505-2.62 5.764-5.146 11.572-7.732 17.355-.657 1.47-.472 1.896 1.116 1.892 2.54-.006 5.086-.024 7.616-.218.586-.045 1.392-.696 1.635-1.276 2.22-5.309 7.725-18.857 8.345-20.282l.412.057c.32 2.71 2.132 4.19 4.372 5.515-.825.521-1.453.844-2.004 1.276-4.346 3.402-3.792 9.85 1.12 12.958 4.682 2.964 9.646 3.006 14.708 1.331 3.17-1.05 5.412-3.073 5.912-6.703.03-.209.23-.394.46-.768 2.668 5.775 6.648 9.01 12.97 8.188 6.441-.838 9.085-5.557 10.676-11.605.67 1.647 1.192 2.943 1.725 4.233 1.939 4.678 6.737 7.751 11.632 7.272 5.184-.506 8.63-3.469 10.364-8.494 2.188-6.346 1.83-12.624-1.992-18.087" style="fill:red;fill-opacity:1;fill-rule:nonzero;stroke:#500;stroke-width:2.66666672;stroke-opacity:1;stroke-miterlimit:4;stroke-dasharray:none"/><path d="M77.874 96h-4.439q-.46 0-.805-.32a1 1 0 0 1-.344-.75v-9.597h1.72V94.4h3.868zm2.794 0h-1.72V85.333h1.72zm6.728-2.93q0-.525-.436-.93a1.42 1.42 0 0 0-.998-.406h-2.148v2.664h2.148q.562 0 .998-.406t.436-.922m-.721-4.806q0-.516-.436-.922-.445-.415-.99-.415h-1.435v3.204q2.861-.415 2.86-1.867m2.442 4.806q0 1.155-.956 2.048-.948.882-2.198.882h-2.72q-.46 0-.804-.32-.344-.321-.344-.75v-8.534q0-.423.344-.742.344-.32.805-.32h2.005q1.21 0 2.182.836.966.828.965 1.96 0 1.431-1.276 2.268a3.1 3.1 0 0 1 1.435 1.062q.561.734.562 1.61M97.061 96h-2.005l-2.365-3.453q-.504-.736-.504-1.119 0-.725.486-1.085.034-.023 1.134-.587 1.25-.649 1.249-1.492 0-.509-.444-.923-.445-.413-.99-.413h-1.72V96h-1.72v-9.604q0-.423.343-.743.345-.32.806-.32h2.29q1.21 0 2.182.836.966.829.965 1.962 0 1.125-.815 2.032a4.16 4.16 0 0 1-1.988 1.234zm6.653 0h-4.438q-.46 0-.806-.32a1 1 0 0 1-.344-.75v-8.534q0-.422.344-.743.345-.32.806-.32h4.438v1.595h-3.868v2.937h2.434v1.603h-2.434v2.93h3.868zm7.156-9.073h-2.29V96h-1.72v-9.072h-2.29v-1.594h6.3zM118.606 96h-2.005l-2.366-3.453q-.504-.736-.504-1.119 0-.725.487-1.085.034-.023 1.133-.587 1.25-.649 1.25-1.492 0-.509-.444-.923-.446-.413-.991-.413h-1.72V96h-1.72v-9.604q0-.423.344-.743.346-.32.805-.32h2.291q1.208 0 2.181.836.966.829.966 1.962 0 1.125-.815 2.032a4.16 4.16 0 0 1-1.988 1.234zm5.294-2.93v-4.806q0-.516-.436-.922-.445-.415-.999-.415t-.998.415q-.436.405-.436.922v4.806q0 .515.436.922.436.405.998.406.563 0 .999-.406t.436-.922m1.72 0q0 1.155-.956 2.048-.948.882-2.199.882-1.233 0-2.198-.882-.948-.9-.948-2.048v-4.806q0-1.158.948-2.04.957-.89 2.198-.89 1.251 0 2.199.89.956.882.956 2.04z" style="fill:#231f20;fill-opacity:1;fill-rule:nonzero;stroke:none;stroke-width:1.33333325"/><path d="m272 101.333-58.667-58.666H272z" style="fill:#ff0;fill-opacity:1;fill-rule:nonzero;stroke:none;stroke-width:1.33333325"/><path d="M146.186 274.93q.001-.507-.442-.922-.443-.414-.986-.414h-1.712v3.204q3.14-.468 3.14-1.868m1.704-.133q0 2.634-4.844 3.603v4.266h-1.713v-9.604q0-.423.343-.742.341-.32.801-.32h2.281q1.203 0 2.172.837.96.828.96 1.96m6.91 7.87h-1.596l-1.889-2.759q-.4-.585-.4-.899 0-.585.584-.985.285-.148.56-.296l.56-.305q.585-.382.585-.946 0-.422-.342-.742a1.14 1.14 0 0 0-.803-.32h-1.37v7.252h-1.37v-7.682q0-.337.276-.594a.93.93 0 0 1 .643-.258h1.821q.977 0 1.737.664.769.672.77 1.571 0 .899-.652 1.625-.637.719-1.588.994zm4.36-2.344v-3.846q0-.422-.342-.742a1.14 1.14 0 0 0-.803-.32q-.46 0-.801.32a.98.98 0 0 0-.335.742v3.846q-.001.429.335.742.341.32.801.32t.803-.32q.342-.321.341-.742m1.361 0q0 .92-.76 1.633-.76.71-1.745.71t-1.747-.71q-.758-.712-.758-1.633v-3.846q0-.92.758-1.633.761-.71 1.747-.71t1.745.71.76 1.633zm7.343-.587q0 1.157-.952 2.047-.946.885-2.179.884-1.245 0-2.173-.884-.936-.898-.97-2.047h1.712q.077.525.47.931.399.398.961.399.634 0 1.052-.51.367-.46.367-1.094 0-.515-.435-.922-.434-.406-.984-.406-1.237 0-2.197-.883-.946-.898-.946-2.056v-.265q0-1.155.946-2.039.95-.891 2.197-.89 1.233-.001 2.163.89.936.884.968 2.039h-1.712a1.52 1.52 0 0 0-.467-.93 1.3 1.3 0 0 0-.952-.406q-.653 0-1.036.493a1.7 1.7 0 0 0-.395 1.108q0 .525.435.93.434.407.996.407c.821 0 1.55.296 2.179.891q.951.884.952 2.039zm6.525-5.603-2.398 4.478v4.056h-1.37v-4.056l-2.38-4.478h1.578l1.486 2.775 1.48-2.775zm5.371 6.19q0 .913-.768 1.633-.761.71-1.737.71c-.66 0-1.236-.234-1.738-.702q-.743-.713-.777-1.641h1.37q.067.429.375.742.326.32.77.32.508 0 .836-.414.298-.375.298-.868 0-.42-.341-.742a1.13 1.13 0 0 0-.793-.32 2.36 2.36 0 0 1-1.796-.774q-.72-.781-.72-1.79 0-.92.76-1.633.761-.71 1.756-.71.976 0 1.729.71.751.706.776 1.633h-1.37a1.28 1.28 0 0 0-.375-.742 1.03 1.03 0 0 0-.76-.32q-.52 0-.836.39-.31.384-.31.883 0 .43.344.75.341.32.802.32 1.06 0 1.804.79.701.766.7 1.775m5.875-4.908h-1.83v7.252h-1.362v-7.252h-1.828v-1.281h5.02zm5.304 7.252h-3.533a.94.94 0 0 1-.644-.258q-.276-.266-.276-.594v-6.83q0-.337.276-.594a.93.93 0 0 1 .644-.258h3.533v1.282h-3.084v2.344h1.939v1.282h-1.94v2.344h3.085zm9.063 0h-1.37v-4.854l-1.537 4.002q-.326.852-.91.852-.587 0-.92-.852l-1.538-4.002v4.854h-1.369v-7.682a.8.8 0 0 1 .259-.594.83.83 0 0 1 .602-.258q.552 0 .884.852l2.082 5.415 2.08-5.415q.325-.853.885-.852a.8.8 0 0 1 .593.258.8.8 0 0 1 .259.594z" style="fill:#231f20;fill-opacity:1;fill-rule:nonzero;stroke:none;stroke-width:1.33333325"/></svg>