<svg xmlns="http://www.w3.org/2000/svg" xml:space="preserve" width="256" height="256" viewBox="0 0 341.333 341.333"><g style="fill:#1c1c1c;fill-opacity:1"><path d="M0 0h-170.182c-14.182 0-18.909-4.833-18.909-19.333v-193.334c0-14.5 4.727-19.333 18.909-19.333H0c14.182 0 18.909 4.833 18.909 19.333v193.334C18.909-4.833 14.182 0 0 0" style="fill:#1c1c1c;fill-opacity:1;fill-rule:nonzero;stroke:none" transform="matrix(1.33333 0 0 -1.33333 284.121 16)"/></g><g style="fill:#0d0d0d;fill-opacity:1"><path d="M0 0c-46.696 0-84.541 37.864-84.541 84.585a84 84 0 0 0 3.864 25.281c4.591 14.599 2.353 28.62-12.139 45.502-4.296 5.006-6.643 11.663-6.643 18.778 0 16.485 13.362 29.854 29.837 29.854 12.91 0 21.563-9.339 28.063-19.669 7.579-12.051 16.814-17.847 29.435-16.026 3.953.567 8.006.866 12.124.866 46.696 0 84.541-37.865 84.541-84.586S46.696 0 0 0" style="fill:#0d0d0d;fill-opacity:1;fill-rule:nonzero;stroke:none" transform="matrix(1.33333 0 0 -1.33333 177.067 304.627)"/></g><g style="fill:#d40000"><path d="M0 0c0 11.045-8.955 20-20 20s-20-8.955-20-20 8.955-20 20-20S0-11.045 0 0" style="fill:#d40000;fill-opacity:1;fill-rule:nonzero;stroke:none" transform="matrix(1.33333 0 0 -1.33333 111.207 72.833)"/></g><path d="M0 0c.09-2.591.117-5.183-.008-7.774-.12-2.5-.34-4.99-.916-7.437-.586-2.486-1.748-4.696-3.333-6.699-1.404-1.775-3.068-3.265-5.058-4.385-1.834-1.033-3.795-1.653-5.924-1.704-.095-.002-.19 0-.307 0-.006.081-.015.151-.015.221 0 1.208.003 2.417-.004 3.625 0 .171.036.236.228.249.668.046 1.29.274 1.895.538 2.357 1.031 4.377 2.53 6.158 4.348 1.136 1.158 2.153 2.405 2.843 3.882.593 1.267.979 2.6 1.274 3.96.402 1.855.664 3.731.756 5.625.091 1.849.121 3.701.178 5.551z" style="fill:#f19b1f;fill-opacity:1;fill-rule:nonzero;stroke:none" transform="matrix(1.33333 0 0 -1.33333 276.753 32)"/><path d="M0 0c-.09-2.591-.117-5.183.008-7.774.12-2.5.34-4.99.916-7.437.586-2.486 1.748-4.696 3.333-6.699 1.404-1.775 3.068-3.265 5.058-4.385 1.834-1.033 3.795-1.653 5.924-1.704.095-.002.19 0 .307 0 .006.081.015.151.015.221 0 1.208-.003 2.417.004 3.625 0 .171-.036.236-.228.249-.668.046-1.29.274-1.895.538-2.357 1.031-4.377 2.53-6.158 4.348-1.136 1.158-2.153 2.405-2.843 3.882-.593 1.267-.979 2.6-1.274 3.96a34.4 34.4 0 0 0-.756 5.625C2.32-3.702 2.29-1.85 2.233 0Z" style="fill:#f19b1f;fill-opacity:1;fill-rule:nonzero;stroke:none" transform="matrix(1.33333 0 0 -1.33333 277.914 32)"/><path d="M0 0c-34.245 0-62 27.755-62 62s27.755 62 62 62 62-27.755 62-62S34.245 0 0 0m0 130c-37.555 0-68-30.445-68-68S-37.555-6 0-6s68 30.445 68 68-30.445 68-68 68" style="fill:#f19b1f;fill-opacity:1;fill-rule:nonzero;stroke:none" transform="matrix(1.33333 0 0 -1.33333 176 274.667)"/><g style="fill:#333;fill-opacity:1"><path d="M0 0c-3.125-.015-21.232-10.379-22.789-13.052-1.563-2.677-1.523-23.327.05-25.99C-21.166-41.715-3.02-52 .11-52h.01c3.131.01 21.242 10.384 22.789 13.052 1.563 2.668 1.523 23.327-.055 26C21.287-10.295 3.14 0 0 0" style="fill:#333;fill-opacity:1;fill-rule:nonzero;stroke:none" transform="matrix(1.33333 0 0 -1.33333 175.92 157.333)"/></g><g style="fill:#323232;fill-opacity:1"><path d="M0 0c-19.593 0-35.532-15.939-35.532-35.532S-19.593-71.064 0-71.064s35.532 15.939 35.532 35.532S19.593 0 0 0m0-73.532c-20.952 0-38 17.048-38 38s17.048 38 38 38 38-17.048 38-38-17.048-38-38-38" style="fill:#323232;fill-opacity:1;fill-rule:nonzero;stroke:none" transform="matrix(1.33333 0 0 -1.33333 176 144.624)"/></g><g style="fill:#323232;fill-opacity:1"><path d="M0 0c-26.221 0-47.554-21.333-47.554-47.554 0-26.22 21.333-47.553 47.554-47.553s47.554 21.333 47.554 47.553C47.554-21.333 26.221 0 0 0m0-97.554c-27.57 0-50 22.43-50 50 0 27.571 22.43 50 50 50s50-22.429 50-50c0-27.57-22.43-50-50-50" style="fill:#323232;fill-opacity:1;fill-rule:nonzero;stroke:none" transform="matrix(1.33333 0 0 -1.33333 176 128.595)"/></g><g style="fill:#0d0d0d;fill-opacity:1"><path d="M0 0c-3.125-.015-21.232-10.379-22.789-13.052-1.563-2.677-1.523-23.327.05-25.99C-21.166-41.715-3.02-52 .11-52h.01c3.131.01 21.242 10.384 22.789 13.052 1.563 2.668 1.523 23.327-.055 26C21.287-10.295 3.14 0 0 0" style="fill:#0d0d0d;fill-opacity:1;fill-rule:nonzero;stroke:none" transform="matrix(.87262 0 0 -.87262 175.948 169.312)"/></g></svg>