<svg xmlns="http://www.w3.org/2000/svg" xml:space="preserve" width="256" height="256" viewBox="0 0 341.333 341.333"><g style="fill:#262626;fill-opacity:1"><path d="M0 0c-14.5 0-77.333-5-111.167-5C-145-5-207.833 0-222.333 0c-4.834 0-4.834-2.235-4.834-5v-20c0-2.765 0-5 4.834-5 1.285 0 2.972-.05 4.833-.12V-40c-2.673 0-4.833-2.235-4.833-5v-150c0-2.765 2.16-5 4.833-5H-4.833C-2.16-200 0-197.765 0-195v150c0 2.765-2.16 5-4.833 5v9.88c1.86.07 3.547.12 4.833.12 4.833 0 4.833 2.235 4.833 5v20c0 2.765 0 5-4.833 5" style="fill:#262626;fill-opacity:1;fill-rule:nonzero;stroke:none" transform="matrix(1.33333 0 0 -1.33333 318.889 37.333)"/></g><path d="M309.333 277.333H32V272h277.333Zm0-10.666H32v-5.334h277.333Zm0-10.667H32v-5.333h277.333Z" style="fill:#141414;fill-opacity:1;fill-rule:nonzero;stroke:none;stroke-width:1.33333325"/><g style="fill:#141414;fill-opacity:1"><path d="M0 0c0-2.765-2.214-5-4.952-5h-198.096C-205.786-5-208-2.765-208 0v90c0 2.765 2.214 5 4.952 5H-4.952C-2.214 95 0 92.765 0 90Z" style="fill:#141414;fill-opacity:1;fill-rule:nonzero;stroke:none" transform="matrix(1.33333 0 0 -1.33333 309.333 230.667)"/></g><path d="M0 0c0-3.18-2.353-5.75-5.263-5.75h-189.474C-197.647-5.75-200-3.18-200 0v80.5c0 3.18 2.353 5.75 5.263 5.75H-5.263C-2.353 86.25 0 83.68 0 80.5Z" style="fill:#000;fill-opacity:1;fill-rule:nonzero;stroke:none" transform="matrix(1.33333 0 0 -1.33333 304 224.333)"/><g style="fill:red"><path d="M0 0q.44-.862.44-.911a4 4 0 0 1-.264-.377 10 10 0 0 0-.264-.406 1.2 1.2 0 0 0-.341-.307 2.2 2.2 0 0 0-.485-.218 34 34 0 0 1-.748-.273 11 11 0 0 1-.638-.262 2.5 2.5 0 0 0-.688-.184l-.71-.084a3 3 0 0 0-.479-.074 7 7 0 0 0-.435-.015q-.165 0-.275.015a.6.6 0 0 0-.187.054l-.193.119a3 3 0 0 1-.182.109q-.186.1-.286.149-.132.069-.192.396-.061.327-.061.953 0 .436.275 1.387.276.952.275 1.27 0 .069-.022.193t-.022.203q0 .278.215 1.263.215.988.215 1.374a.29.29 0 0 1-.16.273q-.159.084-.159.252 0 .238.044.535.043.298.154.652.087.288.165.58.076.292.154.57.077.327.159.664.082.333.138.652.066.217.209.535.143.316.341.723.099.198.177.37l.165.371q.087.159.253.283.165.123.407.223.199.07.352.104.155.034.209.034.298 0 .435-.183.138-.183.138-.56 0-.119-.017-.272a1.7 1.7 0 0 0-.082-.352 9 9 0 0 0-.083-.356l-.06-.238a8 8 0 0 0-.033-.436 5 5 0 0 0-.055-.367 5 5 0 0 0-.177-.287l-.126-.778a3 3 0 0 1-.05-.441q0-.416-.236-1.045-.237-.629-.237-.956 0-.138-.055-.362a6 6 0 0 0-.165-.53 35 35 0 0 0-.193-.644 4 4 0 0 0-.093-.277l-.05-.347a8 8 0 0 0-.082-.465A35 35 0 0 1-4.045.51q-.127-.708-.127-1.065 0-.327.077-.505.078-.178.231-.178.695 0 1.404.138a11 11 0 0 1 1.48.406 1 1 0 0 1 .171.04l.171.06q.132.138.198.257.143.079.253.164.11.084.187.173" style="fill:red;fill-opacity:1;fill-rule:nonzero;stroke:none" transform="matrix(1.33333 0 0 -1.33333 50.664 212.393)"/></g><g style="fill:red"><path d="M0 0q0 .555.05.936.05.382.115.6a7 7 0 0 1-.055.346q0 .208.055.694.056.485.165 1.268.099.753.171 1.164t.104.501l-.049.366a3 3 0 0 1-.094.436L.22 6.47l-.055.118q.022.278.039.56.016.282.071.57a2.7 2.7 0 0 0 .105.624 4 4 0 0 0 .17.466 1 1 0 0 1 .072.138q.038.09.104.189l.199.713q.099.357.209.694.165.337.473.544.309.208.749.268.308.148.528.223.22.074.352.074a.3.3 0 0 0 .242-.109.47.47 0 0 0 .088-.307q0-.08-.088-.55-.087-.47-.275-1.303a9 9 0 0 0-.11-.658 20 20 0 0 0-.209-.907q-.165-.585-.325-1.283a24 24 0 0 1-.292-1.541 19 19 0 0 0-.121-.703 31 31 0 0 1-.236-1.471 5 5 0 0 1-.05-.649q0-.11.017-.208.016-.099.016-.189a.9.9 0 0 0-.005-.287 17 17 0 0 1-.061-.426L1.75.629a2 2 0 0 1-.033-.292q0-.505.028-.818.027-.312.06-.411.078-.267.154-.574 0-.169-.495-.501t-.716-.332a.37.37 0 0 0-.236.085q-.105.084-.215.252a3 3 0 0 0-.121.288.8.8 0 0 0-.044.237q0 .06.044.189a.7.7 0 0 1 .044.188 2.5 2.5 0 0 1-.198.495Q0-.665 0-.525Z" style="fill:red;fill-opacity:1;fill-rule:nonzero;stroke:none" transform="matrix(1.33333 0 0 -1.33333 52.646 213.397)"/></g><g style="fill:red"><path d="M0 0q-.418 0-.677-.054-.258-.055-.369-.174-.087-.08-.181-.307a6 6 0 0 1-.204-.623 4 4 0 0 1-.06-.485 6 6 0 0 1-.006-.585 2.6 2.6 0 0 0-.253-.435l.055-.256a11 11 0 0 1-.187-.793 3 3 0 0 1-.055-.396q0-.149.066-.208a.27.27 0 0 1 .187-.06q.11 0 .523.218.413.217 1.139.654.804.474 1.227.727.424.252.49.282l.281.312.269.302q.188.209.276.372a.64.64 0 0 1 .088.292.63.63 0 0 1-.165.424q-.165.189-.496.327a6 6 0 0 1-.39.119 8 8 0 0 1-.721.159L.264-.05Q.055 0 0 0m-2.135-7.427q-.177 0-.303-.273-.126-.272-.204-.807l-.088-.998-.088-.997a5 5 0 0 1-.11-.525l.022-.099.088-.04q.44.11.98.228.374 0 .446.065.071.064 1.777.749.727.278 1.09.52.363.244.363.421a.3.3 0 0 1-.099.208 1.3 1.3 0 0 1-.297.209 8 8 0 0 1-1.145.541q-.627.243-1.376.441-.099.03-.225.064-.127.035-.281.075-.242.1-.369.158a.5.5 0 0 1-.181.06m-3.38-4.7q.1.08.281.213.182.134.468.322.22.13.319.248a.38.38 0 0 1 .099.248 22 22 0 0 1-.011.794q0 .95.055 1.488.056.535.143.663l-.022.298-.066.069q0 .11.006.193.005.084.005.144 0 .546-.534.695t-.533.604q0 .14.308.342.308.204.902.491.078.483.165 1.058t.21 1.267q-.045.128-.066.213a.6.6 0 0 0-.022.153q0 .347.088.634.087.288.242.545.099.139.253.301.154.163.374.361.177.149.264.263t.088.183a.15.15 0 0 1-.071.129.36.36 0 0 1-.204.049q-.407 0-1.2-.232-.792-.234-1.188-.233a.5.5 0 0 0-.193.03.1.1 0 0 0-.061.099q0 .198.022.346a.7.7 0 0 0 .056.208q.186.13.291.248.105.119.105.238 0 .05.115.129.116.08.369.138 1.013.258 1.547.397l.611.158q.615.139 1.177.203.562.065 1.046.065.055 0 .22-.025a.5.5 0 0 1 .22-.005q.22.03.463.069.066 0 .385-.054l.891-.154q.121.02.265.05.318 0 .533-.089a.8.8 0 0 0 .336-.248q.155-.03.297-.03a1 1 0 0 0 .523-.143q.237-.144.413-.412.154-.256.242-.508.088-.253.088-.52a2.1 2.1 0 0 0-.248-.996 2.85 2.85 0 0 0-.743-.875 17 17 0 0 1-.533-.352 59 59 0 0 0-1.393-.896 2 2 0 0 1-.231-.169 3 3 0 0 0-.319-.228q-.903-.486-1.739-.929-.705-.347-1.068-.585t-.363-.337q0-.198.187-.352t.572-.272l1.266-.406q.704-.23 1.508-.547a1 1 0 0 0 .193-.079q.115-.06.258-.129.946-.316 1.404-.778.457-.46.457-1.066 0-.882-1.767-1.675-1.767-.795-5.289-1.507a3 3 0 0 0-.127-.278 5 5 0 0 1-.126-.267.5.5 0 0 0-.22-.173.8.8 0 0 0-.331-.065.42.42 0 0 0-.33.134q-.12.133-.165.421-.088.07-.143.059l-.627-.148a6 6 0 0 1-.226.104l-.215.094a.6.6 0 0 0-.176.144.3.3 0 0 0-.066.183q0 .088.072.144.071.054.214.133" style="fill:red;fill-opacity:1;fill-rule:nonzero;stroke:none" transform="matrix(1.33333 0 0 -1.33333 65.282 200.041)"/></g><g style="fill:red"><path d="M0 0q.209.138.396.272t.485.134q.132 0 .324-.261.193-.262.193-.391 0-.07-.055-.317-.056-.248-.176-.674-.253-.96-.286-1.202-.033-.243-.144-.758a3 3 0 0 1-.088-.337q0-.089.039-.128a.14.14 0 0 1 .105-.04q2.19.99 2.267 1.03a2.4 2.4 0 0 1 .374.129l.165.188q.639.366 1.321.781.429.298.639.585a.97.97 0 0 1 .209.575q0 .367-.474.721-.473.357-1.419.684-.804.287-1.464.421a6 6 0 0 1-1.2.134q-.705 0-1.062-.223A.73.73 0 0 1-.209.664q0-.337.055-.51Q-.099-.02 0 0m1.156-4.772q0-.198.313-.53.314-.332.942-.818.407-.306.842-.601.434-.291.864-.589l.484-.362.693-.52q.287-.198.6-.396a12 12 0 0 1 .677-.396q.243-.17.54-.367t.682-.428q.22-.119.341-.431t.143-.807l-.099-.258-.11-.049a.8.8 0 0 0-.291.084 6 6 0 0 0-.457.243q-.055.03-.501.218l-1.282.536a6.1 6.1 0 0 0-1.552.872 5 5 0 0 1-.479.327q-.292.178-.688.387a8.3 8.3 0 0 0-1.178.715q-.594.435-.969.663-.374.228-.517.228a.52.52 0 0 1-.121-.287 18 18 0 0 1-.281-1.176 75 75 0 0 1-.324-1.651q0-.168-.066-.253t-.199-.084q-.429 0-.649.188-.22.189-.22.565a8.4 8.4 0 0 0 .308 2.233q.055.267.083.48.027.213.027.391 0 .457-.435.785-.434.327-.434.465a.9.9 0 0 0 .071.382.6.6 0 0 0 .215.262q.363.208.671.397a.2.2 0 0 1 .105.133 1 1 0 0 1 .027.263v.424q.033.882.055 1.833v.218q0 .149-.022.387a2 2 0 0 0-.011.33q.011.153.011.282l-.115.342A.8.8 0 0 0-1.2.13q0 .12.022.372t.022.362q0 .138-.027.386a4 4 0 0 0-.028.376q0 .356.182.682.181.327.556.644.363.278.743.421.38.144.776.144.187 0 .556-.025.368-.024.577-.024.143 0 .782-.218.253-.02.451-.055.199-.035.319-.074.276-.12.43-.183.154-.065.22-.075l.325-.099a.8.8 0 0 0 .225-.099l.336-.139.435-.178q.396-.179.743-.416a7 7 0 0 0 .655-.514A2.9 2.9 0 0 0 7.628.72q.176-.342.176-.679 0-.099-.016-.282a4 4 0 0 0-.061-.411q-.033-.288-.33-.619Q7.1-1.603 6.538-2a10 10 0 0 0-.924-.578 3.8 3.8 0 0 0-.793-.331 1.2 1.2 0 0 1-.22-.169q-.11-.099-.462-.277a21 21 0 0 0-.958-.446Q2.08-4.287 1.618-4.44t-.462-.332" style="fill:red;fill-opacity:1;fill-rule:nonzero;stroke:none" transform="matrix(1.33333 0 0 -1.33333 74.821 202.551)"/></g><g style="fill:red"><path d="m0 0 .418-.911a3 3 0 0 0-.291-.213 6 6 0 0 0-.402-.243 7 7 0 0 1-.556-.198l-.743-.298a7 7 0 0 0-.523-.267.9.9 0 0 0-.281-.089q-.143 0-.522-.109a19 19 0 0 1-.997-.327 36 36 0 0 0-.699-.223 10 10 0 0 0-.765-.203l-.682.129-.418-.169q-.21 0-.424.005a5 5 0 0 0-.413.025 1.4 1.4 0 0 0-.479.079q-.159.069-.159.198l.066.377-.066.069q-.375 0-.501.089-.127.09-.127.416 0 .149.017.496.016.346.049.901 0 .05.072.208a.7.7 0 0 1 .072.228.6.6 0 0 0-.066.159.6.6 0 0 0-.012.109q.022.385.094.951.072.564.182 1.337.132.466.22 1.051-.023.435-.044.891.407 1.646.836 3.309.066.298.248.565.181.267.435.515a.7.7 0 0 1 .143.109 8 8 0 0 0 .352.525q.066.04.215.119l.402.218.253.188.33.258q.418.228.776.481.357.252.897.312a21 21 0 0 1 .991.059q.22.04.385.05.11.02.193.039.082.02.148.02t.182-.015l.313-.044q.154-.01.265-.01.11 0 .209.01.44-.12.649-.347a.78.78 0 0 0 .209-.545q0-.683-.148-1.016-.148-.331-.468-.331-.243 0-.55.222-.309.223-1.663.223l-1.111-.198a.4.4 0 0 0-.127-.119 1 1 0 0 0-.126-.059l-.386.129q-.175-.06-.396-.327a4.3 4.3 0 0 1-.462-.733.8.8 0 0 1-.083-.248 2 2 0 0 1-.027-.347 77 77 0 0 0-.397-1.377 24 24 0 0 0-.302-1.08 24 24 0 0 1-.193-.634.7.7 0 0 1-.022-.178.3.3 0 0 1 .055-.198q.055-.07.165-.07.1 0 .479.327.38.327.567.367.231.059.468.128.236.07.49.169.099.03.522.079.424.05 1.184.119l.308-.079.583.099.308-.129q.111-.099.204-.243.093-.142.171-.312 0-.594-.143-.901-.144-.307-.43-.307l-.605.218a246 246 0 0 0-2.972-.258q-.925-.168-1.42-.545a1.34 1.34 0 0 1-.55-.991 3 3 0 0 0-.077-.396q-.067-.268-.154-.664l.077-.297a10 10 0 0 1-.155-.803 5 5 0 0 1-.055-.673q0-.099.033-.144t.078-.025q.528.04.847.06.32.02.451.01l.584-.04.693.05q.11.02.479.158.369.14.666.139.319 0 .644.059.325.06.622.159.297.1.589.203.29.104.589.203.11.03.291.109.182.08.424.208" style="fill:red;fill-opacity:1;fill-rule:nonzero;stroke:none" transform="matrix(1.33333 0 0 -1.33333 97.452 212.393)"/></g><g style="fill:red"><path d="M0 0q.451.119.985.178.534.06 1.183.06.121 0 .358-.035t.38-.035q.209-.029.319-.059.121-.03.33-.069l.309.079a.6.6 0 0 0 .214-.074 5 5 0 0 1 .281-.144q.088.05.253.119.165 0 .27-.114a.6.6 0 0 0 .137-.322v-.312q0-.154-.022-.322a1 1 0 0 1 .011-.248q.022-.168.022-.257 0-.11-.055-.159a.2.2 0 0 0-.143-.05q-.419 0-.825.065a5.6 5.6 0 0 0-.815.193 11 11 0 0 0-.616-.089 1.2 1.2 0 0 1-.309-.06q-.099-.039-.099-.099a1 1 0 0 1 .122-.148 1 1 0 0 1 .187-.149.7.7 0 0 0 .176-.213q.099-.163.209-.441a1 1 0 0 0 .077-.396q0-.208-.044-.52a4 4 0 0 0-.099-.51 18 18 0 0 1-.154-.639 12 12 0 0 0-.088-.382 2 2 0 0 1-.033-.238 12 12 0 0 1-.022-.317 1.6 1.6 0 0 0-.088-.371 8 8 0 0 1-.155-.51q0-.129-.033-.298a7 7 0 0 0-.088-.386 2 2 0 0 0-.104-.292 3 3 0 0 1-.138-.382q.022-.148.033-.307l-.088-.575-.132-.861a59 59 0 0 1-.121-.843 9 9 0 0 1-.143-.267q0-.069.027-.213.028-.144.028-.233 0-.11-.044-.322a2 2 0 0 1-.044-.312q0-.188-.011-.585a25 25 0 0 1-.011-.594q.056-.168.099-.327a1.2 1.2 0 0 0-.072-.223.34.34 0 0 0-.104-.134 4 4 0 0 0-.363-.178 6 6 0 0 0-.182-.158q-.072-.06-.127-.06-.242 0-.341.06-.099.059-.099.158.022.327.077.634a1 1 0 0 0-.049.119 2 2 0 0 1-.083.198A43 43 0 0 1 0-11.384q.033.585.033 1.179 0 .277.028.699.027.421.104.976t.11.971.033.683q0 .119.028.302.027.184.06.451.033.228.066.411.033.184.033.332 0 .08-.011.169a3 3 0 0 1-.022.158q.111.248.165.401a.8.8 0 0 1 .055.204 4 4 0 0 1-.099.257q.066.139.143.5.078.362.166.947v.287q0 .169.011.406l-.066.179q-.045.02-.16.049a2 2 0 0 1-.292.05l-.143-.09-.292-.059a10 10 0 0 1-.313-.069q-1.144-.288-2.268-.565a.18.18 0 0 0-.143.064.26.26 0 0 0-.055.174q0 .059.055.208.056.149.176.386a8 8 0 0 0 .055.575q.033.228.077.346a.9.9 0 0 0 .27.367q.182.148.435.228.506.149.946.198Q-.374.04 0 0" style="fill:red;fill-opacity:1;fill-rule:nonzero;stroke:none" transform="matrix(1.33333 0 0 -1.33333 101.166 197.65)"/></g><g style="fill:red"><path d="M0 0q.435.271 1.291.271.655 0 1.459-.163a13 13 0 0 0 1.779-.511Q5.68-.8 6.255-1.234q.576-.431.576-.878 0-.348-.255-.698-.254-.35-.776-.711a72 72 0 0 0-1.605-.949l-.201-.229a3 3 0 0 0-.455-.156Q3.446-4.904.783-6.108a.17.17 0 0 0-.127.048q-.048.048-.047.157.053.252.107.409.134.627.174.922.04.293.348 1.461.147.518.214.819.066.3.067.385 0 .156-.234.476-.235.318-.395.317-.361 0-.589-.163a19 19 0 0 0-.482-.331q-.12-.024-.187.187-.067.21-.067.62 0 .53.435.801m13.595-19.04c-.169.106-.327.228-.517.308-.445.189-.859.398-1.157.712-.026.027-.067.047-.102.069-.305.194-.557.433-.91.587l-.02.015a8 8 0 0 0-1.306 1.111c-.392.409-.835.76-1.469.965a.56.56 0 0 0-.317.246.8.8 0 0 1-.233.222 5 5 0 0 1-.581.317c-.611.271-1.231.532-1.849.795-.175.075-.373.127-.423.3-.011.038-.085.067-.129.101q-.097.073-.189.148c-.109.091-.211.188-.327.274a7 7 0 0 1-.452.303c-.367.228-.74.452-1.107.68a.3.3 0 0 0-.119.108c-.131.252-.377.408-.715.509-.294.087-.519.238-.601.475-.046.135-.176.215-.322.295q-.257.139-.478.307c-.07.054-.131.113-.196.17q.087.19.2.425.583-.506 1.169-1.011a.9.9 0 0 1 .298-.173c.382-.118.702-.3 1.025-.485.342-.197.705-.374 1.058-.561.045-.023.083-.053.127-.076.118-.063.226-.145.357-.182.191-.053.335-.137.468-.245.667-.539 1.329-1.083 2.011-1.611a6.4 6.4 0 0 1 1.345-.821c.279-.122.554-.252.809-.398.445-.256.876-.526 1.31-.792.718-.441 1.385-.929 2.207-1.273.047-.02.082-.055.121-.084l.984-.723c.06-.044.108-.113.26-.071-.039.083-.045.198-.12.233-.178.083-.286.207-.426.312q-.798.6-1.599 1.196a.46.46 0 0 0-.195.262c-.033.141-.139.25-.31.322-.2.086-.394.185-.607.248a1 1 0 0 0-.518.324 3.6 3.6 0 0 1-.706.628c-.255.178-.502.364-.762.538-.653.437-1.33.849-2.126 1.146-.15.056-.273.156-.397.245-.211.151-.412.31-.617.466-.077.058-.173.108-.225.176-.166.218-.394.394-.651.553-.242.149-.493.291-.719.452a.94.94 0 0 1-.469.198c-.171.017-.284.083-.362.194-.234.334-.595.586-.982.825q-.713.437-1.415.886.116.228.233.453c.218-.126.45-.24.687-.349a.4.4 0 0 1 .206-.04.48.48 0 0 0 .443-.158c.107-.11.208-.226.332-.325.226-.182.532-.312.675-.55.014-.022.05-.041.081-.055.353-.158.518-.464.892-.607.037-.014.059-.051.083-.08.142-.176.343-.303.591-.391a.9.9 0 0 0 .405-.271c.122-.145.251-.286.375-.429.235-.271.545-.48.939-.622.225-.081.455-.156.672-.247.175-.074.35-.156.498-.255.369-.249.722-.511 1.083-.766.059-.042.12-.087.192-.116.684-.283 1.282-.65 1.869-1.027.201-.129.394-.272.552-.429a1.8 1.8 0 0 1 .451-.327c.573-.296 1.207-.53 1.732-.918.018.214-.016.378-.216.522a93 93 0 0 0-1.792 1.315c-.459.346-.892.711-1.352 1.056a19 19 0 0 1-1.128.783c-.271.174-.596.303-.865.478-.451.293-.878.607-1.315.912-.203.143-3.387 2.433-3.421 2.416a4.5 4.5 0 0 1-1.43 1.372c-.173.106-.318.237-.492.37q.006.009.013.016.011.005.014.016a.5.5 0 0 0 .16.148q.562.186 1.9.777a25 25 0 0 1 1.164.541q.429.217.562.338.094.096.268.204.441.121.963.404.522.282 1.124.702.683.483 1.044.886.362.404.401.752a5 5 0 0 1 .094.843q0 .41-.214.825-.214.416-.642.849a8 8 0 0 1-.797.625q-.42.288-.903.506l-.528.216-.408.169a1 1 0 0 1-.275.12q-.167.048-.394.121a1.3 1.3 0 0 0-.268.09l-.522.223a3 3 0 0 1-.388.09q-.24.042-.548.066-.777.265-.95.265-.255 0-.703.031-.448.03-.676.03-.481 0-.943-.175a3.6 3.6 0 0 1-.903-.512q-.455-.385-.676-.783a1.7 1.7 0 0 1-.22-.829q0-.156.033-.457t.033-.47q0-.132-.026-.44a6 6 0 0 1-.027-.451q0-.157.06-.331l.141-.416q0-.156-.014-.343a2 2 0 0 1 .014-.402q.026-.288.026-.469v-.265a146 146 0 0 0-.064-2.147 1.4 1.4 0 0 0-.427.291c-.06.063-.165.107-.259.149-.092.04-.174.022-.235-.049-.058-.068-.126-.13-.192-.194-.143-.139-.144-.284.024-.414.1-.078.232-.134.341-.206.176-.116.376-.219.446-.394-.27-.182-.409-.217-.71-.137-.489.128-.581.029-.755-.24q-.014-.017-.026-.036c-.151-.228-.138-.276.146-.416q.668-.33 1.337-.656 0-.223.005-.444c-.107.052-.21.109-.295.182q-.037.029-.081.055-.29.192-.583.38a2.25 2.25 0 0 1-.885.327c-.253.038-.499.101-.752.138-.188.028-.387.05-.594-.084l.075-.452c.038-.23.221-.368.524-.418.289-.048.578-.101.87-.125.269-.023.447-.111.55-.29.111-.195.298-.334.553-.437.169-.068.321-.164.463-.261l.19-.132c0-.09-.012-.195-.021-.296-.02.012-.036.025-.057.037a2.8 2.8 0 0 1-.947.331 2.6 2.6 0 0 0-1.086.429c-.04.027-.092.048-.128.078-.206.175-.481.182-.763.175-.12-.003-.223-.034-.253-.123-.031-.09-.008-.177.117-.229.112-.047.222-.101.342-.135.287-.082.48-.224.587-.434.121-.238.335-.375.69-.445.625-.123.614-.083.776-.552a.36.36 0 0 1 .285-.255.8.8 0 0 0 .218-.088 11 11 0 0 1-.182-.976 10 10 0 0 1-.087-1.291q0-.457.268-.686t.789-.229q.161 0 .241.103.081.102.081.307c.109.587.21 1.099.306 1.574.214-.178.423-.359.642-.532.315-.249.673-.468 1.011-.7.093-.065.194-.125.275-.197a3.85 3.85 0 0 1 1.47-.851c.145-.045.285-.1.429-.147.244-.079.439-.186.539-.381.061-.118.173-.225.275-.329.058-.059.139-.108.218-.153.25-.14.512-.27.756-.416.79-.474 1.566-.961 2.362-1.429.513-.301 1.054-.576 1.578-.867a66 66 0 0 0 1.134-.654c.261-.153.509-.317.774-.465.25-.139.514-.266.777-.393.2-.097.412-.181.612-.279q.277-.136.539-.287c.216-.125.466-.227.567-.433.007-.014.039-.021.061-.033.094.222-.057.514-.336.569-.251.05-.437.13-.555.297-.017.023-.049.042-.076.06-.43.289-.849.589-1.295.865-.758.47-1.534.925-2.235 1.443a1.9 1.9 0 0 1-.535.248c-.513.165-.978.376-1.381.664-.227.162-.452.319-.625.516-.07.081-.195.142-.309.195-.232.106-.492.184-.707.305-.294.164-.554.362-.836.538-.112.07-.185.144-.213.252-.021.076-.056.173-.131.216-.369.208-.681.49-1.19.531a.75.75 0 0 0-.577.313 2.3 2.3 0 0 1-.357.386c-.203.167-.437.314-.653.474q-.932.685-1.862 1.374.084.387.164.706c.162-.194.386-.323.675-.404.109-.031.222-.073.305-.131.355-.248.689-.514 1.052-.755.846-.561 1.705-1.113 2.559-1.668a.4.4 0 0 1 .114-.057c.433-.12.783-.334 1.147-.534.238-.131.468-.275.73-.373a2.7 2.7 0 0 0 .756-.441q.206-.167.425-.324c.233-.165.474-.324.711-.487.121-.084.263-.158.354-.257.232-.252.558-.387.945-.463a.4.4 0 0 0 .168-.067c.329-.274.752-.463 1.15-.674.376-.199.758-.393 1.128-.598.274-.153.539-.314.709-.541.021-.028.056-.063.093-.071.326-.069.529-.244.716-.433.059-.06.127-.112.228-.064.118.057.055.131 0 .195a.5.5 0 0 1-.11.091" style="fill:red;fill-opacity:1;fill-rule:nonzero;stroke:none" transform="matrix(1.33333 0 0 -1.33333 111.179 201.419)"/></g><g style="fill:red"><path d="M0 0q-.264 0-.539-.059a4 4 0 0 1-.562-.169l-1.067-.426a1.2 1.2 0 0 1-.248-.158 2.4 2.4 0 0 1-.303-.298l-.506-.564q-.243-.258-.429-.942-.187-.683-.331-1.783a23 23 0 0 1-.198-2.913q0-1.258.43-1.877.43-.62 1.298-.619.408 0 .914.193t1.101.589q.506.337.891.679t.639.698q.11.14.346.585.237.445.655 1.219.276.565.43 1.144t.154 1.194q-.066.297-.143.584l.077.426q-.11.12-.187.218l-.055.129q-.342 1.07-.925 1.61Q.858 0 0 0m-6.604-4.845a.75.75 0 0 0 .082.307q.083.179.248.407.231.297.347.465a1 1 0 0 1 .126.218q.055.11.149.288l.214.406q.11.108.254.47.143.362.33.956.088.159.187.382.1.222.242.53.044.228.165.535t.308.684q.232.356.485.703t.726.515a1.2 1.2 0 0 0 .286-.218q.099-.11.099-.208 0-.248-.247-.659-.248-.41-.248-.56 0-.078.099-.148.088.04.319.238.232.198.606.535.308.257.556.421t.467.203q.144.05.364.089t.495.129q.143.069.231.138.078.06.242.119l.165-.029q.1-.09.551-.184t.572-.094a1.3 1.3 0 0 0 .231-.158 3 3 0 0 1 .342-.238 2.8 2.8 0 0 0 .82-.699 5 5 0 0 0 .688-1.144q.285-.624.434-1.189.149-.564.149-1.09 0-1.654-.462-2.873-.464-1.218-1.398-2.001l-.215-.193a13 13 0 0 0-.314-.273v-.109a.5.5 0 0 0-.126-.213 3 3 0 0 0-.292-.262q-.407-.337-.825-.679a23 23 0 0 0-.859-.669 6.4 6.4 0 0 0-1.046-.673 4 4 0 0 0-.957-.347 1.4 1.4 0 0 0-.49-.243 2.6 2.6 0 0 0-.71-.084 5.5 5.5 0 0 0-1.002.074q-.385.075-.55.213a2 2 0 0 1-.231.179 5 5 0 0 0-.308.228q-.188.128-.353.47t-.297.887a9 9 0 0 0-.137.787 6 6 0 0 0-.05.709q0 .099.055.327t.044.347q0 .227-.022.396 0 .178.121.565t.121.614q0 .05-.066.148a1.4 1.4 0 0 1-.253-.327.45.45 0 0 0-.154-.148.34.34 0 0 0-.165-.05.23.23 0 0 0-.193.09q-.072.088-.071.267 0 .118.06.357.061.237.061.366" style="fill:red;fill-opacity:1;fill-rule:nonzero;stroke:none" transform="matrix(1.33333 0 0 -1.33333 132.693 201.151)"/></g><path d="M0 0c0-.978-.881-1.771-1.968-1.771S-3.936-.978-3.936 0s.881 1.771 1.968 1.771S0 .978 0 0" style="fill:#ff0;fill-opacity:1;fill-rule:nonzero;stroke:none" transform="matrix(1.33333 0 0 -1.33333 47.915 222.102)"/><path d="M0 0c0-.978-.881-1.771-1.968-1.771S-3.936-.978-3.936 0s.881 1.771 1.968 1.771S0 .978 0 0" style="fill:#ff0;fill-opacity:1;fill-rule:nonzero;stroke:none" transform="matrix(1.33333 0 0 -1.33333 55.808 222.102)"/><path d="M0 0c0-.978-.881-1.771-1.968-1.771S-3.936-.978-3.936 0s.881 1.771 1.968 1.771S0 .978 0 0" style="fill:#ff0;fill-opacity:1;fill-rule:nonzero;stroke:none" transform="matrix(1.33333 0 0 -1.33333 63.702 222.102)"/><path d="M0 0c0-.978-.881-1.771-1.968-1.771S-3.936-.978-3.936 0s.881 1.771 1.968 1.771S0 .978 0 0" style="fill:#ff0;fill-opacity:1;fill-rule:nonzero;stroke:none" transform="matrix(1.33333 0 0 -1.33333 71.596 222.102)"/><path d="M0 0c0-.978-.881-1.771-1.968-1.771S-3.936-.978-3.936 0s.881 1.771 1.968 1.771S0 .978 0 0" style="fill:#ff0;fill-opacity:1;fill-rule:nonzero;stroke:none" transform="matrix(1.33333 0 0 -1.33333 79.49 222.102)"/><path d="M0 0c0-.978-.881-1.771-1.968-1.771S-3.936-.978-3.936 0s.881 1.771 1.968 1.771S0 .978 0 0" style="fill:#ff0;fill-opacity:1;fill-rule:nonzero;stroke:none" transform="matrix(1.33333 0 0 -1.33333 87.383 222.102)"/><path d="M0 0c0-.978-.881-1.771-1.968-1.771S-3.936-.978-3.936 0s.881 1.771 1.968 1.771S0 .978 0 0" style="fill:#ff0;fill-opacity:1;fill-rule:nonzero;stroke:none" transform="matrix(1.33333 0 0 -1.33333 95.277 222.102)"/><path d="M0 0c0-.978-.881-1.771-1.968-1.771S-3.936-.978-3.936 0s.881 1.771 1.968 1.771S0 .978 0 0" style="fill:#ff0;fill-opacity:1;fill-rule:nonzero;stroke:none" transform="matrix(1.33333 0 0 -1.33333 103.17 222.102)"/><g style="fill:#141414;fill-opacity:1"><path d="M0 0c-20.303-.78-75.197-5.278-106-5.278S-191.697-.78-212 0v-10.029H0Z" style="fill:#141414;fill-opacity:1;fill-rule:nonzero;stroke:none" transform="matrix(1.33333 0 0 -1.33333 312 77.625)"/></g><g style="fill:red"><path d="M0 0c.265-.051.32.215.478.226.535.037.398.523.55.814a.14.14 0 0 1-.036.17c-.053.047-.123.04-.162-.012C.541.818.227.454 0 0m-4.263-2.253c-.351-.222-.542-.476-.749-.708-.282-.317-.611-.478-1.042-.433-.239.024-.388.118-.454.356-.152.544-.08 1.069.053 1.612.265 1.077.63 2.118 1.147 3.087.248.464.309 1.07.862 1.358.228.119.316.152.505-.099.364-.483.136-.846-.086-1.263-.329-.619-.608-1.263-.932-1.884-.24-.46-.512-.902-.679-1.398-.088-.257-.18-.514-.254-.776-.029-.103-.041-.23.065-.309.109-.08.212-.024.304.042a8.4 8.4 0 0 1 1.585 1.491c.249.306.287.731.384 1.113.208.817.582 1.56.985 2.288.16.289.721.385.98.196.121-.088.26-.782.172-.937-.691-1.21-1.171-2.511-1.641-3.818-.062-.171-.1-.32.029-.486.149-.193.236-.257.387.013.144.255.358.469.538.704.059.078.136.181-.041.201-.081.009-.211-.038-.183.084s-.033.285.116.37c.063.036.121.084.187.111.769.314 1.024 1.103 1.508 1.678.56.666.992 1.449 1.739 1.943.147.097.088.245.095.373.015.292.185.324.363.184a.95.95 0 0 1 .541-.194c.23-.017.308-.136.262-.346-.405-1.887-.398-3.816-.572-5.727-.042-.463-.104-.925-.16-1.416-.175.142-.274.322-.262.519.017.279-.047.527-.167.767a.66.66 0 0 0-.075.32c.004.211-.061.389-.157.589-.159.33-.024.724-.066 1.091-.027.232 0 .472.01.708.01.235-.105.295-.298.211-.224-.098-.45-.2-.657-.331a2.1 2.1 0 0 0-.618-.294c-.264-.069-.387-.365-.499-.6a15 15 0 0 0-1.027-1.848c-.254-.384-.572-.722-.81-1.128-.083-.143-.359-.177-.553-.242-.067-.022-.141-.008-.181-.089-.056-.111-.134-.268-.264-.159-.109.093-.201.275-.069.432.242.288.356.651.566.957.052.076.154.164.08.262-.068.09-.178.044-.273.015-.578-.179-.812.005-.784.629.01.23-.033.464.09.781" style="fill:red;fill-opacity:1;fill-rule:nonzero;stroke:none" transform="matrix(1.33333 0 0 -1.33333 279.748 212.72)"/></g><g style="fill:red"><path d="M0 0c-.471.522-1.137.759-1.602 1.272-.204.224-.488.362-.707.55-.503.431-.999.887-1.515 1.295-.464.366-.76.887-1.266 1.214-.217.14-.425.283-.666.381-.193.078-.361.21-.243.451.116.238.291.089.441.025.067-.028.127-.079.204-.031-.213.347-.169.444.235.497.083.01.185-.021.207.096.016.084-.054.135-.116.176-.114.078-.264.165-.141.316.127.155.228.007.328-.087.249-.231.513-.204.699.086.161.249.39.444.51.725.105.244.069.422-.15.581-.43.313-.975.392-1.371.071a2.8 2.8 0 0 1-.612-.735c-.546-.935-.745-1.998-.978-3.044-.07-.314-.127-.631-.193-.946-.035-.17-.003-.424-.315-.257-.079.042-.12-.015-.134-.112-.053-.372-.329-.656-.408-1.02-.002-.012-.003-.035-.005-.035-.399.014-.395-.413-.622-.582-.115-.085-.254-.072-.24.126.02.293-.045.603.144.867.267.372.268.838.43 1.244.476 1.2.7 2.487 1.244 3.663.033.072.12.15.034.234-.081.078-.171.018-.23-.034-.388-.344-.696-.026-1.016.13-.065.032-.111.121-.194.157-.301.128-.175.281-.031.454.51.611 1.198.86 1.926 1.105.469.157.931.258 1.41.352.393.077.776.209 1.181.183 1.098-.07 2.338-1.164 1.641-2.563-.224-.452-.599-.78-1.023-1.046l-.346-.213c-.162-.102-.198-.216-.026-.345.319-.24.536-.573.781-.88.132-.166.275-.316.438-.449A31 31 0 0 0-.378 2.15c.423-.408.915-.741 1.359-1.128.116-.1.377-.243.257-.385C1.077.445.964.731.843.824c-.752.571-1.467 1.19-2.22 1.762-.748.569-1.396 1.261-2.06 1.932-.312.314-.731.52-1.142.802-.028-.236.095-.311.186-.395.299-.275.632-.517.899-.82a9 9 0 0 1 1.23-1.162c.741-.581 1.393-1.27 2.151-1.831.127-.094.261-.188.324-.347C.225.73.258.702.281.671.21.664.17.52.068.63c-.462.499-1.056.832-1.566 1.274-.751.652-1.42 1.406-2.293 1.915-.349.204-.449.674-.804.901-.155.1-.289.22-.551.176.335-.282.615-.557.889-.839.475-.487.95-.972 1.448-1.438.474-.443 1.005-.779 1.503-1.172.448-.353.837-.783 1.247-1.184C-.007.211.079.149 0 0" style="fill:red;fill-opacity:1;fill-rule:nonzero;stroke:none" transform="matrix(1.33333 0 0 -1.33333 294.351 221.174)"/></g><g style="fill:red"><path d="M0 0c-.12-.023-.239-.058-.36-.065-.198-.012-.373.04-.212-.296.091-.19-.172-.355-.364-.43a17 17 0 0 1-1.867-.887c-.123-.066-.164-.16-.195-.289A80 80 0 0 0-3.5-3.966c-.257-.958-.531-1.932-1.055-2.762-.502-.796-1.015-1.626-1.849-2.149-.562-.354-1.127-.405-1.744-.132-.471.21-.966.362-1.3.797-.052.068-.15.12-.165.192-.017.085-.17.164-.049.253.089.065.185.009.258-.07 1.089-1.174 2.129-.697 2.956.32.689.847 1.072 1.845 1.427 2.87.272.789.404 1.607.634 2.403.066.228.033.314-.237.271a30 30 0 0 0-1.959-.247.87.87 0 0 0-.539.153c-.091.059-.176.092-.095.221.039.063.075.159.003.204-.297.188-.302.304.067.365.052.009.061.073.028.121-.243.356.043.283.228.286.895.015 1.777.139 2.654.315.721.144 1.444.273 2.167.409.084-.208.223-.317.456-.282.275.04.283.272.34.469l1.271.206z" style="fill:red;fill-opacity:1;fill-rule:nonzero;stroke:none" transform="matrix(1.33333 0 0 -1.33333 263.61 207.685)"/></g><g style="fill:red"><path d="M0 0v.45c.001.089.003.19-.094.221C-.207.706-.28.621-.329.533Q-.748-.23-1.162-.996c-.025-.045-.043-.094.002-.135.046-.043.094-.023.122.021.109.172.296.204.459.283.371.181.765.355.579.827m-3.125-4.97c-.134.047-.018.217-.136.277-.107-.069-.193-.177-.201-.294-.022-.311-.335-.307-.482-.484-.081-.098-.161.033-.166.146-.006.17.076.311.147.456l1.234 2.491c.074.151.193.281-.038.428-.126.08-.073.263.076.277.563.049.644.56.791.921.188.465.48.853.706 1.287.254.488.532.964.788 1.452.081.152.121.342.32.117.04-.045.117-.06.121-.039.093.425.511.204.739.381.183.141.278.046.387-.216.396-.946-.002-1.874.019-2.806.024-1.063-.062-2.129-.034-3.195.003-.133.182-.539-.286-.331-.113.051-.086-.113-.1-.188-.013-.069.014-.167-.09-.173-.097-.005-.111.08-.109.157.007.203-.061.31-.282.354-.214.044-.157.265-.165.428l-.092 1.95c-.009.195-.153.306-.291.225-.339-.202-.73-.24-1.075-.414-.521-.263-.608-.817-.838-1.266-.286-.56-.511-1.153-.767-1.729-.037-.082-.048-.201-.176-.212" style="fill:red;fill-opacity:1;fill-rule:nonzero;stroke:none" transform="matrix(1.33333 0 0 -1.33333 263.12 212.173)"/></g><g style="fill:red"><path d="M0 0c-.323.062-.559-.165-.839-.238-.075-.019-.142-.147-.224-.051-.088.105.03.198.081.252.335.356.745.597 1.203.753.15.051.296.085.413.218.234.267.505.093.756.019.085-.025.1-.137.08-.227-.067-.316-.115-.638-.213-.944a4.55 4.55 0 0 1-.164-2.097c.013-.091.043-.177-.053-.229s-.154.017-.212.088c-.062.075-.145.133-.204.211-.158.211-.29.161-.444-.012-.471-.53-1.052-.602-1.685-.263-1.403.752-1.492 1.812-1.358 3.115.064.618.408 1.124.75 1.639.37.555.772 1.024 1.38 1.317.671.323.898.299 1.384-.262.032-.036.074-.064.112-.095.267-.218.244-.41-.081-.522-.334-.115-.671-.194-.995-.362-.754-.393-1.311-.967-1.646-1.737-.432-.991.208-2.272 1.234-2.551a.85.85 0 0 1 .706.092c.199.125.325.23.202.529-.132.323-.017.685.086 1.019C.35-.08.378.13 0 0" style="fill:red;fill-opacity:1;fill-rule:nonzero;stroke:none" transform="matrix(1.33333 0 0 -1.33333 269.109 214.114)"/></g><g style="fill:red"><path d="M0 0c-.287-.07-.427.125-.595.249-1.346.99-2.688 1.983-3.985 3.041-.745.609-1.465 1.241-2.109 1.954-.388.43-.775.85-1.26 1.165-.074.048-.075.09-.035.144.032.043.061.074.143.037.523-.235 1.102-.374 1.324-1.028.073-.217.28-.371.455-.529.201-.182.428-.338.573-.575.165-.27.361-.46.673-.596.343-.15.531-.55.852-.778.468-.333.909-.704 1.363-1.058Q-1.301 1.012 0 0" style="fill:red;fill-opacity:1;fill-rule:nonzero;stroke:none" transform="matrix(1.33333 0 0 -1.33333 296.92 223.98)"/></g><g style="fill:red"><path d="M0 0c.664-.158 1.084-.64 1.493-1.139C.925-.853.469-.417 0 0" style="fill:red;fill-opacity:1;fill-rule:nonzero;stroke:none" transform="matrix(1.33333 0 0 -1.33333 295.175 221.664)"/></g><g style="fill:red"><path d="M0 0c.321-.075.608-.201.805-.568C.382-.548.229-.215 0 0" style="fill:red;fill-opacity:1;fill-rule:nonzero;stroke:none" transform="matrix(1.33333 0 0 -1.33333 296.267 220.56)"/></g><g style="fill:red"><path d="M0 0c-.086.019-.158.082-.118.123.141.15-.034.449.239.519C.206.665.259.585.237.504.186.32.127.138 0 0" style="fill:red;fill-opacity:1;fill-rule:nonzero;stroke:none" transform="matrix(1.33333 0 0 -1.33333 284.56 218.991)"/></g><g style="fill:red"><path d="M0 0c-.283.004-.383.225-.56.323-.04.022-.065.082-.023.125.02.021.085.033.097.02C-.346.304-.07.287 0 0" style="fill:red;fill-opacity:1;fill-rule:nonzero;stroke:none" transform="matrix(1.33333 0 0 -1.33333 298.04 222.796)"/></g><g style="fill:red"><path d="M0 0c-.253-.089-.368.069-.474.236-.03.046-.016.115.043.11C-.217.329-.102.178 0 0" style="fill:red;fill-opacity:1;fill-rule:nonzero;stroke:none" transform="matrix(1.33333 0 0 -1.33333 298.375 221.992)"/></g><g style="fill:red"><path d="m0 0-.026-.079c-.068.037-.21.052-.167.137C-.148.149-.055.065 0 0" style="fill:red;fill-opacity:1;fill-rule:nonzero;stroke:none" transform="matrix(1.33333 0 0 -1.33333 298.667 222.107)"/></g><path d="M0 0c0-.523-.007-1.046.003-1.569.005-.245-.078-.358-.333-.379a13 13 0 0 0-2.093-.001c-.249.019-.36.136-.361.37q-.005 1.626.001 3.25c0 .107.003.256.153.248.121-.006.116-.14.117-.239.002-.211.006-.423-.001-.635-.009-.297.008-.574.323-.727.132-.064.118-.205.119-.33.003-.361 0-.722.01-1.083.012-.431.126-.547.547-.587l.037-.002C-.318-1.763-.241-1.69-.241-.512c0 .722-.002 1.444.002 2.166.001.101-.04.268.117.262.139-.004.121-.163.121-.272Q.001.822 0 0" style="fill:#ff0;fill-opacity:1;fill-rule:nonzero;stroke:none" transform="matrix(1.33333 0 0 -1.33333 270.625 205.286)"/><path d="M0 0c0-.436.004-.871-.001-1.307-.004-.306.15-.447.438-.488.706-.101.901.063.907.763.003.37-.102.768.328 1.016.131.076.117.289.118.453l.001 1.158c0 .091.012.198.107.213.132.021.163-.108.164-.2q.01-.915.004-1.829c-.001-.088-.031-.191-.11-.226-.382-.171-.33-.511-.331-.832-.002-.79-.028-.816-.796-.819H.792C-.262-2.1-.265-2.1-.281-1.055c-.004.239-.04.447-.28.558-.146.068-.169.2-.168.344.002.535.009 1.07.001 1.605-.003.257.128.362.355.376.229.014.342-.113.344-.337C-.024.994-.027.497-.027 0z" style="fill:#ff0;fill-opacity:1;fill-rule:nonzero;stroke:none" transform="matrix(1.33333 0 0 -1.33333 252.02 205.139)"/><path d="M0 0c.296.016.654-.074.732.364.034.193.017.398.004.596s-.139.322-.327.352a2.2 2.2 0 0 1-.803-.008c-.166-.032-.256-.131-.307-.284C-.916.367-.666.002 0 0m1.466-1.163q.001-.448-.001-.896c-.001-.098.003-.223-.128-.229-.134-.005-.139.122-.141.219-.005.373-.003.746-.005 1.119-.004.584-.079.66-.663.67q-.35.005-.699-.006c-.436-.016-.553-.14-.562-.595-.006-.336-.011-.672.001-1.007.01-.274-.123-.394-.371-.393-.237 0-.357.133-.357.376l-.001 1.642c.001.103.017.212.121.254.333.137.327.418.326.714-.005.928-.001.928.933.927.257 0 .515.003.772-.008.214-.01.34-.12.337-.354-.002-.224.013-.449.004-.672-.011-.255.034-.472.289-.589.136-.062.146-.185.145-.314z" style="fill:#ff0;fill-opacity:1;fill-rule:nonzero;stroke:none" transform="matrix(1.33333 0 0 -1.33333 273.562 204.868)"/><path d="M0 0v.001c.16 0 .319-.005.479.001.367.014.49.159.498.581.01.552-.1.732-.49.75-.319.015-.639.01-.958.001C-.698 1.328-.9 1.24-.926.986c-.071-.72-.043-1.054.742-.987C-.123.005-.061 0 0 0m-1.223-.34c0 .498.012.997-.004 1.494-.011.335.125.483.452.479a80 80 0 0 1 1.547-.001c.33.003.504-.139.489-.491-.009-.211.005-.423.003-.635-.003-.214.046-.394.262-.486.148-.064.179-.194.179-.338.002-.523 0-1.046.002-1.569 0-.122-.019-.245-.161-.245-.179.001-.114.161-.116.256-.009.349.005.698-.007 1.046-.014.39-.161.531-.548.539-.306.006-.614.002-.92-.004-.299-.006-.45-.168-.453-.469a78 78 0 0 1-.001-1.083c.001-.26-.085-.443-.375-.436-.288.007-.361.183-.353.449.013.498.004.996.004 1.494" style="fill:#ff0;fill-opacity:1;fill-rule:nonzero;stroke:none" transform="matrix(1.33333 0 0 -1.33333 259.283 204.867)"/><path d="M0 0c-.281-.011-.562-.043-.845.004-.206.035-.304.121-.303.337.003 1.096 0 2.192.002 3.288 0 .095-.012.223.13.217.113-.004.107-.118.109-.203.004-.187-.016-.376.006-.56.037-.305-.044-.662.347-.829.13-.056.089-.22.094-.34.015-.385.03-.771.035-1.156.004-.353.204-.483.517-.489C.35.263.608.269.866.264c.083-.002.188-.002.195-.12C1.068.025.963.005.881.003.588-.005.294 0 0 0" style="fill:#ff0;fill-opacity:1;fill-rule:nonzero;stroke:none" transform="matrix(1.33333 0 0 -1.33333 278.032 207.9)"/><path d="m0 0-.022 2.461c-.005.584-.114.686-.688.702-.167.004-.466-.1-.472.118-.008.288.302.161.472.165.637.016 1.275.008 1.912.004.128-.001.314.033.308-.164-.004-.18-.185-.106-.294-.126-.048-.009-.098-.002-.147-.002-.758-.004-.906-.179-.809-.941.016-.12.051-.236.15-.284.305-.147.3-.41.293-.69C.693.795.702.348.694-.1.691-.269.645-.426.438-.447c-.171-.017-.352-.049-.4.196.144.057.437-.067.418.149C.435.145.161-.025 0 0" style="fill:#ff0;fill-opacity:1;fill-rule:nonzero;stroke:none" transform="matrix(1.33333 0 0 -1.33333 263.975 207.294)"/><path d="M0 0c.161-.025.435.145.456-.102C.475-.318.182-.194.038-.251-.042-.178-.024-.089 0 0" style="fill:red;fill-opacity:1;fill-rule:nonzero;stroke:none" transform="matrix(1.33333 0 0 -1.33333 263.975 207.294)"/><path d="M0 0c0 .521-.002 1.043.002 1.564 0 .105-.033.266.116.269.15.002.119-.16.122-.265q.01-.353.001-.707C.235.61.277.387.531.273c.138-.062.151-.181.15-.31 0-.534-.007-1.067.003-1.601C.688-1.89.59-2.002.34-2.002s-.348.112-.343.364C.007-1.092 0-.546 0 0" style="fill:#ff0;fill-opacity:1;fill-rule:nonzero;stroke:none" transform="matrix(1.33333 0 0 -1.33333 255.768 205.216)"/></svg>