<svg xmlns="http://www.w3.org/2000/svg" xml:space="preserve" width="256" height="256" viewBox="0 0 341.333 341.333"><defs><clipPath id="a" clipPathUnits="userSpaceOnUse"><path d="M20 180h216V96H20Z"/></clipPath><clipPath id="b" clipPathUnits="userSpaceOnUse"><path d="M196.128 109.028h.106v-.061h-.106z"/></clipPath><clipPath id="c" clipPathUnits="userSpaceOnUse"><path d="M193.119 108.579h.118v-.07h-.118z"/></clipPath></defs><path d="M20.99 80h299.354c2.756 0 4.99 2.223 4.99 4.965v134.07c0 2.742-2.234 4.965-4.99 4.965H20.989c-2.756 0-4.99-2.223-4.99-4.965V84.965C16 82.223 18.234 80 20.99 80" style="fill:#454545;fill-opacity:1;fill-rule:nonzero;stroke:none;stroke-width:1.33333325"/><path d="M33.462 248H307.87c6.911 0 14.968.573 14.968 7.484s-5.562 12.473-12.473 12.473H30.968a12.446 12.446 0 0 1-12.474-12.473c0-6.91 8.058-7.484 14.968-7.484" style="fill:#3b3b3b;fill-opacity:1;fill-rule:nonzero;stroke:none;stroke-width:1.33333325"/><path d="M28.972 229.333h283.39c2.746 0 4.971 2.09 4.971 4.667v28c0 2.577-2.225 4.667-4.972 4.667H28.971c-2.745 0-4.971-2.09-4.971-4.667v-28c0-2.577 2.226-4.667 4.972-4.667" style="fill:#3b3b3b;fill-opacity:1;fill-rule:nonzero;stroke:none;stroke-width:1.33333325"/><path d="M23.65 213.333h294.034c2.752 0 4.982 1.343 4.982 3v18c0 1.658-2.23 3-4.982 3H23.65c-2.752 0-4.984-1.342-4.984-3v-18c0-1.657 2.232-3 4.984-3" style="fill:#3b3b3b;fill-opacity:1;fill-rule:nonzero;stroke:none;stroke-width:1.33333325"/><path d="M29.333 224H312v37.333H29.333Z" style="fill:#0e6654;fill-opacity:1;fill-rule:nonzero;stroke:none;stroke-width:1.3333333;font-variant-east_asian:normal;opacity:1;vector-effect:none;stroke-linecap:butt;stroke-linejoin:miter;stroke-miterlimit:4;stroke-dasharray:none;stroke-dashoffset:0;stroke-opacity:1"/><path d="M26.667 261.243h10.666v-31.91H26.667z" style="fill:#bc8a31;fill-opacity:1;fill-rule:nonzero;stroke:none;stroke-width:1.23268187"/><path d="M26.667 218.667h288v10.666h-288Z" style="fill:#ecf0f1;fill-opacity:1;fill-rule:nonzero;stroke:none;stroke-width:1.33333325"/><path d="M314.667 213.075h-288V94.55h288Z" style="fill:#0e6654;fill-opacity:1;fill-rule:nonzero;stroke:none;stroke-width:1.33333325"/><g clip-path="url(#a)" style="opacity:.5" transform="matrix(1.33333 0 0 -1.33333 0 341.333)"><path d="M0 0h197.379c5.142 0 9.311-4.274 9.311-9.545v-64.91c0-5.271-4.169-9.545-9.311-9.545H0c-5.142 0-9.31 4.274-9.31 9.545v64.91C-9.31-4.274-5.142 0 0 0" style="fill:#3b3b3b;fill-opacity:1;fill-rule:nonzero;stroke:none" transform="translate(29.31 180)"/></g><path d="M43.95 106.667h253.433c6.601 0 11.953 5.156 11.953 11.514v78.304c0 6.359-5.352 11.515-11.953 11.515H43.95c-6.603 0-11.955-5.156-11.955-11.515v-78.304c0-6.358 5.352-11.514 11.955-11.514" style="fill:#4b5da7;fill-opacity:1;fill-rule:nonzero;stroke:none;stroke-width:1.33333325"/><path d="M114.051 85.333h113.231a7.385 7.385 0 1 1 0 14.77h-113.23a7.384 7.384 0 0 1-7.385-7.386 7.384 7.384 0 0 1 7.384-7.384" style="fill:#3b3b3b;fill-opacity:1;fill-rule:nonzero;stroke:none;stroke-width:1.33333325"/><path d="M64 157.333 42.667 120h42.666z" style="fill:#fff;fill-opacity:1;fill-rule:nonzero;stroke:none;stroke-width:1.33333325"/><path d="M70.335 142.211c-2.81.447-5.054-.681-6.996-2.59-1.645-1.62-2.589-3.634-2.332-6.222a2.61 2.61 0 0 1 1.844-2.246c3.266-.986 5.683.381 7.731 2.418 1.19 1.182 2.05 2.598 2.276 4.327.017.13.064.259.115.38.022.053.09.09.301.285.113-.424.256-.753.284-1.093.236-2.896-.739-5.445-2.36-7.744-2.925-4.147-6.808-6.897-11.961-7.233-4.574-.298-8.375 3.668-7.75 8.253.911 6.685 7.698 12.764 14.411 13.023 1.239.048 2.505-.394 3.744-.68.304-.07.564-.339.836-.548a.19.19 0 0 0 .064-.2.184.184 0 0 0-.207-.13" style="fill:red;fill-opacity:1;fill-rule:nonzero;stroke:none;stroke-width:1.33333325"/><path d="M60.652 124.8c-1.395-.446-2.783-.421-4.15.104-.938.36-1.716.932-2.172 1.878-.489 1.013-.244 2.157.654 2.825.85.63 1.81.877 2.862.692l.002-.001c.078-.013.132.08.084.144-.274.363-.652.547-1.072.677-.482.15-.967.159-1.464.091a.6.6 0 0 0 .189.099c1.287.412 2.579.428 3.864.014 1.07-.345 1.947-.953 2.49-1.985.54-1.024.302-2.17-.646-2.83-.87-.607-1.836-.891-2.905-.68l-.052.004-.067-.152c.664-.749 1.548-.881 2.512-.824-.043-.018-.085-.04-.13-.056m9.089-12.755c-.242.287-.443.544-.663.772-.064.066-.18.06-.272.062-.528.007-1.056.004-1.583.008-.419.002-.704.42-.67.967.017.279.153.35.34.348l1.374-.013c.61-.004.897.433.772 1.207-.09.56-.2 1.116-.56 1.514-.224.25-.472.414-.773.415l-5.138.008c-.03 0-.062-.01-.132-.021.318-.411.558-.78 1.056-.758 1.123.054 2.247-.01 3.37.005.5.007.662-.357.7-.96.018-.292-.146-.377-.343-.374l-1.35.007c-.6.007-.867-.358-.783-1.127.085-.776.261-1.501.886-1.844.14-.077.298-.13.45-.137 1.062-.047 2.125-.08 3.188-.115.024 0 .05.013.132.036m3.731 1.829c-.217.992-.427 1.952-.65 2.98.16-.039.357-.043.525-.133.338-.184.581-.49.621-1.01.016-.22.083-.433.124-.65.145-.776.47-1.131 1.1-1.184.153-.014.308-.003.493-.003-.13.645-.276 1.265-.378 1.896-.064.389-.188.668-.475.841-.195.116-.37.29-.548.448a.95.95 0 0 1-.675.265c-1.366-.01-2.732.003-4.098.008h-.322c.09-.477.168-.908.252-1.337.052-.27.104-.544.174-.808.076-.288.118-.636.272-.833.356-.46.83-.535 1.344-.459l-.602 2.953c.175-.02.308.011.402-.056.302-.217.638-.402.676-.958.016-.242.093-.476.144-.714.189-.886.508-1.212 1.226-1.245.119-.007.238-.001.395-.001m6.918.006-.465 2.283c-.047.228-.119.452-.138.683-.029.377-.186.479-.452.465-.334-.016-.67-.004-1.053-.004l.572-2.81c-.761-.258-1.528.157-1.664 1.053-.145.964.012 1.26.792 1.276.05 0 .099.01.187.021-.219.295-.415.526-.726.48-.409-.058-.833-.044-1.224-.186-.462-.17-.617-.682-.489-1.29.29-1.362.839-1.9 1.941-1.916.78-.01 1.558-.036 2.335-.054.112-.003.224 0 .384 0m2.668 3.406c.14-.692.272-1.373.416-2.05.133-.63.026-.82-.488-.815-.258.004-.579-.08-.75.085-.16.153-.162.587-.23.897-.02.086-.043.174-.047.262-.039.716-.39 1.166-.79 1.576-.04.04-.09.085-.137.086-.256.008-.513.004-.806.004.112-.569.21-1.088.316-1.604.108-.53.23-1.056.33-1.589.035-.195.106-.243.25-.241.986.014 1.973.013 2.958.03.162.003.334.04.48.122.326.186.438.512.354.961q-.195 1.029-.408 2.05c-.019.087-.099.214-.154.217-.42.017-.84.009-1.294.009m-21.762-2.84c-.087 0-.19-.04-.256.007-.272.19-.634.33-.775.634-.196.423-.23.975-.315 1.476-.013.076.066.242.124.264.632.24 1.306-.266 1.472-1.09l.13-.65c.128-.642.128-.641-.38-.641m-1.07 2.881c-.39 0-.78.008-1.169 0-.47-.013-.63-.289-.515-.863.086-.423.163-.85.264-1.266a.7.7 0 0 1 .207-.346c.28-.244.564-.483.863-.682.168-.112.366-.197.553-.204a52 52 0 0 1 2.155-.009c.518.005.661.256.537.914-.044.229-.115.453-.133.684-.044.564-.262.94-.655 1.177-.187.113-.348.297-.536.405a1.3 1.3 0 0 1-.535.182c-.344.028-.692.008-1.037.008zm-11.178-1.796c.228 0 .458-.028.684.007.39.06.682-.202.956-.483.093-.096.1-.332.145-.504-.099-.043-.195-.113-.296-.121-.205-.02-.412-.01-.619-.003-.43.014-.844.516-.87 1.104m1.782 1.292c-.256.334-.52.528-.881.508-.637-.036-1.277 0-1.917-.004a1.1 1.1 0 0 1-.406-.086c-.194-.086-.296-.289-.25-.553q.146-.801.32-1.592a.46.46 0 0 1 .14-.221c.15-.135.324-.228.46-.379.48-.536 1.042-.603 1.645-.559.525.038 1.053-.012 1.58.014.445.02.615.388.447.916a.54.54 0 0 1-.162.24c-.334.28-.67.554-1.013.813a.56.56 0 0 1-.316.101c-.457.011-.916.001-1.373.007-.188.001-.316.25-.308.576.006.266.16.218.284.219zm3.137.505c.153-.767.29-1.483.445-2.192.028-.121.13-.235.218-.31.28-.24.565-.477.862-.683a.9.9 0 0 1 .463-.168c.64-.02 1.28-.012 1.92-.01.297.002.568.098.744.443.15.298.081.519-.128.732-.39.399-.825.368-1.301.32l.077-.406c.059-.323-.017-.492-.261-.576-.518-.178-1.127.289-1.256.957-.106.543-.223 1.081-.323 1.625-.036.199-.103.278-.264.272-.388-.013-.776-.004-1.196-.004" style="fill:#fff;fill-opacity:1;fill-rule:nonzero;stroke:none;stroke-width:1.33333325"/><path d="M46.102 112.951a34 34 0 0 1-.252 1.235.7.7 0 0 1-.154.293q-.502.538-1.156.432c-.19-.029-.26-.104-.202-.364q.197-.853.354-1.72c.042-.229.114-.329.296-.308.147.016.295.003.442.003v-.017c.138 0 .277-.003.414 0 .3.008.331.06.258.447m.68 1.78c.308-.205.516-.492.565-.961.03-.287.105-.566.167-.846.125-.586-.03-.901-.502-.91a110 110 0 0 0-2.648-.012 2 2 0 0 0-.205 0l-.548.004c-.067 0-.177.106-.195.189a2 2 0 0 1-.188.316c-.084.113-.174.25-.2.395-.177.948-.337 1.9-.5 2.852-.086.51-.168 1.022-.254 1.553.078.009.13.021.18.021h1.218c0-.003.146-.948.324-2.06.235.013.48.028.706.053.408.542 1.497 1.928 1.497 1.928h1.161l-1.464-1.897c.18-.065.348-.183.511-.327a4 4 0 0 1 .375-.298m8.563-1.899h-1.123c.06-.336.111-.62.151-.816-.512-.059-.965.015-1.321.494-.07.094-.143.204-.182.322h-.966q-.058.002-.09.068l-.212.477c-.04.09.01.201.09.201h1.037q-.193 1.088-.376 2.18c-.088.51-.168 1.022-.255 1.552.08.01.128.022.18.022h1.218c.001-.005.328-2.123.6-3.754h1.037c.037 0 .072-.025.09-.066l.213-.479c.038-.09-.01-.201-.09-.201m-5.724 57.557c-.872.004-1.72-.146-2.506-.626a3.55 3.55 0 0 1-1.512-1.85c-.203-.546-.27-1.123-.27-1.722-.004-1.803.64-3.201 1.79-4.285 1.19-1.122 2.542-1.703 4.038-1.838 1.14-.1 2.266.02 3.388.235.083.016.186.008.146.185-.228 1.012-.387 2.047-.655 3.046a2 2 0 0 1-.275.62c-.157.221-.39.302-.614.212-.227-.092-.31-.304-.327-.574-.02-.334.005-.673-.047-1.006-.085-.534-.26-.998-.705-1.21-.423-.204-.853-.193-1.28.003-.476.22-.863.59-1.217 1.025-.548.67-1.014 1.406-1.284 2.304a5.7 5.7 0 0 0-.216 1.723c.008.557.126 1.056.377 1.512.201.365.48.603.825.739.811.32 1.547.073 2.256-.408a6.7 6.7 0 0 0 1.023-.86c.179-.183.383-.298.625-.243.235.052.438.172.51.476.07.299.02.577-.162.803a3.8 3.8 0 0 1-.84.748c-.953.646-1.974.99-3.068.99m7.724.273c-.375.026-.81-.058-1.219-.23-.745-.317-1.353-.858-1.668-1.777-.141-.41-.164-.847-.126-1.29.086-1.046.5-1.887 1.092-2.622.33-.41.693-.768 1.105-1.05.37-.253.761-.415 1.185-.45a.8.8 0 0 1 .45.093c.225.119.282.334.182.608-.086.24-.244.415-.353.632-.165.324-.365.623-.519.955-.353.765-.598 1.573-.481 2.47.07.535.23 1.027.67 1.289.351.208.706.176 1.057-.005.542-.28.798-.858.989-1.482.19-.625.208-1.28.113-1.93-.078-.539-.31-.943-.776-1.087-.082-.025-.165-.012-.246-.028-.046-.009-.115.017-.13-.055-.013-.064.046-.102.083-.138.065-.062.136-.115.205-.17.81-.622 1.67-.82 2.607-.516.359.118.541.427.703.791.312.708.286 1.45.149 2.195-.075.408-.241.778-.43 1.134a4.5 4.5 0 0 1-.91 1.159 5.5 5.5 0 0 1-1.52 1.033 5.3 5.3 0 0 1-2.212.471m15.724-.967c.008-.015.041-.02.01-.048l-.008.05-.01.015zm-4.888-4.816q0-.013.006-.024.034-.013.034-.056a5 5 0 0 1 1.162-1.092c.452-.31.944-.52 1.473-.403.41.091.465.476.192.876-.264.387-.433.847-.693 1.223-.14.203-.187.436-.278.65-.192.454-.27.954-.321 1.455-.017.164.05.338.039.511-.014.02-.02.044 0 .059.008.005.023-.014.035-.02.01.37.14.677.326.958.054.083.105.178.174.236a.96.96 0 0 0 .446.196c.642.124 1.206-.272 1.53-.985.108-.237.215-.47.295-.723.047-.149.072-.306.09-.452.063-.54.083-1.088-.058-1.624q-.202-.782-.868-.905c-.087-.016-.173-.03-.273-.05.208-.26.468-.41.725-.562a2.68 2.68 0 0 1 1.659-.373c.338.034.685.104.938.41.2.242.332.551.416.878.198.758.134 1.513-.105 2.237a4.2 4.2 0 0 1-1.016 1.653c-.25.258-.505.506-.804.678-.153-.164-.132.057-.181.121q-.015.004-.023.023l-.036.045c-.47.273-.95.51-1.463.644-.48.127-.964.196-1.456.183-.41-.012-.817-.056-1.205-.23-.143-.064-.308-.08-.403-.266-.04-.079-.146-.027-.209-.09-.184-.188-.415-.298-.568-.534-.041-.064-.083-.138-.153-.164a6.6 6.6 0 0 1-.448-1.143c.078-.077.004-.164 0-.24a4.5 4.5 0 0 1 .28-1.803 3.5 3.5 0 0 1 .545-1.004c.045.001.076.02.108.067.047.067.117.004.128-.036.016-.057.14-.04.07-.1-.073-.064-.046-.173-.11-.224m10.123 1.236c.126-.079.18-.175.234-.263.355-.568.803-1.005 1.284-1.403a5 5 0 0 1 1.246-.748c.489-.209.994-.234 1.505-.22.124.004.093.1.077.182-.081.39-.168.778-.246 1.17-.135.674-.254 1.355-.428 2.018-.047.18-.114.345-.22.49-.126.168-.276.248-.458.2-.173-.045-.284-.196-.349-.393q-.059-.185-.112-.373c-.076-.274-.257-.367-.47-.392-.489-.062-.866.216-1.21.602a7.3 7.3 0 0 0-1.03 1.486 9.2 9.2 0 0 0-.677 1.728c-.034.122-.08.186-.2.182-.281-.01-.562-.004-.845 0-.65.014-1.087-.594-.904-1.438.264-1.222.521-2.446.759-3.675.158-.817.69-1.396 1.232-1.51.38-.08.733-.05 1.029.307a.62.62 0 0 1 .136.547c-.084.4-.185.793-.279 1.19z" style="fill:#fff;fill-opacity:1;fill-rule:nonzero;stroke:none;stroke-width:1.33333325"/><path d="M67.16 168.219c.112.402.27.78.448 1.144-.586.406-1.172.818-1.852.957-.67.136-1.324.095-1.929-.335-.652-.464-.857-1.196-.845-2.07.009-.74.201-1.43.364-2.127q.507-2.165 1.028-4.327c.181-.752.581-1.248 1.213-1.425.685-.192 1.199.401 1.043 1.232-.195 1.036-.436 2.059-.655 3.088-.199.932-.4 1.863-.588 2.799a4.3 4.3 0 0 0-.083 1.241c.055.604.4.85.862.616.32-.161.585-.428.858-.681q.067-.058.136-.112m5.965 1.531c.05-.063.028-.283.18-.12-.045.071-.097.131-.18.12m-.058.07.036-.047zm.005-.123.01-.05c.029.028-.003.033-.011.048zm-3.242-1.64c-.011.008-.027.026-.032.02-.023-.014-.015-.038-.002-.058zm3.24 1.638-.008.017.01-.014z" style="fill:#fff;fill-opacity:1;fill-rule:nonzero;stroke:none;stroke-width:1.33333325"/><path d="M302.171 202.667h-23.009a1.83 1.83 0 0 1-1.83-1.828v-23.011c0-1.01.82-1.828 1.83-1.828h23.01c1.009 0 1.827.819 1.827 1.828v23.01c0 1.01-.818 1.829-1.828 1.829" style="fill:red;fill-opacity:1;fill-rule:evenodd;stroke:none;stroke-width:1.33333325"/><path d="M289.96 189.013v-8.202h4.428c1.537 0 2.33 1.35 2.33 2.05s-.233 1.538-.838 2.051c.979.419 1.072 1.165 1.072 1.91 0 .746-.653 2.191-2.19 2.191zm1.91-1.724h1.865c.98 0 1.026-.618 1.026-.85 0-.234-.046-.875-1.072-.875h-.746v-1.305h.7c.885 0 1.025-.559 1.025-.839s-.117-.885-1.003-.885h-1.794z" style="fill:#fff;fill-opacity:1;fill-rule:evenodd;stroke:none;stroke-width:1.33333325"/><path d="M281.562 180.812v6.686h3.998v1.516h-5.802v-8.202zm6.813 8.203h-1.804v-8.203h1.804zm5.813 1.128v1.516h-4.332v1.759h3.976v1.4h-3.976v2.012h4.424v1.516h-6.227v-8.203zm.666 1.517v-1.516h6.722v1.516h-2.46v6.686h-1.803v-6.686z" style="fill:#fff;fill-opacity:1;fill-rule:nonzero;stroke:none;stroke-width:1.33333325"/><path d="M286.736 195.773c-.046-.609-.249-1.18-1.058-1.526.605-.512.838-1.352.838-2.05 0-.7-.792-2.052-2.33-2.052h-4.428v8.203h1.91v-6.479h1.795c.885 0 1.003.607 1.003.887 0 .279-.14.839-1.026.839h-.7v1.305h.747c1.025 0 1.072.64 1.072.873v2.574h2.191v-2.574z" style="fill:#fff;fill-opacity:1;fill-rule:evenodd;stroke:none;stroke-width:1.33333325"/><path d="M242.869 197.428c-.227.125-.503.139-.756.097.173.398.244.823.354 1.238.126.406.279.9.742 1.069.305.132.653.004.88-.203.357-.322.577-.75.789-1.164l.216-.44a1.9 1.9 0 0 1-.925-.246c-.275-.159-.338-.54-.675-.616-.241-.003-.424.168-.625.265m17.606-2.88c-.889.184-1.794.457-2.717.321a3.26 3.26 0 0 1-.232 1.692c-.116.063.096.146.124.048l.072.038c.075.2.312.276.519.296.53.048 1.06-.062 1.564-.208-.122-.107-.283-.207-.307-.374.016-.072.053-.136.087-.201.365.013.726.068 1.089.108.493-.345.804-.936.757-1.517-.005-.156-.118-.315-.292-.335-.228-.032-.457.05-.664.132m2.811-.93-.012.02c-.465.133-.91.32-1.372.463a2.8 2.8 0 0 1-.359 1.862c-.142.084.154.13.094 0l.13-.004c.008.116.155.145.255.138.395-.03.768-.182 1.112-.36-.112-.088-.245-.162-.316-.284-.05-.086.012-.176.036-.26q.425.013.843.079c.289-.32.505-.745.418-1.173-.046-.208-.124-.442-.329-.56-.167-.084-.343.025-.5.078m2.585-1.054c-.454.193-.908.39-1.364.58.178.692.026 1.424-.352 2.032.096-.056.231-.076.304-.158.155.095.346.083.518.04a3.3 3.3 0 0 0 .945-.406c-.167-.114-.38-.304-.195-.5.211.024.423.04.634.07.262-.333.521-.75.417-1.178a1.06 1.06 0 0 0-.67-.592zm-14.382-.93c-.402.056-.806.154-1.162.34-.414.279-.729.738-.708 1.23.02.476.303.9.628 1.249.602.616 1.394 1.103 2.282 1.247.669.097 1.388.08 2.004-.211.57-.257 1.1-.696 1.254-1.292.144-.527.099-1.17-.35-1.559-.539-.47-1.236-.77-1.955-.904-.653-.132-1.33-.188-1.993-.1m16.726-.253q-.58.325-1.178.624c.185.67.052 1.385-.239 2.01q.179-.113.34-.247c.19.186.463.028.655-.075.876-.508 1.1-1.65.784-2.517q-.179.105-.362.205m-32.272-.823c-.466.254-.877.655-.984 1.164-.122.607.132 1.258.607 1.679.301.277.703.44 1.113.51l.004.011c.25.016.508.091.755.028a4.43 4.43 0 0 0 2.393-.806c.515-.368.963-.908.967-1.54.02-.314-.179-.587-.39-.81-.46-.448-1.122-.649-1.765-.721-.921-.09-1.89.047-2.7.485m34.048-.357c-.189.145-.376.295-.577.427.264.433.16.954.084 1.422l.227-.253c.007.045.018.135.026.18.135-.044.267-.116.323-.247a2.3 2.3 0 0 0 .232-1.066c.007-.227-.081-.446-.057-.672a9 9 0 0 0-.258.209m-26.429-1.725a6 6 0 0 1 .025.584.74.74 0 0 1-.234.398 2.3 2.3 0 0 0-.114-.368c-.076-.184-.145-.368-.218-.553a15.2 15.2 0 0 0-4.296 1.179l-.09-.111-.308.165c.402.008.802.064 1.19.158.328.089.646.209.934.38l.01-.004c.16.114.317.237.457.376.368.406.426.996.209 1.481-.395.91-1.212 1.652-2.196 1.993a4.4 4.4 0 0 1-1.21.222 4.2 4.2 0 0 1-1.374-.18 3.4 3.4 0 0 1-.888-.462c.04.428.167.847.37 1.231-.183.083-.429.281-.266.485.22.216.556.274.857.328.802.927 1.876 1.61 3.002 2.146a14.7 14.7 0 0 0 2.904 1.025 6 6 0 0 1-.204-.767c-.05-.23-.075-.466-.143-.693-.223-.165-.395-.383-.447-.65a.86.86 0 0 1 .119-.518c-.023.197-.045.396.009.59a.9.9 0 0 0 .71.5c.183.02.349-.066.507-.138.194-.104.392-.223.622-.237.253.013.366.258.494.428h.005c.252.268.635.464 1.024.412.204-.024.372-.143.518-.271a2 2 0 0 0 .305-.488c.009 0 .03-.004.04-.005-.009.385-.299.713-.66.872-.033.167-.092.327-.145.487a5.6 5.6 0 0 1-.475.766c-.081.056.03.068.07.074.609.052 1.222.076 1.834.093 1.535.044 3.084.023 4.597-.253a14.4 14.4 0 0 0 3.071-.908c.767-.34 1.51-.778 2.05-1.4.487-.578.705-1.37.49-2.087a6.3 6.3 0 0 0-.765-1.55c.096.34.185.693.129 1.046-.02.223-.12.425-.203.63l.001.043h-.026a2.55 2.55 0 0 1-1.107.912c-1.53.664-3.49.295-4.623-.876-.489-.514-.94-1.145-.93-1.861.013-.577.449-1.061.968-1.33.869-.457 1.902-.567 2.882-.485.43.054.86.135 1.254.311q.204.092.418.159c-.386-.411-.84-.762-1.298-1.1a4 4 0 0 0-.396-.24c-1.916-1.039-4.07-1.679-6.267-1.912l-.201.513q-.098.25-.183.505c-.153-.138-.203-.334-.225-.525q.012-.272.04-.543a17 17 0 0 0-2.624.023m-2.684-.965c-.107.213.274.134.404.124.44-.014.877-.08 1.316-.122a3 3 0 0 0-.098-.173l-.072-.196-.054-.11c-.504.14-1.022.262-1.496.477m.6-.451c.264-.084.525-.175.789-.259l-.085-.182c-.238.141-.479.28-.703.441m6.099-.537-.047.146h-.01l-.073.155-.077.19-.061.136-.108.26c1.886.153 3.768.554 5.474 1.34 2.132.956 3.93 2.51 5.196 4.373.075.1.215.303.354.167.176-.354.113-.763.076-1.139-.098-.805-.667-1.465-1.252-2.023-.906-.829-1.982-1.477-3.108-2.009a17.6 17.6 0 0 0-6.364-1.596m-4.519.335c.007.029.021.088.03.117l.013-.004q.044.122.092.244l.08.237a26 26 0 0 1 3.18-.08l.109-.329q.056-.165.116-.332l.008.001.08-.228c-1.247 0-2.492.116-3.708.373m-.275-.605.075.163.087.197a17 17 0 0 1 3.989-.544q.088-.198.175-.399c.08-.18.165-.36.246-.54.138-.284.287-.562.42-.848.139-.214.239-.452.372-.669a36.6 36.6 0 0 0-5.364 2.64m15.643-3.056c-1.439.281-2.852.712-4.156 1.353-.632.324-1.263.687-1.73 1.211-.19.217-.351.497-.283.787.074.269.337.446.6.545a15 15 0 0 1 3.518 1.841c.806.58 1.56 1.243 2.128 2.038.314.453.606.965.587 1.521.001.225-.132.417-.23.613.46-.076.893-.24 1.329-.386a83 83 0 0 0 4.842-1.896c1.116-.483 2.234-.968 3.292-1.555.258-.137.51-.307.656-.555.242-.377.24-.842.15-1.262-.208-.832-.748-1.554-1.355-2.174-.743-.745-1.628-1.36-2.579-1.849-.59-.223-1.221-.341-1.848-.432-1.636-.22-3.306-.107-4.921.2m-8.764-.132c-.136.05-.285.076-.405.155-.112.165-.2.345-.298.52-.262.461-.497.934-.734 1.408q-.114.232-.223.468h-.01q-.1.233-.208.465c.456.023.916.064 1.37-.003a4.4 4.4 0 0 0 1.004-.277c2.386-.951 4.778-1.903 7.258-2.618 1.542-.445 3.126-.794 4.74-.91-.148-.04-.296-.091-.451-.11a16 16 0 0 0-2.167-.362c-3.341-.328-6.725.217-9.876 1.264m-19.376-3.236a1.3 1.3 0 0 0-.652.734 1.14 1.14 0 0 0 .059.947c.244.565.965.875 1.588.74.565-.1 1.037-.557 1.11-1.093a1.25 1.25 0 0 0-.433-1.139c-.437-.39-1.146-.464-1.672-.19m28.77-1.293c-.292.691-.126 1.568.5 2.05a1.48 1.48 0 0 0 1.237.273 1.6 1.6 0 0 0 1.117-.997q.073-.17.099-.348a1.6 1.6 0 0 0-.05-.828c-.143-.63-.767-1.167-1.473-1.151-.646-.004-1.209.452-1.43 1.001m-6.046.027c-1.437 1.157-2.533 2.637-3.468 4.17 3.267-1.047 6.744-1.582 10.199-1.371-.65-.262-1.196-.759-1.443-1.384a1.62 1.62 0 0 1 .088-1.412c.279-.484.771-.828 1.291-1.06.04-.011.152-.075.052-.095-.88-.333-1.833-.516-2.785-.463-1.467.072-2.834.731-3.934 1.615m4.798-2.56h1.006c.979.068 2.03.255 2.771.905.563.48.781 1.224.733 1.919-.048.724-.19 1.485-.666 2.079-.211.269-.527.441-.859.548 2.101.218 4.183.73 6.073 1.629 1.022.488 1.987 1.097 2.791 1.867.673.658 1.245 1.449 1.444 2.354a2.83 2.83 0 0 1-.088 1.555c.35.803.275 1.715-.009 2.525-.252.727-.733 1.402-1.424 1.822-.196.124-.439.113-.663.089-.325.456-.718.87-1.172 1.217.936.268 1.84.664 2.618 1.228.602.439 1.125 1 1.405 1.674.13.309.192.638.232.968v.393c-.03.192-.068.397-.204.552-.155.179-.475.22-.66.06-.088-.083-.059-.21-.063-.316.048-.404-.146-.779-.27-1.153-.263-.738-.735-1.423-1.423-1.868-.665-.48-1.504-.632-2.27-.915-.297-.13-.638-.096-.94-.215a4.8 4.8 0 0 1-.857.723c1.032.337 2.035.801 2.852 1.49.711.587 1.262 1.383 1.39 2.275.05.412.104.87-.122 1.247-.15.257-.617.336-.798.073-.084-.234.028-.49-.051-.728-.205-.66-.43-1.33-.852-1.9-.39-.536-.948-.95-1.559-1.245-.46-.199-.948-.333-1.425-.493-.27-.084-.54-.22-.835-.186-.185.016-.358-.052-.522-.121-.29.244-.616.443-.951.628.204.104.43.159.644.244.953.373 1.87.859 2.63 1.521.707.608 1.271 1.396 1.462 2.29.1.492.168 1.016-.007 1.5a.67.67 0 0 1-.49.432h-.206c-.13-.04-.285-.088-.32-.227-.063-.257.05-.528-.036-.783-.256-.818-.537-1.656-1.1-2.34-.457-.558-1.077-.992-1.75-1.301-.933-.361-1.914-.608-2.84-.984-.807.47-1.785.527-2.709.519a2 2 0 0 1-.714-.12c-.647.72-1.507 1.25-2.411 1.649-.852.364-1.745.637-2.653.845-1.43.319-2.903.414-4.37.419-1.497-.03-3.004-.06-4.481-.31-1.779-.282-3.481-.913-5.035-1.765-.122.382-.214.772-.301 1.163-.061.263.019.533-.032.797-.04.216-.35.292-.517.154-.227-.184-.26-.488-.291-.75-.043-.648.059-1.3.261-1.918a8.3 8.3 0 0 1-1.216-1.031c-.381.348-.69.765-.906 1.223-.302.629-.464 1.306-.62 1.978-.063.276.02.56-.04.836-.051.228-.402.268-.554.103-.205-.219-.233-.53-.254-.808-.026-.847.145-1.707.556-2.465a5.5 5.5 0 0 1 1.244-1.526c-.638-.785-.972-1.777-.908-2.762.013-.32.089-.632.156-.943.196-.43.314-.888.554-1.299.218-.252.372-.573.682-.737.357-.105.569-.42.862-.619.355-.234.703-.48 1.08-.681.234-.13.486-.232.698-.392a41 41 0 0 1 3.48-2.368c-.504-1.01-1.064-2.001-1.73-2.928-.717-.997-1.553-1.939-2.577-2.672-.928-.672-2.033-1.15-3.203-1.277-.941-.111-1.9.008-2.801.269.472.203.953.467 1.227.897.242.375.206.868-.038 1.234-.35.536-.984.889-1.644.972-.485.064-1.009-.082-1.34-.43-.365-.378-.493-.897-.549-1.392v-.576c.075-.464.328-.908.743-1.18.721-.484 1.642-.581 2.505-.608a11.4 11.4 0 0 1 3.152.419c1.423.436 2.608 1.357 3.623 2.364 1.328 1.341 2.39 2.899 3.238 4.544a35.7 35.7 0 0 1 5.842-2.75c1.164-1.922 2.53-3.777 4.321-5.237.741-.593 1.564-1.118 2.488-1.43.824-.267 1.696-.382 2.563-.443" style="fill:#000;fill-opacity:1;fill-rule:nonzero;stroke:none;stroke-width:1.33333325"/><path d="M270.25 189.99q-.132.104-.258.21c-.19.146-.378.294-.578.427.264.434.16.954.084 1.422q.112-.127.227-.254c.005.046.019.136.025.182.135-.044.268-.118.324-.247.16-.333.242-.703.232-1.068.007-.227-.082-.445-.057-.672m-2.034 1.39q-.58.325-1.178.624c.185.67.052 1.385-.239 2.01q.179-.113.34-.247c.19.186.463.028.655-.075.876-.508 1.1-1.65.784-2.517q-.179.105-.362.205m-1.855 2.841c.263-.333.522-.749.417-1.178a1.05 1.05 0 0 0-.668-.592l-.238.112c-.454.193-.908.39-1.364.581.178.69.026 1.421-.352 2.03.096-.055.231-.075.304-.157.155.095.346.083.518.04a3.3 3.3 0 0 0 .945-.406c-.167-.114-.38-.304-.195-.499.211.023.423.04.634.07m-2.575-.682c-.167-.085-.343.024-.5.078l-.012.02c-.465.133-.91.318-1.372.464a2.8 2.8 0 0 1-.359 1.86h.093l.131-.003c.008.115.155.144.255.137.394-.03.768-.181 1.112-.36-.112-.086-.246-.161-.316-.284-.05-.085.012-.176.036-.258a7 7 0 0 1 .842.078c.29-.32.506-.745.42-1.173-.048-.208-.125-.441-.33-.559m-2.646.875c-.228-.03-.458.05-.664.132-.89.184-1.795.46-2.718.322a3.26 3.26 0 0 1-.232 1.692l.123.048.072.037c.076.201.313.276.52.296.53.05 1.06-.06 1.563-.208-.122-.105-.283-.207-.307-.373.017-.072.055-.136.088-.202.365.014.727.07 1.088.11.495-.347.805-.938.759-1.519a.35.35 0 0 0-.292-.335" style="fill:#74b743;fill-opacity:1;fill-rule:nonzero;stroke:none;stroke-width:1.33333325"/><path d="M236.573 190.588c.776-.34 1.7-.28 2.472.041.488.203.956.532 1.144 1.018-.326-.208-.631-.444-.986-.61-.686-.346-1.514-.493-2.268-.258.363.017.728.192.854.528.037.136.054.276.06.416a.93.93 0 0 1-.632.66c-.246.021-.515.012-.72-.135-.21-.128-.316-.356-.364-.58-.001-.23.094-.444.218-.637-.418.248-.746.598-1.032.973.198-.6.639-1.147 1.254-1.416m15.295 1.247c.927-.166 1.895.1 2.663.592.468.304.905.726.998 1.273-.566-.607-1.234-1.165-2.057-1.437a3.5 3.5 0 0 0-1.212-.17c.272.203.437.552.29.868a3 3 0 0 1-.09.17c-.185.216-.487.28-.77.252-.16-.031-.293-.134-.407-.238-.21-.234-.182-.562-.068-.83-.37.156-.696.38-1.008.62a2.46 2.46 0 0 1 1.661-1.1" style="fill:#fff;fill-opacity:1;fill-rule:nonzero;stroke:none;stroke-width:1.33333325"/><path d="M259.557 180.583c.337.265.81.377 1.237.273a1.6 1.6 0 0 0 1.118-.997c.046-.112.081-.23.097-.35a1.6 1.6 0 0 0-.048-.826c-.144-.63-.768-1.167-1.473-1.15-.648-.005-1.211.451-1.431 1-.292.691-.125 1.567.5 2.05m-27.598-.566c-.438-.391-1.147-.464-1.672-.191a1.3 1.3 0 0 0-.652.735 1.13 1.13 0 0 0 .059.948c.245.564.965.873 1.587.738.566-.099 1.038-.556 1.11-1.093a1.25 1.25 0 0 0-.432-1.137m16.035 5.596q-.1.234-.21.466c.457.022.917.064 1.371-.003a4.4 4.4 0 0 0 1.004-.278c2.386-.95 4.778-1.902 7.258-2.617 1.542-.445 3.126-.795 4.741-.91-.15-.04-.297-.091-.452-.11a16 16 0 0 0-2.167-.363c-3.341-.328-6.725.218-9.876 1.264-.136.05-.285.076-.405.155-.112.165-.2.345-.297.52-.263.461-.498.935-.735 1.408q-.114.233-.223.468z" style="fill:#eac500;fill-opacity:1;fill-rule:nonzero;stroke:none;stroke-width:1.33333325"/><path d="M269.13 187.45c-.207-.833-.747-1.554-1.355-2.174-.743-.745-1.627-1.36-2.579-1.85-.59-.222-1.221-.34-1.848-.431-1.636-.222-3.306-.107-4.921.2-1.439.281-2.852.712-4.155 1.353-.632.324-1.264.687-1.73 1.21-.191.218-.352.498-.284.787.074.27.338.447.602.546a15 15 0 0 1 3.516 1.841c.806.58 1.56 1.243 2.128 2.037.314.454.607.966.587 1.522 0 .224-.13.417-.23.613.46-.076.893-.24 1.329-.387a83 83 0 0 0 4.842-1.896c1.116-.482 2.234-.968 3.294-1.554.256-.138.508-.307.654-.555.242-.377.242-.843.15-1.263m-26.184-.839a17 17 0 0 1 3.99-.542l.174-.4.247-.54c.137-.284.286-.563.42-.848.138-.215.238-.451.372-.67a36.6 36.6 0 0 0-5.364 2.64l.074.163zm.156.36.092.243.081.238a26 26 0 0 1 3.18-.08l.108-.33q.056-.165.116-.331h.008l.08-.228a18 18 0 0 0-3.708.375l.03.116z" style="fill:#eac500;fill-opacity:1;fill-rule:nonzero;stroke:none;stroke-width:1.33333325"/><path d="M257.05 190.126c-.905-.83-1.981-1.476-3.108-2.01a17.6 17.6 0 0 0-6.364-1.594l-.047.147-.01-.001-.072.154-.079.19a14 14 0 0 0-.168.396c1.887.153 3.768.556 5.475 1.34a12.5 12.5 0 0 1 5.196 4.373c.074.1.214.303.353.167.176-.352.113-.763.076-1.138-.097-.806-.667-1.465-1.252-2.024m-14.868-3.509c-.237.142-.478.281-.704.442.264-.085.526-.176.788-.26zm-6.312 3.667c.355-.105.567-.42.86-.617-.306.18-.58.402-.86.617m-.683.736c-.297.38-.505.829-.554 1.3.196-.43.313-.887.554-1.3" style="fill:#eac500;fill-opacity:1;fill-rule:nonzero;stroke:none;stroke-width:1.33333325"/><path d="M253.272 197.683a8 8 0 0 1-2.268-.452c-.395-.143-.793-.301-1.124-.553-.112-.094-.25-.22-.21-.374.1-.156.313-.181.487-.2.6-.04 1.2.067 1.778.204.61.155 1.22.35 1.754.67.18.1.311.25.424.409-.136.316-.544.279-.84.296m2.68-4.479c.095.34.186.694.128 1.047-.018.223-.118.425-.2.63v.042l-.028.001a2.54 2.54 0 0 1-1.107.912c-1.528.663-3.489.293-4.622-.877-.488-.515-.94-1.146-.93-1.86.012-.578.448-1.062.967-1.331.87-.456 1.903-.567 2.884-.485.428.054.859.136 1.253.312q.203.091.418.158c-.387-.412-.84-.761-1.299-1.1a4 4 0 0 0-.395-.24c-1.917-1.038-4.07-1.68-6.268-1.912l-.2.514q-.098.249-.182.505c-.154-.139-.204-.335-.227-.527q.013-.271.043-.541a17 17 0 0 0-2.627.023c.02.193.025.388.025.584a.74.74 0 0 1-.234.398 2 2 0 0 0-.114-.368q-.11-.276-.217-.553a15.2 15.2 0 0 0-4.297 1.177c-.023-.026-.067-.081-.09-.109l-.308.165q.606.014 1.191.158c.327.089.645.208.933.38l.01-.004q.245.17.458.374c.367.408.427.998.21 1.482-.397.91-1.214 1.653-2.198 1.994a4.2 4.2 0 0 1-2.583.041 3.3 3.3 0 0 1-.889-.46c.041.427.168.846.372 1.23a3.2 3.2 0 0 1 .759-.221 6 6 0 0 1 1.325-.063c.34.03.69.075.999.219.118.058.256.15.258.29-.016.182-.208.276-.357.359-.404.164-.841.228-1.276.27-.373.008-.748.01-1.117-.04.8.926 1.874 1.609 3.001 2.143.924.44 1.897.788 2.903 1.027a7 7 0 0 1-.203-.767c-.05-.23-.076-.466-.143-.693-.222-.165-.396-.383-.446-.65a.86.86 0 0 1 .117-.518c-.023.196-.044.396.01.59.127.267.4.467.71.5.182.02.35-.066.506-.14.195-.102.394-.222.623-.235.253.013.365.257.493.426l.005.001c.254.268.635.464 1.026.412.202-.024.372-.142.516-.272q.19-.224.305-.486l.04-.005c-.008.385-.299.712-.659.872-.034.165-.092.325-.145.486-.143.264-.29.524-.475.766-.082.057.031.069.07.073.61.053 1.221.077 1.834.095 1.535.042 3.083.02 4.596-.254a14.4 14.4 0 0 0 3.072-.908c.766-.341 1.508-.777 2.05-1.4.486-.577.704-1.369.49-2.088a6.4 6.4 0 0 0-.766-1.549m-14.669-5.57c.442-.015.878-.082 1.316-.122a3 3 0 0 0-.097-.173l-.072-.196-.055-.11c-.504.14-1.02.262-1.496.477-.106.213.275.133.404.124" style="fill:#eac500;fill-opacity:1;fill-rule:nonzero;stroke:none;stroke-width:1.33333325"/><path d="M239.203 191.036c-.686-.346-1.514-.492-2.268-.258.363.018.728.192.854.53.037.134.054.274.06.414a.93.93 0 0 1-.632.66c-.246.023-.515.014-.719-.133-.21-.13-.317-.357-.365-.581-.001-.23.094-.444.217-.638-.417.25-.745.6-1.03.975.197-.601.638-1.147 1.253-1.417.776-.339 1.7-.28 2.472.041.488.204.956.533 1.144 1.017-.326-.208-.631-.444-.986-.61m-.56-.963c-.921-.09-1.89.045-2.7.484-.466.253-.877.655-.984 1.164-.122.607.132 1.259.607 1.679.301.277.703.44 1.113.51l.004.011c.25.016.508.09.755.028a4.43 4.43 0 0 0 2.393-.807c.515-.368.963-.908.967-1.54.02-.313-.179-.586-.39-.808-.46-.448-1.122-.65-1.765-.72m14.829 2.189a3.5 3.5 0 0 0-1.212-.17c.272.202.437.552.29.868a3 3 0 0 1-.09.17c-.185.216-.487.281-.77.25-.16-.029-.293-.132-.407-.236-.21-.234-.182-.562-.068-.83-.37.156-.696.38-1.008.62.35-.568.972-.982 1.661-1.1.927-.166 1.895.101 2.663.592.468.304.905.726.998 1.273-.566-.607-1.234-1.165-2.057-1.437m1.964.373c-.539-.47-1.236-.768-1.955-.904-.652-.13-1.329-.187-1.993-.099-.401.056-.804.154-1.161.34-.415.28-.73.738-.708 1.23.02.476.304.9.63 1.248.6.617 1.392 1.104 2.28 1.248.67.097 1.387.081 2.003-.21.57-.258 1.1-.697 1.255-1.293.145-.527.099-1.17-.35-1.56" style="fill:#74b743;fill-opacity:1;fill-rule:nonzero;stroke:none;stroke-width:1.33333325"/><path d="M236.59 194.744a6 6 0 0 1 1.324-.064c.34.029.69.074 1 .22.12.058.255.149.258.289-.016.183-.208.277-.358.36-.402.164-.84.227-1.274.27-.375.007-.75.01-1.119-.042-.301-.055-.637-.11-.857-.328-.163-.204.081-.403.266-.484.24-.11.5-.175.76-.221m13.08 1.56c.1-.156.312-.181.488-.2.6-.04 1.199.067 1.777.204.61.155 1.22.35 1.755.67.177.1.31.25.424.409-.136.316-.545.279-.841.296-.776-.03-1.542-.201-2.27-.452-.394-.143-.792-.301-1.122-.553-.112-.094-.252-.22-.211-.374" style="fill:#ed4792;fill-opacity:1;fill-rule:nonzero;stroke:none;stroke-width:1.33333325"/><g clip-path="url(#b)" style="opacity:.53999299" transform="matrix(1.33333 0 0 -1.33333 0 341.333)"><path d="M0 0c.045-.098-.178-.063-.071 0z" style="fill:#192112;fill-opacity:1;fill-rule:nonzero;stroke:none" transform="translate(196.228 109.028)"/></g><g clip-path="url(#c)" style="opacity:.38999903" transform="matrix(1.33333 0 0 -1.33333 0 341.333)"><path d="M0 0c-.021-.073-.18-.011-.093.036z" style="fill:#283719;fill-opacity:1;fill-rule:nonzero;stroke:none" transform="translate(193.237 108.543)"/></g><path d="M244.168 197.778c-.273-.159-.337-.54-.675-.615-.24-.004-.422.167-.625.264-.227.127-.501.14-.756.098.173.397.244.822.355 1.237.126.407.28.9.742 1.07.304.131.652.003.88-.203.356-.323.576-.75.788-1.164l.216-.44a1.9 1.9 0 0 1-.925-.247" style="fill:#ed4792;fill-opacity:1;fill-rule:nonzero;stroke:none;stroke-width:1.33333325"/><path d="M58.667 254.25h10.667v-24.917H58.667zm16 0h10.667v-24.917H74.667zm16 0h10.667v-24.917H90.667Zm16 0h10.667v-24.917h-10.667Zm16 0h10.667v-24.917h-10.667Zm16 0h10.667v-24.917h-10.667z" style="fill:#bc8a31;fill-opacity:1;fill-rule:nonzero;stroke:none;stroke-width:1.08926702"/><path d="M154.667 261.243h10.667v-31.91h-10.667zm16 0h10.667v-31.91h-10.667z" style="fill:#bc8a31;fill-opacity:1;fill-rule:nonzero;stroke:none;stroke-width:1.23268187"/><path d="M186.667 254.25h10.667v-24.917h-10.667zm16 0h10.667v-24.917h-10.667zm16 0h10.667v-24.917h-10.667zm16 0h10.667v-24.917h-10.667zm16 0h10.667v-24.917h-10.667zm16 0h10.667v-24.917h-10.667z" style="fill:#bc8a31;fill-opacity:1;fill-rule:nonzero;stroke:none;stroke-width:1.08926702"/><path d="M282.667 254.25h10.667v-24.917h-10.667z" style="fill:#bc8a31;fill-opacity:1;fill-rule:nonzero;stroke:none;stroke-width:1.17654276"/><path d="M298.667 261.243h10.667v-31.91h-10.667z" style="fill:#bc8a31;fill-opacity:1;fill-rule:nonzero;stroke:none;stroke-width:1.33144867"/><path d="M42.667 254.25h10.666v-24.917H42.667z" style="fill:#bc8a31;fill-opacity:1;fill-rule:nonzero;stroke:none;stroke-width:1.08926702"/></svg>