<svg xmlns="http://www.w3.org/2000/svg" xml:space="preserve" width="256" height="256" viewBox="0 0 341.333 341.333"><path d="M0 0v12h-232V0h4v-4h-4v-4h4v-4h-4v-4h4v-4h-4v-112H0v112h-4v4h4v4h-4v4h4v4h-4v4z" style="fill:#353535;fill-opacity:1;fill-rule:nonzero;stroke:none" transform="matrix(1.33333 0 0 -1.33333 325.333 90.667)"/><path d="M32 256h277.333v-96H32Z" style="fill:#e6e6e6;fill-opacity:1;fill-rule:nonzero;stroke:none;stroke-width:1.33333325"/><path d="M309.333 165.333H32V74.667h277.333Z" style="fill:gray;fill-opacity:1;fill-rule:nonzero;stroke:none;stroke-width:1.33333325"/><path d="M32 181.333h218.667v-16H32Z" style="fill:#262626;fill-opacity:1;fill-rule:nonzero;stroke:none;stroke-width:1.33333325"/><path d="M309.333 208h-58.666v-42.667h58.666z" style="fill:#ccc;fill-opacity:1;fill-rule:nonzero;stroke:none;stroke-width:1.33333325"/><g style="fill:maroon"><g style="fill:maroon"><path d="m0 0 14.062 12V6.757L20.009 12V3.946s4.088 7.676 4.336 7.676 9.726-.054 9.726-.054l-1.549-2.811h-5.637l-.805-1.514h3.159l-1.858-3.135h-2.416l-.682-1.243h11.398l.744 1.189h-5.699l4.398 7.622h9.911l-1.734-2.973h-5.637l-.929-1.46h5.823L38.469 0H15.735l.123 3.892L11.336 0l-.186 3.946L6.628 0Z" style="fill:maroon;fill-opacity:1;fill-rule:nonzero;stroke:none" transform="matrix(2.66664 0 0 -2.6666 50.667 236)"/></g><g style="fill:maroon"><path d="m0 0-.121.001-1.094-2.206Z" style="fill:maroon;fill-opacity:1;fill-rule:nonzero;stroke:none" transform="matrix(2.66664 0 0 -2.6666 170.76 205.153)"/></g><g style="fill:maroon"><path d="m0 0 1.735 2.973h-9.912l-4.398-7.622h5.699l-.743-1.189h-5.493l-1.684-2.865h9.964l4.089 7.244h-5.823L-5.637 0Z" style="fill:maroon;fill-opacity:1;fill-rule:nonzero;stroke:none" transform="matrix(2.66664 0 0 -2.6666 195.373 212.793)"/></g></g></svg>