<svg xmlns="http://www.w3.org/2000/svg" xml:space="preserve" width="256" height="256" viewBox="0 0 341.333 341.333"><g style="stroke-width:1.25"><path d="M42.667 64.879h192v105.788h-192zM64 21.333h149.333v21.333H64z" style="opacity:.98999999;vector-effect:none;fill:#e3ecd8;fill-opacity:1;stroke:none;stroke-width:3.33333325;stroke-linecap:butt;stroke-linejoin:miter;stroke-miterlimit:4;stroke-dasharray:none;stroke-dashoffset:0;stroke-opacity:1;paint-order:markers stroke fill" transform="matrix(.8 0 0 .8 51.2 25.6)"/><path d="M0 42.667h256V64H0zm212.667-21.334H234v21.333h-21.333zm22 42.667H256v21.333h-21.333z" style="opacity:.98999999;vector-effect:none;fill:#f9462a;fill-opacity:1;stroke:none;stroke-width:3.33333325;stroke-linecap:butt;stroke-linejoin:miter;stroke-miterlimit:4;stroke-dasharray:none;stroke-dashoffset:0;stroke-opacity:1;paint-order:markers stroke fill" transform="matrix(.8 0 0 .8 51.2 25.6)"/><path d="M42.667 64H64v21.333H42.667z" style="opacity:.98999999;vector-effect:none;fill:#f9462a;fill-opacity:1;stroke:none;stroke-width:3.33333349;stroke-linecap:butt;stroke-linejoin:miter;stroke-miterlimit:4;stroke-dasharray:none;stroke-dashoffset:0;stroke-opacity:1;paint-order:markers stroke fill" transform="matrix(.8 0 0 .8 51.2 25.6)"/><path d="M106.667 256h42.667v42.667h-42.667z" style="opacity:.98999999;vector-effect:none;fill:#f9462a;fill-opacity:1;stroke:none;stroke-width:3.33333325;stroke-linecap:butt;stroke-linejoin:miter;stroke-miterlimit:4;stroke-dasharray:none;stroke-dashoffset:0;stroke-opacity:1;paint-order:markers stroke fill" transform="matrix(.8 0 0 .8 51.2 25.6)"/><path d="M128 277.333h42.667V320H128z" style="opacity:.98999999;vector-effect:none;fill:#f9462a;fill-opacity:1;stroke:none;stroke-width:3.33333325;stroke-linecap:butt;stroke-linejoin:miter;stroke-miterlimit:4;stroke-dasharray:none;stroke-dashoffset:0;stroke-opacity:1;paint-order:markers stroke fill" transform="matrix(.8 0 0 .8 51.2 25.6)"/><path d="M128 298.667h64V320h-64z" style="opacity:.98999999;vector-effect:none;fill:#f9462a;fill-opacity:1;stroke:none;stroke-width:3.33333325;stroke-linecap:butt;stroke-linejoin:miter;stroke-miterlimit:4;stroke-dasharray:none;stroke-dashoffset:0;stroke-opacity:1;paint-order:markers stroke fill" transform="matrix(.8 0 0 .8 51.2 25.6)"/><path d="M85.333 320H192v21.333H85.333z" style="opacity:.98999999;vector-effect:none;fill:#000;fill-opacity:1;stroke:none;stroke-width:3.33333302;stroke-linecap:butt;stroke-linejoin:miter;stroke-miterlimit:4;stroke-dasharray:none;stroke-dashoffset:0;stroke-opacity:1;paint-order:markers stroke fill" transform="matrix(.8 0 0 .8 51.2 25.6)"/><path d="M106.667 213.333h64V256h-64zM127.333 192h21.333v21.333h-21.333zm22-128h85.333v21.333h-85.333zm85.334 20.677H256v85.99h-21.333z" style="opacity:.98999999;vector-effect:none;fill:#000;fill-opacity:1;stroke:none;stroke-width:3.33333325;stroke-linecap:butt;stroke-linejoin:miter;stroke-miterlimit:4;stroke-dasharray:none;stroke-dashoffset:0;stroke-opacity:1;paint-order:markers stroke fill" transform="matrix(.8 0 0 .8 51.2 25.6)"/><path d="M149.333 170.667h85.333V192h-85.333z" style="opacity:.98999999;vector-effect:none;fill:#000;fill-opacity:1;stroke:none;stroke-width:3.33333349;stroke-linecap:butt;stroke-linejoin:miter;stroke-miterlimit:4;stroke-dasharray:none;stroke-dashoffset:0;stroke-opacity:1;paint-order:markers stroke fill" transform="matrix(.8 0 0 .8 51.2 25.6)"/><path d="M64 170.667h64V192H64zm-21.333-21.334H64v21.333H42.667z" style="opacity:.98999999;vector-effect:none;fill:#000;fill-opacity:1;stroke:none;stroke-width:3.33333325;stroke-linecap:butt;stroke-linejoin:miter;stroke-miterlimit:4;stroke-dasharray:none;stroke-dashoffset:0;stroke-opacity:1;paint-order:markers stroke fill" transform="matrix(.8 0 0 .8 51.2 25.6)"/><path d="M64 85.333h21.333v64H64zm128 0h21.333v64H192z" style="opacity:.98999999;vector-effect:none;fill:#173c6a;fill-opacity:1;stroke:none;stroke-width:3.33333325;stroke-linecap:butt;stroke-linejoin:miter;stroke-miterlimit:4;stroke-dasharray:none;stroke-dashoffset:0;stroke-opacity:1;paint-order:markers stroke fill" transform="matrix(.8 0 0 .8 51.2 25.6)"/><path d="M213.333 85.333h21.333v21.333h-21.333z" style="opacity:.98999999;vector-effect:none;fill:#8da3b7;fill-opacity:1;stroke:none;stroke-width:3.33333302;stroke-linecap:butt;stroke-linejoin:miter;stroke-miterlimit:4;stroke-dasharray:none;stroke-dashoffset:0;stroke-opacity:1;paint-order:markers stroke fill" transform="matrix(.8 0 0 .8 51.2 25.6)"/><path d="M85.333 85.333h21.333v21.333H85.333zM64 64h85.333v21.333H64zM42.667 85.333H64V128H42.667z" style="opacity:.98999999;vector-effect:none;fill:#8da3b7;fill-opacity:1;stroke:none;stroke-width:3.33333325;stroke-linecap:butt;stroke-linejoin:miter;stroke-miterlimit:4;stroke-dasharray:none;stroke-dashoffset:0;stroke-opacity:1;paint-order:markers stroke fill" transform="matrix(.8 0 0 .8 51.2 25.6)"/><path d="M21.333 106.667h21.333v42.667H21.333zm234.667 0h21.333v42.667H256z" style="opacity:.98999999;vector-effect:none;fill:#67c364;fill-opacity:1;stroke:none;stroke-width:3.33333325;stroke-linecap:butt;stroke-linejoin:miter;stroke-miterlimit:4;stroke-dasharray:none;stroke-dashoffset:0;stroke-opacity:1;paint-order:markers stroke fill" transform="matrix(.8 0 0 .8 51.2 25.6)"/><path d="M277.333 85.333h21.333v21.333h-21.333z" style="opacity:.98999999;vector-effect:none;fill:#67c364;fill-opacity:1;stroke:none;stroke-width:3.33333302;stroke-linecap:butt;stroke-linejoin:miter;stroke-miterlimit:4;stroke-dasharray:none;stroke-dashoffset:0;stroke-opacity:1;paint-order:markers stroke fill" transform="matrix(.8 0 0 .8 51.2 25.6)"/><path d="M277.333 64h21.333v21.333h-21.333z" style="opacity:.98999999;vector-effect:none;fill:#98fb1f;fill-opacity:1;stroke:none;stroke-width:3.33333325;stroke-linecap:butt;stroke-linejoin:miter;stroke-miterlimit:4;stroke-dasharray:none;stroke-dashoffset:0;stroke-opacity:1;paint-order:markers stroke fill" transform="matrix(.8 0 0 .8 51.2 25.6)"/><path d="M85.333 256h21.333v21.333H85.333zm64 0H192v21.333h-42.667zm21.334-42.667H192V256h-21.333zM149.333 192h20v21.333h-20z" style="opacity:.98999999;vector-effect:none;fill:#e3ecd8;fill-opacity:1;stroke:none;stroke-width:3.33333325;stroke-linecap:butt;stroke-linejoin:miter;stroke-miterlimit:4;stroke-dasharray:none;stroke-dashoffset:0;stroke-opacity:1;paint-order:markers stroke fill" transform="matrix(.8 0 0 .8 51.2 25.6)"/><path d="M106.667 192h20v21.333h-20z" style="opacity:.98999999;vector-effect:none;fill:#8da3b7;fill-opacity:1;stroke:none;stroke-width:3.33333325;stroke-linecap:butt;stroke-linejoin:miter;stroke-miterlimit:4;stroke-dasharray:none;stroke-dashoffset:0;stroke-opacity:1;paint-order:markers stroke fill" transform="matrix(.8 0 0 .8 51.2 25.6)"/><path d="M128 170.667h21.333V192H128z" style="opacity:.98999999;vector-effect:none;fill:#8da3b7;fill-opacity:1;stroke:none;stroke-width:3.33333349;stroke-linecap:butt;stroke-linejoin:miter;stroke-miterlimit:4;stroke-dasharray:none;stroke-dashoffset:0;stroke-opacity:1;paint-order:markers stroke fill" transform="matrix(.8 0 0 .8 51.2 25.6)"/></g></svg>