<svg xmlns="http://www.w3.org/2000/svg" xml:space="preserve" width="256" height="256" viewBox="0 0 341.333 341.333"><rect width="4.81" height="2.973" x="218.266" y="148.38" ry="0" style="fill:#f9f9f9;fill-opacity:1;stroke:#f9f9f9;stroke-width:1;stroke-miterlimit:4;stroke-dasharray:none;stroke-opacity:1"/><rect width="4.81" height="2.973" x="240.477" y="148.38" ry="0" style="fill:#f9f9f9;fill-opacity:1;stroke:#f9f9f9;stroke-width:1;stroke-miterlimit:4;stroke-dasharray:none;stroke-opacity:1"/><rect width="4.81" height="2.973" x="251.574" y="-77.495" ry="0" style="fill:#f9f9f9;fill-opacity:1;stroke:#f9f9f9;stroke-width:1;stroke-miterlimit:4;stroke-dasharray:none;stroke-opacity:1" transform="rotate(48.548)"/><rect width="4.81" height="2.973" x="275.137" y="-74.497" ry="0" style="fill:#f9f9f9;fill-opacity:1;stroke:#f9f9f9;stroke-width:1;stroke-miterlimit:4;stroke-dasharray:none;stroke-opacity:1" transform="rotate(48.548)"/><rect width="4.81" height="2.973" x="5.273" y="275.424" ry="0" style="fill:#f9f9f9;fill-opacity:1;stroke:#f9f9f9;stroke-width:1;stroke-miterlimit:4;stroke-dasharray:none;stroke-opacity:1" transform="rotate(-53.045)"/><rect width="4.81" height="2.973" x="29.079" y="272.228" ry="0" style="fill:#f9f9f9;fill-opacity:1;stroke:#f9f9f9;stroke-width:1;stroke-miterlimit:4;stroke-dasharray:none;stroke-opacity:1" transform="rotate(-53.045)"/><circle cx="232" cy="149.334" r="13.72" style="fill:none;fill-opacity:1;stroke:#f9f9f9;stroke-width:1.67400002;stroke-linecap:round;stroke-miterlimit:4;stroke-dasharray:none;stroke-opacity:1"/><rect width="4.81" height="2.973" x="95.6" y="148.38" ry="0" style="fill:#f9f9f9;fill-opacity:1;stroke:#f9f9f9;stroke-width:1;stroke-miterlimit:4;stroke-dasharray:none;stroke-opacity:1"/><rect width="4.81" height="2.973" x="117.81" y="148.38" ry="0" style="fill:#f9f9f9;fill-opacity:1;stroke:#f9f9f9;stroke-width:1;stroke-miterlimit:4;stroke-dasharray:none;stroke-opacity:1"/><rect width="4.81" height="2.973" x="170.37" y="14.446" ry="0" style="fill:#f9f9f9;fill-opacity:1;stroke:#f9f9f9;stroke-width:1;stroke-miterlimit:4;stroke-dasharray:none;stroke-opacity:1" transform="rotate(48.548)"/><rect width="4.81" height="2.973" x="193.933" y="17.444" ry="0" style="fill:#f9f9f9;fill-opacity:1;stroke:#f9f9f9;stroke-width:1;stroke-miterlimit:4;stroke-dasharray:none;stroke-opacity:1" transform="rotate(48.548)"/><rect width="4.81" height="2.973" x="-68.473" y="177.4" ry="0" style="fill:#f9f9f9;fill-opacity:1;stroke:#f9f9f9;stroke-width:1;stroke-miterlimit:4;stroke-dasharray:none;stroke-opacity:1" transform="rotate(-53.045)"/><rect width="4.81" height="2.973" x="-44.666" y="174.204" ry="0" style="fill:#f9f9f9;fill-opacity:1;stroke:#f9f9f9;stroke-width:1;stroke-miterlimit:4;stroke-dasharray:none;stroke-opacity:1" transform="rotate(-53.045)"/><circle cx="109.333" cy="149.334" r="13.72" style="fill:none;fill-opacity:1;stroke:#f9f9f9;stroke-width:1.67400002;stroke-linecap:round;stroke-miterlimit:4;stroke-dasharray:none;stroke-opacity:1"/><path d="M27.457 74.666C21.133 74.666 16 79.726 16 85.961v169.41c0 6.235 5.133 11.295 11.457 11.295h286.42c6.324 0 11.457-5.06 11.457-11.295V85.961c0-6.235-5.133-11.295-11.457-11.295zm81.877 58.668c10.304 0 18.666 8.357 18.666 18.666s-8.362 18.666-18.666 18.666S90.666 162.309 90.666 152s8.364-18.666 18.668-18.666m30.223 0h62.22c3.442 0 6.223 2.383 6.223 5.332V160c0 2.95-2.781 5.334-6.223 5.334h-62.22c-3.442 0-6.223-2.385-6.223-5.334v-21.334c0-2.95 2.781-5.332 6.223-5.332m92.443 0c10.304 0 18.666 8.355 18.666 18.666s-8.362 18.666-18.666 18.666-18.666-8.357-18.666-18.666 8.36-18.666 18.666-18.666m-109.334 112a5.33 5.33 0 0 1 5.334 5.334 5.33 5.33 0 0 1-5.334 5.332 5.326 5.326 0 0 1-5.332-5.332 5.33 5.33 0 0 1 5.332-5.334m96 0a5.33 5.33 0 0 1 5.334 5.334 5.33 5.33 0 0 1-5.334 5.332 5.326 5.326 0 0 1-5.332-5.332 5.33 5.33 0 0 1 5.332-5.334M96 250.666a5.33 5.33 0 0 1 5.334 5.334A5.33 5.33 0 0 1 96 261.334 5.33 5.33 0 0 1 90.666 256 5.33 5.33 0 0 1 96 250.666m149.334 0a5.33 5.33 0 0 1 5.332 5.334 5.33 5.33 0 0 1-5.332 5.334A5.33 5.33 0 0 1 240 256a5.33 5.33 0 0 1 5.334-5.334" style="fill:#ccc;fill-opacity:1;fill-rule:nonzero;stroke:none;stroke-width:2.66666672;stroke-miterlimit:4;stroke-dasharray:none"/><path d="M50.691 95.273c-8.09 0-14.841 6.161-14.841 13.817v80.488c0 7.656 6.752 13.815 14.841 13.815h239.952c8.089 0 14.841-6.16 14.841-13.815V109.09c0-7.656-6.751-13.817-14.841-13.817zm58.643 36.125a17.936 17.936 0 0 1 17.936 17.936 17.936 17.936 0 0 1-17.936 17.936 17.936 17.936 0 0 1-17.938-17.936 17.936 17.936 0 0 1 17.938-17.936m122.666 0a17.936 17.936 0 0 1 17.936 17.936A17.936 17.936 0 0 1 232 167.27a17.936 17.936 0 0 1-17.936-17.936A17.936 17.936 0 0 1 232 131.398" style="color:#000;font-style:normal;font-variant:normal;font-weight:400;font-stretch:normal;font-size:medium;line-height:normal;font-family:sans-serif;font-variant-ligatures:normal;font-variant-position:normal;font-variant-caps:normal;font-variant-numeric:normal;font-variant-alternates:normal;font-feature-settings:normal;text-indent:0;text-align:start;text-decoration:none;text-decoration-line:none;text-decoration-style:solid;text-decoration-color:#000;letter-spacing:normal;word-spacing:normal;text-transform:none;writing-mode:lr-tb;direction:ltr;text-orientation:mixed;dominant-baseline:auto;baseline-shift:baseline;text-anchor:start;white-space:normal;shape-padding:0;clip-rule:nonzero;display:inline;overflow:visible;visibility:visible;opacity:1;isolation:auto;mix-blend-mode:normal;color-interpolation:sRGB;color-interpolation-filters:linearRGB;solid-color:#000;solid-opacity:1;vector-effect:none;fill:#fff;fill-opacity:1;fill-rule:nonzero;stroke:none;stroke-width:1.5;stroke-linecap:butt;stroke-linejoin:miter;stroke-miterlimit:4;stroke-dasharray:none;stroke-dashoffset:0;stroke-opacity:1;color-rendering:auto;image-rendering:auto;shape-rendering:auto;text-rendering:auto"/><path d="M50.691 95.274c-8.09 0-14.84 6.16-14.84 13.815v80.49c0 7.655 6.75 13.813 14.84 13.813h239.952c8.09 0 14.84-6.158 14.84-13.813v-80.49c0-7.656-6.75-13.815-14.84-13.815z" style="color:#000;font-style:normal;font-variant:normal;font-weight:400;font-stretch:normal;font-size:medium;line-height:normal;font-family:sans-serif;font-variant-ligatures:normal;font-variant-position:normal;font-variant-caps:normal;font-variant-numeric:normal;font-variant-alternates:normal;font-feature-settings:normal;text-indent:0;text-align:start;text-decoration:none;text-decoration-line:none;text-decoration-style:solid;text-decoration-color:#000;letter-spacing:normal;word-spacing:normal;text-transform:none;writing-mode:lr-tb;direction:ltr;text-orientation:mixed;dominant-baseline:auto;baseline-shift:baseline;text-anchor:start;white-space:normal;shape-padding:0;clip-rule:nonzero;display:inline;overflow:visible;visibility:visible;opacity:1;isolation:auto;mix-blend-mode:normal;color-interpolation:sRGB;color-interpolation-filters:linearRGB;solid-color:#000;solid-opacity:1;vector-effect:none;fill:none;fill-opacity:1;fill-rule:nonzero;stroke:#000;stroke-width:1.5;stroke-linecap:butt;stroke-linejoin:miter;stroke-miterlimit:4;stroke-dasharray:none;stroke-dashoffset:0;stroke-opacity:1;color-rendering:auto;image-rendering:auto;shape-rendering:auto;text-rendering:auto"/><path d="M80.592 234.668c-5.63 0-5.63 5.332-5.63 5.332l-5.628 26.668H272L266.37 240s0-5.332-5.645-5.332zm42.074 10.666a5.33 5.33 0 0 1 5.334 5.334 5.33 5.33 0 0 1-5.334 5.332 5.326 5.326 0 0 1-5.332-5.332 5.33 5.33 0 0 1 5.332-5.334zm96 0q.554 0 1.076.107a5.339 5.339 0 0 1 1.002 10.14 5.3 5.3 0 0 1-2.078.419q-.276 0-.545-.027h-.002a5.3 5.3 0 0 1-1.531-.391 5.34 5.34 0 0 1-3.014-3.326 5 5 0 0 1-.1-.381l-.033-.133a5 5 0 0 1-.08-.527v-.002a5.4 5.4 0 0 1 .391-2.623 5.3 5.3 0 0 1 1.143-1.695 5.33 5.33 0 0 1 2.695-1.454 5.4 5.4 0 0 1 1.076-.107zM96 250.666a5.33 5.33 0 0 1 5.334 5.334A5.33 5.33 0 0 1 96 261.334 5.33 5.33 0 0 1 90.666 256 5.33 5.33 0 0 1 96 250.666zm149.334 0a5.33 5.33 0 0 1 5.332 5.334 5.33 5.33 0 0 1-5.332 5.334A5.33 5.33 0 0 1 240 256a5.33 5.33 0 0 1 5.334-5.334z" style="fill:#999;fill-opacity:1;fill-rule:nonzero;stroke:#666;stroke-width:1.33333325"/><path d="M24.046 261.334a2.667 2.667 0 1 1-.091-5.333 2.667 2.667 0 0 1 .091 5.333m-.046-176A2.668 2.668 0 0 1 24 80a2.668 2.668 0 0 1 0 5.334m293.333 176a2.668 2.668 0 0 1 0-5.334 2.668 2.668 0 0 1 0 5.334m0-176a2.668 2.668 0 0 1 0-5.334 2.668 2.668 0 0 1 0 5.334" style="vector-effect:none;fill:gray;fill-opacity:1;fill-rule:nonzero;stroke:none;stroke-width:1.33333325;stroke-linecap:butt;stroke-linejoin:miter;stroke-miterlimit:4;stroke-dasharray:none;stroke-dashoffset:0;stroke-opacity:1"/><circle cx="232" cy="149.334" r="16.725" style="fill:none;fill-opacity:1;stroke:#500;stroke-width:.68300003;stroke-linecap:round;stroke-miterlimit:4;stroke-dasharray:none;stroke-opacity:1"/><path d="M127.269 149.334a17.936 17.936 0 0 1-17.936 17.936 17.936 17.936 0 0 1-17.936-17.936 17.936 17.936 0 0 1 17.936-17.936 17.936 17.936 0 0 1 17.936 17.936zm122.667 0A17.936 17.936 0 0 1 232 167.27a17.936 17.936 0 0 1-17.936-17.936A17.936 17.936 0 0 1 232 131.398a17.936 17.936 0 0 1 17.936 17.936z" style="fill:none;fill-opacity:1;stroke:#333;stroke-width:6.97064734;stroke-linecap:round;stroke-miterlimit:4;stroke-dasharray:none;stroke-opacity:1"/><rect width="245.421" height="15.93" x="47.956" y="108.465" ry="3.072" style="opacity:1;vector-effect:none;fill:none;fill-opacity:1;stroke:#000;stroke-width:1.5;stroke-linecap:butt;stroke-linejoin:miter;stroke-miterlimit:4;stroke-dasharray:none;stroke-dashoffset:0;stroke-opacity:1"/><g aria-label="LIBRETRO HIGH SPEED DIGITAL DATA PACK" style="font-style:italic;font-variant:normal;font-weight:700;font-stretch:normal;font-size:10.66666698px;line-height:1.25;font-family:sans-serif;-inkscape-font-specification:&quot;sans-serif Bold Italic&quot;;letter-spacing:0;word-spacing:0;fill:#000;fill-opacity:1;stroke:none"><path d="M68.256 120.045h-5.594v-7.755h2v6.255h3.594zm5.39 0h-4.541v-1.375h1.27v-5.005h-1.27v-1.375h4.541v1.375h-1.27v5.005h1.27zm8.277-2.375q0 .563-.23 1.005-.224.443-.62.735-.458.344-1.01.49-.547.145-1.39.145h-3.386v-7.755h3.01q.938 0 1.37.062.438.063.865.277.443.223.656.604.219.375.219.86 0 .562-.297.994-.297.427-.839.667v.041q.76.151 1.204.625.448.474.448 1.25m-2.563-3.187q0-.193-.099-.386-.094-.192-.338-.286-.22-.083-.547-.089-.323-.01-.912-.01h-.187v1.64h.312q.474 0 .807-.015.334-.016.527-.104.27-.12.354-.308.083-.192.083-.442m.49 3.156q0-.37-.146-.568-.14-.203-.485-.302-.234-.068-.645-.073t-.86-.005h-.437v1.933h.146q.843 0 1.208-.005.364-.005.672-.136.312-.13.427-.344.12-.218.12-.5m7.911-2.974q0-.292-.12-.5t-.411-.328q-.203-.083-.474-.1-.271-.02-.63-.02h-.724v2.089h.614q.48 0 .802-.047t.542-.214q.208-.161.302-.354.1-.198.1-.526m3.12 5.38h-2.443l-2.114-2.844h-.922v2.844h-1.99v-7.755h3.354q.688 0 1.183.078.494.078.927.339.437.26.692.677.26.411.26 1.036 0 .86-.4 1.401-.396.542-1.136.901zm6.494 0h-5.61v-7.755h5.61v1.5h-3.62v1.339h3.36v1.5h-3.36v1.916h3.62zm7.75-6.255h-2.422v6.255h-2v-6.255h-2.422v-1.5h6.844zm5.552.875q0-.292-.12-.5t-.412-.328q-.203-.083-.473-.1-.271-.02-.63-.02h-.725v2.089h.615q.48 0 .802-.047t.542-.214q.208-.161.302-.354.099-.198.099-.526m3.12 5.38h-2.443l-2.115-2.844h-.922v2.844h-1.99v-7.755h3.355q.687 0 1.182.078t.927.339q.438.26.693.677.26.411.26 1.036 0 .86-.4 1.401-.396.542-1.136.901zm8.427-3.875q0 1.854-1.063 2.948-1.062 1.089-2.937 1.089-1.87 0-2.933-1.089-1.062-1.094-1.062-2.948 0-1.87 1.062-2.953 1.063-1.088 2.933-1.088 1.864 0 2.932 1.088 1.068 1.083 1.068 2.953m-2.651 1.964q.291-.354.432-.834.14-.484.14-1.135 0-.698-.161-1.188t-.422-.791q-.265-.313-.614-.453-.344-.14-.72-.14-.38 0-.718.134-.333.136-.615.448-.26.292-.427.808-.161.51-.161 1.187 0 .693.156 1.182.162.485.422.792t.61.453q.348.146.734.146.385 0 .734-.146.35-.15.61-.463" style="font-style:normal;font-variant:normal;font-weight:700;font-stretch:normal;font-family:sans-serif;-inkscape-font-specification:&quot;sans-serif Bold&quot;"/><path d="m136.844 114.229-1.343 5.816h-1.508l.594-2.57h-2.207l-.594 2.57h-1.508l1.344-5.816h1.508l-.497 2.14h2.207l.497-2.14zm3.286 5.816h-3.407l.239-1.031h.949l.867-3.754h-.95l.24-1.031h3.405l-.238 1.031h-.95l-.866 3.754h.949zm4.097.121q-1.238 0-1.941-.586-.7-.586-.7-1.664 0-1.68 1.083-2.738 1.082-1.062 2.746-1.062.629 0 1.164.109.539.105 1.117.406l-.332 1.363h-.168q-.469-.445-.887-.617-.418-.176-.922-.176-.511 0-.925.211-.414.207-.707.563-.278.336-.434.797-.156.46-.156.965 0 .699.383 1.03.382.329 1.246.329.086 0 .187-.004t.188-.012l.265-1.14h-1.16l.254-1.098h2.684l-.664 2.871q-.52.18-1.11.317-.586.136-1.21.136m10.179-5.937-1.344 5.816h-1.508l.594-2.57h-2.207l-.594 2.57h-1.508l1.344-5.816h1.508l-.496 2.14h2.207l.496-2.14zm5.008 5.921q-.746 0-1.332-.128-.582-.13-1.008-.32l.3-1.395h.165q.402.367.945.57.543.2 1.168.2.64 0 .941-.172.301-.176.301-.5 0-.122-.05-.207-.048-.09-.188-.176t-.387-.168q-.242-.086-.629-.196-.426-.117-.765-.253-.336-.137-.575-.325-.238-.191-.363-.441-.121-.25-.121-.598 0-.875.77-1.394.773-.524 2.113-.524.644 0 1.215.106.574.105.972.285l-.285 1.34h-.16q-.305-.281-.805-.469-.496-.191-1.086-.191-.578 0-.894.168t-.317.464q0 .137.047.227t.192.176q.125.078.394.172.27.09.633.187.977.262 1.395.613.418.352.418.954 0 .503-.227.886-.226.383-.625.621-.418.254-.95.371-.53.118-1.202.118m9.335-4.313q0 1.04-.863 1.676-.859.637-2.406.637h-.57l-.438 1.894h-1.508l1.344-5.816h2.09q.57 0 .992.078.426.078.735.27.304.19.465.5.16.304.16.761m-1.6.145q0-.34-.247-.504-.246-.164-.73-.164h-.606l-.402 1.742h.539q.683 0 1.062-.277.383-.282.383-.797m7.233-1.754-.253 1.101h-2.715l-.242 1.04h2.52l-.259 1.105h-2.52l-.34 1.469h2.716l-.25 1.101h-4.215l1.344-5.816zm5.469 0-.254 1.101h-2.715l-.242 1.04h2.52l-.258 1.105h-2.52l-.34 1.469h2.715l-.25 1.101h-4.214l1.343-5.816zm6.176 2.269q0 .989-.52 1.825-.52.835-1.332 1.28-.492.266-1.027.356-.535.086-1.281.086h-2.106l1.344-5.816h1.883q.832 0 1.34.129t.82.347q.43.297.652.742.227.442.227 1.051m-1.57.137q0-.398-.149-.684-.148-.289-.453-.464-.14-.078-.289-.118-.144-.043-.332-.062-.18-.016-.41-.016h-.453l-.86 3.688h.621q.258 0 .418-.02.207-.02.372-.062.167-.043.367-.145.562-.289.863-.863.305-.574.305-1.254m10.945-.137q0 .989-.52 1.825-.52.835-1.332 1.28-.492.266-1.027.356-.535.086-1.281.086h-2.106l1.344-5.816h1.883q.832 0 1.34.129t.82.347q.43.297.652.742.227.442.227 1.051m-1.57.137q0-.398-.149-.684-.148-.289-.453-.464-.14-.078-.289-.118-.144-.043-.332-.062-.18-.016-.41-.016h-.453l-.86 3.688h.621q.258 0 .418-.02.207-.02.372-.062.167-.043.367-.145.562-.289.863-.863.305-.574.305-1.254m5.093 3.41h-3.406l.238-1.031h.95l.867-3.754h-.95l.239-1.031h3.406l-.238 1.031h-.95l-.866 3.754h.949zm4.098.121q-1.238 0-1.941-.586-.7-.586-.7-1.664 0-1.68 1.083-2.738 1.082-1.062 2.746-1.062.629 0 1.164.109.539.105 1.117.406l-.332 1.363h-.168q-.469-.445-.887-.617-.418-.176-.922-.176-.511 0-.926.211-.414.207-.707.563-.277.336-.433.797-.156.46-.156.965 0 .699.382 1.03.383.329 1.247.329.085 0 .187-.004t.188-.012l.265-1.14h-1.16l.254-1.098h2.683l-.664 2.871q-.52.18-1.109.317-.586.136-1.21.136m6.761-.121h-3.406l.238-1.031h.95l.866-3.754h-.949l.238-1.031h3.407l-.239 1.031h-.949l-.867 3.754h.95zm6.871-4.691h-1.813l-1.082 4.691h-1.507l1.082-4.691h-1.813l.258-1.125h5.133zm5.246 4.691h-1.512l-.133-1.187h-2.14l-.68 1.187h-1.566l3.488-5.816h1.734zm-1.758-2.23-.234-2.09-1.2 2.09zm6.738 2.23h-4.199l1.344-5.816h1.508l-1.082 4.691h2.691zm9.895-3.547q0 .989-.52 1.825-.52.835-1.332 1.28-.492.266-1.027.356-.535.086-1.281.086h-2.106l1.344-5.816h1.883q.832 0 1.34.129t.82.347q.43.297.652.742.227.442.227 1.051m-1.57.137q0-.398-.149-.684-.148-.289-.453-.464-.14-.078-.289-.118-.144-.043-.332-.062-.18-.016-.41-.016h-.453l-.86 3.688h.621q.258 0 .418-.02.207-.02.372-.062.167-.043.367-.145.562-.289.863-.863.305-.574.305-1.254m7.382 3.41h-1.511l-.133-1.187h-2.14l-.68 1.187h-1.567l3.489-5.816h1.734zm-1.757-2.23-.235-2.09-1.199 2.09zm8.183-2.461h-1.812l-1.082 4.691h-1.508l1.082-4.691h-1.813l.258-1.125h5.133zm5.246 4.691h-1.511l-.133-1.187h-2.14l-.68 1.187h-1.567l3.488-5.816h1.735zm-1.757-2.23-.235-2.09-1.199 2.09zm11.058-1.977q0 1.04-.863 1.676-.86.637-2.406.637h-.57l-.438 1.894h-1.508l1.344-5.816h2.09q.57 0 .992.078.426.078.734.27.305.19.465.5.16.304.16.761m-1.601.145q0-.34-.246-.504-.247-.164-.731-.164h-.605l-.403 1.742h.54q.683 0 1.062-.277.383-.282.383-.797m7.113 4.062h-1.512l-.133-1.187h-2.14l-.68 1.187h-1.566l3.488-5.816h1.734zm-1.758-2.23-.234-2.09-1.2 2.09zm5.231 2.343q-1.18 0-1.82-.578-.641-.582-.641-1.664 0-.855.28-1.55.286-.696.782-1.204.484-.492 1.16-.77.68-.276 1.426-.276.602 0 1.117.125.516.12.93.359l-.344 1.41h-.172q-.37-.398-.738-.586-.367-.187-.863-.187-.871 0-1.438.699-.562.699-.562 1.781 0 .695.312 1.008.313.312.914.312.54 0 1.012-.214.473-.22.895-.555h.156l-.34 1.39q-.176.07-.41.172-.235.098-.45.16-.28.083-.527.126-.242.043-.68.043m8.603-.114h-1.653l-1.309-2.355-.605.527-.422 1.828h-1.508l1.34-5.816h1.508l-.59 2.562 2.625-2.562h1.781l-2.937 2.707z" style="font-style:italic;font-variant:normal;font-weight:700;font-stretch:normal;font-size:8px;font-family:sans-serif;-inkscape-font-specification:&quot;sans-serif Bold Italic&quot;;text-align:center;text-anchor:middle"/></g><path d="M50.691 102.778h239.952c3.975 0 6.973 2.852 6.973 6.31v80.491c0 3.46-2.998 6.31-6.973 6.31H50.69c-3.976 0-6.975-2.851-6.975-6.31v-80.49c0-3.459 3-6.31 6.975-6.31z" style="color:#000;font-style:normal;font-variant:normal;font-weight:400;font-stretch:normal;font-size:medium;line-height:normal;font-family:sans-serif;font-variant-ligatures:normal;font-variant-position:normal;font-variant-caps:normal;font-variant-numeric:normal;font-variant-alternates:normal;font-feature-settings:normal;text-indent:0;text-align:start;text-decoration:none;text-decoration-line:none;text-decoration-style:solid;text-decoration-color:#000;letter-spacing:normal;word-spacing:normal;text-transform:none;writing-mode:lr-tb;direction:ltr;text-orientation:mixed;dominant-baseline:auto;baseline-shift:baseline;text-anchor:start;white-space:normal;shape-padding:0;clip-rule:nonzero;display:inline;overflow:visible;visibility:visible;opacity:1;isolation:auto;mix-blend-mode:normal;color-interpolation:sRGB;color-interpolation-filters:linearRGB;solid-color:#000;solid-opacity:1;vector-effect:none;fill:none;fill-opacity:1;fill-rule:nonzero;stroke:#000;stroke-width:1.5;stroke-linecap:butt;stroke-linejoin:miter;stroke-miterlimit:4;stroke-dasharray:none;stroke-dashoffset:0;stroke-opacity:1;color-rendering:auto;image-rendering:auto;shape-rendering:auto;text-rendering:auto"/><path d="M27.457 74.666C21.133 74.666 16 79.726 16 85.96v169.412c0 6.234 5.134 11.294 11.458 11.294h286.42c6.324 0 11.458-5.06 11.458-11.294V85.96c0-6.234-5.134-11.294-11.458-11.294z" style="fill:none;fill-opacity:1;fill-rule:nonzero;stroke:#1a1a1a;stroke-width:2.66666675;stroke-miterlimit:4;stroke-dasharray:none"/></svg>