<?xml version="1.0" encoding="UTF-8" standalone="no"?>
<svg
   xmlns:dc="http://purl.org/dc/elements/1.1/"
   xmlns:cc="http://creativecommons.org/ns#"
   xmlns:rdf="http://www.w3.org/1999/02/22-rdf-syntax-ns#"
   xmlns:svg="http://www.w3.org/2000/svg"
   xmlns="http://www.w3.org/2000/svg"
   xmlns:sodipodi="http://sodipodi.sourceforge.net/DTD/sodipodi-0.dtd"
   xmlns:inkscape="http://www.inkscape.org/namespaces/inkscape"
   viewBox="0 0 341.33334 341.33334"
   height="256"
   width="256"
   xml:space="preserve"
   id="svg2"
   version="1.1"
   sodipodi:docname="Commodore - VIC-20-content.svg"
   inkscape:version="0.92.3 (2405546, 2018-03-11)"
   inkscape:export-filename="D:\Documents\Github\Retrosystem-retroarch-theme\png\Commodore - VIC-20-content.png"
   inkscape:export-xdpi="72"
   inkscape:export-ydpi="72"><sodipodi:namedview
   pagecolor="#ffffff"
   bordercolor="#666666"
   borderopacity="1"
   objecttolerance="10"
   gridtolerance="10"
   guidetolerance="10"
   inkscape:pageopacity="0"
   inkscape:pageshadow="2"
   inkscape:window-width="1920"
   inkscape:window-height="1001"
   id="namedview35"
   showgrid="false"
   showguides="false"
   inkscape:zoom="2.765625"
   inkscape:cx="174.75726"
   inkscape:cy="128.55187"
   inkscape:window-x="-9"
   inkscape:window-y="-9"
   inkscape:window-maximized="1"
   inkscape:current-layer="svg2"
   inkscape:pagecheckerboard="false" /><metadata
   id="metadata8"><rdf:RDF><cc:Work
       rdf:about=""><dc:format>image/svg+xml</dc:format><dc:type
         rdf:resource="http://purl.org/dc/dcmitype/StillImage" /><dc:title /></cc:Work></rdf:RDF></metadata><defs
   id="defs6"><clipPath
     id="clipPath18"
     clipPathUnits="userSpaceOnUse"><path
       id="path16"
       d="M 0,256 H 256 V 0 H 0 Z" /></clipPath><clipPath
     id="clipPath26"
     clipPathUnits="userSpaceOnUse"><path
       id="path24"
       d="M 4,200 H 252 V 60 H 4 Z" /></clipPath><clipPath
     id="clipPath46"
     clipPathUnits="userSpaceOnUse"><path
       id="path44"
       d="M 20,188 H 236 V 80 H 20 Z" /></clipPath></defs><g
   id="g22"
   transform="matrix(1.3333333,0,0,-1.3333333,0,341.33333)" /><path
   id="path38"
   style="fill:#bfbfbf;fill-opacity:1;fill-rule:nonzero;stroke:none;stroke-width:1.33333325"
   d="M 325.33333,250.66667 H 16.000004 V 90.666674 c 0,-2.945333 2.388,-5.333333 5.333334,-5.333333 H 320 c 2.94533,0 5.33333,2.388 5.33333,5.333333 z"
   inkscape:connector-curvature="0" /><g
   id="g42"
   transform="matrix(1.3333333,0,0,-1.3333333,0,341.33333)" /><g
   id="g52"
   transform="matrix(1.3333333,0,0,-1.3333333,0,341.33333)"><g
     style="opacity:0.5"
     id="g50"
     clip-path="url(#clipPath46)"><path
       id="path48"
       style="fill:#e6e6e6;fill-opacity:1;fill-rule:nonzero;stroke:none"
       d="M 236,80 H 20 v 108 h 216 z"
       inkscape:connector-curvature="0" /></g></g><path
   id="path56"
   style="fill:#ffffeb;fill-opacity:1;fill-rule:nonzero;stroke:none;stroke-width:1.33333325"
   d="M 303.99999,224 H 37.33333 c -2.945333,0 -5.333333,-2.388 -5.333333,-5.33333 V 101.33334 c 0,-2.945337 2.388,-5.333337 5.333333,-5.333337 h 266.66666 c 2.94533,0 5.33333,2.388 5.33333,5.333337 v 117.33333 c 0,2.94533 -2.388,5.33333 -5.33333,5.33333"
   inkscape:connector-curvature="0" /><path
   id="path64"
   style="fill:#cccccc;fill-opacity:1;fill-rule:nonzero;stroke:none;stroke-width:1.33333325"
   d="m 314.66666,234.66667 10.66667,16 V 89.648007 c 0,-1.981333 -2.08534,-3.272 -3.86,-2.385333 l -6.80667,3.404 z"
   inkscape:connector-curvature="0" /><path
   id="path68"
   style="fill:#cccccc;fill-opacity:1;fill-rule:nonzero;stroke:none;stroke-width:1.33333325"
   d="M 26.666666,234.66667 16,250.66667 V 89.648007 c 0,-1.981333 2.085333,-3.272 3.86,-2.385333 l 6.806666,3.404 z"
   inkscape:connector-curvature="0" /><path
   style="opacity:1;vector-effect:none;fill:#aa8800;fill-opacity:1;stroke:none;stroke-width:1.34947097;stroke-linecap:butt;stroke-linejoin:miter;stroke-miterlimit:4;stroke-dasharray:none;stroke-dashoffset:0;stroke-opacity:1"
   d="m 47.080907,120.51612 172.070653,0.51135 -13.88089,14.31792 -158.189763,0.51135 z"
   id="rect901"
   inkscape:connector-curvature="0"
   sodipodi:nodetypes="ccccc" /><g
   id="g874"
   transform="matrix(0.99998935,0,0,1,-0.45100914,0.24844907)"><path
     id="path70"
     style="fill:#000000;fill-opacity:1;fill-rule:nonzero;stroke:none;stroke-width:1.33333325"
     d="m 77.025043,112.99129 h -1.90666 v -10.57334 h 1.90666 z"
     inkscape:connector-curvature="0" /><path
     id="path72"
     style="fill:#000000;fill-opacity:1;fill-rule:nonzero;stroke:none;stroke-width:1.33333325"
     d="m 80.805043,112.99129 h -1.90666 v -7.40534 h 1.90666 z m 0,-9.09334 h -1.90666 v -1.48 h 1.90666 z"
     inkscape:connector-curvature="0" /><g
     style="fill:#000000"
     transform="matrix(1.3333333,0,0,-1.3333333,86.467843,106.89529)"
     id="g74"><path
       id="path76"
       style="fill:#000000;fill-opacity:1;fill-rule:nonzero;stroke:none"
       d="m 0,0 c -0.928,0 -1.393,-0.536 -1.393,-1.609 0,-0.841 0.079,-1.38 0.238,-1.618 0.158,-0.238 0.516,-0.358 1.074,-0.358 0.583,0 0.955,0.11 1.118,0.329 0.162,0.218 0.243,0.719 0.243,1.501 0,0.729 -0.08,1.203 -0.24,1.424 C 0.88,-0.11 0.533,0 0,0 m -2.842,-4.572 v 7.93 h 1.431 V 0.186 L -1.38,0.174 c 0.245,0.585 0.868,0.878 1.867,0.878 0.858,0 1.446,-0.195 1.764,-0.584 0.319,-0.39 0.478,-1.111 0.478,-2.164 0,-1.151 -0.161,-1.928 -0.484,-2.333 -0.323,-0.405 -0.942,-0.607 -1.858,-0.607 -0.928,0 -1.538,0.314 -1.83,0.941 h -0.031 l 0.063,-0.877 z"
       inkscape:connector-curvature="0" /></g><g
     style="fill:#000000"
     transform="matrix(1.3333333,0,0,-1.3333333,91.747043,105.58622)"
     id="g78"><path
       id="path80"
       style="fill:#000000;fill-opacity:1;fill-rule:nonzero;stroke:none"
       d="M 0,0 H 1.43 L 1.343,-0.779 1.374,-0.784 c 0.341,0.581 0.878,0.871 1.611,0.871 1.049,0 1.574,-0.616 1.574,-1.847 V -2.15 H 3.21 c 0.017,0.151 0.025,0.25 0.025,0.297 0,0.592 -0.248,0.889 -0.743,0.889 -0.708,0 -1.062,-0.44 -1.062,-1.319 V -5.554 H 0 Z"
       inkscape:connector-curvature="0" /></g><g
     style="fill:#000000"
     transform="matrix(1.3333333,0,0,-1.3333333,104.02918,108.52209)"
     id="g82"><path
       id="path84"
       style="fill:#000000;fill-opacity:1;fill-rule:nonzero;stroke:none"
       d="m 0,0 -0.006,0.221 c 0,0.441 -0.082,0.728 -0.247,0.86 -0.164,0.131 -0.521,0.197 -1.071,0.197 -0.533,0 -0.879,-0.079 -1.04,-0.238 C -2.524,0.881 -2.604,0.534 -2.604,0 Z m -0.012,-1.574 h 1.436 v -0.215 c 0,-1.085 -0.874,-1.627 -2.623,-1.627 -1.187,0 -1.963,0.188 -2.329,0.563 -0.367,0.376 -0.55,1.172 -0.55,2.388 0,1.081 0.191,1.807 0.574,2.179 0.384,0.372 1.131,0.558 2.242,0.558 1.066,0 1.78,-0.181 2.143,-0.544 0.362,-0.362 0.543,-1.073 0.543,-2.135 v -0.406 h -4.041 c -0.008,-0.124 -0.012,-0.206 -0.012,-0.244 0,-0.546 0.09,-0.911 0.271,-1.093 0.182,-0.182 0.543,-0.273 1.084,-0.273 0.525,0 0.866,0.054 1.024,0.16 0.158,0.107 0.238,0.336 0.238,0.689"
       inkscape:connector-curvature="0" /></g><g
     style="fill:#000000"
     transform="matrix(1.3333333,0,0,-1.3333333,112.65571,105.58622)"
     id="g86"><path
       id="path88"
       style="fill:#000000;fill-opacity:1;fill-rule:nonzero;stroke:none"
       d="M 0,0 V -1.011 H -2.298 V -3.8 c 0,-0.515 0.21,-0.772 0.631,-0.772 0.462,0 0.693,0.312 0.693,0.935 v 0.221 h 1.218 v -0.279 c 0,-0.256 -0.009,-0.474 -0.025,-0.657 -0.08,-0.848 -0.758,-1.272 -2.036,-1.272 -1.274,0 -1.911,0.544 -1.911,1.633 v 2.98 H -4.503 V 0 h 0.775 v 1.243 h 1.43 V 0 Z"
       inkscape:connector-curvature="0" /></g><g
     style="fill:#000000"
     transform="matrix(1.3333333,0,0,-1.3333333,114.07958,105.58622)"
     id="g90"><path
       id="path92"
       style="fill:#000000;fill-opacity:1;fill-rule:nonzero;stroke:none"
       d="M 0,0 H 1.43 L 1.343,-0.779 1.374,-0.784 c 0.341,0.581 0.878,0.871 1.611,0.871 1.049,0 1.574,-0.616 1.574,-1.847 V -2.15 H 3.21 c 0.017,0.151 0.025,0.25 0.025,0.297 0,0.592 -0.248,0.889 -0.743,0.889 -0.708,0 -1.062,-0.44 -1.062,-1.319 V -5.554 H 0 Z"
       inkscape:connector-curvature="0" /></g><g
     style="fill:#000000"
     transform="matrix(1.3333333,0,0,-1.3333333,124.69638,106.90302)"
     id="g94"><path
       id="path96"
       style="fill:#000000;fill-opacity:1;fill-rule:nonzero;stroke:none"
       d="m 0,0 c -0.595,0 -0.974,-0.1 -1.137,-0.299 -0.162,-0.2 -0.243,-0.665 -0.243,-1.397 0,-0.837 0.077,-1.36 0.231,-1.569 0.154,-0.209 0.539,-0.314 1.155,-0.314 0.596,0 0.971,0.111 1.127,0.331 0.157,0.221 0.235,0.752 0.235,1.592 0,0.709 -0.082,1.162 -0.244,1.36 C 0.962,-0.099 0.587,0 0,0 m 0.012,1.052 c 1.154,0 1.909,-0.172 2.267,-0.515 0.359,-0.342 0.538,-1.066 0.538,-2.17 0,-1.231 -0.175,-2.039 -0.525,-2.422 -0.35,-0.384 -1.087,-0.575 -2.211,-0.575 -1.22,0 -2.01,0.178 -2.37,0.534 -0.36,0.356 -0.54,1.141 -0.54,2.353 0,1.166 0.177,1.923 0.531,2.272 0.354,0.348 1.124,0.523 2.31,0.523"
       inkscape:connector-curvature="0" /></g><g
     style="fill:#000000"
     transform="matrix(1.3333333,0,0,-1.3333333,64.451713,105.08462)"
     id="g98"><path
       id="path100"
       style="fill:#000000;fill-opacity:1;fill-rule:nonzero;stroke:none"
       d="M 0,0 H 4 L 2.131,-2 H 0 Z"
       inkscape:connector-curvature="0" /></g><g
     style="fill:#000000"
     transform="matrix(1.3333333,0,0,-1.3333333,64.451713,110.41795)"
     id="g102"><path
       id="path104"
       style="fill:#000000;fill-opacity:1;fill-rule:nonzero;stroke:none"
       d="M 0,0 H 4 L 2.131,2 H 0 Z"
       inkscape:connector-curvature="0" /></g><g
     style="fill:#000000"
     transform="matrix(1.3333333,0,0,-1.3333333,57.503583,110.50462)"
     id="g106"><path
       id="path108"
       style="fill:#000000;fill-opacity:1;fill-rule:nonzero;stroke:none"
       d="M 0,0 V 6.065 H -2.789 V 0 -0.824 -1.935 h 8 V 0 Z"
       inkscape:connector-curvature="0" /></g></g><text
   xml:space="preserve"
   style="font-style:normal;font-variant:normal;font-weight:normal;font-stretch:normal;font-size:22.68294525px;line-height:1.25;font-family:Haettenschweiler;-inkscape-font-specification:Haettenschweiler;letter-spacing:0px;word-spacing:0px;fill:#000000;fill-opacity:1;stroke:none;stroke-width:0.56707364"
   x="48.117313"
   y="166.50662"
   id="text899"
   transform="scale(1.0624187,0.94124847)"><tspan
     sodipodi:role="line"
     id="tspan897"
     x="48.117313"
     y="166.50662"
     style="stroke-width:0.56707364">VIC-1234</tspan></text>

<path
   style="opacity:1;vector-effect:none;fill:#aa8800;fill-opacity:1;stroke:none;stroke-width:1.33333325;stroke-linecap:butt;stroke-linejoin:miter;stroke-miterlimit:4;stroke-dasharray:none;stroke-dashoffset:0;stroke-opacity:1"
   d="m 154.20961,191.59433 139.85532,0.51136 v 16.36333 H 139.63601 Z"
   id="rect904"
   inkscape:connector-curvature="0"
   sodipodi:nodetypes="ccccc" /><path
   style="fill:#000000;stroke:none;stroke-width:1px;stroke-linecap:butt;stroke-linejoin:miter;stroke-opacity:1"
   d="m 79.29622,191.85001 h 29.14719 v 6.13625 l 13.80656,-15.34062 -13.80656,-14.82927 v 6.64761 H 61.91019 l -9.71573,-10.73844 h 63.91926 v -8.18166 l 16.36333,16.87468 -8.69302,10.22708 h 12.78385 v -6.13625 l 14.31791,15.34062 -14.31791,17.38604 v -6.6476 H 87.47789 Z"
   id="path907"
   inkscape:connector-curvature="0"
   sodipodi:nodetypes="ccccccccccccccccccc" /><path
   id="path60"
   style="fill:#808080;fill-opacity:1;fill-rule:nonzero;stroke:none;stroke-width:1.33333325"
   d="M 287.99999,117.33334 H 53.333329 c -5.881333,0 -10.666666,4.78533 -10.666666,10.66667 v 74.66666 c 0,5.88133 4.785333,10.66667 10.666666,10.66667 H 287.99999 c 5.88133,0 10.66667,-4.78534 10.66667,-10.66667 v -74.66666 c 0,-5.88134 -4.78534,-10.66667 -10.66667,-10.66667 m 0,5.33333 c 2.94533,0 5.33333,2.388 5.33333,5.33334 v 74.66666 c 0,2.94533 -2.388,5.33333 -5.33333,5.33333 H 53.333329 c -2.945333,0 -5.333333,-2.388 -5.333333,-5.33333 v -74.66666 c 0,-2.94534 2.388,-5.33334 5.333333,-5.33334 H 287.99999"
   inkscape:connector-curvature="0" /><text
   xml:space="preserve"
   style="font-style:normal;font-variant:normal;font-weight:bold;font-stretch:normal;font-size:30.78128624px;line-height:1.25;font-family:Haettenschweiler;-inkscape-font-specification:'Haettenschweiler Bold';letter-spacing:0px;word-spacing:0px;fill:#000000;fill-opacity:1;stroke:none;stroke-width:0.76953214"
   x="145.94974"
   y="202.2117"
   id="text1244"
   transform="scale(1.1865821,0.84275668)"><tspan
     sodipodi:role="line"
     id="tspan1242"
     x="145.94974"
     y="202.2117"
     style="font-style:normal;font-variant:normal;font-weight:bold;font-stretch:normal;font-family:Haettenschweiler;-inkscape-font-specification:'Haettenschweiler Bold';stroke-width:0.76953214">RETROVIC</tspan></text>

<path
   style="fill:none;fill-opacity:1;fill-rule:nonzero;stroke:#1a1a1a;stroke-width:1.99999994;stroke-miterlimit:4;stroke-dasharray:none"
   d="M 16 64 C 14.642324 64 13.447723 64.680521 12.724609 65.714844 C 12.29432 66.073666 12 66.601922 12 67.236328 L 12 68 L 12 188 L 244 188 L 244 68 L 244 67.236328 C 244 66.601922 243.70568 66.073666 243.27539 65.714844 C 242.55228 64.680521 241.35767 64 240 64 L 16 64 z "
   transform="scale(1.3333334)"
   id="path858" /></svg>