<svg xmlns="http://www.w3.org/2000/svg" xml:space="preserve" width="256" height="256" viewBox="0 0 341.333 341.333"><path d="M74.667 213.333 48 256h245.333l-26.666-42.667-96-10.666z" style="fill:#262626;fill-opacity:1;fill-rule:nonzero;stroke:none;stroke-width:1.33333325"/><path d="M266.667 213.333h-192l-5.334-160H272Z" style="fill:#191919;fill-opacity:1;fill-rule:nonzero;stroke:none;stroke-width:1.33333325"/><path d="M272 58.667H69.333v-16H272Z" style="fill:#262626;fill-opacity:1;fill-rule:nonzero;stroke:none;stroke-width:1.33333325"/><path d="M277.333 48H64V16h213.333Z" style="fill:#191919;fill-opacity:1;fill-rule:nonzero;stroke:none;stroke-width:1.33333325"/><path d="M314.667 325.333h-288l5.333-48h277.333z" style="fill:#100d14;fill-opacity:1;fill-rule:nonzero;stroke:none;stroke-width:1.33333325"/><path d="M288 250.667H53.333v-5.334H288Z" style="fill:#262626;fill-opacity:1;fill-rule:nonzero;stroke:none;stroke-width:1.33333325"/><path d="M288 245.333H53.333V240H288Z" style="fill:#e77f22;fill-opacity:1;fill-rule:nonzero;stroke:none;stroke-width:1.33333325"/><path d="M293.333 256H48l5.333-5.333H288Z" style="fill:#b80000;fill-opacity:1;fill-rule:nonzero;stroke:none;stroke-width:1.33333325"/><path d="M309.333 282.667H32L48 256h245.333Z" style="fill:#4c4c4c;fill-opacity:1;fill-rule:nonzero;stroke:none;stroke-width:1.33333325"/><path d="m0 0 2.798-5.596c.514-1.028.8-2.154.84-3.302l3.854-111.758a8 8 0 0 0-1.266-4.603l-34.648-53.896v-28h-4a4 4 0 0 0-4 4v22.825c0 .767.22 1.518.635 2.163l34.013 52.908a8 8 0 0 1 1.266 4.603L-4.362-8.898a8 8 0 0 1-.84 3.302L-8 0a4 4 0 0 0-.422 1.789v19.056a4 4 0 0 0 4 4h4V1.789C-.422 1.168-.278.556 0 0" style="fill:#ccc;fill-opacity:1;fill-rule:nonzero;stroke:none" transform="matrix(1.33333 0 0 -1.33333 69.897 49.126)"/><path d="m0 0-2.798-5.596a8 8 0 0 1-.84-3.302l-3.853-111.758a8 8 0 0 1 1.265-4.603l34.649-53.896v-28h4a4 4 0 0 1 4 4v22.825c0 .767-.221 1.518-.636 2.163L1.774-125.259a8 8 0 0 0-1.265 4.603L4.362-8.898a8 8 0 0 0 .84 3.302L8 0a4 4 0 0 1 .423 1.789v19.056a4 4 0 0 1-4 4h-4V1.789A4 4 0 0 0 0 0" style="fill:#ccc;fill-opacity:1;fill-rule:nonzero;stroke:none" transform="matrix(1.33333 0 0 -1.33333 271.328 49.126)"/><g style="fill:#4d4d4d"><path d="M0 0h-105.102a8 8 0 0 0-7.98 7.43L-118.551 84a8 8 0 0 0 8 8h116a8 8 0 0 0 8-8L7.979 7.43A8 8 0 0 0 0 0" style="fill:#4d4d4d;fill-opacity:1;fill-rule:nonzero;stroke:none" transform="matrix(1.33333 0 0 -1.33333 240.734 197.333)"/></g><path d="M0 0h-96c-4.4 0-8 3.6-8 8v60c0 4.4 3.6 8 8 8H0c4.4 0 8-3.6 8-8V8c0-4.4-3.6-8-8-8" style="fill:#191919;fill-opacity:1;fill-rule:nonzero;stroke:none" transform="matrix(1.33333 0 0 -1.33333 234.667 192)"/><path d="M0 0h-48l3.088 9.265A4 4 0 0 0-41.117 12h34.234a4 4 0 0 0 3.795-2.735z" style="fill:#191919;fill-opacity:1;fill-rule:nonzero;stroke:none" transform="matrix(1.33333 0 0 -1.33333 202.667 240)"/><path d="M157.333 240H160v-5.333h-2.667zm5.334 0h2.666v-5.333h-2.666zm5.333 0h2.667v-5.333H168Zm5.333 0H176v-5.333h-2.667zm5.334 0h2.666v-5.333h-2.666z" style="fill:#a3834a;fill-opacity:1;fill-rule:nonzero;stroke:none;stroke-width:1.33333325"/><path d="m0 0 8-4 8 4-8 4Z" style="fill:#ccc;fill-opacity:1;fill-rule:nonzero;stroke:none" transform="matrix(1.33333 0 0 -1.33333 74.667 261.333)"/><path d="m0 0 8-4 8 4-8 4Z" style="fill:#ccc;fill-opacity:1;fill-rule:nonzero;stroke:none" transform="matrix(1.33333 0 0 -1.33333 74.667 277.333)"/><path d="m0 0 8-4 8 4-8 4Z" style="fill:#ccc;fill-opacity:1;fill-rule:nonzero;stroke:none" transform="matrix(1.33333 0 0 -1.33333 61.333 269.333)"/><path d="m0 0 8-4 8 4-8 4Z" style="fill:#ccc;fill-opacity:1;fill-rule:nonzero;stroke:none" transform="matrix(1.33333 0 0 -1.33333 88 269.333)"/><path d="m0 0 8-4 8 4-8 4Z" style="fill:#ccc;fill-opacity:1;fill-rule:nonzero;stroke:none" transform="matrix(1.33333 0 0 -1.33333 248 261.333)"/><path d="m0 0 8-4 8 4-8 4Z" style="fill:#ccc;fill-opacity:1;fill-rule:nonzero;stroke:none" transform="matrix(1.33333 0 0 -1.33333 248 277.333)"/><path d="m0 0 8-4 8 4-8 4Z" style="fill:#ccc;fill-opacity:1;fill-rule:nonzero;stroke:none" transform="matrix(1.33333 0 0 -1.33333 234.667 269.333)"/><path d="m0 0 8-4 8 4-8 4Z" style="fill:#ccc;fill-opacity:1;fill-rule:nonzero;stroke:none" transform="matrix(1.33333 0 0 -1.33333 261.333 269.333)"/><path d="m0 0-8-20h64L48 0Z" style="fill:#262626;fill-opacity:1;fill-rule:nonzero;stroke:none" transform="matrix(1.33333 0 0 -1.33333 138.667 256)"/><path d="M0 0c-10.665 0-22-3.505-22-10s11.335-10 22-10 22 3.505 22 10S10.665 0 0 0m0-2c11.046 0 20-3.582 20-8s-8.954-8-20-8-20 3.582-20 8 8.954 8 20 8" style="fill:#191919;fill-opacity:1;fill-rule:nonzero;stroke:none" transform="matrix(1.33333 0 0 -1.33333 170.667 256)"/><path d="M0 0c0-3.313-7.163-6-16-6s-16 2.687-16 6 7.164 6 16 6S0 3.313 0 0" style="fill:#191919;fill-opacity:1;fill-rule:nonzero;stroke:none" transform="matrix(1.33333 0 0 -1.33333 192 269.333)"/><path d="m0 0 3.468-20.811a2 2 0 0 1 1.973-1.67h.612a2 2 0 0 1 1.973 1.67L11.538.263a2 2 0 0 1-1.055 2.109c-1.591.816-4.685 1.673-9.281-.193A2 2 0 0 1 0 0" style="fill:gray;fill-opacity:1;fill-rule:nonzero;stroke:none" transform="matrix(1.33333 0 0 -1.33333 162.975 242.025)"/><path d="M0 0c-.692 0-1.36.053-2 .143v-21.831c0-1.199.896-2.169 2-2.169s2 .97 2 2.169V.143A14 14 0 0 0 0 0" style="fill:#999;fill-opacity:1;fill-rule:nonzero;stroke:none" transform="matrix(1.33333 0 0 -1.33333 170.667 240.19)"/><path d="M272 42.667H69.333V21.333H272Z" style="fill:#e77f22;fill-opacity:1;fill-rule:nonzero;stroke:none;stroke-width:1.33333325"/><path d="M272 36H69.333v-8H272Z" style="fill:#b80000;fill-opacity:1;fill-rule:nonzero;stroke:none;stroke-width:1.33333325"/></svg>