<?xml version="1.0" encoding="UTF-8" standalone="no"?>
<svg
   xmlns:dc="http://purl.org/dc/elements/1.1/"
   xmlns:cc="http://creativecommons.org/ns#"
   xmlns:rdf="http://www.w3.org/1999/02/22-rdf-syntax-ns#"
   xmlns:svg="http://www.w3.org/2000/svg"
   xmlns="http://www.w3.org/2000/svg"
   xmlns:sodipodi="http://sodipodi.sourceforge.net/DTD/sodipodi-0.dtd"
   xmlns:inkscape="http://www.inkscape.org/namespaces/inkscape"
   viewBox="0 0 341.33334 341.33334"
   height="256"
   width="256"
   xml:space="preserve"
   id="svg2"
   version="1.1"
   sodipodi:docname="GCE - Vectrex (E).svg"
   inkscape:version="0.92.2 (5c3e80d, 2017-08-06)"><sodipodi:namedview
     pagecolor="#ffffff"
     bordercolor="#666666"
     borderopacity="1"
     objecttolerance="10"
     gridtolerance="10"
     guidetolerance="10"
     inkscape:pageopacity="0"
     inkscape:pageshadow="2"
     inkscape:window-width="1024"
     inkscape:window-height="705"
     id="namedview85"
     showgrid="false"
     inkscape:pagecheckerboard="true"
     inkscape:zoom="0.69140623"
     inkscape:cx="170.66667"
     inkscape:cy="170.66667"
     inkscape:window-x="-8"
     inkscape:window-y="-8"
     inkscape:window-maximized="1"
     inkscape:current-layer="svg2" /><metadata
     id="metadata8"><rdf:RDF><cc:Work
         rdf:about=""><dc:format>image/svg+xml</dc:format><dc:type
           rdf:resource="http://purl.org/dc/dcmitype/StillImage" /><dc:title></dc:title></cc:Work></rdf:RDF></metadata><defs
     id="defs6"><clipPath
       id="clipPath18"
       clipPathUnits="userSpaceOnUse"><path
         id="path16"
         d="M 0,256 H 256 V 0 H 0 Z" /></clipPath><clipPath
       id="clipPath26"
       clipPathUnits="userSpaceOnUse"><path
         id="path24"
         d="M 8,180 H 248 V 76 H 8 Z" /></clipPath></defs><g
     id="g36"
     transform="matrix(1.3333333,0,0,-1.3333333,26.150533,112)"><path
       inkscape:connector-curvature="0"
       d="m 0,0 h 216.774 c 1.996,0 3.613,-1.642 3.613,-3.667 v -80.666 c 0,-2.025 -1.617,-3.667 -3.613,-3.667 H 0 c -1.995,0 -3.613,1.642 -3.613,3.667 V -3.667 C -3.613,-1.642 -1.995,0 0,0"
       style="fill:#191919;fill-opacity:1;fill-rule:nonzero;stroke:none"
       id="path38" /></g><g
     id="g40"
     transform="matrix(1.3333333,0,0,-1.3333333,31.632133,128)"><path
       inkscape:connector-curvature="0"
       d="m 0,0 h 208.552 c 2.057,0 3.724,-1.686 3.724,-3.765 v -56.47 c 0,-2.079 -1.667,-3.765 -3.724,-3.765 H 0 c -2.057,0 -3.724,1.686 -3.724,3.765 v 56.47 C -3.724,-1.686 -2.057,0 0,0"
       style="fill:#262626;fill-opacity:1;fill-rule:nonzero;stroke:none"
       id="path42" /></g><g
     id="g44"
     transform="matrix(1.3333333,0,0,-1.3333333,197.33333,111.99974)"><path
       inkscape:connector-curvature="0"
       d="m 0,0 h -24 v -17.821 h 0.022 C -23.979,-17.882 -24,-17.939 -24,-18 c 0,-5.523 5.373,-10 12,-10 6.627,0 12,4.477 12,10 0,0.061 -0.02,0.118 -0.022,0.179 H 0 Z"
       style="fill:#0d0d0d;fill-opacity:1;fill-rule:nonzero;stroke:none"
       id="path46" /></g><g
     id="g48"
     transform="matrix(1.3333333,0,0,-1.3333333,93.333331,138.8388)"><path
       inkscape:connector-curvature="0"
       d="m 0,0 c -12.131,0 -22,-9.869 -22,-22 0,-12.131 9.869,-22 22,-22 12.131,0 22,9.869 22,22 C 22,-9.869 12.131,0 0,0"
       style="fill:#ffffff;fill-opacity:1;fill-rule:nonzero;stroke:none"
       id="path50" /></g><g
     id="g52"
     transform="matrix(1.3333333,0,0,-1.3333333,273.63439,152.17213)"><path
       inkscape:connector-curvature="0"
       d="M 0,0 C -6.236,0 -11.371,-4.782 -11.943,-10.871 H -15.67 C -16.242,-4.782 -21.377,0 -27.613,0 -33.849,0 -38.984,-4.782 -39.556,-10.871 h -3.727 C -43.854,-4.782 -48.99,0 -55.226,0 -61.462,0 -66.597,-4.782 -67.169,-10.871 h -3.727 C -71.467,-4.782 -76.603,0 -82.839,0 -89.074,0 -94.21,-4.782 -94.782,-10.871 h -18.444 V -12 -12.871 h 18.431 c 0.45,-6.21 5.633,-11.129 11.956,-11.129 6.323,0 11.507,4.919 11.956,11.129 h 3.701 c 0.45,-6.21 5.633,-11.129 11.956,-11.129 6.323,0 11.507,4.919 11.956,11.129 h 3.701 c 0.449,-6.21 5.633,-11.129 11.956,-11.129 6.323,0 11.507,4.919 11.956,11.129 h 3.701 C -11.507,-19.081 -6.323,-24 0,-24 c 6.617,0 12,5.383 12,12 C 12,-5.383 6.617,0 0,0"
       style="fill:#ffffff;fill-opacity:1;fill-rule:nonzero;stroke:none"
       id="path54" /></g><g
     id="g56"
     transform="matrix(1.3333333,0,0,-1.3333333,286.96773,168.17213)"><path
       inkscape:connector-curvature="0"
       d="m 0,0 c 0,-5.523 -4.477,-10 -10,-10 -5.523,0 -10,4.477 -10,10 0,5.523 4.477,10 10,10 C -4.477,10 0,5.523 0,0"
       style="fill:#191919;fill-opacity:1;fill-rule:nonzero;stroke:none"
       id="path58" /></g><g
     id="g60"
     transform="matrix(1.3333333,0,0,-1.3333333,120,168.17213)"><path
       inkscape:connector-curvature="0"
       d="m 0,0 c 0,-11.046 -8.954,-20 -20,-20 -11.046,0 -20,8.954 -20,20 0,11.046 8.954,20 20,20 C -8.954,20 0,11.046 0,0"
       style="fill:#191919;fill-opacity:1;fill-rule:nonzero;stroke:none"
       id="path62" /></g><g
     id="g64"
     transform="matrix(1.3333333,0,0,-1.3333333,112,168)"><path
       inkscape:connector-curvature="0"
       d="m 0,0 c 0,-7.732 -6.268,-14 -14,-14 -7.732,0 -14,6.268 -14,14 0,7.732 6.268,14 14,14 C -6.268,14 0,7.732 0,0"
       style="fill:#262626;fill-opacity:1;fill-rule:nonzero;stroke:none"
       id="path66" /></g><g
     id="g68"
     transform="matrix(1.3333333,0,0,-1.3333333,106.66666,168)"><path
       inkscape:connector-curvature="0"
       d="m 0,0 c 0,-5.523 -4.477,-10 -10,-10 -5.523,0 -10,4.477 -10,10 0,5.523 4.477,10 10,10 C -4.477,10 0,5.523 0,0"
       style="fill:#191919;fill-opacity:1;fill-rule:nonzero;stroke:none"
       id="path70" /></g><g
     id="g72"
     transform="matrix(1.3333333,0,0,-1.3333333,101.33333,168)"><path
       inkscape:connector-curvature="0"
       d="m 0,0 c 0,-3.314 -2.686,-6 -6,-6 -3.314,0 -6,2.686 -6,6 0,3.314 2.686,6 6,6 3.314,0 6,-2.686 6,-6"
       style="fill:#bfbfbf;fill-opacity:1;fill-rule:nonzero;stroke:none"
       id="path74" /></g><g
     id="g76"
     transform="matrix(1.3333333,0,0,-1.3333333,93.333331,160)"><path
       inkscape:connector-curvature="0"
       d="m 0,0 c -3.314,0 -6,-2.686 -6,-6 0,-3.314 2.686,-6 6,-6 3.314,0 6,2.686 6,6 0,3.314 -2.686,6 -6,6 m 0,-1.292 c 2.596,0 4.708,-2.112 4.708,-4.708 0,-2.596 -2.112,-4.708 -4.708,-4.708 -2.596,0 -4.708,2.112 -4.708,4.708 0,2.596 2.112,4.708 4.708,4.708"
       style="fill:#d9d9d9;fill-opacity:1;fill-rule:nonzero;stroke:none"
       id="path78" /></g><g
     id="g80"
     transform="matrix(1.3333333,0,0,-1.3333333,303.37426,134.4788)"><path
       inkscape:connector-curvature="0"
       d="M 0,0 H 0.009 Z M 0.009,0.859 H 0 -3.369 c -0.151,0 -0.292,-0.067 -0.379,-0.181 l -0.923,-1.202 -1.066,1.223 c -0.089,0.101 -0.222,0.16 -0.362,0.16 h -3.195 c -0.17,0 -0.326,-0.086 -0.408,-0.223 -0.081,-0.138 -0.075,-0.306 0.017,-0.438 0.928,-1.34 1.953,-2.847 2.255,-3.339 -0.302,-0.491 -1.327,-1.999 -2.255,-3.339 -0.092,-0.132 -0.098,-0.3 -0.017,-0.438 0.082,-0.137 0.238,-0.223 0.408,-0.223 h 3.079 c 0.134,0 0.262,0.054 0.35,0.147 l 1.197,1.271 1.048,-1.251 c 0.088,-0.105 0.223,-0.167 0.367,-0.167 H 0 c 0.165,0 0.318,0.081 0.401,0.213 0.084,0.132 0.085,0.295 0.004,0.428 l -2.132,3.485 2.099,3.184 c 0.061,0.072 0.097,0.163 0.097,0.261 0,0.237 -0.203,0.429 -0.46,0.429 M 0,0.43 -2.265,-3.007 0,-6.711 h -3.253 l -1.394,1.664 -1.568,-1.664 h -3.079 c 0,0 2.382,3.436 2.382,3.57 0,0.134 -2.382,3.571 -2.382,3.571 h 3.195 l 1.452,-1.665 1.278,1.665 H 0 m 0,0 h 0.009"
       style="fill:#354f9f;fill-opacity:1;fill-rule:nonzero;stroke:none"
       id="path82" /></g><g
     id="g84"
     transform="matrix(1.3333333,0,0,-1.3333333,287.49719,133.33334)"><path
       inkscape:connector-curvature="0"
       d="M 0,0 H -6.215 C -6.472,0 -6.68,-0.192 -6.68,-0.43 v -7.14 c 0,-0.238 0.208,-0.43 0.465,-0.43 h 6.622 c 0.187,0 0.356,0.104 0.429,0.264 l 0.58,1.289 c 0.059,0.131 0.045,0.28 -0.039,0.399 -0.083,0.119 -0.224,0.192 -0.378,0.196 l -4.078,0.096 v 0.602 h 1.162 c 0.257,0 0.465,0.192 0.465,0.429 v 1.235 c 0,0.237 -0.208,0.43 -0.465,0.43 h -1.127 c -0.008,0.249 -0.007,0.482 0.004,0.644 h 3.621 c 0.15,0 0.291,0.067 0.378,0.18 0.087,0.113 0.11,0.258 0.061,0.389 L 0.439,-0.29 C 0.375,-0.116 0.198,0 0,0 m 0,-0.43 0.581,-1.557 h -3.95 c -0.232,0 -0.116,-1.503 -0.116,-1.503 h 1.568 v -1.235 h -1.626 v -1.449 l 4.53,-0.108 -0.58,-1.288 h -6.622 v 7.14 H 0"
       style="fill:#354f9f;fill-opacity:1;fill-rule:nonzero;stroke:none"
       id="path86" /></g><g
     id="g88"
     transform="matrix(1.3333333,0,0,-1.3333333,273.16919,133.33334)"><path
       inkscape:connector-curvature="0"
       d="m 0,0 h -5.402 c -0.257,0 -0.465,-0.192 -0.465,-0.43 v -7.14 c 0,-0.238 0.208,-0.43 0.465,-0.43 h 2.556 c 0.253,0 0.459,0.187 0.464,0.421 l 0.107,4.815 0.505,-0.027 c 0.009,-10e-4 0.018,-10e-4 0.027,-10e-4 0.028,0 0.056,0.002 0.084,0.007 0.011,0.002 0.114,0.017 0.248,0.017 0.482,0 0.482,-0.155 0.482,-0.239 0,-0.013 -0.002,-0.326 -0.108,-0.326 -0.027,0.004 -0.054,0.007 -0.081,0.007 -0.106,0 -0.207,-0.036 -0.292,-0.101 -0.106,-0.082 -0.158,-0.204 -0.158,-0.331 V -6.55 c 0,-0.087 0.028,-0.171 0.081,-0.243 l 0.755,-1.02 C -0.645,-7.93 -0.502,-8 -0.349,-8 h 2.905 c 0.168,0 0.324,0.084 0.406,0.221 0.082,0.136 0.078,0.302 -0.011,0.435 l -1.58,2.355 c 0.478,0.385 1.254,1.192 1.301,2.397 0.07,1.811 -2.429,2.543 -2.535,2.573 C 0.092,-0.006 0.046,0 0,0 m 0,-0.43 c 0,0 2.265,-0.644 2.207,-2.147 C 2.149,-4.081 0.755,-4.886 0.755,-4.886 L 2.556,-7.57 h -2.905 l -0.755,1.02 v 2.792 c 0,0 0.026,-0.005 0.067,-0.005 0.163,0 0.572,0.069 0.572,0.756 0,0.573 -0.568,0.668 -0.946,0.668 -0.19,0 -0.332,-0.023 -0.332,-0.023 L -2.73,-2.309 -2.846,-7.57 h -2.556 v 7.14 H 0"
       style="fill:#354f9f;fill-opacity:1;fill-rule:nonzero;stroke:none"
       id="path90" /></g><g
     id="g92"
     transform="matrix(1.3333333,0,0,-1.3333333,251.48359,133.33334)"><path
       inkscape:connector-curvature="0"
       d="M 0,0 H -6.215 C -6.472,0 -6.68,-0.192 -6.68,-0.43 v -7.14 c 0,-0.238 0.208,-0.43 0.465,-0.43 h 6.622 c 0.187,0 0.356,0.104 0.429,0.264 l 0.58,1.289 c 0.059,0.131 0.045,0.28 -0.039,0.399 -0.083,0.119 -0.224,0.192 -0.378,0.196 l -4.078,0.096 v 0.602 h 1.162 c 0.257,0 0.465,0.192 0.465,0.429 v 1.235 c 0,0.237 -0.208,0.43 -0.465,0.43 h -1.127 c -0.008,0.249 -0.007,0.482 0.004,0.644 h 3.621 c 0.15,0 0.291,0.067 0.378,0.18 0.087,0.113 0.11,0.258 0.061,0.389 L 0.439,-0.29 C 0.375,-0.116 0.198,0 0,0 m 0,-0.43 0.581,-1.557 h -3.95 c -0.232,0 -0.116,-1.503 -0.116,-1.503 h 1.568 v -1.235 h -1.626 v -1.449 l 4.53,-0.108 -0.58,-1.288 h -6.622 v 7.14 H 0"
       style="fill:#354f9f;fill-opacity:1;fill-rule:nonzero;stroke:none"
       id="path94" /></g><g
     id="g96"
     transform="matrix(1.3333333,0,0,-1.3333333,237.15559,133.33334)"><path
       inkscape:connector-curvature="0"
       d="m 0,0 h -5.402 c -0.257,0 -0.465,-0.192 -0.465,-0.43 v -7.14 c 0,-0.238 0.208,-0.43 0.465,-0.43 h 2.556 c 0.253,0 0.459,0.187 0.464,0.421 l 0.107,4.815 0.505,-0.027 c 0.009,-10e-4 0.018,-10e-4 0.027,-10e-4 0.028,0 0.056,0.002 0.084,0.007 0.011,0.002 0.114,0.017 0.248,0.017 0.482,0 0.482,-0.155 0.482,-0.239 0,-0.013 -0.002,-0.326 -0.108,-0.326 -0.027,0.004 -0.054,0.007 -0.081,0.007 -0.106,0 -0.207,-0.036 -0.292,-0.101 -0.106,-0.082 -0.158,-0.204 -0.158,-0.331 V -6.55 c 0,-0.087 0.028,-0.171 0.081,-0.243 l 0.755,-1.02 C -0.645,-7.93 -0.502,-8 -0.349,-8 h 2.905 c 0.168,0 0.324,0.084 0.406,0.221 0.082,0.136 0.078,0.302 -0.011,0.435 l -1.58,2.355 c 0.478,0.385 1.254,1.192 1.301,2.397 0.07,1.811 -2.429,2.543 -2.535,2.573 C 0.092,-0.006 0.046,0 0,0 m 0,-0.43 c 0,0 2.265,-0.644 2.207,-2.147 C 2.149,-4.081 0.755,-4.886 0.755,-4.886 L 2.556,-7.57 h -2.905 l -0.755,1.02 v 2.792 c 0,0 0.026,-0.005 0.067,-0.005 0.163,0 0.572,0.069 0.572,0.756 0,0.573 -0.568,0.668 -0.946,0.668 -0.19,0 -0.332,-0.023 -0.332,-0.023 L -2.73,-2.309 -2.846,-7.57 h -2.556 v 7.14 H 0"
       style="fill:#354f9f;fill-opacity:1;fill-rule:nonzero;stroke:none"
       id="path98" /></g><g
     id="g100"
     transform="matrix(1.3333333,0,0,-1.3333333,114.66666,138.66667)"><path
       inkscape:connector-curvature="0"
       d="m 0,0 c 0,-0.552 -0.448,-1 -1,-1 -0.552,0 -1,0.448 -1,1 0,0.552 0.448,1 1,1 0.552,0 1,-0.448 1,-1"
       style="fill:#ff0000;fill-opacity:1;fill-rule:nonzero;stroke:none"
       id="path102" /></g><g
     id="g104"
     transform="matrix(1.3333333,0,0,-1.3333333,122.66666,138.66667)"><path
       inkscape:connector-curvature="0"
       d="m 0,0 c 0,-0.552 -0.448,-1 -1,-1 -0.552,0 -1,0.448 -1,1 0,0.552 0.448,1 1,1 0.552,0 1,-0.448 1,-1"
       style="fill:#ff0000;fill-opacity:1;fill-rule:nonzero;stroke:none"
       id="path106" /></g><g
     id="g108"
     transform="matrix(1.3333333,0,0,-1.3333333,130.66666,138.66667)"><path
       inkscape:connector-curvature="0"
       d="m 0,0 c 0,-0.552 -0.448,-1 -1,-1 -0.552,0 -1,0.448 -1,1 0,0.552 0.448,1 1,1 0.552,0 1,-0.448 1,-1"
       style="fill:#ff0000;fill-opacity:1;fill-rule:nonzero;stroke:none"
       id="path110" /></g><g
     id="g112"
     transform="matrix(1.3333333,0,0,-1.3333333,138.66666,138.66667)"><path
       inkscape:connector-curvature="0"
       d="m 0,0 c 0,-0.552 -0.448,-1 -1,-1 -0.552,0 -1,0.448 -1,1 0,0.552 0.448,1 1,1 0.552,0 1,-0.448 1,-1"
       style="fill:#ff0000;fill-opacity:1;fill-rule:nonzero;stroke:none"
       id="path114" /></g><g
     id="g116"
     transform="matrix(1.3333333,0,0,-1.3333333,146.66666,138.66667)"><path
       inkscape:connector-curvature="0"
       d="m 0,0 c 0,-0.552 -0.448,-1 -1,-1 -0.552,0 -1,0.448 -1,1 0,0.552 0.448,1 1,1 0.552,0 1,-0.448 1,-1"
       style="fill:#ff0000;fill-opacity:1;fill-rule:nonzero;stroke:none"
       id="path118" /></g><g
     id="g120"
     transform="matrix(1.3333333,0,0,-1.3333333,154.66666,138.66667)"><path
       inkscape:connector-curvature="0"
       d="m 0,0 c 0,-0.552 -0.448,-1 -1,-1 -0.552,0 -1,0.448 -1,1 0,0.552 0.448,1 1,1 0.552,0 1,-0.448 1,-1"
       style="fill:#ff0000;fill-opacity:1;fill-rule:nonzero;stroke:none"
       id="path122" /></g><g
     id="g124"
     transform="matrix(1.3333333,0,0,-1.3333333,162.66666,138.66667)"><path
       inkscape:connector-curvature="0"
       d="m 0,0 c 0,-0.552 -0.448,-1 -1,-1 -0.552,0 -1,0.448 -1,1 0,0.552 0.448,1 1,1 0.552,0 1,-0.448 1,-1"
       style="fill:#ff0000;fill-opacity:1;fill-rule:nonzero;stroke:none"
       id="path126" /></g><g
     id="g128"
     transform="matrix(1.3333333,0,0,-1.3333333,207.99999,138.66667)"><path
       inkscape:connector-curvature="0"
       d="m 0,0 c 0,-0.552 -0.448,-1 -1,-1 -0.552,0 -1,0.448 -1,1 0,0.552 0.448,1 1,1 0.552,0 1,-0.448 1,-1"
       style="fill:#ff0000;fill-opacity:1;fill-rule:nonzero;stroke:none"
       id="path130" /></g><g
     id="g132"
     transform="matrix(1.3333333,0,0,-1.3333333,215.99999,138.66667)"><path
       inkscape:connector-curvature="0"
       d="m 0,0 c 0,-0.552 -0.448,-1 -1,-1 -0.552,0 -1,0.448 -1,1 0,0.552 0.448,1 1,1 0.552,0 1,-0.448 1,-1"
       style="fill:#ff0000;fill-opacity:1;fill-rule:nonzero;stroke:none"
       id="path134" /></g><g
     id="g136"
     transform="matrix(1.3333333,0,0,-1.3333333,61.333332,138.66667)"><path
       inkscape:connector-curvature="0"
       d="m 0,0 c 0,-0.552 -0.448,-1 -1,-1 -0.552,0 -1,0.448 -1,1 0,0.552 0.448,1 1,1 0.552,0 1,-0.448 1,-1"
       style="fill:#ff0000;fill-opacity:1;fill-rule:nonzero;stroke:none"
       id="path138" /></g><g
     id="g140"
     transform="matrix(1.3333333,0,0,-1.3333333,69.333332,138.66667)"><path
       inkscape:connector-curvature="0"
       d="m 0,0 c 0,-0.552 -0.448,-1 -1,-1 -0.552,0 -1,0.448 -1,1 0,0.552 0.448,1 1,1 0.552,0 1,-0.448 1,-1"
       style="fill:#ff0000;fill-opacity:1;fill-rule:nonzero;stroke:none"
       id="path142" /></g><g
     id="g144"
     transform="matrix(1.3333333,0,0,-1.3333333,262.71373,133.33334)"><path
       inkscape:connector-curvature="0"
       d="m 0,0 h -6.331 c -0.2,0 -0.378,-0.118 -0.441,-0.294 l -0.755,-2.094 c -0.048,-0.131 -0.024,-0.275 0.063,-0.387 0.088,-0.112 0.228,-0.178 0.377,-0.178 H -5.17 V -7.57 c 0,-0.238 0.208,-0.43 0.465,-0.43 h 3.195 c 0.124,0 0.243,0.046 0.33,0.127 0.087,0.082 0.136,0.192 0.134,0.307 l -0.053,4.667 h 1.912 c 0.163,0 0.364,0.103 0.448,0.232 0.114,0.175 0.287,0.44 -0.85,2.438 C 0.331,-0.088 0.173,0 0,0 m 0,-0.43 c 0,0 1.162,-2.04 0.813,-2.04 h -2.381 l 0.058,-5.1 h -3.195 v 5.047 h -2.382 l 0.756,2.093 H 0"
       style="fill:#354f9f;fill-opacity:1;fill-rule:nonzero;stroke:none"
       id="path146" /></g><g
     id="g148"
     transform="matrix(1.3333333,0,0,-1.3333333,38.606532,144)"><path
       inkscape:connector-curvature="0"
       d="m 0,0 h -4.955 v 8 h 2.217 V 1.52 H 0 Z"
       style="fill:#ff0000;fill-opacity:1;fill-rule:nonzero;stroke:none"
       id="path150" /></g><path
     inkscape:connector-curvature="0"
     d="m 42.765332,144 h -2.956 v -10.66666 h 2.956 z"
     style="fill:#ffffff;fill-opacity:1;fill-rule:nonzero;stroke:none;stroke-width:1.33333325"
     id="path152" /><g
     id="g154"
     transform="matrix(1.3333333,0,0,-1.3333333,50.305599,140.66294)"><path
       inkscape:connector-curvature="0"
       d="M 0,0 C 0,0.48 -0.174,0.796 -0.523,0.949 -0.665,1.01 -0.925,1.04 -1.302,1.04 h -0.427 v -2.251 h 0.32 c 0.491,0 0.836,0.091 1.036,0.274 C -0.124,-0.709 0,-0.396 0,0 m -0.212,3.326 c 0,0.396 -0.153,0.659 -0.459,0.789 -0.129,0.053 -0.364,0.08 -0.706,0.08 H -1.729 V 2.332 h 0.288 c 0.399,0 0.68,0.061 0.844,0.182 0.257,0.191 0.385,0.461 0.385,0.812 M 2.271,-0.16 c 0,-0.525 -0.17,-0.99 -0.51,-1.394 C 1.45,-1.935 1.05,-2.194 0.563,-2.331 0.174,-2.446 -0.474,-2.503 -1.379,-2.503 h -2.568 v 8 h 2.642 c 0.637,0 1.088,-0.017 1.353,-0.051 C 0.313,5.412 0.569,5.333 0.817,5.212 1.468,4.892 1.793,4.366 1.793,3.634 1.793,3.215 1.68,2.869 1.454,2.594 1.227,2.32 0.852,2.072 0.329,1.851 0.654,1.813 0.969,1.715 1.273,1.554 1.938,1.211 2.271,0.64 2.271,-0.16"
       style="fill:#354f9f;fill-opacity:1;fill-rule:nonzero;stroke:none"
       id="path156" /></g><g
     id="g158"
     transform="matrix(1.3333333,0,0,-1.3333333,176.51613,168.17213)"><path
       inkscape:connector-curvature="0"
       d="m 0,0 c 0,-5.523 -4.477,-10 -10,-10 -5.523,0 -10,4.477 -10,10 0,5.523 4.477,10 10,10 C -4.477,10 0,5.523 0,0"
       style="fill:#191919;fill-opacity:1;fill-rule:nonzero;stroke:none"
       id="path160" /></g><g
     id="g162"
     transform="matrix(1.3333333,0,0,-1.3333333,213.33333,168.17213)"><path
       inkscape:connector-curvature="0"
       d="m 0,0 c 0,-5.523 -4.477,-10 -10,-10 -5.523,0 -10,4.477 -10,10 0,5.523 4.477,10 10,10 C -4.477,10 0,5.523 0,0"
       style="fill:#191919;fill-opacity:1;fill-rule:nonzero;stroke:none"
       id="path164" /></g><g
     id="g166"
     transform="matrix(1.3333333,0,0,-1.3333333,250.15053,168.17213)"><path
       inkscape:connector-curvature="0"
       d="m 0,0 c 0,-5.523 -4.477,-10 -10,-10 -5.523,0 -10,4.477 -10,10 0,5.523 4.477,10 10,10 C -4.477,10 0,5.523 0,0"
       style="fill:#191919;fill-opacity:1;fill-rule:nonzero;stroke:none"
       id="path168" /></g></svg>
