<svg xmlns="http://www.w3.org/2000/svg" xml:space="preserve" width="256" height="256" viewBox="0 0 341.333 341.333"><path d="M0 0h224.543a3.72 3.72 0 0 0 3.728-3.714v-96.572a3.72 3.72 0 0 0-3.728-3.714H0a3.72 3.72 0 0 0-3.729 3.714v96.572A3.72 3.72 0 0 0 0 0" style="fill:#404040;fill-opacity:1;fill-rule:nonzero;stroke:none" transform="matrix(1.33333 0 0 -1.33333 20.971 21.333)"/><path d="M0 0h208.594c2.045 0 3.703-1.719 3.703-3.84v-88.32c0-2.121-1.658-3.84-3.703-3.84H0c-2.045 0-3.703 1.719-3.703 3.84v88.32C-3.703-1.719-2.045 0 0 0" style="fill:#262626;fill-opacity:1;fill-rule:nonzero;stroke:none" transform="matrix(1.33333 0 0 -1.33333 31.604 16)"/><path d="M0 0c-2.142 0-3.867-1.65-3.867-3.789s-1.619-3.79-3.866-3.79-3.867-1.69-3.867-3.789v-128.843c0-2.099 1.725-3.789 3.867-3.789h224.266c2.142 0 3.867 1.69 3.867 3.789v128.843c0 2.099-1.716 3.789-3.867 3.789s-3.866 1.744-3.866 3.79c0 2.045-1.725 3.789-3.867 3.789z" style="fill:#333;fill-opacity:1;fill-rule:nonzero;stroke:none" transform="matrix(1.33333 0 0 -1.33333 31.768 133.333)"/><path d="M0 0h201.067a7.733 7.733 0 0 0 7.733-7.733v-100.534a7.733 7.733 0 0 0-7.733-7.733H0a7.733 7.733 0 0 0-7.733 7.733V-7.733A7.733 7.733 0 0 0 0 0" style="fill:#d9d9d9;fill-opacity:1;fill-rule:nonzero;stroke:none" transform="matrix(1.33333 0 0 -1.33333 36.923 153.97)"/><path d="M0 0c-.54 0-1.081-.175-1.527-.526l-19.555-15.36a2.37 2.37 0 0 1-.78-2.668 2.44 2.44 0 0 1 2.307-1.606h5.377v-1.44c0-1.325 1.095-2.4 2.445-2.4h23.466c1.35 0 2.445 1.075 2.445 2.4v1.44h5.377c1.039 0 1.963.644 2.307 1.606a2.37 2.37 0 0 1-.78 2.668L1.527-.526A2.47 2.47 0 0 1 0 0m0-2.4 19.555-15.36h-7.822v-3.84h-23.466v3.84h-7.822z" style="fill:#333;fill-opacity:1;fill-rule:nonzero;stroke:none" transform="matrix(1.33333 0 0 -1.33333 170.667 37.333)"/><path d="M0 0h4.718v8.055H7.47l4.063 4.731h-4.98L2.359 8.055l-.917.639 3.538 4.092H0Z" style="fill:#666;fill-opacity:1;fill-rule:nonzero;stroke:none" transform="matrix(1.33333 0 0 -1.33333 166.46 191.693)"/><path d="M0 0h6.38v10.893h3.722l5.494 6.397H8.861L3.19 10.893l-1.24.864 4.785 5.533H0Z" style="fill:#333;fill-opacity:1;fill-rule:nonzero;stroke:none" transform="matrix(1.33333 0 0 -1.33333 125.333 191.693)"/><path d="M0 0c.814.939 2.035.289 2.035.289l-2.22-2.347S-.814-.939 0 0m7.074 2.064c-.23-.252-3.12-3.405-4.151-4.411C1.85-3.394.999-2.96.999-2.96L6.53 2.852C5.286 4.329 3.476 5.328 1.364 5.328c-3.744 0-6.779-2.961-6.779-6.614s3.035-6.613 6.779-6.613 6.779 2.961 6.779 6.613c0 1.25-.451 2.353-1.069 3.35" style="fill:#666;fill-opacity:1;fill-rule:nonzero;stroke:none" transform="matrix(1.33333 0 0 -1.33333 145.049 181.468)"/><path d="M0 0c.814.939 2.035.289 2.035.289l-2.22-2.347S-.814-.939 0 0m7.074 2.064c-.23-.252-3.12-3.405-4.151-4.411C1.85-3.394.999-2.96.999-2.96L6.53 2.852C5.286 4.329 3.476 5.328 1.364 5.328c-3.744 0-6.779-2.961-6.779-6.614s3.035-6.613 6.779-6.613 6.779 2.961 6.779 6.613c0 1.25-.451 2.353-1.069 3.35" style="fill:#666;fill-opacity:1;fill-rule:nonzero;stroke:none" transform="matrix(1.33333 0 0 -1.33333 185.299 181.454)"/><path d="M0 0c.357-.102 10.54 10.984 10.54 10.984v-6.48h6.808L12.612-.424h-1.998v-12.362H5.803V-.901l2.516 3.076-.518.53L4.717-.328H-.488z" style="fill:#666;fill-opacity:1;fill-rule:nonzero;stroke:none" transform="matrix(1.33333 0 0 -1.33333 149.055 174.645)"/><path d="M0 0h10.509L7.031-4.141l.666-.458L11.694 0h5.698l-5.846-6.393 5.846-6.393H7.031l3.33 3.77-.616.577s-3.824-4.386-3.948-4.347c-.123.039-5.624 0-5.624 0l5.674 6.393z" style="fill:#666;fill-opacity:1;fill-rule:nonzero;stroke:none" transform="matrix(1.33333 0 0 -1.33333 192.81 174.645)"/><path d="M0 0v8.108h-5.243c-1.462 0-2.648-1.162-2.648-2.594V-.973c0-1.433 1.186-2.595 2.648-2.595h15.667V0Z" style="fill:#262626;fill-opacity:1;fill-rule:nonzero;stroke:none" transform="matrix(1.33333 0 0 -1.33333 250.52 293.477)"/><path d="M298.667 288H288v-2.667h10.667zm0 8H288v-2.667h10.667zm-15.208-12.901c-1.95 0-3.53 1.549-3.53 3.46v8.648c0 1.91 1.58 3.46 3.53 3.46H304v-5.406l-4.395-2.378 4.395-2.379v-5.405z" style="fill:#262626;fill-opacity:1;fill-rule:nonzero;stroke:none;stroke-width:1.33333325"/><path d="M0 0h-5.243c-1.462 0-2.648-1.162-2.648-2.595v-6.486c0-1.433 1.186-2.595 2.648-2.595H0Z" style="fill:#262626;fill-opacity:1;fill-rule:nonzero;stroke:none" transform="matrix(1.33333 0 0 -1.33333 277.545 282.667)"/><path d="M0 0c.698.828 1.745.255 1.745.255l-1.903-2.07S-.698-.828 0 0m6.064 1.82c-.197-.222-2.674-3.003-3.558-3.89-.92-.923-1.649-.541-1.649-.541l4.741 5.126C4.532 3.818 2.98 4.699 1.169 4.699c-3.209 0-5.811-2.611-5.811-5.833s2.602-5.833 5.811-5.833S6.98-4.355 6.98-1.134c0 1.103-.386 2.075-.916 2.954" style="fill:#262626;fill-opacity:1;fill-rule:nonzero;stroke:none" transform="matrix(1.33333 0 0 -1.33333 68.301 288.866)"/><path d="M0 0h9.009L6.027-3.652l.571-.404L10.025 0h4.885L9.898-5.638l5.012-5.639H6.027l2.856 3.325-.529.509s-3.278-3.868-3.384-3.834c-.106.035-4.822 0-4.822 0l4.864 5.638z" style="fill:#262626;fill-opacity:1;fill-rule:nonzero;stroke:none" transform="matrix(1.33333 0 0 -1.33333 92.12 282.86)"/><path d="M0 0c-.198-.222-2.674-3.003-3.558-3.89-.92-.924-1.65-.541-1.65-.541l.06.064a1.44 1.44 0 0 0-1.034.776l-.041-.044s-.539.987.159 1.815 1.744.254 1.744.254l-.037-.041c.42-.17.741-.534.854-.981L-.467.695c-1.066 1.302-2.618 2.184-4.428 2.184-3.21 0-5.812-2.612-5.812-5.833s2.602-5.833 5.812-5.833c3.209 0 5.811 2.611 5.811 5.833C.916-1.852.529-.879 0 0" style="fill:#262626;fill-opacity:1;fill-rule:nonzero;stroke:none" transform="matrix(1.33333 0 0 -1.33333 92.586 286.439)"/><path d="M0 0s13.986-16.075 14.211-16c.226.076 13.709 16 13.709 16h-6.34l-7.97-8.83s-.498-.623-1.09-.057.197 1.246.197 1.246L19.428 0Z" style="fill:#262626;fill-opacity:1;fill-rule:nonzero;stroke:none" transform="matrix(1.33333 0 0 -1.33333 32 277.333)"/></svg>