<svg xmlns="http://www.w3.org/2000/svg" xml:space="preserve" width="64" height="64"><path d="M37.998 29A3 3 0 0 0 35 32.004 2.993 2.993 0 0 0 37.998 35h5.996A3 3 0 0 0 47 32.004 3.01 3.01 0 0 0 43.994 29Z" style="opacity:.98999999;vector-effect:none;fill:#f2f2f2;fill-opacity:1;stroke:#000;stroke-width:2;stroke-linecap:butt;stroke-linejoin:miter;stroke-miterlimit:4;stroke-dasharray:none;stroke-dashoffset:0;stroke-opacity:1" transform="matrix(-1 0 0 1 64 0)"/><path d="M19.998 29A3 3 0 0 0 17 32.004 2.993 2.993 0 0 0 19.998 35h5.996A3 3 0 0 0 29 32.004 3.01 3.01 0 0 0 25.994 29Z" style="opacity:.98999999;vector-effect:none;fill:#d40000;fill-opacity:1;stroke:#000;stroke-width:2;stroke-linecap:butt;stroke-linejoin:miter;stroke-miterlimit:4;stroke-dasharray:none;stroke-dashoffset:0;stroke-opacity:1" transform="matrix(-1 0 0 1 64 0)"/></svg>