<svg xmlns="http://www.w3.org/2000/svg" xml:space="preserve" width="256" height="256" viewBox="0 0 341.333 341.333"><defs><clipPath id="a" clipPathUnits="userSpaceOnUse"><path d="M0 256h256V0H0Z"/></clipPath><clipPath id="b" clipPathUnits="userSpaceOnUse"><path d="M2.752 236h250.496V20H2.752Z"/></clipPath><clipPath id="c" clipPathUnits="userSpaceOnUse"><path d="M0 256h256V0H0Z"/></clipPath></defs><g clip-path="url(#a)" transform="matrix(1.33333 0 0 -1.33333 0 341.333)"><g clip-path="url(#b)" style="opacity:.5"><path d="M0 0h-125.217l-2.312-3.986-58-100-2.327-4.014 2.327-4.014 58-100 2.312-3.986H0l2.312 3.986 58 100L62.64-108l-2.328 4.014-58 100z" style="fill:#fff;fill-opacity:1;fill-rule:nonzero;stroke:none" transform="translate(190.608 236)"/></g></g><path d="M0 0h-116l-58-100 58-100H0l58 100z" style="fill:#000;fill-opacity:1;fill-rule:nonzero;stroke:none" transform="matrix(1.33333 0 0 -1.33333 248 37.333)"/><g clip-path="url(#c)" transform="matrix(1.33333 0 0 -1.33333 0 341.333)"><path d="M0 0c-2.021-3.973-4.777-7.436-7.995-10.362v-13.663c.063-4.467 3.695-8.038 8.112-7.974 4.419.062 7.949 3.735 7.886 8.203v13.408C4.78-7.458 2.022-3.985 0 0" style="fill:#4eb96f;fill-opacity:1;fill-rule:nonzero;stroke:none" transform="translate(127.996 80)"/><path d="M0 0a30 30 0 0 1-7.682 20.017c-6.307-4.494-14-7.167-22.318-7.167s-16.011 2.673-22.318 7.167A30 30 0 0 1-60 0c0-16.533 13.458-29.983 30-29.983S0-16.533 0 0" style="fill:#f39b11;fill-opacity:1;fill-rule:nonzero;stroke:none" transform="translate(158 123.689)"/><path d="M0 0q.001 2.035.208 4.017c-14.784-2.022-26.221-14.687-26.221-30s11.437-27.978 26.221-30A39 39 0 0 0 0-51.967c0 9.646 3.603 18.904 9.987 26.019C3.799-19.048 0-9.97 0 0" style="fill:#d35400;fill-opacity:1;fill-rule:nonzero;stroke:none" transform="translate(90.013 175.983)"/><path d="M0 0c0 15.313-11.437 27.978-26.219 30q.206-1.982.207-4.017c0-9.97-3.8-19.05-9.988-25.95 6.385-7.112 9.988-16.366 9.988-26.016q-.002-2.035-.207-4.017C-11.437-27.978 0-15.313 0 0" style="fill:#e77f22;fill-opacity:1;fill-rule:nonzero;stroke:none" transform="translate(192 150)"/><path d="M0 0a37.9 37.9 0 0 0-19.742 6.787c-4.794-5.254-7.498-12.096-7.498-19.222v-28.778H2.023c11.704 0 22.107 6.837 26.737 17.084C15.371-21.737 4.431-12.383 0 0" style="fill:#4eb96f;fill-opacity:1;fill-rule:nonzero;stroke:none" transform="translate(91.24 109.213)"/><path d="M0 0c16.542 0 30 13.458 30 30S16.542 60 0 60s-30-13.458-30-30S-16.542 0 0 0" style="fill:#f1c40f;fill-opacity:1;fill-rule:nonzero;stroke:none" transform="translate(128 145.26)"/><path d="M0 0c-4.431-12.385-15.373-21.742-28.765-24.13 4.619-10.257 15.004-17.081 26.744-17.081h29.256v28.777c0 7.121-2.702 13.969-7.493 19.223A37.87 37.87 0 0 0 0 0" style="fill:#4eb96f;fill-opacity:1;fill-rule:nonzero;stroke:none" transform="translate(164.765 109.21)"/></g></svg>