<svg xmlns="http://www.w3.org/2000/svg" xml:space="preserve" width="256" height="256" viewBox="0 0 341.333 341.333"><path d="M0 0c23.992 0 43.505-19.517 43.505-43.505C43.505-67.492 23.992-87.01 0-87.01c-23.988 0-43.5 19.518-43.5 43.505S-23.988 0 0 0m0-159.505c64.07 0 116 51.935 116 116 0 64.066-51.93 116-116 116-64.051 0-116-51.934-116-116 0-64.065 51.949-116 116-116" style="fill:#ccc;fill-opacity:1;fill-rule:nonzero;stroke:none" transform="matrix(1.33333 0 0 -1.33333 170.667 112.66)"/><path d="M170.663 152.299c10.128 0 18.383 8.234 18.383 18.368 0 10.138-8.255 18.38-18.383 18.38-10.133 0-18.369-8.242-18.369-18.38 0-10.134 8.236-18.368 18.37-18.368M170.661 232c33.82 0 61.338-27.535 61.338-61.333s-27.519-61.334-61.338-61.334c-33.784 0-61.329 27.535-61.329 61.334 0 33.798 27.545 61.333 61.33 61.333" style="fill:#e6e6e6;fill-opacity:.49019608;fill-rule:nonzero;stroke:none;stroke-width:1.33333325"/><path d="M0 0c-43.746 0-81.841-24.229-101.602-60h203.207C81.85-24.229 43.76 0 0 0" style="fill:#00b800;fill-opacity:1;fill-rule:nonzero;stroke:none" transform="matrix(1.33333 0 0 -1.33333 170.664 16)"/><path d="M118.667 50.667c-6.617 0-12 5.383-12 12s5.383 12 12 12 12-5.383 12-12-5.383-12-12-12" style="fill:#00bc00;fill-opacity:1;fill-rule:nonzero;stroke:none;stroke-width:.85714287" transform="translate(11.333)"/><path d="M125.919 55.376c-.375.1-.89.322-1.282.566-.675.418-1.3.911-2.2 1.734l-.69.63.638.797c2.023 2.533 4.227 6.258 4.887 8.261q.104.321.179.633a10.25 10.25 0 0 0-1.532-12.621m-14.515.008a10.25 10.25 0 0 0-1.511 12.63 9 9 0 0 1 .303-.998c.805-2.175 2.944-5.69 4.972-8.168l.438-.534-.8-.72c-1.37-1.234-2.254-1.843-3.08-2.121-.14-.047-.225-.066-.322-.09m7.305 5.833c-.217-.048-2.218 1.732-3.655 3.25-1.975 2.087-3.296 3.966-3.787 5.331a10.25 10.25 0 0 0 7.4 3.154c2.91 0 5.533-1.215 7.404-3.16-.367-.988-1.151-2.252-2.317-3.675-1.26-1.54-4.624-4.807-5.045-4.9" style="fill:#b3b3b3;fill-opacity:1;fill-rule:nonzero;stroke:none;stroke-width:.85714287" transform="translate(11.333)"/><text xml:space="preserve" x="132.923" y="70.547" style="font-style:normal;font-variant:normal;font-weight:400;font-stretch:normal;font-size:16.1786747px;line-height:1.25;font-family:sans-serif;-inkscape-font-specification:sans-serif;letter-spacing:0;word-spacing:0;fill:#e6e6e6;fill-opacity:1;stroke:none;stroke-width:1.51675069" transform="matrix(1.02104 0 0 .9794 11.333 0)"><tspan x="132.923" y="70.547" style="fill:#e6e6e6;stroke-width:1.51675069">BOX ONE</tspan></text><path d="M170.667 16C85.239 16 16 85.245 16 170.667s69.239 154.666 154.667 154.666c85.401 0 154.666-69.245 154.666-154.666C325.333 85.245 256.068 16 170.667 16" style="fill:none;fill-opacity:1;fill-rule:nonzero;stroke:#000;stroke-width:2.66666675;stroke-miterlimit:4;stroke-dasharray:none"/></svg>