<?xml version="1.0" encoding="UTF-8" standalone="no"?>
<svg
   xmlns:dc="http://purl.org/dc/elements/1.1/"
   xmlns:cc="http://creativecommons.org/ns#"
   xmlns:rdf="http://www.w3.org/1999/02/22-rdf-syntax-ns#"
   xmlns:svg="http://www.w3.org/2000/svg"
   xmlns="http://www.w3.org/2000/svg"
   xmlns:sodipodi="http://sodipodi.sourceforge.net/DTD/sodipodi-0.dtd"
   xmlns:inkscape="http://www.inkscape.org/namespaces/inkscape"
   viewBox="0 0 341.33334 341.33334"
   height="256"
   width="256"
   xml:space="preserve"
   id="svg2"
   version="1.1"
   sodipodi:docname="movie.svg"
   inkscape:version="0.92.2 (5c3e80d, 2017-08-06)"><sodipodi:namedview
     pagecolor="#ffffff"
     bordercolor="#666666"
     borderopacity="1"
     objecttolerance="10"
     gridtolerance="10"
     guidetolerance="10"
     inkscape:pageopacity="0"
     inkscape:pageshadow="2"
     inkscape:window-width="1024"
     inkscape:window-height="705"
     id="namedview34"
     showgrid="false"
     inkscape:pagecheckerboard="true"
     inkscape:zoom="0.69140623"
     inkscape:cx="170.66667"
     inkscape:cy="170.66667"
     inkscape:window-x="-8"
     inkscape:window-y="-8"
     inkscape:window-maximized="1"
     inkscape:current-layer="svg2" /><metadata
     id="metadata8"><rdf:RDF><cc:Work
         rdf:about=""><dc:format>image/svg+xml</dc:format><dc:type
           rdf:resource="http://purl.org/dc/dcmitype/StillImage" /><dc:title></dc:title></cc:Work></rdf:RDF></metadata><defs
     id="defs6"><clipPath
       id="clipPath18"
       clipPathUnits="userSpaceOnUse"><path
         id="path16"
         d="M 0,256 H 256 V 0 H 0 Z" /></clipPath><clipPath
       id="clipPath26"
       clipPathUnits="userSpaceOnUse"><path
         id="path24"
         d="M 76,192 H 180 V 64 H 76 Z" /></clipPath></defs><g
     id="g36"
     transform="matrix(1.3333333,0,0,-1.3333333,187.4284,96.000003)"><path
       inkscape:connector-curvature="0"
       d="m 0,0 h -50.286 c -3.472,0 -6.285,-2.785 -6.285,-6.222 v -99.555 c 0,-3.439 2.813,-6.223 6.285,-6.223 h 75.429 c 3.473,0 6.286,2.784 6.286,6.223 v 74.666 z"
       style="fill:#e6e6e6;fill-opacity:1;fill-rule:nonzero;stroke:none"
       id="path38" /></g><g
     id="g40"
     transform="matrix(1.3333333,0,0,-1.3333333,215.99999,145.76947)"><path
       inkscape:connector-curvature="0"
       d="m 0,0 c 0,-0.799 -0.669,-1.442 -1.5,-1.442 h -3 C -5.331,-1.442 -6,-0.799 -6,0 v 2.885 c 0,0.799 0.669,1.442 1.5,1.442 h 3 C -0.669,4.327 0,3.684 0,2.885 Z m 0,-7.692 c 0,-0.799 -0.669,-1.442 -1.5,-1.442 h -3 c -0.831,0 -1.5,0.643 -1.5,1.442 v 2.884 c 0,0.8 0.669,1.443 1.5,1.443 h 3 c 0.831,0 1.5,-0.643 1.5,-1.443 z m 0,-7.692 c 0,-0.8 -0.669,-1.443 -1.5,-1.443 h -3 c -0.831,0 -1.5,0.643 -1.5,1.443 v 2.884 c 0,0.799 0.669,1.442 1.5,1.442 h 3 c 0.831,0 1.5,-0.643 1.5,-1.442 z m 0,-7.693 c 0,-0.799 -0.669,-1.442 -1.5,-1.442 h -3 c -0.831,0 -1.5,0.643 -1.5,1.442 v 2.885 c 0,0.799 0.669,1.442 1.5,1.442 h 3 c 0.831,0 1.5,-0.643 1.5,-1.442 z m 0,-7.692 c 0,-0.799 -0.669,-1.442 -1.5,-1.442 h -3 c -0.831,0 -1.5,0.643 -1.5,1.442 v 2.884 c 0,0.8 0.669,1.443 1.5,1.443 h 3 c 0.831,0 1.5,-0.643 1.5,-1.443 z m 0,-7.692 c 0,-0.8 -0.669,-1.442 -1.5,-1.442 h -3 c -0.831,0 -1.5,0.642 -1.5,1.442 v 2.884 c 0,0.8 0.669,1.442 1.5,1.442 h 3 c 0.831,0 1.5,-0.642 1.5,-1.442 z m 0,-7.692 c 0,-0.799 -0.669,-1.443 -1.5,-1.443 h -3 c -0.831,0 -1.5,0.643 -1.5,1.443 v 2.884 c 0,0.799 0.669,1.442 1.5,1.442 h 3 c 0.831,0 1.5,-0.643 1.5,-1.442 z m 0,-7.693 c 0,-0.799 -0.669,-1.442 -1.5,-1.442 h -3 c -0.831,0 -1.5,0.642 -1.5,1.442 v 2.885 c 0,0.799 0.669,1.442 1.5,1.442 h 3 c 0.831,0 1.5,-0.643 1.5,-1.442 z m 0,-7.692 c 0,-0.799 -0.669,-1.442 -1.5,-1.442 h -3 c -0.831,0 -1.5,0.643 -1.5,1.442 v 2.885 c 0,0.799 0.669,1.442 1.5,1.442 h 3 c 0.831,0 1.5,-0.643 1.5,-1.442 z m -62,84.615 c 0,-0.799 -0.669,-1.442 -1.5,-1.442 h -3 c -0.831,0 -1.5,0.643 -1.5,1.442 v 2.885 c 0,0.799 0.669,1.442 1.5,1.442 h 3 c 0.831,0 1.5,-0.643 1.5,-1.442 z m 0,-7.692 c 0,-0.799 -0.669,-1.443 -1.5,-1.443 h -3 c -0.831,0 -1.5,0.644 -1.5,1.443 v 2.885 c 0,0.798 0.669,1.442 1.5,1.442 h 3 c 0.831,0 1.5,-0.644 1.5,-1.442 z m 0,-7.693 C -62,6.894 -62.669,6.25 -63.5,6.25 h -3 c -0.831,0 -1.5,0.644 -1.5,1.442 v 2.885 c 0,0.799 0.669,1.443 1.5,1.443 h 3 c 0.831,0 1.5,-0.644 1.5,-1.443 z M -62,0 c 0,-0.799 -0.669,-1.442 -1.5,-1.442 h -3 c -0.831,0 -1.5,0.643 -1.5,1.442 v 2.885 c 0,0.799 0.669,1.442 1.5,1.442 h 3 c 0.831,0 1.5,-0.643 1.5,-1.442 z m 0,-7.692 c 0,-0.799 -0.669,-1.442 -1.5,-1.442 h -3 c -0.831,0 -1.5,0.643 -1.5,1.442 v 2.884 c 0,0.8 0.669,1.443 1.5,1.443 h 3 c 0.831,0 1.5,-0.643 1.5,-1.443 z m 0,-7.692 c 0,-0.8 -0.669,-1.443 -1.5,-1.443 h -3 c -0.831,0 -1.5,0.643 -1.5,1.443 v 2.884 c 0,0.799 0.669,1.442 1.5,1.442 h 3 c 0.831,0 1.5,-0.643 1.5,-1.442 z m 0,-7.693 c 0,-0.799 -0.669,-1.442 -1.5,-1.442 h -3 c -0.831,0 -1.5,0.643 -1.5,1.442 v 2.885 c 0,0.799 0.669,1.442 1.5,1.442 h 3 c 0.831,0 1.5,-0.643 1.5,-1.442 z m 0,-7.692 c 0,-0.799 -0.669,-1.442 -1.5,-1.442 h -3 c -0.831,0 -1.5,0.643 -1.5,1.442 v 2.884 c 0,0.8 0.669,1.443 1.5,1.443 h 3 c 0.831,0 1.5,-0.643 1.5,-1.443 z m 0,-7.692 c 0,-0.8 -0.669,-1.442 -1.5,-1.442 h -3 c -0.831,0 -1.5,0.642 -1.5,1.442 v 2.884 c 0,0.8 0.669,1.442 1.5,1.442 h 3 c 0.831,0 1.5,-0.642 1.5,-1.442 z m 0,-7.692 c 0,-0.799 -0.669,-1.443 -1.5,-1.443 h -3 c -0.831,0 -1.5,0.643 -1.5,1.443 v 2.884 c 0,0.799 0.669,1.442 1.5,1.442 h 3 c 0.831,0 1.5,-0.643 1.5,-1.442 z m 0,-7.693 c 0,-0.799 -0.669,-1.442 -1.5,-1.442 h -3 c -0.831,0 -1.5,0.642 -1.5,1.442 v 2.885 c 0,0.799 0.669,1.442 1.5,1.442 h 3 c 0.831,0 1.5,-0.643 1.5,-1.442 z m 0,-7.692 c 0,-0.799 -0.669,-1.442 -1.5,-1.442 h -3 c -0.831,0 -1.5,0.643 -1.5,1.442 v 2.885 c 0,0.799 0.669,1.442 1.5,1.442 h 3 c 0.831,0 1.5,-0.643 1.5,-1.442 z m 36.757,90.865 H -70 v -96.154 h 2 v 0.481 c 0,0.799 0.669,1.443 1.5,1.443 h 3 c 0.831,0 1.5,-0.644 1.5,-1.443 v -0.481 h 56 v 0.481 c 0,0.799 0.669,1.443 1.5,1.443 h 3 c 0.831,0 1.5,-0.644 1.5,-1.443 v -0.481 H 2 V 2.404 Z"
       style="fill:#404040;fill-opacity:1;fill-rule:nonzero;stroke:none"
       id="path42" /></g><g
     id="g44"
     transform="matrix(1.3333333,0,0,-1.3333333,142.18293,170.66667)"><path
       inkscape:connector-curvature="0"
       d="m 0,0 h 42.726 c 2.561,0 4.637,-1.863 4.637,-4.161 V -23.839 C 47.363,-26.137 45.287,-28 42.726,-28 H 0 c -2.561,0 -4.637,1.863 -4.637,4.161 V -4.161 C -4.637,-1.863 -2.561,0 0,0"
       style="fill:#9bc2dd;fill-opacity:1;fill-rule:nonzero;stroke:none"
       id="path46" /></g><g
     id="g48"
     transform="matrix(1.3333333,0,0,-1.3333333,142.18293,128)"><path
       inkscape:connector-curvature="0"
       d="m 0,0 h 42.726 c 2.561,0 4.637,-1.863 4.637,-4.162 V -23.838 C 47.363,-26.137 45.287,-28 42.726,-28 H 0 c -2.561,0 -4.637,1.863 -4.637,4.162 V -4.162 C -4.637,-1.863 -2.561,0 0,0"
       style="fill:#9bc2dd;fill-opacity:1;fill-rule:nonzero;stroke:none"
       id="path50" /></g><g
     id="g52"
     transform="matrix(1.3333333,0,0,-1.3333333,179.3776,106.66667)"><path
       inkscape:connector-curvature="0"
       d="m 0,0 h -31.94 v -1.8 c 0,-2.445 2.045,-4.408 4.593,-4.408 H 0 Z"
       style="fill:#9bc2dd;fill-opacity:1;fill-rule:nonzero;stroke:none"
       id="path54" /></g><g
     id="g56"
     transform="matrix(1.3333333,0,0,-1.3333333,205.33333,234.66667)"><path
       inkscape:connector-curvature="0"
       d="M 0,0 V 11.541 C 0,14.004 -2.076,16 -4.637,16 H -47.363 C -49.924,16 -52,14.004 -52,11.541 V 0 Z"
       style="fill:#9bc2dd;fill-opacity:1;fill-rule:nonzero;stroke:none"
       id="path58" /></g><g
     id="g60"
     transform="matrix(1.3333333,0,0,-1.3333333,135.63933,106.66667)"><path
       inkscape:connector-curvature="0"
       d="M 0,0 V -7.542 C 0,-10.004 2.098,-12 4.686,-12 H 46.703 L 36.974,0 Z"
       style="fill:#9bc2dd;fill-opacity:1;fill-rule:nonzero;stroke:none"
       id="path62" /></g><g
     id="g64"
     transform="matrix(1.3333333,0,0,-1.3333333,206.95053,144)"><path
       inkscape:connector-curvature="0"
       d="m 0,0 h -12.813 c -3.536,0 -6.4,2.864 -6.4,6.4 V 19.2 32 l 32,-32 z"
       style="fill:#ffffff;fill-opacity:1;fill-rule:nonzero;stroke:none"
       id="path66" /></g></svg>
