<?xml version="1.0" encoding="UTF-8" standalone="no"?>
<svg
   xmlns:dc="http://purl.org/dc/elements/1.1/"
   xmlns:cc="http://creativecommons.org/ns#"
   xmlns:rdf="http://www.w3.org/1999/02/22-rdf-syntax-ns#"
   xmlns:svg="http://www.w3.org/2000/svg"
   xmlns="http://www.w3.org/2000/svg"
   xmlns:sodipodi="http://sodipodi.sourceforge.net/DTD/sodipodi-0.dtd"
   xmlns:inkscape="http://www.inkscape.org/namespaces/inkscape"
   viewBox="0 0 341.33334 341.33334"
   height="256"
   width="256"
   xml:space="preserve"
   id="svg2"
   version="1.1"
   sodipodi:docname="music.svg"
   inkscape:version="0.92.3 (2405546, 2018-03-11)"><sodipodi:namedview
     pagecolor="#ffffff"
     bordercolor="#666666"
     borderopacity="1"
     objecttolerance="10"
     gridtolerance="10"
     guidetolerance="10"
     inkscape:pageopacity="0"
     inkscape:pageshadow="2"
     inkscape:window-width="1920"
     inkscape:window-height="1001"
     id="namedview26"
     showgrid="false"
     inkscape:pagecheckerboard="true"
     inkscape:zoom="5.5312498"
     inkscape:cx="83.440939"
     inkscape:cy="74.277785"
     inkscape:window-x="-9"
     inkscape:window-y="-9"
     inkscape:window-maximized="1"
     inkscape:current-layer="svg2" /><metadata
     id="metadata8"><rdf:RDF><cc:Work
         rdf:about=""><dc:format>image/svg+xml</dc:format><dc:type
           rdf:resource="http://purl.org/dc/dcmitype/StillImage" /><dc:title /></cc:Work></rdf:RDF></metadata><defs
     id="defs6"><clipPath
       id="clipPath18"
       clipPathUnits="userSpaceOnUse"><path
         id="path16"
         d="M 0,256 H 256 V 0 H 0 Z" /></clipPath><clipPath
       id="clipPath26"
       clipPathUnits="userSpaceOnUse"><path
         id="path24"
         d="M 76,192 H 180 V 64 H 76 Z" /></clipPath></defs><g
     id="g22"
     transform="matrix(1.3333333,0,0,-1.3333333,0,341.33333)" /><path
     id="path38"
     style="fill:#e6e6e6;fill-opacity:1;fill-rule:nonzero;stroke:#1a1a1a;stroke-width:2.66666672;stroke-miterlimit:4;stroke-dasharray:none"
     d="m 187.42853,96.000003 h -67.048 c -4.63066,0 -8.38,3.712 -8.38,8.295997 v 132.74133 c 0,4.584 3.74934,8.296 8.38,8.296 h 100.572 c 4.63067,0 8.38133,-3.712 8.38133,-8.296 v -99.55599 z"
     inkscape:connector-curvature="0" /><path
     id="path46"
     style="fill:#ffffff;fill-opacity:1;fill-rule:nonzero;stroke:none;stroke-width:1.33333325"
     d="m 206.95039,141.33333 h -17.084 c -4.71467,0 -8.53333,-3.81867 -8.53333,-8.53333 V 115.73333 98.666664 l 42.66666,42.666666 z"
     inkscape:connector-curvature="0" /><path
     id="path50"
     style="fill:#333333;fill-opacity:1;fill-rule:nonzero;stroke:none;stroke-width:1.33333325"
     d="m 207.99399,144 c 0,5.308 0.0147,10.39733 -0.003,15.48667 -0.052,14.47466 -0.376,28.95466 -0.0893,43.42266 0.20667,10.452 -6.17733,15.45067 -14.224,17.16533 -3.01067,0.64134 -6.332,0.62134 -9.384,0.124 -6.23867,-1.01866 -9.58133,-7.684 -7.144,-13.51866 3.944,-9.44 15.16667,-13.85333 24.55067,-9.652 0.62666,0.28 1.24933,0.56667 2.31866,1.05333 v -40.89466 c -2.708,0.58533 -5.64266,1.20666 -8.57066,1.85466 -11.47467,2.53867 -22.94,5.11734 -34.428,7.59334 -1.664,0.35866 -2.17734,0.99333 -2.18534,2.724 -0.068,14.47333 -0.224,28.94666 -0.42,43.41999 -0.156,11.52667 -9.34,20.06 -20.51333,19.156 -7.04933,-0.57066 -11.39333,-6.83066 -9.42933,-13.59066 2.944,-10.13067 14.64533,-14.93867 23.992,-9.85867 0.592,0.32134 1.18133,0.64934 2.204,1.212 0,-3.01733 -0.032,-5.69866 0.005,-8.37866 0.2,-14.536 0.42933,-29.07067 0.604,-43.60534 0.0147,-1.18 0.284,-1.78 1.552,-2.068 16.756,-3.80933 33.5,-7.67333 50.248,-11.52133 0.23467,-0.0533 0.47867,-0.0653 0.916,-0.124"
     inkscape:connector-curvature="0" /></svg>