<svg xmlns="http://www.w3.org/2000/svg" xml:space="preserve" width="256" height="256" viewBox="0 0 341.333 341.333"><path d="M187.429 96H120.38c-4.631 0-8.38 3.712-8.38 8.296v132.741c0 4.584 3.749 8.296 8.38 8.296h100.572c4.63 0 8.38-3.712 8.38-8.296v-99.556z" style="fill:#e6e6e6;fill-opacity:1;fill-rule:nonzero;stroke:#1a1a1a;stroke-width:2.66666672;stroke-miterlimit:4;stroke-dasharray:none"/><path d="M206.95 141.333h-17.084a8.53 8.53 0 0 1-8.533-8.533V98.667L224 141.333z" style="fill:#fff;fill-opacity:1;fill-rule:nonzero;stroke:none;stroke-width:1.33333325"/><path d="M207.994 144c0 5.308.015 10.397-.003 15.487-.052 14.474-.376 28.954-.09 43.422.207 10.452-6.177 15.451-14.223 17.166-3.011.641-6.332.621-9.384.124-6.239-1.019-9.582-7.684-7.144-13.519 3.944-9.44 15.166-13.853 24.55-9.652.627.28 1.25.567 2.319 1.053v-40.894c-2.708.585-5.643 1.206-8.57 1.854-11.475 2.539-22.94 5.118-34.429 7.594-1.664.358-2.177.993-2.185 2.724a4910 4910 0 0 1-.42 43.42c-.156 11.526-9.34 20.06-20.513 19.156-7.05-.571-11.394-6.831-9.43-13.591 2.944-10.13 14.646-14.939 23.992-9.859.592.322 1.182.65 2.204 1.212 0-3.017-.032-5.698.005-8.378.2-14.536.43-29.071.604-43.606.015-1.18.284-1.78 1.552-2.068 16.756-3.809 33.5-7.673 50.248-11.521.235-.053.479-.065.916-.124" style="fill:#333;fill-opacity:1;fill-rule:nonzero;stroke:none;stroke-width:1.33333325"/></svg>