<svg xmlns="http://www.w3.org/2000/svg" xml:space="preserve" width="256" height="256" viewBox="0 0 341.333 341.333"><defs><clipPath id="a" clipPathUnits="userSpaceOnUse"><path d="M85.112 45.028h.093v-.061h-.093z"/></clipPath><clipPath id="b" clipPathUnits="userSpaceOnUse"><path d="M82.479 44.58h.104v-.07h-.104z"/></clipPath></defs><path d="M79.2 16h182.934c5.448 0 9.866 4.459 9.866 9.959v289.416c0 5.5-4.418 9.958-9.866 9.958H79.2c-5.45 0-9.867-4.458-9.867-9.958V25.959c0-5.5 4.417-9.959 9.867-9.959" style="fill:#e6e6e6;fill-opacity:1;fill-rule:nonzero;stroke:#1a1a1a;stroke-width:2.66666672;stroke-miterlimit:4;stroke-dasharray:none"/><path d="M80 144h181.333v149.333H80Z" style="fill:#3b96cc;fill-opacity:1;fill-rule:nonzero;stroke:none;stroke-width:1.33333325"/><path d="m143.479 310.366 27.441-9.98 27.44 9.98v9.978h-54.881z" style="fill:#d4d4d4;fill-opacity:1;fill-rule:nonzero;stroke:none;stroke-width:1.33333325"/><path d="M80 21.333h181.333v101.819c0 5.623-4.388 10.181-9.801 10.181H89.802c-5.414 0-9.802-4.558-9.802-10.181z" style="fill:#404040;fill-opacity:1;fill-rule:nonzero;stroke:none;stroke-width:1.33333325"/><path d="M192.916 281.1h-43.993v-64.236h43.993Z" style="fill:#000;fill-opacity:1;fill-rule:nonzero;stroke:none;stroke-width:1.33333325"/><path d="M186.017 245.676h2.279v-24.12h-2.279zm4.388-12.05c0 3.986-.021 7.973.014 11.96.009 1.046-1.07 2.265-2.188 2.194-.751-.048-1.508-.007-2.263-.01-1.145-.006-2.144-1-2.144-2.143q-.004-12.013-.001-24.026c.001-.996.768-1.894 1.803-1.972.952-.072 1.916-.052 2.87.003.724.043 1.283.468 1.652 1.08.152.252.246.582.247.875.016 4.013.01 8.027.01 12.04m-32.334 24.232h-2.108v-5.63h-2.476v.294c0 7.856.001 15.713-.007 23.57 0 .26.078.328.33.32.63-.017 1.261-.004 1.89-.005.096 0 .191-.009.299-.014v-12.092h-1.043v-1.91c.091-.008.17-.018.247-.018.87-.001 1.74.004 2.61-.005.203-.001.275.05.275.266 0 5.158.007 10.315.011 15.472 0 .07-.008.14-.013.224-.09.007-.167.018-.243.018-1.376 0-2.752-.003-4.128.003a2.25 2.25 0 0 1-1.71-.73 1.8 1.8 0 0 1-.526-1.296l.001-24.1c0-1.114.96-2.108 2.07-2.129a64 64 0 0 1 2.477 0c1.064.021 2.041.972 2.052 2.032.02 1.872.008 3.745.008 5.619 0 .033-.01.066-.016.112m25.737-7.695h2.082v.907q.002 4.5-.004 9.003a.97.97 0 0 0 .182.59c.344.494.674 1 1.033 1.532.228-.334.417-.666.659-.956.43-.517.553-1.089.546-1.762-.033-2.983-.014-5.966-.014-8.95v-.357h2.06v9.612c0 .55-.195 1.05-.442 1.519-.478.91-.99 1.802-1.502 2.694-.091.158-.096.258-.004.422.565 1.004 1.124 2.01 1.657 3.03.248.478.319 1.002.316 1.547-.012 2.992-.005 5.984-.005 8.976v.339h-1.93v-.374c0-3.142.004-6.286-.006-9.429a1.1 1.1 0 0 0-.162-.54c-.352-.563-.73-1.11-1.121-1.696-.33.487-.62.96-.953 1.4-.267.35-.356.716-.354 1.155.016 3.045.01 6.09.01 9.136v.35h-2.049v-.357c0-2.956.01-5.912-.008-8.87-.003-.593.09-1.154.37-1.666a119 119 0 0 1 1.726-3.024c.096-.164.09-.263-.005-.421a123 123 0 0 1-1.758-3.004c-.259-.462-.332-.976-.331-1.515.013-2.973.007-5.948.007-8.923zm-6.476-21.901c.713 0 1.396-.012 2.077.007.26.007.324-.076.323-.328-.011-2.032-.007-4.064-.007-6.096 0-.094-.01-.189-.015-.285h-2.379zm4.794 11.65c-.609 0-1.2.005-1.793-.01-.056 0-.141-.115-.16-.191q-.673-2.9-1.341-5.8c-.268-1.166-.538-2.33-.81-3.51h-.785v9.554h-1.944c-.005-.122-.013-.227-.013-.33l-.001-19.685c0-.347 0-.347.348-.347 1.288 0 2.576.003 3.862 0a2.37 2.37 0 0 1 1.84.811c.28.308.411.682.411 1.096q.005 3.276 0 6.552c0 .47-.116.915-.376 1.314-.297.454-.684.786-1.283.886zm-29.584-8.333c.713 0 1.396-.016 2.077.008.26.01.324-.102.323-.453-.01-2.808-.007-5.617-.007-8.427 0-.13-.01-.26-.015-.394h-2.379zm4.795 16.106c-.61 0-1.202.008-1.794-.012-.056-.001-.141-.162-.16-.266-.45-2.672-.894-5.346-1.341-8.02l-.81-4.852h-.785v13.208h-1.944c-.005-.168-.013-.312-.013-.456l-.001-27.213c0-.481 0-.481.348-.481 1.288 0 2.575.004 3.863-.001.736-.004 1.348.376 1.838 1.124.28.425.412.941.412 1.514q.005 4.53 0 9.06c0 .648-.115 1.263-.375 1.814-.298.63-.684 1.088-1.283 1.225.683 4.452 1.361 8.892 2.045 13.356m7.332 12.236h-2.375v6.71c.699 0 1.38-.014 2.06.009.283.009.336-.09.335-.348-.011-2.022-.005-4.044-.007-6.067 0-.095-.008-.19-.014-.304m-4.38-1.939h4.216c.79 0 1.444.307 1.9.946.17.238.298.566.3.854.026 2.264.019 4.528.012 6.792-.003.988-.616 1.76-1.641 2.084l2.044 9.658h-1.903c-.136-.583-.273-1.158-.406-1.735-.574-2.485-1.15-4.97-1.714-7.459-.058-.258-.146-.394-.432-.346-.128.021-.262.004-.418.004v9.565h-1.958zm10.6 2.074v6.577c.712 0 1.402-.01 2.093.005.244.005.293-.077.292-.304-.008-1.995-.004-3.99-.005-5.985 0-.094-.008-.188-.013-.294zm4.388 18.253h-1.954v-9.66h-2.532v9.661h-1.929c-.005-.112-.013-.206-.013-.302v-18.112a1.84 1.84 0 0 1 1.801-1.862q1.344-.03 2.69 0c1.222.025 1.935.77 1.935 1.993l.001 13.052v5.23m-4.505-23.475v-.007c1.677 0 3.354-.005 5.031.003a4.1 4.1 0 0 0 1.654-.346c3.966-1.692 4.86-7.26 1.404-10.04-1.035-.832-2.184-1.293-3.544-1.278-3.178.032-6.356 0-9.534.021a4 4 0 0 0-1.4.245c-2.18.852-3.574 2.418-3.868 4.762-.289 2.316.527 4.24 2.443 5.636.764.556 1.608.977 2.568.994 1.748.034 3.497.01 5.245.01m-.054 1.154c-1.572 0-3.143-.003-4.714.001-2.49.004-4.417-1.092-5.718-3.157-2.788-4.424-.214-9.687 4.454-10.788a5.2 5.2 0 0 1 1.16-.126c3.106-.01 6.212.01 9.318-.012 1.724-.01 3.214.566 4.51 1.667 1.394 1.183 2.284 2.673 2.502 4.496.252 2.108-.298 4.01-1.707 5.625-1.144 1.31-2.595 2.066-4.321 2.282-.167.021-.338.012-.506.012zm11.819 2.06v1.735h-3.023v6.886h2.48v1.95h-2.481v9.69h-1.988V259.85c0-1.026.764-1.808 1.787-1.818.993-.008 1.988-.003 2.98 0 .07 0 .14.01.245.02" style="fill:#fff;fill-opacity:1;fill-rule:nonzero;stroke:none;stroke-width:1.33333325"/><path d="M186.017 221.556h2.279v24.12h-2.279zm-21.348 38.367c.005.113.013.21.013.304 0 2.023-.004 4.045.007 6.067 0 .258-.052.357-.335.348-.68-.023-1.361-.008-2.06-.008v-6.71zm6.219.135h2.366c.005.105.014.2.014.293 0 1.996-.003 3.99.005 5.985 0 .227-.048.31-.292.304-.691-.016-1.382-.005-2.094-.005zm-4.878-11.6c0-1.09-.005-2.183.004-3.273.003-.232-.07-.318-.305-.306-.327.016-.656.004-.984.004-.893 0-.897 0-.807.899.007.068.112.17.184.18.174.027.355.024.53.005.24-.024.297.073.297.303a562 562 0 0 0 0 5.509c0 .244-.09.297-.31.299-.738.005-.73.012-.727.754 0 .227.084.284.297.282.843-.01 1.685-.004 2.528-.004.344 0 .344-.001.345-.355 0-.715 0-.725-.724-.713-.262.004-.334-.088-.332-.338.01-1.082.004-2.164.004-3.246m7.04-3.56c-.994 0-1.99.028-2.982-.011-.487-.02-.847.103-1.154.481-.138.17-.214.32-.214.542.008 1.908.022 3.817-.008 5.726-.008.504.109.882.502 1.2.175.142.33.23.562.228 2.042-.008 4.085-.024 6.126.01.535.007.936-.117 1.267-.535.123-.156.199-.292.197-.495-.01-.879-.004-1.757-.004-2.637 0-.436-.454-.892-.89-.892-2.148 0-4.296-.003-6.446.005-.254 0-.341-.08-.334-.336.014-.63.004-1.26.005-1.891 0-.37 0-.372.368-.372h5.54c.784 0 .79 0 .786.77 0 .213.05.297.282.295.689-.007.666.001.696-.681.02-.493-.007-.943-.474-1.228-.133-.083-.293-.17-.442-.172-1.127-.013-2.255-.007-3.383-.008m-2.281 9.937c-1.748 0-3.498.024-5.246-.009-.96-.017-1.804-.437-2.566-.995-1.916-1.396-2.732-3.32-2.443-5.634.292-2.346 1.687-3.91 3.865-4.762a4 4 0 0 1 1.403-.246c3.177-.021 6.355.01 9.532-.021 1.361-.015 2.51.448 3.545 1.28 3.455 2.778 2.563 8.346-1.404 10.04a4.1 4.1 0 0 1-1.653.344c-1.677-.007-3.356-.003-5.033-.003z" style="fill:#000;fill-opacity:1;fill-rule:nonzero;stroke:none;stroke-width:1.33333325"/><path d="M173.024 249.539c-1.003 0-2.005.005-3.008-.004-.213-.003-.281.072-.279.273q.01.972 0 1.943c-.003.201.067.284.28.284q3.005-.008 6.014 0c.21 0 .281-.082.28-.283a77 77 0 0 1 0-1.916c.004-.228-.07-.305-.306-.303-.993.012-1.988.005-2.98.005m.026-4.64c1.126 0 2.254-.007 3.382.008.148.001.308.09.443.171.467.285.495.735.473 1.228-.029.684-.008.675-.697.681-.23.003-.281-.08-.281-.294.004-.77-.001-.77-.786-.77h-5.54c-.368 0-.369.001-.369.37 0 .631.01 1.262-.005 1.893-.005.256.08.336.336.334 2.148-.008 4.297-.005 6.445-.004.436 0 .89.455.89.892 0 .88-.005 1.758.004 2.636.003.203-.073.34-.196.495-.332.42-.734.543-1.267.535-2.043-.032-4.085-.016-6.127-.008-.233 0-.386-.087-.562-.23-.392-.318-.51-.696-.502-1.2.031-1.908.016-3.817.008-5.726 0-.222.076-.37.214-.54.306-.38.666-.502 1.154-.483.992.039 1.988.012 2.983.012m-7.041 3.56c0 1.083.005 2.164-.004 3.247-.003.249.07.34.332.337.724-.012.724-.001.724.713 0 .354 0 .355-.345.355-.843 0-1.686-.005-2.528.004-.214.003-.298-.055-.298-.281-.003-.743-.01-.75.728-.755.22-.001.311-.055.31-.299a562 562 0 0 1 0-5.51c0-.228-.056-.326-.296-.302a2 2 0 0 1-.53-.005c-.073-.01-.178-.112-.185-.18-.09-.898-.087-.898.807-.898.328 0 .657.012.984-.004.234-.012.308.073.305.305-.009 1.09-.004 2.183-.004 3.273" style="fill:#fff;fill-opacity:1;fill-rule:nonzero;stroke:none;stroke-width:1.33333325"/><path d="M173.024 249.539c.993 0 1.988.007 2.981-.005.236-.003.31.074.306.302a77 77 0 0 0 0 1.916c0 .202-.07.283-.28.283q-3.008-.007-6.015 0c-.212 0-.281-.083-.279-.284q.01-.97 0-1.943c-.003-.201.066-.276.28-.273 1.002.009 2.004.004 3.007.004" style="fill:#000;fill-opacity:1;fill-rule:nonzero;stroke:none;stroke-width:1.33333325"/><path d="M163.358 237.945h-2.391v-7.265c0-.341.001-.341.351-.341h4.096l.001-2.068h-3.653v-.02h-.768v-6.702h4.424v-1.614c0-.259-.051-.35-.333-.348-1.376.016-2.752.007-4.126.008-1.148 0-1.983.83-1.986 1.977-.004 2.023-.003 14.005 0 16.375.003 1.212.778 1.982 1.983 1.98 1.393-.001 2.787-.008 4.18-.012h.26c.007-.123.017-.227.017-.33v-1.64zm9.672-18.351h-6.083v1.956h2.172v18.647h2.136V221.55h1.768v-.536h.007z" style="fill:#fff;fill-opacity:1;fill-rule:nonzero;stroke:none;stroke-width:1.33333325"/><path d="M230.47 282.805h.723l-1.001 4.46h2.71l-.136.604h-3.433zm4.058 0h.667l-.16.702h-.667zm-.313 1.389h.666l-.822 3.675h-.667zm6.167.131h-.707q-.012-.491-.305-.779-.294-.286-.943-.286-.79-.001-1.392.526-.603.526-.847 1.612-.2.892.115 1.444.315.555 1.184.555.803 0 1.35-.583.29-.307.511-.806h.706q-.273.8-.924 1.34-.786.651-1.868.652-.932 0-1.446-.534-.673-.707-.34-2.182.25-1.12 1.036-1.838.851-.78 2.042-.78 1.015 0 1.464.507.447.509.364 1.152m3.345 1.469-.31-2.238-1.364 2.238zm-.517-2.99h.82l.804 5.066h-.793l-.204-1.518h-2.115l-.917 1.518h-.743zm5.384 2.321q.51 0 .85-.194.34-.192.453-.694.12-.54-.251-.736-.2-.104-.572-.103h-1.77l-.385 1.727zm-1.879-2.32h2.476q.612 0 .968.17.68.323.488 1.195-.101.454-.365.744a1.95 1.95 0 0 1-.661.465q.288.122.4.318t.033.638l-.128.68q-.054.288-.043.43.011.241.163.31l-.025.114h-.888a.6.6 0 0 1-.022-.17q0-.101.055-.398l.145-.846q.084-.496-.24-.665-.189-.094-.633-.093h-1.65l-.483 2.172h-.724zm6.345 4.478q.37 0 .62-.072.45-.135.807-.517.285-.306.484-.786.12-.284.175-.53.212-.94-.067-1.46-.277-.52-1.156-.52h-1.285l-.87 3.885zm-1.015-4.479h2.166q1.103 0 1.543.742.394.669.157 1.713a3.9 3.9 0 0 1-.648 1.459q-.819 1.152-2.196 1.152h-2.158z" style="fill:#e6e6e6;fill-opacity:1;fill-rule:nonzero;stroke:none;stroke-width:1.33333325"/><path d="M88 42.667h-2.667v-16H88zm5.333-5.334h-2.666V26.667h2.666zm5.334 0H96V26.667h2.667zm5.333 0h-2.667V26.667H104Zm5.333 0h-2.666V26.667h2.666zm5.334 0H112V26.667h2.667zm5.333 0h-2.667V26.667H120Zm5.333 0h-2.666V26.667h2.666zm5.334 0H128V26.667h2.667zm5.333 0h-2.667V26.667H136Zm5.333 0h-2.666V26.667h2.666zm5.334 0H144V26.667h2.667zm5.333 0h-2.667V26.667H152Zm5.333 0h-2.666V26.667h2.666zm5.334 0H160v-16h2.667zm5.333 0h-2.667V26.667H168Zm5.333 0h-2.666V26.667h2.666zm5.334 0H176V26.667h2.667zm5.333 0h-2.667V26.667H184Zm5.333 0h-2.666V26.667h2.666zm5.334 0H192V26.667h2.667zm5.333 0h-2.667V26.667H200Zm5.333 0h-2.666V26.667h2.666zm5.334 0H208V26.667h2.667zm5.333 0h-2.667V26.667H216zm5.333 0h-2.666V26.667h2.666zm5.334 0H224V26.667h2.667zm5.333 0h-2.667V26.667H232zm5.333 0h-2.666V26.667h2.666zm5.334 0H240V26.667h2.667zm5.333 0h-2.667V26.667H248zm5.333 0h-2.666v-16h2.666z" style="fill:#bc8a31;fill-opacity:1;fill-rule:nonzero;stroke:none;stroke-width:1.33333325"/><path d="M97.177 282.761c-.199.126-.44.139-.662.098.151.397.214.822.31 1.237.11.407.245.9.65 1.07.266.131.571.003.77-.203.312-.323.504-.751.69-1.164l.188-.44a1.5 1.5 0 0 1-.809-.247c-.24-.159-.295-.54-.59-.616-.211-.003-.371.168-.547.265m15.405-2.88c-.779.184-1.57.458-2.377.322a3.7 3.7 0 0 1-.203 1.692c-.101.062.083.145.108.048l.063.037c.067.201.274.276.454.296.464.048.928-.061 1.368-.208-.106-.107-.246-.207-.268-.373.015-.072.047-.136.076-.202.32.014.636.068.952.108.434-.345.706-.936.664-1.517-.005-.156-.104-.315-.256-.335-.198-.032-.4.05-.58.132m2.46-.93-.012.02c-.408.133-.797.32-1.2.464.092.633-.028 1.3-.314 1.86-.126.085.134.132.083 0l.113-.003c.008.116.136.145.223.139.345-.031.672-.183.973-.36-.097-.088-.215-.163-.277-.284-.043-.087.012-.176.032-.26q.371.014.737.078c.253-.32.443-.745.367-1.173-.042-.208-.108-.441-.288-.559-.147-.085-.3.024-.438.078m2.263-1.055c-.399.193-.795.39-1.193.581.154.69.02 1.423-.31 2.03.084-.055.201-.075.267-.156.136.094.303.082.452.04.295-.086.575-.226.828-.407-.147-.113-.332-.304-.17-.499.183.023.369.04.554.07.23-.334.456-.75.364-1.18-.107-.271-.315-.508-.585-.591zm-12.585-.93c-.351.057-.704.154-1.016.34-.363.28-.64.738-.62 1.23.017.476.265.9.549 1.25.527.615 1.22 1.102 1.996 1.246.586.097 1.214.081 1.753-.21.5-.258.963-.697 1.099-1.293.127-.526.087-1.17-.307-1.558a3.44 3.44 0 0 0-1.71-.904c-.572-.132-1.163-.188-1.744-.1m14.636-.254a25 25 0 0 1-1.032.624c.162.67.046 1.386-.208 2.01q.157-.113.297-.247c.165.187.405.028.572-.075.768-.508.963-1.65.687-2.517q-.156.105-.316.205m-28.24-.823c-.407.254-.766.655-.86 1.164a1.97 1.97 0 0 0 .53 1.68c.264.276.616.44.976.51l.003.01c.217.017.444.091.66.029.753-.023 1.493-.326 2.095-.807.449-.368.842-.908.845-1.54.017-.313-.156-.587-.341-.81-.402-.447-.982-.649-1.544-.72-.807-.09-1.655.046-2.363.485m29.793-.358c-.166.146-.33.295-.506.427.232.433.14.955.073 1.423l.198-.254c.005.046.018.135.024.18.118-.044.234-.116.282-.246.141-.334.212-.702.204-1.067.005-.227-.072-.445-.05-.672q-.115.101-.225.21m-23.127-1.726q.024.293.023.584a.8.8 0 0 1-.205.399 2.5 2.5 0 0 0-.1-.368q-.097-.276-.19-.554c-1.3.183-2.576.579-3.76 1.179l-.078-.11-.27.165c.351.008.7.064 1.042.157.285.09.564.21.816.38l.01-.004c.14.115.276.237.4.376.32.407.372.996.183 1.481-.347.911-1.061 1.652-1.923 1.994a3.24 3.24 0 0 1-2.26.041 2.8 2.8 0 0 1-.778-.461c.036.428.146.846.325 1.23-.161.083-.376.282-.233.486.192.216.486.273.75.328.7.926 1.64 1.609 2.626 2.145.81.439 1.661.787 2.541 1.025a7 7 0 0 1-.179-.766c-.042-.231-.065-.467-.124-.694a1.08 1.08 0 0 1-.39-.649.96.96 0 0 1 .102-.519c-.02.198-.038.396.008.591.112.267.35.467.623.499.159.02.304-.066.443-.138.17-.104.344-.222.544-.237.222.013.32.259.432.428h.005c.221.268.555.464.896.412.179-.024.325-.143.452-.27q.166-.224.268-.489c.008 0 .027-.004.035-.005-.008.386-.262.714-.578.872-.029.167-.08.327-.126.487a6 6 0 0 1-.415.767c-.073.056.027.068.06.073.533.052 1.07.076 1.605.093 1.343.044 2.698.023 4.022-.253a11.5 11.5 0 0 0 2.688-.908c.67-.34 1.32-.777 1.794-1.399.426-.578.616-1.37.428-2.088a6.8 6.8 0 0 0-.67-1.55c.084.34.162.693.113 1.046-.017.223-.104.426-.176.63v.044h-.024c-.23.398-.572.713-.968.912-1.337.664-3.053.294-4.044-.876-.428-.515-.823-1.146-.815-1.862.011-.577.394-1.061.847-1.33.761-.456 1.665-.567 2.523-.484.376.053.752.134 1.097.31q.178.093.365.159c-.338-.41-.734-.761-1.136-1.1a3 3 0 0 0-.346-.24 13.5 13.5 0 0 0-5.483-1.912l-.176.513q-.085.25-.16.506c-.135-.14-.179-.335-.197-.526q.01-.272.036-.542a13 13 0 0 0-2.298.022m-2.348-.965c-.093.213.24.135.354.124.385-.013.766-.08 1.15-.121a4 4 0 0 0-.084-.174q-.03-.097-.064-.196c-.01-.026-.036-.082-.048-.109-.44.14-.893.261-1.308.476m.526-.45c.23-.085.458-.175.69-.26l-.074-.182c-.208.141-.42.28-.616.441m5.337-.537-.041.147-.01-.001-.062.156-.068.189q-.028.067-.053.136l-.095.26c1.65.153 3.297.555 4.79 1.34 1.865.956 3.438 2.51 4.546 4.373.067.1.188.303.31.167.154-.353.098-.763.066-1.139-.085-.805-.583-1.465-1.095-2.022-.793-.83-1.733-1.478-2.72-2.01a13.9 13.9 0 0 0-5.568-1.596m-3.954.335.025.117.012-.004.08.244.072.238a20 20 0 0 1 2.783-.08l.093-.33q.05-.165.103-.332l.007.001.069-.228c-1.09 0-2.18.116-3.244.374m-.24-.606.065.163.076.197a13 13 0 0 1 3.491-.544l.152-.398.217-.54c.119-.284.25-.563.367-.848.121-.215.208-.452.325-.67a30.6 30.6 0 0 0-4.693 2.64m13.687-3.056c-1.259.282-2.495.712-3.636 1.354-.552.324-1.106.686-1.514 1.21-.166.218-.308.498-.248.787.066.27.295.447.527.545a12.7 12.7 0 0 1 3.076 1.842c.705.58 1.365 1.242 1.863 2.037.274.453.53.965.513 1.521.001.226-.115.418-.2.614.4-.076.78-.24 1.161-.387a68 68 0 0 0 4.238-1.896c.977-.483 1.954-.968 2.881-1.555.224-.137.445-.306.573-.554.212-.378.211-.843.131-1.263-.181-.832-.655-1.553-1.185-2.173a9.1 9.1 0 0 0-2.256-1.85c-.518-.222-1.07-.341-1.618-.432-1.432-.22-2.893-.106-4.306.2m-7.668-.132c-.119.05-.25.076-.355.155-.099.165-.176.345-.26.52-.23.461-.435.935-.643 1.408q-.1.233-.194.468h-.01q-.088.233-.182.465c.4.023.801.064 1.199-.003a3.5 3.5 0 0 0 .878-.277c2.088-.95 4.18-1.903 6.351-2.617 1.35-.446 2.736-.795 4.148-.911-.13-.04-.26-.09-.395-.11a12 12 0 0 0-1.896-.362c-2.922-.328-5.884.217-8.641 1.264m-16.956-3.236a1.25 1.25 0 0 0-.57.735c-.07.208-.084.437-.044.656.022.1.05.2.096.29.213.566.845.875 1.39.74.494-.1.907-.557.97-1.093a1.35 1.35 0 0 0-.379-1.139 1.21 1.21 0 0 0-1.463-.189m25.174-1.293c-.255.69-.11 1.568.438 2.049a1.17 1.17 0 0 0 1.082.273c.458-.121.828-.524.978-.997q.063-.17.086-.348a1.8 1.8 0 0 0-.043-.828c-.125-.63-.672-1.167-1.29-1.15-.565-.005-1.058.451-1.251 1m-5.29.027c-1.257 1.158-2.216 2.638-3.034 4.17 2.858-1.047 5.901-1.582 8.924-1.371a2.4 2.4 0 0 1-1.263-1.384c-.159-.455-.143-.984.077-1.412.244-.484.675-.828 1.131-1.06.033-.01.132-.075.044-.095-.77-.333-1.604-.516-2.436-.462-1.284.072-2.48.73-3.443 1.614m4.199-2.56h.88c.856.068 1.776.255 2.424.906.492.48.684 1.224.643 1.918-.043.724-.168 1.486-.584 2.079-.184.27-.462.441-.752.548 1.838.219 3.66.73 5.314 1.63.894.487 1.739 1.097 2.442 1.866.59.659 1.09 1.45 1.264 2.355a3.2 3.2 0 0 1-.078 1.554c.307.803.24 1.715-.008 2.526-.22.726-.64 1.401-1.245 1.821-.172.124-.384.113-.58.09-.284.455-.63.869-1.025 1.217.818.268 1.61.664 2.29 1.228.527.438.984 1 1.228 1.673.115.31.17.639.203.968v.393c-.025.192-.059.398-.177.552-.136.179-.416.22-.578.06-.077-.082-.05-.21-.054-.316.041-.404-.13-.778-.238-1.153-.23-.737-.642-1.423-1.245-1.868-.581-.48-1.316-.632-1.985-.915-.26-.13-.559-.096-.822-.214a4.4 4.4 0 0 1-.75.722c.902.338 1.78.802 2.496 1.49.621.588 1.102 1.384 1.214 2.276.046.412.092.869-.105 1.246-.132.258-.541.336-.7.074-.073-.235.025-.491-.044-.728-.18-.66-.376-1.331-.745-1.9-.342-.536-.83-.95-1.364-1.246-.403-.198-.83-.333-1.247-.493-.237-.084-.472-.219-.73-.185-.163.016-.314-.052-.458-.122a5 5 0 0 1-.832.628c.179.104.377.159.563.244.834.374 1.637.859 2.302 1.522.619.608 1.112 1.396 1.279 2.289.088.492.148 1.016-.005 1.5a.62.62 0 0 1-.43.432h-.18c-.113-.039-.249-.088-.28-.227-.054-.257.045-.528-.031-.782-.223-.82-.47-1.656-.963-2.34a4.4 4.4 0 0 0-1.53-1.302c-.817-.361-1.675-.608-2.486-.984-.705.47-1.561.527-2.37.519a1.6 1.6 0 0 1-.625-.12c-.566.72-1.318 1.25-2.109 1.65-.745.363-1.527.637-2.321.845-1.252.318-2.542.413-3.824.418-1.311-.03-2.628-.06-3.922-.31-1.556-.282-3.045-.912-4.405-1.764-.108.38-.188.772-.264 1.162-.053.263.017.534-.028.798-.035.216-.305.292-.452.153-.199-.184-.227-.488-.255-.75-.037-.647.052-1.3.23-1.918a7.5 7.5 0 0 1-1.064-1.03 4 4 0 0 0-.794 1.222c-.264.63-.406 1.307-.541 1.979-.056.276.016.56-.035.836-.046.228-.353.268-.485.102-.18-.218-.205-.53-.224-.808-.021-.846.128-1.706.488-2.465a5.4 5.4 0 0 1 1.087-1.525 4.4 4.4 0 0 1-.794-2.763c.012-.319.078-.632.136-.943.172-.43.275-.888.486-1.298.189-.252.325-.574.597-.738.31-.105.496-.42.753-.618.311-.235.615-.48.946-.682.204-.13.424-.232.609-.392a36 36 0 0 1 3.048-2.368c-.443-1.01-.933-2.001-1.516-2.928-.627-.997-1.357-1.938-2.255-2.672-.812-.672-1.778-1.15-2.802-1.277-.823-.11-1.663.008-2.451.27.413.202.835.466 1.073.897.212.374.182.868-.033 1.233-.307.536-.86.89-1.437.972a1.28 1.28 0 0 1-1.172-.43c-.32-.378-.432-.897-.483-1.391v-.576c.067-.464.288-.908.65-1.18.633-.484 1.438-.582 2.193-.608a8.8 8.8 0 0 1 2.757.418c1.247.436 2.283 1.358 3.17 2.364 1.163 1.342 2.093 2.899 2.835 4.544 1.623-1.078 3.328-2.016 5.111-2.75 1.019-1.922 2.215-3.776 3.781-5.236.648-.594 1.37-1.12 2.176-1.43.723-.268 1.484-.382 2.244-.444" style="fill:#000;fill-opacity:1;fill-rule:nonzero;stroke:none;stroke-width:1.33333325"/><path d="m121.135 275.323-.226.21c-.165.146-.329.294-.505.428.23.433.14.953.073 1.421l.199-.253.023.181c.117-.044.234-.117.282-.247.142-.333.211-.702.204-1.068.005-.226-.072-.445-.05-.672m-1.78 1.39a25 25 0 0 1-1.03.624c.16.67.045 1.386-.21 2.01a3 3 0 0 0 .298-.247c.165.187.405.028.572-.075.768-.508.964-1.65.686-2.517q-.156.106-.316.205m-1.623 2.842c.23-.334.456-.75.364-1.179-.106-.272-.314-.51-.584-.592l-.208.112c-.398.193-.794.39-1.193.581.156.691.023 1.423-.308 2.031.083-.056.201-.076.267-.157.134.094.3.082.452.04.293-.086.573-.226.826-.407-.145-.113-.332-.304-.17-.499.185.023.37.04.554.07m-2.252-.681c-.147-.086-.3.024-.438.077l-.01.02c-.409.133-.798.319-1.202.464a3.15 3.15 0 0 1-.313 1.861h.082c.03 0 .086-.003.115-.004.007.115.135.144.221.138.347-.03.672-.182.974-.36-.098-.087-.215-.162-.278-.284-.042-.086.012-.176.032-.26q.372.014.739.08c.252-.32.441-.746.365-1.174-.041-.208-.108-.441-.288-.558m-2.315.875c-.2-.03-.401.05-.581.132-.779.184-1.571.458-2.378.321a3.7 3.7 0 0 1-.204 1.692l.11.048.062.037c.066.202.274.276.455.296.463.05.927-.06 1.368-.208-.107-.105-.248-.206-.27-.373.015-.072.049-.136.078-.201.319.013.635.07.952.11.432-.348.704-.938.664-1.52-.005-.156-.104-.313-.256-.334" style="fill:#74b743;fill-opacity:1;fill-rule:nonzero;stroke:none;stroke-width:1.33333325"/><path d="M91.668 275.921c.678-.34 1.488-.28 2.162.042.428.202.836.532 1.002 1.017-.284-.208-.552-.444-.863-.61-.6-.346-1.324-.493-1.984-.258.317.017.637.192.747.528q.047.205.053.416a.89.89 0 0 1-.553.66c-.216.021-.451.012-.63-.135-.184-.128-.277-.356-.32-.58-.001-.23.083-.444.19-.637-.364.248-.652.599-.902.973.174-.6.559-1.146 1.098-1.416m13.383 1.247c.811-.165 1.659.101 2.331.592.408.304.79.727.873 1.273-.496-.606-1.08-1.165-1.8-1.437a2.7 2.7 0 0 0-1.061-.17c.239.203.383.553.253.869q-.036.086-.078.169c-.162.216-.426.281-.672.252-.142-.03-.258-.133-.358-.237-.182-.235-.158-.563-.058-.83-.326.155-.611.38-.884.619.308-.567.852-.981 1.454-1.1" style="fill:#fff;fill-opacity:1;fill-rule:nonzero;stroke:none;stroke-width:1.33333325"/><path d="M111.78 265.916c.294.266.707.378 1.082.274.457-.122.826-.526.977-.998q.063-.168.087-.349a1.8 1.8 0 0 0-.044-.827c-.126-.63-.67-1.166-1.288-1.15-.567-.004-1.06.452-1.252 1.001-.256.69-.11 1.567.437 2.05m-24.149-.567a1.21 1.21 0 0 0-1.462-.19c-.27.154-.48.42-.57.734a1.3 1.3 0 0 0 .051.948c.214.564.844.873 1.39.739.494-.099.906-.556.969-1.094a1.34 1.34 0 0 0-.377-1.137m14.03 5.597q-.088.233-.182.465c.398.023.801.064 1.198-.003.304-.045.596-.153.879-.277 2.087-.951 4.18-1.903 6.35-2.618 1.35-.445 2.737-.794 4.149-.91-.131-.04-.26-.091-.395-.11a12 12 0 0 0-1.896-.362c-2.924-.328-5.885.217-8.641 1.264-.119.049-.25.076-.355.154-.099.166-.176.346-.26.52-.23.462-.436.935-.643 1.408q-.1.233-.196.468z" style="fill:#eac500;fill-opacity:1;fill-rule:nonzero;stroke:none;stroke-width:1.33333325"/><path d="M120.155 272.783c-.181-.832-.653-1.554-1.185-2.174a9.1 9.1 0 0 0-2.256-1.849c-.518-.223-1.068-.341-1.618-.432-1.432-.221-2.893-.107-4.306.2-1.259.281-2.495.712-3.635 1.353-.553.324-1.107.687-1.515 1.211-.166.217-.308.497-.248.787.066.27.296.446.527.545a12.7 12.7 0 0 1 3.077 1.841c.704.58 1.366 1.243 1.862 2.038.274.453.53.965.513 1.52.001.225-.115.418-.2.614.401-.076.78-.24 1.163-.386a68 68 0 0 0 4.237-1.896c.976-.483 1.953-.968 2.88-1.555.225-.137.445-.307.573-.555.212-.377.211-.842.131-1.262m-22.911-.839a13 13 0 0 1 3.491-.543q.078-.2.153-.4l.216-.54c.12-.284.251-.563.367-.848.121-.215.21-.45.325-.67a30.6 30.6 0 0 0-4.693 2.64l.065.163zm.136.359.08.243.073.239a20 20 0 0 1 2.782-.08l.094-.33.102-.332h.007l.07-.228c-1.091 0-2.18.118-3.244.375l.025.116z" style="fill:#eac500;fill-opacity:1;fill-rule:nonzero;stroke:none;stroke-width:1.33333325"/><path d="M109.586 275.46c-.792-.83-1.734-1.477-2.72-2.01a13.9 13.9 0 0 0-5.568-1.595l-.042.147h-.009l-.062.154-.068.19-.054.136-.093.26c1.65.152 3.296.555 4.79 1.34 1.865.955 3.437 2.51 4.546 4.372.065.1.188.303.308.167.155-.352.1-.763.068-1.137-.085-.807-.584-1.466-1.096-2.024m-13.01-3.51c-.208.143-.419.281-.616.443.23-.085.46-.176.69-.26zm-5.524 3.667c.312-.105.497-.42.753-.617-.268.181-.508.403-.753.617m-.596.737c-.26.38-.443.828-.486 1.299.172-.43.275-.887.486-1.299" style="fill:#eac500;fill-opacity:1;fill-rule:nonzero;stroke:none;stroke-width:1.33333325"/><path d="M106.28 283.016c-.679-.029-1.348-.201-1.986-.452-.345-.142-.693-.301-.982-.553-.098-.093-.22-.219-.184-.373.088-.156.273-.182.426-.2.526-.04 1.05.066 1.556.204.534.154 1.067.349 1.535.67.156.099.272.25.37.408-.118.316-.475.279-.735.296m2.345-4.478c.084.34.163.693.113 1.046-.017.223-.104.426-.177.63l.001.042-.024.001c-.23.399-.572.714-.968.912-1.337.663-3.053.294-4.045-.877-.427-.515-.823-1.145-.814-1.86.011-.577.394-1.061.847-1.33.761-.457 1.665-.567 2.523-.486.374.055.752.136 1.096.312q.18.092.366.159c-.338-.412-.734-.762-1.136-1.1a3 3 0 0 0-.346-.24 13.5 13.5 0 0 0-5.484-1.912l-.176.513q-.085.25-.159.505c-.135-.138-.179-.334-.199-.526q.011-.273.038-.542a13 13 0 0 0-2.298.023q.023.29.022.584a.77.77 0 0 1-.206.399 2.3 2.3 0 0 0-.098-.368q-.099-.277-.191-.554c-1.3.183-2.575.578-3.76 1.178l-.079-.11-.269.166q.53.013 1.041.157c.287.09.566.208.818.38l.008-.004c.142.115.278.237.401.375.321.408.373.997.183 1.481-.346.91-1.062 1.653-1.923 1.995a3.24 3.24 0 0 1-2.26.041 2.8 2.8 0 0 1-.777-.461c.036.428.146.846.325 1.23a2.6 2.6 0 0 1 .664-.221 4.7 4.7 0 0 1 1.16-.063c.297.03.603.075.873.219.104.059.224.15.227.29-.015.182-.183.277-.313.36-.352.163-.736.227-1.116.269-.327.009-.655.01-.979-.04.701.926 1.641 1.609 2.627 2.144.809.44 1.661.788 2.54 1.026a7 7 0 0 1-.178-.766c-.042-.231-.065-.467-.125-.694a1.1 1.1 0 0 1-.39-.65.97.97 0 0 1 .103-.518c-.02.196-.04.396.008.591.111.267.35.467.622.499.16.02.305-.066.444-.139.169-.103.342-.223.544-.236.221.013.32.257.432.427h.005c.221.269.555.465.896.413.179-.024.325-.143.452-.272q.166-.223.268-.487l.035-.005c-.008.385-.262.712-.578.872-.03.165-.081.325-.126.487a6 6 0 0 1-.416.765c-.072.057.026.07.061.073.533.054 1.07.078 1.605.095 1.343.043 2.698.021 4.022-.253.924-.194 1.83-.49 2.688-.908.67-.342 1.32-.778 1.793-1.4.425-.578.616-1.37.43-2.088a6.8 6.8 0 0 0-.671-1.55m-12.836-5.57c.385-.015.766-.081 1.15-.121a3 3 0 0 0-.084-.174l-.064-.196c-.01-.028-.036-.082-.048-.109-.44.139-.893.261-1.308.476-.093.213.24.133.354.124" style="fill:#eac500;fill-opacity:1;fill-rule:nonzero;stroke:none;stroke-width:1.33333325"/><path d="M93.97 276.37c-.6-.346-1.326-.493-1.984-.258.316.017.637.192.746.53q.046.203.052.414a.89.89 0 0 1-.553.66c-.215.022-.45.013-.628-.134-.185-.129-.279-.357-.32-.58-.001-.23.083-.445.19-.638-.366.25-.653.598-.902.974.173-.6.559-1.146 1.097-1.417.679-.339 1.488-.28 2.163.041.427.204.836.534 1.001 1.019-.285-.21-.553-.445-.862-.612m-.491-.963c-.805-.09-1.653.046-2.363.484-.406.254-.766.655-.86 1.164a1.97 1.97 0 0 0 .53 1.679c.265.277.616.44.976.51l.002.011c.219.016.446.091.662.028.753-.022 1.492-.325 2.093-.806.45-.368.843-.908.847-1.54.017-.314-.158-.587-.343-.808-.4-.448-.981-.65-1.544-.722m12.976 2.19a2.7 2.7 0 0 0-1.06-.17c.237.202.382.553.252.869q-.036.086-.078.17c-.16.215-.425.28-.673.25-.141-.03-.256-.132-.357-.236-.183-.235-.159-.563-.059-.83-.324.155-.61.38-.883.62.308-.569.851-.982 1.454-1.1.81-.166 1.658.1 2.33.591.408.304.791.727.874 1.273-.496-.606-1.08-1.165-1.8-1.437m1.718.373a3.45 3.45 0 0 0-1.71-.904c-.57-.13-1.163-.186-1.744-.098-.35.056-.704.153-1.016.34-.363.278-.638.737-.62 1.23.018.475.266.9.55 1.247.526.617 1.22 1.104 1.996 1.248.586.097 1.215.081 1.754-.21.498-.258.961-.697 1.097-1.293.127-.526.087-1.169-.307-1.56" style="fill:#74b743;fill-opacity:1;fill-rule:nonzero;stroke:none;stroke-width:1.33333325"/><path d="M91.682 280.077a4.7 4.7 0 0 1 1.16-.064c.297.03.603.075.873.22.106.059.224.15.227.29-.013.182-.183.277-.313.36-.352.163-.735.226-1.115.269-.328.008-.656.01-.979-.042-.264-.054-.558-.11-.75-.328-.143-.204.072-.402.233-.484.21-.11.436-.174.664-.221m11.446 1.561c.087-.156.273-.182.427-.2.525-.04 1.048.066 1.556.204.533.154 1.066.349 1.534.67.156.099.272.25.37.408-.118.316-.475.279-.735.296-.679-.029-1.348-.201-1.985-.452-.346-.142-.694-.301-.983-.553-.097-.093-.22-.219-.184-.373" style="fill:#ed4792;fill-opacity:1;fill-rule:nonzero;stroke:none;stroke-width:1.33333325"/><g clip-path="url(#a)" style="opacity:.53999299" transform="matrix(1.33333 0 0 -1.33333 0 341.333)"><path d="M0 0c.039-.098-.156-.063-.062 0z" style="fill:#192112;fill-opacity:1;fill-rule:nonzero;stroke:none" transform="translate(85.2 45.028)"/></g><g clip-path="url(#b)" style="opacity:.38999903" transform="matrix(1.33333 0 0 -1.33333 0 341.333)"><path d="M0 0c-.019-.073-.157-.011-.081.036z" style="fill:#283719;fill-opacity:1;fill-rule:nonzero;stroke:none" transform="translate(82.583 44.543)"/></g><path d="M98.314 283.111c-.24-.158-.295-.54-.59-.614-.212-.004-.37.166-.548.264-.197.126-.438.138-.66.097.151.397.212.823.308 1.237.111.407.246.9.651 1.07.267.132.57.004.77-.203.311-.323.503-.75.689-1.164l.19-.44a1.5 1.5 0 0 1-.81-.247" style="fill:#ed4792;fill-opacity:1;fill-rule:nonzero;stroke:none;stroke-width:1.33333325"/></svg>