<svg xmlns="http://www.w3.org/2000/svg" xml:space="preserve" width="256" height="256" viewBox="0 0 341.333 341.333"><path d="M16 231.526A8.473 8.473 0 0 0 24.473 240H316.86a8.473 8.473 0 0 0 8.473-8.474V129.742a8.47 8.47 0 0 0-7.293-8.39l-103.89-14.603a8.5 8.5 0 0 0-1.18-.083h-85.809q-.598 0-1.192.086l-102.688 14.59a8.47 8.47 0 0 0-7.281 8.39" style="fill:#333;fill-opacity:1;fill-rule:nonzero;stroke:none;stroke-width:1.33333325"/><path d="M304 208.344c0-5.664-2.243-10.8-5.883-14.576V135.74c0-4.276-3.458-7.741-7.726-7.741h-56.563c-3.988 0-7.22 3.24-7.22 7.235v3.014c0 32.422-26.821 58.83-59.145 57.318-29.942-1.402-53.787-26.167-53.787-56.514v-5.024c0-3.33-2.695-6.03-6.019-6.03H50.393c-4.268 0-7.726 3.466-7.726 7.742v28.442c0 2.652 2.845 4.29 5.156 2.998 5.156-2.885 11.177-4.404 17.577-4.064 17.083.91 30.667 15.262 30.724 32.4.039 11.527-5.908 21.659-14.896 27.475-.659 2.839-.199 6.3 5.97 6.3h153.605q.625.04 1.261.041h40.987q.636-.002 1.261-.041s5.34-.65 6.717-1.539c7.612-3.144 12.971-10.648 12.971-19.41" style="fill:#191919;fill-opacity:1;fill-rule:nonzero;stroke:none;stroke-width:1.33333325"/><path d="M212.636 101.333h-83.938a3.355 3.355 0 0 0-3.364 3.347v36.881c0 24.911 20.296 45.106 45.333 45.106S216 166.472 216 141.56v-36.88a3.356 3.356 0 0 0-3.364-3.347" style="fill:#4c4c4c;fill-opacity:1;fill-rule:nonzero;stroke:none;stroke-width:1.33333325"/><path d="M93.333 196c0 16.2-13.133 29.333-29.333 29.333S34.667 212.2 34.667 196 47.8 166.667 64 166.667 93.333 179.8 93.333 196" style="fill:#000;fill-opacity:1;fill-rule:nonzero;stroke:none;stroke-width:1.33333325"/><path d="M90.667 196c0 14.728-11.939 26.667-26.667 26.667S37.333 210.728 37.333 196 49.272 169.333 64 169.333 90.667 181.272 90.667 196" style="fill:#333;fill-opacity:1;fill-rule:nonzero;stroke:none;stroke-width:1.33333325"/><path d="M70.525 170.14a26.7 26.7 0 0 0-6.526-.806c-2.25 0-4.436.281-6.524.807v19.334H38.141a26.7 26.7 0 0 0 0 13.05h19.334v19.334a26.7 26.7 0 0 0 13.05 0v-19.334h19.334a26.7 26.7 0 0 0 .807-6.524 26.7 26.7 0 0 0-.807-6.526H70.525Z" style="fill:#4d4d4d;fill-opacity:1;fill-rule:nonzero;stroke:none;stroke-width:1.33333325"/><path d="M70.667 196a6.667 6.667 0 1 1-13.335-.001 6.667 6.667 0 0 1 13.335.001" style="fill:#404040;fill-opacity:1;fill-rule:nonzero;stroke:none;stroke-width:1.33333325"/><path d="M258.758 208c0 7.415-6.01 13.425-13.425 13.425s-13.425-6.01-13.425-13.425 6.01-13.425 13.425-13.425 13.425 6.01 13.425 13.425" style="fill:#595959;fill-opacity:1;fill-rule:nonzero;stroke:none;stroke-width:1.33333325"/><path d="M245.333 194.667C237.97 194.667 232 200.636 232 208s5.97 13.333 13.333 13.333 13.334-5.969 13.334-13.333-5.97-13.333-13.334-13.333m0 1.849c6.332 0 11.484 5.152 11.484 11.484s-5.152 11.484-11.484 11.484S233.85 214.332 233.85 208s5.152-11.484 11.484-11.484" style="fill:#4d4d4d;fill-opacity:1;fill-rule:nonzero;stroke:none;stroke-width:1.33333325"/><path d="M245.333 193.333c-8.086 0-14.666 6.58-14.666 14.667s6.58 14.667 14.666 14.667S260 216.087 260 208s-6.58-14.667-14.667-14.667m0 1.242c7.415 0 13.426 6.01 13.426 13.425s-6.011 13.425-13.426 13.425c-7.414 0-13.425-6.01-13.425-13.425s6.01-13.425 13.425-13.425" style="fill:#0d0d0d;fill-opacity:1;fill-rule:nonzero;stroke:none;stroke-width:1.33333325"/><path d="M296.092 208c0 7.415-6.01 13.425-13.426 13.425-7.414 0-13.425-6.01-13.425-13.425s6.01-13.425 13.425-13.425 13.426 6.01 13.426 13.425" style="fill:#595959;fill-opacity:1;fill-rule:nonzero;stroke:none;stroke-width:1.33333325;font-variant-east_asian:normal;opacity:1;vector-effect:none;stroke-linecap:butt;stroke-linejoin:miter;stroke-miterlimit:4;stroke-dasharray:none;stroke-dashoffset:0;stroke-opacity:1"/><path d="M282.667 194.667c-7.364 0-13.334 5.969-13.334 13.333s5.97 13.333 13.334 13.333S296 215.364 296 208s-5.97-13.333-13.333-13.333m0 1.849c6.332 0 11.484 5.152 11.484 11.484s-5.152 11.484-11.484 11.484-11.484-5.152-11.484-11.484 5.152-11.484 11.484-11.484" style="fill:#4c4c4c;fill-opacity:1;fill-rule:nonzero;stroke:none;stroke-width:1.33333325"/><path d="M282.667 193.333c-8.087 0-14.667 6.58-14.667 14.667s6.58 14.667 14.667 14.667 14.666-6.58 14.666-14.667-6.58-14.667-14.666-14.667m0 1.242c7.414 0 13.425 6.01 13.425 13.425s-6.01 13.425-13.425 13.425-13.426-6.01-13.426-13.425 6.011-13.425 13.426-13.425" style="fill:#0d0d0d;fill-opacity:1;fill-rule:nonzero;stroke:none;stroke-width:1.33333325;font-variant-east_asian:normal;opacity:1;vector-effect:none;stroke-linecap:butt;stroke-linejoin:miter;stroke-miterlimit:4;stroke-dasharray:none;stroke-dashoffset:0;stroke-opacity:1"/><path d="M158.125 208c0 2.032-1.865 3.679-4.167 3.679h-14.584c-2.3 0-4.165-1.647-4.165-3.679s1.865-3.679 4.165-3.679h14.584c2.302 0 4.167 1.647 4.167 3.679" style="fill:#4d4d4d;fill-opacity:1;fill-rule:nonzero;stroke:none;stroke-width:1.33333325"/><path d="M153.958 202.667h-14.584c-3.33 0-6.04 2.392-6.04 5.333s2.71 5.333 6.04 5.333h14.584c3.332 0 6.042-2.392 6.042-5.333s-2.71-5.333-6.042-5.333m0 1.654c2.302 0 4.167 1.647 4.167 3.679s-1.865 3.679-4.167 3.679h-14.584c-2.3 0-4.166-1.647-4.166-3.679s1.866-3.679 4.166-3.679z" style="fill:#0d0d0d;fill-opacity:1;fill-rule:nonzero;stroke:none;stroke-width:1.33333325"/><path d="M195.458 208c0 2.032-1.865 3.679-4.166 3.679h-14.584c-2.3 0-4.166-1.647-4.166-3.679s1.866-3.679 4.166-3.679h14.584c2.3 0 4.166 1.647 4.166 3.679" style="fill:#4d4d4d;fill-opacity:1;fill-rule:nonzero;stroke:none;stroke-width:1.33333325"/><path d="M191.292 202.667h-14.584c-3.331 0-6.042 2.392-6.042 5.333s2.71 5.333 6.042 5.333h14.584c3.332 0 6.04-2.392 6.04-5.333s-2.708-5.333-6.04-5.333m0 1.654c2.3 0 4.166 1.647 4.166 3.679s-1.865 3.679-4.166 3.679h-14.584c-2.3 0-4.167-1.647-4.167-3.679s1.867-3.679 4.167-3.679z" style="fill:#0d0d0d;fill-opacity:1;fill-rule:nonzero;stroke:none;stroke-width:1.33333325"/><path d="M282.667 165.333c-2.934 0-5.334-2.4-5.334-5.333v-10.667c0-2.933 2.4-5.333 5.334-5.333s5.333 2.4 5.333 5.333V160c0 2.933-2.4 5.333-5.333 5.333" style="fill:#333;fill-opacity:1;fill-rule:nonzero;stroke:none;stroke-width:1.33333325"/><path d="M288 160a5.334 5.334 0 1 1-10.667 0A5.334 5.334 0 0 1 288 160" style="fill:#4d4d4d;fill-opacity:1;fill-rule:nonzero;stroke:none;stroke-width:1.33333325"/><path d="M245.333 165.333c-2.933 0-5.333-2.4-5.333-5.333v-10.667c0-2.933 2.4-5.333 5.333-5.333s5.334 2.4 5.334 5.333V160c0 2.933-2.4 5.333-5.334 5.333" style="fill:#333;fill-opacity:1;fill-rule:nonzero;stroke:none;stroke-width:1.33333325"/><path d="M250.667 160A5.334 5.334 0 1 1 240 160a5.334 5.334 0 0 1 10.667 0" style="fill:#4d4d4d;fill-opacity:1;fill-rule:nonzero;stroke:none;stroke-width:1.33333325"/><path d="M208 141.333a8 8 0 0 1-8 8 8 8 0 0 1-8-8 8 8 0 0 1 8-8 8 8 0 0 1 8 8m-49.528 6.843h1.613v-11.255h-1.613Zm3.105-5.623c0 1.86-.016 3.72.01 5.58.006.488-.758 1.058-1.549 1.024-.532-.022-1.068-.003-1.601-.004-.81-.004-1.517-.466-1.517-1.001v-11.21c0-.465.542-.885 1.274-.92a24 24 0 0 1 2.032 0c.512.02.907.219 1.168.504a.64.64 0 0 1 .175.408c.01 1.874.008 3.746.008 5.619m7.563-4.819h-1.491v-3.186h-1.752v.166q.001 6.67-.004 13.34c0 .148.055.187.233.183.446-.01.892-.003 1.338-.004.068 0 .134-.004.21-.008v-6.844h-.737V140.3q.094-.008.175-.01c.616 0 1.23.002 1.846-.002.144-.001.195.028.195.15q.002 4.379.008 8.758c0 .038-.007.078-.01.126-.063.004-.116.01-.171.01q-1.46-.002-2.921 0-.718.001-1.208-.413c-.246-.204-.374-.445-.374-.732l.001-13.643c0-.63.679-1.192 1.464-1.205a60 60 0 0 1 1.752 0c.754.012 1.444.55 1.452 1.15.015 1.06.005 2.12.005 3.18 0 .02-.007.039-.01.064m17.531-1.517h1.473v.421q.001 2.093-.003 4.184c0 .104.039.19.128.274.244.23.478.464.731.712.161-.155.296-.31.467-.444a.93.93 0 0 0 .386-.819c-.022-1.387-.009-2.772-.009-4.159v-.166h1.458v4.466c0 .256-.139.488-.314.707-.338.423-.7.837-1.062 1.252-.064.073-.068.12-.003.196.4.467.794.933 1.172 1.408.176.221.226.465.225.719-.009 1.39-.005 2.781-.005 4.172v.156h-1.364v-.174c0-1.46.001-2.92-.005-4.38a.38.38 0 0 0-.115-.252c-.248-.26-.516-.516-.793-.789-.232.227-.439.447-.675.652a.65.65 0 0 0-.249.536c.012 1.415.007 2.83.007 4.245v.163h-1.45v-.165c0-1.374.007-2.748-.005-4.122a1.13 1.13 0 0 1 .261-.774c.395-.474.807-.94 1.222-1.406.068-.076.062-.122-.004-.196a58 58 0 0 1-1.244-1.396c-.183-.214-.235-.453-.234-.704.01-1.38.004-2.764.004-4.146zm-34.345 5.399c.505 0 .988-.008 1.47.004.184.004.228-.048.227-.212-.007-1.315-.004-2.628-.004-3.943 0-.06-.007-.122-.01-.184h-1.684zm3.392 7.535c-.431 0-.85.004-1.268-.005-.04-.001-.102-.076-.114-.124-.32-1.25-.633-2.502-.95-3.752-.188-.755-.38-1.508-.571-2.27h-.556v6.18h-1.376c-.004-.08-.01-.148-.01-.216v-12.73c0-.226 0-.226.246-.226.91 0 1.823.003 2.734 0a1.75 1.75 0 0 1 1.3.526c.198.198.292.44.292.708 0 1.413.003 2.826 0 4.238a1.44 1.44 0 0 1-.266.85c-.21.293-.484.51-.908.573zm-20.933-9.076c.505 0 .988-.01 1.47.005.185.005.229-.059.227-.256-.007-1.579-.004-3.159-.004-4.737 0-.074-.007-.147-.01-.223h-1.683zm3.392 9.056c-.43 0-.85.004-1.268-.008-.04 0-.101-.09-.113-.15-.32-1.5-.634-3.005-.95-4.507l-.572-2.73h-.556v7.427h-1.376c-.004-.093-.009-.175-.009-.256v-15.301c0-.27 0-.271.246-.271.912 0 1.822.003 2.733 0q.78-.003 1.301.632c.198.239.29.53.29.85q.005 2.55 0 5.094a2 2 0 0 1-.264 1.021c-.211.354-.484.612-.908.688.482 2.504.964 5 1.446 7.51m35.631-11.732h-1.68v4.341c.494 0 .976-.01 1.457.004.2.007.237-.057.236-.224-.007-1.308-.003-2.616-.004-3.924 0-.062-.005-.124-.009-.197m-3.1-1.253h2.984c.559 0 1.021.197 1.344.61.12.155.21.367.213.554.018 1.464.012 2.928.008 4.393-.003.639-.436 1.137-1.16 1.348l1.446 6.245h-1.347q-.147-.563-.288-1.12-.612-2.413-1.212-4.826c-.041-.167-.104-.255-.307-.224-.09.014-.185.003-.294.003v6.186h-1.387zm7.501 1.34v4.253c.503 0 .993-.007 1.48.004.173.004.209-.049.207-.196-.005-1.29-.003-2.58-.004-3.872 0-.06-.005-.12-.009-.189zm3.103 11.807h-1.38v-6.25h-1.793v6.25h-1.365c-.003-.072-.01-.134-.01-.195V137.38c0-.656.557-1.19 1.275-1.204q.953-.018 1.904 0c.866.016 1.37.499 1.37 1.29v11.825m4.459-13.105v1.122h-2.138v4.454h1.754v1.262h-1.756v6.267h-1.406V137.35c0-.664.541-1.171 1.264-1.176.704-.005 1.406-.001 2.11-.001.05 0 .098.008.172.013" style="fill:#333;fill-opacity:1;fill-rule:nonzero;stroke:none;stroke-width:1.33333325"/><path d="M201.861 141.775c-.79 0-1.581.004-2.373-.004-.168-.001-.221.057-.22.217q.007.765 0 1.532c-.001.159.052.224.22.224q2.373-.008 4.745 0c.167 0 .223-.064.22-.223a64 64 0 0 1 .001-1.512c.003-.18-.056-.241-.241-.238-.784.009-1.568.004-2.352.004m.021-3.662c.89 0 1.779-.004 2.668.007.117.001.244.07.35.135.367.225.39.58.373.97-.023.538-.005.531-.55.537-.18 0-.222-.066-.22-.232.002-.608-.004-.608-.622-.608h-4.37c-.29 0-.291 0-.291.293 0 .497.008.995-.004 1.492-.004.201.062.265.264.264 1.696-.007 3.39-.004 5.086-.003.343 0 .702.359.702.703 0 .693-.005 1.388.003 2.08 0 .16-.058.268-.155.39-.262.33-.579.428-1 .422-1.61-.026-3.222-.012-4.834-.005-.184 0-.305-.07-.444-.182-.309-.25-.4-.55-.394-.946.024-1.506.012-3.012.005-4.52 0-.174.06-.291.17-.424.24-.3.526-.396.91-.382.783.032 1.568.01 2.353.01m-5.555 2.808c0 .853.004 1.708-.004 2.561 0 .197.056.27.263.265.572-.009.572 0 .57.564 0 .28 0 .28-.271.28-.666 0-1.33-.005-1.995.003-.168.001-.233-.042-.235-.222 0-.586-.008-.59.575-.595.173 0 .245-.043.244-.236a420 420 0 0 1 0-4.347c.001-.18-.044-.257-.233-.237a1.7 1.7 0 0 1-.419-.005c-.056-.008-.14-.088-.145-.141-.07-.71-.068-.71.636-.71.26 0 .518.01.777-.004.184-.008.243.06.241.242-.008.861-.004 1.721-.004 2.582" style="fill:#4c4c4c;fill-opacity:1;fill-rule:nonzero;stroke:none;stroke-width:1.33333325"/><path d="M142.44 147.877h-1.693v-4.7c.001-.22.001-.22.248-.22h2.899v-1.338h-2.584v-.013h-.544v-4.334h3.131v-1.044c0-.168-.037-.227-.235-.226-.974.01-1.947.004-2.92.005-.812.001-1.403.537-1.404 1.279-.003 1.31-.003 9.058 0 10.592 0 .783.549 1.281 1.402 1.28q1.477-.002 2.958-.008h.184c.004-.079.012-.147.012-.214v-1.06zm6.842-11.87h-4.303v1.266h1.537v12.06h1.51v-12.06h1.252v-.347h.004z" style="fill:#333;fill-opacity:1;fill-rule:nonzero;stroke:none;stroke-width:1.33333325"/><path d="m83.443 140.593.012 3.341-1.535.001-.01-3.34zm.014 4.345q.645 0 1.088-.293.446-.293.444-.714l-.01-3.34q-.003-.42-.451-.713-.445-.29-1.09-.29l-3.066.005.033 9.696 1.534-.003-.012-3.67 1.09 3.648H84.6l-1.284-4.295z" style="fill:#ff0;fill-opacity:1;fill-rule:nonzero;stroke:none;stroke-width:1.33333325"/><path d="m54.012 139.776 1.507-.003.032 9.523h-1.505zm4.55 8.528 1.507-.003-.012-3.28-1.505.003zm-.014-4.268h1.506l-.012-3.282-1.506.003zm-1.522-4.264 3.014-.005q.63 0 1.069.285.439.286.441.7l.01 3.014q.002.347-.191.5-.194.154-.479.261.285.066.48.252.195.187.196.627l.01 2.894q0 .413-.436.702-.436.285-1.068.288l-3.012.004z" style="fill:#f39b11;fill-opacity:1;fill-rule:nonzero;stroke:none;stroke-width:1.33333325"/><path d="m74.138 140.582-3.07.004.013 3.341 2.3-.004.004 1.006-2.302.004.012 3.34 3.07-.005.002 1.005-3.068.005q-.644 0-1.09-.29-.447-.293-.447-.713l-.027-7.686q-.001-.42.443-.714.445-.292 1.087-.293l3.069-.004zm2.114-.003-1.533.003-.004-1.005 4.602-.007.004 1.005h-1.536l.031 8.693h-1.535zm12.854-.019-1.533.003.026 7.685 1.534-.003zm-3.067.425q0-.311.184-.584.186-.272.496-.476t.726-.326q.413-.124.892-.124.475 0 .89.12.417.123.727.325.312.204.5.475.187.271.19.584l.022 6.844a1 1 0 0 1-.185.584q-.185.271-.496.476a2.7 2.7 0 0 1-.724.328 3.1 3.1 0 0 1-.89.122q-.48.002-.894-.121a2.7 2.7 0 0 1-.727-.324 1.8 1.8 0 0 1-.499-.475 1 1 0 0 1-.188-.582z" style="fill:#ff0;fill-opacity:1;fill-rule:nonzero;stroke:none;stroke-width:1.33333325"/><path d="M50.552 148.205h-.84l-.033-9.511H48l.036 10.614 5.039-.008-.004-1.1z" style="fill:#f39b11;fill-opacity:1;fill-rule:nonzero;stroke:none;stroke-width:1.33333325"/><path d="m66.583 139.766.014 3.658h-1.68l-.012-3.655zm.016 4.758q.705-.001 1.191-.323.487-.32.487-.78l-.012-3.657q-.003-.46-.494-.78-.487-.318-1.192-.318l-3.357.005.036 10.612h1.68l-.015-4.017 1.195 3.992h1.732l-1.405-4.7z" style="fill:#ff0;fill-opacity:1;fill-rule:nonzero;stroke:none;stroke-width:1.33333325"/><path d="M261.333 146.667a2.666 2.666 0 1 1-5.333 0 2.666 2.666 0 1 1 5.333 0m-.666 8a2 2 0 1 1-4.002-.002 2 2 0 0 1 4.002.002m-.667 8a1.334 1.334 0 1 1-2.668-.001 1.334 1.334 0 0 1 2.668 0m12-15.999a2.666 2.666 0 1 1-5.333 0 2.666 2.666 0 1 1 5.333 0m-.667 8a2 2 0 1 1-4.001-.002 2 2 0 0 1 4.001.002m-.666 8a1.334 1.334 0 1 1-2.668-.001 1.334 1.334 0 0 1 2.668 0" style="fill:#f39b11;fill-opacity:1;fill-rule:nonzero;stroke:none;stroke-width:1.33333325"/></svg>