<?xml version="1.0" encoding="UTF-8" standalone="no"?>
<svg
   xmlns:dc="http://purl.org/dc/elements/1.1/"
   xmlns:cc="http://creativecommons.org/ns#"
   xmlns:rdf="http://www.w3.org/1999/02/22-rdf-syntax-ns#"
   xmlns:svg="http://www.w3.org/2000/svg"
   xmlns="http://www.w3.org/2000/svg"
   xmlns:sodipodi="http://sodipodi.sourceforge.net/DTD/sodipodi-0.dtd"
   xmlns:inkscape="http://www.inkscape.org/namespaces/inkscape"
   viewBox="0 0 341.33334 341.33334"
   height="256"
   width="256"
   xml:space="preserve"
   id="svg2"
   version="1.1"
   sodipodi:docname="NEC - PC Engine - TurboGrafx 16 (E)-content.svg"
   inkscape:version="0.92.3 (2405546, 2018-03-11)"
   inkscape:export-filename="C:\Users\Alfre\AppData\Roaming\RetroArch\assets\xmb\custom\png\NEC - PC Engine - TurboGrafx 16 (E)-content.png"
   inkscape:export-xdpi="96"
   inkscape:export-ydpi="96"><sodipodi:namedview
     pagecolor="#ffffff"
     bordercolor="#666666"
     borderopacity="1"
     objecttolerance="10"
     gridtolerance="10"
     guidetolerance="10"
     inkscape:pageopacity="0"
     inkscape:pageshadow="2"
     inkscape:window-width="1920"
     inkscape:window-height="1001"
     id="namedview170"
     showgrid="false"
     inkscape:pagecheckerboard="true"
     inkscape:zoom="11.0625"
     inkscape:cx="65.552333"
     inkscape:cy="239.81804"
     inkscape:window-x="-9"
     inkscape:window-y="-9"
     inkscape:window-maximized="1"
     inkscape:current-layer="svg2" /><metadata
     id="metadata8"><rdf:RDF><cc:Work
         rdf:about=""><dc:format>image/svg+xml</dc:format><dc:type
           rdf:resource="http://purl.org/dc/dcmitype/StillImage" /><dc:title /></cc:Work></rdf:RDF></metadata><defs
     id="defs6"><clipPath
       id="clipPath18"
       clipPathUnits="userSpaceOnUse"><path
         id="path16"
         d="M 0,256 H 256 V 0 H 0 Z" /></clipPath><clipPath
       id="clipPath26"
       clipPathUnits="userSpaceOnUse"><path
         id="path24"
         d="M 44,252 H 212 V 4 H 44 Z" /></clipPath><clipPath
       id="clipPath310"
       clipPathUnits="userSpaceOnUse"><path
         id="path308"
         d="m 85.1117,45.0282 h 0.093 v -0.0614 h -0.093 z" /></clipPath><clipPath
       id="clipPath326"
       clipPathUnits="userSpaceOnUse"><path
         id="path324"
         d="m 82.4788,44.5793 h 0.1038 v -0.0699 h -0.1038 z" /></clipPath></defs><path
     id="path38"
     style="fill:#e6e6e6;fill-opacity:1;fill-rule:nonzero;stroke:#1a1a1a;stroke-width:2.66666672;stroke-miterlimit:4;stroke-dasharray:none"
     d="M 79.199598,16.000005 H 262.13426 c 5.448,0 9.86533,4.458667 9.86533,9.958666 V 315.37466 c 0,5.5 -4.41733,9.95867 -9.86533,9.95867 H 79.199598 c -5.449333,0 -9.866666,-4.45867 -9.866666,-9.95867 V 25.958671 c 0,-5.499999 4.417333,-9.958666 9.866666,-9.958666"
     inkscape:connector-curvature="0" /><path
     inkscape:connector-curvature="0"
     d="M 79.999998,144 H 261.33333 V 293.33333 H 79.999998 Z"
     style="fill:#3b96cc;fill-opacity:1;fill-rule:nonzero;stroke:none;stroke-width:1.33333325"
     id="path40" /><path
     id="path44"
     style="fill:#d4d4d4;fill-opacity:1;fill-rule:nonzero;stroke:none;stroke-width:1.33333325"
     d="m 143.47866,310.3656 27.44133,-9.97867 27.44,9.97867 v 9.97867 h -54.88133 z"
     inkscape:connector-curvature="0" /><path
     id="path48"
     style="fill:#404040;fill-opacity:1;fill-rule:nonzero;stroke:none;stroke-width:1.33333325"
     d="M 79.999998,21.333338 H 261.33333 V 123.152 c 0,5.62267 -4.388,10.18134 -9.80134,10.18134 H 89.801331 c -5.413333,0 -9.801333,-4.55867 -9.801333,-10.18134 z"
     inkscape:connector-curvature="0" /><path
     inkscape:connector-curvature="0"
     d="M 192.916,281.1 H 148.92266 V 216.864 H 192.916 Z"
     style="fill:#000000;fill-opacity:1;fill-rule:nonzero;stroke:none;stroke-width:1.33333325"
     id="path50" /><path
     inkscape:connector-curvature="0"
     d="m 186.01733,245.676 h 2.27867 v -24.12 h -2.27867 z m 4.388,-12.04933 c 0,3.98533 -0.0213,7.972 0.0133,11.95866 0.009,1.04667 -1.06933,2.26534 -2.188,2.19467 -0.75066,-0.048 -1.508,-0.007 -2.26266,-0.0107 -1.14534,-0.005 -2.144,-1 -2.144,-2.14266 -0.003,-8.008 -0.003,-16.01734 -0.001,-24.02534 0.001,-0.996 0.768,-1.89466 1.80267,-1.972 0.952,-0.072 1.916,-0.052 2.87067,0.003 0.724,0.0427 1.28266,0.468 1.652,1.08 0.152,0.252 0.24533,0.58133 0.24666,0.87467 0.016,4.01333 0.0107,8.02666 0.0107,12.04"
     style="fill:#ffffff;fill-opacity:1;fill-rule:nonzero;stroke:none;stroke-width:1.33333325"
     id="path52" /><path
     id="path56"
     style="fill:#ffffff;fill-opacity:1;fill-rule:nonzero;stroke:none;stroke-width:1.33333325"
     d="m 158.07133,257.8588 h -2.108 v -5.62933 h -2.476 v 0.29333 c 0,7.856 0.001,15.71333 -0.007,23.56933 0,0.26134 0.0773,0.32934 0.32934,0.32134 0.63066,-0.0173 1.26133,-0.004 1.89066,-0.005 0.096,-0.001 0.19067,-0.009 0.29867,-0.0147 v -12.092 h -1.04267 v -1.91067 c 0.0907,-0.007 0.16934,-0.0173 0.24667,-0.0173 0.86933,-0.001 1.74,0.004 2.60933,-0.005 0.204,-0.001 0.276,0.0507 0.276,0.26667 0,5.15733 0.007,10.31467 0.0107,15.472 0,0.0693 -0.008,0.13867 -0.0133,0.224 -0.0893,0.007 -0.16667,0.0173 -0.24267,0.0173 -1.376,10e-4 -2.752,-0.003 -4.128,0.003 -0.67867,0.003 -1.244,-0.24267 -1.70933,-0.73067 -0.34534,-0.36133 -0.52667,-0.788 -0.52667,-1.29466 0.001,-8.03334 0,-16.068 0.001,-24.10134 0,-1.11333 0.96,-2.10666 2.06934,-2.128 0.82533,-0.016 1.652,-0.016 2.47733,0 1.064,0.0213 2.04133,0.972 2.052,2.032 0.02,1.872 0.008,3.74534 0.008,5.61867 0,0.0333 -0.009,0.0667 -0.016,0.112"
     inkscape:connector-curvature="0" /><path
     id="path60"
     style="fill:#ffffff;fill-opacity:1;fill-rule:nonzero;stroke:none;stroke-width:1.33333325"
     d="m 183.80773,250.16547 h 2.08267 v 0.90667 c 0,3 0.001,6.00133 -0.004,9.00266 -0.001,0.224 0.0547,0.40667 0.18133,0.58934 0.344,0.49466 0.67467,1 1.03333,1.53333 0.228,-0.33467 0.41734,-0.66667 0.65867,-0.956 0.43067,-0.51733 0.55333,-1.08933 0.54667,-1.76267 -0.0333,-2.98266 -0.0147,-5.96533 -0.0147,-8.94933 v -0.35733 h 2.06 v 0.84933 c 0,2.92133 0,5.84133 0,8.76267 0,0.54933 -0.19467,1.05066 -0.44133,1.51866 -0.47867,0.91067 -0.99067,1.80267 -1.50267,2.69467 -0.0907,0.15733 -0.096,0.25733 -0.004,0.42133 0.56533,1.004 1.124,2.01067 1.65733,3.03067 0.248,0.47733 0.31867,1.00133 0.316,1.54667 -0.012,2.992 -0.005,5.984 -0.005,8.976 v 0.33866 h -1.92933 v -0.37333 c 0,-3.14267 0.003,-6.28667 -0.007,-9.42933 -0.001,-0.18134 -0.0653,-0.38534 -0.16133,-0.54 -0.352,-0.56267 -0.73067,-1.10934 -1.12134,-1.696 -0.32933,0.48666 -0.62,0.96 -0.95333,1.4 -0.26667,0.35066 -0.356,0.716 -0.35333,1.15466 0.016,3.04534 0.009,6.09067 0.009,9.136 v 0.34934 h -2.048 v -0.356 c 0,-2.956 0.009,-5.912 -0.008,-8.86934 -0.003,-0.59333 0.0893,-1.15466 0.36933,-1.66666 0.55734,-1.01867 1.14,-2.02267 1.72667,-3.024 0.096,-0.164 0.0893,-0.26267 -0.005,-0.42134 -0.596,-0.99466 -1.19067,-1.992 -1.75867,-3.004 -0.25867,-0.46133 -0.332,-0.976 -0.33067,-1.51466 0.0133,-2.97334 0.007,-5.948 0.007,-8.92267 z"
     inkscape:connector-curvature="0" /><path
     id="path64"
     style="fill:#ffffff;fill-opacity:1;fill-rule:nonzero;stroke:none;stroke-width:1.33333325"
     d="m 177.33173,228.2644 c 0.71333,0 1.396,-0.012 2.07733,0.007 0.26,0.007 0.324,-0.076 0.32267,-0.328 -0.0107,-2.032 -0.007,-4.064 -0.007,-6.096 0,-0.0947 -0.009,-0.18934 -0.0147,-0.28534 h -2.37867 z m 4.79467,11.64933 c -0.60934,0 -1.20134,0.005 -1.79334,-0.009 -0.056,-0.001 -0.14133,-0.116 -0.16,-0.192 -0.45066,-1.932 -0.89466,-3.86667 -1.34133,-5.8 -0.268,-1.16533 -0.53733,-2.33067 -0.80933,-3.51067 h -0.78534 v 9.55467 h -1.944 c -0.005,-0.12133 -0.0133,-0.22667 -0.0133,-0.33067 -0.001,-6.56133 -0.001,-13.12266 -0.001,-19.684 0,-0.34666 0.001,-0.34666 0.348,-0.34666 1.288,-0.001 2.576,0.003 3.86266,-0.001 0.736,-0.003 1.348,0.272 1.83867,0.812 0.28,0.308 0.412,0.68134 0.412,1.096 0.003,2.184 0.004,4.368 0,6.552 -0.001,0.46934 -0.116,0.91467 -0.376,1.31334 -0.29733,0.45466 -0.684,0.78666 -1.28267,0.88666 0.68267,3.22 1.36134,6.43067 2.04534,9.66"
     inkscape:connector-curvature="0" /><path
     id="path68"
     style="fill:#ffffff;fill-opacity:1;fill-rule:nonzero;stroke:none;stroke-width:1.33333325"
     d="m 152.54186,231.58147 c 0.71333,0 1.396,-0.016 2.07733,0.008 0.26,0.009 0.324,-0.10267 0.32267,-0.45333 -0.0107,-2.808 -0.007,-5.61734 -0.007,-8.42667 0,-0.13067 -0.009,-0.26133 -0.0147,-0.39467 h -2.37867 z m 4.79467,16.10533 c -0.60934,0 -1.20134,0.008 -1.79334,-0.012 -0.056,-0.001 -0.14133,-0.16133 -0.16,-0.26533 -0.45066,-2.672 -0.89466,-5.34667 -1.34133,-8.02 -0.268,-1.61067 -0.53733,-3.22133 -0.80933,-4.852 h -0.78534 v 13.208 h -1.944 c -0.005,-0.168 -0.0133,-0.312 -0.0133,-0.456 -0.001,-9.072 -0.001,-18.14267 -0.001,-27.21333 0,-0.48134 0.001,-0.48134 0.348,-0.48134 1.288,0 2.57466,0.004 3.86266,-0.001 0.736,-0.004 1.348,0.376 1.83867,1.124 0.28,0.42533 0.412,0.94133 0.412,1.51467 0.003,3.02 0.004,6.03866 -0.001,9.05866 0,0.64934 -0.11467,1.264 -0.37467,1.81467 -0.29733,0.62933 -0.684,1.088 -1.28267,1.22533 0.68267,4.452 1.36134,8.892 2.04534,13.356"
     inkscape:connector-curvature="0" /><path
     id="path72"
     style="fill:#ffffff;fill-opacity:1;fill-rule:nonzero;stroke:none;stroke-width:1.33333325"
     d="m 164.66853,259.92307 h -2.37467 v 6.71067 c 0.69867,0 1.38,-0.0147 2.06,0.008 0.28267,0.009 0.336,-0.0893 0.33467,-0.348 -0.0107,-2.02134 -0.005,-4.044 -0.007,-6.06667 0,-0.0947 -0.008,-0.19067 -0.0133,-0.304 m -4.38,-1.93867 c 0.11067,0 0.20533,0 0.30133,0 1.30534,0 2.60934,0 3.91467,0 0.79067,0 1.444,0.30667 1.9,0.94534 0.16933,0.23866 0.29733,0.56666 0.3,0.85466 0.0253,2.264 0.0187,4.528 0.012,6.792 -0.003,0.988 -0.616,1.76 -1.64133,2.084 0.68,3.212 1.36,6.42534 2.044,9.65734 h -1.90267 c -0.136,-0.58267 -0.27333,-1.15734 -0.40667,-1.73467 -0.57333,-2.48533 -1.14933,-4.97067 -1.71333,-7.45867 -0.0587,-0.25866 -0.14667,-0.39466 -0.432,-0.34666 -0.128,0.0213 -0.26267,0.004 -0.41867,0.004 v 9.56533 h -1.95733 z"
     inkscape:connector-curvature="0" /><path
     id="path76"
     style="fill:#ffffff;fill-opacity:1;fill-rule:nonzero;stroke:none;stroke-width:1.33333325"
     d="m 170.88773,260.0576 v 6.57733 c 0.712,0 1.40267,-0.0107 2.09333,0.005 0.244,0.005 0.29334,-0.0773 0.292,-0.304 -0.008,-1.99467 -0.004,-3.98934 -0.005,-5.98534 0,-0.0933 -0.008,-0.188 -0.0133,-0.29333 z m 4.388,18.25333 h -1.95333 v -9.66 h -2.532 v 9.66134 h -1.92934 c -0.005,-0.112 -0.0133,-0.20667 -0.0133,-0.30267 0,-6.03733 -0.001,-12.07467 0,-18.112 0,-1.01467 0.78533,-1.83867 1.80133,-1.86133 0.896,-0.02 1.79334,-0.02 2.69067,-10e-4 1.22133,0.0253 1.93467,0.77067 1.93467,1.99334 0.001,4.35066 0.001,8.70133 0.001,13.052 0,1.63333 0,3.26666 0,4.9 0,0.10533 0,0.21066 0,0.33066"
     inkscape:connector-curvature="0" /><path
     id="path80"
     style="fill:#ffffff;fill-opacity:1;fill-rule:nonzero;stroke:none;stroke-width:1.33333325"
     d="m 170.76946,254.83573 v -0.007 c 1.67733,0 3.35467,-0.005 5.032,0.003 0.57867,0.003 1.12667,-0.12 1.65333,-0.34533 3.96667,-1.692 4.86,-7.26 1.404,-10.04 -1.03466,-0.832 -2.184,-1.29334 -3.544,-1.27867 -3.17733,0.032 -6.356,0 -9.53333,0.0213 -0.46933,0.003 -0.96667,0.076 -1.40133,0.24534 -2.17867,0.852 -3.57334,2.41733 -3.86667,4.76133 -0.28933,2.316 0.52667,4.24 2.44267,5.636 0.764,0.556 1.608,0.97733 2.568,0.99467 1.748,0.0333 3.49733,0.009 5.24533,0.009 m -0.0547,1.15467 c -1.572,0 -3.14266,-0.003 -4.71333,0.001 -2.49067,0.004 -4.41733,-1.092 -5.71867,-3.15733 -2.788,-4.424 -0.21333,-9.68667 4.45467,-10.788 0.376,-0.088 0.772,-0.124 1.15867,-0.12534 3.10666,-0.0107 6.21333,0.009 9.31866,-0.012 1.724,-0.0107 3.21467,0.56534 4.51067,1.66667 1.39333,1.18267 2.284,2.67333 2.50133,4.496 0.252,2.108 -0.29733,4.01067 -1.70666,5.62533 -1.144,1.30934 -2.59467,2.06534 -4.32134,2.28134 -0.16666,0.0213 -0.33733,0.012 -0.50533,0.012 -1.66,0 -3.32,0 -4.97867,0"
     inkscape:connector-curvature="0" /><path
     id="path84"
     style="fill:#ffffff;fill-opacity:1;fill-rule:nonzero;stroke:none;stroke-width:1.33333325"
     d="m 182.53386,258.04987 v 1.73467 h -3.02267 v 6.88666 h 2.48 v 1.95067 h -2.48133 v 9.68933 h -1.988 v -0.32933 c 0,-6.04533 0,-12.08933 0,-18.13333 0,-1.02534 0.764,-1.808 1.78667,-1.81734 0.99333,-0.008 1.988,-0.003 2.98133,-0.001 0.0693,0 0.13867,0.0107 0.244,0.02"
     inkscape:connector-curvature="0" /><path
     inkscape:connector-curvature="0"
     d="m 186.01733,221.556 h 2.27867 v 24.12 h -2.27867 z"
     style="fill:#000000;fill-opacity:1;fill-rule:nonzero;stroke:none;stroke-width:1.33333325"
     id="path86" /><path
     id="path90"
     style="fill:#000000;fill-opacity:1;fill-rule:nonzero;stroke:none;stroke-width:1.33333325"
     d="m 164.66853,259.92307 c 0.005,0.11333 0.0133,0.20933 0.0133,0.304 0.001,2.02267 -0.004,4.04533 0.007,6.06667 0.001,0.25866 -0.052,0.35733 -0.33467,0.348 -0.68,-0.0227 -1.36133,-0.008 -2.06,-0.008 v -6.71067 z"
     inkscape:connector-curvature="0" /><path
     id="path94"
     style="fill:#000000;fill-opacity:1;fill-rule:nonzero;stroke:none;stroke-width:1.33333325"
     d="m 170.88773,260.0576 h 2.36667 c 0.005,0.10533 0.0133,0.2 0.0133,0.29333 0.001,1.996 -0.003,3.99067 0.005,5.98534 0.001,0.22666 -0.048,0.30933 -0.292,0.304 -0.69066,-0.016 -1.38133,-0.005 -2.09333,-0.005 z"
     inkscape:connector-curvature="0" /><path
     id="path98"
     style="fill:#000000;fill-opacity:1;fill-rule:nonzero;stroke:none;stroke-width:1.33333325"
     d="m 166.01026,248.45787 c 0,-1.09067 -0.005,-2.18267 0.004,-3.27333 0.003,-0.232 -0.0707,-0.31734 -0.30533,-0.30534 -0.32667,0.016 -0.656,0.004 -0.984,0.004 -0.89334,0 -0.89734,0 -0.80667,0.89867 0.007,0.068 0.112,0.16933 0.184,0.18 0.17333,0.0267 0.35467,0.024 0.53067,0.005 0.24,-0.024 0.296,0.0733 0.296,0.30267 -0.009,1.836 -0.009,3.67333 0,5.50933 0.001,0.244 -0.0907,0.29734 -0.30934,0.29867 -0.73866,0.005 -0.73066,0.012 -0.728,0.75467 0,0.22666 0.084,0.284 0.29734,0.28133 0.84266,-0.009 1.68533,-0.004 2.528,-0.004 0.344,0 0.344,-0.001 0.34533,-0.35467 0,-0.71466 0,-0.72533 -0.724,-0.71333 -0.26267,0.004 -0.33467,-0.088 -0.332,-0.33733 0.009,-1.08267 0.004,-2.164 0.004,-3.24667 m 7.04,-3.56 c -0.99467,0 -1.98933,0.028 -2.98267,-0.0107 -0.48666,-0.02 -0.84666,0.10267 -1.15333,0.48134 -0.13867,0.17066 -0.21467,0.32 -0.21467,0.54133 0.008,1.908 0.0227,3.81733 -0.008,5.72667 -0.008,0.504 0.10934,0.88133 0.50267,1.2 0.17467,0.14133 0.32933,0.22933 0.56133,0.228 2.04267,-0.008 4.08534,-0.024 6.12667,0.009 0.53467,0.008 0.936,-0.116 1.26667,-0.53467 0.12266,-0.156 0.19866,-0.292 0.19733,-0.49466 -0.0107,-0.87867 -0.004,-1.75734 -0.004,-2.63734 -0.001,-0.436 -0.45467,-0.892 -0.88933,-0.892 -2.14934,0 -4.29734,-0.003 -6.44667,0.005 -0.25467,0 -0.34133,-0.08 -0.33467,-0.336 0.0147,-0.62934 0.004,-1.26 0.005,-1.89067 0,-0.37067 0.001,-0.372 0.368,-0.372 1.84666,0 3.69333,0 5.54,0 0.784,0 0.79066,0 0.78666,0.77067 -0.001,0.212 0.0507,0.296 0.28134,0.29466 0.68933,-0.007 0.66666,0.001 0.696,-0.68133 0.0213,-0.49333 -0.007,-0.94267 -0.47334,-1.228 -0.13333,-0.0827 -0.29333,-0.16933 -0.44266,-0.172 -1.12667,-0.0133 -2.25467,-0.007 -3.38267,-0.008 m -2.28133,9.93733 c -1.748,0 -3.49734,0.024 -5.24534,-0.009 -0.96,-0.0173 -1.804,-0.43733 -2.56666,-0.99467 -1.916,-1.396 -2.732,-3.32 -2.44267,-5.63466 0.292,-2.34534 1.68667,-3.90934 3.86533,-4.76134 0.43467,-0.17066 0.93334,-0.244 1.40267,-0.24666 3.17733,-0.0213 6.35467,0.0107 9.532,-0.0213 1.36133,-0.0147 2.51067,0.448 3.54533,1.28 3.45467,2.77867 2.56267,8.34667 -1.404,10.04 -0.528,0.22534 -1.07466,0.34667 -1.65333,0.344 -1.67733,-0.007 -3.356,-0.003 -5.03333,-0.003 z"
     inkscape:connector-curvature="0" /><path
     id="path102"
     style="fill:#ffffff;fill-opacity:1;fill-rule:nonzero;stroke:none;stroke-width:1.33333325"
     d="m 173.02413,249.5388 c -1.00267,0 -2.00533,0.005 -3.008,-0.004 -0.21333,-0.003 -0.28133,0.072 -0.27867,0.27333 0.007,0.648 0.007,1.296 0,1.94267 -0.003,0.20133 0.0667,0.284 0.27867,0.284 2.004,-0.005 4.00933,-0.005 6.01467,0 0.21066,0 0.28133,-0.0813 0.28,-0.28267 -0.007,-0.63866 -0.009,-1.27733 0,-1.916 0.004,-0.228 -0.0693,-0.30533 -0.30534,-0.30266 -0.99333,0.012 -1.988,0.005 -2.98133,0.005 m 0.0267,-4.64 c 1.12666,0 2.25466,-0.007 3.38266,0.008 0.148,10e-4 0.308,0.0893 0.44267,0.17067 0.46667,0.28533 0.49467,0.73466 0.47333,1.228 -0.0293,0.684 -0.008,0.67466 -0.69733,0.68133 -0.23067,0.003 -0.28133,-0.0813 -0.28133,-0.29467 0.004,-0.77066 -0.001,-0.77066 -0.78534,-0.77066 -1.84666,0 -3.69333,0 -5.54133,0.001 -0.36667,0 -0.368,10e-4 -0.368,0.37067 0,0.63066 0.009,1.26133 -0.005,1.892 -0.005,0.256 0.08,0.336 0.336,0.33466 2.148,-0.008 4.29733,-0.005 6.44533,-0.004 0.436,0 0.88933,0.45467 0.88933,0.892 0,0.87867 -0.005,1.75734 0.004,2.636 0.003,0.20267 -0.0733,0.34 -0.196,0.49467 -0.332,0.42 -0.73333,0.54267 -1.26666,0.53467 -2.04267,-0.032 -4.08534,-0.016 -6.12667,-0.008 -0.23333,0 -0.38667,-0.0867 -0.56267,-0.22934 -0.392,-0.31866 -0.50933,-0.696 -0.50133,-1.2 0.0307,-1.908 0.016,-3.81733 0.008,-5.72666 -0.001,-0.22134 0.076,-0.37067 0.21333,-0.54 0.30667,-0.38 0.66667,-0.50134 1.15467,-0.48267 0.992,0.0387 1.988,0.012 2.98267,0.012"
     inkscape:connector-curvature="0" /><path
     id="path106"
     style="fill:#ffffff;fill-opacity:1;fill-rule:nonzero;stroke:none;stroke-width:1.33333325"
     d="m 166.01013,248.45787 c 0,1.08267 0.005,2.164 -0.004,3.24667 -0.003,0.24933 0.0693,0.34133 0.332,0.33733 0.724,-0.012 0.724,-10e-4 0.724,0.71333 -0.001,0.35334 -0.001,0.35467 -0.34533,0.35467 -0.84267,0 -1.68534,-0.005 -2.528,0.004 -0.21334,0.003 -0.29734,-0.0547 -0.29734,-0.28133 -0.003,-0.74267 -0.0107,-0.74934 0.728,-0.75467 0.22,-10e-4 0.31067,-0.0547 0.30934,-0.29867 -0.009,-1.836 -0.009,-3.67333 0,-5.50933 0,-0.22933 -0.056,-0.32667 -0.296,-0.30267 -0.176,0.0187 -0.35734,0.0213 -0.53067,-0.005 -0.072,-0.0107 -0.17733,-0.112 -0.184,-0.18 -0.0893,-0.89867 -0.0867,-0.89867 0.80667,-0.89867 0.328,0 0.65733,0.012 0.984,-0.004 0.23466,-0.012 0.308,0.0733 0.30533,0.30534 -0.009,1.09066 -0.004,2.18266 -0.004,3.27333"
     inkscape:connector-curvature="0" /><path
     id="path110"
     style="fill:#000000;fill-opacity:1;fill-rule:nonzero;stroke:none;stroke-width:1.33333325"
     d="m 173.02413,249.53867 c 0.99333,0 1.988,0.007 2.98133,-0.005 0.236,-0.003 0.30934,0.0747 0.30534,0.30266 -0.009,0.63867 -0.007,1.27734 0,1.916 0.001,0.20134 -0.0693,0.28267 -0.28,0.28267 -2.00534,-0.005 -4.01067,-0.005 -6.01467,0 -0.212,0 -0.28133,-0.0827 -0.27867,-0.284 0.007,-0.64667 0.007,-1.29467 0,-1.94267 -0.003,-0.20133 0.0653,-0.276 0.27867,-0.27333 1.00267,0.009 2.00533,0.004 3.008,0.004"
     inkscape:connector-curvature="0" /><path
     id="path114"
     style="fill:#ffffff;fill-opacity:1;fill-rule:nonzero;stroke:none;stroke-width:1.33333325"
     d="m 163.35813,237.94547 h -0.888 -0.30667 -1.196 c 0,-0.12533 0,-0.22133 0,-0.31733 0,-0.59467 0,-1.18934 0,-1.784 0,-1.72134 0,-3.44267 0,-5.164 0,-0.34134 0.001,-0.34134 0.35067,-0.34134 0.28133,0 0.56267,0 0.84533,0 v 0 h 3.25067 c 0,-0.68933 0,-1.37866 0.001,-2.068 h -3.65333 v -0.02 h -0.768 v -6.70133 h 0.768 0.41333 3.24267 c 0.001,-0.53733 0.001,-1.076 0.001,-1.61467 0,-0.25866 -0.052,-0.35066 -0.33333,-0.348 -1.376,0.016 -2.752,0.007 -4.12667,0.008 -1.148,0.001 -1.98266,0.83067 -1.98533,1.97734 -0.004,2.02266 -0.003,14.00533 0,16.37466 0.003,1.212 0.77733,1.98267 1.98267,1.98 1.39333,-10e-4 2.78666,-0.008 4.18,-0.012 0.0787,0 0.15733,0 0.26,0 0.007,-0.12266 0.0173,-0.22666 0.0173,-0.33066 0,-0.54667 0,-1.092 0,-1.63867 z"
     inkscape:connector-curvature="0" /><path
     id="path118"
     style="fill:#ffffff;fill-opacity:1;fill-rule:nonzero;stroke:none;stroke-width:1.33333325"
     d="m 173.02946,219.59427 h -0.33067 c -1.048,0 -5.752,0 -5.752,0 v 1.956 h 2.172 v 18.64667 h 2.136 v -18.64667 h 1.768 v -0.536 h 0.007 z"
     inkscape:connector-curvature="0" /><path
     id="path122"
     style="fill:#e6e6e6;fill-opacity:1;fill-rule:nonzero;stroke:none;stroke-width:1.33333325"
     d="m 230.46906,282.80453 h 0.724 l -1.00133,4.46133 h 2.70933 l -0.13467,0.60267 h -3.43333 z"
     inkscape:connector-curvature="0" /><path
     id="path126"
     style="fill:#e6e6e6;fill-opacity:1;fill-rule:nonzero;stroke:none;stroke-width:1.33333325"
     d="m 234.52813,282.80453 h 0.66667 l -0.16,0.70267 h -0.66667 z m -0.31333,1.38933 h 0.66666 l -0.82266,3.67467 h -0.66667 z"
     inkscape:connector-curvature="0" /><path
     id="path130"
     style="fill:#e6e6e6;fill-opacity:1;fill-rule:nonzero;stroke:none;stroke-width:1.33333325"
     d="m 240.38173,284.32493 h -0.70667 c -0.007,-0.328 -0.10933,-0.58667 -0.30533,-0.77867 -0.196,-0.19066 -0.51067,-0.28666 -0.94267,-0.28666 -0.52666,0 -0.99066,0.17466 -1.392,0.52666 -0.40266,0.35067 -0.684,0.888 -0.84666,1.612 -0.13334,0.59467 -0.096,1.07467 0.11466,1.444 0.20934,0.36934 0.604,0.55467 1.184,0.55467 0.53467,0 0.98534,-0.19467 1.35067,-0.58267 0.192,-0.20533 0.36267,-0.47333 0.51067,-0.80666 h 0.70533 c -0.18133,0.53333 -0.48933,0.98 -0.924,1.34133 -0.524,0.43333 -1.14667,0.65067 -1.868,0.65067 -0.62133,0 -1.10267,-0.17734 -1.44533,-0.53334 -0.448,-0.472 -0.56267,-1.19866 -0.34134,-2.18266 0.16667,-0.74667 0.51334,-1.36 1.03734,-1.83734 0.568,-0.52 1.248,-0.78 2.04133,-0.78 0.67733,0 1.16533,0.16934 1.464,0.50667 0.29867,0.33867 0.42,0.72267 0.364,1.152"
     inkscape:connector-curvature="0" /><path
     id="path134"
     style="fill:#e6e6e6;fill-opacity:1;fill-rule:nonzero;stroke:none;stroke-width:1.33333325"
     d="m 243.72719,285.7936 -0.30933,-2.23733 -1.36534,2.23733 z m -0.51733,-2.98933 h 0.82 l 0.804,5.06533 h -0.79334 l -0.204,-1.51733 h -2.11466 l -0.91734,1.51733 h -0.74266 z"
     inkscape:connector-curvature="0" /><path
     id="path138"
     style="fill:#e6e6e6;fill-opacity:1;fill-rule:nonzero;stroke:none;stroke-width:1.33333325"
     d="m 248.59399,285.1248 c 0.34,0 0.624,-0.064 0.85067,-0.19333 0.22666,-0.128 0.37733,-0.36 0.452,-0.69467 0.08,-0.36 -0.003,-0.60533 -0.25067,-0.736 -0.13333,-0.0693 -0.324,-0.10267 -0.572,-0.10267 h -1.76933 l -0.38534,1.72667 z m -1.87867,-2.32 h 2.476 c 0.408,0 0.73067,0.056 0.968,0.16933 0.45334,0.216 0.616,0.61467 0.488,1.196 -0.068,0.30267 -0.18933,0.55067 -0.36533,0.744 -0.176,0.19334 -0.39733,0.348 -0.66133,0.46534 0.192,0.0813 0.32533,0.18666 0.4,0.31733 0.076,0.13067 0.0867,0.344 0.0333,0.63867 l -0.128,0.67866 c -0.036,0.19334 -0.0507,0.336 -0.0427,0.43067 0.007,0.16133 0.0613,0.264 0.16267,0.31067 l -0.0253,0.11333 h -0.888 c -0.0147,-0.044 -0.0213,-0.1 -0.0213,-0.16933 0,-0.068 0.0173,-0.20134 0.0547,-0.39867 l 0.14533,-0.84533 c 0.056,-0.33067 -0.024,-0.55334 -0.24,-0.66534 -0.12666,-0.0627 -0.33733,-0.0933 -0.63333,-0.0933 h -1.64933 l -0.484,2.172 h -0.724 z"
     inkscape:connector-curvature="0" /><path
     id="path142"
     style="fill:#e6e6e6;fill-opacity:1;fill-rule:nonzero;stroke:none;stroke-width:1.33333325"
     d="m 253.06066,287.28293 c 0.24533,0 0.452,-0.024 0.61867,-0.072 0.30133,-0.0893 0.57066,-0.26267 0.808,-0.51733 0.18933,-0.204 0.35066,-0.46534 0.484,-0.78534 0.08,-0.19066 0.13866,-0.36666 0.17466,-0.53066 0.14134,-0.62667 0.11867,-1.11334 -0.0667,-1.46 -0.18534,-0.34667 -0.57067,-0.52 -1.156,-0.52 h -1.28534 l -0.86933,3.88533 z m -1.016,-4.47867 h 2.16667 c 0.73466,0 1.24933,0.248 1.54266,0.74134 0.26267,0.44666 0.31467,1.01733 0.15734,1.71333 -0.11867,0.53867 -0.33467,1.024 -0.648,1.45867 -0.54667,0.768 -1.27867,1.152 -2.196,1.152 h -2.15867 z"
     inkscape:connector-curvature="0" /><path
     inkscape:connector-curvature="0"
     d="m 87.999998,42.666671 h -2.666667 v -16 h 2.666667 z"
     style="fill:#bc8a31;fill-opacity:1;fill-rule:nonzero;stroke:none;stroke-width:1.33333325"
     id="path144" /><path
     inkscape:connector-curvature="0"
     d="M 93.333331,37.333338 H 90.666664 V 26.666671 h 2.666667 z"
     style="fill:#bc8a31;fill-opacity:1;fill-rule:nonzero;stroke:none;stroke-width:1.33333325"
     id="path146" /><path
     inkscape:connector-curvature="0"
     d="M 98.666664,37.333338 H 95.999998 V 26.666671 h 2.666666 z"
     style="fill:#bc8a31;fill-opacity:1;fill-rule:nonzero;stroke:none;stroke-width:1.33333325"
     id="path148" /><path
     inkscape:connector-curvature="0"
     d="m 104,37.333338 h -2.66667 V 26.666671 H 104 Z"
     style="fill:#bc8a31;fill-opacity:1;fill-rule:nonzero;stroke:none;stroke-width:1.33333325"
     id="path150" /><path
     inkscape:connector-curvature="0"
     d="m 109.33333,37.333338 h -2.66667 V 26.666671 h 2.66667 z"
     style="fill:#bc8a31;fill-opacity:1;fill-rule:nonzero;stroke:none;stroke-width:1.33333325"
     id="path152" /><path
     inkscape:connector-curvature="0"
     d="M 114.66666,37.333338 H 112 V 26.666671 h 2.66666 z"
     style="fill:#bc8a31;fill-opacity:1;fill-rule:nonzero;stroke:none;stroke-width:1.33333325"
     id="path154" /><path
     inkscape:connector-curvature="0"
     d="m 120,37.333338 h -2.66667 V 26.666671 H 120 Z"
     style="fill:#bc8a31;fill-opacity:1;fill-rule:nonzero;stroke:none;stroke-width:1.33333325"
     id="path156" /><path
     inkscape:connector-curvature="0"
     d="m 125.33333,37.333338 h -2.66667 V 26.666671 h 2.66667 z"
     style="fill:#bc8a31;fill-opacity:1;fill-rule:nonzero;stroke:none;stroke-width:1.33333325"
     id="path158" /><path
     inkscape:connector-curvature="0"
     d="M 130.66666,37.333338 H 128 V 26.666671 h 2.66666 z"
     style="fill:#bc8a31;fill-opacity:1;fill-rule:nonzero;stroke:none;stroke-width:1.33333325"
     id="path160" /><path
     inkscape:connector-curvature="0"
     d="m 136,37.333338 h -2.66667 V 26.666671 H 136 Z"
     style="fill:#bc8a31;fill-opacity:1;fill-rule:nonzero;stroke:none;stroke-width:1.33333325"
     id="path162" /><path
     inkscape:connector-curvature="0"
     d="m 141.33333,37.333338 h -2.66667 V 26.666671 h 2.66667 z"
     style="fill:#bc8a31;fill-opacity:1;fill-rule:nonzero;stroke:none;stroke-width:1.33333325"
     id="path164" /><path
     inkscape:connector-curvature="0"
     d="M 146.66666,37.333338 H 144 V 26.666671 h 2.66666 z"
     style="fill:#bc8a31;fill-opacity:1;fill-rule:nonzero;stroke:none;stroke-width:1.33333325"
     id="path166" /><path
     inkscape:connector-curvature="0"
     d="m 152,37.333338 h -2.66667 V 26.666671 H 152 Z"
     style="fill:#bc8a31;fill-opacity:1;fill-rule:nonzero;stroke:none;stroke-width:1.33333325"
     id="path168" /><path
     inkscape:connector-curvature="0"
     d="m 157.33333,37.333338 h -2.66667 V 26.666671 h 2.66667 z"
     style="fill:#bc8a31;fill-opacity:1;fill-rule:nonzero;stroke:none;stroke-width:1.33333325"
     id="path170" /><path
     inkscape:connector-curvature="0"
     d="M 162.66666,37.333338 H 160 v -16 h 2.66666 z"
     style="fill:#bc8a31;fill-opacity:1;fill-rule:nonzero;stroke:none;stroke-width:1.33333325"
     id="path172" /><path
     inkscape:connector-curvature="0"
     d="m 168,37.333338 h -2.66667 V 26.666671 H 168 Z"
     style="fill:#bc8a31;fill-opacity:1;fill-rule:nonzero;stroke:none;stroke-width:1.33333325"
     id="path174" /><path
     inkscape:connector-curvature="0"
     d="m 173.33333,37.333338 h -2.66667 V 26.666671 h 2.66667 z"
     style="fill:#bc8a31;fill-opacity:1;fill-rule:nonzero;stroke:none;stroke-width:1.33333325"
     id="path176" /><path
     inkscape:connector-curvature="0"
     d="M 178.66666,37.333338 H 176 V 26.666671 h 2.66666 z"
     style="fill:#bc8a31;fill-opacity:1;fill-rule:nonzero;stroke:none;stroke-width:1.33333325"
     id="path178" /><path
     inkscape:connector-curvature="0"
     d="m 184,37.333338 h -2.66667 V 26.666671 H 184 Z"
     style="fill:#bc8a31;fill-opacity:1;fill-rule:nonzero;stroke:none;stroke-width:1.33333325"
     id="path180" /><path
     inkscape:connector-curvature="0"
     d="m 189.33333,37.333338 h -2.66667 V 26.666671 h 2.66667 z"
     style="fill:#bc8a31;fill-opacity:1;fill-rule:nonzero;stroke:none;stroke-width:1.33333325"
     id="path182" /><path
     inkscape:connector-curvature="0"
     d="M 194.66666,37.333338 H 192 V 26.666671 h 2.66666 z"
     style="fill:#bc8a31;fill-opacity:1;fill-rule:nonzero;stroke:none;stroke-width:1.33333325"
     id="path184" /><path
     inkscape:connector-curvature="0"
     d="m 200,37.333338 h -2.66667 V 26.666671 H 200 Z"
     style="fill:#bc8a31;fill-opacity:1;fill-rule:nonzero;stroke:none;stroke-width:1.33333325"
     id="path186" /><path
     inkscape:connector-curvature="0"
     d="m 205.33333,37.333338 h -2.66667 V 26.666671 h 2.66667 z"
     style="fill:#bc8a31;fill-opacity:1;fill-rule:nonzero;stroke:none;stroke-width:1.33333325"
     id="path188" /><path
     inkscape:connector-curvature="0"
     d="m 210.66666,37.333338 h -2.66667 V 26.666671 h 2.66667 z"
     style="fill:#bc8a31;fill-opacity:1;fill-rule:nonzero;stroke:none;stroke-width:1.33333325"
     id="path190" /><path
     inkscape:connector-curvature="0"
     d="m 215.99999,37.333338 h -2.66666 V 26.666671 h 2.66666 z"
     style="fill:#bc8a31;fill-opacity:1;fill-rule:nonzero;stroke:none;stroke-width:1.33333325"
     id="path192" /><path
     inkscape:connector-curvature="0"
     d="m 221.33333,37.333338 h -2.66667 V 26.666671 h 2.66667 z"
     style="fill:#bc8a31;fill-opacity:1;fill-rule:nonzero;stroke:none;stroke-width:1.33333325"
     id="path194" /><path
     inkscape:connector-curvature="0"
     d="m 226.66666,37.333338 h -2.66667 V 26.666671 h 2.66667 z"
     style="fill:#bc8a31;fill-opacity:1;fill-rule:nonzero;stroke:none;stroke-width:1.33333325"
     id="path196" /><path
     inkscape:connector-curvature="0"
     d="m 231.99999,37.333338 h -2.66666 V 26.666671 h 2.66666 z"
     style="fill:#bc8a31;fill-opacity:1;fill-rule:nonzero;stroke:none;stroke-width:1.33333325"
     id="path198" /><path
     inkscape:connector-curvature="0"
     d="m 237.33333,37.333338 h -2.66667 V 26.666671 h 2.66667 z"
     style="fill:#bc8a31;fill-opacity:1;fill-rule:nonzero;stroke:none;stroke-width:1.33333325"
     id="path200" /><path
     inkscape:connector-curvature="0"
     d="m 242.66666,37.333338 h -2.66667 V 26.666671 h 2.66667 z"
     style="fill:#bc8a31;fill-opacity:1;fill-rule:nonzero;stroke:none;stroke-width:1.33333325"
     id="path202" /><path
     inkscape:connector-curvature="0"
     d="m 247.99999,37.333338 h -2.66666 V 26.666671 h 2.66666 z"
     style="fill:#bc8a31;fill-opacity:1;fill-rule:nonzero;stroke:none;stroke-width:1.33333325"
     id="path204" /><path
     inkscape:connector-curvature="0"
     d="m 253.33333,37.333338 h -2.66667 v -16 h 2.66667 z"
     style="fill:#bc8a31;fill-opacity:1;fill-rule:nonzero;stroke:none;stroke-width:1.33333325"
     id="path206" /><path
     id="path210"
     style="fill:#000000;fill-opacity:1;fill-rule:nonzero;stroke:none;stroke-width:1.33333325"
     d="m 97.176798,282.76133 c -0.198667,0.12533 -0.44,0.13867 -0.661333,0.0973 0.150666,0.39734 0.213333,0.82267 0.309333,1.23734 0.110667,0.40666 0.245333,0.9 0.649333,1.06933 0.266667,0.132 0.572,0.004 0.770667,-0.20267 0.312,-0.32266 0.504,-0.75066 0.689333,-1.164 0.064,-0.14666 0.125334,-0.29333 0.189334,-0.44 -0.285334,10e-4 -0.565334,-0.0933 -0.809334,-0.24666 -0.24,-0.15867 -0.294666,-0.54 -0.590666,-0.616 -0.210667,-0.003 -0.370667,0.168 -0.546667,0.26533 m 15.405332,-2.88 c -0.77867,0.184 -1.56933,0.45733 -2.37733,0.32133 0.0707,0.572 -0.0107,1.15467 -0.20267,1.692 -0.10133,0.0627 0.0827,0.14534 0.108,0.048 l 0.0627,0.0373 c 0.0667,0.20133 0.27466,0.276 0.45466,0.296 0.464,0.048 0.928,-0.0613 1.368,-0.208 -0.10666,-0.10667 -0.24666,-0.20667 -0.268,-0.37334 0.0147,-0.072 0.0467,-0.136 0.076,-0.20133 0.32,0.0133 0.636,0.068 0.952,0.108 0.43334,-0.34533 0.70534,-0.936 0.664,-1.51733 -0.005,-0.156 -0.104,-0.31467 -0.256,-0.33467 -0.19866,-0.032 -0.4,0.0493 -0.58133,0.132 m 2.46,-0.93067 -0.0107,0.0213 c -0.408,0.132 -0.79733,0.31866 -1.20133,0.46266 0.0933,0.63334 -0.0267,1.3 -0.31333,1.86134 -0.12534,0.084 0.13466,0.13066 0.0827,0 0.0293,-10e-4 0.0853,-0.003 0.11334,-0.004 0.008,0.116 0.136,0.14533 0.22266,0.13866 0.34534,-0.0307 0.672,-0.18266 0.97334,-0.36 -0.0973,-0.088 -0.21467,-0.16266 -0.27734,-0.284 -0.0427,-0.0867 0.012,-0.176 0.032,-0.26 0.248,0.008 0.49334,0.036 0.73734,0.0787 0.25333,-0.32 0.44266,-0.74533 0.36666,-1.17333 -0.0413,-0.208 -0.108,-0.44134 -0.288,-0.55867 -0.14666,-0.0853 -0.3,0.024 -0.43733,0.0773 m 2.26267,-1.05466 c -0.39867,0.19333 -0.79467,0.39066 -1.19334,0.58133 0.15467,0.69067 0.0213,1.42267 -0.30933,2.03067 0.084,-0.056 0.20133,-0.076 0.26667,-0.15734 0.136,0.0947 0.30266,0.0827 0.452,0.04 0.29466,-0.0853 0.57466,-0.22533 0.828,-0.40666 -0.14667,-0.11334 -0.332,-0.304 -0.17067,-0.49867 0.184,0.0227 0.36933,0.04 0.55467,0.0693 0.22933,-0.33333 0.456,-0.74933 0.364,-1.17866 -0.10667,-0.272 -0.31467,-0.50934 -0.58534,-0.592 -0.0693,0.0373 -0.13733,0.0747 -0.20666,0.112 m -12.58534,-0.92934 c -0.35066,0.056 -0.704,0.15334 -1.016,0.34 -0.36266,0.27867 -0.63866,0.73734 -0.62,1.22934 0.0173,0.476 0.26534,0.9 0.54934,1.24933 0.52666,0.616 1.22,1.10267 1.996,1.24667 0.58666,0.0973 1.21466,0.0813 1.75333,-0.21067 0.5,-0.25733 0.96267,-0.696 1.09867,-1.292 0.12666,-0.52667 0.0867,-1.16933 -0.30667,-1.55867 -0.472,-0.47066 -1.08267,-0.76933 -1.71067,-0.904 -0.572,-0.132 -1.16266,-0.188 -1.744,-0.1 m 14.636,-0.25333 c -0.33866,0.21733 -0.684,0.424 -1.032,0.624 0.16267,0.66933 0.0467,1.38533 -0.208,2.01067 0.104,-0.076 0.204,-0.15867 0.29734,-0.248 0.16533,0.18666 0.40533,0.028 0.572,-0.0747 0.768,-0.508 0.96266,-1.65067 0.68666,-2.51733 -0.104,0.0707 -0.20933,0.13866 -0.316,0.20533 m -28.238662,-0.82267 c -0.408,0.25334 -0.766666,0.65467 -0.86,1.164 -0.108,0.60667 0.114667,1.25734 0.529333,1.67867 0.264,0.27733 0.616,0.44 0.976,0.51067 l 0.0027,0.0107 c 0.217333,0.016 0.444,0.0907 0.66,0.028 0.753333,-0.0227 1.493333,-0.32533 2.094667,-0.80666 0.449333,-0.368 0.842666,-0.908 0.845333,-1.54 0.01733,-0.31334 -0.156,-0.58667 -0.341333,-0.80934 -0.401334,-0.448 -0.981334,-0.64933 -1.544,-0.72133 -0.806667,-0.0893 -1.654667,0.0467 -2.362667,0.48533 M 120.9102,275.5332 c -0.16667,0.14533 -0.33067,0.29467 -0.50667,0.42667 0.232,0.43333 0.14,0.95466 0.0733,1.42266 0.0667,-0.0853 0.132,-0.16933 0.19866,-0.25333 0.005,0.0453 0.0173,0.13467 0.024,0.18 0.11734,-0.044 0.23334,-0.116 0.28134,-0.24667 0.14133,-0.33333 0.212,-0.70133 0.204,-1.06666 0.005,-0.22667 -0.072,-0.44534 -0.0507,-0.672 -0.076,0.068 -0.15067,0.13733 -0.224,0.20933 M 97.783465,273.808 c 0.016,0.19466 0.02267,0.38933 0.02267,0.584 -0.028,0.15466 -0.102666,0.28933 -0.205333,0.39866 -0.024,-0.12533 -0.05733,-0.248 -0.1,-0.368 -0.06533,-0.184 -0.126667,-0.368 -0.190667,-0.55333 -1.3,0.18267 -2.574666,0.57867 -3.76,1.17867 -0.02,-0.028 -0.05867,-0.0827 -0.07733,-0.11067 -0.09067,0.056 -0.18,0.11067 -0.269333,0.16533 0.350666,0.008 0.7,0.064 1.041333,0.15734 0.285333,0.0893 0.564,0.20933 0.816,0.38 l 0.0093,-0.004 c 0.141334,0.11466 0.277334,0.23733 0.4,0.376 0.321334,0.40666 0.373334,0.996 0.184,1.48133 -0.346666,0.91067 -1.061333,1.652 -1.922666,1.99333 -0.341334,0.128 -0.697334,0.20534 -1.058667,0.22134 -0.406667,0.0173 -0.814667,-0.0453 -1.201333,-0.18 -0.281334,-0.10934 -0.542667,-0.26534 -0.778667,-0.46134 0.036,0.428 0.146667,0.84667 0.325333,1.23067 -0.161333,0.0827 -0.376,0.28133 -0.233333,0.48533 0.192,0.216 0.486667,0.27334 0.750667,0.328 0.7,0.92667 1.64,1.60934 2.625333,2.14534 0.809333,0.43866 1.661333,0.78666 2.541333,1.02533 -0.076,-0.25067 -0.130666,-0.508 -0.178666,-0.76667 -0.04267,-0.23066 -0.06533,-0.46666 -0.124,-0.69333 -0.196,-0.16533 -0.346667,-0.38267 -0.390667,-0.64933 -0.008,-0.18 0.01467,-0.36267 0.102667,-0.51867 -0.02,0.19733 -0.03867,0.396 0.008,0.59067 0.112,0.26666 0.349333,0.46666 0.622666,0.49866 0.158667,0.02 0.304,-0.0653 0.442667,-0.13733 0.169333,-0.104 0.344,-0.22267 0.544,-0.23733 0.222667,0.0133 0.32,0.25866 0.432,0.428 h 0.0053 c 0.221334,0.268 0.554667,0.464 0.896,0.412 0.178667,-0.024 0.325334,-0.14267 0.452,-0.27067 0.110667,-0.148 0.2,-0.312 0.268,-0.488 0.008,0 0.02667,-0.004 0.03467,-0.005 -0.008,0.38533 -0.261333,0.71333 -0.577333,0.872 -0.02933,0.16666 -0.08,0.32666 -0.126667,0.48666 -0.124,0.264 -0.254667,0.52534 -0.414667,0.76667 -0.07333,0.056 0.02667,0.068 0.06,0.0733 0.533334,0.052 1.069334,0.076 1.605325,0.0933 1.34267,0.044 2.69734,0.0227 4.02134,-0.25334 0.924,-0.19333 1.832,-0.48933 2.688,-0.908 0.67066,-0.34 1.32,-0.77733 1.79466,-1.39866 0.42534,-0.57867 0.616,-1.37067 0.428,-2.088 -0.152,-0.548 -0.392,-1.06534 -0.67066,-1.55067 0.084,0.34 0.16266,0.69333 0.11333,1.04667 -0.0173,0.22266 -0.104,0.42533 -0.176,0.63066 v 0.0427 h -0.024 c -0.22933,0.39867 -0.572,0.71333 -0.968,0.912 -1.33733,0.664 -3.05333,0.29467 -4.044,-0.876 -0.428,-0.51467 -0.82267,-1.14533 -0.81467,-1.86133 0.0107,-0.57734 0.39334,-1.06134 0.84667,-1.32934 0.76133,-0.45733 1.66533,-0.568 2.52267,-0.48533 0.376,0.0533 0.752,0.13467 1.09733,0.31067 0.11867,0.0613 0.24,0.11466 0.36533,0.15866 -0.33866,-0.41066 -0.73466,-0.76133 -1.136,-1.1 -0.10933,-0.0893 -0.22666,-0.16666 -0.34666,-0.24 -1.676,-1.03866 -3.56134,-1.67866 -5.48267,-1.912 -0.06,0.172 -0.11733,0.34267 -0.176,0.51334 -0.0573,0.16666 -0.11067,0.33466 -0.16,0.50533 -0.13467,-0.13867 -0.17867,-0.33467 -0.19733,-0.52533 0.007,-0.18134 0.0187,-0.36267 0.036,-0.54267 -0.765331,-0.0613 -1.533331,-0.0507 -2.297331,0.0227 m -2.348,-0.96534 c -0.09333,0.21334 0.24,0.13467 0.353333,0.124 0.385333,-0.0133 0.766667,-0.08 1.150667,-0.12133 -0.02667,-0.0587 -0.05467,-0.116 -0.084,-0.17333 -0.02133,-0.0653 -0.04267,-0.13067 -0.064,-0.196 -0.01067,-0.0267 -0.036,-0.0827 -0.048,-0.10934 -0.44,0.14 -0.893334,0.26134 -1.308,0.476 m 0.525333,-0.45066 c 0.230667,-0.084 0.458667,-0.17467 0.689333,-0.25867 -0.02533,-0.0613 -0.04933,-0.12267 -0.07333,-0.18267 -0.208,0.14134 -0.42,0.28 -0.616,0.44134 m 5.337335,-0.53734 c -0.0107,0.0373 -0.0307,0.11067 -0.0413,0.14667 l -0.009,-10e-4 c -0.0213,0.052 -0.0413,0.104 -0.0627,0.156 -0.0227,0.0627 -0.0453,0.12666 -0.068,0.18933 -0.0187,0.0453 -0.036,0.0907 -0.0533,0.136 -0.032,0.0867 -0.0627,0.17333 -0.0947,0.26 1.65066,0.15333 3.29733,0.55467 4.79066,1.34 1.864,0.956 3.43734,2.51067 4.54534,4.37333 0.0667,0.1 0.188,0.30267 0.30933,0.16667 0.15467,-0.35333 0.0987,-0.76267 0.0667,-1.13867 -0.0853,-0.80533 -0.58267,-1.46533 -1.09467,-2.02266 -0.79333,-0.82934 -1.73333,-1.47734 -2.72,-2.00934 -1.73333,-0.91733 -3.63733,-1.468 -5.568,-1.596 m -3.954668,0.33467 c 0.0067,0.0293 0.01867,0.088 0.02533,0.11733 l 0.012,-0.004 c 0.02667,0.0813 0.05333,0.16267 0.08,0.244 0.024,0.0787 0.048,0.15867 0.072,0.23734 0.924,-0.088 1.854667,-0.12134 2.782658,-0.08 0.0307,-0.10934 0.0627,-0.21867 0.0933,-0.32934 0.0333,-0.11066 0.068,-0.22133 0.10266,-0.332 l 0.007,10e-4 c 0.0227,-0.076 0.0467,-0.152 0.0693,-0.228 -1.090658,0 -2.179991,0.116 -3.243991,0.37333 m -0.24,-0.60533 c 0.02133,0.0533 0.044,0.108 0.06533,0.16266 0.02533,0.0653 0.05067,0.13067 0.076,0.19734 1.136,-0.33734 2.312,-0.52267 3.490661,-0.544 0.0507,-0.132 0.10134,-0.26534 0.152,-0.39867 0.072,-0.18 0.14534,-0.36 0.21734,-0.54 0.11866,-0.284 0.24933,-0.56267 0.36666,-0.848 0.12134,-0.21467 0.208,-0.452 0.32534,-0.66933 -1.63334,0.728 -3.198668,1.62666 -4.693334,2.64 m 13.686664,-3.056 c -1.25867,0.28133 -2.49467,0.712 -3.636,1.35333 -0.552,0.324 -1.10533,0.68667 -1.51333,1.21067 -0.16667,0.21733 -0.308,0.49733 -0.248,0.78666 0.0653,0.26934 0.29466,0.44667 0.52666,0.54534 1.096,0.46266 2.13734,1.07733 3.076,1.84133 0.70534,0.58 1.36534,1.24267 1.86267,2.03733 0.27467,0.45334 0.53067,0.96534 0.51333,1.52134 10e-4,0.22533 -0.11466,0.41733 -0.2,0.61333 0.4,-0.076 0.78,-0.24 1.16134,-0.38667 1.43466,-0.576 2.84266,-1.22133 4.23733,-1.896 0.97733,-0.48266 1.95467,-0.968 2.88133,-1.55466 0.224,-0.13734 0.44534,-0.30667 0.57334,-0.55467 0.212,-0.37733 0.21066,-0.84267 0.13066,-1.26267 -0.18133,-0.832 -0.65466,-1.55333 -1.18533,-2.17333 -0.65067,-0.74533 -1.424,-1.36 -2.256,-1.84933 -0.51733,-0.22267 -1.06933,-0.34134 -1.61733,-0.432 -1.432,-0.22 -2.89334,-0.10667 -4.30667,0.2 m -7.668,-0.132 c -0.11867,0.0493 -0.24933,0.076 -0.35467,0.15466 -0.0987,0.16534 -0.176,0.34534 -0.26,0.52 -0.22933,0.46134 -0.43466,0.93467 -0.64266,1.408 -0.0667,0.156 -0.132,0.31067 -0.19467,0.468 h -0.009 c -0.0587,0.156 -0.12,0.31067 -0.18267,0.46534 0.4,0.0227 0.80133,0.064 1.19867,-0.003 0.304,-0.0453 0.59733,-0.15333 0.87866,-0.27733 2.088,-0.95067 4.18,-1.90267 6.35067,-2.61734 1.35067,-0.44533 2.736,-0.79466 4.148,-0.91066 -0.12933,-0.04 -0.26,-0.0907 -0.39467,-0.10934 -0.62133,-0.17733 -1.25733,-0.28666 -1.896,-0.36266 -2.92266,-0.328 -5.884,0.21733 -8.64133,1.264 M 86.167465,265.16 c -0.269333,0.15333 -0.48,0.42133 -0.570667,0.73466 -0.07067,0.208 -0.084,0.43734 -0.044,0.656 0.02267,0.1 0.05067,0.2 0.096,0.29067 0.213334,0.56533 0.845334,0.87467 1.389334,0.74 0.494666,-0.1 0.908,-0.55733 0.970666,-1.09333 0.05867,-0.416 -0.08667,-0.856 -0.378666,-1.13867 -0.382667,-0.38933 -1.002667,-0.464 -1.462667,-0.18933 m 25.173335,-1.29334 c -0.25467,0.69067 -0.10934,1.568 0.43866,2.04934 0.29467,0.26533 0.708,0.37733 1.08134,0.27333 0.45866,-0.12133 0.828,-0.524 0.97866,-0.99733 0.0413,-0.112 0.0707,-0.22934 0.0853,-0.348 0.048,-0.27467 0.0387,-0.56267 -0.0427,-0.828 -0.12533,-0.62934 -0.672,-1.16667 -1.28933,-1.15067 -0.56534,-0.004 -1.05867,0.452 -1.252,1.00133 m -5.28934,0.0267 c -1.25733,1.15733 -2.216,2.63733 -3.03466,4.16933 2.85866,-1.04666 5.90133,-1.58133 8.924,-1.37066 -0.568,-0.26134 -1.04667,-0.75867 -1.26267,-1.384 -0.15867,-0.45467 -0.14267,-0.984 0.0773,-1.412 0.244,-0.484 0.67467,-0.828 1.13067,-1.06 0.0333,-0.0107 0.132,-0.0747 0.044,-0.0947 -0.77067,-0.33333 -1.604,-0.516 -2.436,-0.46267 -1.284,0.072 -2.48,0.73067 -3.44267,1.61467 m 4.19867,-2.56 h 0.88 c 0.856,0.068 1.776,0.25467 2.424,0.90533 0.492,0.48 0.684,1.224 0.64267,1.91867 -0.0427,0.724 -0.168,1.48533 -0.584,2.07867 -0.184,0.26933 -0.46134,0.44133 -0.752,0.548 1.83866,0.21866 3.66,0.73066 5.31466,1.62933 0.89334,0.488 1.73867,1.09733 2.44134,1.86667 0.59066,0.65866 1.09066,1.44933 1.264,2.35466 0.104,0.51467 0.0733,1.05334 -0.0773,1.55467 0.30667,0.80267 0.24,1.71467 -0.008,2.52533 -0.22,0.72667 -0.64133,1.40134 -1.24533,1.82134 -0.172,0.124 -0.384,0.11333 -0.58,0.0893 -0.284,0.456 -0.62933,0.86933 -1.02533,1.21733 0.81866,0.268 1.60933,0.664 2.28933,1.228 0.528,0.43867 0.98533,1 1.22933,1.67334 0.11467,0.30933 0.16934,0.63866 0.20267,0.968 v 0.39333 c -0.0253,0.192 -0.0587,0.39733 -0.17733,0.552 -0.136,0.17867 -0.416,0.22 -0.57734,0.06 -0.0773,-0.0827 -0.0507,-0.21067 -0.0547,-0.316 0.0413,-0.404 -0.12934,-0.77867 -0.23734,-1.15333 -0.23066,-0.73734 -0.64266,-1.42267 -1.24533,-1.868 -0.58133,-0.48 -1.316,-0.632 -1.98533,-0.91467 -0.26,-0.13067 -0.55867,-0.096 -0.82134,-0.21467 -0.22266,0.272 -0.47466,0.51334 -0.75066,0.72267 0.90266,0.33733 1.78,0.80133 2.496,1.48933 0.62133,0.588 1.10266,1.384 1.21466,2.276 0.0453,0.412 0.092,0.86934 -0.10533,1.24667 -0.132,0.25733 -0.54133,0.336 -0.7,0.0733 -0.0733,-0.23466 0.0253,-0.49066 -0.044,-0.728 -0.18,-0.66 -0.376,-1.33066 -0.74533,-1.9 -0.34134,-0.536 -0.82934,-0.94933 -1.364,-1.24533 -0.40267,-0.19867 -0.82934,-0.33333 -1.24667,-0.49333 -0.23733,-0.084 -0.472,-0.21867 -0.73067,-0.18534 -0.16266,0.016 -0.31333,-0.052 -0.45733,-0.12133 -0.252,0.244 -0.53867,0.44267 -0.832,0.628 0.17867,0.104 0.37733,0.15867 0.56267,0.244 0.83466,0.37333 1.63733,0.85867 2.30266,1.52133 0.61867,0.608 1.112,1.396 1.27867,2.28934 0.088,0.492 0.148,1.016 -0.005,1.5 -0.0627,0.21333 -0.22667,0.38 -0.43067,0.432 h -0.17867 c -0.11333,-0.0387 -0.24933,-0.088 -0.28,-0.22667 -0.0547,-0.25733 0.044,-0.528 -0.032,-0.78267 -0.22266,-0.81866 -0.46933,-1.656 -0.96266,-2.34 -0.4,-0.55866 -0.94267,-0.992 -1.53067,-1.30133 -0.816,-0.36133 -1.67467,-0.608 -2.48533,-0.984 -0.70534,0.47067 -1.56134,0.52667 -2.37067,0.51867 -0.21333,0.007 -0.424,-0.0413 -0.624,-0.12 -0.56667,0.72 -1.31867,1.25066 -2.10933,1.64933 -0.74534,0.364 -1.52667,0.63733 -2.32134,0.84533 -1.252,0.31867 -2.54133,0.41334 -3.824,0.41867 -1.310662,-0.0307 -2.627995,-0.06 -3.921329,-0.30933 -1.556,-0.28267 -3.045333,-0.91334 -4.405333,-1.76534 -0.108,0.38134 -0.188,0.772 -0.264,1.16267 -0.05333,0.26267 0.01733,0.53333 -0.028,0.79733 -0.03467,0.216 -0.305333,0.292 -0.452,0.15334 -0.198667,-0.184 -0.226667,-0.488 -0.254667,-0.74934 -0.03733,-0.648 0.052,-1.3 0.229334,-1.91866 -0.381334,-0.30934 -0.745334,-0.64667 -1.064,-1.03067 -0.333334,0.348 -0.604,0.76533 -0.793333,1.22267 -0.264,0.62933 -0.406667,1.30666 -0.541334,1.97866 -0.056,0.276 0.016,0.56 -0.03467,0.836 -0.04667,0.228 -0.353334,0.268 -0.485334,0.10267 -0.18,-0.21867 -0.205333,-0.53067 -0.224,-0.808 -0.02133,-0.84667 0.128,-1.70667 0.488,-2.46533 0.268,-0.576 0.648,-1.088 1.086667,-1.52534 -0.556,-0.78533 -0.849333,-1.77733 -0.793333,-2.76266 0.012,-0.31867 0.07733,-0.632 0.136,-0.94267 0.172,-0.42933 0.274666,-0.888 0.485333,-1.29867 0.189333,-0.252 0.325333,-0.57333 0.597333,-0.73733 0.310667,-0.10533 0.496,-0.42 0.753333,-0.61867 0.310667,-0.23466 0.614667,-0.48 0.945334,-0.68133 0.204,-0.12933 0.424,-0.232 0.609333,-0.392 0.977333,-0.844 1.993333,-1.63867 3.048,-2.368 -0.442667,-1.01067 -0.933333,-2.00133 -1.516,-2.928 -0.626667,-0.99733 -1.357333,-1.93867 -2.254667,-2.672 -0.812,-0.672 -1.778666,-1.14933 -2.802666,-1.27733 -0.822667,-0.11067 -1.662667,0.008 -2.450667,0.26933 0.413334,0.20267 0.834667,0.46667 1.073334,0.89733 0.212,0.37467 0.181333,0.868 -0.03333,1.23334 -0.306666,0.536 -0.86,0.88933 -1.437333,0.972 -0.424,0.064 -0.884,-0.0813 -1.172,-0.42934 -0.32,-0.37866 -0.432,-0.89733 -0.482667,-1.392 v -0.576 c 0.06667,-0.464 0.288,-0.908 0.650667,-1.18 0.632,-0.484 1.437333,-0.58133 2.192,-0.608 0.930667,-0.003 1.866667,0.128 2.757333,0.41867 1.246667,0.436 2.282667,1.35733 3.170667,2.364 1.162666,1.34133 2.092,2.89867 2.834666,4.544 1.622667,-1.07867 3.327999,-2.016 5.110669,-2.74933 1.01866,-1.92267 2.21466,-3.77734 3.78133,-5.23734 0.648,-0.59333 1.36933,-1.11866 2.176,-1.42933 0.72267,-0.268 1.484,-0.38267 2.244,-0.444"
     inkscape:connector-curvature="0" /><path
     id="path214"
     style="fill:#74b743;fill-opacity:1;fill-rule:nonzero;stroke:none;stroke-width:1.33333325"
     d="m 121.13466,275.32333 c -0.076,0.0693 -0.15067,0.13867 -0.22533,0.20933 -0.16534,0.14667 -0.32934,0.29467 -0.50534,0.428 0.23067,0.43334 0.14,0.95334 0.0733,1.42134 0.0667,-0.084 0.132,-0.16934 0.19866,-0.25334 0.005,0.0453 0.0173,0.136 0.0227,0.18134 0.11733,-0.044 0.23467,-0.11734 0.28267,-0.24667 0.14133,-0.33333 0.21066,-0.70267 0.204,-1.068 0.005,-0.22667 -0.072,-0.44533 -0.0507,-0.672"
     inkscape:connector-curvature="0" /><path
     id="path218"
     style="fill:#74b743;fill-opacity:1;fill-rule:nonzero;stroke:none;stroke-width:1.33333325"
     d="m 119.3552,276.7132 c -0.33867,0.21733 -0.68267,0.424 -1.03067,0.624 0.16134,0.66933 0.0453,1.38533 -0.20933,2.01067 0.104,-0.076 0.204,-0.15867 0.29733,-0.248 0.16534,0.18666 0.40534,0.028 0.572,-0.0747 0.768,-0.508 0.964,-1.65067 0.68667,-2.51733 -0.104,0.0707 -0.20933,0.13866 -0.316,0.20533"
     inkscape:connector-curvature="0" /><path
     id="path222"
     style="fill:#74b743;fill-opacity:1;fill-rule:nonzero;stroke:none;stroke-width:1.33333325"
     d="m 117.73226,279.55466 c 0.22933,-0.33333 0.456,-0.74933 0.364,-1.17867 -0.10667,-0.272 -0.31467,-0.50933 -0.584,-0.592 -0.0707,0.0373 -0.13867,0.0747 -0.208,0.112 -0.39867,0.19334 -0.79467,0.39067 -1.19333,0.58134 0.156,0.69066 0.0227,1.42266 -0.308,2.03066 0.0827,-0.056 0.20133,-0.076 0.26666,-0.15733 0.13467,0.0947 0.30134,0.0827 0.452,0.04 0.29334,-0.0853 0.57334,-0.22533 0.82667,-0.40667 -0.14533,-0.11333 -0.332,-0.304 -0.17067,-0.49866 0.18534,0.0227 0.37067,0.04 0.55467,0.0693"
     inkscape:connector-curvature="0" /><path
     id="path226"
     style="fill:#74b743;fill-opacity:1;fill-rule:nonzero;stroke:none;stroke-width:1.33333325"
     d="m 115.47933,278.8736 c -0.14667,-0.0853 -0.3,0.024 -0.43733,0.0773 l -0.0107,0.02 c -0.408,0.13334 -0.79733,0.31867 -1.20133,0.464 0.0933,0.63334 -0.0267,1.3 -0.31334,1.86134 0.02,0 0.0613,0 0.0827,0 0.0293,-0.001 0.0853,-0.003 0.11467,-0.004 0.007,0.11466 0.13466,0.144 0.22133,0.13733 0.34667,-0.0293 0.672,-0.18133 0.97333,-0.36 -0.0973,-0.0867 -0.21466,-0.16133 -0.27733,-0.284 -0.0427,-0.0853 0.012,-0.176 0.032,-0.25867 0.248,0.008 0.49333,0.0347 0.73867,0.0787 0.252,-0.32 0.44133,-0.74533 0.36533,-1.17333 -0.0413,-0.208 -0.108,-0.44134 -0.288,-0.55867"
     inkscape:connector-curvature="0" /><path
     id="path230"
     style="fill:#74b743;fill-opacity:1;fill-rule:nonzero;stroke:none;stroke-width:1.33333325"
     d="m 113.164,279.7488 c -0.2,-0.0307 -0.40133,0.0493 -0.58133,0.132 -0.77867,0.184 -1.57067,0.45867 -2.37734,0.32133 0.0707,0.572 -0.0107,1.156 -0.204,1.692 0.028,0.012 0.0827,0.036 0.10934,0.048 l 0.0627,0.0373 c 0.0653,0.20133 0.27334,0.276 0.45467,0.296 0.46267,0.0493 0.92667,-0.06 1.368,-0.208 -0.10667,-0.10534 -0.248,-0.20667 -0.26933,-0.37334 0.0147,-0.072 0.048,-0.136 0.0773,-0.20133 0.31867,0.0133 0.63467,0.0693 0.952,0.10933 0.432,-0.34666 0.704,-0.93733 0.664,-1.51866 -0.005,-0.156 -0.104,-0.31334 -0.256,-0.33467"
     inkscape:connector-curvature="0" /><path
     id="path234"
     style="fill:#ffffff;fill-opacity:1;fill-rule:nonzero;stroke:none;stroke-width:1.33333325"
     d="m 91.667598,275.92146 c 0.678667,-0.34 1.488,-0.28 2.162667,0.0413 0.428,0.20267 0.836,0.532 1.001333,1.01734 -0.284,-0.208 -0.552,-0.444 -0.862667,-0.61067 -0.6,-0.34533 -1.324,-0.492 -1.984,-0.25733 0.317334,0.0173 0.637334,0.192 0.746667,0.528 0.032,0.136 0.048,0.276 0.05333,0.416 -0.06533,0.30666 -0.274666,0.55866 -0.553333,0.66 -0.216,0.0213 -0.450667,0.012 -0.629333,-0.13467 -0.184,-0.128 -0.277334,-0.356 -0.32,-0.58 -0.0013,-0.23067 0.08267,-0.444 0.190666,-0.63733 -0.365333,0.248 -0.653333,0.59866 -0.902666,0.97333 0.173333,-0.6 0.558666,-1.14667 1.097333,-1.416"
     inkscape:connector-curvature="0" /><path
     id="path238"
     style="fill:#ffffff;fill-opacity:1;fill-rule:nonzero;stroke:none;stroke-width:1.33333325"
     d="m 105.05133,277.16786 c 0.81067,-0.16533 1.65867,0.10133 2.33067,0.592 0.408,0.304 0.79066,0.72667 0.87333,1.27333 -0.496,-0.60666 -1.08,-1.16533 -1.8,-1.43733 -0.34,-0.13067 -0.70133,-0.18133 -1.06133,-0.16933 0.23866,0.20266 0.38266,0.552 0.25333,0.868 -0.024,0.0573 -0.0507,0.11466 -0.0787,0.16933 -0.16133,0.216 -0.42533,0.28133 -0.672,0.252 -0.14133,-0.0307 -0.25733,-0.13333 -0.35733,-0.23733 -0.18267,-0.23467 -0.15867,-0.56267 -0.0587,-0.82934 -0.32533,0.15467 -0.61066,0.38 -0.884,0.61867 0.308,-0.56667 0.852,-0.98133 1.45467,-1.1"
     inkscape:connector-curvature="0" /><path
     id="path242"
     style="fill:#eac500;fill-opacity:1;fill-rule:nonzero;stroke:none;stroke-width:1.33333325"
     d="m 111.77906,265.9164 c 0.29467,0.26533 0.708,0.37733 1.08267,0.27333 0.45733,-0.12133 0.82666,-0.52533 0.97733,-0.99733 0.0413,-0.112 0.072,-0.22933 0.0867,-0.34933 0.0467,-0.27334 0.0373,-0.56134 -0.044,-0.82667 -0.12534,-0.63067 -0.67067,-1.16667 -1.288,-1.15067 -0.56667,-0.004 -1.06,0.452 -1.252,1.00134 -0.256,0.69066 -0.11067,1.56666 0.43733,2.04933"
     inkscape:connector-curvature="0" /><path
     id="path246"
     style="fill:#eac500;fill-opacity:1;fill-rule:nonzero;stroke:none;stroke-width:1.33333325"
     d="m 87.630664,265.35 c -0.382667,-0.39067 -1.002667,-0.464 -1.462667,-0.19067 -0.269333,0.15467 -0.48,0.42134 -0.570666,0.73467 -0.072,0.20933 -0.08533,0.43867 -0.044,0.656 0.02267,0.10133 0.04933,0.20133 0.096,0.292 0.213333,0.564 0.844,0.87333 1.389333,0.73867 0.494667,-0.0987 0.906667,-0.556 0.969333,-1.09334 0.06,-0.416 -0.08533,-0.856 -0.377333,-1.13733"
     inkscape:connector-curvature="0" /><path
     id="path250"
     style="fill:#eac500;fill-opacity:1;fill-rule:nonzero;stroke:none;stroke-width:1.33333325"
     d="m 101.66133,270.94667 c -0.0587,0.156 -0.12,0.31067 -0.18267,0.46533 0.39867,0.0227 0.80134,0.064 1.19867,-0.003 0.304,-0.0453 0.596,-0.15334 0.87867,-0.27734 2.08666,-0.95066 4.18,-1.90266 6.34933,-2.61733 1.35067,-0.44533 2.73733,-0.79467 4.14933,-0.91067 -0.13066,-0.04 -0.26,-0.0907 -0.39466,-0.10933 -0.62134,-0.17733 -1.25867,-0.28667 -1.896,-0.36267 -2.924,-0.328 -5.88534,0.21734 -8.64134,1.264 -0.11866,0.0493 -0.24933,0.076 -0.35466,0.15467 -0.0987,0.16533 -0.176,0.34533 -0.26,0.52 -0.23067,0.46133 -0.436,0.93467 -0.64267,1.408 -0.0667,0.156 -0.13333,0.31067 -0.196,0.468 z"
     inkscape:connector-curvature="0" /><path
     id="path254"
     style="fill:#eac500;fill-opacity:1;fill-rule:nonzero;stroke:none;stroke-width:1.33333325"
     d="m 120.15506,272.7828 c -0.18133,-0.832 -0.65333,-1.55333 -1.18533,-2.17333 -0.64934,-0.74534 -1.424,-1.36 -2.256,-1.84934 -0.51734,-0.22266 -1.068,-0.34133 -1.61734,-0.432 -1.432,-0.22133 -2.89333,-0.10666 -4.30666,0.2 -1.25867,0.28134 -2.49467,0.712 -3.63467,1.35334 -0.55333,0.324 -1.10667,0.68666 -1.51467,1.21066 -0.16666,0.21734 -0.308,0.49734 -0.248,0.78667 0.0653,0.26933 0.296,0.44667 0.52667,0.54533 1.096,0.46267 2.13867,1.07734 3.07733,1.84134 0.704,0.58 1.36534,1.24266 1.86134,2.03733 0.27466,0.45333 0.53066,0.96533 0.51333,1.52 0.001,0.22533 -0.11467,0.41867 -0.2,0.61467 0.40133,-0.076 0.78,-0.24 1.16267,-0.38667 1.43333,-0.576 2.84266,-1.22133 4.23733,-1.896 0.976,-0.48267 1.95333,-0.968 2.88,-1.55467 0.22533,-0.13733 0.44533,-0.30666 0.57333,-0.55466 0.212,-0.37734 0.21067,-0.84267 0.13067,-1.26267"
     inkscape:connector-curvature="0" /><path
     id="path258"
     style="fill:#eac500;fill-opacity:1;fill-rule:nonzero;stroke:none;stroke-width:1.33333325"
     d="m 97.244398,271.9436 c 1.136,-0.336 2.312,-0.52267 3.490662,-0.54267 0.052,-0.13333 0.10267,-0.26666 0.15334,-0.4 0.0707,-0.18 0.144,-0.36 0.216,-0.54 0.11866,-0.284 0.25066,-0.56266 0.36666,-0.848 0.12134,-0.21466 0.20934,-0.45066 0.32534,-0.66933 -1.63334,0.728 -3.198669,1.62667 -4.693335,2.64 0.02133,0.0547 0.044,0.108 0.06533,0.16267 0.02533,0.0653 0.05067,0.132 0.076,0.19733"
     inkscape:connector-curvature="0" /><path
     id="path262"
     style="fill:#eac500;fill-opacity:1;fill-rule:nonzero;stroke:none;stroke-width:1.33333325"
     d="m 97.380664,272.3032 c 0.02667,0.0813 0.05333,0.16133 0.08,0.24267 0.024,0.0787 0.048,0.15866 0.072,0.23866 0.924,-0.088 1.854667,-0.12266 2.782666,-0.08 0.032,-0.11066 0.0627,-0.22 0.0933,-0.32933 0.0333,-0.11067 0.068,-0.22133 0.10267,-0.332 h 0.007 c 0.0227,-0.076 0.0467,-0.152 0.0693,-0.228 -1.090666,0 -2.179999,0.11733 -3.243999,0.37467 0.0067,0.0293 0.01867,0.0867 0.02533,0.116 z"
     inkscape:connector-curvature="0" /><path
     id="path266"
     style="fill:#eac500;fill-opacity:1;fill-rule:nonzero;stroke:none;stroke-width:1.33333325"
     d="m 109.5856,275.45946 c -0.792,-0.82933 -1.73333,-1.476 -2.71867,-2.00933 -1.73333,-0.91734 -3.63866,-1.468 -5.56933,-1.59467 -0.0107,0.036 -0.0307,0.10933 -0.0413,0.14667 l -0.009,-0.001 c -0.0213,0.0507 -0.0413,0.10267 -0.0627,0.15467 -0.0227,0.0627 -0.0453,0.12667 -0.068,0.18933 -0.0173,0.0453 -0.0347,0.0907 -0.0533,0.13734 -0.0307,0.0867 -0.0627,0.17333 -0.0933,0.25866 1.65067,0.15334 3.296,0.556 4.78933,1.34 1.86534,0.956 3.43734,2.51067 4.54667,4.37334 0.0653,0.1 0.188,0.30266 0.308,0.16666 0.15467,-0.352 0.1,-0.76266 0.068,-1.13733 -0.0853,-0.80667 -0.584,-1.46533 -1.096,-2.024"
     inkscape:connector-curvature="0" /><path
     id="path270"
     style="fill:#eac500;fill-opacity:1;fill-rule:nonzero;stroke:none;stroke-width:1.33333325"
     d="m 96.576131,271.95013 c -0.208,0.14267 -0.418667,0.28133 -0.616,0.44267 0.230667,-0.0853 0.46,-0.176 0.689333,-0.26 -0.024,-0.0613 -0.04933,-0.12267 -0.07333,-0.18267"
     inkscape:connector-curvature="0" /><path
     id="path274"
     style="fill:#eac500;fill-opacity:1;fill-rule:nonzero;stroke:none;stroke-width:1.33333325"
     d="m 91.052131,275.6172 c 0.312,-0.10533 0.497333,-0.42 0.753333,-0.61733 -0.268,0.18133 -0.508,0.40266 -0.753333,0.61733"
     inkscape:connector-curvature="0" /><path
     id="path278"
     style="fill:#eac500;fill-opacity:1;fill-rule:nonzero;stroke:none;stroke-width:1.33333325"
     d="m 90.455731,276.35413 c -0.26,0.38 -0.442667,0.828 -0.485333,1.29867 0.172,-0.42934 0.274666,-0.88667 0.485333,-1.29867"
     inkscape:connector-curvature="0" /><path
     id="path282"
     style="fill:#eac500;fill-opacity:1;fill-rule:nonzero;stroke:none;stroke-width:1.33333325"
     d="m 106.27973,283.01626 c -0.67867,-0.0293 -1.348,-0.20133 -1.98533,-0.452 -0.34534,-0.14267 -0.69334,-0.30133 -0.98267,-0.55333 -0.0973,-0.0933 -0.22,-0.21867 -0.184,-0.37334 0.088,-0.156 0.27333,-0.18133 0.42667,-0.2 0.52533,-0.04 1.04933,0.0667 1.556,0.204 0.53333,0.15467 1.06666,0.34934 1.53466,0.67067 0.156,0.0987 0.272,0.24933 0.37067,0.408 -0.11867,0.316 -0.476,0.27867 -0.736,0.296 m 2.34533,-4.47867 c 0.084,0.34 0.16267,0.69334 0.11334,1.04667 -0.0173,0.22267 -0.104,0.42533 -0.17734,0.62933 l 0.001,0.0427 -0.024,0.001 c -0.22934,0.39867 -0.572,0.71334 -0.968,0.912 -1.33734,0.66267 -3.05334,0.29334 -4.04534,-0.87733 -0.42666,-0.51467 -0.82266,-1.14533 -0.81333,-1.86 0.0107,-0.57733 0.39333,-1.06133 0.84667,-1.33067 0.76133,-0.456 1.66533,-0.56666 2.52266,-0.48533 0.37467,0.0547 0.752,0.136 1.096,0.312 0.12,0.0613 0.24134,0.11467 0.36667,0.15867 -0.33867,-0.412 -0.73467,-0.76134 -1.136,-1.1 -0.10933,-0.0893 -0.228,-0.16667 -0.34667,-0.24 -1.67733,-1.03867 -3.56133,-1.68 -5.484,-1.912 -0.0587,0.17066 -0.11733,0.34266 -0.176,0.51333 -0.056,0.16667 -0.10933,0.33467 -0.15866,0.50533 -0.13467,-0.13866 -0.17867,-0.33466 -0.19867,-0.52666 0.008,-0.18134 0.02,-0.36134 0.0373,-0.54134 -0.76533,-0.0613 -1.53333,-0.0507 -2.29733,0.0227 0.016,0.19333 0.02133,0.388 0.02133,0.584 -0.02667,0.15467 -0.101334,0.28933 -0.205334,0.39867 -0.02267,-0.12534 -0.056,-0.24934 -0.09867,-0.368 -0.06667,-0.184 -0.128,-0.36934 -0.190667,-0.55334 -1.3,0.18267 -2.574667,0.57734 -3.76,1.17734 -0.02,-0.0267 -0.05867,-0.0813 -0.07867,-0.10934 -0.08933,0.056 -0.178666,0.11067 -0.269333,0.16534 0.352,0.008 0.701333,0.0627 1.041333,0.15733 0.286667,0.0893 0.565334,0.208 0.817334,0.38 l 0.008,-0.004 c 0.142666,0.11467 0.278666,0.23733 0.401333,0.37467 0.321333,0.408 0.373333,0.99733 0.182667,1.48133 -0.345334,0.91067 -1.061334,1.65333 -1.922667,1.99467 -0.34,0.128 -0.697333,0.204 -1.057333,0.22133 -0.408,0.0173 -0.816,-0.0453 -1.202667,-0.18 -0.28,-0.10933 -0.541333,-0.26533 -0.777333,-0.46133 0.036,0.428 0.146666,0.84666 0.325333,1.23066 0.209333,-0.10933 0.436,-0.17333 0.664,-0.22133 0.381333,-0.0733 0.772,-0.0853 1.16,-0.0627 0.297333,0.0293 0.602667,0.0747 0.873333,0.21867 0.104,0.0587 0.224,0.15067 0.226667,0.29067 -0.01467,0.18133 -0.182667,0.276 -0.313333,0.35866 -0.352,0.164 -0.736,0.228 -1.116,0.26934 -0.326667,0.009 -0.654667,0.0107 -0.978667,-0.04 0.701333,0.92666 1.641333,1.60933 2.626667,2.144 0.809333,0.44 1.661333,0.788 2.54,1.02666 -0.07467,-0.25066 -0.129334,-0.508 -0.177334,-0.76666 -0.04267,-0.23067 -0.06533,-0.46667 -0.125333,-0.69334 -0.194667,-0.16533 -0.345333,-0.38266 -0.390667,-0.65066 -0.0067,-0.17867 0.016,-0.36134 0.104,-0.51734 -0.02,0.196 -0.04,0.396 0.008,0.59067 0.110667,0.26667 0.349334,0.46667 0.621334,0.49867 0.16,0.02 0.305333,-0.0653 0.444,-0.13867 0.169333,-0.10267 0.342666,-0.22267 0.544,-0.236 0.221333,0.0133 0.32,0.25733 0.432,0.42667 l 0.0053,0.001 c 0.221333,0.268 0.554667,0.464 0.896,0.412 0.178667,-0.024 0.325333,-0.14267 0.452,-0.272 0.110666,-0.148 0.2,-0.312 0.268,-0.48667 0.008,-10e-4 0.02533,-0.004 0.03467,-0.005 -0.008,0.38533 -0.261333,0.712 -0.577333,0.872 -0.03067,0.16533 -0.08133,0.32533 -0.126666,0.48667 -0.124,0.264 -0.254667,0.524 -0.416,0.76533 -0.072,0.0573 0.02667,0.0693 0.06133,0.0733 0.533333,0.0533 1.069333,0.0773 1.605336,0.0947 1.34267,0.0427 2.69733,0.0213 4.02133,-0.25333 0.924,-0.19334 1.83067,-0.48934 2.688,-0.908 0.67067,-0.34134 1.32,-0.77734 1.79334,-1.4 0.42533,-0.57734 0.616,-1.36934 0.42933,-2.088 -0.15333,-0.54667 -0.392,-1.064 -0.67067,-1.54934"
     inkscape:connector-curvature="0" /><path
     id="path286"
     style="fill:#eac500;fill-opacity:1;fill-rule:nonzero;stroke:none;stroke-width:1.33333325"
     d="m 95.788798,272.96707 c 0.385333,-0.0147 0.766667,-0.0813 1.150667,-0.12133 -0.02667,-0.06 -0.05467,-0.11734 -0.084,-0.17334 -0.02133,-0.0667 -0.04267,-0.132 -0.064,-0.196 -0.01067,-0.028 -0.036,-0.0827 -0.048,-0.10933 -0.44,0.13867 -0.893334,0.26133 -1.308,0.476 -0.09333,0.21333 0.24,0.13333 0.353333,0.124"
     inkscape:connector-curvature="0" /><path
     id="path290"
     style="fill:#74b743;fill-opacity:1;fill-rule:nonzero;stroke:none;stroke-width:1.33333325"
     d="m 93.969598,276.36906 c -0.6,-0.34533 -1.325333,-0.492 -1.984,-0.25733 0.316,0.0173 0.637333,0.192 0.746667,0.52933 0.032,0.13467 0.04667,0.27467 0.052,0.41467 -0.064,0.308 -0.274667,0.55866 -0.553334,0.66 -0.214666,0.0227 -0.449333,0.0133 -0.628,-0.13334 -0.185333,-0.12933 -0.278666,-0.35733 -0.32,-0.58133 -0.0013,-0.22933 0.08267,-0.444 0.190667,-0.63733 -0.366667,0.24933 -0.653333,0.59866 -0.902667,0.97466 0.173334,-0.60133 0.558667,-1.14666 1.097334,-1.41733 0.678666,-0.33867 1.488,-0.28 2.162666,0.0413 0.426667,0.204 0.836,0.53334 1.001334,1.01867 -0.285334,-0.20933 -0.553334,-0.44533 -0.862667,-0.612 m -0.490667,-0.96267 c -0.805333,-0.0907 -1.653333,0.0453 -2.362666,0.484 -0.406667,0.25334 -0.766667,0.65467 -0.86,1.164 -0.108,0.60667 0.116,1.25867 0.530666,1.67867 0.264,0.27733 0.614667,0.44 0.974667,0.51067 l 0.0027,0.0107 c 0.218666,0.016 0.445333,0.0907 0.661333,0.028 0.753333,-0.0227 1.492,-0.32533 2.093333,-0.80666 0.450667,-0.368 0.842667,-0.908 0.846667,-1.54 0.01733,-0.31334 -0.157333,-0.58667 -0.342667,-0.808 -0.4,-0.448 -0.981333,-0.65067 -1.544,-0.72134"
     inkscape:connector-curvature="0" /><path
     id="path294"
     style="fill:#74b743;fill-opacity:1;fill-rule:nonzero;stroke:none;stroke-width:1.33333325"
     d="m 106.4548,277.59613 c -0.33867,-0.13067 -0.70133,-0.18267 -1.06,-0.16933 0.23733,0.20133 0.38267,0.552 0.252,0.868 -0.024,0.0573 -0.0493,0.11466 -0.0773,0.16933 -0.16134,0.216 -0.42534,0.28133 -0.67334,0.25067 -0.14133,-0.0293 -0.256,-0.132 -0.35733,-0.236 -0.18267,-0.23467 -0.15867,-0.56267 -0.0587,-0.83067 -0.324,0.156 -0.60933,0.38 -0.88266,0.62 0.308,-0.568 0.85066,-0.98133 1.45333,-1.1 0.81067,-0.16533 1.65867,0.10133 2.33067,0.592 0.408,0.304 0.79066,0.72667 0.87333,1.27333 -0.496,-0.60666 -1.08,-1.16533 -1.8,-1.43733 m 1.71867,0.37333 c -0.472,-0.47066 -1.08134,-0.768 -1.71067,-0.904 -0.57067,-0.13066 -1.16267,-0.18666 -1.744,-0.0987 -0.35067,0.056 -0.704,0.15333 -1.016,0.34 -0.36267,0.27866 -0.63733,0.73733 -0.62,1.22933 0.0187,0.476 0.26667,0.9 0.55067,1.248 0.52533,0.61733 1.21866,1.104 1.996,1.248 0.58533,0.0973 1.21466,0.0813 1.75333,-0.21067 0.49867,-0.25733 0.96133,-0.696 1.09733,-1.292 0.12667,-0.52666 0.0867,-1.16933 -0.30666,-1.56"
     inkscape:connector-curvature="0" /><path
     id="path298"
     style="fill:#ed4792;fill-opacity:1;fill-rule:nonzero;stroke:none;stroke-width:1.33333325"
     d="m 91.682131,280.07693 c 0.382667,-0.0733 0.772,-0.0867 1.16,-0.064 0.297333,0.0293 0.602667,0.0747 0.873333,0.22 0.105334,0.0587 0.224,0.14933 0.226667,0.28933 -0.01333,0.18267 -0.182667,0.27734 -0.313333,0.36 -0.352,0.164 -0.734667,0.22667 -1.114667,0.26934 -0.328,0.008 -0.656,0.0107 -0.978667,-0.0413 -0.264,-0.0547 -0.558666,-0.11066 -0.750666,-0.328 -0.142667,-0.204 0.072,-0.40266 0.233333,-0.484 0.209333,-0.11066 0.436,-0.17466 0.664,-0.22133"
     inkscape:connector-curvature="0" /><path
     id="path302"
     style="fill:#ed4792;fill-opacity:1;fill-rule:nonzero;stroke:none;stroke-width:1.33333325"
     d="m 103.12786,281.6376 c 0.0867,-0.156 0.27333,-0.18133 0.42667,-0.2 0.52533,-0.04 1.048,0.0667 1.556,0.204 0.53333,0.15467 1.06666,0.34933 1.53466,0.67067 0.156,0.0987 0.272,0.24933 0.37067,0.408 -0.11867,0.316 -0.476,0.27866 -0.736,0.296 -0.67867,-0.0293 -1.348,-0.20134 -1.98533,-0.452 -0.34534,-0.14267 -0.69334,-0.30134 -0.98267,-0.55334 -0.0973,-0.0933 -0.22,-0.21866 -0.184,-0.37333"
     inkscape:connector-curvature="0" /><g
     clip-path="url(#clipPath310)"
     id="g316"
     style="opacity:0.53999299"
     transform="matrix(1.3333333,0,0,-1.3333333,0,341.33333)"><g
       transform="translate(85.1994,45.0278)"
       id="g314"><path
         inkscape:connector-curvature="0"
         d="M 0,0 C 0.039,-0.098 -0.156,-0.063 -0.062,0 -0.046,0 -0.015,0 0,0"
         style="fill:#192112;fill-opacity:1;fill-rule:nonzero;stroke:none"
         id="path312" /></g></g><g
     clip-path="url(#clipPath326)"
     id="g332"
     style="opacity:0.38999903"
     transform="matrix(1.3333333,0,0,-1.3333333,0,341.33333)"><g
       transform="translate(82.5826,44.5432)"
       id="g330"><path
         inkscape:connector-curvature="0"
         d="M 0,0 C -0.019,-0.073 -0.157,-0.011 -0.081,0.036 -0.061,0.027 -0.02,0.009 0,0"
         style="fill:#283719;fill-opacity:1;fill-rule:nonzero;stroke:none"
         id="path328" /></g></g><path
     id="path338"
     style="fill:#ed4792;fill-opacity:1;fill-rule:nonzero;stroke:none;stroke-width:1.33333325"
     d="m 98.313731,283.11146 c -0.24,-0.15867 -0.294667,-0.54 -0.590667,-0.61467 -0.210666,-0.004 -0.369333,0.16667 -0.546666,0.264 -0.197334,0.12667 -0.438667,0.13867 -0.661334,0.0973 0.152,0.39733 0.213334,0.82266 0.309334,1.23733 0.110666,0.40667 0.245333,0.9 0.650666,1.06933 0.266667,0.132 0.570667,0.004 0.769334,-0.20266 0.312,-0.32267 0.504,-0.74934 0.689333,-1.164 0.064,-0.14667 0.126667,-0.29334 0.190667,-0.44 -0.286667,0.003 -0.565334,-0.0933 -0.810667,-0.24667"
     inkscape:connector-curvature="0" /></svg>