<svg xmlns="http://www.w3.org/2000/svg" xml:space="preserve" width="256" height="256" viewBox="0 0 341.333 341.333"><path d="M296 16H45.333C33.552 16 24 25.552 24 37.333v120A2.67 2.67 0 0 0 26.667 160H32v5.333h277.333V160h5.334a2.67 2.67 0 0 0 2.666-2.667v-120C317.333 25.552 307.783 16 296 16" style="fill:#f2f2f2;fill-opacity:1;fill-rule:nonzero;stroke:none;stroke-width:1.33333325"/><path d="M261.333 160H80a5.334 5.334 0 0 1-5.333-5.333v-112A5.334 5.334 0 0 1 80 37.333h181.333a5.334 5.334 0 0 1 5.334 5.334v112a5.334 5.334 0 0 1-5.334 5.333" style="fill:#d4d4d4;fill-opacity:1;fill-rule:nonzero;stroke:none;stroke-width:1.33333325"/><path d="M258.667 149.333h-176V48h176z" style="fill:#7f8c8d;fill-opacity:1;fill-rule:nonzero;stroke:none;stroke-width:1.33333325"/><path d="M261.333 45.333H80V152h181.333V48Zm-2.666 104h-176V48h176zM176 26.667a5.334 5.334 0 1 1-10.667 0 5.334 5.334 0 0 1 10.667 0" style="fill:#191919;fill-opacity:1;fill-rule:nonzero;stroke:none;stroke-width:1.33333325"/><path d="M168 26.667a2.668 2.668 0 0 1 5.333 0 2.668 2.668 0 0 1-5.333 0" style="fill:#4f4f4f;fill-opacity:1;fill-rule:nonzero;stroke:none;stroke-width:1.33333325"/><path d="M172 26.667a1.334 1.334 0 1 1-2.668-.001 1.334 1.334 0 0 1 2.668 0m6.667.001a2.668 2.668 0 0 0 5.333 0 2.668 2.668 0 0 0-5.333 0" style="fill:#191919;fill-opacity:1;fill-rule:nonzero;stroke:none;stroke-width:1.33333325"/><path d="M114.667 28a4 4 0 1 1-8 0 4 4 0 0 1 8 0m120 0a4 4 0 1 1-8 0 4 4 0 0 1 8 0" style="fill:#bfbfbf;fill-opacity:1;fill-rule:nonzero;stroke:none;stroke-width:1.33333325"/><path d="M48 70.667a1.334 1.334 0 1 0 2.668-.001 1.334 1.334 0 0 0-2.668 0m0 16a1.334 1.334 0 1 0 2.668 0 1.334 1.334 0 0 0-2.668 0m-8-8a1.334 1.334 0 1 0 2.668 0 1.334 1.334 0 0 0-2.668 0m16 0a1.334 1.334 0 1 0 2.668 0 1.334 1.334 0 0 0-2.668 0m-6.667-1.333a1.334 1.334 0 1 1 0 2.668 1.334 1.334 0 0 1 0-2.668m241.334-6.666a1.333 1.333 0 1 0 2.666 0 1.333 1.333 0 0 0-2.666 0m0 16a1.333 1.333 0 1 0 2.666 0 1.333 1.333 0 0 0-2.666 0m-8-8a1.333 1.333 0 1 0 2.666 0 1.333 1.333 0 0 0-2.666 0m16 0a1.333 1.333 0 1 0 2.666 0 1.333 1.333 0 0 0-2.666 0M292 77.333A1.333 1.333 0 1 1 292 80a1.333 1.333 0 0 1 0-2.666" style="fill:#191919;fill-opacity:1;fill-rule:nonzero;stroke:none;stroke-width:1.33333325"/><path d="M24 133.333h2.667v-32H24z" style="fill:#b3b3b3;fill-opacity:1;fill-rule:nonzero;stroke:none;stroke-width:1.33333325"/><path d="M24 117.333h2.667v-10.666H24z" style="fill:#ccc;fill-opacity:1;fill-rule:nonzero;stroke:none;stroke-width:1.33333325"/><path d="M314.667 133.333h2.666v-32h-2.666z" style="fill:#b3b3b3;fill-opacity:1;fill-rule:nonzero;stroke:none;stroke-width:1.33333325"/><path d="M314.667 112h2.666v-10.667h-2.666z" style="fill:#e6e6e6;fill-opacity:1;fill-rule:nonzero;stroke:none;stroke-width:1.33333325"/><path d="M296 325.333H45.333C33.552 325.333 24 315.783 24 304V170.667h293.333V304c0 11.783-9.55 21.333-21.333 21.333" style="fill:#f2f2f2;fill-opacity:1;fill-rule:nonzero;stroke:none;stroke-width:1.33333325"/><path d="M309.333 181.333H32c-4.417 0-8-3.582-8-8V168c0-4.417 3.583-8 8-8h277.333c4.418 0 8 3.583 8 8v5.333a8 8 0 0 1-8 8" style="fill:#e6e6e6;fill-opacity:1;fill-rule:nonzero;stroke:none;stroke-width:1.33333325"/><path d="M58.667 181.333H56V160h2.667zm226.666 0h-2.666V160h2.666zM304 170.667a2.668 2.668 0 0 1-5.333 0 2.668 2.668 0 0 1 5.333 0" style="fill:#b3b3b3;fill-opacity:1;fill-rule:nonzero;stroke:none;stroke-width:1.33333325"/><path d="M81.333 218.667c0 12.518-10.148 22.666-22.666 22.666S36 231.185 36 218.667 46.148 196 58.667 196c12.518 0 22.666 10.148 22.666 22.667" style="fill:#d2d2d2;fill-opacity:1;fill-rule:nonzero;stroke:none;stroke-width:1.33333325"/><path d="M73.778 218.667c0 8.345-6.765 15.11-15.11 15.11-8.347 0-15.113-6.765-15.113-15.11 0-8.346 6.766-15.111 15.112-15.111s15.111 6.765 15.111 15.11" style="fill:gray;fill-opacity:1;fill-rule:nonzero;stroke:none;stroke-width:1.33333325"/><path d="M70 218.667C70 224.925 64.925 230 58.667 230c-6.259 0-11.334-5.075-11.334-11.333 0-6.259 5.075-11.334 11.334-11.334S70 212.408 70 218.667" style="fill:#999;fill-opacity:1;fill-rule:nonzero;stroke:none;stroke-width:1.33333325"/><path d="M76 264H64v-12c0-.737-.597-1.333-1.333-1.333h-8c-.736 0-1.334.596-1.334 1.333v12h-12c-.736 0-1.333.596-1.333 1.333v8c0 .738.597 1.334 1.333 1.334h12v12c0 .737.598 1.333 1.334 1.333h8c.736 0 1.333-.596 1.333-1.333v-12h12c.736 0 1.333-.596 1.333-1.334v-8c0-.737-.597-1.333-1.333-1.333" style="fill:#e6e6e6;fill-opacity:1;fill-rule:nonzero;stroke:#b3b3b3;stroke-width:1.33333325"/><path d="M57.333 253.333H60v8h-2.667zm0 24H60v8h-2.667zm17.334-6.666h-8V268h8zm-24 0h-8V268h8z" style="fill:#b3b3b3;fill-opacity:1;fill-rule:nonzero;stroke:none;stroke-width:1.33333325"/><path d="M234.667 325.333h-128c-8.836 0-16-7.164-16-16V186.667A5.334 5.334 0 0 1 96 181.333h149.333a5.334 5.334 0 0 1 5.334 5.334v122.666c0 8.836-7.164 16-16 16" style="fill:#f2f2f2;fill-opacity:1;fill-rule:nonzero;stroke:#b3b3b3;stroke-width:1.33333325;stroke-opacity:1"/><path d="M240 298.667H101.333V192H240Z" style="fill:#7f8c8d;fill-opacity:1;fill-rule:nonzero;stroke:none;stroke-width:1.33333325"/><path d="M242.667 189.333H101.333A2.67 2.67 0 0 0 98.667 192v106.667a2.67 2.67 0 0 0 2.666 2.666H240a2.67 2.67 0 0 0 2.667-2.666V192ZM240 298.667H101.333V192H240Z" style="fill:#262626;fill-opacity:1;fill-rule:nonzero;stroke:none;stroke-width:1.33333325"/><path d="M176 320h-10.667a5.334 5.334 0 0 1 0-10.667H176A5.334 5.334 0 0 1 176 320" style="fill:#f2f2f2;fill-opacity:1;fill-rule:nonzero;stroke:gray;stroke-width:2.00000004;stroke-opacity:1;stroke-miterlimit:4;stroke-dasharray:none"/><path d="M229.333 325.333H232V320h-2.667z" style="fill:#b3b3b3;fill-opacity:1;fill-rule:nonzero;stroke:none;stroke-width:1.33333325"/><path d="M250.667 325.333h2.666V320h-2.666z" style="fill:#3096cf;fill-opacity:1;fill-rule:nonzero;stroke:none;stroke-width:1.33333325"/><path d="M266.667 325.333h2.666V320h-2.666z" style="fill:#b3b3b3;fill-opacity:1;fill-rule:nonzero;stroke:none;stroke-width:1.33333325"/><path d="M282.667 325.333h2.666V320h-2.666z" style="fill:#ff0;fill-opacity:1;fill-rule:nonzero;stroke:none;stroke-width:1.33333325"/><path d="M269.333 284a4 4 0 1 0-8 0 4 4 0 0 0 8 0m0 18.667a4 4 0 1 0-8 0 4 4 0 0 0 8 0M272 201.333a6.666 6.666 0 0 1-6.667 6.667 6.666 6.666 0 0 1-6.666-6.667 6.666 6.666 0 0 1 6.666-6.666 6.666 6.666 0 0 1 6.667 6.666" style="fill:#ccc;fill-opacity:1;fill-rule:nonzero;stroke:gray;stroke-width:1.33333325;stroke-opacity:1"/><path d="M293.333 218.667a8.001 8.001 0 0 1-16 0 8.001 8.001 0 0 1 16 0" style="fill:#354f9f;fill-opacity:1;fill-rule:nonzero;stroke:none;stroke-width:1.33333325"/><path d="M293.333 250.667a8.001 8.001 0 0 1-16 0 8.001 8.001 0 0 1 16 0" style="fill:#eac500;fill-opacity:1;fill-rule:nonzero;stroke:none;stroke-width:1.33333325"/><path d="M301.333 242.667a8.001 8.001 0 0 1 0-16 8.001 8.001 0 0 1 0 16" style="fill:#b80000;fill-opacity:1;fill-rule:nonzero;stroke:none;stroke-width:1.33333325"/><path d="M269.333 242.667a8.001 8.001 0 0 1 0-16 8.001 8.001 0 0 1 0 16" style="fill:#007b00;fill-opacity:1;fill-rule:nonzero;stroke:none;stroke-width:1.33333325"/><path d="M34 12c-8.836 0-16 7.164-16 16v90a2 2 0 0 0 2 2h4a6 6 0 0 0-6 6v102c0 8.837 7.164 16 16 16h188c8.837 0 16-7.163 16-16V126a6 6 0 0 0-6-6h4a2 2 0 0 0 2-2V28c0-8.836-7.163-16-16-16z" style="fill:none;fill-opacity:1;fill-rule:nonzero;stroke:#1a1a1a;stroke-width:1.99999994;stroke-miterlimit:4;stroke-dasharray:none" transform="scale(1.33333)"/></svg>