<svg xmlns="http://www.w3.org/2000/svg" xml:space="preserve" width="256" height="256" viewBox="0 0 341.333 341.333"><path d="M16 102.198c99.428-43.82 209.905-43.82 309.333 0V272H16Z" style="fill:#999;fill-opacity:1;fill-rule:nonzero;stroke:none;stroke-width:1.33333325"/><path d="M170.667 82.667c-21.258 0-41.883 1.409-61.302 4.189C101.371 88.001 96 93.523 96 100.596V244.9c0 7.59 6.165 13.767 13.744 13.767h121.845c7.579 0 13.744-6.176 13.744-13.767V100.596c0-7.073-5.37-12.595-13.365-13.74-19.419-2.78-40.044-4.19-61.301-4.19" style="fill:gray;fill-opacity:1;fill-rule:nonzero;stroke:none;stroke-width:1.33333325"/><path d="M109.744 89.496c38.769-5.55 83.077-5.55 121.846 0 6.075.87 11.076 4.95 11.076 11.1V244.9c0 6.15-4.94 11.1-11.076 11.1H109.744c-6.136 0-11.078-4.95-11.078-11.1V100.596c0-6.15 5.003-10.23 11.078-11.1" style="fill:#e6e6e6;fill-opacity:1;fill-rule:nonzero;stroke:none;stroke-width:1.33333325"/><path d="M82.667 272.19H80v-192h2.667zm178.666-.19h-2.666V80h2.666z" style="fill:gray;fill-opacity:1;fill-rule:nonzero;stroke:none;stroke-width:1.33333325"/><path d="m225.04 198.772-5.844-1.994v-1.19l5.857-2.135z" style="fill:#0000b8;fill-opacity:1;fill-rule:nonzero;stroke:none;stroke-width:1.33333325"/><path d="M211.123 193.941s3.81 1.643 3.81 1.308l.014-5.318-3.906 1.422zm3.824-7.202-3.824-1.295-2.034.648v2.728z" style="fill:#007e00;fill-opacity:1;fill-rule:nonzero;stroke:none;stroke-width:1.33333325"/><path d="m214.933 176.835-14.253 4.93 4.21 1.474 14.049-4.992z" style="fill:#eac500;fill-opacity:1;fill-rule:nonzero;stroke:none;stroke-width:1.33333325"/><path d="m211.123 185.445 3.824 1.294v-3.882l-3.824 1.393z" style="fill:#0000b8;fill-opacity:1;fill-rule:nonzero;stroke:none;stroke-width:1.33333325"/><path d="m218.8 189.387-2.957-1.244 2.957-2.699zm-3.853-2.648-5.858 2.081v-3.83l5.858-2.134zm.018-7.082v.001l-10.074 3.58v12.675l4.199-1.42v-2.43l5.857-2.133v2.463l-.013.005v2.85l.032-.013 3.973-1.549v-15.44z" style="fill:red;fill-opacity:1;fill-rule:nonzero;stroke:none;stroke-width:1.33333325"/><path d="M200.633 175.603h-3.3v-3.79h1.455v2.862h1.845zm1.846 0h-1.455v-3.791h1.455zm2.669-.845c.144 0 .301.005.418-.072.103-.06.172-.16.172-.266 0-.126-.089-.242-.226-.298-.124-.05-.288-.05-.419-.05h-.57v.686zm-.042-1.492c.138 0 .303.005.406-.072a.32.32 0 0 0 .137-.248c0-.283-.288-.322-.563-.322h-.562v.642zm-1.906-1.454h2.297c.357 0 .721.022 1.016.194.316.182.501.492.501.801 0 .397-.316.735-.796.823v.012c.542.077.912.408.912.861 0 .327-.144.69-.48.885-.364.21-.872.215-1.297.215H203.2zm6.497 1.531c.316 0 .693-.039.693-.365 0-.127-.083-.248-.227-.31-.124-.049-.274-.049-.412-.049h-.582v.724zm.61 2.26-.686-1.448h-.452v1.448h-1.462v-3.79h2.395c.41 0 .864.043 1.213.231.392.2.578.536.578.907 0 .497-.275.796-.831 1l.85 1.652zm5.606 0h-3.534v-3.79h3.534v.873h-2.12v.552h1.714v.845h-1.714v.614h2.12zm2.627 0h-1.372v-2.878h-.988v-.912h3.328v.912h-.968zm3.369-2.26c.316 0 .693-.039.693-.365 0-.127-.083-.248-.227-.31-.124-.049-.274-.049-.412-.049h-.582v.724zm.61 2.26-.686-1.448h-.452v1.448h-1.462v-3.79h2.395c.41 0 .864.043 1.213.231.392.2.578.536.578.907 0 .497-.275.796-.83 1l.85 1.652zm3.431-1.879c0 .366.048 1.067.706 1.067.66 0 .707-.701.707-1.067 0-.37-.068-1.11-.707-1.11-.638 0-.706.74-.706 1.11m2.957-.005c0 1.078-.824 1.94-2.25 1.94s-2.251-.862-2.251-1.94c0-1.133.817-1.962 2.25-1.962s2.251.83 2.251 1.962" style="fill:#0000b8;fill-opacity:1;fill-rule:nonzero;stroke:none;stroke-width:1.33333325"/><path d="m225.054 190.262-3.824-1.295-2.034.648v2.728z" style="fill:red;fill-opacity:1;fill-rule:nonzero;stroke:none;stroke-width:1.33333325"/><path d="m209.115 194.496-4.198 1.412.02.007-.008.003 5.858 2.1s3.144-1.676 3.195-1.745-4.867-1.776-4.867-1.776" style="fill:#eac500;fill-opacity:1;fill-rule:nonzero;stroke:none;stroke-width:1.33333325"/><path d="M230.73 173.163c.206 0 .336-.19.336-.448 0-.207-.112-.447-.392-.447a.39.39 0 0 0-.354.224c-.02.033-.02.085-.02.172.02.24.15.499.43.499m.859-1.859h-.28c-.653.035-.896.275-.99.568h.02c.167-.139.354-.19.615-.19.504 0 .97.345.97.982 0 .619-.503 1.101-1.194 1.101-.914 0-1.305-.637-1.305-1.325 0-.55.204-1.033.559-1.325.336-.294.765-.431 1.288-.448h.298v.637zm1.94 1.118v-.516c0-.189.018-.396.018-.602h-.018a9 9 0 0 1-.299.602l-.261.5v.016zm0 1.291v-.67h-1.362v-.534l1.082-1.79h1.082v1.72h.336v.62h-.336v.671h-.821z" style="fill:red;fill-opacity:1;fill-rule:nonzero;stroke:none;stroke-width:1.33333325"/><path d="M210.787 185.287v12.73l-5.857-2.1v-12.704l-.02-.032-3.974-1.412v15.441l3.975 1.55 5.857 2.271 4.216 1.635v-15.905Z" style="fill:#007e00;fill-opacity:1;fill-rule:nonzero;stroke:none;stroke-width:1.33333325"/><path d="M225.077 183.23v2.843l-5.838 2.272-.019-3.015z" style="fill:#0000b8;fill-opacity:1;fill-rule:nonzero;stroke:none;stroke-width:1.33333325"/><path d="m225.04 180.358-14.253 4.93 4.21 1.474 14.048-4.992z" style="fill:#eac500;fill-opacity:1;fill-rule:nonzero;stroke:none;stroke-width:1.33333325"/><path d="m221.23 188.968 3.824 1.294v-3.882l-3.824 1.393z" style="fill:#0000b8;fill-opacity:1;fill-rule:nonzero;stroke:none;stroke-width:1.33333325"/><path d="m225.054 190.262-5.858 2.081v-3.83l5.858-2.134zm.018-7.082v.001l-10.074 3.58v15.905l4.198-1.627v-5.453l5.858-2.133v2.463l-.014.005v2.85l.032-.013 3.974-1.549v-15.44z" style="fill:#007e00;fill-opacity:1;fill-rule:nonzero;stroke:none;stroke-width:1.33333325"/><path d="m229.046 192.627-2.957-1.244 2.957-2.7zm-24.155-3.659 2.958 1.244-2.958 2.698zm5.896-3.681 4.21 1.474v15.905l-4.229-1.635z" style="fill:#0000b8;fill-opacity:1;fill-rule:nonzero;stroke:none;stroke-width:1.33333325"/><path d="M106.667 202.667v42.666h32v-42.666z" style="fill:#000;fill-opacity:1;fill-rule:nonzero;stroke:none;stroke-width:1.33333325"/><path d="M137.6 237.545h-29.867v-26.118H137.6Zm-29.867-33.902H137.6v6.685h-29.867zm3.63 37.454h3.362v2.49a18.4 18.4 0 0 1-3.254.315c-2.349 0-3.497-1.046-3.497-2.502s1.148-2.503 3.57-2.503c2.006 0 3.054.48 3.082 1.593h-2.423a.36.36 0 0 0-.198-.31.9.9 0 0 0-.424-.084c-.39 0-.642.145-.768.336-.127.19-.163.658-.163 1.06 0 .461.053.777.17.929.155.197.407.283.742.283.244 0 .479-.027.687-.1v-.572h-.886zm7.804.757-.516-1.792h-.018l-.569 1.792zm-2.143-2.832h3.353l2.098 4.755h-2.676l-.252-.764h-1.87l-.264.764h-2.476zm12.178 1.357h-.019l-.921 3.398h-2.368l-.921-3.398h-.02v3.398h-2.186v-4.756h3.588l.714 2.834h.018l.714-2.834h3.588v4.756h-2.187Zm3.114-1.357h4.961v1.239h-2.485v.506h2.296v1.239h-2.296v.533h2.567v1.239h-5.043z" style="fill:#fff;fill-opacity:1;fill-rule:nonzero;stroke:none;stroke-width:1.33333325"/><path d="M112.257 206.067c-.03-.362-.32-.568-.804-.568-.68 0-.806.752-.806 1.354 0 .585.136 1.276.806 1.276.497 0 .78-.207.804-.59h1.242c.018 1.012-1.012 1.368-2.046 1.368-1.332 0-2.047-.752-2.047-2.1 0-1.346.715-2.077 2.047-2.088 1.034 0 2.064.335 2.046 1.348zm1.683 2.758v-4.022h1.182v3.242h1.935v.78z" style="fill:#000;fill-opacity:1;fill-rule:nonzero;stroke:none;stroke-width:1.33333325"/><path d="m119.917 207.26-.544-1.671h-.019l-.579 1.67zm-2.906 1.565 1.687-4.022h1.444l1.685 4.022h-1.337l-.284-.786h-1.733l-.278.786zm7.351-2.841a.4.4 0 0 0-.154-.356q-.152-.127-.455-.128c-.272 0-.51.166-.51.366 0 .296.38.391.693.468.716.174 1.757.24 1.757 1.326 0 .846-.887 1.248-1.875 1.248-.994 0-1.869-.272-1.888-1.364h1.184c-.007.378.29.584.715.584.273 0 .621-.134.621-.4 0-.547-.874-.43-1.804-.814-.432-.178-.645-.546-.645-.98.048-.953.936-1.214 1.828-1.214.883 0 1.787.294 1.716 1.264zm4.067 0a.4.4 0 0 0-.155-.356q-.151-.127-.455-.128c-.272 0-.509.166-.509.366 0 .296.379.391.692.468.716.174 1.757.24 1.757 1.326 0 .846-.886 1.248-1.874 1.248-.995 0-1.87-.272-1.888-1.364h1.184c-.007.378.289.584.714.584.274 0 .622-.134.622-.4 0-.547-.875-.43-1.804-.814-.432-.178-.646-.546-.646-.98.048-.953.936-1.214 1.828-1.214.883 0 1.787.294 1.716 1.264zm1.776-1.181h1.183v4.021h-1.183zm4.48 1.264c-.03-.362-.32-.568-.804-.568-.681 0-.805.752-.805 1.354 0 .585.136 1.276.805 1.276.496 0 .78-.207.804-.59h1.243c.017 1.012-1.012 1.368-2.047 1.368-1.332 0-2.048-.752-2.048-2.1 0-1.346.716-2.077 2.048-2.088 1.035 0 2.064.335 2.047 1.348zm-1.447 17.654c1.676 5.243-2.04 8.795-7.048 10.215-7.08 2.007-11.65-1.123-13.579-7.156-2.092-5.872.378-10.939 7.204-12.873 5.094-1.444 10.026-.716 11.839 4.862l-7.33 2.078c-.803-2.13-1.777-2.312-2.757-2.035-2.07.587-1.626 2.644-.649 5.7.927 2.897 1.785 5.01 3.8 4.44 1.035-.293 1.55-1.072 1.021-3.105z" style="fill:#000;fill-opacity:1;fill-rule:nonzero;stroke:none;stroke-width:1.33333325"/><path d="M218.644 222.95c9.521 0 17.24 5.247 17.24 11.716 0 6.471-7.719 11.716-17.24 11.716s-17.24-5.245-17.24-11.716c0-6.469 7.719-11.716 17.24-11.716" style="fill:#fff;fill-opacity:1;fill-rule:nonzero;stroke:none;stroke-width:1.33333325"/><path d="M235.884 234.58c0-6.47-7.718-11.716-17.24-11.716-9.52 0-17.24 5.247-17.24 11.716 0 6.47 7.72 11.717 17.24 11.717 9.522 0 17.24-5.246 17.24-11.717m2.055.008 2.061 2.155-2.946 1.725.828 3.336-3.17.087-.218 3.632-3.534-.95-.596 3.43-3.269-1.267-1.705 3.023-2.554-2.156-2.226 3.064-2.454-2.6-2.68 2.428-1.749-2.86-3.16 1.814-1.092-3.2-3.659 1.406-.538-3.158-3.274.2.491-3.214-3.348-.013.783-3.51-2.596-1.424 2.066-2.29-1.856-3.184 3.018-.931-.794-3.407 3.31-.044.382-3.378 2.994.969.99-3.293 3.024 1.596 1.251-2.914 2.619 1.776 1.84-2.77 2.473 2.413 2.187-2.205 1.916 2.78 2.993-1.878 1.187 3.07 3.01-1.391.772 3.203 3.567-.62-.11 3.133 3.603.379-1.02 3.026 3.14 1.314z" style="fill:#a3834a;fill-opacity:1;fill-rule:nonzero;stroke:none;stroke-width:1.33333325"/><path d="M202.886 234.667c0-5.712 7.07-10.359 15.757-10.359 8.69 0 15.76 4.647 15.76 10.359s-7.07 10.358-15.76 10.358c-8.688 0-15.757-4.646-15.757-10.358m15.757 10.746c8.908 0 16.156-4.82 16.156-10.746s-7.246-10.747-16.156-10.747c-8.908 0-16.154 4.821-16.154 10.747 0 5.925 7.246 10.746 16.154 10.746" style="fill:#a3834a;fill-opacity:1;fill-rule:nonzero;stroke:none;stroke-width:1.33333325"/><path d="M228.645 237.146H208.47c-1.704.007-2.738-1.109-2.738-2.478s1.041-2.476 2.738-2.479h20.174c1.697.003 2.738 1.11 2.738 2.479 0 1.37-1.034 2.485-2.738 2.478m.009-5.765H208.46c-2.136-.004-3.572 1.495-3.572 3.292s1.432 3.279 3.576 3.279h20.187c2.144 0 3.576-1.483 3.576-3.279 0-1.797-1.436-3.296-3.573-3.292" style="fill:#a3834a;fill-opacity:1;fill-rule:nonzero;stroke:none;stroke-width:1.33333325"/><path d="M221.732 233.441h.953v.416h.516v.307h-.516l.001 2.053h-.956l.001-2.053h-.518v-.305h.52zm-11.175.719h.954v2.057h-.954zm-.002-1.037h.956v.632h-.956zm17.527 1.978-.001.435c0 .328-.199.463-.39.463-.19 0-.39-.135-.39-.463v-.443l.001-.429c0-.327.2-.461.39-.461s.389.134.389.461zv-.001Zm-.383-1.153c-.769 0-1.393.517-1.393 1.155s.624 1.156 1.393 1.156c.77 0 1.394-.518 1.394-1.156s-.624-1.155-1.394-1.155m-14.685.856c0-.319.226-.4.374-.4.152 0 .374.081.374.4v.732c0 .317-.222.401-.373.401-.15 0-.375-.084-.375-.401v-.364zm-.934-1.687v3.094h.944v-.119c.365.223.776.221 1.097.076a1.1 1.1 0 0 0 .652-1.02c0-.543-.525-1.136-1.212-1.076a1.3 1.3 0 0 0-.54.183v-1.138zm7.36 1.274a.39.39 0 0 1 .335-.188h.001a.39.39 0 0 1 .335.188c.06.103.064.223.062.404h-.795c-.003-.181 0-.301.063-.404m.73 1.148c0 .378-.254.46-.394.46-.142 0-.4-.082-.4-.46v-.424h1.797c0-.638-.632-1.166-1.407-1.166-.774 0-1.404.517-1.404 1.154 0 .638.63 1.155 1.404 1.155.643 0 1.187-.357 1.354-.843h-.951zm-11.192.371v-2.802h-.955v3.108h1.988v-.305zm16.222-.997h.935c-.096-.664-.733-.856-1.063-.848a1.17 1.17 0 0 0-.76.31v-.216h-.945l-.001 2.058h.947v-1.351c0-.179.193-.379.452-.379.26 0 .436.2.436.379zm-8.928-.751v-.365c0-.318.225-.4.374-.4.151 0 .374.082.374.4l-.001.366v.367c0 .319-.222.399-.374.399-.148 0-.373-.08-.373-.399zm1.758.023a1.1 1.1 0 0 0-.652-1.02 1.17 1.17 0 0 0-1.097.077v-.119h-.944v3.094h.941v-1.139l.012.007.739 1.132h.935l-.667-1.021c.437-.168.733-.603.733-1.011" style="fill:#a3834a;fill-opacity:1;fill-rule:nonzero;stroke:none;stroke-width:1.33333325"/><path d="m325.333 208-1.462.981-7.63 5.118c-4.261 2.857-6.908 8.084-6.908 13.641V272h2.844v-44.26c0-4.47 2.099-8.615 5.527-10.913l7.63-5.118zM16 208l1.463.981 7.629 5.118C29.353 216.956 32 222.183 32 227.74V272h-2.844v-44.26c0-4.47-2.099-8.615-5.527-10.913L16 211.709Z" style="fill:gray;fill-opacity:1;fill-rule:nonzero;stroke:none;stroke-width:1.33333325"/><path d="M169.948 218.805a.6.6 0 0 0-.222.052l-3.791 1.788a.56.56 0 0 0-.259.25l-2.545 4.797-3.712-1.746a.58.58 0 0 0-.497 0l-3.792 1.788a.55.55 0 0 0-.32.5v16.78a.55.55 0 0 0 .32.5l3.792 1.788a.59.59 0 0 0 .497 0l3.801-1.789a.55.55 0 0 0 .32-.499v-2.725c.123.028.25.016.366-.033l1.708-.792v8.641a.55.55 0 0 0 .32.499l3.792 1.788a.6.6 0 0 0 .498 0l3.8-1.788a.55.55 0 0 0 .322-.499v-8.641l1.708.792c.11.05.236.065.356.042v2.716a.55.55 0 0 0 .32.5l3.8 1.788a.6.6 0 0 0 .5 0l3.79-1.789a.55.55 0 0 0 .32-.499v-16.78a.55.55 0 0 0-.32-.5l-3.79-1.788a.58.58 0 0 0-.5 0l-3.702 1.746-2.545-4.798a.56.56 0 0 0-.259-.249l-3.8-1.788a.6.6 0 0 0-.276-.052" style="fill:#000;fill-opacity:1;fill-rule:nonzero;stroke:none;stroke-width:1.33333325"/><path d="M184.998 243.016a.42.42 0 0 1-.24.375l-3.792 1.788a.44.44 0 0 1-.373 0l-3.8-1.788a.41.41 0 0 1-.241-.376v-2.716a.14.14 0 0 0-.052-.107.14.14 0 0 0-.118-.028.46.46 0 0 1-.266-.032l-1.71-.792a.15.15 0 0 0-.137.008.14.14 0 0 0-.067.116v8.641a.42.42 0 0 1-.24.375l-3.8 1.788a.44.44 0 0 1-.374 0l-3.791-1.788a.42.42 0 0 1-.241-.375v-8.641a.14.14 0 0 0-.066-.116.15.15 0 0 0-.076-.021.2.2 0 0 0-.062.013l-1.706.79a.45.45 0 0 1-.273.026.14.14 0 0 0-.121.027.13.13 0 0 0-.055.106v2.727a.41.41 0 0 1-.24.375l-3.8 1.788a.44.44 0 0 1-.373 0l-3.792-1.788a.42.42 0 0 1-.24-.376v-16.783a.41.41 0 0 1 .24-.373l3.792-1.788a.44.44 0 0 1 .373 0l3.712 1.745c.07.032.153.005.188-.061l2.547-4.8a.43.43 0 0 1 .193-.187l3.79-1.787a.4.4 0 0 1 .166-.038h.004a.45.45 0 0 1 .205.037l3.799 1.788c.084.04.152.107.195.19l2.545 4.797c.036.066.12.093.19.06l3.702-1.744a.44.44 0 0 1 .373-.001l3.792 1.789c.147.07.242.216.24.375zm-.116-17.405-3.79-1.788a.73.73 0 0 0-.624 0l-3.576 1.686-2.482-4.676a.7.7 0 0 0-.324-.312l-3.8-1.79a.74.74 0 0 0-.345-.063.7.7 0 0 0-.277.065l-3.792 1.788a.7.7 0 0 0-.323.31l-2.481 4.678-3.587-1.686a.73.73 0 0 0-.623 0l-3.79 1.788a.69.69 0 0 0-.402.622v16.782a.69.69 0 0 0 .4.622l3.792 1.788a.73.73 0 0 0 .623 0l3.801-1.788a.69.69 0 0 0 .4-.622v-2.574a.8.8 0 0 0 .284-.061l1.506-.697v8.42a.69.69 0 0 0 .4.624l3.792 1.788a.73.73 0 0 0 .622 0l3.8-1.788a.69.69 0 0 0 .402-.622v-8.422l1.504.697a.7.7 0 0 0 .276.065v2.57a.69.69 0 0 0 .4.622l3.8 1.788a.73.73 0 0 0 .624 0l3.79-1.788a.69.69 0 0 0 .402-.622v-16.78a.69.69 0 0 0-.402-.624" style="fill:#000;fill-opacity:1;fill-rule:nonzero;stroke:none;stroke-width:1.33333325"/><path d="m169.976 222.932-3.796-1.788 3.796-1.788 3.796 1.788z" style="fill:gray;fill-opacity:1;fill-rule:nonzero;stroke:none;stroke-width:1.33333325"/><path d="m166.668 221.144 3.308 1.558 3.308-1.558-3.308-1.56zm3.308 1.994a.2.2 0 0 1-.094-.021l-3.796-1.788a.21.21 0 0 1-.12-.185c0-.08.047-.151.12-.186l3.796-1.788a.22.22 0 0 1 .187 0l3.796 1.788c.073.035.12.107.12.186 0 .078-.047.15-.12.185l-3.796 1.788a.2.2 0 0 1-.093.021" style="fill:#fff;fill-opacity:1;fill-rule:nonzero;stroke:none;stroke-width:1.33333325"/><path d="m169.976 222.932-3.796-1.788-3.503 6.603 3.795 1.788z" style="fill:#b3b3b3;fill-opacity:1;fill-rule:nonzero;stroke:none;stroke-width:1.33333325"/><path d="m162.966 227.653 3.412 1.607 3.308-6.235-3.41-1.607zm3.505 2.088a.2.2 0 0 1-.093-.021l-3.795-1.788a.203.203 0 0 1-.097-.28l3.504-6.603a.22.22 0 0 1 .284-.09l3.795 1.787a.203.203 0 0 1 .097.28l-3.504 6.603a.21.21 0 0 1-.19.112" style="fill:#fff;fill-opacity:1;fill-rule:nonzero;stroke:none;stroke-width:1.33333325"/><path d="M169.976 229.535v-6.603l-3.504 6.603-3.503-3.302 2.919 5.503z" style="fill:#7b0000;fill-opacity:1;fill-rule:nonzero;stroke:none;stroke-width:1.33333325"/><path d="m163.755 227.262 2.222 4.19 3.786-2.038v-5.627l-3.1 5.842a.21.21 0 0 1-.156.109.22.22 0 0 1-.184-.056zm2.133 4.68a.22.22 0 0 1-.19-.112l-2.92-5.502a.2.2 0 0 1 .063-.26.22.22 0 0 1 .276.018l3.298 3.106 3.37-6.354a.215.215 0 0 1 .24-.106.21.21 0 0 1 .164.2v6.602a.21.21 0 0 1-.11.182l-4.087 2.2a.2.2 0 0 1-.104.026" style="fill:#fff;fill-opacity:1;fill-rule:nonzero;stroke:none;stroke-width:1.33333325"/><path d="m159.173 228.021 3.796-1.788 3.503 6.603-3.795 1.788z" style="fill:#b3b3b3;fill-opacity:1;fill-rule:nonzero;stroke:none;stroke-width:1.33333325"/><path d="m159.366 228.083 3.373 6.358 3.54-1.667-3.373-6.359zm3.31 6.68a.14.14 0 0 1-.126-.076l-3.504-6.602a.136.136 0 0 1 .064-.187l3.796-1.788a.144.144 0 0 1 .19.06l3.503 6.603a.136.136 0 0 1-.064.186l-3.796 1.788a.2.2 0 0 1-.062.015" style="fill:#fff;fill-opacity:1;fill-rule:nonzero;stroke:none;stroke-width:1.33333325"/><path d="m163.653 239.76 2.528-1.173v-1.212z" style="fill:#7b0000;fill-opacity:1;fill-rule:nonzero;stroke:none;stroke-width:1.33333325"/><path d="m165.967 237.865-1.235 1.166 1.235-.574zm-2.314 2.102a.22.22 0 0 1-.176-.088.2.2 0 0 1 .027-.266l2.527-2.385a.22.22 0 0 1 .232-.043c.08.032.13.107.13.19v1.213c0 .079-.046.15-.12.185l-2.528 1.174a.2.2 0 0 1-.092.02" style="fill:#fff;fill-opacity:1;fill-rule:nonzero;stroke:none;stroke-width:1.33333325"/><path d="M162.969 239.439v3.576l-3.796 1.789v-10.73" style="fill:#7b0000;fill-opacity:1;fill-rule:nonzero;stroke:none;stroke-width:1.33333325"/><path d="M159.173 245.01a.2.2 0 0 1-.113-.032.2.2 0 0 1-.1-.175v-10.73h.426v10.4l3.37-1.587v-3.447h.426v3.576c0 .079-.046.15-.12.185l-3.796 1.788a.2.2 0 0 1-.093.022" style="fill:#fff;fill-opacity:1;fill-rule:nonzero;stroke:none;stroke-width:1.33333325"/><path d="m166.18 248.105 3.796 1.788V233.11l-3.796-1.788-3.504 3.302-3.502-6.603-3.796-1.79v16.783l3.796 1.788v-10.729l2.533 4.77 1.945.917 2.528-2.386z" style="fill:red;fill-opacity:1;fill-rule:nonzero;stroke:none;stroke-width:1.33333325"/><path d="m166.394 247.976 3.368 1.586V233.24l-3.54-1.668-3.396 3.2a.22.22 0 0 1-.184.056.22.22 0 0 1-.156-.11l-3.47-6.54-3.425-1.614v16.322l3.368 1.587v-10.399c0-.096.068-.178.164-.2a.22.22 0 0 1 .24.106l2.502 4.71 1.746.822 2.42-2.284a.22.22 0 0 1 .232-.043c.079.032.13.107.13.19zm3.581 2.124a.2.2 0 0 1-.093-.022l-3.795-1.788a.21.21 0 0 1-.12-.185v-10.24l-2.165 2.044a.22.22 0 0 1-.243.037l-1.945-.917a.2.2 0 0 1-.097-.09l-2.131-4.011v9.876c0 .07-.037.137-.1.174a.22.22 0 0 1-.207.011l-3.796-1.788a.21.21 0 0 1-.12-.185v-16.783c0-.07.039-.137.102-.175a.22.22 0 0 1 .206-.01l3.795 1.788a.2.2 0 0 1 .097.092l3.37 6.353 3.298-3.107a.22.22 0 0 1 .243-.037l3.796 1.788c.073.035.12.107.12.185v16.783a.215.215 0 0 1-.215.207" style="fill:#fff;fill-opacity:1;fill-rule:nonzero;stroke:none;stroke-width:1.33333325"/><path d="m159.173 228.021-3.796-1.788 3.796-1.788 3.796 1.788z" style="fill:gray;fill-opacity:1;fill-rule:nonzero;stroke:none;stroke-width:1.33333325"/><path d="m155.865 226.233 3.308 1.559 3.308-1.559-3.308-1.558zm3.308 1.995a.2.2 0 0 1-.094-.021l-3.796-1.788a.21.21 0 0 1-.12-.186c0-.078.047-.15.12-.185l3.796-1.788a.22.22 0 0 1 .187 0l3.796 1.788c.073.035.12.107.12.185 0 .079-.047.15-.12.186l-3.796 1.788a.2.2 0 0 1-.093.02" style="fill:#fff;fill-opacity:1;fill-rule:nonzero;stroke:none;stroke-width:1.33333325"/><path d="m169.976 222.932 3.796-1.788 3.503 6.603-3.795 1.788z" style="fill:#b3b3b3;fill-opacity:1;fill-rule:nonzero;stroke:none;stroke-width:1.33333325"/><path d="m170.265 223.025 3.308 6.235 3.412-1.607-3.308-6.235zm3.215 6.716a.21.21 0 0 1-.19-.112l-3.505-6.603a.203.203 0 0 1 .098-.28l3.794-1.788a.217.217 0 0 1 .284.091l3.504 6.603q.04.077.012.16a.2.2 0 0 1-.108.12l-3.796 1.788a.2.2 0 0 1-.093.021" style="fill:#fff;fill-opacity:1;fill-rule:nonzero;stroke:none;stroke-width:1.33333325"/><path d="M169.976 229.535v-6.603l3.504 6.603 3.503-3.302-2.92 5.503z" style="fill:red;fill-opacity:1;fill-rule:nonzero;stroke:none;stroke-width:1.33333325"/><path d="m170.19 229.413 3.785 2.038 2.222-4.19-2.569 2.422a.22.22 0 0 1-.183.056.21.21 0 0 1-.156-.111l-3.1-5.841zm3.874 2.528a.2.2 0 0 1-.104-.025l-4.088-2.201a.2.2 0 0 1-.11-.18v-6.603c0-.096.067-.179.163-.201a.216.216 0 0 1 .24.106l3.372 6.355 3.296-3.107a.22.22 0 0 1 .276-.018.2.2 0 0 1 .064.26l-2.92 5.502a.22.22 0 0 1-.128.104.3.3 0 0 1-.06.008" style="fill:#fff;fill-opacity:1;fill-rule:nonzero;stroke:none;stroke-width:1.33333325"/><path d="m180.779 228.021-3.796-1.788-3.503 6.603 3.795 1.788z" style="fill:#b3b3b3;fill-opacity:1;fill-rule:nonzero;stroke:none;stroke-width:1.33333325"/><path d="m173.672 232.774 3.54 1.668 3.374-6.359-3.54-1.666zm3.603 1.988a.13.13 0 0 1-.063-.015l-3.794-1.788a.14.14 0 0 1-.074-.08.14.14 0 0 1 .008-.106l3.504-6.603a.145.145 0 0 1 .19-.06l3.794 1.788a.14.14 0 0 1 .074.08.14.14 0 0 1-.008.107l-3.504 6.602a.14.14 0 0 1-.127.075" style="fill:#fff;fill-opacity:1;fill-rule:nonzero;stroke:none;stroke-width:1.33333325"/><path d="m176.299 239.76-2.528-1.173v-1.212z" style="fill:red;fill-opacity:1;fill-rule:nonzero;stroke:none;stroke-width:1.33333325"/><path d="m173.985 238.458 1.235.573-1.235-1.165zm2.313 1.51a.2.2 0 0 1-.092-.02l-2.528-1.174a.21.21 0 0 1-.12-.187v-1.212c0-.083.051-.157.131-.19a.22.22 0 0 1 .232.043l2.527 2.386a.2.2 0 0 1 .026.265.22.22 0 0 1-.176.088" style="fill:#fff;fill-opacity:1;fill-rule:nonzero;stroke:none;stroke-width:1.33333325"/><path d="M176.983 239.439v3.576l3.796 1.789v-10.73" style="fill:red;fill-opacity:1;fill-rule:nonzero;stroke:none;stroke-width:1.33333325"/><path d="M180.779 245.01a.2.2 0 0 1-.094-.022l-3.796-1.788a.21.21 0 0 1-.12-.185v-3.576h.427v3.447l3.37 1.588v-10.4h.426v10.729a.2.2 0 0 1-.1.175.2.2 0 0 1-.113.032" style="fill:#fff;fill-opacity:1;fill-rule:nonzero;stroke:none;stroke-width:1.33333325"/><path d="m173.771 248.105-3.796 1.788V233.11l3.796-1.788 3.504 3.302 3.503-6.603 3.796-1.79v16.783l-3.796 1.788v-10.729l-2.533 4.77-1.946.917-2.528-2.386z" style="fill:#7b0000;fill-opacity:1;fill-rule:nonzero;stroke:none;stroke-width:1.33333325"/><path d="M170.19 233.24v16.323l3.367-1.587v-10.601c0-.083.052-.158.131-.19a.22.22 0 0 1 .233.043l2.42 2.284 1.746-.823 2.501-4.709a.216.216 0 0 1 .24-.107.21.21 0 0 1 .164.2v10.4l3.368-1.586v-16.323l-3.424 1.613-3.47 6.542a.22.22 0 0 1-.157.109.22.22 0 0 1-.184-.056l-3.396-3.2zm-.214 16.859a.21.21 0 0 1-.213-.206v-16.782c0-.08.046-.151.12-.186l3.794-1.788a.22.22 0 0 1 .243.038l3.297 3.106 3.371-6.354a.22.22 0 0 1 .097-.091l3.795-1.788a.22.22 0 0 1 .208.01.21.21 0 0 1 .1.175v16.782c0 .08-.047.152-.12.185l-3.796 1.79a.22.22 0 0 1-.207-.011.2.2 0 0 1-.1-.175v-9.876l-2.13 4.01a.2.2 0 0 1-.096.091l-1.946.918a.22.22 0 0 1-.244-.04l-2.164-2.042v10.24c0 .079-.046.15-.12.186l-3.796 1.788a.2.2 0 0 1-.093.02" style="fill:#fff;fill-opacity:1;fill-rule:nonzero;stroke:none;stroke-width:1.33333325"/><path d="m180.779 228.021 3.796-1.788-3.796-1.788-3.796 1.788z" style="fill:gray;fill-opacity:1;fill-rule:nonzero;stroke:none;stroke-width:1.33333325"/><path d="m177.47 226.233 3.308 1.559 3.31-1.559-3.31-1.558zm3.308 1.995a.2.2 0 0 1-.093-.021l-3.796-1.788a.21.21 0 0 1-.12-.186c0-.078.047-.15.12-.185l3.796-1.788a.22.22 0 0 1 .188 0l3.795 1.788c.073.035.12.107.12.185 0 .079-.047.15-.12.186l-3.795 1.788a.2.2 0 0 1-.095.02" style="fill:#fff;fill-opacity:1;fill-rule:nonzero;stroke:none;stroke-width:1.33333325"/><path d="m169.976 233.11-3.796-1.787 3.796-1.788 3.796 1.788z" style="fill:gray;fill-opacity:1;fill-rule:nonzero;stroke:none;stroke-width:1.33333325"/><path d="m166.668 231.323 3.308 1.558 3.308-1.558-3.308-1.559zm3.308 1.994a.2.2 0 0 1-.094-.02l-3.796-1.789a.21.21 0 0 1-.12-.185c0-.079.047-.15.12-.185l3.796-1.788a.22.22 0 0 1 .187 0l3.796 1.788c.073.034.12.106.12.185s-.047.15-.12.185l-3.796 1.788a.2.2 0 0 1-.093.021" style="fill:#fff;fill-opacity:1;fill-rule:nonzero;stroke:none;stroke-width:1.33333325"/><path d="M179.013 239.413c-.132 0-.26.05-.354.14a.48.48 0 0 0-.145.341v2.897h-3.008a.5.5 0 0 0-.353.14.48.48 0 0 0-.146.342v3.388c0 .128.052.25.146.34.093.09.22.141.353.141h3.008v2.905c0 .128.052.251.145.342.094.09.222.141.354.14h3.506c.132 0 .26-.05.354-.14a.48.48 0 0 0 .145-.342v-2.905h3.008c.132 0 .26-.05.353-.141a.47.47 0 0 0 .146-.34v-3.388a.48.48 0 0 0-.146-.342.5.5 0 0 0-.353-.14h-3.008v-2.897a.48.48 0 0 0-.145-.341.5.5 0 0 0-.354-.14z" style="fill:#000;fill-opacity:1;fill-rule:nonzero;stroke:none;stroke-width:1.33333325"/><path d="M179.012 250.392h3.507a.36.36 0 0 0 .251-.1.34.34 0 0 0 .104-.244v-2.906a.14.14 0 0 1 .143-.137h3.009a.36.36 0 0 0 .25-.1.34.34 0 0 0 .105-.244v-3.388a.34.34 0 0 0-.103-.243.37.37 0 0 0-.25-.101h-3.011a.14.14 0 0 1-.143-.137v-2.898a.34.34 0 0 0-.102-.244.37.37 0 0 0-.251-.1h-3.51a.37.37 0 0 0-.25.1.34.34 0 0 0-.105.244v2.898a.14.14 0 0 1-.141.137h-3.01a.37.37 0 0 0-.251.1.34.34 0 0 0-.104.244v3.388c0 .09.037.179.104.243a.37.37 0 0 0 .25.1h3.011c.079 0 .141.062.141.138v2.906c0 .09.038.18.104.244.067.064.158.1.251.1zm-.001.274a.66.66 0 0 1-.452-.18.6.6 0 0 1-.187-.438v-2.768h-2.867a.66.66 0 0 1-.452-.182.6.6 0 0 1-.187-.438v-3.387a.6.6 0 0 1 .187-.439.7.7 0 0 1 .454-.18h2.866v-2.76a.6.6 0 0 1 .186-.438.67.67 0 0 1 .455-.18h3.508a.65.65 0 0 1 .452.18.6.6 0 0 1 .187.438v2.76h2.865a.7.7 0 0 1 .455.182.6.6 0 0 1 .187.437v3.388a.6.6 0 0 1-.187.437.66.66 0 0 1-.452.182h-2.868v2.768a.6.6 0 0 1-.187.438.66.66 0 0 1-.452.18h-3.51z" style="fill:#000;fill-opacity:1;fill-rule:nonzero;stroke:none;stroke-width:1.33333325"/><path d="M179.013 239.894v3.379h-3.507v3.388h3.507v3.387h3.506v-3.387h3.507v-3.388h-3.507v-3.379z" style="fill:#007b00;fill-opacity:1;fill-rule:nonzero;stroke:none;stroke-width:1.33333325"/><path d="M179.226 249.841h3.08v-3.181a.21.21 0 0 1 .213-.207h3.294v-2.973h-3.294a.21.21 0 0 1-.213-.207V240.1h-3.08v3.173a.21.21 0 0 1-.213.207h-3.294v2.973h3.294a.21.21 0 0 1 .213.207zm3.293.412h-3.506a.21.21 0 0 1-.214-.205v-3.181h-3.293a.21.21 0 0 1-.213-.207v-3.387a.21.21 0 0 1 .213-.206h3.293v-3.172a.21.21 0 0 1 .214-.207h3.506a.21.21 0 0 1 .214.207v3.172h3.293a.21.21 0 0 1 .213.206v3.387a.21.21 0 0 1-.213.207h-3.293v3.181a.21.21 0 0 1-.214.205" style="fill:#fff;fill-opacity:1;fill-rule:nonzero;stroke:none;stroke-width:1.33333325"/><path d="M128 52c-22.6 0-45.198 2.724-67.406 8.143H60v.15a292 292 0 0 0-48 16.355V204h48v.143h2V204h182V76.648a292 292 0 0 0-48-16.355V60h-1.156c-22.027-5.327-44.435-8-66.844-8z" style="fill:none;fill-opacity:1;fill-rule:nonzero;stroke:#1a1a1a;stroke-width:1.99999994;stroke-miterlimit:4;stroke-dasharray:none" transform="scale(1.33333)"/></svg>