<svg xmlns="http://www.w3.org/2000/svg" xml:space="preserve" width="256" height="256" viewBox="0 0 341.333 341.333"><defs><clipPath id="a" clipPathUnits="userSpaceOnUse"><path d="M213.05 136.166h.048v-.03h-.048z"/></clipPath><clipPath id="b" clipPathUnits="userSpaceOnUse"><path d="M211.676 135.948h.054v-.034h-.054z"/></clipPath><clipPath id="c" clipPathUnits="userSpaceOnUse"><path d="M209.048 138.356h.04v-.025h-.04z"/></clipPath><clipPath id="d" clipPathUnits="userSpaceOnUse"><path d="M207.919 138.176h.045v-.028h-.045z"/></clipPath></defs><path d="M16 61.333v13.334A2.666 2.666 0 1 1 16 80v5.333a2.666 2.666 0 1 1 0 5.334V96a2.666 2.666 0 1 1 0 5.333v5.334A2.666 2.666 0 1 1 16 112v5.333a2.666 2.666 0 1 1 0 5.334v160A5.334 5.334 0 0 0 21.333 288H320a5.334 5.334 0 0 0 5.333-5.333v-160a2.666 2.666 0 1 1 0-5.334V112a2.666 2.666 0 1 1 0-5.333v-5.334a2.666 2.666 0 1 1 0-5.333v-5.333a2.666 2.666 0 1 1 0-5.334V80a2.666 2.666 0 1 1 0-5.333V61.333a2.666 2.666 0 0 0-2.666-2.666h-304A2.666 2.666 0 0 0 16 61.333" style="fill:#999;fill-opacity:1;fill-rule:nonzero;stroke:none;stroke-width:1.33333325"/><path d="M74.667 288H72V58.667h2.667zm194.666 0h-2.666V58.667h2.666z" style="fill:gray;fill-opacity:1;fill-rule:nonzero;stroke:none;stroke-width:1.33333325"/><path d="M279.703 72H61.63C52.165 72 48 75.901 48 84.77v70.46c0 8.869 4.163 12.77 13.63 12.77h218.073c9.466 0 13.63-3.901 13.63-12.77V84.77c0-8.869-4.163-12.77-13.63-12.77" style="fill:#e6e6e6;fill-opacity:1;fill-rule:nonzero;stroke:none;stroke-width:1.33333325"/><path d="M253.333 218.667H88c-4.4 0-8-3.6-8-8s3.6-8 8-8h165.333c4.4 0 8 3.6 8 8s-3.6 8-8 8" style="fill:#737373;fill-opacity:1;fill-rule:nonzero;stroke:none;stroke-width:1.33333325"/><path d="M202.667 218.667h-64v-16h64z" style="fill:#666;fill-opacity:1;fill-rule:nonzero;stroke:none;stroke-width:1.33333325"/><path d="M275.56 160.492a.5.5 0 0 1-.346.046c.079.194.112.402.161.603.059.199.128.439.34.521.139.064.298.001.402-.098.162-.158.262-.366.36-.567l.098-.215a.83.83 0 0 1-.422-.12c-.126-.077-.154-.262-.308-.3-.111 0-.194.082-.286.13m8.038-1.403c-.406.09-.819.223-1.24.157.037.278-.005.562-.107.823-.052.03.044.072.057.024l.032.019c.035.097.144.133.238.144.242.022.484-.03.713-.102-.055-.052-.128-.1-.14-.182.008-.035.025-.066.04-.098.167.007.332.034.497.052a.87.87 0 0 0 .347-.738c-.003-.076-.055-.152-.133-.163a.6.6 0 0 0-.304.064m1.284-.453-.007.01c-.212.064-.415.155-.626.226a1.45 1.45 0 0 1-.164.906c-.065.042.07.064.043 0h.06c.003.055.07.069.116.066.18-.015.35-.09.508-.176-.052-.041-.112-.079-.145-.137-.023-.043.007-.087.016-.127q.194.006.385.039c.132-.156.23-.363.19-.572-.02-.101-.055-.215-.149-.272-.076-.041-.157.012-.228.037m1.18-.513-.622.284c.081.335.012.692-.162.988.044-.027.106-.037.139-.076.07.045.159.04.236.019.153-.042.3-.11.432-.198-.076-.056-.173-.148-.09-.242.098.01.194.018.29.033.12-.163.239-.365.19-.575a.5.5 0 0 0-.305-.288zm-6.566-.452a1.5 1.5 0 0 0-.53.165c-.189.136-.333.359-.324.599.01.232.14.437.287.608.275.3.636.537 1.041.608.307.047.635.039.916-.103.26-.126.502-.34.572-.63.067-.256.046-.568-.16-.76a1.84 1.84 0 0 0-.892-.44 2.6 2.6 0 0 0-.91-.047m7.636-.124a12 12 0 0 1-.538.304c.084.327.024.675-.109.979q.083-.054.155-.12c.086.09.212.013.298-.036.402-.248.503-.804.36-1.227q-.083.052-.166.1m-14.732-.4c-.214.123-.4.319-.45.567a.92.92 0 0 0 .278.817c.137.135.32.213.508.25v.003c.115.008.233.046.346.015a1.94 1.94 0 0 0 1.092-.393c.235-.18.44-.443.441-.751.01-.152-.08-.285-.178-.393-.21-.218-.512-.316-.806-.351-.42-.044-.862.021-1.232.236m15.544-.175a4 4 0 0 1-.264.208c.12.212.072.466.038.692l.104-.122.012.088c.061-.022.122-.058.148-.12a1.2 1.2 0 0 0 .105-.52c.003-.111-.037-.218-.025-.327q-.06.05-.118.101m-12.066-.84q.013.143.012.284a.4.4 0 0 1-.107.195 1 1 0 0 0-.052-.179q-.052-.135-.1-.27a6.6 6.6 0 0 0-1.961.574l-.042-.053-.14.08q.276.006.544.076c.148.044.295.103.426.185h.004q.112.082.21.182a.71.71 0 0 1 .095.721c-.18.443-.553.806-1.003.97q-.269.096-.552.109a1.8 1.8 0 0 1-.628-.088 1.5 1.5 0 0 1-.405-.224c.019.208.076.412.17.599-.085.04-.197.137-.122.236.1.105.253.133.39.16.367.452.857.784 1.371 1.044.423.214.867.384 1.326.5a4 4 0 0 1-.094-.374c-.02-.112-.033-.226-.064-.337a.52.52 0 0 1-.204-.316.45.45 0 0 1 .054-.253.8.8 0 0 0 .004.288.41.41 0 0 0 .325.242c.083.01.159-.032.23-.066.09-.051.18-.108.285-.115.116.005.166.125.225.208h.003c.116.13.29.225.468.2a.44.44 0 0 0 .236-.132 1 1 0 0 0 .139-.237l.018-.003c-.004.188-.136.346-.3.425q-.027.12-.068.236c-.064.13-.132.256-.216.373-.037.028.015.034.032.036.278.026.558.038.838.046.7.02 1.408.01 2.098-.123a6.3 6.3 0 0 0 1.402-.443c.35-.165.69-.378.936-.681.222-.281.321-.667.224-1.017a3.2 3.2 0 0 0-.35-.755c.044.167.084.337.06.51-.01.109-.056.207-.093.307v.02l-.012.001c-.12.194-.299.347-.505.443a1.865 1.865 0 0 1-2.11-.427c-.224-.25-.43-.557-.425-.905.005-.281.205-.517.441-.648.398-.221.87-.276 1.316-.236.196.027.394.067.572.152q.094.045.192.077a4.4 4.4 0 0 0-.593-.536 2 2 0 0 0-.18-.117 7.4 7.4 0 0 0-2.861-.93l-.092.249q-.045.121-.084.246c-.07-.068-.092-.162-.103-.256q.006-.132.019-.264-.6-.044-1.199.01m-1.225-.469c-.048.104.127.066.185.06.202-.007.4-.038.6-.058a1 1 0 0 0-.044-.086q-.015-.049-.033-.094c-.005-.014-.019-.04-.024-.054-.23.068-.467.127-.684.232m.275-.22c.12-.04.24-.085.36-.126l-.039-.088c-.108.069-.219.136-.321.214m2.785-.26-.023.07h-.004l-.033.076-.036.092-.027.066-.049.127c.861.075 1.72.27 2.499.652a5.83 5.83 0 0 1 2.372 2.13c.034.049.098.147.161.08.08-.171.052-.371.035-.554-.044-.392-.304-.713-.571-.985-.415-.403-.905-.719-1.419-.978a7.6 7.6 0 0 0-2.905-.777m-2.064.163.013.057h.007l.042.116.037.116c.483-.042.968-.058 1.452-.038l.05-.16q.025-.082.053-.162h.003l.037-.11c-.57 0-1.138.056-1.694.181m-.125-.295.035.08.039.095a7.3 7.3 0 0 1 1.822-.264l.079-.195.113-.262c.062-.139.13-.275.19-.414.065-.104.11-.22.172-.325-.854.355-1.67.792-2.45 1.285m7.142-1.488a7.3 7.3 0 0 0-1.898.66c-.288.156-.576.334-.79.588-.086.107-.16.243-.128.383.033.132.153.219.274.267a6.8 6.8 0 0 1 1.606.896c.368.282.712.605.972.992.142.221.276.47.266.741.001.11-.06.203-.104.299.21-.038.407-.118.607-.188a37 37 0 0 0 2.21-.924c.51-.235 1.02-.471 1.503-.756a.75.75 0 0 0 .299-.271c.11-.184.11-.41.068-.615-.095-.405-.34-.756-.619-1.058a4.7 4.7 0 0 0-1.176-.9 3.8 3.8 0 0 0-.844-.211c-.746-.108-1.51-.052-2.246.097m-4.002-.064c-.061.024-.13.036-.184.075-.052.081-.092.168-.136.253-.12.224-.226.455-.336.686l-.101.228h-.004q-.046.114-.096.226c.208.011.419.032.625 0a2 2 0 0 0 .459-.135c1.09-.463 2.181-.927 3.313-1.275.704-.217 1.428-.387 2.164-.444-.068-.019-.136-.044-.205-.053a7 7 0 0 0-.99-.176c-1.525-.16-3.07.106-4.509.616m-8.845-1.576a.6.6 0 0 0-.297.357.6.6 0 0 0 .026.461c.112.275.442.426.726.36a.632.632 0 0 0 .31-1.087.67.67 0 0 0-.765-.091m13.133-.63c-.132.336-.056.763.23.998a.64.64 0 0 0 .564.133.75.75 0 0 0 .51-.485 1 1 0 0 0 .045-.17.8.8 0 0 0-.022-.404c-.067-.306-.35-.568-.674-.56-.294-.003-.552.22-.653.488m-2.759.012c-.656.564-1.157 1.284-1.584 2.031 1.492-.51 3.08-.77 4.656-.668a1.2 1.2 0 0 1-.658-.673.84.84 0 0 1 .04-.688c.128-.236.352-.403.59-.516.018-.005.068-.036.023-.047a2.95 2.95 0 0 0-1.27-.224c-.671.035-1.295.356-1.797.785m2.19-1.246h.46c.446.033.926.124 1.264.441.257.233.357.596.336.935-.023.352-.088.722-.306 1.012a.8.8 0 0 1-.392.266c.96.107 1.91.356 2.774.794.465.237.906.534 1.273.91.308.32.568.704.66 1.146.053.25.037.513-.041.756.16.392.125.836-.004 1.23a1.67 1.67 0 0 1-.65.887c-.089.06-.2.055-.302.043a2.7 2.7 0 0 1-.535.593c.427.13.84.323 1.195.597.274.215.513.488.641.816.059.151.088.311.105.471v.192a.5.5 0 0 1-.093.268c-.07.088-.216.108-.301.03-.04-.04-.027-.103-.028-.154.021-.196-.067-.379-.124-.561-.12-.359-.335-.694-.65-.91-.302-.234-.686-.308-1.035-.446-.136-.063-.291-.046-.428-.104q-.175.198-.392.352c.47.164.928.39 1.302.725.324.287.575.673.634 1.108.024.201.048.424-.055.607-.07.125-.283.164-.366.036-.038-.115.014-.239-.022-.355-.095-.321-.196-.648-.39-.925a1.9 1.9 0 0 0-.712-.606c-.209-.097-.432-.162-.65-.24-.123-.04-.246-.106-.38-.09a.47.47 0 0 1-.239-.06c-.132.12-.281.216-.435.306.094.051.198.078.294.119.436.181.854.417 1.201.74.323.297.58.681.668 1.115.045.24.076.496-.004.732a.31.31 0 0 1-.224.209h-.093c-.059-.019-.13-.043-.146-.11-.029-.126.023-.257-.017-.382-.116-.397-.245-.805-.502-1.139a2.24 2.24 0 0 0-.798-.633c-.426-.176-.874-.296-1.297-.48-.368.23-.815.257-1.237.253a.9.9 0 0 1-.326-.058c-.296.35-.688.609-1.1.802-.39.178-.797.311-1.212.412-.652.155-1.325.202-1.994.204-.684-.014-1.371-.029-2.046-.15a6.9 6.9 0 0 1-2.298-.86 7 7 0 0 0-.138.566c-.028.128.008.26-.015.388-.018.106-.16.143-.236.075-.104-.09-.118-.237-.133-.365a2.6 2.6 0 0 1 .12-.934 4 4 0 0 1-.555-.502c-.174.17-.316.373-.414.596-.138.306-.212.636-.283.962-.03.135.01.274-.017.408-.024.111-.184.131-.253.05-.095-.107-.107-.258-.118-.394-.01-.412.067-.83.255-1.2.14-.28.339-.529.567-.742a2.04 2.04 0 0 1-.414-1.346c.005-.156.04-.308.07-.46.09-.208.145-.432.254-.632.099-.122.17-.278.31-.358.164-.052.26-.204.394-.302.163-.114.322-.233.495-.332.105-.062.22-.112.317-.19.51-.411 1.04-.799 1.59-1.154a11 11 0 0 0-.79-1.425c-.328-.487-.71-.944-1.177-1.301a2.97 2.97 0 0 0-1.463-.622 3 3 0 0 0-1.278.131c.216.099.436.227.56.437a.58.58 0 0 1-.016.6c-.16.262-.45.434-.751.474a.7.7 0 0 1-.612-.21c-.167-.184-.225-.437-.25-.677v-.28a.85.85 0 0 1 .338-.575c.33-.236.75-.284 1.144-.297.485 0 .973.063 1.439.204.649.213 1.19.661 1.654 1.152.606.653 1.09 1.412 1.478 2.212a16 16 0 0 1 2.668-1.339c.53-.936 1.154-1.84 1.972-2.55.338-.288.714-.544 1.136-.696.376-.131.773-.186 1.169-.216" style="fill:#191919;fill-opacity:1;fill-rule:nonzero;stroke:none;stroke-width:1.33333325"/><path d="M288.059 156.87q-.06.05-.118.103-.128.107-.264.208c.12.21.074.464.04.692l.102-.124.012.088c.063-.022.122-.056.148-.12a1.2 1.2 0 0 0 .107-.52c.003-.11-.038-.216-.027-.327m-.929.677q-.265.158-.537.304c.084.325.023.674-.11.978q.081-.055.155-.12c.087.091.212.014.3-.037.4-.247.502-.803.358-1.225q-.082.052-.166.1m-.846 1.383c.12-.162.237-.365.19-.574a.5.5 0 0 0-.305-.288q-.054.028-.11.054l-.62.284c.08.336.01.692-.162.988.044-.026.105-.037.139-.076.07.046.157.04.236.019.153-.041.3-.11.432-.197-.076-.056-.174-.148-.09-.243q.145.013.29.033m-1.176-.331c-.076-.042-.156.012-.228.037l-.005.01c-.213.065-.416.155-.626.226a1.45 1.45 0 0 1-.164.907h.042c.016-.001.046-.001.06-.003.004.056.071.07.116.068.18-.015.351-.09.508-.176-.05-.043-.112-.079-.145-.138-.021-.042.007-.086.017-.126q.195.006.384.037c.132-.156.23-.363.192-.57-.021-.102-.057-.215-.15-.273m-1.209.427a.6.6 0 0 0-.304.064c-.405.09-.818.224-1.24.157a1.7 1.7 0 0 1-.105.824l.056.023.033.019c.034.097.143.133.238.144.24.024.482-.03.713-.102-.056-.052-.13-.101-.14-.182.008-.035.024-.066.04-.098.167.007.33.034.496.054a.87.87 0 0 0 .347-.74c-.003-.076-.055-.152-.134-.163" style="fill:#74b743;fill-opacity:1;fill-rule:nonzero;stroke:none;stroke-width:1.33333325"/><path d="M272.685 157.161c.355-.165.776-.136 1.128.02.224.099.437.26.523.496-.148-.101-.288-.217-.45-.298-.313-.168-.692-.24-1.036-.124.166.008.334.093.39.257a1 1 0 0 1 .028.201.44.44 0 0 1-.29.322c-.112.01-.234.007-.326-.066-.098-.062-.146-.173-.168-.282 0-.112.044-.216.1-.311-.19.121-.342.292-.47.475.09-.292.29-.558.571-.69m6.983.607c.422-.08.865.05 1.216.288.213.148.412.355.456.62-.259-.295-.564-.567-.94-.7a1.5 1.5 0 0 0-.554-.083c.126.1.2.27.132.424a1 1 0 0 1-.04.082c-.085.105-.222.137-.352.122a.4.4 0 0 1-.185-.114c-.096-.115-.084-.275-.03-.404-.17.074-.32.184-.462.301.16-.276.444-.479.759-.536" style="fill:#fff;fill-opacity:1;fill-rule:nonzero;stroke:none;stroke-width:1.33333325"/><path d="M283.178 152.29c.153.129.37.183.565.133a.75.75 0 0 0 .51-.486 1 1 0 0 0 .045-.17.8.8 0 0 0-.023-.403c-.065-.307-.35-.568-.672-.56-.296-.003-.553.22-.653.488-.134.336-.058.763.228.997m-12.599-.276a.66.66 0 0 0-.763-.093.62.62 0 0 0-.298.359.6.6 0 0 0 .028.461c.11.275.44.425.724.36a.64.64 0 0 0 .506-.533.63.63 0 0 0-.197-.553m7.321 2.725-.097.226c.21.011.419.031.625 0a2 2 0 0 0 .46-.135c1.088-.463 2.18-.927 3.312-1.275.706-.217 1.428-.387 2.164-.444-.068-.02-.134-.044-.205-.053a7 7 0 0 0-.99-.176c-1.525-.16-3.07.105-4.507.614-.063.026-.13.038-.186.076-.052.082-.092.168-.136.254-.12.224-.226.454-.334.685q-.053.114-.103.228z" style="fill:#eac500;fill-opacity:1;fill-rule:nonzero;stroke:none;stroke-width:1.33333325"/><path d="M287.548 155.633c-.095-.406-.342-.756-.619-1.059a4.7 4.7 0 0 0-1.177-.9 3.8 3.8 0 0 0-.844-.21c-.747-.109-1.51-.053-2.246.097a7.3 7.3 0 0 0-1.897.658c-.288.16-.577.335-.79.591-.087.105-.16.241-.13.383.035.13.155.217.275.265a6.7 6.7 0 0 1 1.605.896c.368.283.713.605.972.993.144.22.277.47.268.74 0 .11-.06.203-.105.3.21-.038.408-.118.606-.189.748-.28 1.484-.595 2.211-.923.51-.236 1.02-.472 1.504-.757a.77.77 0 0 0 .299-.27c.11-.185.11-.411.068-.615m-11.953-.409a7.3 7.3 0 0 1 1.821-.264l.08-.195.112-.262c.063-.139.13-.275.192-.414.063-.104.11-.22.17-.326a16.4 16.4 0 0 0-2.449 1.285l.034.08zm.071.176.042.118.036.116a11 11 0 0 1 1.452-.04l.05-.16.053-.161h.003l.037-.111c-.569 0-1.137.056-1.693.181l.013.058z" style="fill:#eac500;fill-opacity:1;fill-rule:nonzero;stroke:none;stroke-width:1.33333325"/><path d="M282.033 156.936c-.413-.404-.904-.719-1.418-.979a7.6 7.6 0 0 0-2.906-.776l-.021.071h-.005l-.032.075-.036.093-.028.067q-.024.063-.05.125c.862.075 1.72.27 2.5.652a5.85 5.85 0 0 1 2.373 2.13c.033.049.097.148.16.082.081-.172.052-.372.036-.555-.046-.392-.306-.713-.572-.985m-6.788-1.709c-.108.07-.219.138-.321.215l.36-.125zm-2.882 1.786c.163-.052.26-.204.393-.301-.14.089-.265.197-.393.3m-.311.36c-.136.185-.23.403-.254.632.09-.208.144-.432.254-.632" style="fill:#eac500;fill-opacity:1;fill-rule:nonzero;stroke:none;stroke-width:1.33333325"/><path d="M280.309 160.616a3.5 3.5 0 0 1-1.036-.22 1.8 1.8 0 0 1-.512-.27c-.052-.045-.115-.106-.096-.182.045-.075.142-.088.222-.096.274-.02.547.032.811.099.279.074.557.169.801.326a.6.6 0 0 1 .194.199c-.062.153-.248.136-.384.144m1.224-2.181c.044.165.084.337.058.51-.009.108-.054.207-.092.307v.02h-.012c-.12.195-.298.348-.505.444a1.865 1.865 0 0 1-2.11-.427c-.223-.25-.43-.557-.425-.905.005-.281.206-.517.442-.648.397-.223.869-.276 1.316-.236.196.027.393.065.572.152q.093.044.192.077a4.4 4.4 0 0 0-.594-.536 2 2 0 0 0-.18-.117 7.4 7.4 0 0 0-2.861-.93l-.092.249q-.044.122-.084.246c-.07-.068-.092-.162-.103-.256q.006-.133.02-.264-.6-.043-1.2.011.014.143.012.284a.4.4 0 0 1-.106.195 1 1 0 0 0-.052-.179q-.052-.135-.1-.27a6.6 6.6 0 0 0-1.962.574l-.04-.053-.14.08q.274.006.543.076c.15.044.295.102.425.185h.004q.113.081.21.182a.71.71 0 0 1 .096.721c-.18.443-.554.804-1.003.97q-.27.095-.552.109a1.8 1.8 0 0 1-.628-.088 1.5 1.5 0 0 1-.405-.224c.018.208.076.412.17.598a1.4 1.4 0 0 1 .346-.108c.2-.034.402-.04.605-.03.155.014.315.037.456.106.055.03.116.074.117.142-.007.089-.094.134-.162.174-.184.08-.384.112-.583.132-.17.004-.341.005-.51-.02.366.451.857.784 1.37 1.044q.636.324 1.325.5a4 4 0 0 1-.093-.373c-.021-.112-.033-.227-.064-.337a.52.52 0 0 1-.204-.318.45.45 0 0 1 .053-.252c-.009.096-.02.194.004.288.06.13.183.227.326.243.082.009.158-.032.23-.067.09-.05.18-.109.284-.116.116.007.167.127.226.208l.003.001c.116.13.29.226.468.2a.44.44 0 0 0 .236-.132 1 1 0 0 0 .138-.237l.02-.003c-.005.188-.137.347-.302.425-.015.08-.042.159-.066.236a3 3 0 0 1-.217.374c-.037.028.015.033.032.036.277.025.557.037.837.045.7.021 1.408.01 2.1-.123a6.3 6.3 0 0 0 1.4-.442c.351-.166.69-.379.936-.682.223-.281.322-.666.224-1.017a3.2 3.2 0 0 0-.349-.755m-6.698-2.711c.202-.007.4-.04.6-.06a1 1 0 0 0-.044-.084l-.032-.095-.025-.053c-.23.068-.467.126-.683.232-.05.104.126.065.184.06" style="fill:#eac500;fill-opacity:1;fill-rule:nonzero;stroke:none;stroke-width:1.33333325"/><path d="M273.886 157.38c-.313-.169-.69-.24-1.035-.126.166.009.332.093.39.257q.024.1.026.203a.44.44 0 0 1-.288.321c-.112.01-.234.005-.328-.065-.097-.063-.145-.174-.166-.283a.6.6 0 0 1 .099-.31c-.191.12-.34.291-.471.474a1.12 1.12 0 0 1 .572-.69c.355-.166.777-.137 1.13.02.222.1.435.26.52.495-.147-.1-.287-.216-.449-.297m-.256-.47c-.42-.043-.862.023-1.232.237-.213.124-.4.318-.45.566a.92.92 0 0 0 .278.82 1 1 0 0 0 .508.247l.001.005c.115.008.232.044.346.013.392-.01.778-.158 1.092-.392.234-.18.44-.442.44-.75.01-.152-.08-.286-.178-.394-.21-.218-.512-.317-.805-.352m6.77 1.068a1.5 1.5 0 0 0-.553-.083c.124.099.2.27.132.423a1 1 0 0 1-.042.082c-.084.106-.221.138-.35.123a.4.4 0 0 1-.187-.116c-.095-.113-.083-.273-.03-.404-.17.076-.318.185-.46.301.16-.276.443-.477.758-.534.423-.082.865.049 1.216.288.213.148.412.353.455.62-.259-.296-.563-.568-.939-.7m.897.182a1.85 1.85 0 0 0-.893-.441 2.6 2.6 0 0 0-.91-.048 1.6 1.6 0 0 0-.53.165c-.19.136-.332.36-.323.599.01.232.139.439.287.608.275.3.636.537 1.041.608.306.047.634.039.915-.103.26-.125.503-.338.573-.629.066-.256.044-.57-.16-.759" style="fill:#74b743;fill-opacity:1;fill-rule:nonzero;stroke:none;stroke-width:1.33333325"/><path d="M272.693 159.185c.2-.036.402-.043.605-.031.155.013.315.036.456.107.055.028.116.073.117.141-.007.088-.094.135-.162.175-.184.08-.384.11-.583.13-.17.005-.341.005-.51-.02-.138-.026-.291-.053-.391-.158-.075-.1.037-.196.121-.236a1.4 1.4 0 0 1 .347-.108m5.971.76c.045-.076.143-.088.223-.098.273-.018.546.032.812.1.278.075.556.17.8.326a.6.6 0 0 1 .193.198c-.061.155-.248.136-.384.146a3.5 3.5 0 0 1-1.035-.22 1.9 1.9 0 0 1-.513-.27c-.05-.046-.115-.106-.096-.182" style="fill:#ed4792;fill-opacity:1;fill-rule:nonzero;stroke:none;stroke-width:1.33333325"/><g clip-path="url(#a)" style="opacity:.53999299" transform="matrix(1.33333 0 0 -1.33333 0 341.333)"><path d="M0 0c.02-.048-.081-.031-.032 0z" style="fill:#192112;fill-opacity:1;fill-rule:nonzero;stroke:none" transform="translate(213.096 136.166)"/></g><g clip-path="url(#b)" style="opacity:.38999903" transform="matrix(1.33333 0 0 -1.33333 0 341.333)"><path d="M0 0c-.01-.036-.082-.005-.042.018z" style="fill:#283719;fill-opacity:1;fill-rule:nonzero;stroke:none" transform="translate(211.73 135.93)"/></g><path d="M276.153 160.662c-.126-.077-.154-.262-.308-.3-.111 0-.194.082-.286.13a.5.5 0 0 1-.345.046c.079.195.112.402.161.603.059.199.128.439.34.521.139.064.298.001.402-.098.162-.158.262-.366.36-.567l.098-.215a.83.83 0 0 1-.422-.12" style="fill:#ed4792;fill-opacity:1;fill-rule:nonzero;stroke:none;stroke-width:1.33333325"/><path d="M40 264a8 8 0 0 0-8 8 8 8 0 0 0 8 8 8 8 0 0 0 8-8 8 8 0 0 0-8-8" style="fill:gray;fill-opacity:1;fill-rule:nonzero;stroke:none;stroke-width:1.33333325"/><path d="M40 266.667a5.334 5.334 0 1 1 0 10.667 5.334 5.334 0 0 1 0-10.667" style="fill:#a3834a;fill-opacity:1;fill-rule:nonzero;stroke:none;stroke-width:1.33333325"/><path d="M301.333 264a8 8 0 0 0-8 8 8 8 0 0 0 8 8 8 8 0 0 0 8-8 8 8 0 0 0-8-8" style="fill:gray;fill-opacity:1;fill-rule:nonzero;stroke:none;stroke-width:1.33333325"/><path d="M301.333 266.667a5.334 5.334 0 1 1 0 10.667 5.334 5.334 0 0 1 0-10.667" style="fill:#a3834a;fill-opacity:1;fill-rule:nonzero;stroke:none;stroke-width:1.33333325"/><path d="M85.333 98.667H58.667V77.333h26.666z" style="fill:#191919;fill-opacity:1;fill-rule:nonzero;stroke:none;stroke-width:1.33333325"/><path d="M84 88c0 1.473-1.79 2.667-4 2.667S76 89.473 76 88s1.79-2.667 4-2.667 4 1.194 4 2.667" style="fill:#b80000;fill-opacity:1;fill-rule:nonzero;stroke:none;stroke-width:1.33333325"/><path d="M68 88c0 1.473-1.79 2.667-4 2.667S60 89.473 60 88s1.79-2.667 4-2.667 4 1.194 4 2.667" style="fill:#007b00;fill-opacity:1;fill-rule:nonzero;stroke:none;stroke-width:1.33333325"/><path d="M76 82.667c0 1.473-1.79 2.666-4 2.666s-4-1.193-4-2.666C68 81.193 69.79 80 72 80s4 1.193 4 2.667" style="fill:#354f9f;fill-opacity:1;fill-rule:nonzero;stroke:none;stroke-width:1.33333325"/><path d="M76 93.333C76 94.807 74.21 96 72 96s-4-1.193-4-2.667 1.79-2.666 4-2.666 4 1.193 4 2.666" style="fill:#eac500;fill-opacity:1;fill-rule:nonzero;stroke:none;stroke-width:1.33333325"/><path d="M59.79 101.823a.76.76 0 0 0-.337.076q-.138.073-.138.274 0 .156.116.222a.55.55 0 0 0 .274.066l.818-.004q.045.004.095.004.048 0 .097.004.144.007.283.043a.6.6 0 0 1 .248.127.5.5 0 0 1 .147.195.8.8 0 0 1 .06.237l.008.07.002.074q-.009.46-.284.625-.276.165-.746.164h-1.646v-.472h1.548a.8.8 0 0 0 .354-.06q.15-.062.12-.284-.018-.172-.142-.213a1 1 0 0 0-.292-.045l-.728-.003q-.455.004-.718-.164-.266-.168-.262-.608.01-.46.286-.63.276-.165.748-.166l1.618-.004v.472zM62.937 104q-.555-.005-.864-.207-.31-.2-.308-.768v-1.674h.74v1.593q-.002.276.096.372.096.096.394.096l.598.004v-2.065h.74V104Zm3.171-2.177h-.715v.782h.75q.225 0 .389-.08.162-.08.162-.308.008-.254-.172-.322a1.2 1.2 0 0 0-.414-.068zm.008-.472q.003.004.01.004h.164q.078-.002.156.007.138.008.275.035a1 1 0 0 1 .255.09.67.67 0 0 1 .309.314q.09.2.095.417a.9.9 0 0 1-.076.384.7.7 0 0 1-.263.307.9.9 0 0 1-.336.13q-.18.03-.37.039h-.195l-.747-.004V104h-.616v-2.65zm2.435.625q-.168.16-.19.456l1.713-.004v.461h-1.716q0 .141.034.27.036.13.142.236a.4.4 0 0 0 .224.124q.127.024.264.024h.038l1.014-.004V104H69.03q-.25 0-.482-.041-.231-.04-.436-.188a.96.96 0 0 1-.344-.44 1.6 1.6 0 0 1-.108-.648l.006-.111q.045-.627.378-.923.335-.294 1.002-.294l1.028-.004v.461h-1.015q-.34.004-.508.164m3.376-.153h-.802v.668h.802q.007.004.017.004h.016q.208 0 .38-.053.17-.055.165-.283.001-.236-.178-.284a1.6 1.6 0 0 0-.4-.048zm.154-.472q.048.004.094.004.045 0 .093.003a2 2 0 0 1 .35.048.72.72 0 0 1 .474.376.8.8 0 0 1 .07.266q.001.027.005.052l.001.051a.75.75 0 0 1-.15.479q-.154.2-.477.266l.775 1.104h-.737l-.683-1.04h-.77V104h-.654v-2.649zm3.094.336q.273-.332 1.195-.332l.957-.004v.46h-1.01q-.394.009-.58.153-.185.143-.206.497l1.796-.004v.459h-1.796V104h-.628v-1.217q0-.765.272-1.096m7.979-.354q.477.011.746.211.27.203.276.765v1.674h-.654v-1.59q-.001-.371-.146-.429-.149-.057-.442-.047a1 1 0 0 1-.096.004h-.1v2.062h-.662v-2.066h-.76v2.066h-.654v-2.65zm1.43.017h.75V104h-.75zm-5.91 2.117h.861v-.548h-.812a.04.04 0 0 1-.018.005h-.02a.7.7 0 0 0-.258.052q-.118.048-.124.224-.009.196.107.232.116.034.264.04zm.496-2.117q.225.005.437.053.21.049.379.219a.8.8 0 0 1 .2.332q.055.191.056.392v1.655h-1.85q-.4 0-.613-.224-.213-.225-.192-.622.035-.477.331-.618.297-.14.708-.14l.904-.005q.015-.327-.165-.408a1.2 1.2 0 0 0-.458-.08l-1.148-.004v-.55zm203.239-14.658h-31.484c-2.66.01-4.275-1.801-4.275-4.023s1.625-4.018 4.275-4.024h31.484c2.65.006 4.273 1.802 4.273 4.024s-1.615 4.034-4.273 4.023m.014-9.359H250.91c-3.335-.008-5.576 2.426-5.576 5.343s2.236 5.323 5.58 5.324h31.506c3.346-.001 5.58-2.407 5.58-5.324s-2.24-5.35-5.576-5.343" style="fill:#191919;fill-opacity:1;fill-rule:nonzero;stroke:none;stroke-width:1.33333325"/><path d="M271.62 80.677h1.49v.675h.804v.499h-.804v3.332h-1.491V81.85h-.807v-.498h.809zm-17.44 1.167h1.488v3.339h-1.488zm-.003-1.684h1.491v1.027h-1.49zm27.353 3.212v.706c0 .532-.31.752-.608.752-.299 0-.61-.22-.61-.752v-.72l.001-.696c0-.53.311-.748.608-.748.298 0 .608.218.608.748zm-.597-1.872c-1.201 0-2.176.84-2.176 1.875s.975 1.875 2.176 1.875 2.174-.84 2.174-1.875-.972-1.875-2.174-1.875m-22.918 1.39c0-.518.352-.65.583-.65.237 0 .584.132.584.65l-.001.593v.596c0 .514-.346.65-.582.65-.232 0-.584-.136-.584-.65v-.594Zm-1.457-2.74v5.022h1.47l.001-.193c.57.362 1.21.361 1.712.125a1.78 1.78 0 0 0 1.018-1.656c0-.88-.82-1.844-1.891-1.748-.353.032-.605.163-.843.299V80.15zm11.486 2.07a.603.603 0 0 1 1.047 0c.094.166.098.362.096.654h-1.242c-.003-.292.004-.488.099-.654m1.14 1.864c0 .612-.397.746-.616.746-.22 0-.623-.134-.623-.746l.001-.69h2.803c0-1.036-.985-1.893-2.196-1.893-1.21 0-2.19.839-2.19 1.875 0 1.034.98 1.874 2.19 1.874 1.004 0 1.852-.581 2.112-1.37l-1.483.002zm-17.468.602v-4.549h-1.49v5.045h3.102v-.496zm25.319-1.62h1.457c-.15-1.077-1.144-1.39-1.656-1.376a1.8 1.8 0 0 0-1.187.505v-.353l-1.476.001v3.34h1.477l-.001-2.193c0-.29.3-.615.706-.615s.68.324.68.615zM263.1 81.847v-.592c0-.516.352-.65.584-.65.236 0 .583.134.583.65l-.001.595v.593c0 .518-.346.65-.583.65-.231 0-.583-.132-.583-.65zm2.744.038a1.78 1.78 0 0 0-1.017-1.656 1.77 1.77 0 0 0-1.712.125l-.001-.193h-1.471v5.021h1.468v-1.848q.01.007.02.01l1.152 1.838h1.457l-1.04-1.657c.683-.272 1.144-.979 1.144-1.64" style="fill:#191919;fill-opacity:1;fill-rule:nonzero;stroke:none;stroke-width:1.33333325"/><path d="M154.312 152.485c0-.122.004-.166 0-.208-.034-.275-.113-.53-.298-.738a4.1 4.1 0 0 0-2.124-1.285c-.392-.095-.608.141-.537.55.024.138.058.277.114.405a7 7 0 0 0 1.008 1.674c.178.215.382.403.619.544.532.316.93.158 1.113-.448.056-.184.082-.38.106-.494m3.705.94c.355.016.665-.15.981-.28 1.258-.512 2.39-1.312 3.69-1.735.302-.097.153-.277.016-.403a19 19 0 0 0-1.596-1.302c-.302-.216-.458-.162-.518.225-.102.659-.424 1.16-.89 1.59a8 8 0 0 0-.655.698c-.341.404-.739.756-1.023 1.213l-.024.007c-.003.003 0 .013 0 .019zm-8.685 2.09v-1.695c.119-.226.092-.482.146-.72.389-1.763 1.189-3.272 2.525-4.454 1.905-1.684 4.105-2.293 6.541-1.828 2.19.42 3.948 1.624 5.112 3.618 1.636 2.798 1.602 5.638.018 8.468-.215.382-.555.674-.712 1.094a10.3 10.3 0 0 1-3.48-2.698c-.834-1.002-1.535-2.11-2.372-3.107-.091-.11-.1-.23-.1-.363-.003-1.896.124-3.774.7-5.59.089-.286.009-.43-.254-.511-.568-.177-1.132-.368-1.701-.54-.205-.061-.432-.139-.615.065-.178.2-.12.438-.037.644.337.846.467 1.73.512 2.635.092 1.852.021 3.69-.49 5.483-.553 1.948-1.646 3.485-3.286 4.59-.059-.074-.112-.154-.177-.222-1.042-1.09-1.76-2.366-2.112-3.867-.08-.333-.071-.687-.218-1.003" style="fill:#354f9f;fill-opacity:1;fill-rule:nonzero;stroke:none;stroke-width:1.33333325"/><path d="M162.963 159.998c.568.28 1.16.496 1.752.71q.321.112.618.28v.13c-.1.023-.198.055-.3.068-1.248.165-2.498.265-3.756.145-.873-.264-1.574-.81-2.21-1.466-.778-.804-1.451-1.7-2.118-2.602-.174-.236-.35-.472-.562-.761-.05.21-.082.353-.115.496-.304 1.275-.856 2.39-1.872 3.215-.53.43-1.144.693-1.756.957-.768.195-1.537.375-2.404.404.593-.316 1.124-.595 1.6-.968 1.641-1.105 2.733-2.643 3.288-4.59.51-1.793.581-3.631.488-5.485-.045-.904-.175-1.788-.512-2.633-.081-.207-.141-.444.039-.644.182-.204.408-.127.614-.065.57.172 1.134.362 1.702.54.26.081.342.225.252.509-.576 1.817-.703 3.696-.7 5.592 0 .133.009.253.1.361.837.998 1.538 2.107 2.373 3.108a10.3 10.3 0 0 0 3.479 2.699" style="fill:#b80000;fill-opacity:1;fill-rule:nonzero;stroke:none;stroke-width:1.33333325"/><path d="M158.023 153.43c.284-.455.682-.809 1.023-1.213.205-.242.421-.48.655-.696.465-.432.788-.932.89-1.592.06-.385.216-.44.516-.224.556.4 1.087.839 1.596 1.302.14.125.288.305-.016.404-1.298.421-2.432 1.221-3.689 1.736-.316.129-.625.293-.98.278zm-3.711-.945c-.024.114-.049.31-.105.494-.183.606-.581.764-1.113.448a2.4 2.4 0 0 1-.62-.544 7 7 0 0 1-1.007-1.674 1.8 1.8 0 0 1-.115-.406c-.07-.408.146-.644.538-.55.832.2 1.54.634 2.124 1.286.185.208.264.463.297.738.005.042 0 .086 0 .208m3.707.94-.02.032v-.019l.025-.008z" style="fill:#b80000;fill-opacity:1;fill-rule:nonzero;stroke:none;stroke-width:1.33333325"/><path d="M161.277 161.331c-.401.418-.923.62-1.436.808-2.481.916-4.843.638-7.07-.832-.051-.032-.086-.09-.127-.137.613-.264 1.225-.527 1.756-.957 1.017-.826 1.569-1.94 1.872-3.215l.114-.496.564.761c.666.903 1.339 1.798 2.118 2.602.634.656 1.336 1.202 2.209 1.466" style="fill:#354f9f;fill-opacity:1;fill-rule:nonzero;stroke:none;stroke-width:1.33333325"/><path d="M171.04 155.371c.943.099 1.88.163 2.831.163.274 0 .854 0 .854-.332 0-.247-.15-.296-1.632-.296-.762 0-1.598-.219-1.598-1.01 0-1.086.662-1.967 1.656-2.207.555-.134 1.358-.148 1.97-.148.829 0 2.162.034 3.372.19l-.522 1.559c-.804-.084-1.598-.155-2.41-.155-.986 0-1.218.12-1.218.359 0 .205.166.261 1.466.261.944 0 1.772.036 1.772 1.094 0 .396-.215.946-.388 1.185-.514.705-1.342.84-2.974.84-1.325 0-2.45-.064-3.552-.233zm8.21-2.913h2.401l-.315 1.001h.018c.504-.797 1.158-1.15 2.21-1.15.828 0 1.566.248 1.566.989 0 .281-.083.577-.183.875l-.82 2.553h-2.5l.421-1.29c.083-.255.224-.685.224-.847 0-.275-.224-.36-.489-.36-.463 0-.687.12-.885.769l-.531 1.728h-2.45zm10.777 1.672c.024-.127.05-.234.05-.339 0-.317-.414-.395-.63-.395-.58 0-.902.142-1.15.734zm-2.06.896a.6.6 0 0 0-.044.225c0 .459.672.473 1.202.473.778 0 1.54-.148 2.277-.282l-.647 1.121a12.8 12.8 0 0 1-2.757.31c-1.135 0-2.55-.09-2.55-1.34 0-.93.489-1.975.951-2.447.738-.748 1.632-.776 2.708-.776 2.22 0 3.074.332 3.074 1.481 0 .247-.266.952-.415 1.235zm4.499.514c.662.1 1.333.12 2.004.12.19 0 .993 0 .993-.267 0-.155-.099-.198-.29-.198-.24 0-.58.022-.943.022-.986 0-1.548-.129-1.548-1.031 0-.98.612-1.876 2.964-1.876.82 0 2.145 0 3.221.155l-.39 1.305c-.471-.099-1.523-.12-1.83-.12-.347 0-1.184.015-1.184.283 0 .176.108.21.415.21.181 0 .464-.013.844-.013.804 0 1.524.064 1.524.924 0 1.728-1.78 1.82-3.362 1.82-.928 0-1.838-.063-2.758-.133zm10.844-2.2c0-.403-.34-.46-.68-.46-.638 0-.994.48-.994.925 0 .325.307.416.696.416.787 0 .977-.62.977-.881m-4.165 2.102a7.5 7.5 0 0 0 1.979.282c.729 0 1.582-.19 1.722-.91h-.016c-.365.282-.886.367-1.392.367-.96 0-2.202-.163-2.202-1.207 0-.437.116-.868.34-1.262.513-.896 1.242-1.171 3.064-1.171 2.484 0 3.146.508 3.146 1.693 0 .684-.364 1.743-.802 2.476-.647 1.094-2.527 1.164-3.422 1.164-.744 0-1.78-.106-2.765-.31zm10.032.007-1.101 1.277h-2.659l2.112-2.046-.944-2.222h2.535l.372 1.34 1.117-1.34h2.726l-2.278 2.179.919 2.09h-2.41z" style="fill:gray;fill-opacity:1;fill-rule:nonzero;stroke:none;stroke-width:1.33333325"/><path d="M113.598 153.449q-.255.528-.279 1.225v.241q0 .124.008.25.024.26.104.508.078.249.263.442a.82.82 0 0 0 .441.25q.252.048.514.048h.072l1.974-.008v.929h-2.03a5 5 0 0 1-.936-.083 2 2 0 0 1-.848-.378 1.94 1.94 0 0 1-.668-.888 3.4 3.4 0 0 1-.207-1.074 2 2 0 0 1-.005-.229q.005-.113.012-.223.088-1.263.737-1.857t1.947-.595l1.999-.007v.914h-1.975q-.868.007-1.123.534m5.375 1.665h1.704l-.868-2.051zm1.521-3.112 2.436 5.333h-1.337l-.526-1.27h-2.485l-.51 1.27h-1.265L119.22 152zm2.246.935v-.928h4.937v.928h-1.856v4.397h-1.242v-4.397Z" style="fill:#a3834a;fill-opacity:1;fill-rule:nonzero;stroke:none;stroke-width:1.33333325"/><path d="M130.12 152.95q-.39.009-.657.153-.266.145-.266.553 0 .313.228.445.225.135.529.135l1.592-.008q.088.008.184.008a3 3 0 0 1 .74.092q.27.072.477.258.191.163.287.393t.12.475l.012.145q.004.071.004.145-.016.93-.55 1.26-.532.33-1.449.33h-3.201v-.95h3.01q.398.006.689-.12t.234-.572q-.038-.35-.278-.43a1.9 1.9 0 0 0-.566-.09l-1.417-.008q-.885.007-1.397-.33-.514-.338-.506-1.222.016-.927.554-1.266.537-.339 1.453-.338l3.145-.008v.951z" style="fill:#b80000;fill-opacity:1;fill-rule:nonzero;stroke:none;stroke-width:1.33333325"/><path d="M134.751 152.676q.521-.668 2.29-.668l1.831-.008v.928h-1.934q-.759.015-1.112.305t-.394 1.003l3.44-.008v.921h-3.44v2.184h-1.202v-2.45q0-1.54.521-2.207" style="fill:#007b00;fill-opacity:1;fill-rule:nonzero;stroke:none;stroke-width:1.33333325"/><path d="M140.902 153.449q-.255.528-.278 1.225v.241q0 .124.008.25.024.26.104.508.078.249.262.442a.82.82 0 0 0 .442.25q.251.048.513.048h.072l1.975-.008v.929h-2.03a5 5 0 0 1-.937-.083 2 2 0 0 1-.848-.378 1.94 1.94 0 0 1-.668-.888 3.4 3.4 0 0 1-.207-1.074 2 2 0 0 1-.005-.229q.005-.113.012-.223.089-1.263.738-1.857.648-.594 1.946-.595l2-.007v.914h-1.976q-.868.007-1.122.534m80.227-2.612h-1.75v3.56h1.75zm.137 4.199h-1.887v3.173h-.713v-8h2.6c.336 0 .577.23.577.565v3.686a.556.556 0 0 1-.577.576m4.376-4.199h-1.962v6.743h1.962zm.136 7.372h-2.244a.54.54 0 0 1-.567-.565v-6.87c0-.336.23-.565.567-.565h2.244c.336 0 .576.23.576.565v6.87c0 .334-.24.565-.576.565m4.49-.001h-2.067a.54.54 0 0 1-.565-.565v-6.87c0-.334.23-.565.565-.565h2.067c.336 0 .576.231.576.566v1.864h-.712v-1.802h-1.783v6.744h1.783v-1.969h.712v2.032c0 .335-.24.565-.576.565m4.385 0-1.846-3.842v3.842h-.713v-8h.713v3.592l1.678-3.592h.776v.042l-1.815 3.812 1.993 4.105v.041zm1.439 0v-8h2.6v.628h-1.887v2.984h1.72v.64h-1.72v3.12h1.92v.628zm5.267-7.371v7.372h-.714v-7.372h-1.248v-.628h3.199v.628z" style="fill:#354f9f;fill-opacity:1;fill-rule:nonzero;stroke:none;stroke-width:1.33333325"/><path d="M248.052 158.207h-2.013c-.336 0-.578-.23-.578-.565v-2.032h.714v1.97h1.73v-1.906l-2.212-2.67c-.168-.2-.232-.337-.232-.609v-1.622c0-.335.242-.566.578-.566h2.013a.54.54 0 0 1 .567.566v1.864h-.714v-1.802h-1.73v1.686l2.222 2.67c.168.2.222.336.222.598v1.853a.54.54 0 0 1-.567.565m4.637 0-2.14-5.885v5.885h-.67v-8h.534l2.097 5.78v-5.78h.67v8zm1.774 0v-8h2.6v.628h-1.887v2.984h1.719v.64h-1.719v3.12h1.919v.628zm6.304 0h-2.013c-.336 0-.577-.23-.577-.565v-2.032h.713v1.97h1.73v-1.906l-2.213-2.67c-.166-.2-.23-.337-.23-.609v-1.622c0-.335.241-.566.577-.566h2.013a.54.54 0 0 1 .567.566v1.864h-.713v-1.802h-1.731v1.686l2.223 2.67c.168.2.221.336.221.598v1.853a.54.54 0 0 1-.567.565" style="fill:#b80000;fill-opacity:1;fill-rule:nonzero;stroke:none;stroke-width:1.33333325"/><path d="M271.742 157.445a.4.4 0 0 1-.284.039c.066.159.092.33.134.495.046.162.105.36.278.428.114.053.244 0 .33-.082.134-.129.216-.3.296-.465q.039-.088.081-.176a.7.7 0 0 1-.348-.099c-.103-.062-.125-.216-.252-.245-.09-.003-.159.067-.235.105m6.603-1.152c-.333.074-.673.183-1.019.128.03.23-.005.463-.088.678-.042.025.036.058.047.018l.027.016c.029.08.117.11.194.118.2.02.4-.024.587-.083-.045-.043-.105-.083-.115-.15q.012-.042.032-.08c.138.004.274.027.41.043a.71.71 0 0 0 .284-.606c-.003-.063-.044-.126-.11-.135a.5.5 0 0 0-.249.053m1.053-.372-.004.008c-.174.054-.34.128-.514.186.04.253-.012.52-.135.744-.053.034.057.053.036 0 .012 0 .036 0 .048-.002.004.046.059.058.096.056.148-.012.288-.074.417-.144-.042-.035-.092-.066-.118-.115-.019-.033.004-.07.013-.103q.157.005.316.031c.108-.128.19-.297.157-.47-.018-.082-.046-.175-.124-.222-.062-.035-.128.01-.188.03m.971-.422-.512.233c.067.276.009.568-.132.812.036-.022.087-.03.115-.062.057.037.129.033.193.016a1.3 1.3 0 0 0 .355-.163c-.063-.045-.143-.121-.074-.2.08.01.16.016.238.028.098-.133.196-.3.156-.472a.4.4 0 0 0-.25-.236zm-5.395-.37c-.149.022-.3.06-.434.135-.156.111-.274.295-.266.491.007.19.114.36.235.5.225.247.523.441.856.499.25.038.52.033.75-.084.215-.103.414-.279.471-.516.055-.21.038-.468-.13-.624a1.5 1.5 0 0 0-.734-.363 2.1 2.1 0 0 0-.748-.039m6.274-.101q-.22.13-.443.25c.07.267.02.553-.09.803q.069-.046.129-.098c.07.074.173.01.245-.031.328-.203.412-.66.295-1.007zm-12.103-.33c-.175.102-.328.262-.368.466a.76.76 0 0 0 .227.672.8.8 0 0 0 .417.204l.001.004c.093.007.19.036.284.012a1.6 1.6 0 0 0 .897-.323c.192-.148.362-.364.363-.617.007-.124-.068-.233-.147-.323-.172-.18-.42-.26-.66-.289a1.7 1.7 0 0 0-1.014.195m12.768-.143c-.07.057-.142.117-.216.17.098.174.06.382.03.569l.086-.102.01.072c.05-.017.1-.046.12-.098a1 1 0 0 0 .088-.427c.003-.09-.03-.177-.02-.268a2 2 0 0 0-.098.084m-9.91-.69a3 3 0 0 1 .008.233.3.3 0 0 1-.088.16 1 1 0 0 0-.042-.148l-.082-.222a5.4 5.4 0 0 0-1.612.472l-.033-.044-.115.066q.226.006.446.064c.122.036.242.082.35.152l.004-.003q.092.069.17.15c.14.163.16.399.08.592a1.44 1.44 0 0 1-.824.799 1.6 1.6 0 0 1-.454.088 1.5 1.5 0 0 1-.514-.072 1.3 1.3 0 0 1-.334-.184c.015.17.063.339.139.492-.07.032-.16.112-.099.193.082.087.208.11.322.132.3.37.702.644 1.125.858q.52.265 1.088.41a3 3 0 0 1-.076-.306c-.019-.092-.028-.187-.053-.278a.44.44 0 0 1-.168-.26.36.36 0 0 1 .045-.206.6.6 0 0 0 .003.236.34.34 0 0 0 .267.2c.068.007.13-.027.189-.056.073-.042.148-.09.233-.095.096.005.138.104.186.17h.003c.094.109.237.187.384.166a.35.35 0 0 0 .193-.108.8.8 0 0 0 .115-.195l.016-.003a.41.41 0 0 1-.248.348c-.014.067-.035.13-.055.196q-.078.16-.177.306c-.031.022.01.028.025.029.23.021.459.03.688.037.576.017 1.156.01 1.724-.1a5 5 0 0 0 1.152-.364c.287-.136.565-.31.77-.56a.96.96 0 0 0 .182-.834 2.7 2.7 0 0 0-.287-.62c.036.136.07.277.048.418-.007.09-.044.17-.076.252l.001.017h-.01a.97.97 0 0 1-.415.364 1.53 1.53 0 0 1-1.734-.35c-.184-.206-.353-.458-.349-.744.005-.23.168-.424.363-.532.326-.183.713-.227 1.081-.194.161.022.323.054.47.124q.077.036.157.064a3.5 3.5 0 0 0-.487-.44 1 1 0 0 0-.148-.096 6.1 6.1 0 0 0-2.35-.765 13 13 0 0 0-.145.408.33.33 0 0 1-.084-.21q.005-.11.015-.218a6 6 0 0 0-.984.01m-1.006-.388c-.04.086.104.055.152.051.165-.007.328-.032.493-.05l-.036-.068-.028-.08-.02-.042c-.19.055-.383.104-.561.19m.225-.18.296-.105-.032-.072q-.136.082-.264.176m2.288-.214c-.005.015-.013.044-.019.059h-.004l-.027.06q-.013.04-.029.077l-.023.055-.04.104c.708.06 1.414.22 2.054.536a4.8 4.8 0 0 1 1.948 1.749c.028.04.08.121.132.067.066-.142.042-.306.03-.455-.038-.323-.252-.587-.47-.81a4.7 4.7 0 0 0-1.166-.803 6.3 6.3 0 0 0-2.386-.64m-1.695.134.01.047h.006l.033.096.03.096c.398-.036.797-.05 1.194-.032l.04-.132.044-.132h.003l.03-.092a6.3 6.3 0 0 0-1.39.15m-.104-.242.03.064q.013.04.031.08c.487-.135.991-.21 1.496-.217l.066-.16.092-.216c.052-.114.108-.226.157-.34.052-.086.09-.18.14-.267-.7.29-1.37.65-2.012 1.056m5.867-1.223c-.54.112-1.07.286-1.559.542-.237.129-.473.274-.65.484-.07.086-.13.198-.105.314.028.108.127.179.226.219.469.185.916.43 1.318.736.303.232.586.497.799.816.117.181.227.385.22.608 0 .09-.05.167-.087.245.172-.03.335-.096.499-.154a29 29 0 0 0 1.816-.76 14 14 0 0 0 1.235-.62.6.6 0 0 0 .245-.223c.09-.15.09-.337.056-.505-.077-.332-.28-.62-.508-.87a3.9 3.9 0 0 0-.967-.738 3 3 0 0 0-.693-.174c-.613-.088-1.24-.042-1.845.08m-3.287-.053c-.05.02-.107.03-.152.063-.043.066-.075.137-.11.208-.1.184-.187.373-.277.562q-.044.093-.084.188h-.004q-.036.093-.077.186c.17.009.343.025.513-.001a1.5 1.5 0 0 0 .376-.111c.895-.38 1.792-.761 2.722-1.047a8.2 8.2 0 0 1 1.778-.364c-.056-.016-.112-.036-.169-.044a5.6 5.6 0 0 0-.812-.145c-1.253-.13-2.523.088-3.704.505m-7.267-1.294a.5.5 0 0 0-.244.294.5.5 0 0 0 .023.379c.09.227.361.35.595.296a.525.525 0 0 0 .416-.437.52.52 0 0 0-.162-.455.55.55 0 0 0-.628-.077m10.79-.516c-.11.276-.047.626.188.82.125.105.302.15.462.108a.61.61 0 0 0 .42-.399.6.6 0 0 0 .036-.139.66.66 0 0 0-.017-.33c-.055-.252-.288-.468-.553-.462-.243 0-.454.182-.536.402m-2.267.01c-.54.463-.95 1.055-1.301 1.668 1.225-.42 2.529-.633 3.825-.549a1 1 0 0 1-.541-.553.7.7 0 0 1 .033-.566c.104-.193.288-.33.484-.424.015-.004.056-.029.019-.037a2.4 2.4 0 0 0-1.044-.185c-.551.03-1.063.293-1.475.646m1.799-1.024h.377c.367.027.761.102 1.039.362.21.192.293.49.276.768-.019.29-.072.594-.251.83a.65.65 0 0 1-.323.22c.788.087 1.57.292 2.279.651.383.196.744.44 1.045.748.254.263.468.579.543.941.044.206.03.422-.033.622.13.321.102.686-.004 1.01-.095.291-.275.56-.534.728-.073.05-.165.046-.249.036a2.2 2.2 0 0 1-.439.487c.351.108.69.265.982.492.225.175.421.4.526.67.05.123.072.255.087.386v.157a.44.44 0 0 1-.076.222c-.059.07-.179.088-.248.024-.032-.034-.021-.086-.023-.127.018-.161-.056-.312-.101-.461a1.45 1.45 0 0 0-.535-.747c-.248-.192-.564-.253-.85-.367-.112-.052-.239-.038-.352-.085a2 2 0 0 1-.322.29c.387.134.763.32 1.07.595.266.235.473.552.521.91.019.165.039.348-.045.498-.058.103-.232.135-.3.03-.032-.094.01-.196-.019-.29-.077-.265-.161-.533-.32-.76a1.6 1.6 0 0 0-.584-.5c-.173-.078-.356-.133-.535-.197-.101-.033-.202-.087-.313-.073a.4.4 0 0 1-.196-.05c-.108.1-.23.178-.356.252.076.042.161.063.241.098.358.15.702.342.987.608.264.244.476.558.548.916.037.196.063.406-.003.6a.26.26 0 0 1-.184.173h-.077c-.05-.016-.107-.036-.12-.09-.024-.105.018-.213-.014-.314-.096-.328-.2-.663-.413-.936a1.8 1.8 0 0 0-.656-.52c-.35-.145-.717-.244-1.065-.395-.302.188-.668.211-1.015.208a.7.7 0 0 1-.268-.048c-.243.288-.565.5-.904.66-.32.146-.655.255-.995.338-.537.128-1.089.165-1.638.168-.563-.012-1.127-.024-1.682-.124a5.6 5.6 0 0 1-1.888-.707c-.045.153-.08.31-.113.465-.023.106.008.214-.012.32-.015.086-.13.116-.193.06-.086-.073-.098-.194-.11-.298a2.2 2.2 0 0 1 .1-.768 3 3 0 0 1-.457-.412 1.6 1.6 0 0 0-.34.488 4 4 0 0 0-.232.792c-.024.11.007.224-.015.334-.02.092-.152.107-.208.042-.077-.088-.088-.212-.096-.324a2.1 2.1 0 0 1 .208-.986c.116-.23.28-.434.467-.61a1.67 1.67 0 0 1-.34-1.106c.005-.126.033-.252.059-.376.073-.172.117-.356.208-.52.081-.101.138-.229.254-.294.135-.043.214-.168.324-.248.132-.094.263-.192.406-.272.086-.052.181-.094.261-.158.419-.337.853-.656 1.305-.946a9 9 0 0 0-.649-1.172c-.27-.399-.583-.775-.967-1.068a2.44 2.44 0 0 0-1.2-.511 2.5 2.5 0 0 0-1.052.107c.178.081.36.186.462.36a.48.48 0 0 1-.015.493.87.87 0 0 1-.616.388.57.57 0 0 1-.503-.172c-.137-.15-.185-.359-.206-.556v-.23a.7.7 0 0 1 .278-.473c.271-.193.616-.232.94-.244.4 0 .8.052 1.182.168.534.175.978.543 1.358.946.5.537.898 1.16 1.215 1.817a13 13 0 0 1 2.19-1.099c.437-.769.95-1.512 1.62-2.094.28-.238.587-.448.934-.572.31-.108.636-.154.961-.178" style="fill:#191919;fill-opacity:1;fill-rule:nonzero;stroke:none;stroke-width:1.33333325"/><path d="M282.01 154.47q-.049.041-.096.084c-.072.059-.141.117-.217.17.098.174.06.382.032.57l.084-.101.01.072c.051-.017.1-.047.122-.099a1 1 0 0 0 .087-.427c.003-.09-.031-.178-.022-.269m-.763.556q-.219.13-.44.25c.068.267.018.554-.092.803q.069-.044.128-.098c.071.074.174.01.246-.03.33-.204.413-.66.294-1.008q-.067.044-.136.083m-.695 1.137c.099-.134.196-.3.156-.472a.4.4 0 0 0-.25-.236l-.09.044-.51.233c.066.276.008.568-.133.812.036-.023.086-.03.114-.063.058.038.129.034.194.016a1.3 1.3 0 0 0 .355-.162c-.063-.046-.143-.122-.073-.2q.118.012.237.028m-.966-.273c-.062-.035-.128.01-.188.03l-.004.009c-.174.053-.34.128-.514.185.04.253-.012.52-.135.745h.084c.004.045.059.057.096.054.148-.012.288-.073.417-.144-.042-.035-.092-.065-.118-.113-.019-.035.004-.07.013-.104q.157.005.316.032c.108-.13.19-.299.157-.47-.018-.083-.046-.177-.124-.223m-.992.349a.5.5 0 0 0-.25.054c-.333.073-.673.182-1.018.128.03.229-.005.462-.087.677l.046.019.028.014c.028.082.117.111.194.119.2.02.398-.024.586-.083-.046-.042-.106-.082-.115-.149q.012-.044.033-.081c.136.005.272.028.408.044a.71.71 0 0 0 .284-.608c0-.062-.044-.126-.109-.134" style="fill:#74b743;fill-opacity:1;fill-rule:nonzero;stroke:none;stroke-width:1.33333325"/><path d="M269.381 154.71c.291-.137.638-.113.927.015.184.082.359.214.43.408-.122-.084-.237-.178-.37-.245-.257-.137-.568-.196-.85-.103.135.007.273.078.32.212q.02.082.022.166a.36.36 0 0 1-.237.264c-.092.009-.192.005-.27-.054a.36.36 0 0 1-.137-.232c0-.092.036-.177.083-.254a1.4 1.4 0 0 0-.388.389.92.92 0 0 1 .47-.567m5.736.499c.348-.067.71.041.999.237.175.122.339.29.375.51-.214-.243-.463-.467-.772-.576a1.2 1.2 0 0 0-.455-.067c.103.08.164.22.11.347l-.036.068c-.068.086-.18.112-.288.1a.3.3 0 0 1-.153-.095c-.077-.093-.068-.224-.025-.332a1.7 1.7 0 0 0-.377.248.93.93 0 0 1 .622-.44" style="fill:#fff;fill-opacity:1;fill-rule:nonzero;stroke:none;stroke-width:1.33333325"/><path d="M278 150.707a.53.53 0 0 0 .465.11.62.62 0 0 0 .418-.399.6.6 0 0 0 .038-.14.7.7 0 0 0-.02-.33c-.052-.253-.287-.467-.551-.46-.243-.004-.455.18-.538.4-.109.275-.046.626.188.82m-10.349-.228a.55.55 0 0 0-.626-.075.5.5 0 0 0-.246.293.5.5 0 0 0 .023.379.53.53 0 0 0 .596.296.52.52 0 0 0 .253-.892m6.013 2.239q-.038.093-.078.185c.172.009.344.026.513 0 .13-.019.256-.062.377-.11.895-.382 1.792-.762 2.722-1.049.578-.177 1.173-.317 1.778-.364-.056-.016-.112-.036-.169-.044a5.4 5.4 0 0 0-.813-.144c-1.252-.132-2.522.087-3.703.505-.052.02-.108.031-.152.062-.043.066-.076.138-.112.208-.099.184-.187.374-.276.564l-.083.186z" style="fill:#eac500;fill-opacity:1;fill-rule:nonzero;stroke:none;stroke-width:1.33333325"/><path d="M281.59 153.454c-.077-.333-.28-.621-.508-.87a3.9 3.9 0 0 0-.966-.74 3 3 0 0 0-.694-.171c-.613-.09-1.24-.043-1.845.078-.54.114-1.07.286-1.559.543-.237.13-.473.275-.648.484-.072.087-.132.199-.106.315.028.108.126.178.225.217.47.185.916.432 1.319.737.302.232.585.496.798.815.118.181.227.387.22.608 0 .09-.049.168-.086.245.172-.03.334-.096.498-.154.615-.23 1.218-.488 1.816-.758.419-.193.838-.388 1.235-.622a.6.6 0 0 0 .245-.222c.09-.15.09-.337.056-.505m-9.819-.336c.487-.135.991-.21 1.496-.217l.066-.16.093-.216c.05-.114.107-.226.157-.339.052-.085.09-.181.14-.268-.7.292-1.372.65-2.012 1.056l.028.065q.017.038.032.08m.059.143q.016.048.035.097l.03.095a9 9 0 0 1 1.192-.032l.04-.132.044-.132h.003l.031-.09a6.3 6.3 0 0 0-1.39.149l.01.046z" style="fill:#eac500;fill-opacity:1;fill-rule:nonzero;stroke:none;stroke-width:1.33333325"/><path d="M277.06 154.525a4.7 4.7 0 0 0-1.165-.804 6.3 6.3 0 0 0-2.387-.638l-.017.059-.004-.001q-.014.03-.027.063l-.029.076-.023.054-.04.104c.707.062 1.412.222 2.052.535a4.8 4.8 0 0 1 1.948 1.75c.028.04.082.12.134.066.065-.14.041-.304.028-.455-.036-.322-.25-.586-.47-.81m-5.575-1.404c-.09.058-.18.113-.264.178l.296-.104zm-2.367 1.468c.133-.043.213-.168.322-.247-.114.072-.217.161-.322.247m-.256.294c-.11.152-.19.331-.208.52.073-.172.117-.356.208-.52" style="fill:#eac500;fill-opacity:1;fill-rule:nonzero;stroke:none;stroke-width:1.33333325"/><path d="M275.644 157.547a2.9 2.9 0 0 1-.85-.18 1.5 1.5 0 0 1-.422-.222c-.042-.038-.095-.087-.079-.15.037-.061.117-.072.183-.08.225-.014.449.027.666.083.23.061.458.139.659.268.065.039.116.1.159.163-.051.126-.206.112-.316.118m1.005-1.792c.036.136.07.278.048.419-.007.09-.044.17-.076.252l.001.017h-.01a.97.97 0 0 1-.415.366 1.53 1.53 0 0 1-1.734-.351c-.184-.205-.353-.459-.349-.744.005-.232.168-.425.363-.532.326-.183.713-.227 1.081-.195.161.022.323.055.47.126q.076.036.157.062a3.7 3.7 0 0 0-.487-.44 1 1 0 0 0-.148-.096 6.1 6.1 0 0 0-2.35-.764q-.039.101-.075.206a4 4 0 0 0-.07.201c-.057-.055-.076-.133-.084-.21q.005-.11.015-.217a6 6 0 0 0-.984.01q.01.115.009.233a.3.3 0 0 1-.088.158 1 1 0 0 0-.043-.146l-.081-.222a5.4 5.4 0 0 0-1.612.471l-.033-.044-.115.067q.226.005.445.062c.123.036.243.084.351.152h.004q.092.067.17.15c.14.163.16.399.08.592a1.44 1.44 0 0 1-1.793.815 1.2 1.2 0 0 1-.333-.186c.015.172.063.34.139.492.09-.042.188-.069.285-.088.164-.029.33-.034.497-.025.127.012.26.03.375.088.044.024.096.06.096.116-.005.073-.077.11-.133.144-.152.065-.316.09-.479.108a2.4 2.4 0 0 1-.419-.017c.3.37.703.644 1.126.858.346.175.712.315 1.088.411a3 3 0 0 1-.076-.307c-.019-.093-.028-.188-.054-.278a.43.43 0 0 1-.168-.259.37.37 0 0 1 .046-.208.6.6 0 0 0 .003.236.34.34 0 0 0 .266.2c.068.008.131-.027.191-.055.072-.042.147-.089.232-.094.096.005.137.102.185.17h.003c.095.107.238.186.384.166a.36.36 0 0 0 .194-.11.8.8 0 0 0 .114-.194l.016-.003a.41.41 0 0 1-.248.35c-.013.066-.034.13-.054.194-.054.105-.11.21-.178.306-.03.023.011.027.026.03.229.021.458.03.688.037.576.017 1.156.008 1.724-.101a5 5 0 0 0 1.152-.364c.286-.136.565-.311.769-.559a.96.96 0 0 0 .183-.836 2.7 2.7 0 0 0-.287-.62m-5.501-2.227c.165-.005.329-.032.493-.05l-.036-.068-.028-.078-.02-.044c-.19.056-.383.104-.561.19-.04.086.104.054.152.05" style="fill:#eac500;fill-opacity:1;fill-rule:nonzero;stroke:none;stroke-width:1.33333325"/><path d="M270.368 154.888c-.257-.138-.568-.197-.85-.102.135.007.273.077.32.21q.018.083.022.167a.36.36 0 0 1-.237.264c-.092.01-.192.005-.27-.053a.36.36 0 0 1-.137-.232c0-.092.036-.179.083-.256-.158.1-.28.24-.387.39a.9.9 0 0 1 .47-.566c.29-.136.637-.112.926.016.184.081.359.213.43.406-.122-.082-.237-.177-.37-.244m-.21-.385a1.7 1.7 0 0 0-1.013.193c-.174.102-.328.263-.37.467a.76.76 0 0 0 .229.67.8.8 0 0 0 .417.206l.001.004c.094.005.19.036.284.01a1.6 1.6 0 0 0 .898-.322c.192-.147.36-.363.362-.616.007-.125-.068-.235-.146-.324-.172-.179-.422-.26-.663-.288m5.562.877a1.2 1.2 0 0 0-.455-.069c.103.081.164.222.108.348l-.033.067c-.07.087-.182.113-.288.101a.33.33 0 0 1-.154-.094c-.078-.095-.068-.226-.025-.332a1.7 1.7 0 0 0-.379.248.92.92 0 0 1 .624-.44c.347-.067.711.04 1 .236.174.12.338.29.374.509-.214-.243-.463-.465-.772-.575m.737.15a1.5 1.5 0 0 0-.733-.362 2.2 2.2 0 0 0-.748-.04c-.15.023-.302.061-.435.136-.156.112-.275.295-.267.492.008.19.115.36.236.5.226.246.523.442.856.499.251.039.52.032.751-.084.215-.104.412-.279.47-.517.055-.211.038-.468-.13-.624" style="fill:#74b743;fill-opacity:1;fill-rule:nonzero;stroke:none;stroke-width:1.33333325"/><path d="M269.388 156.371c.164-.029.33-.034.497-.025.128.012.259.03.375.088.044.023.096.06.096.116-.005.072-.078.11-.134.144-.15.065-.316.09-.478.107a2.4 2.4 0 0 1-.42-.016c-.112-.021-.24-.044-.32-.13-.062-.082.03-.162.1-.195.089-.044.186-.07.284-.088m4.905.624c.037-.063.117-.072.183-.08.225-.016.449.027.666.081.23.061.458.14.659.268.067.04.116.1.159.164-.051.126-.204.11-.316.119a2.8 2.8 0 0 1-.851-.181 1.5 1.5 0 0 1-.421-.222c-.042-.037-.094-.088-.08-.15" style="fill:#ed4792;fill-opacity:1;fill-rule:nonzero;stroke:none;stroke-width:1.33333325"/><g clip-path="url(#c)" style="opacity:.53999299" transform="matrix(1.33333 0 0 -1.33333 0 341.333)"><path d="M0 0c.017-.039-.067-.025-.027 0z" style="fill:#192112;fill-opacity:1;fill-rule:nonzero;stroke:none" transform="translate(209.085 138.356)"/></g><g clip-path="url(#d)" style="opacity:.38999903" transform="matrix(1.33333 0 0 -1.33333 0 341.333)"><path d="M0 0c-.008-.029-.067-.004-.035.014z" style="fill:#283719;fill-opacity:1;fill-rule:nonzero;stroke:none" transform="translate(207.964 138.162)"/></g><path d="M272.23 157.585c-.103-.062-.127-.216-.254-.246-.09-.001-.158.068-.233.106a.4.4 0 0 1-.284.039c.065.159.09.33.132.495.048.162.105.36.279.428.114.053.245 0 .33-.082.134-.129.216-.3.295-.465l.081-.176a.7.7 0 0 1-.346-.099" style="fill:#ed4792;fill-opacity:1;fill-rule:nonzero;stroke:none;stroke-width:1.33333325"/><path d="M16 74.667A2.666 2.666 0 1 1 16 80h13.333a2.666 2.666 0 1 0 0-5.333Zm0 10.666a2.666 2.666 0 1 1 0 5.334h13.333a2.666 2.666 0 1 0 0-5.334ZM16 96a2.666 2.666 0 1 1 0 5.333h13.333a2.666 2.666 0 1 0 0-5.333Zm0 10.667A2.666 2.666 0 1 1 16 112h13.333a2.666 2.666 0 1 0 0-5.333Zm0 10.666a2.666 2.666 0 1 1 0 5.334h13.333a2.666 2.666 0 1 0 0-5.334zm309.333-42.666a2.666 2.666 0 1 0 0 5.333H312a2.666 2.666 0 1 1 0-5.333zm0 10.666a2.666 2.666 0 1 0 0 5.334H312a2.666 2.666 0 1 1 0-5.334zm0 10.667a2.666 2.666 0 1 0 0 5.333H312A2.666 2.666 0 1 1 312 96zm0 10.667a2.666 2.666 0 1 0 0 5.333H312a2.666 2.666 0 1 1 0-5.333zm0 10.666a2.666 2.666 0 1 0 0 5.334H312a2.666 2.666 0 1 1 0-5.334z" style="fill:gray;fill-opacity:1;fill-rule:nonzero;stroke:none;stroke-width:1.33333325"/><path d="M14 44a2 2 0 0 0-2 2v10a2 2 0 1 1 0 4v4a2 2 0 1 1 0 4v4a2 2 0 1 1 0 4v4a2 2 0 1 1 0 4v4a2 2 0 1 1 0 4v120a4 4 0 0 0 4 4h224a4 4 0 0 0 4-4V92a2 2 0 1 1 0-4v-4a2 2 0 1 1 0-4v-4a2 2 0 1 1 0-4v-4a2 2 0 1 1 0-4v-4a2 2 0 1 1 0-4V46a2 2 0 0 0-2-2z" style="fill:none;fill-opacity:1;fill-rule:nonzero;stroke:#1a1a1a;stroke-width:1.99999994;stroke-miterlimit:4;stroke-dasharray:none" transform="scale(1.33333)"/></svg>