<svg xmlns="http://www.w3.org/2000/svg" xml:space="preserve" width="256" height="256" viewBox="0 0 341.333 341.333"><path d="M249.482 23.728s32-5.333 32 85.333h-10.667z" style="fill:#29678f;fill-opacity:1;fill-rule:nonzero;stroke:none;stroke-width:1.33333325"/><path d="M286.96 151.762C281.62 18.667 238.9 18.667 238.9 18.667H100.06C52 23.99 52 151.762 52 151.762v90.505c0 53.237 69.42 53.237 69.42 53.237 80.1 0 96.12 10.648 96.12 10.648 59.296 36.38 67.944 2.842 69.205-7.713.213-1.788.475-3.568.768-5.344 1.21-7.373 3.672-36.025-.553-141.333" style="fill:#ccc;fill-opacity:1;fill-rule:nonzero;stroke:none;stroke-width:1.33333325"/><path d="M255.652 277.333h26.667c1.145-11.862 1.192-40.934-2.25-126.937-5.065-126.668-45.6-126.668-45.6-126.668H105.268c-2.71 0-5.428.343-7.992 1.221C57.134 38.705 58.32 150.396 58.32 150.396v84.27c0 50.667 64 53.334 64 53.334 76.001 0 90.667 10.667 90.667 10.667 17.801 10.954 33.188 15.568 42.666 16z" style="fill:#e6e6e6;fill-opacity:1;fill-rule:nonzero;stroke:none;stroke-width:1.33333325"/><path d="M170.667 249.333A6.674 6.674 0 0 0 164 256a6.674 6.674 0 0 0 6.667 6.667 6.674 6.674 0 0 0 6.666-6.667 6.674 6.674 0 0 0-6.666-6.667m0 2.667a4 4 0 1 1 0 8 4 4 0 0 1 0-8m0-41.333c-7.352 0-13.334 5.981-13.334 13.333s5.982 13.333 13.334 13.333S184 231.352 184 224s-5.981-13.333-13.333-13.333m0 2.666c5.89 0 10.666 4.776 10.666 10.667 0 5.89-4.776 10.667-10.666 10.667S160 229.89 160 224s4.776-10.667 10.667-10.667" style="fill:#ccc;fill-opacity:1;fill-rule:nonzero;stroke:none;stroke-width:1.33333325"/><path d="M103.683 192.116c-18.207 1.415-32.924 16.221-34.248 34.435-.443 6.086.58 11.886 2.745 17.093.42 1.012 1.388 1.69 2.483 1.69H88A2.67 2.67 0 0 1 90.667 248v13.336c0 1.096.676 2.064 1.688 2.484 5.207 2.164 11.007 3.188 17.092 2.745 18.212-1.321 33.02-16.037 34.436-34.244 1.787-22.97-17.23-41.99-40.2-40.205" style="fill:#3096cf;fill-opacity:1;fill-rule:nonzero;stroke:none;stroke-width:1.33333325"/><path d="M261.333 117.333c0 38.292-40.592 69.334-90.666 69.334S80 155.625 80 117.333 120.593 48 170.667 48s90.666 31.041 90.666 69.333" style="fill:#000;fill-opacity:1;fill-rule:nonzero;stroke:none;stroke-width:1.33333325"/><path d="M218.667 160h-96c-8.8 0-16-7.2-16-16V90.667c0-8.8 7.2-16 16-16h96c8.8 0 16 7.2 16 16V144c0 8.8-7.2 16-16 16" style="fill:#7f8c8d;fill-opacity:1;fill-rule:nonzero;stroke:none;stroke-width:1.33333325;font-variant-east_asian:normal;opacity:1;vector-effect:none;stroke-linecap:butt;stroke-linejoin:miter;stroke-miterlimit:4;stroke-dasharray:none;stroke-dashoffset:0;stroke-opacity:1"/><path d="M134.667 217.333h-16v-16a4 4 0 0 0-4-4h-16a4 4 0 0 0-4 4v16h-16a4 4 0 0 0-4 4v16a4 4 0 0 0 4 4h16v16a4 4 0 0 0 4 4h16a4 4 0 0 0 4-4v-16h16a4 4 0 0 0 4-4v-16a4 4 0 0 0-4-4" style="fill:#29678f;fill-opacity:1;fill-rule:nonzero;stroke:none;stroke-width:1.33333325"/><path d="M114.667 229.333a8.001 8.001 0 0 1-16 0 8.001 8.001 0 0 1 16 0m-35.572-.655 10.285-5.242c.572-.29 1.287.073 1.287.656v10.484c0 .581-.715.946-1.287.654l-10.285-5.242c-.57-.29-.57-1.019 0-1.31m55.143 1.31-10.285 5.243c-.572.29-1.287-.073-1.287-.656V224.09c0-.581.715-.947 1.287-.655l10.285 5.243c.57.29.57 1.019 0 1.31m-26.916-28.226 5.243 10.286c.29.571-.073 1.286-.656 1.286h-10.484c-.583 0-.947-.715-.656-1.286l5.243-10.286c.29-.572 1.018-.572 1.31 0m-1.311 55.143-5.243-10.287c-.29-.57.074-1.285.656-1.285h10.484c.583 0 .947.715.656 1.285l-5.242 10.287c-.29.572-1.019.572-1.31 0" style="fill:#3096cf;fill-opacity:1;fill-rule:nonzero;stroke:none;stroke-width:1.33333325"/><path d="M176 224a5.334 5.334 0 1 1-10.667 0A5.334 5.334 0 0 1 176 224" style="fill:#ccc;fill-opacity:1;fill-rule:nonzero;stroke:none;stroke-width:1.33333325"/><path d="M213.333 234.667H208V224h5.333zm-10.666 32-5.334-5.334 5.334-5.333 5.333 5.333zm42.666-32L240 229.333l5.333-5.333 5.334 5.333zm0-26.667L240 202.667l5.333-5.334 5.334 5.334zm21.334 26.667-5.334-5.334 5.334-5.333 5.333 5.333z" style="fill:#3096cf;fill-opacity:1;fill-rule:nonzero;stroke:none;stroke-width:1.33333325"/><path d="M173.333 256a2.668 2.668 0 0 1-5.333 0 2.668 2.668 0 0 1 5.333 0m29.334-232h-64v-5.333h64z" style="fill:#b3b3b3;fill-opacity:1;fill-rule:nonzero;stroke:none;stroke-width:1.33333325"/><path d="M272 288a5.334 5.334 0 1 1-10.667 0A5.334 5.334 0 0 1 272 288" style="fill:#e6e6e6;fill-opacity:1;fill-rule:nonzero;stroke:none;stroke-width:1.33333325"/><path d="M234.667 250.667H224v-5.334h10.667z" style="fill:#3096cf;fill-opacity:1;fill-rule:nonzero;stroke:none;stroke-width:1.33333325"/><path d="M229.333 247.728c0 8.837-7.164 16-16 16s-16-7.163-16-16 7.164-16 16-16 16 7.164 16 16m42.667-32c0 8.837-7.164 16-16 16s-16-7.163-16-16 7.164-16 16-16 16 7.164 16 16" style="fill:#29678f;fill-opacity:1;fill-rule:nonzero;stroke:none;stroke-width:1.33333325"/><path d="M75.045 14C39 17.992 39 113.822 39 113.822v67.88c0 39.927 52.064 39.927 52.064 39.927 60.075 0 72.092 7.986 72.092 7.986 44.471 27.284 50.957 2.131 51.903-5.785a90 90 0 0 1 .576-4.008c.908-5.53 2.753-27.019-.416-106-.701-17.471-2.273-31.828-4.37-43.718-2.346-50.565-19.86-52.436-23.152-52.34-4.926-3.744-8.523-3.764-8.523-3.764z" style="fill:none;fill-opacity:1;fill-rule:nonzero;stroke:#1a1a1a;stroke-width:1.99999994;stroke-miterlimit:4;stroke-dasharray:none" transform="scale(1.33333)"/></svg>