<svg xmlns="http://www.w3.org/2000/svg" xml:space="preserve" width="256" height="256" viewBox="0 0 341.333 341.333"><path d="M304 16H37.333c-8.836 0-16 7.164-16 16v128H320V32c0-8.836-7.164-16-16-16" style="fill:#d40000;fill-opacity:1;fill-rule:nonzero;stroke:none;stroke-width:1.33333325"/><path d="M304 21.333H37.333c-5.881 0-10.666 4.786-10.666 10.667v128H32v5.333h277.333V160h5.334V32c0-5.881-4.786-10.667-10.667-10.667" style="fill:#1e1e1e;fill-opacity:1;fill-rule:nonzero;stroke:none;stroke-width:1.33333325"/><path d="M314.667 122.667H320v-16h-5.333z" style="fill:gray;fill-opacity:1;fill-rule:nonzero;stroke:none;stroke-width:1.33333325"/><path d="M258.667 48h-176v106.667h176v-104Z" style="fill:#0d0d0d;fill-opacity:1;fill-rule:nonzero;stroke:none;stroke-width:1.33333325"/><path d="M256 152H85.333V50.667H256Z" style="fill:#7f8c8d;fill-opacity:1;fill-rule:nonzero;stroke:none;stroke-width:1.33333325"/><path d="M176 32a5.334 5.334 0 1 1-10.667 0A5.334 5.334 0 0 1 176 32M54.667 97.333a1.334 1.334 0 1 0-2.668.001 1.334 1.334 0 0 0 2.668 0m0-13.334a1.334 1.334 0 1 0-2.668.001A1.334 1.334 0 0 0 54.667 84M60 89.333a1.334 1.334 0 1 0 .001 2.668A1.334 1.334 0 0 0 60 89.333m-13.333 0a1.334 1.334 0 1 0 0 2.668 1.334 1.334 0 0 0 0-2.668m8 1.334a1.334 1.334 0 1 1-2.668-.001 1.334 1.334 0 0 1 2.668 0m234.666 6.667a1.333 1.333 0 1 0-2.666 0 1.333 1.333 0 0 0 2.666 0m0-13.333a1.333 1.333 0 1 0-2.666 0 1.333 1.333 0 0 0 2.666 0m5.334 5.333a1.333 1.333 0 1 0-.001 2.666 1.333 1.333 0 0 0 0-2.666m-13.333 0a1.333 1.333 0 1 0 0 2.666 1.333 1.333 0 0 0 0-2.666m8 1.334a1.333 1.333 0 1 1-2.666 0 1.333 1.333 0 0 1 2.666 0" style="fill:#000;fill-opacity:1;fill-rule:nonzero;stroke:none;stroke-width:1.33333325"/><path d="M303.178 325.845h-264c-6.628 0-12-5.372-12-12V176.51h288v137.334c0 6.628-5.372 12-12 12" style="fill:#a00;fill-opacity:1;fill-rule:nonzero;stroke:none;stroke-width:1.33333325"/><path d="M245.333 173.333H96c-4.412 0-8 3.588-8 8v133.334c0 4.412 3.588 8 8 8h149.333c4.412 0 8-3.588 8-8V181.333c0-4.412-3.588-8-8-8m0 2.667a5.334 5.334 0 0 1 5.334 5.333v133.334a5.334 5.334 0 0 1-5.334 5.333H96a5.334 5.334 0 0 1-5.333-5.333V181.333A5.334 5.334 0 0 1 96 176h149.333" style="fill:red;fill-opacity:1;fill-rule:nonzero;stroke:#7b0000;stroke-width:1.33333325;stroke-opacity:1"/><path d="M298.667 181.333h-256V160h256z" style="fill:#d40000;fill-opacity:1;fill-rule:nonzero;stroke:none;stroke-width:1.33333325"/><path d="m32 160-9.153 9.153a5.165 5.165 0 0 0 1.342 8.275L32 181.333h16V160Zm277.333 0 9.154 9.153a5.165 5.165 0 0 1-1.343 8.275l-7.81 3.905h-16V160Z" style="fill:#d40000;fill-opacity:1;fill-rule:nonzero;stroke:none;stroke-width:1.33333325"/><path d="M304 173.333h5.333V168H304Z" style="fill:#404040;fill-opacity:1;fill-rule:nonzero;stroke:none;stroke-width:1.33333325"/><path d="M85.333 222.59c0 13.948-11.306 25.255-25.256 25.255-13.948 0-25.256-11.307-25.256-25.255 0-13.95 11.308-25.256 25.256-25.256 13.95 0 25.256 11.307 25.256 25.256" style="fill:#7b0000;fill-opacity:1;fill-rule:nonzero;stroke:none;stroke-width:1.33333325"/><path d="M76.915 222.59c0 9.299-7.539 16.837-16.838 16.837S43.24 231.89 43.24 222.59s7.537-16.837 16.837-16.837c9.299 0 16.838 7.537 16.838 16.837" style="fill:gray;fill-opacity:1;fill-rule:nonzero;stroke:none;stroke-width:1.33333325"/><path d="M72.705 222.59c0 6.973-5.653 12.628-12.628 12.628S47.45 229.563 47.45 222.59c0-6.975 5.653-12.63 12.628-12.63s12.628 5.655 12.628 12.63" style="fill:#999;fill-opacity:1;fill-rule:nonzero;stroke:none;stroke-width:1.33333325"/><path d="M79.195 274.094H65.906v-13.287c0-.817-.661-1.478-1.476-1.478h-8.86c-.815 0-1.476.661-1.476 1.478v13.287H40.805c-.815 0-1.476.661-1.476 1.476v8.86c0 .815.661 1.476 1.476 1.476h13.289v13.287c0 .817.661 1.478 1.476 1.478h8.86c.815 0 1.476-.661 1.476-1.478v-13.287h13.289c.815 0 1.476-.661 1.476-1.476v-8.86c0-.815-.661-1.476-1.476-1.476" style="fill:#e80000;fill-opacity:1;fill-rule:nonzero;stroke:#7b0000;stroke-width:5.33333344;stroke-opacity:1;stroke-miterlimit:4;stroke-dasharray:none;paint-order:stroke fill markers"/><path d="M76 282h-8v-4h8zm-24 0h-8v-4h8z" style="fill:#999;fill-opacity:1;fill-rule:nonzero;stroke:none;stroke-width:1.46533024"/><path d="M240 298.667H101.333V192H240Z" style="fill:#7f8c8d;fill-opacity:1;fill-rule:nonzero;stroke:none;stroke-width:1.33333325"/><path d="M242.667 189.333h-144v112h144V192ZM240 298.667H101.333V192H240Z" style="fill:#191919;fill-opacity:1;fill-rule:nonzero;stroke:none;stroke-width:1.33333325"/><path d="M138.667 314.667h-32V304h32zm48 0h-32V304h32zm48 0h-32V304h32zM264 309.333h-5.333a2.67 2.67 0 0 1-2.667-2.666v-5.334a2.67 2.67 0 0 1 2.667-2.666H264a2.67 2.67 0 0 1 2.667 2.666v5.334a2.67 2.67 0 0 1-2.667 2.666" style="fill:#e80000;fill-opacity:1;fill-rule:nonzero;stroke:#7b0000;stroke-width:1.33333325;stroke-opacity:1"/><path d="M274.667 226.667a8.001 8.001 0 0 1-16 0 8.001 8.001 0 0 1 16 0m16-16a8.001 8.001 0 0 1-16 0 8.001 8.001 0 0 1 16 0m0 32a8.001 8.001 0 0 1-16 0 8.001 8.001 0 0 1 16 0m16-16a8.001 8.001 0 0 1-16 0 8.001 8.001 0 0 1 16 0" style="fill:red;fill-opacity:1;fill-rule:nonzero;stroke:#7b0000;stroke-width:1.33333325;stroke-opacity:1"/><path d="M320 138.667h-5.333v-16H320Z" style="fill:#b80000;fill-opacity:1;fill-rule:nonzero;stroke:none;stroke-width:1.33333325"/><path d="M48 181.333h2.667V160H48zm242.667 0h2.666V160h-2.666z" style="fill:#7b0000;fill-opacity:1;fill-rule:nonzero;stroke:none;stroke-width:1.33333325"/><path d="M76 282h-8v-4h8zm-24 0h-8v-4h8z" style="fill:#999;fill-opacity:1;fill-rule:nonzero;stroke:none;stroke-width:1.46533024" transform="rotate(90 60.333 280.333)"/></svg>