<?xml version="1.0" encoding="UTF-8" standalone="no"?>
<svg
   xmlns:dc="http://purl.org/dc/elements/1.1/"
   xmlns:cc="http://creativecommons.org/ns#"
   xmlns:rdf="http://www.w3.org/1999/02/22-rdf-syntax-ns#"
   xmlns:svg="http://www.w3.org/2000/svg"
   xmlns="http://www.w3.org/2000/svg"
   xmlns:sodipodi="http://sodipodi.sourceforge.net/DTD/sodipodi-0.dtd"
   xmlns:inkscape="http://www.inkscape.org/namespaces/inkscape"
   viewBox="0 0 341.33334 341.33334"
   height="256"
   width="256"
   xml:space="preserve"
   id="svg2"
   version="1.1"
   sodipodi:docname="Nintendo - Switch-content.svg"
   inkscape:version="0.92.2 (5c3e80d, 2017-08-06)"><sodipodi:namedview
     pagecolor="#ffffff"
     bordercolor="#666666"
     borderopacity="1"
     objecttolerance="10"
     gridtolerance="10"
     guidetolerance="10"
     inkscape:pageopacity="0"
     inkscape:pageshadow="2"
     inkscape:window-width="1920"
     inkscape:window-height="1001"
     id="namedview29"
     showgrid="false"
     inkscape:pagecheckerboard="true"
     inkscape:zoom="0.97779607"
     inkscape:cx="-226.59205"
     inkscape:cy="279.47349"
     inkscape:window-x="-9"
     inkscape:window-y="-9"
     inkscape:window-maximized="1"
     inkscape:current-layer="svg2" /><metadata
     id="metadata8"><rdf:RDF><cc:Work
         rdf:about=""><dc:format>image/svg+xml</dc:format><dc:type
           rdf:resource="http://purl.org/dc/dcmitype/StillImage" /><dc:title /></cc:Work></rdf:RDF></metadata><defs
     id="defs6"><clipPath
       id="clipPath18"
       clipPathUnits="userSpaceOnUse"><path
         id="path16"
         d="M 0,256 H 256 V 0 H 0 Z" /></clipPath><clipPath
       id="clipPath26"
       clipPathUnits="userSpaceOnUse"><path
         id="path24"
         d="M 40,252 H 216 V 4 H 40 Z" /></clipPath></defs><g
     id="g36"
     transform="matrix(1.3333333,0,0,-1.3333333,250.66666,325.33333)"><path
       inkscape:connector-curvature="0"
       d="m 0,0 h -120 c -11.046,0 -20,8.954 -20,20 v 192 c 0,11.046 8.954,20 20,20 H 0 c 11.046,0 20,-8.954 20,-20 V 20 C 20,8.954 11.046,0 0,0"
       style="fill:#333333;fill-opacity:1;fill-rule:nonzero;stroke:none"
       id="path38" /></g><path
     inkscape:connector-curvature="0"
     d="M 261.33333,250.66667 H 79.999998 V 96.000003 H 261.33333 Z"
     style="fill:#e6e6e6;fill-opacity:1;fill-rule:nonzero;stroke:none;stroke-width:1.33333325"
     id="path40" /><g
     id="g42"
     transform="matrix(1.3333333,0,0,-1.3333333,261.33333,96.000003)"><path
       inkscape:connector-curvature="0"
       d="m 0,0 h -136 v 36 c 0,2.209 1.791,4 4,4 H -4 c 2.209,0 4,-1.791 4,-4 z"
       style="fill:#ff0000;fill-opacity:1;fill-rule:nonzero;stroke:none"
       id="path44" /></g><g
     id="g46"
     transform="matrix(1.3333333,0,0,-1.3333333,255.99999,282.66666)"><path
       inkscape:connector-curvature="0"
       d="m 0,0 h -128 c -2.209,0 -4,1.791 -4,4 V 24 H 4 V 4 C 4,1.791 2.209,0 0,0"
       style="fill:#191919;fill-opacity:1;fill-rule:nonzero;stroke:none"
       id="path48" /></g><g
     id="g50"
     transform="matrix(1.3333333,0,0,-1.3333333,154.66666,298.66666)"><path
       inkscape:connector-curvature="0"
       d="M 0,0 H 24 L 12,-12 Z"
       style="fill:#262626;fill-opacity:1;fill-rule:nonzero;stroke:none"
       id="path52" /></g><g
     id="g54"
     transform="matrix(1.3333333,0,0,-1.3333333,200,37.333338)"><path
       inkscape:connector-curvature="0"
       d="m 0,0 h -44 c -1.104,0 -2,0.896 -2,2 0,1.104 0.896,2 2,2 H 0 C 1.104,4 2,3.104 2,2 2,0.896 1.104,0 0,0"
       style="fill:#262626;fill-opacity:1;fill-rule:nonzero;stroke:none"
       id="path56" /></g><g
     id="g186"
     transform="matrix(1.9999964,0,0,-1.9999964,157.65135,222.23945)"><path
       inkscape:connector-curvature="0"
       d="m 0,0 h -26.591 c -2.813,0.006 -4.704,-1.819 -4.704,-4.008 0,-2.187 1.886,-3.991 4.708,-3.992 h 26.584 c 2.822,0.001 4.708,1.805 4.708,3.992 C 4.705,-1.819 2.815,0.006 0,0"
       style="fill:#b80000;fill-opacity:1;fill-rule:nonzero;stroke:none"
       id="path188" /></g><g
     id="g190"
     transform="matrix(1.9999964,0,0,-1.9999964,157.62633,236.27741)"
     style="fill:#e6e6e6"><path
       inkscape:connector-curvature="0"
       d="m 0,0 h -26.565 c -2.244,-0.008 -3.607,1.351 -3.607,3.017 0,1.667 1.372,3.014 3.607,3.018 H 0 C 2.235,6.031 3.606,4.684 3.606,3.017 3.606,1.351 2.244,-0.008 0,0"
       style="fill:#e6e6e6;fill-opacity:1;fill-rule:nonzero;stroke:none"
       id="path192" /></g><g
     id="g194"
     transform="matrix(1.9999964,0,0,-1.9999964,139.42076,227.25544)"><path
       inkscape:connector-curvature="0"
       d="M 0,0 H 1.256 V -0.506 H 1.935 V -0.879 H 1.256 l 10e-4,-2.5 H -0.001 L 0,-0.879 h -0.682 v 0.372 h 0.683 z"
       style="fill:#b80000;fill-opacity:1;fill-rule:nonzero;stroke:none"
       id="path196" /></g><path
     inkscape:connector-curvature="0"
     d="m 109.99163,229.00542 h 2.50999 v 5.008 h -2.50999 z"
     style="fill:#b80000;fill-opacity:1;fill-rule:nonzero;stroke:none;stroke-width:1.9999963"
     id="path198" /><path
     inkscape:connector-curvature="0"
     d="m 109.98563,226.47943 h 2.51599 v 1.54 h -2.51599 z"
     style="fill:#b80000;fill-opacity:1;fill-rule:nonzero;stroke:none;stroke-width:1.9999963"
     id="path200" /><g
     id="g202"
     transform="matrix(1.9999964,0,0,-1.9999964,156.14273,232.35543)"><path
       inkscape:connector-curvature="0"
       d="m 0,0 c 0,-0.399 -0.261,-0.564 -0.514,-0.564 -0.251,0 -0.513,0.165 -0.513,0.564 v 0.539 c 0,0 10e-4,0.371 10e-4,0.523 0,0.397 0.262,0.56 0.512,0.56 C -0.263,1.622 0,1.459 0,1.062 0,0.91 0,0.63 0.001,0.529 0.001,0.522 0,0.15 0,0 m -0.503,1.933 c -1.014,0 -1.836,-0.63 -1.836,-1.406 0,-0.777 0.822,-1.407 1.836,-1.407 1.013,0 1.834,0.63 1.834,1.407 0,0.776 -0.821,1.406 -1.834,1.406"
       style="fill:#b80000;fill-opacity:1;fill-rule:nonzero;stroke:none"
       id="path204" /></g><g
     id="g206"
     transform="matrix(1.9999964,0,0,-1.9999964,118.43021,232.35702)"><path
       inkscape:connector-curvature="0"
       d="m 0,0 c 0,-0.386 -0.293,-0.488 -0.491,-0.488 -0.196,0 -0.493,0.102 -0.493,0.488 v 0.444 0.448 c 0,0.388 0.297,0.487 0.492,0.487 C -0.293,1.379 0,1.28 0,0.892 0,0.764 -0.001,0.447 -0.001,0.447 -0.001,0.447 0,0.134 0,0 M -0.264,1.783 C -0.562,1.76 -0.775,1.662 -0.975,1.56 v 1.386 h -1.24 V -0.82 h 1.242 c 0,0 0.001,0.122 0.001,0.145 0.481,-0.272 1.022,-0.271 1.445,-0.094 0.113,0.047 0.858,0.37 0.858,1.242 0,0.66 -0.691,1.383 -1.595,1.31"
       style="fill:#b80000;fill-opacity:1;fill-rule:nonzero;stroke:none"
       id="path208" /></g><g
     id="g210"
     transform="matrix(1.9999964,0,0,-1.9999964,133.38577,229.56882)"><path
       inkscape:connector-curvature="0"
       d="M 0,0 C 0.098,0.154 0.278,0.228 0.441,0.228 0.606,0.228 0.786,0.154 0.883,0 0.962,-0.125 0.967,-0.272 0.965,-0.491 H -0.083 C -0.085,-0.272 -0.08,-0.125 0,0 m 0.961,-1.398 c 0,-0.459 -0.334,-0.56 -0.519,-0.56 -0.186,0 -0.525,0.101 -0.525,0.56 0,0.137 0.001,0.517 0.001,0.517 h 2.364 c 0,0.777 -0.831,1.42 -1.852,1.42 -1.02,0 -1.849,-0.629 -1.849,-1.406 0,-0.776 0.829,-1.406 1.849,-1.406 0.847,0 1.563,0.436 1.782,1.027 L 0.961,-1.247 c 0,0 0,-0.01 0,-0.151"
       style="fill:#b80000;fill-opacity:1;fill-rule:nonzero;stroke:none"
       id="path212" /></g><g
     id="g214"
     transform="matrix(1.9999964,0,0,-1.9999964,105.83282,233.26902)"><path
       inkscape:connector-curvature="0"
       d="M 0,0 V 3.412 H -1.257 V 0 -0.372 H 0 1.36 V 0 Z"
       style="fill:#b80000;fill-opacity:1;fill-rule:nonzero;stroke:none"
       id="path216" /></g><g
     id="g218"
     transform="matrix(1.9999964,0,0,-1.9999964,148.55734,230.83824)"><path
       inkscape:connector-curvature="0"
       d="M 0,0 H 1.23 C 1.104,0.808 0.264,1.043 -0.168,1.032 -0.582,1.021 -0.928,0.86 -1.169,0.653 c -10e-4,0.062 0,0.265 0,0.265 L -2.415,0.917 -2.416,-1.588 h 1.247 c 0,0 -10e-4,1.539 -10e-4,1.645 0,0.218 0.254,0.461 0.596,0.461 C -0.232,0.518 0,0.275 0,0.057 Z"
       style="fill:#b80000;fill-opacity:1;fill-rule:nonzero;stroke:none"
       id="path220" /></g><g
     id="g222"
     transform="matrix(1.9999964,0,0,-1.9999964,127.0114,229.90524)"><path
       inkscape:connector-curvature="0"
       d="m 0,0 c 0,-0.388 -0.293,-0.487 -0.493,-0.487 -0.195,0 -0.491,0.099 -0.491,0.487 v 0.447 0.445 c 0,0.386 0.296,0.487 0.492,0.487 C -0.293,1.379 0,1.278 0,0.892 0,0.758 -0.001,0.445 -0.001,0.445 -0.001,0.445 0,0.128 0,0 m 1.331,0.419 c 0,0.872 -0.746,1.195 -0.858,1.242 -0.423,0.177 -0.965,0.178 -1.445,-0.094 0,0.023 -0.001,0.145 -0.001,0.145 h -1.241 v -3.766 h 1.239 v 1.386 c 0.005,-0.003 0.011,-0.005 0.016,-0.008 l 0.972,-1.378 h 1.23 L 0.366,-0.81 c 0.576,0.203 0.965,0.734 0.965,1.229"
       style="fill:#b80000;fill-opacity:1;fill-rule:nonzero;stroke:none"
       id="path224" /></g><path
     style="fill:#e6e6e6;fill-opacity:1;fill-rule:nonzero;stroke:none;stroke-width:2.1664989;stroke-miterlimit:4;stroke-dasharray:none"
     d="m 138.98922,48.000001 c 0,0 -3.71744,0.0026 -4.76246,0.0058 v 0.268859 42.392008 h 4.76246 c 4.98069,0 9.01826,-3.979783 9.01826,-8.889148 V 56.889147 c 0,-4.909096 -4.03757,-8.889146 -9.01826,-8.889146 z m 1.78426,19.00706 c 1.80772,0 3.27336,1.44458 3.27336,3.226307 0,1.781728 -1.46564,3.226308 -3.27336,3.226308 -1.80772,0 -3.27336,-1.44458 -3.27336,-3.226308 0,-1.781727 1.46564,-3.226307 3.27336,-3.226307 z"
     id="path58"
     inkscape:connector-curvature="0" /><path
     id="path46"
     style="fill:none;fill-opacity:1;fill-rule:nonzero;stroke:#e6e6e6;stroke-width:2.05859947;stroke-miterlimit:4;stroke-dasharray:none"
     d="m 131.46437,49.32374 v -0.255468 c -0.99298,-0.003 -4.52503,-0.0054 -4.52503,-0.0054 -4.73263,0 -8.56923,3.781448 -8.56923,8.446051 v 23.648998 c 0,4.664856 3.8366,8.446304 8.56923,8.446304 h 4.52503 z"
     inkscape:connector-curvature="0"
     sodipodi:nodetypes="cccssscc" /><path
     id="path134"
     style="fill:#e6e6e6;fill-opacity:1;fill-rule:nonzero;stroke:none;stroke-width:0.2573249"
     d="m 128.65815,58.948017 c 0,1.692991 -1.39265,3.065624 -3.11033,3.065624 -1.71769,0 -3.11034,-1.372633 -3.11034,-3.065624 0,-1.692991 1.39265,-3.065625 3.11034,-3.065625 1.71768,0 3.11033,1.372634 3.11033,3.065625"
     inkscape:connector-curvature="0" /><path
     inkscape:connector-curvature="0"
     d="m 215.57747,196.54875 h 29.86667 v 6.68534 h -29.86667 z m 29.86667,33.90267 h -29.86667 v -26.11867 h 29.86667 z M 214.5108,195.57275 v 7.66134 1.088 26.29333 0.93333 6.69067 h 32 v -6.69067 -0.93333 -26.29333 -1.088 -7.66134 z"
     style="fill:#000000;fill-opacity:1;fill-rule:nonzero;stroke:none;stroke-width:1.33333325"
     id="path128" /><path
     id="path132"
     style="fill:#d9d9d9;fill-opacity:1;fill-rule:nonzero;stroke:none;stroke-width:1.33333325"
     d="m 219.20747,234.00302 h 3.36133 v 2.48933 c -1.012,0.19067 -2.18666,0.316 -3.25333,0.316 -2.34933,0 -3.49733,-1.04666 -3.49733,-2.50266 0,-1.456 1.148,-2.50267 3.56933,-2.50267 2.00667,0 3.05467,0.48 3.08267,1.59333 h -2.42267 c -0.008,-0.15066 -0.0893,-0.24933 -0.19867,-0.30933 -0.108,-0.0587 -0.26133,-0.0853 -0.424,-0.0853 -0.38933,0 -0.64133,0.14533 -0.768,0.336 -0.12666,0.19066 -0.16266,0.65866 -0.16266,1.06 0,0.46133 0.0533,0.77733 0.17066,0.92933 0.15467,0.19733 0.40667,0.28267 0.74134,0.28267 0.244,0 0.47866,-0.0267 0.68666,-0.0987 v -0.57333 h -0.88533 z"
     inkscape:connector-curvature="0" /><path
     id="path136"
     style="fill:#d9d9d9;fill-opacity:1;fill-rule:nonzero;stroke:none;stroke-width:1.33333325"
     d="m 227.01094,234.76035 -0.516,-1.792 h -0.0173 l -0.56934,1.792 z m -2.14267,-2.832 h 3.35334 l 2.09733,4.75467 h -2.676 l -0.252,-0.764 h -1.87067 l -0.26266,0.764 h -2.476 z"
     inkscape:connector-curvature="0" /><path
     id="path140"
     style="fill:#d9d9d9;fill-opacity:1;fill-rule:nonzero;stroke:none;stroke-width:1.33333325"
     d="m 237.04614,233.28489 h -0.0187 l -0.92133,3.39867 h -2.368 l -0.92133,-3.39867 h -0.0187 v 3.39867 h -2.18667 v -4.756 h 3.588 l 0.71334,2.83333 h 0.0187 l 0.71334,-2.83333 h 3.588 v 4.756 h -2.18667 z"
     inkscape:connector-curvature="0" /><path
     id="path144"
     style="fill:#d9d9d9;fill-opacity:1;fill-rule:nonzero;stroke:none;stroke-width:1.33333325"
     d="m 240.16027,231.92795 h 4.96133 v 1.23867 h -2.48533 v 0.50666 h 2.296 v 1.23867 h -2.296 v 0.53333 h 2.56667 v 1.23867 h -5.04267 z"
     inkscape:connector-curvature="0" /><path
     id="path148"
     style="fill:#000000;fill-opacity:1;fill-rule:nonzero;stroke:none;stroke-width:1.33333325"
     d="m 220.10094,198.97355 c -0.0293,-0.36267 -0.32,-0.568 -0.804,-0.568 -0.68,0 -0.80533,0.752 -0.80533,1.35333 0,0.58534 0.136,1.276 0.80533,1.276 0.49733,0 0.78,-0.20666 0.804,-0.59066 h 1.24267 c 0.0173,1.01333 -1.012,1.36933 -2.04667,1.36933 -1.332,0 -2.04667,-0.752 -2.04667,-2.1 0,-1.34667 0.71467,-2.07733 2.04667,-2.088 1.03467,0 2.064,0.33467 2.04667,1.348 z"
     inkscape:connector-curvature="0" /><path
     id="path152"
     style="fill:#000000;fill-opacity:1;fill-rule:nonzero;stroke:none;stroke-width:1.33333325"
     d="m 221.7836,201.73062 v -4.02133 h 1.18267 v 3.24133 h 1.93466 v 0.78 z"
     inkscape:connector-curvature="0" /><path
     id="path156"
     style="fill:#000000;fill-opacity:1;fill-rule:nonzero;stroke:none;stroke-width:1.33333325"
     d="m 227.7608,200.16542 -0.544,-1.67067 h -0.0187 l -0.57866,1.67067 z m -2.90533,1.56533 1.68666,-4.02133 h 1.444 l 1.68534,4.02133 h -1.33734 l -0.284,-0.78533 h -1.73333 l -0.27733,0.78533 z"
     inkscape:connector-curvature="0" /><path
     id="path160"
     style="fill:#000000;fill-opacity:1;fill-rule:nonzero;stroke:none;stroke-width:1.33333325"
     d="m 232.20654,198.88982 c 0.005,-0.156 -0.048,-0.27333 -0.15467,-0.356 -0.1,-0.084 -0.25333,-0.128 -0.45466,-0.128 -0.272,0 -0.50934,0.16667 -0.50934,0.36667 0,0.296 0.37867,0.39066 0.692,0.468 0.716,0.17333 1.75734,0.24 1.75734,1.32533 0,0.84667 -0.88667,1.248 -1.87467,1.248 -0.99467,0 -1.86933,-0.272 -1.888,-1.364 h 1.184 c -0.007,0.37867 0.28933,0.584 0.71467,0.584 0.27333,0 0.62133,-0.13333 0.62133,-0.4 0,-0.54667 -0.87467,-0.42933 -1.804,-0.81333 -0.432,-0.17867 -0.64533,-0.54667 -0.64533,-0.98134 0.048,-0.952 0.936,-1.21333 1.828,-1.21333 0.88266,0 1.78666,0.29467 1.716,1.264 z"
     inkscape:connector-curvature="0" /><path
     id="path164"
     style="fill:#000000;fill-opacity:1;fill-rule:nonzero;stroke:none;stroke-width:1.33333325"
     d="m 236.2728,198.88982 c 0.005,-0.156 -0.048,-0.27333 -0.15467,-0.356 -0.1,-0.084 -0.25333,-0.128 -0.45466,-0.128 -0.272,0 -0.50934,0.16667 -0.50934,0.36667 0,0.296 0.37867,0.39066 0.692,0.468 0.716,0.17333 1.75734,0.24 1.75734,1.32533 0,0.84667 -0.88667,1.248 -1.87467,1.248 -0.99467,0 -1.86933,-0.272 -1.888,-1.364 h 1.184 c -0.007,0.37867 0.28933,0.584 0.71467,0.584 0.27333,0 0.62133,-0.13333 0.62133,-0.4 0,-0.54667 -0.87467,-0.42933 -1.804,-0.81333 -0.432,-0.17867 -0.64533,-0.54667 -0.64533,-0.98134 0.048,-0.952 0.936,-1.21333 1.828,-1.21333 0.88266,0 1.78666,0.29467 1.716,1.264 z"
     inkscape:connector-curvature="0" /><path
     inkscape:connector-curvature="0"
     d="m 238.04947,197.70875 h 1.18267 v 4.02134 h -1.18267 z"
     style="fill:#000000;fill-opacity:1;fill-rule:nonzero;stroke:none;stroke-width:1.33333325"
     id="path166" /><path
     id="path170"
     style="fill:#000000;fill-opacity:1;fill-rule:nonzero;stroke:none;stroke-width:1.33333325"
     d="m 242.52934,198.97355 c -0.0293,-0.36267 -0.32,-0.568 -0.804,-0.568 -0.68133,0 -0.80533,0.752 -0.80533,1.35333 0,0.58534 0.136,1.276 0.80533,1.276 0.496,0 0.78,-0.20666 0.804,-0.59066 h 1.24267 c 0.0173,1.01333 -1.012,1.36933 -2.04667,1.36933 -1.332,0 -2.048,-0.752 -2.048,-2.1 0,-1.34667 0.716,-2.07733 2.048,-2.088 1.03467,0 2.064,0.33467 2.04667,1.348 z"
     inkscape:connector-curvature="0" /><path
     id="path174"
     style="fill:#000000;fill-opacity:1;fill-rule:nonzero;stroke:none;stroke-width:1.33333325"
     d="m 241.08214,216.62729 c 1.676,5.24267 -2.04,8.79467 -7.048,10.21467 -7.08,2.00666 -11.65067,-1.12267 -13.57867,-7.156 -2.092,-5.872 0.37734,-10.93867 7.204,-12.87334 5.09334,-1.444 10.02534,-0.716 11.83867,4.86267 l -7.33067,2.07733 c -0.80266,-2.12933 -1.776,-2.312 -2.756,-2.03466 -2.07066,0.58666 -1.62666,2.644 -0.64933,5.7 0.92667,2.89733 1.78533,5.01066 3.8,4.44 1.03467,-0.29334 1.54933,-1.072 1.02133,-3.10534 z"
     inkscape:connector-curvature="0" /><g
     id="g1096"
     transform="translate(55.347845,-168.80807)"
     style="fill:#e6e6e6"><g
       id="g1050"
       transform="matrix(1.9999964,0,0,-1.9999964,139.42076,227.25544)"
       style="fill:#e6e6e6"><path
         inkscape:connector-curvature="0"
         d="M 0,0 H 1.256 V -0.506 H 1.935 V -0.879 H 1.256 l 10e-4,-2.5 H -0.001 L 0,-0.879 h -0.682 v 0.372 h 0.683 z"
         style="fill:#e6e6e6;fill-opacity:1;fill-rule:nonzero;stroke:none"
         id="path1048" /></g><path
       inkscape:connector-curvature="0"
       d="m 109.99163,229.00542 h 2.50999 v 5.008 h -2.50999 z"
       style="fill:#e6e6e6;fill-opacity:1;fill-rule:nonzero;stroke:none;stroke-width:1.9999963"
       id="path1052" /><path
       inkscape:connector-curvature="0"
       d="m 109.98563,226.47943 h 2.51599 v 1.54 h -2.51599 z"
       style="fill:#e6e6e6;fill-opacity:1;fill-rule:nonzero;stroke:none;stroke-width:1.9999963"
       id="path1054" /><g
       id="g1058"
       transform="matrix(1.9999964,0,0,-1.9999964,156.14273,232.35543)"
       style="fill:#e6e6e6"><path
         inkscape:connector-curvature="0"
         d="m 0,0 c 0,-0.399 -0.261,-0.564 -0.514,-0.564 -0.251,0 -0.513,0.165 -0.513,0.564 v 0.539 c 0,0 10e-4,0.371 10e-4,0.523 0,0.397 0.262,0.56 0.512,0.56 C -0.263,1.622 0,1.459 0,1.062 0,0.91 0,0.63 0.001,0.529 0.001,0.522 0,0.15 0,0 m -0.503,1.933 c -1.014,0 -1.836,-0.63 -1.836,-1.406 0,-0.777 0.822,-1.407 1.836,-1.407 1.013,0 1.834,0.63 1.834,1.407 0,0.776 -0.821,1.406 -1.834,1.406"
         style="fill:#e6e6e6;fill-opacity:1;fill-rule:nonzero;stroke:none"
         id="path1056" /></g><g
       id="g1062"
       transform="matrix(1.9999964,0,0,-1.9999964,118.43021,232.35702)"
       style="fill:#e6e6e6"><path
         inkscape:connector-curvature="0"
         d="m 0,0 c 0,-0.386 -0.293,-0.488 -0.491,-0.488 -0.196,0 -0.493,0.102 -0.493,0.488 v 0.444 0.448 c 0,0.388 0.297,0.487 0.492,0.487 C -0.293,1.379 0,1.28 0,0.892 0,0.764 -0.001,0.447 -0.001,0.447 -0.001,0.447 0,0.134 0,0 M -0.264,1.783 C -0.562,1.76 -0.775,1.662 -0.975,1.56 v 1.386 h -1.24 V -0.82 h 1.242 c 0,0 0.001,0.122 0.001,0.145 0.481,-0.272 1.022,-0.271 1.445,-0.094 0.113,0.047 0.858,0.37 0.858,1.242 0,0.66 -0.691,1.383 -1.595,1.31"
         style="fill:#e6e6e6;fill-opacity:1;fill-rule:nonzero;stroke:none"
         id="path1060" /></g><g
       id="g1066"
       transform="matrix(1.9999964,0,0,-1.9999964,133.38577,229.56882)"
       style="fill:#e6e6e6"><path
         inkscape:connector-curvature="0"
         d="M 0,0 C 0.098,0.154 0.278,0.228 0.441,0.228 0.606,0.228 0.786,0.154 0.883,0 0.962,-0.125 0.967,-0.272 0.965,-0.491 H -0.083 C -0.085,-0.272 -0.08,-0.125 0,0 m 0.961,-1.398 c 0,-0.459 -0.334,-0.56 -0.519,-0.56 -0.186,0 -0.525,0.101 -0.525,0.56 0,0.137 0.001,0.517 0.001,0.517 h 2.364 c 0,0.777 -0.831,1.42 -1.852,1.42 -1.02,0 -1.849,-0.629 -1.849,-1.406 0,-0.776 0.829,-1.406 1.849,-1.406 0.847,0 1.563,0.436 1.782,1.027 L 0.961,-1.247 c 0,0 0,-0.01 0,-0.151"
         style="fill:#e6e6e6;fill-opacity:1;fill-rule:nonzero;stroke:none"
         id="path1064" /></g><g
       id="g1070"
       transform="matrix(1.9999964,0,0,-1.9999964,105.83282,233.26902)"
       style="fill:#e6e6e6"><path
         inkscape:connector-curvature="0"
         d="M 0,0 V 3.412 H -1.257 V 0 -0.372 H 0 1.36 V 0 Z"
         style="fill:#e6e6e6;fill-opacity:1;fill-rule:nonzero;stroke:none"
         id="path1068" /></g><g
       id="g1074"
       transform="matrix(1.9999964,0,0,-1.9999964,148.55734,230.83824)"
       style="fill:#e6e6e6"><path
         inkscape:connector-curvature="0"
         d="M 0,0 H 1.23 C 1.104,0.808 0.264,1.043 -0.168,1.032 -0.582,1.021 -0.928,0.86 -1.169,0.653 c -10e-4,0.062 0,0.265 0,0.265 L -2.415,0.917 -2.416,-1.588 h 1.247 c 0,0 -10e-4,1.539 -10e-4,1.645 0,0.218 0.254,0.461 0.596,0.461 C -0.232,0.518 0,0.275 0,0.057 Z"
         style="fill:#e6e6e6;fill-opacity:1;fill-rule:nonzero;stroke:none"
         id="path1072" /></g><g
       id="g1078"
       transform="matrix(1.9999964,0,0,-1.9999964,127.0114,229.90524)"
       style="fill:#e6e6e6"><path
         inkscape:connector-curvature="0"
         d="m 0,0 c 0,-0.388 -0.293,-0.487 -0.493,-0.487 -0.195,0 -0.491,0.099 -0.491,0.487 v 0.447 0.445 c 0,0.386 0.296,0.487 0.492,0.487 C -0.293,1.379 0,1.278 0,0.892 0,0.758 -0.001,0.445 -0.001,0.445 -0.001,0.445 0,0.128 0,0 m 1.331,0.419 c 0,0.872 -0.746,1.195 -0.858,1.242 -0.423,0.177 -0.965,0.178 -1.445,-0.094 0,0.023 -0.001,0.145 -0.001,0.145 h -1.241 v -3.766 h 1.239 v 1.386 c 0.005,-0.003 0.011,-0.005 0.016,-0.008 l 0.972,-1.378 h 1.23 L 0.366,-0.81 c 0.576,0.203 0.965,0.734 0.965,1.229"
         style="fill:#e6e6e6;fill-opacity:1;fill-rule:nonzero;stroke:none"
         id="path1076" /></g></g><text
     xml:space="preserve"
     style="font-style:normal;font-variant:normal;font-weight:bold;font-stretch:normal;font-size:12.04041576px;line-height:1.25;font-family:sans-serif;-inkscape-font-specification:'sans-serif Bold';letter-spacing:0px;word-spacing:0px;fill:#e6e6e6;fill-opacity:1;stroke:none;stroke-width:1.12878895"
     x="157.98311"
     y="79.515648"
     id="text1103"><tspan
       sodipodi:role="line"
       id="tspan1101"
       x="157.98311"
       y="79.515648"
       style="font-style:normal;font-variant:normal;font-weight:bold;font-stretch:normal;font-family:sans-serif;-inkscape-font-specification:'sans-serif Bold';fill:#e6e6e6;stroke-width:1.12878895">CHANGE</tspan></text>
</svg>