<svg xmlns="http://www.w3.org/2000/svg" xml:space="preserve" width="256" height="256" viewBox="0 0 341.333 341.333"><defs><clipPath id="a" clipPathUnits="userSpaceOnUse"><path d="M0 256h256V0H0Z"/></clipPath></defs><path d="M210.461 37.333h-73.136V16.005h73.136zm61.539 288H69.333V82.667H272Z" style="fill:#262626;fill-opacity:1;fill-rule:nonzero;stroke:none;stroke-width:1.33333325"/><path d="M144 325.333h-26.667v-26.666H144Z" style="fill:#191919;fill-opacity:1;fill-rule:nonzero;stroke:none;stroke-width:1.33333325"/><g clip-path="url(#a)" transform="matrix(1.33333 0 0 -1.33333 0 341.333)"><path d="M0 0c0-2.949-2.762-5.333-6.179-5.333h-123.558c-3.416 0-6.178 2.384-6.178 5.333v122.668c0 2.949 2.762 5.333 6.178 5.333H-6.179c3.417 0 6.179-2.384 6.179-5.333z" style="fill:#262626;fill-opacity:1;fill-rule:nonzero;stroke:none" transform="translate(196.386 54.404)"/><path d="M0 0h-123.636c-3.419 0-6.182-2.36-6.182-5.28v-121.44c0-2.92 2.763-5.28 6.182-5.28H0c3.419 0 6.182 2.36 6.182 5.28V-5.28C6.182-2.36 3.419 0 0 0m0-2c2.306 0 4.182-1.471 4.182-3.28v-121.44c0-1.808-1.876-3.28-4.182-3.28h-123.636c-2.306 0-4.182 1.472-4.182 3.28V-5.28c0 1.809 1.876 3.28 4.182 3.28z" style="fill:#191919;fill-opacity:1;fill-rule:nonzero;stroke:none" transform="translate(190.246 184)"/><path d="M0 0s-10.611-46.524-8.382-46.524h23.748l3.958 36h25.987V5.472H12.507S1.402 5.818 0 0" style="fill:#333;fill-opacity:1;fill-rule:nonzero;stroke:none" transform="translate(60.69 238.524)"/><path d="M0 0s10.611-46.524 8.382-46.524h-23.748l-3.957 36h-25.988V5.472h32.803S-1.402 5.818 0 0" style="fill:#333;fill-opacity:1;fill-rule:nonzero;stroke:none" transform="translate(195.31 238.524)"/><path d="M127 148h2V68h-2z" style="fill:#fff;fill-opacity:1;fill-rule:nonzero;stroke:none"/><path d="m0 0-12 12h24Z" style="fill:#fff;fill-opacity:1;fill-rule:nonzero;stroke:none" transform="translate(128 60)"/></g></svg>