<svg xmlns="http://www.w3.org/2000/svg" xml:space="preserve" width="64" height="64"><path d="M32 11.885v4.023c-8.832 0-16 7.201-16 16.092a16.08 16.08 0 0 0 4.688 11.377l2.828-2.844A12.07 12.07 0 0 1 20 32c0-6.666 5.376-12.068 12-12.068v4.023l12-6.035z" style="fill:#1abf9f;stroke:#1a1a1a;stroke-width:1px;stroke-linecap:butt;stroke-linejoin:miter;stroke-opacity:1;fill-opacity:1"/><path d="m43.312 20.623-2.828 2.845A12.07 12.07 0 0 1 44 32c0 6.666-5.376 12.069-12 12.069v-4.023L20 46.08l12 6.034v-4.023c8.832 0 16-7.2 16-16.091a16.08 16.08 0 0 0-4.688-11.377z" style="opacity:1;vector-effect:none;fill:#5b75c9;fill-opacity:1;stroke-width:1;stroke-linecap:butt;stroke-linejoin:miter;stroke-miterlimit:4;stroke-dasharray:none;stroke-dashoffset:0;stroke-opacity:1;stroke:#1a1a1a"/></svg>