<svg xmlns="http://www.w3.org/2000/svg" xml:space="preserve" width="256" height="256" viewBox="0 0 341.333 341.333"><path d="M318.889 69.333H22.445C18.9 69.333 16 72.224 16 75.757v181.274s1.208 9.634 59.393 9.636H265.94c58.184-.001 59.392-9.636 59.392-9.636V75.757c0-3.533-2.9-6.424-6.444-6.424" style="fill:#262626;fill-opacity:1;fill-rule:nonzero;stroke:none;stroke-width:1.33333325"/><path d="M282.37 71.684H61.648v167.705a6.445 6.445 0 0 0 6.445 6.446h207.833a6.445 6.445 0 0 0 6.444-6.446z" style="fill:#191919;fill-opacity:1;fill-rule:nonzero;stroke:none;stroke-width:1.33333325"/><path d="M277.333 69.333v167.388c0 1.808-1.438 3.279-3.208 3.279H67.208c-1.77 0-3.208-1.47-3.208-3.279V69.333z" style="fill:#d9d9d9;fill-opacity:1;fill-rule:nonzero;stroke:none;stroke-width:1.3333333;font-variant-east_asian:normal;opacity:1;vector-effect:none;stroke-linecap:butt;stroke-linejoin:miter;stroke-miterlimit:4;stroke-dasharray:none;stroke-dashoffset:0;stroke-opacity:1"/><path d="M276.653 240H96v-26.667h181.333v25.987a.68.68 0 0 1-.68.68" style="fill:#7b0000;fill-opacity:1;fill-rule:nonzero;stroke:none;stroke-width:1.33333325"/><path d="M250.667 192v32H272v-32Z" style="fill:#000;fill-opacity:1;fill-rule:nonzero;stroke:none;stroke-width:1.33333325"/><path d="M271.29 218.159h-19.911v-19.59h19.91zm-19.913-25.427h19.911v5.013h-19.91zm2.421 28.091h2.241v1.866c-.675.144-1.459.238-2.17.238-1.566 0-2.331-.786-2.331-1.878s.765-1.877 2.38-1.877c1.338 0 2.037.361 2.054 1.196h-1.614a.27.27 0 0 0-.132-.232.56.56 0 0 0-.283-.064c-.26 0-.428.108-.513.252-.084.143-.108.493-.108.795 0 .345.036.582.114.697.103.148.271.212.494.212.162 0 .32-.02.458-.075v-.429h-.59zm5.202.567-.344-1.343h-.012l-.379 1.344zm-1.428-2.123h2.235l1.398 3.566h-1.784l-.168-.573h-1.248l-.174.573h-1.65zm8.118 1.017h-.012l-.615 2.55h-1.578l-.615-2.55h-.012v2.55h-1.457v-3.567h2.392l.476 2.124h.012l.476-2.124h2.392v3.566h-1.459zm2.076-1.018h3.308v.93h-1.657v.38h1.53v.928h-1.53v.4h1.71v.93h-3.36z" style="fill:#fff;fill-opacity:1;fill-rule:nonzero;stroke:none;stroke-width:1.33333325"/><path d="M254.47 193.606h.783l-1.036 3.01h-.941l-1.004-3.01h.87l.642 2.181h.008zm.95.001h.787v3.01h-.787zm1.165-.001h1.103l.952 2.243.008-.008v-2.235h.71v3.01h-1.091l-.966-2.305h-.008v2.306h-.708zm3.797.584h-.87v-.584h2.547v.584h-.89v2.427h-.787zm3.261 1.255-.363-1.25h-.012l-.385 1.25zm-1.933 1.172 1.122-3.01h.96l1.123 3.01h-.89l-.189-.588h-1.154l-.184.588zm5.34-1.127h-.579v-.583h1.366v1.61c-.638.1-.759.162-1.444.162-.886-.03-1.426-.626-1.426-1.568s.54-1.539 1.426-1.568c.69-.02 1.413.088 1.425.964h-.788c-.039-.292-.256-.38-.515-.38-.532 0-.72.497-.72.984 0 .593.28.985.846.985.145 0 .29-.025.41-.05zm1.179 1.127v-3.011h2.165v.584h-1.377v.621h1.266v.584h-1.266v.638h1.377v.584zm-15.494 7.159 5.428-1.731 5.07 10.537.038-.012-1.19-11.774 5.111-1.63.287 15.467-6.903 2.201z" style="fill:#000;fill-opacity:1;fill-rule:nonzero;stroke:none;stroke-width:1.33333325"/><path d="M167.145 228.16v1.079c0 .38.03.732.072 1.074l-.71-1.525c.2-.176.418-.4.638-.628m31.701 0v1.079c0 .38.031.732.074 1.074l-.711-1.525c.2-.176.419-.4.637-.628m6.779-9.493h-1.737c-2.215 0-3.732.914-4.487 2.592a6 6 0 0 0-.695-.923c-1.022-1.108-2.201-1.67-3.504-1.67h-6.078c-.155 0-.302.035-.435.095a1.1 1.1 0 0 0-.435-.094h-9.988q-.232.002-.434.094a1.1 1.1 0 0 0-.435-.094h-5.21c-2.215 0-3.733.914-4.487 2.592a6 6 0 0 0-.696-.923c-1.023-1.108-2.202-1.67-3.503-1.67h-6.08c-.625 0-1.133.547-1.133 1.22v.633c-.051-.06-.087-.126-.14-.183-1.023-1.108-2.202-1.67-3.504-1.67h-6.08c-.154 0-.3.035-.434.095a1.1 1.1 0 0 0-.434-.094h-3.908c-.627 0-1.134.546-1.134 1.22v8.132h-3.813v-8.132c0-.674-.507-1.22-1.133-1.22H131.8c-.626 0-1.134.546-1.134 1.22v9.352c0 3.5 1.79 5.428 5.042 5.428h5.212c.153 0 .3-.035.433-.095.135.06.28.095.435.095h3.908c.154 0 .3-.035.434-.095.134.06.28.095.434.095h6.08c1.302 0 2.48-.562 3.504-1.67.053-.057.089-.124.14-.182v.632c0 .673.508 1.22 1.133 1.22h1.737q.112 0 .218-.023.104.023.217.023h1.736c.505 0 .932-.355 1.079-.846l.08.17c.192.414.584.676 1.013.676h1.737q.11 0 .218-.023.105.023.216.023h1.737c.393 0 .759-.22.964-.58.132-.228.177-.492.156-.752.852.869 2.079 1.332 3.657 1.332h5.21c.628 0 1.134-.547 1.134-1.22v-1.871c0-.083-.03-.155-.044-.233.015-.08.044-.151.044-.234v-1.87c0-.674-.506-1.22-1.133-1.22h-.17v-1.12c0-.082-.029-.154-.043-.232.014-.08.044-.151.044-.234v-1.118h.169c.155 0 .301-.035.435-.095.134.06.28.095.434.095h1.907v8.132c0 .673.508 1.22 1.133 1.22h1.738q.11 0 .216-.023.106.023.217.023h1.737c.626 0 1.134-.547 1.134-1.22v-8.132h1.642v8.132c0 .673.507 1.22 1.134 1.22h1.736q.11 0 .217-.023.105.023.217.023h1.738c.504 0 .932-.355 1.078-.846l.079.17c.192.414.585.676 1.013.676h1.738q.11 0 .217-.023.106.023.217.023h1.738c.392 0 .757-.22.964-.58.13-.228.177-.492.154-.752.852.869 2.079 1.332 3.658 1.332h1.737c3.25 0 5.041-1.928 5.041-5.428v-5.144c0-3.5-1.79-5.428-5.041-5.428" style="fill:#fff;fill-opacity:1;fill-rule:nonzero;stroke:none;stroke-width:1.33333325"/><path d="M165.238 233.447h-1.737l-2.171-4.676v4.676h-1.737V226.9h2.605zm0-9.119a2.1 2.1 0 0 1-.572 1.49q-.572.615-1.165.615h-4.343v7.014h-1.737v-8.884h5.645q.435 0 .435-.235 0-.233-.435-.233h-5.645v-1.87h6.08q.594 0 1.165.623.572.625.572 1.48m2.172 0q0 1.84-.876 2.783-.876.944-1.484 1.27l2.36 5.066h-1.737l-3.04-6.547h.868q.768 0 1.469-.756.702-.757.703-1.816 0-1.044-.703-1.808-.701-.764-1.47-.763h-6.08v-1.87h6.08q1.493 0 2.7 1.31 1.21 1.308 1.21 3.131m.868-.233q0-4.208 3.908-4.208h5.212v1.87h-5.212q-2.17 0-2.17 2.338v5.144q0 2.338 2.17 2.337h5.212v1.87h-5.212q-3.908 0-3.908-4.207z" style="fill:#00f;fill-opacity:1;fill-rule:nonzero;stroke:none;stroke-width:1.33333325"/><path d="M170.45 226.433v-2.338q0-1.871 1.737-1.87h5.21v1.87h-4.776q-.434 0-.434.467h3.908v1.87zm0 .467h5.645v1.871h-3.908q0 .468.434.468h4.776v1.87h-5.21q-1.739 0-1.738-1.87zm13.027-4.675h4.778v1.87h-3.04v9.352h-1.738zm-.434 0v11.222h-1.738v-9.352h-3.038v-1.87zm5.212-.468h-9.988v-1.871h9.988zm8.685 11.69h-1.737l-2.171-4.676v4.676h-1.737V226.9h2.605zm0-9.119a2.1 2.1 0 0 1-.572 1.49q-.572.615-1.165.615h-4.343v7.014h-1.737v-8.884h5.645q.435 0 .435-.235 0-.233-.435-.233h-5.645v-1.87h6.08q.594 0 1.165.623.572.625.572 1.48m2.172 0q0 1.84-.876 2.783-.876.944-1.484 1.27l2.36 5.066h-1.737l-3.04-6.547h.868q.767 0 1.469-.756.702-.757.703-1.816 0-1.044-.703-1.808-.701-.764-1.47-.763h-6.08v-1.87h6.08q1.493 0 2.7 1.31 1.21 1.308 1.21 3.131m6.513.234q0-.468-.434-.468h-.868q-.435 0-.435.468v4.208q0 .468.435.468h.868q.434 0 .434-.468zm1.738-.468v5.144q0 1.87-1.738 1.871h-1.737q-1.736 0-1.737-1.87v-5.145q0-1.869 1.737-1.869h1.737q1.738 0 1.738 1.87m.434 0q0-2.339-2.172-2.338h-1.737q-2.171 0-2.17 2.337v5.144q-.001 2.339 2.17 2.338h1.737q2.172 0 2.172-2.338zm1.736 0v5.143q0 4.209-3.908 4.208h-1.737q-3.908 0-3.908-4.208v-5.144q0-4.208 3.908-4.208h1.737q3.909 0 3.908 4.208m-73.391 5.144q-.434 0-.434-.468v-8.884H131.8v9.352q0 4.209 3.908 4.208h5.212v-4.208zm5.645 4.209h3.908v-13.56h-3.908zm10.423-8.885h-1.738v-.468h1.738q.434.001.434.235t-.434.233m0 4.676h-1.738v-.468h1.738q.434.001.434.235t-.434.233m4.342-4.909q0-1.824-1.208-3.133-1.209-1.31-2.7-1.31h-6.08v13.56h6.08q1.491 0 2.7-1.309t1.208-3.132q0-1.325-.593-2.323.593-.997.593-2.353" style="fill:#00f;fill-opacity:1;fill-rule:nonzero;stroke:none;stroke-width:1.33333325"/><path d="M106.667 240H64.68a.68.68 0 0 1-.68-.68V69.333h42.667z" style="fill:#b80000;fill-opacity:1;fill-rule:nonzero;stroke:none;stroke-width:1.33333325"/><path d="M196.995 207.099v-.718h2.58q.287.001.286-.238v-.48h1.435v.718q0 .718-.575.718zm-1.72-1.435h1.433v1.913h-1.433zm0-.239q0-.717.573-.717h4.873q.575 0 .575.717z" style="fill:#c2c2c2;fill-opacity:1;fill-rule:nonzero;stroke:none;stroke-width:1.33333325"/><path d="M197.236 205.848h2.097v.11h-2.097Zm3.485-1.564h-4.873c-.259 0-1.101.083-1.101 1.141a.3.3 0 0 0 .021.119.3.3 0 0 0-.021.12v1.913c0 .234.236.423.528.423h1.433c.292 0 .528-.19.528-.423v-.056h3.485c.259 0 1.103-.081 1.103-1.14v-.717a.4.4 0 0 0-.021-.12.4.4 0 0 0 .021-.119c0-1.058-.844-1.141-1.103-1.141m-4.013 3.293h-1.433v-1.913h1.433zm4.587-1.913v.717q0 .718-.574.718h-3.726v-.718h2.581q.285 0 .285-.238v-.479zm-.574-.957q.574 0 .574.718h-6.02q0-.717.573-.718z" style="fill:#000;fill-opacity:1;fill-rule:nonzero;stroke:none;stroke-width:1.33333325"/><path d="M202.443 207.577q-.574 0-.574-.717v-1.196h1.434v.956q-.001.24.286.24h3.44v.717zm.86-2.152h-1.434v-.719h1.434z" style="fill:#c2c2c2;fill-opacity:1;fill-rule:nonzero;stroke:none;stroke-width:1.33333325"/><path d="M203.303 204.284h-1.434c-.292 0-.528.19-.528.423v.718a.3.3 0 0 0 .021.12.3.3 0 0 0-.02.12v1.195c0 1.057.842 1.14 1.1 1.14h4.587c.292 0 .528-.19.528-.423v-.717c0-.235-.236-.424-.528-.424h-3.198v-.772a.4.4 0 0 0-.022-.12.4.4 0 0 0 .022-.119v-.718c0-.234-.236-.423-.528-.423m0 1.38v.956q-.001.24.286.24h3.44v.717h-4.586q-.574 0-.574-.717v-1.196zm0-.239h-1.434v-.718h1.434z" style="fill:#000;fill-opacity:1;fill-rule:nonzero;stroke:none;stroke-width:1.33333325"/><path d="M212.19 204.707h1.434v.718h-1.433zm-4.013 2.87q-.573 0-.573-.717v-1.196h1.433v.956q0 .24.286.24h2.581q.287 0 .287-.24v-.956h1.433v1.196q0 .718-.573.717zm.86-2.152h-1.433v-.718h1.433z" style="fill:#c2c2c2;fill-opacity:1;fill-rule:nonzero;stroke:none;stroke-width:1.33333325"/><path d="M213.624 204.284h-1.433c-.292 0-.528.19-.528.423v.718a.3.3 0 0 0 .021.12.3.3 0 0 0-.021.12v.771h-2.098v-.772a.4.4 0 0 0-.02-.12.4.4 0 0 0 .02-.119v-.718c0-.234-.237-.423-.528-.423h-1.434c-.29 0-.528.19-.528.423v.718q0 .063.021.12a.4.4 0 0 0-.021.12v1.195c0 1.057.844 1.14 1.102 1.14h4.874c.258 0 1.101-.083 1.101-1.14v-1.196a.4.4 0 0 0-.021-.12.4.4 0 0 0 .021-.119v-.718c0-.234-.236-.423-.528-.423m0 1.38v1.196q0 .716-.573.717h-4.874q-.574 0-.574-.717v-1.196h1.434v.956q0 .24.286.24h2.581q.286 0 .287-.24v-.956zm-4.587-.239h-1.433v-.718h1.433zm4.587 0h-1.433v-.718h1.433z" style="fill:#000;fill-opacity:1;fill-rule:nonzero;stroke:none;stroke-width:1.33333325"/><path d="M214.197 205.903v-.239h1.433q0 .24.287.239h3.441q.86 0 .86.717v.24q0 .716-.575.717h-5.446v-.717h4.301q.285 0 .285-.12t-.285-.12h-3.728q-.574 0-.573-.717m0-.478q0-.718.573-.718h5.161v.718z" style="fill:#c2c2c2;fill-opacity:1;fill-rule:nonzero;stroke:none;stroke-width:1.33333325"/><path d="M219.931 204.284h-5.161c-.258 0-1.102.083-1.102 1.141q0 .063.022.12a.4.4 0 0 0-.022.12v.238c0 .284.062.497.155.657a.39.39 0 0 0-.155.3v.717c0 .234.236.423.528.423h5.448c.258 0 1.102-.083 1.102-1.14v-.24c0-.393-.158-.699-.443-.895a.39.39 0 0 0 .156-.3v-.718c0-.234-.236-.423-.528-.423m-4.301 1.38q0 .24.286.239h3.442q.86 0 .86.717v.24q0 .716-.574.717h-5.448v-.717h4.302q.285 0 .286-.12 0-.12-.286-.12h-3.728q-.574 0-.574-.717v-.239zm4.301-.957v.718h-5.735q0-.718.574-.718z" style="fill:#000;fill-opacity:1;fill-rule:nonzero;stroke:none;stroke-width:1.33333325"/><path d="M222.889 206.86v-1.196h1.433v1.196h2.868q.285 0 .285-.12t-.285-.12h-1.721v-.718h2.58q.86 0 .86.718v.24q0 .717-.574.717h-4.873q-.574 0-.573-.717m0-1.435q0-.718.573-.717h5.161v.717z" style="fill:#c2c2c2;fill-opacity:1;fill-rule:nonzero;stroke:none;stroke-width:1.33333325"/><path d="M224.85 205.848h.095a.3.3 0 0 0-.004.055v.533h-.09zm3.773-1.564h-5.16c-.26 0-1.102.083-1.102 1.142a.3.3 0 0 0 .021.118.3.3 0 0 0-.021.12v1.196c0 1.058.842 1.14 1.101 1.14h4.873c.26 0 1.102-.082 1.102-1.14v-.24c0-.393-.156-.698-.443-.894a.38.38 0 0 0 .157-.3v-.72c0-.232-.237-.422-.528-.422m-4.3 1.38v1.196h2.866q.287 0 .286-.12.001-.12-.286-.12h-1.72v-.717h2.58q.86 0 .86.717v.24q.001.717-.574.716h-4.873q-.574 0-.573-.716v-1.196zm4.301-.957v.719h-5.734q0-.72.573-.72z" style="fill:#000;fill-opacity:1;fill-rule:nonzero;stroke:none;stroke-width:1.33333325"/><path d="M234.603 204.707h1.72l-1.279.719h-1.716zm-.017 2.87-1.683-.946-1.684.946H229.5l2.543-1.431-.856-.481h3.432l-.856.48 2.543 1.432zm-3.826-2.151-1.277-.719h1.72l1.273.719z" style="fill:#c2c2c2;fill-opacity:1;fill-rule:nonzero;stroke:none;stroke-width:1.33333325"/><path d="M234.619 206.087h.005zm1.704-.957h.005zm0-.846h-1.72a.6.6 0 0 0-.304.078l-1.274.717a.5.5 0 0 0-.122.096.5.5 0 0 0-.123-.096l-1.273-.717a.6.6 0 0 0-.304-.078h-1.72c-.23 0-.435.12-.504.296-.07.176.012.367.201.474l1.277.717a.6.6 0 0 0 .254.075.44.44 0 0 0 .172.164l.241.136-1.928 1.085c-.188.105-.27.297-.2.473s.273.296.504.296h1.72a.6.6 0 0 0 .303-.077l1.38-.776 1.38.776c.09.05.194.077.302.077h1.72c.231 0 .435-.12.504-.296.07-.176-.012-.368-.2-.473l-1.928-1.085.242-.136a.45.45 0 0 0 .172-.164.6.6 0 0 0 .253-.075l1.277-.717c.19-.107.271-.298.202-.474-.07-.176-.274-.296-.504-.296m-1.704 1.38-.856.482 2.542 1.43h-1.72l-1.682-.945-1.683.945h-1.72l2.543-1.43-.856-.482zm-3.416-.957 1.274.719h-1.716l-1.278-.719zm5.12 0-1.278.719h-1.716l1.274-.719z" style="fill:#000;fill-opacity:1;fill-rule:nonzero;stroke:none;stroke-width:1.33333325"/><path d="M186.985 202.767v-3.579l2.434-1.432h6.49l-1.622 1.074h-4.057v2.864h2.435v-.716h-2.03l1.623-1.074h3.652v1.79l-1.623 1.073z" style="fill:#9bc2dd;fill-opacity:1;fill-rule:nonzero;stroke:none;stroke-width:1.33333325"/><path d="M195.91 198.18h.005zm.005-.847h-6.495a.6.6 0 0 0-.314.083l-2.434 1.432a.4.4 0 0 0-.216.34v3.58c0 .233.236.422.528.422h7.303a.6.6 0 0 0 .336-.097l1.623-1.073c.121-.08.192-.2.192-.327v-1.79c0-.233-.236-.422-.528-.422h-3.65a.6.6 0 0 0-.338.097l-1.164.77v-1.095h3.53a.6.6 0 0 0 .335-.096l1.604-1.062c.13-.077.213-.2.213-.338 0-.235-.233-.424-.525-.424m-.005.424-1.623 1.073h-4.057v2.863h2.435v-.715h-2.028l1.622-1.075h3.651v1.79l-1.623 1.074h-7.302v-3.58l2.434-1.43zm0 0h.005" style="fill:#000;fill-opacity:1;fill-rule:nonzero;stroke:none;stroke-width:1.33333325"/><path d="M196.315 202.767v-3.579l2.435-1.432h6.49l-1.622 1.074h-4.057v1.074h4.057l-1.623 1.074h-2.434v.716h5.68l-1.623 1.073z" style="fill:#9bc2dd;fill-opacity:1;fill-rule:nonzero;stroke:none;stroke-width:1.33333325"/><path d="M205.24 198.18h.006zm.006-.847h-6.496a.6.6 0 0 0-.313.083l-2.434 1.432a.4.4 0 0 0-.216.34v3.58c0 .233.236.422.528.422h7.303a.6.6 0 0 0 .336-.097l1.623-1.073c.172-.114.236-.302.16-.47s-.274-.28-.496-.28h-2.86l1.554-1.026a.4.4 0 0 0 .214-.34c0-.234-.234-.423-.526-.423h-3.535v-.228h3.53a.6.6 0 0 0 .336-.096l1.604-1.061c.13-.078.214-.2.214-.34 0-.234-.234-.423-.526-.423m-1.628 2.57h.005m1.618-2.146-1.623 1.073h-4.057v1.074h4.057l-1.623 1.074h-2.434v.715h5.68l-1.623 1.075h-7.303v-3.58l2.435-1.431zm0 0h.006" style="fill:#000;fill-opacity:1;fill-rule:nonzero;stroke:none;stroke-width:1.33333325"/><path d="M204.835 202.767v-5.01h3.245l2.435 1.073v-1.074h3.245v5.011h-3.245v-2.505l-2.435-1.074v3.58z" style="fill:#9bc2dd;fill-opacity:1;fill-rule:nonzero;stroke:none;stroke-width:1.33333325"/><path d="M213.76 197.333h-3.245c-.292 0-.528.19-.528.423v.359l-1.652-.73a.7.7 0 0 0-.255-.052h-3.245c-.292 0-.528.19-.528.423v5.01c0 .235.236.425.528.425h3.245c.292 0 .528-.19.528-.424v-2.863l1.379.608v2.255c0 .234.236.424.528.424h3.245c.292 0 .528-.19.528-.424v-5.011c0-.233-.236-.423-.528-.423m0 .423v5.01h-3.245v-2.505l-2.435-1.073v3.579h-3.245v-5.011h3.245l2.435 1.075v-1.075z" style="fill:#000;fill-opacity:1;fill-rule:nonzero;stroke:none;stroke-width:1.33333325"/><path d="M214.166 202.767v-3.579l2.434-1.432h6.491l-1.623 1.074h-4.057v1.074h4.057l-1.622 1.074h-2.435v.716h5.68l-1.623 1.073z" style="fill:#9bc2dd;fill-opacity:1;fill-rule:nonzero;stroke:none;stroke-width:1.33333325"/><path d="M223.09 198.18h.006zm.006-.847H216.6a.6.6 0 0 0-.314.083l-2.434 1.432a.4.4 0 0 0-.216.34v3.58c0 .233.236.422.528.422h7.303a.6.6 0 0 0 .336-.097l1.623-1.073c.172-.114.236-.302.161-.47-.076-.168-.275-.28-.497-.28h-2.859l1.553-1.026a.4.4 0 0 0 .214-.34c0-.234-.234-.423-.526-.423h-3.534v-.228h3.53a.6.6 0 0 0 .335-.096l1.604-1.061c.13-.078.214-.2.214-.34 0-.234-.234-.423-.526-.423m-1.628 2.57h.005m1.618-2.146-1.623 1.073h-4.057v1.074h4.057l-1.623 1.074h-2.434v.715h5.68l-1.623 1.075h-7.303v-3.58l2.435-1.431zm0 0h.006" style="fill:#000;fill-opacity:1;fill-rule:nonzero;stroke:none;stroke-width:1.33333325"/><path d="M222.685 200.978v-1.79l2.435-1.432h6.49l-1.622 1.074h-4.057v1.074h5.68v1.79l-1.623 1.073h-7.303l1.623-1.073h4.057v-.716z" style="fill:#9bc2dd;fill-opacity:1;fill-rule:nonzero;stroke:none;stroke-width:1.33333325"/><path d="M231.61 198.18h.005zm.005-.847h-6.495a.6.6 0 0 0-.314.083l-2.433 1.432a.4.4 0 0 0-.216.34v1.79c0 .233.236.423.528.423h1.236l-1.572 1.04c-.172.113-.236.301-.161.47.076.167.274.28.497.28h7.303a.6.6 0 0 0 .336-.098l1.622-1.073c.122-.08.192-.2.192-.327v-1.79c0-.233-.236-.422-.528-.422h-5.152v-.228h3.53a.6.6 0 0 0 .336-.096l1.604-1.061c.129-.078.213-.2.213-.34 0-.234-.233-.423-.525-.423m-.005.424-1.623 1.073h-4.057v1.074h5.68v1.789l-1.623 1.075h-7.303l1.623-1.075h4.057v-.715h-5.68v-1.79l2.435-1.431zm0 0h.006" style="fill:#000;fill-opacity:1;fill-rule:nonzero;stroke:none;stroke-width:1.33333325"/><path d="M232.016 197.756h3.245v5.01h-3.245z" style="fill:#9bc2dd;fill-opacity:1;fill-rule:nonzero;stroke:none;stroke-width:1.33333325"/><path d="M235.262 197.333h-3.246c-.292 0-.528.19-.528.423v5.01c0 .235.236.425.528.425h3.246c.292 0 .528-.19.528-.424v-5.011c0-.233-.236-.423-.528-.423m0 5.434h-3.246v-5.011h3.246z" style="fill:#000;fill-opacity:1;fill-rule:nonzero;stroke:none;stroke-width:1.33333325"/><path d="M235.667 200.978v-1.79l2.435-1.432h6.49l-1.622 1.074h-4.057v1.074h5.68v1.79l-1.623 1.073h-7.303l1.623-1.073h4.057v-.716z" style="fill:#9bc2dd;fill-opacity:1;fill-rule:nonzero;stroke:none;stroke-width:1.33333325"/><path d="M244.592 198.18h.005zm.005-.847h-6.495a.6.6 0 0 0-.314.083l-2.433 1.432a.4.4 0 0 0-.216.34v1.79c0 .233.236.423.528.423h1.236l-1.572 1.04c-.172.113-.236.301-.161.47.076.167.274.28.497.28h7.303a.6.6 0 0 0 .336-.098l1.622-1.073c.122-.08.192-.2.192-.327v-1.79c0-.233-.236-.422-.528-.422h-5.152v-.228h3.53a.6.6 0 0 0 .336-.096l1.604-1.061c.13-.078.213-.2.213-.34 0-.234-.233-.423-.525-.423m-.005.424-1.623 1.073h-4.057v1.074h5.68v1.789l-1.623 1.075h-7.303l1.623-1.075h4.057v-.715h-5.68v-1.79l2.435-1.431zm0 0h.006" style="fill:#000;fill-opacity:1;fill-rule:nonzero;stroke:none;stroke-width:1.33333325"/><path d="m146.932 205.474-.734 1.277a.29.29 0 0 1-.26.127h-2.418v-3.088h2.419q.172 0 .259.14l.734 1.262.043.142zm2.074-.282-1.34-2.245q-.173-.28-.431-.28h-5.788V208h5.788q.258 0 .432-.28l1.339-2.246.042-.14zm.734-2.525h5.528q.26 0 .432.281l.908 1.543.042.141-.042.14-1.34 1.263L156.65 208h-2.073l-1.987-2.667h1.036q.174 0 .26-.07l.69-.631-.344-.703a.28.28 0 0 0-.26-.14h-2.16V208h-2.072zm9.675 5.333h-2.074v-5.333h2.074z" style="fill:#fff;fill-opacity:1;fill-rule:nonzero;stroke:none;stroke-width:1.33333325"/><path d="M121.897 208h-2.073v-5.333h2.073z" style="fill:#00f;fill-opacity:1;fill-rule:nonzero;stroke:none;stroke-width:1.33333325"/><path d="m162.179 204.421 2.073 2.456 2.073-2.456v-1.755h2.074v1.966q0 .28-.087.421L165.98 208h-3.456l-2.332-2.947q-.086-.14-.087-.421v-1.966h2.074zm8.984 1.474v.982H176V208h-6.91v-3.51q0-.14.086-.28l.95-1.403q.087-.14.346-.14H176v1.122h-4.147a.28.28 0 0 0-.258.14l-.432.843H176l-.69 1.123z" style="fill:#fff;fill-opacity:1;fill-rule:nonzero;stroke:none;stroke-width:1.33333325"/><path d="M115.887 205.333h-1.036l.41.552c.068.09.188.144.316.144h1.789c.107 0 .21-.037.279-.104l1.222-1.153.044-.14-.044-.141-.906-1.543q-.174-.281-.432-.281H112V208h2.072v-4.21h2.16q.172 0 .26.14l.345.702-.692.63q-.086.07-.259.071m14.14 1.544h-5.217v-2.106l.435-.84a.29.29 0 0 1 .261-.142h4.521v-1.123h-5.913q-.26 0-.348.141l-.956 1.403a.5.5 0 0 0-.087.281v3.228q0 .28.347.28h6.957zm6.834-1.403-.734 1.277a.29.29 0 0 1-.26.127H133.5a.3.3 0 0 1-.26-.127l-.733-1.277-.044-.14.044-.142.733-1.262a.29.29 0 0 1 .26-.14h2.368q.172 0 .259.14l.734 1.262.043.142zm2.074-.282-1.34-2.245q-.173-.28-.431-.28h-4.96q-.26 0-.432.28l-1.339 2.245-.044.142.044.14 1.339 2.245q.172.281.432.281h4.96q.258 0 .432-.28l1.339-2.246.042-.14z" style="fill:#00f;fill-opacity:1;fill-rule:nonzero;stroke:none;stroke-width:1.33333325"/><path d="M85.333 218.742c-4.857 0-8.808 3.555-8.808 7.924 0 4.37 3.951 7.924 8.808 7.924 4.858 0 8.808-3.554 8.808-7.924 0-4.369-3.95-7.924-8.808-7.924" style="fill:#f39b11;fill-opacity:1;fill-rule:nonzero;stroke:none;stroke-width:1.33333325"/><path d="M83.783 225.985s-6.38-2.769-6.3-2.91c.082-.14.907-1.279.907-1.279l4.019 2.725.168-.277-3.344-3.288.63-.496 4.256 4.516z" style="fill:#e77f22;fill-opacity:1;fill-rule:nonzero;stroke:none;stroke-width:1.33333325"/><path d="m80.422 220.091 2.576 3.276 1.635-.465-.736-4.053-1.37.305 1.003 3.02-.42.127-1.944-2.614z" style="fill:#d4a600;fill-opacity:1;fill-rule:nonzero;stroke:none;stroke-width:1.33333325"/><path d="M85.663 224.698c.14-.277 2.239-5.613 2.34-5.584l.461.146s-1.034 1.792-.921 1.848.224.222.224.222l1.387-1.802.978.497-1.668 1.881 1.126 1.467 2.78-1.467.896 1.316-6.228 2.082zm7.734 5.156-2.32-.5s-.786.356-.646.5 2.111 1.36 2.111 1.36l-.972 1.044-1.983-1.781s-.564.188-.446.33c.117.14 1.816 1.954 1.816 1.954l-.824.619-1.44-2.012-1.375.674.592 2.203-1.737.31-.622-5.869 7.244-.278.824.946z" style="fill:#d35400;fill-opacity:1;fill-rule:nonzero;stroke:none;stroke-width:1.33333325"/><path d="m82.044 227.954-4.561 2.196s.312.614.388.722c.077.11 1.677-.976 1.677-.976s.263.506.215.556c-.047.051-1.42 1.03-1.42 1.03l.657.686 1.423-1.16.696.58-1.121 1.38.425.274 1.088-1.35.533.276-.856 1.488.52.232.82-1.544.807.228-.573 1.674.734.172.624-1.72.226-2.448z" style="fill:#e77f22;fill-opacity:1;fill-rule:nonzero;stroke:none;stroke-width:1.33333325"/><path d="M92.963 226.667c0 3.79-3.416 6.864-7.63 6.864s-7.63-3.074-7.63-6.864 3.416-6.864 7.63-6.864 7.63 3.073 7.63 6.864" style="fill:#ff0;fill-opacity:1;fill-rule:nonzero;stroke:none;stroke-width:1.33333325"/><path d="m84.634 218.848.496 7.39.477 8.35.565-.033-.838-8.343.53-7.456z" style="fill:#d9d9d9;fill-opacity:1;fill-rule:nonzero;stroke:none;stroke-width:1.33333325"/><path d="m80.422 221.413 4.54 4.951 2.994 6.75s1.421-.48 2.177-1.111l-4.8-5.79-3.75-5.524z" style="fill:#d4a600;fill-opacity:1;fill-rule:nonzero;stroke:none;stroke-width:1.33333325"/><path d="m84.962 226.364-.616-6.504 1.513-.057-.28 6.56-.056 2.992.65 4.134h-1.52l.606-4.273z" style="fill:#e6e6e6;fill-opacity:1;fill-rule:nonzero;stroke:none;stroke-width:1.33333325"/><path d="m85.576 226.505-4.807 5.663-1.612-1.472 5.944-4.837 2.442.656 4.23 3.836-1.09 1.21z" style="fill:#eac500;fill-opacity:1;fill-rule:nonzero;stroke:none;stroke-width:1.33333325"/><path d="m85.971 224.875 4.162-3.544.824.697-4.088 3.376z" style="fill:#e6e6e6;fill-opacity:1;fill-rule:nonzero;stroke:none;stroke-width:1.33333325"/><path d="M85.333 219.802c-4.213 0-7.63 3.074-7.63 6.864 0 3.792 3.417 6.866 7.63 6.866 4.214 0 7.631-3.074 7.631-6.866 0-3.79-3.417-6.864-7.63-6.864m0 .152c4.114 0 7.46 3.01 7.46 6.712s-3.346 6.714-7.46 6.714c-4.115 0-7.462-3.012-7.462-6.714 0-3.701 3.347-6.712 7.461-6.712" style="fill:#ff0;fill-opacity:1;fill-rule:nonzero;stroke:none;stroke-width:1.33333325"/><path d="M85.333 218.818c-4.81 0-8.724 3.521-8.724 7.848 0 4.328 3.914 7.85 8.724 7.85s8.724-3.522 8.724-7.85-3.913-7.848-8.724-7.848m0 15.848c-4.902 0-8.892-3.588-8.892-8 0-4.41 3.99-8 8.892-8 4.903 0 8.892 3.59 8.892 8 0 4.412-3.989 8-8.892 8" style="fill:#f39b11;fill-opacity:1;fill-rule:nonzero;stroke:none;stroke-width:1.33333325"/><path d="M94.155 223.373H76.603l-.148.134-1.64 1.476-.148.133v2.335l.135.13 1.683 1.628.15.146h17.566l.15-.147 1.515-1.476.135-.13v-2.479l-.14-.132-1.556-1.476z" style="fill:#eac500;fill-opacity:1;fill-rule:nonzero;stroke:none;stroke-width:1.33333325"/><path d="m75.172 225.304 1.64-1.476h17.126l1.558 1.476v2.12L93.98 228.9H76.854l-1.682-1.628z" style="fill:#ff0;fill-opacity:1;fill-rule:nonzero;stroke:none;stroke-width:1.33333325"/><path d="M95.495 225.304v2.12L93.98 228.9H76.855l-1.684-1.628-.504.172v.007l.135.13 1.682 1.629.151.145h17.567l.15-.147 1.514-1.476.134-.13v-2.455z" style="fill:#d4a600;fill-opacity:1;fill-rule:nonzero;stroke:none;stroke-width:1.33333325"/><path d="M84.244 227.602h-.407l-.508-.914v.914h-.407v-1.28h.611zm0-1.782q0 .17-.134.29a.4.4 0 0 1-.273.122h-1.016v1.37h-.407v-1.737h1.322q.102 0 .101-.045 0-.046-.101-.046h-1.322v-.366h1.423q.14 0 .273.122.135.122.134.29m.508 0q0 .36-.206.544a1.5 1.5 0 0 1-.346.248l.552.99h-.407l-.71-1.28h.202q.18 0 .344-.148a.464.464 0 0 0 0-.708.5.5 0 0 0-.344-.149h-1.423v-.365h1.423q.35 0 .632.256a.8.8 0 0 1 .283.612m.203-.046q0-.823.915-.823h1.218v.366H85.87q-.508 0-.508.457v1.005q0 .459.508.458h1.218v.365H85.87q-.915.001-.915-.823z" style="fill:#262626;fill-opacity:1;fill-rule:nonzero;stroke:none;stroke-width:1.33333325"/><path d="M85.463 226.23v-.456q0-.366.407-.366h1.219v.366H85.97q-.102 0-.101.092h.915v.365zm0 .092h1.322v.366h-.915q0 .092.101.092h1.118v.365h-1.22q-.406 0-.406-.365zm3.049-.914h1.117v.366h-.71v1.829h-.407zm-.102 0v2.195h-.406v-1.83h-.712v-.365zm1.219-.092h-2.337v-.365h2.337zm2.033 2.286h-.407l-.508-.914v.914h-.407v-1.28h.61zm0-1.782q0 .17-.134.29a.4.4 0 0 1-.273.122h-1.016v1.37h-.407v-1.737h1.322q.101 0 .1-.045.001-.046-.1-.046h-1.322v-.366h1.423q.14 0 .273.122.135.122.134.29m.508 0q0 .36-.206.544a1.5 1.5 0 0 1-.346.248l.552.99h-.407l-.71-1.28h.202q.18 0 .344-.148a.464.464 0 0 0 0-.708.5.5 0 0 0-.344-.149h-1.423v-.365h1.423q.35 0 .632.256a.8.8 0 0 1 .283.612m1.524.045q0-.092-.101-.092h-.204q-.101 0-.102.092v.823q0 .092.102.092h.204q.101 0 .1-.092zm.407-.092v1.007q0 .365-.407.365h-.407q-.405 0-.406-.365v-1.007q0-.364.406-.365h.407q.406.001.407.365m.1 0q0-.456-.507-.456h-.407q-.507 0-.508.456v1.007q0 .456.508.456h.407q.508 0 .508-.456zm.408 0v1.007q0 .823-.915.823h-.407q-.914 0-.914-.823v-1.007q0-.822.914-.822h.407q.915 0 .915.822m-17.746 1.214-.008-.025h.008zm.572-.208q-.1 0-.101-.092v-1.736h-.915v1.828q0 .822.915.823h1.22v-.823zm1.321.824h.915v-2.651h-.915zm2.439-1.738h-.406v-.092h.406q.102 0 .102.047 0 .045-.102.045m0 .915h-.406v-.092h.406q.102 0 .102.045 0 .047-.102.047m1.016-.96a.8.8 0 0 0-.282-.613.92.92 0 0 0-.632-.256h-1.423v2.652h1.423a.92.92 0 0 0 .632-.256.8.8 0 0 0 .282-.614.76.76 0 0 0-.138-.453.8.8 0 0 0 .138-.46" style="fill:#262626;fill-opacity:1;fill-rule:nonzero;stroke:none;stroke-width:1.33333325"/><path d="m92.647 203.842-10.105 5.687h8.98q.332 0 .504-.159.17-.157.279-.565h.342v4.528h-.342q-.109-.406-.279-.564-.172-.159-.504-.158H79.134q-.322 0-.493.158-.171.157-.279.564h-.343v-5.94h.343q.13.53.59.53.214 0 .493-.158l7.561-4.204-7.433-4.262q-.492-.282-.718-.282-.438 0-.493.564h-.343v-5.828h.343q.108.408.279.565.17.158.493.159h12.388q.332 0 .504-.159.17-.157.279-.565h.342v4.812h-.342q-.098-.396-.274-.56t-.509-.164h-8.98zm-6.419-16.943h4.008v-9.915q0-.338-.15-.519-.15-.18-.535-.293v-.363h3.783v.363q-.387.113-.536.293t-.151.519v14.003h-.343q-.106-.407-.278-.566-.171-.157-.503-.157H79.146q-.334 0-.504.157-.172.16-.28.566h-.343v-13.732q0-.338-.152-.519-.153-.181-.533-.293v-.362h3.782v.362q-.38.112-.533.293-.152.18-.152.519v9.644h3.472v-6.256q0-.338-.15-.519-.151-.181-.535-.293v-.362h3.696v.362q-.374.112-.53.293-.156.18-.156.519zm1.158-27.192v3.805q0 .35.149.526.15.175.536.288v.361h-3.408v-.361q.397-.112.541-.288.146-.174.146-.524v-7.307h.342q.109.4.279.561.172.161.504.162h3q.334 0 .504-.156.172-.157.279-.567h.268q2.378 4.389 2.378 8.508 0 3.734-1.682 6.095-2.122 2.966-5.894 2.966-3.514 0-5.594-2.64-1.971-2.51-1.971-6.664 0-1.32.23-2.49.23-1.169.777-2.659.29-.768.289-1.096.001-.235-.247-.553l.162-.315 3.504 1.81-.16.329q-.353.012-.507.101-.155.091-.379.407-.49.689-.837 2.02-.346 1.331-.347 2.517 0 2.415 1.286 4.007 1.454 1.794 3.842 1.794 2.313 0 3.736-1.75 1.306-1.604 1.307-4.223 0-1.275-.279-2.519-.28-1.241-.761-2.145zm-.472-15.98-5.21 2.5 5.21 2.54zm2.004-.968v7.005l2.057 1.038q.429.215.675.214.471 0 .655-.754h.342v5.098h-.342q-.087-.45-.3-.689-.216-.237-.836-.541l-11.242-5.67q-.535-.27-.857-.27-.493 0-.708.654h-.343v-5.465h.343q.182.666.632.667.312 0 .708-.215l11.273-5.872q.719-.373.982-.655.261-.282.348-.757h.342v5.675h-.342q-.118-.748-.666-.748-.223 0-.664.226zm-1.532-27.011v3.805q0 .35.149.526.15.175.536.288v.36h-3.408v-.36q.397-.113.541-.288.146-.174.146-.524v-7.307h.342q.109.4.279.561.172.161.504.162h3q.334 0 .504-.156.172-.157.279-.567h.268q2.378 4.389 2.378 8.508 0 3.734-1.682 6.095-2.122 2.966-5.894 2.966-3.514 0-5.594-2.641-1.971-2.508-1.971-6.663 0-1.32.23-2.49t.777-2.66q.29-.767.289-1.095.001-.235-.247-.553l.162-.315 3.504 1.81-.16.329q-.353.011-.507.1-.155.092-.379.408-.49.689-.837 2.02-.346 1.331-.347 2.517 0 2.414 1.286 4.007 1.454 1.794 3.842 1.794 2.313 0 3.736-1.75 1.306-1.604 1.307-4.223 0-1.275-.279-2.519-.28-1.241-.761-2.145zm-1.158-10.22h4.008v-9.913q0-.34-.15-.52-.15-.183-.535-.294v-.361h3.783v.361q-.387.112-.536.294-.15.18-.151.52v14h-.343q-.106-.405-.278-.563-.171-.158-.503-.159H79.146q-.334 0-.504.159-.172.157-.28.564h-.343v-13.73q0-.34-.152-.52-.153-.18-.533-.294v-.361h3.782v.36q-.38.115-.533.294-.152.182-.152.52v9.643h3.472v-6.256q0-.338-.15-.519-.151-.18-.535-.294v-.36h3.696v.36q-.374.114-.53.294t-.156.519zM82.627 88.24h8.895q.332 0 .504-.157.17-.16.279-.566h.342v4.528h-.342q-.109-.405-.279-.564-.172-.158-.504-.158H79.134q-.322 0-.493.158-.172.159-.279.564h-.343v-5.238h.343q.118.484.493.485.258 0 .568-.317l8.391-8.502h-8.68q-.322 0-.493.158-.172.158-.279.564h-.343v-4.528h.343q.107.408.279.565.17.157.493.157h12.388q.332 0 .504-.157.17-.157.279-.565h.342v4.856h-.342q-.098-.475-.462-.475-.213 0-.75.553z" style="fill:#fff;fill-opacity:1;fill-rule:nonzero;stroke:none;stroke-width:1.33333325"/></svg>