<?xml version="1.0" encoding="UTF-8" standalone="no"?>
<svg
   xmlns:dc="http://purl.org/dc/elements/1.1/"
   xmlns:cc="http://creativecommons.org/ns#"
   xmlns:rdf="http://www.w3.org/1999/02/22-rdf-syntax-ns#"
   xmlns:svg="http://www.w3.org/2000/svg"
   xmlns="http://www.w3.org/2000/svg"
   xmlns:sodipodi="http://sodipodi.sourceforge.net/DTD/sodipodi-0.dtd"
   xmlns:inkscape="http://www.inkscape.org/namespaces/inkscape"
   viewBox="0 0 341.33334 341.33334"
   height="256"
   width="256"
   xml:space="preserve"
   id="svg2"
   version="1.1"
   sodipodi:docname="Sega - Mega-CD - Sega CD.svg"
   inkscape:version="0.92.2 (5c3e80d, 2017-08-06)"><sodipodi:namedview
     pagecolor="#ffffff"
     bordercolor="#666666"
     borderopacity="1"
     objecttolerance="10"
     gridtolerance="10"
     guidetolerance="10"
     inkscape:pageopacity="0"
     inkscape:pageshadow="2"
     inkscape:window-width="1024"
     inkscape:window-height="705"
     id="namedview85"
     showgrid="false"
     inkscape:pagecheckerboard="true"
     inkscape:zoom="1.3828125"
     inkscape:cx="186.27273"
     inkscape:cy="271.28385"
     inkscape:window-x="-8"
     inkscape:window-y="-8"
     inkscape:window-maximized="1"
     inkscape:current-layer="svg2" /><metadata
     id="metadata8"><rdf:RDF><cc:Work
         rdf:about=""><dc:format>image/svg+xml</dc:format><dc:type
           rdf:resource="http://purl.org/dc/dcmitype/StillImage" /><dc:title /></cc:Work></rdf:RDF></metadata><defs
     id="defs6"><clipPath
       id="clipPath18"
       clipPathUnits="userSpaceOnUse"><path
         id="path16"
         d="M 0,256 H 256 V 0 H 0 Z" /></clipPath><clipPath
       id="clipPath26"
       clipPathUnits="userSpaceOnUse"><path
         id="path24"
         d="M 4.00052,204 H 252 V 56 H 4.00052 Z" /></clipPath></defs><g
     id="g22"
     transform="matrix(1.3333333,0,0,-1.3333333,0,341.33333)" /><path
     id="path38"
     style="fill:#191919;fill-opacity:1;fill-rule:nonzero;stroke:none;stroke-width:1.33333325"
     d="m 325.33333,166.8512 c 0,-47.96667 -69.23066,-86.850664 -154.632,-86.850664 -85.307994,0 -154.473326,38.799994 -154.625326,86.694664 h -0.0067 c -0.0013,0.048 0.0027,0.096 0,0.144 0,0.004 0,0.008 0,0.012 0,0.001 0.0013,0.004 0.0013,0.007 -1.729333,42.60666 28.809333,81.33733 55.462665,87.87733 36.134661,8.86666 29.254661,-31.48133 54.225331,-40.84133 24.96933,-9.35867 64.92266,-9.35867 89.892,0 24.97066,9.36 10.64133,48.83199 47.51066,40.84133 27.28267,-5.912 62.628,-44.46267 62.144,-87.604 0.003,-0.0947 0.028,-0.18533 0.028,-0.28"
     inkscape:connector-curvature="0" /><path
     id="path42"
     style="fill:#0d0d0d;fill-opacity:1;fill-rule:nonzero;stroke:none;stroke-width:1.33333325"
     d="m 85.333331,112 c -26.466666,0 -47.999999,21.53333 -47.999999,48 0,26.46666 21.533333,48 47.999999,48 26.466669,0 47.999999,-21.53334 47.999999,-48 0,-26.46667 -21.53333,-48 -47.999999,-48"
     inkscape:connector-curvature="0" /><path
     id="path46"
     style="fill:#191919;fill-opacity:1;fill-rule:nonzero;stroke:none;stroke-width:1.33333325"
     d="m 85.333331,122.66667 c -20.585333,0 -37.333332,16.748 -37.333332,37.33333 0,20.58534 16.747999,37.33333 37.333332,37.33333 20.585329,0 37.333329,-16.74799 37.333329,-37.33333 0,-20.58533 -16.748,-37.33333 -37.333329,-37.33333"
     inkscape:connector-curvature="0" /><path
     id="path50"
     style="fill:#262626;fill-opacity:1;fill-rule:nonzero;stroke:none;stroke-width:1.33333325"
     d="m 117.33333,160 c 0,17.67333 -14.32667,32 -31.999999,32 -17.673333,0 -31.999999,-14.32667 -31.999999,-32 0,-17.67333 14.326666,-32 31.999999,-32 17.673329,0 31.999999,14.32667 31.999999,32"
     inkscape:connector-curvature="0" /><path
     id="path54"
     style="fill:#4d4d4d;fill-opacity:1;fill-rule:nonzero;stroke:none;stroke-width:1.33333325"
     d="M 112,152.0188 H 93.313334 V 133.33347 H 77.352001 V 152.0188 H 58.666668 v 15.96267 H 77.352001 V 186.6668 H 93.313334 V 167.98147 H 112 Z"
     inkscape:connector-curvature="0" /><path
     id="path58"
     style="fill:#4d4d4d;fill-opacity:1;fill-rule:nonzero;stroke:none;stroke-width:1.33333325"
     d="m 63.999998,138.66667 5.333333,2.22933 -3.104,3.104 z"
     inkscape:connector-curvature="0" /><path
     id="path62"
     style="fill:#4d4d4d;fill-opacity:1;fill-rule:nonzero;stroke:none;stroke-width:1.33333325"
     d="m 106.66666,138.66667 -5.33333,2.22933 3.104,3.104 z"
     inkscape:connector-curvature="0" /><path
     id="path66"
     style="fill:#4d4d4d;fill-opacity:1;fill-rule:nonzero;stroke:none;stroke-width:1.33333325"
     d="m 106.66666,181.33333 -5.33333,-2.22933 3.104,-3.104 z"
     inkscape:connector-curvature="0" /><path
     id="path70"
     style="fill:#4d4d4d;fill-opacity:1;fill-rule:nonzero;stroke:none;stroke-width:1.33333325"
     d="M 63.999998,181.33333 69.333331,179.104 66.229331,176 Z"
     inkscape:connector-curvature="0" /><path
     id="path74"
     style="fill:#262626;fill-opacity:1;fill-rule:nonzero;stroke:none;stroke-width:1.33333325"
     d="m 90.666664,160 c 0,2.94533 -2.388,5.33333 -5.333333,5.33333 -2.945333,0 -5.333333,-2.388 -5.333333,-5.33333 0,-2.94533 2.388,-5.33333 5.333333,-5.33333 2.945333,0 5.333333,2.388 5.333333,5.33333"
     inkscape:connector-curvature="0" /><path
     id="path78"
     style="fill:#d9d9d9;fill-opacity:1;fill-rule:nonzero;stroke:none;stroke-width:1.33333325"
     d="m 85.333331,113.33334 2.666667,8 h -5.333334 z"
     inkscape:connector-curvature="0" /><path
     id="path82"
     style="fill:#d9d9d9;fill-opacity:1;fill-rule:nonzero;stroke:none;stroke-width:1.33333325"
     d="m 85.333331,206.66667 -2.666667,-8 h 5.333334 z"
     inkscape:connector-curvature="0" /><path
     id="path86"
     style="fill:#d9d9d9;fill-opacity:1;fill-rule:nonzero;stroke:none;stroke-width:1.33333325"
     d="m 132,160 -8,2.66667 v -5.33334 z"
     inkscape:connector-curvature="0" /><path
     id="path90"
     style="fill:#d9d9d9;fill-opacity:1;fill-rule:nonzero;stroke:none;stroke-width:1.33333325"
     d="m 38.666666,160 8,-2.66667 v 5.33334 z"
     inkscape:connector-curvature="0" /><path
     id="path94"
     style="fill:#d9d9d9;fill-opacity:1;fill-rule:nonzero;stroke:none;stroke-width:1.33333325"
     d="m 56.235865,129.5692 c 0,0.736 -0.597333,1.33333 -1.333333,1.33333 -0.736,0 -1.333334,-0.59733 -1.333334,-1.33333 0,-0.736 0.597334,-1.33333 1.333334,-1.33333 0.736,0 1.333333,0.59733 1.333333,1.33333"
     inkscape:connector-curvature="0" /><path
     id="path98"
     style="fill:#d9d9d9;fill-opacity:1;fill-rule:nonzero;stroke:none;stroke-width:1.33333325"
     d="m 117.33333,129.33334 c 0,0.736 -0.59733,1.33333 -1.33333,1.33333 -0.736,0 -1.33334,-0.59733 -1.33334,-1.33333 0,-0.736 0.59734,-1.33333 1.33334,-1.33333 0.736,0 1.33333,0.59733 1.33333,1.33333"
     inkscape:connector-curvature="0" /><path
     id="path102"
     style="fill:#d9d9d9;fill-opacity:1;fill-rule:nonzero;stroke:none;stroke-width:1.33333325"
     d="m 55.999999,190.66667 c 0,0.736 -0.597333,1.33333 -1.333333,1.33333 -0.736,0 -1.333334,-0.59733 -1.333334,-1.33333 0,-0.736 0.597334,-1.33333 1.333334,-1.33333 0.736,0 1.333333,0.59733 1.333333,1.33333"
     inkscape:connector-curvature="0" /><path
     id="path106"
     style="fill:#d9d9d9;fill-opacity:1;fill-rule:nonzero;stroke:none;stroke-width:1.33333325"
     d="m 117.33333,190.66667 c 0,0.736 -0.59733,1.33333 -1.33333,1.33333 -0.736,0 -1.33334,-0.59733 -1.33334,-1.33333 0,-0.736 0.59734,-1.33333 1.33334,-1.33333 0.736,0 1.33333,0.59733 1.33333,1.33333"
     inkscape:connector-curvature="0" /><path
     id="path110"
     style="fill:#4b5da7;fill-opacity:1;fill-rule:nonzero;stroke:none;stroke-width:1.33333325"
     d="m 248.13586,119.9888 -18.54933,7.70533 c -2.076,0.86134 -4.44267,-0.15866 -5.28667,-2.28 -0.844,-2.12133 0.15467,-4.54 2.23067,-5.40266 l 18.54933,-7.70534 c 2.076,-0.86266 4.44267,0.15867 5.28667,2.28 0.844,2.12134 -0.15467,4.54 -2.23067,5.40267"
     inkscape:connector-curvature="0" /><path
     id="path114"
     style="fill:#191919;fill-opacity:1;fill-rule:nonzero;stroke:none;stroke-width:1.33333325"
     d="m 213.83279,193.53267 c -4.608,-3.79733 -7.59733,-9.48 -7.24,-15.52667 0.36933,-6.26 4.04267,-14.27066 17.25867,-21.27733 23.47866,-12.44667 44.15333,-20.948 48.48,-22.692 0.636,-0.256 1.26666,-0.47733 1.92666,-0.65733 4.36667,-1.19334 20.66,-4.664 28.376,7.44666 5.524,8.66934 1.73733,16.38667 -1.97733,21.02934 -2.176,2.72 -5.06934,4.724 -8.31734,5.86133 -10.924,3.82667 -42.84399,15.58133 -54.92266,26.27867 -9.40667,8.33333 -18.364,3.83866 -23.584,-0.46267"
     inkscape:connector-curvature="0" /><path
     id="path118"
     style="fill:#0d0d0d;fill-opacity:1;fill-rule:nonzero;stroke:none;stroke-width:1.33333325"
     d="m 284.41506,128 v 0 c -4.872,0 -9.084,0.95333 -11.16133,1.52133 -0.764,0.208 -1.532,0.46934 -2.34934,0.79867 -3.98666,1.608 -25.08,10.264 -48.844,22.86267 -8.43333,4.47066 -18.63733,12.364 -19.35866,24.58266 -0.41333,6.99734 2.83467,14.05467 8.688,18.87867 4.78133,3.94 9.93466,6.02266 14.904,6.02266 4.84,0 9.44,-1.90133 13.672,-5.65066 11.66933,-10.33467 44.00266,-22.14667 53.63466,-25.52 3.984,-1.396 7.46667,-3.85333 10.07067,-7.10933 6.688,-8.35867 7.47867,-17.50134 2.22667,-25.744 C 301.46173,131.68 294.03239,128 284.41506,128 m 0,3.99333 c 6.27467,0 13.71067,1.75734 18.21867,8.832 5.524,8.67067 1.73733,16.388 -1.97734,21.03067 -2.176,2.72 -5.06933,4.724 -8.31733,5.86133 -10.924,3.82667 -42.84267,15.58 -54.92133,26.27867 -3.85867,3.41733 -7.644,4.67733 -11.124,4.67733 -5.004,0 -9.38267,-2.604 -12.46133,-5.14133 -4.60667,-3.796 -7.59734,-9.47867 -7.24,-15.52533 0.36933,-6.26 4.04266,-14.27067 17.25866,-21.27734 23.47867,-12.448 44.15333,-20.948 48.48133,-22.69333 0.63467,-0.256 1.26667,-0.476 1.92534,-0.65733 1.816,-0.496 5.692,-1.38534 10.15733,-1.38534"
     inkscape:connector-curvature="0" /><path
     id="path122"
     style="fill:#4d4d4d;fill-opacity:1;fill-rule:nonzero;stroke:none;stroke-width:1.33333325"
     d="M 237.33333,178.66667 C 237.33333,186.03067 231.364,192 224,192 c -7.364,0 -13.33334,-5.96933 -13.33334,-13.33333 0,-7.364 5.96934,-13.33333 13.33334,-13.33333 7.364,0 13.33333,5.96933 13.33333,13.33333"
     inkscape:connector-curvature="0" /><path
     id="path126"
     style="fill:#4d4d4d;fill-opacity:1;fill-rule:nonzero;stroke:none;stroke-width:1.33333325"
     d="M 269.33333,162.66667 C 269.33333,170.03067 263.364,176 256,176 c -7.364,0 -13.33334,-5.96933 -13.33334,-13.33333 0,-7.364 5.96934,-13.33333 13.33334,-13.33333 7.364,0 13.33333,5.96933 13.33333,13.33333"
     inkscape:connector-curvature="0" /><path
     id="path130"
     style="fill:#4d4d4d;fill-opacity:1;fill-rule:nonzero;stroke:none;stroke-width:1.33333325"
     d="m 301.33333,149.33333 c 0,7.364 -5.96933,13.33333 -13.33333,13.33333 -7.364,0 -13.33334,-5.96933 -13.33334,-13.33333 C 274.66666,141.96933 280.636,136 288,136 c 7.364,0 13.33333,5.96933 13.33333,13.33333"
     inkscape:connector-curvature="0" /><path
     id="path134"
     style="fill:#d9d9d9;fill-opacity:1;fill-rule:nonzero;stroke:none;stroke-width:1.33333325"
     d="m 169.2796,154.66667 h -1.31067 l -1.63866,-3.67867 v 3.67867 h -1.312 v -5.14933 h 1.96666 z m 0,-7.172 c 0,0.45733 -0.144,0.848 -0.432,1.17067 -0.28667,0.32266 -0.58,0.484 -0.87867,0.484 h -3.27733 v 5.51733 h -1.312 v -6.988 h 4.26133 c 0.21867,0 0.328,-0.0613 0.328,-0.184 0,-0.12267 -0.10933,-0.184 -0.328,-0.184 h -4.26133 v -1.472 h 4.58933 c 0.29867,0 0.592,0.164 0.87867,0.49067 0.288,0.32666 0.432,0.716 0.432,1.16533 m 1.63867,0 c 0,0.964 -0.22,1.69333 -0.66134,2.188 -0.44,0.49467 -0.81333,0.828 -1.12,0.99867 l 1.78134,3.98533 h -1.31067 l -2.29467,-5.14933 h 0.656 c 0.38534,0 0.75467,-0.19867 1.108,-0.59467 0.35334,-0.396 0.53067,-0.872 0.53067,-1.428 0,-0.548 -0.17733,-1.02267 -0.53067,-1.42267 -0.35333,-0.4 -0.72266,-0.60133 -1.108,-0.60133 H 163.3796 V 144 h 4.58933 c 0.74934,0 1.42934,0.34267 2.03734,1.02934 0.608,0.68666 0.912,1.508 0.912,2.46533"
     inkscape:connector-curvature="0" /><path
     id="path138"
     style="fill:#d9d9d9;fill-opacity:1;fill-rule:nonzero;stroke:none;stroke-width:1.33333325"
     d="m 171.57373,147.3104 c 0,-2.20667 0.98267,-3.31067 2.94933,-3.31067 h 3.93334 v 1.472 h -3.93334 c -1.092,0 -1.63866,0.612 -1.63866,1.83867 v 4.04533 c 0,1.22667 0.54666,1.84 1.63866,1.84 h 3.93334 v 1.47067 h -3.93334 c -1.96666,0 -2.94933,-1.10267 -2.94933,-3.31067 z"
     inkscape:connector-curvature="0" /><path
     id="path142"
     style="fill:#d9d9d9;fill-opacity:1;fill-rule:nonzero;stroke:none;stroke-width:1.33333325"
     d="m 173.21253,149.14947 v -1.83867 c 0,-0.98133 0.43733,-1.472 1.31067,-1.472 h 3.93333 v 1.472 h -3.60533 c -0.21867,0 -0.328,0.12267 -0.328,0.368 h 2.95066 v 1.47067 z"
     inkscape:connector-curvature="0" /><path
     id="path146"
     style="fill:#d9d9d9;fill-opacity:1;fill-rule:nonzero;stroke:none;stroke-width:1.33333325"
     d="m 173.21253,149.5172 h 4.26133 v 1.47067 h -2.95066 c 0,0.24533 0.10933,0.368 0.328,0.368 h 3.60533 v 1.472 h -3.93333 c -0.87334,0 -1.31067,-0.49067 -1.31067,-1.472 z"
     inkscape:connector-curvature="0" /><path
     id="path150"
     style="fill:#d9d9d9;fill-opacity:1;fill-rule:nonzero;stroke:none;stroke-width:1.33333325"
     d="m 183.04506,145.83907 h 3.60533 v 1.47067 h -2.29466 v 7.35733 h -1.31067 z m -0.328,0 v 8.828 h -1.31067 v -7.35733 h -2.29466 v -1.47067 z m 3.93333,-0.368 h -7.53866 v -1.47067 h 7.53866 z"
     inkscape:connector-curvature="0" /><path
     id="path154"
     style="fill:#d9d9d9;fill-opacity:1;fill-rule:nonzero;stroke:none;stroke-width:1.33333325"
     d="m 193.2052,154.66667 h -1.31067 l -1.63866,-3.67867 v 3.67867 h -1.312 v -5.14933 h 1.96666 z m 0,-7.172 c 0,0.45733 -0.144,0.848 -0.432,1.17067 -0.28667,0.32266 -0.58,0.484 -0.87867,0.484 h -3.27733 v 5.51733 h -1.312 v -6.988 h 4.26133 c 0.21867,0 0.328,-0.0613 0.328,-0.184 0,-0.12267 -0.10933,-0.184 -0.328,-0.184 h -4.26133 v -1.472 h 4.58933 c 0.29867,0 0.592,0.164 0.87867,0.49067 0.288,0.32666 0.432,0.716 0.432,1.16533 m 1.63867,0 c 0,0.964 -0.22,1.69333 -0.66134,2.188 -0.44,0.49467 -0.81333,0.828 -1.12,0.99867 l 1.78134,3.98533 h -1.31067 l -2.29467,-5.14933 h 0.656 c 0.38534,0 0.75467,-0.19867 1.108,-0.59467 0.35334,-0.396 0.53067,-0.872 0.53067,-1.428 0,-0.548 -0.17733,-1.02267 -0.53067,-1.42267 -0.35333,-0.4 -0.72266,-0.60133 -1.108,-0.60133 H 187.3052 V 144 h 4.58933 c 0.74934,0 1.42934,0.34267 2.03734,1.02934 0.608,0.68666 0.912,1.508 0.912,2.46533"
     inkscape:connector-curvature="0" /><path
     id="path158"
     style="fill:#d9d9d9;fill-opacity:1;fill-rule:nonzero;stroke:none;stroke-width:1.33333325"
     d="m 199.76026,147.67813 c 0,-0.24533 -0.10933,-0.368 -0.328,-0.368 h -0.65467 c -0.21866,0 -0.328,0.12267 -0.328,0.368 v 3.31067 c 0,0.24533 0.10934,0.368 0.328,0.368 h 0.65467 c 0.21867,0 0.328,-0.12267 0.328,-0.368 z m 1.31067,-0.368 v 4.04667 c 0,0.98 -0.436,1.47066 -1.31067,1.47066 h -1.31067 c -0.87466,0 -1.31066,-0.49066 -1.31066,-1.47066 v -4.04667 c 0,-0.98 0.436,-1.47067 1.31066,-1.47067 h 1.31067 c 0.87467,0 1.31067,0.49067 1.31067,1.47067 m 0.328,0 c 0,-1.22533 -0.54667,-1.83867 -1.63867,-1.83867 h -1.31067 c -1.09333,0 -1.63866,0.61334 -1.63866,1.83867 v 4.04667 c 0,1.22533 0.54533,1.83866 1.63866,1.83866 h 1.31067 c 1.092,0 1.63867,-0.61333 1.63867,-1.83866 z m 1.31066,0 v 4.04667 c 0,2.20666 -0.98266,3.30933 -2.94933,3.30933 h -1.31067 c -1.96666,0 -2.95066,-1.10267 -2.95066,-3.30933 v -4.04667 c 0,-2.20667 0.984,-3.31067 2.95066,-3.31067 h 1.31067 c 1.96667,0 2.94933,1.104 2.94933,3.31067"
     inkscape:connector-curvature="0" /><path
     id="path162"
     style="fill:#d9d9d9;fill-opacity:1;fill-rule:nonzero;stroke:none;stroke-width:1.33333325"
     d="m 145.474,152.19333 c -0.0107,-0.032 -0.0173,-0.068 -0.0267,-0.10133 h 0.0267 z m 1.84667,-0.83733 c -0.21867,0 -0.328,-0.12267 -0.328,-0.368 V 144 h -2.94934 v 7.356 c 0,2.20666 0.98267,3.31066 2.94934,3.31066 H 150.926 V 151.356 Z"
     inkscape:connector-curvature="0" /><path
     inkscape:connector-curvature="0"
     d="m 151.58133,154.66667 h 2.94933 V 144 h -2.94933 z"
     style="fill:#d9d9d9;fill-opacity:1;fill-rule:nonzero;stroke:none;stroke-width:1.33333325"
     id="path164" /><path
     id="path168"
     style="fill:#d9d9d9;fill-opacity:1;fill-rule:nonzero;stroke:none;stroke-width:1.33333325"
     d="m 159.44706,147.67813 h -1.31067 v -0.368 h 1.31067 c 0.21867,0 0.328,0.0613 0.328,0.184 0,0.12267 -0.10933,0.184 -0.328,0.184 m 0,3.67867 h -1.31067 v -0.368 h 1.31067 c 0.21867,0 0.328,0.0613 0.328,0.184 0,0.12266 -0.10933,0.184 -0.328,0.184 m 3.27733,-3.86267 c 0,-0.956 -0.304,-1.77733 -0.912,-2.464 -0.608,-0.68667 -1.288,-1.03067 -2.03733,-1.03067 h -4.58933 v 10.66667 h 4.58933 c 0.74933,0 1.42933,-0.34267 2.03733,-1.02933 0.608,-0.68667 0.912,-1.508 0.912,-2.464 0,-0.69467 -0.14933,-1.304 -0.448,-1.82667 0.29867,-0.524 0.448,-1.14133 0.448,-1.852"
     inkscape:connector-curvature="0" /></svg>
