<?xml version="1.0" encoding="UTF-8" standalone="no"?>
<svg
   xmlns:dc="http://purl.org/dc/elements/1.1/"
   xmlns:cc="http://creativecommons.org/ns#"
   xmlns:rdf="http://www.w3.org/1999/02/22-rdf-syntax-ns#"
   xmlns:svg="http://www.w3.org/2000/svg"
   xmlns="http://www.w3.org/2000/svg"
   xmlns:sodipodi="http://sodipodi.sourceforge.net/DTD/sodipodi-0.dtd"
   xmlns:inkscape="http://www.inkscape.org/namespaces/inkscape"
   viewBox="0 0 341.33334 341.33334"
   height="256"
   width="256"
   xml:space="preserve"
   id="svg2"
   version="1.1"
   sodipodi:docname="Sega - Mark III-content.svg"
   inkscape:version="0.92.3 (2405546, 2018-03-11)"
   inkscape:export-filename="D:\Documents\Github\Retrosystem-retroarch-theme\png\Sega - SG-1000-content.png"
   inkscape:export-xdpi="72"
   inkscape:export-ydpi="72"><sodipodi:namedview
     pagecolor="#ffffff"
     bordercolor="#666666"
     borderopacity="1"
     objecttolerance="10"
     gridtolerance="10"
     guidetolerance="10"
     inkscape:pageopacity="0"
     inkscape:pageshadow="2"
     inkscape:window-width="1024"
     inkscape:window-height="705"
     id="namedview81"
     showgrid="false"
     inkscape:pagecheckerboard="true"
     inkscape:zoom="1.9555922"
     inkscape:cx="109.69766"
     inkscape:cy="131.10485"
     inkscape:window-x="-8"
     inkscape:window-y="-8"
     inkscape:window-maximized="1"
     inkscape:current-layer="svg2"
     showguides="true"
     inkscape:snap-grids="false"
     inkscape:snap-global="true"><inkscape:grid
       type="xygrid"
       id="grid851"
       empspacing="32"
       color="#3f3fff"
       opacity="0" /></sodipodi:namedview><metadata
     id="metadata8"><rdf:RDF><cc:Work
         rdf:about=""><dc:format>image/svg+xml</dc:format><dc:type
           rdf:resource="http://purl.org/dc/dcmitype/StillImage" /><dc:title /></cc:Work></rdf:RDF></metadata><defs
     id="defs6"><clipPath
       id="clipPath18"
       clipPathUnits="userSpaceOnUse"><path
         id="path16"
         d="M 0,256 H 256 V 0 H 0 Z" /></clipPath><clipPath
       id="clipPath26"
       clipPathUnits="userSpaceOnUse"><path
         id="path24"
         d="M 28,252 H 228 V 4 H 28 Z" /></clipPath><pattern
       y="0"
       x="0"
       height="6"
       width="6"
       patternUnits="userSpaceOnUse"
       id="EMFhbasepattern" /></defs><g
     id="g22"
     transform="matrix(1.3333333,0,0,-1.3333333,0,341.33333)" /><path
     id="path38"
     style="fill:#e6e6e6;fill-opacity:1;fill-rule:nonzero;stroke:#1a1a1a;stroke-width:2.66666672;stroke-miterlimit:9.5;stroke-dasharray:none;stroke-opacity:1"
     d="M 293.33333,37.333338 V 32.000005 H 288 V 21.333338 c 0,-2.945333 -2.388,-5.333333 -5.33334,-5.333333 H 58.666669 c -2.945333,0 -5.333333,2.388 -5.333333,5.333333 v 10.666667 h -5.333333 v 5.333333 h 5.333333 v 5.333333 h -5.333333 v 5.333333 h 5.333333 v 5.333334 h -5.333333 v 5.333333 h 5.333333 v 5.333333 h -5.333333 v 5.333333 h 5.333333 v 5.333333 h -5.333333 v 5.333334 h 5.333333 v 5.333333 h -5.333333 v 5.333333 h 5.333333 v 5.333333 h -5.333333 v 5.333337 h 5.333333 v 5.33333 H 48.000003 V 112 h 5.333333 v 208 c 0,2.94533 2.388,5.33333 5.333333,5.33333 H 282.66666 C 285.612,325.33333 288,322.94533 288,320 V 112 h 5.33333 v -5.33333 H 288 v -5.33333 h 5.33333 V 96.000003 H 288 V 90.66667 h 5.33333 V 85.333337 H 288 v -5.333333 h 5.33333 V 74.66667 H 288 v -5.333333 h 5.33333 V 64.000004 H 288 v -5.333333 h 5.33333 V 53.333338 H 288 v -5.333334 h 5.33333 V 42.666671 H 288 v -5.333333 z"
     inkscape:connector-curvature="0" /><path
     id="path42"
     style="fill:#d4af37;fill-opacity:1;fill-rule:nonzero;stroke:#c5a336;stroke-width:1.33333313;stroke-opacity:1"
     d="m 64.000001,17.33333 v 164.34544 c 0,3.49604 2.804786,6.32123 6.274187,6.32123 H 271.05916 c 3.46939,0 6.27418,-2.82519 6.27418,-6.32123 V 17.33333 Z"
     inkscape:connector-curvature="0" /><path
     id="path46"
     style="fill:#262626;fill-opacity:1;fill-rule:nonzero;stroke:none;stroke-width:1.33333325"
     d="M 70.666668,17.333334 V 188 c 0,0 154.632042,8e-5 201.332122,0 0,0 0.003,-116.251106 -3.8e-4,-170.666663"
     inkscape:connector-curvature="0"
     sodipodi:nodetypes="cccc" /><path
     sodipodi:nodetypes="ccc"
     id="path965"
     style="fill:#d4af37;fill-opacity:1;fill-rule:nonzero;stroke:none;stroke-width:1.33333325"
     d="M 109.33334,188.00001 272.00001,188 V 77.333335"
     inkscape:connector-curvature="0" /><path
     id="path50"
     style="fill:#231f20;fill-opacity:1;fill-rule:nonzero;stroke:none;stroke-width:1.33333325"
     d="M 79.999998,160.00001 H 261.33333"
     inkscape:connector-curvature="0" /><path
     inkscape:connector-curvature="0"
     d="M 113.33334,188.00001 272.00001,188 V 81.333339"
     style="fill:#0ea4c4;fill-opacity:1;fill-rule:nonzero;stroke:none;stroke-width:1.33333325"
     id="path882"
     sodipodi:nodetypes="ccc" /><path
     id="path88"
     style="fill:#f2f2f2;fill-opacity:1;fill-rule:nonzero;stroke:none;stroke-width:1.33333325"
     d="m 205.88413,182.66667 h -2.384 l -2.97867,-5.51733 v 5.51733 h -2.384 v -7.724 h 3.57467 z m 0,-10.75867 c 0,0.68667 -0.26133,1.272 -0.784,1.756 -0.524,0.484 -1.05733,0.72667 -1.6,0.72667 h -5.95867 v 8.276 h -2.384 V 172.184 h 7.74667 c 0.39733,0 0.596,-0.092 0.596,-0.276 0,-0.184 -0.19867,-0.276 -0.596,-0.276 h -7.74667 v -2.20666 h 8.34267 c 0.54267,0 1.076,0.24533 1.6,0.736 0.52267,0.49066 0.784,1.072 0.784,1.74666 m 2.98,0 c 0,1.44667 -0.40133,2.54134 -1.20267,3.28267 -0.80133,0.74133 -1.48,1.24133 -2.036,1.49867 l 3.23867,5.97733 h -2.384 l -4.172,-7.724 h 1.192 c 0.70267,0 1.37467,-0.29733 2.016,-0.892 0.64267,-0.59467 0.964,-1.30933 0.964,-2.14267 0,-0.82133 -0.32133,-1.532 -0.964,-2.13333 -0.64133,-0.60133 -1.31333,-0.90133 -2.016,-0.90133 h -8.34267 v -2.20667 h 8.34267 c 1.364,0 2.59867,0.51467 3.70533,1.54533 1.10534,1.02934 1.65867,2.26134 1.65867,3.696"
     inkscape:connector-curvature="0" /><path
     id="path92"
     style="fill:#f2f2f2;fill-opacity:1;fill-rule:nonzero;stroke:none;stroke-width:1.33333325"
     d="m 210.05547,171.63214 c 0,-3.31067 1.788,-4.96533 5.36267,-4.96533 h 7.152 v 2.20666 h -7.152 c -1.98534,0 -2.97867,0.92 -2.97867,2.75867 v 6.06933 c 0,1.83867 0.99333,2.75867 2.97867,2.75867 h 7.152 v 2.20667 h -7.152 c -3.57467,0 -5.36267,-1.656 -5.36267,-4.96534 z"
     inkscape:connector-curvature="0" /><path
     id="path96"
     style="fill:#f2f2f2;fill-opacity:1;fill-rule:nonzero;stroke:none;stroke-width:1.33333325"
     d="m 213.03493,174.39081 v -2.75867 c 0,-1.47066 0.79467,-2.20666 2.384,-2.20666 h 7.15067 v 2.20666 h -6.55467 c -0.39733,0 -0.596,0.184 -0.596,0.552 h 5.36267 v 2.20667 z"
     inkscape:connector-curvature="0" /><path
     id="path100"
     style="fill:#f2f2f2;fill-opacity:1;fill-rule:nonzero;stroke:none;stroke-width:1.33333325"
     d="m 213.03493,174.94254 h 7.74667 v 2.20667 h -5.36267 c 0,0.368 0.19867,0.552 0.596,0.552 h 6.55467 v 2.20666 h -7.15067 c -1.58933,0 -2.384,-0.736 -2.384,-2.20666 z"
     inkscape:connector-curvature="0" /><path
     id="path104"
     style="fill:#f2f2f2;fill-opacity:1;fill-rule:nonzero;stroke:none;stroke-width:1.33333325"
     d="m 230.91213,169.42534 h 6.55467 v 2.20667 h -4.17067 v 11.03466 h -2.384 z m -0.596,0 v 13.24133 h -2.384 v -11.03466 h -4.17067 v -2.20667 z m 7.15067,-0.552 h -13.70534 v -2.20667 h 13.70534 z"
     inkscape:connector-curvature="0" /><path
     id="path108"
     style="fill:#f2f2f2;fill-opacity:1;fill-rule:nonzero;stroke:none;stroke-width:1.33333325"
     d="m 249.38533,182.66667 h -2.384 l -2.97867,-5.51733 v 5.51733 h -2.384 v -7.724 h 3.57467 z m 0,-10.75867 c 0,0.68667 -0.26133,1.272 -0.784,1.756 -0.524,0.484 -1.05733,0.72667 -1.6,0.72667 h -5.95867 v 8.276 h -2.384 V 172.184 h 7.74667 c 0.39733,0 0.596,-0.092 0.596,-0.276 0,-0.184 -0.19867,-0.276 -0.596,-0.276 h -7.74667 v -2.20666 h 8.34267 c 0.54267,0 1.076,0.24533 1.6,0.736 0.52267,0.49066 0.784,1.072 0.784,1.74666 m 2.98,0 c 0,1.44667 -0.40133,2.54134 -1.20267,3.28267 -0.80133,0.74133 -1.48,1.24133 -2.036,1.49867 l 3.23867,5.97733 h -2.384 l -4.172,-7.724 h 1.192 c 0.70267,0 1.37467,-0.29733 2.016,-0.892 0.64267,-0.59467 0.964,-1.30933 0.964,-2.14267 0,-0.82133 -0.32133,-1.532 -0.964,-2.13333 -0.64133,-0.60133 -1.31333,-0.90133 -2.016,-0.90133 h -8.34267 v -2.20667 h 8.34267 c 1.364,0 2.59867,0.51467 3.70533,1.54533 1.10534,1.02934 1.65867,2.26134 1.65867,3.696"
     inkscape:connector-curvature="0" /><path
     id="path112"
     style="fill:#f2f2f2;fill-opacity:1;fill-rule:nonzero;stroke:none;stroke-width:1.33333325"
     d="m 261.30347,172.18387 c 0,-0.368 -0.19867,-0.552 -0.596,-0.552 h -1.192 c -0.39733,0 -0.596,0.184 -0.596,0.552 v 4.96533 c 0,0.368 0.19867,0.552 0.596,0.552 h 1.192 c 0.39733,0 0.596,-0.184 0.596,-0.552 z m 2.384,-0.552 v 6.06933 c 0,1.47067 -0.79467,2.20667 -2.384,2.20667 h -2.384 c -1.58933,0 -2.38267,-0.736 -2.38267,-2.20667 v -6.06933 c 0,-1.47067 0.79334,-2.20667 2.38267,-2.20667 h 2.384 c 1.58933,0 2.384,0.736 2.384,2.20667 m 0.596,0 c 0,-1.83867 -0.99333,-2.75867 -2.98,-2.75867 h -2.384 c -1.98533,0 -2.97867,0.92 -2.97867,2.75867 v 6.06933 c 0,1.83867 0.99334,2.75867 2.97867,2.75867 h 2.384 c 1.98667,0 2.98,-0.92 2.98,-2.75867 z m 2.38267,0 v 6.06933 c 0,3.31067 -1.78667,4.96534 -5.36267,4.96534 h -2.384 c -3.57467,0 -5.36267,-1.65467 -5.36267,-4.96534 v -6.06933 c 0,-3.31067 1.788,-4.96533 5.36267,-4.96533 h 2.384 c 3.576,0 5.36267,1.65466 5.36267,4.96533"
     inkscape:connector-curvature="0" /><path
     id="path116"
     style="fill:#f2f2f2;fill-opacity:1;fill-rule:nonzero;stroke:none;stroke-width:1.33333325"
     d="m 162.60134,178.95667 c -0.0187,-0.048 -0.0307,-0.10133 -0.048,-0.152 h 0.048 z m 3.35733,-1.256 c -0.39733,0 -0.596,-0.184 -0.596,-0.55067 v -10.48266 h -5.36266 v 11.03333 c 0,3.31067 1.788,4.96667 5.36266,4.96667 h 7.152 v -4.96667 z"
     inkscape:connector-curvature="0" /><path
     inkscape:connector-curvature="0"
     d="m 173.70534,182.66667 h 5.36266 v -16 h -5.36266 z"
     style="fill:#f2f2f2;fill-opacity:1;fill-rule:nonzero;stroke:none;stroke-width:1.33333325"
     id="path118" /><path
     id="path122"
     style="fill:#f2f2f2;fill-opacity:1;fill-rule:nonzero;stroke:none;stroke-width:1.33333325"
     d="m 188.0068,172.18387 h -2.384 v -0.552 h 2.384 c 0.39733,0 0.596,0.092 0.596,0.276 0,0.184 -0.19867,0.276 -0.596,0.276 m 0,5.51733 h -2.384 v -0.552 h 2.384 c 0.39733,0 0.596,0.092 0.596,0.276 0,0.184 -0.19867,0.276 -0.596,0.276 m 5.95867,-5.79333 c 0,-1.43467 -0.552,-2.66667 -1.65867,-3.696 -1.10533,-1.03067 -2.34,-1.54533 -3.704,-1.54533 h -8.34267 v 16 h 8.34267 c 1.364,0 2.59867,-0.51467 3.704,-1.54534 1.10667,-1.02933 1.65867,-2.26133 1.65867,-3.696 0,-1.04266 -0.27067,-1.956 -0.81334,-2.74 0.54267,-0.78533 0.81334,-1.71066 0.81334,-2.77733"
     inkscape:connector-curvature="0" /><rect
     style="opacity:0.98999999;vector-effect:none;fill:#2e2a5d;fill-opacity:1;stroke:#d4af37;stroke-width:5.33333344;stroke-linecap:butt;stroke-linejoin:miter;stroke-miterlimit:9.5;stroke-dasharray:none;stroke-dashoffset:0;stroke-opacity:1;paint-order:markers stroke fill"
     id="rect967"
     width="126.394"
     height="17.964531"
     x="145.60442"
     y="17.333338" /><g
     id="g963"
     transform="translate(1.333333,-3e-6)"><path
       inkscape:connector-curvature="0"
       d="m 69.333335,17.333337 c 8.96e-4,18.86 3.93e-4,58.473335 3.93e-4,77.333335 L 180,17.333342"
       style="fill:#d4af37;fill-opacity:1;fill-rule:nonzero;stroke:none;stroke-width:1.33333325"
       id="path953"
       sodipodi:nodetypes="ccc" /><path
       sodipodi:nodetypes="ccc"
       id="path884"
       style="fill:#be1222;fill-opacity:1;fill-rule:nonzero;stroke:none;stroke-width:1.33333325"
       d="m 69.333335,17.333337 c 8.96e-4,18.86 3.93e-4,54.473335 3.93e-4,73.333335 L 176,17.333342"
       inkscape:connector-curvature="0" /><path
       style="fill:none;stroke:#d4af37;stroke-width:2.66666675;stroke-linecap:square;stroke-linejoin:miter;stroke-miterlimit:9.5;stroke-dasharray:none;stroke-opacity:1"
       d="M 74.666668,87.333339 V 71.404077 l 8.542985,-17.878685 v -7.332001 6.253607 l -8.542985,5.136888 V 40.790184 l 1.622827,-3.307155 13.796372,-9.407508 4.580801,3.159432 v 21.11955 l -6.229058,10.73803 6.229058,-4.484435 v 14.72524"
       id="path904"
       inkscape:connector-curvature="0"
       sodipodi:nodetypes="cccccccccccccc" /><path
       style="fill:none;stroke:#d4af37;stroke-width:2.66666675;stroke-linecap:butt;stroke-linejoin:miter;stroke-miterlimit:10.30000019;stroke-dasharray:none;stroke-opacity:1"
       d="m 127.39902,27.286863 -4.95164,-7.924461 -9.57317,6.603729 0.33011,9.245207 -4.62153,-6.603715 -8.25273,5.943342 -0.330117,36.103516 m 9.243047,-6.4 V 46.767856 l 8.39135,11.247756 m 4.81301,-2.682274 V 37.852843 l 8.28421,11.076921"
       id="path906"
       inkscape:connector-curvature="0"
       sodipodi:nodetypes="ccccccccccccc" /><g
       transform="translate(2.6666667,-1.3333296)"
       id="g945"><path
         sodipodi:nodetypes="ccccccccccccc"
         inkscape:connector-curvature="0"
         id="path908"
         d="m 132.1508,43.051806 2.68436,-1.984558 -0.23339,-3.15193 1.86739,0.933899 2.45093,-1.984542 -4.55174,-1.634339 c 0,0 -0.3501,-5.136486 -1.51723,-6.770824 -0.64661,0.523206 -1.63215,1.321211 -2.45095,1.984557 0.27481,0.823319 0.77991,1.777051 1.0504,3.502149 l -2.56772,-0.817168 -1.05039,2.218031 3.96817,1.634338 z"
         style="fill:#d4af37;fill-opacity:1;stroke:none;stroke-width:1.33333337px;stroke-linecap:butt;stroke-linejoin:miter;stroke-opacity:1" /><path
         sodipodi:nodetypes="ccccccscccscccc"
         inkscape:connector-curvature="0"
         id="path910"
         d="m 141.60441,36.6312 2.10079,-1.400864 c 0,0 4e-5,-4.085857 -1.28381,-6.53735 0,0 0.93365,-1.751053 1.98406,-1.400848 1.05039,0.350219 2.21753,3.385405 1.75069,6.18713 l 2.91777,-1.634323 c 0,0 0.35014,-4.085843 -2.56764,-6.303876 -2.91778,-2.21803 -5.25201,0.700425 -5.25201,0.700425 l -1.51724,-2.684981 -1.86739,1.634338 c 0,0 1.63394,2.684995 1.40052,2.684995 -0.23342,0 -2.91777,1.400849 -2.91777,1.400849 l 1.9841,1.400862 1.75065,-1.050656 c 0,0 1.16719,1.284104 1.51728,7.004299 z"
         style="fill:#d4af37;fill-opacity:1;stroke:none;stroke-width:1.33333337px;stroke-linecap:butt;stroke-linejoin:miter;stroke-opacity:1" /><ellipse
         inkscape:transform-center-y="-0.068482459"
         inkscape:transform-center-x="-0.25179898"
         transform="matrix(0.92808812,-0.37236063,0.3722118,0.92814782,0,0)"
         ry="1.0506113"
         rx="1.5756526"
         cy="75.362137"
         cx="127.59084"
         id="ellipse912"
         style="opacity:0.98999999;vector-effect:none;fill:#d4af37;fill-opacity:1;stroke:none;stroke-width:1.33333325;stroke-linecap:square;stroke-linejoin:miter;stroke-miterlimit:15;stroke-dasharray:none;stroke-dashoffset:0;stroke-opacity:1;paint-order:markers stroke fill" /></g></g><path
     inkscape:connector-curvature="0"
     d="M 293.33333,37.333338 V 32.000005 H 288 V 21.333338 c 0,-2.945333 -2.388,-5.333333 -5.33334,-5.333333 H 58.666669 c -2.945333,0 -5.333333,2.388 -5.333333,5.333333 v 10.666667 h -5.333333 v 5.333333 h 5.333333 v 5.333333 h -5.333333 v 5.333333 h 5.333333 v 5.333334 h -5.333333 v 5.333333 h 5.333333 v 5.333333 h -5.333333 v 5.333333 h 5.333333 v 5.333333 h -5.333333 v 5.333334 h 5.333333 v 5.333333 h -5.333333 v 5.333333 h 5.333333 v 5.333333 h -5.333333 v 5.333337 h 5.333333 v 5.33333 H 48.000003 V 112 h 5.333333 v 208 c 0,2.94533 2.388,5.33333 5.333333,5.33333 H 282.66666 C 285.612,325.33333 288,322.94533 288,320 V 112 h 5.33333 v -5.33333 H 288 v -5.33333 h 5.33333 V 96.000003 H 288 V 90.66667 h 5.33333 V 85.333337 H 288 v -5.333333 h 5.33333 V 74.66667 H 288 v -5.333333 h 5.33333 V 64.000004 H 288 v -5.333333 h 5.33333 V 53.333338 H 288 v -5.333334 h 5.33333 V 42.666671 H 288 v -5.333333 z"
     style="fill:none;fill-opacity:1;fill-rule:nonzero;stroke:#1a1a1a;stroke-width:2.66666672;stroke-miterlimit:9.5;stroke-dasharray:none;stroke-opacity:1"
     id="path969" /><path
     style="fill:#d4af37;fill-opacity:1;stroke:none;stroke-width:0.99999994;stroke-opacity:1"
     d="m 192.08352,29.909337 c 0.10244,-0.416501 0.5133,-1.996452 0.91301,-3.511 l 0.72672,-2.753726 1.1474,-0.08418 1.14739,-0.08418 1.46254,2.915375 1.46253,2.915374 2.8436,-2.900038 c 2.67463,-2.72771 2.90918,-2.900036 3.94721,-2.900036 1.01029,0 1.08954,0.0524 0.93702,0.619588 -0.0917,0.340774 -0.51038,1.920724 -0.93055,3.511 l -0.76396,2.891411 -1.16459,0.08468 c -1.30541,0.09492 -1.33035,0.04135 -0.74858,-1.607562 0.2288,-0.648486 0.37643,-1.218628 0.32807,-1.266983 -0.0484,-0.04835 -0.75796,0.590562 -1.57692,1.419818 -1.47897,1.497575 -1.50027,1.507736 -3.16038,1.507736 h -1.67139 l -0.93852,-1.858764 -0.93851,-1.858767 -0.42089,1.858767 -0.42089,1.858764 h -1.1833 c -1.15244,0 -1.17844,-0.01975 -0.99701,-0.757276 z m 16.14194,-2.830322 2.82066,-3.587597 1.37498,0.07659 1.37497,0.07659 1.98734,3.304471 c 1.09303,1.81746 1.99228,3.397409 1.99833,3.511001 0.006,0.113591 -0.58764,0.20653 -1.31932,0.20653 -1.1372,0 -1.38383,-0.09995 -1.69878,-0.688433 -0.34772,-0.649754 -0.49732,-0.688431 -2.66256,-0.688431 -1.26177,0 -2.29019,-0.09294 -2.28538,-0.206529 0.0299,-0.707138 0.8287,-1.170335 2.01805,-1.170335 0.70271,0 1.27767,-0.07607 1.27767,-0.169035 0,-0.09296 -0.26605,-0.642387 -0.5912,-1.220927 l -0.5912,-1.05189 -2.09368,2.593464 c -2.04609,2.534496 -2.12025,2.593563 -3.26212,2.597789 l -1.16844,0.0044 z m 10.3934,3.308896 c 0,-0.153284 0.37176,-1.700756 0.82612,-3.438829 0.45436,-1.738072 0.82612,-3.223586 0.82612,-3.301142 0,-0.07756 2.5871,-0.141014 5.7491,-0.141014 4.39323,0 5.81947,0.08477 6.04742,0.359442 0.2158,0.260029 0.19281,0.759365 -0.0832,1.805453 -0.54865,2.079841 -0.75206,2.241064 -2.82738,2.241064 h -1.78609 l 1.55895,1.308022 1.55894,1.308018 -1.25961,0.08417 c -1.39411,0.09316 -1.45259,0.05903 -4.27332,-2.493684 l -1.74963,-1.583392 h 3.04656 c 3.0821,0 3.38087,-0.09933 3.38087,-1.124012 0,-0.140953 -1.6304,-0.25285 -3.68413,-0.25285 h -3.68411 l -0.75523,2.753724 -0.75522,2.753728 h -1.06809 c -0.58745,0 -1.0681,-0.125415 -1.0681,-0.278702 z m 13.11421,-0.462284 c 0.1047,-0.425462 0.51739,-2.012742 0.9171,-3.52729 l 0.72672,-2.753726 1.16687,-0.08514 c 1.30841,-0.09546 1.28763,-0.218054 0.44612,2.632329 -0.19003,0.643681 -0.28884,1.17033 -0.21957,1.17033 0.0692,0 1.49261,-0.867422 3.16296,-1.927605 2.87869,-1.827104 3.12198,-1.927608 4.66614,-1.927608 0.89601,0 1.62527,0.09294 1.62058,0.20653 -0.005,0.113591 -1.42965,1.011993 -3.16659,1.996448 -1.73695,0.984458 -3.15657,1.851882 -3.15471,1.92761 0.002,0.07573 0.93114,0.741315 2.0651,1.479081 1.13395,0.737769 2.06174,1.388336 2.06174,1.445706 0,0.05737 -0.78698,0.104312 -1.74886,0.104312 -1.67254,0 -1.82822,-0.06009 -3.56765,-1.376864 -1.00033,-0.757275 -1.88248,-1.376864 -1.96033,-1.376864 -0.0778,0 -0.3125,0.58861 -0.52143,1.308022 -0.36819,1.26776 -0.41534,1.31064 -1.53222,1.39315 -1.13753,0.08404 -1.14989,0.07519 -0.96197,-0.68843 z m 12.00866,0.422548 c 0.56531,-0.206585 0.82738,-0.560667 1.05393,-1.423966 0.16582,-0.631955 0.60172,-2.196953 0.96867,-3.477771 0.79371,-2.770503 0.82747,-3.471012 0.18525,-3.845063 -0.33691,-0.196236 1.42362,-0.276661 5.85167,-0.267315 4.37577,0.0093 6.11091,0.09505 5.61326,0.277626 -0.74518,0.273382 -1.11889,1.238962 -2.30213,5.94813 -0.23661,0.941725 -0.50275,1.901287 -0.59143,2.132364 -0.10506,0.273783 0.0647,0.510605 0.48715,0.67983 0.43385,0.173773 -1.4471,0.258274 -5.6852,0.255407 -4.53914,-0.003 -6.1204,-0.08219 -5.58117,-0.279242 z m 4.28052,-0.301151 c 0.27609,-0.337803 2.26446,-7.252725 2.26446,-7.875089 0,-0.174484 -0.24306,-0.317244 -0.54014,-0.317244 -0.40339,0 -0.61837,0.296289 -0.84918,1.170332 -0.16998,0.643684 -0.66558,2.460151 -1.10135,4.036594 -0.43577,1.576443 -0.72787,2.970517 -0.64912,3.097941 0.20439,0.330709 0.5493,0.286366 0.87533,-0.112534 z m 4.29435,-1.401585 c 0.22131,-0.781542 0.66897,-2.412324 0.99482,-3.623964 0.32583,-1.21164 0.65757,-2.429972 0.73717,-2.707403 0.11497,-0.400658 0.0134,-0.485629 -0.49367,-0.413059 -0.57141,0.08177 -0.74872,0.493795 -1.68918,3.925238 -0.57791,2.108632 -0.98843,3.996287 -0.91226,4.19479 0.27493,0.716456 0.96909,0.01594 1.36312,-1.375602 z"
     id="path982"
     inkscape:connector-curvature="0"
     sodipodi:nodetypes="cccccccssccccsccscccccscccccssscscssccscccssssccscccsscssscccssccccsssscsccssssccccsscscscccccsscscccsccscc" /></svg>