<svg xmlns="http://www.w3.org/2000/svg" xml:space="preserve" width="256" height="256" viewBox="0 0 341.333 341.333"><g style="fill:#262626;fill-opacity:1"><path d="M0 0c-23.993 0-43.505 19.517-43.505 43.505S-23.993 87.01 0 87.01c23.988 0 43.5-19.517 43.5-43.505S23.988 0 0 0m0 159.505c-64.071 0-116-51.934-116-116s51.929-116 116-116c64.051 0 116 51.934 116 116s-51.949 116-116 116" style="fill:#262626;fill-opacity:1;fill-rule:nonzero;stroke:none" transform="matrix(1.33333 0 0 -1.33333 170.667 228.673)"/></g><path d="M170.67 189.034c-10.128 0-18.382-8.234-18.382-18.368 0-10.138 8.254-18.38 18.382-18.38 10.133 0 18.369 8.242 18.369 18.38 0 10.134-8.236 18.368-18.37 18.368m.002-79.701c-33.82 0-61.338 27.535-61.338 61.333S136.852 232 170.671 232C204.455 232 232 204.465 232 170.666c0-33.798-27.545-61.333-61.33-61.333" style="fill:#e6e6e6;fill-opacity:.49019608;fill-rule:nonzero;stroke:none;stroke-width:1.33333325"/><path d="M0 0c-.093.456-.462.868-.748 1.267-6.057 8.461-12.13 16.909-18.168 25.384-.615.864-1.318 1.339-2.351 1.59-7.974 1.937-15.946 3.889-23.888 5.956-1.566.407-2.306.006-3.132-1.323a1097 1097 0 0 0-12.91-20.277c-.844-1.293-.832-2.29-.234-3.63 3.165-7.096 6.235-14.235 9.368-21.345.43-.975.929-1.952 1.568-2.795 5.989-7.894 12.022-15.753 18.02-23.64.624-.82 1.33-1.384 2.316-1.724 4.579-1.579 9.156-3.169 13.693-4.867 1.3-.486 2.01-.282 2.858.857 5.57 7.486 11.224 14.908 16.85 22.351.447.59.985 1.143.888 1.53C2.699-13.466 1.37-6.729 0 0" style="fill:#bfbfbf;fill-opacity:1;fill-rule:nonzero;stroke:none" transform="matrix(1.33333 0 0 -1.33333 282.477 99.132)"/><path d="M0 0c-.541 5.737-1.393 28.801-1.784 34.549-.113 1.664-.344 2.392-2.303 2.164-11.698-1.36-23.41-2.592-35.122-3.814-1.3-.136-2.098-.661-2.801-1.775A8101 8101 0 0 0-65.063-5.148c-.726-1.136-1.01-2.237-.884-3.597q1.088-11.758 2.022-23.53c.109-1.374.49-2.364 1.668-3.195a247 247 0 0 0 9.19-6.835c1.175-.912 2.203-1.211 3.698-.676 5.716 2.045 11.476 3.963 17.246 5.849 1.088.355 1.928.892 2.672 1.739 9.449 10.74 18.903 21.475 28.39 32.181C-.204-2.246.121-1.286 0 0" style="fill:#bfbfbf;fill-opacity:1;fill-rule:nonzero;stroke:none" transform="matrix(1.33333 0 0 -1.33333 298.634 241.005)"/><path d="M0 0c4.252 2.604 6.678 7.135 9.914 10.826.834.951-.229 1.789-1.025 2.409-2.272 1.768-4.605 3.451-6.809 5.31-1.325 1.117-2.059.764-3.039-.311-5.434-5.963-5.455-5.929-12.933-1.607-.626.362-1.525 1.402-1.997.621-1.726-2.861-5.182-4.564-4.694-8.964.27-2.439.971-4.276 2.764-6.019 4.487-4.363 4.443-4.482 9.569-1.841 1.198.618 2.211.822 3.353-.175C-3.253-1.184-1.634-1.393 0 0" style="fill:#333;fill-opacity:1;fill-rule:nonzero;stroke:none" transform="matrix(1.33333 0 0 -1.33333 252.967 273.152)"/><path d="m0 0-7.609-3.334h5.713l.333-.452-9.681-4.914c3.885-.215 7.162.249 10.475.306-.032-.743-.939-.799-1.498-1.035-9.834-4.151-19.687-8.28-29.536-12.415-.547-.229-1.097-.457-1.631-.699-.714-.324-1.438-.754-1.182-1.356.34-.799 1.379-.366 2.125-.33 11.36.548 22.719 1.112 34.08 1.658.498.024 1.07.199 1.698-.24-.697-.383-1.358-.771-2.056-1.125-10.828-5.491-21.606-11.03-32.539-16.423-2.223-1.096-2.97-2.201-2.787-4.013.374-3.697.228-3.693 5.491-3.056 7.49.907 14.986 1.797 22.762 2.391l-7.314-3.566c2.065-.304 3.426.403 4.905.008-.331-.83-1.853-.891-2.47-1.807 1.788-.171 3.571.312 5.811-.172l-40.977-21.082c-.23 4.394-.467 8.424-.649 12.455-.714 15.817-1.379 31.636-2.17 47.452-.072 1.444.457 2.012 2.533 2.442 14.4 2.98 28.749 6.075 43.117 9.127.945.201 1.915.351 2.873.524z" style="fill:#bfbfbf;fill-opacity:1;fill-rule:nonzero;stroke:none" transform="matrix(1.33333 0 0 -1.33333 192.95 21.792)"/><path d="M0 0c-1.061-.366-2.084.485-3.27-.313.992-.696 2.337-.917 3.044-2.282C-3.745-1.47-7.011-.424-10.279.62c-7.902 2.525-15.795 5.07-23.719 7.547-1.067.333-1.35.794-1.212 1.904a7540 7540 0 0 1 5.583 45.817c.156 1.316.544 1.601 1.884 1.497 7.002-.541 14.025-.985 21.174-1.472-.511-.888-1.561-.589-2.03-1.408l7.16-2.315c-1.852-.953-3.717-.905-5.415-2.091l3.496-.796c-.538-.998-1.352-.881-1.979-1.043-5.284-1.366-10.576-2.682-15.866-4.017-.944-.238-2.089-.332-2.357-1.469-.287-1.22.767-1.585 1.664-1.973q9.103-3.947 18.207-7.89c.54-.234 1.072-.481 1.667-.748-2.273-1.389-4.374-2.746-6.541-3.982-4.462-2.544-8.963-5.018-13.443-7.53-2.621-1.47-2.685-2.442-.203-3.721 6.155-3.172 12.328-6.317 18.493-9.475C-2.276 6.717-.841 5.97.758 5.143c-1.31-1.091-2.888-1.17-4.287-2.079L.087.282z" style="fill:#bfbfbf;fill-opacity:1;fill-rule:nonzero;stroke:none" transform="matrix(1.33333 0 0 -1.33333 126.99 300.54)"/><path d="m0 0 2.304-2.986 1.797 5.984c8.899-19.83 17.561-36.684 26.229-56-.789-.678-3.343-.122-4 0-13.692 2.533-25.506 2.561-39.168 5.181-1.932.371-2.54.205-2.548-1.913-.04-11.001-.249-22.019-.403-33.032-.008-.609-.051-1.222-.095-2.236-1.366 3.345-2.661 6.286-3.783 9.3-4.456 11.966-8.769 23.991-13.35 35.902-.954 2.482-.908 4.58.437 7.141 2.356 4.488 2.217 4.534 7.051 3.761q12.657-2.025 25.319-4.036c.629-.1 1.273-.149 2.311-.268L-6.447.805C-4.178-.419-3.544-2.753-1.97-4.54-.753-3.297-1.083-1.646 0 0" style="fill:#bfbfbf;fill-opacity:1;fill-rule:nonzero;stroke:none" transform="matrix(1.33333 0 0 -1.33333 87.56 51.997)"/><path d="M0 0c-.725-4.602-1.703-8.581-4.136-12.039-2.011-2.859-9.342-4.657-12.72-3.704q-1.045.294-1.977.698c-2.263.98-.93 4.281 1.4 3.461l.081-.029c2.769-.98 5.073-.181 7.396 1.074 2.749 1.485 4.802 3.65 6.545 6.149C-2.458-3.023-1.366-1.747 0 0" style="fill:#333;fill-opacity:1;fill-rule:nonzero;stroke:none" transform="matrix(1.33333 0 0 -1.33333 266.667 106.667)"/><path d="M0 0c-1.356 1.167-1.575 4.964-.352 6.103 1.193 1.111 4.893 1.333 6.045.363 1.185-.998 1.578-5.118.596-6.25C5.063-1.197 1.532-1.318 0 0" style="fill:#333;fill-opacity:1;fill-rule:nonzero;stroke:none" transform="matrix(1.33333 0 0 -1.33333 220.207 100.107)"/><path d="M0 0c1.01-.259 2.225-.206 2.344-1.822C2.392-2.467.767-4.221.18-3.977c-.774.322-1.833.466-1.835 1.826C-1.656-1.047-.933-.046 0 0" style="fill:#333;fill-opacity:1;fill-rule:nonzero;stroke:none" transform="matrix(1.33333 0 0 -1.33333 247.54 80)"/><path d="M0 0c-1.978-.14-5.376 4.101-4.695 5.865.185.477.389.947.588 1.419 1.323 3.133 4.451 4.953 8.051 4.687 1.102-.082 3.394-3.635 3.268-5.067C6.862 2.933 4.101.29 0 0" style="fill:#333;fill-opacity:1;fill-rule:nonzero;stroke:none" transform="matrix(1.33333 0 0 -1.33333 278.412 239.995)"/><path d="M0 0c.163-1.907-1.724-5.281-2.982-5.334-2.211-.093-4.746 2.47-4.987 4.938-.244 2.495 1.692 2.803 3.322 2.97C-1.17 2.93-.193 2.263 0 0" style="fill:#333;fill-opacity:1;fill-rule:nonzero;stroke:none" transform="matrix(1.33333 0 0 -1.33333 261.32 216.885)"/><path d="m0 0 3.029 3.063H0L3.029 8.86l-8.553-3.224c-.005.02-.011.063-.011.063s-3.27-1.281-6.758-2.615l-.055-.021c-.915-.35-1.843-.702-2.732-1.037-.655-.245-12.591-4.009-12.591-4.009l4.496-3.242-4.893-2.323c-.268-.128-.245-.598.034-.687l4.859-1.541s-3.227-4.224-1.809-4.279c.82-.032 8.812 2.852 8.812 2.852l-2.716-39.292c-.044-.637 6.713-1.192 6.819.343l2.886 41.753L3.743-3.058z" style="fill:#bfbfbf;fill-opacity:1;fill-rule:nonzero;stroke:none" transform="matrix(1.33333 0 0 -1.33333 165.676 246.48)"/><path d="M0 0q-.692-2.99-6.03-8.163-5.34-5.173-8.026-5.799l2.523 10.889Q-3.254 2.293-.62 1.655.33 1.425 0 0m8.467.808q-.064.239-2.285 4.688a89 89 0 0 1-1.803 3.443q-.959 1.732-2.428 2.542a7.8 7.8 0 0 1-1.685.631q-2.184.528-5.561-.646-3.378-1.175-4.345-1.016-1.025.174-3.215 1.567-2.192 1.393-2.894 1.416c-1.51.115-14.293-52.994-14.293-52.994q-.216-.925-.493-1.496c-.19-.382-.309-.69-.365-.927-.175-.759 13.594 13.998 13.594 13.998l8.564-16.879 3.168-5.702 1.072 6.436 2.573-.832v2.788H.085l.15 3.632Q-5.35-26.141-7.073-22.868 7.35-12.678 8.929-4.341q.497 2.66-.462 5.149" style="fill:#bfbfbf;fill-opacity:1;fill-rule:nonzero;stroke:none" transform="matrix(1.33333 0 0 -1.33333 78.535 183.244)"/><path d="M0 0q-3.681-6.863-5.91-8.697l.126 10.169q6.215 8.465 8.641 9.235.874.28.858-1.052Q3.681 6.864 0 0m8.071 17.198a48 48 0 0 1-2.233 1.937q-1.17.95-2.61.893a7 7 0 0 1-1.593-.311q-2.011-.64-4.739-3.26c-1.819-1.747-5.264-3.305-6.717-3.26q-2.182.064-2.801-.261c-1.342-.647-2.379-50.473-2.379-50.473s-.818-7.058-.378-6.387 3.41 6.364 3.908 5.685 1.952-1.817 1.952-1.817l.138 3.202s4.274-3.293 3.994-2.911c-.281.383-.842 5.679-.842 5.679l.154 12.294s.861 1.272 2.03 3.026l28.536-21.696L.688-11.506C5.985-3.228 12.436 7.476 12.352 10.48q-.072 2.426-1.388 3.995-.1.165-2.893 2.723" style="fill:#bfbfbf;fill-opacity:1;fill-rule:nonzero;stroke:none" transform="matrix(1.33333 0 0 -1.33333 191.346 256.041)"/><path d="M0 0q5.137-.002 10.275.001a4.67 4.67 0 0 0 3.058-1.103c1.013-.834 1.622-1.903 1.957-3.124.012-.044.011-.092.011-.138.001-1.144-.001-2.287.004-3.43 0-.111-.026-.14-.146-.14q-3.993.005-7.984.002a.7.7 0 0 0-.21.032l-12.16 3.667c-1.771.535-3.542 1.071-5.316 1.599-.149.044-.186.104-.184.245q.011 1.116 0 2.232c-.001.125.027.161.166.16Q-5.265-.002 0 0" style="fill:#bfbfbf;fill-opacity:1;fill-rule:nonzero;stroke:none" transform="matrix(1.33333 0 0 -1.33333 295.594 154.671)"/><path d="m0 0 1.43-.432C3.265-.985 5.101-1.54 6.938-2.089c.129-.039.167-.09.167-.219q-.006-3.085-.003-6.171c0-.192-.029-.165.179-.166q.992-.003 1.983.002c.105.001.145-.014.145-.128q-.006-2.728-.001-5.458c.001-.107-.031-.131-.14-.131q-6.09.005-12.179 0c-.119 0-.147.027-.147.139q.007 1.339.001 2.678c0 .089.029.133.113.174.942.448 1.88.902 2.822 1.35.092.044.125.092.125.193Q-.002-5 0-.174Z" style="fill:#bfbfbf;fill-opacity:1;fill-rule:nonzero;stroke:none" transform="matrix(1.33333 0 0 -1.33333 292.843 162.186)"/><path d="M0 0q2.29-.001 4.581.003c.123 0 .152-.032.152-.147q-.006-2.37 0-4.741c0-.109-.022-.142-.144-.142q-4.588.006-9.175 0c-.12 0-.146.029-.146.14q.006 2.371 0 4.742c0 .113.025.148.151.148C-3.054-.002-1.527 0 0 0" style="fill:#bfbfbf;fill-opacity:1;fill-rule:nonzero;stroke:none" transform="matrix(1.33333 0 0 -1.33333 309.69 166.062)"/></svg>