<?xml version="1.0" encoding="UTF-8" standalone="no"?>
<svg
   xmlns:dc="http://purl.org/dc/elements/1.1/"
   xmlns:cc="http://creativecommons.org/ns#"
   xmlns:rdf="http://www.w3.org/1999/02/22-rdf-syntax-ns#"
   xmlns:svg="http://www.w3.org/2000/svg"
   xmlns="http://www.w3.org/2000/svg"
   xmlns:sodipodi="http://sodipodi.sourceforge.net/DTD/sodipodi-0.dtd"
   xmlns:inkscape="http://www.inkscape.org/namespaces/inkscape"
   viewBox="0 0 341.33334 341.33334"
   height="256"
   width="256"
   xml:space="preserve"
   id="svg2"
   version="1.1"
   sodipodi:docname="Sony - PlayStation 4-content.svg"
   inkscape:version="0.92.3 (2405546, 2018-03-11)"
   inkscape:export-filename="C:\Users\Alfre\AppData\Roaming\RetroArch\assets\xmb\custom\png\Sony - PlayStation 4-content.png"
   inkscape:export-xdpi="96"
   inkscape:export-ydpi="96"><sodipodi:namedview
     pagecolor="#ffffff"
     bordercolor="#666666"
     borderopacity="1"
     objecttolerance="10"
     gridtolerance="10"
     guidetolerance="10"
     inkscape:pageopacity="0"
     inkscape:pageshadow="2"
     inkscape:window-width="1920"
     inkscape:window-height="1001"
     id="namedview24"
     showgrid="false"
     inkscape:pagecheckerboard="true"
     inkscape:zoom="1.9555921"
     inkscape:cx="-30.751675"
     inkscape:cy="173.08165"
     inkscape:window-x="-9"
     inkscape:window-y="-9"
     inkscape:window-maximized="1"
     inkscape:current-layer="svg2"
     showguides="false"><inkscape:grid
       type="xygrid"
       id="grid870" /></sodipodi:namedview><metadata
     id="metadata8"><rdf:RDF><cc:Work
         rdf:about=""><dc:format>image/svg+xml</dc:format><dc:type
           rdf:resource="http://purl.org/dc/dcmitype/StillImage" /><dc:title /></cc:Work></rdf:RDF></metadata><defs
     id="defs6"><clipPath
       id="clipPath18"
       clipPathUnits="userSpaceOnUse"><path
         id="path16"
         d="M 0,256 H 256 V 0 H 0 Z" /></clipPath><clipPath
       id="clipPath26"
       clipPathUnits="userSpaceOnUse"><path
         id="path24"
         d="M 4,252 H 252 V 4 H 4 Z" /></clipPath><pattern
       y="0"
       x="0"
       height="6"
       width="6"
       patternUnits="userSpaceOnUse"
       id="EMFhbasepattern" /></defs><g
     id="g22"
     transform="matrix(1.3333333,0,0,-1.3333333,0,341.33333)" /><path
     style="opacity:0.98999999;fill:#cccccc;fill-opacity:1;fill-rule:nonzero;stroke:none;stroke-width:0.99999994"
     d="M 128 12 C 63.929003 12 12 63.934007 12 128 C 12 176.34979 41.580072 217.78317 83.630859 235.20508 C 63.682401 226.93415 46.544981 213.25537 34.037109 196 L 221.96289 196 C 212.08117 209.62984 199.30949 221.02851 184.54883 229.29297 C 220.01402 209.44933 244 171.52908 244 128 C 244 63.934007 192.051 12 128 12 z M 184.54883 229.29297 C 183.56478 229.84393 182.57373 230.38146 181.57227 230.9043 C 182.57323 230.38205 183.56526 229.8433 184.54883 229.29297 z M 181.57227 230.9043 C 178.59976 232.45615 175.5503 233.88109 172.43359 235.17578 C 175.55103 233.88164 178.599 232.45557 181.57227 230.9043 z M 128 84.494141 C 151.987 84.494141 171.5 104.01201 171.5 128 C 171.5 151.987 151.987 171.50586 128 171.50586 C 104.007 171.50586 84.494141 151.987 84.494141 128 C 84.494141 104.01201 104.007 84.494141 128 84.494141 z M 83.724609 235.24414 C 84.704275 235.64901 85.690629 236.03938 86.683594 236.41797 C 85.691093 236.03926 84.70381 235.64912 83.724609 235.24414 z M 172.13281 235.29883 C 171.22941 235.67112 170.31899 236.0309 169.4043 236.38086 C 170.31942 236.03098 171.22898 235.67105 172.13281 235.29883 z M 86.988281 236.5332 C 87.926711 236.88797 88.870449 237.23156 89.820312 237.5625 C 88.870895 237.23145 87.926263 236.88807 86.988281 236.5332 z M 168.91797 236.56641 C 168.06794 236.88722 167.21292 237.19678 166.35352 237.49805 C 167.21286 237.197 168.06799 236.88698 168.91797 236.56641 z M 90.177734 237.6875 C 92.283304 238.41333 94.415714 239.08341 96.574219 239.68945 C 94.415399 239.08285 92.283536 238.41401 90.177734 237.6875 z M 165.72656 237.71875 C 164.71558 238.06661 163.69919 238.40415 162.67578 238.72461 C 163.6995 238.40427 164.71525 238.06649 165.72656 237.71875 z M 162.67578 238.72461 C 161.61196 239.05773 160.5416 239.3747 159.46484 239.67773 C 160.54151 239.37493 161.61204 239.05747 162.67578 238.72461 z M 96.859375 239.76562 C 97.782772 240.02234 98.710058 240.26767 99.642578 240.50195 C 98.710357 240.26755 97.782466 240.02245 96.859375 239.76562 z M 158.96484 239.8125 C 158.11395 240.04784 157.25901 240.27394 156.40039 240.49023 C 157.25928 240.27402 158.11368 240.04776 158.96484 239.8125 z M 100.52734 240.71875 C 101.30229 240.90695 102.08038 241.08722 102.86133 241.25977 C 102.08029 241.08706 101.30237 240.90712 100.52734 240.71875 z M 155.39062 240.73633 C 154.66151 240.91302 153.92974 241.08327 153.19531 241.24609 C 153.92966 241.08339 154.66158 240.91288 155.39062 240.73633 z M 103.79297 241.46289 C 104.55702 241.62509 105.32422 241.77871 106.09375 241.92578 C 105.32433 241.77861 104.5569 241.62519 103.79297 241.46289 z M 152.15039 241.47461 C 151.44194 241.62479 150.73075 241.76517 150.01758 241.90234 C 150.73046 241.7653 151.44221 241.62464 152.15039 241.47461 z M 107.06641 242.11133 C 108.11959 242.30326 109.17538 242.48515 110.23828 242.64844 C 109.17619 242.48512 108.11877 242.30327 107.06641 242.11133 z M 110.23828 242.64844 C 111.32661 242.81563 112.42144 242.96484 113.51953 243.10156 C 112.42087 242.96465 111.32715 242.81588 110.23828 242.64844 z M 148.88281 242.11914 C 147.97442 242.28444 147.06213 242.44 146.14648 242.58398 C 147.06233 242.44004 147.97421 242.28439 148.88281 242.11914 z M 145.71875 242.6543 C 144.65126 242.81805 143.57687 242.96519 142.5 243.09961 C 143.57749 242.96519 144.65063 242.81807 145.71875 242.6543 z M 114.45898 243.20898 C 115.23495 243.2992 116.01241 243.38416 116.79297 243.45898 C 116.01231 243.38408 115.23503 243.29929 114.45898 243.20898 z M 141.4707 243.2168 C 140.7268 243.30292 139.9825 243.38311 139.23438 243.45508 C 139.98214 243.38318 140.72715 243.30283 141.4707 243.2168 z M 117.91992 243.55859 C 118.65255 243.62166 119.38659 243.67913 120.12305 243.72852 C 119.38677 243.67909 118.65236 243.6217 117.91992 243.55859 z M 138.04883 243.5625 C 137.3341 243.62389 136.61682 243.67821 135.89844 243.72656 C 136.61723 243.6782 137.33368 243.6239 138.04883 243.5625 z M 121.32812 243.80469 C 122.09474 243.84816 122.86423 243.88164 123.63477 243.91016 C 122.86417 243.88161 122.0948 243.84821 121.32812 243.80469 z M 134.6582 243.80664 C 133.90429 243.84935 133.14833 243.88193 132.39062 243.91016 C 133.14818 243.88194 133.90442 243.84932 134.6582 243.80664 z M 124.64453 243.94922 C 125.7595 243.98089 126.87737 244 128 244 C 126.87739 243.99998 125.75945 243.98093 124.64453 243.94922 z M 131.35156 243.94922 C 130.24214 243.98071 129.12874 243.99991 128.01172 244 C 129.12883 243.99989 130.24203 243.98071 131.35156 243.94922 z "
     transform="scale(1.3333334)"
     id="path38" /><path
     id="path42"
     style="fill:#e6e6e6;fill-opacity:0.49019608;fill-rule:nonzero;stroke:none;stroke-width:1.33333325"
     d="m 170.66986,189.03387 c -10.128,0 -18.38133,-8.23467 -18.38133,-18.36667 0,-10.14 8.25333,-18.38133 18.38133,-18.38133 10.13333,0 18.36933,8.24133 18.36933,18.38133 0,10.132 -8.236,18.36667 -18.36933,18.36667 m 0.001,-79.7 c -33.81866,0 -61.33733,27.53333 -61.33733,61.33333 0,33.79734 27.51867,61.33334 61.33733,61.33334 33.78267,0 61.32934,-27.536 61.32934,-61.33334 0,-33.8 -27.54667,-61.33333 -61.32934,-61.33333"
     inkscape:connector-curvature="0" /><path
     id="path46"
     style="fill:#0000b8;fill-opacity:1;fill-rule:nonzero;stroke:none;stroke-width:1.33333325"
     d="m 45.382132,261.33333 c 28.102666,38.76933 73.737328,64 125.287998,64 51.53466,0 97.172,-25.23067 125.28,-64 z"
     inkscape:connector-curvature="0" /><g
     id="g893"
     transform="translate(-0.00417594,-0.02042937)"><path
       inkscape:connector-curvature="0"
       style="fill:#3b3b3b;fill-opacity:1;fill-rule:nonzero;stroke:none;stroke-width:1.33333337"
       d="m 81.71052,174.74064 c 0.42666,-0.42667 0.74666,-0.74666 1.06666,-1.17333 0.42666,-0.74666 0.31999,-1.17332 -0.32,-1.59998 -0.64,-0.42667 -1.49332,-0.64 -2.23998,-0.85333 -2.02666,-0.64 -3.83998,-0.21333 -5.6533,0.74666 -0.10666,0 -0.21333,0.10667 -0.21333,0.10667 -0.10666,0 -0.10666,-0.10667 -0.10666,-0.10667 -0.64,-0.21333 -1.17333,-0.42666 -1.70666,-0.64 -1.27999,-0.42666 -2.66664,-0.95999 -4.0533,-1.49332 0,0 -0.10667,0 -0.10667,-0.10666 2.02665,-1.38666 4.15997,-2.55999 6.61329,-3.30665 2.66664,-0.85332 5.33329,-0.95999 7.99994,-0.53333 2.34665,0.42667 4.6933,1.17333 6.71995,2.34665 0.74666,0.42667 1.49332,0.85333 2.02665,1.38666 0.85333,0.95999 0.95999,1.81332 0.53333,2.98664 -0.32,0.64 -0.74666,1.28 -1.27999,1.81332 -0.95999,1.06666 -2.02665,1.91999 -3.19998,2.66665 -0.10666,-0.10666 -0.21333,-0.10666 -0.21333,-0.10666 -0.74666,-0.32 -1.59999,-0.53333 -2.34665,-0.85333 -1.17332,-0.42666 -2.34665,-0.85333 -3.51997,-1.27999 z"
       id="path829" /><path
       inkscape:connector-curvature="0"
       style="fill:#3b3b3b;fill-opacity:1;fill-rule:nonzero;stroke:none;stroke-width:1.33333337"
       d="m 51.31074,172.82065 c -0.21333,0.32 -0.42666,0.64 -0.63999,0.96 -0.21333,0.53332 -0.10667,0.95999 0.21333,1.27999 0.32,0.31999 0.53333,0.42666 0.85333,0.63999 2.13331,1.17333 4.26663,1.17333 6.50661,0.32 0.21334,-0.10667 0.53333,-0.21333 0.74667,-0.32 1.27999,0.42666 2.55998,0.85333 3.7333,1.38666 0.74666,0.21333 1.49332,0.53333 2.23999,0.85332 -1.27999,0.85333 -2.55999,1.49333 -4.05331,2.13332 -1.70665,0.74666 -3.41331,1.27999 -5.33329,1.49332 -1.49332,0.21334 -2.98665,0.21334 -4.58664,0 -2.45331,-0.31999 -4.90663,-1.06665 -7.14661,-2.23998 -0.85333,-0.42666 -1.59999,-0.95999 -2.23998,-1.59999 -0.53333,-0.53333 -0.85333,-1.17332 -0.74666,-1.91998 0,-0.53333 0.21333,-1.06666 0.42666,-1.49333 0.74666,-1.27999 1.70665,-2.13331 2.77331,-3.09331 0.32,-0.21333 0.64,-0.53333 1.06666,-0.74666 0.95999,0.32 1.91999,0.74666 2.98665,1.17333 1.06665,0.32 2.13331,0.74666 3.19997,1.17332 z"
       id="path831" /><path
       inkscape:connector-curvature="0"
       style="fill:#3b3b3b;fill-opacity:1;fill-rule:nonzero;stroke:none;stroke-width:1.33333337"
       d="m 54.29739,164.39405 c 1.70665,-1.06666 3.30664,-2.13332 4.90663,-3.30664 0.74666,-0.42667 1.38665,-0.85333 2.02665,-1.27999 1.17332,-0.74667 2.87998,-0.42667 3.62664,0.74666 0.74666,1.17332 0.42666,2.77331 -0.74666,3.51997 -1.27999,0.85333 -2.45332,1.70665 -3.73331,2.45331 -0.10666,0.10667 -0.10666,0.10667 -0.21333,0.10667 -1.49332,-0.53333 -2.98664,-1.06666 -4.58663,-1.70665 -0.42667,-0.21334 -0.85333,-0.21334 -1.27999,-0.53333 z"
       id="path833" /><path
       inkscape:connector-curvature="0"
       style="fill:#3b3b3b;fill-opacity:1;fill-rule:nonzero;stroke:none;stroke-width:1.33333337"
       d="m 78.61721,183.06058 c -0.74666,0.53333 -1.59999,1.06666 -2.45332,1.59999 -1.49332,0.95999 -2.98664,1.91998 -4.47996,2.98664 -0.96,0.63999 -1.91999,0.42666 -2.77332,-0.10667 -0.85332,-0.42666 -1.27999,-1.27999 -1.17332,-2.23998 0,-0.74666 0.21333,-1.38666 0.85332,-1.81332 1.28,-0.95999 2.66665,-1.81332 4.15997,-2.66665 0,0 0,0 0.10667,0 1.27999,0.53333 2.55998,0.96 3.94664,1.49333 0.63999,0.21333 1.17332,0.53333 1.81332,0.74666 z"
       id="path835" /><path
       inkscape:connector-curvature="0"
       style="fill:#3b3b3b;fill-opacity:1;fill-rule:nonzero;stroke:none;stroke-width:1.33333337"
       d="m 74.24391,171.86066 c -0.64,-0.21333 -1.17333,-0.42666 -1.70666,-0.64 -1.27999,-0.42666 -2.66664,-0.95999 -4.0533,-1.49332 0,0 -0.10667,0 -0.10667,-0.10666 -1.17332,0.74666 -5.54662,3.62664 -6.61328,4.3733 0,0 -1.81332,1.17332 -2.77331,1.70665 1.27999,0.42666 2.55998,0.85333 3.7333,1.38666 0.74666,0.21333 1.49332,0.53333 2.23999,0.85332 0.85332,-0.53332 8.1066,-5.33329 9.38659,-5.97328 -0.10666,0 -0.10666,-0.10667 -0.10666,-0.10667 z"
       id="path837" /><path
       inkscape:connector-curvature="0"
       style="fill:#3b3b3b;fill-opacity:1;fill-rule:nonzero;stroke:none;stroke-width:1.33333337"
       d="m 87.57714,176.87396 c -0.74666,-0.32 -1.59999,-0.53333 -2.34665,-0.85333 -1.17332,-0.42666 -2.34665,-0.85333 -3.51997,-1.27999 -0.64,0.53333 -8.21327,5.54662 -8.95994,6.07995 0,0 0,0 0.10667,0 1.27999,0.53333 2.55998,0.96 3.94664,1.49333 0.63999,0.21333 1.17332,0.53333 1.81332,0.74666 0.85332,-0.53333 8.4266,-5.54663 9.17326,-6.07996 -0.10666,-0.10666 -0.21333,-0.10666 -0.21333,-0.10666 z"
       id="path839" /><path
       inkscape:connector-curvature="0"
       style="fill:#3b3b3b;fill-opacity:1;fill-rule:nonzero;stroke:none;stroke-width:1.33333337"
       d="m 55.57738,164.92738 c -0.42667,-0.21334 -0.85333,-0.21334 -1.27999,-0.53333 -0.74666,0.53333 -8.31994,5.43996 -9.17327,6.07995 0.95999,0.32 1.91999,0.74666 2.98665,1.17333 1.06665,0.32 2.13331,0.74666 3.19997,1.17332 0.21333,-0.21333 0.42667,-0.42666 0.64,-0.53333 0.42666,-0.53333 7.46661,-5.11996 8.21327,-5.65329 -1.49332,-0.53333 -2.98664,-1.06666 -4.58663,-1.70665 z"
       id="path841" /><path
       inkscape:connector-curvature="0"
       style="fill:#3b3b3b;fill-opacity:1;fill-rule:nonzero;stroke:none;stroke-width:1.33333337"
       d="m 89.60379,152.3408 c -0.63999,-1.70665 -1.59998,-3.19997 -2.98664,-4.47996 -0.74666,-0.74666 -1.49332,-1.38666 -2.34665,-1.91999 -0.85333,-0.53333 -1.70665,-0.95999 -2.55998,-1.38666 -0.53333,-0.21333 -15.14656,-5.86662 -15.14656,-5.86662 v 32.2131 l 5.54663,2.34665 v -27.62647 l 6.50662,2.55998 v 0 c 1.38665,0.64 2.66664,1.38666 3.7333,2.23999 1.17333,0.95999 1.70666,2.34665 1.70666,4.0533 0,1.59999 -0.53333,2.45332 -1.59999,2.66665 -0.95999,0.10666 -2.13332,-0.10667 -3.51997,-0.64 l -1.28,-0.53333 v 4.90663 l 1.17333,0.53333 c 0.32,0.10667 0.63999,0.21334 0.95999,0.32 0.32,0.10667 0.53333,0.32 0.85333,0.42666 1.17332,0.42667 2.34665,0.74667 3.41331,0.96 1.17332,0.32 2.23998,0.21333 3.19997,0 1.17333,-0.42667 2.02665,-1.17333 2.45332,-2.23999 0.53333,-1.06665 0.74666,-2.34665 0.74666,-3.83997 0,-1.49332 -0.32,-3.09331 -0.85333,-4.6933 z"
       id="path843" /><path
       inkscape:connector-curvature="0"
       style="fill:#3b3b3b;fill-opacity:1;fill-rule:nonzero;stroke:none;stroke-width:1.33333337"
       d="m 42.45747,196.39381 c 0,0.42666 0,0.74666 -0.10666,0.95999 0,0.32 -0.10667,0.53333 -0.21333,0.64 -0.10667,0.21333 -0.21334,0.32 -0.32,0.42666 -0.10667,0 -0.32,0.10667 -0.42666,0.10667 0.10666,0.10666 0.31999,0.10666 0.42666,0.21333 0.10666,0.10667 0.21333,0.21333 0.32,0.42666 0.10666,0.10667 0.21333,0.32 0.21333,0.64 0.10666,0.21333 0.10666,0.53333 0.10666,0.85333 v 2.02665 h -1.27999 v -2.02665 c 0,-0.32 0,-0.64 0,-0.85333 -0.10666,-0.21333 -0.10666,-0.32 -0.21333,-0.53333 -0.10666,-0.10667 -0.21333,-0.21333 -0.32,-0.21333 -0.10666,-0.10667 -0.21333,-0.10667 -0.42666,-0.10667 h -1.06666 v -0.74666 h 1.06666 c 0.21333,0 0.32,0 0.42666,-0.10666 0.10667,0 0.21334,-0.10667 0.32,-0.32 0.10667,-0.10667 0.10667,-0.21333 0.21333,-0.42667 0,-0.21333 0,-0.53333 0,-0.85332 0,-0.32 0,-0.64 0,-0.85333 -0.10666,-0.21333 -0.10666,-0.32 -0.21333,-0.53333 -0.10666,-0.10667 -0.21333,-0.21333 -0.32,-0.21333 -0.10666,-0.10667 -0.21333,-0.10667 -0.42666,-0.10667 H 38.6175 v 7.89328 h -1.27999 v -8.63994 h 3.19998 c 0.63999,0 1.17332,0.21333 1.49332,0.53333 0.32,0.32 0.42666,0.95999 0.42666,1.81332 z"
       id="path845" /><path
       inkscape:connector-curvature="0"
       style="fill:#3b3b3b;fill-opacity:1;fill-rule:nonzero;stroke:none;stroke-width:1.33333337"
       d="m 45.55078,199.80712 v -0.74666 h 0.64 c 0.21333,0 0.42666,0 0.53333,0 0.21333,0 0.32,-0.10667 0.32,-0.10667 0.10666,-0.10666 0.10666,-0.21333 0.21333,-0.32 0,-0.10666 0,-0.21333 0,-0.42666 v -0.63999 c 0,-0.21334 0,-0.32 0,-0.53333 -0.10667,-0.10667 -0.10667,-0.21334 -0.21333,-0.21334 0,-0.10666 -0.10667,-0.21333 -0.32,-0.21333 -0.10667,0 -0.32,0 -0.53333,0 h -0.42666 c -0.32,0 -0.42667,0 -0.53333,0 -0.21333,0.10667 -0.32,0.10667 -0.32,0.21333 -0.10667,0.10667 -0.21333,0.21334 -0.21333,0.42667 0,0.10666 0,0.42666 0,0.63999 v 2.77332 c 0,0.21333 0,0.42666 0,0.63999 0,0.21333 0.10666,0.32 0.21333,0.42667 0,0.10666 0.10667,0.10666 0.32,0.21333 0.10666,0 0.21333,0 0.53333,0 h 2.23998 v 0.74666 h -2.77331 c -0.32,0 -0.64,0 -0.85333,-0.10667 -0.21333,-0.10666 -0.42666,-0.21333 -0.53333,-0.32 -0.21333,-0.21333 -0.32,-0.42666 -0.32,-0.74666 -0.10666,-0.21333 -0.10666,-0.53333 -0.10666,-0.95999 v -2.55998 c 0,-0.42666 0,-0.74666 0.10666,-1.06666 0,-0.21333 0.10667,-0.42666 0.32,-0.63999 0.10667,-0.10667 0.32,-0.21334 0.53333,-0.32 0.21333,-0.10667 0.53333,-0.10667 0.85333,-0.10667 h 1.38665 c 0.42667,0 0.74667,0 0.96,0.10667 0.21333,0.10666 0.42666,0.10666 0.53333,0.32 0.21333,0.10666 0.31999,0.31999 0.31999,0.42666 0.10667,0.21333 0.10667,0.53333 0.10667,0.74666 v 0.74666 c 0,0.32 0,0.53333 -0.10667,0.74666 0,0.10667 -0.10666,0.32 -0.31999,0.42667 -0.10667,0.21333 -0.32,0.31999 -0.53333,0.31999 -0.21333,0.10667 -0.53333,0.10667 -0.96,0.10667 z"
       id="path847" /><path
       inkscape:connector-curvature="0"
       style="fill:#3b3b3b;fill-opacity:1;fill-rule:nonzero;stroke:none;stroke-width:1.33333337"
       d="m 52.3774,196.60714 h -1.70665 v 4.3733 c 0,0.32 0,0.64 0.10666,0.74667 0.10667,0.10666 0.32,0.21333 0.64,0.21333 h 0.53333 v 0.74666 h -0.96 c -0.31999,0 -0.53332,0 -0.74666,-0.10667 -0.21333,-0.10666 -0.42666,-0.21333 -0.53333,-0.32 -0.10666,-0.21333 -0.21333,-0.31999 -0.21333,-0.53332 -0.10666,-0.21334 -0.10666,-0.42667 -0.10666,-0.64 v -7.03995 h 1.27999 v 1.81332 h 1.70665 z"
       id="path849" /><path
       inkscape:connector-curvature="0"
       style="fill:#3b3b3b;fill-opacity:1;fill-rule:nonzero;stroke:none;stroke-width:1.33333337"
       d="m 53.12406,196.92714 c 0.10667,-0.21333 0.21333,-0.42666 0.32,-0.63999 0.10667,-0.10667 0.32,-0.21334 0.53333,-0.32 0.21333,-0.10667 0.53333,-0.10667 0.95999,-0.10667 h 1.27999 v 0.74666 h -0.85332 c -0.21334,0 -0.42667,0 -0.53333,0 -0.10667,0.10667 -0.21334,0.10667 -0.32,0.21333 -0.10667,0.10667 -0.10667,0.21334 -0.21333,0.42667 0,0.10666 0,0.42666 0,0.63999 v 4.79997 H 53.0174 v -4.6933 c 0,-0.42666 0.10666,-0.74666 0.10666,-1.06666 z"
       id="path851" /><path
       inkscape:connector-curvature="0"
       style="fill:#3b3b3b;fill-opacity:1;fill-rule:nonzero;stroke:none;stroke-width:1.33333337"
       d="m 57.92403,200.66045 c 0,0.21333 0,0.42666 0.10666,0.63999 0,0.21333 0,0.32 0.10667,0.42667 0.10666,0.10666 0.21333,0.10666 0.32,0.21333 0.10666,0 0.31999,0 0.53333,0 h 0.74666 c 0.21333,0 0.42666,0 0.53333,0 0.10666,-0.10667 0.21333,-0.10667 0.31999,-0.21333 0.10667,-0.10667 0.10667,-0.21334 0.10667,-0.42667 0.10667,-0.21333 0.10667,-0.42666 0.10667,-0.63999 v -2.77332 c 0,-0.21333 0,-0.53333 -0.10667,-0.63999 0,-0.21333 0,-0.32 -0.10667,-0.42667 -0.10666,-0.10666 -0.21333,-0.10666 -0.31999,-0.21333 -0.10667,0 -0.32,0 -0.53333,0 h -0.74666 c -0.21334,0 -0.42667,0 -0.53333,0 -0.10667,0.10667 -0.21334,0.10667 -0.32,0.21333 -0.10667,0.10667 -0.10667,0.21334 -0.10667,0.42667 -0.10666,0.10666 -0.10666,0.42666 -0.10666,0.63999 z m 2.23998,-4.79997 c 0.42666,0 0.64,0 0.95999,0.10667 0.21334,0.10666 0.42667,0.21333 0.53333,0.32 0.10667,0.21333 0.21333,0.42666 0.32,0.63999 0,0.32 0.10667,0.64 0.10667,1.06666 v 2.55998 c 0,0.42666 -0.10667,0.74666 -0.10667,0.95999 -0.10667,0.32 -0.21333,0.53333 -0.32,0.74666 -0.10666,0.10667 -0.31999,0.21334 -0.53333,0.32 -0.31999,0.10667 -0.53333,0.10667 -0.95999,0.10667 h -1.59999 c -0.42666,0 -0.63999,0 -0.95999,-0.10667 -0.21333,-0.10666 -0.42666,-0.21333 -0.53333,-0.32 -0.10667,-0.21333 -0.21333,-0.42666 -0.32,-0.74666 0,-0.21333 0,-0.53333 0,-0.95999 v -2.55998 c 0,-0.42666 0,-0.74666 0,-1.06666 0.10667,-0.21333 0.21333,-0.42666 0.32,-0.63999 0.10667,-0.10667 0.32,-0.21334 0.53333,-0.32 0.32,-0.10667 0.53333,-0.10667 0.95999,-0.10667 z"
       id="path853" /><path
       inkscape:connector-curvature="0"
       style="fill:#3b3b3b;fill-opacity:1;fill-rule:nonzero;stroke:none;stroke-width:1.33333337"
       d="m 67.73729,200.12712 c 0,0.85332 -0.10667,1.49332 -0.42667,1.91998 -0.31999,0.42667 -0.74666,0.64 -1.49332,0.64 h -2.77331 v -0.74666 h 2.45332 c 0.21333,0 0.31999,0 0.53332,-0.10667 0.10667,0 0.21334,-0.10666 0.32,-0.21333 0.10667,-0.10667 0.10667,-0.32 0.21333,-0.53333 0,-0.21333 0,-0.42666 0,-0.85333 0,-0.21333 0,-0.53333 0,-0.74666 0,-0.10666 -0.10666,-0.32 -0.21333,-0.42666 -0.10666,-0.10667 -0.21333,-0.10667 -0.32,-0.21333 -0.21333,0 -0.31999,0 -0.63999,0 h -0.85333 c -0.32,0 -0.63999,-0.10667 -0.85332,-0.10667 -0.21334,-0.10667 -0.32,-0.21333 -0.53333,-0.42666 -0.10667,-0.21333 -0.21334,-0.42667 -0.21334,-0.74666 -0.10666,-0.32 -0.10666,-0.64 -0.10666,-1.06666 0,-0.85333 0.10666,-1.38666 0.42666,-1.81332 0.32,-0.42667 0.74666,-0.64 1.49332,-0.64 h 2.34665 v 0.74666 h -2.13331 c -0.10667,0 -0.21334,0 -0.42667,0.10667 -0.10666,0 -0.21333,0.10666 -0.32,0.21333 0,0.10667 -0.10666,0.21333 -0.10666,0.42666 -0.10667,0.21334 -0.10667,0.42667 -0.10667,0.74667 0,0.31999 0,0.53332 0,0.74666 0.10667,0.10666 0.10667,0.31999 0.21333,0.42666 0,0.10667 0.10667,0.10667 0.32,0.21333 0.10667,0 0.21333,0 0.42667,0 h 0.95999 c 0.32,0 0.53333,0.10667 0.85332,0.10667 0.21334,0.10666 0.42667,0.21333 0.53333,0.32 0.21334,0.21333 0.32,0.42666 0.32,0.74666 0.10667,0.31999 0.10667,0.74666 0.10667,1.27999 z"
       id="path855" /><path
       inkscape:connector-curvature="0"
       style="fill:#3b3b3b;fill-opacity:1;fill-rule:nonzero;stroke:none;stroke-width:1.33333337"
       d="m 71.57726,196.60714 h -1.70665 v 4.3733 c 0,0.32 0.10666,0.64 0.21333,0.74667 0.10666,0.10666 0.31999,0.21333 0.63999,0.21333 h 0.53333 v 0.74666 H 70.1906 c -0.21333,0 -0.53333,0 -0.74666,-0.10667 -0.10666,-0.10666 -0.32,-0.21333 -0.42666,-0.32 -0.10667,-0.21333 -0.21333,-0.31999 -0.21333,-0.53332 -0.10667,-0.21334 -0.10667,-0.42667 -0.10667,-0.64 v -7.03995 h 1.17333 v 1.81332 h 1.70665 z"
       id="path857" /><path
       inkscape:connector-curvature="0"
       style="fill:#3b3b3b;fill-opacity:1;fill-rule:nonzero;stroke:none;stroke-width:1.33333337"
       d="m 74.77724,198.63379 v 0.64 h -0.53333 c -0.21334,0 -0.42667,0 -0.53333,0.10667 -0.10667,0 -0.21333,0 -0.32,0.10666 0,0.10667 -0.10667,0.21333 -0.10667,0.32 0,0.10667 -0.10666,0.21333 -0.10666,0.42666 v 0.74666 c 0,0.21334 0.10666,0.32 0.10666,0.42667 0,0.21333 0.10667,0.32 0.10667,0.32 0.10667,0.10666 0.21333,0.10666 0.32,0.21333 0.10666,0 0.31999,0 0.53333,0 h 1.38665 v -4.05331 c 0,-0.21333 0,-0.53333 0,-0.63999 -0.10666,-0.21333 -0.10666,-0.32 -0.21333,-0.42667 0,-0.10666 -0.10666,-0.10666 -0.32,-0.21333 -0.10666,0 -0.31999,0 -0.53333,0 h -1.70665 v -0.74666 h 2.23998 c 0.32,0 0.64,0 0.85333,0.10667 0.21333,0.10666 0.42666,0.21333 0.53333,0.32 0.21333,0.21333 0.32,0.42666 0.32,0.63999 0.10666,0.32 0.10666,0.64 0.10666,1.06666 v 4.6933 h -3.09331 c -0.31999,0 -0.63999,0 -0.85332,-0.10667 -0.32,-0.10666 -0.42667,-0.21333 -0.64,-0.32 -0.10667,-0.10666 -0.21333,-0.31999 -0.32,-0.53332 0,-0.10667 0,-0.42667 0,-0.64 v -0.85333 c 0,-0.31999 0,-0.53333 0,-0.74666 0.10667,-0.21333 0.21333,-0.32 0.32,-0.53333 0.21333,-0.10666 0.32,-0.21333 0.64,-0.21333 0.21333,-0.10667 0.53333,-0.10667 0.85332,-0.10667 z"
       id="path859" /><path
       inkscape:connector-curvature="0"
       style="fill:#3b3b3b;fill-opacity:1;fill-rule:nonzero;stroke:none;stroke-width:1.33333337"
       d="M 80.96386,196.60714 H 79.2572 v 4.3733 c 0,0.32 0.10667,0.64 0.21333,0.74667 0.10667,0.10666 0.32,0.21333 0.64,0.21333 h 0.53333 v 0.74666 H 79.5772 c -0.32,0 -0.53333,0 -0.74666,-0.10667 -0.21333,-0.10666 -0.32,-0.21333 -0.42666,-0.32 -0.21334,-0.21333 -0.21334,-0.31999 -0.32,-0.53332 0,-0.21334 -0.10667,-0.42667 -0.10667,-0.64 v -7.03995 h 1.27999 v 1.81332 h 1.70666 z"
       id="path861" /><path
       inkscape:connector-curvature="0"
       style="fill:#3b3b3b;fill-opacity:1;fill-rule:nonzero;stroke:none;stroke-width:1.33333337"
       d="m 82.99051,202.6871 h -1.27999 v -6.82662 h 1.27999 z m 0,-7.67995 h -1.27999 v -1.17332 h 1.27999 z"
       id="path863" /><path
       inkscape:connector-curvature="0"
       style="fill:#3b3b3b;fill-opacity:1;fill-rule:nonzero;stroke:none;stroke-width:1.33333337"
       d="m 85.44382,200.66045 c 0,0.21333 0,0.42666 0,0.63999 0,0.21333 0.10667,0.32 0.10667,0.42667 0.10667,0.10666 0.21333,0.10666 0.32,0.21333 0.21333,0 0.32,0 0.53333,0 h 0.74666 c 0.21333,0 0.42666,0 0.53333,0 0.21333,-0.10667 0.32,-0.10667 0.32,-0.21333 0.10666,-0.10667 0.10666,-0.21334 0.21333,-0.42667 0,-0.21333 0,-0.42666 0,-0.63999 v -2.77332 c 0,-0.21333 0,-0.53333 0,-0.63999 -0.10667,-0.21333 -0.10667,-0.32 -0.21333,-0.42667 0,-0.10666 -0.10667,-0.10666 -0.32,-0.21333 -0.10667,0 -0.32,0 -0.53333,0 h -0.74666 c -0.21333,0 -0.32,0 -0.53333,0 -0.10667,0.10667 -0.21333,0.10667 -0.32,0.21333 0,0.10667 -0.10667,0.21334 -0.10667,0.42667 0,0.10666 0,0.42666 0,0.63999 z m 2.23999,-4.79997 c 0.32,0 0.63999,0 0.85332,0.10667 0.21334,0.10666 0.42667,0.21333 0.53333,0.32 0.21333,0.21333 0.32,0.42666 0.32,0.63999 0.10667,0.32 0.10667,0.64 0.10667,1.06666 v 2.55998 c 0,0.42666 0,0.74666 -0.10667,0.95999 0,0.32 -0.10667,0.53333 -0.32,0.74666 -0.10666,0.10667 -0.31999,0.21334 -0.53333,0.32 -0.21333,0.10667 -0.53332,0.10667 -0.85332,0.10667 h -1.70666 c -0.31999,0 -0.63999,0 -0.85332,-0.10667 -0.32,-0.10666 -0.42667,-0.21333 -0.64,-0.32 -0.10666,-0.21333 -0.21333,-0.42666 -0.21333,-0.74666 -0.10667,-0.21333 -0.10667,-0.53333 -0.10667,-0.95999 v -2.55998 c 0,-0.42666 0,-0.74666 0.10667,-1.06666 0,-0.21333 0.10667,-0.42666 0.21333,-0.63999 0.21333,-0.10667 0.32,-0.21334 0.64,-0.32 0.21333,-0.10667 0.53333,-0.10667 0.85332,-0.10667 z"
       id="path865" /><path
       inkscape:connector-curvature="0"
       style="fill:#3b3b3b;fill-opacity:1;fill-rule:nonzero;stroke:none;stroke-width:1.33333337"
       d="m 91.84378,196.60714 v 6.07996 h -1.27999 v -6.82662 h 3.4133 c 0.32,0 0.64,0 0.85333,0.10667 0.32,0.10666 0.42666,0.21333 0.64,0.32 0.10666,0.21333 0.21333,0.42666 0.21333,0.63999 0.10666,0.32 0.10666,0.64 0.10666,1.06666 v 4.6933 h -1.27999 v -4.79997 c 0,-0.21333 0,-0.53333 0,-0.63999 0,-0.21333 -0.10666,-0.32 -0.10666,-0.42667 -0.10667,-0.10666 -0.21333,-0.10666 -0.32,-0.21333 -0.21333,0 -0.32,0 -0.53333,0 z"
       id="path867" /><path
       inkscape:connector-curvature="0"
       style="fill:#737577;fill-opacity:1;fill-rule:nonzero;stroke:none;stroke-width:1.33333337"
       d="m 77.65721,160.87407 2.45332,14.82656 5.86662,2.23998 -8.31994,-17.27987 z"
       id="path869" /></g><g
     id="g923"
     transform="translate(-0.00263188,-0.02030906)"><path
       inkscape:connector-curvature="0"
       style="fill:#737577;fill-opacity:1;fill-rule:evenodd;stroke:none;stroke-width:1.33333337"
       d="M 273.7091,143.16754 245.97597,170.794 c -0.53334,0.42666 -0.53334,1.27999 0,1.81332 v 0 l 27.73313,27.5198 c 0.53332,0.53333 1.38665,0.53333 1.91999,0 v 0 l 27.73312,-27.5198 c 0.53333,-0.53333 0.53333,-1.38666 0,-1.81332 v 0 l -27.73312,-27.62646 c -0.32,-0.21333 -0.64,-0.32 -0.96,-0.32 v 0 c -0.32,0 -0.63999,0.10667 -0.95999,0.32 z"
       id="path871" /><path
       inkscape:connector-curvature="0"
       style="fill:#aaacae;fill-opacity:1;fill-rule:evenodd;stroke:none;stroke-width:1.33333337"
       d="m 274.77575,171.64733 9.27994,9.17326 9.3866,-9.17326 z"
       id="path873" /><path
       inkscape:connector-curvature="0"
       style="fill:#aaacae;fill-opacity:1;fill-rule:evenodd;stroke:none;stroke-width:1.33333337"
       d="m 255.8959,171.75399 h 18.66652 l -9.27993,-9.27993 z"
       id="path875" /><path
       inkscape:connector-curvature="0"
       style="fill:#404040;fill-opacity:1;fill-rule:nonzero;stroke:none;stroke-width:1.33333337"
       d="m 245.33597,139.43423 h 0.64 c 0.21333,0 0.42666,-0.21333 0.42666,-0.42666 v -4.26664 c 0,-0.21333 -0.21333,-0.31999 -0.42666,-0.31999 h -0.64 v -0.96 h 4.0533 v 0.96 h -0.63998 c -0.32,0 -0.42667,0.10666 -0.42667,0.31999 v 4.6933 h 1.06665 c 0.64,0 0.96,-0.21333 1.17334,-0.53333 0.21332,-0.31999 0.31998,-0.74666 0.31998,-1.38665 h 0.96 v 2.77331 h -6.50662 z"
       id="path877" /><path
       inkscape:connector-curvature="0"
       style="fill:#404040;fill-opacity:1;fill-rule:nonzero;stroke:none;stroke-width:1.33333337"
       d="m 252.37593,139.43423 h 0.63998 c 0.32,0 0.42667,-0.21333 0.42667,-0.42666 v -4.26664 c 0,-0.21333 -0.10667,-0.31999 -0.42667,-0.31999 h -0.63998 v -0.96 h 4.05329 v 0.96 h -0.63999 c -0.10666,0 -0.32,0 -0.32,0.10666 -0.10666,0 -0.10666,0.10667 -0.10666,0.21333 v 4.26664 c 0,0.21333 0.10666,0.42666 0.42666,0.42666 h 0.63999 v 0.85333 h -4.05329 z"
       id="path879" /><path
       inkscape:connector-curvature="0"
       style="fill:#404040;fill-opacity:1;fill-rule:nonzero;stroke:none;stroke-width:1.33333337"
       d="m 259.73586,139.43423 h 0.64 c 0.96,0 1.38665,-0.42666 1.38665,-1.17332 0,-0.64 -0.42665,-1.06666 -1.38665,-1.06666 h -0.64 z m 0,-5.01329 v 1.91998 h 0.53333 c 0.85334,0 1.27999,-0.32 1.27999,-0.95999 0,-0.64 -0.42665,-0.95999 -1.27999,-0.95999 z m -2.87997,5.86662 v -0.85333 h 0.53333 c 0.32,0 0.42667,-0.21333 0.42667,-0.42666 v -4.26664 c 0,-0.21333 -0.10667,-0.31999 -0.42667,-0.31999 h -0.53333 v -0.96 h 4.3733 c 0.74666,0 1.27999,0.21333 1.70666,0.42667 0.31998,0.31999 0.53332,0.74666 0.53332,1.17332 0,0.42667 -0.10667,0.85333 -0.42666,1.06666 -0.32,0.32 -0.64,0.53333 -1.06666,0.53333 0.64,0.21333 1.17333,0.42666 1.38665,0.74666 0.32,0.21333 0.42667,0.64 0.42667,1.06666 0,0.64 -0.21334,1.06666 -0.63999,1.38666 -0.32,0.31999 -1.17333,0.42666 -2.23999,0.42666 z"
       id="path881" /><path
       inkscape:connector-curvature="0"
       style="fill:#404040;fill-opacity:1;fill-rule:nonzero;stroke:none;stroke-width:1.33333337"
       d="m 267.30914,136.34092 h 1.06667 c 0.42665,0 0.63998,-0.10666 0.85332,-0.21333 0.10666,-0.21333 0.21333,-0.42666 0.21333,-0.74666 0,-0.42666 -0.10667,-0.64 -0.32,-0.74666 -0.21333,-0.21333 -0.53332,-0.21333 -1.06665,-0.21333 h -0.74667 z m -2.98664,3.09331 h 0.53333 c 0.31999,0 0.53332,-0.21333 0.53332,-0.53333 v -4.15997 c 0,-0.21333 -0.21333,-0.31999 -0.53332,-0.31999 h -0.53333 v -0.96 h 4.79996 c 0.74667,0 1.28,0.21333 1.70665,0.42667 0.32,0.31999 0.53334,0.74666 0.53334,1.27999 0,0.85332 -0.53334,1.38665 -1.59999,1.49332 0.53333,0.10667 0.85332,0.32 0.95999,0.42666 0.21333,0.21334 0.32,0.53333 0.32,0.96 v 0.95999 0 c 0,0.21333 0.10666,0.32 0.32,0.32 0.21333,0 0.42666,-0.21333 0.42666,-0.53333 v -0.42667 h 0.63999 v 0.32 c 0,1.17333 -0.53332,1.70666 -1.70665,1.70666 -1.06666,0 -1.59999,-0.53333 -1.59999,-1.59999 v -0.85333 c 0,-0.32 -0.10667,-0.53333 -0.21333,-0.63999 -0.10667,0 -0.42666,-0.10667 -0.85332,-0.10667 h -0.74667 v 1.70665 c 0,0.21334 0,0.32 0.10667,0.42667 0,0 0.21333,0.10666 0.32,0.10666 h 0.64 v 0.85333 h -4.05331 z"
       id="path883" /><path
       inkscape:connector-curvature="0"
       style="fill:#404040;fill-opacity:1;fill-rule:nonzero;stroke:none;stroke-width:1.33333337"
       d="m 272.96243,139.43423 h 0.53334 c 0.32,0 0.42666,-0.21333 0.42666,-0.42666 v -4.26664 c 0,-0.21333 -0.10666,-0.31999 -0.42666,-0.31999 h -0.53334 v -0.96 h 6.82662 v 2.66665 h -0.95999 c 0,-0.74666 -0.21333,-1.17332 -0.53333,-1.38666 -0.21334,-0.21333 -0.64,-0.31999 -1.27999,-0.31999 h -1.17333 v 1.91998 h 0.32 c 0.32,0 0.53333,0 0.74666,-0.21333 0.10667,-0.10667 0.10667,-0.32 0.10667,-0.63999 v -0.21334 h 0.85332 v 3.09331 h -0.85332 v -0.21333 c 0,-0.32 0,-0.53333 -0.10667,-0.63999 -0.10666,-0.10667 -0.21333,-0.21333 -0.42666,-0.21333 h -0.64 v 2.13331 h 1.28 c 0.63998,0 1.06665,-0.21333 1.27998,-0.42666 0.32,-0.32 0.42667,-0.74666 0.42667,-1.49332 h 0.95999 v 2.77331 h -6.82662 z"
       id="path885" /><path
       inkscape:connector-curvature="0"
       style="fill:#404040;fill-opacity:1;fill-rule:nonzero;stroke:none;stroke-width:1.33333337"
       d="m 280.53571,136.12759 v -2.66665 h 6.71995 v 2.66665 h -0.95999 c 0,-0.63999 -0.10666,-1.06666 -0.32,-1.38666 -0.21333,-0.21333 -0.53333,-0.31999 -1.06666,-0.31999 v 4.58663 c 0,0.21333 0.10666,0.42666 0.42666,0.42666 h 0.53334 v 0.85333 h -3.94664 v -0.85333 h 0.64 c 0.21333,0 0.42666,-0.21333 0.42666,-0.42666 v -4.58663 c -0.64,0 -0.96,0.10666 -1.17333,0.42666 -0.21333,0.32 -0.32,0.74666 -0.32,1.27999 z"
       id="path887" /><path
       inkscape:connector-curvature="0"
       style="fill:#404040;fill-opacity:1;fill-rule:nonzero;stroke:none;stroke-width:1.33333337"
       d="m 290.77563,136.34092 h 1.06667 c 0.42665,0 0.74665,-0.10666 0.85332,-0.21333 0.21333,-0.21333 0.32,-0.42666 0.32,-0.74666 0,-0.42666 -0.10667,-0.64 -0.32,-0.74666 -0.21333,-0.21333 -0.64,-0.21333 -1.17332,-0.21333 h -0.74667 z m -2.98664,3.09331 h 0.64 c 0.31999,0 0.42666,-0.21333 0.42666,-0.53333 v -4.15997 c 0,-0.21333 -0.10667,-0.31999 -0.42666,-0.31999 h -0.64 v -0.96 h 4.90663 c 0.64,0 1.17332,0.21333 1.59999,0.42667 0.42667,0.31999 0.64,0.74666 0.64,1.27999 0,0.85332 -0.53333,1.38665 -1.59999,1.49332 0.42667,0.10667 0.74666,0.32 0.95999,0.42666 0.21333,0.21334 0.21333,0.53333 0.21333,0.96 v 0.95999 0 c 0,0.21333 0.10667,0.32 0.42667,0.32 0.21333,0 0.32,-0.21333 0.32,-0.53333 v -0.42667 h 0.63999 v 0.32 c 0,1.17333 -0.53332,1.70666 -1.59999,1.70666 -1.17332,0 -1.70666,-0.53333 -1.70666,-1.59999 v -0.85333 c 0,-0.32 0,-0.53333 -0.21333,-0.63999 -0.10667,0 -0.42665,-0.10667 -0.85332,-0.10667 h -0.74667 v 1.70665 c 0,0.21334 0.10667,0.32 0.10667,0.42667 0.10667,0 0.21333,0.10666 0.42667,0.10666 h 0.53333 v 0.85333 h -4.05331 z"
       id="path889" /><path
       inkscape:connector-curvature="0"
       style="fill:#404040;fill-opacity:1;fill-rule:nonzero;stroke:none;stroke-width:1.33333337"
       d="m 298.77558,136.87425 c 0,1.70666 0.53332,2.55998 1.49332,2.55998 0.95999,0 1.49332,-0.85332 1.49332,-2.55998 0,-1.70665 -0.53333,-2.55998 -1.49332,-2.55998 -0.96,0 -1.49332,0.85333 -1.49332,2.55998 z m -2.23998,0 c 0,-1.06666 0.32,-1.91998 0.95998,-2.55998 0.64,-0.64 1.6,-0.95999 2.77332,-0.95999 1.17332,0 2.13332,0.31999 2.77331,0.95999 0.64,0.64 0.96,1.49332 0.96,2.55998 0,1.06666 -0.32,1.91999 -0.96,2.55998 -0.74665,0.64 -1.59999,0.96 -2.77331,0.96 -1.17332,0 -2.02665,-0.32 -2.77332,-0.96 -0.63998,-0.63999 -0.95998,-1.49332 -0.95998,-2.55998 z"
       id="path891" /><path
       inkscape:connector-curvature="0"
       style="fill:#3b3b3b;fill-opacity:1;fill-rule:nonzero;stroke:none;stroke-width:1.33333337"
       d="m 252.05593,209.08705 c -0.10667,1.27999 -1.38667,1.81332 -2.87999,1.81332 -2.13332,0 -3.09331,-1.49333 -3.09331,-3.19997 0,-1.38666 0.85334,-3.09332 3.30664,-3.09332 1.49332,0 2.55999,0.74667 2.66666,1.70666 h -0.96 c -0.21334,-0.74666 -0.95999,-1.06666 -1.70666,-1.06666 -1.38665,0 -2.4533,0.85333 -2.4533,2.45332 0,1.70664 1.06665,2.55997 2.4533,2.55997 0.74667,0 1.59999,-0.42666 1.70666,-1.17332 z"
       id="path893" /><path
       inkscape:connector-curvature="0"
       style="fill:#3b3b3b;fill-opacity:1;fill-rule:nonzero;stroke:none;stroke-width:1.33333337"
       d="m 256.64255,210.26037 c 1.49332,0 2.45332,-1.06665 2.45332,-2.55997 0,-1.38666 -0.96,-2.45332 -2.45332,-2.45332 -1.38665,0 -2.4533,1.06666 -2.4533,2.45332 0,1.49332 1.06665,2.55997 2.4533,2.55997 z m 0,-5.65329 c 2.55999,0 3.41331,1.70666 3.41331,3.09332 0,1.49332 -0.85332,3.19997 -3.41331,3.19997 -2.4533,0 -3.30664,-1.70665 -3.30664,-3.19997 0,-1.38666 0.85334,-3.09332 3.30664,-3.09332 z"
       id="path895" /><path
       inkscape:connector-curvature="0"
       style="fill:#3b3b3b;fill-opacity:1;fill-rule:nonzero;stroke:none;stroke-width:1.33333337"
       d="m 262.50918,205.35375 h -0.10667 v 5.33328 h -0.85333 v -5.86661 h 1.38667 l 2.66664,5.22662 2.66665,-5.22662 h 1.38665 v 5.86661 h -0.85333 v -5.33328 0 l -2.77331,5.33328 h -0.85333 z"
       id="path897" /><path
       inkscape:connector-curvature="0"
       style="fill:#3b3b3b;fill-opacity:1;fill-rule:nonzero;stroke:none;stroke-width:1.33333337"
       d="m 274.34909,207.48706 c 1.06666,0 1.49332,-0.42666 1.49332,-1.06666 0,-0.63999 -0.31999,-0.95999 -1.49332,-0.95999 h -1.91999 v 2.02665 z m -2.77331,-2.66664 h 2.77331 c 1.81332,0 2.45332,0.53333 2.45332,1.59998 0,0.96 -0.74667,1.70666 -2.23999,1.70666 h -2.13332 v 2.55997 h -0.85332 z"
       id="path899" /><path
       inkscape:connector-curvature="0"
       style="fill:#3b3b3b;fill-opacity:1;fill-rule:nonzero;stroke:none;stroke-width:1.33333337"
       d="m 282.98903,204.82042 h 0.85332 v 3.51997 c 0,1.70665 -1.17332,2.55998 -2.7733,2.55998 -1.6,0 -2.77332,-0.85333 -2.77332,-2.55998 v -3.51997 h 0.85333 v 3.51997 c 0,1.17332 0.63999,1.91998 1.91999,1.91998 1.27998,0 1.91998,-0.74666 1.91998,-1.91998 z"
       id="path901" /><path
       inkscape:connector-curvature="0"
       style="fill:#3b3b3b;fill-opacity:1;fill-rule:nonzero;stroke:none;stroke-width:1.33333337"
       d="m 287.46899,205.46041 h -2.55998 v -0.63999 h 5.97329 v 0.63999 h -2.55997 v 5.22662 h -0.85334 z"
       id="path903" /><path
       inkscape:connector-curvature="0"
       style="fill:#3b3b3b;fill-opacity:1;fill-rule:nonzero;stroke:none;stroke-width:1.33333337"
       d="m 291.8423,204.82042 h 4.47996 v 0.63999 h -3.62664 v 1.91999 h 3.41331 v 0.63999 h -3.41331 v 2.02665 h 3.73331 v 0.63999 h -4.58663 z"
       id="path905" /><path
       inkscape:connector-curvature="0"
       style="fill:#3b3b3b;fill-opacity:1;fill-rule:nonzero;stroke:none;stroke-width:1.33333337"
       d="m 298.77558,207.3804 h 2.02666 c 0.85332,0 1.38665,-0.21333 1.38665,-0.96 0,-0.74666 -0.32,-0.95999 -1.38665,-0.95999 h -2.02666 z m 0,3.30663 h -0.85333 v -5.86661 h 2.98665 c 1.81332,0 2.23998,0.53333 2.23998,1.49332 0,0.74666 -0.53332,1.27999 -1.38666,1.38666 v 0 c 0.85334,0.10666 1.06667,0.42666 1.17332,1.49332 0.10667,0.63999 0.21334,1.17332 0.32,1.49331 h -0.85332 c -0.21333,-0.31999 -0.21333,-1.17332 -0.42666,-1.91998 -0.10667,-0.42666 -0.42667,-0.63999 -1.49332,-0.63999 h -1.70666 z"
       id="path907" /><path
       inkscape:connector-curvature="0"
       style="fill:#3b3b3b;fill-opacity:1;fill-rule:nonzero;stroke:none;stroke-width:1.33333337"
       d="m 245.76263,212.60702 h 4.47998 v 0.64 h -3.51998 v 1.91998 h 3.30664 v 0.64 h -3.30664 v 2.02665 h 3.62664 v 0.74666 h -4.58664 z"
       id="path909" /><path
       inkscape:connector-curvature="0"
       style="fill:#3b3b3b;fill-opacity:1;fill-rule:nonzero;stroke:none;stroke-width:1.33333337"
       d="m 252.80258,213.24702 v 0 5.33329 h -0.85332 v -5.97329 h 1.38665 l 2.55999,5.22663 2.66664,-5.22663 h 1.38665 v 5.97329 h -0.85332 v -5.33329 0 l -2.66665,5.33329 h -0.95999 z"
       id="path911" /><path
       inkscape:connector-curvature="0"
       style="fill:#3b3b3b;fill-opacity:1;fill-rule:nonzero;stroke:none;stroke-width:1.33333337"
       d="m 266.45582,212.60702 h 0.85332 v 3.51997 c 0,1.70666 -1.17332,2.55999 -2.77331,2.55999 -1.59998,0 -2.77332,-0.85333 -2.77332,-2.55999 v -3.51997 h 0.85334 v 3.62664 c 0,1.06666 0.63998,1.81332 1.91998,1.81332 1.17332,0 1.91999,-0.74666 1.91999,-1.81332 z"
       id="path913" /><path
       inkscape:connector-curvature="0"
       style="fill:#3b3b3b;fill-opacity:1;fill-rule:nonzero;stroke:none;stroke-width:1.33333337"
       d="m 269.22913,212.60702 h 0.85333 v 5.22663 h 3.41331 v 0.74666 h -4.26664 z"
       id="path915" /><path
       inkscape:connector-curvature="0"
       style="fill:#3b3b3b;fill-opacity:1;fill-rule:nonzero;stroke:none;stroke-width:1.33333337"
       d="m 278.82906,216.34033 -1.38665,-2.98665 -1.6,2.98665 z m 0.42667,0.63999 h -3.73331 l -0.74667,1.59999 h -0.95998 l 3.0933,-5.97329 h 0.95999 l 3.09332,5.97329 h -0.96 z"
       id="path917" /><path
       inkscape:connector-curvature="0"
       style="fill:#3b3b3b;fill-opacity:1;fill-rule:nonzero;stroke:none;stroke-width:1.33333337"
       d="m 283.09569,213.35368 h -2.55998 v -0.74666 h 5.9733 v 0.74666 h -2.55999 v 5.22663 h -0.85333 z"
       id="path919" /><path
       inkscape:connector-curvature="0"
       style="fill:#3b3b3b;fill-opacity:1;fill-rule:nonzero;stroke:none;stroke-width:1.33333337"
       d="m 287.36233,212.60702 h 0.85333 v 5.97329 h -0.85333 z"
       id="path921" /><path
       inkscape:connector-curvature="0"
       style="fill:#3b3b3b;fill-opacity:1;fill-rule:nonzero;stroke:none;stroke-width:1.33333337"
       d="m 293.01562,218.04698 c 1.49332,0 2.45332,-1.06666 2.45332,-2.45331 0,-1.49333 -0.96,-2.45332 -2.45332,-2.45332 -1.49332,0 -2.45332,0.95999 -2.45332,2.45332 0,1.38665 0.96,2.45331 2.45332,2.45331 z m 0,-5.54663 c 2.45332,0 3.30664,1.70666 3.30664,3.09332 0,1.38665 -0.85332,3.09331 -3.30664,3.09331 -2.55999,0 -3.41331,-1.70666 -3.41331,-3.09331 0,-1.38666 0.85332,-3.09332 3.41331,-3.09332 z"
       id="path923" /><path
       inkscape:connector-curvature="0"
       style="fill:#3b3b3b;fill-opacity:1;fill-rule:nonzero;stroke:none;stroke-width:1.33333337"
       d="m 302.61556,212.60702 h 0.95998 v 5.97329 h -1.17332 l -3.7333,-5.11996 v 0 5.11996 h -0.85334 v -5.97329 h 1.17334 l 3.62664,5.0133 v 0 z"
       id="path925" /></g><path
     inkscape:connector-curvature="0"
     d="m 170.66667,16.000005 c -85.427998,0 -154.666668,69.245332 -154.666668,154.666655 0,85.42133 69.23867,154.66667 154.666668,154.66667 85.40134,0 154.66667,-69.24534 154.66667,-154.66667 0,-85.421323 -69.26535,-154.666655 -154.66667,-154.666655"
     style="fill:none;fill-opacity:1;fill-rule:nonzero;stroke:#000000;stroke-width:2.66666675;stroke-miterlimit:4;stroke-dasharray:none"
     id="path852"
     sodipodi:nodetypes="csssc" /></svg>