<?xml version="1.0" encoding="UTF-8" standalone="no"?>
<svg
   xmlns:dc="http://purl.org/dc/elements/1.1/"
   xmlns:cc="http://creativecommons.org/ns#"
   xmlns:rdf="http://www.w3.org/1999/02/22-rdf-syntax-ns#"
   xmlns:svg="http://www.w3.org/2000/svg"
   xmlns="http://www.w3.org/2000/svg"
   xmlns:sodipodi="http://sodipodi.sourceforge.net/DTD/sodipodi-0.dtd"
   xmlns:inkscape="http://www.inkscape.org/namespaces/inkscape"
   viewBox="0 0 341.33334 341.33334"
   height="256"
   width="256"
   xml:space="preserve"
   id="svg2"
   version="1.1"
   sodipodi:docname="Sony - PlayStation 3-content.svg"
   inkscape:version="0.92.3 (2405546, 2018-03-11)"
   inkscape:export-filename="C:\Users\Alfre\AppData\Roaming\RetroArch\assets\xmb\custom\png\Sony - PlayStation 3-content.png"
   inkscape:export-xdpi="96"
   inkscape:export-ydpi="96"><sodipodi:namedview
     pagecolor="#ffffff"
     bordercolor="#666666"
     borderopacity="1"
     objecttolerance="10"
     gridtolerance="10"
     guidetolerance="10"
     inkscape:pageopacity="0"
     inkscape:pageshadow="2"
     inkscape:window-width="1920"
     inkscape:window-height="1001"
     id="namedview24"
     showgrid="false"
     inkscape:pagecheckerboard="true"
     inkscape:zoom="0.97779608"
     inkscape:cx="88.269296"
     inkscape:cy="210.35199"
     inkscape:window-x="-9"
     inkscape:window-y="-9"
     inkscape:window-maximized="1"
     inkscape:current-layer="svg2"
     inkscape:snap-object-midpoints="true" /><metadata
     id="metadata8"><rdf:RDF><cc:Work
         rdf:about=""><dc:format>image/svg+xml</dc:format><dc:type
           rdf:resource="http://purl.org/dc/dcmitype/StillImage" /><dc:title /></cc:Work></rdf:RDF></metadata><defs
     id="defs6"><clipPath
       id="clipPath18"
       clipPathUnits="userSpaceOnUse"><path
         id="path16"
         d="M 0,256 H 256 V 0 H 0 Z" /></clipPath><clipPath
       id="clipPath26"
       clipPathUnits="userSpaceOnUse"><path
         id="path24"
         d="M 4,252 H 252 V 4 H 4 Z" /></clipPath><pattern
       y="0"
       x="0"
       height="6"
       width="6"
       patternUnits="userSpaceOnUse"
       id="EMFhbasepattern" /></defs><g
     id="g22"
     transform="matrix(1.3333333,0,0,-1.3333333,0,341.33333)" /><path
     style="fill:#cccccc;fill-opacity:1;fill-rule:nonzero;stroke:none;stroke-width:0.99999994"
     d="M 128 12 C 63.929003 12 12 63.934007 12 128 C 12 159.01704 24.173334 187.18896 44.001953 208.00195 L 44.001953 208 C 44.001953 208 88.001956 196 128.00195 196 C 167.91294 196 211.79744 207.94664 211.99414 208 C 231.82367 187.18729 244 159.01558 244 128 C 244 63.934007 192.051 12 128 12 z M 44.001953 208.00195 C 45.322522 209.38808 46.677295 210.74105 48.064453 212.06055 C 46.67738 210.7411 45.322453 209.38802 44.001953 208.00195 z M 48.064453 212.06055 C 48.734029 212.69746 49.411073 213.32633 50.095703 213.94727 C 49.411139 213.32637 48.733967 212.69742 48.064453 212.06055 z M 128 84.494141 C 151.987 84.494141 171.5 104.01201 171.5 128 C 171.5 151.987 151.987 171.50586 128 171.50586 C 104.007 171.50586 84.494141 151.987 84.494141 128 C 84.494141 104.01201 104.007 84.494141 128 84.494141 z M 206.61719 213.28125 C 206.38994 213.49084 206.16642 213.70432 205.9375 213.91211 C 206.16643 213.7043 206.38993 213.49086 206.61719 213.28125 z M 50.746094 214.52734 C 51.253481 214.98066 51.761992 215.43249 52.277344 215.87695 C 51.762099 215.43256 51.253378 214.98059 50.746094 214.52734 z M 204.61328 215.08594 C 204.35537 215.313 204.10173 215.54473 203.8418 215.76953 C 204.10175 215.5447 204.35535 215.31303 204.61328 215.08594 z M 52.664062 216.20312 C 53.244048 216.69897 53.826215 217.19322 54.416016 217.67773 C 53.826133 217.19313 53.244129 216.69906 52.664062 216.20312 z M 202.5293 216.87891 C 202.24098 217.12093 201.95475 217.36621 201.66406 217.60547 C 201.95485 217.36613 202.24089 217.12101 202.5293 216.87891 z M 55.03125 218.17383 C 55.579718 218.6182 56.130828 219.05964 56.6875 219.49414 C 56.130642 219.05949 55.5799 218.61836 55.03125 218.17383 z M 200.58789 218.47266 C 200.18907 218.79306 199.7918 219.11447 199.38867 219.42969 C 199.79164 219.11459 200.18922 218.79294 200.58789 218.47266 z M 57.160156 219.85742 C 57.740387 220.30555 58.323226 220.7502 58.912109 221.1875 C 58.32341 220.75032 57.740209 220.30542 57.160156 219.85742 z M 198.36133 220.2168 C 197.97912 220.50887 197.59882 220.80243 197.21289 221.08984 C 197.59867 220.80253 197.97926 220.50877 198.36133 220.2168 z M 59.539062 221.64453 C 60.107941 222.06112 60.677218 222.4764 61.253906 222.88281 C 60.677269 222.47642 60.107892 222.0611 59.539062 221.64453 z M 196.00586 221.9707 C 195.62842 222.24434 195.25194 222.51988 194.87109 222.78906 C 195.25199 222.51984 195.62837 222.24438 196.00586 221.9707 z M 61.869141 223.30859 C 62.421638 223.69266 62.975718 224.07457 63.535156 224.44922 C 62.975676 224.07453 62.42168 223.69271 61.869141 223.30859 z M 193.71094 223.5918 C 193.33331 223.85189 192.95702 224.11342 192.57617 224.36914 C 192.95702 224.11341 193.33331 223.8519 193.71094 223.5918 z M 64.419922 225.03125 C 64.914056 225.35568 65.408853 225.67905 65.908203 225.99609 C 65.408913 225.67907 64.913997 225.35566 64.419922 225.03125 z M 191.25781 225.23828 C 190.91609 225.46106 190.57467 225.68504 190.23047 225.9043 C 190.57497 225.68485 190.91579 225.46125 191.25781 225.23828 z M 66.775391 226.53711 C 67.306358 226.86771 67.838343 227.19732 68.375 227.51953 C 67.838368 227.19732 67.306334 226.86771 66.775391 226.53711 z M 188.89453 226.73828 C 188.52221 226.96842 188.1505 227.19976 187.77539 227.42578 C 188.15049 227.19976 188.52221 226.96841 188.89453 226.73828 z M 69.257812 228.03906 C 69.752825 228.33035 70.248364 228.62019 70.748047 228.9043 C 70.248563 228.62028 69.75263 228.33025 69.257812 228.03906 z M 186.4707 228.19531 C 186.0912 228.41728 185.71231 228.63966 185.33008 228.85742 C 185.71229 228.63967 186.09122 228.41726 186.4707 228.19531 z M 71.824219 229.50781 C 72.309455 229.77691 72.795686 230.04433 73.285156 230.30664 C 72.795664 230.0443 72.309476 229.77694 71.824219 229.50781 z M 184.06836 229.5625 C 183.64115 229.79887 183.21368 230.03451 182.7832 230.26562 C 183.21354 230.03458 183.64129 229.79879 184.06836 229.5625 z M 74.271484 230.82812 C 74.789577 231.09937 75.309367 231.36725 75.832031 231.63086 C 75.309228 231.36716 74.789714 231.09946 74.271484 230.82812 z M 181.56445 230.9082 C 181.14398 231.12754 180.72231 231.34623 180.29883 231.56055 C 180.72252 231.34613 181.14377 231.12765 181.56445 230.9082 z M 76.890625 232.15625 C 77.384732 232.39915 77.880868 232.63895 78.378906 232.875 C 77.880951 232.63898 77.38465 232.39913 76.890625 232.15625 z M 178.91406 232.24805 C 178.53667 232.43274 178.15898 232.61617 177.7793 232.79688 C 178.15893 232.6162 178.53671 232.43271 178.91406 232.24805 z M 79.433594 233.36719 C 79.954411 233.60763 80.476999 233.84521 81.001953 234.07812 C 80.477123 233.84525 79.954288 233.60759 79.433594 233.36719 z M 176.4082 233.4375 C 175.96104 233.64317 175.51271 233.84675 175.0625 234.04688 C 175.51264 233.84677 175.9611 233.64314 176.4082 233.4375 z M 82.113281 234.56445 C 82.596739 234.7729 83.081527 234.97766 83.568359 235.17969 C 83.081479 234.97762 82.596786 234.77293 82.113281 234.56445 z M 173.8418 234.58008 C 173.38207 234.77811 172.92176 234.97378 172.45898 235.16602 C 172.92168 234.97381 173.38215 234.77808 173.8418 234.58008 z M 84.835938 235.69727 C 85.294184 235.88108 85.753728 236.06212 86.214844 236.24023 C 85.753723 236.0621 85.294189 235.8811 84.835938 235.69727 z M 171.10156 235.71875 C 170.70545 235.87741 170.30841 236.03505 169.91016 236.18945 C 170.30851 236.035 170.70535 235.87746 171.10156 235.71875 z M 87.498047 236.72656 C 87.976935 236.90501 88.457595 237.07967 88.939453 237.25195 C 88.457644 237.07968 87.976886 236.90501 87.498047 236.72656 z M 168.36133 236.77734 C 167.98546 236.91689 167.60817 237.05371 167.23047 237.18945 C 167.60818 237.0537 167.98544 236.9169 168.36133 236.77734 z M 90.220703 237.70312 C 90.730009 237.87847 91.241419 238.04838 91.753906 238.2168 C 91.24172 238.04845 90.729711 237.87838 90.220703 237.70312 z M 165.64648 237.74609 C 165.25759 237.87949 164.86731 238.00931 164.47656 238.13867 C 164.86728 238.00931 165.25762 237.87949 165.64648 237.74609 z M 92.876953 238.58203 C 93.445493 238.76243 94.017544 238.93559 94.589844 239.10742 C 94.017381 238.93552 93.445654 238.7625 92.876953 238.58203 z M 162.98047 238.625 C 162.52883 238.7677 162.0751 238.90566 161.62109 239.04297 C 162.07513 238.90565 162.5288 238.76772 162.98047 238.625 z M 95.6875 239.43359 C 96.232423 239.59132 96.77993 239.74266 97.328125 239.89258 C 96.779809 239.74262 96.232542 239.59137 95.6875 239.43359 z M 160.21484 239.46289 C 159.74731 239.5978 159.27658 239.7263 158.80664 239.85547 C 159.27683 239.72623 159.74706 239.59788 160.21484 239.46289 z M 98.525391 240.2168 C 99.044533 240.35277 99.565936 240.4824 100.08789 240.61133 C 99.565986 240.4824 99.044483 240.35277 98.525391 240.2168 z M 157.41406 240.23242 C 156.95336 240.35286 156.49026 240.46714 156.02734 240.58203 C 156.49027 240.46713 156.95335 240.35286 157.41406 240.23242 z M 101.38867 240.92773 C 101.88691 241.04468 102.38798 241.15513 102.88867 241.26562 C 102.38805 241.15513 101.88684 241.04467 101.38867 240.92773 z M 154.55664 240.94141 C 154.12633 241.04222 153.69386 241.13641 153.26172 241.23242 C 153.69362 241.13646 154.12657 241.04217 154.55664 240.94141 z M 104.28906 241.57031 C 104.72717 241.6613 105.16751 241.746 105.60742 241.83203 C 105.1675 241.74599 104.72719 241.66132 104.28906 241.57031 z M 151.66016 241.58008 C 151.23832 241.66752 150.81412 241.74723 150.39062 241.83008 C 150.81399 241.74725 151.23845 241.6675 151.66016 241.58008 z M 148.81836 242.13281 C 148.32803 242.22169 147.83425 242.30208 147.3418 242.38477 C 147.8345 242.30203 148.32778 242.22174 148.81836 242.13281 z M 107.21094 242.13867 C 107.7094 242.22886 108.21028 242.31074 108.71094 242.39453 C 108.21046 242.31076 107.70922 242.22883 107.21094 242.13867 z M 110.00391 242.60938 C 110.56253 242.69637 111.12432 242.77452 111.68555 242.85352 C 111.12419 242.77449 110.56265 242.6964 110.00391 242.60938 z M 145.95703 242.61523 C 145.36911 242.70663 144.77831 242.78857 144.1875 242.87109 C 144.77832 242.78856 145.3691 242.70664 145.95703 242.61523 z M 143.03906 243.03125 C 142.52377 243.09797 142.00567 243.15491 141.48828 243.21484 C 142.00557 243.15491 142.52386 243.09797 143.03906 243.03125 z M 113.01758 243.03906 C 113.49257 243.10031 113.97049 243.15155 114.44727 243.20703 C 113.97059 243.15155 113.49247 243.1003 113.01758 243.03906 z M 115.99219 243.38281 C 116.47241 243.43219 116.95556 243.47212 117.4375 243.51562 C 116.9554 243.4721 116.47256 243.43222 115.99219 243.38281 z M 139.98047 243.38672 C 139.57025 243.42882 139.15756 243.46219 138.74609 243.5 C 139.15763 243.46217 139.57018 243.42883 139.98047 243.38672 z M 118.9375 243.65039 C 119.55093 243.69779 120.16714 243.73367 120.7832 243.77148 C 120.16744 243.73367 119.55063 243.69777 118.9375 243.65039 z M 137.04883 243.65039 C 136.48445 243.69394 135.91621 243.72628 135.34961 243.76172 C 135.91648 243.72625 136.48419 243.69397 137.04883 243.65039 z M 121.92578 243.84375 C 122.91767 243.89491 123.91378 243.9329 124.91211 243.95898 C 123.91316 243.93287 122.91828 243.89496 121.92578 243.84375 z M 124.91211 243.95898 C 125.93828 243.9858 126.96736 244 128 244 C 126.96778 243.99998 125.93786 243.98579 124.91211 243.95898 z M 134.06641 243.84375 C 133.07734 243.89472 132.0853 243.93296 131.08984 243.95898 C 132.08524 243.93295 133.0774 243.89472 134.06641 243.84375 z M 131.08984 243.95898 C 130.07277 243.98558 129.05272 243.99976 128.0293 244 C 129.05245 243.99975 130.07304 243.98558 131.08984 243.95898 z "
     transform="scale(1.3333334)"
     id="path38" /><path
     id="path42"
     style="fill:#e6e6e6;fill-opacity:0.49019608;fill-rule:nonzero;stroke:none;stroke-width:1.33333325"
     d="m 170.66986,189.03387 c -10.128,0 -18.38133,-8.23467 -18.38133,-18.36667 0,-10.14 8.25333,-18.38133 18.38133,-18.38133 10.13333,0 18.36933,8.24133 18.36933,18.38133 0,10.132 -8.236,18.36667 -18.36933,18.36667 m 0.001,-79.7 c -33.81866,0 -61.33733,27.53333 -61.33733,61.33333 0,33.79734 27.51867,61.33334 61.33733,61.33334 33.78267,0 61.32934,-27.536 61.32934,-61.33334 0,-33.8 -27.54667,-61.33333 -61.32934,-61.33333"
     inkscape:connector-curvature="0" /><path
     id="path46"
     style="fill:#333333;fill-opacity:1;fill-rule:nonzero;stroke:none;stroke-width:1.33333325"
     d="m 170.66933,261.33333 c -53.33333,0 -111.999997,16 -111.999997,16 v 0.003 c 28.170666,29.56933 67.930667,47.99733 111.999997,47.99733 44.05867,0 83.82,-18.42933 111.99466,-48.00133 -0.236,-0.064 -58.76799,-15.99867 -111.99466,-15.99867"
     inkscape:connector-curvature="0" /><g
     id="g891"
     transform="translate(-0.00417594,-0.02042937)"><path
       inkscape:connector-curvature="0"
       style="fill:#3b3b3b;fill-opacity:1;fill-rule:nonzero;stroke:none;stroke-width:1.33333337"
       d="m 81.71051,174.74064 c 0.42667,-0.42666 0.74666,-0.74666 1.06666,-1.17332 0.42667,-0.74667 0.32,-1.17333 -0.32,-1.59999 -0.63999,-0.42666 -1.49332,-0.64 -2.23998,-0.85333 -2.02665,-0.63999 -3.83997,-0.21333 -5.65329,0.74666 -0.10667,0 -0.21333,0.10667 -0.21333,0.10667 -0.10667,0 -0.10667,-0.10667 -0.10667,-0.10667 -0.63999,-0.21333 -1.17332,-0.42666 -1.70665,-0.63999 -1.27999,-0.42667 -2.66665,-0.96 -4.05331,-1.49332 0,0 -0.10666,0 -0.10666,-0.10667 2.02665,-1.38666 4.15997,-2.55998 6.61328,-3.30664 2.66665,-0.85333 5.3333,-0.96 7.99994,-0.53333 2.34665,0.42666 4.6933,1.17332 6.71995,2.34665 0.74667,0.42666 1.49333,0.85332 2.02666,1.38665 0.85332,0.96 0.95999,1.81332 0.53333,2.98665 -0.32,0.63999 -0.74667,1.27999 -1.28,1.81332 -0.95999,1.06666 -2.02665,1.91998 -3.19997,2.66664 -0.10667,-0.10666 -0.21333,-0.10666 -0.21333,-0.10666 -0.74666,-0.32 -1.59999,-0.53333 -2.34665,-0.85333 -1.17333,-0.42666 -2.34665,-0.85333 -3.51998,-1.27999 z"
       id="path829" /><path
       inkscape:connector-curvature="0"
       style="fill:#3b3b3b;fill-opacity:1;fill-rule:nonzero;stroke:none;stroke-width:1.33333337"
       d="m 51.31074,172.82065 c -0.21333,0.32 -0.42667,0.64 -0.64,0.96 -0.21333,0.53333 -0.10666,0.95999 0.21333,1.27999 0.32,0.32 0.53333,0.42666 0.85333,0.63999 2.13332,1.17333 4.26664,1.17333 6.50662,0.32 0.21333,-0.10666 0.53333,-0.21333 0.74666,-0.32 1.27999,0.42667 2.55998,0.85333 3.73331,1.38666 0.74666,0.21333 1.49332,0.53333 2.23998,0.85333 -1.27999,0.85332 -2.55998,1.49332 -4.0533,2.13331 -1.70666,0.74667 -3.41331,1.28 -5.3333,1.49333 -1.49332,0.21333 -2.98664,0.21333 -4.58663,0 -2.45332,-0.32 -4.90663,-1.06666 -7.14661,-2.23999 -0.85333,-0.42666 -1.59999,-0.95999 -2.23999,-1.59998 -0.53333,-0.53333 -0.85332,-1.17333 -0.74666,-1.91999 0,-0.53333 0.21333,-1.06666 0.42666,-1.49332 0.74667,-1.27999 1.70666,-2.13332 2.77332,-3.09331 0.32,-0.21334 0.63999,-0.53333 1.06666,-0.74666 0.95999,0.31999 1.91998,0.74666 2.98664,1.17332 1.06666,0.32 2.13332,0.74666 3.19998,1.17332 z"
       id="path831" /><path
       inkscape:connector-curvature="0"
       style="fill:#3b3b3b;fill-opacity:1;fill-rule:nonzero;stroke:none;stroke-width:1.33333337"
       d="m 54.29738,164.39405 c 1.70666,-1.06666 3.30664,-2.13332 4.90663,-3.30664 0.74666,-0.42666 1.38666,-0.85333 2.02665,-1.27999 1.17333,-0.74666 2.87998,-0.42667 3.62664,0.74666 0.74667,1.17332 0.42667,2.77331 -0.74666,3.51997 -1.27999,0.85333 -2.45331,1.70666 -3.7333,2.45332 -0.10667,0.10666 -0.10667,0.10666 -0.21333,0.10666 -1.49333,-0.53332 -2.98665,-1.06665 -4.58664,-1.70665 -0.42666,-0.21333 -0.85332,-0.21333 -1.27999,-0.53333 z"
       id="path833" /><path
       inkscape:connector-curvature="0"
       style="fill:#3b3b3b;fill-opacity:1;fill-rule:nonzero;stroke:none;stroke-width:1.33333337"
       d="m 78.6172,183.06058 c -0.74666,0.53333 -1.59999,1.06666 -2.45331,1.59999 -1.49332,0.95999 -2.98665,1.91998 -4.47997,2.98664 -0.95999,0.64 -1.91999,0.42667 -2.77331,-0.10666 -0.85333,-0.42667 -1.27999,-1.27999 -1.17333,-2.23999 0,-0.74666 0.21333,-1.38665 0.85333,-1.81332 1.27999,-0.95999 2.66665,-1.81332 4.15997,-2.66664 0,0 0,0 0.10667,0 1.27999,0.53333 2.55998,0.95999 3.94663,1.49332 0.64,0.21333 1.17333,0.53333 1.81332,0.74666 z"
       id="path835" /><path
       inkscape:connector-curvature="0"
       style="fill:#3b3b3b;fill-opacity:1;fill-rule:nonzero;stroke:none;stroke-width:1.33333337"
       d="m 74.2439,171.86066 c -0.63999,-0.21333 -1.17332,-0.42666 -1.70665,-0.63999 -1.27999,-0.42667 -2.66665,-0.96 -4.05331,-1.49332 0,0 -0.10666,0 -0.10666,-0.10667 -1.17333,0.74666 -5.54663,3.62664 -6.61329,4.3733 0,0 -1.81332,1.17332 -2.77331,1.70665 1.27999,0.42667 2.55998,0.85333 3.73331,1.38666 0.74666,0.21333 1.49332,0.53333 2.23998,0.85333 0.85333,-0.53333 8.10661,-5.3333 9.3866,-5.97329 -0.10667,0 -0.10667,-0.10667 -0.10667,-0.10667 z"
       id="path837" /><path
       inkscape:connector-curvature="0"
       style="fill:#3b3b3b;fill-opacity:1;fill-rule:nonzero;stroke:none;stroke-width:1.33333337"
       d="m 87.57714,176.87396 c -0.74666,-0.32 -1.59999,-0.53333 -2.34665,-0.85333 -1.17333,-0.42666 -2.34665,-0.85333 -3.51998,-1.27999 -0.63999,0.53333 -8.21327,5.54663 -8.95993,6.07996 0,0 0,0 0.10667,0 1.27999,0.53333 2.55998,0.95999 3.94663,1.49332 0.64,0.21333 1.17333,0.53333 1.81332,0.74666 0.85333,-0.53333 8.42661,-5.54663 9.17327,-6.07996 -0.10667,-0.10666 -0.21333,-0.10666 -0.21333,-0.10666 z"
       id="path839" /><path
       inkscape:connector-curvature="0"
       style="fill:#3b3b3b;fill-opacity:1;fill-rule:nonzero;stroke:none;stroke-width:1.33333337"
       d="m 55.57737,164.92738 c -0.42666,-0.21333 -0.85332,-0.21333 -1.27999,-0.53333 -0.74666,0.53333 -8.31994,5.43996 -9.17326,6.07996 0.95999,0.31999 1.91998,0.74666 2.98664,1.17332 1.06666,0.32 2.13332,0.74666 3.19998,1.17332 0.21333,-0.21333 0.42666,-0.42666 0.63999,-0.53332 0.42667,-0.53333 7.46661,-5.11997 8.21328,-5.6533 -1.49333,-0.53332 -2.98665,-1.06665 -4.58664,-1.70665 z"
       id="path841" /><path
       inkscape:connector-curvature="0"
       style="fill:#3b3b3b;fill-opacity:1;fill-rule:nonzero;stroke:none;stroke-width:1.33333337"
       d="m 89.60379,152.34081 c -0.64,-1.70666 -1.59999,-3.19998 -2.98665,-4.47997 -0.74666,-0.74666 -1.49332,-1.38666 -2.34665,-1.91999 -0.85332,-0.53333 -1.70665,-0.95999 -2.55998,-1.38665 -0.53333,-0.21333 -15.14655,-5.86663 -15.14655,-5.86663 v 32.2131 l 5.54662,2.34665 v -27.62646 l 6.50662,2.55998 v 0 c 1.38666,0.63999 2.66665,1.38665 3.73331,2.23998 1.17332,0.95999 1.70665,2.34665 1.70665,4.0533 0,1.59999 -0.53333,2.45332 -1.59999,2.66665 -0.95999,0.10667 -2.13331,-0.10666 -3.51997,-0.63999 l -1.27999,-0.53333 v 4.90663 l 1.17332,0.53333 c 0.32,0.10666 0.64,0.21333 0.96,0.31999 0.31999,0.10667 0.53333,0.32 0.85332,0.42667 1.17333,0.42666 2.34665,0.74666 3.41331,0.95999 1.17333,0.32 2.23999,0.21333 3.19998,0 1.17332,-0.42666 2.02665,-1.17332 2.45331,-2.23998 0.53333,-1.06666 0.74667,-2.34665 0.74667,-3.83997 0,-1.49333 -0.32,-3.09332 -0.85333,-4.6933 z"
       id="path843" /><path
       inkscape:connector-curvature="0"
       style="fill:#3b3b3b;fill-opacity:1;fill-rule:nonzero;stroke:none;stroke-width:1.33333337"
       d="m 42.45747,196.39381 c 0,0.42667 0,0.74667 -0.10667,0.96 0,0.31999 -0.10666,0.53333 -0.21333,0.63999 -0.10666,0.21333 -0.21333,0.32 -0.32,0.42667 -0.10666,0 -0.31999,0.10666 -0.42666,0.10666 0.10667,0.10667 0.32,0.10667 0.42666,0.21333 0.10667,0.10667 0.21334,0.21334 0.32,0.42667 0.10667,0.10666 0.21333,0.31999 0.21333,0.63999 0.10667,0.21333 0.10667,0.53333 0.10667,0.85333 v 2.02665 h -1.27999 v -2.02665 c 0,-0.32 0,-0.64 0,-0.85333 -0.10667,-0.21333 -0.10667,-0.32 -0.21333,-0.53333 -0.10667,-0.10666 -0.21333,-0.21333 -0.32,-0.21333 -0.10667,-0.10666 -0.21333,-0.10666 -0.42666,-0.10666 h -1.06666 v -0.74667 h 1.06666 c 0.21333,0 0.31999,0 0.42666,-0.10666 0.10667,0 0.21333,-0.10667 0.32,-0.32 0.10666,-0.10667 0.10666,-0.21333 0.21333,-0.42666 0,-0.21333 0,-0.53333 0,-0.85333 0,-0.32 0,-0.64 0,-0.85333 -0.10667,-0.21333 -0.10667,-0.31999 -0.21333,-0.53333 -0.10667,-0.10666 -0.21333,-0.21333 -0.32,-0.21333 -0.10667,-0.10666 -0.21333,-0.10666 -0.42666,-0.10666 H 38.6175 v 7.89327 h -1.27999 v -8.63994 h 3.19997 c 0.64,0 1.17333,0.21334 1.49333,0.53334 0.31999,0.31999 0.42666,0.95999 0.42666,1.81331 z"
       id="path845" /><path
       inkscape:connector-curvature="0"
       style="fill:#3b3b3b;fill-opacity:1;fill-rule:nonzero;stroke:none;stroke-width:1.33333337"
       d="m 45.55078,199.80712 v -0.74666 h 0.64 c 0.21333,0 0.42666,0 0.53332,0 0.21334,0 0.32,-0.10666 0.32,-0.10666 0.10667,-0.10667 0.10667,-0.21334 0.21333,-0.32 0,-0.10667 0,-0.21333 0,-0.42667 v -0.63999 c 0,-0.21333 0,-0.32 0,-0.53333 -0.10666,-0.10667 -0.10666,-0.21333 -0.21333,-0.21333 0,-0.10667 -0.10666,-0.21333 -0.32,-0.21333 -0.10666,0 -0.31999,0 -0.53332,0 h -0.42667 c -0.32,0 -0.42666,0 -0.53333,0 -0.21333,0.10666 -0.32,0.10666 -0.32,0.21333 -0.10666,0.10666 -0.21333,0.21333 -0.21333,0.42666 0,0.10667 0,0.42666 0,0.64 v 2.77331 c 0,0.21333 0,0.42666 0,0.63999 0,0.21334 0.10667,0.32 0.21333,0.42667 0,0.10666 0.10667,0.10666 0.32,0.21333 0.10667,0 0.21333,0 0.53333,0 h 2.23999 v 0.74666 h -2.77332 c -0.32,0 -0.63999,0 -0.85332,-0.10666 -0.21334,-0.10667 -0.42667,-0.21334 -0.53333,-0.32 -0.21334,-0.21333 -0.32,-0.42667 -0.32,-0.74666 -0.10667,-0.21334 -0.10667,-0.53333 -0.10667,-0.96 v -2.55998 c 0,-0.42666 0,-0.74666 0.10667,-1.06666 0,-0.21333 0.10666,-0.42666 0.32,-0.63999 0.10666,-0.10667 0.31999,-0.21333 0.53333,-0.32 0.21333,-0.10667 0.53332,-0.10667 0.85332,-0.10667 h 1.38666 c 0.42666,0 0.74666,0 0.95999,0.10667 0.21333,0.10667 0.42667,0.10667 0.53333,0.32 0.21333,0.10666 0.32,0.32 0.32,0.42666 0.10666,0.21333 0.10666,0.53333 0.10666,0.74666 v 0.74666 c 0,0.32 0,0.53333 -0.10666,0.74667 0,0.10666 -0.10667,0.31999 -0.32,0.42666 -0.10666,0.21333 -0.32,0.32 -0.53333,0.32 -0.21333,0.10666 -0.53333,0.10666 -0.95999,0.10666 z"
       id="path847" /><path
       inkscape:connector-curvature="0"
       style="fill:#3b3b3b;fill-opacity:1;fill-rule:nonzero;stroke:none;stroke-width:1.33333337"
       d="m 52.3774,196.60715 h -1.70666 v 4.3733 c 0,0.31999 0,0.63999 0.10667,0.74666 0.10666,0.10666 0.32,0.21333 0.63999,0.21333 h 0.53333 v 0.74666 h -0.95999 c -0.32,0 -0.53333,0 -0.74666,-0.10666 -0.21333,-0.10667 -0.42666,-0.21334 -0.53333,-0.32 -0.10667,-0.21333 -0.21333,-0.32 -0.21333,-0.53333 -0.10667,-0.21333 -0.10667,-0.42667 -0.10667,-0.64 v -7.03995 h 1.27999 v 1.81332 h 1.70666 z"
       id="path849" /><path
       inkscape:connector-curvature="0"
       style="fill:#3b3b3b;fill-opacity:1;fill-rule:nonzero;stroke:none;stroke-width:1.33333337"
       d="m 53.12406,196.92714 c 0.10666,-0.21333 0.21333,-0.42666 0.32,-0.63999 0.10666,-0.10667 0.31999,-0.21333 0.53333,-0.32 0.21333,-0.10667 0.53332,-0.10667 0.95999,-0.10667 h 1.27999 v 0.74667 h -0.85333 c -0.21333,0 -0.42666,0 -0.53333,0 -0.10666,0.10666 -0.21333,0.10666 -0.32,0.21333 -0.10666,0.10666 -0.10666,0.21333 -0.21333,0.42666 0,0.10667 0,0.42666 0,0.64 v 4.79996 h -1.27999 v -4.6933 c 0,-0.42666 0.10667,-0.74666 0.10667,-1.06666 z"
       id="path851" /><path
       inkscape:connector-curvature="0"
       style="fill:#3b3b3b;fill-opacity:1;fill-rule:nonzero;stroke:none;stroke-width:1.33333337"
       d="m 57.92402,200.66045 c 0,0.21333 0,0.42666 0.10667,0.63999 0,0.21334 0,0.32 0.10666,0.42667 0.10667,0.10666 0.21334,0.10666 0.32,0.21333 0.10667,0 0.32,0 0.53333,0 h 0.74666 c 0.21333,0 0.42667,0 0.53333,0 0.10667,-0.10667 0.21333,-0.10667 0.32,-0.21333 0.10666,-0.10667 0.10666,-0.21333 0.10666,-0.42667 0.10667,-0.21333 0.10667,-0.42666 0.10667,-0.63999 v -2.77331 c 0,-0.21334 0,-0.53333 -0.10667,-0.64 0,-0.21333 0,-0.32 -0.10666,-0.42666 -0.10667,-0.10667 -0.21333,-0.10667 -0.32,-0.21333 -0.10666,0 -0.32,0 -0.53333,0 h -0.74666 c -0.21333,0 -0.42666,0 -0.53333,0 -0.10666,0.10666 -0.21333,0.10666 -0.32,0.21333 -0.10666,0.10666 -0.10666,0.21333 -0.10666,0.42666 -0.10667,0.10667 -0.10667,0.42666 -0.10667,0.64 z m 2.23999,-4.79997 c 0.42666,0 0.63999,0 0.95999,0.10667 0.21333,0.10667 0.42666,0.21333 0.53333,0.32 0.10666,0.21333 0.21333,0.42666 0.32,0.63999 0,0.32 0.10666,0.64 0.10666,1.06666 v 2.55998 c 0,0.42667 -0.10666,0.74666 -0.10666,0.96 -0.10667,0.31999 -0.21334,0.53333 -0.32,0.74666 -0.10667,0.10666 -0.32,0.21333 -0.53333,0.32 -0.32,0.10666 -0.53333,0.10666 -0.95999,0.10666 h -1.59999 c -0.42667,0 -0.64,0 -0.96,-0.10666 -0.21333,-0.10667 -0.42666,-0.21334 -0.53333,-0.32 -0.10666,-0.21333 -0.21333,-0.42667 -0.31999,-0.74666 0,-0.21334 0,-0.53333 0,-0.96 v -2.55998 c 0,-0.42666 0,-0.74666 0,-1.06666 0.10666,-0.21333 0.21333,-0.42666 0.31999,-0.63999 0.10667,-0.10667 0.32,-0.21333 0.53333,-0.32 0.32,-0.10667 0.53333,-0.10667 0.96,-0.10667 z"
       id="path853" /><path
       inkscape:connector-curvature="0"
       style="fill:#3b3b3b;fill-opacity:1;fill-rule:nonzero;stroke:none;stroke-width:1.33333337"
       d="m 67.73728,200.12712 c 0,0.85333 -0.10666,1.49332 -0.42666,1.91999 -0.32,0.42666 -0.74666,0.63999 -1.49332,0.63999 h -2.77332 v -0.74666 h 2.45332 c 0.21333,0 0.32,0 0.53333,-0.10667 0.10666,0 0.21333,-0.10666 0.32,-0.21333 0.10666,-0.10666 0.10666,-0.32 0.21333,-0.53333 0,-0.21333 0,-0.42666 0,-0.85332 0,-0.21334 0,-0.53333 0,-0.74667 0,-0.10666 -0.10667,-0.31999 -0.21333,-0.42666 -0.10667,-0.10666 -0.21334,-0.10666 -0.32,-0.21333 -0.21333,0 -0.32,0 -0.64,0 h -0.85332 c -0.32,0 -0.64,-0.10667 -0.85333,-0.10667 -0.21333,-0.10666 -0.32,-0.21333 -0.53333,-0.42666 -0.10667,-0.21333 -0.21333,-0.42666 -0.21333,-0.74666 -0.10667,-0.32 -0.10667,-0.64 -0.10667,-1.06666 0,-0.85333 0.10667,-1.38666 0.42667,-1.81332 0.31999,-0.42666 0.74666,-0.64 1.49332,-0.64 h 2.34665 v 0.74667 h -2.13332 c -0.10667,0 -0.21333,0 -0.42666,0.10666 -0.10667,0 -0.21334,0.10667 -0.32,0.21333 0,0.10667 -0.10667,0.21334 -0.10667,0.42667 -0.10666,0.21333 -0.10666,0.42666 -0.10666,0.74666 0,0.32 0,0.53333 0,0.74666 0.10666,0.10667 0.10666,0.32 0.21333,0.42666 0,0.10667 0.10666,0.10667 0.32,0.21333 0.10666,0 0.21333,0 0.42666,0 h 0.95999 c 0.32,0 0.53333,0.10667 0.85333,0.10667 0.21333,0.10667 0.42666,0.21333 0.53333,0.32 0.21333,0.21333 0.32,0.42666 0.32,0.74666 0.10666,0.32 0.10666,0.74666 0.10666,1.27999 z"
       id="path855" /><path
       inkscape:connector-curvature="0"
       style="fill:#3b3b3b;fill-opacity:1;fill-rule:nonzero;stroke:none;stroke-width:1.33333337"
       d="M 71.57725,196.60715 H 69.8706 v 4.3733 c 0,0.31999 0.10667,0.63999 0.21333,0.74666 0.10667,0.10666 0.32,0.21333 0.64,0.21333 h 0.53333 v 0.74666 H 70.1906 c -0.21333,0 -0.53333,0 -0.74666,-0.10666 -0.10667,-0.10667 -0.32,-0.21334 -0.42667,-0.32 -0.10666,-0.21333 -0.21333,-0.32 -0.21333,-0.53333 -0.10666,-0.21333 -0.10666,-0.42667 -0.10666,-0.64 v -7.03995 h 1.17332 v 1.81332 h 1.70665 z"
       id="path857" /><path
       inkscape:connector-curvature="0"
       style="fill:#3b3b3b;fill-opacity:1;fill-rule:nonzero;stroke:none;stroke-width:1.33333337"
       d="m 74.77723,198.6338 v 0.63999 H 74.2439 c -0.21333,0 -0.42666,0 -0.53333,0.10667 -0.10666,0 -0.21333,0 -0.32,0.10666 0,0.10667 -0.10666,0.21334 -0.10666,0.32 0,0.10667 -0.10667,0.21333 -0.10667,0.42667 v 0.74666 c 0,0.21333 0.10667,0.31999 0.10667,0.42666 0,0.21333 0.10666,0.32 0.10666,0.32 0.10667,0.10666 0.21334,0.10666 0.32,0.21333 0.10667,0 0.32,0 0.53333,0 h 1.38666 v -4.0533 c 0,-0.21334 0,-0.53333 0,-0.64 -0.10667,-0.21333 -0.10667,-0.32 -0.21333,-0.42666 0,-0.10667 -0.10667,-0.10667 -0.32,-0.21333 -0.10667,0 -0.32,0 -0.53333,0 h -1.70665 v -0.74667 h 2.23998 c 0.32,0 0.63999,0 0.85332,0.10667 0.21334,0.10667 0.42667,0.21333 0.53334,0.32 0.21333,0.21333 0.31999,0.42666 0.31999,0.63999 0.10667,0.32 0.10667,0.64 0.10667,1.06666 v 4.6933 h -3.09331 c -0.32,0 -0.64,0 -0.85333,-0.10666 -0.32,-0.10667 -0.42666,-0.21334 -0.63999,-0.32 -0.10667,-0.10667 -0.21334,-0.32 -0.32,-0.53333 0,-0.10667 0,-0.42667 0,-0.64 v -0.85332 c 0,-0.32 0,-0.53333 0,-0.74667 0.10666,-0.21333 0.21333,-0.31999 0.32,-0.53332 0.21333,-0.10667 0.31999,-0.21334 0.63999,-0.21334 0.21333,-0.10666 0.53333,-0.10666 0.85333,-0.10666 z"
       id="path859" /><path
       inkscape:connector-curvature="0"
       style="fill:#3b3b3b;fill-opacity:1;fill-rule:nonzero;stroke:none;stroke-width:1.33333337"
       d="M 80.96385,196.60715 H 79.2572 v 4.3733 c 0,0.31999 0.10666,0.63999 0.21333,0.74666 0.10666,0.10666 0.32,0.21333 0.63999,0.21333 h 0.53333 v 0.74666 h -1.06666 c -0.31999,0 -0.53332,0 -0.74666,-0.10666 -0.21333,-0.10667 -0.31999,-0.21334 -0.42666,-0.32 -0.21333,-0.21333 -0.21333,-0.32 -0.32,-0.53333 0,-0.21333 -0.10666,-0.42667 -0.10666,-0.64 v -7.03995 h 1.27999 v 1.81332 h 1.70665 z"
       id="path861" /><path
       inkscape:connector-curvature="0"
       style="fill:#3b3b3b;fill-opacity:1;fill-rule:nonzero;stroke:none;stroke-width:1.33333337"
       d="m 82.9905,202.6871 h -1.27999 v -6.82662 h 1.27999 z m 0,-7.67994 h -1.27999 v -1.17333 h 1.27999 z"
       id="path863" /><path
       inkscape:connector-curvature="0"
       style="fill:#3b3b3b;fill-opacity:1;fill-rule:nonzero;stroke:none;stroke-width:1.33333337"
       d="m 85.44382,200.66045 c 0,0.21333 0,0.42666 0,0.63999 0,0.21334 0.10666,0.32 0.10666,0.42667 0.10667,0.10666 0.21334,0.10666 0.32,0.21333 0.21333,0 0.32,0 0.53333,0 h 0.74666 c 0.21333,0 0.42667,0 0.53333,0 0.21333,-0.10667 0.32,-0.10667 0.32,-0.21333 0.10667,-0.10667 0.10667,-0.21333 0.21333,-0.42667 0,-0.21333 0,-0.42666 0,-0.63999 v -2.77331 c 0,-0.21334 0,-0.53333 0,-0.64 -0.10666,-0.21333 -0.10666,-0.32 -0.21333,-0.42666 0,-0.10667 -0.10667,-0.10667 -0.32,-0.21333 -0.10666,0 -0.32,0 -0.53333,0 h -0.74666 c -0.21333,0 -0.32,0 -0.53333,0 -0.10666,0.10666 -0.21333,0.10666 -0.32,0.21333 0,0.10666 -0.10666,0.21333 -0.10666,0.42666 0,0.10667 0,0.42666 0,0.64 z m 2.23998,-4.79997 c 0.32,0 0.64,0 0.85333,0.10667 0.21333,0.10667 0.42666,0.21333 0.53333,0.32 0.21333,0.21333 0.32,0.42666 0.32,0.63999 0.10666,0.32 0.10666,0.64 0.10666,1.06666 v 2.55998 c 0,0.42667 0,0.74666 -0.10666,0.96 0,0.31999 -0.10667,0.53333 -0.32,0.74666 -0.10667,0.10666 -0.32,0.21333 -0.53333,0.32 -0.21333,0.10666 -0.53333,0.10666 -0.85333,0.10666 h -1.70665 c -0.32,0 -0.64,0 -0.85333,-0.10666 -0.32,-0.10667 -0.42666,-0.21334 -0.63999,-0.32 -0.10667,-0.21333 -0.21334,-0.42667 -0.21334,-0.74666 -0.10666,-0.21334 -0.10666,-0.53333 -0.10666,-0.96 v -2.55998 c 0,-0.42666 0,-0.74666 0.10666,-1.06666 0,-0.21333 0.10667,-0.42666 0.21334,-0.63999 0.21333,-0.10667 0.31999,-0.21333 0.63999,-0.32 0.21333,-0.10667 0.53333,-0.10667 0.85333,-0.10667 z"
       id="path865" /><path
       inkscape:connector-curvature="0"
       style="fill:#3b3b3b;fill-opacity:1;fill-rule:nonzero;stroke:none;stroke-width:1.33333337"
       d="m 91.84377,196.60715 v 6.07995 h -1.27999 v -6.82662 h 3.41331 c 0.32,0 0.63999,0 0.85333,0.10667 0.31999,0.10667 0.42666,0.21333 0.63999,0.32 0.10667,0.21333 0.21333,0.42666 0.21333,0.63999 0.10667,0.32 0.10667,0.64 0.10667,1.06666 v 4.6933 h -1.27999 v -4.79996 c 0,-0.21334 0,-0.53333 0,-0.64 0,-0.21333 -0.10667,-0.32 -0.10667,-0.42666 -0.10666,-0.10667 -0.21333,-0.10667 -0.31999,-0.21333 -0.21334,0 -0.32,0 -0.53333,0 z"
       id="path867" /><path
       inkscape:connector-curvature="0"
       style="fill:#737577;fill-opacity:1;fill-rule:nonzero;stroke:none;stroke-width:1.33333337"
       d="m 77.65721,160.87408 2.45331,14.82655 5.86663,2.23999 -8.31994,-17.27987 z"
       id="path869" /></g><g
     id="g921"
     transform="translate(-0.00263187,-0.02031906)"><path
       inkscape:connector-curvature="0"
       style="fill:#737577;fill-opacity:1;fill-rule:evenodd;stroke:none;stroke-width:1.33333337"
       d="M 273.7091,143.16754 245.97597,170.794 c -0.53334,0.42667 -0.53334,1.27999 0,1.81332 v 0 l 27.73313,27.5198 c 0.53332,0.53333 1.38665,0.53333 1.91999,0 v 0 l 27.73312,-27.5198 c 0.53333,-0.53333 0.53333,-1.38665 0,-1.81332 v 0 l -27.73312,-27.62646 c -0.32,-0.21333 -0.64,-0.32 -0.96,-0.32 v 0 c -0.32,0 -0.63999,0.10667 -0.95999,0.32 z"
       id="path871" /><path
       inkscape:connector-curvature="0"
       style="fill:#aaacae;fill-opacity:1;fill-rule:evenodd;stroke:none;stroke-width:1.33333337"
       d="m 274.77575,171.64733 9.27994,9.17327 9.3866,-9.17327 z"
       id="path873" /><path
       inkscape:connector-curvature="0"
       style="fill:#aaacae;fill-opacity:1;fill-rule:evenodd;stroke:none;stroke-width:1.33333337"
       d="m 255.8959,171.754 h 18.66652 l -9.27993,-9.27993 z"
       id="path875" /><path
       inkscape:connector-curvature="0"
       style="fill:#404040;fill-opacity:1;fill-rule:nonzero;stroke:none;stroke-width:1.33333337"
       d="m 245.33597,139.43424 h 0.64 c 0.21333,0 0.42666,-0.21334 0.42666,-0.42667 v -4.26663 c 0,-0.21334 -0.21333,-0.32 -0.42666,-0.32 h -0.64 v -0.95999 h 4.0533 v 0.95999 h -0.63998 c -0.32,0 -0.42667,0.10666 -0.42667,0.32 v 4.6933 h 1.06665 c 0.64,0 0.96,-0.21334 1.17334,-0.53333 0.21332,-0.32 0.31998,-0.74667 0.31998,-1.38666 h 0.96 v 2.77331 h -6.50662 z"
       id="path877" /><path
       inkscape:connector-curvature="0"
       style="fill:#404040;fill-opacity:1;fill-rule:nonzero;stroke:none;stroke-width:1.33333337"
       d="m 252.37593,139.43424 h 0.63998 c 0.32,0 0.42667,-0.21334 0.42667,-0.42667 v -4.26663 c 0,-0.21334 -0.10667,-0.32 -0.42667,-0.32 h -0.63998 v -0.95999 h 4.05329 v 0.95999 h -0.63999 c -0.10666,0 -0.32,0 -0.32,0.10666 -0.10666,0 -0.10666,0.10667 -0.10666,0.21334 v 4.26663 c 0,0.21333 0.10666,0.42667 0.42666,0.42667 h 0.63999 v 0.85332 h -4.05329 z"
       id="path879" /><path
       inkscape:connector-curvature="0"
       style="fill:#404040;fill-opacity:1;fill-rule:nonzero;stroke:none;stroke-width:1.33333337"
       d="m 259.73586,139.43424 h 0.64 c 0.96,0 1.38665,-0.42667 1.38665,-1.17333 0,-0.63999 -0.42665,-1.06666 -1.38665,-1.06666 h -0.64 z m 0,-5.0133 v 1.91998 h 0.53333 c 0.85334,0 1.27999,-0.31999 1.27999,-0.95999 0,-0.63999 -0.42665,-0.95999 -1.27999,-0.95999 z m -2.87997,5.86662 v -0.85332 h 0.53333 c 0.32,0 0.42667,-0.21334 0.42667,-0.42667 v -4.26663 c 0,-0.21334 -0.10667,-0.32 -0.42667,-0.32 h -0.53333 v -0.95999 h 4.3733 c 0.74666,0 1.27999,0.21333 1.70666,0.42666 0.31998,0.32 0.53332,0.74666 0.53332,1.17332 0,0.42667 -0.10667,0.85333 -0.42666,1.06666 -0.32,0.32 -0.64,0.53333 -1.06666,0.53333 0.64,0.21333 1.17333,0.42667 1.38665,0.74666 0.32,0.21334 0.42667,0.64 0.42667,1.06666 0,0.64 -0.21334,1.06666 -0.63999,1.38666 -0.32,0.32 -1.17333,0.42666 -2.23999,0.42666 z"
       id="path881" /><path
       inkscape:connector-curvature="0"
       style="fill:#404040;fill-opacity:1;fill-rule:nonzero;stroke:none;stroke-width:1.33333337"
       d="m 267.30914,136.34092 h 1.06667 c 0.42665,0 0.63998,-0.10666 0.85332,-0.21333 0.10666,-0.21333 0.21333,-0.42666 0.21333,-0.74666 0,-0.42666 -0.10667,-0.63999 -0.32,-0.74666 -0.21333,-0.21333 -0.53332,-0.21333 -1.06665,-0.21333 h -0.74667 z m -2.98664,3.09332 h 0.53333 c 0.31999,0 0.53332,-0.21334 0.53332,-0.53333 v -4.15997 c 0,-0.21334 -0.21333,-0.32 -0.53332,-0.32 h -0.53333 v -0.95999 h 4.79996 c 0.74667,0 1.28,0.21333 1.70665,0.42666 0.32,0.32 0.53334,0.74666 0.53334,1.27999 0,0.85333 -0.53334,1.38666 -1.59999,1.49332 0.53333,0.10667 0.85332,0.32 0.95999,0.42667 0.21333,0.21333 0.32,0.53333 0.32,0.95999 v 0.95999 0 c 0,0.21333 0.10666,0.32 0.32,0.32 0.21333,0 0.42666,-0.21333 0.42666,-0.53333 v -0.42666 h 0.63999 v 0.31999 c 0,1.17333 -0.53332,1.70666 -1.70665,1.70666 -1.06666,0 -1.59999,-0.53333 -1.59999,-1.59999 v -0.85333 c 0,-0.31999 -0.10667,-0.53333 -0.21333,-0.63999 -0.10667,0 -0.42666,-0.10667 -0.85332,-0.10667 h -0.74667 v 1.70666 c 0,0.21333 0,0.31999 0.10667,0.42666 0,0 0.21333,0.10667 0.32,0.10667 h 0.64 v 0.85332 h -4.05331 z"
       id="path883" /><path
       inkscape:connector-curvature="0"
       style="fill:#404040;fill-opacity:1;fill-rule:nonzero;stroke:none;stroke-width:1.33333337"
       d="m 272.96243,139.43424 h 0.53334 c 0.32,0 0.42666,-0.21334 0.42666,-0.42667 v -4.26663 c 0,-0.21334 -0.10666,-0.32 -0.42666,-0.32 h -0.53334 v -0.95999 h 6.82662 v 2.66664 h -0.95999 c 0,-0.74666 -0.21333,-1.17332 -0.53333,-1.38665 -0.21334,-0.21334 -0.64,-0.32 -1.27999,-0.32 h -1.17333 v 1.91998 h 0.32 c 0.32,0 0.53333,0 0.74666,-0.21333 0.10667,-0.10666 0.10667,-0.31999 0.10667,-0.63999 v -0.21333 h 0.85332 v 3.09331 h -0.85332 v -0.21334 c 0,-0.31999 0,-0.53332 -0.10667,-0.63999 -0.10666,-0.10667 -0.21333,-0.21333 -0.42666,-0.21333 h -0.64 v 2.13332 h 1.28 c 0.63998,0 1.06665,-0.21334 1.27998,-0.42667 0.32,-0.32 0.42667,-0.74666 0.42667,-1.49332 h 0.95999 v 2.77331 h -6.82662 z"
       id="path885" /><path
       inkscape:connector-curvature="0"
       style="fill:#404040;fill-opacity:1;fill-rule:nonzero;stroke:none;stroke-width:1.33333337"
       d="m 280.53571,136.12759 v -2.66664 h 6.71995 v 2.66664 h -0.95999 c 0,-0.63999 -0.10666,-1.06666 -0.32,-1.38665 -0.21333,-0.21334 -0.53333,-0.32 -1.06666,-0.32 v 4.58663 c 0,0.21333 0.10666,0.42667 0.42666,0.42667 h 0.53334 v 0.85332 h -3.94664 v -0.85332 h 0.64 c 0.21333,0 0.42666,-0.21334 0.42666,-0.42667 v -4.58663 c -0.64,0 -0.96,0.10666 -1.17333,0.42666 -0.21333,0.32 -0.32,0.74666 -0.32,1.27999 z"
       id="path887" /><path
       inkscape:connector-curvature="0"
       style="fill:#404040;fill-opacity:1;fill-rule:nonzero;stroke:none;stroke-width:1.33333337"
       d="m 290.77563,136.34092 h 1.06667 c 0.42665,0 0.74665,-0.10666 0.85332,-0.21333 0.21333,-0.21333 0.32,-0.42666 0.32,-0.74666 0,-0.42666 -0.10667,-0.63999 -0.32,-0.74666 -0.21333,-0.21333 -0.64,-0.21333 -1.17332,-0.21333 h -0.74667 z m -2.98664,3.09332 h 0.64 c 0.31999,0 0.42666,-0.21334 0.42666,-0.53333 v -4.15997 c 0,-0.21334 -0.10667,-0.32 -0.42666,-0.32 h -0.64 v -0.95999 h 4.90663 c 0.64,0 1.17332,0.21333 1.59999,0.42666 0.42667,0.32 0.64,0.74666 0.64,1.27999 0,0.85333 -0.53333,1.38666 -1.59999,1.49332 0.42667,0.10667 0.74666,0.32 0.95999,0.42667 0.21333,0.21333 0.21333,0.53333 0.21333,0.95999 v 0.95999 0 c 0,0.21333 0.10667,0.32 0.42667,0.32 0.21333,0 0.32,-0.21333 0.32,-0.53333 v -0.42666 h 0.63999 v 0.31999 c 0,1.17333 -0.53332,1.70666 -1.59999,1.70666 -1.17332,0 -1.70666,-0.53333 -1.70666,-1.59999 v -0.85333 c 0,-0.31999 0,-0.53333 -0.21333,-0.63999 -0.10667,0 -0.42665,-0.10667 -0.85332,-0.10667 h -0.74667 v 1.70666 c 0,0.21333 0.10667,0.31999 0.10667,0.42666 0.10667,0 0.21333,0.10667 0.42667,0.10667 h 0.53333 v 0.85332 h -4.05331 z"
       id="path889" /><path
       inkscape:connector-curvature="0"
       style="fill:#404040;fill-opacity:1;fill-rule:nonzero;stroke:none;stroke-width:1.33333337"
       d="m 298.77558,136.87425 c 0,1.70666 0.53332,2.55999 1.49332,2.55999 0.95999,0 1.49332,-0.85333 1.49332,-2.55999 0,-1.70665 -0.53333,-2.55998 -1.49332,-2.55998 -0.96,0 -1.49332,0.85333 -1.49332,2.55998 z m -2.23998,0 c 0,-1.06665 0.32,-1.91998 0.95998,-2.55998 0.64,-0.63999 1.6,-0.95999 2.77332,-0.95999 1.17332,0 2.13332,0.32 2.77331,0.95999 0.64,0.64 0.96,1.49333 0.96,2.55998 0,1.06666 -0.32,1.91999 -0.96,2.55999 -0.74665,0.63999 -1.59999,0.95999 -2.77331,0.95999 -1.17332,0 -2.02665,-0.32 -2.77332,-0.95999 -0.63998,-0.64 -0.95998,-1.49333 -0.95998,-2.55999 z"
       id="path891" /><path
       inkscape:connector-curvature="0"
       style="fill:#3b3b3b;fill-opacity:1;fill-rule:nonzero;stroke:none;stroke-width:1.33333337"
       d="m 252.05593,209.08705 c -0.10667,1.28 -1.38667,1.81333 -2.87999,1.81333 -2.13332,0 -3.09331,-1.49333 -3.09331,-3.19998 0,-1.38666 0.85334,-3.09331 3.30664,-3.09331 1.49332,0 2.55999,0.74666 2.66666,1.70665 h -0.96 c -0.21334,-0.74666 -0.95999,-1.06666 -1.70666,-1.06666 -1.38665,0 -2.4533,0.85333 -2.4533,2.45332 0,1.70665 1.06665,2.55998 2.4533,2.55998 0.74667,0 1.59999,-0.42666 1.70666,-1.17333 z"
       id="path893" /><path
       inkscape:connector-curvature="0"
       style="fill:#3b3b3b;fill-opacity:1;fill-rule:nonzero;stroke:none;stroke-width:1.33333337"
       d="m 256.64255,210.26038 c 1.49332,0 2.45332,-1.06666 2.45332,-2.55998 0,-1.38666 -0.96,-2.45332 -2.45332,-2.45332 -1.38665,0 -2.4533,1.06666 -2.4533,2.45332 0,1.49332 1.06665,2.55998 2.4533,2.55998 z m 0,-5.65329 c 2.55999,0 3.41331,1.70665 3.41331,3.09331 0,1.49332 -0.85332,3.19998 -3.41331,3.19998 -2.4533,0 -3.30664,-1.70666 -3.30664,-3.19998 0,-1.38666 0.85334,-3.09331 3.30664,-3.09331 z"
       id="path895" /><path
       inkscape:connector-curvature="0"
       style="fill:#3b3b3b;fill-opacity:1;fill-rule:nonzero;stroke:none;stroke-width:1.33333337"
       d="m 262.50918,205.35375 h -0.10667 v 5.33329 h -0.85333 v -5.86662 h 1.38667 l 2.66664,5.22663 2.66665,-5.22663 h 1.38665 v 5.86662 h -0.85333 v -5.33329 0 l -2.77331,5.33329 h -0.85333 z"
       id="path897" /><path
       inkscape:connector-curvature="0"
       style="fill:#3b3b3b;fill-opacity:1;fill-rule:nonzero;stroke:none;stroke-width:1.33333337"
       d="m 274.34909,207.48707 c 1.06666,0 1.49332,-0.42667 1.49332,-1.06666 0,-0.64 -0.31999,-0.96 -1.49332,-0.96 h -1.91999 v 2.02666 z m -2.77331,-2.66665 h 2.77331 c 1.81332,0 2.45332,0.53333 2.45332,1.59999 0,0.95999 -0.74667,1.70665 -2.23999,1.70665 h -2.13332 v 2.55998 h -0.85332 z"
       id="path899" /><path
       inkscape:connector-curvature="0"
       style="fill:#3b3b3b;fill-opacity:1;fill-rule:nonzero;stroke:none;stroke-width:1.33333337"
       d="m 282.98903,204.82042 h 0.85332 v 3.51997 c 0,1.70666 -1.17332,2.55999 -2.7733,2.55999 -1.6,0 -2.77332,-0.85333 -2.77332,-2.55999 v -3.51997 h 0.85333 v 3.51997 c 0,1.17333 0.63999,1.91999 1.91999,1.91999 1.27998,0 1.91998,-0.74666 1.91998,-1.91999 z"
       id="path901" /><path
       inkscape:connector-curvature="0"
       style="fill:#3b3b3b;fill-opacity:1;fill-rule:nonzero;stroke:none;stroke-width:1.33333337"
       d="m 287.46899,205.46041 h -2.55998 v -0.63999 h 5.97329 v 0.63999 h -2.55997 v 5.22663 h -0.85334 z"
       id="path903" /><path
       inkscape:connector-curvature="0"
       style="fill:#3b3b3b;fill-opacity:1;fill-rule:nonzero;stroke:none;stroke-width:1.33333337"
       d="m 291.8423,204.82042 h 4.47996 v 0.63999 h -3.62664 v 1.91999 h 3.41331 v 0.64 h -3.41331 v 2.02665 h 3.73331 v 0.63999 h -4.58663 z"
       id="path905" /><path
       inkscape:connector-curvature="0"
       style="fill:#3b3b3b;fill-opacity:1;fill-rule:nonzero;stroke:none;stroke-width:1.33333337"
       d="m 298.77558,207.3804 h 2.02666 c 0.85332,0 1.38665,-0.21333 1.38665,-0.95999 0,-0.74666 -0.32,-0.96 -1.38665,-0.96 h -2.02666 z m 0,3.30664 h -0.85333 v -5.86662 h 2.98665 c 1.81332,0 2.23998,0.53333 2.23998,1.49332 0,0.74666 -0.53332,1.27999 -1.38666,1.38666 v 0 c 0.85334,0.10666 1.06667,0.42666 1.17332,1.49332 0.10667,0.64 0.21334,1.17333 0.32,1.49332 h -0.85332 c -0.21333,-0.31999 -0.21333,-1.17332 -0.42666,-1.91998 -0.10667,-0.42667 -0.42667,-0.64 -1.49332,-0.64 h -1.70666 z"
       id="path907" /><path
       inkscape:connector-curvature="0"
       style="fill:#3b3b3b;fill-opacity:1;fill-rule:nonzero;stroke:none;stroke-width:1.33333337"
       d="m 245.76263,212.60703 h 4.47998 v 0.64 h -3.51998 v 1.91998 h 3.30664 v 0.64 h -3.30664 v 2.02665 h 3.62664 v 0.74666 h -4.58664 z"
       id="path909" /><path
       inkscape:connector-curvature="0"
       style="fill:#3b3b3b;fill-opacity:1;fill-rule:nonzero;stroke:none;stroke-width:1.33333337"
       d="m 252.80258,213.24703 v 0 5.33329 h -0.85332 v -5.97329 h 1.38665 l 2.55999,5.22663 2.66664,-5.22663 h 1.38665 v 5.97329 h -0.85332 v -5.33329 0 l -2.66665,5.33329 h -0.95999 z"
       id="path911" /><path
       inkscape:connector-curvature="0"
       style="fill:#3b3b3b;fill-opacity:1;fill-rule:nonzero;stroke:none;stroke-width:1.33333337"
       d="m 266.45582,212.60703 h 0.85332 v 3.51997 c 0,1.70666 -1.17332,2.55999 -2.77331,2.55999 -1.59998,0 -2.77332,-0.85333 -2.77332,-2.55999 v -3.51997 h 0.85334 v 3.62664 c 0,1.06666 0.63998,1.81332 1.91998,1.81332 1.17332,0 1.91999,-0.74666 1.91999,-1.81332 z"
       id="path913" /><path
       inkscape:connector-curvature="0"
       style="fill:#3b3b3b;fill-opacity:1;fill-rule:nonzero;stroke:none;stroke-width:1.33333337"
       d="m 269.22913,212.60703 h 0.85333 v 5.22663 h 3.41331 v 0.74666 h -4.26664 z"
       id="path915" /><path
       inkscape:connector-curvature="0"
       style="fill:#3b3b3b;fill-opacity:1;fill-rule:nonzero;stroke:none;stroke-width:1.33333337"
       d="m 278.82906,216.34034 -1.38665,-2.98665 -1.6,2.98665 z m 0.42667,0.63999 h -3.73331 l -0.74667,1.59999 h -0.95998 l 3.0933,-5.97329 h 0.95999 l 3.09332,5.97329 h -0.96 z"
       id="path917" /><path
       inkscape:connector-curvature="0"
       style="fill:#3b3b3b;fill-opacity:1;fill-rule:nonzero;stroke:none;stroke-width:1.33333337"
       d="m 283.09569,213.35369 h -2.55998 v -0.74666 h 5.9733 v 0.74666 h -2.55999 v 5.22663 h -0.85333 z"
       id="path919" /><path
       inkscape:connector-curvature="0"
       style="fill:#3b3b3b;fill-opacity:1;fill-rule:nonzero;stroke:none;stroke-width:1.33333337"
       d="m 287.36233,212.60703 h 0.85333 v 5.97329 h -0.85333 z"
       id="path921" /><path
       inkscape:connector-curvature="0"
       style="fill:#3b3b3b;fill-opacity:1;fill-rule:nonzero;stroke:none;stroke-width:1.33333337"
       d="m 293.01562,218.04699 c 1.49332,0 2.45332,-1.06666 2.45332,-2.45331 0,-1.49333 -0.96,-2.45332 -2.45332,-2.45332 -1.49332,0 -2.45332,0.95999 -2.45332,2.45332 0,1.38665 0.96,2.45331 2.45332,2.45331 z m 0,-5.54663 c 2.45332,0 3.30664,1.70666 3.30664,3.09332 0,1.38665 -0.85332,3.09331 -3.30664,3.09331 -2.55999,0 -3.41331,-1.70666 -3.41331,-3.09331 0,-1.38666 0.85332,-3.09332 3.41331,-3.09332 z"
       id="path923" /><path
       inkscape:connector-curvature="0"
       style="fill:#3b3b3b;fill-opacity:1;fill-rule:nonzero;stroke:none;stroke-width:1.33333337"
       d="m 302.61556,212.60703 h 0.95998 v 5.97329 h -1.17332 l -3.7333,-5.11996 v 0 5.11996 h -0.85334 v -5.97329 h 1.17334 l 3.62664,5.0133 v 0 z"
       id="path925" /></g><path
     inkscape:connector-curvature="0"
     d="m 170.66667,16.000005 c -85.427998,0 -154.666667,69.24533 -154.666667,154.666665 0,85.42133 69.238669,154.66667 154.666667,154.66667 85.40134,0 154.66667,-69.24534 154.66667,-154.66667 0,-85.421335 -69.26535,-154.666665 -154.66667,-154.666665"
     style="fill:none;fill-opacity:1;fill-rule:nonzero;stroke:#000000;stroke-width:2.66666675;stroke-miterlimit:4;stroke-dasharray:none"
     id="path852"
     sodipodi:nodetypes="csssc" /></svg>