<?xml version="1.0" encoding="UTF-8" standalone="no"?>
<svg
   xmlns:dc="http://purl.org/dc/elements/1.1/"
   xmlns:cc="http://creativecommons.org/ns#"
   xmlns:rdf="http://www.w3.org/1999/02/22-rdf-syntax-ns#"
   xmlns:svg="http://www.w3.org/2000/svg"
   xmlns="http://www.w3.org/2000/svg"
   xmlns:sodipodi="http://sodipodi.sourceforge.net/DTD/sodipodi-0.dtd"
   xmlns:inkscape="http://www.inkscape.org/namespaces/inkscape"
   viewBox="0 0 341.33334 341.33334"
   height="256"
   width="256"
   xml:space="preserve"
   id="svg2"
   version="1.1"
   sodipodi:docname="Sony - PlayStation Portable.svg"
   inkscape:version="0.92.2 (5c3e80d, 2017-08-06)"
   inkscape:export-filename="C:\Users\Alfre\AppData\Roaming\RetroArch\assets\xmb\custom\png\Sony - PlayStation Portable.png"
   inkscape:export-xdpi="96"
   inkscape:export-ydpi="96"><sodipodi:namedview
     pagecolor="#ffffff"
     bordercolor="#666666"
     borderopacity="1"
     objecttolerance="10"
     gridtolerance="10"
     guidetolerance="10"
     inkscape:pageopacity="0"
     inkscape:pageshadow="2"
     inkscape:window-width="1920"
     inkscape:window-height="1001"
     id="namedview116"
     showgrid="false"
     inkscape:pagecheckerboard="true"
     inkscape:zoom="1.9555921"
     inkscape:cx="-36.530319"
     inkscape:cy="188.34498"
     inkscape:window-x="-9"
     inkscape:window-y="-9"
     inkscape:window-maximized="1"
     inkscape:current-layer="svg2" /><metadata
     id="metadata8"><rdf:RDF><cc:Work
         rdf:about=""><dc:format>image/svg+xml</dc:format><dc:type
           rdf:resource="http://purl.org/dc/dcmitype/StillImage" /><dc:title /></cc:Work></rdf:RDF></metadata><defs
     id="defs6"><clipPath
       id="clipPath18"
       clipPathUnits="userSpaceOnUse"><path
         id="path16"
         d="M 0,256 H 256 V 0 H 0 Z" /></clipPath><clipPath
       id="clipPath26"
       clipPathUnits="userSpaceOnUse"><path
         id="path24"
         d="m 5.5,188 h 245 V 71.9902 H 5.5 Z" /></clipPath></defs><g
     id="g22"
     transform="matrix(1.3333333,0,0,-1.3333333,0,341.33333)" /><path
     id="path38"
     style="fill:#e6e6e6;fill-opacity:1;fill-rule:nonzero;stroke:none;stroke-width:1.33333325"
     d="m 51.095199,101.33334 c -4.904,0 -13.761333,10.66667 -13.761333,10.66667 h 37.333332 v -10.66667 z"
     inkscape:connector-curvature="0" /><path
     id="path42"
     style="fill:#e6e6e6;fill-opacity:1;fill-rule:nonzero;stroke:none;stroke-width:1.33333325"
     d="m 290.23813,101.33334 c 4.904,0 13.76133,10.66667 13.76133,10.66667 h -37.33333 v -10.66667 z"
     inkscape:connector-curvature="0" /><path
     id="path46"
     style="fill:#404040;fill-opacity:1;fill-rule:nonzero;stroke:none;stroke-width:1.33333325"
     d="M 64.927065,233.33333 H 54.752399 c -2.234667,0 -5.768,-1.792 -7.886667,-4 -2.121333,-2.208 -2.028,-4 0.205333,-4 h 10.176 c 2.236,0 5.768,1.792 7.888,4 2.118667,2.208 2.029333,4 -0.208,4 M 69.333732,224 h -32 c 0,0 10.78,10.66666 16,10.66666 h 21.333333 c 0,0 -0.430667,-10.66666 -5.333333,-10.66666"
     inkscape:connector-curvature="0" /><path
     id="path50"
     style="fill:#262626;fill-opacity:1;fill-rule:nonzero;stroke:none;stroke-width:1.33333325"
     d="m 303.99999,112 h -21.33333 c 0,0 -7.21867,-1.88533 -16,-10.66667 H 74.666662 C 65.885329,110.11467 58.666663,112 58.666663,112 H 37.33333 c -41.9546656,61.14267 0,112 0,112 h 21.333333 c 8.130666,0 15.999999,10.68 15.999999,10.68 H 266.66666 c 0,0 7.868,-10.68 16,-10.68 h 21.33333 c 0,0 41.95467,-50.85733 0,-112"
     inkscape:connector-curvature="0" /><path
     id="path54"
     style="fill:#191919;fill-opacity:1;fill-rule:nonzero;stroke:none;stroke-width:1.33333325"
     d="m 24.979599,160 c 0,-12.69467 10.328,-23.02 23.019999,-23.02 12.694667,0 23.021333,10.32533 23.021333,23.02 0,12.69467 -10.326666,23.02 -23.021333,23.02 -12.691999,0 -23.019999,-10.32533 -23.019999,-23.02 m -0.98,0 c 0,13.23467 10.766666,24 23.999999,24 13.234667,0 24,-10.76533 24,-24 0,-13.23467 -10.765333,-24 -24,-24 -13.233333,0 -23.999999,10.76533 -23.999999,24"
     inkscape:connector-curvature="0" /><path
     id="path58"
     style="fill:#404040;fill-opacity:1;fill-rule:nonzero;stroke:none;stroke-width:1.33333325"
     d="m 58.666665,202.66667 c 0,5.89067 -4.776,10.66667 -10.666666,10.66667 -5.890667,0 -10.666667,-4.776 -10.666667,-10.66667 0,-5.89067 4.776,-10.66667 10.666667,-10.66667 5.890666,0 10.666666,4.776 10.666666,10.66667"
     inkscape:connector-curvature="0" /><path
     id="path62"
     style="fill:#191919;fill-opacity:1;fill-rule:nonzero;stroke:none;stroke-width:1.33333325"
     d="m 270.34919,162.66667 c 0,-11.20267 9.11467,-20.31733 20.31733,-20.31733 11.20267,0 20.31734,9.11466 20.31734,20.31733 0,11.20267 -9.11467,20.31733 -20.31734,20.31733 -11.20266,0 -20.31733,-9.11466 -20.31733,-20.31733 m -1.016,0 c 0,11.76133 9.56933,21.33333 21.33333,21.33333 11.764,0 21.33334,-9.572 21.33334,-21.33333 0,-11.76133 -9.56934,-21.33333 -21.33334,-21.33333 -11.764,0 -21.33333,9.572 -21.33333,21.33333"
     inkscape:connector-curvature="0" /><path
     id="path66"
     style="fill:#404040;fill-opacity:1;fill-rule:nonzero;stroke:none;stroke-width:1.33333325"
     d="m 298.66666,144 c 0,4.41867 -3.58133,8 -8,8 -4.41867,0 -8,-3.58133 -8,-8 0,-4.41867 3.58133,-8 8,-8 4.41867,0 8,3.58133 8,8"
     inkscape:connector-curvature="0" /><path
     id="path70"
     style="fill:#404040;fill-opacity:1;fill-rule:nonzero;stroke:none;stroke-width:1.33333325"
     d="m 298.66666,181.33333 c 0,4.41733 -3.58133,8 -8,8 -4.41867,0 -8,-3.58267 -8,-8 0,-4.41733 3.58133,-8 8,-8 4.41867,0 8,3.58267 8,8"
     inkscape:connector-curvature="0" /><path
     id="path74"
     style="fill:#404040;fill-opacity:1;fill-rule:nonzero;stroke:none;stroke-width:1.33333325"
     d="m 279.99999,162.66667 c 0,4.41733 -3.58133,8 -8,8 -4.41867,0 -8,-3.58267 -8,-8 0,-4.41867 3.58133,-8 8,-8 4.41867,0 8,3.58133 8,8"
     inkscape:connector-curvature="0" /><path
     id="path78"
     style="fill:#404040;fill-opacity:1;fill-rule:nonzero;stroke:none;stroke-width:1.33333325"
     d="m 317.33333,162.66667 c 0,4.41733 -3.58133,8 -8,8 -4.41867,0 -8,-3.58267 -8,-8 0,-4.41867 3.58133,-8 8,-8 4.41867,0 8,3.58133 8,8"
     inkscape:connector-curvature="0" /><path
     inkscape:connector-curvature="0"
     d="M 261.33333,213.33333 H 79.999998 V 112 H 261.33333 Z"
     style="fill:#191919;fill-opacity:1;fill-rule:nonzero;stroke:none;stroke-width:1.33333325"
     id="path80" /><path
     id="path84"
     style="fill:#00ff00;fill-opacity:1;fill-rule:nonzero;stroke:none;stroke-width:1.33333325"
     d="m 317.33333,193.3332 c 0,0.736 -0.596,1.33333 -1.33333,1.33333 -0.73734,0 -1.33334,-0.59733 -1.33334,-1.33333 0,-0.73733 0.596,-1.33333 1.33334,-1.33333 0.73733,0 1.33333,0.596 1.33333,1.33333"
     inkscape:connector-curvature="0" /><path
     id="path88"
     style="fill:#404040;fill-opacity:1;fill-rule:nonzero;stroke:none;stroke-width:1.33333325"
     d="m 311.99999,204 c 0,0.736 -0.596,1.33333 -1.33333,1.33333 -0.73734,0 -1.33334,-0.59733 -1.33334,-1.33333 0,-0.73733 0.596,-1.33333 1.33334,-1.33333 0.73733,0 1.33333,0.596 1.33333,1.33333"
     inkscape:connector-curvature="0" /><path
     id="path92"
     style="fill:#404040;fill-opacity:1;fill-rule:nonzero;stroke:none;stroke-width:1.33333325"
     d="m 26.666666,193.33333 c 0,0.73733 -0.597333,1.33333 -1.333333,1.33333 -0.736,0 -1.333334,-0.596 -1.333334,-1.33333 0,-0.736 0.597334,-1.33333 1.333334,-1.33333 0.736,0 1.333333,0.59733 1.333333,1.33333"
     inkscape:connector-curvature="0" /><path
     id="path96"
     style="fill:#404040;fill-opacity:1;fill-rule:nonzero;stroke:none;stroke-width:1.33333325"
     d="m 31.999999,206.66587 c 0,0.736 -0.597333,1.33467 -1.333333,1.33467 -0.736,0 -1.333334,-0.59867 -1.333334,-1.33467 0,-0.736 0.597334,-1.332 1.333334,-1.332 0.736,0 1.333333,0.596 1.333333,1.332"
     inkscape:connector-curvature="0" /><path
     id="path100"
     style="fill:#404040;fill-opacity:1;fill-rule:nonzero;stroke:none;stroke-width:1.33333325"
     d="m 258.66666,229.33333 c 4.41867,0 8,-3.58133 8,-8 h -16 c 0,4.41867 3.58133,8 8,8"
     inkscape:connector-curvature="0" /><path
     id="path104"
     style="fill:#404040;fill-opacity:1;fill-rule:nonzero;stroke:none;stroke-width:1.33333325"
     d="m 237.33333,229.33333 c 4.41867,0 8,-3.58133 8,-8 h -16 c 0,4.41867 3.58133,8 8,8"
     inkscape:connector-curvature="0" /><path
     id="path108"
     style="fill:#404040;fill-opacity:1;fill-rule:nonzero;stroke:none;stroke-width:1.33333325"
     d="m 87.999998,229.33333 c 4.418667,0 8,-3.58133 8,-8 h -16 c 0,4.41867 3.581333,8 8,8"
     inkscape:connector-curvature="0" /><path
     id="path112"
     style="fill:#404040;fill-opacity:1;fill-rule:nonzero;stroke:none;stroke-width:1.33333325"
     d="m 112,226.66667 c 0,1.472 -1.268,2.66667 -2.832,2.66667 h -5.00267 c -1.564,0 -2.832,-1.19467 -2.832,-2.66667 0,-1.47333 1.268,-2.66667 2.832,-2.66667 h 5.00267 c 1.564,0 2.832,1.19334 2.832,2.66667"
     inkscape:connector-curvature="0" /><path
     id="path116"
     style="fill:#404040;fill-opacity:1;fill-rule:nonzero;stroke:none;stroke-width:1.33333325"
     d="m 128,226.66667 c 0,1.472 -1.268,2.66667 -2.832,2.66667 h -5.00267 c -1.564,0 -2.832,-1.19467 -2.832,-2.66667 0,-1.47333 1.268,-2.66667 2.832,-2.66667 h 5.00267 c 1.564,0 2.832,1.19334 2.832,2.66667"
     inkscape:connector-curvature="0" /><path
     id="path120"
     style="fill:#404040;fill-opacity:1;fill-rule:nonzero;stroke:none;stroke-width:1.33333325"
     d="m 207.99999,226.66853 c 0,1.472 -1.26667,2.66533 -2.83067,2.66533 h -5.00533 c -1.56,0 -2.83067,-1.19333 -2.83067,-2.66533 0,-1.47333 1.27067,-2.668 2.83067,-2.668 h 5.00533 c 1.564,0 2.83067,1.19467 2.83067,2.668"
     inkscape:connector-curvature="0" /><path
     id="path124"
     style="fill:#404040;fill-opacity:1;fill-rule:nonzero;stroke:none;stroke-width:1.33333325"
     d="m 223.99999,226.66853 c 0,1.472 -1.26667,2.66533 -2.83067,2.66533 h -5.00533 c -1.56,0 -2.83067,-1.19333 -2.83067,-2.66533 0,-1.47333 1.27067,-2.668 2.83067,-2.668 h 5.00533 c 1.564,0 2.83067,1.19467 2.83067,2.668"
     inkscape:connector-curvature="0" /><path
     id="path128"
     style="fill:#404040;fill-opacity:1;fill-rule:nonzero;stroke:none;stroke-width:1.33333325"
     d="m 69.333332,160.70707 c 0,-3.276 -0.916,-5.97867 -2.112,-6.50667 v -0.10933 h -8.025333 l -3.942667,4.084 c 0,0 -2.745333,2.46133 0,5.20933 l 3.942667,4.08134 h 8.025333 v -0.252 c 1.196,-0.52667 2.112,-3.22934 2.112,-6.50667"
     inkscape:connector-curvature="0" /><path
     id="path132"
     style="fill:#404040;fill-opacity:1;fill-rule:nonzero;stroke:none;stroke-width:1.33333325"
     d="m 26.666666,160.70707 c 0,-3.276 0.914667,-5.97867 2.112,-6.50667 v -0.10933 h 8.025333 l 3.941333,4.084 c 0,0 2.745334,2.46133 0,5.20933 l -3.941333,4.08134 h -8.025333 v -0.252 c -1.197333,-0.52667 -2.112,-3.22934 -2.112,-6.50667"
     inkscape:connector-curvature="0" /><path
     id="path136"
     style="fill:#404040;fill-opacity:1;fill-rule:nonzero;stroke:none;stroke-width:1.33333325"
     d="m 48.069332,181.33333 c 3.277333,0 5.98,-0.916 6.506667,-2.112 h 0.112 v -8.02667 l -4.084,-3.94133 c 0,0 -2.464,-2.74533 -5.209334,0 l -4.083999,3.94133 v 8.02667 h 0.251999 c 0.526667,1.196 3.228,2.112 6.506667,2.112"
     inkscape:connector-curvature="0" /><path
     id="path140"
     style="fill:#404040;fill-opacity:1;fill-rule:nonzero;stroke:none;stroke-width:1.33333325"
     d="m 48.069332,138.66667 c 3.277333,0 5.98,0.916 6.506667,2.112 h 0.112 v 8.02667 l -4.084,3.94133 c 0,0 -2.464,2.74533 -5.209334,0 l -4.083999,-3.94133 v -8.02667 h 0.251999 c 0.526667,-1.196 3.228,-2.112 6.506667,-2.112"
     inkscape:connector-curvature="0" /><path
     inkscape:connector-curvature="0"
     d="m 268.33599,166.33067 h 7.328 v -7.32934 h -7.328 z m 8.104,0.776 h -8.88 v -8.88 h 8.88 z"
     style="fill:#ffffff;fill-opacity:1;fill-rule:nonzero;stroke:none;stroke-width:1.33333325"
     id="path142" /><path
     id="path146"
     style="fill:#ffffff;fill-opacity:1;fill-rule:nonzero;stroke:none;stroke-width:1.33333325"
     d="m 309.33333,157.9748 c -2.592,0 -4.70267,2.10933 -4.70267,4.70267 0,2.592 2.11067,4.70133 4.70267,4.70133 2.592,0 4.70267,-2.10933 4.70267,-4.70133 0,-2.59334 -2.11067,-4.70267 -4.70267,-4.70267 m 0,10.18 c -3.02,0 -5.47867,-2.45733 -5.47867,-5.47733 0,-3.02134 2.45867,-5.47867 5.47867,-5.47867 3.02,0 5.47867,2.45733 5.47867,5.47867 0,3.02 -2.45867,5.47733 -5.47867,5.47733"
     inkscape:connector-curvature="0" /><path
     id="path150"
     style="fill:#ffffff;fill-opacity:1;fill-rule:nonzero;stroke:none;stroke-width:1.33333325"
     d="m 290.55893,138.28974 -5.324,9.13867 h 10.864 z m 0.0133,1.51867 4.148,6.844 h -8.13466 z"
     inkscape:connector-curvature="0" /><path
     id="path154"
     style="fill:#ffffff;fill-opacity:1;fill-rule:nonzero;stroke:none;stroke-width:1.33333325"
     d="m 295.20879,177.33973 -0.548,-0.548 -3.99467,3.99333 -3.99333,-3.99333 -0.548,0.548 3.99333,3.99333 -3.99333,3.99334 0.548,0.54933 3.99333,-3.99333 3.99467,3.99333 0.548,-0.54933 -3.99333,-3.99334 z"
     inkscape:connector-curvature="0" /><path
     id="path158"
     style="fill:#ffffff;fill-opacity:1;fill-rule:nonzero;stroke:none;stroke-width:1.33333325"
     d="m 169.96173,218.66667 v 7.11067 h -5.792 l -1.944,-2.66667 h 2.408 v -4.444 H 152.0004 v 0.88933 h 11.79066 v 2.66667 H 152.0004 v 4.444 h 0.84133 v -3.556 h 8.47467 l 2.592,3.556 h 6.896 V 219.556 h 17.68666 v 2.66667 h -11.792 v 4.444 h 0.84267 v -3.556 h 11.792 v -4.444 z"
     inkscape:connector-curvature="0" /><path
     id="path162"
     style="fill:#ffffff;fill-opacity:1;fill-rule:nonzero;stroke:none;stroke-width:1.33333325"
     d="m 47.389332,120.33214 c -0.12,-0.36 -0.321333,-0.68667 -0.601333,-0.98 -0.153334,-0.16 -0.317334,-0.29733 -0.493334,-0.41333 -0.174666,-0.11467 -0.352,-0.21334 -0.528,-0.29867 -0.09867,-0.0507 -3.113333,-1.30667 -3.113333,-1.30667 v 7.07334 l -1.301333,0.872 c -0.213334,0.14133 -0.458667,0.24266 -0.733333,0.30533 -0.277334,0.0627 -0.549334,0.0427 -0.821334,-0.06 -0.353333,-0.13333 -0.5,-0.28667 -0.437333,-0.45867 0.06133,-0.172 0.226667,-0.35066 0.496,-0.536 l 2.3,-1.52533 c 0.337333,-0.22533 0.282666,-0.76933 -0.092,-0.912 l -0.09067,-0.0333 c -0.134667,-0.0507 -0.284,-0.0333 -0.405333,0.048 l -3.125333,2.08266 c -0.645334,0.428 -1.010667,0.82267 -1.097334,1.18534 -0.08533,0.36133 0.269334,0.69866 1.064,1.01066 0.761334,0.29334 1.469334,0.37467 2.125334,0.24534 0.655999,-0.12934 1.291999,-0.40267 1.907999,-0.81867 l 1.328,-0.872 0.01467,0.007 v -0.016 l 0.166667,-0.10934 c 0.236,-0.15066 0.474666,-0.268 0.714666,-0.35333 0.07067,-0.024 0.146667,-0.04 0.225334,-0.0493 l -0.165334,-1.02534 c -0.210666,0.04 -0.410666,0.0907 -0.592,0.16534 -0.121333,0.0493 -0.237333,0.10266 -0.349333,0.15733 v -4.84667 l 1.337333,0.56134 v 0.008 c 0.293334,0.124 0.556,0.28666 0.788,0.48933 0.232,0.20267 0.344,0.49867 0.333334,0.88667 0,0.352 -0.105334,0.544 -0.313334,0.576 -0.208,0.0307 -0.454666,-0.016 -0.738666,-0.13867 l -0.254667,-0.11067 v 1.028 l -0.0013,-0.001 0.0013,0.052 0.174667,1.11867 c -0.0013,0 -0.0027,0 -0.004,0 l 0.08667,0.536 0.249334,1.59733 -2.342667,1.55333 c -0.337333,0.22534 -0.282667,0.77067 0.092,0.912 l 0.09067,0.0333 c 0.134666,0.052 0.284,0.0347 0.405333,-0.0467 l 2.946667,-1.95467 -0.004,-0.009 0.012,0.004 -1.678667,-3.732 0.218667,0.0987 c 0.06133,0.028 0.124,0.0547 0.185333,0.0827 0.06267,0.0267 0.124,0.0547 0.186667,0.0827 0.238666,0.0933 0.474666,0.168 0.708,0.22267 0.233333,0.0547 0.450666,0.0493 0.650666,-0.016 0.238667,-0.084 0.410667,-0.24534 0.514667,-0.488 0.104,-0.24134 0.153333,-0.51867 0.148,-0.83067 -0.0053,-0.34 -0.068,-0.692 -0.188,-1.052"
     inkscape:connector-curvature="0" /><path
     id="path166"
     style="fill:#ffffff;fill-opacity:1;fill-rule:nonzero;stroke:none;stroke-width:1.33333325"
     d="m 46.928265,123.62174 c -0.064,-0.024 -0.128,-0.0467 -0.192,-0.068 -0.064,-0.0213 -0.132,-0.0427 -0.201333,-0.0627 -0.196,-0.0587 -0.412,-0.0973 -0.636,-0.128 l 1.065333,2.384 c 0.590667,-0.40533 0.937333,-0.78 1.022667,-1.12133 0.08933,-0.35733 -0.264,-0.692 -1.058667,-1.004"
     inkscape:connector-curvature="0" /><path
     id="path170"
     style="fill:#ffffff;fill-opacity:1;fill-rule:nonzero;stroke:none;stroke-width:1.33333325"
     d="m 266.53839,121.86307 h 0.40133 c 0.18934,0 0.28534,-0.1 0.28534,-0.3 v -3.14933 c 0,-0.2 -0.0893,-0.3 -0.268,-0.3 h -0.41867 v -0.676 h 2.66133 v 0.676 h -0.40933 c -0.184,0 -0.27733,0.1 -0.27733,0.3 v 3.44933 h 0.72933 c 0.38133,0 0.64533,-0.12133 0.79067,-0.364 0.12666,-0.212 0.19066,-0.56533 0.19066,-1.06133 h 0.64534 v 2.1 h -4.33067 z"
     inkscape:connector-curvature="0" /><path
     id="path174"
     style="fill:#ffffff;fill-opacity:1;fill-rule:nonzero;stroke:none;stroke-width:1.33333325"
     d="m 271.23093,121.86307 h 0.40133 c 0.18934,0 0.28534,-0.1 0.28534,-0.3 v -3.20933 c 0,-0.16 -0.0893,-0.24 -0.268,-0.24 h -0.41867 v -0.676 h 2.66133 v 0.676 h -0.40933 c -0.10933,0 -0.18267,0.0227 -0.22,0.0667 -0.0387,0.0427 -0.0573,0.12 -0.0573,0.23334 v 3.14933 c 0,0.2 0.0893,0.3 0.268,0.3 h 0.41866 v 0.67467 h -2.66133 z"
     inkscape:connector-curvature="0" /><path
     id="path178"
     style="fill:#ffffff;fill-opacity:1;fill-rule:nonzero;stroke:none;stroke-width:1.33333325"
     d="m 276.10759,121.86307 h 0.452 c 0.58933,0 0.884,-0.27467 0.884,-0.82533 0,-0.54 -0.296,-0.80934 -0.888,-0.80934 h -0.448 z m 0,-3.74933 v 1.44 h 0.372 c 0.53467,0 0.80267,-0.24267 0.80267,-0.728 0,-0.47467 -0.268,-0.712 -0.80267,-0.712 z m -1.93467,4.424 v -0.67467 h 0.368 c 0.18534,0 0.27867,-0.1 0.27867,-0.3 v -3.14933 c 0,-0.2 -0.0907,-0.3 -0.272,-0.3 h -0.39467 v -0.676 h 2.936 c 0.488,0 0.85734,0.10666 1.10667,0.32 0.25067,0.20933 0.376,0.504 0.376,0.884 0,0.32533 -0.096,0.592 -0.28533,0.79866 -0.18667,0.20534 -0.428,0.34 -0.72267,0.40534 0.484,0.14533 0.80933,0.32 0.97733,0.52533 0.168,0.204 0.25067,0.47067 0.25067,0.79867 0,0.46666 -0.13333,0.812 -0.40133,1.03466 -0.26534,0.22267 -0.76934,0.33334 -1.50934,0.33334 z"
     inkscape:connector-curvature="0" /><path
     id="path182"
     style="fill:#ffffff;fill-opacity:1;fill-rule:nonzero;stroke:none;stroke-width:1.33333325"
     d="m 284.32493,121.86307 h 0.40133 c 0.18934,0 0.28534,-0.1 0.28534,-0.3 v -3.14933 c 0,-0.2 -0.0893,-0.3 -0.268,-0.3 h -0.41867 v -0.676 h 4.54533 v 1.98 h -0.64666 c 0,-0.532 -0.10267,-0.88934 -0.308,-1.072 -0.16,-0.15467 -0.45334,-0.232 -0.87867,-0.232 h -0.73733 v 1.492 h 0.19466 c 0.22134,0 0.37334,-0.0533 0.456,-0.16134 0.0733,-0.0947 0.10934,-0.26 0.10934,-0.49466 v -0.184 h 0.56133 v 2.35466 h -0.56133 v -0.19466 c 0,-0.2 -0.0347,-0.35734 -0.10267,-0.472 -0.068,-0.116 -0.152,-0.17334 -0.25333,-0.17334 h -0.404 v 1.58267 h 0.81333 c 0.43467,0 0.72933,-0.10267 0.88133,-0.308 0.15334,-0.204 0.22934,-0.57733 0.22934,-1.11733 h 0.64666 v 2.1 h -4.54533 z"
     inkscape:connector-curvature="0" /><path
     id="path186"
     style="fill:#ffffff;fill-opacity:1;fill-rule:nonzero;stroke:none;stroke-width:1.33333325"
     d="m 289.37839,119.41814 v -1.98 h 4.50133 v 1.98 h -0.64533 c 0,-0.47467 -0.0773,-0.81067 -0.23067,-1.00933 -0.152,-0.19734 -0.396,-0.296 -0.73066,-0.296 v 3.45066 c 0,0.2 0.0893,0.3 0.268,0.3 h 0.41866 v 0.67467 h -2.66133 v -0.67467 h 0.40533 c 0.188,0 0.28134,-0.1 0.28134,-0.3 v -3.45066 c -0.37067,0 -0.624,0.11333 -0.76,0.33733 -0.13334,0.22267 -0.20134,0.54533 -0.20134,0.968 z"
     inkscape:connector-curvature="0" /><path
     id="path190"
     style="fill:#ffffff;fill-opacity:1;fill-rule:nonzero;stroke:none;stroke-width:1.33333325"
     d="m 300.49413,120 c 0,1.296 0.32267,1.944 0.968,1.944 0.64267,0 0.964,-0.648 0.964,-1.944 0,-1.296 -0.32,-1.944 -0.95733,-1.944 -0.64934,0 -0.97467,0.648 -0.97467,1.944 m -1.44533,0 c 0,-0.79067 0.21333,-1.43333 0.64,-1.924 0.42666,-0.496 1.01866,-0.74267 1.77333,-0.74267 0.75867,0 1.34933,0.24534 1.77333,0.73467 0.424,0.48933 0.636,1.13333 0.636,1.932 0,0.82133 -0.21733,1.47067 -0.652,1.95067 -0.43466,0.47733 -1.01333,0.716 -1.74133,0.716 -0.74667,0 -1.34,-0.24134 -1.776,-0.72267 -0.436,-0.48267 -0.65333,-1.13067 -0.65333,-1.944"
     inkscape:connector-curvature="0" /><path
     id="path194"
     style="fill:#ffffff;fill-opacity:1;fill-rule:nonzero;stroke:none;stroke-width:1.33333325"
     d="m 297.53159,119.3844 c -0.10533,0.112 -0.296,0.16933 -0.572,0.16933 h -0.70933 v -1.44 h 0.49466 c 0.352,0 0.59867,0.0507 0.736,0.15334 0.14134,0.10266 0.21067,0.288 0.21067,0.55466 0,0.26267 -0.0533,0.45067 -0.16,0.56267 m 1.51733,2.47867 c -0.12266,0 -0.20533,-0.0267 -0.248,-0.0787 -0.0427,-0.0533 -0.064,-0.14667 -0.064,-0.28133 l 0.003,-0.66 c 0,-0.31067 -0.0627,-0.532 -0.19067,-0.668 -0.12666,-0.13734 -0.33866,-0.24667 -0.636,-0.32934 0.712,-0.108 1.068,-0.492 1.068,-1.15466 0,-0.42 -0.13733,-0.73467 -0.412,-0.94134 -0.272,-0.208 -0.63733,-0.312 -1.09466,-0.312 h -3.2 v 0.676 h 0.392 c 0.196,0 0.29466,0.1 0.29466,0.3 v 3.08934 c 0,0.24 -0.10133,0.36 -0.304,0.36 h -0.38266 v 0.67466 h 2.66133 v -0.67466 h -0.37467 c -0.12266,0 -0.20533,-0.0267 -0.248,-0.0787 -0.0427,-0.0533 -0.0627,-0.14667 -0.0627,-0.28133 v -1.27467 h 0.50133 c 0.29467,0 0.484,0.0293 0.56933,0.0893 0.0867,0.06 0.13067,0.21067 0.13067,0.45067 l -0.003,0.73467 c 0,0.24 -0.10133,0.36 -0.304,0.36 v 0.67466 h 2.16534 v -0.67466 z"
     inkscape:connector-curvature="0" /><path
     id="path198"
     style="fill:#ffffff;fill-opacity:1;fill-rule:nonzero;stroke:none;stroke-width:1.33333325"
     d="m 282.40013,119.3844 c -0.10533,0.112 -0.296,0.16933 -0.572,0.16933 h -0.70933 v -1.44 h 0.49466 c 0.352,0 0.59867,0.0507 0.736,0.15334 0.14134,0.10266 0.21067,0.288 0.21067,0.55466 0,0.26267 -0.0533,0.45067 -0.16,0.56267 m 1.51733,2.47867 c -0.12266,0 -0.20533,-0.0267 -0.248,-0.0787 -0.0427,-0.0533 -0.064,-0.14667 -0.064,-0.28133 l 0.003,-0.66 c 0,-0.31067 -0.0627,-0.532 -0.19067,-0.668 -0.12666,-0.13734 -0.33866,-0.24667 -0.636,-0.32934 0.712,-0.108 1.068,-0.492 1.068,-1.15466 0,-0.42 -0.13733,-0.73467 -0.412,-0.94134 -0.272,-0.208 -0.63733,-0.312 -1.09466,-0.312 h -3.2 v 0.676 h 0.392 c 0.196,0 0.29466,0.1 0.29466,0.3 v 3.08934 c 0,0.24 -0.10133,0.36 -0.304,0.36 h -0.38266 v 0.67466 h 2.66133 v -0.67466 h -0.37467 c -0.12266,0 -0.20533,-0.0267 -0.248,-0.0787 -0.0413,-0.0533 -0.0627,-0.14667 -0.0627,-0.28133 v -1.27467 h 0.50133 c 0.29467,0 0.484,0.0293 0.56933,0.0893 0.0867,0.06 0.13067,0.21067 0.13067,0.45067 l -0.003,0.73467 c 0,0.24 -0.10133,0.36 -0.304,0.36 v 0.67466 h 2.11334 v -0.67466 z"
     inkscape:connector-curvature="0" /><path
     id="path873"
     style="fill:#7f8c8d;fill-opacity:1;fill-rule:nonzero;stroke:none;stroke-width:1.30385447"
     d="M 259.32877,212.21313 H 82.004557 V 113.1202 H 259.32877 Z"
     inkscape:connector-curvature="0" /></svg>