<svg xmlns="http://www.w3.org/2000/svg" xml:space="preserve" width="256" height="256" viewBox="0 0 341.333 341.333"><path d="m0 0-4 4S-24 4-36-8v-4h20z" style="fill:#bfbfbf;fill-opacity:1;fill-rule:nonzero;stroke:none" transform="matrix(1.33333 0 0 -1.33333 85.333 106.667)"/><path d="M0 0s16 0 20-8C20-8 8-8 0 0m20 4H-8S-4-4 8-8s20-4 20-4l4 4z" style="fill:gray;fill-opacity:1;fill-rule:nonzero;stroke:none" transform="matrix(1.33333 0 0 -1.33333 42.667 224)"/><path d="M0 0c4 8 20 8 20 8C12 0 0 0 0 0m-12 0 4-4s8 0 20 4 16 12 16 12H0Z" style="fill:gray;fill-opacity:1;fill-rule:nonzero;stroke:none" transform="matrix(1.33333 0 0 -1.33333 272 234.667)"/><path d="m0 0 4 4S24 4 36-8v-4H16Z" style="fill:#bfbfbf;fill-opacity:1;fill-rule:nonzero;stroke:none" transform="matrix(1.33333 0 0 -1.33333 256 106.667)"/><path d="M0 0c-16 0-20 4-24 8s-8 4-8 4h-136s-4 0-8-4-8-8-24-8c0 0-16-12-16-32v-12.288c0-2.741.351-5.462 1.045-8.113C-213.292-58.758-209.64-70.36-204-76l.864-.864a3.98 3.98 0 0 1 2.684-1.169c3.862-.13 14.068-.775 20.452-3.967 5.06-2.53 8-10 12-10h136c4 0 8 6 12 10 3.276 3.276 15.945 3.869 20.422 3.977a3.98 3.98 0 0 1 2.724 1.169L4-76c5.64 5.64 9.291 17.242 10.955 23.599A32 32 0 0 1 16-44.288V-32C16-12 0 0 0 0" style="fill:#262626;fill-opacity:1;fill-rule:nonzero;stroke:none" transform="matrix(1.33333 0 0 -1.33333 304 117.333)"/><path d="M264 216H77.333V112H264Z" style="fill:#7f8c8d;fill-opacity:1;fill-rule:nonzero;stroke:none;stroke-width:1.33333325;font-variant-east_asian:normal;opacity:1;vector-effect:none;stroke-linecap:butt;stroke-linejoin:miter;stroke-miterlimit:4;stroke-dasharray:none;stroke-dashoffset:0;stroke-opacity:1"/><g style="fill:#4d4d4d"><path d="M0 0a40 40 0 0 0-.128 2.361c-.015.637.265 1.261.781 1.636 3.776 2.743 6.209 7.035 6.209 11.86 0 8.285-7.164 15-16 15s-16-6.715-16-15c0-6.976 5.084-12.831 11.966-14.508.414-.101.801-.311 1.067-.645 1.014-1.277 1.439-3.45 1.607-4.681a2 2 0 0 0-.374-1.495 10.95 10.95 0 0 1-2.19-7.984c.585-5.012 4.672-9.072 9.688-9.619 6.629-.723 12.236 4.45 12.236 10.932 0 4.852-3.142 8.967-7.502 10.429A1.99 1.99 0 0 0 0 0" style="fill:#4d4d4d;fill-opacity:1;fill-rule:nonzero;stroke:none" transform="matrix(1.33333 0 0 -1.33333 57.518 169.143)"/></g><g style="fill:#4d4d4d"><path d="M0 0c.054.643.106 1.465.128 2.361.015.637-.266 1.261-.781 1.636-3.777 2.743-6.209 7.035-6.209 11.86 0 8.285 7.163 15 16 15s16-6.715 16-15c0-6.976-5.084-12.831-11.966-14.508-.415-.101-.802-.311-1.068-.645-1.013-1.277-1.439-3.45-1.606-4.681a2 2 0 0 1 .374-1.495 10.95 10.95 0 0 0 2.189-7.984c-.585-5.012-4.671-9.072-9.688-9.619-6.628-.723-12.235 4.45-12.235 10.932 0 4.852 3.141 8.967 7.501 10.429C-.605-1.46-.067-.794 0 0" style="fill:#4d4d4d;fill-opacity:1;fill-rule:nonzero;stroke:none" transform="matrix(1.33333 0 0 -1.33333 283.816 169.143)"/></g><path d="M0 0a1 1 0 1 1 2 0 1 1 0 1 1-2 0m4 0a1 1 0 1 1 2 0 1 1 0 1 1-2 0m4 0a1 1 0 1 1 2 0 1 1 0 1 1-2 0M2 4a1 1 0 1 1 2 0 1 1 0 1 1-2 0m4 0a1 1 0 1 1 2 0 1 1 0 1 1-2 0m5 1a1 1 0 1 0 0-2 1 1 0 1 0 0 2" style="fill:#000;fill-opacity:1;fill-rule:nonzero;stroke:none" transform="matrix(1.33333 0 0 -1.33333 304 190.667)"/><path d="M0 0a1 1 0 1 1 0-2 1 1 0 0 1 0 2m-4 0a1 1 0 1 1 0-2 1 1 0 0 1 0 2m-4 0a1 1 0 1 1 0-2 1 1 0 0 1 0 2m6 4a1 1 0 1 1 0-2 1 1 0 0 1 0 2m-4 0a1 1 0 1 1 0-2 1 1 0 0 1 0 2m-3-1a1 1 0 1 0-2 0 1 1 0 0 0 2 0" style="fill:#000;fill-opacity:1;fill-rule:nonzero;stroke:none" transform="matrix(1.33333 0 0 -1.33333 36 189.333)"/><path d="M0 0a3 3 0 1 0-6 0 3 3 0 0 0 6 0" style="fill:#333;fill-opacity:1;fill-rule:nonzero;stroke:none" transform="matrix(1.33333 0 0 -1.33333 282.667 129.333)"/><path d="M0 0c0-1.104-1.791-2-4-2s-4 .896-4 2 1.791 2 4 2 4-.896 4-2" style="fill:#333;fill-opacity:1;fill-rule:nonzero;stroke:none" transform="matrix(1.33333 0 0 -1.33333 288 210.667)"/><path d="M0 0c0-1.104-1.791-2-4-2s-4 .896-4 2 1.791 2 4 2 4-.896 4-2" style="fill:#333;fill-opacity:1;fill-rule:nonzero;stroke:none" transform="matrix(1.33333 0 0 -1.33333 304 210.667)"/><path d="M0 0c0-2.209-3.582-4-8-4s-8 1.791-8 4 3.582 4 8 4 8-1.791 8-4" style="fill:#333;fill-opacity:1;fill-rule:nonzero;stroke:none" transform="matrix(1.33333 0 0 -1.33333 61.333 210.667)"/><path d="M0 0c-3.86 0-7-3.141-7-7s3.14-7 7-7 7 3.141 7 7-3.14 7-7 7" style="fill:#191919;fill-opacity:1;fill-rule:nonzero;stroke:none" transform="matrix(1.33333 0 0 -1.33333 54.667 176)"/><path d="M0 0c-4.687 0-8.5-3.813-8.5-8.5S-4.687-17 0-17s8.5 3.813 8.5 8.5S4.687 0 0 0m0-18c-5.238 0-9.5 4.262-9.5 9.5S-5.238 1 0 1s9.5-4.262 9.5-9.5S5.238-18 0-18" style="fill:gray;fill-opacity:1;fill-rule:nonzero;stroke:none" transform="matrix(1.33333 0 0 -1.33333 54.667 174)"/><path d="M0 0a6 6 0 0 0-12 0A6 6 0 0 0 0 0" style="fill:#262626;fill-opacity:1;fill-rule:nonzero;stroke:none" transform="matrix(1.33333 0 0 -1.33333 62.667 185.333)"/><path d="M0 0c-3.859 0-7-3.141-7-7s3.141-7 7-7 7 3.141 7 7-3.141 7-7 7" style="fill:#191919;fill-opacity:1;fill-rule:nonzero;stroke:none" transform="matrix(1.33333 0 0 -1.33333 286.667 176)"/><path d="M0 0c-4.687 0-8.5-3.813-8.5-8.5S-4.687-17 0-17s8.5 3.813 8.5 8.5S4.687 0 0 0m0-18c-5.238 0-9.5 4.262-9.5 9.5S-5.238 1 0 1s9.5-4.262 9.5-9.5S5.238-18 0-18" style="fill:gray;fill-opacity:1;fill-rule:nonzero;stroke:none" transform="matrix(1.33333 0 0 -1.33333 286.667 174)"/><path d="m0 0-.211.422-.276.553H-7.52l-.585.642v7.032l-.553.276-.423.212a9.05 9.05 0 0 1-4.024.95 9.05 9.05 0 0 1-4.025-.95l-.423-.212-.552-.276V1.617l-.586-.642h-7.033L-26 .422-26.211 0a9.04 9.04 0 0 1 0-8.05l.211-.422.276-.553h7.033l.586-.53v-7.032l.552-.277.423-.211a9.05 9.05 0 0 1 4.025-.95c1.389 0 2.781.329 4.024.95l.423.211.553.277v7.032l.585.53h7.033l.276.553L0-8.05A9.04 9.04 0 0 1 0 0" style="fill:#191919;fill-opacity:1;fill-rule:nonzero;stroke:none" transform="matrix(1.33333 0 0 -1.33333 62.807 142.633)"/><path d="M0 0a6 6 0 0 0-12 0A6 6 0 0 0 0 0" style="fill:#262626;fill-opacity:1;fill-rule:nonzero;stroke:none" transform="matrix(1.33333 0 0 -1.33333 294.667 185.333)"/><path d="M0 0a5 5 0 1 0-10 0A5 5 0 0 0 0 0" style="fill:#262626;fill-opacity:1;fill-rule:nonzero;stroke:none" transform="matrix(1.33333 0 0 -1.33333 302.667 160.667)"/><path d="M0 0a5 5 0 1 0-10 0A5 5 0 0 0 0 0" style="fill:#262626;fill-opacity:1;fill-rule:nonzero;stroke:none" transform="matrix(1.33333 0 0 -1.33333 302.667 135.333)"/><path d="M0 0a5 5 0 1 0 0 10A5 5 0 0 0 0 0" style="fill:#262626;fill-opacity:1;fill-rule:nonzero;stroke:none" transform="matrix(1.33333 0 0 -1.33333 283.333 154.667)"/><path d="M0 0a5 5 0 1 0 0 10A5 5 0 0 0 0 0" style="fill:#262626;fill-opacity:1;fill-rule:nonzero;stroke:none" transform="matrix(1.33333 0 0 -1.33333 308.667 154.667)"/><path d="M0 0h-6l-.211.422a8 8 0 0 0 0 7.156L-6 8h6l3.293-3.293a1 1 0 0 0 0-1.414z" style="fill:#262626;fill-opacity:1;fill-rule:nonzero;stroke:none" transform="matrix(1.33333 0 0 -1.33333 37.333 153.333)"/><path d="M0 0h6l.211-.422a8 8 0 0 0 0-7.156L6-8H0l-3.293 3.293a1 1 0 0 0 0 1.414z" style="fill:#262626;fill-opacity:1;fill-rule:nonzero;stroke:none" transform="matrix(1.33333 0 0 -1.33333 53.333 142.667)"/><path d="M0 0v6l.422.211a8 8 0 0 0 7.156 0L8 6V0L4.707-3.292a1 1 0 0 0-1.414 0z" style="fill:#262626;fill-opacity:1;fill-rule:nonzero;stroke:none" transform="matrix(1.33333 0 0 -1.33333 40 139.926)"/><path d="M0 0v-6l-.422-.211a8 8 0 0 0-7.156 0L-8-6v6l3.293 3.293a1 1 0 0 0 1.414 0z" style="fill:#262626;fill-opacity:1;fill-rule:nonzero;stroke:none" transform="matrix(1.33333 0 0 -1.33333 50.667 155.926)"/></svg>