<svg xmlns="http://www.w3.org/2000/svg" xml:space="preserve" width="256" height="256"><path d="M240 184H16v-72h224z" style="fill:#1a1a1a;fill-opacity:1;fill-rule:nonzero;stroke:none;stroke-width:1.33333325"/><path d="M240 112H16V72h224z" style="fill:#d9d9d9;fill-opacity:1;fill-rule:nonzero;stroke:none;stroke-width:1.33333325"/><path d="M32 156h8v-4h-8zm4-8h12v-4H36zm0-12h8v-4h-8zm0-8h12v-4H36zm16 0h12v-4H52zm16 4h-8v4h8zm0-4h12v-4H68zm16 16h-8v4h8zm0-8h8v-4h-8zm0-8h12v-4H84zm16 0h12v-4h-12zm16 4h-8v4h8zm4 12h-8v4h8zm0-8h8v-4h-8zm12 8h-8v4h8zm0-8h8v-4h-8zm0-8h12v-4h-12zm20 4h-8v4h8zm4 12h-8v4h8zm0-8h8v-4h-8zm0-8h8v-4h-8zm12 16h-8v4h8zm0-8h12v-4h-12zm0-8h8v-4h-8zm12 0h8v-4h-8zm16 4h-8v4h8zm-3.864 20c0 8.836 7.164 16 16 16s16-7.164 16-16-7.164-16-16-16-16 7.164-16 16M180 144h-8v4h8zm0 8h-16v4h16zm-4 8h-8v4h8zm-16-8h-8v4h8zm4 8h-8v4h8zm-12 0h-8v4h8zm-12-4h8v-4h-8zm4-12h-8v4h8zm-8 8h-8v4h8zm4 8h-8v4h8zm-20 4h8v-4h-8zm4-12h-8v4h8zm16 16H84v4h56Zm-52-16h-8v4h8zm-4 12h8v-4h-8zm12-20h-8v4h8zm-4 12h8v-4h-8Zm12-24h-8v4h8Zm-8 32h8v-4h-8Zm12-20h-8v4h8zm0 20h8v-4h-8zm4-12h-8v4h8zm-32 8h-8v4h8zm0 8h-8v4h8zm0-36h-8v4h8zm-12 24h8v-4h-8zm4-12h-8v4h8zm-4 16h-8v4h8zm0 8h-8v4h8zm-12-12h8v-4h-8zm-12 0h8v-4h-8zm8-8h8v-4h-8zm4-16h-8v4h8zm0 28H44v4h12zm-40-48h224v70.132c0 1.032-.864 1.868-1.928 1.868H17.932c-1.068 0-1.932-.836-1.932-1.868zm8-40h-6.068C16.864 72 16 72.94 16 74.1V108h8zm184 88c4.416 0 8-3.584 8-8s-3.584-8-8-8-8 3.584-8 8 3.584 8 8 8m29.748-88H212v36h28V74.1c0-1.16-1.008-2.1-2.252-2.1M200 80h-40v4h40zm0 8h-40v4h40zm0 8h-40v8h40zm8 12h-56V72h56zm-60 0H28V72h120Z" style="fill:#f2f2f2;fill-opacity:1;fill-rule:nonzero;stroke:none;stroke-width:1.33333325;font-variant-east_asian:normal;opacity:1;vector-effect:none;stroke-linecap:butt;stroke-linejoin:miter;stroke-miterlimit:4;stroke-dasharray:none;stroke-dashoffset:0;stroke-opacity:1"/><circle cx="208" cy="152" r="16" style="opacity:1;vector-effect:none;fill:#a6a6a6;fill-opacity:1;stroke:none;stroke-width:1.33333325;stroke-linecap:butt;stroke-linejoin:miter;stroke-miterlimit:4;stroke-dasharray:none;stroke-dashoffset:0;stroke-opacity:1;paint-order:stroke fill markers"/><path d="M32 156h8v-4h-8zm4-8h12v-4H36zm0-12h8v-4h-8zm0-8h12v-4H36zm16 0h12v-4H52zm16 4h-8v4h8zm0-4h12v-4H68zm16 16h-8v4h8zm0-8h8v-4h-8zm0-8h12v-4H84zm16 0h12v-4h-12zm16 4h-8v4h8zm4 12h-8v4h8zm0-8h8v-4h-8zm12 8h-8v4h8zm0-8h8v-4h-8zm0-8h12v-4h-12zm20 4h-8v4h8zm4 12h-8v4h8zm0-8h8v-4h-8zm0-8h8v-4h-8zm12 16h-8v4h8zm0-8h12v-4h-12zm0-8h8v-4h-8zm12 0h8v-4h-8zm16 4h-8v4h8zm-3.864 20c0 8.836 7.164 16 16 16s16-7.164 16-16-7.164-16-16-16-16 7.164-16 16M180 144h-8v4h8zm0 8h-16v4h16zm-4 8h-8v4h8zm-16-8h-8v4h8zm4 8h-8v4h8zm-12 0h-8v4h8zm-12-4h8v-4h-8zm4-12h-8v4h8zm-8 8h-8v4h8zm4 8h-8v4h8zm-20 4h8v-4h-8zm4-12h-8v4h8zm16 16H84v4h56Zm-52-16h-8v4h8zm-4 12h8v-4h-8zm12-20h-8v4h8zm-4 12h8v-4h-8Zm12-24h-8v4h8Zm-8 32h8v-4h-8Zm12-20h-8v4h8zm0 20h8v-4h-8zm4-12h-8v4h8zm-32 8h-8v4h8zm0 8h-8v4h8zm0-36h-8v4h8zm-12 24h8v-4h-8zm4-12h-8v4h8zm-4 16h-8v4h8zm0 8h-8v4h8zm-12-12h8v-4h-8zm-12 0h8v-4h-8zm8-8h8v-4h-8zm4-16h-8v4h8zm0 28H44v4h12zm152 0c4.416 0 8-3.584 8-8s-3.584-8-8-8-8 3.584-8 8 3.584 8 8 8" style="opacity:1;vector-effect:none;fill:none;fill-opacity:1;fill-rule:nonzero;stroke:#1a1a1a;stroke-width:2;stroke-linecap:butt;stroke-linejoin:miter;stroke-miterlimit:4;stroke-dasharray:none;stroke-dashoffset:0;stroke-opacity:1"/><circle cx="208" cy="152" r="8" style="opacity:1;vector-effect:none;fill:#b80000;fill-opacity:1;stroke:none;stroke-width:.99999992;stroke-linecap:butt;stroke-linejoin:miter;stroke-miterlimit:4;stroke-dasharray:none;stroke-dashoffset:0;stroke-opacity:1;paint-order:stroke fill markers;font-variant-east_asian:normal"/><path d="M16 112h224v70.132c0 1.032-.864 1.868-1.928 1.868H17.932c-1.068 0-1.932-.836-1.932-1.868Zm8-40h-6.068C16.864 72 16 72.94 16 74.1V108h8zm213.748 0H212v36h28V74.1c0-1.16-1.008-2.1-2.252-2.1M200 80h-40v4h40zm0 8h-40v4h40zm0 8h-40v8h40zm8 12h-56V72h56zm-60 0H28V72h120Z" style="opacity:1;vector-effect:none;fill:none;fill-opacity:1;fill-rule:nonzero;stroke:#a6a6a6;stroke-width:2;stroke-linecap:butt;stroke-linejoin:miter;stroke-miterlimit:4;stroke-dasharray:none;stroke-dashoffset:0;stroke-opacity:1"/><rect width="224" height="112" x="16" y="72" ry="2" style="opacity:1;vector-effect:none;fill:none;fill-opacity:1;stroke:#1a1a1a;stroke-width:2;stroke-linecap:butt;stroke-linejoin:miter;stroke-miterlimit:4;stroke-dasharray:none;stroke-dashoffset:0;stroke-opacity:1;paint-order:stroke fill markers"/><g style="stroke-width:2.92708588" transform="matrix(.34795 0 0 .33543 26.007 86.246)"><path d="M115.678 15.048h36v34h-36z" style="opacity:1;vector-effect:none;fill:#a6a6a6;fill-opacity:1;stroke:none;stroke-width:5.85417175;stroke-linecap:butt;stroke-linejoin:bevel;stroke-miterlimit:4;stroke-dasharray:none;stroke-dashoffset:0;stroke-opacity:1;paint-order:stroke fill markers"/><path d="M20.719 15.048h94.959v34H20.719z" style="opacity:1;vector-effect:none;fill:#1a1a1a;fill-opacity:1;stroke:none;stroke-width:5.85417175;stroke-linecap:butt;stroke-linejoin:bevel;stroke-miterlimit:4;stroke-dasharray:none;stroke-dashoffset:0;stroke-opacity:1;paint-order:stroke fill markers"/><path d="M125.1 25.477c-1.149 0-2.133.506-2.713 1.26-.58.753-.79 1.68-.748 2.572s.334 1.777.908 2.494c.574.716 1.49 1.246 2.553 1.246h3.851c1.842 0 2.393.938 2.397 1.789.003.851-.53 1.783-2.397 1.783h-7.105v2h7.105c2.684 0 4.404-1.856 4.397-3.79-.007-1.936-1.73-3.782-4.397-3.782H125.1c-.448 0-.73-.168-.993-.496-.263-.329-.447-.837-.47-1.338-.024-.501.11-.967.334-1.258s.504-.48 1.129-.48h9.064l4.734 10.552h1.825l5-11.144-1.825-.819-4.087 9.112-4.088-9.112-.912-.59z" style="color:#000;font-style:normal;font-variant:normal;font-weight:400;font-stretch:normal;font-size:medium;line-height:normal;font-family:sans-serif;font-variant-ligatures:normal;font-variant-position:normal;font-variant-caps:normal;font-variant-numeric:normal;font-variant-alternates:normal;font-feature-settings:normal;text-indent:0;text-align:start;text-decoration:none;text-decoration-line:none;text-decoration-style:solid;text-decoration-color:#000;letter-spacing:normal;word-spacing:normal;text-transform:none;writing-mode:lr-tb;direction:ltr;text-orientation:mixed;dominant-baseline:auto;baseline-shift:baseline;text-anchor:start;white-space:normal;shape-padding:0;clip-rule:nonzero;display:inline;overflow:visible;visibility:visible;opacity:1;isolation:auto;mix-blend-mode:normal;color-interpolation:sRGB;color-interpolation-filters:linearRGB;solid-color:#000;solid-opacity:1;vector-effect:none;fill:#1a1a1a;fill-opacity:1;fill-rule:nonzero;stroke:none;stroke-width:5.85417175;stroke-linecap:butt;stroke-linejoin:bevel;stroke-miterlimit:4;stroke-dasharray:none;stroke-dashoffset:0;stroke-opacity:1;color-rendering:auto;image-rendering:auto;shape-rendering:auto;text-rendering:auto"/><g style="stroke-width:2.92708588"><g style="stroke-width:2.92708588"><path d="M70.788 365.516h74.394l-4 4h-66Z" style="opacity:1;vector-effect:none;fill:#b80000;fill-opacity:1;stroke:none;stroke-width:5.85417175;stroke-linecap:butt;stroke-linejoin:miter;stroke-miterlimit:4;stroke-dasharray:none;stroke-dashoffset:0;stroke-opacity:1;paint-order:stroke fill markers" transform="translate(-39.577 -330.22)"/><path d="m72.984 367.516 2.198 2h66l2-2z" style="opacity:1;vector-effect:none;fill:#d4a600;fill-opacity:1;stroke:none;stroke-width:20.40472031;stroke-linecap:butt;stroke-linejoin:miter;stroke-miterlimit:4;stroke-dasharray:none;stroke-dashoffset:0;stroke-opacity:1;paint-order:stroke fill markers" transform="translate(-39.577 -330.22)"/></g><g style="font-style:normal;font-weight:400;font-size:17.5180912px;line-height:125%;font-family:sans-serif;letter-spacing:0;word-spacing:0;fill:#f2f2f2;fill-opacity:1;stroke:none;stroke-width:2.92708588px;stroke-linecap:butt;stroke-linejoin:miter;stroke-opacity:1"><path d="M52.9-538.323h2.132q.33 0 .52.138a.54.54 0 0 1 .22.398q.034.27-.097.667l-.527 1.493q-.15.424-.392.732a1.6 1.6 0 0 1-.553.472q-.315.172-.66.172h-2.24l-.852 2.173h2.16q1.01 0 1.87-.414a4.25 4.25 0 0 0 1.486-1.177 5.5 5.5 0 0 0 .965-1.79l.543-1.642q.33-1.004.213-1.706-.12-.686-.659-1.04-.527-.352-1.436-.352h-1.958zm-3.312 6.245h1.874l5.01-13.168H54.88zm5.67-7.724 1.455.409 3.754-5.853h-1.745zm2.313 7.713h1.9l3.797-13.157h-1.613zm4.357-11.5h3.98l.41-1.657h-3.893zm-1.588 5.293h3.858l.476-1.885h-3.768zm-1.862 6.207h4.585l.543-2.192h-4.47zm7.365-1.261h1.855l2.345-11.896h-1.599zm-2.435 1.26h6.2l.374-2.172h-6.046zm8.798-6.233h2.133q.329 0 .553.138t.315.398q.099.27.061.667l-.17 1.493a2 2 0 0 1-.217.732 1.13 1.13 0 0 1-.44.472 1.14 1.14 0 0 1-.62.172h-2.24l-.333 2.173h2.16q1.01 0 1.772-.414.755-.401 1.205-1.177.442-.757.537-1.79l.151-1.642q.092-1.004-.194-1.706a2.06 2.06 0 0 0-.907-1.04q-.612-.352-1.52-.352h-1.958zm-1.822 6.245h1.875l1.868-13.168h-1.591zm3.828-7.724 1.553.409 2.357-5.853h-1.745zm7.793-5.559q-.849 0-1.467.323a2.45 2.45 0 0 0-.99.947q-.366.629-.432 1.544l-.501 6.989q-.081 1.111.226 1.92.32.829 1 1.262.684.447 1.688.447t1.72-.447q.711-.433 1.08-1.262.373-.808.372-1.92l-.007-6.989q0-.916-.329-1.544a2.17 2.17 0 0 0-.916-.947q-.595-.323-1.444-.323m-.06 1.692q.344 0 .588.145a.9.9 0 0 1 .365.412q.123.277.115.665l-.143 6.78q-.01.464-.158.792-.15.34-.432.513a1.2 1.2 0 0 1-.671.182 1.15 1.15 0 0 1-.658-.182 1 1 0 0 1-.396-.513 1.9 1.9 0 0 1-.103-.791l.339-6.781q.02-.388.161-.665a1 1 0 0 1 .395-.412q.254-.145.598-.145m3.45 11.58h1.994l.952-10.001 1.915 10.001h1.995l-3.212-13.157h-1.7zm7.97-13.157h-1.613l1.268 13.157h1.9zm2.607 1.641h1.694q.382 0 .628.242.256.25.34.71l1.322 7.223q.102.555-.078.856-.171.313-.6.313h-1.904l.326 2.172h2.038q.865 0 1.402-.392.534-.391.702-1.126.176-.717-.028-1.715l-1.52-7.422q-.167-.806-.565-1.371a2.6 2.6 0 0 0-.972-.846 2.9 2.9 0 0 0-1.308-.285h-1.723zm.493 11.516h1.9l-2.074-13.157h-1.613zm7.635 0h1.899l-3.227-13.157h-1.613zm-1.783-11.5h3.98l-.474-1.657h-3.893zm1.238 5.293h3.858l-.53-1.885h-3.769zm1.452 6.207h4.585l-.628-2.192h-4.47zm4.493-13.272q-.848 0-1.347.323a1.45 1.45 0 0 0-.638.947q-.13.629.144 1.544l2.1 6.989q.333 1.111.94 1.92.63.829 1.47 1.262a3.9 3.9 0 0 0 1.855.447q1.004 0 1.553-.447.55-.433.61-1.262.074-.808-.343-1.92l-2.607-6.989a4.8 4.8 0 0 0-.904-1.544 3.7 3.7 0 0 0-1.268-.947 3.75 3.75 0 0 0-1.565-.323m.57 1.692q.345 0 .642.145.297.144.519.412.225.277.361.665l2.382 6.78q.162.464.136.792-.024.34-.241.513-.216.182-.603.182-.388 0-.726-.182a1.7 1.7 0 0 1-.587-.513 2.7 2.7 0 0 1-.397-.791l-2.185-6.781q-.125-.388-.086-.665a.6.6 0 0 1 .241-.412q.2-.145.544-.145" aria-label="RETROVIDEO" style="font-style:normal;font-variant:normal;font-weight:600;font-stretch:condensed;font-family:Bahnschrift;-inkscape-font-specification:&quot;Bahnschrift Semi-Bold Condensed&quot;;fill:#f2f2f2;fill-opacity:1;stroke-width:2.92708588px" transform="matrix(1.34325 0 .0104 -.74446 -37.607 -371.199)"/></g></g><rect width="132" height="36" x="20.199" y="14.048" ry="2.175" style="opacity:1;vector-effect:none;fill:none;fill-opacity:1;stroke:#1a1a1a;stroke-width:5.85417175;stroke-linecap:butt;stroke-linejoin:miter;stroke-miterlimit:4;stroke-dasharray:none;stroke-dashoffset:0;stroke-opacity:1;paint-order:stroke fill markers"/></g></svg>