<svg xmlns="http://www.w3.org/2000/svg" xml:space="preserve" width="256" height="256" viewBox="0 0 341.333 341.333"><g style="fill:#e6e6e6"><path d="M0 0c-23.993 0-43.505 19.517-43.505 43.505S-23.993 87.01 0 87.01c23.988 0 43.5-19.517 43.5-43.505S23.988 0 0 0m0 159.505c-64.071 0-116-51.934-116-116s51.929-116 116-116c64.051 0 116 51.934 116 116s-51.949 116-116 116" style="fill:#e6e6e6;fill-opacity:1;fill-rule:nonzero;stroke:none" transform="matrix(1.33333 0 0 -1.33333 170.667 228.673)"/></g><path d="M0 0h16a2 2 0 0 0 2-2v-12a2 2 0 0 0-2-2H0a2 2 0 0 0-2 2v12a2 2 0 0 0 2 2" style="fill:#ff0;fill-opacity:1;fill-rule:nonzero;stroke:none" transform="matrix(1.33333 0 0 -1.33333 58.667 170.667)"/><path d="M0 0c0 5.523 4.477 10 10 10S20 5.523 20 0s-4.477-10-10-10S0-5.523 0 0" style="fill:#ed1c24;fill-opacity:1;fill-rule:nonzero;stroke:none" transform="matrix(1.33333 0 0 -1.33333 56 152)"/><path d="m0 0-8.99 14.164c-.388.612.097 1.377.874 1.377H9.863c.777 0 1.262-.765.874-1.377L1.747 0C1.359-.612.388-.612 0 0" style="fill:#00f;fill-opacity:1;fill-rule:nonzero;stroke:none" transform="matrix(1.33333 0 0 -1.33333 68.168 218.055)"/><path d="M88.096 225.725H50.571v-92.59h37.525zM48 228.307h42.667V110.973H48Z" style="fill:gray;fill-opacity:1;fill-rule:nonzero;stroke:none;stroke-width:1.33333325"/><g style="fill:#e6e6e6"><path d="M0 0q0-.357-.018-.601a11 11 0 0 1-.057-1.335l.019-1.335q-2.396.094-8.666.094h-.786q-.825 0-.825.16t.263.16q.936.018 1.198.262.168.15.169.901V8.48q0 .639-.115.789-.227.282-.701.263h-.474q-.209 0-.209.141t.263.141h5.259q.188 0 .188-.151 0-.169-.487-.169-.692 0-.814-.169t-.122-1.485V3.365q0-1.372.075-6.147.355-.018.805-.019 1.966 0 2.714.15 1.179.244 1.61 1.204.225.489.412 1.56.055.301.168.301Q.001.414 0 0" style="fill:#e6e6e6;fill-opacity:1;fill-rule:nonzero;stroke:none" transform="matrix(1.33333 0 0 -1.33333 65.21 126.533)"/></g><g style="fill:#e6e6e6"><path d="M0 0q0-.16-.243-.16-.131 0-.244.019a39 39 0 0 1-1.927.057q-.843 0-2.471-.057A28 28 0 0 0-5.69-.16q-.281 0-.281.17 0 .094.103.112.103.02.721.038.58.113.674.348.093.235.094 1.513v9.739q-.02.339-.02.319 0 .47-.936.47-.524 0-.524.132 0 .131.075.15.075.02.487.019h4.923q.243 0 .243-.142 0-.107-.084-.133t-.571-.045q-.58-.037-.711-.244l-.056-.356V1.324q0-.807.177-.958.178-.15 1.208-.206Q0 .14 0 0" style="fill:#e6e6e6;fill-opacity:1;fill-rule:nonzero;stroke:none" transform="matrix(1.33333 0 0 -1.33333 73.521 130.581)"/></g><g style="fill:#e6e6e6"><path d="M0 0q0 2.726-1.652 2.726-.588 0-.789-.057-.405-.131-.404-.583v-4.963q1.634 0 2.239.583Q0-1.712 0 0m.356-6.43q0 2.651-1.499 3.083-.592.17-1.702.169v-1.09q0-.47-.038-1.335a47 47 0 0 1-.018-1.617q0-2.03.112-2.162.15-.206.842-.206 2.303 0 2.303 3.158m2.995-.084q0-1.169-.712-2.008Q1.928-9.36.674-9.644a10.4 10.4 0 0 0-1.872-.264q-.88-.037-5.166-.037-.598 0-.712.018-.111.02-.112.132 0 .17.609.169.608 0 .758.179.15.18.15.876v10.77q0 .546-.872.564-.663.018-.664.16 0 .16.412.16h5.26q4.324 0 4.324-2.979 0-2.47-3.219-3.054l-.038-.076q1.89-.396 2.62-.999 1.199-1 1.199-2.489" style="fill:#e6e6e6;fill-opacity:1;fill-rule:nonzero;stroke:none" transform="matrix(1.33333 0 0 -1.33333 83.629 117.558)"/></g><g style="fill:gray"><path d="M0 0h3.505v-12.726h8.376v-2.79H0Z" style="fill:gray;fill-opacity:1;fill-rule:nonzero;stroke:none" transform="matrix(1.33333 0 0 -1.33333 122.667 261.46)"/></g><path d="M139.559 266.85h4.385v15.298h-4.385zm4.384-1.826h-4.386v-3.69h4.386z" style="fill:gray;fill-opacity:1;fill-rule:nonzero;stroke:none;stroke-width:1.33333325"/><g style="fill:gray"><path d="M0 0q.7.938.7 2.463 0 1.221-.344 2.021Q-.299 6-2.054 6q-1.778 0-2.444-1.484-.344-.79-.344-2.042 0-1.474.711-2.442t2.169-.969Q-.7-.937 0 0m2.71 6.989q1.393-1.631 1.392-4.21 0-2.674-1.373-4.432-1.371-1.758-3.831-1.758-1.545 0-2.482.569-.56.336-1.213 1.179v-1.442h-3.197v15.494h3.243V6.874q.619.8 1.363 1.221.882.526 2.244.526 2.463 0 3.854-1.632" style="fill:gray;fill-opacity:1;fill-rule:nonzero;stroke:none" transform="matrix(1.33333 0 0 -1.33333 156.835 278.007)"/></g><g style="fill:gray"><path d="M0 0q.063-.006.279-.016v-3.073a10 10 0 0 1-.933.052q-1.957 0-2.629-1.179-.376-.663-.376-2.042v-5.484h-3.266V-.268h3.096v-2q.75 1.146 1.308 1.568.91.705 2.367.705Q-.063.005 0 0" style="fill:gray;fill-opacity:1;fill-rule:nonzero;stroke:none" transform="matrix(1.33333 0 0 -1.33333 172.695 266.491)"/></g><g style="fill:gray"><path d="M0 0q-.686-.655-.863-1.775h5.588Q4.635-.581 3.862.039q-.777.616-1.924.617Q.688.657 0 0m4.852 2.593A5 5 0 0 0 6.997.895q.76-1.022.988-2.372.13-.79.106-2.277H-.943Q-.865-5.48.355-6.175q.742-.432 1.788-.432 1.11 0 1.8.526.379.285.668.79h3.311q-.13-1.021-1.202-2.074-1.667-1.674-4.668-1.674-2.476 0-4.368 1.411-1.892 1.413-1.893 4.595.001 2.98 1.709 4.572Q-.792 3.13 1.935 3.13q1.62 0 2.917-.537" style="fill:gray;fill-opacity:1;fill-rule:nonzero;stroke:none" transform="matrix(1.33333 0 0 -1.33333 178.104 270.615)"/></g><g style="fill:gray"><path d="M0 0v2.137h1.73v3.2h3.209v-3.2h2.014V0H4.939v-6.063q0-.705.193-.879.194-.174 1.184-.174a12 12 0 0 1 .637.021v-2.242l-1.536-.052q-2.3-.075-3.141.736-.546.516-.546 1.59V0Z" style="fill:gray;fill-opacity:1;fill-rule:nonzero;stroke:none" transform="matrix(1.33333 0 0 -1.33333 187.577 269.839)"/></g><g style="fill:gray"><path d="M0 0q.063-.006.279-.016v-3.073a10 10 0 0 1-.933.052q-1.957 0-2.629-1.179-.376-.663-.376-2.042v-5.484h-3.266V-.268h3.096v-2q.75 1.146 1.308 1.568.91.705 2.367.705Q-.063.005 0 0" style="fill:gray;fill-opacity:1;fill-rule:nonzero;stroke:none" transform="matrix(1.33333 0 0 -1.33333 207.011 266.491)"/></g><g style="fill:gray"><path d="M0 0q.762.935.762 2.66 0 1.723-.762 2.654-.763.93-2.185.93t-2.191-.93q-.768-.931-.768-2.654 0-1.724.768-2.66.77-.935 2.191-.935Q-.763-.935 0 0m2.595-1.658q-1.57-1.794-4.769-1.793-3.197 0-4.768 1.793-1.57 1.794-1.57 4.318 0 2.482 1.57 4.301 1.571 1.82 4.768 1.82t4.769-1.82q1.57-1.819 1.57-4.301 0-2.524-1.57-4.318" style="fill:gray;fill-opacity:1;fill-rule:nonzero;stroke:none" transform="matrix(1.33333 0 0 -1.33333 218.447 278.065)"/></g><g style="fill:gray"><path d="M0 0h.801c.461 0 .61.167.61.472 0 .389-.264.462-.749.462H0Zm-1.007 1.712h2.115c.835 0 1.31-.35 1.31-1.051 0-.511-.36-.867-.878-.972v-.011c.293-.023.566-.1.681-.35.168-.367.187-1.212.331-1.629h-1.07c-.11.389-.095.967-.191 1.245-.063.184-.216.278-.619.278H0v-1.523h-1.007z" style="fill:gray;fill-opacity:1;fill-rule:nonzero;stroke:none" transform="matrix(1.33333 0 0 -1.33333 259.596 132.326)"/></g><g style="fill:gray"><path d="M0 0h2.974v-.822H1.007v-.745h1.862v-.823H1.007v-.8h2.011v-.823H0Z" style="fill:gray;fill-opacity:1;fill-rule:nonzero;stroke:none" transform="matrix(1.33333 0 0 -1.33333 263.942 130.043)"/></g><g style="fill:gray"><path d="M0 0h-1.334v.822h3.675V0H1.007v-3.19H0Z" style="fill:gray;fill-opacity:1;fill-rule:nonzero;stroke:none" transform="matrix(1.33333 0 0 -1.33333 270.457 131.14)"/></g><g style="fill:gray"><path d="M0 0h.801c.461 0 .61.167.61.472 0 .389-.265.462-.749.462H0Zm-1.007 1.712h2.115c.835 0 1.31-.35 1.31-1.051 0-.511-.36-.867-.878-.972v-.011c.293-.023.566-.1.681-.35.168-.367.187-1.212.331-1.629h-1.07c-.11.389-.096.967-.191 1.245-.063.184-.216.278-.619.278H0v-1.523h-1.007z" style="fill:gray;fill-opacity:1;fill-rule:nonzero;stroke:none" transform="matrix(1.33333 0 0 -1.33333 275.724 132.326)"/></g><g style="fill:gray"><path d="M0 0c.768 0 1.021.584 1.021 1.289 0 .706-.253 1.29-1.021 1.29s-1.022-.584-1.022-1.29C-1.022.584-.768 0 0 0m0 3.401c1.449 0 2.058-.9 2.058-2.112C2.058.078 1.449-.823 0-.823s-2.058.901-2.058 2.112S-1.449 3.401 0 3.401" style="fill:gray;fill-opacity:1;fill-rule:nonzero;stroke:none" transform="matrix(1.33333 0 0 -1.33333 282.514 134.437)"/></g><g style="fill:gray"><path d="M0 0c1.131.359 1.851 1.071 1.557 2.355-.289 1.258-1.11 1.278-2.262.912l-.535-.17.746-3.254Zm-7.892 5.162L.891 7.953c3.188 1.013 5.316.491 6.056-2.739.452-1.971.075-3.696-2.004-5.02l.01-.047c1.473.315 2.423-.173 3.011-1.389.666-1.367 1.18-3.804 2.453-6.177l-5.759-1.83C4.014-8.077 3.333-5.974 2.79-4.567c-.319.816-.766 1.03-1.712.73l-.679-.216 1.4-6.104-5.76-1.83z" style="fill:gray;fill-opacity:1;fill-rule:nonzero;stroke:none" transform="matrix(1.33333 0 0 -1.33333 270.718 150.26)"/></g><path d="m0 0-.427-1.512H.4L.013 0Z" style="fill:#191919;fill-opacity:1;fill-rule:nonzero;stroke:none" transform="matrix(1.33333 0 0 -1.33333 267.899 170.07)"/><path d="M286.933 136.619h-29.866v-7.52h29.866zm0 30.62h-29.866v-29.384h29.866zm-.308 7.01h-5.044V168.9h4.962v1.393h-2.486v.57h2.296v1.393h-2.296v.6h2.568zm-5.97 0h-2.187v-3.822h-.019l-.921 3.822h-2.368l-.921-3.822h-.02v3.822h-2.186V168.9h3.587l.715 3.185h.018l.714-3.185h3.588zm-11.59 0-.253-.86h-1.87l-.263.86h-2.476l2.088-5.349h3.352l2.097 5.35zm-5.074-.214a16.3 16.3 0 0 1-3.254.356c-2.349 0-3.497-1.179-3.497-2.816 0-1.638 1.148-2.816 3.57-2.816 2.006 0 3.054.541 3.082 1.793h-2.423a.41.41 0 0 0-.198-.348.83.83 0 0 0-.426-.096c-.388 0-.641.163-.768.377-.126.215-.162.742-.162 1.194 0 .518.054.874.172 1.044.153.222.406.318.741.318.244 0 .479-.029.687-.11v-.646h-.886v-1.05h3.362zM256 128v48h32v-48Z" style="fill:gray;fill-opacity:1;fill-rule:nonzero;stroke:none;stroke-width:1.33333325"/><g style="fill:gray"><path d="m0 0-6.572.007c-.951 0-1.722.752-1.722 1.678v9.748c0 .926.771 1.677 1.722 1.677l4.113.005c.494 0 .895.39.895.872l.012 3.897a.37.37 0 0 0 .375.365h2.411a.37.37 0 0 0 .375-.365L1.634.364a.37.37 0 0 0-.375-.365zl-.031-.87h1.645c.494 0 .895.39.895.872v18.254a.884.884 0 0 1-.895.872h-3.163a.884.884 0 0 1-.895-.872l.005-3.907a.37.37 0 0 0-.376-.365l-3.757.006c-1.45 0-2.625-1.145-2.625-2.557V1.685c0-1.412 1.175-2.557 2.625-2.557l6.541.002z" style="fill:gray;fill-opacity:1;fill-rule:nonzero;stroke:none" transform="matrix(1.33333 0 0 -1.33333 284.655 212.17)"/></g><g style="fill:gray"><path d="M0 0v6.306a.97.97 0 0 1-.982.957.97.97 0 0 1-.982-.957V-.501a.97.97 0 0 1 .982-.957A.97.97 0 0 1 0-.501zl.893-.03v-.471c0-1.009-.84-1.827-1.875-1.827s-1.875.818-1.875 1.827v6.807c0 1.009.839 1.827 1.875 1.827 1.035 0 1.875-.818 1.875-1.827V-.03Z" style="fill:gray;fill-opacity:1;fill-rule:nonzero;stroke:none" transform="matrix(1.33333 0 0 -1.33333 281.396 207.386)"/></g><g style="fill:gray"><path d="M0 0h1.138a.37.37 0 0 1 .375.365l-.005 2.818c0 .927-.771 1.678-1.722 1.678h-5.692c-.951 0-1.722-.751-1.722-1.678v-9.747c0-.927.771-1.678 1.722-1.678h5.692c.951 0 1.722.751 1.722 1.678l.005 2.679a.37.37 0 0 1-.375.365H-1.01a.37.37 0 0 1-.375-.365l.013-1.278c0-1.009-.653-1.827-1.688-1.827s-1.687.818-1.687 1.827v6.808c0 1.008.652 1.826 1.687 1.826s1.688-.818 1.688-1.826l-.012-1.28A.37.37 0 0 1-1.01 0zl-.031-.878h-1.351a.883.883 0 0 0-.894.871l.011 1.652c0 .528-.252.956-.795.956-.542.001-.795-.428-.795-.956v-6.808c0-.528.253-.957.795-.957.543 0 .795.429.795.957l-.011 1.65c0 .481.4.872.894.872h2.9a.884.884 0 0 0 .895-.872l-.002-3.051c0-1.413-1.175-2.558-2.625-2.558h-5.692c-1.45 0-2.625 1.145-2.625 2.558v9.747c0 1.413 1.175 2.558 2.625 2.558h5.692c1.45 0 2.625-1.145 2.625-2.558l.002-3.19a.883.883 0 0 0-.895-.871H-.031z" style="fill:gray;fill-opacity:1;fill-rule:nonzero;stroke:none" transform="matrix(1.33333 0 0 -1.33333 267.375 201.17)"/></g><g style="fill:gray"><path d="m0 0-.317-.242-15.366-11.739-.317-.242.121-.392 5.869-18.993.121-.392H9.889l.121.392 5.869 18.993.121.392-.317.242L.317-.242z" style="fill:gray;fill-opacity:1;fill-rule:nonzero;stroke:none" transform="matrix(1.33333 0 0 -1.33333 250.667 218.667)"/></g><path d="m0 0 14-10.695L8.652-28H-8.652L-14-10.695Z" style="fill:red;fill-opacity:1;fill-rule:nonzero;stroke:none" transform="matrix(1.33333 0 0 -1.33333 250.667 221.423)"/><path d="M0 0v4.42c0 .924.023 1.873.093 2.822H0a57 57 0 0 0-1.331-2.747L-4.11.05-4.133 0Zm0-6.442v4.12h-6.866v1.997L-.677 9.788h3.386V0h1.962v-2.322H2.709v-4.12z" style="fill:#fff;fill-opacity:1;fill-rule:nonzero;stroke:none" transform="matrix(1.33333 0 0 -1.33333 251.872 244.461)"/><g style="fill:#e6e6e6;fill-opacity:.49019608"><path d="M0 0c-7.596 0-13.786 6.176-13.786 13.776 0 7.604 6.19 13.785 13.786 13.785 7.6 0 13.777-6.181 13.777-13.785C13.777 6.176 7.6 0 0 0m.001 59.776c-25.364 0-46.003-20.651-46.003-46s20.639-46 46.003-46c25.338 0 45.997 20.651 45.997 46s-20.659 46-45.997 46" style="fill:#e6e6e6;fill-opacity:.49019608;fill-rule:nonzero;stroke:none" transform="matrix(1.33333 0 0 -1.33333 170.67 189.034)"/></g><path d="M170.667 16C85.239 16 16 85.245 16 170.667s69.239 154.666 154.667 154.666c85.401 0 154.666-69.245 154.666-154.666C325.333 85.245 256.068 16 170.667 16" style="fill:none;fill-opacity:1;fill-rule:nonzero;stroke:#000;stroke-width:2.66666675;stroke-miterlimit:4;stroke-dasharray:none"/></svg>