<svg xmlns="http://www.w3.org/2000/svg" xml:space="preserve" width="256" height="256" viewBox="0 0 341.333 341.333"><g style="fill:#1c1c1c;fill-opacity:1"><path d="m0 0 .011.027c-4.513 4.062-10.488 7.691-17.542 10.862l.153.698c.442 1.998-.77 3.988-2.705 4.443l-35.114 8.285c-1.624.382-3.185-.462-3.929-1.905-12.644 1.986-26.168 3.051-39.833 3.051-13.666 0-27.193-1.065-39.837-3.047-.752 1.442-2.309 2.287-3.933 1.905l-35.114-8.285c-1.935-.455-3.147-2.449-2.705-4.443l.153-.698c-7.054-3.171-13.022-6.808-17.538-10.862l.011-.027c-10.365-8.482-17.037-20.829-17.037-36.257 0-23.143 18.709-46.286 44.903-46.286 7.484 0 16.532 3.09 20.143 4.96 17.377 6.206 29.95 10.469 50.954 10.469 21.003 0 33.576-4.263 50.954-10.469 3.611-1.87 12.659-4.96 20.143-4.96 26.193 0 44.903 23.143 44.903 46.286C17.041-20.825 10.369-8.478 0 0" style="fill:#1c1c1c;fill-opacity:1;fill-rule:nonzero;stroke:none" transform="matrix(1.33333 0 0 -1.33333 302.612 135.281)"/></g><g style="fill:#262626;fill-opacity:1"><path d="M0 0c0-25.405-20.595-46-46-46S-92-25.405-92 0s20.595 46 46 46S0 25.405 0 0" style="fill:#262626;fill-opacity:1;fill-rule:nonzero;stroke:none" transform="matrix(1.33333 0 0 -1.33333 138.667 184)"/></g><g style="fill:#262626;fill-opacity:1"><path d="M0 0c0-25.405-20.595-46-46-46S-92-25.405-92 0s20.595 46 46 46S0 25.405 0 0" style="fill:#262626;fill-opacity:1;fill-rule:nonzero;stroke:none" transform="matrix(1.33333 0 0 -1.33333 325.333 184)"/></g><g style="fill:#999;fill-opacity:1"><path d="M0 0c0-6.627-5.373-12-12-12S-24-6.627-24 0s5.373 12 12 12S0 6.627 0 0" style="fill:#999;fill-opacity:1;fill-rule:nonzero;stroke:none" transform="matrix(1.33333 0 0 -1.33333 277.333 171.076)"/></g><g style="fill:#999;fill-opacity:1"><path d="M0 0c0-6.627-5.373-12-12-12S-24-6.627-24 0s5.373 12 12 12S0 6.627 0 0" style="fill:#999;fill-opacity:1;fill-rule:nonzero;stroke:none" transform="matrix(1.33333 0 0 -1.33333 245.333 189.137)"/></g><g style="fill:#999;fill-opacity:1"><path d="M0 0c0-6.627-5.373-12-12-12S-24-6.627-24 0s5.373 12 12 12S0 6.627 0 0" style="fill:#999;fill-opacity:1;fill-rule:nonzero;stroke:none" transform="matrix(1.33333 0 0 -1.33333 312 163.757)"/></g><g style="fill:#0d0d0d;fill-opacity:1"><path d="M0 0c-17.645 0-32-14.355-32-32s14.355-32 32-32 32 14.355 32 32S17.645 0 0 0" style="fill:#0d0d0d;fill-opacity:1;fill-rule:nonzero;stroke:none" transform="matrix(1.33333 0 0 -1.33333 85.333 133.333)"/></g><g style="fill:#999"><path d="M0 0c0-12.15-9.85-22-22-22s-22 9.85-22 22 9.85 22 22 22S0 12.15 0 0" style="fill:#999;fill-opacity:1;fill-rule:nonzero;stroke:none" transform="matrix(1.33333 0 0 -1.33333 114.667 176)"/></g><g style="fill:#ccc;stroke:#ccc;stroke-opacity:1"><path d="M0 0a4 4 0 1 0-8 0 4 4 0 0 0 8 0" style="fill:#ccc;fill-opacity:1;fill-rule:nonzero;stroke:#ccc;stroke-opacity:1" transform="matrix(1.33333 0 0 -1.33333 266.667 171.076)"/></g><g style="fill:#ccc;fill-opacity:1"><path d="M18.841-27.316h-3.217a4.773 4.773 0 0 0-4.766 4.766v7.153a3.71 3.71 0 0 1-3.707 3.707H0a4.773 4.773 0 0 0-4.766 4.766v3.217A4.773 4.773 0 0 0 0 1.059h7.151a3.71 3.71 0 0 1 3.707 3.707v7.151a4.773 4.773 0 0 0 4.766 4.767h3.217a4.773 4.773 0 0 0 4.766-4.767V4.766a3.71 3.71 0 0 1 3.707-3.707h7.154a4.773 4.773 0 0 0 4.766-4.766v-3.217a4.773 4.773 0 0 0-4.766-4.766h-7.154a3.71 3.71 0 0 1-3.707-3.707v-7.153a4.773 4.773 0 0 0-4.766-4.766" style="fill:#ccc;fill-opacity:1;fill-rule:nonzero;stroke:#ccc" transform="matrix(1.33333 0 0 -1.33333 62.355 168.911)"/></g><g style="fill:#999;fill-opacity:1"><path d="M0 0c0-2.157-1.791-3.906-4-3.906S-8-2.157-8 0s1.791 3.906 4 3.906S0 2.157 0 0" style="fill:#999;fill-opacity:1;fill-rule:nonzero;stroke:none" transform="matrix(1.33333 0 0 -1.33333 160 207.875)"/></g><g style="fill:#999;fill-opacity:1"><path d="M0 0a4 4 0 1 0-8 0 4 4 0 0 0 8 0" style="fill:#999;fill-opacity:1;fill-rule:nonzero;stroke:none" transform="matrix(1.33333 0 0 -1.33333 192.266 208)"/></g><path d="M0 0h3.653a.5.5 0 0 0 .5-.5v-2.723a.5.5 0 0 0-.5-.5H0a.5.5 0 0 0-.5.5V-.5A.5.5 0 0 0 0 0" style="fill:#a6a6a6;fill-opacity:1;fill-rule:nonzero;stroke:none" transform="matrix(1.33333 0 0 -1.33333 168.231 125.737)"/><path d="M0 0a2.327 2.327 0 1 0 4.654 0A2.327 2.327 0 0 0 0 0" style="fill:#a6a6a6;fill-opacity:1;fill-rule:nonzero;stroke:none" transform="matrix(1.33333 0 0 -1.33333 167.565 121.81)"/><path d="m0 0-1.79 3.101a.5.5 0 0 0 .433.75h3.58a.5.5 0 0 0 .433-.75L.866 0A.5.5 0 0 0 0 0" style="fill:#a6a6a6;fill-opacity:1;fill-rule:nonzero;stroke:none" transform="matrix(1.33333 0 0 -1.33333 170.09 136.958)"/><path d="M175.541 138.847h-9.381v-21.043h9.381zm-10.024.586h10.667v-26.666h-10.667z" style="fill:#a6a6a6;fill-opacity:1;fill-rule:nonzero;stroke:none;stroke-width:1.33333325"/><g style="fill:#b3b3b3"><path d="M0 0a4 4 0 1 0-8 0 4 4 0 0 0 8 0" style="fill:#b3b3b3;fill-opacity:1;fill-rule:nonzero;stroke:none" transform="matrix(1.33333 0 0 -1.33333 90.667 176)"/></g></svg>