<?xml version="1.0" encoding="utf-8"?>
<!-- Generator: Adobe Illustrator 24.1.2, SVG Export Plug-In . SVG Version: 6.00 Build 0)  -->
<svg version="1.1"
	 id="svg2" inkscape:export-filename="/home/kivutar/libretro-super/retroarch/media/assets/xmb/monochrome/png/history.png" inkscape:export-xdpi="360" inkscape:export-ydpi="360" inkscape:version="0.48.5 r10040" sodipodi:docname="history.svg" xmlns:cc="http://creativecommons.org/ns#" xmlns:dc="http://purl.org/dc/elements/1.1/" xmlns:inkscape="http://www.inkscape.org/namespaces/inkscape" xmlns:rdf="http://www.w3.org/1999/02/22-rdf-syntax-ns#" xmlns:sodipodi="http://sodipodi.sourceforge.net/DTD/sodipodi-0.dtd" xmlns:svg="http://www.w3.org/2000/svg"
	 xmlns="http://www.w3.org/2000/svg" xmlns:xlink="http://www.w3.org/1999/xlink" x="0px" y="0px" viewBox="0 0 256 256"
	 style="enable-background:new 0 0 256 256;" xml:space="preserve">
<style type="text/css">
	.st0{fill:#F1C40F;}
	.st1{fill:#E67E22;}
</style>
<g>
	
		<sodipodi:namedview  bordercolor="#666666" borderopacity="1" gridtolerance="10" guidetolerance="10" id="namedview4" inkscape:current-layer="svg2" inkscape:cx="66.482606" inkscape:cy="32.005268" inkscape:pageopacity="0" inkscape:pageshadow="2" inkscape:window-height="836" inkscape:window-maximized="1" inkscape:window-width="1440" inkscape:window-x="0" inkscape:window-y="27" inkscape:zoom="7.375" objecttolerance="10" pagecolor="#808080" showgrid="true">
		<inkscape:grid  empspacing="4" enabled="true" id="grid2985" snapvisiblegridlinesonly="true" type="xygrid" visible="true">
			</inkscape:grid>
	</sodipodi:namedview>
	<path class="st0" d="M177.2,144l-44-44c-2.8-2.8-6.8-2.8-9.6,0l-44,44c-4.4,4.4-1.2,11.6,4.8,11.6h88.4
		C178.4,155.6,181.6,148.4,177.2,144z"/>
	<circle class="st1" cx="94.4" cy="139.2" r="4"/>
	<circle class="st1" cx="109.2" cy="124.8" r="4"/>
	<path class="st1" d="M173.2,151.2c-1.6,1.6-4,1.6-5.6,0L128,111.6l-6.8,6.4c-1.6,1.6-4,1.6-5.6,0s-1.6-4,0-5.6l9.2-9.2
		c1.6-1.6,4-1.6,5.6,0l42.4,42.4C174.8,147.2,174.8,149.6,173.2,151.2z"/>
</g>
</svg>
