<?xml version="1.0" encoding="utf-8"?>
<!-- Generator: Adobe Illustrator 24.1.1, SVG Export Plug-In . SVG Version: 6.00 Build 0)  -->
<svg version="1.1"
	 id="svg2" inkscape:version="0.92.3 (2405546, 2018-03-11)" sodipodi:docname="RPG Maker.svg" xmlns:cc="http://creativecommons.org/ns#" xmlns:dc="http://purl.org/dc/elements/1.1/" xmlns:inkscape="http://www.inkscape.org/namespaces/inkscape" xmlns:rdf="http://www.w3.org/1999/02/22-rdf-syntax-ns#" xmlns:sodipodi="http://sodipodi.sourceforge.net/DTD/sodipodi-0.dtd" xmlns:svg="http://www.w3.org/2000/svg"
	 xmlns="http://www.w3.org/2000/svg" xmlns:xlink="http://www.w3.org/1999/xlink" x="0px" y="0px" viewBox="0 0 256 256"
	 style="enable-background:new 0 0 256 256;" xml:space="preserve">
<style type="text/css">
	.st0{opacity:0.5;clip-path:url(#SVGID_2_);}
	.st1{fill:#FFFFFF;}
	.st2{fill:#8A1700;}
	.st3{fill:#878787;}
	.st4{fill:#B91F00;}
	.st5{fill:#231F20;}
	.st6{fill:#D4D4D4;}
</style>
<g id="g20" transform="matrix(1.3333333,0,0,-1.3333333,0,341.33333)">
	<g id="g22">
	</g>
	<g id="g34">
		<g>
			<defs>
				<rect id="SVGID_1_" x="-29.25" y="52" width="250.5" height="216"/>
			</defs>
			<clipPath id="SVGID_2_">
				<use xlink:href="#SVGID_1_"  style="overflow:visible;"/>
			</clipPath>
			<g id="g32" class="st0">
				<g id="g30" transform="translate(250.9199,132.0137)">
					<path id="path28" inkscape:connector-curvature="0" class="st1" d="M-62.73,31l-43.5,75l-1.73,2.99h-3.46h-87h-3.46l-1.73-2.99
						l-43.5-75l-1.75-3.01l1.75-3.01l43.5-75l1.73-2.99h3.46h87h3.46l1.73,2.99l43.5,75l1.75,3.01L-62.73,31z"/>
				</g>
			</g>
		</g>
	</g>
</g>
<path id="path38" inkscape:connector-curvature="0" class="st2" d="M185.65,27.98h-116l-58,100l58,100h116l58-100L185.65,27.98z"/>
<g>
	<g>
		<path class="st3" d="M146.21,126.45c4.71-3.29-1.88-3.06-1.88-12.94c0-9.88,11.76-8.94,11.76-8.94v45.4h25.82
			c0.02-0.23,0.05-0.47,0.05-0.69v-38.82l3.07-3.29v-7.06h-5.88c0,0-20.08-19.29-27.53-19.29c-10.59,0-18.45,12.94-18.45,24.71
			S141.5,129.74,146.21,126.45z"/>
		<path class="st3" d="M81.27,129.04c0,0-4.71-12.94-4.71-20c0-7.06,16.47-12,16.47-12s0.38,29.96,0.65,52.93h25.93v-62.1
			l-11.06-2.82c0,0-10.59-16.94-24-16.94c-13.41,0-22.59,19.78-22.59,35.78C61.97,126.45,81.27,129.04,81.27,129.04z"/>
		<path class="st3" d="M148.8,149.96v-9.4c0,0-0.47-3.63-4.47-3.63c-4,0-13.18,0-15.29,0c-2.12,0-2.12,3.4-2.12,3.4s0,1.88,0,7.76
			c0,0.67-0.1,1.29-0.27,1.87H148.8z"/>
	</g>
	<path class="st4" d="M180.37,154.24c0,0-1.05-6.23-8.03-6.23s-16.79,0-16.79,0c0,10.64-5.1,9.66-5.1,9.66s-2.65-9.66-10.58-9.66
		s-13.83,0-13.83,0s1.29,5.42-2.7,8.74c-4,3.32-4.66-2.51-4.66-2.51s-1.18-6.23-8.47-6.23c-5.29,0-0.88,0-5.69,0
		c-6.97,0-10.34-6.76-10.34-6.76s0,28.24,0,33.84s-7.2,4.61-7.2,4.61l-0.76,7.41h32.71l11.34-8.86v8.86c0,0,11.24,0,20.68,0
		C160.39,187.1,180.37,154.24,180.37,154.24z"/>
	<g>
		<path class="st5" d="M104.52,149.72c4.81,0,0.4,0,5.69,0c7.29,0,8.47,4.51,8.47,4.51s-1.18-9.1-8.47-9.1c-5.29,0-0.88,0-5.69,0
			c-6.97,0-10.34-6.76-10.34-6.76s0,1.8,0,4.59C94.18,142.96,97.55,149.72,104.52,149.72z"/>
		<path class="st5" d="M150.46,157.66c0,0-2.65-12.53-10.58-12.53s-13.83,0-13.83,0s0.23,2.02,0.19,4.59c1.04,0,6.51,0,13.63,0
			C147.81,149.72,150.46,157.66,150.46,157.66z"/>
		<path class="st5" d="M180.37,151.37c0,0-1.05-6.23-8.03-6.23s-15.87,0-15.87,0v4.59c0,0,8.9,0,15.87,0c5.51,0,7.32,3.87,7.84,5.51
			C180.41,153.93,180.49,152.63,180.37,151.37z"/>
		<polygon class="st5" points="160.39,145.13 157.71,102.57 156.47,149.72 		"/>
		<polygon class="st5" points="99.6,146.3 96.35,94.48 94.18,142.96 		"/>
	</g>
	<path class="st6" d="M182.91,97.65c-3.71,0-9.42-5.28-14.01-9.52c-5.71-5.28-10.64-9.84-15.88-9.84
		c-9.99,0-22.92,10.43-22.92,27.83c0,15.16,9.96,22.86,15.45,22.86c1.58,0,3.01-0.77,3.83-2.06c1.44-2.26,0.43-4.42-0.54-6.5
		c-0.84-1.8-1.98-4.26-1.98-6.54c0-5.02,1.71-5.08,6.07-6.98l0.39,42.1c0,2.81-1.06,4.13-1.97,5.16v-11.9c0,0-0.05-8.31-7.94-8.31
		h-12.62c-7.25,0-6.74,8.69-6.74,8.69s0,4.91,0,6.28c0,3.18-1.83,5.54-1.83,5.54c-0.01,0.01-0.04-68.76-0.04-68.76h-4.84
		c-3.52,0-8.43-5.18-12.77-9.75C99.02,70.09,93.28,65.5,86.6,65.5c-12.73,0-26.89,20.47-26.89,34.52
		c0,21.81,13.51,31.61,18.79,31.61c1.73,0,4.51-0.87,5.29-2.32c1.31-2.42-0.08-4.53-1-5.92c-1.31-1.99-3.5-5.32-3.5-10.49
		c0-8.18,5.25-10.07,12.09-12.43v73.13c0,3.43-2.87,3.56-3.36,3.56c-0.49,0-4.12,0-4.12,0l-0.04,13.33h29.44
		c5.39,0,10.03-2.29,14.45-8.34v8.34h20.72c11.11,0,36.2-29.98,36.2-40.96c0,0,0-32.55,0-36.29c0-2.55,3.25-2.8,3.25-2.8V97.65
		H182.91z M181.97,106.49c-2.35,0-3.1,1.94-3.1,3.24v39.21c0,8.83-23.22,36.42-31.11,36.42c-9.01,0-15.16,0-15.16,0v-18.43
		c0,0-11.18,18.43-19.01,18.43s-24.55,0-24.55,0v-4c0,0,7.31-0.05,7.31-6.09c0-6.79,0-80.78,0-80.78c-9.31,0-22.55,5.72-22.55,17.72
		c0,9.66,6.44,14.15,4.53,14.15c-1.91,0-13.61-5.97-13.61-25.99c0-11.83,13.29-29.74,22.93-29.74c9.63,0,17.63,21.04,29.85,21.04
		v69.94c6.9,0,9.51-4.44,10.45-10.41c0.6-3.8,0.5-10.13,0.5-10.13s0.04-2.49,3.36-2.49c3.28,0,11.72,0,11.72,0
		c1.93,0,3.71,1.71,3.71,3.64l-0.1,19.39c7.4,0,10.58-5.75,10.58-10.97c0-5.22,0-48.05,0-48.05c-8.36,0-15.58,3.18-15.58,11.71
		c0,5.57,4.4,10.62,2.79,10.62s-9.44-4.05-9.44-18.15c0-13,9.57-23.46,16.71-23.46c7.49,0,20.05,18.8,29.78,18.8V106.49z"/>
</g>
<sodipodi:namedview  bordercolor="#666666" borderopacity="1" gridtolerance="10" guidetolerance="10" id="namedview44" inkscape:current-layer="svg2" inkscape:cx="121.65412" inkscape:cy="113.08725" inkscape:pagecheckerboard="true" inkscape:pageopacity="0" inkscape:pageshadow="2" inkscape:window-height="705" inkscape:window-maximized="1" inkscape:window-width="1024" inkscape:window-x="-8" inkscape:window-y="-8" inkscape:zoom="1.84375" objecttolerance="10" pagecolor="#ffffff" showgrid="false">
	</sodipodi:namedview>
</svg>
