<svg xmlns="http://www.w3.org/2000/svg" xml:space="preserve" width="64" height="64"><path d="M44 14H20a2 2 0 0 0-2 2v32a2 2 0 0 0 2 2h24a2 2 0 0 0 2-2V16a2 2 0 0 0-2-2zm-2 32H22V34h20Zm0-16H22V18h20ZM24 20v8h16v-8zm0 16v8h16v-8z" style="fill:#e6e6e6;fill-opacity:1;stroke:#1a1a1a"/><path d="M22 18v12h20V18Zm2 2h16v8H24Zm-2 14v12h20V34Zm2 2h16v8H24Z" style="opacity:.98999999;vector-effect:none;fill:#999;fill-opacity:1;stroke:#1a1a1a;stroke-width:1;stroke-linecap:round;stroke-linejoin:round;stroke-miterlimit:4;stroke-dasharray:none;stroke-dashoffset:0;stroke-opacity:1"/><path d="M29 38v2h6v-2" style="fill:none;stroke:#1a1a1a;stroke-width:2;stroke-linecap:butt;stroke-linejoin:round;stroke-opacity:.99215686;stroke-miterlimit:4;stroke-dasharray:none"/><path d="M29 22v2h6v-2" style="fill:none;stroke:#1a1a1a;stroke-width:2;stroke-linecap:butt;stroke-linejoin:round;stroke-miterlimit:4;stroke-dasharray:none;stroke-opacity:.99215686"/></svg>