<svg xmlns="http://www.w3.org/2000/svg" xml:space="preserve" viewBox="0 0 256 256"><path d="M238.727 4H17.273C9.954 4 4 9.954 4 17.273v203.17l1.753 2.191 21.091 26.364L29.246 252h209.481c7.319 0 13.273-5.954 13.273-13.273V17.273C252 9.954 246.046 4 238.727 4" style="opacity:.5;fill:#fff"/><path d="M238.727 12H17.273A5.27 5.27 0 0 0 12 17.273v200.364L33.091 244h205.636a5.27 5.27 0 0 0 5.273-5.273V17.273A5.27 5.27 0 0 0 238.727 12" style="fill:#0000b8"/><path d="M224 32h16v12h-16z" style="fill:#00003d"/><path d="M220 244H60v-82.133c0-3.244 2.751-5.867 6.154-5.867h147.692c3.403 0 6.154 2.622 6.154 5.867z" style="fill:#00007b"/><path d="M38 12h180v110.2c0 3.207-2.366 5.8-5.294 5.8H43.294c-2.928 0-5.294-2.593-5.294-5.8z" style="fill:#f2f2f2"/><path d="M180.727 164H75.273c-2.916 0-5.273 3.251-5.273 7.273V244h116v-72.727c0-4.022-2.357-7.273-5.273-7.273m-63.272 72.727h-36.91v-65.455h36.909z" style="fill:#bfbfbf"/></svg>