<?xml version="1.0" encoding="iso-8859-1"?>
<!-- Generator: Adobe Illustrator 27.8.1, SVG Export Plug-In . SVG Version: 6.00 Build 0)  -->
<svg version="1.1" id="Layer_1" xmlns="http://www.w3.org/2000/svg" xmlns:xlink="http://www.w3.org/1999/xlink" x="0px" y="0px"
	 viewBox="0 0 256 256" style="enable-background:new 0 0 256 256;" xml:space="preserve">
<path style="opacity:0.5;fill:#FFFFFF;" d="M36,24v208c0,11.028,8.972,20,20,20h132h4h8c11.028,0,20-8.972,20-20v-70.93
	c0-3.351-1.665-6.461-4.453-8.32L208,147.719V140c6.617,0,12-5.383,12-12v-15.172c0-2.671-1.04-5.182-2.929-7.071L200,88.686V24
	c0-11.028-8.972-20-20-20H56C44.972,4,36,12.972,36,24L36,24z"/>
<path style="fill:#333333;" d="M44,24v208c0,6.627,5.373,12,12,12h132h4h8c6.627,0,12-5.373,12-12v-70.93
	c0-0.669-0.334-1.293-0.891-1.664l-9.328-6.219c-1.113-0.742-1.781-1.991-1.781-3.328V136c0-2.209,1.791-4,4-4h4
	c2.209,0,4-1.791,4-4v-15.172c0-0.53-0.211-1.039-0.586-1.414L192,92V24c0-6.627-5.373-12-12-12H56C49.373,12,44,17.373,44,24z"/>
<path style="fill:#404040;" d="M56,244h132h4h8c6.627,0,12-5.373,12-12v-3.221C198.814,221.302,165.759,216,127.061,216
	c-36.972,0-68.796,4.839-83.061,11.791V232C44,238.627,49.373,244,56,244z"/>
</svg>
