<svg xmlns="http://www.w3.org/2000/svg" xml:space="preserve" width="330.667" height="181.333"><defs><clipPath id="a" clipPathUnits="userSpaceOnUse"><path d="M0 256h256V0H0Z"/></clipPath><clipPath id="b" clipPathUnits="userSpaceOnUse"><path d="M4 196h248V60H4Z"/></clipPath></defs><g clip-path="url(#a)" transform="matrix(1.33333 0 0 -1.33333 -5.333 261.333)"><g clip-path="url(#b)" style="opacity:.5"><path d="M0 0v4.686h-72v-4h-88v4h-72V0c-4.656-1.651-8-6.1-8-11.314v-108c0-6.618 5.383-12 12-12H-4c6.617 0 12 5.382 12 12v108C8-6.1 4.656-1.651 0 0" style="fill:#fff;fill-opacity:1;fill-rule:nonzero;stroke:none" transform="translate(244 191.315)"/></g><path d="M0 0h-224a4 4 0 0 0-4 4v108a4 4 0 0 0 4 4H0a4 4 0 0 0 4-4V4a4 4 0 0 0-4-4" style="fill:#4c4c4c;fill-opacity:1;fill-rule:nonzero;stroke:none" transform="translate(240 68)"/><path d="M232 80H24v20h208z" style="fill:#404040;fill-opacity:1;fill-rule:nonzero;stroke:none"/><path d="M30 84h-2v12h2zm4 0h-2v12h2zm4 0h-2v12h2zm4 0h-2v12h2zm4 0h-2v12h2zm4 0h-2v12h2zm4 0h-2v12h2zm4 0h-2v12h2zm4 0h-2v12h2zm4 0h-2v12h2zm4 0h-2v12h2zm4 0h-2v12h2zm4 0h-2v12h2zm4 0h-2v12h2zm4 0h-2v12h2zm4 0h-2v12h2zm4 0h-2v12h2zm4 0h-2v12h2zm4 0h-2v12h2zm4 0h-2v12h2zm4 0h-2v12h2zm4 0h-2v12h2zm4 0h-2v12h2zm4 0h-2v12h2zm4 0h-2v12h2zm4 0h-2v12h2zm4 0h-2v12h2zm4 0h-2v12h2zm4 0h-2v12h2zm4 0h-2v12h2zm4 0h-2v12h2zm4 0h-2v12h2zm4 0h-2v12h2zm4 0h-2v12h2zm4 0h-2v12h2zm4 0h-2v12h2zm4 0h-2v12h2zm4 0h-2v12h2zm4 0h-2v12h2zm4 0h-2v12h2zm4 0h-2v12h2zm4 0h-2v12h2zm4 0h-2v12h2zm4 0h-2v12h2zm4 0h-2v12h2zm4 0h-2v12h2zm4 0h-2v12h2zm4 0h-2v12h2zm4 0h-2v12h2zm4 0h-2v12h2z" style="fill:#333;fill-opacity:1;fill-rule:nonzero;stroke:none"/><path d="M172 152H84v-48h88zm-2-46H86v44h84zm2 70H84v-20h88z" style="fill:#404040;fill-opacity:1;fill-rule:nonzero;stroke:none"/><path d="M170 158H86v16h84z" style="fill:#333;fill-opacity:1;fill-rule:nonzero;stroke:none"/><path d="M148 160h-40v-2h40z" style="fill:#a3834a;fill-opacity:1;fill-rule:nonzero;stroke:none"/><path d="M124 112H92v8h32zm40 0h-32v8h32z" style="fill:#e6e6e6;fill-opacity:1;fill-rule:nonzero;stroke:none"/><path d="M76 108H20v80h56z" style="fill:#404040;fill-opacity:1;fill-rule:nonzero;stroke:none"/><path d="M72 116H24v32h48z" style="fill:#333;fill-opacity:1;fill-rule:nonzero;stroke:none"/><path d="M0 0h-6a1 1 0 0 0-1 1v2a1 1 0 0 0 1 1h6a1 1 0 0 0 1-1V1a1 1 0 0 0-1-1" style="fill:#e6e6e6;fill-opacity:1;fill-rule:nonzero;stroke:none" transform="translate(33 140)"/><path d="M0 0h-6a1 1 0 0 0-1 1v2a1 1 0 0 0 1 1h6a1 1 0 0 0 1-1V1a1 1 0 0 0-1-1" style="fill:#e6e6e6;fill-opacity:1;fill-rule:nonzero;stroke:none" transform="translate(45 140)"/><path d="M0 0h-6a1 1 0 0 0-1 1v2a1 1 0 0 0 1 1h6a1 1 0 0 0 1-1V1a1 1 0 0 0-1-1" style="fill:#e6e6e6;fill-opacity:1;fill-rule:nonzero;stroke:none" transform="translate(57 140)"/><path d="M0 0h-6a1 1 0 0 0-1 1v2a1 1 0 0 0 1 1h6a1 1 0 0 0 1-1V1a1 1 0 0 0-1-1" style="fill:#e6e6e6;fill-opacity:1;fill-rule:nonzero;stroke:none" transform="translate(69 140)"/><path d="M0 0h-6a1 1 0 0 0-1 1v2a1 1 0 0 0 1 1h6a1 1 0 0 0 1-1V1a1 1 0 0 0-1-1" style="fill:#e6e6e6;fill-opacity:1;fill-rule:nonzero;stroke:none" transform="translate(33 130)"/><path d="M0 0h-6a1 1 0 0 0-1 1v2a1 1 0 0 0 1 1h6a1 1 0 0 0 1-1V1a1 1 0 0 0-1-1" style="fill:#e6e6e6;fill-opacity:1;fill-rule:nonzero;stroke:none" transform="translate(45 130)"/><path d="M0 0h-6a1 1 0 0 0-1 1v2a1 1 0 0 0 1 1h6a1 1 0 0 0 1-1V1a1 1 0 0 0-1-1" style="fill:#e6e6e6;fill-opacity:1;fill-rule:nonzero;stroke:none" transform="translate(57 130)"/><path d="M0 0h-6a1 1 0 0 0-1 1v2a1 1 0 0 0 1 1h6a1 1 0 0 0 1-1V1a1 1 0 0 0-1-1" style="fill:#9bc2dd;fill-opacity:1;fill-rule:nonzero;stroke:none" transform="translate(69 130)"/><path d="M0 0h-6a1 1 0 0 0-1 1v2a1 1 0 0 0 1 1h6a1 1 0 0 0 1-1V1a1 1 0 0 0-1-1" style="fill:#e6e6e6;fill-opacity:1;fill-rule:nonzero;stroke:none" transform="translate(33 120)"/><path d="M0 0h-6a1 1 0 0 0-1 1v2a1 1 0 0 0 1 1h6a1 1 0 0 0 1-1V1a1 1 0 0 0-1-1" style="fill:#e6e6e6;fill-opacity:1;fill-rule:nonzero;stroke:none" transform="translate(45 120)"/><path d="M0 0h-6a1 1 0 0 0-1 1v2a1 1 0 0 0 1 1h6a1 1 0 0 0 1-1V1a1 1 0 0 0-1-1" style="fill:#e6e6e6;fill-opacity:1;fill-rule:nonzero;stroke:none" transform="translate(57 120)"/><path d="M0 0h-6a1 1 0 0 0-1 1v2a1 1 0 0 0 1 1h6a1 1 0 0 0 1-1V1a1 1 0 0 0-1-1" style="fill:#9bc2dd;fill-opacity:1;fill-rule:nonzero;stroke:none" transform="translate(69 120)"/><path d="M72 156H24v28h48z" style="fill:#4c4c4c;fill-opacity:1;fill-rule:nonzero;stroke:none"/><path d="M0 0c-7.732 0-14-6.268-14-14s6.268-14 14-14 14 6.268 14 14S7.732 0 0 0" style="fill:#595959;fill-opacity:1;fill-rule:nonzero;stroke:none" transform="translate(48 188)"/><path d="M0 0c5.514 0 10-4.486 10-10S5.514-20 0-20s-10 4.486-10 10S-5.514 0 0 0" style="fill:#e6e6e6;fill-opacity:1;fill-rule:nonzero;stroke:none" transform="translate(48 184)"/><path d="M236 108h-56v80h56z" style="fill:#404040;fill-opacity:1;fill-rule:nonzero;stroke:none"/><path d="M232 116h-48v32h48z" style="fill:#333;fill-opacity:1;fill-rule:nonzero;stroke:none"/><path d="M0 0h-6a1 1 0 0 0-1 1v2a1 1 0 0 0 1 1h6a1 1 0 0 0 1-1V1a1 1 0 0 0-1-1" style="fill:#e6e6e6;fill-opacity:1;fill-rule:nonzero;stroke:none" transform="translate(193 140)"/><path d="M0 0h-6a1 1 0 0 0-1 1v2a1 1 0 0 0 1 1h6a1 1 0 0 0 1-1V1a1 1 0 0 0-1-1" style="fill:#e6e6e6;fill-opacity:1;fill-rule:nonzero;stroke:none" transform="translate(205 140)"/><path d="M0 0h-6a1 1 0 0 0-1 1v2a1 1 0 0 0 1 1h6a1 1 0 0 0 1-1V1a1 1 0 0 0-1-1" style="fill:#e6e6e6;fill-opacity:1;fill-rule:nonzero;stroke:none" transform="translate(217 140)"/><path d="M0 0h-6a1 1 0 0 0-1 1v2a1 1 0 0 0 1 1h6a1 1 0 0 0 1-1V1a1 1 0 0 0-1-1" style="fill:#e6e6e6;fill-opacity:1;fill-rule:nonzero;stroke:none" transform="translate(229 140)"/><path d="M0 0h-6a1 1 0 0 0-1 1v2a1 1 0 0 0 1 1h6a1 1 0 0 0 1-1V1a1 1 0 0 0-1-1" style="fill:#e6e6e6;fill-opacity:1;fill-rule:nonzero;stroke:none" transform="translate(193 130)"/><path d="M0 0h-6a1 1 0 0 0-1 1v2a1 1 0 0 0 1 1h6a1 1 0 0 0 1-1V1a1 1 0 0 0-1-1" style="fill:#e6e6e6;fill-opacity:1;fill-rule:nonzero;stroke:none" transform="translate(205 130)"/><path d="M0 0h-6a1 1 0 0 0-1 1v2a1 1 0 0 0 1 1h6a1 1 0 0 0 1-1V1a1 1 0 0 0-1-1" style="fill:#e6e6e6;fill-opacity:1;fill-rule:nonzero;stroke:none" transform="translate(217 130)"/><path d="M0 0h-6a1 1 0 0 0-1 1v2a1 1 0 0 0 1 1h6a1 1 0 0 0 1-1V1a1 1 0 0 0-1-1" style="fill:#9bc2dd;fill-opacity:1;fill-rule:nonzero;stroke:none" transform="translate(229 130)"/><path d="M0 0h-6a1 1 0 0 0-1 1v2a1 1 0 0 0 1 1h6a1 1 0 0 0 1-1V1a1 1 0 0 0-1-1" style="fill:#e6e6e6;fill-opacity:1;fill-rule:nonzero;stroke:none" transform="translate(193 120)"/><path d="M0 0h-6a1 1 0 0 0-1 1v2a1 1 0 0 0 1 1h6a1 1 0 0 0 1-1V1a1 1 0 0 0-1-1" style="fill:#e6e6e6;fill-opacity:1;fill-rule:nonzero;stroke:none" transform="translate(205 120)"/><path d="M0 0h-6a1 1 0 0 0-1 1v2a1 1 0 0 0 1 1h6a1 1 0 0 0 1-1V1a1 1 0 0 0-1-1" style="fill:#e6e6e6;fill-opacity:1;fill-rule:nonzero;stroke:none" transform="translate(217 120)"/><path d="M0 0h-6a1 1 0 0 0-1 1v2a1 1 0 0 0 1 1h6a1 1 0 0 0 1-1V1a1 1 0 0 0-1-1" style="fill:#9bc2dd;fill-opacity:1;fill-rule:nonzero;stroke:none" transform="translate(229 120)"/><path d="M232 156h-48v28h48z" style="fill:#4c4c4c;fill-opacity:1;fill-rule:nonzero;stroke:none"/><path d="M0 0c-7.732 0-14-6.268-14-14s6.268-14 14-14 14 6.268 14 14S7.732 0 0 0" style="fill:#595959;fill-opacity:1;fill-rule:nonzero;stroke:none" transform="translate(208 188)"/><path d="M0 0c5.514 0 10-4.486 10-10S5.514-20 0-20s-10 4.486-10 10S-5.514 0 0 0" style="fill:#e6e6e6;fill-opacity:1;fill-rule:nonzero;stroke:none" transform="translate(208 184)"/></g></svg>