<svg height="330.66666" viewBox="0 0 330.66665 330.66665" width="330.66666" xmlns="http://www.w3.org/2000/svg" xmlns:xlink="http://www.w3.org/1999/xlink"><clipPath id="a"><path d="m0 256h256v-256h-256z"/></clipPath><clipPath id="b"><path d="m4 252h248v-248h-248z"/></clipPath><clipPath id="c"><path d="m94.8573 161.143h66.2857v-66.2859h-66.2857z"/></clipPath><g clip-path="url(#a)" transform="matrix(1.3333333 0 0 -1.3333333 -5.333333 335.99999)"><g clip-path="url(#b)" opacity=".5"><path d="m0 0c-16.569 0-30 13.431-30 30 0 16.568 13.431 30 30 30s30-13.432 30-30c0-16.569-13.431-30-30-30m111.857 154h-223.714c-6.696 0-12.143-5.447-12.143-12.143v-223.714c0-6.696 5.447-12.143 12.143-12.143h79.857 8 48 8 79.857c6.696 0 12.143 5.447 12.143 12.143v163.857 8 51.857c0 6.696-5.447 12.143-12.143 12.143" fill="#fff" transform="translate(128 98)"/></g><g clip-path="url(#c)" opacity=".5"><path d="m0 0c13.728 0 24.857-11.129 24.857-24.857s-11.129-24.857-24.857-24.857-24.857 11.129-24.857 24.857 11.129 24.857 24.857 24.857m0 8.286c-18.304 0-33.143-14.839-33.143-33.143s14.839-33.143 33.143-33.143 33.143 14.839 33.143 33.143-14.839 33.143-33.143 33.143" fill="#efefef" transform="translate(128.0001 152.8571)"/></g><path d="m0 0c16.016 0 29-12.984 29-29s-12.984-29-29-29-29 12.984-29 29 12.984 29 29 29m0 87c-64.065 0-116-51.935-116-116s51.935-116 116-116 116 51.935 116 116-51.935 116-116 116" fill="#454545" transform="translate(128.0001 157)"/><path d="m0 0c15.464 0 28-12.536 28-28s-12.536-28-28-28-28 12.536-28 28 12.536 28 28 28m0 30c-32.033 0-58-25.967-58-58s25.967-58 58-58 58 25.967 58 58-25.967 58-58 58" fill="#4f4f4f" transform="translate(128.0001 156)"/><path d="m0 0c6.648 0 12-5.352 12-12v-32c0-6.648-5.352-12-12-12s-12 5.352-12 12v32c0 6.648 5.352 12 12 12m42 43.5c3.314 0 6-2.686 6-6s-2.686-6-6-6-6 2.686-6 6 2.686 6 6 6m-42 40.5c17.673 0 32-14.327 32-32s-14.327-32-32-32-32 14.327-32 32 14.327 32 32 32m-111.857 84c-2.295 0-4.143-1.848-4.143-4.143v-223.714c0-2.295 1.848-4.143 4.143-4.143h79.857c0 2.288 1.712 4.143 4 4.143s4-1.855 4-4.143h48c0 2.288 1.712 4.143 4 4.143s4-1.855 4-4.143h79.857c2.295 0 4.143 1.848 4.143 4.143v163.857h-4.143v8h4.143v51.857c0 2.295-1.848 4.143-4.143 4.143z" fill="#3b3b3b" transform="translate(128.0001 76)"/><path d="m0 0h153.846c1.699 0 3.077-1.791 3.077-4v-48c0-2.209-1.378-4-3.077-4h-153.846c-1.699 0-3.077 1.791-3.077 4v48c0 2.209 1.378 4 3.077 4" fill="#f2f2f2" transform="translate(51.0769 236)"/></g></svg>