<svg height="157.33333" viewBox="0 0 330.66665 157.33333" width="330.66666" xmlns="http://www.w3.org/2000/svg" xmlns:xlink="http://www.w3.org/1999/xlink"><clipPath id="a"><path d="m0 256h256v-256h-256z"/></clipPath><clipPath id="b"><path d="m4 187h248v-118h-248z"/></clipPath><g transform="matrix(1.3333333 0 0 -1.3333333 -5.333333 249.33333)"><g clip-path="url(#a)"><g clip-path="url(#b)" opacity=".5"><path d="m4 69h248v118h-248z" fill="#fff"/></g></g><path d="m242 125.501h-228v30.499h228z" fill="#b3b3b3"/><path d="m244 152h-232v28h232z" fill="#bfbfbf"/><path d="m0 0h-218.407-13.593v-52h232z" fill="#bfbfbf" transform="translate(244 128)"/><path d="m0 0 31.408 24h-4.233l-31.408-24z" fill="#808080" transform="translate(32.2328 156)"/><path d="m0 0 31.408 24h-4.233l-31.408-24z" fill="#808080" transform="translate(41.6657 156)"/><path d="m0 0 31.408 24h-4.233l-31.408-24z" fill="#808080" transform="translate(51.0986 156)"/><path d="m0 0 31.408 24h-4.233l-31.408-24z" fill="#808080" transform="translate(60.5315 156)"/><path d="m0 0 31.408 24h-4.233l-31.408-24z" fill="#808080" transform="translate(69.9644 156)"/><path d="m0 0 31.408 24h-4.233l-31.408-24z" fill="#808080" transform="translate(79.3973 156)"/><path d="m0 0 31.408 24h-4.233l-31.408-24z" fill="#808080" transform="translate(88.8302 156)"/><path d="m0 0 31.408 24h-4.233l-31.408-24z" fill="#808080" transform="translate(98.2631 156)"/><path d="m0 0 31.408 24h-4.233l-31.408-24z" fill="#808080" transform="translate(107.696 156)"/><path d="m0 0 31.408 24h-4.233l-31.408-24z" fill="#808080" transform="translate(117.1288 156)"/><path d="m0 0 31.408 24h-4.233l-31.408-24z" fill="#808080" transform="translate(126.5618 156)"/><path d="m0 0 31.408 24h-4.233l-31.408-24z" fill="#808080" transform="translate(135.9946 156)"/><path d="m0 0 31.408 24h-4.233l-31.408-24z" fill="#808080" transform="translate(145.4275 156)"/><path d="m0 0 31.408 24h-4.233l-31.408-24z" fill="#808080" transform="translate(154.8604 156)"/><path d="m0 0 31.408 24h-4.233l-31.408-24z" fill="#808080" transform="translate(164.2933 156)"/><path d="m0 0 31.408 24h-4.233l-31.408-24z" fill="#808080" transform="translate(173.7262 156)"/><path d="m0 0 31.408 24h-4.233l-31.408-24z" fill="#808080" transform="translate(183.1591 156)"/><path d="m0 0 31.408 24h-4.233l-31.408-24z" fill="#808080" transform="translate(192.592 156)"/><path d="m244 148h-232v-16h232z" fill="#bfbfbf"/><path d="m0 0h-11.471l4.556 3.668 4.028 2.949h11.926zm-13.236 0h-11.472l4.555 3.667 4.03 2.95h11.621l-3.049-2.455zm-13.237 0h-11.471l4.556 3.668 4.029 2.949h11.621l-3.051-2.456zm-13.236 0h-11.471l4.556 3.668 4.028 2.949h11.622l-3.05-2.455zm-13.236 0h-11.472l4.555 3.667 4.03 2.95h11.621l-3.049-2.455zm-13.237 0h-11.471l4.556 3.668 4.029 2.949h11.621l-3.051-2.456zm-13.236 0h-11.471l4.556 3.668 4.028 2.949h11.622l-3.05-2.455zm-13.236 0h-11.472l4.555 3.667 4.03 2.95h11.621l-3.049-2.455zm-13.237 0h-11.471l4.556 3.668 4.029 2.949h11.621l-3.051-2.456zm-13.236 0h-11.471l8.218 6.617h11.988l-3.05-2.455zm-3.643 7.309-9.936-8h133.071l10.929 8z" fill="#808080" transform="translate(156.706 129.6914)"/><path d="m0 0 3.805 4h48.195l-3.881-4z" fill="#b3b3b3" transform="translate(176 138)"/><g fill="#d9d9d9"><path d="m24 116.075h-8v8h8z"/><path d="m28 104.075h-12v8h12z"/><path d="m36 116.075h-8v8h8z"/><path d="m40 104.075h-8v8h8z"/><path d="m44 92.075h-8v8h8z"/><path d="m56 92.075h-8v8h8z"/><path d="m68 92.075h-8v8h8z"/><path d="m80 92.075h-8v8h8z"/><path d="m92 92.075h-8v8h8z"/><path d="m104 92.075h-8v8h8z"/><path d="m116 92.075h-8v8h8z"/><path d="m128 92.075h-8v8h8z"/><path d="m140 92.075h-8v8h8z"/><path d="m52 104.075h-8v8h8z"/><path d="m64 104.075h-8v8h8z"/><path d="m76 104.075h-8v8h8z"/><path d="m88 104.075h-8v8h8z"/><path d="m100 104.075h-8v8h8z"/><path d="m112 104.075h-8v8h8z"/><path d="m124 104.075h-8v8h8z"/><path d="m136 104.075h-8v8h8z"/><path d="m164 104.075h-8v8h8z"/><path d="m204 116.075h-8v8h8z"/><path d="m216 116.075h-8v8h8z"/><path d="m228 116.075h-8v8h8z"/><path d="m240 116.075h-8v8h8z"/><path d="m204 104.075h-8v8h8z"/><path d="m216 104.075h-8v8h8z"/><path d="m228 104.075h-8v8h8z"/><path d="m240 104.075h-8v8h8z"/><path d="m204 92.075h-8v8h8z"/><path d="m216 92.075h-8v8h8z"/><path d="m228 92.075h-8v8h8z"/><path d="m204 80.075h-8v8h8z"/><path d="m216 80.075h-8v8h8z"/><path d="m228 80.075h-8v8h8z"/><path d="m240 80.075h-8v20h8z"/><path d="m176 104.075h-8v8h8z"/><path d="m188 104.075h-8v8h8z"/><path d="m164 92.075h-8v8h8z"/><path d="m176 92.075h-8v8h8z"/><path d="m188 92.075h-8v8h8z"/><path d="m148 92.075h-8v20h8z"/><path d="m48 116.075h-8v8h8z"/><path d="m60 116.075h-8v8h8z"/><path d="m72 116.075h-8v8h8z"/><path d="m84 116.075h-8v8h8z"/><path d="m96 116.075h-8v8h8z"/><path d="m108 116.075h-8v8h8z"/><path d="m120 116.075h-8v8h8z"/><path d="m132 116.075h-8v8h8z"/><path d="m148 116.075h-12v8h12z"/><path d="m168 116.075h-12v8h12z"/><path d="m188 116.075h-12v8h12z"/><path d="m32 92.075h-16v8.075h16z"/><path d="m32 80h-16v8.075h16z"/><path d="m136 80h-16v8.075h16z"/><path d="m116 80h-80v8.075h80z"/></g></g></svg>