<?xml version="1.0" encoding="UTF-8" standalone="no"?>
<svg
   xmlns:dc="http://purl.org/dc/elements/1.1/"
   xmlns:cc="http://creativecommons.org/ns#"
   xmlns:rdf="http://www.w3.org/1999/02/22-rdf-syntax-ns#"
   xmlns:svg="http://www.w3.org/2000/svg"
   xmlns="http://www.w3.org/2000/svg"
   viewBox="0 0 330.66665 256"
   height="256"
   width="330.66666"
   xml:space="preserve"
   id="svg2"
   version="1.1"><metadata
     id="metadata8"><rdf:RDF><cc:Work
         rdf:about=""><dc:format>image/svg+xml</dc:format><dc:type
           rdf:resource="http://purl.org/dc/dcmitype/StillImage" /></cc:Work></rdf:RDF></metadata><defs
     id="defs6"><clipPath
       id="clipPath18"
       clipPathUnits="userSpaceOnUse"><path
         id="path16"
         d="M 0,256 H 256 V 0 H 0 Z" /></clipPath><clipPath
       id="clipPath26"
       clipPathUnits="userSpaceOnUse"><path
         id="path24"
         d="M 4,224 H 252 V 32 H 4 Z" /></clipPath></defs><g
     transform="matrix(1.3333333,0,0,-1.3333333,-5.3333332,298.66666)"
     id="g10"><g
       id="g12"><g
         clip-path="url(#clipPath18)"
         id="g14"><g
           id="g20"><g
             id="g22" /><g
             id="g34"><g
               style="opacity:0.5"
               id="g32"
               clip-path="url(#clipPath26)"><g
                 id="g30"
                 transform="translate(244,224)"><path
                   id="path28"
                   style="fill:#ffffff;fill-opacity:1;fill-rule:nonzero;stroke:none"
                   d="m 0,0 h -28 -4 -2 -2 -2 -2 -2 -2 -2 -2 -2 -2 -2 -2 -2 -2 -2 -2 -2 -2 -2 -2 -2 -2 -2 -2 -2 -2 -2 -2 -2 -2 -2 -2 -2 -2 -2 -2 -2 -2 -2 -2 -2 -2 -2 -2 -2 -2 -2 -2 -2 -2 -2 -2 -2 -2 -2 -2 -2 -2 -2 -2 -2 -2 -2 -2 -2 -2 -2 -2 -2 -2 -2 -2 -2 -2 -2 -2 -2 -2 -2 -2 -2 -2 -2 -2 -2 -2 -28 -8 v -8 -84 -20 -72 -8 h 8 232 8 v 8 72 20 84 8 z" /></g></g></g></g></g></g><path
       id="path36"
       style="fill:#a6a6a6;fill-opacity:1;fill-rule:nonzero;stroke:none"
       d="M 244,40 H 12 v 176 h 232 z" /><path
       id="path38"
       style="fill:#b80000;fill-opacity:1;fill-rule:nonzero;stroke:none"
       d="m 220,92 h -16 v 8 h 16 z" /><path
       id="path40"
       style="fill:#d35400;fill-opacity:1;fill-rule:nonzero;stroke:none"
       d="m 220,80 h -16 v 8 h 16 z" /><path
       id="path42"
       style="fill:#e77f22;fill-opacity:1;fill-rule:nonzero;stroke:none"
       d="m 220,68 h -16 v 8 h 16 z" /><path
       id="path44"
       style="fill:#e77f22;fill-opacity:1;fill-rule:nonzero;stroke:none"
       d="m 220,56 h -16 v 8 h 16 z" /><g
       transform="translate(36,104)"
       id="g46"><path
         id="path48"
         style="fill:#262626;fill-opacity:1;fill-rule:nonzero;stroke:none"
         d="m 0,0 v -24 h 4 v -20 h 24 v -12 h 96 v 12 h 24 v 20 h 12 V 0 Z" /></g><path
       id="path50"
       style="fill:#999999;fill-opacity:1;fill-rule:nonzero;stroke:none"
       d="M 244,112 H 12 v 20 h 232 z" /><g
       transform="translate(40,132)"
       id="g52"><path
         id="path54"
         style="fill:#a6a6a6;fill-opacity:1;fill-rule:nonzero;stroke:none"
         d="M 0,0 -28,-20 V 84 H 0 Z" /></g><g
       transform="translate(216,132)"
       id="g56"><path
         id="path58"
         style="fill:#a6a6a6;fill-opacity:1;fill-rule:nonzero;stroke:none"
         d="M 0,0 28,-20 V 84 H 0 Z" /></g><path
       id="path60"
       style="fill:#999999;fill-opacity:1;fill-rule:nonzero;stroke:none"
       d="M 216,132 H 40 v 24 h 176 z" /><path
       id="path62"
       style="fill:#8c8c8c;fill-opacity:1;fill-rule:nonzero;stroke:none"
       d="M 216,156 H 40 v 60 h 176 z" /><path
       id="path64"
       style="fill:#999999;fill-opacity:1;fill-rule:nonzero;stroke:none"
       d="m 44,160 h -2 v 56 h 2 z" /><path
       id="path66"
       style="fill:#999999;fill-opacity:1;fill-rule:nonzero;stroke:none"
       d="m 48,160 h -2 v 56 h 2 z" /><path
       id="path68"
       style="fill:#999999;fill-opacity:1;fill-rule:nonzero;stroke:none"
       d="m 52,160 h -2 v 56 h 2 z" /><path
       id="path70"
       style="fill:#999999;fill-opacity:1;fill-rule:nonzero;stroke:none"
       d="m 56,160 h -2 v 56 h 2 z" /><path
       id="path72"
       style="fill:#999999;fill-opacity:1;fill-rule:nonzero;stroke:none"
       d="m 60,160 h -2 v 56 h 2 z" /><path
       id="path74"
       style="fill:#999999;fill-opacity:1;fill-rule:nonzero;stroke:none"
       d="m 64,160 h -2 v 56 h 2 z" /><path
       id="path76"
       style="fill:#999999;fill-opacity:1;fill-rule:nonzero;stroke:none"
       d="m 68,160 h -2 v 56 h 2 z" /><path
       id="path78"
       style="fill:#999999;fill-opacity:1;fill-rule:nonzero;stroke:none"
       d="m 72,160 h -2 v 56 h 2 z" /><path
       id="path80"
       style="fill:#999999;fill-opacity:1;fill-rule:nonzero;stroke:none"
       d="m 76,160 h -2 v 56 h 2 z" /><path
       id="path82"
       style="fill:#999999;fill-opacity:1;fill-rule:nonzero;stroke:none"
       d="m 80,160 h -2 v 56 h 2 z" /><path
       id="path84"
       style="fill:#999999;fill-opacity:1;fill-rule:nonzero;stroke:none"
       d="m 84,160 h -2 v 56 h 2 z" /><path
       id="path86"
       style="fill:#999999;fill-opacity:1;fill-rule:nonzero;stroke:none"
       d="m 88,160 h -2 v 56 h 2 z" /><path
       id="path88"
       style="fill:#999999;fill-opacity:1;fill-rule:nonzero;stroke:none"
       d="m 92,160 h -2 v 56 h 2 z" /><path
       id="path90"
       style="fill:#999999;fill-opacity:1;fill-rule:nonzero;stroke:none"
       d="m 96,160 h -2 v 56 h 2 z" /><path
       id="path92"
       style="fill:#999999;fill-opacity:1;fill-rule:nonzero;stroke:none"
       d="m 100,160 h -2 v 56 h 2 z" /><path
       id="path94"
       style="fill:#999999;fill-opacity:1;fill-rule:nonzero;stroke:none"
       d="m 104,160 h -2 v 56 h 2 z" /><path
       id="path96"
       style="fill:#999999;fill-opacity:1;fill-rule:nonzero;stroke:none"
       d="m 108,160 h -2 v 56 h 2 z" /><path
       id="path98"
       style="fill:#999999;fill-opacity:1;fill-rule:nonzero;stroke:none"
       d="m 112,160 h -2 v 56 h 2 z" /><path
       id="path100"
       style="fill:#999999;fill-opacity:1;fill-rule:nonzero;stroke:none"
       d="m 116,160 h -2 v 56 h 2 z" /><path
       id="path102"
       style="fill:#999999;fill-opacity:1;fill-rule:nonzero;stroke:none"
       d="m 120,160 h -2 v 56 h 2 z" /><path
       id="path104"
       style="fill:#999999;fill-opacity:1;fill-rule:nonzero;stroke:none"
       d="m 124,160 h -2 v 56 h 2 z" /><path
       id="path106"
       style="fill:#999999;fill-opacity:1;fill-rule:nonzero;stroke:none"
       d="m 128,160 h -2 v 56 h 2 z" /><path
       id="path108"
       style="fill:#999999;fill-opacity:1;fill-rule:nonzero;stroke:none"
       d="m 132,160 h -2 v 56 h 2 z" /><path
       id="path110"
       style="fill:#999999;fill-opacity:1;fill-rule:nonzero;stroke:none"
       d="m 136,160 h -2 v 56 h 2 z" /><path
       id="path112"
       style="fill:#999999;fill-opacity:1;fill-rule:nonzero;stroke:none"
       d="m 140,160 h -2 v 56 h 2 z" /><path
       id="path114"
       style="fill:#999999;fill-opacity:1;fill-rule:nonzero;stroke:none"
       d="m 144,160 h -2 v 56 h 2 z" /><path
       id="path116"
       style="fill:#999999;fill-opacity:1;fill-rule:nonzero;stroke:none"
       d="m 148,160 h -2 v 56 h 2 z" /><path
       id="path118"
       style="fill:#999999;fill-opacity:1;fill-rule:nonzero;stroke:none"
       d="m 152,160 h -2 v 56 h 2 z" /><path
       id="path120"
       style="fill:#999999;fill-opacity:1;fill-rule:nonzero;stroke:none"
       d="m 156,160 h -2 v 56 h 2 z" /><path
       id="path122"
       style="fill:#999999;fill-opacity:1;fill-rule:nonzero;stroke:none"
       d="m 160,160 h -2 v 56 h 2 z" /><path
       id="path124"
       style="fill:#999999;fill-opacity:1;fill-rule:nonzero;stroke:none"
       d="m 164,160 h -2 v 56 h 2 z" /><path
       id="path126"
       style="fill:#999999;fill-opacity:1;fill-rule:nonzero;stroke:none"
       d="m 168,160 h -2 v 56 h 2 z" /><path
       id="path128"
       style="fill:#999999;fill-opacity:1;fill-rule:nonzero;stroke:none"
       d="m 172,160 h -2 v 56 h 2 z" /><path
       id="path130"
       style="fill:#999999;fill-opacity:1;fill-rule:nonzero;stroke:none"
       d="m 176,160 h -2 v 56 h 2 z" /><path
       id="path132"
       style="fill:#999999;fill-opacity:1;fill-rule:nonzero;stroke:none"
       d="m 180,160 h -2 v 56 h 2 z" /><path
       id="path134"
       style="fill:#999999;fill-opacity:1;fill-rule:nonzero;stroke:none"
       d="m 184,160 h -2 v 56 h 2 z" /><path
       id="path136"
       style="fill:#999999;fill-opacity:1;fill-rule:nonzero;stroke:none"
       d="m 188,160 h -2 v 56 h 2 z" /><path
       id="path138"
       style="fill:#999999;fill-opacity:1;fill-rule:nonzero;stroke:none"
       d="m 192,160 h -2 v 56 h 2 z" /><path
       id="path140"
       style="fill:#999999;fill-opacity:1;fill-rule:nonzero;stroke:none"
       d="m 196,160 h -2 v 56 h 2 z" /><path
       id="path142"
       style="fill:#999999;fill-opacity:1;fill-rule:nonzero;stroke:none"
       d="m 200,160 h -2 v 56 h 2 z" /><path
       id="path144"
       style="fill:#999999;fill-opacity:1;fill-rule:nonzero;stroke:none"
       d="m 204,160 h -2 v 56 h 2 z" /><path
       id="path146"
       style="fill:#999999;fill-opacity:1;fill-rule:nonzero;stroke:none"
       d="m 208,160 h -2 v 56 h 2 z" /><path
       id="path148"
       style="fill:#737373;fill-opacity:1;fill-rule:nonzero;stroke:none"
       d="m 52,200 h -2 v 12 h 2 z" /><path
       id="path150"
       style="fill:#737373;fill-opacity:1;fill-rule:nonzero;stroke:none"
       d="m 56,200 h -2 v 12 h 2 z" /><path
       id="path152"
       style="fill:#737373;fill-opacity:1;fill-rule:nonzero;stroke:none"
       d="m 56,172 h -2 v 24 h 2 z" /><path
       id="path154"
       style="fill:#737373;fill-opacity:1;fill-rule:nonzero;stroke:none"
       d="m 60,172 h -2 v 24 h 2 z" /><path
       id="path156"
       style="fill:#737373;fill-opacity:1;fill-rule:nonzero;stroke:none"
       d="m 64,172 h -2 v 24 h 2 z" /><path
       id="path158"
       style="fill:#737373;fill-opacity:1;fill-rule:nonzero;stroke:none"
       d="m 192,172 h -2 v 24 h 2 z" /><path
       id="path160"
       style="fill:#737373;fill-opacity:1;fill-rule:nonzero;stroke:none"
       d="m 196,172 h -2 v 24 h 2 z" /><path
       id="path162"
       style="fill:#737373;fill-opacity:1;fill-rule:nonzero;stroke:none"
       d="m 200,172 h -2 v 24 h 2 z" /><path
       id="path164"
       style="fill:#737373;fill-opacity:1;fill-rule:nonzero;stroke:none"
       d="m 60,200 h -2 v 12 h 2 z" /><path
       id="path166"
       style="fill:#737373;fill-opacity:1;fill-rule:nonzero;stroke:none"
       d="m 64,200 h -2 v 12 h 2 z" /><path
       id="path168"
       style="fill:#737373;fill-opacity:1;fill-rule:nonzero;stroke:none"
       d="m 68,200 h -2 v 12 h 2 z" /><path
       id="path170"
       style="fill:#737373;fill-opacity:1;fill-rule:nonzero;stroke:none"
       d="m 72,200 h -2 v 12 h 2 z" /><path
       id="path172"
       style="fill:#737373;fill-opacity:1;fill-rule:nonzero;stroke:none"
       d="m 76,200 h -2 v 12 h 2 z" /><path
       id="path174"
       style="fill:#737373;fill-opacity:1;fill-rule:nonzero;stroke:none"
       d="m 80,200 h -2 v 12 h 2 z" /><path
       id="path176"
       style="fill:#737373;fill-opacity:1;fill-rule:nonzero;stroke:none"
       d="m 84,200 h -2 v 12 h 2 z" /><path
       id="path178"
       style="fill:#737373;fill-opacity:1;fill-rule:nonzero;stroke:none"
       d="m 88,200 h -2 v 12 h 2 z" /><path
       id="path180"
       style="fill:#737373;fill-opacity:1;fill-rule:nonzero;stroke:none"
       d="m 92,200 h -2 v 12 h 2 z" /><path
       id="path182"
       style="fill:#737373;fill-opacity:1;fill-rule:nonzero;stroke:none"
       d="m 96,200 h -2 v 12 h 2 z" /><path
       id="path184"
       style="fill:#737373;fill-opacity:1;fill-rule:nonzero;stroke:none"
       d="m 100,200 h -2 v 12 h 2 z" /><path
       id="path186"
       style="fill:#737373;fill-opacity:1;fill-rule:nonzero;stroke:none"
       d="m 104,200 h -2 v 12 h 2 z" /><path
       id="path188"
       style="fill:#737373;fill-opacity:1;fill-rule:nonzero;stroke:none"
       d="m 108,200 h -2 v 12 h 2 z" /><path
       id="path190"
       style="fill:#737373;fill-opacity:1;fill-rule:nonzero;stroke:none"
       d="m 112,200 h -2 v 12 h 2 z" /><path
       id="path192"
       style="fill:#737373;fill-opacity:1;fill-rule:nonzero;stroke:none"
       d="m 116,200 h -2 v 12 h 2 z" /><path
       id="path194"
       style="fill:#737373;fill-opacity:1;fill-rule:nonzero;stroke:none"
       d="m 120,200 h -2 v 12 h 2 z" /><path
       id="path196"
       style="fill:#737373;fill-opacity:1;fill-rule:nonzero;stroke:none"
       d="m 124,200 h -2 v 12 h 2 z" /><path
       id="path198"
       style="fill:#737373;fill-opacity:1;fill-rule:nonzero;stroke:none"
       d="m 128,200 h -2 v 12 h 2 z" /><path
       id="path200"
       style="fill:#737373;fill-opacity:1;fill-rule:nonzero;stroke:none"
       d="m 132,200 h -2 v 12 h 2 z" /><path
       id="path202"
       style="fill:#737373;fill-opacity:1;fill-rule:nonzero;stroke:none"
       d="m 136,200 h -2 v 12 h 2 z" /><path
       id="path204"
       style="fill:#737373;fill-opacity:1;fill-rule:nonzero;stroke:none"
       d="m 140,200 h -2 v 12 h 2 z" /><path
       id="path206"
       style="fill:#737373;fill-opacity:1;fill-rule:nonzero;stroke:none"
       d="m 144,200 h -2 v 12 h 2 z" /><path
       id="path208"
       style="fill:#737373;fill-opacity:1;fill-rule:nonzero;stroke:none"
       d="m 148,200 h -2 v 12 h 2 z" /><path
       id="path210"
       style="fill:#737373;fill-opacity:1;fill-rule:nonzero;stroke:none"
       d="m 152,200 h -2 v 12 h 2 z" /><path
       id="path212"
       style="fill:#737373;fill-opacity:1;fill-rule:nonzero;stroke:none"
       d="m 156,200 h -2 v 12 h 2 z" /><path
       id="path214"
       style="fill:#737373;fill-opacity:1;fill-rule:nonzero;stroke:none"
       d="m 160,200 h -2 v 12 h 2 z" /><path
       id="path216"
       style="fill:#737373;fill-opacity:1;fill-rule:nonzero;stroke:none"
       d="m 164,200 h -2 v 12 h 2 z" /><path
       id="path218"
       style="fill:#737373;fill-opacity:1;fill-rule:nonzero;stroke:none"
       d="m 168,200 h -2 v 12 h 2 z" /><path
       id="path220"
       style="fill:#737373;fill-opacity:1;fill-rule:nonzero;stroke:none"
       d="m 172,200 h -2 v 12 h 2 z" /><path
       id="path222"
       style="fill:#737373;fill-opacity:1;fill-rule:nonzero;stroke:none"
       d="m 176,200 h -2 v 12 h 2 z" /><path
       id="path224"
       style="fill:#737373;fill-opacity:1;fill-rule:nonzero;stroke:none"
       d="m 180,200 h -2 v 12 h 2 z" /><path
       id="path226"
       style="fill:#737373;fill-opacity:1;fill-rule:nonzero;stroke:none"
       d="m 184,200 h -2 v 12 h 2 z" /><path
       id="path228"
       style="fill:#737373;fill-opacity:1;fill-rule:nonzero;stroke:none"
       d="m 188,200 h -2 v 12 h 2 z" /><path
       id="path230"
       style="fill:#737373;fill-opacity:1;fill-rule:nonzero;stroke:none"
       d="m 192,200 h -2 v 12 h 2 z" /><path
       id="path232"
       style="fill:#737373;fill-opacity:1;fill-rule:nonzero;stroke:none"
       d="m 196,200 h -2 v 12 h 2 z" /><path
       id="path234"
       style="fill:#737373;fill-opacity:1;fill-rule:nonzero;stroke:none"
       d="m 200,200 h -2 v 12 h 2 z" /><path
       id="path236"
       style="fill:#737373;fill-opacity:1;fill-rule:nonzero;stroke:none"
       d="m 204,200 h -2 v 12 h 2 z" /><path
       id="path238"
       style="fill:#737373;fill-opacity:1;fill-rule:nonzero;stroke:none"
       d="m 208,200 h -2 v 12 h 2 z" /><path
       id="path240"
       style="fill:#999999;fill-opacity:1;fill-rule:nonzero;stroke:none"
       d="m 212,160 h -2 v 56 h 2 z" /><path
       id="path242"
       style="fill:#737373;fill-opacity:1;fill-rule:nonzero;stroke:none"
       d="m 212,200 h -2 v 12 h 2 z" /><path
       id="path244"
       style="fill:#737373;fill-opacity:1;fill-rule:nonzero;stroke:none"
       d="m 48,200 h -2 v 12 h 2 z" /><path
       id="path246"
       style="fill:#737373;fill-opacity:1;fill-rule:nonzero;stroke:none"
       d="m 44,200 h -2 v 12 h 2 z" /><g
       transform="translate(208,116)"
       id="g248"><path
         id="path250"
         style="fill:#a6a6a6;fill-opacity:1;fill-rule:nonzero;stroke:none"
         d="m 0,0 h -164 l -4,16 H 4 Z" /></g><path
       id="path252"
       style="fill:#8c8c8c;fill-opacity:1;fill-rule:nonzero;stroke:none"
       d="m 144,112 h -32 v 4 h 32 z" /><path
       id="path254"
       style="fill:#333333;fill-opacity:1;fill-rule:nonzero;stroke:none"
       d="m 44,96 h -8 v 8 h 8 z" /><path
       id="path256"
       style="fill:#333333;fill-opacity:1;fill-rule:nonzero;stroke:none"
       d="m 56,96 h -8 v 8 h 8 z" /><path
       id="path258"
       style="fill:#333333;fill-opacity:1;fill-rule:nonzero;stroke:none"
       d="m 68,96 h -8 v 8 h 8 z" /><path
       id="path260"
       style="fill:#333333;fill-opacity:1;fill-rule:nonzero;stroke:none"
       d="m 80,96 h -8 v 8 h 8 z" /><path
       id="path262"
       style="fill:#333333;fill-opacity:1;fill-rule:nonzero;stroke:none"
       d="m 92,96 h -8 v 8 h 8 z" /><path
       id="path264"
       style="fill:#333333;fill-opacity:1;fill-rule:nonzero;stroke:none"
       d="m 104,96 h -8 v 8 h 8 z" /><path
       id="path266"
       style="fill:#333333;fill-opacity:1;fill-rule:nonzero;stroke:none"
       d="m 116,96 h -8 v 8 h 8 z" /><path
       id="path268"
       style="fill:#333333;fill-opacity:1;fill-rule:nonzero;stroke:none"
       d="m 128,96 h -8 v 8 h 8 z" /><path
       id="path270"
       style="fill:#333333;fill-opacity:1;fill-rule:nonzero;stroke:none"
       d="m 140,96 h -8 v 8 h 8 z" /><path
       id="path272"
       style="fill:#333333;fill-opacity:1;fill-rule:nonzero;stroke:none"
       d="m 152,96 h -8 v 8 h 8 z" /><path
       id="path274"
       style="fill:#333333;fill-opacity:1;fill-rule:nonzero;stroke:none"
       d="m 164,96 h -8 v 8 h 8 z" /><path
       id="path276"
       style="fill:#333333;fill-opacity:1;fill-rule:nonzero;stroke:none"
       d="m 176,96 h -8 v 8 h 8 z" /><path
       id="path278"
       style="fill:#333333;fill-opacity:1;fill-rule:nonzero;stroke:none"
       d="m 188,96 h -8 v 8 h 8 z" /><path
       id="path280"
       style="fill:#333333;fill-opacity:1;fill-rule:nonzero;stroke:none"
       d="M 48,84 H 36 v 8 h 12 z" /><path
       id="path282"
       style="fill:#333333;fill-opacity:1;fill-rule:nonzero;stroke:none"
       d="M 52,72 H 40 v 8 h 12 z" /><path
       id="path284"
       style="fill:#333333;fill-opacity:1;fill-rule:nonzero;stroke:none"
       d="m 60,84 h -8 v 8 h 8 z" /><path
       id="path286"
       style="fill:#333333;fill-opacity:1;fill-rule:nonzero;stroke:none"
       d="m 72,84 h -8 v 8 h 8 z" /><path
       id="path288"
       style="fill:#333333;fill-opacity:1;fill-rule:nonzero;stroke:none"
       d="m 84,84 h -8 v 8 h 8 z" /><path
       id="path290"
       style="fill:#333333;fill-opacity:1;fill-rule:nonzero;stroke:none"
       d="m 96,84 h -8 v 8 h 8 z" /><path
       id="path292"
       style="fill:#333333;fill-opacity:1;fill-rule:nonzero;stroke:none"
       d="m 108,84 h -8 v 8 h 8 z" /><path
       id="path294"
       style="fill:#333333;fill-opacity:1;fill-rule:nonzero;stroke:none"
       d="m 120,84 h -8 v 8 h 8 z" /><path
       id="path296"
       style="fill:#333333;fill-opacity:1;fill-rule:nonzero;stroke:none"
       d="m 132,84 h -8 v 8 h 8 z" /><path
       id="path298"
       style="fill:#333333;fill-opacity:1;fill-rule:nonzero;stroke:none"
       d="m 144,84 h -8 v 8 h 8 z" /><path
       id="path300"
       style="fill:#333333;fill-opacity:1;fill-rule:nonzero;stroke:none"
       d="m 156,84 h -8 v 8 h 8 z" /><path
       id="path302"
       style="fill:#333333;fill-opacity:1;fill-rule:nonzero;stroke:none"
       d="m 168,84 h -8 v 8 h 8 z" /><path
       id="path304"
       style="fill:#333333;fill-opacity:1;fill-rule:nonzero;stroke:none"
       d="m 180,84 h -8 v 8 h 8 z" /><path
       id="path306"
       style="fill:#333333;fill-opacity:1;fill-rule:nonzero;stroke:none"
       d="m 64,72 h -8 v 8 h 8 z" /><path
       id="path308"
       style="fill:#333333;fill-opacity:1;fill-rule:nonzero;stroke:none"
       d="m 76,72 h -8 v 8 h 8 z" /><path
       id="path310"
       style="fill:#333333;fill-opacity:1;fill-rule:nonzero;stroke:none"
       d="m 88,72 h -8 v 8 h 8 z" /><path
       id="path312"
       style="fill:#333333;fill-opacity:1;fill-rule:nonzero;stroke:none"
       d="m 100,72 h -8 v 8 h 8 z" /><path
       id="path314"
       style="fill:#333333;fill-opacity:1;fill-rule:nonzero;stroke:none"
       d="m 112,72 h -8 v 8 h 8 z" /><path
       id="path316"
       style="fill:#333333;fill-opacity:1;fill-rule:nonzero;stroke:none"
       d="m 124,72 h -8 v 8 h 8 z" /><path
       id="path318"
       style="fill:#333333;fill-opacity:1;fill-rule:nonzero;stroke:none"
       d="m 136,72 h -8 v 8 h 8 z" /><path
       id="path320"
       style="fill:#333333;fill-opacity:1;fill-rule:nonzero;stroke:none"
       d="m 148,72 h -8 v 8 h 8 z" /><path
       id="path322"
       style="fill:#333333;fill-opacity:1;fill-rule:nonzero;stroke:none"
       d="m 160,72 h -8 v 8 h 8 z" /><path
       id="path324"
       style="fill:#333333;fill-opacity:1;fill-rule:nonzero;stroke:none"
       d="m 172,72 h -8 v 8 h 8 z" /><path
       id="path326"
       style="fill:#333333;fill-opacity:1;fill-rule:nonzero;stroke:none"
       d="m 184,72 h -8 v 8 h 8 z" /><path
       id="path328"
       style="fill:#333333;fill-opacity:1;fill-rule:nonzero;stroke:none"
       d="M 56,60 H 40 v 8 h 16 z" /><path
       id="path330"
       style="fill:#333333;fill-opacity:1;fill-rule:nonzero;stroke:none"
       d="m 68,60 h -8 v 8 h 8 z" /><path
       id="path332"
       style="fill:#333333;fill-opacity:1;fill-rule:nonzero;stroke:none"
       d="m 80,60 h -8 v 8 h 8 z" /><path
       id="path334"
       style="fill:#333333;fill-opacity:1;fill-rule:nonzero;stroke:none"
       d="m 92,60 h -8 v 8 h 8 z" /><path
       id="path336"
       style="fill:#333333;fill-opacity:1;fill-rule:nonzero;stroke:none"
       d="m 104,60 h -8 v 8 h 8 z" /><path
       id="path338"
       style="fill:#333333;fill-opacity:1;fill-rule:nonzero;stroke:none"
       d="m 116,60 h -8 v 8 h 8 z" /><path
       id="path340"
       style="fill:#333333;fill-opacity:1;fill-rule:nonzero;stroke:none"
       d="m 128,60 h -8 v 8 h 8 z" /><path
       id="path342"
       style="fill:#333333;fill-opacity:1;fill-rule:nonzero;stroke:none"
       d="m 140,60 h -8 v 8 h 8 z" /><path
       id="path344"
       style="fill:#333333;fill-opacity:1;fill-rule:nonzero;stroke:none"
       d="m 152,60 h -8 v 8 h 8 z" /><path
       id="path346"
       style="fill:#333333;fill-opacity:1;fill-rule:nonzero;stroke:none"
       d="m 164,60 h -8 v 8 h 8 z" /><path
       id="path348"
       style="fill:#333333;fill-opacity:1;fill-rule:nonzero;stroke:none"
       d="m 176,60 h -8 v 8 h 8 z" /><path
       id="path350"
       style="fill:#333333;fill-opacity:1;fill-rule:nonzero;stroke:none"
       d="m 184,60 h -4 v 8 h 4 z" /><path
       id="path352"
       style="fill:#333333;fill-opacity:1;fill-rule:nonzero;stroke:none"
       d="m 196,84 h -12 v 8 h 12 z" /><path
       id="path354"
       style="fill:#333333;fill-opacity:1;fill-rule:nonzero;stroke:none"
       d="m 196,96 h -4 v 8 h 4 z" /><path
       id="path356"
       style="fill:#333333;fill-opacity:1;fill-rule:nonzero;stroke:none"
       d="M 160,48 H 64 v 8 h 96 z" /><path
       id="path358"
       style="fill:#e77f22;fill-opacity:1;fill-rule:nonzero;stroke:none"
       d="m 220,84 h -16 v 8 h 16 z" /><path
       id="path360"
       style="fill:#f39b11;fill-opacity:1;fill-rule:nonzero;stroke:none"
       d="m 220,72 h -16 v 8 h 16 z" /><path
       id="path362"
       style="fill:#eac500;fill-opacity:1;fill-rule:nonzero;stroke:none"
       d="m 220,60 h -16 v 8 h 16 z" /><path
       id="path364"
       style="fill:#8c8c8c;fill-opacity:1;fill-rule:nonzero;stroke:none"
       d="m 220,48 h -16 v 8 h 16 z" /><path
       id="path366"
       style="fill:#d35400;fill-opacity:1;fill-rule:nonzero;stroke:none"
       d="m 220,96 h -16 v 8 h 16 z" /></g></svg>