<svg xmlns="http://www.w3.org/2000/svg" xml:space="preserve" width="330.667" height="245.333"><defs><clipPath id="a" clipPathUnits="userSpaceOnUse"><path d="M0 256h256V0H0Z"/></clipPath><clipPath id="b" clipPathUnits="userSpaceOnUse"><path d="M4 220h248V36H4Z"/></clipPath></defs><g clip-path="url(#a)" transform="matrix(1.33333 0 0 -1.33333 -5.333 293.333)"><g clip-path="url(#b)" style="opacity:.5"><path d="M0 0h-223.994a11.9 11.9 0 0 1-8.589-3.618 11.9 11.9 0 0 1-3.411-8.668l3.813-160c.157-6.568 5.428-11.714 12-11.714H-3.813c6.572 0 11.843 5.146 12 11.714l3.813 160a11.9 11.9 0 0 1-3.411 8.668A11.9 11.9 0 0 1 0 0" style="fill:#fff;fill-opacity:1;fill-rule:nonzero;stroke:none" transform="translate(239.997 220)"/></g><path d="M0 0h-216.368a4 4 0 0 0-4.002 3.905l-3.813 160A4 4 0 0 0-220.18 168H3.813a4 4 0 0 0 4.002-4.095l-3.812-160A4 4 0 0 0 0 0" style="fill:#424242;fill-opacity:1;fill-rule:nonzero;stroke:none" transform="translate(236.184 44)"/><path d="M118 212h-2v-12h2zm-20 0h-2v-12h2zm12 0h-2v-12h2zm12 0h-2v-12h2zm-20 0h-2v-12h2zm4 0h-2v-12h2zm8 0h-2v-12h2zm28 0h-2v-12h2zm4 0h-2v-12h2zm-20 0h-2v-12h2zm12 0h-2v-12h2zm-8 0h-2v-12h2zm20 0h-2v-12h2zm-16 0h-2v-12h2zm-72 0h-2v-12h2zm-12 0h-2v-12h2zm8 0h-2v-12h2zm-4 0h-2v-12h2zm-8 0h-2v-12h2zm-4 0h-2v-12h2zm36 0h-2v-12h2zm16 0h-2v-12h2zm-28 0h-2v-12h2zm24 0h-2v-12h2zm-8 0h-2v-12h2zm-12 0h-2v-12h2zm4 0h-2v-12h2zm12 0h-2v-12h2z" style="fill:#262626;fill-opacity:1;fill-rule:nonzero;stroke:none"/><path d="M0 0v-2h26.096l.047 2z" style="fill:#262626;fill-opacity:1;fill-rule:nonzero;stroke:none" transform="translate(216 134)"/><path d="M210 212h-2v-12h2zm-46-36H92v-24h72z" style="fill:#262626;fill-opacity:1;fill-rule:nonzero;stroke:none"/><path d="M0 0v-2h26.286l.047 2z" style="fill:#262626;fill-opacity:1;fill-rule:nonzero;stroke:none" transform="translate(216 142)"/><path d="M214 212h-2v-12h2z" style="fill:#262626;fill-opacity:1;fill-rule:nonzero;stroke:none"/><path d="M0 0v2h-26.143l.048-2z" style="fill:#262626;fill-opacity:1;fill-rule:nonzero;stroke:none" transform="translate(40 132)"/><path d="M0 0v-2h26.19l.048 2z" style="fill:#262626;fill-opacity:1;fill-rule:nonzero;stroke:none" transform="translate(216 138)"/><path d="m0 0 .048 2h-224.953l.048-2z" style="fill:#262626;fill-opacity:1;fill-rule:nonzero;stroke:none" transform="translate(240.429 62)"/><path d="m0 0 .047-2h227.429l.047 2z" style="fill:#262626;fill-opacity:1;fill-rule:nonzero;stroke:none" transform="translate(14.238 118)"/><path d="m0 0 .047-2h227.239l.047 2z" style="fill:#262626;fill-opacity:1;fill-rule:nonzero;stroke:none" transform="translate(14.334 114)"/><path d="m0 0 .047-2h227.62l.047 2z" style="fill:#262626;fill-opacity:1;fill-rule:nonzero;stroke:none" transform="translate(14.143 122)"/><path d="M0 0h-26.333l.047-2H0Z" style="fill:#262626;fill-opacity:1;fill-rule:nonzero;stroke:none" transform="translate(40 142)"/><path d="M0 0v2h-26.238l.048-2Z" style="fill:#262626;fill-opacity:1;fill-rule:nonzero;stroke:none" transform="translate(40 136)"/><path d="M198 212h-2v-12h2zm-28 0h-2v-12h2zm4 0h-2v-12h2zm-8 0h-2v-12h2zm-8 0h-2v-12h2zm48 0h-2v-12h2zm-44 0h-2v-12h2zm16 0h-2v-12h2zm-24 0h-2v-12h2zm28 0h-2v-12h2zm20 0h-2v-12h2zm-8 0h-2v-12h2zm-8 0h-2v-12h2zm4 0h-2v-12h2zM60 128H40v16h20zm28 0H68v16h20zm-20 12h-8v2h8zm0-4h-8v2h8zm0-4h-8v2h8z" style="fill:#262626;fill-opacity:1;fill-rule:nonzero;stroke:none"/><path d="M60 140H40v2h20zm0-4H40v2h20zm0-4H40v2h20zm28 8H68v2h20zm0-4H68v2h20zm0-4H68v2h20z" style="fill:#191919;fill-opacity:1;fill-rule:nonzero;stroke:none"/><path d="M188 128h-20v16h20zm28 0h-20v16h20zm-20 12h-8v2h8zm0-4h-8v2h8zm0-4h-8v2h8z" style="fill:#262626;fill-opacity:1;fill-rule:nonzero;stroke:none"/><path d="M188 140h-20v2h20zm0-4h-20v2h20zm0-4h-20v2h20zm28 8h-20v2h20zm0-4h-20v2h20zm0-4h-20v2h20z" style="fill:#191919;fill-opacity:1;fill-rule:nonzero;stroke:none"/><path d="M164 128H92v16h72z" style="fill:#262626;fill-opacity:1;fill-rule:nonzero;stroke:none"/><path d="m0 0 .095-4h228.952l.096 4z" style="fill:#3d0000;fill-opacity:1;fill-rule:nonzero;stroke:none" transform="translate(13.429 148)"/><path d="m0 0 .096 4h-228.19l.095-4z" style="fill:#3d0000;fill-opacity:1;fill-rule:nonzero;stroke:none" transform="translate(241.999 124)"/><path d="M0 0h-56a2 2 0 0 1-2-2v-12a2 2 0 0 1 2-2H0a2 2 0 0 1 2 2v12a2 2 0 0 1-2 2m0-14h-56v12H0Z" style="fill:#191919;fill-opacity:1;fill-rule:nonzero;stroke:none" transform="translate(156 172)"/><path d="M112 160h-8v4h8zm40 0h-8v4h8z" style="fill:#191919;fill-opacity:1;fill-rule:nonzero;stroke:none"/></g></svg>