<svg xmlns="http://www.w3.org/2000/svg" xml:space="preserve" width="224" height="330.667"><defs><clipPath id="a" clipPathUnits="userSpaceOnUse"><path d="M0 256h256V0H0Z"/></clipPath><clipPath id="b" clipPathUnits="userSpaceOnUse"><path d="M44 252h168V4H44Z"/></clipPath></defs><g clip-path="url(#a)" transform="matrix(1.33333 0 0 -1.33333 -58.667 336)"><g clip-path="url(#b)" style="opacity:.5"><path d="M0 0h-148c-5.514 0-10-4.486-10-10v-228c0-5.514 4.486-10 10-10H0c5.514 0 10 4.486 10 10v228C10-4.486 5.514 0 0 0" style="fill:#fff;fill-opacity:1;fill-rule:nonzero;stroke:none" transform="translate(202 252)"/></g><path d="M0 0h-148a2 2 0 0 0-2 2v228a2 2 0 0 0 2 2H0a2 2 0 0 0 2-2V2a2 2 0 0 0-2-2" style="fill:#4c4c4c;fill-opacity:1;fill-rule:nonzero;stroke:none" transform="translate(202 12)"/><path d="M0 0c-8.836 0-16-7.164-16-16h32C16-7.164 8.837 0 0 0" style="fill:#666;fill-opacity:1;fill-rule:nonzero;stroke:none" transform="translate(128 240)"/><path d="M0 0v8h-12V0h-6l12-8L6 0Z" style="fill:#404040;fill-opacity:1;fill-rule:nonzero;stroke:none" transform="translate(82 232)"/><path d="M0 0v8h-12V0h-6l12-8L6 0Z" style="fill:#404040;fill-opacity:1;fill-rule:nonzero;stroke:none" transform="translate(186 232)"/><path d="M196 92H60v100h136z" style="fill:#fff;fill-opacity:1;fill-rule:nonzero;stroke:none"/><path d="M196 192H60v28h136z" style="fill:#ccc;fill-opacity:1;fill-rule:nonzero;stroke:none"/><path d="M196 16H60v72h136z" style="fill:#262626;fill-opacity:1;fill-rule:nonzero;stroke:none"/><path d="m0 0-12 16v-28Z" style="fill:#00b800;fill-opacity:1;fill-rule:nonzero;stroke:none" transform="translate(72 204)"/><path d="m0 0-12-16L0-28Z" style="fill:#00b800;fill-opacity:1;fill-rule:nonzero;stroke:none" transform="translate(196 220)"/><path d="M0 0a2 2 0 0 0-2 2v4a2 2 0 0 0 4 0V2a2 2 0 0 0-2-2" style="fill:#bf9a57;fill-opacity:1;fill-rule:nonzero;stroke:none" transform="translate(62 32)"/><path d="M0 0a2 2 0 0 0-2 2v4a2 2 0 0 0 4 0V2a2 2 0 0 0-2-2" style="fill:#bf9a57;fill-opacity:1;fill-rule:nonzero;stroke:none" transform="translate(70 32)"/><path d="M0 0a2 2 0 0 0-2 2v4a2 2 0 0 0 4 0V2a2 2 0 0 0-2-2" style="fill:#bf9a57;fill-opacity:1;fill-rule:nonzero;stroke:none" transform="translate(78 32)"/><path d="M0 0a2 2 0 0 0-2 2v4a2 2 0 0 0 4 0V2a2 2 0 0 0-2-2" style="fill:#bf9a57;fill-opacity:1;fill-rule:nonzero;stroke:none" transform="translate(86 32)"/><path d="M0 0a2 2 0 0 0-2 2v4a2 2 0 0 0 4 0V2a2 2 0 0 0-2-2" style="fill:#bf9a57;fill-opacity:1;fill-rule:nonzero;stroke:none" transform="translate(94 32)"/><path d="M0 0a2 2 0 0 0-2 2v4a2 2 0 0 0 4 0V2a2 2 0 0 0-2-2" style="fill:#bf9a57;fill-opacity:1;fill-rule:nonzero;stroke:none" transform="translate(102 32)"/><path d="M0 0a2 2 0 0 0-2 2v4a2 2 0 0 0 4 0V2a2 2 0 0 0-2-2" style="fill:#bf9a57;fill-opacity:1;fill-rule:nonzero;stroke:none" transform="translate(110 32)"/><path d="M0 0a2 2 0 0 0-2 2v4a2 2 0 0 0 4 0V2a2 2 0 0 0-2-2" style="fill:#bf9a57;fill-opacity:1;fill-rule:nonzero;stroke:none" transform="translate(118 32)"/><path d="M0 0a2 2 0 0 0-2 2v4a2 2 0 0 0 4 0V2a2 2 0 0 0-2-2" style="fill:#bf9a57;fill-opacity:1;fill-rule:nonzero;stroke:none" transform="translate(126 32)"/><path d="M0 0a2 2 0 0 0-2 2v4a2 2 0 0 0 4 0V2a2 2 0 0 0-2-2" style="fill:#bf9a57;fill-opacity:1;fill-rule:nonzero;stroke:none" transform="translate(134 32)"/><path d="M0 0a2 2 0 0 0-2 2v4a2 2 0 0 0 4 0V2a2 2 0 0 0-2-2" style="fill:#bf9a57;fill-opacity:1;fill-rule:nonzero;stroke:none" transform="translate(142 32)"/><path d="M0 0a2 2 0 0 0-2 2v4a2 2 0 0 0 4 0V2a2 2 0 0 0-2-2" style="fill:#bf9a57;fill-opacity:1;fill-rule:nonzero;stroke:none" transform="translate(150 32)"/><path d="M0 0a2 2 0 0 0-2 2v4a2 2 0 0 0 4 0V2a2 2 0 0 0-2-2" style="fill:#bf9a57;fill-opacity:1;fill-rule:nonzero;stroke:none" transform="translate(158 32)"/><path d="M0 0a2 2 0 0 0-2 2v4a2 2 0 0 0 4 0V2a2 2 0 0 0-2-2" style="fill:#bf9a57;fill-opacity:1;fill-rule:nonzero;stroke:none" transform="translate(166 32)"/><path d="M0 0a2 2 0 0 0-2 2v4a2 2 0 0 0 4 0V2a2 2 0 0 0-2-2" style="fill:#bf9a57;fill-opacity:1;fill-rule:nonzero;stroke:none" transform="translate(174 32)"/><path d="M0 0a2 2 0 0 0-2 2v4a2 2 0 0 0 4 0V2a2 2 0 0 0-2-2" style="fill:#bf9a57;fill-opacity:1;fill-rule:nonzero;stroke:none" transform="translate(182 32)"/><path d="M0 0a2 2 0 0 0-2 2v4a2 2 0 0 0 4 0V2a2 2 0 0 0-2-2" style="fill:#bf9a57;fill-opacity:1;fill-rule:nonzero;stroke:none" transform="translate(190 32)"/><path d="M0 0a2 2 0 0 0-2 2v4a2 2 0 0 0 4 0V2a2 2 0 0 0-2-2" style="fill:#bf9a57;fill-opacity:1;fill-rule:nonzero;stroke:none" transform="translate(66 20)"/><path d="M0 0a2 2 0 0 0-2 2v4a2 2 0 0 0 4 0V2a2 2 0 0 0-2-2" style="fill:#bf9a57;fill-opacity:1;fill-rule:nonzero;stroke:none" transform="translate(74 20)"/><path d="M0 0a2 2 0 0 0-2 2v4a2 2 0 0 0 4 0V2a2 2 0 0 0-2-2" style="fill:#bf9a57;fill-opacity:1;fill-rule:nonzero;stroke:none" transform="translate(82 20)"/><path d="M0 0a2 2 0 0 0-2 2v4a2 2 0 0 0 4 0V2a2 2 0 0 0-2-2" style="fill:#bf9a57;fill-opacity:1;fill-rule:nonzero;stroke:none" transform="translate(90 20)"/><path d="M0 0a2 2 0 0 0-2 2v4a2 2 0 0 0 4 0V2a2 2 0 0 0-2-2" style="fill:#bf9a57;fill-opacity:1;fill-rule:nonzero;stroke:none" transform="translate(98 20)"/><path d="M0 0a2 2 0 0 0-2 2v4a2 2 0 0 0 4 0V2a2 2 0 0 0-2-2" style="fill:#bf9a57;fill-opacity:1;fill-rule:nonzero;stroke:none" transform="translate(106 20)"/><path d="M0 0a2 2 0 0 0-2 2v4a2 2 0 0 0 4 0V2a2 2 0 0 0-2-2" style="fill:#bf9a57;fill-opacity:1;fill-rule:nonzero;stroke:none" transform="translate(114 20)"/><path d="M0 0a2 2 0 0 0-2 2v4a2 2 0 0 0 4 0V2a2 2 0 0 0-2-2" style="fill:#bf9a57;fill-opacity:1;fill-rule:nonzero;stroke:none" transform="translate(122 20)"/><path d="M0 0a2 2 0 0 0-2 2v4a2 2 0 0 0 4 0V2a2 2 0 0 0-2-2" style="fill:#bf9a57;fill-opacity:1;fill-rule:nonzero;stroke:none" transform="translate(130 20)"/><path d="M0 0a2 2 0 0 0-2 2v4a2 2 0 0 0 4 0V2a2 2 0 0 0-2-2" style="fill:#bf9a57;fill-opacity:1;fill-rule:nonzero;stroke:none" transform="translate(138 20)"/><path d="M0 0a2 2 0 0 0-2 2v4a2 2 0 0 0 4 0V2a2 2 0 0 0-2-2" style="fill:#bf9a57;fill-opacity:1;fill-rule:nonzero;stroke:none" transform="translate(146 20)"/><path d="M0 0a2 2 0 0 0-2 2v4a2 2 0 0 0 4 0V2a2 2 0 0 0-2-2" style="fill:#bf9a57;fill-opacity:1;fill-rule:nonzero;stroke:none" transform="translate(154 20)"/><path d="M0 0a2 2 0 0 0-2 2v4a2 2 0 0 0 4 0V2a2 2 0 0 0-2-2" style="fill:#bf9a57;fill-opacity:1;fill-rule:nonzero;stroke:none" transform="translate(162 20)"/><path d="M0 0a2 2 0 0 0-2 2v4a2 2 0 0 0 4 0V2a2 2 0 0 0-2-2" style="fill:#bf9a57;fill-opacity:1;fill-rule:nonzero;stroke:none" transform="translate(170 20)"/><path d="M0 0a2 2 0 0 0-2 2v4a2 2 0 0 0 4 0V2a2 2 0 0 0-2-2" style="fill:#bf9a57;fill-opacity:1;fill-rule:nonzero;stroke:none" transform="translate(178 20)"/><path d="M0 0a2 2 0 0 0-2 2v4a2 2 0 0 0 4 0V2a2 2 0 0 0-2-2" style="fill:#bf9a57;fill-opacity:1;fill-rule:nonzero;stroke:none" transform="translate(186 20)"/><path d="M0 0a2 2 0 0 0-2 2v4a2 2 0 0 0 4 0V2a2 2 0 0 0-2-2" style="fill:#bf9a57;fill-opacity:1;fill-rule:nonzero;stroke:none" transform="translate(194 20)"/></g></svg>