<svg xmlns="http://www.w3.org/2000/svg" xml:space="preserve" width="333.994" height="288"><defs><clipPath id="a" clipPathUnits="userSpaceOnUse"><path d="M0 256h256V0H0Z"/></clipPath><clipPath id="b" clipPathUnits="userSpaceOnUse"><path d="M4 236h250.496V20H4Z"/></clipPath><clipPath id="c" clipPathUnits="userSpaceOnUse"><path d="M0 256h256V0H0Z"/></clipPath></defs><g clip-path="url(#a)" transform="matrix(1.33333 0 0 -1.33333 -5.334 314.667)"><g clip-path="url(#b)" style="opacity:.5"><path d="M0 0h-125.216l-2.312-3.986-58-100-2.328-4.014 2.328-4.014 58-100 2.312-3.986H0l2.313 3.986 58 100L62.64-108l-2.327 4.014-58 100z" style="fill:#fff;fill-opacity:1;fill-rule:nonzero;stroke:none" transform="translate(191.856 236)"/></g></g><path d="M0 0h-116l-58-100 58-100H0l58 100z" style="fill:#4c4c4c;fill-opacity:1;fill-rule:nonzero;stroke:none" transform="matrix(1.33333 0 0 -1.33333 244.33 10.667)"/><g clip-path="url(#c)" transform="matrix(1.33333 0 0 -1.33333 -5.334 314.667)"><path d="M0 0c-33.172 0-56-15.718-56-76.089C-56-136.282-33.172-152 0-152s56 15.718 56 76.089C56-15.718 33.172 0 0 0" style="fill:#3096cf;fill-opacity:1;fill-rule:nonzero;stroke:none" transform="translate(128 204)"/><path d="m0 0-11.08-11.189v22.21zm-11.08 58.84L0 48l-11.08-11.371Zm-12-98.891 40 40-24 24 24 24-40 40m0-51.803-23.807 23.717-8.193-8.261 28-27.653-28-27.652 8.193-8.261 23.807 23.717" style="fill:#fff;fill-opacity:1;fill-rule:nonzero;stroke:none" transform="translate(147.08 104.05)"/></g></svg>