<svg xmlns="http://www.w3.org/2000/svg" xml:space="preserve" width="149.333" height="330.667"><defs><clipPath id="a" clipPathUnits="userSpaceOnUse"><path d="M0 256h256V0H0Z"/></clipPath><clipPath id="b" clipPathUnits="userSpaceOnUse"><path d="M72 252h112V4H72Z"/></clipPath><clipPath id="c" clipPathUnits="userSpaceOnUse"><path d="M0 256h256V0H0Z"/></clipPath></defs><g clip-path="url(#a)" transform="matrix(1.33333 0 0 -1.33333 -96 336)"><g clip-path="url(#b)" style="opacity:.5"><path d="M0 0h-104v-36.985l.239-.955L-96-68.985v-33.717l-7.589-22.769-.411-1.231V-136c0-3.546 1.546-6.738 4-8.937V-248H4v103.063c2.454 2.199 4 5.391 4 8.937v9.298l-.41 1.231L0-102.702v33.717L7.761-37.94l.239.955V0Z" style="fill:#fff;fill-opacity:1;fill-rule:nonzero;stroke:none" transform="translate(176 252)"/></g></g><path d="M0 0h-96l8-32v-36h80v36z" style="fill:#999;fill-opacity:1;fill-rule:nonzero;stroke:none" transform="matrix(1.33333 0 0 -1.33333 138.667 48)"/><path d="M172 12H84v100h88z" style="fill:#333;fill-opacity:1;fill-rule:nonzero;stroke:none" transform="matrix(1.33333 0 0 -1.33333 -96 336)"/><path d="m0 0 8-4h64l8 4v-36H0Z" style="fill:#b80000;fill-opacity:1;fill-rule:nonzero;stroke:none" transform="matrix(1.33333 0 0 -1.33333 21.333 90.667)"/><g clip-path="url(#c)" transform="matrix(1.33333 0 0 -1.33333 -96 336)"><path d="M0 0c0-5.522-4.477-10-10-10S-20-5.522-20 0s4.477 10 10 10S0 5.522 0 0" style="fill:#262626;fill-opacity:1;fill-rule:nonzero;stroke:none" transform="translate(116 114)"/><path d="M0 0c0-5.522-4.478-10-10-10S-20-5.522-20 0s4.478 10 10 10S0 5.522 0 0" style="fill:#262626;fill-opacity:1;fill-rule:nonzero;stroke:none" transform="translate(160 114)"/><path d="m0 0 8 24h80l8-24Z" style="fill:#ccc;fill-opacity:1;fill-rule:nonzero;stroke:none" transform="translate(80 124)"/><path d="M0 0h-88a4 4 0 0 0-4 4v8H4V4a4 4 0 0 0-4-4" style="fill:#b3b3b3;fill-opacity:1;fill-rule:nonzero;stroke:none" transform="translate(172 112)"/><path d="M0 0v-16h16L12 0Z" style="fill:#b3b3b3;fill-opacity:1;fill-rule:nonzero;stroke:none" transform="translate(152 144)"/><path d="M0 0c-1.1 0-2 .9-2 2v8c0 1.1.9 2 2 2s2-.9 2-2V2c0-1.1-.9-2-2-2" style="fill:#333;fill-opacity:1;fill-rule:nonzero;stroke:none" transform="translate(160 132)"/><path d="M0 0c0-2.209-1.791-12-4-12S-8-2.209-8 0a4 4 0 0 0 8 0" style="fill:#191919;fill-opacity:1;fill-rule:nonzero;stroke:none" transform="translate(164 148)"/><path d="M0 0a2 2 0 1 0-4.001.001A2 2 0 0 0 0 0" style="fill:#999;fill-opacity:1;fill-rule:nonzero;stroke:none" transform="translate(100 118)"/><path d="M0 0a2 2 0 1 0-4.001.001A2 2 0 0 0 0 0" style="fill:#999;fill-opacity:1;fill-rule:nonzero;stroke:none" transform="translate(120 118)"/><path d="M0 0a2 2 0 1 0-4.001.001A2 2 0 0 0 0 0" style="fill:#999;fill-opacity:1;fill-rule:nonzero;stroke:none" transform="translate(140 118)"/><path d="M0 0a2 2 0 1 0-4.001.001A2 2 0 0 0 0 0" style="fill:#999;fill-opacity:1;fill-rule:nonzero;stroke:none" transform="translate(160 118)"/><path d="m0 0 8 36h72l8-36" style="fill:#262626;fill-opacity:1;fill-rule:nonzero;stroke:none" transform="translate(84 12)"/><path d="M160 16h-12v24h12zm-24 12h-16v12h16z" style="fill:#999;fill-opacity:1;fill-rule:nonzero;stroke:none"/><path d="M0 0h-20a4 4 0 0 0-4 4v20a4 4 0 0 0 4 4H0a4 4 0 0 0 4-4V4a4 4 0 0 0-4-4" style="fill:#262626;fill-opacity:1;fill-rule:nonzero;stroke:none" transform="translate(116 68)"/><path d="M104 88h-4v4h4zm8 0h-4v4h4z" style="fill:#b80000;fill-opacity:1;fill-rule:nonzero;stroke:none"/><path d="M104 72h-4v4h4zm8 0h-4v4h4z" style="fill:#191919;fill-opacity:1;fill-rule:nonzero;stroke:none"/><path d="m0 0 8-32v-36h4v36.492l-.12.478L5.123-4h85.754l-6.758-27.03-.119-.478V-68h4v36l8 32z" style="fill:#333;fill-opacity:1;fill-rule:nonzero;stroke:none" transform="translate(80 216)"/><path d="M176 216H80v28h96z" style="fill:#333;fill-opacity:1;fill-rule:nonzero;stroke:none"/><path d="M172 216H84v24h88z" style="fill:#3096cf;fill-opacity:1;fill-rule:nonzero;stroke:none"/><path d="M160 156H96v52h64z" style="fill:#333;fill-opacity:1;fill-rule:nonzero;stroke:none"/><path d="M160 168H96v12h64z" style="fill:#fc9;fill-opacity:1;fill-rule:nonzero;stroke:none"/><path d="M0 0h-64v24H0Z" style="fill:#3096cf;fill-opacity:1;fill-rule:nonzero;stroke:none" transform="translate(160 180)"/><path d="m0 0 24 12h16L64 0v-8H0Z" style="fill:#b3b3b3;fill-opacity:1;fill-rule:nonzero;stroke:none" transform="translate(96 168)"/><path d="M108 180h-8v8h8zm0 4h4v4h-4zm48-4h-8v8h8z" style="fill:#16a085;fill-opacity:1;fill-rule:nonzero;stroke:none"/><path d="M136 164h-16v4h16z" style="fill:#b80000;fill-opacity:1;fill-rule:nonzero;stroke:none"/><path d="m0 0-4-4h16L8 0Z" style="fill:#b80000;fill-opacity:1;fill-rule:nonzero;stroke:none" transform="translate(124 172)"/><path d="m0 0-2.937 11.745a6 6 0 0 1 2.471 2.47l11.744-2.937A18.06 18.06 0 0 0 0 0m-22.798 11.278 11.745 2.937a6 6 0 0 1 2.47-2.47L-11.52 0a18.06 18.06 0 0 0-11.278 11.278m17.038 23.76c7.909 0 14.629-5.135 17.038-12.24L-.466 19.861a5.999 5.999 0 0 1-10.587 0l-11.745 2.937c2.409 7.105 9.129 12.24 17.038 12.24m0 4c-12.15 0-22-9.85-22-22s9.85-22 22-22 22 9.85 22 22-9.849 22-22 22" style="fill:#191919;fill-opacity:1;fill-rule:nonzero;stroke:none" transform="translate(123.76 120.962)"/><path d="M0 0a4 4 0 1 0-8 0 4 4 0 0 0 8 0" style="fill:#ff0;fill-opacity:1;fill-rule:nonzero;stroke:none" transform="translate(122 138)"/></g></svg>