<?xml version="1.0" encoding="UTF-8" standalone="no"?>
<svg
   xmlns:dc="http://purl.org/dc/elements/1.1/"
   xmlns:cc="http://creativecommons.org/ns#"
   xmlns:rdf="http://www.w3.org/1999/02/22-rdf-syntax-ns#"
   xmlns:svg="http://www.w3.org/2000/svg"
   xmlns="http://www.w3.org/2000/svg"
   viewBox="0 0 197.33319 330.66665"
   height="330.66666"
   width="197.33319"
   xml:space="preserve"
   id="svg2"
   version="1.1"><metadata
     id="metadata8"><rdf:RDF><cc:Work
         rdf:about=""><dc:format>image/svg+xml</dc:format><dc:type
           rdf:resource="http://purl.org/dc/dcmitype/StillImage" /></cc:Work></rdf:RDF></metadata><defs
     id="defs6"><clipPath
       id="clipPath18"
       clipPathUnits="userSpaceOnUse"><path
         id="path16"
         d="M 0,256 H 256 V 0 H 0 Z" /></clipPath><clipPath
       id="clipPath26"
       clipPathUnits="userSpaceOnUse"><path
         id="path24"
         d="M 54,252 H 202 V 4 H 54 Z" /></clipPath></defs><g
     transform="matrix(1.3333333,0,0,-1.3333333,-71.999998,335.99999)"
     id="g10"><g
       id="g12"><g
         clip-path="url(#clipPath18)"
         id="g14"><g
           id="g20"><g
             id="g22" /><g
             id="g34"><g
               style="opacity:0.5"
               id="g32"
               clip-path="url(#clipPath26)"><g
                 id="g30"
                 transform="translate(183.5479,248)"><path
                   id="path28"
                   style="fill:#ffffff;fill-opacity:1;fill-rule:nonzero;stroke:none"
                   d="m 0,0 h -1.548 -44.879 c -2.743,2.518 -6.376,4 -10.186,4 h -57.869 c -8.308,0 -15.066,-6.758 -15.066,-15.065 v -89.87 c 0,-3.81 1.483,-7.443 4,-10.186 v -86.427 c 0,-10.175 8.277,-18.452 18.452,-18.452 h 1.548 v -16 c 0,-6.617 5.383,-12 12,-12 h 76 c 6.617,0 12,5.383 12,12 v 16 h 4 H 0 c 10.175,0 18.452,8.277 18.452,18.452 V -18.452 C 18.452,-8.277 10.175,0 0,0" /></g></g></g></g><g
           transform="translate(74.4521,240)"
           id="g36"><path
             id="path38"
             style="fill:#737373;fill-opacity:1;fill-rule:nonzero;stroke:none"
             d="m 0,0 h 107.096 c 5.772,0 10.452,-4.68 10.452,-10.452 v -179.096 c 0,-5.772 -4.68,-10.452 -10.452,-10.452 H 0 c -5.772,0 -10.452,4.68 -10.452,10.452 V -10.452 C -10.452,-4.68 -5.772,0 0,0" /></g><g
           transform="translate(76,240)"
           id="g40"><path
             id="path42"
             style="fill:#666666;fill-opacity:1;fill-rule:nonzero;stroke:none"
             d="m 0,0 h 104 c 2.209,0 4,-1.791 4,-4 v -192 c 0,-2.209 -1.791,-4 -4,-4 H 0 c -2.209,0 -4,1.791 -4,4 V -4 c 0,2.209 1.791,4 4,4" /></g><g
           transform="translate(172,64)"
           id="g44"><path
             id="path46"
             style="fill:#262626;fill-opacity:1;fill-rule:nonzero;stroke:none"
             d="M 0,0 C 0,3.444 2.177,6.38 5.229,7.507 6.857,8.108 8,9.577 8,11.313 V 40 c 0,2.209 -1.791,4 -4,4 h -104 c -2.209,0 -4,-1.791 -4,-4 v -56 c 0,-2.209 1.791,-4 4,-4 H 4 c 2.209,0 4,1.791 4,4 v 4.687 C 8,-9.577 6.857,-8.108 5.229,-7.507 2.177,-6.38 0,-3.444 0,0" /></g><path
           id="path48"
           style="fill:#333333;fill-opacity:1;fill-rule:nonzero;stroke:none"
           d="m 76,114 h 40 v -2 H 76 Z" /><path
           id="path50"
           style="fill:#333333;fill-opacity:1;fill-rule:nonzero;stroke:none"
           d="m 76,110 h 40 v -2 H 76 Z" /><path
           id="path52"
           style="fill:#141414;fill-opacity:1;fill-rule:nonzero;stroke:none"
           d="M 78.667,86 H 84 v -2 h -5.333 z" /><path
           id="path54"
           style="fill:#141414;fill-opacity:1;fill-rule:nonzero;stroke:none"
           d="M 78.667,82 H 84 v -2 h -5.333 z" /><path
           id="path56"
           style="fill:#141414;fill-opacity:1;fill-rule:nonzero;stroke:none"
           d="m 76,78 h 8 v -2 h -8 z" /><path
           id="path58"
           style="fill:#141414;fill-opacity:1;fill-rule:nonzero;stroke:none"
           d="m 76,74 h 8 v -2 h -8 z" /><path
           id="path60"
           style="fill:#141414;fill-opacity:1;fill-rule:nonzero;stroke:none"
           d="m 76,70 h 8 v -2 h -8 z" /><path
           id="path62"
           style="fill:#141414;fill-opacity:1;fill-rule:nonzero;stroke:none"
           d="M 78.667,66 H 84 v -2 h -5.333 z" /><path
           id="path64"
           style="fill:#141414;fill-opacity:1;fill-rule:nonzero;stroke:none"
           d="M 78.667,62 H 84 v -2 h -5.333 z" /><path
           id="path66"
           style="fill:#333333;fill-opacity:1;fill-rule:nonzero;stroke:none"
           d="m 76,118 h 40 v -2 H 76 Z" /><g
           transform="translate(140.2861,168)"
           id="g68"><path
             id="path70"
             style="fill:#bfbfbf;fill-opacity:1;fill-rule:nonzero;stroke:none"
             d="m 0,0 h 29.928 c 0.982,0 1.786,-0.804 1.786,-1.786 V -22.214 C 31.714,-23.196 30.91,-24 29.928,-24 H 0 c -0.982,0 -1.786,0.804 -1.786,1.786 V -1.786 C -1.786,-0.804 -0.982,0 0,0" /></g><g
           transform="translate(67.0654,244)"
           id="g72"><path
             id="path74"
             style="fill:#4c4c4c;fill-opacity:1;fill-rule:nonzero;stroke:none"
             d="m 0,0 h 57.869 c 3.886,0 7.066,-3.179 7.066,-7.065 v -89.87 c 0,-3.886 -3.18,-7.065 -7.066,-7.065 H 0 c -3.886,0 -7.065,3.179 -7.065,7.065 v 89.87 C -7.065,-3.179 -3.886,0 0,0" /></g><g
           transform="translate(70.9829,240)"
           id="g76"><path
             id="path78"
             style="fill:#666666;fill-opacity:1;fill-rule:nonzero;stroke:none"
             d="m 0,0 h 50.034 c 3.841,0 6.983,-3.143 6.983,-6.983 v -82.034 c 0,-3.84 -3.142,-6.983 -6.983,-6.983 L 0,-96 c -3.84,0 -6.983,3.143 -6.983,6.983 V -6.983 C -6.983,-3.143 -3.84,0 0,0" /></g><g
           transform="translate(72,232)"
           id="g80"><path
             id="path82"
             style="fill:#333333;fill-opacity:1;fill-rule:nonzero;stroke:none"
             d="M 0,0 C 0,2.209 1.791,4 4,4 6.209,4 8,2.209 8,0 8,-2.209 6.209,-4 4,-4 1.791,-4 0,-2.209 0,0" /></g><g
           transform="translate(69.7563,148)"
           id="g84"><path
             id="path86"
             style="fill:#ffffff;fill-opacity:1;fill-rule:nonzero;stroke:none"
             d="m 0,0 h 52.487 c 0.971,0 1.757,0.786 1.757,1.756 v 72.488 c 0,0.97 -0.786,1.756 -1.757,1.756 H 0 c -0.97,0 -1.756,-0.786 -1.756,-1.756 V 1.756 C -1.756,0.786 -0.97,0 0,0" /></g><g
           transform="translate(74,232)"
           id="g88"><path
             id="path90"
             style="fill:#191919;fill-opacity:1;fill-rule:nonzero;stroke:none"
             d="M 0,0 C 0,1.104 0.896,2 2,2 3.104,2 4,1.104 4,0 4,-1.104 3.104,-2 2,-2 0.896,-2 0,-1.104 0,0" /></g><g
           transform="translate(168,232)"
           id="g92"><path
             id="path94"
             style="fill:#333333;fill-opacity:1;fill-rule:nonzero;stroke:none"
             d="M 0,0 C 0,2.209 1.791,4 4,4 6.209,4 8,2.209 8,0 8,-2.209 6.209,-4 4,-4 1.791,-4 0,-2.209 0,0" /></g><g
           transform="translate(170,232)"
           id="g96"><path
             id="path98"
             style="fill:#191919;fill-opacity:1;fill-rule:nonzero;stroke:none"
             d="M 0,0 C 0,1.104 0.896,2 2,2 3.104,2 4,1.104 4,0 4,-1.104 3.104,-2 2,-2 0.896,-2 0,-1.104 0,0" /></g><g
           transform="translate(72,52)"
           id="g100"><path
             id="path102"
             style="fill:#333333;fill-opacity:1;fill-rule:nonzero;stroke:none"
             d="M 0,0 C 0,2.209 1.791,4 4,4 6.209,4 8,2.209 8,0 8,-2.209 6.209,-4 4,-4 1.791,-4 0,-2.209 0,0" /></g><g
           transform="translate(74,52)"
           id="g104"><path
             id="path106"
             style="fill:#191919;fill-opacity:1;fill-rule:nonzero;stroke:none"
             d="M 0,0 C 0,1.104 0.896,2 2,2 3.104,2 4,1.104 4,0 4,-1.104 3.104,-2 2,-2 0.896,-2 0,-1.104 0,0" /></g><g
           transform="translate(168,52)"
           id="g108"><path
             id="path110"
             style="fill:#333333;fill-opacity:1;fill-rule:nonzero;stroke:none"
             d="M 0,0 C 0,2.209 1.791,4 4,4 6.209,4 8,2.209 8,0 8,-2.209 6.209,-4 4,-4 1.791,-4 0,-2.209 0,0" /></g><g
           transform="translate(170,52)"
           id="g112"><path
             id="path114"
             style="fill:#191919;fill-opacity:1;fill-rule:nonzero;stroke:none"
             d="M 0,0 C 0,1.104 0.896,2 2,2 3.104,2 4,1.104 4,0 4,-1.104 3.104,-2 2,-2 0.896,-2 0,-1.104 0,0" /></g><g
           transform="translate(168,98)"
           id="g116"><path
             id="path118"
             style="fill:#333333;fill-opacity:1;fill-rule:nonzero;stroke:none"
             d="M 0,0 C 0,3.313 -18.804,6 -42,6 -65.196,6 -84,3.313 -84,0 v -2 -80 c 0,-2.209 1.791,-4 4,-4 h 76 c 2.209,0 4,1.791 4,4 v 80 z" /></g><g
           transform="translate(186,64)"
           id="g120"><path
             id="path122"
             style="fill:#bfbfbf;fill-opacity:1;fill-rule:nonzero;stroke:none"
             d="m 0,0 c 0,-3.313 -2.687,-6 -6,-6 -3.313,0 -6,2.687 -6,6 0,3.313 2.687,6 6,6 3.313,0 6,-2.687 6,-6" /></g><g
           transform="translate(176,64)"
           id="g124"><path
             id="path126"
             style="fill:#d9d9d9;fill-opacity:1;fill-rule:nonzero;stroke:none"
             d="M 0,0 C 0,0.171 0.029,0.334 0.051,0.5 H -1.975 C -1.988,0.335 -2,0.169 -2,0 c 0,-0.169 0.012,-0.335 0.025,-0.5 H 0.051 C 0.029,-0.334 0,-0.171 0,0" /></g><g
           transform="translate(180,68)"
           id="g128"><path
             id="path130"
             style="fill:#d9d9d9;fill-opacity:1;fill-rule:nonzero;stroke:none"
             d="M 0,0 C 0.171,0 0.334,-0.029 0.5,-0.051 V 1.975 C 0.335,1.988 0.169,2 0,2 -0.169,2 -0.335,1.988 -0.5,1.975 V -0.051 C -0.334,-0.029 -0.171,0 0,0" /></g><g
           transform="translate(180,60)"
           id="g132"><path
             id="path134"
             style="fill:#d9d9d9;fill-opacity:1;fill-rule:nonzero;stroke:none"
             d="M 0,0 C -0.171,0 -0.334,0.029 -0.5,0.051 V -1.975 C -0.335,-1.988 -0.169,-2 0,-2 c 0.169,0 0.335,0.012 0.5,0.025 V 0.051 C 0.334,0.029 0.171,0 0,0" /></g><g
           transform="translate(185.9746,64.5)"
           id="g136"><path
             id="path138"
             style="fill:#d9d9d9;fill-opacity:1;fill-rule:nonzero;stroke:none"
             d="m 0,0 h -2.025 c 0.021,-0.166 0.05,-0.329 0.05,-0.5 0,-0.171 -0.029,-0.334 -0.05,-0.5 H 0 c 0.014,0.165 0.025,0.331 0.025,0.5 0,0.169 -0.011,0.335 -0.025,0.5" /></g><g
           transform="translate(126,104)"
           id="g140"><path
             id="path142"
             style="fill:#404040;fill-opacity:1;fill-rule:nonzero;stroke:none"
             d="M 0,0 C -13.985,0 -26.366,-0.978 -34,-2.479 V -80 c 0,-2.209 1.791,-4 4,-4 h 60 c 2.209,0 4,1.791 4,4 V -2.479 C 26.366,-0.978 13.985,0 0,0" /></g><path
           id="path144"
           style="fill:#262626;fill-opacity:1;fill-rule:nonzero;stroke:none"
           d="m 136,92 h -20 v 4 h 20 z" /><g
           transform="translate(126,92)"
           id="g146"><path
             id="path148"
             style="fill:#404040;fill-opacity:1;fill-rule:nonzero;stroke:none"
             d="M 0,0 V 0 C -1.104,0 -2,0.896 -2,2 -2,3.104 -1.104,4 0,4 1.104,4 2,3.104 2,2 2,0.896 1.104,0 0,0" /></g><g
           transform="translate(119,44)"
           id="g150"><path
             id="path152"
             style="fill:#b3b3b3;fill-opacity:1;fill-rule:nonzero;stroke:none"
             d="m 0,0 h -17 c -1.104,0 -2,0.896 -2,2 0,1.104 0.896,2 2,2 H 0 C 0.552,4 1,3.553 1,3 V 1 C 1,0.447 0.552,0 0,0" /></g><g
           transform="translate(133,44)"
           id="g154"><path
             id="path156"
             style="fill:#b3b3b3;fill-opacity:1;fill-rule:nonzero;stroke:none"
             d="m 0,0 h 17 c 1.104,0 2,0.896 2,2 0,1.104 -0.896,2 -2,2 H 0 C -0.553,4 -1,3.553 -1,3 V 1 C -1,0.447 -0.553,0 0,0" /></g></g></g></g></svg>