<svg xmlns="http://www.w3.org/2000/svg" xml:space="preserve" width="320" height="271.999"><defs><clipPath id="a" clipPathUnits="userSpaceOnUse"><path d="M0 256h256V0H0Z"/></clipPath><clipPath id="b" clipPathUnits="userSpaceOnUse"><path d="M8 228h240V24H8Z"/></clipPath></defs><g clip-path="url(#a)" transform="matrix(1.33333 0 0 -1.33333 -10.667 304)"><g clip-path="url(#b)" style="opacity:.5"><path d="M0 0c-5.087 4.24-13.433 7.35-24.806 9.246-24.373 4.062-82.839 4.108-85.315 4.108h-8c-2.477 0-60.942-.046-85.316-4.108C-214.81 7.35-223.155 4.24-228.243 0c-5.305-4.421-5.878-8.917-5.878-10.646v-164h16v-16h208v16h16v164C5.879-8.917 5.306-4.421 0 0" style="fill:#fff;fill-opacity:1;fill-rule:nonzero;stroke:none" transform="translate(242.121 214.645)"/></g><path d="M0 0s0 8-24 12-84 4-84 4h-8s-60 0-84-4-24-12-24-12v-156h16v-16h192v16H0Z" style="fill:#999;fill-opacity:1;fill-rule:nonzero;stroke:none" transform="translate(240 204)"/><path d="M0 0h-28a4 4 0 0 0 0 8H0a4 4 0 0 0 0-8" style="fill:#8c8c8c;fill-opacity:1;fill-rule:nonzero;stroke:none" transform="translate(88 84)"/><path d="M0 0h-28a4 4 0 0 0 0 8H0a4 4 0 0 0 0-8" style="fill:#8c8c8c;fill-opacity:1;fill-rule:nonzero;stroke:none" transform="translate(200 84)"/><path d="M0 0h4.764a1 1 0 0 0 .894-1.447L3.276-6.211a1 1 0 0 0-1.789 0L-.895-1.447A1 1 0 0 0 0 0" style="fill:#a6a6a6;fill-opacity:1;fill-rule:nonzero;stroke:none" transform="translate(109.618 96)"/><path d="M0 0h4.765a1 1 0 0 0 .893-1.447L3.276-6.211a1 1 0 0 0-1.788 0L-.895-1.447A1 1 0 0 0 0 0" style="fill:#a6a6a6;fill-opacity:1;fill-rule:nonzero;stroke:none" transform="translate(149.001 96)"/><path d="M0 0h-8c-39.422 0-73.448-2.698-84.35-3.663A4 4 0 0 1-96-7.647v-64.771a3.996 3.996 0 0 1 3.584-3.978C-82.622-77.406-53.091-80-8-80c1.349 0 2.675.009 4 .018C-2.675-79.991-1.349-80 0-80c45.091 0 74.622 2.594 84.416 3.604A3.996 3.996 0 0 1 88-72.418v64.771a4 4 0 0 1-3.649 3.984C73.448-2.698 39.422 0 0 0" style="fill:#fff;fill-opacity:1;fill-rule:nonzero;stroke:none" transform="translate(132 204)"/></g></svg>