<svg xmlns="http://www.w3.org/2000/svg" xml:space="preserve" width="74.667" height="74.667"><defs><clipPath id="a" clipPathUnits="userSpaceOnUse"><path d="M0 256h256V0H0Z"/></clipPath></defs><g clip-path="url(#a)" transform="matrix(1.33333 0 0 -1.33333 -133.333 221.333)"><path d="M0 0c15.448 0 28-12.584 28-28.021S15.448-56 0-56s-28 12.542-28 27.979S-15.448 0 0 0" style="fill:#333;fill-opacity:1;fill-rule:nonzero;stroke:none" transform="translate(128 166)"/><path d="M0 0c-14.007 0-25.333-11.318-25.333-25.314S-14.007-50.587 0-50.587s25.333 11.276 25.333 25.273S14.007 0 0 0" style="fill:#e0e0e0;fill-opacity:1;fill-rule:nonzero;stroke:none" transform="translate(128 163.294)"/><path d="M0 0c-.7 0-1.241.541-1.241 1.24 0 .7.541 1.241 1.241 1.241S1.241 1.94 1.241 1.24C1.241.541.7 0 0 0m1.241 4.746v15.101c0 .683-.558 1.241-1.241 1.241a1.244 1.244 0 0 1-1.241-1.241V4.746a3.7 3.7 0 0 1-.774-.379l-8.281 8.275a1.247 1.247 0 0 1-1.756 0 1.244 1.244 0 0 1 0-1.755l8.509-8.502A3.722 3.722 0 0 1 0-2.481a3.72 3.72 0 0 1 1.241 7.227" style="fill:#262626;fill-opacity:1;fill-rule:nonzero;stroke:none" transform="translate(128 136.739)"/></g></svg>