<svg xmlns="http://www.w3.org/2000/svg" xml:space="preserve" width="188.777" height="194.499"><defs><clipPath id="a" clipPathUnits="userSpaceOnUse"><path d="M0 256h256V0H0Z"/></clipPath><clipPath id="b" clipPathUnits="userSpaceOnUse"><path d="M55.116 197.234h141.582V51.359H55.116Z"/></clipPath></defs><g clip-path="url(#a)" transform="matrix(1.33333 0 0 -1.33333 -73.487 262.979)"><g clip-path="url(#b)" style="opacity:.5"><path d="M0 0h-9.999v-.305c-7.818-.513-18.392-1.829-29.374-5.045-18.188-5.324-32.734-14.242-43.289-26.529l-1.74-.325c-10.153-1.896-19.166-8.179-26.066-18.171-4.702-6.809-6.881-13.127-7.114-13.825l-1.55-4.644-.517-1.548-4.133-12.382 12.909 1.938 1.614.242 4.842.727c.006.001 1.114.161 2.717.302-.332-3.595-.5-7.293-.5-11.065v-2.684c-2.802-2.676-4.907-5.977-6.419-8.958-2.898-5.712-4.549-11.876-5.277-15.043l-1.059-4.615-.353-1.538-2.825-12.307 12.334 2.702 1.542.338 4.626 1.013c2.089.458 7.541 1.785 13.015 4.217 4.773 2.121 8.527 4.631 11.236 7.505h2.635c3.785 0 7.504.204 11.133.61a44 44 0 0 0-.367-2.319l-1.185-6.021-.397-2.017-3.174-16.128 14.651 7.453 1.831.932 5.494 2.795c2.538 1.291 24.947 13.268 30.245 35.967l.325 1.39c8.767 8.631 15.918 19.61 21.274 32.673C17.679-38.83 17.801-13.298 17.801-12.224v10.991l-7.3.642-.912.08L8-.371v.367z" style="fill:#fff;fill-opacity:1;fill-rule:nonzero;stroke:none" transform="translate(178.898 197.234)"/></g><path d="m0 0-2.736.241c-.102.009-2.359.204-6.152.235v.003h-1.999V.475C-18.24.413-31.745-.371-46.013-4.548-63.729-9.734-77.592-18.542-87.227-30.73l-4.595-.858c-8.032-1.5-15.277-6.637-20.951-14.853-4.143-5.999-6.03-11.578-6.108-11.813l-1.551-4.643-.516-1.548 1.614.242 4.841.726c.039.007 4.106.604 8.36.604 1.816 0 3.394-.107 4.691-.318-1.092-5.935-1.645-12.307-1.645-18.959v-1.663l.295-.293.883-.88 2.578-2.565c-9.784-.819-14.441-17.786-15.655-23.074l-1.059-4.615-.353-1.539 1.542.338 4.625 1.013c1.851.406 6.676 1.579 11.479 3.713 6.344 2.819 10.142 6.194 11.289 10.033q.29.975.355 1.967l2.654-2.64.877-.874.293-.292h1.651c6.761 0 13.266.704 19.354 2.092.753-5.623-.718-13.239-.733-13.319l-1.191-6.048-.396-2.017 1.831.932 5.495 2.795c.877.446 21.528 11.149 26.081 30.656l.866 3.711c8.739 8.079 15.844 18.698 21.122 31.569C.798-28.757.913-4.754.913-3.744v3.663z" style="fill:#404040;fill-opacity:1;fill-rule:nonzero;stroke:none" transform="translate(187.785 188.755)"/><path d="M0 0c-4.51-6.933-7.757-14.84-9.69-23.727C-15.66-22.748-24-24-24-24S-17.052-3.185 0 0" style="fill:#999;fill-opacity:1;fill-rule:nonzero;stroke:none" transform="translate(96 152)"/><path d="M0 0s6.561 28.586 17.497 17.407S0 0 0 0" style="fill:red;fill-opacity:1;fill-rule:nonzero;stroke:none" transform="translate(76 76)"/><path d="M0 0s1.791 9.1.621 15.596C9.8 18.247 17.53 22.569 24 28 19.818 10.081 0 0 0 0" style="fill:#999;fill-opacity:1;fill-rule:nonzero;stroke:none" transform="translate(128 72)"/><path d="m0 0-17.455 17.37c0 86.848 96 78.406 96 78.406S78.545 0 0 0" style="fill:#e6e6e6;fill-opacity:1;fill-rule:nonzero;stroke:none" transform="translate(105.455 88)"/><path d="M0 0c-4.416 0-8-3.584-8-8s3.584-8 8-8 8 3.584 8 8-3.584 8-8 8" style="fill:#404040;fill-opacity:1;fill-rule:nonzero;stroke:none" transform="translate(148 160)"/></g></svg>