<?xml version="1.0" encoding="iso-8859-1"?>
<!-- Generator: Adobe Illustrator 27.8.1, SVG Export Plug-In . SVG Version: 6.00 Build 0)  -->
<svg version="1.1" id="Layer_1" xmlns="http://www.w3.org/2000/svg" xmlns:xlink="http://www.w3.org/1999/xlink" x="0px" y="0px"
	 viewBox="0 0 256 256" style="enable-background:new 0 0 256 256;" xml:space="preserve">
<path style="opacity:0.5;fill:#FFFFFF;" d="M250.92,123.986l-36.834-63.507c1.992-2.514,4.194-4.334,6.75-5.605
	c5.179-2.577,5.242-7.36,5.139-8.765c-0.015-0.203-0.026-0.406-0.038-0.61c-0.125-2.181-0.357-6.24-3.694-9.682
	c-0.21-0.216-0.431-0.42-0.664-0.611c-1.917-1.576-3.875-2.481-5.448-3.208c-0.624-0.288-1.213-0.561-1.633-0.803
	c-1.354-0.782-2.89-1.195-4.441-1.195c-1.946,0-3.405,0.651-3.954,0.896l0.012-0.005c-2.722,1.136-4.932,2.697-6.726,4.248
	l-6.469-11.153C191.489,21.519,188.852,20,186,20H70c-2.852,0-5.489,1.519-6.92,3.986l-58,100c-1.44,2.482-1.44,5.545,0,8.027
	l40.876,70.476c-0.007,0.016-0.015,0.033-0.022,0.049c-2.598,5.757,0.521,9.577,1.983,10.952c1.006,0.946,1.999,1.952,3.051,3.017
	c0.551,0.558,1.101,1.115,1.657,1.667l0.039,0.04c1.172,1.183,2.457,2.005,3.84,2.46l6.576,11.339C64.511,234.481,67.148,236,70,236
	h116c2.852,0,5.489-1.519,6.92-3.986l58-100C252.36,129.532,252.36,126.468,250.92,123.986z"/>
<polygon style="fill:#7B0000;" points="186,28 70,28 12,128 70,228 186,228 244,128 "/>
<path style="fill:#656565;" d="M202.269,170.538c-0.437-0.032-0.909,0.044-1.208-0.403c-2.46-1.451-3.811-3.863-5.182-6.205
	c-1.248-2.131-2.221-4.416-2.992-6.774c-0.225-0.689-0.529-1.327-0.984-1.893c-0.561-1.076-0.458-2.26-0.557-3.413
	c0.776-3.79,0.232-7.686,0.925-11.483c0.513-2.81,0.814-5.701,3.007-7.866c2.134,0.471,2.859,2.02,1.767,3.794
	c-0.305,0.496-0.734,0.905-1.03,1.408c-2.214,3.562-1.599,7.527-1.384,11.349c0.184,3.278,1.236,6.433,2.533,9.482
	c0.931,2.189,2.567,3.779,4.193,5.4c1.881,2.351,4.665,2.355,6.422-0.02c1.214-1.641,1.629-3.589,1.76-5.549
	c0.41-6.116-0.889-11.836-4.244-17.023c-0.462-0.714-0.902-1.453-1.708-1.847c-0.987-0.443-1.337-1.661-2.418-1.994
	c-0.33-0.202-0.496-0.521-0.623-0.868c-0.182-0.518-0.133-1.01,0.059-1.531c0.894-2.431,0.439-3.463-1.965-4.607
	c-0.497-0.237-1.222-0.213-1.251-1.028c0.084-0.066,0.166-0.063,0.246,0.008c3.112,0.055,5.619,1.431,7.399,3.876
	c6.321,8.684,8.502,18.329,6.2,28.872c-0.539,2.467-1.818,4.64-3.784,6.32C205.959,169.815,204.297,170.658,202.269,170.538z"/>
<path style="fill:#808080;" d="M120.743,67.99c3.152,0.002,6.304,0.004,9.457,0.006c1.55,0.331,3.13-0.026,4.686,0.2
	c0.749,0.481,1.599,0.489,2.441,0.519c0.979,0.034,1.951,0.133,2.877,0.453c0.473,0.164,1.085,0.4,0.96,1.025
	c-0.096,0.483-0.682,0.603-1.134,0.585c-1.51-0.063-2.956,0.439-4.453,0.456c-1.671,0.006-3.342,0-5.013,0.011
	c-3.118,0.115-6.248-0.278-9.355,0.233c-1.173,0.23-2.362,0.121-3.543,0.156c-1.686,0.071-3.387-0.203-5.06,0.203
	c-6.136,0.809-12.318,1.224-18.445,2.139c-4.592,0.686-9.136,1.615-13.609,2.825c-5.112,1.383-10.123,3.087-14.803,5.645
	c-1.272,0.695-2.457,1.483-3.48,2.507c-1.05,1.25-2.409,2.174-3.534,3.355c-2.738,2.874-3.049,4.859-1.197,8.442
	c0.272,0.452,0.548,0.901,0.954,1.252c0.695,0.687,1.286,1.484,2.135,2.004c0.516,0.461,1.094,0.837,1.674,1.212
	c1.059,0.754,2.175,1.408,3.365,1.934c0.696,0.376,1.398,0.74,2.121,1.063c0.422,0.191,0.86,0.339,1.299,0.488
	c1.197,0.537,2.535,0.805,3.467,1.844c4.339,2.111,8.995,3.199,13.66,4.22c8.203,1.795,16.523,2.864,24.883,3.477
	c3.056,0.224,6.129,0.622,9.209,0.485c5.968-0.267,11.909,0.515,17.874,0.424c1.562-0.024,3.117-0.491,4.691-0.067
	c0.622,0.167,1.433,0.114,1.576,0.904c0.148,0.816-0.608,1.087-1.205,1.331c-0.552,0.226-1.043,0.549-1.566,0.825
	c-3.709,0.809-7.489,0.758-11.251,0.886c-1.217,0.042-2.487,0.242-3.641-0.407c-0.2-1.575,1.144-1.334,1.917-1.438
	c1.735-0.234,3.508-0.165,5.019-0.52c-5.602,0.103-11.392-0.784-17.207-0.419c-16.706-0.513-33.066-2.876-48.696-9.136
	c-3.793-2.043-7.742-3.83-10.799-7.038c-4.245-4.454-4.274-9.272-0.055-13.727c2.951-3.116,6.721-4.946,10.448-6.862
	c0.188-0.1,0.383-0.176,0.586-0.237c10.654-4.33,21.802-6.551,33.158-7.992c8.339-1.058,16.714-1.368,25.287-1.653
	c-1.535-0.351-2.914-0.239-4.269-0.383C121.496,69.147,120.44,69.298,120.743,67.99z"/>
<path style="fill:#999999;" d="M84.066,114.123c-3.779-0.453-7.373-1.668-10.97-2.81c-6.258-1.986-12.273-4.503-17.568-8.523
	c-2.668-2.026-4.636-4.557-6.01-7.587c-0.589-5.132,2.142-8.591,5.853-11.502c5.924-4.647,12.84-7.242,19.925-9.421
	c3.675-1.13,7.393-2.137,11.206-2.727c0.639,0.458,1.255-0.004,1.883-0.04c0.522-0.03,1.149-0.071,1.331,0.546
	c0.23,0.784-0.454,1.067-1.002,1.182c-1.912,0.401-3.794,0.916-5.693,1.364c-5.078,1.197-10.07,2.66-14.891,4.674
	c-4.656,1.87-8.99,4.19-12.567,7.864c-3.227,3.314-3.205,8.751-0.011,12.068c3.951,4.103,8.875,6.47,14.007,8.515
	c5.533,2.204,11.284,3.703,17.084,5.029c0.797,0.182,2.237,0.134,2.03,1.276c-0.155,0.854-1.501,0.503-2.288,0.363
	C85.611,114.257,84.802,114.489,84.066,114.123z"/>
<path style="fill:#363636;" d="M187.278,193.816c1.88-1.315,3.163-3.465,5.701-3.907c0.515-0.09,0.879-1.049,1.312-1.608
	c0.157,0.701-0.109,1.395-0.508,1.831c-1.403,1.536-1.074,3.158-0.581,4.907c1.062,3.766,2.041,7.558,3.849,11.055
	c0.346,0.67,0.222,1.027-0.263,1.493c-1.787,1.718-3.544,3.467-5.312,5.204c-0.928,0.301-1.329-0.413-1.642-0.999
	c-2.395-4.497-4.476-9.14-6.285-13.904c-0.008-0.782,0.531-1.132,1.146-1.379c1.372-0.55,2.557-1.428,3.899-2.154
	C188.064,194.293,187.499,194.448,187.278,193.816z"/>
<path style="fill:#505050;" d="M200.329,98.418c-0.054-0.681-0.108-1.362-0.176-2.22c-1.559,3.152-3.768,5.469-6.585,7.219
	c-1.198-0.413-2.163,0.322-3.167,0.71c-7.233,2.796-14.593,5.132-22.277,6.324c-0.806,0.125-1.709,0.465-2.192-0.62
	c0.713-0.92,1.847-0.855,2.803-1.21c2.257-0.456,4.437-1.182,6.605-1.944c2.788-0.809,5.471-1.883,8.05-3.215
	c1.738-0.83,3.488-1.637,5.1-2.705c0.926-0.545,1.57-1.434,2.448-2.036c0.724-0.547,1.131-1.375,1.766-2.001
	c2.104-2.349,2.103-5.049-0.004-7.783c-0.589-0.764-1.445-1.367-1.485-2.465c0.459-1.586,0.776-3.249,2.286-4.27
	c0.007,1.152,1.057,1.425,1.733,1.945C200.011,87.817,201.641,92.582,200.329,98.418z"/>
<path style="fill:#B2B2B2;" d="M43.207,168.889c-3.467-2.534-4.722-6.309-5.052-10.258c-0.732-8.747,1.102-16.966,6.154-24.281
	c1.805-2.614,4.117-4.585,7.478-4.865c0.554,0.062,0.554,0.062,0.196,0.639c-0.397,0.287-0.851,0.475-1.262,0.738
	c-6.328,3.518-8.568,9.673-10.136,16.142c-1.032,4.26-1.771,8.614-0.829,13.036c0.041,0.191,0.045,0.39,0.084,0.584
	c0.767,3.825,2.344,4.692,5.828,3.201c3.065,0.703,4.824-1.074,6.317-3.352c1.276-1.958,1.896-4.181,2.581-6.379
	c0.367-1.379,0.596-2.785,0.847-4.187c0.285-3.232,0.487-6.459-0.304-9.656c-0.3-1.212-0.771-2.337-1.636-3.265
	c-1.39-2.313-1.293-2.828,0.979-5.189c1.205-0.704,1.963-0.065,2.626,0.874c1.339,1.9,1.719,4.143,1.895,6.34
	c0.35,4.395,0.083,8.779-1.148,13.053c-1.387,4.283-2.556,8.662-5.283,12.374c-0.387,0.527-0.778,1.045-1.196,1.548
	C49.2,168.57,46.73,170.202,43.207,168.889z"/>
<path style="fill:#525252;" d="M59.735,212.81c-0.638,0.614-1.056,0.104-1.469-0.307c-1.622-1.613-3.202-3.272-4.867-4.839
	c-0.681-0.64-0.509-1.089-0.173-1.834c2.02-4.475,3.563-9.108,4.246-13.996c1.952,0.635,3.047,2.543,4.909,3.315
	c0.875,0.542,1.822,0.945,2.72,1.44c0.63,0.348,1.228,0.725,1.279,1.553c-0.637,2.991-2.309,5.558-3.451,8.343
	C62.035,208.667,60.928,210.767,59.735,212.81z"/>
<path style="fill:#8C8C8C;" d="M67.972,78.975c5.206-2.531,10.847-3.665,16.39-5.113c1.691-0.442,3.382-0.885,5.164-1.352
	c-0.761-1.528-2.413,0.545-3.023-0.957c11.291-2.366,22.713-3.473,34.24-3.563c0.247,1.079,1.131,0.726,1.767,0.703
	c1.999-0.071,3.926,0.273,5.878,1.012c-1.169,0.195-2.347,0.6-3.505,0.548c-4.324-0.193-8.623,0.284-12.919,0.507
	c-6.811,0.353-13.579,1.304-20.312,2.461c-7.986,1.373-15.782,3.406-23.296,6.474c-0.231,0.094-0.517,0.05-0.778,0.07
	C67.349,79.322,67.745,79.191,67.972,78.975z"/>
<path style="fill:#2A2A2A;" d="M62.075,195.388c-1.832-0.797-3.21-2.186-4.603-3.554c-0.11-0.082-0.16-0.192-0.152-0.329
	c0.16-1.134,0.72-1.422,1.782-0.952c7.254,3.209,14.965,4.67,22.718,6.005c1.785,0.307,2.054-1.315,3.082-1.951
	c0.983,1.441,0.666,3.032,0.359,4.538c-0.253,1.239-1.37,1.521-2.485,1.355c-1.301-0.194-2.587-0.304-3.886-0.072
	c-1.853,0.171-3.479-0.756-5.227-1.091c-3.25-1.113-6.576-2.06-9.573-3.797C63.367,195.122,62.745,195.407,62.075,195.388z"/>
<path style="fill:#737373;" d="M61.681,84.917c2.149-2.672,5.288-3.817,8.263-5.052c8.103-3.363,16.574-5.325,25.278-6.499
	c5.738-0.774,11.485-1.35,17.242-1.891c1.674-0.553,3.447,0.182,5.12-0.393c1.181,0,2.362-0.001,3.542-0.001
	c2.378-0.418,4.777-0.07,7.162-0.197c0.764-0.041,1.556,0.206,2.29-0.195c1.706,0,3.412-0.001,5.119-0.001
	c3.565-0.038,7.127-0.137,10.695-0.338c-0.799,0.035-1.623-0.147-1.599-1.012c0.019-0.706,0.778-0.379,1.258-0.268
	c3.934,0.286,7.832,0.852,11.714,1.533c0.265,0.409,0.983,0.55,0.786,1.224c-0.193,0.662-0.769,0.871-1.371,0.91
	c-1.561,0.101-3.13,0.178-4.681-0.065c-2.712-0.425-5.446-0.27-8.172-0.37c-0.361,0.019-0.716-0.014-1.066-0.106
	c-2.676-0.353-5.362-0.128-8.042-0.151c-4.846-0.042-9.693-0.017-14.54-0.007c-0.847,0.002-1.706-0.084-2.529,0.216
	c-4.426,0.208-8.856,0.422-13.258,0.967c-5.102,0.631-10.258,0.961-15.203,2.531c-2.059,0.879-4.293,1.075-6.442,1.605
	c-6.921,1.708-13.745,3.654-19.942,7.333C62.816,84.98,62.292,85.349,61.681,84.917z"/>
<path style="fill:#595959;" d="M181.437,76.678c-0.131,1.477-1.073,2.59-1.717,3.836c-0.815,0.28-1.551-0.079-2.291-0.31
	c-10.366-3.243-20.992-5.187-31.793-6.066c-7.826-0.637-15.675-1.058-23.54-0.903c-1.02,0.02-2.119,0.227-2.998-0.582
	c0.17-0.961,0.954-0.761,1.555-0.763c6.818-0.024,13.643-0.218,20.452,0.036c10.725,0.4,21.379,1.639,31.961,3.462
	c2.386,0.411,4.792,0.701,7.164,1.198C180.632,76.617,181.035,76.647,181.437,76.678z"/>
<path style="fill:#666666;" d="M180.23,76.586c-2.35,0.628-4.622-0.158-6.877-0.526c-6.284-1.025-12.583-1.885-18.904-2.646
	c-11.124-1.339-22.285-1.145-33.445-1.138c-0.63,0-1.326-0.206-1.851,0.372c-1.644,1-3.528,0.901-5.307,0.956
	c-7.257,0.228-14.452,1.003-21.618,2.121c-1.011,0.158-2.065,0.53-2.989-0.295c2.654-1.415,5.637-1.517,8.494-1.888
	c6.714-0.873,13.436-1.841,20.242-1.673c0.414-0.279,0.884-0.185,1.334-0.185c7.644-0.005,15.288-0.005,22.933,0
	c0.45,0,0.92-0.094,1.333,0.187c0.262,0,0.523,0,0.785,0c6.841,0.569,13.712,0.674,20.548,1.351c1.416,0.14,2.883,0.219,4.29-0.249
	c3.133,0.928,6.261,1.868,9.401,2.772C179.21,75.922,179.818,76.046,180.23,76.586z"/>
<path style="fill:#676767;" d="M169.197,72.973c-1.619,1.786-3.697,0.821-5.517,0.744c-4.016-0.169-8.029-0.594-12.022-1.089
	c-2.43-0.301-4.918-0.023-7.299-0.758c2.494,0.023,5.016-0.171,7.473,0.145c1.689,0.217,3.353,0.135,5.024,0.25
	c1.498,0.102,1.668-0.526,0.909-1.663C161.642,71.067,165.459,71.83,169.197,72.973z"/>
<path style="fill:#929292;" d="M43.207,168.889c0.185-0.169,0.445-0.52,0.543-0.479c4.212,1.752,6.102-1.433,8.134-3.977
	c2.531-3.169,3.855-6.957,4.881-10.847c0.112-0.426,0.376-0.812,0.569-1.217c0.457,0.388,0.479,0.918,0.476,1.457
	c-0.046,0.724-0.316,1.393-0.513,2.08c-1.303,3.843-2.963,7.499-5.402,10.782c-1.365,1.837-2.997,3.23-5.211,3.882
	C45.402,170.264,44.186,169.824,43.207,168.889z"/>
<path style="fill:#808080;" d="M146.05,69.07c-1.264,0.357-1.264,0.358-0.21,0.852c0.291,0.136,0.587,0.263,1.238,0.553
	c-2.594,0.995-5.045,0.875-7.258,0.431c-1.434-0.288-2.845,0.908-4.123-0.217c1.682-0.133,3.332-0.612,5.083-0.547
	c-1.777-1.181-4.084-0.601-5.851-1.749c0.103-0.238,0.256-0.278,0.461-0.119C138.962,68.286,142.526,68.403,146.05,69.07z"/>
<path style="fill:#D35400;" d="M190.018,211.118c-2.113-4.443-4.198-8.899-6.293-13.35c-0.9-0.5-1.557-0.176-2.077,0.615
	c0.001,0.03,0.013,0.055,0.016,0.085c-0.482-0.299-0.89-0.229-1.202,0.309c-0.002,0.027,0.006,0.051,0.005,0.077
	c-0.196-0.148-0.425-0.183-0.673-0.15c-0.449,0.112-0.892,0.235-1.235,0.575c-0.204,0.712,0.319,1.175,0.59,1.724
	c0.642,0.916,1.274,1.839,1.891,2.772c0.386,0.545,0.747,1.108,1.126,1.657c0.177,0.293,0.44,0.497,0.708,0.696
	c0.206,0.343,0.411,0.685,0.616,1.027c1.302,1.35,1.535,3.507,3.355,4.467l0,0c0.294,0.419,0.749,0.353,1.171,0.388l0,0l0,0
	c1.132,0.351,2.122,1.337,3.459,0.78C190.52,212.648,190.34,211.793,190.018,211.118z"/>
<path style="fill:#D35400;" d="M71.483,199.199c-0.391-0.309-0.85-0.46-1.326-0.567c-0.364-0.056-0.71-0.019-1.026,0.164
	c-0.084-0.422-0.323-0.48-0.662-0.307c0.006-0.038,0.017-0.074,0.022-0.112c-0.752-0.878-1.534-1.4-2.469-0.22
	c-1.708,4.346-3.709,8.558-5.759,12.75c-0.279,0.57-1.004,1.094-0.53,1.903c0.853-0.096,1.664-0.316,2.385-0.802l0,0l0,0
	c0.422-0.034,0.877,0.037,1.173-0.383l0-0.001l0,0.001c1.804-1.099,2.174-3.273,3.52-4.716c0.148-0.279,0.295-0.558,0.442-0.837
	c0.194-0.273,0.535-0.386,0.717-0.67c0.393-0.541,0.743-1.111,1.136-1.65c0.784-1.16,1.57-2.32,2.315-3.505
	C71.582,199.905,71.757,199.565,71.483,199.199z"/>
<path style="fill:#6D6D6D;" d="M46.684,170.569c5.054-2.903,7.435-7.776,9.483-12.9c0.237-0.594,0.258-1.287,0.771-1.761
	c0.358,0.282,0.438,0.682,0.472,1.102c-0.938,4.171-2.896,7.846-5.503,11.191c-0.4,0.513-0.894,0.957-1.258,1.507
	c-1.084,0.791-2.559,0.49-3.635,1.305C46.904,170.866,46.794,170.718,46.684,170.569z"/>
<path style="fill:#888888;" d="M135.39,68.273c-0.154,0.039-0.308,0.078-0.461,0.118c-1.563-0.289-3.201,0.322-4.729-0.395
	C131.935,67.983,133.683,67.741,135.39,68.273z"/>
<path style="fill:#333333;" d="M90.416,199.339c2.039,1.376,4.445,0.77,6.65,1.05c2.362,0.299,4.798,0.417,7.204,0.559
	c11.693,0.689,23.395,0.331,35.092,0.322c4.814-0.004,9.631-0.432,14.439-0.779c2.737-0.197,3.058-0.671,3.211-3.628
	c0.026-0.51,0.204-0.898,0.777-0.948c0.986-0.086,4.057,2.378,4.287,3.432c-2.099-1.042-3.695-0.644-5.077,1.379
	c-0.623,0.911-1.788,1.497-2.846,2.037c-1.496,1.005-3.191,1.13-4.912,1.133c-6.362,0.009-12.726-0.074-19.086,0.023
	c-9.434,0.143-18.867-0.017-28.297-0.097c-3.274-0.028-6.681-0.354-9.607-2.269C91.341,201.064,90.326,200.66,90.416,199.339z"/>
<path style="fill:#666666;" d="M180.963,109.738c-2.616,1.329-5.452,1.994-8.255,2.759c-1.282-0.874-2.685-0.345-3.971-0.17
	c-3.044,0.414-6.232,0.123-9.077,1.65c-0.695,0.284-1.405,0.223-2.105,0.06c-4.003-0.931-7.935-1.071-11.681,1.002
	c-5.545-0.243-11.081,0.685-16.643-0.023c-1.978-0.252-4.037-0.158-6.057-0.117c-4.786,0.097-9.547-0.301-14.313-0.616
	c-0.704-0.047-1.411-0.112-1.921-0.677c0.282-0.786,0.921-0.747,1.485-0.851c1.33-0.074,2.659-0.09,3.98,0.123
	c1.756,0.488,3.542,0.244,5.32,0.217c4.346,0.015,8.693-0.074,13.038,0.043c0.714,0.019,1.429,0.02,2.118-0.216
	c3.25-0.419,6.531-0.255,9.797-0.538c2.992-0.259,5.973-0.803,8.996-0.694c2.399,0.544,4.848,0.447,7.227,0.132
	c5.763-0.764,11.53-1.545,17.217-2.8c1.025-0.226,2.069-0.36,3.114-0.398C180.016,108.595,180.844,108.657,180.963,109.738z"/>
<path style="fill:#585858;" d="M180.963,109.738c-1.561-1.445-3.243-0.33-4.799-0.097c-7.464,1.118-14.817,3.071-22.448,2.874
	c-0.635-0.016-1.325,0.2-1.874-0.332c2.274-1.222,4.85-1.158,7.278-1.723c1.344-0.115,2.663-0.399,3.989-0.633
	c0.7-0.155,1.394-0.344,2.114-0.396c0.322,0.02,0.61,0.112,0.795,0.403c1.355,0.865,2.711,0.021,3.95-0.217
	c7.411-1.419,14.596-3.658,21.582-6.529c0.693-0.285,1.565-1.098,2.019,0.329C189.733,106.258,185.567,108.438,180.963,109.738z"/>
<path style="fill:#393939;" d="M195.605,137.424c2.072-2.892,2.072-2.963,0.021-4.797c-0.902-0.456-1.882-0.312-2.835-0.373
	c-0.508-0.759-1.261,0.371-1.764-0.218c-0.471-0.551-0.871-1.192-0.919-1.916c-0.059-0.875,0.735-0.935,1.338-1.159
	c1.445-0.537,2.865-1.308,4.257,0.179c0.414,0.442,1.09,0.38,1.686,0.326c0.989,0.696,2.315,0.645,3.21,1.657
	c1.102,1.248,1.777,2.455,0.573,3.93c-0.452,0.554-0.369,1.043-0.219,1.608c-0.574,1.457-3,2.681-4.427,2.278
	C195.709,138.708,195.626,138.102,195.605,137.424z"/>
<path style="fill:#848484;" d="M192.791,132.254c1.098-1.045,2.022-0.766,2.835,0.373c-1.945,2.375-2.344,5.275-2.858,8.168
	c-0.597,3.355-0.034,6.783-0.754,10.122c-0.082,0.38-0.027,0.788-0.386,1.059c-1.552-2.104-1.3-4.666-1.729-7.043
	c-0.378-2.092-0.262-4.233-0.218-6.357C190.152,136.189,191.29,134.132,192.791,132.254z"/>
<path style="fill:#FFCB05;" d="M145.953,114.499c3.703-2.293,7.661-1.744,11.633-1.055c0.697,0.121,1.399,0.21,2.099,0.314
	c0.625,0.591,0.432,1.216,0.077,1.849c-0.027,1.859-0.053,3.719-0.08,5.578c-0.403,0.615-0.573,1.584-1.688,1.12
	c-0.406-1.176,0.083-2.322,0.152-3.48c0.142-2.367-0.408-3.499-2.63-4.17c-2.345-0.708-4.775-0.868-7.086,0.187
	c-1.607,0.734-1.602,1.073-0.246,2.235c0.249,0.213,0.496,0.427,0.737,0.651c0.661,0.87,2.256,1.116,1.822,2.721
	c-0.73,0.457-1.287,0.02-1.725-0.45c-1.087-1.166-2.511-1.603-3.967-2.009c-0.193-0.087-0.352-0.215-0.481-0.382
	C144.135,116.171,144.705,115.183,145.953,114.499z"/>
<path style="fill:#666666;" d="M179.793,198.945c-0.271,0.46-0.751,0.318-1.153,0.402c-1.046,0.757-2.568,0.441-3.46,1.546
	c-2.876,1.227-5.959,1.677-8.968,2.403c-0.695,0.112-1.368,0.333-2.064,0.443c-0.692,0.038-1.384,0.245-2.081,0.034
	c-0.477-0.504-0.461-1.095-0.298-1.712c0.078-0.197,0.214-0.34,0.406-0.428c4.234-0.55,8.328-1.719,12.431-2.843
	c0.935-0.256,1.826-0.68,2.825-0.647C178.351,198.017,179.439,197.393,179.793,198.945z"/>
<path style="fill:#656565;" d="M159.762,115.607c-0.025-0.616-0.051-1.233-0.077-1.849c0.124-0.895,0.805-1.126,1.536-1.214
	c3.386-0.408,6.775-0.785,10.162-1.184c0.871-0.103,1.402,0.152,1.324,1.138C168.484,113.918,164.101,114.668,159.762,115.607z"/>
<path style="fill:#646464;" d="M192.405,155.149c1.357,2.033,1.815,4.455,2.859,6.635c1.493,3.118,3.615,5.743,5.797,8.351
	c-2.494-0.396-4.059-2.085-5.491-3.96c-0.875-2.295-2.415-4.271-3.136-6.645c-0.228-0.75-0.536-1.47-0.554-2.27
	C191.889,156.514,191.799,155.744,192.405,155.149z"/>
<path style="fill:#6A6A6A;" d="M192.393,157.515c0.425,2.322,1.602,4.337,2.573,6.442c0.313,0.679,1.274,1.25,0.604,2.218
	c-4.475-5.949-6.38-12.756-6.674-20.1c1.46-0.381,1.188,0.845,1.339,1.542C190.95,150.917,191.568,154.238,192.393,157.515z"/>
<path style="fill:#595959;" d="M179.793,198.945c-0.613-0.784-1.485-0.8-2.363-0.802c3.283-1.442,6.565-2.885,9.848-4.327
	c0.871,0.567,1.684-0.446,2.708-0.091c-1.795,1.95-4.387,2.452-6.26,4.043c-0.689,0.168-1.408,0.253-1.974,0.745
	c-0.43,0.043-0.895-0.017-1.193,0.41C180.303,198.93,180.048,198.937,179.793,198.945z"/>
<path style="fill:#313131;" d="M78.608,200.137c1.284-0.774,2.638-0.448,3.953-0.177c1.554,0.321,2.419-0.067,2.351-1.819
	c-0.046-1.176-0.009-2.356-0.009-3.534c0.703-1.192,1.664-0.943,2.053,0.022c0.694,1.721,1.97,2.942,3.053,4.337
	c-1.868,0.837-2.196-1.094-3.248-1.822c-0.598,1.536,0.534,3.455-1.051,4.746c-2.117,0.206-4.086-0.646-6.146-0.862
	C79.095,200.98,78.781,200.592,78.608,200.137z"/>
<path style="fill:#7A7A7A;" d="M192.393,157.515c-1.646-3.236-1.908-6.842-2.725-10.299c-0.121-0.512-0.045-1.076-0.773-1.141
	c-0.209-2.549,0.083-5.046,0.784-7.499c0.784,1.498,0.495,3.194,0.626,4.753c0.246,2.928,0.865,5.769,1.321,8.647
	c0.738,0.94-0.058,2.257,0.778,3.173C192.401,155.937,192.397,156.726,192.393,157.515z"/>
<path style="fill:#B80000;" d="M85.657,201.694c0.834-1.472,0.255-3.072,0.424-4.604c0.038-0.348-0.188-0.867,0.349-0.967
	c0.411-0.077,0.694,0.254,0.901,0.614c0.617,1.072,1.162,2.238,2.677,2.229c0.136,0.124,0.272,0.249,0.408,0.373
	c0.368,0.687,0.919,1.19,1.582,1.58c0.344,0.374,1.091,0.502,0.779,1.277c-0.89,0.51-1.466-0.024-2.033-0.61
	c-1.701-1.758-1.862-1.767-3.774-0.19c-0.253,0.209-0.479,0.444-0.82,0.504C85.961,201.893,85.796,201.824,85.657,201.694z"/>
<path style="fill:#7B0000;" d="M154.587,202.102c1.202-1.37,3.344-1.822,3.749-4.017c0.095-0.513,0.906-0.366,1.383-0.108
	c0.798,0.433,1.571,0.91,2.355,1.369c0.033,0.762,0.065,1.525,0.098,2.287c-0.053,0.039-0.109,0.077-0.165,0.113
	c-0.177,0.082-0.352,0.074-0.526-0.011c-1.937-2.067-1.924-2.049-4.259-0.342c-0.74,0.541-1.374,1.216-2.173,1.679
	c-0.281,0.093-0.553,0.08-0.813-0.069C153.921,202.533,154.309,202.339,154.587,202.102z"/>
<path style="fill:#FDB913;" d="M158.18,122.413c0.501-0.409,1.001-0.819,1.502-1.228c0.035,0.267,0.071,0.534,0.106,0.802
	c-0.035,0.392-0.071,0.785-0.107,1.177c-1.111,1.918-2.448,3.498-4.956,3.33c-0.407-0.3-0.235-0.672-0.132-1.037
	c0.478-0.891,1.15-1.643,1.756-2.444c0.333-0.307,0.701-0.526,1.177-0.447C157.868,123.06,157.968,122.49,158.18,122.413z"/>
<path style="fill:#8C8C8C;" d="M108.487,117.67c-4.613,0.109-9.145-0.677-13.698-1.232c-3.283-0.65-6.568-1.295-9.849-1.958
	c-0.303-0.061-0.583-0.236-0.874-0.358c1.437,0,2.873,0,4.31,0c0.026-0.112,0.051-0.224,0.077-0.336
	c-1.499-0.428-2.986-0.911-4.501-1.276c-7.436-1.791-14.748-3.936-21.557-7.522c-3.268-1.721-6.222-3.858-8.346-6.947
	c-2.303-3.348-2.035-7.647,0.671-10.696c3.605-4.062,8.126-6.705,13.251-8.37c-0.131,0.264-0.262,0.527-0.393,0.791l0,0
	c-3.678,1.569-7.135,3.497-10.123,6.201c-4.855,4.395-4.855,10.038,0.001,14.433c2.988,2.704,6.444,4.631,10.122,6.2
	c5.193,1.693,10.255,3.807,15.638,4.891c5.978,1.203,11.942,2.426,18.028,3.065c5.046,0.53,10.072,1.152,15.154,1.123
	c2.458,0.463,4.937,0.109,7.405,0.185c0.985,0.03,1.952,0.138,2.916,0.3c0.369,0.062,0.805,0.188,0.82,0.686
	c0.014,0.475-0.356,0.645-0.742,0.777c-1.018,0.347-2.077,0.148-3.113,0.241c-3.39,0.303-6.783,0.354-10.152-0.155
	C111.838,117.455,110.162,118.201,108.487,117.67z"/>
<path style="fill:#FDB913;" d="M149.482,124.346c1.388-2.973-0.612-5.184-3.076-5.88c-0.517-0.146-1-0.226-1.232-0.774
	c2.386-0.208,3.632,1.819,5.422,2.778c1.131,0.425,0.902,1.351,0.82,2.224c-0.485,1.254-0.71,2.553-0.635,3.901
	c-0.012,0.393-0.062,0.783-0.153,1.165c-0.086,0.548-0.526,1.201,0.079,1.603c0.452,0.3,0.948-0.275,1.436-0.345
	c2.318-0.335,4.576-0.633,5.634-3.278c0.17-0.424,0.974-1.259,1.921-0.991c0.324,3.079,0.11,6.006-2.355,8.289
	c-1.042,0.003-2.105-0.125-3.123,0.034c-2.384,0.373-3.54-1.215-4.719-2.788c-0.353-0.471-0.546-1.071-0.317-1.671
	C149.717,127.215,149.39,125.768,149.482,124.346z"/>
<path style="fill:#5D5D5D;" d="M50.65,169.709c0.102-0.891,0.684-1.495,1.194-2.179c2.347-3.145,4.097-6.599,5.108-10.41
	c1.223-5.557,2.56-11.097,2.23-16.863c-0.044-0.762-0.124-1.605,0.649-2.152c0.397-0.068,0.65,0.154,0.875,0.433
	c0.697,2.01,1.372,4.025,0.875,6.206c-0.831,1.545-0.74,3.295-1.085,4.948c-1.101,5.283-2.444,10.482-5.326,15.135
	c-0.176,0.284-0.304,0.579-0.274,0.923l0.115,0.04c-0.931,1.046-1.861,2.091-2.792,3.137
	C51.559,168.915,51.207,169.52,50.65,169.709z"/>
<path style="fill:#FFCB05;" d="M159.698,124.748c-1.295,1.023-2.907,1.739-2.968,3.814c-0.016,0.558-0.85,1.215-1.526,0.769
	c-1.238-0.816-2.201-0.238-3.265,0.283c-0.535,0.262-1.127,0.958-1.745,0.278c-0.529-0.583-0.471-1.32-0.033-1.994
	c1.074,0.779,1.649-0.029,2.261-0.72c0.602-0.623,1.202-1.253,2.195-0.836c2.294-0.09,3.434-2.029,5.066-3.179
	C159.687,123.691,159.692,124.22,159.698,124.748z"/>
<path style="fill:#585858;" d="M54.895,165.751c-0.436-0.407-0.252-0.791-0.008-1.226c3.22-5.74,4.739-12.003,5.598-18.463
	c0.071-0.53,0-1.088,0.742-1.158c0.388,0.277,0.433,0.685,0.427,1.113c-0.09,0.699-0.27,1.389-0.247,2.103
	c0.002,0.508,0.018,1.016-0.002,1.524c-0.023,1.133-0.338,2.218-0.528,3.323c-0.243,0.857-0.439,1.728-0.694,2.583
	c-0.097,0.29-0.241,0.547-0.508,0.716c-0.489,0.712-0.717,1.513-0.803,2.362c-0.163,0.269-0.029,0.656-0.345,0.864
	c-0.383,0.786-0.767,1.572-1.15,2.358c-0.423,0.785-0.845,1.569-1.269,2.353C55.705,164.719,55.3,165.235,54.895,165.751z"/>
<path style="fill:#333333;" d="M201.088,169.835c-2.286-0.73-3.96-2.239-5.298-4.174c-4.276-5.894-6.097-12.587-6.394-19.775
	c-0.062-2.332,0.132-4.639,0.703-6.91c0.357-2.494,1.924-4.46,2.892-6.687c-0.124-0.711-0.717-0.644-1.213-0.74
	c-0.593-0.115-0.904-0.509-0.969-1.08c-0.076-0.665,0.418-0.9,0.922-1.091c1.165-0.442,2.3-0.927,3.505,0.005
	c0.626,0.484,1.41,0.694,2.212,0.296c0.062-0.069,0.124-0.137,0.186-0.206c-0.178-0.421-0.329-0.855-0.538-1.259
	c-3.334-6.436-3.795-12.725,0.338-19.124c2.036-3.153,2.792-6.877,2.896-10.671c0.172-0.855,0.306-1.707-0.287-2.804
	c-1.753,3.128-3.886,5.601-6.719,7.406c-3.817,2.841-8.042,4.875-12.539,6.37c-2.727,1.091-5.55,1.887-8.366,2.701
	c-3.604,0.969-7.231,1.848-10.887,2.6c-0.837,0.172-1.706,0.26-2.139,1.163c-0.421,1.73-0.224,3.484-0.188,5.232
	c0.055,0.347,0.159,0.674,0.369,0.963c0.026,0.024,0.056,0.035,0.082,0.057c-0.301,0.271-0.393,0.648-0.447,1.043
	c-0.02,0.547-0.059,1.093-0.043,1.641c-0.017,2.508,0.536,5.145-1.702,7.137c-0.15,0.133-0.221,0.336-0.23,0.556
	c-1.136,0-2.271,0.03-3.406,0.001c-2.629-0.065-4.215-1.982-3.937-4.6c0.128-1.203,0.441-2.48-0.375-3.581
	c1.103-1.271,1.128-2.632,0.182-3.865c-1.164-1.518-2.802-2.185-4.523-2.745c-0.138-0.037-0.276-0.074-0.414-0.111
	c-1.069-0.694-2.112-0.277-3.157,0.072c-4.96,0.617-9.937,0.892-14.935,0.718c-0.973-0.789-2.128-0.522-3.21-0.492
	c-4.963,0.136-9.9-0.247-14.839-0.644c-4.078-0.199-8.133-0.625-12.181-1.136c-0.474-0.06-0.95-0.086-1.37,0.15
	c-0.035-0.036-0.078-0.057-0.112-0.096c-0.607-0.6-1.418-0.632-2.182-0.761c-2.831-0.476-5.651-1.006-8.459-1.613
	c-8.423-1.84-16.659-4.253-24.195-8.561c-3.948-2.257-7.671-4.854-9.603-9.266c-0.176-0.402-0.397-0.863-0.999-0.75
	c-0.029,5.953,1.356,11.516,4.557,16.577c0.47,1.595,1.319,3.069,1.514,4.753c0.071,0.373,0.141,0.745,0.212,1.118
	c-0.08,0.778-0.16,1.555-0.24,2.333c-0.38,0.6-0.104,1.282-0.237,1.913c-0.387,0.329-0.355,0.785-0.368,1.227
	c-0.582,1.172-1.248,2.306-1.557,3.596c-0.537,0.922-1.075,1.844-1.612,2.766c0.055,0.033,0.16,0.076,0.156,0.096
	c-0.023,0.105-0.073,0.203-0.113,0.304c-0.391,0.133-0.782,0.267-1.173,0.4c0.615,2.023,2.268,1.936,3.886,1.919
	c0.996-0.791,1.525-0.093,2.023,0.65c1.437,2.141,1.764,4.608,1.938,7.083c0.295,4.201-0.285,8.335-1.168,12.433
	c0.001,0.528,0.002,1.055,0.003,1.583c0.439,0.075,0.539-0.206,0.604-0.554c0.372-1.988,0.843-3.954,1.196-5.95
	c0.675-3.822,0.127-7.677,0.451-11.505c0.044,0.084,0.089,0.167,0.133,0.251l0,0v0c0.129,0.658,0.257,1.315,0.386,1.973
	c0.126,0.138,0.252,0.275,0.379,0.413l0,0c0.068,2.129,1.113,4.143,0.743,6.324c0.031,0.388,0.063,0.775,0.094,1.163
	c-0.496,0.586-0.5,1.265-0.374,1.97c0.002,0.526,0.004,1.051,0.005,1.577l0,0h0c-0.157,1.183-0.313,2.366-0.47,3.549
	c-0.534,0.702-0.505,1.573-0.705,2.374c-0.032,0.231-0.065,0.463-0.097,0.695c-0.01-0.005-0.02-0.009-0.03-0.014
	c-1.151,0.52-1.184,1.496-1.033,2.547c0.013,0.033,0.036,0.055,0.051,0.087c-0.091,0.151-0.123,0.327-0.133,0.511
	c-1.084,0.455-1.342,1.312-1.172,2.378c-0.911,0.59-1.588,1.296-1.313,2.477c-0.806,0.051-0.99,0.675-1.157,1.314
	c0.022,0.049,0.043,0.097,0.065,0.145c-1.202,0.738-2.329,1.542-2.685,3.038c-0.734-0.126-1.329,0.288-1.958,0.565
	c-0.647,0.287-1.317,0.505-1.995,0.708c-0.555,0.166-1.39,0.025-1.307,1.026c0.868,2.09,1.805,4.142,3.161,5.973
	c1.722,2.997,3.445,5.995,5.167,8.992c0.515,1.894,0.124,4.114,1.977,5.527c0.808-0.355,1.573-0.395,2.448-0.055
	c6.732,2.619,13.688,4.348,20.84,5.384c1.926,0.279,3.339,0.009,4.36-1.69c0.693-0.768,1.384-0.757,1.795,0.199
	c0.706,1.641,1.971,2.82,3.126,4.092c0.229,0.214,0.494,0.378,0.785,0.496c0.616,0.389,1.272,0.656,2.012,0.721
	c6.061,0.533,12.134,1.038,18.21,1.195c9.559,0.247,19.129,0.168,28.689-0.005c4.7-0.085,9.411-0.407,14.105-0.803
	c2.109-0.178,3.871-0.875,4.108-3.387c0.057-0.609,0.466-0.834,0.959-0.571c1.049,0.56,2.447,0.745,2.687,2.278
	c0.087,0.79,0.026,1.611,0.511,2.313c0.825,0.723,1.726,0.356,2.603,0.172c4.272-0.898,8.497-1.983,12.669-3.279
	c3.437-1.233,6.798-2.632,10.003-4.393c1.701-1.071,3.056-2.71,4.857-3.503c1.232-0.543,1.857-1.212,2.203-2.368
	c0.171-2.08,1.185-3.847,2.126-5.629c2.1-3.973,4.314-7.889,5.852-12.134C201.983,170.123,201.521,170.002,201.088,169.835z
	 M57.211,131.113c-0.466-0.203-1.008-0.059-1.424,0.318c-0.007-0.001-0.014-0.002-0.021-0.003c0.382-1.57-1.159-1.206-1.812-1.689
	c1.167-0.077,1.211-0.084,2.226-0.6c0.841,1.509,2.181,1.594,3.612,1.409C59.062,131.167,58.288,131.582,57.211,131.113z"/>
<path style="fill:#333333;" d="M195.605,137.424c1.065,1.589,3.668,1.217,5.346-0.763c0.066,0.296,0.067,0.629,0.44,0.742
	c1.141,0.54,1.422,1.711,1.798,2.714c2.781,7.42,3.664,15.011,1.819,22.813c-0.205,0.552-0.376,1.126-0.877,1.505
	c-1.058,0.454-2.091,0.514-3.074-0.199c-4.379-3.168-5.634-7.995-6.632-12.878c-0.735-3.594-0.778-7.252-0.115-10.896
	C194.514,139.337,195.004,138.363,195.605,137.424z"/>
<path style="fill:#7F7F7F;" d="M205.077,142.509c-0.561-1.178-1.123-2.356-1.684-3.535c2.277,0.625,2.898,2.791,3.736,4.498
	c2.673,5.448,3.722,11.231,2.573,17.294c-0.676,3.568-2.804,5.676-5.587,5.403c-1.281-0.126-2.61-0.386-3.057-1.934
	c1.023-0.032,2.046-0.065,3.069-0.098c2.917-0.342,3.699-2.587,4.251-4.931c1.028-4.364,0.117-8.555-1.402-12.64
	C206.457,145.173,205.964,143.741,205.077,142.509z"/>
<path style="fill:#404040;" d="M89.237,75.43c3.419-0.424,6.835-0.873,10.257-1.264c3.487-0.399,6.975-0.951,10.473-1.045
	c3.07-0.083,6.116-0.474,9.184-0.473c2.555,0.006,5.111-0.023,7.665,0.023c8.083,0.148,16.137,0.63,24.188,1.485
	c8.915,0.946,17.587,2.886,26.175,5.331c0.874,0.249,1.695,0.681,2.54,1.028c-0.123,0.913-1.069,1.452-1.092,2.41
	c-0.453,1.767-1.029,3.465-2.572,4.626c-1.366,0.218-2.41-0.404-3.316-1.322c-1.242-1.258-2.69-1.782-4.442-1.384
	c-0.878,0.199-1.723,0.021-2.427-0.503c-1.388-1.033-2.908-1.05-4.487-0.709c-1.044,0.226-2.082,0.289-3.096-0.068
	c-2.829-0.994-5.925-0.865-8.7-2.089c-0.289-0.128-0.675-0.076-0.941-0.249c-1.672-1.084-3.361-1.169-5.157-0.287
	c-0.514,0.252-1.158,0.147-1.749,0.093c-1.891-0.611-3.769,0.056-5.637,0.144c-3.739,0.176-7.395-1.026-11.149-0.478
	c-0.961,0.14-1.931,0.32-2.908,0.381c-1.388,0.088-2.764-0.012-4.062-0.535c-1.552-0.626-3.12-0.056-4.667-0.068
	c-3.715-0.028-7.401-1.013-11.148-0.217c-1.672,0.355-3.357,0.613-4.878,1.413c-2.919,1.535-6.105,1.937-9.304,2.176
	c-2.309,0.173-4.569,0.326-6.534,1.737c-0.954,0.685-2.146,0.519-3.205,0.826c-1.451,0.947-3.062,1.435-4.757,1.73
	c-2.08,0.362-3.448,2.046-5.246,2.959c-1.181,0.599-2.3,1.279-3.637,1.36c-1.77,0.107-3.005,1.001-4.145,2.304
	c-0.859,0.982-1.51,2.38-3.139,2.404c-2.24-3.274-2.069-5.993,0.649-8.802c1.172-1.211,2.467-2.304,3.706-3.45
	C70.194,79.793,79.69,77.535,89.237,75.43z"/>
<path style="fill:#FDB913;" d="M121.915,80.553c4.899-1.291,9.797,0.142,14.699,0.05c1.788-0.034,3.587-0.925,5.38-0.047
	c0.689,0.521,1.595,0.628,2.253,0.352c2.747-1.152,4.998,0.529,7.467,1.052c3.155,0.668,6.279,1.72,9.565,1.465
	c1.722-0.134,3.384-0.293,4.873,0.846c0.537,0.41,1.221,0.591,1.866,0.406c1.806-0.517,3.202,0.295,4.494,1.348
	c0.979,0.798,2.009,1.453,3.218,1.817c0.553,0.716,0.109,1.15-0.437,1.555c-1.089,0.198-1.851-0.546-2.731-0.951
	c-1.654-0.355-2.72-1.873-4.38-2.213c-0.563-0.06-1.13-0.037-1.693-0.092c-0.493-0.053-0.943-0.233-1.379-0.457
	c-0.347-0.195-0.731-0.276-1.116-0.357c-1.401-0.456-2.843-0.261-4.271-0.277c-2.314-0.536-4.839,0.6-7.035-0.879
	c-2.196-0.13-4.007-2.105-6.39-1.326c-0.262,0.139-0.53,0.262-0.807,0.368c-0.287,0.102-0.583,0.159-0.886,0.184
	c-0.609,0.038-1.214,0.012-1.808-0.14c-1.832-0.895-3.63-1.948-5.803-1.215c-0.291,0.065-0.585,0.084-0.881,0.06
	c-0.768-0.192-1.535-0.246-2.298,0.04c-0.845,0.152-1.69,0.142-2.538,0.034c-1.294-0.286-2.606-0.311-3.923-0.286
	c-1.674,0.008-3.348-0.04-5.021,0.034c-0.531,0.111-1.059,0.244-1.6,0.303c-2.224,0.476-4.37-0.538-6.58-0.345
	c-1.584-0.233-2.926,0.69-4.411,0.936c-0.635,0.089-1.228-0.109-1.829-0.258c-1.268-0.431-2.6-0.198-3.892-0.371
	c-1.013-0.152-1.924-0.745-2.982-0.698c-0.358,0.014-0.681,0.147-0.995,0.308c-0.797,0.431-1.481,1.038-2.287,1.457
	c-0.998,0.374-1.997,0.741-3.046,0.954c-2.324,0.26-4.385,1.413-6.623,1.964c-0.615,0.024-1.204-0.076-1.751-0.371
	c-0.721-0.543-1.447-0.334-2.155,0.017c-0.919,0.456-1.893,0.741-2.881,0.996c-1.66,0.083-3.228,0.454-4.589,1.475
	c-1.577,0.498-3.453-0.014-4.755,1.414c-0.193,0.19-0.391,0.376-0.581,0.569c-1.257,1.132-1.398,3.048-2.824,4.063
	c-1.029,1.446-2.324,1.714-3.867,0.877c-1.064-0.277-2.055-1.48-3.234-0.244c-1.215,1.006-2.139,2.314-3.399,3.272
	c-0.243-0.359-0.486-0.717-0.729-1.075c0.984-0.951,2.066-1.822,2.929-2.873c1.137-1.385,2.396-2.303,4.271-2.305
	c2.445-0.002,4.087-1.872,6.045-2.935c1.14-0.619,2.119-1.424,3.478-1.528c1.39-0.106,2.617-0.686,3.764-1.452
	c1.989-0.057,3.79-0.676,5.485-1.717c1.102-0.677,2.413-0.63,3.629-0.582c3.474,0.137,6.703-0.744,9.815-2.15
	c2.523-1.14,5.104-2.049,7.903-1.666c3.117,0.427,6.29,0.549,9.352,0.262C116.715,79.969,119.259,81.351,121.915,80.553z"/>
<path style="fill:#FFFF00;" d="M71.925,106.497c-1.05-0.496-2.101-0.992-3.152-1.488c0.702-1.749,2.174-2.933,3.288-4.371
	c0.544-0.702,1.265-1.226,1.542-2.153c0.231-0.773,0.857-1.325,1.54-1.7c1.384-0.76,2.029-1.946,2.209-3.456
	c0.313-0.961,0.295-2.076,1.256-2.739c0.513-0.222,1.017-0.231,1.503,0.075c0.055,1.84-0.525,3.698,0.143,5.524
	c-0.239,0.483-0.714,0.632-1.159,0.822c-0.802,0.332-2.081,0.406-2.055,1.408c0.028,1.106,1.319,1.159,2.218,1.409
	c0.184,0.051,0.372,0.089,0.552,0.156c0.26,0.126,0.447,0.313,0.497,0.61c-0.061,0.531-0.379,0.951-0.642,1.385
	c-0.707,1.165-0.516,1.919,0.913,2.167c0.148,0.226,0.131,0.484,0.15,0.738c0.03,0.399,0.126,0.818,0.601,0.841
	c0.502,0.024,0.549-0.456,0.651-0.806c0.295-1.013,0.627-1.989,1.88-2.14c0.335-0.04,0.625,0.084,0.765,0.435
	c-0.534,1.308-1.268,2.513-1.353,4.016c-0.063,1.111-1.161,1.659-1.961,2.318C78.053,108.932,74.842,108.169,71.925,106.497z"/>
<path style="fill:#707070;" d="M71.925,106.497c3.071,1.196,6.272,1.953,9.442,2.817c0.524-0.387,1.104-0.327,1.684-0.197
	c4.954,1.11,10,1.647,15.006,2.436c3.079,0.093,6.095,0.852,9.186,0.844c0.567-0.001,1.204,0.114,1.379,0.857
	c-0.386,0.038-0.773,0.076-1.41,0.139c0.774,0.532,1.42,0.682,2.145,0.71c4.887,0.19,9.771,0.384,14.665,0.447
	c4.264,0.055,8.535,0.493,12.799,0.293c3.044-0.143,6.083-0.383,9.134-0.346c-0.72,0.902-1.519,1.774-1.193,3.083
	c-1.052,0.024-2.105,0.047-3.157,0.071c0.583-0.945,2.015-0.545,2.66-1.759c-1.46-0.231-2.763-0.358-4.192-0.314
	c-3.318,0.103-6.641,0.185-9.987-0.163c-3.567-0.371-7.207,0.027-10.802-0.165c-8.707-0.466-17.399-1.054-26.011-2.602
	c-6.558-1.179-13.056-2.507-19.33-4.795C73.151,107.568,72.251,107.467,71.925,106.497z"/>
<path style="fill:#FDB913;" d="M68.351,93.925c1.371-0.977,1.26-2.996,2.732-3.901c1.713-0.11,1.366,1.05,0.939,1.843
	c-0.46,0.854-0.619,1.695-0.679,2.612c-0.035,0.533,0.138,0.912,0.681,1.02c0.875,0.174,1.804,0.414,1.736,1.497
	c-0.068,1.075,0.005,2.341-0.967,3.074c-0.918,0.693-1.666,1.398-2.01,2.542c-0.18,0.597-0.807,0.863-1.425,0.88
	c-0.816,0.023-1.325,0.459-1.731,1.094c-0.716-0.305-1.476-0.532-2.039-1.117c-0.122-0.149-0.163-0.315-0.11-0.503
	c0.353-0.696,1.024-1.015,1.643-1.396c1.437-1.021,1.437-1.021-0.096-1.911c-1.091-0.97-1.86-2-0.612-3.393
	C67.134,95.549,68.206,95.124,68.351,93.925z"/>
<path style="fill:#FFFF00;" d="M67.627,104.587c-0.491-1.141-0.234-1.711,1.117-1.556c1.067,0.122,1.946-0.032,2.041-1.432
	c0.047-0.697,0.655-1.08,1.253-1.399c1.42-0.756,1.136-2.246,1.316-3.457c0.095-0.636-0.631-0.749-1.323-0.684
	c-1.126,0.105-1.608-0.382-1.25-1.632c0.289-1.006-0.229-2.194,0.999-2.998c0.36-0.235,0.299-1.293-0.696-1.404
	c0.121-0.132,0.242-0.264,0.363-0.397c0.871-0.473,1.893-1.33,1.716,0.724c-0.048,0.555,0.317,0.647,0.768,0.528
	c0.493-0.13,0.963-0.461,1.501-0.158c0.085,0.11,0.151,0.237,0.117,0.359c-0.609,2.181-0.61,2.18,1.731,2.25
	c0.199,0.006,0.374,0.098,0.521,0.238c-0.138,1.667-0.876,2.9-2.446,3.627c-1.097,0.508-1.114,2.07-1.79,2.567
	c-1.77,1.301-2.321,3.64-4.31,4.653c-0.207,0.106-0.323,0.392-0.481,0.594C68.391,104.868,68.009,104.728,67.627,104.587z"/>
<path style="fill:#FFCB05;" d="M67.219,101.917c-0.523,0.384-1.047,0.768-1.57,1.151c-0.579-0.118-0.911-0.571-1.11-1.035
	c-0.605-1.408-1.393-1.671-2.515-0.548c-0.567-0.32-1.186-0.57-1.558-1.156c-0.259-0.658,0.274-1.077,0.483-1.592
	c0.321-0.788,0.672-1.6,0.103-2.386c-0.511-0.707,0.078-1.204,0.209-1.79c1.314-1.801,2.383,0.168,3.575,0.234
	c0.274,1.019,1.765,0.532,1.988,1.615c-1.42,1.206-0.23,2.094,0.371,3.054C66.815,100.285,66.382,101.107,67.219,101.917z"/>
<path style="fill:#808080;" d="M108.487,117.67c6.21-0.619,12.503,0.74,19.003-0.809c-1.844-0.76-3.483-0.734-5.132-0.817
	c-1.986-0.101-4.021,0.498-5.958-0.366c6.318-0.186,12.604,0.34,18.929,0.859c-1.481,0.855-3.078,1.058-4.698,1.104
	c-1.364,0.039-2.755-0.134-3.963,0.729c-5.77,0.33-11.521-0.213-17.28-0.385C109.084,117.977,108.787,117.78,108.487,117.67z"/>
<path style="fill:#8C8C8C;" d="M67.58,106.6c-3.311-0.786-6.053-2.677-8.725-4.645c-1.296-0.955-2.612-1.913-3.548-3.325
	c-2.901-4.377-2.53-8.723,1.283-12.367c2.91-2.781,6.384-4.726,10.026-6.374c0.282-0.128,0.64-0.087,0.963-0.124
	c-2.514,1.641-5.297,2.826-7.713,4.638c-1.802,1.352-3.369,2.91-4.499,4.865c-1.889,3.27-1.238,6.952,1.589,10.065
	c2.249,2.475,5.073,4.095,7.916,5.717C65.775,105.566,66.832,105.813,67.58,106.6z"/>
<path style="fill:#FDB913;" d="M61.261,94.562c-0.311,0.911,0.591,1.481,0.668,2.166c0.152,1.359-0.524,2.581-1.464,3.601
	c-1.112-0.336-1.515-1.494-2.409-2.085C58.589,96.548,60.119,95.724,61.261,94.562z"/>
<path style="fill:#FFFF00;" d="M62.023,101.485c0.264-0.444,0.48-0.928,0.805-1.322c0.5-0.607,0.922-0.87,1.318,0.203
	c0.353,0.956,0.99,1.805,1.502,2.702c-0.02,0.134-0.04,0.268-0.06,0.402C64.245,103.089,63.092,102.363,62.023,101.485z"/>
<path style="fill:#777777;" d="M130.578,70.689c-1.596,0.84-3.306,0.261-4.959,0.372c-1.491,0.101-2.995,0.02-4.493,0.02
	c1.597-0.838,3.306-0.26,4.959-0.371C127.577,70.61,129.08,70.689,130.578,70.689z"/>
<path style="fill:#777777;" d="M117.584,71.083c-1.651,0.864-3.42,0.173-5.12,0.393C114.115,70.616,115.885,71.304,117.584,71.083z"
	/>
<path style="fill:#FFFF00;" d="M165.238,109.769c-0.581,0.395-1.26,0.387-1.917,0.467c-0.441,0.119-1.233,0.206-1.224-0.107
	c0.049-1.767-1.085-0.762-1.748-0.839c-0.418-2.081,0.007-2.817,1.914-2.839c1.18-0.013,1.764-0.751,2.434-1.444
	c0.907-0.938,1.592-2.128,3.17-2.445c-2.734-1.035-3.06-0.946-4.074,1.631c-0.605,1.539-1.915,1.482-3.096,1.563
	c-1.298,0.09-2.456-0.45-3.136-1.653c-0.312-0.551-0.235-1.182,0.204-1.658c0.507-0.548,1.096-0.717,1.689-0.076
	c0.303,0.504,0.032,1.501,1.025,1.407c0.883-0.084,1.87-0.119,2.164-1.303c0.222-0.895,0.645-1.715,1.106-2.514
	c0.553-1.279,1.311-2.206,2.918-1.96c0.968,0.148,1.527-0.547,2.021-1.248c0.597-0.848,1.301-1.441,2.43-1.142
	c0.79,0.428,1.521,0.911,1.676,1.901c-0.072,0.107-0.165,0.196-0.255,0.288c-0.456,0.465-1.559,0.583-1.169,1.501
	c0.299,0.705,1.146,0.348,1.766,0.296c0.534-0.045,1.062-0.025,1.471,0.338c0.916,0.811,1.923,0.565,2.94,0.319
	c2.076-0.034,4.118-0.144,6.021-1.176c0.642-0.348,1.261-0.635,1.639-1.284c0.22-0.334,0.48-0.626,0.859-0.782
	c1.214-0.335,2.517-1.551,3.508,0.354c0.334,0.619,0.643,1.241-0.051,1.831c-1.985,0.458-4.043,0.78-4.723,3.213
	c-0.155,0.554-0.736,0.894-1.08,1.367c-2.601,1.458-5.323,2.607-8.251,3.224c-0.567-1.192-1.283-1.906-2.64-0.942
	c-0.255,0.181-0.627,0.044-0.909-0.152c-0.351-0.526,0.285-0.977,0.052-1.687c-2.544,0.739-4.553,2.36-6.598,3.908
	C164.762,108.59,165.562,109.242,165.238,109.769z"/>
<path style="fill:#3F3F3E;" d="M188.059,93.569c0.923-2.499,2.142-4.851,3.532-7.117c0.502,1.669,2.12,2.574,2.753,4.215
	c0.978,2.537,0.572,4.736-1.544,6.465C191.125,96.072,189.26,95.264,188.059,93.569z"/>
<path style="fill:#FFCB05;" d="M165.238,109.769c-1.011-1.009-1.122-1.564,0.373-2.497c1.577-0.985,3.14-2.048,4.749-2.998
	c0.703-0.415,1.709-1.22,2.434-0.372c0.699,0.818-0.723,1.182-0.877,1.906c-0.13,0.495-0.524,0.761-0.956,0.849
	c-1.298,0.263-1.86,1.167-2.174,2.327c-0.923,0.283-1.846,0.567-2.769,0.85C165.758,109.812,165.498,109.791,165.238,109.769z"/>
<path style="fill:#FDB913;" d="M168.787,108.984c-0.445-1.43-0.008-2.303,1.532-2.584c0.551-0.1,1.067-0.389,1.599-0.592
	c0.369-0.063,0.79-0.032,1.1-0.203c1.978-1.099,2.281-0.938,2.454,1.393C173.356,108.041,171.117,108.664,168.787,108.984z"/>
<path style="fill:#696969;" d="M188.059,93.569c1.572,1.199,3.59,1.801,4.741,3.563c-0.559,0.633-0.753,1.578-1.644,1.927
	c-1.15-0.307-1.325-1.529-2.07-2.216c-0.369-0.835-1.59-0.756-1.836-1.721C187.331,94.505,187.591,93.982,188.059,93.569z"/>
<path style="fill:#FDB913;" d="M183.722,103.774c0.569-1.23,0.9-2.68,1.773-3.629c0.889-0.966,2.342-1.324,3.776-1.084
	c-0.148,0.648,0.031,1.374-0.458,1.941C187.278,102.224,185.453,102.912,183.722,103.774z"/>
<path style="fill:#FFCB05;" d="M188.813,101.002c-0.055-0.696-0.641-1.518,0.457-1.941c0.812-0.528,0.065-1.025-0.029-1.536
	c-0.217-0.255-0.219-0.513-0.01-0.774c0.89,0.561,1.287,1.536,1.925,2.307C190.347,99.673,189.784,100.584,188.813,101.002z"/>
<path style="fill:#333333;" d="M55.791,150.045c-0.009,1.494-0.291,2.933-0.856,4.317c-0.535,0.427-0.999,0.091-1.426-0.18
	c-2.647-1.686-5.236-3.463-7.307-5.853c-0.733-0.846-1.497-1.618-2.405-2.261c-0.373-0.714-0.117-1.404,0.126-2.067
	c0.96-2.616,1.938-5.228,3.948-7.276c0.407-0.289,0.82-0.568,1.317-0.683c0.196-0.016,0.387,0.01,0.573,0.073
	c1.156,0.615,2.461,0.849,3.642,1.4c0.466,0.217,1.027,0.481,0.893,1.123c-0.15,0.716-0.775,0.52-1.281,0.505
	c-1.961-0.058-2.209,0.238-1.88,2.245c0.396,2.421,1.667,4.345,3.343,6.07C55.162,148.162,56.221,148.744,55.791,150.045z"/>
<path style="fill:#333333;" d="M43.934,146.065c0.89-0.093,1.429,0.376,1.94,1.058c2.391,3.195,5.603,5.376,9.062,7.239
	c-0.606,2.244-1.169,4.506-2.65,6.385c-2.877-1.455-5.683-3.039-8.421-4.742c-0.444-0.276-0.848-0.594-1.043-1.11
	c-0.378-1.351-0.011-2.768-0.378-4.12c-0.018-1.118,0.156-2.218,0.436-3.29C43.03,146.906,43.028,146.119,43.934,146.065z"/>
<path style="fill:#949494;" d="M50.656,130.285c0.913,1.417,2.621,1.218,3.886,1.919c-1.019,1.341-2.396,2.618-0.785,4.428
	c-0.352,0.742-0.925,0.759-1.594,0.501c-0.881-0.339-1.845-0.443-2.665-0.955l-0.019,0.011c-0.555-0.355-0.914-0.904-1.361-1.365
	c-1.431-0.572-1.835,0.74-2.376,1.461c-1.983,2.644-3.211,5.683-4.127,8.838c-1.381,4.757-2.052,9.6-1.126,14.524
	c0.523,2.779,1.518,3.991,4.533,3.454c0.557,0.133,0.971,0.4,0.968,1.051c-0.127,0.03-0.27,0.033-0.379,0.095
	c-3.278,1.868-5.056,1.003-6.076-2.81c-1.421-5.314-0.415-10.49,0.827-15.633c0.519-2.15,1.375-4.224,2.153-6.304
	C44.05,135.394,46.983,132.504,50.656,130.285z"/>
<path style="fill:#333333;" d="M45.991,164.151c-0.286-0.24-0.572-0.48-0.859-0.719c-0.468-0.331-1.013-0.578-1.254-1.159
	c-0.317-0.642-0.56-1.312-0.757-2.002c-0.127-1.71-1.185-3.442,0.111-5.119c2.557,1.423,5.108,2.855,7.674,4.261
	c0.593,0.325,1.072,0.729,1.379,1.334C50.476,163.951,48.887,164.81,45.991,164.151z"/>
<path style="fill:#333333;" d="M49.498,136.177c1.467-0.296,2.732,1.316,4.259,0.454c1.369,1.108,1.798,2.686,2.073,4.307
	c0.515,3.033,0.631,6.073-0.04,9.106c-0.167-1.247-1.263-1.788-2.001-2.586c-1.687-1.823-2.886-3.841-3.195-6.374
	c-0.289-2.371,0.159-2.898,2.404-2.473c0.301,0.057,0.579,0.346,1.01,0.04c-0.344-0.956-1.351-0.795-2.015-1.159
	C51.168,137.043,49.994,137.26,49.498,136.177z"/>
<path style="fill:#3B3B3B;" d="M69.154,198.872c-0.175-0.313-0.486-0.308-0.783-0.337c-0.72-0.516-1.461-0.907-2.348-0.378
	c-0.755-1.726-2.898-1.465-3.948-2.769c0.475-0.135,0.255-1.327,1.21-0.76c3.205,1.902,6.829,2.81,10.209,4.297
	c-0.671,0.702-1.355,0.188-2.07,0.111c-0.303-0.033-0.743-1.056-1.056-0.017C69.964,198.97,69.559,198.921,69.154,198.872z"/>
<path style="fill:#D35400;" d="M216.498,41.385c-0.277-0.087-0.555-0.154-0.843-0.049c-0.077,0.088-0.143,0.184-0.215,0.275
	c-2.993,1.021-4.975,3.44-7.308,5.374c-3.78,3.97-6.951,8.402-9.854,13.038c-1.311,2.63-2.623,5.26-3.934,7.89
	c-0.026,0.083-0.052,0.166-0.079,0.249c-0.21,0.22-0.404,0.452-0.621,0.666c-1.567,2.076-2.392,4.554-3.666,6.788
	c-0.313,0.644-0.691,1.265-0.937,1.933c-0.504,1.371-1.754,2.472-1.495,4.119c0.05,0.02,0.091,0.025,0.138,0.04
	c-0.008,0.007-0.016,0.015-0.024,0.023c-0.882-0.068-1.015,0.703-1.312,1.234c-0.511,0.915-0.96,1.865-1.467,2.783
	c-1.487,2.994-3.022,5.965-4.452,8.987c-0.905,1.912-0.545,2.465,1.599,2.5c1.165,0.019,2.358,0.221,3.493-0.264
	c0.048-0.124,0.069-0.219,0.09-0.314c0.029,0.023,0.06,0.037,0.089,0.064c0.142,0.128,0.308,0.196,0.5,0.194
	c0.808-0.264,0.964-1.062,1.352-1.667c0.276-0.573,0.555-1.145,0.865-1.699c1.029-2.379,2.574-4.525,3.173-7.097
	c0.637-1.416,1.275-2.833,1.912-4.25c0.429-0.923,0.858-1.845,1.287-2.767l0,0c2.507-4.334,4.499-8.925,6.692-13.416h0l0,0
	c0.586-1.082,1.197-2.151,1.755-3.247c3.242-6.366,7.479-11.798,14.034-15.059c0.438-0.218,0.766-0.439,0.724-1.012
	C217.857,44.823,217.954,42.887,216.498,41.385z"/>
<path style="fill:#5F5F5F;" d="M70.368,199.019c-0.15-0.203-0.299-0.406-0.588-0.798c1.381,0.009,2.46,0.969,3.714,0.705
	c1.705,0.404,3.409,0.807,5.113,1.211c2.272,0.876,4.732,0.893,7.05,1.558c0.154,0.004,0.308,0.009,0.462,0.013
	c0.298,0.141,0.533,0.339,0.624,0.673c-0.007,1.6-1.073,1.234-2.018,1.094c-1.8-0.295-3.563-0.767-5.342-1.163
	c-0.768-0.145-1.51-0.381-2.244-0.646c-0.352-0.136-0.697-0.293-1.049-0.431c-0.88-0.322-1.811-0.469-2.692-0.791
	c-0.721-0.261-1.467-0.471-2.049-1.013C71.009,199.326,70.587,199.416,70.368,199.019z"/>
<path style="fill:#676767;" d="M143.574,71.871c-8.533,0-17.067-0.001-25.6-0.001c0.45-0.543,1.074-0.384,1.642-0.385
	c7.439-0.009,14.879-0.009,22.318-0.001C142.501,71.485,143.126,71.323,143.574,71.871z"/>
<path style="fill:#E77F22;" d="M210.499,38.124c-0.484-0.279-0.889-0.022-1.302,0.151c-2.57,1.073-4.639,2.835-6.557,4.804
	c-4.222,4.222-7.871,8.875-10.642,14.191c-1.666,2.645-3.029,5.448-4.312,8.293c-1.37,2.61-2.739,5.22-4.109,7.83
	c-0.87,0.993-0.967,2.491-2.14,3.286c-1.052,1.018-1.321,2.483-2.077,3.669c-0.319,0.894-1.238,1.584-0.903,2.697
	c0.019,0.028,0.042,0.049,0.062,0.077c-0.773,1.376-1.545,2.752-2.318,4.128c-0.189,0.244-0.591,0.382-0.402,0.814
	c-0.201,0.422-0.29,0.916-0.756,1.165c-0.51,0.35-0.885,0.819-1.18,1.356c-0.693,1.323-0.36,2.369,0.805,3.25
	c0.78,0.59,1.452,1.317,2.25,1.89c0.94,0.676,1.637,1.793,2.925,1.846c1.94,0.08,3.879,0.205,5.822,0.231
	c0.157-0.219,0.314-0.438,0.471-0.657c0.04,0,0.078-0.045,0.113-0.135c0.035-0.087-0.012-0.168-0.141-0.243
	c-0.137-0.015-0.273-0.03-0.41-0.045c-1.309,0.003-2.622-0.057-3.926,0.026c-1.58,0.1-1.568-0.471-0.972-1.689
	c1.521-3.113,3.304-6.102,4.514-9.365l0,0c0.781-1.32,1.563-2.64,2.345-3.96c0.627-2.109,1.905-3.913,2.75-5.92c0,0,0,0,0,0
	c1.242-2.204,2.104-4.611,3.556-6.703c0.165-0.334,0.545-0.601,0.442-1.02c1.75-1.832,2.386-4.297,3.609-6.427
	c0.258-0.45,0.532-0.949,0.314-1.505c0.742-0.312,1.143-0.973,1.514-1.618c1.577-2.744,3.587-5.169,5.5-7.669
	c0.975-1.274,2.369-2.233,2.923-3.825c0.214,0.076,0.437,0.059,0.585-0.094c2.032-2.096,4.508-3.63,6.785-5.414
	c0.286-0.05,0.573-0.1,0.86-0.149C214.708,39.913,212.471,39.262,210.499,38.124z"/>
<path style="fill:#FDB913;" d="M186.137,97.143c-0.023-0.125-0.032-0.252-0.027-0.379c0.38-0.547,0.76-1.095,1.14-1.643
	c0.752,0.431,1.594,0.752,1.981,1.63c0.003,0.258,0.007,0.516,0.01,0.774C188.4,95.83,187.129,97.624,186.137,97.143z"/>
<path style="fill:#5A5A5A;" d="M60.084,130.29c-0.497,1.337-1.081,2.38-2.759,1.264c-0.375-0.249-1.018-0.092-1.538-0.123
	c-0.19-1.185-1.748-0.66-2.098-1.716c0.747-0.512,1.576-0.681,2.469-0.612C57.368,129.826,58.661,130.273,60.084,130.29z"/>
<path style="fill:#6B6B6B;" d="M57.337,153.952c1.612-5.263,2.497-10.598,1.679-16.121c-0.119-0.805-0.412-1.686,0.291-2.416
	c0.422,0.114,0.642,0.431,0.812,0.802c0.211,0.651,0.555,1.305-0.013,1.951c-0.709,0.711-0.412,1.618-0.37,2.416
	c0.273,5.196-0.752,10.2-2.144,15.151c-0.134,0.476-0.16,1.051-0.641,1.386c-0.004-0.404-0.008-0.807-0.013-1.211
	C57.071,155.257,57.204,154.604,57.337,153.952z"/>
<path style="fill:#3D0000;" d="M68.756,203.672c0.787-1.189,1.574-2.378,2.361-3.568c0.711,0.224,1,0.833,1.227,1.447
	c1.072,2.904,3.314,4.668,5.898,6.075c6.01,3.272,12.55,4.929,19.214,6.113c6.768,1.202,13.604,1.703,20.471,2.135
	c8.543,0.536,16.988-0.062,25.455-0.858c7.389-0.695,14.647-2.047,21.694-4.418c2.112-0.711,4.202-1.497,6.097-2.706
	c2.421-0.997,4.472-2.634,6.721-3.927c1.236-0.711,0.702-2.19,1.515-3.044c0.942,0.708,1.411,1.755,1.957,2.747
	c-0.329,2.224-2.15,3.202-3.748,4.233c-3.887,2.507-8.214,4.024-12.647,5.256c-10.333,2.87-20.892,3.992-31.575,4.601
	c-10.83,0.618-21.579,0.017-32.283-1.332c-8.575-1.081-17.045-2.868-24.984-6.528c-2.39-1.102-4.695-2.352-6.485-4.36
	C69.168,205.002,68.591,204.514,68.756,203.672z"/>
<path style="fill:#7B0000;" d="M179.41,200.92c0.303,1.897-0.279,3.312-2.158,4.049c-2.03,0.797-3.362,2.901-5.724,3.081
	c-0.172,0.129-0.33,0.114-0.475-0.047c-0.099-0.66,0.355-1.045,0.724-1.473c0.881-0.88,1.986-1.364,3.135-1.776
	c0.717-0.257,1.483-0.459,1.781-1.297c0.441-2.307,0.441-2.307-1.644-2.962c0.898-1.32,2.268-1.161,3.59-1.148
	C178.835,199.902,179.461,200.244,179.41,200.92z"/>
<path style="fill:#7B0000;" d="M171.081,207.944c0.149,0.035,0.298,0.071,0.447,0.106c-1.435,1.591-3.479,2.041-5.353,2.712
	c-7.348,2.632-14.969,3.976-22.717,4.794c-7.155,0.755-14.324,1.383-21.504,1.097c-12.785-0.509-25.528-1.489-37.753-5.785
	c-2.483-0.872-4.861-1.972-7.143-3.255c-2.978-1.674-4.924-4.239-5.94-7.509c0.078-0.225,0.156-0.449,0.233-0.674
	c0.794-0.009,1.514,0.222,2.163,0.68c1.706,6.447,7.33,8.134,12.548,10.101c5.835,2.2,11.98,3.218,18.159,4.018
	c6.17,0.799,12.352,1.107,18.574,1.204c13.197,0.206,26.229-0.796,38.975-4.43c2.585-0.737,5.102-1.676,7.409-3.101
	c0.197-0.114,0.407-0.192,0.628-0.242C170.268,207.588,170.708,207.615,171.081,207.944z"/>
<path style="fill:#404040;" d="M154.587,202.102c-0.119,0.266-0.239,0.532-0.358,0.798c0.503,1.373-0.806,1.545-1.429,2.174
	c-0.338,0.207-0.693,0.379-1.07,0.504c-0.388,0.12-0.786,0.167-1.19,0.186c-0.829-0.004-1.653,0.032-2.455,0.287
	c-0.58,0.099-1.154,0.075-1.726-0.051c-0.704-0.215-1.427-0.182-2.147-0.18c-12.773,0.039-25.545,0.043-38.318,0
	c-0.719-0.002-1.443-0.035-2.143,0.188c-0.583,0.136-1.17,0.15-1.759,0.056c-1.141-0.358-2.336-0.203-3.499-0.342
	c-0.768-0.179-1.543-0.333-2.328-0.418c-0.181-0.036-0.357-0.098-0.524-0.176c-0.742-0.585-1.284-1.411-2.165-1.837
	c-0.31-0.172-0.599-0.367-0.79-0.678c-0.073-0.176-0.046-0.338,0.068-0.488c-0.252-0.402-0.503-0.803-0.755-1.205
	c3.585,1.84,7.435,2.378,11.407,2.37c6.097-0.013,12.195,0.003,18.292,0.002c8.883-0.001,17.767-0.039,26.65,0.017
	C150.536,203.322,152.623,203.107,154.587,202.102z"/>
<path style="fill:#FFFF00;" d="M159.32,102.66c-0.564-0.631-1.059-0.411-1.41,0.193c-0.282,0.486-0.276,1.103,0.201,1.435
	c0.897,0.625,1.791,1.328,3.043,0.999c1.115-0.293,2.224-0.348,2.403-1.965c0.185-1.67,1.329-2.288,2.987-1.837
	c0.796,0.216,1.602,0.395,2.527,0.798c-2.568,0.756-3.773,3.019-5.546,4.633c-0.246,0.224-0.521,0.48-0.86,0.314
	c-2.737-1.341-1.945,0.907-2.165,2.125c0.256,1.038-0.638,1.17-1.216,1.552c-2.451,0.602-4.937,1.003-7.444,1.275
	c-5.825,0.476-11.633,1.209-17.492,1.199c-0.455-0.001-0.91-0.014-1.365-0.021c-0.072-0.06-0.144-0.119-0.217-0.178
	c-0.504-1.091-0.116-2.18,0.474-2.959c1.675-2.214,1.311-4.902,1.963-7.344c0.099-0.372,0.068-0.781,0.217-1.147
	c0.974-2.384,0.882-2.725-1.23-4.354c-0.361-0.278-0.748-0.522-1.033-0.89c-0.725-1.341-0.399-2.443,0.761-3.354
	c0.843-0.233,1.083,0.539,1.551,0.934c0.247,0.26,0.497,0.519,0.747,0.777c0.128,0.128,0.242,0.267,0.35,0.412
	c0.464,0.533,0.517,1.302,1.042,1.859c0.346-0.87-0.468-2.031,0.744-2.593c3.198,0.801,6.403,1.359,9.662,0.345
	c0.274-0.081,0.556-0.128,0.838-0.156c1.112,0.219,1.93-0.368,2.729-1.014c0.675-0.015,1.084,0.322,1.271,0.956
	c0.055,0.515-0.137,0.961-0.383,1.392c-1.745,2.255-4.454,2.634-6.955,3.495c1.619-0.227,3.374,1.082,4.757-0.553
	c3.372-1.953,7.186-2.601,10.846-3.7c0.625-0.188,1.268-0.302,1.912-0.392c0.574-0.08,1.233-0.233,1.517,0.481
	c0.233,0.585-0.218,0.977-0.599,1.331c-0.383,0.356-0.789,0.684-1.012,1.173c-0.656,0.971-2.446,1.335-1.645,3.089
	C160.416,101.277,160.354,102.539,159.32,102.66z"/>
<path style="fill:#FFFF00;" d="M108.621,113.254c-3.571-0.396-7.142-0.791-10.713-1.187c-0.344-0.346-0.214-0.732-0.052-1.089
	c0.189-0.419,0.569-0.903,0.465-1.271c-0.649-2.281,0.024-4.229,1.275-6.096c0.155-0.232-0.011-0.642,0.043-0.97
	c1.466-1.544,1.919,0.276,2.757,0.828c0.641,0.803,1.489,1.427,2.033,2.318c0.576,2,1.713,0.749,2.687,0.461
	c4.905,0.891,9.794,0.779,14.67-0.191c0.709-0.016,1.421,0.005,2.133-0.005c2.605-0.036,2.605-0.035,3.255-2.441
	c1.873-0.741,2.687,1.052,3.891,1.769c0.849,0.506,0.264,1.49-0.163,2.28c-1.24,2.295-0.516,4.247,1.999,5.605l0.086,0.094
	c-3.86,0.599-7.746,0.215-11.619,0.307c-1.23,0.029-2.461-0.008-3.692-0.015c-1.713-0.395-3.47,0.068-5.186-0.267
	C111.199,113.342,109.91,113.298,108.621,113.254z"/>
<path style="fill:#707070;" d="M112.488,113.386c1.728,0.097,3.487-0.408,5.186,0.267
	C115.944,113.588,114.186,114.068,112.488,113.386z"/>
<path style="fill:#FFCB05;" d="M159.286,110.908c0.405-0.517,0.81-1.035,1.216-1.552c0.636-0.223,0.166-1.646,1.341-1.264
	c0.886,0.288,0.96,0.718,0.503,1.596c-0.281,0.539,0.624,0.366,0.976,0.549C161.976,110.46,160.631,110.684,159.286,110.908z"/>
<path style="fill:#FFFF00;" d="M158.18,122.413c-0.136,0.118,0.086,0.683-0.421,0.338c-0.847-1.107-0.468-2.358-0.419-3.571
	c0.001-0.028,0.044-0.148-0.006-0.186c-0.241-0.187-0.105,0.178-0.24,0.185c-1.635-1.353-2.541,0.139-3.625,0.929
	c-0.858-0.474-0.531-2.649-2.398-1.672c-0.835,0.176-1.623,0.051-2.364-0.368c-0.261-0.192-0.528-0.376-0.782-0.578
	c-2.161-1.721-2.211-2.199,0.517-3.232c3.219-1.219,6.513-1.088,9.43,1.095c1.086,0.813,0.841,2.087,0.785,3.206
	C158.592,119.849,158.347,121.129,158.18,122.413z"/>
<path style="fill:#FFFF00;" d="M148.708,118.068c0.913-0.014,1.826-0.027,2.739-0.041c0.535,0.303,0.668,0.866,0.879,1.375
	c0.206,0.496,0.438,0.916,1.086,0.618c0.223-0.311,0.477-0.603,0.661-0.936c0.385-0.695,0.764-1.382,1.689-1.404
	c1.113-0.027,0.566,1.169,1.125,1.554c0.878,1.387,0.572,2.685-0.295,3.94c-0.375,0.902-1.018,1.607-1.679,2.3
	c-0.423,0.228-0.879,0.129-1.326,0.147c-2.75,0.113-3.019-0.188-2.566-2.913c-0.094-0.756,0.154-1.577-0.427-2.239
	C150.75,119.05,149.17,119.001,148.708,118.068z"/>
<path style="fill:#E77F22;" d="M162.092,203.663c0.6-0.393,1.257-0.445,1.942-0.329c0.537,0.987-0.281,1.405-0.841,1.86
	c-1.255,1.02-2.598,1.929-3.806,3.011c-1.547,0.388-2.603,1.889-4.308,1.924c-0.417-1.367,0.84-1.701,1.488-2.407
	c0.297-0.323,0.853-0.537,0.623-1.094c-0.171-0.416-0.657-0.332-1.035-0.4c-0.996-0.179-1.948-0.423-2.038-1.702
	c0.835-1.315,1.926-1.815,3.455-1.204c0.793,0.317,1.65,0.238,2.487,0.1C160.76,203.307,161.468,203.132,162.092,203.663z"/>
<path style="fill:#FF0000;" d="M162.092,203.663c-1.899,0.108-3.754,0.874-5.713-0.165c-0.78-0.414-1.417,0.905-2.18,1.339
	c-0.199,0.264-0.476,0.36-0.793,0.375c-0.317-0.022-0.592-0.124-0.77-0.409c0.351-0.785,1.603-0.813,1.594-1.902
	c0.25-0.022,0.5-0.043,0.75-0.065c1.917-2.225,4.371-1.278,6.688-1.137c0.115,0.005,0.229,0.02,0.341,0.048
	C162.036,202.385,162.064,203.024,162.092,203.663z"/>
<path style="fill:#FF0000;" d="M92.753,202.124c0.005,0.132,0.011,0.264,0.016,0.396c0.02,0.538-0.379,0.702-0.766,0.673
	c-1.881-0.144-3.809-0.09-5.519-1.105c-0.122-0.127-0.244-0.254-0.366-0.38c0.331-0.398,0.609-0.861,1-1.184
	c1.73-1.43,2.394-1.352,3.718,0.484C91.333,201.694,91.868,202.175,92.753,202.124z"/>
<path style="fill:#B80000;" d="M161.667,201.699c-1.183,0.432-2.352,0.999-3.511-0.108c-0.437-0.418-0.82-0.033-1.157,0.274
	c-0.577,0.525-1.19,0.975-2.02,0.972c0.977-1.426,2.423-2.361,3.871-3.109C160.656,198.793,160.99,200.641,161.667,201.699z"/>
<path style="fill:#FFCB05;" d="M151.023,122.709c0.177,1.319-0.363,3.306,2.265,2.256c0.41-0.164,1.078,0.324,1.627,0.51
	c-0.1,0.289-0.199,0.578-0.298,0.867c-0.686,0.347-1.561,0.381-1.962,1.196c-1.11,0.652-1.852,0.246-2.364-0.825
	C150.155,125.309,150.112,123.921,151.023,122.709z"/>
<path style="fill:#FFCB05;" d="M156.593,123.174c0.355-1.294,0.415-2.61,0.296-3.94c0.183-0.662-0.156-1.441,0.871-2.435
	c0,2.249,0,4.101,0,5.952C157.371,122.892,156.982,123.033,156.593,123.174z"/>
<path style="fill:#FDB913;" d="M150.29,126.713c0.679,0.588,1.443,0.93,2.363,0.825c-0.761,0.601-1.312,2.669-2.492,0.36
	C150.204,127.503,150.247,127.108,150.29,126.713z"/>
<path style="fill:#FFCB05;" d="M154.003,131.427c-0.781,0.573-1.521,0.557-2.48-0.106
	C152.536,130.97,153.274,130.975,154.003,131.427z"/>
<path style="fill:#969696;" d="M205.077,142.509c2.274,2.29,3.007,5.26,3.659,8.274c0.801,3.704,0.94,7.363-0.605,10.932
	c-0.96,2.218-2.41,3.095-4.004,2.422c0.14-0.379,0.28-0.757,0.42-1.136c1.486,0.206,1.403-1.253,2.049-1.938
	c1.713-2.872,1.355-6.011,1.041-9.097c-0.148-1.458-0.362-2.959-1.015-4.326C206.106,145.93,205.591,144.22,205.077,142.509z"/>
<path style="fill:#AFAFAF;" d="M206.62,147.641c1.723,2.648,1.739,5.621,1.606,8.613c-0.078,1.755-0.001,3.578-1.632,4.81
	C207.953,156.592,207.237,152.116,206.62,147.641z"/>
<path style="fill:#595959;" d="M121.915,80.553c-0.996,0.787-2.183,0.495-3.21,0.328c-2.872-0.466-5.688-0.354-8.567-0.016
	c-1.776,0.209-3.697,0.041-5.43-0.42c-3.088-0.822-5.519,0.72-8.204,1.633c-3.183,1.083-6.263,2.851-9.875,2.08
	c-1.238-0.264-2.472-0.044-3.58,0.682c-1.591,1.043-3.34,1.462-5.235,1.236c4.937-2.216,10.224-2.901,15.517-3.541
	c2.266-0.274,4.061-1.729,6.197-2.348c4.573-1.325,9.182-0.206,13.764-0.399C116.233,79.664,119.024,80.529,121.915,80.553z"/>
<path style="fill:#525252;" d="M176.202,87.248c-0.134,0.271-0.267,0.542-0.402,0.814c-1.257,0.204-2.078-0.645-2.974-1.27
	c-1.617-1.126-3.498-1.453-5.29-2.081c-3.839-1.345-7.754-0.741-11.583-1.425c-3.097-0.554-5.962-1.755-8.992-2.432
	c-0.48-0.107-0.852-0.237-1.251,0.136c-1.4,1.308-2.572,0.544-3.714-0.432c0.326-0.002,0.717,0.114,0.969-0.025
	c3.515-1.922,6.31,0.989,9.438,1.29c3.189,0.306,6.165,2.176,9.548,1.184c1.339-0.393,2.841-0.236,4.066,0.831
	c0.649,0.566,1.435,0.742,2.373,0.491c1.678-0.449,3.227-0.061,4.417,1.271C173.727,86.629,174.816,87.223,176.202,87.248z"/>
<path style="fill:#FFCB05;" d="M162.465,97.91c-0.04-1.274,1.482-1.346,1.913-2.517c-1.442-0.204-2.67,0.29-3.916,0.606
	c-3.494,0.885-6.974,1.813-10.192,3.507c-0.264-0.545,0.092-1.005,0.457-1.125c1.097-0.363,1.197-1.423,1.72-2.185
	c0.335-0.351,0.763-0.446,1.227-0.463c2.467-0.092,2.467-0.094,2.791-2.7c-0.847-0.287-1.223,0.979-2.042,0.663
	c-0.896-0.357-1.121-1.027-0.888-1.91c0.366-0.753,1.109-1.237,1.439-2.019c0.077-0.182,0.105-0.367-0.067-0.706
	c-1.022,0.381-2.126,0.858-3.216,0.113c-0.363-0.773-0.446-1.685-1.126-2.305c0.269-1.508,1.478-1.357,2.443-1.187
	c2.172,0.383,4.266,1.159,6.536,0.327c0.958-0.351,0.967,0.745,1.265,1.534c1.046-1.368,2.201-2.28,3.901-1.377
	c1.024,0.795,0.621,1.42-0.291,1.868c-0.733,0.36-1.36,0.72-1.266,1.673c-0.038,0.181-0.108,0.347-0.207,0.503
	c-0.21,0.375-0.978,0.538-0.434,1.188c1.416,0.891,2.862,0.647,4.316,0.138c1.908-0.179,3.151-1.449,4.395-2.704
	c0.427-0.43,0.621-1.257,1.508-0.806c0.771,0.399,1.542,0.799,2.313,1.198c-0.002,0.529-0.243,0.934-0.65,1.253
	c-0.633,0.395-0.717,1.013-0.712,1.688c0.011,1.485-0.787,1.938-2.152,1.671c-0.651-0.128-1.503-0.71-1.861,0.247
	c-0.334,0.893,0.702,0.885,1.181,1.226c0.224,0.159,0.385,0.333,0.281,0.633c-1.197-0.249-1.746,0.562-2.263,1.405
	c-0.595,0.968-1.328,1.529-2.552,1.133c-1.611-0.52-1.586,1.102-2.262,1.807C163.374,99.596,164.033,98.007,162.465,97.91z"/>
<path style="fill:#FFCB05;" d="M120.726,81.744c0.402-0.119,0.804-0.237,1.206-0.356c1.691,0.4,3.437-0.053,5.135,0.34
	c0.501,0.116,1.009,0.147,1.416,0.504c0.599,0.745-0.121,1.337-0.226,2.003c-0.332,0.664-0.215,1.583-1.084,1.946
	c-0.69-0.347-1.163-0.191-1.636,0.473c-0.824,1.157-2.085,1.789-3.344,2.349c-1.599,0.711-2.163,0.276-2.007-1.478
	c0.033-0.375,0.305-0.8-0.143-1.055c-0.406-0.231-0.749,0.077-1.059,0.314c-0.365,0.278-0.685,0.612-1.048,0.894
	c-1.998,1.554-1.997,1.554-0.688,3.423c-1.828,0.801-3.119-0.021-3.695-2.343c0.551-2.06,1.46-3.942,2.838-5.583
	c0.57-0.679,1.337-0.712,2.132-0.608C119.406,82.683,120.206,82.595,120.726,81.744z"/>
<path style="fill:#FFCB05;" d="M108.156,82.159c0.501,0.123,1.002,0.245,1.504,0.368c0.662-0.255,1.385-0.441,1.939,0.079
	c0.34,0.319-0.124,0.663-0.362,0.939c-0.611,0.375-1.23,0.771-1.933,0.925c-1.142,0.25-1.836,0.935-2.197,2.011
	c-0.32,0.954-0.885,1.609-1.976,1.579c-1.165-0.032-1.974-0.597-2.407-1.688c-0.073-0.183-0.12-0.374-0.188-0.558
	c-0.244-0.66-0.141-1.676-0.875-1.866c-0.973-0.252-0.99,1.076-1.605,1.43c-2.074,1.196-3.74,3.388-6.76,2.093
	c-2.16-0.926-3.81,0.719-5.332,2.09c-0.434,0.391-0.686,0.963-1.212,1.269c-0.803,0.296-1.039-0.302-1.199-0.851
	c-0.197-0.676-0.641-1.087-1.202-1.425c-0.605-0.665-1.319-0.64-2.103-0.382c-0.846,0.278-1.702,0.538-2.614,0.504
	c-0.769-0.144-1.61-0.008-2.265-0.588c0.72-1.42,2.027-1.436,3.352-1.408c1.351,0.158,2.555-0.353,3.752-0.861
	c0.654-0.278,1.251-0.727,2.024-0.538c0.414,0.553,1.046,0.255,1.564,0.4c0.346,0.445,0.729,0.781,1.308,0.368
	c0.77-0.549,1.732-0.532,2.54-0.844c1.514-0.586,2.977-0.58,4.542-0.568c1.964,0.015,3.145-1.269,3.443-3.261
	c0.261-0.125,0.522-0.25,0.783-0.375c1.295,0.468,2.68,0.764,3.631,1.896c0.242,0.924-0.313,1.93,0.379,2.986
	C105.578,84.327,106.355,82.729,108.156,82.159z"/>
<path style="fill:#FFFF00;" d="M164.83,86.477c-1.131-0.125-2.338-0.629-3.135,0.74c-0.359,0.616-0.808,1.483-1.616,1.075
	c-0.957-0.483,0.375-1.195,0.053-2.19c-2.458,1.615-4.827,0.558-7.245,0.021c-0.788-0.175-1.744-0.254-2.255,0.726
	c-0.165,0.653-0.7,0.887-1.246,1.109c-1.293,0.215-2.418-0.132-3.469-0.924c-2.267-1.707-2.838-1.467-3.164,1.237
	c-0.023,0.195-0.121,0.371-0.233,0.536c-0.48,0.354-0.908,0.107-1.34-0.112c-0.709-0.559-0.857-1.277-0.445-2.048
	c0.662-1.237,1.089-2.609,2.071-3.665c0.637,0,1.274,0,1.911,0c0.01,0.887,0.502,1.442,1.33,1.51
	c1.15,0.093,1.861,0.763,2.426,1.627c1.503-0.784,2.1-2.88,4.176-2.505c2.205,1.592,4.802,0.239,7.123,0.954
	c1.5,0.627,3.114-0.082,4.627,0.395c0.357-0.08,0.623,0.049,0.814,0.354C165.643,85.887,165.361,86.223,164.83,86.477z"/>
<path style="fill:#FDB913;" d="M142.806,82.98c-0.036,1.375-0.902,2.418-1.528,3.522c-0.415,0.733-0.489,1.276-0.05,1.936
	c0.626,0.939,0.307,1.623-0.576,2.156c-0.895,0.318-1.6,0.152-2.071-0.676c-0.296,0.823-0.183,2.395-2,1.535
	c-0.144-0.126-0.238-0.284-0.283-0.471c0.286-1.21-0.322-2.217-0.748-3.267c-0.021-0.282,0.089-0.518,0.258-0.732
	c0.76-0.581,0.242-1.468,0.51-2.168c0.121-0.25,0.292-0.459,0.503-0.636c0.691-0.589,1.587-0.466,2.385-0.687
	c0.258-0.071,0.503-0.204,0.54-0.488c0.053-0.399-0.249-0.543-0.564-0.658c-0.762-0.278-1.72,0.129-2.331-0.673
	C139.137,80.732,141.046,81.514,142.806,82.98z"/>
<path style="fill:#FDB913;" d="M120.726,81.744c0.416,1.689-1.065,1.667-1.723,1.394c-1.989-0.826-3.021,0.673-3.237,1.782
	c-0.281,1.442-1.821,2.055-1.741,3.514c-0.204,0.326-0.414,0.643-0.86,0.647c-0.192-0.013-0.373-0.065-0.545-0.153
	c-1.367-0.912-1.567-2.031-0.59-3.358c0.536-1.463,1.668-2.641,1.996-4.205C116.285,81.035,118.46,82.204,120.726,81.744z"/>
<path style="fill:#FFCB05;" d="M152.648,83.611c-1.516,0.41-2.493,1.565-3.417,2.688c-0.622,0.755-0.923,1.176-1.346-0.053
	c-0.31-0.901-0.807-1.188-1.887-1.168c-0.877,0.016-2.046-0.668-1.281-2.099c0.256-0.024,0.512-0.048,0.768-0.072
	c0.218-0.082,0.931,0.3,0.426-0.457c0.966-0.61,2.11-0.561,2.968-0.126C150.099,82.941,151.356,83.291,152.648,83.611z"/>
<path style="fill:#FDB913;" d="M99.894,81.379c0.867,0.878,0.441,1.669-0.257,2.321c-1.292,1.208-2.765,1.924-4.606,1.355
	c-0.7-0.216-1.252-0.063-1.972,0.325c-1.383,0.745-3.088,0.626-4.507,1.628c-0.554,0.391-0.335-0.842-0.492-1.325
	c2.238-0.609,4.296-1.835,6.676-1.959c1.179,0.343,2.073-0.553,3.134-0.725C98.281,82.128,99.181,81.871,99.894,81.379z"/>
<path style="fill:#FDB913;" d="M127.842,84.125c-0.11-0.7,0.616-1.036,0.713-1.646c-0.23-0.531-1.176-0.287-1.162-1.081
	c1.352,0.026,2.739-0.342,4.029,0.368c0.893,0.416,1.852,0.018,2.766,0.221c0.249,0.055,0.348-0.023,0.087,0.003
	c0.001-0.133-0.054-0.24-0.166-0.321c0.713-0.583,1.374-0.226,2.036,0.113c0.962,0.819,0.079,1.261-0.363,1.795
	c-0.279,0.186-0.632,0.396-0.914,0.251c-1.949-1.005-2.983,0.225-3.982,1.58C129.818,85.108,128.813,84.656,127.842,84.125z"/>
<path style="fill:#FFFF00;" d="M172.731,88.029c-1.116,0.61-1.579,1.861-2.651,2.59c-1.041,0.708-2.023,1.305-3.28,1.39
	c-0.151-0.896,0.572-1.164,1.132-1.498c0.434-0.259,0.748-0.471,0.373-0.995c-0.096-0.148-0.165-0.305-0.216-0.472
	c-0.046-1.123,0.373-2.207,0.275-3.335C170.025,86.095,171.054,87.673,172.731,88.029z"/>
<path style="fill:#FDB913;" d="M108.156,82.159c-1.252,1.409-2.833,2.58-3.18,4.755c-1.582-1.211-1.422-2.512-0.753-3.901
	c-0.023-0.468-0.699-0.672-0.495-1.232C105.211,81.829,106.734,81.395,108.156,82.159z"/>
<path style="fill:#FFFF00;" d="M114.026,81.366c0.128,0.35,0.989,0.508,0.377,1.036c-1.032,0.89-1.202,2.255-1.945,3.294
	c-0.955,0.499-1.886,0.275-2.435-0.516c-0.608-0.876,0.227-1.396,0.866-1.863c0.336-0.226,0.95-0.473,0.09-0.769
	c-0.396-0.136-0.878-0.021-1.321-0.02C111.05,81.895,112.375,81.014,114.026,81.366z"/>
<path style="fill:#FFFF00;" d="M75.446,90.798c-0.126,0.025-0.263,0.027-0.376,0.08c-0.737,0.345-1.461,1.133-2.292,0.627
	c-0.879-0.535,0.321-1.372-0.059-2.112c-0.418,0.077-0.845,0.156-1.271,0.235c1.241-1.958,3.327-1.263,5.077-1.624
	c0.177-0.112,0.358-0.112,0.542-0.016C77.065,89.237,76.674,90.26,75.446,90.798z"/>
<path style="fill:#FFCB05;" d="M135.683,83.313c0.278-0.473,0.923-0.834,0.461-1.531c0.236-0.036,0.471-0.073,0.707-0.11
	c0.706,0.005,1.412,0.032,2.117,0.01c0.893-0.029,1.617,0.334,1.643,1.227c0.024,0.81-0.681,1.182-1.479,1.182
	c-0.778,0-1.544,0.018-2.234,0.445C135.803,84.819,135.355,84.453,135.683,83.313z"/>
<path style="fill:#FFCB05;" d="M164.83,86.477c0.127-0.387,0.255-0.775,0.382-1.162c0.418,0.139,0.835,0.277,1.253,0.416
	c0.803,1.062,1.012,2.448,1.885,3.472l0.051,0.086c-0.242,1.007-1.016,0.705-1.52,0.464c-1.428-0.685-2.744-0.552-4.05,0.248
	c-0.51-1.225-0.049-1.956,1.174-2.273C164.673,87.555,165.325,87.403,164.83,86.477z"/>
<path style="fill:#FDB913;" d="M168.351,89.203c-1.541-0.659-1.849-1.992-1.886-3.472c0.633-0.007,1.266-0.015,1.899-0.022
	C169.667,86.878,168.211,88.037,168.351,89.203z"/>
<path style="fill:#FFFF00;" d="M86.497,85.283c-1.757,0.834-3.343,2.265-5.531,1.593c0.045-0.225,0.261-0.294,0.396-0.436
	C83.081,86.088,84.469,84.26,86.497,85.283z"/>
<path style="fill:#FFFF00;" d="M66.825,96.41c-0.422-0.837-2.282,0.107-1.988-1.615c1.468,0.913,2.602,0.472,3.515-0.87
	C68.948,95.436,67.421,95.635,66.825,96.41z"/>
<path style="fill:#FFFF00;" d="M127.393,81.398c0.245,0.515,1.329,0.123,1.162,1.081c-2.127-0.856-4.454-0.488-6.623-1.091
	C123.753,81.391,125.573,81.395,127.393,81.398z"/>
<path style="fill:#FFFF00;" d="M103.728,81.781c0.031,0.465,1.23,0.457,0.495,1.231c-1.182-0.669-2.364-1.339-3.546-2.008
	C101.82,80.768,102.767,81.301,103.728,81.781z"/>
<path style="fill:#FDB913;" d="M164.399,84.961c0.053,0.177,0.106,0.353,0.158,0.53c-1.448-1.076-3.389,0.414-4.786-0.925
	C161.331,84.499,162.907,84.231,164.399,84.961z"/>
<path style="fill:#FFFF00;" d="M81.362,86.441c-0.132,0.145-0.264,0.291-0.396,0.436c-1.342-0.105-2.552,0.188-3.53,1.178
	c-0.119,0.114-0.242,0.119-0.369,0.015c-0.181-0.022-0.362-0.043-0.543-0.065C77.853,86.602,79.547,86.332,81.362,86.441z"/>
<path style="fill:#FFFF00;" d="M97.87,83c-0.984,0.504-1.846,1.539-3.133,0.725C95.803,83.578,96.724,82.797,97.87,83z"/>
<path style="fill:#FDB913;" d="M145.911,82.45c0.477,0.072,1.027-0.138,1.49,0.488c-0.673,0.553-1.281,0.535-1.916-0.031
	C145.627,82.755,145.769,82.602,145.911,82.45z"/>
<path style="fill:#FFCB05;" d="M134.109,81.67c0.248,0.05,0.496,0.1,0.743,0.15c-1.149,0.17-2.3,0.614-3.43-0.053
	C132.317,81.735,133.213,81.702,134.109,81.67z"/>
<path style="fill:#FFCB05;" d="M112.885,88.824c0.11,0.023,0.22,0.046,0.329,0.07c0.75,0.755,0.301,1.414-0.169,2.068
	c-0.305,0.425-0.696,0.856-0.213,1.376c0.386,0.415,1.02,0.615,1.432,0.364c2.775-1.689,5.525-0.634,8.29-0.045
	c0.94,0.157,1.999,0.177,1.85,1.596c-0.783,0.58-1.542-0.029-2.226-0.186c-2.087-0.481-4.043-0.172-5.957,0.593
	c-1.817,0.726-3.589,0.761-5.323-0.153c-1.173-0.618-1.841-0.258-2.22,0.937c-0.119,0.374-0.296,0.731-0.428,1.102
	c-1.553,4.379-4.616,3.37-7.232,1.222c-0.625-0.513-0.922-1.328-0.518-2.146c0.292-0.592,0.788-0.89,1.441-0.412
	c0.546,1.601,1.787,1.887,3.272,1.756c0.594-0.053,0.819-0.314,0.668-0.894c-0.132-0.508-0.348-0.849-0.959-0.581
	c-0.779,0.341-1.563,0.723-2.397,0.131c-0.454-0.675-0.084-1.23,0.474-2.1c-3.231,1.226-5.437,3.948-8.857,4.482
	c0.74,1.776,1.582,3.682,4.066,4.099c0.594,0.059,1.202,0.076,1.657,0.549c0.601,0.991,0.475,1.845-0.424,2.608
	c-0.972,0.825-1.511,1.617-0.625,3.01c0.869,1.367-0.613,2.515-0.908,3.799c-5.55-0.698-11.085-1.483-16.541-2.753
	c1.988-1.641,1.154-4.661,3.081-6.332c-0.253-0.41-0.058-0.728,0.208-1.033c1.036-0.993,2.28-1.673,3.526-2.354
	c1.448-0.411,2.328-1.222,1.872-2.855c-0.22-0.786,0.113-1.262,0.696-1.658c1.694-1.149,3.409-2.213,5.602-2.016
	c1.82,0.163,3.505-0.298,5.03-1.321c0.275-0.115,0.562-0.177,0.858-0.197c1.286,0.153,2.579,0.139,3.874,0.348
	c1.542,0.249,2.728-0.649,3.549-1.953C110.444,88.7,111.382,87.963,112.885,88.824z"/>
<path style="fill:#FFCB05;" d="M78.978,96.713c0.268-0.428,0.708-0.388,1.124-0.413c0.102-0.006,0.204-0.012,0.306-0.019
	c1.518,0.279,2.821,1.263,4.444,1.26c0.824-0.002,1.058,0.583,0.754,1.377c-0.366,0.954-0.916,1.711-1.906,2.082
	c-0.205,0.079-0.416,0.129-0.633,0.161c-0.989,0.015-2.027,0.309-2.866-0.511c-0.154-0.129-0.307-0.259-0.461-0.388
	c-0.1-0.094-0.213-0.149-0.34-0.167c-1.13-0.162-2.381-0.467-2.506-1.725C76.773,97.152,78.268,97.276,78.978,96.713z"/>
<path style="fill:#FFCB05;" d="M77.067,88.069c0.123-0.003,0.246-0.008,0.369-0.015c0.781,0.11,1.633-0.282,2.341,0.335
	c0.264,1.123-0.669,1.666-1.167,2.419c-0.27,0.92-0.539,1.84-0.809,2.76c-0.063,0.009-0.13,0.008-0.189,0.029
	c-1.112,0.384-2.359,0.808-3.153-0.34c-0.733-1.061,0.668-1.619,0.987-2.458C75.986,89.888,76.526,88.979,77.067,88.069z"/>
<path style="fill:#FFCB05;" d="M83.249,100.711c0.172-0.014,0.345-0.028,0.517-0.043c0.641-0.126,1.147-0.793,1.9-0.479
	c0.431,0.954-0.448,1.401-0.792,2.055c-0.142,0.247-0.284,0.493-0.426,0.739c-1.327,0.098-1.827,0.907-2.043,2.139
	c-0.073,0.42,0.05,1.2-0.853,1.273c-0.65,0.053-0.911-0.358-1.276-0.692c-0.719-0.657,0.183-0.978,0.306-1.462
	C80.735,102.507,81.895,101.535,83.249,100.711z"/>
<path style="fill:#FFFF00;" d="M78.61,90.808c-0.213-1.098,0.772-1.615,1.167-2.419c1.043-0.303,2.096-0.575,3.125-0.919
	c0.956-0.32,1.499-0.079,1.584,0.971c0.124,0.539,0.114,1.073-0.06,1.601c-0.35,0.766-0.983,0.766-1.642,0.553
	c-0.652-0.21-1.269-0.207-1.883,0.098c-0.252,0.098-0.512,0.12-0.779,0.087C79.618,90.79,79.114,90.799,78.61,90.808z"/>
<path style="fill:#FFFF00;" d="M83.249,100.711c-0.889,1.177-1.778,2.354-2.668,3.531c-0.588-0.087-1.239,0.69-1.766-0.091
	c-0.423-0.627-0.15-1.242,0.157-1.826c0.326-0.618,0.489-1.36,1.227-1.676C81.216,100.67,82.233,100.691,83.249,100.711z"/>
<path style="fill:#FFCB05;" d="M80.122,90.781c0.163-0.106,0.325-0.213,0.488-0.319c0.796,2.027,0.42,3.974-0.395,5.893L80.103,96.3
	C78.964,94.456,79.09,92.617,80.122,90.781z"/>
<path style="fill:#FDB913;" d="M78.978,96.713c-2.486,1.937-2.486,1.937,0.761,3.549c-0.263-0.003-0.546,0.06-0.783-0.019
	c-1.025-0.337-2.55-0.401-2.583-1.688C76.337,97.131,77.807,96.925,78.978,96.713z"/>
<path style="fill:#FFFF00;" d="M67.219,101.917c-0.558-0.388-1.445-0.469-1.522-1.32c-0.099-1.08,1.26-0.395,1.499-1.133
	c0.837-0.021,1.772,0.354,1.794,1.062C69.016,101.353,67.959,101.614,67.219,101.917z"/>
<path style="fill:#FDB913;" d="M171.13,95.944c-0.774-0.658-2.732-0.242-2.222-2.011c0.489-1.697,1.739-0.94,2.853-0.493
	c1.117,0.449,1.52-0.35,1.687-1.27c0.124-0.687-0.026-1.494,0.946-1.692c-0.659,1.259-0.703,2.333,0.773,3.089
	c0.447,0.229,0.794,0.671,1.158,1.044c1.912,1.96,4.109,3.11,6.95,2.581c0.865-0.161,1.673,0.094,2.392,0.607
	c-0.864,2.481-3.338,2.122-5.162,2.819c-0.898,0.343-2.037,0.053-3.067,0.05c-0.068-1.605-1.251-1.965-2.5-2.228
	c-0.814-0.172-1.722-0.093-2.254-0.937C172.165,96.984,171.647,96.464,171.13,95.944z"/>
<path style="fill:#FDB913;" d="M162.465,97.91c1.297-0.576,2.179-0.628,1.644,1.249c-0.101,0.353-0.042,0.752-0.057,1.129
	c-0.304,0.724-0.845,1.44-0.868,2.172c-0.069,2.162-1.959,1.672-3.035,2.005c-0.728,0.225-1.458-0.752-0.828-1.806
	c0.171-0.174,0.521-0.448,0.488-0.507c-1.103-1.976,0.335-1.058,1.26-0.914C159.457,99.163,161.272,98.688,162.465,97.91z"/>
<path style="fill:#FFCB05;" d="M172.682,97.504c1.436,0.531,3.05,0.324,4.425,1.203c0.956,0.611,1.048,1.167,0.33,1.962
	c-1.05,0.459-2.083,0.859-2.974-0.317c-0.37-0.488-0.862-0.447-1.416-0.266c-0.977,0.318-2.311,0.407-2.521-0.641
	C170.282,98.231,171.414,97.562,172.682,97.504z"/>
<path style="fill:#3A3A3A;" d="M43.934,146.065c-0.891,1.49-0.761,3.214-1.106,4.829c0.421,3.158-0.25,6.374,0.512,9.513
	c-1.343,0.815-1.688-0.434-2.085-1.152c-0.877-1.585-1.07-3.354-0.982-5.157c0.266-5.448,1.346-10.661,4.373-15.315
	c0.649-0.998,1.416-1.909,2.445-2.523c0.8-0.477,0.943-0.356,1.159,0.713C45.964,139.599,44.648,142.689,43.934,146.065z"/>
<path style="fill:#646464;" d="M48.25,136.973c-0.396-1.345-0.911-0.366-1.291-0.027c-3.023,2.701-4.364,6.336-5.201,10.121
	c-0.827,3.739-1.698,7.538-0.326,11.388c0.352,0.987,0.846,1.745,1.783,2.202c0.094-0.178,0.192-0.189,0.293-0.006
	c0.629,0.354,0.48,1.11,0.827,1.61c-1.066,1.328-2.03,0.78-2.905-0.206c-1.462-1.646-1.499-3.761-1.566-5.752
	c-0.22-6.537,1.353-12.672,4.518-18.394c0.576-1.042,1.342-1.937,2.207-2.742c0.58-0.54,1.193-1.086,2.066-0.525
	c0.242,0.533,0.888,0.849,0.825,1.546C49.07,136.45,48.66,136.712,48.25,136.973z"/>
<path style="fill:#7A7A7A;" d="M48.655,134.643c-1.916,0.36-3.051,1.78-3.937,3.276c-3.158,5.34-4.6,11.193-4.673,17.374
	c-0.022,1.82,0.245,3.664,0.986,5.345c0.606,1.375,1.464,2.601,3.304,1.624c0.266,0.39,0.532,0.78,0.797,1.169
	c-2.841,1.138-4.569-0.322-5.07-3.359c-1.412-8.563,0.473-16.505,5.065-23.819c0.446-0.71,1.084-1.308,1.683-1.909
	C47.527,133.627,48.185,133.643,48.655,134.643z"/>
<path style="fill:#B80000;" d="M167.599,207.72c-0.091,0.056-0.186,0.103-0.278,0.158c-0.669-0.498-1.343-0.432-2.021,0.153
	c-0.308-0.357-0.715-0.441-1.17-0.395c-0.415,0.153-0.895,0.105-1.259,0.413c-0.682,0.999-1.787,1.265-2.833,1.62
	c-8.658,2.935-17.651,4.185-26.699,4.579c-10.969,0.478-21.959,0.249-32.801-1.911c-6.163-1.228-12.297-2.591-17.652-6.137
	c-1.62-1.073-3.342-2.154-3.456-4.444c-0.793-0.149-1.586-0.298-2.379-0.447c0,0,0,0,0,0s0,0,0,0c-0.26-0.126-0.52-0.251-0.78-0.377
	v0c-0.849-0.51-1.799-0.677-2.757-0.82c-0.242,1.822,0.344,3.346,1.624,4.639c1.629,1.646,3.533,2.933,5.598,3.903
	c9.286,4.363,19.287,5.781,29.338,6.827c5.752,0.598,11.544,0.585,17.335,0.464c4.957-0.103,9.891-0.195,14.839-0.749
	c6.875-0.771,13.67-1.831,20.279-3.875c2.466-0.763,5.037-1.414,7.034-3.248C168.998,207.442,168.307,207.529,167.599,207.72z"/>
<path style="fill:#E77F22;" d="M90.804,208.031c-3.101-0.383-4.306-2.983-5.931-5.093c0.877,0.363,1.713,0.649,1.612-0.851
	c1.697,0.204,3.397,0.384,5.088,0.628c0.448,0.065,0.861,0.278,1.197-0.197c0.248,0.139,0.497,0.277,0.746,0.416
	c0.369,0.58,0.461,1.171,0.076,1.784c-0.582,0.62-1.397,0.694-2.151,0.857c-1.124,0.243-1.801,0.586-0.734,1.734
	C90.887,207.505,90.945,207.767,90.804,208.031z"/>
<path style="fill:#D35400;" d="M177.162,200.43c-0.454-0.818-1.383,0.135-2.113,0.066c-2.924,1.155-6.079,1.441-9.049,2.423v0
	c-0.723-0.183-1.313,0.268-1.966,0.415c-0.045,0.844-0.739,1.133-1.27,1.615c-1.14,1.033-2.73,1.557-3.467,3.045
	c-1.763-0.084-2.74,1.613-4.33,1.922c-0.345-0.344-0.795-0.404-1.246-0.455c-0.34-0.03-0.681-0.042-1.022-0.012
	c-1.624,0.034-3.254-0.167-4.869,0.148c-6.202,1.425-12.509,2.042-18.85,2.151c-4.573,0.078-9.151,0.207-13.728-0.322
	c-4.353-0.503-8.734-0.755-13.003-1.843c-1.716-0.296-3.446-0.129-5.171-0.159c-0.726,0.046-1.445,0.039-2.141-0.212
	c-1.464-0.171-2.628-1.109-3.988-1.545c-1.041-0.222-2.077-0.515-2.758-1.386c-0.976-1.251-2.193-2.246-3.318-3.34
	c-1.815-0.394-3.629-0.789-5.444-1.183c-0.843,1.278,0.091,2.121,0.805,2.921c2.023,2.268,4.71,3.54,7.456,4.634
	c9.496,3.782,19.518,5.026,29.591,5.48c10.004,0.452,20.039,0.277,29.961-1.503c4.514-0.81,9.021-1.662,13.344-3.241
	c0.983-0.359,2.207-0.584,2.345-1.992c0.951-0.225,1.807-0.597,1.896-1.686c1.154-0.059,2.049-0.794,3.07-1.196
	c0.016-0.007,0.034-0.01,0.051-0.016c0.488,0.29,1.072,0.25,1.608,0.2c1.202-0.113,1.959,0.372,2.408,1.446
	c1.116-0.797,2.315-1.428,3.639-1.795c0.712-0.198,1.392-0.407,1.467-1.31l0,0C177.709,202.623,177.699,201.397,177.162,200.43z"/>
<path style="fill:#FD5702;" d="M167.577,204.848c0.965,0.006,1.934,0.068,2.895,0.006c1.523-0.098,2.012,0.516,1.491,1.948
	c-0.294,0.381-0.588,0.762-0.882,1.143c-0.364-0.007-0.728-0.014-1.092-0.02c-0.173-1.974-0.62-2.264-2.401-1.638
	c-1.231,0.433-2.372,1.037-3.503,1.672c-0.405,0.03-0.81,0.06-1.214,0.09c-0.645-0.017-1.29-0.035-1.935-0.052
	c1.288-0.675,3.207-0.072,3.907-1.937C165.754,205.656,166.665,205.252,167.577,204.848z"/>
<path style="fill:#F78003;" d="M164.084,207.958c0.899-1.795,2.909-1.752,4.386-2.569c0.626-0.346,1.521,0.32,2.03,0.874
	c0.625,0.68-0.277,1.117-0.512,1.661c-0.143,0.049-0.286,0.097-0.429,0.146c-0.656,0.012-1.312,0.025-1.968,0.037
	c-0.788-0.006-1.575-0.013-2.363-0.019C164.847,208.045,164.465,208.002,164.084,207.958z"/>
<path style="fill:#0A0A0A;" d="M103.372,205.573c0.578-0.439,1.255-0.294,1.895-0.294c13.2-0.008,26.399-0.008,39.599,0
	c0.64,0,1.317-0.147,1.893,0.296c-0.898,1.032-2.246,0.4-3.289,0.899c-1.998,0.369-4.054-0.112-6.041,0.431
	c-8.36,0.249-16.72,0.245-25.079,0.006c-1.867-0.485-3.803-0.111-5.685-0.434C105.623,205.976,104.268,206.609,103.372,205.573z"/>
<path style="fill:#FDB913;" d="M102.156,210.054c-1.812-0.041-3.623-0.082-5.435-0.124c-0.662-0.262-1.752-0.006-1.725-1.145
	c0.023-0.976,0.941-1.093,1.671-1.36c1.324-0.485,2.546,0.173,4.173,0.309c-1.637-0.215-2.734-0.896-3.905-1.37
	c-0.587-0.238-1.179-0.618-0.998-1.454c0.818-0.1,1.624-0.12,2.347,0.375c2.918,0.93,5.75,2.113,8.71,2.924
	c3.87,1.221,7.868,1.472,11.881,1.671c0.795,0.039,2.033-0.507,2.188,1.035c-1.238,0.744-2.611,0.278-3.913,0.446
	C112.146,211,107.151,210.527,102.156,210.054z"/>
<path style="fill:#FDB913;" d="M146.328,207.627c1.373-0.893,3.084-1.149,4.317-2.305c0.38-0.042,0.76-0.083,1.14-0.125
	c0.458,0.719,0.434,0.815-0.043,1.344c-0.666,0.739-1.681,0.633-2.66,1.146c0.756,0.598,1.627,0.522,2.341,0.825
	c0.68,0.288,1.602,0.323,1.566,1.413c-1.673,0.037-3.346,0.073-5.019,0.11c-3.898,0.52-7.839,0.639-11.726,1.281
	c-0.883,0.146-1.813,0.149-2.673-0.249c-0.226-0.115-0.341-0.301-0.345-0.555c1.279-0.941,2.84-0.628,4.256-0.85
	C140.489,209.19,143.509,208.875,146.328,207.627z"/>
<path style="fill:#F39B11;" d="M152.991,209.926c-0.94-1.233-2.484-0.943-3.703-1.474c-0.414-0.18-1.243,0.23-1.163-0.602
	c0.057-0.6,0.661-1.001,1.301-0.981c0.978,0.031,1.799-0.196,2.405-1.012c0.185-0.249,0.201-0.456-0.045-0.66
	c0.283-0.131,0.566-0.263,0.85-0.394c0.256,0.041,0.512,0.083,0.767,0.125c0.114,1.124,0.277,2.052,1.547,2.692
	c1.113,0.56,0.624,1.548-1.14,2.318C153.537,209.933,153.264,209.93,152.991,209.926z"/>
<path style="fill:#F39B11;" d="M95.938,204.91c1.023,1.596,2.954,1.477,4.386,2.308c0.525,0.304,1.244,0.248,1.82,0.907
	c-1.205,0.558-2.208-0.195-3.227-0.261c-0.638-0.042-1.257-0.339-1.892-0.007c-0.589,0.307-1.641-0.056-1.721,0.953
	c-0.071,0.887,1.036,0.616,1.417,1.121c-0.693,0.122-1.354,0.026-1.984-0.289c-0.252-0.341-0.714-0.247-1.017-0.509
	c-0.4-0.345-0.858-0.654-0.722-1.27c0.126-0.569,0.564-0.969,1.099-0.962c1.801,0.022,1.24-1.02,0.95-1.967
	c0.111-0.161,0.265-0.24,0.459-0.238C95.65,204.766,95.794,204.838,95.938,204.91z"/>
<path style="fill:#B80000;" d="M95.506,204.695c-0.131,0.025-0.263,0.05-0.394,0.074c-0.564,0.161-1.099,0.191-1.504-0.345
	c-0.048-0.495-0.44-0.969-0.093-1.489C94.458,203.204,95.198,203.704,95.506,204.695z"/>
<path style="fill:#FDB913;" d="M132.899,113.267c-0.972,0.056-1.992,0.24-2.437-1.003c-0.568-1.586-1.272-3.186-0.137-4.795
	c1.102-1.561,1.036-2.126-0.753-2.385c-1.177-0.171-0.887-1.846-2.136-1.644c-0.595-0.163-1.185-0.344-1.786-0.494
	c-0.603-0.329-1.19-0.669-1.02-1.517c1.671-0.306,3.422,0.254,5.072-0.763c0.732-0.451,1.542,0.464,1.579,1.285
	c0.081,1.81,1.458,3.001,1.918,5.04c0.903-2.017,1.019-3.711,0.823-5.446c-0.036-0.318-0.303-0.644-0.228-0.942
	c0.367-1.472-0.177-2.251-1.668-2.448c-0.235-0.031-0.369-0.35-0.474-0.596c0.172-0.949,0.736-1.353,1.686-1.219
	c1.208,0.55,2.271,1.283,2.962,2.453c0.543,0.92,1.785,1.884-0.239,2.645c-0.504,0.189-0.435,0.944-0.348,1.444
	c0.285,1.635-1.544,3.117-0.337,4.86c0.087,0.125-0.76,0.811-1.053,1.306C133.554,110.345,132.93,111.71,132.899,113.267z"/>
<path style="fill:#FDB913;" d="M133.338,96.338c-0.526,0.393-1.052,0.786-1.578,1.179c-2.273-0.92-4.43-0.192-6.613,0.418
	c-0.743,0.208-1.562,0.139-2.306-0.084c-1.301-0.39-2.111,0.017-2.48,1.323c-2.264-0.289-2.439-0.628-1.936-3.738
	c0.236-1.459,0.964-1.83,2.709-1.514c1.099,0.199,2.186,0.416,3.171,0.948c1.157,0.625,1.773,0.218,2.255-0.919
	c1.279-3.02,2.578-3.543,5.682-2.411c0.732,0.431,1.943,0.318,1.884,1.653C133.39,94.123,132.928,95.121,133.338,96.338z"/>
<path style="fill:#FFCB05;" d="M140.421,90.421c0.695-0.487,0.885-1.18,0.806-1.983c0.387,0.137,0.774,0.275,1.161,0.412
	c0.609,0.685-0.241,1.294-0.107,1.98c0.642,0.334,1.352,0.156,2.026,0.249c0.966,0.043,1.959-0.117,2.863,0.383
	c0.281,0.163,0.55,0.347,0.838,0.502c2.193,1.181,2.249,1.765,0.321,3.235c-3.494,1.398-6.905,0.923-10.278-0.451
	c-0.604,0.355-1.137,1.059-1.949,0.403l-0.007-0.008c-0.458-0.629-0.467-1.254,0.016-1.875c0.13-0.137,0.284-0.242,0.454-0.322
	C138.169,92.594,139.395,91.661,140.421,90.421z"/>
<path style="fill:#FFFF00;" d="M134.125,93.193c-0.342-0.927-1.358-0.741-1.98-1.205c-1.169-1.698-2.472-1.763-4.289-0.157
	c-0.777,0.687-1.305,1.599-1.955,2.401c-0.659,0.813-0.837,0.784-1.624,0.135c-0.106-1.332-1.113-1.161-1.994-1.2
	c-0.039-0.203,0.002-0.469,0.17-0.504c2.672-0.553,4.703-2.278,6.884-3.733c0.37-0.247,0.851-0.297,1.285-0.428
	c0.381-0.099,0.769-0.147,1.162-0.165c2.113-0.228,3.969,0.036,4.669,2.48c0.024,0.121,0.053,0.24,0.086,0.358
	c0.253,0.675,0.498,1.349-0.067,1.997l0.005-0.001c-0.605,0.193-0.738,0.855-1.189,1.201
	C134.901,93.979,134.513,93.586,134.125,93.193z"/>
<path style="fill:#FFCB05;" d="M158.187,106.197c0.573,0.07,0.781,0.409,0.685,0.955c-0.132,0.744-0.733,0.615-1.23,0.63
	c-2.397,0.072-4.79-0.067-7.195,0.193c-1.821,0.196-3.489,0.889-5.264,1.185c-0.569,0.095-1.233,0.462-1.508-0.301
	c-0.365-1.014-0.065-1.945,0.826-2.596c0.906-0.662,0.892,0.632,1.103,0.634c1.161,0.011,2.388,0.41,3.49-0.297
	c1.116-0.458,2.135,0.245,3.22,0.294C154.329,106.984,156.237,106.48,158.187,106.197z"/>
<path style="fill:#FDB913;" d="M152.627,96.341c0.379,1.926-1.875,1.883-2.357,3.165c-0.433,0.053-0.693,0.252-0.777,0.723
	c-0.166,0.929-0.555,1.143-1.254,0.354c-0.654-0.737-1.416-0.78-2.216-0.213c-0.334,0.237-0.731,0.448-1.046,0.085
	c-0.496-0.573,0.111-1.098,0.199-1.646c0.062-0.389,0.305-0.853,0.762-0.704c2.574,0.839,4.278-0.784,6.102-2.088
	c0.053-0.038,0.113-0.065,0.17-0.097C152.443,95.968,152.582,96.108,152.627,96.341z"/>
<path style="fill:#FFFF00;" d="M151.84,89.23c0.341-0.054,0.531-0.875,0.875-0.391c0.565,0.797,0.936,0.502,1.277-0.063
	c0.401-0.664,0.843-0.749,1.406-0.271c0.561,0.477,0.495,1.096,0.073,1.548c-0.51,0.546-0.741,1.417-1.638,1.556
	c-0.697-0.719-1.323-1.162-1.687,0.284c-0.173,0.689-0.335,1.393-0.696,2.022c-0.107,1.769-1.415,1.136-2.377,1.193
	c0-0.793,1.124-1.134,0.818-2.051C150.092,91.553,149.902,89.846,151.84,89.23z"/>
<path style="fill:#FDB913;" d="M152.627,96.341c-0.139-0.14-0.278-0.28-0.417-0.421c0.153-0.391,0.306-0.783,0.459-1.174
	c0.484-0.643,1.059-1.135,1.916-1.157c0.896-0.194,0.894-2.045,2.014-1.414c1.262,0.711,0.231,1.972,0.045,2.918
	c-0.194,0.983-0.752,1.925-2.138,1.193C153.932,95.982,153.247,96.055,152.627,96.341z"/>
<path style="fill:#FFCB05;" d="M150.673,104.56c0.136-0.105,0.271-0.21,0.407-0.315c1.672,0.55,3.439-0.169,5.111,0.386
	l-0.032-0.019c0.524,0.381,1.566,0.366,1.307,1.367c-0.204,0.788-1.093,0.746-1.655,0.687c-1.664-0.173-3.282,0.774-4.934,0.157
	c-0.56-0.209-1.42-0.001-1.555-0.876C149.168,104.951,150.21,105.014,150.673,104.56z"/>
<path style="fill:#FDB913;" d="M150.673,104.56c-0.143,0.63-1.51,0.735-0.971,1.385c0.452,0.544,1.78,1.012,2.284,0.729
	c1.213-0.679,2.403-0.264,3.579-0.445c0.542-0.084,1.316,0.302,1.571-0.363c0.276-0.719-0.787-0.712-0.977-1.254
	c1.092-0.006,1.891,0.364,2.027,1.586c-2.954,1.865-6.006,1.525-9.092,0.402C148.134,104.764,149.607,104.82,150.673,104.56z"/>
<path style="fill:#FFCB05;" d="M154.586,93.589c-0.573,0.496-1.091,1.083-1.916,1.158c-0.278-0.466-0.656-0.786-1.22-0.83
	c-0.496-1.101,0.391-1.992,0.474-3.014c0.039-0.476,0.544-0.728,1.057-0.633c0.735,0.137,0.863,0.704,0.852,1.341
	C153.701,92.416,153.889,93.1,154.586,93.589z"/>
<path style="fill:#FFCB05;" d="M139.214,105.068c-0.511-0.909-0.216-1.912-1.284-2.259c-0.476-0.155-0.148-0.776,0.155-1.141
	c0.367-0.444,0.701-0.415,1.127-0.033C140.36,102.664,140.254,103.71,139.214,105.068z"/>
<path style="fill:#FDB913;" d="M136.103,95.151c0.777,0.484,1.131-1.09,1.949-0.402c0.051,0.701-0.051,1.414,0.253,2.095
	c0.207,0.464,0.122,0.886-0.407,1.113c-0.681,0.292-0.743-0.314-0.913-0.675C136.66,96.585,136.394,95.862,136.103,95.151z"/>
<path style="fill:#FFCB05;" d="M150.264,93.2c0.206,1.015-0.552,1.425-1.192,1.909c-0.247,0.03-0.495,0.06-0.743,0.09
	c1.206-1.898,1.206-1.898-1.222-3.245C148.63,91.175,149.567,91.881,150.264,93.2z"/>
<path style="fill:#FDB913;" d="M156.191,104.63c-1.697-0.214-3.461,0.454-5.111-0.386
	C152.778,104.455,154.546,103.722,156.191,104.63z"/>
<path style="fill:#FDB913;" d="M135.289,94.372c-0.052-0.847,0.303-1.288,1.189-1.201c-0.35,0.613-0.436,1.278-0.382,1.971
	C135.827,94.886,135.558,94.629,135.289,94.372z"/>
<path style="fill:#FDB913;" d="M124.707,101.472c0.376,0.4,0.752,0.801,1.128,1.201c0.906,1.297-0.014,2.051-0.849,2.812
	c-0.879,0.801-2.048,0.781-3.112,1.056c-5.078,1.144-10.169,1.108-15.268,0.155c-1.138,0.656-1.847,0.076-2.435-0.85
	c-0.742-0.596-1.523-1.153-1.992-2.02c-0.516-0.911-0.016-1.546,0.58-2.157c0.636-0.508,1.293-0.968,2.173-0.86
	c0.292,0.101,0.508,0.262,0.47,0.617c-0.179,0.435-0.57,0.692-0.865,1.032c-0.551,0.635-0.522,1.2,0.299,1.519
	c1.143,0.443,2.12,1.26,3.363,1.473c2.788,0.599,5.548,1.456,8.451,0.816c0.772-0.163,1.558-0.252,2.324-0.438
	c1.23-0.158,2.443-0.39,3.467-1.157c1.322-0.99,1.288-1.665-0.171-2.403c-1.341-0.678-2.796-1.034-4.275-1.296
	c-3.231-0.144-6.463-0.478-9.661,0.309c-0.716-0.151-1.695,0.145-1.801-1.053c3.53-1.486,7.185-2.483,11.027-1.917
	c1.427,0.21,2.628,1.437,4.201,1.443C122.873,100.099,124.034,100.366,124.707,101.472z"/>
<path style="fill:#FFCB05;" d="M103.026,101.894c-0.434,0.577-0.92,1.131-0.847,1.931c-0.839-0.258-0.925-2.006-2.314-1.174
	c-0.656,0-1.312,0.001-1.968,0.001c-1.19-0.718-1.804-1.788-1.489-3.141c0.342-1.473,1.658-2.108,2.856-2.788
	c0.112-0.064,0.248-0.088,0.38-0.084C101.159,96.682,103.529,100.365,103.026,101.894z"/>
<path style="fill:#FFCB05;" d="M121.874,106.54c0.824-0.385,1.672-0.724,2.465-1.165c1.035-0.576,1.754-1.382,1.496-2.703
	c0.651,0.009,1.432-0.254,1.601,0.767c0.001,3.161,0.001,3.163-3.211,3.14C123.441,106.574,122.657,106.554,121.874,106.54z"/>
<path style="fill:#FFCB05;" d="M104.171,105.845c0.743,0.481,1.511,0.89,2.435,0.849c-0.14,1.059-0.826,0.807-1.543,0.719
	C103.984,107.282,104.267,106.479,104.171,105.845z"/>
<path style="fill:#FFCB05;" d="M153.412,120.02c-0.033,0.364,0.11,0.828-0.346,0.995c-0.362,0.133-0.619-0.171-0.733-0.466
	c-0.322-0.83-0.594-1.68-0.886-2.522c0.485-0.808,1.047-1.015,1.487-0.024C153.209,118.624,153.26,119.344,153.412,120.02z"/>
<path style="fill:#E77F22;" d="M153.81,209.937c1.8-1.369,1.823-1.415-0.207-2.438c-1.587-0.799-0.299-1.706-0.2-2.572
	c0.265-0.03,0.531-0.06,0.796-0.091c0.789,0.505,1.447,1.259,2.596,0.903c0.441-0.137,1.038,0.193,1.237,0.724
	c0.224,0.597-0.226,1.003-0.65,1.269c-0.938,0.59-1.749,1.301-2.415,2.183C154.581,209.922,154.195,209.93,153.81,209.937z"/>
<path style="fill:#FFFF00;" d="M150.264,93.2c-0.92-0.75-1.929-1.277-3.156-1.246c-0.952-0.739-2.078-0.191-3.099-0.421
	c-0.487-1.006,0.399-1.234,0.952-1.521c1.507-0.78,3.045-1.499,4.509-2.361c0.387-0.268,0.775-0.535,1.162-0.803
	c1.9,0.031,0.982,1.498,1.208,2.382C150.592,90.266,150.496,91.76,150.264,93.2z"/>
<path style="fill:#FDB913;" d="M162.833,90.001c0.671-1.951,2.065-1.42,3.441-1.027c0.691,0.198,1.294,1.075,2.128,0.314
	c0.396,0.175,0.943,0.264,0.97,0.775c0.029,0.556-0.481,0.685-0.935,0.747c-0.767,0.105-1.145,0.726-1.637,1.198
	c-1.643,0.674-3.245,0.864-4.726-0.396c0.321-0.504,0.539-1.056,0.759-1.608L162.833,90.001z"/>
<path style="fill:#FFFF00;" d="M162.833,90.004c0.172,0.737,0.569,1.582-0.759,1.608C160.287,90.109,162.672,90.583,162.833,90.004z
	"/>
<path style="fill:#FFFF00;" d="M117.191,90.821c-0.683-0.001-1.354-0.047-1.522-0.896c-0.14-0.706,0.087-1.404,0.655-1.745
	c0.967-0.581,1.827-1.256,2.618-2.049c0.522-0.523,1.175-0.634,1.774-0.158c0.603,0.479,0.393,1.032-0.024,1.546
	c-0.314,0.387-0.469,0.816-0.122,1.25c0.416,0.522,0.869,0.14,1.22-0.074c1.413-0.86,3.029-1.33,3.852-3.119
	c0.608-1.323,1.177-0.416,1.392,0.507c0.281,0.738,0.649,1.458,0.483,2.293c-2.035,2.191-4.259,3.931-7.521,3.654
	C118.878,91.935,118.052,91.392,117.191,90.821z"/>
<path style="fill:#FFCB05;" d="M117.191,90.821c0.304-0.069,0.688-0.293,0.9-0.183c2.771,1.441,4.503,1.323,6.765-0.651
	c0.811-0.708,2.068-0.818,2.544-1.949c1.177-0.18,2.286-0.091,3.186,0.816c-1.597,1.108-3.46,1.814-4.852,3.234
	c-0.954,0.973-2.42,0.33-3.45,1.079c-1.317,0.057-2.381-0.837-3.755-0.859c-1.346-0.021-2.438-0.016-3.59,0.848
	c-0.848,0.636-2.064,0.305-2.759-0.467c-0.616-0.685-0.538-1.527,0.522-2.038c0.711-0.343,0.528-1.113,0.513-1.758
	c0.27-0.153,0.541-0.306,0.811-0.459C114.255,90.426,115.514,91.375,117.191,90.821z"/>
<path style="fill:#FDB913;" d="M130.586,88.853c-1.075-0.22-2.206-0.218-3.186-0.816c-0.333-0.612-1.136-1.136-0.367-1.956
	c0.643-0.497,0.304-1.402,0.809-1.957c1.308-0.332,2.219,0.428,3.145,1.147c0.914-0.714,1.806-0.466,2.723-0.07
	c-0.077,1.079-1.044,0.726-1.798,1.49c1.034-0.134,1.752,0.685,2.247-0.748c0.345-0.997,1.135-0.461,1.74-0.048
	c0.347,0.413,0.558,0.845,0.201,1.36c-0.134,0.131-0.267,0.263-0.401,0.394c-0.982,1.556-2.678,0.637-3.961,1.151
	C131.355,88.818,130.971,88.836,130.586,88.853z"/>
<path style="fill:#FFFF00;" d="M101.437,92.001c-1.095,1.369-2.654,1.717-4.22,1.535c-2.479-0.288-4.441,0.744-6.388,1.999
	c-0.419,0.27-0.688,0.429-0.385,1.055c0.845,1.75-0.239,3.224-2.37,3.34c-0.042-0.075-0.083-0.15-0.126-0.224
	c0.321-0.938,0.215-1.811-0.398-2.609c-0.33-1.286-1.192-2.308-1.715-3.492c-0.461-1.042-0.848-2.151,0.62-2.801
	c1.46-2.205,3.141-4.074,6.082-4.05c0.123,0.001,0.31-0.159,0.36-0.117c1.874,1.591,3.346,0.462,5.084-0.446
	c0.916-0.479,1.663-0.845,2.124-1.759c0.352-0.697,0.684-1.536,1.65-1.429c0.978,0.108,0.793,1.057,0.987,1.706
	c0.168,0.562,0.253,1.153,0.464,1.696c0.351,0.902,1.09,1.248,2.025,1.25c0.899,0.002,1.208-0.497,1.363-1.332
	c0.442-2.373,2.701-2.232,4.296-3.007c-1.966,2.442,0.645,1.851,1.569,2.379c-1.05,1.206-0.58,2.203,0.425,3.128
	c-1.418-0.11-2.423,0.216-2.986,1.796c-0.473,1.33-2.898,2.007-4.359,1.694c-1.099-0.235-2.246-0.248-3.372-0.36
	c-1.061-1.29-1.425-3.35-3.684-3.315c-0.974,0.015-1.948,0.005-3.363-0.018c1.93,0.092,3.451-0.192,4.886,0.46
	c0.445,0.202,0.832,0.453,0.786,0.99c-0.039,0.451-0.423,0.691-0.816,0.727c-2.073,0.189-4.153,0.301-6.235,0.213
	c-0.625-0.026-1.095-0.339-1.151-1.041c0.061,0.997,0.878,1.031,1.567,1.178c1.607,0.342,3.24,0.32,4.873,0.331
	C99.857,91.484,100.75,91.304,101.437,92.001z"/>
<path style="fill:#FFCB05;" d="M86.455,90.804c-1.025,1.089-0.615,2.276,0.096,3.183c0.753,0.961,1.059,2.057,1.523,3.113
	c-1.274,0.6-1.741-0.282-2.178-1.2c-0.882-1.854-1.298-3.848-1.729-5.838c-0.022-0.566-0.22-1.166,0.319-1.62
	C86.412,88.167,85.469,90.293,86.455,90.804z"/>
<path style="fill:#FFFF00;" d="M149.47,87.651c-0.659,1.127-1.789,1.56-2.888,2.112c-0.917,0.461-2.193,0.499-2.573,1.77
	c-0.255-0.025-0.521-0.107-0.766-0.065c-2.124,0.357-2-0.505-1.046-1.875c0.137-0.197,0.131-0.493,0.191-0.743
	c0.001-0.262,0.003-0.523,0.001-0.785c-0.006-0.927-0.579-2.066,0.624-2.609c1.175-0.531,2.405,0.226,3.005,0.907
	C147.042,87.524,148.218,87.517,149.47,87.651z"/>
<path style="fill:#FFCB05;" d="M135.697,86.093c-0.353-0.142-0.707-0.284-1.117-0.448c-0.171,0.668,1.127,0.984,0.442,1.386
	c-1.026,0.602-2.268,0.301-3.407,0.082c-0.396-0.076-0.724-0.501-0.544-0.896c0.465-1.019,1.552-0.213,2.468-0.828
	c-0.995-0.045-1.774-0.081-2.553-0.117c0.774-2.414,1.055-2.583,3.413-1.935c0.447,0.123,0.859,0.222,1.283-0.025
	c0.039,0.774,0.489,1.137,1.216,1.224c-0.136,0.122-0.272,0.244-0.409,0.366C136.001,85.149,136.717,86.202,135.697,86.093z"/>
<path style="fill:#FFFF00;" d="M136.473,93.173c0.114-0.662-0.43-1.347,0.066-1.997c1.764,0.715,1.366-0.819,1.622-1.69
	c0.823,0.272,1.327,1.155,2.26,0.935C140.153,91.934,138.15,93.33,136.473,93.173z"/>
<path style="fill:#FFCB05;" d="M131.739,88.8c1.259-0.595,2.763-0.344,3.961-1.15c0.717,0.944,1.838,1.792,0.754,3.167
	c-0.289-0.152-0.769-0.245-0.836-0.464C134.962,88.175,133.149,89.007,131.739,88.8z"/>
<path style="fill:#FFCB05;" d="M135.697,86.093c0.264-0.397,0.529-0.793,0.793-1.189c0.059,0.816,0.908,1.763-0.389,2.353
	C135.966,86.868,135.832,86.48,135.697,86.093z"/>
<path style="fill:#FFFF00;" d="M103.026,101.894c-0.037-1.456-1.897-4.489-3.101-4.815c-0.954-0.259-1.384,0.791-2.088,1.185
	c-0.731,0.408-1.341,1.098-1.04,2.116c0.242,0.817,0.566,1.596,1.099,2.273c-2.77-0.931-4.491-3.425-4.107-6.318
	c1.08,1.833,1.848,0.752,3.064,0.219c2.355-1.033,3.894-3.91,7.191-3.253c-0.579,0.773-1.685,1.119-1.427,2.234
	c-0.251,0.224-0.51,0.255-0.778,0.029c-1.6-0.473-1.22,0.482-0.903,1.304c0.35,0.906,3.234,2.504,4.234,2.327
	c1.468-0.261,2.27-1.309,2.51-2.666c0.163-0.925,0.839-1.577,0.954-2.533c0.112-0.93,0.896-0.781,1.51-0.388
	c2.249,1.44,4.502,1.241,6.881,0.268c2.449-1.002,4.909-0.78,7.252,0.493c1.139,0.734,1.253-0.418,1.626-0.943
	c0.996-1.401,2.237-2.493,3.82-3.141c1.79-0.733,2.359-0.307,2.422,1.706c-3.29-1.052-3.921-0.686-5.184,2.666
	c-0.416,1.104-1.346,1.677-2.464,0.88c-1.166-0.831-2.555-0.908-3.827-1.354c-1.228-0.431-1.812,0.291-1.796,1.509
	c0.004,0.312,0.321,0.743,0.202,0.915c-1.2,1.726,0.197,2,1.308,2.447c1.046-0.321,1.483,0.15,1.503,1.162
	c-2.094,0.219-3.571-1.602-5.706-1.582c-3.319,0.031-6.364,1.258-9.57,1.713c-0.345,0.781-1.085,0.542-1.688,0.656
	C104.29,101.298,103.658,101.596,103.026,101.894z"/>
<path style="fill:#FDB913;" d="M101.437,92.001c-2.705-0.236-5.502,0.529-8.114-0.784c-0.542-0.272-1.193-0.492-1.221-1.125
	c-0.033-0.76,0.608-1.071,1.483-1.27c-0.074,0.621-1.061,0.912-0.561,1.535c0.503,0.626,1.138,0.339,1.797,0.27
	c1.491-0.155,2.997-0.149,4.496-0.232c0.417-0.023,1.062,0.205,1.123-0.435c0.052-0.545-0.561-0.599-0.979-0.774
	c-1.502-0.631-3.107-0.191-4.749-0.466c4.725-0.762,7.123,0.012,7.456,3.235C101.924,91.969,101.681,91.985,101.437,92.001z"/>
<path style="fill:#FDB913;" d="M92.766,103.487c0.141-0.491-0.244-1.226,0.512-1.503c0.648-0.237,1.036,0.163,1.472,0.642
	c0.902,0.992,2.763,1.093,2.575,3.115c-0.067,0.724-0.122,1.132-0.86,1.18C95.109,107.011,92.788,104.862,92.766,103.487z"/>
<path style="fill:#FDB913;" d="M101.84,95.562c0.259-0.009,0.519-0.019,0.778-0.029c0.58,0.008,1.239,0.15,1.688-0.262
	c2.035-1.867,1.842,0.439,2.409,1.276c0.235,0.347-0.044,0.611-0.31,0.797C105.145,98.223,102.281,97.099,101.84,95.562z"/>
<path style="fill:#FFFF00;" d="M84.874,102.244c0.281-0.642,0.561-1.284,0.842-1.925c0.65-0.697,1.384-1.005,2.293-0.493
	l0.064,0.104C87.007,100.702,85.941,101.473,84.874,102.244z"/>
<path style="fill:#FDB913;" d="M98.282,109.654c-0.009,0.445-0.086,0.847-0.611,0.83c-0.518-0.017-0.896-0.31-0.809-0.862
	c0.056-0.357,0.21-0.839,0.65-0.87C98.097,108.71,98.21,109.211,98.282,109.654z"/>
<path style="fill:#FDB913;" d="M88.009,99.826c-0.764,0.164-1.529,0.328-2.293,0.493c-0.65,0.117-1.3,0.234-1.95,0.35
	c0.898-0.618,1.293-1.555,1.674-2.732c-2.017,0.273-3.699-0.428-5.225-1.582c0.132-1.964,0.264-3.929,0.395-5.893
	c0.667-0.598,1.354-0.889,2.222-0.332c0.41,0.263,0.922,0.543,1.336-0.067c1.427,1.517,1.138,3.673,2.001,5.416
	c0.436,0.88,0.827,1.598,1.906,1.622C88.972,98.031,89.133,98.944,88.009,99.826z"/>
<path style="fill:#F39B11;" d="M133.333,210.783c4.188,0.165,8.28-1.142,12.48-0.81c0.716,0.057,1.438,0.044,2.158,0.063
	c-3.747,1.234-7.668,1.452-11.539,1.887c-5.734,0.645-11.513,0.658-17.258,0.361c-5.713-0.295-11.458-0.634-17.018-2.23
	c4.248-0.202,8.479-0.111,12.682,0.64c0.765,0.137,1.566,0.068,2.351,0.094c0.998,0.423,2.078,0.313,3.059,0.163
	c4.126-0.632,8.273-0.132,12.402-0.366C132.899,210.576,133.127,210.642,133.333,210.783z"/>
<path style="fill:#E77F22;" d="M93.609,204.424c0.518,0.043,1.09-0.15,1.504,0.345c0.27,0.362,0.538,0.727,0.812,1.087
	c0.222,0.293,0.696,0.499,0.478,0.959c-0.192,0.404-0.637,0.376-1.03,0.419c-0.729,0.08-1.762-0.342-2.012,0.69
	c-0.23,0.949,1.026,1.04,1.377,1.716c-1.483-0.116-2.616-1.089-3.933-1.61c-0.268-0.273-0.5-0.599-0.811-0.806
	c-0.473-0.316-0.852-0.65-0.647-1.267c0.165-0.496,0.592-0.631,1.079-0.695C91.518,205.118,92.611,204.947,93.609,204.424z"/>
<path style="fill:#FFFF00;" d="M143.533,205.995c1.189,0.464,0.323,0.716-0.13,0.804c-2.942,0.566-5.88,1.183-8.846,1.588
	c-4.488,0.613-9.021,0.547-13.53,0.386c-4.756-0.17-9.483-0.761-14.115-1.938c-0.674-0.171-0.668-0.195-0.306-0.844
	c1.849,0.078,3.719-0.137,5.54,0.375c1.078,0.863,2.375,0.388,3.562,0.551c7.11,0.977,14.219,0.429,21.325-0.134
	c0.26-0.021,0.514-0.077,0.596-0.386C139.573,205.9,141.56,206.055,143.533,205.995z"/>
<path style="fill:#FFFF00;" d="M137.629,206.397c0.15,0.125,0.882,0.225,0.139,0.439c-1.24,0.357-2.531,0.591-3.816,0.731
	c-6.899,0.754-13.786,0.555-20.654-0.402c-0.431-0.06-0.838-0.294-1.252-0.458c-0.025-0.01-0.028-0.123-0.01-0.179
	c0.018-0.059,0.072-0.108,0.11-0.161C120.64,206.376,129.135,206.386,137.629,206.397z"/>
<path style="fill:#FFFF00;" d="M148.303,205.591c-0.515-0.005-1.03-0.011-1.545-0.016c-1.069,0.19-2.195-0.068-3.225,0.421
	c-0.427,0.658-1.159,0.518-1.766,0.629c-3.269,0.593-6.54,1.105-9.867,1.384c-6.734,0.564-13.42,0.334-20.065-0.761
	c-1.749-0.288-3.639-0.22-5.23-1.257c-1.032-0.496-2.163-0.221-3.233-0.417c-0.495,0.008-0.991,0.015-1.487,0.023
	c-1.153-0.651-2.399-0.232-3.601-0.311c2.475,1.794,5.506,2.109,8.272,3.13l0,0l0,0c0.328,0.455,0.815,0.669,1.33,0.751
	c3.651,0.584,7.292,1.251,11.014,1.239c0.749-0.002,1.581-0.289,2.235,0.371c2.542,0.435,5.104,0.099,7.655,0.189
	c1.481-0.483,3.109,0.218,4.551-0.569c1.953,0.201,3.877-0.225,5.765-0.52c2.194-0.343,4.569-0.31,6.488-1.652
	c0.117-0.028,0.234-0.052,0.35-0.08c1.1-0.198,2.038-0.787,3.006-1.28c0.685-0.349,1.731-0.371,1.693-1.542
	C149.85,205.286,149.033,205.058,148.303,205.591z"/>
<path style="fill:#FDB913;" d="M121.136,210.776c2.621,0,5.242,0.001,7.863,0.001c1.315-0.293,2.63-0.313,3.944,0.01
	c-0.273,0.345-0.656,0.382-1.053,0.382c-4.549,0-9.098,0-13.648,0c-0.398,0-0.781-0.037-1.053-0.382
	C118.505,210.784,119.82,210.78,121.136,210.776z"/>
<path style="fill:#FEE804;" d="M132.943,210.788c-1.315-0.003-2.629-0.007-3.944-0.01c1.387-0.818,2.901-0.196,4.343-0.381
	c-0.006,0.129-0.009,0.258-0.01,0.386C133.203,210.786,133.073,210.787,132.943,210.788z"/>
<path style="fill:#FFCB05;" d="M121.887,100.213c-0.342-0.594-0.793-1.047-1.503-1.161c-0.404-1.694-0.03-2.227,1.617-1.869
	c2.244,0.488,4.212,0.371,6.278-0.905c1.126-0.696,2.276,0.87,3.482,1.239c2.011,0.268,2.758,1.013,2.689,3.414
	c-0.057,1.986-0.189,3.967-0.38,5.945c-0.039,0.405-0.283,0.768-0.759,0.749c-0.463-0.018-0.732-0.391-0.733-0.786
	c-0.003-1.814-2.126-2.838-1.705-4.876c0.131-0.635-0.731-1.54-1.465-0.825c-1.558,1.519-3.112,0.64-4.7,0.333
	C123.767,101.052,122.827,100.633,121.887,100.213z"/>
<path style="fill:#FFFF00;" d="M118.373,100.674c1.661,0.05,3.193,0.59,4.613,1.388c1.225,0.689,1.399,1.604,0.274,2.631
	c-1.169,1.066-2.556,1.49-4.096,1.531c-0.527-0.737,0.163-1.01,0.53-1.416c0.972-1.073,0.832-1.909-0.523-2.252
	c-2.358-0.596-4.742-0.833-7.037,0.338c-0.467,0.238-1.153,0.498-0.954,1.051c0.273,0.759,0.856,0.193,1.267-0.024
	c0.584-0.308,1.347-0.461,1.475,0.235c0.315,1.71,1.783,1.838,2.907,2.465c-3.139,0.981-6.103,0.018-9.079-0.82
	c-1.145-1.738-0.102-4.342,2.113-4.754C112.662,100.527,115.512,100.215,118.373,100.674z"/>
<path style="fill:#FFCB05;" d="M116.829,106.622c-1.401-0.126-3.182,0.414-3.108-2.075c0.02-0.66-0.681-0.793-1.09-0.175
	c-0.451,0.682-1.044,0.751-1.705,0.561c-0.402-0.116-0.632-0.523-0.591-0.926c0.081-0.8,0.644-1.215,1.338-1.547
	c2.479-1.187,5.044-1.003,7.607-0.464c0.827,0.174,1.611,0.642,1.803,1.612c0.203,1.027-0.594,1.349-1.298,1.7
	c-0.391,0.195-0.604,0.48-0.621,0.915C118.429,106.609,117.634,106.647,116.829,106.622z"/>
<path style="fill:#FFCB05;" d="M118.373,100.674c-2.673-0.089-5.301,0.252-7.917,0.776c-2.038,0.408-3.235,2.285-2.705,4.352
	c-1.237-0.521-2.474-1.042-3.711-1.561c-0.853-0.359-0.761-0.992-0.357-1.578c0.399-0.579,0.871-1.149,1.673-1.209
	c0.075,0.042,0.15,0.084,0.226,0.124c1.054,1.139,1.567-0.314,2.345-0.492c0.084-0.023,0.167-0.046,0.251-0.069
	c0.689-0.536,1.441-0.819,2.339-0.735C113.129,100.525,115.79,99.804,118.373,100.674z"/>
<path style="fill:#FFCB05;" d="M104.922,101c0.563-0.219,1.125-0.438,1.688-0.656c0.523,0.224,1.045,0.448,1.568,0.671l-0.042,0.059
	c-0.862,0.407-1.677,1.103-2.713,0.441c0,0-0.067-0.063-0.067-0.063C105.211,101.302,105.067,101.151,104.922,101z"/>
<path style="fill:#FFCB05;" d="M107.267,89.31c-0.392,1.012-0.915,2.015-2.117,2.011c-0.578-0.002-1.32-0.682-1.17-1.345
	c0.279-1.238,1.525-1.261,2.511-1.483C107.03,88.371,107.342,88.713,107.267,89.31z"/>
<path style="fill:#FDB913;" d="M105.424,101.515c0.904-0.147,1.808-0.294,2.713-0.441c-0.431,0.467-0.781,1.083-1.31,1.367
	C105.99,102.891,105.295,102.731,105.424,101.515z"/>
</svg>
