<?xml version="1.0" encoding="UTF-8" standalone="no"?>
<svg
   xmlns:dc="http://purl.org/dc/elements/1.1/"
   xmlns:cc="http://creativecommons.org/ns#"
   xmlns:rdf="http://www.w3.org/1999/02/22-rdf-syntax-ns#"
   xmlns:svg="http://www.w3.org/2000/svg"
   xmlns="http://www.w3.org/2000/svg"
   viewBox="0 0 330.66665 245.33333"
   height="245.33333"
   width="330.66666"
   xml:space="preserve"
   id="svg2"
   version="1.1"><metadata
     id="metadata8"><rdf:RDF><cc:Work
         rdf:about=""><dc:format>image/svg+xml</dc:format><dc:type
           rdf:resource="http://purl.org/dc/dcmitype/StillImage" /></cc:Work></rdf:RDF></metadata><defs
     id="defs6"><clipPath
       id="clipPath18"
       clipPathUnits="userSpaceOnUse"><path
         id="path16"
         d="M 0,256 H 256 V 0 H 0 Z" /></clipPath><clipPath
       id="clipPath26"
       clipPathUnits="userSpaceOnUse"><path
         id="path24"
         d="M 4,220 H 252 V 36 H 4 Z" /></clipPath></defs><g
     transform="matrix(1.3333333,0,0,-1.3333333,-5.3333332,293.33333)"
     id="g10"><g
       id="g12"><g
         clip-path="url(#clipPath18)"
         id="g14"><g
           id="g20"><g
             id="g22" /><g
             id="g34"><g
               style="opacity:0.5"
               id="g32"
               clip-path="url(#clipPath26)"><g
                 id="g30"
                 transform="translate(244,200)"><path
                   id="path28"
                   style="fill:#ffffff;fill-opacity:1;fill-rule:nonzero;stroke:none"
                   d="m 0,0 h -8 v 8 8 h -4 v 4 h -8 -192 -8 v -4 h -4 V 8 0 h -8 -8 v -8 -148 -8 h 8 232 8 v 8 148 8 z" /></g></g></g></g></g></g><path
       id="path36"
       style="fill:#333333;fill-opacity:1;fill-rule:nonzero;stroke:none"
       d="M 228,188 H 28 v 20 h 200 z" /><path
       id="path38"
       style="fill:#191919;fill-opacity:1;fill-rule:nonzero;stroke:none"
       d="M 32,212 H 224 V 188 H 32 Z" /><path
       id="path40"
       style="fill:#262626;fill-opacity:1;fill-rule:nonzero;stroke:none"
       d="M 244,44 H 12 v 148 h 232 z" /><path
       id="path42"
       style="fill:#b3b3b3;fill-opacity:1;fill-rule:nonzero;stroke:none"
       d="M 232,52 H 24 v 120 h 208 z" /><path
       id="path44"
       style="fill:#808080;fill-opacity:1;fill-rule:nonzero;stroke:none"
       d="M 224,84 H 32 v 80 h 192 z" /><path
       id="path46"
       style="fill:#b3b3b3;fill-opacity:1;fill-rule:nonzero;stroke:none"
       d="M 220,140 H 36 v 20 h 184 z" /><path
       id="path48"
       style="fill:#262626;fill-opacity:1;fill-rule:nonzero;stroke:none"
       d="M 224,60 H 32 v 20 h 192 z" /></g></svg>