<svg xmlns="http://www.w3.org/2000/svg" xml:space="preserve" width="330.667" height="314.667"><defs><clipPath id="a" clipPathUnits="userSpaceOnUse"><path d="M0 256h256V0H0Z"/></clipPath><clipPath id="b" clipPathUnits="userSpaceOnUse"><path d="M4 244h248V8H4Z"/></clipPath></defs><g clip-path="url(#a)" transform="matrix(1.33333 0 0 -1.33333 -5.333 325.333)"><g clip-path="url(#b)" style="opacity:.5"><path d="M0 0h-16a9.99 9.99 0 0 1-7.995-4h-180.01A9.99 9.99 0 0 1-212 0h-16c-5.514 0-10-4.486-10-10v-201.753c0-.817.101-1.633.298-2.426l3.562-14.247a9.986 9.986 0 0 1 9.702-7.574H-3.562a9.986 9.986 0 0 1 9.702 7.575l3.561 14.246c.198.793.299 1.609.299 2.426V-10C10-4.486 5.514 0 0 0" style="fill:#fff;fill-opacity:1;fill-rule:nonzero;stroke:none" transform="translate(242 244)"/></g><path d="M0 0v18.029a2 2 0 0 1-2 2h-16a2 2 0 0 1-2-2v-2h-192v2a2 2 0 0 1-2 2h-16a2 2 0 0 1-2-2V0h4v-3.971h-4V-8h4v-3.971h-4V-16h4v-3.971h-4V-24h4v-3.971h-4V-32h4v-3.971h-4V-40h4v-3.971h-4v-139.753q0-.247.06-.485l3.561-14.247a2 2 0 0 1 1.941-1.515H-5.562c.918 0 1.718.625 1.941 1.515l3.561 14.247q.06.238.06.485v139.753h-4V-40h4v4.029h-4V-32h4v4.029h-4V-24h4v4.029h-4V-16h4v4.029h-4V-8h4v4.029h-4V0Z" style="fill:#262626;fill-opacity:1;fill-rule:nonzero;stroke:none" transform="translate(244 215.97)"/><path d="M240 212H16v4h224zm0-8H16v4h224zm0-8H16v4h224zm0-8H16v4h224zm0-8H16v4h224zm0-8H16v4h224z" style="fill:#191919;fill-opacity:1;fill-rule:nonzero;stroke:none"/><path d="M0 0h-184a4 4 0 0 0-4 4v100H4V4a4 4 0 0 0-4-4" style="fill:#404040;fill-opacity:1;fill-rule:nonzero;stroke:none" transform="translate(220 128)"/><path d="m0 0-28-24V0Z" style="fill:#ff0;fill-opacity:1;fill-rule:nonzero;stroke:none" transform="translate(60 232)"/></g></svg>