<?xml version="1.0" encoding="UTF-8" standalone="no"?>
<svg
   xmlns:dc="http://purl.org/dc/elements/1.1/"
   xmlns:cc="http://creativecommons.org/ns#"
   xmlns:rdf="http://www.w3.org/1999/02/22-rdf-syntax-ns#"
   xmlns:svg="http://www.w3.org/2000/svg"
   xmlns="http://www.w3.org/2000/svg"
   viewBox="0 0 330.66665 122.66666"
   height="122.66666"
   width="330.66666"
   xml:space="preserve"
   id="svg2"
   version="1.1"><metadata
     id="metadata8"><rdf:RDF><cc:Work
         rdf:about=""><dc:format>image/svg+xml</dc:format><dc:type
           rdf:resource="http://purl.org/dc/dcmitype/StillImage" /></cc:Work></rdf:RDF></metadata><defs
     id="defs6"><clipPath
       id="clipPath18"
       clipPathUnits="userSpaceOnUse"><path
         id="path16"
         d="M 0,256 H 256 V 0 H 0 Z" /></clipPath><clipPath
       id="clipPath26"
       clipPathUnits="userSpaceOnUse"><path
         id="path24"
         d="M 4,172 H 252 V 80 H 4 Z" /></clipPath></defs><g
     transform="matrix(1.3333333,0,0,-1.3333333,-5.3333332,229.33333)"
     id="g10"><g
       id="g12"><g
         clip-path="url(#clipPath18)"
         id="g14"><g
           id="g20"><g
             id="g22" /><g
             id="g34"><g
               style="opacity:0.5"
               id="g32"
               clip-path="url(#clipPath26)"><g
                 id="g30"
                 transform="translate(240,168)"><path
                   id="path28"
                   style="fill:#ffffff;fill-opacity:1;fill-rule:nonzero;stroke:none"
                   d="m 0,0 h -58.977 c -2.17,2.452 -5.341,4 -8.866,4 h -88.314 c -3.525,0 -6.695,-1.548 -8.866,-4 H -224 c -6.617,0 -12,-5.383 -12,-12 v -48 c 0,-4.249 2.22,-7.99 5.562,-10.123 1.963,-3.455 5.596,-5.845 9.839,-6.057 l 71.266,-3.563 c 3.128,-4.974 8.681,-8.257 14.799,-8.257 h 45.068 c 6.117,0 11.671,3.283 14.799,8.257 L -3.4,-76.18 c 4.242,0.212 7.875,2.602 9.838,6.057 C 9.78,-67.99 12,-64.249 12,-60 v 48 C 12,-5.383 6.617,0 0,0" /></g></g></g></g><g
           transform="translate(128,108)"
           id="g36"><path
             id="path38"
             style="fill:#b80000;fill-opacity:1;fill-rule:nonzero;stroke:none"
             d="m 0,0 -112,-4 v -0.195 c 0,-2.131 1.671,-3.889 3.8,-3.995 L -32,-12 H 0 32 l 76.2,3.81 c 2.128,0.106 3.8,1.864 3.8,3.995 V -4 Z" /></g><g
           transform="translate(240,160)"
           id="g40"><path
             id="path42"
             style="fill:#ff0000;fill-opacity:1;fill-rule:nonzero;stroke:none"
             d="M 0,0 H -63.843 C -63.93,0 -64,0.07 -64,0.157 -64,2.279 -65.721,4 -67.843,4 h -88.314 C -158.279,4 -160,2.279 -160,0.157 -160,0.07 -160.07,0 -160.157,0 H -224 c -2.209,0 -4,-1.791 -4,-4 v -48 c 0,-2.209 1.791,-4 4,-4 h 80 v -6.534 c 0,-5.206 4.26,-9.466 9.466,-9.466 h 45.068 c 5.206,0 9.466,4.26 9.466,9.466 V -56 H 0 c 2.209,0 4,1.791 4,4 V -4 C 4,-1.791 2.209,0 0,0" /></g><g
           transform="translate(170,156)"
           id="g44"><path
             id="path46"
             style="fill:#cccccc;fill-opacity:1;fill-rule:nonzero;stroke:none"
             d="m 0,0 h -84 c -1.1,0 -2,0.9 -2,2 0,1.1 0.9,2 2,2 H 0 C 1.1,4 2,3.1 2,2 2,0.9 1.1,0 0,0" /></g><path
           id="path48"
           style="fill:#191919;fill-opacity:1;fill-rule:nonzero;stroke:none"
           d="M 52,140 H 20 v 12 h 32 z" /><g
           transform="translate(156,116)"
           id="g50"><path
             id="path52"
             style="fill:#191919;fill-opacity:1;fill-rule:nonzero;stroke:none"
             d="m 0,0 h -52 c -2.2,0 -4,1.8 -4,4 0,2.2 1.8,4 4,4 H 0 C 2.2,8 4,6.2 4,4 4,1.8 2.2,0 0,0" /></g><g
           transform="translate(102,136)"
           id="g54"><path
             id="path56"
             style="fill:#545454;fill-opacity:1;fill-rule:nonzero;stroke:none"
             d="m 0,0 v 0 c -3.3,0 -6,2.7 -6,6 0,3.3 2.7,6 6,6 C 3.3,12 6,9.3 6,6 6,2.7 3.3,0 0,0" /></g><g
           transform="translate(104,142)"
           id="g58"><path
             id="path60"
             style="fill:#404040;fill-opacity:1;fill-rule:nonzero;stroke:none"
             d="m 0,0 c 0,-1.104 -0.896,-2 -2,-2 -1.104,0 -2,0.896 -2,2 0,1.104 0.896,2 2,2 1.104,0 2,-0.896 2,-2" /></g><g
           transform="translate(190,140)"
           id="g62"><path
             id="path64"
             style="fill:#545454;fill-opacity:1;fill-rule:nonzero;stroke:none"
             d="m 0,0 v 0 c -3.3,0 -6,2.7 -6,6 0,3.3 2.7,6 6,6 C 3.3,12 6,9.3 6,6 6,2.7 3.3,0 0,0" /></g><g
           transform="translate(192,146)"
           id="g66"><path
             id="path68"
             style="fill:#404040;fill-opacity:1;fill-rule:nonzero;stroke:none"
             d="m 0,0 c 0,-1.104 -0.896,-2 -2,-2 -1.104,0 -2,0.896 -2,2 0,1.104 0.896,2 2,2 1.104,0 2,-0.896 2,-2" /></g><g
           transform="translate(132,144)"
           id="g70"><path
             id="path72"
             style="fill:#d35400;fill-opacity:1;fill-rule:nonzero;stroke:none"
             d="m 0,0 h -8 c -2.2,0 -4,1.8 -4,4 0,2.2 1.8,4 4,4 H 0 C 2.2,8 4,6.2 4,4 4,1.8 2.2,0 0,0" /></g><g
           transform="translate(40,120)"
           id="g74"><path
             id="path76"
             style="fill:#b80000;fill-opacity:1;fill-rule:nonzero;stroke:none"
             d="m 0,0 c 0,-6.627 -5.373,-12 -12,-12 -6.627,0 -12,5.373 -12,12 0,6.627 5.373,12 12,12 C -5.373,12 0,6.627 0,0" /></g><g
           transform="translate(32,120)"
           id="g78"><path
             id="path80"
             style="fill:#808080;fill-opacity:1;fill-rule:nonzero;stroke:none"
             d="m 0,0 c 0,-2.209 -1.791,-4 -4,-4 -2.209,0 -4,1.791 -4,4 0,2.209 1.791,4 4,4 2.209,0 4,-1.791 4,-4" /></g><g
           transform="translate(80,120)"
           id="g82"><path
             id="path84"
             style="fill:#b80000;fill-opacity:1;fill-rule:nonzero;stroke:none"
             d="m 0,0 c 0,-6.627 -5.373,-12 -12,-12 -6.627,0 -12,5.373 -12,12 0,6.627 5.373,12 12,12 C -5.373,12 0,6.627 0,0" /></g><g
           transform="translate(72,120)"
           id="g86"><path
             id="path88"
             style="fill:#808080;fill-opacity:1;fill-rule:nonzero;stroke:none"
             d="m 0,0 c 0,-2.209 -1.791,-4 -4,-4 -2.209,0 -4,1.791 -4,4 0,2.209 1.791,4 4,4 2.209,0 4,-1.791 4,-4" /></g><g
           transform="translate(200,120)"
           id="g90"><path
             id="path92"
             style="fill:#b80000;fill-opacity:1;fill-rule:nonzero;stroke:none"
             d="m 0,0 c 0,-6.627 -5.373,-12 -12,-12 -6.627,0 -12,5.373 -12,12 0,6.627 5.373,12 12,12 C -5.373,12 0,6.627 0,0" /></g><g
           transform="translate(192,120)"
           id="g94"><path
             id="path96"
             style="fill:#808080;fill-opacity:1;fill-rule:nonzero;stroke:none"
             d="m 0,0 c 0,-2.209 -1.791,-4 -4,-4 -2.209,0 -4,1.791 -4,4 0,2.209 1.791,4 4,4 2.209,0 4,-1.791 4,-4" /></g><g
           transform="translate(240,120)"
           id="g98"><path
             id="path100"
             style="fill:#b80000;fill-opacity:1;fill-rule:nonzero;stroke:none"
             d="m 0,0 c 0,-6.627 -5.373,-12 -12,-12 -6.627,0 -12,5.373 -12,12 0,6.627 5.373,12 12,12 C -5.373,12 0,6.627 0,0" /></g><g
           transform="translate(232,120)"
           id="g102"><path
             id="path104"
             style="fill:#808080;fill-opacity:1;fill-rule:nonzero;stroke:none"
             d="m 0,0 c 0,-2.209 -1.791,-4 -4,-4 -2.209,0 -4,1.791 -4,4 0,2.209 1.791,4 4,4 2.209,0 4,-1.791 4,-4" /></g><path
           id="path106"
           style="fill:#191919;fill-opacity:1;fill-rule:nonzero;stroke:none"
           d="m 108,92 h -4 v 4 h 4 z" /><path
           id="path108"
           style="fill:#191919;fill-opacity:1;fill-rule:nonzero;stroke:none"
           d="m 120,92 h -4 v 4 h 4 z" /><path
           id="path110"
           style="fill:#191919;fill-opacity:1;fill-rule:nonzero;stroke:none"
           d="m 152,92 h -4 v 4 h 4 z" /><path
           id="path112"
           style="fill:#191919;fill-opacity:1;fill-rule:nonzero;stroke:none"
           d="m 140,92 h -4 v 4 h 4 z" /><g
           transform="translate(111.1836,92)"
           id="g114"><path
             id="path116"
             style="fill:#cccccc;fill-opacity:1;fill-rule:nonzero;stroke:none"
             d="M 0,0 H -0.367 C -0.816,0 -1.184,0.367 -1.184,0.816 V 7.184 C -1.184,7.633 -0.816,8 -0.367,8 H 0 C 0.449,8 0.816,7.633 0.816,7.184 V 0.816 C 0.816,0.367 0.449,0 0,0" /></g><g
           transform="translate(123.1836,92)"
           id="g118"><path
             id="path120"
             style="fill:#cccccc;fill-opacity:1;fill-rule:nonzero;stroke:none"
             d="M 0,0 H -0.367 C -0.816,0 -1.184,0.367 -1.184,0.816 V 7.184 C -1.184,7.633 -0.816,8 -0.367,8 H 0 C 0.449,8 0.816,7.633 0.816,7.184 V 0.816 C 0.816,0.367 0.449,0 0,0" /></g><g
           transform="translate(133.1836,92)"
           id="g122"><path
             id="path124"
             style="fill:#cccccc;fill-opacity:1;fill-rule:nonzero;stroke:none"
             d="M 0,0 H -0.367 C -0.816,0 -1.184,0.367 -1.184,0.816 V 7.184 C -1.184,7.633 -0.816,8 -0.367,8 H 0 C 0.449,8 0.816,7.633 0.816,7.184 V 0.816 C 0.816,0.367 0.449,0 0,0" /></g><g
           transform="translate(145.1836,92)"
           id="g126"><path
             id="path128"
             style="fill:#cccccc;fill-opacity:1;fill-rule:nonzero;stroke:none"
             d="M 0,0 H -0.367 C -0.816,0 -1.184,0.367 -1.184,0.816 V 7.184 C -1.184,7.633 -0.816,8 -0.367,8 H 0 C 0.449,8 0.816,7.633 0.816,7.184 V 0.816 C 0.816,0.367 0.449,0 0,0" /></g><g
           transform="translate(126,148)"
           id="g130"><path
             id="path132"
             style="fill:#e77f22;fill-opacity:1;fill-rule:nonzero;stroke:none"
             d="m 0,0 c 0,-1.104 -0.896,-2 -2,-2 -1.104,0 -2,0.896 -2,2 0,1.104 0.896,2 2,2 1.104,0 2,-0.896 2,-2" /></g><g
           transform="translate(134,148)"
           id="g134"><path
             id="path136"
             style="fill:#e77f22;fill-opacity:1;fill-rule:nonzero;stroke:none"
             d="m 0,0 c 0,-1.104 -0.896,-2 -2,-2 -1.104,0 -2,0.896 -2,2 0,1.104 0.896,2 2,2 1.104,0 2,-0.896 2,-2" /></g><g
           transform="translate(226,140)"
           id="g138"><path
             id="path140"
             style="fill:#404040;fill-opacity:1;fill-rule:nonzero;stroke:none"
             d="M 0,0 V 0 C -1.1,0 -2,0.9 -2,2 V 6 C -2,7.1 -1.1,8 0,8 1.1,8 2,7.1 2,6 V 2 C 2,0.9 1.1,0 0,0" /></g><path
           id="path142"
           style="fill:#ff0000;fill-opacity:1;fill-rule:nonzero;stroke:none"
           d="m 28,144 h -4 v 4 h 4 z" /></g></g></g></svg>