<?xml version="1.0" encoding="iso-8859-1"?>
<!-- Generator: Adobe Illustrator 27.8.1, SVG Export Plug-In . SVG Version: 6.00 Build 0)  -->
<svg version="1.1" id="Layer_1" xmlns="http://www.w3.org/2000/svg" xmlns:xlink="http://www.w3.org/1999/xlink" x="0px" y="0px"
	 viewBox="0 0 256 256" style="enable-background:new 0 0 256 256;" xml:space="preserve">
<g>
	<g>
		<path style="opacity:0.5;fill:#FFFFFF;" d="M252,4h-8H12H4v8v232v8h8h232h8v-8V12V4L252,4z"/>
		<path style="fill:#16A085;" d="M12,12v232h232V12H12z M20,240c-2.209,0-4-1.791-4-4c0-2.209,1.791-4,4-4s4,1.791,4,4
			C24,238.209,22.209,240,20,240z M20,24c-2.209,0-4-1.791-4-4s1.791-4,4-4s4,1.791,4,4S22.209,24,20,24z M236,240
			c-2.209,0-4-1.791-4-4c0-2.209,1.791-4,4-4c2.209,0,4,1.791,4,4C240,238.209,238.209,240,236,240z"/>
	</g>
</g>
<rect x="88" y="160" style="fill:#354F9F;" width="12" height="4"/>
<rect x="104" y="160" style="fill:#FFCB05;" width="12" height="4"/>
<rect x="120" y="160" style="fill:#007B00;" width="12" height="4"/>
<rect x="136" y="160" style="fill:#B80000;" width="12" height="4"/>
<rect x="32" y="92" style="fill:#BFBFBF;" width="20" height="8"/>
<rect x="32.5" y="48" style="fill:#595959;" width="36" height="36"/>
<rect x="40" y="56" style="fill:#737373;" width="20" height="20"/>
<rect x="32" y="20" style="fill:#595959;" width="40" height="16"/>
<rect x="80" y="16" style="fill:#595959;" width="12" height="36"/>
<rect x="156" y="16" style="fill:#595959;" width="12" height="32"/>
<rect x="172" y="16" style="fill:#595959;" width="12" height="32"/>
<rect x="188" y="16" style="fill:#595959;" width="12" height="32"/>
<rect x="204" y="16" style="fill:#595959;" width="12" height="32"/>
<g>
	<path style="fill:#595959;" d="M166,58v28h-8V58H166 M168,56h-12v32h12V56L168,56z"/>
</g>
<g>
	<path style="fill:#595959;" d="M182,58v28h-8V58H182 M184,56h-12v32h12V56L184,56z"/>
</g>
<g>
	<path style="fill:#595959;" d="M198,58v28h-8V58H198 M200,56h-12v32h12V56L200,56z"/>
</g>
<g>
	<path style="fill:#595959;" d="M214,58v28h-8V58H214 M216,56h-12v32h12V56L216,56z"/>
</g>
<rect x="227.864" y="15.543" style="fill:#595959;" width="12" height="36"/>
<rect x="227.864" y="56" style="fill:#595959;" width="12" height="36"/>
<rect x="80" y="56" style="fill:#595959;" width="12" height="36"/>
<rect x="96" y="16" style="fill:#595959;" width="12" height="36"/>
<rect x="96" y="56" style="fill:#595959;" width="12" height="36"/>
<rect x="112" y="16" style="fill:#595959;" width="12" height="36"/>
<rect x="112" y="56" style="fill:#595959;" width="12" height="36"/>
<rect x="128" y="16" style="fill:#595959;" width="12" height="36"/>
<rect x="128" y="56" style="fill:#595959;" width="12" height="36"/>
<rect x="68" y="96" style="fill:#595959;" width="8" height="24"/>
<rect x="80" y="96" style="fill:#595959;" width="8" height="24"/>
<rect x="92" y="96" style="fill:#595959;" width="8" height="24"/>
<rect x="104" y="96" style="fill:#595959;" width="8" height="24"/>
<rect x="116" y="96" style="fill:#595959;" width="8" height="24"/>
<rect x="128" y="96" style="fill:#595959;" width="8" height="24"/>
<rect x="140" y="96" style="fill:#595959;" width="8" height="24"/>
<rect x="152" y="96" style="fill:#595959;" width="8" height="24"/>
<rect x="164" y="96" style="fill:#595959;" width="8" height="24"/>
<rect x="176" y="96" style="fill:#595959;" width="8" height="24"/>
<rect x="188" y="96" style="fill:#595959;" width="8" height="24"/>
<rect x="200" y="96" style="fill:#595959;" width="8" height="24"/>
<rect x="212" y="96" style="fill:#595959;" width="8" height="24"/>
<rect x="224" y="96" style="fill:#595959;" width="8" height="24"/>
<rect x="184.137" y="160.075" style="fill:#595959;" width="8" height="20"/>
<rect x="196" y="160" style="fill:#595959;" width="8" height="20"/>
<rect x="184.137" y="188.075" style="fill:#595959;" width="8" height="20"/>
<rect x="196" y="188" style="fill:#595959;" width="8" height="20"/>
<rect x="184.137" y="212.075" style="fill:#595959;" width="8" height="20"/>
<rect x="196" y="212" style="fill:#595959;" width="8" height="20"/>
<rect x="87.849" y="172" style="fill:#595959;" width="8" height="32"/>
<rect x="100" y="172" style="fill:#595959;" width="8" height="32"/>
<rect x="112.151" y="172" style="fill:#595959;" width="8" height="32"/>
<rect x="124.302" y="172" style="fill:#595959;" width="8" height="32"/>
<rect x="136.454" y="172" style="fill:#595959;" width="8" height="32"/>
<rect x="148" y="172" style="fill:#595959;" width="12" height="32"/>
<rect x="87.849" y="208" style="fill:#595959;" width="8" height="32"/>
<rect x="100" y="208" style="fill:#595959;" width="8" height="32"/>
<rect x="112.151" y="208" style="fill:#595959;" width="8" height="32"/>
<rect x="124.302" y="208" style="fill:#595959;" width="8" height="32"/>
<rect x="136.454" y="208" style="fill:#595959;" width="8" height="32"/>
<rect x="148" y="208" style="fill:#595959;" width="12" height="32"/>
<rect x="24" y="160" style="fill:#595959;" width="28" height="28"/>
<rect x="60" y="160" style="fill:#595959;" width="8" height="20"/>
<rect x="72" y="160" style="fill:#595959;" width="8" height="20"/>
<rect x="60" y="184" style="fill:#595959;" width="8" height="20"/>
<rect x="72" y="184" style="fill:#595959;" width="8" height="20"/>
<rect x="28" y="208" style="fill:#BFBFBF;" width="8" height="16"/>
<rect x="40" y="208" style="fill:#BFBFBF;" width="8" height="16"/>
<rect x="52" y="208" style="fill:#BFBFBF;" width="8" height="16"/>
<rect x="64" y="208" style="fill:#BFBFBF;" width="8" height="16"/>
<rect x="220" y="128" style="fill:#595959;" width="12" height="32"/>
<rect x="212" y="168" style="fill:#595959;" width="8" height="32"/>
<rect x="212" y="208" style="fill:#595959;" width="8" height="32"/>
<rect x="52" y="104.423" style="fill:#595959;" width="8" height="16"/>
<rect x="40" y="104" style="fill:#595959;" width="8" height="16"/>
<rect x="28" y="103.577" style="fill:#595959;" width="8" height="16"/>
<rect x="28" y="136" style="fill:#595959;" width="8" height="16"/>
<rect x="40" y="136" style="fill:#595959;" width="8" height="16"/>
<rect x="52" y="136" style="fill:#595959;" width="8" height="16"/>
<rect x="64" y="128" style="fill:#595959;" width="8" height="24"/>
<rect x="76" y="128" style="fill:#595959;" width="8" height="24"/>
<rect x="88" y="128" style="fill:#595959;" width="8" height="24"/>
<rect x="100" y="128" style="fill:#595959;" width="8" height="24"/>
<rect x="112" y="128" style="fill:#595959;" width="8" height="24"/>
<rect x="124" y="128" style="fill:#595959;" width="8" height="24"/>
<rect x="136" y="128" style="fill:#595959;" width="8" height="24"/>
<rect x="148" y="128" style="fill:#595959;" width="8" height="24"/>
<rect x="160" y="128" style="fill:#595959;" width="8" height="24"/>
<rect x="172" y="128" style="fill:#595959;" width="8" height="24"/>
<rect x="184" y="128" style="fill:#595959;" width="8" height="24"/>
<rect x="196" y="128" style="fill:#595959;" width="8" height="24"/>
<rect x="208" y="128" style="fill:#595959;" width="8" height="24"/>
</svg>
