<svg xmlns="http://www.w3.org/2000/svg" xml:space="preserve" width="320" height="266.667"><defs><clipPath id="a" clipPathUnits="userSpaceOnUse"><path d="M0 256h256V0H0Z"/></clipPath><clipPath id="b" clipPathUnits="userSpaceOnUse"><path d="M8 228h240V28H8Z"/></clipPath><clipPath id="c" clipPathUnits="userSpaceOnUse"><path d="M0 256h256V0H0Z"/></clipPath></defs><g clip-path="url(#a)" transform="matrix(1.33333 0 0 -1.33333 -10.667 304)"><g clip-path="url(#b)" style="opacity:.5"><path d="M0 0v16h-232V0h-4v-184H4V0z" style="fill:#fff;fill-opacity:1;fill-rule:nonzero;stroke:none" transform="translate(244 212)"/></g></g><path d="M236 200H20v20h216z" style="fill:#bfbfbf;fill-opacity:1;fill-rule:nonzero;stroke:none" transform="matrix(1.33333 0 0 -1.33333 -10.667 304)"/><path d="M16 36h224v168H16Z" style="fill:#ccc;fill-opacity:1;fill-rule:nonzero;stroke:none" transform="matrix(1.33333 0 0 -1.33333 -10.667 304)"/><path d="M230 220h-2v-12h2zm-4 0h-2v-12h2zm-4 0h-2v-12h2zm-4 0h-2v-12h2zm-4 0h-2v-12h2zm-4 0h-2v-12h2zm-4 0h-2v-12h2zm-4 0h-2v-12h2zm-4 0h-2v-12h2zm-4 0h-2v-12h2zm-4 0h-2v-12h2zm-4 0h-2v-12h2zm-4 0h-2v-12h2zm-4 0h-2v-12h2zm-4 0h-2v-12h2zm-4 0h-2v-12h2zm-4 0h-2v-12h2zm-4 0h-2v-12h2zm-4 0h-2v-12h2zm-4 0h-2v-12h2zm-4 0h-2v-12h2zm-4 0h-2v-12h2zm-4 0h-2v-12h2zm-4 0h-2v-12h2zm-4 0h-2v-12h2zm-4 0h-2v-12h2zm-4 0h-2v-12h2zm-4 0h-2v-12h2zm-4 0h-2v-12h2zm-4 0h-2v-12h2zm-4 0h-2v-12h2zm-4 0h-2v-12h2zm-4 0h-2v-12h2zm-4 0h-2v-12h2zm-4 0h-2v-12h2zm-4 0h-2v-12h2zm-4 0h-2v-12h2zm-4 0h-2v-12h2zm-4 0h-2v-12h2zm-4 0h-2v-12h2zm-4 0h-2v-12h2zm-4 0h-2v-12h2zm-4 0h-2v-12h2zm-4 0h-2v-12h2zm-4 0h-2v-12h2zm-4 0h-2v-12h2zm-4 0h-2v-12h2zm-4 0h-2v-12h2zm-4 0h-2v-12h2zm-4 0h-2v-12h2zm-4 0h-2v-12h2zm-4-12h-2v12h2z" style="fill:#404040;fill-opacity:1;fill-rule:nonzero;stroke:none" transform="matrix(1.33333 0 0 -1.33333 -10.667 304)"/><g clip-path="url(#c)" transform="matrix(1.33333 0 0 -1.33333 -10.667 304)"><path d="M0 0c0-29.823-24.177-54-54-54s-54 24.177-54 54 24.177 54 54 54S0 29.823 0 0" style="fill:#d9d9d9;fill-opacity:1;fill-rule:nonzero;stroke:none" transform="translate(128 146)"/><path d="m0 0-19.799 19.799-2.828 2.828-14.143 14.142c-3.898 3.899-10.243 3.899-14.142 0s-3.899-10.243 0-14.142L-36.77 8.484l2.829-2.828 19.799-19.799c3.899-3.899 10.243-3.899 14.142 0S3.899-3.899 0 0" style="fill:#bfbfbf;fill-opacity:1;fill-rule:nonzero;stroke:none" transform="translate(129.836 104.307)"/><path d="M0 0a8 8 0 1 0-11.314 11.315A8 8 0 0 0 0 0" style="fill:#ccc;fill-opacity:1;fill-rule:nonzero;stroke:none" transform="translate(128.422 91.578)"/><path d="m0 0-16.97 16.97A8 8 0 0 1-28.284 5.656l16.971-16.97a8 8 0 0 1 11.313 0A8 8 0 0 1 0 0" style="fill:#262626;fill-opacity:1;fill-rule:nonzero;stroke:none" transform="translate(108.623 122.691)"/><path d="M0 0h-224v-2h174v-22h2v22h14v-22h2v22H0Z" style="fill:#404040;fill-opacity:1;fill-rule:nonzero;stroke:none" transform="translate(240 60)"/><path d="M214 48h-2v12h2zm-94 0h-2v12h2zm102 0h-2v12h2z" style="fill:#404040;fill-opacity:1;fill-rule:nonzero;stroke:none"/><path d="m0 0-.049-59.927c-.492-13.481-6.114-26.079-15.829-35.47C-25.619-104.814-38.447-110-52-110s-26.381 5.186-36.122 14.603c-9.715 9.391-15.337 21.989-15.829 35.47L-104 0h-2v-60h.051c1.053-28.896 24.797-52 53.949-52S.896-88.896 1.949-60H2V0Z" style="fill:#404040;fill-opacity:1;fill-rule:nonzero;stroke:none" transform="translate(126 204)"/></g></svg>