<?xml version="1.0" encoding="UTF-8" standalone="no"?>
<svg
   xmlns:dc="http://purl.org/dc/elements/1.1/"
   xmlns:cc="http://creativecommons.org/ns#"
   xmlns:rdf="http://www.w3.org/1999/02/22-rdf-syntax-ns#"
   xmlns:svg="http://www.w3.org/2000/svg"
   xmlns="http://www.w3.org/2000/svg"
   viewBox="0 0 181.33426 309.33331"
   height="309.33331"
   width="181.33426"
   xml:space="preserve"
   id="svg2"
   version="1.1"><metadata
     id="metadata8"><rdf:RDF><cc:Work
         rdf:about=""><dc:format>image/svg+xml</dc:format><dc:type
           rdf:resource="http://purl.org/dc/dcmitype/StillImage" /></cc:Work></rdf:RDF></metadata><defs
     id="defs6"><clipPath
       id="clipPath20"
       clipPathUnits="userSpaceOnUse"><path
         id="path18"
         d="M 0,256 H 256 V 0 H 0 Z" /></clipPath></defs><g
     transform="matrix(1.3333333,0,0,-1.3333333,-79.999598,325.33333)"
     id="g10"><path
       id="path12"
       style="fill:#cccccc;fill-opacity:1;fill-rule:nonzero;stroke:none"
       d="M 196,24 H 60 v 112 h 136 z" /><g
       id="g14"><g
         clip-path="url(#clipPath20)"
         id="g16"><g
           transform="translate(63.2363,12)"
           id="g22"><path
             id="path24"
             style="fill:#d9d9d9;fill-opacity:1;fill-rule:nonzero;stroke:none"
             d="m 0,0 h 73.527 c 1.787,0 3.237,1.449 3.237,3.236 V 108 h -80 V 3.236 C -3.236,1.449 -1.788,0 0,0" /></g><g
           transform="translate(193.7344,20)"
           id="g26"><path
             id="path28"
             style="fill:#e6e6e6;fill-opacity:1;fill-rule:nonzero;stroke:none"
             d="m 0,0 h -47.278 c -1.251,0 -2.266,1.015 -2.266,2.266 V 100 H 2.266 V 2.266 C 2.266,1.015 1.251,0 0,0" /></g><g
           transform="translate(120,64)"
           id="g30"><path
             id="path32"
             style="fill:#e6e6e6;fill-opacity:1;fill-rule:nonzero;stroke:none"
             d="M 0,0 H -24 V -28 H 0 c 6.627,0 12,6.268 12,14 C 12,-6.268 6.627,0 0,0" /></g><g
           transform="translate(192.7617,188)"
           id="g34"><path
             id="path36"
             style="fill:#e6e6e6;fill-opacity:1;fill-rule:nonzero;stroke:none"
             d="m 0,0 h -129.523 c -1.789,0 -3.239,-1.433 -3.239,-3.2 V -16 -19.2 -64 h 136 v 44.8 3.2 12.8 C 3.238,-1.433 1.788,0 0,0" /></g><g
           transform="translate(66.9678,36)"
           id="g38"><path
             id="path40"
             style="fill:#e6e6e6;fill-opacity:1;fill-rule:nonzero;stroke:none"
             d="M 0,0 H -6.968 V 28 H 0 c 0.57,0 1.032,-0.462 1.032,-1.032 V 1.032 C 1.032,0.462 0.57,0 0,0" /></g><g
           transform="translate(115.1094,36)"
           id="g42"><path
             id="path44"
             style="fill:#808080;fill-opacity:1;fill-rule:nonzero;stroke:none"
             d="m 0,0 h -22.219 c -0.491,0 -0.89,0.398 -0.89,0.891 v 26.028 c 0,0.492 0.399,0.891 0.89,0.891 L 0,27.81 c 0.492,0 0.891,-0.399 0.891,-0.891 V 0.891 C 0.891,0.398 0.492,0 0,0" /></g><g
           transform="translate(91.2935,40)"
           id="g46"><path
             id="path48"
             style="fill:#ff0000;fill-opacity:1;fill-rule:nonzero;stroke:none"
             d="m 0,0 h -22.587 c -0.39,0 -0.706,0.316 -0.706,0.707 v 18.586 c 0,0.391 0.316,0.707 0.706,0.707 H 0 c 0.39,0 0.707,-0.316 0.707,-0.707 V 0.707 C 0.707,0.316 0.39,0 0,0" /></g><path
           id="path50"
           style="fill:#cccccc;fill-opacity:1;fill-rule:nonzero;stroke:none"
           d="m 73.81,124 h -2 v 64 h 2 z" /><path
           id="path52"
           style="fill:#cccccc;fill-opacity:1;fill-rule:nonzero;stroke:none"
           d="m 184,124 h -2 v 64 h 2 z" /><g
           transform="translate(76,160)"
           id="g54"><path
             id="path56"
             style="fill:#cccccc;fill-opacity:1;fill-rule:nonzero;stroke:none"
             d="m 0,0 v -12 l 8,-8 h 88 l 8,8 V 0 Z" /></g><g
           transform="translate(180,112)"
           id="g58"><path
             id="path60"
             style="fill:#666666;fill-opacity:1;fill-rule:nonzero;stroke:none"
             d="m 0,0 h -104 c -2.209,0 -4,1.791 -4,4 v 124 c 0,2.209 1.791,4 4,4 H 0 c 2.209,0 4,-1.791 4,-4 V 4 C 4,1.791 2.209,0 0,0" /></g><g
           transform="translate(156,140)"
           id="g62"><path
             id="path64"
             style="fill:#595959;fill-opacity:1;fill-rule:nonzero;stroke:none"
             d="m 0,0 h -56 c -11.046,0 -20,8.954 -20,20 v 80 c 0,2.209 1.791,4 4,4 h 88 c 2.209,0 4,-1.791 4,-4 V 20 C 20,8.954 11.046,0 0,0" /></g><g
           transform="translate(158,148)"
           id="g66"><path
             id="path68"
             style="fill:#4c4c4c;fill-opacity:1;fill-rule:nonzero;stroke:none"
             d="m 0,0 h -60 c -5.523,0 -10,4.477 -10,10 V 92 H 10 V 10 C 10,4.477 5.522,0 0,0" /></g><g
           transform="translate(164,180)"
           id="g70"><path
             id="path72"
             style="fill:#191919;fill-opacity:1;fill-rule:nonzero;stroke:none"
             d="m 0,0 h -44 c -2.209,0 -4,1.791 -4,4 0,2.209 1.791,4 4,4 H 0 Z" /></g><g
           transform="translate(152,180)"
           id="g74"><path
             id="path76"
             style="fill:#404040;fill-opacity:1;fill-rule:nonzero;stroke:none"
             d="m 0,0 h -24 c -2.209,0 -4,1.791 -4,4 0,2.209 1.791,4 4,4 H 0 C 2.209,8 4,6.209 4,4 4,1.791 2.209,0 0,0" /></g><g
           transform="translate(156,184)"
           id="g78"><path
             id="path80"
             style="fill:#262626;fill-opacity:1;fill-rule:nonzero;stroke:none"
             d="m 0,0 c 0,-2.209 -1.791,-4 -4,-4 -2.209,0 -4,1.791 -4,4 0,2.209 1.791,4 4,4 2.209,0 4,-1.791 4,-4" /></g><g
           transform="translate(159,138)"
           id="g82"><path
             id="path84"
             style="fill:#191919;fill-opacity:1;fill-rule:nonzero;stroke:none"
             d="m 0,0 h -62 c -0.866,0 -1.708,0.281 -2.4,0.8 L -78.532,11.399 C -79.052,11.789 -79.684,12 -80.333,12 H -87 v 2 h 6.668 c 1.082,0 2.133,-0.351 2.999,-1 l 13.6,-10.2 c 0.692,-0.519 1.534,-0.8 2.4,-0.8 L -0.666,2 C 0.199,2 1.041,2.281 1.733,2.8 L 15.334,13 c 0.865,0.649 1.918,1 3,1 H 25 v -2 h -6.666 c -0.649,0 -1.281,-0.21 -1.801,-0.6 L 2.399,0.8 C 1.707,0.281 0.865,0 0,0" /></g><g
           transform="translate(106,116)"
           id="g86"><path
             id="path88"
             style="fill:#191919;fill-opacity:1;fill-rule:nonzero;stroke:none"
             d="m 0,0 h -8 c -1.104,0 -2,0.896 -2,2 0,1.104 0.896,2 2,2 H 0 C 1.104,4 2,3.104 2,2 2,0.896 1.104,0 0,0" /></g></g></g></g></svg>