<svg xmlns="http://www.w3.org/2000/svg" xml:space="preserve" width="330.667" height="234.667"><defs><clipPath id="a" clipPathUnits="userSpaceOnUse"><path d="M0 256h256V0H0Z"/></clipPath><clipPath id="b" clipPathUnits="userSpaceOnUse"><path d="M4 216h248V40H4Z"/></clipPath></defs><g clip-path="url(#a)" transform="matrix(1.33333 0 0 -1.33333 -5.333 288)"><g clip-path="url(#b)" style="opacity:.5"><path d="M0 0h-11.234C-17.373 1.161-56.104 8-116 8c-58.807 0-90.889-6.621-96.931-8H-224c-6.617 0-12-5.383-12-12v-152h16v-4H-4v4h16v152C12-5.383 6.617 0 0 0" style="fill:#fff;fill-opacity:1;fill-rule:nonzero;stroke:none" transform="translate(240 208)"/></g><path d="M0 0c-64 0-96-8-96-8v-152h200V-8S64 0 0 0" style="fill:#404040;fill-opacity:1;fill-rule:nonzero;stroke:none" transform="translate(124 208)"/><path d="M0 0h-32v144a4 4 0 0 0 4 4H0Z" style="fill:#4c4c4c;fill-opacity:1;fill-rule:nonzero;stroke:none" transform="translate(44 52)"/><path d="M0 0h32v144a4 4 0 0 1-4 4H0Z" style="fill:#4c4c4c;fill-opacity:1;fill-rule:nonzero;stroke:none" transform="translate(212 52)"/><path d="M208 108H48v4h160zm0-8H48v4h160zm0-8H48v4h160zm0-8H48v4h160zm0-8H48v4h160zm0-8H48v4h160zm0-8H48v4h160zm0-8H48v4h160z" style="fill:#4c4c4c;fill-opacity:1;fill-rule:nonzero;stroke:none"/><path d="M108 96H68v12h40zm80 0h-40v12h40z" style="fill:#2a2923;fill-opacity:1;fill-rule:nonzero;stroke:none"/><path d="M208 180H48v20h160z" style="fill:#4c4c4c;fill-opacity:1;fill-rule:nonzero;stroke:none"/><path d="M0 0h-176a4 4 0 0 0-4 4v64a4 4 0 0 0 4 4H0a4 4 0 0 0 4-4V4a4 4 0 0 0-4-4" style="fill:#fff;fill-opacity:1;fill-rule:nonzero;stroke:none" transform="translate(216 116)"/></g></svg>