<?xml version="1.0" encoding="iso-8859-1"?>
<!-- Generator: Adobe Illustrator 27.8.1, SVG Export Plug-In . SVG Version: 6.00 Build 0)  -->
<svg version="1.1" id="Layer_1" xmlns="http://www.w3.org/2000/svg" xmlns:xlink="http://www.w3.org/1999/xlink" x="0px" y="0px"
	 viewBox="0 0 256 256" style="enable-background:new 0 0 256 256;" xml:space="preserve">
<path style="opacity:0.5;fill:#FFFFFF;" d="M240,28H16C9.383,28,4,33.383,4,40v176c0,6.617,5.383,12,12,12h224
	c6.617,0,12-5.383,12-12V40C252,33.383,246.617,28,240,28L240,28z"/>
<path style="fill:#C4C0AA;" d="M240,220H16c-2.209,0-4-1.791-4-4V40c0-2.209,1.791-4,4-4h224c2.209,0,4,1.791,4,4v176
	C244,218.209,242.209,220,240,220z"/>
<path style="fill:#CCCCCC;" d="M224,212H120c-2.209,0-4-1.791-4-4V108c0-2.209,1.791-4,4-4h104c2.209,0,4,1.791,4,4v100
	C228,210.209,226.209,212,224,212z"/>
<path style="fill:#D9D4BC;" d="M224,96H120c-2.209,0-4-1.791-4-4V40c0-2.209,1.791-4,4-4h104c2.209,0,4,1.791,4,4v52
	C228,94.209,226.209,96,224,96z"/>
<rect x="128" y="52" style="fill:#595959;" width="92" height="24"/>
<rect x="128" y="62" style="fill:#404040;" width="92" height="4"/>
<circle style="fill:#262626;" cx="172" cy="172" r="24"/>
<rect x="120" y="156" style="fill:#3096CF;" width="8" height="24"/>
<rect x="124" y="152" style="fill:#595959;" width="96" height="24"/>
<rect x="124" y="176" style="fill:#404040;" width="96" height="8"/>
<rect x="124" y="152" style="fill:#737373;" width="96" height="8"/>
<path style="fill:#A6A390;" d="M64,188H12V72h52c2.209,0,4,1.791,4,4v108C68,186.209,66.209,188,64,188z"/>
<path style="fill:#D9D4BC;" d="M53,208H23c-1.657,0-3-1.343-3-3V59c0-1.657,1.343-3,3-3h30c1.657,0,3,1.343,3,3v146
	C56,206.657,54.657,208,53,208z"/>
<rect x="24" y="80" style="fill:#3096CF;" width="24" height="12"/>
<rect x="76" y="188" style="fill:#D9D4BC;" width="28" height="12"/>
<rect x="80" y="192" style="fill:#B80000;" width="20" height="4"/>
<rect x="88" y="192" style="fill:#FF0000;" width="4" height="4"/>
<circle style="fill:#262626;" cx="78" cy="178" r="2"/>
<circle style="fill:#FF0000;" cx="100" cy="176" r="4"/>
<rect x="116" y="112" style="fill:#9BC2DD;" width="112" height="28"/>
</svg>
