<?xml version="1.0" encoding="UTF-8" standalone="no"?>
<svg
   xmlns:dc="http://purl.org/dc/elements/1.1/"
   xmlns:cc="http://creativecommons.org/ns#"
   xmlns:rdf="http://www.w3.org/1999/02/22-rdf-syntax-ns#"
   xmlns:svg="http://www.w3.org/2000/svg"
   xmlns="http://www.w3.org/2000/svg"
   viewBox="0 0 333.99411 288"
   height="288"
   width="333.99411"
   xml:space="preserve"
   id="svg2"
   version="1.1"><metadata
     id="metadata8"><rdf:RDF><cc:Work
         rdf:about=""><dc:format>image/svg+xml</dc:format><dc:type
           rdf:resource="http://purl.org/dc/dcmitype/StillImage" /></cc:Work></rdf:RDF></metadata><defs
     id="defs6"><clipPath
       id="clipPath18"
       clipPathUnits="userSpaceOnUse"><path
         id="path16"
         d="M 0,256 H 256 V 0 H 0 Z" /></clipPath><clipPath
       id="clipPath26"
       clipPathUnits="userSpaceOnUse"><path
         id="path24"
         d="M 2.7518,236 H 253.248 V 20 H 2.7518 Z" /></clipPath><clipPath
       id="clipPath50"
       clipPathUnits="userSpaceOnUse"><path
         id="path48"
         d="M 0,256 H 256 V 0 H 0 Z" /></clipPath></defs><g
     transform="matrix(1.3333333,0,0,-1.3333333,-3.6698666,314.66666)"
     id="g10"><g
       id="g12"><g
         clip-path="url(#clipPath18)"
         id="g14"><g
           id="g20"><g
             id="g22" /><g
             id="g34"><g
               style="opacity:0.5"
               id="g32"
               clip-path="url(#clipPath26)"><g
                 id="g30"
                 transform="translate(190.6084,236)"><path
                   id="path28"
                   style="fill:#ffffff;fill-opacity:1;fill-rule:nonzero;stroke:none"
                   d="m 0,0 h -4.608 -116 -4.609 l -2.312,-3.986 -58,-100 -2.327,-4.014 2.327,-4.014 58,-100 2.312,-3.986 h 4.609 116 H 0 l 2.312,3.986 58,100 2.328,4.014 -2.328,4.014 -58,100 z" /></g></g></g></g></g></g><g
       transform="translate(186,228)"
       id="g36"><path
         id="path38"
         style="fill:#000000;fill-opacity:1;fill-rule:nonzero;stroke:none"
         d="m 0,0 h -116 l -58,-100 58,-100 H 0 l 58,100 z" /></g><g
       transform="translate(192,151.8428)"
       id="g40"><path
         id="path42"
         style="fill:#ffffff;fill-opacity:1;fill-rule:nonzero;stroke:none"
         d="M 0,0 H -40.157 V 40.157 H -87.844 V 0 H -128 v -47.687 h 40.156 v -40.156 h 47.687 v 40.156 H 0 Z" /></g><g
       id="g44"><g
         clip-path="url(#clipPath50)"
         id="g46"><g
           transform="translate(142.0254,128.001)"
           id="g52"><path
             id="path54"
             style="fill:#000000;fill-opacity:1;fill-rule:nonzero;stroke:none"
             d="m 0,0 c 0,-7.747 -6.278,-14.026 -14.026,-14.026 -7.745,0 -14.027,6.279 -14.027,14.026 0,7.747 6.282,14.026 14.027,14.026 C -6.278,14.026 0,7.747 0,0" /></g><g
           transform="translate(141.8506,91.6201)"
           id="g56"><path
             id="path58"
             style="fill:#1abf9f;fill-opacity:1;fill-rule:nonzero;stroke:none"
             d="M 0,0 -13.852,-13.852 -27.703,0 Z" /></g><g
           transform="translate(114.1479,164.3813)"
           id="g60"><path
             id="path62"
             style="fill:#eac500;fill-opacity:1;fill-rule:nonzero;stroke:none"
             d="M 0,0 13.851,13.851 27.703,0 Z" /></g><g
           transform="translate(91.6187,114.1494)"
           id="g64"><path
             id="path66"
             style="fill:#4b5da7;fill-opacity:1;fill-rule:nonzero;stroke:none"
             d="M 0,0 -13.851,13.852 0,27.703 Z" /></g><g
           transform="translate(164.3799,141.8521)"
           id="g68"><path
             id="path70"
             style="fill:#b80000;fill-opacity:1;fill-rule:nonzero;stroke:none"
             d="M 0,0 13.852,-13.851 0,-27.703 Z" /></g></g></g></g></svg>