<svg xmlns="http://www.w3.org/2000/svg" xml:space="preserve" width="330.968" height="330.667"><defs><clipPath id="a" clipPathUnits="userSpaceOnUse"><path d="M0 256h256V0H0Z"/></clipPath><clipPath id="b" clipPathUnits="userSpaceOnUse"><path d="M3.887 252h248.226V4H3.887Z"/></clipPath></defs><g clip-path="url(#a)" transform="matrix(1.33333 0 0 -1.33333 -5.183 336)"><g clip-path="url(#b)" style="opacity:.5"><path d="M0 0v89.409c0 6.186-4.826 11.268-10.916 11.686-2.146 2.468-5.29 4.028-8.787 4.028h-208.594c-3.497 0-6.641-1.56-8.787-4.028-6.09-.418-10.916-5.5-10.916-11.686V-7.163q0-1.123.226-2.244v-121.68c0-6.501 5.323-11.79 11.866-11.79h224.267c6.543 0 11.867 5.289 11.867 11.79V-2.245C.226-1.498.15-.747 0 0" style="fill:#fff;fill-opacity:1;fill-rule:nonzero;stroke:none" transform="translate(251.887 146.877)"/></g><path d="M0 0h224.543a3.72 3.72 0 0 0 3.728-3.714v-96.572a3.72 3.72 0 0 0-3.728-3.714H0a3.72 3.72 0 0 0-3.729 3.714v96.572A3.72 3.72 0 0 0 0 0" style="fill:#404040;fill-opacity:1;fill-rule:nonzero;stroke:none" transform="translate(15.729 240)"/><path d="M0 0h208.594c2.045 0 3.703-1.719 3.703-3.84v-88.32c0-2.121-1.658-3.84-3.703-3.84H0c-2.045 0-3.703 1.719-3.703 3.84v88.32C-3.703-1.719-2.045 0 0 0" style="fill:#262626;fill-opacity:1;fill-rule:nonzero;stroke:none" transform="translate(23.703 244)"/><path d="M0 0c-2.142 0-3.867-1.65-3.867-3.789s-1.619-3.79-3.866-3.79-3.867-1.69-3.867-3.789v-128.843c0-2.099 1.725-3.789 3.867-3.789h224.266c2.142 0 3.867 1.69 3.867 3.789v128.843c0 2.099-1.716 3.789-3.867 3.789s-3.866 1.744-3.866 3.79c0 2.045-1.725 3.789-3.867 3.789z" style="fill:#333;fill-opacity:1;fill-rule:nonzero;stroke:none" transform="translate(23.826 156)"/><path d="M0 0h201.067a7.733 7.733 0 0 0 7.733-7.733v-100.534a7.733 7.733 0 0 0-7.733-7.733H0a7.733 7.733 0 0 0-7.733 7.733V-7.733A7.733 7.733 0 0 0 0 0" style="fill:#d9d9d9;fill-opacity:1;fill-rule:nonzero;stroke:none" transform="translate(27.692 140.523)"/><path d="M0 0c-.54 0-1.081-.175-1.527-.526l-19.555-15.36a2.37 2.37 0 0 1-.78-2.668 2.44 2.44 0 0 1 2.307-1.606h5.377v-1.44c0-1.325 1.095-2.4 2.445-2.4h23.466c1.35 0 2.445 1.075 2.445 2.4v1.44h5.377c1.039 0 1.963.644 2.307 1.606a2.37 2.37 0 0 1-.78 2.668L1.527-.526A2.47 2.47 0 0 1 0 0m0-2.4 19.555-15.36h-7.822v-3.84h-23.466v3.84h-7.822z" style="fill:#333;fill-opacity:1;fill-rule:nonzero;stroke:none" transform="translate(128 228)"/></g></svg>