<?xml version="1.0" encoding="iso-8859-1"?>
<!-- Generator: Adobe Illustrator 28.0.0, SVG Export Plug-In . SVG Version: 6.00 Build 0)  -->
<svg version="1.1" id="Layer_1" xmlns="http://www.w3.org/2000/svg" xmlns:xlink="http://www.w3.org/1999/xlink" x="0px" y="0px"
	 viewBox="0 0 256 256" style="enable-background:new 0 0 256 256;" xml:space="preserve">
<g>
	<path style="opacity:0.5;fill:#FFFFFF;" d="M252,32h-8H12H4v8v52v8v20v8v60v8v20v8h8h8h224h8v-8V92V40V32L252,32z"/>
	<path style="fill:#16A085;" d="M12,40v52h8v8h-8v20h8v4h-8v64h8v8h-8v20h8h224V92V40H12z M18,212c-1.105,0-2-0.895-2-2
		c0-1.105,0.895-2,2-2s2,0.895,2,2C20,211.105,19.105,212,18,212z M18,48c-1.105,0-2-0.895-2-2c0-1.105,0.895-2,2-2s2,0.895,2,2
		C20,47.105,19.105,48,18,48z M30,52c-1.105,0-2-0.895-2-2c0-1.105,0.895-2,2-2s2,0.895,2,2C32,51.105,31.105,52,30,52z M50,52
		c-1.105,0-2-0.895-2-2c0-1.105,0.895-2,2-2s2,0.895,2,2C52,51.105,51.105,52,50,52z M238,212c-1.105,0-2-0.895-2-2
		c0-1.105,0.895-2,2-2s2,0.895,2,2C240,211.105,239.105,212,238,212z M238,48c-1.105,0-2-0.895-2-2c0-1.105,0.895-2,2-2s2,0.895,2,2
		C240,47.105,239.105,48,238,48z"/>
</g>
<rect x="56" y="44" style="fill:#595959;" width="40" height="12"/>
<rect x="100" y="44" style="fill:#595959;" width="36" height="12"/>
<rect x="188" y="60" style="fill:#595959;" width="24" height="24"/>
<rect x="188" y="92" style="fill:#595959;" width="24" height="24"/>
<rect x="136" y="152" style="fill:#595959;" width="24" height="24"/>
<rect x="176" y="152" style="fill:#595959;" width="24" height="24"/>
<rect x="180" y="124" style="fill:#595959;" width="20" height="16"/>
<rect x="84" y="88" style="fill:#595959;" width="32" height="20"/>
<rect x="120" y="88" style="fill:#595959;" width="32" height="8"/>
<rect x="120" y="100" style="fill:#595959;" width="32" height="8"/>
<rect x="52" y="152" style="fill:#595959;" width="32" height="12"/>
<rect x="52" y="168" style="fill:#595959;" width="32" height="12"/>
<rect x="52" y="184" style="fill:#595959;" width="32" height="12"/>
<rect x="52" y="200" style="fill:#595959;" width="32" height="12"/>
<rect x="148" y="184" style="fill:#595959;" width="40" height="12"/>
<rect x="148" y="200" style="fill:#595959;" width="40" height="12"/>
<rect x="216" y="172" style="fill:#595959;" width="12" height="40"/>
<rect x="232" y="140" style="fill:#595959;" width="8" height="40"/>
<rect x="232" y="96" style="fill:#595959;" width="8" height="40"/>
<rect x="232" y="52" style="fill:#595959;" width="8" height="40"/>
<rect x="88" y="172" style="fill:#595959;" width="12" height="20"/>
<rect x="88" y="160" style="fill:#595959;" width="16" height="4"/>
<rect x="112" y="160" style="fill:#595959;" width="16" height="4"/>
<rect x="112" y="168" style="fill:#595959;" width="16" height="4"/>
<rect x="112" y="176" style="fill:#595959;" width="16" height="4"/>
<rect x="112" y="184" style="fill:#595959;" width="16" height="4"/>
<rect x="112" y="192" style="fill:#595959;" width="16" height="4"/>
<rect x="112" y="200" style="fill:#808080;" width="12" height="8"/>
<rect x="132" y="180" style="fill:#595959;" width="4" height="28"/>
<rect x="92" y="204" style="fill:#595959;" width="16" height="4"/>
<rect x="88" y="152" style="fill:#595959;" width="16" height="4"/>
<rect x="112" y="152" style="fill:#595959;" width="16" height="4"/>
<rect x="36" y="124" style="fill:#595959;" width="4" height="12"/>
<rect x="44" y="124" style="fill:#595959;" width="4" height="12"/>
<rect x="36" y="144" style="fill:#595959;" width="4" height="12"/>
<rect x="44" y="144" style="fill:#595959;" width="4" height="12"/>
<rect x="28" y="164" style="fill:#1ABF9F;" width="4" height="20"/>
<rect x="36" y="164" style="fill:#1ABF9F;" width="4" height="20"/>
<rect x="44" y="164" style="fill:#1ABF9F;" width="4" height="20"/>
<rect x="28" y="188" style="fill:#1ABF9F;" width="4" height="20"/>
<rect x="36" y="188" style="fill:#1ABF9F;" width="4" height="20"/>
<rect x="44" y="188" style="fill:#1ABF9F;" width="4" height="20"/>
<rect x="64" y="60" style="fill:#595959;" width="24" height="12"/>
<rect x="52" y="76" style="fill:#595959;" width="16" height="4"/>
<rect x="72" y="76" style="fill:#595959;" width="16" height="4"/>
<rect x="96" y="64" style="fill:#595959;" width="16" height="16"/>
<rect x="120" y="68" style="fill:#595959;" width="16" height="4"/>
<rect x="124" y="76" style="fill:#595959;" width="12" height="4"/>
<rect x="124" y="60" style="fill:#595959;" width="12" height="4"/>
<rect x="140" y="60" style="fill:#595959;" width="16" height="4"/>
<rect x="164" y="44" style="fill:#595959;" width="16" height="4"/>
<rect x="164" y="52" style="fill:#595959;" width="16" height="4"/>
<rect x="164" y="60" style="fill:#595959;" width="16" height="4"/>
<rect x="164" y="68" style="fill:#595959;" width="16" height="4"/>
<rect x="156" y="76" style="fill:#595959;" width="24" height="4"/>
<rect x="156" y="84" style="fill:#595959;" width="24" height="4"/>
<rect x="156" y="92" style="fill:#595959;" width="24" height="4"/>
<rect x="156" y="100" style="fill:#595959;" width="24" height="4"/>
<rect x="156" y="108" style="fill:#595959;" width="24" height="4"/>
<rect x="128" y="112" style="fill:#595959;" width="24" height="4"/>
<rect x="100" y="112" style="fill:#595959;" width="24" height="4"/>
<rect x="64" y="112" style="fill:#595959;" width="32" height="4"/>
<rect x="128" y="120" style="fill:#595959;" width="24" height="4"/>
<rect x="100" y="112" style="fill:#595959;" width="24" height="4"/>
<rect x="64" y="120" style="fill:#595959;" width="32" height="4"/>
<rect x="128" y="128" style="fill:#595959;" width="24" height="4"/>
<rect x="100" y="128" style="fill:#595959;" width="24" height="4"/>
<rect x="64" y="128" style="fill:#595959;" width="32" height="4"/>
<rect x="128" y="136" style="fill:#595959;" width="24" height="4"/>
<rect x="100" y="136" style="fill:#595959;" width="24" height="4"/>
<rect x="64" y="136" style="fill:#595959;" width="32" height="4"/>
<rect x="100" y="144" style="fill:#595959;" width="24" height="4"/>
<rect x="64" y="144" style="fill:#595959;" width="32" height="4"/>
<rect x="156" y="116" style="fill:#595959;" width="24" height="4"/>
<rect x="156" y="124" style="fill:#595959;" width="16" height="4"/>
<rect x="156" y="132" style="fill:#595959;" width="16" height="4"/>
<rect x="188" y="44" style="fill:#595959;" width="24" height="4"/>
<rect x="216" y="44" style="fill:#595959;" width="4" height="16"/>
<rect x="216" y="64" style="fill:#595959;" width="4" height="16"/>
<rect x="216" y="84" style="fill:#595959;" width="4" height="16"/>
<rect x="216" y="104" style="fill:#595959;" width="4" height="16"/>
<rect x="216" y="124" style="fill:#595959;" width="4" height="16"/>
<rect x="216" y="144" style="fill:#595959;" width="4" height="16"/>
<rect x="208" y="124" style="fill:#595959;" width="4" height="16"/>
<rect x="208" y="144" style="fill:#595959;" width="4" height="16"/>
<path style="fill:#333333;" d="M28,72c-2.209,0-4,1.791-4,4s1.791,4,4,4s4-1.791,4-4S30.209,72,28,72L28,72z"/>
<path style="fill:#808080;" d="M28,74c1.103,0,2,0.897,2,2s-0.897,2-2,2s-2-0.897-2-2S26.897,74,28,74"/>
<path style="fill:#333333;" d="M24,60c-2.209,0-4,1.791-4,4s1.791,4,4,4s4-1.791,4-4S26.209,60,24,60L24,60z"/>
<path style="fill:#808080;" d="M24,62c1.103,0,2,0.897,2,2s-0.897,2-2,2s-2-0.897-2-2S22.897,62,24,62"/>
<path style="fill:#333333;" d="M32,60c-2.209,0-4,1.791-4,4s1.791,4,4,4s4-1.791,4-4S34.209,60,32,60L32,60z"/>
<path style="fill:#808080;" d="M32,62c1.103,0,2,0.897,2,2s-0.897,2-2,2c-1.103,0-2-0.897-2-2S30.897,62,32,62"/>
<path style="fill:#333333;" d="M40,60c-2.209,0-4,1.791-4,4s1.791,4,4,4s4-1.791,4-4S42.209,60,40,60L40,60z"/>
<path style="fill:#808080;" d="M40,62c1.103,0,2,0.897,2,2s-0.897,2-2,2s-2-0.897-2-2S38.897,62,40,62"/>
<path style="fill:#333333;" d="M48,60c-2.209,0-4,1.791-4,4s1.791,4,4,4s4-1.791,4-4S50.209,60,48,60L48,60z"/>
<path style="fill:#808080;" d="M48,62c1.103,0,2,0.897,2,2s-0.897,2-2,2s-2-0.897-2-2S46.897,62,48,62"/>
<path style="fill:#333333;" d="M56,60c-2.209,0-4,1.791-4,4s1.791,4,4,4s4-1.791,4-4S58.209,60,56,60L56,60z"/>
<path style="fill:#808080;" d="M56,62c1.103,0,2,0.897,2,2s-0.897,2-2,2s-2-0.897-2-2S54.897,62,56,62"/>
<rect x="36" y="108" style="fill:#1ABF9F;" width="20" height="4"/>
<rect x="36" y="116" style="fill:#1ABF9F;" width="20" height="4"/>
<rect x="12" y="102" style="fill:#A3834A;" width="8" height="2"/>
<rect x="12" y="106" style="fill:#A3834A;" width="8" height="2"/>
<rect x="12" y="110" style="fill:#A3834A;" width="8" height="2"/>
<rect x="12" y="114" style="fill:#A3834A;" width="8" height="2"/>
<rect x="12" y="118" style="fill:#A3834A;" width="8" height="2"/>
<rect x="12" y="126" style="fill:#A3834A;" width="8" height="2"/>
<rect x="12" y="130" style="fill:#A3834A;" width="8" height="2"/>
<rect x="12" y="134" style="fill:#A3834A;" width="8" height="2"/>
<rect x="12" y="138" style="fill:#A3834A;" width="8" height="2"/>
<rect x="12" y="142" style="fill:#A3834A;" width="8" height="2"/>
<rect x="12" y="146" style="fill:#A3834A;" width="8" height="2"/>
<rect x="12" y="150" style="fill:#A3834A;" width="8" height="2"/>
<rect x="12" y="154" style="fill:#A3834A;" width="8" height="2"/>
<rect x="12" y="158" style="fill:#A3834A;" width="8" height="2"/>
<rect x="12" y="162" style="fill:#A3834A;" width="8" height="2"/>
<rect x="12" y="166" style="fill:#A3834A;" width="8" height="2"/>
<rect x="12" y="170" style="fill:#A3834A;" width="8" height="2"/>
<rect x="12" y="174" style="fill:#A3834A;" width="8" height="2"/>
<rect x="12" y="178" style="fill:#A3834A;" width="8" height="2"/>
<rect x="12" y="182" style="fill:#A3834A;" width="8" height="2"/>
<rect x="12" y="186" style="fill:#A3834A;" width="8" height="2"/>
<g>
	<polygon style="fill:#FFFFFF;" points="56,92 48,92 48,84 44,84 44,104 48,104 48,96 56,96 56,104 60,104 60,84 56,84 	"/>
	<polygon style="fill:#FFFFFF;" points="68,92 68,88 76,88 76,84 68,84 64,84 64,104 68,104 76,104 76,100 68,100 68,96 76,96 
		76,92 	"/>
	<rect x="76" y="96" style="fill:#FFFFFF;" width="4" height="4"/>
	<rect x="76" y="88" style="fill:#FFFFFF;" width="4" height="4"/>
</g>
<rect x="24" y="92" style="fill:#036A6D;" width="16" height="4"/>
<rect x="24" y="84" style="fill:#036A6D;" width="16" height="4"/>
<rect x="24" y="100" style="fill:#036A6D;" width="16" height="4"/>
<circle style="fill:#036A6D;" cx="226" cy="54" r="2"/>
<circle style="fill:#036A6D;" cx="226" cy="62" r="2"/>
<circle style="fill:#036A6D;" cx="226" cy="70" r="2"/>
<circle style="fill:#036A6D;" cx="226" cy="78" r="2"/>
<circle style="fill:#036A6D;" cx="226" cy="86" r="2"/>
<circle style="fill:#036A6D;" cx="226" cy="94" r="2"/>
</svg>
