<svg xmlns="http://www.w3.org/2000/svg" xml:space="preserve" viewBox="0 0 256 256"><path d="M195.859 71.971A88.4 88.4 0 0 0 154.274 44h17.039l-13.657-13.657-24-24L128 .686l-5.657 5.657-24 24L84.686 44h17.039A88.4 88.4 0 0 0 60.14 71.971C47.153 87.684 40 107.582 40 128c0 48.523 39.477 88 88 88s88-39.477 88-88c0-20.418-7.153-40.316-20.141-56.029" style="opacity:.5;fill:#fff"/><path d="M112 36v24h32V36h8l-24-24-24 24z" style="fill:#ffcb05"/><circle cx="128" cy="128" r="80" style="fill:#262626"/><circle cx="128" cy="128" r="64" style="fill:#1a1a1a"/><circle cx="128" cy="112" r="64" style="fill:#333"/><circle cx="128" cy="112" r="52" style="fill:#404040"/></svg>