<?xml version="1.0" encoding="iso-8859-1"?>
<!-- Generator: Adobe Illustrator 27.8.1, SVG Export Plug-In . SVG Version: 6.00 Build 0)  -->
<svg version="1.1" id="Layer_1" xmlns="http://www.w3.org/2000/svg" xmlns:xlink="http://www.w3.org/1999/xlink" x="0px" y="0px"
	 viewBox="0 0 256 256" style="enable-background:new 0 0 256 256;" xml:space="preserve">
<path style="opacity:0.5;fill:#FFFFFF;" d="M195.859,71.971C184.967,58.793,170.431,49.065,154.274,44h17.039l-13.657-13.657l-24-24
	L128,0.686l-5.657,5.657l-24,24L84.686,44h17.039c-16.157,5.065-30.693,14.793-41.585,27.971C47.153,87.684,40,107.582,40,128
	c0,48.523,39.477,88,88,88s88-39.477,88-88C216,107.582,208.847,87.684,195.859,71.971z"/>
<polygon style="fill:#FFCB05;" points="112,36 112,60 144,60 144,36 152,36 128,12 104,36 "/>
<circle style="fill:#262626;" cx="128" cy="128" r="80"/>
<circle style="fill:#1A1A1A;" cx="128" cy="128" r="64"/>
<circle style="fill:#333333;" cx="128" cy="112" r="64"/>
<circle style="fill:#404040;" cx="128" cy="112" r="52"/>
</svg>
