<svg xmlns="http://www.w3.org/2000/svg" xml:space="preserve" width="288" height="64"><defs><clipPath id="a" clipPathUnits="userSpaceOnUse"><path d="M0 256h256V0H0Z"/></clipPath><clipPath id="b" clipPathUnits="userSpaceOnUse"><path d="M20 152h216v-48H20Z"/></clipPath></defs><g clip-path="url(#a)" transform="matrix(1.33333 0 0 -1.33333 -26.667 202.667)"><g clip-path="url(#b)" style="opacity:.5"><path d="M0 0h-52c-8.822 0-16-7.178-16-16v-16c0-8.822 7.178-16 16-16H0c8.822 0 16 7.178 16 16v16C16-7.178 8.822 0 0 0" style="fill:#fff;fill-opacity:1;fill-rule:nonzero;stroke:none" transform="translate(88 152)"/><path d="M0 0h-52c-8.822 0-16-7.178-16-16v-16c0-8.822 7.178-16 16-16H0c8.822 0 16 7.178 16 16v16C16-7.178 8.822 0 0 0" style="fill:#fff;fill-opacity:1;fill-rule:nonzero;stroke:none" transform="translate(220 152)"/></g><path d="M0 0h-52c-4.411 0-8-3.589-8-8v-16c0-4.411 3.589-8 8-8H0c4.411 0 8 3.589 8 8v16c0 4.411-3.589 8-8 8" style="fill:#262626;fill-opacity:1;fill-rule:nonzero;stroke:none" transform="translate(88 144)"/><path d="M0 0a4 4 0 0 0 4-4v-16a4 4 0 0 0-4-4h-52a4 4 0 0 0-4 4v16a4 4 0 0 0 4 4z" style="fill:#333;fill-opacity:1;fill-rule:nonzero;stroke:none" transform="translate(88 140)"/><path d="M0 0h-52c-4.411 0-8-3.589-8-8v-16c0-4.411 3.589-8 8-8H0c4.411 0 8 3.589 8 8v16c0 4.411-3.589 8-8 8" style="fill:#a6a6a6;fill-opacity:1;fill-rule:nonzero;stroke:none" transform="translate(220 144)"/><path d="M0 0a4 4 0 0 0 4-4v-16a4 4 0 0 0-4-4h-52a4 4 0 0 0-4 4v16a4 4 0 0 0 4 4z" style="fill:#bfbfbf;fill-opacity:1;fill-rule:nonzero;stroke:none" transform="translate(220 140)"/></g></svg>