<?xml version="1.0" encoding="UTF-8" standalone="no"?>
<svg
   xmlns:dc="http://purl.org/dc/elements/1.1/"
   xmlns:cc="http://creativecommons.org/ns#"
   xmlns:rdf="http://www.w3.org/1999/02/22-rdf-syntax-ns#"
   xmlns:svg="http://www.w3.org/2000/svg"
   xmlns="http://www.w3.org/2000/svg"
   viewBox="0 0 224 330.66598"
   height="330.66599"
   width="224"
   xml:space="preserve"
   id="svg2"
   version="1.1"><metadata
     id="metadata8"><rdf:RDF><cc:Work
         rdf:about=""><dc:format>image/svg+xml</dc:format><dc:type
           rdf:resource="http://purl.org/dc/dcmitype/StillImage" /></cc:Work></rdf:RDF></metadata><defs
     id="defs6"><clipPath
       id="clipPath18"
       clipPathUnits="userSpaceOnUse"><path
         id="path16"
         d="M 0,256 H 256 V 0 H 0 Z" /></clipPath><clipPath
       id="clipPath26"
       clipPathUnits="userSpaceOnUse"><path
         id="path24"
         d="M 44,252 H 212 V 4 H 44 Z" /></clipPath><clipPath
       id="clipPath44"
       clipPathUnits="userSpaceOnUse"><path
         id="path42"
         d="M 0,256 H 256 V 0 H 0 Z" /></clipPath></defs><g
     transform="matrix(1.3333333,0,0,-1.3333333,-58.666665,335.99999)"
     id="g10"><g
       id="g12"><g
         clip-path="url(#clipPath18)"
         id="g14"><g
           id="g20"><g
             id="g22" /><g
             id="g34"><g
               style="opacity:0.5"
               id="g32"
               clip-path="url(#clipPath26)"><g
                 id="g30"
                 transform="translate(200,98.8135)"><path
                   id="path28"
                   style="fill:#ffffff;fill-opacity:1;fill-rule:nonzero;stroke:none"
                   d="m 0,0 v 145.187 8 h -8 -128 -8 v -8 V 0 c -7.855,-17.094 -12,-36.693 -12,-56.813 v -10 c 0,-9.589 9.496,-16.951 28.224,-21.879 15,-3.948 34.808,-6.121 55.776,-6.121 20.968,0 40.776,2.173 55.776,6.121 C 2.504,-83.764 12,-76.402 12,-66.813 v 10 C 12,-36.693 7.855,-17.094 0,0" /></g></g></g></g></g></g><path
       id="path36"
       style="fill:#4c4c4c;fill-opacity:1;fill-rule:nonzero;stroke:none"
       d="M 192,76 H 64 v 168 h 128 z" /><g
       id="g38"><g
         clip-path="url(#clipPath44)"
         id="g40"><g
           transform="translate(176,156)"
           id="g46"><path
             id="path48"
             style="fill:#ffffff;fill-opacity:1;fill-rule:nonzero;stroke:none"
             d="m 0,0 h -96 c -2.209,0 -4,1.791 -4,4 v 72 c 0,2.209 1.791,4 4,4 H 0 c 2.209,0 4,-1.791 4,-4 V 4 C 4,1.791 2.209,0 0,0" /></g><g
           transform="translate(204,42)"
           id="g50"><path
             id="path52"
             style="fill:#595959;fill-opacity:1;fill-rule:nonzero;stroke:none"
             d="m 0,0 c 0,56.333 -34.026,102 -76,102 -41.974,0 -76,-45.667 -76,-102 v -10 c 0,-11.046 34.026,-20 76,-20 41.974,0 76,8.954 76,20 z" /></g><g
           transform="translate(124,139.8462)"
           id="g54"><path
             id="path56"
             style="fill:#4c4c4c;fill-opacity:1;fill-rule:nonzero;stroke:none"
             d="m 0,0 c -1.344,-0.101 -2.677,-0.254 -4,-0.455 v -101.391 c 0,-1.105 0.896,-2 2,-2 1.104,0 2,0.895 2,2 z" /></g><g
           transform="translate(76,109.7139)"
           id="g58"><path
             id="path60"
             style="fill:#4c4c4c;fill-opacity:1;fill-rule:nonzero;stroke:none"
             d="M 0,0 C -1.396,-1.985 -2.729,-4.054 -4,-6.192 V -77.714 H 0 Z" /></g><g
           transform="translate(88,123.4443)"
           id="g62"><path
             id="path64"
             style="fill:#4c4c4c;fill-opacity:1;fill-rule:nonzero;stroke:none"
             d="m 0,0 c -1.367,-1.248 -2.701,-2.56 -4,-3.93 v -69.514 c 0,-1.105 0.896,-2 2,-2 1.104,0 2,0.895 2,2 z" /></g><g
           transform="translate(100,132.2856)"
           id="g66"><path
             id="path68"
             style="fill:#4c4c4c;fill-opacity:1;fill-rule:nonzero;stroke:none"
             d="M 0,0 C -1.356,-0.782 -2.688,-1.625 -4,-2.515 V -104.286 H 0 Z" /></g><g
           transform="translate(112,137.5576)"
           id="g70"><path
             id="path72"
             style="fill:#4c4c4c;fill-opacity:1;fill-rule:nonzero;stroke:none"
             d="m 0,0 c -1.348,-0.418 -2.682,-0.888 -4,-1.408 v -90.15 c 0,-1.104 0.896,-2 2,-2 1.104,0 2,0.896 2,2 z" /></g><g
           transform="translate(168,123.4443)"
           id="g74"><path
             id="path76"
             style="fill:#4c4c4c;fill-opacity:1;fill-rule:nonzero;stroke:none"
             d="m 0,0 v -73.444 c 0,-1.105 0.896,-2 2,-2 1.104,0 2,0.895 2,2 V -3.93 C 2.701,-2.56 1.367,-1.248 0,0" /></g><g
           transform="translate(180,32)"
           id="g78"><path
             id="path80"
             style="fill:#4c4c4c;fill-opacity:1;fill-rule:nonzero;stroke:none"
             d="M 0,0 H 4 V 71.521 C 2.729,73.66 1.396,75.729 0,77.714 Z" /></g><g
           transform="translate(156,28)"
           id="g82"><path
             id="path84"
             style="fill:#4c4c4c;fill-opacity:1;fill-rule:nonzero;stroke:none"
             d="m 0,0 h 4 v 101.771 c -1.312,0.89 -2.645,1.733 -4,2.515 z" /></g><g
           transform="translate(146,44)"
           id="g86"><path
             id="path88"
             style="fill:#4c4c4c;fill-opacity:1;fill-rule:nonzero;stroke:none"
             d="m 0,0 v 0 c 1.104,0 2,0.896 2,2 v 90.149 c -1.318,0.52 -2.652,0.991 -4,1.409 V 2 C -2,0.896 -1.104,0 0,0" /></g><g
           transform="translate(134,36)"
           id="g90"><path
             id="path92"
             style="fill:#4c4c4c;fill-opacity:1;fill-rule:nonzero;stroke:none"
             d="m 0,0 v 0 c 1.104,0 2,0.896 2,2 v 101.392 c -1.323,0.2 -2.656,0.354 -4,0.454 V 2 C -2,0.896 -1.104,0 0,0" /></g><g
           transform="translate(80,30)"
           id="g94"><path
             id="path96"
             style="fill:#4c4c4c;fill-opacity:1;fill-rule:nonzero;stroke:none"
             d="m 0,0 c 0,-3.313 -2.687,-6 -6,-6 -3.313,0 -6,2.687 -6,6 0,3.313 2.687,6 6,6 3.313,0 6,-2.687 6,-6" /></g><g
           transform="translate(104,26)"
           id="g98"><path
             id="path100"
             style="fill:#4c4c4c;fill-opacity:1;fill-rule:nonzero;stroke:none"
             d="m 0,0 c 0,-3.313 -2.687,-6 -6,-6 -3.313,0 -6,2.687 -6,6 0,3.313 2.687,6 6,6 3.313,0 6,-2.687 6,-6" /></g><g
           transform="translate(164,26)"
           id="g102"><path
             id="path104"
             style="fill:#4c4c4c;fill-opacity:1;fill-rule:nonzero;stroke:none"
             d="m 0,0 c 0,-3.313 -2.687,-6 -6,-6 -3.313,0 -6,2.687 -6,6 0,3.313 2.687,6 6,6 3.313,0 6,-2.687 6,-6" /></g><g
           transform="translate(188,30)"
           id="g106"><path
             id="path108"
             style="fill:#4c4c4c;fill-opacity:1;fill-rule:nonzero;stroke:none"
             d="m 0,0 c 0,-3.313 -2.687,-6 -6,-6 -3.313,0 -6,2.687 -6,6 0,3.313 2.687,6 6,6 3.313,0 6,-2.687 6,-6" /></g><g
           transform="translate(66,52)"
           id="g110"><path
             id="path112"
             style="fill:#4c4c4c;fill-opacity:1;fill-rule:nonzero;stroke:none"
             d="m 0,0 v 0 c 1.104,0 2,0.896 2,2 v 8 c 0,1.104 -0.896,2 -2,2 -1.104,0 -2,-0.896 -2,-2 V 2 C -2,0.896 -1.104,0 0,0" /></g><g
           transform="translate(190,52)"
           id="g114"><path
             id="path116"
             style="fill:#4c4c4c;fill-opacity:1;fill-rule:nonzero;stroke:none"
             d="m 0,0 v 0 c 1.104,0 2,0.896 2,2 v 8 c 0,1.104 -0.896,2 -2,2 -1.104,0 -2,-0.896 -2,-2 V 2 C -2,0.896 -1.104,0 0,0" /></g></g></g></g></svg>