<svg xmlns="http://www.w3.org/2000/svg" xml:space="preserve" width="309.333" height="261.333"><defs><clipPath id="a" clipPathUnits="userSpaceOnUse"><path d="M0 256h256V0H0Z"/></clipPath><clipPath id="b" clipPathUnits="userSpaceOnUse"><path d="M12 228h232V32H12Z"/></clipPath></defs><g clip-path="url(#a)" transform="matrix(1.33333 0 0 -1.33333 -16 304)"><g clip-path="url(#b)" style="opacity:.5"><path d="M0 0c-3.685 16.511-10.204 29.146-19.38 37.558-7.278 6.671-13.637 8.207-14.837 8.447q-.383.078-.773.116l-33.477 3.348a8 8 0 0 1-2.882 3.427 45 45 0 0 1-2.435 1.507 8 8 0 0 1-2.531.936 8 8 0 0 1-2.239 1.481c-.754.333-1.541.659-2.341.969a8 8 0 0 1-2.398.525 8 8 0 0 1-2.212 1.048c-.757.225-1.522.438-2.276.634a8 8 0 0 1-2.318.249 8 8 0 0 1-2.195.759c-.751.142-1.505.274-2.243.39a8 8 0 0 1-2.268.033 8 8 0 0 1-2.218.539 68 68 0 0 1-2.271.18q-.248.015-.492.015c-.68 0-1.351-.087-2-.254a8 8 0 0 1-2.492.239 67 67 0 0 1-2.271-.18 8 8 0 0 1-2.219-.539 8 8 0 0 1-2.267-.033 74 74 0 0 1-2.243-.39 8 8 0 0 1-2.196-.759 8 8 0 0 1-2.317-.249 69 69 0 0 1-2.276-.634 8 8 0 0 1-2.212-1.048 8 8 0 0 1-2.399-.525c-.8-.31-1.587-.636-2.34-.969a8 8 0 0 1-2.239-1.481 8 8 0 0 1-2.531-.936 45 45 0 0 1-2.436-1.507 8 8 0 0 1-2.881-3.427l-33.477-3.348a8 8 0 0 1-.773-.116c-1.201-.24-7.559-1.776-14.837-8.447-9.188-8.423-15.713-21.08-19.395-37.624-5.567-23.943-12.199-53.385-12.199-57.773 0-12.454 0-33.298 4.411-46.53 6.64-19.921 23.36-28.306 24.068-28.654a8 8 0 0 1 8.727 1.109c6.908 5.908 27.254 20.89 41.192 22.008 5.188-2.267 19.918-7.933 37.602-7.933q1.004 0 1.994.025a84 84 0 0 1 2.006-.025c15.407 0 27.656 4.45 34.004 7.891 6.42-.662 15.203-4.347 25.05-10.546 8.933-5.623 15.676-11.365 15.743-11.423a8.01 8.01 0 0 1 8.723-1.106c.709.348 17.429 8.733 24.07 28.654 4.41 13.232 4.41 37.494 4.41 50.53C12.214-50.535 8.104-32.421 0 0" style="fill:#fff;fill-opacity:1;fill-rule:nonzero;stroke:none" transform="translate(231.786 165.84)"/></g><path d="M0 0c0 4-12 52-12 52-8 36-28 40-28 40l-40 4c-12 8-28 8-28 8s-16 0-28-8l-40-4s-20-4-28-40c0 0-12-51.605-12-56 0-12 0-32 4-44 5.657-16.971 20-24 20-24s28 24 48 24c0 0 16-8 36-8s36 8 36 8c20 0 48-24 48-24s14.343 7.029 20 24C0-36 0-12 0 0" style="fill:gray;fill-opacity:1;fill-rule:nonzero;stroke:none" transform="translate(236 112)"/><path d="M0 0c0-35.347-28.653-64-64-64-35.346 0-64 28.653-64 64 0 35.346 28.654 64 64 64S0 35.346 0 0" style="fill:#8c8c8c;fill-opacity:1;fill-rule:nonzero;stroke:none" transform="translate(192 136)"/><path d="M0 0v32c-12 8-28 8-28 8s-16 0-28-8V0Z" style="fill:#666;fill-opacity:1;fill-rule:nonzero;stroke:none" transform="translate(156 176)"/><path d="M0 0c0-28.719-23.281-52-52-52s-52 23.281-52 52 23.281 52 52 52S0 28.719 0 0" style="fill:#666;fill-opacity:1;fill-rule:nonzero;stroke:none" transform="translate(180 136)"/><path d="M0 0h8v32h56V0h8S60-8 40-8 0 0 0 0" style="fill:#666;fill-opacity:1;fill-rule:nonzero;stroke:none" transform="translate(92 64)"/><path d="M0 0c0-15.464-12.536-28-28-28S-56-15.464-56 0s12.536 28 28 28S0 15.464 0 0" style="fill:#737373;fill-opacity:1;fill-rule:nonzero;stroke:none" transform="translate(100 164)"/><path d="M0 0c0-11.046-8.954-20-20-20s-20 8.954-20 20 8.954 20 20 20S0 11.046 0 0" style="fill:gray;fill-opacity:1;fill-rule:nonzero;stroke:none" transform="translate(148 136)"/><path d="M0 0c0-13.255-10.745-24-24-24S-48-13.255-48 0s10.745 24 24 24S0 13.255 0 0" style="fill:#666;fill-opacity:1;fill-rule:nonzero;stroke:none" transform="translate(96 164)"/><path d="M0 0c0-6.627-5.373-12-12-12S-24-6.627-24 0s5.373 12 12 12S0 6.627 0 0" style="fill:#404040;fill-opacity:1;fill-rule:nonzero;stroke:none" transform="translate(84 164)"/><path d="M0 0c-1.1 0-2 .9-2 2v4c0 1.1.9 2 2 2s2-.9 2-2V2c0-1.1-.9-2-2-2" style="fill:#595959;fill-opacity:1;fill-rule:nonzero;stroke:none" transform="translate(94 136)"/><path d="M0 0c-1.1 0-2 .9-2 2v4c0 1.1.9 2 2 2s2-.9 2-2V2c0-1.1-.9-2-2-2" style="fill:#595959;fill-opacity:1;fill-rule:nonzero;stroke:none" transform="translate(102 168)"/><path d="M0 0c-1.1 0-2 .9-2 2v24c0 1.1.9 2 2 2s2-.9 2-2V2c0-1.1-.9-2-2-2" style="fill:#595959;fill-opacity:1;fill-rule:nonzero;stroke:none" transform="translate(102 132)"/><path d="M0 0c-1.1 0-2 .9-2 2v28c0 1.1.9 2 2 2s2-.9 2-2V2c0-1.1-.9-2-2-2" style="fill:#595959;fill-opacity:1;fill-rule:nonzero;stroke:none" transform="translate(110 148)"/><path d="M0 0c-1.1 0-2 .9-2 2v8c0 1.1.9 2 2 2s2-.9 2-2V2c0-1.1-.9-2-2-2" style="fill:#595959;fill-opacity:1;fill-rule:nonzero;stroke:none" transform="translate(110 88)"/><path d="M0 0c-1.1 0-2 .9-2 2v28c0 1.1.9 2 2 2s2-.9 2-2V2c0-1.1-.9-2-2-2" style="fill:#595959;fill-opacity:1;fill-rule:nonzero;stroke:none" transform="translate(118 84)"/><path d="M0 0c-1.1 0-2 .9-2 2v24c0 1.1.9 2 2 2s2-.9 2-2V2c0-1.1-.9-2-2-2" style="fill:#595959;fill-opacity:1;fill-rule:nonzero;stroke:none" transform="translate(126 84)"/><path d="M0 0c-1.1 0-2 .9-2 2v28c0 1.1.9 2 2 2s2-.9 2-2V2c0-1.1-.9-2-2-2" style="fill:#595959;fill-opacity:1;fill-rule:nonzero;stroke:none" transform="translate(134 84)"/><path d="M0 0c-1.1 0-2 .9-2 2v28c0 1.1.9 2 2 2s2-.9 2-2V2c0-1.1-.9-2-2-2" style="fill:#595959;fill-opacity:1;fill-rule:nonzero;stroke:none" transform="translate(142 88)"/><path d="M0 0c-1.1 0-2 .9-2 2v32c0 1.1.9 2 2 2s2-.9 2-2V2c0-1.1-.9-2-2-2" style="fill:#595959;fill-opacity:1;fill-rule:nonzero;stroke:none" transform="translate(150 92)"/><path d="M0 0c-1.1 0-2 .9-2 2v40c0 1.1.9 2 2 2s2-.9 2-2V2c0-1.1-.9-2-2-2" style="fill:#595959;fill-opacity:1;fill-rule:nonzero;stroke:none" transform="translate(158 96)"/><path d="M0 0c-1.1 0-2 .9-2 2v32.667c0 1.1.9 2 2 2s2-.9 2-2V2c0-1.1-.9-2-2-2" style="fill:#595959;fill-opacity:1;fill-rule:nonzero;stroke:none" transform="translate(166 103.333)"/><path d="M0 0c-1.1 0-2 .9-2 2v8c0 1.1.9 2 2 2s2-.9 2-2V2c0-1.1-.9-2-2-2" style="fill:#595959;fill-opacity:1;fill-rule:nonzero;stroke:none" transform="translate(174 116)"/><path d="M0 0c-1.1 0-2 .9-2 2s.9 2 2 2 2-.9 2-2-.9-2-2-2" style="fill:#595959;fill-opacity:1;fill-rule:nonzero;stroke:none" transform="translate(166 164)"/><path d="M0 0c-1.1 0-2 .9-2 2v8c0 1.1.9 2 2 2s2-.9 2-2V2c0-1.1-.9-2-2-2" style="fill:#595959;fill-opacity:1;fill-rule:nonzero;stroke:none" transform="translate(158 164)"/><path d="M0 0c-1.1 0-2 .9-2 2v32c0 1.1.9 2 2 2s2-.9 2-2V2c0-1.1-.9-2-2-2" style="fill:#595959;fill-opacity:1;fill-rule:nonzero;stroke:none" transform="translate(150 144)"/><path d="M0 0c-1.1 0-2 .9-2 2v28c0 1.1.9 2 2 2s2-.9 2-2V2c0-1.1-.9-2-2-2" style="fill:#595959;fill-opacity:1;fill-rule:nonzero;stroke:none" transform="translate(142 152)"/><path d="M0 0c-1.1 0-2 .9-2 2v24.444c0 1.1.9 2 2 2s2-.9 2-2V2c0-1.1-.9-2-2-2" style="fill:#595959;fill-opacity:1;fill-rule:nonzero;stroke:none" transform="translate(118 155.556)"/><path d="M0 0c-1.1 0-2 .9-2 2v4c0 1.1.9 2 2 2s2-.9 2-2V2c0-1.1-.9-2-2-2" style="fill:#595959;fill-opacity:1;fill-rule:nonzero;stroke:none" transform="translate(126 156)"/><path d="M0 0c-1.1 0-2 .9-2 2v4c0 1.1.9 2 2 2s2-.9 2-2V2c0-1.1-.9-2-2-2" style="fill:#595959;fill-opacity:1;fill-rule:nonzero;stroke:none" transform="translate(134 156)"/><path d="M0 0a6 6 0 0 0-12 0A6 6 0 0 0 0 0" style="fill:#b80000;fill-opacity:1;fill-rule:nonzero;stroke:none" transform="translate(136 170)"/><path d="M0 0a8 8 0 1 0-16 0A8 8 0 0 0 0 0" style="fill:#00b800;fill-opacity:1;fill-rule:nonzero;stroke:none" transform="translate(172 152)"/><path d="M0 0a8 8 0 1 0-16 0A8 8 0 0 0 0 0" style="fill:#3096cf;fill-opacity:1;fill-rule:nonzero;stroke:none" transform="translate(188 136)"/><path d="M0 0a2 2 0 1 0-4.001.001A2 2 0 0 0 0 0" style="fill:#595959;fill-opacity:1;fill-rule:nonzero;stroke:none" transform="translate(74 182)"/><path d="M0 0a2 2 0 1 0-4.001.001A2 2 0 0 0 0 0" style="fill:#595959;fill-opacity:1;fill-rule:nonzero;stroke:none" transform="translate(74 146)"/><path d="M0 0a2 2 0 1 0 .001 4.001A2 2 0 0 0 0 0" style="fill:#595959;fill-opacity:1;fill-rule:nonzero;stroke:none" transform="translate(90 162)"/><path d="M0 0a2 2 0 1 0 .001 4.001A2 2 0 0 0 0 0" style="fill:#595959;fill-opacity:1;fill-rule:nonzero;stroke:none" transform="translate(54 162)"/><path d="M0 0a2 2 0 1 0-2.829 2.83A2 2 0 0 0 0 0" style="fill:#595959;fill-opacity:1;fill-rule:nonzero;stroke:none" transform="translate(86.142 175.314)"/><path d="M0 0a2 2 0 1 0-2.829 2.83A2 2 0 0 0 0 0" style="fill:#595959;fill-opacity:1;fill-rule:nonzero;stroke:none" transform="translate(60.687 149.858)"/><path d="M0 0a2 2 0 1 0 2.83 2.829A2 2 0 0 0 0 0" style="fill:#595959;fill-opacity:1;fill-rule:nonzero;stroke:none" transform="translate(83.314 149.858)"/><path d="M0 0a2 2 0 1 0 2.83 2.829A2 2 0 0 0 0 0" style="fill:#595959;fill-opacity:1;fill-rule:nonzero;stroke:none" transform="translate(57.858 175.314)"/><path d="M0 0c0-7.732-6.268-14-14-14S-28-7.732-28 0s6.268 14 14 14S0 7.732 0 0" style="fill:#8c8c8c;fill-opacity:1;fill-rule:nonzero;stroke:none" transform="translate(212 166)"/><path d="M0 0a6 6 0 0 0-12 0A6 6 0 0 0 0 0" style="fill:#eac500;fill-opacity:1;fill-rule:nonzero;stroke:none" transform="translate(192 166)"/><path d="M0 0a6 6 0 0 0-12 0A6 6 0 0 0 0 0" style="fill:#eac500;fill-opacity:1;fill-rule:nonzero;stroke:none" transform="translate(216 166)"/><path d="M0 0a6 6 0 0 0-12 0A6 6 0 0 0 0 0" style="fill:#eac500;fill-opacity:1;fill-rule:nonzero;stroke:none" transform="translate(204 178)"/><path d="M0 0a6 6 0 0 0-12 0A6 6 0 0 0 0 0" style="fill:#eac500;fill-opacity:1;fill-rule:nonzero;stroke:none" transform="translate(204 154)"/><path d="M0 0a2 2 0 1 0-4.001.001A2 2 0 0 0 0 0" style="fill:#404040;fill-opacity:1;fill-rule:nonzero;stroke:none" transform="translate(120 194)"/><path d="M0 0a2 2 0 1 0-4.001.001A2 2 0 0 0 0 0" style="fill:#404040;fill-opacity:1;fill-rule:nonzero;stroke:none" transform="translate(144 194)"/><path d="M0 0c0-14.359-11.641-26-26-26S-52-14.359-52 0s11.641 26 26 26S0 14.359 0 0" style="fill:#737373;fill-opacity:1;fill-rule:nonzero;stroke:none" transform="translate(112 110)"/><path d="M0 0h-2v2c0 5.514-4.486 10-10 10S-22 7.514-22 2V0h-2c-5.514 0-10-4.486-10-10s4.486-10 10-10h2v-2c0-5.514 4.486-10 10-10s10 4.486 10 10v2h2c5.514 0 10 4.486 10 10S5.514 0 0 0" style="fill:#4c4c4c;fill-opacity:1;fill-rule:nonzero;stroke:none" transform="translate(98 120)"/><path d="M0 0a6 6 0 0 0-12 0A6 6 0 0 0 0 0" style="fill:#3b3b3b;fill-opacity:1;fill-rule:nonzero;stroke:none" transform="translate(80 110)"/><path d="M0 0a6 6 0 0 0-12 0A6 6 0 0 0 0 0" style="fill:#3b3b3b;fill-opacity:1;fill-rule:nonzero;stroke:none" transform="translate(92 122)"/><path d="M0 0a6 6 0 0 0-12 0A6 6 0 0 0 0 0" style="fill:#3b3b3b;fill-opacity:1;fill-rule:nonzero;stroke:none" transform="translate(92 98)"/><path d="M0 0a6 6 0 0 0-12 0A6 6 0 0 0 0 0" style="fill:#3b3b3b;fill-opacity:1;fill-rule:nonzero;stroke:none" transform="translate(104 110)"/><path d="M0 0c0-5.523-4.477-10-10-10S-20-5.523-20 0s4.477 10 10 10S0 5.523 0 0" style="fill:#4c4c4c;fill-opacity:1;fill-rule:nonzero;stroke:none" transform="translate(82 164)"/><path d="M0 0a8 8 0 1 0-16 0A8 8 0 0 0 0 0" style="fill:#404040;fill-opacity:1;fill-rule:nonzero;stroke:none" transform="translate(80 164)"/><path d="M0 0a4 4 0 1 0-8 0 4 4 0 0 0 8 0" style="fill:#404040;fill-opacity:1;fill-rule:nonzero;stroke:none" transform="translate(76 164)"/><path d="M0 0a2 2 0 1 0-4.001.001A2 2 0 0 0 0 0" style="fill:#595959;fill-opacity:1;fill-rule:nonzero;stroke:none" transform="translate(108 66)"/><path d="M0 0a2 2 0 1 0-4.001.001A2 2 0 0 0 0 0" style="fill:#595959;fill-opacity:1;fill-rule:nonzero;stroke:none" transform="translate(130 62)"/><path d="M0 0a2 2 0 1 0-4.001.001A2 2 0 0 0 0 0" style="fill:#595959;fill-opacity:1;fill-rule:nonzero;stroke:none" transform="translate(152 66)"/><path d="M0 0a6 6 0 0 0-12 0A6 6 0 0 0 0 0" style="fill:#404040;fill-opacity:1;fill-rule:nonzero;stroke:none" transform="translate(136 186)"/><path d="M0 0a6 6 0 0 0-12 0A6 6 0 0 0 0 0" style="fill:#4c4c4c;fill-opacity:1;fill-rule:nonzero;stroke:none" transform="translate(78 164)"/><path d="M0 0v-2.971c.663.13 1.328.254 2 .357v3.17A3.96 3.96 0 0 0 0 0" style="fill:gray;fill-opacity:1;fill-rule:nonzero;stroke:none" transform="translate(118 190.079)"/><path d="M0 0v-31.975c.661.214 1.328.41 2 .598V.556A56 56 0 0 1 0 0" style="fill:gray;fill-opacity:1;fill-rule:nonzero;stroke:none" transform="translate(112 217.534)"/><path d="M0 0c.66.309 1.325.609 2 .89v32.082a49 49 0 0 1-2-.827Z" style="fill:gray;fill-opacity:1;fill-rule:nonzero;stroke:none" transform="translate(106 183.197)"/><path d="M0 0a68 68 0 0 1-2-.348v-20.905c.732 0 1.409-.212 2-.556z" style="fill:gray;fill-opacity:1;fill-rule:nonzero;stroke:none" transform="translate(120 219.332)"/><path d="M0 0q-1.013.301-2 .556v-20.011c.731 0 1.409-.212 2-.556z" style="fill:gray;fill-opacity:1;fill-rule:nonzero;stroke:none" transform="translate(144 217.534)"/><path d="M0 0q.985.63 2 1.218v32.21a36 36 0 0 1-2-1.236Z" style="fill:gray;fill-opacity:1;fill-rule:nonzero;stroke:none" transform="translate(100 179.886)"/><path d="M0 0v-3.922c.672-.188 1.34-.384 2-.598V.556A3.96 3.96 0 0 0 0 0" style="fill:gray;fill-opacity:1;fill-rule:nonzero;stroke:none" transform="translate(142 190.079)"/><path d="M0 0c.675-.281 1.34-.581 2-.89v32.144q-1 .44-2 .828Z" style="fill:gray;fill-opacity:1;fill-rule:nonzero;stroke:none" transform="translate(148 184.087)"/><path d="M0 0a10 10 0 0 0 2 1.178V25.94a57 57 0 0 1-2-.158Z" style="fill:gray;fill-opacity:1;fill-rule:nonzero;stroke:none" transform="translate(124 194.06)"/><path d="M0 0v-32.21a53 53 0 0 0 2-1.218v32.192C1.345-.799.676-.39 0 0" style="fill:gray;fill-opacity:1;fill-rule:nonzero;stroke:none" transform="translate(154 213.315)"/><path d="M0 0v-25.272a10 10 0 0 0 2-2.006v26.93Q.965-.152 0 0" style="fill:gray;fill-opacity:1;fill-rule:nonzero;stroke:none" transform="translate(136 219.332)"/><path d="M0 0c.685 0 1.354-.07 2-.202v23.965c-.763.073-1.434.124-2 .158Z" style="fill:gray;fill-opacity:1;fill-rule:nonzero;stroke:none" transform="translate(130 196.079)"/><path d="M0 0a4 4 0 1 0-8 0 4 4 0 0 0 8 0" style="fill:#404040;fill-opacity:1;fill-rule:nonzero;stroke:none" transform="translate(76 164)"/><path d="M0 0a2 2 0 1 0-4.001.001A2 2 0 0 0 0 0" style="fill:#4c4c4c;fill-opacity:1;fill-rule:nonzero;stroke:none" transform="translate(74 164)"/></g></svg>