<svg xmlns="http://www.w3.org/2000/svg" xml:space="preserve" width="266.667" height="320"><defs><clipPath id="a" clipPathUnits="userSpaceOnUse"><path d="M0 256h256V0H0Z"/></clipPath><clipPath id="b" clipPathUnits="userSpaceOnUse"><path d="M28 248h200V8H28Z"/></clipPath></defs><g clip-path="url(#a)" transform="matrix(1.33333 0 0 -1.33333 -37.333 330.667)"><g clip-path="url(#b)" style="opacity:.5"><path d="M0 0h-180c-5.514 0-10-4.486-10-10v-220c0-5.514 4.486-10 10-10H0c5.514 0 10 4.486 10 10v220C10-4.486 5.514 0 0 0" style="fill:#fff;fill-opacity:1;fill-rule:nonzero;stroke:none" transform="translate(218 248)"/></g><path d="M0 0h-180a2 2 0 0 0-2 2v220a2 2 0 0 0 2 2H0a2 2 0 0 0 2-2V2a2 2 0 0 0-2-2" style="fill:#ccc;fill-opacity:1;fill-rule:nonzero;stroke:none" transform="translate(218 16)"/><path d="M0 0h-164.092a1.954 1.954 0 0 1-1.954-1.954V-24h168v22.046A1.954 1.954 0 0 1 0 0" style="fill:#ff0;fill-opacity:1;fill-rule:nonzero;stroke:none" transform="translate(210.046 232)"/><path d="M0 0h-168v-22.046c0-1.079.875-1.954 1.954-1.954H-1.954C-.875-24 0-23.125 0-22.046Z" style="fill:#ff0;fill-opacity:1;fill-rule:nonzero;stroke:none" transform="translate(212 92)"/><path d="M46 44h-2v12h2z" style="fill:#bfbfbf;fill-opacity:1;fill-rule:nonzero;stroke:none"/><path d="M46 32h-2v16h2z" style="fill:#a3834a;fill-opacity:1;fill-rule:nonzero;stroke:none"/><path d="M50 44h-2v12h2z" style="fill:#bfbfbf;fill-opacity:1;fill-rule:nonzero;stroke:none"/><path d="M50 32h-2v16h2z" style="fill:#a3834a;fill-opacity:1;fill-rule:nonzero;stroke:none"/><path d="M54 44h-2v12h2z" style="fill:#bfbfbf;fill-opacity:1;fill-rule:nonzero;stroke:none"/><path d="M54 32h-2v16h2z" style="fill:#a3834a;fill-opacity:1;fill-rule:nonzero;stroke:none"/><path d="M58 44h-2v12h2z" style="fill:#bfbfbf;fill-opacity:1;fill-rule:nonzero;stroke:none"/><path d="M58 32h-2v16h2z" style="fill:#a3834a;fill-opacity:1;fill-rule:nonzero;stroke:none"/><path d="M62 44h-2v12h2z" style="fill:#bfbfbf;fill-opacity:1;fill-rule:nonzero;stroke:none"/><path d="M62 32h-2v16h2z" style="fill:#a3834a;fill-opacity:1;fill-rule:nonzero;stroke:none"/><path d="M66 44h-2v12h2z" style="fill:#bfbfbf;fill-opacity:1;fill-rule:nonzero;stroke:none"/><path d="M66 32h-2v16h2z" style="fill:#a3834a;fill-opacity:1;fill-rule:nonzero;stroke:none"/><path d="M70 44h-2v12h2z" style="fill:#bfbfbf;fill-opacity:1;fill-rule:nonzero;stroke:none"/><path d="M70 32h-2v16h2z" style="fill:#a3834a;fill-opacity:1;fill-rule:nonzero;stroke:none"/><path d="M74 44h-2v12h2z" style="fill:#bfbfbf;fill-opacity:1;fill-rule:nonzero;stroke:none"/><path d="M74 32h-2v16h2z" style="fill:#a3834a;fill-opacity:1;fill-rule:nonzero;stroke:none"/><path d="M78 44h-2v12h2z" style="fill:#bfbfbf;fill-opacity:1;fill-rule:nonzero;stroke:none"/><path d="M78 32h-2v16h2z" style="fill:#a3834a;fill-opacity:1;fill-rule:nonzero;stroke:none"/><path d="M82 44h-2v12h2z" style="fill:#bfbfbf;fill-opacity:1;fill-rule:nonzero;stroke:none"/><path d="M82 32h-2v16h2z" style="fill:#a3834a;fill-opacity:1;fill-rule:nonzero;stroke:none"/><path d="M86 44h-2v12h2z" style="fill:#bfbfbf;fill-opacity:1;fill-rule:nonzero;stroke:none"/><path d="M86 32h-2v16h2z" style="fill:#a3834a;fill-opacity:1;fill-rule:nonzero;stroke:none"/><path d="M90 44h-2v12h2z" style="fill:#bfbfbf;fill-opacity:1;fill-rule:nonzero;stroke:none"/><path d="M90 32h-2v16h2z" style="fill:#a3834a;fill-opacity:1;fill-rule:nonzero;stroke:none"/><path d="M94 44h-2v12h2z" style="fill:#bfbfbf;fill-opacity:1;fill-rule:nonzero;stroke:none"/><path d="M94 32h-2v16h2z" style="fill:#a3834a;fill-opacity:1;fill-rule:nonzero;stroke:none"/><path d="M98 44h-2v12h2z" style="fill:#bfbfbf;fill-opacity:1;fill-rule:nonzero;stroke:none"/><path d="M98 32h-2v16h2z" style="fill:#a3834a;fill-opacity:1;fill-rule:nonzero;stroke:none"/><path d="M102 44h-2v12h2z" style="fill:#bfbfbf;fill-opacity:1;fill-rule:nonzero;stroke:none"/><path d="M102 32h-2v16h2z" style="fill:#a3834a;fill-opacity:1;fill-rule:nonzero;stroke:none"/><path d="M106 44h-2v12h2z" style="fill:#bfbfbf;fill-opacity:1;fill-rule:nonzero;stroke:none"/><path d="M106 32h-2v16h2z" style="fill:#a3834a;fill-opacity:1;fill-rule:nonzero;stroke:none"/><path d="M110 44h-2v12h2z" style="fill:#bfbfbf;fill-opacity:1;fill-rule:nonzero;stroke:none"/><path d="M110 32h-2v16h2z" style="fill:#a3834a;fill-opacity:1;fill-rule:nonzero;stroke:none"/><path d="M114 44h-2v12h2z" style="fill:#bfbfbf;fill-opacity:1;fill-rule:nonzero;stroke:none"/><path d="M114 32h-2v16h2z" style="fill:#a3834a;fill-opacity:1;fill-rule:nonzero;stroke:none"/><path d="M118 44h-2v12h2z" style="fill:#bfbfbf;fill-opacity:1;fill-rule:nonzero;stroke:none"/><path d="M118 32h-2v16h2z" style="fill:#a3834a;fill-opacity:1;fill-rule:nonzero;stroke:none"/><path d="M122 44h-2v12h2z" style="fill:#bfbfbf;fill-opacity:1;fill-rule:nonzero;stroke:none"/><path d="M122 32h-2v16h2z" style="fill:#a3834a;fill-opacity:1;fill-rule:nonzero;stroke:none"/><path d="M126 44h-2v12h2z" style="fill:#bfbfbf;fill-opacity:1;fill-rule:nonzero;stroke:none"/><path d="M126 32h-2v16h2z" style="fill:#a3834a;fill-opacity:1;fill-rule:nonzero;stroke:none"/><path d="M130 44h-2v12h2z" style="fill:#bfbfbf;fill-opacity:1;fill-rule:nonzero;stroke:none"/><path d="M130 32h-2v16h2z" style="fill:#a3834a;fill-opacity:1;fill-rule:nonzero;stroke:none"/><path d="M134 44h-2v12h2z" style="fill:#bfbfbf;fill-opacity:1;fill-rule:nonzero;stroke:none"/><path d="M134 32h-2v16h2z" style="fill:#a3834a;fill-opacity:1;fill-rule:nonzero;stroke:none"/><path d="M138 44h-2v12h2z" style="fill:#bfbfbf;fill-opacity:1;fill-rule:nonzero;stroke:none"/><path d="M138 32h-2v16h2z" style="fill:#a3834a;fill-opacity:1;fill-rule:nonzero;stroke:none"/><path d="M142 44h-2v12h2z" style="fill:#bfbfbf;fill-opacity:1;fill-rule:nonzero;stroke:none"/><path d="M142 32h-2v16h2z" style="fill:#a3834a;fill-opacity:1;fill-rule:nonzero;stroke:none"/><path d="M146 44h-2v12h2z" style="fill:#bfbfbf;fill-opacity:1;fill-rule:nonzero;stroke:none"/><path d="M146 32h-2v16h2z" style="fill:#a3834a;fill-opacity:1;fill-rule:nonzero;stroke:none"/><path d="M150 44h-2v12h2z" style="fill:#bfbfbf;fill-opacity:1;fill-rule:nonzero;stroke:none"/><path d="M150 32h-2v16h2z" style="fill:#a3834a;fill-opacity:1;fill-rule:nonzero;stroke:none"/><path d="M154 44h-2v12h2z" style="fill:#bfbfbf;fill-opacity:1;fill-rule:nonzero;stroke:none"/><path d="M154 32h-2v16h2z" style="fill:#a3834a;fill-opacity:1;fill-rule:nonzero;stroke:none"/><path d="M158 44h-2v12h2z" style="fill:#bfbfbf;fill-opacity:1;fill-rule:nonzero;stroke:none"/><path d="M158 32h-2v16h2z" style="fill:#a3834a;fill-opacity:1;fill-rule:nonzero;stroke:none"/><path d="M162 44h-2v12h2z" style="fill:#bfbfbf;fill-opacity:1;fill-rule:nonzero;stroke:none"/><path d="M162 32h-2v16h2z" style="fill:#a3834a;fill-opacity:1;fill-rule:nonzero;stroke:none"/><path d="M166 44h-2v12h2z" style="fill:#bfbfbf;fill-opacity:1;fill-rule:nonzero;stroke:none"/><path d="M166 32h-2v16h2z" style="fill:#a3834a;fill-opacity:1;fill-rule:nonzero;stroke:none"/><path d="M170 44h-2v12h2z" style="fill:#bfbfbf;fill-opacity:1;fill-rule:nonzero;stroke:none"/><path d="M170 32h-2v16h2z" style="fill:#a3834a;fill-opacity:1;fill-rule:nonzero;stroke:none"/><path d="M174 44h-2v12h2z" style="fill:#bfbfbf;fill-opacity:1;fill-rule:nonzero;stroke:none"/><path d="M174 32h-2v16h2z" style="fill:#a3834a;fill-opacity:1;fill-rule:nonzero;stroke:none"/><path d="M178 44h-2v12h2z" style="fill:#bfbfbf;fill-opacity:1;fill-rule:nonzero;stroke:none"/><path d="M178 32h-2v16h2z" style="fill:#a3834a;fill-opacity:1;fill-rule:nonzero;stroke:none"/><path d="M182 44h-2v12h2z" style="fill:#bfbfbf;fill-opacity:1;fill-rule:nonzero;stroke:none"/><path d="M182 32h-2v16h2z" style="fill:#a3834a;fill-opacity:1;fill-rule:nonzero;stroke:none"/><path d="M186 44h-2v12h2z" style="fill:#bfbfbf;fill-opacity:1;fill-rule:nonzero;stroke:none"/><path d="M186 32h-2v16h2z" style="fill:#a3834a;fill-opacity:1;fill-rule:nonzero;stroke:none"/><path d="M190 44h-2v12h2z" style="fill:#bfbfbf;fill-opacity:1;fill-rule:nonzero;stroke:none"/><path d="M190 32h-2v16h2z" style="fill:#a3834a;fill-opacity:1;fill-rule:nonzero;stroke:none"/><path d="M194 44h-2v12h2z" style="fill:#bfbfbf;fill-opacity:1;fill-rule:nonzero;stroke:none"/><path d="M194 32h-2v16h2z" style="fill:#a3834a;fill-opacity:1;fill-rule:nonzero;stroke:none"/><path d="M198 44h-2v12h2z" style="fill:#bfbfbf;fill-opacity:1;fill-rule:nonzero;stroke:none"/><path d="M198 32h-2v16h2z" style="fill:#a3834a;fill-opacity:1;fill-rule:nonzero;stroke:none"/><path d="M202 44h-2v12h2z" style="fill:#bfbfbf;fill-opacity:1;fill-rule:nonzero;stroke:none"/><path d="M202 32h-2v16h2z" style="fill:#a3834a;fill-opacity:1;fill-rule:nonzero;stroke:none"/><path d="M206 44h-2v12h2z" style="fill:#bfbfbf;fill-opacity:1;fill-rule:nonzero;stroke:none"/><path d="M206 32h-2v16h2z" style="fill:#a3834a;fill-opacity:1;fill-rule:nonzero;stroke:none"/><path d="M210 44h-2v12h2z" style="fill:#bfbfbf;fill-opacity:1;fill-rule:nonzero;stroke:none"/><path d="M210 32h-2v16h2z" style="fill:#a3834a;fill-opacity:1;fill-rule:nonzero;stroke:none"/><path d="M212 92H44v116h168z" style="fill:#fff;fill-opacity:1;fill-rule:nonzero;stroke:none"/><path d="M0 0h-2a2 2 0 0 0-2 2v46h4Z" style="fill:#bfbfbf;fill-opacity:1;fill-rule:nonzero;stroke:none" transform="translate(40 16)"/><path d="M0 0h-2v48h4V2a2 2 0 0 0-2-2" style="fill:#bfbfbf;fill-opacity:1;fill-rule:nonzero;stroke:none" transform="translate(218 16)"/></g></svg>