<?xml version="1.0" encoding="UTF-8" standalone="no"?>
<svg
   xmlns:dc="http://purl.org/dc/elements/1.1/"
   xmlns:cc="http://creativecommons.org/ns#"
   xmlns:rdf="http://www.w3.org/1999/02/22-rdf-syntax-ns#"
   xmlns:svg="http://www.w3.org/2000/svg"
   xmlns="http://www.w3.org/2000/svg"
   viewBox="0 0 333.99411 288"
   height="288"
   width="333.99411"
   xml:space="preserve"
   id="svg2"
   version="1.1"><metadata
     id="metadata8"><rdf:RDF><cc:Work
         rdf:about=""><dc:format>image/svg+xml</dc:format><dc:type
           rdf:resource="http://purl.org/dc/dcmitype/StillImage" /></cc:Work></rdf:RDF></metadata><defs
     id="defs6"><clipPath
       id="clipPath18"
       clipPathUnits="userSpaceOnUse"><path
         id="path16"
         d="M 0,256 H 256 V 0 H 0 Z" /></clipPath><clipPath
       id="clipPath26"
       clipPathUnits="userSpaceOnUse"><path
         id="path24"
         d="M 2.7518,236 H 253.248 V 20 H 2.7518 Z" /></clipPath><clipPath
       id="clipPath46"
       clipPathUnits="userSpaceOnUse"><path
         id="path44"
         d="M 0,256 H 256 V 0 H 0 Z" /></clipPath></defs><g
     transform="matrix(1.3333333,0,0,-1.3333333,-3.6698666,314.66666)"
     id="g10"><g
       id="g12"><g
         clip-path="url(#clipPath18)"
         id="g14"><g
           id="g20"><g
             id="g22" /><g
             id="g34"><g
               style="opacity:0.5"
               id="g32"
               clip-path="url(#clipPath26)"><g
                 id="g30"
                 transform="translate(190.6084,236)"><path
                   id="path28"
                   style="fill:#ffffff;fill-opacity:1;fill-rule:nonzero;stroke:none"
                   d="m 0,0 h -4.608 -116 -4.609 l -2.312,-3.986 -58,-100 -2.327,-4.014 2.327,-4.014 58,-100 2.312,-3.986 h 4.609 116 H 0 l 2.312,3.986 58,100 2.328,4.014 -2.328,4.014 -58,100 z" /></g></g></g></g></g></g><g
       transform="translate(186,228)"
       id="g36"><path
         id="path38"
         style="fill:#000000;fill-opacity:1;fill-rule:nonzero;stroke:none"
         d="m 0,0 h -116 l -58,-100 58,-100 H 0 l 58,100 z" /></g><g
       id="g40"><g
         clip-path="url(#clipPath46)"
         id="g42"><g
           transform="translate(127.9956,80)"
           id="g48"><path
             id="path50"
             style="fill:#ffffff;fill-opacity:1;fill-rule:nonzero;stroke:none"
             d="m 0,0 c -2.021,-3.973 -4.777,-7.436 -7.995,-10.362 v -13.434 c -0.001,-0.077 -0.001,-0.152 0,-0.229 0.063,-4.467 3.695,-8.038 8.112,-7.974 4.419,0.062 7.949,3.735 7.886,8.203 v 13.408 C 4.78,-7.458 2.022,-3.985 0,0" /></g><g
           transform="translate(150.3184,143.7056)"
           id="g52"><path
             id="path54"
             style="fill:#16a085;fill-opacity:1;fill-rule:nonzero;stroke:none"
             d="m 0,0 c -6.308,-4.494 -14,-7.167 -22.318,-7.167 -8.32,0 -16.011,2.673 -22.319,7.167 -4.911,-5.474 -7.681,-12.596 -7.681,-20.017 0,-16.533 13.457,-29.983 30,-29.983 16.542,0 30,13.45 30,29.983 C 7.682,-12.593 4.91,-5.473 0,0" /></g><g
           transform="translate(149.4365,138.3711)"
           id="g56"><path
             id="path58"
             style="fill:#1abf9f;fill-opacity:1;fill-rule:nonzero;stroke:none"
             d="m 0,0 c 2.961,-4.31 4.563,-9.415 4.563,-14.683 0,-14.327 -11.664,-25.983 -26,-25.983 -14.336,0 -26,11.656 -26,25.983 0,5.268 1.603,10.373 4.564,14.683 6.513,-3.827 13.851,-5.833 21.436,-5.833 7.585,0 14.924,2.007 21.437,5.833" /></g><g
           transform="translate(90.2202,180)"
           id="g60"><path
             id="path62"
             style="fill:#354f9f;fill-opacity:1;fill-rule:nonzero;stroke:none"
             d="m 0,0 c -14.784,-2.022 -26.22,-14.687 -26.22,-30 0,-15.313 11.436,-27.978 26.22,-30 -0.136,1.321 -0.208,2.66 -0.208,4.017 0,9.646 3.603,18.904 9.988,26.018 -6.188,6.9 -9.988,15.979 -9.988,25.948 0,1.356 0.072,2.696 0.208,4.017" /></g><g
           transform="translate(86.0259,174.9336)"
           id="g64"><path
             id="path66"
             style="fill:#4b5da7;fill-opacity:1;fill-rule:nonzero;stroke:none"
             d="M 0,0 C 0.222,-9.014 3.302,-17.708 8.786,-24.898 3.301,-32.091 0.221,-40.809 0,-49.867 c -10.549,3.52 -18.026,13.511 -18.026,24.933 0,11.423 7.477,21.414 18.026,24.934" /></g><g
           transform="translate(165.7812,180)"
           id="g68"><path
             id="path70"
             style="fill:#7b0000;fill-opacity:1;fill-rule:nonzero;stroke:none"
             d="m 0,0 c 0.136,-1.321 0.207,-2.661 0.207,-4.017 0,-9.97 -3.8,-19.05 -9.988,-25.95 6.385,-7.112 9.988,-16.366 9.988,-26.016 0,-1.357 -0.071,-2.696 -0.207,-4.017 14.782,2.022 26.219,14.687 26.219,30 0,15.313 -11.437,27.978 -26.219,30" /></g><g
           transform="translate(169.9756,174.9336)"
           id="g72"><path
             id="path74"
             style="fill:#b80000;fill-opacity:1;fill-rule:nonzero;stroke:none"
             d="M 0,0 C 10.548,-3.52 18.024,-13.511 18.024,-24.934 18.024,-36.356 10.548,-46.347 0,-49.867 -0.222,-40.81 -3.302,-32.092 -8.787,-24.9 -3.303,-17.709 -0.223,-9.015 0,0" /></g><g
           transform="translate(91.2402,109.2129)"
           id="g76"><path
             id="path78"
             style="fill:#ffffff;fill-opacity:1;fill-rule:nonzero;stroke:none"
             d="M 0,0 C -7.331,0.386 -14.106,2.849 -19.742,6.787 -24.536,1.533 -27.24,-5.309 -27.24,-12.435 V -41.213 H 2.023 c 11.704,0 22.107,6.837 26.737,17.084 C 15.371,-21.737 4.431,-12.383 0,0" /></g><g
           transform="translate(128,205.2593)"
           id="g80"><path
             id="path82"
             style="fill:#d4a600;fill-opacity:1;fill-rule:nonzero;stroke:none"
             d="m 0,0 c -16.542,0 -30,-13.458 -30,-30 0,-16.542 13.458,-30 30,-30 16.542,0 30,13.458 30,30 C 30,-13.458 16.542,0 0,0" /></g><g
           transform="translate(128,201.2593)"
           id="g84"><path
             id="path86"
             style="fill:#eac500;fill-opacity:1;fill-rule:nonzero;stroke:none"
             d="m 0,0 c 14.336,0 26,-11.664 26,-26 0,-14.336 -11.664,-26 -26,-26 -14.336,0 -26,11.664 -26,26 0,14.336 11.664,26 26,26" /></g><g
           transform="translate(164.7646,109.2109)"
           id="g88"><path
             id="path90"
             style="fill:#ffffff;fill-opacity:1;fill-rule:nonzero;stroke:none"
             d="m 0,0 c -4.431,-12.385 -15.373,-21.742 -28.765,-24.13 4.619,-10.257 15.004,-17.081 26.744,-17.081 h 29.256 v 28.777 c 0,7.121 -2.702,13.969 -7.493,19.223 C 14.107,2.85 7.331,0.386 0,0" /></g></g></g></g></svg>