<svg xmlns="http://www.w3.org/2000/svg" xml:space="preserve" viewBox="0 0 256 256"><path d="M185.861 28H72.87l-2.338 3.84-56 92L12 128l2.532 4.16 56 92L72.87 228h112.992l2.338-3.84 56-92 2.532-4.16-2.532-4.16-56-92z" style="opacity:.5;fill:#fff"/><path d="M180 36H76l-56 92 56 92h104l56-92z" style="fill:#737373"/><path d="M150.857 80c-1.578 0-2.857 1.194-2.857 2.667v10.667c0 1.473 1.279 2.667 2.857 2.667H168V82.667c0-1.473-1.279-2.667-2.857-2.667zm24.028 0c11.634 0 20.708 5.491 28.291 14.348 1.791 2.092.466 5.652-2.081 5.652H172V83.333c0-1.841 1.292-3.333 2.885-3.333m-93.77 0c-11.634 0-20.708 5.491-28.291 14.348-1.791 2.092-.466 5.652 2.081 5.652H84V83.333C84 81.492 82.708 80 81.115 80m24.028 0H90.857C89.279 80 88 81.194 88 82.667V96h17.143c1.578 0 2.857-1.194 2.857-2.667V82.667c0-1.473-1.279-2.667-2.857-2.667" style="fill:#ccc"/><path d="M172 84H84c-24.301 0-44 19.699-44 44v13.655C40 158.414 53.586 172 70.345 172h39.235a6.07 6.07 0 0 0 5.05-2.703l2.466-3.698a6.07 6.07 0 0 1 5.05-2.702h11.711a6.07 6.07 0 0 1 5.05 2.702l2.24 3.361a6.83 6.83 0 0 0 5.681 3.04h38.829C202.414 172 216 158.414 216 141.655V128c0-24.301-19.699-44-44-44" style="fill:#e6e6e6"/><path d="M96 108H84V96H68v12H56v16h12v12h16v-12h12z" style="fill:#333"/><circle cx="104" cy="152" r="12" style="fill:#262626"/><circle cx="152" cy="152" r="12" style="fill:#262626"/><circle cx="168" cy="116" r="8" style="fill:#4b5da7"/><circle cx="180" cy="104" r="8" style="fill:#ffcb05"/><circle cx="180" cy="128" r="8" style="fill:#1abf9f"/><circle cx="192" cy="116" r="8" style="fill:#b80000"/><path d="M119.8 128h-11.6a.2.2 0 0 1-.2-.2v-3.6c0-.11.09-.2.2-.2h11.6c.11 0 .2.09.2.2v3.6a.2.2 0 0 1-.2.2m28 0h-11.6a.2.2 0 0 1-.2-.2v-3.6c0-.11.09-.2.2-.2h11.6c.11 0 .2.09.2.2v3.6a.2.2 0 0 1-.2.2" style="fill:#333"/><circle cx="104" cy="152" r="8" style="fill:#333"/><circle cx="152" cy="152" r="8" style="fill:#333"/><circle cx="76" cy="116" r="4" style="fill:#404040"/><path d="m80 128-4 4-4-4zm-8-24 4-4 4 4zm-8 16-4-4 4-4zm24-8 4 4-4 4z" style="fill:#404040"/></svg>