<svg xmlns="http://www.w3.org/2000/svg" xml:space="preserve" width="312.974" height="266.667"><defs><clipPath id="a" clipPathUnits="userSpaceOnUse"><path d="M0 256h256V0H0Z"/></clipPath><clipPath id="b" clipPathUnits="userSpaceOnUse"><path d="M10.635 228h234.73V28H10.635Z"/></clipPath><clipPath id="c" clipPathUnits="userSpaceOnUse"><path d="M0 256h256V0H0Z"/></clipPath></defs><g clip-path="url(#a)" transform="matrix(1.33333 0 0 -1.33333 -14.18 304)"><g clip-path="url(#b)" style="opacity:.5"><path d="M0 0h-112.992l-2.338-3.84-56-92-2.532-4.16 2.532-4.159 56-92 2.338-3.841H0l2.338 3.841 56 92L60.869-100l-2.531 4.16-56 92z" style="fill:#fff;fill-opacity:1;fill-rule:nonzero;stroke:none" transform="translate(184.496 228)"/></g></g><path d="M0 0h-104l-56-92 56-92H0l56 92z" style="fill:#737373;fill-opacity:1;fill-rule:nonzero;stroke:none" transform="matrix(1.33333 0 0 -1.33333 225.82 10.667)"/><g clip-path="url(#c)" transform="matrix(1.33333 0 0 -1.33333 -14.18 304)"><path d="m0 0-3.199-4.264-36-47.982-4.8-6.397 7.998-.003 20.014-.011v-38.008c0-5.513 4.486-10 10-10H6c5.514 0 10 4.487 10 10v38.008l20.014.011 7.999.003-4.802 6.397L3.2-4.264Z" style="fill:#354f9f;fill-opacity:1;fill-rule:nonzero;stroke:none" transform="translate(128 194.665)"/><path d="M0 0h.012v-42.006c0-3.318 2.682-6 6-6H18c3.318 0 6 2.682 6 6V0h.012l24 .012L12 47.994-24 .012Z" style="fill:#fff;fill-opacity:1;fill-rule:nonzero;stroke:none" transform="translate(116 140.006)"/><path d="M0 0h-52c-3.3 0-6 2.7-6 6s2.7 6 6 6H0c3.3 0 6-2.7 6-6S3.3 0 0 0" style="fill:#b3b3b3;fill-opacity:1;fill-rule:nonzero;stroke:none" transform="translate(170 68)"/><path d="M0 0h-54c-3.3 0-6 2.7-6 6s2.7 6 6 6H0c3.3 0 6-2.7 6-6S3.3 0 0 0" style="fill:#4c4c4c;fill-opacity:1;fill-rule:nonzero;stroke:none" transform="translate(140 68)"/></g></svg>