<svg xmlns="http://www.w3.org/2000/svg" xml:space="preserve" viewBox="0 0 256 256"><path d="m221.651 79.854 1.715-4.778.617-1.72-.191-1.818-.744-7.09-.051-6.885.321-7.276.038-.861-.146-.849-1.202-6.979-.248-5.677 1.785-6.234.899-3.138-1.553-2.871-3.501-6.472-.324-.6-.421-.536-4.372-5.565-1.675-2.132-2.627-.674-7.098-1.822-9.273-2.38-.067.916-.573-.115-1.772.458-7.326 1.891-5.623.935-6.002-1.591-1.981-.525-1.99.492-6.37 1.576-6.337-.564-.229-.02-.229-.007-7.668-.241-.312-.01-.311.014-7.503.349-7.152.036-7.32-.608-.341-.028-.342.001-7.319.02-7.323-.616-.451-.038-.452.013-7.259.211-7.26-.533-.402-.03-.403.011-7.005.192-7.015-.976-2.114-.295-1.98.797-6.199 2.497-5.758-.052-7.347-.674-.984-.09-.976.152-6.796 1.057-3.239.503-1.954 2.631-4.01 5.399-.809 1.089-.405 1.295-1.9 6.08-.404 1.291.043 1.352.228 7.113-.417 7.112-.032.548.043.547.527 6.71-.763 6.711-.067.592.021.595.246 6.944-.682 6.946-.015.153-.009.153-.446 7.477-.036.608.056.607.57 6.142-1.509 6.175-.59 2.414.882 2.324 1.996 5.26-1.122 5.154-.169.775-.013.793-.125 7.477-.016.977.219.951 1.266 5.5-1.531 5.522-.647 2.334.756 2.301 1.569 4.773-1.852 4.822-.457 1.188-.065 1.271-.383 7.48-.058 1.129.257 1.101 1.412 6.044-.825 6.019-.367 2.68 1.335 2.353 3.522 6.209.066.116.07.114 3.74 6.108 1.835 2.996 3.448.677 7.294 1.431 1.041.204 1.058-.074 6.498-.455 6.524 1.463 1.341.301 1.365-.164 7.668-.923.048-.006.048-.006L81 191.27c-.924 3.683-1.584 7.571-1.733 11.663-6.089.919-11.506 3.609-16.232 6.16-6.153 3.322-10.35 9.162-12.476 17.357-1.816 7.002 1.828 15.11 8.861 19.716 6.419 4.204 13.613 6.336 21.381 6.336 2.602 0 5.285-.246 7.975-.73 4.749-.855 10.932-2.209 16.636-5.113 8.623-4.389 12.671-9.274 13.399-16.843a10.3 10.3 0 0 0 1.739-1.146c2.206-1.8 3.569-4.411 3.778-7.194a10.27 10.27 0 0 0-2.625-7.628c-.679-.749-1.381-1.522-1.67-2.01a89 89 0 0 0-1.253-2.031c-.828-1.315-2.079-3.302-2.195-4.128-.61-4.348-.082-9.053 1.614-14.315l6.488-.616 4.974-.207.152.537c1.078 3.819 2.096 7.426 2.663 10.974.728 4.552 1.552 9.712 1.018 13.984-.123.988-.202 1.93-.236 2.84l-2.202 4.265c-3.176 5.055-3.854 10.783-1.803 15.409 1.821 4.109 5.553 6.881 10.239 7.606 3.723.576 8.636 1.238 13.619 1.238 2.561 0 4.91-.166 7.181-.508 9.842-1.48 19.642-5.532 28.339-11.719 4.351-3.095 7.174-7.667 9.479-11.709 2.095-3.676.905-7.273.201-9.08.286-2.688-.529-4.697-1.373-6.001-1.228-1.899-2.844-2.906-4.26-3.453-1.787-2.443-4.274-4.546-7.014-5.848-7.573-3.598-15.285-4.014-20.428-4.014l-.306.001c-.281-1.214-.569-2.44-.872-3.675l6.052.033 7.652.062.76.006.748-.137 6.726-1.234 6.717.388.772.045.766-.104 7.105-.965 6.51.059 2.833.026 2.218-1.763 5.875-4.671 2.253-1.791.596-2.815 1.544-7.299.408-1.928-.534-1.897-1.765-6.266.231-6.219.019-.513-.047-.511-.62-6.789.522-6.433 1.221-7.127.232-1.354-.233-1.353-1.22-7.094-.4-5.471 2.016-5.941.66-1.944-.358-2.022-1.122-6.337.714-6.328.865-7.449.216-1.859-.631-1.762z" style="opacity:.5;fill:#fff"/><path d="M138.14 226.643c-3.219 4.884-2.413 10.31 2.723 11.104 6.04.935 12.42 1.622 18.387.725 9.008-1.355 17.493-5.064 24.892-10.327 3.069-2.183 5.26-5.809 7.166-9.152.673-1.181-1.439-3.693-.969-5.209.974-3.144-2.328-1.295-2.996-2.936-.828-2.034-2.903-4.07-4.964-5.05-7.296-3.466-15.156-3.5-23.604-3.022-1.234-5.088-2.361-10.742-4.038-16.237a28 28 0 0 0-1.599-4.055l1.823-.194 7.669.585 7.671.042 7.673.062 7.671-1.407 7.676.443 7.676-1.042 7.087.064 5.875-4.671 1.544-7.299-2.106-7.475.277-7.475-.683-7.477.607-7.475 1.281-7.477-1.286-7.478-.547-7.477 2.538-7.477-1.324-7.478.844-7.479.868-7.474-2.678-7.477 2.684-7.477-.785-7.478-.055-7.479.33-7.482-1.289-7.48-.327-7.485L216 26.983l-3.501-6.472-4.372-5.565-7.098-1.822-.03.408L193.333 12l-7.666 1.979-7.668 1.276-7.666-2.032-7.668 1.897-7.669-.682-7.668-.241-7.668.357-7.669.039-7.67-.637-7.665.021-7.669-.645-7.669.223-7.669-.563-7.671.211-7.673-1.071-7.671 3.089-7.676-.069-7.676-.704-6.796 1.057-4.01 5.399-1.9 6.08.24 7.475-.438 7.475.588 7.477-.85 7.475.265 7.477-.735 7.478-.446 7.477.694 7.477-1.828 7.478 2.838 7.479-1.627 7.474-.125 7.477 1.722 7.477-2.073 7.478 2.458 7.48-2.874 7.482-.385 7.479 1.749 7.485-1.026 7.485 3.522 6.209 3.74 6.108 7.294 1.431 7.666-.537 7.667 1.72 7.668-.923 7.666-1.016 6.37.111c-3.488 9.336-6.099 18.402-4.398 28.388-7.449-1.662-14.229 1.449-20.936 5.07-5.03 2.715-7.344 7.744-8.532 12.326-.974 3.755 1.543 8.424 5.5 11.016 7.173 4.699 15.236 5.923 23.555 4.425 4.932-.888 10.022-2.128 14.425-4.369 8.088-4.117 9.766-7.448 8.993-15.324-.086-.877.004-1.771-.013-2.655l.867-.263.454.683c.752 1.132 2.348 1.367 3.408.502l.037-.031a2.214 2.214 0 0 0 .248-3.218c-1.008-1.111-1.937-2.142-2.628-3.308-1.736-2.931-4.038-5.934-4.486-9.124-1.001-7.128.428-14.211 3.006-20.954.444-1.16.558-2.083.384-2.835l4.42.49 7.669-.728 7.67-.32 3.735.591c.407.829.795 1.654 1.03 2.517 1.376 5.054 2.976 10.089 3.799 15.237.857 5.359 1.719 10.937 1.057 16.238-.168 1.348-.232 2.596-.172 3.787"/><path d="M199.111 20H56.889C51.98 20 48 23.887 48 28.681v138.901c0 4.795 3.98 8.681 8.889 8.681h4.222L60 169.027l.545-7.236.334-7.231.292-4.494 4.605.139 7.334 1.012 7.334-1.23 7.329 1.52 7.323-.67 7.327-1.642 7.325.872 7.325-.431 7.325 1.294 7.322.111 7.327-1.833 7.325 1.615 7.325.459 7.324-1.336 7.326 1.058 7.324-.947 7.322-.579 7.324.79 4.448-.509-.789.462.957 4.341 1.068 7.236-.473 7.236.387 7.231h3.197c4.909 0 8.889-3.887 8.889-8.681V28.681C208 23.887 204.02 20 199.111 20" style="fill:gray"/><path d="m182.916 36.913-4.23-.343-7.25-.399-7.249 1.687-7.249-1.404-7.25.942-7.251-.064-7.246-.194-7.249-.578-7.25.983-7.249.332-7.251.081-7.254-1.446-7.252-.51-7.256 1.849-7.257-1.506-.332.72-2.922 4.058-1.297.34 1.27 6.934L72 55.325l.632 6.932.672 6.933-1.252 6.933 1.088 6.934-.788 6.931.687 6.936-.893 6.942.198 6.941.747.341 3.75 2.922.332 1.836 7.25-1.171L91.672 116l7.249-1.522 7.25.676 7.251.017 7.246.809 7.25-.646 7.249.165 7.249.451 7.252-1.315 7.253 1.293 7.252-.46 7.256-.909 7.257 1.346.332-.016 3.77-4.741-.016-.341.117-6.934-.175-6.929.207-6.933L184 83.079l-.024-6.933-1.718-6.935 1.627-6.93-1.507-6.937.063-6.941.602-6.942-.857-4.334z"/><path d="M80 42h96v68H80z" style="fill:#fdb913"/><path d="M66 156h124v20H66z" style="fill:#169da4"/><path d="M107.678 74.458c-.295-6.201-3.942-10.658-8.553-10.452-6.055.271-11.659 6.05-11.084 11.428.388 3.631 6.938 8.889 10.871 8.549 4.77-.41 10.518-3.917 8.766-9.525m44.314-4.819c-.24-5.593-3.013-9.627-6.629-9.639-4.634-.016-9.526 5.015-9.359 9.625.121 3.335 4.101 6.555 7.871 6.367 5.749-.285 8.291-2.275 8.117-6.353"/><path d="M74 176h-4v-14a2 2 0 1 1 4 0zm8 0h-4v-14a2 2 0 1 1 4 0zm8 0h-4v-14a2 2 0 1 1 4 0zm8 0h-4v-14a2 2 0 1 1 4 0zm8 0h-4v-14a2 2 0 1 1 4 0zm8 0h-4v-14a2 2 0 1 1 4 0zm8 0h-4v-14a2 2 0 1 1 4 0zm8 0h-4v-14a2 2 0 1 1 4 0zm8 0h-4v-14a2 2 0 1 1 4 0zm8 0h-4v-14a2 2 0 1 1 4 0zm8 0h-4v-14a2 2 0 1 1 4 0zm8 0h-4v-14a2 2 0 1 1 4 0zm8 0h-4v-14a2 2 0 1 1 4 0zm8 0h-4v-14a2 2 0 1 1 4 0zm8 0h-4v-14a2 2 0 1 1 4 0zm-95.365 60.094c-6.398.138-12.832-.465-19.215-1.092-1.758-.173-3.753-1.265-5.001-2.553-2.048-2.115-3.561-4.138-1.276-7.819 2.04-3.285 4.98-3.971 7.719-5.551 3.907-2.253 7.804-4.367 12.243-1.151.452.327 1.14.329 1.906.532l.006-.043c.257-1.828 2.559-2.486 3.747-1.074l4.868 5.787c2.348-1.458 4.316-2.745 1.771-6.026-.8-1.032-1.486-2.177-2.107-3.362l3.773 1.509c.273.422.625.856 1.066 1.303 1.022 1.037 2.035 2.315 2.459 3.67 2.356 7.533-3.584 15.689-11.959 15.87" style="fill:#fdb913"/><path d="M101.239 209.448q-.316.194-.592.39c-1.759-.613-3.998-.973-6.844-.901-.105-.294-.224-.588-.322-.881-.695-2.089-.706-4.571-.409-6.795.84-6.285 1.937-12.538 3.065-18.779.138-.763.376-1.504.632-2.212l2.235.141 5.823-.411c-6.45 8.379-8.964 20.995-3.588 29.448M147.526 180c.097.675.193 1.349.274 2.015 1.356 11.109 2.794 22.199 4.2 33.297l-2.042.688c-.833-3.74-1.571-7.527-2.517-11.211-2.126-8.276-3.824-16.87-6.556-24.732z" style="fill:#404040"/><path d="M153.068 220.814c1.742-.403 4.212-1.961 4.545-3.412 1.514-6.596 1.551-7.17 7.655-8.087 5.925-.89 11.688-.445 16.661 3.617 2.575 2.103 3.381 5.027 1.448 7.568-1.206 1.585-2.614 3.272-4.322 4.175-7.463 3.948-15.056 7.718-23.778 7.846-3.068.045-6.388.418-9.14-.593-.643-.236-1.241-.595-1.81-1.027a1.97 1.97 0 0 1-.74-1.928 11.5 11.5 0 0 1 1.07-3.162z" style="fill:#fdb913"/></svg>