<svg xmlns="http://www.w3.org/2000/svg" xml:space="preserve" viewBox="0 0 256 256"><path d="m248.536 174.343-1.434-1.447 3.74-60.397.016-.249V32H5.142v80.25l.016.249 3.74 60.397-1.434 1.447L4 177.839l1.549 4.691 7.926 24 .592 1.791 1.323 1.336 3.963 4L21.675 216h212.65l2.322-2.343 3.963-4 1.323-1.336.592-1.791 7.926-24 1.549-4.691z" style="opacity:.5;fill:#fff"/><path d="M12 40v72l4 64h224l4-64V40z" style="fill:#d9d4bc"/><path d="M50 154v-10h-4v-10H36v10h4v20h14v-10zm114-20h-14v20h-12v10h22v-20h4z" style="fill:#d35400"/><path d="M150 134h10v-10H40v10h6v10h4v10h4v10h10v4h68v-4h6v-10h12" style="fill:#a6a390"/><path d="M222 124h8v40h-8z" style="fill:#d35400"/><path d="M192 124h30v40h-30z" style="fill:#a6a390"/><path d="M168 124h18v40h-18z" style="fill:#d35400"/><path d="M234 48a2 2 0 0 1 2 2v48a2 2 0 0 1-2 2H62a2 2 0 0 1-2-2V50a2 2 0 0 1 2-2zm0-2H62c-2.206 0-4 1.794-4 4v48c0 2.206 1.794 4 4 4h172c2.206 0 4-1.794 4-4V50c0-2.206-1.794-4-4-4" style="fill:#c4c0aa"/><path d="M96 56h132v40H96z" style="fill:#1a1a1a"/><path d="M244 180H12l4-4h224z" style="fill:#c4c0aa"/><path d="M236 204H20l-8-24h232z" style="fill:#d9d4bc"/><path d="M232 208H24l-4-4h216zM40 124h8v8h-8zm6 10h8v8h-8zm10 0h8v8h-8zm10 0h8v8h-8zm10 0h8v8h-8zm10 0h8v8h-8zm10 0h8v8h-8zm10 0h8v8h-8zm10 0h8v8h-8zm10 0h8v8h-8zm10 0h8v8h-8zm10 0h4v8h-4zm-96-10h8v8h-8zm10 0h8v8h-8zm10 0h8v8h-8zm10 0h8v8h-8zm10 0h8v8h-8zm10 0h8v8h-8zm10 0h8v8h-8zm10 0h8v8h-8zm10 0h8v8h-8zm10 0h8v8h-8zm10 0h8v8h-8z" style="fill:#c4c0aa"/><path d="M168 124h8v8h-8zm10 0h8v8h-8zm-10 10h8v8h-8zm10 0h8v8h-8zm-10 10h8v8h-8zm10 0h8v8h-8zm-10 10h8v8h-8zm10 0h8v8h-8z" style="fill:#e77f22"/><path d="M192 124h8v8h-8zm0 10h8v8h-8zm0 10h8v8h-8zm0 10h8v8h-8zm10-30h8v8h-8zm0 10h8v8h-8zm0 10h8v8h-8zm0 10h8v8h-8zm10-30h8v8h-8zm0 10h8v8h-8zm0 10h8v8h-8zm0 10h8v8h-8z" style="fill:#c4c0aa"/><path d="M222 124h8v8h-8zm0 10h8v8h-8zm0 10h8v8h-8zm0 10h8v8h-8zM36 134h8v8h-8zm116 0h12v8h-12zM40 144h8v8h-8z" style="fill:#e77f22"/><path d="M50 144h8v8h-8zm10 0h8v8h-8zm10 0h8v8h-8zm10 0h8v8h-8zm10 0h8v8h-8zm10 0h8v8h-8zm10 0h8v8h-8zm10 0h8v8h-8zm10 0h8v8h-8zm10 0h10v8h-10z" style="fill:#c4c0aa"/><path d="M152 144h8v8h-8zM40 154h12v8H40z" style="fill:#e77f22"/><path d="M54 154h8v8h-8zm10 0h8v8h-8zm10 0h8v8h-8zm10 0h8v8h-8zm10 0h8v8h-8zm10 0h8v8h-8zm10 0h8v8h-8zm10 0h8v8h-8zm10 0h4v8h-4z" style="fill:#c4c0aa"/><path d="M140 154h12v8h-12zm16 0h4v8h-4z" style="fill:#e77f22"/><path d="M64 164h68v8H64z" style="fill:#c4c0aa"/></svg>