<?xml version="1.0" encoding="UTF-8" standalone="no"?>
<svg
   xmlns:dc="http://purl.org/dc/elements/1.1/"
   xmlns:cc="http://creativecommons.org/ns#"
   xmlns:rdf="http://www.w3.org/1999/02/22-rdf-syntax-ns#"
   xmlns:svg="http://www.w3.org/2000/svg"
   xmlns="http://www.w3.org/2000/svg"
   viewBox="0 0 330.92538 192.00746"
   height="192.00746"
   width="330.92538"
   xml:space="preserve"
   id="svg2"
   version="1.1"><metadata
     id="metadata8"><rdf:RDF><cc:Work
         rdf:about=""><dc:format>image/svg+xml</dc:format><dc:type
           rdf:resource="http://purl.org/dc/dcmitype/StillImage" /></cc:Work></rdf:RDF></metadata><defs
     id="defs6"><clipPath
       id="clipPath18"
       clipPathUnits="userSpaceOnUse"><path
         id="path16"
         d="M 0,256 H 256 V 0 H 0 Z" /></clipPath><clipPath
       id="clipPath26"
       clipPathUnits="userSpaceOnUse"><path
         id="path24"
         d="M 3.90295,200.003 H 252.097 V 55.9972 H 3.90295 Z" /></clipPath></defs><g
     transform="matrix(1.3333333,0,0,-1.3333333,-5.2039332,266.67039)"
     id="g10"><g
       id="g12"><g
         clip-path="url(#clipPath18)"
         id="g14"><g
           id="g20"><g
             id="g22" /><g
             id="g34"><g
               style="opacity:0.5"
               id="g32"
               clip-path="url(#clipPath26)"><g
                 id="g30"
                 transform="translate(251.9189,80.7988)"><path
                   id="path28"
                   style="fill:#ffffff;fill-opacity:1;fill-rule:nonzero;stroke:none"
                   d="m 0,0 -0.005,0.049 -0.006,0.048 -10.956,97.564 c -1.012,9.85 -9.225,17.558 -19.126,17.939 l -73.574,2.83 c -1.343,0.51 -2.771,0.774 -4.23,0.774 h -32.126 c -1.46,0 -2.889,-0.264 -4.231,-0.774 l -73.574,-2.83 c -9.901,-0.381 -18.113,-8.089 -19.127,-17.939 L -247.911,0.097 -247.916,0.049 -247.921,0 c -0.51,-5.104 1.044,-10.015 4.377,-13.827 3.686,-4.218 9.266,-6.756 15.308,-6.964 l 103.968,-3.999 0.302,-0.012 0.301,0.012 108.001,4 c 6.224,0.214 9.873,2.936 11.835,5.18 C -0.574,-11.887 0.678,-6.781 0,0" /></g></g></g></g><g
           transform="translate(244,80)"
           id="g36"><path
             id="path38"
             style="fill:#4c4c4c;fill-opacity:1;fill-rule:nonzero;stroke:none"
             d="m 0,0 -10.961,97.604 c -0.596,5.96 -5.494,10.567 -11.478,10.797 L -116,112 l -93.561,-3.599 c -5.984,-0.23 -10.882,-4.837 -11.479,-10.797 L -232,0 c -0.69,-6.9 5.069,-11.761 12,-12 l 104,-4 108,4 c 6.931,0.239 8.69,5.1 8,12" /></g><g
           transform="translate(77.9194,98.2881)"
           id="g40"><path
             id="path42"
             style="fill:#404040;fill-opacity:1;fill-rule:nonzero;stroke:none"
             d="m 0,0 -35.539,39.093 c -1.516,1.668 -3.666,2.619 -5.919,2.619 h -8.719 c -2.106,0 -3.851,-1.633 -3.991,-3.734 l -3.04,-45.601 c -0.385,-5.772 4.193,-10.665 9.978,-10.665 h 41.311 c 4.418,0 8,3.582 8,8 v 4.907 C 2.081,-3.391 1.339,-1.472 0,0" /></g><g
           transform="translate(40,126)"
           id="g44"><path
             id="path46"
             style="fill:#262626;fill-opacity:1;fill-rule:nonzero;stroke:none"
             d="m 0,0 c 0,-3.313 -2.687,-6 -6,-6 -3.313,0 -6,2.687 -6,6 0,3.313 2.687,6 6,6 3.313,0 6,-2.687 6,-6" /></g><g
           transform="translate(28,136)"
           id="g48"><path
             id="path50"
             style="fill:#333333;fill-opacity:1;fill-rule:nonzero;stroke:none"
             d="m 0,0 c -2.209,0 -4,-1.791 -4,-4 0,-2.209 7.791,-10 10,-10 2.209,0 4,1.791 4,4 C 10,-7.791 2.209,0 0,0" /></g><g
           transform="translate(32,132)"
           id="g52"><path
             id="path54"
             style="fill:#262626;fill-opacity:1;fill-rule:nonzero;stroke:none"
             d="m 0,0 c 0,-2.209 -1.791,-4 -4,-4 -2.209,0 -4,1.791 -4,4 0,2.209 1.791,4 4,4 2.209,0 4,-1.791 4,-4" /></g><g
           transform="translate(30,132)"
           id="g56"><path
             id="path58"
             style="fill:#4b5da7;fill-opacity:1;fill-rule:nonzero;stroke:none"
             d="m 0,0 c 0,-1.104 -0.896,-2 -2,-2 -1.104,0 -2,0.896 -2,2 0,1.104 0.896,2 2,2 1.104,0 2,-0.896 2,-2" /></g><g
           transform="translate(56,110)"
           id="g60"><path
             id="path62"
             style="fill:#262626;fill-opacity:1;fill-rule:nonzero;stroke:none"
             d="m 0,0 c 0,-3.313 -2.687,-6 -6,-6 -3.313,0 -6,2.687 -6,6 0,3.313 2.687,6 6,6 3.313,0 6,-2.687 6,-6" /></g><g
           transform="translate(44,120)"
           id="g64"><path
             id="path66"
             style="fill:#333333;fill-opacity:1;fill-rule:nonzero;stroke:none"
             d="m 0,0 c -2.209,0 -4,-1.791 -4,-4 0,-2.209 7.791,-10 10,-10 2.209,0 4,1.791 4,4 C 10,-7.791 2.209,0 0,0" /></g><g
           transform="translate(48,116)"
           id="g68"><path
             id="path70"
             style="fill:#262626;fill-opacity:1;fill-rule:nonzero;stroke:none"
             d="m 0,0 c 0,-2.209 -1.791,-4 -4,-4 -2.209,0 -4,1.791 -4,4 0,2.209 1.791,4 4,4 2.209,0 4,-1.791 4,-4" /></g><g
           transform="translate(46,116)"
           id="g72"><path
             id="path74"
             style="fill:#4b5da7;fill-opacity:1;fill-rule:nonzero;stroke:none"
             d="m 0,0 c 0,-1.104 -0.896,-2 -2,-2 -1.104,0 -2,0.896 -2,2 0,1.104 0.896,2 2,2 1.104,0 2,-0.896 2,-2" /></g><g
           transform="translate(72,94)"
           id="g76"><path
             id="path78"
             style="fill:#262626;fill-opacity:1;fill-rule:nonzero;stroke:none"
             d="m 0,0 c 0,-3.313 -2.687,-6 -6,-6 -3.313,0 -6,2.687 -6,6 0,3.313 2.687,6 6,6 3.313,0 6,-2.687 6,-6" /></g><g
           transform="translate(60,104)"
           id="g80"><path
             id="path82"
             style="fill:#333333;fill-opacity:1;fill-rule:nonzero;stroke:none"
             d="m 0,0 c -2.209,0 -4,-1.791 -4,-4 0,-2.209 7.791,-10 10,-10 2.209,0 4,1.791 4,4 C 10,-7.791 2.209,0 0,0" /></g><g
           transform="translate(64,100)"
           id="g84"><path
             id="path86"
             style="fill:#262626;fill-opacity:1;fill-rule:nonzero;stroke:none"
             d="m 0,0 c 0,-2.209 -1.791,-4 -4,-4 -2.209,0 -4,1.791 -4,4 0,2.209 1.791,4 4,4 2.209,0 4,-1.791 4,-4" /></g><g
           transform="translate(62,100)"
           id="g88"><path
             id="path90"
             style="fill:#4b5da7;fill-opacity:1;fill-rule:nonzero;stroke:none"
             d="m 0,0 c 0,-1.104 -0.896,-2 -2,-2 -1.104,0 -2,0.896 -2,2 0,1.104 0.896,2 2,2 1.104,0 2,-0.896 2,-2" /></g><g
           transform="translate(178.0801,98.2881)"
           id="g92"><path
             id="path94"
             style="fill:#404040;fill-opacity:1;fill-rule:nonzero;stroke:none"
             d="m 0,0 35.539,39.093 c 1.517,1.668 3.666,2.619 5.92,2.619 h 8.719 c 2.105,0 3.85,-1.633 3.991,-3.734 l 3.04,-45.601 c 0.385,-5.772 -4.193,-10.665 -9.978,-10.665 H 5.92 c -4.418,0 -8,3.582 -8,8 v 4.907 c 0,1.99 0.742,3.909 2.08,5.381" /></g><g
           transform="translate(216,126)"
           id="g96"><path
             id="path98"
             style="fill:#262626;fill-opacity:1;fill-rule:nonzero;stroke:none"
             d="m 0,0 c 0,-3.313 2.687,-6 6,-6 3.313,0 6,2.687 6,6 C 12,3.313 9.313,6 6,6 2.687,6 0,3.313 0,0" /></g><g
           transform="translate(228,136)"
           id="g100"><path
             id="path102"
             style="fill:#333333;fill-opacity:1;fill-rule:nonzero;stroke:none"
             d="m 0,0 c 2.209,0 4,-1.791 4,-4 0,-2.209 -7.791,-10 -10,-10 -2.209,0 -4,1.791 -4,4 0,2.209 7.791,10 10,10" /></g><g
           transform="translate(224,132)"
           id="g104"><path
             id="path106"
             style="fill:#262626;fill-opacity:1;fill-rule:nonzero;stroke:none"
             d="M 0,0 C 0,-2.209 1.791,-4 4,-4 6.209,-4 8,-2.209 8,0 8,2.209 6.209,4 4,4 1.791,4 0,2.209 0,0" /></g><g
           transform="translate(226,132)"
           id="g108"><path
             id="path110"
             style="fill:#eac500;fill-opacity:1;fill-rule:nonzero;stroke:none"
             d="M 0,0 C 0,-1.104 0.896,-2 2,-2 3.104,-2 4,-1.104 4,0 4,1.104 3.104,2 2,2 0.896,2 0,1.104 0,0" /></g><g
           transform="translate(200,110)"
           id="g112"><path
             id="path114"
             style="fill:#262626;fill-opacity:1;fill-rule:nonzero;stroke:none"
             d="m 0,0 c 0,-3.313 2.687,-6 6,-6 3.313,0 6,2.687 6,6 C 12,3.313 9.313,6 6,6 2.687,6 0,3.313 0,0" /></g><g
           transform="translate(212,120)"
           id="g116"><path
             id="path118"
             style="fill:#333333;fill-opacity:1;fill-rule:nonzero;stroke:none"
             d="m 0,0 c 2.209,0 4,-1.791 4,-4 0,-2.209 -7.791,-10 -10,-10 -2.209,0 -4,1.791 -4,4 0,2.209 7.791,10 10,10" /></g><g
           transform="translate(208,116)"
           id="g120"><path
             id="path122"
             style="fill:#262626;fill-opacity:1;fill-rule:nonzero;stroke:none"
             d="M 0,0 C 0,-2.209 1.791,-4 4,-4 6.209,-4 8,-2.209 8,0 8,2.209 6.209,4 4,4 1.791,4 0,2.209 0,0" /></g><g
           transform="translate(210,116)"
           id="g124"><path
             id="path126"
             style="fill:#eac500;fill-opacity:1;fill-rule:nonzero;stroke:none"
             d="M 0,0 C 0,-1.104 0.896,-2 2,-2 3.104,-2 4,-1.104 4,0 4,1.104 3.104,2 2,2 0.896,2 0,1.104 0,0" /></g><g
           transform="translate(184,94)"
           id="g128"><path
             id="path130"
             style="fill:#262626;fill-opacity:1;fill-rule:nonzero;stroke:none"
             d="m 0,0 c 0,-3.313 2.687,-6 6,-6 3.313,0 6,2.687 6,6 C 12,3.313 9.313,6 6,6 2.687,6 0,3.313 0,0" /></g><g
           transform="translate(196,104)"
           id="g132"><path
             id="path134"
             style="fill:#333333;fill-opacity:1;fill-rule:nonzero;stroke:none"
             d="m 0,0 c 2.209,0 4,-1.791 4,-4 0,-2.209 -7.791,-10 -10,-10 -2.209,0 -4,1.791 -4,4 0,2.209 7.791,10 10,10" /></g><g
           transform="translate(192,100)"
           id="g136"><path
             id="path138"
             style="fill:#262626;fill-opacity:1;fill-rule:nonzero;stroke:none"
             d="M 0,0 C 0,-2.209 1.791,-4 4,-4 6.209,-4 8,-2.209 8,0 8,2.209 6.209,4 4,4 1.791,4 0,2.209 0,0" /></g><g
           transform="translate(194,100)"
           id="g140"><path
             id="path142"
             style="fill:#eac500;fill-opacity:1;fill-rule:nonzero;stroke:none"
             d="M 0,0 C 0,-1.104 0.896,-2 2,-2 3.104,-2 4,-1.104 4,0 4,1.104 3.104,2 2,2 0.896,2 0,1.104 0,0" /></g><g
           transform="translate(144.0635,68)"
           id="g144"><path
             id="path146"
             style="fill:#404040;fill-opacity:1;fill-rule:nonzero;stroke:none"
             d="m 0,0 h -32.126 c -2.175,0 -3.937,1.763 -3.937,3.937 v 116.126 c 0,2.174 1.762,3.937 3.937,3.937 H 0 c 2.174,0 3.937,-1.763 3.937,-3.937 V 3.937 C 3.937,1.763 2.174,0 0,0" /></g><path
           id="path148"
           style="fill:#bf9a57;fill-opacity:1;fill-rule:nonzero;stroke:none"
           d="m 148,76 h -40 v 108 h 40 z" /><path
           id="path150"
           style="fill:#404040;fill-opacity:1;fill-rule:nonzero;stroke:none"
           d="m 116,96 h -4 v 12 h 4 z" /><path
           id="path152"
           style="fill:#666666;fill-opacity:1;fill-rule:nonzero;stroke:none"
           d="m 116,96 h -4 v 4 h 4 z" /><path
           id="path154"
           style="fill:#404040;fill-opacity:1;fill-rule:nonzero;stroke:none"
           d="m 144,96 h -4 v 12 h 4 z" /><path
           id="path156"
           style="fill:#666666;fill-opacity:1;fill-rule:nonzero;stroke:none"
           d="m 144,100 h -4 v 4 h 4 z" /><path
           id="path158"
           style="fill:#404040;fill-opacity:1;fill-rule:nonzero;stroke:none"
           d="m 128,80 h -4 v 4 h 4 z" /><path
           id="path160"
           style="fill:#333333;fill-opacity:1;fill-rule:nonzero;stroke:none"
           d="m 132,80 h -4 v 4 h 4 z" /><g
           transform="translate(108,184)"
           id="g162"><path
             id="path164"
             style="fill:#b3b3b3;fill-opacity:1;fill-rule:nonzero;stroke:none"
             d="M 0,0 H 12 V -64 L 0,-55.764 Z" /></g><g
           transform="translate(148,184)"
           id="g166"><path
             id="path168"
             style="fill:#b3b3b3;fill-opacity:1;fill-rule:nonzero;stroke:none"
             d="m 0,0 h -12 v -64 l 12,8.236 z" /></g><g
           transform="translate(108,184)"
           id="g170"><path
             id="path172"
             style="fill:#262626;fill-opacity:1;fill-rule:nonzero;stroke:none"
             d="m 0,0 v -52 l 8,-4 V 0 Z" /></g><g
           transform="translate(148,184)"
           id="g174"><path
             id="path176"
             style="fill:#262626;fill-opacity:1;fill-rule:nonzero;stroke:none"
             d="m 0,0 v -52 l -8,-4 V 0 Z" /></g><g
           transform="translate(138,184)"
           id="g178"><path
             id="path180"
             style="fill:#262626;fill-opacity:1;fill-rule:nonzero;stroke:none"
             d="m 0,0 v -2 -2 -56.764 l 10,5 V -58 L -2,-64 V 0 Z" /></g><g
           transform="translate(118,184)"
           id="g182"><path
             id="path184"
             style="fill:#262626;fill-opacity:1;fill-rule:nonzero;stroke:none"
             d="m 0,0 v -2 -2 -56.764 l -10,5 V -58 L 2,-64 V 0 Z" /></g><g
           transform="translate(120,184)"
           id="g186"><path
             id="path188"
             style="fill:#333333;fill-opacity:1;fill-rule:nonzero;stroke:none"
             d="m 0,0 c 0,-1.104 -0.896,-2 -2,-2 -1.104,0 -2,0.896 -2,2 0,1.104 0.896,2 2,2 1.104,0 2,-0.896 2,-2" /></g><g
           transform="translate(140,184)"
           id="g190"><path
             id="path192"
             style="fill:#333333;fill-opacity:1;fill-rule:nonzero;stroke:none"
             d="m 0,0 c 0,-1.104 -0.896,-2 -2,-2 -1.104,0 -2,0.896 -2,2 0,1.104 0.896,2 2,2 1.104,0 2,-0.896 2,-2" /></g><path
           id="path194"
           style="fill:#cccccc;fill-opacity:1;fill-rule:nonzero;stroke:none"
           d="m 120,96 h -4 v 12 h 4 z" /><path
           id="path196"
           style="fill:#cccccc;fill-opacity:1;fill-rule:nonzero;stroke:none"
           d="m 140,96 h -4 v 12 h 4 z" /></g></g></g></svg>