<?xml version="1.0" encoding="iso-8859-1"?>
<!-- Generator: Adobe Illustrator 27.8.1, SVG Export Plug-In . SVG Version: 6.00 Build 0)  -->
<svg version="1.1" id="Layer_1" xmlns="http://www.w3.org/2000/svg" xmlns:xlink="http://www.w3.org/1999/xlink" x="0px" y="0px"
	 viewBox="0 0 256 256" style="enable-background:new 0 0 256 256;" xml:space="preserve">
<path style="opacity:0.5;fill:#FFFFFF;" d="M242,60H14C8.486,60,4,64.486,4,70v116c0,5.514,4.486,10,10,10h228
	c5.514,0,10-4.486,10-10V70C252,64.486,247.514,60,242,60L242,60z"/>
<path style="fill:#404040;" d="M242,188H14c-1.105,0-2-0.895-2-2V70c0-1.105,0.895-2,2-2h228c1.105,0,2,0.895,2,2v116
	C244,187.105,243.105,188,242,188z"/>
<path style="fill:#D35400;" d="M192,72v96H16v8h178c1.105,0,2-0.895,2-2v-2v-4V72H192z"/>
<path style="fill:#FFCB05;" d="M204,168V72h-4v96v4v2c0,1.105,0.895,2,2,2h38v-8H204z"/>
<rect x="16" y="72" style="fill:#262626;" width="36" height="2"/>
<rect x="16" y="76" style="fill:#262626;" width="36" height="2"/>
<rect x="64" y="76" style="fill:#262626;" width="124" height="2"/>
<rect x="16" y="80" style="fill:#262626;" width="36" height="2"/>
<rect x="16" y="84" style="fill:#262626;" width="36" height="2"/>
<rect x="204" y="72" style="fill:#262626;" width="36" height="2"/>
<rect x="204" y="76" style="fill:#262626;" width="36" height="2"/>
<rect x="204" y="80" style="fill:#262626;" width="36" height="2"/>
<rect x="204" y="84" style="fill:#262626;" width="36" height="2"/>
<rect x="64" y="72" style="fill:#262626;" width="124" height="2"/>
<rect x="64" y="80" style="fill:#262626;" width="124" height="2"/>
<rect x="64" y="84" style="fill:#262626;" width="124" height="2"/>
<rect x="16" y="156" style="fill:#262626;" width="36" height="12"/>
<rect x="204" y="156" style="fill:#262626;" width="36" height="12"/>
<rect x="16" y="92" style="fill:#4D4D4D;" width="36" height="64"/>
<path style="fill:#404040;" d="M46,102v40H22v-40H46 M48,100H20v44h28V100L48,100z"/>
<circle style="fill:#404040;" cx="34" cy="118" r="10"/>
<circle style="fill:#4D4D4D;" cx="34" cy="118" r="8"/>
<rect x="204" y="92" style="fill:#4D4D4D;" width="36" height="64"/>
<path style="fill:#404040;" d="M234,102v40h-24v-40H234 M236,100h-28v44h28V100L236,100z"/>
<rect x="64" y="92" style="fill:#4D4D4D;" width="128" height="76"/>
<circle style="fill:#404040;" cx="222" cy="118" r="10"/>
<circle style="fill:#4D4D4D;" cx="222" cy="118" r="8"/>
<circle style="fill:#404040;" cx="156" cy="120" r="16"/>
<path style="fill:#595959;" d="M147.886,106.229c-1.139,0.672-2.221,1.479-3.199,2.458c-0.979,0.979-1.786,2.06-2.458,3.199
	l21.886,21.886c1.139-0.672,2.221-1.479,3.199-2.458s1.786-2.06,2.458-3.199L147.886,106.229z"/>
<rect x="148" y="144" style="fill:#404040;" width="16" height="16"/>
<rect x="168" y="144" style="fill:#404040;" width="16" height="16"/>
<rect x="72" y="144" style="fill:#404040;" width="68" height="16"/>
<path style="fill:#333333;" d="M82,156L82,156c-1.105,0-2-0.895-2-2v-4c0-1.105,0.895-2,2-2l0,0c1.105,0,2,0.895,2,2v4
	C84,155.105,83.105,156,82,156z"/>
<circle style="fill:#B80000;" cx="82" cy="154" r="2"/>
<path style="fill:#333333;" d="M94,156L94,156c-1.105,0-2-0.895-2-2v-4c0-1.105,0.895-2,2-2l0,0c1.105,0,2,0.895,2,2v4
	C96,155.105,95.105,156,94,156z"/>
<circle style="fill:#262626;" cx="94" cy="150" r="2"/>
<path style="fill:#333333;" d="M106,156L106,156c-1.105,0-2-0.895-2-2v-4c0-1.105,0.895-2,2-2l0,0c1.105,0,2,0.895,2,2v4
	C108,155.105,107.105,156,106,156z"/>
<circle style="fill:#262626;" cx="106" cy="154" r="2"/>
<path style="fill:#333333;" d="M118,156L118,156c-1.105,0-2-0.895-2-2v-4c0-1.105,0.895-2,2-2l0,0c1.105,0,2,0.895,2,2v4
	C120,155.105,119.105,156,118,156z"/>
<circle style="fill:#262626;" cx="118" cy="150" r="2"/>
<path style="fill:#333333;" d="M130,156L130,156c-1.105,0-2-0.895-2-2v-4c0-1.105,0.895-2,2-2l0,0c1.105,0,2,0.895,2,2v4
	C132,155.105,131.105,156,130,156z"/>
<circle style="fill:#262626;" cx="130" cy="154" r="2"/>
</svg>
