<?xml version="1.0" encoding="UTF-8" standalone="no"?>
<svg
   xmlns:dc="http://purl.org/dc/elements/1.1/"
   xmlns:cc="http://creativecommons.org/ns#"
   xmlns:rdf="http://www.w3.org/1999/02/22-rdf-syntax-ns#"
   xmlns:svg="http://www.w3.org/2000/svg"
   xmlns="http://www.w3.org/2000/svg"
   viewBox="0 0 330.66665 181.33333"
   height="181.33333"
   width="330.66666"
   xml:space="preserve"
   id="svg2"
   version="1.1"><metadata
     id="metadata8"><rdf:RDF><cc:Work
         rdf:about=""><dc:format>image/svg+xml</dc:format><dc:type
           rdf:resource="http://purl.org/dc/dcmitype/StillImage" /></cc:Work></rdf:RDF></metadata><defs
     id="defs6"><clipPath
       id="clipPath18"
       clipPathUnits="userSpaceOnUse"><path
         id="path16"
         d="M 0,256 H 256 V 0 H 0 Z" /></clipPath><clipPath
       id="clipPath26"
       clipPathUnits="userSpaceOnUse"><path
         id="path24"
         d="M 4,196 H 252 V 60 H 4 Z" /></clipPath></defs><g
     transform="matrix(1.3333333,0,0,-1.3333333,-5.3333332,261.33333)"
     id="g10"><g
       id="g12"><g
         clip-path="url(#clipPath18)"
         id="g14"><g
           id="g20"><g
             id="g22" /><g
             id="g34"><g
               style="opacity:0.5"
               id="g32"
               clip-path="url(#clipPath26)"><g
                 id="g30"
                 transform="translate(242,196)"><path
                   id="path28"
                   style="fill:#ffffff;fill-opacity:1;fill-rule:nonzero;stroke:none"
                   d="m 0,0 h -228 c -5.514,0 -10,-4.486 -10,-10 v -116 c 0,-5.514 4.486,-10 10,-10 H 0 c 5.514,0 10,4.486 10,10 V -10 C 10,-4.486 5.514,0 0,0" /></g></g></g></g><g
           transform="translate(242,68)"
           id="g36"><path
             id="path38"
             style="fill:#404040;fill-opacity:1;fill-rule:nonzero;stroke:none"
             d="m 0,0 h -228 c -1.104,0 -2,0.896 -2,2 v 116 c 0,1.104 0.896,2 2,2 H 0 c 1.104,0 2,-0.896 2,-2 V 2 C 2,0.896 1.104,0 0,0" /></g><g
           transform="translate(192,184)"
           id="g40"><path
             id="path42"
             style="fill:#d35400;fill-opacity:1;fill-rule:nonzero;stroke:none"
             d="m 0,0 v -96 h -176 v -8 H 2 c 1.104,0 2,0.896 2,2 v 2 4 96 z" /></g><g
           transform="translate(204,88)"
           id="g44"><path
             id="path46"
             style="fill:#eac500;fill-opacity:1;fill-rule:nonzero;stroke:none"
             d="M 0,0 V 96 H -4 V 0 -4 -6 c 0,-1.104 0.896,-2 2,-2 h 38 v 8 z" /></g><path
           id="path48"
           style="fill:#262626;fill-opacity:1;fill-rule:nonzero;stroke:none"
           d="M 52,182 H 16 v 2 h 36 z" /><path
           id="path50"
           style="fill:#262626;fill-opacity:1;fill-rule:nonzero;stroke:none"
           d="M 52,178 H 16 v 2 h 36 z" /><path
           id="path52"
           style="fill:#262626;fill-opacity:1;fill-rule:nonzero;stroke:none"
           d="M 188,178 H 64 v 2 h 124 z" /><path
           id="path54"
           style="fill:#262626;fill-opacity:1;fill-rule:nonzero;stroke:none"
           d="M 52,174 H 16 v 2 h 36 z" /><path
           id="path56"
           style="fill:#262626;fill-opacity:1;fill-rule:nonzero;stroke:none"
           d="M 52,170 H 16 v 2 h 36 z" /><path
           id="path58"
           style="fill:#262626;fill-opacity:1;fill-rule:nonzero;stroke:none"
           d="m 240,182 h -36 v 2 h 36 z" /><path
           id="path60"
           style="fill:#262626;fill-opacity:1;fill-rule:nonzero;stroke:none"
           d="m 240,178 h -36 v 2 h 36 z" /><path
           id="path62"
           style="fill:#262626;fill-opacity:1;fill-rule:nonzero;stroke:none"
           d="m 240,174 h -36 v 2 h 36 z" /><path
           id="path64"
           style="fill:#262626;fill-opacity:1;fill-rule:nonzero;stroke:none"
           d="m 240,170 h -36 v 2 h 36 z" /><path
           id="path66"
           style="fill:#262626;fill-opacity:1;fill-rule:nonzero;stroke:none"
           d="M 188,182 H 64 v 2 h 124 z" /><path
           id="path68"
           style="fill:#262626;fill-opacity:1;fill-rule:nonzero;stroke:none"
           d="M 188,174 H 64 v 2 h 124 z" /><path
           id="path70"
           style="fill:#262626;fill-opacity:1;fill-rule:nonzero;stroke:none"
           d="M 188,170 H 64 v 2 h 124 z" /><path
           id="path72"
           style="fill:#262626;fill-opacity:1;fill-rule:nonzero;stroke:none"
           d="M 52,88 H 16 v 12 h 36 z" /><path
           id="path74"
           style="fill:#262626;fill-opacity:1;fill-rule:nonzero;stroke:none"
           d="m 240,88 h -36 v 12 h 36 z" /><path
           id="path76"
           style="fill:#4c4c4c;fill-opacity:1;fill-rule:nonzero;stroke:none"
           d="M 52,100 H 16 v 64 h 36 z" /><path
           id="path78"
           style="fill:#404040;fill-opacity:1;fill-rule:nonzero;stroke:none"
           d="M 48,156 H 20 V 112 H 48 Z M 46,114 H 22 v 40 h 24 z" /><g
           transform="translate(44,138)"
           id="g80"><path
             id="path82"
             style="fill:#404040;fill-opacity:1;fill-rule:nonzero;stroke:none"
             d="m 0,0 c 0,-5.523 -4.477,-10 -10,-10 -5.523,0 -10,4.477 -10,10 0,5.523 4.477,10 10,10 C -4.477,10 0,5.523 0,0" /></g><g
           transform="translate(42,138)"
           id="g84"><path
             id="path86"
             style="fill:#4c4c4c;fill-opacity:1;fill-rule:nonzero;stroke:none"
             d="m 0,0 c 0,-4.418 -3.582,-8 -8,-8 -4.418,0 -8,3.582 -8,8 0,4.418 3.582,8 8,8 4.418,0 8,-3.582 8,-8" /></g><path
           id="path88"
           style="fill:#4c4c4c;fill-opacity:1;fill-rule:nonzero;stroke:none"
           d="m 240,100 h -36 v 64 h 36 z" /><path
           id="path90"
           style="fill:#404040;fill-opacity:1;fill-rule:nonzero;stroke:none"
           d="m 236,156 h -28 v -44 h 28 z m -2,-42 h -24 v 40 h 24 z" /><path
           id="path92"
           style="fill:#4c4c4c;fill-opacity:1;fill-rule:nonzero;stroke:none"
           d="M 192,88 H 64 v 76 h 128 z" /><g
           transform="translate(232,138)"
           id="g94"><path
             id="path96"
             style="fill:#404040;fill-opacity:1;fill-rule:nonzero;stroke:none"
             d="m 0,0 c 0,-5.523 -4.478,-10 -10,-10 -5.522,0 -10,4.477 -10,10 0,5.523 4.478,10 10,10 C -4.478,10 0,5.523 0,0" /></g><g
           transform="translate(230,138)"
           id="g98"><path
             id="path100"
             style="fill:#4c4c4c;fill-opacity:1;fill-rule:nonzero;stroke:none"
             d="m 0,0 c 0,-4.418 -3.582,-8 -8,-8 -4.418,0 -8,3.582 -8,8 0,4.418 3.582,8 8,8 4.418,0 8,-3.582 8,-8" /></g><g
           transform="translate(167.3135,124.6865)"
           id="g102"><path
             id="path104"
             style="fill:#404040;fill-opacity:1;fill-rule:nonzero;stroke:none"
             d="m 0,0 c -6.248,-6.249 -16.379,-6.249 -22.627,0 -6.249,6.248 -6.249,16.379 0,22.627 6.248,6.248 16.379,6.248 22.627,0 C 6.249,16.379 6.249,6.248 0,0" /></g><g
           transform="translate(147.8857,149.7715)"
           id="g106"><path
             id="path108"
             style="fill:#595959;fill-opacity:1;fill-rule:nonzero;stroke:none"
             d="m 0,0 c -1.14,-0.672 -2.221,-1.479 -3.199,-2.458 -0.979,-0.979 -1.786,-2.06 -2.458,-3.199 l 21.886,-21.886 c 1.139,0.672 2.22,1.48 3.199,2.458 0.978,0.979 1.786,2.06 2.458,3.199 z" /></g><path
           id="path110"
           style="fill:#404040;fill-opacity:1;fill-rule:nonzero;stroke:none"
           d="m 164,96 h -16 v 16 h 16 z" /><path
           id="path112"
           style="fill:#404040;fill-opacity:1;fill-rule:nonzero;stroke:none"
           d="m 184,96 h -16 v 16 h 16 z" /><path
           id="path114"
           style="fill:#404040;fill-opacity:1;fill-rule:nonzero;stroke:none"
           d="M 140,96 H 72 v 16 h 68 z" /><g
           transform="translate(82,100)"
           id="g116"><path
             id="path118"
             style="fill:#333333;fill-opacity:1;fill-rule:nonzero;stroke:none"
             d="M 0,0 V 0 C -1.104,0 -2,0.896 -2,2 V 6 C -2,7.104 -1.104,8 0,8 1.104,8 2,7.104 2,6 V 2 C 2,0.896 1.104,0 0,0" /></g><g
           transform="translate(84,102)"
           id="g120"><path
             id="path122"
             style="fill:#b80000;fill-opacity:1;fill-rule:nonzero;stroke:none"
             d="m 0,0 c 0,-1.104 -0.896,-2 -2,-2 -1.104,0 -2,0.896 -2,2 0,1.104 0.896,2 2,2 1.104,0 2,-0.896 2,-2" /></g><g
           transform="translate(94,100)"
           id="g124"><path
             id="path126"
             style="fill:#333333;fill-opacity:1;fill-rule:nonzero;stroke:none"
             d="M 0,0 V 0 C -1.104,0 -2,0.896 -2,2 V 6 C -2,7.104 -1.104,8 0,8 1.104,8 2,7.104 2,6 V 2 C 2,0.896 1.104,0 0,0" /></g><g
           transform="translate(96,106)"
           id="g128"><path
             id="path130"
             style="fill:#262626;fill-opacity:1;fill-rule:nonzero;stroke:none"
             d="m 0,0 c 0,-1.104 -0.896,-2 -2,-2 -1.104,0 -2,0.896 -2,2 0,1.104 0.896,2 2,2 1.104,0 2,-0.896 2,-2" /></g><g
           transform="translate(106,100)"
           id="g132"><path
             id="path134"
             style="fill:#333333;fill-opacity:1;fill-rule:nonzero;stroke:none"
             d="M 0,0 V 0 C -1.104,0 -2,0.896 -2,2 V 6 C -2,7.104 -1.104,8 0,8 1.104,8 2,7.104 2,6 V 2 C 2,0.896 1.104,0 0,0" /></g><g
           transform="translate(108,102)"
           id="g136"><path
             id="path138"
             style="fill:#262626;fill-opacity:1;fill-rule:nonzero;stroke:none"
             d="m 0,0 c 0,-1.104 -0.896,-2 -2,-2 -1.104,0 -2,0.896 -2,2 0,1.104 0.896,2 2,2 1.104,0 2,-0.896 2,-2" /></g><g
           transform="translate(118,100)"
           id="g140"><path
             id="path142"
             style="fill:#333333;fill-opacity:1;fill-rule:nonzero;stroke:none"
             d="M 0,0 V 0 C -1.104,0 -2,0.896 -2,2 V 6 C -2,7.104 -1.104,8 0,8 1.104,8 2,7.104 2,6 V 2 C 2,0.896 1.104,0 0,0" /></g><g
           transform="translate(120,106)"
           id="g144"><path
             id="path146"
             style="fill:#262626;fill-opacity:1;fill-rule:nonzero;stroke:none"
             d="m 0,0 c 0,-1.104 -0.896,-2 -2,-2 -1.104,0 -2,0.896 -2,2 0,1.104 0.896,2 2,2 1.104,0 2,-0.896 2,-2" /></g><g
           transform="translate(130,100)"
           id="g148"><path
             id="path150"
             style="fill:#333333;fill-opacity:1;fill-rule:nonzero;stroke:none"
             d="M 0,0 V 0 C -1.104,0 -2,0.896 -2,2 V 6 C -2,7.104 -1.104,8 0,8 1.104,8 2,7.104 2,6 V 2 C 2,0.896 1.104,0 0,0" /></g><g
           transform="translate(132,102)"
           id="g152"><path
             id="path154"
             style="fill:#262626;fill-opacity:1;fill-rule:nonzero;stroke:none"
             d="m 0,0 c 0,-1.104 -0.896,-2 -2,-2 -1.104,0 -2,0.896 -2,2 0,1.104 0.896,2 2,2 1.104,0 2,-0.896 2,-2" /></g></g></g></g></svg>