<svg xmlns="http://www.w3.org/2000/svg" xml:space="preserve" width="330.666" height="330.667"><defs><clipPath id="a" clipPathUnits="userSpaceOnUse"><path d="M0 256h256V0H0Z"/></clipPath><clipPath id="b" clipPathUnits="userSpaceOnUse"><path d="M4 252h248V4H4Z"/></clipPath></defs><g clip-path="url(#a)" transform="matrix(1.33333 0 0 -1.33333 -5.333 336)"><g clip-path="url(#b)" style="opacity:.5"><path d="M0 0v16h-244.385v-248H0v108h3.615V0z" style="fill:#fff;fill-opacity:1;fill-rule:nonzero;stroke:none" transform="translate(248.385 236)"/></g><path d="M0 0a4 4 0 1 0 0 8 4 4 0 0 0 0-8m-212 216a4 4 0 1 0 0 8 4 4 0 0 0 0-8m0-216a4 4 0 1 0 0 8 4 4 0 0 0 0-8m-8-4H8v232h-228z" style="fill:#16a085;fill-opacity:1;fill-rule:nonzero;stroke:none" transform="translate(232 16)"/><path d="M244 120H136v108h108z" style="fill:#1abf9f;fill-opacity:1;fill-rule:nonzero;stroke:none"/><path d="M236 152h-76v76h76z" style="fill:#595959;fill-opacity:1;fill-rule:nonzero;stroke:none"/><path d="M208 184h-32v32h32z" style="fill:#737373;fill-opacity:1;fill-rule:nonzero;stroke:none"/><path d="M148 196h-8v24h8zm0-28h-8v24h8z" style="fill:#595959;fill-opacity:1;fill-rule:nonzero;stroke:none"/><path d="M204 120.066h-28v4h28zM172 120h-16v4h16zm-24 0h-8v4h8zm88 0h-28v4h28z" style="fill:#e6e6e6;fill-opacity:1;fill-rule:nonzero;stroke:none"/><path d="M204 127.965h-28v4h28zm-32 0h-16v4h16zM148 128h-8v4h8zm88-.035h-28v4h28zM48 199.936H24v8h24zm40 0H56v8h32zm44 0H96v8h36z" style="fill:#f39b11;fill-opacity:1;fill-rule:nonzero;stroke:none"/><path d="M204 144h-24v4h24zm0-8h-24v4h24zm32 8h-24v4h24zm0-8h-24v4h24z" style="fill:#4c4c4c;fill-opacity:1;fill-rule:nonzero;stroke:none"/><path d="M158 136h-2v4h2zm4 0h-2v4h2zm4 0h-2v4h2zm4 0h-2v4h2zm4 0h-2v4h2z" style="fill:#8c8c8c;fill-opacity:1;fill-rule:nonzero;stroke:none"/><path d="M76 180H24v16h52zm56 0H80v16h52zm-56-20H24v16h52zm56 0H80v16h52zm-56-20H24v16h52zm56 0H80v16h52zm-56-20H24v16h52zm56 16H80v-16h52zm-2-14H82v12h48zm-54-22H24v16h52zm56 16H80v-16h52zm-2-14H82v12h48zM76 80H24v16h52zm56 16H80V80h52zm-2-14H82v12h48zM64 48H28v12h36zm44 0H72v12h36zm0-16H72v12h36zm80 60h-40V80h40zm-2-10h-36v8h36zm2-6h-40V64h40zm-2-10h-36v8h36zm2-6h-40V48h40zm-2-10h-36v8h36zm2-6h-40V32h40zm-2-10h-36v8h36zm46 58h-40V80h40zm-2-10h-36v8h36zm2-6h-40V64h40zm-2-10h-36v8h36zm2-6h-40V48h40zm-2-10h-36v8h36zm2-6h-40V32h40zm-2-10h-36v8h36zm-89.708 10h-24v8h24zM140 32h-24v8h24zm0-12h-24v8h24zM48 212H24v8h24z" style="fill:#595959;fill-opacity:1;fill-rule:nonzero;stroke:none"/><path d="M0 0h8v-4H0v-12h12v4H4v4h8V4H0Z" style="fill:#e6e6e6;fill-opacity:1;fill-rule:nonzero;stroke:none" transform="translate(60 228)"/><path d="M84 216h-4v12h4zm-4 16h-4v-20h12v20h-4zm20-16h-4v12h4zm-8 16v-20h12v20z" style="fill:#e6e6e6;fill-opacity:1;fill-rule:nonzero;stroke:none"/><path d="M0 0h-8v-4h8v-4h-8v-4h8v-4h-8v-4H4V0z" style="fill:#e6e6e6;fill-opacity:1;fill-rule:nonzero;stroke:none" transform="translate(116 232)"/><path d="M0 0h-4v4h-4V0h-4v-4h4v-4h4v4h4z" style="fill:#f39b11;fill-opacity:1;fill-rule:nonzero;stroke:none" transform="translate(132 224)"/></g></svg>