<svg xmlns="http://www.w3.org/2000/svg" xml:space="preserve" viewBox="0 0 256 256"><path d="M128 52c-87.562 0-115.965 3.914-117.131 4.08L4 57.062v141.876l6.869.981C12.035 200.086 40.438 204 128 204s115.965-3.914 117.131-4.08l6.869-.981V57.062l-6.869-.981C243.965 55.914 215.562 52 128 52" style="opacity:.5;fill:#fff"/><path d="M244 192s-28 4-116 4-116-4-116-4V64s28-4 116-4 116 4 116 4z" style="fill:#404040"/><path d="M232 184H24a4 4 0 0 1-4-4v-20a4 4 0 0 1 4-4h208a4 4 0 0 1 4 4v20a4 4 0 0 1-4 4m0-84H24a4 4 0 0 1-4-4V76a4 4 0 0 1 4-4h208a4 4 0 0 1 4 4v20a4 4 0 0 1-4 4" style="fill:#3d0000"/><path d="M176 164h52v12h-52z" style="fill:#404040"/><path d="M180 176h12a4 4 0 0 0 4-4v-4a4 4 0 0 0-4-4h-12a4 4 0 0 0-4 4v4a4 4 0 0 0 4 4m32 0h12a4 4 0 0 0 4-4v-4a4 4 0 0 0-4-4h-12a4 4 0 0 0-4 4v4a4 4 0 0 0 4 4M12 104h92v48H12zm140 0h92v48h-92z" style="fill:#333"/><circle cx="28" cy="128" r="12" style="fill:#d9d4bc"/><path d="M92 148H48a4 4 0 0 1-4-4v-32a4 4 0 0 1 4-4h44a4 4 0 0 1 4 4v32a4 4 0 0 1-4 4" style="fill:#c4c0aa"/><path d="M50 120h4a2 2 0 0 0 2-2v-4a2 2 0 0 0-2-2h-4a2 2 0 0 0-2 2v4a2 2 0 0 0 2 2"/><circle cx="52" cy="116" r="4" style="fill:#d9d4bc"/><path d="M62 120h4a2 2 0 0 0 2-2v-4a2 2 0 0 0-2-2h-4a2 2 0 0 0-2 2v4a2 2 0 0 0 2 2"/><circle cx="64" cy="116" r="4" style="fill:#d9d4bc"/><path d="M74 120h4a2 2 0 0 0 2-2v-4a2 2 0 0 0-2-2h-4a2 2 0 0 0-2 2v4a2 2 0 0 0 2 2"/><circle cx="76" cy="116" r="4" style="fill:#d9d4bc"/><path d="M86 120h4a2 2 0 0 0 2-2v-4a2 2 0 0 0-2-2h-4a2 2 0 0 0-2 2v4a2 2 0 0 0 2 2"/><circle cx="88" cy="116" r="4" style="fill:#d9d4bc"/><path d="M50 132h4a2 2 0 0 0 2-2v-4a2 2 0 0 0-2-2h-4a2 2 0 0 0-2 2v4a2 2 0 0 0 2 2"/><circle cx="52" cy="128" r="4" style="fill:#d9d4bc"/><path d="M62 132h4a2 2 0 0 0 2-2v-4a2 2 0 0 0-2-2h-4a2 2 0 0 0-2 2v4a2 2 0 0 0 2 2"/><circle cx="64" cy="128" r="4" style="fill:#d9d4bc"/><path d="M74 132h4a2 2 0 0 0 2-2v-4a2 2 0 0 0-2-2h-4a2 2 0 0 0-2 2v4a2 2 0 0 0 2 2"/><circle cx="76" cy="128" r="4" style="fill:#d9d4bc"/><path d="M86 132h4a2 2 0 0 0 2-2v-4a2 2 0 0 0-2-2h-4a2 2 0 0 0-2 2v4a2 2 0 0 0 2 2"/><circle cx="88" cy="128" r="4" style="fill:#d9d4bc"/><path d="M50 144h4a2 2 0 0 0 2-2v-4a2 2 0 0 0-2-2h-4a2 2 0 0 0-2 2v4a2 2 0 0 0 2 2"/><circle cx="52" cy="140" r="4" style="fill:#d9d4bc"/><path d="M62 144h4a2 2 0 0 0 2-2v-4a2 2 0 0 0-2-2h-4a2 2 0 0 0-2 2v4a2 2 0 0 0 2 2"/><circle cx="64" cy="140" r="4" style="fill:#d9d4bc"/><path d="M74 144h4a2 2 0 0 0 2-2v-4a2 2 0 0 0-2-2h-4a2 2 0 0 0-2 2v4a2 2 0 0 0 2 2"/><circle cx="76" cy="140" r="4" style="fill:#d9d4bc"/><path d="M86 144h4a2 2 0 0 0 2-2v-4a2 2 0 0 0-2-2h-4a2 2 0 0 0-2 2v4a2 2 0 0 0 2 2"/><circle cx="88" cy="140" r="4" style="fill:#d9d4bc"/><circle cx="228" cy="128" r="12" style="fill:#d9d4bc"/><path d="M164 148h44a4 4 0 0 0 4-4v-32a4 4 0 0 0-4-4h-44a4 4 0 0 0-4 4v32a4 4 0 0 0 4 4" style="fill:#c4c0aa"/><path d="M206 120h-4a2 2 0 0 1-2-2v-4a2 2 0 0 1 2-2h4a2 2 0 0 1 2 2v4a2 2 0 0 1-2 2"/><circle cx="204" cy="116" r="4" style="fill:#d9d4bc"/><path d="M194 120h-4a2 2 0 0 1-2-2v-4a2 2 0 0 1 2-2h4a2 2 0 0 1 2 2v4a2 2 0 0 1-2 2"/><circle cx="192" cy="116" r="4" style="fill:#d9d4bc"/><path d="M182 120h-4a2 2 0 0 1-2-2v-4a2 2 0 0 1 2-2h4a2 2 0 0 1 2 2v4a2 2 0 0 1-2 2"/><circle cx="180" cy="116" r="4" style="fill:#d9d4bc"/><path d="M170 120h-4a2 2 0 0 1-2-2v-4a2 2 0 0 1 2-2h4a2 2 0 0 1 2 2v4a2 2 0 0 1-2 2"/><circle cx="168" cy="116" r="4" style="fill:#d9d4bc"/><path d="M206 132h-4a2 2 0 0 1-2-2v-4a2 2 0 0 1 2-2h4a2 2 0 0 1 2 2v4a2 2 0 0 1-2 2"/><circle cx="204" cy="128" r="4" style="fill:#d9d4bc"/><path d="M194 132h-4a2 2 0 0 1-2-2v-4a2 2 0 0 1 2-2h4a2 2 0 0 1 2 2v4a2 2 0 0 1-2 2"/><circle cx="192" cy="128" r="4" style="fill:#d9d4bc"/><path d="M182 132h-4a2 2 0 0 1-2-2v-4a2 2 0 0 1 2-2h4a2 2 0 0 1 2 2v4a2 2 0 0 1-2 2"/><circle cx="180" cy="128" r="4" style="fill:#d9d4bc"/><path d="M170 132h-4a2 2 0 0 1-2-2v-4a2 2 0 0 1 2-2h4a2 2 0 0 1 2 2v4a2 2 0 0 1-2 2"/><circle cx="168" cy="128" r="4" style="fill:#d9d4bc"/><path d="M206 144h-4a2 2 0 0 1-2-2v-4a2 2 0 0 1 2-2h4a2 2 0 0 1 2 2v4a2 2 0 0 1-2 2"/><circle cx="204" cy="140" r="4" style="fill:#d9d4bc"/><path d="M194 144h-4a2 2 0 0 1-2-2v-4a2 2 0 0 1 2-2h4a2 2 0 0 1 2 2v4a2 2 0 0 1-2 2"/><circle cx="192" cy="140" r="4" style="fill:#d9d4bc"/><path d="M182 144h-4a2 2 0 0 1-2-2v-4a2 2 0 0 1 2-2h4a2 2 0 0 1 2 2v4a2 2 0 0 1-2 2"/><circle cx="180" cy="140" r="4" style="fill:#d9d4bc"/><path d="M170 144h-4a2 2 0 0 1-2-2v-4a2 2 0 0 1 2-2h4a2 2 0 0 1 2 2v4a2 2 0 0 1-2 2"/><circle cx="168" cy="140" r="4" style="fill:#d9d4bc"/><path d="M216 164h4v12h-4z" style="fill:#404040"/><path d="M230 78v16H26V78zm2-2H24v20h208zm-2 86v16H26v-16zm2-2H24v20h208z" style="fill:#d9d4bc"/><path d="M108 124c1.1 0 2-.9 2-2v-5h-4v5c0 1.1.9 2 2 2m18 10c0-1.1-.9-2-2-2s-2 .9-2 2v5h4zm24 0c0-1.1-.9-2-2-2s-2 .9-2 2v5h4zm-8 0c0-1.1-.9-2-2-2s-2 .9-2 2v5h4zm-8 0c0-1.1-.9-2-2-2s-2 .9-2 2v5h4zm-16 0c0-1.1-.9-2-2-2s-2 .9-2 2v5h4zm32-19v-5c0-1.1-.9-2-2-2s-2 .9-2 2v5zm-10 9c1.1 0 2-.9 2-2v-5h-4v5c0 1.1.9 2 2 2m-24 0c1.1 0 2-.9 2-2v-5h-4v5c0 1.1.9 2 2 2m16 0c1.1 0 2-.9 2-2v-5h-4v5c0 1.1.9 2 2 2m-8 0c1.1 0 2-.9 2-2v-5h-4v5c0 1.1.9 2 2 2m-14 15v-5c0-1.1-.9-2-2-2s-2 .9-2 2v5zm12 2v5c0 1.1.9 2 2 2s2-.9 2-2v-5zm8 0v5c0 1.1.9 2 2 2s2-.9 2-2v-5zm-16 0v5c0 1.1.9 2 2 2s2-.9 2-2v-5zm32-24v5c0 1.1.9 2 2 2s2-.9 2-2v-5zm0 24v5c0 1.1.9 2 2 2s2-.9 2-2v-5zm-40 0v5c0 1.1.9 2 2 2s2-.9 2-2v-5zm32 0v5c0 1.1.9 2 2 2s2-.9 2-2v-5zm-4-26v-5c0-1.1-.9-2-2-2s-2 .9-2 2v5zm8 0v-5c0-1.1-.9-2-2-2s-2 .9-2 2v5zm-32 0v-5c0-1.1-.9-2-2-2s-2 .9-2 2v5zm16 0v-5c0-1.1-.9-2-2-2s-2 .9-2 2v5zm-8 0v-5c0-1.1-.9-2-2-2s-2 .9-2 2v5z" style="fill:#262626"/></svg>