<?xml version="1.0" encoding="iso-8859-1"?>
<!-- Generator: Adobe Illustrator 27.8.1, SVG Export Plug-In . SVG Version: 6.00 Build 0)  -->
<svg version="1.1" id="Layer_1" xmlns="http://www.w3.org/2000/svg" xmlns:xlink="http://www.w3.org/1999/xlink" x="0px" y="0px"
	 viewBox="0 0 256 256" style="enable-background:new 0 0 256 256;" xml:space="preserve">
<rect x="12" y="60" style="fill:#D9D4BC;" width="232" height="136"/>
<rect x="12" y="96" style="fill:#C4C0AA;" width="4" height="100"/>
<rect x="192" y="160" style="fill:#3D0000;" width="32" height="24"/>
<path style="fill:#404040;" d="M220,183.303v-22.605c-4.658,1.649-8,6.08-8,11.303C212,177.223,215.342,181.654,220,183.303z"/>
<path style="fill:#404040;" d="M228,183.303v-22.605c4.658,1.649,8,6.08,8,11.303C236,177.223,232.658,181.654,228,183.303z"/>
<rect x="240" y="96" style="fill:#C4C0AA;" width="4" height="100"/>
<path style="fill:#3D0000;" d="M240,188H16l-4,8c0,0,28,4,116,4s116-4,116-4L240,188z"/>
<rect x="68" y="96" style="fill:#C4C0AA;" width="108" height="96"/>
<rect x="102" y="118" transform="matrix(6.123234e-17 -1 1 6.123234e-17 6 290)" style="fill:#D9D4BC;" width="92" height="48"/>
<circle style="fill:#A6A390;" cx="148" cy="172" r="12"/>
<path style="fill:#A6A390;" d="M168,108v44c0,2.209-1.791,4-4,4h-32c-2.209,0-4-1.791-4-4v-44c0-2.209,1.791-4,4-4h32
	C166.209,104,168,105.791,168,108z"/>
<path d="M140,150v-4c0-1.105-0.895-2-2-2h-4c-1.105,0-2,0.895-2,2v4c0,1.105,0.895,2,2,2h4C139.105,152,140,151.105,140,150z"/>
<circle style="fill:#C4C0AA;" cx="136" cy="148" r="4"/>
<path d="M140,138v-4c0-1.105-0.895-2-2-2h-4c-1.105,0-2,0.895-2,2v4c0,1.105,0.895,2,2,2h4C139.105,140,140,139.105,140,138z"/>
<circle style="fill:#C4C0AA;" cx="136" cy="136" r="4"/>
<path d="M140,126v-4c0-1.105-0.895-2-2-2h-4c-1.105,0-2,0.895-2,2v4c0,1.105,0.895,2,2,2h4C139.105,128,140,127.105,140,126z"/>
<circle style="fill:#C4C0AA;" cx="136" cy="124" r="4"/>
<path d="M140,114v-4c0-1.105-0.895-2-2-2h-4c-1.105,0-2,0.895-2,2v4c0,1.105,0.895,2,2,2h4C139.105,116,140,115.105,140,114z"/>
<circle style="fill:#C4C0AA;" cx="136" cy="112" r="4"/>
<path d="M152,150v-4c0-1.105-0.895-2-2-2h-4c-1.105,0-2,0.895-2,2v4c0,1.105,0.895,2,2,2h4C151.105,152,152,151.105,152,150z"/>
<circle style="fill:#C4C0AA;" cx="148" cy="148" r="4"/>
<path d="M152,138v-4c0-1.105-0.895-2-2-2h-4c-1.105,0-2,0.895-2,2v4c0,1.105,0.895,2,2,2h4C151.105,140,152,139.105,152,138z"/>
<circle style="fill:#C4C0AA;" cx="148" cy="136" r="4"/>
<path d="M152,126v-4c0-1.105-0.895-2-2-2h-4c-1.105,0-2,0.895-2,2v4c0,1.105,0.895,2,2,2h4C151.105,128,152,127.105,152,126z"/>
<circle style="fill:#C4C0AA;" cx="148" cy="124" r="4"/>
<path d="M152,114v-4c0-1.105-0.895-2-2-2h-4c-1.105,0-2,0.895-2,2v4c0,1.105,0.895,2,2,2h4C151.105,116,152,115.105,152,114z"/>
<circle style="fill:#C4C0AA;" cx="148" cy="112" r="4"/>
<path d="M164,150v-4c0-1.105-0.895-2-2-2h-4c-1.105,0-2,0.895-2,2v4c0,1.105,0.895,2,2,2h4C163.105,152,164,151.105,164,150z"/>
<circle style="fill:#C4C0AA;" cx="160" cy="148" r="4"/>
<path d="M164,138v-4c0-1.105-0.895-2-2-2h-4c-1.105,0-2,0.895-2,2v4c0,1.105,0.895,2,2,2h4C163.105,140,164,139.105,164,138z"/>
<circle style="fill:#C4C0AA;" cx="160" cy="136" r="4"/>
<path d="M164,126v-4c0-1.105-0.895-2-2-2h-4c-1.105,0-2,0.895-2,2v4c0,1.105,0.895,2,2,2h4C163.105,128,164,127.105,164,126z"/>
<circle style="fill:#C4C0AA;" cx="160" cy="124" r="4"/>
<path d="M164,114v-4c0-1.105-0.895-2-2-2h-4c-1.105,0-2,0.895-2,2v4c0,1.105,0.895,2,2,2h4C163.105,116,164,115.105,164,114z"/>
<circle style="fill:#C4C0AA;" cx="160" cy="112" r="4"/>
<rect x="50" y="118" transform="matrix(6.123234e-17 -1 1 6.123234e-17 -46 238)" style="fill:#D9D4BC;" width="92" height="48"/>
<circle style="fill:#A6A390;" cx="96" cy="172" r="12"/>
<path style="fill:#A6A390;" d="M116,108v44c0,2.209-1.791,4-4,4H80c-2.209,0-4-1.791-4-4v-44c0-2.209,1.791-4,4-4h32
	C114.209,104,116,105.791,116,108z"/>
<path d="M88,150v-4c0-1.105-0.895-2-2-2h-4c-1.105,0-2,0.895-2,2v4c0,1.105,0.895,2,2,2h4C87.105,152,88,151.105,88,150z"/>
<circle style="fill:#C4C0AA;" cx="84" cy="148" r="4"/>
<path d="M88,138v-4c0-1.105-0.895-2-2-2h-4c-1.105,0-2,0.895-2,2v4c0,1.105,0.895,2,2,2h4C87.105,140,88,139.105,88,138z"/>
<circle style="fill:#C4C0AA;" cx="84" cy="136" r="4"/>
<path d="M88,126v-4c0-1.105-0.895-2-2-2h-4c-1.105,0-2,0.895-2,2v4c0,1.105,0.895,2,2,2h4C87.105,128,88,127.105,88,126z"/>
<circle style="fill:#C4C0AA;" cx="84" cy="124" r="4"/>
<path d="M88,114v-4c0-1.105-0.895-2-2-2h-4c-1.105,0-2,0.895-2,2v4c0,1.105,0.895,2,2,2h4C87.105,116,88,115.105,88,114z"/>
<circle style="fill:#C4C0AA;" cx="84" cy="112" r="4"/>
<path d="M100,150v-4c0-1.105-0.895-2-2-2h-4c-1.105,0-2,0.895-2,2v4c0,1.105,0.895,2,2,2h4C99.105,152,100,151.105,100,150z"/>
<circle style="fill:#C4C0AA;" cx="96" cy="148" r="4"/>
<path d="M100,138v-4c0-1.105-0.895-2-2-2h-4c-1.105,0-2,0.895-2,2v4c0,1.105,0.895,2,2,2h4C99.105,140,100,139.105,100,138z"/>
<circle style="fill:#C4C0AA;" cx="96" cy="136" r="4"/>
<path d="M100,126v-4c0-1.105-0.895-2-2-2h-4c-1.105,0-2,0.895-2,2v4c0,1.105,0.895,2,2,2h4C99.105,128,100,127.105,100,126z"/>
<circle style="fill:#C4C0AA;" cx="96" cy="124" r="4"/>
<path d="M100,114v-4c0-1.105-0.895-2-2-2h-4c-1.105,0-2,0.895-2,2v4c0,1.105,0.895,2,2,2h4C99.105,116,100,115.105,100,114z"/>
<circle style="fill:#C4C0AA;" cx="96" cy="112" r="4"/>
<path d="M112,150v-4c0-1.105-0.895-2-2-2h-4c-1.105,0-2,0.895-2,2v4c0,1.105,0.895,2,2,2h4C111.105,152,112,151.105,112,150z"/>
<circle style="fill:#C4C0AA;" cx="108" cy="148" r="4"/>
<path d="M112,138v-4c0-1.105-0.895-2-2-2h-4c-1.105,0-2,0.895-2,2v4c0,1.105,0.895,2,2,2h4C111.105,140,112,139.105,112,138z"/>
<circle style="fill:#C4C0AA;" cx="108" cy="136" r="4"/>
<path d="M112,126v-4c0-1.105-0.895-2-2-2h-4c-1.105,0-2,0.895-2,2v4c0,1.105,0.895,2,2,2h4C111.105,128,112,127.105,112,126z"/>
<circle style="fill:#C4C0AA;" cx="108" cy="124" r="4"/>
<path d="M112,114v-4c0-1.105-0.895-2-2-2h-4c-1.105,0-2,0.895-2,2v4c0,1.105,0.895,2,2,2h4C111.105,116,112,115.105,112,114z"/>
<circle style="fill:#C4C0AA;" cx="108" cy="112" r="4"/>
<path style="fill:#666666;" d="M244,96H12V60c0,0,28-4,116-4s116,4,116,4V96z"/>
<rect x="16" y="64" style="fill:#4D4D4D;" width="224" height="4"/>
<rect x="16" y="72" style="fill:#4D4D4D;" width="224" height="4"/>
<rect x="16" y="80" style="fill:#4D4D4D;" width="224" height="4"/>
<rect x="16" y="88" style="fill:#4D4D4D;" width="224" height="4"/>
<circle style="fill:#A6A390;" cx="192" cy="172" r="12"/>
<polygon style="fill:#4D4D4D;" points="16,96 12,100 12,60 16,64 "/>
<polygon style="fill:#4D4D4D;" points="244,100 240,96 240,64 244,60 "/>
<polygon style="fill:#404040;" points="12,96 16,92 16,88 12,92 "/>
<polygon style="fill:#404040;" points="12,88 16,84 16,80 12,84 "/>
<polygon style="fill:#404040;" points="12,80 16,76 16,72 12,76 "/>
<polygon style="fill:#404040;" points="12,72 16,68 16,64 12,68 "/>
<polygon style="fill:#404040;" points="244,72 240,68 240,64 244,68 "/>
<polygon style="fill:#404040;" points="244,80 240,76 240,72 244,76 "/>
<polygon style="fill:#404040;" points="244,88 240,84 240,80 244,84 "/>
<polygon style="fill:#404040;" points="244,96 240,92 240,88 244,92 "/>
<path style="fill:#A6A390;" d="M232,163.074c-2.124-1.905-4.922-3.074-8-3.074s-5.876,1.169-8,3.074v17.853
	c2.124,1.905,4.922,3.074,8,3.074s5.876-1.169,8-3.074V163.074z"/>
</svg>
