<svg xmlns="http://www.w3.org/2000/svg" xml:space="preserve" width="312.974" height="266.667"><defs><clipPath id="a" clipPathUnits="userSpaceOnUse"><path d="M0 256h256V0H0Z"/></clipPath><clipPath id="b" clipPathUnits="userSpaceOnUse"><path d="M12 228h234.731V28H12Z"/></clipPath><clipPath id="c" clipPathUnits="userSpaceOnUse"><path d="M0 256h256V0H0Z"/></clipPath></defs><g clip-path="url(#a)" transform="matrix(1.33333 0 0 -1.33333 -16 304)"><g clip-path="url(#b)" style="opacity:.5"><path d="M0 0h-112.992l-2.338-3.84-56-92-2.531-4.16 2.531-4.159 56-92 2.338-3.841H0l2.338 3.841 56 92L60.87-100l-2.532 4.16-56 92z" style="fill:#fff;fill-opacity:1;fill-rule:nonzero;stroke:none" transform="translate(185.861 228)"/></g></g><path d="M0 0h-104l-56-92 56-92H0l56 92z" style="fill:#737373;fill-opacity:1;fill-rule:nonzero;stroke:none" transform="matrix(1.33333 0 0 -1.33333 224 10.667)"/><g clip-path="url(#c)" transform="matrix(1.33333 0 0 -1.33333 -16 304)"><path d="M0 0c0 33.137 26.863 60 60 60s60-26.863 60-60-26.863-60-60-60S0-33.137 0 0" style="fill:#3d0000;fill-opacity:1;fill-rule:nonzero;stroke:none" transform="translate(68 128)"/><path d="M0 0c-22.183 0-40.231 18.048-40.231 40.231a40.23 40.23 0 0 0 10.343 26.941 6.88 6.88 0 1 0 10.233-9.201 26.5 26.5 0 0 1-6.814-17.74c0-14.595 11.874-26.468 26.469-26.468s26.469 11.873 26.469 26.468c0 6.553-2.42 12.853-6.815 17.74a6.88 6.88 0 0 0 .517 9.717 6.88 6.88 0 0 0 9.718-.516A40.24 40.24 0 0 0 40.23 40.231C40.23 18.048 22.184 0 0 0" style="fill:#404040;fill-opacity:1;fill-rule:nonzero;stroke:none" transform="translate(128 81.966)"/><path d="M0 0a6.88 6.88 0 0 0-6.881 6.881v44.955a6.88 6.88 0 1 0 13.762 0V6.881A6.88 6.88 0 0 0 0 0" style="fill:#404040;fill-opacity:1;fill-rule:nonzero;stroke:none" transform="translate(128 115.316)"/></g></svg>