<svg xmlns="http://www.w3.org/2000/svg" xml:space="preserve" width="312.974" height="266.667"><defs><clipPath id="a" clipPathUnits="userSpaceOnUse"><path d="M0 256h256V0H0Z"/></clipPath><clipPath id="b" clipPathUnits="userSpaceOnUse"><path d="M10.635 228h234.73V28H10.635Z"/></clipPath><clipPath id="c" clipPathUnits="userSpaceOnUse"><path d="M0 256h256V0H0Z"/></clipPath></defs><g clip-path="url(#a)" transform="matrix(1.33333 0 0 -1.33333 -14.18 304)"><g clip-path="url(#b)" style="opacity:.5"><path d="M0 0h-112.992l-2.338-3.84-56-92-2.532-4.16 2.532-4.159 56-92 2.338-3.841H0l2.338 3.841 56 92L60.869-100l-2.531 4.16-56 92z" style="fill:#fff;fill-opacity:1;fill-rule:nonzero;stroke:none" transform="translate(184.496 228)"/></g></g><path d="M0 0h-104l-56-92 56-92H0l56 92z" style="fill:#737373;fill-opacity:1;fill-rule:nonzero;stroke:none" transform="matrix(1.33333 0 0 -1.33333 225.82 10.667)"/><g clip-path="url(#c)" transform="matrix(1.33333 0 0 -1.33333 -14.18 304)"><path d="M0 0a7.94 7.94 0 0 1-5.656-2.343L-32-28.687-58.343-2.343A7.95 7.95 0 0 1-64 0a7.95 7.95 0 0 1-5.657-2.344c-3.118-3.118-3.118-8.194 0-11.312L-43.313-40l-26.344-26.344c-3.118-3.119-3.118-8.193 0-11.312A7.95 7.95 0 0 1-64-80c2.136 0 4.145.832 5.656 2.344L-32-51.313l26.344-26.343A7.94 7.94 0 0 1 0-80a7.94 7.94 0 0 1 5.656 2.344c3.119 3.119 3.119 8.193 0 11.312L-20.687-40 5.656-13.657A7.95 7.95 0 0 1 8-8a7.94 7.94 0 0 1-2.344 5.657A7.95 7.95 0 0 1 0 0" style="fill:#404040;fill-opacity:1;fill-rule:nonzero;stroke:none" transform="translate(160 168)"/><path d="m0 0 29.172 29.172a4 4 0 1 1-5.656 5.656L-5.656 5.656l-29.172 29.172a3.997 3.997 0 0 1-5.656 0 3.997 3.997 0 0 1 0-5.656L-11.313 0l-29.171-29.172a3.997 3.997 0 0 1 0-5.656A4 4 0 0 1-37.656-36c1.023 0 2.047.391 2.828 1.172L-5.656-5.656l29.172-29.172A4 4 0 0 1 26.344-36a4 4 0 0 1 2.828 6.828z" style="fill:#fff;fill-opacity:1;fill-rule:nonzero;stroke:none" transform="translate(133.656 128)"/></g></svg>