<?xml version="1.0" encoding="UTF-8" standalone="no"?>
<svg
   xmlns:dc="http://purl.org/dc/elements/1.1/"
   xmlns:cc="http://creativecommons.org/ns#"
   xmlns:rdf="http://www.w3.org/1999/02/22-rdf-syntax-ns#"
   xmlns:svg="http://www.w3.org/2000/svg"
   xmlns="http://www.w3.org/2000/svg"
   viewBox="0 0 312.974 266.66665"
   height="266.66666"
   width="312.974"
   xml:space="preserve"
   id="svg2"
   version="1.1"><metadata
     id="metadata8"><rdf:RDF><cc:Work
         rdf:about=""><dc:format>image/svg+xml</dc:format><dc:type
           rdf:resource="http://purl.org/dc/dcmitype/StillImage" /></cc:Work></rdf:RDF></metadata><defs
     id="defs6"><clipPath
       id="clipPath18"
       clipPathUnits="userSpaceOnUse"><path
         id="path16"
         d="M 0,256 H 256 V 0 H 0 Z" /></clipPath><clipPath
       id="clipPath26"
       clipPathUnits="userSpaceOnUse"><path
         id="path24"
         d="M 10.6345,228 H 245.365 V 28 H 10.6345 Z" /></clipPath><clipPath
       id="clipPath46"
       clipPathUnits="userSpaceOnUse"><path
         id="path44"
         d="M 0,256 H 256 V 0 H 0 Z" /></clipPath></defs><g
     transform="matrix(1.3333333,0,0,-1.3333333,-14.179333,303.99999)"
     id="g10"><g
       id="g12"><g
         clip-path="url(#clipPath18)"
         id="g14"><g
           id="g20"><g
             id="g22" /><g
             id="g34"><g
               style="opacity:0.5"
               id="g32"
               clip-path="url(#clipPath26)"><g
                 id="g30"
                 transform="translate(184.4961,228)"><path
                   id="path28"
                   style="fill:#ffffff;fill-opacity:1;fill-rule:nonzero;stroke:none"
                   d="m 0,0 h -4.496 -104 -4.496 l -2.338,-3.84 -56,-92 -2.532,-4.16 2.532,-4.159 56,-92 2.338,-3.841 h 4.496 104 H 0 l 2.338,3.841 56,92 2.531,4.159 -2.531,4.16 -56,92 z" /></g></g></g></g></g></g><g
       transform="translate(180,220)"
       id="g36"><path
         id="path38"
         style="fill:#757575;fill-opacity:1;fill-rule:nonzero;stroke:none"
         d="m 0,0 h -104 l -56,-92 56,-92 H 0 l 56,92 z" /></g><g
       id="g40"><g
         clip-path="url(#clipPath46)"
         id="g42"><g
           transform="translate(134,192)"
           id="g48"><path
             id="path50"
             style="fill:#1abf9f;fill-opacity:1;fill-rule:nonzero;stroke:none"
             d="m 0,0 h -11.988 c -5.514,0 -10,-4.486 -10,-10 v -38.008 l -20.014,-0.01 -7.998,-0.004 4.801,-6.397 36.012,-47.982 3.2,-4.263 3.199,4.264 36,47.982 4.799,6.396 -7.997,0.004 L 10,-48.008 V -10 C 10,-4.486 5.514,0 0,0" /></g><g
           transform="translate(140.0117,139.9941)"
           id="g52"><path
             id="path54"
             style="fill:#ffffff;fill-opacity:1;fill-rule:nonzero;stroke:none"
             d="m 0,0 h -0.012 v 42.006 c 0,3.318 -2.681,6 -6,6 H -18 c -3.318,0 -6,-2.682 -6,-6 V 0 h -0.012 l -24,-0.012 L -12,-47.994 24,-0.012 Z" /></g><g
           transform="translate(170,68)"
           id="g56"><path
             id="path58"
             style="fill:#b3b3b3;fill-opacity:1;fill-rule:nonzero;stroke:none"
             d="m 0,0 h -52 c -3.3,0 -6,2.7 -6,6 0,3.3 2.7,6 6,6 H 0 C 3.3,12 6,9.3 6,6 6,2.7 3.3,0 0,0" /></g><g
           transform="translate(138,68)"
           id="g60"><path
             id="path62"
             style="fill:#4c4c4c;fill-opacity:1;fill-rule:nonzero;stroke:none"
             d="m 0,0 h -52 c -3.3,0 -6,2.7 -6,6 0,3.3 2.7,6 6,6 H 0 C 3.3,12 6,9.3 6,6 6,2.7 3.3,0 0,0" /></g></g></g></g></svg>