<svg xmlns="http://www.w3.org/2000/svg" xml:space="preserve" width="312.974" height="266.667"><defs><clipPath id="a" clipPathUnits="userSpaceOnUse"><path d="M0 256h256V0H0Z"/></clipPath><clipPath id="b" clipPathUnits="userSpaceOnUse"><path d="M10.635 228h234.73V28H10.635Z"/></clipPath><clipPath id="c" clipPathUnits="userSpaceOnUse"><path d="M0 256h256V0H0Z"/></clipPath></defs><g clip-path="url(#a)" transform="matrix(1.33333 0 0 -1.33333 -14.18 304)"><g clip-path="url(#b)" style="opacity:.5"><path d="M0 0h-112.992l-2.338-3.84-56-92-2.532-4.16 2.532-4.159 56-92 2.338-3.841H0l2.338 3.841 56 92L60.869-100l-2.531 4.16-56 92z" style="fill:#fff;fill-opacity:1;fill-rule:nonzero;stroke:none" transform="translate(184.496 228)"/></g></g><path d="M0 0h-104l-56-92 56-92H0l56 92z" style="fill:#737373;fill-opacity:1;fill-rule:nonzero;stroke:none" transform="matrix(1.33333 0 0 -1.33333 225.82 10.667)"/><g clip-path="url(#c)" transform="matrix(1.33333 0 0 -1.33333 -14.18 304)"><path d="M0 0h88v-24s-4-40-44-40S0-24 0-24Z" style="fill:#bababa;fill-opacity:1;fill-rule:nonzero;stroke:none" transform="translate(84 196)"/><path d="M0 0h-88v24s0 40 44 40S0 24 0 24Z" style="fill:#bababa;fill-opacity:1;fill-rule:nonzero;stroke:none" transform="translate(172 64)"/><path d="m0 0-44 8V-4s20-32 44-32S44-4 44-4V8Z" style="fill:#fc9;fill-opacity:1;fill-rule:nonzero;stroke:none" transform="translate(128 164)"/><path d="m0 0-4-8c0-2.2 1.8-4 4-4s4 1.8 4 4z" style="fill:#fc9;fill-opacity:1;fill-rule:nonzero;stroke:none" transform="translate(128 104)"/><path d="m0 0-4-8c0-2.2 1.8-4 4-4s4 1.8 4 4z" style="fill:#fc9;fill-opacity:1;fill-rule:nonzero;stroke:none" transform="translate(128 120)"/><path d="m0 0-4-8c0-2.2 1.8-4 4-4s4 1.8 4 4z" style="fill:#fc9;fill-opacity:1;fill-rule:nonzero;stroke:none" transform="translate(128 136)"/><path d="M0 0h-72l31.562 21.042a8 8 0 0 0 8.876 0z" style="fill:#fc9;fill-opacity:1;fill-rule:nonzero;stroke:none" transform="translate(164 64)"/><path d="M0 0v-28c-1.094-22.267-20.402-40-44-40s-42.906 17.733-44 40V0h-4v-28.098l.005-.098C-91.018-48.083-77.011-64.477-58.072-70c-18.939-5.522-32.946-21.917-33.923-41.804l-.005-.097V-140h4v28c1.094 22.267 20.402 40 44 40s42.906-17.733 44-40v-28h4v28.099l-.005.097C3.018-91.917-10.989-75.522-29.929-70c18.94 5.523 32.947 21.917 33.924 41.804l.005.098V0Z" style="fill:#d9d9d9;fill-opacity:1;fill-rule:nonzero;stroke:none" transform="translate(172 200)"/><path d="M0 0h-96a8 8 0 0 0 0 16H0A8 8 0 0 0 0 0" style="fill:#a3834a;fill-opacity:1;fill-rule:nonzero;stroke:none" transform="translate(176 196)"/><path d="M0 0h-96a8 8 0 0 0 0 16H0A8 8 0 0 0 0 0" style="fill:#a3834a;fill-opacity:1;fill-rule:nonzero;stroke:none" transform="translate(176 48)"/></g></svg>