<svg xmlns="http://www.w3.org/2000/svg" xml:space="preserve" viewBox="0 0 256 256"><path d="M184.496 28H71.504l-2.338 3.84-56 92-2.532 4.16 2.532 4.16 56 92 2.338 3.84h112.992l2.338-3.84 56-92 2.532-4.16-2.532-4.16-56-92z" style="opacity:.5;fill:#fff"/><path d="M180 36H76l-56 92 56 92h104l56-92z" style="fill:#737373"/><path d="M124 68.5h8v12h-8z" style="fill:#262626"/><path d="m139.9 131.915 31.941-31.941a2 2 0 0 0 0-2.828l-8.485-8.485a2 2 0 0 0-2.828 0l-21.113 21.113c-1.26 1.26-3.414.368-3.414-1.414V78.5a2 2 0 0 0-2-2h-12a2 2 0 0 0-2 2v29.858c0 1.782-2.154 2.674-3.414 1.414L95.473 88.66a2 2 0 0 0-2.828 0l-8.485 8.485a2 2 0 0 0 0 2.828l31.941 31.941a2 2 0 0 0 1.414.586h20.971c.53 0 1.038-.21 1.414-.585" style="fill:#333"/><path d="M128 81.001c28.414 0 51.5 23.146 51.5 51.538S156.414 184 128 184s-51.5-23.069-51.5-51.461S99.586 81.001 128 81.001" style="fill:#ffcb05"/><path d="M128 85.978c-25.763 0-46.595 20.817-46.595 46.56s20.832 46.484 46.595 46.484 46.595-20.74 46.595-46.484-20.832-46.56-46.595-46.56" style="fill:#fff"/><path d="M134 72.5h-12a2 2 0 0 1-2-2v-4a2 2 0 0 1 2-2h12a2 2 0 0 1 2 2v4a2 2 0 0 1-2 2" style="fill:#333"/><path d="m128 136.5 24 20-20-24v4z" style="fill:#b80000"/><path d="M128 128.5a4 4 0 1 1 0 8 4 4 0 0 1 0-8m0-4c-4.411 0-8 3.589-8 8s3.589 8 8 8 8-3.589 8-8-3.589-8-8-8" style="fill:#262626"/><path d="m124 128.5 4-32 4 32-4-4z" style="fill:#262626"/></svg>