<svg xmlns="http://www.w3.org/2000/svg" xml:space="preserve" width="312.974" height="266.667"><defs><clipPath id="a" clipPathUnits="userSpaceOnUse"><path d="M0 256h256V0H0Z"/></clipPath><clipPath id="b" clipPathUnits="userSpaceOnUse"><path d="M10.635 228h234.73V28H10.635Z"/></clipPath><clipPath id="c" clipPathUnits="userSpaceOnUse"><path d="M0 256h256V0H0Z"/></clipPath></defs><g clip-path="url(#a)" transform="matrix(1.33333 0 0 -1.33333 -14.18 304)"><g clip-path="url(#b)" style="opacity:.5"><path d="M0 0h-112.992l-2.338-3.84-56-92-2.532-4.16 2.532-4.159 56-92 2.338-3.841H0l2.338 3.841 56 92L60.869-100l-2.531 4.16-56 92z" style="fill:#fff;fill-opacity:1;fill-rule:nonzero;stroke:none" transform="translate(184.496 228)"/></g></g><path d="M0 0h-104l-56-92 56-92H0l56 92z" style="fill:#757575;fill-opacity:1;fill-rule:nonzero;stroke:none" transform="matrix(1.33333 0 0 -1.33333 225.82 10.667)"/><g clip-path="url(#c)" transform="matrix(1.33333 0 0 -1.33333 -14.18 304)"><path d="M0 0a8.5 8.5 0 0 1-3.9-.94c-.583-.3-.671-.345-13.655-10.573-5.959-4.695-13.476-10.617-17.905-14.037v17.01C-35.46-3.831-39.291 0-44 0a8.5 8.5 0 0 1-3.9-.94c-.584-.3-.672-.345-13.655-10.573-8.398-6.616-19.901-15.678-21.474-16.725-2.775-1.851-4.431-4.752-4.431-7.762 0-3.013 1.661-5.917 4.443-7.77 1.573-1.048 13.087-10.118 21.494-16.739 12.954-10.204 13.041-10.249 13.608-10.541A8.6 8.6 0 0 1-44-72c4.504 0 8.244 3.568 8.509 8.031q.031.246.031.497v17.023c4.431-3.422 11.966-9.358 17.938-14.061C-4.569-70.713-4.481-70.758-3.915-71.05A8.6 8.6 0 0 1 0-72c4.505 0 8.244 3.568 8.51 8.031q.03.246.03.497V-8.54C8.54-3.831 4.709 0 0 0" style="fill:#404040;fill-opacity:1;fill-rule:nonzero;stroke:none" transform="translate(163.46 164)"/><path d="M0 0c2.98-1.987 33.984-26.676 34.72-27.056a4.527 4.527 0 0 1 6.604 3.968c.004.021.016.036.016.057V31.9a4.54 4.54 0 0 1-4.54 4.54 4.6 4.6 0 0 1-2.084-.503c-.74-.38-31.748-25.081-34.728-27.064C-1.668 7.769-2.66 6.104-2.66 4.44S-1.664 1.108 0 0" style="fill:#fff;fill-opacity:1;fill-rule:nonzero;stroke:none" transform="translate(82.66 123.56)"/><path d="M0 0c2.979-1.987 33.983-26.676 34.72-27.056a4.527 4.527 0 0 1 6.604 3.968c.004.021.016.036.016.057V31.9a4.54 4.54 0 0 1-4.54 4.54 4.6 4.6 0 0 1-2.084-.503c-.74-.38-31.748-25.081-34.728-27.064C-1.668 7.769-2.66 6.104-2.66 4.44S-1.664 1.108 0 0" style="fill:#fff;fill-opacity:1;fill-rule:nonzero;stroke:none" transform="translate(126.66 123.56)"/></g></svg>