<?xml version="1.0" encoding="UTF-8" standalone="no"?>
<svg
   xmlns:dc="http://purl.org/dc/elements/1.1/"
   xmlns:cc="http://creativecommons.org/ns#"
   xmlns:rdf="http://www.w3.org/1999/02/22-rdf-syntax-ns#"
   xmlns:svg="http://www.w3.org/2000/svg"
   xmlns="http://www.w3.org/2000/svg"
   viewBox="0 0 312.974 266.66665"
   height="266.66666"
   width="312.974"
   xml:space="preserve"
   id="svg2"
   version="1.1"><metadata
     id="metadata8"><rdf:RDF><cc:Work
         rdf:about=""><dc:format>image/svg+xml</dc:format><dc:type
           rdf:resource="http://purl.org/dc/dcmitype/StillImage" /></cc:Work></rdf:RDF></metadata><defs
     id="defs6"><clipPath
       id="clipPath18"
       clipPathUnits="userSpaceOnUse"><path
         id="path16"
         d="M 0,256 H 256 V 0 H 0 Z" /></clipPath><clipPath
       id="clipPath26"
       clipPathUnits="userSpaceOnUse"><path
         id="path24"
         d="M 10.6345,228 H 245.365 V 28 H 10.6345 Z" /></clipPath><clipPath
       id="clipPath46"
       clipPathUnits="userSpaceOnUse"><path
         id="path44"
         d="M 0,256 H 256 V 0 H 0 Z" /></clipPath></defs><g
     transform="matrix(1.3333333,0,0,-1.3333333,-14.179333,303.99999)"
     id="g10"><g
       id="g12"><g
         clip-path="url(#clipPath18)"
         id="g14"><g
           id="g20"><g
             id="g22" /><g
             id="g34"><g
               style="opacity:0.5"
               id="g32"
               clip-path="url(#clipPath26)"><g
                 id="g30"
                 transform="translate(184.4961,228)"><path
                   id="path28"
                   style="fill:#ffffff;fill-opacity:1;fill-rule:nonzero;stroke:none"
                   d="m 0,0 h -4.496 -104 -4.496 l -2.338,-3.84 -56,-92 -2.532,-4.16 2.532,-4.159 56,-92 2.338,-3.841 h 4.496 104 H 0 l 2.338,3.841 56,92 2.531,4.159 -2.531,4.16 -56,92 z" /></g></g></g></g></g></g><g
       transform="translate(180,220)"
       id="g36"><path
         id="path38"
         style="fill:#737373;fill-opacity:1;fill-rule:nonzero;stroke:none"
         d="m 0,0 h -104 l -56,-92 56,-92 H 0 l 56,92 z" /></g><g
       id="g40"><g
         clip-path="url(#clipPath46)"
         id="g42"><g
           transform="translate(177.7129,133.5249)"
           id="g48"><path
             id="path50"
             style="fill:#404040;fill-opacity:1;fill-rule:nonzero;stroke:none"
             d="m 0,0 c -1.475,1.475 -3.437,2.288 -5.523,2.288 h -36.378 v 36.378 c 0,2.086 -0.813,4.048 -2.287,5.523 -1.476,1.475 -3.438,2.288 -5.524,2.288 -4.307,0 -7.811,-3.504 -7.811,-7.811 V 2.288 h -36.378 c -4.307,0 -7.811,-3.504 -7.811,-7.811 0,-2.088 0.812,-4.049 2.287,-5.524 1.475,-1.475 3.437,-2.287 5.524,-2.287 h 36.378 v -36.378 c 0,-2.087 0.812,-4.049 2.287,-5.524 1.475,-1.475 3.437,-2.287 5.524,-2.287 4.307,0 7.811,3.504 7.811,7.811 v 36.378 h 36.378 c 2.086,0 4.048,0.812 5.523,2.287 1.476,1.475 2.288,3.437 2.288,5.524 C 2.288,-3.437 1.476,-1.475 0,0" /></g><g
           transform="translate(131.8975,124.1025)"
           id="g52"><path
             id="path54"
             style="fill:#ffffff;fill-opacity:1;fill-rule:nonzero;stroke:none"
             d="m 0,0 h 40.205 c 2.153,0 3.898,1.744 3.898,3.897 0,2.154 -1.745,3.898 -3.898,3.898 H 0 V 48 c 0,2.153 -1.744,3.897 -3.897,3.897 -2.154,0 -3.898,-1.744 -3.898,-3.897 V 7.795 H -48 c -2.153,0 -3.897,-1.744 -3.897,-3.898 0,-1.077 0.436,-2.05 1.141,-2.756 C -50.051,0.436 -49.077,0 -48,0 h 40.205 v -40.205 c 0,-1.076 0.436,-2.051 1.141,-2.756 0.705,-0.705 1.68,-1.142 2.757,-1.142 2.153,0 3.897,1.745 3.897,3.898 z" /></g></g></g></g></svg>