<svg xmlns="http://www.w3.org/2000/svg" xml:space="preserve" width="330.667" height="330.667"><defs><clipPath id="a" clipPathUnits="userSpaceOnUse"><path d="M0 256h256V0H0Z"/></clipPath><clipPath id="b" clipPathUnits="userSpaceOnUse"><path d="M4 252h248V4H4Z"/></clipPath></defs><g clip-path="url(#a)" transform="matrix(1.33333 0 0 -1.33333 -5.333 336)"><g clip-path="url(#b)" style="opacity:.5"><path d="M0 0c11.046 0 20-8.954 20-20S11.046-40 0-40s-20 8.954-20 20S-11.046 0 0 0m-87.676-107.682C-64.254-131.102-33.116-144 0-144c33.124 0 64.264 12.898 87.684 36.318C111.103-84.262 124-53.122 124-20s-12.897 64.262-36.316 87.682S33.124 104 0 104c-33.116 0-64.254-12.898-87.676-36.318C-111.1 44.26-124 13.121-124-20c0-33.12 12.9-64.26 36.324-87.682" style="fill:#fff;fill-opacity:1;fill-rule:nonzero;stroke:none" transform="translate(128 148)"/></g><path d="M0 0c23.992 0 43.505-19.517 43.505-43.505C43.505-67.492 23.992-87.01 0-87.01c-23.988 0-43.5 19.518-43.5 43.505S-23.988 0 0 0m0-159.505c64.07 0 116 51.935 116 116 0 64.066-51.93 116-116 116-64.051 0-116-51.934-116-116 0-64.065 51.949-116 116-116" style="fill:#ccc;fill-opacity:1;fill-rule:nonzero;stroke:none" transform="translate(128 171.505)"/><path d="M0 0c7.596 0 13.787-6.176 13.787-13.776 0-7.604-6.191-13.785-13.787-13.785-7.6 0-13.777 6.181-13.777 13.785C-13.777-6.176-7.6 0 0 0m-.001-59.776c25.364 0 46.003 20.651 46.003 46s-20.639 46-46.003 46c-25.338 0-45.997-20.651-45.997-46s20.659-46 45.997-46" style="fill:#e6e6e6;fill-opacity:1;fill-rule:nonzero;stroke:none" transform="translate(127.998 141.776)"/><path d="M0 0c-43.746 0-81.841-24.229-101.602-60h203.207C81.85-24.229 43.76 0 0 0" style="fill:#f2f2f2;fill-opacity:1;fill-rule:nonzero;stroke:none" transform="translate(127.998 244)"/><path d="M0 0a117 117 0 0 1-4.869-8h203.207a117 117 0 0 1-4.868 8z" style="fill:#00b800;fill-opacity:1;fill-rule:nonzero;stroke:none" transform="translate(31.266 192)"/></g></svg>