<svg xmlns="http://www.w3.org/2000/svg" xml:space="preserve" width="330.667" height="330.667"><defs><clipPath id="a" clipPathUnits="userSpaceOnUse"><path d="M0 256h256V0H0Z"/></clipPath><clipPath id="b" clipPathUnits="userSpaceOnUse"><path d="M4 252h248V4H4Z"/></clipPath><clipPath id="c" clipPathUnits="userSpaceOnUse"><path d="M0 256h256V0H0Z"/></clipPath></defs><g clip-path="url(#a)" transform="matrix(1.33333 0 0 -1.33333 -5.333 336)"><g clip-path="url(#b)" style="opacity:.5"><path d="M0 0h-248v-248H0V-8z" style="fill:#fff;fill-opacity:1;fill-rule:nonzero;stroke:none" transform="translate(252 252)"/></g></g><path d="M244 12H12v232h232z" style="fill:#262626;fill-opacity:1;fill-rule:nonzero;stroke:none" transform="matrix(1.33333 0 0 -1.33333 -5.333 336)"/><g clip-path="url(#c)" transform="matrix(1.33333 0 0 -1.33333 -5.333 336)"><path d="M0 0a8 8 0 1 1 0-16A8 8 0 0 1 0 0m-20 0a8 8 0 1 1 0-16 8 8 0 0 1 0 16m-20 0a8 8 0 1 1 0-16 8 8 0 0 1 0 16m-20 0a8 8 0 1 1 0-16 8 8 0 0 1 0 16m-20 0a8 8 0 1 1 0-16 8 8 0 0 1 0 16m-20 0a8 8 0 1 1 0-16 8 8 0 0 1 0 16m-20 0a8 8 0 1 1 0-16 8 8 0 0 1 0 16m-20 0a8 8 0 1 1 0-16 8 8 0 0 1 0 16m-20 0a8 8 0 1 1 0-16 8 8 0 0 1 0 16m-20 0a8 8 0 1 1 0-16 8 8 0 0 1 0 16m-20 0a8 8 0 1 1 0-16 8 8 0 0 1 0 16M0 20A8 8 0 1 1 0 4a8 8 0 0 1 0 16m-20 0a8 8 0 1 1 0-16 8 8 0 0 1 0 16m-20 0a8 8 0 1 1 0-16 8 8 0 0 1 0 16m-20 0a8 8 0 1 1 0-16 8 8 0 0 1 0 16m-20 0a8 8 0 1 1 0-16 8 8 0 0 1 0 16m-20 0a8 8 0 1 1 0-16 8 8 0 0 1 0 16m-20 0a8 8 0 1 1 0-16 8 8 0 0 1 0 16m-20 0a8 8 0 1 1 0-16 8 8 0 0 1 0 16m-20 0a8 8 0 1 1 0-16 8 8 0 0 1 0 16m-20 0a8 8 0 1 1 0-16 8 8 0 0 1 0 16m-20 0a8 8 0 1 1 0-16 8 8 0 0 1 0 16M0 40a8 8 0 1 1 0-16 8 8 0 0 1 0 16m-20 0a8 8 0 1 1 0-16 8 8 0 0 1 0 16m-20 0a8 8 0 1 1 0-16 8 8 0 0 1 0 16m-20 0a8 8 0 1 1 0-16 8 8 0 0 1 0 16m-20 0a8 8 0 1 1 0-16 8 8 0 0 1 0 16m-20 0a8 8 0 1 1 0-16 8 8 0 0 1 0 16m-20 0a8 8 0 1 1 0-16 8 8 0 0 1 0 16m-20 0a8 8 0 1 1 0-16 8 8 0 0 1 0 16m-20 0a8 8 0 1 1 0-16 8 8 0 0 1 0 16m-20 0a8 8 0 1 1 0-16 8 8 0 0 1 0 16m-20 0a8 8 0 1 1 0-16 8 8 0 0 1 0 16M0 60a8 8 0 1 1 0-16 8 8 0 0 1 0 16m-20 0a8 8 0 1 1 0-16 8 8 0 0 1 0 16m-20 0a8 8 0 1 1 0-16 8 8 0 0 1 0 16m-20 0a8 8 0 1 1 0-16 8 8 0 0 1 0 16m-20 0a8 8 0 1 1 0-16 8 8 0 0 1 0 16m-20 0a8 8 0 1 1 0-16 8 8 0 0 1 0 16m-20 0a8 8 0 1 1 0-16 8 8 0 0 1 0 16m-20 0a8 8 0 1 1 0-16 8 8 0 0 1 0 16m-20 0a8 8 0 1 1 0-16 8 8 0 0 1 0 16m-20 0a8 8 0 1 1 0-16 8 8 0 0 1 0 16m-20 0a8 8 0 1 1 0-16 8 8 0 0 1 0 16M0 80a8 8 0 1 1 0-16 8 8 0 0 1 0 16m-20 0a8 8 0 1 1 0-16 8 8 0 0 1 0 16m-20 0a8 8 0 1 1 0-16 8 8 0 0 1 0 16m-20 0a8 8 0 1 1 0-16 8 8 0 0 1 0 16m-20 0a8 8 0 1 1 0-16 8 8 0 0 1 0 16m-20 0a8 8 0 1 1 0-16 8 8 0 0 1 0 16m-20 0a8 8 0 1 1 0-16 8 8 0 0 1 0 16m-20 0a8 8 0 1 1 0-16 8 8 0 0 1 0 16m-20 0a8 8 0 1 1 0-16 8 8 0 0 1 0 16m-20 0a8 8 0 1 1 0-16 8 8 0 0 1 0 16m-20 0a8 8 0 1 1 0-16 8 8 0 0 1 0 16M0 100a8 8 0 1 1 0-16 8 8 0 0 1 0 16m-20 0a8 8 0 1 1 0-16 8 8 0 0 1 0 16m-20 0a8 8 0 1 1 0-16 8 8 0 0 1 0 16m-20 0a8 8 0 1 1 0-16 8 8 0 0 1 0 16m-20 0a8 8 0 1 1 0-16 8 8 0 0 1 0 16m-20 0a8 8 0 1 1 0-16 8 8 0 0 1 0 16m-20 0a8 8 0 1 1 0-16 8 8 0 0 1 0 16m-20 0a8 8 0 1 1 0-16 8 8 0 0 1 0 16m-20 0a8 8 0 1 1 0-16 8 8 0 0 1 0 16m-20 0a8 8 0 1 1 0-16 8 8 0 0 1 0 16m-20 0a8 8 0 1 1 0-16 8 8 0 0 1 0 16M0 120a8 8 0 1 1 0-16 8 8 0 0 1 0 16m-20 0a8 8 0 1 1 0-16 8 8 0 0 1 0 16m-20 0a8 8 0 1 1 0-16 8 8 0 0 1 0 16m-20 0a8 8 0 1 1 0-16 8 8 0 0 1 0 16m-20 0a8 8 0 1 1 0-16 8 8 0 0 1 0 16m-20 0a8 8 0 1 1 0-16 8 8 0 0 1 0 16m-20 0a8 8 0 1 1 0-16 8 8 0 0 1 0 16m-20 0a8 8 0 1 1 0-16 8 8 0 0 1 0 16m-20 0a8 8 0 1 1 0-16 8 8 0 0 1 0 16m-20 0a8 8 0 1 1 0-16 8 8 0 0 1 0 16m-20 0a8 8 0 1 1 0-16 8 8 0 0 1 0 16M0 140a8 8 0 1 1 0-16 8 8 0 0 1 0 16m-20 0a8 8 0 1 1 0-16 8 8 0 0 1 0 16m-20 0a8 8 0 1 1 0-16 8 8 0 0 1 0 16m-20 0a8 8 0 1 1 0-16 8 8 0 0 1 0 16m-20 0a8 8 0 1 1 0-16 8 8 0 0 1 0 16m-20 0a8 8 0 1 1 0-16 8 8 0 0 1 0 16m-20 0a8 8 0 1 1 0-16 8 8 0 0 1 0 16m-20 0a8 8 0 1 1 0-16 8 8 0 0 1 0 16m-20 0a8 8 0 1 1 0-16 8 8 0 0 1 0 16m-20 0a8 8 0 1 1 0-16 8 8 0 0 1 0 16m-20 0a8 8 0 1 1 0-16 8 8 0 0 1 0 16M0 160a8 8 0 1 1 0-16 8 8 0 0 1 0 16m-20 0a8 8 0 1 1 0-16 8 8 0 0 1 0 16m-20 0a8 8 0 1 1 0-16 8 8 0 0 1 0 16m-20 0a8 8 0 1 1 0-16 8 8 0 0 1 0 16m-20 0a8 8 0 1 1 0-16 8 8 0 0 1 0 16m-20 0a8 8 0 1 1 0-16 8 8 0 0 1 0 16m-20 0a8 8 0 1 1 0-16 8 8 0 0 1 0 16m-20 0a8 8 0 1 1 0-16 8 8 0 0 1 0 16m-20 0a8 8 0 1 1 0-16 8 8 0 0 1 0 16m-20 0a8 8 0 1 1 0-16 8 8 0 0 1 0 16m-20 0a8 8 0 1 1 0-16 8 8 0 0 1 0 16M0 180a8 8 0 1 1 0-16 8 8 0 0 1 0 16m-20 0a8 8 0 1 1 0-16 8 8 0 0 1 0 16m-20 0a8 8 0 1 1 0-16 8 8 0 0 1 0 16m-20 0a8 8 0 1 1 0-16 8 8 0 0 1 0 16m-20 0a8 8 0 1 1 0-16 8 8 0 0 1 0 16m-20 0a8 8 0 1 1 0-16 8 8 0 0 1 0 16m-20 0a8 8 0 1 1 0-16 8 8 0 0 1 0 16m-20 0a8 8 0 1 1 0-16 8 8 0 0 1 0 16m-20 0a8 8 0 1 1 0-16 8 8 0 0 1 0 16m-20 0a8 8 0 1 1 0-16 8 8 0 0 1 0 16m-20 0a8 8 0 1 1 0-16 8 8 0 0 1 0 16M0 200a8 8 0 1 1 0-16 8 8 0 0 1 0 16m-20 0a8 8 0 1 1 0-16 8 8 0 0 1 0 16m-20 0a8 8 0 1 1 0-16 8 8 0 0 1 0 16m-20 0a8 8 0 1 1 0-16 8 8 0 0 1 0 16m-20 0a8 8 0 1 1 0-16 8 8 0 0 1 0 16m-20 0a8 8 0 1 1 0-16 8 8 0 0 1 0 16m-20 0a8 8 0 1 1 0-16 8 8 0 0 1 0 16m-20 0a8 8 0 1 1 0-16 8 8 0 0 1 0 16m-20 0a8 8 0 1 1 0-16 8 8 0 0 1 0 16m-20 0a8 8 0 1 1 0-16 8 8 0 0 1 0 16m-12-8a8 8 0 1 0-16 0 8 8 0 0 0 16 0" style="fill:#191919;fill-opacity:1;fill-rule:nonzero;stroke:none" transform="translate(228 36)"/><path d="M0 0a8 8 0 1 1 0-16A8 8 0 0 1 0 0" style="fill:#0f0;fill-opacity:1;fill-rule:nonzero;stroke:none" transform="translate(168 136)"/><path d="M0 0a8 8 0 1 1 0-16A8 8 0 0 1 0 0" style="fill:#0f0;fill-opacity:1;fill-rule:nonzero;stroke:none" transform="translate(88 176)"/><path d="M0 0a8 8 0 1 1 0 16A8 8 0 0 1 0 0" style="fill:#0f0;fill-opacity:1;fill-rule:nonzero;stroke:none" transform="translate(88 80)"/><path d="M0 0a8 8 0 0 1-16 0c0-.726.105-1.425.286-2.094A67.5 67.5 0 0 1-3.082-6.301 7.98 7.98 0 0 1 0 0" style="fill:#0f0;fill-opacity:1;fill-rule:nonzero;stroke:none" transform="translate(116 68)"/><path d="M0 0a8 8 0 1 1 0-16A8 8 0 0 1 0 0" style="fill:#0f0;fill-opacity:1;fill-rule:nonzero;stroke:none" transform="translate(108 136)"/><path d="M0 0a8 8 0 0 1-3.074-.614A68 68 0 0 1 8-8.004V-8a8 8 0 0 1-8 8" style="fill:#0f0;fill-opacity:1;fill-rule:nonzero;stroke:none" transform="translate(88 76)"/><path d="M0 0a8 8 0 1 1 0-16A8 8 0 0 1 0 0" style="fill:#0f0;fill-opacity:1;fill-rule:nonzero;stroke:none" transform="translate(108 176)"/><path d="M0 0a8 8 0 1 1 0-16A8 8 0 0 1 0 0" style="fill:#0f0;fill-opacity:1;fill-rule:nonzero;stroke:none" transform="translate(88 116)"/><path d="M0 0a8 8 0 1 1-16 0A8 8 0 0 1 0 0" style="fill:#0f0;fill-opacity:1;fill-rule:nonzero;stroke:none" transform="translate(136 68)"/><path d="M0 0a8 8 0 1 1 0-16A8 8 0 0 1 0 0" style="fill:#0f0;fill-opacity:1;fill-rule:nonzero;stroke:none" transform="translate(108 156)"/><path d="M0 0v.004a68 68 0 0 1-11.074-7.39A8 8 0 0 1 0 0" style="fill:#0f0;fill-opacity:1;fill-rule:nonzero;stroke:none" transform="translate(96 188)"/><path d="M0 0a8 8 0 1 1 0-16A8 8 0 0 1 0 0" style="fill:#0f0;fill-opacity:1;fill-rule:nonzero;stroke:none" transform="translate(88 136)"/><path d="M0 0a8 8 0 1 1 0-16A8 8 0 0 1 0 0" style="fill:#0f0;fill-opacity:1;fill-rule:nonzero;stroke:none" transform="translate(88 156)"/><path d="M0 0h-.004a68 68 0 0 1 7.39-11.074A8 8 0 0 1 0 0" style="fill:#0f0;fill-opacity:1;fill-rule:nonzero;stroke:none" transform="translate(68 96)"/><path d="M0 0a8 8 0 0 1 0 16 8 8 0 0 1-2.093-.286A67.4 67.4 0 0 1-6.301 3.082 7.98 7.98 0 0 1 0 0" style="fill:#0f0;fill-opacity:1;fill-rule:nonzero;stroke:none" transform="translate(68 140)"/><path d="M0 0a8 8 0 1 1 0-16A8 8 0 0 1 0 0" style="fill:#0f0;fill-opacity:1;fill-rule:nonzero;stroke:none" transform="translate(188 136)"/><path d="M0 0a8 8 0 0 1-8-8 7.98 7.98 0 0 1 3.082-6.301 67.5 67.5 0 0 1 12.632 4.207C7.895-9.425 8-8.726 8-8a8 8 0 0 1-8 8" style="fill:#0f0;fill-opacity:1;fill-rule:nonzero;stroke:none" transform="translate(148 76)"/><path d="M0 0a8 8 0 1 1 0 16A8 8 0 0 1 0 0" style="fill:#0f0;fill-opacity:1;fill-rule:nonzero;stroke:none" transform="translate(68 120)"/><path d="M0 0a8 8 0 0 1-8 8 7.98 7.98 0 0 1-6.301-3.082 67.4 67.4 0 0 1 4.208-12.632A8 8 0 0 1-8-8a8 8 0 0 1 8 8" style="fill:#0f0;fill-opacity:1;fill-rule:nonzero;stroke:none" transform="translate(76 108)"/><path d="M0 0a8 8 0 0 1-7.386-11.074A68 68 0 0 1 .004 0z" style="fill:#0f0;fill-opacity:1;fill-rule:nonzero;stroke:none" transform="translate(188 96)"/><path d="M0 0v-.004a68 68 0 0 1 11.074 7.39A8 8 0 0 1 0 0" style="fill:#0f0;fill-opacity:1;fill-rule:nonzero;stroke:none" transform="translate(160 68)"/><path d="M0 0a8 8 0 0 1 11.074-7.386A68 68 0 0 1 0 .004Z" style="fill:#0f0;fill-opacity:1;fill-rule:nonzero;stroke:none" transform="translate(160 188)"/><path d="M0 0a8 8 0 0 1 7.386 11.074A68 68 0 0 1-.004 0Z" style="fill:#0f0;fill-opacity:1;fill-rule:nonzero;stroke:none" transform="translate(68 160)"/><path d="M0 0a8 8 0 1 1 0-16A8 8 0 0 1 0 0" style="fill:#0f0;fill-opacity:1;fill-rule:nonzero;stroke:none" transform="translate(168 176)"/><path d="M0 0a8 8 0 0 1 16 0 8 8 0 0 1-.286 2.093A67.4 67.4 0 0 1 3.082 6.301 7.98 7.98 0 0 1 0 0" style="fill:#0f0;fill-opacity:1;fill-rule:nonzero;stroke:none" transform="translate(140 188)"/><path d="M0 0a8 8 0 1 1 0-16A8 8 0 0 1 0 0" style="fill:#0f0;fill-opacity:1;fill-rule:nonzero;stroke:none" transform="translate(168 156)"/><path d="M0 0a8 8 0 1 1 0-16A8 8 0 0 1 0 0" style="fill:#0f0;fill-opacity:1;fill-rule:nonzero;stroke:none" transform="translate(148 116)"/><path d="M0 0a8 8 0 1 1 0-16A8 8 0 0 1 0 0" style="fill:#0f0;fill-opacity:1;fill-rule:nonzero;stroke:none" transform="translate(168 96)"/><path d="M0 0a8 8 0 1 1 0-16A8 8 0 0 1 0 0" style="fill:#0f0;fill-opacity:1;fill-rule:nonzero;stroke:none" transform="translate(148 96)"/><path d="M0 0a8 8 0 0 1 0-16c.726 0 1.425.105 2.094.286A67.5 67.5 0 0 1 6.301-3.082 7.98 7.98 0 0 1 0 0" style="fill:#0f0;fill-opacity:1;fill-rule:nonzero;stroke:none" transform="translate(188 116)"/><path d="M0 0h.004a68 68 0 0 1-7.39 11.074A8 8 0 0 1 0 0" style="fill:#0f0;fill-opacity:1;fill-rule:nonzero;stroke:none" transform="translate(188 160)"/><path d="M0 0a8 8 0 1 1 0-16A8 8 0 0 1 0 0" style="fill:#0f0;fill-opacity:1;fill-rule:nonzero;stroke:none" transform="translate(168 116)"/><path d="M0 0a8 8 0 1 1 0-16A8 8 0 0 1 0 0" style="fill:#0f0;fill-opacity:1;fill-rule:nonzero;stroke:none" transform="translate(148 136)"/><path d="M0 0a7.98 7.98 0 0 1 6.301 3.082 67.5 67.5 0 0 1-4.207 12.632A8 8 0 0 1 0 16 8 8 0 0 1 0 0" style="fill:#0f0;fill-opacity:1;fill-rule:nonzero;stroke:none" transform="translate(188 140)"/><path d="M0 0a8 8 0 1 1 0-16A8 8 0 0 1 0 0" style="fill:#0f0;fill-opacity:1;fill-rule:nonzero;stroke:none" transform="translate(108 96)"/><path d="M0 0a8 8 0 1 1 0-16A8 8 0 0 1 0 0" style="fill:#0f0;fill-opacity:1;fill-rule:nonzero;stroke:none" transform="translate(128 156)"/><path d="M0 0a8 8 0 1 1 0-16A8 8 0 0 1 0 0" style="fill:#0f0;fill-opacity:1;fill-rule:nonzero;stroke:none" transform="translate(128 176)"/><path d="M0 0a8 8 0 1 1 0-16A8 8 0 0 1 0 0" style="fill:#0f0;fill-opacity:1;fill-rule:nonzero;stroke:none" transform="translate(148 156)"/><path d="M0 0a8 8 0 1 1 0-16A8 8 0 0 1 0 0" style="fill:#0f0;fill-opacity:1;fill-rule:nonzero;stroke:none" transform="translate(108 116)"/><path d="M0 0a8 8 0 1 1 0-16A8 8 0 0 1 0 0" style="fill:#0f0;fill-opacity:1;fill-rule:nonzero;stroke:none" transform="translate(128 136)"/><path d="M0 0a8 8 0 0 1 8 8 7.98 7.98 0 0 1-3.082 6.301 67.4 67.4 0 0 1-12.632-4.208A8 8 0 0 1-8 8a8 8 0 0 1 8-8" style="fill:#0f0;fill-opacity:1;fill-rule:nonzero;stroke:none" transform="translate(108 180)"/><path d="M0 0a8 8 0 1 1 0-16A8 8 0 0 1 0 0" style="fill:#0f0;fill-opacity:1;fill-rule:nonzero;stroke:none" transform="translate(148 176)"/><path d="M0 0a8 8 0 1 1 0-16A8 8 0 0 1 0 0" style="fill:#0f0;fill-opacity:1;fill-rule:nonzero;stroke:none" transform="translate(128 96)"/><path d="M0 0a8 8 0 1 1 16 0A8 8 0 0 1 0 0" style="fill:#0f0;fill-opacity:1;fill-rule:nonzero;stroke:none" transform="translate(120 188)"/><path d="M0 0a8 8 0 1 1 0-16A8 8 0 0 1 0 0" style="fill:#0f0;fill-opacity:1;fill-rule:nonzero;stroke:none" transform="translate(128 116)"/></g></svg>