<svg xmlns="http://www.w3.org/2000/svg" xml:space="preserve" width="330.667" height="320"><defs><clipPath id="a" clipPathUnits="userSpaceOnUse"><path d="M0 256h256V0H0Z"/></clipPath><clipPath id="b" clipPathUnits="userSpaceOnUse"><path d="M4 248h248V8H4Z"/></clipPath></defs><g clip-path="url(#a)" transform="matrix(1.33333 0 0 -1.33333 -5.333 330.667)"><g clip-path="url(#b)" style="opacity:.5"><path d="M0 0v-220c0-5.514 4.486-10 10-10h228c5.514 0 10 4.486 10 10V0c0 5.514-4.486 10-10 10H10C4.486 10 0 5.514 0 0" style="fill:#fff;fill-opacity:1;fill-rule:nonzero;stroke:none" transform="translate(4 238)"/></g><path d="M0 0v-212h-136V-2a2 2 0 0 0 2 2z" style="fill:#191919;fill-opacity:1;fill-rule:nonzero;stroke:none" transform="translate(148 240)"/><path d="M0 0v-210h-100V2h98a2 2 0 0 0 2-2" style="fill:#333;fill-opacity:1;fill-rule:nonzero;stroke:none" transform="translate(244 238)"/><path d="m0 0 92-64.94v4L0 4Z" style="fill:#262626;fill-opacity:1;fill-rule:nonzero;stroke:none" transform="translate(148 106.607)"/><path d="m0 0 92-64.94v4L0 4Z" style="fill:#262626;fill-opacity:1;fill-rule:nonzero;stroke:none" transform="translate(148 98.607)"/><path d="m0 0 92-64.94v4L0 4Z" style="fill:#262626;fill-opacity:1;fill-rule:nonzero;stroke:none" transform="translate(148 114.607)"/><path d="m0 0 92-64.941v4L0 4Z" style="fill:#262626;fill-opacity:1;fill-rule:nonzero;stroke:none" transform="translate(148 130.608)"/><path d="m0 0 92-64.94v4L0 4Z" style="fill:#262626;fill-opacity:1;fill-rule:nonzero;stroke:none" transform="translate(148 122.607)"/><path d="m0 0-9.361 6.607v-4L-5.667 0Z" style="fill:#262626;fill-opacity:1;fill-rule:nonzero;stroke:none" transform="translate(157.361 32)"/><path d="m0 0-32.027 22.607v-4L-5.666 0Z" style="fill:#262626;fill-opacity:1;fill-rule:nonzero;stroke:none" transform="translate(180.027 32)"/><path d="m0 0-66.027 46.607v-4L-5.666 0Z" style="fill:#262626;fill-opacity:1;fill-rule:nonzero;stroke:none" transform="translate(214.027 32)"/><path d="m0 0-20.694 14.607v-4L-5.667 0Z" style="fill:#262626;fill-opacity:1;fill-rule:nonzero;stroke:none" transform="translate(168.694 32)"/><path d="m0 0-54.694 38.607v-4L-5.667 0Z" style="fill:#262626;fill-opacity:1;fill-rule:nonzero;stroke:none" transform="translate(202.694 32)"/><path d="m0 0-88.694 62.607v-4L-5.667 0Z" style="fill:#262626;fill-opacity:1;fill-rule:nonzero;stroke:none" transform="translate(236.694 32)"/><path d="m0 0 92-64.941v4L0 4Z" style="fill:#262626;fill-opacity:1;fill-rule:nonzero;stroke:none" transform="translate(148 138.608)"/><path d="m0 0-43.361 30.607v-4L-5.667 0Z" style="fill:#262626;fill-opacity:1;fill-rule:nonzero;stroke:none" transform="translate(191.361 32)"/><path d="m0 0-77.361 54.607v-4L-5.667 0Z" style="fill:#262626;fill-opacity:1;fill-rule:nonzero;stroke:none" transform="translate(225.361 32)"/><path d="m0 0 92-64.941v4L0 4Z" style="fill:#262626;fill-opacity:1;fill-rule:nonzero;stroke:none" transform="translate(148 202.608)"/><path d="m0 0 92-64.941v4L0 4Z" style="fill:#262626;fill-opacity:1;fill-rule:nonzero;stroke:none" transform="translate(148 194.608)"/><path d="m0 0 92-64.941v4L0 4Z" style="fill:#262626;fill-opacity:1;fill-rule:nonzero;stroke:none" transform="translate(148 170.608)"/><path d="m0 0 92-64.941v4L0 4Z" style="fill:#262626;fill-opacity:1;fill-rule:nonzero;stroke:none" transform="translate(148 162.608)"/><path d="m0 0 92-64.941v4L0 4Z" style="fill:#262626;fill-opacity:1;fill-rule:nonzero;stroke:none" transform="translate(148 154.608)"/><path d="m0 0 92-64.941v4L0 4Z" style="fill:#262626;fill-opacity:1;fill-rule:nonzero;stroke:none" transform="translate(148 186.608)"/><path d="m0 0 92-64.941v4L0 4Z" style="fill:#262626;fill-opacity:1;fill-rule:nonzero;stroke:none" transform="translate(148 178.608)"/><path d="m0 0 92-64.941v4L0 4Z" style="fill:#262626;fill-opacity:1;fill-rule:nonzero;stroke:none" transform="translate(148 146.608)"/><path d="M0 0v-16h-134a2 2 0 0 0-2 2V0Z" style="fill:#262626;fill-opacity:1;fill-rule:nonzero;stroke:none" transform="translate(148 32)"/><path d="M0 0v-14a2 2 0 0 0-2-2h-98V0Z" style="fill:#404040;fill-opacity:1;fill-rule:nonzero;stroke:none" transform="translate(244 32)"/><path d="M240 16h2v224h-2z" style="fill:#262626;fill-opacity:1;fill-rule:nonzero;stroke:none"/><path d="M14 16h2v224h-2z" style="fill:#404040;fill-opacity:1;fill-rule:nonzero;stroke:none"/><path d="m0 0-9.333 6.588A40 40 0 0 1 0 0" style="fill:#191919;fill-opacity:1;fill-rule:nonzero;stroke:none" transform="translate(173.862 72.353)"/><path d="m0 0 77.893-54.982a40 40 0 0 1-2.455 5.732L0 4Z" style="fill:#191919;fill-opacity:1;fill-rule:nonzero;stroke:none" transform="translate(152 175.784)"/><path d="m0 0 79.843-56.359a40 40 0 0 1-.623 4.439L0 4Z" style="fill:#191919;fill-opacity:1;fill-rule:nonzero;stroke:none" transform="translate(152 167.784)"/><path d="m0 0 79.741-56.287q.211 1.889.242 3.829L0 4Z" style="fill:#191919;fill-opacity:1;fill-rule:nonzero;stroke:none" transform="translate(152 159.784)"/><path d="m0 0 78.314-55.281c.333 1.112.626 2.241.863 3.391L0 4Z" style="fill:#191919;fill-opacity:1;fill-rule:nonzero;stroke:none" transform="translate(152 151.784)"/><path d="m0 0 68-48v4L0 4Z" style="fill:#191919;fill-opacity:1;fill-rule:nonzero;stroke:none" transform="translate(152 199.784)"/><path d="m0 0 70.133-49.505A41 41 0 0 1 68-47.229V-44L0 4Z" style="fill:#191919;fill-opacity:1;fill-rule:nonzero;stroke:none" transform="translate(152 183.784)"/><path d="m0 0 68-48v4L0 4Z" style="fill:#191919;fill-opacity:1;fill-rule:nonzero;stroke:none" transform="translate(152 191.784)"/><path d="m0 0 48.934-34.541q2.05.481 4.013 1.167L-.238 4.169C-.231 2.761-.149 1.371 0 0" style="fill:#191919;fill-opacity:1;fill-rule:nonzero;stroke:none" transform="translate(152.244 103.611)"/><path d="m0 0 36.814-25.986c.221-.003.44-.017.663-.017 1.569 0 3.114.101 4.636.276L-1.51 5.066A40 40 0 0 1 0 0" style="fill:#191919;fill-opacity:1;fill-rule:nonzero;stroke:none" transform="translate(154.523 94.003)"/><path d="m0 0 75.845-53.537q.737 1.49 1.351 3.046L0 4Z" style="fill:#191919;fill-opacity:1;fill-rule:nonzero;stroke:none" transform="translate(152 143.784)"/><path d="m0 0 56.792-40.088a40 40 0 0 1 3.26 1.698L0 4Z" style="fill:#191919;fill-opacity:1;fill-rule:nonzero;stroke:none" transform="translate(152 111.784)"/><path d="m0 0 9.333-6.588a39.7 39.7 0 0 1 10.886-3.684L-7.162 9.056A40.1 40.1 0 0 1 0 0" style="fill:#191919;fill-opacity:1;fill-rule:nonzero;stroke:none" transform="translate(164.53 78.94)"/><path d="m0 0 72.459-51.147a40 40 0 0 1 1.809 2.723L0 4Z" style="fill:#191919;fill-opacity:1;fill-rule:nonzero;stroke:none" transform="translate(152 135.784)"/><path d="m0 0 63.021-44.485a40 40 0 0 1 2.712 2.086L0 4Z" style="fill:#191919;fill-opacity:1;fill-rule:nonzero;stroke:none" transform="translate(152 119.784)"/><path d="m0 0 68.205-48.145c.778.776 1.52 1.587 2.233 2.423L0 4Z" style="fill:#191919;fill-opacity:1;fill-rule:nonzero;stroke:none" transform="translate(152 127.784)"/></g></svg>