<?xml version="1.0" encoding="UTF-8" standalone="no"?>
<svg
   xmlns:dc="http://purl.org/dc/elements/1.1/"
   xmlns:cc="http://creativecommons.org/ns#"
   xmlns:rdf="http://www.w3.org/1999/02/22-rdf-syntax-ns#"
   xmlns:svg="http://www.w3.org/2000/svg"
   xmlns="http://www.w3.org/2000/svg"
   viewBox="0 0 181.33333 330.66598"
   height="330.66599"
   width="181.33333"
   xml:space="preserve"
   id="svg2"
   version="1.1"><metadata
     id="metadata8"><rdf:RDF><cc:Work
         rdf:about=""><dc:format>image/svg+xml</dc:format><dc:type
           rdf:resource="http://purl.org/dc/dcmitype/StillImage" /></cc:Work></rdf:RDF></metadata><defs
     id="defs6"><clipPath
       id="clipPath18"
       clipPathUnits="userSpaceOnUse"><path
         id="path16"
         d="M 0,256 H 256 V 0 H 0 Z" /></clipPath><clipPath
       id="clipPath26"
       clipPathUnits="userSpaceOnUse"><path
         id="path24"
         d="M 60,252 H 196 V 4 H 60 Z" /></clipPath><clipPath
       id="clipPath44"
       clipPathUnits="userSpaceOnUse"><path
         id="path42"
         d="M 0,256 H 256 V 0 H 0 Z" /></clipPath></defs><g
     transform="matrix(1.3333333,0,0,-1.3333333,-79.999998,335.99999)"
     id="g10"><g
       id="g12"><g
         clip-path="url(#clipPath18)"
         id="g14"><g
           id="g20"><g
             id="g22" /><g
             id="g34"><g
               style="opacity:0.5"
               id="g32"
               clip-path="url(#clipPath26)"><g
                 id="g30"
                 transform="translate(192,53.6045)"><path
                   id="path28"
                   style="fill:#ffffff;fill-opacity:1;fill-rule:nonzero;stroke:none"
                   d="m 0,0 v 190.396 8 h -8 -112 -8 v -8 -190.431 c -2.439,-1.986 -4,-5.014 -4,-8.398 v -10.343 c 0,-3.384 1.561,-6.411 4,-8.398 v -14.43 -8 h 8 20 72 20 8 v 8 14.395 c 2.438,1.975 4,4.991 4,8.366 V -8.366 C 4,-4.991 2.438,-1.975 0,0" /></g></g></g></g></g></g><path
       id="path36"
       style="fill:#b3b3b3;fill-opacity:1;fill-rule:nonzero;stroke:none"
       d="M 160,112 H 96 v 72 h 64 z" /><g
       id="g38"><g
         clip-path="url(#clipPath44)"
         id="g40"><g
           transform="translate(77.1714,32)"
           id="g46"><path
             id="path48"
             style="fill:#a3834a;fill-opacity:1;fill-rule:nonzero;stroke:none"
             d="m 0,0 h -6.343 c -1.562,0 -2.828,1.267 -2.828,2.828 v 10.344 c 0,1.561 1.266,2.828 2.828,2.828 L 0,16 c 1.562,0 2.829,-1.267 2.829,-2.828 V 2.828 C 2.829,1.267 1.562,0 0,0" /></g><g
           transform="translate(185.2383,32)"
           id="g50"><path
             id="path52"
             style="fill:#a3834a;fill-opacity:1;fill-rule:nonzero;stroke:none"
             d="M 0,0 H -5.918 C -7.443,0 -8.68,1.236 -8.68,2.762 v 10.476 c 0,1.526 1.237,2.762 2.762,2.762 H 0 c 1.525,0 2.762,-1.236 2.762,-2.762 V 2.762 C 2.762,1.236 1.525,0 0,0" /></g><path
           id="path54"
           style="fill:#bf9a57;fill-opacity:1;fill-rule:nonzero;stroke:none"
           d="m 156,116 h -56 v 64 h 56 z M 72,12 H 184 V 244 H 72 Z" /><path
           id="path56"
           style="fill:#d9af63;fill-opacity:1;fill-rule:nonzero;stroke:none"
           d="m 156,116 h -56 v 64 h 56 z m 3.031,72 H 96.968 C 94.225,188 92,185.693 92,182.848 V 12 h 72 v 170.848 c 0,2.845 -2.225,5.152 -4.969,5.152" /><g
           transform="translate(153.7139,240)"
           id="g58"><path
             id="path60"
             style="fill:#0000b8;fill-opacity:1;fill-rule:nonzero;stroke:none"
             d="M 0,0 H -51.428 C -57.1,0 -61.714,-5.64 -61.714,-12.571 V -31.429 C -61.714,-38.36 -57.1,-44 -51.428,-44 H 0 c 5.672,0 10.286,5.64 10.286,12.571 v 18.858 C 10.286,-5.64 5.672,0 0,0" /></g><path
           id="path62"
           style="fill:#0000b8;fill-opacity:1;fill-rule:nonzero;stroke:none"
           d="M 112,84 H 96 v 12 h 16 z" /><path
           id="path64"
           style="fill:#0000b8;fill-opacity:1;fill-rule:nonzero;stroke:none"
           d="m 136,84 h -16 v 12 h 16 z" /><path
           id="path66"
           style="fill:#0000b8;fill-opacity:1;fill-rule:nonzero;stroke:none"
           d="m 160,84 h -16 v 12 h 16 z" /><path
           id="path68"
           style="fill:#0000b8;fill-opacity:1;fill-rule:nonzero;stroke:none"
           d="M 112,68 H 96 v 12 h 16 z" /><path
           id="path70"
           style="fill:#0000b8;fill-opacity:1;fill-rule:nonzero;stroke:none"
           d="m 136,68 h -16 v 12 h 16 z" /><path
           id="path72"
           style="fill:#0000b8;fill-opacity:1;fill-rule:nonzero;stroke:none"
           d="m 160,68 h -16 v 12 h 16 z" /><path
           id="path74"
           style="fill:#0000b8;fill-opacity:1;fill-rule:nonzero;stroke:none"
           d="M 112,52 H 96 v 12 h 16 z" /><path
           id="path76"
           style="fill:#0000b8;fill-opacity:1;fill-rule:nonzero;stroke:none"
           d="m 136,52 h -16 v 12 h 16 z" /><path
           id="path78"
           style="fill:#0000b8;fill-opacity:1;fill-rule:nonzero;stroke:none"
           d="m 160,52 h -16 v 12 h 16 z" /><path
           id="path80"
           style="fill:#0000b8;fill-opacity:1;fill-rule:nonzero;stroke:none"
           d="M 112,36 H 96 v 12 h 16 z" /><path
           id="path82"
           style="fill:#0000b8;fill-opacity:1;fill-rule:nonzero;stroke:none"
           d="m 136,36 h -16 v 12 h 16 z" /><path
           id="path84"
           style="fill:#0000b8;fill-opacity:1;fill-rule:nonzero;stroke:none"
           d="m 160,36 h -16 v 12 h 16 z" /></g></g></g></svg>