<svg xmlns="http://www.w3.org/2000/svg" xml:space="preserve" width="330.667" height="213.333"><defs><clipPath id="a" clipPathUnits="userSpaceOnUse"><path d="M0 256h256V0H0Z"/></clipPath><clipPath id="b" clipPathUnits="userSpaceOnUse"><path d="M4 208h248V48H4Z"/></clipPath></defs><g clip-path="url(#a)" transform="matrix(1.33333 0 0 -1.33333 -5.333 277.333)"><g clip-path="url(#b)" style="opacity:.5"><path d="M0 0h-240v-144h76v-16h96v16H8V0z" style="fill:#fff;fill-opacity:1;fill-rule:nonzero;stroke:none" transform="translate(244 208)"/></g></g><path d="M156 56h-56v28h56z" style="fill:#191919;fill-opacity:1;fill-rule:nonzero;stroke:none" transform="matrix(1.33333 0 0 -1.33333 -5.333 277.333)"/><path d="M168 56H88v4h80zm76 16H12v128h232z" style="fill:#262626;fill-opacity:1;fill-rule:nonzero;stroke:none" transform="matrix(1.33333 0 0 -1.33333 -5.333 277.333)"/><path d="M240 76H16v120h224z" style="fill:#191919;fill-opacity:1;fill-rule:nonzero;stroke:none" transform="matrix(1.33333 0 0 -1.33333 -5.333 277.333)"/><path d="M236 80H20v112h216z" style="fill:#bf9a57;fill-opacity:1;fill-rule:nonzero;stroke:none" transform="matrix(1.33333 0 0 -1.33333 -5.333 277.333)"/><path d="M20 176h8v8h-8zm40 0H40v8h20z" style="fill:#0f0;fill-opacity:1;fill-rule:nonzero;stroke:none" transform="matrix(1.33333 0 0 -1.33333 -5.333 277.333)"/><path d="M36 152h-8v8h8zm0-16h-8v8h8zm0-24h-8v8h8zm0-16h-8v8h8zm16 64h-8v8h8zm0-16h-8v8h8zm0-24h-8v8h8zm0-16h-8v8h8zm16 32h-8v8h8zm0 16h-8v8h8zm0-32h-8v8h8zm0-24h-8v8h8zm0-16h-8v8h8zm16 40h-8v8h8zm0-16h-8v8h8zm0-16h-8v8h8zm16 48h-8v8h8zm0-16h-8v8h8zm0-24h-8v8h8z" style="fill:#a3834a;fill-opacity:1;fill-rule:nonzero;stroke:none" transform="matrix(1.33333 0 0 -1.33333 -5.333 277.333)"/><path d="M28 168h-8v8h8zm16-8h-8v8h8zm-16-16h-8v8h8zm16-8h-8v8h8zm16 8h-8v8h8z" style="fill:#d9af63;fill-opacity:1;fill-rule:nonzero;stroke:none" transform="matrix(1.33333 0 0 -1.33333 -5.333 277.333)"/><path d="M84 152h-8v8h8zm16 8h-8v8h8zm0-16h-8v8h8z" style="fill:#a3834a;fill-opacity:1;fill-rule:nonzero;stroke:none" transform="matrix(1.33333 0 0 -1.33333 -5.333 277.333)"/><path d="M76 160h-8v8h8zm16 0h-8v8h8zm-16-16h-8v8h8z" style="fill:#d9af63;fill-opacity:1;fill-rule:nonzero;stroke:none" transform="matrix(1.33333 0 0 -1.33333 -5.333 277.333)"/><path d="M76 144h-8v8h8zm-48-16h-8v8h8zm32-16h-8v8h8zm0-16h-8v8h8zm16 8h-8v8h8zm-32 16h-8v8h8zm16 8h-8v8h8zm16 0h-8v8h8zm16 8h-8v8h8zm0-24h-8v8h8zm0-16h-8v8h8zm0-16h-8v8h8zm-64 24h-8v8h8zm208 56h-8v8h8zm0-20h-8v8h8zm0-16h-8v8h8zm0-24h-8v8h8zM44 88h-8v8h8z" style="fill:#d9af63;fill-opacity:1;fill-rule:nonzero;stroke:none" transform="matrix(1.33333 0 0 -1.33333 -5.333 277.333)"/><path d="M116 152h-8v8h8zm0-16h-8v8h8zm0-24h-8v8h8zm0-16h-8v8h8zm16 64h-8v8h8zm0-16h-8v8h8zm0-24h-8v8h8zm0-16h-8v8h8zm16 32h-8v8h8zm0 16h-8v8h8zm0-32h-8v8h8zm0-24h-8v8h8zm0-16h-8v8h8zm16 40h-8v8h8zm0-16h-8v8h8zm0-16h-8v8h8zm16 48h-8v8h8zm0-16h-8v8h8zm0-24h-8v8h8z" style="fill:#a3834a;fill-opacity:1;fill-rule:nonzero;stroke:none" transform="matrix(1.33333 0 0 -1.33333 -5.333 277.333)"/><path d="M108 164h-8v8h8zm16-4h-8v8h8zm64 0h-8v8h8zm16 0h-8v8h8zm-96-16h-8v8h8zm16-8h-8v8h8zm16 8h-8v8h8zm16 0h-8v8h8zm-48-16h-8v8h8zm32-16h-8v8h8zm0-16h-8v8h8zm16 8h-8v8h8zm32-8h-8v8h8zm-64 24h-8v8h8zm16 8h-8v8h8zm16 0h-8v8h8zm32-16h-8v8h8zm-16-16h-8v8h8zm0-16h-8v8h8zm-64 24h-8v8h8z" style="fill:#d9af63;fill-opacity:1;fill-rule:nonzero;stroke:none" transform="matrix(1.33333 0 0 -1.33333 -5.333 277.333)"/><path d="M180 152h-8v8h8zm0-16h-8v8h8zm0-40h-8v8h8zm16 48h-8v8h8zm0-24h-8v8h8zm0-16h-8v8h8zm16 32h-8v8h8zm0 16h-8v8h8zm0-32h-8v8h8zm0-24h-8v8h8zm0-16h-8v8h8zm16 40h-8v8h8zm0-16h-8v8h8zm0-16h-8v8h8z" style="fill:#a3834a;fill-opacity:1;fill-rule:nonzero;stroke:none" transform="matrix(1.33333 0 0 -1.33333 -5.333 277.333)"/><path d="M172 144h-8v8h8zm16-8h-8v8h8zm16 8h-8v8h8z" style="fill:#d9af63;fill-opacity:1;fill-rule:nonzero;stroke:none" transform="matrix(1.33333 0 0 -1.33333 -5.333 277.333)"/><path d="M228 152h-8v8h8zm0 16h-8v8h8z" style="fill:#a3834a;fill-opacity:1;fill-rule:nonzero;stroke:none" transform="matrix(1.33333 0 0 -1.33333 -5.333 277.333)"/><path d="M220 144h-8v8h8z" style="fill:#d9af63;fill-opacity:1;fill-rule:nonzero;stroke:none" transform="matrix(1.33333 0 0 -1.33333 -5.333 277.333)"/><path d="M220 144h-8v8h8zm-48-16h-8v8h8zm32-16h-8v8h8zm0-16h-8v8h8zm16 8h-8v8h8zm-16 24h-8v8h8zm16 0h-8v8h8zm-32-40h-8v8h8zm-64 0h-8v8h8z" style="fill:#d9af63;fill-opacity:1;fill-rule:nonzero;stroke:none" transform="matrix(1.33333 0 0 -1.33333 -5.333 277.333)"/><path d="M236 176H20v16h216z" style="fill:#0f0;fill-opacity:1;fill-rule:nonzero;stroke:none" transform="matrix(1.33333 0 0 -1.33333 -5.333 277.333)"/><path d="M52 168h-8v16h8zm32 0H68v16h16zm24 4h-8v12h8zm24-4h-8v16h8zm32-4h-8v20h8zm32 8h-16v12h16zm40 0h-16v12h16z" style="fill:#0f0;fill-opacity:1;fill-rule:nonzero;stroke:none" transform="matrix(1.33333 0 0 -1.33333 -5.333 277.333)"/><path d="M236 176h-12v8h12zm-20 0h-8v8h8zm-36-8h-8v16h8z" style="fill:#0f0;fill-opacity:1;fill-rule:nonzero;stroke:none" transform="matrix(1.33333 0 0 -1.33333 -5.333 277.333)"/><path d="M52 184h-8v8h8z" style="fill:#007b00;fill-opacity:1;fill-rule:nonzero;stroke:none" transform="matrix(1.33333 0 0 -1.33333 -5.333 277.333)"/><path d="M68 176h-8v8h8zm16 8h-8v8h8zm16-8h-8v8h8zm-56 0h-8v8h8z" style="fill:#00b800;fill-opacity:1;fill-rule:nonzero;stroke:none" transform="matrix(1.33333 0 0 -1.33333 -5.333 277.333)"/><path d="M132 176h-8v8h8zm-40 8h-8v8h8zm88 0h-8v8h8zm16 0h-8v8h8zm-120 0h-8v8h8zm-48-8h-8v8h8zm128 8h8v8h-8z" style="fill:#007b00;fill-opacity:1;fill-rule:nonzero;stroke:none" transform="matrix(1.33333 0 0 -1.33333 -5.333 277.333)"/><path d="M212 176h8v8h-8zm-72 0h8v8h-8zm-16 8h8v8h-8zm-16-8h8v8h-8zm56 0h8v8h-8z" style="fill:#00b800;fill-opacity:1;fill-rule:nonzero;stroke:none" transform="matrix(1.33333 0 0 -1.33333 -5.333 277.333)"/><path d="M116 184h8v8h-8zm104 0h8v8h-8zm-88 0h8v8h-8z" style="fill:#007b00;fill-opacity:1;fill-rule:nonzero;stroke:none" transform="matrix(1.33333 0 0 -1.33333 -5.333 277.333)"/></svg>