<svg xmlns="http://www.w3.org/2000/svg" xml:space="preserve" width="333.994" height="288"><defs><clipPath id="a" clipPathUnits="userSpaceOnUse"><path d="M0 256h256V0H0Z"/></clipPath><clipPath id="b" clipPathUnits="userSpaceOnUse"><path d="M2.752 236h250.496V20H2.752Z"/></clipPath><clipPath id="c" clipPathUnits="userSpaceOnUse"><path d="M0 256h256V0H0Z"/></clipPath></defs><g clip-path="url(#a)" transform="matrix(1.33333 0 0 -1.33333 -3.67 314.667)"><g clip-path="url(#b)" style="opacity:.5"><path d="M0 0h-125.217l-2.312-3.986-58-100-2.327-4.014 2.327-4.014 58-100 2.312-3.986H0l2.312 3.986 58 100L62.64-108l-2.328 4.014-58 100z" style="fill:#fff;fill-opacity:1;fill-rule:nonzero;stroke:none" transform="translate(190.608 236)"/></g></g><path d="M0 0h-116l-58-100 58-100H0l58 100z" style="fill:#000;fill-opacity:1;fill-rule:nonzero;stroke:none" transform="matrix(1.33333 0 0 -1.33333 244.33 10.667)"/><g clip-path="url(#c)" transform="matrix(1.33333 0 0 -1.33333 -3.67 314.667)"><path d="M0 0c0-7.72.022-15.124-.004-22.526-.075-21.055-.545-42.116-.129-63.161.3-15.203-8.957-22.473-20.626-24.967-4.365-.933-9.181-.904-13.605-.18-9.047 1.481-13.893 11.177-10.36 19.662 5.718 13.733 21.993 20.152 35.599 14.04.907-.407 1.812-.824 3.361-1.531v59.482c-3.926-.851-8.18-1.756-12.425-2.697-16.639-3.693-33.264-7.443-49.922-11.045-2.412-.522-3.157-1.445-3.168-3.962-.1-21.053-.326-42.105-.61-63.156-.226-16.767-13.544-29.179-29.744-27.863-10.222.829-16.52 9.934-13.672 19.767 4.267 14.736 21.235 21.73 34.788 14.341.858-.468 1.712-.945 3.195-1.764 0 4.388-.046 8.289.008 12.188.29 21.142.622 42.283.876 63.425.021 1.716.412 2.589 2.25 3.009C-49.891-11.397-25.612-5.777-1.328-.181-.988-.103-.634-.084 0 0" style="fill:#ccc;fill-opacity:1;fill-rule:nonzero;stroke:none" transform="translate(185.991 192)"/></g></svg>