<svg xmlns="http://www.w3.org/2000/svg" xml:space="preserve" width="314.667" height="330.667"><defs><clipPath id="a" clipPathUnits="userSpaceOnUse"><path d="M0 256h256V0H0Z"/></clipPath><clipPath id="b" clipPathUnits="userSpaceOnUse"><path d="M12 252h236V4H12Z"/></clipPath></defs><g clip-path="url(#a)" transform="matrix(1.33333 0 0 -1.33333 -16 336)"><g clip-path="url(#b)" style="opacity:.5"><path d="M0 0h-188c-13.234 0-24-10.766-24-24v-214c0-5.514 4.486-10 10-10H14c5.514 0 10 4.486 10 10v214C24-10.766 13.233 0 0 0" style="fill:#fff;fill-opacity:1;fill-rule:nonzero;stroke:none" transform="translate(224 252)"/></g><path d="M0 0h-216a2 2 0 0 0-2 2v214c0 8.836 7.164 16 16 16h188c8.837 0 16-7.164 16-16V2a2 2 0 0 0-2-2" style="fill:#bfbfbf;fill-opacity:1;fill-rule:nonzero;stroke:none" transform="translate(238 12)"/><path d="M0 0h-160a4 4 0 0 0-4 4v120a8 8 0 0 0 8 8H-4a8 8 0 0 0 8-8V4a4 4 0 0 0-4-4" style="fill:#b3b3b3;fill-opacity:1;fill-rule:nonzero;stroke:none" transform="translate(208 84)"/><path d="M0 0h65.395c.989 0 1.377-1.283.554-1.832L33.252-23.63a1 1 0 0 0-1.109 0L-.555-1.832C-1.378-1.283-.989 0 0 0" style="fill:#b3b3b3;fill-opacity:1;fill-rule:nonzero;stroke:none" transform="translate(95.303 48)"/><path d="M0 0h-151a4 4 0 0 0-4 4v96a4 4 0 0 0 4 4H2a3 3 0 0 0 3-3V5a5 5 0 0 0-5-5" style="fill:#fff;fill-opacity:1;fill-rule:nonzero;stroke:none" transform="translate(203 88)"/><path d="M0 0c0-6.744-5.467-12.21-12.21-12.21S-24.421-6.744-24.421 0s5.467 12.21 12.211 12.21C-5.467 12.21 0 6.744 0 0" style="fill:#404040;fill-opacity:1;fill-rule:nonzero;stroke:none" transform="translate(201.263 170.737)"/></g></svg>