<svg xmlns="http://www.w3.org/2000/svg" xml:space="preserve" width="320" height="330.667"><defs><clipPath id="a" clipPathUnits="userSpaceOnUse"><path d="M0 256h256V0H0Z"/></clipPath><clipPath id="b" clipPathUnits="userSpaceOnUse"><path d="M8 252h240V4H8Z"/></clipPath></defs><g clip-path="url(#a)" transform="matrix(1.33333 0 0 -1.33333 -10.667 336)"><g clip-path="url(#b)" style="opacity:.5"><path d="M0 0h-220c-5.514 0-10-4.486-10-10v-228c0-5.514 4.486-10 10-10H0c5.514 0 10 4.486 10 10v228C10-4.486 5.514 0 0 0" style="fill:#fff;fill-opacity:1;fill-rule:nonzero;stroke:none" transform="translate(238 252)"/></g><path d="M0 0a2 2 0 0 0 2 2v4a2 2 0 1 0 0 4v4a2 2 0 1 0 0 4v4a2 2 0 1 0 0 4v4a2 2 0 1 0 0 4v6a2 2 0 0 1-2 2h-220a2 2 0 0 1-2-2v-6a2 2 0 1 0 0-4v-4a2 2 0 1 0 0-4v-4a2 2 0 1 0 0-4v-4a2 2 0 1 0 0-4V2a2 2 0 1 0 0-4v-186a2 2 0 0 1 2-2H0a2 2 0 0 1 2 2V-2a2 2 0 0 0-2 2" style="fill:#666;fill-opacity:1;fill-rule:nonzero;stroke:none" transform="translate(238 202)"/><path d="M0 0c-1.485 0-2.6-1.091-2.6-2.545V-56h104v53.455C101.4-1.091 100.285 0 98.8 0Z" style="fill:#595959;fill-opacity:1;fill-rule:nonzero;stroke:none" transform="translate(78.6 68)"/><path d="M0 0a6 6 0 1 1 0-12A6 6 0 0 1 0 0" style="fill:#4c4c4c;fill-opacity:1;fill-rule:nonzero;stroke:none" transform="translate(34 188)"/><path d="M0 0a4 4 0 1 0 0-8 4 4 0 0 0 0 8" style="fill:#a3834a;fill-opacity:1;fill-rule:nonzero;stroke:none" transform="translate(34 186)"/><path d="M0 0a6 6 0 1 1 0-12A6 6 0 0 1 0 0" style="fill:#4c4c4c;fill-opacity:1;fill-rule:nonzero;stroke:none" transform="translate(222 188)"/><path d="M0 0a4 4 0 1 0 0-8 4 4 0 0 0 0 8" style="fill:#a3834a;fill-opacity:1;fill-rule:nonzero;stroke:none" transform="translate(222 186)"/><path d="M0 0a6 6 0 1 1 0-12A6 6 0 0 1 0 0" style="fill:#4c4c4c;fill-opacity:1;fill-rule:nonzero;stroke:none" transform="translate(34 32)"/><path d="M0 0a4 4 0 1 0 0-8 4 4 0 0 0 0 8" style="fill:#a3834a;fill-opacity:1;fill-rule:nonzero;stroke:none" transform="translate(34 30)"/><path d="M0 0a6 6 0 1 1 0-12A6 6 0 0 1 0 0" style="fill:#4c4c4c;fill-opacity:1;fill-rule:nonzero;stroke:none" transform="translate(222 32)"/><path d="M0 0a4 4 0 1 0 0-8 4 4 0 0 0 0 8" style="fill:#a3834a;fill-opacity:1;fill-rule:nonzero;stroke:none" transform="translate(222 30)"/><path d="M0 0h-87a.5.5 0 0 0-.5.5v19a.5.5 0 0 0 .5.5H0a.5.5 0 0 0 .5-.5V.5A.5.5 0 0 0 0 0" style="fill:#e6e6e6;fill-opacity:1;fill-rule:nonzero;stroke:none" transform="translate(171.5 216)"/><path d="M144 44h-32v24h32zM58 12h-2v232h2zm142 0h-2v232h2z" style="fill:#4c4c4c;fill-opacity:1;fill-rule:nonzero;stroke:none"/><path d="M0 0h-160c-6.945 0-10-3.089-10-10.11v-55.78c0-7.021 3.055-10.11 10-10.11H0c6.945 0 10 3.089 10 10.11v55.78C10-3.089 6.945 0 0 0" style="fill:#e6e6e6;fill-opacity:1;fill-rule:nonzero;stroke:none" transform="translate(208 168)"/><path d="M0 0h-191.178c-1.333 0-2.411.895-2.411 2s1.078 2 2.411 2H0c1.333 0 2.411-.895 2.411-2S1.333 0 0 0" style="fill:#4c4c4c;fill-opacity:1;fill-rule:nonzero;stroke:none" transform="translate(223.589 84)"/><path d="M0 0c0-6.627-5.373-12-12-12S-24-6.627-24 0s5.373 12 12 12S0 6.627 0 0" style="fill:#595959;fill-opacity:1;fill-rule:nonzero;stroke:none" transform="translate(140 194)"/><path d="M0 0v-39.235c-38.203-14.451-62.044-14.451-100.247 0V0h-1.876v-40.578l1.228-.465C-80.863-48.621-65.204-52-50.123-52S-19.384-48.621.649-41.043l1.228.465V0Z" style="fill:#4c4c4c;fill-opacity:1;fill-rule:nonzero;stroke:none" transform="translate(178.123 244)"/><path d="M0 0a2 2 0 1 0 0-4h10a2 2 0 1 1 0 4z" style="fill:#595959;fill-opacity:1;fill-rule:nonzero;stroke:none" transform="translate(16 236)"/><path d="M0 0a2 2 0 1 0 0-4h10a2 2 0 1 1 0 4z" style="fill:#595959;fill-opacity:1;fill-rule:nonzero;stroke:none" transform="translate(16 228)"/><path d="M0 0a2 2 0 1 0 0-4h10a2 2 0 1 1 0 4z" style="fill:#595959;fill-opacity:1;fill-rule:nonzero;stroke:none" transform="translate(16 220)"/><path d="M0 0a2 2 0 1 0 0-4h10a2 2 0 1 1 0 4z" style="fill:#595959;fill-opacity:1;fill-rule:nonzero;stroke:none" transform="translate(16 212)"/><path d="M0 0a2 2 0 1 0 0-4h10a2 2 0 1 1 0 4z" style="fill:#595959;fill-opacity:1;fill-rule:nonzero;stroke:none" transform="translate(16 204)"/><path d="M0 0a2 2 0 1 1 0-4h-10a2 2 0 1 0 0 4z" style="fill:#595959;fill-opacity:1;fill-rule:nonzero;stroke:none" transform="translate(240 236)"/><path d="M0 0a2 2 0 1 1 0-4h-10a2 2 0 1 0 0 4z" style="fill:#595959;fill-opacity:1;fill-rule:nonzero;stroke:none" transform="translate(240 228)"/><path d="M0 0a2 2 0 1 1 0-4h-10a2 2 0 1 0 0 4z" style="fill:#595959;fill-opacity:1;fill-rule:nonzero;stroke:none" transform="translate(240 220)"/><path d="M0 0a2 2 0 1 1 0-4h-10a2 2 0 1 0 0 4z" style="fill:#595959;fill-opacity:1;fill-rule:nonzero;stroke:none" transform="translate(240 212)"/><path d="M0 0a2 2 0 1 1 0-4h-10a2 2 0 1 0 0 4z" style="fill:#595959;fill-opacity:1;fill-rule:nonzero;stroke:none" transform="translate(240 204)"/></g></svg>