<svg xmlns="http://www.w3.org/2000/svg" xml:space="preserve" width="277.333" height="330.667"><defs><clipPath id="a" clipPathUnits="userSpaceOnUse"><path d="M0 256h256V0H0Z"/></clipPath><clipPath id="b" clipPathUnits="userSpaceOnUse"><path d="M24 252h208V4H24Z"/></clipPath></defs><g clip-path="url(#a)" transform="matrix(1.33333 0 0 -1.33333 -32 336)"><g clip-path="url(#b)" style="opacity:.5"><path d="M0 0h-16a8 8 0 0 1-6.93-4h-138.14A8 8 0 0 1-168 0h-16c-6.617 0-12-5.383-12-12v-224c0-6.617 5.383-12 12-12H0c6.617 0 12 5.383 12 12v224C12-5.383 6.617 0 0 0" style="fill:#fff;fill-opacity:1;fill-rule:nonzero;stroke:none" transform="translate(220 252)"/></g><path d="M0 0v-216h-152V0h-16a4 4 0 0 1-4-4v-224a4 4 0 0 1 4-4H16a4 4 0 0 1 4 4V-4a4 4 0 0 1-4 4z" style="fill:#7b0000;fill-opacity:1;fill-rule:nonzero;stroke:none" transform="translate(204 244)"/><path d="M0 0h-176a4 4 0 0 0-4 4v212a4 4 0 0 0 4 4H0a4 4 0 0 0 4-4V4a4 4 0 0 0-4-4" style="fill:#b80000;fill-opacity:1;fill-rule:nonzero;stroke:none" transform="translate(216 20)"/><path d="M212 28H44v212h168z" style="fill:#333;fill-opacity:1;fill-rule:nonzero;stroke:none"/><path d="m0 0-2.828 2.828-28 28-2.829 2.829V28l28-28z" style="fill:#262626;fill-opacity:1;fill-rule:nonzero;stroke:none" transform="translate(77.657 28)"/><path d="m0 0-2.828-2.829-28-28-2.829-2.828H-28l28 28z" style="fill:#262626;fill-opacity:1;fill-rule:nonzero;stroke:none" transform="translate(212 61.657)"/></g></svg>