<svg xmlns="http://www.w3.org/2000/svg" xml:space="preserve" viewBox="0 0 256 256"><path d="M250.555 92.977a9 9 0 0 0-.56-3.636C245.356 76.875 233.302 68.5 220 68.5h-6a9.95 9.95 0 0 0-5.994 2H83.222a8.8 8.8 0 0 0-4.088-1h-4.268a8.8 8.8 0 0 0-2.866.475 8.8 8.8 0 0 0-2.866-.475h-4.268a8.8 8.8 0 0 0-4.088 1H47.994a9.95 9.95 0 0 0-5.994-2h-6c-13.302 0-25.356 8.375-29.995 20.841a9 9 0 0 0-.56 3.636A31.8 31.8 0 0 0 4 102.5v53c0 17.645 14.355 32 32 32h184c17.645 0 32-14.355 32-32v-53c0-3.258-.485-6.45-1.445-9.523" style="opacity:.5;fill:#fff"/><path d="M79.134 77.5h-4.268a.866.866 0 0 0-.866.866v.134h-4v-.134a.866.866 0 0 0-.866-.866h-4.268a.866.866 0 0 0-.866.866v2.268c0 .478.388.866.866.866h14.268a.866.866 0 0 0 .866-.866v-2.268a.866.866 0 0 0-.866-.866" style="fill:#b62971"/><path d="M241.564 93c.706 0 1.18-.708.934-1.369C239.1 82.503 230.311 76 220 76h-6a2 2 0 0 0-2 2v15zM44 93V78a2 2 0 0 0-2-2h-6c-10.311 0-19.1 6.503-22.497 15.631-.246.661.228 1.369.933 1.369z" style="fill:#e6e6e6"/><path d="M220 180H36c-13.255 0-24-10.745-24-24v-53c0-13.255 10.745-24 24-24h184c13.255 0 24 10.745 24 24v53c0 13.255-10.745 24-24 24" style="fill:#ed4792"/><path d="M41 88h6v2h-6zm174 0h-2v-2h-2v2h-2v2h2v2h2v-2h2z" style="fill:#d9d9d9"/><circle cx="32" cy="106" r="8" style="fill:#ccc"/><path d="M31 105v-6.931A7.994 7.994 0 0 0 24.069 105zm2 2v6.931A7.994 7.994 0 0 0 39.931 107zm0-2h6.931A7.994 7.994 0 0 0 33 98.069zm-2 2h-6.931A7.994 7.994 0 0 0 31 113.931z" style="fill:#d9d9d9"/><circle cx="32" cy="106" r="6" style="fill:#e6e6e6"/><path d="M41 134h-5v-5a1 1 0 0 0-1-1h-6a1 1 0 0 0-1 1v5h-5a1 1 0 0 0-1 1v6a1 1 0 0 0 1 1h5v5a1 1 0 0 0 1 1h6a1 1 0 0 0 1-1v-5h5a1 1 0 0 0 1-1v-6a1 1 0 0 0-1-1" style="fill:#e6e6e6"/><path d="m31 132 1-2 1 2zm2 12-1 2-1-2zm-7-5-2-1 2-1zm12-2 2 1-2 1z" style="fill:#d9d9d9"/><path d="M46.667 164h-5.333a1.333 1.333 0 0 1-1.333-1.333v-5.333c0-.736.597-1.333 1.333-1.333h5.333c.736 0 1.333.597 1.333 1.333v5.333c0 .736-.597 1.333-1.333 1.333" style="fill:#e6e6e6"/><path d="M44 158c1.103 0 2 .897 2 2s-.897 2-2 2-2-.897-2-2 .897-2 2-2m0-1a3 3 0 1 0 0 6 3 3 0 0 0 0-6" style="fill:#d9d9d9"/><circle cx="212" cy="160" r="4" style="fill:#d9d9d9"/><circle cx="212" cy="160" r="3" style="fill:#e6e6e6"/><path d="M201.902 172H54.098A4.1 4.1 0 0 1 50 167.902V86.098A4.1 4.1 0 0 1 54.098 82h147.804A4.1 4.1 0 0 1 206 86.098v81.804a4.1 4.1 0 0 1-4.098 4.098" style="fill:#b62971"/><path d="M60 88h136v78H60z" style="fill:#262626"/><circle cx="224" cy="136" r="8" style="fill:#ccc"/><path d="M223 135v-6.931a7.994 7.994 0 0 0-6.931 6.931zm2 2v6.931a7.994 7.994 0 0 0 6.931-6.931zm0-2h6.931a7.994 7.994 0 0 0-6.931-6.931zm-2 2h-6.931a7.994 7.994 0 0 0 6.931 6.931z" style="fill:#d9d9d9"/><circle cx="224" cy="136" r="6" style="fill:#e6e6e6"/><circle cx="216" cy="106" r="4" style="fill:#d9d9d9"/><circle cx="224" cy="98" r="4" style="fill:#d9d9d9"/><circle cx="224" cy="114" r="4" style="fill:#d9d9d9"/><circle cx="232" cy="106" r="4" style="fill:#d9d9d9"/></svg>