<svg xmlns="http://www.w3.org/2000/svg" xml:space="preserve" viewBox="0 0 256 256"><path d="M220 28H36C18.355 28 4 42.355 4 60v136c0 17.645 14.355 32 32 32h184c17.645 0 32-14.355 32-32V60c0-17.645-14.355-32-32-32" style="opacity:.5;fill:#fff"/><path d="M220 220H36c-13.255 0-24-10.745-24-24V60c0-13.255 10.745-24 24-24h184c13.255 0 24 10.745 24 24v136c0 13.255-10.745 24-24 24" style="fill:#d9d4bc"/><path d="M219.883 196H36.117C29.425 196 24 190.575 24 183.883V72.117C24 65.425 29.425 60 36.117 60h183.766C226.575 60 232 65.425 232 72.117v111.766c0 6.692-5.425 12.117-12.117 12.117" style="fill:#737373"/><path d="M194 188H62a4 4 0 0 1-4-4v-36a4 4 0 0 1 4-4h132a4 4 0 0 1 4 4v36a4 4 0 0 1-4 4" style="fill:#d9d4bc"/><path d="M182 208h-8a2 2 0 1 1 0-4h8a2 2 0 1 1 0 4" style="fill:#fff"/><path d="M66.138 184h27.724A2.14 2.14 0 0 0 96 181.862v-31.724A2.14 2.14 0 0 0 93.862 148H66.138A2.14 2.14 0 0 0 64 150.138v31.724c0 1.181.957 2.138 2.138 2.138m96 0h27.724a2.14 2.14 0 0 0 2.138-2.138v-31.724a2.14 2.14 0 0 0-2.138-2.138h-27.724a2.14 2.14 0 0 0-2.138 2.138v31.724c0 1.181.957 2.138 2.138 2.138" style="fill:#404040"/><path d="M223.959 132H32.041A4.04 4.04 0 0 1 28 127.959V100.04A4.04 4.04 0 0 1 32.041 96H223.96a4.04 4.04 0 0 1 4.041 4.041v27.919a4.04 4.04 0 0 1-4.042 4.04" style="fill:#d9d4bc"/><path d="M222 128H34a2 2 0 0 1-2-2v-24a2 2 0 0 1 2-2h188a2 2 0 0 1 2 2v24a2 2 0 0 1-2 2" style="fill:#404040"/><path d="M0 0h128v28H0z" style="fill:none"/><path d="M77 128a1 1 0 0 1-1-1v-26a1 1 0 0 1 2 0v26a1 1 0 0 1-1 1m102 0a1 1 0 0 1-1-1v-26a1 1 0 0 1 2 0v26a1 1 0 0 1-1 1" style="fill:#4d4d4d"/><path d="M33 113h190v2H33z" style="fill:#333"/></svg>