<svg xmlns="http://www.w3.org/2000/svg" xml:space="preserve" width="256" height="330.667"><defs><clipPath id="a" clipPathUnits="userSpaceOnUse"><path d="M0 256h256V0H0Z"/></clipPath><clipPath id="b" clipPathUnits="userSpaceOnUse"><path d="M32 252h192V4H32Z"/></clipPath></defs><g clip-path="url(#a)" transform="matrix(1.33333 0 0 -1.33333 -42.667 336)"><g clip-path="url(#b)" style="opacity:.5"><path d="M0 0v-38.343c0-3.206 1.248-6.219 3.515-8.485l25.656-25.657A11.92 11.92 0 0 1 37.657-76H180c6.617 0 12 5.383 12 12v48c0 1.401-.242 2.748-.686 4 .444 1.252.686 2.599.686 4V8c0 5.215-3.344 9.664-8 11.314v13.372c4.656 1.65 8 6.099 8 11.314v116c0 6.617-5.383 12-12 12h-58.343a11.92 11.92 0 0 1-8.485-3.515l-.485-.485H79.313l-.485.485A11.92 11.92 0 0 1 70.343 172H12c-6.617 0-12-5.383-12-12V20c0-3.546 1.546-6.738 4-8.937V8.937A11.97 11.97 0 0 1 0 0" style="fill:#fff;fill-opacity:1;fill-rule:nonzero;stroke:none" transform="translate(32 80)"/></g><path d="M0 0v-38.343a4 4 0 0 1 1.171-2.829l25.658-25.656A4 4 0 0 1 29.657-68H172a4 4 0 0 1 4 4v48a4 4 0 0 1-4 4h-4v52h4a4 4 0 0 1 4 4v116a4 4 0 0 1-4 4h-58.343a4 4 0 0 1-2.829-1.172l-1.656-1.656a4 4 0 0 0-2.828-1.172H69.657a4 4 0 0 0-2.828 1.171l-1.658 1.658A4 4 0 0 1 62.343 164H4a4 4 0 0 1-4-4V20a4 4 0 0 1 4-4V4a4 4 0 0 1-4-4" style="fill:#191919;fill-opacity:1;fill-rule:nonzero;stroke:none" transform="translate(40 80)"/><path d="M0 0h4a4 4 0 0 0 4-4v-16a4 4 0 0 0-4-4H0Z" style="fill:#999;fill-opacity:1;fill-rule:nonzero;stroke:none" transform="translate(208 92)"/><path d="M0 0h120c6.627 0 12-5.373 12-12v-164c0-6.627-5.373-12-12-12H0c-6.627 0-12 5.373-12 12v164C-12-5.373-6.627 0 0 0" style="fill:#262626;fill-opacity:1;fill-rule:nonzero;stroke:none" transform="translate(68 228)"/><path d="M0 0c-4.411 0-8 3.589-8 8v164c0 4.411 3.589 8 8 8h120c4.411 0 8-3.589 8-8V8c0-4.411-3.589-8-8-8z" style="fill:#3b3b3b;fill-opacity:1;fill-rule:nonzero;stroke:none" transform="translate(68 44)"/><path d="M0 0h108a2 2 0 0 0 0-4H0a2 2 0 0 0 0 4" style="fill:#333;fill-opacity:1;fill-rule:nonzero;stroke:none" transform="translate(74 236)"/><path d="m0 0 39.984 48h-24v48a8 8 0 0 1-8 8h-16a8 8 0 0 1-8-8V48h-24z" style="fill:#fff;fill-opacity:1;fill-rule:nonzero;stroke:none" transform="translate(128.016 108)"/><path d="M0 0c0-11.046-8.954-20-20-20s-20 8.954-20 20 8.954 20 20 20S0 11.046 0 0" style="fill:#fff;fill-opacity:1;fill-rule:nonzero;stroke:none" transform="translate(148 84)"/><path d="M0 0v-32l16 16z" style="fill:#3b3b3b;fill-opacity:1;fill-rule:nonzero;stroke:none" transform="translate(128 100)"/><path d="M124 68h-4v32h4z" style="fill:#3b3b3b;fill-opacity:1;fill-rule:nonzero;stroke:none"/></g></svg>