<svg xmlns="http://www.w3.org/2000/svg" xml:space="preserve" width="266.667" height="325.333"><defs><clipPath id="a" clipPathUnits="userSpaceOnUse"><path d="M0 256h256V0H0Z"/></clipPath><clipPath id="b" clipPathUnits="userSpaceOnUse"><path d="M28 252h200V8H28Z"/></clipPath><clipPath id="c" clipPathUnits="userSpaceOnUse"><path d="M0 256h256V0H0Z"/></clipPath></defs><g clip-path="url(#a)" transform="matrix(1.33333 0 0 -1.33333 -37.333 336)"><g clip-path="url(#b)" style="opacity:.5"><path d="M0 0h-74v4h-36V0h-82v-240H8V0Z" style="fill:#fff;fill-opacity:1;fill-rule:nonzero;stroke:none" transform="translate(220 248)"/></g></g><path d="M0 0h-184v-112H0V-2.074z" style="fill:#333;fill-opacity:1;fill-rule:nonzero;stroke:none" transform="matrix(1.33333 0 0 -1.33333 256 165.333)"/><path d="M216 20H40v104h176z" style="fill:#b3b3b3;fill-opacity:1;fill-rule:nonzero;stroke:none" transform="matrix(1.33333 0 0 -1.33333 -37.333 336)"/><path d="M80 20H40v104h40zm136 0h-40v104h40z" style="fill:#a6a6a6;fill-opacity:1;fill-rule:nonzero;stroke:none" transform="matrix(1.33333 0 0 -1.33333 -37.333 336)"/><path d="M78 22H42v100h36zm100 0h36v100h-36z" style="fill:#333;fill-opacity:1;fill-rule:nonzero;stroke:none" transform="matrix(1.33333 0 0 -1.33333 -37.333 336)"/><path d="M0 0h-184v-112H0V-2.074z" style="fill:#333;fill-opacity:1;fill-rule:nonzero;stroke:none" transform="matrix(1.33333 0 0 -1.33333 256 16)"/><path d="M216 132H40v104h176z" style="fill:#b3b3b3;fill-opacity:1;fill-rule:nonzero;stroke:none" transform="matrix(1.33333 0 0 -1.33333 -37.333 336)"/><path d="M138 236h-20v8h20z" style="fill:#262626;fill-opacity:1;fill-rule:nonzero;stroke:none" transform="matrix(1.33333 0 0 -1.33333 -37.333 336)"/><path d="M176 124H80v8h96z" style="fill:#a6a6a6;fill-opacity:1;fill-rule:nonzero;stroke:none" transform="matrix(1.33333 0 0 -1.33333 -37.333 336)"/><path d="M80 124H40v8h40zm136 0h-40v8h40z" style="fill:#262626;fill-opacity:1;fill-rule:nonzero;stroke:none" transform="matrix(1.33333 0 0 -1.33333 -37.333 336)"/><path d="M86 126h-2v4h2zm4 0h-2v4h2zm4 0h-2v4h2zm4 0h-2v4h2zm4 0h-2v4h2zm4 0h-2v4h2zm4 0h-2v4h2zm4 0h-2v4h2zm4 0h-2v4h2zm4 0h-2v4h2zm4 0h-2v4h2zm4 0h-2v4h2zm4 0h-2v4h2zm4 0h-2v4h2zm4 0h-2v4h2zm4 0h-2v4h2zm4 0h-2v4h2zm4 0h-2v4h2zm4 0h-2v4h2zm4 0h-2v4h2zm4 0h-2v4h2zm4 0h-2v4h2z" style="fill:#666;fill-opacity:1;fill-rule:nonzero;stroke:none" transform="matrix(1.33333 0 0 -1.33333 -37.333 336)"/><path d="M74 138H46v46h28zm-30 94v-96h32v96zm166-94h-28v46h28zm-30 94v-96h32v96z" style="fill:#a6a6a6;fill-opacity:1;fill-rule:nonzero;stroke:none" transform="matrix(1.33333 0 0 -1.33333 -37.333 336)"/><g clip-path="url(#c)" transform="matrix(1.33333 0 0 -1.33333 -37.333 336)"><path d="M0 0a4 4 0 1 0-8 0 4 4 0 0 0 8 0" style="fill:#a6a6a6;fill-opacity:1;fill-rule:nonzero;stroke:none" transform="translate(176 220)"/><path d="M0 0a2 2 0 1 0-4.001.001A2 2 0 0 0 0 0" style="fill:#a3834a;fill-opacity:1;fill-rule:nonzero;stroke:none" transform="translate(174 220)"/><path d="M0 0a4 4 0 1 0-8 0 4 4 0 0 0 8 0" style="fill:#a6a6a6;fill-opacity:1;fill-rule:nonzero;stroke:none" transform="translate(200 148)"/><path d="M0 0a2 2 0 1 0-4.001.001A2 2 0 0 0 0 0" style="fill:#a3834a;fill-opacity:1;fill-rule:nonzero;stroke:none" transform="translate(198 148)"/><path d="M0 0a4 4 0 1 0-8 0 4 4 0 0 0 8 0" style="fill:#a6a6a6;fill-opacity:1;fill-rule:nonzero;stroke:none" transform="translate(88 220)"/><path d="M0 0a2 2 0 1 0-4.001.001A2 2 0 0 0 0 0" style="fill:#a3834a;fill-opacity:1;fill-rule:nonzero;stroke:none" transform="translate(86 220)"/><path d="M0 0a4 4 0 1 0-8 0 4 4 0 0 0 8 0" style="fill:#a6a6a6;fill-opacity:1;fill-rule:nonzero;stroke:none" transform="translate(64 148)"/><path d="M0 0a2 2 0 1 0-4.001.001A2 2 0 0 0 0 0" style="fill:#a3834a;fill-opacity:1;fill-rule:nonzero;stroke:none" transform="translate(62 148)"/><path d="M168 156H88v56h80zm0-108H88v56h80z" style="fill:#485915;fill-opacity:1;fill-rule:nonzero;stroke:none"/><path d="M0 0h-40a4 4 0 0 0 0 8H0a4 4 0 0 0 0-8" style="fill:#333;fill-opacity:1;fill-rule:nonzero;stroke:none" transform="translate(148 220)"/><path d="M0 0h-40a4 4 0 0 0 0 8H0a4 4 0 0 0 0-8" style="fill:#333;fill-opacity:1;fill-rule:nonzero;stroke:none" transform="translate(148 28)"/><path d="M172 112H84v2h88z" style="fill:#a6a6a6;fill-opacity:1;fill-rule:nonzero;stroke:none"/><path d="m0 0 36-8v-2L0-2Z" style="fill:#b80000;fill-opacity:1;fill-rule:nonzero;stroke:none" transform="translate(42 120)"/><path d="m0 0 36-8v-2L0-2Z" style="fill:#b80000;fill-opacity:1;fill-rule:nonzero;stroke:none" transform="translate(42 108)"/><path d="m0 0 36-8v-2L0-2Z" style="fill:#b80000;fill-opacity:1;fill-rule:nonzero;stroke:none" transform="translate(42 96)"/><path d="m0 0 36-8v-2L0-2Z" style="fill:#b3b3b3;fill-opacity:1;fill-rule:nonzero;stroke:none" transform="translate(42 60)"/><path d="m0 0 36-8v-2L0-2Z" style="fill:#b3b3b3;fill-opacity:1;fill-rule:nonzero;stroke:none" transform="translate(42 48)"/><path d="m0 0-36-8v-2L0-2z" style="fill:#b80000;fill-opacity:1;fill-rule:nonzero;stroke:none" transform="translate(214 120)"/><path d="m0 0-36-8v-2L0-2z" style="fill:#b80000;fill-opacity:1;fill-rule:nonzero;stroke:none" transform="translate(214 108)"/><path d="m0 0-36-8v-2L0-2z" style="fill:#b80000;fill-opacity:1;fill-rule:nonzero;stroke:none" transform="translate(214 96)"/><path d="m0 0-36-8v-2L0-2z" style="fill:#b3b3b3;fill-opacity:1;fill-rule:nonzero;stroke:none" transform="translate(214 60)"/><path d="m0 0-36-8v-2L0-2z" style="fill:#b3b3b3;fill-opacity:1;fill-rule:nonzero;stroke:none" transform="translate(214 48)"/><path d="M68 96H48v16h20z" style="fill:#a3834a;fill-opacity:1;fill-rule:nonzero;stroke:none"/><path d="M0 0h-4c-2.206 0-4-1.794-4-4s1.794-4 4-4h4c2.206 0 4 1.794 4 4S2.206 0 0 0" style="fill:#999;fill-opacity:1;fill-rule:nonzero;stroke:none" transform="translate(194 116)"/><path d="M0 0h-4a2 2 0 0 0 0 4h4a2 2 0 0 0 0-4" style="fill:#666;fill-opacity:1;fill-rule:nonzero;stroke:none" transform="translate(194 110)"/><path d="M0 0h-4c-2.206 0-4-1.794-4-4s1.794-4 4-4h4c2.206 0 4 1.794 4 4S2.206 0 0 0" style="fill:#999;fill-opacity:1;fill-rule:nonzero;stroke:none" transform="translate(194 104)"/><path d="M0 0h-4a2 2 0 0 0 0 4h4a2 2 0 0 0 0-4" style="fill:#666;fill-opacity:1;fill-rule:nonzero;stroke:none" transform="translate(194 98)"/><path d="M0 0h-4c-2.206 0-4-1.794-4-4s1.794-4 4-4h4c2.206 0 4 1.794 4 4S2.206 0 0 0" style="fill:#999;fill-opacity:1;fill-rule:nonzero;stroke:none" transform="translate(194 92)"/><path d="M0 0h-4a2 2 0 0 0 0 4h4a2 2 0 0 0 0-4" style="fill:#666;fill-opacity:1;fill-rule:nonzero;stroke:none" transform="translate(194 86)"/><path d="M0 0a2 2 0 1 0-4.001.001A2 2 0 0 0 0 0" style="fill:#191919;fill-opacity:1;fill-rule:nonzero;stroke:none" transform="translate(208 94)"/><path d="M0 0a2 2 0 1 0-4.001.001A2 2 0 0 0 0 0" style="fill:#191919;fill-opacity:1;fill-rule:nonzero;stroke:none" transform="translate(208 106)"/><path d="M0 0c-5.514 0-10-4.486-10-10s4.486-10 10-10 10 4.486 10 10S5.514 0 0 0" style="fill:#999;fill-opacity:1;fill-rule:nonzero;stroke:none" transform="translate(58 60)"/><path d="M0 0a8 8 0 1 0-16 0A8 8 0 0 0 0 0" style="fill:#262626;fill-opacity:1;fill-rule:nonzero;stroke:none" transform="translate(66 50)"/><path d="M0 0c-5.514 0-10-4.486-10-10s4.486-10 10-10 10 4.486 10 10S5.514 0 0 0" style="fill:#999;fill-opacity:1;fill-rule:nonzero;stroke:none" transform="translate(198 60)"/><path d="M0 0a8 8 0 1 0-16 0A8 8 0 0 0 0 0" style="fill:#262626;fill-opacity:1;fill-rule:nonzero;stroke:none" transform="translate(206 50)"/></g></svg>