<svg xmlns="http://www.w3.org/2000/svg" xml:space="preserve" width="298.667" height="330.667"><defs><clipPath id="a" clipPathUnits="userSpaceOnUse"><path d="M0 256h256V0H0Z"/></clipPath><clipPath id="b" clipPathUnits="userSpaceOnUse"><path d="M16 252h224V4H16Z"/></clipPath></defs><g clip-path="url(#a)" transform="matrix(1.33333 0 0 -1.33333 -21.333 336)"><g clip-path="url(#b)" style="opacity:.5"><path d="M0 0h-180c-6.617 0-12-5.383-12-12v-14c0-1.267.237-2.48.668-3.596A9 9 0 0 1-192-33v-2a9 9 0 0 1 .514-3 9 9 0 0 1-.514-3v-2a9 9 0 0 1 .514-3 9 9 0 0 1-.514-3v-2a9 9 0 0 1 .514-3 9 9 0 0 1-.514-3v-2c0-.894.131-1.758.375-2.573A8 8 0 0 1-192-64v-174c0-5.514 4.486-10 10-10H22c5.514 0 10 4.486 10 10v173a9 9 0 0 1-.514 3A9 9 0 0 1 32-59v2a9 9 0 0 1-.514 3A9 9 0 0 1 32-51v2a9 9 0 0 1-.514 3A9 9 0 0 1 32-43v2a9 9 0 0 1-.514 3A9 9 0 0 1 32-35v2a9 9 0 0 1-.668 3.404A10 10 0 0 1 32-26v4c0 5.514-4.486 10-10 10H12C12-5.383 6.617 0 0 0" style="fill:#fff;fill-opacity:1;fill-rule:nonzero;stroke:none" transform="translate(208 252)"/></g><path d="M0 0v4a2 2 0 0 1-2 2h-18v8a4 4 0 0 1-4 4h-180a4 4 0 0 1-4-4V0a2 2 0 0 1 2-2h2v-4h-3a1 1 0 0 1-1-1v-2a1 1 0 0 1 1-1h3v-4h-3a1 1 0 0 1-1-1v-2a1 1 0 0 1 1-1h3v-4h-3a1 1 0 0 1-1-1v-2a1 1 0 0 1 1-1h3v-4h-3a1 1 0 0 1-1-1v-2a1 1 0 0 1 1-1h3v-4h-4v-174a2 2 0 0 1 2-2H-2a2 2 0 0 1 2 2v173a1 1 0 0 1-1 1h-3v4h3a1 1 0 0 1 1 1v2a1 1 0 0 1-1 1h-3v4h3a1 1 0 0 1 1 1v2a1 1 0 0 1-1 1h-3v4h3a1 1 0 0 1 1 1v2a1 1 0 0 1-1 1h-3v4h3a1 1 0 0 1 1 1v2a1 1 0 0 1-1 1h-3v4h2a2 2 0 0 1 2 2" style="fill:gray;fill-opacity:1;fill-rule:nonzero;stroke:none" transform="translate(232 226)"/><path d="M0 0h118.095c11.572 0 20.953-8.954 20.953-20s-9.381-20-20.953-20H0c-11.572 0-20.952 8.954-20.952 20S-11.572 0 0 0" style="fill:#737373;fill-opacity:1;fill-rule:nonzero;stroke:none" transform="translate(68.952 226)"/><path d="m0 0-12.57-13.039a1.39 1.39 0 0 0-2.018 0L-27.158 0c-.899.933-.262 2.528 1.009 2.528h25.14C.262 2.528.899.933 0 0" style="fill:#737373;fill-opacity:1;fill-rule:nonzero;stroke:none" transform="translate(141.58 29.472)"/><path d="M0 0h-152.381c-3.203 0-5.809-2.597-5.809-5.789v-136.422c0-3.192 2.606-5.789 5.809-5.789H0c3.203 0 5.81 2.597 5.81 5.789V-5.789C5.81-2.597 3.203 0 0 0" style="fill:#737373;fill-opacity:1;fill-rule:nonzero;stroke:none" transform="translate(204.19 182)"/><path d="M0 0h152.381c2.104 0 3.809-1.697 3.809-3.789v-136.422c0-2.092-1.705-3.789-3.809-3.789H0c-2.104 0-3.81 1.697-3.81 3.789V-3.789C-3.81-1.697-2.104 0 0 0" style="fill:#b3b3b3;fill-opacity:1;fill-rule:nonzero;stroke:none" transform="translate(51.81 180)"/><path d="M191.967 36H64.033v144h127.934z" style="fill:#7b0000;fill-opacity:1;fill-rule:nonzero;stroke:none"/><path d="M0 0v-4h16.095A23 23 0 0 0 16-2c0 .674.038 1.34.095 2z" style="fill:#737373;fill-opacity:1;fill-rule:nonzero;stroke:none" transform="translate(28 208)"/><path d="M0 0a24.6 24.6 0 0 0 3.763 4h-24.474V0Z" style="fill:#737373;fill-opacity:1;fill-rule:nonzero;stroke:none" transform="translate(48.711 220)"/><path d="M0 0h18.275a23 23 0 0 0-1.476 4H0Z" style="fill:#737373;fill-opacity:1;fill-rule:nonzero;stroke:none" transform="translate(28 196)"/><path d="M0 0h16.799a23 23 0 0 0 1.476 4H0Z" style="fill:#737373;fill-opacity:1;fill-rule:nonzero;stroke:none" transform="translate(28 212)"/><path d="M0 0h-20.711v-4H3.763A24.6 24.6 0 0 0 0 0" style="fill:#737373;fill-opacity:1;fill-rule:nonzero;stroke:none" transform="translate(48.711 192)"/><path d="M0 0c.057-.66.095-1.326.095-2S.057-3.34 0-4h16.095v4z" style="fill:#737373;fill-opacity:1;fill-rule:nonzero;stroke:none" transform="translate(211.905 208)"/><path d="M0 0h20.711v4H-3.763A24.6 24.6 0 0 0 0 0" style="fill:#737373;fill-opacity:1;fill-rule:nonzero;stroke:none" transform="translate(207.289 220)"/><path d="M0 0h-16.799a23 23 0 0 0-1.476-4H0Z" style="fill:#737373;fill-opacity:1;fill-rule:nonzero;stroke:none" transform="translate(228 200)"/><path d="M0 0a24.6 24.6 0 0 0-3.763-4h24.474v4Z" style="fill:#737373;fill-opacity:1;fill-rule:nonzero;stroke:none" transform="translate(207.289 192)"/><path d="M0 0a23 23 0 0 0 1.475-4h16.8v4z" style="fill:#737373;fill-opacity:1;fill-rule:nonzero;stroke:none" transform="translate(209.725 216)"/><path d="M28 12h-4v140h4zm204 0h-4v140h4z" style="fill:#777;fill-opacity:1;fill-rule:nonzero;stroke:none"/></g></svg>