<svg xmlns="http://www.w3.org/2000/svg" xml:space="preserve" width="330.666" height="192"><defs><clipPath id="a" clipPathUnits="userSpaceOnUse"><path d="M0 256h256V0H0Z"/></clipPath><clipPath id="b" clipPathUnits="userSpaceOnUse"><path d="M4 200h248V56H4Z"/></clipPath><clipPath id="c" clipPathUnits="userSpaceOnUse"><path d="M0 256h256V0H0Z"/></clipPath></defs><g clip-path="url(#a)" transform="matrix(1.33333 0 0 -1.33333 -5.334 266.666)"><g clip-path="url(#b)" style="opacity:.5"><path d="m0 0-1.657 1.657v56.686h-244V-4.97l2.343-2.343 1.657-1.657v-9.373L-243.314-20l-2.343-2.343v-63.314h244v56.687L0-27.314l2.343 2.344v22.627z" style="fill:#fff;fill-opacity:1;fill-rule:nonzero;stroke:none" transform="translate(249.657 141.657)"/></g></g><path d="M0 0v-52l4-4v-16l-4-4v-52h228V0Z" style="fill:#3d0000;fill-opacity:1;fill-rule:nonzero;stroke:none" transform="matrix(1.33333 0 0 -1.33333 10.666 10.666)"/><path d="M236 68H132v120h104z" style="fill:#b3b3b3;fill-opacity:1;fill-rule:nonzero;stroke:none" transform="matrix(1.33333 0 0 -1.33333 -5.334 266.666)"/><path d="m0 0-4-4v24l4-4Z" style="fill:#7b0000;fill-opacity:1;fill-rule:nonzero;stroke:none" transform="matrix(1.33333 0 0 -1.33333 320 106.666)"/><path d="M124 68H20v120h104z" style="fill:#b3b3b3;fill-opacity:1;fill-rule:nonzero;stroke:none" transform="matrix(1.33333 0 0 -1.33333 -5.334 266.666)"/><path d="M132 96h-8v68h8z" style="fill:#a6a6a6;fill-opacity:1;fill-rule:nonzero;stroke:none" transform="matrix(1.33333 0 0 -1.33333 -5.334 266.666)"/><path d="M132 154h-8v2h8zm0-4h-8v2h8zm0-4h-8v2h8zm0-4h-8v2h8zm0-4h-8v2h8zm0-4h-8v2h8zm0-4h-8v2h8zm0-4h-8v2h8zm0-4h-8v2h8zm0-4h-8v2h8zm0-4h-8v2h8zm0-4h-8v2h8zm0-4h-8v2h8zm0-4h-8v2h8zm0-4h-8v2h8z" style="fill:#999;fill-opacity:1;fill-rule:nonzero;stroke:none" transform="matrix(1.33333 0 0 -1.33333 -5.334 266.666)"/><g clip-path="url(#c)" transform="matrix(1.33333 0 0 -1.33333 -5.334 266.666)"><path d="M0 0h-75.896a2.05 2.05 0 0 0-2.052 2.052v47.896c0 1.134.918 2.052 2.052 2.052H0a2.05 2.05 0 0 0 2.052-2.052V2.052A2.05 2.05 0 0 0 0 0" style="fill:#bfbfbf;fill-opacity:1;fill-rule:nonzero;stroke:none" transform="translate(109.948 120)"/><path d="M108 124H36v44h72z" style="fill:#485915;fill-opacity:1;fill-rule:nonzero;stroke:none"/><path d="M120 88H64v24h56zm72 0h-56v24h56z" style="fill:#bfbfbf;fill-opacity:1;fill-rule:nonzero;stroke:none"/><path d="m0 0-12 24h-40v-40h96V0Z" style="fill:#3d0000;fill-opacity:1;fill-rule:nonzero;stroke:none" transform="translate(76 88)"/><path d="m0 0 12 24h40v-40h-96V0Z" style="fill:#3d0000;fill-opacity:1;fill-rule:nonzero;stroke:none" transform="translate(180 88)"/><path d="M0 0a2 2 0 1 1 4.001.001A2 2 0 0 1 0 0" style="fill:#404040;fill-opacity:1;fill-rule:nonzero;stroke:none" transform="translate(88 102)"/><path d="M0 0a2 2 0 1 1 4.001.001A2 2 0 0 1 0 0" style="fill:#404040;fill-opacity:1;fill-rule:nonzero;stroke:none" transform="translate(96 102)"/><path d="M0 0h-12v-24H0v22z" style="fill:#b3b3b3;fill-opacity:1;fill-rule:nonzero;stroke:none" transform="translate(46 106)"/><path d="M44 84h-8v20h8z" style="fill:red;fill-opacity:1;fill-rule:nonzero;stroke:none"/><path d="M0 0h-12v-24H0v22z" style="fill:#b3b3b3;fill-opacity:1;fill-rule:nonzero;stroke:none" transform="translate(214 106)"/><path d="M212 84h-8v20h8z" style="fill:red;fill-opacity:1;fill-rule:nonzero;stroke:none"/><path d="M0 0h-75.896a2.05 2.05 0 0 0-2.052 2.052v47.896c0 1.134.919 2.052 2.052 2.052H0a2.05 2.05 0 0 0 2.052-2.052V2.052A2.05 2.05 0 0 0 0 0" style="fill:#bfbfbf;fill-opacity:1;fill-rule:nonzero;stroke:none" transform="translate(221.948 120)"/><path d="M220 124h-72v44h72z" style="fill:#485915;fill-opacity:1;fill-rule:nonzero;stroke:none"/><path d="M0 0a2 2 0 0 0-2 2v4a2 2 0 0 0 4 0V2a2 2 0 0 0-2-2" style="fill:#404040;fill-opacity:1;fill-rule:nonzero;stroke:none" transform="translate(150 100)"/><path d="M0 0c-1.654 0-3-1.346-3-3v-4c0-1.654 1.346-3 3-3s3 1.346 3 3v4c0 1.654-1.346 3-3 3m0-1a2 2 0 0 0 2-2v-4a2 2 0 0 0-4 0v4a2 2 0 0 0 2 2" style="fill:#b3b3b3;fill-opacity:1;fill-rule:nonzero;stroke:none" transform="translate(150 109)"/><path d="M0 0a2 2 0 0 0-2 2v4a2 2 0 0 0 4 0V2a2 2 0 0 0-2-2" style="fill:#404040;fill-opacity:1;fill-rule:nonzero;stroke:none" transform="translate(161 100)"/><path d="M0 0c-1.654 0-3-1.346-3-3v-4c0-1.654 1.346-3 3-3s3 1.346 3 3v4c0 1.654-1.346 3-3 3m0-1a2 2 0 0 0 2-2v-4a2 2 0 0 0-4 0v4a2 2 0 0 0 2 2" style="fill:#b3b3b3;fill-opacity:1;fill-rule:nonzero;stroke:none" transform="translate(161 109)"/><path d="M0 0a2 2 0 0 0-2 2v4a2 2 0 0 0 4 0V2a2 2 0 0 0-2-2" style="fill:#404040;fill-opacity:1;fill-rule:nonzero;stroke:none" transform="translate(172 100)"/><path d="M0 0c-1.654 0-3-1.346-3-3v-4c0-1.654 1.346-3 3-3s3 1.346 3 3v4c0 1.654-1.346 3-3 3m0-1a2 2 0 0 0 2-2v-4a2 2 0 0 0-4 0v4a2 2 0 0 0 2 2" style="fill:#b3b3b3;fill-opacity:1;fill-rule:nonzero;stroke:none" transform="translate(172 109)"/></g></svg>