<svg xmlns="http://www.w3.org/2000/svg" xml:space="preserve" viewBox="0 0 256 256"><path d="M192.797 4H63.203C54.82 4 48 10.779 48 19.113v217.775C48 245.22 54.82 252 63.203 252h95.113C185.712 252 208 229.946 208 202.839V19.113C208 10.779 201.18 4 192.797 4" style="opacity:.5;fill:#fff"/><path d="M192.797 12H63.203C59.225 12 56 15.184 56 19.113v217.774c0 3.928 3.225 7.113 7.203 7.113h95.113C181.337 244 200 225.571 200 202.838V19.113c0-3.929-3.225-7.113-7.203-7.113" style="fill:#ffcb05"/><path d="M184.25 28H71.75C69.679 28 68 29.648 68 31.68v84.818c0 1.934 1.598 3.502 3.569 3.502H165.5c12.427 0 22.5-9.886 22.5-22.08V31.68c0-2.032-1.679-3.68-3.75-3.68" style="fill:#595959"/><path d="M166 42H90v72h76z" style="fill:#4d4d4d"/><path d="M92 44h72v68H92z" style="fill:#485915"/><path d="M192 158c0-6.617-5.383-12-12-12-1.395 0-2.73.252-3.976.691l-.001-.003-.035.016c-.714.255-31.37 14.563-31.943 14.892l-.045.021.002.005C140.42 163.701 138 167.569 138 172c0 6.617 5.383 12 12 12 1.284 0 2.52-.208 3.681-.583l.001.003.033-.015c.887-.29 31.797-14.753 31.797-14.753l-.001-.003c3.85-2.002 6.489-6.02 6.489-10.649" style="fill:#fdb913"/><path d="M160 172c0 5.523-4.477 10-10 10s-10-4.477-10-10 4.477-10 10-10 10 4.477 10 10m30-14c0 5.523-4.477 10-10 10s-10-4.477-10-10 4.477-10 10-10 10 4.477 10 10m-74.622 42.082a3.3 3.3 0 0 0-2.326.332l-11.571 6.517c-1.389.785-1.885 2.402-1.127 3.687.388.654 1.037 1.113 1.825 1.296a3.26 3.26 0 0 0 2.321-.334l11.569-6.517c1.396-.783 1.892-2.402 1.129-3.683-.383-.652-1.031-1.113-1.82-1.298m28.268 1.298c-.384-.654-1.032-1.113-1.823-1.298a3.27 3.27 0 0 0-2.323.334l-11.569 6.517c-1.396.783-1.892 2.402-1.129 3.683.379.644 1.044 1.117 1.825 1.3a3.26 3.26 0 0 0 2.321-.334l11.571-6.517c1.389-.785 1.885-2.402 1.127-3.685" style="fill:#595959"/><path d="m147.417 219.278 10.989 18.109c.502.828.215 1.88-.641 2.351l-.067.037c-.857.47-1.958.181-2.461-.647l-10.989-18.109a1.673 1.673 0 0 1 .641-2.351l.067-.037c.857-.47 1.958-.181 2.461.647" style="fill:#fdb913"/><path d="m154.748 215.675 10.999 18.113a1.67 1.67 0 0 1-.642 2.352l-.068.037c-.857.471-1.96.181-2.463-.648l-10.999-18.113a1.67 1.67 0 0 1 .642-2.352l.068-.037c.857-.471 1.96-.181 2.463.648m7.335-3.601 10.999 18.113a1.67 1.67 0 0 1-.642 2.352l-.068.037c-.857.471-1.96.181-2.463-.648l-10.999-18.113a1.67 1.67 0 0 1 .642-2.352l.068-.037c.857-.47 1.96-.18 2.463.648m7.335-3.6 10.999 18.113a1.67 1.67 0 0 1-.642 2.352l-.068.037c-.857.471-1.96.181-2.463-.648l-10.999-18.113a1.67 1.67 0 0 1 .642-2.352l.068-.037c.857-.471 1.96-.181 2.463.648m7.335-3.601 10.999 18.113a1.67 1.67 0 0 1-.642 2.352l-.068.037c-.857.471-1.96.181-2.463-.648l-10.999-18.113a1.67 1.67 0 0 1 .642-2.352l.068-.037c.857-.47 1.96-.18 2.463.648" style="opacity:.7778;fill:#fdb913"/><circle cx="78" cy="66.073" r="2" style="fill:red"/><path d="M76 32h104v2H76z" style="fill:#7b0000"/><path d="M76 36h104v2H76z" style="fill:#00003d"/><path d="M98 167h-9v-8c0-1.65-1.35-3-3-3h-4c-1.65 0-3 1.35-3 3v8h-9c-1.1 0-2 .9-2 2v6c0 1.1.9 2 2 2h9v8c0 1.65 1.35 3 3 3h4c1.65 0 3-1.35 3-3v-8h9c1.1 0 2-.9 2-2v-6c0-1.1-.9-2-2-2" style="fill:#595959"/><circle cx="84" cy="172" r="4" style="fill:#4d4d4d"/><path d="M186 22V12h-2v10H72V12h-2v10H56v2h144v-2z" style="fill:#fdb913"/><path d="M102 16H90v-4h-2v4h-2v-4h-2v4h-2v-4h-2v4h-2a2 2 0 1 0 0 4h24a2 2 0 1 0 0-4m4 224h12v4h2v-4h2v4h2v-4h2v4h2v-4h2a2 2 0 1 0 0-4h-24a2 2 0 1 0 0 4" style="fill:#fdb913"/></svg>