<?xml version="1.0" encoding="UTF-8" standalone="no"?>
<svg
   xmlns:dc="http://purl.org/dc/elements/1.1/"
   xmlns:cc="http://creativecommons.org/ns#"
   xmlns:rdf="http://www.w3.org/1999/02/22-rdf-syntax-ns#"
   xmlns:svg="http://www.w3.org/2000/svg"
   xmlns="http://www.w3.org/2000/svg"
   viewBox="0 0 314.66665 330.66665"
   height="330.66666"
   width="314.66666"
   xml:space="preserve"
   id="svg2"
   version="1.1"><metadata
     id="metadata8"><rdf:RDF><cc:Work
         rdf:about=""><dc:format>image/svg+xml</dc:format><dc:type
           rdf:resource="http://purl.org/dc/dcmitype/StillImage" /></cc:Work></rdf:RDF></metadata><defs
     id="defs6"><clipPath
       id="clipPath18"
       clipPathUnits="userSpaceOnUse"><path
         id="path16"
         d="M 0,256 H 256 V 0 H 0 Z" /></clipPath><clipPath
       id="clipPath26"
       clipPathUnits="userSpaceOnUse"><path
         id="path24"
         d="M 12,252 H 248 V 4 H 12 Z" /></clipPath></defs><g
     transform="matrix(1.3333333,0,0,-1.3333333,-16,335.99999)"
     id="g10"><g
       id="g12"><g
         clip-path="url(#clipPath18)"
         id="g14"><g
           id="g20"><g
             id="g22" /><g
             id="g34"><g
               style="opacity:0.5"
               id="g32"
               clip-path="url(#clipPath26)"><g
                 id="g30"
                 transform="translate(224,252)"><path
                   id="path28"
                   style="fill:#ffffff;fill-opacity:1;fill-rule:nonzero;stroke:none"
                   d="m 0,0 h -188 c -13.234,0 -24,-10.766 -24,-24 v -214 c 0,-5.514 4.486,-10 10,-10 H 14 c 5.514,0 10,4.486 10,10 V -24 C 24,-10.766 13.233,0 0,0" /></g></g></g></g><g
           transform="translate(238,12)"
           id="g36"><path
             id="path38"
             style="fill:#bfbfbf;fill-opacity:1;fill-rule:nonzero;stroke:none"
             d="m 0,0 h -216 c -1.104,0 -2,0.896 -2,2 v 214 c 0,8.836 7.164,16 16,16 h 188 c 8.837,0 16,-7.164 16,-16 V 2 C 2,0.896 1.104,0 0,0" /></g><g
           transform="translate(208,84)"
           id="g40"><path
             id="path42"
             style="fill:#b3b3b3;fill-opacity:1;fill-rule:nonzero;stroke:none"
             d="m 0,0 h -160 c -2.209,0 -4,1.791 -4,4 v 120 c 0,4.418 3.582,8 8,8 H -4 c 4.418,0 8,-3.582 8,-8 V 4 C 4,1.791 2.209,0 0,0" /></g><g
           transform="translate(95.3027,48)"
           id="g44"><path
             id="path46"
             style="fill:#b3b3b3;fill-opacity:1;fill-rule:nonzero;stroke:none"
             d="m 0,0 h 65.395 c 0.989,0 1.377,-1.283 0.554,-1.832 L 33.252,-23.63 c -0.336,-0.224 -0.773,-0.224 -1.109,0 L -0.555,-1.832 C -1.378,-1.283 -0.989,0 0,0" /></g><g
           transform="translate(203,88)"
           id="g48"><path
             id="path50"
             style="fill:#ffffff;fill-opacity:1;fill-rule:nonzero;stroke:none"
             d="m 0,0 h -151 c -2.209,0 -4,1.791 -4,4 v 96 c 0,2.209 1.791,4 4,4 H 2 c 1.657,0 3,-1.343 3,-3 V 5 C 5,2.238 2.762,0 0,0" /></g><g
           transform="translate(201.2627,170.7368)"
           id="g52"><path
             id="path54"
             style="fill:#404040;fill-opacity:1;fill-rule:nonzero;stroke:none"
             d="m 0,0 c 0,-6.744 -5.467,-12.21 -12.21,-12.21 -6.744,0 -12.211,5.466 -12.211,12.21 0,6.744 5.467,12.21 12.211,12.21 C -5.467,12.21 0,6.744 0,0" /></g></g></g></g></svg>