<svg xmlns="http://www.w3.org/2000/svg" xml:space="preserve" width="330.667" height="202.667"><defs><clipPath id="a" clipPathUnits="userSpaceOnUse"><path d="M0 256h256V0H0Z"/></clipPath><clipPath id="b" clipPathUnits="userSpaceOnUse"><path d="M4 204h248V52H4Z"/></clipPath><clipPath id="c" clipPathUnits="userSpaceOnUse"><path d="M0 256h256V0H0Z"/></clipPath></defs><g clip-path="url(#a)" transform="matrix(1.33333 0 0 -1.33333 -5.333 272)"><g clip-path="url(#b)" style="opacity:.5"><path d="M0 0h-248v-152H0V-8z" style="fill:#fff;fill-opacity:1;fill-rule:nonzero;stroke:none" transform="translate(252 204)"/></g></g><path d="M244 60H12v136h232z" style="fill:#263979;fill-opacity:1;fill-rule:nonzero;stroke:none" transform="matrix(1.33333 0 0 -1.33333 -5.333 272)"/><path d="M240 64H16v128h224z" style="fill:#bf9a57;fill-opacity:1;fill-rule:nonzero;stroke:none" transform="matrix(1.33333 0 0 -1.33333 -5.333 272)"/><path d="M196 80H60v96h136z" style="fill:#d9af63;fill-opacity:1;fill-rule:nonzero;stroke:none" transform="matrix(1.33333 0 0 -1.33333 -5.333 272)"/><path d="M188 88H68v80h120z" style="fill:#263979;fill-opacity:1;fill-rule:nonzero;stroke:none" transform="matrix(1.33333 0 0 -1.33333 -5.333 272)"/><g clip-path="url(#c)" transform="matrix(1.33333 0 0 -1.33333 -5.333 272)"><path d="M0 0a2 2 0 1 0-4.001.001A2 2 0 0 0 0 0" style="fill:#191919;fill-opacity:1;fill-rule:nonzero;stroke:none" transform="translate(232 154)"/><path d="M0 0a2 2 0 1 0-4.001.001A2 2 0 0 0 0 0" style="fill:#191919;fill-opacity:1;fill-rule:nonzero;stroke:none" transform="translate(232 170)"/><path d="M0 0c-5.514 0-10-4.486-10-10s4.486-10 10-10 10 4.486 10 10S5.514 0 0 0" style="fill:#263979;fill-opacity:1;fill-rule:nonzero;stroke:none" transform="translate(38 112)"/><path d="M0 0a8 8 0 1 0-16 0A8 8 0 0 0 0 0" style="fill:red;fill-opacity:1;fill-rule:nonzero;stroke:none" transform="translate(46 102)"/><path d="M0 0c-5.514 0-10-4.486-10-10s4.486-10 10-10 10 4.486 10 10S5.514 0 0 0" style="fill:#263979;fill-opacity:1;fill-rule:nonzero;stroke:none" transform="translate(214 112)"/><path d="M0 0a8 8 0 1 0-16 0A8 8 0 0 0 0 0" style="fill:red;fill-opacity:1;fill-rule:nonzero;stroke:none" transform="translate(222 102)"/><path d="M0 0c-5.514 0-10-4.486-10-10s4.486-10 10-10 10 4.486 10 10S5.514 0 0 0" style="fill:#263979;fill-opacity:1;fill-rule:nonzero;stroke:none" transform="translate(38 88)"/><path d="M0 0a8 8 0 1 0-16 0A8 8 0 0 0 0 0" style="fill:red;fill-opacity:1;fill-rule:nonzero;stroke:none" transform="translate(46 78)"/><path d="M0 0c-5.514 0-10-4.486-10-10s4.486-10 10-10 10 4.486 10 10S5.514 0 0 0" style="fill:#263979;fill-opacity:1;fill-rule:nonzero;stroke:none" transform="translate(214 88)"/><path d="M0 0a8 8 0 1 0-16 0A8 8 0 0 0 0 0" style="fill:red;fill-opacity:1;fill-rule:nonzero;stroke:none" transform="translate(222 78)"/><path d="M0 0h-4c-2.206 0-4-1.794-4-4s1.794-4 4-4h4c2.206 0 4 1.794 4 4S2.206 0 0 0" style="fill:#263979;fill-opacity:1;fill-rule:nonzero;stroke:none" transform="translate(214 180)"/><path d="M0 0h-4a2 2 0 0 0 0 4h4a2 2 0 0 0 0-4" style="fill:#8c8c8c;fill-opacity:1;fill-rule:nonzero;stroke:none" transform="translate(214 174)"/><path d="M0 0h-4c-2.206 0-4-1.794-4-4s1.794-4 4-4h4c2.206 0 4 1.794 4 4S2.206 0 0 0" style="fill:#263979;fill-opacity:1;fill-rule:nonzero;stroke:none" transform="translate(214 168)"/><path d="M0 0h-4a2 2 0 0 0 0 4h4a2 2 0 0 0 0-4" style="fill:#8c8c8c;fill-opacity:1;fill-rule:nonzero;stroke:none" transform="translate(214 162)"/><path d="M0 0h-4c-2.206 0-4-1.794-4-4s1.794-4 4-4h4c2.206 0 4 1.794 4 4S2.206 0 0 0" style="fill:#263979;fill-opacity:1;fill-rule:nonzero;stroke:none" transform="translate(214 156)"/><path d="M0 0h-4a2 2 0 0 0 0 4h4a2 2 0 0 0 0-4" style="fill:#8c8c8c;fill-opacity:1;fill-rule:nonzero;stroke:none" transform="translate(214 150)"/><path d="M184 92H72v72h112z" style="fill:#485915;fill-opacity:1;fill-rule:nonzero;stroke:none"/><path d="M48 160H28v16h20z" style="fill:#b3b3b3;fill-opacity:1;fill-rule:nonzero;stroke:none"/></g></svg>