<?xml version="1.0" encoding="iso-8859-1"?>
<!-- Generator: Adobe Illustrator 27.8.1, SVG Export Plug-In . SVG Version: 6.00 Build 0)  -->
<svg version="1.1" id="Layer_1" xmlns="http://www.w3.org/2000/svg" xmlns:xlink="http://www.w3.org/1999/xlink" x="0px" y="0px"
	 viewBox="0 0 256 256" style="enable-background:new 0 0 256 256;" xml:space="preserve">
<path style="opacity:0.5;fill:#FFFFFF;" d="M250.555,92.977c0.064-1.208-0.116-2.443-0.56-3.636
	C245.356,76.875,233.302,68.5,220,68.5h-6c-2.246,0-4.322,0.745-5.994,2H83.222c-1.224-0.639-2.615-1-4.088-1h-4.268
	c-1.003,0-1.967,0.167-2.866,0.475c-0.899-0.308-1.863-0.475-2.866-0.475h-4.268c-1.473,0-2.864,0.361-4.088,1H47.994
	c-1.671-1.255-3.747-2-5.994-2h-6c-13.302,0-25.356,8.375-29.995,20.841c-0.444,1.193-0.624,2.428-0.56,3.636
	C4.485,96.05,4,99.242,4,102.5v53c0,17.645,14.355,32,32,32h184c17.645,0,32-14.355,32-32v-53
	C252,99.242,251.515,96.05,250.555,92.977z"/>
<path style="fill:#FDB913;" d="M79.134,77.5h-4.268C74.388,77.5,74,77.888,74,78.366V78.5h-4v-0.134
	c0-0.478-0.388-0.866-0.866-0.866h-4.268C64.388,77.5,64,77.888,64,78.366v2.268c0,0.478,0.388,0.866,0.866,0.866H68h1.134h5.732H76
	h3.134c0.478,0,0.866-0.388,0.866-0.866v-2.268C80,77.888,79.612,77.5,79.134,77.5z"/>
<g>
	<path style="fill:#E6E6E6;" d="M241.564,93c0.706,0,1.18-0.708,0.934-1.369C239.1,82.503,230.311,76,220,76h-6
		c-1.105,0-2,0.895-2,2v15H241.564z"/>
	<path style="fill:#E6E6E6;" d="M44,93V78c0-1.105-0.895-2-2-2h-6c-10.311,0-19.1,6.503-22.497,15.631
		C13.257,92.292,13.731,93,14.436,93H44z"/>
</g>
<path style="fill:#FFCB05;" d="M220,180H36c-13.255,0-24-10.745-24-24v-53c0-13.255,10.745-24,24-24h184c13.255,0,24,10.745,24,24
	v53C244,169.255,233.255,180,220,180z"/>
<rect x="41" y="88" style="fill:#D9D9D9;" width="6" height="2"/>
<polygon style="fill:#D9D9D9;" points="215,88 213,88 213,86 211,86 211,88 209,88 209,90 211,90 211,92 213,92 213,90 215,90 "/>
<circle style="fill:#CCCCCC;" cx="32" cy="106" r="8"/>
<g>
	<path style="fill:#D9D9D9;" d="M31,105v-6.931c-3.617,0.452-6.479,3.314-6.931,6.931H31z"/>
	<path style="fill:#D9D9D9;" d="M33,107v6.931c3.617-0.452,6.479-3.314,6.931-6.931H33z"/>
	<path style="fill:#D9D9D9;" d="M33,105h6.931c-0.452-3.617-3.314-6.479-6.931-6.931V105z"/>
	<path style="fill:#D9D9D9;" d="M31,107h-6.931c0.452,3.617,3.314,6.479,6.931,6.931V107z"/>
</g>
<circle style="fill:#E6E6E6;" cx="32" cy="106" r="6"/>
<path style="fill:#E6E6E6;" d="M41,134h-5v-5c0-0.552-0.448-1-1-1h-6c-0.552,0-1,0.448-1,1v5h-5c-0.552,0-1,0.448-1,1v6
	c0,0.552,0.448,1,1,1h5v5c0,0.552,0.448,1,1,1h6c0.552,0,1-0.448,1-1v-5h5c0.552,0,1-0.448,1-1v-6C42,134.448,41.552,134,41,134z"/>
<polygon style="fill:#D9D9D9;" points="31,132 32,130 33,132 "/>
<polygon style="fill:#D9D9D9;" points="33,144 32,146 31,144 "/>
<polygon style="fill:#D9D9D9;" points="26,139 24,138 26,137 "/>
<polygon style="fill:#D9D9D9;" points="38,137 40,138 38,139 "/>
<path style="fill:#E6E6E6;" d="M46.667,164h-5.333c-0.736,0-1.333-0.597-1.333-1.333v-5.333c0-0.736,0.597-1.333,1.333-1.333h5.333
	c0.736,0,1.333,0.597,1.333,1.333v5.333C48,163.403,47.403,164,46.667,164z"/>
<path style="fill:#D9D9D9;" d="M44,158c1.103,0,2,0.897,2,2s-0.897,2-2,2s-2-0.897-2-2S42.897,158,44,158 M44,157
	c-1.657,0-3,1.343-3,3s1.343,3,3,3s3-1.343,3-3S45.657,157,44,157L44,157z"/>
<circle style="fill:#D9D9D9;" cx="212" cy="160" r="4"/>
<circle style="fill:#E6E6E6;" cx="212" cy="160" r="3"/>
<path style="fill:#FDB913;" d="M201.902,172H54.098c-2.263,0-4.098-1.835-4.098-4.098V86.098C50,83.835,51.835,82,54.098,82h147.804
	c2.263,0,4.098,1.835,4.098,4.098v81.804C206,170.165,204.165,172,201.902,172z"/>
<rect x="60" y="88" style="fill:#262626;" width="136" height="78"/>
<circle style="fill:#CCCCCC;" cx="224" cy="136" r="8"/>
<g>
	<path style="fill:#D9D9D9;" d="M223,135v-6.931c-3.617,0.452-6.479,3.314-6.931,6.931H223z"/>
	<path style="fill:#D9D9D9;" d="M225,137v6.931c3.617-0.452,6.479-3.314,6.931-6.931H225z"/>
	<path style="fill:#D9D9D9;" d="M225,135h6.931c-0.452-3.617-3.314-6.479-6.931-6.931V135z"/>
	<path style="fill:#D9D9D9;" d="M223,137h-6.931c0.452,3.617,3.314,6.479,6.931,6.931V137z"/>
</g>
<circle style="fill:#E6E6E6;" cx="224" cy="136" r="6"/>
<circle style="fill:#D9D9D9;" cx="216" cy="106" r="4"/>
<circle style="fill:#D9D9D9;" cx="224" cy="98" r="4"/>
<circle style="fill:#D9D9D9;" cx="224" cy="114" r="4"/>
<circle style="fill:#D9D9D9;" cx="232" cy="106" r="4"/>
</svg>
