<svg xmlns="http://www.w3.org/2000/svg" xml:space="preserve" width="330.667" height="330.667"><defs><clipPath id="a" clipPathUnits="userSpaceOnUse"><path d="M0 256h256V0H0Z"/></clipPath><clipPath id="b" clipPathUnits="userSpaceOnUse"><path d="M4 252h248V4H4Z"/></clipPath></defs><g clip-path="url(#a)" transform="matrix(1.33333 0 0 -1.33333 -5.333 336)"><g clip-path="url(#b)" style="opacity:.5"><path d="M0 0c0-68.483-55.517-124-124-124S-248-68.483-248 0s55.517 124 124 124S0 68.483 0 0" style="fill:#fff;fill-opacity:1;fill-rule:nonzero;stroke:none" transform="translate(252 128)"/></g><path d="M0 0c-7.994 0-14.51 6.501-14.51 14.5 0 8.004 6.516 14.51 14.51 14.51 7.999 0 14.5-6.506 14.5-14.51C14.5 6.501 7.999 0 0 0m.001 60.338c-25.273 0-45.838-20.578-45.838-45.838S-25.272-31.338.001-31.338c25.247 0 45.831 20.578 45.831 45.838S25.248 60.338.001 60.338" style="fill:#e6e6e6;fill-opacity:1;fill-rule:nonzero;stroke:none" transform="translate(128.002 113.5)"/><path d="M0 0c-23.993 0-43.505 19.517-43.505 43.505S-23.993 87.01 0 87.01c23.988 0 43.5-19.517 43.5-43.505S23.988 0 0 0m0 159.505c-64.071 0-116-51.934-116-116s51.929-116 116-116c64.051 0 116 51.934 116 116s-51.949 116-116 116" style="fill:#d9d9d9;fill-opacity:1;fill-rule:nonzero;stroke:none" transform="translate(128 84.495)"/></g></svg>