<?xml version="1.0" encoding="iso-8859-1"?>
<!-- Generator: Adobe Illustrator 27.8.1, SVG Export Plug-In . SVG Version: 6.00 Build 0)  -->
<svg version="1.1" id="Layer_1" xmlns="http://www.w3.org/2000/svg" xmlns:xlink="http://www.w3.org/1999/xlink" x="0px" y="0px"
	 viewBox="0 0 256 256" style="enable-background:new 0 0 256 256;" xml:space="preserve">
<path style="opacity:0.5;fill:#FFFFFF;" d="M214,52h-4.005c-1.54-2.048-3.848-3.487-6.492-3.887C192.4,21.871,162.287,4,128,4
	C93.713,4,63.6,21.871,52.497,48.113c-2.644,0.4-4.951,1.839-6.492,3.887H42c-5.514,0-10,4.486-10,10v176c0,5.514,4.486,10,10,10
	h12.005c1.826,2.428,4.73,4,7.995,4h132c3.265,0,6.169-1.572,7.995-4H214c5.514,0,10-4.486,10-10V62C224,56.486,219.514,52,214,52z
	 M165.798,48H164H92h-1.798c0.427-0.372,0.865-0.739,1.315-1.101C101.042,39.226,113.999,35,128,35s26.958,4.226,36.483,11.899
	C164.933,47.261,165.371,47.628,165.798,48z"/>
<path style="fill:#7B0000;" d="M204,60L204,60c0-2.209-1.791-4-4-4H56c-2.209,0-4,1.791-4,4v0H42c-1.105,0-2,0.895-2,2v176
	c0,1.105,0.895,2,2,2h172c1.105,0,2-0.895,2-2V62c0-1.105-0.895-2-2-2H204z"/>
<path d="M74.154,56c2.605-5.623,6.775-10.845,12.344-15.331C97.441,31.854,112.18,27,128,27s30.559,4.854,41.502,13.669
	c5.569,4.486,9.739,9.708,12.344,15.331h16.029C190.099,30.733,161.771,12,128,12S65.901,30.733,58.125,56H74.154z"/>
<path style="fill:#D9D9D9;" d="M194,244H62c-1.105,0-2-0.895-2-2v-2h136v2C196,243.105,195.105,244,194,244z"/>
<circle style="fill:#B80000;" cx="58" cy="214" r="10"/>
<circle style="fill:#B80000;" cx="198" cy="214" r="10"/>
<circle style="fill:#7B0000;" cx="198" cy="214" r="6"/>
<path style="fill:#3D0000;" d="M204,60H52v-2c0-1.105,0.895-2,2-2h148c1.105,0,2,0.895,2,2V60z"/>
<rect x="92" y="56" width="72" height="4"/>
<path style="fill:#E77F22;" d="M108,220c0,0,4,8,20,8s20-8,20-8H108z"/>
<path style="fill:#3D0000;" d="M196,60v136.123c-7.999,0.891-14.421,7.042-15.734,14.911c-7.507,2.136-27.86,7.238-52.266,7.755
	c-24.405-0.517-44.759-5.619-52.266-7.755c-1.313-7.869-7.735-14.02-15.734-14.911v-76.241c8.986-0.999,16-8.634,16-17.882
	s-7.014-16.883-16-17.882V60h-4v24.118V88v0.16c0.655-0.094,1.319-0.16,2-0.16c7.72,0,14,6.28,14,14c0,7.72-6.28,14-14,14
	c-0.681,0-1.345-0.065-2-0.16V116v3.882v76.236V200v0.16c0.655-0.094,1.319-0.16,2-0.16c6.627,0,12.18,4.633,13.624,10.827
	l0.372,3.27l3.942,1.144c8.595,2.359,28.456,7.042,52.063,7.535c23.607-0.493,43.468-5.176,52.063-7.535l3.942-1.144l0.372-3.27
	C185.82,204.633,191.373,200,198,200c0.681,0,1.345,0.065,2,0.16V200v-3.882V60H196z"/>
<rect x="40" y="124" style="fill:#B80000;" width="176" height="48"/>
<polygon style="fill:#FF0000;" points="60,100 60,112 48,112 48,176 208,176 208,100 "/>
<path style="fill:#3D0000;" d="M192,160H64c-4.418,0-8-3.582-8-8v-34c0-1.105,0.895-2,2-2h140c1.105,0,2,0.895,2,2v34
	C200,156.418,196.418,160,192,160z"/>
<path style="fill:#B80000;" d="M60,196.123c7.999,0.891,14.421,7.042,15.734,14.911c7.507,2.136,27.86,7.238,52.266,7.755
	c24.405-0.517,44.759-5.619,52.266-7.755c1.313-7.869,7.735-14.02,15.734-14.911V176H60V196.123z"/>
<rect x="88" y="132" style="fill:#4D4D4D;" width="80" height="12"/>
<path style="fill:#7B0000;" d="M168,214.051V180H88v34.051c10.022,2.135,24.155,4.403,40,4.738
	C143.845,218.453,157.978,216.185,168,214.051z"/>
<circle style="fill:#D9D9D9;" cx="58" cy="102" r="10"/>
<circle style="fill:#FF0000;" cx="94" cy="186" r="2"/>
<circle style="fill:#FFCB05;" cx="102" cy="186" r="2"/>
<circle style="fill:#00B800;" cx="94" cy="194" r="2"/>
<circle style="fill:#00B800;" cx="102" cy="194" r="2"/>
<circle style="fill:#00B800;" cx="110" cy="194" r="2"/>
<circle style="fill:#00B800;" cx="118" cy="194" r="2"/>
<rect x="132" y="186" style="fill:#BFBFBF;" width="8" height="8"/>
<circle style="fill:#3D0000;" cx="136" cy="190" r="2"/>
<rect x="144" y="186" style="fill:#BFBFBF;" width="8" height="8"/>
<circle style="fill:#3D0000;" cx="148" cy="190" r="2"/>
<rect x="156" y="186" style="fill:#BFBFBF;" width="8" height="8"/>
<circle style="fill:#3D0000;" cx="160" cy="190" r="2"/>
<rect x="64" y="124" width="12" height="28"/>
<rect x="180" y="124" width="12" height="28"/>
<path d="M146,142h-36c-1.105,0-2-0.895-2-2v-4c0-1.105,0.895-2,2-2h36c1.105,0,2,0.895,2,2v4C148,141.105,147.105,142,146,142z"/>
<circle style="fill:#3D0000;" cx="102" cy="138" r="2"/>
<circle style="fill:#3D0000;" cx="94" cy="138" r="2"/>
<circle style="fill:#3D0000;" cx="162" cy="138" r="2"/>
<circle style="fill:#3D0000;" cx="154" cy="138" r="2"/>
</svg>
