<svg xmlns="http://www.w3.org/2000/svg" xml:space="preserve" width="330.666" height="152"><defs><clipPath id="a" clipPathUnits="userSpaceOnUse"><path d="M0 256h256V0H0Z"/></clipPath><clipPath id="b" clipPathUnits="userSpaceOnUse"><path d="M4 186h248V72H4Z"/></clipPath></defs><g clip-path="url(#a)" transform="matrix(1.33333 0 0 -1.33333 -5.333 248)"><g clip-path="url(#b)" style="opacity:.5"><path d="M0 0a9.9 9.9 0 0 1-1.029 4.384c-4.757 9.628-14.378 15.609-25.111 15.609h-2a9.95 9.95 0 0 1-5.994-2h-176.012a9.95 9.95 0 0 1-5.994 2h-2c-10.732 0-20.354-5.981-25.11-15.609A9.9 9.9 0 0 1-244.28 0a27.6 27.6 0 0 1-1.86-10.007v-56c0-15.44 12.561-28 28-28h192c15.44 0 28 12.56 28 28v56C1.86-6.552 1.236-3.198 0 0" style="fill:#fff;fill-opacity:1;fill-rule:nonzero;stroke:none" transform="translate(250.14 166.007)"/></g><path d="M0 0h-4.273c-.342 0-.682-.162-.841-.465A1 1 0 0 0-6-1h-2c-.384 0-.718.217-.886.535-.159.303-.499.465-.841.465H-14a1 1 0 0 1-1-1v-2a1 1 0 0 1 1-1H0a1 1 0 0 1 1 1v2a1 1 0 0 1-1 1" style="fill:#191919;fill-opacity:1;fill-rule:nonzero;stroke:none" transform="translate(83 177)"/><path d="M0 0a2 2 0 0 1-2 2h-2c-7.869 0-14.674-4.545-17.938-11.152-.649-1.312.35-2.848 1.813-2.848z" style="fill:#262626;fill-opacity:1;fill-rule:nonzero;stroke:none" transform="translate(36 176)"/><path d="M0 0h16l-4 95a1 1 0 0 1-1 1H0c-11.046 0-20-8.954-20-20V20C-20 8.954-11.046 0 0 0" style="fill:red;fill-opacity:1;fill-rule:nonzero;stroke:none" transform="translate(32 80)"/><path d="M0 0a2 2 0 0 0 2 2h2c7.868 0 14.674-4.545 17.938-11.152.649-1.312-.349-2.848-1.813-2.848Z" style="fill:#262626;fill-opacity:1;fill-rule:nonzero;stroke:none" transform="translate(220 176)"/><path d="M0 0h-16l4 95a1 1 0 0 0 1 1H0c11.046 0 20-8.954 20-20V20C20 8.954 11.046 0 0 0" style="fill:#3096cf;fill-opacity:1;fill-rule:nonzero;stroke:none" transform="translate(224 80)"/><path d="M0 0c-1.047.252-2.589.964-2.934 2.99-.084.494-.488.87-.989.87h-158.161c-.502 0-.906-.376-.99-.87-.345-2.026-1.887-2.738-2.934-2.99a4 4 0 0 0-.385-.079 4.5 4.5 0 0 0-.611-.061v-90a2 2 0 0 1 2-2h164a2 2 0 0 1 2 2v90S.75-.138.385-.079A4 4 0 0 0 0 0" style="fill:#333;fill-opacity:1;fill-rule:nonzero;stroke:none" transform="translate(211.004 172.14)"/><path d="M196 82H60v4h136z" style="fill:#191919;fill-opacity:1;fill-rule:nonzero;stroke:none"/><path d="M0 0h-152a4 4 0 0 1-4-4v-84a4 4 0 0 1 4-4h8a2 2 0 0 0 2 2h4a2 2 0 0 0 2-2h120a2 2 0 0 0 2 2h4a2 2 0 0 0 2-2h8a4 4 0 0 1 4 4v84a4 4 0 0 1-4 4" style="fill:#0d0d0d;fill-opacity:1;fill-rule:nonzero;stroke:none" transform="translate(204 174)"/><path d="M196 90H60v76h136zM41 166h-6v2h6z" style="fill:#262626;fill-opacity:1;fill-rule:nonzero;stroke:none"/><path d="M0 0h-2v2h-2V0h-2v-2h2v-2h2v2h2z" style="fill:#262626;fill-opacity:1;fill-rule:nonzero;stroke:none" transform="translate(221 168)"/><path d="M0 0h-6a1 1 0 0 0-1 1v6a1 1 0 0 0 1 1h6a1 1 0 0 0 1-1V1a1 1 0 0 0-1-1" style="fill:#262626;fill-opacity:1;fill-rule:nonzero;stroke:none" transform="translate(37 100)"/><path d="M0 0a3 3 0 1 0-6 0 3 3 0 0 0 6 0" style="fill:#333;fill-opacity:1;fill-rule:nonzero;stroke:none" transform="translate(37 104)"/><path d="M0 0a8 8 0 1 0-16 0A8 8 0 0 0 0 0" style="fill:#191919;fill-opacity:1;fill-rule:nonzero;stroke:none" transform="translate(36 152)"/><path d="M0 0v5.475A5.995 5.995 0 0 1-5.475 0Z" style="fill:#333;fill-opacity:1;fill-rule:nonzero;stroke:none" transform="translate(27.5 152.5)"/><path d="M0 0h5.475A5.995 5.995 0 0 1 0 5.475Z" style="fill:#333;fill-opacity:1;fill-rule:nonzero;stroke:none" transform="translate(28.5 152.5)"/><path d="M0 0h-5.475A5.995 5.995 0 0 1 0-5.475Z" style="fill:#333;fill-opacity:1;fill-rule:nonzero;stroke:none" transform="translate(27.5 151.5)"/><path d="M0 0v-5.475A5.995 5.995 0 0 1 5.475 0Z" style="fill:#333;fill-opacity:1;fill-rule:nonzero;stroke:none" transform="translate(28.5 151.5)"/><path d="M0 0a5 5 0 1 0-10.001.001A5 5 0 0 0 0 0" style="fill:#262626;fill-opacity:1;fill-rule:nonzero;stroke:none" transform="translate(33 152)"/><path d="M0 0a8 8 0 1 0-16 0A8 8 0 0 0 0 0" style="fill:#191919;fill-opacity:1;fill-rule:nonzero;stroke:none" transform="translate(236 124)"/><path d="M0 0v5.475A5.996 5.996 0 0 1-5.475 0Z" style="fill:#333;fill-opacity:1;fill-rule:nonzero;stroke:none" transform="translate(227.5 124.5)"/><path d="M0 0h5.475A5.996 5.996 0 0 1 0 5.475Z" style="fill:#333;fill-opacity:1;fill-rule:nonzero;stroke:none" transform="translate(228.5 124.5)"/><path d="M0 0h-5.475A6 6 0 0 1 0-5.475Z" style="fill:#333;fill-opacity:1;fill-rule:nonzero;stroke:none" transform="translate(227.5 123.5)"/><path d="M0 0v-5.475A6 6 0 0 1 5.475 0Z" style="fill:#333;fill-opacity:1;fill-rule:nonzero;stroke:none" transform="translate(228.5 123.5)"/><path d="M0 0a5 5 0 0 0-5-5 5 5 0 0 0-5 5 5 5 0 0 0 5 5 5 5 0 0 0 5-5" style="fill:#262626;fill-opacity:1;fill-rule:nonzero;stroke:none" transform="translate(233 124)"/><path d="M0 0a4 4 0 1 0-8 0 4 4 0 0 0 8 0" style="fill:#262626;fill-opacity:1;fill-rule:nonzero;stroke:none" transform="translate(232 160)"/><path d="M0 0a4 4 0 1 0-8 0 4 4 0 0 0 8 0" style="fill:#262626;fill-opacity:1;fill-rule:nonzero;stroke:none" transform="translate(232 144)"/><path d="M0 0a4 4 0 1 0 0 8 4 4 0 0 0 0-8" style="fill:#262626;fill-opacity:1;fill-rule:nonzero;stroke:none" transform="translate(236 148)"/><path d="M0 0a4 4 0 1 0 0 8 4 4 0 0 0 0-8" style="fill:#262626;fill-opacity:1;fill-rule:nonzero;stroke:none" transform="translate(220 148)"/><path d="M0 0a4 4 0 1 0-8 0 4 4 0 0 0 8 0" style="fill:#262626;fill-opacity:1;fill-rule:nonzero;stroke:none" transform="translate(32 132)"/><path d="M0 0a4 4 0 1 0-8 0 4 4 0 0 0 8 0" style="fill:#262626;fill-opacity:1;fill-rule:nonzero;stroke:none" transform="translate(32 116)"/><path d="M0 0a4 4 0 1 0 0 8 4 4 0 0 0 0-8" style="fill:#262626;fill-opacity:1;fill-rule:nonzero;stroke:none" transform="translate(36 120)"/><path d="M0 0a4 4 0 1 0 0 8 4 4 0 0 0 0-8" style="fill:#262626;fill-opacity:1;fill-rule:nonzero;stroke:none" transform="translate(20 120)"/><path d="M0 0c-2.206 0-4 1.794-4 4s1.794 4 4 4 4-1.794 4-4-1.794-4-4-4" style="fill:#262626;fill-opacity:1;fill-rule:nonzero;stroke:none" transform="translate(222 100)"/><path d="M0 0c-1.654 0-3-1.346-3-3s1.346-3 3-3 3 1.346 3 3-1.346 3-3 3" style="fill:#333;fill-opacity:1;fill-rule:nonzero;stroke:none" transform="translate(222 107)"/><path d="M0 0h-4v2a2 2 0 0 0 4 0z" style="fill:#191919;fill-opacity:1;fill-rule:nonzero;stroke:none" transform="translate(104 82)"/></g></svg>