<?xml version="1.0" encoding="iso-8859-1"?>
<!-- Generator: Adobe Illustrator 27.8.1, SVG Export Plug-In . SVG Version: 6.00 Build 0)  -->
<svg version="1.1" id="Layer_1" xmlns="http://www.w3.org/2000/svg" xmlns:xlink="http://www.w3.org/1999/xlink" x="0px" y="0px"
	 viewBox="0 0 256 256" style="enable-background:new 0 0 256 256;" xml:space="preserve">
<path style="opacity:0.5;fill:#FFFFFF;" d="M220,28H36C18.355,28,4,42.355,4,60v136c0,17.645,14.355,32,32,32h184
	c17.645,0,32-14.355,32-32V60C252,42.355,237.645,28,220,28L220,28z"/>
<path style="fill:#D9D4BC;" d="M220,220H36c-13.255,0-24-10.745-24-24V60c0-13.255,10.745-24,24-24h184c13.255,0,24,10.745,24,24
	v136C244,209.255,233.255,220,220,220z"/>
<path style="fill:#737373;" d="M219.883,196H36.117C29.425,196,24,190.575,24,183.883V72.117C24,65.425,29.425,60,36.117,60h183.766
	C226.575,60,232,65.425,232,72.117v111.766C232,190.575,226.575,196,219.883,196z"/>
<path style="fill:#D9D4BC;" d="M194,188H62c-2.209,0-4-1.791-4-4v-36c0-2.209,1.791-4,4-4h132c2.209,0,4,1.791,4,4v36
	C198,186.209,196.209,188,194,188z"/>
<path style="fill:#FFFFFF;" d="M182,208h-8c-1.105,0-2-0.895-2-2l0,0c0-1.105,0.895-2,2-2h8c1.105,0,2,0.895,2,2l0,0
	C184,207.105,183.105,208,182,208z"/>
<path style="fill:#404040;" d="M66.138,184h27.724c1.181,0,2.138-0.957,2.138-2.138v-31.724c0-1.181-0.957-2.138-2.138-2.138H66.138
	c-1.181,0-2.138,0.957-2.138,2.138v31.724C64,183.043,64.957,184,66.138,184z"/>
<path style="fill:#404040;" d="M162.138,184h27.724c1.181,0,2.138-0.957,2.138-2.138v-31.724c0-1.181-0.957-2.138-2.138-2.138
	h-27.724c-1.181,0-2.138,0.957-2.138,2.138v31.724C160,183.043,160.957,184,162.138,184z"/>
<path style="fill:#D9D4BC;" d="M223.959,132H32.041c-2.232,0-4.041-1.809-4.041-4.041v-27.919C28,97.809,29.809,96,32.041,96
	h191.919c2.232,0,4.041,1.809,4.041,4.041v27.919C228,130.191,226.191,132,223.959,132z"/>
<path style="fill:#404040;" d="M222,128H34c-1.105,0-2-0.895-2-2v-24c0-1.105,0.895-2,2-2h188c1.105,0,2,0.895,2,2v24
	C224,127.105,223.105,128,222,128z"/>
<rect x="0" y="0" style="fill:none;" width="128" height="28"/>
<path style="fill:#4D4D4D;" d="M77,128L77,128c-0.552,0-1-0.448-1-1v-26c0-0.552,0.448-1,1-1l0,0c0.552,0,1,0.448,1,1v26
	C78,127.552,77.552,128,77,128z"/>
<path style="fill:#4D4D4D;" d="M179,128L179,128c-0.552,0-1-0.448-1-1v-26c0-0.552,0.448-1,1-1l0,0c0.552,0,1,0.448,1,1v26
	C180,127.552,179.552,128,179,128z"/>
<rect x="33" y="113" style="fill:#333333;" width="190" height="2"/>
</svg>
