<?xml version="1.0" encoding="UTF-8" standalone="no"?>
<svg
   xmlns:dc="http://purl.org/dc/elements/1.1/"
   xmlns:cc="http://creativecommons.org/ns#"
   xmlns:rdf="http://www.w3.org/1999/02/22-rdf-syntax-ns#"
   xmlns:svg="http://www.w3.org/2000/svg"
   xmlns="http://www.w3.org/2000/svg"
   viewBox="0 0 320 330.66665"
   height="330.66666"
   width="320"
   xml:space="preserve"
   id="svg2"
   version="1.1"><metadata
     id="metadata8"><rdf:RDF><cc:Work
         rdf:about=""><dc:format>image/svg+xml</dc:format><dc:type
           rdf:resource="http://purl.org/dc/dcmitype/StillImage" /></cc:Work></rdf:RDF></metadata><defs
     id="defs6"><clipPath
       id="clipPath18"
       clipPathUnits="userSpaceOnUse"><path
         id="path16"
         d="M 0,256 H 256 V 0 H 0 Z" /></clipPath><clipPath
       id="clipPath26"
       clipPathUnits="userSpaceOnUse"><path
         id="path24"
         d="M 8,252 H 248 V 4 H 8 Z" /></clipPath></defs><g
     transform="matrix(1.3333333,0,0,-1.3333333,-10.666666,335.99999)"
     id="g10"><g
       id="g12"><g
         clip-path="url(#clipPath18)"
         id="g14"><g
           id="g20"><g
             id="g22" /><g
             id="g34"><g
               style="opacity:0.5"
               id="g32"
               clip-path="url(#clipPath26)"><g
                 id="g30"
                 transform="translate(248,228)"><path
                   id="path28"
                   style="fill:#ffffff;fill-opacity:1;fill-rule:nonzero;stroke:none"
                   d="m 0,0 c 0,13.233 -10.767,24 -24,24 h -192 c -13.233,0 -24,-10.767 -24,-24 v -82 c 0,-6.229 2.386,-11.911 6.29,-16.181 -1.109,-1.378 -1.9,-2.953 -2.337,-4.635 -2.562,-3.899 -3.953,-8.5 -3.953,-13.184 v -84 c 0,-13.233 10.767,-24 24,-24 h 192 c 13.233,0 24,10.767 24,24 v 84 c 0,4.684 -1.391,9.285 -3.953,13.184 -0.437,1.682 -1.228,3.257 -2.337,4.635 C -2.386,-93.911 0,-88.229 0,-82 Z" /></g></g></g></g><g
           transform="translate(20,120)"
           id="g36"><path
             id="path38"
             style="fill:#e77f22;fill-opacity:1;fill-rule:nonzero;stroke:none"
             d="m 0,0 c 0,0 -4,8 12,8 h 8 V 0 Z" /></g><g
           transform="translate(236,120)"
           id="g40"><path
             id="path42"
             style="fill:#e77f22;fill-opacity:1;fill-rule:nonzero;stroke:none"
             d="m 0,0 c 0,0 4,8 -12,8 h -8 V 0 Z" /></g><g
           transform="translate(224,12)"
           id="g44"><path
             id="path46"
             style="fill:#e6e6e6;fill-opacity:1;fill-rule:nonzero;stroke:none"
             d="m 0,0 h -192 c -8.836,0 -16,7.163 -16,16 v 84 c 0,8.837 7.164,16 16,16 H 0 c 8.837,0 16,-7.163 16,-16 V 16 C 16,7.163 8.837,0 0,0" /></g><g
           transform="translate(224,130)"
           id="g48"><path
             id="path50"
             style="fill:#cccccc;fill-opacity:1;fill-rule:nonzero;stroke:none"
             d="m 0,0 h -192 c -8.836,0 -16,7.164 -16,16 v 82 c 0,8.836 7.164,16 16,16 H 0 c 8.837,0 16,-7.164 16,-16 V 16 C 16,7.164 8.837,0 0,0" /></g><g
           transform="translate(220,136)"
           id="g52"><path
             id="path54"
             style="fill:#e6e6e6;fill-opacity:1;fill-rule:nonzero;stroke:none"
             d="m 0,0 h -184 c -8.836,0 -16,7.164 -16,16 v 72 c 0,8.836 7.164,16 16,16 H 0 c 8.837,0 16,-7.164 16,-16 V 16 C 16,7.164 8.837,0 0,0" /></g><g
           transform="translate(188,113)"
           id="g56"><path
             id="path58"
             style="fill:#cccccc;fill-opacity:1;fill-rule:nonzero;stroke:none"
             d="m 0,0 -116,-87 -8,-4 c 0,-1.104 0.896,-2 2,-2 h 6 118 c 1.104,0 2,0.896 2,2 V -1 1 C 4,2.104 3.104,3 2,3 Z" /></g><g
           transform="translate(64,22)"
           id="g60"><path
             id="path62"
             style="fill:#d9d9d9;fill-opacity:1;fill-rule:nonzero;stroke:none"
             d="m 0,0 v 92 c 0,1.104 0.896,2 2,2 h 123 c 0.961,0 1.369,-1.224 0.6,-1.8 L 1.6,-0.8 C 0.941,-1.294 0,-0.824 0,0" /></g><path
           id="path64"
           style="fill:#808080;fill-opacity:1;fill-rule:nonzero;stroke:none"
           d="M 204,144 H 52 v 92 h 152 z" /><path
           id="path66"
           style="fill:#808080;fill-opacity:1;fill-rule:nonzero;stroke:none"
           d="M 188,24 H 68 v 88 h 120 z" /><g
           transform="translate(204,120)"
           id="g68"><path
             id="path70"
             style="fill:#d9d9d9;fill-opacity:1;fill-rule:nonzero;stroke:none"
             d="m 0,0 h -152 c -4.418,0 -8,3.582 -8,8 0,4.418 3.582,8 8,8 H 0 C 4.418,16 8,12.418 8,8 8,3.582 4.418,0 0,0" /></g><path
           id="path72"
           style="fill:#cccccc;fill-opacity:1;fill-rule:nonzero;stroke:none"
           d="m 68,120 h -2 v 16 h 2 z" /><path
           id="path74"
           style="fill:#cccccc;fill-opacity:1;fill-rule:nonzero;stroke:none"
           d="m 190,120 h -2 v 16 h 2 z" /><g
           transform="translate(147,124)"
           id="g76"><path
             id="path78"
             style="fill:#808080;fill-opacity:1;fill-rule:nonzero;stroke:none"
             d="M 0,0 V 0 C -0.553,0 -1,0.447 -1,1 V 3 C -1,3.552 -0.553,4 0,4 0.553,4 1,3.552 1,3 V 1 C 1,0.447 0.553,0 0,0" /></g><g
           transform="translate(109,124)"
           id="g80"><path
             id="path82"
             style="fill:#808080;fill-opacity:1;fill-rule:nonzero;stroke:none"
             d="M 0,0 V 0 C -0.552,0 -1,0.447 -1,1 V 3 C -1,3.552 -0.552,4 0,4 0.552,4 1,3.552 1,3 V 1 C 1,0.447 0.552,0 0,0" /></g><g
           transform="translate(132,128)"
           id="g84"><path
             id="path86"
             style="fill:#808080;fill-opacity:1;fill-rule:nonzero;stroke:none"
             d="m 0,0 c 0,-2.209 -1.791,-4 -4,-4 -2.209,0 -4,1.791 -4,4 0,2.209 1.791,4 4,4 2.209,0 4,-1.791 4,-4" /></g><g
           transform="translate(126,128)"
           id="g88"><path
             id="path90"
             style="fill:#4f4f4f;fill-opacity:1;fill-rule:nonzero;stroke:none"
             d="M 0,0 C 0,1.104 0.896,2 2,2 3.104,2 4,1.104 4,0 4,-1.104 3.104,-2 2,-2 0.896,-2 0,-1.104 0,0" /></g><g
           transform="translate(129,128)"
           id="g92"><path
             id="path94"
             style="fill:#191919;fill-opacity:1;fill-rule:nonzero;stroke:none"
             d="m 0,0 c 0,-0.552 -0.448,-1 -1,-1 -0.552,0 -1,0.448 -1,1 0,0.552 0.448,1 1,1 0.552,0 1,-0.448 1,-1" /></g><g
           transform="translate(51,62)"
           id="g96"><path
             id="path98"
             style="fill:#f39b11;fill-opacity:1;fill-rule:nonzero;stroke:none"
             d="m 0,0 h -9 v 9 c 0,0.553 -0.448,1 -1,1 h -6 c -0.552,0 -1,-0.447 -1,-1 V 0 h -9 c -0.552,0 -1,-0.447 -1,-1 v -6 c 0,-0.553 0.448,-1 1,-1 h 9 v -9 c 0,-0.553 0.448,-1 1,-1 h 6 c 0.552,0 1,0.447 1,1 v 9 h 9 c 0.552,0 1,0.447 1,1 v 6 C 1,-0.447 0.552,0 0,0" /></g><path
           id="path100"
           style="fill:#e77f22;fill-opacity:1;fill-rule:nonzero;stroke:none"
           d="m 32,57 h -4 v 2 h 4 z" /><path
           id="path102"
           style="fill:#e77f22;fill-opacity:1;fill-rule:nonzero;stroke:none"
           d="m 48,57 h -4 v 2 h 4 z" /><path
           id="path104"
           style="fill:#e77f22;fill-opacity:1;fill-rule:nonzero;stroke:none"
           d="m 37,68 h 2 v -4 h -2 z" /><path
           id="path106"
           style="fill:#e77f22;fill-opacity:1;fill-rule:nonzero;stroke:none"
           d="m 37,52 h 2 v -4 h -2 z" /><g
           transform="translate(54,98)"
           id="g108"><path
             id="path110"
             style="fill:#cccccc;fill-opacity:1;fill-rule:nonzero;stroke:none"
             d="m 0,0 c 0,-8.837 -7.164,-16 -16,-16 -8.836,0 -16,7.163 -16,16 0,8.837 7.164,16 16,16 C -7.164,16 0,8.837 0,0" /></g><g
           transform="translate(48,98)"
           id="g112"><path
             id="path114"
             style="fill:#999999;fill-opacity:1;fill-rule:nonzero;stroke:none"
             d="m 0,0 c 0,-5.522 -4.477,-10 -10,-10 -5.523,0 -10,4.478 -10,10 0,5.522 4.477,10 10,10 C -4.477,10 0,5.522 0,0" /></g><g
           transform="translate(45,98)"
           id="g116"><path
             id="path118"
             style="fill:#8c8c8c;fill-opacity:1;fill-rule:nonzero;stroke:none"
             d="m 0,0 c 0,-3.866 -3.134,-7 -7,-7 -3.866,0 -7,3.134 -7,7 0,3.866 3.134,7 7,7 3.866,0 7,-3.134 7,-7" /></g><g
           transform="translate(48,33)"
           id="g120"><path
             id="path122"
             style="fill:#cccccc;fill-opacity:1;fill-rule:nonzero;stroke:none"
             d="m 0,0 c -2.757,0 -5,-2.243 -5,-5 0,-2.757 2.243,-5 5,-5 2.757,0 5,2.243 5,5 0,2.757 -2.243,5 -5,5" /></g><g
           transform="translate(206,109)"
           id="g124"><path
             id="path126"
             style="fill:#999999;fill-opacity:1;fill-rule:nonzero;stroke:none"
             d="m 0,0 c -2.757,0 -5,-2.243 -5,-5 0,-2.757 2.243,-5 5,-5 2.757,0 5,2.243 5,5 0,2.757 -2.243,5 -5,5" /></g><g
           transform="translate(208,44)"
           id="g128"><path
             id="path130"
             style="fill:#cccccc;fill-opacity:1;fill-rule:nonzero;stroke:none"
             d="m 0,0 c 0,-2.209 -1.791,-4 -4,-4 -2.209,0 -4,1.791 -4,4 0,2.209 1.791,4 4,4 2.209,0 4,-1.791 4,-4" /></g><g
           transform="translate(208,28)"
           id="g132"><path
             id="path134"
             style="fill:#cccccc;fill-opacity:1;fill-rule:nonzero;stroke:none"
             d="m 0,0 c 0,-2.209 -1.791,-4 -4,-4 -2.209,0 -4,1.791 -4,4 0,2.209 1.791,4 4,4 2.209,0 4,-1.791 4,-4" /></g><g
           transform="translate(224,90)"
           id="g136"><path
             id="path138"
             style="fill:#f39b11;fill-opacity:1;fill-rule:nonzero;stroke:none"
             d="m 0,0 c 0,-3.313 -2.687,-6 -6,-6 -3.313,0 -6,2.687 -6,6 0,3.313 2.687,6 6,6 3.313,0 6,-2.687 6,-6" /></g><g
           transform="translate(224,66)"
           id="g140"><path
             id="path142"
             style="fill:#f39b11;fill-opacity:1;fill-rule:nonzero;stroke:none"
             d="m 0,0 c 0,-3.313 -2.687,-6 -6,-6 -3.313,0 -6,2.687 -6,6 0,3.313 2.687,6 6,6 3.313,0 6,-2.687 6,-6" /></g><g
           transform="translate(236,78)"
           id="g144"><path
             id="path146"
             style="fill:#f39b11;fill-opacity:1;fill-rule:nonzero;stroke:none"
             d="m 0,0 c 0,-3.313 -2.687,-6 -6,-6 -3.313,0 -6,2.687 -6,6 0,3.313 2.687,6 6,6 3.313,0 6,-2.687 6,-6" /></g><g
           transform="translate(212,78)"
           id="g148"><path
             id="path150"
             style="fill:#f39b11;fill-opacity:1;fill-rule:nonzero;stroke:none"
             d="m 0,0 c 0,-3.313 -2.687,-6 -6,-6 -3.313,0 -6,2.687 -6,6 0,3.313 2.687,6 6,6 3.313,0 6,-2.687 6,-6" /></g></g></g></g></svg>