<svg xmlns="http://www.w3.org/2000/svg" xml:space="preserve" width="256" height="330.667"><defs><clipPath id="a" clipPathUnits="userSpaceOnUse"><path d="M0 256h256V0H0Z"/></clipPath><clipPath id="b" clipPathUnits="userSpaceOnUse"><path d="M32 252h192V4H32Z"/></clipPath></defs><g clip-path="url(#a)" transform="matrix(1.33333 0 0 -1.33333 -42.667 336)"><g clip-path="url(#b)" style="opacity:.5"><path d="M0 0h-134.497c-8.822 0-16-7.178-16-16v-220c0-6.617 5.383-12 12-12h168c6.617 0 12 5.383 12 12v198.185a12 12 0 0 1-4.098 9.031L7.902-2.969A12 12 0 0 1 0 0" style="fill:#fff;fill-opacity:1;fill-rule:nonzero;stroke:none" transform="translate(182.497 252)"/></g><path d="M0 0h-168a4 4 0 0 0-4 4v220a8 8 0 0 0 8 8h134.497a4 4 0 0 0 2.634-.99l29.503-25.815A4 4 0 0 0 4 202.185V4a4 4 0 0 0-4-4" style="fill:#262626;fill-opacity:1;fill-rule:nonzero;stroke:none" transform="translate(212 12)"/><path d="M0 0h-156a4 4 0 0 0-4 4v180a4 4 0 0 0 4 4H0a4 4 0 0 0 4-4V4a4 4 0 0 0-4-4" style="fill:#191919;fill-opacity:1;fill-rule:nonzero;stroke:none" transform="translate(204 28)"/><path d="M0 0h-148a4 4 0 0 0-4 4v172a4 4 0 0 0 4 4H0a4 4 0 0 0 4-4V4a4 4 0 0 0-4-4" style="fill:#fff;fill-opacity:1;fill-rule:nonzero;stroke:none" transform="translate(200 32)"/><path d="M0 0h-148a4 4 0 0 0 0 8H0a4 4 0 0 0 0-8" style="fill:#333;fill-opacity:1;fill-rule:nonzero;stroke:none" transform="translate(200 16)"/><path d="M0 0h-128v32a4 4 0 0 0 4 4H0Z" style="fill:#191919;fill-opacity:1;fill-rule:nonzero;stroke:none" transform="translate(176 176)"/><path d="M0 0h-28v152h24a4 4 0 0 0 4-4z" style="fill:red;fill-opacity:1;fill-rule:nonzero;stroke:none" transform="translate(204 60)"/><path d="M0 0h-112a4 4 0 0 0-4 4v24H0Z" style="fill:#191919;fill-opacity:1;fill-rule:nonzero;stroke:none" transform="translate(164 32)"/></g></svg>