<?xml version="1.0" encoding="iso-8859-1"?>
<!-- Generator: Adobe Illustrator 28.0.0, SVG Export Plug-In . SVG Version: 6.00 Build 0)  -->
<svg version="1.1" id="Layer_1" xmlns="http://www.w3.org/2000/svg" xmlns:xlink="http://www.w3.org/1999/xlink" x="0px" y="0px"
	 viewBox="0 0 256 256" style="enable-background:new 0 0 256 256;" xml:space="preserve">
<path style="opacity:0.5;fill:#FFFFFF;" d="M217.104,130.765c-0.1-0.963-0.312-1.889-0.623-2.765
	c0.31-0.877,0.522-1.802,0.623-2.765l10.81-103.588c0.87-8.341-4.94-15.894-13.126-17.382C214.133,4.092,213.446,4,212.737,4h-0.878
	H136.07h-16.14H44.141h-0.878c-0.723,0-1.424,0.094-2.091,0.271c-8.165,1.505-13.954,9.048-13.085,17.375l10.81,103.588
	c0.1,0.963,0.313,1.889,0.623,2.765c-0.31,0.877-0.522,1.802-0.623,2.765l-10.81,103.588c-0.469,4.498,1.014,9.004,4.069,12.362
	C35.21,250.074,39.579,252,44.141,252h71.754h24.211h71.754c4.562,0,8.931-1.926,11.986-5.284c3.055-3.358,4.538-7.864,4.069-12.362
	L217.104,130.765z"/>
<path style="fill:#E6E6E6;" d="M208.371,131.588c-0.211-2.039-1.929-3.588-3.979-3.588c2.05,0,3.768-1.549,3.979-3.588
	l10.716-103.588c0.458-4.426-2.77-8.311-7.087-8.776V12h-0.87H136h-16H44.87H44v0.047c-4.317,0.465-7.545,4.35-7.087,8.776
	l10.716,103.588c0.211,2.039,1.929,3.588,3.979,3.588c-2.05,0-3.768,1.549-3.979,3.588L36.913,235.177
	C36.425,239.896,40.126,244,44.87,244H211.13c4.744,0,8.446-4.104,7.958-8.823L208.371,131.588z"/>
<path style="fill:#595959;" d="M215.585,240.018c-1.152,1.278-2.735,1.982-4.456,1.982H44.87c-1.721,0-3.303-0.704-4.456-1.982
	c-1.152-1.278-1.69-2.924-1.513-4.636l10.716-103.588c0.106-1.023,0.961-1.794,1.989-1.794h152.785c1.028,0,1.884,0.771,1.989,1.794
	l10.716,103.588C217.275,237.094,216.738,238.741,215.585,240.018z"/>
<path style="fill:#333333;" d="M198.007,132H196l7.729,92.751c0.146,1.749-1.234,3.249-2.99,3.249H55.26
	c-1.755,0-3.135-1.5-2.99-3.249L60,132h-2.007l-7.715,92.585c-0.116,1.389,0.359,2.775,1.303,3.801
	c0.944,1.026,2.285,1.615,3.679,1.615H200.74c1.394,0,2.735-0.588,3.679-1.614c0.944-1.026,1.419-2.411,1.303-3.801L198.007,132z"/>
<path style="fill:none;stroke:#FFFFFF;stroke-width:2;stroke-miterlimit:10;" d="M44,16"/>
<path style="fill:#595959;" d="M49.618,124.206L39.252,24l0.547-1.198c0.537-1.174,0.884-2.419,1.164-3.679
	c0.144-0.647,0.45-1.25,0.904-1.765c0.799-0.907,2-1.357,3.209-1.357H120v4h16v-4h74.923c1.209,0,2.41,0.45,3.209,1.357
	c0.454,0.516,0.76,1.119,0.904,1.765c0.28,1.26,0.628,2.505,1.164,3.679L216.748,24l-10.366,100.206
	c-0.106,1.023-0.961,1.794-1.989,1.794H51.608C50.579,126,49.724,125.229,49.618,124.206z"/>
<polygon style="fill:#333333;" points="184,104 72,104 68,36 188,36 "/>
<rect x="88" y="48" style="fill:#1A1A1A;" width="80" height="44"/>
<polygon style="fill:#262626;" points="88,92 72,104 68,36 88,48 "/>
<polygon style="fill:#262626;" points="168,48 188,36 184,104 168,92 "/>
<path style="fill:#333333;" d="M203.971,26c0.598,0,1.143,0.246,1.534,0.692c0.383,0.437,0.553,0.993,0.477,1.565l-11.033,84
	c-0.131,0.994-0.995,1.743-2.011,1.743H63.062c-1.016,0-1.881-0.749-2.011-1.743l-11.033-84c-0.075-0.573,0.094-1.129,0.477-1.565
	C50.886,26.246,51.431,26,52.029,26H203.971 M203.971,24H52.029c-2.431,0-4.309,2.123-3.994,4.517l11.033,84
	c0.262,1.992,1.971,3.483,3.994,3.483h129.877c2.023,0,3.732-1.49,3.994-3.483l11.033-84C208.28,26.123,206.403,24,203.971,24
	L203.971,24z"/>
<path style="fill:#333333;" d="M206,22c-2.206,0-4,1.794-4,4s1.794,4,4,4s4-1.794,4-4S208.206,22,206,22L206,22z"/>
<path style="fill:#666666;" d="M206,24c1.105,0,2,0.895,2,2s-0.895,2-2,2s-2-0.895-2-2S204.895,24,206,24"/>
<path style="fill:#333333;" d="M50,22c-2.206,0-4,1.794-4,4s1.794,4,4,4s4-1.794,4-4S52.206,22,50,22L50,22z"/>
<path style="fill:#666666;" d="M50,24c1.105,0,2,0.895,2,2s-0.895,2-2,2s-2-0.895-2-2S48.895,24,50,24"/>
<g>
	<rect x="64" y="124" style="fill:#E6E6E6;" width="40" height="8"/>
</g>
<g>
	<rect x="152" y="124" style="fill:#E6E6E6;" width="40" height="8"/>
</g>
<polygon style="fill:#D9AF63;" points="108,220 56,220 58,200 108,200 "/>
<g>
	<polygon style="fill:#E6E6E6;" points="162,176 196,176 192,140 162,140 	"/>
</g>
<g>
	<polygon style="fill:#E6E6E6;" points="94,140 64,140 60,176 94,176 	"/>
</g>
<g>
	<g>
		<rect x="114" y="140" style="fill:#E6E6E6;" width="12" height="16"/>
	</g>
	<g>
		<rect x="130" y="140" style="fill:#E6E6E6;" width="12" height="16"/>
	</g>
	<g>
		<rect x="146" y="140" style="fill:#E6E6E6;" width="12" height="16"/>
	</g>
	<g>
		<rect x="98" y="140" style="fill:#E6E6E6;" width="12" height="16"/>
	</g>
	<g>
		<rect x="146" y="160" style="fill:#E6E6E6;" width="12" height="16"/>
	</g>
	<g>
		<rect x="98" y="160" style="fill:#E6E6E6;" width="12" height="16"/>
	</g>
	<g>
		<rect x="130" y="160" style="fill:#E6E6E6;" width="12" height="16"/>
	</g>
	<g>
		<rect x="114" y="160" style="fill:#E6E6E6;" width="12" height="16"/>
	</g>
</g>
<g>
	<polygon style="fill:#E6E6E6;" points="140,244 116,244 120,236 136,236 	"/>
</g>
</svg>
