<svg xmlns="http://www.w3.org/2000/svg" xml:space="preserve" width="330.667" height="330.666"><defs><clipPath id="a" clipPathUnits="userSpaceOnUse"><path d="M0 256h256V0H0Z"/></clipPath><clipPath id="b" clipPathUnits="userSpaceOnUse"><path d="M4 252.409h248v-248H4Z"/></clipPath></defs><g clip-path="url(#a)" transform="matrix(1.33333 0 0 -1.33333 -5.333 336.545)"><g clip-path="url(#b)" style="opacity:.5"><path d="M0 0c0-68.483-55.517-124-124-124S-248-68.483-248 0s55.517 124 124 124S0 68.483 0 0" style="fill:#fff;fill-opacity:1;fill-rule:nonzero;stroke:none" transform="translate(252 128.41)"/></g><path d="M0 0c-8.836 0-16 7.163-16 16s7.164 16 16 16 16-7.164 16-16S8.837 0 0 0m0 132c-64.071 0-116-51.934-116-116 0-64.065 51.929-116 116-116 64.051 0 116 51.935 116 116 0 64.066-51.949 116-116 116" style="fill:#ccc;fill-opacity:1;fill-rule:nonzero;stroke:none" transform="translate(128 112)"/><path d="M0 0c-8.836 0-16 7.163-16 16s7.164 16 16 16 16-7.164 16-16S8.837 0 0 0m0 127c-29.651 0-57.526-11.546-78.491-32.511C-99.455 73.525-111 45.65-111 16s11.545-57.524 32.509-78.489C-57.526-83.454-29.651-95 0-95c61.206 0 111 49.794 111 111S61.206 127 0 127" style="fill:#d9d9d9;fill-opacity:1;fill-rule:nonzero;stroke:none" transform="translate(128 112)"/><path d="M0 0c-8.836 0-16 7.163-16 16s7.164 16 16 16 16-7.164 16-16S8.837 0 0 0m.002 52C-19.85 52-36 35.851-36 16S-19.85-20 .002-20C19.852-20 36-3.851 36 16S19.852 52 .002 52" style="fill:#ccc;fill-opacity:1;fill-rule:nonzero;stroke:none" transform="translate(128 112)"/><path d="M0 0c-8.836 0-16 7.163-16 16s7.164 16 16 16 16-7.164 16-16S8.837 0 0 0m.002 48C-17.647 48-32 33.644-32 16-32-1.645-17.647-16 .002-16 17.646-16 32-1.645 32 16 32 33.644 17.646 48 .002 48" style="fill:#e6e6e6;fill-opacity:1;fill-rule:nonzero;stroke:none" transform="translate(128 112)"/></g></svg>