<?xml version="1.0" encoding="iso-8859-1"?>
<!-- Generator: Adobe Illustrator 28.0.0, SVG Export Plug-In . SVG Version: 6.00 Build 0)  -->
<svg version="1.1" id="Layer_1" xmlns="http://www.w3.org/2000/svg" xmlns:xlink="http://www.w3.org/1999/xlink" x="0px" y="0px"
	 viewBox="0 0 256 256" style="enable-background:new 0 0 256 256;" xml:space="preserve">
<g>
	<path style="opacity:0.5;fill:#FFFFFF;" d="M190.608,20H186H70h-4.608l-2.312,3.986l-58,100L2.752,128l2.328,4.014l58,100
		L65.392,236H70h116h4.608l2.312-3.986l58-100l2.328-4.014l-2.328-4.014l-58-100L190.608,20L190.608,20z"/>
	<polygon style="fill:#4D4D4D;" points="186,28 70,28 12,128 70,228 186,228 244,128 	"/>
</g>
<sodipodi:namedview  bordercolor="#666666" borderopacity="1.0" id="namedview7" pagecolor="#ffffff" showgrid="false">
	</sodipodi:namedview>
<path style="fill-rule:evenodd;clip-rule:evenodd;fill:#9BC2DD;" d="M171.111,140.012c2.556,0.98,4.846,2.189,6.889,3.608v-8.264
	C176.094,136.996,173.804,138.549,171.111,140.012z"/>
<g id="c4Xtof_00000163757510034936967510000002604143267696497281_">
</g>
<polygon style="fill:#1ABF9F;" points="152,160 136,160 136,168 120,168 120,160 104,160 104,176 112,176 112,184 120,184 120,192 
	136,192 136,184 144,184 144,176 152,176 "/>
<polygon style="fill:#FFFF00;" points="104,96 120,96 120,88 136,88 136,96 152,96 152,80 144,80 144,72 136,72 136,64 120,64 
	120,72 112,72 112,80 104,80 "/>
<polygon style="fill:#3096CF;" points="160,104 160,120 168,120 168,136 160,136 160,152 176,152 176,144 184,144 184,136 192,136 
	192,120 184,120 184,112 176,112 176,104 "/>
<polygon style="fill:#ED4792;" points="96,152 96,136 88,136 88,120 96,120 96,104 80,104 80,112 72,112 72,120 64,120 64,136 
	72,136 72,144 80,144 80,152 "/>
</svg>
