<svg xmlns="http://www.w3.org/2000/svg" xml:space="preserve" width="330.667" height="330.667"><defs><clipPath id="a" clipPathUnits="userSpaceOnUse"><path d="M0 256h256V0H0Z"/></clipPath><clipPath id="b" clipPathUnits="userSpaceOnUse"><path d="M4 252h248V4H4Z"/></clipPath></defs><g clip-path="url(#a)" transform="matrix(1.33333 0 0 -1.33333 -5.333 336)"><g clip-path="url(#b)" style="opacity:.5"><path d="M0 0c0-68.483-55.517-124-124-124S-248-68.483-248 0s55.517 124 124 124S0 68.483 0 0" style="fill:#fff;fill-opacity:1;fill-rule:nonzero;stroke:none" transform="translate(252 128)"/></g><path d="M0 0c8.267 0 14.968-6.701 14.968-14.968S8.267-29.936 0-29.936s-14.968 6.702-14.968 14.968S-8.267 0 0 0m0 101.032c-64.065 0-116-51.935-116-116s51.935-116 116-116 116 51.935 116 116-51.935 116-116 116" style="fill:#262626;fill-opacity:1;fill-rule:nonzero;stroke:none" transform="translate(128 142.968)"/><path d="M0 0c8.247 0 14.934-6.686 14.934-14.933S8.247-29.867 0-29.867s-14.933 6.687-14.933 14.934S-8.248 0 0 0m0 97.067c-61.856 0-112-50.144-112-112s50.144-112 112-112c61.855 0 112 50.144 112 112s-50.145 112-112 112" style="fill:#333;fill-opacity:1;fill-rule:nonzero;stroke:none" transform="translate(128 142.933)"/><path d="M0 0c8.267 0 14.968-6.701 14.968-14.968S8.267-29.936 0-29.936s-14.968 6.702-14.968 14.968S-8.267 0 0 0m0 29.936c-24.799 0-44.903-20.104-44.903-44.904S-24.799-59.871 0-59.871c24.8 0 44.903 20.103 44.903 44.903S24.8 29.936 0 29.936" style="fill:#333;fill-opacity:1;fill-rule:nonzero;stroke:none" transform="translate(128 142.968)"/><path d="M0 0c-7.221 0-13.097-5.876-13.097-13.097S-7.221-26.193 0-26.193s13.097 5.876 13.097 13.096C13.097-5.876 7.221 0 0 0m0-29.936c-9.286 0-16.839 7.554-16.839 16.839C-16.839-3.811-9.286 3.742 0 3.742s16.839-7.553 16.839-16.839S9.285-29.936 0-29.936m0 59.872c-23.729 0-43.032-19.306-43.032-43.033 0-23.726 19.303-43.032 43.032-43.032s43.032 19.306 43.032 43.032C43.032 10.63 23.729 29.936 0 29.936m0-89.807c-25.792 0-46.774 20.982-46.774 46.774S-25.792 33.678 0 33.678s46.774-20.983 46.774-46.775S25.792-59.871 0-59.871" style="fill:#262626;fill-opacity:1;fill-rule:nonzero;stroke:none" transform="translate(128 141.097)"/><path d="M0 0c-.214 0-.604.007-1.002.017V6.24c0 .18.128 1.577 1.042 1.577.913 0 .962-1.395.962-1.577V.017C.603.007.214 0 0 0m20.074 14.712c0 13.888-10.891 18.517-11.557 18.759s-.485-.273 0-.485c9.379-5.052 9.077-14.462 9.077-14.886 0-.406.359-14.547-13.433-17.701V6.24c0 1.361.964 2.121 2.142 2.121h.351c.114 0 .137.091.137.091l.046.182s.022.086-.148.086H-6.688c-.171 0-.147-.086-.147-.086l.045-.182s.022-.091.137-.091h.351c1.178 0 2.142-.76 2.142-2.121V.399C-17.952 3.553-17.593 17.694-17.593 18.1c0 .424-.302 9.834 9.077 14.886.485.212.666.727 0 .485S-20.074 28.6-20.074 14.712c0-9.569 7.505-17.364 15.915-19.221v-6.388s1.458-11.569 1.534-11.569S-1-10.897-1-10.897v5.974c.404-.025.843-.048 1.119-.048.24 0 .571.017.885.039v-5.965s1.547-11.569 1.622-11.569c.077 0 1.535 11.57 1.535 11.57v6.388c8.409 1.857 15.913 9.651 15.913 19.22" style="fill:#007b00;fill-opacity:1;fill-rule:nonzero;stroke:none" transform="translate(128.002 202.466)"/><path d="M0 0c.214 0 .604-.007 1.001-.017v-6.222c0-.182-.127-1.578-1.041-1.578s-.962 1.395-.962 1.578v6.222C-.603-.007-.215 0 0 0m-20.075-14.712c0-13.888 10.892-18.517 11.558-18.759s.484.272 0 .485c-9.379 5.051-9.077 14.462-9.077 14.885 0 .407-.36 14.548 13.433 17.703v-5.841c0-1.362-.964-2.121-2.142-2.121h-.352c-.113 0-.137-.091-.137-.091l-.045-.182s-.023-.086.148-.086H6.687c.171 0 .148.086.148.086l-.046.182s-.022.091-.137.091h-.351c-1.178 0-2.142.759-2.142 2.121v5.841c13.792-3.155 13.433-17.296 13.433-17.703 0-.422.303-9.833-9.076-14.885-.485-.212-.667-.727 0-.485.665.242 11.557 4.871 11.557 18.759 0 9.569-7.505 17.364-15.915 19.222v6.387S2.7 22.467 2.623 22.467c-.075 0-1.624-11.57-1.624-11.57V4.923c-.403.025-.843.048-1.119.048-.24 0-.571-.017-.885-.038v5.964s-1.549 11.57-1.625 11.57-1.534-11.57-1.534-11.57V4.51c-8.407-1.859-15.911-9.654-15.911-19.222" style="fill:#007b00;fill-opacity:1;fill-rule:nonzero;stroke:none" transform="translate(127.999 53.534)"/><path d="M0 0c0 .214.007.604.017 1.002h6.222c.182 0 1.578-.128 1.578-1.042 0-.913-1.395-.963-1.578-.963H.017C.007-.604 0-.215 0 0m14.712-20.074c13.888 0 18.517 10.89 18.759 11.556s-.272.485-.485 0c-5.051-9.378-14.462-9.077-14.885-9.077-.407 0-14.548-.359-17.703 13.434h5.841c1.362 0 2.121-.964 2.121-2.143v-.351c0-.114.091-.137.091-.137l.182-.046s.086-.021.086.148V6.687c0 .171-.086.147-.086.147l-.182-.045s-.091-.023-.091-.137v-.351c0-1.178-.759-2.142-2.121-2.142H.398c3.155 13.792 17.296 13.433 17.703 13.433.422 0 9.833.302 14.885-9.077.212-.485.727-.666.485 0S28.6 20.073 14.712 20.073c-9.569 0-17.364-7.505-19.222-15.915h-6.387s-11.57-1.458-11.57-1.534S-10.897.999-10.897.999h5.974A21 21 0 0 1-4.971-.12c0-.24.017-.57.038-.885h-5.964s-11.57-1.548-11.57-1.625 11.57-1.533 11.57-1.533h6.387c1.859-8.408 9.653-15.911 19.222-15.911" style="fill:#007b00;fill-opacity:1;fill-rule:nonzero;stroke:none" transform="translate(202.466 128.206)"/><path d="M0 0c0-.214-.007-.604-.017-1.002H-6.24c-.181 0-1.577.128-1.577 1.042 0 .913 1.395.962 1.577.962h6.223C-.007.604 0 .214 0 0m-14.713 20.075c-13.888 0-18.516-10.891-18.759-11.557-.242-.666.273-.485.485 0 5.052 9.379 14.462 9.077 14.886 9.077.406 0 14.547.359 17.701-13.433h-5.841c-1.361 0-2.121.963-2.121 2.142v.351c0 .114-.091.137-.091.137l-.182.046s-.086.022-.086-.148V-6.687c0-.171.086-.148.086-.148l.182.046s.091.022.091.137v.351c0 1.179.76 2.142 2.121 2.142H-.4c-3.154-13.792-17.295-13.433-17.701-13.433-.424 0-9.834-.303-14.886 9.077-.212.485-.727.666-.485 0 .243-.666 4.871-11.558 18.759-11.558 9.569 0 17.364 7.505 19.221 15.915h6.388S22.465-2.7 22.465-2.623c0 .075-11.569 1.624-11.569 1.624H4.922c.025.403.048.843.048 1.119 0 .24-.017.571-.039.885h5.965s11.569 1.546 11.569 1.621c0 .077-11.569 1.535-11.569 1.535H4.508c-1.857 8.41-9.652 15.914-19.221 15.914" style="fill:#007b00;fill-opacity:1;fill-rule:nonzero;stroke:none" transform="translate(53.535 128.002)"/></g></svg>