<svg xmlns="http://www.w3.org/2000/svg" xml:space="preserve" width="330.667" height="330.667"><defs><clipPath id="a" clipPathUnits="userSpaceOnUse"><path d="M0 256h256V0H0Z"/></clipPath><clipPath id="b" clipPathUnits="userSpaceOnUse"><path d="M4 252h248V4H4Z"/></clipPath></defs><g clip-path="url(#a)" transform="matrix(1.33333 0 0 -1.33333 -5.333 336)"><g clip-path="url(#b)" style="opacity:.5"><path d="M0 0c0-68.483-55.517-124-124-124S-248-68.483-248 0s55.517 124 124 124S0 68.483 0 0" style="fill:#fff;fill-opacity:1;fill-rule:nonzero;stroke:none" transform="translate(252 128)"/></g><path d="M0 0c8.267 0 14.968-6.701 14.968-14.968S8.267-29.936 0-29.936s-14.968 6.702-14.968 14.968S-8.267 0 0 0m0 101.032c-64.065 0-116-51.935-116-116s51.935-116 116-116 116 51.935 116 116-51.935 116-116 116" style="fill:#595959;fill-opacity:1;fill-rule:nonzero;stroke:none" transform="translate(128 142.968)"/><path d="M0 0c8.247 0 14.934-6.686 14.934-14.933S8.247-29.867 0-29.867s-14.933 6.687-14.933 14.934S-8.248 0 0 0m0 97.067c-61.856 0-112-50.144-112-112s50.144-112 112-112c61.855 0 112 50.144 112 112s-50.145 112-112 112" style="fill:#333;fill-opacity:1;fill-rule:nonzero;stroke:none" transform="translate(128 142.933)"/><path d="M0 0c8.267 0 14.968-6.701 14.968-14.968S8.267-29.936 0-29.936s-14.968 6.702-14.968 14.968S-8.267 0 0 0m0 29.936c-24.799 0-44.903-20.104-44.903-44.904S-24.799-59.871 0-59.871c24.8 0 44.903 20.103 44.903 44.903S24.8 29.936 0 29.936" style="fill:#333;fill-opacity:1;fill-rule:nonzero;stroke:none" transform="translate(128 142.968)"/><path d="M0 0c-7.221 0-13.097-5.876-13.097-13.097S-7.221-26.193 0-26.193s13.097 5.876 13.097 13.096C13.097-5.876 7.221 0 0 0m0-29.936c-9.286 0-16.839 7.554-16.839 16.839C-16.839-3.811-9.286 3.742 0 3.742s16.839-7.553 16.839-16.839S9.285-29.936 0-29.936m0 59.872c-23.729 0-43.032-19.306-43.032-43.033 0-23.726 19.303-43.032 43.032-43.032s43.032 19.306 43.032 43.032C43.032 10.63 23.729 29.936 0 29.936m0-89.807c-25.792 0-46.774 20.982-46.774 46.774S-25.792 33.678 0 33.678s46.774-20.983 46.774-46.775S25.792-59.871 0-59.871" style="fill:#595959;fill-opacity:1;fill-rule:nonzero;stroke:none" transform="translate(128 141.097)"/><path d="M0 0c-.764.719-.529 3.19-.529 3.19 0 2.606 8.622 4.187 8.622 4.187a.397.397 0 0 0 .393-.401.396.396 0 0 0-.393-.402C.557 4.478 1.44 3.048 1.484 2.686c.09-.728 3.567-4.735 22.497-4.735.466 0 .466-.555.466-.555v-4.408l-.945-22.444a.397.397 0 0 0-.392-.401.4.4 0 0 0-.394.401L21.02-6.742C8.133-5.48 2.524-2.896 0 0" style="fill:#9c0000;fill-opacity:1;fill-rule:nonzero;stroke:none" transform="translate(98.563 52.83)"/><path d="M0 0c0-.222-.158-.401-.35-.401S-.698-.222-.698 0l-1.864 26.549L-.7 55.197c0 .222.157.402.35.402s.35-.18.35-.402l1.861-28.648Z" style="fill:#9c0000;fill-opacity:1;fill-rule:nonzero;stroke:none" transform="translate(128.35 20.401)"/><path d="m0 0-1.697-22.715c0-.221-.177-.4-.394-.4a.397.397 0 0 0-.393.4L-3.428-.27v4.408s0 .554.466.554c18.931 0 22.407 4.007 22.497 4.735.044.361.927 1.792-6.608 3.889a.396.396 0 0 0-.394.401c0 .221.175.401.394.401 0 0 8.622-1.58 8.622-4.186 0 0 .235-2.471-.528-3.191C18.494 3.845 12.886 1.261 0 0" style="fill:#9c0000;fill-opacity:1;fill-rule:nonzero;stroke:none" transform="translate(136.417 46.088)"/></g></svg>