<?xml version="1.0" encoding="iso-8859-1"?>
<!-- Generator: Adobe Illustrator 27.8.1, SVG Export Plug-In . SVG Version: 6.00 Build 0)  -->
<svg version="1.1" id="Layer_1" xmlns="http://www.w3.org/2000/svg" xmlns:xlink="http://www.w3.org/1999/xlink" x="0px" y="0px"
	 viewBox="0 0 256 256" style="enable-background:new 0 0 256 256;" xml:space="preserve">
<path style="opacity:0.5;fill:#FFFFFF;" d="M239.857,4H16.143C9.447,4,4,9.447,4,16.143v223.714C4,246.553,9.447,252,16.143,252H96
	h8h48h8h79.857c6.696,0,12.143-5.447,12.143-12.143V76v-8V16.143C252,9.447,246.553,4,239.857,4z M128,158
	c-16.569,0-30-13.431-30-30s13.431-30,30-30s30,13.432,30,30S144.569,158,128,158z"/>
<path id="path3818" style="opacity:0.5;fill:#EFEFEF;enable-background:new    ;" d="M128,94.857
	c-18.304,0-33.143,14.839-33.143,33.143s14.839,33.143,33.143,33.143s33.143-14.839,33.143-33.143S146.304,94.857,128,94.857z
	 M128,103.143c13.728,0,24.857,11.129,24.857,24.857S141.728,152.857,128,152.857c-13.728,0-24.857-11.129-24.857-24.857
	S114.272,103.143,128,103.143z"/>
<path id="path3810" style="fill:#404040;" d="M128,12C63.935,12,12,63.935,12,128s51.935,116,116,116s116-51.935,116-116
	S192.065,12,128,12z M128,99c16.016,0,29,12.984,29,29s-12.984,29-29,29s-29-12.984-29-29S111.984,99,128,99z"/>
<path id="path3806" style="fill:#4D4D4D;" d="M128,70c-32.033,0-58,25.967-58,58s25.967,58,58,58s58-25.967,58-58S160.033,70,128,70
	z M128,100c15.464,0,28,12.536,28,28s-12.536,28-28,28s-28-12.536-28-28S112.536,100,128,100z"/>
<path id="rect2987_1_" style="fill:#333333;" d="M16.143,12C13.848,12,12,13.848,12,16.143v223.714c0,2.295,1.848,4.143,4.143,4.143
	H96c0-2.288,1.712-4.143,4-4.143s4,1.855,4,4.143h48c0-2.288,1.712-4.143,4-4.143s4,1.855,4,4.143h79.857
	c2.295,0,4.143-1.848,4.143-4.143V76h-4.143v-8H244V16.143c0-2.295-1.848-4.143-4.143-4.143H16.143z M128,96
	c17.673,0,32,14.327,32,32s-14.327,32-32,32s-32-14.327-32-32S110.327,96,128,96z M170,136.5c3.314,0,6,2.686,6,6s-2.686,6-6,6
	s-6-2.686-6-6S166.686,136.5,170,136.5z M128,180c6.648,0,12,5.352,12,12v32c0,6.648-5.352,12-12,12c-6.648,0-12-5.352-12-12v-32
	C116,185.352,121.352,180,128,180z"/>
<path id="rect3759_1_" style="fill:#FFFFFF;" d="M22.692,20h134.615c1.487,0,2.692,1.791,2.692,4v48c0,2.209-1.205,4-2.692,4H22.692
	C21.206,76,20,74.209,20,72V24C20,21.791,21.206,20,22.692,20z"/>
</svg>
