<svg xmlns="http://www.w3.org/2000/svg" xml:space="preserve" width="312.974" height="266.667"><defs><clipPath id="a" clipPathUnits="userSpaceOnUse"><path d="M0 256h256V0H0Z"/></clipPath><clipPath id="b" clipPathUnits="userSpaceOnUse"><path d="M10.635 228h234.73V28H10.635Z"/></clipPath><clipPath id="c" clipPathUnits="userSpaceOnUse"><path d="M0 256h256V0H0Z"/></clipPath></defs><g clip-path="url(#a)" transform="matrix(1.33333 0 0 -1.33333 -14.18 304)"><g clip-path="url(#b)" style="opacity:.5"><path d="M0 0h-112.992l-2.338-3.84-56-92-2.532-4.16 2.532-4.159 56-92 2.338-3.841H0l2.338 3.841 56 92L60.869-100l-2.531 4.16-56 92z" style="fill:#fff;fill-opacity:1;fill-rule:nonzero;stroke:none" transform="translate(184.496 228)"/></g></g><path d="M0 0h-104l-56-92 56-92H0l56 92z" style="fill:#737373;fill-opacity:1;fill-rule:nonzero;stroke:none" transform="matrix(1.33333 0 0 -1.33333 225.82 10.667)"/><g clip-path="url(#c)" transform="matrix(1.33333 0 0 -1.33333 -14.18 304)"><path d="M0 0h-50.286c-3.472 0-6.285-2.785-6.285-6.222v-99.555c0-3.439 2.813-6.223 6.285-6.223h75.429c3.473 0 6.286 2.784 6.286 6.223v74.666z" style="fill:#e6e6e6;fill-opacity:1;fill-rule:nonzero;stroke:none" transform="translate(140.571 184)"/><path d="M0 0h-12.813a6.4 6.4 0 0 0-6.4 6.4V32l32-32z" style="fill:#fff;fill-opacity:1;fill-rule:nonzero;stroke:none" transform="translate(155.213 150)"/><path d="M0 0c-26.565 0-32-5.396-32-32s5.351-32 32-32c26.653 0 32 5.386 32 32C32-5.383 26.566 0 0 0" style="fill:#333;fill-opacity:1;fill-rule:nonzero;stroke:none" transform="translate(128 144)"/><path d="M0 0c-23.245 0-28-4.722-28-28s4.681-28 28-28c23.322 0 28 4.712 28 28C28-4.71 23.245 0 0 0" style="fill:#3b96cc;fill-opacity:1;fill-rule:nonzero;stroke:none" transform="translate(128 140)"/><path d="M0 0a.06.06 0 0 0-.038.013.06.06 0 0 0-.011.086c.484.604.807 1.356.986 2.297a.06.06 0 0 0 .073.049.06.06 0 0 0 .05-.071C.876 1.413.545.644.049.023A.06.06 0 0 0 0 0" style="fill:#ab463b;fill-opacity:1;fill-rule:nonzero;stroke:none" transform="translate(113.72 94.868)"/><path d="M0 0c-.249 1.253.545 1.618.014-.014" style="fill:#ab463b;fill-opacity:1;fill-rule:nonzero;stroke:none" transform="translate(114.81 97.978)"/><path d="M0 0c-.057-.062-.146-.332-.098-.77.139.493.12.709.098.77m-.11-1.082-.019.003a.1.1 0 0 0-.032.021.06.06 0 0 0-.024.038C-.307-.404-.186.034-.051.115c.04.024.085.023.119-.005.126-.096.08-.537-.119-1.15a.06.06 0 0 0-.059-.042" style="fill:#ab463b;fill-opacity:1;fill-rule:nonzero;stroke:none" transform="translate(114.934 98.986)"/><path d="M0 0c.693 1.082 1.529.819.001-.019" style="fill:#ab463b;fill-opacity:1;fill-rule:nonzero;stroke:none" transform="translate(115.084 97.87)"/><path d="M0 0c-.085-.009-.338-.145-.609-.497.445.268.583.437.609.497m-.793-.733a.06.06 0 0 0-.055.03.06.06 0 0 0-.007.037q-.004.023.008.044c.34.531.736.771.89.74.046-.01.078-.04.084-.083.025-.154-.316-.446-.89-.761a.1.1 0 0 0-.03-.007" style="fill:#ab463b;fill-opacity:1;fill-rule:nonzero;stroke:none" transform="translate(115.878 98.523)"/><path d="M0 0c1.259.337 1.692-.409-.012-.015" style="fill:#ab463b;fill-opacity:1;fill-rule:nonzero;stroke:none" transform="translate(115.201 97.508)"/><path d="M0 0c.513-.098.732-.064.792-.038C.724.013.443.08 0 0m.57-.187c-.209 0-.498.041-.842.121a.06.06 0 0 0-.046.073q.005.02.02.031a.05.05 0 0 0 .037.027C.357.23.814.146.906.021a.1.1 0 0 0 .005-.118C.87-.156.75-.187.57-.187" style="fill:#ab463b;fill-opacity:1;fill-rule:nonzero;stroke:none" transform="translate(115.446 97.501)"/><path d="M0 0c-1.063.74-.746 1.541.02 0" style="fill:#ab463b;fill-opacity:1;fill-rule:nonzero;stroke:none" transform="translate(114.514 97.846)"/><path d="M0 0c.003-.083.127-.339.471-.623C.224-.173.059-.028 0 0m.64-.875-.011.001a.07.07 0 0 0-.045.011C.062-.499-.159-.1-.118.05a.1.1 0 0 0 .09.077c.159.018.436-.336.724-.914a.06.06 0 0 0-.029-.081z" style="fill:#ab463b;fill-opacity:1;fill-rule:nonzero;stroke:none" transform="translate(113.894 98.66)"/><path d="M0 0c-1.162-.581-1.742.063.009.017" style="fill:#ab463b;fill-opacity:1;fill-rule:nonzero;stroke:none" transform="translate(114.47 97.543)"/><path d="M0 0c.077-.035.366-.046.783.121C.26.115.053.038 0 0m.157-.141c-.124 0-.214.024-.257.062a.1.1 0 0 0-.028.113c.06.145.505.224 1.164.206a.06.06 0 0 0 .06-.061.06.06 0 0 0-.013-.036.06.06 0 0 0-.03-.034c-.362-.18-.681-.25-.896-.25" style="fill:#ab463b;fill-opacity:1;fill-rule:nonzero;stroke:none" transform="translate(113.445 97.38)"/><path d="M0 0c1.112-.669.851-1.488-.02-.001" style="fill:#ab463b;fill-opacity:1;fill-rule:nonzero;stroke:none" transform="translate(115.05 97.249)"/><path d="M0 0c.277-.434.453-.566.514-.592C.504-.509.363-.262 0 0m.533-.717c-.162 0-.453.327-.768.865a.06.06 0 0 0 .023.083.06.06 0 0 0 .037.008q.023.004.046-.008c.546-.328.794-.712.764-.864A.1.1 0 0 0 .55-.716z" style="fill:#ab463b;fill-opacity:1;fill-rule:nonzero;stroke:none" transform="translate(115.213 97.07)"/><path d="M0 0c-17.714 3.647-34.793 6.997-56-.997v-1.765c1.081-17.512 7.104-21.328 27.935-21.328C-6.175-24.09-.635-19.896 0 0" style="fill:#2c8bbf;fill-opacity:1;fill-rule:nonzero;stroke:none" transform="translate(156 108.09)"/><path d="M0 0h-24v-24H0v20zm-4-20h-16v16h16z" style="fill:#fff;fill-opacity:1;fill-rule:nonzero;stroke:none" transform="translate(140 124)"/><path d="M96 136h-4v8h4zm68 0h-4v8h4zM96 80h-4v8h4zm68 0h-4v8h4z" style="fill:gray;fill-opacity:1;fill-rule:nonzero;stroke:none"/><path d="M92 140h8v4h-8zm64 0h8v4h-8zM92 80h8v4h-8zm64 0h8v4h-8z" style="fill:gray;fill-opacity:1;fill-rule:nonzero;stroke:none"/><path d="M0 0h-2v2h-4V0h-2v-4h2v-2h4v2h2z" style="fill:#fff;fill-opacity:1;fill-rule:nonzero;stroke:none" transform="translate(132 114)"/></g></svg>