<svg xmlns="http://www.w3.org/2000/svg" xml:space="preserve" width="330.667" height="330.667"><defs><clipPath id="a" clipPathUnits="userSpaceOnUse"><path d="M0 256h256V0H0Z"/></clipPath><clipPath id="b" clipPathUnits="userSpaceOnUse"><path d="M4 252h248V4H4Z"/></clipPath></defs><g clip-path="url(#a)" transform="matrix(1.33333 0 0 -1.33333 -5.333 336)"><g clip-path="url(#b)" style="opacity:.5"><path d="M0 0c-11.046 0-20 8.954-20 20s8.954 20 20 20 20-8.954 20-20S11.046 0 0 0m87.676 107.682C64.254 131.102 33.116 144 0 144c-33.124 0-64.264-12.898-87.683-36.319C-111.103 84.262-124 53.122-124 20s12.897-64.262 36.317-87.681C-64.264-91.102-33.124-104 0-104c33.116 0 64.254 12.898 87.676 36.318C111.1-44.26 124-13.12 124 20s-12.9 64.26-36.324 87.682" style="fill:#fff;fill-opacity:1;fill-rule:nonzero;stroke:none" transform="translate(128 108)"/></g><path d="M0 0c-23.993 0-43.505 19.517-43.505 43.505S-23.993 87.01 0 87.01c23.988 0 43.5-19.517 43.5-43.505S23.988 0 0 0m0 159.505c-64.071 0-116-51.934-116-116s51.929-116 116-116c64.051 0 116 51.934 116 116s-51.949 116-116 116" style="fill:#bfbfbf;fill-opacity:1;fill-rule:nonzero;stroke:none" transform="translate(128 84.495)"/><path d="M0 0v-82.973A130.7 130.7 0 0 1 36-88a130.7 130.7 0 0 1 36 5.029V0Z" style="fill:#4b5da7;fill-opacity:1;fill-rule:nonzero;stroke:none" transform="translate(92 100)"/><path d="M0 0c-7.596 0-13.786 6.176-13.786 13.776 0 7.604 6.19 13.785 13.786 13.785 7.6 0 13.777-6.181 13.777-13.785C13.777 6.176 7.6 0 0 0m.001 59.776c-25.364 0-46.003-20.651-46.003-46s20.639-46 46.003-46c25.338 0 45.997 20.651 45.997 46s-20.659 46-45.997 46" style="fill:#e6e6e6;fill-opacity:1;fill-rule:nonzero;stroke:none" transform="translate(128.002 114.224)"/><path d="M0 0c-7.716 0-14.005 6.275-14.005 13.995C-14.005 21.721-7.716 28 0 28c7.721 0 13.995-6.279 13.995-14.005C13.995 6.275 7.721 0 0 0m0 49.995c-19.85 0-36.002-16.162-36.002-36s16.152-36 36.002-36c19.83 0 35.998 16.162 35.998 36s-16.168 36-35.998 36" style="fill:#4b5da7;fill-opacity:1;fill-rule:nonzero;stroke:none" transform="translate(128.002 114.005)"/></g></svg>