<svg xmlns="http://www.w3.org/2000/svg" xml:space="preserve" viewBox="0 0 256 256"><path d="M247.939 79.009a8.01 8.01 0 0 0-4.646-6.302A8 8 0 0 0 236 68H20a8 8 0 0 0-7.293 4.707 8 8 0 0 0-4.646 6.302A11.98 11.98 0 0 0 4 88v80c0 3.546 1.546 6.738 4 8.937V180a8 8 0 0 0 8 8h224a8 8 0 0 0 8-8v-3.063c2.454-2.199 4-5.391 4-8.937V88c0-3.575-1.572-6.791-4.061-8.991" style="opacity:.5;fill:#fff"/><path d="M20 76h216v8H20z" style="fill:#bfbfbf"/><path d="M16 80h224v100H16z" style="fill:#d9d9d9"/><path d="M16 84c-2.2 0-4 1.8-4 4v80c0 2.2 1.8 4 4 4zm224 88c2.2 0 4-1.8 4-4V88c0-2.2-1.8-4-4-4z" style="fill:#ccc"/><path d="M28 84h2v16h-2zm4 0h2v16h-2zm4 0h2v16h-2zm4 0h2v16h-2zm4 0h2v16h-2zm4 0h2v16h-2zm4 0h2v16h-2zm4 0h2v16h-2zm4 0h2v16h-2zm4 0h2v16h-2zm4 0h2v16h-2zm4 0h2v16h-2zm4 0h2v16h-2zm4 0h2v16h-2zm4 0h2v16h-2zm4 0h2v16h-2zm4 0h2v16h-2zm4 0h2v16h-2zm4 0h2v16h-2zm4 0h2v16h-2zm4 0h2v16h-2zm4 0h2v16h-2zm4 0h2v16h-2zm4 0h2v16h-2zm4 0h2v16h-2zm4 0h2v16h-2zm4 0h2v16h-2zm4 0h2v16h-2zm4 0h2v16h-2zm4 0h2v16h-2zm4 0h2v16h-2zm4 0h2v16h-2zm4 0h2v16h-2zm4 0h2v16h-2zm4 0h2v16h-2zm4 0h2v16h-2zm4 0h2v16h-2zm4 0h2v16h-2zm4 0h2v16h-2zm4 0h2v16h-2zm4 0h2v16h-2zm4 0h2v16h-2zm4 0h2v16h-2zm4 0h2v16h-2zm4 0h2v16h-2zm4 0h2v16h-2zm4 0h2v16h-2zm4 0h2v16h-2zm4 0h2v16h-2zm4 0h2v16h-2zm12 0h2v16h-2z" style="fill:#8c8c8c"/><path d="M132 112h92v32h-92zm0 36h40v4h-40zm52 0h40v4h-40z" style="fill:#1a1a1a"/><path d="M168 132h36v4h-36z" style="fill:#1a1a1a"/><path d="M172 148h12v4h-12z" style="fill:#ffcb05"/><path d="M168 168h36v12h-36z" style="fill:#d9d9d9"/><path d="M16 84h4v36h-4zm220 0h4v36h-4z" style="fill:#1a1a1a"/><path d="M240 180H16l4-12h216z" style="fill:#ccc"/><path d="M148 120h60v16h-60z" style="fill:#d9d9d9"/><path d="M152 122h52v12h-52z" style="fill:#bfbfbf"/></svg>