<svg xmlns="http://www.w3.org/2000/svg" xml:space="preserve" width="330.667" height="277.333"><defs><clipPath id="a" clipPathUnits="userSpaceOnUse"><path d="M0 256h256V0H0Z"/></clipPath><clipPath id="b" clipPathUnits="userSpaceOnUse"><path d="M4 232h248V24H4Z"/></clipPath></defs><g clip-path="url(#a)" transform="matrix(1.33333 0 0 -1.33333 -5.333 309.333)"><g clip-path="url(#b)" style="opacity:.5"><path d="M0 0h-216c-8.822 0-16-7.178-16-16v-176c0-8.822 7.178-16 16-16H0c8.822 0 16 7.178 16 16v176C16-7.178 8.822 0 0 0" style="fill:#fff;fill-opacity:1;fill-rule:nonzero;stroke:none" transform="translate(236 232)"/></g><path d="M0 0h-216a8 8 0 0 0-8 8v176a8 8 0 0 0 8 8H0a8 8 0 0 0 8-8V8a8 8 0 0 0-8-8" style="fill:#404040;fill-opacity:1;fill-rule:nonzero;stroke:none" transform="translate(236 32)"/><path d="M0 0v192a8 8 0 0 1-8-8V8a8 8 0 0 1 8-8" style="fill:#262626;fill-opacity:1;fill-rule:nonzero;stroke:none" transform="translate(20 32)"/><path d="M0 0v192a8 8 0 0 0 8-8V8a8 8 0 0 0-8-8" style="fill:#262626;fill-opacity:1;fill-rule:nonzero;stroke:none" transform="translate(236 32)"/><path d="M236 40H20v8h216z" style="fill:#4c4c4c;fill-opacity:1;fill-rule:nonzero;stroke:none"/><path d="M236 212H20v12h216z" style="fill:#333;fill-opacity:1;fill-rule:nonzero;stroke:none"/><path d="M236 208H20v4h216z" style="fill:#4c4c4c;fill-opacity:1;fill-rule:nonzero;stroke:none"/><path d="M0 0c11.299-15.042 17.996-33.738 17.996-54 0-49.706-40.294-90-90-90-49.705 0-90 40.294-90 90 0 20.262 6.697 38.958 17.996 54h-14.49c-9.819-15.671-15.506-34.183-15.506-54 0-56.243 45.757-102 102-102s102 45.757 102 102c0 19.817-5.687 38.329-15.506 54z" style="fill:#262626;fill-opacity:1;fill-rule:nonzero;stroke:none" transform="translate(200.004 216)"/><path d="M0 0v-12.929a101.5 101.5 0 0 1 36-6.567v12C23.199-7.496 11.025-4.817 0 0" style="fill:#ccc;fill-opacity:1;fill-rule:nonzero;stroke:none" transform="translate(92 79.496)"/><path d="M0 0v12.929c-11.025-4.818-23.199-7.496-36-7.496v-12c12.667 0 24.8 2.328 36 6.567" style="fill:#a6a6a6;fill-opacity:1;fill-rule:nonzero;stroke:none" transform="translate(164 66.567)"/><path d="M0 0a1 1 0 1 0-2 0 1 1 0 1 0 2 0" style="fill:#999;fill-opacity:1;fill-rule:nonzero;stroke:none" transform="translate(136 68)"/><path d="M0 0a1 1 0 1 0-2 0 1 1 0 1 0 2 0" style="fill:#999;fill-opacity:1;fill-rule:nonzero;stroke:none" transform="translate(140 68)"/><path d="M0 0a1 1 0 1 0-2 0 1 1 0 1 0 2 0" style="fill:#999;fill-opacity:1;fill-rule:nonzero;stroke:none" transform="translate(144 68)"/><path d="M0 0a1 1 0 1 0-2 0 1 1 0 1 0 2 0" style="fill:#999;fill-opacity:1;fill-rule:nonzero;stroke:none" transform="translate(148 70)"/><path d="M0 0a1 1 0 1 0-2 0 1 1 0 1 0 2 0" style="fill:#999;fill-opacity:1;fill-rule:nonzero;stroke:none" transform="translate(152 70)"/><path d="M0 0a1 1 0 1 0-2 0 1 1 0 1 0 2 0" style="fill:#999;fill-opacity:1;fill-rule:nonzero;stroke:none" transform="translate(156 72)"/><path d="M0 0a1 1 0 1 0-2 0 1 1 0 1 0 2 0" style="fill:#999;fill-opacity:1;fill-rule:nonzero;stroke:none" transform="translate(160 72)"/><path d="M0 0a1 1 0 1 0-2 0 1 1 0 1 0 2 0" style="fill:#999;fill-opacity:1;fill-rule:nonzero;stroke:none" transform="translate(136 64)"/><path d="M0 0a1 1 0 1 0-2 0 1 1 0 1 0 2 0" style="fill:#999;fill-opacity:1;fill-rule:nonzero;stroke:none" transform="translate(140 64)"/><path d="M0 0a1 1 0 1 0-2 0 1 1 0 1 0 2 0" style="fill:#999;fill-opacity:1;fill-rule:nonzero;stroke:none" transform="translate(144 64)"/><path d="M0 0a1 1 0 1 0-2 0 1 1 0 1 0 2 0" style="fill:#999;fill-opacity:1;fill-rule:nonzero;stroke:none" transform="translate(148 66)"/><path d="M0 0a1 1 0 1 0-2 0 1 1 0 1 0 2 0" style="fill:#999;fill-opacity:1;fill-rule:nonzero;stroke:none" transform="translate(152 66)"/><path d="M0 0a1 1 0 1 0-2 0 1 1 0 1 0 2 0" style="fill:#999;fill-opacity:1;fill-rule:nonzero;stroke:none" transform="translate(156 68)"/><path d="M0 0a1 1 0 1 0-2 0 1 1 0 1 0 2 0" style="fill:#999;fill-opacity:1;fill-rule:nonzero;stroke:none" transform="translate(160 68)"/><path d="M0 0v.005a.993.993 0 0 0 1.236.962 94 94 0 0 1 9.902-1.892.99.99 0 0 0 .862-.981c0-.606-.537-1.078-1.136-.997A96 96 0 0 0 .761-.978 1.01 1.01 0 0 0 0 0" style="fill:#fff;fill-opacity:1;fill-rule:nonzero;stroke:none" transform="translate(104 68.793)"/><path d="M0 0h-138.066c-8.267 0-14.967 6.701-14.967 14.967v2.066c0 8.266 6.7 14.967 14.967 14.967H0c8.266 0 14.967-6.701 14.967-14.967v-2.066C14.967 6.701 8.266 0 0 0" style="fill:#333;fill-opacity:1;fill-rule:nonzero;stroke:none" transform="translate(197.033 132)"/><path d="M204 160H52v-24h152zm-2-22H54v20h148z" style="fill:#262626;fill-opacity:1;fill-rule:nonzero;stroke:none"/><path d="M204 147H52v2h152z" style="fill:#262626;fill-opacity:1;fill-rule:nonzero;stroke:none"/><path d="M72 136h-2v24h2zm114 0h-2v24h2z" style="fill:#262626;fill-opacity:1;fill-rule:nonzero;stroke:none"/></g></svg>