<svg xmlns="http://www.w3.org/2000/svg" xml:space="preserve" viewBox="0 0 256 256"><path d="M241.983 64H150.98a67.7 67.7 0 0 0-19.603-3.915 67 67 0 0 0-6.767.001A67.7 67.7 0 0 0 105.02 64H14.017C8.494 64 4 68.494 4 74.017v107.965C4 187.506 8.494 192 14.017 192h91.003a67.7 67.7 0 0 0 19.603 3.915 67 67 0 0 0 6.767-.001A67.7 67.7 0 0 0 150.98 192h91.003c5.524 0 10.017-4.494 10.017-10.017V74.017C252 68.494 247.506 64 241.983 64" style="opacity:.5;fill:#fff"/><path d="M241.983 184H14.017A2.017 2.017 0 0 1 12 181.983V74.017c0-1.114.903-2.017 2.017-2.017h227.965c1.114 0 2.017.903 2.017 2.017v107.965a2.016 2.016 0 0 1-2.016 2.018" style="fill:#4d4d4d"/><path d="M237.982 76h-82.095c-8.305-4.463-17.798-7-27.887-7s-19.582 2.537-27.887 7H22.018A2.02 2.02 0 0 0 20 78.018v99.963c0 1.115.904 2.018 2.018 2.018h78.095c8.305 4.463 17.798 7 27.887 7s19.582-2.537 27.887-7h82.095a2.02 2.02 0 0 0 2.018-2.018V78.018A2.02 2.02 0 0 0 237.982 76" style="fill:#595959"/><path d="M70 88h8v8h-8zm28 0h8v8h-8zm28 0h8v8h-8zm28 0h8v8h-8zm28 0h8v8h-8z" style="fill:#666"/><path d="M30 80a4 4 0 1 0 0 8 4 4 0 0 0 0-8" style="fill:#e6e6e6"/><path d="M30 82c1.103 0 2 .897 2 2s-.897 2-2 2-2-.897-2-2 .897-2 2-2" style="fill:gray"/><path d="M230 80a4 4 0 1 0 0 8 4 4 0 0 0 0-8" style="fill:#4d4d4d"/><path d="M230 82c1.103 0 2 .897 2 2s-.897 2-2 2-2-.897-2-2 .897-2 2-2" style="fill:gray"/><path d="M30 168a4 4 0 1 0 0 8 4 4 0 0 0 0-8" style="fill:#e6e6e6"/><path d="M30 170c1.103 0 2 .897 2 2s-.897 2-2 2-2-.897-2-2 .897-2 2-2" style="fill:gray"/><path d="M230 168a4 4 0 1 0 0 8 4 4 0 0 0 0-8" style="fill:#4d4d4d"/><path d="M230 170c1.103 0 2 .897 2 2s-.897 2-2 2-2-.897-2-2 .897-2 2-2" style="fill:gray"/><circle cx="47" cy="113" r="1" style="fill:#1a1a1a"/><circle cx="47" cy="117" r="1" style="fill:#1a1a1a"/><circle cx="47" cy="121" r="1" style="fill:#1a1a1a"/><circle cx="47" cy="125" r="1" style="fill:#1a1a1a"/><circle cx="47" cy="129" r="1" style="fill:#1a1a1a"/><circle cx="47" cy="133" r="1" style="fill:#1a1a1a"/><circle cx="47" cy="137" r="1" style="fill:#1a1a1a"/><circle cx="47" cy="141" r="1" style="fill:#1a1a1a"/><circle cx="51" cy="113" r="1" style="fill:#1a1a1a"/><circle cx="51" cy="117" r="1" style="fill:#1a1a1a"/><circle cx="51" cy="121" r="1" style="fill:#1a1a1a"/><circle cx="51" cy="125" r="1" style="fill:#1a1a1a"/><circle cx="51" cy="129" r="1" style="fill:#1a1a1a"/><circle cx="51" cy="133" r="1" style="fill:#1a1a1a"/><circle cx="51" cy="137" r="1" style="fill:#1a1a1a"/><circle cx="51" cy="141" r="1" style="fill:#1a1a1a"/><circle cx="205" cy="113" r="1" style="fill:#1a1a1a"/><circle cx="205" cy="117" r="1" style="fill:#1a1a1a"/><circle cx="205" cy="121" r="1" style="fill:#1a1a1a"/><circle cx="205" cy="125" r="1" style="fill:#1a1a1a"/><circle cx="205" cy="129" r="1" style="fill:#1a1a1a"/><circle cx="205" cy="133" r="1" style="fill:#1a1a1a"/><circle cx="205" cy="137" r="1" style="fill:#1a1a1a"/><circle cx="205" cy="141" r="1" style="fill:#1a1a1a"/><circle cx="209" cy="113" r="1" style="fill:#1a1a1a"/><circle cx="209" cy="117" r="1" style="fill:#1a1a1a"/><circle cx="209" cy="121" r="1" style="fill:#1a1a1a"/><circle cx="209" cy="125" r="1" style="fill:#1a1a1a"/><circle cx="209" cy="129" r="1" style="fill:#1a1a1a"/><circle cx="209" cy="133" r="1" style="fill:#1a1a1a"/><circle cx="209" cy="137" r="1" style="fill:#1a1a1a"/><circle cx="209" cy="141" r="1" style="fill:#1a1a1a"/><path d="m14 112 16 16-16 16z" style="fill:#e6e6e6"/><path d="M197 112H59a1 1 0 0 0-1 1v30a1 1 0 0 0 1 1h138a1 1 0 0 0 1-1v-30a1 1 0 0 0-1-1" style="fill:#4d4d4d"/><path d="M196 114v28H60v-28z" style="fill:#fff"/><path d="M70 156h8v8h-8zm28 0h8v8h-8zm28 0h8v8h-8zm28 0h8v8h-8zm28 0h8v8h-8z" style="fill:#666"/><path d="M174.075 164c-10.599 13.37-27.29 22-46.075 22s-35.476-8.63-46.075-22h-.902c10.54 14.537 27.648 24 46.977 24s36.437-9.463 46.977-24z" style="fill:#404040"/><path d="M85.41 88C96.005 76.935 111.161 70 128 70s31.995 6.935 42.59 18h1.207C161.163 75.754 145.492 68 128 68s-33.163 7.754-43.797 20z" style="fill:#666"/></svg>