<svg xmlns="http://www.w3.org/2000/svg" xml:space="preserve" viewBox="0 0 256 256"><path d="M240 40h-44V30c0-5.514-4.486-10-10-10H70c-5.514 0-10 4.486-10 10v10H16C9.383 40 4 45.383 4 52v168c0 2.451 1.014 6.906 7.802 9.193 1.963.662 4.589 1.256 8.027 1.816 6.086.992 14.698 1.876 25.597 2.628C67.512 235.161 96.838 236 128 236s60.488-.839 82.575-2.362c10.899-.752 19.511-1.636 25.597-2.628 3.438-.561 6.063-1.155 8.027-1.816 6.788-2.288 7.802-6.742 7.802-9.193V52C252 45.383 246.617 40 240 40" style="opacity:.5;fill:#fff"/><path d="M16 48a4 4 0 0 0-4 4v168c0 4.418 51.935 8 116 8s116-3.582 116-8V52a4 4 0 0 0-4-4z" style="fill:#8c8c8c"/><path d="M168 56v-4H88v4h-8v12h96V56z" style="fill:#4d4d4d"/><path d="M80 59h96v2H80z" style="fill:#333"/><path d="M188 192H68V48h-2v146h124V48h-2z" style="fill:#333"/><path d="M68 70h120v2H68z" style="fill:#333"/><path d="M128 164c33.137 0 60-3.582 60-8H68c0 4.418 26.863 8 60 8" style="fill:#737373"/><path d="M176 176c0 5.523-21.49 12-48 12s-48-6.477-48-12 21.49-16 48-16 48 10.477 48 16" style="fill:#333"/><path d="M102.524 163.243c7.734.485 16.365.757 25.476.757s17.742-.272 25.476-.757C146.091 161.31 137.362 160 128 160s-18.091 1.31-25.476 3.243" style="fill:#1a1a1a"/><circle cx="73" cy="181" r="1" style="fill:#737373"/><circle cx="77" cy="181" r="1" style="fill:#737373"/><circle cx="81" cy="181" r="1" style="fill:#737373"/><circle cx="73" cy="185" r="1" style="fill:#737373"/><circle cx="77" cy="185" r="1" style="fill:#737373"/><circle cx="81" cy="185" r="1" style="fill:#737373"/><circle cx="73" cy="189" r="1" style="fill:#737373"/><circle cx="77" cy="189" r="1" style="fill:#737373"/><circle cx="81" cy="189" r="1" style="fill:#737373"/><circle cx="30" cy="162" r="10" style="fill:#ccc"/><circle cx="50" cy="186" r="10" style="fill:#ccc"/><circle cx="76" cy="208" r="8" style="fill:#666"/><path d="M30 208h-4c-1.1 0-2-.9-2-2s.9-2 2-2h4c1.1 0 2 .9 2 2s-.9 2-2 2m0 8h-4c-1.1 0-2-.9-2-2s.9-2 2-2h4c1.1 0 2 .9 2 2s-.9 2-2 2" style="fill:#666"/><circle cx="208" cy="192" r="4" style="fill:#666"/><circle cx="224" cy="184" r="4" style="fill:#666"/><circle cx="208" cy="172" r="4" style="fill:#666"/><circle cx="224" cy="164" r="4" style="fill:#666"/><path d="M224 156a4 4 0 0 1-4-4v-12a4 4 0 0 1 8 0v12a4 4 0 0 1-4 4M55 62H29a1 1 0 0 1 0-2h26a1 1 0 0 1 0 2m0 24H29a1 1 0 0 1 0-2h26a1 1 0 0 1 0 2m0 24H29a1 1 0 0 1 0-2h26a1 1 0 0 1 0 2m172-48h-26a1 1 0 0 1 0-2h26a1 1 0 0 1 0 2m0 24h-26a1 1 0 0 1 0-2h26a1 1 0 0 1 0 2m0 24h-26a1 1 0 0 1 0-2h26a1 1 0 0 1 0 2" style="fill:#666"/><path d="M68 36h120v12H68z" style="fill:#737373"/><path d="M186 40H70a2 2 0 0 1-2-2v-8a2 2 0 0 1 2-2h116a2 2 0 0 1 2 2v8a2 2 0 0 1-2 2" style="fill:#8c8c8c"/><path d="M80 40v2c0 1.105 21.49 2 48 2s48-.895 48-2v-2z" style="fill:#1a1a1a"/><path d="M156 46h28v2h-28z" style="fill:#4d4d4d"/><path d="M160 46h4v2h-4zm16 0h4v2h-4z" style="fill:#333"/></svg>