<svg xmlns="http://www.w3.org/2000/svg" xml:space="preserve" viewBox="0 0 256 256"><path d="m247.94 142.892-.004-.093a48 48 0 0 0-.264-3.401c-.128-3.832-1.602-24.324-18.278-41.047-2.792-2.8-12.017-14.173-13.508-42.98a11.95 11.95 0 0 0-4.449-8.699C210.072 42.79 206.368 40 202.025 40h-1.81a37 37 0 0 0-5.238-2.859c-4.688-2.105-10.605-3.819-18.088-5.24-13.25-2.515-30.613-3.901-48.89-3.901s-35.64 1.386-48.89 3.902c-7.484 1.421-13.401 3.135-18.089 5.24a40 40 0 0 0-2.165 1.051A9 9 0 0 0 56.999 38h-4c-4.963 0-9 4.037-9 9v.153a11.95 11.95 0 0 0-3.888 8.218c-1.49 28.806-10.716 40.18-13.508 42.98-16.675 16.722-18.15 37.213-18.278 41.047a47 47 0 0 0-.262 3.37l-.006.122c-.018.413-.033.841-.043 1.303-.174 7.929.971 23.53 10.534 39.297 8.72 17.592 26.381 27.9 41.45 33.757v.605c0 5.596 4.553 10.148 10.148 10.148H185.85c5.596 0 10.148-4.553 10.148-10.148v-.605c15.069-5.857 32.73-16.164 41.45-33.756 9.942-16.387 10.844-32.45 10.492-40.599" style="opacity:.5;fill:#fff"/><path d="M185.852 220H70.148A2.15 2.15 0 0 1 68 217.852v-7.703c0-1.186.962-2.148 2.148-2.148h115.703c1.186 0 2.148.962 2.148 2.148v7.703a2.147 2.147 0 0 1-2.147 2.148" style="fill:#354f9f"/><path d="M239.685 140s0-20-15.955-36c-12.802-12.839-15.332-38.554-15.832-48.215A3.99 3.99 0 0 0 203.904 52H52.095a3.99 3.99 0 0 0-3.994 3.785c-.5 9.661-3.03 35.377-15.832 48.215-15.955 16-15.955 36-15.955 36S4.348 220 128 220s111.685-80 111.685-80" style="fill:#4b5da7"/><path d="M56 52h146.026c1.09 0 1.974-.884 1.974-1.974v-.053c0-1.09-.884-1.974-1.974-1.974H56z" style="fill:#ccc"/><path d="M128 50c35.346 0 64 5.199 64 11.613v100.645c0 4.276-10.073 7.742-45.419 7.742h-41.29C78.985 170 64 165.752 64 162.258V61.613C64 55.199 92.654 50 128 50m0-6c-17.211 0-33.41 1.786-45.612 4-6.026 1.093-10.785 2.558-14.147 4-4.2 1.802-6.241 7.136-6.241 9.613v100.645c0 1.114 0 4.503 12.364 7.137 5.577 1.188 15.47 2.605 30.926 2.605h41.29c33.681 0 47.419-2.822 47.419-9.742V61.613c0-2.477-2.041-7.811-6.241-9.613-3.362-1.442-8.121-2.907-14.147-4-12.201-2.214-28.4-4-45.611-4" style="fill:#263979"/><path d="M58 52h-5a1 1 0 0 1-1-1v-4a1 1 0 0 1 1-1h4a1 1 0 0 1 1 1z" style="fill:#b3b3b3"/><circle cx="34" cy="154" r="6" style="fill:#999"/><circle cx="38" cy="118" r="6" style="fill:#999"/><circle cx="54" cy="154" r="6" style="fill:#999"/><path d="M56 136H40c-2.2 0-4-1.8-4-4s1.8-4 4-4h16c2.2 0 4 1.8 4 4s-1.8 4-4 4" style="fill:#354f9f"/><path d="M48 136H32c-2.2 0-4-1.8-4-4s1.8-4 4-4h16c2.2 0 4 1.8 4 4s-1.8 4-4 4" style="fill:#999"/><path d="M40 136c-1.1 0-2-.9-2-2v-4c0-1.1.9-2 2-2s2 .9 2 2v4c0 1.1-.9 2-2 2" style="fill:#a6a6a6"/><path d="M200 128h16c2.2 0 4 1.8 4 4s-1.8 4-4 4h-16c-2.2 0-4-1.8-4-4s1.8-4 4-4" style="fill:#354f9f"/><path d="M208 128h16c2.2 0 4 1.8 4 4s-1.8 4-4 4h-16c-2.2 0-4-1.8-4-4s1.8-4 4-4" style="fill:#999"/><path d="M216 128c1.1 0 2 .9 2 2v4c0 1.1-.9 2-2 2s-2-.9-2-2v-4c0-1.1.9-2 2-2" style="fill:#a6a6a6"/><path d="M64 160h128v16H64z" style="fill:#263979"/><path d="M146.581 171.999h-41.29c-15.457 0-25.349-1.462-30.926-2.689-5.633-1.239-8.695-2.639-10.364-3.906V192s0 28 60 28h8c60 0 60-28 60-28v-25.998c-4.891 4.208-19.034 5.997-45.42 5.997" style="fill:#354f9f"/><ellipse cx="128" cy="172" rx="20" ry="4" style="fill:#263979"/><path d="M172 196H84a4 4 0 0 1-4-4v-8a4 4 0 0 1 4-4h88a4 4 0 0 1 4 4v8a4 4 0 0 1-4 4" style="fill:#263979"/><path d="M171 192H85a1 1 0 0 1-1-1v-6a1 1 0 0 1 1-1h86a1 1 0 0 1 1 1v6a1 1 0 0 1-1 1" style="fill:#333"/><path d="M97 184h2v8h-2zm15 0h2v8h-2zm15 0h2v8h-2zm15 0h2v8h-2zm15 0h2v8h-2z" style="fill:#1a1a1a"/><path d="M128 50c-35.346 0-64 5.199-64 11.613v100.645c0 3.494 14.985 7.742 41.29 7.742h41.29c35.346 0 45.419-3.466 45.419-7.742V61.613C192 55.199 163.346 50 128 50" style="fill:#354f9f"/><path d="M231.971 154.337c-1.417 8.336-8.07 36.192-33.829 37.66a2.02 2.02 0 0 1-2.142-2.006v-7.788c0-1.314.643-2.545 1.734-3.29 4.459-3.046 16.117-11.996 18.137-23.506.343-1.951 1.991-3.407 3.986-3.407h10.125a2.006 2.006 0 0 1 1.989 2.337" style="fill:#333"/><path d="M62 140H28c-.273 0-5.573.032-11.893 2.203-.04.611-.074 1.333-.093 2.167C22.367 142.048 27.935 142 28 142h34zm177.986 4.37a49 49 0 0 0-.093-2.167C233.573 140.032 228.273 140 228 140h-34v2h34c.065 0 5.633.048 11.986 2.37" style="fill:#263979"/><path d="M128 124c-11.046 0-20 7.163-20 16v32h40v-32c0-8.837-8.954-16-20-16" style="fill:#4b5da7"/><path d="M132.818 166.001h-9.636a3.18 3.18 0 0 1-3.182-3.182v-10.576c0-2.343 1.9-4.243 4.243-4.243h7.514c2.343 0 4.243 1.9 4.243 4.243v10.576a3.18 3.18 0 0 1-3.182 3.182" style="fill:#262626"/><path d="M144 218v-1a5 5 0 0 0-5-5h-26a5 5 0 0 0-5 5v1c0 .494.186.94.483 1.289 4.667.457 9.82.711 15.517.711h8c3.971 0 7.672-.126 11.134-.355.523-.361.866-.962.866-1.645" style="fill:gray"/><path d="M64 192v-30.032h-2.032V192c0 .322.093 7.969 8.146 15.485 3.533 3.297 7.996 6.025 13.326 8.206 7.235 1.583 15.254 2.773 24.108 3.499C64.01 214.606 64 192 64 192m128-30.032V192s-.01 22.606-43.548 27.191c8.854-.726 16.874-1.915 24.108-3.499 5.33-2.181 9.794-4.909 13.326-8.206 8.053-7.516 8.146-15.164 8.146-15.485v-30.032H192z" style="fill:#263979"/><path d="M125 152h6v10.001h-6z" style="fill:#1a1a1a"/><path d="M124 212h2v8h-2z" style="fill:#333"/><ellipse cx="156" cy="214" rx="4" ry="2" style="fill:gray"/><ellipse cx="168" cy="210" rx="4" ry="2" style="fill:gray"/><path d="M100 212H84v-6a2 2 0 0 1 2-2h8a6 6 0 0 1 6 6z" style="fill:#2a302c"/><path d="M94 210h-4a2 2 0 0 1-2-2v-2a2 2 0 0 1 2-2h4a2 2 0 0 1 2 2v2a2 2 0 0 1-2 2" style="fill:#3d0000"/><path d="M84.328 213.846c4.267 1.731 9.424 3.227 15.672 4.31V212H84a5.3 5.3 0 0 0 .328 1.846" style="fill:#263979"/><circle cx="79" cy="207" r="1" style="fill:#3d0000"/><path d="M24 176s18.88 27.384 59.44 39.692C83.44 215.692 36 208 24 176m208 0s-18.88 27.384-59.44 39.692c0 0 47.44-7.692 59.44-39.692" style="fill:#354f9f"/><path d="M52.001 124V61.613c0-2.833.794-6.327 3.657-9.613H52c-4.418 0-4 7.582-4 12v36h2.001v26h12L62 124zM204 52h-3.658c2.862 3.286 3.656 6.78 3.656 9.613V124H194v2.001l9.999-.001h2v-26H208V64c0-4.418.418-12-4-12" style="fill:#263979"/><path d="M62 124V60.71c0-2.592 2.041-4.768 6.24-6.653 3.362-1.509 8.121-2.855 14.147-3.999 12.202-2.317 28.401-3.593 45.612-3.593s33.41 1.276 45.612 3.593c6.026 1.144 10.785 2.49 14.147 3.999 4.199 1.885 6.24 4.061 6.24 6.653V124h10V60.71c0-4.904-2.134-11.707-12.298-16.271-4.11-1.845-9.443-3.376-16.304-4.678C162.624 37.336 145.792 36 128 36s-34.624 1.336-47.398 3.761c-6.861 1.303-12.194 2.833-16.304 4.678C54.134 49.003 52 55.806 52 60.71V124z" style="fill:#4b5da7"/></svg>