<svg xmlns="http://www.w3.org/2000/svg" xml:space="preserve" viewBox="0 0 256 256"><path d="M192 4H40c-6.617 0-12 5.383-12 12v184c0 11.028 8.972 20 20 20h16v24a8 8 0 0 0 8 8h112a8 8 0 0 0 8-8v-24h16c11.028 0 20-8.972 20-20V40c0-19.85-16.15-36-36-36" style="opacity:.5;fill:#fff"/><path d="M208 212H48c-6.6 0-12-5.4-12-12V16c0-2.2 1.8-4 4-4h152c15.4 0 28 12.6 28 28v160c0 6.6-5.4 12-12 12" style="fill:#ffcb05"/><path d="M200 176H36V20h148c15.4 0 28 12.6 28 28v116c0 6.6-5.4 12-12 12" style="fill:#fdb913"/><path d="M192 172H48V24h128c15.4 0 28 12.6 28 28v108c0 6.6-5.4 12-12 12" style="fill:#16a085"/><path d="M72 212h112v32H72z" style="fill:#fdb913"/><path d="M176 240H80a4 4 0 0 1-4-4v-16a4 4 0 0 1 4-4h96a4 4 0 0 1 4 4v16a4 4 0 0 1-4 4" style="fill:#ffcb05"/><path d="M188 192a4 4 0 0 1 4 4v4a4 4 0 0 1-4 4H68a4 4 0 0 1-4-4v-4a4 4 0 0 1 4-4zm0-4H68c-4.411 0-8 3.589-8 8v4c0 4.411 3.589 8 8 8h120c4.411 0 8-3.589 8-8v-4c0-4.411-3.589-8-8-8" style="fill:#fdb913"/><path d="M54 44H42a2 2 0 0 1-2-2v-8a2 2 0 0 1 2-2h12a2 2 0 0 1 2 2v8a2 2 0 0 1-2 2m0 60H42a2 2 0 0 1-2-2v-8a2 2 0 0 1 2-2h12a2 2 0 0 1 2 2v8a2 2 0 0 1-2 2m0 60H42a2 2 0 0 1-2-2v-8a2 2 0 0 1 2-2h12a2 2 0 0 1 2 2v8a2 2 0 0 1-2 2" style="fill:#ffcb05"/></svg>