<svg xmlns="http://www.w3.org/2000/svg" xml:space="preserve" width="330.667" height="189.333"><defs><clipPath id="a" clipPathUnits="userSpaceOnUse"><path d="M0 256h256V0H0Z"/></clipPath><clipPath id="b" clipPathUnits="userSpaceOnUse"><path d="M4 200h248V58H4Z"/></clipPath></defs><g clip-path="url(#a)" transform="matrix(1.33333 0 0 -1.33333 -5.333 266.667)"><g clip-path="url(#b)" style="opacity:.5"><path d="M0 0h-204c-8.822 0-16-7.178-16-16v-44a7.98 7.98 0 0 1 2.708-6A7.98 7.98 0 0 1-220-72v-48c0-6.617 5.383-12 12-12h6.712c3.172-2.552 7.165-4 11.288-4s8.116 1.448 11.288 4h1.424c3.172-2.552 7.165-4 11.288-4s8.116 1.448 11.288 4h60.185q.238-.167.472-.328a8 8 0 0 1 8.808-.164C-74.588-138.732-62.542-142-50-142a70.16 70.16 0 0 1 38.412 11.479 8 8 0 0 1 8.894.555c17.758 13.586 28.808 33.96 30.471 56.082q.221.909.223 1.884v44C28-12.561 15.439 0 0 0" style="fill:#fff;fill-opacity:1;fill-rule:nonzero;stroke:none" transform="translate(224 200)"/></g><path d="M0 0h-204a8 8 0 0 1-8-8v-44h4v-12h-4v-48a4 4 0 0 1 4-4h10.014c1.824-2.425 4.717-4 7.986-4s6.162 1.575 7.986 4h8.028c1.824-2.425 4.717-4 7.986-4s6.162 1.575 7.986 4h66.087q.335-.252.674-.501a2.003 2.003 0 0 1 2.866.522l1.43 2.199.042-.032C-76.173-121.785-63.407-126-50-126c14.379 0 28.393 5.035 39.461 14.178l.143.118 1.618-2.226c.668-.918 1.975-1.11 2.856-.393C8.911-102.267 18.735-84.277 19.884-64H20v44C20-8.954 11.046 0 0 0" style="fill:#595959;fill-opacity:1;fill-rule:nonzero;stroke:none" transform="translate(224 192)"/><path d="M0 0c4.411 0 8-3.589 8-8s-3.589-8-8-8-8 3.589-8 8 3.589 8 8 8" style="fill:#404040;fill-opacity:1;fill-rule:nonzero;stroke:none" transform="translate(34 90)"/><path d="M0 0c4.411 0 8-3.589 8-8s-3.589-8-8-8-8 3.589-8 8 3.589 8 8 8" style="fill:#9bc2dd;fill-opacity:1;fill-rule:nonzero;stroke:none" transform="translate(58 90)"/><path d="M0 0c0-22.092-17.908-40-40-40S-80-22.092-80 0s17.908 40 40 40S0 22.091 0 0" style="fill:#191919;fill-opacity:1;fill-rule:nonzero;stroke:none" transform="translate(214 132)"/><path d="M212 152h2v40h-2zm-76 0h2v40h-2z" style="fill:#191919;fill-opacity:1;fill-rule:nonzero;stroke:none"/><path d="M0 0c0 2.72.212 5.392.617 8H-106V-4H-3.846c1.232-17.347 10.395-32.53 23.881-41.941l2.063 3.438C8.746-33.082 0-17.548 0 0" style="fill:#404040;fill-opacity:1;fill-rule:nonzero;stroke:none" transform="translate(122 132)"/><path d="M0 0c14.508 0 27.812 5.149 38.187 13.72L27.526 29.71C19.983 23.643 10.411 20 0 20c-9.622 0-18.526 3.113-25.776 8.373l-9.947-16.578A59.73 59.73 0 0 1 0 0" style="fill:#191919;fill-opacity:1;fill-rule:nonzero;stroke:none" transform="translate(174 68)"/><path d="M0 0a4 4 0 1 0-8 0 4 4 0 0 0 8 0" style="fill:#191919;fill-opacity:1;fill-rule:nonzero;stroke:none" transform="translate(222 90)"/><path d="M0 0a4 4 0 1 0-8 0 4 4 0 0 0 8 0" style="fill:#191919;fill-opacity:1;fill-rule:nonzero;stroke:none" transform="translate(232 102)"/><path d="M0 0a4 4 0 1 0-8 0 4 4 0 0 0 8 0" style="fill:#191919;fill-opacity:1;fill-rule:nonzero;stroke:none" transform="translate(238 116)"/><path d="M0 0a4 4 0 1 0-8 0 4 4 0 0 0 8 0" style="fill:#191919;fill-opacity:1;fill-rule:nonzero;stroke:none" transform="translate(240 132)"/><path d="M112 128H44v12h68z" style="fill:#333;fill-opacity:1;fill-rule:nonzero;stroke:none"/><path d="M112 133H44v2h68z" style="fill:#404040;fill-opacity:1;fill-rule:nonzero;stroke:none"/><path d="M54 128h-2v12h2zm50 0h-2v12h2z" style="fill:#404040;fill-opacity:1;fill-rule:nonzero;stroke:none"/><path d="M0 0c-24.262 0-44-19.738-44-44s19.738-44 44-44 44 19.738 44 44S24.262 0 0 0" style="fill:#737373;fill-opacity:1;fill-rule:nonzero;stroke:none" transform="translate(174 176)"/><path d="M0 0c22.092 0 40-17.909 40-40S22.092-80 0-80s-40 17.908-40 40S-22.092 0 0 0" style="fill:#191919;fill-opacity:1;fill-rule:nonzero;stroke:none" transform="translate(174 172)"/><path d="M0 0a55.7 55.7 0 0 1 20-4.483v4A51.7 51.7 0 0 0 0 4.358Z" style="fill:#0f0;fill-opacity:1;fill-rule:nonzero;stroke:none" transform="translate(152 80.534)"/><path d="M0 0a51.7 51.7 0 0 0-20-4.842v-4A55.6 55.6 0 0 1 0-4.358z" style="fill:red;fill-opacity:1;fill-rule:nonzero;stroke:none" transform="translate(196 84.893)"/><path d="M0 0h-4.313a43.8 43.8 0 0 1-3.025-16c0-5.644 1.08-11.037 3.025-16H0a39.85 39.85 0 0 0-3.338 16A39.85 39.85 0 0 0 0 0" style="fill:#0f0;fill-opacity:1;fill-rule:nonzero;stroke:none" transform="translate(137.338 148)"/><path d="M0 0a39.85 39.85 0 0 0 3.338-16c0-5.69-1.196-11.1-3.338-16h4.313a43.8 43.8 0 0 1 3.025 16c0 5.644-1.08 11.037-3.025 16z" style="fill:#0f0;fill-opacity:1;fill-rule:nonzero;stroke:none" transform="translate(210.662 148)"/></g></svg>