<?xml version="1.0" encoding="iso-8859-1"?>
<!-- Generator: Adobe Illustrator 28.0.0, SVG Export Plug-In . SVG Version: 6.00 Build 0)  -->
<svg version="1.1" id="Layer_1" xmlns="http://www.w3.org/2000/svg" xmlns:xlink="http://www.w3.org/1999/xlink" x="0px" y="0px"
	 viewBox="0 0 256 256" style="enable-background:new 0 0 256 256;" xml:space="preserve">
<path style="opacity:0.5;fill:#FFFFFF;" d="M252,42c0-6.617-5.383-12-12-12h-13.079c-1.383-2.391-3.969-4-6.93-4h-8h-75.088
	c-3.702,0-7.224,0.913-10.19,2.641C125.782,29.091,121.99,30,115.991,30s-9.791-0.909-10.722-1.359
	C102.304,26.913,98.782,26,95.079,26H23.991c-6.617,0-12,5.383-12,12v41.075c-0.081,0.047-0.161,0.095-0.24,0.145
	C7.326,80.175,4,84.119,4,88.826v6.349c0,4.706,3.326,8.65,7.751,9.605c0.079,0.05,0.159,0.098,0.24,0.145V218
	c0,6.617,5.383,12,12,12h107h8c8.964,0,17.835-1.345,26.388-4H240c6.617,0,12-5.383,12-12v-4v-2c0-0.339-0.021-0.672-0.062-1
	c0.041-0.328,0.062-0.661,0.062-1v-2c0-0.339-0.021-0.672-0.062-1c0.041-0.328,0.062-0.661,0.062-1v-2c0-0.339-0.021-0.672-0.062-1
	c0.041-0.328,0.062-0.661,0.062-1v-2c0-0.339-0.021-0.672-0.062-1c0.041-0.328,0.062-0.661,0.062-1v-2c0-0.339-0.021-0.672-0.062-1
	c0.041-0.328,0.062-0.661,0.062-1v-2c0-0.339-0.021-0.672-0.062-1c0.041-0.328,0.062-0.661,0.062-1v-2c0-0.339-0.021-0.672-0.062-1
	c0.041-0.328,0.062-0.661,0.062-1v-2c0-0.339-0.021-0.672-0.062-1c0.041-0.328,0.062-0.661,0.062-1v-2c0-0.339-0.021-0.672-0.062-1
	c0.041-0.328,0.062-0.661,0.062-1v-2c0-0.339-0.021-0.672-0.062-1c0.041-0.328,0.062-0.661,0.062-1v-2c0-0.339-0.021-0.672-0.062-1
	c0.041-0.328,0.062-0.661,0.062-1v-2c0-0.339-0.021-0.672-0.062-1c0.041-0.328,0.062-0.661,0.062-1v-2c0-0.339-0.021-0.672-0.062-1
	c0.041-0.328,0.062-0.661,0.062-1v-2c0-0.339-0.021-0.672-0.062-1c0.041-0.328,0.062-0.661,0.062-1v-2c0-0.339-0.021-0.672-0.062-1
	c0.041-0.328,0.062-0.661,0.062-1v-2c0-0.339-0.021-0.672-0.062-1c0.041-0.328,0.062-0.661,0.062-1v-2c0-0.339-0.021-0.672-0.062-1
	c0.041-0.328,0.062-0.661,0.062-1v-2c0-0.339-0.021-0.672-0.062-1c0.041-0.328,0.062-0.661,0.062-1v-2c0-0.339-0.021-0.672-0.062-1
	c0.041-0.328,0.062-0.661,0.062-1v-2c0-0.339-0.021-0.672-0.062-1c0.041-0.328,0.062-0.661,0.062-1v-2c0-0.339-0.021-0.672-0.062-1
	c0.041-0.328,0.062-0.661,0.062-1v-2c0-0.339-0.021-0.672-0.062-1c0.041-0.328,0.062-0.661,0.062-1v-2c0-0.339-0.021-0.672-0.062-1
	c0.041-0.328,0.062-0.661,0.062-1v-2c0-0.339-0.021-0.672-0.062-1c0.041-0.328,0.062-0.661,0.062-1v-2c0-0.339-0.021-0.672-0.062-1
	c0.041-0.328,0.062-0.661,0.062-1v-2c0-0.339-0.021-0.672-0.062-1c0.041-0.328,0.062-0.661,0.062-1v-2c0-0.339-0.021-0.672-0.062-1
	c0.041-0.328,0.062-0.661,0.062-1v-2c0-0.339-0.021-0.672-0.062-1c0.041-0.328,0.062-0.661,0.062-1v-2c0-0.339-0.021-0.672-0.062-1
	c0.041-0.328,0.062-0.661,0.062-1v-2c0-0.339-0.021-0.672-0.062-1c0.041-0.328,0.062-0.661,0.062-1v-2c0-0.339-0.021-0.672-0.062-1
	c0.041-0.328,0.062-0.661,0.062-1v-2c0-0.339-0.021-0.672-0.062-1c0.041-0.328,0.062-0.661,0.062-1v-2c0-0.339-0.021-0.672-0.062-1
	c0.041-0.328,0.062-0.661,0.062-1v-2c0-0.339-0.021-0.672-0.062-1c0.041-0.328,0.062-0.661,0.062-1v-2c0-0.339-0.021-0.672-0.062-1
	c0.041-0.328,0.062-0.661,0.062-1v-2c0-0.339-0.021-0.672-0.062-1c0.041-0.328,0.062-0.661,0.062-1v-2c0-0.339-0.021-0.672-0.062-1
	c0.041-0.328,0.062-0.661,0.062-1v-2c0-0.339-0.021-0.672-0.062-1c0.041-0.328,0.062-0.661,0.062-1v-2c0-0.339-0.021-0.672-0.062-1
	c0.041-0.328,0.062-0.661,0.062-1v-2c0-0.339-0.021-0.672-0.062-1c0.041-0.328,0.062-0.661,0.062-1v-2c0-0.339-0.021-0.672-0.062-1
	c0.041-0.328,0.062-0.661,0.062-1v-2c0-0.339-0.021-0.672-0.062-1C251.979,42.672,252,42.339,252,42z"/>
<path style="fill:#1A1A1A;" d="M18.174,95h-4.349C12.817,95,12,94.183,12,93.174v-6.349C12,85.817,12.817,85,13.826,85h4.349
	C19.183,85,20,85.817,20,86.826v6.349C20,94.183,19.183,95,18.174,95z"/>
<rect x="16" y="84" style="fill:#4D4D4D;" width="8" height="12"/>
<path style="fill:#4D4D4D;" d="M240,40h4c0-2.209-1.791-4-4-4H140c-2.209,0-4,1.791-4,4v172c0,2.209,1.791,4,4,4h100
	c2.209,0,4-1.791,4-4v-4v-2h-4v-2h4v-2h-4v-2h4v-2h-4v-2h4v-2h-4v-2h4v-2h-4v-2h4v-2h-4v-2h4v-2h-4v-2h4v-2h-4v-2h4v-2h-4v-2h4v-2
	h-4v-2h4v-2h-4v-2h4v-2h-4v-2h4v-2h-4v-2h4v-2h-4v-2h4v-2h-4v-2h4v-2h-4v-2h4v-2h-4v-2h4v-2h-4v-2h4v-2h-4v-2h4v-2h-4v-2h4v-2h-4v-2
	h4v-2h-4v-2h4v-2h-4v-2h4v-2h-4v-2h4v-2h-4v-2h4v-2h-4v-2h4v-2h-4v-2h4v-2h-4v-2h4v-2h-4v-2h4v-2h-4v-2h4v-2h-4v-2h4v-2h-4v-2h4v-2
	h-4v-2h4v-2h-4v-2h4v-2h-4v-2h4v-2h-4v-2h4v-2h-4v-2h4v-2h-4v-2h4v-2h-4v-2h4v-2h-4v-2h4v-2h-4v-2h4v-2h-4V40z"/>
<path style="fill:#404040;" d="M176,204h64v2h-64V204z M176,202h64v-2h-64V202z M176,198h64v-2h-64V198z M176,194h64v-2h-64V194z
	 M176,190h64v-2h-64V190z M176,186h64v-2h-64V186z M176,182h64v-2h-64V182z M176,178h64v-2h-64V178z M176,174h64v-2h-64V174z
	 M176,170h64v-2h-64V170z M176,166h64v-2h-64V166z M176,162h64v-2h-64V162z M176,158h64v-2h-64V158z M176,154h64v-2h-64V154z
	 M176,150h64v-2h-64V150z M176,146h64v-2h-64V146z M176,142h64v-2h-64V142z M176,138h64v-2h-64V138z M176,134h64v-2h-64V134z
	 M176,130h64v-2h-64V130z M176,126h64v-2h-64V126z M176,122h64v-2h-64V122z M176,118h64v-2h-64V118z M176,114h64v-2h-64V114z
	 M176,110h64v-2h-64V110z M176,106h64v-2h-64V106z M176,102h64v-2h-64V102z M176,98h64v-2h-64V98z M176,94h64v-2h-64V94z M176,90h64
	v-2h-64V90z M176,86h64v-2h-64V86z M176,82h64v-2h-64V82z M176,78h64v-2h-64V78z M176,74h64v-2h-64V74z M176,70h64v-2h-64V70z
	 M176,66h64v-2h-64V66z M176,62h64v-2h-64V62z M176,58h64v-2h-64V58z M176,54h64v-2h-64V54z M176,50h64v-2h-64V50z M176,46h64v-2
	h-64V46z M176,42h64v-2h-64V42z"/>
<path style="fill:#595959;" d="M136.903,32c-2.161,0-4.323,0.474-6.187,1.567c-2.439,1.43-8.114,2.433-14.725,2.433
	s-12.286-1.003-14.725-2.433C99.402,32.474,97.24,32,95.079,32H23.991c-2.209,0-4,1.791-4,4v180c0,2.209,1.791,4,4,4h115
	c44.735,0,81-36.265,81-81V32H136.903z"/>
<path style="fill:#333333;" d="M211.991,32v107c0,44.735-36.265,81-81,81h8c44.735,0,81-36.265,81-81V32H211.991z"/>
<rect x="44" y="44" style="fill:#1A1A1A;" width="148" height="12"/>
<rect x="32" y="56" style="fill:#1A1A1A;" width="8" height="64"/>
<polygon style="fill:#16A085;" points="191.991,56 191.991,52 39.991,52 39.991,128 191.991,128 191.991,120 203.991,120 
	203.991,56 "/>
<polygon style="fill:#D9D4BC;" points="116,56 59.991,56 59.991,64 116,64 116,56 "/>
<polyline style="fill:#A6A390;" points="113.846,58 113.846,62 62.145,62 62.145,58 113.846,58 "/>
<polyline style="fill:#C4C0AA;" points="112.769,59 112.769,61 63.222,61 63.222,59 112.769,59 "/>
<polygon style="fill:#D9D4BC;" points="184,56 127.991,56 127.991,64 184,64 184,56 "/>
<polyline style="fill:#A6A390;" points="181.846,58 181.846,62 130.145,62 130.145,58 181.846,58 "/>
<polyline style="fill:#C4C0AA;" points="180.769,59 180.769,61 131.222,61 131.222,59 180.769,59 "/>
<polygon style="fill:#D9D4BC;" points="116,116 60,116 60,124 116,124 116,116 "/>
<polyline style="fill:#A6A390;" points="113.846,118 113.846,122 62.154,122 62.154,118 113.846,118 "/>
<polyline style="fill:#C4C0AA;" points="112.769,119 112.769,121 63.231,121 63.231,119 112.769,119 "/>
<rect x="146" y="104" style="fill:#E6E6E6;" width="20" height="20"/>
<circle style="fill:#E6E6E6;" cx="50" cy="66" r="2"/>
<circle style="fill:#E6E6E6;" cx="54" cy="118" r="2"/>
<circle style="fill:#E6E6E6;" cx="54" cy="110" r="2"/>
<circle style="fill:#E6E6E6;" cx="92" cy="68" r="4"/>
<circle style="fill:#E6E6E6;" cx="122" cy="70" r="2"/>
<circle style="fill:#E6E6E6;" cx="186" cy="74" r="2"/>
<circle style="fill:#E6E6E6;" cx="194" cy="62" r="2"/>
<circle style="fill:#E6E6E6;" cx="174" cy="110" r="2"/>
<circle style="fill:#E6E6E6;" cx="178" cy="118" r="2"/>
<circle style="fill:#E6E6E6;" cx="98" cy="114" r="2"/>
<circle style="fill:#E6E6E6;" cx="142" cy="118" r="2"/>
<circle style="fill:#E6E6E6;" cx="110" cy="98" r="2"/>
<polygon style="fill:#D9D4BC;" points="36,64 36,68 32,68 32,112 36,112 36,116 44,116 44,64 "/>
<rect x="40" y="68" style="fill:#A3834A;" width="4" height="44"/>
<rect x="40" y="68" style="fill:#D9AF63;" width="4" height="2"/>
<rect x="40" y="72" style="fill:#D9AF63;" width="4" height="2"/>
<rect x="40" y="76" style="fill:#D9AF63;" width="4" height="2"/>
<rect x="40" y="80" style="fill:#D9AF63;" width="4" height="2"/>
<rect x="40" y="84" style="fill:#D9AF63;" width="4" height="2"/>
<rect x="40" y="88" style="fill:#D9AF63;" width="4" height="2"/>
<rect x="40" y="92" style="fill:#D9AF63;" width="4" height="2"/>
<rect x="40" y="96" style="fill:#D9AF63;" width="4" height="2"/>
<rect x="40" y="100" style="fill:#D9AF63;" width="4" height="2"/>
<rect x="40" y="104" style="fill:#D9AF63;" width="4" height="2"/>
<rect x="40" y="108" style="fill:#D9AF63;" width="4" height="2"/>
<circle style="fill:#1A1A1A;" cx="53" cy="187" r="1"/>
<circle style="fill:#1A1A1A;" cx="57" cy="187" r="1"/>
<circle style="fill:#1A1A1A;" cx="61" cy="187" r="1"/>
<circle style="fill:#1A1A1A;" cx="65" cy="187" r="1"/>
<circle style="fill:#1A1A1A;" cx="69" cy="187" r="1"/>
<circle style="fill:#1A1A1A;" cx="73" cy="187" r="1"/>
<circle style="fill:#1A1A1A;" cx="77" cy="187" r="1"/>
<circle style="fill:#1A1A1A;" cx="81" cy="187" r="1"/>
<circle style="fill:#1A1A1A;" cx="85" cy="187" r="1"/>
<circle style="fill:#1A1A1A;" cx="89" cy="187" r="1"/>
<circle style="fill:#1A1A1A;" cx="53" cy="191" r="1"/>
<circle style="fill:#1A1A1A;" cx="57" cy="191" r="1"/>
<circle style="fill:#1A1A1A;" cx="61" cy="191" r="1"/>
<circle style="fill:#1A1A1A;" cx="65" cy="191" r="1"/>
<circle style="fill:#1A1A1A;" cx="69" cy="191" r="1"/>
<circle style="fill:#1A1A1A;" cx="73" cy="191" r="1"/>
<circle style="fill:#1A1A1A;" cx="77" cy="191" r="1"/>
<circle style="fill:#1A1A1A;" cx="81" cy="191" r="1"/>
<circle style="fill:#1A1A1A;" cx="85" cy="191" r="1"/>
<circle style="fill:#1A1A1A;" cx="89" cy="191" r="1"/>
<circle style="fill:#1A1A1A;" cx="53" cy="195" r="1"/>
<circle style="fill:#1A1A1A;" cx="57" cy="195" r="1"/>
<circle style="fill:#1A1A1A;" cx="61" cy="195" r="1"/>
<circle style="fill:#1A1A1A;" cx="65" cy="195" r="1"/>
<circle style="fill:#1A1A1A;" cx="69" cy="195" r="1"/>
<circle style="fill:#1A1A1A;" cx="73" cy="195" r="1"/>
<circle style="fill:#1A1A1A;" cx="77" cy="195" r="1"/>
<circle style="fill:#1A1A1A;" cx="81" cy="195" r="1"/>
<circle style="fill:#1A1A1A;" cx="85" cy="195" r="1"/>
<circle style="fill:#1A1A1A;" cx="89" cy="195" r="1"/>
<circle style="fill:#1A1A1A;" cx="143" cy="195" r="1"/>
<circle style="fill:#1A1A1A;" cx="147" cy="195" r="1"/>
<circle style="fill:#1A1A1A;" cx="151" cy="195" r="1"/>
<circle style="fill:#1A1A1A;" cx="155" cy="195" r="1"/>
<circle style="fill:#1A1A1A;" cx="159" cy="195" r="1"/>
<circle style="fill:#1A1A1A;" cx="163" cy="195" r="1"/>
<circle style="fill:#1A1A1A;" cx="167" cy="195" r="1"/>
<circle style="fill:#1A1A1A;" cx="171" cy="195" r="1"/>
<circle style="fill:#1A1A1A;" cx="175" cy="195" r="1"/>
<circle style="fill:#1A1A1A;" cx="179" cy="195" r="1"/>
<circle style="fill:#1A1A1A;" cx="143" cy="199" r="1"/>
<circle style="fill:#1A1A1A;" cx="147" cy="199" r="1"/>
<circle style="fill:#1A1A1A;" cx="151" cy="199" r="1"/>
<circle style="fill:#1A1A1A;" cx="155" cy="199" r="1"/>
<circle style="fill:#1A1A1A;" cx="159" cy="199" r="1"/>
<circle style="fill:#1A1A1A;" cx="163" cy="199" r="1"/>
<circle style="fill:#1A1A1A;" cx="167" cy="199" r="1"/>
<circle style="fill:#1A1A1A;" cx="171" cy="199" r="1"/>
<circle style="fill:#1A1A1A;" cx="175" cy="199" r="1"/>
<circle style="fill:#1A1A1A;" cx="143" cy="203" r="1"/>
<circle style="fill:#1A1A1A;" cx="147" cy="203" r="1"/>
<circle style="fill:#1A1A1A;" cx="151" cy="203" r="1"/>
<circle style="fill:#1A1A1A;" cx="155" cy="203" r="1"/>
<circle style="fill:#1A1A1A;" cx="159" cy="203" r="1"/>
<circle style="fill:#1A1A1A;" cx="163" cy="203" r="1"/>
<circle style="fill:#1A1A1A;" cx="167" cy="203" r="1"/>
<circle style="fill:#1A1A1A;" cx="171" cy="203" r="1"/>
<circle style="fill:#1A1A1A;" cx="221" cy="165" r="1"/>
<circle style="fill:#1A1A1A;" cx="225" cy="165" r="1"/>
<circle style="fill:#1A1A1A;" cx="229" cy="165" r="1"/>
<circle style="fill:#1A1A1A;" cx="221" cy="169" r="1"/>
<circle style="fill:#1A1A1A;" cx="225" cy="169" r="1"/>
<circle style="fill:#1A1A1A;" cx="229" cy="169" r="1"/>
<circle style="fill:#1A1A1A;" cx="221" cy="173" r="1"/>
<circle style="fill:#1A1A1A;" cx="225" cy="173" r="1"/>
<circle style="fill:#1A1A1A;" cx="229" cy="173" r="1"/>
<circle style="fill:#1A1A1A;" cx="221" cy="177" r="1"/>
<circle style="fill:#1A1A1A;" cx="225" cy="177" r="1"/>
<circle style="fill:#1A1A1A;" cx="229" cy="177" r="1"/>
<circle style="fill:#1A1A1A;" cx="221" cy="181" r="1"/>
<circle style="fill:#1A1A1A;" cx="225" cy="181" r="1"/>
<circle style="fill:#1A1A1A;" cx="229" cy="181" r="1"/>
<circle style="fill:#1A1A1A;" cx="221" cy="161" r="1"/>
<circle style="fill:#1A1A1A;" cx="225" cy="161" r="1"/>
<circle style="fill:#1A1A1A;" cx="229" cy="161" r="1"/>
<circle style="fill:#1A1A1A;" cx="221" cy="157" r="1"/>
<circle style="fill:#1A1A1A;" cx="225" cy="157" r="1"/>
<circle style="fill:#1A1A1A;" cx="229" cy="157" r="1"/>
<circle style="fill:#1A1A1A;" cx="221" cy="153" r="1"/>
<circle style="fill:#1A1A1A;" cx="225" cy="153" r="1"/>
<circle style="fill:#1A1A1A;" cx="229" cy="153" r="1"/>
<circle style="fill:#1A1A1A;" cx="221" cy="149" r="1"/>
<circle style="fill:#1A1A1A;" cx="225" cy="149" r="1"/>
<circle style="fill:#1A1A1A;" cx="229" cy="149" r="1"/>
<circle style="fill:#1A1A1A;" cx="221" cy="145" r="1"/>
<circle style="fill:#1A1A1A;" cx="225" cy="145" r="1"/>
<circle style="fill:#1A1A1A;" cx="229" cy="145" r="1"/>
<circle style="fill:#1A1A1A;" cx="221" cy="141" r="1"/>
<circle style="fill:#1A1A1A;" cx="225" cy="141" r="1"/>
<circle style="fill:#1A1A1A;" cx="229" cy="141" r="1"/>
<circle style="fill:#1A1A1A;" cx="221" cy="137" r="1"/>
<circle style="fill:#1A1A1A;" cx="225" cy="137" r="1"/>
<circle style="fill:#1A1A1A;" cx="229" cy="137" r="1"/>
<circle style="fill:#1A1A1A;" cx="221" cy="133" r="1"/>
<circle style="fill:#1A1A1A;" cx="225" cy="133" r="1"/>
<circle style="fill:#1A1A1A;" cx="229" cy="133" r="1"/>
<circle style="fill:#1A1A1A;" cx="221" cy="129" r="1"/>
<circle style="fill:#1A1A1A;" cx="225" cy="129" r="1"/>
<circle style="fill:#1A1A1A;" cx="229" cy="129" r="1"/>
<circle style="fill:#1A1A1A;" cx="155" cy="207" r="1"/>
<circle style="fill:#1A1A1A;" cx="159" cy="207" r="1"/>
<circle style="fill:#1A1A1A;" cx="163" cy="207" r="1"/>
<circle style="fill:#1A1A1A;" cx="167" cy="207" r="1"/>
<circle style="fill:#1A1A1A;" cx="53" cy="199" r="1"/>
<circle style="fill:#1A1A1A;" cx="57" cy="199" r="1"/>
<circle style="fill:#1A1A1A;" cx="61" cy="199" r="1"/>
<circle style="fill:#1A1A1A;" cx="65" cy="199" r="1"/>
<circle style="fill:#1A1A1A;" cx="69" cy="199" r="1"/>
<circle style="fill:#1A1A1A;" cx="73" cy="199" r="1"/>
<circle style="fill:#1A1A1A;" cx="77" cy="199" r="1"/>
<circle style="fill:#1A1A1A;" cx="81" cy="199" r="1"/>
<circle style="fill:#1A1A1A;" cx="85" cy="199" r="1"/>
<circle style="fill:#1A1A1A;" cx="89" cy="199" r="1"/>
<circle style="fill:#1A1A1A;" cx="53" cy="203" r="1"/>
<circle style="fill:#1A1A1A;" cx="57" cy="203" r="1"/>
<circle style="fill:#1A1A1A;" cx="61" cy="203" r="1"/>
<circle style="fill:#1A1A1A;" cx="65" cy="203" r="1"/>
<circle style="fill:#1A1A1A;" cx="69" cy="203" r="1"/>
<circle style="fill:#1A1A1A;" cx="73" cy="203" r="1"/>
<circle style="fill:#1A1A1A;" cx="77" cy="203" r="1"/>
<circle style="fill:#1A1A1A;" cx="81" cy="203" r="1"/>
<circle style="fill:#1A1A1A;" cx="85" cy="203" r="1"/>
<circle style="fill:#1A1A1A;" cx="89" cy="203" r="1"/>
<circle style="fill:#1A1A1A;" cx="53" cy="207" r="1"/>
<circle style="fill:#1A1A1A;" cx="57" cy="207" r="1"/>
<circle style="fill:#1A1A1A;" cx="61" cy="207" r="1"/>
<circle style="fill:#1A1A1A;" cx="65" cy="207" r="1"/>
<circle style="fill:#1A1A1A;" cx="69" cy="207" r="1"/>
<circle style="fill:#1A1A1A;" cx="73" cy="207" r="1"/>
<circle style="fill:#1A1A1A;" cx="77" cy="207" r="1"/>
<circle style="fill:#1A1A1A;" cx="81" cy="207" r="1"/>
<circle style="fill:#1A1A1A;" cx="85" cy="207" r="1"/>
<circle style="fill:#1A1A1A;" cx="89" cy="207" r="1"/>
<circle style="fill:#1A1A1A;" cx="53" cy="211" r="1"/>
<circle style="fill:#1A1A1A;" cx="57" cy="211" r="1"/>
<circle style="fill:#1A1A1A;" cx="61" cy="211" r="1"/>
<circle style="fill:#1A1A1A;" cx="65" cy="211" r="1"/>
<circle style="fill:#1A1A1A;" cx="69" cy="211" r="1"/>
<circle style="fill:#1A1A1A;" cx="73" cy="211" r="1"/>
<circle style="fill:#1A1A1A;" cx="77" cy="211" r="1"/>
<circle style="fill:#1A1A1A;" cx="81" cy="211" r="1"/>
<circle style="fill:#1A1A1A;" cx="85" cy="211" r="1"/>
<circle style="fill:#1A1A1A;" cx="89" cy="211" r="1"/>
<circle style="fill:#1A1A1A;" cx="53" cy="215" r="1"/>
<circle style="fill:#1A1A1A;" cx="57" cy="215" r="1"/>
<circle style="fill:#1A1A1A;" cx="61" cy="215" r="1"/>
<circle style="fill:#1A1A1A;" cx="65" cy="215" r="1"/>
<circle style="fill:#1A1A1A;" cx="69" cy="215" r="1"/>
<circle style="fill:#1A1A1A;" cx="73" cy="215" r="1"/>
<circle style="fill:#1A1A1A;" cx="77" cy="215" r="1"/>
<circle style="fill:#1A1A1A;" cx="81" cy="215" r="1"/>
<circle style="fill:#1A1A1A;" cx="85" cy="215" r="1"/>
<circle style="fill:#1A1A1A;" cx="89" cy="215" r="1"/>
<g>
	<path style="fill:#4D4D4D;" d="M128.965,192H28v2h102.107C129.763,193.31,129.391,192.637,128.965,192z"/>
	<path style="fill:#4D4D4D;" d="M130.954,196H28v2h103.539C131.383,197.317,131.184,196.651,130.954,196z"/>
	<path style="fill:#4D4D4D;" d="M131.883,200H28v2h104C132,201.323,131.955,200.657,131.883,200z"/>
	<path style="fill:#4D4D4D;" d="M114,184H28v2h94.222C119.755,184.73,116.965,184,114,184z"/>
	<path style="fill:#4D4D4D;" d="M125.302,188H28v2h99.39C126.745,189.281,126.053,188.607,125.302,188z"/>
	<path style="fill:#4D4D4D;" d="M128.965,212H28v2h99.389C127.956,213.368,128.491,212.708,128.965,212z"/>
	<path style="fill:#4D4D4D;" d="M125.302,216H28v2h94.222C123.318,217.436,124.351,216.769,125.302,216z"/>
	<path style="fill:#4D4D4D;" d="M130.954,208H28v2h102.107C130.428,209.354,130.711,208.687,130.954,208z"/>
	<path style="fill:#4D4D4D;" d="M131.883,204H28v2h103.539C131.687,205.345,131.807,204.68,131.883,204z"/>
</g>
<rect x="32" y="44" style="fill:#A3834A;" width="12" height="12"/>
<rect x="192" y="44" style="fill:#A3834A;" width="12" height="12"/>
<rect x="32" y="120" style="fill:#A3834A;" width="12" height="8"/>
<rect x="192" y="120" style="fill:#A3834A;" width="12" height="8"/>
<path style="fill:#4D4D4D;" d="M24,100L24,100c-1.105,0-2-0.895-2-2V78c0-1.105,0.895-2,2-2h0c1.105,0,2,0.895,2,2v20
	C26,99.105,25.105,100,24,100z"/>
<path style="fill:#595959;" d="M44,52c-2.209,0-4,1.791-4,4s1.791,4,4,4s4-1.791,4-4S46.209,52,44,52L44,52z"/>
<path style="fill:#4D4D4D;" d="M44,54c1.103,0,2,0.897,2,2s-0.897,2-2,2s-2-0.897-2-2S42.897,54,44,54"/>
<path style="fill:#595959;" d="M44,116c-2.209,0-4,1.791-4,4s1.791,4,4,4s4-1.791,4-4S46.209,116,44,116L44,116z"/>
<path style="fill:#4D4D4D;" d="M44,118c1.103,0,2,0.897,2,2s-0.897,2-2,2s-2-0.897-2-2S42.897,118,44,118"/>
<path style="fill:#595959;" d="M192,116c-2.209,0-4,1.791-4,4s1.791,4,4,4s4-1.791,4-4S194.209,116,192,116L192,116z"/>
<path style="fill:#4D4D4D;" d="M192,118c1.103,0,2,0.897,2,2s-0.897,2-2,2s-2-0.897-2-2S190.897,118,192,118"/>
<path style="fill:#595959;" d="M192,52c-2.209,0-4,1.791-4,4s1.791,4,4,4s4-1.791,4-4S194.209,52,192,52L192,52z"/>
<path style="fill:#4D4D4D;" d="M192,54c1.103,0,2,0.897,2,2s-0.897,2-2,2s-2-0.897-2-2S190.897,54,192,54"/>
<path style="fill:#595959;" d="M124,116c-2.209,0-4,1.791-4,4s1.791,4,4,4s4-1.791,4-4S126.209,116,124,116L124,116z"/>
<path style="fill:#4D4D4D;" d="M124,118c1.103,0,2,0.897,2,2s-0.897,2-2,2s-2-0.897-2-2S122.897,118,124,118"/>
<path style="fill:#4D4D4D;" d="M199.991,40h-60.789c-1.422,0-2.851,0.339-4.029,1.136C132.727,42.792,125.064,44,115.991,44
	s-16.735-1.208-19.182-2.864C95.631,40.339,94.202,40,92.78,40H35.991c-4.418,0-8,3.582-8,8v76c0,4.418,3.582,8,8,8h28l29.707,4.244
	c2.764,0.395,5.48,1.044,8.158,1.833c4.017,1.183,9.757,1.924,16.135,1.924c0.621,0,1.234-0.009,1.842-0.023l0.158,0.023l0.194-0.03
	c5.162-0.139,9.8-0.765,13.287-1.708c1.905-0.515,3.83-0.926,5.78-1.226L171.991,132h28c4.418,0,8-3.582,8-8V48
	C207.991,43.582,204.409,40,199.991,40z M203.991,124c0,2.206-1.794,4-4,4h-16h-12h-0.306H95.991H64.275h-0.284h-8h-4h-16
	c-2.206,0-4-1.794-4-4V48c0-2.206,1.794-4,4-4H92.78c0.725,0,1.36,0.159,1.787,0.448c4.87,3.295,17.63,3.552,21.424,3.552
	s16.554-0.256,21.424-3.552c0.427-0.289,1.062-0.448,1.787-0.448h60.789c2.206,0,4,1.794,4,4V124z"/>
<rect x="32" y="168" style="fill:#CCCCCC;" width="52" height="12"/>
<rect x="116" y="80" style="fill:#1A1A1A;" width="36" height="12"/>
<rect x="156" y="72" style="fill:#1A1A1A;" width="16" height="16"/>
<rect x="180" y="92" style="fill:#1A1A1A;" width="8" height="6.734"/>
<rect x="192" y="92" style="fill:#1A1A1A;" width="8" height="6.734"/>
<rect x="68" y="72" style="fill:#1A1A1A;" width="16" height="16"/>
<rect x="56" y="80" style="fill:#1A1A1A;" width="8" height="12"/>
<rect x="60" y="68" style="fill:#1A1A1A;" width="4" height="8"/>
<rect x="48" y="64" style="fill:#1A1A1A;" width="8" height="4"/>
<rect x="60" y="96" style="fill:#1A1A1A;" width="8" height="16"/>
<rect x="72" y="100" style="fill:#1A1A1A;" width="16" height="8"/>
<rect x="112" y="104" style="fill:#1A1A1A;" width="12" height="12"/>
<rect x="104" y="84" style="fill:#1A1A1A;" width="8" height="4"/>
<rect x="88" y="76" style="fill:#1A1A1A;" width="8" height="4"/>
<rect x="88" y="88" style="fill:#1A1A1A;" width="8" height="4"/>
<rect x="128" y="72" style="fill:#1A1A1A;" width="8" height="4"/>
<rect x="140" y="72" style="fill:#1A1A1A;" width="8" height="4"/>
<path style="fill:#1A1A1A;" d="M102,66v4.719c-1.28,1.454-2,3.333-2,5.281l0,0c0,4.411,3.589,8,8,8s8-3.589,8-8
	c0-1.949-0.72-3.827-2-5.281V66H102z"/>
<path style="fill:#E6E6E6;" d="M104,66v5.537c-1.225,1.099-2,2.688-2,4.463c0,3.314,2.686,6,6,6s6-2.686,6-6
	c0-1.775-0.775-3.365-2-4.463V66H104z"/>
<rect x="104" y="68" style="fill:#D9D9D9;" width="8" height="4"/>
<rect x="48" y="100" style="fill:#1A1A1A;" width="8" height="4"/>
<rect x="136" y="96" style="fill:#1A1A1A;" width="8" height="4"/>
<rect x="180" y="80" style="fill:#1A1A1A;" width="8" height="4"/>
</svg>
