<svg xmlns="http://www.w3.org/2000/svg" xml:space="preserve" viewBox="0 0 256 256"><path d="m248.485 57.172-9.657-9.657A11.92 11.92 0 0 0 230.343 44h-55.671c-7.959-2.655-16.252-4-24.672-4s-16.712 1.345-24.672 4H25.657a11.92 11.92 0 0 0-8.485 3.515l-9.657 9.657A11.92 11.92 0 0 0 4 65.657v136.686c0 3.205 1.248 6.219 3.515 8.485l2.243 2.243A9.93 9.93 0 0 0 16.829 216h222.343a9.93 9.93 0 0 0 7.071-2.929l2.243-2.243a11.92 11.92 0 0 0 3.515-8.485V65.657a11.92 11.92 0 0 0-3.516-8.485" style="opacity:.5;fill:#fff"/><path d="m22.828 53.172-9.657 9.657A4 4 0 0 0 12 65.657v136.686c0 1.061.421 2.078 1.172 2.828l2.243 2.243a2 2 0 0 0 1.414.586H24l4-152v-4h-2.343a4 4 0 0 0-2.829 1.172" style="fill:#666"/><path d="m242.828 62.828-9.657-9.657a4 4 0 0 0-2.828-1.172H228v4l4 152h7.172a2 2 0 0 0 1.414-.586l2.243-2.243a4 4 0 0 0 1.172-2.828V65.657a4 4 0 0 0-1.173-2.829" style="fill:#404040"/><path d="M232 156V56a4 4 0 0 0-4-4H28a4 4 0 0 0-4 4v152h208l4-52z" style="fill:#595959"/><path d="M150 48c-38.66 0-70 31.34-70 70s31.34 70 70 70 70-31.34 70-70-31.34-70-70-70" style="fill:#404040"/><path d="M150 56c34.187 0 62 27.813 62 62s-27.813 62-62 62-62-27.813-62-62 27.813-62 62-62" style="fill:#595959"/><path d="M176 180h-52v-36a4 4 0 0 1 4-4h44a4 4 0 0 1 4 4z" style="fill:#4d4d4d"/><path d="M176 182.991v-8.727c-7.913 3.672-16.718 5.736-26 5.736s-18.087-2.064-26-5.736v8.727c8.041 3.22 16.809 5.009 26 5.009s17.959-1.789 26-5.009" style="fill:red"/><path d="M92 96h116s-16-4-60-4-56 4-56 4m116 20H92s16 4 60 4 56-4 56-4m-2-19c.551 0 1 .449 1 1v16c0 .551-.449 1-1 1H94c-.551 0-1-.449-1-1V98c0-.551.449-1 1-1zm0-1H94a2 2 0 0 0-2 2v16a2 2 0 0 0 2 2h112a2 2 0 0 0 2-2V98a2 2 0 0 0-2-2" style="fill:#4d4d4d"/><path d="M92 105.5h116v1H92z" style="fill:#4d4d4d"/><circle cx="150" cy="184" r="2" style="fill:#b80000"/><path d="M80 208H28v-60h48z" style="fill:#666"/><path d="m76 148 4 8v52z" style="fill:#404040"/><path d="M62 179H46c-3.86 0-7 3.14-7 7s3.14 7 7 7h16c3.86 0 7-3.14 7-7s-3.14-7-7-7" style="fill:#595959"/><path d="M62 192H46c-3.3 0-6-2.7-6-6s2.7-6 6-6h16c3.3 0 6 2.7 6 6s-2.7 6-6 6" style="fill:#f2f2f2"/><path d="M40 156h28v12H40z" style="fill:#595959"/><path d="M48 156h12v12H48z" style="fill:#4d4d4d"/><path d="M53 156h2v12h-2z" style="fill:#595959"/><path d="m236 156-4-8h-14.378c-11.533 25.894-37.495 44-67.622 44s-56.088-18.106-67.622-44H76l4 8h1.913c13.359 23.844 38.867 40 68.087 40s54.728-16.156 68.087-40zM24 64h24v4H24zm0 8h24v4H24zm0 8h24v4H24zm0 8h24v4H24zm0 8h24v4H24zm0 8h24v4H24zm0 8h24v4H24zm0 8h24v4H24zm0 8h24v4H24z" style="fill:#4d4d4d"/><path d="m12 68 12-4v4l-12 4zm0 8 12-4v4l-12 4zm0 8 12-4v4l-12 4zm0 8 12-4v4l-12 4zm0 8 12-4v4l-12 4zm0 8 12-4v4l-12 4zm0 8 12-4v4l-12 4zm0 8 12-4v4l-12 4zm0 8 12-4v4l-12 4z" style="fill:#737373"/><path d="M48 132V64a2 2 0 0 1 2 2v64a2 2 0 0 1-2 2" style="fill:#4d4d4d"/><path d="M24 208h4v-52h-8z" style="fill:#595959"/><path d="M28 156h-8l4-8h4z" style="fill:#4d4d4d"/></svg>