<svg xmlns="http://www.w3.org/2000/svg" xml:space="preserve" width="325.836" height="298.677"><defs><clipPath id="a" clipPathUnits="userSpaceOnUse"><path d="M0 256h256V0H0Z"/></clipPath><clipPath id="b" clipPathUnits="userSpaceOnUse"><path d="M5.811 244H250.19V19.992H5.811Z"/></clipPath></defs><g clip-path="url(#a)" transform="matrix(1.33333 0 0 -1.33333 -7.749 325.333)"><g clip-path="url(#b)" style="opacity:.5"><path d="M0 0h-24v-.274c-45.923-2.02-76.454-15.134-85.054-19.291a16.1 16.1 0 0 1-7.394-7.351c-7.144-14.473-15.283-42.557-13.489-94.16 1.179-33.879 6.294-63.358 10.509-73.895 3.817-9.542 8.294-16.498 13.306-20.675 4.405-3.67 8.126-4.283 9.798-4.347l87.961-3.999.363-.016.363.016 87.96 3.999c1.672.064 5.394.677 9.798 4.347 5.014 4.177 9.49 11.133 13.307 20.675 4.215 10.537 9.33 40.016 10.509 73.895 1.794 51.603-6.344 79.687-13.489 94.16a16.1 16.1 0 0 1-7.394 7.351C84.453-15.408 53.923-2.294 8-.274v.232z" style="fill:#fff;fill-opacity:1;fill-rule:nonzero;stroke:none" transform="translate(136 244)"/></g><path d="M0 0a8.02 8.02 0 0 1-3.702 3.689c-8.77 4.239-40.891 17.999-89.572 18.727v.041h-16v-.041c-48.683-.728-80.803-14.488-89.573-18.727A8.03 8.03 0 0 1-202.549 0c-22.29-45.156-10.58-141.907-2.725-161.543 8-20 16-20 16-20l88-4 88 4s8 0 16 20C10.58-141.907 22.29-45.156 0 0" style="fill:#404040;fill-opacity:1;fill-rule:nonzero;stroke:none" transform="translate(229.274 213.543)"/><path d="M0 0h24v-52L-7.249-38.111A8 8 0 0 0-12-30.801V-12C-12-5.373-6.627 0 0 0" style="fill:#333;fill-opacity:1;fill-rule:nonzero;stroke:none" transform="translate(52 120)"/><path d="M0 0h-24v-52L7.249-38.111A8 8 0 0 1 12-30.801V-12C12-5.373 6.627 0 0 0" style="fill:#333;fill-opacity:1;fill-rule:nonzero;stroke:none" transform="translate(204 120)"/><path d="M0 0a2 2 0 1 0-4.001.001A2 2 0 0 0 0 0" style="fill:#262626;fill-opacity:1;fill-rule:nonzero;stroke:none" transform="translate(206 106)"/><path d="M0 0h-12a2 2 0 0 0 0 4H0a2 2 0 0 0 0-4" style="fill:#262626;fill-opacity:1;fill-rule:nonzero;stroke:none" transform="translate(58 92)"/><path d="m0 0 51.279-2.331L102.559 0c-.824 36.768 37.705 150.569 49.398 184.208a7.97 7.97 0 0 1-3.105 2.693c-8.77 4.239-40.891 17.999-89.573 18.726v.042h-16v-.042c-48.682-.727-80.802-14.487-89.572-18.726a8 8 0 0 1-3.106-2.693C-37.706 150.569.824 36.768 0 0" style="fill:#4c4c4c;fill-opacity:1;fill-rule:nonzero;stroke:none" transform="translate(76.72 30.331)"/><path d="M0 0a2 2 0 1 0-4.001.001A2 2 0 0 0 0 0" style="fill:#262626;fill-opacity:1;fill-rule:nonzero;stroke:none" transform="translate(200 98)"/><path d="M0 0a2 2 0 1 0-4.001.001A2 2 0 0 0 0 0" style="fill:#262626;fill-opacity:1;fill-rule:nonzero;stroke:none" transform="translate(212 98)"/><path d="M0 0c17.914 12.852 27.78 30.003 27.78 48.294 0 3.093-.308 6.2-.883 9.26-1.047.452-2.626 1.1-2.209.929a48 48 0 0 0 1.092-10.189c0-36.451-41.189-66-92-66s-92 29.549-92 66c0 3.465.375 6.868 1.092 10.189-.781-.322-1.526-.634-2.209-.929a50 50 0 0 1-.883-9.26c0-18.291 9.866-35.442 27.781-48.294 17.713-12.708 41.231-19.706 66.219-19.706C-41.23-19.706-17.714-12.708 0 0" style="fill:#404040;fill-opacity:1;fill-rule:nonzero;stroke:none" transform="translate(194.22 161.706)"/><path d="M0 0c-33.126 0-54.396 7.006-54.717 7.113v1.898c.477-.159 49.287-15.716 112.242.02V7.092A237.3 237.3 0 0 0 0 0" style="fill:#404040;fill-opacity:1;fill-rule:nonzero;stroke:none" transform="translate(126.717 63.05)"/><path d="M0 0a7.97 7.97 0 0 1-4.253 3.878c-7.928 3.07-32.249 10.755-77.063 10.755s-69.137-7.685-77.064-10.755A7.97 7.97 0 0 1-162.633 0l-1.477-2.956c-1.107-2.212-1.168-4.829-.063-7.042 6.621-13.26 41.197-23.369 82.857-23.369S-5.081-23.258 1.54-9.998c1.106 2.213 1.044 4.83-.062 7.042z" style="fill:#404040;fill-opacity:1;fill-rule:nonzero;stroke:none" transform="translate(209.316 205.367)"/><path d="M0 0h-144a4 4 0 0 0-4 4v12a4 4 0 0 0 4 4H0a4 4 0 0 0 4-4V4a4 4 0 0 0-4-4" style="fill:#4c4c4c;fill-opacity:1;fill-rule:nonzero;stroke:none" transform="translate(200 188)"/><path d="M204 197H52v2h152z" style="fill:#333;fill-opacity:1;fill-rule:nonzero;stroke:none"/><path d="m0 0-4-4h8Z" style="fill:#333;fill-opacity:1;fill-rule:nonzero;stroke:none" transform="translate(128 184)"/><path d="M70 188h-2v20h2zm118 0h-2v20h2z" style="fill:#404040;fill-opacity:1;fill-rule:nonzero;stroke:none"/></g></svg>