<?xml version="1.0" encoding="iso-8859-1"?>
<!-- Generator: Adobe Illustrator 26.3.1, SVG Export Plug-In . SVG Version: 6.00 Build 0)  -->
<svg version="1.1" id="Layer_1" xmlns="http://www.w3.org/2000/svg" xmlns:xlink="http://www.w3.org/1999/xlink" x="0px" y="0px"
	 viewBox="0 0 256 256" style="enable-background:new 0 0 256 256;" xml:space="preserve">
<path style="opacity:0.5;fill:#FFFFFF;" d="M240,32H16C9.383,32,4,37.383,4,44v168c0,2.451,1.014,6.906,7.802,9.193
	c1.963,0.662,4.589,1.256,8.027,1.816c6.086,0.992,14.698,1.876,25.597,2.628C67.512,227.161,96.838,228,128,228
	s60.488-0.839,82.575-2.362c10.899-0.752,19.511-1.636,25.597-2.628c3.438-0.561,6.063-1.155,8.027-1.816
	c6.788-2.288,7.802-6.742,7.802-9.193V44C252,37.383,246.617,32,240,32L240,32z"/>
<path style="fill:#8C8C8C;" d="M16,40c-2.209,0-4,1.791-4,4v168c0,4.418,51.935,8,116,8s116-3.582,116-8V44c0-2.209-1.791-4-4-4H16z
	"/>
<polygon style="fill:#4D4D4D;" points="168,48 168,44 88,44 88,48 80,48 80,60 176,60 176,48 "/>
<rect x="80" y="51" style="fill:#333333;" width="96" height="2"/>
<polygon style="fill:#333333;" points="188,184 68,184 68,40 66,40 66,184 66,186 68,186 188,186 190,186 190,184 190,40 188,40 "/>
<rect x="68" y="62" style="fill:#333333;" width="120" height="2"/>
<path style="fill:#737373;" d="M128,156c33.137,0,60-3.582,60-8H68C68,152.418,94.863,156,128,156z"/>
<path style="fill:#333333;" d="M176,168c0,5.523-21.49,12-48,12s-48-6.477-48-12s21.49-16,48-16S176,162.477,176,168z"/>
<path style="fill:#1A1A1A;" d="M102.524,155.243C110.258,155.728,118.889,156,128,156s17.742-0.272,25.476-0.757
	C146.091,153.31,137.362,152,128,152S109.909,153.31,102.524,155.243z"/>
<circle style="fill:#737373;" cx="73" cy="173" r="1"/>
<circle style="fill:#737373;" cx="77" cy="173" r="1"/>
<circle style="fill:#737373;" cx="81" cy="173" r="1"/>
<circle style="fill:#737373;" cx="73" cy="177" r="1"/>
<circle style="fill:#737373;" cx="77" cy="177" r="1"/>
<circle style="fill:#737373;" cx="81" cy="177" r="1"/>
<circle style="fill:#737373;" cx="73" cy="181" r="1"/>
<circle style="fill:#737373;" cx="77" cy="181" r="1"/>
<circle style="fill:#737373;" cx="81" cy="181" r="1"/>
<circle style="fill:#CCCCCC;" cx="30" cy="154" r="10"/>
<circle style="fill:#CCCCCC;" cx="50" cy="178" r="10"/>
<circle style="fill:#666666;" cx="76" cy="200" r="8"/>
<path style="fill:#666666;" d="M30,200h-4c-1.1,0-2-0.9-2-2l0,0c0-1.1,0.9-2,2-2h4c1.1,0,2,0.9,2,2l0,0C32,199.1,31.1,200,30,200z"
	/>
<path style="fill:#666666;" d="M30,208h-4c-1.1,0-2-0.9-2-2l0,0c0-1.1,0.9-2,2-2h4c1.1,0,2,0.9,2,2l0,0C32,207.1,31.1,208,30,208z"
	/>
<circle style="fill:#666666;" cx="208" cy="184" r="4"/>
<circle style="fill:#666666;" cx="224" cy="176" r="4"/>
<circle style="fill:#666666;" cx="208" cy="164" r="4"/>
<circle style="fill:#666666;" cx="224" cy="156" r="4"/>
<path style="fill:#666666;" d="M224,148L224,148c-2.209,0-4-1.791-4-4v-12c0-2.209,1.791-4,4-4l0,0c2.209,0,4,1.791,4,4v12
	C228,146.209,226.209,148,224,148z"/>
<path style="fill:#666666;" d="M55,54H29c-0.552,0-1-0.448-1-1l0,0c0-0.552,0.448-1,1-1h26c0.552,0,1,0.448,1,1l0,0
	C56,53.552,55.552,54,55,54z"/>
<path style="fill:#666666;" d="M55,78H29c-0.552,0-1-0.448-1-1l0,0c0-0.552,0.448-1,1-1h26c0.552,0,1,0.448,1,1l0,0
	C56,77.552,55.552,78,55,78z"/>
<path style="fill:#666666;" d="M55,102H29c-0.552,0-1-0.448-1-1l0,0c0-0.552,0.448-1,1-1h26c0.552,0,1,0.448,1,1l0,0
	C56,101.552,55.552,102,55,102z"/>
<path style="fill:#666666;" d="M227,54h-26c-0.552,0-1-0.448-1-1l0,0c0-0.552,0.448-1,1-1h26c0.552,0,1,0.448,1,1l0,0
	C228,53.552,227.552,54,227,54z"/>
<path style="fill:#666666;" d="M227,78h-26c-0.552,0-1-0.448-1-1l0,0c0-0.552,0.448-1,1-1h26c0.552,0,1,0.448,1,1l0,0
	C228,77.552,227.552,78,227,78z"/>
<path style="fill:#666666;" d="M227,102h-26c-0.552,0-1-0.448-1-1l0,0c0-0.552,0.448-1,1-1h26c0.552,0,1,0.448,1,1l0,0
	C228,101.552,227.552,102,227,102z"/>
</svg>
