<svg xmlns="http://www.w3.org/2000/svg" xml:space="preserve" width="330.666" height="213.333"><defs><clipPath id="a" clipPathUnits="userSpaceOnUse"><path d="M0 256h256V0H0Z"/></clipPath><clipPath id="b" clipPathUnits="userSpaceOnUse"><path d="M4 208h248V48H4Z"/></clipPath></defs><g clip-path="url(#a)" transform="matrix(1.33333 0 0 -1.33333 -5.334 277.333)"><g clip-path="url(#b)" style="opacity:.5"><path d="M0 0h-214.815c-9.149 0-16.592-7.389-16.592-16.471v-127.058c0-9.082 7.443-16.471 16.592-16.471H0c9.149 0 16.593 7.389 16.593 16.471v127.058C16.593-7.389 9.149 0 0 0" style="fill:#fff;fill-opacity:1;fill-rule:nonzero;stroke:none" transform="translate(235.407 208)"/></g><path d="M0 0c-7.728 0-14 6.268-14 14s6.272 14 14 14 14-6.267 14-14S7.728 0 0 0m-92 0c-7.728 0-14 6.267-14 14s6.272 14 14 14 14-6.267 14-14-6.272-14-14-14M61.407 72h-214.814c-4.743 0-8.593-3.795-8.593-8.471V-63.529c0-4.676 3.85-8.471 8.593-8.471H61.407C66.15-72 70-68.205 70-63.529V63.529C70 68.205 66.15 72 61.407 72" style="fill:#333;fill-opacity:1;fill-rule:nonzero;stroke:none" transform="translate(174 128)"/><path d="M0 0c-7.728 0-14 6.267-14 14s6.272 14 14 14 14-6.267 14-14S7.728 0 0 0m-92 0c-7.728 0-14 6.267-14 14s6.272 14 14 14 14-6.267 14-14-6.272-14-14-14M49.333 60h-190.666c-4.784 0-8.667-3.942-8.667-8.8v-70.4c0-4.858 3.883-8.8 8.667-8.8H49.333C54.117-28 58-24.058 58-19.2v70.4c0 4.858-3.883 8.8-8.667 8.8" style="fill:#d9d9d9;fill-opacity:1;fill-rule:nonzero;stroke:none" transform="translate(174 128)"/><path d="M0 0s0 4-4.235 4h-135.098c-4.223 0-4.223-4-4.223-4l-4.222-20h152z" style="fill:#404040;fill-opacity:1;fill-rule:nonzero;stroke:none" transform="translate(199.778 76)"/><path d="M0 0c-2.212 0-4 1.788-4 4s1.788 4 4 4 4-1.788 4-4-1.788-4-4-4" style="fill:#0d0d0d;fill-opacity:1;fill-rule:nonzero;stroke:none" transform="translate(72 60)"/><path d="M0 0c-2.212 0-4 1.788-4 4s1.788 4 4 4 4-1.788 4-4-1.788-4-4-4" style="fill:#0d0d0d;fill-opacity:1;fill-rule:nonzero;stroke:none" transform="translate(92 64)"/><path d="M0 0c-2.212 0-4 1.788-4 4s1.788 4 4 4 4-1.788 4-4-1.788-4-4-4" style="fill:#0d0d0d;fill-opacity:1;fill-rule:nonzero;stroke:none" transform="translate(128 68)"/><path d="M0 0c-2.212 0-4 1.788-4 4s1.788 4 4 4 4-1.788 4-4-1.788-4-4-4" style="fill:#0d0d0d;fill-opacity:1;fill-rule:nonzero;stroke:none" transform="translate(164 64)"/><path d="M0 0c-2.212 0-4 1.788-4 4s1.788 4 4 4 4-1.788 4-4-1.788-4-4-4" style="fill:#0d0d0d;fill-opacity:1;fill-rule:nonzero;stroke:none" transform="translate(184 60)"/><path d="M0 0a2 2 0 1 0-.07 3.998A2 2 0 0 0 0 0" style="fill:#191919;fill-opacity:1;fill-rule:nonzero;stroke:none" transform="translate(18.035 60)"/><path d="M0 0a2 2 0 1 0 .001 4.001A2 2 0 0 0 0 0" style="fill:#191919;fill-opacity:1;fill-rule:nonzero;stroke:none" transform="translate(18 192)"/><path d="M0 0a2 2 0 1 0 .001 4.001A2 2 0 0 0 0 0" style="fill:#191919;fill-opacity:1;fill-rule:nonzero;stroke:none" transform="translate(238 60)"/><path d="M0 0a2 2 0 1 0 .001 4.001A2 2 0 0 0 0 0" style="fill:#191919;fill-opacity:1;fill-rule:nonzero;stroke:none" transform="translate(238 192)"/><path d="M0 0c-7.728 0-14-6.267-14-14s6.272-14 14-14 14 6.267 14 14S7.728 0 0 0m0-4c5.514 0 10-4.486 10-10S5.514-24 0-24s-10 4.486-10 10S-5.514-4 0-4" style="fill:#0d0d0d;fill-opacity:1;fill-rule:nonzero;stroke:none" transform="translate(82 156)"/><path d="M0 0c-7.728 0-14-6.267-14-14s6.272-14 14-14 14 6.267 14 14S7.728 0 0 0m0-4c5.514 0 10-4.486 10-10S5.514-24 0-24s-10 4.486-10 10S-5.514-4 0-4" style="fill:#0d0d0d;fill-opacity:1;fill-rule:nonzero;stroke:none" transform="translate(174 156)"/><path d="M0 0c0-2.212-2.086-4-4.667-4h-46.666C-53.914-4-56-2.212-56 0v16c0 2.212 2.086 4 4.667 4h46.666C-2.086 20 0 18.212 0 16Z" style="fill:gray;fill-opacity:1;fill-rule:nonzero;stroke:none" transform="translate(156 132)"/><path d="M0 0v-16c0-2.212 2.486-4 5.561-4h2.737C10.65-16.346 12-12.291 12-8S10.65.346 8.298 4H5.561C2.486 4 0 2.212 0 0" style="fill:#0d0d0d;fill-opacity:1;fill-rule:nonzero;stroke:none" transform="translate(100 148)"/><path d="m0 0-32-72h4L0-8h4v8z" style="fill:red;fill-opacity:1;fill-rule:nonzero;stroke:none" transform="translate(228 172)"/><path d="m0 0-28-64h4L0-8h4v8z" style="fill:#ff0;fill-opacity:1;fill-rule:nonzero;stroke:none" transform="translate(228 164)"/><path d="m0 0-24-56h4L0-8h4v8z" style="fill:#0f0;fill-opacity:1;fill-rule:nonzero;stroke:none" transform="translate(228 156)"/><path d="m0 0-20-48h4L0-8h4v8z" style="fill:#2c8bbf;fill-opacity:1;fill-rule:nonzero;stroke:none" transform="translate(228 148)"/></g></svg>