<svg xmlns="http://www.w3.org/2000/svg" xml:space="preserve" width="330.667" height="320"><defs><clipPath id="a" clipPathUnits="userSpaceOnUse"><path d="M0 256h256V0H0Z"/></clipPath><clipPath id="b" clipPathUnits="userSpaceOnUse"><path d="M4 248h248V8H4Z"/></clipPath><clipPath id="c" clipPathUnits="userSpaceOnUse"><path d="M0 256h256V0H0Z"/></clipPath></defs><g clip-path="url(#a)" transform="matrix(1.33333 0 0 -1.33333 -5.333 330.667)"><g clip-path="url(#b)" style="opacity:.5"><path d="M0 0c0 8.822-7.178 16-16 16h-216c-8.822 0-16-7.178-16-16v-200c0-3.597 1.193-6.921 3.204-9.596A8 8 0 0 1-240-224H-8a8 8 0 0 1 4.796 14.404A15.92 15.92 0 0 1 0-200z" style="fill:#fff;fill-opacity:1;fill-rule:nonzero;stroke:none" transform="translate(252 232)"/></g></g><path d="M0 0v4h-72V0l-80-8H80Z" style="fill:#ccc;fill-opacity:1;fill-rule:nonzero;stroke:none" transform="matrix(1.33333 0 0 -1.33333 213.333 298.667)"/><g clip-path="url(#c)" transform="matrix(1.33333 0 0 -1.33333 -5.333 330.667)"><path d="M0 0v200a8 8 0 0 0 8 8h200a8 8 0 0 0 8-8V0a8 8 0 0 0-8-8H8a8 8 0 0 0-8 8" style="fill:#d9d9d9;fill-opacity:1;fill-rule:nonzero;stroke:none" transform="translate(12 32)"/><path d="M0 0v200a8 8 0 0 0 8 8h200a8 8 0 0 0 8-8V0a8 8 0 0 0-8-8H8a8 8 0 0 0-8 8" style="fill:#ccc;fill-opacity:1;fill-rule:nonzero;stroke:none" transform="translate(20 32)"/><path d="M0 0a3 3 0 1 0 0 6 3 3 0 0 0 0-6" style="fill:#b3b3b3;fill-opacity:1;fill-rule:nonzero;stroke:none" transform="translate(24 210)"/><path d="M0 0v6c0 1.65 1.35 3 3 3s3-1.35 3-3V0c0-1.65-1.35-3-3-3S0-1.65 0 0" style="fill:#b3b3b3;fill-opacity:1;fill-rule:nonzero;stroke:none" transform="translate(21 223)"/><path d="M0 0h-12a8 8 0 0 1-8-8v-200a8 8 0 0 1 8-8H0Z" style="fill:#d9d9d9;fill-opacity:1;fill-rule:nonzero;stroke:none" transform="translate(44 240)"/><path d="M0 0v200a8 8 0 0 0 8 8h200a8 8 0 0 0 8-8V0a8 8 0 0 0-8-8H8a8 8 0 0 0-8 8" style="fill:#e6e6e6;fill-opacity:1;fill-rule:nonzero;stroke:none" transform="translate(28 32)"/><path d="M0 0a1 1 0 1 1 0-2 1 1 0 0 1 0 2" style="fill:#ccc;fill-opacity:1;fill-rule:nonzero;stroke:none" transform="translate(23 230)"/><path d="M23 227h1v-6h-1z" style="fill:#00f;fill-opacity:1;fill-rule:nonzero;stroke:none"/></g></svg>