<svg xmlns="http://www.w3.org/2000/svg" xml:space="preserve" width="224" height="330.667"><defs><clipPath id="a" clipPathUnits="userSpaceOnUse"><path d="M0 256h256V0H0Z"/></clipPath><clipPath id="b" clipPathUnits="userSpaceOnUse"><path d="M44 252h168V4H44Z"/></clipPath><clipPath id="c" clipPathUnits="userSpaceOnUse"><path d="M0 256h256V0H0Z"/></clipPath></defs><g clip-path="url(#a)" transform="matrix(1.33333 0 0 -1.33333 -58.667 336)"><g clip-path="url(#b)" style="opacity:.5"><path d="M17.873 240H-.569l-2.012-1.337C-4.52 237.376-8.57 236-14.127 236s-9.607 1.376-11.545 2.663L-27.685 240h-98.442c-6.617 0-12-5.383-12-12V4c0-6.617 5.383-12 12-12H0c3.571 0 6.932 1.574 9.219 4.317l16.946 20.336a16.03 16.03 0 0 1 3.708 10.243V228c0 6.617-5.383 12-12 12" style="fill:#fff;fill-opacity:1;fill-rule:nonzero;stroke:none" transform="translate(182.127 12)"/></g></g><path d="M204 204H52v32h152z" style="fill:#000;fill-opacity:1;fill-rule:nonzero;stroke:none" transform="matrix(1.33333 0 0 -1.33333 -58.667 336)"/><g clip-path="url(#c)" transform="matrix(1.33333 0 0 -1.33333 -58.667 336)"><path d="M0 0v-7a1 1 0 0 1 1-1h1a2 2 0 0 0 2-2v-4a2 2 0 0 0-2-2H1a1 1 0 0 1-1-1v-6a1 1 0 0 1 1-1h1a2 2 0 0 0 2-2v-4a2 2 0 0 0-2-2H1a1 1 0 0 1-1-1v-191a4 4 0 0 1 4-4h126.127a4 4 0 0 1 3.072 1.439l16.947 20.336a8 8 0 0 1 1.854 5.121V-33a1 1 0 0 1-1 1h-1a2 2 0 0 0-2 2v4a2 2 0 0 0 2 2h1a1 1 0 0 1 1 1v6a1 1 0 0 1-1 1h-1a2 2 0 0 0-2 2v4a2 2 0 0 0 2 2h1a1 1 0 0 1 1 1v7a4 4 0 0 1-4 4h-16.027c-3.65-2.425-9.436-4-15.973-4s-12.323 1.575-15.973 4H4a4 4 0 0 1-4-4" style="fill:#262626;fill-opacity:1;fill-rule:nonzero;stroke:none" transform="translate(52 240)"/><path d="M0 0a8 8 0 0 0-1.854-5.122l-16.947-20.335a4 4 0 0 0-3.073-1.439H-144v-4h126.126a4 4 0 0 1 3.073 1.439L2.146-9.121A8 8 0 0 1 4-4v.004a1.1 1.1 0 0 0 1.1 1.1H8v4H1.1A1.1 1.1 0 0 1 0 .004Z" style="fill:#000;fill-opacity:1;fill-rule:nonzero;stroke:none" transform="translate(196 46.897)"/><path d="M0 0c0-24.301-19.699-44-44-44S-88-24.301-88 0s19.7 44 44 44S0 24.3 0 0" style="fill:#fff;fill-opacity:1;fill-rule:nonzero;stroke:none" transform="translate(172 128)"/><path d="M0 0h-28v-9.05C-20.112-3.363-10.444 0 0 0" style="fill:#fff;fill-opacity:1;fill-rule:nonzero;stroke:none" transform="translate(128 176)"/><path d="M0 0h-28C-17.556 0-7.888-3.363 0-9.05Z" style="fill:#fff;fill-opacity:1;fill-rule:nonzero;stroke:none" transform="translate(156 176)"/><path d="M0 0c-5.523 0-10 4.478-10 10s4.477 10 10 10 10-4.478 10-10S5.523 0 0 0m-14 30a6 6 0 0 0 12 0 6 6 0 0 0-12 0M2 44c0 14.183 6.188 26.944 16 35.739V96h-36V-8h36V8.262C8.188 17.057 2 29.817 2 44" style="fill:#fff;fill-opacity:1;fill-rule:nonzero;stroke:none" transform="translate(78 84)"/><path d="M0 0c-5.522 0-10 4.478-10 10s4.478 10 10 10 10-4.478 10-10S5.522 0 0 0m-18 96V79.739C-8.188 70.944-2 58.183-2 44S-8.188 17.057-18 8.262V-8h36V96Z" style="fill:#fff;fill-opacity:1;fill-rule:nonzero;stroke:none" transform="translate(178 84)"/><path d="M0 0h28v9.05C20.112 3.363 10.444 0 0 0" style="fill:#fff;fill-opacity:1;fill-rule:nonzero;stroke:none" transform="translate(128 80)"/><path d="M0 0h28C17.556 0 7.888 3.363 0 9.05Z" style="fill:#fff;fill-opacity:1;fill-rule:nonzero;stroke:none" transform="translate(100 80)"/></g></svg>