<svg xmlns="http://www.w3.org/2000/svg" xml:space="preserve" width="330.57" height="255.565"><defs><clipPath id="a" clipPathUnits="userSpaceOnUse"><path d="M0 256h256V0H0Z"/></clipPath><clipPath id="b" clipPathUnits="userSpaceOnUse"><path d="M4.036 223.837h247.928V32.163H4.036Z"/></clipPath></defs><g clip-path="url(#a)" transform="matrix(1.33333 0 0 -1.33333 -5.382 298.45)"><g clip-path="url(#b)" style="opacity:.5"><path d="M0 0c-3.127 0-6.298-.057-9.422-.168l-73.442-2.624a39.9 39.9 0 0 1-26.688-11.522 39.9 39.9 0 0 1-11.839-26.549l-2.527-53.071a40 40 0 0 1 0-3.805l2.527-53.072a39.9 39.9 0 0 1 11.839-26.549 39.9 39.9 0 0 1 26.688-11.523l73.442-2.623c3.126-.111 6.296-.168 9.422-.168s6.297.057 9.423.168l73.441 2.623a39.9 39.9 0 0 1 26.689 11.523 39.9 39.9 0 0 1 11.839 26.549l2.526 53.072a40 40 0 0 1 0 3.805l-2.526 53.071a39.9 39.9 0 0 1-11.839 26.549A39.9 39.9 0 0 1 82.864-2.792L9.423-.168C6.298-.057 3.128 0 0 0" style="fill:#fff;fill-opacity:1;fill-rule:nonzero;stroke:none" transform="translate(128 223.837)"/></g><path d="m0 0-73.442-2.623a255 255 0 0 0-18.274 0L-165.158 0c-16.63.594-30.03 13.835-30.821 30.458l-2.528 53.07a32 32 0 0 0 0 3.045l2.528 53.071c.791 16.622 14.191 29.864 30.821 30.458l73.442 2.623c6.089.217 12.185.217 18.274 0L0 170.102c16.63-.594 30.029-13.836 30.821-30.458l2.528-53.071q.07-1.522 0-3.045l-2.528-53.07C30.029 13.835 16.63.594 0 0" style="fill:#d9d9d9;fill-opacity:1;fill-rule:nonzero;stroke:none" transform="translate(210.58 42.95)"/><path d="M0 0h-40v-7.286l10.863-.388a255 255 0 0 1 18.274 0L0-7.286Z" style="fill:#b3b3b3;fill-opacity:1;fill-rule:nonzero;stroke:none" transform="translate(148 47.837)"/><path d="m0 0-8 8 1.414 1.414 8-8z" style="fill:#b3b3b3;fill-opacity:1;fill-rule:nonzero;stroke:none" transform="translate(203.293 75.293)"/><path d="M0 0c0-9.941-8.059-18-18-18S-36-9.941-36 0s8.059 18 18 18S0 9.941 0 0" style="fill:#d9d9d9;fill-opacity:1;fill-rule:nonzero;stroke:none" transform="translate(236 70)"/><path d="M0 0c-11.028 0-20-8.972-20-20s8.972-20 20-20 20 8.972 20 20S11.028 0 0 0m0-2c9.941 0 18-8.059 18-18S9.941-38 0-38s-18 8.059-18 18S-9.941-2 0-2" style="fill:#bfbfbf;fill-opacity:1;fill-rule:nonzero;stroke:none" transform="translate(218 90)"/><path d="m0 0 3.777-33.995 1.989.221L2.021-.072z" style="fill:#b3b3b3;fill-opacity:1;fill-rule:nonzero;stroke:none" transform="translate(187.228 213.722)"/><path d="M0 0a32 32 0 0 1 4-1.11v8.385H0Z" style="fill:#0f0;fill-opacity:1;fill-rule:nonzero;stroke:none" transform="translate(36 44.562)"/><path d="m0 0 3.777 33.995-2.02-.072L-1.987.221Z" style="fill:#b3b3b3;fill-opacity:1;fill-rule:nonzero;stroke:none" transform="translate(64.994 179.727)"/><path d="M0 0c0-9.941-8.059-18-18-18S-36-9.941-36 0s8.059 18 18 18S0 9.941 0 0" style="fill:#d9d9d9;fill-opacity:1;fill-rule:nonzero;stroke:none" transform="translate(56 70)"/><path d="M0 0c-11.028 0-20-8.972-20-20s8.972-20 20-20 20 8.972 20 20S11.028 0 0 0m0-2c9.941 0 18-8.059 18-18S9.941-38 0-38s-18 8.059-18 18S-9.941-2 0-2" style="fill:#bfbfbf;fill-opacity:1;fill-rule:nonzero;stroke:none" transform="translate(38 90)"/><path d="M0 0c0-45.287-36.713-82-82-82s-82 36.713-82 82 36.713 82 82 82S0 45.287 0 0" style="fill:#d9d9d9;fill-opacity:1;fill-rule:nonzero;stroke:none" transform="translate(210 128)"/><path d="M0 0c-46.318 0-84-37.682-84-84s37.682-84 84-84 84 37.683 84 84S46.317 0 0 0m0-2c45.287 0 82-36.713 82-82s-36.713-82-82-82-82 36.713-82 82S-45.287-2 0-2" style="fill:#bfbfbf;fill-opacity:1;fill-rule:nonzero;stroke:none" transform="translate(128 212)"/><path d="M0 0a1 1 0 1 0-2 0 1 1 0 1 0 2 0" style="fill:#bfbfbf;fill-opacity:1;fill-rule:nonzero;stroke:none" transform="translate(183 86)"/><path d="M0 0a1 1 0 1 0-2 0 1 1 0 1 0 2 0" style="fill:#bfbfbf;fill-opacity:1;fill-rule:nonzero;stroke:none" transform="translate(187 90)"/><path d="M0 0a1 1 0 1 0-2 0 1 1 0 1 0 2 0" style="fill:#bfbfbf;fill-opacity:1;fill-rule:nonzero;stroke:none" transform="translate(191 94)"/><path d="M0 0a1 1 0 1 0-2 0 1 1 0 1 0 2 0" style="fill:#bfbfbf;fill-opacity:1;fill-rule:nonzero;stroke:none" transform="translate(194 99)"/><path d="M0 0a1 1 0 1 0-2 0 1 1 0 1 0 2 0" style="fill:#bfbfbf;fill-opacity:1;fill-rule:nonzero;stroke:none" transform="translate(187 82)"/><path d="M0 0a1 1 0 1 0-2 0 1 1 0 1 0 2 0" style="fill:#bfbfbf;fill-opacity:1;fill-rule:nonzero;stroke:none" transform="translate(191 86)"/><path d="M0 0a1 1 0 1 0-2 0 1 1 0 1 0 2 0" style="fill:#bfbfbf;fill-opacity:1;fill-rule:nonzero;stroke:none" transform="translate(195 90)"/><path d="M0 0a1 1 0 1 0-2 0 1 1 0 1 0 2 0" style="fill:#bfbfbf;fill-opacity:1;fill-rule:nonzero;stroke:none" transform="translate(198 95)"/></g></svg>