<svg xmlns="http://www.w3.org/2000/svg" xml:space="preserve" width="330.667" height="229.333"><defs><clipPath id="a" clipPathUnits="userSpaceOnUse"><path d="M0 256h256V0H0Z"/></clipPath><clipPath id="b" clipPathUnits="userSpaceOnUse"><path d="M4 214h248V42H4Z"/></clipPath></defs><g clip-path="url(#a)" transform="matrix(1.33333 0 0 -1.33333 -5.333 285.333)"><g clip-path="url(#b)" style="opacity:.5"><path d="M0 0h-240v-172H8V0z" style="fill:#fff;fill-opacity:1;fill-rule:nonzero;stroke:none" transform="translate(244 214)"/></g></g><path d="M244 50H12v156h232z" style="fill:#d9d9d9;fill-opacity:1;fill-rule:nonzero;stroke:none" transform="matrix(1.33333 0 0 -1.33333 -5.333 285.333)"/><path d="M24 50h-8v156h8z" style="fill:#e6e6e6;fill-opacity:1;fill-rule:nonzero;stroke:none" transform="matrix(1.33333 0 0 -1.33333 -5.333 285.333)"/><path d="M16 50h-4v156h4z" style="fill:#f2f2f2;fill-opacity:1;fill-rule:nonzero;stroke:none" transform="matrix(1.33333 0 0 -1.33333 -5.333 285.333)"/><path d="M240 50h-16v156h16z" style="fill:#ccc;fill-opacity:1;fill-rule:nonzero;stroke:none" transform="matrix(1.33333 0 0 -1.33333 -5.333 285.333)"/></svg>