<svg xmlns="http://www.w3.org/2000/svg" xml:space="preserve" width="330.667" height="330.667"><defs><clipPath id="a" clipPathUnits="userSpaceOnUse"><path d="M0 256h256V0H0Z"/></clipPath><clipPath id="b" clipPathUnits="userSpaceOnUse"><path d="M4 252h248V4H4Z"/></clipPath></defs><g clip-path="url(#a)" transform="matrix(1.33333 0 0 -1.33333 -5.333 336)"><g clip-path="url(#b)" style="opacity:.5"><path d="M0 0v240a4 4 0 0 0 4 4h240a4 4 0 0 0 4-4V0a4 4 0 0 0-4-4H4a4 4 0 0 0-4 4" style="fill:#fff;fill-opacity:1;fill-rule:nonzero;stroke:none" transform="translate(4 8)"/></g><path d="M0 0v24h140V4a4 4 0 0 0-4-4z" style="fill:gray;fill-opacity:1;fill-rule:nonzero;stroke:none" transform="translate(104 12)"/><path d="M0 0a6 6 0 0 0 0 12A6 6 0 0 0 0 0" style="fill:#b3b3b3;fill-opacity:1;fill-rule:nonzero;stroke:none" transform="translate(182 16)"/><path d="M0 0a6 6 0 0 0 0 12A6 6 0 0 0 0 0" style="fill:#b3b3b3;fill-opacity:1;fill-rule:nonzero;stroke:none" transform="translate(234 16)"/><path d="M120 32h124v-2H120Z" style="fill:#999;fill-opacity:1;fill-rule:nonzero;stroke:none"/><path d="M0 0h116v208a4 4 0 0 1-4 4h-224a4 4 0 0 1-4-4V-16a4 4 0 0 1 4-4h96C-16-.001-.001 0 0 0" style="fill:#333;fill-opacity:1;fill-rule:nonzero;stroke:none" transform="translate(128 32)"/><path d="M12 208h232V60H12Z" style="fill:#404040;fill-opacity:1;fill-rule:nonzero;stroke:none"/><path d="m0 0 39.984 48h-24v48a8 8 0 0 1-8 8h-16a8 8 0 0 1-8-8V48h-24z" style="fill:#fff;fill-opacity:1;fill-rule:nonzero;stroke:none" transform="translate(128.016 92)"/><path d="M0 0h72a4 4 0 0 1 0 8H0a4 4 0 0 1 0-8" style="fill:#fff;fill-opacity:1;fill-rule:nonzero;stroke:none" transform="translate(92 76)"/><path d="M172 104h-24v8h24z" style="fill:#fff;fill-opacity:1;fill-rule:nonzero;stroke:none"/><path d="M164 96h-8v24h8z" style="fill:#fff;fill-opacity:1;fill-rule:nonzero;stroke:none"/></g></svg>