<?xml version="1.0" encoding="UTF-8" standalone="no"?>
<svg
   xmlns:dc="http://purl.org/dc/elements/1.1/"
   xmlns:cc="http://creativecommons.org/ns#"
   xmlns:rdf="http://www.w3.org/1999/02/22-rdf-syntax-ns#"
   xmlns:svg="http://www.w3.org/2000/svg"
   xmlns="http://www.w3.org/2000/svg"
   viewBox="0 0 234.66665 330.66665"
   height="330.66666"
   width="234.66666"
   xml:space="preserve"
   id="svg2"
   version="1.1"><metadata
     id="metadata8"><rdf:RDF><cc:Work
         rdf:about=""><dc:format>image/svg+xml</dc:format><dc:type
           rdf:resource="http://purl.org/dc/dcmitype/StillImage" /></cc:Work></rdf:RDF></metadata><defs
     id="defs6"><clipPath
       id="clipPath18"
       clipPathUnits="userSpaceOnUse"><path
         id="path16"
         d="M 0,256 H 256 V 0 H 0 Z" /></clipPath><clipPath
       id="clipPath26"
       clipPathUnits="userSpaceOnUse"><path
         id="path24"
         d="M 40,252 H 216 V 4 H 40 Z" /></clipPath></defs><g
     transform="matrix(1.3333333,0,0,-1.3333333,-53.333332,335.99999)"
     id="g10"><g
       id="g12"><g
         clip-path="url(#clipPath18)"
         id="g14"><g
           id="g20"><g
             id="g22" /><g
             id="g34"><g
               style="opacity:0.5"
               id="g32"
               clip-path="url(#clipPath26)"><g
                 id="g30"
                 transform="translate(204,252)"><path
                   id="path28"
                   style="fill:#ffffff;fill-opacity:1;fill-rule:nonzero;stroke:none"
                   d="m 0,0 h -4 -4 -4 -4 -96 -4 -24 -4 -8 c -6.617,0 -12,-5.383 -12,-12 v -8 -216 c 0,-6.617 5.383,-12 12,-12 H 0 c 6.617,0 12,5.383 12,12 v 216 8 C 12,-5.383 6.617,0 0,0" /></g></g></g></g><g
           transform="translate(204,12)"
           id="g36"><path
             id="path38"
             style="fill:#8c8c8c;fill-opacity:1;fill-rule:nonzero;stroke:none"
             d="m 0,0 h -152 c -2.209,0 -4,1.791 -4,4 V 220 H 4 V 4 C 4,1.791 2.209,0 0,0" /></g><path
           id="path40"
           style="fill:#0e6654;fill-opacity:1;fill-rule:nonzero;stroke:none"
           d="M 200,232 H 60 v 12 h 140 z" /><g
           transform="translate(68,232)"
           id="g42"><path
             id="path44"
             style="fill:#404040;fill-opacity:1;fill-rule:nonzero;stroke:none"
             d="m 0,0 h -20 v 8 c 0,2.209 1.791,4 4,4 h 12 z" /></g><g
           transform="translate(192,232)"
           id="g46"><path
             id="path48"
             style="fill:#404040;fill-opacity:1;fill-rule:nonzero;stroke:none"
             d="m 0,0 h -108 l 4,12 H 0 Z" /></g><g
           transform="translate(208,232)"
           id="g50"><path
             id="path52"
             style="fill:#404040;fill-opacity:1;fill-rule:nonzero;stroke:none"
             d="m 0,0 h -12 v 12 h 8 c 2.209,0 4,-1.791 4,-4 z" /></g><path
           id="path54"
           style="fill:#333333;fill-opacity:1;fill-rule:nonzero;stroke:none"
           d="M 188,232 H 92 v 12 h 96 z" /><g
           transform="translate(60,224)"
           id="g56"><path
             id="path58"
             style="fill:#999999;fill-opacity:1;fill-rule:nonzero;stroke:none"
             d="m 0,0 c 0,-2.209 -1.791,-4 -4,-4 -2.209,0 -4,1.791 -4,4 0,2.209 1.791,4 4,4 2.209,0 4,-1.791 4,-4" /></g><g
           transform="translate(60,108)"
           id="g60"><path
             id="path62"
             style="fill:#999999;fill-opacity:1;fill-rule:nonzero;stroke:none"
             d="m 0,0 c 0,-2.209 -1.791,-4 -4,-4 -2.209,0 -4,1.791 -4,4 0,2.209 1.791,4 4,4 2.209,0 4,-1.791 4,-4" /></g><g
           transform="translate(60,20)"
           id="g64"><path
             id="path66"
             style="fill:#999999;fill-opacity:1;fill-rule:nonzero;stroke:none"
             d="m 0,0 c 0,-2.209 -1.791,-4 -4,-4 -2.209,0 -4,1.791 -4,4 0,2.209 1.791,4 4,4 2.209,0 4,-1.791 4,-4" /></g><g
           transform="translate(204,224)"
           id="g68"><path
             id="path70"
             style="fill:#999999;fill-opacity:1;fill-rule:nonzero;stroke:none"
             d="m 0,0 c 0,-2.209 -1.791,-4 -4,-4 -2.209,0 -4,1.791 -4,4 0,2.209 1.791,4 4,4 2.209,0 4,-1.791 4,-4" /></g><g
           transform="translate(204,112)"
           id="g72"><path
             id="path74"
             style="fill:#999999;fill-opacity:1;fill-rule:nonzero;stroke:none"
             d="m 0,0 c 0,-2.209 -1.791,-4 -4,-4 -2.209,0 -4,1.791 -4,4 0,2.209 1.791,4 4,4 2.209,0 4,-1.791 4,-4" /></g><g
           transform="translate(204,20)"
           id="g76"><path
             id="path78"
             style="fill:#999999;fill-opacity:1;fill-rule:nonzero;stroke:none"
             d="m 0,0 c 0,-2.209 -1.791,-4 -4,-4 -2.209,0 -4,1.791 -4,4 0,2.209 1.791,4 4,4 2.209,0 4,-1.791 4,-4" /></g><g
           transform="translate(52,210.3433)"
           id="g80"><path
             id="path82"
             style="fill:#a6a6a6;fill-opacity:1;fill-rule:nonzero;stroke:none"
             d="m 0,0 v -69.694 c 0,-0.43 0.069,-0.857 0.205,-1.265 l 7.652,-22.955 c 0.087,-0.261 0.198,-0.507 0.337,-0.746 1.049,-1.793 5.586,-10.732 -5.519,-14.864 C 1.083,-110.116 0,-111.599 0,-113.296 v -66.371 c 0,-1.565 0.912,-2.974 2.331,-3.633 2.896,-1.346 7.642,-4.109 9.175,-8.288 0.595,-1.623 2.07,-2.755 3.799,-2.755 h 119.038 c 1.061,0 2.079,0.422 2.829,1.172 l 13.656,13.656 c 0.75,0.75 1.172,1.767 1.172,2.829 v 63.666 c 0,1.565 -0.912,2.975 -2.331,3.634 -3.105,1.442 -8.336,4.513 -9.454,9.215 -0.241,1.011 -0.064,2.081 0.472,2.972 l 10.743,17.906 c 0.373,0.621 0.57,1.333 0.57,2.058 v 57.488 c 0,0.909 -0.31,1.79 -0.877,2.499 L 137.201,0.156 c -0.76,0.948 -1.908,1.501 -3.124,1.501 h -9.014 c -0.697,0 -1.381,0.181 -1.985,0.527 L 96.922,17.13 c -0.604,0.345 -1.288,0.527 -1.984,0.527 H 17.657 c -1.061,0 -2.078,-0.422 -2.828,-1.172 L 1.171,2.828 C 0.421,2.078 0,1.061 0,0" /></g><g
           transform="translate(204,198)"
           id="g84"><path
             id="path86"
             style="fill:#999999;fill-opacity:1;fill-rule:nonzero;stroke:none"
             d="m 0,0 c 0,-5.523 -4.478,-10 -10,-10 -5.522,0 -10,4.477 -10,10 0,5.523 4.478,10 10,10 C -4.478,10 0,5.523 0,0" /></g><g
           transform="translate(200,56)"
           id="g88"><path
             id="path90"
             style="fill:#999999;fill-opacity:1;fill-rule:nonzero;stroke:none"
             d="m 0,0 c 0,-6.627 -5.373,-12 -12,-12 -6.627,0 -12,5.373 -12,12 0,6.627 5.373,12 12,12 C -5.373,12 0,6.627 0,0" /></g><g
           transform="translate(76,212)"
           id="g92"><path
             id="path94"
             style="fill:#999999;fill-opacity:1;fill-rule:nonzero;stroke:none"
             d="m 0,0 c 0,-4.418 -3.582,-8 -8,-8 -4.418,0 -8,3.582 -8,8 0,4.418 3.582,8 8,8 4.418,0 8,-3.582 8,-8" /></g><g
           transform="translate(142.835,216)"
           id="g96"><path
             id="path98"
             style="fill:#eceaed;fill-opacity:1;fill-rule:nonzero;stroke:none"
             d="m 0,0 h -74.835 c -2.209,0 -4,-1.791 -4,-4 v -155.056 c 0,-0.621 0.145,-1.233 0.422,-1.789 l 3.156,-6.31 c 0.278,-0.556 0.422,-1.168 0.422,-1.789 V -184 c 0,-2.209 1.791,-4 4,-4 h 112 c 2.209,0 4,1.791 4,4 v 153.804 c 0,1.368 -0.698,2.641 -1.852,3.375 L 2.147,-0.625 C 1.506,-0.217 0.761,0 0,0" /></g><g
           transform="translate(124.0161,76)"
           id="g100"><path
             id="path102"
             style="fill:#6700cc;fill-opacity:1;fill-rule:nonzero;stroke:none"
             d="m 0,0 39.984,48 h -24 v 48 c 0,4.418 -3.582,8 -8,8 h -16 c -4.419,0 -8,-3.582 -8,-8 V 48 h -24 z" /></g><g
           transform="translate(88,60)"
           id="g104"><path
             id="path106"
             style="fill:#6700cc;fill-opacity:1;fill-rule:nonzero;stroke:none"
             d="m 0,0 h 72 c 2.209,0 4,1.791 4,4 0,2.209 -1.791,4 -4,4 H 0 C -2.209,8 -4,6.209 -4,4 -4,1.791 -2.209,0 0,0" /></g></g></g></g></svg>