<svg xmlns="http://www.w3.org/2000/svg" xml:space="preserve" width="312.006" height="266.555"><defs><clipPath id="a" clipPathUnits="userSpaceOnUse"><path d="M0 256h256V0H0Z"/></clipPath><clipPath id="b" clipPathUnits="userSpaceOnUse"><path d="M16 228h234.005V28.083H16Z"/></clipPath><clipPath id="c" clipPathUnits="userSpaceOnUse"><path d="M0 256h256V0H0Z"/></clipPath></defs><g clip-path="url(#a)" transform="matrix(1.33333 0 0 -1.33333 -21.334 304)"><g clip-path="url(#b)" style="opacity:.5"><path d="M0 0h-112.643l-2.33-3.839L-170.8-95.8l-2.524-4.158 2.524-4.158 55.827-91.962 2.33-3.839H0l2.33 3.839 55.827 91.962 2.524 4.158-2.524 4.158L2.33-3.839Z" style="fill:#fff;fill-opacity:1;fill-rule:nonzero;stroke:none" transform="translate(189.324 228)"/></g></g><path d="M0 0h-103.678l-55.827-91.962 55.827-91.961H0l55.827 91.961z" style="fill:#737373;fill-opacity:1;fill-rule:nonzero;stroke:none" transform="matrix(1.33333 0 0 -1.33333 225.122 10.662)"/><g clip-path="url(#c)" transform="matrix(1.33333 0 0 -1.33333 -21.334 304)"><path d="M0 0c-3.087 0-5.951-.435-8.72-.854l-.201-.031-2.93-.445-.428-2.931-1.309-8.952a48.5 48.5 0 0 1-9.844-4.104l-7.334 5.451-2.382 1.77-2.385-1.766a59.9 59.9 0 0 1-12.611-12.614l-1.755-2.383 1.765-2.375 5.453-7.337a48.5 48.5 0 0 1-4.1-9.841l-8.957-1.308-2.932-.428-.445-2.931-.031-.201C-59.565-54.049-60-56.912-60-60s.435-5.951.854-8.721l.031-.2.445-2.931 2.932-.427 8.957-1.309a48.3 48.3 0 0 1 4.098-9.844l-5.451-7.334-1.767-2.378 1.759-2.383a59.9 59.9 0 0 1 12.613-12.614l2.384-1.76 2.379 1.767 7.337 5.453a48.8 48.8 0 0 1 9.841-4.106l1.309-8.951.428-2.933 2.93-.444.2-.031C-5.952-119.565-3.088-120 0-120s5.952.435 8.722.854l.199.031 2.93.444.428 2.933 1.309 8.951c3.417 1 6.712 2.374 9.844 4.104l7.334-5.451 2.382-1.77 2.385 1.766a59.9 59.9 0 0 1 12.612 12.615l1.753 2.382-1.764 2.375-5.453 7.337a48.5 48.5 0 0 1 4.1 9.841l8.957 1.309 2.933.427.444 2.931.031.2c.419 2.77.854 5.633.854 8.721s-.435 5.952-.854 8.721l-.031.2-.444 2.931-2.933.428-8.958 1.308a48.2 48.2 0 0 1-4.097 9.844l5.451 7.334 1.766 2.378-1.758 2.383a59.9 59.9 0 0 1-12.613 12.614l-2.384 1.761-2.379-1.768-7.337-5.453a48.8 48.8 0 0 1-9.841 4.106l-1.309 8.952-.428 2.931-2.93.445-.2.031C5.951-.435 3.088 0 0 0" style="fill:#999;fill-opacity:1;fill-rule:nonzero;stroke:none" transform="translate(128 188)"/><path d="M0 0c2.856 0 5.589-.426 8.321-.84l1.692-11.57c4.939-1.142 9.52-3.102 13.674-5.7l9.465 7.033a55.9 55.9 0 0 0 11.771-11.771l-7.033-9.464a44.3 44.3 0 0 0 5.689-13.675l11.581-1.691c.414-2.733.84-5.466.84-8.322s-.426-5.589-.84-8.321l-11.581-1.692c-1.131-4.939-3.091-9.52-5.689-13.675l7.033-9.464a55.8 55.8 0 0 0-11.771-11.771l-9.464 7.033a44.7 44.7 0 0 0-13.675-5.701L8.321-111.16C5.589-111.574 2.856-112 0-112s-5.589.426-8.322.84l-1.691 11.569c-4.939 1.143-9.52 3.103-13.675 5.701l-9.464-7.033a55.8 55.8 0 0 0-11.771 11.771l7.033 9.464a44.3 44.3 0 0 0-5.689 13.675l-11.581 1.692C-55.574-61.589-56-58.856-56-56s.426 5.589.84 8.322l11.581 1.691c1.131 4.939 3.091 9.52 5.689 13.675l-7.033 9.464a55.9 55.9 0 0 0 11.771 11.771l9.464-7.033a44.6 44.6 0 0 0 13.675 5.7L-8.322-.84C-5.589-.426-2.856 0 0 0" style="fill:#bfbfbf;fill-opacity:1;fill-rule:nonzero;stroke:none" transform="translate(128 184)"/><path d="M0 0c-22.056 0-40-17.944-40-40s17.944-40 40-40 40 17.944 40 40S22.056 0 0 0" style="fill:gray;fill-opacity:1;fill-rule:nonzero;stroke:none" transform="translate(128 168)"/><path d="M0 0c-17.645 0-32-14.355-32-32s14.355-32 32-32 32 14.355 32 32S17.645 0 0 0" style="fill:#999;fill-opacity:1;fill-rule:nonzero;stroke:none" transform="translate(128 160)"/><path d="M0 0c15.439 0 28-12.561 28-28S15.439-56 0-56s-28 12.561-28 28S-15.439 0 0 0" style="fill:#bfbfbf;fill-opacity:1;fill-rule:nonzero;stroke:none" transform="translate(128 156)"/><path d="M0 0c-6.617 0-12-5.383-12-12s5.383-12 12-12 12 5.383 12 12S6.617 0 0 0" style="fill:#999;fill-opacity:1;fill-rule:nonzero;stroke:none" transform="translate(128 140)"/><path d="M0 0c4.416 0 8-3.584 8-8s-3.584-8-8-8-8 3.584-8 8 3.584 8 8 8" style="fill:#737373;fill-opacity:1;fill-rule:nonzero;stroke:none" transform="translate(128 136)"/></g></svg>