<?xml version="1.0" encoding="iso-8859-1"?>
<!-- Generator: Adobe Illustrator 27.8.1, SVG Export Plug-In . SVG Version: 6.00 Build 0)  -->
<svg version="1.1" id="Layer_1" xmlns="http://www.w3.org/2000/svg" xmlns:xlink="http://www.w3.org/1999/xlink" x="0px" y="0px"
	 viewBox="0 0 256 256" style="enable-background:new 0 0 256 256;" xml:space="preserve">
<path style="opacity:0.5;fill:#FFFFFF;" d="M215.079,152.274l-7.296-13.863c-1.084-2.06-2.708-3.713-4.646-4.825L188,31.41V24
	c0-8.822-7.178-16-16-16h-6.005c-1.826-2.428-4.73-4-7.995-4h-56c-3.265,0-6.169,1.572-7.995,4H88c-8.822,0-16,7.178-16,16v7.266
	L53.074,133.468c-2.031,1.111-3.733,2.809-4.857,4.943l-7.296,13.863L40,154.023V156v4c0,6.617,5.383,12,12,12h3.063
	c1.33,1.484,3.022,2.636,4.937,3.315V244v8h8h120h8v-8v-68.201c2.436-0.496,4.552-1.881,5.995-3.799H204c6.617,0,12-5.383,12-12v-4
	v-1.977L215.079,152.274z"/>
<path style="fill:#B3B3B3;" d="M158,20h-56c-1.105,0-2-0.895-2-2v-4c0-1.105,0.895-2,2-2h56c1.105,0,2,0.895,2,2v4
	C160,19.105,159.105,20,158,20z"/>
<path style="fill:#BFBFBF;" d="M60,140L80,32v-8c0-4.418,3.582-8,8-8h84c4.418,0,8,3.582,8,8v8l16,108H60z"/>
<rect x="68" y="148" style="fill:#CCCCCC;" width="120" height="96"/>
<path style="fill:#404040;" d="M183.589,131.5H72.612c-2.434,0-4.304-2.156-3.96-4.566l10.857-76
	c0.282-1.971,1.969-3.434,3.96-3.434h92.893c2.062,0,3.787,1.568,3.982,3.621l7.226,76C187.794,129.469,185.948,131.5,183.589,131.5
	z"/>
<path style="fill:#B3B3B3;" d="M123.547,173.496c1.352,0,2.453,0.978,2.453,2.179v55.641c0,1.202-1.1,2.179-2.453,2.179H76.453
	c-1.352,0-2.453-0.978-2.453-2.179v-55.641c0-1.202,1.1-2.179,2.453-2.179H123.547 M123.547,171.496H76.453
	c-2.455,0-4.453,1.875-4.453,4.179v55.641c0,2.304,1.998,4.179,4.453,4.179h47.094c2.455,0,4.453-1.875,4.453-4.179v-55.641
	C128,173.371,126.002,171.496,123.547,171.496L123.547,171.496z"/>
<g>
	<path style="fill:#B3B3B3;" d="M177.82,173.5c2.014,0,3.652,1.775,3.652,3.957v20.085c0,2.182-1.638,3.957-3.652,3.957h-24.7
		c-2.014,0-3.652-1.775-3.652-3.957v-20.085c0-2.182,1.638-3.957,3.652-3.957H177.82 M177.82,171.5h-24.7
		c-3.115,0-5.652,2.674-5.652,5.957v20.085c0,3.284,2.536,5.957,5.652,5.957h24.7c3.115,0,5.652-2.674,5.652-5.957v-20.085
		C183.471,174.174,180.935,171.5,177.82,171.5L177.82,171.5z"/>
</g>
<path style="fill:#B3B3B3;" d="M178.083,209.5c2.059,0,3.735,1.386,3.735,3.089v21.823c0,1.703-1.675,3.089-3.735,3.089h-36.531
	c-2.059,0-3.735-1.386-3.735-3.089v-21.823c0-1.703,1.675-3.089,3.735-3.089H178.083 M178.083,207.5h-36.531
	c-3.161,0-5.735,2.284-5.735,5.089v21.823c0,2.805,2.574,5.089,5.735,5.089h36.531c3.161,0,5.735-2.284,5.735-5.089v-21.823
	C183.818,209.784,181.244,207.5,178.083,207.5L178.083,207.5z"/>
<g>
	<path style="fill:#999999;" d="M102,44H90c-1.105,0-2-0.895-2-2v-4c0-1.105,0.895-2,2-2h12c1.105,0,2,0.895,2,2v4
		C104,43.105,103.105,44,102,44z"/>
	<path style="fill:#999999;" d="M170,44h-12c-1.105,0-2-0.895-2-2v-4c0-1.105,0.895-2,2-2h12c1.105,0,2,0.895,2,2v4
		C172,43.105,171.105,44,170,44z"/>
	<path style="fill:#B62971;" d="M174,32H86c-1.105,0-2-0.895-2-2v-8c0-1.105,0.895-2,2-2h88c1.105,0,2,0.895,2,2v8
		C176,31.105,175.105,32,174,32z"/>
</g>
<path style="fill:#999999;" d="M48,156l7.296-13.863c0.692-1.314,2.055-2.137,3.54-2.137h138.328c1.485,0,2.848,0.823,3.54,2.137
	L208,156H48z"/>
<path style="fill:#262626;" d="M195.6,154H60.4c-3.267,0-5.392-2.738-3.931-5.065l3.18-5.065c1.489-2.371,4.532-3.87,7.862-3.87
	h120.978c3.329,0,6.373,1.498,7.862,3.87l3.18,5.065C200.991,151.262,198.867,154,195.6,154z"/>
<rect x="168" y="191.5" style="fill:#262626;" width="4" height="4"/>
<circle style="fill:#262626;" cx="154" cy="181.5" r="2"/>
<circle style="fill:#262626;" cx="98" cy="178" r="2"/>
<circle style="fill:#262626;" cx="142" cy="221.5" r="2"/>
<path style="fill:#B3B3B3;" d="M194,168H64c-2.209,0-4-1.791-4-4v-4h136v6C196,167.105,195.105,168,194,168z"/>
<path style="fill:#BFBFBF;" d="M204,164H52c-2.209,0-4-1.791-4-4v-4h160v4C208,162.209,206.209,164,204,164z"/>
<polygon style="fill:#262626;" points="182.828,119.5 177.503,63.5 81.755,63.5 73.755,119.5 "/>
<g>
	<ellipse style="fill:#6700CC;" cx="183" cy="144" rx="3" ry="2"/>
	<ellipse style="fill:#6700CC;" cx="179" cy="150" rx="3" ry="2"/>
	<ellipse style="fill:#6700CC;" cx="175" cy="144" rx="3" ry="2"/>
	<ellipse style="fill:#6700CC;" cx="171" cy="150" rx="3" ry="2"/>
	<ellipse style="fill:#6700CC;" cx="167" cy="144" rx="3" ry="2"/>
	<g>
		<ellipse style="fill:#EAC500;" cx="130" cy="146" rx="3" ry="2"/>
		<ellipse style="fill:#EAC500;" cx="122" cy="146" rx="3" ry="2"/>
	</g>
	<ellipse style="fill:#6700CC;" cx="163" cy="150" rx="3" ry="2"/>
	<g>
		<ellipse style="fill:#ED4792;" cx="107" cy="144" rx="3" ry="2"/>
		<ellipse style="fill:#ED4792;" cx="103" cy="150" rx="3" ry="2"/>
		<ellipse style="fill:#ED4792;" cx="99" cy="144" rx="3" ry="2"/>
		<ellipse style="fill:#ED4792;" cx="95" cy="150" rx="3" ry="2"/>
		<ellipse style="fill:#ED4792;" cx="91" cy="144" rx="3" ry="2"/>
		<ellipse style="fill:#ED4792;" cx="87" cy="150" rx="3" ry="2"/>
	</g>
	<ellipse style="fill:#1A1A1A;" cx="152" cy="147" rx="6" ry="3"/>
	<ellipse style="fill:#1A1A1A;" cx="76" cy="147" rx="6" ry="3"/>
	<path style="fill:#CCCCCC;" d="M76,148L76,148c-1.1,0-2-0.9-2-2v-4c0-1.1,0.9-2,2-2l0,0c1.1,0,2,0.9,2,2v4
		C78,147.1,77.1,148,76,148z"/>
	<circle style="fill:#ED4792;" cx="76" cy="140" r="4"/>
	<path style="fill:#CCCCCC;" d="M152,148L152,148c-1.1,0-2-0.9-2-2v-4c0-1.1,0.9-2,2-2l0,0c1.1,0,2,0.9,2,2v4
		C154,147.1,153.1,148,152,148z"/>
	<circle style="fill:#6700CC;" cx="152" cy="140" r="4"/>
</g>
</svg>
