<svg xmlns="http://www.w3.org/2000/svg" xml:space="preserve" width="330.667" height="234.667"><defs><clipPath id="a" clipPathUnits="userSpaceOnUse"><path d="M0 256h256V0H0Z"/></clipPath><clipPath id="b" clipPathUnits="userSpaceOnUse"><path d="M4 216h248V40H4Z"/></clipPath></defs><g clip-path="url(#a)" transform="matrix(1.33333 0 0 -1.33333 -5.333 288)"><g clip-path="url(#b)" style="opacity:.5"><path d="M0 0h-228c-5.514 0-10-4.486-10-10v-156c0-5.514 4.486-10 10-10H0c5.514 0 10 4.486 10 10v156C10-4.486 5.514 0 0 0" style="fill:#fff;fill-opacity:1;fill-rule:nonzero;stroke:none" transform="translate(242 216)"/></g><path d="M0 0h-228a2 2 0 0 0-2 2v156a2 2 0 0 0 2 2H0a2 2 0 0 0 2-2V2a2 2 0 0 0-2-2" style="fill:#191919;fill-opacity:1;fill-rule:nonzero;stroke:none" transform="translate(242 48)"/><path d="M0 0h-216a4 4 0 0 0-4 4v40a4 4 0 0 0 4 4H0a4 4 0 0 0 4-4V4a4 4 0 0 0-4-4" style="fill:#262626;fill-opacity:1;fill-rule:nonzero;stroke:none" transform="translate(236 52)"/><path d="M236 104H20v100h216z" style="fill:#4c4c4c;fill-opacity:1;fill-rule:nonzero;stroke:none"/><path d="M236 108H20v20h216z" style="fill:#4b5da7;fill-opacity:1;fill-rule:nonzero;stroke:none"/></g></svg>