<svg xmlns="http://www.w3.org/2000/svg" xml:space="preserve" viewBox="0 0 256 256"><path d="M244.625 83.402C240.054 78.629 233.898 76 227.29 76H28.711c-6.609 0-12.765 2.629-17.335 7.402s-6.929 11.038-6.642 17.64l.589 12.824.015.326 1.795 39.092C7.82 168.265 20.106 180 35.103 180h185.794c14.997 0 27.283-11.735 27.97-26.716l2.398-52.222c.289-6.622-2.07-12.887-6.64-17.66" style="opacity:.5;fill:#fff"/><path d="M220.897 172H35.103c-10.689 0-19.489-8.405-19.979-19.083l-2.398-52.222C12.33 91.594 19.601 84 28.711 84h198.578c9.109 0 16.381 7.594 15.985 16.695l-2.398 52.222c-.49 10.678-9.29 19.083-19.979 19.083" style="fill:#333"/><path d="M195 168H61a1 1 0 0 1-1-1V89a1 1 0 0 1 1-1h134a1 1 0 0 1 1 1v78a1 1 0 0 1-1 1" style="fill:#1a1a1a"/><path d="M68 92h120v72H68z" style="fill:#4d4d4d"/><path d="M220 116a2 2 0 0 1 2 2v20a2 2 0 0 1-2 2h-20a2 2 0 0 1-2-2v-20a2 2 0 0 1 2-2zm0-1h-20c-1.654 0-3 1.346-3 3v20c0 1.654 1.346 3 3 3h20c1.654 0 3-1.346 3-3v-20c0-1.654-1.346-3-3-3m-164 1a2 2 0 0 1 2 2v20a2 2 0 0 1-2 2H36a2 2 0 0 1-2-2v-20a2 2 0 0 1 2-2zm0-1H36c-1.654 0-3 1.346-3 3v20c0 1.654 1.346 3 3 3h20c1.654 0 3-1.346 3-3v-20c0-1.654-1.346-3-3-3m0 31a2 2 0 1 1 0 4h-8a2 2 0 1 1 0-4zm0-1h-8c-1.654 0-3 1.346-3 3s1.346 3 3 3h8c1.654 0 3-1.346 3-3s-1.346-3-3-3m152 1a2 2 0 1 1 0 4h-8a2 2 0 1 1 0-4zm0-1h-8c-1.654 0-3 1.346-3 3s1.346 3 3 3h8c1.654 0 3-1.346 3-3s-1.346-3-3-3" style="fill:#262626"/><path d="M46.5 155h-2a.5.5 0 0 1 0-1h2a.5.5 0 0 1 0 1m4 0h-2a.5.5 0 0 1 0-1h2a.5.5 0 0 1 0 1m4 0h-2a.5.5 0 0 1 0-1h2a.5.5 0 0 1 0 1m4 0h-2a.5.5 0 0 1 0-1h2a.5.5 0 0 1 0 1m-8 7h-2a.5.5 0 0 1 0-1h2a.5.5 0 0 1 0 1m4 0h-2a.5.5 0 0 1 0-1h2a.5.5 0 0 1 0 1m4 0h-2a.5.5 0 0 1 0-1h2a.5.5 0 0 1 0 1m-5.5-3.5h-2a.5.5 0 0 1 0-1h2a.5.5 0 0 1 0 1m-4 0h-2a.5.5 0 0 1 0-1h2a.5.5 0 0 1 0 1m9.357 0h-3.214c-.355 0-.643-.224-.643-.5s.288-.5.643-.5h3.214c.355 0 .643.224.643.5s-.288.5-.643.5M209.5 155h2a.5.5 0 0 0 0-1h-2a.5.5 0 0 0 0 1m-4 0h2a.5.5 0 0 0 0-1h-2a.5.5 0 0 0 0 1m-4 0h2a.5.5 0 0 0 0-1h-2a.5.5 0 0 0 0 1m-4 0h2a.5.5 0 0 0 0-1h-2a.5.5 0 0 0 0 1m8 7h2a.5.5 0 0 0 0-1h-2a.5.5 0 0 0 0 1m-4 0h2a.5.5 0 0 0 0-1h-2a.5.5 0 0 0 0 1m-4 0h2a.5.5 0 0 0 0-1h-2a.5.5 0 0 0 0 1m5.5-3.5h2a.5.5 0 0 0 0-1h-2a.5.5 0 0 0 0 1m4 0h2a.5.5 0 0 0 0-1h-2a.5.5 0 0 0 0 1m-9.357 0h3.214c.355 0 .643-.224.643-.5s-.288-.5-.643-.5h-3.214c-.355 0-.643.224-.643.5s.288.5.643.5" style="fill:#1a1a1a"/><path d="m242.64 114.5.046-1H236a4.505 4.505 0 0 0-4.5 4.5v16c0 2.472-.817 4.923-2.3 6.9l-21.529 28.705-4.789 2.395h2.236l3.211-1.605.071-.095 21.6-28.8a12.58 12.58 0 0 0 2.5-7.5v-16c0-1.93 1.57-3.5 3.5-3.5zM48.329 169.605 26.8 140.9a11.58 11.58 0 0 1-2.3-6.9v-16c0-2.481-2.019-4.5-4.5-4.5h-6.686l.046 1H20c1.93 0 3.5 1.57 3.5 3.5v16c0 2.687.888 5.351 2.5 7.5l21.6 28.8.071.095L50.882 172h2.236zM27 89h-2c-1.103 0-2 .897-2 2v3c0 .551-.449 1-1 1h-3c-1.103 0-2 .897-2 2v2c0 1.103.897 2 2 2h3c.551 0 1 .449 1 1v3c0 1.103.897 2 2 2h2c1.103 0 2-.897 2-2v-3c0-.551.449-1 1-1h3c1.103 0 2-.897 2-2v-2c0-1.103-.897-2-2-2h-3c-.551 0-1-.449-1-1v-3c0-1.103-.897-2-2-2" style="fill:#262626"/><path d="M27 90a1 1 0 0 1 1 1v3a2 2 0 0 0 2 2h3a1 1 0 0 1 1 1v2a1 1 0 0 1-1 1h-3a2 2 0 0 0-2 2v3a1 1 0 0 1-1 1h-2a1 1 0 0 1-1-1v-3a2 2 0 0 0-2-2h-3a1 1 0 0 1-1-1v-2a1 1 0 0 1 1-1h3a2 2 0 0 0 2-2v-3a1 1 0 0 1 1-1z" style="fill:#1a1a1a"/><path d="M42 90.5h-4c-1.378 0-2.5-1.121-2.5-2.5s1.122-2.5 2.5-2.5h4c1.378 0 2.5 1.121 2.5 2.5s-1.122 2.5-2.5 2.5m-4-4c-.827 0-1.5.673-1.5 1.5s.673 1.5 1.5 1.5h4c.827 0 1.5-.673 1.5-1.5s-.673-1.5-1.5-1.5zm180.5 4h-4c-1.378 0-2.5-1.121-2.5-2.5s1.122-2.5 2.5-2.5h4c1.378 0 2.5 1.121 2.5 2.5s-1.122 2.5-2.5 2.5m-4-4c-.827 0-1.5.673-1.5 1.5s.673 1.5 1.5 1.5h4c.827 0 1.5-.673 1.5-1.5s-.673-1.5-1.5-1.5z" style="fill:#262626"/><circle cx="230" cy="91" r="4" style="fill:#1a1a1a"/><circle cx="230" cy="105" r="4" style="fill:#1a1a1a"/><circle cx="237" cy="98" r="4" style="fill:#1a1a1a"/><circle cx="223" cy="98" r="4" style="fill:#1a1a1a"/><circle cx="48" cy="102" r="11" style="fill:#262626"/><circle cx="48" cy="102" r="8" style="fill:#333"/><path d="M48 96c-3.308 0-6 2.692-6 6s2.692 6 6 6 6-2.692 6-6-2.692-6-6-6" style="fill:#262626"/><path d="M48 97c2.757 0 5 2.243 5 5s-2.243 5-5 5-5-2.243-5-5 2.243-5 5-5" style="fill:#1a1a1a"/><path d="M48 98a4 4 0 1 1 0 8 4 4 0 0 1 0-8" style="fill:#262626"/><circle cx="208" cy="102" r="11" style="fill:#262626"/><circle cx="208" cy="102" r="8" style="fill:#333"/><path d="M208 96c-3.308 0-6 2.692-6 6s2.692 6 6 6 6-2.692 6-6-2.692-6-6-6" style="fill:#262626"/><path d="M208 97c2.757 0 5 2.243 5 5s-2.243 5-5 5-5-2.243-5-5 2.243-5 5-5" style="fill:#1a1a1a"/><path d="M208 98a4 4 0 1 1 0 8 4 4 0 0 1 0-8" style="fill:#262626"/></svg>