<?xml version="1.0" encoding="UTF-8" standalone="no"?>
<svg
   xmlns:dc="http://purl.org/dc/elements/1.1/"
   xmlns:cc="http://creativecommons.org/ns#"
   xmlns:rdf="http://www.w3.org/1999/02/22-rdf-syntax-ns#"
   xmlns:svg="http://www.w3.org/2000/svg"
   xmlns="http://www.w3.org/2000/svg"
   viewBox="0 0 234.66603 170.66612"
   height="170.66612"
   width="234.66603"
   xml:space="preserve"
   id="svg2"
   version="1.1"><metadata
     id="metadata8"><rdf:RDF><cc:Work
         rdf:about=""><dc:format>image/svg+xml</dc:format><dc:type
           rdf:resource="http://purl.org/dc/dcmitype/StillImage" /></cc:Work></rdf:RDF></metadata><defs
     id="defs6"><clipPath
       id="clipPath18"
       clipPathUnits="userSpaceOnUse"><path
         id="path16"
         d="M 0,256 H 256 V 0 H 0 Z" /></clipPath><clipPath
       id="clipPath26"
       clipPathUnits="userSpaceOnUse"><path
         id="path24"
         d="M 40,192 H 216 V 64 H 40 Z" /></clipPath><clipPath
       id="clipPath42"
       clipPathUnits="userSpaceOnUse"><path
         id="path40"
         d="M 48.0186,184 H 207.981 V 73.5646 H 48.0186 Z" /></clipPath></defs><g
     transform="matrix(1.3333333,0,0,-1.3333333,-53.333532,255.99999)"
     id="g10"><g
       id="g12"><g
         clip-path="url(#clipPath18)"
         id="g14"><g
           id="g20"><g
             id="g22" /><g
             id="g34"><g
               style="opacity:0.5"
               id="g32"
               clip-path="url(#clipPath26)"><g
                 id="g30"
                 transform="translate(212.0591,159.8084)"><path
                   id="path28"
                   style="fill:#ffffff;fill-opacity:1;fill-rule:nonzero;stroke:none"
                   d="m 0,0 c -22.957,20.759 -52.839,32.192 -84.143,32.192 -31.211,0 -61.027,-11.372 -83.957,-32.021 -2.455,-2.21 -3.897,-5.364 -3.957,-8.651 -0.06,-3.291 1.267,-6.498 3.643,-8.8 l 8.691,-8.423 c 1.551,-1.503 3.559,-2.255 5.567,-2.255 2.008,0 5.058,-0.114 4.999,-3.138 -0.058,-3.024 1.159,-5.97 3.339,-8.083 l 9.432,-9.141 c 1.551,-1.503 3.56,-2.255 5.568,-2.255 2.008,0 4.623,-0.361 4.563,-3.13 -0.06,-2.759 1.045,-5.445 3.032,-7.371 l 10.175,-9.86 c 1.551,-1.504 3.559,-2.256 5.567,-2.256 2.009,0 3.664,-1.137 3.664,-3.303 0,-2.165 0.877,-4.238 2.432,-5.745 l 11.675,-11.313 c 1.551,-1.503 3.559,-2.255 5.567,-2.255 2.003,0 4.006,0.747 5.556,2.243 l 11.697,11.289 c 1.558,1.504 2.44,3.575 2.445,5.74 0.004,2.165 1.674,3.296 3.687,3.296 2.003,0 4.005,0.748 5.556,2.244 l 10.195,9.84 c 1.992,1.921 3.102,4.606 3.048,7.364 -0.055,2.77 2.573,3.121 4.586,3.121 2.003,0 4.005,0.747 5.556,2.244 l 9.451,9.121 c 2.185,2.108 3.408,5.052 3.356,8.075 -0.052,3.025 3.011,3.13 5.024,3.13 2.003,0 4.005,0.748 5.556,2.244 l 8.708,8.404 c 2.38,2.298 3.715,5.503 3.661,8.794 C 3.886,-5.372 2.45,-2.216 0,0" /></g></g></g></g><g
           id="g36"><g
             id="g38" /><g
             id="g62"><g
               style="opacity:0.5"
               id="g60"
               clip-path="url(#clipPath42)"><g
                 id="g46"
                 transform="translate(127.9162,88)"><path
                   id="path44"
                   style="fill:#808080;fill-opacity:1;fill-rule:nonzero;stroke:none"
                   d="m 0,0 c -4.147,0 -7.937,-1.482 -10.837,-3.929 -0.461,-0.389 -0.502,-1.082 -0.07,-1.501 l 8.129,-7.878 c 1.549,-1.501 4.009,-1.504 5.562,-0.006 l 8.144,7.861 c 0.434,0.418 0.393,1.112 -0.066,1.501 C 7.959,-1.492 4.159,0 0,0" /></g><g
                 id="g50"
                 transform="translate(127.9162,120)"><path
                   id="path48"
                   style="fill:#808080;fill-opacity:1;fill-rule:nonzero;stroke:none"
                   d="m 0,0 c -12.872,0 -24.613,-4.783 -33.43,-12.612 -0.875,-0.777 -0.921,-2.098 -0.083,-2.91 l 10.175,-9.861 C -17.359,-19.589 -9.104,-16 0,-16 c 9.128,0 17.402,-3.609 23.385,-9.431 l 10.196,9.839 c 0.84,0.812 0.796,2.132 -0.077,2.911 C 24.679,-4.812 12.909,0 0,0" /></g><g
                 id="g54"
                 transform="translate(57.9031,139.8505)"><path
                   id="path52"
                   style="fill:#808080;fill-opacity:1;fill-rule:nonzero;stroke:none"
                   d="m 0,0 c 17.937,17.383 42.702,28.15 70.013,28.15 27.385,0 52.208,-10.827 70.157,-28.293 l 8.662,8.36 c 1.693,1.633 1.659,4.271 -0.087,5.848 C 128.093,32.72 100.405,44.15 70.013,44.15 39.707,44.15 12.088,32.786 -8.545,14.225 -10.294,12.651 -10.333,10.014 -8.644,8.377 Z" /></g><g
                 id="g58"
                 transform="translate(127.9162,152)"><path
                   id="path56"
                   style="fill:#808080;fill-opacity:1;fill-rule:nonzero;stroke:none"
                   d="m 0,0 c -21.195,0 -40.55,-7.781 -55.183,-20.55 -1.75,-1.527 -1.785,-4.241 -0.117,-5.858 l 8.625,-8.358 C -34.717,-23.178 -18.207,-16 0,-16 c 18.257,0 34.804,-7.219 46.77,-18.863 l 8.643,8.341 c 1.701,1.642 1.672,4.3 -0.106,5.858 C 40.659,-7.828 21.256,0 0,0" /></g></g></g></g></g></g></g></svg>