<svg xmlns="http://www.w3.org/2000/svg" xml:space="preserve" width="234.666" height="170.666"><defs><clipPath id="a" clipPathUnits="userSpaceOnUse"><path d="M0 256h256V0H0Z"/></clipPath><clipPath id="b" clipPathUnits="userSpaceOnUse"><path d="M40 192h176V64H40Z"/></clipPath><clipPath id="c" clipPathUnits="userSpaceOnUse"><path d="M48.019 184H207.98V73.565H48.019Z"/></clipPath></defs><g clip-path="url(#a)" transform="matrix(1.33333 0 0 -1.33333 -53.334 256)"><g clip-path="url(#b)" style="opacity:.5"><path d="M0 0c-22.957 20.759-52.839 32.192-84.143 32.192-31.211 0-61.027-11.372-83.957-32.021a11.98 11.98 0 0 1-3.957-8.651 12 12 0 0 1 3.643-8.8l8.691-8.423a7.98 7.98 0 0 1 5.567-2.255c2.008 0 5.058-.114 4.999-3.138a11 11 0 0 1 3.339-8.083l9.432-9.141a7.98 7.98 0 0 1 5.568-2.255c2.008 0 4.623-.361 4.563-3.13a10 10 0 0 1 3.032-7.371l10.175-9.86a7.97 7.97 0 0 1 5.567-2.256c2.009 0 3.664-1.137 3.664-3.303a8 8 0 0 1 2.432-5.745l11.675-11.313a7.98 7.98 0 0 1 5.567-2.255c2.003 0 4.006.747 5.556 2.243l11.697 11.289a8 8 0 0 1 2.445 5.74c.004 2.165 1.674 3.296 3.687 3.296a7.98 7.98 0 0 1 5.556 2.244l10.195 9.84a10 10 0 0 1 3.048 7.364c-.055 2.77 2.573 3.121 4.586 3.121 2.003 0 4.005.747 5.556 2.244l9.451 9.121a11 11 0 0 1 3.356 8.075c-.052 3.025 3.011 3.13 5.024 3.13a7.98 7.98 0 0 1 5.556 2.244l8.708 8.404a12 12 0 0 1 3.661 8.794A11.98 11.98 0 0 1 0 0" style="fill:#fff;fill-opacity:1;fill-rule:nonzero;stroke:none" transform="translate(212.06 159.808)"/></g><g clip-path="url(#c)" style="opacity:.5"><path d="M0 0c-4.147 0-7.937-1.482-10.837-3.929a1.01 1.01 0 0 1-.07-1.501l8.129-7.878a4 4 0 0 1 5.562-.006l8.144 7.861c.434.418.393 1.112-.066 1.501C7.959-1.492 4.159 0 0 0" style="fill:gray;fill-opacity:1;fill-rule:nonzero;stroke:none" transform="translate(127.916 88)"/><path d="M0 0c-12.872 0-24.613-4.783-33.43-12.612-.875-.777-.921-2.098-.083-2.91l10.175-9.861C-17.359-19.589-9.104-16 0-16c9.128 0 17.402-3.609 23.385-9.431l10.196 9.839c.84.812.796 2.132-.077 2.911C24.679-4.812 12.909 0 0 0" style="fill:gray;fill-opacity:1;fill-rule:nonzero;stroke:none" transform="translate(127.916 120)"/><path d="M0 0c17.937 17.383 42.702 28.15 70.013 28.15 27.385 0 52.208-10.827 70.157-28.293l8.662 8.36c1.693 1.633 1.659 4.271-.087 5.848-20.652 18.655-48.34 30.085-78.732 30.085-30.306 0-57.925-11.364-78.558-29.925-1.749-1.574-1.788-4.211-.099-5.848Z" style="fill:gray;fill-opacity:1;fill-rule:nonzero;stroke:none" transform="translate(57.903 139.85)"/><path d="M0 0c-21.195 0-40.55-7.781-55.183-20.55-1.75-1.527-1.785-4.241-.117-5.858l8.625-8.358C-34.717-23.178-18.207-16 0-16c18.257 0 34.804-7.219 46.77-18.863l8.643 8.341c1.701 1.642 1.672 4.3-.106 5.858C40.659-7.828 21.256 0 0 0" style="fill:gray;fill-opacity:1;fill-rule:nonzero;stroke:none" transform="translate(127.916 152)"/></g></g></svg>