<?xml version="1.0" encoding="UTF-8" standalone="no"?>
<svg
   xmlns:dc="http://purl.org/dc/elements/1.1/"
   xmlns:cc="http://creativecommons.org/ns#"
   xmlns:rdf="http://www.w3.org/1999/02/22-rdf-syntax-ns#"
   xmlns:svg="http://www.w3.org/2000/svg"
   xmlns="http://www.w3.org/2000/svg"
   xmlns:sodipodi="http://sodipodi.sourceforge.net/DTD/sodipodi-0.dtd"
   xmlns:inkscape="http://www.inkscape.org/namespaces/inkscape"
   viewBox="0 0 341.33334 341.33334"
   height="256"
   width="256"
   xml:space="preserve"
   id="svg2"
   version="1.1"
   sodipodi:docname="Atari - 5200.svg"
   inkscape:version="0.92.2 (5c3e80d, 2017-08-06)"
   inkscape:export-filename="D:\Documents\Github\Retrosystem-retroarch-theme\png\Atari - 5200.png"
   inkscape:export-xdpi="96"
   inkscape:export-ydpi="96"><sodipodi:namedview
     pagecolor="#ffffff"
     bordercolor="#666666"
     borderopacity="1"
     objecttolerance="10"
     gridtolerance="10"
     guidetolerance="10"
     inkscape:pageopacity="0"
     inkscape:pageshadow="2"
     inkscape:window-width="1024"
     inkscape:window-height="705"
     id="namedview71"
     showgrid="false"
     inkscape:pagecheckerboard="true"
     inkscape:zoom="3.9111843"
     inkscape:cx="120.67071"
     inkscape:cy="66.626066"
     inkscape:window-x="-8"
     inkscape:window-y="-8"
     inkscape:window-maximized="1"
     inkscape:current-layer="svg2" /><metadata
     id="metadata8"><rdf:RDF><cc:Work
         rdf:about=""><dc:format>image/svg+xml</dc:format><dc:type
           rdf:resource="http://purl.org/dc/dcmitype/StillImage" /><dc:title /></cc:Work></rdf:RDF></metadata><defs
     id="defs6"><clipPath
       id="clipPath18"
       clipPathUnits="userSpaceOnUse"><path
         id="path16"
         d="M 0,256 H 256 V 0 H 0 Z" /></clipPath><clipPath
       id="clipPath26"
       clipPathUnits="userSpaceOnUse"><path
         id="path24"
         d="M 74,252 H 182 V 4 H 74 Z" /></clipPath></defs><g
     id="g36"
     transform="matrix(1.3333333,0,0,-1.3333333,124,64.000004)"
     style="fill:#ff0000"><path
       inkscape:connector-curvature="0"
       d="m 0,0 h -10 c -0.552,0 -1,0.448 -1,1 v 26 c 0,0.552 0.448,1 1,1 H 0 c 0.552,0 1,-0.448 1,-1 V 1 C 1,0.448 0.552,0 0,0"
       style="fill:#ff0000;fill-opacity:1;fill-rule:nonzero;stroke:none"
       id="path38" /></g><g
     id="g40"
     transform="matrix(1.3333333,0,0,-1.3333333,230.66666,64.000004)"
     style="fill:#ff0000"><path
       inkscape:connector-curvature="0"
       d="m 0,0 h -10 c -0.552,0 -1,0.448 -1,1 v 26 c 0,0.552 0.448,1 1,1 H 0 c 0.552,0 1,-0.448 1,-1 V 1 C 1,0.448 0.552,0 0,0"
       style="fill:#ff0000;fill-opacity:1;fill-rule:nonzero;stroke:none"
       id="path42" /></g><path
     inkscape:connector-curvature="0"
     d="m 226.66666,176 h -112 v -16 h 112 z"
     style="fill:#808080;fill-opacity:1;fill-rule:nonzero;stroke:none;stroke-width:1.33333325"
     id="path44" /><g
     id="g46"
     transform="matrix(1.3333333,0,0,-1.3333333,221.33333,325.33333)"><path
       inkscape:connector-curvature="0"
       d="m 0,0 h -76 l -4,112 H 4 Z"
       style="fill:#191919;fill-opacity:1;fill-rule:nonzero;stroke:none"
       id="path48" /></g><path
     inkscape:connector-curvature="0"
     d="m 226.66666,160 h -112 V 16.000005 h 112 z"
     style="fill:#191919;fill-opacity:1;fill-rule:nonzero;stroke:none;stroke-width:1.33333325"
     id="path50" /><path
     inkscape:connector-curvature="0"
     d="M 221.33333,160 H 120 V 21.333338 h 101.33333 z"
     style="fill:#262626;fill-opacity:1;fill-rule:nonzero;stroke:none;stroke-width:1.33333325"
     id="path52" /><g
     id="g54"
     transform="matrix(1.3333333,0,0,-1.3333333,215.99999,320)"><path
       inkscape:connector-curvature="0"
       d="m 0,0 h -68 l -4,108 H 4 Z"
       style="fill:#262626;fill-opacity:1;fill-rule:nonzero;stroke:none"
       id="path56" /></g><g
     id="g58"
     transform="matrix(1.3333333,0,0,-1.3333333,213.33333,106.66667)"><path
       inkscape:connector-curvature="0"
       d="m 0,0 c 0,-17.673 -14.327,-32 -32,-32 -17.673,0 -32,14.327 -32,32 0,17.673 14.327,32 32,32 C -14.327,32 0,17.673 0,0"
       style="fill:#000000;fill-opacity:1;fill-rule:nonzero;stroke:none"
       id="path60" /></g><g
     id="g62"
     transform="matrix(1.3333333,0,0,-1.3333333,170.66666,143.1372)"><path
       inkscape:connector-curvature="0"
       d="m 0,0 c -15.108,0 -27.353,12.245 -27.353,27.353 0,15.108 12.245,27.353 27.353,27.353 15.108,0 27.353,-12.245 27.353,-27.353 C 27.353,12.245 15.108,0 0,0 m 0,57.353 c -16.569,0 -30,-13.431 -30,-30 0,-16.569 13.431,-30 30,-30 16.569,0 30,13.431 30,30 0,16.569 -13.431,30 -30,30"
       style="fill:#191919;fill-opacity:1;fill-rule:nonzero;stroke:none"
       id="path64" /></g><g
     id="g66"
     transform="matrix(1.3333333,0,0,-1.3333333,170.66666,85.765603)"><path
       inkscape:connector-curvature="0"
       d="m 0,0 c -8.644,0 -15.676,-7.032 -15.676,-15.676 0,-8.644 7.032,-15.676 15.676,-15.676 8.644,0 15.676,7.032 15.676,15.676 C 15.676,-7.032 8.644,0 0,0 m 0,-32.441 c -9.244,0 -16.765,7.521 -16.765,16.765 0,9.244 7.521,16.765 16.765,16.765 9.244,0 16.765,-7.521 16.765,-16.765 0,-9.244 -7.521,-16.765 -16.765,-16.765"
       style="fill:#141414;fill-opacity:1;fill-rule:nonzero;stroke:none"
       id="path68" /></g><g
     id="g70"
     transform="matrix(1.3333333,0,0,-1.3333333,170.66666,78.69387)"><path
       inkscape:connector-curvature="0"
       d="m 0,0 c -11.568,0 -20.98,-9.412 -20.98,-20.98 0,-11.568 9.412,-20.979 20.98,-20.979 11.568,0 20.98,9.411 20.98,20.979 C 20.98,-9.412 11.568,0 0,0 m 0,-43.038 c -12.163,0 -22.059,9.895 -22.059,22.058 0,12.164 9.896,22.059 22.059,22.059 12.163,0 22.059,-9.895 22.059,-22.059 0,-12.163 -9.896,-22.058 -22.059,-22.058"
       style="fill:#141414;fill-opacity:1;fill-rule:nonzero;stroke:none"
       id="path72" /></g><g
     id="g74"
     transform="matrix(1.3333333,0,0,-1.3333333,186.66666,106.66667)"><path
       inkscape:connector-curvature="0"
       d="m 0,0 c 0,-6.627 -5.373,-12 -12,-12 -6.627,0 -12,5.373 -12,12 0,6.627 5.373,12 12,12 C -5.373,12 0,6.627 0,0"
       style="fill:#191919;fill-opacity:1;fill-rule:nonzero;stroke:none"
       id="path76" /></g><g
     id="g78"
     transform="matrix(1.3333333,0,0,-1.3333333,184,106.66667)"
     style="fill:#4d4d4d"><path
       inkscape:connector-curvature="0"
       d="m 0,0 c 0,-5.523 -4.477,-10 -10,-10 -5.523,0 -10,4.477 -10,10 0,5.523 4.477,10 10,10 C -4.477,10 0,5.523 0,0"
       style="fill:#4d4d4d;fill-opacity:1;fill-rule:nonzero;stroke:none"
       id="path80" /></g><g
     id="g82"
     transform="matrix(1.3333333,0,0,-1.3333333,181.33333,106.66667)"><path
       inkscape:connector-curvature="0"
       d="m 0,0 c 0,-4.418 -3.582,-8 -8,-8 -4.418,0 -8,3.582 -8,8 0,4.418 3.582,8 8,8 4.418,0 8,-3.582 8,-8"
       style="fill:#191919;fill-opacity:1;fill-rule:nonzero;stroke:none"
       id="path84" /></g><g
     id="g86"
     transform="matrix(1.3333333,0,0,-1.3333333,178.66666,106.66667)"
     style="fill:#4d4d4d"><path
       inkscape:connector-curvature="0"
       d="m 0,0 c 0,3.314 -2.686,6 -6,6 -3.314,0 -6,-2.686 -6,-6 0,-3.314 2.686,-6 6,-6 3.314,0 6,2.686 6,6"
       style="fill:#4d4d4d;fill-opacity:1;fill-rule:nonzero;stroke:none"
       id="path88" /></g><g
     id="g90"
     transform="matrix(1.3333333,0,0,-1.3333333,176,106.66667)"><path
       inkscape:connector-curvature="0"
       d="m 0,0 c 0,-2.209 -1.791,-4 -4,-4 -2.209,0 -4,1.791 -4,4 0,2.209 1.791,4 4,4 2.209,0 4,-1.791 4,-4"
       style="fill:#191919;fill-opacity:1;fill-rule:nonzero;stroke:none"
       id="path92" /></g><g
     id="g94"
     transform="matrix(1.3333333,0,0,-1.3333333,173.33333,106.66667)"
     style="fill:#4d4d4d"><path
       inkscape:connector-curvature="0"
       d="m 0,0 c 0,-1.105 -0.895,-2 -2,-2 -1.105,0 -2,0.895 -2,2 0,1.105 0.895,2 2,2 1.105,0 2,-0.895 2,-2"
       style="fill:#4d4d4d;fill-opacity:1;fill-rule:nonzero;stroke:none"
       id="path96" /></g><path
     inkscape:connector-curvature="0"
     d="M 221.33333,176 H 120 v -16 h 101.33333 z"
     style="fill:#999999;fill-opacity:1;fill-rule:nonzero;stroke:none;stroke-width:1.33333325"
     id="path98" /><path
     inkscape:connector-curvature="0"
     d="M 221.33333,53.333337 H 120 V 26.666671 h 101.33333 z"
     style="fill:#333333;fill-opacity:1;fill-rule:nonzero;stroke:none;stroke-width:1.33333325"
     id="path100" /><path
     inkscape:connector-curvature="0"
     d="m 184,48.000004 h -26.66667 v -16 H 184 Z"
     style="fill:#191919;fill-opacity:1;fill-rule:nonzero;stroke:none;stroke-width:1.33333325"
     id="path102" /><path
     inkscape:connector-curvature="0"
     d="m 215.99999,48.000004 h -26.66666 v -16 h 26.66666 z"
     style="fill:#191919;fill-opacity:1;fill-rule:nonzero;stroke:none;stroke-width:1.33333325"
     id="path104" /><path
     inkscape:connector-curvature="0"
     d="m 152,48.000004 h -26.66667 v -16 H 152 Z"
     style="fill:#191919;fill-opacity:1;fill-rule:nonzero;stroke:none;stroke-width:1.33333325"
     id="path106" /><path
     inkscape:connector-curvature="0"
     d="M 152,214.66667 H 133.33333 V 196 H 152 Z"
     style="fill:#4d4d4d;fill-opacity:1;fill-rule:nonzero;stroke:none;stroke-width:1.33333325"
     id="path108" /><path
     inkscape:connector-curvature="0"
     d="M 180,214.66667 H 161.33333 V 196 H 180 Z"
     style="fill:#4d4d4d;fill-opacity:1;fill-rule:nonzero;stroke:none;stroke-width:1.33333325"
     id="path110" /><path
     inkscape:connector-curvature="0"
     d="M 207.99999,214.66667 H 189.33333 V 196 h 18.66666 z"
     style="fill:#4d4d4d;fill-opacity:1;fill-rule:nonzero;stroke:none;stroke-width:1.33333325"
     id="path112" /><path
     inkscape:connector-curvature="0"
     d="M 152,242.66667 H 133.33333 V 224 H 152 Z"
     style="fill:#4d4d4d;fill-opacity:1;fill-rule:nonzero;stroke:none;stroke-width:1.33333325"
     id="path114" /><path
     inkscape:connector-curvature="0"
     d="M 180,242.66667 H 161.33333 V 224 H 180 Z"
     style="fill:#4d4d4d;fill-opacity:1;fill-rule:nonzero;stroke:none;stroke-width:1.33333325"
     id="path116" /><path
     inkscape:connector-curvature="0"
     d="M 207.99999,242.66667 H 189.33333 V 224 h 18.66666 z"
     style="fill:#4d4d4d;fill-opacity:1;fill-rule:nonzero;stroke:none;stroke-width:1.33333325"
     id="path118" /><path
     inkscape:connector-curvature="0"
     d="M 152,270.66667 H 133.33333 V 252 H 152 Z"
     style="fill:#4d4d4d;fill-opacity:1;fill-rule:nonzero;stroke:none;stroke-width:1.33333325"
     id="path120" /><path
     inkscape:connector-curvature="0"
     d="M 180,270.66667 H 161.33333 V 252 H 180 Z"
     style="fill:#4d4d4d;fill-opacity:1;fill-rule:nonzero;stroke:none;stroke-width:1.33333325"
     id="path122" /><path
     inkscape:connector-curvature="0"
     d="M 207.99999,270.66667 H 189.33333 V 252 h 18.66666 z"
     style="fill:#4d4d4d;fill-opacity:1;fill-rule:nonzero;stroke:none;stroke-width:1.33333325"
     id="path124" /><path
     inkscape:connector-curvature="0"
     d="M 152,298.66666 H 133.33333 V 280 H 152 Z"
     style="fill:#4d4d4d;fill-opacity:1;fill-rule:nonzero;stroke:none;stroke-width:1.33333325"
     id="path126" /><path
     inkscape:connector-curvature="0"
     d="M 180,298.66666 H 161.33333 V 280 H 180 Z"
     style="fill:#4d4d4d;fill-opacity:1;fill-rule:nonzero;stroke:none;stroke-width:1.33333325"
     id="path128" /><path
     inkscape:connector-curvature="0"
     d="M 207.99999,298.66666 H 189.33333 V 280 h 18.66666 z"
     style="fill:#4d4d4d;fill-opacity:1;fill-rule:nonzero;stroke:none;stroke-width:1.33333325"
     id="path130" /><g
     id="g132"
     transform="matrix(1.3333333,0,0,-1.3333333,120,53.333337)"><path
       inkscape:connector-curvature="0"
       d="m 0,0 4,4 h 68 v 12 l 4,4 V 0 Z"
       style="fill:#080808;fill-opacity:1;fill-rule:nonzero;stroke:none"
       id="path134" /></g><path
     inkscape:connector-curvature="0"
     d="M 184,325.33333 H 157.33333 V 314.66666 H 184 Z"
     style="fill:#191919;fill-opacity:1;fill-rule:nonzero;stroke:none;stroke-width:1.33333325"
     id="path136" /><g
     id="g138"
     transform="matrix(1.3333333,0,0,-1.3333333,125.33333,181.33333)"><path
       inkscape:connector-curvature="0"
       d="M 0,0 H 68 L 64,-4 H 4 Z"
       style="fill:#333333;fill-opacity:1;fill-rule:nonzero;stroke:none"
       id="path140" /></g></svg>