<?xml version="1.0" encoding="UTF-8" standalone="no"?>
<svg
   xmlns:dc="http://purl.org/dc/elements/1.1/"
   xmlns:cc="http://creativecommons.org/ns#"
   xmlns:rdf="http://www.w3.org/1999/02/22-rdf-syntax-ns#"
   xmlns:svg="http://www.w3.org/2000/svg"
   xmlns="http://www.w3.org/2000/svg"
   xmlns:sodipodi="http://sodipodi.sourceforge.net/DTD/sodipodi-0.dtd"
   xmlns:inkscape="http://www.inkscape.org/namespaces/inkscape"
   viewBox="0 0 341.33334 341.33334"
   height="256"
   width="256"
   xml:space="preserve"
   id="svg2"
   version="1.1"
   sodipodi:docname="default-content.svg"
   inkscape:version="0.92.2 (5c3e80d, 2017-08-06)"><sodipodi:namedview
     pagecolor="#ffffff"
     bordercolor="#666666"
     borderopacity="1"
     objecttolerance="10"
     gridtolerance="10"
     guidetolerance="10"
     inkscape:pageopacity="0"
     inkscape:pageshadow="2"
     inkscape:window-width="1024"
     inkscape:window-height="705"
     id="namedview30"
     showgrid="false"
     inkscape:pagecheckerboard="true"
     inkscape:zoom="0.69140623"
     inkscape:cx="170.66667"
     inkscape:cy="170.66667"
     inkscape:window-x="-8"
     inkscape:window-y="-8"
     inkscape:window-maximized="1"
     inkscape:current-layer="svg2" /><metadata
     id="metadata8"><rdf:RDF><cc:Work
         rdf:about=""><dc:format>image/svg+xml</dc:format><dc:type
           rdf:resource="http://purl.org/dc/dcmitype/StillImage" /><dc:title></dc:title></cc:Work></rdf:RDF></metadata><defs
     id="defs6"><clipPath
       id="clipPath18"
       clipPathUnits="userSpaceOnUse"><path
         id="path16"
         d="M 0,256 H 256 V 0 H 0 Z" /></clipPath><clipPath
       id="clipPath26"
       clipPathUnits="userSpaceOnUse"><path
         id="path24"
         d="M 55.1155,197.234 H 196.698 V 51.3594 H 55.1155 Z" /></clipPath></defs><g
     id="g36"
     transform="matrix(1.3333333,0,0,-1.3333333,250.38066,89.660536)"><path
       inkscape:connector-curvature="0"
       d="M 0,0 -2.737,0.241 C -2.839,0.25 -5.095,0.445 -8.888,0.476 V 0.48 h -0.999 -10e-4 -0.999 V 0.476 C -18.24,0.413 -31.745,-0.371 -46.013,-4.548 -63.729,-9.734 -77.592,-18.542 -87.227,-30.73 l -4.595,-0.858 c -8.032,-1.5 -15.277,-6.636 -20.951,-14.853 -4.143,-5.999 -6.031,-11.578 -6.109,-11.813 l -1.55,-4.643 -0.517,-1.548 1.614,0.242 4.841,0.727 c 0.04,0.006 4.107,0.603 8.36,0.603 1.816,0 3.394,-0.107 4.691,-0.318 -1.092,-5.935 -1.645,-12.307 -1.645,-18.96 v -1.246 -0.416 l 0.295,-0.293 0.884,-0.88 2.577,-2.565 c -9.784,-0.819 -14.44,-17.785 -15.654,-23.074 l -1.06,-4.615 -0.353,-1.539 1.542,0.338 4.625,1.013 c 1.852,0.406 6.676,1.58 11.479,3.714 6.344,2.818 10.142,6.194 11.289,10.033 0.194,0.649 0.313,1.305 0.356,1.966 l 2.653,-2.641 0.878,-0.873 0.293,-0.291 h 0.413 1.238 c 6.761,0 13.265,0.703 19.353,2.092 0.754,-5.624 -0.717,-13.24 -0.732,-13.32 l -1.191,-6.048 -0.397,-2.016 1.832,0.932 5.494,2.795 c 0.877,0.446 21.529,11.149 26.082,30.656 l 0.866,3.71 c 8.739,8.08 15.844,18.699 21.121,31.569 10.002,24.393 10.117,48.396 10.117,49.406 v 2.748 0.916 z"
       style="fill:#191919;fill-opacity:1;fill-rule:nonzero;stroke:none"
       id="path38" /></g><g
     id="g40"
     transform="matrix(1.3333333,0,0,-1.3333333,128,138.66667)"><path
       inkscape:connector-curvature="0"
       d="M 0,0 C -4.51,-6.933 -7.757,-14.84 -9.691,-23.726 -15.66,-22.748 -24,-24 -24,-24 c 0,0 6.948,20.816 24,24"
       style="fill:#999999;fill-opacity:1;fill-rule:nonzero;stroke:none"
       id="path42" /></g><g
     id="g44"
     transform="matrix(1.3333333,0,0,-1.3333333,101.33333,240)"><path
       inkscape:connector-curvature="0"
       d="M 0,0 C 0,0 6.561,28.586 17.497,17.407 28.432,6.229 0,0 0,0"
       style="fill:#ff0000;fill-opacity:1;fill-rule:nonzero;stroke:none"
       id="path46" /></g><g
     id="g48"
     transform="matrix(1.3333333,0,0,-1.3333333,170.66666,245.33333)"><path
       inkscape:connector-curvature="0"
       d="M 0,0 C 0,0 1.791,9.1 0.62,15.595 9.799,18.247 17.531,22.569 24,28 19.818,10.081 0,0 0,0"
       style="fill:#999999;fill-opacity:1;fill-rule:nonzero;stroke:none"
       id="path50" /></g><g
     id="g52"
     transform="matrix(1.3333333,0,0,-1.3333333,140.606,224)"><path
       inkscape:connector-curvature="0"
       d="m 0,0 -17.455,17.37 c 0,86.848 96,78.406 96,78.406 C 78.545,95.776 78.545,0 0,0"
       style="fill:#e6e6e6;fill-opacity:1;fill-rule:nonzero;stroke:none"
       id="path54" /></g><g
     id="g56"
     transform="matrix(1.3333333,0,0,-1.3333333,197.33333,128)"><path
       inkscape:connector-curvature="0"
       d="m 0,0 c -4.416,0 -8,-3.584 -8,-8 0,-4.416 3.584,-8 8,-8 4.416,0 8,3.584 8,8 0,4.416 -3.584,8 -8,8"
       style="fill:#231f20;fill-opacity:1;fill-rule:nonzero;stroke:none"
       id="path58" /></g></svg>
