<?xml version="1.0" encoding="UTF-8" standalone="no"?>
<svg
   xmlns:dc="http://purl.org/dc/elements/1.1/"
   xmlns:cc="http://creativecommons.org/ns#"
   xmlns:rdf="http://www.w3.org/1999/02/22-rdf-syntax-ns#"
   xmlns:svg="http://www.w3.org/2000/svg"
   xmlns="http://www.w3.org/2000/svg"
   xmlns:sodipodi="http://sodipodi.sourceforge.net/DTD/sodipodi-0.dtd"
   xmlns:inkscape="http://www.inkscape.org/namespaces/inkscape"
   viewBox="0 0 341.33334 341.33334"
   height="256"
   width="256"
   xml:space="preserve"
   id="svg2"
   version="1.1"
   sodipodi:docname="Magnavox - Odyssey2.svg"
   inkscape:version="0.92.3 (2405546, 2018-03-11)"><sodipodi:namedview
     pagecolor="#ffffff"
     bordercolor="#666666"
     borderopacity="1"
     objecttolerance="10"
     gridtolerance="10"
     guidetolerance="10"
     inkscape:pageopacity="0"
     inkscape:pageshadow="2"
     inkscape:window-width="1920"
     inkscape:window-height="1001"
     id="namedview67"
     showgrid="false"
     inkscape:pagecheckerboard="true"
     inkscape:zoom="1.9555921"
     inkscape:cx="99.98647"
     inkscape:cy="114.56309"
     inkscape:window-x="-9"
     inkscape:window-y="-9"
     inkscape:window-maximized="1"
     inkscape:current-layer="svg2" /><metadata
     id="metadata8"><rdf:RDF><cc:Work
         rdf:about=""><dc:format>image/svg+xml</dc:format><dc:type
           rdf:resource="http://purl.org/dc/dcmitype/StillImage" /><dc:title /></cc:Work></rdf:RDF></metadata><defs
     id="defs6"><clipPath
       id="clipPath18"
       clipPathUnits="userSpaceOnUse"><path
         id="path16"
         d="M 0,256 H 256 V 0 H 0 Z" /></clipPath><clipPath
       id="clipPath26"
       clipPathUnits="userSpaceOnUse"><path
         id="path24"
         d="M 28,252 H 228 V 4 H 28 Z" /></clipPath><clipPath
       id="clipPath44"
       clipPathUnits="userSpaceOnUse"><path
         id="path42"
         d="M 0,256 H 256 V 0 H 0 Z" /></clipPath></defs><path
     inkscape:connector-curvature="0"
     d="M 293.33333,325.33333 H 47.999999 V 16.000005 H 293.33333 Z"
     style="fill:#737373;fill-opacity:1;fill-rule:nonzero;stroke:#1a1a1a;stroke-width:2.66666672;stroke-miterlimit:4;stroke-dasharray:none"
     id="path36" /><g
     id="g46"
     transform="matrix(1.3333333,0,0,-1.3333333,259.25826,282.66666)"><path
       inkscape:connector-curvature="0"
       d="m 0,0 h -132.887 c -3.069,0 -5.557,2.429 -5.557,5.425 v 173.15 c 0,2.996 2.488,5.425 5.557,5.425 L 0,184 c 3.069,0 5.556,-2.429 5.556,-5.425 V 5.425 C 5.556,2.429 3.069,0 0,0"
       style="fill:#8c8c8c;fill-opacity:1;fill-rule:nonzero;stroke:none"
       id="path48" /></g><g
     id="g50"
     transform="matrix(1.3333333,0,0,-1.3333333,259.25826,32.000004)"><path
       inkscape:connector-curvature="0"
       d="m 0,0 h -132.887 c -5.27,0 -9.557,-4.228 -9.557,-9.425 v -173.15 c 0,-5.197 4.287,-9.425 9.557,-9.425 L 0,-192 c 5.269,0 9.556,4.228 9.556,9.425 V -9.425 C 9.556,-4.228 5.269,0 0,0 m 0,-4 c 3.069,0 5.556,-2.429 5.556,-5.425 v -173.15 C 5.556,-185.571 3.069,-188 0,-188 h -132.887 c -3.069,0 -5.557,2.429 -5.557,5.425 v 173.15 c 0,2.996 2.488,5.425 5.557,5.425 L 0,-4"
       style="fill:#808080;fill-opacity:1;fill-rule:nonzero;stroke:none"
       id="path52" /></g><path
     inkscape:connector-curvature="0"
     d="M 255.99999,213.33333 H 85.333331 V 101.33334 H 255.99999 Z"
     style="fill:#999999;fill-opacity:1;fill-rule:nonzero;stroke:none;stroke-width:1.33333325"
     id="path54" /><path
     inkscape:connector-curvature="0"
     d="M 255.99999,221.33333 H 85.333331 v -2.66666 H 255.99999 Z"
     style="fill:#808080;fill-opacity:1;fill-rule:nonzero;stroke:none;stroke-width:1.33333325"
     id="path56" /><path
     inkscape:connector-curvature="0"
     d="M 255.99999,226.66667 H 85.333331 V 224 H 255.99999 Z"
     style="fill:#808080;fill-opacity:1;fill-rule:nonzero;stroke:none;stroke-width:1.33333325"
     id="path58" /><path
     inkscape:connector-curvature="0"
     d="M 255.99999,232 H 85.333331 v -2.66667 H 255.99999 Z"
     style="fill:#808080;fill-opacity:1;fill-rule:nonzero;stroke:none;stroke-width:1.33333325"
     id="path60" /><path
     inkscape:connector-curvature="0"
     d="M 255.99999,237.33333 H 85.333331 v -2.66666 H 255.99999 Z"
     style="fill:#808080;fill-opacity:1;fill-rule:nonzero;stroke:none;stroke-width:1.33333325"
     id="path62" /><path
     inkscape:connector-curvature="0"
     d="M 255.99999,242.66667 H 85.333331 V 240 H 255.99999 Z"
     style="fill:#808080;fill-opacity:1;fill-rule:nonzero;stroke:none;stroke-width:1.33333325"
     id="path64" /><path
     inkscape:connector-curvature="0"
     d="M 255.99999,248 H 85.333331 v -2.66667 H 255.99999 Z"
     style="fill:#808080;fill-opacity:1;fill-rule:nonzero;stroke:none;stroke-width:1.33333325"
     id="path66" /><path
     inkscape:connector-curvature="0"
     d="M 255.99999,253.33333 H 85.333331 v -2.66666 H 255.99999 Z"
     style="fill:#808080;fill-opacity:1;fill-rule:nonzero;stroke:none;stroke-width:1.33333325"
     id="path68" /><path
     inkscape:connector-curvature="0"
     d="M 255.99999,258.66667 H 85.333331 V 256 H 255.99999 Z"
     style="fill:#808080;fill-opacity:1;fill-rule:nonzero;stroke:none;stroke-width:1.33333325"
     id="path70" /><path
     inkscape:connector-curvature="0"
     d="M 255.99999,264 H 85.333331 v -2.66667 H 255.99999 Z"
     style="fill:#808080;fill-opacity:1;fill-rule:nonzero;stroke:none;stroke-width:1.33333325"
     id="path72" /><path
     inkscape:connector-curvature="0"
     d="M 255.99999,269.33333 H 85.333331 v -2.66666 H 255.99999 Z"
     style="fill:#808080;fill-opacity:1;fill-rule:nonzero;stroke:none;stroke-width:1.33333325"
     id="path74" /><path
     inkscape:connector-curvature="0"
     d="M 255.99999,274.66666 H 85.333331 V 272 H 255.99999 Z"
     style="fill:#808080;fill-opacity:1;fill-rule:nonzero;stroke:none;stroke-width:1.33333325"
     id="path76" /><path
     inkscape:connector-curvature="0"
     d="M 255.99999,45.333337 H 138.66666 v -2.666666 h 117.33333 z"
     style="fill:#808080;fill-opacity:1;fill-rule:nonzero;stroke:none;stroke-width:1.33333325"
     id="path78" /><path
     inkscape:connector-curvature="0"
     d="M 255.99999,50.666671 H 138.66666 v -2.666667 h 117.33333 z"
     style="fill:#808080;fill-opacity:1;fill-rule:nonzero;stroke:none;stroke-width:1.33333325"
     id="path80" /><path
     inkscape:connector-curvature="0"
     d="M 255.99999,56.000004 H 138.66666 v -2.666667 h 117.33333 z"
     style="fill:#808080;fill-opacity:1;fill-rule:nonzero;stroke:none;stroke-width:1.33333325"
     id="path82" /><path
     inkscape:connector-curvature="0"
     d="M 255.99999,61.333337 H 138.66666 V 58.66667 h 117.33333 z"
     style="fill:#808080;fill-opacity:1;fill-rule:nonzero;stroke:none;stroke-width:1.33333325"
     id="path84" /><path
     inkscape:connector-curvature="0"
     d="M 255.99999,66.66667 H 138.66666 v -2.666666 h 117.33333 z"
     style="fill:#808080;fill-opacity:1;fill-rule:nonzero;stroke:none;stroke-width:1.33333325"
     id="path86" /><path
     inkscape:connector-curvature="0"
     d="M 255.99999,72.000003 H 138.66666 v -2.666666 h 117.33333 z"
     style="fill:#808080;fill-opacity:1;fill-rule:nonzero;stroke:none;stroke-width:1.33333325"
     id="path88" /><path
     inkscape:connector-curvature="0"
     d="M 255.99999,77.333337 H 138.66666 V 74.66667 h 117.33333 z"
     style="fill:#808080;fill-opacity:1;fill-rule:nonzero;stroke:none;stroke-width:1.33333325"
     id="path90" /><path
     inkscape:connector-curvature="0"
     d="M 255.99999,82.66667 H 138.66666 v -2.666667 h 117.33333 z"
     style="fill:#808080;fill-opacity:1;fill-rule:nonzero;stroke:none;stroke-width:1.33333325"
     id="path92" /><path
     inkscape:connector-curvature="0"
     d="M 255.99999,88.000003 H 138.66666 v -2.666667 h 117.33333 z"
     style="fill:#808080;fill-opacity:1;fill-rule:nonzero;stroke:none;stroke-width:1.33333325"
     id="path94" /><path
     inkscape:connector-curvature="0"
     d="M 255.99999,93.333336 H 138.66666 V 90.66667 h 117.33333 z"
     style="fill:#808080;fill-opacity:1;fill-rule:nonzero;stroke:none;stroke-width:1.33333325"
     id="path96" /><g
     id="g98"
     transform="matrix(1.3333333,0,0,-1.3333333,133.33333,96.000003)"><path
       inkscape:connector-curvature="0"
       d="m 0,0 h -44 v 38.383 c 0,3.102 2.364,5.617 5.28,5.617 H 0 Z"
       style="fill:#ff0000;fill-opacity:1;fill-rule:nonzero;stroke:none"
       id="path100" /></g><g
     id="g102"
     transform="matrix(1.3333333,0,0,-1.3333333,184.40266,125.49987)"><path
       inkscape:connector-curvature="0"
       d="m 0,0 11.009,1.089 c 1.204,0.119 2.209,-0.906 2.067,-2.108 l -1.305,-10.986 c -0.076,-0.641 0.18,-1.277 0.68,-1.687 l 8.554,-7.015 c 0.936,-0.767 0.922,-2.202 -0.029,-2.951 l -8.69,-6.846 c -0.508,-0.399 -0.776,-1.03 -0.713,-1.673 l 1.089,-11.01 c 0.119,-1.203 -0.906,-2.208 -2.108,-2.066 l -10.986,1.305 c -0.641,0.076 -1.277,-0.18 -1.687,-0.68 l -7.015,-8.554 c -0.767,-0.936 -2.202,-0.922 -2.951,0.029 l -6.846,8.69 c -0.399,0.508 -1.03,0.776 -1.673,0.713 l -11.01,-1.089 c -1.203,-0.119 -2.208,0.906 -2.066,2.107 l 1.305,10.986 c 0.076,0.642 -0.18,1.278 -0.68,1.687 l -8.554,7.016 c -0.936,0.767 -0.922,2.202 0.029,2.951 l 8.69,6.845 c 0.508,0.4 0.776,1.031 0.713,1.674 l -1.089,11.009 c -0.119,1.204 0.906,2.209 2.107,2.067 l 10.986,-1.305 c 0.642,-0.076 1.278,0.18 1.688,0.68 l 7.015,8.554 c 0.767,0.936 2.202,0.921 2.951,-0.029 L -1.673,0.712 C -1.274,0.205 -0.643,-0.064 0,0"
       style="fill:#0d0d0d;fill-opacity:1;fill-rule:nonzero;stroke:none"
       id="path104" /></g><g
     id="g106"
     transform="matrix(1.3333333,0,0,-1.3333333,202.66666,154.66667)"><path
       inkscape:connector-curvature="0"
       d="m 0,0 c 0,-13.255 -10.745,-24 -24,-24 -13.255,0 -24,10.745 -24,24 0,13.255 10.745,24 24,24 C -10.745,24 0,13.255 0,0"
       style="fill:#191919;fill-opacity:1;fill-rule:nonzero;stroke:none"
       id="path108" /></g><g
     id="g110"
     transform="matrix(1.3333333,0,0,-1.3333333,186.66666,154.66667)"><path
       inkscape:connector-curvature="0"
       d="m 0,0 c 0,-6.627 -5.373,-12 -12,-12 -6.627,0 -12,5.373 -12,12 0,6.627 5.373,12 12,12 C -5.373,12 0,6.627 0,0"
       style="fill:#262626;fill-opacity:1;fill-rule:nonzero;stroke:none"
       id="path112" /></g><g
     id="g114"
     transform="matrix(1.3333333,0,0,-1.3333333,181.33333,154.66667)"><path
       inkscape:connector-curvature="0"
       d="m 0,0 c 0,-4.418 -3.582,-8 -8,-8 -4.418,0 -8,3.582 -8,8 0,4.418 3.582,8 8,8 4.418,0 8,-3.582 8,-8"
       style="fill:#333333;fill-opacity:1;fill-rule:nonzero;stroke:none"
       id="path116" /></g><path
     inkscape:connector-curvature="0"
     d="M 128,45.333337 H 79.999998 V 42.666671 H 128 Z"
     style="fill:#b80000;fill-opacity:1;fill-rule:nonzero;stroke:none;stroke-width:1.33333325"
     id="path118" /><path
     inkscape:connector-curvature="0"
     d="M 128,50.666671 H 79.999998 V 48.000004 H 128 Z"
     style="fill:#b80000;fill-opacity:1;fill-rule:nonzero;stroke:none;stroke-width:1.33333325"
     id="path120" /><path
     inkscape:connector-curvature="0"
     d="M 128,56.000004 H 79.999998 V 53.333337 H 128 Z"
     style="fill:#b80000;fill-opacity:1;fill-rule:nonzero;stroke:none;stroke-width:1.33333325"
     id="path122" /><path
     inkscape:connector-curvature="0"
     d="M 128,61.333337 H 79.999998 V 58.66667 H 128 Z"
     style="fill:#b80000;fill-opacity:1;fill-rule:nonzero;stroke:none;stroke-width:1.33333325"
     id="path124" /><path
     inkscape:connector-curvature="0"
     d="M 128,77.333337 H 79.999998 V 74.66667 H 128 Z"
     style="fill:#b80000;fill-opacity:1;fill-rule:nonzero;stroke:none;stroke-width:1.33333325"
     id="path126" /><path
     inkscape:connector-curvature="0"
     d="M 128,82.66667 H 79.999998 V 80.000003 H 128 Z"
     style="fill:#b80000;fill-opacity:1;fill-rule:nonzero;stroke:none;stroke-width:1.33333325"
     id="path128" /><path
     inkscape:connector-curvature="0"
     d="M 128,88.000003 H 79.999998 V 85.333336 H 128 Z"
     style="fill:#b80000;fill-opacity:1;fill-rule:nonzero;stroke:none;stroke-width:1.33333325"
     id="path130" /><path
     inkscape:connector-curvature="0"
     d="M 128,93.333336 H 79.999998 V 90.66667 H 128 Z"
     style="fill:#b80000;fill-opacity:1;fill-rule:nonzero;stroke:none;stroke-width:1.33333325"
     id="path132" /></svg>