<?xml version="1.0" encoding="UTF-8" standalone="no"?>
<svg
   xmlns:dc="http://purl.org/dc/elements/1.1/"
   xmlns:cc="http://creativecommons.org/ns#"
   xmlns:rdf="http://www.w3.org/1999/02/22-rdf-syntax-ns#"
   xmlns:svg="http://www.w3.org/2000/svg"
   xmlns="http://www.w3.org/2000/svg"
   xmlns:sodipodi="http://sodipodi.sourceforge.net/DTD/sodipodi-0.dtd"
   xmlns:inkscape="http://www.inkscape.org/namespaces/inkscape"
   viewBox="0 0 341.33334 341.33334"
   height="256"
   width="256"
   xml:space="preserve"
   id="svg2"
   version="1.1"
   sodipodi:docname="Microsoft - MSX-content.svg"
   inkscape:version="0.92.2 (5c3e80d, 2017-08-06)"
   inkscape:export-filename="D:\Documents\Github\Retrosystem-retroarch-theme\png\Microsoft - MSX-content.png"
   inkscape:export-xdpi="72"
   inkscape:export-ydpi="72"><sodipodi:namedview
     pagecolor="#ffffff"
     bordercolor="#666666"
     borderopacity="1"
     objecttolerance="10"
     gridtolerance="10"
     guidetolerance="10"
     inkscape:pageopacity="0"
     inkscape:pageshadow="2"
     inkscape:window-width="1024"
     inkscape:window-height="705"
     id="namedview48"
     showgrid="true"
     inkscape:pagecheckerboard="true"
     inkscape:zoom="0.97779607"
     inkscape:cx="-38.503132"
     inkscape:cy="215.13021"
     inkscape:window-x="-8"
     inkscape:window-y="-8"
     inkscape:window-maximized="1"
     inkscape:current-layer="svg2"><inkscape:grid
       type="xygrid"
       id="grid833"
       empspacing="32"
       color="#3f3fff"
       opacity="0" /></sodipodi:namedview><metadata
     id="metadata8"><rdf:RDF><cc:Work
         rdf:about=""><dc:format>image/svg+xml</dc:format><dc:type
           rdf:resource="http://purl.org/dc/dcmitype/StillImage" /><dc:title /></cc:Work></rdf:RDF></metadata><defs
     id="defs6"><clipPath
       id="clipPath18"
       clipPathUnits="userSpaceOnUse"><path
         id="path16"
         d="M 0,256 H 256 V 0 H 0 Z" /></clipPath><clipPath
       id="clipPath26"
       clipPathUnits="userSpaceOnUse"><path
         id="path24"
         d="M 4,213 H 252 V 43 H 4 Z" /></clipPath></defs><g
     id="g22"
     transform="matrix(1.3333333,0,0,-1.3333333,0,341.33333)" /><path
     id="path38"
     style="fill:#333333;fill-opacity:1;fill-rule:nonzero;stroke:none;stroke-width:1.33333325"
     d="m 42.666666,112 c -2.945333,0 -5.333333,-2.388 -5.333333,-5.33333 0,-2.94534 2.388,-5.33334 5.333333,-5.33334 2.945333,0 5.333333,2.388 5.333333,5.33334 0,2.94533 -2.388,5.33333 -5.333333,5.33333 m 0,122.66666 C 36.775999,234.66666 32,229.89066 32,224 c 0,-5.89067 4.775999,-10.66667 10.666666,-10.66667 5.890667,0 10.666666,4.776 10.666666,10.66667 0,5.89066 -4.775999,10.66666 -10.666666,10.66666 M 316.16799,68.000001 H 25.165333 C 20.104,68.000001 16,72.325334 16,77.662668 v 13.003999 h 5.333333 V 96 H 16 v 5.33333 h 5.333333 v 5.33334 H 16 V 112 h 5.333333 v 5.33333 H 16 v 5.33334 h 5.333333 V 128 H 16 V 273.33333 H 325.33333 V 77.662668 c 0,-5.337334 -4.10267,-9.662667 -9.16534,-9.662667"
     inkscape:connector-curvature="0" /><path
     id="path42"
     style="fill:#e6e6e6;fill-opacity:1;fill-rule:nonzero;stroke:none;stroke-width:1.33333325"
     d="M 307.99999,250.66667 H 59.999996 c -0.736,0 -1.333333,-0.59733 -1.333333,-1.33333 V 74.666674 H 309.33332 V 249.33334 c 0,0.736 -0.59733,1.33333 -1.33333,1.33333"
     inkscape:connector-curvature="0" /><path
     inkscape:connector-curvature="0"
     d="M 160,245.33334 H 96 v -32 h 64 z"
     style="fill:#191919;fill-opacity:1;fill-rule:nonzero;stroke:none;stroke-width:2.66666651"
     id="path44" /><path
     id="path48"
     style="fill:#d9d9d9;fill-opacity:1;fill-rule:nonzero;stroke:none;stroke-width:2.66666651"
     d="m 146.09893,228.92748 7.49334,-10.21066 -6.83467,-0.0506 -4.10133,5.59734 -4.20267,-5.54666 -16.51467,0.014 c -4.09866,0 -7.304,2.80534 -7.33333,6.368 -0.14134,3.88534 2.78933,6.8 5.57067,6.776 l 6.47466,0.0826 c 1.32534,0 1.25334,2.33866 0.0853,2.352 l -20.704,0.018 v -15.66134 h -5.16533 v 21.28 h 26.22933 c 2.09067,0.112 6.43467,-2.024 6.39467,-6.69866 0.0907,-4.02134 -3.50933,-6.59734 -6.06667,-6.61334 l -6.048,-0.0906 c -1.52266,0.0454 -1.57866,-2.344 -0.0134,-2.35734 l 14.35734,-0.0214 3.44266,4.86132 -7.89866,10.94668 6.936,0.008 4.48533,-6.35468 4.71467,6.35468 6.8,0.018 z"
     inkscape:connector-curvature="0" /><path
     id="path52"
     style="fill:#ff0000;fill-opacity:1;fill-rule:nonzero;stroke:none;stroke-width:1.33333325"
     d="m 229.94453,229.67018 c 0.40667,-0.964 -0.052,-1.95067 0.0653,-2.924 0.012,-0.1 -0.056,-0.27733 -0.132,-0.31067 -0.90666,-0.392 -0.78533,-1.36533 -1.09733,-2.08133 -0.232,-0.536 0.476,-1.50133 1.14667,-1.68667 1.124,-0.31066 1.31466,-0.61466 1.388,-1.84666 0.028,-0.47067 0.0187,-1.04267 0.52266,-1.32667 0.292,-0.164 0.156,-0.40267 0.188,-0.62133 0.0747,-0.52534 0.23734,-0.948 0.90134,-0.78667 0.34133,0.084 0.612,0.0107 0.48666,-0.456 -0.0307,-0.116 -0.11333,-0.244 0.052,-0.276 0.67867,-0.13333 0.67867,-1.284 1.568,-1.10133 0.19467,0.04 0.20934,-0.11067 0.23334,-0.27867 0.048,-0.34933 0.30666,-0.35467 0.52666,-0.22 0.73334,0.44667 1.42667,0.76533 2.30534,0.25467 0.184,-0.108 0.83733,0.2 1.06533,0.59733 0.40667,0.70533 0.64667,1.492 0.86133,2.28133 0.148,0.54534 -0.408,0.89334 -0.37466,1.42267 0.009,0.13067 -0.22667,0.14533 -0.344,-0.001 -0.61734,-0.77334 -0.6,-0.02 -0.68934,0.328 -0.0427,0.16533 0.0413,0.376 -0.18,0.448 -0.268,0.0853 -0.34666,-0.13067 -0.452,-0.32134 -0.408,-0.744 -1.05066,-1.28133 -1.592,-1.90933 -0.116,-0.13467 -0.17866,-0.22 -0.33066,-0.092 -0.25467,0.21333 -0.52,0.54133 -0.47867,0.808 0.10667,0.688 -0.0187,1.09467 -0.668,1.44667 -0.31467,0.17066 -0.28267,0.98133 -0.0813,1.17066 0.34133,0.316 0.568,0.916 1.19333,0.85334 0.35733,-0.036 0.75867,-0.44667 1.064,-0.028 0.40133,0.55066 0.68667,1.19066 0.588,1.912 -0.04,0.28666 -0.21333,0.54666 -0.13067,0.86533 0.0213,0.084 -0.0947,0.20533 -0.148,0.30933 -0.55066,-0.552 -1.192,0.39067 -1.74533,-0.11333 -0.032,-0.33733 -0.27867,-0.712 -0.496,-0.37733 -0.44133,0.68 -0.772,0.15333 -1.272,-0.068 0.14,0.37733 0.22667,0.616 0.31467,0.85466 -0.008,0.0747 -0.0147,0.14934 -0.0227,0.224 -0.11733,0.0533 -0.20267,0.128 -0.17467,0.27867 -0.044,0.91333 -0.388,1.8 -0.42266,2.676 -0.0453,1.13067 -0.27734,2.22267 -0.34667,3.33867 -0.0347,0.54133 -0.0453,1.04533 -0.39333,1.51466 -0.26934,0.36534 -0.25734,0.85467 -0.30667,1.31334 -0.14133,1.29733 -0.572,2.54 -1.416,3.472 -0.34933,0.38666 -1.03067,0.54 -1.35733,1.092 -0.044,0.072 -0.17467,0.12133 -0.17734,0.184 -0.0387,1.00133 -0.744,1.04 -1.444,1.05733 -0.30666,0.008 -0.484,-0.10933 -0.448,0.43867 0.0467,0.708 -0.55866,0.14666 -0.64533,0.084 -0.308,-0.21867 -0.46267,-0.37734 -0.848,-0.0373 -0.42,0.37067 -0.85867,0.31734 -1.164,-0.336 -0.54533,-1.172 -1.148,-2.29866 -0.94533,-3.67866 0.044,-0.3 0.148,-0.388 0.368,-0.32934 0.27466,0.0747 0.476,0.16934 0.768,-0.0667 0.37066,-0.3 0.496,0.12 0.59866,0.39333 0.10667,0.284 0.148,0.60267 0.51734,0.66267 0.06,0.10933 0.048,0.348 0.25733,0.22533 0.15867,-0.0933 0.0973,-0.248 -0.0173,-0.36667 -0.0853,-0.62266 0.24,-0.50666 0.56933,-0.32266 0.38133,0.21466 0.76933,0.40266 1.13333,0.0253 0.356,-0.36933 0.41067,-0.76667 0.364,-1.348 -0.0693,-0.83867 -0.18533,-1.85867 0.72134,-2.468 0.0907,-0.0613 0.23866,-0.2 0.22266,-0.236 -0.33333,-0.74267 0.0307,-1.51467 -0.10533,-2.268 -0.144,-0.804 -0.14533,-1.60933 0.46533,-2.26533 0.0413,0.032 0.0813,0.0627 0.12134,0.0947 0.001,-0.0293 0.0133,-0.0653 0.001,-0.0867 -0.0427,-0.076 -0.0907,-0.0707 -0.132,0.009"
     inkscape:connector-curvature="0" /><path
     id="path56"
     style="fill:#191919;fill-opacity:1;fill-rule:nonzero;stroke:none;stroke-width:1.33333325"
     d="m 234.71733,236.94912 4.62667,-15.944 h 4.29066 l 2.22934,6.96 2.31333,-6.96 h 4.03733 L 256,232.75179 l 9.236,-0.016 c 0.96933,-0.008 1.02933,-1.76267 -0.072,-1.76267 l -5.37867,-0.0627 c -2.30933,0.02 -4.74533,-2.168 -4.62667,-5.08133 0.0253,-2.672 2.68667,-4.776 6.092,-4.776 l 13.71867,-0.0107 3.492,4.16134 3.40667,-4.19867 5.67733,0.0373 -6.224,7.65867 6.72933,8.304 -5.648,-0.0147 -3.91733,-4.76533 -3.72533,4.76533 -5.76267,-0.004 6.56133,-8.212 -2.86,-3.64533 -11.92666,0.016 c -1.30134,0.0107 -1.25334,1.80267 0.0107,1.76933 l 5.02534,0.0667 c 2.12266,0.012 5.11466,1.944 5.04,4.96 0.032,3.50667 -3.576,5.10933 -5.312,5.02267 l -13.15334,0.016 -2.18666,-7.17334 -2.188,7.15734 h -4.15067 l -2.284,-7.12134 -2.00667,7.13334 z"
     inkscape:connector-curvature="0" /><path
     inkscape:connector-curvature="0"
     d="M 251.82609,181.33334 H 224 v -27.82608 h 27.82609 z"
     style="fill:#29678f;fill-opacity:1;fill-rule:nonzero;stroke:none;stroke-width:1.39130414"
     id="path58" /><path
     id="path62"
     style="fill:#3096cf;fill-opacity:1;fill-rule:nonzero;stroke:none;stroke-width:1.39130414"
     d="m 244.91756,169.18657 c 0,0.49252 -0.34504,0.89321 -0.77217,0.89321 h -7.28765 v -5.984 h 7.28765 c 0.42713,0 0.77217,0.39931 0.77217,0.89183 z m 3.82052,-10.68105 h -11.83722 v -4.99756 h -7.33495 v 22.26087 h 19.17217 c 1.70574,0 3.0887,-1.6 3.0887,-3.57287 V 162.077 c 0,-1.97287 -1.38296,-3.57148 -3.0887,-3.57148"
     inkscape:connector-curvature="0" /><path
     inkscape:connector-curvature="0"
     d="m 288,159.07248 h -33.3913 v -5.56522 H 288 Z"
     style="fill:#29678f;fill-opacity:1;fill-rule:nonzero;stroke:none;stroke-width:1.39130414"
     id="path64" /><path
     inkscape:connector-curvature="0"
     d="M 282.43478,164.63769 H 254.6087 v -5.56521 h 27.82608 z"
     style="fill:#3096cf;fill-opacity:1;fill-rule:nonzero;stroke:none;stroke-width:1.39130414"
     id="path66" /><path
     id="path70"
     style="fill:#ffffff;fill-opacity:1;fill-rule:nonzero;stroke:none;stroke-width:1.39130414"
     d="m 259.54769,157.76326 c 0.22957,0 0.41043,-0.0626 0.53982,-0.18644 0.12939,-0.12382 0.1934,-0.29495 0.1934,-0.51478 0,-0.12801 -0.0237,-0.23374 -0.071,-0.31722 -0.0473,-0.0848 -0.10992,-0.15026 -0.18782,-0.20035 -0.0793,-0.0487 -0.16974,-0.0835 -0.27131,-0.10434 -0.10299,-0.0195 -0.20869,-0.0292 -0.31861,-0.0292 H 258.244 v 1.35235 z m -0.26296,-1.79061 c 0.29635,0 0.50783,-0.0529 0.63861,-0.15722 0.12939,-0.103 0.19339,-0.25879 0.19339,-0.46748 0,-0.13913 -0.0209,-0.24904 -0.0654,-0.32834 -0.0431,-0.0807 -0.10434,-0.14331 -0.18087,-0.18644 -0.0765,-0.0446 -0.16556,-0.0723 -0.26573,-0.0848 -0.10018,-0.0125 -0.20731,-0.0195 -0.32001,-0.0195 H 258.244 v 1.24383 z m -0.14191,-1.68209 c 0.0835,0 0.17392,0.001 0.2713,0.003 0.096,10e-4 0.192,0.007 0.28662,0.0167 0.0946,0.009 0.18365,0.0222 0.26573,0.0404 0.0821,0.0195 0.15305,0.0459 0.21148,0.0835 0.12661,0.0765 0.23653,0.18226 0.32557,0.31721 0.089,0.13497 0.13356,0.30053 0.13356,0.4981 0,0.20869 -0.0501,0.38817 -0.15026,0.53982 -0.10017,0.15165 -0.24347,0.26296 -0.42991,0.3367 v 0.0112 c 0.2407,0.0501 0.42574,0.16 0.55374,0.32835 0.12799,0.16834 0.192,0.37286 0.192,0.61356 0,0.14191 -0.0264,0.28104 -0.078,0.41601 -0.0501,0.13495 -0.1266,0.2546 -0.22678,0.35895 -0.10017,0.10435 -0.224,0.18783 -0.37287,0.25182 -0.14748,0.064 -0.31861,0.096 -0.512,0.096 h -1.88939 v -3.91095 z"
     inkscape:connector-curvature="0" /><path
     id="path74"
     style="fill:#ffffff;fill-opacity:1;fill-rule:nonzero;stroke:none;stroke-width:1.39130414"
     d="m 267.01691,154.29071 v 3.47269 h 2.07026 v 0.43826 h -2.59061 v -3.91095 z"
     inkscape:connector-curvature="0" /><path
     id="path78"
     style="fill:#ffffff;fill-opacity:1;fill-rule:nonzero;stroke:none;stroke-width:1.39130414"
     d="m 276.37162,157.91393 c -0.26714,0.25044 -0.64696,0.37566 -1.13948,0.37566 -0.50366,0 -0.89739,-0.11966 -1.17983,-0.35896 -0.28383,-0.2393 -0.42434,-0.62053 -0.42434,-1.14226 v -2.49739 h 0.52034 v 2.49739 c 0,0.3506 0.0932,0.61635 0.27965,0.79721 0.18505,0.18088 0.45357,0.27131 0.80418,0.27131 0.33252,0 0.58573,-0.0905 0.75826,-0.27131 0.17391,-0.18086 0.26017,-0.44661 0.26017,-0.79721 v -2.49739 h 0.52035 v 2.49739 c 0,0.50086 -0.13217,0.87513 -0.3993,1.12556"
     inkscape:connector-curvature="0" /><path
     id="path82"
     style="fill:#ffffff;fill-opacity:1;fill-rule:nonzero;stroke:none;stroke-width:1.39130414"
     d="m 284.86845,154.29071 v 0.43826 h -2.18017 v 1.24382 h 2.03269 v 0.43826 h -2.03269 v 1.35235 h 2.19686 v 0.43826 h -2.71721 v -3.91095 z"
     inkscape:connector-curvature="0" /><path
     id="path86"
     style="fill:#ffffff;fill-opacity:1;fill-rule:nonzero;stroke:none;stroke-width:1.39130414"
     d="m 259.28083,159.95957 1.23269,3.28626 1.23688,-3.28626 h 0.71234 v 3.91095 h -0.49252 v -3.25426 h -0.0112 l -1.22157,3.25426 h -0.44382 l -1.22157,-3.25426 h -0.009 v 3.25426 h -0.49392 v -3.91095 z"
     inkscape:connector-curvature="0" /><path
     id="path90"
     style="fill:#ffffff;fill-opacity:1;fill-rule:nonzero;stroke:none;stroke-width:1.39130414"
     d="m 268.93788,160.49356 c -0.17392,-0.12522 -0.39514,-0.18922 -0.66504,-0.18922 -0.10992,0 -0.21844,0.0112 -0.32418,0.0334 -0.10574,0.0222 -0.19896,0.0584 -0.28104,0.1099 -0.0821,0.0501 -0.14887,0.11966 -0.19757,0.20453 -0.0501,0.0863 -0.0738,0.19338 -0.0738,0.32 0,0.12104 0.0347,0.21843 0.10713,0.29356 0.0709,0.0751 0.16557,0.13635 0.28382,0.18365 0.11827,0.0473 0.25322,0.0863 0.40348,0.11826 0.14888,0.0306 0.30191,0.064 0.45635,0.10018 0.15583,0.0376 0.30748,0.0807 0.45774,0.12939 0.15026,0.0487 0.28383,0.11548 0.40209,0.20034 0.11965,0.0835 0.21426,0.18923 0.28522,0.31722 0.071,0.12801 0.10712,0.288 0.10712,0.4814 0,0.2087 -0.0473,0.38678 -0.14051,0.53426 -0.0932,0.14886 -0.21148,0.26852 -0.35757,0.36173 -0.14609,0.0932 -0.31026,0.16001 -0.49113,0.20314 -0.18087,0.0417 -0.36035,0.0626 -0.53983,0.0626 -0.21843,0 -0.42574,-0.0279 -0.62052,-0.0821 -0.19618,-0.0543 -0.36731,-0.13774 -0.51478,-0.24903 -0.14887,-0.11131 -0.26574,-0.25461 -0.35061,-0.42714 -0.0863,-0.17391 -0.12939,-0.37843 -0.12939,-0.61634 h 0.49252 c 0,0.16417 0.032,0.30608 0.096,0.42434 0.064,0.11827 0.14887,0.21566 0.25322,0.29357 0.10299,0.0765 0.22399,0.13217 0.36313,0.16973 0.13913,0.0362 0.28104,0.0543 0.42713,0.0543 0.11687,0 0.23513,-0.0112 0.35339,-0.0334 0.11826,-0.0209 0.22539,-0.0584 0.32139,-0.11129 0.0947,-0.0529 0.17114,-0.12522 0.22957,-0.21705 0.0584,-0.0905 0.0876,-0.2073 0.0876,-0.35061 0,-0.13496 -0.0362,-0.24487 -0.10713,-0.32835 -0.071,-0.0835 -0.16557,-0.15304 -0.28522,-0.20591 -0.11826,-0.0529 -0.25183,-0.0946 -0.40209,-0.128 -0.15026,-0.0334 -0.30191,-0.0668 -0.45773,-0.10153 -0.15444,-0.0348 -0.30748,-0.0751 -0.45636,-0.12104 -0.15026,-0.0446 -0.28521,-0.10575 -0.40347,-0.17948 -0.11827,-0.0751 -0.21287,-0.17253 -0.28382,-0.29079 -0.0723,-0.11826 -0.10714,-0.26713 -0.10714,-0.44661 0,-0.19756 0.0404,-0.3673 0.11966,-0.512 0.0807,-0.14469 0.18782,-0.26296 0.32139,-0.35617 0.13217,-0.0932 0.28383,-0.16278 0.45356,-0.2087 0.16974,-0.0446 0.34504,-0.0681 0.52313,-0.0681 0.20174,0 0.38818,0.0237 0.55931,0.071 0.17113,0.0487 0.32278,0.12243 0.45217,0.22539 0.12939,0.10153 0.23095,0.23096 0.30608,0.38539 0.0751,0.15582 0.11687,0.34087 0.12383,0.55652 h -0.49391 c -0.0292,-0.28104 -0.12939,-0.48418 -0.3033,-0.61078"
     inkscape:connector-curvature="0" /><path
     id="path94"
     style="fill:#ffffff;fill-opacity:1;fill-rule:nonzero;stroke:none;stroke-width:1.39130414"
     d="m 275.19374,159.95957 h 0.6247 l 0.97529,1.52765 1.01844,-1.52765 h 0.58017 l -1.29251,1.90052 1.3746,2.01043 H 277.84 l -1.05183,-1.61669 -1.08522,1.61669 h -0.58017 l 1.35791,-2.01043 z"
     inkscape:connector-curvature="0" /></svg>
