<?xml version="1.0" encoding="UTF-8" standalone="no"?>
<svg
   xmlns:dc="http://purl.org/dc/elements/1.1/"
   xmlns:cc="http://creativecommons.org/ns#"
   xmlns:rdf="http://www.w3.org/1999/02/22-rdf-syntax-ns#"
   xmlns:svg="http://www.w3.org/2000/svg"
   xmlns="http://www.w3.org/2000/svg"
   xmlns:sodipodi="http://sodipodi.sourceforge.net/DTD/sodipodi-0.dtd"
   xmlns:inkscape="http://www.inkscape.org/namespaces/inkscape"
   viewBox="0 0 341.33334 341.33334"
   height="256"
   width="256"
   xml:space="preserve"
   id="svg2"
   version="1.1"
   sodipodi:docname="Nintendo - Family Computer Disk System-content.svg"
   inkscape:version="0.92.2 (5c3e80d, 2017-08-06)"
   inkscape:export-filename="C:\Users\Alfre\AppData\Roaming\RetroArch\assets\xmb\custom\png\Nintendo - Family Computer Disk System-content.png"
   inkscape:export-xdpi="96"
   inkscape:export-ydpi="96"><sodipodi:namedview
     pagecolor="#ffffff"
     bordercolor="#666666"
     borderopacity="1"
     objecttolerance="10"
     gridtolerance="10"
     guidetolerance="10"
     inkscape:pageopacity="0"
     inkscape:pageshadow="2"
     inkscape:window-width="1920"
     inkscape:window-height="1001"
     id="namedview167"
     showgrid="false"
     inkscape:pagecheckerboard="true"
     inkscape:zoom="0.69140623"
     inkscape:cx="-944.13206"
     inkscape:cy="154.49074"
     inkscape:window-x="-9"
     inkscape:window-y="-9"
     inkscape:window-maximized="1"
     inkscape:current-layer="svg2" /><metadata
     id="metadata8"><rdf:RDF><cc:Work
         rdf:about=""><dc:format>image/svg+xml</dc:format><dc:type
           rdf:resource="http://purl.org/dc/dcmitype/StillImage" /><dc:title /></cc:Work></rdf:RDF></metadata><defs
     id="defs6"><clipPath
       id="clipPath18"
       clipPathUnits="userSpaceOnUse"><path
         id="path16"
         d="M 0,256 H 256 V 0 H 0 Z" /></clipPath><clipPath
       id="clipPath26"
       clipPathUnits="userSpaceOnUse"><path
         id="path24"
         d="M 20,252 H 236 V 3.99998 H 20 Z" /></clipPath></defs><path
     style="fill:#eac500;fill-opacity:1;fill-rule:nonzero;stroke:none;stroke-width:0.99999994"
     d="M 223.72266 12.001953 C 223.56305 11.998276 223.40203 12.003594 223.23828 12.019531 L 204.18945 12.019531 L 200 16 L 151.80859 16 L 148 12.019531 L 108 12.019531 L 104.18945 16 L 56.570312 16 L 51.808594 12.019531 L 32.761719 12.019531 C 30.127719 12.019531 28 14.094156 28 16.660156 L 28 239.35938 C 28 241.54637 30.516719 244 32.761719 244 L 223.23828 244 C 226.42628 244 228 241.90937 228 239.35938 L 228 16.660156 C 228 14.254531 226.11679 12.057108 223.72266 12.001953 z M 128 112 C 132.475 112 136 115.559 136 120 C 136 124.441 132.475 128 128 128 C 123.525 128 120 124.47499 120 120 C 120 115.525 123.525 112 128 112 z "
     transform="scale(1.3333334)"
     id="path38" /><path
     style="fill:#d4a600;fill-opacity:1;fill-rule:nonzero;stroke:none;stroke-width:0.99999994"
     d="M 108 12.019531 L 104 16 L 104 118.73047 C 104 133.09447 113.5999 144 127.96289 144 C 142.08689 144 152 132.85447 152 118.73047 L 152 16 L 148 12.019531 L 108 12.019531 z M 128 112 C 132.475 112 136 115.559 136 120 C 136 124.441 132.475 128 128 128 C 123.525 128 120 124.47499 120 120 C 120 115.525 123.525 112 128 112 z "
     transform="scale(1.3333334)"
     id="path42" /><path
     inkscape:connector-curvature="0"
     d="M 181.33333,117.33334 H 160 V 26.666671 h 21.33333 z"
     style="fill:#433d39;fill-opacity:1;fill-rule:nonzero;stroke:none;stroke-width:1.33333325;font-variant-east_asian:normal;opacity:1;vector-effect:none;stroke-linecap:butt;stroke-linejoin:miter;stroke-miterlimit:4;stroke-dasharray:none;stroke-dashoffset:0;stroke-opacity:1"
     id="path44" /><path
     id="path48"
     style="fill:#d4a600;fill-opacity:1;fill-rule:nonzero;stroke:none;stroke-width:1.33333325"
     d="M 251.89746,205.33333 H 89.436131 c -5.202667,0 -9.436,4.91733 -9.436,10.96267 v 58.07466 c 0,6.04533 4.233333,10.96267 9.436,10.96267 H 251.89746 c 5.20267,0 9.436,-4.91734 9.436,-10.96267 V 216.296 c 0,-6.04534 -4.23333,-10.96267 -9.436,-10.96267"
     inkscape:connector-curvature="0" /><path
     id="path52"
     style="fill:#e6e6e6;fill-opacity:1;fill-rule:nonzero;stroke:none;stroke-width:1.33333325"
     d="m 251.89746,208 c 3.744,0 6.76933,3.708 6.76933,8.296 v 58.07467 c 0,4.58799 -3.02533,8.29599 -6.76933,8.29599 H 89.436131 c -3.744,0 -6.769333,-3.708 -6.769333,-8.29599 V 216.296 c 0,-4.588 3.025333,-8.296 6.769333,-8.296 z"
     inkscape:connector-curvature="0" /><path
     id="path56"
     style="fill:#d4a600;fill-opacity:1;fill-rule:nonzero;stroke:none;stroke-width:1.33333325"
     d="m 95.999998,319.9636 -10.666666,0.036 v -26.66667 h 10.666666 z"
     inkscape:connector-curvature="0" /><path
     id="path60"
     style="fill:#d4a600;fill-opacity:1;fill-rule:nonzero;stroke:none;stroke-width:1.33333325"
     d="m 223.99999,293.33333 h -26.66667 v 7.48533 h 9.08534 V 320 h 8.496 v -19.18134 h 9.08533 z"
     inkscape:connector-curvature="0" /><path
     id="path64"
     style="fill:#d4a600;fill-opacity:1;fill-rule:nonzero;stroke:none;stroke-width:1.33333325"
     d="m 192,300.81866 v -7.48533 h -18.17067 -8.496 v 26.66666 h 8.496 H 192 v -7.48533 h -18.17067 v -2.10533 H 192 v -7.48534 h -18.17067 v -2.10533 z"
     inkscape:connector-curvature="0" /><path
     inkscape:connector-curvature="0"
     d="M 281.39333,313.48666 H 267.93866 V 300.032 h 13.45467 z m -0.66667,-20.06 h -12.12 c -4,0 -7.27333,3.27334 -7.27333,7.27334 v 12.12 c 0,4 3.27333,7.27333 7.27333,7.27333 h 12.12 c 4,0 7.27333,-3.27333 7.27333,-7.27333 V 300.7 c 0,-4 -3.27333,-7.27334 -7.27333,-7.27334"
     style="fill:#d4a600;fill-opacity:1;fill-rule:nonzero;stroke:none;stroke-width:1.33333325"
     id="path66" /><path
     inkscape:connector-curvature="0"
     d="m 152.672,302.69066 h -11.01334 v -1.872 H 152.672 Z m 7.328,-0.82 c 0,-4.53333 -3.55067,-8.23066 -8.03334,-8.51066 l 0.001,-0.0267 h -10.176 -8.45867 V 320 h 8.45867 v -7.48534 -1.228 -0.87733 h 3.79066 L 150.24933,320 h 8.45867 l -4.84534,-9.95867 C 157.408,308.996 160,305.74133 160,301.87066"
     style="fill:#d4a600;fill-opacity:1;fill-rule:nonzero;stroke:none;stroke-width:1.33333325"
     id="path68" /><path
     inkscape:connector-curvature="0"
     d="m 248.67199,302.69066 h -11.01333 v -1.872 h 11.01333 z m 7.328,-0.82 c 0,-4.53333 -3.55066,-8.23066 -8.03333,-8.51066 l 0.001,-0.0267 h -10.176 -8.45866 V 320 h 8.45866 v -7.48534 -1.228 -0.87733 h 3.79067 l 4.667,9.59067 h 8.45866 l -4.84533,-9.95867 c 3.54533,-1.04533 6.13733,-4.3 6.13733,-8.17067"
     style="fill:#d4a600;fill-opacity:1;fill-rule:nonzero;stroke:none;stroke-width:1.33333325"
     id="path70" /><path
     inkscape:connector-curvature="0"
     d="m 120.74,302.69066 h -10.97734 v -1.872 H 120.74 Z m 0,9.824 h -10.97734 v -1.872 H 120.74 Z m 2.988,-5.73066 c 2.51066,-1.06534 4.272,-3.55067 4.272,-6.448 0,-3.868 -3.13867,-7.00267 -7.01067,-7.00267 H 109.764 101.33333 V 320 h 8.43067 3.36533 6.152 3.416 C 125.73866,319.23466 128,316.50666 128,313.23066 c 0,-2.896 -1.76134,-5.38133 -4.272,-6.44666"
     style="fill:#d4a600;fill-opacity:1;fill-rule:nonzero;stroke:none;stroke-width:1.33333325"
     id="path72" /><path
     id="path76"
     style="fill:#d4a600;fill-opacity:1;fill-rule:nonzero;stroke:none;stroke-width:1.33333325"
     d="m 63.999998,314.66666 v -21.33333 h -5.333333 -5.333333 v 19.18133 2.152 5.33333 h 8.495999 18.170667 v -5.33333 z"
     inkscape:connector-curvature="0" /><path
     inkscape:connector-curvature="0"
     d="M 69.333332,282.66666 H 42.666666 v -15.99999 h 26.666666 z"
     style="fill:#d4a600;fill-opacity:1;fill-rule:nonzero;stroke:none;stroke-width:1.33333325"
     id="path78" /><path
     inkscape:connector-curvature="0"
     d="m 298.66666,285.33333 h -26.66667 v -18.66666 h 26.66667 z"
     style="fill:#d4a600;fill-opacity:1;fill-rule:nonzero;stroke:none;stroke-width:1.33333325"
     id="path80" /><path
     inkscape:connector-curvature="0"
     d="M 63.999998,85.58667 H 37.333332 v -16 h 26.666666 z"
     style="fill:#d4a600;fill-opacity:1;fill-rule:nonzero;stroke:none;stroke-width:1.33333325"
     id="path82" /><path
     id="path86"
     style="fill:#262626;fill-opacity:1;fill-rule:nonzero;stroke:none;stroke-width:1.33333325"
     d="M 251.99999,208 H 89.333327 c -3.681333,0 -6.666666,2.98533 -6.666666,6.66667 V 224 H 258.66666 v -9.33333 c 0,-3.68134 -2.98534,-6.66667 -6.66667,-6.66667"
     inkscape:connector-curvature="0" /><path
     inkscape:connector-curvature="0"
     d="M 303.99999,85.333336 H 277.33333 V 69.333337 h 26.66666 z"
     style="fill:#d4a600;fill-opacity:1;fill-rule:nonzero;stroke:none;stroke-width:1.33333325"
     id="path88" /><path
     style="fill:#303121;fill-opacity:1;fill-rule:nonzero;stroke:none;stroke-width:0.99999994"
     d="M 128 98 C 116.068 98 106 107.471 106 120 C 106 132.529 115.919 142 128 142 C 140.081 142 150 132.305 150 120 C 150 107.695 139.932 98 128 98 z M 128 112 C 132.475 112 136 115.559 136 120 C 136 124.441 132.475 128 128 128 C 123.525 128 120 124.47499 120 120 C 120 115.525 123.525 112 128 112 z "
     transform="scale(1.3333334)"
     id="path92" /><path
     style="fill:#e6e6e6;fill-opacity:1;fill-rule:nonzero;stroke:#e6e6e6;stroke-width:0.99999994;stroke-opacity:1"
     d="M 128 102 C 118.142 102 110 110.066 110 120 C 110 129.934 117.78 138 128 138 C 138.22 138 146 130.22 146 120 C 146 109.78 137.858 102 128 102 z M 128 112 C 132.475 112 136 115.559 136 120 C 136 124.441 132.475 128 128 128 C 123.525 128 120 124.47499 120 120 C 120 115.525 123.525 112 128 112 z "
     transform="scale(1.3333334)"
     id="path96" /><path
     id="path104"
     style="fill:#262626;fill-opacity:1;fill-rule:nonzero;stroke:none;stroke-width:1.33333325"
     d="M 258.66666,266.66667 H 82.666664 V 276 c 0,3.68134 2.985334,6.66667 6.666667,6.66667 H 251.99999 c 3.68134,0 6.66667,-2.98533 6.66667,-6.66667 z"
     inkscape:connector-curvature="0" /><path
     inkscape:connector-curvature="0"
     d="M 106.66666,256 H 85.333331 v -21.33333 h 21.333329 z"
     style="fill:#262626;fill-opacity:1;fill-rule:nonzero;stroke:none;stroke-width:1.33333325"
     id="path106" /><path
     id="path110"
     style="fill:#eac500;fill-opacity:1;fill-rule:nonzero;stroke:none;stroke-width:1.33333325"
     d="m 100.73253,220.01147 c -0.45867,-0.148 -0.38,-0.50133 -0.38,-0.85467 0,-0.15333 0.004,-0.30666 0.001,-0.46 h 0.007 c -10e-4,-0.056 -0.003,-0.112 -0.005,-0.168 -0.007,-0.156 0.048,-0.236 0.168,-0.316 1.072,-0.70933 1.08266,-2.072 0.0173,-2.80133 -0.16533,-0.11333 -0.18533,-0.236 -0.184,-0.416 0.003,-1.06 0.004,-2.11867 0,-3.17867 -0.003,-0.77466 -0.34133,-1.148 -1.030667,-1.14933 -1.098666,-0.001 -2.197333,0 -3.297333,0 -1.098667,0 -2.198666,-0.001 -3.297333,0 -0.769333,0 -1.081333,0.35733 -1.082667,1.24 0,1.00933 -0.0053,2.02 0.004,3.02933 0.0013,0.0787 -0.0053,0.14667 -0.01867,0.20667 h -0.032 l 0.01467,0.0573 c -0.036,0.1 -0.102666,0.18 -0.217333,0.26 -0.874667,0.60134 -1,1.91467 -0.193333,2.52267 0.141333,0.10533 0.24,0.21467 0.309333,0.32933 h -0.0053 c 0.136,0.22667 0.156,0.47867 0.134666,0.78667 -0.0093,0.13467 -0.01067,0.272 0.0013,0.40667 0.02,0.22533 -0.03467,0.344 -0.253334,0.41733 -0.314666,0.104 -0.46,0.43333 -0.412,0.78267 0.05067,0.36933 0.245334,0.56266 0.601334,0.59066 0.945333,0.072 1.892,0.012 2.838666,0.0347 0.149333,0.004 0.233333,-0.052 0.297333,-0.21467 0.238667,-0.612 0.666667,-0.92666 1.254667,-0.93733 0.616,-0.0107 1.061333,0.30933 1.314667,0.94933 0.056,0.144 0.129333,0.20534 0.270666,0.20267 0.956,-0.0227 1.913334,0.0293 2.870668,-0.032 0.304,-0.0187 0.48933,-0.18533 0.56933,-0.50133 0.0827,-0.332 0.012,-0.69734 -0.26533,-0.78667"
     inkscape:connector-curvature="0" /><path
     inkscape:connector-curvature="0"
     d="m 100.856,215.25733 h -9.709336 v -1.26266 H 100.856 Z"
     style="fill:#262626;fill-opacity:1;fill-rule:nonzero;stroke:none;stroke-width:1.33333325"
     id="path112" /><path
     id="path116"
     style="fill:#262626;fill-opacity:1;fill-rule:nonzero;stroke:none;stroke-width:1.33333325"
     d="m 99.775331,214.60173 c -0.0027,1.204 -0.872,2.18 -1.933333,2.17333 -1.061334,-0.008 -1.924,-0.99866 -1.913334,-2.19733 0.01067,-1.18267 0.873334,-2.152 1.92,-2.156 1.06,-0.004 1.929334,0.98 1.926667,2.18"
     inkscape:connector-curvature="0" /><path
     id="path120"
     style="fill:#262626;fill-opacity:1;fill-rule:nonzero;stroke:none;stroke-width:1.33333325"
     d="m 96.070931,214.60173 c -0.0027,1.204 -0.872,2.18 -1.933333,2.17333 -1.061334,-0.008 -1.924,-0.99866 -1.913334,-2.19733 0.01067,-1.18267 0.873334,-2.152 1.92,-2.156 1.06,-0.004 1.929334,0.98 1.926667,2.18"
     inkscape:connector-curvature="0" /><path
     id="path124"
     style="fill:#ffffff;fill-opacity:1;fill-rule:nonzero;stroke:none;stroke-width:1.33333325"
     d="m 99.581598,214.59533 c 0,1.08133 -0.774667,1.95733 -1.729333,1.95733 -0.954667,0 -1.729334,-0.876 -1.729334,-1.95733 0,-1.08133 0.774667,-1.95733 1.729334,-1.95733 0.954666,0 1.729333,0.876 1.729333,1.95733"
     inkscape:connector-curvature="0" /><path
     id="path128"
     style="fill:#262626;fill-opacity:1;fill-rule:nonzero;stroke:none;stroke-width:1.33333325"
     d="m 98.396664,215.36947 c 0,0.34 -0.244,0.616 -0.544,0.616 -0.301333,0 -0.545333,-0.276 -0.545333,-0.616 0,-0.34 0.244,-0.616 0.545333,-0.616 0.3,0 0.544,0.276 0.544,0.616"
     inkscape:connector-curvature="0" /><path
     id="path132"
     style="fill:#ffffff;fill-opacity:1;fill-rule:nonzero;stroke:none;stroke-width:1.33333325"
     d="m 95.877198,214.59533 c 0,1.08133 -0.774667,1.95733 -1.729333,1.95733 -0.954667,0 -1.729334,-0.876 -1.729334,-1.95733 0,-1.08133 0.774667,-1.95733 1.729334,-1.95733 0.954666,0 1.729333,0.876 1.729333,1.95733"
     inkscape:connector-curvature="0" /><path
     id="path136"
     style="fill:#262626;fill-opacity:1;fill-rule:nonzero;stroke:none;stroke-width:1.33333325"
     d="m 94.692264,215.36947 c 0,0.34 -0.244,0.616 -0.544,0.616 -0.301333,0 -0.545333,-0.276 -0.545333,-0.616 0,-0.34 0.244,-0.616 0.545333,-0.616 0.3,0 0.544,0.276 0.544,0.616"
     inkscape:connector-curvature="0" /><path
     id="path140"
     style="fill:#262626;fill-opacity:1;fill-rule:nonzero;stroke:none;stroke-width:1.33333325"
     d="m 97.225864,217.82987 c -0.24,0.22 -0.698667,0.36933 -1.225333,0.36933 -0.528,0 -0.986667,-0.14933 -1.226667,-0.36933 -0.112,0.10267 -0.176,0.22133 -0.176,0.348 0,0.396 0.628,0.71733 1.402667,0.71733 0.774666,0 1.401333,-0.32133 1.401333,-0.71733 0,-0.12667 -0.064,-0.24533 -0.176,-0.348"
     inkscape:connector-curvature="0" /><path
     id="path144"
     style="fill:#333333;fill-opacity:1;fill-rule:nonzero;stroke:none;stroke-width:1.33333325"
     d="m 118.42786,272.62773 h 1.932 v 0.692 h 1.044 v 0.50933 h -1.044 l 0.001,3.416 h -1.93466 l 0.001,-3.416 h -1.04933 v -0.508 h 1.05066 z"
     inkscape:connector-curvature="0" /><path
     inkscape:connector-curvature="0"
     d="m 95.797331,273.82267 h 1.930667 v 3.42266 h -1.930667 z"
     style="fill:#333333;fill-opacity:1;fill-rule:nonzero;stroke:none;stroke-width:1.33333325"
     id="path146" /><path
     inkscape:connector-curvature="0"
     d="m 95.793331,272.09733 h 1.934667 v 1.052 h -1.934667 z"
     style="fill:#333333;fill-opacity:1;fill-rule:nonzero;stroke:none;stroke-width:1.33333325"
     id="path148" /><path
     id="path152"
     style="fill:#333333;fill-opacity:1;fill-rule:nonzero;stroke:none;stroke-width:1.33333325"
     d="m 131.2876,275.38986 v 0 c 0,0.009 -0.001,0.51867 -0.001,0.72267 0,0.54666 -0.40267,0.77066 -0.79067,0.77066 -0.38533,0 -0.78933,-0.224 -0.78933,-0.77066 v -0.73734 c 0,0 0.001,-0.50666 0.001,-0.71333 0,-0.54267 0.404,-0.76667 0.788,-0.76667 0.38667,0 0.79067,0.224 0.79067,0.76667 0,0.20667 0,0.59067 0.001,0.728 v -10e-4 z m -0.77467,-1.91867 c -1.56,0 -2.82266,0.86 -2.82266,1.92134 0,1.06133 1.26266,1.92266 2.82266,1.92266 1.55867,0 2.82,-0.86133 2.82,-1.92266 0,-1.06134 -1.26133,-1.92134 -2.82,-1.92134"
     inkscape:connector-curvature="0" /><path
     id="path156"
     style="fill:#333333;fill-opacity:1;fill-rule:nonzero;stroke:none;stroke-width:1.33333325"
     d="m 100.77333,274.89506 c 0,-0.53067 0.456,-0.66533 0.756,-0.66533 0.308,0 0.75733,0.13466 0.75733,0.66533 0,0.17467 -0.001,0.608 -0.001,0.608 0,0 0.001,0.428 0.001,0.61067 0,0.528 -0.44933,0.66666 -0.756,0.66666 -0.30133,0 -0.75733,-0.13866 -0.75733,-0.66666 v -0.608 z m -1.892,-2.80667 v 5.14667 h 1.90933 c 0,0 10e-4,-0.16667 10e-4,-0.19867 0.73866,0.372 1.572,0.37067 2.22266,0.12934 0.17334,-0.0653 1.32,-0.50667 1.32,-1.69734 0,-0.904 -1.064,-1.89066 -2.45466,-1.792 -0.45734,0.032 -0.78534,0.16534 -1.092,0.30534 v -1.89334 z"
     inkscape:connector-curvature="0" /><path
     id="path160"
     style="fill:#333333;fill-opacity:1;fill-rule:nonzero;stroke:none;stroke-width:1.33333325"
     d="m 113.78733,274.2084 c 0.15067,-0.21067 0.42667,-0.312 0.67867,-0.312 h -10e-4 10e-4 v 0 c 0.252,0 0.52933,0.10133 0.68,0.312 0.12133,0.17067 0.128,0.37067 0.12533,0.672 h -1.612 c -0.004,-0.30133 0.004,-0.50133 0.128,-0.672 m 1.47867,1.91067 c 0,0.62666 -0.51467,0.76533 -0.8,0.76533 -0.284,0 -0.80667,-0.13867 -0.80667,-0.76533 0,-0.188 0.001,-0.70667 0.001,-0.70667 0,0 3.636,0.001 3.636,0 0,-1.06133 -1.27733,-1.94133 -2.848,-1.94133 -1.56933,0 -2.84266,0.86 -2.84266,1.92266 0,1.06 1.27333,1.92134 2.84266,1.92134 1.30267,0 2.40267,-0.596 2.74,-1.404 l -1.924,0.001 c 0,0 0.001,0.0147 0.001,0.20667"
     inkscape:connector-curvature="0" /><path
     id="path164"
     style="fill:#333333;fill-opacity:1;fill-rule:nonzero;stroke:none;stroke-width:1.33333325"
     d="m 92.600264,276.7368 v -4.66267 h -1.933333 v 4.66267 0.508 h 1.933333 2.092 v -0.508 z"
     inkscape:connector-curvature="0" /><path
     id="path168"
     style="fill:#333333;fill-opacity:1;fill-rule:nonzero;stroke:none;stroke-width:1.33333325"
     d="m 125.45346,275.07586 h 1.892 c -0.19467,-1.10533 -1.48533,-1.42533 -2.14933,-1.41067 -0.63867,0.016 -1.16934,0.23467 -1.54,0.51734 -0.001,-0.084 0,-0.36 0,-0.36 l -1.916,0.001 -10e-4,3.42133 h 1.91734 c 0,0 -0.001,-2.10133 -0.001,-2.24666 0,-0.29867 0.39067,-0.63067 0.916,-0.63067 0.52534,0 0.88267,0.332 0.88267,0.63067 z"
     inkscape:connector-curvature="0" /><path
     id="path172"
     style="fill:#333333;fill-opacity:1;fill-rule:nonzero;stroke:none;stroke-width:1.33333325"
     d="m 107.37173,273.82707 v -0.608 c 0,-0.52667 0.456,-0.66533 0.75733,-0.66533 0.30667,0 0.756,0.13866 0.756,0.66533 0,0.18267 -10e-4,0.61067 -10e-4,0.61067 0,0 10e-4,0.43333 10e-4,0.608 0,0.53066 -0.44933,0.66533 -0.75733,0.66533 -0.3,0 -0.756,-0.13467 -0.756,-0.66533 z m 3.56133,0.0387 c 0,-1.192 -1.14666,-1.632 -1.32,-1.69734 -0.65066,-0.24133 -1.484,-0.24266 -2.22266,0.128 0,-0.0307 -0.001,-0.19733 -0.001,-0.19733 h -1.90933 v 5.14667 h 1.90667 v -1.89467 c 0.008,0.004 0.016,0.008 0.024,0.0107 l 1.496,1.884 h 1.892 l -1.35067,-1.7 c 0.88667,-0.27867 1.48533,-1.00267 1.48533,-1.68"
     inkscape:connector-curvature="0" /><path
     id="path176"
     style="fill:#eac500;fill-opacity:1;fill-rule:nonzero;stroke:none;stroke-width:1.33333325"
     d="m 109.65773,213.39573 v 0.65067 h -2.224 v 1.60666 h 2.14133 v 0.648 h -2.14133 v 2.27334 h -0.76667 v -5.17867 z"
     inkscape:connector-curvature="0" /><path
     id="path180"
     style="fill:#eac500;fill-opacity:1;fill-rule:nonzero;stroke:none;stroke-width:1.33333325"
     d="m 112.09146,216.28427 h 1.40533 v -1.86 z m -1.72,2.29067 h -0.908 l 3.908,-5.17867 h 0.892 v 5.17867 h -0.76667 v -1.64267 h -1.888 z"
     inkscape:connector-curvature="0" /><path
     id="path184"
     style="fill:#eac500;fill-opacity:1;fill-rule:nonzero;stroke:none;stroke-width:1.33333325"
     d="M 115.20173,218.57467 V 213.396 h 1.02933 l 1.92,4.092 1.928,-4.092 h 1.02934 v 5.17867 h -0.768 V 214.496 l -1.88667,4.07867 h -0.612 l -1.872,-4.07467 v 4.07467 z"
     inkscape:connector-curvature="0" /><path
     inkscape:connector-curvature="0"
     d="m 122.784,218.57467 h -0.768 V 213.396 h 0.768 z"
     style="fill:#eac500;fill-opacity:1;fill-rule:nonzero;stroke:none;stroke-width:1.33333325"
     id="path186" /><path
     id="path190"
     style="fill:#eac500;fill-opacity:1;fill-rule:nonzero;stroke:none;stroke-width:1.33333325"
     d="m 130.664,217.77947 c -0.592,0.592 -1.32267,0.88667 -2.19467,0.88667 -0.524,0 -1.016,-0.11867 -1.47733,-0.35734 -0.468,-0.244 -0.83067,-0.56933 -1.088,-0.98 -0.25733,-0.40933 -0.38533,-0.85333 -0.38533,-1.33333 0,-0.484 0.13066,-0.932 0.39066,-1.34133 0.26134,-0.40934 0.62134,-0.73067 1.08267,-0.96267 0.47067,-0.236 0.96267,-0.35467 1.47333,-0.35467 0.544,0 1.05334,0.12267 1.52934,0.368 0.49866,0.25867 0.88533,0.65334 1.15866,1.18267 h -0.84 c -0.16666,-0.20533 -0.31466,-0.35733 -0.44266,-0.456 -0.376,-0.3 -0.828,-0.45067 -1.35467,-0.45067 -0.40667,0 -0.78267,0.092 -1.12667,0.27467 -0.344,0.18267 -0.61333,0.43467 -0.808,0.75733 -0.19466,0.32134 -0.292,0.652 -0.292,0.992 0,0.54534 0.21734,1.01734 0.652,1.41334 0.43467,0.396 0.952,0.59466 1.55334,0.59466 0.50533,0 0.96266,-0.156 1.37333,-0.46666 0.14,-0.10667 0.3,-0.26934 0.48133,-0.48667 l 0.0507,0.0333 h 0.77867 c -0.208,0.324 -0.38,0.55334 -0.51467,0.68667"
     inkscape:connector-curvature="0" /><path
     id="path194"
     style="fill:#eac500;fill-opacity:1;fill-rule:nonzero;stroke:none;stroke-width:1.33333325"
     d="m 136.74746,216.02133 c 0,-0.46 -0.14667,-0.864 -0.44133,-1.212 -0.46134,-0.54667 -1.056,-0.81867 -1.78534,-0.81867 -0.62266,0 -1.15866,0.204 -1.608,0.61067 -0.416,0.37733 -0.62266,0.85867 -0.62266,1.44667 l -0.0187,0.032 c 0.008,0.548 0.23067,1.012 0.668,1.392 0.43867,0.38 0.96,0.57066 1.56667,0.57066 0.62,0 1.14933,-0.19866 1.58533,-0.59733 0.43733,-0.39733 0.656,-0.872 0.656,-1.424 m -5.196,0.26667 -0.0293,0.032 c 0,-0.93734 0.27733,-1.65867 0.83333,-2.16134 0.60533,-0.55066 1.328,-0.82533 2.168,-0.82533 0.828,0 1.53467,0.26 2.11867,0.77867 0.584,0.51866 0.876,1.14533 0.876,1.88 0,0.74 -0.28267,1.36133 -0.85067,1.86266 -0.60133,0.53467 -1.316,0.80267 -2.144,0.80267 -0.828,0 -1.53467,-0.26533 -2.12133,-0.796 -0.49467,-0.444 -0.77867,-0.96933 -0.85067,-1.57333"
     inkscape:connector-curvature="0" /><path
     id="path198"
     style="fill:#eac500;fill-opacity:1;fill-rule:nonzero;stroke:none;stroke-width:1.33333325"
     d="M 138.22133,218.57467 V 213.396 h 1.02933 l 1.92,4.092 1.928,-4.092 h 1.02934 v 5.17867 H 143.36 V 214.496 l -1.88667,4.07867 h -0.612 l -1.872,-4.07467 v 4.07467 z"
     inkscape:connector-curvature="0" /><path
     id="path202"
     style="fill:#eac500;fill-opacity:1;fill-rule:nonzero;stroke:none;stroke-width:1.33333325"
     d="m 146.47026,215.92933 c 0.34,0 0.56533,-0.005 0.67333,-0.016 0.36667,-0.036 0.636,-0.18933 0.808,-0.46 0.0893,-0.14133 0.13334,-0.292 0.13334,-0.45333 0,-0.26134 -0.0893,-0.47334 -0.268,-0.63467 -0.16667,-0.15067 -0.39467,-0.244 -0.684,-0.276 -0.056,-0.007 -0.27734,-0.0133 -0.66667,-0.02 l -0.68,-0.009 v 1.86933 z m 0.18533,-2.51067 c 0.72134,0 1.25067,0.12934 1.58934,0.388 0.408,0.31067 0.612,0.708 0.612,1.18934 0,0.28 -0.0773,0.544 -0.232,0.78933 -0.16134,0.25733 -0.37867,0.448 -0.652,0.568 -0.32534,0.144 -0.76134,0.21733 -1.30667,0.21733 h -0.86933 v 2.00134 l -0.77867,0.0293 v -5.18267 z"
     inkscape:connector-curvature="0" /><path
     id="path206"
     style="fill:#eac500;fill-opacity:1;fill-rule:nonzero;stroke:none;stroke-width:1.33333325"
     d="m 150.17826,216.58333 c 0,0.94 0.41067,1.40933 1.23333,1.40933 0.368,0 0.65734,-0.11333 0.868,-0.34 0.20934,-0.22666 0.31334,-0.57866 0.31334,-1.056 v -3.204 h 0.76533 v 3.204 c 0,0.75334 -0.236,1.308 -0.70667,1.66267 -0.35066,0.26533 -0.772,0.39733 -1.268,0.39733 -0.35866,0 -0.696,-0.08 -1.00933,-0.24 -0.33067,-0.16666 -0.57467,-0.39333 -0.732,-0.68 -0.14533,-0.26533 -0.21867,-0.644 -0.22133,-1.13733 l -0.0133,-3.22 h 0.77067 z"
     inkscape:connector-curvature="0" /><path
     id="path210"
     style="fill:#eac500;fill-opacity:1;fill-rule:nonzero;stroke:none;stroke-width:1.33333325"
     d="m 153.7632,214.0464 v -0.65067 h 3.28133 v 0.65067 h -1.25333 v 4.528 h -0.768 v -4.528 z"
     inkscape:connector-curvature="0" /><path
     id="path214"
     style="fill:#eac500;fill-opacity:1;fill-rule:nonzero;stroke:none;stroke-width:1.33333325"
     d="m 160.6108,213.39573 v 0.65067 h -2.452 v 1.59066 h 2.372 v 0.65067 h -2.372 v 1.64 h 2.452 v 0.64667 h -3.21867 v -5.17867 z"
     inkscape:connector-curvature="0" /><path
     id="path218"
     style="fill:#eac500;fill-opacity:1;fill-rule:nonzero;stroke:none;stroke-width:1.33333325"
     d="m 162.85586,213.39573 c 0.69733,0 1.25467,0.11733 1.67333,0.352 0.50667,0.284 0.76,0.72533 0.76,1.324 0,0.596 -0.25733,1.04267 -0.772,1.33733 -0.21733,0.128 -0.468,0.21467 -0.75333,0.26 l 1.56933,1.87867 h -0.964 l -2.024,-2.45067 c 0.576,0 0.91734,-0.004 1.02267,-0.0107 0.336,-0.0187 0.604,-0.11067 0.80667,-0.276 0.23866,-0.18934 0.35733,-0.43467 0.35733,-0.732 0,-0.348 -0.14933,-0.61867 -0.452,-0.812 -0.228,-0.14667 -0.59467,-0.22 -1.09867,-0.22 h -0.84533 v 4.528 h -0.78267 v -5.17867 z"
     inkscape:connector-curvature="0" /><path
     id="path222"
     style="fill:#eac500;fill-opacity:1;fill-rule:nonzero;stroke:none;stroke-width:1.33333325"
     d="m 172.6852,217.30733 c 0.0133,0 0.04,-0.012 0.0773,-0.036 0.0373,-0.024 0.0533,-0.0867 0.0467,-0.188 v -0.272 -0.432 -0.49867 -0.476 -0.364 -0.164 c 0,-0.0267 -0.004,-0.06 -0.0107,-0.1 -0.007,-0.04 -0.024,-0.0733 -0.052,-0.1 -0.0267,-0.0107 -0.0547,-0.016 -0.0813,-0.016 h -0.20667 v 2.64667 z m -0.536,0.232 v -3.11867 h 0.516 c 0.12267,0 0.22267,0.032 0.29733,0.096 0.076,0.0693 0.11867,0.14534 0.12934,0.228 0.0107,0.0827 0.016,0.12934 0.016,0.14 v 0.496 0.47867 0.508 0.44 0.276 c 0,0.0907 -0.0147,0.164 -0.0413,0.22 -0.028,0.056 -0.0613,0.10267 -0.104,0.14 -0.04,0.0373 -0.0853,0.0627 -0.13333,0.076 -0.048,0.0133 -0.092,0.02 -0.13333,0.02 z m 1.432,0.888 c 0.02,0 0.0733,-0.004 0.16,-0.012 0.0853,-0.008 0.176,-0.0333 0.272,-0.076 0.096,-0.0427 0.18267,-0.108 0.25733,-0.196 0.076,-0.088 0.11334,-0.212 0.11334,-0.372 v -3.58267 c 0,-0.016 -0.007,-0.0573 -0.02,-0.124 -0.0133,-0.0667 -0.052,-0.136 -0.11334,-0.208 -0.0613,-0.072 -0.156,-0.13733 -0.28266,-0.196 -0.128,-0.0587 -0.304,-0.088 -0.53067,-0.088 h -2.46133 v 4.85467 z m -2.91467,0.23867 v -5.33334 h 2.77067 c 0.308,0 0.54933,0.0453 0.72,0.132 0.172,0.088 0.29733,0.18534 0.376,0.292 0.08,0.10667 0.132,0.25067 0.16,0.432 v 3.58267 c 0,0.176 -0.04,0.32133 -0.11867,0.43467 -0.0787,0.116 -0.176,0.20666 -0.29333,0.27733 -0.116,0.0693 -0.23867,0.11733 -0.36533,0.14267 -0.12667,0.028 -0.23867,0.04 -0.33467,0.04 z"
     inkscape:connector-curvature="0" /><path
     inkscape:connector-curvature="0"
     d="M 176.68133,213.57333 H 175.404 v 4.84534 h 1.27733 z m -1.576,-0.24 h 1.88533 v 5.32534 h -1.88533 z"
     style="fill:#eac500;fill-opacity:1;fill-rule:nonzero;stroke:none;stroke-width:1.33333325"
     id="path224" /><path
     id="path228"
     style="fill:#eac500;fill-opacity:1;fill-rule:nonzero;stroke:none;stroke-width:1.33333325"
     d="m 177.7312,217.69893 c 0,0.08 0.007,0.148 0.02,0.204 0.0147,0.056 0.036,0.11467 0.068,0.176 0.0307,0.0613 0.0773,0.11867 0.13867,0.172 0.13066,0.112 0.32266,0.168 0.576,0.168 h 0.0107 1.95734 c 0.0133,0 0.0547,-0.004 0.12266,-0.012 0.0693,-0.008 0.14134,-0.032 0.21734,-0.072 0.0747,-0.04 0.14133,-0.10267 0.2,-0.188 0.0587,-0.0853 0.088,-0.20267 0.088,-0.352 v -1.088 c -0.0147,-0.068 -0.036,-0.12933 -0.068,-0.184 -0.0307,-0.052 -0.0787,-0.112 -0.144,-0.17867 -0.0653,-0.0667 -0.15867,-0.13466 -0.28267,-0.204 l -1.70933,-0.848 v -0.48 c 0,-0.0267 0.007,-0.064 0.02,-0.112 0.0133,-0.048 0.048,-0.096 0.104,-0.144 0.0333,-0.0267 0.08,-0.056 0.13866,-0.088 0.0587,-0.032 0.14267,-0.048 0.252,-0.048 0.096,0 0.16934,0.012 0.22134,0.036 0.052,0.024 0.0907,0.0493 0.11866,0.076 0.068,0.0587 0.108,0.11734 0.11867,0.176 0.009,0.0587 0.0147,0.096 0.0147,0.112 v 0.12 l 1.216,0.608 v -1.344 c 0,-0.0147 -0.008,-0.0573 -0.0213,-0.12266 -0.0133,-0.068 -0.0493,-0.14 -0.108,-0.216 -0.0587,-0.0773 -0.14933,-0.14534 -0.27333,-0.204 -0.12267,-0.0587 -0.29467,-0.0893 -0.51467,-0.0893 h -1.76133 c -0.02,0 -0.068,0.005 -0.144,0.0133 -0.0747,0.008 -0.156,0.032 -0.24133,0.072 -0.0867,0.04 -0.16267,0.0987 -0.232,0.17866 -0.068,0.08 -0.10267,0.192 -0.10267,0.336 v 1.208 c 0.02,0.08 0.048,0.14934 0.0827,0.208 0.0333,0.0587 0.0907,0.12267 0.16933,0.192 0.0787,0.0693 0.18667,0.136 0.324,0.2 l 1.60667,0.784 v 0.44667 c 0,0.0267 -0.003,0.0733 -0.009,0.14 -0.008,0.0667 -0.0453,0.132 -0.11333,0.196 -0.0347,0.0267 -0.0773,0.052 -0.12933,0.076 -0.052,0.024 -0.12534,0.036 -0.22134,0.036 -0.096,0 -0.17466,-0.012 -0.23733,-0.036 -0.0613,-0.024 -0.10933,-0.0493 -0.144,-0.076 -0.0747,-0.0587 -0.116,-0.12133 -0.12267,-0.188 -0.008,-0.0667 -0.0107,-0.10533 -0.0107,-0.116 v -0.152 l -1.19467,-0.568 z m 0.80267,0.96 c -0.34934,0 -0.61734,-0.0827 -0.80267,-0.248 -0.0827,-0.0693 -0.144,-0.14267 -0.18533,-0.22 -0.0413,-0.0773 -0.072,-0.152 -0.092,-0.224 -0.0213,-0.072 -0.032,-0.13333 -0.032,-0.184 v -0.092 -1.59867 l 1.812,0.864 v 0.29467 c 0,0.0427 0.0147,0.0813 0.0427,0.116 0.0267,0.0347 0.0787,0.052 0.15334,0.052 0.124,0 0.18533,-0.0613 0.18533,-0.184 v -0.016 -0.32 l -1.472,-0.71867 c -0.17867,-0.08 -0.316,-0.16666 -0.412,-0.26 -0.096,-0.0933 -0.168,-0.17866 -0.216,-0.256 -0.048,-0.0773 -0.076,-0.14266 -0.0827,-0.196 -0.007,-0.0533 -0.0107,-0.0827 -0.0107,-0.088 v -1.208 c 0,-0.24933 0.096,-0.44933 0.28933,-0.6 0.0747,-0.0573 0.156,-0.10266 0.24133,-0.13466 0.0853,-0.032 0.16534,-0.056 0.23734,-0.072 0.072,-0.016 0.15866,-0.0267 0.26133,-0.032 h 1.76133 c 0.24,0 0.44,0.0307 0.59734,0.092 0.15866,0.0613 0.284,0.136 0.376,0.228 0.0933,0.0907 0.15866,0.18666 0.196,0.28666 0.0373,0.10134 0.056,0.18934 0.056,0.264 v 1.784 l -1.82267,-0.92 v -0.256 c 0,-0.0427 -0.0147,-0.0787 -0.0453,-0.108 -0.0307,-0.0293 -0.0813,-0.044 -0.14934,-0.044 -0.076,0 -0.12533,0.0187 -0.14933,0.056 -0.024,0.0373 -0.0373,0.0693 -0.0373,0.096 v 0.344 l 1.56533,0.784 c 0.15867,0.0907 0.28,0.18 0.36667,0.268 0.0853,0.0867 0.14933,0.168 0.19066,0.23867 0.04,0.072 0.0653,0.13333 0.072,0.18 0.007,0.048 0.009,0.076 0.009,0.08 v 1.088 c 0,0.21333 -0.048,0.37867 -0.144,0.496 -0.096,0.11733 -0.20267,0.20267 -0.31867,0.256 -0.11733,0.0533 -0.27467,0.0907 -0.47333,0.112 z"
     inkscape:connector-curvature="0" /><path
     id="path232"
     style="fill:#eac500;fill-opacity:1;fill-rule:nonzero;stroke:none;stroke-width:1.33333325"
     d="m 185.44413,218.41893 v -1.77467 l -0.87467,-0.672 0.87467,-0.68 v -1.71866 h -1.17333 v 1.31066 l -0.90667,0.736 v -2.04666 h -1.216 v 4.84533 h 1.216 v -1.99067 l 0.83467,0.61467 0.02,1.376 z m -1.524,0.24 -0.0213,-1.512 -0.22534,-0.168 v 1.68 h -1.83333 v -5.32533 h 1.83333 v 1.68666 l 0.29867,-0.232 v -1.45466 h 1.78133 v 2.06266 l -0.752,0.576 0.752,0.576 v 2.11067 z"
     inkscape:connector-curvature="0" /><path
     id="path236"
     style="fill:#eac500;fill-opacity:1;fill-rule:nonzero;stroke:none;stroke-width:1.33333325"
     d="m 189.46026,217.69893 c 0,0.08 0.007,0.148 0.02,0.204 0.0147,0.056 0.036,0.11467 0.068,0.176 0.0307,0.0613 0.0773,0.11867 0.13867,0.172 0.13066,0.112 0.32266,0.168 0.576,0.168 h 0.0107 1.95734 c 0.0133,0 0.0547,-0.004 0.12266,-0.012 0.0693,-0.008 0.14134,-0.032 0.21734,-0.072 0.0747,-0.04 0.14133,-0.10267 0.2,-0.188 0.0587,-0.0853 0.088,-0.20267 0.088,-0.352 v -1.088 c -0.0147,-0.068 -0.036,-0.12933 -0.068,-0.184 -0.0307,-0.052 -0.0787,-0.112 -0.144,-0.17867 -0.0653,-0.0667 -0.15867,-0.13466 -0.28267,-0.204 l -1.70933,-0.848 v -0.48 c 0,-0.0267 0.007,-0.064 0.02,-0.112 0.0133,-0.048 0.048,-0.096 0.104,-0.144 0.0333,-0.0267 0.08,-0.056 0.13866,-0.088 0.0587,-0.032 0.14267,-0.048 0.252,-0.048 0.096,0 0.16934,0.012 0.22134,0.036 0.052,0.024 0.0907,0.0493 0.11866,0.076 0.068,0.0587 0.108,0.11734 0.11867,0.176 0.009,0.0587 0.0147,0.096 0.0147,0.112 v 0.12 l 1.216,0.608 v -1.344 c 0,-0.0147 -0.008,-0.0573 -0.0213,-0.12266 -0.0133,-0.068 -0.0493,-0.14 -0.108,-0.216 -0.0587,-0.0773 -0.14933,-0.14534 -0.27333,-0.204 -0.12267,-0.0587 -0.29467,-0.0893 -0.51467,-0.0893 h -1.76 c -0.0213,0 -0.0693,0.005 -0.14533,0.0133 -0.0747,0.008 -0.156,0.032 -0.24133,0.072 -0.0867,0.04 -0.16267,0.0987 -0.232,0.17866 -0.068,0.08 -0.10267,0.192 -0.10267,0.336 v 1.208 c 0.02,0.08 0.048,0.14934 0.0827,0.208 0.0333,0.0587 0.0907,0.12267 0.16933,0.192 0.0787,0.0693 0.18667,0.136 0.324,0.2 l 1.60667,0.784 v 0.44667 c 0,0.0267 -0.003,0.0733 -0.009,0.14 -0.008,0.0667 -0.0453,0.132 -0.11333,0.196 -0.0347,0.0267 -0.0773,0.052 -0.12933,0.076 -0.052,0.024 -0.12534,0.036 -0.22134,0.036 -0.096,0 -0.17466,-0.012 -0.23733,-0.036 -0.0613,-0.024 -0.10933,-0.0493 -0.144,-0.076 -0.0747,-0.0587 -0.116,-0.12133 -0.12267,-0.188 -0.008,-0.0667 -0.0107,-0.10533 -0.0107,-0.116 v -0.152 l -1.19467,-0.568 z m 0.80267,0.96 c -0.34934,0 -0.61734,-0.0827 -0.80267,-0.248 -0.0827,-0.0693 -0.144,-0.14267 -0.18533,-0.22 -0.0413,-0.0773 -0.072,-0.152 -0.092,-0.224 -0.0213,-0.072 -0.032,-0.13333 -0.032,-0.184 v -0.092 -1.59867 l 1.81333,0.864 v 0.29467 c 0,0.0427 0.0133,0.0813 0.0413,0.116 0.0267,0.0347 0.0787,0.052 0.15334,0.052 0.124,0 0.18533,-0.0613 0.18533,-0.184 v -0.016 -0.32 l -1.472,-0.71867 c -0.17867,-0.08 -0.316,-0.16666 -0.412,-0.26 -0.096,-0.0933 -0.168,-0.17866 -0.216,-0.256 -0.048,-0.0773 -0.076,-0.14266 -0.0827,-0.196 -0.007,-0.0533 -0.0107,-0.0827 -0.0107,-0.088 v -1.208 c 0,-0.24933 0.096,-0.44933 0.28933,-0.6 0.0747,-0.0573 0.156,-0.10266 0.24133,-0.13466 0.0853,-0.032 0.16534,-0.056 0.23734,-0.072 0.072,-0.016 0.15866,-0.0267 0.26266,-0.032 h 1.76 c 0.24,0 0.44,0.0307 0.59734,0.092 0.15866,0.0613 0.284,0.136 0.376,0.228 0.0933,0.0907 0.15866,0.18666 0.196,0.28666 0.0373,0.10134 0.056,0.18934 0.056,0.264 v 1.784 l -1.82267,-0.92 v -0.256 c 0,-0.0427 -0.0147,-0.0787 -0.0453,-0.108 -0.0307,-0.0293 -0.0813,-0.044 -0.14934,-0.044 -0.076,0 -0.12533,0.0187 -0.14933,0.056 -0.024,0.0373 -0.036,0.0693 -0.036,0.096 v 0.344 l 1.564,0.784 c 0.15867,0.0907 0.28,0.18 0.36667,0.268 0.0853,0.0867 0.14933,0.168 0.19066,0.23867 0.04,0.072 0.0653,0.13333 0.072,0.18 0.007,0.048 0.009,0.076 0.009,0.08 v 1.088 c 0,0.21333 -0.048,0.37867 -0.144,0.496 -0.096,0.11733 -0.20267,0.20267 -0.31867,0.256 -0.11733,0.0533 -0.27467,0.0907 -0.47333,0.112 z"
     inkscape:connector-curvature="0" /><path
     inkscape:connector-curvature="0"
     d="M 195.14533,213.57333 H 193.868 v 4.84534 h 1.27733 z m -1.576,-0.24 h 1.88533 v 5.32534 h -1.88533 z"
     style="fill:#eac500;fill-opacity:1;fill-rule:nonzero;stroke:none;stroke-width:1.33333325"
     id="path238" /><path
     id="path242"
     style="fill:#eac500;fill-opacity:1;fill-rule:nonzero;stroke:none;stroke-width:1.33333325"
     d="m 200.49959,218.41893 h 1.21467 v -4.29467 c 0,-0.132 -0.0333,-0.23466 -0.10267,-0.30666 -0.068,-0.072 -0.14533,-0.12667 -0.232,-0.164 -0.0853,-0.0373 -0.16667,-0.06 -0.24133,-0.068 -0.076,-0.008 -0.12,-0.012 -0.13334,-0.012 h -1.32933 c -0.10933,0 -0.204,0.0133 -0.28267,0.04 -0.0787,0.0267 -0.144,0.056 -0.196,0.088 -0.052,0.032 -0.10133,0.0773 -0.14933,0.13466 l -0.13333,0.19334 -0.13467,-0.20134 c -0.0413,-0.0627 -0.092,-0.112 -0.15467,-0.14666 -0.0613,-0.0347 -0.12266,-0.06 -0.18533,-0.076 -0.0613,-0.016 -0.14,-0.0267 -0.236,-0.032 h -2.01867 v 4.84533 h 1.10134 v -3.48667 c -0.007,-0.016 -0.003,-0.0627 0.0107,-0.14 0.0133,-0.0773 0.0613,-0.148 0.144,-0.212 0.028,-0.0253 0.0707,-0.052 0.12934,-0.076 0.0573,-0.024 0.13466,-0.036 0.23066,-0.036 0.104,0 0.184,0.0133 0.24267,0.04 0.0587,0.0267 0.104,0.0533 0.13867,0.08 0.076,0.0587 0.11733,0.12534 0.124,0.2 0.007,0.0747 0.0107,0.12 0.0107,0.136 v 3.49467 h 1.19467 v -3.48667 c -0.008,-0.0213 -0.008,-0.0653 0,-0.132 0.007,-0.0667 0.048,-0.12933 0.12267,-0.188 0.0347,-0.0267 0.0827,-0.0533 0.14533,-0.08 0.0613,-0.0267 0.14267,-0.04 0.24667,-0.04 0.096,0 0.17333,0.012 0.23066,0.036 0.0587,0.024 0.10534,0.0493 0.14,0.076 0.0613,0.0587 0.096,0.11867 0.10267,0.18 0.007,0.0613 0.007,0.10267 0,0.124 z m 1.524,0.24 h -1.82267 v -3.76667 c 0.007,-0.0107 0.008,-0.0307 0.005,-0.06 -0.004,-0.0293 -0.016,-0.0547 -0.036,-0.076 -0.028,-0.0213 -0.076,-0.032 -0.144,-0.032 -0.056,0 -0.0933,0.004 -0.11334,0.012 -0.0213,0.008 -0.0347,0.0173 -0.0413,0.028 -0.0347,0.0373 -0.052,0.0693 -0.052,0.096 -0.007,0.0213 -0.007,0.0373 0,0.048 v 0.016 3.73467 h -1.812 v -3.75067 c 0,-0.0107 -0.001,-0.0347 -0.005,-0.072 -0.003,-0.0373 -0.0187,-0.0693 -0.0467,-0.096 -0.0133,-0.005 -0.0293,-0.0133 -0.0467,-0.024 -0.016,-0.0107 -0.052,-0.016 -0.108,-0.016 -0.0467,0 -0.08,0.005 -0.0973,0.016 -0.0173,0.0107 -0.0293,0.0187 -0.036,0.024 -0.0347,0.0267 -0.056,0.06 -0.0667,0.1 -0.0107,0.04 -0.012,0.068 -0.005,0.084 v 0.008 3.72667 h -1.72 v -5.32533 h 2.328 c 0.10267,0.005 0.19067,0.016 0.26267,0.032 0.072,0.016 0.14933,0.04 0.23066,0.072 0.0827,0.032 0.16134,0.0773 0.23734,0.136 0.0627,-0.0587 0.15466,-0.11334 0.27733,-0.164 0.124,-0.0507 0.27867,-0.076 0.464,-0.076 h 1.32933 c 0.088,0 0.192,0.012 0.308,0.036 0.11734,0.024 0.228,0.0667 0.33467,0.128 0.10667,0.0613 0.196,0.14266 0.268,0.244 0.072,0.10133 0.108,0.228 0.108,0.38266 z"
     inkscape:connector-curvature="0" /><path
     id="path246"
     style="fill:#eac500;fill-opacity:1;fill-rule:nonzero;stroke:none;stroke-width:1.33333325"
     d="m 202.74453,217.69133 c 0,0.18133 0.032,0.32133 0.0973,0.42 0.0653,0.0987 0.13734,0.17067 0.21734,0.21467 0.0787,0.0467 0.152,0.072 0.22133,0.0813 0.068,0.008 0.10667,0.012 0.11333,0.012 h 1.98667 c 0.18533,0 0.32933,-0.0293 0.43333,-0.088 0.10267,-0.06 0.176,-0.12267 0.22134,-0.192 0.044,-0.0693 0.072,-0.13467 0.0827,-0.196 0.009,-0.0613 0.0147,-0.0947 0.0147,-0.1 v -4.27067 h -1.22533 v 3.69467 c 0,0.13867 -0.0547,0.23733 -0.16534,0.296 -0.10933,0.0587 -0.212,0.088 -0.308,0.088 -0.13733,0 -0.256,-0.0373 -0.356,-0.112 -0.0987,-0.0747 -0.14933,-0.16533 -0.14933,-0.272 v -3.69467 h -1.184 z m 0.64933,0.96667 c -0.20666,-0.0213 -0.368,-0.0613 -0.484,-0.12267 -0.11733,-0.0613 -0.22533,-0.15867 -0.32533,-0.28933 -0.0987,-0.12934 -0.14933,-0.31467 -0.14933,-0.55467 v -4.35867 h 1.80266 v 3.93467 c 0,0.0373 0.0187,0.0707 0.056,0.1 0.0387,0.0293 0.084,0.044 0.14,0.044 0.0333,0 0.072,-0.009 0.11334,-0.028 0.04,-0.0187 0.0613,-0.0573 0.0613,-0.116 v -3.93467 h 1.83333 v 4.51067 c 0,0.0693 -0.016,0.15067 -0.0467,0.244 -0.0307,0.0933 -0.0853,0.18267 -0.16534,0.26667 -0.0787,0.0867 -0.18666,0.15866 -0.324,0.21733 -0.13733,0.0587 -0.312,0.0867 -0.52533,0.0867 z"
     inkscape:connector-curvature="0" /><path
     id="path250"
     style="fill:#eac500;fill-opacity:1;fill-rule:nonzero;stroke:none;stroke-width:1.33333325"
     d="m 209.71599,218.42707 v -0.8 h -1.308 v -4.05467 h -1.24533 v 4.85467 z m -2.86267,0.24 v -5.33333 h 1.864 v 4.05333 h 1.308 v 1.28 z"
     inkscape:connector-curvature="0" /><path
     id="path254"
     style="fill:#eac500;fill-opacity:1;fill-rule:nonzero;stroke:none;stroke-width:1.33333325"
     d="m 212.48613,215.9 v -1.07867 c 0,-0.0107 -0.004,-0.032 -0.0107,-0.0613 -0.007,-0.0293 -0.02,-0.0547 -0.0413,-0.076 -0.007,-0.004 -0.02,-0.0107 -0.04,-0.0187 -0.0213,-0.008 -0.052,-0.0133 -0.0933,-0.0133 -0.0827,0 -0.13467,0.0213 -0.15467,0.064 -0.02,0.044 -0.0307,0.0787 -0.0307,0.10533 V 215.9 Z m -0.68,0.24 v -1.31867 c 0,-0.0107 0.007,-0.0507 0.0213,-0.116 0.0133,-0.068 0.0573,-0.12933 0.13334,-0.188 0.0827,-0.0693 0.196,-0.104 0.34,-0.104 0.096,0 0.172,0.012 0.22666,0.036 0.0547,0.024 0.0987,0.0493 0.13334,0.076 0.076,0.0573 0.11733,0.12134 0.124,0.18667 0.007,0.0667 0.0107,0.10533 0.0107,0.116 v 1.312 z m 2.21467,2.27867 v -4.18134 c 0,-0.16533 -0.036,-0.292 -0.108,-0.38 -0.072,-0.088 -0.152,-0.15333 -0.23734,-0.196 -0.0853,-0.0427 -0.16666,-0.068 -0.24133,-0.076 -0.076,-0.008 -0.11733,-0.012 -0.124,-0.012 h -1.94667 c -0.19866,0 -0.36,0.048 -0.484,0.144 -0.0613,0.048 -0.10933,0.10134 -0.144,0.16 -0.0347,0.0587 -0.06,0.11467 -0.0773,0.168 -0.0173,0.0533 -0.0253,0.11734 -0.0253,0.192 v 4.18134 h 1.17333 V 217.132 h 0.98933 v 1.28667 z m -1.53467,0.24 v -1.288 h -0.37067 v 1.288 h -1.792 v -4.42134 c 0,-0.005 10e-4,-0.032 0.005,-0.08 0.003,-0.048 0.0147,-0.10533 0.036,-0.172 0.02,-0.0667 0.0533,-0.14 0.0973,-0.22 0.0453,-0.08 0.108,-0.152 0.19067,-0.216 0.18533,-0.144 0.42266,-0.216 0.71066,-0.216 h 1.94667 c 0.212,0.0213 0.38267,0.0613 0.50933,0.12 0.12667,0.0587 0.244,0.148 0.35067,0.268 0.10667,0.12 0.15867,0.292 0.15867,0.516 v 4.42134 z"
     inkscape:connector-curvature="0" /><path
     id="path258"
     style="fill:#eac500;fill-opacity:1;fill-rule:nonzero;stroke:none;stroke-width:1.33333325"
     d="m 217.09959,218.41893 v -3.92667 h 0.85467 v -0.91866 h -2.976 v 0.91066 h 0.81333 v 3.93467 z m -1.61733,0.24 v -3.93467 h -0.81334 v -1.39066 h 3.59467 v 1.39866 h -0.85467 v 3.92667 z"
     inkscape:connector-curvature="0" /><path
     inkscape:connector-curvature="0"
     d="m 220.17866,213.57333 h -1.27733 v 4.84534 h 1.27733 z m -1.576,-0.24 h 1.88533 v 5.32534 h -1.88533 z"
     style="fill:#eac500;fill-opacity:1;fill-rule:nonzero;stroke:none;stroke-width:1.33333325"
     id="path260" /><path
     id="path264"
     style="fill:#eac500;fill-opacity:1;fill-rule:nonzero;stroke:none;stroke-width:1.33333325"
     d="m 222.88706,214.65267 c -0.028,0 -0.0653,0.008 -0.11333,0.024 -0.048,0.016 -0.072,0.0587 -0.072,0.128 v 2.46267 c 0,0.0373 0.0173,0.0707 0.0507,0.1 0.0347,0.0293 0.08,0.044 0.13467,0.044 0.0347,0 0.0733,-0.009 0.11867,-0.028 0.044,-0.0187 0.0667,-0.0573 0.0667,-0.116 v -2.46267 c 0,-0.0693 -0.0227,-0.112 -0.0667,-0.128 -0.0453,-0.016 -0.084,-0.024 -0.11867,-0.024 m 0.0107,2.99867 c -0.13734,0 -0.256,-0.0373 -0.356,-0.112 -0.1,-0.0747 -0.14934,-0.16534 -0.14934,-0.272 v -2.46267 c 0,-0.0693 0.0173,-0.12933 0.052,-0.18 0.0347,-0.0507 0.0773,-0.092 0.128,-0.124 0.052,-0.032 0.10667,-0.0547 0.16534,-0.068 0.0587,-0.0133 0.112,-0.02 0.16,-0.02 0.096,0 0.19866,0.0293 0.308,0.088 0.11066,0.0587 0.16533,0.16 0.16533,0.304 v 2.46267 c 0,0.13866 -0.0547,0.23733 -0.16533,0.296 -0.10934,0.0587 -0.212,0.088 -0.308,0.088 m -0.948,-4.07867 c -0.18534,0 -0.328,0.0293 -0.428,0.088 -0.0987,0.0587 -0.17067,0.124 -0.21467,0.196 -0.0453,0.072 -0.0733,0.13867 -0.0827,0.2 -0.0107,0.0613 -0.016,0.0947 -0.016,0.1 v 3.53467 c 0,0.18133 0.032,0.32133 0.0987,0.42 0.064,0.0987 0.136,0.17066 0.21467,0.216 0.08,0.0453 0.15333,0.072 0.22266,0.08 0.068,0.008 0.10534,0.012 0.11334,0.012 h 1.98666 c 0.18534,0 0.33067,-0.0293 0.43334,-0.088 0.10266,-0.0587 0.176,-0.12267 0.22133,-0.192 0.044,-0.0693 0.072,-0.13467 0.0813,-0.196 0.0107,-0.0613 0.016,-0.0947 0.016,-0.1 v -3.58267 c 0,-0.16533 -0.04,-0.29333 -0.11866,-0.388 -0.0787,-0.0933 -0.168,-0.16133 -0.268,-0.204 -0.0987,-0.0413 -0.19334,-0.0693 -0.28267,-0.08 -0.0893,-0.0107 -0.144,-0.016 -0.16533,-0.016 z m -0.092,5.08533 c -0.20667,-0.0213 -0.368,-0.0613 -0.484,-0.12266 -0.11734,-0.0613 -0.22534,-0.15734 -0.32534,-0.288 -0.0987,-0.13067 -0.14933,-0.316 -0.14933,-0.556 v -3.53467 c 0,-0.0693 0.016,-0.152 0.0467,-0.248 0.0307,-0.096 0.088,-0.18667 0.17066,-0.27067 0.0813,-0.0853 0.19067,-0.15866 0.324,-0.216 0.13334,-0.0587 0.304,-0.088 0.50934,-0.088 h 1.812 c 0.096,0 0.21066,0.012 0.34,0.04 0.13066,0.0267 0.256,0.076 0.376,0.148 0.12,0.0707 0.22133,0.16667 0.304,0.28667 0.0827,0.12 0.124,0.27067 0.124,0.452 v 3.58267 c 0,0.0693 -0.016,0.15066 -0.0467,0.244 -0.0307,0.0933 -0.0853,0.18266 -0.164,0.26666 -0.08,0.0867 -0.188,0.15867 -0.32533,0.21734 -0.13734,0.0587 -0.312,0.0867 -0.52534,0.0867 z"
     inkscape:connector-curvature="0" /><path
     id="path268"
     style="fill:#eac500;fill-opacity:1;fill-rule:nonzero;stroke:none;stroke-width:1.33333325"
     d="m 229.02399,218.41893 v -4.07733 c 0,-0.188 -0.0453,-0.332 -0.13867,-0.43734 -0.092,-0.10266 -0.196,-0.17866 -0.30933,-0.22666 -0.11333,-0.048 -0.22267,-0.0773 -0.32933,-0.088 -0.10667,-0.0107 -0.16934,-0.016 -0.19067,-0.016 h -2.43067 v 4.84533 h 1.17467 v -4.00533 h 0.47333 c 0.144,0 0.25734,0.036 0.34,0.11066 0.076,0.064 0.11867,0.13334 0.12934,0.208 0.009,0.0747 0.0147,0.12267 0.0147,0.144 v 3.54267 z m -1.56533,0.24 v -3.79067 c 0,-0.016 -0.001,-0.0453 -0.005,-0.088 -0.003,-0.0427 -0.0213,-0.0773 -0.056,-0.104 -0.0133,-0.005 -0.0293,-0.0107 -0.0467,-0.016 -0.0173,-0.004 -0.0427,-0.008 -0.0773,-0.008 h -0.164 v 4.00667 h -1.792 v -5.32533 h 2.73867 c 0.0147,0 0.084,0.007 0.212,0.02 0.12667,0.0133 0.268,0.0493 0.42667,0.108 0.068,0.0267 0.14133,0.064 0.216,0.112 0.076,0.048 0.144,0.10666 0.20533,0.176 0.0627,0.0693 0.11467,0.15333 0.15467,0.252 0.0413,0.0987 0.0627,0.21066 0.0627,0.34 v 4.31733 z"
     inkscape:connector-curvature="0" /><path
     id="path272"
     style="fill:#eac500;fill-opacity:1;fill-rule:nonzero;stroke:none;stroke-width:1.33333325"
     d="m 217.44013,256.00453 c 0.93867,0 1.87867,0.004 2.81733,-0.004 0.16,-0.001 0.18934,0.044 0.18667,0.168 -0.007,0.40533 -0.009,0.812 0,1.21867 0.004,0.136 -0.048,0.16266 -0.19333,0.16133 -1.21467,-0.005 -2.42934,0 -3.64267,-0.005 -0.14133,0 -0.20267,0.0147 -0.20933,0.15333 -0.008,0.15067 0.0747,0.15733 0.20533,0.15733 1.19733,-0.003 2.396,0.003 3.59333,-0.005 0.18934,-0.001 0.256,0.0307 0.24934,0.208 -0.016,0.39867 -0.012,0.79867 -0.003,1.19733 0.004,0.13867 -0.0387,0.17867 -0.2,0.17734 -1.21467,-0.007 -2.42933,-0.003 -3.64267,-0.003 -0.06,0 -0.13866,-0.04 -0.17333,0.0307 -0.0387,0.0813 0.032,0.13333 0.0893,0.18266 0.104,0.088 0.23467,0.084 0.36534,0.084 1.10133,0 2.20133,0.004 3.30266,-0.004 0.20267,-0.003 0.26667,0.0467 0.26,0.22534 -0.0133,0.40666 -0.008,0.81333 -0.003,1.21866 10e-4,0.108 -0.0267,0.148 -0.16134,0.14667 -0.99466,-0.005 -1.992,0.0133 -2.98666,-0.008 -1.49334,-0.0307 -2.80534,-1.152 -2.864,-2.46533 -0.04,-0.904 -0.0107,-1.81067 -0.02,-2.716 -0.001,-0.14134 0.0893,-0.11867 0.188,-0.11867 0.94666,0.001 1.89466,0.001 2.84133,0.001 z"
     inkscape:connector-curvature="0" /><path
     id="path276"
     style="fill:#eac500;fill-opacity:1;fill-rule:nonzero;stroke:none;stroke-width:1.33333325"
     d="m 224.79786,257.85013 c 0.61467,0 1.23067,0.004 1.84533,-0.003 0.156,-0.003 0.216,0.032 0.21067,0.17734 -0.0187,0.42666 0.0253,0.852 -0.0907,1.276 -0.29066,1.06933 -1.45733,1.96 -2.716,1.99866 -1.02,0.032 -2.04,0.007 -3.06,0.0133 -0.152,0 -0.164,-0.056 -0.16133,-0.168 0.008,-0.40667 0.0147,-0.81334 0,-1.21867 -0.007,-0.164 0.0467,-0.20533 0.228,-0.204 1.084,0.008 2.16933,0.003 3.25467,0.005 0.14266,0 0.27466,-0.0133 0.37733,-0.112 0.048,-0.044 0.0733,-0.0947 0.048,-0.15466 -0.0293,-0.0667 -0.0933,-0.036 -0.14667,-0.036 -1.18266,0.003 -2.364,0 -3.54533,0.008 -0.19067,0.001 -0.22667,-0.0493 -0.216,-0.20667 0.028,-0.39733 -0.0213,-0.79467 0.088,-1.19067 0.32,-1.15866 1.49733,-2.00666 2.86267,-2.02533 0.972,-0.0147 1.944,-0.003 2.91466,-0.009 0.13867,-0.001 0.16267,0.0453 0.16134,0.14933 -0.004,0.41333 -0.0107,0.82667 0.001,1.24 0.004,0.14533 -0.0627,0.15733 -0.19867,0.15733 -1.19066,-0.004 -2.38,-0.001 -3.57066,0 -0.056,0 -0.11467,-0.005 -0.16934,0.003 -0.136,0.0213 -0.18666,0.12533 -0.19066,0.22 -0.005,0.12133 0.12666,0.08 0.20266,0.08 0.624,0.003 1.24667,10e-4 1.87067,10e-4 z"
     inkscape:connector-curvature="0" /><path
     id="path280"
     style="fill:#262626;fill-opacity:1;fill-rule:nonzero;stroke:none;stroke-width:1.33333325"
     d="m 243.03426,258.9164 c 0.22667,0 0.45333,0.004 0.67867,-0.001 0.23066,-0.004 0.39333,-0.12667 0.43066,-0.30934 0.0547,-0.276 -0.20266,-0.73333 -0.476,-0.88133 -0.46266,-0.252 -0.968,-0.18533 -1.46266,-0.156 -0.19467,0.012 -0.29067,0.16933 -0.29467,0.344 -0.005,0.2 -0.005,0.39867 -0.003,0.59867 0.004,0.26266 0.16534,0.40133 0.472,0.40533 0.21734,0.001 0.436,0 0.65467,0 m -2.97067,-0.28267 c 0,-0.82666 0.004,-1.65333 -0.003,-2.48 -0.001,-0.12533 0.0373,-0.152 0.176,-0.152 0.93866,0.007 1.87733,0.001 2.816,0.005 1.73066,0.009 3.05733,1.20666 3.036,2.73466 -0.007,0.43467 -0.008,0.86934 0.001,1.304 0.003,0.12 -0.0213,0.15334 -0.16533,0.152 -1.15734,-0.007 -2.31467,-0.004 -3.472,-0.004 -0.396,-10e-4 -0.54,0.128 -0.54667,0.47067 -0.005,0.21067 0.108,0.5 -0.044,0.61067 -0.14533,0.10666 -0.46133,0.0347 -0.70267,0.036 -0.308,10e-4 -0.61466,-0.005 -0.92266,10e-4 -0.13467,0.003 -0.17867,-0.0307 -0.17734,-0.156 0.007,-0.84133 0.004,-1.68133 0.004,-2.52267"
     inkscape:connector-curvature="0" /><path
     id="path284"
     style="fill:#eac500;fill-opacity:1;fill-rule:nonzero;stroke:none;stroke-width:1.33333325"
     d="m 214.02746,258.65853 c 0,0.812 -0.007,1.62533 0.005,2.43733 0.003,0.184 -0.064,0.22267 -0.25733,0.21734 -0.46933,-0.012 -0.93867,-0.0107 -1.408,-0.003 -0.14533,0.003 -0.19067,-0.02 -0.19067,-0.16 0.009,-1.04667 0.005,-2.09467 0.005,-3.14267 0,-0.34 -0.13867,-0.46666 -0.52534,-0.46 -0.39333,0.007 -0.78933,-0.0427 -1.16133,0.14267 -0.404,0.20133 -0.536,0.52133 -0.54133,0.892 -0.012,0.84133 -0.0107,1.68133 -0.001,2.52267 0.003,0.172 -0.052,0.21333 -0.24266,0.20933 -0.50934,-0.0133 -1.02,-0.007 -1.52934,-0.003 -0.12666,0.001 -0.18266,-0.0187 -0.18133,-0.152 0.009,-0.82666 0.005,-1.65333 0.005,-2.48 0.001,-1.44666 1.272,-2.62666 2.91067,-2.66666 0.98667,-0.0253 1.97467,-0.004 2.96267,-0.0133 0.17466,-10e-4 0.14933,0.0867 0.15066,0.17867 0,0.82667 0,1.65333 0,2.48 z"
     inkscape:connector-curvature="0" /><path
     id="path288"
     style="fill:#262626;fill-opacity:1;fill-rule:nonzero;stroke:none;stroke-width:1.33333325"
     d="m 235.40346,258.74107 c -0.001,0.616 0.55867,1.112 1.25867,1.11467 0.69466,0.003 1.26666,-0.49867 1.26666,-1.10934 0,-0.61333 -0.56266,-1.112 -1.26133,-1.11733 -0.692,-0.005 -1.26267,0.496 -1.264,1.112 m -1.748,-0.092 c 0.004,-1.45867 1.36,-2.64533 3.01867,-2.64267 1.64933,0.004 3.008,1.20667 3.00266,2.66 -0.005,1.44934 -1.37466,2.648 -3.02266,2.64534 -1.64934,-0.004 -3.00267,-1.204 -2.99867,-2.66267"
     inkscape:connector-curvature="0" /><path
     id="path292"
     style="fill:#262626;fill-opacity:1;fill-rule:nonzero;stroke:none;stroke-width:1.33333325"
     d="m 228.94266,256.0068 c 0.44533,0 0.89067,-0.004 1.33467,10e-4 1.68266,0.0173 3.01066,1.23067 2.98933,2.71334 -0.012,0.804 -0.005,1.60933 0.003,2.41466 0.001,0.144 -0.048,0.17867 -0.20534,0.176 -0.51733,-0.008 -1.03466,-0.005 -1.55333,0 -0.136,10e-4 -0.196,-0.0147 -0.19467,-0.16 0.0107,-0.84133 0.007,-1.68133 0.007,-2.52266 0,-0.67734 -0.44933,-1.07867 -1.216,-1.08134 -0.88133,-0.004 -1.764,-0.007 -2.64533,0.001 -0.17867,10e-4 -0.23334,-0.0333 -0.22667,-0.2 0.0187,-0.39067 0.016,-0.784 0.001,-1.176 -0.007,-0.148 0.0453,-0.17467 0.20134,-0.17067 0.50133,0.009 1.004,0.003 1.50533,0.003 z"
     inkscape:connector-curvature="0" /><path
     id="path296"
     style="fill:#262626;fill-opacity:1;fill-rule:nonzero;stroke:none;stroke-width:1.33333325"
     d="m 252.90573,258.91613 c 0.24267,0 0.48533,0.005 0.728,-0.001 0.22533,-0.005 0.38667,-0.13467 0.41867,-0.32 0.0493,-0.28667 -0.204,-0.72267 -0.488,-0.876 -0.456,-0.24667 -0.95467,-0.17734 -1.44134,-0.152 -0.20533,0.0107 -0.30533,0.172 -0.30933,0.356 -0.004,0.2 -0.005,0.4 0,0.59866 0.007,0.24934 0.172,0.38934 0.46133,0.39467 0.21067,0.003 0.42,0 0.63067,0 m -2.932,-0.26 c 0,-0.83333 0.004,-1.66667 -0.004,-2.5 -0.001,-0.12667 0.0347,-0.15467 0.17333,-0.15333 0.95467,0.005 1.90934,-0.004 2.864,0.005 1.68534,0.016 3.01067,1.22667 2.99067,2.70933 -0.0107,0.79867 -0.007,1.596 0.003,2.39467 0.001,0.15733 -0.0427,0.20667 -0.22934,0.20267 -0.484,-0.0133 -0.97066,-0.012 -1.456,0 -0.20133,0.004 -0.3,-0.0253 -0.268,-0.232 0.0253,-0.168 0.012,-0.34134 0.005,-0.512 -0.009,-0.22667 -0.172,-0.37334 -0.432,-0.37734 -0.46,-0.005 -0.92134,-0.007 -1.38267,10e-4 -0.25333,0.004 -0.41733,0.15866 -0.424,0.38533 -0.005,0.19867 -0.005,0.39867 0.003,0.59867 0.004,0.0947 -0.008,0.13733 -0.14,0.136 -0.50934,-0.009 -1.01867,-0.007 -1.52934,-0.003 -0.12933,10e-4 -0.18,-0.0253 -0.17866,-0.15467 0.008,-0.83333 0.005,-1.66666 0.005,-2.50133 z"
     inkscape:connector-curvature="0" /><path
     id="path300"
     style="fill:#262626;fill-opacity:1;fill-rule:nonzero;stroke:none;stroke-width:1.33333325"
     d="m 249.00359,256.1576 c 0,0.264 0,0.48933 0,0.71467 0,1.41066 -0.005,2.82266 0.003,4.23333 0.001,0.176 -0.0573,0.212 -0.24267,0.208 -0.51067,-0.0107 -1.02,-0.007 -1.53067,-0.001 -0.132,0.001 -0.18,-0.0267 -0.17866,-0.15467 0.008,-0.86267 -0.0147,-1.72533 0.012,-2.588 0.0293,-0.99333 0.6,-1.716 1.54666,-2.22533 0.10934,-0.06 0.22534,-0.108 0.39067,-0.18667"
     inkscape:connector-curvature="0" /><path
     id="path304"
     style="fill:#000000;fill-opacity:1;fill-rule:nonzero;stroke:none;stroke-width:1.33333325"
     d="m 242.72213,240.0592 v 0.65067 h -2.024 v 1.608 h 1.948 v 0.648 h -1.948 v 2.276 h -0.69867 v -5.18267 z"
     inkscape:connector-curvature="0" /><path
     id="path308"
     style="fill:#000000;fill-opacity:1;fill-rule:nonzero;stroke:none;stroke-width:1.33333325"
     d="m 247.79066,244.4456 c -0.53867,0.592 -1.204,0.888 -1.99733,0.888 -0.476,0 -0.92534,-0.12 -1.344,-0.35867 -0.42667,-0.24266 -0.75734,-0.56933 -0.99067,-0.98 -0.23467,-0.40933 -0.35067,-0.85466 -0.35067,-1.33466 0,-0.484 0.11867,-0.932 0.356,-1.34134 0.23734,-0.41066 0.56534,-0.732 0.98534,-0.964 0.428,-0.236 0.87466,-0.35466 1.34133,-0.35466 0.49333,0 0.95733,0.12266 1.39067,0.368 0.45466,0.25866 0.80533,0.65333 1.05466,1.184 h -0.76533 c -0.15067,-0.20667 -0.28533,-0.35867 -0.40133,-0.45734 -0.34267,-0.3 -0.75334,-0.45066 -1.23334,-0.45066 -0.37066,0 -0.71333,0.092 -1.02666,0.27466 -0.312,0.18267 -0.55734,0.436 -0.73467,0.75867 -0.176,0.32133 -0.26533,0.652 -0.26533,0.992 0,0.54667 0.19866,1.01733 0.59333,1.41467 0.396,0.396 0.86667,0.59466 1.41333,0.59466 0.46,0 0.876,-0.156 1.24934,-0.46666 0.128,-0.108 0.27333,-0.26934 0.43866,-0.48667 l 0.0467,0.0333 h 0.708 c -0.18933,0.324 -0.34533,0.55334 -0.468,0.68667"
     inkscape:connector-curvature="0" /><path
     id="path312"
     style="fill:#000000;fill-opacity:1;fill-rule:nonzero;stroke:none;stroke-width:1.33333325"
     d="m 251.68933,240.0592 v 0.65067 h -2.23067 v 1.592 h 2.15867 v 0.65066 h -2.15867 v 1.64134 h 2.23067 v 0.648 H 248.76 v -5.18267 z"
     inkscape:connector-curvature="0" /><path
     id="path316"
     style="fill:#000000;fill-opacity:1;fill-rule:nonzero;stroke:none;stroke-width:1.33333325"
     d="m 253.10653,243.24867 c 0,0.94 0.37467,1.41067 1.12267,1.41067 0.33466,0 0.59866,-0.11334 0.78933,-0.34 0.19067,-0.22667 0.28667,-0.58 0.28667,-1.05734 v -3.20666 h 0.69466 v 3.20666 c 0,0.75334 -0.21466,1.308 -0.64266,1.664 -0.31867,0.26534 -0.70267,0.39734 -1.15334,0.39734 -0.32666,0 -0.63333,-0.08 -0.92,-0.24 -0.3,-0.16667 -0.52266,-0.39334 -0.66533,-0.68 -0.132,-0.26534 -0.19867,-0.64534 -0.20133,-1.13867 l -0.012,-3.22133 h 0.70133 z"
     inkscape:connector-curvature="0" /><path
     id="path320"
     style="fill:#eac500;fill-opacity:1;fill-rule:nonzero;stroke:none;stroke-width:1.33333325"
     d="m 247.00413,250.66667 v -4.2 l -2.712,4.2 h -0.74133 v -4.20933 l -2.73467,4.20933 h -0.816 l 3.46933,-5.33333 h 0.764 v 4.18133 l 2.7,-4.18133 h 0.75067 v 5.33333 z"
     inkscape:connector-curvature="0" /><path
     id="path324"
     style="fill:#eac500;fill-opacity:1;fill-rule:nonzero;stroke:none;stroke-width:1.33333325"
     d="m 248.31546,250.66667 v -5.33333 h 0.75067 l 2.7,4.18133 v -4.18133 h 0.764 l 3.46933,5.33333 h -0.816 l -2.73333,-4.20933 v 4.20933 h -0.74267 l -2.712,-4.2 v 4.2 z"
     inkscape:connector-curvature="0" /><path
     id="path328"
     style="fill:#d4a600;fill-opacity:1;fill-rule:nonzero;stroke:none;stroke-width:1.33333325"
     d="m 42.666666,42.666671 v 16 h 2.666667 V 45.333338 h 15.999999 v 13.333333 h 2.666667 v -16 z"
     inkscape:connector-curvature="0" /><path
     id="path332"
     style="fill:#d4a600;fill-opacity:1;fill-rule:nonzero;stroke:none;stroke-width:1.33333325"
     d="m 277.33333,42.666671 v 16 H 280 V 45.333338 h 16 v 13.333333 h 2.66666 v -16 z"
     inkscape:connector-curvature="0" /></svg>