<?xml version="1.0" encoding="UTF-8" standalone="no"?>
<svg
   xmlns:dc="http://purl.org/dc/elements/1.1/"
   xmlns:cc="http://creativecommons.org/ns#"
   xmlns:rdf="http://www.w3.org/1999/02/22-rdf-syntax-ns#"
   xmlns:svg="http://www.w3.org/2000/svg"
   xmlns="http://www.w3.org/2000/svg"
   xmlns:sodipodi="http://sodipodi.sourceforge.net/DTD/sodipodi-0.dtd"
   xmlns:inkscape="http://www.inkscape.org/namespaces/inkscape"
   viewBox="0 0 341.33334 341.33334"
   height="256"
   width="256"
   xml:space="preserve"
   id="svg2"
   version="1.1"
   sodipodi:docname="Nintendo - Game Boy Advance-content.svg"
   inkscape:version="0.92.3 (2405546, 2018-03-11)"
   inkscape:export-filename="D:\Documents\Github\Retrosystem-retroarch-theme\png\Nintendo - Game Boy Advance-content.png"
   inkscape:export-xdpi="72"
   inkscape:export-ydpi="72"><sodipodi:namedview
     pagecolor="#ffffff"
     bordercolor="#666666"
     borderopacity="1"
     objecttolerance="10"
     gridtolerance="10"
     guidetolerance="10"
     inkscape:pageopacity="0"
     inkscape:pageshadow="2"
     inkscape:window-width="1920"
     inkscape:window-height="1001"
     id="namedview150"
     showgrid="false"
     inkscape:pagecheckerboard="true"
     inkscape:zoom="2.7656249"
     inkscape:cx="114.19655"
     inkscape:cy="152.35343"
     inkscape:window-x="-9"
     inkscape:window-y="-9"
     inkscape:window-maximized="1"
     inkscape:current-layer="svg2" /><metadata
     id="metadata8"><rdf:RDF><cc:Work
         rdf:about=""><dc:format>image/svg+xml</dc:format><dc:type
           rdf:resource="http://purl.org/dc/dcmitype/StillImage" /><dc:title /></cc:Work></rdf:RDF></metadata><defs
     id="defs6"><clipPath
       id="clipPath18"
       clipPathUnits="userSpaceOnUse"><path
         id="path16"
         d="M 0,256 H 256 V 0 H 0 Z" /></clipPath><clipPath
       id="clipPath26"
       clipPathUnits="userSpaceOnUse"><path
         id="path24"
         d="M 4,204 H 252 V 52 H 4 Z" /></clipPath></defs><g
     id="g36"
     transform="matrix(1.3333333,0,0,-1.3333333,320,80.000003)"
     style="fill:#666666;stroke:#1a1a1a;stroke-width:2.00000009;stroke-miterlimit:4;stroke-dasharray:none"><path
       inkscape:connector-curvature="0"
       d="m 0,0 h -224 c -2.209,0 -4,-1.791 -4,-4 v -20 c 0,-2.209 1.791,-4 4,-4 v -104 c 0,-2.209 1.791,-4 4,-4 H -4 c 2.209,0 4,1.791 4,4 v 104 c 2.209,0 4,1.791 4,4 V -4 C 4,-1.791 2.209,0 0,0"
       style="fill:#666666;fill-opacity:1;fill-rule:nonzero;stroke:#1a1a1a;stroke-width:2.00000009;stroke-miterlimit:4;stroke-dasharray:none"
       id="path38" /></g><g
     id="g52"
     transform="matrix(1.3333333,0,0,-1.3333333,66.666674,106.66667)"><path
       inkscape:connector-curvature="0"
       d="M 0,0 C 48.286,16 107.714,16 156,0 107.714,9.6 48.286,9.6 0,0"
       style="fill:#404040;fill-opacity:1;fill-rule:nonzero;stroke:none"
       id="path54" /></g><g
     id="g56"
     transform="matrix(1.3333333,0,0,-1.3333333,136.19187,106.66667)"><path
       inkscape:connector-curvature="0"
       d="m 0,0 c -1.92,0 -3.688,-0.775 -5.028,-1.958 -0.1,0.162 -0.206,0.307 -0.311,0.425 -0.717,0.805 -1.865,1.231 -3.317,1.231 h -3.541 -0.151 -6.148 -0.252 -5.155 c -0.535,0 -0.955,-0.358 -1.111,-0.834 -0.704,0.5 -1.582,0.834 -2.72,0.834 h -3.691 c -0.595,0 -1.099,-0.413 -1.193,-0.974 l -1.511,-9.087 c -0.055,-0.334 0.044,-0.672 0.275,-0.929 0.229,-0.257 0.564,-0.406 0.917,-0.406 h 2.471 c 0.552,0 1.028,0.356 1.167,0.857 l 0.099,-0.201 c 0.2,-0.401 0.625,-0.656 1.089,-0.656 h 2.697 0.379 5.028 c 0.358,0 0.646,0.178 0.868,0.42 0.004,-0.004 10e-4,-0.01 0.005,-0.014 0.228,-0.257 0.563,-0.406 0.917,-0.406 h 2.468 c 0.407,0 0.715,0.232 0.935,0.535 0.027,-0.039 0.006,-0.093 0.038,-0.129 0.229,-0.257 0.564,-0.406 0.917,-0.406 h 2.468 c 0.552,0 1.028,0.359 1.167,0.859 l 0.102,-0.203 c 0.2,-0.401 0.624,-0.656 1.089,-0.656 h 3.076 c 0.436,0 0.839,0.226 1.051,0.589 0.017,0.028 0.011,0.063 0.025,0.092 0.932,-0.576 1.999,-0.983 3.271,-0.983 3.64,0 6.702,2.519 7.282,5.986 v 0.003 C 5.926,-4.471 5.519,-3.006 4.521,-1.89 3.451,-0.688 1.803,0 0,0"
       style="fill:#404040;fill-opacity:1;fill-rule:nonzero;stroke:none"
       id="path58" /></g><g
     id="g60"
     transform="matrix(1.3333333,0,0,-1.3333333,183.98894,107.97147)"><path
       inkscape:connector-curvature="0"
       d="m 0,0 c -0.196,0.413 -0.625,0.676 -1.099,0.676 h -2.96 c -0.356,0 -0.691,-0.148 -0.922,-0.408 L -6.016,-0.9 -6.546,0.061 c -0.21,0.379 -0.62,0.615 -1.068,0.615 h -2.961 c -0.266,0 -0.501,-0.106 -0.707,-0.253 -0.796,0.35 -1.681,0.556 -2.621,0.556 -2.073,0 -3.949,-0.918 -5.312,-2.268 -0.113,0.324 -0.234,0.643 -0.464,0.899 -0.632,0.708 -1.643,1.066 -3.008,1.066 h -3.529 c -0.594,0 -1.098,-0.412 -1.193,-0.974 l -1.511,-9.086 c -0.054,-0.334 0.045,-0.672 0.276,-0.929 0.229,-0.257 0.564,-0.406 0.917,-0.406 h 3.805 c 1.754,0 3.09,0.563 3.978,1.485 1.038,-1.15 2.606,-1.787 4.428,-1.787 2.491,0 4.643,1.232 5.982,3.084 l -0.242,-1.447 c -0.054,-0.334 0.045,-0.672 0.276,-0.929 0.229,-0.257 0.563,-0.406 0.917,-0.406 h 2.47 c 0.595,0 1.099,0.412 1.193,0.974 l 0.672,4.036 4.062,4.473 C 0.123,-0.893 0.196,-0.41 0,0"
       style="fill:#404040;fill-opacity:1;fill-rule:nonzero;stroke:none"
       id="path62" /></g><g
     id="g64"
     transform="matrix(1.3333333,0,0,-1.3333333,249.05734,115.71587)"><path
       inkscape:connector-curvature="0"
       d="m 0,0 h -1.07 c 0.045,0.122 0.071,0.253 0.071,0.39 v 1.06 c 0,0.079 -0.01,0.158 -0.024,0.232 h 0.959 c 0.667,0 1.207,0.516 1.207,1.155 v 1.059 c 0,0.638 -0.54,1.155 -1.207,1.155 h -6.654 c -0.316,0 -0.593,-0.13 -0.808,-0.32 -0.502,0.232 -1.068,0.32 -1.578,0.32 h -3.88 c -0.517,0 -1.091,-0.088 -1.597,-0.327 -0.217,0.197 -0.504,0.327 -0.826,0.327 h -1.361 c -0.667,0 -1.207,-0.517 -1.207,-1.155 V 2.158 l -3.274,2.624 c -0.217,0.174 -0.493,0.269 -0.775,0.269 h -1.033 c -0.667,0 -1.207,-0.517 -1.207,-1.155 V 3.082 l -0.842,1.392 c -0.214,0.356 -0.612,0.577 -1.044,0.577 h -1.044 c -0.202,0 -0.391,-0.06 -0.562,-0.148 -0.175,0.092 -0.372,0.148 -0.579,0.148 h -1.513 c -0.446,0 -0.856,-0.235 -1.066,-0.611 l -1.469,-2.634 -1.553,2.654 c -0.215,0.365 -0.618,0.591 -1.054,0.591 h -1.728 c -0.245,0 -0.481,-0.072 -0.679,-0.199 -0.492,0.124 -1.067,0.199 -1.735,0.199 h -4.184 c -0.667,0 -1.207,-0.517 -1.207,-1.155 V 3.324 l -0.695,1.15 c -0.215,0.356 -0.613,0.577 -1.044,0.577 h -1.047 c -0.441,0 -0.846,-0.23 -1.059,-0.598 l -3.578,-6.219 c -0.205,-0.358 -0.198,-0.793 0.019,-1.145 0.217,-0.349 0.613,-0.566 1.039,-0.566 h 1.514 c 0.266,0 0.518,0.084 0.724,0.23 0.202,-0.144 0.452,-0.23 0.723,-0.23 h 8.404 c 1.089,0 2.336,0.079 3.3,0.652 0.573,0.333 1.035,0.784 1.375,1.321 l 0.844,-1.396 c 0.214,-0.356 0.612,-0.577 1.044,-0.577 h 1.044 c 0.202,0 0.391,0.06 0.562,0.148 0.175,-0.093 0.373,-0.148 0.579,-0.148 h 1.514 c 0.266,0 0.518,0.084 0.723,0.232 0.203,-0.146 0.455,-0.232 0.726,-0.232 h 6.115 c 0.667,0 1.207,0.516 1.207,1.155 v 1.749 l 3.27,-2.633 c 0.219,-0.174 0.492,-0.271 0.778,-0.271 h 1.035 c 0.322,0 0.609,0.13 0.826,0.327 0.506,-0.239 1.08,-0.327 1.597,-0.327 h 3.88 c 0.51,0 1.076,0.088 1.578,0.32 0.215,-0.19 0.492,-0.32 0.808,-0.32 H 0 c 0.667,0 1.207,0.516 1.207,1.155 v 1.168 C 1.207,-0.516 0.667,0 0,0"
       style="fill:#404040;fill-opacity:1;fill-rule:nonzero;stroke:none"
       id="path66" /></g><g
     id="g68"
     transform="matrix(1.3333333,0,0,-1.3333333,96.681473,114.03987)"
     style="fill:#666666;fill-opacity:1"><path
       inkscape:connector-curvature="0"
       d="M 0,0 H 0.24 C 1.046,0 1.977,0.145 2.142,1.133 2.306,2.121 1.423,2.266 0.616,2.266 H 0.377 Z M 4.598,-5.014 H 1.523 l -1.75,3.495 h -0.025 l -0.582,-3.495 h -2.47 l 1.511,9.088 H 1.9 C 3.778,4.074 5.059,3.218 4.737,1.278 4.528,0.024 3.617,-1.06 2.23,-1.29 Z"
       style="fill:#666666;fill-opacity:1;fill-rule:nonzero;stroke:none"
       id="path70" /></g><g
     id="g72"
     transform="matrix(1.3333333,0,0,-1.3333333,107.17161,111.27534)"
     style="fill:#666666;fill-opacity:1"><path
       inkscape:connector-curvature="0"
       d="M 0,0 -0.252,-1.519 H 2.532 L 2.2,-3.52 H -0.585 L -0.846,-5.087 H 2.091 L 1.758,-7.088 h -5.406 l 1.511,9.089 H 3.269 L 2.936,0 Z"
       style="fill:#666666;fill-opacity:1;fill-rule:nonzero;stroke:none"
       id="path74" /></g><g
     id="g76"
     transform="matrix(1.3333333,0,0,-1.3333333,115.19374,120.7256)"
     style="fill:#666666;fill-opacity:1"><path
       inkscape:connector-curvature="0"
       d="m 0,0 h -2.47 l 1.178,7.088 h -2.041 l 0.333,2 h 6.552 l -0.332,-2 H 1.178 Z"
       style="fill:#666666;fill-opacity:1;fill-rule:nonzero;stroke:none"
       id="path78" /></g><g
     id="g80"
     transform="matrix(1.3333333,0,0,-1.3333333,122.11721,114.03987)"
     style="fill:#666666;fill-opacity:1"><path
       inkscape:connector-curvature="0"
       d="M 0,0 H 0.24 C 1.046,0 1.977,0.145 2.142,1.133 2.306,2.121 1.423,2.266 0.616,2.266 H 0.377 Z M 4.598,-5.014 H 1.523 l -1.75,3.495 h -0.025 l -0.582,-3.495 h -2.47 l 1.511,9.088 H 1.9 C 3.778,4.074 5.059,3.218 4.737,1.278 4.528,0.024 3.617,-1.06 2.23,-1.29 Z"
       style="fill:#666666;fill-opacity:1;fill-rule:nonzero;stroke:none"
       id="path82" /></g><g
     id="g84"
     transform="matrix(1.3333333,0,0,-1.3333333,131.57454,114.458)"
     style="fill:#666666;fill-opacity:1"><path
       inkscape:connector-curvature="0"
       d="M 0,0 C -0.261,-1.567 0.759,-2.712 2.233,-2.712 3.708,-2.712 5.108,-1.567 5.368,0 5.577,1.254 4.557,2.399 3.083,2.399 1.608,2.399 0.208,1.254 0,0 M 7.941,0.012 C 7.452,-2.929 4.902,-5.002 1.853,-5.002 c -3.05,0 -4.911,2.073 -4.422,5.014 0.457,2.748 3.298,4.677 6.033,4.677 2.734,0 4.934,-1.929 4.477,-4.677"
       style="fill:#666666;fill-opacity:1;fill-rule:nonzero;stroke:none"
       id="path86" /></g><g
     id="g88"
     transform="matrix(1.3333333,0,0,-1.3333333,151.53707,113.36454)"
     style="fill:#666666;fill-opacity:1"><path
       inkscape:connector-curvature="0"
       d="M 0,0 H 0.277 C 0.933,0 1.632,0.108 1.76,0.88 1.898,1.711 1.137,1.76 0.469,1.76 H 0.292 Z m -0.617,-3.713 h 0.315 c 0.731,0 1.96,-0.036 2.126,0.964 0.182,1.098 -1.058,0.989 -1.864,0.989 h -0.252 z m -2.771,-1.808 1.511,9.089 H 1.652 C 3.341,3.568 4.37,2.941 4.082,1.205 3.945,0.386 3.559,-0.277 2.727,-0.651 L 2.723,-0.675 C 4.056,-0.844 4.489,-1.724 4.279,-2.99 3.963,-4.894 2.157,-5.521 0.418,-5.521 Z"
       style="fill:#666666;fill-opacity:1;fill-rule:nonzero;stroke:none"
       id="path90" /></g><g
     id="g92"
     transform="matrix(1.3333333,0,0,-1.3333333,160.83094,114.458)"
     style="fill:#666666;fill-opacity:1"><path
       inkscape:connector-curvature="0"
       d="M 0,0 C -0.26,-1.567 0.759,-2.712 2.234,-2.712 3.708,-2.712 5.108,-1.567 5.369,0 5.577,1.254 4.558,2.399 3.083,2.399 1.609,2.399 0.209,1.254 0,0 M 7.942,0.012 C 7.453,-2.929 4.903,-5.002 1.853,-5.002 c -3.049,0 -4.911,2.073 -4.421,5.014 0.456,2.748 3.298,4.677 6.032,4.677 2.735,0 4.935,-1.929 4.478,-4.677"
       style="fill:#666666;fill-opacity:1;fill-rule:nonzero;stroke:none"
       id="path94" /></g><g
     id="g96"
     transform="matrix(1.3333333,0,0,-1.3333333,169.88934,108.60774)"
     style="fill:#666666;fill-opacity:1"><path
       inkscape:connector-curvature="0"
       d="M 0,0 H 2.961 L 4.328,-2.471 6.516,0 H 9.477 L 5.188,-4.725 4.463,-9.088 h -2.47 l 0.725,4.363 z"
       style="fill:#666666;fill-opacity:1;fill-rule:nonzero;stroke:none"
       id="path98" /></g><g
     id="g100"
     transform="matrix(1.3333333,0,0,-1.3333333,195.92267,117.25387)"
     style="fill:#666666;fill-opacity:1"><path
       inkscape:connector-curvature="0"
       d="M 0,0 H -1.953 V 3.942 H 0.731 C 2.155,3.942 2.873,3.266 2.873,2.001 2.873,0.458 1.915,0 0,0 M 10.003,5.05 7.495,0.554 4.861,5.05 H 3.134 L 3.874,3.826 C 3.279,4.612 2.218,5.05 0.718,5.05 H -3.466 V 0.172 L -6.411,5.05 h -1.047 l -3.579,-6.219 h 1.513 L -7.016,3.327 -5.068,0 h -3.007 v -1.169 h 4.609 0.81 2.984 c 1.159,0 2.041,0.108 2.671,0.482 0.907,0.53 1.437,1.494 1.437,2.664 0,0.615 -0.145,1.14 -0.402,1.584 l 2.856,-4.73 h 1.046 l 3.579,6.219 z"
       style="fill:#666666;fill-opacity:1;fill-rule:nonzero;stroke:none"
       id="path102" /></g><g
     id="g104"
     transform="matrix(1.3333333,0,0,-1.3333333,226.6992,114.87534)"
     style="fill:#666666;fill-opacity:1"><path
       inkscape:connector-curvature="0"
       d="m 0,0 c 0,-0.193 0.025,-0.555 0.063,-1.073 -0.227,0.253 -0.48,0.47 -0.744,0.675 l -4.575,3.664 h -1.033 v -5.12 l -3.091,5.12 h -1.046 l -3.579,-6.219 h 1.512 l 2.508,4.496 1.949,-3.327 h -3.008 v -1.169 h 4.755 0.665 0.697 V 0.41 c 0,0.18 -0.014,0.506 -0.064,0.988 0.177,-0.193 0.353,-0.349 0.542,-0.506 L 0.327,-2.953 H 1.361 V 3.266 H 0 Z"
       style="fill:#666666;fill-opacity:1;fill-rule:nonzero;stroke:none"
       id="path106" /></g><g
     id="g108"
     transform="matrix(1.3333333,0,0,-1.3333333,236.9196,110.52027)"
     style="fill:#666666;fill-opacity:1"><path
       inkscape:connector-curvature="0"
       d="m 0,0 h -3.882 c -1.222,0 -1.613,-0.301 -1.613,-1.47 v -3.279 c 0,-1.169 0.391,-1.471 1.613,-1.471 H 0 c 1.222,0 1.613,0.302 1.613,1.471 v 0.735 L 0.101,-4.013 V -5.05 h -4.083 v 3.941 H 0.101 V -2.061 H 1.613 V -1.47 C 1.613,-0.301 1.222,0 0,0"
       style="fill:#666666;fill-opacity:1;fill-rule:nonzero;stroke:none"
       id="path110" /></g><g
     id="g112"
     transform="matrix(1.3333333,0,0,-1.3333333,242.11707,117.25387)"
     style="fill:#666666;fill-opacity:1"><path
       inkscape:connector-curvature="0"
       d="m 0,0 v 1.543 h 2.999 v 1.06 H 0 V 3.99 H 5.142 V 5.05 H -1.512 V -1.169 H 5.204 V 0 Z"
       style="fill:#666666;fill-opacity:1;fill-rule:nonzero;stroke:none"
       id="path114" /></g><path
     id="path42"
     style="fill:#e6e6e6;fill-opacity:1;fill-rule:nonzero;stroke:none;stroke-width:1.33333325"
     d="M 58.434941,128 H 282.89894 c 2.81733,0 5.10133,2.18 5.10133,4.86933 v 102.26133 c 0,2.68934 -2.284,4.86934 -5.10133,4.86934 H 58.434941 c -2.817333,0 -5.101333,-2.18 -5.101333,-4.86934 V 132.86933 c 0,-2.68933 2.284,-4.86933 5.101333,-4.86933"
     inkscape:connector-curvature="0" /><path
     id="path46"
     style="fill:#404040;fill-opacity:1;fill-rule:nonzero;stroke:none;stroke-width:1.33333325"
     d="M 282.89867,125.33334 H 58.434676 c -4.282667,0 -7.768,3.38133 -7.768,7.536 v 102.26133 c 0,4.15467 3.485333,7.536 7.768,7.536 H 282.89867 c 4.28267,0 7.768,-3.38133 7.768,-7.536 V 132.86934 c 0,-4.15467 -3.48533,-7.536 -7.768,-7.536 m 0,2.66667 c 2.81733,0 5.10133,2.18 5.10133,4.86933 V 235.13067 C 288,237.82 285.716,240 282.89867,240 H 58.434676 c -2.817334,0 -5.101334,-2.18 -5.101334,-4.86933 V 132.86934 c 0,-2.68933 2.284,-4.86933 5.101334,-4.86933 H 282.89867"
     inkscape:connector-curvature="0" /><path
     id="path50"
     style="fill:#404040;fill-opacity:1;fill-rule:nonzero;stroke:none;stroke-width:1.33333325"
     d="m 136.00001,245.33333 h 69.33333 L 170.66668,256 Z"
     inkscape:connector-curvature="0" /><path
     inkscape:connector-curvature="0"
     d="m 251.55614,198.18667 h 24.88933 v 5.84933 h -24.88933 z m 24.888,29.66533 H 251.5548 v -22.85467 h 24.88934 z M 250.6668,197.33333 v 6.70267 0.95333 23.00667 0.81733 5.85334 h 26.66667 v -5.85334 -0.81733 -23.00667 -0.95333 -6.70267 z"
     style="fill:#000000;fill-opacity:1;fill-rule:nonzero;stroke:none;stroke-width:1.33333325"
     id="path116" /><path
     id="path120"
     style="fill:#cccccc;fill-opacity:1;fill-rule:nonzero;stroke:none;stroke-width:1.33333325"
     d="m 254.58067,230.95973 h 2.80133 v 2.17867 c -0.84266,0.16666 -1.82266,0.276 -2.71066,0.276 -1.95867,0 -2.91467,-0.916 -2.91467,-2.18934 0,-1.27466 0.956,-2.19066 2.97467,-2.19066 1.672,0 2.54533,0.42133 2.568,1.39466 h -2.01867 c -0.007,-0.132 -0.0747,-0.21866 -0.16533,-0.27066 -0.0907,-0.052 -0.21867,-0.0747 -0.35334,-0.0747 -0.324,0 -0.53466,0.12667 -0.64,0.29333 -0.10666,0.168 -0.136,0.576 -0.136,0.928 0,0.404 0.0453,0.68 0.14267,0.81334 0.128,0.17333 0.33867,0.24666 0.61733,0.24666 0.204,0 0.4,-0.0227 0.57334,-0.0853 v -0.50267 h -0.73867 z"
     inkscape:connector-curvature="0" /><path
     id="path124"
     style="fill:#cccccc;fill-opacity:1;fill-rule:nonzero;stroke:none;stroke-width:1.33333325"
     d="m 261.0836,231.6224 -0.42933,-1.568 h -0.0147 l -0.47467,1.568 z m -1.78533,-2.47867 h 2.79466 l 1.74667,4.16134 h -2.22933 l -0.21067,-0.668 h -1.55867 l -0.21866,0.668 h -2.064 z"
     inkscape:connector-curvature="0" /><path
     id="path128"
     style="fill:#cccccc;fill-opacity:1;fill-rule:nonzero;stroke:none;stroke-width:1.33333325"
     d="m 269.44627,230.33147 h -0.0147 l -0.768,2.97333 h -1.97333 l -0.768,-2.97333 h -0.016 v 2.97333 h -1.82267 v -4.16 h 2.99067 l 0.59467,2.47734 h 0.0147 l 0.596,-2.47734 h 2.98934 v 4.16 h -1.82267 z"
     inkscape:connector-curvature="0" /><path
     id="path132"
     style="fill:#cccccc;fill-opacity:1;fill-rule:nonzero;stroke:none;stroke-width:1.33333325"
     d="m 272.04134,229.14413 h 4.13467 v 1.084 h -2.07067 v 0.44267 h 1.912 v 1.084 h -1.912 v 0.46666 h 2.13867 v 1.084 h -4.20267 z"
     inkscape:connector-curvature="0" /><path
     id="path136"
     style="fill:#000000;fill-opacity:1;fill-rule:nonzero;stroke:none;stroke-width:1.33333325"
     d="m 255.3252,200.30907 c -0.024,-0.31733 -0.26667,-0.49733 -0.67067,-0.49733 -0.56666,0 -0.67066,0.65866 -0.67066,1.184 0,0.512 0.11333,1.116 0.67066,1.116 0.41467,0 0.65067,-0.18 0.67067,-0.516 h 1.03467 c 0.016,0.88666 -0.84267,1.19866 -1.70534,1.19866 -1.10933,0 -1.70533,-0.65733 -1.70533,-1.83733 0,-1.18 0.596,-1.81733 1.70533,-1.828 0.86267,0 1.72134,0.29333 1.70534,1.18 z"
     inkscape:connector-curvature="0" /><path
     id="path140"
     style="fill:#000000;fill-opacity:1;fill-rule:nonzero;stroke:none;stroke-width:1.33333325"
     d="m 256.72747,202.72147 v -3.51867 h 0.98533 v 2.836 h 1.61334 v 0.68267 z"
     inkscape:connector-curvature="0" /><path
     id="path144"
     style="fill:#000000;fill-opacity:1;fill-rule:nonzero;stroke:none;stroke-width:1.33333325"
     d="m 261.7084,201.352 -0.45333,-1.46267 h -0.0147 l -0.484,1.46267 z m -2.42,1.36933 1.404,-3.51866 h 1.204 l 1.404,3.51866 h -1.11333 l -0.23734,-0.68666 h -1.444 l -0.232,0.68666 z"
     inkscape:connector-curvature="0" /><path
     id="path148"
     style="fill:#000000;fill-opacity:1;fill-rule:nonzero;stroke:none;stroke-width:1.33333325"
     d="m 265.41334,200.23587 c 0.005,-0.136 -0.04,-0.23867 -0.128,-0.312 -0.084,-0.0733 -0.212,-0.112 -0.38,-0.112 -0.22667,0 -0.424,0.14667 -0.424,0.32133 0,0.25867 0.316,0.34134 0.57733,0.40934 0.596,0.152 1.464,0.21066 1.464,1.16 0,0.74133 -0.74,1.092 -1.56266,1.092 -0.828,0 -1.55867,-0.23867 -1.57334,-1.19334 h 0.98667 c -0.005,0.33067 0.24133,0.51067 0.596,0.51067 0.22667,0 0.51733,-0.116 0.51733,-0.35067 0,-0.47733 -0.72933,-0.37466 -1.50266,-0.712 -0.36,-0.156 -0.53867,-0.47733 -0.53867,-0.85733 0.04,-0.83333 0.78,-1.06267 1.524,-1.06267 0.73467,0 1.48933,0.25867 1.42933,1.10667 z"
     inkscape:connector-curvature="0" /><path
     id="path152"
     style="fill:#000000;fill-opacity:1;fill-rule:nonzero;stroke:none;stroke-width:1.33333325"
     d="m 268.80174,200.23587 c 0.005,-0.136 -0.04,-0.23867 -0.128,-0.312 -0.084,-0.0733 -0.212,-0.112 -0.38,-0.112 -0.22667,0 -0.424,0.14667 -0.424,0.32133 0,0.25867 0.316,0.34134 0.57733,0.40934 0.596,0.152 1.464,0.21066 1.464,1.16 0,0.74133 -0.74,1.092 -1.56266,1.092 -0.828,0 -1.55867,-0.23867 -1.57334,-1.19334 h 0.98667 c -0.005,0.33067 0.24133,0.51067 0.596,0.51067 0.22667,0 0.51733,-0.116 0.51733,-0.35067 0,-0.47733 -0.72933,-0.37466 -1.50266,-0.712 -0.36,-0.156 -0.53867,-0.47733 -0.53867,-0.85733 0.04,-0.83333 0.78,-1.06267 1.524,-1.06267 0.73467,0 1.48933,0.25867 1.42933,1.10667 z"
     inkscape:connector-curvature="0" /><path
     inkscape:connector-curvature="0"
     d="m 270.2828,199.20267 h 0.98534 v 3.51866 h -0.98534 z"
     style="fill:#000000;fill-opacity:1;fill-rule:nonzero;stroke:none;stroke-width:1.33333325"
     id="path154" /><path
     id="path158"
     style="fill:#000000;fill-opacity:1;fill-rule:nonzero;stroke:none;stroke-width:1.33333325"
     d="m 274.0156,200.30907 c -0.024,-0.31733 -0.26667,-0.49733 -0.67067,-0.49733 -0.56666,0 -0.67066,0.65866 -0.67066,1.184 0,0.512 0.11333,1.116 0.67066,1.116 0.41467,0 0.65067,-0.18 0.67067,-0.516 h 1.03467 c 0.016,0.88666 -0.84267,1.19866 -1.70534,1.19866 -1.10933,0 -1.70533,-0.65733 -1.70533,-1.83733 0,-1.18 0.596,-1.81733 1.70533,-1.828 0.86267,0 1.72134,0.29333 1.70534,1.18 z"
     inkscape:connector-curvature="0" /><path
     id="path162"
     style="fill:#000000;fill-opacity:1;fill-rule:nonzero;stroke:none;stroke-width:1.33333325"
     d="m 272.8096,215.756 c 1.39733,4.58667 -1.7,7.696 -5.87333,8.93733 -5.9,1.756 -9.708,-0.98133 -11.316,-6.26 -1.74267,-5.13866 0.31466,-9.572 6.004,-11.26533 4.244,-1.26267 8.35466,-0.62667 9.86533,4.25467 l -6.10933,1.81733 c -0.668,-1.86133 -1.48,-2.02267 -2.296,-1.78 -1.72534,0.51333 -1.356,2.31333 -0.54134,4.988 0.772,2.53467 1.488,4.384 3.16667,3.884 0.86267,-0.256 1.292,-0.936 0.852,-2.716 z"
     inkscape:connector-curvature="0" /><path
     id="path166"
     style="fill:#ffffff;fill-opacity:1;fill-rule:nonzero;stroke:none;stroke-width:1.33333325"
     d="m 74.644274,206.9504 c 9.521333,0 17.24,5.24667 17.24,11.716 0,6.47067 -7.718667,11.716 -17.24,11.716 -9.521333,0 -17.24,-5.24533 -17.24,-11.716 0,-6.46933 7.718667,-11.716 17.24,-11.716"
     inkscape:connector-curvature="0" /><path
     id="path170"
     style="fill:#a3834a;fill-opacity:1;fill-rule:nonzero;stroke:none;stroke-width:1.33333325"
     d="m 91.88454,218.58013 c 0,-6.46933 -7.718666,-11.716 -17.24,-11.716 -9.521333,0 -17.239999,5.24667 -17.239999,11.716 0,6.47067 7.718666,11.71733 17.239999,11.71733 9.521334,0 17.24,-5.24666 17.24,-11.71733 m 2.054667,0.008 2.061333,2.15467 -2.946667,1.72533 0.828,3.336 -3.169333,0.0867 -0.218667,3.632 -3.533333,-0.94934 -0.596,3.42934 -3.269333,-1.26667 -1.705333,3.02267 -2.553334,-2.156 -2.226666,3.064 -2.453334,-2.6 -2.679999,2.428 -1.749334,-2.86 -3.16,1.81466 -1.092,-3.20133 -3.658666,1.40667 -0.538667,-3.15734 -3.273333,0.2 0.490667,-3.21466 -3.348,-0.0133 0.782666,-3.50933 -2.596,-1.424 2.066667,-2.28933 -1.856,-3.18534 3.017333,-0.93066 -0.793333,-3.40667 3.309333,-0.044 0.382667,-3.37867 2.993333,0.96934 0.990667,-3.29334 3.024,1.596 1.250666,-2.91333 2.618667,1.776 1.84,-2.76933 2.473333,2.412 2.186667,-2.20534 1.916,2.78 2.993333,-1.87733 1.186667,3.06933 3.009333,-1.39066 0.773333,3.20266 3.566667,-0.62 -0.109334,3.13334 3.602667,0.37866 -1.02,3.02667 3.138667,1.31333 z"
     inkscape:connector-curvature="0" /><path
     id="path174"
     style="fill:#a3834a;fill-opacity:1;fill-rule:nonzero;stroke:none;stroke-width:1.33333325"
     d="m 58.886274,218.6668 c 0,-5.712 7.069333,-10.35867 15.757333,-10.35867 8.689333,0 15.758666,4.64667 15.758666,10.35867 0,5.712 -7.069333,10.35867 -15.758666,10.35867 -8.688,0 -15.757333,-4.64667 -15.757333,-10.35867 m 15.757333,10.74667 c 8.908,0 16.156,-4.82134 16.156,-10.74667 0,-5.92533 -7.246667,-10.74667 -16.156,-10.74667 -8.908,0 -16.154666,4.82134 -16.154666,10.74667 0,5.92533 7.246666,10.74667 16.154666,10.74667"
     inkscape:connector-curvature="0" /><path
     id="path178"
     style="fill:#a3834a;fill-opacity:1;fill-rule:nonzero;stroke:none;stroke-width:1.33333325"
     d="M 84.64494,221.1464 H 64.471607 c -1.704,0.007 -2.738666,-1.10933 -2.738666,-2.47867 0,-1.36933 1.041333,-2.476 2.738666,-2.47866 H 84.64494 c 1.697333,0.003 2.738667,1.10933 2.738667,2.47866 0,1.36934 -1.034667,2.48534 -2.738667,2.47867 m 0.0093,-5.76533 H 64.460941 c -2.136,-0.004 -3.572,1.49466 -3.572,3.292 0,1.796 1.432,3.27866 3.576,3.27866 h 20.186666 c 2.144,0 3.576,-1.48266 3.576,-3.27866 0,-1.79734 -1.436,-3.296 -3.573334,-3.292"
     inkscape:connector-curvature="0" /><path
     id="path182"
     style="fill:#a3834a;fill-opacity:1;fill-rule:nonzero;stroke:none;stroke-width:1.33333325"
     d="m 77.73214,217.4412 h 0.953333 v 0.416 h 0.516 v 0.30667 h -0.516 l 0.0013,2.05333 h -0.956 l 0.0013,-2.05333 h -0.518667 v -0.30534 h 0.52 z"
     inkscape:connector-curvature="0" /><path
     inkscape:connector-curvature="0"
     d="m 66.557474,218.16 h 0.953333 v 2.05733 h -0.953333 z"
     style="fill:#a3834a;fill-opacity:1;fill-rule:nonzero;stroke:none;stroke-width:1.33333325"
     id="path184" /><path
     inkscape:connector-curvature="0"
     d="m 66.554807,217.12267 h 0.956 v 0.632 h -0.956 z"
     style="fill:#a3834a;fill-opacity:1;fill-rule:nonzero;stroke:none;stroke-width:1.33333325"
     id="path186" /><path
     id="path190"
     style="fill:#a3834a;fill-opacity:1;fill-rule:nonzero;stroke:none;stroke-width:1.33333325"
     d="m 84.082273,219.10133 v 0 c 0,0.007 -0.0013,0.312 -0.0013,0.43467 0,0.328 -0.198667,0.46266 -0.389334,0.46266 -0.190666,0 -0.390666,-0.13466 -0.390666,-0.46266 v -0.44267 c 0,0 0.0013,-0.30533 0.0013,-0.42933 0,-0.32667 0.2,-0.46134 0.389333,-0.46134 0.190667,0 0.389334,0.13467 0.389334,0.46134 0,0.124 0,0.35466 0.0013,0.43733 V 219.1 Z M 83.699606,217.948 c -0.769333,0 -1.393333,0.51733 -1.393333,1.15466 0,0.63867 0.624,1.156 1.393333,1.156 0.769334,0 1.393334,-0.51733 1.393334,-1.156 0,-0.63733 -0.624,-1.15466 -1.393334,-1.15466"
     inkscape:connector-curvature="0" /><path
     id="path194"
     style="fill:#a3834a;fill-opacity:1;fill-rule:nonzero;stroke:none;stroke-width:1.33333325"
     d="m 69.01454,218.804 c 0,-0.31867 0.225333,-0.4 0.373333,-0.4 0.152,0 0.374667,0.0813 0.374667,0.4 0,0.10533 -0.0013,0.36533 -0.0013,0.36533 0,0 0.0013,0.25734 0.0013,0.36667 0,0.31733 -0.222667,0.40133 -0.373333,0.40133 -0.149334,0 -0.374667,-0.084 -0.374667,-0.40133 v -0.364 z m -0.934667,-1.68667 v 3.09334 h 0.944 c 0,0 0,-0.10134 0,-0.11867 0.365334,0.22267 0.776,0.22133 1.097334,0.076 0.08533,-0.0387 0.652,-0.304 0.652,-1.02 0,-0.54267 -0.525334,-1.136 -1.212,-1.076 -0.226667,0.0187 -0.388,0.0987 -0.54,0.18267 v -1.13734 z"
     inkscape:connector-curvature="0" /><path
     id="path198"
     style="fill:#a3834a;fill-opacity:1;fill-rule:nonzero;stroke:none;stroke-width:1.33333325"
     d="m 75.440674,218.3912 c 0.07467,-0.12667 0.210667,-0.188 0.334667,-0.188 v 0 h 0.0013 -0.0013 c 0.125333,0 0.261333,0.0613 0.336,0.188 0.06,0.10267 0.064,0.22267 0.06133,0.404 h -0.794667 c -0.0027,-0.18133 0.0013,-0.30133 0.06267,-0.404 m 0.730667,1.148 c 0,0.37733 -0.254667,0.46 -0.394667,0.46 -0.141333,0 -0.398667,-0.0827 -0.398667,-0.46 0,-0.112 0,-0.424 0,-0.424 h 1.796 c 0,-0.63867 -0.632,-1.16667 -1.406666,-1.16667 -0.774667,0 -1.404,0.51734 -1.404,1.15467 0,0.63733 0.629333,1.15467 1.404,1.15467 0.642666,0 1.186666,-0.35734 1.353333,-0.84267 h -0.950667 c 0,0 0.0013,0.009 0.0013,0.124"
     inkscape:connector-curvature="0" /><path
     id="path202"
     style="fill:#a3834a;fill-opacity:1;fill-rule:nonzero;stroke:none;stroke-width:1.33333325"
     d="m 64.978674,219.91093 v -2.80267 h -0.954667 v 2.80267 0.30533 h 0.954667 1.033333 v -0.30533 z"
     inkscape:connector-curvature="0" /><path
     id="path206"
     style="fill:#a3834a;fill-opacity:1;fill-rule:nonzero;stroke:none;stroke-width:1.33333325"
     d="m 81.20134,218.91253 h 0.934667 c -0.09733,-0.664 -0.733334,-0.856 -1.062667,-0.848 -0.314667,0.009 -0.577333,0.14133 -0.76,0.31067 0,-0.0507 0,-0.216 0,-0.216 h -0.945333 l -0.0013,2.05733 h 0.946667 c 0,0 0,-1.264 0,-1.35067 0,-0.17866 0.193333,-0.37866 0.452,-0.37866 0.26,0 0.436,0.2 0.436,0.37866 z"
     inkscape:connector-curvature="0" /><path
     id="path210"
     style="fill:#a3834a;fill-opacity:1;fill-rule:nonzero;stroke:none;stroke-width:1.33333325"
     d="m 72.272807,218.162 v -0.36533 c 0,-0.31734 0.225333,-0.4 0.374667,-0.4 0.150666,0 0.373333,0.0827 0.373333,0.4 0,0.10933 -0.0013,0.36666 -0.0013,0.36666 0,0 0.0013,0.26134 0.0013,0.36667 0,0.31867 -0.222667,0.39867 -0.374667,0.39867 -0.148,0 -0.373333,-0.08 -0.373333,-0.39867 z m 1.758667,0.0227 c 0,-0.716 -0.566667,-0.98 -0.652,-1.02 -0.321334,-0.14534 -0.732,-0.14534 -1.097334,0.0773 0,-0.0187 0,-0.11867 0,-0.11867 h -0.944 v 3.09334 h 0.941334 V 219.078 c 0.004,0.003 0.008,0.004 0.012,0.007 l 0.738666,1.132 h 0.934667 l -0.666667,-1.02134 c 0.437334,-0.168 0.733334,-0.60266 0.733334,-1.01066"
     inkscape:connector-curvature="0" /><path
     id="path214"
     style="fill:#191919;fill-opacity:1;fill-rule:nonzero;stroke:none;stroke-width:1.33333325"
     d="m 120.78041,209.998 v 2.15467 h 5.296 c 1.59467,0 2.12133,0.484 2.12133,2.368 v 1.37866 c 0,1.88134 -0.52666,2.36667 -2.12133,2.36667 h -5.24667 c -1.596,0 -2.12133,-0.48533 -2.12133,-2.36667 v -0.272 h 1.74267 v 0.75734 h 6.004 V 214.094 h -5.29734 c -1.59466,0 -2.10533,-0.48533 -2.10533,-2.368 v -1.10667 c 0,-1.88266 0.51067,-2.368 2.10533,-2.368 h 4.82 c 1.51334,0 2.10534,0.46667 2.10534,2.19334 v 0.21333 h -1.74267 v -0.66 z"
     inkscape:connector-curvature="0" /><path
     id="path218"
     style="fill:#191919;fill-opacity:1;fill-rule:nonzero;stroke:none;stroke-width:1.33333325"
     d="m 131.43001,209.97907 v 2.65867 h 4.44 c 0.60933,0 0.88933,-0.136 0.88933,-0.796 v -1.068 c 0,-0.65867 -0.28,-0.79467 -0.88933,-0.79467 z m -1.94133,-1.72667 h 7.27066 c 1.3,0 1.908,0.54267 1.908,1.94 v 2.232 c 0,1.39867 -0.608,1.94 -1.908,1.94 h -5.32933 v 3.90267 h -1.94133 z"
     inkscape:connector-curvature="0" /><path
     id="path222"
     style="fill:#354f9f;fill-opacity:1;fill-rule:nonzero;stroke:none;stroke-width:1.33333325"
     d="m 110.37041,212.75 c -0.21867,1.46 -0.47733,2.70667 -1.39867,3.95333 -1.016,1.36534 -2.34533,1.964 -3.76133,1.964 -2.66533,0 -4.232,-2.136 -3.808,-5.28133 0.43733,-3.25067 2.592,-5.38533 5.324,-5.38533 1.74267,0 2.96667,0.928 3.44533,2.79866 l -2.23066,1.03467 c -0.17467,-0.95467 -0.72934,-1.592 -1.61867,-1.592 -1.44933,0 -2.42267,1.632 -2.62933,3.15733 -0.208,1.552 0.36533,3.132 1.816,3.132 0.956,0 1.76533,-0.58533 2.01066,-1.73866 h -1.79866 l 0.276,-2.04267 z"
     inkscape:connector-curvature="0" /><path
     id="path226"
     style="fill:#354f9f;fill-opacity:1;fill-rule:nonzero;stroke:none;stroke-width:1.33333325"
     d="m 113.56787,212.92173 h 0.37067 c 0.79866,0 1.58533,0 1.75066,-1.22133 0.16934,-1.25867 -0.56,-1.27334 -1.41466,-1.27334 h -0.37067 z m -1.58533,-4.59067 h 3.37333 c 1.82133,0 2.94667,0.996 2.63733,3.29067 -0.31866,2.36133 -1.53733,3.39733 -3.46,3.39733 h -1.248 l -0.44666,3.316 h -2.204 z"
     inkscape:connector-curvature="0" /><path
     id="path230"
     style="fill:#4b5da7;fill-opacity:1;fill-rule:nonzero;stroke:none;stroke-width:1.33333325"
     d="m 185.39054,208 h -1.46933 c -0.39867,0 -0.77334,0.18933 -1.01467,0.512 l -2.63867,3.532 -2.70266,-3.54133 C 177.32387,208.18533 176.95187,208 176.55854,208 h -1.48533 c -0.704,0 -1.276,0.58267 -1.276,1.30267 v 1.924 h -2.05067 c -0.21067,0 -0.4,0.064 -0.576,0.156 l -1.46,-2.708 c -0.224,-0.416 -0.652,-0.67467 -1.11733,-0.67467 h -1.27067 c -0.456,0 -0.87733,0.248 -1.10533,0.65067 l -1.348,2.38266 v -0.168 c 0,-0.86133 -0.29734,-2.86533 -3.052,-2.86533 h -8.19867 c -0.472,0 -0.904,0.26533 -1.12667,0.68933 l -1.94666,3.72534 -2.05867,-3.74934 C 148.26121,208.25467 147.83587,208 147.37321,208 h -2.09734 c -0.456,0 -0.87733,0.248 -1.10533,0.65067 -0.228,0.404 -0.228,0.9 0.001,1.304 l 4.56,8.06133 c 0.228,0.40267 0.64934,0.65067 1.10534,0.65067 h 1.27066 c 0.46534,0 0.89334,-0.25867 1.11867,-0.67467 l 1.548,-2.87067 v 2.24267 c 0,0.72 0.572,1.30267 1.276,1.30267 h 14.03333 c 0.41067,0 0.776,-0.19734 1.00934,-0.50534 0.24,0.316 0.61066,0.50534 1.00933,0.50534 h 1.83733 c 0.44,0 0.84534,-0.23467 1.07867,-0.61334 0.22667,0.36 0.604,0.61334 1.05467,0.61334 h 1.48533 c 0.704,0 1.276,-0.58267 1.276,-1.30267 v -1.68667 l 1.1,1.5 c 0.24133,0.328 0.62,0.52134 1.02133,0.52134 h 0.368 c 0.40134,0 0.77867,-0.192 1.02,-0.52 l 1.07067,-1.45334 v 1.63867 c 0,0.72 0.572,1.30267 1.276,1.30267 h 1.7 c 0.70533,0 1.276,-0.58267 1.276,-1.30267 v -8.06133 c 0,-0.72 -0.57067,-1.30267 -1.276,-1.30267"
     inkscape:connector-curvature="0" /><path
     id="path234"
     style="fill:#ffffff;fill-opacity:1;fill-rule:nonzero;stroke:none;stroke-width:1.33333325"
     d="m 175.07374,209.30267 h 1.484 l 3.72,4.87467 3.64267,-4.87467 h 1.47066 v 8.06133 h -1.7 v -4.984 c 0,-0.156 0.016,-0.43733 0.0613,-0.85866 -0.168,0.35866 -0.32134,0.656 -0.45867,0.84266 l -2.96933,4.032 h -0.368 l -2.96934,-4.04666 c -0.184,-0.25067 -0.352,-0.516 -0.47466,-0.828 0.0307,0.328 0.0453,0.59333 0.0453,0.85866 v 4.984 h -1.484 z"
     inkscape:connector-curvature="0" /><path
     inkscape:connector-curvature="0"
     d="m 171.74681,212.52933 h 2.868 v 1.60934 h -2.868 z"
     style="fill:#ffffff;fill-opacity:1;fill-rule:nonzero;stroke:none;stroke-width:1.33333325"
     id="path236" /><path
     id="path240"
     style="fill:#ffffff;fill-opacity:1;fill-rule:nonzero;stroke:none;stroke-width:1.33333325"
     d="m 161.93907,215.19253 c 0,0.59467 -0.26,0.71867 -0.888,0.71867 h -4.19333 v -2.04667 h 4.19333 c 0.628,0 0.888,0.124 0.888,0.71867 z m -5.08133,-4.57733 h 4.19333 c 0.56667,0 0.84267,0.108 0.84267,0.57733 v 0.76667 c 0,0.468 -0.276,0.57733 -0.84267,0.57733 h -4.19333 z m 14.24533,6.74933 h 1.83733 l -4.348,-8.06133 h -1.27066 l -3.668,6.48266 v -1.03066 c 0,-0.85867 -0.50534,-1.42267 -1.424,-1.54667 0.87333,-0.10933 1.36266,-0.57867 1.36266,-1.35867 v -0.98533 c 0,-1.124 -0.56666,-1.56133 -1.776,-1.56133 h -8.19866 l -3.04534,5.82666 -3.19866,-5.82666 h -2.09734 l 4.56134,8.06133 h 1.27066 l 3.94267,-7.312 v 7.312 h 14.03333 v -1.60933 h -3.34266 l 2.31466,-4.21867 z"
     inkscape:connector-curvature="0" /><path
     id="path244"
     style="fill:#191919;fill-opacity:1;fill-rule:nonzero;stroke:none;stroke-width:1.33333325"
     d="m 210.896,215.79333 c 0,0.78667 -0.29467,0.95067 -1.00667,0.95067 h -4.756 v -2.708 h 4.756 c 0.712,0 1.00667,0.16533 1.00667,0.95066 z m -5.76267,-6.056 h 4.756 c 0.64267,0 0.95467,0.14267 0.95467,0.764 v 1.01333 c 0,0.61867 -0.312,0.764 -0.95467,0.764 h -4.756 z m 16.15467,8.92933 h 2.084 L 218.44133,208 H 217 l -4.16,8.57866 v -1.364 c 0,-1.136 -0.572,-1.88266 -1.61333,-2.04666 0.98933,-0.14534 1.544,-0.76534 1.544,-1.79867 v -1.30267 c 0,-1.488 -0.64267,-2.06666 -2.01334,-2.06666 H 201.46 l -3.45467,7.71066 L 194.37867,208 H 192 l 5.172,10.66666 h 1.44133 l 4.472,-9.67466 v 9.67466 h 15.91334 v -2.12933 H 215.208 l 2.62533,-5.58133 z"
     inkscape:connector-curvature="0" /><path
     id="path248"
     style="fill:#a3834a;fill-opacity:1;fill-rule:nonzero;stroke:none;stroke-width:1.33333325"
     d="m 224.9752,208.00013 1.34933,6.43733 0.028,-0.0293 c -0.0387,-0.50933 -0.001,-1.06133 0.072,-1.61333 l 0.64134,-4.79467 h 1.76933 l -1.424,10.66667 h -1.67467 l -1.32666,-6.43734 -0.0267,0.0293 -0.0613,1.07466 -0.0467,0.43867 -0.65333,4.89467 h -1.76934 l 1.424,-10.66667 z"
     inkscape:connector-curvature="0" /><path
     id="path252"
     style="fill:#a3834a;fill-opacity:1;fill-rule:nonzero;stroke:none;stroke-width:1.33333325"
     d="m 233.65027,208.00013 -0.264,1.98 h -1.79467 l -0.30933,2.32 h 1.58 l -0.26533,1.98133 h -1.57867 l -0.32133,2.40534 h 1.81733 l -0.264,1.98 h -3.588 l 1.424,-10.66667 z"
     inkscape:connector-curvature="0" /><path
     id="path256"
     style="fill:#a3834a;fill-opacity:1;fill-rule:nonzero;stroke:none;stroke-width:1.33333325"
     d="m 236.37307,208.00013 0.312,1.48533 c 0.0853,0.524 0.18933,1.07467 0.21067,1.62667 h 0.024 c 0.168,-0.552 0.38266,-1.08933 0.62133,-1.62667 l 0.732,-1.48533 h 1.91333 l -2.60266,5.164 1.32,5.50267 h -2.05467 l -0.34267,-1.69867 c -0.0947,-0.536 -0.132,-1.06 -0.17866,-1.59867 h -0.024 c -0.20267,0.53867 -0.38,1.06267 -0.60534,1.59867 l -0.74933,1.69867 h -1.996 l 2.636,-5.50267 -1.212,-5.164 z"
     inkscape:connector-curvature="0" /><path
     id="path260"
     style="fill:#a3834a;fill-opacity:1;fill-rule:nonzero;stroke:none;stroke-width:1.33333325"
     d="m 245.33347,208.00013 -0.264,1.98 h -1.40267 l -1.16,8.68667 h -1.76933 l 1.16,-8.68667 h -1.38933 l 0.264,-1.98 z"
     inkscape:connector-curvature="0" /><path
     id="path264"
     style="fill:#263979;fill-opacity:1;fill-rule:nonzero;stroke:none;stroke-width:1.33333325"
     d="m 172.56347,224 h 4.384 l 1.61733,5.60267 h 0.108 c 0.0773,-0.46667 0.156,-0.96267 0.296,-1.41467 l 1.32,-4.188 h 4.33867 l 1.92667,10.66667 h -4.11867 l -0.576,-5.84267 h -0.0773 c -0.0773,0.35333 -0.156,0.72133 -0.28,1.06 l -1.69467,4.78267 h -2.48667 l -1.524,-4.51334 c -0.124,-0.45333 -0.23333,-0.876 -0.264,-1.32933 h -0.14 c -0.0307,0.424 -0.0627,0.864 -0.108,1.28667 l -0.49866,4.556 h -4.11867 z"
     inkscape:connector-curvature="0" /><path
     id="path268"
     style="fill:#263979;fill-opacity:1;fill-rule:nonzero;stroke:none;stroke-width:1.33333325"
     d="m 192.43961,229.80027 c 0,-0.50933 -0.404,-0.976 -0.97867,-0.976 -0.60666,0 -0.90266,0.45333 -0.90266,0.976 z m -1.88133,1.556 c 0,0.608 0.10933,1.28667 0.948,1.28667 0.42,0 0.73066,-0.268 0.808,-0.62134 h 3.90266 c -0.52933,1.81067 -2.75066,2.64534 -4.648,2.64534 -2.596,0 -4.97466,-1.216 -4.97466,-3.80534 0,-2.49066 2.11333,-4.04666 4.74133,-4.04666 2.93733,0 5.25467,1.72666 5.052,4.54133 z"
     inkscape:connector-curvature="0" /><path
     id="path272"
     style="fill:#263979;fill-opacity:1;fill-rule:nonzero;stroke:none;stroke-width:1.33333325"
     d="m 201.306,227.25373 1.336,-0.0573 v 2.872 l -1.336,-0.0693 v 4.668 h -4.04267 v -4.668 l -0.97866,0.0693 v -2.872 l 0.97866,0.0573 v -2.51867 h 4.04267 z"
     inkscape:connector-curvature="0" /><path
     id="path276"
     style="fill:#263979;fill-opacity:1;fill-rule:nonzero;stroke:none;stroke-width:1.33333325"
     d="m 208.102,229.80027 c 0,-0.50933 -0.404,-0.976 -0.97867,-0.976 -0.60666,0 -0.90133,0.45333 -0.90133,0.976 z m -1.88,1.556 c 0,0.608 0.108,1.28667 0.948,1.28667 0.42,0 0.72933,-0.268 0.808,-0.62134 h 3.90133 c -0.528,1.81067 -2.75066,2.64534 -4.64666,2.64534 -2.596,0 -4.97467,-1.216 -4.97467,-3.80534 0,-2.49066 2.11333,-4.04666 4.74133,-4.04666 2.93734,0 5.25334,1.72666 5.05067,4.54133 z"
     inkscape:connector-curvature="0" /><path
     id="path280"
     style="fill:#263979;fill-opacity:1;fill-rule:nonzero;stroke:none;stroke-width:1.33333325"
     d="m 216.05187,230.7768 c 0,0.59333 0.49733,1.032 1.11867,1.032 0.62266,0 1.12,-0.43867 1.12,-1.032 0,-0.60933 -0.45067,-1.104 -1.12,-1.104 -0.668,0 -1.11867,0.49467 -1.11867,1.104 m 6.12533,0.056 c 0,2.48933 -2.42533,3.83333 -5.00666,3.83333 -2.58,0 -5.004,-1.344 -5.004,-3.83333 0,-2.63067 2.284,-4.01867 5.004,-4.01867 2.72133,0 5.00666,1.388 5.00666,4.01867"
     inkscape:connector-curvature="0" /><path
     id="path284"
     style="fill:#263979;fill-opacity:1;fill-rule:nonzero;stroke:none;stroke-width:1.33333325"
     d="m 229.33347,230.69147 c -0.42,-0.22667 -0.716,-0.41067 -1.228,-0.41067 -1.04267,0 -1.57067,0.56667 -1.57067,1.5 v 2.88534 h -4.01066 v -7.512 h 4.01066 l -0.0933,1.00533 h 0.0933 c 0.71467,-0.99067 1.44534,-1.20267 2.79867,-1.17467 z"
     inkscape:connector-curvature="0" /><path
     inkscape:connector-curvature="0"
     d="m 158.59614,228.42667 h -3.54 V 225.884 h 3.54 z M 160.00014,224 h -8.08 v 10.66667 h 3.136 v -4.356 h 3.54 v 4.356 h 1.38267 z"
     style="fill:#191919;fill-opacity:1;fill-rule:nonzero;stroke:none;stroke-width:1.33333325"
     id="path286" /><path
     id="path290"
     style="fill:#191919;fill-opacity:1;fill-rule:nonzero;stroke:none;stroke-width:1.33333325"
     d="m 122.66681,225.07973 v 9.58667 h 2.82533 v -7.70267 h 1.53067 v 7.70267 h 1.38267 v -7.70267 h 1.53066 v 7.70267 h 1.38267 v -7.70267 -1.884 z"
     inkscape:connector-curvature="0" /><path
     id="path294"
     style="fill:#191919;fill-opacity:1;fill-rule:nonzero;stroke:none;stroke-width:1.33333325"
     d="m 135.69054,232.78253 v -6.89867 h 5.12133 v -1.884 h -5.12133 -1.13333 -2.00134 v 10.66667 h 2.00134 1.13333 3.73733 1.384 v -1.884 -2.50667 -1.63733 -0.24667 h -3.212 v 1.884 h 1.828 v 2.50667 z"
     inkscape:connector-curvature="0" /><path
     id="path298"
     style="fill:#191919;fill-opacity:1;fill-rule:nonzero;stroke:none;stroke-width:1.33333325"
     d="m 145.34374,232.78253 v -2.472 h 3.54 0.0213 v 2.472 z m 0,-6.89867 h 3.56133 v 2.54267 h -0.0213 -3.54 z m -3.13467,-1.884 v 10.66667 h 8.07867 v -4.50667 l -0.69067,-0.79066 0.69067,-0.92134 v -2.564 -1.884 z"
     inkscape:connector-curvature="0" /></svg>