<?xml version="1.0" encoding="UTF-8" standalone="no"?>
<svg
   xmlns:dc="http://purl.org/dc/elements/1.1/"
   xmlns:cc="http://creativecommons.org/ns#"
   xmlns:rdf="http://www.w3.org/1999/02/22-rdf-syntax-ns#"
   xmlns:svg="http://www.w3.org/2000/svg"
   xmlns="http://www.w3.org/2000/svg"
   xmlns:sodipodi="http://sodipodi.sourceforge.net/DTD/sodipodi-0.dtd"
   xmlns:inkscape="http://www.inkscape.org/namespaces/inkscape"
   viewBox="0 0 341.33334 341.33334"
   height="256"
   width="256"
   xml:space="preserve"
   id="svg2"
   version="1.1"
   sodipodi:docname="Nintendo - Nintendo Entertainment System.svg"
   inkscape:version="0.92.3 (2405546, 2018-03-11)"><sodipodi:namedview
     pagecolor="#ffffff"
     bordercolor="#666666"
     borderopacity="1"
     objecttolerance="10"
     gridtolerance="10"
     guidetolerance="10"
     inkscape:pageopacity="0"
     inkscape:pageshadow="2"
     inkscape:window-width="1920"
     inkscape:window-height="1001"
     id="namedview84"
     showgrid="false"
     inkscape:pagecheckerboard="true"
     inkscape:zoom="1.9555922"
     inkscape:cx="-16.431722"
     inkscape:cy="112.2383"
     inkscape:window-x="-9"
     inkscape:window-y="-9"
     inkscape:window-maximized="1"
     inkscape:current-layer="svg2" /><metadata
     id="metadata8"><rdf:RDF><cc:Work
         rdf:about=""><dc:format>image/svg+xml</dc:format><dc:type
           rdf:resource="http://purl.org/dc/dcmitype/StillImage" /><dc:title /></cc:Work></rdf:RDF></metadata><defs
     id="defs6"><clipPath
       id="clipPath18"
       clipPathUnits="userSpaceOnUse"><path
         id="path16"
         d="M 0,256 H 256 V 0 H 0 Z" /></clipPath><clipPath
       id="clipPath26"
       clipPathUnits="userSpaceOnUse"><path
         id="path24"
         d="M 4,184 H 252 V 68 H 4 Z" /></clipPath></defs><g
     id="g36"
     transform="matrix(1.3333333,0,0,-1.3333333,318.88893,240)"
     style="stroke:#1a1a1a;stroke-width:2.00000009;stroke-miterlimit:4;stroke-dasharray:none"><path
       inkscape:connector-curvature="0"
       d="m 0,0 h -222.333 c -2.67,0 -4.834,2.149 -4.834,4.8 v 90.4 c 0,2.651 2.164,4.8 4.834,4.8 H 0 c 2.669,0 4.833,-2.149 4.833,-4.8 V 4.8 C 4.833,2.149 2.669,0 0,0"
       style="fill:#cccccc;fill-opacity:1;fill-rule:nonzero;stroke:#1a1a1a;stroke-width:2.00000009;stroke-miterlimit:4;stroke-dasharray:none"
       id="path38" /></g><path
     inkscape:connector-curvature="0"
     d="M 314.66666,229.33333 H 26.666666 V 122.66667 H 314.66666 Z"
     style="fill:#262626;fill-opacity:1;fill-rule:nonzero;stroke:none;stroke-width:1.33333325"
     id="path40" /><g
     id="g42"
     transform="matrix(1.3333333,0,0,-1.3333333,85.653198,146.66667)"><path
       inkscape:connector-curvature="0"
       d="m 0,0 h -16.48 c -1.04,0 -1.882,-0.843 -1.882,-1.882 v -11.996 h -11.996 c -1.039,0 -1.882,-0.843 -1.882,-1.882 v -16.48 c 0,-1.04 0.843,-1.882 1.882,-1.882 h 11.996 v -11.996 c 0,-1.039 0.842,-1.882 1.882,-1.882 H 0 c 1.039,0 1.882,0.843 1.882,1.882 v 11.996 h 11.996 c 1.039,0 1.882,0.842 1.882,1.882 v 16.48 c 0,1.039 -0.843,1.882 -1.882,1.882 H 1.882 V -1.882 C 1.882,-0.843 1.039,0 0,0"
       style="fill:#cccccc;fill-opacity:1;fill-rule:nonzero;stroke:none"
       id="path44" /></g><g
     id="g46"
     transform="matrix(1.3333333,0,0,-1.3333333,104,167.73867)"
     style="fill:#262626;fill-opacity:1"><path
       inkscape:connector-curvature="0"
       d="M 0,0 H -13.804 V 13.804 H -30.196 V 0 H -44 v -16.392 h 13.804 v -13.804 h 16.392 v 13.804 H 0 Z"
       style="fill:#262626;fill-opacity:1;fill-rule:nonzero;stroke:none"
       id="path48" /></g><g
     id="g50"
     transform="matrix(1.3333333,0,0,-1.3333333,255.99999,210.08107)"><path
       inkscape:connector-curvature="0"
       d="M 0,0 C 0,-1.347 -1.092,-2.439 -2.439,-2.439 H -21.561 C -22.908,-2.439 -24,-1.347 -24,0 v 19.122 c 0,1.347 1.092,2.439 2.439,2.439 H -2.439 C -1.092,21.561 0,20.469 0,19.122 Z"
       style="fill:#cccccc;fill-opacity:1;fill-rule:nonzero;stroke:none"
       id="path52" /></g><g
     id="g54"
     transform="matrix(1.3333333,0,0,-1.3333333,254.66666,197.33333)"><path
       inkscape:connector-curvature="0"
       d="m 0,0 c 0,6.065 -4.935,11 -11,11 -6.065,0 -11,-4.935 -11,-11 0,-6.065 4.935,-11 11,-11 6.065,0 11,4.935 11,11"
       style="fill:#7b0000;fill-opacity:1;fill-rule:nonzero;stroke:none"
       id="path56" /></g><g
     id="g58"
     transform="matrix(1.3333333,0,0,-1.3333333,253.33333,197.33333)"><path
       inkscape:connector-curvature="0"
       d="m 0,0 c 0,-5.523 -4.477,-10 -10,-10 -5.523,0 -10,4.477 -10,10 0,5.523 4.477,10 10,10 C -4.477,10 0,5.523 0,0"
       style="fill:#b80000;fill-opacity:1;fill-rule:nonzero;stroke:none"
       id="path60" /></g><g
     id="g62"
     transform="matrix(1.3333333,0,0,-1.3333333,298.66666,210.08107)"><path
       inkscape:connector-curvature="0"
       d="M 0,0 C 0,-1.347 -1.092,-2.439 -2.439,-2.439 H -21.561 C -22.908,-2.439 -24,-1.347 -24,0 v 19.122 c 0,1.347 1.092,2.439 2.439,2.439 H -2.439 C -1.092,21.561 0,20.469 0,19.122 Z"
       style="fill:#cccccc;fill-opacity:1;fill-rule:nonzero;stroke:none"
       id="path64" /></g><g
     id="g66"
     transform="matrix(1.3333333,0,0,-1.3333333,297.33333,197.33333)"><path
       inkscape:connector-curvature="0"
       d="m 0,0 c 0,6.065 -4.935,11 -11,11 -6.065,0 -11,-4.935 -11,-11 0,-6.065 4.935,-11 11,-11 6.065,0 11,4.935 11,11"
       style="fill:#7b0000;fill-opacity:1;fill-rule:nonzero;stroke:none"
       id="path68" /></g><g
     id="g70"
     transform="matrix(1.3333333,0,0,-1.3333333,295.99999,197.33333)"><path
       inkscape:connector-curvature="0"
       d="m 0,0 c 0,-5.523 -4.477,-10 -10,-10 -5.523,0 -10,4.477 -10,10 0,5.523 4.477,10 10,10 C -4.477,10 0,5.523 0,0"
       style="fill:#b80000;fill-opacity:1;fill-rule:nonzero;stroke:none"
       id="path72" /></g><g
     id="g74"
     transform="matrix(1.3333333,0,0,-1.3333333,202.66666,213.33333)"><path
       inkscape:connector-curvature="0"
       d="m 0,0 h -56 c -2.209,0 -4,1.791 -4,4 v 16 c 0,2.209 1.791,4 4,4 H 0 c 2.209,0 4,-1.791 4,-4 V 4 C 4,1.791 2.209,0 0,0"
       style="fill:#cccccc;fill-opacity:1;fill-rule:nonzero;stroke:none"
       id="path76" /></g><g
     id="g78"
     transform="matrix(1.3333333,0,0,-1.3333333,160,197.33333)"><path
       inkscape:connector-curvature="0"
       d="M 0,0 C 0,-2.209 -1.78,-4 -3.976,-4 H -16.024 C -18.22,-4 -20,-2.209 -20,0 c 0,2.209 1.78,4 3.976,4 H -3.976 C -1.78,4 0,2.209 0,0"
       style="fill:#191919;fill-opacity:1;fill-rule:nonzero;stroke:none"
       id="path80" /></g><g
     id="g82"
     transform="matrix(1.3333333,0,0,-1.3333333,197.33333,197.33333)"><path
       inkscape:connector-curvature="0"
       d="M 0,0 C 0,-2.209 -1.78,-4 -3.976,-4 H -16.024 C -18.22,-4 -20,-2.209 -20,0 c 0,2.209 1.78,4 3.976,4 H -3.976 C -1.78,4 0,2.209 0,0"
       style="fill:#191919;fill-opacity:1;fill-rule:nonzero;stroke:none"
       id="path84" /></g><g
     id="g86"
     transform="matrix(1.3333333,0,0,-1.3333333,79.999998,178.66667)"
     style="fill:#4d4d4d"><path
       inkscape:connector-curvature="0"
       d="m 0,0 c 0,-2.209 -1.791,-4 -4,-4 -2.209,0 -4,1.791 -4,4 0,2.209 1.791,4 4,4 2.209,0 4,-1.791 4,-4"
       style="fill:#4d4d4d;fill-opacity:1;fill-rule:nonzero;stroke:none"
       id="path88" /></g><g
     id="g90"
     transform="matrix(1.3333333,0,0,-1.3333333,72.168398,198.99747)"
     style="fill:#4d4d4d"><path
       inkscape:connector-curvature="0"
       d="M 0,0 V 3.248 H 3.949 V 0 h 1.924 l -4,-4.752 -4,4.752 z"
       style="fill:#4d4d4d;fill-opacity:1;fill-rule:nonzero;stroke:none"
       id="path92" /></g><g
     id="g94"
     transform="matrix(1.3333333,0,0,-1.3333333,77.164131,158.33587)"
     style="fill:#4d4d4d"><path
       inkscape:connector-curvature="0"
       d="M 0,0 V -3.248 H -3.949 V 0 h -1.924 l 4,4.752 4,-4.752 z"
       style="fill:#4d4d4d;fill-opacity:1;fill-rule:nonzero;stroke:none"
       id="path96" /></g><g
     id="g98"
     transform="matrix(1.3333333,0,0,-1.3333333,54.335865,176.1684)"
     style="fill:#4d4d4d"><path
       inkscape:connector-curvature="0"
       d="M 0,0 H 3.248 V -3.949 H 0 v -1.924 l -4.752,4 4.752,4 z"
       style="fill:#4d4d4d;fill-opacity:1;fill-rule:nonzero;stroke:none"
       id="path100" /></g><g
     id="g102"
     transform="matrix(1.3333333,0,0,-1.3333333,94.997331,181.16413)"
     style="fill:#4d4d4d"><path
       inkscape:connector-curvature="0"
       d="M 0,0 H -3.248 V 3.949 H 0 v 1.924 l 4.752,-4 -4.752,-4 z"
       style="fill:#4d4d4d;fill-opacity:1;fill-rule:nonzero;stroke:none"
       id="path104" /></g><g
     id="g106"
     transform="matrix(1.3333333,0,0,-1.3333333,207.99999,172.20573)"><path
       inkscape:connector-curvature="0"
       d="M 0,0 C 0,-1.572 -1.174,-2.846 -2.623,-2.846 H -61.377 C -62.826,-2.846 -64,-1.572 -64,0 v 6.309 c 0,1.571 1.174,2.845 2.623,2.845 H -2.623 C -1.174,9.154 0,7.88 0,6.309 Z"
       style="fill:#808080;fill-opacity:1;fill-rule:nonzero;stroke:none"
       id="path108" /></g><g
     id="g110"
     transform="matrix(1.3333333,0,0,-1.3333333,207.99999,150.8724)"><path
       inkscape:connector-curvature="0"
       d="M 0,0 C 0,-1.572 -1.174,-2.846 -2.623,-2.846 H -61.377 C -62.826,-2.846 -64,-1.572 -64,0 v 6.309 c 0,1.571 1.174,2.845 2.623,2.845 H -2.623 C -1.174,9.154 0,7.88 0,6.309 Z"
       style="fill:#808080;fill-opacity:1;fill-rule:nonzero;stroke:none"
       id="path112" /></g><g
     id="g114"
     transform="matrix(1.3333333,0,0,-1.3333333,122.66666,122.66667)"><path
       inkscape:connector-curvature="0"
       d="M 0,0 V -5.154 C 0,-6.726 1.174,-8 2.623,-8 H 61.377 C 62.826,-8 64,-6.726 64,-5.154 V 0 Z"
       style="fill:#808080;fill-opacity:1;fill-rule:nonzero;stroke:none"
       id="path116" /></g><g
     id="g118"
     transform="matrix(1.3333333,0,0,-1.3333333,204.50239,218.66667)"><path
       inkscape:connector-curvature="0"
       d="m 0,0 h -58.754 c -1.448,0 -2.623,-1.274 -2.623,-2.846 V -8 h 64 v 5.154 C 2.623,-1.274 1.449,0 0,0"
       style="fill:#808080;fill-opacity:1;fill-rule:nonzero;stroke:none"
       id="path120" /></g><g
     id="g124"
     transform="matrix(1.3333333,0,0,-1.3333333,270.97506,145.25533)"><path
       inkscape:connector-curvature="0"
       d="M 0,0 H 2.173 V -1.038 H 3.348 V -1.803 H 2.173 L 2.175,-6.926 H -0.002 L 0,-1.803 h -1.18 v 0.763 h 1.182 z"
       style="fill:#b80000;fill-opacity:1;fill-rule:nonzero;stroke:none"
       id="path126" /></g><path
     inkscape:connector-curvature="0"
     d="m 237.02933,147.64667 h 2.896 v 6.844 h -2.896 z"
     style="fill:#b80000;fill-opacity:1;fill-rule:nonzero;stroke:none;stroke-width:1.33333325"
     id="path128" /><path
     inkscape:connector-curvature="0"
     d="m 237.02266,144.19467 h 2.90267 v 2.104 h -2.90267 z"
     style="fill:#b80000;fill-opacity:1;fill-rule:nonzero;stroke:none;stroke-width:1.33333325"
     id="path130" /><g
     id="g132"
     transform="matrix(1.3333333,0,0,-1.3333333,290.26479,150.77973)"><path
       inkscape:connector-curvature="0"
       d="m 0,0 v 0.001 c 0,-0.016 -0.002,-0.778 -0.002,-1.085 0,-0.819 -0.452,-1.156 -0.888,-1.156 -0.435,0 -0.889,0.337 -0.889,1.156 v 1.105 c 0,0 0.002,0.761 0.002,1.071 0,0.815 0.454,1.15 0.887,1.15 0.434,0 0.888,-0.335 0.888,-1.15 0,-0.31 0,-0.885 0.002,-1.091 v 0.001 z m -0.872,2.878 c -1.754,0 -3.176,-1.291 -3.176,-2.882 0,-1.593 1.422,-2.883 3.176,-2.883 1.753,0 3.173,1.29 3.173,2.883 0,1.591 -1.42,2.882 -3.173,2.882"
       style="fill:#b80000;fill-opacity:1;fill-rule:nonzero;stroke:none"
       id="path134" /></g><g
     id="g136"
     transform="matrix(1.3333333,0,0,-1.3333333,244.49333,149.79013)"><path
       inkscape:connector-curvature="0"
       d="m 0,0 c 0,0.796 0.514,0.998 0.851,0.998 0.346,0 0.852,-0.202 0.852,-0.998 0,-0.262 -0.002,-0.913 -0.002,-0.913 0,0 0.002,-0.641 0.002,-0.915 0,-0.792 -0.506,-1 -0.851,-1 -0.338,0 -0.852,0.208 -0.852,1 v 0.911 z m -2.128,4.211 v -7.72 H 0.02 c 0,0 0.002,0.25 0.002,0.296 0.83,-0.556 1.768,-0.555 2.499,-0.192 0.195,0.098 1.485,0.758 1.485,2.546 0,1.354 -1.196,2.835 -2.761,2.687 C 0.73,1.78 0.362,1.579 0.016,1.37 v 2.841 z"
       style="fill:#b80000;fill-opacity:1;fill-rule:nonzero;stroke:none"
       id="path138" /></g><g
     id="g140"
     transform="matrix(1.3333333,0,0,-1.3333333,264.01426,148.41693)"><path
       inkscape:connector-curvature="0"
       d="m 0,0 c 0.169,0.316 0.481,0.468 0.763,0.468 v 0 h 0.001 v 0 C 1.048,0.468 1.359,0.316 1.528,0 1.665,-0.256 1.672,-0.557 1.669,-1.007 H -0.144 C -0.148,-0.557 -0.139,-0.256 0,0 m 1.663,-2.866 c 0,-0.94 -0.578,-1.148 -0.899,-1.148 -0.321,0 -0.908,0.208 -0.908,1.148 0,0.281 0.002,1.059 0.002,1.059 0,0 4.091,-0.002 4.091,0 0,1.593 -1.439,2.913 -3.205,2.913 -1.766,0 -3.199,-1.291 -3.199,-2.884 0,-1.591 1.433,-2.881 3.199,-2.881 1.465,0 2.704,0.893 3.082,2.105 L 1.662,-2.556 c 0,0 0.001,-0.021 0.001,-0.31"
       style="fill:#b80000;fill-opacity:1;fill-rule:nonzero;stroke:none"
       id="path142" /></g><g
     id="g144"
     transform="matrix(1.3333333,0,0,-1.3333333,232.23359,153.4736)"><path
       inkscape:connector-curvature="0"
       d="M 0,0 V 6.994 H -2.175 V 0 -0.763 H 0 2.354 V 0 Z"
       style="fill:#b80000;fill-opacity:1;fill-rule:nonzero;stroke:none"
       id="path146" /></g><g
     id="g148"
     transform="matrix(1.3333333,0,0,-1.3333333,281.51359,150.1516)"><path
       inkscape:connector-curvature="0"
       d="M 0,0 H 2.128 C 1.909,1.657 0.457,2.137 -0.29,2.116 -1.007,2.093 -1.606,1.763 -2.022,1.34 c -0.002,0.127 0,0.541 0,0.541 L -4.177,1.879 -4.179,-3.254 h 2.157 c 0,0 -0.002,3.153 -0.002,3.371 0,0.446 0.44,0.945 1.031,0.945 C -0.402,1.062 0,0.563 0,0.117 Z"
       style="fill:#b80000;fill-opacity:1;fill-rule:nonzero;stroke:none"
       id="path150" /></g><g
     id="g152"
     transform="matrix(1.3333333,0,0,-1.3333333,254.39093,147.65413)"><path
       inkscape:connector-curvature="0"
       d="m 0,0 v 0.911 c 0,0.792 0.514,1 0.852,1 0.345,0 0.851,-0.208 0.851,-1 0,-0.273 -0.002,-0.915 -0.002,-0.915 0,0 0.002,-0.651 0.002,-0.913 0,-0.795 -0.506,-0.998 -0.852,-0.998 C 0.514,-1.915 0,-1.712 0,-0.917 Z M 4.006,-0.058 C 4.006,1.73 2.716,2.39 2.521,2.489 1.79,2.851 0.852,2.853 0.022,2.296 0.022,2.342 0.02,2.593 0.02,2.593 h -2.148 v -7.72 h 2.144 v 2.841 c 0.009,-0.006 0.019,-0.011 0.028,-0.017 l 1.682,-2.824 h 2.128 l -1.518,2.549 c 0.997,0.417 1.67,1.504 1.67,2.52"
       style="fill:#b80000;fill-opacity:1;fill-rule:nonzero;stroke:none"
       id="path154" /></g></svg>