<?xml version="1.0" encoding="UTF-8" standalone="no"?>
<svg
   xmlns:dc="http://purl.org/dc/elements/1.1/"
   xmlns:cc="http://creativecommons.org/ns#"
   xmlns:rdf="http://www.w3.org/1999/02/22-rdf-syntax-ns#"
   xmlns:svg="http://www.w3.org/2000/svg"
   xmlns="http://www.w3.org/2000/svg"
   xmlns:sodipodi="http://sodipodi.sourceforge.net/DTD/sodipodi-0.dtd"
   xmlns:inkscape="http://www.inkscape.org/namespaces/inkscape"
   viewBox="0 0 341.33334 341.33334"
   height="256"
   width="256"
   xml:space="preserve"
   id="svg2"
   version="1.1"
   sodipodi:docname="Nintendo - GameCube (J).svg"
   inkscape:version="0.92.3 (2405546, 2018-03-11)"><sodipodi:namedview
     pagecolor="#ffffff"
     bordercolor="#666666"
     borderopacity="1"
     objecttolerance="10"
     gridtolerance="10"
     guidetolerance="10"
     inkscape:pageopacity="0"
     inkscape:pageshadow="2"
     inkscape:window-width="1920"
     inkscape:window-height="1001"
     id="namedview112"
     showgrid="false"
     inkscape:pagecheckerboard="true"
     inkscape:zoom="0.69140623"
     inkscape:cx="-541.05399"
     inkscape:cy="431.42332"
     inkscape:window-x="-9"
     inkscape:window-y="-9"
     inkscape:window-maximized="1"
     inkscape:current-layer="svg2" /><metadata
     id="metadata8"><rdf:RDF><cc:Work
         rdf:about=""><dc:format>image/svg+xml</dc:format><dc:type
           rdf:resource="http://purl.org/dc/dcmitype/StillImage" /><dc:title /></cc:Work></rdf:RDF></metadata><defs
     id="defs6"><clipPath
       id="clipPath18"
       clipPathUnits="userSpaceOnUse"><path
         id="path16"
         d="M 0,256 H 256 V 0 H 0 Z" /></clipPath><clipPath
       id="clipPath26"
       clipPathUnits="userSpaceOnUse"><path
         id="path24"
         d="M 3.99948,224 H 252.001 V 28 H 3.99948 Z" /></clipPath></defs><g
     id="g22"
     transform="matrix(1.3333333,0,0,-1.3333333,0,341.33333)" /><path
     id="path38"
     style="fill:#b46014;fill-opacity:1;fill-rule:nonzero;stroke:none;stroke-width:1.33333325"
     d="m 245.33333,65.235737 c 0,0 32.24933,-4.342667 53.33467,15.6 l -39.336,-5.557334 z"
     inkscape:connector-curvature="0" /><path
     id="path42"
     style="fill:#cccccc;fill-opacity:1;fill-rule:nonzero;stroke:none;stroke-width:1.33333325"
     d="m 63.999998,75.576537 c 0,0 5.473333,-15.022666 31.999999,-9.412 l -13.163999,9.412 z"
     inkscape:connector-curvature="0" /><path
     id="path46"
     style="fill:#e77f22;fill-opacity:1;fill-rule:nonzero;stroke:none;stroke-width:1.33333325"
     d="m 318.76799,133.68787 c -28.28,-83.313331 -143.06533,-80.473331 -148.10133,-80.309331 -5.036,-0.164 -119.819997,-3.004 -148.101329,80.309331 0,0 -14.9786666,103.62 0.314666,145.424 1.905334,5.21066 5.452,9.77333 10.346667,12.34266 6.324,3.31867 15.619999,3.79734 24.689333,-11.876 2.466666,-4.26266 3.873333,-9.05866 4.549333,-13.944 2.494666,-18.04266 9.758666,-66.65733 16.031999,-70.10399 0,0 33.040001,-47.38267 92.169331,-46.13067 59.13067,-1.252 92.16933,46.13067 92.16933,46.13067 6.27333,3.44666 13.53733,52.06133 16.03333,70.10399 0.67467,4.88534 2.08134,9.68134 4.54934,13.944 9.068,15.67334 18.364,15.19467 24.688,11.876 4.89466,-2.56933 8.44133,-7.132 10.34666,-12.34266 15.29467,-41.804 0.31467,-145.424 0.31467,-145.424"
     inkscape:connector-curvature="0" /><path
     id="path50"
     style="fill:#f39b11;fill-opacity:1;fill-rule:nonzero;stroke:none;stroke-width:1.33333325"
     d="m 198.10306,164.77653 -0.0107,-0.004 c 0,0 0.0173,-0.008 0.0373,-0.02 1.296,-1.25467 2.68266,-2.41867 4.152,-3.48 4.548,-4.77067 11.30666,-15.08667 12.38666,-34.808 -0.016,-0.48 -0.0507,-0.95067 -0.0533,-1.43467 -0.0187,-1.73466 0.0573,-3.45066 0.19867,-5.14666 -0.003,-0.0253 -0.001,-0.0507 -0.001,-0.0773 l 0.005,0.001 c 2.34533,-28.016002 25.77333,-50.169334 54.57066,-50.470668 30.57467,-0.318666 55.62,24.092 55.94133,54.533328 0.252,23.84534 -14.74266,44.30667 -35.94,52.21467 l 0.005,0.003 -0.012,-0.003 c -1.50667,0.56267 -3.03867,1.05067 -4.592,1.48133 -6.24267,2.648 -17.504,9.79467 -25.30533,28.21467 -0.10267,0.24 -0.20534,0.47333 -0.304,0.716 -0.0747,0.17733 -0.15467,0.35333 -0.232,0.544 l -0.0107,-0.008 c -5.82933,13.00667 -18.85867,22.14133 -34.10267,22.29867 -20.86266,0.21733 -37.94933,-16.44267 -38.168,-37.212 -0.112,-10.70667 4.288,-20.412 11.43467,-27.34267"
     inkscape:connector-curvature="0" /><path
     id="path54"
     style="fill:#c66a16;fill-opacity:1;fill-rule:nonzero;stroke:none;stroke-width:1.33333325"
     d="m 225.08426,165.2328 -19.08,7.67333 -8.67067,18.08267 6.94267,19.896 18.63733,7.68133 19.94534,-6.77733 7.808,-18.08 -7.372,-20.34667 z"
     inkscape:connector-curvature="0" /><path
     id="path58"
     style="fill:#f39b11;fill-opacity:1;fill-rule:nonzero;stroke:none;stroke-width:1.33333325"
     d="m 148.5636,164.77653 0.0107,-0.004 c 0,0 -0.0173,-0.008 -0.0373,-0.02 -1.296,-1.25467 -2.68266,-2.41867 -4.152,-3.48 -4.548,-4.77067 -11.30666,-15.08667 -12.38666,-34.808 0.016,-0.48 0.0507,-0.95067 0.0533,-1.43467 0.0187,-1.73466 -0.0573,-3.45066 -0.19867,-5.14666 0.003,-0.0253 0.001,-0.0507 0.001,-0.0773 l -0.005,0.001 C 129.5036,91.791198 106.0756,69.637866 77.278268,69.336532 46.703603,69.017866 21.65827,93.428532 21.336937,123.86986 c -0.252,23.84534 14.742666,44.30667 35.939999,52.21467 l -0.0053,0.003 0.012,-0.003 c 1.506667,0.56267 3.038667,1.05067 4.592,1.48133 6.242667,2.648 17.504,9.79467 25.305333,28.21467 0.102667,0.24 0.205333,0.47333 0.304,0.716 0.07467,0.17733 0.154667,0.35333 0.232,0.544 l 0.01067,-0.008 c 5.829333,13.00667 18.858671,22.14133 34.102671,22.29867 20.86266,0.21733 37.94933,-16.44267 38.168,-37.212 0.112,-10.70667 -4.288,-20.412 -11.43467,-27.34267"
     inkscape:connector-curvature="0" /><path
     id="path62"
     style="fill:#e77f22;fill-opacity:1;fill-rule:nonzero;stroke:none;stroke-width:1.33333325"
     d="m 303.99999,125.3316 c -0.001,19.14533 -15.52267,34.668 -34.668,34.668 -19.144,0.001 -34.66666,-15.52 -34.66533,-34.66533 0,-19.14667 15.52133,-34.668002 34.66666,-34.668002 19.14134,0.0013 34.66534,15.522662 34.66667,34.665332"
     inkscape:connector-curvature="0" /><path
     id="path66"
     style="fill:#e77f22;fill-opacity:1;fill-rule:nonzero;stroke:none;stroke-width:1.33333325"
     d="m 269.33333,106.66667 c -10.29333,0 -18.66667,8.37333 -18.66667,18.66667 C 250.66666,135.62667 259.04,144 269.33333,144 279.62666,144 288,135.62667 288,125.33334 288,115.04 279.62666,106.66667 269.33333,106.66667"
     inkscape:connector-curvature="0" /><path
     id="path70"
     style="fill:#4eb96f;fill-opacity:1;fill-rule:nonzero;stroke:none;stroke-width:1.33333325"
     d="m 285.33333,125.33334 c 0,8.836 -7.164,16 -16,16 -8.836,0 -16,-7.164 -16,-16 0,-8.836 7.164,-16 16,-16 8.836,0 16,7.164 16,16"
     inkscape:connector-curvature="0" /><path
     id="path74"
     style="fill:#e77f22;fill-opacity:1;fill-rule:nonzero;stroke:none;stroke-width:1.33333325"
     d="m 234.66666,130.66667 c -7.352,0 -13.33333,5.98133 -13.33333,13.33333 0,7.352 5.98133,13.33334 13.33333,13.33334 7.352,0 13.33333,-5.98134 13.33333,-13.33334 0,-7.352 -5.98133,-13.33333 -13.33333,-13.33333"
     inkscape:connector-curvature="0" /><path
     id="path78"
     style="fill:#ff0000;fill-opacity:1;fill-rule:nonzero;stroke:none;stroke-width:1.33333325"
     d="m 245.33333,144 c 0,5.89067 -4.776,10.66667 -10.66667,10.66667 C 228.776,154.66667 224,149.89067 224,144 c 0,-5.89067 4.776,-10.66667 10.66666,-10.66667 5.89067,0 10.66667,4.776 10.66667,10.66667"
     inkscape:connector-curvature="0" /><path
     id="path82"
     style="fill:#cccccc;fill-opacity:1;fill-rule:nonzero;stroke:none;stroke-width:1.33333325"
     d="m 271.57946,87.654536 0.0253,-0.109333 c 0,0 -0.42133,-0.161334 -1.084,-0.353334 -0.26666,-0.08133 -0.52133,-0.150666 -0.8,-0.202666 -2.89333,-0.704 -8.91066,-1.486667 -16.27066,1.533333 -7.64534,3.138667 -10.084,7.461333 -10.84267,9.508 -0.0467,0.12 -0.084,0.234666 -0.12133,0.357333 -0.15334,0.485333 -0.216,0.817333 -0.216,0.817333 l 0.12133,0.068 c -0.0707,0.488 -0.21733,0.959998 -0.156,1.466668 0.42533,3.50267 4.01467,5.94933 8.01733,5.464 1.012,-0.12267 1.95067,-0.42533 2.78534,-0.85867 l 0.005,10e-4 c 7.988,-5.777338 15.71733,-5.806671 15.71733,-5.806671 4.00267,-0.485333 6.904,-3.718667 6.48,-7.222666 -0.25466,-2.104 -1.71866,-3.726667 -3.66133,-4.662667"
     inkscape:connector-curvature="0" /><path
     id="path86"
     style="fill:#e77f22;fill-opacity:1;fill-rule:nonzero;stroke:none;stroke-width:1.33333325"
     d="m 260.77013,85.00027 c -2.69467,0.326667 -5.39467,1.04 -8.02533,2.12 -8.144,3.342667 -10.89867,7.996 -11.816,10.473333 l -0.148,0.434667 c -0.18,0.572 -0.25334,0.968 -0.25334,0.968 l -0.18133,0.982666 0.13733,0.08 c -0.032,0.272 -0.044,0.572 -0.005,0.89333 0.52667,4.34533 4.996,7.392 9.96133,6.78933 1.21867,-0.148 2.384,-0.50666 3.46267,-1.06666 5.62667,-4.04 10.83467,-5.156 13.45867,-5.47334 0.81333,-0.0987 1.30133,-0.10933 1.35733,-0.10933 0.009,-0.001 0.02,-0.003 0.0293,-0.004 5.18,-0.628 8.776,-4.645338 8.25067,-8.984004 -0.25333,-2.089333 -1.48933,-3.937333 -3.44533,-5.206667 l 0.0427,-0.184 -1.244,-0.596 c 0,0 -0.47733,-0.182666 -1.22666,-0.401333 -0.31467,-0.09467 -0.632,-0.18 -0.97867,-0.245333 -1.95733,-0.478667 -5.268,-0.968 -9.376,-0.470667 m 0.18667,1.537333 c 3.86666,-0.468 6.93866,0.008 8.76533,0.450667 0.27733,0.05333 0.532,0.122667 0.79867,0.202667 0.66266,0.193333 1.084,0.354666 1.084,0.354666 l -0.0253,0.109334 c 1.94267,0.934666 3.40667,2.558666 3.66134,4.662666 0.424,3.504 -2.476,6.737333 -6.48,7.221333 0,0 -0.58,0.0027 -1.58667,0.125334 -2.66667,0.322666 -8.33067,1.488004 -14.13067,5.682674 l -0.005,-0.003 c -0.83467,0.43467 -1.77333,0.73733 -2.78533,0.86 -4.00267,0.48533 -7.592,-1.96133 -8.01734,-5.46533 -0.0613,-0.50534 0.0853,-0.978674 0.156,-1.465341 l -0.12133,-0.06933 c 0,0 0.0627,-0.330667 0.216,-0.816 0.0373,-0.122667 0.0747,-0.237334 0.12133,-0.357334 0.75867,-2.048 3.19734,-6.370666 10.84267,-9.507999 2.71467,-1.114667 5.24667,-1.710667 7.50667,-1.985334"
     inkscape:connector-curvature="0" /><path
     id="path90"
     style="fill:#cccccc;fill-opacity:1;fill-rule:nonzero;stroke:none;stroke-width:1.33333325"
     d="m 309.49213,127.4024 0.11067,0.02 c 0,0 0.13866,-0.44267 0.296,-1.13467 0.0653,-0.27733 0.12133,-0.544 0.15866,-0.832 0.54667,-3.01466 1,-9.244 -2.43733,-16.636 -3.57333,-7.68 -8.04667,-9.942663 -10.144,-10.605329 -0.12267,-0.04133 -0.24,-0.072 -0.36533,-0.104 -0.496,-0.130667 -0.832,-0.176 -0.832,-0.176 l -0.0627,0.128 c -0.492,-0.044 -0.97467,-0.168 -1.48,-0.07733 -3.492,0.634667 -5.75067,4.462659 -5.04267,8.549329 0.18,1.03333 0.53467,1.98 1.01734,2.81333 l -0.003,0.005 c 6.24133,7.88266 6.69867,15.82533 6.69867,15.82533 0.708,4.08667 4.11333,6.88533 7.60666,6.25067 2.09867,-0.38134 3.64667,-1.97734 4.47867,-4.02667"
     inkscape:connector-curvature="0" /><path
     id="path94"
     style="fill:#e77f22;fill-opacity:1;fill-rule:nonzero;stroke:none;stroke-width:1.33333325"
     d="m 311.55946,116.14347 c -0.476,-2.75067 -1.34133,-5.48533 -2.57067,-8.128 -3.80533,-8.18 -8.62933,-10.748 -11.16666,-11.552 l -0.444,-0.125333 c -0.584,-0.153333 -0.98667,-0.206666 -0.98667,-0.206666 l -0.996,-0.132 -0.072,0.146666 c -0.276,-0.01733 -0.57733,-0.01333 -0.89733,0.04533 -4.33334,0.786667 -7.144,5.552003 -6.26534,10.621333 0.216,1.244 0.64,2.42134 1.26267,3.49867 4.36533,5.55333 5.77333,10.84267 6.23733,13.52133 0.144,0.83067 0.18134,1.332 0.18534,1.38934 10e-4,0.009 0.003,0.02 0.004,0.0293 0.91733,5.288 5.14933,8.75733 9.47466,7.97067 2.08267,-0.37867 3.86934,-1.752 5.03734,-3.83467 l 0.18533,0.0347 0.53067,-1.31334 c 0,0 0.15733,-0.5 0.33466,-1.28266 0.0773,-0.32934 0.14534,-0.66 0.192,-1.02 0.372,-2.03867 0.68134,-5.46934 -0.0453,-9.66267 m -1.53333,0.27867 c 0.684,3.94666 0.376,7.13066 0.032,9.03333 -0.0373,0.28933 -0.0933,0.55467 -0.16,0.83333 -0.15734,0.69067 -0.29467,1.13467 -0.29467,1.13467 l -0.112,-0.0213 c -0.83067,2.05066 -2.38,3.64533 -4.47867,4.02666 -3.49333,0.63467 -6.89866,-2.164 -7.60666,-6.25066 0,0 -0.0347,-0.596 -0.212,-1.624 -0.472,-2.72267 -1.95467,-8.47734 -6.48534,-14.20134 l 10e-4,-0.004 c -0.48134,-0.83466 -0.83734,-1.78133 -1.016,-2.81466 -0.708,-4.08667 1.54933,-7.914673 5.04266,-8.548006 0.504,-0.092 0.98667,0.032 1.48,0.07733 l 0.0627,-0.129333 c 0,0 0.336,0.04667 0.83067,0.176 0.12533,0.032 0.24266,0.064 0.36533,0.104 2.09733,0.664 6.572,2.926659 10.144,10.605329 1.268,2.728 2.00667,5.29467 2.40667,7.60267"
     inkscape:connector-curvature="0" /><path
     id="path98"
     style="fill:#eac500;fill-opacity:1;fill-rule:nonzero;stroke:none;stroke-width:1.33333325"
     d="m 247.99999,191.99733 c 0,13.25333 -10.74133,24.004 -24.00133,24.00267 -13.25467,-0.001 -23.996,-10.748 -23.99867,-24.00667 0.003,-13.244 10.74533,-23.98933 23.996,-23.99333 13.26267,0.004 24.00533,10.74933 24.004,23.99733"
     inkscape:connector-curvature="0" /><path
     id="path102"
     style="fill:#ffff00;fill-opacity:1;fill-rule:nonzero;stroke:none;stroke-width:1.33333325"
     d="m 237.33333,191.99907 c 0.005,7.36267 -5.97333,13.33733 -13.33467,13.33467 -7.364,0.003 -13.33066,-5.97334 -13.332,-13.33334 0,-7.364 5.968,-13.332 13.33467,-13.33333 7.36,0.001 13.33733,5.972 13.332,13.332"
     inkscape:connector-curvature="0" /><path
     id="path106"
     style="fill:#e77f22;fill-opacity:1;fill-rule:nonzero;stroke:none;stroke-width:1.33333325"
     d="m 112,125.3316 c -0.001,19.14533 -15.522666,34.668 -34.667999,34.668 -19.144,0.001 -34.666666,-15.52 -34.665333,-34.66533 0,-19.14667 15.521333,-34.668002 34.666666,-34.668002 C 96.474667,90.667601 111.99867,106.18893 112,125.3316"
     inkscape:connector-curvature="0" /><path
     id="path110"
     style="fill:#c66a16;fill-opacity:1;fill-rule:nonzero;stroke:none;stroke-width:1.33333325"
     d="m 78.307465,101.33334 -17.170666,6.912 -7.804,16.27733 6.244,17.896 16.778666,6.91467 17.952,-6.1 7.025335,-16.27333 -6.632002,-18.308 z"
     inkscape:connector-curvature="0" /><path
     id="path114"
     style="fill:#e77f22;fill-opacity:1;fill-rule:nonzero;stroke:none;stroke-width:1.33333325"
     d="m 170.66666,121.33334 c -5.14667,0 -9.33333,4.18667 -9.33333,9.33333 0,5.14667 4.18666,9.33334 9.33333,9.33334 5.14667,0 9.33333,-4.18667 9.33333,-9.33334 0,-5.14666 -4.18666,-9.33333 -9.33333,-9.33333"
     inkscape:connector-curvature="0" /><path
     id="path118"
     style="fill:#cccccc;fill-opacity:1;fill-rule:nonzero;stroke:none;stroke-width:1.33333325"
     d="m 178.66666,130.66667 c 0,4.41867 -3.58133,8 -8,8 -4.41867,0 -8,-3.58133 -8,-8 0,-4.41867 3.58133,-8 8,-8 4.41867,0 8,3.58133 8,8"
     inkscape:connector-curvature="0" /><path
     id="path122"
     style="fill:#e77f22;fill-opacity:1;fill-rule:nonzero;stroke:none;stroke-width:1.33333325"
     d="M 128,168 H 117.33333 C 114.392,168 112,170.392 112,173.33333 v 8 h -8 c -2.94133,0 -5.333333,2.392 -5.333333,5.33334 v 10.66666 c 0,2.94134 2.392003,5.33334 5.333333,5.33334 h 8 v 8 C 112,213.608 114.392,216 117.33333,216 H 128 c 2.94133,0 5.33333,-2.392 5.33333,-5.33333 v -8 h 8 c 2.94134,0 5.33334,-2.392 5.33334,-5.33334 v -10.66666 c 0,-2.94134 -2.392,-5.33334 -5.33334,-5.33334 h -8 v -8 C 133.33333,170.392 130.94133,168 128,168"
     inkscape:connector-curvature="0" /><path
     id="path126"
     style="fill:#cccccc;fill-opacity:1;fill-rule:nonzero;stroke:none;stroke-width:1.33333325"
     d="m 141.33333,184 h -10.66667 v -10.66667 c 0,-1.47333 -1.19333,-2.66666 -2.66666,-2.66666 h -10.66667 c -1.47333,0 -2.66667,1.19333 -2.66667,2.66666 V 184 H 104 c -1.47334,0 -2.66667,1.19333 -2.66667,2.66667 v 10.66666 c 0,1.47334 1.19333,2.66667 2.66667,2.66667 h 10.66666 v 10.66667 c 0,1.47333 1.19334,2.66666 2.66667,2.66666 H 128 c 1.47333,0 2.66666,-1.19333 2.66666,-2.66666 V 200 h 10.66667 C 142.80666,200 144,198.80667 144,197.33333 V 186.66667 C 144,185.19333 142.80666,184 141.33333,184"
     inkscape:connector-curvature="0" /><path
     id="path130"
     style="fill:#bfbfbf;fill-opacity:1;fill-rule:nonzero;stroke:none;stroke-width:1.33333325"
     d="m 128,192 c 0,2.94533 -2.388,5.33333 -5.33333,5.33333 -2.94534,0 -5.33334,-2.388 -5.33334,-5.33333 0,-2.94533 2.388,-5.33333 5.33334,-5.33333 2.94533,0 5.33333,2.388 5.33333,5.33333"
     inkscape:connector-curvature="0" /><path
     id="path134"
     style="fill:#bfbfbf;fill-opacity:1;fill-rule:nonzero;stroke:none;stroke-width:1.33333325"
     d="m 104.28573,191.5632 6.85733,-3.49467 c 0.38134,-0.19466 0.85734,0.048 0.85734,0.43734 v 6.98933 c 0,0.388 -0.476,0.63067 -0.85734,0.436 l -6.85733,-3.49467 c -0.38133,-0.19333 -0.38133,-0.67866 0,-0.87333"
     inkscape:connector-curvature="0" /><path
     id="path138"
     style="fill:#bfbfbf;fill-opacity:1;fill-rule:nonzero;stroke:none;stroke-width:1.33333325"
     d="m 141.0476,192.4368 -6.85733,3.49467 c -0.38134,0.19466 -0.85734,-0.048 -0.85734,-0.43734 v -6.98933 c 0,-0.388 0.476,-0.63067 0.85734,-0.436 l 6.85733,3.49467 c 0.38133,0.19333 0.38133,0.67866 0,0.87333"
     inkscape:connector-curvature="0" /><path
     id="path142"
     style="fill:#bfbfbf;fill-opacity:1;fill-rule:nonzero;stroke:none;stroke-width:1.33333325"
     d="m 123.10346,173.61907 3.49467,6.85733 c 0.19466,0.38134 -0.048,0.85734 -0.43734,0.85734 h -6.98933 c -0.388,0 -0.63067,-0.476 -0.436,-0.85734 l 3.49467,-6.85733 c 0.19333,-0.38133 0.67866,-0.38133 0.87333,0"
     inkscape:connector-curvature="0" /><path
     id="path146"
     style="fill:#bfbfbf;fill-opacity:1;fill-rule:nonzero;stroke:none;stroke-width:1.33333325"
     d="m 122.22986,210.38093 -3.49467,-6.85733 c -0.19466,-0.38134 0.048,-0.85734 0.43734,-0.85734 h 6.98933 c 0.388,0 0.63067,0.476 0.436,0.85734 l -3.49467,6.85733 c -0.19333,0.38133 -0.67866,0.38133 -0.87333,0"
     inkscape:connector-curvature="0" /><path
     id="path150"
     style="fill:#e6e6e6;fill-opacity:1;fill-rule:nonzero;stroke:none;stroke-width:1.33333325"
     d="m 132.3952,83.890403 v 2.285333 h 3.95333 c 0.54267,0 0.792,-0.110666 0.792,-0.650666 v -0.984 c 0,-0.54 -0.24933,-0.650667 -0.792,-0.650667 z m -1.728,-1.412 h 6.47333 c 1.156,0 1.69867,0.444 1.69867,1.586667 v 1.92 c 0,1.142666 -0.54267,1.586666 -1.69867,1.586666 h -0.996 l 3.48534,3.094667 h -2.51867 l -3.04667,-3.094667 h -1.66933 v 3.094667 h -1.728 z"
     inkscape:connector-curvature="0" /><path
     id="path154"
     style="fill:#e6e6e6;fill-opacity:1;fill-rule:nonzero;stroke:none;stroke-width:1.33333325"
     d="m 156.80666,86.175736 v -2.285333 h 3.95467 c 0.54133,0 0.79066,0.110666 0.79066,0.650666 v 0.984 c 0,0.54 -0.24933,0.650667 -0.79066,0.650667 z m 3.74933,1.396 h 0.996 c 1.156,0 1.69867,-0.444 1.69867,-1.586667 v -1.92 c 0,-1.142666 -0.54267,-1.586666 -1.69867,-1.586666 h -21.65333 v 8.188 h 7.80533 v -1.538667 h -6.048 v -2.032 h 3.48534 v -1.396 h -3.48534 v -1.825333 h 5.07067 l 3.472,0.06267 v 6.729334 h 1.756 v -6.729334 h 3.124 v 6.729334 h 1.728 V 87.57174 h 1.66933 l 3.04667,3.094667 h 2.51867 z"
     inkscape:connector-curvature="0" /><path
     inkscape:connector-curvature="0"
     d="m 171.70533,83.937336 h -5.79867 v 5.189334 h 5.79867 z m -5.68267,-1.458666 h 5.56534 c 1.42133,0 1.87466,0.396 1.87466,1.934666 v 4.317334 c 0,1.538666 -0.45333,1.936 -1.87466,1.936 h -5.56534 c -1.42,0 -1.87466,-0.397334 -1.87466,-1.936 v -4.317334 c 0,-1.538666 0.45466,-1.934666 1.87466,-1.934666"
     style="fill:#e6e6e6;fill-opacity:1;fill-rule:nonzero;stroke:none;stroke-width:1.33333325"
     id="path156" /><path
     id="path160"
     style="fill:#e6e6e6;fill-opacity:1;fill-rule:nonzero;stroke:none;stroke-width:1.33333325"
     d="m 176.25093,83.937603 v 5.189333 h 4.74533 v -1.365333 l 1.756,0.0013 v 0.968 c 0,1.538667 -0.45333,1.936 -1.87333,1.936 h -4.51067 c -1.42133,0 -1.87466,-0.397333 -1.87466,-1.936 V 84.41357 c 0,-1.538667 0.45333,-1.936 1.87466,-1.936 h 4.51067 c 1.42,0 1.87333,0.397333 1.87333,1.936 v 0.778667 l -1.756,-0.0013 v -1.253333 z"
     inkscape:connector-curvature="0" /><path
     id="path164"
     style="fill:#e6e6e6;fill-opacity:1;fill-rule:nonzero;stroke:none;stroke-width:1.33333325"
     d="m 185.62853,89.12707 h 5.008 v -6.649333 h 1.75867 v 6.252 c 0,1.54 -0.45467,1.937333 -1.87467,1.937333 h -4.77467 c -1.42133,0 -1.87466,-0.397333 -1.87466,-1.937333 v -6.252 h 1.75733 z"
     inkscape:connector-curvature="0" /><path
     id="path168"
     style="fill:#e6e6e6;fill-opacity:1;fill-rule:nonzero;stroke:none;stroke-width:1.33333325"
     d="m 195.47533,87.11187 v 2.078667 h 4.012 c 0.60133,0 0.84933,-0.126667 0.84933,-0.729334 v -0.618666 c 0,-0.604 -0.248,-0.730667 -0.84933,-0.730667 z m 0,-3.301333 v 1.952 h 4.012 c 0.54267,0 0.80667,-0.110667 0.80667,-0.586667 v -0.777333 c 0,-0.476 -0.264,-0.588 -0.80667,-0.588 z m -1.728,-1.332 h 6.47333 c 1.156,0 1.69867,0.444 1.69867,1.586666 v 0.998667 c 0,0.794667 -0.46933,1.270667 -1.304,1.381333 0.87867,0.126667 1.36133,0.698667 1.36133,1.570667 v 1.048 c 0,1.094667 -0.74533,1.602667 -2.22533,1.602667 h -6.004 z"
     inkscape:connector-curvature="0" /><path
     id="path172"
     style="fill:#e6e6e6;fill-opacity:1;fill-rule:nonzero;stroke:none;stroke-width:1.33333325"
     d="m 202.86079,82.478136 h 7.732 v 1.396 h -5.97467 v 1.825333 h 3.48534 v 1.396 h -3.48534 v 2.032 h 6.048 v 1.538667 h -7.80533 z"
     inkscape:connector-curvature="0" /><path
     id="path176"
     style="fill:#e6e6e6;fill-opacity:1;fill-rule:nonzero;stroke:none;stroke-width:1.33333325"
     d="M 134.80293,81.010137 H 130.6736 V 74.67547 h 1.04533 v 5.202667 h 3.084 z"
     inkscape:connector-curvature="0" /><path
     inkscape:connector-curvature="0"
     d="m 141.64266,74.67467 h 1.04534 v 6.334667 h -1.04534 z"
     style="fill:#e6e6e6;fill-opacity:1;fill-rule:nonzero;stroke:none;stroke-width:1.33333325"
     id="path178" /><path
     id="path182"
     style="fill:#e6e6e6;fill-opacity:1;fill-rule:nonzero;stroke:none;stroke-width:1.33333325"
     d="m 151.07053,78.23827 v 1.877333 h 1.00133 c 0.30534,0 0.52534,-0.076 0.66,-0.226666 0.13467,-0.149334 0.20134,-0.398667 0.20134,-0.748 0,-0.601334 -0.27467,-0.902667 -0.824,-0.902667 z m 0,-2.692 v 1.718667 h 1.13733 c 0.21067,0 0.37067,-0.07733 0.48134,-0.230667 0.10933,-0.154667 0.164,-0.348 0.164,-0.581333 0,-0.297334 -0.0653,-0.522667 -0.19734,-0.676 -0.132,-0.153334 -0.304,-0.230667 -0.51466,-0.230667 z m 1.264,5.464 h -2.324 v -6.344 h 2.332 c 0.43333,0 0.78133,0.104 1.044,0.309333 0.33733,0.26 0.50533,0.704 0.50533,1.332 0,0.422667 -0.0587,0.737334 -0.176,0.944 -0.12666,0.237334 -0.35066,0.390667 -0.672,0.46 0.18934,0.032 0.34134,0.092 0.45334,0.182667 0.0827,0.06933 0.172,0.185333 0.26933,0.348 0.152,0.254667 0.22667,0.616 0.22667,1.086667 0,0.692 -0.236,1.173333 -0.708,1.444 -0.28267,0.157333 -0.6,0.237333 -0.95067,0.237333"
     inkscape:connector-curvature="0" /><path
     id="path186"
     style="fill:#e6e6e6;fill-opacity:1;fill-rule:nonzero;stroke:none;stroke-width:1.33333325"
     d="m 162.31733,75.64107 v 1.805333 h 1.09867 c 0.18933,0 0.34266,-0.09333 0.45866,-0.278666 0.10667,-0.164 0.16,-0.354667 0.16,-0.572 0,-0.636 -0.228,-0.954667 -0.684,-0.954667 z m 1.94,5.369333 -1.028,-2.589333 h -0.912 v 2.589333 h -1.06 v -6.344 h 2.2 c 1.03333,0 1.54933,0.629334 1.54933,1.888 0,0.490667 -0.0933,0.890667 -0.27733,1.196 -0.12267,0.201334 -0.296,0.365334 -0.51867,0.492 l 1.088,2.768 z"
     inkscape:connector-curvature="0" /><path
     id="path190"
     style="fill:#e6e6e6;fill-opacity:1;fill-rule:nonzero;stroke:none;stroke-width:1.33333325"
     d="m 173.43986,78.26987 v 0.46 c 0,0.38 0.0667,0.684 0.20133,0.913333 0.13334,0.230667 0.308,0.345334 0.52267,0.345334 h 2.52133 v 1.021333 h -2.90933 c -0.35067,0 -0.65067,-0.188 -0.89867,-0.566667 -0.248,-0.377333 -0.37333,-0.833333 -0.37333,-1.368 V 76.52987 c 0,-0.528 0.124,-0.970667 0.36933,-1.328 0.24667,-0.356 0.54667,-0.534667 0.90267,-0.534667 h 2.90933 l -0.008,1.053334 h -2.47066 c -0.224,0 -0.404,0.09733 -0.54,0.294666 -0.15067,0.217334 -0.22667,0.512 -0.22667,0.882667 v 0.437333 h 3.24533 v 0.934667 z"
     inkscape:connector-curvature="0" /><path
     id="path194"
     style="fill:#e6e6e6;fill-opacity:1;fill-rule:nonzero;stroke:none;stroke-width:1.33333325"
     d="m 186.3752,81.010137 h -1.04533 V 75.79947 h -1.62267 v -1.133333 h 4.364 v 1.133333 h -1.696 z"
     inkscape:connector-curvature="0" /><path
     id="path198"
     style="fill:#e6e6e6;fill-opacity:1;fill-rule:nonzero;stroke:none;stroke-width:1.33333325"
     d="m 196.17506,75.64107 v 1.805333 h 1.09867 c 0.18933,0 0.34266,-0.09333 0.45866,-0.278666 0.10667,-0.164 0.16,-0.354667 0.16,-0.572 0,-0.636 -0.228,-0.954667 -0.684,-0.954667 z m 1.94,5.369333 -1.028,-2.589333 h -0.912 v 2.589333 h -1.06 v -6.344 h 2.2 c 1.03333,0 1.54933,0.629334 1.54933,1.888 0,0.490667 -0.0933,0.890667 -0.27733,1.196 -0.12267,0.201334 -0.296,0.365334 -0.51867,0.492 l 1.088,2.768 z"
     inkscape:connector-curvature="0" /><path
     id="path202"
     style="fill:#e6e6e6;fill-opacity:1;fill-rule:nonzero;stroke:none;stroke-width:1.33333325"
     d="m 209.65093,76.97387 c 0,-0.381333 -0.0733,-0.685333 -0.22,-0.912 -0.14533,-0.228 -0.328,-0.341333 -0.54667,-0.341333 h -0.812 c -0.21866,0 -0.40266,0.113333 -0.552,0.341333 -0.148,0.226667 -0.22266,0.530667 -0.22266,0.912 v 1.745333 c 0,0.381334 0.0667,0.688 0.20133,0.92 0.13333,0.233334 0.308,0.349334 0.52267,0.349334 h 0.81866 c 0.21867,0 0.408,-0.117334 0.56934,-0.353334 0.16133,-0.234666 0.24133,-0.54 0.24133,-0.916 z m 0.94267,2.093333 c 0,0.534667 -0.12534,0.992 -0.376,1.372 -0.252,0.381334 -0.552,0.570667 -0.90267,0.570667 h -1.67333 c -0.356,0 -0.65867,-0.189333 -0.90667,-0.570667 -0.248,-0.38 -0.37333,-0.837333 -0.37333,-1.372 V 76.60987 c 0,-0.54 0.12533,-0.998667 0.37333,-1.376 0.248,-0.377333 0.55067,-0.566667 0.90667,-0.566667 h 1.67333 c 0.35067,0 0.65067,0.189334 0.90267,0.566667 0.25066,0.377333 0.376,0.836 0.376,1.376 z"
     inkscape:connector-curvature="0" /><path
     id="path206"
     style="fill:#cccccc;fill-opacity:1;fill-rule:nonzero;stroke:none;stroke-width:1.33333325"
     d="m 98.666664,125.33427 c 0,11.78133 -9.552,21.332 -21.333333,21.332 -11.78,0.001 -21.333333,-9.552 -21.333333,-21.33333 0,-11.78 9.552,-21.33334 21.333333,-21.33334 11.782667,0.001 21.334666,9.55334 21.333333,21.33467"
     inkscape:connector-curvature="0" /><path
     id="path210"
     style="fill:#bfbfbf;fill-opacity:1;fill-rule:nonzero;stroke:none;stroke-width:1.33333325"
     d="m 73.333465,125.3328 c 0.0013,-2.20533 1.796,-4 3.998667,-4 2.208,0 4.001333,1.79467 4.001333,4 0.0013,2.20533 -1.794667,4 -4,4 -2.204,0.001 -4,-1.796 -4,-4 m -1.333333,0 c 0,2.94133 2.393333,5.33333 5.332,5.33333 2.943999,0 5.335999,-2.392 5.334666,-5.33333 0.0013,-2.94133 -2.392,-5.33333 -5.333333,-5.33333 -2.94,-0.001 -5.332,2.39066 -5.333333,5.33333"
     inkscape:connector-curvature="0" /><path
     id="path214"
     style="fill:#bfbfbf;fill-opacity:1;fill-rule:nonzero;stroke:none;stroke-width:1.33333325"
     d="m 68.001732,125.33307 c 0,-5.14667 4.185333,-9.33333 9.330666,-9.33333 5.149334,10e-4 9.337334,4.188 9.336,9.33333 0,5.14933 -4.188,9.33467 -9.334666,9.33333 -5.145333,-0.001 -9.333333,-4.18533 -9.332,-9.33333 m -1.334667,-0.001 c 0,5.88133 4.785334,10.668 10.665333,10.668 5.884,0.001 10.668,-4.78267 10.668,-10.66534 0,-5.87866 -4.784,-10.66666 -10.669333,-10.668 -5.878666,0.001 -10.664,4.788 -10.664,10.66534"
     inkscape:connector-curvature="0" /><path
     id="path218"
     style="fill:#bfbfbf;fill-opacity:1;fill-rule:nonzero;stroke:none;stroke-width:1.33333325"
     d="m 62.665732,125.33427 c -0.0013,-8.08933 6.577333,-14.66667 14.666666,-14.66667 8.086667,-0.003 14.668,6.57734 14.666667,14.66534 0.0013,8.088 -6.58,14.66666 -14.668,14.668 -8.086666,0 -14.666666,-6.58 -14.665333,-14.66667 m -1.332,-0.003 c 0,8.824 7.177333,16.00134 15.997333,16.00134 8.822666,0.001 16.002666,-7.176 16.002666,-16 0.0013,-8.82267 -7.178666,-15.99734 -16.002666,-16 -8.82,0 -15.997333,7.17733 -15.997333,15.99866"
     inkscape:connector-curvature="0" /><path
     id="path222"
     style="fill:#999999;fill-opacity:1;fill-rule:nonzero;stroke:none;stroke-width:1.33333325"
     d="m 77.333331,105.33334 c -11.028,0 -20,8.972 -20,20 0,11.028 8.972,20 20,20 11.028,0 20,-8.972 20,-20 0,-11.028 -8.972,-20 -20,-20 m 0,1.69067 c 10.112,0 18.309333,8.19733 18.309333,18.30933 0,10.112 -8.197333,18.30933 -18.309333,18.30933 -10.112,0 -18.309333,-8.19733 -18.309333,-18.30933 0,-10.112 8.197333,-18.30933 18.309333,-18.30933"
     inkscape:connector-curvature="0" /><path
     style="fill:none;fill-opacity:1;fill-rule:nonzero;stroke:#1a1a1a;stroke-width:1.99999994;stroke-miterlimit:4;stroke-dasharray:none"
     d="M 126.36328 40.003906 C 119.717 39.947925 95.325334 40.433844 70.789062 49.390625 C 60.349086 47.450773 54.475956 49.890858 51.322266 52.462891 C 31.510939 55.417392 16.219225 72.319177 16.001953 92.902344 C 15.97147 95.786802 16.24331 98.604565 16.779297 101.32812 C 15.985723 106.98024 6.1381807 179.20565 17.160156 209.33398 C 18.589157 213.24198 21.248922 216.6648 24.919922 218.5918 C 29.662922 221.0808 36.6355 221.4386 43.4375 209.68359 C 45.287499 206.4866 46.342609 202.89057 46.849609 199.22656 C 48.720609 185.69457 54.168047 149.23343 58.873047 146.64844 C 58.873047 146.64844 59.338852 145.99129 60.199219 144.9082 C 62.03312 147.50628 63.804235 150.60409 65.384766 154.33594 C 65.461766 154.51594 65.539281 154.69104 65.613281 154.87305 C 65.669284 155.00604 65.72911 155.13825 65.787109 155.28125 L 65.794922 155.27344 C 70.166922 165.02844 79.940047 171.88004 91.373047 171.99805 C 107.02004 172.16104 119.83404 159.66684 119.99805 144.08984 C 120.08205 136.05984 116.78188 128.78003 111.42188 123.58203 L 111.43164 123.58008 C 111.43164 123.58008 111.41734 123.57345 111.40234 123.56445 C 110.43034 122.62345 109.39107 121.75108 108.28906 120.95508 C 107.03877 119.64357 105.56652 117.76501 104.16211 115.19336 C 111.32932 113.10494 119.28014 111.86615 128 112.05078 C 138.12173 111.83647 147.21136 113.53401 155.23242 116.26367 C 154.01776 118.29653 152.78186 119.83173 151.71094 120.95508 C 150.60893 121.75108 149.56966 122.62345 148.59766 123.56445 C 148.58266 123.57345 148.56836 123.58008 148.56836 123.58008 L 148.57617 123.58203 C 143.21617 128.78003 139.91795 136.05984 140.00195 144.08984 C 140.16596 159.66684 152.97996 172.16104 168.62695 171.99805 C 180.05995 171.88004 189.83113 165.02844 194.20312 155.27344 L 194.21289 155.2793 C 194.27089 155.13629 194.33069 155.00604 194.38672 154.87305 C 194.46071 154.69104 194.53628 154.51594 194.61328 154.33594 C 195.68483 151.80586 196.84617 149.56443 198.05273 147.57031 C 202.52543 153.87704 207.40189 186.5732 209.15234 199.22656 C 209.65835 202.89057 210.71345 206.4866 212.56445 209.68359 C 219.36545 221.4386 226.33708 221.0808 231.08008 218.5918 C 234.75107 216.6648 237.41085 213.24198 238.83984 209.33398 C 247.84348 184.72488 242.90285 132.05568 240.3418 110.32031 C 242.74838 105.01146 244.06366 99.110552 243.99805 92.902344 C 243.79754 73.907272 230.75658 58.053466 213.17578 53.396484 C 199.05487 46.906576 184 48.927734 184 48.927734 L 184.09375 48.994141 C 156.82674 39.32181 130.06853 39.96584 128 40.033203 C 127.76394 40.025516 127.20646 40.011008 126.36328 40.003906 z "
     transform="scale(1.3333334)"
     id="path864" /></svg>