<?xml version="1.0" encoding="UTF-8" standalone="no"?>
<svg
   xmlns:dc="http://purl.org/dc/elements/1.1/"
   xmlns:cc="http://creativecommons.org/ns#"
   xmlns:rdf="http://www.w3.org/1999/02/22-rdf-syntax-ns#"
   xmlns:svg="http://www.w3.org/2000/svg"
   xmlns="http://www.w3.org/2000/svg"
   xmlns:sodipodi="http://sodipodi.sourceforge.net/DTD/sodipodi-0.dtd"
   xmlns:inkscape="http://www.inkscape.org/namespaces/inkscape"
   version="1.1"
   id="svg2"
   xml:space="preserve"
   width="330.66666"
   height="234.66666"
   viewBox="0 0 330.66665 234.66665"
   sodipodi:docname="Thomson - TO8-content.svg"
   inkscape:version="0.92.3 (2405546, 2018-03-11)"><sodipodi:namedview
     pagecolor="#ffffff"
     bordercolor="#666666"
     borderopacity="1"
     objecttolerance="10"
     gridtolerance="10"
     guidetolerance="10"
     inkscape:pageopacity="0"
     inkscape:pageshadow="2"
     inkscape:window-width="1024"
     inkscape:window-height="705"
     id="namedview25"
     showgrid="false"
     inkscape:pagecheckerboard="true"
     inkscape:zoom="1.4222489"
     inkscape:cx="185.74281"
     inkscape:cy="65.010119"
     inkscape:window-x="-8"
     inkscape:window-y="-8"
     inkscape:window-maximized="1"
     inkscape:current-layer="svg2" /><metadata
     id="metadata8"><rdf:RDF><cc:Work
         rdf:about=""><dc:format>image/svg+xml</dc:format><dc:type
           rdf:resource="http://purl.org/dc/dcmitype/StillImage" /><dc:title /></cc:Work></rdf:RDF></metadata><defs
     id="defs6"><clipPath
       clipPathUnits="userSpaceOnUse"
       id="clipPath18"><path
         d="M 0,256 H 256 V 0 H 0 Z"
         id="path16" /></clipPath><clipPath
       clipPathUnits="userSpaceOnUse"
       id="clipPath26"><path
         d="M 4,216 H 252 V 40 H 4 Z"
         id="path24" /></clipPath></defs><path
     d="M 271.99999,10.666664 V 47.999996 H 58.666662 V 10.666664 H 10.666663 V 223.99999 h 37.333333 58.666664 v -5.33333 h 5.33333 v 5.33333 h 10.66667 v -5.33333 h 5.33333 v 5.33333 h 10.66667 v -5.33333 h 5.33333 v 5.33333 h 10.66667 v -5.33333 h 5.33333 v 5.33333 h 10.66667 v -5.33333 h 5.33333 v 5.33333 h 10.66667 v -5.33333 h 5.33333 v 5.33333 h 10.66667 v -5.33333 h 5.33333 v 5.33333 h 10.66667 v -5.33333 h 5.33333 v 5.33333 h 96 V 10.666664 Z"
     style="fill:#4c4c4c;fill-opacity:1;fill-rule:nonzero;stroke:none;stroke-width:1.33333325"
     id="path38"
     inkscape:connector-curvature="0" /><path
     inkscape:connector-curvature="0"
     id="path40"
     style="fill:#333333;fill-opacity:1;fill-rule:nonzero;stroke:none;stroke-width:1.33333325"
     d="M 271.99999,47.999996 H 58.666665 V 15.999997 H 271.99999 Z" /><path
     inkscape:connector-curvature="0"
     id="path42"
     style="fill:#333333;fill-opacity:1;fill-rule:nonzero;stroke:none;stroke-width:1.33333325"
     d="M 293.33333,186.66666 H 42.666666 V 74.666662 H 293.33333 Z" /><path
     inkscape:connector-curvature="0"
     id="path44"
     style="fill:#d9d9d9;fill-opacity:1;fill-rule:nonzero;stroke:none;stroke-width:1.33333325"
     d="M 287.99999,106.66666 H 47.999999 V 79.666663 H 287.99999 Z" /><path
     inkscape:connector-curvature="0"
     id="path46"
     style="fill:#d9d9d9;fill-opacity:1;fill-rule:nonzero;stroke:none;stroke-width:1.33333325"
     d="M 288,181.33333 H 48.000001 v -22 H 288 Z" /><path
     inkscape:connector-curvature="0"
     id="path48"
     style="fill:#1a1a1a;fill-opacity:1;fill-rule:nonzero;stroke:none;stroke-width:1.33333325"
     d="M 287.99999,160.66666 H 47.999999 V 106.66665 H 287.99999 Z" /><path
     style="fill:none;fill-opacity:1;fill-rule:nonzero;stroke:#1a1a1a;stroke-width:2;stroke-miterlimit:4;stroke-dasharray:none"
     d="M 10.666016 10.666016 L 10.666016 224 L 48 224 L 106.66602 224 L 106.66602 218.66602 L 112 218.66602 L 112 224 L 122.66602 224 L 122.66602 218.66602 L 128 218.66602 L 128 224 L 138.66602 224 L 138.66602 218.66602 L 144 218.66602 L 144 224 L 154.66602 224 L 154.66602 218.66602 L 160 218.66602 L 160 224 L 170.66602 224 L 170.66602 218.66602 L 176 218.66602 L 176 224 L 186.66602 224 L 186.66602 218.66602 L 192 218.66602 L 192 224 L 202.66602 224 L 202.66602 218.66602 L 208 218.66602 L 208 224 L 218.66602 224 L 218.66602 218.66602 L 224 218.66602 L 224 224 L 320 224 L 320 10.666016 L 272 10.666016 L 272 16 L 58.666016 16 L 58.666016 10.666016 L 10.666016 10.666016 z "
     id="path861" /><g
     aria-label="THEODORE"
     style="font-style:normal;font-variant:normal;font-weight:bold;font-stretch:normal;font-size:40.46017075px;line-height:1.25;font-family:'Franklin Gothic Heavy';-inkscape-font-specification:'Franklin Gothic Heavy, Bold';letter-spacing:0px;word-spacing:0px;fill:#d9d9d9;fill-opacity:1;stroke:none;stroke-width:1.15819192"
     id="text902"
     transform="matrix(0.86341464,0,0,0.86341464,26.112191,-75.855288)"><path
       d="m 76.688413,235.64342 v 20.50667 h -7.84311 v -20.50667 h -7.590931 v -6.4602 h 25.024973 v 6.4602 z"
       style="font-style:normal;font-variant:normal;font-weight:bold;font-stretch:normal;font-family:'Franklin Gothic Heavy';-inkscape-font-specification:'Franklin Gothic Heavy, Bold';fill:#d9d9d9;fill-opacity:1;stroke-width:1.15819192"
       id="path909"
       inkscape:connector-curvature="0"
       sodipodi:nodetypes="ccccccccc" /><path
       d="m 107.52744,229.18322 v 26.96687 H 99.2497 v -10.49041 h -6.321902 v 10.49041 h -8.27774 v -26.96687 h 8.27774 v 9.91749 H 99.2497 v -9.91749 z"
       style="font-style:normal;font-variant:normal;font-weight:bold;font-stretch:normal;font-family:'Franklin Gothic Heavy';-inkscape-font-specification:'Franklin Gothic Heavy, Bold';fill:#d9d9d9;fill-opacity:1;stroke-width:1.15819192"
       id="path911"
       inkscape:connector-curvature="0" /><path
       d="m 132.51871,249.70965 v 6.44044 h -20.28936 v -26.96687 h 20.28936 v 6.22313 h -12.16967 v 3.91167 h 9.83846 v 5.98605 h -9.83846 v 4.40558 z"
       style="font-style:normal;font-variant:normal;font-weight:bold;font-stretch:normal;font-family:'Franklin Gothic Heavy';-inkscape-font-specification:'Franklin Gothic Heavy, Bold';fill:#d9d9d9;fill-opacity:1;stroke-width:1.15819192"
       id="path913"
       inkscape:connector-curvature="0" /><path
       d="m 147.43445,256.56496 q -5.68972,0 -9.2853,-3.77338 -3.57582,-3.77339 -3.57582,-10.09529 0,-6.04532 3.41778,-9.97675 3.43753,-3.95119 9.52236,-3.95119 5.63044,0 9.16676,3.71412 3.55607,3.71411 3.55607,9.91748 0,6.42068 -3.57583,10.29285 -3.57582,3.87216 -9.22602,3.87216 z m -0.0395,-6.12434 q 2.09413,0 3.00291,-1.81755 0.92853,-1.8373 0.92853,-6.69726 0,-7.03312 -3.77339,-7.03312 -4.06972,0 -4.06972,8.02091 0,7.52702 3.91167,7.52702 z"
       style="font-style:normal;font-variant:normal;font-weight:bold;font-stretch:normal;font-family:'Franklin Gothic Heavy';-inkscape-font-specification:'Franklin Gothic Heavy, Bold';fill:#d9d9d9;fill-opacity:1;stroke-width:1.15819192"
       id="path915"
       inkscape:connector-curvature="0" /><path
       d="m 163.75285,256.15009 v -26.96687 h 10.43114 q 6.79604,0 10.17431,4.03022 3.37827,4.03021 3.37827,9.3248 0,6.04532 -3.6351,9.83846 -3.61534,3.77339 -9.40383,3.77339 z m 8.27774,-6.20337 h 2.1534 q 2.05462,0 3.45729,-1.99535 1.42243,-1.99535 1.42243,-5.43289 0,-2.94363 -1.26438,-5.07727 -1.24463,-2.13364 -3.61534,-2.13364 h -2.1534 z"
       style="font-style:normal;font-variant:normal;font-weight:bold;font-stretch:normal;font-family:'Franklin Gothic Heavy';-inkscape-font-specification:'Franklin Gothic Heavy, Bold';fill:#d9d9d9;fill-opacity:1;stroke-width:1.15819192"
       id="path917"
       inkscape:connector-curvature="0" /><path
       d="m 202.90913,256.56496 q -5.68971,0 -9.28529,-3.77338 -3.57583,-3.77339 -3.57583,-10.09529 0,-6.04532 3.41778,-9.97675 3.43754,-3.95119 9.52237,-3.95119 5.63044,0 9.16675,3.71412 3.55607,3.71411 3.55607,9.91748 0,6.42068 -3.57582,10.29285 -3.57583,3.87216 -9.22603,3.87216 z m -0.0395,-6.12434 q 2.09413,0 3.0029,-1.81755 0.92853,-1.8373 0.92853,-6.69726 0,-7.03312 -3.77338,-7.03312 -4.06973,0 -4.06973,8.02091 0,7.52702 3.91168,7.52702 z"
       style="font-style:normal;font-variant:normal;font-weight:bold;font-stretch:normal;font-family:'Franklin Gothic Heavy';-inkscape-font-specification:'Franklin Gothic Heavy, Bold';fill:#d9d9d9;fill-opacity:1;stroke-width:1.15819192"
       id="path919"
       inkscape:connector-curvature="0" /><path
       d="m 243.23101,256.15009 h -9.18652 l -3.93143,-10.31261 h -2.60778 v 10.31261 h -8.27774 v -26.96687 h 14.08598 q 4.66241,0 7.23068,2.19291 2.58803,2.17316 2.58803,5.74898 0,2.3312 -0.94829,4.12899 -0.94828,1.77804 -3.83265,3.1412 z m -15.72573,-16.08134 h 3.53631 q 1.56072,0 2.509,-0.65195 0.94829,-0.65194 0.94829,-1.91632 0,-2.58803 -3.18071,-2.58803 h -3.81289 z"
       style="font-style:normal;font-variant:normal;font-weight:bold;font-stretch:normal;font-family:'Franklin Gothic Heavy';-inkscape-font-specification:'Franklin Gothic Heavy, Bold';fill:#d9d9d9;fill-opacity:1;stroke-width:1.15819192"
       id="path921"
       inkscape:connector-curvature="0" /><path
       d="m 267.41229,249.70965 v 6.44044 h -20.28935 v -26.96687 h 20.28935 v 6.22313 h -12.16966 v 3.91167 h 9.83846 v 5.98605 h -9.83846 v 4.40558 z"
       style="font-style:normal;font-variant:normal;font-weight:bold;font-stretch:normal;font-family:'Franklin Gothic Heavy';-inkscape-font-specification:'Franklin Gothic Heavy, Bold';fill:#d9d9d9;fill-opacity:1;stroke-width:1.15819192"
       id="path923"
       inkscape:connector-curvature="0" /></g></svg>