<?xml version="1.0" encoding="UTF-8" standalone="no"?>
<!-- Created with Inkscape (http://www.inkscape.org/) -->

<svg
   xmlns:dc="http://purl.org/dc/elements/1.1/"
   xmlns:cc="http://creativecommons.org/ns#"
   xmlns:rdf="http://www.w3.org/1999/02/22-rdf-syntax-ns#"
   xmlns:svg="http://www.w3.org/2000/svg"
   xmlns="http://www.w3.org/2000/svg"
   xmlns:sodipodi="http://sodipodi.sourceforge.net/DTD/sodipodi-0.dtd"
   xmlns:inkscape="http://www.inkscape.org/namespaces/inkscape"
   id="svg3212"
   version="1.1"
   inkscape:version="0.48.5 r10040"
   width="320"
   height="320"
   xml:space="preserve"
   sodipodi:docname="lakka_icon_cb.pdf"><metadata
     id="metadata3218"><rdf:RDF><cc:Work
         rdf:about=""><dc:format>image/svg+xml</dc:format><dc:type
           rdf:resource="http://purl.org/dc/dcmitype/StillImage" /><dc:title></dc:title></cc:Work></rdf:RDF></metadata><defs
     id="defs3216"><clipPath
       clipPathUnits="userSpaceOnUse"
       id="clipPath3226"><path
         d="M 0,256 256,256 256,0 0,0 0,256 z"
         id="path3228" /></clipPath></defs><sodipodi:namedview
     pagecolor="#ffffff"
     bordercolor="#666666"
     borderopacity="1"
     objecttolerance="10"
     gridtolerance="10"
     guidetolerance="10"
     inkscape:pageopacity="0"
     inkscape:pageshadow="2"
     inkscape:window-width="640"
     inkscape:window-height="480"
     id="namedview3214"
     showgrid="false"
     inkscape:zoom="0.95"
     inkscape:cx="160"
     inkscape:cy="160"
     inkscape:window-x="0"
     inkscape:window-y="0"
     inkscape:window-maximized="0"
     inkscape:current-layer="g3220" /><g
     id="g3220"
     inkscape:groupmode="layer"
     inkscape:label="lakka_icon_cb"
     transform="matrix(1.25,0,0,-1.25,0,320)"><g
       id="g3222"><g
         id="g3224"
         clip-path="url(#clipPath3226)"><g
           id="g3230"
           transform="translate(128,256)"><path
             d="m 0,0 c -105.272,0 -128,-22.728 -128,-128 0,-105.272 22.728,-128 128,-128 105.272,0 128,22.728 128,128 C 128,-22.728 105.272,0 0,0"
             style="fill:#ffffff;fill-opacity:1;fill-rule:nonzero;stroke:none"
             id="path3232" /></g><g
           id="g3234"
           transform="translate(128,250.88)"><path
             d="m 0,0 c -102.014,0 -122.88,-20.722 -122.88,-122.88 0,-102.158 20.544,-122.88 122.88,-122.88 102.35,0 122.88,20.68 122.88,122.88 C 122.88,-20.672 102.014,0 0,0"
             style="fill:#000000;fill-opacity:1;fill-rule:nonzero;stroke:none"
             id="path3236" /></g><g
           id="g3238"
           transform="translate(127.8274,29.2213)"><path
             d="m 0,0 0,0 c -5.201,0 -9.456,4.255 -9.456,9.456 l 0,56.631 c 0,5.201 4.255,9.457 9.456,9.457 l 0,0 c 5.201,0 9.456,-4.256 9.456,-9.457 l 0,-56.631 C 9.456,4.255 5.201,0 0,0"
             style="fill:#27ae60;fill-opacity:1;fill-rule:nonzero;stroke:none"
             id="path3240" /></g><g
           id="g3242"
           transform="translate(65.6229,131.4072)"><path
             d="m 0,0 c 0,0 -13.378,-8.977 -13.378,-31.63 l 0,-33.421 37.878,0 c 0,0 32.307,3.661 37.877,28.196 L 36.383,-3.036 0,0 z"
             style="fill:#2ecc71;fill-opacity:1;fill-rule:nonzero;stroke:none"
             id="path3244" /></g><g
           id="g3246"
           transform="translate(190.3771,131.4072)"><path
             d="m 0,0 c 0,0 13.378,-8.977 13.378,-31.63 l 0,-33.421 -37.878,0 c 0,0 -32.307,3.661 -37.877,28.196 L -36.383,-3.036 0,0 z"
             style="fill:#2ecc71;fill-opacity:1;fill-rule:nonzero;stroke:none"
             id="path3248" /></g><g
           id="g3250"
           transform="translate(128,160.2812)"><path
             d="m 0,0 c 0,-20.919 -16.958,-37.878 -37.878,-37.878 -20.919,0 -37.877,16.959 -37.877,37.878 0,20.919 16.958,37.878 37.877,37.878 C -16.958,37.878 0,20.919 0,0"
             style="fill:#d35400;fill-opacity:1;fill-rule:nonzero;stroke:none"
             id="path3252" /></g><g
           id="g3254"
           transform="translate(203.7551,160.2812)"><path
             d="m 0,0 c 0,-20.919 -16.958,-37.878 -37.878,-37.878 -20.919,0 -37.877,16.959 -37.877,37.878 0,20.919 16.958,37.878 37.877,37.878 C -16.958,37.878 0,20.919 0,0"
             style="fill:#e67e22;fill-opacity:1;fill-rule:nonzero;stroke:none"
             id="path3256" /></g><g
           id="g3258"
           transform="translate(165.8775,188.9011)"><path
             d="m 0,0 c 0,-20.919 -16.958,-37.878 -37.878,-37.878 -20.919,0 -37.877,16.959 -37.877,37.878 0,20.919 16.958,37.878 37.877,37.878 C -16.958,37.878 0,20.919 0,0"
             style="fill:#f1c40f;fill-opacity:1;fill-rule:nonzero;stroke:none"
             id="path3260" /></g><g
           id="g3262"
           transform="translate(165.8775,132.4301)"><path
             d="m 0,0 c 0,-20.919 -16.958,-37.878 -37.878,-37.878 -20.919,0 -37.877,16.959 -37.877,37.878 0,20.919 16.958,37.878 37.877,37.878 C -16.958,37.878 0,20.919 0,0"
             style="fill:#f39c12;fill-opacity:1;fill-rule:nonzero;stroke:none"
             id="path3264" /></g></g></g></g></svg>