<?xml version="1.0" encoding="UTF-8" standalone="no"?>
<svg
   xmlns:dc="http://purl.org/dc/elements/1.1/"
   xmlns:cc="http://creativecommons.org/ns#"
   xmlns:rdf="http://www.w3.org/1999/02/22-rdf-syntax-ns#"
   xmlns:svg="http://www.w3.org/2000/svg"
   xmlns="http://www.w3.org/2000/svg"
   viewBox="0 0 288 320"
   height="320"
   width="288"
   xml:space="preserve"
   id="svg2"
   version="1.1"><metadata
     id="metadata8"><rdf:RDF><cc:Work
         rdf:about=""><dc:format>image/svg+xml</dc:format><dc:type
           rdf:resource="http://purl.org/dc/dcmitype/StillImage" /></cc:Work></rdf:RDF></metadata><defs
     id="defs6"><clipPath
       id="clipPath18"
       clipPathUnits="userSpaceOnUse"><path
         id="path16"
         d="M 0,256 H 256 V 0 H 0 Z" /></clipPath></defs><g
     transform="matrix(1.3333333,0,0,-1.3333333,-26.666666,330.66666)"
     id="g10"><g
       id="g12"><g
         clip-path="url(#clipPath18)"
         id="g14"><g
           transform="translate(232,17.043)"
           id="g20"><path
             id="path22"
             style="fill:#ffffff;fill-opacity:1;fill-rule:nonzero;stroke:none"
             d="m 0,0 c 0,-2.788 -2.324,-5.043 -5.2,-5.043 h -197.6 c -2.876,0 -5.2,2.255 -5.2,5.043 v 221.914 c 0,2.789 2.324,5.043 5.2,5.043 H -5.2 c 2.876,0 5.2,-2.254 5.2,-5.043 z m -5.2,230.957 h -197.6 c -5.073,0 -9.2,-4.057 -9.2,-9.043 L -212,0 c 0,-4.986 4.127,-9.043 9.2,-9.043 H -5.2 C -0.127,-9.043 4,-4.986 4,0 v 221.914 c 0,4.986 -4.127,9.043 -9.2,9.043" /></g><g
           transform="translate(220,27.5137)"
           id="g24"><path
             id="path26"
             style="fill:#ffffff;fill-opacity:1;fill-rule:nonzero;stroke:none"
             d="m 0,0 c 0,-4.144 -3.405,-7.514 -7.592,-7.514 h -168.816 c -4.187,0 -7.592,3.37 -7.592,7.514 v 188.973 c 0,4.143 3.405,7.513 7.592,7.513 H -7.592 c 4.187,0 7.592,-3.37 7.592,-7.513 z m -7.592,200.486 h -168.816 c -6.392,0 -11.592,-5.165 -11.592,-11.513 L -188,0 c 0,-6.349 5.2,-11.514 11.592,-11.514 H -7.592 C -1.2,-11.514 4,-6.349 4,0 v 188.973 c 0,6.348 -5.2,11.513 -11.592,11.513" /></g><g
           transform="translate(200,52)"
           id="g28"><path
             id="path30"
             style="fill:#ffffff;fill-opacity:1;fill-rule:nonzero;stroke:none"
             d="m 0,0 c 0,-4.418 -4.029,-8 -9,-8 h -126 c -4.971,0 -9,3.582 -9,8 v 112 c 0,4.418 4.029,8 9,8 H -9 c 4.971,0 9,-3.582 9,-8 z m -9,124 h -126 c -7.168,0 -13,-5.383 -13,-12 V 0 c 0,-6.617 5.832,-12 13,-12 H -9 c 7.168,0 13,5.383 13,12 v 112 c 0,6.617 -5.832,12 -13,12" /></g></g></g></g></svg>