<?xml version="1.0" encoding="UTF-8" standalone="no"?>
<svg
   xmlns:dc="http://purl.org/dc/elements/1.1/"
   xmlns:cc="http://creativecommons.org/ns#"
   xmlns:rdf="http://www.w3.org/1999/02/22-rdf-syntax-ns#"
   xmlns:svg="http://www.w3.org/2000/svg"
   xmlns="http://www.w3.org/2000/svg"
   viewBox="0 0 266.66665 320"
   height="320"
   width="266.66666"
   xml:space="preserve"
   id="svg2"
   version="1.1"><metadata
     id="metadata8"><rdf:RDF><cc:Work
         rdf:about=""><dc:format>image/svg+xml</dc:format><dc:type
           rdf:resource="http://purl.org/dc/dcmitype/StillImage" /></cc:Work></rdf:RDF></metadata><defs
     id="defs6"><clipPath
       id="clipPath18"
       clipPathUnits="userSpaceOnUse"><path
         id="path16"
         d="M 0,256 H 256 V 0 H 0 Z" /></clipPath></defs><g
     transform="matrix(1.3333333,0,0,-1.3333333,-37.333332,330.66666)"
     id="g10"><g
       id="g12"><g
         clip-path="url(#clipPath18)"
         id="g14"><g
           transform="translate(224,12)"
           id="g20"><path
             id="path22"
             style="fill:#ffffff;fill-opacity:1;fill-rule:nonzero;stroke:none"
             d="m 0,0 h -192 v 227.167 c 0,2.672 2.15,4.833 4.8,4.833 H -4.8 c 2.654,0 4.8,-2.161 4.8,-4.833 z m -4.8,236 h -182.4 c -4.852,0 -8.8,-3.962 -8.8,-8.833 L -196,0 v -4 h 4 H 0 4 V 0 227.167 C 4,232.038 0.053,236 -4.8,236" /></g><g
           transform="translate(186,67.25)"
           id="g24"><path
             id="path26"
             style="fill:#ffffff;fill-opacity:1;fill-rule:nonzero;stroke:none"
             d="m 0,0 c 0,-4.004 -3.246,-7.25 -7.25,-7.25 h -101.5 c -4.004,0 -7.25,3.246 -7.25,7.25 V 108.75 H 0 Z m -116,112.75 h -4 v -4 V 0 c 0,-6.203 5.047,-11.25 11.25,-11.25 H -7.25 C -1.047,-11.25 4,-6.203 4,0 v 108.75 4 H 0 Z" /></g><g
           transform="translate(208,28)"
           id="g28"><path
             id="path30"
             style="fill:#ffffff;fill-opacity:1;fill-rule:nonzero;stroke:none"
             d="m 0,0 h -160 v 194.737 c 0,2.91 2.384,5.263 5.333,5.263 h 105.01 l 2.829,-2.829 44,-44 L 0,150.343 Z M -5.333,200 C -2.384,200 0,197.647 0,194.737 V 156 l -44,44 z M -5,204 H -5.333 -44 h -9.657 -101.01 c -5.146,0 -9.333,-4.155 -9.333,-9.263 V 0 -4 h 4 H 0 4 V 0 146.343 156 194.737 195 c 0,4.963 -4.037,9 -9,9" /></g></g></g></g></svg>