<?xml version="1.0" encoding="UTF-8" standalone="no"?>
<svg
   xmlns:dc="http://purl.org/dc/elements/1.1/"
   xmlns:cc="http://creativecommons.org/ns#"
   xmlns:rdf="http://www.w3.org/1999/02/22-rdf-syntax-ns#"
   xmlns:svg="http://www.w3.org/2000/svg"
   xmlns="http://www.w3.org/2000/svg"
   viewBox="0 0 320 320"
   height="320"
   width="320"
   xml:space="preserve"
   version="1.1"
   id="svg2"><metadata
     id="metadata8"><rdf:RDF><cc:Work
         rdf:about=""><dc:format>image/svg+xml</dc:format><dc:type
           rdf:resource="http://purl.org/dc/dcmitype/StillImage" /></cc:Work></rdf:RDF></metadata><defs
     id="defs6"><clipPath
       id="clipPath16"
       clipPathUnits="userSpaceOnUse"><path
         id="path18"
         d="M 0,256 256,256 256,0 0,0 0,256 Z" /></clipPath></defs><g
     transform="matrix(1.25,0,0,-1.25,0,320)"
     id="g10"><g
       id="g12"><g
         clip-path="url(#clipPath16)"
         id="g14"><g
           transform="translate(232,17.043)"
           id="g20"><path
             id="path22"
             style="fill:#f2f2f2;fill-opacity:1;fill-rule:nonzero;stroke:none"
             d="m 0,0 c 0,-2.788 -2.324,-5.043 -5.2,-5.043 l -197.6,0 c -2.876,0 -5.2,2.255 -5.2,5.043 l 0,221.914 c 0,2.789 2.324,5.043 5.2,5.043 l 197.6,0 c 2.876,0 5.2,-2.254 5.2,-5.043 L 0,0 Z m -5.2,230.957 -197.6,0 c -5.073,0 -9.2,-4.057 -9.2,-9.043 L -212,0 c 0,-4.986 4.127,-9.043 9.2,-9.043 l 197.6,0 C -0.127,-9.043 4,-4.986 4,0 l 0,221.914 c 0,4.986 -4.127,9.043 -9.2,9.043" /></g><g
           transform="translate(220,27.5137)"
           id="g24"><path
             id="path26"
             style="fill:#f2f2f2;fill-opacity:1;fill-rule:nonzero;stroke:none"
             d="m 0,0 c 0,-4.144 -3.405,-7.514 -7.592,-7.514 l -168.816,0 c -4.187,0 -7.592,3.37 -7.592,7.514 l 0,188.973 c 0,4.143 3.405,7.513 7.592,7.513 l 168.816,0 c 4.187,0 7.592,-3.37 7.592,-7.513 L 0,0 Z m -7.592,200.486 -168.816,0 c -6.392,0 -11.592,-5.165 -11.592,-11.513 L -188,0 c 0,-6.349 5.2,-11.514 11.592,-11.514 l 168.816,0 C -1.2,-11.514 4,-6.349 4,0 l 0,188.973 c 0,6.348 -5.2,11.513 -11.592,11.513" /></g><g
           transform="translate(200,52)"
           id="g28"><path
             id="path30"
             style="fill:#f2f2f2;fill-opacity:1;fill-rule:nonzero;stroke:none"
             d="m 0,0 c 0,-4.418 -4.029,-8 -9,-8 l -126,0 c -4.971,0 -9,3.582 -9,8 l 0,112 c 0,4.418 4.029,8 9,8 l 126,0 c 4.971,0 9,-3.582 9,-8 L 0,0 Z m -9,124 -126,0 c -7.168,0 -13,-5.383 -13,-12 l 0,-112 c 0,-6.617 5.832,-12 13,-12 l 126,0 c 7.168,0 13,5.383 13,12 l 0,112 c 0,6.617 -5.832,12 -13,12" /></g></g></g></g></svg>