<?xml version="1.0" encoding="UTF-8" standalone="no"?>
<svg
   xmlns:dc="http://purl.org/dc/elements/1.1/"
   xmlns:cc="http://creativecommons.org/ns#"
   xmlns:rdf="http://www.w3.org/1999/02/22-rdf-syntax-ns#"
   xmlns:svg="http://www.w3.org/2000/svg"
   xmlns="http://www.w3.org/2000/svg"
   viewBox="0 0 320 320"
   height="320"
   width="320"
   xml:space="preserve"
   version="1.1"
   id="svg2"><metadata
     id="metadata8"><rdf:RDF><cc:Work
         rdf:about=""><dc:format>image/svg+xml</dc:format><dc:type
           rdf:resource="http://purl.org/dc/dcmitype/StillImage" /></cc:Work></rdf:RDF></metadata><defs
     id="defs6" /><g
     transform="matrix(1.25,0,0,-1.25,0,320)"
     id="g10"><g
       transform="translate(12,72)"
       id="g12"><path
         id="path14"
         style="fill:#f2f2f2;fill-opacity:1;fill-rule:nonzero;stroke:none"
         d="m 0,0 0,148 48,0 0,-104 0,-4 4,0 128,0 4,0 0,4 0,104 48,0 L 232,0 0,0 Z m 232,-36 -232,0 0,32 232,0 0,-32 z m -52,80 -128,0 0,104 128,0 0,-104 z m 52,108 -48,0 -4,0 -128,0 -4,0 -48,0 -4,0 0,-4 0,-148 0,-4 0,-32 0,-4 4,0 232,0 4,0 0,4 0,32 0,4 0,148 0,4 -4,0 z" /></g><path
       id="path16"
       style="fill:#f2f2f2;fill-opacity:1;fill-rule:nonzero;stroke:none"
       d="m 188,216 -120,0 0,-4 120,0 0,4 z" /><path
       id="path18"
       style="fill:#f2f2f2;fill-opacity:1;fill-rule:nonzero;stroke:none"
       d="m 188,208 -120,0 0,-4 120,0 0,4 z" /><path
       id="path20"
       style="fill:#f2f2f2;fill-opacity:1;fill-rule:nonzero;stroke:none"
       d="m 188,200 -120,0 0,-4 120,0 0,4 z" /><path
       id="path22"
       style="fill:#f2f2f2;fill-opacity:1;fill-rule:nonzero;stroke:none"
       d="m 188,192 -120,0 0,-4 120,0 0,4 z" /><path
       id="path24"
       style="fill:#f2f2f2;fill-opacity:1;fill-rule:nonzero;stroke:none"
       d="m 188,184 -120,0 0,-4 120,0 0,4 z" /><path
       id="path26"
       style="fill:#f2f2f2;fill-opacity:1;fill-rule:nonzero;stroke:none"
       d="m 188,176 -120,0 0,-4 120,0 0,4 z" /><path
       id="path28"
       style="fill:#f2f2f2;fill-opacity:1;fill-rule:nonzero;stroke:none"
       d="m 96,124 -24,0 0,24 24,0 0,-24 z m -24,40 112,0 0,-12 -84,0 -4,0 -24,0 0,12 z m 112,-40 -84,0 0,24 84,0 0,-24 z m -88,-4 4,0 88,0 0,28 0,4 0,12 0,4 -4,0 -112,0 -4,0 0,-4 0,-12 0,-4 0,-24 0,-4 4,0 24,0 z" /></g></svg>