<?xml version="1.0" encoding="UTF-8" standalone="no"?>
<svg
   xmlns:dc="http://purl.org/dc/elements/1.1/"
   xmlns:cc="http://creativecommons.org/ns#"
   xmlns:rdf="http://www.w3.org/1999/02/22-rdf-syntax-ns#"
   xmlns:svg="http://www.w3.org/2000/svg"
   xmlns="http://www.w3.org/2000/svg"
   viewBox="0 0 309.33331 320"
   height="320"
   width="309.33331"
   xml:space="preserve"
   id="svg2"
   version="1.1"><metadata
     id="metadata8"><rdf:RDF><cc:Work
         rdf:about=""><dc:format>image/svg+xml</dc:format><dc:type
           rdf:resource="http://purl.org/dc/dcmitype/StillImage" /></cc:Work></rdf:RDF></metadata><defs
     id="defs6"><clipPath
       id="clipPath32"
       clipPathUnits="userSpaceOnUse"><path
         id="path30"
         d="M 0,256 H 256 V 0 H 0 Z" /></clipPath></defs><g
     transform="matrix(1.3333333,0,0,-1.3333333,-16,330.66666)"
     id="g10"><g
       transform="translate(184,236)"
       id="g12"><path
         id="path14"
         style="fill:#ffffff;fill-opacity:1;fill-rule:nonzero;stroke:none"
         d="m 0,0 h -4 v -4 -120 -4 h -104 v 4 120 4 h -4 -56 v 8 h 84 l 4,-8 h 48 l 4,8 H 56 V 0 Z M 0,-4 H 56 V -124 H 0 Z M 56,-152 H -76 v 12 H 56 Z m 0,-72 h -224 v 60 H 56 Z m -224,84 h 16 v -12 h -16 z m 56,16 h -56 V -4 h 56 z m 36,-32 H 56 v -4 h -224 v 4 h 16 4 68 z m -4,4 h -68 v 12 h 68 z m 136,20 v -4 h -132 -4 -68 -4 -16 v 4 z m 0,144 h -84 -2.473 L -31.578,9.789 -34.472,4 H -77.528 L -80.422,9.789 -81.528,12 H -84 h -84 -4 v -4 -8 -4 -120 -4 -4 -4 -4 -12 -4 -4 -4 -60 -4 h 4 224 4 v 4 60 4 4 4 12 4 4 4 4 120 4 8 4 z" /></g><path
       id="path16"
       style="fill:#ffffff;fill-opacity:1;fill-rule:nonzero;stroke:none"
       d="m 84,224 h 88 V 204 H 84 Z m 88,-36 H 84 v 12 h 88 z m 0,-12 H 84 v 8 h 88 z m -88,52 h -4 v -4 -20 -4 -12 -4 -8 -4 h 4 88 4 v 4 8 4 12 4 20 4 h -4 z" /><path
       id="path18"
       style="fill:#ffffff;fill-opacity:1;fill-rule:nonzero;stroke:none"
       d="M 172,116 H 84 v 48 h 88 z m -88,52 h -4 v -4 -48 -4 h 4 88 4 v 4 48 4 h -4 z" /><path
       id="path20"
       style="fill:#ffffff;fill-opacity:1;fill-rule:nonzero;stroke:none"
       d="M 112,128 H 92 v 8 h 20 z m 4,12 H 88 v -16 h 28 z" /><path
       id="path22"
       style="fill:#ffffff;fill-opacity:1;fill-rule:nonzero;stroke:none"
       d="m 164,128 h -20 v 8 h 20 z m 4,12 h -28 v -16 h 28 z" /><path
       id="path24"
       style="fill:#ffffff;fill-opacity:1;fill-rule:nonzero;stroke:none"
       d="m 36,172 h -8 v 8 h 8 z m -8,20 h 8 v -8 h -8 z m 0,12 h 8 v -8 h -8 z m 0,12 h 8 v -8 h -8 z m 12,0 h 8 v -8 h -8 z m 12,0 h 8 v -8 h -8 z m 8,-20 h -8 v 8 h 8 z m 0,-12 h -8 v 8 h 8 z m 0,-12 h -8 v 8 h 8 z m -20,32 h 8 v -8 h -8 z m 0,-12 h 8 v -8 h -8 z m 8,-20 h -8 v 8 h 8 z m -12,-4 h 4 8 4 8 4 v 4 8 4 8 4 8 4 8 4 h -4 -8 -4 -8 -4 -8 -4 v -4 -8 -4 -8 -4 -8 -4 -8 -4 h 4 z" /><g
       id="g26"><g
         clip-path="url(#clipPath32)"
         id="g28"><g
           transform="translate(42,156)"
           id="g34"><path
             id="path36"
             style="fill:#ffffff;fill-opacity:1;fill-rule:nonzero;stroke:none"
             d="m 0,0 c 9.941,0 18,-8.059 18,-18 0,-9.941 -8.059,-18 -18,-18 -9.941,0 -18,8.059 -18,18 0,9.941 8.059,18 18,18 m 0,-40 c 12.131,0 22,9.869 22,22 0,12.131 -9.869,22 -22,22 -12.131,0 -22,-9.869 -22,-22 0,-12.131 9.869,-22 22,-22" /></g><path
           id="path38"
           style="fill:#ffffff;fill-opacity:1;fill-rule:nonzero;stroke:none"
           d="m 220,216 h 8 v -8 h -8 z m 8,-20 h -8 v 8 h 8 z m 0,-12 h -8 v 8 h 8 z m 0,-12 h -8 v 8 h 8 z m -12,0 h -8 v 8 h 8 z m -12,0 h -8 v 8 h 8 z m -8,20 h 8 v -8 h -8 z m 0,12 h 8 v -8 h -8 z m 0,12 h 8 v -8 h -8 z m 20,-32 h -8 v 8 h 8 z m 0,12 h -8 v 8 h 8 z m -8,20 h 8 v -8 h -8 z m 12,4 h -4 -8 -4 -8 -4 v -4 -8 -4 -8 -4 -8 -4 -8 -4 h 4 8 4 8 4 8 4 v 4 8 4 8 4 8 4 8 4 h -4 z" /><g
           transform="translate(210,120)"
           id="g40"><path
             id="path42"
             style="fill:#ffffff;fill-opacity:1;fill-rule:nonzero;stroke:none"
             d="m 0,0 c -9.941,0 -18,8.059 -18,18 0,9.941 8.059,18 18,18 C 9.941,36 18,27.941 18,18 18,8.059 9.941,0 0,0 M 0,40 C -12.131,40 -22,30.131 -22,18 -22,5.869 -12.131,-4 0,-4 12.131,-4 22,5.869 22,18 22,30.131 12.131,40 0,40" /></g><path
           id="path44"
           style="fill:#ffffff;fill-opacity:1;fill-rule:nonzero;stroke:none"
           d="M 76,64 H 180 V 28 H 76 Z M 180,24 h 4 v 4 36 4 H 180 76 72 V 64 28 24 h 4 z" /></g></g></g></svg>