<?xml version="1.0" encoding="UTF-8" standalone="no"?>
<svg
   xmlns:dc="http://purl.org/dc/elements/1.1/"
   xmlns:cc="http://creativecommons.org/ns#"
   xmlns:rdf="http://www.w3.org/1999/02/22-rdf-syntax-ns#"
   xmlns:svg="http://www.w3.org/2000/svg"
   xmlns="http://www.w3.org/2000/svg"
   viewBox="0 0 320 320"
   height="320"
   width="320"
   xml:space="preserve"
   version="1.1"
   id="svg2"><metadata
     id="metadata8"><rdf:RDF><cc:Work
         rdf:about=""><dc:format>image/svg+xml</dc:format><dc:type
           rdf:resource="http://purl.org/dc/dcmitype/StillImage" /></cc:Work></rdf:RDF></metadata><defs
     id="defs6"><clipPath
       id="clipPath30"
       clipPathUnits="userSpaceOnUse"><path
         id="path32"
         d="M 0,256 256,256 256,0 0,0 0,256 Z" /></clipPath></defs><g
     transform="matrix(1.25,0,0,-1.25,0,320)"
     id="g10"><g
       transform="translate(184,236)"
       id="g12"><path
         id="path14"
         style="fill:#f2f2f2;fill-opacity:1;fill-rule:nonzero;stroke:none"
         d="m 0,0 -4,0 0,-4 0,-120 0,-4 -104,0 0,4 0,120 0,4 -4,0 -56,0 0,8 84,0 4,-8 48,0 4,8 84,0 0,-8 -56,0 z m 0,-4 56,0 0,-120 -56,0 0,120 z m 56,-148 -132,0 0,12 132,0 0,-12 z m 0,-72 -224,0 0,60 224,0 0,-60 z m -224,84 16,0 0,-12 -16,0 0,12 z m 56,16 -56,0 0,120 56,0 0,-120 z m 36,-32 132,0 0,-4 -224,0 0,4 16,0 4,0 68,0 4,0 z m -4,4 -68,0 0,12 68,0 0,-12 z m 136,20 0,-4 -132,0 -4,0 -68,0 -4,0 -16,0 0,4 224,0 z m 0,144 -84,0 -2.473,0 L -31.578,9.789 -34.472,4 -77.528,4 -80.422,9.789 -81.528,12 -84,12 l -84,0 -4,0 0,-4 0,-8 0,-4 0,-120 0,-4 0,-4 0,-4 0,-4 0,-12 0,-4 0,-4 0,-4 0,-60 0,-4 4,0 224,0 4,0 0,4 0,60 0,4 0,4 0,4 0,12 0,4 0,4 0,4 0,4 0,120 0,4 0,8 0,4 -4,0 z" /></g><path
       id="path16"
       style="fill:#f2f2f2;fill-opacity:1;fill-rule:nonzero;stroke:none"
       d="m 84,224 88,0 0,-20 -88,0 0,20 z m 88,-36 -88,0 0,12 88,0 0,-12 z m 0,-12 -88,0 0,8 88,0 0,-8 z m -88,52 -4,0 0,-4 0,-20 0,-4 0,-12 0,-4 0,-8 0,-4 4,0 88,0 4,0 0,4 0,8 0,4 0,12 0,4 0,20 0,4 -4,0 -88,0 z" /><path
       id="path18"
       style="fill:#f2f2f2;fill-opacity:1;fill-rule:nonzero;stroke:none"
       d="m 172,116 -88,0 0,48 88,0 0,-48 z m -88,52 -4,0 0,-4 0,-48 0,-4 4,0 88,0 4,0 0,4 0,48 0,4 -4,0 -88,0 z" /><path
       id="path20"
       style="fill:#f2f2f2;fill-opacity:1;fill-rule:nonzero;stroke:none"
       d="m 112,128 -20,0 0,8 20,0 0,-8 z m 4,12 -28,0 0,-16 28,0 0,16 z" /><path
       id="path22"
       style="fill:#f2f2f2;fill-opacity:1;fill-rule:nonzero;stroke:none"
       d="m 164,128 -20,0 0,8 20,0 0,-8 z m 4,12 -28,0 0,-16 28,0 0,16 z" /><path
       id="path24"
       style="fill:#f2f2f2;fill-opacity:1;fill-rule:nonzero;stroke:none"
       d="m 36,172 -8,0 0,8 8,0 0,-8 z m -8,20 8,0 0,-8 -8,0 0,8 z m 0,12 8,0 0,-8 -8,0 0,8 z m 0,12 8,0 0,-8 -8,0 0,8 z m 12,0 8,0 0,-8 -8,0 0,8 z m 12,0 8,0 0,-8 -8,0 0,8 z m 8,-20 -8,0 0,8 8,0 0,-8 z m 0,-12 -8,0 0,8 8,0 0,-8 z m 0,-12 -8,0 0,8 8,0 0,-8 z m -20,32 8,0 0,-8 -8,0 0,8 z m 0,-12 8,0 0,-8 -8,0 0,8 z m 8,-20 -8,0 0,8 8,0 0,-8 z m -12,-4 4,0 8,0 4,0 8,0 4,0 0,4 0,8 0,4 0,8 0,4 0,8 0,4 0,8 0,4 -4,0 -8,0 -4,0 -8,0 -4,0 -8,0 -4,0 0,-4 0,-8 0,-4 0,-8 0,-4 0,-8 0,-4 0,-8 0,-4 4,0 8,0 z" /><g
       id="g26"><g
         clip-path="url(#clipPath30)"
         id="g28"><g
           transform="translate(42,156)"
           id="g34"><path
             id="path36"
             style="fill:#f2f2f2;fill-opacity:1;fill-rule:nonzero;stroke:none"
             d="m 0,0 c 9.941,0 18,-8.059 18,-18 0,-9.941 -8.059,-18 -18,-18 -9.941,0 -18,8.059 -18,18 0,9.941 8.059,18 18,18 m 0,-40 c 12.131,0 22,9.869 22,22 0,12.131 -9.869,22 -22,22 -12.131,0 -22,-9.869 -22,-22 0,-12.131 9.869,-22 22,-22" /></g><path
           id="path38"
           style="fill:#f2f2f2;fill-opacity:1;fill-rule:nonzero;stroke:none"
           d="m 220,216 8,0 0,-8 -8,0 0,8 z m 8,-20 -8,0 0,8 8,0 0,-8 z m 0,-12 -8,0 0,8 8,0 0,-8 z m 0,-12 -8,0 0,8 8,0 0,-8 z m -12,0 -8,0 0,8 8,0 0,-8 z m -12,0 -8,0 0,8 8,0 0,-8 z m -8,20 8,0 0,-8 -8,0 0,8 z m 0,12 8,0 0,-8 -8,0 0,8 z m 0,12 8,0 0,-8 -8,0 0,8 z m 20,-32 -8,0 0,8 8,0 0,-8 z m 0,12 -8,0 0,8 8,0 0,-8 z m -8,20 8,0 0,-8 -8,0 0,8 z m 12,4 -4,0 -8,0 -4,0 -8,0 -4,0 0,-4 0,-8 0,-4 0,-8 0,-4 0,-8 0,-4 0,-8 0,-4 4,0 8,0 4,0 8,0 4,0 8,0 4,0 0,4 0,8 0,4 0,8 0,4 0,8 0,4 0,8 0,4 -4,0 -8,0 z" /><g
           transform="translate(210,120)"
           id="g40"><path
             id="path42"
             style="fill:#f2f2f2;fill-opacity:1;fill-rule:nonzero;stroke:none"
             d="m 0,0 c -9.941,0 -18,8.059 -18,18 0,9.941 8.059,18 18,18 C 9.941,36 18,27.941 18,18 18,8.059 9.941,0 0,0 M 0,40 C -12.131,40 -22,30.131 -22,18 -22,5.869 -12.131,-4 0,-4 12.131,-4 22,5.869 22,18 22,30.131 12.131,40 0,40" /></g><path
           id="path44"
           style="fill:#f2f2f2;fill-opacity:1;fill-rule:nonzero;stroke:none"
           d="m 76,64 104,0 0,-36 -104,0 0,36 z m 104,-40 4,0 0,4 0,36 0,4 -4,0 -104,0 -4,0 0,-4 0,-36 0,-4 4,0 104,0 z" /></g></g></g></svg>