<?xml version="1.0" encoding="UTF-8" standalone="no"?>
<svg
   xmlns:dc="http://purl.org/dc/elements/1.1/"
   xmlns:cc="http://creativecommons.org/ns#"
   xmlns:rdf="http://www.w3.org/1999/02/22-rdf-syntax-ns#"
   xmlns:svg="http://www.w3.org/2000/svg"
   xmlns="http://www.w3.org/2000/svg"
   viewBox="0 0 192 309.33331"
   height="309.33331"
   width="192"
   xml:space="preserve"
   id="svg2"
   version="1.1"><metadata
     id="metadata8"><rdf:RDF><cc:Work
         rdf:about=""><dc:format>image/svg+xml</dc:format><dc:type
           rdf:resource="http://purl.org/dc/dcmitype/StillImage" /></cc:Work></rdf:RDF></metadata><defs
     id="defs6"><clipPath
       id="clipPath20"
       clipPathUnits="userSpaceOnUse"><path
         id="path18"
         d="M 0,256 H 256 V 0 H 0 Z" /></clipPath></defs><g
     transform="matrix(1.3333333,0,0,-1.3333333,-74.666665,325.33333)"
     id="g10"><path
       id="path12"
       style="fill:#ffffff;fill-opacity:1;fill-rule:nonzero;stroke:none"
       d="M 72,208 H 184 V 120 H 72 Z m 116,4 H 68 v -96 h 120 z" /><g
       id="g14"><g
         clip-path="url(#clipPath20)"
         id="g16"><g
           transform="translate(60,232)"
           id="g22"><path
             id="path24"
             style="fill:#ffffff;fill-opacity:1;fill-rule:nonzero;stroke:none"
             d="m 0,0 v 4 c 0,2.206 1.794,4 4,4 h 128 c 2.206,0 4,-1.794 4,-4 V 0 Z M 136,-8 H 0 v 4 h 136 z m 0,-184 H 0 v 180 h 136 z m 0,-24 H 0 v 20 H 136 Z M 132,12 H 4 C -0.418,12 -4,8.418 -4,4 v -4 -4 -4 -4 -180 -4 -24 h 144 v 24 4 180 4 4 4 4 c 0,4.418 -3.582,8 -8,8" /></g></g></g></g></svg>