<?xml version="1.0" encoding="UTF-8" standalone="no"?>
<svg
   xmlns:dc="http://purl.org/dc/elements/1.1/"
   xmlns:cc="http://creativecommons.org/ns#"
   xmlns:rdf="http://www.w3.org/1999/02/22-rdf-syntax-ns#"
   xmlns:svg="http://www.w3.org/2000/svg"
   xmlns="http://www.w3.org/2000/svg"
   viewBox="0 0 320 320"
   height="320"
   width="320"
   xml:space="preserve"
   version="1.1"
   id="svg2"><metadata
     id="metadata8"><rdf:RDF><cc:Work
         rdf:about=""><dc:format>image/svg+xml</dc:format><dc:type
           rdf:resource="http://purl.org/dc/dcmitype/StillImage" /></cc:Work></rdf:RDF></metadata><defs
     id="defs6"><clipPath
       id="clipPath16"
       clipPathUnits="userSpaceOnUse"><path
         id="path18"
         d="M 0,256 256,256 256,0 0,0 0,256 Z" /></clipPath></defs><g
     transform="matrix(1.25,0,0,-1.25,0,320)"
     id="g10"><g
       id="g12"><g
         clip-path="url(#clipPath16)"
         id="g14"><g
           transform="translate(236,108)"
           id="g20"><path
             id="path22"
             style="fill:#f2f2f2;fill-opacity:1;fill-rule:nonzero;stroke:none"
             d="m 0,0 c -4.411,0 -8,-3.589 -8,-8 l 0,-20 c 0,-4.411 3.589,-8 8,-8 l 7.501,0 C 3.685,-51.784 -22.385,-64 -54,-64 c -16.069,0 -42,8 -42,8 -9.334,2.667 -19.555,3.556 -29.037,3.556 C -143.999,-52.444 -160,-56 -160,-56 c 0,0 -13.961,-4 -22,-4 -22.254,0 -40.455,12.365 -41.897,28 l -0.103,0 0,116 c 0,11.046 8.954,20 20,20 l 192,0 C -0.954,104 8,95.046 8,84 L 8,0 0,0 Z m 8,-32 -8,0 c -2.209,0 -4,1.791 -4,4 l 0,20 c 0,2.209 1.791,4 4,4 l 8,0 0,-28 z m -20,140 -192,0 c -13.233,0 -24,-10.767 -24,-24 l 0,-116 0,-4 0.717,0 c 1.756,-7.387 6.73,-14.1 14.3,-19.184 8.464,-5.685 19.468,-8.816 30.983,-8.816 8.17,0 21.422,3.68 22.972,4.117 1.395,0.299 16.507,3.439 33.991,3.439 10.621,0 20.007,-1.141 27.899,-3.391 C -95.569,-60.317 -70.313,-68 -54,-68 c 37.01,0 66,15.813 66,36 l 0,28 0,4 0,84 c 0,13.233 -10.767,24 -24,24" /></g><g
           transform="translate(50,64)"
           id="g24"><path
             id="path26"
             style="fill:#f2f2f2;fill-opacity:1;fill-rule:nonzero;stroke:none"
             d="m 0,0 c -12.15,0 -22,9.85 -22,22 0,12.15 9.85,22 22,22 C 12.15,44 22,34.15 22,22 22,9.85 12.15,0 0,0 M 0,48 C -14.336,48 -26,36.336 -26,22 -26,7.664 -14.336,-4 0,-4 14.336,-4 26,7.664 26,22 26,36.336 14.336,48 0,48" /></g><g
           transform="translate(92,80)"
           id="g28"><path
             id="path30"
             style="fill:#f2f2f2;fill-opacity:1;fill-rule:nonzero;stroke:none"
             d="m 0,0 c -4.418,0 -8,3.582 -8,8 0,4.418 3.582,8 8,8 C 4.418,16 8,12.418 8,8 8,3.582 4.418,0 0,0 M 0,20 C -6.617,20 -12,14.617 -12,8 -12,1.383 -6.617,-4 0,-4 6.617,-4 12,1.383 12,8 12,14.617 6.617,20 0,20" /></g><g
           transform="translate(216,80)"
           id="g32"><path
             id="path34"
             style="fill:#f2f2f2;fill-opacity:1;fill-rule:nonzero;stroke:none"
             d="m 0,0 -64,0 c -2.209,0 -4,1.791 -4,4 l 0,80 c 0,8.836 7.163,16 16,16 l 39,0 C -3.611,100 4,92.389 4,83 L 4,4 C 4,1.791 2.209,0 0,0 m 4,-14.141 c 0,-1.219 -0.564,-2.364 -1.51,-3.133 -10.242,-8.346 -21.213,-11.17 -31.379,-11.17 -17.179,0 -32.056,8.072 -37.196,11.214 -1.191,0.728 -1.915,2.017 -1.915,3.414 L -68,-4 4,-4 4,-14.141 Z M -13,104 l -39,0 c -11.028,0 -20,-8.972 -20,-20 l 0,-84 0,-13.816 c 0,-2.809 1.432,-5.362 3.829,-6.828 5.804,-3.547 21.25,-11.8 39.282,-11.8 12.669,0 24.077,4.06 33.907,12.068 C 6.913,-18.831 8,-16.559 8,-14.141 L 8,0 8,83 c 0,11.58 -9.421,21 -21,21" /></g><g
           transform="translate(114,84)"
           id="g36"><path
             id="path38"
             style="fill:#f2f2f2;fill-opacity:1;fill-rule:nonzero;stroke:none"
             d="M 0,0 C -1.104,0 -2,0.896 -2,2 -2,3.104 -1.104,4 0,4 1.104,4 2,3.104 2,2 2,0.896 1.104,0 0,0 m 0,8 c -3.309,0 -6,-2.691 -6,-6 0,-3.309 2.691,-6 6,-6 3.309,0 6,2.691 6,6 0,3.309 -2.691,6 -6,6" /></g><g
           transform="translate(184,61)"
           id="g40"><path
             id="path42"
             style="fill:#f2f2f2;fill-opacity:1;fill-rule:nonzero;stroke:none"
             d="M 0,0 C -5.494,0 -9,2.369 -9,4 -9,5.631 -5.494,8 0,8 5.494,8 9,5.631 9,4 9,2.369 5.494,0 0,0 m 0,-4 c 7.29,0 13,3.514 13,8 0,4.486 -5.71,8 -13,8 -7.29,0 -13,-3.514 -13,-8 0,-4.486 5.71,-8 13,-8" /></g><g
           transform="translate(184,124)"
           id="g44"><path
             id="path46"
             style="fill:#f2f2f2;fill-opacity:1;fill-rule:nonzero;stroke:none"
             d="m 0,0 c -11.046,0 -20,6.268 -20,14 0,7.732 8.954,14 20,14 C 11.046,28 20,21.732 20,14 20,6.268 11.046,0 0,0 M 0,32 C -13.458,32 -24,24.093 -24,14 -24,3.907 -13.458,-4 0,-4 13.458,-4 24,3.907 24,14 24,24.093 13.458,32 0,32" /></g><g
           transform="translate(120,164)"
           id="g48"><path
             id="path50"
             style="fill:#f2f2f2;fill-opacity:1;fill-rule:nonzero;stroke:none"
             d="M 0,0 C 0,-2.209 -1.791,-4 -4,-4 L -14.101,-4 -11.858,7.215 -11.701,8 -4,8 C -1.791,8 0,6.209 0,4 L 0,0 Z m -20.22,-4 2.4,12 2.04,0 -2.4,-12 -2.04,0 z m -47.481,0 -0.157,0.785 L -70.101,8 -21.899,8 -24.142,-3.215 -24.299,-4 -67.701,-4 Z m -6.119,0 -2.4,12 2.04,0 2.4,-12 -2.04,0 z M -92,0 l 0,4 c 0,2.209 1.791,4 4,4 l 7.701,0 0.157,-0.785 L -77.899,-4 -88,-4 c -2.209,0 -4,1.791 -4,4 m 88,12 -6.901,0 -4.879,0 -2.04,0 -3.279,0 -49.802,0 -3.279,0 -2.04,0 -4.879,0 -6.901,0 c -4.411,0 -8,-3.589 -8,-8 l 0,-4 c 0,-4.411 3.589,-8 8,-8 l 10.901,0 3.279,0 2.04,0 4.879,0 41.802,0 4.879,0 2.04,0 3.279,0 L -4,-8 c 4.411,0 8,3.589 8,8 l 0,4 c 0,4.411 -3.589,8 -8,8" /></g><g
           transform="translate(40.2612,124.2588)"
           id="g52"><path
             id="path54"
             style="fill:#f2f2f2;fill-opacity:1;fill-rule:nonzero;stroke:none"
             d="m 0,0 c 0.551,-0.167 1.134,-0.259 1.739,-0.259 l 16,0 c 0.604,0 1.188,0.092 1.739,0.259 -0.751,-2.457 -3.044,-4.259 -5.739,-4.259 l -8,0 C 3.044,-4.259 0.75,-2.457 0,0 m 5.739,19.741 8,0 c 2.695,0 4.988,-1.801 5.739,-4.259 -0.551,0.167 -1.135,0.259 -1.739,0.259 l -16,0 c -0.605,0 -1.188,-0.092 -1.739,-0.259 0.75,2.458 3.044,4.259 5.739,4.259 m -6,-10 c 0,1.105 0.895,2 2,2 l 16,0 c 1.104,0 2,-0.895 2,-2 l 0,-4 c 0,-1.104 -0.896,-2 -2,-2 l -16,0 c -1.105,0 -2,0.896 -2,2 l 0,4 z m 14,-18 c 5.514,0 10,4.487 10,10 l 0,4 0,4 0,4 c 0,5.514 -4.486,10 -10,10 l -8,0 c -5.514,0 -10,-4.486 -10,-10 l 0,-4 0,-4 0,-4 c 0,-5.513 4.486,-10 10,-10 l 8,0 z" /></g></g></g></g></svg>