<?xml version="1.0" encoding="UTF-8" standalone="no"?>
<svg
   xmlns:dc="http://purl.org/dc/elements/1.1/"
   xmlns:cc="http://creativecommons.org/ns#"
   xmlns:rdf="http://www.w3.org/1999/02/22-rdf-syntax-ns#"
   xmlns:svg="http://www.w3.org/2000/svg"
   xmlns="http://www.w3.org/2000/svg"
   viewBox="0 0 320 320"
   height="320"
   width="320"
   xml:space="preserve"
   id="svg2"
   version="1.1"><metadata
     id="metadata8"><rdf:RDF><cc:Work
         rdf:about=""><dc:format>image/svg+xml</dc:format><dc:type
           rdf:resource="http://purl.org/dc/dcmitype/StillImage" /></cc:Work></rdf:RDF></metadata><defs
     id="defs6"><clipPath
       id="clipPath18"
       clipPathUnits="userSpaceOnUse"><path
         id="path16"
         d="M 0,256 H 256 V 0 H 0 Z" /></clipPath></defs><g
     transform="matrix(1.3333333,0,0,-1.3333333,-10.666666,330.66733)"
     id="g10"><g
       id="g12"><g
         clip-path="url(#clipPath18)"
         id="g14"><g
           transform="translate(244,17.2725)"
           id="g20"><path
             id="path22"
             style="fill:#ffffff;fill-opacity:1;fill-rule:nonzero;stroke:none"
             d="M 0,0 C 0,-2.915 -2.356,-5.272 -5.272,-5.272 H -24 v 78.4 c 0,5.293 -4.486,9.6 -10,9.6 h -144 c -5.514,0 -10,-4.307 -10,-9.6 v -78.4 h -22.909 L -232,21.091 v 200.364 c 0,2.916 2.357,5.273 5.272,5.273 H -212 V 116.527 c 0,-5.403 4.222,-9.799 9.412,-9.799 h 173.176 c 5.189,0 9.412,4.396 9.412,9.799 v 110.201 h 14.728 c 2.916,0 5.272,-2.357 5.272,-5.273 z m -52,-5.272 v 68.727 c 0,6.321 -4.073,11.273 -9.272,11.273 h -105.456 c -5.199,0 -9.272,-4.952 -9.272,-11.273 V -5.272 h -8 v 78.4 c 0,3.097 2.682,5.6 6,5.6 h 144 c 3.318,0 6,-2.503 6,-5.6 v -78.4 z m -120,0 v 68.727 c 0,4.022 2.357,7.273 5.272,7.273 h 105.456 c 2.916,0 5.272,-3.251 5.272,-7.273 V -5.272 Z m 148,232 V 116.527 c 0,-3.207 -2.419,-5.799 -5.412,-5.799 h -173.176 c -2.993,0 -5.412,2.592 -5.412,5.799 v 110.201 z m 18.728,4 H -20 h -4 -184 -4 -14.728 c -5.112,0 -9.272,-4.16 -9.272,-9.273 V 21.091 19.688 l 0.876,-1.095 21.092,-26.364 1.2,-1.501 h 1.923 22.909 4 8 4 116 4 24 4 18.728 C -0.16,-9.272 4,-5.112 4,0 v 221.455 c 0,5.113 -4.16,9.273 -9.272,9.273" /></g><path
           id="path24"
           style="fill:#ffffff;fill-opacity:1;fill-rule:nonzero;stroke:none"
           d="m 232,220 h 4 v -4 h -4 z m -4,-8 h 12 v 12 h -12 z" /><path
           id="path26"
           style="fill:#ffffff;fill-opacity:1;fill-rule:nonzero;stroke:none"
           d="m 88,80 h 28 V 24 H 88 Z M 84,20 h 36 V 84 H 84 Z" /></g></g></g></svg>