<?xml version="1.0" encoding="UTF-8" standalone="no"?>
<svg
   xmlns:dc="http://purl.org/dc/elements/1.1/"
   xmlns:cc="http://creativecommons.org/ns#"
   xmlns:rdf="http://www.w3.org/1999/02/22-rdf-syntax-ns#"
   xmlns:svg="http://www.w3.org/2000/svg"
   xmlns="http://www.w3.org/2000/svg"
   viewBox="0 0 128 128"
   height="128"
   width="128"
   xml:space="preserve"
   id="svg2"
   version="1.1"><metadata
     id="metadata8"><rdf:RDF><cc:Work
         rdf:about=""><dc:format>image/svg+xml</dc:format><dc:type
           rdf:resource="http://purl.org/dc/dcmitype/StillImage" /></cc:Work></rdf:RDF></metadata><defs
     id="defs6"><clipPath
       id="clipPath18"
       clipPathUnits="userSpaceOnUse"><path
         id="path16"
         d="M 0,256 H 256 V 0 H 0 Z" /></clipPath></defs><g
     transform="matrix(1.3333333,0,0,-1.3333333,-106.66666,234.66666)"
     id="g10"><g
       id="g12"><g
         clip-path="url(#clipPath18)"
         id="g14"><g
           transform="translate(128,160.5)"
           id="g20"><path
             id="path22"
             style="fill:#f2f2f2;fill-opacity:1;fill-rule:nonzero;stroke:none"
             d="M 0,0 -1.833,-0.944 C -12.402,-6.392 -28,-27.442 -28,-39.133 c 0,-7.865 4.881,-13.359 11.87,-13.359 1.777,0 3.644,0.358 5.575,1.059 L -13.692,-58.962 -16,-64.5 h 6 20 6 l -2.308,5.538 -3.137,7.529 c 1.931,-0.701 3.799,-1.059 5.575,-1.059 6.989,0 11.87,5.494 11.87,13.359 0,11.691 -15.598,32.741 -26.168,38.189 z m 0,-4.5 c 9.6,-4.947 24,-24.737 24,-34.633 0,-5.426 -2.888,-9.359 -7.87,-9.359 -3.707,0 -8.574,2.179 -14.276,7.541 L 10,-60.5 h -20 l 8.146,19.549 c -5.702,-5.363 -10.569,-7.541 -14.276,-7.541 -4.982,0 -7.87,3.934 -7.87,9.359 0,9.896 14.4,29.686 24,34.633" /></g><path
           id="path24"
           style="fill:#f2f2f2;fill-opacity:1;fill-rule:nonzero;stroke:none"
           d="M 172,84 H 84 v 88 h 88 z M 80,80 h 96 v 96 H 80 Z" /></g></g></g></svg>