<?xml version="1.0" encoding="UTF-8" standalone="no"?>
<svg
   xmlns:dc="http://purl.org/dc/elements/1.1/"
   xmlns:cc="http://creativecommons.org/ns#"
   xmlns:rdf="http://www.w3.org/1999/02/22-rdf-syntax-ns#"
   xmlns:svg="http://www.w3.org/2000/svg"
   xmlns="http://www.w3.org/2000/svg"
   viewBox="0 0 245.33333 245.33333"
   height="245.33333"
   width="245.33333"
   xml:space="preserve"
   id="svg2"
   version="1.1"><metadata
     id="metadata8"><rdf:RDF><cc:Work
         rdf:about=""><dc:format>image/svg+xml</dc:format><dc:type
           rdf:resource="http://purl.org/dc/dcmitype/StillImage" /></cc:Work></rdf:RDF></metadata><defs
     id="defs6"><clipPath
       id="clipPath18"
       clipPathUnits="userSpaceOnUse"><path
         id="path16"
         d="M 0,256 H 256 V 0 H 0 Z" /></clipPath></defs><g
     transform="matrix(1.3333333,0,0,-1.3333333,-47.999999,293.33333)"
     id="g10"><g
       id="g12"><g
         clip-path="url(#clipPath18)"
         id="g14"><g
           transform="translate(60,188)"
           id="g20"><path
             id="path22"
             style="fill:#ffffff;fill-opacity:1;fill-rule:nonzero;stroke:none"
             d="m 0,0 c 0,4.418 3.582,8 8,8 h 120 c 4.418,0 8,-3.582 8,-8 v -120 c 0,-4.418 -3.582,-8 -8,-8 H 8 c -4.418,0 -8,3.582 -8,8 z m 8,-132 h 120 c 6.617,0 12,5.383 12,12 V 0 c 0,6.617 -5.383,12 -12,12 H 8 C 1.383,12 -4,6.617 -4,0 v -120 c 0,-6.617 5.383,-12 12,-12" /></g><g
           transform="translate(128,148)"
           id="g24"><path
             id="path26"
             style="fill:#ffffff;fill-opacity:1;fill-rule:nonzero;stroke:none"
             d="m 0,0 c 11.028,0 20,-8.972 20,-20 0,-11.028 -8.972,-20 -20,-20 -11.028,0 -20,8.972 -20,20 0,11.028 8.972,20 20,20 m 0,-44 c 13.255,0 24,10.745 24,24 C 24,-6.745 13.255,4 0,4 -13.255,4 -24,-6.745 -24,-20 c 0,-13.255 10.745,-24 24,-24" /></g><g
           transform="translate(80.7202,135.1328)"
           id="g28"><path
             id="path30"
             style="fill:#ffffff;fill-opacity:1;fill-rule:nonzero;stroke:none"
             d="m 0,0 9.926,1.45 c 0.97,4.233 2.65,8.159 4.877,11.721 l -6.029,8.112 c 2.842,3.86 6.24,7.238 10.09,10.09 l 8.112,-6.029 c 3.562,2.237 7.497,3.907 11.721,4.886 l 1.45,9.917 c 2.342,0.355 4.685,0.72 7.133,0.72 2.448,0 4.79,-0.365 7.133,-0.72 l 1.449,-9.917 c 4.234,-0.979 8.16,-2.659 11.721,-4.886 l 8.113,6.029 c 3.859,-2.852 7.248,-6.24 10.09,-10.09 l -6.03,-8.112 C 81.994,9.609 83.664,5.674 84.633,1.45 L 94.56,0 c 0.355,-2.342 0.72,-4.685 0.72,-7.133 0,-2.448 -0.365,-4.79 -0.72,-7.133 l -9.927,-1.449 c -0.969,-4.234 -2.649,-8.16 -4.877,-11.722 l 6.03,-8.112 c -2.842,-3.859 -6.241,-7.238 -10.09,-10.09 l -8.113,6.03 c -3.561,-2.238 -7.497,-3.908 -11.721,-4.887 l -1.449,-9.917 c -2.343,-0.355 -4.685,-0.72 -7.133,-0.72 -2.448,0 -4.791,0.365 -7.133,0.72 l -1.45,9.917 c -4.233,0.979 -8.159,2.659 -11.721,4.887 l -8.112,-6.03 c -3.86,2.852 -7.248,6.241 -10.09,10.09 l 6.029,8.112 c -2.237,3.562 -3.907,7.498 -4.877,11.722 L 0,-14.266 c -0.355,2.343 -0.72,4.685 -0.72,7.133 0,2.448 0.365,4.791 0.72,7.133 m -3.955,-14.865 0.444,-2.93 2.933,-0.429 7.316,-1.068 c 0.819,-2.724 1.916,-5.358 3.28,-7.878 l -4.454,-5.993 -1.768,-2.378 1.76,-2.383 c 3.076,-4.168 6.754,-7.846 10.931,-10.931 l 2.384,-1.762 2.379,1.768 5.995,4.456 c 2.527,-1.366 5.161,-2.465 7.875,-3.287 l 1.069,-7.311 0.429,-2.933 2.929,-0.443 0.173,-0.027 c 2.395,-0.363 4.87,-0.739 7.56,-0.739 2.689,0 5.166,0.376 7.56,0.739 l 0.172,0.027 2.93,0.444 0.429,2.932 1.068,7.311 c 2.727,0.825 5.362,1.923 7.878,3.285 l 5.993,-4.454 2.382,-1.77 2.385,1.766 c 4.204,3.114 7.881,6.792 10.929,10.933 l 1.755,2.382 -1.765,2.375 -4.456,5.996 c 1.367,2.529 2.464,5.163 3.282,7.875 l 7.316,1.068 2.932,0.429 0.444,2.93 0.027,0.171 c 0.363,2.394 0.739,4.871 0.739,7.561 0,2.691 -0.376,5.167 -0.739,7.562 L 98.514,0.6 98.07,3.53 95.138,3.958 87.822,5.026 c -0.82,2.724 -1.917,5.359 -3.28,7.878 l 4.454,5.993 1.767,2.378 -1.76,2.384 c -3.076,4.167 -6.753,7.845 -10.93,10.931 l -2.384,1.761 -2.379,-1.768 -5.996,-4.456 c -2.526,1.366 -5.16,2.466 -7.875,3.287 l -1.068,7.312 -0.429,2.932 -2.93,0.444 -0.173,0.026 c -2.394,0.364 -4.87,0.739 -7.559,0.739 -2.69,0 -5.165,-0.375 -7.56,-0.739 L 39.547,44.102 36.618,43.658 36.189,40.726 35.12,33.414 C 32.394,32.59 29.759,31.491 27.243,30.129 l -5.993,4.454 -2.382,1.771 -2.385,-1.767 C 12.279,31.474 8.602,27.795 5.553,23.655 L 3.799,21.272 5.564,18.897 10.02,12.901 C 8.652,10.372 7.555,7.738 6.738,5.026 L -0.578,3.958 -3.511,3.53 -3.955,0.6 -3.981,0.428 c -0.363,-2.395 -0.739,-4.871 -0.739,-7.561 0,-2.689 0.376,-5.166 0.739,-7.56 z" /></g><path
           id="path32"
           style="fill:#ffffff;fill-opacity:1;fill-rule:nonzero;stroke:none"
           d="M 216,40 H 40 V 216 H 216 Z M 36,36 H 220 V 220 H 36 Z" /><g
           transform="translate(72,76)"
           id="g34"><path
             id="path36"
             style="fill:#ffffff;fill-opacity:1;fill-rule:nonzero;stroke:none"
             d="m 0,0 v 4 4 4 4 4 4 4 4 4 4 4 4 4 4 4 4 4 4 4 4 4 4 4 4 4 4 4 h 4 4 4 4 4 4 4 4 4 4 4 4 4 4 4 4 4 4 4 4 4 4 4 4 4 4 4 4 V 104 100 96 92 88 84 80 76 72 68 64 60 56 52 48 44 40 36 32 28 24 20 16 12 8 4 0 -4 h -4 -4 -4 H 96 92 88 84 80 76 72 68 64 60 56 52 48 44 40 36 32 28 24 20 16 12 8 4 0 Z m 0,-8 v -4 h 4 v 4 h 4 v -4 h 4 v 4 h 4 v -4 h 4 v 4 h 4 v -4 h 4 v 4 h 4 v -4 h 4 v 4 h 4 v -4 h 4 v 4 h 4 v -4 h 4 v 4 h 4 v -4 h 4 v 4 h 4 v -4 h 4 v 4 h 4 v -4 h 4 v 4 h 4 v -4 h 4 v 4 h 4 v -4 h 4 v 4 h 4 v -4 h 4 v 4 h 4 v -4 h 4 v 4 h 4 v -4 h 4 v 4 4 h 4 v 4 h -4 v 4 h 4 v 4 h -4 v 4 h 4 v 4 h -4 v 4 h 4 v 4 h -4 v 4 h 4 v 4 h -4 v 4 h 4 v 4 h -4 v 4 h 4 v 4 h -4 v 4 h 4 v 4 h -4 v 4 h 4 v 4 h -4 v 4 h 4 v 4 h -4 v 4 h 4 v 4 h -4 v 4 h 4 v 4 h -4 v 4 h 4 v 4 h -4 v 4 h 4 v 4 h -4 v 4 h 4 v 4 h -4 -4 v 4 h -4 v -4 h -4 v 4 h -4 v -4 h -4 v 4 h -4 v -4 h -4 v 4 h -4 v -4 h -4 v 4 h -4 v -4 h -4 v 4 h -4 v -4 h -4 v 4 h -4 v -4 h -4 v 4 h -4 v -4 h -4 v 4 h -4 v -4 h -4 v 4 h -4 v -4 h -4 v 4 h -4 v -4 h -4 v 4 h -4 v -4 h -4 v 4 h -4 v -4 H 8 v 4 H 4 v -4 H 0 v 4 h -4 v -4 -4 h -4 v -4 h 4 v -4 h -4 v -4 h 4 v -4 h -4 v -4 h 4 v -4 h -4 v -4 h 4 v -4 h -4 v -4 h 4 v -4 h -4 v -4 h 4 v -4 h -4 v -4 h 4 v -4 h -4 v -4 h 4 v -4 h -4 v -4 h 4 v -4 h -4 v -4 h 4 v -4 h -4 v -4 h 4 v -4 h -4 v -4 h 4 V 12 H -8 V 8 h 4 V 4 H -8 V 0 h 4 v -4 h -4 v -4 h 4 z" /></g></g></g></g></svg>