<?xml version="1.0" encoding="UTF-8" standalone="no"?>
<svg
   xmlns:dc="http://purl.org/dc/elements/1.1/"
   xmlns:cc="http://creativecommons.org/ns#"
   xmlns:rdf="http://www.w3.org/1999/02/22-rdf-syntax-ns#"
   xmlns:svg="http://www.w3.org/2000/svg"
   xmlns="http://www.w3.org/2000/svg"
   viewBox="0 0 128 128"
   height="128"
   width="128"
   xml:space="preserve"
   id="svg2"
   version="1.1"><metadata
     id="metadata8"><rdf:RDF><cc:Work
         rdf:about=""><dc:format>image/svg+xml</dc:format><dc:type
           rdf:resource="http://purl.org/dc/dcmitype/StillImage" /></cc:Work></rdf:RDF></metadata><defs
     id="defs6"><clipPath
       id="clipPath18"
       clipPathUnits="userSpaceOnUse"><path
         id="path16"
         d="M 0,256 H 256 V 0 H 0 Z" /></clipPath></defs><g
     transform="matrix(1.3333333,0,0,-1.3333333,-106.66666,234.66666)"
     id="g10"><g
       id="g12"><g
         clip-path="url(#clipPath18)"
         id="g14"><g
           transform="translate(128,156)"
           id="g20"><path
             id="path22"
             style="fill:#f2f2f2;fill-opacity:1;fill-rule:nonzero;stroke:none"
             d="m 0,0 c -1.496,0 -2.869,-0.208 -4.08,-0.392 l -0.086,-0.013 -2.93,-0.445 -0.428,-2.931 -0.357,-2.438 c -0.657,-0.239 -1.303,-0.509 -1.936,-0.807 l -2.005,1.489 -2.382,1.77 -2.385,-1.766 c -2.262,-1.675 -4.242,-3.656 -5.885,-5.887 l -1.755,-2.383 1.766,-2.375 1.491,-2.006 c -0.299,-0.635 -0.569,-1.28 -0.807,-1.936 l -2.439,-0.356 -2.932,-0.428 -0.445,-2.93 -0.013,-0.086 C -27.792,-25.131 -28,-26.504 -28,-28 c 0,-1.496 0.208,-2.869 0.392,-4.08 l 0.013,-0.086 0.445,-2.93 2.932,-0.428 2.438,-0.357 c 0.239,-0.656 0.508,-1.303 0.807,-1.936 l -1.49,-2.005 -1.767,-2.378 1.759,-2.384 c 1.657,-2.244 3.637,-4.225 5.886,-5.886 l 2.384,-1.761 2.379,1.768 2.006,1.49 c 0.634,-0.298 1.28,-0.568 1.935,-0.807 l 0.357,-2.439 0.428,-2.931 2.93,-0.445 0.085,-0.012 C -2.869,-55.792 -1.496,-56 0,-56 c 1.496,0 2.869,0.208 4.081,0.393 l 0.085,0.012 2.93,0.445 0.428,2.931 0.357,2.438 c 0.657,0.24 1.303,0.509 1.936,0.807 l 2.005,-1.489 2.382,-1.77 2.385,1.766 c 2.263,1.675 4.242,3.656 5.885,5.887 l 1.755,2.383 -1.766,2.375 -1.49,2.007 c 0.298,0.634 0.567,1.279 0.806,1.934 l 2.439,0.357 2.932,0.428 0.445,2.93 0.012,0.085 C 27.792,-30.869 28,-29.496 28,-28 c 0,1.496 -0.208,2.869 -0.393,4.081 l -0.012,0.085 -0.445,2.93 -2.932,0.428 -2.439,0.356 c -0.238,0.657 -0.508,1.303 -0.805,1.937 l 1.489,2.005 1.767,2.378 -1.759,2.383 c -1.657,2.245 -3.637,4.226 -5.886,5.887 L 14.201,-3.769 11.822,-5.537 9.815,-7.028 C 9.182,-6.729 8.536,-6.459 7.881,-6.22 L 7.524,-3.781 7.096,-0.85 4.166,-0.405 4.08,-0.392 C 2.869,-0.208 1.496,0 0,0 m 0,-4 c 1.224,0 2.396,-0.183 3.566,-0.36 l 0.725,-4.958 c 2.117,-0.49 4.08,-1.33 5.861,-2.444 l 4.056,3.015 c 1.93,-1.426 3.624,-3.12 5.045,-5.045 l -3.015,-4.056 c 1.118,-1.781 1.954,-3.749 2.439,-5.861 l 4.963,-0.725 C 23.817,-25.605 24,-26.776 24,-28 c 0,-1.224 -0.183,-2.396 -0.36,-3.566 l -4.963,-0.725 c -0.485,-2.117 -1.325,-4.08 -2.439,-5.861 l 3.015,-4.056 c -1.421,-1.93 -3.12,-3.619 -5.045,-5.045 l -4.056,3.015 C 8.371,-45.356 6.403,-46.192 4.291,-46.682 L 3.566,-51.64 C 2.396,-51.817 1.224,-52 0,-52 c -1.224,0 -2.395,0.183 -3.566,0.36 l -0.725,4.958 c -2.117,0.49 -4.08,1.33 -5.861,2.444 l -4.056,-3.015 c -1.93,1.426 -3.624,3.12 -5.045,5.045 l 3.015,4.056 c -1.119,1.781 -1.954,3.749 -2.439,5.861 l -4.963,0.725 c -0.177,1.17 -0.36,2.342 -0.36,3.566 0,1.224 0.183,2.395 0.36,3.566 l 4.963,0.725 c 0.485,2.117 1.325,4.08 2.439,5.861 l -3.015,4.056 c 1.421,1.93 3.12,3.619 5.045,5.045 l 4.056,-3.015 c 1.781,1.119 3.749,1.954 5.861,2.444 l 0.725,4.958 C -2.395,-4.183 -1.224,-4 0,-4" /></g><path
           id="path24"
           style="fill:#f2f2f2;fill-opacity:1;fill-rule:nonzero;stroke:none"
           d="M 172,84 H 84 v 88 h 88 z M 80,80 h 96 v 96 H 80 Z" /><g
           transform="translate(128,140)"
           id="g26"><path
             id="path28"
             style="fill:#f2f2f2;fill-opacity:1;fill-rule:nonzero;stroke:none"
             d="m 0,0 c -6.627,0 -12,-5.373 -12,-12 0,-6.627 5.373,-12 12,-12 6.627,0 12,5.373 12,12 C 12,-5.373 6.627,0 0,0 m 0,-4 c 4.411,0 8,-3.589 8,-8 0,-4.411 -3.589,-8 -8,-8 -4.411,0 -8,3.589 -8,8 0,4.411 3.589,8 8,8" /></g></g></g></g></svg>