<?xml version="1.0" encoding="UTF-8" standalone="no"?>
<svg
   xmlns:dc="http://purl.org/dc/elements/1.1/"
   xmlns:cc="http://creativecommons.org/ns#"
   xmlns:rdf="http://www.w3.org/1999/02/22-rdf-syntax-ns#"
   xmlns:svg="http://www.w3.org/2000/svg"
   xmlns="http://www.w3.org/2000/svg"
   viewBox="0 0 320 320"
   height="320"
   width="320"
   xml:space="preserve"
   version="1.1"
   id="svg2"><metadata
     id="metadata8"><rdf:RDF><cc:Work
         rdf:about=""><dc:format>image/svg+xml</dc:format><dc:type
           rdf:resource="http://purl.org/dc/dcmitype/StillImage" /></cc:Work></rdf:RDF></metadata><defs
     id="defs6" /><g
     transform="matrix(1.25,0,0,-1.25,0,320)"
     id="g10"><path
       id="path12"
       style="fill:#f2f2f2;fill-opacity:1;fill-rule:nonzero;stroke:none"
       d="m 172,84 -88,0 0,88 88,0 0,-88 z m -92,-4 96,0 0,96 -96,0 0,-96 z" /><g
       transform="translate(104,108)"
       id="g14"><path
         id="path16"
         style="fill:#f2f2f2;fill-opacity:1;fill-rule:nonzero;stroke:none"
         d="m 0,0 0,4 0,4 0,4 0,4 0,4 0,4 0,4 0,4 0,4 0,4 0,4 4,0 4,0 4,0 4,0 4,0 4,0 4,0 4,0 4,0 4,0 4,0 4,0 0,-4 0,-4 0,-4 0,-4 0,-4 0,-4 0,-4 0,-4 0,-4 0,-4 0,-4 0,-4 -4,0 -4,0 -4,0 -4,0 -4,0 -4,0 -4,0 -4,0 -4,0 -4,0 -4,0 -4,0 0,4 z m 0,-8 0,-4 4,0 0,4 4,0 0,-4 4,0 0,4 4,0 0,-4 4,0 0,4 4,0 0,-4 4,0 0,4 4,0 0,-4 4,0 0,4 4,0 0,-4 4,0 0,4 4,0 0,-4 4,0 0,4 0,4 4,0 0,4 -4,0 0,4 4,0 0,4 -4,0 0,4 4,0 0,4 -4,0 0,4 4,0 0,4 -4,0 0,4 4,0 0,4 -4,0 0,4 4,0 0,4 -4,0 0,4 4,0 0,4 -4,0 -4,0 0,4 -4,0 0,-4 -4,0 0,4 -4,0 0,-4 -4,0 0,4 -4,0 0,-4 -4,0 0,4 -4,0 0,-4 -4,0 0,4 -4,0 0,-4 -4,0 0,4 -4,0 0,-4 -4,0 0,4 -4,0 0,-4 0,-4 -4,0 0,-4 4,0 0,-4 -4,0 0,-4 4,0 0,-4 -4,0 0,-4 4,0 0,-4 -4,0 0,-4 4,0 0,-4 -4,0 0,-4 4,0 0,-4 -4,0 0,-4 4,0 0,-4 -4,0 0,-4 4,0 4,0 z" /></g></g></svg>