<?xml version="1.0" encoding="UTF-8" standalone="no"?>
<svg
   xmlns:dc="http://purl.org/dc/elements/1.1/"
   xmlns:cc="http://creativecommons.org/ns#"
   xmlns:rdf="http://www.w3.org/1999/02/22-rdf-syntax-ns#"
   xmlns:svg="http://www.w3.org/2000/svg"
   xmlns="http://www.w3.org/2000/svg"
   viewBox="0 0 320 320"
   height="320"
   width="320"
   xml:space="preserve"
   version="1.1"
   id="svg2"><metadata
     id="metadata8"><rdf:RDF><cc:Work
         rdf:about=""><dc:format>image/svg+xml</dc:format><dc:type
           rdf:resource="http://purl.org/dc/dcmitype/StillImage" /></cc:Work></rdf:RDF></metadata><defs
     id="defs6"><clipPath
       id="clipPath16"
       clipPathUnits="userSpaceOnUse"><path
         id="path18"
         d="M 0,256 256,256 256,0 0,0 0,256 Z" /></clipPath></defs><g
     transform="matrix(1.25,0,0,-1.25,0,320)"
     id="g10"><g
       id="g12"><g
         clip-path="url(#clipPath16)"
         id="g14"><g
           transform="translate(128,152)"
           id="g20"><path
             id="path22"
             style="fill:#f2f2f2;fill-opacity:1;fill-rule:nonzero;stroke:none"
             d="m 0,0 c -19.146,0 -32.801,-5.486 -45.657,-18.344 -3.118,-3.118 -3.118,-8.193 0,-11.312 C -32.801,-42.514 -19.147,-48 0,-48 c 19.146,0 32.801,5.486 45.657,18.344 1.511,1.51 2.343,3.519 2.343,5.656 0,2.137 -0.832,4.146 -2.344,5.657 C 32.801,-5.486 19.146,0 0,0 m 0,-4 c 17.984,0 30.793,-5.135 42.828,-17.172 1.563,-1.562 1.563,-4.094 0,-5.656 C 30.793,-38.865 17.984,-44 0,-44 c -17.984,0 -30.793,5.135 -42.828,17.172 -1.563,1.562 -1.563,4.094 0,5.656 C -30.793,-9.135 -17.984,-4 0,-4" /></g><g
           transform="translate(128,144)"
           id="g24"><path
             id="path26"
             style="fill:#f2f2f2;fill-opacity:1;fill-rule:nonzero;stroke:none"
             d="M 0,0 C -15.388,0 -26.349,-3.889 -36.65,-13.004 L -40.036,-16 -36.65,-18.996 C -26.349,-28.11 -15.388,-32 0,-32 c 15.388,0 26.349,3.89 36.65,13.004 L 40.036,-16 36.65,-13.004 C 26.349,-3.889 15.388,0 0,0 m 0,-4 c 14.294,0 24.432,-3.534 34,-12 -9.568,-8.466 -19.706,-12 -34,-12 -14.294,0 -24.432,3.534 -34,12 9.568,8.466 19.706,12 34,12" /></g><g
           transform="translate(128,140.0825)"
           id="g28"><path
             id="path30"
             style="fill:#f2f2f2;fill-opacity:1;fill-rule:nonzero;stroke:none"
             d="m 0,0 c -6.617,0 -12,-5.383 -12,-12 0,-6.617 5.383,-12 12,-12 6.617,0 12,5.383 12,12 C 12,-5.383 6.617,0 0,0 m 0,-4 c 4.418,0 8,-3.582 8,-8 0,-4.418 -3.582,-8 -8,-8 -4.418,0 -8,3.582 -8,8 0,4.418 3.582,8 8,8" /></g><path
           id="path32"
           style="fill:#f2f2f2;fill-opacity:1;fill-rule:nonzero;stroke:none"
           d="m 172,84 -88,0 0,88 88,0 0,-88 z m -92,-4 96,0 0,96 -96,0 0,-96 z" /></g></g></g></svg>