<?xml version="1.0" encoding="UTF-8" standalone="no"?>
<svg
   xmlns:dc="http://purl.org/dc/elements/1.1/"
   xmlns:cc="http://creativecommons.org/ns#"
   xmlns:rdf="http://www.w3.org/1999/02/22-rdf-syntax-ns#"
   xmlns:svg="http://www.w3.org/2000/svg"
   xmlns="http://www.w3.org/2000/svg"
   viewBox="0 0 245.33333 245.33333"
   height="245.33333"
   width="245.33333"
   xml:space="preserve"
   id="svg2"
   version="1.1"><metadata
     id="metadata8"><rdf:RDF><cc:Work
         rdf:about=""><dc:format>image/svg+xml</dc:format><dc:type
           rdf:resource="http://purl.org/dc/dcmitype/StillImage" /></cc:Work></rdf:RDF></metadata><defs
     id="defs6"><clipPath
       id="clipPath18"
       clipPathUnits="userSpaceOnUse"><path
         id="path16"
         d="M 0,256 H 256 V 0 H 0 Z" /></clipPath></defs><g
     transform="matrix(1.3333333,0,0,-1.3333333,-47.999999,293.33333)"
     id="g10"><g
       id="g12"><g
         clip-path="url(#clipPath18)"
         id="g14"><g
           transform="translate(128,196)"
           id="g20"><path
             id="path22"
             style="fill:#f2f2f2;fill-opacity:1;fill-rule:nonzero;stroke:none"
             d="m 0,0 c -15.439,0 -28,-12.561 -28,-28 0,-15.439 12.561,-28 28,-28 15.439,0 28,12.561 28,28 C 28,-12.561 15.439,0 0,0 m 0,-4 c 13.255,0 24,-10.745 24,-24 0,-13.255 -10.745,-24 -24,-24 -13.255,0 -24,10.745 -24,24 0,13.255 10.745,24 24,24" /></g><g
           transform="translate(80,156)"
           id="g24"><path
             id="path26"
             style="fill:#f2f2f2;fill-opacity:1;fill-rule:nonzero;stroke:none"
             d="m 0,0 c -15.439,0 -28,-12.561 -28,-28 0,-15.439 12.561,-28 28,-28 15.439,0 28,12.561 28,28 C 28,-12.561 15.439,0 0,0 m 0,-4 c 13.255,0 24,-10.745 24,-24 0,-13.255 -10.745,-24 -24,-24 -13.255,0 -24,10.745 -24,24 0,13.255 10.745,24 24,24" /></g><g
           transform="translate(128,116)"
           id="g28"><path
             id="path30"
             style="fill:#f2f2f2;fill-opacity:1;fill-rule:nonzero;stroke:none"
             d="m 0,0 c -15.439,0 -28,-12.561 -28,-28 0,-15.439 12.561,-28 28,-28 15.439,0 28,12.561 28,28 C 28,-12.561 15.439,0 0,0 m 0,-4 c 13.255,0 24,-10.745 24,-24 0,-13.255 -10.745,-24 -24,-24 -13.255,0 -24,10.745 -24,24 0,13.255 10.745,24 24,24" /></g><g
           transform="translate(176,156)"
           id="g32"><path
             id="path34"
             style="fill:#f2f2f2;fill-opacity:1;fill-rule:nonzero;stroke:none"
             d="m 0,0 c -15.439,0 -28,-12.561 -28,-28 0,-15.439 12.561,-28 28,-28 15.439,0 28,12.561 28,28 C 28,-12.561 15.439,0 0,0 m 0,-4 c 13.255,0 24,-10.745 24,-24 0,-13.255 -10.745,-24 -24,-24 -13.255,0 -24,10.745 -24,24 0,13.255 10.745,24 24,24" /></g><path
           id="path36"
           style="fill:#f2f2f2;fill-opacity:1;fill-rule:nonzero;stroke:none"
           d="M 220,220 H 36 V 36 H 220 Z M 216,40 H 40 v 176 h 176 z" /></g></g></g></svg>