<?xml version="1.0" encoding="utf-8"?>
<!-- Generator: Adobe Illustrator 24.2.1, SVG Export Plug-In . SVG Version: 6.00 Build 0)  -->
<svg version="1.1"
	 id="svg2" xmlns:cc="http://creativecommons.org/ns#" xmlns:dc="http://purl.org/dc/elements/1.1/" xmlns:rdf="http://www.w3.org/1999/02/22-rdf-syntax-ns#" xmlns:svg="http://www.w3.org/2000/svg"
	 xmlns="http://www.w3.org/2000/svg" xmlns:xlink="http://www.w3.org/1999/xlink" x="0px" y="0px" viewBox="0 0 256 256"
	 style="enable-background:new 0 0 256 256;" xml:space="preserve">
<style type="text/css">
	.st0{fill:#FFFFFF;}
</style>
<g id="g10" transform="matrix(1.3333333,0,0,-1.3333333,-10.666666,330.66666)">
	<path id="path12" class="st0" d="M191,65H17v174h174V65z M191,242H17h-3v-3V65v-3h3h174h3v3v174v3H191z"/>
	<g>
		<g>
			<path class="st0" d="M109.1,172.6c0,0-0.1-24,0-24l5.1,3.8l-0.1,20.1L109.1,172.6z"/>
			<path class="st0" d="M149.5,177.3l7.2,5.8H136l-0.6-2l-0.8,2h-13.5l-0.4-0.8l-1,0.8h-16.5l-2.5-2.2l-2.2,2H81.7l-3.1-2.1
				l-3.4,2.3H50.8l4.7-5.3v-47.1l-3.2-9.6c0,0,27.4,20.8,28.2,21.5l9.3-6.9l10.9,8.5c0.6-0.4,10.8-8.3,10.8-8.3s8,6,9.9,7.4
				c0.6-0.5,29.8-22.1,29.8-22.1l-1.8,8.8L149.5,177.3L149.5,177.3z M57.6,128.3c-0.1-0.1,0.6,1.6,0.6,1.6v48.9l-1.2,1.3h17.4v-0.1
				l3.5-2.3v-31.9l1.2-1C79.1,144.8,57.7,128.4,57.6,128.3z M99.8,162.4v-15.7l-5-4c-2.7-2.2-5-4-5-4c-0.1,0-0.9,0.6-1.9,1.4
				c-1,0.8-3.3,2.6-5.2,4l-3.3,2.6v15.7v15.7l1.5,1l1.5,1h14.7l1.3-1l1.3-1v-15.7H99.8z M121.9,146.8l-10.3-7.9c0,0-9.9,7.9-9.9,7.9
				v31.2h-0.1l2.4,2.1h14.7l3.2-2.1L121.9,146.8L121.9,146.8z M146.7,129.3c0.2-0.8,1.3-3.2,1.3-3.2l-9.7,7.3l1,1v22.3l-4.5-18.1
				l-4.8,20.7v-19.6c0,0-7.6,6.2-7.6,6.2l1.2,1.1v31.5l-1.2,1.6l10.2-0.2l2.6-9.2l2.8,9.2h10.9l-2.2-1.6
				C146.7,178.5,146.5,129.9,146.7,129.3z"/>
			<polygon class="st0" points="65.7,148.5 70.6,152.5 70.6,172.6 65.7,172.6 			"/>
			<path class="st0" d="M87.3,172.5l-0.1-20.1c0,0,5-4,5.1-4l-0.1,24L87.3,172.5L87.3,172.5z"/>
		</g>
		<path class="st0" d="M101.6,137.9l8.2-6.9v-4.6l-3.5-2.9l3.5-2.9V116l-8.2-6.8l-7.8,6.5v2.6l4.2,3.3v-2.2l3.4-2.8l3.2,2.3l-4,2.9
			v3.4l4,2.9l-3.2,2.3l-3.4-2.8v-2.2l-4.2,3.3v2.6L101.6,137.9 M101.6,141.2l-10.2-8.6v-4.9l5.1-4.1l0.1-0.1l-0.1-0.1l-5.1-4.1v-4.9
			l10.2-8.6l10.8,9v6.9l-2.1,1.7l2.1,1.7v6.9L101.6,141.2L101.6,141.2z"/>
	</g>
</g>
</svg>
