<?xml version="1.0" encoding="utf-8"?>
<!-- Generator: Adobe Illustrator 24.2.1, SVG Export Plug-In . SVG Version: 6.00 Build 0)  -->
<svg version="1.1"
	 id="svg2" xmlns:cc="http://creativecommons.org/ns#" xmlns:dc="http://purl.org/dc/elements/1.1/" xmlns:rdf="http://www.w3.org/1999/02/22-rdf-syntax-ns#" xmlns:svg="http://www.w3.org/2000/svg"
	 xmlns="http://www.w3.org/2000/svg" xmlns:xlink="http://www.w3.org/1999/xlink" x="0px" y="0px" viewBox="0 0 256 256"
	 style="enable-background:new 0 0 256 256;" xml:space="preserve">
<style type="text/css">
	.st0{fill:#FFFFFF;}
</style>
<g id="g10" transform="matrix(1.3333333,0,0,-1.3333333,-10.666666,330.66666)">
	<path id="path12" class="st0" d="M191,65H17v174h174V65z M191,242H17h-3v-3V65v-3h3h174h3v3v174v3H191z"/>
	<g>
		<path class="st0" d="M98.8,166c0,0-0.1-19.5,0-19.5l4.2,3.1l-0.1,16.4L98.8,166z"/>
		<path class="st0" d="M131.6,169.8l5.9,4.7h-16.8l-0.5-1.7l-0.6,1.7h-11l-0.4-0.6l-0.9,0.6H93.8l-2-1.8l-1.8,1.6H76.5l-2.6-1.7
			l-2.8,1.9H51.3l3.9-4.3V132l-2.6-7.8c0,0,22.2,17,23,17.5l7.6-5.6l8.9,6.9c0.5-0.4,8.8-6.8,8.8-6.8s6.5,4.9,8,6
			c0.5-0.5,24.3-18,24.3-18l-1.5,7.1V169.8z M56.9,130c-0.1-0.1,0.5,1.4,0.5,1.4v39.8l-1,1.1h14.1v-0.1l2.9-1.9v-26l1-0.9
			C74.3,143.4,57,130.1,56.9,130z M91.2,157.8V145l-4-3.2c-2.2-1.8-4.1-3.2-4.1-3.2c-0.1,0-0.8,0.5-1.5,1.2
			c-0.8,0.6-2.7,2.1-4.2,3.2l-2.7,2.1v12.7v12.7l1.2,0.9l1.2,0.9h12l1.1-0.9l1.1-0.9L91.2,157.8L91.2,157.8z M109.2,145.1l-8.4-6.4
			c0,0-8,6.4-8,6.5v25.4h-0.1l2,1.7h12l2.6-1.7V145.1z M129.3,130.8c0.1-0.7,1.1-2.6,1.1-2.6l-7.9,6l0.8,0.8v18.2l-3.7-14.7
			l-3.9,16.8v-16c0,0-6.2,5-6.2,5.1l1,0.9v25.6l-1,1.4l8.3-0.1l2.2-7.5l2.3,7.5h8.8l-1.8-1.4C129.3,170.8,129.2,131.3,129.3,130.8z"
			/>
		<polygon class="st0" points="63.5,146.5 67.4,149.6 67.4,166 63.5,166 		"/>
		<path class="st0" d="M81,165.9L81,149.6c0,0,4.1-3.2,4.2-3.2l-0.1,19.6C85.1,165.9,81,165.9,81,165.9z"/>
		<path class="st0" d="M152.6,169.8c0,2.3,4,4.8,4,4.8h0.1h-16.9l-5.6-4.6v-3.6l0,0l1.2-1.1l-1.2-1.1l0,0v-1.7v-6.6h22.4
			c0,0-4,2.5-4,4.8v2.9l-1.9,1.6l1.9,1.6V169.8z M150.1,170.8c0-0.8,0-2.6,0-2.6l-3.2-2.8l3.2-2.8c0,0,0-1.5,0-2.5s1.4-1.6,1.4-1.6
			h-14.8v4h7.2l-3.9,2.8l3.9,2.8h-7.2v1.1l3.5,2.8h11.4C151.6,172.1,150.1,171.6,150.1,170.8z"/>
	</g>
</g>
</svg>
