<?xml version="1.0" encoding="UTF-8" standalone="no"?>
<svg
   xmlns:dc="http://purl.org/dc/elements/1.1/"
   xmlns:cc="http://creativecommons.org/ns#"
   xmlns:rdf="http://www.w3.org/1999/02/22-rdf-syntax-ns#"
   xmlns:svg="http://www.w3.org/2000/svg"
   xmlns="http://www.w3.org/2000/svg"
   viewBox="0 0 320 229.33333"
   height="229.33333"
   width="320"
   xml:space="preserve"
   id="svg2"
   version="1.1"><metadata
     id="metadata8"><rdf:RDF><cc:Work
         rdf:about=""><dc:format>image/svg+xml</dc:format><dc:type
           rdf:resource="http://purl.org/dc/dcmitype/StillImage" /></cc:Work></rdf:RDF></metadata><defs
     id="defs6" /><g
     transform="matrix(1.3333333,0,0,-1.3333333,-10.666666,282.66666)"
     id="g10"><path
       id="path12"
       style="fill:#ffffff;fill-opacity:1;fill-rule:nonzero;stroke:none"
       d="M 244,44 H 12 V 192 H 244 Z M 220,196 H 36 v 12 h 184 z m 24,0 h -16 v 12 h -4 v 4 H 32 v -4 H 28 V 196 H 12 8 V 192 44 40 h 4 232 4 v 4 148 4 z" /><path
       id="path14"
       style="fill:#ffffff;fill-opacity:1;fill-rule:nonzero;stroke:none"
       d="M 28,168 H 228 V 56 H 28 Z M 24,52 H 232 V 172 H 24 Z" /><path
       id="path16"
       style="fill:#ffffff;fill-opacity:1;fill-rule:nonzero;stroke:none"
       d="M 220,88 H 36 v 48 H 220 Z M 36,160 H 220 V 140 H 36 Z m 0,4 h -4 v -4 -20 -4 -52 h 192 v 52 4 20 4 h -4 z" /><path
       id="path18"
       style="fill:#ffffff;fill-opacity:1;fill-rule:nonzero;stroke:none"
       d="M 36,76 H 220 V 64 H 36 Z M 32,60 H 224 V 80 H 32 Z" /></g></svg>