<?xml version="1.0" encoding="UTF-8" standalone="no"?>
<svg
   xmlns:dc="http://purl.org/dc/elements/1.1/"
   xmlns:cc="http://creativecommons.org/ns#"
   xmlns:rdf="http://www.w3.org/1999/02/22-rdf-syntax-ns#"
   xmlns:svg="http://www.w3.org/2000/svg"
   xmlns="http://www.w3.org/2000/svg"
   viewBox="0 0 320 245.33333"
   height="245.33333"
   width="320"
   xml:space="preserve"
   id="svg2"
   version="1.1"><metadata
     id="metadata8"><rdf:RDF><cc:Work
         rdf:about=""><dc:format>image/svg+xml</dc:format><dc:type
           rdf:resource="http://purl.org/dc/dcmitype/StillImage" /></cc:Work></rdf:RDF></metadata><defs
     id="defs6"><clipPath
       id="clipPath18"
       clipPathUnits="userSpaceOnUse"><path
         id="path16"
         d="M 0,256 H 256 V 0 H 0 Z" /></clipPath></defs><g
     transform="matrix(1.3333333,0,0,-1.3333333,-10.666666,293.33333)"
     id="g10"><g
       id="g12"><g
         clip-path="url(#clipPath18)"
         id="g14"><path
           id="path20"
           style="fill:#ffffff;fill-opacity:1;fill-rule:nonzero;stroke:none"
           d="m 88,172 h 80 V 112 H 88 Z m -2,-64 h 84 c 1.104,0 2,0.896 2,2 v 64 c 0,1.104 -0.896,2 -2,2 H 86 c -1.104,0 -2,-0.896 -2,-2 v -64 c 0,-1.104 0.896,-2 2,-2" /><path
           id="path22"
           style="fill:#ffffff;fill-opacity:1;fill-rule:nonzero;stroke:none"
           d="m 172,52 h -12 v 40 h 12 z m -72,0 v 4 32 4 h 56 V 88 56 52 Z M 84,92 H 96 V 52 H 84 Z m 92,4 H 80 V 48 h 96 z" /><path
           id="path24"
           style="fill:#ffffff;fill-opacity:1;fill-rule:nonzero;stroke:none"
           d="M 172,196 H 84 v 12 h 88 z m 4,16 H 80 v -20 h 96 z" /><path
           id="path26"
           style="fill:#ffffff;fill-opacity:1;fill-rule:nonzero;stroke:none"
           d="M 100,204 H 88 v -4 h 12 z" /><path
           id="path28"
           style="fill:#ffffff;fill-opacity:1;fill-rule:nonzero;stroke:none"
           d="m 168,204 h -12 v -4 h 12 z" /><path
           id="path30"
           style="fill:#ffffff;fill-opacity:1;fill-rule:nonzero;stroke:none"
           d="m 120,204 h -8 v -4 h 8 z" /><path
           id="path32"
           style="fill:#ffffff;fill-opacity:1;fill-rule:nonzero;stroke:none"
           d="m 144,204 h -8 v -4 h 8 z" /><path
           id="path34"
           style="fill:#ffffff;fill-opacity:1;fill-rule:nonzero;stroke:none"
           d="M 66,78 H 22 v 48 H 66 Z M 22,178 H 66 V 130 H 22 Z m 48,-52 v 4 52 H 18 v -52 -4 -52 h 52 z" /><path
           id="path36"
           style="fill:#ffffff;fill-opacity:1;fill-rule:nonzero;stroke:none"
           d="m 44,172 h 4 v -4 h -4 z m -4,-8 h 12 v 12 H 40 Z" /><path
           id="path38"
           style="fill:#ffffff;fill-opacity:1;fill-rule:nonzero;stroke:none"
           d="m 44,156 h 4 v -4 h -4 z m -4,-8 h 12 v 12 H 40 Z" /><path
           id="path40"
           style="fill:#ffffff;fill-opacity:1;fill-rule:nonzero;stroke:none"
           d="m 44,140 h 4 v -4 h -4 z m -4,-8 h 12 v 12 H 40 Z" /><path
           id="path42"
           style="fill:#ffffff;fill-opacity:1;fill-rule:nonzero;stroke:none"
           d="m 48,116 h -4 v 4 h 4 z m 4,8 H 40 v -12 h 12 z" /><path
           id="path44"
           style="fill:#ffffff;fill-opacity:1;fill-rule:nonzero;stroke:none"
           d="m 56,104 h 4 v -4 h -4 z m -4,-8 h 12 v 12 H 52 Z" /><path
           id="path46"
           style="fill:#ffffff;fill-opacity:1;fill-rule:nonzero;stroke:none"
           d="m 36,100 h -4 v 4 h 4 z m 4,8 H 28 V 96 h 12 z" /><path
           id="path48"
           style="fill:#ffffff;fill-opacity:1;fill-rule:nonzero;stroke:none"
           d="m 44,88 h 4 V 84 H 44 Z M 40,80 H 52 V 92 H 40 Z" /><path
           id="path50"
           style="fill:#ffffff;fill-opacity:1;fill-rule:nonzero;stroke:none"
           d="m 190,178 h 44 V 130 H 190 Z M 234,78 h -44 v 48 h 44 z m -48,52 v -4 -52 h 52 v 52 4 52 h -52 z" /><path
           id="path52"
           style="fill:#ffffff;fill-opacity:1;fill-rule:nonzero;stroke:none"
           d="m 212,168 h -4 v 4 h 4 z m 4,8 h -12 v -12 h 12 z" /><path
           id="path54"
           style="fill:#ffffff;fill-opacity:1;fill-rule:nonzero;stroke:none"
           d="m 220,156 h 4 v -4 h -4 z m -4,-8 h 12 v 12 h -12 z" /><path
           id="path56"
           style="fill:#ffffff;fill-opacity:1;fill-rule:nonzero;stroke:none"
           d="m 200,152 h -4 v 4 h 4 z m 4,8 h -12 v -12 h 12 z" /><path
           id="path58"
           style="fill:#ffffff;fill-opacity:1;fill-rule:nonzero;stroke:none"
           d="m 208,140 h 4 v -4 h -4 z m -4,-8 h 12 v 12 h -12 z" /><path
           id="path60"
           style="fill:#ffffff;fill-opacity:1;fill-rule:nonzero;stroke:none"
           d="m 212,116 h -4 v 4 h 4 z m 4,8 h -12 v -12 h 12 z" /><path
           id="path62"
           style="fill:#ffffff;fill-opacity:1;fill-rule:nonzero;stroke:none"
           d="m 212,100 h -4 v 4 h 4 z m 4,8 H 204 V 96 h 12 z" /><path
           id="path64"
           style="fill:#ffffff;fill-opacity:1;fill-rule:nonzero;stroke:none"
           d="m 212,84 h -4 v 4 h 4 z m 4,8 H 204 V 80 h 12 z" /><g
           transform="translate(244,70)"
           id="g66"><path
             id="path68"
             style="fill:#ffffff;fill-opacity:1;fill-rule:nonzero;stroke:none"
             d="m 0,0 c 0,-1.104 -0.896,-2 -2,-2 h -58 v 120 h 58 c 1.104,0 2,-0.896 2,-2 z m -64,118 h -104 v 28 h 104 z m 0,-84 h -104 v 80 h 104 z m 0,-64 h -104 v 60 h 104 z m -108,28 h -58 c -1.104,0 -2,0.896 -2,2 v 116 c 0,1.104 0.896,2 2,2 h 58 z M -2,122 h -58 v 24 4 h -4 -104 -4 v -4 -24 h -58 c -3.309,0 -6,-2.691 -6,-6 V 0 c 0,-3.309 2.691,-6 6,-6 h 58 v -24 -4 h 4 104 4 v 4 24 h 58 c 3.309,0 6,2.691 6,6 v 116 c 0,3.309 -2.691,6 -6,6" /></g></g></g></g></svg>