<?xml version="1.0" encoding="UTF-8" standalone="no"?>
<svg
   xmlns:dc="http://purl.org/dc/elements/1.1/"
   xmlns:cc="http://creativecommons.org/ns#"
   xmlns:rdf="http://www.w3.org/1999/02/22-rdf-syntax-ns#"
   xmlns:svg="http://www.w3.org/2000/svg"
   xmlns="http://www.w3.org/2000/svg"
   viewBox="0 0 320 320"
   height="320"
   width="320"
   xml:space="preserve"
   version="1.1"
   id="svg2"><metadata
     id="metadata8"><rdf:RDF><cc:Work
         rdf:about=""><dc:format>image/svg+xml</dc:format><dc:type
           rdf:resource="http://purl.org/dc/dcmitype/StillImage" /></cc:Work></rdf:RDF></metadata><defs
     id="defs6"><clipPath
       id="clipPath16"
       clipPathUnits="userSpaceOnUse"><path
         id="path18"
         d="M 0,256 256,256 256,0 0,0 0,256 Z" /></clipPath></defs><g
     transform="matrix(1.25,0,0,-1.25,0,320)"
     id="g10"><g
       id="g12"><g
         clip-path="url(#clipPath16)"
         id="g14"><g
           transform="translate(244,216)"
           id="g20"><path
             id="path22"
             style="fill:#f2f2f2;fill-opacity:1;fill-rule:nonzero;stroke:none"
             d="m 0,0 -20,0 0,16 0,2 c 0,1.104 0.896,2 2,2 l 16,0 c 1.104,0 2,-0.896 2,-2 L 0,0 Z m 0,-8 -20,0 0,4 16,0 4,0 0,-4 z m 0,-8 -20,0 0,4 16,0 4,0 0,-4 z m 0,-8 -20,0 0,4 16,0 4,0 0,-4 z m 0,-8 -20,0 0,4 16,0 4,0 0,-4 z m 0,-8 -20,0 0,4 16,0 4,0 0,-4 z m 0,-143.753 c 0,-0.164 -0.02,-0.327 -0.06,-0.485 l -3.561,-14.247 C -3.844,-199.375 -4.644,-200 -5.562,-200 l -220.876,0 c -0.918,0 -1.718,0.625 -1.941,1.515 l -3.561,14.247 c -0.04,0.158 -0.06,0.321 -0.06,0.485 l 0,139.753 4,0 16,0 0,-40 c 0,-4.411 3.589,-8 8,-8 l 176,0 c 4.411,0 8,3.589 8,8 l 0,40 16,0 4,0 0,-139.753 z M -232,-36 l 4,0 16,0 0,-4 -20,0 0,4 z m 0,8 4,0 16,0 0,-4 -20,0 0,4 z m 0,8 4,0 16,0 0,-4 -20,0 0,4 z m 0,8 4,0 16,0 0,-4 -20,0 0,4 z m 0,8 4,0 16,0 0,-4 -20,0 0,4 z m 0,22 c 0,1.104 0.896,2 2,2 l 16,0 c 1.104,0 2,-0.896 2,-2 l 0,-2 0,-16 -20,0 0,18 z m 52,-2 -28,-24 0,24 28,0 z m 156,0 0,-100 c 0,-2.209 -1.791,-4 -4,-4 l -176,0 c -2.209,0 -4,1.791 -4,4 l 0,70.732 2.603,2.231 28,24 L -173.854,16 -24,16 Z m 22,8 -16,0 c -2.607,0 -4.832,-1.672 -5.657,-4 L -24,20 -169.187,20 -180,20 l -28,0 -0.343,0 c -0.825,2.328 -3.05,4 -5.657,4 l -16,0 c -3.309,0 -6,-2.691 -6,-6 l 0,-18.029 0,-4 0,-4 0,-4 0,-4 0,-4 0,-4 0,-4 0,-4 0,-4 0,-4 0,-4 0,-139.724 c 0,-0.49 0.06,-0.98 0.179,-1.456 l 3.562,-14.246 c 0.669,-2.676 3.062,-4.545 5.821,-4.545 l 220.876,0 c 2.758,0 5.152,1.869 5.822,4.545 l 3.561,14.247 c 0.118,0.475 0.179,0.965 0.179,1.455 l 0,139.724 0,4 0,4 0,4 0,4 0,4 0,4 0,4 0,4 0,4 0,4 0,4 L 4,18 c 0,3.309 -2.691,6 -6,6" /></g></g></g></g></svg>