<?xml version="1.0" encoding="UTF-8" standalone="no"?>
<svg
   xmlns:dc="http://purl.org/dc/elements/1.1/"
   xmlns:cc="http://creativecommons.org/ns#"
   xmlns:rdf="http://www.w3.org/1999/02/22-rdf-syntax-ns#"
   xmlns:svg="http://www.w3.org/2000/svg"
   xmlns="http://www.w3.org/2000/svg"
   viewBox="0 0 320 320"
   height="320"
   width="320"
   xml:space="preserve"
   version="1.1"
   id="svg2"><metadata
     id="metadata8"><rdf:RDF><cc:Work
         rdf:about=""><dc:format>image/svg+xml</dc:format><dc:type
           rdf:resource="http://purl.org/dc/dcmitype/StillImage" /></cc:Work></rdf:RDF></metadata><defs
     id="defs6" /><g
     transform="matrix(1.25,0,0,-1.25,0,320)"
     id="g10"><g
       transform="translate(244,36)"
       id="g12"><path
         id="path14"
         style="fill:#f2f2f2;fill-opacity:1;fill-rule:nonzero;stroke:none"
         d="m 0,0 -4,0 0,84 0,4 0,64 0,4 -4,0 -216,0 -4,0 0,-4 0,-64 0,-4 0,-84 -4,0 0,184 L 0,184 0,0 Z m -8,88 -216,0 0,64 216,0 0,-64 z m -216,-4 216,0 0,-84 -216,0 0,84 z m 224,104 -232,0 -4,0 0,-4 0,-184 0,-4 4,0 4,0 4,0 216,0 4,0 4,0 4,0 0,4 0,184 0,4 -4,0 z" /></g><path
       id="path16"
       style="fill:#f2f2f2;fill-opacity:1;fill-rule:nonzero;stroke:none"
       d="m 200,132 -8,0 0,8 8,0 0,-8 z m -8,20 8,0 0,-8 -8,0 0,8 z m 0,12 8,0 0,-8 -8,0 0,8 z m 0,12 8,0 0,-8 -8,0 0,8 z m 12,0 8,0 0,-8 -8,0 0,8 z m 12,0 8,0 0,-8 -8,0 0,8 z m 8,-20 -8,0 0,8 8,0 0,-8 z m 0,-12 -8,0 0,8 8,0 0,-8 z m 0,-12 -8,0 0,8 8,0 0,-8 z m -20,32 8,0 0,-8 -8,0 0,8 z m 0,-12 8,0 0,-8 -8,0 0,8 z m 8,-20 -8,0 0,8 8,0 0,-8 z m -12,-4 4,0 8,0 4,0 8,0 4,0 0,4 0,8 0,4 0,8 0,4 0,8 0,4 0,8 0,4 -4,0 -8,0 -4,0 -8,0 -4,0 -8,0 -4,0 0,-4 0,-8 0,-4 0,-8 0,-4 0,-8 0,-4 0,-8 0,-4 4,0 8,0 z" /><path
       id="path18"
       style="fill:#f2f2f2;fill-opacity:1;fill-rule:nonzero;stroke:none"
       d="m 156,176 8,0 0,-8 -8,0 0,8 z m 20,-8 -8,0 0,8 8,0 0,-8 z m 2,-4 2,0 0,2 0,12 0,2 -2,0 -24,0 -2,0 0,-2 0,-12 0,-2 2,0 24,0 z" /><path
       id="path20"
       style="fill:#f2f2f2;fill-opacity:1;fill-rule:nonzero;stroke:none"
       d="m 156,158 20,0 0,-8 -20,0 0,8 z m 22,-12 2,0 0,2 0,12 0,2 -2,0 -24,0 -2,0 0,-2 0,-12 0,-2 2,0 24,0 z" /><path
       id="path22"
       style="fill:#f2f2f2;fill-opacity:1;fill-rule:nonzero;stroke:none"
       d="m 156,140 20,0 0,-8 -20,0 0,8 z m 22,-12 2,0 0,2 0,12 0,2 -2,0 -24,0 -2,0 0,-2 0,-12 0,-2 2,0 24,0 z" /><path
       id="path24"
       style="fill:#f2f2f2;fill-opacity:1;fill-rule:nonzero;stroke:none"
       d="m 140,132 -108,0 0,32 108,0 0,-32 z m 4,36 -116,0 0,-40 116,0 0,40 z" /><g
       transform="translate(104,140)"
       id="g26"><path
         id="path28"
         style="fill:#f2f2f2;fill-opacity:1;fill-rule:nonzero;stroke:none"
         d="m 0,0 -64,0 0,16 20,0 0,-4 24,0 0,4 20,0 0,-16 z m 4,20 -72,0 0,-24 72,0 0,24 z" /></g><path
       id="path30"
       style="fill:#f2f2f2;fill-opacity:1;fill-rule:nonzero;stroke:none"
       d="m 236,216 -216,0 0,-4 216,0 0,4 z" /><path
       id="path32"
       style="fill:#f2f2f2;fill-opacity:1;fill-rule:nonzero;stroke:none"
       d="m 236,208 -216,0 0,-4 216,0 0,4 z" /></g></svg>