<?xml version="1.0" encoding="UTF-8" standalone="no"?>
<svg
   xmlns:dc="http://purl.org/dc/elements/1.1/"
   xmlns:cc="http://creativecommons.org/ns#"
   xmlns:rdf="http://www.w3.org/1999/02/22-rdf-syntax-ns#"
   xmlns:svg="http://www.w3.org/2000/svg"
   xmlns="http://www.w3.org/2000/svg"
   viewBox="0 0 320 320"
   height="320"
   width="320"
   xml:space="preserve"
   version="1.1"
   id="svg2"><metadata
     id="metadata8"><rdf:RDF><cc:Work
         rdf:about=""><dc:format>image/svg+xml</dc:format><dc:type
           rdf:resource="http://purl.org/dc/dcmitype/StillImage" /></cc:Work></rdf:RDF></metadata><defs
     id="defs6"><clipPath
       id="clipPath22"
       clipPathUnits="userSpaceOnUse"><path
         id="path24"
         d="M 0,256 256,256 256,0 0,0 0,256 Z" /></clipPath></defs><g
     transform="matrix(1.25,0,0,-1.25,0,320)"
     id="g10"><path
       id="path12"
       style="fill:#f2f2f2;fill-opacity:1;fill-rule:nonzero;stroke:none"
       d="m 120,56 -12,0 0,12 12,0 0,-12 z m -16,0 -12,0 0,12 12,0 0,-12 z m -16,0 -12,0 0,12 12,0 0,-12 z m -16,0 -12,0 0,12 12,0 0,-12 z m -16,0 -12,0 0,12 12,0 0,-12 z m 52,16 -4,0 -12,0 -4,0 -12,0 -4,0 -12,0 -4,0 -12,0 -4,0 0,-4 0,-12 0,-4 4,0 12,0 4,0 12,0 4,0 12,0 4,0 12,0 4,0 12,0 4,0 0,4 0,12 0,4 -4,0 -12,0 z" /><path
       id="path14"
       style="fill:#f2f2f2;fill-opacity:1;fill-rule:nonzero;stroke:none"
       d="m 152,76 64,0 0,-8 -64,0 0,8 z m -4,-12 72,0 0,16 -72,0 0,-16 z" /><path
       id="path16"
       style="fill:#f2f2f2;fill-opacity:1;fill-rule:nonzero;stroke:none"
       d="m 152,56 64,0 0,-8 -64,0 0,8 z m -4,-12 72,0 0,16 -72,0 0,-16 z" /><g
       id="g18"><g
         clip-path="url(#clipPath22)"
         id="g20"><g
           transform="translate(236,100)"
           id="g26"><path
             id="path28"
             style="fill:#f2f2f2;fill-opacity:1;fill-rule:nonzero;stroke:none"
             d="m 0,0 0,4 0,84 0,4 0,20 0,4 8,8 L 8,-68 0,0 Z m -219.502,-64 223.004,0 0.471,-4 -223.946,0 0.471,4 z m 3.502,180 0,-4 0,-20 0,-4 0,-84 0,-4 -8,-68 0,192 8,-8 z m 206,-16 -196,0 c -3.309,0 -6,-2.691 -6,-6 l 0,18 208,0 0,-18 c 0,3.309 -2.691,6 -6,6 m -198,-12 200,0 0,-2 c 0,-1.104 -0.896,-2 -2,-2 l -196,0 c -1.104,0 -2,0.896 -2,2 l 0,2 z m 200,4 -200,0 0,2 c 0,1.104 0.896,2 2,2 l 196,0 c 1.104,0 2,-0.896 2,-2 l 0,-2 z m -205.778,-144 15.556,28 94.222,0 0,-28 -109.778,0 z M -3.973,-0.468 3.031,-60 l -222.062,0 0.47,4 4.783,0 109.778,0 4,0 0,4 0,28 0,4 -4,0 -94.222,0 -2.354,0 -1.143,-2.058 -15.555,-28 -0.746,-1.34 5.993,50.93 0.027,0.234 0,0.234 208,0 0,-0.234 0.027,-0.234 z M -4,4 l -208,0 0,82 c 0,-3.309 2.691,-6 6,-6 l 196,0 c 3.309,0 6,2.691 6,6 L -4,4 Z m 0,113.657 0,-1.657 -208,0 0,1.657 -1.171,1.172 -5.172,5.171 220.686,0 -5.171,-5.171 L -4,117.657 Z M 6.672,128.329 6.343,128 l -228.686,0 -0.329,0.329 -5.328,0 0,-0.329 0,-4 0,-192 0,-4 4,0 232,0 4,0 0,4 0,192 0,4 0,0.329 -5.328,0 z" /></g><g
           transform="translate(152,92)"
           id="g30"><path
             id="path32"
             style="fill:#f2f2f2;fill-opacity:1;fill-rule:nonzero;stroke:none"
             d="M 0,0 72,0 76,4 0,4 0,0 Z" /></g><g
           transform="translate(152,84)"
           id="g34"><path
             id="path36"
             style="fill:#f2f2f2;fill-opacity:1;fill-rule:nonzero;stroke:none"
             d="M 0,0 64.421,0 68,4 0,4 0,0 Z" /></g></g></g></g></svg>