<?xml version="1.0" encoding="UTF-8" standalone="no"?>
<svg
   xmlns:dc="http://purl.org/dc/elements/1.1/"
   xmlns:cc="http://creativecommons.org/ns#"
   xmlns:rdf="http://www.w3.org/1999/02/22-rdf-syntax-ns#"
   xmlns:svg="http://www.w3.org/2000/svg"
   xmlns="http://www.w3.org/2000/svg"
   viewBox="0 0 320 320"
   height="320"
   width="320"
   xml:space="preserve"
   version="1.1"
   id="svg2"><metadata
     id="metadata8"><rdf:RDF><cc:Work
         rdf:about=""><dc:format>image/svg+xml</dc:format><dc:type
           rdf:resource="http://purl.org/dc/dcmitype/StillImage" /></cc:Work></rdf:RDF></metadata><defs
     id="defs6" /><g
     transform="matrix(1.25,0,0,-1.25,0,320)"
     id="g10"><g
       transform="translate(154.8301,160)"
       id="g12"><path
         id="path14"
         style="fill:#f2f2f2;fill-opacity:1;fill-rule:nonzero;stroke:none"
         d="M 0,0 -16.941,48 53.17,48 53.17,0 0,0 Z m 53.17,-16.8 -44,-35.2 21.177,-60 -8.086,0 -49.091,36 -49.091,-36 -8.086,0 21.177,60 -44,35.2 0,12.8 56,0 18.353,52 11.294,0 18.353,-52 56,0 0,-12.8 z m 0,-95.2 -18.582,0 -20.7,58.651 39.282,31.427 0,-90.078 z m -122.327,0 42.327,31.04 42.327,-31.04 -84.654,0 z m -37.673,0 0,90.078 39.282,-31.427 -20.701,-58.651 -18.581,0 z m 0,160 70.111,0 -16.941,-48 -53.17,0 0,48 z m 160,4 -71.523,0 -4.242,0 -8.47,0 -4.242,0 -71.523,0 -4,0 0,-4 0,-48 0,-4 0,-9.6 0,-5.123 0,-93.277 0,-4 4,0 17.17,0 4.242,0 4.043,0 6.764,0 95.562,0 6.765,0 4.042,0 4.242,0 17.17,0 4,0 0,4 0,93.277 0,5.123 0,9.6 0,4 0,48 0,4 -4,0 z" /></g></g></svg>