<?xml version="1.0" encoding="UTF-8" standalone="no"?>
<svg
   xmlns:dc="http://purl.org/dc/elements/1.1/"
   xmlns:cc="http://creativecommons.org/ns#"
   xmlns:rdf="http://www.w3.org/1999/02/22-rdf-syntax-ns#"
   xmlns:svg="http://www.w3.org/2000/svg"
   xmlns="http://www.w3.org/2000/svg"
   viewBox="0 0 309.33331 224"
   height="224"
   width="309.33331"
   xml:space="preserve"
   id="svg2"
   version="1.1"><metadata
     id="metadata8"><rdf:RDF><cc:Work
         rdf:about=""><dc:format>image/svg+xml</dc:format><dc:type
           rdf:resource="http://purl.org/dc/dcmitype/StillImage" /></cc:Work></rdf:RDF></metadata><defs
     id="defs6"><clipPath
       id="clipPath28"
       clipPathUnits="userSpaceOnUse"><path
         id="path26"
         d="M 0,256 H 256 V 0 H 0 Z" /></clipPath></defs><g
     transform="matrix(1.3333333,0,0,-1.3333333,-16,282.66666)"
     id="g10"><path
       id="path12"
       style="fill:#ffffff;fill-opacity:1;fill-rule:nonzero;stroke:none"
       d="m 48,84 h 160 v 4 H 48 Z" /><path
       id="path14"
       style="fill:#ffffff;fill-opacity:1;fill-rule:nonzero;stroke:none"
       d="m 48,76 h 160 v 4 H 48 Z" /><path
       id="path16"
       style="fill:#ffffff;fill-opacity:1;fill-rule:nonzero;stroke:none"
       d="m 48,68 h 160 v 4 H 48 Z" /><path
       id="path18"
       style="fill:#ffffff;fill-opacity:1;fill-rule:nonzero;stroke:none"
       d="m 48,60 h 160 v 4 H 48 Z" /><path
       id="path20"
       style="fill:#ffffff;fill-opacity:1;fill-rule:nonzero;stroke:none"
       d="m 48,52 h 160 v 4 H 48 Z" /><g
       id="g22"><g
         clip-path="url(#clipPath28)"
         id="g24"><g
           transform="translate(240,56)"
           id="g30"><path
             id="path32"
             style="fill:#ffffff;fill-opacity:1;fill-rule:nonzero;stroke:none"
             d="m 0,0 h -24 v 60 c 2.209,0 4,1.791 4,4 v 64 c 0,2.209 -1.791,4 -4,4 v 8 H 0 Z m -12,-8 h -200 v 4 h 16 V 60 H -28 V -4 h 16 z m -212,8 v 140 h 24 v -8 c -2.209,0 -4,-1.791 -4,-4 V 64 c 0,-2.209 1.791,-4 4,-4 V 0 Z m 192,128 h 8 V 64 h -176 v 64 h 8 z m -4,4 h -152 v 8 h 152 z m -80,20 c 64,0 104,-8 104,-8 h -16 v -12 h -4 v 12 h -160 v -12 h -4 v 12 h -16 c 0,0 32,8 96,8 M 0,144 h -8 v 3.279 l -3.216,0.643 C -11.619,148.003 -52.34,156 -116,156 c -63.759,0 -95.644,-7.788 -96.97,-8.119 L -216,147.123 V 144 h -8 c -2.209,0 -4,-1.791 -4,-4 V -4 h 12 v -4 -4 h 4 200 4 v 4 4 H 4 v 144 c 0,2.209 -1.791,4 -4,4" /></g><g
           transform="translate(188,104)"
           id="g34"><path
             id="path36"
             style="fill:#ffffff;fill-opacity:1;fill-rule:nonzero;stroke:none"
             d="m 0,0 v -4 -4 h -40 v 4 4 4 H 0 Z m -80,-4 h 36 v -4 h -36 z m -36,8 h 32 V -8 h -32 z m 72,-4 h -36 v 4 h 36 z M 0,8 h -40 -4 -36 -4 -32 -4 -20 V 4 h 20 V 0 h -20 v -4 h 20 v -4 h -20 v -4 h 20 4 32 4 36 4 40 4 16 v 4 H 4 v 4 H 20 V 0 H 4 V 4 H 20 V 8 H 4 Z" /></g></g></g></g></svg>