<?xml version="1.0" encoding="UTF-8" standalone="no"?>
<svg
   xmlns:dc="http://purl.org/dc/elements/1.1/"
   xmlns:cc="http://creativecommons.org/ns#"
   xmlns:rdf="http://www.w3.org/1999/02/22-rdf-syntax-ns#"
   xmlns:svg="http://www.w3.org/2000/svg"
   xmlns="http://www.w3.org/2000/svg"
   viewBox="0 0 320 320"
   height="320"
   width="320"
   xml:space="preserve"
   version="1.1"
   id="svg2"><metadata
     id="metadata8"><rdf:RDF><cc:Work
         rdf:about=""><dc:format>image/svg+xml</dc:format><dc:type
           rdf:resource="http://purl.org/dc/dcmitype/StillImage" /></cc:Work></rdf:RDF></metadata><defs
     id="defs6"><clipPath
       id="clipPath16"
       clipPathUnits="userSpaceOnUse"><path
         id="path18"
         d="M 0,256 256,256 256,0 0,0 0,256 Z" /></clipPath></defs><g
     transform="matrix(1.25,0,0,-1.25,0,320)"
     id="g10"><g
       id="g12"><g
         clip-path="url(#clipPath16)"
         id="g14"><g
           transform="translate(151.5107,191.2144)"
           id="g20"><path
             id="path22"
             style="fill:#f2f2f2;fill-opacity:1;fill-rule:nonzero;stroke:none"
             d="M 0,0 -2.801,0 -30.49,0 c -10.927,0 -19.977,-6.768 -20.601,-15.408 l -1.037,-14.358 -38.19,0 -2.482,0 -0.473,-2.437 -5.055,-26.065 c -0.997,-5.142 0.254,-10.158 3.524,-14.123 3.781,-4.583 9.858,-7.212 16.674,-7.212 l 22.401,0 -3.15,-43.599 -0.234,-3.226 3.236,0 38.546,0 c 7.154,0 13.685,2.785 18.391,7.843 4.493,4.829 6.707,11.094 6.233,17.643 l -1.542,21.339 43.088,0 3.65,0 -0.695,3.583 -5.542,28.578 c -1.922,9.912 -12.559,17.676 -24.215,17.676 l -19.887,0 L 0.202,-2.793 0,0 Z m -2.801,-3.01 2.151,-29.766 22.687,0 c 10.109,0 19.595,-6.657 21.26,-15.24 l 5.542,-28.577 -46.323,0 1.775,-24.566 c 0.866,-11.999 -8.792,-22.259 -21.622,-22.259 l -38.546,0 3.383,46.825 -25.636,0 c -11.425,0 -19.103,8.158 -17.243,17.752 l 5.055,26.065 40.99,0 1.24,17.151 c 0.512,7.092 8.382,12.615 17.598,12.615 l 27.689,0" /></g><g
           transform="translate(89.7056,155.7617)"
           id="g24"><path
             id="path26"
             style="fill:#f2f2f2;fill-opacity:1;fill-rule:nonzero;stroke:none"
             d="m 0,0 -5.583,-4.307 -15.05,-11.614 -2.711,-2.092 2.422,-2.42 12.474,-12.468 4.451,-4.45 0.67,6.259 L -0.75,-7.011 0,0 Z m -3.744,-6.69 -2.576,-24.081 -12.474,12.467 15.05,11.614 z" /></g><g
           transform="translate(128.105,181.605)"
           id="g28"><path
             id="path30"
             style="fill:#f2f2f2;fill-opacity:1;fill-rule:nonzero;stroke:none"
             d="m 0,0 -1.67,-1.113 -13.546,-9.031 -8.272,-5.515 9.942,0 27.092,0 9.942,0 -8.273,5.515 L 1.669,-1.113 0,0 Z m 0,-3.618 13.546,-9.03 -27.092,0 L 0,-3.618 Z" /></g><g
           transform="translate(152.4473,103.918)"
           id="g32"><path
             id="path34"
             style="fill:#f2f2f2;fill-opacity:1;fill-rule:nonzero;stroke:none"
             d="m 0,0 -7.786,0 -33.112,0 -7.787,0 5.762,-5.237 16.556,-15.051 2.025,-1.841 2.025,1.841 L -5.762,-5.237 0,0 Z m -7.786,-3.01 -16.556,-15.051 -16.556,15.051 33.112,0 z" /></g><g
           transform="translate(128.105,152.0815)"
           id="g36"><path
             id="path38"
             style="fill:#f2f2f2;fill-opacity:1;fill-rule:nonzero;stroke:none"
             d="m 0,0 c -9.755,0 -17.683,-6.362 -18.048,-14.483 -0.163,-3.621 1.227,-7.163 3.914,-9.974 3.43,-3.587 8.582,-5.645 14.134,-5.645 5.552,0 10.705,2.058 14.134,5.644 2.687,2.811 4.077,6.353 3.914,9.975 C 17.683,-6.362 9.755,0 0,0 m 0,-3.01 c 8.02,0 14.749,-5.095 15.042,-11.608 C 15.345,-21.395 8.618,-27.091 0,-27.091 c -8.614,0 -15.346,5.696 -15.041,12.473 C -14.749,-8.105 -8.017,-3.01 0,-3.01" /></g><g
           transform="translate(163.4941,155.7617)"
           id="g40"><path
             id="path42"
             style="fill:#f2f2f2;fill-opacity:1;fill-rule:nonzero;stroke:none"
             d="m 0,0 0.75,-7.011 2.577,-24.081 0.669,-6.259 4.452,4.45 12.475,12.468 2.422,2.42 -2.711,2.092 L 5.582,-4.307 0,0 Z M 3.743,-6.69 18.795,-18.304 6.32,-30.771 3.743,-6.69 Z" /></g><path
           id="path44"
           style="fill:#f2f2f2;fill-opacity:1;fill-rule:nonzero;stroke:none"
           d="m 244,12 -232,0 0,232 232,0 0,-232 z m 0,236 -232,0 -4,0 0,-4 0,-232 0,-4 4,0 232,0 4,0 0,4 0,232 0,4 -4,0 z" /></g></g></g></svg>