<?xml version="1.0" encoding="UTF-8" standalone="no"?>
<svg
   xmlns:dc="http://purl.org/dc/elements/1.1/"
   xmlns:cc="http://creativecommons.org/ns#"
   xmlns:rdf="http://www.w3.org/1999/02/22-rdf-syntax-ns#"
   xmlns:svg="http://www.w3.org/2000/svg"
   xmlns="http://www.w3.org/2000/svg"
   viewBox="0 0 309.33331 189.44"
   height="189.44"
   width="309.33331"
   xml:space="preserve"
   id="svg2"
   version="1.1"><metadata
     id="metadata8"><rdf:RDF><cc:Work
         rdf:about=""><dc:format>image/svg+xml</dc:format><dc:type
           rdf:resource="http://purl.org/dc/dcmitype/StillImage" /></cc:Work></rdf:RDF></metadata><defs
     id="defs6"><clipPath
       id="clipPath18"
       clipPathUnits="userSpaceOnUse"><path
         id="path16"
         d="M 0,256 H 256 V 0 H 0 Z" /></clipPath></defs><g
     transform="matrix(1.3333333,0,0,-1.3333333,-16,264.10666)"
     id="g10"><g
       id="g12"><g
         clip-path="url(#clipPath18)"
         id="g14"><g
           transform="translate(240,104)"
           id="g20"><path
             id="path22"
             style="fill:#ffffff;fill-opacity:1;fill-rule:nonzero;stroke:none"
             d="m 0,0 c 0,0 0,-44 -36,-44 -36,0 -28,4 -76,4 -48,0 -40,-4 -76,-4 -36,0 -36,44 -36,44 v 24 c 0,0 0,36 16,52 12.801,12.801 66.563,14.08 87.552,14.08 0.877,0 1.691,-0.002 2.448,-0.006 V 90 84 c 0,-3.309 2.691,-6 6,-6 3.309,0 6,2.691 6,6 v 6 0.074 c 0.757,0.004 1.571,0.006 2.448,0.006 C -82.56,90.08 -28.8,88.8 -16,76 0,60 0,24 0,24 Z m -110,90 v -6 c 0,-1.104 -0.896,-2 -2,-2 -1.104,0 -2,0.896 -2,2 v 6 z m 96.828,-11.171 c -6.268,6.268 -20.366,10.517 -43.099,12.987 -18.119,1.97 -37.4,2.264 -47.281,2.264 -4.792,0 -7.858,-0.065 -8.448,-0.079 -0.591,0.014 -3.659,0.079 -8.448,0.079 -9.88,0 -29.161,-0.294 -47.279,-2.263 -22.734,-2.471 -36.833,-6.719 -43.102,-12.988 C -227.805,61.852 -228,25.538 -228,24 V 0 c 0,-0.481 0.055,-11.92 4.798,-23.515 C -216.649,-39.533 -204.477,-48 -188,-48 c 16.945,0 24.336,0.881 32.161,1.813 9.023,1.076 18.353,2.187 43.839,2.187 25.485,0 34.816,-1.111 43.839,-2.187 C -60.336,-47.119 -52.945,-48 -36,-48 c 16.477,0 28.649,8.467 35.202,24.485 C 3.945,-11.92 4,-0.481 4,0 v 24 c 0,1.538 -0.195,37.852 -17.172,54.829" /></g><path
           id="path24"
           style="fill:#ffffff;fill-opacity:1;fill-rule:nonzero;stroke:none"
           d="M 76,168 H 180 V 92 H 76 Z M 72,88 h 112 v 84 H 72 Z" /><g
           transform="translate(46,116)"
           id="g26"><path
             id="path28"
             style="fill:#ffffff;fill-opacity:1;fill-rule:nonzero;stroke:none"
             d="m 0,0 c -3.313,0 -6,2.687 -6,6 0,3.313 2.687,6 6,6 C 3.313,12 6,9.313 6,6 6,2.687 3.313,0 0,0 M 0,16 C -5.514,16 -10,11.514 -10,6 -10,0.486 -5.514,-4 0,-4 5.514,-4 10,0.486 10,6 10,11.514 5.514,16 0,16" /></g><g
           transform="translate(206,116)"
           id="g30"><path
             id="path32"
             style="fill:#ffffff;fill-opacity:1;fill-rule:nonzero;stroke:none"
             d="m 0,0 c -3.313,0 -6,2.687 -6,6 0,3.313 2.687,6 6,6 C 3.313,12 6,9.313 6,6 6,2.687 3.313,0 0,0 M -13.64,-28.035 -14,-32 c 0,-4.418 -3.582,-8 -8,-8 -18.643,-1.332 -37.321,-1.997 -56,-1.997 -18.679,0 -37.357,0.665 -56,1.997 -4.418,0 -8,3.582 -8,8 l -0.36,3.965 c -2.421,26.63 -2.301,53.429 0.36,80.035 0,4.418 3.582,8 8,8 18.643,1.332 37.321,1.998 56,1.998 18.679,0 37.357,-0.666 56,-1.998 4.418,0 8,-3.582 8,-8 2.66,-26.606 2.781,-53.405 0.36,-80.035 M -166,19.5 c -9.098,0 -16.5,7.402 -16.5,16.5 0,9.098 7.402,16.5 16.5,16.5 9.098,0 16.5,-7.402 16.5,-16.5 0,-9.098 -7.402,-16.5 -16.5,-16.5 M 0,16 c -3.226,0 -6.091,-1.542 -7.92,-3.919 -0.062,13.414 -0.757,26.824 -2.082,40.138 -0.116,6.464 -5.369,11.697 -11.842,11.78 -18.607,1.326 -37.502,1.999 -56.156,1.999 -18.654,0 -37.548,-0.673 -56.157,-1.999 -6.471,-0.083 -11.725,-5.316 -11.841,-11.78 -0.302,-3.029 -0.566,-6.064 -0.802,-9.102 -2.902,7.801 -10.402,13.383 -19.2,13.383 -11.304,0 -20.5,-9.196 -20.5,-20.5 0,-11.304 9.196,-20.5 20.5,-20.5 7.949,0 14.84,4.557 18.239,11.187 -0.715,-18.373 -0.244,-36.813 1.417,-55.083 l 0.345,-3.803 c 0.106,-6.473 5.364,-11.716 11.842,-11.8 18.609,-1.326 37.503,-1.998 56.157,-1.998 18.654,0 37.549,0.672 56.156,1.998 6.479,0.084 11.737,5.327 11.842,11.8 l 0.346,3.803 c 0.86,9.456 1.394,18.958 1.617,28.473 C -6.216,-2.391 -3.296,-4 0,-4 5.514,-4 10,0.486 10,6 10,11.514 5.514,16 0,16" /></g><g
           transform="translate(228,157)"
           id="g34"><path
             id="path36"
             style="fill:#ffffff;fill-opacity:1;fill-rule:nonzero;stroke:none"
             d="m 0,0 c 0,-3.866 -3.134,-7 -7,-7 -3.866,0 -7,3.134 -7,7 0,3.866 3.134,7 7,7 3.866,0 7,-3.134 7,-7 m -19,-19 c -3.866,0 -7,3.134 -7,7 0,3.866 3.134,7 7,7 3.866,0 7,-3.134 7,-7 0,-3.866 -3.134,-7 -7,-7 m 1,19 c 0,-0.354 0.017,-0.704 0.05,-1.05 -0.346,0.033 -0.696,0.05 -1.05,0.05 -6.065,0 -11,-4.935 -11,-11 0,-6.065 4.935,-11 11,-11 6.065,0 11,4.935 11,11 0,0.354 -0.017,0.704 -0.05,1.05 C -7.704,-10.983 -7.354,-11 -7,-11 -0.935,-11 4,-6.065 4,0 4,6.065 -0.935,11 -7,11 -13.065,11 -18,6.065 -18,0" /></g><g
           transform="translate(40,150)"
           id="g38"><path
             id="path40"
             style="fill:#ffffff;fill-opacity:1;fill-rule:nonzero;stroke:none"
             d="M 0,0 C -1.103,0 -2,0.897 -2,2 -2,3.103 -1.103,4 0,4 1.103,4 2,3.103 2,2 2,0.897 1.103,0 0,0 m 0,8 c -3.313,0 -6,-2.687 -6,-6 0,-3.313 2.687,-6 6,-6 3.313,0 6,2.687 6,6 0,3.313 -2.687,6 -6,6" /></g><g
           transform="translate(52,152)"
           id="g42"><path
             id="path44"
             style="fill:#ffffff;fill-opacity:1;fill-rule:nonzero;stroke:none"
             d="m 0,0 c 0,-3.313 -2.687,-6 -6,-6 0,-3.313 -2.687,-6 -6,-6 -3.313,0 -6,2.687 -6,6 -3.313,0 -6,2.687 -6,6 0,3.313 2.687,6 6,6 0,3.313 2.687,6 6,6 3.313,0 6,-2.687 6,-6 3.313,0 6,-2.687 6,-6 m -12,16 c -4.319,0 -8.008,-2.753 -9.404,-6.596 C -25.247,8.008 -28,4.32 -28,0 c 0,-4.319 2.753,-8.008 6.596,-9.403 1.396,-3.844 5.085,-6.597 9.404,-6.597 4.319,0 8.008,2.753 9.404,6.597 C 1.247,-8.008 4,-4.319 4,0 4,4.32 1.247,8.008 -2.596,9.404 -3.992,13.247 -7.681,16 -12,16" /></g></g></g></g></svg>