<?xml version="1.0" encoding="UTF-8" standalone="no"?>
<svg
   xmlns:dc="http://purl.org/dc/elements/1.1/"
   xmlns:cc="http://creativecommons.org/ns#"
   xmlns:rdf="http://www.w3.org/1999/02/22-rdf-syntax-ns#"
   xmlns:svg="http://www.w3.org/2000/svg"
   xmlns="http://www.w3.org/2000/svg"
   viewBox="0 0 320 320"
   height="320"
   width="320"
   xml:space="preserve"
   id="svg2"
   version="1.1"><metadata
     id="metadata8"><rdf:RDF><cc:Work
         rdf:about=""><dc:format>image/svg+xml</dc:format><dc:type
           rdf:resource="http://purl.org/dc/dcmitype/StillImage" /></cc:Work></rdf:RDF></metadata><defs
     id="defs6"><clipPath
       id="clipPath18"
       clipPathUnits="userSpaceOnUse"><path
         id="path16"
         d="M 0,256 H 256 V 0 H 0 Z" /></clipPath></defs><g
     transform="matrix(1.3333333,0,0,-1.3333333,-10.666666,330.66666)"
     id="g10"><g
       id="g12"><g
         clip-path="url(#clipPath18)"
         id="g14"><g
           transform="translate(240,248)"
           id="g20"><path
             id="path22"
             style="fill:#ffffff;fill-opacity:1;fill-rule:nonzero;stroke:none"
             d="m 0,0 h -224 c -4.411,0 -8,-3.589 -8,-8 v -224 c 0,-4.411 3.589,-8 8,-8 H 0 c 4.411,0 8,3.589 8,8 V -8 C 8,-3.589 4.411,0 0,0 m 0,-4 c 2.209,0 4,-1.791 4,-4 v -224 c 0,-2.209 -1.791,-4 -4,-4 h -224 c -2.209,0 -4,1.791 -4,4 V -8 c 0,2.209 1.791,4 4,4 H 0" /></g><g
           transform="translate(76,128)"
           id="g24"><path
             id="path26"
             style="fill:#ffffff;fill-opacity:1;fill-rule:nonzero;stroke:none"
             d="m 0,0 h 4 4 4 v -4 h 4 4 4 4 v -4 h 4 8 v -4 h -4 v -4 -4 H 24 16 12 v -4 H 8 v 4 4 H 4 v 4 4 4 H 0 Z M -4,4 H 0 V 0 h -4 z m 32,12 h 4 v -4 h -4 z m 76,64 H 100 84 80 V 76 H 76 V 72 68 H 44 40 v -4 h -4 v -4 h -4 v -4 h -4 v -4 h -4 v -4 -4 -4 -4 -4 -4 -4 -4 h 4 v -4 h -4 -4 -4 -4 v 4 H 8 4 0 v 4 h -4 v 4 4 h -4 v 4 h -4 v 4 h -4 v 4 h -4 -4 -4 -4 -4 -4 v -4 h -4 V 36 20 16 h 4 v -4 h 4 V 8 4 0 h 4 4 v -4 -4 -4 -4 -4 -4 -4 h 4 v -4 -4 -4 h 4 v -4 -4 h 4 v -4 h 4 12 4 v 4 h 4 v 4 h 4 v 4 h 4 v 4 h 8 4 v 4 h 8 v -4 h 4 40 v -4 H 64 60 v -4 h -4 v -4 -4 -4 -4 -4 h 4 v -4 h 4 v -4 h 4 v -4 h 4 4 v -4 h 4 20 4 v 4 h 4 v 4 4 4 4 4 4 h -4 -4 v 4 h -4 -4 4 v 4 h 4 v 4 4 4 4 h -4 v 4 h -4 v 4 H 88 76 v 12 h 4 4 v 4 h 4 v 4 h 4 4 v 4 h 4 v 4 h 4 4 v 4 h 4 v 4 -4 h 4 V 8 h 4 8 4 v 4 4 h 4 v 4 h 4 v 4 h 4 v 4 h 4 v 4 4 4 4 4 4 h -4 -4 v 4 h -4 -12 -4 v -4 h -4 v -4 -4 h -4 v -4 -4 h -4 v -4 h -4 v -4 h -4 v -4 h -4 v -4 h -4 -4 v 4 H 84 68 v 4 h -4 v 4 h -4 4 v 4 h 4 v 4 h 8 v -4 h 4 12 4 v 4 4 h 4 v 4 h 4 v 4 4 h 4 v 4 4 4 4 4 h -4 z m -4,-4 v -4 h 4 v -4 -4 -4 h -4 V 56 52 H 96 V 48 H 92 V 44 40 H 80 v 4 H 64 v -4 h -4 v -4 h -4 v -4 -4 h 4 v -4 h 4 V 20 H 84 V 16 H 80 V 12 H 76 V 8 H 68 V 4 0 h 4 v 4 h 8 v 4 h 4 v 4 h 8 v 4 h 8 v 4 h 4 v 4 h 4 v 4 h 4 v 4 h 4 v 4 4 h 4 v 4 4 h 4 v 4 h 12 v -4 h 8 v -4 -4 -4 -4 h -4 v -4 h -4 v -4 h -4 v -4 h -4 v -4 -4 h -8 v 4 h -4 v 4 h -8 v -4 h -4 V 12 H 96 V 8 H 92 V 4 H 84 V 0 h -4 v -4 h -8 v -20 h 16 v -4 h 4 v -4 h 4 v -4 -4 h -4 v -4 h -4 v -4 h -4 v -4 h 12 v -4 h 8 v -4 -4 -4 -4 h -4 v -4 H 80 v 4 h -8 v 4 h -4 v 4 h -4 v 4 h -4 v 4 4 4 h 4 v 4 h 20 v 4 h 4 v 4 h -4 v 4 H 40 v 4 H 24 v -4 H 12 v -4 H 8 v -4 H 4 v -4 H 0 v -4 h -12 v 4 h -4 v 4 4 h -4 v 4 4 4 h -4 v 4 4 4 4 4 h 4 v 4 h 12 v -4 h 4 v -4 h 4 v -4 -4 -4 h 4 v -4 -4 -4 h 4 v 4 h 8 v 4 h 8 16 v 8 h 4 v 4 8 H 40 32 V 0 H 28 24 20 16 V 4 H 12 8 4 v 4 h -4 -4 -4 -4 -4 -4 V 4 h -4 -4 -4 v 4 h 4 v 4 h -4 v 4 h -4 v 4 h -4 v 16 h 4 v 4 h 4 4 4 4 v -4 h 4 v -4 h 4 v -4 h 4 v -8 h 4 v -4 h 4 4 4 v -4 h 4 4 4 4 V 8 h 4 4 V 4 h 8 8 V 0 h 8 V 4 8 H 44 v 4 h -4 v 4 h -4 v 4 h -4 v 4 h -4 v 4 4 4 4 4 4 h 4 v 4 h 4 v 4 h 4 v 4 h 4 v 4 h 32 v -4 h 4 v 4 4 4 h 4 v 4 z" /></g></g></g></g></svg>