<?xml version="1.0" encoding="UTF-8" standalone="no"?>
<svg
   xmlns:dc="http://purl.org/dc/elements/1.1/"
   xmlns:cc="http://creativecommons.org/ns#"
   xmlns:rdf="http://www.w3.org/1999/02/22-rdf-syntax-ns#"
   xmlns:svg="http://www.w3.org/2000/svg"
   xmlns="http://www.w3.org/2000/svg"
   viewBox="0 0 320 170.66665"
   height="170.66666"
   width="320"
   xml:space="preserve"
   id="svg2"
   version="1.1"><metadata
     id="metadata8"><rdf:RDF><cc:Work
         rdf:about=""><dc:format>image/svg+xml</dc:format><dc:type
           rdf:resource="http://purl.org/dc/dcmitype/StillImage" /></cc:Work></rdf:RDF></metadata><defs
     id="defs6"><clipPath
       id="clipPath18"
       clipPathUnits="userSpaceOnUse"><path
         id="path16"
         d="M 0,256 H 256 V 0 H 0 Z" /></clipPath></defs><g
     transform="matrix(1.3333333,0,0,-1.3333333,-10.666666,255.99999)"
     id="g10"><g
       id="g12"><g
         clip-path="url(#clipPath18)"
         id="g14"><g
           transform="translate(84,176)"
           id="g20"><path
             id="path22"
             style="fill:#ffffff;fill-opacity:1;fill-rule:nonzero;stroke:none"
             d="m 0,0 c 0,2.206 1.794,4 4,4 h 84 c 2.206,0 4,-1.794 4,-4 v -80 c 0,-2.206 -1.794,-4 -4,-4 H 4 c -2.206,0 -4,1.794 -4,4 z m 4,-88 h 84 c 4.418,0 8,3.582 8,8 V 0 c 0,4.418 -3.582,8 -8,8 H 4 C -0.418,8 -4,4.418 -4,0 v -80 c 0,-4.418 3.582,-8 8,-8" /></g><path
           id="path24"
           style="fill:#ffffff;fill-opacity:1;fill-rule:nonzero;stroke:none"
           d="m 104,164 h 52 v -60 h -52 z m 52,-64 h 4 v 4 60 4 h -4 -52 -4 v -4 -60 -4 h 4 z" /><g
           transform="translate(53.4702,88.4102)"
           id="g26"><path
             id="path28"
             style="fill:#ffffff;fill-opacity:1;fill-rule:nonzero;stroke:none"
             d="m 0,0 -7.589,2.53 -2.53,-7.59 -7.59,2.531 2.53,7.59 -7.59,2.529 2.53,7.59 7.59,-2.531 2.53,7.59 7.589,-2.53 -2.53,-7.589 7.59,-2.53 z m 0,12.649 1.265,3.795 1.265,3.795 -3.795,1.265 -7.589,2.529 -3.795,1.266 -1.265,-3.795 -1.265,-3.795 -3.795,1.265 -3.795,1.265 -1.264,-3.795 -2.53,-7.59 -1.265,-3.794 3.795,-1.265 3.794,-1.265 -1.264,-3.795 -1.266,-3.795 3.795,-1.264 7.59,-2.53 3.795,-1.265 1.264,3.795 1.265,3.795 3.795,-1.265 3.795,-1.266 1.264,3.795 2.531,7.59 1.264,3.795 -3.795,1.265 z" /></g><g
           transform="translate(204,132)"
           id="g30"><path
             id="path32"
             style="fill:#ffffff;fill-opacity:1;fill-rule:nonzero;stroke:none"
             d="M 0,0 C -2.209,0 -4,1.791 -4,4 -4,6.209 -2.209,8 0,8 2.209,8 4,6.209 4,4 4,1.791 2.209,0 0,0 m 0,12 c -4.411,0 -8,-3.589 -8,-8 0,-4.411 3.589,-8 8,-8 4.411,0 8,3.589 8,8 0,4.411 -3.589,8 -8,8" /></g><g
           transform="translate(220,144)"
           id="g34"><path
             id="path36"
             style="fill:#ffffff;fill-opacity:1;fill-rule:nonzero;stroke:none"
             d="m 0,0 c 2.209,0 4,-1.791 4,-4 0,-2.209 -1.791,-4 -4,-4 -2.209,0 -4,1.791 -4,4 0,2.209 1.791,4 4,4 m 0,-12 c 4.411,0 8,3.589 8,8 0,4.411 -3.589,8 -8,8 -4.411,0 -8,-3.589 -8,-8 0,-4.411 3.589,-8 8,-8" /></g><g
           transform="translate(224,96)"
           id="g38"><path
             id="path40"
             style="fill:#ffffff;fill-opacity:1;fill-rule:nonzero;stroke:none"
             d="m 0,0 c -4.418,0 -8,3.582 -8,8 0,4.418 3.582,8 8,8 C 4.418,16 8,12.418 8,8 8,3.582 4.418,0 0,0 M 0,20 C -6.617,20 -12,14.617 -12,8 -12,1.383 -6.617,-4 0,-4 6.617,-4 12,1.383 12,8 12,14.617 6.617,20 0,20" /></g><g
           transform="translate(212,68)"
           id="g42"><path
             id="path44"
             style="fill:#ffffff;fill-opacity:1;fill-rule:nonzero;stroke:none"
             d="m 0,0 h -168 c -17.673,0 -32,10.327 -32,28 l 10.364,76 H -192 v 0.685 c 0.847,-0.442 1.797,-0.685 2.775,-0.685 h 22.135 l 20.879,-80.039 C -144.374,16.919 -138.007,12 -130.729,12 H -36 c 4.901,0 9.289,2.22 12.227,5.701 C -22.697,12.182 -17.83,8 -12,8 c 6.617,0 12,5.383 12,12 0,6.617 -5.383,12 -12,12 -3.075,0 -5.874,-1.173 -8,-3.081 V 100 c 0,2.206 1.795,4 4,4 H 4 c 4.411,0 8,3.589 8,8 v 4 h 1.017 c 4.001,0 7.386,-2.955 7.926,-6.919 L 32,28 C 32,10.327 17.673,0 0,0 m -12,28 c 4.418,0 8,-3.582 8,-8 0,-4.418 -3.582,-8 -8,-8 -4.418,0 -8,3.582 -8,8 0,4.418 3.582,8 8,8 m -179.123,82.632 1.378,4.135 c 1.051,3.15 2.427,5.095 5.745,5.233 H -84 4 c 2.209,0 4,-1.791 4,-4 v -4 c 0,-2.209 -1.791,-4 -4,-4 h -20 c -4.418,0 -8,-3.582 -8,-8 V 28 c 0,-6.627 -5.373,-12 -12,-12 h -94.729 c -5.46,0 -10.233,3.687 -11.611,8.971 l -20.88,80.039 c -0.459,1.761 -2.05,2.99 -3.87,2.99 h -22.135 c -1.365,0 -2.329,1.337 -1.898,2.632 M 35.963,28.54 24.907,109.621 C 24.1,115.538 18.988,120 13.017,120 H 12 10.918 C 9.531,122.387 6.953,124 4,124 h -88 -100 -0.083 l -0.084,-0.003 c -6.812,-0.284 -8.672,-5.865 -9.372,-7.966 l -1.378,-4.134 c -0.608,-1.824 -0.3,-3.845 0.824,-5.405 0.197,-0.273 0.421,-0.519 0.657,-0.751 L -203.963,28.54 -204,28.271 V 28 c 0,-18.841 14.804,-32 36,-32 H 0 c 21.196,0 36,13.159 36,32 v 0.271 z" /></g></g></g></g></svg>