<?xml version="1.0" encoding="UTF-8" standalone="no"?>
<svg
   xmlns:dc="http://purl.org/dc/elements/1.1/"
   xmlns:cc="http://creativecommons.org/ns#"
   xmlns:rdf="http://www.w3.org/1999/02/22-rdf-syntax-ns#"
   xmlns:svg="http://www.w3.org/2000/svg"
   xmlns="http://www.w3.org/2000/svg"
   viewBox="0 0 320.31866 170.66665"
   height="170.66666"
   width="320.31866"
   xml:space="preserve"
   id="svg2"
   version="1.1"><metadata
     id="metadata8"><rdf:RDF><cc:Work
         rdf:about=""><dc:format>image/svg+xml</dc:format><dc:type
           rdf:resource="http://purl.org/dc/dcmitype/StillImage" /></cc:Work></rdf:RDF></metadata><defs
     id="defs6"><clipPath
       id="clipPath34"
       clipPathUnits="userSpaceOnUse"><path
         id="path32"
         d="M 0,256 H 256 V 0 H 0 Z" /></clipPath></defs><g
     transform="matrix(1.3333333,0,0,-1.3333333,-10.666666,255.99999)"
     id="g10"><g
       transform="translate(196,168)"
       id="g12"><path
         id="path14"
         style="fill:#ffffff;fill-opacity:1;fill-rule:nonzero;stroke:none"
         d="M 0,0 -4,4 H -8 L -4,0 Z" /></g><g
       transform="translate(204,168)"
       id="g16"><path
         id="path18"
         style="fill:#ffffff;fill-opacity:1;fill-rule:nonzero;stroke:none"
         d="M 0,0 -4,4 H -8 L -4,0 Z" /></g><g
       transform="translate(212,168)"
       id="g20"><path
         id="path22"
         style="fill:#ffffff;fill-opacity:1;fill-rule:nonzero;stroke:none"
         d="M 0,0 -4,4 H -8 L -4,0 Z" /></g><g
       transform="translate(220,168)"
       id="g24"><path
         id="path26"
         style="fill:#ffffff;fill-opacity:1;fill-rule:nonzero;stroke:none"
         d="M 0,0 -4,4 H -8 L -4,0 Z" /></g><g
       id="g28"><g
         clip-path="url(#clipPath34)"
         id="g30"><g
           transform="translate(240,148)"
           id="g36"><path
             id="path38"
             style="fill:#ffffff;fill-opacity:1;fill-rule:nonzero;stroke:none"
             d="m 0,0 h -4 l -4,-4 -3.862,0.292 3.784,18.923 L -7.921,16 H 4 Z m -38.428,-12.08 c -1.007,-0.353 -1.839,-1.113 -2.313,-2.111 l -2.561,-5.391 c -0.454,-0.958 -0.621,-2.038 -0.477,-3.098 l 7.127,-52.514 C -36.308,-77.73 -38.178,-80 -40.612,-80 H -51.955 -52 l -12.994,74.716 39.359,-2.187 z M -68.443,-80 c -2.029,0 -3.736,1.598 -3.973,3.719 l -7.584,67.86 -10.239,2.829 3.078,1.539 18.067,-1.004 L -56.061,-80 H -68 Z m -15.638,46.693 c -2.109,0.703 -3.247,2.991 -2.519,5.092 0.682,1.97 1.578,4.708 2.6,8.215 2.333,8 -12,8 -12,8 l -2.862,4.293 2.103,-0.233 13.084,-3.616 2.541,-22.733 z M -176,20 h 76 l 12,8 H -29.657 -24 L -12,16 -15.881,-3.405 -16.653,-3.347 -16,-4 l -72,4 -8,-4 -72,8 z m -44,-8 h -4 l -2,4 h 47.528 l 3.707,-7.414 z m -4,16 h 4 28 4 92.789 l -6,-4 H -176 h -6.472 l 2,-4 H -228 Z m 29.212,11.821 c 0.262,0.122 0.529,0.179 0.789,0.179 1.055,0 1.999,-0.931 1.999,-2.19 V 32 h -19.469 z M -16,36 h 4 l 2,-4 H -20 Z M 0,24 2,20 h -12.343 l -8,8 H -8 l 4,-4 z m 7.578,-6.211 -4,8 L 2.473,28 H 0 -2.343 l -2.37,2.37 -3.709,7.419 L -9.527,40 H -12 -16 -17.657 L -18.828,38.829 -25.657,32 H -88 -89.211 -188 v 5.81 c 0,3.413 -2.691,6.19 -5.999,6.19 -0.861,0 -1.698,-0.187 -2.487,-0.558 L -220.891,32 h -5.581 L -232,20 -226.472,8 h 6.321 l 47.47,-3.583 2.077,-4.152 66.549,-7.395 4.727,-7.089 1.187,-1.781 H -96 c 3.125,-0.012 7.299,-0.922 8.195,-2.122 0.034,-0.044 0.134,-0.179 -0.035,-0.758 -0.85,-2.917 -1.705,-5.617 -2.54,-8.025 -0.703,-2.031 -0.567,-4.211 0.383,-6.139 0.953,-1.935 2.604,-3.375 4.651,-4.057 l 4.701,-1.567 4.254,-38.058 c 0.463,-4.147 3.88,-7.274 7.948,-7.274 H -56 h 0.636 3.364 0.645 10.743 c 2.271,0 4.442,0.994 5.957,2.729 1.575,1.803 2.292,4.214 1.967,6.615 l -7.127,52.513 c -0.039,0.289 0.005,0.589 0.127,0.844 l 2.56,5.391 c 0.019,0.039 0.038,0.058 0.044,0.063 l 21.674,7.806 2.652,-0.148 0.157,0.788 0.287,-0.287 4.013,-0.303 1.831,-0.138 1.298,1.298 L -2.343,-4 H 0 3.123 l 0.758,3.03 4,16 0.358,1.435 z" /></g><g
           transform="translate(126.3975,155.1924)"
           id="g40"><path
             id="path42"
             style="fill:#ffffff;fill-opacity:1;fill-rule:nonzero;stroke:none"
             d="M 0,0 0.067,0.202 -0.192,0.289 Z" /></g></g></g></g></svg>