<?xml version="1.0" encoding="UTF-8" standalone="no"?>
<svg
   xmlns:dc="http://purl.org/dc/elements/1.1/"
   xmlns:cc="http://creativecommons.org/ns#"
   xmlns:rdf="http://www.w3.org/1999/02/22-rdf-syntax-ns#"
   xmlns:svg="http://www.w3.org/2000/svg"
   xmlns="http://www.w3.org/2000/svg"
   viewBox="0 0 320 229.33333"
   height="229.33333"
   width="320"
   xml:space="preserve"
   id="svg2"
   version="1.1"><metadata
     id="metadata8"><rdf:RDF><cc:Work
         rdf:about=""><dc:format>image/svg+xml</dc:format><dc:type
           rdf:resource="http://purl.org/dc/dcmitype/StillImage" /></cc:Work></rdf:RDF></metadata><defs
     id="defs6"><clipPath
       id="clipPath18"
       clipPathUnits="userSpaceOnUse"><path
         id="path16"
         d="M 0,256 H 256 V 0 H 0 Z" /></clipPath></defs><g
     transform="matrix(1.3333333,0,0,-1.3333333,-10.666666,282.66666)"
     id="g10"><g
       id="g12"><g
         clip-path="url(#clipPath18)"
         id="g14"><g
           transform="translate(244,44)"
           id="g20"><path
             id="path22"
             style="fill:#ffffff;fill-opacity:1;fill-rule:nonzero;stroke:none"
             d="m 0,0 h -232 v 160 c 0,2.209 1.791,4 4,4 h 32 v -4 -4 h 4 152 4 v 4 4 h 32 c 2.209,0 4,-1.791 4,-4 z m -192,164 h 152 v -4 h -152 z m 188,4 h -32 -4 -152 -4 -32 c -4.411,0 -8,-3.589 -8,-8 V 0 -4 h 4 232 4 v 4 160 c 0,4.411 -3.589,8 -8,8" /></g><g
           transform="translate(54.4063,156)"
           id="g24"><path
             id="path26"
             style="fill:#ffffff;fill-opacity:1;fill-rule:nonzero;stroke:none"
             d="m 0,0 c 0.731,1.43 1.609,2.772 2.623,4 h 141.941 c 1.015,-1.228 1.892,-2.57 2.623,-4 z m 148.736,-3.936 c -0.142,0.498 -0.317,0.982 -0.493,1.464 0.177,-0.483 0.351,-0.966 0.493,-1.464 m -0.682,2.016 c -0.259,0.655 -0.547,1.296 -0.867,1.92 0.32,-0.624 0.608,-1.265 0.867,-1.92 M -2.312,-8 c 0.124,1.375 0.382,2.71 0.747,4 h 150.317 c 0.366,-1.29 0.623,-2.625 0.747,-4 z m 151.058,-8 H -1.561 c -0.365,1.291 -0.627,2.625 -0.751,4 h 151.811 c -0.124,-1.376 -0.388,-2.709 -0.753,-4 m -0.678,-2.048 c 0.236,0.598 0.436,1.213 0.619,1.836 -0.183,-0.622 -0.383,-1.238 -0.619,-1.836 m -0.87,-1.928 c 0.32,0.626 0.611,1.269 0.87,1.928 -0.259,-0.659 -0.55,-1.302 -0.87,-1.928 M 144.529,-24 H 2.646 c -1.015,1.229 -1.895,2.569 -2.627,4 h 147.166 c -0.735,-1.436 -1.636,-2.768 -2.656,-4 m -4.294,-4 c 0.803,0.565 1.568,1.182 2.287,1.845 -0.719,-0.665 -1.483,-1.28 -2.287,-1.845 m -12.641,-4 h -108 c -4.707,0 -9.065,1.482 -12.642,4 h 133.283 c -3.577,-2.518 -7.934,-4 -12.641,-4 M 4.665,-26.155 c 0.72,-0.663 1.484,-1.28 2.287,-1.845 -0.803,0.565 -1.568,1.18 -2.287,1.845 m -5.378,7.737 c 0.173,-0.419 0.358,-0.831 0.556,-1.235 -0.198,0.405 -0.383,0.816 -0.556,1.235 m -0.723,2.017 c 0.143,-0.471 0.296,-0.936 0.47,-1.392 -0.174,0.456 -0.327,0.921 -0.47,1.392 m 0.38,13.929 c -0.176,-0.482 -0.351,-0.966 -0.493,-1.464 0.142,0.498 0.317,0.981 0.493,1.464 M 0,0 C -0.319,-0.624 -0.607,-1.265 -0.866,-1.92 -0.607,-1.265 -0.319,-0.624 0,0 M 6.952,8 C 6.149,7.435 5.385,6.818 4.665,6.155 5.384,6.82 6.149,7.435 6.952,8 m 12.642,4 h 108 c 4.707,0 9.064,-1.483 12.641,-4 H 6.952 c 3.577,2.517 7.935,4 12.642,4 M 142.522,6.155 c -0.719,0.663 -1.484,1.28 -2.287,1.845 0.804,-0.565 1.568,-1.18 2.287,-1.845 M 127.594,16 h -108 c -14.337,0 -26,-11.664 -26,-26 0,-14.336 11.663,-26 26,-26 h 108 c 14.337,0 26,11.664 26,26 0,14.336 -11.663,26 -26,26" /></g></g></g></g></svg>