<?xml version="1.0" encoding="UTF-8" standalone="no"?>
<svg
   xmlns:dc="http://purl.org/dc/elements/1.1/"
   xmlns:cc="http://creativecommons.org/ns#"
   xmlns:rdf="http://www.w3.org/1999/02/22-rdf-syntax-ns#"
   xmlns:svg="http://www.w3.org/2000/svg"
   xmlns="http://www.w3.org/2000/svg"
   viewBox="0 0 224 224"
   height="224"
   width="224"
   xml:space="preserve"
   id="svg2"
   version="1.1"><metadata
     id="metadata8"><rdf:RDF><cc:Work
         rdf:about=""><dc:format>image/svg+xml</dc:format><dc:type
           rdf:resource="http://purl.org/dc/dcmitype/StillImage" /></cc:Work></rdf:RDF></metadata><defs
     id="defs6"><clipPath
       id="clipPath18"
       clipPathUnits="userSpaceOnUse"><path
         id="path16"
         d="M 0,256 H 256 V 0 H 0 Z" /></clipPath></defs><g
     transform="matrix(1.3333333,0,0,-1.3333333,-58.666665,282.66666)"
     id="g10"><g
       id="g12"><g
         clip-path="url(#clipPath18)"
         id="g14"><g
           transform="translate(208,48)"
           id="g20"><path
             id="path22"
             style="fill:#ffffff;fill-opacity:1;fill-rule:nonzero;stroke:none"
             d="m 0,0 h -157.172 l 56.261,56.261 c 4.262,-4.716 8.252,-8.951 11.127,-11.957 2.153,-2.251 3.917,-4.062 5.019,-5.185 2.647,-2.698 3.054,-3.113 4.747,-3.113 0.599,0 1.189,0.135 1.728,0.392 0.712,0.341 0.882,0.422 8.04,7.908 3.787,3.96 9.505,10.048 15.234,16.558 22.99,26.127 23.009,32.67 23.016,35.133 0.022,7.724 -2.893,15.09 -7.997,20.209 -0.161,0.162 -0.33,0.315 -0.496,0.473 L 0,157.172 Z m -44.881,115.184 c 0.024,-0.019 0.048,-0.038 0.071,-0.056 0.519,-0.406 1.016,-0.832 1.489,-1.277 4.886,-4.602 7.341,-11.216 7.321,-17.842 -0.035,-12.006 -44.015,-56.005 -44.018,-56.003 -0.003,0 -8.521,8.521 -18.062,19.086 l 0.001,0.001 c -0.884,0.978 -1.776,1.975 -2.672,2.984 l -10e-4,-10e-4 c -11.403,12.846 -23.265,27.7 -23.283,33.933 C -124.069,108.017 -116,120 -100,120 c 15.425,0 19.696,-7.433 19.982,-7.967 0.288,0.534 4.558,7.967 19.983,7.967 5.428,0 9.939,-1.382 13.535,-3.672 0.562,-0.359 1.102,-0.743 1.619,-1.144 M -160,160 H -2.828 l -40.788,-40.789 c -4.572,3.142 -10.159,4.789 -16.419,4.789 -7.215,0 -13.207,-1.482 -17.813,-4.407 -0.834,-0.53 -1.56,-1.069 -2.189,-1.596 -3.374,2.808 -9.51,6.003 -19.963,6.003 -8.025,0 -14.954,-2.695 -20.038,-7.794 -5.105,-5.119 -8.019,-12.485 -7.997,-20.209 0.007,-2.463 0.026,-9.007 23.016,-35.134 0.479,-0.545 0.957,-1.081 1.435,-1.619 L -160,2.828 Z M 1.172,164 H 0 -160 -164 V 160 0 -1.172 -4 h 2.828 H -160 0 4 v 4 160 1.172 2.828 z" /></g></g></g></g></svg>