<?xml version="1.0" encoding="UTF-8" standalone="no"?>
<svg
   xmlns:dc="http://purl.org/dc/elements/1.1/"
   xmlns:cc="http://creativecommons.org/ns#"
   xmlns:rdf="http://www.w3.org/1999/02/22-rdf-syntax-ns#"
   xmlns:svg="http://www.w3.org/2000/svg"
   xmlns="http://www.w3.org/2000/svg"
   viewBox="0 0 320 170.66665"
   height="170.66666"
   width="320"
   xml:space="preserve"
   id="svg2"
   version="1.1"><metadata
     id="metadata8"><rdf:RDF><cc:Work
         rdf:about=""><dc:format>image/svg+xml</dc:format><dc:type
           rdf:resource="http://purl.org/dc/dcmitype/StillImage" /></cc:Work></rdf:RDF></metadata><defs
     id="defs6"><clipPath
       id="clipPath18"
       clipPathUnits="userSpaceOnUse"><path
         id="path16"
         d="M 0,256 H 256 V 0 H 0 Z" /></clipPath></defs><g
     transform="matrix(1.3333333,0,0,-1.3333333,-10.666666,255.99999)"
     id="g10"><g
       id="g12"><g
         clip-path="url(#clipPath18)"
         id="g14"><g
           transform="translate(204,168)"
           id="g20"><path
             id="path22"
             style="fill:#ffffff;fill-opacity:1;fill-rule:nonzero;stroke:none"
             d="m 0,0 h -4 v -4 -64 -4 -8 -4 h 4 40 v -14 c 0,-1.104 -0.896,-2 -2,-2 h -228 c -1.104,0 -2,0.896 -2,2 v 14 h 40 4 v 4 8 4 64 4 h -4 -40 v 18 c 0,1.104 0.896,2 2,2 H 38 c 1.104,0 2,-0.896 2,-2 V 0 Z M 0,-4 H 40 V -68 H 0 Z M 40,-80 H 0 v 8 h 40 z m -192,0 h -40 v 8 h 40 z m -40,76 h 40 v -64 h -40 z M 38,24 h -228 c -3.309,0 -6,-2.691 -6,-6 v -18 -4 -64 -4 -8 -4 -14 c 0,-3.309 2.691,-6 6,-6 H 38 c 3.309,0 6,2.691 6,6 v 14 4 8 4 64 4 18 c 0,3.309 -2.691,6 -6,6" /></g><path
           id="path24"
           style="fill:#ffffff;fill-opacity:1;fill-rule:nonzero;stroke:none"
           d="m 16,180 h 36 v 4 H 16 Z" /><path
           id="path26"
           style="fill:#ffffff;fill-opacity:1;fill-rule:nonzero;stroke:none"
           d="m 16,172 h 36 v 4 H 16 Z" /><path
           id="path28"
           style="fill:#ffffff;fill-opacity:1;fill-rule:nonzero;stroke:none"
           d="m 204,180 h 36 v 4 h -36 z" /><path
           id="path30"
           style="fill:#ffffff;fill-opacity:1;fill-rule:nonzero;stroke:none"
           d="m 204,172 h 36 v 4 h -36 z" /><path
           id="path32"
           style="fill:#ffffff;fill-opacity:1;fill-rule:nonzero;stroke:none"
           d="M 188,184 H 64 v -4 h 124 z" /><path
           id="path34"
           style="fill:#ffffff;fill-opacity:1;fill-rule:nonzero;stroke:none"
           d="M 188,176 H 64 v -4 h 124 z" /><g
           transform="translate(24,138)"
           id="g36"><path
             id="path38"
             style="fill:#ffffff;fill-opacity:1;fill-rule:nonzero;stroke:none"
             d="M 0,0 V 14 H 20 V 0 -22 H 0 Z M -4,-26 H 24 V 18 H -4 Z" /></g><g
           transform="translate(34,144)"
           id="g40"><path
             id="path42"
             style="fill:#ffffff;fill-opacity:1;fill-rule:nonzero;stroke:none"
             d="m 0,0 c 3.309,0 6,-2.691 6,-6 0,-3.309 -2.691,-6 -6,-6 -3.309,0 -6,2.691 -6,6 0,3.309 2.691,6 6,6 m 0,-16 c 5.523,0 10,4.477 10,10 0,5.523 -4.477,10 -10,10 -5.523,0 -10,-4.477 -10,-10 0,-5.523 4.477,-10 10,-10" /></g><g
           transform="translate(212,138)"
           id="g44"><path
             id="path46"
             style="fill:#ffffff;fill-opacity:1;fill-rule:nonzero;stroke:none"
             d="M 0,0 V 14 H 20 V 0 -22 H 0 Z M -4,-26 H 24 V 18 H -4 Z" /></g><g
           transform="translate(222,144)"
           id="g48"><path
             id="path50"
             style="fill:#ffffff;fill-opacity:1;fill-rule:nonzero;stroke:none"
             d="m 0,0 c 3.309,0 6,-2.691 6,-6 0,-3.309 -2.691,-6 -6,-6 -3.309,0 -6,2.691 -6,6 0,3.309 2.691,6 6,6 m 0,-16 c 5.522,0 10,4.477 10,10 0,5.523 -4.478,10 -10,10 -5.522,0 -10,-4.477 -10,-10 0,-5.523 4.478,-10 10,-10" /></g><path
           id="path52"
           style="fill:#ffffff;fill-opacity:1;fill-rule:nonzero;stroke:none"
           d="M 192,88 H 64 v 76 H 192 Z M 64,168 h -4 v -4 -76 -4 h 4 128 4 v 4 76 4 h -4 z" /><g
           transform="translate(72,112)"
           id="g54"><path
             id="path56"
             style="fill:#ffffff;fill-opacity:1;fill-rule:nonzero;stroke:none"
             d="M 0,0 H 10 22 34 46 58 68 V -16 H 58 46 34 22 10 0 Z M 76,0 H 92 V -16 H 76 Z m 20,0 h 16 V -16 H 96 Z M 68,-20 h 4 4 16 4 16 4 v 4 16 4 H 112 96 92 76 72 68 0 -4 v -4 -16 -4 h 4 z" /></g><g
           transform="translate(80,106)"
           id="g58"><path
             id="path60"
             style="fill:#ffffff;fill-opacity:1;fill-rule:nonzero;stroke:none"
             d="M 0,0 C 0,1.104 0.896,2 2,2 3.104,2 4,1.104 4,0 V -4 C 4,-5.104 3.104,-6 2,-6 0.896,-6 0,-5.104 0,-4 Z m 12,0 c 0,1.104 0.896,2 2,2 1.104,0 2,-0.896 2,-2 v -4 c 0,-1.104 -0.896,-2 -2,-2 -1.104,0 -2,0.896 -2,2 z m 12,0 c 0,1.104 0.896,2 2,2 1.104,0 2,-0.896 2,-2 v -4 c 0,-1.104 -0.896,-2 -2,-2 -1.104,0 -2,0.896 -2,2 z m 12,0 c 0,1.104 0.896,2 2,2 1.104,0 2,-0.896 2,-2 v -4 c 0,-1.104 -0.896,-2 -2,-2 -1.104,0 -2,0.896 -2,2 z m 12,0 c 0,1.104 0.896,2 2,2 1.104,0 2,-0.896 2,-2 v -4 c 0,-1.104 -0.896,-2 -2,-2 -1.104,0 -2,0.896 -2,2 z M -4,0 v -4 c 0,-3.309 2.691,-6 6,-6 3.309,0 6,2.691 6,6 0,-3.309 2.691,-6 6,-6 3.309,0 6,2.691 6,6 0,-3.309 2.691,-6 6,-6 3.309,0 6,2.691 6,6 0,-3.309 2.691,-6 6,-6 3.309,0 6,2.691 6,6 0,-3.309 2.691,-6 6,-6 3.309,0 6,2.691 6,6 V 0 C 56,3.309 53.309,6 50,6 46.691,6 44,3.309 44,0 44,3.309 41.309,6 38,6 34.691,6 32,3.309 32,0 32,3.309 29.309,6 26,6 22.691,6 20,3.309 20,0 20,3.309 17.309,6 14,6 10.691,6 8,3.309 8,0 8,3.309 5.309,6 2,6 -1.309,6 -4,3.309 -4,0" /></g><g
           transform="translate(144.0322,136.6543)"
           id="g62"><path
             id="path64"
             style="fill:#ffffff;fill-opacity:1;fill-rule:nonzero;stroke:none"
             d="m 0,0 12.622,-12.622 c -0.218,-0.012 -0.434,-0.032 -0.654,-0.032 -3.205,0 -6.219,1.248 -8.486,3.514 -2.266,2.267 -3.514,5.281 -3.514,8.486 0,0.22 0.02,0.436 0.032,0.654 m 3.482,7.831 c 0.98,0.98 2.106,1.756 3.32,2.337 L 22.79,-5.82 c -0.58,-1.214 -1.357,-2.34 -2.337,-3.32 -0.98,-0.98 -2.106,-1.756 -3.323,-2.334 L 1.146,4.511 c 0.58,1.215 1.357,2.34 2.336,3.32 m 8.486,3.515 c 3.205,0 6.219,-1.248 8.485,-3.515 2.267,-2.267 3.515,-5.28 3.515,-8.485 0,-0.22 -0.021,-0.437 -0.032,-0.655 L 11.313,11.314 c 0.218,0.012 0.435,0.032 0.655,0.032 m 0,-28 c 4.094,0 8.189,1.562 11.313,4.686 6.249,6.248 6.249,16.379 0,22.627 -3.124,3.125 -7.219,4.687 -11.313,4.687 -4.095,0 -8.19,-1.562 -11.314,-4.687 -6.249,-6.248 -6.249,-16.379 0,-22.627 3.124,-3.124 7.219,-4.686 11.314,-4.686" /></g></g></g></g></svg>