<?xml version="1.0" encoding="UTF-8" standalone="no"?>
<svg
   xmlns:dc="http://purl.org/dc/elements/1.1/"
   xmlns:cc="http://creativecommons.org/ns#"
   xmlns:rdf="http://www.w3.org/1999/02/22-rdf-syntax-ns#"
   xmlns:svg="http://www.w3.org/2000/svg"
   xmlns="http://www.w3.org/2000/svg"
   viewBox="0 0 320 320"
   height="320"
   width="320"
   xml:space="preserve"
   id="svg2"
   version="1.1"><metadata
     id="metadata8"><rdf:RDF><cc:Work
         rdf:about=""><dc:format>image/svg+xml</dc:format><dc:type
           rdf:resource="http://purl.org/dc/dcmitype/StillImage" /></cc:Work></rdf:RDF></metadata><defs
     id="defs6"><clipPath
       id="clipPath18"
       clipPathUnits="userSpaceOnUse"><path
         id="path16"
         d="M 0,256 H 256 V 0 H 0 Z" /></clipPath></defs><g
     transform="matrix(1.3333333,0,0,-1.3333333,-10.666666,330.66666)"
     id="g10"><g
       id="g12"><g
         clip-path="url(#clipPath18)"
         id="g14"><g
           transform="translate(176.1602,18.1152)"
           id="g20"><path
             id="path22"
             style="fill:#f2f2f2;fill-opacity:1;fill-rule:nonzero;stroke:none"
             d="m 0,0 c 0,-1.087 -0.91,-1.961 -2.04,-1.961 h -4.08 c -1.13,0 -2.04,0.874 -2.04,1.961 v 3.923 c 0,1.087 0.91,1.962 2.04,1.962 h 4.08 C -0.91,5.885 0,5.01 0,3.923 Z m -8.32,15.923 c 0,1.087 0.91,1.962 2.04,1.962 h 4.08 c 1.13,0 2.04,-0.875 2.04,-1.962 V 12 c 0,-1.087 -0.91,-1.961 -2.04,-1.961 h -4.08 c -1.13,0 -2.04,0.874 -2.04,1.961 z m 0,12 c 0,1.087 0.91,1.962 2.04,1.962 h 4.08 c 1.13,0 2.04,-0.875 2.04,-1.962 V 24 c 0,-1.087 -0.91,-1.961 -2.04,-1.961 h -4.08 c -1.13,0 -2.04,0.874 -2.04,1.961 z m 0,12 c 0,1.087 0.91,1.962 2.04,1.962 h 4.08 c 1.13,0 2.04,-0.875 2.04,-1.962 V 36 c 0,-1.087 -0.91,-1.961 -2.04,-1.961 h -4.08 c -1.13,0 -2.04,0.874 -2.04,1.961 z m 0,11.847 c 0,1.086 0.91,1.96 2.04,1.96 h 4.08 c 1.13,0 2.04,-0.874 2.04,-1.96 v -3.923 c 0,-1.087 -0.91,-1.962 -2.04,-1.962 h -4.08 c -1.13,0 -2.04,0.875 -2.04,1.962 z m 0,12 c 0,1.086 0.91,1.96 2.04,1.96 h 4.08 c 1.13,0 2.04,-0.874 2.04,-1.96 v -3.923 c 0,-1.087 -0.91,-1.962 -2.04,-1.962 h -4.08 c -1.13,0 -2.04,0.875 -2.04,1.962 z m 0,12 c 0,1.086 0.91,1.96 2.04,1.96 h 4.08 c 1.13,0 2.04,-0.874 2.04,-1.96 v -3.923 c 0,-1.087 -0.91,-1.962 -2.04,-1.962 h -4.08 c -1.13,0 -2.04,0.875 -2.04,1.962 z m 0,12 c 0,1.086 0.91,1.96 2.04,1.96 h 4.08 c 1.13,0 2.04,-0.874 2.04,-1.96 v -3.923 c 0,-1.087 -0.91,-1.962 -2.04,-1.962 h -4.08 c -1.13,0 -2.04,0.875 -2.04,1.962 z m 0,12 c 0,1.086 0.91,1.96 2.04,1.96 h 4.08 c 1.13,0 2.04,-0.874 2.04,-1.96 v -3.923 c 0,-1.087 -0.91,-1.962 -2.04,-1.962 h -4.08 c -1.13,0 -2.04,0.875 -2.04,1.962 z m 0,12 c 0,1.086 0.91,1.961 2.04,1.961 h 4.08 c 1.13,0 2.04,-0.875 2.04,-1.961 v -3.923 c 0,-1.087 -0.91,-1.962 -2.04,-1.962 h -4.08 c -1.13,0 -2.04,0.875 -2.04,1.962 z m 0,12 c 0,1.086 0.91,1.961 2.04,1.961 h 4.08 c 1.13,0 2.04,-0.875 2.04,-1.961 v -3.924 c 0,-1.086 -0.91,-1.961 -2.04,-1.961 h -4.08 c -1.13,0 -2.04,0.875 -2.04,1.961 z m 0,12 c 0,1.086 0.91,1.961 2.04,1.961 h 4.08 c 1.13,0 2.04,-0.875 2.04,-1.961 v -3.924 c 0,-1.086 -0.91,-1.961 -2.04,-1.961 h -4.08 c -1.13,0 -2.04,0.875 -2.04,1.961 z m 0,12 c 0,1.086 0.91,1.961 2.04,1.961 h 4.08 c 1.13,0 2.04,-0.875 2.04,-1.961 v -3.924 c 0,-1.086 -0.91,-1.961 -2.04,-1.961 h -4.08 c -1.13,0 -2.04,0.875 -2.04,1.961 z m 0,12 c 0,1.086 0.91,1.961 2.04,1.961 h 4.08 c 1.13,0 2.04,-0.875 2.04,-1.961 v -3.924 c 0,-1.086 -0.91,-1.961 -2.04,-1.961 h -4.08 c -1.13,0 -2.04,0.875 -2.04,1.961 z m 0,12 c 0,1.086 0.91,1.961 2.04,1.961 h 4.08 c 1.13,0 2.04,-0.875 2.04,-1.961 v -3.924 c 0,-1.086 -0.91,-1.961 -2.04,-1.961 h -4.08 c -1.13,0 -2.04,0.875 -2.04,1.961 z m 0,12 c 0,1.086 0.91,1.961 2.04,1.961 h 4.08 c 1.13,0 2.04,-0.875 2.04,-1.961 v -3.924 c 0,-1.086 -0.91,-1.961 -2.04,-1.961 h -4.08 c -1.13,0 -2.04,0.875 -2.04,1.961 z m 0,12 c 0,1.086 0.91,1.961 2.04,1.961 h 4.08 c 1.13,0 2.04,-0.875 2.04,-1.961 v -3.924 c 0,-1.086 -0.91,-1.961 -2.04,-1.961 h -4.08 c -1.13,0 -2.04,0.875 -2.04,1.961 z m 0,12 c 0,1.086 0.91,1.961 2.04,1.961 h 4.08 c 1.13,0 2.04,-0.875 2.04,-1.961 v -3.924 c 0,-1.086 -0.91,-1.961 -2.04,-1.961 h -4.08 c -1.13,0 -2.04,0.875 -2.04,1.961 z m 0,12 c 0,1.086 0.91,1.961 2.04,1.961 h 4.08 c 1.13,0 2.04,-0.875 2.04,-1.961 v -3.924 c 0,-1.086 -0.91,-1.961 -2.04,-1.961 h -4.08 c -1.13,0 -2.04,0.875 -2.04,1.961 z m -3.84,-55.94 c 0,-3.284 -2.875,-5.945 -6.421,-5.945 H -77.74 c -3.546,0 -6.42,2.661 -6.42,5.945 v 28.11 c 0,3.283 2.874,5.945 6.42,5.945 h 59.159 c 3.546,0 6.421,-2.662 6.421,-5.945 z m 0,-44 c 0,-3.284 -2.875,-5.945 -6.421,-5.945 H -77.74 c -3.546,0 -6.42,2.661 -6.42,5.945 v 28.11 c 0,3.283 2.874,5.945 6.42,5.945 h 59.159 c 3.546,0 6.421,-2.662 6.421,-5.945 z m 0,-44 c 0,-3.283 -2.875,-5.945 -6.421,-5.945 H -77.74 c -3.546,0 -6.42,2.662 -6.42,5.945 v 28.109 c 0,3.285 2.874,5.946 6.42,5.946 h 59.159 c 3.546,0 6.421,-2.661 6.421,-5.946 z m 0,-44 c 0,-3.283 -2.875,-5.945 -6.421,-5.945 H -77.74 c -3.546,0 -6.42,2.662 -6.42,5.945 v 28.109 c 0,3.285 2.874,5.946 6.42,5.946 h 59.159 c 3.546,0 6.421,-2.661 6.421,-5.946 z M -88,215.846 c 0,-1.086 -0.91,-1.961 -2.04,-1.961 h -4.08 c -1.13,0 -2.04,0.875 -2.04,1.961 v 3.924 c 0,1.086 0.91,1.961 2.04,1.961 h 4.08 c 1.13,0 2.04,-0.875 2.04,-1.961 z m 0,-12 c 0,-1.086 -0.91,-1.961 -2.04,-1.961 h -4.08 c -1.13,0 -2.04,0.875 -2.04,1.961 v 3.924 c 0,1.086 0.91,1.961 2.04,1.961 h 4.08 c 1.13,0 2.04,-0.875 2.04,-1.961 z m 0,-12 c 0,-1.086 -0.91,-1.961 -2.04,-1.961 h -4.08 c -1.13,0 -2.04,0.875 -2.04,1.961 v 3.924 c 0,1.086 0.91,1.961 2.04,1.961 h 4.08 c 1.13,0 2.04,-0.875 2.04,-1.961 z m 0,-12 c 0,-1.086 -0.91,-1.961 -2.04,-1.961 h -4.08 c -1.13,0 -2.04,0.875 -2.04,1.961 v 3.924 c 0,1.086 0.91,1.961 2.04,1.961 h 4.08 c 1.13,0 2.04,-0.875 2.04,-1.961 z m 0,-12 c 0,-1.086 -0.91,-1.961 -2.04,-1.961 h -4.08 c -1.13,0 -2.04,0.875 -2.04,1.961 v 3.924 c 0,1.086 0.91,1.961 2.04,1.961 h 4.08 c 1.13,0 2.04,-0.875 2.04,-1.961 z m 0,-12 c 0,-1.086 -0.91,-1.961 -2.04,-1.961 h -4.08 c -1.13,0 -2.04,0.875 -2.04,1.961 v 3.924 c 0,1.086 0.91,1.961 2.04,1.961 h 4.08 c 1.13,0 2.04,-0.875 2.04,-1.961 z m 0,-12 c 0,-1.086 -0.91,-1.961 -2.04,-1.961 h -4.08 c -1.13,0 -2.04,0.875 -2.04,1.961 v 3.924 c 0,1.086 0.91,1.961 2.04,1.961 h 4.08 c 1.13,0 2.04,-0.875 2.04,-1.961 z m 0,-12 c 0,-1.086 -0.91,-1.961 -2.04,-1.961 h -4.08 c -1.13,0 -2.04,0.875 -2.04,1.961 v 3.924 c 0,1.086 0.91,1.961 2.04,1.961 h 4.08 c 1.13,0 2.04,-0.875 2.04,-1.961 z m 0,-12 c 0,-1.086 -0.91,-1.961 -2.04,-1.961 h -4.08 c -1.13,0 -2.04,0.875 -2.04,1.961 v 3.924 c 0,1.086 0.91,1.961 2.04,1.961 h 4.08 c 1.13,0 2.04,-0.875 2.04,-1.961 z m 0,-11.999 c 0,-1.087 -0.91,-1.962 -2.04,-1.962 h -4.08 c -1.13,0 -2.04,0.875 -2.04,1.962 v 3.923 c 0,1.086 0.91,1.961 2.04,1.961 h 4.08 c 1.13,0 2.04,-0.875 2.04,-1.961 z m 0,-12 c 0,-1.087 -0.91,-1.962 -2.04,-1.962 h -4.08 c -1.13,0 -2.04,0.875 -2.04,1.962 v 3.923 c 0,1.086 0.91,1.96 2.04,1.96 h 4.08 c 1.13,0 2.04,-0.874 2.04,-1.96 z m 0,-12 c 0,-1.087 -0.91,-1.962 -2.04,-1.962 h -4.08 c -1.13,0 -2.04,0.875 -2.04,1.962 v 3.923 c 0,1.086 0.91,1.96 2.04,1.96 h 4.08 c 1.13,0 2.04,-0.874 2.04,-1.96 z m 0,-12 c 0,-1.087 -0.91,-1.962 -2.04,-1.962 h -4.08 c -1.13,0 -2.04,0.875 -2.04,1.962 v 3.923 c 0,1.086 0.91,1.96 2.04,1.96 h 4.08 c 1.13,0 2.04,-0.874 2.04,-1.96 z m 0,-12 c 0,-1.087 -0.91,-1.962 -2.04,-1.962 h -4.08 c -1.13,0 -2.04,0.875 -2.04,1.962 v 3.923 c 0,1.086 0.91,1.96 2.04,1.96 h 4.08 c 1.13,0 2.04,-0.874 2.04,-1.96 z m 0,-12 c 0,-1.087 -0.91,-1.962 -2.04,-1.962 h -4.08 c -1.13,0 -2.04,0.875 -2.04,1.962 v 3.923 c 0,1.086 0.91,1.96 2.04,1.96 h 4.08 c 1.13,0 2.04,-0.874 2.04,-1.96 z M -88,36 c 0,-1.087 -0.91,-1.961 -2.04,-1.961 h -4.08 c -1.13,0 -2.04,0.874 -2.04,1.961 v 3.923 c 0,1.087 0.91,1.962 2.04,1.962 h 4.08 c 1.13,0 2.04,-0.875 2.04,-1.962 z m 0,-12 c 0,-1.087 -0.91,-1.961 -2.04,-1.961 h -4.08 c -1.13,0 -2.04,0.874 -2.04,1.961 v 3.923 c 0,1.087 0.91,1.962 2.04,1.962 h 4.08 c 1.13,0 2.04,-0.875 2.04,-1.962 z m 0,-12 c 0,-1.087 -0.91,-1.961 -2.04,-1.961 h -4.08 c -1.13,0 -2.04,0.874 -2.04,1.961 v 3.923 c 0,1.087 0.91,1.962 2.04,1.962 h 4.08 c 1.13,0 2.04,-0.875 2.04,-1.962 z m 75.84,209.885 V 207.83 c 0,-3.284 -2.875,-5.945 -6.421,-5.945 H -77.74 c -3.546,0 -6.42,2.661 -6.42,5.945 v 14.055 h -16 v -20 -184 -20 h 6.04 c -1.13,0 -2.04,0.875 -2.04,1.962 V 3.77 c 0,1.086 0.91,1.96 2.04,1.96 h 4.08 c 1.13,0 2.04,-0.874 2.04,-1.96 v -3.923 c 0,-1.087 -0.91,-1.962 -2.04,-1.962 h 5.88 v 14.054 4 c 0,3.285 2.874,5.946 6.42,5.946 h 59.159 c 3.546,0 6.421,-2.661 6.421,-5.946 v -4 -14.054 h 16 v 20 184 20 z" /></g><path
           id="path24"
           style="fill:#f2f2f2;fill-opacity:1;fill-rule:nonzero;stroke:none"
           d="M 244,12 H 12 v 232 h 232 z m 0,236 H 12 8 V 244 12 8 h 4 232 4 v 4 232 4 z" /></g></g></g></svg>