<?xml version="1.0" encoding="UTF-8" standalone="no"?>
<svg
   xmlns:dc="http://purl.org/dc/elements/1.1/"
   xmlns:cc="http://creativecommons.org/ns#"
   xmlns:rdf="http://www.w3.org/1999/02/22-rdf-syntax-ns#"
   xmlns:svg="http://www.w3.org/2000/svg"
   xmlns="http://www.w3.org/2000/svg"
   viewBox="0 0 245.33333 245.33333"
   height="245.33333"
   width="245.33333"
   xml:space="preserve"
   id="svg2"
   version="1.1"><metadata
     id="metadata8"><rdf:RDF><cc:Work
         rdf:about=""><dc:format>image/svg+xml</dc:format><dc:type
           rdf:resource="http://purl.org/dc/dcmitype/StillImage" /></cc:Work></rdf:RDF></metadata><defs
     id="defs6"><clipPath
       id="clipPath18"
       clipPathUnits="userSpaceOnUse"><path
         id="path16"
         d="M 0,256 H 256 V 0 H 0 Z" /></clipPath></defs><g
     transform="matrix(1.3333333,0,0,-1.3333333,-47.999999,293.33333)"
     id="g10"><g
       id="g12"><g
         clip-path="url(#clipPath18)"
         id="g14"><g
           transform="translate(154.8799,156)"
           id="g20"><path
             id="path22"
             style="fill:#f2f2f2;fill-opacity:1;fill-rule:nonzero;stroke:none"
             d="m 0,0 h -8.393 -4.429 c -2.33,0 -4.552,-1.115 -5.956,-2.986 L -22.675,-8 h -8.41 l -3.896,5.014 C -36.386,-1.115 -38.607,0 -40.938,0 h -4.429 -8.393 l 5.286,-6.52 1.201,-1.48 h -3.607 -2.501 -5.499 -7.028 -3.007 l -0.835,-2.889 -4.824,-16.684 c -0.676,-2.289 -0.242,-4.721 1.199,-6.648 1.423,-1.904 3.597,-2.997 5.964,-2.997 h 4.329 l -0.492,-1.623 -1.562,-5.159 h 5.39 4.995 l -4.117,-5.642 -4.64,-6.358 h 7.871 10.27 2.109 l 1.192,1.74 7.024,10.26 H -18.7 l 7.151,-10.284 1.194,-1.716 h 2.09 10.143 7.871 L 5.108,-49.642 0.991,-44 h 4.994 5.392 l -1.563,5.159 -0.492,1.623 h 4.329 c 2.368,0 4.541,1.093 5.965,2.997 1.44,1.927 1.874,4.359 1.192,6.67 L 15.99,-10.889 15.155,-8 H 12.148 5.12 -0.037 -2.88 -6.486 l 1.2,1.48 z m -40.349,-28 h 2.938 c 1.398,0 2.531,1.133 2.531,2.531 v 2.938 c 0,1.398 -1.133,2.531 -2.531,2.531 h -2.938 c -1.398,0 -2.531,-1.133 -2.531,-2.531 v -2.938 c 0,-1.398 1.133,-2.531 2.531,-2.531 m 24,0 h 2.938 c 1.398,0 2.531,1.133 2.531,2.531 v 2.938 c 0,1.398 -1.133,2.531 -2.531,2.531 h -2.938 c -1.398,0 -2.531,-1.133 -2.531,-2.531 v -2.938 c 0,-1.398 1.133,-2.531 2.531,-2.531 m 7.956,24 -6.487,-8 h 12 L 1.3,-24 H 9.003 L 5.12,-12 h 7.028 l 4.824,-16.684 c 0.667,-2.259 -0.998,-4.534 -3.321,-4.534 H 3.932 L 5.985,-40 H -6.88 L 1.878,-52 H -8.265 l -8.344,12 H -37.15 l -8.217,-12 h -10.27 l 8.757,12 h -12.866 l 2.055,6.782 h -9.72 c -2.322,0 -3.987,2.275 -3.32,4.534 L -65.908,-12 h 7.028 l -3.883,-12 h 7.703 l 4.18,12 h 12 l -6.487,8 h 4.429 c 1.091,0 2.119,-0.522 2.773,-1.409 L -33.042,-12 h 12.324 l 5.123,6.591 c 0.655,0.887 1.682,1.409 2.773,1.409 h 4.429" /></g><path
           id="path24"
           style="fill:#f2f2f2;fill-opacity:1;fill-rule:nonzero;stroke:none"
           d="M 220,220 H 36 V 36 H 220 Z M 216,40 H 40 v 176 h 176 z" /><path
           id="path26"
           style="fill:#f2f2f2;fill-opacity:1;fill-rule:nonzero;stroke:none"
           d="M 192,192 H 64 V 64 H 192 Z M 188,68 H 68 v 120 h 120 z" /></g></g></g></svg>