<?xml version="1.0" encoding="UTF-8" standalone="no"?>
<svg
   xmlns:dc="http://purl.org/dc/elements/1.1/"
   xmlns:cc="http://creativecommons.org/ns#"
   xmlns:rdf="http://www.w3.org/1999/02/22-rdf-syntax-ns#"
   xmlns:svg="http://www.w3.org/2000/svg"
   xmlns="http://www.w3.org/2000/svg"
   viewBox="0 0 245.33333 245.33333"
   height="245.33333"
   width="245.33333"
   xml:space="preserve"
   id="svg2"
   version="1.1"><metadata
     id="metadata8"><rdf:RDF><cc:Work
         rdf:about=""><dc:format>image/svg+xml</dc:format><dc:type
           rdf:resource="http://purl.org/dc/dcmitype/StillImage" /></cc:Work></rdf:RDF></metadata><defs
     id="defs6" /><g
     transform="matrix(1.3333333,0,0,-1.3333333,-47.999999,293.33333)"
     id="g10"><g
       transform="translate(108,148)"
       id="g12"><path
         id="path14"
         style="fill:#ffffff;fill-opacity:1;fill-rule:nonzero;stroke:none"
         d="m 0,0 h -4 -12 -4 v -4 -12 -4 h 4 12 4 v 4 12 z m -4,-16 h -12 v 12 h 12 z" /></g><g
       transform="translate(128,144)"
       id="g16"><path
         id="path18"
         style="fill:#ffffff;fill-opacity:1;fill-rule:nonzero;stroke:none"
         d="m 0,0 h -4 -8 -4 v -4 -8 -4 h 4 8 4 v 4 8 z m -4,-12 h -8 v 8 h 8 z" /></g><g
       transform="translate(84,144)"
       id="g20"><path
         id="path22"
         style="fill:#ffffff;fill-opacity:1;fill-rule:nonzero;stroke:none"
         d="m 0,0 h -4 -8 -4 v -4 -8 -4 h 4 8 4 v 4 8 z m -4,-12 h -8 v 8 h 8 z" /></g><g
       transform="translate(104,164)"
       id="g24"><path
         id="path26"
         style="fill:#ffffff;fill-opacity:1;fill-rule:nonzero;stroke:none"
         d="m 0,0 h -4 -4 -4 v -4 -4 -4 h 4 4 4 v 4 4 z m -4,-8 h -4 v 4 h 4 z" /></g><g
       transform="translate(106,124)"
       id="g28"><path
         id="path30"
         style="fill:#ffffff;fill-opacity:1;fill-rule:nonzero;stroke:none"
         d="m 0,0 h -4 -8 -4 v -4 -8 -4 h 4 8 4 v 4 8 z m -4,-12 h -8 v 8 h 8 z" /></g><g
       transform="translate(104,104)"
       id="g32"><path
         id="path34"
         style="fill:#ffffff;fill-opacity:1;fill-rule:nonzero;stroke:none"
         d="m 0,0 h -4 -4 -4 v -4 -4 -4 h 4 4 4 v 4 4 z m -4,-8 h -4 v 4 h 4 z" /></g><g
       transform="translate(148,144)"
       id="g36"><path
         id="path38"
         style="fill:#ffffff;fill-opacity:1;fill-rule:nonzero;stroke:none"
         d="m 0,0 h -4 -8 -4 v -4 -8 -4 h 4 8 4 v 4 8 z m -4,-12 h -8 v 8 h 8 z" /></g><g
       transform="translate(168,144)"
       id="g40"><path
         id="path42"
         style="fill:#ffffff;fill-opacity:1;fill-rule:nonzero;stroke:none"
         d="m 0,0 h -4 -8 -4 v -4 -8 -4 h 4 8 4 v 4 8 z m -4,-12 h -8 v 8 h 8 z" /></g><g
       transform="translate(188,144)"
       id="g44"><path
         id="path46"
         style="fill:#ffffff;fill-opacity:1;fill-rule:nonzero;stroke:none"
         d="m 0,0 h -4 -8 -4 v -4 -8 -4 h 4 8 4 v 4 8 z m -4,-12 h -8 v 8 h 8 z" /></g><path
       id="path48"
       style="fill:#ffffff;fill-opacity:1;fill-rule:nonzero;stroke:none"
       d="M 220,220 H 36 V 36 H 220 Z M 216,40 H 40 v 176 h 176 z" /><g
       transform="translate(208,176)"
       id="g50"><path
         id="path52"
         style="fill:#ffffff;fill-opacity:1;fill-rule:nonzero;stroke:none"
         d="m 0,0 h -4 -4.471 -143.058 -4.471 -4 v -4 -4.4 -79.2 -4.4 -4 h 4 4.471 H -8.471 -4 0 v 4 4.4 79.2 4.4 z M -4,-4 V -8.4 -87.6 -92 H -8.471 -151.529 -156 v 4.4 79.2 4.4 h 4.471 143.058 z" /></g></g></svg>