<?xml version="1.0" encoding="UTF-8" standalone="no"?>
<svg
   xmlns:dc="http://purl.org/dc/elements/1.1/"
   xmlns:cc="http://creativecommons.org/ns#"
   xmlns:rdf="http://www.w3.org/1999/02/22-rdf-syntax-ns#"
   xmlns:svg="http://www.w3.org/2000/svg"
   xmlns="http://www.w3.org/2000/svg"
   viewBox="0 0 245.33333 245.33333"
   height="245.33333"
   width="245.33333"
   xml:space="preserve"
   id="svg2"
   version="1.1"><metadata
     id="metadata8"><rdf:RDF><cc:Work
         rdf:about=""><dc:format>image/svg+xml</dc:format><dc:type
           rdf:resource="http://purl.org/dc/dcmitype/StillImage" /></cc:Work></rdf:RDF></metadata><defs
     id="defs6"><clipPath
       id="clipPath18"
       clipPathUnits="userSpaceOnUse"><path
         id="path16"
         d="M 0,256 H 256 V 0 H 0 Z" /></clipPath></defs><g
     transform="matrix(1.3333333,0,0,-1.3333333,-47.999999,293.33333)"
     id="g10"><g
       id="g12"><g
         clip-path="url(#clipPath18)"
         id="g14"><g
           transform="translate(169.5996,91.5996)"
           id="g20"><path
             id="path22"
             style="fill:#ffffff;fill-opacity:1;fill-rule:nonzero;stroke:none"
             d="M 0,0 -12.35,5.752 C -17.181,1.139 -23.093,-2.345 -29.682,-4.269 l -0.878,-10.145 c -3.562,-0.77 -7.249,-1.186 -11.04,-1.186 -3.791,0 -7.477,0.416 -11.049,1.181 l -0.874,10.145 C -60.101,-2.35 -66.019,1.134 -70.85,5.746 L -83.2,0 c -4.95,5.45 -8.112,13.624 -10.4,20.801 l 9.301,4.8 c -0.002,-0.078 -0.012,-0.153 -0.012,-0.23 0,-2.137 0.833,-4.146 2.344,-5.657 l 14.142,-14.142 2.828,-2.829 c 1.512,-1.511 3.52,-2.343 5.657,-2.343 2.137,0 4.146,0.832 5.657,2.343 l 12.926,12.926 c 10.813,0.435 19.484,9.11 19.915,19.915 l 20.9,20.899 c 3.119,3.12 3.119,8.195 0,11.314 -1.512,1.512 -3.521,2.344 -5.658,2.344 -0.044,0 -0.087,-0.006 -0.13,-0.007 L 0,72.8 C 4.945,67.351 8.117,59.176 10.4,52 L -0.421,46.416 C 0.364,43.207 0.785,39.853 0.785,36.4 0.785,32.947 0.364,29.599 -0.421,26.385 L 10.4,20.801 C 8.117,13.624 4.945,5.45 0,0 m -93.6,52 c 2.288,7.176 5.45,15.351 10.4,20.8 l 12.35,-5.751 c 4.831,4.613 10.749,8.097 17.327,10.02 l 0.874,10.146 c 3.572,0.769 7.258,1.185 11.049,1.185 3.791,0 7.478,-0.416 11.04,-1.18 l 0.878,-10.145 c 6.589,-1.924 12.501,-5.408 17.332,-10.02 l 0.656,0.304 -15.737,-15.736 c -3.715,3.466 -8.687,5.604 -14.169,5.604 -11.486,0 -20.799,-9.314 -20.799,-20.806 0,-5.477 2.137,-10.447 5.603,-14.163 l -2.544,-2.544 -11.313,11.313 c -1.512,1.512 -3.52,2.344 -5.658,2.344 -2.136,0 -4.145,-0.832 -5.656,-2.344 -0.555,-0.554 -1.016,-1.177 -1.381,-1.847 -0.405,2.346 -0.631,4.756 -0.631,7.22 0,3.453 0.426,6.807 1.201,10.016 z m 39.636,-26.91 c -2.744,2.991 -4.435,6.963 -4.435,11.331 0,9.267 7.536,16.806 16.799,16.806 4.371,0 8.344,-1.692 11.335,-4.438 z m 28.082,5.455 c -1.702,-4.533 -5.301,-8.132 -9.834,-9.835 z m 17.454,34.424 c 1.562,1.562 4.095,1.562 5.657,0 1.562,-1.562 1.562,-4.095 0,-5.657 l -53.74,-53.74 c -1.562,-1.562 -4.095,-1.562 -5.657,0 L -64.997,8.4 -79.139,22.543 c -1.562,1.561 -1.562,4.095 0,5.656 1.562,1.563 4.095,1.563 5.657,0 L -59.34,14.058 Z M 4.112,28.547 c 0.448,2.594 0.673,5.224 0.673,7.853 0,2.633 -0.225,5.264 -0.672,7.854 l 8.122,4.192 3.001,1.549 -1.024,3.218 C 12.135,59.743 8.709,69.156 2.963,75.488 l -1.98,2.181 -2.67,-1.242 -9.956,-4.632 c -4.232,3.583 -9.093,6.395 -14.282,8.261 l -0.65,7.509 -0.255,2.946 -2.891,0.62 c -3.925,0.842 -7.922,1.269 -11.879,1.269 -3.963,0 -7.964,-0.429 -11.892,-1.275 l -2.889,-0.622 -0.254,-2.945 -0.646,-7.508 c -5.187,-1.868 -10.045,-4.679 -14.275,-8.259 l -9.955,4.636 -2.67,1.242 -1.979,-2.179 c -5.666,-6.237 -8.988,-15.18 -11.251,-22.275 l -1.026,-3.219 3.003,-1.55 8.127,-4.195 c -0.447,-2.605 -0.672,-5.233 -0.672,-7.851 0,-2.614 0.225,-5.243 0.672,-7.85 l -8.127,-4.196 -3.003,-1.549 1.026,-3.22 c 2.263,-7.095 5.585,-16.038 11.251,-22.274 l 1.979,-2.179 2.669,1.242 9.955,4.632 c 4.231,-3.581 9.088,-6.392 14.276,-8.26 l 0.646,-7.509 0.254,-2.949 2.895,-0.619 c 3.935,-0.842 7.934,-1.269 11.886,-1.269 3.968,0 7.966,0.43 11.885,1.276 l 2.885,0.624 0.255,2.941 0.65,7.509 c 5.19,1.866 10.049,4.677 14.281,8.26 l 9.956,-4.636 2.67,-1.243 1.981,2.181 c 5.746,6.333 9.172,15.747 11.249,22.276 l 1.024,3.218 -3.001,1.548 z" /></g><path
           id="path24"
           style="fill:#ffffff;fill-opacity:1;fill-rule:nonzero;stroke:none"
           d="M 220,220 H 36 V 36 H 220 Z M 216,40 H 40 v 176 h 176 z" /></g></g></g></svg>