<?xml version="1.0" encoding="UTF-8" standalone="no"?>
<svg
   xmlns:dc="http://purl.org/dc/elements/1.1/"
   xmlns:cc="http://creativecommons.org/ns#"
   xmlns:rdf="http://www.w3.org/1999/02/22-rdf-syntax-ns#"
   xmlns:svg="http://www.w3.org/2000/svg"
   xmlns="http://www.w3.org/2000/svg"
   viewBox="0 0 320 320"
   height="320"
   width="320"
   xml:space="preserve"
   id="svg2"
   version="1.1"><metadata
     id="metadata8"><rdf:RDF><cc:Work
         rdf:about=""><dc:format>image/svg+xml</dc:format><dc:type
           rdf:resource="http://purl.org/dc/dcmitype/StillImage" /></cc:Work></rdf:RDF></metadata><defs
     id="defs6"><clipPath
       id="clipPath18"
       clipPathUnits="userSpaceOnUse"><path
         id="path16"
         d="M 0,256 H 256 V 0 H 0 Z" /></clipPath></defs><g
     transform="matrix(1.3333333,0,0,-1.3333333,-10.666666,330.66666)"
     id="g10"><g
       id="g12"><g
         clip-path="url(#clipPath18)"
         id="g14"><g
           transform="translate(128,200)"
           id="g20"><path
             id="path22"
             style="fill:#f2f2f2;fill-opacity:1;fill-rule:nonzero;stroke:none"
             d="m 0,0 c -22.056,0 -40,-17.944 -40,-40 0,-22.056 17.944,-40 40,-40 22.056,0 40,17.944 40,40 C 40,-17.944 22.056,0 0,0 m 0,-4 c 19.882,0 36,-16.118 36,-36 0,-19.882 -16.118,-36 -36,-36 -19.882,0 -36,16.118 -36,36 0,19.882 16.118,36 36,36" /></g><g
           transform="translate(154.4326,125.8262)"
           id="g24"><path
             id="path26"
             style="fill:#f2f2f2;fill-opacity:1;fill-rule:nonzero;stroke:none"
             d="m 0,0 -2.687,-1.989 c -6.923,-5.127 -15.135,-7.837 -23.746,-7.837 -8.61,0 -16.821,2.71 -23.746,7.837 L -52.865,0 -55.3,-2.29 c -8.181,-7.696 -15.013,-18.653 -19.756,-31.688 -4.826,-13.261 -7.377,-28.423 -7.377,-43.848 0,-4.059 0.186,-8.215 0.553,-12.353 l 0.323,-3.647 h 3.661 102.926 3.661 l 0.324,3.647 c 0.367,4.138 0.552,8.294 0.552,12.353 0,15.425 -2.55,30.587 -7.376,43.848 C 17.448,-20.943 10.616,-9.986 2.435,-2.29 Z m -0.306,-5.203 c 15.47,-14.553 25.873,-41.619 25.873,-72.623 0,-4.076 -0.189,-8.079 -0.537,-12 H -77.896 c -0.347,3.921 -0.537,7.924 -0.537,12 0,31.004 10.403,58.07 25.874,72.623 7.311,-5.414 16.351,-8.623 26.126,-8.623 9.777,0 18.815,3.209 26.127,8.623" /></g><path
           id="path28"
           style="fill:#f2f2f2;fill-opacity:1;fill-rule:nonzero;stroke:none"
           d="M 244,12 H 12 v 232 h 232 z m 0,236 H 12 8 V 244 12 8 h 4 232 4 v 4 232 4 z" /></g></g></g></svg>