<?xml version="1.0" encoding="UTF-8" standalone="no"?>
<svg
   xmlns:dc="http://purl.org/dc/elements/1.1/"
   xmlns:cc="http://creativecommons.org/ns#"
   xmlns:rdf="http://www.w3.org/1999/02/22-rdf-syntax-ns#"
   xmlns:svg="http://www.w3.org/2000/svg"
   xmlns="http://www.w3.org/2000/svg"
   viewBox="0 0 245.33333 245.33333"
   height="245.33333"
   width="245.33333"
   xml:space="preserve"
   id="svg2"
   version="1.1"><metadata
     id="metadata8"><rdf:RDF><cc:Work
         rdf:about=""><dc:format>image/svg+xml</dc:format><dc:type
           rdf:resource="http://purl.org/dc/dcmitype/StillImage" /></cc:Work></rdf:RDF></metadata><defs
     id="defs6"><clipPath
       id="clipPath18"
       clipPathUnits="userSpaceOnUse"><path
         id="path16"
         d="M 0,256 H 256 V 0 H 0 Z" /></clipPath></defs><g
     transform="matrix(1.3333333,0,0,-1.3333333,-47.999999,293.33333)"
     id="g10"><g
       id="g12"><g
         clip-path="url(#clipPath18)"
         id="g14"><g
           transform="translate(128,44)"
           id="g20"><path
             id="path22"
             style="fill:#ffffff;fill-opacity:1;fill-rule:nonzero;stroke:none"
             d="m 0,0 c -46.392,0 -84,37.608 -84,84 0,46.392 37.608,84 84,84 46.392,0 84,-37.608 84,-84 C 84,37.608 46.392,0 0,0 m 0,172 c -48.523,0 -88,-39.477 -88,-88 0,-48.523 39.477,-88 88,-88 48.523,0 88,39.477 88,88 0,48.523 -39.477,88 -88,88" /></g><g
           transform="translate(176,68)"
           id="g24"><path
             id="path26"
             style="fill:#ffffff;fill-opacity:1;fill-rule:nonzero;stroke:none"
             d="m 0,0 c -6.627,0 -12,5.373 -12,12 0,5.223 3.343,9.653 8,11.303 V 52 c 0,2.209 -1.791,4 -4,4 h -16.338 c 0.218,1.302 0.338,2.637 0.338,4 0,1.364 -0.12,2.699 -0.338,4 H -8 c 2.209,0 4,1.791 4,4 v 28.697 c -4.657,1.65 -8,6.08 -8,11.303 0,6.627 5.373,12 12,12 6.627,0 12,-5.373 12,-12 0,-5.223 -3.343,-9.653 -8,-11.303 V 23.303 C 8.657,21.653 12,17.223 12,12 12,5.373 6.627,0 0,0 m -33.857,45.857 c -1.868,-1.866 -4.016,-3.273 -6.305,-4.248 -0.203,-0.087 -0.407,-0.17 -0.613,-0.25 -0.45,-0.173 -0.902,-0.336 -1.36,-0.475 -0.128,-0.04 -0.258,-0.075 -0.386,-0.113 -3.579,-1.015 -7.38,-1.015 -10.958,0 -0.128,0.038 -0.258,0.073 -0.386,0.113 -0.458,0.139 -0.91,0.302 -1.359,0.475 -0.206,0.08 -0.411,0.163 -0.614,0.25 -2.288,0.975 -4.437,2.382 -6.304,4.248 -1.867,1.868 -3.275,4.016 -4.249,6.305 -0.087,0.203 -0.17,0.407 -0.25,0.614 -0.173,0.449 -0.335,0.901 -0.475,1.358 -0.04,0.129 -0.076,0.259 -0.113,0.388 -1.016,3.578 -1.016,7.378 0,10.955 0.037,0.13 0.073,0.26 0.113,0.389 0.14,0.457 0.302,0.909 0.475,1.358 0.08,0.206 0.163,0.411 0.25,0.614 0.975,2.289 2.382,4.437 4.249,6.304 1.867,1.867 4.015,3.275 6.304,4.249 0.203,0.087 0.408,0.17 0.614,0.25 0.449,0.173 0.9,0.335 1.358,0.475 0.129,0.04 0.259,0.076 0.389,0.113 3.577,1.016 7.377,1.016 10.955,0 0.129,-0.037 0.259,-0.073 0.388,-0.113 0.457,-0.14 0.909,-0.302 1.358,-0.475 0.206,-0.08 0.411,-0.163 0.615,-0.25 2.288,-0.975 4.436,-2.382 6.304,-4.249 1.866,-1.867 3.273,-4.015 4.248,-6.304 0.087,-0.203 0.17,-0.408 0.251,-0.614 0.172,-0.449 0.335,-0.901 0.474,-1.358 0.04,-0.129 0.076,-0.259 0.113,-0.389 1.015,-3.577 1.015,-7.377 0,-10.955 -0.037,-0.129 -0.073,-0.259 -0.113,-0.387 -0.139,-0.458 -0.302,-0.91 -0.475,-1.36 -0.08,-0.206 -0.163,-0.41 -0.25,-0.613 -0.975,-2.289 -2.382,-4.437 -4.248,-6.305 M -36,12 c 0,-6.627 -5.373,-12 -12,-12 -6.627,0 -12,5.373 -12,12 0,5.223 3.342,9.653 8,11.303 V 36.338 C -50.699,36.12 -49.364,36 -48,36 c 1.363,0 2.698,0.12 4,0.338 V 23.303 c 4.657,-1.65 8,-6.08 8,-11.303 m -52,44 c -2.209,0 -4,-1.791 -4,-4 V 23.303 c 4.658,-1.65 8,-6.08 8,-11.303 0,-6.627 -5.373,-12 -12,-12 -6.627,0 -12,5.373 -12,12 0,5.223 3.342,9.653 8,11.303 v 73.394 c -4.658,1.65 -8,6.08 -8,11.303 0,6.627 5.373,12 12,12 6.627,0 12,-5.373 12,-12 0,-5.223 -3.342,-9.653 -8,-11.303 V 68 c 0,-2.209 1.791,-4 4,-4 h 16.338 C -71.88,62.699 -72,61.364 -72,60 c 0,-1.363 0.12,-2.698 0.338,-4 z m 28,52 c 0,6.627 5.373,12 12,12 6.627,0 12,-5.373 12,-12 0,-5.223 -3.343,-9.653 -8,-11.303 V 83.662 C -45.302,83.88 -46.637,84 -48,84 c -1.364,0 -2.699,-0.12 -4,-0.338 v 13.035 c -4.658,1.65 -8,6.08 -8,11.303 M 8,25.844 v 68.312 c 4.879,2.822 8,8.078 8,13.844 0,8.822 -7.178,16 -16,16 -8.822,0 -16,-7.178 -16,-16 0,-5.766 3.121,-11.022 8,-13.844 V 68 h -17.371 c -2.41,6.817 -7.812,12.219 -14.629,14.629 v 11.527 c 4.879,2.822 8,8.078 8,13.844 0,8.822 -7.178,16 -16,16 -8.822,0 -16,-7.178 -16,-16 0,-5.766 3.121,-11.022 8,-13.844 V 82.629 C -62.817,80.219 -68.219,74.817 -70.629,68 H -88 v 26.156 c 4.879,2.822 8,8.078 8,13.844 0,8.822 -7.178,16 -16,16 -8.822,0 -16,-7.178 -16,-16 0,-5.766 3.121,-11.022 8,-13.844 V 25.844 c -4.879,-2.822 -8,-8.077 -8,-13.844 0,-8.822 7.178,-16 16,-16 8.822,0 16,7.178 16,16 0,5.767 -3.121,11.022 -8,13.844 V 52 h 17.371 C -68.219,45.183 -62.817,39.781 -56,37.371 V 25.844 c -4.879,-2.822 -8,-8.077 -8,-13.844 0,-8.822 7.178,-16 16,-16 8.822,0 16,7.178 16,16 0,5.767 -3.121,11.022 -8,13.844 v 11.527 c 6.817,2.41 12.219,7.812 14.629,14.629 H -8 V 25.844 C -12.879,23.022 -16,17.767 -16,12 -16,3.178 -8.822,-4 0,-4 c 8.822,0 16,7.178 16,16 0,5.767 -3.121,11.022 -8,13.844" /></g><path
           id="path28"
           style="fill:#ffffff;fill-opacity:1;fill-rule:nonzero;stroke:none"
           d="M 220,220 H 36 V 36 H 220 Z M 216,40 H 40 v 176 h 176 z" /></g></g></g></svg>