<?xml version="1.0" encoding="UTF-8" standalone="no"?>
<svg
   xmlns:dc="http://purl.org/dc/elements/1.1/"
   xmlns:cc="http://creativecommons.org/ns#"
   xmlns:rdf="http://www.w3.org/1999/02/22-rdf-syntax-ns#"
   xmlns:svg="http://www.w3.org/2000/svg"
   xmlns="http://www.w3.org/2000/svg"
   viewBox="0 0 320 320"
   height="320"
   width="320"
   xml:space="preserve"
   version="1.1"
   id="svg2"><metadata
     id="metadata8"><rdf:RDF><cc:Work
         rdf:about=""><dc:format>image/svg+xml</dc:format><dc:type
           rdf:resource="http://purl.org/dc/dcmitype/StillImage" /></cc:Work></rdf:RDF></metadata><defs
     id="defs6"><clipPath
       id="clipPath16"
       clipPathUnits="userSpaceOnUse"><path
         id="path18"
         d="M 0,256 256,256 256,0 0,0 0,256 Z" /></clipPath></defs><g
     transform="matrix(1.25,0,0,-1.25,0,320)"
     id="g10"><g
       id="g12"><g
         clip-path="url(#clipPath16)"
         id="g14"><g
           transform="translate(240,240)"
           id="g20"><path
             id="path22"
             style="fill:#f2f2f2;fill-opacity:1;fill-rule:nonzero;stroke:none"
             d="m 0,0 -204,0 0,4 202,0 C -0.896,4 0,3.104 0,2 L 0,0 Z m 0,-124 -204,0 0,120 204,0 0,-120 z m 0,-96 -95.51,0 62.117,88 -4,0 -62.117,-88 -4,0 62.117,88 -4,0 -62.117,-88 -4,0 62.117,88 -4,0 -62.117,-88 -4,0 62.117,88 -4,0 -62.117,-88 -4,0 62.117,88 -4,0 -62.117,-88 -4,0 62.117,88 -4,0 -62.117,-88 -4,0 62.117,88 -4,0 -62.117,-88 -4,0 62.117,88 -4,0 -62.117,-88 -4,0 62.117,88 -4,0 -62.117,-88 -4,0 62.117,88 -4,0 -62.117,-88 -4,0 62.118,88 -4,0 -62.118,-88 -4,0 62.118,88 -4,0 -62.118,-88 -4,0 62.118,88 -4,0 -62.118,-88 -4,0 62.118,88 -4,0 -62.118,-88 -0.49,0 0,4.973 58.608,83.027 -4,0 -54.608,-77.361 0,5.667 50.608,71.694 -4,0 -46.608,-66.027 0,5.666 42.608,60.361 -4,0 -38.608,-54.694 0,5.667 34.608,49.027 -4,0 -30.608,-43.361 0,5.667 26.608,37.694 -4,0 -22.608,-32.027 0,5.666 18.608,26.361 -4,0 -14.608,-20.694 0,5.667 10.608,15.027 -4,0 -6.608,-9.361 0,5.361 0,0.306 2.608,3.694 -2.608,0 0,4 204,0 0,-92 z m 0,-6 c 0,-1.104 -0.896,-2 -2,-2 l -202,0 0,4 1.667,0 4,0 4,0 4,0 4,0 4,0 4,0 4,0 4,0 4,0 4,0 4,0 4,0 4,0 4,0 4,0 4,0 4,0 4,0 4,0 4,0 4,0 4,0 4,0 4,0 4,0 4,0 98.333,0 0,-2 z m -208,226 -16,0 0,2 c 0,1.104 0.896,2 2,2 l 6,0 4,0 4,0 0,-4 z m 0,-124 -16,0 0,120 16,0 0,-120 z m 0,-8 0,-4 0,-4 0,-1.361 0,-5.666 0,-5.667 0,-5.667 0,-5.666 0,-5.667 0,-5.667 0,-5.666 0,-5.667 0,-5.667 0,-5.666 0,-5.667 0,-5.667 0,-5.666 0,-4.973 -16,0 0,80 0,4 0,4 0,4 16,0 0,-4 z m 0,-96 -4,0 -4,0 -6,0 c -1.104,0 -2,0.896 -2,2 l 0,2 16,0 0,-4 z M -2,8 l -202,0 -4,0 -4,0 -4,0 -6,0 c -3.309,0 -6,-2.691 -6,-6 l 0,-126 0,-4 0,-4 0,-4 0,-90 c 0,-3.309 2.691,-6 6,-6 l 6,0 4,0 4,0 4,0 202,0 c 3.309,0 6,2.691 6,6 l 0,98 0,4 L 4,2 C 4,5.309 1.309,8 -2,8" /></g></g></g></g></svg>