<?xml version="1.0" encoding="UTF-8" standalone="no"?>
<svg
   xmlns:dc="http://purl.org/dc/elements/1.1/"
   xmlns:cc="http://creativecommons.org/ns#"
   xmlns:rdf="http://www.w3.org/1999/02/22-rdf-syntax-ns#"
   xmlns:svg="http://www.w3.org/2000/svg"
   xmlns="http://www.w3.org/2000/svg"
   viewBox="0 0 320 320"
   height="320"
   width="320"
   xml:space="preserve"
   version="1.1"
   id="svg2"><metadata
     id="metadata8"><rdf:RDF><cc:Work
         rdf:about=""><dc:format>image/svg+xml</dc:format><dc:type
           rdf:resource="http://purl.org/dc/dcmitype/StillImage" /></cc:Work></rdf:RDF></metadata><defs
     id="defs6" /><g
     transform="matrix(1.25,0,0,-1.25,0,320)"
     id="g10"><g
       transform="translate(75,93.3262)"
       id="g12"><path
         id="path14"
         style="fill:#f2f2f2;fill-opacity:1;fill-rule:nonzero;stroke:none"
         d="M 0,0 0,47.702 3.211,46.096 7,44.202 l 2.211,-1.106 6,-3 3.789,-1.894 0,-9.528 0,-2.472 2.211,-1.106 6,-3 5.789,-2.894 0,6.472 0,5.528 0.211,-0.106 5.789,-2.894 0,0.11 0.161,-0.083 6,-3.107 L 46,24.687 46,-23 0,0 Z m 105,47.202 1,0.5 L 106,0 60,-23 l 0,38.702 0.789,0.394 6,3 2.211,1.106 0,2.472 0,3.528 3.789,1.894 6,3 0.211,0.106 0,-3 5.789,2.894 6,3 0.211,0.106 0,-0.423 5.889,3.155 6,3.214 2.111,1.131 0,2.395 0,3.528 z m -52,60.944 -1.789,-0.895 -60,-30 -2.211,-1.105 0,-2.472 0,-78 0,-2.472 2.211,-1.106 60,-30 1.789,-0.894 1.789,0.894 60,30 2.211,1.106 0,2.472 0,78 0,2.472 -2.211,1.105 -60,30 L 53,108.146 Z M 5,49.674 l -6,3 0,6 -3,1.5 0,-62.646 54,-27 0,62.646 -3,1.5 0,-6 -6,3.107 0,5.893 -6,3 0,-6 -6,3 0,-12 -6,3 0,18 -6,3 0,-6 -6,3 0,12 -6,3 0,-12 m 90,-9.215 0,9.215 -6,-3 0,-9 -6,-3 0,12 -6,-3 0,-9 -6,-3 0,6 -6,-3 0,-12 -6,-3 0,12.107 -3,-1.553 0,-59.7 54,27 0,65.646 -3,-1.5 0,-9 -6,-3 0,-6 -6,-3.215 m -42,63.215 60,-30 0,-78 -60,-30 -60,30 0,78 60,30 z" /></g><g
       transform="translate(212,212)"
       id="g16"><path
         id="path18"
         style="fill:#f2f2f2;fill-opacity:1;fill-rule:nonzero;stroke:none"
         d="m 0,0 -4,0 -160,0 -4,0 0,-4 0,-160 0,-4 4,0 160,0 4,0 0,4 0,160 0,4 z m -4,-164 -160,0 0,160 160,0 0,-160 z" /></g></g></svg>