<?xml version="1.0" encoding="UTF-8" standalone="no"?>
<svg
   xmlns:dc="http://purl.org/dc/elements/1.1/"
   xmlns:cc="http://creativecommons.org/ns#"
   xmlns:rdf="http://www.w3.org/1999/02/22-rdf-syntax-ns#"
   xmlns:svg="http://www.w3.org/2000/svg"
   xmlns="http://www.w3.org/2000/svg"
   viewBox="0 0 320 320"
   height="320"
   width="320"
   xml:space="preserve"
   version="1.1"
   id="svg2"><metadata
     id="metadata8"><rdf:RDF><cc:Work
         rdf:about=""><dc:format>image/svg+xml</dc:format><dc:type
           rdf:resource="http://purl.org/dc/dcmitype/StillImage" /></cc:Work></rdf:RDF></metadata><defs
     id="defs6" /><g
     transform="matrix(1.25,0,0,-1.25,0,320)"
     id="g10"><g
       transform="translate(172,140)"
       id="g12"><path
         id="path14"
         style="fill:#f2f2f2;fill-opacity:1;fill-rule:nonzero;stroke:none"
         d="m 0,0 0,-8 0,-64 -88,0 0,120 12,0 28,0 4,0 L -44,4 0,4 0,0 Z M -40,42.343 -5.657,8 -40,8 l 0,34.343 z m -4,9.657 -48,0 0,-128 96,0 0,80 -48,48 z" /></g><path
       id="path16"
       style="fill:#f2f2f2;fill-opacity:1;fill-rule:nonzero;stroke:none"
       d="m 96,76 -4,0 0,96 4,0 0,-96 z" /><path
       id="path18"
       style="fill:#f2f2f2;fill-opacity:1;fill-rule:nonzero;stroke:none"
       d="m 104,76 -4,0 0,96 4,0 0,-96 z" /><path
       id="path20"
       style="fill:#f2f2f2;fill-opacity:1;fill-rule:nonzero;stroke:none"
       d="m 156,76 -4,0 0,72 4,0 0,-72 z" /><path
       id="path22"
       style="fill:#f2f2f2;fill-opacity:1;fill-rule:nonzero;stroke:none"
       d="m 164,76 -4,0 0,72 4,0 0,-72 z" /><path
       id="path24"
       style="fill:#f2f2f2;fill-opacity:1;fill-rule:nonzero;stroke:none"
       d="m 156,92 -52,0 0,4 52,0 0,-4 z" /><path
       id="path26"
       style="fill:#f2f2f2;fill-opacity:1;fill-rule:nonzero;stroke:none"
       d="m 156,124 -52,0 0,4 52,0 0,-4 z" /><path
       id="path28"
       style="fill:#f2f2f2;fill-opacity:1;fill-rule:nonzero;stroke:none"
       d="m 132,156 -28,0 0,4 28,0 0,-4 z" /><path
       id="path30"
       style="fill:#f2f2f2;fill-opacity:1;fill-rule:nonzero;stroke:none"
       d="m 104,164 -12,0 0,4 12,0 0,-4 z" /><path
       id="path32"
       style="fill:#f2f2f2;fill-opacity:1;fill-rule:nonzero;stroke:none"
       d="m 104,156 -12,0 0,4 12,0 0,-4 z" /><path
       id="path34"
       style="fill:#f2f2f2;fill-opacity:1;fill-rule:nonzero;stroke:none"
       d="m 104,148 -12,0 0,4 12,0 0,-4 z" /><path
       id="path36"
       style="fill:#f2f2f2;fill-opacity:1;fill-rule:nonzero;stroke:none"
       d="m 104,140 -12,0 0,4 12,0 0,-4 z" /><path
       id="path38"
       style="fill:#f2f2f2;fill-opacity:1;fill-rule:nonzero;stroke:none"
       d="m 104,132 -12,0 0,4 12,0 0,-4 z" /><path
       id="path40"
       style="fill:#f2f2f2;fill-opacity:1;fill-rule:nonzero;stroke:none"
       d="m 104,124 -12,0 0,4 12,0 0,-4 z" /><path
       id="path42"
       style="fill:#f2f2f2;fill-opacity:1;fill-rule:nonzero;stroke:none"
       d="m 104,116 -12,0 0,4 12,0 0,-4 z" /><path
       id="path44"
       style="fill:#f2f2f2;fill-opacity:1;fill-rule:nonzero;stroke:none"
       d="m 104,108 -12,0 0,4 12,0 0,-4 z" /><path
       id="path46"
       style="fill:#f2f2f2;fill-opacity:1;fill-rule:nonzero;stroke:none"
       d="m 104,100 -12,0 0,4 12,0 0,-4 z" /><path
       id="path48"
       style="fill:#f2f2f2;fill-opacity:1;fill-rule:nonzero;stroke:none"
       d="m 104,92 -12,0 0,4 12,0 0,-4 z" /><path
       id="path50"
       style="fill:#f2f2f2;fill-opacity:1;fill-rule:nonzero;stroke:none"
       d="m 104,84 -12,0 0,4 12,0 0,-4 z" /><path
       id="path52"
       style="fill:#f2f2f2;fill-opacity:1;fill-rule:nonzero;stroke:none"
       d="m 104,76 -12,0 0,4 12,0 0,-4 z" /><path
       id="path54"
       style="fill:#f2f2f2;fill-opacity:1;fill-rule:nonzero;stroke:none"
       d="m 164,76 -12,0 0,4 12,0 0,-4 z" /><path
       id="path56"
       style="fill:#f2f2f2;fill-opacity:1;fill-rule:nonzero;stroke:none"
       d="m 164,84 -12,0 0,4 12,0 0,-4 z" /><path
       id="path58"
       style="fill:#f2f2f2;fill-opacity:1;fill-rule:nonzero;stroke:none"
       d="m 164,92 -12,0 0,4 12,0 0,-4 z" /><path
       id="path60"
       style="fill:#f2f2f2;fill-opacity:1;fill-rule:nonzero;stroke:none"
       d="m 164,100 -12,0 0,4 12,0 0,-4 z" /><path
       id="path62"
       style="fill:#f2f2f2;fill-opacity:1;fill-rule:nonzero;stroke:none"
       d="m 164,108 -12,0 0,4 12,0 0,-4 z" /><path
       id="path64"
       style="fill:#f2f2f2;fill-opacity:1;fill-rule:nonzero;stroke:none"
       d="m 164,116 -12,0 0,4 12,0 0,-4 z" /><path
       id="path66"
       style="fill:#f2f2f2;fill-opacity:1;fill-rule:nonzero;stroke:none"
       d="m 164,124 -12,0 0,4 12,0 0,-4 z" /><path
       id="path68"
       style="fill:#f2f2f2;fill-opacity:1;fill-rule:nonzero;stroke:none"
       d="m 164,132 -12,0 0,4 12,0 0,-4 z" /><path
       id="path70"
       style="fill:#f2f2f2;fill-opacity:1;fill-rule:nonzero;stroke:none"
       d="m 164,140 -12,0 0,4 12,0 0,-4 z" /></g></svg>