<?xml version="1.0" encoding="UTF-8" standalone="no"?>
<svg
   xmlns:dc="http://purl.org/dc/elements/1.1/"
   xmlns:cc="http://creativecommons.org/ns#"
   xmlns:rdf="http://www.w3.org/1999/02/22-rdf-syntax-ns#"
   xmlns:svg="http://www.w3.org/2000/svg"
   xmlns="http://www.w3.org/2000/svg"
   viewBox="0 0 128 170.66665"
   height="170.66666"
   width="128"
   xml:space="preserve"
   id="svg2"
   version="1.1"><metadata
     id="metadata8"><rdf:RDF><cc:Work
         rdf:about=""><dc:format>image/svg+xml</dc:format><dc:type
           rdf:resource="http://purl.org/dc/dcmitype/StillImage" /></cc:Work></rdf:RDF></metadata><defs
     id="defs6"><clipPath
       id="clipPath22"
       clipPathUnits="userSpaceOnUse"><path
         id="path20"
         d="M 0,256 H 256 V 0 H 0 Z" /></clipPath></defs><g
     transform="matrix(1.3333333,0,0,-1.3333333,-106.66666,255.99999)"
     id="g10"><g
       transform="translate(172,140)"
       id="g12"><path
         id="path14"
         style="fill:#f2f2f2;fill-opacity:1;fill-rule:nonzero;stroke:none"
         d="M 0,0 V -8 -72 H -88 V 48 h 12 28 4 V 4 H 0 Z M -40,42.343 -5.657,8 H -40 Z M -44,52 H -92 V -76 H 4 V 4 Z" /></g><g
       id="g16"><g
         clip-path="url(#clipPath22)"
         id="g18"><g
           transform="translate(159.9951,146.5664)"
           id="g24"><path
             id="path26"
             style="fill:#f2f2f2;fill-opacity:1;fill-rule:nonzero;stroke:none"
             d="m 0,0 -4.526,-0.601 -0.227,-0.027 c -0.222,-0.026 -0.496,-0.057 -0.829,-0.133 l -8.904,-2.047 c -9.43,-2.169 -19.18,-4.411 -28.773,-6.592 -1.27,-0.288 -4.229,-1.393 -4.277,-5.403 -0.085,-7.052 -0.187,-14.105 -0.289,-21.157 -0.056,-3.847 -0.112,-7.693 -0.164,-11.54 -0.002,-0.104 -0.003,-0.207 -0.004,-0.31 -1.196,0.272 -2.421,0.412 -3.647,0.412 -7.307,0 -13.821,-4.857 -15.841,-11.81 -1.037,-3.567 -0.477,-7.287 1.536,-10.207 2.022,-2.932 5.322,-4.787 9.054,-5.089 0.511,-0.042 1.028,-0.062 1.536,-0.062 10.05,0 18.032,8.065 18.171,18.362 0.161,11.86 0.259,21.787 0.308,31.078 5.708,1.236 11.47,2.517 17.057,3.759 2.424,0.539 4.849,1.077 7.275,1.614 0.522,0.115 1.043,0.23 1.564,0.343 v -20.047 c -1.093,0.209 -2.208,0.314 -3.338,0.314 -7.263,0 -13.742,-4.275 -16.505,-10.892 -1.384,-3.312 -1.191,-6.987 0.527,-10.084 1.652,-2.976 4.524,-4.996 7.877,-5.544 1.33,-0.217 2.68,-0.326 4.012,-0.326 1.57,0 3.086,0.152 4.504,0.455 8.966,1.909 14.008,8.056 13.834,16.865 -0.148,7.442 -0.077,15.043 -0.008,22.394 0.032,3.36 0.063,6.72 0.075,10.079 0.01,2.616 0.007,5.233 0.005,7.902 L 0,-4.566 Z m -4,-4.566 c 0,-3.981 0.012,-7.798 -0.002,-11.616 -0.038,-10.855 -0.281,-21.715 -0.066,-32.567 0.155,-7.839 -4.633,-11.588 -10.669,-12.873 -1.18,-0.252 -2.425,-0.367 -3.67,-0.367 -1.137,0 -2.276,0.095 -3.367,0.274 -4.68,0.764 -7.186,5.763 -5.359,10.138 2.196,5.256 7.401,8.434 12.815,8.434 1.88,0 3.785,-0.382 5.598,-1.195 0.47,-0.21 0.938,-0.425 1.74,-0.789 v 30.67 c -2.032,-0.439 -4.232,-0.905 -6.428,-1.391 -8.607,-1.903 -17.205,-3.838 -25.821,-5.694 -1.249,-0.27 -1.633,-0.745 -1.639,-2.043 -0.052,-10.855 -0.169,-21.711 -0.316,-32.565 -0.111,-8.224 -6.35,-14.416 -14.171,-14.416 -0.401,0 -0.805,0.016 -1.213,0.048 -5.288,0.428 -8.545,5.123 -7.072,10.194 1.602,5.513 6.664,8.926 12,8.926 2.016,0 4.071,-0.487 5.994,-1.532 0.443,-0.241 0.885,-0.487 1.652,-0.91 0,2.263 -0.024,4.275 0.004,6.285 0.15,10.901 0.322,21.802 0.453,32.703 0.011,0.885 0.213,1.335 1.164,1.552 12.567,2.857 25.126,5.755 37.686,8.64 0.176,0.041 0.359,0.05 0.687,0.094" /></g></g></g></g></svg>