<?xml version="1.0" encoding="UTF-8" standalone="no"?>
<svg
   xmlns:dc="http://purl.org/dc/elements/1.1/"
   xmlns:cc="http://creativecommons.org/ns#"
   xmlns:rdf="http://www.w3.org/1999/02/22-rdf-syntax-ns#"
   xmlns:svg="http://www.w3.org/2000/svg"
   xmlns="http://www.w3.org/2000/svg"
   viewBox="0 0 320 320"
   height="320"
   width="320"
   xml:space="preserve"
   version="1.1"
   id="svg2"><metadata
     id="metadata8"><rdf:RDF><cc:Work
         rdf:about=""><dc:format>image/svg+xml</dc:format><dc:type
           rdf:resource="http://purl.org/dc/dcmitype/StillImage" /></cc:Work></rdf:RDF></metadata><defs
     id="defs6"><clipPath
       id="clipPath16"
       clipPathUnits="userSpaceOnUse"><path
         id="path18"
         d="M 0,256 256,256 256,0 0,0 0,256 Z" /></clipPath></defs><g
     transform="matrix(1.25,0,0,-1.25,0,320)"
     id="g10"><g
       id="g12"><g
         clip-path="url(#clipPath16)"
         id="g14"><g
           transform="translate(230,200)"
           id="g20"><path
             id="path22"
             style="fill:#f2f2f2;fill-opacity:1;fill-rule:nonzero;stroke:none"
             d="M 0,0 C -0.702,0 -1.373,-0.127 -2,-0.35 L -2,28 c 0,4.411 -3.589,8 -8,8 l -184,0 c -4.411,0 -8,-3.589 -8,-8 l 0,-44 c 0,-4.411 3.589,-8 8,-8 l 184,0 c 1.487,0 2.877,0.416 4.071,1.125 C -5.503,-25.769 -3.011,-28 0,-28 l 14,0 0,-156 c 0,-2.209 -1.791,-4 -4,-4 l -84,0 c 0,2.209 -1.791,4 -4,4 -2.209,0 -4,-1.791 -4,-4 l -40,0 c 0,2.209 -1.791,4 -4,4 -2.209,0 -4,-1.791 -4,-4 l -84,0 c -2.209,0 -4,1.791 -4,4 L -218,44 14,44 14,0 0,0 Z m 14,-16 -4,0 0,4 4,0 0,-4 z m -16,0 0,10 c 0,1.104 0.896,2 2,2 l 14,0 0,-4 -8,0 0,-12 8,0 0,-4 -14,0 c -1.104,0 -2,0.896 -2,2 l 0,6 z m -4,0 c 0,-2.209 -1.791,-4 -4,-4 l -184,0 c -2.209,0 -4,1.791 -4,4 l 0,44 c 0,2.209 1.791,4 4,4 l 184,0 c 2.209,0 4,-1.791 4,-4 l 0,-34 0,-10 z m 20,64 -232,0 -4,0 0,-4 0,-228 c 0,-4.411 3.589,-8 8,-8 l 84,0 4,0 4,0 40,0 4,0 4,0 84,0 c 4.411,0 8,3.589 8,8 l 0,156 0,4 0,4 0,4 0,4 0,4 0,4 0,4 0,44 0,4 -4,0 z" /></g><g
           transform="translate(128,152)"
           id="g24"><path
             id="path26"
             style="fill:#f2f2f2;fill-opacity:1;fill-rule:nonzero;stroke:none"
             d="m 0,0 c 13.255,0 24,-10.745 24,-24 0,-13.255 -10.745,-24 -24,-24 -13.255,0 -24,10.745 -24,24 0,13.255 10.745,24 24,24 m 0,-52 c 15.439,0 28,12.561 28,28 C 28,-8.561 15.439,4 0,4 -15.439,4 -28,-8.561 -28,-24 c 0,-15.439 12.561,-28 28,-28" /></g><g
           transform="translate(140,32)"
           id="g28"><path
             id="path30"
             style="fill:#f2f2f2;fill-opacity:1;fill-rule:nonzero;stroke:none"
             d="m 0,0 c 0,-6.627 -5.373,-12 -12,-12 -6.627,0 -12,5.373 -12,12 l 0,36 c 0,6.627 5.373,12 12,12 6.627,0 12,-5.373 12,-12 L 0,0 Z m -12,52 c -8.822,0 -16,-7.178 -16,-16 l 0,-36 c 0,-8.822 7.178,-16 16,-16 8.822,0 16,7.178 16,16 l 0,36 c 0,8.822 -7.178,16 -16,16" /></g><g
           transform="translate(170,124)"
           id="g32"><path
             id="path34"
             style="fill:#f2f2f2;fill-opacity:1;fill-rule:nonzero;stroke:none"
             d="m 0,0 c 3.313,0 6,-2.687 6,-6 0,-3.313 -2.687,-6 -6,-6 -3.313,0 -6,2.687 -6,6 0,3.313 2.687,6 6,6 m 0,-16 c 5.514,0 10,4.486 10,10 0,5.514 -4.486,10 -10,10 -5.514,0 -10,-4.486 -10,-10 0,-5.514 4.486,-10 10,-10" /></g></g></g></g></svg>