<?xml version="1.0" encoding="UTF-8" standalone="no"?>
<svg
   xmlns:dc="http://purl.org/dc/elements/1.1/"
   xmlns:cc="http://creativecommons.org/ns#"
   xmlns:rdf="http://www.w3.org/1999/02/22-rdf-syntax-ns#"
   xmlns:svg="http://www.w3.org/2000/svg"
   xmlns="http://www.w3.org/2000/svg"
   viewBox="0 0 320 320"
   height="320"
   width="320"
   xml:space="preserve"
   version="1.1"
   id="svg2"><metadata
     id="metadata8"><rdf:RDF><cc:Work
         rdf:about=""><dc:format>image/svg+xml</dc:format><dc:type
           rdf:resource="http://purl.org/dc/dcmitype/StillImage" /></cc:Work></rdf:RDF></metadata><defs
     id="defs6"><clipPath
       id="clipPath16"
       clipPathUnits="userSpaceOnUse"><path
         id="path18"
         d="M 0,256 256,256 256,0 0,0 0,256 Z" /></clipPath></defs><g
     transform="matrix(1.25,0,0,-1.25,0,320)"
     id="g10"><g
       id="g12"><g
         clip-path="url(#clipPath16)"
         id="g14"><g
           transform="translate(244,180)"
           id="g20"><path
             id="path22"
             style="fill:#f2f2f2;fill-opacity:1;fill-rule:nonzero;stroke:none"
             d="m 0,0 -4,-4 -20,0 0,-32 c 0,-2.209 -1.791,-4 -4,-4 -2.209,0 -4,1.791 -4,4 l 0,36 c 0,2.209 1.791,4 4,4 l 4,0 20,0 4,-4 z m -4,-164 -16,0 0,20 c 0,4.411 -3.589,8 -8,8 -4.411,0 -8,-3.589 -8,-8 l 0,-20 -12,0 0,28 20,0 24,0 0,4 -44,0 0,4 44,0 0,4 -44,0 0,4 44,0 0,4 -44,0 0,4 44,0 0,4 -44,0 0,4 44,0 0,4 -44,0 0,92 c 0,35.29 -30.505,64 -68,64 -37.495,0 -68,-28.71 -68,-64 l 0,-92 -44,0 0,-4 44,0 0,-4 -44,0 0,-4 44,0 0,-4 -44,0 0,-4 44,0 0,-4 -44,0 0,-4 44,0 0,-4 -44,0 0,-4 24,0 20,0 0,-28 -4,0 0,12 c 0,4.411 -3.589,8 -8,8 0,4.411 -3.589,8 -8,8 -4.411,0 -8,-3.589 -8,-8 -4.411,0 -8,-3.589 -8,-8 l 0,-12 -8,0 c -2.2,0 -4,1.8 -4,4 l 0,154.343 1.172,-1.172 1.171,-1.171 1.657,0 16,0 0,-28 c 0,-4.411 3.589,-8 8,-8 4.411,0 8,3.589 8,8 l 0,36 c 0,4.411 -3.589,8 -8,8 l -4,0 -20,0 -1.657,0 -1.171,-1.171 L -232,5.657 -232,52 c 0,6.6 5.4,12 12,12 l 36,0 0,-3.931 4,0 0,3.931 4,0 0,-3.931 4,0 0,3.931 4,0 0,-3.931 4,0 0,3.931 4,0 0,-3.931 4,0 0,3.931 4,0 0,-3.931 4,0 0,3.931 4,0 0,-3.931 4,0 0,3.931 4,0 0,-3.931 4,0 0,3.931 4,0 0,-3.931 4,0 0,3.931 4,0 0,-3.931 4,0 0,3.931 4,0 0,-3.931 4,0 0,3.931 4,0 0,-3.931 4,0 0,3.931 4,0 0,-3.931 4,0 0,3.931 4,0 0,-3.931 4,0 0,3.931 4,0 0,-3.931 4,0 0,3.931 4,0 0,-3.931 4,0 0,3.931 4,0 0,-3.931 4,0 0,3.931 4,0 0,-3.931 4,0 0,3.931 40,0 C -5.4,64 0,58.6 0,52 L 0,5.657 -1.172,6.829 -2.344,8 -4,8 -24,8 -28,8 c -4.411,0 -8,-3.589 -8,-8 l 0,-36 c 0,-4.411 3.589,-8 8,-8 4.411,0 8,3.589 8,8 l 0,28 16,0 1.656,0 1.172,1.171 L 0,-5.657 0,-160 c 0,-2.2 -1.8,-4 -4,-4 m -28,0 0,20 c 0,2.209 1.791,4 4,4 2.209,0 4,-1.791 4,-4 l 0,-20 -8,0 z m -36,0 0,92 -96,0 0,-92 -16,0 0,28 0,4 0,4 0,4 0,4 0,4 0,4 0,4 0,4 0,4 0,92 c 0,33.137 28.654,60 64,60 35.347,0 64,-26.863 64,-60 l 0,-92 0,-4 0,-4 0,-4 0,-4 0,-4 0,-4 0,-4 0,-4 0,-4 0,-28 -16,0 z m -16,0 0,8 0,8 c 0,17.645 -14.355,32 -32,32 -17.645,0 -32,-14.355 -32,-32 l 0,-8 0,-8 -12,0 0,88 8,0 0,-64 4,0 0,64 4,0 0,-40 4,0 0,40 4,0 0,-40 4,0 0,40 4,0 0,-40 4,0 0,40 16,0 0,-40 4,0 0,40 4,0 0,-40 4,0 0,40 4,0 0,-40 4,0 0,40 4,0 0,-64 4,0 0,64 8,0 0,-88 -12,0 z m -60,0 0,8 0,8 c 0,15.464 12.536,28 28,28 15.464,0 28,-12.536 28,-28 l 0,-8 0,-8 -56,0 z m -56,0 -8,0 -8,0 0,12 c 0,2.209 1.791,4 4,4 l 4,0 0,4 c 0,2.209 1.791,4 4,4 2.209,0 4,-1.791 4,-4 l 0,-4 4,0 c 2.209,0 4,-1.791 4,-4 l 0,-12 -8,0 z m -28,160 -4,4 4,4 20,0 4,0 c 2.209,0 4,-1.791 4,-4 l 0,-36 c 0,-2.209 -1.791,-4 -4,-4 -2.209,0 -4,1.791 -4,4 l 0,32 -20,0 z m 216,72 -40,0 -4,0 -4,0 -4,0 -4,0 -4,0 -4,0 -4,0 -4,0 -4,0 -4,0 -4,0 -4,0 -4,0 -4,0 -4,0 -4,0 -4,0 -4,0 -4,0 -4,0 -4,0 -4,0 -4,0 -4,0 -4,0 -4,0 -4,0 -4,0 -4,0 -4,0 -4,0 -4,0 -4,0 -36,0 c -8.822,0 -16,-7.178 -16,-16 l 0,-212 c 0,-4.411 3.589,-8 8,-8 l 8,0 4,0 8,0 8,0 8,0 4,0 4,0 4,0 16,0 4,0 12,0 4,0 56,0 4,0 12,0 4,0 16,0 4,0 12,0 4,0 8,0 4,0 16,0 c 4.411,0 8,3.589 8,8 L 4,52 c 0,8.822 -7.178,16 -16,16" /></g><g
           transform="translate(128.8945,100.4473)"
           id="g24"><path
             id="path26"
             style="fill:#f2f2f2;fill-opacity:1;fill-rule:nonzero;stroke:none"
             d="M 0,0 C -0.169,0.339 -0.532,0.508 -0.895,0.508 -1.257,0.508 -1.62,0.339 -1.789,0 l -4,-8 c -0.247,-0.494 -0.047,-1.095 0.447,-1.342 0.144,-0.071 0.296,-0.105 0.446,-0.105 0.368,0 0.72,0.202 0.896,0.552 l 1.105,2.211 0,-25.763 4,0 0,25.763 1.106,-2.211 c 0.176,-0.35 0.528,-0.552 0.895,-0.552 0.151,0 0.303,0.034 0.447,0.105 C 4.047,-9.095 4.247,-8.494 4,-8 L 0,0 Z" /></g></g></g></g></svg>