<?xml version="1.0" encoding="UTF-8" standalone="no"?>
<svg
   xmlns:dc="http://purl.org/dc/elements/1.1/"
   xmlns:cc="http://creativecommons.org/ns#"
   xmlns:rdf="http://www.w3.org/1999/02/22-rdf-syntax-ns#"
   xmlns:svg="http://www.w3.org/2000/svg"
   xmlns="http://www.w3.org/2000/svg"
   viewBox="0 0 288 309.33331"
   height="309.33331"
   width="288"
   xml:space="preserve"
   id="svg2"
   version="1.1"><metadata
     id="metadata8"><rdf:RDF><cc:Work
         rdf:about=""><dc:format>image/svg+xml</dc:format><dc:type
           rdf:resource="http://purl.org/dc/dcmitype/StillImage" /></cc:Work></rdf:RDF></metadata><defs
     id="defs6"><clipPath
       id="clipPath18"
       clipPathUnits="userSpaceOnUse"><path
         id="path16"
         d="M 0,256 H 256 V 0 H 0 Z" /></clipPath></defs><g
     transform="matrix(1.3333333,0,0,-1.3333333,-26.666666,325.33333)"
     id="g10"><g
       id="g12"><g
         clip-path="url(#clipPath18)"
         id="g14"><path
           id="path20"
           style="fill:#f2f2f2;fill-opacity:1;fill-rule:nonzero;stroke:none"
           d="m 232,156 h -36 v 36 h 36 z m 0,-74 c 0,-9.941 -8.059,-18 -18,-18 -9.941,0 -18,8.059 -18,18 0,9.941 8.059,18 18,18 9.941,0 18,-8.059 18,-18 M 216,40 h -64 v 12 4 h -4 -36 -4 V 52 40 H 40 V 60.095 C 40.659,60.035 41.325,60 42,60 c 12.131,0 22,9.869 22,22 0,12.131 -9.869,22 -22,22 -0.675,0 -1.341,-0.035 -2,-0.095 V 152 h 20 4 v 4 36 4 H 60 40 v 20 h 64.838 c 2.62,-9.223 11.111,-16 21.162,-16 10.051,0 18.543,6.777 21.161,16 H 216 v -20 h -20 -4 v -4 -36 -4 h 4 20 v -48.095 c -0.659,0.06 -1.325,0.095 -2,0.095 -12.131,0 -22,-9.869 -22,-22 0,-12.131 9.869,-22 22,-22 0.675,0 1.341,0.035 2,0.095 z M 148,16 h -36 v 36 h 36 z M 24,82 c 0,9.941 8.059,18 18,18 9.941,0 18,-8.059 18,-18 0,-9.941 -8.059,-18 -18,-18 -9.941,0 -18,8.059 -18,18 m 0,110 H 60 V 156 H 24 Z m 102,48 c 9.941,0 18,-8.059 18,-18 0,-9.941 -8.059,-18 -18,-18 -9.941,0 -18,8.059 -18,18 0,9.941 8.059,18 18,18 m 106,-44 h -12 v 24 h -72.095 c 0.06,0.659 0.095,1.325 0.095,2 0,12.131 -9.869,22 -22,22 -12.131,0 -22,-9.869 -22,-22 0,-0.675 0.035,-1.341 0.095,-2 H 36 V 196 H 24 20 v -4 -36 -4 h 4 12 V 103.161 C 26.777,100.543 20,92.051 20,82 20,71.949 26.777,63.457 36,60.839 V 36 h 72 V 16 12 h 4 36 4 v 4 20 h 68 v 24.839 c 9.223,2.618 16,11.11 16,21.161 0,10.051 -6.777,18.543 -16,21.161 V 152 h 12 4 v 4 36 4 z" /><g
           transform="translate(128,175.314)"
           id="g22"><path
             id="path24"
             style="fill:#f2f2f2;fill-opacity:1;fill-rule:nonzero;stroke:none"
             d="m 0,0 -2.829,-2.829 -2.828,-2.828 -36,-36 -2.828,-2.828 -2.829,-2.829 2.829,-2.828 2.828,-2.829 36,-36 2.828,-2.828 2.829,-2.828 2.828,2.828 2.829,2.828 36,36 2.828,2.829 2.828,2.828 -2.828,2.829 -2.828,2.828 -36,36 -2.829,2.828 z m 0,-5.657 2.828,-2.828 36,-36 2.829,-2.829 -2.829,-2.828 -36,-36 -2.828,-2.829 -2.829,2.829 -36,36 -2.828,2.828 2.828,2.829 36,36 z" /></g><g
           transform="translate(122.3027,134.3975)"
           id="g26"><path
             id="path28"
             style="fill:#f2f2f2;fill-opacity:1;fill-rule:nonzero;stroke:none"
             d="m 0,0 v 1.964 c 0,3.129 2.556,5.675 5.697,5.675 3.142,0 5.698,-2.546 5.698,-5.675 V 0 H 5.697 Z m 5.697,21.603 c -10.849,0 -19.675,-8.81 -19.675,-19.639 v -3.021 c -1.407,-1.016 -2.325,-2.67 -2.325,-4.533 v -19.217 c 0,-3.083 2.51,-5.59 5.595,-5.59 h 32.812 c 3.083,0 5.593,2.507 5.593,5.59 V -5.59 c 0,1.863 -0.918,3.517 -2.324,4.533 v 3.021 c 0,10.829 -8.827,19.639 -19.676,19.639 M -4,-4 h 9.697 9.698 v 5.964 c 0,5.335 -4.35,9.675 -9.698,9.675 C 0.35,11.639 -4,7.299 -4,1.964 V -4 m 9.697,21.603 c 8.657,0 15.676,-7.002 15.676,-15.639 V -4 h 0.731 c 0.879,0 1.593,-0.712 1.593,-1.59 v -19.217 c 0,-0.879 -0.714,-1.59 -1.593,-1.59 h -32.812 c -0.881,0 -1.595,0.711 -1.595,1.59 V -5.59 c 0,0.878 0.714,1.59 1.595,1.59 h 0.73 v 5.964 c 0,8.637 7.018,15.639 15.675,15.639" /></g></g></g></g></svg>