<?xml version="1.0" encoding="UTF-8" standalone="no"?>
<svg
   xmlns:dc="http://purl.org/dc/elements/1.1/"
   xmlns:cc="http://creativecommons.org/ns#"
   xmlns:rdf="http://www.w3.org/1999/02/22-rdf-syntax-ns#"
   xmlns:svg="http://www.w3.org/2000/svg"
   xmlns="http://www.w3.org/2000/svg"
   viewBox="0 0 320 320"
   height="320"
   width="320"
   xml:space="preserve"
   version="1.1"
   id="svg2"><metadata
     id="metadata8"><rdf:RDF><cc:Work
         rdf:about=""><dc:format>image/svg+xml</dc:format><dc:type
           rdf:resource="http://purl.org/dc/dcmitype/StillImage" /></cc:Work></rdf:RDF></metadata><defs
     id="defs6"><clipPath
       id="clipPath16"
       clipPathUnits="userSpaceOnUse"><path
         id="path18"
         d="M 0,256 256,256 256,0 0,0 0,256 Z" /></clipPath></defs><g
     transform="matrix(1.25,0,0,-1.25,0,320)"
     id="g10"><g
       id="g12"><g
         clip-path="url(#clipPath16)"
         id="g14"><g
           transform="translate(244,200)"
           id="g20"><path
             id="path22"
             style="fill:#f2f2f2;fill-opacity:1;fill-rule:nonzero;stroke:none"
             d="m 0,0 -10,0 c -1.104,0 -2,-0.896 -2,-2 0,-1.104 0.896,-2 2,-2 l 10,0 0,-4 -10,0 c -1.104,0 -2,-0.896 -2,-2 0,-1.104 0.896,-2 2,-2 l 10,0 0,-4 -10,0 c -1.104,0 -2,-0.896 -2,-2 0,-1.104 0.896,-2 2,-2 l 10,0 0,-4 -10,0 c -1.104,0 -2,-0.896 -2,-2 0,-1.104 0.896,-2 2,-2 l 10,0 0,-4 -10,0 c -1.104,0 -2,-0.896 -2,-2 0,-1.104 0.896,-2 2,-2 l 10,0 0,-120 c 0,-2.209 -1.791,-4 -4,-4 l -36,0 0,88 5.777,0 c 11.755,0 14.223,7.094 14.223,13.046 l 0,49.908 C -20,-3.094 -22.468,4 -34.223,4 L -40,4 l 0,8 38,0 c 1.104,0 2,-0.896 2,-2 L 0,0 Z m -188,-160 0,58 0,30 144.208,0 0,-88 -144.208,0 z m -40,0 c -2.209,0 -4,1.791 -4,4 l 0,120 10,0 c 1.104,0 2,0.896 2,2 0,1.104 -0.896,2 -2,2 l -10,0 0,4 10,0 c 1.104,0 2,0.896 2,2 0,1.104 -0.896,2 -2,2 l -10,0 0,4 10,0 c 1.104,0 2,0.896 2,2 0,1.104 -0.896,2 -2,2 l -10,0 0,4 10,0 c 1.104,0 2,0.896 2,2 0,1.104 -0.896,2 -2,2 l -10,0 0,4 10,0 c 1.104,0 2,0.896 2,2 0,1.104 -0.896,2 -2,2 l -10,0 0,10 c 0,1.104 0.896,2 2,2 l 38,0 0,-8 -5.778,0 C -209.533,4 -212,-3.094 -212,-9.046 l 0,-49.908 c 0,-5.952 2.467,-13.046 14.222,-13.046 l 5.778,0 0,-88 -36,0 z M -34.223,0 C -27.123,0 -24,-2.764 -24,-9.046 l 0,-49.908 C -24,-65.236 -27.123,-68 -34.223,-68 l -163.555,0 c -7.099,0 -10.222,2.764 -10.222,9.046 l 0,49.908 c 0,6.282 3.123,9.046 10.222,9.046 L -34.223,0 Z M -43.792,4 -188,4 l 0,8 144.208,0 0,-8 z M -2,16 -230,16 c -3.309,0 -6,-2.691 -6,-6 l 0,-10 0,-4 0,-4 0,-4 0,-4 0,-4 0,-4 0,-4 0,-4 0,-4 0,-120 c 0,-4.411 3.589,-8 8,-8 l 224,0 c 4.411,0 8,3.589 8,8 l 0,120 0,4 0,4 0,4 0,4 0,4 0,4 0,4 0,4 0,4 0,10 c 0,3.309 -2.691,6 -6,6" /></g><g
           transform="translate(66,104)"
           id="g24"><path
             id="path26"
             style="fill:#f2f2f2;fill-opacity:1;fill-rule:nonzero;stroke:none"
             d="m 0,0 34,0 0,-12 -34,0 c -3.3,0 -6,2.7 -6,6 0,3.3 2.7,6 6,6 m 86,-12 -48,0 0,12 48,0 0,-12 z m 38,12 c 3.3,0 6,-2.7 6,-6 0,-3.3 -2.7,-6 -6,-6 l -34,0 0,12 34,0 z M 0,-16 l 34,0 4,0 48,0 4,0 34,0 c 5.514,0 10,4.486 10,10 0,5.514 -4.486,10 -10,10 L 90,4 86,4 38,4 34,4 0,4 c -5.514,0 -10,-4.486 -10,-10 0,-5.514 4.486,-10 10,-10" /></g><g
           transform="translate(30,50)"
           id="g28"><path
             id="path30"
             style="fill:#f2f2f2;fill-opacity:1;fill-rule:nonzero;stroke:none"
             d="M 0,0 C -1.103,0 -2,0.897 -2,2 -2,3.103 -1.103,4 0,4 1.103,4 2,3.103 2,2 2,0.897 1.103,0 0,0 m 0,8 c -3.313,0 -6,-2.687 -6,-6 0,-3.313 2.687,-6 6,-6 3.313,0 6,2.687 6,6 0,3.313 -2.687,6 -6,6" /></g><g
           transform="translate(226,50)"
           id="g32"><path
             id="path34"
             style="fill:#f2f2f2;fill-opacity:1;fill-rule:nonzero;stroke:none"
             d="M 0,0 C -1.103,0 -2,0.897 -2,2 -2,3.103 -1.103,4 0,4 1.103,4 2,3.103 2,2 2,0.897 1.103,0 0,0 m 0,8 c -3.313,0 -6,-2.687 -6,-6 0,-3.313 2.687,-6 6,-6 3.313,0 6,2.687 6,6 0,3.313 -2.687,6 -6,6" /></g></g></g></g></svg>