<?xml version="1.0" encoding="UTF-8" standalone="no"?>
<svg
   xmlns:dc="http://purl.org/dc/elements/1.1/"
   xmlns:cc="http://creativecommons.org/ns#"
   xmlns:rdf="http://www.w3.org/1999/02/22-rdf-syntax-ns#"
   xmlns:svg="http://www.w3.org/2000/svg"
   xmlns="http://www.w3.org/2000/svg"
   viewBox="0 0 320 320"
   height="320"
   width="320"
   xml:space="preserve"
   version="1.1"
   id="svg2"><metadata
     id="metadata8"><rdf:RDF><cc:Work
         rdf:about=""><dc:format>image/svg+xml</dc:format><dc:type
           rdf:resource="http://purl.org/dc/dcmitype/StillImage" /></cc:Work></rdf:RDF></metadata><defs
     id="defs6"><clipPath
       id="clipPath16"
       clipPathUnits="userSpaceOnUse"><path
         id="path18"
         d="M 0,256 256,256 256,0 0,0 0,256 Z" /></clipPath></defs><g
     transform="matrix(1.25,0,0,-1.25,0,320)"
     id="g10"><g
       id="g12"><g
         clip-path="url(#clipPath16)"
         id="g14"><g
           transform="translate(244,185.437)"
           id="g20"><path
             id="path22"
             style="fill:#f2f2f2;fill-opacity:1;fill-rule:nonzero;stroke:none"
             d="m 0,0 c 0,-0.51 -0.15,-0.978 -0.312,-1.437 l -35.688,0 0,24 34,0 c 1.104,0 2,-0.896 2,-2 L 0,0 Z m 0,-28 c 0,-0.51 -0.15,-0.978 -0.312,-1.437 l -35.688,0 0,24 35.688,0 0.312,0 L 0,-28 Z m 0,-28 c 0,-0.51 -0.15,-0.978 -0.312,-1.437 l -35.688,0 0,24 35.688,0 0.312,0 L 0,-56 Z m 0,-28 c 0,-0.51 -0.15,-0.978 -0.312,-1.437 l -35.688,0 0,24 35.688,0 0.312,0 L 0,-84 Z m 0,-28 c 0,-0.51 -0.15,-0.978 -0.312,-1.437 l -35.688,0 0,24 35.688,0 0.312,0 L 0,-112 Z m 0,-28 0,-0.015 c -0.005,-0.803 -0.723,-1.422 -1.525,-1.422 l -34.475,0 0,24 35.688,0 0.312,0 L 0,-140 Z m -192,-1.437 0,24 0,4 0,24 0,4 0,24 0,4 0,24 0,4 0,24 0,4 0,24 0,3 c 0,0.552 0.448,1 1,1 l 3,0 0,-79 c 0,-2.757 2.243,-5 5,-5 l 134,0 c 2.757,0 5,2.243 5,5 l 0,79 3,0 c 0.552,0 1,-0.448 1,-1 l 0,-3 0,-24 0,-4 0,-24 0,-4 0,-24 0,-4 0,-24 0,-4 0,-24 0,-4 0,-24 -152,0 z m -38.475,0 c -0.802,0 -1.52,0.619 -1.525,1.422 l 0,0.015 0,22.563 0.313,0 35.687,0 0,-24 -34.475,0 z m -1.525,52 0.313,0 35.687,0 0,-24 -35.687,0 c -0.163,0.459 -0.313,0.927 -0.313,1.437 l 0,22.563 z m 0,28 0.313,0 35.687,0 0,-24 -35.687,0 C -231.85,-84.978 -232,-84.51 -232,-84 l 0,22.563 z m 0,28 0.313,0 35.687,0 0,-24 -35.687,0 C -231.85,-56.978 -232,-56.51 -232,-56 l 0,22.563 z m 0,28 0.313,0 35.687,0 0,-24 -35.687,0 C -231.85,-28.978 -232,-28.51 -232,-28 l 0,22.563 z m 0,26 c 0,1.104 0.896,2 2,2 l 34,0 0,-24 -35.687,0 C -231.85,-0.978 -232,-0.51 -232,0 l 0,20.563 z m 184,6 0,-79 c 0,-0.552 -0.447,-1 -1,-1 l -134,0 c -0.552,0 -1,0.448 -1,1 l 0,79 136,0 z m 52,-6 c 0,3.309 -2.691,6 -6,6 l -34.102,0 c -0.463,2.279 -2.484,4 -4.898,4 l -3,0 -4,0 -136,0 -4,0 -3,0 c -2.415,0 -4.435,-1.721 -4.899,-4 l -34.101,0 c -3.309,0 -6,-2.691 -6,-6 L -236,0 c 0,-0.522 0.062,-0.995 0.156,-1.437 l -0.156,0 0,-4 0,-22.563 c 0,-0.522 0.062,-0.995 0.156,-1.437 l -0.156,0 0,-4 0,-22.563 c 0,-0.522 0.062,-0.995 0.156,-1.437 l -0.156,0 0,-4 0,-22.563 c 0,-0.522 0.062,-0.996 0.156,-1.437 l -0.156,0 0,-4 0,-22.563 c 0,-0.522 0.062,-0.996 0.156,-1.437 l -0.156,0 0,-4 0,-22.563 c 0.018,-3.015 2.496,-5.437 5.525,-5.437 l 34.475,0 4,0 152,0 4,0 34.475,0 c 3.029,0 5.507,2.422 5.525,5.398 l 0,22.602 0,4 -0.155,0 C 3.938,-112.996 4,-112.522 4,-112 l 0,22.563 0,4 -0.155,0 C 3.938,-84.996 4,-84.522 4,-84 l 0,22.563 0,4 -0.155,0 C 3.938,-56.995 4,-56.522 4,-56 l 0,22.563 0,4 -0.155,0 C 3.938,-28.995 4,-28.522 4,-28 l 0,22.563 0,4 -0.155,0 C 3.938,-0.995 4,-0.522 4,0 l 0,20.563 z" /></g><g
           transform="translate(190,96)"
           id="g24"><path
             id="path26"
             style="fill:#f2f2f2;fill-opacity:1;fill-rule:nonzero;stroke:none"
             d="m 0,0 -34,0 0,12 34,0 C 3.3,12 6,9.3 6,6 6,2.7 3.3,0 0,0 m -86,12 48,0 0,-12 -48,0 0,12 z M -124,0 c -3.3,0 -6,2.7 -6,6 0,3.3 2.7,6 6,6 l 34,0 0,-12 -34,0 z m 124,16 -34,0 -4,0 -48,0 -4,0 -34,0 c -5.514,0 -10,-4.486 -10,-10 0,-5.514 4.486,-10 10,-10 l 34,0 4,0 48,0 4,0 34,0 C 5.514,-4 10,0.486 10,6 10,11.514 5.514,16 0,16" /></g><g
           transform="translate(30,54)"
           id="g28"><path
             id="path30"
             style="fill:#f2f2f2;fill-opacity:1;fill-rule:nonzero;stroke:none"
             d="M 0,0 C -1.103,0 -2,0.897 -2,2 -2,3.103 -1.103,4 0,4 1.103,4 2,3.103 2,2 2,0.897 1.103,0 0,0 m 0,8 c -3.313,0 -6,-2.687 -6,-6 0,-3.313 2.687,-6 6,-6 3.313,0 6,2.687 6,6 0,3.313 -2.687,6 -6,6" /></g><g
           transform="translate(226,54)"
           id="g32"><path
             id="path34"
             style="fill:#f2f2f2;fill-opacity:1;fill-rule:nonzero;stroke:none"
             d="M 0,0 C -1.103,0 -2,0.897 -2,2 -2,3.103 -1.103,4 0,4 1.103,4 2,3.103 2,2 2,0.897 1.103,0 0,0 m 0,8 c -3.313,0 -6,-2.687 -6,-6 0,-3.313 2.687,-6 6,-6 3.313,0 6,2.687 6,6 0,3.313 -2.687,6 -6,6" /></g></g></g></g></svg>