<?xml version="1.0" encoding="UTF-8" standalone="no"?>
<svg
   xmlns:dc="http://purl.org/dc/elements/1.1/"
   xmlns:cc="http://creativecommons.org/ns#"
   xmlns:rdf="http://www.w3.org/1999/02/22-rdf-syntax-ns#"
   xmlns:svg="http://www.w3.org/2000/svg"
   xmlns="http://www.w3.org/2000/svg"
   viewBox="0 0 266.66665 320"
   height="320"
   width="266.66666"
   xml:space="preserve"
   id="svg2"
   version="1.1"><metadata
     id="metadata8"><rdf:RDF><cc:Work
         rdf:about=""><dc:format>image/svg+xml</dc:format><dc:type
           rdf:resource="http://purl.org/dc/dcmitype/StillImage" /></cc:Work></rdf:RDF></metadata><defs
     id="defs6"><clipPath
       id="clipPath18"
       clipPathUnits="userSpaceOnUse"><path
         id="path16"
         d="M 0,256 H 256 V 0 H 0 Z" /></clipPath></defs><g
     transform="matrix(1.3333333,0,0,-1.3333333,-37.333332,330.66666)"
     id="g10"><g
       id="g12"><g
         clip-path="url(#clipPath18)"
         id="g14"><g
           transform="translate(104,80)"
           id="g20"><path
             id="path22"
             style="fill:#ffffff;fill-opacity:1;fill-rule:nonzero;stroke:none"
             d="m 0,0 h -40 c -2.206,0 -4,1.795 -4,4 0,2.206 1.794,4 4,4 H 0 C 2.206,8 4,6.206 4,4 4,1.794 2.206,0 0,0 m 0,12 h -40 c -4.4,0 -8,-3.6 -8,-8 0,-4.4 3.6,-8 8,-8 H 0 c 4.4,0 8,3.6 8,8 0,4.4 -3.6,8 -8,8" /></g><g
           transform="translate(192,80)"
           id="g24"><path
             id="path26"
             style="fill:#ffffff;fill-opacity:1;fill-rule:nonzero;stroke:none"
             d="m 0,0 h -40 c -2.206,0 -4,1.795 -4,4 0,2.206 1.794,4 4,4 H 0 C 2.206,8 4,6.206 4,4 4,1.794 2.206,0 0,0 m 0,12 h -40 c -4.4,0 -8,-3.6 -8,-8 0,-4.4 3.6,-8 8,-8 H 0 c 4.4,0 8,3.6 8,8 0,4.4 -3.6,8 -8,8" /></g><g
           transform="translate(224,186)"
           id="g28"><path
             id="path30"
             style="fill:#ffffff;fill-opacity:1;fill-rule:nonzero;stroke:none"
             d="m 0,0 c 0,-1.104 -0.896,-2 -2,-2 h -18 -4 -144 -4 -18 c -1.104,0 -2,0.896 -2,2 v 56 c 0,1.104 0.896,2 2,2 H -2 c 1.104,0 2,-0.896 2,-2 z m 0,-74 h -2 -18 v 14.165 c 4.774,2.772 8,7.928 8,13.835 v 16 c 0,5.907 -3.226,11.063 -8,13.835 V -6 h 18 2 z m 0,-94 c 0,-1.104 -0.896,-2 -2,-2 h -18 v 52.35 c 2.326,0.827 4,3.044 4,5.65 v 20 c 0,2.606 -1.674,4.823 -4,5.65 V -78 h 18 c 1.104,0 2,-0.896 2,-2 z m -22,54 h -2 -56 -2 c -1.104,0 -2,0.896 -2,2 v 20 c 0,1.104 0.896,2 2,2 h 2 56 2 c 1.104,0 2,-0.896 2,-2 v -20 c 0,-1.104 -0.896,-2 -2,-2 m -2,-57 c 0,-1.657 -1.343,-3 -3,-3 h -50 c -1.657,0 -3,1.343 -3,3 v 1 24 28 h 56 z m -60,29 h -24 v 24.35 c 2.327,0.827 4,3.044 4,5.65 v 18 h 16 v -18 c 0,-2.606 1.674,-4.823 4,-5.65 z m 0,-28 h -24 v 24 h 24 z m -26,56 h -2 -56 -2 c -1.104,0 -2,0.896 -2,2 v 20 c 0,1.104 0.896,2 2,2 h 2 56 2 c 1.104,0 2,-0.896 2,-2 v -20 c 0,-1.104 -0.896,-2 -2,-2 m -2,-32 v -24 -1 c 0,-1.657 -1.343,-3 -3,-3 h -50 c -1.657,0 -3,1.343 -3,3 v 53 h 56 z m -60,-24 h -18 c -1.104,0 -2,0.896 -2,2 v 88 c 0,1.104 0.896,2 2,2 h 18 v -8.35 c -2.327,-0.827 -4,-3.044 -4,-5.65 v -20 c 0,-2.606 1.673,-4.823 4,-5.65 z m 140,112 h -56 v 22 c 0,3.309 2.691,6 6,6 h 44 c 3.309,0 6,-2.691 6,-6 z m -72,0 h -56 v 22 c 0,3.309 2.691,6 6,6 h 44 c 3.309,0 6,-2.691 6,-6 z m -8,-28 h -56 v 8 h 56 z m 28,8 v -8.35 c -1.7,-0.604 -3.046,-1.95 -3.65,-3.65 h -16.7 c -0.604,1.7 -1.95,3.046 -3.65,3.65 V -78 Z m 60,-8 h -56 v 8 h 56 z m -56,12 h -4 -24 -4 -56 v 12.526 c 1.281,-0.331 2.617,-0.526 4,-0.526 h 64 8 64 c 1.383,0 2.719,0.195 4,0.526 V -74 Z m -88,59.474 V -6 h 144 v -8.526 c -1.281,0.331 -2.617,0.526 -4,0.526 h -136 c -1.383,0 -2.719,-0.195 -4,-0.526 m 0,-4.178 c 0.294,0.105 0.593,0.198 0.897,0.28 0.051,0.014 0.102,0.026 0.152,0.039 0.267,0.069 0.535,0.131 0.808,0.181 0.137,0.026 0.277,0.043 0.415,0.064 0.206,0.03 0.409,0.064 0.618,0.083 0.365,0.036 0.735,0.057 1.11,0.057 h 136 c 0.375,0 0.744,-0.021 1.11,-0.057 0.208,-0.019 0.412,-0.053 0.618,-0.083 0.138,-0.021 0.278,-0.038 0.415,-0.064 0.273,-0.05 0.542,-0.112 0.808,-0.181 0.051,-0.013 0.102,-0.025 0.152,-0.039 0.304,-0.082 0.602,-0.175 0.897,-0.28 1.49,-0.532 2.845,-1.349 4,-2.389 v 0 c 0,0 0,0 0.001,-0.001 0.302,-0.271 0.589,-0.557 0.861,-0.857 0.008,-0.008 0.015,-0.016 0.023,-0.025 0.261,-0.288 0.508,-0.588 0.74,-0.902 0.018,-0.024 0.036,-0.047 0.054,-0.071 0.216,-0.296 0.418,-0.601 0.607,-0.916 0.027,-0.045 0.056,-0.09 0.082,-0.135 0.171,-0.294 0.328,-0.597 0.475,-0.906 0.033,-0.07 0.069,-0.138 0.101,-0.209 0.13,-0.289 0.245,-0.586 0.353,-0.887 0.033,-0.093 0.07,-0.184 0.101,-0.278 0.094,-0.286 0.171,-0.578 0.245,-0.873 0.027,-0.113 0.061,-0.222 0.086,-0.335 0.064,-0.297 0.108,-0.6 0.15,-0.904 0.015,-0.113 0.039,-0.224 0.052,-0.338 0.044,-0.418 0.069,-0.841 0.069,-1.27 v -16 c 0,-0.429 -0.025,-0.852 -0.069,-1.27 -0.013,-0.114 -0.037,-0.225 -0.053,-0.338 -0.041,-0.305 -0.085,-0.607 -0.149,-0.903 -0.025,-0.114 -0.059,-0.224 -0.087,-0.337 -0.073,-0.294 -0.15,-0.586 -0.244,-0.872 -0.031,-0.094 -0.068,-0.185 -0.102,-0.279 -0.108,-0.3 -0.222,-0.597 -0.353,-0.886 -0.031,-0.071 -0.066,-0.138 -0.099,-0.208 -0.147,-0.31 -0.304,-0.613 -0.476,-0.907 -0.026,-0.045 -0.055,-0.089 -0.082,-0.134 -0.188,-0.315 -0.39,-0.621 -0.607,-0.917 -0.018,-0.024 -0.036,-0.047 -0.054,-0.071 -0.232,-0.313 -0.479,-0.613 -0.74,-0.902 -0.008,-0.008 -0.015,-0.017 -0.023,-0.025 -0.273,-0.3 -0.559,-0.586 -0.861,-0.857 0,0 -0.001,-10e-4 -0.001,-10e-4 v 0 c -1.155,-1.04 -2.51,-1.857 -4,-2.389 -0.295,-0.105 -0.593,-0.198 -0.897,-0.28 -0.05,-0.014 -0.101,-0.026 -0.152,-0.039 -0.266,-0.069 -0.535,-0.131 -0.808,-0.181 -0.137,-0.026 -0.277,-0.043 -0.415,-0.064 -0.206,-0.03 -0.41,-0.064 -0.618,-0.083 C -27.256,-57.979 -27.625,-58 -28,-58 v 22 c 0,5.5 -4.5,10 -10,10 h -44 c -5.5,0 -10,-4.5 -10,-10 v -22 h -8 v 22 c 0,5.5 -4.5,10 -10,10 h -44 c -5.5,0 -10,-4.5 -10,-10 v -22 c -0.375,0 -0.745,0.021 -1.11,0.057 -0.209,0.019 -0.412,0.053 -0.618,0.083 -0.138,0.021 -0.278,0.038 -0.415,0.064 -0.273,0.05 -0.541,0.112 -0.808,0.181 -0.05,0.013 -0.101,0.025 -0.152,0.039 -0.304,0.082 -0.603,0.175 -0.897,0.28 v 0 c -1.49,0.532 -2.844,1.349 -4,2.389 -0.302,0.272 -0.589,0.558 -0.863,0.858 -0.007,0.008 -0.014,0.016 -0.022,0.025 -0.261,0.288 -0.508,0.589 -0.74,0.902 -0.018,0.024 -0.036,0.047 -0.054,0.071 -0.216,0.296 -0.418,0.602 -0.608,0.917 -0.026,0.045 -0.054,0.089 -0.081,0.134 -0.172,0.294 -0.329,0.597 -0.475,0.907 -0.033,0.07 -0.069,0.137 -0.101,0.207 -0.13,0.29 -0.245,0.587 -0.352,0.888 -0.034,0.093 -0.072,0.184 -0.102,0.278 -0.095,0.286 -0.171,0.578 -0.244,0.872 -0.028,0.113 -0.062,0.223 -0.087,0.337 -0.064,0.296 -0.108,0.598 -0.149,0.903 -0.016,0.113 -0.04,0.224 -0.053,0.338 -0.044,0.418 -0.069,0.841 -0.069,1.27 v 16 c 0,0.429 0.025,0.852 0.069,1.27 0.013,0.114 0.037,0.225 0.053,0.338 0.041,0.304 0.085,0.607 0.149,0.904 0.025,0.113 0.059,0.222 0.087,0.335 0.073,0.295 0.149,0.587 0.244,0.873 0.03,0.094 0.068,0.185 0.102,0.278 0.107,0.301 0.222,0.598 0.352,0.887 0.032,0.071 0.068,0.138 0.101,0.208 0.146,0.31 0.303,0.613 0.475,0.907 0.027,0.045 0.055,0.089 0.081,0.134 0.19,0.315 0.392,0.621 0.609,0.917 0.017,0.024 0.035,0.047 0.053,0.071 0.232,0.313 0.479,0.614 0.741,0.903 0.007,0.008 0.014,0.016 0.021,0.023 1.319,1.451 2.983,2.577 4.863,3.248 z M -192,-6 h 2 18 v -10.165 c -4.774,-2.772 -8,-7.928 -8,-13.835 v -16 c 0,-5.907 3.226,-11.063 8,-13.835 V -74 h -18 -2 z M -2,62 h -188 c -3.309,0 -6,-2.691 -6,-6 v -224 c 0,-3.309 2.691,-6 6,-6 h 18.685 c 1.127,-2.361 3.53,-4 6.315,-4 h 50 c 2.785,0 5.188,1.639 6.315,4 h 25.371 c 1.126,-2.361 3.529,-4 6.314,-4 h 50 c 2.785,0 5.188,1.639 6.314,4 H -2 c 3.309,0 6,2.691 6,6 V 56 c 0,3.309 -2.691,6 -6,6" /></g></g></g></g></svg>