<?xml version="1.0" encoding="UTF-8" standalone="no"?>
<svg
   xmlns:dc="http://purl.org/dc/elements/1.1/"
   xmlns:cc="http://creativecommons.org/ns#"
   xmlns:rdf="http://www.w3.org/1999/02/22-rdf-syntax-ns#"
   xmlns:svg="http://www.w3.org/2000/svg"
   xmlns="http://www.w3.org/2000/svg"
   viewBox="0 0 320 320"
   height="320"
   width="320"
   xml:space="preserve"
   id="svg2"
   version="1.1"><metadata
     id="metadata8"><rdf:RDF><cc:Work
         rdf:about=""><dc:format>image/svg+xml</dc:format><dc:type
           rdf:resource="http://purl.org/dc/dcmitype/StillImage" /></cc:Work></rdf:RDF></metadata><defs
     id="defs6"><clipPath
       id="clipPath18"
       clipPathUnits="userSpaceOnUse"><path
         id="path16"
         d="M 0,256 H 256 V 0 H 0 Z" /></clipPath></defs><g
     transform="matrix(1.3333333,0,0,-1.3333333,-10.666666,330.66666)"
     id="g10"><g
       id="g12"><g
         clip-path="url(#clipPath18)"
         id="g14"><g
           transform="translate(244,20)"
           id="g20"><path
             id="path22"
             style="fill:#ffffff;fill-opacity:1;fill-rule:nonzero;stroke:none"
             d="m 0,0 c 0,-4.418 -3.582,-8 -8,-8 h -4 V 98.847 101.774 224 h 4 c 4.418,0 8,-3.582 8,-8 z M -216,-8 V 97.581 c 0.28,-0.087 0.582,-0.18 0.89,-0.273 0.119,-0.037 0.237,-0.074 0.36,-0.111 0.179,-0.054 0.365,-0.11 0.553,-0.168 14.95,-4.521 49.582,-13.365 93.306,-13.992 0.082,-0.001 0.163,-0.003 0.245,-0.005 1.538,-0.02 3.086,-0.032 4.646,-0.032 1.56,0 3.107,0.012 4.646,0.032 0.082,0.002 0.163,0.004 0.245,0.005 43.739,0.627 78.38,9.477 93.322,13.997 0.179,0.054 0.354,0.108 0.525,0.159 0.132,0.04 0.26,0.079 0.388,0.12 0.303,0.091 0.599,0.183 0.874,0.268 L -16,-8 Z m -8,0 c -4.418,0 -8,3.582 -8,8 v 216 c 0,4.418 3.582,8 8,8 h 4 V 101.774 98.847 -8 Z m 208,232 v -72 -4 -2 -28 -2 -4 -10.226 l -0.302,-0.095 C -27.164,98.235 -66.456,87 -116,87 c -49.544,0 -88.836,11.235 -99.698,14.679 L -216,101.774 V 112 v 4 2 28 2 4 72 z m 8,4 h -4 -4 -200 -4 -4 c -6.617,0 -12,-5.383 -12,-12 V 0 c 0,-6.617 5.383,-12 12,-12 H -8 c 6.617,0 12,5.383 12,12 v 216 c 0,6.617 -5.383,12 -12,12" /></g><g
           transform="translate(212,188)"
           id="g24"><path
             id="path26"
             style="fill:#ffffff;fill-opacity:1;fill-rule:nonzero;stroke:none"
             d="m 0,0 h -168 c -8.822,0 -16,-7.178 -16,-16 v -24 c 0,-8.822 7.178,-16 16,-16 H 0 c 8.822,0 16,7.178 16,16 v 24 C 16,-7.178 8.822,0 0,0 m 0,-4 c 6.6,0 12,-5.4 12,-12 V -40 C 12,-46.6 6.6,-52 0,-52 h -168 c -6.6,0 -12,5.4 -12,12 v 24 c 0,6.6 5.4,12 12,12 H 0" /></g><g
           transform="translate(113.2002,174.3999)"
           id="g28"><path
             id="path30"
             style="fill:#ffffff;fill-opacity:1;fill-rule:nonzero;stroke:none"
             d="m 0,0 h -56.8 c -5.5,0 -10,-4.5 -10,-10 V -42.4 H 10 V -10 C 10,-4.5 5.5,0 0,0 m 0,-4 c 3.308,0 6,-2.691 6,-6 V -38.4 H -62.8 V -10 c 0,3.309 2.692,6 6,6 H 0" /></g><g
           transform="translate(199.5996,174.3999)"
           id="g32"><path
             id="path34"
             style="fill:#ffffff;fill-opacity:1;fill-rule:nonzero;stroke:none"
             d="m 0,0 h -56.8 c -5.5,0 -10,-4.5 -10,-10 V -42.4 H 10 V -10 C 10,-4.5 5.5,0 0,0 m 0,-4 c 3.309,0 6,-2.691 6,-6 V -38.4 H -62.8 V -10 c 0,3.309 2.692,6 6,6 H 0" /></g><g
           transform="translate(64,72)"
           id="g36"><path
             id="path38"
             style="fill:#ffffff;fill-opacity:1;fill-rule:nonzero;stroke:none"
             d="m 0,0 c -6.627,0 -12,5.373 -12,12 0,6.627 5.373,12 12,12 C 6.627,24 12,18.627 12,12 12,5.373 6.627,0 0,0 M 16,12 C 16,20.822 8.822,28 0,28 -8.822,28 -16,20.822 -16,12 -16,3.178 -8.822,-4 0,-4 8.822,-4 16,3.178 16,12" /></g><g
           transform="translate(64,28)"
           id="g40"><path
             id="path42"
             style="fill:#ffffff;fill-opacity:1;fill-rule:nonzero;stroke:none"
             d="M 0,0 C -5.338,0 -9.889,3.534 -11.435,8.377 -8.527,5.681 -4.479,4 0,4 4.479,4 8.527,5.681 11.435,8.377 9.889,3.534 5.338,0 0,0 M 12,24 V 18.5 C 12,12.725 6.6,8 0,8 -6.6,8 -12,12.725 -12,18.5 V 24 c 0,6.6 5.4,12 12,12 6.6,0 12,-5.4 12,-12 m -28,1.5 V 24 18.5 12 c 0,-8.822 7.178,-16 16,-16 8.822,0 16,7.178 16,16 v 6.5 5.5 1.5 C 16,33.495 8.822,40 0,40 -8.822,40 -16,33.495 -16,25.5" /></g></g></g></g></svg>