<?xml version="1.0" encoding="UTF-8" standalone="no"?>
<svg
   xmlns:dc="http://purl.org/dc/elements/1.1/"
   xmlns:cc="http://creativecommons.org/ns#"
   xmlns:rdf="http://www.w3.org/1999/02/22-rdf-syntax-ns#"
   xmlns:svg="http://www.w3.org/2000/svg"
   xmlns="http://www.w3.org/2000/svg"
   viewBox="0 0 320 320"
   height="320"
   width="320"
   xml:space="preserve"
   version="1.1"
   id="svg2"><metadata
     id="metadata8"><rdf:RDF><cc:Work
         rdf:about=""><dc:format>image/svg+xml</dc:format><dc:type
           rdf:resource="http://purl.org/dc/dcmitype/StillImage" /></cc:Work></rdf:RDF></metadata><defs
     id="defs6"><clipPath
       id="clipPath16"
       clipPathUnits="userSpaceOnUse"><path
         id="path18"
         d="M 0,256 256,256 256,0 0,0 0,256 Z" /></clipPath></defs><g
     transform="matrix(1.25,0,0,-1.25,0,320)"
     id="g10"><g
       id="g12"><g
         clip-path="url(#clipPath16)"
         id="g14"><g
           transform="translate(196,38.1934)"
           id="g20"><path
             id="path22"
             style="fill:#f2f2f2;fill-opacity:1;fill-rule:nonzero;stroke:none"
             d="m 0,0 0,-3.742 0,-3.741 c 0,-12.474 -34,-18.71 -68,-18.71 -34,0 -68,6.236 -68,18.71 l 0,3.741 0,3.742 0,194.581 c 0,6.2 5.074,11.226 11.333,11.226 l 113.334,0 C -5.074,205.807 0,200.781 0,194.581 L 0,0 Z m -11.333,209.807 -113.334,0 c -8.455,0 -15.333,-6.83 -15.333,-15.226 L -140,0 l 0,-3.742 0,-3.741 c 0,-21.616 59.977,-22.71 72,-22.71 12.023,0 72,1.094 72,22.71 L 4,-3.742 4,0 4,194.581 c 0,8.396 -6.879,15.226 -15.333,15.226" /></g><g
           transform="translate(184,146.0488)"
           id="g24"><path
             id="path26"
             style="fill:#f2f2f2;fill-opacity:1;fill-rule:nonzero;stroke:none"
             d="M 0,0 0,-2.537 C 0,-4.96 -1.985,-6.932 -4.426,-6.932 l 0,-0.083 c -16.655,-2.013 -33.762,-3.034 -50.851,-3.034 -17.097,0 -34.69,1.022 -52.297,3.037 l 0,0.08 c -2.441,0 -4.426,1.972 -4.426,4.395 l 0,2.537 0,82.755 c 0,1.763 1.445,3.196 3.222,3.196 l 105.555,0 C -1.445,85.951 0,84.518 0,82.755 L 0,0 Z m -3.223,89.951 -105.555,0 c -3.989,0 -7.222,-3.222 -7.222,-7.196 L -116,0 l 0,-2.537 c 0,-4.636 3.772,-8.395 8.426,-8.395 l -0.926,0 c 17.739,-2.048 35.483,-3.117 53.223,-3.117 17.26,0 34.516,1.011 51.777,3.117 l -0.926,0 C 0.228,-10.932 4,-7.173 4,-2.537 L 4,0 4,82.755 c 0,3.974 -3.233,7.196 -7.223,7.196" /></g><path
           id="path28"
           style="fill:#f2f2f2;fill-opacity:1;fill-rule:nonzero;stroke:none"
           d="m 92,220 72,0 0,-60 -72,0 0,60 z m -4,-64 80,0 0,68 -80,0 0,-68 z" /><g
           transform="translate(92,88)"
           id="g30"><path
             id="path32"
             style="fill:#f2f2f2;fill-opacity:1;fill-rule:nonzero;stroke:none"
             d="m 0,0 0,-12 -12,0 0,12 -12,0 0,12 12,0 0,12 L 0,24 0,12 12,12 12,0 0,0 Z m 16,-4 0,4 0,12 0,4 -4,0 -8,0 0,8 0,4 -4,0 -12,0 -4,0 0,-4 0,-8 -8,0 -4,0 0,-4 0,-12 0,-4 4,0 8,0 0,-8 0,-4 4,0 12,0 4,0 0,4 0,8 8,0 4,0 z" /></g><g
           transform="translate(86,90)"
           id="g34"><path
             id="path36"
             style="fill:#f2f2f2;fill-opacity:1;fill-rule:nonzero;stroke:none"
             d="M 0,0 C -2.209,0 -4,1.791 -4,4 -4,6.209 -2.209,8 0,8 2.209,8 4,6.209 4,4 4,1.791 2.209,0 0,0 m 0,12 c -4.411,0 -8,-3.589 -8,-8 0,-4.411 3.589,-8 8,-8 4.411,0 8,3.589 8,8 0,4.411 -3.589,8 -8,8" /></g><g
           transform="translate(150,82)"
           id="g38"><path
             id="path40"
             style="fill:#f2f2f2;fill-opacity:1;fill-rule:nonzero;stroke:none"
             d="m 0,0 c -4.418,0 -8,3.582 -8,8 0,4.418 3.582,8 8,8 C 4.418,16 8,12.418 8,8 8,3.582 4.418,0 0,0 M 0,20 C -6.617,20 -12,14.617 -12,8 -12,1.383 -6.617,-4 0,-4 6.617,-4 12,1.383 12,8 12,14.617 6.617,20 0,20" /></g><g
           transform="translate(172,92)"
           id="g42"><path
             id="path44"
             style="fill:#f2f2f2;fill-opacity:1;fill-rule:nonzero;stroke:none"
             d="m 0,0 c -4.418,0 -8,3.582 -8,8 0,4.418 3.582,8 8,8 C 4.418,16 8,12.418 8,8 8,3.582 4.418,0 0,0 M 0,20 C -6.617,20 -12,14.617 -12,8 -12,1.383 -6.617,-4 0,-4 6.617,-4 12,1.383 12,8 12,14.617 6.617,20 0,20" /></g><g
           transform="translate(116.4629,52)"
           id="g46"><path
             id="path48"
             style="fill:#f2f2f2;fill-opacity:1;fill-rule:nonzero;stroke:none"
             d="m 0,0 -8.926,0 c -1.945,0 -3.537,1.35 -3.537,3 0,1.65 1.592,3 3.537,3 L 0,6 C 1.945,6 3.537,4.65 3.537,3 3.537,1.35 1.945,0 0,0 m 0,10 -8.926,0 c -4.156,0 -7.537,-3.141 -7.537,-7 0,-3.859 3.381,-7 7.537,-7 L 0,-4 c 4.156,0 7.537,3.141 7.537,7 0,3.859 -3.381,7 -7.537,7" /></g><g
           transform="translate(144.4629,52)"
           id="g50"><path
             id="path52"
             style="fill:#f2f2f2;fill-opacity:1;fill-rule:nonzero;stroke:none"
             d="m 0,0 -8.926,0 c -1.945,0 -3.537,1.35 -3.537,3 0,1.65 1.592,3 3.537,3 L 0,6 C 1.945,6 3.537,4.65 3.537,3 3.537,1.35 1.945,0 0,0 m 0,10 -8.926,0 c -4.156,0 -7.537,-3.141 -7.537,-7 0,-3.859 3.381,-7 7.537,-7 L 0,-4 c 4.156,0 7.537,3.141 7.537,7 0,3.859 -3.381,7 -7.537,7" /></g><g
           transform="translate(78,200)"
           id="g54"><path
             id="path56"
             style="fill:#f2f2f2;fill-opacity:1;fill-rule:nonzero;stroke:none"
             d="m 0,0 c -1.104,0 -2,-0.896 -2,-2 0,-1.104 0.896,-2 2,-2 1.104,0 2,0.896 2,2 0,1.104 -0.896,2 -2,2" /></g></g></g></g></svg>