<?xml version="1.0" encoding="UTF-8" standalone="no"?>
<svg
   xmlns:dc="http://purl.org/dc/elements/1.1/"
   xmlns:cc="http://creativecommons.org/ns#"
   xmlns:rdf="http://www.w3.org/1999/02/22-rdf-syntax-ns#"
   xmlns:svg="http://www.w3.org/2000/svg"
   xmlns="http://www.w3.org/2000/svg"
   viewBox="0 0 277.33331 320"
   height="320"
   width="277.33331"
   xml:space="preserve"
   id="svg2"
   version="1.1"><metadata
     id="metadata8"><rdf:RDF><cc:Work
         rdf:about=""><dc:format>image/svg+xml</dc:format><dc:type
           rdf:resource="http://purl.org/dc/dcmitype/StillImage" /></cc:Work></rdf:RDF></metadata><defs
     id="defs6"><clipPath
       id="clipPath18"
       clipPathUnits="userSpaceOnUse"><path
         id="path16"
         d="M 0,256 H 256 V 0 H 0 Z" /></clipPath></defs><g
     transform="matrix(1.3333333,0,0,-1.3333333,-31.999999,330.66666)"
     id="g10"><g
       id="g12"><g
         clip-path="url(#clipPath18)"
         id="g14"><g
           transform="translate(228,220)"
           id="g20"><path
             id="path22"
             style="fill:#ffffff;fill-opacity:1;fill-rule:nonzero;stroke:none"
             d="M 0,0 H -6.188 C -7.189,0 -8,-0.676 -8,-1.509 V -2.491 C -8,-3.324 -7.189,-4 -6.188,-4 H 0 V -8 H -6.188 C -7.189,-8 -8,-8.676 -8,-9.509 v -0.982 C -8,-11.324 -7.189,-12 -6.188,-12 H 0 v -4 H -6.188 C -7.189,-16 -8,-16.676 -8,-17.509 v -0.982 C -8,-19.324 -7.189,-20 -6.188,-20 H 0 v -4 H -6.188 C -7.189,-24 -8,-24.676 -8,-25.509 v -0.982 C -8,-27.324 -7.189,-28 -6.188,-28 H 0 v -4 H -6.188 C -7.189,-32 -8,-32.676 -8,-33.509 v -0.982 C -8,-35.324 -7.189,-36 -6.188,-36 H 0 V -125.678 -193.032 -208 H -14.814 -185.185 -200 v 14.968 67.354 V -36 h 6.189 c 1,0 1.811,0.676 1.811,1.509 v 0.982 c 0,0.833 -0.811,1.509 -1.811,1.509 H -200 v 4 h 6.189 c 1,0 1.811,0.676 1.811,1.509 v 0.982 c 0,0.833 -0.811,1.509 -1.811,1.509 H -200 v 4 h 6.189 c 1,0 1.811,0.676 1.811,1.509 v 0.982 c 0,0.833 -0.811,1.509 -1.811,1.509 H -200 v 4 h 6.189 c 1,0 1.811,0.676 1.811,1.509 v 0.982 c 0,0.833 -0.811,1.509 -1.811,1.509 H -200 v 4 h 6.189 c 1,0 1.811,0.676 1.811,1.509 v 0.982 C -192,-0.676 -192.811,0 -193.811,0 H -200 v 9.032 c 0,8.267 6.633,14.968 14.815,14.968 H -14.814 C -6.633,24 0,17.299 0,9.032 Z M -14.814,28 H -185.185 C -195.56,28 -204,19.491 -204,9.032 V 0 v -4 -4 -4 -4 -4 -4 -4 -4 -4 -89.678 -67.354 -14.968 -4 h 4 14.815 H -14.814 0 4 v 4 14.968 67.354 89.678 4 4 4 4 4 4 4 4 4 9.032 C 4,19.491 -4.44,28 -14.814,28" /></g><g
           transform="translate(204,42.9189)"
           id="g24"><path
             id="path26"
             style="fill:#ffffff;fill-opacity:1;fill-rule:nonzero;stroke:none"
             d="m 0,0 c 0,-3.821 -3.24,-6.919 -7.238,-6.919 h -137.524 c -3.997,0 -7.238,3.098 -7.238,6.919 v 114.162 c 0,3.821 3.241,6.919 7.238,6.919 H -7.238 c 3.998,0 7.238,-3.098 7.238,-6.919 z m -7.238,125.081 h -137.524 c -6.196,0 -11.238,-4.898 -11.238,-10.919 V 0 c 0,-6.021 5.042,-10.919 11.238,-10.919 H -7.238 C -1.041,-10.919 4,-6.021 4,0 v 114.162 c 0,6.021 -5.041,10.919 -11.238,10.919" /></g><g
           transform="translate(204.1475,227.4824)"
           id="g28"><path
             id="path30"
             style="fill:#ffffff;fill-opacity:1;fill-rule:nonzero;stroke:none"
             d="m 0,0 c 1.103,-0.644 1.853,-1.827 1.853,-3.197 v -44.571 c 0,-1.44 -0.829,-2.674 -2.027,-3.291 C -5.733,-42.649 -5.249,-24.978 0,0 M -147.156,0.518 H -3.978 c -5.315,-25.424 -5.51,-42.498 -0.576,-52 H -146.58 c 4.934,9.502 4.74,26.576 -0.576,52 m -6.991,-48.286 v 44.571 c 0,1.78 1.253,3.264 2.924,3.626 5.408,-25.55 5.871,-43.52 0.034,-51.833 -1.689,0.349 -2.958,1.844 -2.958,3.636 M 0.107,4.518 H -1.861 -3.134 -148 h -2.433 -0.808 c -4.271,0 -7.745,-3.461 -7.745,-7.715 v -44.571 c 0,-4.326 3.402,-7.714 7.745,-7.714 h 0.808 1.254 147.224 0.094 1.968 c 4.343,0 7.746,3.388 7.746,7.714 v 44.571 c 0,4.254 -3.475,7.715 -7.746,7.715" /></g></g></g></g></svg>