<?xml version="1.0" encoding="UTF-8" standalone="no"?>
<svg
   xmlns:dc="http://purl.org/dc/elements/1.1/"
   xmlns:cc="http://creativecommons.org/ns#"
   xmlns:rdf="http://www.w3.org/1999/02/22-rdf-syntax-ns#"
   xmlns:svg="http://www.w3.org/2000/svg"
   xmlns="http://www.w3.org/2000/svg"
   viewBox="0 0 320 320"
   height="320"
   width="320"
   xml:space="preserve"
   version="1.1"
   id="svg2"><metadata
     id="metadata8"><rdf:RDF><cc:Work
         rdf:about=""><dc:format>image/svg+xml</dc:format><dc:type
           rdf:resource="http://purl.org/dc/dcmitype/StillImage" /></cc:Work></rdf:RDF></metadata><defs
     id="defs6"><clipPath
       id="clipPath18"
       clipPathUnits="userSpaceOnUse"><path
         id="path20"
         d="M 0,256 256,256 256,0 0,0 0,256 Z" /></clipPath></defs><g
     transform="matrix(1.25,0,0,-1.25,0,320)"
     id="g10"><path
       id="path12"
       style="fill:#f2f2f2;fill-opacity:1;fill-rule:nonzero;stroke:none"
       d="m 80,200 96,0 0,-14 -96,0 0,14 z M 69.657,186 64,191.657 64,200 l 12,0 0,-14 -6.343,0 z M 192,191.657 186.343,186 180,186 l 0,14 12,0 0,-8.343 z M 180,182 l 8,0 8,8 0,14 -136,0 0,-14 8,-8 8,0 4,0 96,0 4,0 z" /><g
       id="g14"><g
         clip-path="url(#clipPath18)"
         id="g16"><g
           transform="translate(220,228)"
           id="g22"><path
             id="path24"
             style="fill:#f2f2f2;fill-opacity:1;fill-rule:nonzero;stroke:none"
             d="M 0,0 0,-5.083 0,-12 l 0,-52 0,-4 -4,0 -12,0 0,84 12,0 c 2.209,0 4,-1.791 4,-4 L 0,0 Z m 0,-200 c 0,-2.209 -1.791,-4 -4,-4 l -64,0 c -2.209,0 -4,1.791 -4,4 l 0,128 68,0 4,0 0,-128 z m -76,132 -88,0 0,84 144,0 0,-84 -52,0 -4,0 z m -24,-112 0,32 c 8.836,0 16,-7.163 16,-16 0,-8.837 -7.164,-16 -16,-16 m -32,32 28,0 0,-32 -28,0 0,32 z m -36,-4 32,0 0,-24 -32,0 0,24 z m 92,-48 0,-12 c 0,-2.209 -1.791,-4 -4,-4 l -100,0 c -2.209,0 -4,1.791 -4,4 l 0,28 10,0 c 2.606,0 4.824,1.674 5.65,4 l 32.35,0 0,-4 4,0 28,0 4,0 c 11.028,0 20,8.972 20,20 0,11.028 -8.972,20 -20,20 l -4,0 -28,0 -4,0 0,-4 -32.35,0 c -0.826,2.326 -3.044,4 -5.65,4 l -10,0 0,72 4,0 104,0 0,-128 z m -108,52 10,0 c 1.104,0 2,-0.896 2,-2 l 0,-2 0,-24 0,-2 c 0,-1.104 -0.896,-2 -2,-2 l -10,0 0,32 z m 0,84 0,52 0,6.917 0,5.083 0,12 c 0,2.209 1.791,4 4,4 l 12,0 0,-84 -12,0 -4,0 0,4 z m 180,84 -176,0 c -4.411,0 -8,-3.589 -8,-8 l 0,-156 0,-4 0,-32 0,-4 0,-28 c 0,-4.411 3.589,-8 8,-8 l 100,0 c 4.411,0 8,3.589 8,8 l 0,5.082 c 1.179,-0.684 2.542,-1.082 4,-1.082 l 64,0 c 4.411,0 8,3.589 8,8 L 4,12 c 0,4.411 -3.589,8 -8,8" /></g></g></g></g></svg>