<?xml version="1.0" encoding="UTF-8" standalone="no"?>
<svg
   xmlns:dc="http://purl.org/dc/elements/1.1/"
   xmlns:cc="http://creativecommons.org/ns#"
   xmlns:rdf="http://www.w3.org/1999/02/22-rdf-syntax-ns#"
   xmlns:svg="http://www.w3.org/2000/svg"
   xmlns="http://www.w3.org/2000/svg"
   viewBox="0 0 320 149.33333"
   height="149.33333"
   width="320"
   xml:space="preserve"
   id="svg2"
   version="1.1"><metadata
     id="metadata8"><rdf:RDF><cc:Work
         rdf:about=""><dc:format>image/svg+xml</dc:format><dc:type
           rdf:resource="http://purl.org/dc/dcmitype/StillImage" /></cc:Work></rdf:RDF></metadata><defs
     id="defs6"><clipPath
       id="clipPath18"
       clipPathUnits="userSpaceOnUse"><path
         id="path16"
         d="M 0,256 H 256 V 0 H 0 Z" /></clipPath></defs><g
     transform="matrix(1.3333333,0,0,-1.3333333,-10.666666,234.66666)"
     id="g10"><g
       id="g12"><g
         clip-path="url(#clipPath18)"
         id="g14"><g
           transform="translate(244,76)"
           id="g20"><path
             id="path22"
             style="fill:#ffffff;fill-opacity:1;fill-rule:nonzero;stroke:none"
             d="m 0,0 c 0,-4.418 -3.582,-8 -8,-8 h -56 c -8,0 -8,8 -8,8 v 59.71 c 0,2.37 -1.921,4.29 -4.289,4.29 h -7.535 -64.352 -11.534 c -2.37,0 -4.29,-1.92 -4.29,-4.29 L -164,0 c 0,0 0,-8 -8,-8 h -52 c -4.418,0 -8,3.582 -8,8 v 88 c 0,4.418 3.582,8 8,8 H -8 c 4.418,0 8,-3.582 8,-8 z m -148.176,8 h 64.352 C -81.712,8 -80,9.712 -80,11.824 V 60 h 3.711 C -76.13,60 -76,59.87 -76,59.71 V 4 h -84 v 55.71 c 0,0.16 0.13,0.29 0.29,0.29 H -152 V 11.824 C -152,9.712 -150.288,8 -148.176,8 M -148,60 h 64 V 12 h -64 z m -14.854,-68 c 2.012,2.427 2.854,5.523 2.854,8 h 84 c 0,-2.477 0.843,-5.573 2.854,-8 z M -8,100 h -216 c -6.617,0 -12,-5.383 -12,-12 V 0 c 0,-6.617 5.383,-12 12,-12 h 60 92 64 c 6.617,0 12,5.383 12,12 v 88 c 0,6.617 -5.383,12 -12,12" /></g><g
           transform="translate(160,150)"
           id="g24"><path
             id="path26"
             style="fill:#ffffff;fill-opacity:1;fill-rule:nonzero;stroke:none"
             d="m 0,0 c 0,-1.104 -0.896,-2 -2,-2 h -60 c -1.104,0 -2,0.896 -2,2 v 12 c 0,1.104 0.896,2 2,2 h 60 c 1.104,0 2,-0.896 2,-2 z m -2,18 h -60 c -3.309,0 -6,-2.691 -6,-6 V 0 c 0,-3.309 2.691,-6 6,-6 h 60 c 3.309,0 6,2.691 6,6 v 12 c 0,3.309 -2.691,6 -6,6" /></g><g
           transform="translate(46,114)"
           id="g28"><path
             id="path30"
             style="fill:#ffffff;fill-opacity:1;fill-rule:nonzero;stroke:none"
             d="m 0,0 c 4.418,0 8,-3.582 8,-8 0,-4.418 -3.582,-8 -8,-8 -4.418,0 -8,3.582 -8,8 0,4.418 3.582,8 8,8 m 0,-20 c 6.627,0 12,5.373 12,12 0,6.627 -5.373,12 -12,12 -6.627,0 -12,-5.373 -12,-12 0,-6.627 5.373,-12 12,-12" /></g><g
           transform="translate(146,100)"
           id="g32"><path
             id="path34"
             style="fill:#ffffff;fill-opacity:1;fill-rule:nonzero;stroke:none"
             d="m 0,0 h -8 c -1.104,0 -2,0.896 -2,2 0,1.104 0.896,2 2,2 H 0 C 1.104,4 2,3.104 2,2 2,0.896 1.104,0 0,0 m 0,8 h -8 c -3.309,0 -6,-2.691 -6,-6 0,-3.309 2.691,-6 6,-6 h 8 c 3.309,0 6,2.691 6,6 0,3.309 -2.691,6 -6,6" /></g><g
           transform="translate(148,118)"
           id="g36"><path
             id="path38"
             style="fill:#ffffff;fill-opacity:1;fill-rule:nonzero;stroke:none"
             d="m 0,0 c 0,-1.104 -0.896,-2 -2,-2 -1.104,0 -2,0.896 -2,2 v 4 c 0,1.104 0.896,2 2,2 1.104,0 2,-0.896 2,-2 z m -12,0 c 0,-1.104 -0.896,-2 -2,-2 -1.104,0 -2,0.896 -2,2 v 4 c 0,1.104 0.896,2 2,2 1.104,0 2,-0.896 2,-2 z m -12,0 c 0,-1.104 -0.896,-2 -2,-2 -1.104,0 -2,0.896 -2,2 v 4 c 0,1.104 0.896,2 2,2 1.104,0 2,-0.896 2,-2 z m -12,0 c 0,-1.104 -0.896,-2 -2,-2 -1.104,0 -2,0.896 -2,2 v 4 c 0,1.104 0.896,2 2,2 1.104,0 2,-0.896 2,-2 z m 34,10 c -3.309,0 -6,-2.691 -6,-6 0,3.309 -2.691,6 -6,6 -3.309,0 -6,-2.691 -6,-6 0,3.309 -2.691,6 -6,6 -3.309,0 -6,-2.691 -6,-6 0,3.309 -2.691,6 -6,6 -3.309,0 -6,-2.691 -6,-6 V 0 c 0,-3.309 2.691,-6 6,-6 3.309,0 6,2.691 6,6 0,-3.309 2.691,-6 6,-6 3.309,0 6,2.691 6,6 0,-3.309 2.691,-6 6,-6 3.309,0 6,2.691 6,6 0,-3.309 2.691,-6 6,-6 3.309,0 6,2.691 6,6 v 4 c 0,3.309 -2.691,6 -6,6" /></g><g
           transform="translate(120,96)"
           id="g40"><path
             id="path42"
             style="fill:#ffffff;fill-opacity:1;fill-rule:nonzero;stroke:none"
             d="M 0,0 C -2.209,0 -4,1.791 -4,4 -4,6.209 -2.209,8 0,8 2.209,8 4,6.209 4,4 4,1.791 2.209,0 0,0 m -8,2 c 0,-1.104 -0.896,-2 -2,-2 -1.104,0 -2,0.896 -2,2 v 4 c 0,1.104 0.896,2 2,2 1.104,0 2,-0.896 2,-2 z M 0,12 C -2.092,12 -3.993,11.187 -5.42,9.867 -6.521,11.17 -8.165,12 -10,12 -13.309,12 -16,9.309 -16,6 V 2 c 0,-3.309 2.691,-6 6,-6 1.835,0 3.479,0.83 4.58,2.133 C -3.993,-3.187 -2.092,-4 0,-4 c 4.411,0 8,3.589 8,8 0,4.411 -3.589,8 -8,8" /></g><path
           id="path44"
           style="fill:#ffffff;fill-opacity:1;fill-rule:nonzero;stroke:none"
           d="M 68,84 H 24 v 44 h 44 z m 0,48 H 24 c -2.209,0 -4,-1.791 -4,-4 V 84 c 0,-2.209 1.791,-4 4,-4 h 44 c 2.209,0 4,1.791 4,4 v 44 c 0,2.209 -1.791,4 -4,4" /><g
           transform="translate(210,114)"
           id="g46"><path
             id="path48"
             style="fill:#ffffff;fill-opacity:1;fill-rule:nonzero;stroke:none"
             d="m 0,0 c 4.418,0 8,-3.582 8,-8 0,-4.418 -3.582,-8 -8,-8 -4.418,0 -8,3.582 -8,8 0,4.418 3.582,8 8,8 m 0,-20 c 6.627,0 12,5.373 12,12 0,6.627 -5.373,12 -12,12 -6.627,0 -12,-5.373 -12,-12 0,-6.627 5.373,-12 12,-12" /></g><path
           id="path50"
           style="fill:#ffffff;fill-opacity:1;fill-rule:nonzero;stroke:none"
           d="m 232,84 h -44 v 44 h 44 z m 0,48 h -44 c -2.209,0 -4,-1.791 -4,-4 V 84 c 0,-2.209 1.791,-4 4,-4 h 44 c 2.209,0 4,1.791 4,4 v 44 c 0,2.209 -1.791,4 -4,4" /><g
           transform="translate(86,164)"
           id="g52"><path
             id="path54"
             style="fill:#ffffff;fill-opacity:1;fill-rule:nonzero;stroke:none"
             d="m 0,0 h -60 c -1.104,0 -2,-0.896 -2,-2 0,-1.104 0.896,-2 2,-2 H 0 c 1.104,0 2,0.896 2,2 0,1.104 -0.896,2 -2,2" /></g><g
           transform="translate(86,156)"
           id="g56"><path
             id="path58"
             style="fill:#ffffff;fill-opacity:1;fill-rule:nonzero;stroke:none"
             d="m 0,0 h -60 c -1.104,0 -2,-0.896 -2,-2 0,-1.104 0.896,-2 2,-2 H 0 c 1.104,0 2,0.896 2,2 0,1.104 -0.896,2 -2,2" /></g><g
           transform="translate(86,148)"
           id="g60"><path
             id="path62"
             style="fill:#ffffff;fill-opacity:1;fill-rule:nonzero;stroke:none"
             d="m 0,0 h -60 c -1.104,0 -2,-0.896 -2,-2 0,-1.104 0.896,-2 2,-2 H 0 c 1.104,0 2,0.896 2,2 0,1.104 -0.896,2 -2,2" /></g><g
           transform="translate(170,160)"
           id="g64"><path
             id="path66"
             style="fill:#ffffff;fill-opacity:1;fill-rule:nonzero;stroke:none"
             d="m 0,0 h 60 c 1.104,0 2,0.896 2,2 0,1.104 -0.896,2 -2,2 H 0 C -1.104,4 -2,3.104 -2,2 -2,0.896 -1.104,0 0,0" /></g><g
           transform="translate(170,152)"
           id="g68"><path
             id="path70"
             style="fill:#ffffff;fill-opacity:1;fill-rule:nonzero;stroke:none"
             d="m 0,0 h 60 c 1.104,0 2,0.896 2,2 0,1.104 -0.896,2 -2,2 H 0 C -1.104,4 -2,3.104 -2,2 -2,0.896 -1.104,0 0,0" /></g><g
           transform="translate(232,146)"
           id="g72"><path
             id="path74"
             style="fill:#ffffff;fill-opacity:1;fill-rule:nonzero;stroke:none"
             d="m 0,0 c 0,1.104 -0.896,2 -2,2 h -60 c -1.104,0 -2,-0.896 -2,-2 0,-1.104 0.896,-2 2,-2 h 60 c 1.104,0 2,0.896 2,2" /></g></g></g></g></svg>