<?xml version="1.0" encoding="UTF-8" standalone="no"?>
<svg
   xmlns:dc="http://purl.org/dc/elements/1.1/"
   xmlns:cc="http://creativecommons.org/ns#"
   xmlns:rdf="http://www.w3.org/1999/02/22-rdf-syntax-ns#"
   xmlns:svg="http://www.w3.org/2000/svg"
   xmlns="http://www.w3.org/2000/svg"
   viewBox="0 0 317.94644 320.00024"
   height="320.00024"
   width="317.94644"
   xml:space="preserve"
   id="svg2"
   version="1.1"><metadata
     id="metadata8"><rdf:RDF><cc:Work
         rdf:about=""><dc:format>image/svg+xml</dc:format><dc:type
           rdf:resource="http://purl.org/dc/dcmitype/StillImage" /></cc:Work></rdf:RDF></metadata><defs
     id="defs6"><clipPath
       id="clipPath18"
       clipPathUnits="userSpaceOnUse"><path
         id="path16"
         d="M 0,256 H 256 V 0 H 0 Z" /></clipPath></defs><g
     transform="matrix(1.3333333,0,0,-1.3333333,-11.693445,330.66666)"
     id="g10"><g
       id="g12"><g
         clip-path="url(#clipPath18)"
         id="g14"><g
           transform="translate(128,122.4873)"
           id="g20"><path
             id="path22"
             style="fill:#ffffff;fill-opacity:1;fill-rule:nonzero;stroke:none"
             d="M 0,0 C -13.099,0 -26.198,-0.503 -39.269,-1.508 L -52,-2.487 c 0,0 -6,0 -6,-8 0,-8 -2,-72 -2,-72 0,0 -4,-16 60,-16 64,0 60,16 60,16 0,0 -2,64 -2,72 0,8 -6,8 -6,8 L 39.269,-1.508 C 26.198,-0.503 13.1,0 0,0 m 0,-4 c 12.945,0 26.055,-0.503 38.962,-1.496 l 12.731,-0.98 0.154,-0.011 H 52 c 0.082,0 2,-0.046 2,-4 0,-7.971 1.92,-69.509 2.002,-72.125 l 0.014,-0.429 0.023,-0.094 c -0.132,-0.781 -1.486,-2.944 -6.605,-5.156 -6.541,-2.827 -20.428,-6.196 -49.434,-6.196 -29.006,0 -42.893,3.369 -49.434,6.196 -5.118,2.212 -6.473,4.375 -6.605,5.156 l 0.024,0.094 0.013,0.429 c 0.082,2.616 2.002,64.154 2.002,72.125 0,2.407 0.713,3.817 2.011,3.991 l 0.002,-0.002 0.294,0.022 12.731,0.98 C -26.054,-4.503 -12.945,-4 0,-4" /></g><path
           id="path24"
           style="fill:#ffffff;fill-opacity:1;fill-rule:nonzero;stroke:none"
           d="M 180,112 H 76 V 48 H 180 Z M 176,52 H 80 v 56 h 96 z" /><g
           transform="translate(204,92)"
           id="g26"><path
             id="path28"
             style="fill:#ffffff;fill-opacity:1;fill-rule:nonzero;stroke:none"
             d="m 0,0 c -6.617,0 -12,-5.383 -12,-12 0,-6.617 5.383,-12 12,-12 6.617,0 12,5.383 12,12 C 12,-5.383 6.617,0 0,0 m 0,-4 c 4.418,0 8,-3.582 8,-8 0,-4.418 -3.582,-8 -8,-8 -4.418,0 -8,3.582 -8,8 0,4.418 3.582,8 8,8" /></g><g
           transform="translate(224,100)"
           id="g30"><path
             id="path32"
             style="fill:#ffffff;fill-opacity:1;fill-rule:nonzero;stroke:none"
             d="m 0,0 c -6.617,0 -12,-5.383 -12,-12 0,-6.617 5.383,-12 12,-12 6.617,0 12,5.383 12,12 C 12,-5.383 6.617,0 0,0 m 0,-4 c 4.418,0 8,-3.582 8,-8 0,-4.418 -3.582,-8 -8,-8 -4.418,0 -8,3.582 -8,8 0,4.418 3.582,8 8,8" /></g><g
           transform="translate(220,60)"
           id="g34"><path
             id="path36"
             style="fill:#ffffff;fill-opacity:1;fill-rule:nonzero;stroke:none"
             d="m 0,0 -24,-8 v 4 L 0,4 Z" /></g><g
           transform="translate(220,52)"
           id="g38"><path
             id="path40"
             style="fill:#ffffff;fill-opacity:1;fill-rule:nonzero;stroke:none"
             d="m 0,0 -24,-8 v 4 L 0,4 Z" /></g><g
           transform="translate(220,44)"
           id="g42"><path
             id="path44"
             style="fill:#ffffff;fill-opacity:1;fill-rule:nonzero;stroke:none"
             d="m 0,0 -24,-8 v 4 L 0,4 Z" /></g><g
           transform="translate(72,116)"
           id="g46"><path
             id="path48"
             style="fill:#ffffff;fill-opacity:1;fill-rule:nonzero;stroke:none"
             d="M 0,0 Z" /></g><g
           transform="translate(204,114)"
           id="g50"><path
             id="path52"
             style="fill:#ffffff;fill-opacity:1;fill-rule:nonzero;stroke:none"
             d="m 0,0 c 0,-1.104 -0.896,-2 -2,-2 -1.104,0 -2,0.896 -2,2 0,1.104 0.896,2 2,2 1.104,0 2,-0.896 2,-2" /></g><g
           transform="translate(44,104)"
           id="g54"><path
             id="path56"
             style="fill:#ffffff;fill-opacity:1;fill-rule:nonzero;stroke:none"
             d="m 0,0 h -8 c -3.309,0 -6,-2.691 -6,-6 v -4 h -4 c -3.309,0 -6,-2.691 -6,-6 v -8 c 0,-3.309 2.691,-6 6,-6 h 4 v -4 c 0,-3.309 2.691,-6 6,-6 h 8 c 3.309,0 6,2.691 6,6 v 4 h 4 c 3.309,0 6,2.691 6,6 v 8 c 0,3.309 -2.691,6 -6,6 H 6 v 4 C 6,-2.691 3.309,0 0,0 m 0,-4 c 1.104,0 2,-0.896 2,-2 v -8 h 8 c 1.104,0 2,-0.896 2,-2 v -8 c 0,-1.104 -0.896,-2 -2,-2 H 2 v -8 c 0,-1.104 -0.896,-2 -2,-2 h -8 c -1.104,0 -2,0.896 -2,2 v 8 h -8 c -1.104,0 -2,0.896 -2,2 v 8 c 0,1.104 0.896,2 2,2 h 8 v 8 c 0,1.104 0.896,2 2,2 h 8" /></g><g
           transform="translate(40,92)"
           id="g58"><path
             id="path60"
             style="fill:#ffffff;fill-opacity:1;fill-rule:nonzero;stroke:none"
             d="m 0,0 c -4.411,0 -8,-3.589 -8,-8 0,-4.411 3.589,-8 8,-8 4.411,0 8,3.589 8,8 0,4.411 -3.589,8 -8,8 m 0,-4 c 2.209,0 4,-1.791 4,-4 0,-2.209 -1.791,-4 -4,-4 -2.209,0 -4,1.791 -4,4 0,2.209 1.791,4 4,4" /></g><g
           transform="translate(144,192)"
           id="g62"><path
             id="path64"
             style="fill:#ffffff;fill-opacity:1;fill-rule:nonzero;stroke:none"
             d="m 0,0 h -32 c -2.209,0 -4,-1.791 -4,-4 v -24 c 0,-2.209 1.791,-4 4,-4 H 0 c 2.209,0 4,1.791 4,4 V -4 C 4,-1.791 2.209,0 0,0 M 0,-28 H -32 V -4 H 0 Z" /></g><path
           id="path66"
           style="fill:#ffffff;fill-opacity:1;fill-rule:nonzero;stroke:none"
           d="M 88,216 H 56 v 4 h 32 z" /><path
           id="path68"
           style="fill:#ffffff;fill-opacity:1;fill-rule:nonzero;stroke:none"
           d="m 200,216 h -32 v 4 h 32 z" /><g
           transform="translate(60,48)"
           id="g70"><path
             id="path72"
             style="fill:#ffffff;fill-opacity:1;fill-rule:nonzero;stroke:none"
             d="M 0,0 V 0.056 L -1.558,0.314 C -2.993,0.922 -4,2.344 -4,4 -4,6.209 -2.209,8 0,8 2.209,8 4,6.209 4,4 4,1.791 2.209,0 0,0 m 0,-12 -1.176,0.196 C -2.807,-11.3 -4,-9.797 -4,-8 c 0,2.139 1.683,3.869 3.794,3.979 L 0,-4.055 V -4 c 2.209,0 4,-1.791 4,-4 0,-2.209 -1.791,-4 -4,-4 m -24,7.389 v 0 c 0,2.19 1.785,3.905 3.895,3.907 L -6.233,-3.017 C -7.332,-4.385 -8,-6.112 -8,-8 c 0,-0.967 0.181,-1.891 0.497,-2.75 l -13.155,2.193 C -22.586,-8.235 -24,-6.566 -24,-4.611 m 0,12 c 0,2.191 1.787,3.907 3.898,3.907 0.214,0 0.432,-0.018 0.651,-0.054 L -6.209,9.035 C -7.327,7.659 -8,5.907 -8,4 -8,3.055 -7.829,2.15 -7.525,1.31 l -11.268,1.878 c -0.219,0.036 -0.44,0.037 -0.66,0.054 l -1.205,0.201 C -22.586,3.765 -24,5.434 -24,7.389 M 5.274,-2 C 6.941,-0.533 8,1.609 8,4 8,8.3 4.587,11.809 0.33,11.983 L 0.331,12 -18.793,15.188 c -0.433,0.072 -0.873,0.108 -1.308,0.108 h -0.001 C -24.457,15.296 -28,11.748 -28,7.389 -28,4.997 -26.953,2.835 -25.263,1.36 -26.936,-0.09 -28,-2.227 -28,-4.611 c 0,-3.927 2.812,-7.246 6.685,-7.892 l 19.151,-3.191 c 0.542,-0.154 1.107,-0.247 1.688,-0.282 L 0,-16.055 V -16 c 4.411,0 8,3.589 8,8 0,2.391 -1.059,4.533 -2.726,6" /></g><g
           transform="translate(140,248)"
           id="g74"><path
             id="path76"
             style="fill:#ffffff;fill-opacity:1;fill-rule:nonzero;stroke:none"
             d="M 0,0 H -24 C -37.7,0 -49.308,-9.812 -51.602,-23.331 L -52.394,-28 h 4.736 71.316 4.736 l -0.792,4.669 C 25.308,-9.812 13.699,0 0,0 m 0,-4 c 11.837,0 21.738,-8.688 23.658,-20 h -71.316 c 1.92,11.312 11.821,20 23.658,20 H 0" /></g><g
           transform="translate(168.2002,216)"
           id="g78"><path
             id="path80"
             style="fill:#ffffff;fill-opacity:1;fill-rule:nonzero;stroke:none"
             d="M 0,0 H -5.378 -75.022 -80.4 l 1.547,-5.151 C -74.813,-18.604 -62.208,-28 -48.2,-28 h 16 c 14.007,0 26.612,9.396 30.653,22.849 z m -5.378,-4 c -3.464,-11.533 -14.2,-20 -26.822,-20 h -16 c -12.622,0 -23.358,8.467 -26.822,20 h 69.644" /></g><g
           transform="translate(84,172)"
           id="g82"><path
             id="path84"
             style="fill:#ffffff;fill-opacity:1;fill-rule:nonzero;stroke:none"
             d="m 0,0 c -8,16 -12,16 -12,16 l -20,8 -4,12 8,1.333 V 50.737 C -30.316,51.439 -32,52 -32,52 v 8 l 44,3.692 4,4.012 L -32.307,63.988 -36,63.704 V 60 52 49.117 l 2.735,-0.912 c 0.036,-0.012 0.502,-0.167 1.265,-0.411 v -7.072 l -4.658,-0.776 -4.617,-0.77 1.48,-4.441 4,-12 0.587,-1.76 1.723,-0.689 20,-8 0.714,-0.286 h 0.006 C -11.86,11.355 -8.761,8.579 -3.578,-1.789 2.793,-14.531 11.592,-20.341 16,-22.591 v 4.57 C 11.792,-15.495 5.089,-10.178 0,0" /></g><g
           transform="translate(208.6572,211.9458)"
           id="g86"><path
             id="path88"
             style="fill:#ffffff;fill-opacity:1;fill-rule:nonzero;stroke:none"
             d="m 0,0 -4.657,0.776 v 7.072 c 0.762,0.244 1.228,0.4 1.264,0.411 l 2.736,0.912 v 2.883 8 3.704 l -3.694,0.284 -48.306,3.716 4,-4.011 44,-3.693 v -8 c 0,0 -1.684,-0.561 -4,-1.263 V -2.612 l 8,-1.334 -4,-12 -20,-8 c 0,0 -4,0 -12,-16 -5.089,-10.178 -11.792,-15.495 -16,-18.021 v -4.57 c 4.408,2.25 13.207,8.06 19.578,20.802 5.183,10.368 8.281,13.144 9.186,13.789 h 0.006 l 0.715,0.286 20,8 1.723,0.689 0.587,1.761 4,12 1.48,4.44 z" /></g><g
           transform="translate(152,140)"
           id="g90"><path
             id="path92"
             style="fill:#ffffff;fill-opacity:1;fill-rule:nonzero;stroke:none"
             d="m 0,0 c 0,-2.209 -1.791,-4 -4,-4 h -40 c -2.209,0 -4,1.791 -4,4 v 56 h -4 V 0 c 0,-4.411 3.589,-8 8,-8 h 40 c 4.411,0 8,3.589 8,8 V 56 H 0 Z" /></g><g
           transform="translate(172,172)"
           id="g94"><path
             id="path96"
             style="fill:#ffffff;fill-opacity:1;fill-rule:nonzero;stroke:none"
             d="m 0,0 v -32 h -16 v -4 H 0 4 v 4 32 z" /></g><g
           transform="translate(100,140)"
           id="g98"><path
             id="path100"
             style="fill:#ffffff;fill-opacity:1;fill-rule:nonzero;stroke:none"
             d="m 0,0 h -16 v 32 h -4 V 0 -4 h 4 16 z" /></g><g
           transform="translate(244.7295,82.5078)"
           id="g102"><path
             id="path104"
             style="fill:#ffffff;fill-opacity:1;fill-rule:nonzero;stroke:none"
             d="m 0,0 c -0.249,1.947 -0.505,3.943 -0.761,5.988 -1.423,11.387 -2.498,20.488 -3.194,27.051 -0.713,6.719 -5.888,12.151 -12.583,13.21 -9.915,1.567 -26.478,5.508 -34.39,8.655 -4.316,1.718 -8.886,2.588 -13.582,2.588 h -28.219 v -4 h 28.219 c 4.149,0 8.249,-0.771 12.104,-2.304 8.041,-3.199 24.587,-7.206 35.243,-8.89 4.916,-0.777 8.705,-4.732 9.23,-9.681 0.568,-5.348 1.539,-13.814 3.204,-27.125 4,-32 8,-52 -12,-60 l -36.173,-10.851 c -2.677,-0.803 -5.411,-1.374 -8.185,-1.711 -9.072,-1.102 -31.189,-3.438 -55.642,-3.438 -24.454,0 -46.57,2.336 -55.643,3.438 -2.774,0.337 -5.508,0.908 -8.185,1.711 l -36.172,10.851 c -20,8 -16,28 -12,60 1.663,13.311 2.635,21.777 3.203,27.125 0.525,4.949 4.314,8.904 9.23,9.681 10.657,1.684 27.202,5.691 35.243,8.89 3.855,1.533 7.956,2.304 12.104,2.304 h 28.22 v 4 h -28.22 c -4.696,0 -9.266,-0.87 -13.582,-2.588 -7.913,-3.147 -24.474,-7.088 -34.389,-8.655 -6.697,-1.059 -11.871,-6.491 -12.584,-13.21 -0.697,-6.563 -1.771,-15.664 -3.195,-27.051 -0.255,-2.045 -0.511,-4.041 -0.76,-5.988 -3.687,-28.785 -6.351,-49.584 15.244,-58.222 l 0.165,-0.066 0.171,-0.051 36.172,-10.851 c 2.882,-0.865 5.86,-1.488 8.853,-1.851 8.583,-1.043 31.234,-3.467 56.125,-3.467 24.89,0 47.541,2.424 56.125,3.467 2.992,0.363 5.97,0.986 8.851,1.85 l 36.173,10.852 0.171,0.051 0.165,0.066 C 6.351,-49.584 3.687,-28.785 0,0" /></g></g></g></g></svg>