<?xml version="1.0" encoding="UTF-8" standalone="no"?>
<svg
   xmlns:dc="http://purl.org/dc/elements/1.1/"
   xmlns:cc="http://creativecommons.org/ns#"
   xmlns:rdf="http://www.w3.org/1999/02/22-rdf-syntax-ns#"
   xmlns:svg="http://www.w3.org/2000/svg"
   xmlns="http://www.w3.org/2000/svg"
   viewBox="0 0 314.66665 320"
   height="320"
   width="314.66666"
   xml:space="preserve"
   id="svg2"
   version="1.1"><metadata
     id="metadata8"><rdf:RDF><cc:Work
         rdf:about=""><dc:format>image/svg+xml</dc:format><dc:type
           rdf:resource="http://purl.org/dc/dcmitype/StillImage" /></cc:Work></rdf:RDF></metadata><defs
     id="defs6"><clipPath
       id="clipPath18"
       clipPathUnits="userSpaceOnUse"><path
         id="path16"
         d="M 0,256 H 256 V 0 H 0 Z" /></clipPath></defs><g
     transform="matrix(1.3333333,0,0,-1.3333333,-16,330.66666)"
     id="g10"><g
       id="g12"><g
         clip-path="url(#clipPath18)"
         id="g14"><g
           transform="translate(244,204)"
           id="g20"><path
             id="path22"
             style="fill:#ffffff;fill-opacity:1;fill-rule:nonzero;stroke:none"
             d="m 0,0 c 0,-4.418 -3.582,-8 -8,-8 h -4 v -168 h -4 -4 v -4 -8 -2 c 0,-1.104 -0.896,-2 -2,-2 h -181.455 c -12.111,0 -22.168,8.64 -24.174,20 h 3.629 4 v 4 12 4 h -4 -4 V 30.333 c 0,5.339 4.396,9.667 9.818,9.667 H -24 -21.818 -8 c 4.418,0 8,-3.582 8,-8 z m -12,-186 c 0,-1.104 -0.896,-2 -2,-2 h -2 v 8 h 4 z m -216,18.167 V -156 h 4 v -12 h -3.996 c 0,0.056 -0.004,0.11 -0.004,0.167 M -8,44 H -21.818 -24 -218.182 C -225.801,44 -232,37.869 -232,30.333 V -152 v -4 -11.833 -0.167 -4 h 0.314 c 2.047,-13.562 13.926,-24 28.231,-24 H -22 c 2.606,0 4.823,1.674 5.65,4 h 0.35 2 c 3.309,0 6,2.691 6,6 v 6 4 164 c 6.617,0 12,5.383 12,12 v 32 c 0,6.617 -5.383,12 -12,12" /></g><g
           transform="translate(36,192)"
           id="g24"><path
             id="path26"
             style="fill:#ffffff;fill-opacity:1;fill-rule:nonzero;stroke:none"
             d="M 0,0 V 7.997 31.22 C 0,33.86 2.13,36 4.758,36 H 175.242 C 177.87,36 180,33.86 180,31.22 V 0 Z M 180,-132 H 0 V -4 h 180 z m 0,-19.22 c 0,-2.639 -2.13,-4.78 -4.758,-4.78 H 113.211 100 76 62.789 12 l -12,16 v 4 H 180 Z M 88,-168 l -12,8 h 24 z M 175.242,40 H 4.758 C -0.071,40 -4,36.062 -4,31.22 V 7.997 0 v -4 -128 -4 -4 -1.333 l 0.8,-1.067 12,-16 1.2,-1.6 h 2 56.789 l 4.992,-3.328 12,-8 2.219,-1.48 2.219,1.48 12,8 4.992,3.328 h 68.031 c 4.829,0 8.758,3.938 8.758,8.78 v 15.22 4 128 4 31.22 c 0,4.842 -3.929,8.78 -8.758,8.78" /></g></g></g></g></svg>