<?xml version="1.0" encoding="UTF-8" standalone="no"?>
<svg
   xmlns:dc="http://purl.org/dc/elements/1.1/"
   xmlns:cc="http://creativecommons.org/ns#"
   xmlns:rdf="http://www.w3.org/1999/02/22-rdf-syntax-ns#"
   xmlns:svg="http://www.w3.org/2000/svg"
   xmlns="http://www.w3.org/2000/svg"
   viewBox="0 0 256 320"
   height="320"
   width="256"
   xml:space="preserve"
   id="svg2"
   version="1.1"><metadata
     id="metadata8"><rdf:RDF><cc:Work
         rdf:about=""><dc:format>image/svg+xml</dc:format><dc:type
           rdf:resource="http://purl.org/dc/dcmitype/StillImage" /></cc:Work></rdf:RDF></metadata><defs
     id="defs6"><clipPath
       id="clipPath20"
       clipPathUnits="userSpaceOnUse"><path
         id="path18"
         d="M 0,256 H 256 V 0 H 0 Z" /></clipPath></defs><g
     transform="matrix(1.3333333,0,0,-1.3333333,-42.666666,330.66666)"
     id="g10"><path
       id="path12"
       style="fill:#ffffff;fill-opacity:1;fill-rule:nonzero;stroke:none"
       d="m 80,200 h 96 V 186 H 80 Z M 69.657,186 64,191.657 V 200 H 76 V 186 Z M 192,191.657 186.343,186 H 180 v 14 h 12 z M 180,182 h 8 l 8,8 v 14 H 60 v -14 l 8,-8 h 8 4 96 z" /><g
       id="g14"><g
         clip-path="url(#clipPath20)"
         id="g16"><g
           transform="translate(220,228)"
           id="g22"><path
             id="path24"
             style="fill:#ffffff;fill-opacity:1;fill-rule:nonzero;stroke:none"
             d="M 0,0 V -5.083 -12 -64 -68 h -4 -12 v 84 h 12 c 2.209,0 4,-1.791 4,-4 z m 0,-200 c 0,-2.209 -1.791,-4 -4,-4 h -64 c -2.209,0 -4,1.791 -4,4 v 128 h 68 4 z m -76,132 h -88 v 84 h 144 v -84 h -52 z m -24,-112 v 32 c 8.836,0 16,-7.163 16,-16 0,-8.837 -7.164,-16 -16,-16 m -32,32 h 28 v -32 h -28 z m -36,-4 h 32 v -24 h -32 z m 92,-48 v -12 c 0,-2.209 -1.791,-4 -4,-4 h -100 c -2.209,0 -4,1.791 -4,4 v 28 h 10 c 2.606,0 4.824,1.674 5.65,4 H -136 v -4 h 4 28 4 c 11.028,0 20,8.972 20,20 0,11.028 -8.972,20 -20,20 h -4 -28 -4 v -4 h -32.35 c -0.826,2.326 -3.044,4 -5.65,4 h -10 v 72 h 4 104 z m -108,52 h 10 c 1.104,0 2,-0.896 2,-2 v -2 -24 -2 c 0,-1.104 -0.896,-2 -2,-2 h -10 z m 0,84 V -12 -5.083 0 12 c 0,2.209 1.791,4 4,4 h 12 v -84 h -12 -4 z M -4,20 h -176 c -4.411,0 -8,-3.589 -8,-8 v -156 -4 -32 -4 -28 c 0,-4.411 3.589,-8 8,-8 h 100 c 4.411,0 8,3.589 8,8 v 5.082 c 1.179,-0.684 2.542,-1.082 4,-1.082 h 64 c 4.411,0 8,3.589 8,8 V 12 c 0,4.411 -3.589,8 -8,8" /></g></g></g></g></svg>