<?xml version="1.0" encoding="UTF-8" standalone="no"?>
<svg
   xmlns:dc="http://purl.org/dc/elements/1.1/"
   xmlns:cc="http://creativecommons.org/ns#"
   xmlns:rdf="http://www.w3.org/1999/02/22-rdf-syntax-ns#"
   xmlns:svg="http://www.w3.org/2000/svg"
   xmlns="http://www.w3.org/2000/svg"
   viewBox="0 0 288 320"
   height="320"
   width="288"
   xml:space="preserve"
   id="svg2"
   version="1.1"><metadata
     id="metadata8"><rdf:RDF><cc:Work
         rdf:about=""><dc:format>image/svg+xml</dc:format><dc:type
           rdf:resource="http://purl.org/dc/dcmitype/StillImage" /></cc:Work></rdf:RDF></metadata><defs
     id="defs6"><clipPath
       id="clipPath64"
       clipPathUnits="userSpaceOnUse"><path
         id="path62"
         d="M 0,256 H 256 V 0 H 0 Z" /></clipPath></defs><g
     transform="matrix(1.3333333,0,0,-1.3333333,-26.666666,330.66666)"
     id="g10"><path
       id="path12"
       style="fill:#ffffff;fill-opacity:1;fill-rule:nonzero;stroke:none"
       d="m 56,40 h 44 v 4 H 56 Z" /><path
       id="path14"
       style="fill:#ffffff;fill-opacity:1;fill-rule:nonzero;stroke:none"
       d="m 56,48 h 44 v 4 H 56 Z" /><path
       id="path16"
       style="fill:#ffffff;fill-opacity:1;fill-rule:nonzero;stroke:none"
       d="m 56,56 h 44 v 4 H 56 Z" /><path
       id="path18"
       style="fill:#ffffff;fill-opacity:1;fill-rule:nonzero;stroke:none"
       d="m 56,64 h 44 v 4 H 56 Z" /><path
       id="path20"
       style="fill:#ffffff;fill-opacity:1;fill-rule:nonzero;stroke:none"
       d="m 56,72 h 44 v 4 H 56 Z" /><path
       id="path22"
       style="fill:#ffffff;fill-opacity:1;fill-rule:nonzero;stroke:none"
       d="m 56,80 h 44 v 4 H 56 Z" /><path
       id="path24"
       style="fill:#ffffff;fill-opacity:1;fill-rule:nonzero;stroke:none"
       d="m 56,88 h 44 v 4 H 56 Z" /><path
       id="path26"
       style="fill:#ffffff;fill-opacity:1;fill-rule:nonzero;stroke:none"
       d="m 56,96 h 44 v 4 H 56 Z" /><path
       id="path28"
       style="fill:#ffffff;fill-opacity:1;fill-rule:nonzero;stroke:none"
       d="m 56,104 h 44 v 4 H 56 Z" /><path
       id="path30"
       style="fill:#ffffff;fill-opacity:1;fill-rule:nonzero;stroke:none"
       d="m 56,112 h 44 v 4 H 56 Z" /><path
       id="path32"
       style="fill:#ffffff;fill-opacity:1;fill-rule:nonzero;stroke:none"
       d="m 56,120 h 44 v 4 H 56 Z" /><path
       id="path34"
       style="fill:#ffffff;fill-opacity:1;fill-rule:nonzero;stroke:none"
       d="m 56,128 h 44 v 4 H 56 Z" /><path
       id="path36"
       style="fill:#ffffff;fill-opacity:1;fill-rule:nonzero;stroke:none"
       d="m 56,136 h 44 v 4 H 56 Z" /><path
       id="path38"
       style="fill:#ffffff;fill-opacity:1;fill-rule:nonzero;stroke:none"
       d="m 56,144 h 44 v 4 H 56 Z" /><path
       id="path40"
       style="fill:#ffffff;fill-opacity:1;fill-rule:nonzero;stroke:none"
       d="m 56,152 h 44 v 4 H 56 Z" /><path
       id="path42"
       style="fill:#ffffff;fill-opacity:1;fill-rule:nonzero;stroke:none"
       d="m 56,160 h 44 v 4 H 56 Z" /><path
       id="path44"
       style="fill:#ffffff;fill-opacity:1;fill-rule:nonzero;stroke:none"
       d="m 56,168 h 44 v 4 H 56 Z" /><path
       id="path46"
       style="fill:#ffffff;fill-opacity:1;fill-rule:nonzero;stroke:none"
       d="m 56,176 h 44 v 4 H 56 Z" /><path
       id="path48"
       style="fill:#ffffff;fill-opacity:1;fill-rule:nonzero;stroke:none"
       d="m 56,184 h 44 v 4 H 56 Z" /><path
       id="path50"
       style="fill:#ffffff;fill-opacity:1;fill-rule:nonzero;stroke:none"
       d="m 56,192 h 44 v 4 H 56 Z" /><path
       id="path52"
       style="fill:#ffffff;fill-opacity:1;fill-rule:nonzero;stroke:none"
       d="m 56,200 h 44 v 4 H 56 Z" /><g
       transform="translate(128,56)"
       id="g54"><path
         id="path56"
         style="fill:#ffffff;fill-opacity:1;fill-rule:nonzero;stroke:none"
         d="m 0,0 -10,16 h 20 z m -10,20 h -7.217 l 3.825,-6.12 10,-16 3.392,-5.427 3.392,5.427 10,16 3.825,6.12 H 10 Z" /></g><g
       id="g58"><g
         clip-path="url(#clipPath64)"
         id="g60"><g
           transform="translate(232,54)"
           id="g66"><path
             id="path68"
             style="fill:#ffffff;fill-opacity:1;fill-rule:nonzero;stroke:none"
             d="m 0,0 c 0,-1.104 -0.896,-2 -2,-2 h -10 v -38 c 0,-1.104 -0.896,-2 -2,-2 h -118 v 24 h -44 v -24 h -21.967 c -1.117,0 -2.018,0.915 -2,2.032 L -199.347,-2 H -206 c -1.104,0 -2,0.896 -2,2 v 188 c 0,1.104 0.896,2 2,2 h 6 v -4 h 12 v 4 h 12 v -4 -4 -4 -4 -4 -4 -4 -4 -4 h 4 36 4 v 4 4 4 4 4 4 4 4 4 h 4 V 35 c 0,-2.757 2.243,-5 5,-5 h 94 c 2.757,0 5,2.243 5,5 v 155 h 4 v -4 h 12 v 4 h 6 c 1.104,0 2,-0.896 2,-2 z m -172,-22 h 36 v -20 h -36 z m 0,184 h 36 v -4 h -36 z m 0,8 h 36 v -4 h -36 z m 0,8 h 36 v -4 h -36 z m 0,8 h 36 v -4 h -36 z m 48,4 h 96 V 35 c 0,-0.553 -0.447,-1 -1,-1 h -94 c -0.552,0 -1,0.447 -1,1 z m 122,4 h -22 -4 -96 -4 -8 v -4 h -36 v 4 h -34 c -3.309,0 -6,-2.691 -6,-6 V 0 c 0,-3.309 2.691,-6 6,-6 h 2.587 l -0.553,-33.902 c -0.027,-1.621 0.585,-3.151 1.722,-4.306 1.137,-1.155 2.656,-1.792 4.277,-1.792 h 21.967 44 118 c 3.309,0 6,2.691 6,6 v 34 h 6 c 3.309,0 6,2.691 6,6 v 188 c 0,3.309 -2.691,6 -6,6" /></g></g></g></g></svg>