<?xml version="1.0" encoding="UTF-8" standalone="no"?>
<svg
   xmlns:dc="http://purl.org/dc/elements/1.1/"
   xmlns:cc="http://creativecommons.org/ns#"
   xmlns:rdf="http://www.w3.org/1999/02/22-rdf-syntax-ns#"
   xmlns:svg="http://www.w3.org/2000/svg"
   xmlns="http://www.w3.org/2000/svg"
   viewBox="0 0 320 320"
   height="320"
   width="320"
   xml:space="preserve"
   version="1.1"
   id="svg2"><metadata
     id="metadata8"><rdf:RDF><cc:Work
         rdf:about=""><dc:format>image/svg+xml</dc:format><dc:type
           rdf:resource="http://purl.org/dc/dcmitype/StillImage" /></cc:Work></rdf:RDF></metadata><defs
     id="defs6"><clipPath
       id="clipPath16"
       clipPathUnits="userSpaceOnUse"><path
         id="path18"
         d="M 0,256 256,256 256,0 0,0 0,256 Z" /></clipPath></defs><g
     transform="matrix(1.25,0,0,-1.25,0,320)"
     id="g10"><g
       id="g12"><g
         clip-path="url(#clipPath16)"
         id="g14"><g
           transform="translate(220,20)"
           id="g20"><path
             id="path22"
             style="fill:#f2f2f2;fill-opacity:1;fill-rule:nonzero;stroke:none"
             d="m 0,0 0,20 0,3.9 2.717,54.332 c 0.854,17.098 0.854,34.437 0,51.536 L 0,184.1 0,224 c 2.209,0 4,-1.791 4,-4 L 4,0 0,0 Z m 0,-8 -184,0 c -2.209,0 -4,1.791 -4,4 l 4,0 4,0 176,0 4,0 4,0 C 4,-6.209 2.209,-8 0,-8 m -188,228 c 0,2.209 1.791,4 4,4 l 0,-39.9 -2.717,-54.332 c -0.854,-17.099 -0.854,-34.438 0,-51.536 L -184,23.9 l 0,-3.9 0,-20 -4,0 0,220 z m 160,-196 2.722,54.432 c 0.851,17.035 0.851,34.101 0,51.136 L -28,184 l 24,0 0,-160 -24,0 z m -152,-4 24,0 4.205,0 39.795,0 20,0 20,0 39.795,0 4.205,0 24,0 0,-20 -68,0 -20,0 -20,0 -68,0 0,20 z m 151.098,68 -126.196,0 c -0.041,1.333 -0.084,2.665 -0.115,4 l 126.426,0 c -0.031,-1.335 -0.073,-2.667 -0.115,-4 m -3.093,-63.8 -0.01,-0.2 -119.99,0 -0.01,0.2 -2.722,54.432 c -0.089,1.786 -0.164,3.577 -0.234,5.368 l 125.922,0 c -0.07,-1.791 -0.145,-3.582 -0.234,-5.368 L -31.995,24.2 Z M -180,184 l 24,0 -2.722,-54.432 c -0.851,-17.035 -0.851,-34.101 0,-51.136 L -156,24 l -24,0 0,160 z m 176,40 0,-36 -24,0 -4.205,0 0.21,-4.2 2.722,-54.432 c 0.553,-11.065 0.735,-22.232 0.561,-33.368 l -126.576,0 c -0.174,11.136 0.008,22.303 0.561,33.368 l 2.722,54.432 0.21,4.2 -4.205,0 -24,0 0,36 176,0 z m 4,4 -184,0 c -4.411,0 -8,-3.589 -8,-8 l 0,-220 0,-4 c 0,-4.411 3.589,-8 8,-8 l 184,0 c 4.411,0 8,3.589 8,8 l 0,4 0,220 c 0,4.411 -3.589,8 -8,8" /></g><g
           transform="translate(182.8926,84)"
           id="g24"><path
             id="path26"
             style="fill:#f2f2f2;fill-opacity:1;fill-rule:nonzero;stroke:none"
             d="M 0,0 -109.785,0 -110.513,8 0.728,8 0,0 Z m 2.917,12 -1.81,0 -112,0 -1.81,0 c -1.175,0 -2.098,-1.01 -1.991,-2.181 l 3.801,-41.819 0,28 112,0 0,-28 3.802,41.819 C 5.016,10.99 4.094,12 2.917,12" /></g><g
           transform="translate(90,26)"
           id="g28"><path
             id="path30"
             style="fill:#f2f2f2;fill-opacity:1;fill-rule:nonzero;stroke:none"
             d="M 0,0 C -2.209,0 -4,1.791 -4,4 -4,6.209 -2.209,8 0,8 2.209,8 4,6.209 4,4 4,1.791 2.209,0 0,0 m -14,0 c -2.209,0 -4,1.791 -4,4 0,2.209 1.791,4 4,4 2.209,0 4,-1.791 4,-4 0,-2.209 -1.791,-4 -4,-4 M 0,12 C -3.01,12 -5.635,10.327 -7,7.864 -8.365,10.327 -10.99,12 -14,12 c -4.411,0 -8,-3.589 -8,-8 0,-4.411 3.589,-8 8,-8 3.01,0 5.635,1.673 7,4.136 C -5.635,-2.327 -3.01,-4 0,-4 c 4.411,0 8,3.589 8,8 0,4.411 -3.589,8 -8,8" /></g><g
           transform="translate(108,36)"
           id="g32"><path
             id="path34"
             style="fill:#f2f2f2;fill-opacity:1;fill-rule:nonzero;stroke:none"
             d="m 0,0 c 3.313,0 6,-2.687 6,-6 0,-3.313 -2.687,-6 -6,-6 -3.313,0 -6,2.687 -6,6 0,3.313 2.687,6 6,6 m -10,-6 c 0,-5.514 4.486,-10 10,-10 5.514,0 10,4.486 10,10 C 10,-0.486 5.514,4 0,4 -5.514,4 -10,-0.486 -10,-6" /></g><g
           transform="translate(128,36)"
           id="g36"><path
             id="path38"
             style="fill:#f2f2f2;fill-opacity:1;fill-rule:nonzero;stroke:none"
             d="m 0,0 c 3.313,0 6,-2.687 6,-6 0,-3.313 -2.687,-6 -6,-6 -3.313,0 -6,2.687 -6,6 0,3.313 2.687,6 6,6 m -10,-6 c 0,-5.514 4.486,-10 10,-10 5.514,0 10,4.486 10,10 C 10,-0.486 5.514,4 0,4 -5.514,4 -10,-0.486 -10,-6" /></g><g
           transform="translate(148,36)"
           id="g40"><path
             id="path42"
             style="fill:#f2f2f2;fill-opacity:1;fill-rule:nonzero;stroke:none"
             d="m 0,0 c 3.313,0 6,-2.687 6,-6 0,-3.313 -2.687,-6 -6,-6 -3.313,0 -6,2.687 -6,6 0,3.313 2.687,6 6,6 m -10,-6 c 0,-5.514 4.486,-10 10,-10 5.514,0 10,4.486 10,10 C 10,-0.486 5.514,4 0,4 -5.514,4 -10,-0.486 -10,-6" /></g><g
           transform="translate(166,34)"
           id="g44"><path
             id="path46"
             style="fill:#f2f2f2;fill-opacity:1;fill-rule:nonzero;stroke:none"
             d="m 0,0 c 2.209,0 4,-1.791 4,-4 0,-2.209 -1.791,-4 -4,-4 -2.209,0 -4,1.791 -4,4 0,2.209 1.791,4 4,4 m 14,0 c 2.209,0 4,-1.791 4,-4 0,-2.209 -1.791,-4 -4,-4 -2.209,0 -4,1.791 -4,4 0,2.209 1.791,4 4,4 M 0,-12 c 3.01,0 5.635,1.673 7,4.136 1.365,-2.463 3.99,-4.136 7,-4.136 4.411,0 8,3.589 8,8 0,4.411 -3.589,8 -8,8 C 10.99,4 8.365,2.327 7,-0.136 5.635,2.327 3.01,4 0,4 -4.411,4 -8,0.411 -8,-4 c 0,-4.411 3.589,-8 8,-8" /></g></g></g></g></svg>