<?xml version="1.0" encoding="UTF-8" standalone="no"?>
<svg
   xmlns:dc="http://purl.org/dc/elements/1.1/"
   xmlns:cc="http://creativecommons.org/ns#"
   xmlns:rdf="http://www.w3.org/1999/02/22-rdf-syntax-ns#"
   xmlns:svg="http://www.w3.org/2000/svg"
   xmlns="http://www.w3.org/2000/svg"
   viewBox="0 0 320 320"
   height="320"
   width="320"
   xml:space="preserve"
   version="1.1"
   id="svg2"><metadata
     id="metadata8"><rdf:RDF><cc:Work
         rdf:about=""><dc:format>image/svg+xml</dc:format><dc:type
           rdf:resource="http://purl.org/dc/dcmitype/StillImage" /></cc:Work></rdf:RDF></metadata><defs
     id="defs6"><clipPath
       id="clipPath24"
       clipPathUnits="userSpaceOnUse"><path
         id="path26"
         d="M 0,256 256,256 256,0 0,0 0,256 Z" /></clipPath></defs><g
     transform="matrix(1.25,0,0,-1.25,0,320)"
     id="g10"><path
       id="path12"
       style="fill:#f2f2f2;fill-opacity:1;fill-rule:nonzero;stroke:none"
       d="m 184,148 4,0 0,8 -4,0 0,-8 z" /><path
       id="path14"
       style="fill:#f2f2f2;fill-opacity:1;fill-rule:nonzero;stroke:none"
       d="m 184,160 4,0 0,8 -4,0 0,-8 z" /><path
       id="path16"
       style="fill:#f2f2f2;fill-opacity:1;fill-rule:nonzero;stroke:none"
       d="m 184,172 4,0 0,8 -4,0 0,-8 z" /><path
       id="path18"
       style="fill:#f2f2f2;fill-opacity:1;fill-rule:nonzero;stroke:none"
       d="m 184,184 4,0 0,8 -4,0 0,-8 z" /><g
       id="g20"><g
         clip-path="url(#clipPath24)"
         id="g22"><g
           transform="translate(196,28.3486)"
           id="g28"><path
             id="path30"
             style="fill:#f2f2f2;fill-opacity:1;fill-rule:nonzero;stroke:none"
             d="m 0,0 0,-4.349 -124,0 0,220 120,0 c 1.104,0 4,-0.895 4,-2 l 0,-6.348 c 2.329,-0.825 4,-3.04 4,-5.652 C 4,199.04 2.329,196.825 0,196 L 0,11.303 C 2.329,10.479 4,8.263 4,5.651 4,3.04 2.329,0.824 0,0 m 0,-14.349 c 0,-1.104 -2.896,-2 -4,-2 l -132,0 c -1.104,0 -4,0.896 -4,2 l 0,6 140,0 0,-6 z m -140,228 c 0,1.105 2.896,2 4,2 l 8,0 0,-220 -12,0 0,218 z M 4,13.644 4,193.659 c 2.47,1.856 4,4.799 4,7.992 0,3.194 -1.53,6.137 -4,7.993 l 0,4.007 c 0,4.578 -5.864,6 -8,6 l -132,0 c -2.136,0 -8,-1.422 -8,-6 l 0,-228 c 0,-4.578 5.864,-6 8,-6 l 132,0 c 2.136,0 8,1.422 8,6 l 0,12.008 c 2.47,1.856 4,4.799 4,7.992 0,3.194 -1.53,6.137 -4,7.993" /></g><path
           id="path32"
           style="fill:#f2f2f2;fill-opacity:1;fill-rule:nonzero;stroke:none"
           d="m 176,148 4,0 0,8 -4,0 0,-8 z" /><path
           id="path34"
           style="fill:#f2f2f2;fill-opacity:1;fill-rule:nonzero;stroke:none"
           d="m 176,160 4,0 0,8 -4,0 0,-8 z" /><path
           id="path36"
           style="fill:#f2f2f2;fill-opacity:1;fill-rule:nonzero;stroke:none"
           d="m 176,172 4,0 0,8 -4,0 0,-8 z" /><path
           id="path38"
           style="fill:#f2f2f2;fill-opacity:1;fill-rule:nonzero;stroke:none"
           d="m 176,184 4,0 0,8 -4,0 0,-8 z" /></g></g></g></svg>