<?xml version="1.0" encoding="UTF-8" standalone="no"?>
<svg
   xmlns:dc="http://purl.org/dc/elements/1.1/"
   xmlns:cc="http://creativecommons.org/ns#"
   xmlns:rdf="http://www.w3.org/1999/02/22-rdf-syntax-ns#"
   xmlns:svg="http://www.w3.org/2000/svg"
   xmlns="http://www.w3.org/2000/svg"
   viewBox="0 0 320 288"
   height="288"
   width="320"
   xml:space="preserve"
   id="svg2"
   version="1.1"><metadata
     id="metadata8"><rdf:RDF><cc:Work
         rdf:about=""><dc:format>image/svg+xml</dc:format><dc:type
           rdf:resource="http://purl.org/dc/dcmitype/StillImage" /></cc:Work></rdf:RDF></metadata><defs
     id="defs6"><clipPath
       id="clipPath18"
       clipPathUnits="userSpaceOnUse"><path
         id="path16"
         d="M 0,256 H 256 V 0 H 0 Z" /></clipPath></defs><g
     transform="matrix(1.3333333,0,0,-1.3333333,-10.666666,314.66666)"
     id="g10"><g
       id="g12"><g
         clip-path="url(#clipPath18)"
         id="g14"><g
           transform="translate(244,196)"
           id="g20"><path
             id="path22"
             style="fill:#ffffff;fill-opacity:1;fill-rule:nonzero;stroke:none"
             d="m 0,0 v -156 c 0,-8.837 -7.163,-16 -16,-16 h -28 v 16 H 0 l -4,28 v 30 16.343 1.657 16 4 6 30 L 0,0 h -84 -4 -4 -4 -4 -4 -4 -4 -4 -4 -4 -4 -4 -4 -4 -4 -4 -4 -4 -4 -4 -4 -4 -4 -4 -4 -4 -4 -4 -4 -32 l 4,-24 v -30 -14 -12 -18 -30 l -4,-28 h 148 v -16 h -132 c -8.836,0 -16,7.163 -16,16 V 0 8 c 0,4.418 3.582,8 8,8 v 16 c 0,2.209 1.791,4 4,4 h 208 c 2.209,0 4,-1.791 4,-4 V 16 c 4.418,0 8,-3.582 8,-8 z m -48,-100 h 40 v -28 h -36 v 8 4 12 c 0,2.209 -1.791,4 -4,4 m 0,-16 h -32 v 12 h 32 z m 0,-12 h -32 v 8 h 32 z m 0,-24 h -32 v 20 h 32 z m 0,-18 c 0,-1.104 -0.896,-2 -2,-2 h -28 c -1.104,0 -2,0.896 -2,2 v 14 h 32 z m -36,66 v -12 -4 -8 h -140 v 28 h 144 c -2.209,0 -4,-1.791 -4,-4 m -116,84 h -24.611 l -2.667,16 H -200 Z m 192.611,0 H -84 v 16 h 79.278 z m -0.08,-112 2.857,-20 H -44 v 20 z M -224,-76 v 4 h 112 v 4 h -112 v 12 H -8 v -4 -4 -8 -4 -4 -5.657 -6.343 -4 h -216 v 16 h 112 v 4 z m 132,72 h 4 v -16 h -4 z m -8,0 h 4 v -16 h -4 z m -8,0 h 4 v -16 h -4 z m -8,0 h 4 v -16 h -4 z m -8,0 h 4 v -16 h -4 z m -8,0 h 4 v -16 h -4 z m -8,0 h 4 v -16 h -4 z m -8,0 h 4 v -16 h -4 z m -8,0 h 4 v -16 h -4 z m -8,0 h 4 v -16 h -4 z m -8,0 h 4 v -16 h -4 z m -8,0 h 4 v -16 h -4 z m -8,0 h 4 v -16 h -4 z m -8,0 h 4 v -16 h -4 z M -8,-52 h -216 v 28 H -8 Z m -76,-100 h -143.388 l 2.857,20 H -84 Z M -4,19.314 V 32 c 0,4.411 -3.589,8 -8,8 h -208 c -4.411,0 -8,-3.589 -8,-8 V 19.314 c -4.656,-1.65 -8,-6.099 -8,-11.314 v -164 c 0,-11.028 8.972,-20 20,-20 h 132 2 2 v 0.343 c 0.626,-0.222 1.299,-0.343 2,-0.343 h 28 c 0.701,0 1.374,0.121 2,0.343 V -176 h 2 2 28 c 11.028,0 20,8.972 20,20 V 8 c 0,5.215 -3.344,9.664 -8,11.314" /></g><path
           id="path24"
           style="fill:#ffffff;fill-opacity:1;fill-rule:nonzero;stroke:none"
           d="m 232,124 h -12 v 8 h 12 z m 0,-8 -8,-8 h -4 v 12 h 12 z m -84,4 h 68 v -12 h -68 z m -8,-12 -8,8 v 4 h 12 v -12 z m -8,24 h 12 v -8 h -12 z m 84,-8 h -68 v 8 h 68 z m -84,12 h -4 v -4 -16 -1.657 l 1.172,-1.171 8,-8 1.171,-1.172 h 1.657 84 1.657 l 1.171,1.172 8,8 1.172,1.171 v 1.657 16 4 h -4 z" /><path
           id="path26"
           style="fill:#ffffff;fill-opacity:1;fill-rule:nonzero;stroke:none"
           d="M 120,216 H 28 v 8 h 92 z m 4,10 c 0,1.104 -0.896,2 -2,2 H 26 c -1.104,0 -2,-0.896 -2,-2 v -14 h 100 z" /><path
           id="path28"
           style="fill:#ffffff;fill-opacity:1;fill-rule:nonzero;stroke:none"
           d="m 228,216 h -92 v 8 h 92 z m 4,10 c 0,1.104 -0.896,2 -2,2 h -96 c -1.104,0 -2,-0.896 -2,-2 v -14 h 100 z" /></g></g></g></svg>