<?xml version="1.0" encoding="UTF-8" standalone="no"?>
<svg
   xmlns:dc="http://purl.org/dc/elements/1.1/"
   xmlns:cc="http://creativecommons.org/ns#"
   xmlns:rdf="http://www.w3.org/1999/02/22-rdf-syntax-ns#"
   xmlns:svg="http://www.w3.org/2000/svg"
   xmlns="http://www.w3.org/2000/svg"
   viewBox="0 0 314.66665 277.33331"
   height="277.33331"
   width="314.66666"
   xml:space="preserve"
   id="svg2"
   version="1.1"><metadata
     id="metadata8"><rdf:RDF><cc:Work
         rdf:about=""><dc:format>image/svg+xml</dc:format><dc:type
           rdf:resource="http://purl.org/dc/dcmitype/StillImage" /></cc:Work></rdf:RDF></metadata><defs
     id="defs6"><clipPath
       id="clipPath18"
       clipPathUnits="userSpaceOnUse"><path
         id="path16"
         d="M 0,256 H 256 V 0 H 0 Z" /></clipPath></defs><g
     transform="matrix(1.3333333,0,0,-1.3333333,-13.333333,309.33333)"
     id="g10"><g
       id="g12"><g
         clip-path="url(#clipPath18)"
         id="g14"><g
           transform="translate(123,44)"
           id="g20"><path
             id="path22"
             style="fill:#ffffff;fill-opacity:1;fill-rule:nonzero;stroke:none"
             d="m 0,0 h 10 c 3.313,0 6,-2.687 6,-6 0,-3.313 -2.687,-6 -6,-6 H 0 c -3.313,0 -6,2.687 -6,6 0,3.313 2.687,6 6,6 M 10,4 H 0 -43 V 76 H 53 V 4 Z m 109,-8 c 0,-6.627 -5.373,-12 -12,-12 h -6 v 4 H 77 v -4 H 10 c 5.514,0 10,4.486 10,10 0,2.253 -0.758,4.326 -2.02,6 H 53 57 v 4 72 4 h -4 -96 -4 V 76 4 0 h 4 35.019 C -9.242,-1.674 -10,-3.747 -10,-6 c 0,-5.514 4.486,-10 10,-10 h -73.343 l -2.828,2.828 -2.586,2.586 C -80.425,-8.918 -82.642,-8 -85,-8 c -2.358,0 -4.575,-0.918 -6.243,-2.586 L -93.829,-13.172 -96.657,-16 H -97 c -6.627,0 -12,5.373 -12,12 v 116 32 c 0,22.091 17.909,40 40,40 H 5 79 c 22.092,0 40,-17.909 40,-40 z m -210,-12 2.586,2.586 c 0.905,0.905 2.133,1.414 3.414,1.414 1.281,0 2.509,-0.509 3.414,-1.414 L -79,-16 Z M 79,188 H -69 c -24.262,0 -44,-19.738 -44,-44 V -4 c 0,-7.688 5.452,-14.123 12.691,-15.651 L -100.657,-20 h 3.657 6 12 9.657 H 107 c 8.822,0 16,7.178 16,16 v 148 c 0,24.262 -19.738,44 -44,44" /></g><path
           id="path24"
           style="fill:#ffffff;fill-opacity:1;fill-rule:nonzero;stroke:none"
           d="M 188,132 H 68 v 72 H 188 Z M 68,208 h -4 v -4 -72 -4 h 4 120 4 v 4 72 4 h -4 z" /><g
           transform="translate(36,174)"
           id="g26"><path
             id="path28"
             style="fill:#ffffff;fill-opacity:1;fill-rule:nonzero;stroke:none"
             d="m 0,0 c 9.941,0 18,-8.059 18,-18 0,-9.941 -8.059,-18 -18,-18 -9.941,0 -18,8.059 -18,18 0,9.941 8.059,18 18,18 m 0,-40 c 12.131,0 22,9.869 22,22 0,12.131 -9.869,22 -22,22 -12.131,0 -22,-9.869 -22,-22 0,-12.131 9.869,-22 22,-22" /></g><g
           transform="translate(39,130)"
           id="g30"><path
             id="path32"
             style="fill:#ffffff;fill-opacity:1;fill-rule:nonzero;stroke:none"
             d="m 0,0 c 0.552,0 1,-0.448 1,-1 v -9 h 9 c 0.552,0 1,-0.447 1,-1 v -6 c 0,-0.553 -0.448,-1 -1,-1 H 1 v -9 c 0,-0.553 -0.448,-1 -1,-1 h -6 c -0.552,0 -1,0.447 -1,1 v 9 h -9 c -0.552,0 -1,0.447 -1,1 v 6 c 0,0.553 0.448,1 1,1 h 9 v 9 c 0,0.552 0.448,1 1,1 z m -11,-1 v -5 h -5 c -2.757,0 -5,-2.243 -5,-5 v -6 c 0,-2.757 2.243,-5 5,-5 h 5 v -5 c 0,-2.757 2.243,-5 5,-5 h 6 c 2.757,0 5,2.243 5,5 v 5 h 5 c 2.757,0 5,2.243 5,5 v 6 c 0,2.757 -2.243,5 -5,5 H 5 v 5 C 5,1.757 2.757,4 0,4 h -3 -3 c -2.757,0 -5,-2.243 -5,-5" /></g><g
           transform="translate(36,165)"
           id="g34"><path
             id="path36"
             style="fill:#ffffff;fill-opacity:1;fill-rule:nonzero;stroke:none"
             d="m 0,0 c 4.971,0 9,-4.029 9,-9 0,-4.971 -4.029,-9 -9,-9 -4.971,0 -9,4.029 -9,9 0,4.971 4.029,9 9,9 m 0,-21 c 6.627,0 12,5.373 12,12 0,6.627 -5.373,12 -12,12 -6.627,0 -12,-5.373 -12,-12 0,-6.627 5.373,-12 12,-12" /></g><g
           transform="translate(128,224)"
           id="g38"><path
             id="path40"
             style="fill:#ffffff;fill-opacity:1;fill-rule:nonzero;stroke:none"
             d="m 0,0 c 2.209,0 4,-1.791 4,-4 0,-2.209 -1.791,-4 -4,-4 -2.209,0 -4,1.791 -4,4 0,2.209 1.791,4 4,4 m -8,-4 c 0,-4.411 3.589,-8 8,-8 4.411,0 8,3.589 8,8 C 8,0.411 4.411,4 0,4 -4.411,4 -8,0.411 -8,-4" /></g><g
           transform="translate(217,204)"
           id="g42"><path
             id="path44"
             style="fill:#ffffff;fill-opacity:1;fill-rule:nonzero;stroke:none"
             d="M 0,0 H 2 C 3.104,0 4,-0.896 4,-2 4,-3.104 3.104,-4 2,-4 H 0 c -1.104,0 -2,0.896 -2,2 0,1.104 0.896,2 2,2 m 0,-8 h 2 c 3.309,0 6,2.691 6,6 C 8,1.309 5.309,4 2,4 H 0 c -3.309,0 -6,-2.691 -6,-6 0,-3.309 2.691,-6 6,-6" /></g><g
           transform="translate(236,156)"
           id="g46"><path
             id="path48"
             style="fill:#ffffff;fill-opacity:1;fill-rule:nonzero;stroke:none"
             d="m 0,0 c 0,-3.313 -2.687,-6 -6,-6 -3.313,0 -6,2.687 -6,6 0,3.313 2.687,6 6,6 3.313,0 6,-2.687 6,-6 m -18,-18 c -3.313,0 -6,2.687 -6,6 0,3.313 2.687,6 6,6 3.313,0 6,-2.687 6,-6 0,-3.313 -2.687,-6 -6,-6 M -36,0 c 0,3.313 2.687,6 6,6 3.313,0 6,-2.687 6,-6 0,-3.313 -2.687,-6 -6,-6 -3.313,0 -6,2.687 -6,6 m 20.27,2.27 C -15.9,1.539 -16,0.782 -16,0 c 0,-0.782 0.1,-1.539 0.27,-2.27 -0.731,0.171 -1.489,0.27 -2.27,0.27 -0.781,0 -1.539,-0.099 -2.27,-0.27 0.17,0.731 0.27,1.488 0.27,2.27 0,0.782 -0.1,1.539 -0.27,2.27 C -19.539,2.099 -18.781,2 -18,2 c 0.781,0 1.539,0.099 2.27,0.27 M -18,18 c 3.313,0 6,-2.687 6,-6 0,-3.313 -2.687,-6 -6,-6 -3.313,0 -6,2.687 -6,6 0,3.313 2.687,6 6,6 M -8.27,9.73 C -8.1,10.461 -8,11.218 -8,12 c 0,5.514 -4.486,10 -10,10 -5.514,0 -10,-4.486 -10,-10 0,-0.782 0.1,-1.539 0.27,-2.27 C -28.461,9.901 -29.219,10 -30,10 -35.514,10 -40,5.514 -40,0 c 0,-5.514 4.486,-10 10,-10 0.781,0 1.539,0.099 2.27,0.27 -0.17,-0.731 -0.27,-1.488 -0.27,-2.27 0,-5.514 4.486,-10 10,-10 5.514,0 10,4.486 10,10 0,0.782 -0.1,1.539 -0.27,2.27 C -7.539,-9.901 -6.781,-10 -6,-10 -0.486,-10 4,-5.514 4,0 4,5.514 -0.486,10 -6,10 -6.781,10 -7.539,9.901 -8.27,9.73" /></g><g
           transform="translate(208,98)"
           id="g50"><path
             id="path52"
             style="fill:#ffffff;fill-opacity:1;fill-rule:nonzero;stroke:none"
             d="m 0,0 c 2.209,0 4,-1.791 4,-4 0,-2.209 -1.791,-4 -4,-4 -2.209,0 -4,1.791 -4,4 0,2.209 1.791,4 4,4 m -8,-4 c 0,-4.411 3.589,-8 8,-8 4.411,0 8,3.589 8,8 C 8,0.411 4.411,4 0,4 -4.411,4 -8,0.411 -8,-4" /></g><g
           transform="translate(206,44)"
           id="g54"><path
             id="path56"
             style="fill:#ffffff;fill-opacity:1;fill-rule:nonzero;stroke:none"
             d="m 0,0 c -3.313,0 -6,2.687 -6,6 0,3.313 2.687,6 6,6 C 3.313,12 6,9.313 6,6 6,2.687 3.313,0 0,0 M 0,16 C -5.514,16 -10,11.514 -10,6 -10,0.486 -5.514,-4 0,-4 5.514,-4 10,0.486 10,6 10,11.514 5.514,16 0,16" /></g><g
           transform="translate(208,106)"
           id="g58"><path
             id="path60"
             style="fill:#ffffff;fill-opacity:1;fill-rule:nonzero;stroke:none"
             d="M 0,0 C -2.209,0 -4,1.791 -4,4 -4,6.209 -2.209,8 0,8 2.209,8 4,6.209 4,4 4,1.791 2.209,0 0,0 m 8,4 c 0,4.411 -3.589,8 -8,8 -4.411,0 -8,-3.589 -8,-8 0,-4.411 3.589,-8 8,-8 4.411,0 8,3.589 8,8" /></g></g></g></g></svg>