<?xml version="1.0" encoding="UTF-8" standalone="no"?>
<svg
   xmlns:dc="http://purl.org/dc/elements/1.1/"
   xmlns:cc="http://creativecommons.org/ns#"
   xmlns:rdf="http://www.w3.org/1999/02/22-rdf-syntax-ns#"
   xmlns:svg="http://www.w3.org/2000/svg"
   xmlns="http://www.w3.org/2000/svg"
   viewBox="0 0 224 106.66666"
   height="106.66666"
   width="224"
   xml:space="preserve"
   id="svg2"
   version="1.1"><metadata
     id="metadata8"><rdf:RDF><cc:Work
         rdf:about=""><dc:format>image/svg+xml</dc:format><dc:type
           rdf:resource="http://purl.org/dc/dcmitype/StillImage" /></cc:Work></rdf:RDF></metadata><defs
     id="defs6"><clipPath
       id="clipPath18"
       clipPathUnits="userSpaceOnUse"><path
         id="path16"
         d="M 0,256 H 256 V 0 H 0 Z" /></clipPath></defs><g
     transform="matrix(1.3333333,0,0,-1.3333333,-58.666665,223.99999)"
     id="g10"><g
       id="g12"><g
         clip-path="url(#clipPath18)"
         id="g14"><g
           transform="translate(172,92)"
           id="g20"><path
             id="path22"
             style="fill:#f2f2f2;fill-opacity:1;fill-rule:nonzero;stroke:none"
             d="m 0,0 h -88 c -19.85,0 -36,16.148 -36,36 0,19.852 16.15,36 36,36 H 0 C 19.85,72 36,55.852 36,36 36,16.148 19.85,0 0,0 m 0,76 h -88 c -22.056,0 -40,-17.944 -40,-40 0,-22.056 17.944,-40 40,-40 H 0 C 22.056,-4 40,13.944 40,36 40,58.056 22.056,76 0,76" /></g><g
           transform="translate(172,100)"
           id="g24"><path
             id="path26"
             style="fill:#f2f2f2;fill-opacity:1;fill-rule:nonzero;stroke:none"
             d="m 0,0 h -88 c -15.439,0 -28,12.563 -28,28 0,15.438 12.561,28 28,28 H 0 C 15.439,56 28,43.438 28,28 28,12.563 15.439,0 0,0 m 0,60 h -88 c -17.645,0 -32,-14.355 -32,-32 0,-17.645 14.355,-32 32,-32 H 0 C 17.645,-4 32,10.355 32,28 32,45.645 17.645,60 0,60" /></g><g
           transform="translate(166,107.8633)"
           id="g28"><path
             id="path30"
             style="fill:#f2f2f2;fill-opacity:1;fill-rule:nonzero;stroke:none"
             d="m 0,0 c -11.046,0 -20,8.955 -20,20 0,10.535 8.149,19.147 18.485,19.924 C -4.091,39.212 -6,36.737 -6,33.793 v -2.405 c -0.714,0.275 -1.478,0.419 -2.257,0.419 -1.782,0 -3.488,-0.761 -4.681,-2.086 -2.883,-3.208 -4.472,-7.347 -4.472,-11.655 0,-9.6 7.81,-17.41 17.41,-17.41 9.6,0 17.41,7.81 17.41,17.41 0,4.308 -1.589,8.447 -4.472,11.655 -1.193,1.326 -2.899,2.086 -4.681,2.086 H 8.256 C 7.478,31.807 6.714,31.663 6,31.389 v 2.404 C 6,36.737 4.091,39.212 1.515,39.924 11.851,39.147 20,30.535 20,20 20,8.955 11.046,0 0,0 M 2,26.091 C 1.965,25.706 1.965,25.318 2,24.932 V 18.48 c 0,-1.293 -0.896,-2.343 -2,-2.343 -1.104,0 -2,1.05 -2,2.343 v 6.453 c 0.035,0.385 0.035,0.773 0,1.157 v 7.703 c 0,1.294 0.896,2.344 2,2.344 1.104,0 2,-1.05 2,-2.344 z m -8,-0.957 c -0.069,-0.416 -0.249,-0.818 -0.552,-1.155 -1.465,-1.628 -2.271,-3.729 -2.271,-5.913 0,-4.865 3.958,-8.823 8.823,-8.823 4.865,0 8.823,3.958 8.823,8.823 0,2.184 -0.806,4.285 -2.271,5.913 C 6.249,24.316 6.069,24.718 6,25.134 v 0.723 c 0.077,0.507 0.312,0.992 0.724,1.362 0.438,0.394 0.986,0.588 1.533,0.588 0.628,0 1.253,-0.257 1.706,-0.761 2.223,-2.472 3.447,-5.661 3.447,-8.98 0,-7.394 -6.015,-13.41 -13.41,-13.41 -7.395,0 -13.41,6.016 -13.41,13.41 0,3.319 1.224,6.508 3.447,8.981 0.453,0.503 1.078,0.76 1.706,0.76 0.547,0 1.095,-0.194 1.533,-0.588 0.412,-0.37 0.647,-0.856 0.724,-1.363 z M 0,44 C -13.233,44 -24,33.234 -24,20 -24,6.767 -13.233,-4 0,-4 13.233,-4 24,6.767 24,20 24,33.234 13.233,44 0,44" /></g><g
           transform="translate(126,113.8633)"
           id="g32"><path
             id="path34"
             style="fill:#f2f2f2;fill-opacity:1;fill-rule:nonzero;stroke:none"
             d="M 0,0 C 0,-0.871 -0.562,-1.641 -1.389,-1.906 -1.59,-1.969 -1.797,-2 -2,-2 c -0.633,0 -1.244,0.301 -1.627,0.836 L -20,21.758 V 0 c 0,-1.105 -0.895,-2 -2,-2 -1.105,0 -2,0.895 -2,2 v 28 c 0,0.872 0.563,1.641 1.389,1.907 0.199,0.061 0.403,0.091 0.604,0.091 0.636,0 1.251,-0.296 1.634,-0.833 L -4,6.242 V 28 c 0,1.106 0.895,2 2,2 1.105,0 2,-0.894 2,-2 z m -2,34 c -3.309,0 -6,-2.691 -6,-6 v -9.275 l -9.118,12.765 c -1.118,1.569 -2.947,2.508 -4.889,2.508 -0.602,0 -1.2,-0.09 -1.777,-0.267 l -0.026,-0.008 -0.026,-0.008 C -26.327,32.914 -28,30.618 -28,28 V 0 c 0,-3.308 2.691,-6 6,-6 3.309,0 6,2.692 6,6 V 9.276 L -6.882,-3.488 C -5.757,-5.062 -3.932,-6 -2,-6 c 0.608,0 1.213,0.093 1.798,0.274 C 2.327,-4.913 4,-2.616 4,0 v 28 c 0,3.309 -2.691,6 -6,6" /></g><g
           transform="translate(94,123.8633)"
           id="g36"><path
             id="path38"
             style="fill:#f2f2f2;fill-opacity:1;fill-rule:nonzero;stroke:none"
             d="m 0,0 c 0,-6.616 -5.383,-11.999 -12,-11.999 -6.617,0 -12,5.383 -12,11.999 v 8 c 0,6.618 5.383,12 12,12 C -5.383,20 0,14.618 0,8 Z M -12,24 C -20.822,24 -28,16.823 -28,8 V 0 c 0,-8.822 7.178,-15.999 16,-15.999 8.822,0 16,7.177 16,15.999 v 8 c 0,8.823 -7.178,16 -16,16" /></g><g
           transform="translate(86,123.8633)"
           id="g40"><path
             id="path42"
             style="fill:#f2f2f2;fill-opacity:1;fill-rule:nonzero;stroke:none"
             d="m 0,0 c 0,-2.205 -1.794,-3.999 -4,-3.999 -2.206,0 -4,1.794 -4,3.999 v 8 c 0,2.206 1.794,4 4,4 2.206,0 4,-1.794 4,-4 z m -4,16 c -4.412,0 -8,-3.589 -8,-8 V 0 c 0,-4.409 3.588,-7.999 8,-7.999 4.412,0 8,3.59 8,7.999 v 8 c 0,4.411 -3.588,8 -8,8" /></g></g></g></g></svg>