<?xml version="1.0" encoding="utf-8"?>
<!-- Generator: Adobe Illustrator 16.0.0, SVG Export Plug-In . SVG Version: 6.00 Build 0)  -->
<!DOCTYPE svg PUBLIC "-//W3C//DTD SVG 1.1//EN" "http://www.w3.org/Graphics/SVG/1.1/DTD/svg11.dtd">
<svg version="1.1"
	 id="svg2" xmlns:dc="http://purl.org/dc/elements/1.1/" xmlns:cc="http://creativecommons.org/ns#" xmlns:rdf="http://www.w3.org/1999/02/22-rdf-syntax-ns#" xmlns:svg="http://www.w3.org/2000/svg"
	 xmlns="http://www.w3.org/2000/svg" xmlns:xlink="http://www.w3.org/1999/xlink" x="0px" y="0px" width="256px" height="256px"
	 viewBox="0 0 256 256" enable-background="new 0 0 256 256" xml:space="preserve">
<g>
	<path fill="#FFFFFF" d="M128,66.17c0.49,0,0.92,0.39,0.92,0.92l4.74,64.27l-4.74,57.53c0,0.49-0.39,0.92-0.92,0.92
		c-0.52,0-0.92-0.39-0.92-0.92l-4.74-57.53l4.74-64.27C127.08,66.6,127.47,66.17,128,66.17 M176.23,101.26
		c0,0,18.96,3.68,18.96,8.72c0,0,0,5.59-2.17,8.75c-5.69,6.45-26.92,13.99-40.38,13.99l-4.74,49.3c0,0.49-0.39,0.92-0.93,0.92
		c-0.53,0-0.92-0.39-0.92-0.92l-3.03-49.3v-9.78c0,0,0-1.25,1.09-1.25c37.92-0.13,47.49-8.62,47.72-10.24
		c0.13-0.82,1.48-3.72-15.6-8.36c-0.52,0-0.92-0.39-0.92-0.93C175.3,101.65,175.69,101.26,176.23,101.26 M79.77,101.33
		c0.52,0,0.92,0.39,0.92,0.92c0,0.52-0.4,0.93-0.92,0.93c-17.08,4.64-15.69,7.54-15.6,8.33c0.2,1.62,9.81,10.07,47.72,10.27
		c1.06,0,1.06,1.25,1.06,1.25v9.78l-3.03,49.3c0,0.49-0.39,0.92-0.92,0.92s-0.93-0.4-0.93-0.92l-4.74-49.3
		C89.9,132.74,68.68,125.2,63,118.78c-2.17-3.13-2.17-8.72-2.17-8.72C60.82,105.01,79.77,101.33,79.77,101.33 M128,62.38
		c-2.54,0-4.61,2.01-4.71,4.52l-4.76,64.49l4.76,57.72c0.11,2.54,2.13,4.51,4.71,4.51c2.53,0,4.6-2,4.71-4.5l4.76-57.72l-4.76-64.49
		C132.6,64.39,130.53,62.38,128,62.38L128,62.38z M196,121.07c2.76-4.01,2.97-10.4,2.97-11.09c0-5.23-6.47-8.02-12.09-9.86
		c-4.91-1.61-10.09-2.62-10.29-2.66c-2.65,0-5.08,2.07-5.08,4.71c0,2.37,1.75,4.33,4.02,4.67c6.54,1.79,9.8,3.19,11.4,4.07
		c-3.67,2.23-14.69,6.89-42.84,6.99c-3.04,0-4.87,2.57-4.87,5.05v9.89l3.03,49.34c0.08,2.57,2.12,4.56,4.71,4.56
		c2.52,0,4.58-1.98,4.71-4.46l4.41-45.89C170.42,135.31,189.96,127.92,196,121.07z M60,121.11c6.03,6.8,25.56,14.19,39.87,15.32
		l4.41,45.9c0.12,2.53,2.15,4.47,4.71,4.47c2.54,0,4.63-2.03,4.71-4.55l3.03-49.35v-9.89c0-2.83-2.13-5.05-4.85-5.05
		c-14.13-0.08-26.11-1.37-34.6-3.74c-4.27-1.19-6.79-2.4-8.2-3.26c1.61-0.88,4.87-2.28,11.38-4.06c2.27-0.34,4.02-2.3,4.02-4.67
		c0-2.6-2.48-4.71-5.08-4.71c-0.21,0.04-5.39,1.06-10.29,2.66c-5.63,1.84-12.09,4.63-12.09,9.86
		C57.02,110.74,57.23,117.13,60,121.11z"/>
</g>
<g id="g24" transform="translate(212,212)">
	<path id="path26" fill="#FFFFFF" d="M1-169h-170V1H1V-169z M-3.04-3.04h-161.9v-161.9h161.9V-3.04L-3.04-3.04z"/>
</g>
</svg>
