<?xml version="1.0" encoding="UTF-8" standalone="no"?>
<svg
   xmlns:dc="http://purl.org/dc/elements/1.1/"
   xmlns:cc="http://creativecommons.org/ns#"
   xmlns:rdf="http://www.w3.org/1999/02/22-rdf-syntax-ns#"
   xmlns:svg="http://www.w3.org/2000/svg"
   xmlns="http://www.w3.org/2000/svg"
   viewBox="0 0 106.66666 106.66666"
   height="106.66666"
   width="106.66666"
   xml:space="preserve"
   id="svg2"
   version="1.1"><metadata
     id="metadata8"><rdf:RDF><cc:Work
         rdf:about=""><dc:format>image/svg+xml</dc:format><dc:type
           rdf:resource="http://purl.org/dc/dcmitype/StillImage" /></cc:Work></rdf:RDF></metadata><defs
     id="defs6"><clipPath
       id="clipPath18"
       clipPathUnits="userSpaceOnUse"><path
         id="path16"
         d="M 0,256 H 256 V 0 H 0 Z" /></clipPath></defs><g
     transform="matrix(1.3333333,0,0,-1.3333333,-117.33333,223.99999)"
     id="g10"><g
       id="g12"><g
         clip-path="url(#clipPath18)"
         id="g14"><g
           transform="translate(160,140)"
           id="g20"><path
             id="path22"
             style="fill:#f2f2f2;fill-opacity:1;fill-rule:nonzero;stroke:none"
             d="m 0,0 -4,-4 -0.244,-0.244 c -1.434,10.878 -9.121,18.566 -20,20 L -24,16 l 4,4 4,4 C -4,24 4,16 4,4 Z m -12,-12 c 0,12 -8,20 -20,20 l 4,4 c 12,0 20,-8 20,-20 z m -8,-8 c 0,12 -8,20 -20,20 l 4,4 c 12,0 20,-8 20,-20 z m -24.244,-24.244 c -0.44,3.332 -1.465,6.365 -2.99,9.011 l 22.02,22.019 C -24.426,-15.216 -24,-17.49 -24,-20 v -4 z M -56,-48 c 0,6.168 -5.832,12 -12,12 v 8 c 3.698,0 7.012,-0.765 9.833,-2.167 1.246,-0.619 2.391,-1.365 3.433,-2.225 0.855,-0.705 1.637,-1.487 2.343,-2.342 0.859,-1.041 1.605,-2.188 2.224,-3.433 C -48.765,-40.988 -48,-44.302 -48,-48 Z m -9.657,0 H -68 v 2.343 5.657 c 4,0 8,-4 8,-8 z m 13.734,18.42 22.319,22.318 c 0.875,-0.684 1.659,-1.467 2.342,-2.342 L -49.58,-31.923 c -0.72,0.841 -1.502,1.623 -2.343,2.343 M -44,-4 h 4 c 2.509,0 4.784,-0.426 6.786,-1.214 l -22.02,-22.019 c -2.645,1.524 -5.678,2.549 -9.01,2.989 z m 28,32 h -1.657 L -18.828,26.829 -20,25.657 -26.828,18.829 -29.657,16 l -1.171,-1.171 -4.001,-4 L -37.657,8 -38.829,6.829 -41.657,4 -42.829,2.829 -49.657,-4 -69.657,-24 -72,-26.343 V -28 -36 -40 -48 -49.657 -52 h 2.343 1.657 8 4 8 1.657 l 2.343,2.343 20,20 6.828,6.829 1.172,1.171 2.828,2.829 1.172,1.171 2.828,2.829 4,3.999 L -4,-9.657 -1.172,-6.829 5.657,0 6.828,1.171 8,2.343 V 4 c 0,14.131 -9.869,24 -24,24" /></g></g></g></g></svg>