<?xml version="1.0" encoding="UTF-8" standalone="no"?>
<svg
   xmlns:dc="http://purl.org/dc/elements/1.1/"
   xmlns:cc="http://creativecommons.org/ns#"
   xmlns:rdf="http://www.w3.org/1999/02/22-rdf-syntax-ns#"
   xmlns:svg="http://www.w3.org/2000/svg"
   xmlns="http://www.w3.org/2000/svg"
   viewBox="0 0 320 320"
   height="320"
   width="320"
   xml:space="preserve"
   version="1.1"
   id="svg2"><metadata
     id="metadata8"><rdf:RDF><cc:Work
         rdf:about=""><dc:format>image/svg+xml</dc:format><dc:type
           rdf:resource="http://purl.org/dc/dcmitype/StillImage" /></cc:Work></rdf:RDF></metadata><defs
     id="defs6"><clipPath
       id="clipPath16"
       clipPathUnits="userSpaceOnUse"><path
         id="path18"
         d="M 0,256 256,256 256,0 0,0 0,256 Z" /></clipPath></defs><g
     transform="matrix(1.25,0,0,-1.25,0,320)"
     id="g10"><g
       id="g12"><g
         clip-path="url(#clipPath16)"
         id="g14"><g
           transform="translate(160,140)"
           id="g20"><path
             id="path22"
             style="fill:#f2f2f2;fill-opacity:1;fill-rule:nonzero;stroke:none"
             d="m 0,0 -4,-4 -0.244,-0.244 c -1.434,10.878 -9.121,18.566 -20,20 L -24,16 l 4,4 4,4 C -4,24 4,16 4,4 L 0,0 Z m -12,-12 c 0,12 -8,20 -20,20 l 4,4 c 12,0 20,-8 20,-20 l -4,-4 z m -8,-8 c 0,12 -8,20 -20,20 l 4,4 c 12,0 20,-8 20,-20 l -4,-4 z m -24.244,-24.244 c -0.44,3.332 -1.465,6.365 -2.99,9.011 l 22.02,22.019 C -24.426,-15.216 -24,-17.49 -24,-20 l 0,-4 -20.244,-20.244 z M -56,-48 c 0,6.168 -5.832,12 -12,12 l 0,8 c 3.698,0 7.012,-0.765 9.833,-2.167 1.246,-0.619 2.391,-1.365 3.433,-2.225 0.855,-0.705 1.637,-1.487 2.343,-2.342 0.859,-1.041 1.605,-2.188 2.224,-3.433 C -48.765,-40.988 -48,-44.302 -48,-48 l -8,0 z m -9.657,0 -2.343,0 0,2.343 0,5.657 c 4,0 8,-4 8,-8 l -5.657,0 z m 13.734,18.42 22.319,22.318 c 0.875,-0.684 1.659,-1.467 2.342,-2.342 L -49.58,-31.923 c -0.72,0.841 -1.502,1.623 -2.343,2.343 M -44,-4 l 4,0 c 2.509,0 4.784,-0.426 6.786,-1.214 l -22.02,-22.019 c -2.645,1.524 -5.678,2.549 -9.01,2.989 L -44,-4 Z m 28,32 -1.657,0 -1.171,-1.171 L -20,25.657 -26.828,18.829 -29.657,16 l -1.171,-1.171 -4.001,-4 L -37.657,8 -38.829,6.829 -41.657,4 -42.829,2.829 -49.657,-4 l -20,-20 -2.343,-2.343 0,-1.657 0,-8 0,-4 0,-8 0,-1.657 0,-2.343 2.343,0 1.657,0 8,0 4,0 8,0 1.657,0 2.343,2.343 20,20 6.828,6.829 1.172,1.171 2.828,2.829 1.172,1.171 2.828,2.829 4,3.999 L -4,-9.657 -1.172,-6.829 5.657,0 6.828,1.171 8,2.343 8,4 c 0,14.131 -9.869,24 -24,24" /></g></g></g></g></svg>