<?xml version="1.0" encoding="UTF-8" standalone="no"?>
<svg
   xmlns:dc="http://purl.org/dc/elements/1.1/"
   xmlns:cc="http://creativecommons.org/ns#"
   xmlns:rdf="http://www.w3.org/1999/02/22-rdf-syntax-ns#"
   xmlns:svg="http://www.w3.org/2000/svg"
   xmlns="http://www.w3.org/2000/svg"
   viewBox="0 0 320 320"
   height="320"
   width="320"
   xml:space="preserve"
   version="1.1"
   id="svg2"><metadata
     id="metadata8"><rdf:RDF><cc:Work
         rdf:about=""><dc:format>image/svg+xml</dc:format><dc:type
           rdf:resource="http://purl.org/dc/dcmitype/StillImage" /></cc:Work></rdf:RDF></metadata><defs
     id="defs6"><clipPath
       id="clipPath16"
       clipPathUnits="userSpaceOnUse"><path
         id="path18"
         d="M 0,256 256,256 256,0 0,0 0,256 Z" /></clipPath></defs><g
     transform="matrix(1.25,0,0,-1.25,0,320)"
     id="g10"><g
       id="g12"><g
         clip-path="url(#clipPath16)"
         id="g14"><g
           transform="translate(94.7813,134.1475)"
           id="g20"><path
             id="path22"
             style="fill:#f2f2f2;fill-opacity:1;fill-rule:nonzero;stroke:none"
             d="m 0,0 c -0.792,0 -1.436,0.644 -1.436,1.436 l 0,6.308 c 0,0.792 0.644,1.436 1.436,1.436 l 6.308,0 C 7.1,9.18 7.744,8.536 7.744,7.744 l 0,-6.308 C 7.744,0.644 7.1,0 6.308,0 L 0,0 Z m 60.129,0 c -0.791,0 -1.436,0.644 -1.436,1.436 l 0,6.308 c 0,0.792 0.645,1.436 1.436,1.436 l 6.309,0 c 0.791,0 1.435,-0.644 1.435,-1.436 l 0,-6.308 C 67.873,0.644 67.229,0 66.438,0 l -6.309,0 z m 19.744,47.244 -8,0 -9.261,0 c -3.521,0 -6.885,-1.681 -8.998,-4.499 l -9.51,-12.681 -21.77,0 -9.511,12.681 c -2.113,2.818 -5.476,4.499 -8.998,4.499 l -9.261,0 -8,0 4.8,-6.4 8.085,-10.78 -17.769,0 -2.807,0 -0.955,-2.638 -6.427,-17.762 -7.876,0 4.706,15.219 1.602,5.181 -5.423,0 -12.885,0 -2.976,0 -0.855,-2.85 -10.086,-33.619 c -1.032,-3.44 -0.394,-7.065 1.749,-9.947 2.144,-2.88 5.433,-4.533 9.024,-4.533 l 15.2,0 -3.052,-12.21 -1.243,-4.969 5.124,0 17.447,0 -11.981,-14.976 -5.199,-6.499 8.322,0 21.475,0 1.923,0 1.201,1.501 15.979,19.974 39.122,0 16.248,-19.998 1.2,-1.477 1.905,0 21.206,0 8.322,0 -5.198,6.499 -11.982,14.976 17.448,0 5.123,0 -1.243,4.969 -3.052,12.21 15.201,0 c 3.591,0 6.88,1.653 9.023,4.533 2.144,2.882 2.781,6.507 1.749,9.947 l -10.085,33.619 -0.855,2.85 -2.977,0 -12.884,0 -5.424,0 1.602,-5.181 4.706,-15.219 -7.876,0 -6.426,17.762 -0.956,2.638 -2.806,0 -17.77,0 8.085,10.78 4.8,6.4 z M 0,-4 6.308,-4 c 3.003,0 5.436,2.434 5.436,5.436 l 0,6.308 c 0,3.002 -2.433,5.436 -5.436,5.436 L 0,13.18 c -3.002,0 -5.436,-2.434 -5.436,-5.436 l 0,-6.308 C -5.436,-1.566 -3.002,-4 0,-4 m 60.129,0 6.309,0 c 3.001,0 5.435,2.434 5.435,5.436 l 0,6.308 c 0,3.002 -2.434,5.436 -5.435,5.436 l -6.309,0 c -3.002,0 -5.436,-2.434 -5.436,-5.436 l 0,-6.308 C 54.693,-1.566 57.127,-4 60.129,-4 m 11.744,47.244 -12.885,-17.18 25.77,0 7.382,-20.4 16.106,0 -6.308,20.4 12.884,0 10.086,-33.619 c 1.396,-4.65 -2.087,-9.33 -6.941,-9.33 l -20.324,0 4.295,-17.179 -25.77,0 17.18,-21.475 -21.206,0 -17.449,21.475 -42.949,0 -17.18,-21.475 -21.475,0 17.181,21.475 -25.77,0 4.295,17.179 -20.324,0 c -4.855,0 -8.337,4.68 -6.942,9.33 l 10.086,33.619 12.885,0 -6.309,-20.4 16.106,0 7.383,20.4 25.769,0 -12.885,17.18 9.261,0 c 2.281,0 4.43,-1.074 5.799,-2.899 l 10.71,-14.281 25.77,0 10.71,14.281 c 1.369,1.825 3.517,2.899 5.798,2.899 l 9.261,0" /></g><path
           id="path24"
           style="fill:#f2f2f2;fill-opacity:1;fill-rule:nonzero;stroke:none"
           d="m 244,12 -232,0 0,232 232,0 0,-232 z m 0,236 -232,0 -4,0 0,-4 0,-232 0,-4 4,0 232,0 4,0 0,4 0,232 0,4 -4,0 z" /></g></g></g></svg>