<?xml version="1.0" encoding="UTF-8" standalone="no"?>
<svg
   xmlns:dc="http://purl.org/dc/elements/1.1/"
   xmlns:cc="http://creativecommons.org/ns#"
   xmlns:rdf="http://www.w3.org/1999/02/22-rdf-syntax-ns#"
   xmlns:svg="http://www.w3.org/2000/svg"
   xmlns="http://www.w3.org/2000/svg"
   viewBox="0 0 315.16369 288.00534"
   height="288.00534"
   width="315.1637"
   xml:space="preserve"
   id="svg2"
   version="1.1"><metadata
     id="metadata8"><rdf:RDF><cc:Work
         rdf:about=""><dc:format>image/svg+xml</dc:format><dc:type
           rdf:resource="http://purl.org/dc/dcmitype/StillImage" /></cc:Work></rdf:RDF></metadata><defs
     id="defs6"><clipPath
       id="clipPath18"
       clipPathUnits="userSpaceOnUse"><path
         id="path16"
         d="M 0,256 H 256 V 0 H 0 Z" /></clipPath></defs><g
     transform="matrix(1.3333333,0,0,-1.3333333,-13.080463,319.99999)"
     id="g10"><g
       id="g12"><g
         clip-path="url(#clipPath18)"
         id="g14"><g
           transform="translate(232,52)"
           id="g20"><path
             id="path22"
             style="fill:#ffffff;fill-opacity:1;fill-rule:nonzero;stroke:none"
             d="m 0,0 c -8,-20 -16,-20 -16,-20 l -32.722,-1.487 c -0.196,9.534 2.319,24.409 6.344,41.763 l 21.627,9.613 c 2.889,1.284 4.751,4.148 4.751,7.31 V 56 c 0,6.627 -5.373,12 -12,12 h -1.623 c 10.359,35.313 22.325,70.789 28.768,89.44 C 18.879,110.779 7.624,19.061 0,0 m -208,0 c -7.624,19.061 -18.879,110.779 0.855,157.44 6.443,-18.651 18.409,-54.127 28.768,-89.44 H -180 c -6.627,0 -12,-5.373 -12,-12 V 37.199 c 0,-3.162 1.862,-6.026 4.751,-7.31 L -161,18.223 v -0.366 c -0.031,0.136 -0.059,0.269 -0.09,0.405 l -4.532,2.014 c 4.025,-17.354 6.54,-32.229 6.344,-41.763 L -192,-20 c 0,0 -8,0 -16,20 m 96,183.958 V 184 h 16 v -0.042 c 3.043,-0.045 6.021,-0.141 8.932,-0.283 14.558,-0.709 27.457,-2.552 38.49,-4.843 2.477,-0.515 4.849,-1.053 7.136,-1.604 1.788,-0.432 3.527,-0.87 5.195,-1.316 0.951,-0.254 1.882,-0.509 2.794,-0.766 2.734,-0.769 5.292,-1.548 7.666,-2.318 4.61,-1.494 8.522,-2.951 11.713,-4.238 l -0.367,-0.925 0.479,-0.199 C -13.323,164.347 -13,161.165 -13,158 c 0,-35.841 -40.822,-65 -91,-65 -50.178,0 -91,29.159 -91,65 0,3.335 0.36,6.692 1.069,9.978 l 0.144,0.668 c 3.718,1.496 8.4,3.215 14.009,4.955 0.832,0.257 1.684,0.515 2.556,0.774 3.488,1.031 7.294,2.057 11.406,3.034 1.027,0.244 2.074,0.486 3.14,0.723 11.724,2.61 25.73,4.764 41.744,5.543 2.911,0.142 5.89,0.238 8.932,0.283 M -48,22.155 V 64 h 12 8 c 4.411,0 8,-3.589 8,-8 V 37.199 c 0,-1.579 -0.933,-3.013 -2.375,-3.655 z m -112,0 -25.625,11.389 C -187.067,34.186 -188,35.62 -188,37.199 V 56 c 0,4.411 3.589,8 8,8 h 8 12 z m 56,-46.155 -51.279,2.331 c 0.203,9.1 -2.008,22.926 -5.622,39.079 l 0.584,-0.195 c 0.214,-0.072 21.814,-7.165 55.034,-7.165 17.9,0 35.799,2.059 53.283,6.073 V 16 l 0.586,0.26 c 1.3,0.302 2.603,0.588 3.898,0.912 l 0.385,0.096 c -3.595,-16.092 -5.793,-29.865 -5.59,-38.937 z M -3.322,162.539 C -9.357,145.176 -22.542,106.458 -33.774,68 H -36 -52 V 20.093 c -51.122,-11.834 -91.886,-3.29 -104,-0.128 V 68 h -16 -2.226 c -11.232,38.458 -24.417,77.176 -30.452,94.539 0,0 0,0 0,0 0.13,0.19 0.279,0.365 0.424,0.544 0.109,0.133 0.216,0.267 0.334,0.393 0.136,0.147 0.28,0.287 0.427,0.424 0.167,0.154 0.341,0.3 0.521,0.44 0.123,0.097 0.244,0.196 0.373,0.285 0.327,0.224 0.665,0.433 1.026,0.607 0.884,0.427 2.014,0.954 3.364,1.55 -0.518,-2.959 -0.791,-5.91 -0.791,-8.782 0,-18.623 10.014,-36.062 28.197,-49.106 C -152.92,96.065 -129.196,89 -104,89 c 25.195,0 48.92,7.065 66.803,19.894 C -19.014,121.938 -9,139.378 -9,158 c 0,2.87 -0.273,5.822 -0.791,8.783 1.35,-0.597 2.48,-1.124 3.363,-1.551 0.362,-0.174 0.699,-0.383 1.027,-0.607 0.13,-0.089 0.251,-0.189 0.374,-0.286 0.179,-0.139 0.353,-0.285 0.519,-0.439 0.148,-0.137 0.292,-0.277 0.429,-0.425 0.116,-0.125 0.224,-0.258 0.332,-0.391 0.145,-0.179 0.295,-0.355 0.425,-0.545 m 4.369,0.383 0.072,0.21 -1.063,1.554 c -0.315,0.47 -0.66,0.917 -1.035,1.336 -0.012,0.013 -0.024,0.024 -0.035,0.037 -0.337,0.373 -0.692,0.727 -1.071,1.054 -0.009,0.008 -0.017,0.016 -0.025,0.024 -0.358,0.307 -0.735,0.589 -1.126,0.852 -0.079,0.054 -0.16,0.105 -0.24,0.157 -0.39,0.249 -0.791,0.484 -1.209,0.687 h -0.002 c -4.599,2.224 -15.608,7.063 -32.008,11.32 -1.151,0.299 -2.336,0.593 -3.538,0.885 -13.931,3.379 -31.363,6.229 -51.767,6.833 v 0.087 L -96,188 h -16 -4 v -0.129 c -20.688,-0.613 -38.33,-3.532 -52.355,-6.973 -1.001,-0.246 -1.985,-0.494 -2.95,-0.745 -16.4,-4.257 -27.409,-9.096 -32.008,-11.32 0,0 -0.001,0 -0.001,0 -0.419,-0.202 -0.819,-0.438 -1.21,-0.687 -0.081,-0.052 -0.161,-0.103 -0.24,-0.157 -0.391,-0.263 -0.768,-0.545 -1.125,-0.851 -0.009,-0.009 -0.018,-0.017 -0.027,-0.026 -0.378,-0.327 -0.733,-0.68 -1.069,-1.052 -0.012,-0.013 -0.024,-0.025 -0.036,-0.039 -0.375,-0.418 -0.719,-0.865 -1.034,-1.334 l -1.064,-1.555 0.071,-0.206 c -6.895,-14.172 -14.641,-41.544 -12.891,-91.863 0.88,-25.296 4.945,-59.349 10.225,-72.548 8.379,-20.949 17.506,-22.456 19.582,-22.513 l 32.766,-1.489 3.905,-0.178 51.279,-2.331 0.182,-0.008 0.182,0.008 51.279,2.331 3.905,0.178 32.766,1.489 c 2.076,0.057 11.203,1.564 19.582,22.513 5.28,13.199 9.346,47.252 10.225,72.548 0.97,27.882 -0.492,66.38 -12.892,91.859" /></g><g
           transform="translate(128,220)"
           id="g24"><path
             id="path26"
             style="fill:#ffffff;fill-opacity:1;fill-rule:nonzero;stroke:none"
             d="m 0,0 c 44.814,0 69.136,-7.685 77.063,-10.755 1.854,-0.718 3.365,-2.1 4.253,-3.878 l 1.478,-2.955 c 1.106,-2.213 1.168,-4.83 0.062,-7.043 C 76.235,-37.891 41.659,-48 0,-48 c -41.659,0 -76.235,10.109 -82.856,23.369 -1.105,2.213 -1.044,4.83 0.062,7.043 l 1.478,2.955 c 0.888,1.778 2.399,3.16 4.252,3.878 C -69.136,-7.685 -44.815,0 0,0 m -84.894,-12.844 -1.478,-2.955 c -1.681,-3.362 -1.704,-7.332 -0.063,-10.619 C -78.914,-41.48 -43.371,-52 0,-52 c 43.371,0 78.914,10.52 86.436,25.582 1.64,3.287 1.617,7.257 -0.064,10.619 l -1.477,2.955 c -1.338,2.676 -3.607,4.742 -6.387,5.819 C 69.948,-3.71 45.162,4 0,4 -45.162,4 -69.948,-3.71 -78.508,-7.025 c -2.78,-1.077 -5.048,-3.143 -6.386,-5.819" /></g><path
           id="path28"
           style="fill:#ffffff;fill-opacity:1;fill-rule:nonzero;stroke:none"
           d="M 68,192 H 56 v 4 h 12 z m -12,12 h 12 v -4 H 56 Z m 128,-4 H 72 v 4 h 112 z m 16,0 h -12 v 4 h 12 z m 0,-8 h -12 v 4 h 12 z m -128,4 h 112 v -4 H 72 Z m -16,-8 h 12 4 112 4 12 c 2.209,0 4,1.791 4,4 v 4 4 4 c 0,2.209 -1.791,4 -4,4 H 188 184 72 68 56 c -2.209,0 -4,-1.791 -4,-4 v -4 -4 -4 c 0,-2.209 1.791,-4 4,-4" /><g
           transform="translate(124,180)"
           id="g30"><path
             id="path32"
             style="fill:#ffffff;fill-opacity:1;fill-rule:nonzero;stroke:none"
             d="M 0,0 H 8 L 4,4 Z" /></g><g
           transform="translate(200,108)"
           id="g34"><path
             id="path36"
             style="fill:#ffffff;fill-opacity:1;fill-rule:nonzero;stroke:none"
             d="m 0,0 c -1.104,0 -2,-0.896 -2,-2 0,-1.104 0.896,-2 2,-2 1.104,0 2,0.896 2,2 0,1.104 -0.896,2 -2,2" /></g><g
           transform="translate(48,94)"
           id="g38"><path
             id="path40"
             style="fill:#ffffff;fill-opacity:1;fill-rule:nonzero;stroke:none"
             d="m 0,0 c 0,-1.104 0.896,-2 2,-2 h 12 c 1.104,0 2,0.896 2,2 0,1.104 -0.896,2 -2,2 H 2 C 0.896,2 0,1.104 0,0" /></g><g
           transform="translate(194,100)"
           id="g42"><path
             id="path44"
             style="fill:#ffffff;fill-opacity:1;fill-rule:nonzero;stroke:none"
             d="m 0,0 c -1.104,0 -2,-0.896 -2,-2 0,-1.104 0.896,-2 2,-2 1.104,0 2,0.896 2,2 0,1.104 -0.896,2 -2,2" /></g><g
           transform="translate(206,100)"
           id="g46"><path
             id="path48"
             style="fill:#ffffff;fill-opacity:1;fill-rule:nonzero;stroke:none"
             d="m 0,0 c -1.104,0 -2,-0.896 -2,-2 0,-1.104 0.896,-2 2,-2 1.104,0 2,0.896 2,2 0,1.104 -0.896,2 -2,2" /></g></g></g></g></svg>