<?xml version="1.0" encoding="UTF-8" standalone="no"?>
<svg
   xmlns:dc="http://purl.org/dc/elements/1.1/"
   xmlns:cc="http://creativecommons.org/ns#"
   xmlns:rdf="http://www.w3.org/1999/02/22-rdf-syntax-ns#"
   xmlns:svg="http://www.w3.org/2000/svg"
   xmlns="http://www.w3.org/2000/svg"
   viewBox="0 0 320 181.33333"
   height="181.33333"
   width="320"
   xml:space="preserve"
   id="svg2"
   version="1.1"><metadata
     id="metadata8"><rdf:RDF><cc:Work
         rdf:about=""><dc:format>image/svg+xml</dc:format><dc:type
           rdf:resource="http://purl.org/dc/dcmitype/StillImage" /></cc:Work></rdf:RDF></metadata><defs
     id="defs6"><clipPath
       id="clipPath18"
       clipPathUnits="userSpaceOnUse"><path
         id="path16"
         d="M 0,256 H 256 V 0 H 0 Z" /></clipPath></defs><g
     transform="matrix(1.3333333,0,0,-1.3333333,-10.666666,261.33333)"
     id="g10"><g
       id="g12"><g
         clip-path="url(#clipPath18)"
         id="g14"><g
           transform="translate(174,75.8516)"
           id="g20"><path
             id="path22"
             style="fill:#ffffff;fill-opacity:1;fill-rule:nonzero;stroke:none"
             d="m 0,0 h -4 c -1.1,0 -2,-0.899 -2,-2 0,-1.1 0.9,-2 2,-2 h 4 c 1.1,0 2,0.9 2,2 0,1.101 -0.9,2 -2,2" /></g><g
           transform="translate(210,112)"
           id="g24"><path
             id="path26"
             style="fill:#ffffff;fill-opacity:1;fill-rule:nonzero;stroke:none"
             d="m 0,0 c -1.104,0 -2,-0.896 -2,-2 0,-1.104 0.896,-2 2,-2 1.104,0 2,0.896 2,2 0,1.104 -0.896,2 -2,2" /></g><g
           transform="translate(214,116)"
           id="g28"><path
             id="path30"
             style="fill:#ffffff;fill-opacity:1;fill-rule:nonzero;stroke:none"
             d="m 0,0 c -1.104,0 -2,-0.896 -2,-2 0,-1.104 0.896,-2 2,-2 1.104,0 2,0.896 2,2 0,1.104 -0.896,2 -2,2" /></g><g
           transform="translate(218,120)"
           id="g32"><path
             id="path34"
             style="fill:#ffffff;fill-opacity:1;fill-rule:nonzero;stroke:none"
             d="m 0,0 c -1.104,0 -2,-0.896 -2,-2 0,-1.104 0.896,-2 2,-2 1.104,0 2,0.896 2,2 0,1.104 -0.896,2 -2,2" /></g><g
           transform="translate(222,124)"
           id="g36"><path
             id="path38"
             style="fill:#ffffff;fill-opacity:1;fill-rule:nonzero;stroke:none"
             d="m 0,0 c -1.104,0 -2,-0.896 -2,-2 0,-1.104 0.896,-2 2,-2 1.104,0 2,0.896 2,2 0,1.104 -0.896,2 -2,2" /></g><g
           transform="translate(44.5981,164.7476)"
           id="g40"><path
             id="path42"
             style="fill:#ffffff;fill-opacity:1;fill-rule:nonzero;stroke:none"
             d="m 0,0 c 8.947,4.677 20.911,7.252 33.688,7.252 12.776,0 24.74,-2.575 33.687,-7.252 8.006,-4.185 12.598,-9.665 12.598,-15.033 0,-5.369 -4.592,-10.848 -12.598,-15.033 -8.947,-4.677 -20.911,-7.253 -33.687,-7.253 -12.777,0 -24.741,2.576 -33.688,7.253 -8.006,4.185 -12.598,9.664 -12.598,15.033 0,5.368 4.592,10.848 12.598,15.033 m 33.688,-41.319 c 27.727,0 50.285,11.792 50.285,26.286 0,14.493 -22.558,26.285 -50.285,26.285 -27.728,0 -50.286,-11.792 -50.286,-26.285 0,-14.494 22.558,-26.286 50.286,-26.286" /></g><g
           transform="translate(52,148)"
           id="g44"><path
             id="path46"
             style="fill:#ffffff;fill-opacity:1;fill-rule:nonzero;stroke:none"
             d="M 0,0 V -3.914 C -3.337,-3.758 -6.649,-2.639 -7.67,0 Z M -4,8 H 0 V 4 H -4 Z M 4,0 H 48 V -3.934 H 4 Z M 4,8 H 48 V 4 H 4 Z M 52,0 h 7.709 C 58.754,-2.789 55.502,-3.876 52,-3.928 Z m 0,8 h 4 V 4 H 52 Z M 0.836,-7.934 H 51.735 C 59.186,-7.934 64,-4.121 64,1.78 V 4 8 h -4 v 4 H 56 -4 -8 V 8 h -4 V 4 1.78 c 0,-5.901 5.039,-9.714 12.836,-9.714" /></g><g
           transform="translate(111.7437,82.2861)"
           id="g48"><path
             id="path50"
             style="fill:#ffffff;fill-opacity:1;fill-rule:nonzero;stroke:none"
             d="m 0,0 h -12.059 c -1.717,0 -3.113,1.538 -3.113,3.429 0,1.889 1.396,3.427 3.113,3.427 H 0 C 1.717,6.856 3.113,5.318 3.113,3.429 3.113,1.538 1.717,0 0,0 m -50.372,-2.331 c 1.602,1.363 2.628,3.437 2.628,5.76 0,2.271 -0.984,4.304 -2.527,5.669 h 33.625 c -1.542,-1.365 -2.526,-3.398 -2.526,-5.669 0,-2.323 1.026,-4.397 2.629,-5.76 z M -54.857,0 h -12.059 c -1.717,0 -3.113,1.538 -3.113,3.429 0,1.889 1.396,3.427 3.113,3.427 h 12.059 c 1.717,0 3.113,-1.538 3.113,-3.427 C -51.744,1.538 -53.14,0 -54.857,0 m 54.721,13.098 h -66.309 c -5.35,0 -9.703,-4.359 -9.703,-9.715 0,-5.357 4.353,-9.714 9.703,-9.714 h 66.309 c 5.35,0 9.702,4.357 9.702,9.714 0,5.356 -4.352,9.715 -9.702,9.715" /></g><path
           id="path52"
           style="fill:#ffffff;fill-opacity:1;fill-rule:nonzero;stroke:none"
           d="M 73.714,82.286 H 76 v 4.571 h -2.286 z" /><path
           id="path54"
           style="fill:#ffffff;fill-opacity:1;fill-rule:nonzero;stroke:none"
           d="m 80.571,82.286 h 2.286 v 4.571 h -2.286 z" /><path
           id="path56"
           style="fill:#ffffff;fill-opacity:1;fill-rule:nonzero;stroke:none"
           d="m 77.143,82.286 h 2.286 v 4.571 h -2.286 z" /><g
           transform="translate(73.7144,134.8574)"
           id="g58"><path
             id="path60"
             style="fill:#ffffff;fill-opacity:1;fill-rule:nonzero;stroke:none"
             d="M 0,0 H 9.143 L 4.571,4.571 Z" /></g><g
           transform="translate(244,120)"
           id="g62"><path
             id="path64"
             style="fill:#ffffff;fill-opacity:1;fill-rule:nonzero;stroke:none"
             d="m 0,0 v -2.177 c 0,-0.418 -0.065,-0.815 -0.159,-1.2 -0.726,-8.017 -3.907,-15.225 -8.691,-20.695 -0.932,-0.283 -1.786,-0.792 -2.494,-1.5 l -4.551,-4.557 c -4.548,-2.864 -9.807,-4.5 -15.41,-4.5 -0.702,0 -45.495,-4.637 -45.495,-4.637 L -96,-44 v 0.984 40.839 4.636 62.684 2.221 c 0,2.56 1.869,4.636 4.174,4.636 H -88 v -4 c 0,-1.676 0.521,-3.232 1.405,-4.519 C -89.765,62.166 -92,59.044 -92,55.407 v -75.851 c 0,-4.82 3.925,-8.742 8.75,-8.742 H -31 c 12.683,0 23,10.302 23,22.963 v 61.63 c 0,2.56 -1.113,4.858 -2.874,6.458 C -9.119,63.334 -8,65.538 -8,68 v 4 h 3.826 C -1.869,72 0,69.924 0,67.364 Z m -3.555,-24.98 c -0.173,0.127 -0.352,0.246 -0.537,0.353 0.429,0.568 0.844,1.151 1.242,1.747 -0.221,-0.708 -0.459,-1.407 -0.705,-2.1 m -1.61,-6.772 -2.83,-2.833 -4.386,-4.392 c -0.292,-0.292 -0.653,-0.474 -1.031,-0.546 -0.127,-0.025 -0.255,-0.038 -0.383,-0.038 -0.513,0 -1.025,0.196 -1.414,0.584 l -0.52,0.521 c -0.778,0.779 -0.778,2.054 0,2.832 l 2.266,2.27 h 10e-4 l 4.948,4.955 c 0.613,0.613 1.529,0.736 2.272,0.383 0.022,-0.009 0.044,-0.023 0.066,-0.034 0.176,-0.092 0.344,-0.202 0.491,-0.349 l 0.52,-0.521 c 0.777,-0.778 0.777,-2.053 0,-2.832 M -41.739,-56 H -50.087 -88 l -7.904,7.904 0.862,0.212 18.931,4.668 c 17.176,1.778 42.841,4.417 44.94,4.587 3.801,0.016 7.459,0.694 10.892,1.924 -0.092,-1.647 0.467,-3.322 1.72,-4.577 l 0.52,-0.521 c 0.937,-0.938 2.134,-1.521 3.429,-1.696 C -21.904,-51.288 -31.377,-56 -41.739,-56 M -88,44 v 11.407 c 0,2.618 2.127,4.741 4.75,4.741 h 1.736 C -81.023,60.054 -80.518,60 -80,60 h 64 c 0.108,0 0.214,0.012 0.322,0.016 C -13.573,59.53 -12,57.656 -12,55.407 V 44 Z M -15.273,0.381 c -1.216,-4.004 -3.953,-8.279 -7.707,-12.038 -5.07,-5.076 -11.305,-8.357 -15.886,-8.357 -1.694,0 -2.997,0.446 -3.874,1.325 -3.753,3.757 0.689,13.443 7.023,19.785 5.07,5.076 11.306,8.356 15.886,8.356 1.693,0 2.997,-0.446 3.874,-1.324 1.479,-1.481 1.728,-4.305 0.684,-7.747 m -4.558,13.071 c -5.674,0 -12.846,-3.652 -18.716,-9.53 -6.733,-6.741 -13.363,-19.09 -7.023,-25.439 1.137,-1.138 3.224,-2.497 6.704,-2.497 5.674,0 12.845,3.652 18.717,9.531 3.726,3.731 6.571,7.973 8.149,12.104 v -3.844 c 0,-10.472 -8.507,-18.963 -19,-18.963 h -52.25 c -2.623,0 -4.75,2.124 -4.75,4.742 V 40 h 76 V 9.483 c -0.325,0.529 -0.686,1.031 -1.127,1.472 -1.137,1.139 -3.224,2.497 -6.704,2.497 M -84,72 h 4.693 v -4.741 h 2.369 V 72 h 2.367 v -4.741 h 2.367 V 72 h 2.367 v -4.741 h 2.367 V 72 h 2.368 v -4.741 h 2.368 V 72 h 2.367 V 67.259 H -58 V 72 h 2.367 v -4.741 h 2.367 V 72 h 2.368 v -4.741 h 2.368 V 72 h 2.367 v -4.741 h 2.367 V 72 h 2.367 v -4.741 h 2.367 V 72 h 2.369 v -4.741 h 2.367 V 72 h 2.367 v -4.741 h 2.367 V 72 h 2.367 v -4.741 h 2.368 V 72 h 2.367 v -4.741 h 2.368 V 72 h 2.367 v -4.741 h 2.367 V 72 H -12 v -4 c 0,-2.041 -1.533,-3.706 -3.508,-3.95 -0.407,0.058 -0.819,0.098 -1.242,0.098 H -31 -40.5 -81.021 C -82.732,64.602 -84,66.146 -84,68 Z m -81.714,-13.143 c 28.806,0 53.143,-13.346 53.143,-29.143 0,-15.797 -24.337,-29.143 -53.143,-29.143 -28.807,0 -53.143,13.346 -53.143,29.143 0,15.797 24.336,29.143 53.143,29.143 M -100,2.459 v -4.636 -40.839 c 0,-0.668 -0.242,-1.277 -0.642,-1.747 -0.055,-0.066 -0.115,-0.13 -0.177,-0.19 l -8.751,-9.347 1.606,22.496 c 0.268,3.747 -0.198,7.453 -1.387,11.016 l -1.356,4.069 c -1.028,3.088 -3.087,5.783 -5.796,7.59 -2.086,1.391 -4.513,2.125 -7.034,2.125 l -6.121,-0.007 c -1.238,-10e-4 -2.489,-0.084 -3.718,-0.248 l -30.059,-4 c -1.496,-0.201 -3.062,-0.201 -4.56,0 l -30.057,4 c -1.23,0.164 -2.481,0.247 -3.719,0.248 l -6.135,0.007 c -2.507,0 -4.934,-0.734 -7.019,-2.125 -2.709,-1.807 -4.768,-4.502 -5.798,-7.59 l -1.356,-4.069 c -1.188,-3.564 -1.654,-7.27 -1.387,-11.016 l 1.641,-22.973 -9.332,9.802 c -0.071,0.068 -0.138,0.137 -0.201,0.212 -0.399,0.47 -0.642,1.079 -0.642,1.747 v 0.106 10e-4 106.734 1.318 c 0,4.451 2.424,6.857 6.828,6.857 h 1.458 v -4 c 0,-4.411 3.589,-8 8,-8 h 26.832 c -19.994,-5.166 -33.975,-16.793 -33.975,-30.286 0,-18.275 25.634,-33.143 57.143,-33.143 31.508,0 57.143,14.868 57.143,33.143 0,13.493 -13.982,25.12 -33.976,30.286 h 26.833 c 4.411,0 8,3.589 8,8 v 4 h 0.886 c 4.404,0 6.828,-2.406 6.828,-6.857 z m -79.172,-17.379 10.693,-1.337 c 0.914,-0.114 1.844,-0.172 2.765,-0.172 0.92,0 1.85,0.058 2.764,0.172 l 10.694,1.337 -0.847,-5.08 h -25.223 z m 68.074,-16.66 -1.745,-24.42 h -105.743 l -1.745,24.42 c -0.238,3.332 0.177,6.629 1.234,9.797 l 1.356,4.07 c 0.809,2.429 2.429,4.548 4.559,5.969 1.568,1.045 3.396,1.598 5.287,1.598 l 6.121,-0.007 c 1.099,-10e-4 2.212,-0.076 3.307,-0.221 l 14.81,-1.971 1.624,-9.745 c 0.184,-1.102 1.137,-1.91 2.255,-1.91 h 28.128 c 1.117,0 2.07,0.808 2.254,1.91 l 1.624,9.745 14.81,1.971 c 1.096,0.145 2.209,0.22 3.308,0.221 l 6.131,0.007 c 1.533,0 2.991,-0.336 4.217,-0.973 2.628,-1.362 4.675,-3.766 5.618,-6.594 l 1.357,-4.07 c 1.056,-3.168 1.471,-6.465 1.233,-9.797 M -219.714,72 h 4.857 v -2.643 c 0,-1.065 0.863,-1.928 1.928,-1.928 h 0.358 V 72 h 2.285 V 67.429 H -208 V 72 h 2.286 v -4.571 h 2.285 V 72 h 2.286 v -4.571 h 2.286 V 72 h 2.286 v -4.571 h 2.285 V 72 H -192 v -4.571 h 2.286 V 72 h 2.285 v -4.571 h 2.286 V 72 h 2.286 v -4.571 h 2.286 V 72 h 2.285 V 67.429 H -176 V 72 h 2.286 v -4.571 h 2.285 V 72 h 2.286 v -4.571 h 2.286 V 72 h 2.286 v -4.571 h 2.285 V 72 H -160 v -4.571 h 2.286 V 72 h 2.285 v -4.571 h 2.286 V 72 h 2.286 v -4.571 h 2.286 V 72 h 2.285 V 67.429 H -144 V 72 h 2.286 v -4.571 h 2.285 V 72 h 2.286 v -4.571 h 2.286 V 72 h 2.286 v -4.571 h 2.285 V 72 H -128 v -4.571 h 2.286 V 72 h 2.285 v -4.571 h 2.286 V 72 h 2.286 v -4.571 h 0.357 c 1.065,0 1.929,0.863 1.929,1.928 V 72 h 4.857 v -4 c 0,-2.209 -1.791,-4 -4,-4 h -100 c -2.209,0 -4,1.791 -4,4 z m 215.54,4 H -8 h -4 -1.755 -4 -0.735 -4 -0.735 -4 -0.734 -4 -0.734 -4 -0.736 -4 -0.734 -4 -0.735 -4 -0.735 -4 -0.734 -4 -0.735 -4 -0.735 -4 -0.734 -4 -0.736 -4 -4.693 -4 -3.826 c -2.706,0 -5.102,-1.402 -6.591,-3.549 -1.89,2.255 -4.795,3.549 -8.411,3.549 h -0.886 -4 -3.143 -4 -0.572 -4 -0.571 -4 -0.571 -4 -0.572 -4 -0.571 -4 -0.572 -4 -0.571 -4 -0.572 -4 -0.571 -4 -0.571 -4 -0.572 -4 -0.571 -4 -0.572 -4 -0.571 -4 -0.572 -4 -0.571 -4 -0.571 -4 -0.572 -4 -0.571 -4 -0.572 -4 -0.571 -4 -4.857 -4 -1.458 C -231.75,76 -236,71.738 -236,65.143 v -1.318 -106.734 -0.109 c 0,-1.585 0.565,-3.125 1.592,-4.334 0.128,-0.15 0.265,-0.297 0.41,-0.44 l 9.769,-10.26 c 1.178,-1.238 2.833,-1.948 4.542,-1.948 h 107.273 0.268 c 1.727,0 3.396,0.724 4.578,1.986 l 8.123,8.676 0.617,-1.49 8,-8 1.171,-1.172 h 1.657 37.913 8.348 c 15.094,0 28.499,9.004 36.834,22.849 l 2.57,2.573 c 1.539,1.541 2.043,3.715 1.554,5.69 C 2.272,-21.385 4,-12.937 4,-4 V -2.177 0 67.364 C 4,72.126 0.333,76 -4.174,76" /></g></g></g></g></svg>