<?xml version="1.0" encoding="utf-8"?>
<!-- Generator: Adobe Illustrator 25.0.1, SVG Export Plug-In . SVG Version: 6.00 Build 0)  -->
<svg version="1.1" id="Layer_1" xmlns="http://www.w3.org/2000/svg" xmlns:xlink="http://www.w3.org/1999/xlink" x="0px" y="0px"
	 viewBox="0 0 256 256" style="enable-background:new 0 0 256 256;" xml:space="preserve">
<style type="text/css">
	.st0{fill:#FFFFFF;}
</style>
<g>
	<path class="st0" d="M223.34,40.5h-26.27c-3.81-2.11-28.44-14.8-69.33-14.8S62.22,38.39,58.41,40.5H32.14c-1.1,0-2,0.9-2,2v156.4
		c0,3.06,1.52,5.72,4.17,7.31c0.04,0.03,0.09,0.05,0.13,0.07c5.96,2.98,41.66,23.41,93.29,23.41c40.44,0,75.81-14.67,93.29-23.41
		c0.05-0.02,0.09-0.05,0.13-0.07c2.65-1.59,4.17-4.26,4.17-7.31V42.5C225.34,41.39,224.44,40.5,223.34,40.5z M127.36,52.9
		c12.94,0,23.05-8.98,24.59-21.58c22.76,3.1,37.45,9.76,42.03,12.08v46.3c-7.94-1.38-34.82-5.61-66.37-5.61
		c-31.62,0-58.55,4.24-66.43,5.62V43.56c4.2-2.16,19.03-9.06,42.27-12.24C104.37,43.56,114.54,52.9,127.36,52.9z M107.44,30.83
		c0.67-0.08,1.33-0.15,2.01-0.22c0.87,9.03,8.59,15.88,18.29,15.88s17.42-6.85,18.29-15.88c0.65,0.07,1.29,0.14,1.93,0.21
		c-1.3,10.55-9.75,18.07-20.6,18.07C116.61,48.9,108.12,41.06,107.44,30.83z M61.18,93.77c6.67-1.19,34.06-5.68,66.43-5.68
		c32.29,0,59.6,4.46,66.37,5.67v98.26c-6.67,1.19-34.06,5.68-66.43,5.68c-32.29,0-59.6-4.46-66.37-5.67
		C61.18,192.03,61.18,93.77,61.18,93.77z M142.05,30.26c-0.7,6.96-6.73,12.24-14.31,12.24s-13.61-5.28-14.31-12.24
		c4.52-0.35,9.29-0.56,14.31-0.56C132.76,29.7,137.53,29.9,142.05,30.26z M34.14,198.9V44.5h23.04v167.38
		c-8.41-3.2-15.5-6.45-20.87-9.13C34.91,201.88,34.14,200.51,34.14,198.9z M61.18,213.35v-17.26c7.94,1.38,34.82,5.61,66.37,5.61
		c31.62,0,58.56-4.24,66.43-5.62v17.39c-17.96,6.43-41.11,12.23-66.24,12.23C102.46,225.7,79.18,219.83,61.18,213.35z M221.34,198.9
		c0,1.62-0.77,2.98-2.17,3.85c-5.44,2.72-12.64,6.02-21.19,9.25V44.5h23.36V198.9z"/>
	<path class="st0" d="M187.66,183.96c0.02-0.12,0.03-82.14,0.03-82.14c0-3.76-3.42-6.29-6.62-6.29H74.09
		c-3.59,0-6.62,2.88-6.62,6.29v82.14c0,3.76,3.42,6.29,6.62,6.29h106.6C184.52,190.25,187.14,186.84,187.66,183.96z M71.47,183.96
		v-82.14c0-1.08,1.08-2.29,2.62-2.29h106.98c1.24,0,2.62,0.94,2.62,2.29v81.94c-0.29,1.25-1.46,2.49-3,2.49H74.09
		C72.85,186.25,71.47,185.31,71.47,183.96z"/>
</g>
<g>
	<polygon class="st0" points="80.4,127.69 78,127.69 78,129.69 76,129.69 76,145.29 78,145.29 78,147.69 80.4,147.69 80.4,149.69 
		86.8,149.69 86.8,152.09 76,152.09 76,156.49 91.2,156.49 91.2,145.29 82.4,145.29 82.4,143.29 80.4,143.29 80.4,132.09 
		82.4,132.09 82.4,129.69 98,129.69 98,125.29 80.4,125.29 	"/>
	<polygon class="st0" points="104.4,127.69 102.4,127.69 102.4,129.69 100,129.69 100,158.49 102.4,158.49 102.4,160.89 
		104.4,160.89 104.4,162.89 122.4,162.89 122.4,158.49 106.8,158.49 106.8,156.49 104.4,156.49 104.4,132.09 106.8,132.09 
		106.8,129.69 122.4,129.69 122.4,125.29 104.4,125.29 	"/>
	<polygon class="st0" points="131.2,156.49 142.4,156.49 142.4,145.29 137.6,145.29 137.6,149.69 140,149.69 140,152.09 
		135.6,152.09 135.6,136.49 148.8,136.49 148.8,132.09 131.2,132.09 	"/>
	<polygon class="st0" points="106.8,143.29 120,143.29 120,138.89 111.2,138.89 111.2,136.49 122.4,136.49 122.4,132.09 
		106.8,132.09 	"/>
	<polygon class="st0" points="122.4,152.09 111.2,152.09 111.2,149.69 120,149.69 120,145.29 106.8,145.29 106.8,156.49 
		122.4,156.49 	"/>
	<polygon class="st0" points="82.4,143.29 91.2,143.29 91.2,145.29 93.6,145.29 93.6,156.49 91.2,156.49 91.2,158.49 76,158.49 
		76,162.89 93.6,162.89 93.6,160.89 95.6,160.89 95.6,158.49 98,158.49 98,143.29 95.6,143.29 95.6,140.89 93.6,140.89 93.6,138.89 
		86.8,138.89 86.8,136.49 98,136.49 98,132.09 86.8,132.09 82.4,132.09 	"/>
	<polygon class="st0" points="177.6,156.49 177.6,147.69 175.2,147.69 175.2,140.89 173.2,140.89 173.2,134.49 170.8,134.49 
		170.8,129.69 168.8,129.69 168.8,125.29 170.8,125.29 170.8,129.69 175.2,129.69 175.2,127.69 173.2,127.69 173.2,125.29 
		175.2,125.29 175.2,127.69 177.6,127.69 177.6,120.89 175.2,120.89 175.2,118.89 168.8,118.89 168.8,120.89 170.8,120.89 
		170.8,123.29 168.8,123.29 168.8,120.89 166.4,120.89 166.4,125.29 160,125.29 160,127.69 157.6,127.69 157.6,129.69 155.6,129.69 
		155.6,134.49 153.2,134.49 153.2,140.89 151.2,140.89 151.2,147.69 148.8,147.69 148.8,138.89 137.6,138.89 137.6,143.29 
		144.4,143.29 144.4,158.49 131.2,158.49 131.2,156.49 128.8,156.49 128.8,132.09 131.2,132.09 131.2,129.69 148.8,129.69 
		148.8,125.29 128.8,125.29 128.8,127.69 126.8,127.69 126.8,129.69 124.4,129.69 124.4,158.49 126.8,158.49 126.8,160.89 
		128.8,160.89 128.8,162.89 151.2,162.89 151.2,156.49 153.2,156.49 153.2,147.69 155.6,147.69 155.6,140.89 157.6,140.89 
		157.6,134.49 160,134.49 160,132.09 162,132.09 162,129.69 164.4,129.69 164.4,132.09 166.4,132.09 166.4,134.49 168.8,134.49 
		168.8,140.89 170.8,140.89 170.8,147.69 173.2,147.69 173.2,154.09 175.2,154.09 175.2,158.49 162,158.49 162,162.89 180,162.89 
		180,156.49 	"/>
	<polygon class="st0" points="170.8,147.69 168.8,147.69 168.8,140.89 166.4,140.89 166.4,134.49 164.4,134.49 164.4,132.09 
		162,132.09 162,134.49 160,134.49 160,140.89 157.6,140.89 157.6,147.69 155.6,147.69 155.6,156.49 153.2,156.49 153.2,162.89 
		157.6,162.89 157.6,156.49 160,156.49 160,149.69 162,149.69 162,145.29 164.4,145.29 164.4,149.69 166.4,149.69 166.4,152.09 
		162,152.09 162,156.49 173.2,156.49 173.2,154.09 170.8,154.09 	"/>
</g>
</svg>
