<?xml version="1.0" encoding="UTF-8" standalone="no"?>
<svg
   xmlns:dc="http://purl.org/dc/elements/1.1/"
   xmlns:cc="http://creativecommons.org/ns#"
   xmlns:rdf="http://www.w3.org/1999/02/22-rdf-syntax-ns#"
   xmlns:svg="http://www.w3.org/2000/svg"
   xmlns="http://www.w3.org/2000/svg"
   viewBox="0 0 320 197.33333"
   height="197.33333"
   width="320"
   xml:space="preserve"
   id="svg2"
   version="1.1"><metadata
     id="metadata8"><rdf:RDF><cc:Work
         rdf:about=""><dc:format>image/svg+xml</dc:format><dc:type
           rdf:resource="http://purl.org/dc/dcmitype/StillImage" /></cc:Work></rdf:RDF></metadata><defs
     id="defs6"><clipPath
       id="clipPath18"
       clipPathUnits="userSpaceOnUse"><path
         id="path16"
         d="M 0,256 H 256 V 0 H 0 Z" /></clipPath></defs><g
     transform="matrix(1.3333333,0,0,-1.3333333,-10.666533,266.66679)"
     id="g10"><g
       id="g12"><g
         clip-path="url(#clipPath18)"
         id="g14"><g
           transform="translate(144,93.5703)"
           id="g20"><path
             id="path22"
             style="fill:#ffffff;fill-opacity:1;fill-rule:nonzero;stroke:none"
             d="m 0,0 v -0.237 l 0.098,0.164 C 0.064,-0.05 0.033,-0.023 0,0" /></g><g
           transform="translate(208.9219,95.0781)"
           id="g24"><path
             id="path26"
             style="fill:#ffffff;fill-opacity:1;fill-rule:nonzero;stroke:none"
             d="m 0,0 c 0.839,-0.839 0.745,-2.216 -0.185,-2.953 -4.606,-3.656 -9.801,-6.596 -15.412,-8.67 l -1.399,3.732 c 5.231,1.926 10.073,4.661 14.362,8.065 0.356,0.282 0.782,0.419 1.208,0.419 0.518,0 1.035,-0.202 1.424,-0.591 z m 3.078,4.922 c 0,2.209 1.791,4 4,4 2.209,0 4,-1.791 4,-4 0,-2.209 -1.791,-4 -4,-4 -2.209,0 -4,1.791 -4,4 m -54.224,-17.597 1.178,3.84 c 4.063,-1.239 8.323,-2.001 12.724,-2.192 0.778,-0.035 1.552,-0.051 2.322,-0.051 4.895,0 9.626,0.688 14.115,1.954 l 1.406,-3.749 c -4.931,-1.428 -10.135,-2.205 -15.521,-2.205 -5.641,0 -11.087,0.845 -16.224,2.403 M 8.878,-7.078 H 7.416 L 6.299,-8.021 c -11.517,-9.709 -26.155,-15.057 -41.221,-15.057 -15.065,0 -29.704,5.348 -41.221,15.057 l -1.117,0.943 h -1.462 -118.2 v 40 h 28 4 68 2.549 c 3.95,-29.444 29.373,-52 59.451,-52 13.643,0 26.515,4.492 37.224,12.991 1.102,0.876 1.848,2.108 2.135,3.466 0.829,-0.291 1.715,-0.457 2.641,-0.457 4.411,0 8,3.589 8,8 0,4.411 -3.589,8 -8,8 -4.411,0 -8,-3.589 -8,-8 0,-0.119 0.013,-0.236 0.018,-0.355 -0.172,0.015 -0.346,0.026 -0.522,0.026 -1.338,0 -2.65,-0.457 -3.695,-1.286 -8.561,-6.794 -18.865,-10.385 -29.801,-10.385 -0.712,0 -1.434,0.016 -2.148,0.047 -11.647,0.508 -22.727,5.312 -31.2,13.528 -8.305,8.054 -13.419,18.714 -14.444,30.08 l -0.05,0.651 c -0.043,0.573 -0.079,1.149 -0.106,1.727 l -0.012,0.324 c -0.018,0.439 -0.026,0.855 -0.031,1.272 -0.001,0.239 10e-4,0.487 0.004,0.735 l 0.001,0.09 c 0.005,0.591 0.022,1.189 0.049,1.776 l 0.011,0.246 c 0.007,0.154 0.013,0.308 0.022,0.461 0.055,0.901 0.121,1.688 0.201,2.405 0.048,0.435 0.049,0.875 0.002,1.309 -0.153,1.485 -0.867,2.853 -2.012,3.855 -0.097,0.091 -0.228,0.206 -0.393,0.327 -0.166,0.122 -0.314,0.213 -0.43,0.279 -0.145,0.092 -0.365,0.225 -0.642,0.351 l -0.27,0.122 -0.085,0.025 c -0.68,0.259 -1.395,0.39 -2.128,0.39 h -0.002 -0.337 -1.419 -2.581 -4 -68 -4 -28 v 48 h 124 V 66.81 c -5.044,-7.38 -8,-16.294 -8,-25.888 0,-25.364 20.636,-46 46,-46 25.364,0 46,20.636 46,46 0,9.594 -2.956,18.508 -8,25.888 v 34.112 h 32 v -108 z m -151.8,-12 c 0,-4.411 -3.589,-8 -8,-8 -4.411,0 -8,3.589 -8,8 0,4.411 3.589,8 8,8 4.411,0 8,-3.589 8,-8 m -24,0 c 0,-4.411 -3.589,-8 -8,-8 -4.411,0 -8,3.589 -8,8 0,4.411 3.589,8 8,8 4.411,0 8,-3.589 8,-8 m 202,-8 v -4 l -63.011,-3.939 c -0.659,-0.041 -1.317,-0.102 -1.972,-0.184 l -27.063,-3.383 c -2.634,-0.329 -5.285,-0.494 -7.938,-0.494 h -32.032 c -2.653,0 -5.304,0.165 -7.937,0.494 l -27.063,3.383 c -0.656,0.082 -1.314,0.143 -1.973,0.184 l -63.011,3.939 v 4 16 h 4 9.081 c -1.909,-2.126 -3.081,-4.925 -3.081,-8 0,-6.617 5.383,-12 12,-12 6.617,0 12,5.383 12,12 0,3.075 -1.172,5.874 -3.081,8 h 6.162 c -1.909,-2.126 -3.081,-4.925 -3.081,-8 0,-6.617 5.383,-12 12,-12 6.617,0 12,5.383 12,12 0,3.075 -1.172,5.874 -3.081,8 h 63.281 c 11.834,-9.978 27.111,-16 43.8,-16 16.69,0 31.966,6.022 43.8,16 h 22.2 4 z m -204,64 h -28 v 12 h 28 z m 12,8 h -8 v 4 h 8 z m 48,0 h -44 v 4 h 44 z m 12,0 h -8 v 4 h 8 z m -8,-4 h 8 v -4 h -8 z m -48,0 h 44 v -4 h -44 z m -4,-4 h -8 v 4 h 8 z m 70.042,2.221 c 0.004,-0.126 0.009,-0.252 0.014,-0.378 0.03,-0.617 0.067,-1.231 0.114,-1.843 h -0.005 c 1.546,-20.245 14.868,-37.344 33.027,-44.458 l -1.198,-3.832 c -19.831,7.617 -34.267,26.198 -35.835,48.29 h -0.005 -2.154 v 12 h 2.581 1.419 0.337 0.002 c 0.293,0 0.569,-0.064 0.818,-0.176 0.003,-0.001 0.006,-0.001 0.008,-0.002 0.085,-0.039 0.161,-0.091 0.238,-0.14 0.039,-0.024 0.082,-0.042 0.119,-0.069 0.034,-0.026 0.062,-0.058 0.094,-0.086 0.387,-0.323 0.653,-0.782 0.706,-1.303 0.016,-0.143 0.016,-0.29 -0.001,-0.438 -0.095,-0.862 -0.164,-1.732 -0.217,-2.606 -0.016,-0.254 -0.025,-0.51 -0.036,-0.764 -0.03,-0.638 -0.048,-1.279 -0.054,-1.923 -0.003,-0.302 -0.007,-0.602 -0.004,-0.905 0.004,-0.457 0.014,-0.913 0.032,-1.367 m 51.958,43.779 c 23.159,0 42,-18.841 42,-42 0,-23.159 -18.841,-42 -42,-42 -23.159,0 -42,18.841 -42,42 0,23.159 18.841,42 42,42 m 34,18 V 71.873 c -8.419,9.24 -20.544,15.049 -34,15.049 -13.456,0 -25.581,-5.809 -34,-15.049 v 29.049 z m 36,4 h -232 -4 v -4 -48 -4 -12 -4 -40 -4 -16 -4 -3.758 l 3.751,-0.234 63.01,-3.939 c 0.575,-0.036 1.156,-0.09 1.727,-0.161 l 27.062,-3.383 c 2.789,-0.348 5.626,-0.525 8.434,-0.525 h 32.032 c 2.808,0 5.646,0.177 8.434,0.525 l 27.063,3.383 c 0.57,0.071 1.151,0.125 1.726,0.161 l 63.011,3.939 3.75,0.234 v 3.758 4 16 4 108 4 z" /></g></g></g></g></svg>