<?xml version="1.0" encoding="UTF-8" standalone="no"?>
<svg
   xmlns:dc="http://purl.org/dc/elements/1.1/"
   xmlns:cc="http://creativecommons.org/ns#"
   xmlns:rdf="http://www.w3.org/1999/02/22-rdf-syntax-ns#"
   xmlns:svg="http://www.w3.org/2000/svg"
   xmlns="http://www.w3.org/2000/svg"
   viewBox="0 0 320 320"
   height="320"
   width="320"
   xml:space="preserve"
   version="1.1"
   id="svg2"><metadata
     id="metadata8"><rdf:RDF><cc:Work
         rdf:about=""><dc:format>image/svg+xml</dc:format><dc:type
           rdf:resource="http://purl.org/dc/dcmitype/StillImage" /></cc:Work></rdf:RDF></metadata><defs
     id="defs6"><clipPath
       id="clipPath16"
       clipPathUnits="userSpaceOnUse"><path
         id="path18"
         d="M 0,256 256,256 256,0 0,0 0,256 Z" /></clipPath></defs><g
     transform="matrix(1.25,0,0,-1.25,0,320)"
     id="g10"><g
       id="g12"><g
         clip-path="url(#clipPath16)"
         id="g14"><g
           transform="translate(235.6475,176)"
           id="g20"><path
             id="path22"
             style="fill:#f2f2f2;fill-opacity:1;fill-rule:nonzero;stroke:none"
             d="m 0,0 c -2.11,0 -4.058,-0.637 -5.647,-1.703 l 0,21.48 c 6.801,-1.137 12,-7.145 12,-14.42 L 6.353,0 0,0 Z m 6.353,-93.357 c 0,-7.275 -5.199,-13.284 -12,-14.42 l 0,25.48 C -4.058,-83.363 -2.11,-84 0,-84 l 6.353,0 0,-9.357 z m -16,-23.643 c 0,-0.553 -0.448,-1 -1,-1 l -194,0 c -0.553,0 -1,0.447 -1,1 l 0,42.477 0,10.523 0,4 0,4 0,2 0,45.109 0,29.891 c 0,0.552 0.447,1 1,1 l 7,0 0,-112 c 0,-6.617 5.383,-12 12,-12 l 154.327,0 c 7.539,0 13.673,6.134 13.673,13.673 l 0,110.327 7,0 c 0.552,0 1,-0.448 1,-1 l 0,-29.917 0,-66.167 0,-41.916 z m -212,23.643 0,9.357 6.353,0 c 2.109,0 4.057,0.677 5.647,1.81 l 0,-25.587 c -6.802,1.136 -12,7.145 -12,14.42 m 12,29.357 0,-10.523 c 0,-3.025 -2.529,-5.477 -5.647,-5.477 l -6.353,0 0,8 10,0 0,4 -10,0 0,4 12,0 z m -12,12 0,4 10,0 0,4 -10,0 0,4 10,0 0,4 -10,0 0,4 10,0 0,4 -10,0 0,4 10,0 0,4 -10,0 0,4 10,0 0,4 -10,0 0,8 6.353,0 c 3.118,0 5.647,-2.189 5.647,-4.891 l 0,-43.109 -12,0 z m 0,57.357 c 0,7.275 5.198,13.283 12,14.42 l 0,-21.475 c -1.59,1.063 -3.538,1.698 -5.647,1.698 l -6.353,0 0,5.357 z m 200,16.643 0,-110.327 c 0,-5.343 -4.331,-9.673 -9.673,-9.673 l -154.327,0 c -4.419,0 -8,3.582 -8,8 l 0,112 172,0 z m 28,-34 -10,0 0,-4 10,0 0,-4 -10,0 0,-4 10,0 0,-4 -10,0 0,-4 10,0 0,-4 -10,0 0,-4 10,0 0,-4 -10,0 0,-4 10,0 0,-4 -10,0 0,-4 10,0 0,-4 -10,0 0,-4 10,0 0,-4 -10,0 0,-4 10,0 0,-8 L 0,-80 c -3.119,0 -5.647,2.201 -5.647,4.916 l 0,66.167 C -5.647,-6.201 -3.119,-4 0,-4 l 6.353,0 0,-8 z M -6.6,23.911 C -7.509,25.171 -8.979,26 -10.647,26 l -7,0 -4,0 -172,0 -4,0 -7,0 c -1.669,0 -3.14,-0.829 -4.048,-2.089 -9.462,-0.72 -16.952,-8.747 -16.952,-18.554 l 0,-5.357 0,-4 0,-50 0,-2 4,0 12,0 0,-4 -12,0 -4,0 0,-4 0,-16 0,-4 0,-9.357 c 0,-9.477 6.991,-17.306 16,-18.472 l 0,-5.171 c 0,-2.757 2.243,-5 5,-5 l 194,0 c 2.756,0 5,2.243 5,5 l 0,5.171 c 9.008,1.166 16,8.995 16,18.472 l 0,9.357 0,4 0,76 0,4 0,5.357 c 0,9.807 -7.491,17.834 -16.953,18.554" /></g></g></g></g></svg>