<?xml version="1.0" encoding="UTF-8" standalone="no"?>
<svg
   xmlns:dc="http://purl.org/dc/elements/1.1/"
   xmlns:cc="http://creativecommons.org/ns#"
   xmlns:rdf="http://www.w3.org/1999/02/22-rdf-syntax-ns#"
   xmlns:svg="http://www.w3.org/2000/svg"
   xmlns="http://www.w3.org/2000/svg"
   viewBox="0 0 320 304"
   height="304"
   width="320"
   xml:space="preserve"
   id="svg2"
   version="1.1"><metadata
     id="metadata8"><rdf:RDF><cc:Work
         rdf:about=""><dc:format>image/svg+xml</dc:format><dc:type
           rdf:resource="http://purl.org/dc/dcmitype/StillImage" /></cc:Work></rdf:RDF></metadata><defs
     id="defs6"><clipPath
       id="clipPath18"
       clipPathUnits="userSpaceOnUse"><path
         id="path16"
         d="M 0,256 H 256 V 0 H 0 Z" /></clipPath></defs><g
     transform="matrix(1.3333333,0,0,-1.3333333,-10.666666,319.99999)"
     id="g10"><g
       id="g12"><g
         clip-path="url(#clipPath18)"
         id="g14"><g
           transform="translate(244,156)"
           id="g20"><path
             id="path22"
             style="fill:#ffffff;fill-opacity:1;fill-rule:nonzero;stroke:none"
             d="m 0,0 c 0,-2.209 -1.791,-4 -4,-4 v 64 c 2.209,0 4,-1.791 4,-4 z M -8,64.663 V -36 -64 l -9.041,-9.455 C -18.671,-75.084 -20.881,-76 -23.186,-76 H -96 h -4 -33.402 -4.14 -28.916 -4.14 -33.402 -4 -9.214 c -2.049,0 -4.014,0.813 -5.462,2.263 L -232,-64 v 28 100.687 0.203 c 0,1.637 0.539,3.217 1.509,4.531 0.229,0.324 0.476,0.636 0.753,0.923 l 8.192,8.485 c 0.724,0.75 1.707,1.171 2.731,1.171 h 0.003 l 98.35,-0.061 C -149.278,70.088 -170,43.361 -170,12 c 0,-13.109 3.638,-25.401 9.956,-36 h -58.644 c -1.023,0 -2.004,-0.389 -2.728,-1.082 L -228,-32 v -28 c 0,-1.959 0.813,-5.394 2.259,-6.778 l 3.196,-3.059 c 1.446,-1.385 3.409,-2.163 5.455,-2.163 h 9.09 4 34.754 4.413 25.664 4.414 34.755 4 73.091 c 2.046,0 4.008,0.778 5.454,2.163 l 3.195,3.059 c 1.447,1.384 2.26,3.263 2.26,5.221 V -32 l -5.455,5.837 c -1.446,1.385 -3.408,2.163 -5.454,2.163 h -9.046 c 6.317,10.599 9.955,22.891 9.955,36 0,31.328 -20.678,58.032 -49.446,67.909 l 50.273,-0.031 c 1.017,-0.001 1.992,-0.417 2.714,-1.157 l 8.075,-8.277 0.041,-0.039 C -8.843,68.961 -8,67.002 -8,64.96 Z M -166.002,-80 H -138 c 0,-7.721 -6.28,-14.002 -14,-14.002 -7.721,0 -14.002,6.281 -14.002,14.002 m 14.003,-19.034 c 10.485,0 19.034,8.545 19.034,19.034 H -104 c 0,-26.51 -21.496,-48 -48,-48 -26.512,0 -48,21.49 -48,48 h 28.965 c 0,-10.489 8.541,-19.034 19.036,-19.034 M -100,-132 h -52 -52 v 52 c 0,-28.673 23.327,-52 52,-52 28.673,0 52,23.327 52,52 z m -4,-8 h -96 c -2.209,0 -4,1.791 -4,4 h 104 c 0,-2.209 -1.791,-4 -4,-4 m 32,88.104 v 8.56 c 22.323,9.078 38,30.434 38,55.336 0,9.623 -2.354,18.709 -6.515,26.77 -0.597,2.057 -1.694,3.902 -3.157,5.392 C -54.674,60.892 -73.99,72 -96,72 c -22.01,0 -41.326,-11.108 -52.329,-27.838 -1.463,-1.49 -2.559,-3.335 -3.156,-5.392 C -155.646,30.709 -158,21.623 -158,12 c 0,-24.902 15.677,-46.258 38,-55.336 v -8.56 c -26.839,9.515 -46,34.531 -46,63.896 0,36.572 29.724,66.389 66.982,67.926 l 6.192,-0.004 C -55.641,78.309 -26,48.521 -26,12 -26,-17.365 -45.161,-42.381 -72,-51.896 M -96,-48 c 7.001,0 13.723,1.14 20,3.209 v -8.377 C -82.339,-55.001 -89.048,-56 -96,-56 c -6.952,0 -13.661,0.999 -20,2.832 v 8.377 c 6.277,-2.069 12.999,-3.209 20,-3.209 m -20,8 v 35.862 h 40 V -40 -40.566 C -82.237,-42.786 -88.975,-44 -96,-44 c -7.025,0 -13.763,1.214 -20,3.434 z m -24.437,87.938 C -129.789,60.191 -113.824,68 -96,68 -78.176,68 -62.211,60.191 -51.563,47.938 -51.968,47.977 -52.377,48 -52.791,48 h -86.417 c -0.415,0 -0.824,-0.023 -1.229,-0.062 m -4.745,-6.307 c 1.572,1.464 3.669,2.369 5.974,2.369 h 86.417 c 2.304,0 4.401,-0.905 5.974,-2.369 0.923,-1.424 1.78,-2.893 2.571,-4.4 0.155,-0.65 0.246,-1.326 0.246,-2.023 V 28.792 C -44,23.956 -47.956,20 -52.791,20 h -86.417 c -4.836,0 -8.792,3.956 -8.792,8.792 v 6.416 c 0,0.697 0.091,1.373 0.246,2.023 0.791,1.507 1.648,2.976 2.572,4.4 m -6.681,-14.608 C -150.997,20.806 -145.66,16 -139.208,16 h 86.417 c 6.451,0 11.788,4.806 12.654,11.023 C -38.755,22.238 -38,17.204 -38,12 c 0,-22.616 -13.965,-42.129 -34,-50.96 v 34.822 c 0,2.209 -1.791,4 -4,4 h -40 c -2.209,0 -4,-1.791 -4,-4 V -38.96 c -20.035,8.831 -34,28.344 -34,50.96 0,5.204 0.755,10.238 2.137,15.023 M -200,-48 h -8 v 12 h 8 z m -8,-4 h 8 v -8 h -8 z m 35,0 c 0.552,0 1,-0.447 1,-1 v -6 c 0,-0.553 -0.448,-1 -1,-1 h -18 c -0.552,0 -1,0.447 -1,1 v 6 c 0,0.553 0.448,1 1,1 z m -3,8 h -4 -2 -2 -4 v 8 h 4 2 2 4 z m 8,16 v -25 c 0,2.757 -2.243,5 -5,5 h 1 v 4 8 4 h -4 -4 -2 -2 -4 -4 v -4 -8 -4 h 1 c -2.757,0 -5,-2.243 -5,-5 v 1 4 16 h -16 v -16 -4 -12 h 16 v 5 c 0,-2.757 2.243,-5 5,-5 h 18 c 2.757,0 5,2.243 5,5 v -9 h -1.246 -34.754 -4 -8 v 40 l -4,-4 3.6,-36 h -0.69 c -1.011,0 -1.991,0.384 -2.689,1.053 l -3.162,3.024 c -0.443,0.522 -1.059,2.596 -1.059,3.923 v 26.4 l 5.329,5.6 h 2.671 48 10.505 c 13.291,-19.281 35.893,-32 61.495,-32 25.602,0 48.204,12.719 61.495,32 h 11.596 c 0.978,0 1.929,-0.36 2.622,-0.991 L -16,-33.578 v -27.979 c 0,-0.871 -0.364,-1.699 -1.025,-2.332 l -3.196,-3.058 C -20.92,-67.616 -21.899,-68 -22.909,-68 H -96 h -4 -34.755 -6.279 -21.935 -4.631 l 3.6,35.964 z M -4,64 v 0.663 0.297 c 0,3.106 -1.299,6.14 -3.564,8.322 l -8.032,8.232 c -1.464,1.501 -3.496,2.362 -5.574,2.364 l -71.672,0.044 C -93.891,83.965 -94.941,84 -96,84 c -1.007,0 -2.006,-0.035 -3.003,-0.074 L -218.81,84 h -0.002 v 0 h -0.003 c -2.096,0 -4.14,-0.872 -5.609,-2.394 l -8.191,-8.483 c -0.384,-0.397 -0.749,-0.842 -1.116,-1.356 C -235.216,69.743 -236,67.366 -236,64.89 V 64.687 -36 -64 -65.606 l 1.111,-1.161 9.324,-9.737 0.03,-0.031 0.03,-0.031 c 2.215,-2.214 5.159,-3.434 8.291,-3.434 H -208 v -52 -4 c 0,-4.411 3.589,-8 8,-8 h 96 c 4.411,0 8,3.589 8,8 v 4 52 h 72.814 c 3.39,0 6.577,1.32 8.973,3.717 l 0.032,0.031 0.031,0.032 9.041,9.455 1.109,1.161 V -64 -36 -8 c 4.411,0 8,3.589 8,8 v 56 c 0,4.411 -3.589,8 -8,8" /></g><g
           transform="translate(28,148)"
           id="g24"><path
             id="path26"
             style="fill:#ffffff;fill-opacity:1;fill-rule:nonzero;stroke:none"
             d="M 0,0 V 4 H 24 V 8 H 0 v 4 h 24 v 4 H 0 v 4 h 24 v 4 H 0 v 4 h 24 v 4 H 0 v 4 h 24 v 4 H 0 v 4 h 24 v 4 H 0 v 4 h 24 v 4 H 0 v 4 h 24 v 4 H 0 v 4 h 24 v 4 H 0 v 4 H 28 V -8 H 0 v 4 h 24 v 4 z m -4,-8 v -4 h 4 28 4 v 4 84 4 H 28 0 -4 v -4 -4 l -8,-8 v -4 l 8,8 v -4 l -8,-8 v -4 l 8,8 v -4 l -8,-8 v -4 l 8,8 v -4 l -8,-8 v -4 l 8,8 v -4 l -8,-8 v -4 l 8,8 v -4 l -8,-8 v -4 l 8,8 v -4 l -8,-8 v -4 l 8,8 V 16 L -12,8 V 4 l 8,8 V 8 l -8,-8 v -4 l 8,8 V 0 l -8,-8 v -4 l 8,8 z" /></g><g
           transform="translate(112,188)"
           id="g28"><path
             id="path30"
             style="fill:#ffffff;fill-opacity:1;fill-rule:nonzero;stroke:none"
             d="M 0,0 V 4 H 4 V -4 H 0 c -3.477,0 -4,0.523 -4,4 z M 64,-4 H 8 v 8 h 56 z m 8,8 V 0 h 4 c 0,-3.477 -0.523,-4 -4,-4 H 68 V 4 Z M 0,-8 h 4 4 56 4 4 c 5.482,0 8,2.102 8,8 V 4 H 76 V 8 H 68 64 8 4 -4 V 4 H -8 V 0 c 0,-5.898 2.518,-8 8,-8" /></g><g
           transform="translate(148,102)"
           id="g32"><path
             id="path34"
             style="fill:#ffffff;fill-opacity:1;fill-rule:nonzero;stroke:none"
             d="M 0,0 C 1.104,0 2,0.896 2,2 2,3.104 1.104,4 0,4 -1.104,4 -2,3.104 -2,2 -2,0.896 -1.104,0 0,0" /></g></g></g></g></svg>