<?xml version="1.0" encoding="UTF-8" standalone="no"?>
<svg
   xmlns:dc="http://purl.org/dc/elements/1.1/"
   xmlns:cc="http://creativecommons.org/ns#"
   xmlns:rdf="http://www.w3.org/1999/02/22-rdf-syntax-ns#"
   xmlns:svg="http://www.w3.org/2000/svg"
   xmlns="http://www.w3.org/2000/svg"
   viewBox="0 0 320 178.66665"
   height="178.66666"
   width="320"
   xml:space="preserve"
   id="svg2"
   version="1.1"><metadata
     id="metadata8"><rdf:RDF><cc:Work
         rdf:about=""><dc:format>image/svg+xml</dc:format><dc:type
           rdf:resource="http://purl.org/dc/dcmitype/StillImage" /></cc:Work></rdf:RDF></metadata><defs
     id="defs6"><clipPath
       id="clipPath18"
       clipPathUnits="userSpaceOnUse"><path
         id="path16"
         d="M 0,256 H 256 V 0 H 0 Z" /></clipPath></defs><g
     transform="matrix(1.3333333,0,0,-1.3333333,-10.666666,261.33333)"
     id="g10"><g
       id="g12"><g
         clip-path="url(#clipPath18)"
         id="g14"><g
           transform="translate(58,80)"
           id="g20"><path
             id="path22"
             style="fill:#ffffff;fill-opacity:1;fill-rule:nonzero;stroke:none"
             d="m 0,0 c -3.313,0 -6,2.687 -6,6 0,3.313 2.687,6 6,6 C 3.313,12 6,9.313 6,6 6,2.687 3.313,0 0,0 M 0,16 C -5.514,16 -10,11.514 -10,6 -10,0.486 -5.514,-4 0,-4 5.514,-4 10,0.486 10,6 10,11.514 5.514,16 0,16" /></g><g
           transform="translate(34,80)"
           id="g24"><path
             id="path26"
             style="fill:#ffffff;fill-opacity:1;fill-rule:nonzero;stroke:none"
             d="m 0,0 c -3.313,0 -6,2.687 -6,6 0,3.313 2.687,6 6,6 C 3.313,12 6,9.313 6,6 6,2.687 3.313,0 0,0 M 0,16 C -5.514,16 -10,11.514 -10,6 -10,0.486 -5.514,-4 0,-4 5.514,-4 10,0.486 10,6 10,11.514 5.514,16 0,16" /></g><g
           transform="translate(222,90)"
           id="g28"><path
             id="path30"
             style="fill:#ffffff;fill-opacity:1;fill-rule:nonzero;stroke:none"
             d="m 0,0 c 0,-2.209 -1.791,-4 -4,-4 -2.209,0 -4,1.791 -4,4 0,2.209 1.791,4 4,4 2.209,0 4,-1.791 4,-4 M 10,12 C 10,9.791 8.209,8 6,8 3.791,8 2,9.791 2,12 c 0,2.209 1.791,4 4,4 2.209,0 4,-1.791 4,-4 M 8,26 c 0,2.209 1.791,4 4,4 2.209,0 4,-1.791 4,-4 0,-2.209 -1.791,-4 -4,-4 -2.209,0 -4,1.791 -4,4 M 22,42 V 38 H 21.884 C 21.638,33.658 20.972,29.431 19.966,25.334 19.984,25.555 20,25.775 20,26 20,30.411 16.411,34 12,34 7.589,34 4,30.411 4,26 4,23.589 5.076,21.429 6.77,19.961 6.516,19.985 6.26,20 6,20 1.589,20 -2,16.411 -2,12 -2,10.146 -1.361,8.443 -0.299,7.086 -1.407,7.667 -2.665,8 -4,8 c -4.411,0 -8,-3.589 -8,-8 0,-4.411 3.589,-8 8,-8 4.411,0 8,3.589 8,8 C 4,1.854 3.361,3.557 2.299,4.914 3.407,4.333 4.665,4 6,4 c 4.411,0 8,3.589 8,8 0,2.411 -1.076,4.571 -2.77,6.039 C 11.484,18.015 11.74,18 12,18 c 3.227,0 6.006,1.924 7.27,4.681 C 15.261,8.754 7.045,-3.409 -3.922,-12.323 c -0.362,-0.295 -0.797,-0.436 -1.229,-0.436 -0.62,0 -1.235,0.289 -1.627,0.829 l -1.618,2.226 -0.143,-0.118 C -19.607,-18.965 -33.621,-24 -48,-24 c -13.407,0 -26.173,4.215 -36.915,12.188 l -0.042,0.032 -1.43,-2.199 c -0.384,-0.593 -1.028,-0.912 -1.681,-0.912 -0.411,0 -0.828,0.126 -1.185,0.39 -0.226,0.166 -0.45,0.333 -0.674,0.501 h -66.087 c -1.824,-2.425 -4.717,-4 -7.986,-4 -3.269,0 -6.162,1.575 -7.986,4 h -8.028 c -1.824,-2.425 -4.717,-4 -7.986,-4 -3.269,0 -6.162,1.575 -7.986,4 H -206 c -2.209,0 -4,1.791 -4,4 v 44 h 4 24 4 68 2.543 c 2.219,-16.622 11.264,-31.493 25.203,-41.222 l 0.227,-0.158 -1.696,-2.825 C -73.742,-17.613 -61.385,-22 -48,-22 c 14.508,0 27.813,5.149 38.187,13.72 L -20.474,7.71 C -10.439,15.781 -4,28.149 -4,42 c 0,8.069 -2.193,15.631 -6,22.14 V 102 H 2 c 11.046,0 20,-8.954 20,-20 z m -232,52 c 0,4.418 3.582,8 8,8 h 112 4 V 64.14 C -89.807,57.631 -92,50.069 -92,42 -92,27.36 -84.807,14.376 -73.776,6.373 l -2.058,-3.43 C -88.464,11.974 -96,26.547 -96,42 c 0,2.465 0.191,4.951 0.569,7.387 L -94.715,54 h -4.668 -2.617 -1.419 -2.581 -4 -68 -4 -24 -4 z M -88,42 c 0,22.091 17.908,40 40,40 C -25.908,82 -8,64.091 -8,42 -8,19.908 -25.908,2 -48,2 -70.092,2 -88,19.908 -88,42 m 35.89,-43.802 c 0.463,-0.043 0.928,-0.077 1.395,-0.106 -0.467,0.029 -0.932,0.063 -1.395,0.106 m -2.078,0.245 c 0.443,-0.062 0.886,-0.12 1.333,-0.17 -0.447,0.05 -0.89,0.108 -1.333,0.17 m -2.49,0.42 c 0.592,-0.119 1.188,-0.224 1.788,-0.32 -0.6,0.096 -1.196,0.201 -1.788,0.32 m -1.993,0.452 c 0.412,-0.103 0.827,-0.196 1.242,-0.288 -0.415,0.092 -0.83,0.185 -1.242,0.288 m -1.854,0.511 c 0.306,-0.091 0.615,-0.178 0.924,-0.263 -0.309,0.085 -0.618,0.172 -0.924,0.263 m -1.774,0.572 c 0.256,-0.088 0.512,-0.177 0.77,-0.261 -0.258,0.084 -0.514,0.173 -0.77,0.261 m -1.132,0.402 0.044,-0.018 z m -3.16,1.334 c 0.112,-0.053 0.225,-0.102 0.336,-0.153 -0.111,0.051 -0.224,0.1 -0.336,0.153 m -1.619,0.803 c 0.12,-0.064 0.241,-0.125 0.362,-0.187 -0.121,0.062 -0.242,0.123 -0.362,0.187 m -1.427,0.773 c 0.05,-0.027 0.098,-0.057 0.148,-0.085 -0.05,0.028 -0.098,0.058 -0.148,0.085 m 43.069,-0.117 c 0.091,0.051 0.18,0.104 0.271,0.156 -0.091,-0.052 -0.18,-0.105 -0.271,-0.156 M -28.309,2.67 c 0.155,0.078 0.308,0.157 0.461,0.236 -0.153,-0.079 -0.306,-0.158 -0.461,-0.236 m -1.788,-0.848 c 0.189,0.084 0.376,0.168 0.564,0.255 -0.188,-0.087 -0.375,-0.171 -0.564,-0.255 m -1.822,-0.765 c 0.207,0.081 0.414,0.16 0.619,0.244 -0.205,-0.084 -0.412,-0.162 -0.619,-0.244 m -1.797,-0.663 c 0.196,0.067 0.396,0.129 0.591,0.2 -0.195,-0.071 -0.395,-0.133 -0.591,-0.2 m -3.09,-0.947 c 0.333,0.088 0.661,0.188 0.991,0.282 -0.33,-0.094 -0.658,-0.194 -0.991,-0.282 m -2.003,-0.474 c 0.36,0.077 0.716,0.163 1.073,0.248 -0.357,-0.085 -0.713,-0.171 -1.073,-0.248 m -2.049,-0.384 c 0.38,0.062 0.76,0.131 1.137,0.203 -0.377,-0.072 -0.756,-0.141 -1.137,-0.203 m -2.109,-0.292 c 0.41,0.047 0.818,0.098 1.224,0.155 -0.406,-0.057 -0.814,-0.108 -1.224,-0.155 M -45.188,-1.9 c 0.464,0.029 0.928,0.061 1.388,0.105 -0.46,-0.044 -0.924,-0.076 -1.388,-0.105 M -48,-2 c -0.69,0 -1.377,0.021 -2.06,0.053 C -49.376,-1.979 -48.69,-2 -48,-2 c 0.709,0 1.413,0.021 2.114,0.054 C -46.587,-1.979 -47.291,-2 -48,-2 m -29.321,-5.31 0.786,1.31 2.063,3.438 1.892,3.154 0.088,0.147 C -65.089,-3.682 -56.704,-6 -48,-6 c 9.42,0 18.685,2.823 26.514,8.019 l 6.277,-9.416 C -24.706,-14.257 -36.218,-18 -48,-18 c -10.896,0 -21.322,3.081 -30.368,8.944 z M -106,50 h 2.581 1.419 2.617 C -99.788,47.392 -100,44.72 -100,42 c 0,-17.548 8.746,-33.082 22.098,-42.503 l -2.063,-3.438 C -93.451,5.47 -102.614,20.653 -103.846,38 H -106 Z m -12,-8 h 8 v -4 h -8 z m -48,0 h 44 v -4 h -44 z m -12,0 h 8 v -4 h -8 z m -4,-4 h -24 v 12 h 24 z m 12,8 h -8 v 4 h 8 z m 48,0 h -44 v 4 h 44 z m 4,4 h 8 v -4 h -8 z m 104,52 V 69.896 C -22.076,79.722 -34.318,86 -48,86 -61.682,86 -73.924,79.722 -82,69.896 V 102 Z m 16,4 h -88 -4 -112 c -6.617,0 -12,-5.383 -12,-12 V 54 50 h 4 V 38 h -4 v -4 -44 c 0,-4.411 3.589,-8 8,-8 h 8.212 c 2.601,-2.563 6.069,-4 9.788,-4 3.719,0 7.188,1.437 9.788,4 h 4.424 c 2.601,-2.563 6.069,-4 9.788,-4 3.719,0 7.188,1.437 9.788,4 h 62.999 c 0.944,-0.584 2.023,-0.891 3.145,-0.891 1.527,0 2.964,0.572 4.057,1.576 C -73.295,-24.318 -60.929,-28 -48,-28 c 14,0 27.678,4.485 38.926,12.699 1.081,-0.928 2.473,-1.458 3.923,-1.458 1.364,0 2.696,0.473 3.753,1.331 C 13.777,-3.092 23.469,14.756 25.565,34 H 26 v 4 44 c 0,13.233 -10.767,24 -24,24" /></g><g
           transform="translate(236,128)"
           id="g32"><path
             id="path34"
             style="fill:#ffffff;fill-opacity:1;fill-rule:nonzero;stroke:none"
             d="M 0,0 C -2.209,0 -4,1.791 -4,4 -4,6.209 -2.209,8 0,8 2.209,8 4,6.209 4,4 4,1.791 2.209,0 0,0 m 0,12 c -4.411,0 -8,-3.589 -8,-8 0,-4.411 3.589,-8 8,-8 4.411,0 8,3.589 8,8 0,4.411 -3.589,8 -8,8" /></g><g
           transform="translate(152,80.5342)"
           id="g36"><path
             id="path38"
             style="fill:#ffffff;fill-opacity:1;fill-rule:nonzero;stroke:none"
             d="m 0,0 c 6.18,-2.649 12.921,-4.233 20,-4.483 v 4 C 12.871,-0.214 6.114,1.499 0,4.358 Z" /></g><g
           transform="translate(196,84.8926)"
           id="g40"><path
             id="path42"
             style="fill:#ffffff;fill-opacity:1;fill-rule:nonzero;stroke:none"
             d="m 0,0 c -6.114,-2.859 -12.871,-4.572 -20,-4.842 v -4 c 7.079,0.25 13.82,1.834 20,4.484 z" /></g></g></g></g></svg>