<?xml version="1.0" encoding="UTF-8" standalone="no"?>
<svg
   xmlns:dc="http://purl.org/dc/elements/1.1/"
   xmlns:cc="http://creativecommons.org/ns#"
   xmlns:rdf="http://www.w3.org/1999/02/22-rdf-syntax-ns#"
   xmlns:svg="http://www.w3.org/2000/svg"
   xmlns="http://www.w3.org/2000/svg"
   viewBox="0 0 320 320"
   height="320"
   width="320"
   xml:space="preserve"
   version="1.1"
   id="svg2"><metadata
     id="metadata8"><rdf:RDF><cc:Work
         rdf:about=""><dc:format>image/svg+xml</dc:format><dc:type
           rdf:resource="http://purl.org/dc/dcmitype/StillImage" /></cc:Work></rdf:RDF></metadata><defs
     id="defs6"><clipPath
       id="clipPath16"
       clipPathUnits="userSpaceOnUse"><path
         id="path18"
         d="M 0,256 256,256 256,0 0,0 0,256 Z" /></clipPath></defs><g
     transform="matrix(1.25,0,0,-1.25,0,320)"
     id="g10"><g
       id="g12"><g
         clip-path="url(#clipPath16)"
         id="g14"><g
           transform="translate(174,75.8516)"
           id="g20"><path
             id="path22"
             style="fill:#f2f2f2;fill-opacity:1;fill-rule:nonzero;stroke:none"
             d="m 0,0 -4,0 c -1.1,0 -2,-0.899 -2,-2 0,-1.1 0.9,-2 2,-2 l 4,0 c 1.1,0 2,0.9 2,2 0,1.101 -0.9,2 -2,2" /></g><g
           transform="translate(210,112)"
           id="g24"><path
             id="path26"
             style="fill:#f2f2f2;fill-opacity:1;fill-rule:nonzero;stroke:none"
             d="m 0,0 c -1.104,0 -2,-0.896 -2,-2 0,-1.104 0.896,-2 2,-2 1.104,0 2,0.896 2,2 0,1.104 -0.896,2 -2,2" /></g><g
           transform="translate(214,116)"
           id="g28"><path
             id="path30"
             style="fill:#f2f2f2;fill-opacity:1;fill-rule:nonzero;stroke:none"
             d="m 0,0 c -1.104,0 -2,-0.896 -2,-2 0,-1.104 0.896,-2 2,-2 1.104,0 2,0.896 2,2 0,1.104 -0.896,2 -2,2" /></g><g
           transform="translate(218,120)"
           id="g32"><path
             id="path34"
             style="fill:#f2f2f2;fill-opacity:1;fill-rule:nonzero;stroke:none"
             d="m 0,0 c -1.104,0 -2,-0.896 -2,-2 0,-1.104 0.896,-2 2,-2 1.104,0 2,0.896 2,2 0,1.104 -0.896,2 -2,2" /></g><g
           transform="translate(222,124)"
           id="g36"><path
             id="path38"
             style="fill:#f2f2f2;fill-opacity:1;fill-rule:nonzero;stroke:none"
             d="m 0,0 c -1.104,0 -2,-0.896 -2,-2 0,-1.104 0.896,-2 2,-2 1.104,0 2,0.896 2,2 0,1.104 -0.896,2 -2,2" /></g><g
           transform="translate(44.5981,164.7476)"
           id="g40"><path
             id="path42"
             style="fill:#f2f2f2;fill-opacity:1;fill-rule:nonzero;stroke:none"
             d="m 0,0 c 8.947,4.677 20.911,7.252 33.688,7.252 12.776,0 24.74,-2.575 33.687,-7.252 8.006,-4.185 12.598,-9.665 12.598,-15.033 0,-5.369 -4.592,-10.848 -12.598,-15.033 -8.947,-4.677 -20.911,-7.253 -33.687,-7.253 -12.777,0 -24.741,2.576 -33.688,7.253 -8.006,4.185 -12.598,9.664 -12.598,15.033 0,5.368 4.592,10.848 12.598,15.033 m 33.688,-41.319 c 27.727,0 50.285,11.792 50.285,26.286 0,14.493 -22.558,26.285 -50.285,26.285 -27.728,0 -50.286,-11.792 -50.286,-26.285 0,-14.494 22.558,-26.286 50.286,-26.286" /></g><g
           transform="translate(111.7437,82.2861)"
           id="g44"><path
             id="path46"
             style="fill:#f2f2f2;fill-opacity:1;fill-rule:nonzero;stroke:none"
             d="m 0,0 -12.059,0 c -1.717,0 -3.113,1.538 -3.113,3.429 0,1.889 1.396,3.427 3.113,3.427 L 0,6.856 C 1.717,6.856 3.113,5.318 3.113,3.429 3.113,1.538 1.717,0 0,0 m -50.372,-2.331 c 1.602,1.363 2.628,3.437 2.628,5.76 0,2.271 -0.984,4.304 -2.527,5.669 l 33.625,0 c -1.542,-1.365 -2.526,-3.398 -2.526,-5.669 0,-2.323 1.026,-4.397 2.629,-5.76 l -33.829,0 z M -54.857,0 -66.916,0 c -1.717,0 -3.113,1.538 -3.113,3.429 0,1.889 1.396,3.427 3.113,3.427 l 12.059,0 c 1.717,0 3.113,-1.538 3.113,-3.427 C -51.744,1.538 -53.14,0 -54.857,0 m 54.721,13.098 -66.309,0 c -5.35,0 -9.703,-4.359 -9.703,-9.715 0,-5.357 4.353,-9.714 9.703,-9.714 l 66.309,0 c 5.35,0 9.702,4.357 9.702,9.714 0,5.356 -4.352,9.715 -9.702,9.715" /></g><path
           id="path48"
           style="fill:#f2f2f2;fill-opacity:1;fill-rule:nonzero;stroke:none"
           d="m 73.714,82.286 2.286,0 0,4.571 -2.286,0 0,-4.571 z" /><path
           id="path50"
           style="fill:#f2f2f2;fill-opacity:1;fill-rule:nonzero;stroke:none"
           d="m 80.571,82.286 2.286,0 0,4.571 -2.286,0 0,-4.571 z" /><path
           id="path52"
           style="fill:#f2f2f2;fill-opacity:1;fill-rule:nonzero;stroke:none"
           d="m 77.143,82.286 2.286,0 0,4.571 -2.286,0 0,-4.571 z" /><g
           transform="translate(73.7144,134.8574)"
           id="g54"><path
             id="path56"
             style="fill:#f2f2f2;fill-opacity:1;fill-rule:nonzero;stroke:none"
             d="M 0,0 9.143,0 4.571,4.571 0,0 Z" /></g><g
           transform="translate(244,120)"
           id="g58"><path
             id="path60"
             style="fill:#f2f2f2;fill-opacity:1;fill-rule:nonzero;stroke:none"
             d="m 0,0 0,-2.177 c 0,-0.418 -0.065,-0.815 -0.159,-1.2 -0.726,-8.017 -3.907,-15.225 -8.691,-20.695 -0.932,-0.283 -1.786,-0.792 -2.494,-1.5 l -4.551,-4.557 c -4.548,-2.864 -9.807,-4.5 -15.41,-4.5 -0.702,0 -45.495,-4.637 -45.495,-4.637 L -96,-44 l 0,0.984 0,40.839 0,4.636 0,62.684 0,2.221 c 0,2.56 1.869,4.636 4.174,4.636 l 3.826,0 0,-4 c 0,-1.676 0.521,-3.232 1.405,-4.519 C -89.765,62.166 -92,59.044 -92,55.407 l 0,-75.851 c 0,-4.82 3.925,-8.742 8.75,-8.742 l 52.25,0 c 12.683,0 23,10.302 23,22.963 l 0,61.63 c 0,2.56 -1.113,4.858 -2.874,6.458 C -9.119,63.334 -8,65.538 -8,68 l 0,4 3.826,0 C -1.869,72 0,69.924 0,67.364 L 0,0 Z m -3.555,-24.98 c -0.173,0.127 -0.352,0.246 -0.537,0.353 0.429,0.568 0.844,1.151 1.242,1.747 -0.221,-0.708 -0.459,-1.407 -0.705,-2.1 m -1.61,-6.772 -2.83,-2.833 -4.386,-4.392 c -0.292,-0.292 -0.653,-0.474 -1.031,-0.546 -0.127,-0.025 -0.255,-0.038 -0.383,-0.038 -0.513,0 -1.025,0.196 -1.414,0.584 l -0.52,0.521 c -0.778,0.779 -0.778,2.054 0,2.832 l 2.266,2.27 10e-4,0 4.948,4.955 c 0.613,0.613 1.529,0.736 2.272,0.383 0.022,-0.009 0.044,-0.023 0.066,-0.034 0.176,-0.092 0.344,-0.202 0.491,-0.349 l 0.52,-0.521 c 0.777,-0.778 0.777,-2.053 0,-2.832 M -41.739,-56 l -8.348,0 -37.913,0 -7.904,7.904 0.862,0.212 18.931,4.668 c 17.176,1.778 42.841,4.417 44.94,4.587 3.801,0.016 7.459,0.694 10.892,1.924 -0.092,-1.647 0.467,-3.322 1.72,-4.577 l 0.52,-0.521 c 0.937,-0.938 2.134,-1.521 3.429,-1.696 C -21.904,-51.288 -31.377,-56 -41.739,-56 M -88,44 l 0,11.407 c 0,2.618 2.127,4.741 4.75,4.741 l 1.736,0 C -81.023,60.054 -80.518,60 -80,60 l 64,0 c 0.108,0 0.214,0.012 0.322,0.016 C -13.573,59.53 -12,57.656 -12,55.407 L -12,44 -88,44 Z M -15.273,0.381 c -1.216,-4.004 -3.953,-8.279 -7.707,-12.038 -5.07,-5.076 -11.305,-8.357 -15.886,-8.357 -1.694,0 -2.997,0.446 -3.874,1.325 -3.753,3.757 0.689,13.443 7.023,19.785 5.07,5.076 11.306,8.356 15.886,8.356 1.693,0 2.997,-0.446 3.874,-1.324 1.479,-1.481 1.728,-4.305 0.684,-7.747 m -4.558,13.071 c -5.674,0 -12.846,-3.652 -18.716,-9.53 -6.733,-6.741 -13.363,-19.09 -7.023,-25.439 1.137,-1.138 3.224,-2.497 6.704,-2.497 5.674,0 12.845,3.652 18.717,9.531 3.726,3.731 6.571,7.973 8.149,12.104 l 0,-3.844 c 0,-10.472 -8.507,-18.963 -19,-18.963 l -52.25,0 c -2.623,0 -4.75,2.124 -4.75,4.742 l 0,60.444 76,0 0,-30.517 c -0.325,0.529 -0.686,1.031 -1.127,1.472 -1.137,1.139 -3.224,2.497 -6.704,2.497 M -84,72 l 4.693,0 0,-4.741 2.369,0 0,4.741 2.367,0 0,-4.741 2.367,0 0,4.741 2.367,0 0,-4.741 2.367,0 0,4.741 2.368,0 0,-4.741 2.368,0 0,4.741 2.367,0 0,-4.741 2.367,0 0,4.741 2.367,0 0,-4.741 2.367,0 0,4.741 2.368,0 0,-4.741 2.368,0 0,4.741 2.367,0 0,-4.741 2.367,0 0,4.741 2.367,0 0,-4.741 2.367,0 0,4.741 2.369,0 0,-4.741 2.367,0 0,4.741 2.367,0 0,-4.741 2.367,0 0,4.741 2.367,0 0,-4.741 2.368,0 0,4.741 2.367,0 0,-4.741 2.368,0 0,4.741 2.367,0 0,-4.741 2.367,0 0,4.741 3.388,0 0,-4 c 0,-2.041 -1.533,-3.706 -3.508,-3.95 -0.407,0.058 -0.819,0.098 -1.242,0.098 l -14.25,0 -9.5,0 -40.521,0 C -82.732,64.602 -84,66.146 -84,68 l 0,4 z m -81.714,-13.143 c 28.806,0 53.143,-13.346 53.143,-29.143 0,-15.797 -24.337,-29.143 -53.143,-29.143 -28.807,0 -53.143,13.346 -53.143,29.143 0,15.797 24.336,29.143 53.143,29.143 M -100,2.459 l 0,-4.636 0,-40.839 c 0,-0.668 -0.242,-1.277 -0.642,-1.747 -0.055,-0.066 -0.115,-0.13 -0.177,-0.19 l -8.751,-9.347 1.606,22.496 c 0.268,3.747 -0.198,7.453 -1.387,11.016 l -1.356,4.069 c -1.028,3.088 -3.087,5.783 -5.796,7.59 -2.086,1.391 -4.513,2.125 -7.034,2.125 l -6.121,-0.007 c -1.238,-10e-4 -2.489,-0.084 -3.718,-0.248 l -30.059,-4 c -1.496,-0.201 -3.062,-0.201 -4.56,0 l -30.057,4 c -1.23,0.164 -2.481,0.247 -3.719,0.248 l -6.135,0.007 c -2.507,0 -4.934,-0.734 -7.019,-2.125 -2.709,-1.807 -4.768,-4.502 -5.798,-7.59 l -1.356,-4.069 c -1.188,-3.564 -1.654,-7.27 -1.387,-11.016 l 1.641,-22.973 -9.332,9.802 c -0.071,0.068 -0.138,0.137 -0.201,0.212 -0.399,0.47 -0.642,1.079 -0.642,1.747 l 0,0.106 0,10e-4 0,106.734 0,1.318 c 0,4.451 2.424,6.857 6.828,6.857 l 1.458,0 0,-4 c 0,-4.411 3.589,-8 8,-8 l 26.832,0 c -19.994,-5.166 -33.975,-16.793 -33.975,-30.286 0,-18.275 25.634,-33.143 57.143,-33.143 31.508,0 57.143,14.868 57.143,33.143 0,13.493 -13.982,25.12 -33.976,30.286 l 26.833,0 c 4.411,0 8,3.589 8,8 l 0,4 0.886,0 c 4.404,0 6.828,-2.406 6.828,-6.857 l 0,-62.684 z m -79.172,-17.379 10.693,-1.337 c 0.914,-0.114 1.844,-0.172 2.765,-0.172 0.92,0 1.85,0.058 2.764,0.172 l 10.694,1.337 -0.847,-5.08 -25.223,0 -0.846,5.08 z m 68.074,-16.66 -1.745,-24.42 -105.743,0 -1.745,24.42 c -0.238,3.332 0.177,6.629 1.234,9.797 l 1.356,4.07 c 0.809,2.429 2.429,4.548 4.559,5.969 1.568,1.045 3.396,1.598 5.287,1.598 l 6.121,-0.007 c 1.099,-10e-4 2.212,-0.076 3.307,-0.221 l 14.81,-1.971 1.624,-9.745 c 0.184,-1.102 1.137,-1.91 2.255,-1.91 l 28.128,0 c 1.117,0 2.07,0.808 2.254,1.91 l 1.624,9.745 14.81,1.971 c 1.096,0.145 2.209,0.22 3.308,0.221 l 6.131,0.007 c 1.533,0 2.991,-0.336 4.217,-0.973 2.628,-1.362 4.675,-3.766 5.618,-6.594 l 1.357,-4.07 c 1.056,-3.168 1.471,-6.465 1.233,-9.797 M -219.714,72 l 4.857,0 0,-2.643 c 0,-1.065 0.863,-1.928 1.928,-1.928 l 0.358,0 0,4.571 2.285,0 0,-4.571 2.286,0 0,4.571 2.286,0 0,-4.571 2.285,0 0,4.571 2.286,0 0,-4.571 2.286,0 0,4.571 2.286,0 0,-4.571 2.285,0 0,4.571 2.286,0 0,-4.571 2.286,0 0,4.571 2.285,0 0,-4.571 2.286,0 0,4.571 2.286,0 0,-4.571 2.286,0 0,4.571 2.285,0 0,-4.571 2.286,0 0,4.571 2.286,0 0,-4.571 2.285,0 0,4.571 2.286,0 0,-4.571 2.286,0 0,4.571 2.286,0 0,-4.571 2.285,0 0,4.571 2.286,0 0,-4.571 2.286,0 0,4.571 2.285,0 0,-4.571 2.286,0 0,4.571 2.286,0 0,-4.571 2.286,0 0,4.571 2.285,0 0,-4.571 2.286,0 0,4.571 2.286,0 0,-4.571 2.285,0 0,4.571 2.286,0 0,-4.571 2.286,0 0,4.571 2.286,0 0,-4.571 2.285,0 0,4.571 2.286,0 0,-4.571 2.286,0 0,4.571 2.285,0 0,-4.571 2.286,0 0,4.571 2.286,0 0,-4.571 0.357,0 c 1.065,0 1.929,0.863 1.929,1.928 l 0,2.643 4.857,0 0,-4 c 0,-2.209 -1.791,-4 -4,-4 l -100,0 c -2.209,0 -4,1.791 -4,4 l 0,4 z m 215.54,4 -3.826,0 -4,0 -1.755,0 -4,0 -0.735,0 -4,0 -0.735,0 -4,0 -0.734,0 -4,0 -0.734,0 -4,0 -0.736,0 -4,0 -0.734,0 -4,0 -0.735,0 -4,0 -0.735,0 -4,0 -0.734,0 -4,0 -0.735,0 -4,0 -0.735,0 -4,0 -0.734,0 -4,0 -0.736,0 -4,0 -4.693,0 -4,0 -3.826,0 c -2.706,0 -5.102,-1.402 -6.591,-3.549 -1.89,2.255 -4.795,3.549 -8.411,3.549 l -0.886,0 -4,0 -3.143,0 -4,0 -0.572,0 -4,0 -0.571,0 -4,0 -0.571,0 -4,0 -0.572,0 -4,0 -0.571,0 -4,0 -0.572,0 -4,0 -0.571,0 -4,0 -0.572,0 -4,0 -0.571,0 -4,0 -0.571,0 -4,0 -0.572,0 -4,0 -0.571,0 -4,0 -0.572,0 -4,0 -0.571,0 -4,0 -0.572,0 -4,0 -0.571,0 -4,0 -0.571,0 -4,0 -0.572,0 -4,0 -0.571,0 -4,0 -0.572,0 -4,0 -0.571,0 -4,0 -4.857,0 -4,0 -1.458,0 C -231.75,76 -236,71.738 -236,65.143 l 0,-1.318 0,-106.734 0,-0.109 c 0,-1.585 0.565,-3.125 1.592,-4.334 0.128,-0.15 0.265,-0.297 0.41,-0.44 l 9.769,-10.26 c 1.178,-1.238 2.833,-1.948 4.542,-1.948 l 107.273,0 0.268,0 c 1.727,0 3.396,0.724 4.578,1.986 l 8.123,8.676 0.617,-1.49 8,-8 1.171,-1.172 1.657,0 37.913,0 8.348,0 c 15.094,0 28.499,9.004 36.834,22.849 l 2.57,2.573 c 1.539,1.541 2.043,3.715 1.554,5.69 C 2.272,-21.385 4,-12.937 4,-4 L 4,-2.177 4,0 4,67.364 C 4,72.126 0.333,76 -4.174,76" /></g><path
           id="path62"
           style="fill:#f2f2f2;fill-opacity:1;fill-rule:nonzero;stroke:none"
           d="m 44,148 8,0 0,-4 -8,0 0,4 z m 0,8 8,0 0,-4 -8,0 0,4 z m 56,-4 -44,0 0,4 44,0 0,-4 z m 12,0 -8,0 0,4 8,0 0,-4 z m 0,-8 -8,0 0,4 8,0 0,-4 z m -56,4 44,0 0,-4 -44,0 0,4 z m -4,-8 4,0 44,0 4,0 8,0 4,0 0,4 0,4 0,4 0,4 0,4 -12,0 -4,0 -44,0 -4,0 -12,0 0,-4 0,-4 0,-4 0,-4 0,-4 4,0 8,0 z" /></g></g></g></svg>