<?xml version="1.0" encoding="UTF-8" standalone="no"?>
<svg
   xmlns:dc="http://purl.org/dc/elements/1.1/"
   xmlns:cc="http://creativecommons.org/ns#"
   xmlns:rdf="http://www.w3.org/1999/02/22-rdf-syntax-ns#"
   xmlns:svg="http://www.w3.org/2000/svg"
   xmlns="http://www.w3.org/2000/svg"
   viewBox="0 0 314.66665 197.33333"
   height="197.33333"
   width="314.66666"
   xml:space="preserve"
   id="svg2"
   version="1.1"><metadata
     id="metadata8"><rdf:RDF><cc:Work
         rdf:about=""><dc:format>image/svg+xml</dc:format><dc:type
           rdf:resource="http://purl.org/dc/dcmitype/StillImage" /></cc:Work></rdf:RDF></metadata><defs
     id="defs6"><clipPath
       id="clipPath18"
       clipPathUnits="userSpaceOnUse"><path
         id="path16"
         d="M 0,256 H 256 V 0 H 0 Z" /></clipPath></defs><g
     transform="matrix(1.3333333,0,0,-1.3333333,-13.334,269.33333)"
     id="g10"><g
       id="g12"><g
         clip-path="url(#clipPath18)"
         id="g14"><g
           transform="translate(235.6475,176)"
           id="g20"><path
             id="path22"
             style="fill:#ffffff;fill-opacity:1;fill-rule:nonzero;stroke:none"
             d="m 0,0 c -2.11,0 -4.058,-0.637 -5.647,-1.703 v 21.48 c 6.801,-1.137 12,-7.145 12,-14.42 V 0 Z m 6.353,-93.357 c 0,-7.275 -5.199,-13.284 -12,-14.42 v 25.48 C -4.058,-83.363 -2.11,-84 0,-84 h 6.353 z m -16,-23.643 c 0,-0.553 -0.448,-1 -1,-1 h -194 c -0.553,0 -1,0.447 -1,1 v 42.477 10.523 4 4 2 V -8.891 21 c 0,0.552 0.447,1 1,1 h 7 V -90 c 0,-6.617 5.383,-12 12,-12 H -31.32 c 7.539,0 13.673,6.134 13.673,13.673 V 22 h 7 c 0.552,0 1,-0.448 1,-1 V -8.917 -75.084 Z m -212,23.643 V -84 h 6.353 c 2.109,0 4.057,0.677 5.647,1.81 v -25.587 c -6.802,1.136 -12,7.145 -12,14.42 m 12,29.357 v -10.523 c 0,-3.025 -2.529,-5.477 -5.647,-5.477 h -6.353 v 8 h 10 v 4 h -10 v 4 z m -12,12 v 4 h 10 v 4 h -10 v 4 h 10 v 4 h -10 v 4 h 10 v 4 h -10 v 4 h 10 v 4 h -10 v 4 h 10 v 4 h -10 v 8 h 6.353 c 3.118,0 5.647,-2.189 5.647,-4.891 V -52 Z m 0,57.357 c 0,7.275 5.198,13.283 12,14.42 V -1.698 c -1.59,1.063 -3.538,1.698 -5.647,1.698 h -6.353 z M -21.647,22 V -88.327 c 0,-5.343 -4.331,-9.673 -9.673,-9.673 h -154.327 c -4.419,0 -8,3.582 -8,8 V 22 Z m 28,-34 h -10 v -4 h 10 v -4 h -10 v -4 h 10 v -4 h -10 v -4 h 10 v -4 h -10 v -4 h 10 v -4 h -10 v -4 h 10 v -4 h -10 v -4 h 10 v -4 h -10 v -4 h 10 v -4 h -10 v -4 h 10 v -8 H 0 c -3.119,0 -5.647,2.201 -5.647,4.916 V -8.917 C -5.647,-6.201 -3.119,-4 0,-4 H 6.353 Z M -6.6,23.911 C -7.509,25.171 -8.979,26 -10.647,26 h -7 -4 -172 -4 -7 c -1.669,0 -3.14,-0.829 -4.048,-2.089 -9.462,-0.72 -16.952,-8.747 -16.952,-18.554 V 0 -4 -54 -56 h 4 12 v -4 h -12 -4 v -4 -16 -4 -9.357 c 0,-9.477 6.991,-17.306 16,-18.472 V -117 c 0,-2.757 2.243,-5 5,-5 h 194 c 2.756,0 5,2.243 5,5 v 5.171 c 9.008,1.166 16,8.995 16,18.472 v 9.357 4 76 4 5.357 c 0,9.807 -7.491,17.834 -16.953,18.554" /></g></g></g></g></svg>