<?xml version="1.0" encoding="UTF-8" standalone="no"?>
<svg
   xmlns:dc="http://purl.org/dc/elements/1.1/"
   xmlns:cc="http://creativecommons.org/ns#"
   xmlns:rdf="http://www.w3.org/1999/02/22-rdf-syntax-ns#"
   xmlns:svg="http://www.w3.org/2000/svg"
   xmlns="http://www.w3.org/2000/svg"
   viewBox="0 0 320 213.33333"
   height="213.33333"
   width="320"
   xml:space="preserve"
   id="svg2"
   version="1.1"><metadata
     id="metadata8"><rdf:RDF><cc:Work
         rdf:about=""><dc:format>image/svg+xml</dc:format><dc:type
           rdf:resource="http://purl.org/dc/dcmitype/StillImage" /></cc:Work></rdf:RDF></metadata><defs
     id="defs6"><clipPath
       id="clipPath18"
       clipPathUnits="userSpaceOnUse"><path
         id="path16"
         d="M 0,256 H 256 V 0 H 0 Z" /></clipPath></defs><g
     transform="matrix(1.3333333,0,0,-1.3333333,-10.666666,277.33333)"
     id="g10"><g
       id="g12"><g
         clip-path="url(#clipPath18)"
         id="g14"><g
           transform="translate(244,60)"
           id="g20"><path
             id="path22"
             style="fill:#ffffff;fill-opacity:1;fill-rule:nonzero;stroke:none"
             d="m 0,0 c 0,-4.418 -3.582,-8 -8,-8 h -216 c -4.418,0 -8,3.582 -8,8 v 120 h 52 c 2.206,0 4,-1.794 4,-4 V 66 44 c 0,-6.617 5.383,-12 12,-12 h 120 c 6.617,0 12,5.383 12,12 v 72 c 0,2.206 1.794,4 4,4 H 0 Z m -232,128 c 0,8.836 7.164,16 16,16 h 20 v -16 h 4 v 16 h 4 v -16 h 4 v 16 h 4 v -16 h 4 v 16 h 4 v -16 h 4 v 16 h 4 v -16 h 4 v 16 h 88 v -16 h 4 v 16 h 4 v -16 h 4 v 16 h 4 v -16 h 4 v 16 h 4 v -16 h 4 v 16 h 4 v -16 h 4 v 16 h 20 c 8.837,0 16,-7.164 16,-16 v -4 h -28 c -4.418,0 -8,-3.582 -8,-8 V 44 c 0,-4.418 -3.582,-8 -8,-8 h -120 c -4.418,0 -8,3.582 -8,8 v 72 c 0,4.418 -3.582,8 -8,8 h -52 z m 216,20 h -20 -136 -44 c -11.028,0 -20,-8.972 -20,-20 V 124 120 0 c 0,-6.617 5.383,-12 12,-12 H -8 c 6.617,0 12,5.383 12,12 v 120 4 4 c 0,11.028 -8.972,20 -20,20" /></g><g
           transform="translate(80,168)"
           id="g24"><path
             id="path26"
             style="fill:#ffffff;fill-opacity:1;fill-rule:nonzero;stroke:none"
             d="m 0,0 h 1.487 c 0.754,-3.964 1.396,-10.166 1.842,-15.272 0.506,-5.811 0.506,-11.645 0,-17.455 C 2.883,-37.834 2.241,-44.036 1.487,-48 H 0 Z m 114.435,0 c -0.109,-0.648 -0.208,-1.306 -0.306,-1.961 -0.492,-3.279 -0.978,-7.64 -1.442,-12.964 -0.526,-6.022 -0.526,-12.128 0,-18.15 0.464,-5.324 0.95,-9.686 1.442,-12.964 0.098,-0.655 0.197,-1.313 0.306,-1.961 H 5.566 c 0.108,0.648 0.207,1.306 0.306,1.961 0.491,3.278 0.977,7.64 1.441,12.964 0.526,6.022 0.526,12.128 0,18.15 C 6.849,-9.601 6.363,-5.24 5.872,-1.961 5.773,-1.306 5.674,-0.648 5.566,0 Z M 120,0 v -48 h -1.486 c -0.755,3.964 -1.397,10.166 -1.842,15.273 -0.508,5.81 -0.508,11.644 0,17.455 0.445,5.106 1.087,11.308 1.842,15.272 z M 0,-52 h 120 c 2.209,0 4,1.791 4,4 V 0 c 0,2.209 -1.791,4 -4,4 H 0 C -2.209,4 -4,2.209 -4,0 v -48 c 0,-2.209 1.791,-4 4,-4" /></g><g
           transform="translate(42,104)"
           id="g28"><path
             id="path30"
             style="fill:#ffffff;fill-opacity:1;fill-rule:nonzero;stroke:none"
             d="m 0,0 c -12.131,0 -22,9.869 -22,22 0,12.131 9.869,22 22,22 C 12.131,44 22,34.131 22,22 22,9.869 12.131,0 0,0 M 0,48 C -14.359,48 -26,36.359 -26,22 -26,7.641 -14.359,-4 0,-4 14.359,-4 26,7.641 26,22 26,36.359 14.359,48 0,48" /></g><g
           transform="translate(42,116)"
           id="g32"><path
             id="path34"
             style="fill:#ffffff;fill-opacity:1;fill-rule:nonzero;stroke:none"
             d="m 0,0 c -5.514,0 -10,4.486 -10,10 0,5.514 4.486,10 10,10 C 5.514,20 10,15.514 10,10 10,4.486 5.514,0 0,0 M 0,24 C -7.732,24 -14,17.732 -14,10 -14,2.268 -7.732,-4 0,-4 7.732,-4 14,2.268 14,10 14,17.732 7.732,24 0,24" /></g><g
           transform="translate(56,72)"
           id="g36"><path
             id="path38"
             style="fill:#ffffff;fill-opacity:1;fill-rule:nonzero;stroke:none"
             d="M 0,0 H -1.083 -4 V 8 H -1.083 0 C 2.2,8 4,6.2 4,4 4,1.8 2.2,0 0,0 m -16,0 c -2.2,0 -4,1.8 -4,4 0,2.2 1.8,4 4,4 h 8 V 0 Z m -12,4 c 0,2.2 1.8,4 4,4 h 1.083 C -23.602,6.821 -24,5.458 -24,4 c 0,-1.458 0.398,-2.821 1.083,-4 H -24 c -2.2,0 -4,1.8 -4,4 m 28,8 h -8 -8 -8 c -4.411,0 -8,-3.589 -8,-8 0,-4.411 3.589,-8 8,-8 h 8 8 8 c 4.411,0 8,3.589 8,8 0,4.411 -3.589,8 -8,8" /></g><g
           transform="translate(94,124)"
           id="g40"><path
             id="path42"
             style="fill:#ffffff;fill-opacity:1;fill-rule:nonzero;stroke:none"
             d="m 0,0 h 92 c 1.104,0 2,0.896 2,2 0,1.104 -0.896,2 -2,2 H 0 C -1.104,4 -2,3.104 -2,2 -2,0.896 -1.104,0 0,0" /></g></g></g></g></svg>