<?xml version="1.0" encoding="UTF-8" standalone="no"?>
<svg
   xmlns:dc="http://purl.org/dc/elements/1.1/"
   xmlns:cc="http://creativecommons.org/ns#"
   xmlns:rdf="http://www.w3.org/1999/02/22-rdf-syntax-ns#"
   xmlns:svg="http://www.w3.org/2000/svg"
   xmlns="http://www.w3.org/2000/svg"
   viewBox="0 0 320 320"
   height="320"
   width="320"
   xml:space="preserve"
   version="1.1"
   id="svg2"><metadata
     id="metadata8"><rdf:RDF><cc:Work
         rdf:about=""><dc:format>image/svg+xml</dc:format><dc:type
           rdf:resource="http://purl.org/dc/dcmitype/StillImage" /></cc:Work></rdf:RDF></metadata><defs
     id="defs6"><clipPath
       id="clipPath16"
       clipPathUnits="userSpaceOnUse"><path
         id="path18"
         d="M 0,256 256,256 256,0 0,0 0,256 Z" /></clipPath></defs><g
     transform="matrix(1.25,0,0,-1.25,0,320)"
     id="g10"><g
       id="g12"><g
         clip-path="url(#clipPath16)"
         id="g14"><g
           transform="translate(212,83.9824)"
           id="g20"><path
             id="path22"
             style="fill:#f2f2f2;fill-opacity:1;fill-rule:nonzero;stroke:none"
             d="M 0,0 C 0,-0.622 -0.29,-1.209 -0.789,-1.582 -2.736,-3.041 -4,-5.362 -4,-7.982 c 0,-2.621 1.264,-4.942 3.211,-6.4 C -0.29,-14.756 0,-15.343 0,-15.965 l 0,-34.017 c 0,-1.105 -0.896,-2 -2,-2 l -164,0 c -1.104,0 -2,0.895 -2,2 l 0,192 c 0,1.104 0.896,2 2,2 l 42,0 80,0 42,0 c 1.104,0 2,-0.896 2,-2 L 0,0 Z m 0,-69.982 c 0,-1.105 -0.896,-2 -2,-2 l -164,0 c -1.104,0 -2,0.895 -2,2 l 0,12 c 0,1.104 0.896,2 2,2 l 164,0 c 1.104,0 2,-0.896 2,-2 l 0,-12 z m -112,226 56,0 c 4.411,0 8,-3.589 8,-8 l -72,0 c 0,4.411 3.589,8 8,8 M 1.608,-4.785 C 3.105,-3.664 4,-1.875 4,0 l 0,142.018 c 0,3.308 -2.691,6 -6,6 l -42,0 c 0,6.627 -5.373,12 -12,12 l -56,0 c -6.627,0 -12,-5.373 -12,-12 l -42,0 c -3.309,0 -6,-2.692 -6,-6 l 0,-192 c 0,-1.538 0.586,-2.938 1.541,-4 -0.955,-1.063 -1.541,-2.463 -1.541,-4 l 0,-12 c 0,-3.309 2.691,-6 6,-6 l 164,0 c 3.309,0 6,2.691 6,6 l 0,12 c 0,1.537 -0.586,2.937 -1.541,4 0.955,1.062 1.541,2.462 1.541,4 l 0,34.017 C 4,-14.09 3.105,-12.301 1.608,-11.18 0.586,-10.415 0,-9.25 0,-7.982 c 0,1.267 0.586,2.432 1.608,3.197" /></g></g></g></g></svg>