<?xml version="1.0" encoding="UTF-8" standalone="no"?>
<svg
   xmlns:dc="http://purl.org/dc/elements/1.1/"
   xmlns:cc="http://creativecommons.org/ns#"
   xmlns:rdf="http://www.w3.org/1999/02/22-rdf-syntax-ns#"
   xmlns:svg="http://www.w3.org/2000/svg"
   xmlns="http://www.w3.org/2000/svg"
   viewBox="0 0 320 320"
   height="320"
   width="320"
   xml:space="preserve"
   version="1.1"
   id="svg2"><metadata
     id="metadata8"><rdf:RDF><cc:Work
         rdf:about=""><dc:format>image/svg+xml</dc:format><dc:type
           rdf:resource="http://purl.org/dc/dcmitype/StillImage" /></cc:Work></rdf:RDF></metadata><defs
     id="defs6"><clipPath
       id="clipPath16"
       clipPathUnits="userSpaceOnUse"><path
         id="path18"
         d="M 0,256 256,256 256,0 0,0 0,256 Z" /></clipPath></defs><g
     transform="matrix(1.25,0,0,-1.25,0,320)"
     id="g10"><g
       id="g12"><g
         clip-path="url(#clipPath16)"
         id="g14"><g
           transform="translate(244,144)"
           id="g20"><path
             id="path22"
             style="fill:#f2f2f2;fill-opacity:1;fill-rule:nonzero;stroke:none"
             d="m 0,0 -56,0 -176,0 0,4 168,0 0,4 -168,0 0,18 c 0,1.104 0.896,2 2,2 l 2,0 0,-4 4,0 0,4 4,0 0,-4 4,0 0,4 4,0 0,-4 4,0 0,4 4,0 0,-4 4,0 0,4 4,0 0,-4 4,0 0,4 4,0 0,-4 4,0 0,4 4,0 0,-4 4,0 0,4 4,0 0,-4 4,0 0,4 4,0 0,-4 4,0 0,4 4,0 0,-4 4,0 0,4 4,0 0,-4 4,0 0,4 4,0 0,-4 4,0 0,4 4,0 0,-4 4,0 0,4 4,0 0,-4 4,0 0,4 4,0 0,-4 4,0 0,4 4,0 0,-4 4,0 0,4 4,0 0,-4 4,0 0,4 4,0 0,-4 4,0 0,4 4,0 0,-4 4,0 0,4 4,0 0,-4 4,0 0,4 4,0 0,-4 4,0 0,4 4,0 0,-4 4,0 0,4 4,0 0,-4 4,0 0,4 4,0 0,-4 4,0 0,4 4,0 0,-4 4,0 0,4 4,0 0,-4 4,0 0,4 4,0 0,-4 4,0 0,4 4,0 0,-4 4,0 0,4 4,0 0,-4 4,0 0,-24 z m 0,-8 -4,0 0,-4 4,0 0,-4 -4,0 0,-4 4,0 0,-4 -4,0 0,-4 4,0 0,-4 -4,0 0,-4 4,0 0,-4 -4,0 0,-4 4,0 0,-4 -4,0 0,-4 4,0 0,-6 c 0,-1.104 -0.896,-2 -2,-2 l -54,0 0,8 4,0 0,4 -4,0 0,4 4,0 0,4 -4,0 0,4 4,0 0,4 -4,0 0,4 4,0 0,4 -4,0 0,4 4,0 0,4 -4,0 0,4 4,0 0,4 -4,0 0,4 56,0 0,-4 z m -68,-52 0,4 0,8.075 0,4 0,20 0,4 0,7.925 0,4 -4,0 -12,0 -4,0 -8,0 -4,0 -8,0 -4,0 -8,0 -4,0 -8,0 -4,0 -8,0 -4,0 -8,0 -4,0 -8,0 -4,0 -8,0 -4,0 -8,0 -4,0 -8,0 -4,0 0,-4 0,-8 0,-4 0,-8 0,-4 0,-7.925 0,-0.075 0,-3.925 0,-0.075 0,-8.075 0,-3.925 -22,0 c -1.104,0 -2,0.896 -2,2 l 0,6 20,0 0,4 -20,0 0,4 20,0 0,4 -20,0 0,4 20,0 0,4 -20,0 0,4 20,0 0,4 -20,0 0,4 20,0 0,4 -20,0 0,4 20,0 0,4 -20,0 0,4 172,0 0,-4 -4,0 0,-4 4,0 0,-4 -4,0 0,-4 4,0 0,-4 -4,0 0,-4 4,0 0,-4 -4,0 0,-4 4,0 0,-4 -4,0 0,-4 4,0 0,-4 -4,0 0,-4 4,0 0,-8 -8,0 z m -136,12 8,0 0,-8 0,-0.075 -8,0 0,8.075 z m 20,28 -8,0 0,8 8,0 0,-8 z m 4,-12 -8,0 0,8 8,0 0,-8 z m -12,-16 0,0.075 8,0 0,-8.075 -8,0 0,8 z m -12,12.149 16,0 0,-8.074 -16,0 0,8.074 z m 28,-8.074 -8,0 0,8 8,0 0,-8 z m 4,23.925 -8,0 0,8 8,0 0,-8 z m 0,-35.925 -8,0 0,8.074 8,0 0,-8.074 z m 4,23.925 -8,0 0,8 8,0 0,-8 z m 4,-11.925 -8,0 0,8 8,0 0,-8 z m 4,23.925 -8,0 0,8 8,0 0,-8 z m 4,-12 -8,0 0,8 8,0 0,-8 z m -4,-23.851 -8,0 0,8.075 8,0 0,-8.075 z m 8,11.926 -8,0 0,8 8,0 0,-8 z m 4,23.925 -8,0 0,8 8,0 0,-8 z m 4,-12 -8,0 0,8 8,0 0,-8 z m 4,-11.925 -8,0 0,8 8,0 0,-8 z m 4,23.925 -8,0 0,8 8,0 0,-8 z m 4,-12 -8,0 0,8 8,0 0,-8 z m 4,-11.925 -8,0 0,8 8,0 0,-8 z m 4,23.925 -8,0 0,8 8,0 0,-8 z m 4,-12 -8,0 0,8 8,0 0,-8 z m 4,-11.925 -8,0 0,8 8,0 0,-8 z m 4,23.925 -8,0 0,8 8,0 0,-8 z m 4,-12 -8,0 0,8 8,0 0,-8 z m 0,-24.075 -8,0 0,8.075 8,0 0,-8.075 z m -48,8.15 36,0 0,-8.075 -36,0 0,8.075 z m 52,4 -8,0 0,8 8,0 0,-8 z m 4,23.925 -8,0 0,8 8,0 0,-8 z m 4,-12 -8,0 0,8 8,0 0,-8 z m 0,-24 -8,0 0,8.075 8,0 0,-8.075 z m 4,12.075 -8,0 0,8 8,0 0,-8 z m 4,23.925 -8,0 0,8 8,0 0,-8 z m 4,-11.925 -8,0 0,8 8,0 0,-8 z m 0,-24.075 -8,0 0,8.075 8,0 0,-8.075 z m 4,20.075 0,12 8,0 0,-20 -8,0 -8,0 0,8 8,0 z m 8,15.925 -12,0 0,8 12,0 0,-8 z m 0,-36 -8,0 0,8.075 8,0 0,-8.075 z m -132,44 8,0 0,-8 -8,0 0,8 z m 8,-12 4,0 0,-8 -12,0 0,8 8,0 z m 196,52 0,4 -4,0 -4,0 -4,0 -4,0 -4,0 -4,0 -4,0 -4,0 -4,0 -4,0 -4,0 -4,0 -4,0 -4,0 -4,0 -4,0 -4,0 -4,0 -4,0 -4,0 -4,0 -4,0 -4,0 -4,0 -4,0 -4,0 -4,0 -4,0 -4,0 -4,0 -4,0 -4,0 -4,0 -4,0 -4,0 -4,0 -4,0 -4,0 -4,0 -4,0 -4,0 -4,0 -4,0 -4,0 -4,0 -4,0 -4,0 -4,0 -4,0 -4,0 -4,0 -4,0 -4,0 -4,0 -4,0 -4,0 -4,0 -2,0 c -3.309,0 -6,-2.691 -6,-6 l 0,-84 c 0,-3.309 2.691,-6 6,-6 l 228,0 c 3.309,0 6,2.691 6,6 l 0,82 0,4 -4,0 z" /></g><path
           id="path24"
           style="fill:#f2f2f2;fill-opacity:1;fill-rule:nonzero;stroke:none"
           d="m 192,148 48,0 0,4 -48,0 0,-4 z" /><path
           id="path26"
           style="fill:#f2f2f2;fill-opacity:1;fill-rule:nonzero;stroke:none"
           d="m 184,148 4,0 0,4 -4,0 0,-4 z" /><path
           id="path28"
           style="fill:#f2f2f2;fill-opacity:1;fill-rule:nonzero;stroke:none"
           d="m 192,104 48,0 0,4 -48,0 0,-4 z" /><path
           id="path30"
           style="fill:#f2f2f2;fill-opacity:1;fill-rule:nonzero;stroke:none"
           d="m 192,96 48,0 0,4 -48,0 0,-4 z" /></g></g></g></svg>