<?xml version="1.0" encoding="UTF-8" standalone="no"?>
<svg
   xmlns:dc="http://purl.org/dc/elements/1.1/"
   xmlns:cc="http://creativecommons.org/ns#"
   xmlns:rdf="http://www.w3.org/1999/02/22-rdf-syntax-ns#"
   xmlns:svg="http://www.w3.org/2000/svg"
   xmlns="http://www.w3.org/2000/svg"
   viewBox="0 0 320 320"
   height="320"
   width="320"
   xml:space="preserve"
   version="1.1"
   id="svg2"><metadata
     id="metadata8"><rdf:RDF><cc:Work
         rdf:about=""><dc:format>image/svg+xml</dc:format><dc:type
           rdf:resource="http://purl.org/dc/dcmitype/StillImage" /></cc:Work></rdf:RDF></metadata><defs
     id="defs6"><clipPath
       id="clipPath16"
       clipPathUnits="userSpaceOnUse"><path
         id="path18"
         d="M 0,256 256,256 256,0 0,0 0,256 Z" /></clipPath></defs><g
     transform="matrix(1.25,0,0,-1.25,0,320)"
     id="g10"><g
       id="g12"><g
         clip-path="url(#clipPath16)"
         id="g14"><g
           transform="translate(244,88)"
           id="g20"><path
             id="path22"
             style="fill:#f2f2f2;fill-opacity:1;fill-rule:nonzero;stroke:none"
             d="m 0,0 -4,0 -24,0 0,-4 24,0 4,0 0,-4 -4,0 -24,0 0,-4 24,0 4,0 0,-4 -4,0 -24,0 0,-4 24,0 4,0 0,-4 -4,0 -24,0 0,-4 24,0 4,0 0,-4 -4,0 -24,0 0,-4 24,0 4,0 0,-4 -4,0 -24,0 0,-4 24,0 4,0 0,-4 -232,0 0,4 4,0 24,0 0,4 -24,0 -4,0 0,4 4,0 24,0 0,4 -24,0 -4,0 0,4 4,0 24,0 0,4 -24,0 -4,0 0,3.866 0,0.134 4,0 24,0 0,4 -24,0 -4,0 0,4 4,0 24,0 0,4 -24,0 -4,0 0,4 4,0 24,0 0,4 -24,0 -4,0 0,124 40,0 16,4 0,-72 c 0,-4.411 3.589,-8 8,-8 l 104,0 c 4.411,0 8,3.589 8,8 l 0,72 16,-4 40,0 L 0,0 Z m -60,128 0,-72 c 0,-2.209 -1.791,-4 -4,-4 l -104,0 c -2.209,0 -4,1.791 -4,4 l 0,72 112,0 z m 60,0 -39.508,0 -15.522,3.881 -0.478,0.119 -0.492,0 -4,0 -112,0 -4,0 -0.492,0 -0.478,-0.119 -15.522,-3.881 -39.508,0 -4,0 0,-4 0,-124 0,-4 0,-4 0,-4 0,-4 0,-4 0,-0.134 0,-3.866 0,-4 0,-4 0,-4 0,-4 0,-4 0,-4 0,-4 4,0 232,0 4,0 0,4 0,4 0,4 0,4 0,4 0,4 0,4 0,4 0,4 0,4 0,4 0,4 0,4 0,124 0,4 -4,0 z" /></g><path
           id="path24"
           style="fill:#f2f2f2;fill-opacity:1;fill-rule:nonzero;stroke:none"
           d="m 132,44 76,0 0,4 -76,0 0,-4 z" /><path
           id="path26"
           style="fill:#f2f2f2;fill-opacity:1;fill-rule:nonzero;stroke:none"
           d="m 132,52 76,0 0,4 -76,0 0,-4 z" /><path
           id="path28"
           style="fill:#f2f2f2;fill-opacity:1;fill-rule:nonzero;stroke:none"
           d="m 132,60 76,0 0,4 -76,0 0,-4 z" /><path
           id="path30"
           style="fill:#f2f2f2;fill-opacity:1;fill-rule:nonzero;stroke:none"
           d="m 132,68 76,0 0,4 -76,0 0,-4 z" /><path
           id="path32"
           style="fill:#f2f2f2;fill-opacity:1;fill-rule:nonzero;stroke:none"
           d="m 132,76 76,0 0,4 -76,0 0,-4 z" /><path
           id="path34"
           style="fill:#f2f2f2;fill-opacity:1;fill-rule:nonzero;stroke:none"
           d="m 132,84 76,0 0,4 -76,0 0,-4 z" /><path
           id="path36"
           style="fill:#f2f2f2;fill-opacity:1;fill-rule:nonzero;stroke:none"
           d="m 48,44 76,0 0,4 -76,0 0,-4 z" /><path
           id="path38"
           style="fill:#f2f2f2;fill-opacity:1;fill-rule:nonzero;stroke:none"
           d="m 48,52 76,0 0,4 -76,0 0,-4 z" /><path
           id="path40"
           style="fill:#f2f2f2;fill-opacity:1;fill-rule:nonzero;stroke:none"
           d="m 48,60 76,0 0,4 -76,0 0,-4 z" /><path
           id="path42"
           style="fill:#f2f2f2;fill-opacity:1;fill-rule:nonzero;stroke:none"
           d="m 48,68 76,0 0,4 -76,0 0,-4 z" /><path
           id="path44"
           style="fill:#f2f2f2;fill-opacity:1;fill-rule:nonzero;stroke:none"
           d="m 48,76 76,0 0,4 -76,0 0,-4 z" /><path
           id="path46"
           style="fill:#f2f2f2;fill-opacity:1;fill-rule:nonzero;stroke:none"
           d="m 48,84 76,0 0,4 -76,0 0,-4 z" /></g></g></g></svg>