<?xml version="1.0" encoding="UTF-8" standalone="no"?>
<svg
   xmlns:dc="http://purl.org/dc/elements/1.1/"
   xmlns:cc="http://creativecommons.org/ns#"
   xmlns:rdf="http://www.w3.org/1999/02/22-rdf-syntax-ns#"
   xmlns:svg="http://www.w3.org/2000/svg"
   xmlns="http://www.w3.org/2000/svg"
   viewBox="0 0 324.13199 309.33331"
   height="309.33331"
   width="324.13199"
   xml:space="preserve"
   id="svg2"
   version="1.1"><metadata
     id="metadata8"><rdf:RDF><cc:Work
         rdf:about=""><dc:format>image/svg+xml</dc:format><dc:type
           rdf:resource="http://purl.org/dc/dcmitype/StillImage" /></cc:Work></rdf:RDF></metadata><defs
     id="defs6" /><g
     transform="matrix(1.3333333,0,0,-1.3333333,-8.6003998,325.33333)"
     id="g10"><g
       transform="translate(36.2163,16)"
       id="g12"><path
         id="path14"
         style="fill:#ffffff;fill-opacity:1;fill-rule:nonzero;stroke:none"
         d="M 0,0 H -0.216 L 3.636,12 H 4 203.784 203.932 L 207.784,0 Z M -1.466,8.25 -2.782,4.304 -4.216,0 h -4 -4.217 -11.783 l 4,12 h 8 8 4 z M -20.216,136 h 8 V 16 h -8 z m 0,84 10,2 -2,-0.4 V 140 h -8 z m 12,-84 h 7.31 0.69 V 16 h -4 -2.883 -1.117 z m 0,86.4 8,1.6 v -84 h -0.69 -7.31 z m 12,-86.4 h 200 V 16 H 5.333 3.784 Z m 0,88 h 200 v -84 h -200 z M 211.579,1.265 207.784,12.649 V 136 v 4 84 4 h -4 -204.397 -0.293 -0.41 l -0.401,-0.083 -19.294,-3.997 -3.205,-0.641 V 223.256 220 140 136 12.649 L -28.011,1.265 -29.766,-4 h 5.55 10.45 5.55 4 2.883 209.117 5.549 z" /></g></g></svg>