<?xml version="1.0" encoding="UTF-8" standalone="no"?>
<svg
   xmlns:dc="http://purl.org/dc/elements/1.1/"
   xmlns:cc="http://creativecommons.org/ns#"
   xmlns:rdf="http://www.w3.org/1999/02/22-rdf-syntax-ns#"
   xmlns:svg="http://www.w3.org/2000/svg"
   xmlns="http://www.w3.org/2000/svg"
   viewBox="0 0 325.33349 309.33331"
   height="309.33331"
   width="325.3335"
   xml:space="preserve"
   id="svg2"
   version="1.1"><metadata
     id="metadata8"><rdf:RDF><cc:Work
         rdf:about=""><dc:format>image/svg+xml</dc:format><dc:type
           rdf:resource="http://purl.org/dc/dcmitype/StillImage" /></cc:Work></rdf:RDF></metadata><defs
     id="defs6"><clipPath
       id="clipPath18"
       clipPathUnits="userSpaceOnUse"><path
         id="path16"
         d="M 0,256 H 256 V 0 H 0 Z" /></clipPath></defs><g
     transform="matrix(1.3333333,0,0,-1.3333333,-5.3333332,325.33359)"
     id="g10"><g
       id="g12"><g
         clip-path="url(#clipPath18)"
         id="g14"><g
           transform="translate(244,28.0752)"
           id="g20"><path
             id="path22"
             style="fill:#ffffff;fill-opacity:1;fill-rule:nonzero;stroke:none"
             d="M 0,0 C 0,-2.251 -1.791,-4.075 -4,-4.075 H -39.801 L -40,-4.056 v -0.019 h -40 l 80,-8 h -232 l 80,8 h -40.199 -3.801 -12 c -2.209,0 -4,1.824 -4,4.075 v 207.85 c 0,2.25 1.791,4.075 4,4.075 H -4 c 2.209,0 4,-1.825 4,-4.075 z m -220,-2.742 v 213.333 l 4.824,0.805 C -215.699,210.323 -216,209.123 -216,207.85 V 0 c 0,-1.272 0.301,-2.474 0.824,-3.546 z m -4,0.667 -4,0.667 v 210.666 l 4,0.667 z m -8,1.333 -0.658,0.11 c -1.928,0.321 -3.342,1.99 -3.342,3.945 v 201.223 c 0,1.956 1.414,3.624 3.342,3.946 l 0.658,0.109 z M 4,0 v 207.85 c 0,4.452 -3.589,8.075 -8,8.075 h -204 l -25.315,-3.497 c -3.873,-0.646 -6.685,-3.965 -6.685,-7.892 V 3.313 c 0,-3.926 2.812,-7.246 6.685,-7.891 l 15.154,-2.093 -14.237,-1.424 c -2.121,-0.213 -3.703,-2.051 -3.597,-4.179 0.106,-2.129 1.863,-3.801 3.995,-3.801 H 0 c 2.132,0 3.889,1.672 3.995,3.801 0.107,2.128 -1.475,3.966 -3.597,4.179 l -2.525,0.252 C 1.382,-6.988 4,-3.801 4,0" /></g></g></g></g></svg>