<?xml version="1.0" encoding="UTF-8" standalone="no"?>
<svg
   xmlns:dc="http://purl.org/dc/elements/1.1/"
   xmlns:cc="http://creativecommons.org/ns#"
   xmlns:rdf="http://www.w3.org/1999/02/22-rdf-syntax-ns#"
   xmlns:svg="http://www.w3.org/2000/svg"
   xmlns="http://www.w3.org/2000/svg"
   viewBox="0 0 256 320"
   height="320"
   width="256"
   xml:space="preserve"
   id="svg2"
   version="1.1"><metadata
     id="metadata8"><rdf:RDF><cc:Work
         rdf:about=""><dc:format>image/svg+xml</dc:format><dc:type
           rdf:resource="http://purl.org/dc/dcmitype/StillImage" /></cc:Work></rdf:RDF></metadata><defs
     id="defs6"><clipPath
       id="clipPath18"
       clipPathUnits="userSpaceOnUse"><path
         id="path16"
         d="M 0,256 H 256 V 0 H 0 Z" /></clipPath></defs><g
     transform="matrix(1.3333333,0,0,-1.3333333,-42.666666,330.66666)"
     id="g10"><g
       id="g12"><g
         clip-path="url(#clipPath18)"
         id="g14"><g
           transform="translate(220,68)"
           id="g20"><path
             id="path22"
             style="fill:#ffffff;fill-opacity:1;fill-rule:nonzero;stroke:none"
             d="m 0,0 h -4 v -4 h 4 v -8 h -4 v -4 h 4 v -8 h -4 v -4 h 4 v -24 c 0,-2.209 -1.791,-4 -4,-4 h -4 v 20 4 h -4 -12 -8 -4 -4 -4 -4 -4 -4 -4 -4 -4 -4 -4 -4 -4 -4 -4 -8 -4 -4 -4 -4 -4 -4 -4 -4 -4 -4 -4 -4 -4 -8 -12 -4 v -4 -20 h -4 c -2.209,0 -4,1.791 -4,4 v 24 h 4 v 4 h -4 v 8 h 4 v 4 h -4 v 8 h 4 v 4 h -4 v 156 c 0,11.046 8.954,20 20,20 h 144 c 11.046,0 20,-8.954 20,-20 z m -152,-48 h -4 v 12 h 4 z m 8,0 h -4 v 12 h 4 z m 8,0 h -4 v 12 h 4 z m 8,0 h -4 v 12 h 4 z m 8,0 h -4 v 12 h 4 z m 8,0 h -4 v 12 h 4 z m 8,0 h -4 v 12 h 4 z m 12,0 h -8 v 12 h 8 z m 8,0 h -4 v 12 h 4 z m 8,0 h -4 v 12 h 4 z m 8,0 h -4 v 12 h 4 z m 8,0 h -4 v 12 h 4 z m 8,0 h -4 v 12 h 4 z m 8,0 h -4 v 12 h 4 z m 8,0 h -4 v 12 h 4 z m 4,12 h 4 v -12 h -4 z m -140,-20 v 20 h 12 v -12 c 0,-2.209 1.791,-4 4,-4 h 128 c 2.209,0 4,1.791 4,4 v 12 h 12 v -20 z m 152,236 h -144 c -13.233,0 -24,-10.767 -24,-24 V 0 v -4 -8 -4 -8 -4 -24 c 0,-4.411 3.589,-8 8,-8 h 4 4 160 4 4 c 4.411,0 8,3.589 8,8 v 24 4 8 4 8 4 156 c 0,13.233 -10.767,24 -24,24" /></g><g
           transform="translate(208,176)"
           id="g24"><path
             id="path26"
             style="fill:#ffffff;fill-opacity:1;fill-rule:nonzero;stroke:none"
             d="m 0,0 v -88 c 0,-2.209 -1.791,-4 -4,-4 h -152 c -2.209,0 -4,1.791 -4,4 V 0 20 c 0,2.209 1.791,4 4,4 h 28 c 2.209,0 4,-1.791 4,-4 V 4 c 0,-2.209 1.791,-4 4,-4 h 80 c 2.209,0 4,1.791 4,4 v 16 c 0,2.209 1.791,4 4,4 h 28 c 2.209,0 4,-1.791 4,-4 z m -4,28 h -28 c -4.411,0 -8,-3.589 -8,-8 V 4 h -80 v 16 c 0,4.411 -3.589,8 -8,8 h -28 c -4.411,0 -8,-3.589 -8,-8 V 0 -88 c 0,-4.411 3.589,-8 8,-8 H -4 c 4.411,0 8,3.589 8,8 V 0 20 c 0,4.411 -3.589,8 -8,8" /></g><g
           transform="translate(160,224)"
           id="g28"><path
             id="path30"
             style="fill:#ffffff;fill-opacity:1;fill-rule:nonzero;stroke:none"
             d="M 0,0 V -4 H -64 V 0 4 H 0 Z m 0,-12 h -64 v 4 H 0 Z m 0,-8 h -64 v 4 H 0 Z m 0,-8 h -64 v 4 H 0 Z m 0,-8 h -64 v 4 H 0 Z m 4,8 V 0 8 H -68 V 0 -28 -40 H 4 Z" /></g><path
           id="path32"
           style="fill:#ffffff;fill-opacity:1;fill-rule:nonzero;stroke:none"
           d="m 44,64 h 168 v 4 H 44 Z" /><path
           id="path34"
           style="fill:#ffffff;fill-opacity:1;fill-rule:nonzero;stroke:none"
           d="m 44,52 h 168 v 4 H 44 Z" /><path
           id="path36"
           style="fill:#ffffff;fill-opacity:1;fill-rule:nonzero;stroke:none"
           d="m 44,40 h 168 v 4 H 44 Z" /></g></g></g></svg>