<?xml version="1.0" encoding="UTF-8" standalone="no"?>
<svg
   xmlns:dc="http://purl.org/dc/elements/1.1/"
   xmlns:cc="http://creativecommons.org/ns#"
   xmlns:rdf="http://www.w3.org/1999/02/22-rdf-syntax-ns#"
   xmlns:svg="http://www.w3.org/2000/svg"
   xmlns="http://www.w3.org/2000/svg"
   viewBox="0 0 320 320"
   height="320"
   width="320"
   xml:space="preserve"
   version="1.1"
   id="svg2"><metadata
     id="metadata8"><rdf:RDF><cc:Work
         rdf:about=""><dc:format>image/svg+xml</dc:format><dc:type
           rdf:resource="http://purl.org/dc/dcmitype/StillImage" /></cc:Work></rdf:RDF></metadata><defs
     id="defs6"><clipPath
       id="clipPath16"
       clipPathUnits="userSpaceOnUse"><path
         id="path18"
         d="M 0,256 256,256 256,0 0,0 0,256 Z" /></clipPath></defs><g
     transform="matrix(1.25,0,0,-1.25,0,320)"
     id="g10"><g
       id="g12"><g
         clip-path="url(#clipPath16)"
         id="g14"><g
           transform="translate(220,68)"
           id="g20"><path
             id="path22"
             style="fill:#f2f2f2;fill-opacity:1;fill-rule:nonzero;stroke:none"
             d="m 0,0 -4,0 0,-4 4,0 0,-8 -4,0 0,-4 4,0 0,-8 -4,0 0,-4 4,0 0,-24 c 0,-2.209 -1.791,-4 -4,-4 l -4,0 0,20 0,4 -4,0 -12,0 -8,0 -4,0 -4,0 -4,0 -4,0 -4,0 -4,0 -4,0 -4,0 -4,0 -4,0 -4,0 -4,0 -4,0 -4,0 -4,0 -8,0 -4,0 -4,0 -4,0 -4,0 -4,0 -4,0 -4,0 -4,0 -4,0 -4,0 -4,0 -4,0 -4,0 -8,0 -12,0 -4,0 0,-4 0,-20 -4,0 c -2.209,0 -4,1.791 -4,4 l 0,24 4,0 0,4 -4,0 0,8 4,0 0,4 -4,0 0,8 4,0 0,4 -4,0 0,156 c 0,11.046 8.954,20 20,20 l 144,0 c 11.046,0 20,-8.954 20,-20 L 0,0 Z m -152,-48 -4,0 0,12 4,0 0,-12 z m 8,0 -4,0 0,12 4,0 0,-12 z m 8,0 -4,0 0,12 4,0 0,-12 z m 8,0 -4,0 0,12 4,0 0,-12 z m 8,0 -4,0 0,12 4,0 0,-12 z m 8,0 -4,0 0,12 4,0 0,-12 z m 8,0 -4,0 0,12 4,0 0,-12 z m 12,0 -8,0 0,12 8,0 0,-12 z m 8,0 -4,0 0,12 4,0 0,-12 z m 8,0 -4,0 0,12 4,0 0,-12 z m 8,0 -4,0 0,12 4,0 0,-12 z m 8,0 -4,0 0,12 4,0 0,-12 z m 8,0 -4,0 0,12 4,0 0,-12 z m 8,0 -4,0 0,12 4,0 0,-12 z m 8,0 -4,0 0,12 4,0 0,-12 z m 4,12 4,0 0,-12 -4,0 0,12 z m -140,-20 0,20 12,0 0,-12 c 0,-2.209 1.791,-4 4,-4 l 128,0 c 2.209,0 4,1.791 4,4 l 0,12 12,0 0,-20 -160,0 z m 152,236 -144,0 c -13.233,0 -24,-10.767 -24,-24 l 0,-156 0,-4 0,-8 0,-4 0,-8 0,-4 0,-24 c 0,-4.411 3.589,-8 8,-8 l 4,0 4,0 160,0 4,0 4,0 c 4.411,0 8,3.589 8,8 l 0,24 0,4 0,8 0,4 0,8 0,4 0,156 c 0,13.233 -10.767,24 -24,24" /></g><g
           transform="translate(208,176)"
           id="g24"><path
             id="path26"
             style="fill:#f2f2f2;fill-opacity:1;fill-rule:nonzero;stroke:none"
             d="m 0,0 0,-88 c 0,-2.209 -1.791,-4 -4,-4 l -152,0 c -2.209,0 -4,1.791 -4,4 l 0,88 0,20 c 0,2.209 1.791,4 4,4 l 28,0 c 2.209,0 4,-1.791 4,-4 l 0,-16 c 0,-2.209 1.791,-4 4,-4 l 80,0 c 2.209,0 4,1.791 4,4 l 0,16 c 0,2.209 1.791,4 4,4 l 28,0 c 2.209,0 4,-1.791 4,-4 L 0,0 Z m -4,28 -28,0 c -4.411,0 -8,-3.589 -8,-8 l 0,-16 -80,0 0,16 c 0,4.411 -3.589,8 -8,8 l -28,0 c -4.411,0 -8,-3.589 -8,-8 l 0,-20 0,-88 c 0,-4.411 3.589,-8 8,-8 l 152,0 c 4.411,0 8,3.589 8,8 L 4,0 4,20 c 0,4.411 -3.589,8 -8,8" /></g><g
           transform="translate(160,224)"
           id="g28"><path
             id="path30"
             style="fill:#f2f2f2;fill-opacity:1;fill-rule:nonzero;stroke:none"
             d="m 0,0 0,-4 -64,0 0,4 0,4 64,0 0,-4 z m 0,-12 -64,0 0,4 64,0 0,-4 z m 0,-8 -64,0 0,4 64,0 0,-4 z m 0,-8 -64,0 0,4 64,0 0,-4 z m 0,-8 -64,0 0,4 64,0 0,-4 z m 4,8 0,28 0,8 -72,0 0,-8 0,-28 0,-12 72,0 0,12 z" /></g><path
           id="path32"
           style="fill:#f2f2f2;fill-opacity:1;fill-rule:nonzero;stroke:none"
           d="m 44,64 168,0 0,4 -168,0 0,-4 z" /><path
           id="path34"
           style="fill:#f2f2f2;fill-opacity:1;fill-rule:nonzero;stroke:none"
           d="m 44,52 168,0 0,4 -168,0 0,-4 z" /><path
           id="path36"
           style="fill:#f2f2f2;fill-opacity:1;fill-rule:nonzero;stroke:none"
           d="m 44,40 168,0 0,4 -168,0 0,-4 z" /></g></g></g></svg>