<?xml version="1.0" encoding="utf-8"?>
<!-- Generator: Adobe Illustrator 24.1.1, SVG Export Plug-In . SVG Version: 6.00 Build 0)  -->
<svg version="1.1" id="Layer_1" xmlns="http://www.w3.org/2000/svg" xmlns:xlink="http://www.w3.org/1999/xlink" x="0px" y="0px"
	 viewBox="0 0 256 256" style="enable-background:new 0 0 256 256;" xml:space="preserve">
<style type="text/css">
	.st0{fill:#FFFFFF;}
</style>
<path id="path12" class="st0" d="M244,244H12V12h232V244z M244,8H12H8v4v232v4h4h232h4v-4V12V8H244z"/>
<g>
	<path class="st0" d="M130.3,81.5c-0.5-0.7-1.3-1.2-2.1-1.3c-0.9-0.1-1.8,0.4-2.4,1.1c-19.9,26.9-26.8,67.9-28.4,79.8
		c-0.2,1.3,0.4,2.4,1.6,3c0.4,0.1,0.7,0.2,1.1,0.2c0.8,0,1.6-0.4,2.1-1c5-6.2,18.2-20.7,33.3-20.7c7,0,14.6,7.6,18.5,12l0,0
		c0.9,1,2.2,1.3,3.3,0.7c1.2-0.6,1.8-1.9,1.5-3.1C149.5,112.8,134.6,88.1,130.3,81.5z M135.5,139.7c-15.6,0-28.8,13.3-35.4,21.5
		c1.7-12,8.5-52,27.8-78.1c4.3,6.6,18.9,30.8,28,69.5C150.9,146.8,143.3,139.7,135.5,139.7z"/>
	<path class="st0" d="M200.3,140.5l-7.9-32.5c-0.4-1.5-2-4.2-5.4-4.2h-36.5c-9.8-22.9-20.8-41.3-20.9-41.5l-1-1.6l-1.3,1.4
		c-3.2,3.6-13.1,19-22.1,41.7H68.9c-2.6,0-4.8,1.8-5.4,4.3l-7.9,32.5c-0.4,1.7,0,3.6,1.1,5s2.7,2.2,4.5,2.2h31.4
		c-4.2,22.4-4.8,41.1-4.8,41.2l-0.1,5.1l2.7-4.3c0.2-0.4,23.8-36.6,45.6-36.6c15,0,32.9,35.1,33.1,35.5l3.5,6.9l-0.8-7.7
		c0-0.2-2-18.9-6.9-40.1h30c1.8,0,3.4-0.8,4.5-2.2C200.3,144,200.7,142.2,200.3,140.5z M197,143.6c-0.6,0.7-1.4,1.1-2.3,1.1h-33.6
		l0.4,1.7c3.2,13.7,5.3,26.5,6.3,34.2c-6.2-10.7-19.5-30.5-32-30.5c-18.9,0-38,23.9-45.1,33.8c0.4-7.2,1.7-21.5,4.8-37.5l0.3-1.7
		H61.1c-0.9,0-1.7-0.4-2.3-1.1c-0.6-0.7-0.7-1.6-0.5-2.5l7.9-32.5c0.3-1.2,1.4-2.1,2.7-2.1h38.3l0.4-0.9
		c7.9-20.3,16.7-34.8,20.7-40.1c3,5.2,12,21.2,20.1,40.3l0.4,0.9h38.5c2.1,0,2.7,1.9,2.7,2.1l7.9,32.5l0,0
		C197.8,142,197.6,142.9,197,143.6z"/>
</g>
<g>
	<polygon class="st0" points="172.1,110.1 186.7,140.7 190,140.7 175.3,110.1 	"/>
	<g>
		<polygon class="st0" points="167.9,122.2 162.4,110.7 159.1,110.7 164.6,122.2 		"/>
		<polygon class="st0" points="171.8,130.3 168.5,130.3 173.5,140.7 177,141.2 		"/>
	</g>
	<path class="st0" d="M193.8,137.3l-6.4-25.3c-0.4-1.8-2.1-3-4.1-3H149l0.9,2c1.6,3.5,3,7,4.4,10.3c2.3,5.9,4.4,12.5,6.4,19.9l0.3,1
		h28.6c1.4,0,2.7-0.6,3.5-1.6C193.8,139.6,194.1,138.5,193.8,137.3z M159.7,128.3c-0.6-1.7-1.1-3.3-1.6-4.7h13.3c1,0,2.3,1,2.3,2.3
		s-1,2.3-2.3,2.4H159.7z M189.6,139.3l-26.5,0.1c-0.8-2.9-1.6-5.6-2.4-8.2c0,0,8.9,0,10.7,0c1.8,0,5.2-1.1,5.2-5.4
		c0-4.3-3.8-5.2-5.2-5.2c-1.4,0-14.4-0.1-14.4-0.1c-0.1-0.1-2.5-5.8-3.7-8.7l30,0.1c0.7-0.1,1.3,0.2,1.4,0.8l6.1,26.2
		C190.6,139.2,190.1,139.3,189.6,139.3z"/>
</g>
<g>
	<polygon class="st0" points="84.2,109.9 69.5,140.5 66.2,140.5 80.9,109.9 	"/>
	<g>
		<polygon class="st0" points="88.3,122 93.8,110.5 97.1,110.5 91.6,122 		"/>
		<polygon class="st0" points="84.4,130.1 87.7,130.1 82.7,140.5 79.2,141 		"/>
	</g>
	<path class="st0" d="M63.1,140.4c0.8,1,2.1,1.6,3.5,1.6h29.5c0,0,1.7-8.3,4.2-16.3s6.3-17,6.3-17H72.9c-2,0-3.7,1.2-4.1,3
		l-6.4,25.3C62.1,138.3,62.4,139.4,63.1,140.4z M84.8,128.1c-1.3-0.1-2.3-1.1-2.3-2.4s1.3-2.3,2.3-2.3h13.3c-0.5,1.4-1,3-1.6,4.7
		H84.8z M65.4,138.7l6.1-26.2c0.1-0.6,0.7-0.9,1.4-0.8l29.5-0.1c-1.2,2.9-3.2,8.7-3.2,8.7H84.8c-1.4,0-5.2,1-5.2,5.3
		c0,4.3,3.4,5.4,5.2,5.4h10.7c0,0-1.6,5.3-2.4,8.2l-26.5-0.1C66.1,139.1,65.6,139,65.4,138.7z"/>
</g>
</svg>
