<?xml version="1.0" encoding="UTF-8" standalone="no"?>
<svg
   xmlns:dc="http://purl.org/dc/elements/1.1/"
   xmlns:cc="http://creativecommons.org/ns#"
   xmlns:rdf="http://www.w3.org/1999/02/22-rdf-syntax-ns#"
   xmlns:svg="http://www.w3.org/2000/svg"
   xmlns="http://www.w3.org/2000/svg"
   viewBox="0 0 245.33333 245.33333"
   height="245.33333"
   width="245.33333"
   xml:space="preserve"
   id="svg2"
   version="1.1"><metadata
     id="metadata8"><rdf:RDF><cc:Work
         rdf:about=""><dc:format>image/svg+xml</dc:format><dc:type
           rdf:resource="http://purl.org/dc/dcmitype/StillImage" /></cc:Work></rdf:RDF></metadata><defs
     id="defs6"><clipPath
       id="clipPath18"
       clipPathUnits="userSpaceOnUse"><path
         id="path16"
         d="M 0,256 H 256 V 0 H 0 Z" /></clipPath></defs><g
     transform="matrix(1.3333333,0,0,-1.3333333,-47.999999,293.33333)"
     id="g10"><g
       id="g12"><g
         clip-path="url(#clipPath18)"
         id="g14"><g
           transform="translate(128,108)"
           id="g20"><path
             id="path22"
             style="fill:#f2f2f2;fill-opacity:1;fill-rule:nonzero;stroke:none"
             d="m 0,0 c -11.028,0 -20,8.972 -20,20 0,11.028 8.972,20 20,20 C 11.028,40 20,31.028 20,20 20,8.972 11.028,0 0,0 M 0,44 C -13.255,44 -24,33.255 -24,20 -24,6.745 -13.255,-4 0,-4 13.255,-4 24,6.745 24,20 24,33.255 13.255,44 0,44" /></g><g
           transform="translate(175.2803,120.8672)"
           id="g24"><path
             id="path26"
             style="fill:#f2f2f2;fill-opacity:1;fill-rule:nonzero;stroke:none"
             d="m 0,0 -9.927,-1.449 c -0.969,-4.235 -2.649,-8.16 -4.877,-11.722 l 6.03,-8.112 c -2.842,-3.86 -6.241,-7.238 -10.09,-10.09 l -8.113,6.029 c -3.561,-2.237 -7.497,-3.907 -11.721,-4.886 l -1.449,-9.917 c -2.343,-0.355 -4.685,-0.72 -7.133,-0.72 -2.449,0 -4.791,0.365 -7.133,0.72 l -1.45,9.917 c -4.233,0.979 -8.159,2.659 -11.721,4.886 l -8.112,-6.029 c -3.86,2.852 -7.248,6.24 -10.09,10.09 l 6.029,8.112 c -2.237,3.562 -3.907,7.497 -4.877,11.722 L -94.56,0 c -0.356,2.343 -0.72,4.685 -0.72,7.133 0,2.448 0.364,4.79 0.72,7.133 l 9.926,1.449 c 0.97,4.234 2.65,8.16 4.877,11.722 l -6.029,8.112 c 2.842,3.859 6.24,7.238 10.09,10.09 l 8.112,-6.03 c 3.562,2.238 7.497,3.908 11.721,4.887 l 1.45,9.917 c 2.342,0.355 4.684,0.72 7.133,0.72 2.448,0 4.79,-0.365 7.133,-0.72 l 1.449,-9.917 c 4.234,-0.979 8.16,-2.659 11.721,-4.887 l 8.113,6.03 c 3.859,-2.852 7.248,-6.241 10.09,-10.09 l -6.03,-8.112 c 2.238,-3.562 3.908,-7.498 4.877,-11.722 L 0,14.266 C 0.354,11.923 0.72,9.581 0.72,7.133 0.72,4.685 0.354,2.343 0,0 m 3.98,14.695 -0.026,0.17 -0.444,2.93 -2.932,0.429 -7.316,1.068 c -0.82,2.724 -1.917,5.359 -3.281,7.878 l 4.455,5.993 1.767,2.378 -1.76,2.383 c -3.076,4.168 -6.754,7.846 -10.93,10.931 l -2.384,1.762 -2.379,-1.768 -5.996,-4.456 c -2.526,1.366 -5.16,2.465 -7.875,3.287 l -1.068,7.311 -0.429,2.932 -2.93,0.445 -0.173,0.026 c -2.394,0.363 -4.87,0.739 -7.559,0.739 -2.69,0 -5.165,-0.376 -7.56,-0.739 l -0.173,-0.026 -2.929,-0.445 -0.429,-2.932 -1.069,-7.311 c -2.726,-0.825 -5.361,-1.923 -7.877,-3.285 l -5.993,4.454 -2.382,1.77 -2.385,-1.766 c -4.204,-3.114 -7.881,-6.792 -10.93,-10.933 l -1.754,-2.382 1.765,-2.375 4.455,-5.996 c -1.367,-2.529 -2.464,-5.163 -3.281,-7.875 l -7.316,-1.068 -2.933,-0.429 -0.444,-2.93 -0.026,-0.172 c -0.363,-2.394 -0.739,-4.87 -0.739,-7.56 0,-2.69 0.376,-5.166 0.739,-7.561 l 0.026,-0.172 0.444,-2.929 2.933,-0.429 7.316,-1.068 c 0.819,-2.724 1.916,-5.359 3.28,-7.878 l -4.454,-5.993 -1.768,-2.378 1.76,-2.383 c 3.076,-4.168 6.754,-7.846 10.931,-10.932 l 2.384,-1.762 2.378,1.769 5.996,4.456 c 2.527,-1.366 5.161,-2.466 7.875,-3.287 l 1.069,-7.312 0.429,-2.932 2.929,-0.444 0.173,-0.026 c 2.395,-0.363 4.87,-0.739 7.56,-0.739 2.689,0 5.166,0.376 7.56,0.739 l 0.172,0.026 2.93,0.445 0.429,2.931 1.068,7.312 c 2.726,0.824 5.362,1.923 7.878,3.285 l 5.993,-4.454 2.382,-1.771 2.385,1.767 c 4.204,3.113 7.88,6.792 10.929,10.933 l 1.755,2.382 -1.765,2.375 -4.457,5.996 c 1.368,2.529 2.465,5.163 3.283,7.875 l 7.316,1.068 2.932,0.429 0.444,2.929 0.026,0.171 c 0.364,2.395 0.74,4.871 0.74,7.562 0,2.69 -0.376,5.167 -0.74,7.562" /></g><path
           id="path28"
           style="fill:#f2f2f2;fill-opacity:1;fill-rule:nonzero;stroke:none"
           d="M 220,220 H 36 V 36 H 220 Z M 216,40 H 40 v 176 h 176 z" /></g></g></g></svg>