<?xml version="1.0" encoding="UTF-8" standalone="no"?>
<svg
   xmlns:dc="http://purl.org/dc/elements/1.1/"
   xmlns:cc="http://creativecommons.org/ns#"
   xmlns:rdf="http://www.w3.org/1999/02/22-rdf-syntax-ns#"
   xmlns:svg="http://www.w3.org/2000/svg"
   xmlns="http://www.w3.org/2000/svg"
   viewBox="0 0 320 224"
   height="224"
   width="320"
   xml:space="preserve"
   id="svg2"
   version="1.1"><metadata
     id="metadata8"><rdf:RDF><cc:Work
         rdf:about=""><dc:format>image/svg+xml</dc:format><dc:type
           rdf:resource="http://purl.org/dc/dcmitype/StillImage" /></cc:Work></rdf:RDF></metadata><defs
     id="defs6"><clipPath
       id="clipPath18"
       clipPathUnits="userSpaceOnUse"><path
         id="path16"
         d="M 0,256 H 256 V 0 H 0 Z" /></clipPath></defs><g
     transform="matrix(1.3333333,0,0,-1.3333333,-10.666666,282.66666)"
     id="g10"><g
       id="g12"><g
         clip-path="url(#clipPath18)"
         id="g14"><g
           transform="translate(236,184)"
           id="g20"><path
             id="path22"
             style="fill:#ffffff;fill-opacity:1;fill-rule:nonzero;stroke:none"
             d="M 0,0 V 20 H -4 V 0 h -4 v 20 h -4 V 0 h -4 v 20 h -4 V 0 h -4 v 20 h -4 V 0 h -4 v 20 h -4 V 0 h -4 v 20 h -4 V 0 h -4 v 20 h -4 V 0 h -4 v 20 h -4 V 0 h -4 v 20 h -4 V 0 h -4 v 20 h -4 V 0 h -4 v 20 h -4 V 0 h -4 v 20 h -4 V 0 h -4 v 20 h -4 V 0 h -4 v 20 h -4 V 0 h -4 v 20 h -4 V 0 h -4 v 20 h -4 V 0 h -4 v 20 h -4 V 0 h -4 v 20 h -4 V 0 h -4 v 20 h -4 V 0 h -4 v 20 h -4 V 0 h -4 v 20 h -4 V 0 h -4 v 20 h -4 V 0 h -4 v 20 h -4 V 0 h -4 v 20 h -4 V 0 h -4 v 20 h -4 V 0 h -4 v 20 h -4 V 0 h -4 v 20 h -4 V 0 h -4 v 20 h -4 V 0 h -4 v 22 c 0,1.104 0.896,2 2,2 H 6 c 1.104,0 2,-0.896 2,-2 V 0 Z m 8,-128 c 0,-4.418 -3.582,-8 -8,-8 h -216 c -4.418,0 -8,3.582 -8,8 v 16.345 l 34.385,-15.177 0.043,-0.019 0.043,-0.017 c 0.901,-0.373 22.416,-9.132 52.492,-9.132 17.646,0 34.583,3.043 50.341,9.044 3.108,0.956 64.312,19.645 94.696,19.645 z m -204,8.358 -28,12.359 v 3.283 8 92 h 28 z m 108,-3.53 c -17.336,-6.622 -34.221,-8.828 -49.037,-8.828 -29.627,0 -50.963,8.828 -50.963,8.828 l -4,1.765 V -4 H -88 Z M -84,-4 H 8 v -92 -4 -3.311 c -27.203,0 -77.522,-14.35 -92,-18.654 z M 6,28 h -228 c -3.309,0 -6,-2.691 -6,-6 v -22 -4 -92 -8 -3.283 -2.607 -18.11 c 0,-6.617 5.383,-12 12,-12 H 0 c 6.617,0 12,5.383 12,12 v 20.689 4 3.311 4 92 4 22 c 0,3.309 -2.691,6 -6,6" /></g><g
           transform="translate(62,76)"
           id="g24"><path
             id="path26"
             style="fill:#ffffff;fill-opacity:1;fill-rule:nonzero;stroke:none"
             d="m 0,0 24.957,-2.773 c 7.339,-0.816 14.747,-0.816 22.086,0 L 72,0 c 1.104,0 2,0.896 2,2 0,1.104 -0.896,2 -2,2 L 47.043,1.227 C 39.704,0.411 32.296,0.411 24.957,1.227 L 0,4 C -1.104,4 -2,3.104 -2,2 -2,0.896 -1.104,0 0,0" /></g><g
           transform="translate(192.5859,57.7578)"
           id="g28"><path
             id="path30"
             style="fill:#ffffff;fill-opacity:1;fill-rule:nonzero;stroke:none"
             d="m 0,0 5.656,5.656 c 0.779,0.779 0.779,2.051 0,2.828 -0.777,0.779 -2.05,0.779 -2.828,0 L -2.828,2.828 C -3.606,2.05 -3.606,0.777 -2.828,0 -2.051,-0.778 -0.778,-0.778 0,0" /></g><g
           transform="translate(207.4121,57.7578)"
           id="g32"><path
             id="path34"
             style="fill:#ffffff;fill-opacity:1;fill-rule:nonzero;stroke:none"
             d="m 0,0 5.656,5.656 c 0.779,0.779 0.779,2.051 0,2.828 -0.777,0.779 -2.051,0.779 -2.828,0 L -2.829,2.828 C -3.606,2.05 -3.606,0.777 -2.829,0 -2.051,-0.778 -0.778,-0.778 0,0" /></g></g></g></g></svg>