<?xml version="1.0" encoding="UTF-8" standalone="no"?>
<svg
   xmlns:dc="http://purl.org/dc/elements/1.1/"
   xmlns:cc="http://creativecommons.org/ns#"
   xmlns:rdf="http://www.w3.org/1999/02/22-rdf-syntax-ns#"
   xmlns:svg="http://www.w3.org/2000/svg"
   xmlns="http://www.w3.org/2000/svg"
   viewBox="0 0 98.078772 106.66666"
   height="106.66666"
   width="98.078773"
   xml:space="preserve"
   id="svg2"
   version="1.1"><metadata
     id="metadata8"><rdf:RDF><cc:Work
         rdf:about=""><dc:format>image/svg+xml</dc:format><dc:type
           rdf:resource="http://purl.org/dc/dcmitype/StillImage" /></cc:Work></rdf:RDF></metadata><defs
     id="defs6"><clipPath
       id="clipPath18"
       clipPathUnits="userSpaceOnUse"><path
         id="path16"
         d="M 0,256 H 256 V 0 H 0 Z" /></clipPath></defs><g
     transform="matrix(1.3333333,0,0,-1.3333333,-121.62906,223.99999)"
     id="g10"><g
       id="g12"><g
         clip-path="url(#clipPath18)"
         id="g14"><g
           transform="translate(126.3438,168)"
           id="g20"><path
             id="path22"
             style="fill:#f2f2f2;fill-opacity:1;fill-rule:nonzero;stroke:none"
             d="m 0,0 c -0.868,0 -1.707,-0.194 -2.492,-0.577 l -18.482,-9.01 c -1.943,-0.947 -3.15,-2.878 -3.15,-5.039 0,-2.162 1.207,-4.093 3.15,-5.04 l 18.481,-9.01 c 0.775,-0.377 1.637,-0.577 2.493,-0.577 3.119,0 5.656,2.52 5.656,5.616 v 0.607 c 6.657,-1.327 12.356,-5.918 15.002,-12.309 3.197,-7.717 1.447,-16.519 -4.458,-22.429 -3.891,-3.893 -9.048,-6.037 -14.52,-6.037 -2.716,0 -5.376,0.532 -7.907,1.58 -7.717,3.196 -12.702,10.658 -12.702,19.011 v 3.103 c 0,2.753 -2.24,4.993 -4.994,4.993 h -6.205 c -2.754,0 -4.994,-2.24 -4.994,-4.993 v -3.103 c 0,-14.926 8.91,-28.26 22.699,-33.97 4.506,-1.868 9.254,-2.816 14.109,-2.816 9.789,0 19.009,3.83 25.964,10.784 10.555,10.555 13.682,26.284 7.967,40.072 -5.154,12.45 -16.718,21.033 -29.961,22.482 v 1.046 C 5.656,-2.52 3.119,0 0,0 m 0,-4 c 0.869,0 1.656,-0.681 1.656,-1.616 v -3.856 c 0,-0.54 0.433,-0.971 0.973,-0.986 12.902,-0.38 24.33,-8.229 29.293,-20.217 5.093,-12.287 2.305,-26.307 -7.101,-35.713 C 18.537,-72.672 10.196,-76 1.686,-76 c -4.228,0 -8.498,0.82 -12.579,2.512 -12.288,5.089 -20.229,16.973 -20.229,30.274 v 3.103 c 0,0.548 0.445,0.993 0.994,0.993 h 6.205 c 0.549,0 0.994,-0.445 0.994,-0.993 v -3.103 c 0,-9.976 5.954,-18.89 15.171,-22.706 3.061,-1.268 6.265,-1.885 9.438,-1.885 6.383,0 12.638,2.497 17.349,7.21 7.053,7.056 9.145,17.569 5.325,26.785 -3.685,8.901 -12.122,14.759 -21.678,15.152 -0.014,0.001 -0.027,0.001 -0.04,0.001 -0.54,0 -0.98,-0.453 -0.98,-0.998 v -0.524 -3.458 c 0,-0.935 -0.787,-1.616 -1.656,-1.616 -0.245,0 -0.497,0.054 -0.74,0.172 l -18.481,9.011 c -1.203,0.586 -1.203,2.301 0,2.887 L -0.74,-4.172 C -0.497,-4.054 -0.245,-4 0,-4" /></g></g></g></g></svg>