<?xml version="1.0" encoding="UTF-8" standalone="no"?>
<svg
   xmlns:dc="http://purl.org/dc/elements/1.1/"
   xmlns:cc="http://creativecommons.org/ns#"
   xmlns:rdf="http://www.w3.org/1999/02/22-rdf-syntax-ns#"
   xmlns:svg="http://www.w3.org/2000/svg"
   xmlns="http://www.w3.org/2000/svg"
   viewBox="0 0 320 320"
   height="320"
   width="320"
   xml:space="preserve"
   version="1.1"
   id="svg2"><metadata
     id="metadata8"><rdf:RDF><cc:Work
         rdf:about=""><dc:format>image/svg+xml</dc:format><dc:type
           rdf:resource="http://purl.org/dc/dcmitype/StillImage" /></cc:Work></rdf:RDF></metadata><defs
     id="defs6"><clipPath
       id="clipPath16"
       clipPathUnits="userSpaceOnUse"><path
         id="path18"
         d="M 0,256 256,256 256,0 0,0 0,256 Z" /></clipPath></defs><g
     transform="matrix(1.25,0,0,-1.25,0,320)"
     id="g10"><g
       id="g12"><g
         clip-path="url(#clipPath16)"
         id="g14"><g
           transform="translate(228,112)"
           id="g20"><path
             id="path22"
             style="fill:#f2f2f2;fill-opacity:1;fill-rule:nonzero;stroke:none"
             d="m 0,0 c 0,-8.822 -7.178,-16 -16,-16 l -168,0 c -8.822,0 -16,7.178 -16,16 l 0,92 L 0,92 0,0 Z m 0,96 -200,0 c -2.209,0 -4,-1.791 -4,-4 l 0,-92 c 0,-11.046 8.954,-20 20,-20 l 168,0 c 11.046,0 20,8.954 20,20 l 0,92 c 0,2.209 -1.791,4 -4,4" /></g><g
           transform="translate(216,52)"
           id="g24"><path
             id="path26"
             style="fill:#f2f2f2;fill-opacity:1;fill-rule:nonzero;stroke:none"
             d="m 0,0 -166,0 -10,0 0,24 L 0,24 0,0 Z m 0,28 -176,0 c -2.209,0 -4,-1.791 -4,-4 l 0,-28 184,0 0,28 c 0,2.209 -1.791,4 -4,4" /></g><g
           transform="translate(52,56)"
           id="g28"><path
             id="path30"
             style="fill:#f2f2f2;fill-opacity:1;fill-rule:nonzero;stroke:none"
             d="M 0,0 0,4 -4,4 -4,0 -8,0 -2,-4 4,0 0,0 Z" /></g><g
           transform="translate(240,48)"
           id="g32"><path
             id="path34"
             style="fill:#f2f2f2;fill-opacity:1;fill-rule:nonzero;stroke:none"
             d="m 0,0 -12,0 0,28 c 0,6.617 -5.383,12 -12,12 l -176,0 c -6.617,0 -12,-5.383 -12,-12 l 0,-28 -12,0 0,157.524 c 0,1.763 0.385,3.496 1.133,5.092 3.577,7.639 15.786,29.384 38.867,29.384 28,0 16,-8 36,-8 20,0 16,8 36,8 20,0 16,-8 36,-8 20,0 8,8 36,8 23.081,0 35.29,-21.745 38.867,-29.384 C -0.386,161.02 0,159.287 0,157.524 L 0,0 Z m -16,-32 -192,0 0,28 0,4 0,28 c 0,4.418 3.582,8 8,8 l 176,0 c 4.418,0 8,-3.582 8,-8 l 0,-28 0,-4 0,-28 z M 2.49,164.312 c -1.896,4.05 -6.096,11.864 -12.912,18.688 -8.618,8.626 -18.569,13 -29.578,13 -15.206,0 -19.703,-2.255 -24.002,-5.204 C -66.28,189.234 -68.079,188 -76,188 c -9.056,0 -12.372,1.658 -16.211,3.578 -4.145,2.072 -8.845,4.422 -19.789,4.422 -10.944,0 -15.643,-2.35 -19.789,-4.422 -3.839,-1.92 -7.155,-3.578 -16.211,-3.578 -7.921,0 -9.72,1.234 -11.998,2.796 -4.299,2.949 -8.796,5.204 -24.002,5.204 -11.009,0 -20.96,-4.374 -29.578,-13 -6.816,-6.824 -11.015,-14.638 -12.912,-18.688 -1.002,-2.14 -1.51,-4.424 -1.51,-6.788 L -228,0 l 0,-4 4,0 12,0 0,-28 0,-4 4,0 192,0 4,0 0,4 0,28 12,0 4,0 0,4 0,157.524 c 0,2.364 -0.508,4.648 -1.51,6.788" /></g></g></g></g></svg>