<?xml version="1.0" encoding="UTF-8" standalone="no"?>
<svg
   xmlns:dc="http://purl.org/dc/elements/1.1/"
   xmlns:cc="http://creativecommons.org/ns#"
   xmlns:rdf="http://www.w3.org/1999/02/22-rdf-syntax-ns#"
   xmlns:svg="http://www.w3.org/2000/svg"
   xmlns="http://www.w3.org/2000/svg"
   viewBox="0 0 320 213.33333"
   height="213.33333"
   width="320"
   xml:space="preserve"
   id="svg2"
   version="1.1"><metadata
     id="metadata8"><rdf:RDF><cc:Work
         rdf:about=""><dc:format>image/svg+xml</dc:format><dc:type
           rdf:resource="http://purl.org/dc/dcmitype/StillImage" /></cc:Work></rdf:RDF></metadata><defs
     id="defs6"><clipPath
       id="clipPath24"
       clipPathUnits="userSpaceOnUse"><path
         id="path22"
         d="M 0,256 H 256 V 0 H 0 Z" /></clipPath></defs><g
     transform="matrix(1.3333333,0,0,-1.3333333,-10.666666,277.33333)"
     id="g10"><path
       id="path12"
       style="fill:#ffffff;fill-opacity:1;fill-rule:nonzero;stroke:none"
       d="m 36,136 h 4 v -8 h -4 z m 16,-8 h -8 v 8 h 8 z m 12,0 h -8 v 8 h 8 z m 20,0 H 68 v 8 h 16 z m 136,0 H 88 v 8 H 220 Z M 44,124 h 8 4 8 4 16 4 136 v 16 H 88 84 68 64 56 52 44 40 32 v -16 h 8 z" /><g
       transform="translate(244,116)"
       id="g14"><path
         id="path16"
         style="fill:#ffffff;fill-opacity:1;fill-rule:nonzero;stroke:none"
         d="m 0,0 -4,-64 h -7.992 L -8.008,-0.25 -7.742,4 H -8 v 84 h 8 z m -216,-64 -0.25,4 h 200.5 L -16,-64 Z m -16,64 v 88 h 8 V 4 h -0.258 l 0.266,-4.25 3.984,-63.75 H -228 Z m 219.75,-4 h -207.5 L -220,0 H -12 Z M -56,-48 h -8 v 4 h 8 z m 0,8 h -8 v 4 h 8 z m -8,20 h 8 v -4 h -8 z m 8,-12 h -8 v 4 h 8 z m -12,-16 h -8 v 4 h 8 z m 0,8 h -8 v 4 h 8 z m -8,20 h 8 v -4 h -8 z m 8,-12 h -8 v 4 h 8 z m -12,-16 h -8 v 4 h 8 z m 0,8 h -8 v 4 h 8 z m -8,20 h 8 v -4 h -8 z m 8,-12 h -8 v 4 h 8 z m -12,-16 h -8 v 4 h 8 z m 0,8 h -8 v 4 h 8 z m -8,20 h 8 v -4 h -8 z m 8,-12 h -8 v 4 h 8 z m -12,-16 h -8 v 4 h 8 z m 0,8 h -8 v 4 h 8 z m -8,20 h 8 v -4 h -8 z m 8,-12 h -8 v 4 h 8 z m -10,-20 h 2 8 4 8 4 8 4 8 4 8 4 v 4 4 4 4 4 4 4 4 4 h -4 -8 -4 -8 -4 -8 -4 -8 -4 -8 -2 v 8 h 101.5 l -3,-48 H -114 Z m -62,32 h 8 v -4 h -8 z m 0,-8 h 8 v -4 h -8 z m 8,-20 h -8 v 4 h 8 z m -8,12 h 8 v -4 h -8 z m 12,16 h 8 v -4 h -8 z m 0,-8 h 8 v -4 h -8 z m 8,-20 h -8 v 4 h 8 z m -8,12 h 8 v -4 h -8 z m 12,16 h 8 v -4 h -8 z m 0,-8 h 8 v -4 h -8 z m 8,-20 h -8 v 4 h 8 z m -8,12 h 8 v -4 h -8 z m 12,16 h 8 v -4 h -8 z m 0,-8 h 8 v -4 h -8 z m 8,-20 h -8 v 4 h 8 z m -8,12 h 8 v -4 h -8 z m 12,16 h 8 v -4 h -8 z m 0,-8 h 8 v -4 h -8 z m 8,-20 h -8 v 4 h 8 z m -8,12 h 8 v -4 h -8 z m -91.5,28 H -118 v -8 h -2 -8 -4 -8 -4 -8 -4 -8 -4 -8 -4 v -4 -4 -4 -4 -4 -4 -4 -4 -4 h 4 8 4 8 4 8 4 8 4 8 2 v -4 h -98.5 z m 15.5,96 v -4 -8 h 4 v 8 4 h 4 v -4 -8 h 4 v 8 4 h 4 v -4 -8 h 4 v 8 4 h 4 v -4 -8 h 4 v 8 4 h 4 v -4 -8 h 4 v 8 4 h 4 v -4 -8 h 4 v 8 4 h 4 v -4 -8 h 4 v 8 4 h 4 v -4 -8 h 4 v 8 4 h 4 v -4 -8 h 4 v 8 4 h 4 v -4 -8 h 4 v 8 4 h 4 v -4 -8 h 4 v 8 4 h 4 v -4 -8 h 4 v 8 4 h 4 v -4 -8 h 4 v 8 4 h 4 v -4 -8 h 4 v 8 4 h 4 v -4 -8 h 4 v 8 4 h 4 v -4 -8 h 4 v 8 4 h 4 v -4 -8 h 4 v 8 4 h 4 v -4 -8 h 4 v 8 4 h 4 v -4 -8 h 4 v 8 4 h 4 v -4 -8 h 4 v 8 4 h 4 v -4 -8 h 4 v 8 4 h 4 v -4 -8 h 4 v 8 4 h 4 v -4 -8 h 4 v 8 4 h 12 V 4 H -220 V 88 Z M 0,92 h -8 -4 -208 -4 -8 -4 V 88 0 -0.125 l 0.008,-0.125 4,-64 0.234,-3.75 h 3.758 8.242 3.758 200 3.758 8.242 3.758 l 0.234,3.75 4,64 L 4,-0.125 V 0 88 92 Z" /></g><g
       id="g18"><g
         clip-path="url(#clipPath24)"
         id="g20"><g
           transform="translate(48,76)"
           id="g26"><path
             id="path28"
             style="fill:#ffffff;fill-opacity:1;fill-rule:nonzero;stroke:none"
             d="m 0,0 c -4.418,0 -8,3.582 -8,8 0,4.418 3.582,8 8,8 C 4.418,16 8,12.418 8,8 8,3.582 4.418,0 0,0 M 0,20 C -6.617,20 -12,14.617 -12,8 -12,1.383 -6.617,-4 0,-4 6.617,-4 12,1.383 12,8 12,14.617 6.617,20 0,20" /></g><g
           transform="translate(208,76)"
           id="g30"><path
             id="path32"
             style="fill:#ffffff;fill-opacity:1;fill-rule:nonzero;stroke:none"
             d="m 0,0 c -4.418,0 -8,3.582 -8,8 0,4.418 3.582,8 8,8 C 4.418,16 8,12.418 8,8 8,3.582 4.418,0 0,0 M 0,20 C -6.617,20 -12,14.617 -12,8 -12,1.383 -6.617,-4 0,-4 6.617,-4 12,1.383 12,8 12,14.617 6.617,20 0,20" /></g></g></g></g></svg>