<?xml version="1.0" encoding="utf-8"?>
<!-- Generator: Adobe Illustrator 24.1.1, SVG Export Plug-In . SVG Version: 6.00 Build 0)  -->
<svg version="1.1"
	 id="svg2" xmlns:cc="http://creativecommons.org/ns#" xmlns:dc="http://purl.org/dc/elements/1.1/" xmlns:rdf="http://www.w3.org/1999/02/22-rdf-syntax-ns#" xmlns:svg="http://www.w3.org/2000/svg"
	 xmlns="http://www.w3.org/2000/svg" xmlns:xlink="http://www.w3.org/1999/xlink" x="0px" y="0px" viewBox="0 0 256 256"
	 style="enable-background:new 0 0 256 256;" xml:space="preserve">
<style type="text/css">
	.st0{fill:#FFFFFF;}
</style>
<g id="g10" transform="matrix(1.3333333,0,0,-1.3333333,-10.666666,330.66666)">
</g>
<g id="g12">
	<g>
		<g>
			<g id="g14">
				<path id="path36" class="st0" d="M244,244H12V12h232V244z M244,8H12H8v4v232v4h4h232h4v-4V12V8H244z"/>
			</g>
		</g>
	</g>
</g>
<g>
	<g id="g10_1_" transform="matrix(1.3333333,0,0,-1.3333333,-58.666665,282.66666)">
		<g id="g16">
		</g>
	</g>
	<g>
		<g>
			<path class="st0" d="M196.2,108.9V94.6h-4c-4.1,0-10.5-5.9-15.6-10.5c-6.4-5.9-13.5-11.1-19.3-11.1c-11.1,0-22.5,11.6-22.5,31.1
				c0,16.9,9.7,25.5,15.9,25.5c1.9,0,3.3-0.9,4.3-2.3c1.6-2.5,0.5-4.9-0.7-7.3c-0.9-2-2.1-4.7-2.1-7.3c0-5.6,1.9-5.7,6.8-7.9
				l0.5,46.9c0,3.1-0.4,5.1-1.5,6.1c0,0,0-11.5,0-13.3c0-1.9-0.8-9.7-9.6-9.7h-14.1c-8.1,0-7.5,9.7-7.5,9.7s0,0.9,0,2.4
				c0,2.8,0,3.1,0,4.7c0,3.5-2,6.1-2,6.1V81h-5.5c-3.9,0-9.5-5.9-14.3-10.9c-6.3-6.5-12.7-11.6-20-11.6c-14.1,0-30,22.8-30,38.5
				c0,24.3,15.1,35.2,21.1,35.2c1.9,0,5.1-1.1,5.9-2.5c1.5-2.7-0.1-5.1-1.1-6.5c-1.5-2.3-3.9-6-3.9-11.7c0-9.1,5.9-11.2,13.5-13.9
				v81.7c0,3.7-3.2,4-3.7,4s-4.7,0-4.7,0v14.9h32.4c6,0,11.2-2.5,16.1-9.3v9.3h23.1c12.4,0,38.8-33.5,38.8-45.6c0,0,0-36.3,0-40.5
				C192.6,109.2,196.2,108.9,196.2,108.9L196.2,108.9z M191.1,104.5c-2.7,0-3.5,2.1-3.5,3.6v43.7c0,9.9-25.9,40.7-34.7,40.7
				c-10.1,0-16.9,0-16.9,0V172c0,0-12.4,20.5-21.2,20.5s-27.3,0-27.3,0V188c0,0,8.1-0.1,8.1-6.8c0-7.5,0-90,0-90
				c-10.4,0-25.1,6.3-25.1,19.7c0,10.8,7.2,15.9,5.1,15.9s-15.2-6.7-15.2-29.1c0-13.2,13.5-33.1,24.1-33.1s21.1,21.9,34.7,21.9v79.3
				c7.7,0,10.5-4.9,11.6-11.6c0.7-4.3,0.7-11.3,0.7-11.3s0-2.8,3.9-2.8h13.1c2.1,0,4.1,1.9,4.1,4.1l-0.4,21.6
				c8.3,0,11.9-6.4,11.9-12.3c0-5.9,0-53.6,0-53.6c-9.3,0-17.3,3.5-17.3,13.1c0,6.1,4.9,11.9,3.1,11.9c-1.9,0-10.5-4.5-10.5-20.1
				c0-14.5,10.7-26.1,18.7-26.3c8.3,0,22.3,21.1,33.2,21.1v4.9H191.1z"/>
		</g>
	</g>
	<path class="st0" d="M105.2,149.4c0.5,0.1,1,0.1,1.5,0.1h1.5c0.7,0,1.5,0.6,1.5,1.5v14.7c0,5.2,4,9.4,9.2,9.6h0.1h0.1
		c1.2,0,2.3-0.1,3.3-0.2c-3.3,3.8-6.4,6.9-7.8,7.6h-9.3c0.1-0.5,0.1-1.1,0.1-1.6v-31.7 M141.3,149.5c0.7,0,1.3,0.6,1.3,1.4
		l-0.1,13.6c-1.2-1.1-2.7-1.9-4.4-2.3h-0.2c1.7-3.7,2.6-7.8,3-11.7v-0.2v-0.2c0-0.1,0-0.3,0-0.7L141.3,149.5 M176.9,149.6
		c0.3,0,0.6,0.1,0.9,0.2c-0.6,3.1-2.6,7.3-5.6,11.9c0.9-2.5,1.4-5.2,1.4-8.2v-3.9H176.9 M164.8,171.5c-5.9,6.8-10.7,10.5-12.3,11h-7
		v-9.8c1.6,1.7,3.9,2.6,6.5,2.6l0,0l0,0C157.1,175.3,161.4,173.9,164.8,171.5 M101.2,140v40.9c0,2.1-0.5,4-1.3,5.6h14.9
		c4.1,0,16.8-16.7,17.6-17.7c1.6-1.9,2.1-2.7,4.9-2.7c2.5,0.5,4.3,2.9,4.3,5.5v14.9h11.3c6-0.5,29.1-25.7,29.1-38.7
		c0,0-2-2.3-5.1-2.3s-7.3,0-7.3,0v7.9c0,10.8-7.5,17.7-17.5,17.9c-1.6,0-3.1-0.5-4-1.7c-1.1-1.1-1.6-2.5-1.6-4l0.1-14.7
		c0-3.1-2.4-5.5-5.3-5.5H137c0,0.3-0.1,4.3-0.1,4.7c-0.3,3.1-2.5,21.1-18,21.1c-3.1-0.1-5.3-2.7-5.3-5.6v-14.7
		c0-3.1-2.5-5.5-5.5-5.5h-1.5C102.1,145.5,101.2,140,101.2,140L101.2,140z"/>
</g>
</svg>
