<?xml version="1.0" encoding="UTF-8" standalone="no"?>
<svg
   xmlns:dc="http://purl.org/dc/elements/1.1/"
   xmlns:cc="http://creativecommons.org/ns#"
   xmlns:rdf="http://www.w3.org/1999/02/22-rdf-syntax-ns#"
   xmlns:svg="http://www.w3.org/2000/svg"
   xmlns="http://www.w3.org/2000/svg"
   viewBox="0 0 309.3674 320"
   height="320"
   width="309.3674"
   xml:space="preserve"
   id="svg2"
   version="1.1"><metadata
     id="metadata8"><rdf:RDF><cc:Work
         rdf:about=""><dc:format>image/svg+xml</dc:format><dc:type
           rdf:resource="http://purl.org/dc/dcmitype/StillImage" /></cc:Work></rdf:RDF></metadata><defs
     id="defs6"><clipPath
       id="clipPath18"
       clipPathUnits="userSpaceOnUse"><path
         id="path16"
         d="M 0,256 H 256 V 0 H 0 Z" /></clipPath></defs><g
     transform="matrix(1.3333333,0,0,-1.3333333,-15.982967,330.66666)"
     id="g10"><g
       id="g12"><g
         clip-path="url(#clipPath18)"
         id="g14"><g
           transform="translate(238.1055,248)"
           id="g20"><path
             id="path22"
             style="fill:#ffffff;fill-opacity:1;fill-rule:nonzero;stroke:none"
             d="m 0,0 h -4 -212.211 -4 v -4 c 0,-0.999 -0.046,-100.439 -4.068,-151.687 -4.07,-51.85 -0.14,-79.728 0.029,-80.89 l 0.499,-3.423 h 3.459 H 0.081 3.54 l 0.499,3.423 c 0.169,1.161 4.099,29.04 0.029,80.89 C 0.046,-104.436 0,-4.999 0,-4 Z m -4,-4 c 0,0 0,-100 4.081,-152 4.081,-52 0,-80 0,-80 h -220.373 c 0,0 -4.081,28 0,80 4.081,52 4.081,152 4.081,152 H -4" /></g></g></g></g></svg>