<?xml version="1.0" encoding="UTF-8" standalone="no"?>
<!-- Created with Inkscape (http://www.inkscape.org/) -->

<svg
   xmlns:dc="http://purl.org/dc/elements/1.1/"
   xmlns:cc="http://creativecommons.org/ns#"
   xmlns:rdf="http://www.w3.org/1999/02/22-rdf-syntax-ns#"
   xmlns:svg="http://www.w3.org/2000/svg"
   xmlns="http://www.w3.org/2000/svg"
   xmlns:sodipodi="http://sodipodi.sourceforge.net/DTD/sodipodi-0.dtd"
   xmlns:inkscape="http://www.inkscape.org/namespaces/inkscape"
   id="svg4154"
   version="1.1"
   inkscape:version="0.48.5 r10040"
   width="256"
   height="256"
   xml:space="preserve"
   sodipodi:docname="Atari - Lynx-content.svg"
   inkscape:export-filename="/Users/margetts/Desktop/BAXY RetroActive/png_marked/Atari - Lynx-content.png"
   inkscape:export-xdpi="90.099998"
   inkscape:export-ydpi="90.099998"><metadata
     id="metadata4160"><rdf:RDF><cc:Work
         rdf:about=""><dc:format>image/svg+xml</dc:format><dc:type
           rdf:resource="http://purl.org/dc/dcmitype/StillImage" /><dc:title></dc:title></cc:Work></rdf:RDF></metadata><defs
     id="defs4158"><clipPath
       clipPathUnits="userSpaceOnUse"
       id="clipPath4168"><path
         d="M 0,128 128,128 128,0 0,0 0,128 z"
         id="path4170"
         inkscape:connector-curvature="0" /></clipPath><clipPath
       clipPathUnits="userSpaceOnUse"
       id="clipPath4392"><path
         d="m 113.483,30.2632 0.073,0 0,-0.0451 -0.073,0 0,0.0451 z"
         id="path4394"
         inkscape:connector-curvature="0" /></clipPath><clipPath
       clipPathUnits="userSpaceOnUse"
       id="clipPath4408"><path
         d="m 111.413,29.9338 0.081,0 0,-0.0513 -0.081,0 0,0.0513 z"
         id="path4410"
         inkscape:connector-curvature="0" /></clipPath></defs><sodipodi:namedview
     pagecolor="#ffffff"
     bordercolor="#666666"
     borderopacity="1"
     objecttolerance="10"
     gridtolerance="10"
     guidetolerance="10"
     inkscape:pageopacity="0"
     inkscape:pageshadow="2"
     inkscape:window-width="1676"
     inkscape:window-height="1005"
     id="namedview4156"
     showgrid="false"
     inkscape:zoom="5.14375"
     inkscape:cx="55.601458"
     inkscape:cy="80"
     inkscape:window-x="4"
     inkscape:window-y="1"
     inkscape:window-maximized="1"
     inkscape:current-layer="g4162" /><g
     id="g4162"
     inkscape:groupmode="layer"
     inkscape:label="Atari - Lynx-content"
     transform="matrix(1.25,0,0,-1.25,0,256)"><g
       id="g4164"
       transform="matrix(1.6000038,0,0,1.6000038,-4.8320057e-4,-2.432e-4)"><g
         id="g4166"
         clip-path="url(#clipPath4168)"><g
           id="g4172"
           transform="translate(4.7407,125.6296)"><path
             d="m 0,0 118.519,0 c 1.309,0 2.37,-1.061 2.37,-2.37 l 0,-118.519 c 0,-1.309 -1.061,-2.37 -2.37,-2.37 l -118.519,0 c -1.309,0 -2.37,1.061 -2.37,2.37 l 0,118.519 C -2.37,-1.061 -1.309,0 0,0"
             style="fill:#565353;fill-opacity:1;fill-rule:nonzero;stroke:none"
             id="path4174"
             inkscape:connector-curvature="0" /></g><g
           id="g4176"
           transform="translate(123.2593,128)"><path
             d="m 0,0 -118.519,0 c -2.614,0 -4.74,-2.127 -4.74,-4.741 l 0,-118.518 c 0,-2.614 2.126,-4.741 4.74,-4.741 L 0,-128 c 2.614,0 4.741,2.127 4.741,4.741 l 0,118.518 C 4.741,-2.127 2.614,0 0,0 m 0,-2.37 c 1.309,0 2.37,-1.062 2.37,-2.371 l 0,-118.518 c 0,-1.309 -1.061,-2.371 -2.37,-2.371 l -118.519,0 c -1.309,0 -2.37,1.062 -2.37,2.371 l 0,118.518 c 0,1.309 1.061,2.371 2.37,2.371 L 0,-2.37"
             style="fill:#ffffff;fill-opacity:1;fill-rule:nonzero;stroke:none"
             id="path4178"
             inkscape:connector-curvature="0" /></g><g
           id="g4180"
           transform="translate(5.7407,18.9629)"><path
             d="m 0,0 116.519,0 c 0.552,0 1,-0.448 1,-1 l 0,-12.222 c 0,-0.553 -0.448,-1 -1,-1 L 0,-14.222 c -0.552,0 -1,0.447 -1,1 L -1,-1 c 0,0.552 0.448,1 1,1"
             style="fill:#5f5c5c;fill-opacity:1;fill-rule:nonzero;stroke:none"
             id="path4182"
             inkscape:connector-curvature="0" /></g><path
           d="m 8.296,4.741 -2.37,0 0,14.222 2.37,0 0,-14.222 z"
           style="fill:#ecc10c;fill-opacity:1;fill-rule:nonzero;stroke:none"
           id="path4184"
           inkscape:connector-curvature="0" /><path
           d="m 13.037,4.741 -2.37,0 0,14.222 2.37,0 0,-14.222 z"
           style="fill:#ecc10c;fill-opacity:1;fill-rule:nonzero;stroke:none"
           id="path4186"
           inkscape:connector-curvature="0" /><path
           d="m 17.778,7.111 -2.37,0 0,11.852 2.37,0 0,-11.852 z"
           style="fill:#ecc10c;fill-opacity:1;fill-rule:nonzero;stroke:none"
           id="path4188"
           inkscape:connector-curvature="0" /><path
           d="m 22.519,7.111 -2.37,0 0,11.852 2.37,0 0,-11.852 z"
           style="fill:#ecc10c;fill-opacity:1;fill-rule:nonzero;stroke:none"
           id="path4190"
           inkscape:connector-curvature="0" /><path
           d="m 27.259,7.111 -2.37,0 0,11.852 2.37,0 0,-11.852 z"
           style="fill:#ecc10c;fill-opacity:1;fill-rule:nonzero;stroke:none"
           id="path4192"
           inkscape:connector-curvature="0" /><path
           d="m 32,7.111 -2.37,0 0,11.852 2.37,0 0,-11.852 z"
           style="fill:#ecc10c;fill-opacity:1;fill-rule:nonzero;stroke:none"
           id="path4194"
           inkscape:connector-curvature="0" /><path
           d="m 36.741,7.111 -2.37,0 0,11.852 2.37,0 0,-11.852 z"
           style="fill:#ecc10c;fill-opacity:1;fill-rule:nonzero;stroke:none"
           id="path4196"
           inkscape:connector-curvature="0" /><path
           d="m 41.481,7.111 -2.37,0 0,11.852 2.37,0 0,-11.852 z"
           style="fill:#ecc10c;fill-opacity:1;fill-rule:nonzero;stroke:none"
           id="path4198"
           inkscape:connector-curvature="0" /><path
           d="m 46.222,7.111 -2.37,0 0,11.852 2.37,0 0,-11.852 z"
           style="fill:#ecc10c;fill-opacity:1;fill-rule:nonzero;stroke:none"
           id="path4200"
           inkscape:connector-curvature="0" /><path
           d="m 50.963,7.111 -2.37,0 0,11.852 2.37,0 0,-11.852 z"
           style="fill:#ecc10c;fill-opacity:1;fill-rule:nonzero;stroke:none"
           id="path4202"
           inkscape:connector-curvature="0" /><path
           d="m 55.704,7.111 -2.37,0 0,11.852 2.37,0 0,-11.852 z"
           style="fill:#ecc10c;fill-opacity:1;fill-rule:nonzero;stroke:none"
           id="path4204"
           inkscape:connector-curvature="0" /><path
           d="m 60.444,7.111 -2.37,0 0,11.852 2.37,0 0,-11.852 z"
           style="fill:#ecc10c;fill-opacity:1;fill-rule:nonzero;stroke:none"
           id="path4206"
           inkscape:connector-curvature="0" /><path
           d="m 65.185,7.111 -2.37,0 0,11.852 2.37,0 0,-11.852 z"
           style="fill:#ecc10c;fill-opacity:1;fill-rule:nonzero;stroke:none"
           id="path4208"
           inkscape:connector-curvature="0" /><path
           d="m 69.926,7.111 -2.37,0 0,11.852 2.37,0 0,-11.852 z"
           style="fill:#ecc10c;fill-opacity:1;fill-rule:nonzero;stroke:none"
           id="path4210"
           inkscape:connector-curvature="0" /><path
           d="m 74.667,7.111 -2.37,0 0,11.852 2.37,0 0,-11.852 z"
           style="fill:#ecc10c;fill-opacity:1;fill-rule:nonzero;stroke:none"
           id="path4212"
           inkscape:connector-curvature="0" /><path
           d="m 79.407,7.111 -2.37,0 0,11.852 2.37,0 0,-11.852 z"
           style="fill:#ecc10c;fill-opacity:1;fill-rule:nonzero;stroke:none"
           id="path4214"
           inkscape:connector-curvature="0" /><path
           d="m 84.148,7.111 -2.37,0 0,11.852 2.37,0 0,-11.852 z"
           style="fill:#ecc10c;fill-opacity:1;fill-rule:nonzero;stroke:none"
           id="path4216"
           inkscape:connector-curvature="0" /><path
           d="m 88.889,7.111 -2.37,0 0,11.852 2.37,0 0,-11.852 z"
           style="fill:#ecc10c;fill-opacity:1;fill-rule:nonzero;stroke:none"
           id="path4218"
           inkscape:connector-curvature="0" /><path
           d="m 93.63,7.111 -2.37,0 0,11.852 2.37,0 0,-11.852 z"
           style="fill:#ecc10c;fill-opacity:1;fill-rule:nonzero;stroke:none"
           id="path4220"
           inkscape:connector-curvature="0" /><path
           d="m 98.37,7.111 -2.37,0 0,11.852 2.37,0 0,-11.852 z"
           style="fill:#ecc10c;fill-opacity:1;fill-rule:nonzero;stroke:none"
           id="path4222"
           inkscape:connector-curvature="0" /><path
           d="m 103.111,7.111 -2.37,0 0,11.852 2.37,0 0,-11.852 z"
           style="fill:#ecc10c;fill-opacity:1;fill-rule:nonzero;stroke:none"
           id="path4224"
           inkscape:connector-curvature="0" /><path
           d="m 107.852,7.111 -2.37,0 0,11.852 2.37,0 0,-11.852 z"
           style="fill:#ecc10c;fill-opacity:1;fill-rule:nonzero;stroke:none"
           id="path4226"
           inkscape:connector-curvature="0" /><path
           d="m 112.593,7.111 -2.37,0 0,11.852 2.37,0 0,-11.852 z"
           style="fill:#ecc10c;fill-opacity:1;fill-rule:nonzero;stroke:none"
           id="path4228"
           inkscape:connector-curvature="0" /><path
           d="m 117.333,7.111 -2.37,0 0,11.852 2.37,0 0,-11.852 z"
           style="fill:#ecc10c;fill-opacity:1;fill-rule:nonzero;stroke:none"
           id="path4230"
           inkscape:connector-curvature="0" /><path
           d="m 122.074,4.741 -2.37,0 0,14.222 2.37,0 0,-14.222 z"
           style="fill:#ecc10c;fill-opacity:1;fill-rule:nonzero;stroke:none"
           id="path4232"
           inkscape:connector-curvature="0" /><g
           id="g4234"
           transform="translate(7.1111,99.5555)"><path
             d="m 0,0 113.778,0 c 1.309,0 2.37,-1.061 2.37,-2.37 l 0,-73.482 c 0,-1.309 -1.061,-2.37 -2.37,-2.37 L 0,-78.222 c -1.309,0 -2.37,1.061 -2.37,2.37 l 0,73.482 C -2.37,-1.061 -1.309,0 0,0"
             style="fill:#434041;fill-opacity:1;fill-rule:nonzero;stroke:none"
             id="path4236"
             inkscape:connector-curvature="0" /></g><path
           d="m 120.889,76.081 -113.778,0 0,20.865 113.778,0 0,-20.865 z"
           style="fill:#231f20;fill-opacity:1;fill-rule:nonzero;stroke:none"
           id="path4238"
           inkscape:connector-curvature="0" /><path
           d="m 120.889,24.683 -113.778,0 0,51.398 113.778,0 0,-51.398 z"
           style="fill:#ecc10c;fill-opacity:1;fill-rule:nonzero;stroke:none"
           id="path4240"
           inkscape:connector-curvature="0" /><g
           id="g4242"
           transform="translate(45.524,78.2857)"><path
             d="m 0,0 c -0.051,1.498 -0.066,2.996 0.005,4.494 0.068,1.446 0.193,2.885 0.521,4.299 0.333,1.438 0.994,2.715 1.895,3.874 0.799,1.025 1.746,1.887 2.877,2.535 1.044,0.597 2.159,0.955 3.37,0.984 0.054,0.002 0.108,0 0.175,0 C 8.846,16.14 8.851,16.099 8.851,16.059 8.852,15.36 8.85,14.662 8.853,13.963 8.854,13.864 8.833,13.826 8.724,13.819 8.344,13.792 7.99,13.661 7.646,13.508 6.306,12.912 5.157,12.046 4.143,10.995 3.497,10.325 2.919,9.604 2.526,8.75 2.189,8.018 1.969,7.247 1.802,6.461 1.573,5.388 1.424,4.304 1.371,3.209 1.32,2.14 1.302,1.07 1.27,0 L 0,0 z"
             style="fill:#ecc10c;fill-opacity:1;fill-rule:nonzero;stroke:none"
             id="path4244"
             inkscape:connector-curvature="0" /></g><g
           id="g4246"
           transform="translate(45.0286,78.2857)"><path
             d="m 0,0 c 0.051,1.498 0.066,2.996 -0.005,4.494 -0.068,1.446 -0.193,2.885 -0.521,4.299 -0.333,1.438 -0.994,2.715 -1.895,3.874 -0.799,1.025 -1.745,1.887 -2.877,2.535 -1.044,0.597 -2.159,0.955 -3.37,0.984 -0.054,0.002 -0.108,0 -0.175,0 -0.003,-0.046 -0.008,-0.087 -0.008,-0.127 -10e-4,-0.699 0.001,-1.397 -0.002,-2.096 -10e-4,-0.099 0.02,-0.137 0.129,-0.144 0.38,-0.027 0.734,-0.158 1.078,-0.311 1.34,-0.596 2.489,-1.462 3.503,-2.513 0.646,-0.67 1.224,-1.391 1.617,-2.245 C -2.189,8.018 -1.969,7.247 -1.802,6.461 -1.573,5.388 -1.424,4.304 -1.371,3.209 -1.32,2.14 -1.302,1.07 -1.27,0 L 0,0 z"
             style="fill:#ecc10c;fill-opacity:1;fill-rule:nonzero;stroke:none"
             id="path4248"
             inkscape:connector-curvature="0" /></g><g
           id="g4250"
           transform="translate(79.9258,94.1816)"><path
             d="M 0,0 0,-10.226 -15.295,0 l -8.714,0 0,-15.295 8.714,0 0,10.137 C -15.295,-5.513 0,-15.295 0,-15.295 l 4.268,0 L 4.268,0 0,0 z"
             style="fill:#ecc10c;fill-opacity:1;fill-rule:nonzero;stroke:none"
             id="path4252"
             inkscape:connector-curvature="0" /></g><g
           id="g4254"
           transform="translate(85.3241,79.2054)"><path
             d="m 0,0 11.52,4.937 -7.406,3.785 8.229,0 c 0,0 -13.166,6.748 -12.343,6.254 0.823,-0.493 12.343,0 12.343,0 0,0 4.608,-3.62 5.596,-3.127 0.987,0.494 4.608,3.127 4.608,3.127 l 11.027,0 L 21.724,10.039 28.472,6.747 19.585,6.583 32.422,0 c 0,0 -11.85,-0.659 -12.508,0 -0.658,0.658 -5.102,3.127 -5.102,3.127 L 10.533,0 0,0 z"
             style="fill:#ecc10c;fill-opacity:1;fill-rule:nonzero;stroke:none"
             id="path4256"
             inkscape:connector-curvature="0" /></g><g
           id="g4258"
           transform="translate(22.7699,82.2406)"><path
             d="m 0,0 0,12.01 -8.682,0 0,-15.338 7.959,0 0.723,0 14.035,0 0,3.328 L 0,0 z"
             style="fill:#ecc10c;fill-opacity:1;fill-rule:nonzero;stroke:none"
             id="path4260"
             inkscape:connector-curvature="0" /></g><g
           id="g4262"
           transform="translate(12.4143,80.5811)"><path
             d="M 0,0 0,-1.284 C 0,-1.373 -0.033,-1.45 -0.099,-1.517 -0.166,-1.583 -0.243,-1.616 -0.332,-1.616 l -2.98,0 0,0.497 2.815,0 0,1.119 L 0,0 z"
             style="fill:#ecc10c;fill-opacity:1;fill-rule:nonzero;stroke:none"
             id="path4264"
             inkscape:connector-curvature="0" /></g><path
           d="m 12.414,80.892 -3.312,0 0,0.497 3.312,0 0,-0.497 z"
           style="fill:#ecc10c;fill-opacity:1;fill-rule:nonzero;stroke:none"
           id="path4266"
           inkscape:connector-curvature="0" /><g
           id="g4268"
           transform="translate(11.5043,83.3351)"><path
             d="M 0,0 C -0.108,0 -0.205,-0.042 -0.289,-0.126 -0.373,-0.21 -0.415,-0.307 -0.415,-0.415 l 0,-0.621 0.828,0 0,0.621 c 0,0.108 -0.043,0.205 -0.127,0.289 C 0.202,-0.042 0.107,0 0,0 m -1.492,-0.209 c -0.107,0 -0.202,-0.042 -0.287,-0.126 -0.085,-0.086 -0.128,-0.181 -0.128,-0.286 l 0,-0.415 0.995,0 c -0.086,0.552 -0.279,0.827 -0.58,0.827 M 0,0.497 C 0.239,0.497 0.451,0.405 0.636,0.221 0.819,0.038 0.91,-0.174 0.91,-0.415 l 0,-0.786 c 0,-0.089 -0.033,-0.167 -0.1,-0.233 -0.066,-0.066 -0.144,-0.1 -0.233,-0.1 l -2.649,0 c -0.088,0 -0.164,0.034 -0.231,0.1 -0.066,0.066 -0.099,0.144 -0.099,0.233 l 0,0.58 c 0,0.233 0.086,0.443 0.259,0.631 0.172,0.186 0.375,0.279 0.609,0.279 0.296,0 0.531,-0.123 0.704,-0.369 0.065,0.167 0.175,0.305 0.33,0.415 0.152,0.108 0.319,0.162 0.5,0.162"
             style="fill:#ecc10c;fill-opacity:1;fill-rule:nonzero;stroke:none"
             id="path4270"
             inkscape:connector-curvature="0" /></g><g
           id="g4272"
           transform="translate(12.4143,86.1304)"><path
             d="M 0,0 0,-0.58 -1.072,-1.264 C -1.225,-1.361 -1.34,-1.41 -1.419,-1.41 c -0.151,0 -0.263,0.047 -0.338,0.141 -0.005,0.006 -0.065,0.116 -0.182,0.328 -0.134,0.241 -0.288,0.361 -0.463,0.361 -0.105,0 -0.201,-0.043 -0.287,-0.129 -0.085,-0.085 -0.128,-0.181 -0.128,-0.286 l 0,-0.497 2.817,0 0,-0.498 -2.982,0 c -0.087,0 -0.164,0.033 -0.231,0.1 -0.066,0.066 -0.099,0.144 -0.099,0.233 l 0,0.662 c 0,0.233 0.086,0.443 0.26,0.631 0.171,0.186 0.374,0.279 0.609,0.279 0.232,0 0.443,-0.078 0.63,-0.235 0.188,-0.159 0.316,-0.351 0.384,-0.575 L 0,0 z"
             style="fill:#ecc10c;fill-opacity:1;fill-rule:nonzero;stroke:none"
             id="path4274"
             inkscape:connector-curvature="0" /></g><g
           id="g4276"
           transform="translate(12.4143,88.0546)"><path
             d="M 0,0 0,-1.284 C 0,-1.373 -0.033,-1.45 -0.099,-1.517 -0.166,-1.583 -0.243,-1.616 -0.332,-1.616 l -2.65,0 c -0.087,0 -0.164,0.033 -0.231,0.099 -0.066,0.067 -0.099,0.144 -0.099,0.233 l 0,1.284 0.495,0 0,-1.119 0.912,0 0,0.704 0.498,0 0,-0.704 0.91,0 0,1.119 L 0,0 z"
             style="fill:#ecc10c;fill-opacity:1;fill-rule:nonzero;stroke:none"
             id="path4278"
             inkscape:connector-curvature="0" /></g><g
           id="g4280"
           transform="translate(9.5972,90.1244)"><path
             d="m 0,0 0,-0.662 2.817,0 0,-0.498 -2.817,0 0,-0.662 -0.495,0 0,1.822 L 0,0 z"
             style="fill:#ecc10c;fill-opacity:1;fill-rule:nonzero;stroke:none"
             id="path4282"
             inkscape:connector-curvature="0" /></g><g
           id="g4284"
           transform="translate(12.4143,92.3616)"><path
             d="M 0,0 0,-0.58 -1.072,-1.264 C -1.225,-1.361 -1.34,-1.41 -1.419,-1.41 c -0.151,0 -0.263,0.047 -0.338,0.141 -0.005,0.006 -0.065,0.116 -0.182,0.328 -0.134,0.241 -0.288,0.361 -0.463,0.361 -0.105,0 -0.201,-0.043 -0.287,-0.129 -0.085,-0.085 -0.128,-0.181 -0.128,-0.286 l 0,-0.497 2.817,0 0,-0.498 -2.982,0 c -0.087,0 -0.164,0.033 -0.231,0.1 -0.066,0.066 -0.099,0.144 -0.099,0.233 l 0,0.662 c 0,0.233 0.086,0.443 0.26,0.631 0.171,0.186 0.374,0.279 0.609,0.279 0.232,0 0.443,-0.078 0.63,-0.235 0.188,-0.159 0.316,-0.351 0.384,-0.575 L 0,0 z"
             style="fill:#ecc10c;fill-opacity:1;fill-rule:nonzero;stroke:none"
             id="path4286"
             inkscape:connector-curvature="0" /></g><g
           id="g4288"
           transform="translate(11.5043,93.8927)"><path
             d="m 0,0 -1.492,0 c -0.107,0 -0.202,-0.042 -0.287,-0.126 -0.085,-0.086 -0.128,-0.182 -0.128,-0.289 0,-0.107 0.043,-0.203 0.128,-0.289 0.085,-0.084 0.18,-0.126 0.287,-0.126 l 1.492,0 c 0.107,0 0.202,0.042 0.286,0.126 0.084,0.084 0.127,0.181 0.127,0.289 0,0.108 -0.043,0.205 -0.127,0.289 C 0.202,-0.042 0.107,0 0,0 M 0,0.497 C 0.239,0.497 0.451,0.405 0.636,0.221 0.819,0.038 0.91,-0.174 0.91,-0.415 0.91,-0.653 0.819,-0.865 0.636,-1.051 0.45,-1.233 0.238,-1.325 0,-1.325 l -1.492,0 c -0.24,0 -0.451,0.092 -0.634,0.274 -0.184,0.185 -0.276,0.397 -0.276,0.636 0,0.241 0.092,0.453 0.276,0.636 0.183,0.184 0.394,0.276 0.634,0.276 l 1.492,0 z"
             style="fill:#ecc10c;fill-opacity:1;fill-rule:nonzero;stroke:none"
             id="path4290"
             inkscape:connector-curvature="0" /></g><g
           id="g4292"
           transform="translate(103.8686,29.4567)"><path
             d="m 0,0 c -0.117,-0.069 -0.259,-0.076 -0.39,-0.053 0.089,-0.219 0.126,-0.453 0.183,-0.681 0.065,-0.224 0.144,-0.495 0.383,-0.589 0.157,-0.072 0.336,-0.002 0.454,0.112 0.184,0.177 0.297,0.412 0.406,0.64 0.038,0.081 0.074,0.162 0.112,0.242 C 0.98,-0.33 0.815,-0.277 0.67,-0.193 0.529,-0.106 0.497,0.104 0.322,0.146 0.198,0.148 0.104,0.054 0,0 M 9.084,1.585 C 8.624,1.484 8.158,1.333 7.682,1.408 7.723,1.094 7.675,0.772 7.562,0.477 7.502,0.442 7.611,0.397 7.626,0.451 L 7.663,0.43 C 7.702,0.319 7.824,0.278 7.931,0.267 8.204,0.241 8.478,0.3 8.737,0.381 8.675,0.44 8.592,0.495 8.579,0.587 8.588,0.627 8.607,0.662 8.624,0.698 8.813,0.691 8.999,0.66 9.186,0.638 9.441,0.829 9.601,1.154 9.577,1.474 9.574,1.559 9.516,1.646 9.426,1.658 9.309,1.675 9.19,1.631 9.084,1.585 m 1.45,0.512 -0.007,-0.011 C 10.287,2.013 10.057,1.91 9.819,1.831 9.874,1.482 9.804,1.115 9.634,0.807 9.561,0.76 9.714,0.734 9.683,0.806 9.7,0.807 9.734,0.808 9.75,0.808 9.754,0.745 9.83,0.729 9.881,0.733 c 0.204,0.016 0.397,0.1 0.574,0.198 -0.057,0.048 -0.126,0.089 -0.163,0.156 -0.025,0.047 0.007,0.097 0.018,0.143 0.146,-0.005 0.292,-0.02 0.436,-0.044 0.148,0.177 0.26,0.41 0.215,0.646 -0.024,0.114 -0.064,0.243 -0.169,0.307 -0.087,0.048 -0.177,-0.013 -0.258,-0.042 m 1.333,0.581 C 11.633,2.571 11.399,2.462 11.164,2.357 11.256,1.978 11.177,1.575 10.982,1.24 c 0.049,0.03 0.119,0.042 0.157,0.087 0.08,-0.052 0.178,-0.046 0.267,-0.022 0.173,0.047 0.338,0.124 0.488,0.223 -0.087,0.063 -0.196,0.168 -0.101,0.275 0.109,-0.012 0.218,-0.022 0.327,-0.038 0.135,0.183 0.269,0.412 0.215,0.648 -0.064,0.15 -0.186,0.28 -0.345,0.326 C 11.949,2.719 11.909,2.698 11.867,2.678 M 4.447,3.189 C 4.24,3.158 4.032,3.105 3.848,3.002 3.634,2.848 3.472,2.596 3.483,2.325 3.493,2.063 3.639,1.83 3.807,1.638 4.117,1.299 4.526,1.031 4.984,0.951 5.329,0.898 5.7,0.907 6.018,1.067 6.312,1.209 6.585,1.45 6.665,1.778 6.739,2.068 6.716,2.422 6.484,2.637 6.206,2.896 5.846,3.06 5.475,3.134 5.139,3.206 4.79,3.237 4.447,3.189 m 8.63,0.139 c -0.2,-0.12 -0.403,-0.233 -0.608,-0.343 0.095,-0.368 0.027,-0.762 -0.123,-1.107 0.061,0.042 0.12,0.088 0.175,0.137 0.098,-0.103 0.239,-0.016 0.337,0.041 0.453,0.28 0.568,0.908 0.405,1.385 C 13.202,3.403 13.139,3.365 13.077,3.328 M -3.573,3.781 C -3.813,3.642 -4.025,3.421 -4.08,3.14 -4.144,2.806 -4.012,2.448 -3.768,2.216 -3.612,2.064 -3.405,1.975 -3.193,1.935 L -3.191,1.93 c 0.128,-0.009 0.262,-0.05 0.389,-0.016 0.445,0.013 0.88,0.179 1.235,0.444 0.265,0.203 0.497,0.5 0.499,0.848 0.01,0.172 -0.093,0.322 -0.202,0.445 C -1.506,3.897 -1.848,4.008 -2.18,4.048 -2.655,4.097 -3.155,4.022 -3.573,3.781 M 13.993,3.978 C 13.895,3.897 13.799,3.816 13.695,3.743 13.831,3.504 13.777,3.217 13.738,2.96 c 0.039,0.047 0.078,0.093 0.117,0.14 0.004,-0.025 0.01,-0.075 0.014,-0.1 0.069,0.024 0.138,0.064 0.167,0.136 0.083,0.183 0.124,0.386 0.119,0.587 0.004,0.125 -0.042,0.245 -0.029,0.37 C 14.081,4.055 14.037,4.017 13.993,3.978 M 0.358,4.927 C 0.367,4.82 0.371,4.713 0.371,4.606 0.355,4.521 0.311,4.447 0.25,4.386 0.236,4.455 0.216,4.523 0.191,4.589 0.152,4.69 0.116,4.792 0.079,4.893 -0.688,4.793 -1.439,4.575 -2.138,4.245 -2.15,4.26 -2.173,4.29 -2.184,4.305 -2.237,4.275 -2.29,4.245 -2.343,4.215 -2.136,4.21 -1.93,4.18 -1.729,4.128 -1.56,4.079 -1.396,4.013 -1.247,3.919 l 0.005,0.002 C -1.159,3.858 -1.079,3.79 -1.006,3.714 -0.817,3.49 -0.786,3.166 -0.898,2.899 -1.102,2.398 -1.524,1.99 -2.032,1.802 -2.233,1.731 -2.443,1.689 -2.656,1.68 -2.896,1.671 -3.136,1.705 -3.364,1.779 -3.53,1.839 -3.684,1.925 -3.823,2.033 -3.802,1.798 -3.736,1.567 -3.631,1.356 -3.727,1.311 -3.853,1.201 -3.769,1.089 c 0.114,-0.119 0.287,-0.15 0.442,-0.181 0.414,-0.509 0.968,-0.885 1.549,-1.18 0.477,-0.242 0.979,-0.433 1.498,-0.565 -0.045,0.139 -0.077,0.28 -0.105,0.422 -0.025,0.127 -0.039,0.257 -0.074,0.382 -0.115,0.091 -0.204,0.21 -0.23,0.358 -0.005,0.098 0.009,0.199 0.061,0.285 -0.012,-0.109 -0.023,-0.218 0.004,-0.326 0.066,-0.146 0.207,-0.256 0.367,-0.274 0.094,-0.011 0.18,0.036 0.262,0.076 0.1,0.057 0.202,0.123 0.32,0.13 C 0.456,0.209 0.514,0.074 0.58,-0.019 l 0.003,0 c 0.131,-0.148 0.328,-0.256 0.529,-0.227 0.105,0.013 0.192,0.079 0.266,0.149 0.065,0.082 0.118,0.172 0.158,0.268 C 1.541,0.172 1.552,0.174 1.557,0.174 1.552,-0.038 1.402,-0.218 1.216,-0.305 1.199,-0.397 1.169,-0.485 1.141,-0.573 1.068,-0.719 0.991,-0.862 0.897,-0.995 0.854,-1.026 0.912,-1.032 0.932,-1.035 1.247,-1.064 1.563,-1.077 1.879,-1.087 2.671,-1.111 3.47,-1.099 4.25,-0.947 4.795,-0.841 5.33,-0.678 5.835,-0.448 6.23,-0.26 6.613,-0.02 6.893,0.322 7.143,0.641 7.256,1.076 7.145,1.471 7.056,1.773 6.915,2.057 6.75,2.325 6.8,2.137 6.846,1.943 6.817,1.748 6.807,1.626 6.755,1.514 6.713,1.402 l 0,-0.024 -0.014,0 C 6.564,1.158 6.362,0.985 6.128,0.876 5.34,0.511 4.328,0.714 3.743,1.358 3.491,1.642 3.258,1.989 3.263,2.382 3.27,2.7 3.495,2.966 3.762,3.114 4.211,3.365 4.744,3.426 5.25,3.381 5.471,3.351 5.694,3.307 5.897,3.21 5.967,3.176 6.039,3.147 6.113,3.123 5.913,3.349 5.679,3.542 5.442,3.728 5.378,3.777 5.309,3.82 5.239,3.86 4.25,4.432 3.139,4.784 2.005,4.912 1.97,4.818 1.936,4.724 1.901,4.63 1.868,4.538 1.836,4.445 1.807,4.352 1.728,4.428 1.702,4.536 1.691,4.641 1.695,4.741 1.702,4.84 1.712,4.94 1.261,4.973 0.808,4.968 0.358,4.927 M -1.027,5.458 C -1.082,5.341 -0.885,5.384 -0.818,5.39 -0.591,5.398 -0.366,5.434 -0.14,5.457 -0.155,5.489 -0.172,5.521 -0.19,5.552 -0.202,5.588 -0.214,5.624 -0.227,5.66 -0.234,5.675 -0.248,5.705 -0.255,5.72 -0.515,5.643 -0.782,5.576 -1.027,5.458 m 0.31,0.248 c 0.136,0.046 0.271,0.096 0.406,0.143 -0.014,0.034 -0.029,0.067 -0.043,0.1 C -0.477,5.871 -0.601,5.795 -0.717,5.706 M 2.43,6.002 C 2.424,5.982 2.412,5.941 2.406,5.921 L 2.4,5.922 C 2.388,5.893 2.375,5.865 2.363,5.836 2.35,5.802 2.336,5.767 2.323,5.732 2.312,5.707 2.302,5.682 2.292,5.657 2.273,5.609 2.255,5.562 2.236,5.514 3.209,5.43 4.18,5.209 5.06,4.777 6.16,4.251 7.087,3.395 7.741,2.37 7.78,2.315 7.852,2.204 7.923,2.279 8.014,2.473 7.981,2.698 7.962,2.905 7.912,3.348 7.618,3.711 7.316,4.018 6.849,4.474 6.294,4.831 5.713,5.124 4.691,5.629 3.568,5.932 2.43,6.002 M 0.098,5.818 C 0.102,5.802 0.11,5.77 0.113,5.754 L 0.12,5.755 C 0.136,5.711 0.152,5.666 0.168,5.622 0.182,5.578 0.196,5.534 0.21,5.49 c 0.545,0.049 1.093,0.068 1.64,0.044 0.019,0.061 0.038,0.121 0.056,0.182 0.019,0.061 0.04,0.121 0.06,0.182 l 0.004,0 C 1.984,5.94 1.997,5.982 2.011,6.023 1.368,6.023 0.726,5.959 0.098,5.818 M -0.044,6.151 C -0.031,6.121 -0.018,6.092 -0.005,6.062 0.01,6.026 0.025,5.989 0.04,5.953 0.71,6.138 1.403,6.241 2.098,6.252 2.128,6.325 2.158,6.398 2.188,6.472 2.23,6.571 2.273,6.67 2.316,6.769 2.386,6.925 2.463,7.079 2.532,7.236 2.604,7.354 2.655,7.484 2.724,7.604 1.761,7.203 0.838,6.709 -0.044,6.151 M 8.027,7.833 C 7.284,7.678 6.556,7.441 5.883,7.088 5.557,6.91 5.231,6.71 4.99,6.422 4.892,6.302 4.809,6.148 4.844,5.989 4.883,5.84 5.018,5.743 5.154,5.689 5.801,5.434 6.415,5.096 6.969,4.676 7.384,4.356 7.774,3.992 8.067,3.554 8.229,3.305 8.379,3.023 8.37,2.717 8.37,2.593 8.302,2.487 8.251,2.379 c 0.237,0.042 0.46,0.133 0.685,0.213 0.846,0.317 1.676,0.672 2.499,1.044 0.576,0.265 1.152,0.532 1.698,0.855 0.133,0.076 0.263,0.169 0.339,0.305 0.124,0.208 0.124,0.464 0.076,0.695 -0.106,0.458 -0.385,0.855 -0.699,1.196 -0.383,0.41 -0.839,0.749 -1.33,1.018 -0.305,0.122 -0.63,0.188 -0.953,0.238 C 9.722,8.064 8.86,8.001 8.027,7.833 M 3.506,7.906 C 3.436,7.878 3.358,7.864 3.296,7.82 3.238,7.729 3.193,7.63 3.143,7.534 3.008,7.281 2.887,7.02 2.764,6.759 2.725,6.674 2.686,6.588 2.649,6.502 l -0.005,0 C 2.61,6.416 2.573,6.331 2.536,6.246 2.772,6.233 3.009,6.21 3.243,6.247 3.422,6.272 3.595,6.331 3.761,6.399 4.992,6.923 6.226,7.447 7.505,7.84 8.302,8.085 9.119,8.277 9.952,8.342 9.874,8.363 9.798,8.391 9.719,8.402 9.352,8.499 8.977,8.559 8.601,8.601 6.877,8.781 5.131,8.481 3.506,7.906 m -9.997,1.78 C -6.65,9.602 -6.774,9.455 -6.827,9.282 -6.87,9.167 -6.877,9.041 -6.853,8.921 -6.84,8.866 -6.824,8.811 -6.797,8.761 -6.671,8.45 -6.299,8.28 -5.978,8.354 c 0.292,0.055 0.535,0.306 0.572,0.602 0.035,0.228 -0.05,0.471 -0.223,0.626 -0.225,0.215 -0.591,0.255 -0.862,0.104 M 8.352,10.398 C 8.201,10.018 8.287,9.535 8.61,9.27 8.784,9.124 9.027,9.062 9.248,9.12 9.518,9.186 9.735,9.408 9.825,9.668 9.849,9.73 9.867,9.794 9.875,9.86 9.903,10.011 9.898,10.169 9.85,10.315 9.776,10.662 9.454,10.958 9.09,10.949 8.756,10.951 8.465,10.7 8.352,10.398 M 5.233,10.383 C 4.491,9.746 3.926,8.932 3.443,8.089 5.129,8.665 6.923,8.959 8.705,8.843 8.37,8.987 8.088,9.26 7.961,9.605 c -0.094,0.25 -0.085,0.541 0.045,0.777 0.144,0.266 0.398,0.455 0.666,0.583 0.021,0.006 0.078,0.041 0.027,0.052 C 8.245,11.2 7.753,11.301 7.262,11.272 6.505,11.232 5.801,10.869 5.233,10.383 m 2.475,1.409 0.519,0 C 8.732,11.755 9.274,11.652 9.656,11.294 9.947,11.029 10.06,10.62 10.035,10.238 10.01,9.839 9.936,9.42 9.691,9.094 9.582,8.946 9.419,8.851 9.248,8.792 10.332,8.672 11.406,8.39 12.381,7.896 12.908,7.627 13.406,7.292 13.821,6.868 14.169,6.506 14.463,6.071 14.566,5.572 14.627,5.29 14.609,4.993 14.52,4.718 14.701,4.275 14.662,3.774 14.516,3.328 14.386,2.928 14.137,2.557 13.781,2.325 13.68,2.257 13.555,2.263 13.439,2.276 13.272,2.025 13.069,1.798 12.835,1.606 13.318,1.458 13.784,1.241 14.185,0.931 14.496,0.689 14.766,0.38 14.91,0.009 c 0.067,-0.17 0.099,-0.351 0.119,-0.532 l 0,-0.217 c -0.015,-0.105 -0.034,-0.218 -0.105,-0.303 -0.08,-0.099 -0.245,-0.121 -0.34,-0.034 -0.046,0.046 -0.03,0.117 -0.032,0.175 0.024,0.222 -0.076,0.428 -0.14,0.634 -0.136,0.406 -0.379,0.783 -0.734,1.028 -0.343,0.264 -0.776,0.348 -1.171,0.504 -0.154,0.072 -0.329,0.052 -0.485,0.118 -0.131,-0.15 -0.279,-0.283 -0.442,-0.398 0.533,-0.185 1.049,-0.441 1.471,-0.82 0.367,-0.324 0.651,-0.761 0.717,-1.252 0.026,-0.227 0.054,-0.479 -0.063,-0.686 -0.077,-0.142 -0.318,-0.185 -0.412,-0.04 -0.043,0.129 0.015,0.269 -0.026,0.4 -0.106,0.363 -0.221,0.732 -0.439,1.046 -0.202,0.294 -0.489,0.522 -0.804,0.685 C 11.786,0.426 11.534,0.5 11.288,0.588 11.148,0.635 11.01,0.709 10.858,0.691 10.762,0.682 10.673,0.719 10.588,0.757 10.439,0.623 10.27,0.514 10.097,0.412 10.202,0.354 10.32,0.325 10.43,0.277 c 0.492,-0.205 0.965,-0.472 1.357,-0.837 0.365,-0.335 0.655,-0.768 0.754,-1.259 0.051,-0.271 0.087,-0.56 -0.003,-0.826 -0.038,-0.118 -0.134,-0.21 -0.254,-0.238 l -0.106,0 c -0.067,0.021 -0.147,0.048 -0.165,0.125 -0.032,0.142 0.026,0.29 -0.018,0.431 -0.132,0.45 -0.277,0.911 -0.568,1.287 -0.236,0.308 -0.556,0.546 -0.902,0.716 C 10.043,-0.125 9.537,0.011 9.059,0.218 8.643,-0.041 8.138,-0.072 7.661,-0.068 7.535,-0.071 7.411,-0.044 7.293,-0.001 6.959,-0.398 6.515,-0.69 6.049,-0.909 5.61,-1.109 5.149,-1.26 4.68,-1.374 3.943,-1.549 3.182,-1.602 2.426,-1.605 c -0.772,0.017 -1.549,0.033 -2.312,0.171 -0.917,0.155 -1.796,0.502 -2.597,0.971 -0.064,-0.21 -0.111,-0.425 -0.156,-0.64 -0.031,-0.145 0.01,-0.294 -0.016,-0.438 -0.021,-0.12 -0.18,-0.162 -0.267,-0.085 -0.117,0.101 -0.134,0.268 -0.15,0.412 -0.022,0.357 0.03,0.716 0.135,1.056 -0.225,0.171 -0.44,0.356 -0.627,0.567 -0.197,-0.191 -0.357,-0.421 -0.469,-0.672 -0.155,-0.347 -0.239,-0.719 -0.318,-1.089 -0.034,-0.152 0.009,-0.309 -0.021,-0.46 -0.027,-0.126 -0.208,-0.148 -0.286,-0.057 -0.106,0.121 -0.121,0.292 -0.132,0.445 -0.013,0.466 0.075,0.939 0.287,1.356 0.159,0.317 0.383,0.599 0.642,0.84 -0.329,0.432 -0.502,0.978 -0.469,1.521 0.008,0.175 0.047,0.347 0.081,0.518 0.101,0.236 0.162,0.488 0.286,0.715 0.112,0.138 0.192,0.315 0.352,0.405 0.184,0.059 0.293,0.232 0.444,0.341 0.183,0.129 0.363,0.264 0.558,0.375 0.12,0.071 0.25,0.127 0.359,0.215 0.576,0.465 1.175,0.903 1.797,1.304 -0.261,0.556 -0.55,1.101 -0.893,1.611 -0.371,0.549 -0.801,1.067 -1.33,1.471 C -3.154,9.618 -3.725,9.88 -4.328,9.95 -4.814,10.011 -5.309,9.946 -5.774,9.802 -5.53,9.69 -5.282,9.545 -5.141,9.308 -5.016,9.102 -5.034,8.83 -5.16,8.63 -5.341,8.335 -5.667,8.14 -6.008,8.095 -6.258,8.06 -6.529,8.139 -6.699,8.331 -6.888,8.539 -6.954,8.825 -6.983,9.097 l 0,0.317 c 0.039,0.255 0.169,0.5 0.384,0.649 0.372,0.267 0.847,0.32 1.292,0.335 0.549,10e-4 1.1,-0.07 1.626,-0.23 0.734,-0.241 1.346,-0.747 1.869,-1.301 0.685,-0.739 1.234,-1.596 1.671,-2.501 0.957,0.594 1.963,1.11 3.014,1.513 0.6,1.058 1.305,2.079 2.229,2.882 0.383,0.327 0.807,0.616 1.283,0.787 0.426,0.147 0.875,0.21 1.323,0.244"
             style="fill:#110f0d;fill-opacity:1;fill-rule:nonzero;stroke:none"
             id="path4294"
             inkscape:connector-curvature="0" /></g><g
           id="g4296"
           transform="translate(117.9945,33.5498)"><path
             d="m 0,0 c -0.045,-0.038 -0.089,-0.076 -0.133,-0.115 -0.097,-0.081 -0.194,-0.162 -0.298,-0.235 0.136,-0.239 0.082,-0.526 0.043,-0.783 0.039,0.046 0.078,0.093 0.117,0.14 0.004,-0.025 0.01,-0.075 0.014,-0.1 0.069,0.024 0.138,0.064 0.167,0.136 0.083,0.183 0.124,0.386 0.12,0.587 C 0.033,-0.245 -0.013,-0.125 0,0"
             style="fill:#67bf30;fill-opacity:1;fill-rule:nonzero;stroke:none"
             id="path4298"
             inkscape:connector-curvature="0" /></g><g
           id="g4300"
           transform="translate(116.9454,32.785)"><path
             d="m 0,0 c -0.199,-0.12 -0.403,-0.234 -0.608,-0.344 0.096,-0.368 0.027,-0.761 -0.123,-1.106 0.061,0.042 0.12,0.087 0.175,0.137 0.098,-0.103 0.239,-0.016 0.338,0.041 0.452,0.279 0.568,0.908 0.405,1.385 C 0.125,0.074 0.063,0.037 0,0"
             style="fill:#67bf30;fill-opacity:1;fill-rule:nonzero;stroke:none"
             id="path4302"
             inkscape:connector-curvature="0" /></g><g
           id="g4304"
           transform="translate(115.9884,31.2213)"><path
             d="M 0,0 C 0.135,0.184 0.269,0.413 0.215,0.649 0.152,0.798 0.029,0.929 -0.13,0.974 -0.171,0.954 -0.211,0.933 -0.252,0.913 -0.487,0.807 -0.721,0.698 -0.956,0.593 c 0.092,-0.38 0.013,-0.783 -0.182,-1.117 0.05,0.03 0.119,0.041 0.157,0.086 0.08,-0.052 0.178,-0.045 0.267,-0.022 0.173,0.047 0.338,0.124 0.488,0.223 -0.086,0.063 -0.196,0.168 -0.101,0.275 C -0.218,0.026 -0.109,0.016 0,0"
             style="fill:#67bf30;fill-opacity:1;fill-rule:nonzero;stroke:none"
             id="path4306"
             inkscape:connector-curvature="0" /></g><g
           id="g4308"
           transform="translate(114.6601,31.5961)"><path
             d="m 0,0 c -0.086,0.047 -0.177,-0.013 -0.258,-0.043 l -0.006,-0.011 c -0.24,-0.073 -0.47,-0.175 -0.708,-0.255 0.054,-0.348 -0.016,-0.715 -0.185,-1.024 0.012,0 0.036,0 0.048,0 0.018,0 0.051,10e-4 0.068,0.002 0.004,-0.063 0.079,-0.08 0.131,-0.076 0.204,0.017 0.396,0.101 0.574,0.198 -0.058,0.048 -0.127,0.089 -0.164,0.156 -0.025,0.048 0.007,0.097 0.019,0.143 0.146,-0.004 0.291,-0.019 0.435,-0.043 0.149,0.176 0.26,0.41 0.216,0.645 C 0.146,-0.193 0.106,-0.064 0,0"
             style="fill:#67bf30;fill-opacity:1;fill-rule:nonzero;stroke:none"
             id="path4310"
             inkscape:connector-curvature="0" /></g><g
           id="g4312"
           transform="translate(113.2949,31.1145)"><path
             d="m 0,0 c -0.118,0.017 -0.236,-0.027 -0.343,-0.073 -0.459,-0.101 -0.926,-0.252 -1.402,-0.177 0.042,-0.314 -0.006,-0.635 -0.12,-0.931 0.017,-0.006 0.049,-0.019 0.064,-0.026 l 0.038,-0.021 c 0.038,-0.111 0.161,-0.151 0.268,-0.163 0.273,-0.026 0.546,0.034 0.806,0.115 -0.063,0.058 -0.146,0.114 -0.158,0.206 0.009,0.039 0.028,0.074 0.045,0.11 0.188,-0.007 0.375,-0.038 0.561,-0.06 0.255,0.191 0.416,0.516 0.392,0.836 C 0.148,-0.098 0.09,-0.012 0,0"
             style="fill:#67bf30;fill-opacity:1;fill-rule:nonzero;stroke:none"
             id="path4314"
             inkscape:connector-curvature="0" /></g><g
           id="g4316"
           transform="translate(100.6203,33.2207)"><path
             d="m 0,0 c 0.4,0.187 0.877,0.154 1.275,-0.023 0.252,-0.112 0.493,-0.293 0.591,-0.56 -0.168,0.115 -0.326,0.245 -0.509,0.337 -0.354,0.19 -0.781,0.27 -1.17,0.141 0.187,-0.009 0.376,-0.106 0.44,-0.291 C 0.646,-0.47 0.656,-0.547 0.659,-0.624 0.62,-0.793 0.497,-0.932 0.332,-0.988 0.206,-1 0.067,-0.994 -0.038,-0.914 c -0.109,0.071 -0.164,0.196 -0.189,0.32 -0.001,0.126 0.049,0.244 0.113,0.351 C -0.33,-0.38 -0.5,-0.573 -0.647,-0.779 -0.545,-0.449 -0.317,-0.149 0,0"
             style="fill:#ffffff;fill-opacity:1;fill-rule:nonzero;stroke:none"
             id="path4318"
             inkscape:connector-curvature="0" /></g><g
           id="g4320"
           transform="translate(108.5116,32.5348)"><path
             d="M 0,0 C 0.478,0.091 0.978,-0.056 1.374,-0.326 1.615,-0.493 1.84,-0.726 1.889,-1.027 1.597,-0.693 1.252,-0.385 0.828,-0.236 0.627,-0.164 0.414,-0.135 0.202,-0.142 0.343,-0.254 0.428,-0.446 0.351,-0.62 0.337,-0.652 0.322,-0.683 0.305,-0.713 0.21,-0.832 0.054,-0.868 -0.091,-0.852 c -0.084,0.017 -0.152,0.073 -0.211,0.131 -0.108,0.129 -0.094,0.309 -0.035,0.456 C -0.528,-0.35 -0.696,-0.474 -0.857,-0.606 -0.676,-0.293 -0.356,-0.065 0,0"
             style="fill:#ffffff;fill-opacity:1;fill-rule:nonzero;stroke:none"
             id="path4322"
             inkscape:connector-curvature="0" /></g><g
           id="g4324"
           transform="translate(112.4784,38.7265)"><path
             d="M 0,0 C 0.174,-0.146 0.417,-0.208 0.638,-0.15 0.908,-0.083 1.126,0.139 1.215,0.399 1.239,0.46 1.257,0.525 1.265,0.59 1.293,0.741 1.288,0.9 1.24,1.046 1.166,1.392 0.844,1.688 0.48,1.679 0.146,1.681 -0.144,1.43 -0.258,1.128 -0.409,0.748 -0.323,0.265 0,0"
             style="fill:#d8bd12;fill-opacity:1;fill-rule:nonzero;stroke:none"
             id="path4326"
             inkscape:connector-curvature="0" /></g><g
           id="g4328"
           transform="translate(98.2401,39.0383)"><path
             d="M 0,0 C -0.226,0.215 -0.592,0.255 -0.863,0.105 -1.021,0.02 -1.146,-0.127 -1.199,-0.3 c -0.042,-0.114 -0.05,-0.241 -0.026,-0.361 0.013,-0.055 0.029,-0.11 0.056,-0.16 0.127,-0.311 0.499,-0.481 0.82,-0.407 0.291,0.055 0.535,0.307 0.572,0.602 C 0.258,-0.397 0.172,-0.155 0,0"
             style="fill:#d8bd12;fill-opacity:1;fill-rule:nonzero;stroke:none"
             id="path4330"
             inkscape:connector-curvature="0" /></g><g
           id="g4332"
           transform="translate(106.5128,35.9584)"><path
             d="m 0,0 c -0.035,-0.086 -0.071,-0.171 -0.108,-0.256 0.236,-0.013 0.473,-0.035 0.707,0.001 0.179,0.025 0.352,0.084 0.518,0.153 C 2.348,0.421 3.582,0.945 4.861,1.339 5.657,1.583 6.475,1.776 7.307,1.84 7.23,1.862 7.154,1.889 7.074,1.9 6.708,1.998 6.333,2.058 5.956,2.099 4.233,2.279 2.487,1.979 0.861,1.404 0.791,1.376 0.714,1.362 0.652,1.319 0.594,1.227 0.549,1.129 0.499,1.032 0.364,0.779 0.242,0.518 0.12,0.258 0.081,0.172 0.042,0.086 0.005,0 L 0,0 z"
             style="fill:#d8bd12;fill-opacity:1;fill-rule:nonzero;stroke:none"
             id="path4334"
             inkscape:connector-curvature="0" /></g><g
           id="g4336"
           transform="translate(117.417,34.9479)"><path
             d="m 0,0 c -0.107,0.458 -0.385,0.855 -0.699,1.196 -0.383,0.41 -0.839,0.749 -1.33,1.018 -0.305,0.122 -0.63,0.188 -0.954,0.237 C -3.827,2.573 -4.689,2.51 -5.522,2.342 -6.264,2.187 -6.993,1.949 -7.665,1.597 -7.991,1.418 -8.317,1.219 -8.558,0.93 -8.656,0.811 -8.739,0.657 -8.704,0.498 c 0.038,-0.149 0.174,-0.247 0.31,-0.3 0.646,-0.255 1.261,-0.593 1.814,-1.014 0.416,-0.319 0.805,-0.683 1.099,-1.121 0.161,-0.25 0.312,-0.531 0.302,-0.837 0,-0.124 -0.068,-0.23 -0.118,-0.338 0.236,0.042 0.46,0.133 0.685,0.213 0.846,0.317 1.676,0.672 2.498,1.043 0.576,0.266 1.153,0.533 1.699,0.856 0.132,0.076 0.262,0.169 0.338,0.305 C 0.048,-0.487 0.047,-0.231 0,0"
             style="fill:#d8bd12;fill-opacity:1;fill-rule:nonzero;stroke:none"
             id="path4338"
             inkscape:connector-curvature="0" /></g><g
           id="g4340"
           transform="translate(103.9085,35.4098)"><path
             d="m 0,0 c 0.67,0.185 1.363,0.288 2.058,0.299 0.031,0.073 0.06,0.146 0.09,0.219 0.043,0.1 0.086,0.199 0.128,0.298 0.07,0.156 0.147,0.31 0.216,0.467 C 2.564,1.4 2.615,1.531 2.684,1.651 1.721,1.25 0.798,0.756 -0.083,0.198 -0.071,0.168 -0.058,0.139 -0.044,0.109 -0.03,0.072 -0.015,0.036 0,0"
             style="fill:#d8bd12;fill-opacity:1;fill-rule:nonzero;stroke:none"
             id="path4342"
             inkscape:connector-curvature="0" /></g><g
           id="g4344"
           transform="translate(103.9888,35.2119)"><path
             d="m 0,0 c 0.016,-0.044 0.031,-0.089 0.048,-0.134 0.014,-0.043 0.028,-0.087 0.042,-0.131 0.545,0.049 1.093,0.067 1.64,0.044 0.019,0.061 0.037,0.121 0.056,0.182 0.019,0.061 0.04,0.121 0.06,0.182 l 0.004,0 c 0.013,0.042 0.027,0.084 0.041,0.125 -0.643,0 -1.285,-0.064 -1.913,-0.205 0.004,-0.016 0.011,-0.048 0.015,-0.065 L 0,0 z"
             style="fill:#d8bd12;fill-opacity:1;fill-rule:nonzero;stroke:none"
             id="path4346"
             inkscape:connector-curvature="0" /></g><g
           id="g4348"
           transform="translate(111.185,33.4749)"><path
             d="M 0,0 C -0.467,0.456 -1.022,0.813 -1.603,1.105 -2.625,1.611 -3.748,1.914 -4.887,1.984 -4.893,1.963 -4.905,1.923 -4.911,1.903 l -0.005,0 C -4.929,1.875 -4.941,1.847 -4.953,1.818 -4.967,1.784 -4.98,1.749 -4.994,1.714 -5.004,1.689 -5.014,1.664 -5.025,1.639 -5.043,1.591 -5.062,1.543 -5.08,1.496 -4.107,1.411 -3.137,1.19 -2.256,0.759 c 1.099,-0.526 2.027,-1.382 2.68,-2.407 0.039,-0.055 0.111,-0.167 0.182,-0.092 0.092,0.194 0.059,0.42 0.04,0.626 C 0.596,-0.67 0.302,-0.307 0,0"
             style="fill:#d8bd12;fill-opacity:1;fill-rule:nonzero;stroke:none"
             id="path4350"
             inkscape:connector-curvature="0" /></g><g
           id="g4352"
           transform="translate(103.5145,35.4061)"><path
             d="m 0,0 c -0.123,-0.078 -0.247,-0.155 -0.363,-0.243 0.136,0.046 0.271,0.096 0.407,0.143 C 0.029,-0.067 0.014,-0.033 0,0"
             style="fill:#d8bd12;fill-opacity:1;fill-rule:nonzero;stroke:none"
             id="path4354"
             inkscape:connector-curvature="0" /></g><g
           id="g4356"
           transform="translate(100.2574,33.3882)"><path
             d="M 0,0 C 0.184,0.058 0.293,0.231 0.445,0.34 0.286,0.24 0.145,0.118 0,0"
             style="fill:#d8bd12;fill-opacity:1;fill-rule:nonzero;stroke:none"
             id="path4358"
             inkscape:connector-curvature="0" /></g><g
           id="g4360"
           transform="translate(99.9058,32.9826)"><path
             d="M 0,0 C -0.153,-0.209 -0.261,-0.455 -0.286,-0.715 -0.185,-0.479 -0.124,-0.227 0,0"
             style="fill:#d8bd12;fill-opacity:1;fill-rule:nonzero;stroke:none"
             id="path4362"
             inkscape:connector-curvature="0" /></g><g
           id="g4364"
           transform="translate(109.2359,29.3163)"><path
             d="m 0,0 c -0.4,0.016 -0.795,0.111 -1.17,0.248 -0.204,0.079 -0.409,0.167 -0.58,0.306 -0.058,0.051 -0.129,0.119 -0.108,0.205 0.051,0.086 0.161,0.1 0.251,0.11 0.31,0.022 0.618,-0.037 0.917,-0.112 C -0.375,0.672 -0.061,0.564 0.216,0.388 0.307,0.333 0.376,0.25 0.434,0.163 0.364,-0.011 0.153,0.01 0,0 M 1.383,2.465 C 1.432,2.278 1.479,2.083 1.45,1.889 1.439,1.766 1.388,1.655 1.345,1.542 L 1.346,1.519 1.332,1.518 C 1.196,1.299 0.994,1.126 0.761,1.017 c -0.789,-0.366 -1.8,-0.162 -2.385,0.482 -0.252,0.283 -0.485,0.63 -0.48,1.024 0.007,0.318 0.232,0.584 0.499,0.732 0.449,0.251 0.982,0.312 1.488,0.267 C 0.104,3.492 0.326,3.447 0.529,3.35 0.599,3.317 0.671,3.287 0.745,3.263 0.546,3.489 0.312,3.682 0.075,3.868 0.011,3.918 -0.059,3.96 -0.129,4.001 -1.118,4.572 -2.229,4.925 -3.362,5.052 -3.397,4.958 -3.431,4.864 -3.466,4.77 -3.499,4.678 -3.531,4.586 -3.56,4.492 -3.639,4.568 -3.665,4.676 -3.677,4.782 -3.672,4.881 -3.665,4.981 -3.655,5.08 -4.106,5.113 -4.559,5.108 -5.01,5.067 -5,4.961 -4.996,4.853 -4.996,4.746 -5.013,4.661 -5.056,4.587 -5.118,4.527 -5.131,4.596 -5.151,4.663 -5.176,4.729 -5.215,4.83 -5.251,4.932 -5.289,5.034 -6.055,4.933 -6.806,4.715 -7.506,4.385 -7.517,4.4 -7.54,4.43 -7.551,4.446 -7.604,4.415 -7.657,4.385 -7.71,4.355 -7.503,4.351 -7.297,4.32 -7.096,4.269 -6.928,4.219 -6.763,4.153 -6.615,4.059 L -6.61,4.061 C -6.526,3.998 -6.446,3.931 -6.374,3.855 -6.184,3.631 -6.153,3.306 -6.265,3.04 -6.469,2.539 -6.891,2.13 -7.399,1.942 -7.6,1.872 -7.81,1.83 -8.023,1.82 c -0.24,-0.009 -0.481,0.025 -0.709,0.1 -0.165,0.06 -0.319,0.146 -0.458,0.253 0.021,-0.235 0.086,-0.465 0.191,-0.677 0.124,0.06 0.258,0.096 0.392,0.122 0.225,0.04 0.455,0.047 0.684,0.035 0.175,-0.017 0.355,-0.042 0.515,-0.121 0.062,-0.033 0.132,-0.083 0.134,-0.16 C -7.283,1.272 -7.382,1.22 -7.459,1.175 -7.667,1.084 -7.893,1.049 -8.117,1.026 -8.31,1.021 -8.503,1.021 -8.694,1.049 c 0.413,-0.51 0.968,-0.886 1.549,-1.181 0.477,-0.241 0.979,-0.433 1.498,-0.564 -0.045,0.138 -0.077,0.28 -0.105,0.422 -0.026,0.127 -0.039,0.257 -0.074,0.381 -0.115,0.091 -0.204,0.211 -0.23,0.358 -0.005,0.099 0.009,0.199 0.061,0.285 -0.012,-0.108 -0.024,-0.218 0.004,-0.325 0.066,-0.147 0.206,-0.257 0.367,-0.275 0.094,-0.01 0.18,0.037 0.261,0.077 0.1,0.056 0.203,0.122 0.321,0.13 0.131,-0.008 0.189,-0.142 0.255,-0.236 l 0.003,0 c 0.13,-0.147 0.327,-0.255 0.529,-0.227 0.105,0.014 0.191,0.079 0.266,0.15 0.065,0.081 0.118,0.172 0.158,0.268 0.005,0 0.015,0.002 0.02,0.003 -0.004,-0.212 -0.154,-0.392 -0.34,-0.48 -0.018,-0.091 -0.047,-0.179 -0.075,-0.268 -0.073,-0.145 -0.15,-0.289 -0.245,-0.421 -0.042,-0.031 0.016,-0.038 0.036,-0.041 0.314,-0.029 0.63,-0.042 0.947,-0.051 0.791,-0.024 1.59,-0.012 2.371,0.139 0.544,0.106 1.08,0.269 1.585,0.5 0.395,0.187 0.778,0.428 1.057,0.77 0.251,0.318 0.364,0.754 0.253,1.149 -0.09,0.301 -0.231,0.586 -0.395,0.853"
             style="fill:#d8bd12;fill-opacity:1;fill-rule:nonzero;stroke:none"
             id="path4366"
             inkscape:connector-curvature="0" /></g><g
           id="g4368"
           transform="translate(103.0502,34.8465)"><path
             d="M 0,0 C 0.227,0.008 0.452,0.044 0.679,0.067 0.663,0.1 0.646,0.131 0.629,0.162 0.617,0.199 0.604,0.234 0.592,0.27 0.585,0.285 0.57,0.315 0.563,0.33 0.303,0.254 0.036,0.187 -0.209,0.068 -0.264,-0.049 -0.067,-0.005 0,0"
             style="fill:#d8bd12;fill-opacity:1;fill-rule:nonzero;stroke:none"
             id="path4370"
             inkscape:connector-curvature="0" /></g><g
           id="g4372"
           transform="translate(101.9776,32.9744)"><path
             d="m 0,0 c -0.354,0.19 -0.781,0.271 -1.17,0.142 0.187,-0.01 0.376,-0.106 0.44,-0.291 0.019,-0.075 0.028,-0.152 0.031,-0.229 -0.038,-0.169 -0.162,-0.308 -0.326,-0.363 -0.127,-0.012 -0.265,-0.007 -0.371,0.074 -0.109,0.071 -0.163,0.196 -0.188,0.319 -10e-4,0.127 0.048,0.244 0.112,0.351 -0.216,-0.137 -0.385,-0.329 -0.532,-0.536 0.102,0.331 0.329,0.631 0.647,0.779 0.4,0.187 0.877,0.154 1.275,-0.023 C 0.17,0.112 0.411,-0.069 0.508,-0.336 0.341,-0.222 0.183,-0.092 0,0 m -0.289,0.53 c -0.475,0.049 -0.975,-0.025 -1.393,-0.267 -0.24,-0.139 -0.452,-0.36 -0.507,-0.64 -0.064,-0.334 0.068,-0.693 0.312,-0.924 0.156,-0.152 0.363,-0.242 0.575,-0.281 L -1.3,-1.588 c 0.128,-0.009 0.262,-0.05 0.389,-0.016 0.445,0.013 0.88,0.18 1.235,0.444 0.265,0.203 0.497,0.5 0.499,0.848 C 0.833,-0.14 0.73,0.011 0.621,0.133 0.385,0.38 0.043,0.491 -0.289,0.53"
             style="fill:#67bf30;fill-opacity:1;fill-rule:nonzero;stroke:none"
             id="path4374"
             inkscape:connector-curvature="0" /></g><g
           id="g4376"
           transform="translate(109.3391,32.2991)"><path
             d="m 0,0 c -0.2,0.072 -0.413,0.1 -0.625,0.093 0.14,-0.111 0.225,-0.303 0.149,-0.478 -0.014,-0.031 -0.03,-0.062 -0.046,-0.093 -0.095,-0.118 -0.251,-0.155 -0.397,-0.138 -0.083,0.017 -0.151,0.073 -0.211,0.13 -0.107,0.129 -0.093,0.31 -0.034,0.457 -0.191,-0.085 -0.36,-0.209 -0.521,-0.341 0.182,0.312 0.502,0.541 0.857,0.606 C -0.35,0.327 0.15,0.18 0.546,-0.09 0.787,-0.258 1.013,-0.49 1.061,-0.791 0.769,-0.457 0.425,-0.15 0,0 M 1.014,-0.206 C 0.735,0.053 0.376,0.217 0.005,0.292 -0.332,0.364 -0.681,0.395 -1.023,0.346 -1.23,0.315 -1.439,0.262 -1.622,0.159 -1.836,0.006 -1.999,-0.247 -1.988,-0.517 c 0.011,-0.262 0.157,-0.495 0.324,-0.687 0.31,-0.34 0.719,-0.608 1.177,-0.687 0.346,-0.053 0.716,-0.044 1.034,0.116 0.294,0.142 0.567,0.383 0.647,0.711 0.075,0.29 0.051,0.644 -0.18,0.858"
             style="fill:#67bf30;fill-opacity:1;fill-rule:nonzero;stroke:none"
             id="path4378"
             inkscape:connector-curvature="0" /></g><g
           id="g4380"
           transform="translate(100.6289,30.9339)"><path
             d="M 0,0 C 0.225,0.04 0.455,0.048 0.684,0.035 0.859,0.019 1.039,-0.006 1.199,-0.086 1.261,-0.118 1.331,-0.168 1.333,-0.245 1.324,-0.346 1.225,-0.398 1.148,-0.443 0.94,-0.533 0.714,-0.568 0.49,-0.591 0.297,-0.596 0.104,-0.597 -0.087,-0.569 c -0.155,0.03 -0.329,0.061 -0.442,0.181 -0.084,0.112 0.042,0.221 0.137,0.267 C -0.268,-0.061 -0.134,-0.026 0,0"
             style="fill:#ef2396;fill-opacity:1;fill-rule:nonzero;stroke:none"
             id="path4382"
             inkscape:connector-curvature="0" /></g><g
           id="g4384"
           transform="translate(107.3775,30.0751)"><path
             d="M 0,0 C 0.051,0.086 0.161,0.1 0.251,0.11 0.561,0.132 0.87,0.073 1.169,-0.002 1.484,-0.087 1.798,-0.194 2.074,-0.371 2.166,-0.425 2.234,-0.508 2.293,-0.596 2.223,-0.769 2.012,-0.749 1.858,-0.759 1.458,-0.742 1.063,-0.648 0.688,-0.51 0.484,-0.431 0.279,-0.344 0.108,-0.205 0.051,-0.154 -0.021,-0.085 0,0"
             style="fill:#ef2396;fill-opacity:1;fill-rule:nonzero;stroke:none"
             id="path4386"
             inkscape:connector-curvature="0" /></g><g
           id="g4388"><g
             id="g4390" /><g
             id="g4396"><g
               clip-path="url(#clipPath4392)"
               id="g4398"
               style="opacity:0.53999299"><g
                 transform="translate(113.5516,30.2629)"
                 id="g4400"><path
                   d="M 0,0 C 0.031,-0.072 -0.122,-0.046 -0.049,0 -0.037,0 -0.012,0 0,0"
                   style="fill:#1c1f15;fill-opacity:1;fill-rule:nonzero;stroke:none"
                   id="path4402"
                   inkscape:connector-curvature="0" /></g></g></g></g><g
           id="g4404"><g
             id="g4406" /><g
             id="g4412"><g
               clip-path="url(#clipPath4408)"
               id="g4414"
               style="opacity:0.38999903"><g
                 transform="translate(111.4944,29.9073)"
                 id="g4416"><path
                   d="M 0,0 C -0.015,-0.054 -0.124,-0.008 -0.064,0.026 -0.048,0.02 -0.016,0.007 0,0"
                   style="fill:#26321a;fill-opacity:1;fill-rule:nonzero;stroke:none"
                   id="path4418"
                   inkscape:connector-curvature="0" /></g></g></g></g><g
           id="g4420"
           transform="translate(104.539,29.264)"><path
             d="M 0,0 C -0.141,0.087 -0.174,0.297 -0.348,0.339 -0.473,0.34 -0.566,0.247 -0.67,0.193 -0.787,0.124 -0.93,0.116 -1.06,0.139 c 0.089,-0.218 0.125,-0.453 0.182,-0.681 0.065,-0.223 0.145,-0.495 0.383,-0.588 0.157,-0.073 0.337,-0.002 0.454,0.111 0.184,0.178 0.298,0.413 0.407,0.641 0.037,0.081 0.074,0.162 0.112,0.242 C 0.309,-0.137 0.144,-0.084 0,0"
             style="fill:#ef2396;fill-opacity:1;fill-rule:nonzero;stroke:none"
             id="path4422"
             inkscape:connector-curvature="0" /></g><path
           d="m 14.731,26.903 -1.533,0 0,5.822 1.533,0 0,-5.822 z"
           style="fill:#231f20;fill-opacity:1;fill-rule:nonzero;stroke:none"
           id="path4424"
           inkscape:connector-curvature="0" /><g
           id="g4426"
           transform="translate(12.6325,30.3867)"><path
             d="m 0,0 -1.997,0 0,2.338 -1.533,0 0,-5.822 1.533,0 0,2.199 1.997,0 L 0,0 z"
             style="fill:#231f20;fill-opacity:1;fill-rule:nonzero;stroke:none"
             id="path4428"
             inkscape:connector-curvature="0" /></g><g
           id="g4430"
           transform="translate(18.946,32.7247)"><path
             d="m 0,0 c 0.02,-0.545 0.026,-1.091 -0.002,-1.636 -0.027,-0.526 -0.076,-1.05 -0.206,-1.565 -0.132,-0.523 -0.393,-0.988 -0.75,-1.41 -0.316,-0.373 -0.69,-0.687 -1.138,-0.923 -0.412,-0.217 -0.854,-0.347 -1.332,-0.358 -0.022,-10e-4 -0.043,0 -0.07,0 -10e-4,0.017 -0.003,0.032 -0.003,0.046 0,0.255 10e-4,0.509 -10e-4,0.763 0,0.036 0.008,0.05 0.051,0.053 0.151,0.009 0.291,0.057 0.427,0.113 0.53,0.217 0.984,0.532 1.385,0.915 0.256,0.244 0.485,0.506 0.64,0.817 0.133,0.266 0.22,0.547 0.286,0.833 0.091,0.391 0.15,0.785 0.171,1.184 0.02,0.389 0.027,0.779 0.04,1.168 L 0,0 z"
             style="fill:#231f20;fill-opacity:1;fill-rule:nonzero;stroke:none"
             id="path4432"
             inkscape:connector-curvature="0" /></g><g
           id="g4434"
           transform="translate(19.1419,32.7247)"><path
             d="m 0,0 c -0.02,-0.545 -0.026,-1.091 0.002,-1.636 0.027,-0.526 0.076,-1.05 0.206,-1.565 0.132,-0.523 0.393,-0.988 0.75,-1.41 0.316,-0.373 0.69,-0.687 1.138,-0.923 0.412,-0.217 0.854,-0.347 1.332,-0.358 0.022,-10e-4 0.043,0 0.07,0 10e-4,0.017 0.003,0.032 0.003,0.046 0,0.255 -10e-4,0.509 10e-4,0.763 0,0.036 -0.008,0.05 -0.051,0.053 C 3.3,-5.021 3.16,-4.973 3.024,-4.917 2.494,-4.7 2.04,-4.385 1.639,-4.002 1.383,-3.758 1.154,-3.496 0.999,-3.185 0.866,-2.919 0.779,-2.638 0.713,-2.352 0.622,-1.961 0.563,-1.567 0.542,-1.168 0.522,-0.779 0.515,-0.389 0.502,0 L 0,0 z"
             style="fill:#231f20;fill-opacity:1;fill-rule:nonzero;stroke:none"
             id="path4436"
             inkscape:connector-curvature="0" /></g><g
           id="g4438"
           transform="translate(26.1963,32.7247)"><path
             d="m 0,0 -1.277,0 -0.194,0 -1.339,0 0,-5.822 1.533,0 0,4.382 0.967,0 c 0,0 0.511,0.062 0.527,-0.635 l -0.078,-3.747 1.595,0 0,3.917 C 1.734,-1.905 1.889,0 0,0"
             style="fill:#231f20;fill-opacity:1;fill-rule:nonzero;stroke:none"
             id="path4440"
             inkscape:connector-curvature="0" /></g><g
           id="g4442"
           transform="translate(30.7021,32.6628)"><path
             d="m 0,0 -1.958,0 0,-1.332 1.896,0 c 0,0 1.471,-0.031 1.471,-1.625 0,-1.595 -1.835,-1.513 -1.835,-1.513 l 0,2.457 -1.532,0 0,-3.747 1.532,0 c 0,0 3.43,-0.341 3.43,2.756 C 3.004,0.093 0,0 0,0"
             style="fill:#231f20;fill-opacity:1;fill-rule:nonzero;stroke:none"
             id="path4444"
             inkscape:connector-curvature="0" /></g><path
           d="m 37.747,26.903 -2.619,0 0,1.29 2.619,0 0,-1.29 z"
           style="fill:#231f20;fill-opacity:1;fill-rule:nonzero;stroke:none"
           id="path4446"
           inkscape:connector-curvature="0" /><g
           id="g4448"
           transform="translate(34.1085,32.6631)"><path
             d="m 0,0 1.595,0 0,-1.595 c 0,0 0.06,-0.867 0.734,-0.867 0.675,0 0.794,0.794 0.794,0.794 l 0,1.668 1.553,0 0,-1.765 c 0,0 -0.294,-1.967 -2.338,-1.967 C 0.294,-3.732 0,-1.866 0,-1.866 L 0,0 z"
             style="fill:#231f20;fill-opacity:1;fill-rule:nonzero;stroke:none"
             id="path4450"
             inkscape:connector-curvature="0" /></g></g></g></g></svg>