<?xml version="1.0" encoding="UTF-8" standalone="no"?>
<!-- Created with Inkscape (http://www.inkscape.org/) -->

<svg
   xmlns:dc="http://purl.org/dc/elements/1.1/"
   xmlns:cc="http://creativecommons.org/ns#"
   xmlns:rdf="http://www.w3.org/1999/02/22-rdf-syntax-ns#"
   xmlns:svg="http://www.w3.org/2000/svg"
   xmlns="http://www.w3.org/2000/svg"
   xmlns:sodipodi="http://sodipodi.sourceforge.net/DTD/sodipodi-0.dtd"
   xmlns:inkscape="http://www.inkscape.org/namespaces/inkscape"
   id="svg4509"
   version="1.1"
   inkscape:version="0.48.5 r10040"
   width="256"
   height="256"
   xml:space="preserve"
   sodipodi:docname="Atari - ST.svg"
   inkscape:export-filename="/Users/margetts/Desktop/BAXY RetroActive/png_marked/Atari - ST.png"
   inkscape:export-xdpi="90.099998"
   inkscape:export-ydpi="90.099998"><metadata
     id="metadata4515"><rdf:RDF><cc:Work
         rdf:about=""><dc:format>image/svg+xml</dc:format><dc:type
           rdf:resource="http://purl.org/dc/dcmitype/StillImage" /><dc:title></dc:title></cc:Work></rdf:RDF></metadata><defs
     id="defs4513"><clipPath
       clipPathUnits="userSpaceOnUse"
       id="clipPath4789"><path
         d="M 0,128 128,128 128,0 0,0 0,128 z"
         id="path4791"
         inkscape:connector-curvature="0" /></clipPath></defs><sodipodi:namedview
     pagecolor="#ffffff"
     bordercolor="#666666"
     borderopacity="1"
     objecttolerance="10"
     gridtolerance="10"
     guidetolerance="10"
     inkscape:pageopacity="0"
     inkscape:pageshadow="2"
     inkscape:window-width="1676"
     inkscape:window-height="1005"
     id="namedview4511"
     showgrid="false"
     inkscape:zoom="5.14375"
     inkscape:cx="24.495747"
     inkscape:cy="80"
     inkscape:window-x="4"
     inkscape:window-y="1"
     inkscape:window-maximized="1"
     inkscape:current-layer="g4517" /><g
     id="g4517"
     inkscape:groupmode="layer"
     inkscape:label="Atari - ST"
     transform="matrix(1.25,0,0,-1.25,0,256)"><g
       id="g4839"
       transform="translate(0,20.5179)"><g
         transform="matrix(1.6,0,0,1.6,200.7042,130.8021)"
         id="g4519"><path
           inkscape:connector-curvature="0"
           id="path4521"
           style="fill:#ffffff;fill-opacity:1;fill-rule:nonzero;stroke:none"
           d="m 0,0 -122.881,0 -2.559,0 0,-2.561 0,-16.349 0,-2.56 0,-7.712 0,-2.559 0,-26.849 0,-2.56 2.559,0 122.881,0 2.56,0 L 2.56,0 0,0 z" /></g><path
         inkscape:connector-curvature="0"
         id="path4523"
         style="fill:#b3b3b3;fill-opacity:1;fill-rule:nonzero;stroke:none"
         d="m 199.16788,79.29794 -193.536,0 0,23.552 193.536,0 0,-23.552 z" /><path
         inkscape:connector-curvature="0"
         id="path4525"
         style="fill:#bfbfbf;fill-opacity:1;fill-rule:nonzero;stroke:none"
         d="m 200.70388,100.54594 -196.608,0 0,26.16 196.608,0 0,-26.16 z" /><g
         transform="matrix(1.6,0,0,1.6,200.70388,82.95618)"
         id="g4527"><path
           inkscape:connector-curvature="0"
           id="path4529"
           style="fill:#bfbfbf;fill-opacity:1;fill-rule:nonzero;stroke:none"
           d="m 0,0 -115.68,0 -7.2,0 0,-28.686 122.88,0 L 0,0 z" /></g><g
         transform="matrix(1.6,0,0,1.6,21.03316,104.0429)"
         id="g4531"><path
           inkscape:connector-curvature="0"
           id="path4533"
           style="fill:#808080;fill-opacity:1;fill-rule:nonzero;stroke:none"
           d="m 0,0 16.596,14.164 -2.236,0 L -2.237,0 0,0 z" /></g><g
         transform="matrix(1.6,0,0,1.6,29.0082,104.0429)"
         id="g4535"><path
           inkscape:connector-curvature="0"
           id="path4537"
           style="fill:#808080;fill-opacity:1;fill-rule:nonzero;stroke:none"
           d="m 0,0 16.596,14.164 -2.236,0 L -2.237,0 0,0 z" /></g><g
         transform="matrix(1.6,0,0,1.6,36.9834,104.0429)"
         id="g4539"><path
           inkscape:connector-curvature="0"
           id="path4541"
           style="fill:#808080;fill-opacity:1;fill-rule:nonzero;stroke:none"
           d="m 0,0 16.596,14.164 -2.236,0 L -2.237,0 0,0 z" /></g><g
         transform="matrix(1.6,0,0,1.6,44.95844,104.0429)"
         id="g4543"><path
           inkscape:connector-curvature="0"
           id="path4545"
           style="fill:#808080;fill-opacity:1;fill-rule:nonzero;stroke:none"
           d="m 0,0 16.596,14.164 -2.236,0 L -2.237,0 0,0 z" /></g><g
         transform="matrix(1.6,0,0,1.6,52.93364,104.0429)"
         id="g4547"><path
           inkscape:connector-curvature="0"
           id="path4549"
           style="fill:#808080;fill-opacity:1;fill-rule:nonzero;stroke:none"
           d="m 0,0 16.596,14.164 -2.236,0 L -2.237,0 0,0 z" /></g><g
         transform="matrix(1.6,0,0,1.6,60.90868,104.0429)"
         id="g4551"><path
           inkscape:connector-curvature="0"
           id="path4553"
           style="fill:#808080;fill-opacity:1;fill-rule:nonzero;stroke:none"
           d="m 0,0 16.596,14.164 -2.236,0 L -2.237,0 0,0 z" /></g><g
         transform="matrix(1.6,0,0,1.6,68.88388,104.0429)"
         id="g4555"><path
           inkscape:connector-curvature="0"
           id="path4557"
           style="fill:#808080;fill-opacity:1;fill-rule:nonzero;stroke:none"
           d="m 0,0 16.596,14.164 -2.236,0 L -2.237,0 0,0 z" /></g><g
         transform="matrix(1.6,0,0,1.6,76.85892,104.0429)"
         id="g4559"><path
           inkscape:connector-curvature="0"
           id="path4561"
           style="fill:#808080;fill-opacity:1;fill-rule:nonzero;stroke:none"
           d="m 0,0 16.596,14.164 -2.236,0 L -2.237,0 0,0 z" /></g><g
         transform="matrix(1.6,0,0,1.6,84.83412,104.0429)"
         id="g4563"><path
           inkscape:connector-curvature="0"
           id="path4565"
           style="fill:#808080;fill-opacity:1;fill-rule:nonzero;stroke:none"
           d="m 0,0 16.596,14.164 -2.236,0 L -2.237,0 0,0 z" /></g><g
         transform="matrix(1.6,0,0,1.6,92.80916,104.0429)"
         id="g4567"><path
           inkscape:connector-curvature="0"
           id="path4569"
           style="fill:#808080;fill-opacity:1;fill-rule:nonzero;stroke:none"
           d="m 0,0 16.596,14.164 -2.236,0 L -2.237,0 0,0 z" /></g><g
         transform="matrix(1.6,0,0,1.6,100.78436,104.0429)"
         id="g4571"><path
           inkscape:connector-curvature="0"
           id="path4573"
           style="fill:#808080;fill-opacity:1;fill-rule:nonzero;stroke:none"
           d="m 0,0 16.596,14.164 -2.236,0 L -2.237,0 0,0 z" /></g><g
         transform="matrix(1.6,0,0,1.6,108.7594,104.0429)"
         id="g4575"><path
           inkscape:connector-curvature="0"
           id="path4577"
           style="fill:#808080;fill-opacity:1;fill-rule:nonzero;stroke:none"
           d="m 0,0 16.596,14.164 -2.236,0 L -2.237,0 0,0 z" /></g><g
         transform="matrix(1.6,0,0,1.6,116.7346,104.0429)"
         id="g4579"><path
           inkscape:connector-curvature="0"
           id="path4581"
           style="fill:#808080;fill-opacity:1;fill-rule:nonzero;stroke:none"
           d="m 0,0 16.596,14.164 -2.236,0 L -2.237,0 0,0 z" /></g><g
         transform="matrix(1.6,0,0,1.6,124.70964,104.0429)"
         id="g4583"><path
           inkscape:connector-curvature="0"
           id="path4585"
           style="fill:#808080;fill-opacity:1;fill-rule:nonzero;stroke:none"
           d="m 0,0 16.596,14.164 -2.236,0 L -2.237,0 0,0 z" /></g><g
         transform="matrix(1.6,0,0,1.6,132.68484,104.0429)"
         id="g4587"><path
           inkscape:connector-curvature="0"
           id="path4589"
           style="fill:#808080;fill-opacity:1;fill-rule:nonzero;stroke:none"
           d="m 0,0 16.596,14.164 -2.236,0 L -2.237,0 0,0 z" /></g><g
         transform="matrix(1.6,0,0,1.6,140.65988,104.0429)"
         id="g4591"><path
           inkscape:connector-curvature="0"
           id="path4593"
           style="fill:#808080;fill-opacity:1;fill-rule:nonzero;stroke:none"
           d="m 0,0 16.596,14.164 -2.236,0 L -2.237,0 0,0 z" /></g><g
         transform="matrix(1.6,0,0,1.6,148.63508,104.0429)"
         id="g4595"><path
           inkscape:connector-curvature="0"
           id="path4597"
           style="fill:#808080;fill-opacity:1;fill-rule:nonzero;stroke:none"
           d="m 0,0 16.596,14.164 -2.236,0 L -2.237,0 0,0 z" /></g><g
         transform="matrix(1.6,0,0,1.6,156.61012,104.0429)"
         id="g4599"><path
           inkscape:connector-curvature="0"
           id="path4601"
           style="fill:#808080;fill-opacity:1;fill-rule:nonzero;stroke:none"
           d="m 0,0 16.596,14.164 -2.236,0 L -2.237,0 0,0 z" /></g><path
         inkscape:connector-curvature="0"
         id="path4603"
         style="fill:#bfbfbf;fill-opacity:1;fill-rule:nonzero;stroke:none"
         d="m 200.70388,99.27554 -196.608,0 0,-15.1648 196.608,0 0,15.1648 z" /><g
         transform="matrix(1.6,0,0,1.6,127.01332,83.34018)"
         id="g4605"><path
           inkscape:connector-curvature="0"
           id="path4607"
           style="fill:#808080;fill-opacity:1;fill-rule:nonzero;stroke:none"
           d="m 0,0 -6.067,0 2.41,2.547 2.13,2.047 6.307,0 L 0,0 z m -7,0 -6.067,0 2.409,2.546 2.131,2.048 6.146,0 L -3.993,2.889 -7,0 z m -7,0 -6.067,0 2.41,2.547 2.13,2.047 6.146,0 L -10.994,2.889 -14,0 z m -7,0 -6.067,0 2.41,2.547 2.13,2.047 6.146,0 L -17.993,2.889 -21,0 z m -7,0 -6.067,0 2.409,2.546 2.131,2.048 6.146,0 L -24.993,2.889 -28,0 z m -7,0 -6.067,0 2.41,2.547 2.13,2.047 6.146,0 L -31.994,2.889 -35,0 z m -7,0 -6.067,0 2.41,2.547 2.13,2.047 6.146,0 L -38.993,2.889 -42,0 z m -7,0 -6.067,0 2.409,2.546 2.131,2.048 6.146,0 L -45.993,2.889 -49,0 z m -7,0 -6.067,0 2.41,2.547 2.13,2.047 6.146,0 L -52.994,2.889 -56,0 z m -7,0 -6.067,0 4.347,4.594 6.339,0 L -59.993,2.889 -63,0 z m -1.927,5.074 -5.254,-5.554 70.374,0 5.78,5.554 -70.9,0 z" /></g><g
         transform="matrix(1.6,0,0,1.6,144.83188,91.59282)"
         id="g4609"><path
           inkscape:connector-curvature="0"
           id="path4611"
           style="fill:#b3b3b3;fill-opacity:1;fill-rule:nonzero;stroke:none"
           d="m 0,0 2.011,2.394 25.469,0 L 25.429,0 0,0 z" /></g><path
         inkscape:connector-curvature="0"
         id="path4613"
         style="fill:#d9d9d9;fill-opacity:1;fill-rule:nonzero;stroke:none"
         d="m 22.58708,72.45474 -6.8432,0 0,6.8432 6.8432,0 0,-6.8432 z" /><path
         inkscape:connector-curvature="0"
         id="path4615"
         style="fill:#d9d9d9;fill-opacity:1;fill-rule:nonzero;stroke:none"
         d="m 30.03828,72.45474 -6.8432,0 0,6.8432 6.8432,0 0,-6.8432 z" /><path
         inkscape:connector-curvature="0"
         id="path4617"
         style="fill:#d9d9d9;fill-opacity:1;fill-rule:nonzero;stroke:none"
         d="m 33.45908,64.75074 -6.8432,0 0,6.8432 6.8432,0 0,-6.8432 z" /><path
         inkscape:connector-curvature="0"
         id="path4619"
         style="fill:#d9d9d9;fill-opacity:1;fill-rule:nonzero;stroke:none"
         d="m 25.85268,64.75074 -10.1088,0 0,6.8432 10.1088,0 0,-6.8432 z" /><path
         inkscape:connector-curvature="0"
         id="path4621"
         style="fill:#d9d9d9;fill-opacity:1;fill-rule:nonzero;stroke:none"
         d="m 27.70708,57.04674 -11.9632,0 0,6.8432 11.9632,0 0,-6.8432 z" /><path
         inkscape:connector-curvature="0"
         id="path4623"
         style="fill:#d9d9d9;fill-opacity:1;fill-rule:nonzero;stroke:none"
         d="m 31.27508,49.34114 -15.5312,0 0,6.8432 15.5312,0 0,-6.8432 z" /><path
         inkscape:connector-curvature="0"
         id="path4625"
         style="fill:#d9d9d9;fill-opacity:1;fill-rule:nonzero;stroke:none"
         d="m 35.49908,57.04674 -6.8432,0 0,6.8432 6.8432,0 0,-6.8432 z" /><path
         inkscape:connector-curvature="0"
         id="path4627"
         style="fill:#d9d9d9;fill-opacity:1;fill-rule:nonzero;stroke:none"
         d="m 38.92148,49.34114 -6.8432,0 0,6.8432 6.8432,0 0,-6.8432 z" /><path
         inkscape:connector-curvature="0"
         id="path4629"
         style="fill:#d9d9d9;fill-opacity:1;fill-rule:nonzero;stroke:none"
         d="m 34.71508,41.63714 -10.4288,0 0,6.8432 10.4288,0 0,-6.8432 z" /><path
         inkscape:connector-curvature="0"
         id="path4631"
         style="fill:#d9d9d9;fill-opacity:1;fill-rule:nonzero;stroke:none"
         d="m 103.45588,41.63714 -67.76,0 0,6.8432 67.76,0 0,-6.8432 z" /><path
         inkscape:connector-curvature="0"
         id="path4633"
         style="fill:#d9d9d9;fill-opacity:1;fill-rule:nonzero;stroke:none"
         d="m 46.51988,49.34114 -6.8432,0 0,6.8432 6.8432,0 0,-6.8432 z" /><path
         inkscape:connector-curvature="0"
         id="path4635"
         style="fill:#d9d9d9;fill-opacity:1;fill-rule:nonzero;stroke:none"
         d="m 54.11988,49.34114 -6.8432,0 0,6.8432 6.8432,0 0,-6.8432 z" /><path
         inkscape:connector-curvature="0"
         id="path4637"
         style="fill:#d9d9d9;fill-opacity:1;fill-rule:nonzero;stroke:none"
         d="m 61.71828,49.34114 -6.8432,0 0,6.8432 6.8432,0 0,-6.8432 z" /><path
         inkscape:connector-curvature="0"
         id="path4639"
         style="fill:#d9d9d9;fill-opacity:1;fill-rule:nonzero;stroke:none"
         d="m 69.31828,49.34114 -6.8432,0 0,6.8432 6.8432,0 0,-6.8432 z" /><path
         inkscape:connector-curvature="0"
         id="path4641"
         style="fill:#d9d9d9;fill-opacity:1;fill-rule:nonzero;stroke:none"
         d="m 76.91668,49.34114 -6.8432,0 0,6.8432 6.8432,0 0,-6.8432 z" /><path
         inkscape:connector-curvature="0"
         id="path4643"
         style="fill:#d9d9d9;fill-opacity:1;fill-rule:nonzero;stroke:none"
         d="m 84.51668,49.34114 -6.8432,0 0,6.8432 6.8432,0 0,-6.8432 z" /><path
         inkscape:connector-curvature="0"
         id="path4645"
         style="fill:#d9d9d9;fill-opacity:1;fill-rule:nonzero;stroke:none"
         d="m 92.11508,49.34114 -6.8432,0 0,6.8432 6.8432,0 0,-6.8432 z" /><path
         inkscape:connector-curvature="0"
         id="path4647"
         style="fill:#d9d9d9;fill-opacity:1;fill-rule:nonzero;stroke:none"
         d="m 99.71348,49.34114 -6.8432,0 0,6.8432 6.8432,0 0,-6.8432 z" /><path
         inkscape:connector-curvature="0"
         id="path4649"
         style="fill:#d9d9d9;fill-opacity:1;fill-rule:nonzero;stroke:none"
         d="m 107.31348,49.34114 -6.8432,0 0,6.8432 6.8432,0 0,-6.8432 z" /><path
         inkscape:connector-curvature="0"
         id="path4651"
         style="fill:#d9d9d9;fill-opacity:1;fill-rule:nonzero;stroke:none"
         d="m 118.95188,49.34114 -10.8816,0 0,6.8432 10.8816,0 0,-6.8432 z" /><path
         inkscape:connector-curvature="0"
         id="path4653"
         style="fill:#d9d9d9;fill-opacity:1;fill-rule:nonzero;stroke:none"
         d="m 115.43028,41.63714 -10.8816,0 0,6.8432 10.8816,0 0,-6.8432 z" /><path
         inkscape:connector-curvature="0"
         id="path4655"
         style="fill:#d9d9d9;fill-opacity:1;fill-rule:nonzero;stroke:none"
         d="m 43.09908,57.04674 -6.8432,0 0,6.8432 6.8432,0 0,-6.8432 z" /><path
         inkscape:connector-curvature="0"
         id="path4657"
         style="fill:#d9d9d9;fill-opacity:1;fill-rule:nonzero;stroke:none"
         d="m 50.69748,57.04674 -6.8432,0 0,6.8432 6.8432,0 0,-6.8432 z" /><path
         inkscape:connector-curvature="0"
         id="path4659"
         style="fill:#d9d9d9;fill-opacity:1;fill-rule:nonzero;stroke:none"
         d="m 58.29748,57.04674 -6.8432,0 0,6.8432 6.8432,0 0,-6.8432 z" /><path
         inkscape:connector-curvature="0"
         id="path4661"
         style="fill:#d9d9d9;fill-opacity:1;fill-rule:nonzero;stroke:none"
         d="m 65.89588,57.04674 -6.8432,0 0,6.8432 6.8432,0 0,-6.8432 z" /><path
         inkscape:connector-curvature="0"
         id="path4663"
         style="fill:#d9d9d9;fill-opacity:1;fill-rule:nonzero;stroke:none"
         d="m 73.49588,57.04674 -6.8432,0 0,6.8432 6.8432,0 0,-6.8432 z" /><path
         inkscape:connector-curvature="0"
         id="path4665"
         style="fill:#d9d9d9;fill-opacity:1;fill-rule:nonzero;stroke:none"
         d="m 81.09428,57.04674 -6.8432,0 0,6.8432 6.8432,0 0,-6.8432 z" /><path
         inkscape:connector-curvature="0"
         id="path4667"
         style="fill:#d9d9d9;fill-opacity:1;fill-rule:nonzero;stroke:none"
         d="m 88.69428,57.04674 -6.8432,0 0,6.8432 6.8432,0 0,-6.8432 z" /><path
         inkscape:connector-curvature="0"
         id="path4669"
         style="fill:#d9d9d9;fill-opacity:1;fill-rule:nonzero;stroke:none"
         d="m 96.29268,57.04674 -6.8432,0 0,6.8432 6.8432,0 0,-6.8432 z" /><path
         inkscape:connector-curvature="0"
         id="path4671"
         style="fill:#d9d9d9;fill-opacity:1;fill-rule:nonzero;stroke:none"
         d="m 103.89268,57.04674 -6.8432,0 0,6.8432 6.8432,0 0,-6.8432 z" /><path
         inkscape:connector-curvature="0"
         id="path4673"
         style="fill:#d9d9d9;fill-opacity:1;fill-rule:nonzero;stroke:none"
         d="m 111.49108,57.04674 -6.8432,0 0,6.8432 6.8432,0 0,-6.8432 z" /><path
         inkscape:connector-curvature="0"
         id="path4675"
         style="fill:#d9d9d9;fill-opacity:1;fill-rule:nonzero;stroke:none"
         d="m 131.33748,57.04674 -6.8432,0 0,6.8432 6.8432,0 0,-6.8432 z" /><path
         inkscape:connector-curvature="0"
         id="path4677"
         style="fill:#d9d9d9;fill-opacity:1;fill-rule:nonzero;stroke:none"
         d="m 40.91028,64.75074 -6.8432,0 0,6.8432 6.8432,0 0,-6.8432 z" /><path
         inkscape:connector-curvature="0"
         id="path4679"
         style="fill:#d9d9d9;fill-opacity:1;fill-rule:nonzero;stroke:none"
         d="m 48.36148,64.75074 -6.8432,0 0,6.8432 6.8432,0 0,-6.8432 z" /><path
         inkscape:connector-curvature="0"
         id="path4681"
         style="fill:#d9d9d9;fill-opacity:1;fill-rule:nonzero;stroke:none"
         d="m 55.81268,64.75074 -6.8432,0 0,6.8432 6.8432,0 0,-6.8432 z" /><path
         inkscape:connector-curvature="0"
         id="path4683"
         style="fill:#d9d9d9;fill-opacity:1;fill-rule:nonzero;stroke:none"
         d="m 63.26388,64.75074 -6.8432,0 0,6.8432 6.8432,0 0,-6.8432 z" /><path
         inkscape:connector-curvature="0"
         id="path4685"
         style="fill:#d9d9d9;fill-opacity:1;fill-rule:nonzero;stroke:none"
         d="m 70.71508,64.75074 -6.8432,0 0,6.8432 6.8432,0 0,-6.8432 z" /><path
         inkscape:connector-curvature="0"
         id="path4687"
         style="fill:#d9d9d9;fill-opacity:1;fill-rule:nonzero;stroke:none"
         d="m 78.16468,64.75074 -6.8432,0 0,6.8432 6.8432,0 0,-6.8432 z" /><path
         inkscape:connector-curvature="0"
         id="path4689"
         style="fill:#d9d9d9;fill-opacity:1;fill-rule:nonzero;stroke:none"
         d="m 85.61588,64.75074 -6.8432,0 0,6.8432 6.8432,0 0,-6.8432 z" /><path
         inkscape:connector-curvature="0"
         id="path4691"
         style="fill:#d9d9d9;fill-opacity:1;fill-rule:nonzero;stroke:none"
         d="m 93.06708,64.75074 -6.8432,0 0,6.8432 6.8432,0 0,-6.8432 z" /><path
         inkscape:connector-curvature="0"
         id="path4693"
         style="fill:#d9d9d9;fill-opacity:1;fill-rule:nonzero;stroke:none"
         d="m 100.51828,64.75074 -6.8432,0 0,6.8432 6.8432,0 0,-6.8432 z" /><path
         inkscape:connector-curvature="0"
         id="path4695"
         style="fill:#d9d9d9;fill-opacity:1;fill-rule:nonzero;stroke:none"
         d="m 107.96948,64.75074 -6.8432,0 0,6.8432 6.8432,0 0,-6.8432 z" /><path
         inkscape:connector-curvature="0"
         id="path4697"
         style="fill:#d9d9d9;fill-opacity:1;fill-rule:nonzero;stroke:none"
         d="m 115.42068,64.75074 -6.8432,0 0,6.8432 6.8432,0 0,-6.8432 z" /><path
         inkscape:connector-curvature="0"
         id="path4699"
         style="fill:#d9d9d9;fill-opacity:1;fill-rule:nonzero;stroke:none"
         d="m 131.33748,64.75074 -6.8432,0 0,6.8432 6.8432,0 0,-6.8432 z" /><path
         inkscape:connector-curvature="0"
         id="path4701"
         style="fill:#d9d9d9;fill-opacity:1;fill-rule:nonzero;stroke:none"
         d="m 142.15668,57.04674 -6.8432,0 0,6.8432 6.8432,0 0,-6.8432 z" /><path
         inkscape:connector-curvature="0"
         id="path4703"
         style="fill:#d9d9d9;fill-opacity:1;fill-rule:nonzero;stroke:none"
         d="m 142.15668,64.75074 -6.8432,0 0,6.8432 6.8432,0 0,-6.8432 z" /><path
         inkscape:connector-curvature="0"
         id="path4705"
         style="fill:#d9d9d9;fill-opacity:1;fill-rule:nonzero;stroke:none"
         d="m 149.54868,57.04674 -6.8432,0 0,6.8432 6.8432,0 0,-6.8432 z" /><path
         inkscape:connector-curvature="0"
         id="path4707"
         style="fill:#d9d9d9;fill-opacity:1;fill-rule:nonzero;stroke:none"
         d="m 149.54868,64.75074 -6.8432,0 0,6.8432 6.8432,0 0,-6.8432 z" /><path
         inkscape:connector-curvature="0"
         id="path4709"
         style="fill:#d9d9d9;fill-opacity:1;fill-rule:nonzero;stroke:none"
         d="m 156.94068,57.04674 -6.8432,0 0,6.8432 6.8432,0 0,-6.8432 z" /><path
         inkscape:connector-curvature="0"
         id="path4711"
         style="fill:#d9d9d9;fill-opacity:1;fill-rule:nonzero;stroke:none"
         d="m 156.94068,64.75074 -6.8432,0 0,6.8432 6.8432,0 0,-6.8432 z" /><path
         inkscape:connector-curvature="0"
         id="path4713"
         style="fill:#d9d9d9;fill-opacity:1;fill-rule:nonzero;stroke:none"
         d="m 166.66548,57.04674 -6.8432,0 0,6.8432 6.8432,0 0,-6.8432 z" /><path
         inkscape:connector-curvature="0"
         id="path4715"
         style="fill:#d9d9d9;fill-opacity:1;fill-rule:nonzero;stroke:none"
         d="m 166.66548,64.75074 -6.8432,0 0,6.8432 6.8432,0 0,-6.8432 z" /><path
         inkscape:connector-curvature="0"
         id="path4717"
         style="fill:#d9d9d9;fill-opacity:1;fill-rule:nonzero;stroke:none"
         d="m 174.05748,57.04674 -6.8432,0 0,6.8432 6.8432,0 0,-6.8432 z" /><path
         inkscape:connector-curvature="0"
         id="path4719"
         style="fill:#d9d9d9;fill-opacity:1;fill-rule:nonzero;stroke:none"
         d="m 174.05748,64.75074 -6.8432,0 0,6.8432 6.8432,0 0,-6.8432 z" /><path
         inkscape:connector-curvature="0"
         id="path4721"
         style="fill:#d9d9d9;fill-opacity:1;fill-rule:nonzero;stroke:none"
         d="m 181.44948,57.04674 -6.8432,0 0,6.8432 6.8432,0 0,-6.8432 z" /><path
         inkscape:connector-curvature="0"
         id="path4723"
         style="fill:#d9d9d9;fill-opacity:1;fill-rule:nonzero;stroke:none"
         d="m 181.44948,64.75074 -6.8432,0 0,6.8432 6.8432,0 0,-6.8432 z" /><path
         inkscape:connector-curvature="0"
         id="path4725"
         style="fill:#d9d9d9;fill-opacity:1;fill-rule:nonzero;stroke:none"
         d="m 188.79988,57.04674 -6.8432,0 0,6.8432 6.8432,0 0,-6.8432 z" /><path
         inkscape:connector-curvature="0"
         id="path4727"
         style="fill:#d9d9d9;fill-opacity:1;fill-rule:nonzero;stroke:none"
         d="m 166.66548,49.75074 -6.8432,0 0,6.8432 6.8432,0 0,-6.8432 z" /><path
         inkscape:connector-curvature="0"
         id="path4729"
         style="fill:#d9d9d9;fill-opacity:1;fill-rule:nonzero;stroke:none"
         d="m 174.05748,49.75074 -6.8432,0 0,6.8432 6.8432,0 0,-6.8432 z" /><path
         inkscape:connector-curvature="0"
         id="path4731"
         style="fill:#d9d9d9;fill-opacity:1;fill-rule:nonzero;stroke:none"
         d="m 181.44948,49.75074 -6.8432,0 0,6.8432 6.8432,0 0,-6.8432 z" /><path
         inkscape:connector-curvature="0"
         id="path4733"
         style="fill:#d9d9d9;fill-opacity:1;fill-rule:nonzero;stroke:none"
         d="m 188.79988,42.45474 -6.8432,0 0,14.1392 6.8432,0 0,-14.1392 z" /><path
         inkscape:connector-curvature="0"
         id="path4735"
         style="fill:#d9d9d9;fill-opacity:1;fill-rule:nonzero;stroke:none"
         d="m 166.66548,42.45474 -6.8432,0 0,6.8432 6.8432,0 0,-6.8432 z" /><path
         inkscape:connector-curvature="0"
         id="path4737"
         style="fill:#d9d9d9;fill-opacity:1;fill-rule:nonzero;stroke:none"
         d="m 174.05748,42.45474 -6.8432,0 0,6.8432 6.8432,0 0,-6.8432 z" /><path
         inkscape:connector-curvature="0"
         id="path4739"
         style="fill:#d9d9d9;fill-opacity:1;fill-rule:nonzero;stroke:none"
         d="m 181.44948,42.45474 -6.8432,0 0,6.8432 6.8432,0 0,-6.8432 z" /><path
         inkscape:connector-curvature="0"
         id="path4741"
         style="fill:#d9d9d9;fill-opacity:1;fill-rule:nonzero;stroke:none"
         d="m 188.79988,64.75074 -6.8432,0 0,6.8432 6.8432,0 0,-6.8432 z" /><path
         inkscape:connector-curvature="0"
         id="path4743"
         style="fill:#d9d9d9;fill-opacity:1;fill-rule:nonzero;stroke:none"
         d="m 166.66548,72.45474 -6.8432,0 0,6.8432 6.8432,0 0,-6.8432 z" /><path
         inkscape:connector-curvature="0"
         id="path4745"
         style="fill:#d9d9d9;fill-opacity:1;fill-rule:nonzero;stroke:none"
         d="m 174.05748,72.45474 -6.8432,0 0,6.8432 6.8432,0 0,-6.8432 z" /><path
         inkscape:connector-curvature="0"
         id="path4747"
         style="fill:#d9d9d9;fill-opacity:1;fill-rule:nonzero;stroke:none"
         d="m 181.44948,72.45474 -6.8432,0 0,6.8432 6.8432,0 0,-6.8432 z" /><path
         inkscape:connector-curvature="0"
         id="path4749"
         style="fill:#d9d9d9;fill-opacity:1;fill-rule:nonzero;stroke:none"
         d="m 188.79988,72.45474 -6.8432,0 0,6.8432 6.8432,0 0,-6.8432 z" /><path
         inkscape:connector-curvature="0"
         id="path4751"
         style="fill:#d9d9d9;fill-opacity:1;fill-rule:nonzero;stroke:none"
         d="m 37.48948,72.45474 -6.8432,0 0,6.8432 6.8432,0 0,-6.8432 z" /><path
         inkscape:connector-curvature="0"
         id="path4753"
         style="fill:#d9d9d9;fill-opacity:1;fill-rule:nonzero;stroke:none"
         d="m 44.93908,72.45474 -6.8432,0 0,6.8432 6.8432,0 0,-6.8432 z" /><path
         inkscape:connector-curvature="0"
         id="path4755"
         style="fill:#d9d9d9;fill-opacity:1;fill-rule:nonzero;stroke:none"
         d="m 52.39028,72.45474 -6.8432,0 0,6.8432 6.8432,0 0,-6.8432 z" /><path
         inkscape:connector-curvature="0"
         id="path4757"
         style="fill:#d9d9d9;fill-opacity:1;fill-rule:nonzero;stroke:none"
         d="m 59.84148,72.45474 -6.8432,0 0,6.8432 6.8432,0 0,-6.8432 z" /><path
         inkscape:connector-curvature="0"
         id="path4759"
         style="fill:#d9d9d9;fill-opacity:1;fill-rule:nonzero;stroke:none"
         d="m 67.29268,72.45474 -6.8432,0 0,6.8432 6.8432,0 0,-6.8432 z" /><path
         inkscape:connector-curvature="0"
         id="path4761"
         style="fill:#d9d9d9;fill-opacity:1;fill-rule:nonzero;stroke:none"
         d="m 74.74388,72.45474 -6.8432,0 0,6.8432 6.8432,0 0,-6.8432 z" /><path
         inkscape:connector-curvature="0"
         id="path4763"
         style="fill:#d9d9d9;fill-opacity:1;fill-rule:nonzero;stroke:none"
         d="m 82.19508,72.45474 -6.8432,0 0,6.8432 6.8432,0 0,-6.8432 z" /><path
         inkscape:connector-curvature="0"
         id="path4765"
         style="fill:#d9d9d9;fill-opacity:1;fill-rule:nonzero;stroke:none"
         d="m 89.64628,72.45474 -6.8432,0 0,6.8432 6.8432,0 0,-6.8432 z" /><path
         inkscape:connector-curvature="0"
         id="path4767"
         style="fill:#d9d9d9;fill-opacity:1;fill-rule:nonzero;stroke:none"
         d="m 97.09748,72.45474 -6.8432,0 0,6.8432 6.8432,0 0,-6.8432 z" /><path
         inkscape:connector-curvature="0"
         id="path4769"
         style="fill:#d9d9d9;fill-opacity:1;fill-rule:nonzero;stroke:none"
         d="m 104.54708,72.45474 -6.8432,0 0,6.8432 6.8432,0 0,-6.8432 z" /><path
         inkscape:connector-curvature="0"
         id="path4771"
         style="fill:#d9d9d9;fill-opacity:1;fill-rule:nonzero;stroke:none"
         d="m 111.99828,72.45474 -6.8432,0 0,6.8432 6.8432,0 0,-6.8432 z" /><path
         inkscape:connector-curvature="0"
         id="path4773"
         style="fill:#d9d9d9;fill-opacity:1;fill-rule:nonzero;stroke:none"
         d="m 119.44948,72.45474 -6.8432,0 0,6.8432 6.8432,0 0,-6.8432 z" /><path
         inkscape:connector-curvature="0"
         id="path4775"
         style="fill:#d9d9d9;fill-opacity:1;fill-rule:nonzero;stroke:none"
         d="m 131.33748,72.45474 -11.2784,0 0,6.8432 11.2784,0 0,-6.8432 z" /><path
         inkscape:connector-curvature="0"
         id="path4777"
         style="fill:#d9d9d9;fill-opacity:1;fill-rule:nonzero;stroke:none"
         d="m 145.51828,72.45474 -10.2048,0 0,6.8432 10.2048,0 0,-6.8432 z" /><path
         inkscape:connector-curvature="0"
         id="path4779"
         style="fill:#d9d9d9;fill-opacity:1;fill-rule:nonzero;stroke:none"
         d="m 156.94068,72.45474 -10.8128,0 0,6.8432 10.8128,0 0,-6.8432 z" /><g
         transform="matrix(1.6,0,0,1.6,116.63636,71.59362)"
         id="g4781"><path
           inkscape:connector-curvature="0"
           id="path4783"
           style="fill:#d9d9d9;fill-opacity:1;fill-rule:nonzero;stroke:none"
           d="m 0,0 0,-4.815 -2.83,0 0,-4.277 7.107,0 L 4.277,0 0,0 z" /></g><g
         transform="matrix(1.6,0,0,1.6,-1.2e-4,-19.77726)"
         id="g4785"><g
           clip-path="url(#clipPath4789)"
           id="g4787"><g
             transform="translate(111.9716,72.102)"
             id="g4793"><path
               inkscape:connector-curvature="0"
               id="path4795"
               style="fill:#354ea1;fill-opacity:1;fill-rule:nonzero;stroke:none"
               d="m 0,0 c -0.196,0.012 -0.525,0.086 -0.611,-0.167 -0.058,-0.179 0.253,-0.37 0.467,-0.542 l 0.311,-0.243 c 0.312,-0.242 0.589,-0.553 0.623,-0.969 0.069,-0.933 -0.934,-1.401 -1.799,-1.366 -0.531,0.023 -0.848,0.034 -1.361,0.15 l -0.093,1.251 c 0,-0.006 0.635,-0.242 1.09,-0.259 0.191,0 0.45,-0.017 0.485,0.184 0.029,0.202 -0.185,0.317 -0.352,0.456 l -0.426,0.335 c -0.382,0.31 -0.618,0.622 -0.618,1.118 0.006,0.83 0.831,1.228 1.782,1.205 0.721,-0.011 1.2,-0.132 1.194,-0.126 L 0.807,-0.208 C 0.813,-0.214 0.358,-0.029 0,0" /></g><g
             transform="translate(117.2464,72.0388)"
             id="g4797"><path
               inkscape:connector-curvature="0"
               id="path4799"
               style="fill:#354ea1;fill-opacity:1;fill-rule:nonzero;stroke:none"
               d="m 0,0 -1.321,0.029 -0.086,-1.65 -0.052,-1.511 -1.672,0 0.155,2.059 0,1.102 -1.321,-0.023 0.046,1.135 4.309,0 L 0,0 z" /></g><g
             transform="translate(91.3905,72.2963)"
             id="g4801"><path
               inkscape:connector-curvature="0"
               id="path4803"
               style="fill:#808080;fill-opacity:1;fill-rule:nonzero;stroke:none"
               d="m 0,0 c 0.011,-0.32 0.014,-0.64 -0.001,-0.96 -0.015,-0.309 -0.041,-0.616 -0.111,-0.918 -0.071,-0.307 -0.213,-0.58 -0.405,-0.828 -0.171,-0.219 -0.373,-0.403 -0.615,-0.541 -0.223,-0.128 -0.461,-0.204 -0.72,-0.211 -0.011,0 -0.023,0 -0.037,0 -10e-4,0.01 -0.002,0.019 -0.002,0.028 0,0.149 0.001,0.298 0,0.447 0,0.021 0.004,0.03 0.028,0.031 0.081,0.006 0.156,0.034 0.23,0.067 0.286,0.127 0.532,0.312 0.748,0.536 0.138,0.143 0.262,0.298 0.345,0.48 0.072,0.156 0.119,0.321 0.155,0.489 0.049,0.229 0.081,0.461 0.092,0.694 0.011,0.229 0.015,0.457 0.022,0.686 L 0,0 z" /></g><g
             transform="translate(91.4963,72.2963)"
             id="g4805"><path
               inkscape:connector-curvature="0"
               id="path4807"
               style="fill:#808080;fill-opacity:1;fill-rule:nonzero;stroke:none"
               d="m 0,0 c -0.011,-0.32 -0.014,-0.64 0.001,-0.96 0.015,-0.309 0.041,-0.616 0.111,-0.918 0.072,-0.307 0.213,-0.58 0.405,-0.828 0.171,-0.219 0.373,-0.403 0.615,-0.541 0.223,-0.128 0.461,-0.204 0.72,-0.211 0.011,0 0.023,0 0.037,0 10e-4,0.01 0.002,0.019 0.002,0.028 0,0.149 -0.001,0.298 0,0.447 0,0.021 -0.004,0.03 -0.028,0.031 -0.081,0.006 -0.156,0.034 -0.23,0.067 C 1.347,-2.758 1.101,-2.573 0.885,-2.349 0.747,-2.206 0.623,-2.051 0.54,-1.869 0.468,-1.713 0.421,-1.548 0.385,-1.38 0.336,-1.151 0.304,-0.919 0.293,-0.686 0.282,-0.457 0.278,-0.229 0.271,0 L 0,0 z" /></g><g
             transform="translate(95.4376,69.3783)"
             id="g4809"><path
               inkscape:connector-curvature="0"
               id="path4811"
               style="fill:#808080;fill-opacity:1;fill-rule:nonzero;stroke:none"
               d="m 0,0 -1.152,0 c -0.08,0 -0.15,0.03 -0.209,0.089 -0.06,0.06 -0.089,0.13 -0.089,0.209 l 0,2.675 0.446,0 0,-2.527 L 0,0.446 0,0 z" /></g><path
             inkscape:connector-curvature="0"
             id="path4813"
             style="fill:#808080;fill-opacity:1;fill-rule:nonzero;stroke:none"
             d="m 96.163,69.378 -0.446,0 0,2.973 0.446,0 0,-2.973 z" /><g
             transform="translate(97.9095,70.195)"
             id="g4815"><path
               inkscape:connector-curvature="0"
               id="path4817"
               style="fill:#808080;fill-opacity:1;fill-rule:nonzero;stroke:none"
               d="m 0,0 c 0,0.097 -0.038,0.184 -0.113,0.259 -0.076,0.076 -0.162,0.113 -0.259,0.113 l -0.558,0 0,-0.742 0.558,0 c 0.097,0 0.183,0.038 0.259,0.113 C -0.038,-0.181 0,-0.096 0,0 m -0.187,1.339 c 0,0.096 -0.038,0.182 -0.114,0.257 -0.077,0.077 -0.162,0.116 -0.257,0.116 l -0.372,0 0,-0.893 c 0.495,0.077 0.743,0.25 0.743,0.52 M 0.446,0 c 0,-0.215 -0.082,-0.405 -0.248,-0.571 -0.164,-0.164 -0.354,-0.246 -0.57,-0.246 l -0.706,0 c -0.08,0 -0.15,0.03 -0.209,0.09 -0.06,0.059 -0.089,0.129 -0.089,0.209 l 0,2.378 c 0,0.078 0.029,0.147 0.089,0.207 0.059,0.059 0.129,0.089 0.209,0.089 l 0.52,0 c 0.21,0 0.398,-0.078 0.567,-0.233 C 0.176,1.769 0.259,1.587 0.259,1.376 0.259,1.111 0.149,0.9 -0.072,0.745 0.078,0.687 0.202,0.588 0.301,0.449 0.398,0.312 0.446,0.163 0.446,0" /></g><g
             transform="translate(100.4185,69.3783)"
             id="g4819"><path
               inkscape:connector-curvature="0"
               id="path4821"
               style="fill:#808080;fill-opacity:1;fill-rule:nonzero;stroke:none"
               d="m 0,0 -0.521,0 -0.614,0.963 c -0.087,0.136 -0.13,0.24 -0.13,0.311 0,0.135 0.042,0.236 0.126,0.303 0.006,0.004 0.104,0.059 0.294,0.163 0.216,0.121 0.324,0.259 0.324,0.416 0,0.095 -0.038,0.18 -0.115,0.257 -0.077,0.077 -0.163,0.116 -0.257,0.116 l -0.446,0 0,-2.529 -0.447,0 0,2.677 c 0,0.078 0.03,0.147 0.089,0.207 0.06,0.059 0.13,0.089 0.209,0.089 l 0.595,0 c 0.209,0 0.398,-0.078 0.566,-0.233 0.167,-0.154 0.251,-0.336 0.251,-0.547 0,-0.209 -0.071,-0.398 -0.211,-0.566 C -0.43,1.458 -0.602,1.344 -0.804,1.283 L 0,0 z" /></g><g
             transform="translate(102.1456,69.3783)"
             id="g4823"><path
               inkscape:connector-curvature="0"
               id="path4825"
               style="fill:#808080;fill-opacity:1;fill-rule:nonzero;stroke:none"
               d="m 0,0 -1.152,0 c -0.08,0 -0.15,0.03 -0.209,0.089 -0.06,0.06 -0.089,0.13 -0.089,0.209 l 0,2.379 c 0,0.078 0.029,0.147 0.089,0.207 0.059,0.059 0.129,0.089 0.209,0.089 l 1.152,0 0,-0.444 -1.004,0 0,-0.819 0.632,0 0,-0.447 -0.632,0 0,-0.817 L 0,0.446 0,0 z" /></g><g
             transform="translate(104.0033,71.9069)"
             id="g4827"><path
               inkscape:connector-curvature="0"
               id="path4829"
               style="fill:#808080;fill-opacity:1;fill-rule:nonzero;stroke:none"
               d="m 0,0 -0.595,0 0,-2.529 -0.446,0 0,2.529 -0.595,0 0,0.444 L 0,0.444 0,0 z" /></g><g
             transform="translate(106.0113,69.3783)"
             id="g4831"><path
               inkscape:connector-curvature="0"
               id="path4833"
               style="fill:#808080;fill-opacity:1;fill-rule:nonzero;stroke:none"
               d="m 0,0 -0.521,0 -0.614,0.963 c -0.087,0.136 -0.13,0.24 -0.13,0.311 0,0.135 0.042,0.236 0.126,0.303 0.006,0.004 0.104,0.059 0.294,0.163 0.216,0.121 0.324,0.259 0.324,0.416 0,0.095 -0.038,0.18 -0.115,0.257 -0.077,0.077 -0.163,0.116 -0.257,0.116 l -0.446,0 0,-2.529 -0.447,0 0,2.677 c 0,0.078 0.03,0.147 0.089,0.207 0.06,0.059 0.13,0.089 0.209,0.089 l 0.595,0 c 0.209,0 0.398,-0.078 0.566,-0.233 0.167,-0.154 0.251,-0.336 0.251,-0.547 0,-0.209 -0.071,-0.398 -0.211,-0.566 C -0.43,1.458 -0.602,1.344 -0.804,1.283 L 0,0 z" /></g><g
             transform="translate(107.3856,70.195)"
             id="g4835"><path
               inkscape:connector-curvature="0"
               id="path4837"
               style="fill:#808080;fill-opacity:1;fill-rule:nonzero;stroke:none"
               d="M 0,0 0,1.339 C 0,1.435 -0.038,1.521 -0.113,1.596 -0.19,1.673 -0.277,1.712 -0.372,1.712 -0.468,1.712 -0.555,1.673 -0.632,1.596 -0.707,1.521 -0.745,1.435 -0.745,1.339 l 0,-1.339 c 0,-0.096 0.038,-0.181 0.113,-0.257 0.076,-0.075 0.162,-0.113 0.26,-0.113 0.097,0 0.183,0.038 0.259,0.113 C -0.038,-0.181 0,-0.096 0,0 m 0.446,0 c 0,-0.215 -0.082,-0.405 -0.248,-0.571 -0.164,-0.164 -0.354,-0.246 -0.57,-0.246 -0.214,0 -0.404,0.082 -0.571,0.246 -0.164,0.167 -0.246,0.358 -0.246,0.571 l 0,1.339 c 0,0.215 0.082,0.405 0.246,0.569 0.165,0.165 0.356,0.248 0.571,0.248 0.216,0 0.406,-0.083 0.57,-0.248 C 0.364,1.744 0.446,1.554 0.446,1.339 L 0.446,0 z" /></g></g></g></g></g></svg>