<?xml version="1.0" encoding="UTF-8" standalone="no"?>
<!-- Created with Inkscape (http://www.inkscape.org/) -->

<svg
   xmlns:dc="http://purl.org/dc/elements/1.1/"
   xmlns:cc="http://creativecommons.org/ns#"
   xmlns:rdf="http://www.w3.org/1999/02/22-rdf-syntax-ns#"
   xmlns:svg="http://www.w3.org/2000/svg"
   xmlns="http://www.w3.org/2000/svg"
   xmlns:sodipodi="http://sodipodi.sourceforge.net/DTD/sodipodi-0.dtd"
   xmlns:inkscape="http://www.inkscape.org/namespaces/inkscape"
   id="svg41811"
   version="1.1"
   inkscape:version="0.48.5 r10040"
   width="256"
   height="256"
   xml:space="preserve"
   sodipodi:docname="FFmpeg-content.svg"
   inkscape:export-filename="/Users/margetts/Desktop/BAXY RetroActive/png_marked/FFmpeg-content.png"
   inkscape:export-xdpi="90.099998"
   inkscape:export-ydpi="90.099998"><metadata
     id="metadata41817"><rdf:RDF><cc:Work
         rdf:about=""><dc:format>image/svg+xml</dc:format><dc:type
           rdf:resource="http://purl.org/dc/dcmitype/StillImage" /><dc:title></dc:title></cc:Work></rdf:RDF></metadata><defs
     id="defs41815"><clipPath
       clipPathUnits="userSpaceOnUse"
       id="clipPath41825"><path
         d="M 0,128 128,128 128,0 0,0 0,128 z"
         id="path41827"
         inkscape:connector-curvature="0" /></clipPath></defs><sodipodi:namedview
     pagecolor="#ffffff"
     bordercolor="#666666"
     borderopacity="1"
     objecttolerance="10"
     gridtolerance="10"
     guidetolerance="10"
     inkscape:pageopacity="0"
     inkscape:pageshadow="2"
     inkscape:window-width="1676"
     inkscape:window-height="1005"
     id="namedview41813"
     showgrid="false"
     inkscape:zoom="5.14375"
     inkscape:cx="55.601458"
     inkscape:cy="80"
     inkscape:window-x="4"
     inkscape:window-y="1"
     inkscape:window-maximized="1"
     inkscape:current-layer="g41819" /><g
     id="g41819"
     inkscape:groupmode="layer"
     inkscape:label="FFmpeg-content"
     transform="matrix(1.25,0,0,-1.25,0,256)"><g
       id="g41821"
       transform="matrix(1.6,0,0,1.6,-0.68832,0)"><g
         id="g41823"
         clip-path="url(#clipPath41825)"><g
           id="g41829"
           transform="translate(79.1437,128)"><path
             d="m 0,0 -1.06,0 -54.614,0 c -5.176,0 -9.386,-4.211 -9.386,-9.387 l 0,-109.226 c 0,-5.176 4.21,-9.387 9.386,-9.387 l 81.92,0 c 5.176,0 9.387,4.211 9.387,9.387 l 0,81.92 0,1.06 -0.75,0.75 L 0.75,-0.75 0,0 z"
             style="fill:#ffffff;fill-opacity:1;fill-rule:nonzero;stroke:none"
             id="path41831"
             inkscape:connector-curvature="0" /></g><g
           id="g41833"
           transform="translate(78.0833,125.44)"><path
             d="m 0,0 -54.613,0 c -3.772,0 -6.827,-3.055 -6.827,-6.827 l 0,-109.226 c 0,-3.772 3.055,-6.827 6.827,-6.827 l 81.92,0 c 3.771,0 6.826,3.055 6.826,6.827 l 0,81.92 L 0,0 z"
             style="fill:#e6e6e6;fill-opacity:1;fill-rule:nonzero;stroke:none"
             id="path41835"
             inkscape:connector-curvature="0" /></g><g
           id="g41837"
           transform="translate(74.1484,115.94)"><path
             d="m 0,0 28.568,-28.568 0,-75.312 -76.573,0 0,103.88 L 0,0 z"
             style="fill:#2a8600;fill-opacity:1;fill-rule:nonzero;stroke:none"
             id="path41839"
             inkscape:connector-curvature="0" /></g><g
           id="g41841"
           transform="translate(91.7503,85.1413)"><path
             d="m 0,0 -13.667,0 c -3.772,0 -6.827,3.055 -6.827,6.827 l 0,13.653 0,13.653 L 13.64,0 0,0 z"
             style="fill:#ffffff;fill-opacity:1;fill-rule:nonzero;stroke:none"
             id="path41843"
             inkscape:connector-curvature="0" /></g><g
           id="g41845"
           transform="translate(92.1094,15.9729)"><path
             d="m 0,0 -18.353,0 c -1.856,0 -3.529,1.118 -4.239,2.832 -0.711,1.715 -0.318,3.688 0.995,5 l 17.009,17.01 0,5.377 L -33.463,1.344 C -34.323,0.484 -35.49,0 -36.707,0 L -55.06,0 c -1.856,0 -3.529,1.118 -4.239,2.832 -0.711,1.715 -0.318,3.688 0.995,5 l 47.227,47.228 -5.376,0 -35.363,-35.362 c -1.312,-1.312 -3.288,-1.703 -5,-0.995 -1.715,0.71 -2.832,2.384 -2.832,4.239 l 0,18.353 c 0,1.217 0.483,2.384 1.344,3.244 l 10.52,10.521 -7.276,0 c -2.534,0 -4.588,2.054 -4.588,4.588 0,2.535 2.054,4.589 4.588,4.589 l 18.353,0 c 1.856,0 3.529,-1.118 4.239,-2.833 0.711,-1.714 0.318,-3.688 -0.995,-5 l -17.009,-17.01 0,-5.376 28.875,28.875 c 0.86,0.861 2.027,1.344 3.244,1.344 l 18.353,0 c 1.856,0 3.529,-1.118 4.239,-2.833 0.71,-1.714 0.318,-3.688 -0.995,-5 l -47.227,-47.227 5.376,0 35.363,35.362 c 1.313,1.314 3.287,1.706 5,0.995 1.715,-0.71 2.832,-2.383 2.832,-4.239 l 0,-18.353 c 0,-1.217 -0.483,-2.384 -1.344,-3.244 L -7.276,9.177 0,9.177 C 2.534,9.177 4.588,7.123 4.588,4.588 4.588,2.054 2.534,0 0,0"
             style="fill:#ecf0f1;fill-opacity:1;fill-rule:nonzero;stroke:none"
             id="path41847"
             inkscape:connector-curvature="0" /></g></g></g></g></svg>