<?xml version="1.0" encoding="UTF-8" standalone="no"?>
<!-- Created with Inkscape (http://www.inkscape.org/) -->

<svg
   xmlns:dc="http://purl.org/dc/elements/1.1/"
   xmlns:cc="http://creativecommons.org/ns#"
   xmlns:rdf="http://www.w3.org/1999/02/22-rdf-syntax-ns#"
   xmlns:svg="http://www.w3.org/2000/svg"
   xmlns="http://www.w3.org/2000/svg"
   xmlns:sodipodi="http://sodipodi.sourceforge.net/DTD/sodipodi-0.dtd"
   xmlns:inkscape="http://www.inkscape.org/namespaces/inkscape"
   id="svg43751"
   version="1.1"
   inkscape:version="0.48.5 r10040"
   width="256"
   height="256"
   xml:space="preserve"
   sodipodi:docname="Magnavox - Odyssey2-content.svg"
   inkscape:export-filename="/Users/margetts/Desktop/BAXY RetroActive/png_marked/Magnavox - Odyssey2-content.png"
   inkscape:export-xdpi="90.099998"
   inkscape:export-ydpi="90.099998"><metadata
     id="metadata43757"><rdf:RDF><cc:Work
         rdf:about=""><dc:format>image/svg+xml</dc:format><dc:type
           rdf:resource="http://purl.org/dc/dcmitype/StillImage" /><dc:title></dc:title></cc:Work></rdf:RDF></metadata><defs
     id="defs43755"><clipPath
       clipPathUnits="userSpaceOnUse"
       id="clipPath43765"><path
         d="M 0,128 128,128 128,0 0,0 0,128 z"
         id="path43767"
         inkscape:connector-curvature="0" /></clipPath></defs><sodipodi:namedview
     pagecolor="#ffffff"
     bordercolor="#666666"
     borderopacity="1"
     objecttolerance="10"
     gridtolerance="10"
     guidetolerance="10"
     inkscape:pageopacity="0"
     inkscape:pageshadow="2"
     inkscape:window-width="1676"
     inkscape:window-height="1005"
     id="namedview43753"
     showgrid="false"
     inkscape:zoom="5.14375"
     inkscape:cx="55.601458"
     inkscape:cy="80"
     inkscape:window-x="4"
     inkscape:window-y="1"
     inkscape:window-maximized="1"
     inkscape:current-layer="g43759" /><g
     id="g43759"
     inkscape:groupmode="layer"
     inkscape:label="Magnavox - Odyssey2-content"
     transform="matrix(1.25,0,0,-1.25,0,256)"><g
       id="g43761"
       transform="matrix(1.6025027,0,0,1.6025027,-0.42768278,0)"><g
         id="g43763"
         clip-path="url(#clipPath43765)"><g
           id="g43769"
           transform="translate(50.937,113.0051)"><path
             d="m 0,0 1.727,0 22.966,0 4.284,0 6.608,0 0.791,-11.527 -46.332,0 L -9.165,0 0,0 z m 56.2,-11.527 c -0.875,5.826 -3.684,17.364 -4.676,21.364 -0.755,3.1 -4.169,4.958 -9.129,4.958 l 0,0 -0.274,-0.004 -13.144,0.002 -4.284,0 -22.966,0 -1.727,0 -15.786,0 -0.188,0.002 c -4.961,0 -8.375,-1.858 -9.133,-4.969 -4.671,-18.831 -5.22,-23.443 -4.792,-25.13 l 0,-95.181 0,-2.72 2.72,0 80.936,0 2.72,0 0,2.72 0,96.238 0,2.72 -0.277,0 z"
             style="fill:#ffffff;fill-opacity:1;fill-rule:nonzero;stroke:none"
             id="path43771"
             inkscape:connector-curvature="0" /></g><path
           d="m 80.354,115.726 -28.977,0 0,9.352 28.977,0 0,-9.352 z"
           style="fill:#262626;fill-opacity:1;fill-rule:nonzero;stroke:none"
           id="path43773"
           inkscape:connector-curvature="0" /><path
           d="m 105.134,2.521 -80.935,0 0,96.237 80.935,0 0,-96.237 z"
           style="fill:#262626;fill-opacity:1;fill-rule:nonzero;stroke:none"
           id="path43775"
           inkscape:connector-curvature="0" /><path
           d="m 56.165,2.861 -9.862,0 0,11.902 9.862,0 0,-11.902 z"
           style="fill:#191919;fill-opacity:1;fill-rule:nonzero;stroke:none"
           id="path43777"
           inkscape:connector-curvature="0" /><g
           id="g43779"
           transform="translate(100.713,24.9216)"><path
             d="m 0,0 c 0,-1.558 -1.459,-2.817 -3.264,-2.817 l -65.272,0 c -1.805,0 -3.264,1.259 -3.264,2.817 l 0,64.802 c 0,1.558 1.459,2.817 3.264,2.817 l 65.272,0 C -1.459,67.619 0,66.36 0,64.802 L 0,0 z"
             style="fill:#262626;fill-opacity:1;fill-rule:nonzero;stroke:none"
             id="path43781"
             inkscape:connector-curvature="0" /></g><g
           id="g43783"
           transform="translate(97.4493,92.5408)"><path
             d="m 0,0 -65.272,0 c -1.805,0 -3.264,-1.259 -3.264,-2.817 l 0,-64.802 c 0,-1.558 1.459,-2.818 3.264,-2.818 l 65.272,0 c 1.805,0 3.264,1.26 3.264,2.818 l 0,64.802 C 3.264,-1.259 1.805,0 0,0 m 0,-1.36 c 1.032,0 1.903,-0.668 1.903,-1.457 l 0,-64.802 c 0,-0.79 -0.871,-1.457 -1.903,-1.457 l -65.272,0 c -1.032,0 -1.904,0.667 -1.904,1.457 l 0,64.802 c 0,0.789 0.872,1.457 1.904,1.457 L 0,-1.36"
             style="fill:#191919;fill-opacity:1;fill-rule:nonzero;stroke:none"
             id="path43785"
             inkscape:connector-curvature="0" /></g><g
           id="g43787"
           transform="translate(28.9132,122.1868)"><path
             d="m 0,0 c 0,0 -5.905,-23.805 -4.715,-23.805 l 14.283,0 1.19,17.344 13.433,0 0,9.352 -17.513,0 C 6.678,2.891 0.749,3.074 0,0"
             style="fill:#333333;fill-opacity:1;fill-rule:nonzero;stroke:none"
             id="path43789"
             inkscape:connector-curvature="0" /></g><g
           id="g43791"
           transform="translate(100.2608,122.1868)"><path
             d="m 0,0 c 0,0 5.905,-23.805 4.715,-23.805 l -14.283,0 -1.19,17.344 -13.433,0 0,9.352 17.513,0 c 0,0 5.929,0.183 6.678,-2.891"
             style="fill:#333333;fill-opacity:1;fill-rule:nonzero;stroke:none"
             id="path43793"
             inkscape:connector-curvature="0" /></g><path
           d="m 91.644,78.808 -54.41,0 0,0.68 54.41,0 0,-0.68 z"
           style="fill:#ffffff;fill-opacity:1;fill-rule:nonzero;stroke:none"
           id="path43795"
           inkscape:connector-curvature="0" /><path
           d="m 91.644,86.743 -54.41,0 0,0.68 54.41,0 0,-0.68 z"
           style="fill:#ffffff;fill-opacity:1;fill-rule:nonzero;stroke:none"
           id="path43797"
           inkscape:connector-curvature="0" /><g
           id="g43799"
           transform="translate(52.6204,62.6653)"><path
             d="m 0,0 -1.899,0 -5.538,10.98 2.666,0 L 0,0 z"
             style="fill:#e48c00;fill-opacity:1;fill-rule:nonzero;stroke:none"
             id="path43801"
             inkscape:connector-curvature="0" /></g><g
           id="g43803"
           transform="translate(45.603,64.7725)"><path
             d="m 0,0 -5.702,8.873 -2.666,0 7.823,-10.98 0.949,0 0.95,0 2.92,0 L 3.146,0 0,0 z"
             style="fill:#e48c00;fill-opacity:1;fill-rule:nonzero;stroke:none"
             id="path43805"
             inkscape:connector-curvature="0" /></g><g
           id="g43807"
           transform="translate(83.8761,64.7725)"><path
             d="m 0,0 -1.017,0 3.377,5.373 1.203,0 L 0,0 z m 5.884,8.873 -1.325,0 -2.222,0 -0.444,0 -6.134,-10.98 0.317,0 1.583,0 0.944,0 1.342,0 1.502,2.107 3.828,5.373 2.493,3.5 -1.884,0 z"
             style="fill:#e48c00;fill-opacity:1;fill-rule:nonzero;stroke:none"
             id="path43809"
             inkscape:connector-curvature="0" /></g><g
           id="g43811"
           transform="translate(77.3565,73.6455)"><path
             d="m 0,0 -1.382,0 -2.667,0 -1.382,0 -0.686,-3.5 1.255,0 -1.737,-7.48 1.9,0 2.259,7.48 1.256,0 L 0,0 z"
             style="fill:#e48c00;fill-opacity:1;fill-rule:nonzero;stroke:none"
             id="path43813"
             inkscape:connector-curvature="0" /></g><g
           id="g43815"
           transform="translate(59.5656,70.1457)"><path
             d="m 0,0 1.786,0 0.136,-1.52 -1.708,0 L 0,0 z m 3.983,-7.45 -1.204,3.258 0.885,0 L 3.558,-1.52 3.498,0 3.359,3.5 l -6.517,0 2.31,-10.98 1.899,0 -0.462,3.288 0.667,0 1.367,-3.259 1.36,10e-4 z"
             style="fill:#e48c00;fill-opacity:1;fill-rule:nonzero;stroke:none"
             id="path43817"
             inkscape:connector-curvature="0" /></g><g
           id="g43819"
           transform="translate(79.3346,70.1457)"><path
             d="m 0,0 1.786,0 -0.731,-1.52 -1.708,0 L 0,0 z m -0.263,-7.45 0.653,3.258 0.885,0 1.417,2.672 0.806,1.52 1.856,3.5 -6.517,0 -3.949,-10.98 1.9,0 1.412,3.288 0.666,0 -0.49,-3.259 1.361,10e-4 z"
             style="fill:#e48c00;fill-opacity:1;fill-rule:nonzero;stroke:none"
             id="path43821"
             inkscape:connector-curvature="0" /></g><g
           id="g43823"
           transform="translate(70.0119,70.1457)"><path
             d="m 0,0 0.562,3.5 -3.851,0 -1.58,0 -1.086,0 0.11,-10.98 0.774,0 1.125,0 2.744,0 0.339,2.107 -2.957,0 0.071,1.181 3.075,0 0.43,2.672 -3.345,0 L -3.498,0 0,0 z"
             style="fill:#e48c00;fill-opacity:1;fill-rule:nonzero;stroke:none"
             id="path43825"
             inkscape:connector-curvature="0" /></g><g
           id="g43827"
           transform="translate(54.8265,68.6258)"><path
             d="m 0,0 -1.708,0 -0.519,1.52 1.786,0 L 0,0 z m 1.117,-3.853 -1.51,0 -0.403,1.181 1.571,0 0.342,-1.181 z m -0.427,2.48 0.938,1.409 -0.357,1.484 -0.842,3.5 -6.517,0 4.515,-10.98 4.643,0 -0.506,2.107 -0.285,1.181 0,0.004 -1.589,1.295 z"
             style="fill:#e48c00;fill-opacity:1;fill-rule:nonzero;stroke:none"
             id="path43829"
             inkscape:connector-curvature="0" /></g><g
           id="g43831"
           transform="translate(54.6457,53.7568)"><path
             d="m 0,0 -3.241,0 -6.347,8.909 4.819,0 L 0,0 z"
             style="fill:#dab835;fill-opacity:1;fill-rule:nonzero;stroke:none"
             id="path43833"
             inkscape:connector-curvature="0" /></g><g
           id="g43835"
           transform="translate(56.4909,53.7568)"><path
             d="m 0,0 -1.277,0 -4.493,8.909 1.9,0 L 0,0 z"
             style="fill:#dab835;fill-opacity:1;fill-rule:nonzero;stroke:none"
             id="path43837"
             inkscape:connector-curvature="0" /></g><g
           id="g43839"
           transform="translate(60.0394,53.7568)"><path
             d="m 0,0 -3.123,0 -3.663,8.909 4.643,0 L 0,0 z"
             style="fill:#dab835;fill-opacity:1;fill-rule:nonzero;stroke:none"
             id="path43841"
             inkscape:connector-curvature="0" /></g><g
           id="g43843"
           transform="translate(61.8686,53.7568)"><path
             d="m 0,0 -1.277,0 -1.874,8.909 1.899,0 L 0,0 z"
             style="fill:#dab835;fill-opacity:1;fill-rule:nonzero;stroke:none"
             id="path43845"
             inkscape:connector-curvature="0" /></g><g
           id="g43847"
           transform="translate(63.841,53.7568)"><path
             d="m 0,0 -0.914,0 -0.739,8.938 1.361,0 L 0,0 z"
             style="fill:#dab835;fill-opacity:1;fill-rule:nonzero;stroke:none"
             id="path43849"
             inkscape:connector-curvature="0" /></g><g
           id="g43851"
           transform="translate(64.2562,53.7568)"><path
             d="m 0,0 3.123,0 1.431,8.909 -4.643,0 L 0,0 z"
             style="fill:#dab835;fill-opacity:1;fill-rule:nonzero;stroke:none"
             id="path43853"
             inkscape:connector-curvature="0" /></g><g
           id="g43855"
           transform="translate(69.948,53.7568)"><path
             d="m 0,0 -1.259,0 2.069,8.909 1.872,0 L 0,0 z"
             style="fill:#dab835;fill-opacity:1;fill-rule:nonzero;stroke:none"
             id="path43857"
             inkscape:connector-curvature="0" /></g><g
           id="g43859"
           transform="translate(72.2963,53.7568)"><path
             d="m 0,0 -1.277,0 3.203,8.909 1.9,0 L 0,0 z"
             style="fill:#dab835;fill-opacity:1;fill-rule:nonzero;stroke:none"
             id="path43861"
             inkscape:connector-curvature="0" /></g><g
           id="g43863"
           transform="translate(74.2687,53.7568)"><path
             d="m 0,0 -0.914,0 4.356,8.938 1.36,0 L 0,0 z"
             style="fill:#dab835;fill-opacity:1;fill-rule:nonzero;stroke:none"
             id="path43865"
             inkscape:connector-curvature="0" /></g><g
           id="g43867"
           transform="translate(74.6591,53.7568)"><path
             d="m 0,0 2.815,0 6.347,8.909 -4.186,0 L 0,0 z"
             style="fill:#dab835;fill-opacity:1;fill-rule:nonzero;stroke:none"
             id="path43869"
             inkscape:connector-curvature="0" /></g><g
           id="g43871"
           transform="translate(70.8305,32.8665)"><path
             d="m 0,0 1.416,0 0,-0.827 0.708,0 0,-0.585 0.709,0 0,0.587 0.707,0 0,0.825 1.416,0 0,-4.838 c -0.472,0 -0.944,0 -1.416,0 l 0,2.947 -0.709,0 0,-0.818 -0.709,0 0,0.818 -0.706,0 0,-2.947 L 0,-4.838 0,0 z"
             style="fill:#6ea0ff;fill-opacity:1;fill-rule:nonzero;stroke:none"
             id="path43873"
             inkscape:connector-curvature="0" /></g><path
           d="m 55.26,28.624 2.117,0 0,3.65 -2.117,0 0,-3.65 z m 2.828,-0.595 -3.54,0 0,0.708 -0.708,0 0,3.422 0.708,0 0,0.708 3.54,0 0,-0.712 0.705,0 0,-3.419 -0.705,0 0,-0.707 z"
           style="fill:#f64650;fill-opacity:1;fill-rule:nonzero;stroke:none"
           id="path43875"
           inkscape:connector-curvature="0" /><g
           id="g43877"
           transform="translate(70.1226,32.8665)"><path
             d="m 0,0 0,-0.589 -3.536,0 0,-1.532 2.116,0 0,-0.592 -2.117,0 0,-1.532 3.537,0 0,-0.593 -4.956,0 0,4.838 L 0,0 z"
             style="fill:#dbaf49;fill-opacity:1;fill-rule:nonzero;stroke:none"
             id="path43879"
             inkscape:connector-curvature="0" /></g><g
           id="g43881"
           transform="translate(60.2115,28.0289)"><path
             d="m 0,0 0,1.297 0.707,0 0,0.707 0.706,0 0,0.707 0.709,0 0,0.709 0.705,0 0,0.824 -1.409,0 0,-0.7 -1.414,0 0,0.584 0.704,0 0,0.71 2.832,0 0,-0.71 0.704,0 0,-0.59 -0.706,0 0,-0.707 -0.709,0 0,-0.709 -0.706,0 0,-0.708 -0.704,0 0,-0.825 2.829,0 L 4.248,0 0,0 z"
             style="fill:#61f366;fill-opacity:1;fill-rule:nonzero;stroke:none"
             id="path43883"
             inkscape:connector-curvature="0" /></g></g></g></g></svg>