<?xml version="1.0" encoding="UTF-8" standalone="no"?>
<!-- Created with Inkscape (http://www.inkscape.org/) -->

<svg
   xmlns:dc="http://purl.org/dc/elements/1.1/"
   xmlns:cc="http://creativecommons.org/ns#"
   xmlns:rdf="http://www.w3.org/1999/02/22-rdf-syntax-ns#"
   xmlns:svg="http://www.w3.org/2000/svg"
   xmlns="http://www.w3.org/2000/svg"
   xmlns:sodipodi="http://sodipodi.sourceforge.net/DTD/sodipodi-0.dtd"
   xmlns:inkscape="http://www.inkscape.org/namespaces/inkscape"
   id="svg49858"
   version="1.1"
   inkscape:version="0.48.5 r10040"
   width="256"
   height="256"
   xml:space="preserve"
   sodipodi:docname="Nintendo - Game Boy Color-content.svg"
   inkscape:export-filename="/Users/margetts/Desktop/BAXY RetroActive/png_marked/Nintendo - Game Boy Color-content.png"
   inkscape:export-xdpi="90.099998"
   inkscape:export-ydpi="90.099998"><metadata
     id="metadata49864"><rdf:RDF><cc:Work
         rdf:about=""><dc:format>image/svg+xml</dc:format><dc:type
           rdf:resource="http://purl.org/dc/dcmitype/StillImage" /><dc:title></dc:title></cc:Work></rdf:RDF></metadata><defs
     id="defs49862"><clipPath
       clipPathUnits="userSpaceOnUse"
       id="clipPath49872"><path
         d="M 0,128 128,128 128,0 0,0 0,128 z"
         id="path49874"
         inkscape:connector-curvature="0" /></clipPath><clipPath
       clipPathUnits="userSpaceOnUse"
       id="clipPath49888"><path
         d="m 15.4968,120.494 95.1332,0 0,-110.98819 -95.1332,0 0,110.98819 z"
         id="path49890"
         inkscape:connector-curvature="0" /></clipPath><clipPath
       clipPathUnits="userSpaceOnUse"
       id="clipPath49980"><path
         d="m 21.4426,116.968 83.2414,0 0,-27.7471 -83.2414,0 0,27.7471 z"
         id="path49982"
         inkscape:connector-curvature="0" /></clipPath></defs><sodipodi:namedview
     pagecolor="#ffffff"
     bordercolor="#666666"
     borderopacity="1"
     objecttolerance="10"
     gridtolerance="10"
     guidetolerance="10"
     inkscape:pageopacity="0"
     inkscape:pageshadow="2"
     inkscape:window-width="1676"
     inkscape:window-height="1005"
     id="namedview49860"
     showgrid="false"
     inkscape:zoom="5.14375"
     inkscape:cx="55.601458"
     inkscape:cy="80"
     inkscape:window-x="4"
     inkscape:window-y="1"
     inkscape:window-maximized="1"
     inkscape:current-layer="g49866" /><g
     id="g49866"
     inkscape:groupmode="layer"
     inkscape:label="Nintendo - Game Boy Color-content"
     transform="matrix(1.25,0,0,-1.25,0,256)"><g
       id="g49868"
       transform="matrix(1.6125933,0,0,1.6125933,0.70486746,-1.6119453)"><g
         id="g49870"
         clip-path="url(#clipPath49872)"><g
           id="g49876"
           transform="translate(120.1266,113.8006)"><path
             d="m 0,0 c 0,0.923 -0.38,1.758 -0.991,2.359 l 0,2.353 c 0,5.783 -4.705,10.487 -10.488,10.487 l -91.169,0 c -5.783,0 -10.488,-4.704 -10.488,-10.487 l 0,-2.353 C -113.747,1.758 -114.127,0.923 -114.127,0 l 0,-0.486 c 0,-0.638 0.182,-1.234 0.495,-1.739 -0.313,-0.506 -0.495,-1.101 -0.495,-1.739 l 0,-0.486 c 0,-0.637 0.182,-1.233 0.495,-1.739 -0.313,-0.506 -0.495,-1.101 -0.495,-1.739 l 0,-0.486 c 0,-0.637 0.182,-1.233 0.495,-1.739 -0.313,-0.505 -0.495,-1.101 -0.495,-1.739 l 0,-0.486 c 0,-0.637 0.182,-1.233 0.495,-1.739 -0.313,-0.505 -0.495,-1.101 -0.495,-1.738 l 0,-0.487 c 0,-0.922 0.38,-1.758 0.991,-2.358 l 0,-47.938 0,-35.675 0,-7.928 0,-2.56 2.56,0 7.928,0 91.169,0 7.928,0 2.56,0 0,2.56 0,7.928 0,35.675 0,47.937 C -0.38,-18.1 0,-17.264 0,-16.342 l 0,0.487 c 0,0.637 -0.181,1.233 -0.495,1.738 0.314,0.506 0.495,1.102 0.495,1.739 l 0,0.486 c 0,0.638 -0.181,1.234 -0.495,1.739 C -0.181,-9.647 0,-9.051 0,-8.414 l 0,0.486 C 0,-7.29 -0.181,-6.695 -0.495,-6.189 -0.181,-5.683 0,-5.087 0,-4.45 l 0,0.486 c 0,0.638 -0.181,1.233 -0.495,1.739 C -0.181,-1.72 0,-1.124 0,-0.486 L 0,0 z"
             style="fill:#ffffff;fill-opacity:1;fill-rule:nonzero;stroke:none"
             id="path49878"
             inkscape:connector-curvature="0" /></g><g
           id="g49880"
           transform="translate(108.6478,126.44)"><path
             d="m 0,0 -91.169,0 c -4.379,0 -7.928,-3.549 -7.928,-7.928 l 0,-71.349 0,-35.675 0,-7.928 7.928,0 91.169,0 7.928,0 0,7.928 0,35.675 0,71.349 C 7.928,-3.549 4.378,0 0,0"
             style="fill:#8c8c8c;fill-opacity:1;fill-rule:nonzero;stroke:none"
             id="path49882"
             inkscape:connector-curvature="0" /></g><g
           id="g49884"><g
             id="g49886" /><g
             id="g49892"><g
               clip-path="url(#clipPath49888)"
               id="g49894"
               style="opacity:0.97491503"><g
                 transform="translate(20.2085,27.3432)"
                 id="g49896"><path
                   d="m 0,0 85.709,0 c 0.413,0 0.748,-0.335 0.748,-0.748 l 0,-16.342 c 0,-0.413 -0.335,-0.747 -0.748,-0.747 l -85.709,0 c -0.413,0 -0.748,0.334 -0.748,0.747 l 0,16.342 C -0.748,-0.335 -0.413,0 0,0"
                   style="fill:#1d8047;fill-opacity:1;fill-rule:nonzero;stroke:none"
                   id="path49898"
                   inkscape:connector-curvature="0" /></g><g
                 transform="translate(104.6839,31.3071)"
                 id="g49900"><path
                   d="m 0,0 c 1.095,0 1.982,-0.887 1.982,-1.982 0,-1.095 -0.887,-1.982 -1.982,-1.982 -1.095,0 -1.982,0.887 -1.982,1.982 C -1.982,-0.887 -1.095,0 0,0 m -88.444,89.187 c -0.414,0 -0.743,-0.329 -0.743,-0.743 l 0,-93.647 c 0,-0.414 0.329,-0.743 0.743,-0.743 l 93.647,0 c 0.414,0 0.743,0.329 0.743,0.743 l 0,93.647 c 0,0.414 -0.329,0.743 -0.743,0.743 l -93.647,0 z"
                   style="fill:#176639;fill-opacity:1;fill-rule:nonzero;stroke:none"
                   id="path49902"
                   inkscape:connector-curvature="0" /></g><g
                 transform="translate(92.7923,94.729)"
                 id="g49904"><path
                   d="m 0,0 c 0,-7.662 -6.211,-13.874 -13.874,-13.874 -7.662,0 -13.873,6.212 -13.873,13.874 0,7.662 6.211,13.874 13.873,13.874 C -6.211,13.874 0,7.662 0,0"
                   style="fill:#666666;fill-opacity:1;fill-rule:nonzero;stroke:none"
                   id="path49906"
                   inkscape:connector-curvature="0" /></g><g
                 transform="translate(32.1001,106.6207)"
                 id="g49908"><path
                   d="m 0,0 14.36,0 c 0.413,0 0.748,-0.335 0.748,-0.748 l 0,-8.414 c 0,-0.413 -0.335,-0.748 -0.748,-0.748 L 0,-9.91 c -0.413,0 -0.748,0.335 -0.748,0.748 l 0,8.414 C -0.748,-0.335 -0.413,0 0,0"
                   style="fill:#2c3e50;fill-opacity:1;fill-rule:nonzero;stroke:none"
                   id="path49910"
                   inkscape:connector-curvature="0" /></g><g
                 transform="translate(75.7027,72.9277)"
                 id="g49912"><path
                   d="m 0,0 24.269,0 c 0.413,0 0.748,-0.335 0.748,-0.748 l 0,-34.179 c 0,-0.413 -0.335,-0.748 -0.748,-0.748 l -24.269,0 c -0.413,0 -0.748,0.335 -0.748,0.748 l 0,34.179 C -0.748,-0.335 -0.413,0 0,0"
                   style="fill:#2c3e50;fill-opacity:1;fill-rule:nonzero;stroke:none"
                   id="path49914"
                   inkscape:connector-curvature="0" /></g><g
                 transform="translate(38.0459,70.9458)"
                 id="g49916"><path
                   d="m 0,0 22.288,0 c 0.413,0 0.747,-0.335 0.747,-0.748 l 0,-14.36 c 0,-0.413 -0.334,-0.747 -0.747,-0.747 l -22.288,0 c -0.413,0 -0.748,0.334 -0.748,0.747 l 0,14.36 C -0.748,-0.335 -0.413,0 0,0"
                   style="fill:#2c3e50;fill-opacity:1;fill-rule:nonzero;stroke:none"
                   id="path49918"
                   inkscape:connector-curvature="0" /></g></g></g></g><path
           d="m 23.923,11.488 -2.48,0 0,10.19 2.48,0 0,-10.19 z"
           style="fill:#a59164;fill-opacity:1;fill-rule:nonzero;stroke:none"
           id="path49920"
           inkscape:connector-curvature="0" /><path
           d="m 26.914,11.488 -2.48,0 0,10.19 2.48,0 0,-10.19 z"
           style="fill:#a59164;fill-opacity:1;fill-rule:nonzero;stroke:none"
           id="path49922"
           inkscape:connector-curvature="0" /><path
           d="m 29.905,11.488 -2.48,0 0,10.19 2.48,0 0,-10.19 z"
           style="fill:#a59164;fill-opacity:1;fill-rule:nonzero;stroke:none"
           id="path49924"
           inkscape:connector-curvature="0" /><path
           d="m 32.896,11.488 -2.48,0 0,10.19 2.48,0 0,-10.19 z"
           style="fill:#a59164;fill-opacity:1;fill-rule:nonzero;stroke:none"
           id="path49926"
           inkscape:connector-curvature="0" /><path
           d="m 35.888,11.488 -2.48,0 0,10.19 2.48,0 0,-10.19 z"
           style="fill:#a59164;fill-opacity:1;fill-rule:nonzero;stroke:none"
           id="path49928"
           inkscape:connector-curvature="0" /><path
           d="m 38.879,11.488 -2.48,0 0,10.19 2.48,0 0,-10.19 z"
           style="fill:#a59164;fill-opacity:1;fill-rule:nonzero;stroke:none"
           id="path49930"
           inkscape:connector-curvature="0" /><path
           d="m 41.87,11.488 -2.48,0 0,10.19 2.48,0 0,-10.19 z"
           style="fill:#a59164;fill-opacity:1;fill-rule:nonzero;stroke:none"
           id="path49932"
           inkscape:connector-curvature="0" /><path
           d="m 44.861,11.488 -2.48,0 0,10.19 2.48,0 0,-10.19 z"
           style="fill:#a59164;fill-opacity:1;fill-rule:nonzero;stroke:none"
           id="path49934"
           inkscape:connector-curvature="0" /><path
           d="m 47.852,11.488 -2.48,0 0,10.19 2.48,0 0,-10.19 z"
           style="fill:#a59164;fill-opacity:1;fill-rule:nonzero;stroke:none"
           id="path49936"
           inkscape:connector-curvature="0" /><path
           d="m 50.843,11.488 -2.48,0 0,10.19 2.48,0 0,-10.19 z"
           style="fill:#a59164;fill-opacity:1;fill-rule:nonzero;stroke:none"
           id="path49938"
           inkscape:connector-curvature="0" /><path
           d="m 53.834,11.488 -2.48,0 0,10.19 2.48,0 0,-10.19 z"
           style="fill:#a59164;fill-opacity:1;fill-rule:nonzero;stroke:none"
           id="path49940"
           inkscape:connector-curvature="0" /><path
           d="m 56.826,11.488 -2.48,0 0,10.19 2.48,0 0,-10.19 z"
           style="fill:#a59164;fill-opacity:1;fill-rule:nonzero;stroke:none"
           id="path49942"
           inkscape:connector-curvature="0" /><path
           d="m 59.817,11.488 -2.48,0 0,10.19 2.48,0 0,-10.19 z"
           style="fill:#a59164;fill-opacity:1;fill-rule:nonzero;stroke:none"
           id="path49944"
           inkscape:connector-curvature="0" /><path
           d="m 62.808,11.488 -2.48,0 0,10.19 2.48,0 0,-10.19 z"
           style="fill:#a59164;fill-opacity:1;fill-rule:nonzero;stroke:none"
           id="path49946"
           inkscape:connector-curvature="0" /><path
           d="m 65.799,11.488 -2.48,0 0,10.19 2.48,0 0,-10.19 z"
           style="fill:#a59164;fill-opacity:1;fill-rule:nonzero;stroke:none"
           id="path49948"
           inkscape:connector-curvature="0" /><path
           d="m 68.79,11.488 -2.48,0 0,10.19 2.48,0 0,-10.19 z"
           style="fill:#a59164;fill-opacity:1;fill-rule:nonzero;stroke:none"
           id="path49950"
           inkscape:connector-curvature="0" /><path
           d="m 71.781,11.488 -2.48,0 0,10.19 2.48,0 0,-10.19 z"
           style="fill:#a59164;fill-opacity:1;fill-rule:nonzero;stroke:none"
           id="path49952"
           inkscape:connector-curvature="0" /><path
           d="m 74.772,11.488 -2.48,0 0,10.19 2.48,0 0,-10.19 z"
           style="fill:#a59164;fill-opacity:1;fill-rule:nonzero;stroke:none"
           id="path49954"
           inkscape:connector-curvature="0" /><path
           d="m 77.764,11.488 -2.48,0 0,10.19 2.48,0 0,-10.19 z"
           style="fill:#a59164;fill-opacity:1;fill-rule:nonzero;stroke:none"
           id="path49956"
           inkscape:connector-curvature="0" /><path
           d="m 80.755,11.488 -2.48,0 0,10.19 2.48,0 0,-10.19 z"
           style="fill:#a59164;fill-opacity:1;fill-rule:nonzero;stroke:none"
           id="path49958"
           inkscape:connector-curvature="0" /><path
           d="m 83.746,11.488 -2.48,0 0,10.19 2.48,0 0,-10.19 z"
           style="fill:#a59164;fill-opacity:1;fill-rule:nonzero;stroke:none"
           id="path49960"
           inkscape:connector-curvature="0" /><path
           d="m 86.737,11.488 -2.48,0 0,10.19 2.48,0 0,-10.19 z"
           style="fill:#a59164;fill-opacity:1;fill-rule:nonzero;stroke:none"
           id="path49962"
           inkscape:connector-curvature="0" /><path
           d="m 89.728,11.488 -2.48,0 0,10.19 2.48,0 0,-10.19 z"
           style="fill:#a59164;fill-opacity:1;fill-rule:nonzero;stroke:none"
           id="path49964"
           inkscape:connector-curvature="0" /><path
           d="m 92.719,11.488 -2.48,0 0,10.19 2.48,0 0,-10.19 z"
           style="fill:#a59164;fill-opacity:1;fill-rule:nonzero;stroke:none"
           id="path49966"
           inkscape:connector-curvature="0" /><path
           d="m 95.71,11.488 -2.48,0 0,10.19 2.48,0 0,-10.19 z"
           style="fill:#a59164;fill-opacity:1;fill-rule:nonzero;stroke:none"
           id="path49968"
           inkscape:connector-curvature="0" /><path
           d="m 98.702,11.488 -2.48,0 0,10.19 2.48,0 0,-10.19 z"
           style="fill:#a59164;fill-opacity:1;fill-rule:nonzero;stroke:none"
           id="path49970"
           inkscape:connector-curvature="0" /><path
           d="m 101.693,11.488 -2.48,0 0,10.19 2.48,0 0,-10.19 z"
           style="fill:#a59164;fill-opacity:1;fill-rule:nonzero;stroke:none"
           id="path49972"
           inkscape:connector-curvature="0" /><path
           d="m 104.684,11.488 -2.48,0 0,10.19 2.48,0 0,-10.19 z"
           style="fill:#a59164;fill-opacity:1;fill-rule:nonzero;stroke:none"
           id="path49974"
           inkscape:connector-curvature="0" /><g
           id="g49976"><g
             id="g49978" /><g
             id="g49984"><g
               clip-path="url(#clipPath49980)"
               id="g49986"
               style="opacity:0.75"><g
                 transform="translate(23.4245,116.968)"
                 id="g49988"><path
                   d="m 0,0 79.277,0 c 1.095,0 1.982,-0.887 1.982,-1.982 l 0,-23.783 c 0,-1.095 -0.887,-1.982 -1.982,-1.982 l -79.277,0 c -1.095,0 -1.982,0.887 -1.982,1.982 l 0,23.783 C -1.982,-0.887 -1.095,0 0,0"
                   style="fill:#8c8c8c;fill-opacity:1;fill-rule:nonzero;stroke:none"
                   id="path49990"
                   inkscape:connector-curvature="0" /></g></g></g></g><g
           id="g49992"
           transform="translate(113.3595,114.5484)"><path
             d="m 0,0 3.459,0 c 0.413,0 0.748,-0.335 0.748,-0.748 l 0,-0.486 c 0,-0.413 -0.335,-0.748 -0.748,-0.748 l -3.459,0 c -0.413,0 -0.748,0.335 -0.748,0.748 l 0,0.486 C -0.748,-0.335 -0.413,0 0,0"
             style="fill:#808080;fill-opacity:1;fill-rule:nonzero;stroke:none"
             id="path49994"
             inkscape:connector-curvature="0" /></g><g
           id="g49996"
           transform="translate(113.3595,110.5845)"><path
             d="m 0,0 3.459,0 c 0.413,0 0.748,-0.335 0.748,-0.748 l 0,-0.486 c 0,-0.413 -0.335,-0.748 -0.748,-0.748 l -3.459,0 c -0.413,0 -0.748,0.335 -0.748,0.748 l 0,0.486 C -0.748,-0.335 -0.413,0 0,0"
             style="fill:#808080;fill-opacity:1;fill-rule:nonzero;stroke:none"
             id="path49998"
             inkscape:connector-curvature="0" /></g><g
           id="g50000"
           transform="translate(113.3595,106.6207)"><path
             d="m 0,0 3.459,0 c 0.413,0 0.748,-0.335 0.748,-0.748 l 0,-0.486 c 0,-0.413 -0.335,-0.748 -0.748,-0.748 l -3.459,0 c -0.413,0 -0.748,0.335 -0.748,0.748 l 0,0.486 C -0.748,-0.335 -0.413,0 0,0"
             style="fill:#808080;fill-opacity:1;fill-rule:nonzero;stroke:none"
             id="path50002"
             inkscape:connector-curvature="0" /></g><g
           id="g50004"
           transform="translate(113.3595,102.6568)"><path
             d="m 0,0 3.459,0 c 0.413,0 0.748,-0.335 0.748,-0.748 l 0,-0.486 c 0,-0.413 -0.335,-0.748 -0.748,-0.748 l -3.459,0 c -0.413,0 -0.748,0.335 -0.748,0.748 l 0,0.486 C -0.748,-0.335 -0.413,0 0,0"
             style="fill:#808080;fill-opacity:1;fill-rule:nonzero;stroke:none"
             id="path50006"
             inkscape:connector-curvature="0" /></g><g
           id="g50008"
           transform="translate(113.3595,98.6929)"><path
             d="m 0,0 3.459,0 c 0.413,0 0.748,-0.335 0.748,-0.748 l 0,-0.486 c 0,-0.413 -0.335,-0.748 -0.748,-0.748 l -3.459,0 c -0.413,0 -0.748,0.335 -0.748,0.748 l 0,0.486 C -0.748,-0.335 -0.413,0 0,0"
             style="fill:#808080;fill-opacity:1;fill-rule:nonzero;stroke:none"
             id="path50010"
             inkscape:connector-curvature="0" /></g><g
           id="g50012"
           transform="translate(9.3079,114.5484)"><path
             d="m 0,0 3.459,0 c 0.413,0 0.748,-0.335 0.748,-0.748 l 0,-0.486 c 0,-0.413 -0.335,-0.748 -0.748,-0.748 l -3.459,0 c -0.413,0 -0.748,0.335 -0.748,0.748 l 0,0.486 C -0.748,-0.335 -0.413,0 0,0"
             style="fill:#808080;fill-opacity:1;fill-rule:nonzero;stroke:none"
             id="path50014"
             inkscape:connector-curvature="0" /></g><g
           id="g50016"
           transform="translate(9.3079,110.5845)"><path
             d="m 0,0 3.459,0 c 0.413,0 0.748,-0.335 0.748,-0.748 l 0,-0.486 c 0,-0.413 -0.335,-0.748 -0.748,-0.748 l -3.459,0 c -0.413,0 -0.748,0.335 -0.748,0.748 l 0,0.486 C -0.748,-0.335 -0.413,0 0,0"
             style="fill:#808080;fill-opacity:1;fill-rule:nonzero;stroke:none"
             id="path50018"
             inkscape:connector-curvature="0" /></g><g
           id="g50020"
           transform="translate(9.3079,106.6207)"><path
             d="m 0,0 3.459,0 c 0.413,0 0.748,-0.335 0.748,-0.748 l 0,-0.486 c 0,-0.413 -0.335,-0.748 -0.748,-0.748 l -3.459,0 c -0.413,0 -0.748,0.335 -0.748,0.748 l 0,0.486 C -0.748,-0.335 -0.413,0 0,0"
             style="fill:#808080;fill-opacity:1;fill-rule:nonzero;stroke:none"
             id="path50022"
             inkscape:connector-curvature="0" /></g><g
           id="g50024"
           transform="translate(9.3079,102.6568)"><path
             d="m 0,0 3.459,0 c 0.413,0 0.748,-0.335 0.748,-0.748 l 0,-0.486 c 0,-0.413 -0.335,-0.748 -0.748,-0.748 l -3.459,0 c -0.413,0 -0.748,0.335 -0.748,0.748 l 0,0.486 C -0.748,-0.335 -0.413,0 0,0"
             style="fill:#808080;fill-opacity:1;fill-rule:nonzero;stroke:none"
             id="path50026"
             inkscape:connector-curvature="0" /></g><g
           id="g50028"
           transform="translate(9.3079,98.6929)"><path
             d="m 0,0 3.459,0 c 0.413,0 0.748,-0.335 0.748,-0.748 l 0,-0.486 c 0,-0.413 -0.335,-0.748 -0.748,-0.748 l -3.459,0 c -0.413,0 -0.748,0.335 -0.748,0.748 l 0,0.486 C -0.748,-0.335 -0.413,0 0,0"
             style="fill:#808080;fill-opacity:1;fill-rule:nonzero;stroke:none"
             id="path50030"
             inkscape:connector-curvature="0" /></g><g
           id="g50032"
           transform="translate(25.4064,84.2)"><path
             d="m 0,0 75.314,0 c 2.189,0 3.963,-1.664 3.963,-3.716 l 0,-61.316 c 0,-2.053 -1.774,-3.716 -3.963,-3.716 l -75.314,0 c -2.189,0 -3.964,1.663 -3.964,3.716 l 0,61.316 C -3.964,-1.664 -2.189,0 0,0"
             style="fill:#b6b6b6;fill-opacity:1;fill-rule:nonzero;stroke:none"
             id="path50034"
             inkscape:connector-curvature="0" /></g><path
           d="m 95.661,15.452 -65.707,0 0,68.748 65.707,0 0,-68.748 z"
           style="fill:#2c8bbf;fill-opacity:1;fill-rule:nonzero;stroke:none"
           id="path50036"
           inkscape:connector-curvature="0" /><g
           id="g50038"
           transform="translate(102.8283,89.2209)"><path
             d="m 0,0 c -2.923,4.423 -2.696,14.047 0,27.747 1.035,0 1.856,-0.878 1.856,-1.982 l 0,-23.783 C 1.856,0.857 1.08,0 0,0"
             style="fill:#8c8c8c;fill-opacity:1;fill-rule:nonzero;stroke:none"
             id="path50040"
             inkscape:connector-curvature="0" /></g><g
           id="g50042"
           transform="translate(23.2982,89.2209)"><path
             d="m 0,0 c 2.923,4.423 2.696,14.047 0,27.747 -1.035,0 -1.856,-0.878 -1.856,-1.982 l 0,-23.783 C -1.856,0.857 -1.08,0 0,0"
             style="fill:#8c8c8c;fill-opacity:1;fill-rule:nonzero;stroke:none"
             id="path50044"
             inkscape:connector-curvature="0" /></g><g
           id="g50046"
           transform="translate(31.4533,104.1411)"><path
             d="m 0,0 0.133,0 c 0.45,0 0.968,0.084 1.06,0.66 0.092,0.575 -0.401,0.66 -0.85,0.66 L 0.21,1.32 0,0 z m 2.561,-2.92 -1.713,0 -0.975,2.036 -0.014,0 -0.323,-2.036 -1.376,0 0.842,5.293 2.056,0 c 1.046,0 1.76,-0.499 1.58,-1.629 C 2.522,0.014 2.015,-0.618 1.242,-0.751 L 2.561,-2.92 z"
             style="fill:#8c8c8c;fill-opacity:1;fill-rule:nonzero;stroke:none"
             id="path50048"
             inkscape:connector-curvature="0" /></g><g
           id="g50050"
           transform="translate(35.8357,105.3485)"><path
             d="m 0,0 -0.141,-0.884 1.552,0 -0.186,-1.166 -1.551,0 -0.145,-0.912 1.636,0 -0.186,-1.165 -3.011,0 0.841,5.292 3.012,0 L 1.635,0 0,0 z"
             style="fill:#8c8c8c;fill-opacity:1;fill-rule:nonzero;stroke:none"
             id="path50052"
             inkscape:connector-curvature="0" /></g><g
           id="g50054"
           transform="translate(39.187,101.2211)"><path
             d="m 0,0 -1.376,0 0.656,4.127 -1.137,0 0.186,1.166 3.65,0 -0.185,-1.166 -1.138,0 L 0,0 z"
             style="fill:#8c8c8c;fill-opacity:1;fill-rule:nonzero;stroke:none"
             id="path50056"
             inkscape:connector-curvature="0" /></g><g
           id="g50058"
           transform="translate(42.0793,104.1411)"><path
             d="m 0,0 0.133,0 c 0.45,0 0.968,0.084 1.06,0.66 0.092,0.575 -0.401,0.66 -0.85,0.66 L 0.21,1.32 0,0 z m 2.561,-2.92 -1.713,0 -0.975,2.036 -0.014,0 -0.323,-2.036 -1.376,0 0.841,5.293 2.057,0 c 1.046,0 1.76,-0.499 1.58,-1.629 C 2.522,0.014 2.015,-0.618 1.242,-0.751 L 2.561,-2.92 z"
             style="fill:#8c8c8c;fill-opacity:1;fill-rule:nonzero;stroke:none"
             id="path50060"
             inkscape:connector-curvature="0" /></g><g
           id="g50062"
           transform="translate(46.0302,103.9585)"><path
             d="M 0,0 C -0.145,-0.912 0.423,-1.579 1.244,-1.579 2.065,-1.579 2.845,-0.912 2.99,0 3.106,0.73 2.539,1.397 1.717,1.397 0.896,1.397 0.116,0.73 0,0 m 4.423,0.007 c -0.272,-1.713 -1.692,-2.92 -3.391,-2.92 -1.699,0 -2.735,1.207 -2.463,2.92 0.255,1.6 1.837,2.724 3.36,2.724 1.523,0 2.749,-1.124 2.494,-2.724"
             style="fill:#8c8c8c;fill-opacity:1;fill-rule:nonzero;stroke:none"
             id="path50064"
             inkscape:connector-curvature="0" /></g><g
           id="g50066"
           transform="translate(54.3697,104.4361)"><path
             d="M 0,0 0.154,0 C 0.52,0 0.909,0.063 0.98,0.512 1.057,0.997 0.633,1.025 0.261,1.025 l -0.098,0 L 0,0 z m -0.344,-2.162 0.176,0 c 0.407,0 1.092,-0.021 1.184,0.561 0.101,0.639 -0.589,0.576 -1.038,0.576 l -0.141,0 -0.181,-1.137 z m -1.543,-1.053 0.842,5.293 1.965,0 C 1.861,2.078 2.434,1.713 2.274,0.702 2.198,0.225 1.982,-0.161 1.519,-0.379 L 1.517,-0.393 C 2.259,-0.492 2.501,-1.004 2.383,-1.741 2.207,-2.85 1.201,-3.215 0.233,-3.215 l -2.12,0 z"
             style="fill:#8c8c8c;fill-opacity:1;fill-rule:nonzero;stroke:none"
             id="path50068"
             inkscape:connector-curvature="0" /></g><g
           id="g50070"
           transform="translate(58.2523,103.9585)"><path
             d="M 0,0 C -0.145,-0.912 0.423,-1.579 1.244,-1.579 2.066,-1.579 2.845,-0.912 2.99,0 3.106,0.73 2.539,1.397 1.718,1.397 0.896,1.397 0.117,0.73 0,0 m 4.424,0.007 c -0.273,-1.713 -1.693,-2.92 -3.392,-2.92 -1.698,0 -2.735,1.207 -2.463,2.92 0.255,1.6 1.837,2.724 3.361,2.724 1.523,0 2.748,-1.124 2.494,-2.724"
             style="fill:#8c8c8c;fill-opacity:1;fill-rule:nonzero;stroke:none"
             id="path50072"
             inkscape:connector-curvature="0" /></g><g
           id="g50074"
           transform="translate(62.0365,106.5136)"><path
             d="M 0,0 1.649,0 2.411,-1.439 3.629,0 5.279,0 2.89,-2.751 2.486,-5.293 1.11,-5.293 1.514,-2.751 0,0 z"
             style="fill:#8c8c8c;fill-opacity:1;fill-rule:nonzero;stroke:none"
             id="path50076"
             inkscape:connector-curvature="0" /></g><g
           id="g50078"
           transform="translate(93.1049,105.4238)"><path
             d="m 0,0 c 0.064,-0.837 0.066,-0.84 0.823,-0.575 0.219,0.076 0.434,0.168 0.641,0.273 0.173,0.088 0.4,0.213 0.381,0.403 C 1.82,0.349 1.542,0.364 1.335,0.396 1.068,0.438 0.798,0.46 0.529,0.487 0.126,0.528 -0.209,0.499 0,0 m -2.079,-0.208 c 0.015,0.052 0.049,0.108 0.041,0.157 -0.226,1.41 0.504,2.305 1.975,2.429 1.174,0.1 2.24,-0.179 3.198,-0.869 C 3.683,1.114 3.836,0.695 3.681,0.044 3.528,-0.598 3.142,-1.073 2.631,-1.456 2.322,-1.687 1.987,-1.885 1.617,-2.129 2.55,-2.909 3.453,-3.664 4.356,-4.418 l 0,-0.469 C 4.173,-5.327 3.852,-5.631 3.42,-5.823 l -0.468,0 c -0.933,0.791 -1.865,1.581 -2.931,2.485 0,-0.602 0.027,-1.007 -0.007,-1.406 -0.035,-0.405 -0.186,-0.774 -0.651,-0.853 -0.509,-0.085 -0.928,0.086 -1.179,0.551 -0.183,0.339 -0.192,0.707 -0.05,1.071 0.129,0.332 0.177,0.672 0.117,1.025 -0.063,0.874 -0.058,1.755 -0.236,2.618 -0.003,0.067 0.026,0.158 -0.099,0.134 l 0.005,-0.01 z"
             style="fill:#8c8c8c;fill-opacity:1;fill-rule:nonzero;stroke:none"
             id="path50080"
             inkscape:connector-curvature="0" /></g><g
           id="g50082"
           transform="translate(68.1973,103.0935)"><path
             d="M 0,0 C 0,0.482 0.11,0.958 0.322,1.392 0.653,2.066 1.009,2.725 1.498,3.309 2.171,4.112 2.886,4.84 3.988,5.009 4.628,5.106 5.234,4.974 5.793,4.68 6.399,4.362 6.618,3.613 6.332,3.02 6.171,2.688 5.897,2.522 5.548,2.496 5.195,2.47 4.855,2.592 4.723,2.927 4.551,3.362 4.291,3.387 3.951,3.197 2.653,2.47 1.916,1.351 1.779,-0.119 1.707,-0.893 2.166,-1.387 2.949,-1.535 3.88,-1.713 4.807,-1.526 5.735,-1.484 6.098,-1.652 6.368,-1.9 6.445,-2.313 6.332,-2.793 6.129,-3.229 5.58,-3.274 4.808,-3.336 4.029,-3.373 3.256,-3.347 1.798,-3.299 0.669,-2.724 0.181,-1.238 0.178,-1.228 0.175,-1.218 0.171,-1.208 0.065,-0.906 0,-0.59 0,-0.269 L 0,0 z"
             style="fill:#8c8c8c;fill-opacity:1;fill-rule:nonzero;stroke:none"
             id="path50084"
             inkscape:connector-curvature="0" /></g><g
           id="g50086"
           transform="translate(78.8747,103.2026)"><path
             d="M 0,0 C 0.008,1.038 -0.484,1.79 -1.172,1.791 -2.21,1.792 -3.161,0.937 -3.182,-0.015 -3.2,-0.837 -2.532,-1.485 -1.648,-1.503 -0.717,-1.522 -0.007,-0.874 0,0 m 1.768,-0.672 c -1.051,-2.046 -2.797,-2.908 -4.751,-2.36 -0.458,0.129 -0.838,0.396 -1.249,0.609 -0.077,0.414 -0.347,0.662 -0.71,0.83 -0.38,2.088 0.43,3.86 2.167,4.742 C -1.311,3.891 0.347,3.471 1.288,2.116 1.409,1.941 1.523,1.762 1.641,1.584 1.683,0.832 1.725,0.08 1.768,-0.672"
             style="fill:#8c8c8c;fill-opacity:1;fill-rule:nonzero;stroke:none"
             id="path50088"
             inkscape:connector-curvature="0" /></g><g
           id="g50090"
           transform="translate(88.1036,104.8429)"><path
             d="m 0,0 c -1.014,0.012 -1.9,-0.723 -1.855,-1.539 0.044,-0.819 0.772,-1.478 1.601,-1.45 1.033,0.035 1.888,0.844 1.878,1.778 C 1.616,-0.484 0.983,-0.012 0,0 M 3.252,-2.369 C 2.345,-3.913 0.996,-4.717 -0.793,-4.779 -1.55,-4.805 -2.197,-4.549 -2.724,-4 c 0.251,0.898 -0.019,1.377 -0.891,1.583 -0.046,2.133 0.852,3.551 2.641,4.007 1.521,0.387 2.84,-0.036 3.897,-1.217 L 2.917,0.383 C 2.95,0.339 2.983,0.294 3.016,0.249 3.194,-0.615 3.19,-1.495 3.252,-2.369"
             style="fill:#8c8c8c;fill-opacity:1;fill-rule:nonzero;stroke:none"
             id="path50092"
             inkscape:connector-curvature="0" /></g><g
           id="g50094"
           transform="translate(84.4889,102.4261)"><path
             d="M 0,0 C 0.872,-0.206 1.142,-0.685 0.891,-1.583 0.794,-1.647 0.704,-1.748 0.598,-1.768 c -1.084,-0.209 -2.122,-0.597 -3.195,-0.839 -0.638,-0.143 -0.89,0.104 -0.992,0.753 -0.103,0.65 -0.173,1.305 -0.258,1.959 -0.042,0.752 -0.084,1.504 -0.126,2.256 0.07,0.565 -0.153,1.068 -0.335,1.581 -0.096,0.272 -0.202,0.54 -0.105,0.849 0.227,0.728 0.949,0.946 1.506,0.428 0.488,-0.454 0.64,-1.058 0.669,-1.693 0.052,-1.108 0.1,-2.217 0.115,-3.326 0.008,-0.503 0.138,-0.678 0.648,-0.456 C -1.011,-0.054 -0.521,0.084 0,0"
             style="fill:#8c8c8c;fill-opacity:1;fill-rule:nonzero;stroke:none"
             id="path50096"
             inkscape:connector-curvature="0" /></g><path
           d="m 41.284,34.446 -9.377,0 0,13.28 9.377,0 0,-13.28 z"
           style="fill:#e6e6e6;fill-opacity:1;fill-rule:nonzero;stroke:none"
           id="path50098"
           inkscape:connector-curvature="0" /><path
           d="m 32.219,47.422 8.752,0 0,-2.081 -8.752,0 0,2.081 z m 8.752,-10.552 -8.752,0 0,8.129 8.752,0 0,-8.129 z m -9.065,10.856 0,-2.384 0,-0.339 0,-8.184 0,-0.29 0,-2.083 9.378,0 0,2.083 0,0.29 0,8.184 0,0.339 0,2.384 -9.378,0 z"
           style="fill:#000000;fill-opacity:1;fill-rule:nonzero;stroke:none"
           id="path50100"
           inkscape:connector-curvature="0" /><g
           id="g50102"
           transform="translate(33.2827,35.7648)"><path
             d="m 0,0 0.985,0 0,-0.775 C 0.689,-0.834 0.344,-0.873 0.032,-0.873 c -0.689,0 -1.025,0.326 -1.025,0.779 0,0.453 0.336,0.779 1.046,0.779 0.588,0 0.895,-0.15 0.903,-0.496 l -0.71,0 C 0.244,0.236 0.22,0.267 0.188,0.285 0.156,0.303 0.111,0.312 0.064,0.312 c -0.114,0 -0.188,-0.045 -0.226,-0.105 -0.037,-0.059 -0.047,-0.205 -0.047,-0.33 0,-0.143 0.016,-0.242 0.05,-0.289 0.045,-0.062 0.119,-0.088 0.217,-0.088 0.072,0 0.141,0.008 0.202,0.031 l 0,0.178 -0.26,0 L 0,0 z"
             style="fill:#e6e6e6;fill-opacity:1;fill-rule:nonzero;stroke:none"
             id="path50104"
             inkscape:connector-curvature="0" /></g><g
           id="g50106"
           transform="translate(35.5694,35.5291)"><path
             d="m 0,0 -0.151,0.558 -0.005,0 L -0.323,0 0,0 z m -0.628,0.882 0.983,0 0.614,-1.481 -0.784,0 -0.074,0.238 -0.548,0 -0.077,-0.238 -0.725,0 0.611,1.481 z"
             style="fill:#e6e6e6;fill-opacity:1;fill-rule:nonzero;stroke:none"
             id="path50108"
             inkscape:connector-curvature="0" /></g><g
           id="g50110"
           transform="translate(38.51,35.9884)"><path
             d="m 0,0 -0.005,0 -0.27,-1.058 -0.694,0 -0.27,1.058 -0.006,0 0,-1.058 -0.641,0 0,1.48 1.052,0 0.209,-0.881 0.005,0 0.21,0.881 1.051,0 0,-1.48 L 0,-1.058 0,0 z"
             style="fill:#e6e6e6;fill-opacity:1;fill-rule:nonzero;stroke:none"
             id="path50112"
             inkscape:connector-curvature="0" /></g><g
           id="g50114"
           transform="translate(39.4226,36.4107)"><path
             d="m 0,0 1.454,0 0,-0.385 -0.728,0 0,-0.158 0.672,0 0,-0.386 -0.672,0 0,-0.166 0.752,0 0,-0.385 L 0,-1.48 0,0 z"
             style="fill:#e6e6e6;fill-opacity:1;fill-rule:nonzero;stroke:none"
             id="path50116"
             inkscape:connector-curvature="0" /></g><g
           id="g50118"
           transform="translate(33.5445,46.6675)"><path
             d="m 0,0 c -0.009,0.113 -0.094,0.177 -0.236,0.177 -0.199,0 -0.235,-0.234 -0.235,-0.421 0,-0.182 0.039,-0.397 0.235,-0.397 0.146,0 0.229,0.064 0.236,0.183 l 0.364,0 c 0.005,-0.315 -0.296,-0.426 -0.6,-0.426 -0.39,0 -0.6,0.234 -0.6,0.653 0,0.42 0.21,0.647 0.6,0.651 0.304,0 0.605,-0.104 0.6,-0.42 L 0,0 z"
             style="fill:#000000;fill-opacity:1;fill-rule:nonzero;stroke:none"
             id="path50120"
             inkscape:connector-curvature="0" /></g><g
           id="g50122"
           transform="translate(34.0376,45.8094)"><path
             d="m 0,0 0,1.252 0.347,0 0,-1.009 0.567,0 L 0.914,0 0,0 z"
             style="fill:#000000;fill-opacity:1;fill-rule:nonzero;stroke:none"
             id="path50124"
             inkscape:connector-curvature="0" /></g><g
           id="g50126"
           transform="translate(35.7891,46.2966)"><path
             d="m 0,0 -0.16,0.52 -0.005,0 L -0.335,0 0,0 z m -0.851,-0.487 0.494,1.252 0.423,0 0.494,-1.252 -0.392,0 -0.083,0.244 -0.508,0 -0.082,-0.244 -0.346,0 z"
             style="fill:#000000;fill-opacity:1;fill-rule:nonzero;stroke:none"
             id="path50128"
             inkscape:connector-curvature="0" /></g><g
           id="g50130"
           transform="translate(37.0919,46.6936)"><path
             d="m 0,0 c 0.002,0.049 -0.014,0.085 -0.045,0.111 -0.03,0.026 -0.075,0.04 -0.134,0.04 -0.079,0 -0.149,-0.052 -0.149,-0.115 0,-0.091 0.111,-0.121 0.203,-0.145 0.21,-0.054 0.515,-0.075 0.515,-0.413 0,-0.263 -0.26,-0.388 -0.55,-0.388 -0.291,0 -0.547,0.085 -0.553,0.425 l 0.347,0 c -0.002,-0.118 0.085,-0.182 0.21,-0.182 0.08,0 0.182,0.041 0.182,0.124 0,0.17 -0.257,0.134 -0.529,0.253 -0.126,0.056 -0.189,0.17 -0.189,0.306 0.014,0.296 0.274,0.378 0.536,0.378 C 0.102,0.394 0.367,0.302 0.347,0 L 0,0 z"
             style="fill:#000000;fill-opacity:1;fill-rule:nonzero;stroke:none"
             id="path50132"
             inkscape:connector-curvature="0" /></g><g
           id="g50134"
           transform="translate(38.2834,46.6936)"><path
             d="m 0,0 c 0.002,0.049 -0.014,0.085 -0.045,0.111 -0.03,0.026 -0.075,0.04 -0.134,0.04 -0.079,0 -0.149,-0.052 -0.149,-0.115 0,-0.091 0.111,-0.121 0.203,-0.145 0.21,-0.054 0.515,-0.075 0.515,-0.413 0,-0.263 -0.26,-0.388 -0.55,-0.388 -0.291,0 -0.547,0.085 -0.553,0.425 l 0.347,0 c -0.002,-0.118 0.085,-0.182 0.21,-0.182 0.08,0 0.182,0.041 0.182,0.124 0,0.17 -0.257,0.134 -0.529,0.253 -0.126,0.056 -0.189,0.17 -0.189,0.306 0.014,0.296 0.274,0.378 0.536,0.378 C 0.102,0.394 0.367,0.302 0.347,0 L 0,0 z"
             style="fill:#000000;fill-opacity:1;fill-rule:nonzero;stroke:none"
             id="path50136"
             inkscape:connector-curvature="0" /></g><path
           d="m 38.804,47.061 0.347,0 0,-1.252 -0.347,0 0,1.252 z"
           style="fill:#000000;fill-opacity:1;fill-rule:nonzero;stroke:none"
           id="path50138"
           inkscape:connector-curvature="0" /><g
           id="g50140"
           transform="translate(40.1168,46.6675)"><path
             d="m 0,0 c -0.009,0.113 -0.094,0.177 -0.236,0.177 -0.199,0 -0.236,-0.234 -0.236,-0.421 0,-0.182 0.04,-0.397 0.236,-0.397 0.146,0 0.229,0.064 0.236,0.183 l 0.364,0 c 0.005,-0.315 -0.296,-0.426 -0.6,-0.426 -0.39,0 -0.6,0.234 -0.6,0.653 0,0.42 0.21,0.647 0.6,0.651 0.304,0 0.605,-0.104 0.6,-0.42 L 0,0 z"
             style="fill:#000000;fill-opacity:1;fill-rule:nonzero;stroke:none"
             id="path50142"
             inkscape:connector-curvature="0" /></g><g
           id="g50144"
           transform="translate(39.6927,41.1729)"><path
             d="m 0,0 c 0.491,-1.632 -0.598,-2.737 -2.065,-3.179 -2.075,-0.625 -3.414,0.349 -3.98,2.227 -0.612,1.828 0.111,3.405 2.112,4.007 1.492,0.449 2.938,0.222 3.469,-1.514 L -2.612,0.895 C -2.847,1.557 -3.133,1.614 -3.42,1.528 -4.027,1.345 -3.896,0.705 -3.61,-0.246 c 0.271,-0.902 0.523,-1.56 1.113,-1.382 0.304,0.091 0.454,0.333 0.3,0.966 L 0,0 z"
             style="fill:#000000;fill-opacity:1;fill-rule:nonzero;stroke:none"
             id="path50146"
             inkscape:connector-curvature="0" /></g><g
           id="g50148"
           transform="translate(85.7181,28.9204)"><path
             d="m 0,0 c 3.799,0 6.878,-2.145 6.878,-4.791 0,-2.646 -3.079,-4.791 -6.878,-4.791 -3.799,0 -6.878,2.145 -6.878,4.791 C -6.878,-2.145 -3.799,0 0,0"
             style="fill:#ffffff;fill-opacity:1;fill-rule:nonzero;stroke:none"
             id="path50150"
             inkscape:connector-curvature="0" /></g><g
           id="g50152"
           transform="translate(92.5966,24.1648)"><path
             d="m 0,0 c 0,2.645 -3.08,4.791 -6.878,4.791 -3.799,0 -6.879,-2.146 -6.879,-4.791 0,-2.646 3.08,-4.791 6.879,-4.791 C -3.08,-4.791 0,-2.646 0,0 m 0.82,-0.003 0.822,-0.881 -1.175,-0.706 0.33,-1.364 -1.265,-0.035 -0.087,-1.486 -1.409,0.388 -0.238,-1.402 -1.305,0.519 -0.68,-1.237 -1.019,0.882 -0.888,-1.253 -0.979,1.063 -1.069,-0.993 -0.698,1.17 -1.261,-0.742 -0.436,1.309 -1.46,-0.575 -0.214,1.29 -1.306,-0.081 0.195,1.314 -1.335,0.006 0.312,1.435 -1.036,0.582 0.825,0.936 -0.741,1.303 1.204,0.38 -0.317,1.394 1.321,0.017 0.153,1.382 1.194,-0.396 0.395,1.346 1.206,-0.652 0.5,1.191 1.045,-0.726 0.734,1.132 0.987,-0.986 0.872,0.902 0.764,-1.137 1.194,0.767 0.474,-1.254 1.2,0.568 0.309,-1.309 1.423,0.253 L -0.683,3.03 0.755,2.875 0.348,1.637 1.6,1.1 0.82,-0.003 z"
             style="fill:#a3834a;fill-opacity:1;fill-rule:nonzero;stroke:none"
             id="path50154"
             inkscape:connector-curvature="0" /></g><g
           id="g50156"
           transform="translate(79.4311,24.1293)"><path
             d="m 0,0 c 0,2.336 2.82,4.236 6.287,4.236 3.467,0 6.287,-1.9 6.287,-4.236 0,-2.336 -2.82,-4.236 -6.287,-4.236 C 2.82,-4.236 0,-2.336 0,0 m 6.287,-4.394 c 3.554,0 6.445,1.971 6.445,4.394 0,2.423 -2.891,4.394 -6.445,4.394 -3.554,0 -6.446,-1.971 -6.446,-4.394 0,-2.423 2.892,-4.394 6.446,-4.394"
             style="fill:#a3834a;fill-opacity:1;fill-rule:nonzero;stroke:none"
             id="path50158"
             inkscape:connector-curvature="0" /></g><g
           id="g50160"
           transform="translate(89.7081,23.1154)"><path
             d="m 0,0 -8.049,0 c -0.68,-0.003 -1.093,0.454 -1.093,1.013 0,0.56 0.416,1.013 1.093,1.014 L 0,2.027 C 0.677,2.026 1.093,1.573 1.093,1.013 1.093,0.454 0.68,-0.003 0,0 m 0.004,2.358 -8.057,0 c -0.852,10e-4 -1.425,-0.611 -1.425,-1.346 0,-0.735 0.571,-1.341 1.426,-1.341 l 8.055,0 c 0.855,0 1.426,0.606 1.426,1.341 0,0.735 -0.572,1.347 -1.425,1.346"
             style="fill:#a3834a;fill-opacity:1;fill-rule:nonzero;stroke:none"
             id="path50162"
             inkscape:connector-curvature="0" /></g><g
           id="g50164"
           transform="translate(86.9501,24.6306)"><path
             d="m 0,0 0.381,0 0,-0.17 0.205,0 0,-0.125 -0.205,0 0,-0.84 -0.381,0 0,0.84 -0.207,0 0,0.125 L 0,-0.17 0,0 z"
             style="fill:#a3834a;fill-opacity:1;fill-rule:nonzero;stroke:none"
             id="path50166"
             inkscape:connector-curvature="0" /></g><path
           d="m 82.492,24.337 0.38,0 0,-0.841 -0.38,0 0,0.841 z"
           style="fill:#a3834a;fill-opacity:1;fill-rule:nonzero;stroke:none"
           id="path50168"
           inkscape:connector-curvature="0" /><path
           d="m 82.491,24.761 0.381,0 0,-0.258 -0.381,0 0,0.258 z"
           style="fill:#a3834a;fill-opacity:1;fill-rule:nonzero;stroke:none"
           id="path50170"
           inkscape:connector-curvature="0" /><g
           id="g50172"
           transform="translate(89.4836,23.9517)"><path
             d="m 0,0 0,0 c 0,-0.002 0,-0.127 0,-0.178 0,-0.134 -0.08,-0.189 -0.156,-0.189 -0.076,0 -0.155,0.055 -0.155,0.189 l 0,0.181 c 0,0 0,0.125 0,0.176 0,0.133 0.079,0.188 0.155,0.188 C -0.08,0.367 0,0.312 0,0.179 0,0.128 0,0.034 0,0 l 0,0 z m -0.153,0.472 c -0.307,0 -0.556,-0.212 -0.556,-0.473 0,-0.261 0.249,-0.472 0.556,-0.472 0.307,0 0.556,0.211 0.556,0.472 0,0.261 -0.249,0.473 -0.556,0.473"
             style="fill:#a3834a;fill-opacity:1;fill-rule:nonzero;stroke:none"
             id="path50174"
             inkscape:connector-curvature="0" /></g><g
           id="g50176"
           transform="translate(83.472,24.0733)"><path
             d="M 0,0 C 0,0.13 0.09,0.163 0.149,0.163 0.21,0.163 0.298,0.13 0.298,0 c 0,-0.043 0,-0.15 0,-0.15 0,0 0,-0.105 0,-0.149 0,-0.13 -0.088,-0.164 -0.149,-0.164 C 0.09,-0.463 0,-0.429 0,-0.299 L 0,-0.15 0,0 z m -0.373,0.69 0,-1.265 0.376,0 c 0,0 0.001,0.041 0.001,0.049 0.145,-0.092 0.309,-0.091 0.438,-0.032 0.034,0.016 0.26,0.124 0.26,0.417 0,0.222 -0.21,0.465 -0.484,0.441 C 0.128,0.292 0.063,0.259 0.003,0.224 l 0,0.466 -0.376,0 z"
             style="fill:#a3834a;fill-opacity:1;fill-rule:nonzero;stroke:none"
             id="path50178"
             inkscape:connector-curvature="0" /></g><g
           id="g50180"
           transform="translate(86.0359,24.242)"><path
             d="m 0,0 c 0.03,0.052 0.084,0.077 0.134,0.077 l -0.001,0 0.001,0 0,0 C 0.183,0.077 0.238,0.052 0.268,0 0.292,-0.042 0.293,-0.091 0.292,-0.165 l -0.317,0 C -0.026,-0.091 -0.024,-0.042 0,0 m 0.291,-0.47 c 0,-0.154 -0.101,-0.188 -0.157,-0.188 -0.056,0 -0.159,0.034 -0.159,0.188 0,0.046 0,0.174 0,0.174 l 0.716,0 c 0,0.261 -0.251,0.477 -0.561,0.477 -0.309,0 -0.56,-0.211 -0.56,-0.472 0,-0.261 0.251,-0.472 0.56,-0.472 0.257,0 0.474,0.146 0.54,0.345 L 0.291,-0.419 c 0,0 0,-0.003 0,-0.051"
             style="fill:#a3834a;fill-opacity:1;fill-rule:nonzero;stroke:none"
             id="path50182"
             inkscape:connector-curvature="0" /></g><g
           id="g50184"
           transform="translate(81.8618,23.6206)"><path
             d="m 0,0 0,1.146 -0.381,0 0,-1.146 0,-0.125 0.381,0 0.412,0 L 0.412,0 0,0 z"
             style="fill:#a3834a;fill-opacity:1;fill-rule:nonzero;stroke:none"
             id="path50186"
             inkscape:connector-curvature="0" /></g><g
           id="g50188"
           transform="translate(88.3342,24.0289)"><path
             d="M 0,0 0.373,0 C 0.334,0.272 0.08,0.35 -0.051,0.347 -0.176,0.343 -0.281,0.289 -0.354,0.219 c 0,0.021 0,0.089 0,0.089 l -0.378,0 0,-0.841 0.378,0 c 0,0 0,0.516 0,0.552 0,0.073 0.077,0.155 0.18,0.155 C -0.07,0.174 0,0.092 0,0.019 L 0,0 z"
             style="fill:#a3834a;fill-opacity:1;fill-rule:nonzero;stroke:none"
             id="path50190"
             inkscape:connector-curvature="0" /></g><g
           id="g50192"
           transform="translate(84.772,24.3358)"><path
             d="m 0,0 0,0.149 c 0,0.13 0.09,0.164 0.149,0.164 0.061,0 0.149,-0.034 0.149,-0.164 0,-0.045 0,-0.15 0,-0.15 0,0 0,-0.106 0,-0.149 0,-0.131 -0.088,-0.164 -0.149,-0.164 C 0.09,-0.314 0,-0.281 0,-0.15 L 0,0 z m 0.702,-0.009 c 0,0.292 -0.226,0.401 -0.26,0.417 -0.129,0.059 -0.293,0.059 -0.438,-0.032 0,0.008 -0.001,0.049 -0.001,0.049 l -0.376,0 0,-1.265 0.376,0 0,0.465 c 0.001,-0.001 0.003,-0.001 0.005,-0.002 l 0.294,-0.463 0.373,0 -0.266,0.418 c 0.175,0.068 0.293,0.246 0.293,0.413"
             style="fill:#a3834a;fill-opacity:1;fill-rule:nonzero;stroke:none"
             id="path50194"
             inkscape:connector-curvature="0" /></g><g
           id="g50196"
           transform="translate(34.6284,28.9828)"><path
             d="m 0,0 -0.013,-0.082 c -0.156,-0.984 -0.287,-2.707 -1.661,-2.707 -1.223,0 -1.18,1.176 -0.948,2.631 0.229,1.443 0.539,2.66 1.728,2.66 0.732,0 1.021,-0.369 1.09,-1.053 L -0.495,1.183 c -0.014,0.341 -0.057,0.676 -0.481,0.676 -0.56,0 -0.723,-0.765 -0.921,-2.009 -0.284,-1.791 -0.016,-1.996 0.284,-1.996 0.281,0 0.595,0.041 0.79,1.271 l 0.045,0.28 -0.574,0 L -1.257,0 0,0 z"
             style="fill:#b6b6b6;fill-opacity:1;fill-rule:nonzero;stroke:none"
             id="path50198"
             inkscape:connector-curvature="0" /></g><g
           id="g50200"
           transform="translate(36.4137,27.9916)"><path
             d="M 0,0 C 0.043,0.273 0.218,1.203 -0.212,1.203 -0.69,1.203 -0.782,0.28 -0.827,0 -0.873,-0.287 -1.074,-1.21 -0.596,-1.21 -0.165,-1.21 -0.044,-0.273 0,0 m -0.225,-1.285 -0.014,0 c -0.177,-0.301 -0.346,-0.499 -0.715,-0.499 -0.799,0 -0.612,1.265 -0.523,1.825 0.092,0.574 0.297,1.736 1.11,1.736 0.301,0 0.47,-0.184 0.546,-0.437 l 0.014,0 0.06,0.382 0.643,0 -0.549,-3.451 -0.643,0 0.071,0.444 z"
             style="fill:#b6b6b6;fill-opacity:1;fill-rule:nonzero;stroke:none"
             id="path50202"
             inkscape:connector-curvature="0" /></g><g
           id="g50204"
           transform="translate(38.4803,29.2905)"><path
             d="M 0,0 0.014,0 C 0.189,0.287 0.438,0.478 0.766,0.478 1.074,0.478 1.292,0.301 1.312,0 l 0.014,0 c 0.184,0.301 0.438,0.478 0.787,0.478 0.608,0 0.699,-0.376 0.626,-0.834 l -0.425,-2.672 -0.642,0 0.384,2.42 c 0.04,0.252 0.048,0.512 -0.267,0.512 -0.458,0 -0.478,-0.43 -0.527,-0.738 l -0.349,-2.194 -0.643,0 0.373,2.344 c 0.037,0.274 0.094,0.588 -0.275,0.588 -0.404,0 -0.447,-0.444 -0.507,-0.738 l -0.349,-2.194 -0.643,0 0.549,3.452 0.649,0 L 0,0 z"
             style="fill:#b6b6b6;fill-opacity:1;fill-rule:nonzero;stroke:none"
             id="path50206"
             inkscape:connector-curvature="0" /></g><g
           id="g50208"
           transform="translate(43.1083,27.9916)"><path
             d="M 0,0 C 0.045,0.28 0.246,1.203 -0.233,1.203 -0.663,1.203 -0.784,0.273 -0.827,0 -0.87,-0.273 -1.046,-1.203 -0.616,-1.21 -0.137,-1.203 -0.045,-0.28 0,0 m -0.822,3.943 0.643,0 -0.415,-2.603 0.014,0 c 0.173,0.266 0.357,0.437 0.685,0.437 0.813,0 0.649,-1.162 0.558,-1.736 -0.09,-0.56 -0.304,-1.825 -1.104,-1.825 -0.369,0 -0.474,0.198 -0.556,0.499 l -0.014,0 -0.07,-0.444 -0.643,0 0.902,5.672 z"
             style="fill:#b6b6b6;fill-opacity:1;fill-rule:nonzero;stroke:none"
             id="path50210"
             inkscape:connector-curvature="0" /></g><g
           id="g50212"
           transform="translate(45.6449,27.9916)"><path
             d="M 0,0 C 0.043,0.273 0.219,1.203 -0.212,1.203 -0.69,1.203 -0.782,0.28 -0.827,0 c -0.046,-0.287 -0.247,-1.21 0.232,-1.21 0.43,0 0.552,0.937 0.595,1.21 m -0.225,-1.285 -0.013,0 c -0.178,-0.301 -0.346,-0.499 -0.715,-0.499 -0.8,0 -0.612,1.265 -0.523,1.825 0.091,0.574 0.296,1.736 1.109,1.736 0.301,0 0.47,-0.184 0.546,-0.437 l 0.014,0 0.061,0.382 0.642,0 -0.549,-3.451 -0.643,0 0.071,0.444 z"
             style="fill:#b6b6b6;fill-opacity:1;fill-rule:nonzero;stroke:none"
             id="path50214"
             inkscape:connector-curvature="0" /></g><g
           id="g50216"
           transform="translate(48.0652,30.6913)"><path
             d="m 0,0 -0.156,-0.977 0.342,0 -0.08,-0.506 -0.342,0 -0.469,-2.946 -0.642,0 0.469,2.946 -0.349,0 0.081,0.506 0.348,0 L -0.643,0 0,0 z"
             style="fill:#b6b6b6;fill-opacity:1;fill-rule:nonzero;stroke:none"
             id="path50218"
             inkscape:connector-curvature="0" /></g><g
           id="g50220"
           transform="translate(49.5762,30.6913)"><path
             d="m 0,0 -0.156,-0.977 0.342,0 -0.08,-0.506 -0.342,0 -0.469,-2.946 -0.642,0 0.469,2.946 -0.349,0 0.081,0.506 0.348,0 L -0.643,0 0,0 z"
             style="fill:#b6b6b6;fill-opacity:1;fill-rule:nonzero;stroke:none"
             id="path50222"
             inkscape:connector-curvature="0" /></g><g
           id="g50224"
           transform="translate(51.2574,28.3199)"><path
             d="M 0,0 C 0.042,0.267 0.139,0.875 -0.25,0.875 -0.654,0.875 -0.723,0.267 -0.766,0 L 0,0 z m -0.839,-0.458 c -0.045,-0.287 -0.185,-1.08 0.232,-1.08 0.342,0 0.463,0.376 0.505,0.643 l 0.595,0 c -0.101,-0.636 -0.474,-1.217 -1.198,-1.217 -0.964,0 -0.89,1.025 -0.774,1.756 0.113,0.704 0.369,1.805 1.32,1.805 0.936,0 0.871,-1.094 0.758,-1.805 l -0.016,-0.102 -1.422,0 z"
             style="fill:#b6b6b6;fill-opacity:1;fill-rule:nonzero;stroke:none"
             id="path50226"
             inkscape:connector-curvature="0" /></g><g
           id="g50228"
           transform="translate(33.4161,18.6061)"><path
             d="m 0,0 -1.141,0 0.544,3.421 -0.942,0 0.154,0.966 3.025,0 -0.153,-0.966 -0.943,0 L 0,0 z"
             style="fill:#b6b6b6;fill-opacity:1;fill-rule:nonzero;stroke:none"
             id="path50230"
             inkscape:connector-curvature="0" /></g><g
           id="g50232"
           transform="translate(39.5391,21.0557)"><path
             d="m 0,0 c -0.113,-0.64 -0.247,-1.187 -0.724,-1.734 -0.526,-0.599 -1.213,-0.861 -1.947,-0.861 -1.379,0 -2.19,0.937 -1.97,2.316 0.226,1.426 1.341,2.362 2.755,2.362 0.902,0 1.536,-0.407 1.783,-1.227 L -1.257,0.402 C -1.348,0.821 -1.635,1.1 -2.095,1.1 c -0.75,0 -1.254,-0.716 -1.36,-1.385 -0.109,-0.681 0.189,-1.373 0.939,-1.373 0.495,0 0.914,0.256 1.041,0.762 l -0.931,0 L -2.264,0 0,0 z"
             style="fill:#b6b6b6;fill-opacity:1;fill-rule:nonzero;stroke:none"
             id="path50234"
             inkscape:connector-curvature="0" /></g><g
           id="g50236"
           transform="translate(41.2401,21.2713)"><path
             d="M 0,0 0.128,0 C 0.431,0 0.753,0.052 0.812,0.425 0.876,0.826 0.525,0.85 0.217,0.85 L 0.135,0.85 0,0 z m -0.285,-1.792 0.145,0 c 0.338,0 0.905,-0.018 0.982,0.465 0.085,0.53 -0.488,0.477 -0.861,0.477 l -0.116,0 -0.15,-0.942 z m -1.279,-0.873 0.697,4.387 1.63,0 C 1.542,1.722 2.018,1.42 1.885,0.582 1.822,0.186 1.643,-0.134 1.259,-0.314 L 1.257,-0.326 C 1.873,-0.407 2.073,-0.832 1.976,-1.443 1.83,-2.362 0.996,-2.665 0.193,-2.665 l -1.757,0 z"
             style="fill:#b6b6b6;fill-opacity:1;fill-rule:nonzero;stroke:none"
             id="path50238"
             inkscape:connector-curvature="0" /></g><g
           id="g50240"
           transform="translate(46.3963,19.06)"><path
             d="M 0,0 C 0.535,0 0.995,0.076 1.457,0.454 1.872,0.791 2.131,1.251 2.208,1.74 2.288,2.24 2.173,2.723 1.847,3.055 1.502,3.41 1.071,3.48 0.553,3.48 L 0.198,3.48 -0.355,0 0,0 z m -0.218,3.934 0.826,0 c 0.658,0 1.179,-0.088 1.626,-0.53 C 2.667,2.974 2.8,2.386 2.696,1.734 2.595,1.094 2.272,0.53 1.72,0.099 1.123,-0.367 0.585,-0.454 -0.101,-0.454 l -0.815,0 0.698,4.388 z"
             style="fill:#b6b6b6;fill-opacity:1;fill-rule:nonzero;stroke:none"
             id="path50242"
             inkscape:connector-curvature="0" /></g><g
           id="g50244"
           transform="translate(50.0503,19.8167)"><path
             d="m 0,0 c -0.073,-0.46 -0.083,-0.856 0.481,-0.856 0.564,0 0.68,0.396 0.753,0.856 l 0.242,1.524 0.466,0 -0.251,-1.577 C 1.575,-0.78 1.221,-1.286 0.413,-1.286 c -0.809,0 -1.002,0.506 -0.887,1.233 l 0.251,1.577 0.466,0 L 0,0 z"
             style="fill:#b6b6b6;fill-opacity:1;fill-rule:nonzero;stroke:none"
             id="path50246"
             inkscape:connector-curvature="0" /></g><g
           id="g50248"
           transform="translate(52.8751,20.0024)"><path
             d="m 0,0 c -0.085,-0.535 0.149,-1.041 0.731,-1.041 0.599,0 0.99,0.483 1.078,1.035 C 1.896,0.542 1.623,0.984 1.047,0.984 0.506,0.984 0.081,0.512 0,0 m 2.03,-1.396 -0.465,0 0.059,0.378 -0.011,0 C 1.326,-1.32 0.982,-1.472 0.598,-1.472 c -0.803,0 -1.201,0.681 -1.081,1.437 0.124,0.78 0.725,1.449 1.546,1.449 0.372,0 0.682,-0.175 0.863,-0.465 l 0.011,0 0.062,0.39 0.466,0 -0.435,-2.735 z"
             style="fill:#b6b6b6;fill-opacity:1;fill-rule:nonzero;stroke:none"
             id="path50250"
             inkscape:connector-curvature="0" /></g><g
           id="g50252"
           transform="translate(56.2216,18.6061)"><path
             d="m 0,0 -0.465,0 0.763,4.801 0.466,0 L 0,0 z"
             style="fill:#b6b6b6;fill-opacity:1;fill-rule:nonzero;stroke:none"
             id="path50254"
             inkscape:connector-curvature="0" /></g></g></g></g></svg>