<?xml version="1.0" encoding="UTF-8" standalone="no"?>
<!-- Created with Inkscape (http://www.inkscape.org/) -->

<svg
   xmlns:dc="http://purl.org/dc/elements/1.1/"
   xmlns:cc="http://creativecommons.org/ns#"
   xmlns:rdf="http://www.w3.org/1999/02/22-rdf-syntax-ns#"
   xmlns:svg="http://www.w3.org/2000/svg"
   xmlns="http://www.w3.org/2000/svg"
   xmlns:sodipodi="http://sodipodi.sourceforge.net/DTD/sodipodi-0.dtd"
   xmlns:inkscape="http://www.inkscape.org/namespaces/inkscape"
   id="svg54862"
   version="1.1"
   inkscape:version="0.48.5 r10040"
   width="256"
   height="256"
   xml:space="preserve"
   sodipodi:docname="Nintendo - Super Nintendo Entertainment System.svg"
   inkscape:export-filename="/Users/margetts/Desktop/BAXY RetroActive/png_marked/Nintendo - Super Nintendo Entertainment System.png"
   inkscape:export-xdpi="90.099998"
   inkscape:export-ydpi="90.099998"><metadata
     id="metadata54868"><rdf:RDF><cc:Work
         rdf:about=""><dc:format>image/svg+xml</dc:format><dc:type
           rdf:resource="http://purl.org/dc/dcmitype/StillImage" /><dc:title></dc:title></cc:Work></rdf:RDF></metadata><defs
     id="defs54866"><clipPath
       clipPathUnits="userSpaceOnUse"
       id="clipPath54876"><path
         d="M 0,128 128,128 128,0 0,0 0,128 z"
         id="path54878"
         inkscape:connector-curvature="0" /></clipPath></defs><sodipodi:namedview
     pagecolor="#ffffff"
     bordercolor="#666666"
     borderopacity="1"
     objecttolerance="10"
     gridtolerance="10"
     guidetolerance="10"
     inkscape:pageopacity="0"
     inkscape:pageshadow="2"
     inkscape:window-width="1676"
     inkscape:window-height="1005"
     id="namedview54864"
     showgrid="false"
     inkscape:zoom="5.04375"
     inkscape:cx="55.11772"
     inkscape:cy="80"
     inkscape:window-x="4"
     inkscape:window-y="1"
     inkscape:window-maximized="1"
     inkscape:current-layer="g54870" /><g
     id="g54870"
     inkscape:groupmode="layer"
     inkscape:label="Nintendo - Super Nintendo Entertainment System"
     transform="matrix(1.25,0,0,-1.25,0,256)"><g
       id="g54872"
       transform="matrix(1.6002415,0,0,1.6002415,-0.0115931,0.28346911)"><g
         id="g54874"
         clip-path="url(#clipPath54876)"><g
           id="g54880"
           transform="translate(115.0489,87.1797)"><path
             d="m 0,0 c -0.181,0.198 -0.395,0.37 -0.64,0.506 l -0.075,0.042 c -1.142,1.091 -4.792,3.928 -12.507,4.723 -2.538,0.261 -5.127,0.393 -7.696,0.393 -4.401,0 -7.226,-0.388 -7.344,-0.405 -0.086,-0.012 -0.17,-0.028 -0.254,-0.048 -0.562,-0.138 -1.212,-0.436 -1.773,-0.909 l -18.541,0 -4.747,0 -17.48,0 c -0.561,0.473 -1.211,0.771 -1.773,0.909 -0.084,0.02 -0.168,0.036 -0.254,0.048 -0.118,0.017 -2.943,0.405 -7.344,0.405 -2.568,0 -5.157,-0.132 -7.695,-0.393 -6.531,-0.673 -10.145,-2.798 -11.82,-4.13 -9.047,-4.761 -14.817,-14.099 -15.077,-24.437 -0.198,-7.887 2.677,-15.291 8.096,-20.849 5.19,-5.321 12.08,-8.252 19.402,-8.252 5.65,0 11.079,1.753 15.701,5.07 0.97,0.696 2.139,1.064 3.383,1.064 l 34.834,0 c 1.232,0 2.399,-0.37 3.377,-1.071 4.619,-3.312 10.045,-5.063 15.69,-5.063 l 0.202,10e-4 c 14.85,0.109 27.099,12.648 27.303,27.95 C 13.1,-14.522 8.154,-5.244 0,0"
             style="fill:#ffffff;fill-opacity:1;fill-rule:nonzero;stroke:none"
             id="path54882"
             inkscape:connector-curvature="0" /></g><g
           id="g54884"
           transform="translate(15.9858,85.6712)"><path
             d="m 0,0 c 0,0 2.89,3.377 11.202,4.233 8.311,0.855 14.422,0 14.422,0 0,0 1.203,-0.245 1.213,-1.223 L -0.394,-0.22"
             style="fill:#999999;fill-opacity:1;fill-rule:nonzero;stroke:none"
             id="path54886"
             inkscape:connector-curvature="0" /></g><g
           id="g54888"
           transform="translate(112.7659,85.6712)"><path
             d="m 0,0 c 0,0 -2.89,3.377 -11.202,4.233 -8.311,0.855 -14.422,0 -14.422,0 0,0 -1.203,-0.245 -1.213,-1.223 L 0.394,-0.22"
             style="fill:#999999;fill-opacity:1;fill-rule:nonzero;stroke:none"
             id="path54890"
             inkscape:connector-curvature="0" /></g><g
           id="g54892"
           transform="translate(100.512,88.9215)"><path
             d="m 0,0 -72.721,0 c -13.564,0 -24.85,-11.085 -25.203,-25.102 -0.366,-14.557 10.94,-26.477 24.939,-26.477 5.28,0 10.176,1.696 14.208,4.59 1.427,1.025 3.137,1.544 4.875,1.544 l 34.834,0 c 1.737,0 3.442,-0.527 4.869,-1.55 4.077,-2.923 9.036,-4.623 14.381,-4.583 13.505,0.099 24.577,11.464 24.763,25.424 C 25.137,-11.744 13.895,0 0,0"
             style="fill:#bfbfbf;fill-opacity:1;fill-rule:nonzero;stroke:none"
             id="path54894"
             inkscape:connector-curvature="0" /></g><g
           id="g54896"
           transform="translate(123.6235,62.7041)"><path
             d="m 0,0 c 0,-12.994 -10.534,-23.528 -23.528,-23.528 -12.995,0 -23.529,10.534 -23.529,23.528 0,12.994 10.534,23.528 23.529,23.528 C -10.534,23.528 0,12.994 0,0"
             style="fill:#737373;fill-opacity:1;fill-rule:nonzero;stroke:none"
             id="path54898"
             inkscape:connector-curvature="0" /></g><g
           id="g54900"
           transform="translate(37.7388,66.6084)"><path
             d="m 0,0 -5.509,0 0,5.509 c 0,0.721 -0.585,1.305 -1.305,1.305 l -5.482,0 c -0.721,0 -1.306,-0.584 -1.306,-1.305 l 0,-5.509 -5.509,0 c -0.72,0 -1.305,-0.584 -1.305,-1.305 l 0,-5.482 c 0,-0.721 0.585,-1.305 1.305,-1.305 l 5.509,0 0,-5.509 c 0,-0.721 0.585,-1.305 1.306,-1.305 l 5.482,0 c 0.72,0 1.305,0.584 1.305,1.305 l 0,5.509 5.509,0 c 0.721,0 1.305,0.584 1.305,1.305 l 0,5.482 C 1.305,-0.584 0.721,0 0,0"
             style="fill:#191919;fill-opacity:1;fill-rule:nonzero;stroke:none"
             id="path54902"
             inkscape:connector-curvature="0" /></g><g
           id="g54904"
           transform="translate(25.6356,62.5624)"><path
             d="M 0,0 C 0,1.407 1.141,2.548 2.548,2.548 3.955,2.548 5.096,1.407 5.096,0 5.096,-1.407 3.955,-2.548 2.548,-2.548 1.141,-2.548 0,-1.407 0,0"
             style="fill:#262626;fill-opacity:1;fill-rule:nonzero;stroke:none"
             id="path54906"
             inkscape:connector-curvature="0" /></g><g
           id="g54908"
           transform="translate(84.6947,67.9598)"><path
             d="m 0,0 11.123,8.617 c 0,0 4.583,4.033 8.922,-0.672 0,0 3.789,-4.767 -1.956,-9.106 L 6.417,-10.328 c 0,0 -4.522,-2.261 -7.578,1.711 0,0 -3.484,4.217 1.161,8.617"
             style="fill:#bfbfbf;fill-opacity:1;fill-rule:nonzero;stroke:none"
             id="path54910"
             inkscape:connector-curvature="0" /></g><g
           id="g54912"
           transform="translate(88.1781,67.5932)"><path
             d="m 0,0 c -2.565,0 -4.645,-2.08 -4.645,-4.645 0,-2.565 2.08,-4.644 4.645,-4.644 2.565,0 4.645,2.079 4.645,4.644 C 4.645,-2.08 2.565,0 0,0"
             style="fill:#8e8eb2;fill-opacity:1;fill-rule:nonzero;stroke:none"
             id="path54914"
             inkscape:connector-curvature="0" /></g><g
           id="g54916"
           transform="translate(100.0952,76.8823)"><path
             d="m 0,0 c -2.565,0 -4.645,-2.079 -4.645,-4.645 0,-2.565 2.08,-4.644 4.645,-4.644 2.565,0 4.645,2.079 4.645,4.644 C 4.645,-2.079 2.565,0 0,0"
             style="fill:#8e8eb2;fill-opacity:1;fill-rule:nonzero;stroke:none"
             id="path54918"
             inkscape:connector-curvature="0" /></g><g
           id="g54920"
           transform="translate(96.5377,58.6756)"><path
             d="m 0,0 11.123,8.617 c 0,0 4.583,4.033 8.922,-0.672 0,0 3.789,-4.767 -1.956,-9.106 L 6.417,-10.328 c 0,0 -4.523,-2.261 -7.578,1.711 0,0 -3.484,4.217 1.161,8.617"
             style="fill:#bfbfbf;fill-opacity:1;fill-rule:nonzero;stroke:none"
             id="path54922"
             inkscape:connector-curvature="0" /></g><g
           id="g54924"
           transform="translate(100.0211,58.3089)"><path
             d="m 0,0 c -2.565,0 -4.645,-2.079 -4.645,-4.645 0,-2.565 2.08,-4.644 4.645,-4.644 2.565,0 4.645,2.079 4.645,4.644 C 4.645,-2.079 2.565,0 0,0"
             style="fill:#47479c;fill-opacity:1;fill-rule:nonzero;stroke:none"
             id="path54926"
             inkscape:connector-curvature="0" /></g><g
           id="g54928"
           transform="translate(116.5826,62.9536)"><path
             d="M 0,0 C 0,0.321 -0.033,0.634 -0.094,0.936 -0.218,1.541 -0.459,2.102 -0.793,2.597 -1.127,3.091 -1.553,3.517 -2.048,3.851 -2.789,4.352 -3.683,4.645 -4.645,4.645 -5.606,4.645 -6.5,4.352 -7.241,3.851 -7.736,3.517 -8.162,3.091 -8.496,2.597 -8.83,2.102 -9.071,1.541 -9.195,0.936 -9.257,0.634 -9.289,0.321 -9.289,0 l 0,0 c 0,-0.321 0.032,-0.634 0.094,-0.936 0.433,-2.117 2.306,-3.709 4.55,-3.709 2.245,0 4.118,1.592 4.551,3.709 C -0.033,-0.634 0,-0.321 0,0 z"
             style="fill:#47479c;fill-opacity:1;fill-rule:nonzero;stroke:none"
             id="path54930"
             inkscape:connector-curvature="0" /></g><g
           id="g54932"
           transform="translate(70.4697,61.9653)"><path
             d="m 0,0 c -0.322,0.42 -0.811,0.661 -1.341,0.661 -0.374,0 -0.729,-0.121 -1.026,-0.349 l -5.822,-4.466 c -0.739,-0.566 -0.879,-1.628 -0.312,-2.367 0.322,-0.42 0.811,-0.661 1.341,-0.661 0.373,0 0.728,0.121 1.026,0.349 l 5.822,4.466 C 0.427,-1.8 0.567,-0.739 0,0"
             style="fill:#191919;fill-opacity:1;fill-rule:nonzero;stroke:none"
             id="path54934"
             inkscape:connector-curvature="0" /></g><g
           id="g54936"
           transform="translate(55.6029,62.6261)"><path
             d="m 0,0 c -0.374,0 -0.729,-0.12 -1.026,-0.349 l -5.822,-4.466 c -0.358,-0.274 -0.588,-0.672 -0.647,-1.119 -0.059,-0.446 0.06,-0.89 0.334,-1.248 0.323,-0.42 0.811,-0.66 1.341,-0.66 0.374,0 0.729,0.12 1.026,0.348 l 5.823,4.466 c 0.357,0.275 0.587,0.672 0.646,1.119 0.059,0.447 -0.06,0.89 -0.334,1.248 C 1.018,-0.241 0.53,0 0,0"
             style="fill:#191919;fill-opacity:1;fill-rule:nonzero;stroke:none"
             id="path54938"
             inkscape:connector-curvature="0" /></g><g
           id="g54940"
           transform="translate(19.2446,62.9232)"><path
             d="m 0,0 3.164,1.826 c 0.277,0.161 0.625,-0.04 0.625,-0.36 l 0,-3.653 c 0,-0.321 -0.348,-0.521 -0.625,-0.361 L 0,-0.722 C -0.278,-0.561 -0.278,-0.16 0,0"
             style="fill:#262626;fill-opacity:1;fill-rule:nonzero;stroke:none"
             id="path54942"
             inkscape:connector-curvature="0" /></g><g
           id="g54944"
           transform="translate(37.1224,62.2017)"><path
             d="m 0,0 -3.164,-1.826 c -0.277,-0.161 -0.625,0.04 -0.625,0.36 l 0,3.653 c 0,0.321 0.348,0.521 0.625,0.361 L 0,0.722 C 0.278,0.561 0.278,0.16 0,0"
             style="fill:#262626;fill-opacity:1;fill-rule:nonzero;stroke:none"
             id="path54946"
             inkscape:connector-curvature="0" /></g><g
           id="g54948"
           transform="translate(28.5442,71.5013)"><path
             d="m 0,0 1.826,-3.164 c 0.161,-0.277 -0.04,-0.625 -0.36,-0.625 l -3.653,0 c -0.321,0 -0.521,0.348 -0.361,0.625 L -0.722,0 C -0.561,0.278 -0.16,0.278 0,0"
             style="fill:#262626;fill-opacity:1;fill-rule:nonzero;stroke:none"
             id="path54950"
             inkscape:connector-curvature="0" /></g><g
           id="g54952"
           transform="translate(27.8228,53.6235)"><path
             d="m 0,0 -1.826,3.164 c -0.161,0.277 0.04,0.625 0.36,0.625 l 3.653,0 c 0.321,0 0.521,-0.348 0.361,-0.625 L 0.722,0 C 0.561,-0.278 0.16,-0.278 0,0"
             style="fill:#262626;fill-opacity:1;fill-rule:nonzero;stroke:none"
             id="path54954"
             inkscape:connector-curvature="0" /></g><g
           id="g54956"
           transform="translate(28.405,77.4323)"><path
             d="m 0,0 c -7.963,0 -14.418,-6.455 -14.418,-14.418 0,-7.962 6.455,-14.417 14.418,-14.417 7.963,0 14.418,6.455 14.418,14.417 C 14.418,-6.455 7.963,0 0,0 m 0,-0.489 c 7.68,0 13.929,-6.248 13.929,-13.929 0,-7.68 -6.249,-13.929 -13.929,-13.929 -7.68,0 -13.929,6.249 -13.929,13.929 0,7.681 6.249,13.929 13.929,13.929"
             style="fill:#999999;fill-opacity:1;fill-rule:nonzero;stroke:none"
             id="path54958"
             inkscape:connector-curvature="0" /></g><path
           d="m 66.219,88.107 -4.747,0 0,0.814 4.747,0 0,-0.814 z"
           style="fill:#999999;fill-opacity:1;fill-rule:nonzero;stroke:none"
           id="path54960"
           inkscape:connector-curvature="0" /><g
           id="g54962"
           transform="translate(46.3661,76.5901)"><path
             d="M 0,0 -1.259,0 C -1.5,0 -1.596,0.179 -1.523,0.5 l 0.296,1.299 0.624,0 -0.253,-1.114 0.766,0 0.244,1.071 -0.901,1.55 c -0.076,0.121 -0.085,0.228 -0.038,0.435 l 0.277,1.214 c 0.073,0.321 0.25,0.5 0.491,0.5 l 1.259,0 c 0.241,0 0.338,-0.179 0.266,-0.493 L 1.23,3.741 l -0.624,0 0.234,1.028 -0.766,0 L -0.151,3.784 0.751,2.242 C 0.826,2.113 0.835,2.006 0.788,1.799 L 0.492,0.5 C 0.419,0.179 0.241,0 0,0"
             style="fill:#808080;fill-opacity:1;fill-rule:nonzero;stroke:none"
             id="path54964"
             inkscape:connector-curvature="0" /></g><g
           id="g54966"
           transform="translate(48.9485,76.5901)"><path
             d="m 0,0 -1.33,0 c -0.246,0 -0.337,0.179 -0.264,0.5 l 1.128,4.955 0.625,0 -1.083,-4.755 0.842,0 1.083,4.755 0.624,0 L 0.497,0.5 C 0.424,0.179 0.247,0 0,0"
             style="fill:#808080;fill-opacity:1;fill-rule:nonzero;stroke:none"
             id="path54968"
             inkscape:connector-curvature="0" /></g><g
           id="g54970"
           transform="translate(52.3069,81.3453)"><path
             d="m 0,0 -0.767,0 -0.473,-2.078 0.767,0 L 0,0 z m -0.386,-2.778 -1.013,0 -0.45,-1.977 -0.624,0 1.242,5.454 1.636,0 c 0.247,0 0.343,-0.178 0.27,-0.499 L 0.112,-2.271 C 0.039,-2.592 -0.14,-2.778 -0.386,-2.778"
             style="fill:#808080;fill-opacity:1;fill-rule:nonzero;stroke:none"
             id="path54972"
             inkscape:connector-curvature="0" /></g><g
           id="g54974"
           transform="translate(52.2904,76.5901)"><path
             d="m 0,0 1.242,5.455 1.719,0 -0.164,-0.721 -1.095,0 -0.363,-1.592 0.942,0 -0.161,-0.707 -0.942,0 -0.39,-1.714 1.111,0 L 1.735,0 0,0 z"
             style="fill:#808080;fill-opacity:1;fill-rule:nonzero;stroke:none"
             id="path54976"
             inkscape:connector-curvature="0" /></g><g
           id="g54978"
           transform="translate(58.0402,76.5901)"><path
             d="m 0,0 1.242,5.455 0.624,0 -1.076,-4.727 1.018,0 L 1.642,0 0,0 z"
             style="fill:#808080;fill-opacity:1;fill-rule:nonzero;stroke:none"
             id="path54980"
             inkscape:connector-curvature="0" /></g><g
           id="g54982"
           transform="translate(60.0643,76.5901)"><path
             d="m 0,0 1.242,5.455 0.624,0 L 0.624,0 0,0 z"
             style="fill:#808080;fill-opacity:1;fill-rule:nonzero;stroke:none"
             id="path54984"
             inkscape:connector-curvature="0" /></g><g
           id="g54986"
           transform="translate(63.1362,78.8321)"><path
             d="m 0,0 -0.247,0.264 -0.493,0 -0.414,-1.821 0.8,0 L 0,0 z m 0.559,2.527 -0.783,0 -0.364,-1.599 0.481,0 0.365,0.279 0.301,1.32 z m -0.823,-4.769 -1.67,0 1.242,5.455 1.659,0 c 0.241,0 0.331,-0.179 0.258,-0.5 L 0.905,1.306 C 0.846,1.049 0.764,0.928 0.59,0.814 L 0.286,0.607 0.509,0.385 C 0.631,0.271 0.66,0.136 0.602,-0.122 l -0.369,-1.62 c -0.073,-0.321 -0.251,-0.5 -0.497,-0.5"
             style="fill:#808080;fill-opacity:1;fill-rule:nonzero;stroke:none"
             id="path54988"
             inkscape:connector-curvature="0" /></g><g
           id="g54990"
           transform="translate(65.2243,76.5901)"><path
             d="M 0,0 -0.112,2.535 0,3.027 l 0.613,0 0.393,1.728 -0.788,0 L -0.865,0 l -0.624,0 1.242,5.455 1.659,0 c 0.246,0 0.337,-0.179 0.264,-0.5 L 1.224,2.97 C 1.15,2.649 0.98,2.477 0.738,2.47 L 0.524,2.47 0.658,0.029 0.651,0 0,0 z"
             style="fill:#808080;fill-opacity:1;fill-rule:nonzero;stroke:none"
             id="path54992"
             inkscape:connector-curvature="0" /></g><g
           id="g54994"
           transform="translate(66.2576,76.5901)"><path
             d="m 0,0 1.242,5.455 1.719,0 -0.164,-0.721 -1.095,0 -0.362,-1.592 0.941,0 -0.161,-0.707 -0.941,0 -0.391,-1.714 1.111,0 L 1.735,0 0,0 z"
             style="fill:#808080;fill-opacity:1;fill-rule:nonzero;stroke:none"
             id="path54996"
             inkscape:connector-curvature="0" /></g><g
           id="g54998"
           transform="translate(70.6239,81.3238)"><path
             d="m 0,0 -1.078,-4.734 -0.624,0 1.078,4.734 -0.684,0 0.164,0.721 1.998,0 L 0.69,0 0,0 z"
             style="fill:#808080;fill-opacity:1;fill-rule:nonzero;stroke:none"
             id="path55000"
             inkscape:connector-curvature="0" /></g><g
           id="g55002"
           transform="translate(72.0413,76.5901)"><path
             d="M 0,0 -0.112,2.535 0,3.027 l 0.613,0 0.393,1.728 -0.788,0 L -0.865,0 l -0.624,0 1.242,5.455 1.659,0 c 0.246,0 0.337,-0.179 0.264,-0.5 L 1.224,2.97 C 1.15,2.649 0.98,2.477 0.738,2.47 L 0.524,2.47 0.658,0.029 0.651,0 0,0 z"
             style="fill:#808080;fill-opacity:1;fill-rule:nonzero;stroke:none"
             id="path55004"
             inkscape:connector-curvature="0" /></g><g
           id="g55006"
           transform="translate(75.6406,81.3453)"><path
             d="m 0,0 -0.859,0 -0.924,-4.055 0.859,0 L 0,0 z m -0.837,-4.755 -1.357,0 c -0.241,0 -0.332,0.178 -0.259,0.499 L -1.438,0.2 c 0.073,0.321 0.245,0.499 0.486,0.499 l 1.357,0 c 0.241,0 0.337,-0.178 0.264,-0.499 l -1.014,-4.456 c -0.073,-0.321 -0.251,-0.499 -0.492,-0.499"
             style="fill:#808080;fill-opacity:1;fill-rule:nonzero;stroke:none"
             id="path55008"
             inkscape:connector-curvature="0" /></g><g
           id="g55010"
           transform="translate(56.4513,79.2675)"><path
             d="m 0,0 -0.766,0 0.473,2.078 0.766,0 L 0,0 z m 0.879,2.777 -1.637,0 -1.242,-5.454 0.624,0 0.451,1.977 0.001,0 0.45,-1.977 0.624,0 -0.45,1.977 0.387,0 c 0.246,0 0.425,0.186 0.499,0.507 L 1.148,2.278 C 1.221,2.599 1.125,2.777 0.879,2.777"
             style="fill:#808080;fill-opacity:1;fill-rule:nonzero;stroke:none"
             id="path55012"
             inkscape:connector-curvature="0" /></g><path
           d="m 75.641,74.326 -30.821,0 0,1.835 30.821,0 0,-1.835 z"
           style="fill:#808080;fill-opacity:1;fill-rule:nonzero;stroke:none"
           id="path55014"
           inkscape:connector-curvature="0" /><g
           id="g55016"
           transform="translate(45.2869,74.6274)"><path
             d="m 0,0 0.296,1.301 0.535,0 -0.04,-0.172 -0.34,0 -0.086,-0.38 0.293,0 -0.039,-0.168 -0.293,0 -0.093,-0.409 0.346,0 L 0.54,0 0,0 z"
             style="fill:#bfbfbf;fill-opacity:1;fill-rule:nonzero;stroke:none"
             id="path55018"
             inkscape:connector-curvature="0" /></g><g
           id="g55020"
           transform="translate(47.7851,74.6274)"><path
             d="M 0,0 0.146,0.642 C 0.157,0.691 0.19,0.783 0.19,0.783 l -0.32,-0.664 -0.099,0 -0.017,0.664 c 0,0 -0.009,-0.092 -0.02,-0.141 L -0.412,0 l -0.187,0 0.296,1.301 0.184,0 0.04,-0.719 C -0.078,0.57 -0.087,0.523 -0.087,0.523 c 0,0 0.012,0.047 0.018,0.059 L 0.3,1.301 0.484,1.301 0.187,0 0,0 z"
             style="fill:#bfbfbf;fill-opacity:1;fill-rule:nonzero;stroke:none"
             id="path55022"
             inkscape:connector-curvature="0" /></g><g
           id="g55024"
           transform="translate(49.8853,74.6274)"><path
             d="M 0,0 -0.413,0 C -0.49,0 -0.521,0.043 -0.504,0.119 l 0.269,1.182 0.194,0 -0.258,-1.134 0.262,0 0.259,1.134 0.194,0 L 0.147,0.119 C 0.129,0.043 0.077,0 0,0"
             style="fill:#bfbfbf;fill-opacity:1;fill-rule:nonzero;stroke:none"
             id="path55026"
             inkscape:connector-curvature="0" /></g><g
           id="g55028"
           transform="translate(51.388,74.6274)"><path
             d="m 0,0 0.296,1.301 0.194,0 -0.256,-1.127 0.316,0 L 0.511,0 0,0 z"
             style="fill:#bfbfbf;fill-opacity:1;fill-rule:nonzero;stroke:none"
             id="path55030"
             inkscape:connector-curvature="0" /></g><g
           id="g55032"
           transform="translate(53.7892,75.6284)"><path
             d="m 0,0 -0.229,-0.587 0.19,0 L 0,0 z m -0.066,-1.001 0.017,0.247 -0.244,0 -0.095,-0.247 -0.193,0 0.001,0.003 0.548,1.3 0.204,0 -0.045,-1.3 -0.001,-0.003 -0.192,0 z"
             style="fill:#bfbfbf;fill-opacity:1;fill-rule:nonzero;stroke:none"
             id="path55034"
             inkscape:connector-curvature="0" /></g><g
           id="g55036"
           transform="translate(55.7856,75.7563)"><path
             d="m 0,0 -0.257,-1.129 -0.194,0 0.257,1.129 -0.213,0 0.039,0.172 0.622,0 L 0.215,0 0,0 z"
             style="fill:#bfbfbf;fill-opacity:1;fill-rule:nonzero;stroke:none"
             id="path55038"
             inkscape:connector-curvature="0" /></g><g
           id="g55040"
           transform="translate(57.0718,74.6274)"><path
             d="m 0,0 0.296,1.301 0.194,0 L 0.194,0 0,0 z"
             style="fill:#bfbfbf;fill-opacity:1;fill-rule:nonzero;stroke:none"
             id="path55042"
             inkscape:connector-curvature="0" /></g><g
           id="g55044"
           transform="translate(59.3718,75.7613)"><path
             d="m 0,0 -0.267,0 -0.22,-0.967 0.267,0 L 0,0 z m -0.181,-1.134 -0.423,0 c -0.075,0 -0.106,0.043 -0.088,0.119 l 0.242,1.063 c 0.017,0.076 0.067,0.119 0.142,0.119 l 0.423,0 c 0.074,0 0.107,-0.043 0.09,-0.119 l -0.242,-1.063 c -0.017,-0.076 -0.07,-0.119 -0.144,-0.119"
             style="fill:#bfbfbf;fill-opacity:1;fill-rule:nonzero;stroke:none"
             id="path55046"
             inkscape:connector-curvature="0" /></g><g
           id="g55048"
           transform="translate(61.1793,74.6274)"><path
             d="m 0,0 -0.125,0.819 c 0,0 -0.002,-0.06 -0.01,-0.094 L -0.3,0 l -0.188,0 0.296,1.301 0.17,0 0.129,-0.802 c 0,0 0.002,0.059 0.009,0.093 l 0.162,0.709 0.189,0 L 0.171,0 0,0 z"
             style="fill:#bfbfbf;fill-opacity:1;fill-rule:nonzero;stroke:none"
             id="path55050"
             inkscape:connector-curvature="0" /></g><g
           id="g55052"
           transform="translate(64.8161,74.6274)"><path
             d="m 0,0 -0.391,0 c -0.075,0 -0.108,0.043 -0.091,0.119 l 0.071,0.31 0.194,0 -0.061,-0.266 0.239,0 0.058,0.256 -0.306,0.369 c -0.026,0.029 -0.03,0.055 -0.019,0.104 l 0.066,0.29 c 0.017,0.076 0.07,0.119 0.145,0.119 l 0.391,0 c 0.075,0 0.108,-0.043 0.091,-0.118 l -0.066,-0.291 -0.194,0 0.056,0.245 -0.239,0 L -0.109,0.902 0.197,0.535 C 0.222,0.504 0.227,0.478 0.215,0.429 L 0.145,0.119 C 0.127,0.043 0.075,0 0,0"
             style="fill:#bfbfbf;fill-opacity:1;fill-rule:nonzero;stroke:none"
             id="path55054"
             inkscape:connector-curvature="0" /></g><g
           id="g55056"
           transform="translate(66.8206,75.1058)"><path
             d="m 0,0 -0.109,-0.478 -0.196,0 0.109,0.478 -0.071,0.816 0.001,0.006 0.201,0 0.027,-0.565 0.283,0.565 0.199,0 L 0.443,0.816 0,0 z"
             style="fill:#bfbfbf;fill-opacity:1;fill-rule:nonzero;stroke:none"
             id="path55058"
             inkscape:connector-curvature="0" /></g><g
           id="g55060"
           transform="translate(68.8017,74.6274)"><path
             d="m 0,0 -0.391,0 c -0.075,0 -0.108,0.043 -0.091,0.119 l 0.071,0.31 0.194,0 -0.061,-0.266 0.239,0 0.058,0.256 -0.306,0.369 c -0.026,0.029 -0.03,0.055 -0.019,0.104 l 0.066,0.29 c 0.017,0.076 0.07,0.119 0.145,0.119 l 0.391,0 c 0.075,0 0.108,-0.043 0.091,-0.118 l -0.066,-0.291 -0.194,0 0.056,0.245 -0.239,0 L -0.109,0.902 0.197,0.535 C 0.222,0.504 0.227,0.478 0.215,0.429 L 0.145,0.119 C 0.127,0.043 0.075,0 0,0"
             style="fill:#bfbfbf;fill-opacity:1;fill-rule:nonzero;stroke:none"
             id="path55062"
             inkscape:connector-curvature="0" /></g><g
           id="g55064"
           transform="translate(70.9085,75.7563)"><path
             d="m 0,0 -0.257,-1.129 -0.194,0 0.257,1.129 -0.213,0 0.039,0.172 0.622,0 L 0.215,0 0,0 z"
             style="fill:#bfbfbf;fill-opacity:1;fill-rule:nonzero;stroke:none"
             id="path55066"
             inkscape:connector-curvature="0" /></g><g
           id="g55068"
           transform="translate(72.1914,74.6274)"><path
             d="m 0,0 0.296,1.301 0.535,0 -0.039,-0.172 -0.341,0 -0.086,-0.38 0.293,0 -0.039,-0.168 -0.293,0 -0.093,-0.409 0.346,0 L 0.54,0 0,0 z"
             style="fill:#bfbfbf;fill-opacity:1;fill-rule:nonzero;stroke:none"
             id="path55070"
             inkscape:connector-curvature="0" /></g><g
           id="g55072"
           transform="translate(74.6896,74.6274)"><path
             d="M 0,0 0.146,0.642 C 0.157,0.691 0.19,0.783 0.19,0.783 l -0.32,-0.664 -0.098,0 -0.018,0.664 c 0,0 -0.009,-0.092 -0.02,-0.141 L -0.412,0 l -0.187,0 0.296,1.301 0.184,0 0.04,-0.719 C -0.078,0.57 -0.087,0.523 -0.087,0.523 c 0,0 0.012,0.047 0.019,0.059 L 0.3,1.301 0.484,1.301 0.187,0 0,0 z"
             style="fill:#bfbfbf;fill-opacity:1;fill-rule:nonzero;stroke:none"
             id="path55074"
             inkscape:connector-curvature="0" /></g></g></g></g></svg>