<?xml version="1.0" encoding="UTF-8" standalone="no"?>
<!-- Created with Inkscape (http://www.inkscape.org/) -->

<svg
   xmlns:dc="http://purl.org/dc/elements/1.1/"
   xmlns:cc="http://creativecommons.org/ns#"
   xmlns:rdf="http://www.w3.org/1999/02/22-rdf-syntax-ns#"
   xmlns:svg="http://www.w3.org/2000/svg"
   xmlns="http://www.w3.org/2000/svg"
   xmlns:sodipodi="http://sodipodi.sourceforge.net/DTD/sodipodi-0.dtd"
   xmlns:inkscape="http://www.inkscape.org/namespaces/inkscape"
   id="svg48118"
   version="1.1"
   inkscape:version="0.48.5 r10040"
   width="256"
   height="256"
   xml:space="preserve"
   sodipodi:docname="Nintendo - Famicom Disk System-content.svg"
   inkscape:export-filename="/Users/margetts/Desktop/BAXY RetroActive/png_marked/Nintendo - Famicom Disk System-content.png"
   inkscape:export-xdpi="90.099998"
   inkscape:export-ydpi="90.099998"><metadata
     id="metadata48124"><rdf:RDF><cc:Work
         rdf:about=""><dc:format>image/svg+xml</dc:format><dc:type
           rdf:resource="http://purl.org/dc/dcmitype/StillImage" /><dc:title></dc:title></cc:Work></rdf:RDF></metadata><defs
     id="defs48122"><clipPath
       clipPathUnits="userSpaceOnUse"
       id="clipPath48132"><path
         d="M 0,512 512,512 512,0 0,0 0,512 z"
         id="path48134"
         inkscape:connector-curvature="0" /></clipPath></defs><sodipodi:namedview
     pagecolor="#ffffff"
     bordercolor="#666666"
     borderopacity="1"
     objecttolerance="10"
     gridtolerance="10"
     guidetolerance="10"
     inkscape:pageopacity="0"
     inkscape:pageshadow="2"
     inkscape:window-width="1676"
     inkscape:window-height="1005"
     id="namedview48120"
     showgrid="false"
     inkscape:zoom="1.2859375"
     inkscape:cx="222.40583"
     inkscape:cy="320"
     inkscape:window-x="4"
     inkscape:window-y="1"
     inkscape:window-maximized="1"
     inkscape:current-layer="g48126" /><g
     id="g48126"
     inkscape:groupmode="layer"
     inkscape:label="Nintendo - Famicom Disk System-content"
     transform="matrix(1.25,0,0,-1.25,0,256)"><g
       id="g48128"
       transform="matrix(0.40036995,0,0,0.40036995,-0.12761761,0.28368498)"><g
         id="g48130"
         clip-path="url(#clipPath48132)"><g
           id="g48136"
           transform="translate(453.4857,512.4731)"><path
             d="m 0,0 c -0.405,0 -0.811,-0.013 -1.221,-0.041 l -38.909,0 -4.242,0 -2.999,-2.999 -6.831,-6.83 -89.812,0 -6.83,6.83 -3,2.999 -4.241,0 -78.637,0 -4.242,0 -2.999,-2.999 -6.83,-6.83 -89.813,0 -6.83,6.83 -3,2.999 -4.241,0 -39.318,0 c -11.067,0 -20.07,-9.003 -20.07,-20.069 l 0,-471.82 c 0,-10.317 9.753,-20.07 20.07,-20.07 l 393.183,0 c 11.629,0 20.07,8.441 20.07,20.07 l 0,471.82 C 19.258,-9.021 10.618,0 0,0"
             style="fill:#ffffff;fill-opacity:1;fill-rule:nonzero;stroke:none"
             id="path48138"
             inkscape:connector-curvature="0" /></g><g
           id="g48140"
           transform="translate(452.6736,502.1925)"><path
             d="m 0,0 -39.318,0 -9.83,-9.83 -98.296,0 -9.829,9.83 -78.637,0 -9.83,-9.83 -98.296,0 -9.829,9.83 -39.318,0 c -5.436,0 -9.83,-4.394 -9.83,-9.83 l 0,-471.82 c 0,-4.633 5.196,-9.829 9.83,-9.829 l 393.183,0 c 6.58,0 9.83,4.426 9.83,9.829 l 0,471.82 C 9.83,-4.394 5.409,0.541 0,0"
             style="fill:#efbc00;fill-opacity:1;fill-rule:nonzero;stroke:none"
             id="path48142"
             inkscape:connector-curvature="0" /></g><path
           d="m 275.741,335.09 -39.318,0 0,147.444 39.318,0 0,-147.444 z"
           style="fill:#303121;fill-opacity:1;fill-rule:nonzero;stroke:none"
           id="path48144"
           inkscape:connector-curvature="0" /><g
           id="g48146"
           transform="translate(310.2757,276.8478)"><path
             d="m 0,0 0,215.515 -5.046,0 -9.83,9.83 -78.636,0 -9.83,-9.83 -5.648,0 0,-216.251 0.528,0 c 0,-30.43 23.838,-54.268 54.268,-54.268 29.924,0 54.268,24.345 54.268,54.268 C 0.074,-0.484 0.004,-0.251 0,0"
             style="fill:#d4a600;fill-opacity:1;fill-rule:nonzero;stroke:none"
             id="path48148"
             inkscape:connector-curvature="0" /></g><g
           id="g48150"
           transform="translate(393.6961,197.4753)"><path
             d="m 0,0 c 7.473,0 9.83,-2.356 9.83,-9.83 l 0,-108.125 c 0,-7.709 -2.606,-9.83 -9.83,-9.83 l -275.228,0 c -7.238,0 -9.83,2.357 -9.83,9.83 l 0,108.125 c 0,7.003 3.77,9.83 9.83,9.83 L 0,0 z"
             style="fill:#d4a600;fill-opacity:1;fill-rule:nonzero;stroke:none"
             id="path48152"
             inkscape:connector-curvature="0" /></g><g
           id="g48154"
           transform="translate(385.9145,189.7628)"><path
             d="m 0,0 c 6.017,0 10.881,-5.658 10.881,-12.658 l 0,-88.605 c 0,-7 -4.864,-12.658 -10.881,-12.658 l -261.144,0 c -6.017,0 -10.881,5.658 -10.881,12.658 l 0,88.605 c 0,7 4.864,12.658 10.881,12.658 L 0,0 z"
             style="fill:#f2f2f2;fill-opacity:1;fill-rule:nonzero;stroke:none"
             id="path48156"
             inkscape:connector-curvature="0" /></g><path
           d="m 127.854,19.13 -13.965,0 0,44.221 13.965,0 0,-44.221 z"
           style="fill:#d4a600;fill-opacity:1;fill-rule:nonzero;stroke:none"
           id="path48158"
           inkscape:connector-curvature="0" /><g
           id="g48160"
           transform="translate(75.4866,31.5427)"><path
             d="m 0,0 0,31.808 -13.965,0 0,-31.808 0,-12.413 13.965,0 29.869,0 L 29.869,0 0,0 z"
             style="fill:#d4a600;fill-opacity:1;fill-rule:nonzero;stroke:none"
             id="path48162"
             inkscape:connector-curvature="0" /></g><g
           id="g48164"
           transform="translate(341.5913,63.3512)"><path
             d="m 0,0 -43.834,0 0,-12.413 14.935,0 0,-31.808 13.965,0 0,31.808 14.934,0 L 0,0 z"
             style="fill:#d4a600;fill-opacity:1;fill-rule:nonzero;stroke:none"
             id="path48166"
             inkscape:connector-curvature="0" /></g><g
           id="g48168"
           transform="translate(287.7691,50.9382)"><path
             d="m 0,0 0,12.413 -29.869,0 -13.965,0 0,-44.221 13.965,0 29.869,0 0,12.413 -29.869,0 0,3.491 29.869,0 0,12.413 -29.869,0 0,3.491 L 0,0 z"
             style="fill:#d4a600;fill-opacity:1;fill-rule:nonzero;stroke:none"
             id="path48170"
             inkscape:connector-curvature="0" /></g><path
           d="m 440.071,29.312 -21.529,0 0,21.529 21.529,0 0,-21.529 z m -1.066,32.1 -19.396,0 c -6.4,0 -11.637,-5.237 -11.637,-11.638 l 0,-19.395 c 0,-6.4 5.237,-11.637 11.637,-11.637 l 19.396,0 c 6.4,0 11.637,5.237 11.637,11.637 l 0,19.395 c 0,6.401 -5.237,11.638 -11.637,11.638"
           style="fill:#d4a600;fill-opacity:1;fill-rule:nonzero;stroke:none"
           id="path48172"
           inkscape:connector-curvature="0" /><path
           d="m 222.043,47.835 -18.183,0 0,3.103 18.183,0 0,-3.103 z m 12.098,1.358 c 0,7.517 -5.863,13.649 -13.264,14.113 l 0.003,0.045 -16.802,0 -13.965,0 0,-44.221 13.965,0 0,12.413 0,2.036 0,1.455 6.26,0 7.705,-15.904 13.964,0 -8,16.514 c 5.855,1.734 10.134,7.131 10.134,13.549"
           style="fill:#d4a600;fill-opacity:1;fill-rule:nonzero;stroke:none"
           id="path48174"
           inkscape:connector-curvature="0" /><path
           d="m 384.698,47.835 -18.183,0 0,3.103 18.183,0 0,-3.103 z m 12.098,1.358 c 0,7.517 -5.864,13.649 -13.265,14.113 l 0.003,0.045 -16.801,0 -13.965,0 0,-44.221 13.965,0 0,12.413 0,2.036 0,1.455 6.26,0 7.704,-15.904 13.965,0 -8,16.514 c 5.855,1.734 10.134,7.131 10.134,13.549"
           style="fill:#d4a600;fill-opacity:1;fill-rule:nonzero;stroke:none"
           id="path48176"
           inkscape:connector-curvature="0" /><path
           d="m 169.942,47.835 -18.183,0 0,3.103 18.183,0 0,-3.103 z m 0,-16.292 -18.183,0 0,3.103 18.183,0 0,-3.103 z m 4.949,9.504 c 4.159,1.766 7.076,5.887 7.076,10.691 0,6.414 -5.199,11.613 -11.613,11.613 l -18.595,0 -13.965,0 0,-44.221 13.965,0 5.576,0 10.189,0 5.66,0 c 5.038,1.269 8.783,5.793 8.783,11.225 0,4.803 -2.917,8.925 -7.076,10.692"
           style="fill:#d4a600;fill-opacity:1;fill-rule:nonzero;stroke:none"
           id="path48178"
           inkscape:connector-curvature="0" /><path
           d="m 94.846,75.842 -45.186,0 0,30.72 45.186,0 0,-30.72 z"
           style="fill:#d4a600;fill-opacity:1;fill-rule:nonzero;stroke:none"
           id="path48180"
           inkscape:connector-curvature="0" /><path
           d="m 462.664,75.842 -45.186,0 0,30.72 45.186,0 0,-30.72 z"
           style="fill:#d4a600;fill-opacity:1;fill-rule:nonzero;stroke:none"
           id="path48182"
           inkscape:connector-curvature="0" /><path
           d="m 94.846,389.015 -45.186,0 0,30.72 45.186,0 0,-30.72 z"
           style="fill:#d4a600;fill-opacity:1;fill-rule:nonzero;stroke:none"
           id="path48184"
           inkscape:connector-curvature="0" /><path
           d="m 462.664,389.015 -45.186,0 0,30.72 45.186,0 0,-30.72 z"
           style="fill:#d4a600;fill-opacity:1;fill-rule:nonzero;stroke:none"
           id="path48186"
           inkscape:connector-curvature="0" /><g
           id="g48188"
           transform="translate(94.6854,431.6834)"><path
             d="m 0,0 -5.12,0 0,26.45 -28.205,0 0,-26.45 -5.12,0 0,31.57 L 0,31.57 0,0 z"
             style="fill:#d4a600;fill-opacity:1;fill-rule:nonzero;stroke:none"
             id="path48190"
             inkscape:connector-curvature="0" /></g><g
           id="g48192"
           transform="translate(455.9234,431.6834)"><path
             d="m 0,0 -5.12,0 0,26.45 -28.205,0 0,-26.45 -5.12,0 0,31.57 L 0,31.57 0,0 z"
             style="fill:#d4a600;fill-opacity:1;fill-rule:nonzero;stroke:none"
             id="path48194"
             inkscape:connector-curvature="0" /></g><g
           id="g48196"
           transform="translate(206.934,276.112)"><path
             d="M 0,0 C 0,27.989 22.491,49.148 49.148,49.148 75.804,49.148 98.296,27.49 98.296,0 98.296,-27.49 76.138,-49.148 49.148,-49.148 22.158,-49.148 0,-27.989 0,0"
             style="fill:#303121;fill-opacity:1;fill-rule:nonzero;stroke:none"
             id="path48198"
             inkscape:connector-curvature="0" /></g><g
           id="g48200"
           transform="translate(256.0819,236.7936)"><path
             d="m 0,0 c -22.325,0 -39.318,17.618 -39.318,39.318 0,21.701 17.784,39.319 39.318,39.319 21.534,0 39.318,-16.994 39.318,-39.319 C 39.318,16.993 22.325,0 0,0"
             style="fill:#f2f2f2;fill-opacity:1;fill-rule:nonzero;stroke:none"
             id="path48202"
             inkscape:connector-curvature="0" /></g><g
           id="g48204"
           transform="translate(256.0819,295.7711)"><path
             d="m 0,0 c -10.996,0 -19.659,-8.663 -19.659,-19.659 0,-10.996 8.663,-19.659 19.659,-19.659 10.996,0 19.659,8.746 19.659,19.659 C 19.659,-8.747 10.996,0 0,0"
             style="fill:#d9d9d9;fill-opacity:1;fill-rule:nonzero;stroke:none"
             id="path48206"
             inkscape:connector-curvature="0" /></g><g
           id="g48208"
           transform="translate(391.7955,189.7628)"><path
             d="m 0,0 -272.906,0 c -2.761,0 -5,-2.239 -5,-5 l 0,-13.096 L 5,-18.096 5,-5 C 5,-2.239 2.761,0 0,0"
             style="fill:#262626;fill-opacity:1;fill-rule:nonzero;stroke:none"
             id="path48210"
             inkscape:connector-curvature="0" /></g><g
           id="g48212"
           transform="translate(396.7955,93.9379)"><path
             d="m 0,0 -282.906,0 0,-13.096 c 0,-2.762 2.239,-5 5,-5 l 272.906,0 c 2.761,0 5,2.238 5,5 L 0,0 z"
             style="fill:#262626;fill-opacity:1;fill-rule:nonzero;stroke:none"
             id="path48214"
             inkscape:connector-curvature="0" /></g><path
           d="m 165.427,114.76 -37.573,0 0,37.573 37.573,0 0,-37.573 z"
           style="fill:#262626;fill-opacity:1;fill-rule:nonzero;stroke:none"
           id="path48216"
           inkscape:connector-curvature="0" /><g
           id="g48218"
           transform="translate(129.1231,187.9023)"><path
             d="M 0,0 C 1.497,0 2.994,0 4.491,0 5.719,0 6.468,-0.737 6.479,-1.976 6.489,-3.11 6.485,-4.243 6.478,-5.377 6.477,-5.594 6.527,-5.735 6.716,-5.883 8.129,-6.99 8.113,-8.83 6.696,-9.933 c -0.323,-0.252 -0.309,-0.931 0.024,-1.176 0.572,-0.421 0.786,-1.07 0.573,-1.733 -0.209,-0.645 -0.712,-1.007 -1.453,-1.014 -1.424,-0.012 -2.848,-0.004 -4.272,-0.023 -0.244,-0.003 -0.303,0.086 -0.355,0.3 -0.167,0.696 -0.581,1.044 -1.199,1.053 -0.634,0.01 -1.059,-0.337 -1.236,-1.062 -0.055,-0.225 -0.131,-0.292 -0.363,-0.29 -1.438,0.017 -2.877,0.012 -4.316,0.022 -0.685,0.005 -1.201,0.39 -1.402,1.023 -0.202,0.633 -0.006,1.276 0.512,1.677 0.427,0.331 0.432,0.948 0.011,1.281 -1.306,1.03 -1.336,2.856 -0.036,3.911 0.262,0.212 0.336,0.416 0.332,0.726 -0.015,1.061 -0.009,2.122 -0.005,3.183 C -6.485,-0.727 -5.76,0 -4.447,0 -2.965,0 -1.482,0 0,0"
             style="fill:#262626;fill-opacity:1;fill-rule:nonzero;stroke:none"
             id="path48220"
             inkscape:connector-curvature="0" /></g><g
           id="g48222"
           transform="translate(135.4372,176.2324)"><path
             d="m 0,0 c -0.612,0.174 -0.507,0.591 -0.507,1.008 -0.001,0.181 0.004,0.362 0.002,0.542 l 0.008,0 c -0.001,0.066 -0.003,0.133 -0.006,0.199 -0.009,0.184 0.064,0.278 0.224,0.372 1.43,0.838 1.445,2.444 0.022,3.304 -0.221,0.134 -0.246,0.28 -0.245,0.492 0.004,1.25 0.006,2.499 0,3.749 -0.004,0.914 -0.456,1.355 -1.375,1.356 -1.468,10e-4 -2.935,0 -4.403,0 -1.467,0 -2.935,10e-4 -4.402,0 -1.028,0 -1.444,-0.421 -1.445,-1.462 -10e-4,-1.192 -0.008,-2.383 0.006,-3.575 0.001,-0.093 -0.008,-0.172 -0.027,-0.244 l -0.042,0 0.02,-0.066 c -0.048,-0.118 -0.137,-0.214 -0.29,-0.307 -1.168,-0.71 -1.335,-2.258 -0.258,-2.976 0.188,-0.124 0.321,-0.252 0.413,-0.388 l -0.008,0 c 0.182,-0.267 0.208,-0.565 0.18,-0.928 -0.012,-0.159 -0.014,-0.321 10e-4,-0.479 0.027,-0.267 -0.045,-0.407 -0.338,-0.493 -0.419,-0.123 -0.612,-0.512 -0.549,-0.923 0.067,-0.435 0.328,-0.665 0.803,-0.697 1.262,-0.085 2.526,-0.014 3.789,-0.041 0.2,-0.004 0.312,0.061 0.397,0.252 0.318,0.723 0.891,1.095 1.675,1.107 0.822,0.012 1.417,-0.366 1.755,-1.121 0.076,-0.168 0.173,-0.242 0.361,-0.238 1.278,0.026 2.556,-0.035 3.833,0.037 C 0,-1.497 0.248,-1.301 0.354,-0.927 0.464,-0.536 0.37,-0.105 0,0"
             style="fill:#efbc00;fill-opacity:1;fill-rule:nonzero;stroke:none"
             id="path48224"
             inkscape:connector-curvature="0" /></g><path
           d="m 135.602,181.84 -12.963,0 0,1.489 12.963,0 0,-1.489 z"
           style="fill:#262626;fill-opacity:1;fill-rule:nonzero;stroke:none"
           id="path48226"
           inkscape:connector-curvature="0" /><g
           id="g48228"
           transform="translate(134.1593,182.6135)"><path
             d="m 0,0 c -0.004,-1.42 -1.164,-2.572 -2.581,-2.563 -1.416,0.008 -2.568,1.177 -2.554,2.592 0.014,1.395 1.165,2.537 2.562,2.542 C -1.157,2.576 0.004,1.416 0,0"
             style="fill:#262626;fill-opacity:1;fill-rule:nonzero;stroke:none"
             id="path48230"
             inkscape:connector-curvature="0" /></g><g
           id="g48232"
           transform="translate(129.2138,182.6135)"><path
             d="m 0,0 c -0.004,-1.42 -1.164,-2.572 -2.581,-2.563 -1.416,0.008 -2.568,1.177 -2.554,2.592 0.014,1.395 1.165,2.537 2.562,2.542 C -1.157,2.576 0.004,1.416 0,0"
             style="fill:#262626;fill-opacity:1;fill-rule:nonzero;stroke:none"
             id="path48234"
             inkscape:connector-curvature="0" /></g><g
           id="g48236"
           transform="translate(133.9006,182.621)"><path
             d="m 0,0 c 0,-1.275 -1.034,-2.309 -2.309,-2.309 -1.275,0 -2.309,1.034 -2.309,2.309 0,1.275 1.034,2.309 2.309,2.309 C -1.034,2.309 0,1.275 0,0"
             style="fill:#ffffff;fill-opacity:1;fill-rule:nonzero;stroke:none"
             id="path48238"
             inkscape:connector-curvature="0" /></g><g
           id="g48240"
           transform="translate(132.3188,181.7079)"><path
             d="m 0,0 c 0,-0.401 -0.325,-0.727 -0.727,-0.727 -0.401,0 -0.727,0.326 -0.727,0.727 0,0.401 0.326,0.727 0.727,0.727 C -0.325,0.727 0,0.401 0,0"
             style="fill:#262626;fill-opacity:1;fill-rule:nonzero;stroke:none"
             id="path48242"
             inkscape:connector-curvature="0" /></g><g
           id="g48244"
           transform="translate(128.9551,182.621)"><path
             d="m 0,0 c 0,-1.275 -1.034,-2.309 -2.309,-2.309 -1.275,0 -2.309,1.034 -2.309,2.309 0,1.275 1.034,2.309 2.309,2.309 C -1.034,2.309 0,1.275 0,0"
             style="fill:#ffffff;fill-opacity:1;fill-rule:nonzero;stroke:none"
             id="path48246"
             inkscape:connector-curvature="0" /></g><g
           id="g48248"
           transform="translate(127.3732,181.7079)"><path
             d="m 0,0 c 0,-0.401 -0.325,-0.727 -0.727,-0.727 -0.401,0 -0.727,0.326 -0.727,0.727 0,0.401 0.326,0.727 0.727,0.727 C -0.325,0.727 0,0.401 0,0"
             style="fill:#262626;fill-opacity:1;fill-rule:nonzero;stroke:none"
             id="path48250"
             inkscape:connector-curvature="0" /></g><g
           id="g48252"
           transform="translate(130.7556,178.8057)"><path
             d="m 0,0 c -0.32,-0.259 -0.932,-0.435 -1.637,-0.435 -0.704,0 -1.316,0.176 -1.636,0.435 -0.15,-0.122 -0.236,-0.261 -0.236,-0.41 0,-0.467 0.838,-0.846 1.872,-0.846 1.035,0 1.873,0.379 1.873,0.846 C 0.236,-0.261 0.15,-0.122 0,0"
             style="fill:#262626;fill-opacity:1;fill-rule:nonzero;stroke:none"
             id="path48254"
             inkscape:connector-curvature="0" /></g><g
           id="g48256"
           transform="translate(160.9255,88.7003)"><path
             d="m 0,0 2.902,0 0,-1.297 1.57,0 0,-0.956 -1.57,0 0.003,-6.402 -2.907,0 0.002,6.402 -1.576,0 0,0.953 1.578,0 L 0,0 z"
             style="fill:#333333;fill-opacity:1;fill-rule:nonzero;stroke:none"
             id="path48258"
             inkscape:connector-curvature="0" /></g><path
           d="m 126.927,86.46 2.9,0 0,-6.414 -2.9,0 0,6.414 z"
           style="fill:#333333;fill-opacity:1;fill-rule:nonzero;stroke:none"
           id="path48260"
           inkscape:connector-curvature="0" /><path
           d="m 126.919,89.694 2.907,0 0,-1.971 -2.907,0 0,1.971 z"
           style="fill:#333333;fill-opacity:1;fill-rule:nonzero;stroke:none"
           id="path48262"
           inkscape:connector-curvature="0" /><g
           id="g48264"
           transform="translate(180.2457,83.5234)"><path
             d="m 0,0 0,0 c 0,-0.019 -0.002,-0.971 -0.002,-1.355 0,-1.023 -0.604,-1.444 -1.187,-1.444 -0.58,0 -1.186,0.421 -1.186,1.444 l 0,1.381 c 0,0 0.002,0.951 0.002,1.339 0,1.018 0.606,1.436 1.184,1.436 0.58,0 1.187,-0.418 1.187,-1.436 0,-0.388 0,-1.106 0.002,-1.364 L 0,0.002 0,0 z m -1.165,3.596 c -2.342,0 -4.24,-1.613 -4.24,-3.601 0,-1.99 1.898,-3.603 4.24,-3.603 2.342,0 4.238,1.613 4.238,3.603 0,1.988 -1.896,3.601 -4.238,3.601"
             style="fill:#333333;fill-opacity:1;fill-rule:nonzero;stroke:none"
             id="path48266"
             inkscape:connector-curvature="0" /></g><g
           id="g48268"
           transform="translate(134.4019,84.4507)"><path
             d="m 0,0 c 0,0.994 0.686,1.247 1.136,1.247 0.462,0 1.138,-0.253 1.138,-1.247 0,-0.327 -0.002,-1.141 -0.002,-1.141 0,0 0.002,-0.801 0.002,-1.143 0,-0.989 -0.676,-1.249 -1.136,-1.249 C 0.686,-3.533 0,-3.273 0,-2.284 L 0,-1.146 0,0 z m -2.842,5.261 0,-9.646 2.868,0 c 0,0 0.003,0.313 0.003,0.371 1.109,-0.696 2.361,-0.694 3.338,-0.241 0.26,0.123 1.983,0.948 1.983,3.182 0,1.692 -1.598,3.542 -3.687,3.357 C 0.975,2.224 0.484,1.973 0.022,1.711 l 0,3.55 -2.864,0 z"
             style="fill:#333333;fill-opacity:1;fill-rule:nonzero;stroke:none"
             id="path48270"
             inkscape:connector-curvature="0" /></g><g
           id="g48272"
           transform="translate(153.9537,85.7376)"><path
             d="m 0,0 c 0.226,0.394 0.642,0.584 1.019,0.585 l -10e-4,0 0.002,0 -0.001,0 C 1.399,0.584 1.815,0.394 2.041,0 2.224,-0.32 2.233,-0.696 2.229,-1.259 l -2.422,0 C -0.197,-0.696 -0.185,-0.32 0,0 m 2.221,-3.581 c 0,-1.175 -0.772,-1.435 -1.201,-1.435 -0.428,0 -1.213,0.26 -1.213,1.435 0,0.351 0.003,1.323 0.003,1.323 0,0 5.463,-0.002 5.463,0 0,1.991 -1.92,3.639 -4.279,3.639 -2.359,0 -4.272,-1.612 -4.272,-3.602 0,-1.988 1.913,-3.601 4.272,-3.601 1.957,0 3.61,1.117 4.115,2.631 l -2.89,-0.003 c 0,0 0.002,-0.026 0.002,-0.387"
             style="fill:#333333;fill-opacity:1;fill-rule:nonzero;stroke:none"
             id="path48274"
             inkscape:connector-curvature="0" /></g><g
           id="g48276"
           transform="translate(122.1229,80.9989)"><path
             d="m 0,0 0,8.738 -2.905,0 0,-8.738 0,-0.953 2.905,0 3.143,0 L 3.143,0 0,0 z"
             style="fill:#333333;fill-opacity:1;fill-rule:nonzero;stroke:none"
             id="path48278"
             inkscape:connector-curvature="0" /></g><g
           id="g48280"
           transform="translate(171.4806,84.112)"><path
             d="M 0,0 2.842,0 C 2.55,2.071 0.611,2.67 -0.387,2.644 -1.345,2.615 -2.144,2.203 -2.7,1.674 c -0.003,0.159 0,0.676 0,0.676 l -2.879,-0.002 -0.002,-6.414 2.881,0 c 0,0 -0.003,3.94 -0.003,4.212 0,0.558 0.588,1.181 1.377,1.181 C -0.537,1.327 0,0.704 0,0.146 L 0,0 z"
             style="fill:#333333;fill-opacity:1;fill-rule:nonzero;stroke:none"
             id="path48282"
             inkscape:connector-curvature="0" /></g><g
           id="g48284"
           transform="translate(144.3151,86.4525)"><path
             d="m 0,0 0,1.138 c 0,0.99 0.686,1.249 1.138,1.249 0.46,0 1.136,-0.259 1.136,-1.249 0,-0.341 -0.002,-1.143 -0.002,-1.143 0,0 0.002,-0.813 0.002,-1.141 0,-0.994 -0.676,-1.246 -1.138,-1.246 C 0.686,-2.392 0,-2.14 0,-1.146 L 0,0 z M 5.35,-0.072 C 5.35,2.161 3.627,2.987 3.367,3.109 2.39,3.562 1.138,3.564 0.029,2.869 c 0,0.058 -0.003,0.37 -0.003,0.37 l -2.868,0 0,-9.646 2.864,0 0,3.55 c 0.012,-0.007 0.024,-0.013 0.037,-0.02 l 2.246,-3.53 2.842,0 -2.027,3.186 c 1.331,0.521 2.23,1.88 2.23,3.149"
             style="fill:#333333;fill-opacity:1;fill-rule:nonzero;stroke:none"
             id="path48286"
             inkscape:connector-curvature="0" /></g><g
           id="g48288"
           transform="translate(146.502,185.6084)"><path
             d="m 0,0 0,-1.16 -3.598,0 0,-2.865 3.463,0 0,-1.155 -3.463,0 0,-4.054 -1.242,0 L -4.84,0 0,0 z"
             style="fill:#efbc00;fill-opacity:1;fill-rule:nonzero;stroke:none"
             id="path48290"
             inkscape:connector-curvature="0" /></g><g
           id="g48292"
           transform="translate(150.4399,180.458)"><path
             d="m 0,0 2.273,0 0,3.316 L 0,0 z m -2.783,-4.084 -1.469,0 6.323,9.234 1.444,0 0,-9.234 -1.242,0 0,2.93 -3.055,0 -2.001,-2.93 z"
             style="fill:#efbc00;fill-opacity:1;fill-rule:nonzero;stroke:none"
             id="path48294"
             inkscape:connector-curvature="0" /></g><g
           id="g48296"
           transform="translate(155.4727,176.374)"><path
             d="m 0,0 0,9.234 1.666,0 3.106,-7.297 3.121,7.297 1.664,0 0,-9.234 -1.243,0 0,7.271 L 5.262,0 4.271,0 1.242,7.266 1.242,0 0,0 z"
             style="fill:#efbc00;fill-opacity:1;fill-rule:nonzero;stroke:none"
             id="path48298"
             inkscape:connector-curvature="0" /></g><path
           d="m 167.742,176.374 -1.242,0 0,9.234 1.242,0 0,-9.234 z"
           style="fill:#efbc00;fill-opacity:1;fill-rule:nonzero;stroke:none"
           id="path48300"
           inkscape:connector-curvature="0" /><g
           id="g48302"
           transform="translate(180.4922,177.792)"><path
             d="m 0,0 c -0.957,-1.055 -2.141,-1.582 -3.551,-1.582 -0.847,0 -1.644,0.213 -2.39,0.639 -0.758,0.433 -1.345,1.015 -1.761,1.746 -0.416,0.73 -0.624,1.523 -0.624,2.379 0,0.863 0.211,1.66 0.633,2.39 0.422,0.731 1.006,1.303 1.752,1.717 0.761,0.422 1.556,0.633 2.384,0.633 0.879,0 1.703,-0.219 2.473,-0.656 0.809,-0.461 1.434,-1.164 1.875,-2.11 l -1.359,0 c -0.27,0.367 -0.508,0.639 -0.715,0.815 -0.61,0.535 -1.34,0.802 -2.192,0.802 C -4.135,6.773 -4.743,6.61 -5.3,6.284 -5.856,5.958 -6.292,5.508 -6.606,4.934 -6.921,4.359 -7.078,3.77 -7.078,3.164 c 0,-0.973 0.351,-1.812 1.055,-2.519 0.703,-0.707 1.541,-1.061 2.513,-1.061 0.817,0 1.557,0.277 2.221,0.832 0.227,0.191 0.486,0.48 0.779,0.867 l 0.082,-0.058 1.26,0 C 0.496,0.646 0.219,0.238 0,0"
             style="fill:#efbc00;fill-opacity:1;fill-rule:nonzero;stroke:none"
             id="path48304"
             inkscape:connector-curvature="0" /></g><g
           id="g48306"
           transform="translate(190.3359,180.9268)"><path
             d="m 0,0 c 0,0.82 -0.238,1.541 -0.715,2.162 -0.746,0.973 -1.709,1.459 -2.889,1.459 -1.007,0 -1.875,-0.363 -2.601,-1.09 C -6.877,1.859 -7.213,1 -7.213,-0.047 l -0.029,-0.058 c 0.012,-0.977 0.372,-1.804 1.081,-2.482 0.709,-0.678 1.554,-1.017 2.534,-1.017 1.004,0 1.859,0.355 2.566,1.064 C -0.354,-1.831 0,-0.984 0,0 m -8.408,-0.475 -0.047,-0.058 c 0,1.672 0.449,2.957 1.348,3.855 0.98,0.981 2.15,1.471 3.509,1.471 1.34,0 2.483,-0.463 3.428,-1.389 0.945,-0.925 1.418,-2.043 1.418,-3.351 0,-1.321 -0.459,-2.428 -1.377,-3.323 -0.973,-0.953 -2.129,-1.429 -3.469,-1.429 -1.339,0 -2.484,0.472 -3.433,1.418 -0.801,0.793 -1.26,1.728 -1.377,2.806"
             style="fill:#efbc00;fill-opacity:1;fill-rule:nonzero;stroke:none"
             id="path48308"
             inkscape:connector-curvature="0" /></g><g
           id="g48310"
           transform="translate(192.7207,176.374)"><path
             d="m 0,0 0,9.234 1.666,0 3.106,-7.297 3.121,7.297 1.664,0 0,-9.234 -1.243,0 0,7.271 L 5.262,0 4.271,0 1.242,7.266 1.242,0 0,0 z"
             style="fill:#efbc00;fill-opacity:1;fill-rule:nonzero;stroke:none"
             id="path48312"
             inkscape:connector-curvature="0" /></g><g
           id="g48314"
           transform="translate(206.0684,181.0908)"><path
             d="M 0,0 C 0.551,0 0.914,0.01 1.09,0.029 1.684,0.092 2.119,0.365 2.396,0.85 2.541,1.1 2.613,1.369 2.613,1.658 2.613,2.123 2.469,2.5 2.18,2.789 1.91,3.059 1.541,3.223 1.072,3.281 0.982,3.293 0.623,3.305 -0.006,3.316 L -1.107,3.334 -1.107,0 0,0 z M 0.299,4.477 C 1.467,4.477 2.324,4.246 2.871,3.785 3.531,3.23 3.861,2.523 3.861,1.664 3.861,1.164 3.736,0.695 3.486,0.258 3.225,-0.203 2.873,-0.541 2.432,-0.756 1.904,-1.014 1.199,-1.143 0.316,-1.143 l -1.406,0 0,-3.568 -1.26,-0.053 0,9.241 2.649,0 z"
             style="fill:#efbc00;fill-opacity:1;fill-rule:nonzero;stroke:none"
             id="path48316"
             inkscape:connector-curvature="0" /></g><g
           id="g48318"
           transform="translate(212.0684,179.9248)"><path
             d="m 0,0 c 0,-1.676 0.665,-2.514 1.995,-2.514 0.597,0 1.065,0.202 1.404,0.607 0.339,0.404 0.509,1.032 0.509,1.884 l 0,5.712 1.237,0 0,-5.712 c 0,-1.344 -0.381,-2.332 -1.143,-2.965 -0.566,-0.473 -1.25,-0.709 -2.051,-0.709 -0.582,0 -1.127,0.142 -1.635,0.427 -0.535,0.297 -0.929,0.702 -1.183,1.213 -0.235,0.473 -0.354,1.149 -0.358,2.028 L -1.248,5.713 0,5.713 0,0 z"
             style="fill:#efbc00;fill-opacity:1;fill-rule:nonzero;stroke:none"
             id="path48320"
             inkscape:connector-curvature="0" /></g><g
           id="g48322"
           transform="translate(217.8691,184.4482)"><path
             d="m 0,0 0,1.16 5.309,0 0,-1.16 -2.028,0 0,-8.074 -1.242,0 L 2.039,0 0,0 z"
             style="fill:#efbc00;fill-opacity:1;fill-rule:nonzero;stroke:none"
             id="path48324"
             inkscape:connector-curvature="0" /></g><g
           id="g48326"
           transform="translate(228.9492,185.6084)"><path
             d="m 0,0 0,-1.16 -3.967,0 0,-2.836 3.838,0 0,-1.16 -3.838,0 0,-2.924 3.967,0 0,-1.154 -5.209,0 0,9.234 L 0,0 z"
             style="fill:#efbc00;fill-opacity:1;fill-rule:nonzero;stroke:none"
             id="path48328"
             inkscape:connector-curvature="0" /></g><g
           id="g48330"
           transform="translate(232.582,185.6084)"><path
             d="m 0,0 c 1.129,0 2.031,-0.209 2.707,-0.627 0.82,-0.508 1.231,-1.295 1.231,-2.362 0,-1.063 -0.417,-1.858 -1.25,-2.385 C 2.337,-5.601 1.93,-5.755 1.469,-5.837 l 2.54,-3.351 -1.56,0 -3.275,4.372 c 0.932,0 1.484,0.005 1.655,0.017 0.542,0.035 0.977,0.199 1.305,0.492 0.386,0.34 0.579,0.776 0.579,1.307 0,0.621 -0.244,1.104 -0.732,1.447 -0.37,0.262 -0.963,0.393 -1.778,0.393 l -1.369,0 0,-8.074 -1.266,0 0,9.234 L 0,0 z"
             style="fill:#efbc00;fill-opacity:1;fill-rule:nonzero;stroke:none"
             id="path48332"
             inkscape:connector-curvature="0" /></g><g
           id="g48334"
           transform="translate(245.3291,178.7344)"><path
             d="m 0,0 c 0.021,0 0.059,0.023 0.116,0.069 0.056,0.046 0.079,0.167 0.069,0.363 l 0,0.524 0,0.832 0,0.963 0,0.917 0,0.701 0,0.317 C 0.185,4.737 0.18,4.801 0.169,4.878 0.159,4.955 0.133,5.02 0.092,5.071 0.051,5.092 0.01,5.102 -0.031,5.102 l -0.308,0 L -0.339,0 0,0 z m -0.801,-0.447 0,6.011 0.77,0 C 0.154,5.564 0.303,5.502 0.416,5.379 0.529,5.245 0.593,5.099 0.609,4.939 0.625,4.78 0.632,4.69 0.632,4.67 l 0,-0.955 0,-0.925 0,-0.978 0,-0.849 0,-0.531 C 0.632,0.257 0.611,0.115 0.57,0.008 0.529,-0.101 0.478,-0.19 0.416,-0.262 0.354,-0.334 0.288,-0.383 0.216,-0.408 0.144,-0.435 0.077,-0.447 0.016,-0.447 l -0.817,0 z m 2.142,-1.711 c 0.031,0 0.11,0.008 0.239,0.023 0.128,0.016 0.264,0.065 0.408,0.147 0.144,0.082 0.272,0.208 0.386,0.378 0.112,0.169 0.169,0.408 0.169,0.716 l 0,6.905 c 0,0.031 -0.01,0.11 -0.031,0.239 C 2.492,6.378 2.435,6.512 2.343,6.65 2.25,6.789 2.109,6.915 1.919,7.028 1.729,7.142 1.464,7.198 1.125,7.198 l -3.684,0 0,-9.356 3.9,0 z m -4.362,-0.462 0,10.28 4.146,0 C 1.587,7.66 1.947,7.575 2.204,7.406 2.461,7.236 2.648,7.049 2.767,6.844 2.885,6.638 2.964,6.36 3.005,6.011 l 0,-6.905 C 3.005,-1.233 2.946,-1.513 2.828,-1.733 2.71,-1.955 2.563,-2.132 2.389,-2.266 2.214,-2.399 2.032,-2.492 1.842,-2.543 1.652,-2.595 1.485,-2.62 1.341,-2.62 l -4.362,0 z"
             style="fill:#efbc00;fill-opacity:1;fill-rule:nonzero;stroke:none"
             id="path48336"
             inkscape:connector-curvature="0" /></g><path
           d="m 251.31,185.933 -1.911,0 0,-9.341 1.911,0 0,9.341 z m -2.359,0.462 2.821,0 0,-10.265 -2.821,0 0,10.265 z"
           style="fill:#efbc00;fill-opacity:1;fill-rule:nonzero;stroke:none"
           id="path48338"
           inkscape:connector-curvature="0" /><g
           id="g48340"
           transform="translate(252.8813,177.9795)"><path
             d="m 0,0 c 0,-0.154 0.01,-0.285 0.031,-0.394 0.02,-0.107 0.053,-0.22 0.1,-0.338 0.046,-0.119 0.116,-0.229 0.208,-0.331 0.195,-0.216 0.483,-0.325 0.863,-0.325 l 0.015,0 2.929,0 c 0.021,0 0.082,0.008 0.185,0.024 0.103,0.015 0.211,0.061 0.324,0.138 0.113,0.078 0.213,0.198 0.3,0.363 0.087,0.164 0.131,0.39 0.131,0.677 l 0,2.097 C 5.065,2.044 5.032,2.162 4.986,2.266 4.94,2.368 4.868,2.483 4.77,2.612 4.672,2.74 4.531,2.871 4.346,3.005 l -2.558,1.634 0,0.924 c 0,0.052 0.01,0.124 0.031,0.216 0.02,0.093 0.072,0.186 0.154,0.278 0.051,0.051 0.12,0.108 0.208,0.17 C 2.268,6.288 2.394,6.319 2.559,6.319 2.702,6.319 2.813,6.296 2.89,6.25 2.967,6.203 3.026,6.154 3.067,6.104 3.169,5.99 3.229,5.877 3.244,5.764 3.26,5.651 3.268,5.579 3.268,5.548 l 0,-0.231 1.818,-1.171 0,2.589 c 0,0.031 -0.01,0.111 -0.031,0.239 C 5.035,7.103 4.98,7.241 4.894,7.39 4.806,7.539 4.67,7.67 4.485,7.783 4.3,7.896 4.043,7.953 3.714,7.953 l -2.635,0 C 1.048,7.953 0.976,7.945 0.863,7.93 0.75,7.914 0.629,7.868 0.501,7.791 0.372,7.714 0.257,7.599 0.154,7.444 0.051,7.29 0,7.074 0,6.797 L 0,4.47 C 0.031,4.315 0.072,4.182 0.123,4.068 0.174,3.955 0.259,3.832 0.377,3.699 0.496,3.565 0.657,3.437 0.863,3.313 l 2.405,-1.51 0,-0.864 C 3.268,0.889 3.262,0.799 3.252,0.67 3.242,0.542 3.185,0.416 3.083,0.293 3.031,0.241 2.967,0.192 2.89,0.146 2.813,0.1 2.702,0.077 2.559,0.077 2.415,0.077 2.296,0.1 2.204,0.146 2.111,0.192 2.04,0.241 1.988,0.293 1.875,0.405 1.813,0.526 1.803,0.654 1.793,0.783 1.788,0.857 1.788,0.878 l 0,0.293 L 0,2.266 0,0 z m 1.202,-1.85 c -0.524,0 -0.925,0.16 -1.202,0.478 -0.124,0.134 -0.216,0.274 -0.277,0.424 -0.062,0.148 -0.108,0.293 -0.139,0.431 -0.031,0.139 -0.046,0.257 -0.046,0.355 l 0,0.177 0,3.083 2.712,-1.665 0,-0.57 C 2.25,0.78 2.271,0.706 2.312,0.64 2.353,0.572 2.43,0.539 2.543,0.539 c 0.185,0 0.277,0.118 0.277,0.355 l 0,0.031 0,0.616 -2.204,1.387 C 0.349,3.082 0.144,3.249 0,3.429 -0.144,3.608 -0.252,3.773 -0.324,3.922 -0.396,4.071 -0.437,4.197 -0.447,4.3 -0.458,4.402 -0.462,4.459 -0.462,4.47 l 0,2.327 c 0,0.482 0.143,0.868 0.431,1.156 0.113,0.112 0.234,0.2 0.362,0.262 0.128,0.061 0.247,0.107 0.355,0.139 0.107,0.03 0.239,0.05 0.393,0.061 l 2.635,0 c 0.36,0 0.658,-0.06 0.894,-0.177 C 4.845,8.119 5.032,7.974 5.171,7.799 5.31,7.624 5.407,7.438 5.464,7.244 5.52,7.049 5.548,6.879 5.548,6.735 l 0,-3.437 -2.728,1.772 0,0.493 C 2.82,5.646 2.797,5.715 2.751,5.771 2.705,5.828 2.63,5.856 2.528,5.856 2.415,5.856 2.34,5.82 2.304,5.749 2.268,5.677 2.25,5.615 2.25,5.563 l 0,-0.662 2.343,-1.51 C 4.829,3.216 5.011,3.044 5.14,2.874 5.269,2.705 5.364,2.551 5.425,2.412 5.487,2.273 5.523,2.157 5.533,2.065 5.543,1.973 5.548,1.921 5.548,1.911 l 0,-2.097 C 5.548,-0.597 5.477,-0.915 5.333,-1.141 5.188,-1.367 5.029,-1.531 4.855,-1.634 4.68,-1.737 4.444,-1.809 4.146,-1.85 l -2.944,0 z"
             style="fill:#efbc00;fill-opacity:1;fill-rule:nonzero;stroke:none"
             id="path48342"
             inkscape:connector-curvature="0" /></g><g
           id="g48344"
           transform="translate(264.4253,176.5918)"><path
             d="M 0,0 0,3.422 -1.31,4.717 0,6.026 l 0,3.315 -1.757,0 0,-2.529 -1.356,-1.417 0,3.946 -1.819,0 0,-9.341 1.819,0 0,3.838 L -1.865,2.651 -1.834,0 0,0 z m -2.281,-0.462 -0.031,2.913 -0.339,0.323 0,-3.236 -2.744,0 0,10.265 2.744,0 0,-3.252 0.447,0.447 0,2.805 2.666,0 0,-3.977 -1.125,-1.109 1.125,-1.111 0,-4.068 -2.743,0 z"
             style="fill:#efbc00;fill-opacity:1;fill-rule:nonzero;stroke:none"
             id="path48346"
             inkscape:connector-curvature="0" /></g><g
           id="g48348"
           transform="translate(270.436,177.9795)"><path
             d="m 0,0 c 0,-0.154 0.01,-0.285 0.031,-0.394 0.02,-0.107 0.053,-0.22 0.1,-0.338 0.046,-0.119 0.116,-0.229 0.208,-0.331 0.195,-0.216 0.483,-0.325 0.863,-0.325 l 0.015,0 2.929,0 c 0.021,0 0.082,0.008 0.185,0.024 0.103,0.015 0.211,0.061 0.324,0.138 0.113,0.078 0.213,0.198 0.3,0.363 0.087,0.164 0.131,0.39 0.131,0.677 l 0,2.097 C 5.065,2.044 5.032,2.162 4.986,2.266 4.94,2.368 4.868,2.483 4.77,2.612 4.672,2.74 4.531,2.871 4.346,3.005 l -2.558,1.634 0,0.924 c 0,0.052 0.01,0.124 0.031,0.216 0.02,0.093 0.072,0.186 0.154,0.278 0.051,0.051 0.12,0.108 0.208,0.17 C 2.268,6.288 2.394,6.319 2.559,6.319 2.702,6.319 2.813,6.296 2.89,6.25 2.967,6.203 3.026,6.154 3.067,6.104 3.169,5.99 3.229,5.877 3.244,5.764 3.26,5.651 3.268,5.579 3.268,5.548 l 0,-0.231 1.818,-1.171 0,2.589 c 0,0.031 -0.01,0.111 -0.031,0.239 C 5.035,7.103 4.98,7.241 4.894,7.39 4.806,7.539 4.67,7.67 4.485,7.783 4.3,7.896 4.043,7.953 3.714,7.953 l -2.635,0 C 1.048,7.953 0.976,7.945 0.863,7.93 0.75,7.914 0.629,7.868 0.501,7.791 0.372,7.714 0.257,7.599 0.154,7.444 0.051,7.29 0,7.074 0,6.797 L 0,4.47 C 0.031,4.315 0.072,4.182 0.123,4.068 0.174,3.955 0.259,3.832 0.377,3.699 0.496,3.565 0.657,3.437 0.863,3.313 l 2.405,-1.51 0,-0.864 C 3.268,0.889 3.262,0.799 3.252,0.67 3.242,0.542 3.185,0.416 3.083,0.293 3.031,0.241 2.967,0.192 2.89,0.146 2.813,0.1 2.702,0.077 2.559,0.077 2.415,0.077 2.296,0.1 2.204,0.146 2.111,0.192 2.04,0.241 1.988,0.293 1.875,0.405 1.813,0.526 1.803,0.654 1.793,0.783 1.788,0.857 1.788,0.878 l 0,0.293 L 0,2.266 0,0 z m 1.202,-1.85 c -0.524,0 -0.925,0.16 -1.202,0.478 -0.124,0.134 -0.216,0.274 -0.277,0.424 -0.062,0.148 -0.108,0.293 -0.139,0.431 -0.031,0.139 -0.046,0.257 -0.046,0.355 l 0,0.177 0,3.083 2.712,-1.665 0,-0.57 C 2.25,0.78 2.271,0.706 2.312,0.64 2.353,0.572 2.43,0.539 2.543,0.539 c 0.185,0 0.277,0.118 0.277,0.355 l 0,0.031 0,0.616 -2.204,1.387 C 0.349,3.082 0.144,3.249 0,3.429 -0.144,3.608 -0.252,3.773 -0.324,3.922 -0.396,4.071 -0.437,4.197 -0.447,4.3 -0.458,4.402 -0.462,4.459 -0.462,4.47 l 0,2.327 c 0,0.482 0.143,0.868 0.431,1.156 0.113,0.112 0.234,0.2 0.362,0.262 0.128,0.061 0.247,0.107 0.355,0.139 0.107,0.03 0.239,0.05 0.393,0.061 l 2.635,0 c 0.36,0 0.658,-0.06 0.894,-0.177 C 4.845,8.119 5.032,7.974 5.171,7.799 5.31,7.624 5.407,7.438 5.464,7.244 5.52,7.049 5.548,6.879 5.548,6.735 l 0,-3.437 -2.728,1.772 0,0.493 C 2.82,5.646 2.797,5.715 2.751,5.771 2.705,5.828 2.63,5.856 2.528,5.856 2.415,5.856 2.34,5.82 2.304,5.749 2.268,5.677 2.25,5.615 2.25,5.563 l 0,-0.662 2.343,-1.51 C 4.829,3.216 5.011,3.044 5.14,2.874 5.269,2.705 5.364,2.551 5.425,2.412 5.487,2.273 5.523,2.157 5.533,2.065 5.543,1.973 5.548,1.921 5.548,1.911 l 0,-2.097 C 5.548,-0.597 5.477,-0.915 5.333,-1.141 5.188,-1.367 5.029,-1.531 4.855,-1.634 4.68,-1.737 4.444,-1.809 4.146,-1.85 l -2.944,0 z"
             style="fill:#efbc00;fill-opacity:1;fill-rule:nonzero;stroke:none"
             id="path48350"
             inkscape:connector-curvature="0" /></g><path
           d="m 278.944,185.933 -1.911,0 0,-9.341 1.911,0 0,9.341 z m -2.359,0.462 2.821,0 0,-10.265 -2.821,0 0,10.265 z"
           style="fill:#efbc00;fill-opacity:1;fill-rule:nonzero;stroke:none"
           id="path48352"
           inkscape:connector-curvature="0" /><g
           id="g48354"
           transform="translate(286.9585,176.5918)"><path
             d="m 0,0 1.819,0 0,8.277 C 1.819,8.533 1.767,8.731 1.665,8.87 1.562,9.009 1.446,9.114 1.318,9.187 1.189,9.258 1.068,9.302 0.956,9.317 0.842,9.333 0.776,9.341 0.755,9.341 l -1.988,0 C -1.397,9.341 -1.539,9.314 -1.657,9.264 -1.775,9.212 -1.873,9.155 -1.95,9.094 -2.027,9.032 -2.102,8.944 -2.173,8.832 l -0.201,-0.37 -0.2,0.386 C -2.636,8.971 -2.712,9.065 -2.805,9.132 -2.897,9.199 -2.99,9.248 -3.083,9.278 -3.175,9.31 -3.293,9.33 -3.437,9.341 l -3.021,0 0,-9.341 1.649,0 0,6.72 c -0.01,0.031 -0.005,0.121 0.016,0.27 0.02,0.149 0.092,0.285 0.215,0.408 0.041,0.051 0.106,0.101 0.193,0.147 0.087,0.046 0.203,0.069 0.347,0.069 0.154,0 0.275,-0.025 0.362,-0.077 0.087,-0.052 0.156,-0.102 0.208,-0.154 0.113,-0.113 0.175,-0.241 0.185,-0.385 0.01,-0.144 0.015,-0.231 0.015,-0.263 l 0,-6.735 1.789,0 0,6.72 c -0.011,0.041 -0.011,0.126 0,0.255 0.01,0.128 0.071,0.249 0.185,0.362 0.051,0.051 0.123,0.102 0.215,0.154 0.093,0.051 0.216,0.077 0.37,0.077 0.144,0 0.259,-0.023 0.347,-0.069 C -0.275,7.452 -0.206,7.403 -0.154,7.353 -0.062,7.239 -0.01,7.123 0,7.005 0.01,6.887 0.01,6.808 0,6.767 L 0,0 z m 2.281,-0.462 -2.728,0 0,7.259 c 0.01,0.02 0.013,0.059 0.008,0.116 -0.005,0.056 -0.023,0.106 -0.054,0.147 -0.041,0.041 -0.113,0.061 -0.216,0.061 -0.083,0 -0.139,-0.008 -0.169,-0.023 C -0.909,7.082 -0.93,7.064 -0.94,7.044 -0.992,6.972 -1.017,6.91 -1.017,6.859 c -0.01,-0.042 -0.01,-0.072 0,-0.092 l 0,-0.032 0,-7.197 -2.713,0 0,7.229 c 0,0.02 -0.002,0.066 -0.007,0.138 -0.006,0.072 -0.029,0.134 -0.07,0.185 -0.021,0.011 -0.044,0.025 -0.069,0.047 -0.026,0.02 -0.08,0.03 -0.162,0.03 -0.072,0 -0.121,-0.01 -0.147,-0.03 C -4.21,7.115 -4.229,7.101 -4.238,7.09 -4.29,7.039 -4.323,6.975 -4.339,6.897 -4.354,6.82 -4.356,6.767 -4.346,6.735 l 0,-0.015 0,-7.182 -2.574,0 0,10.265 3.483,0 c 0.154,-0.011 0.285,-0.032 0.393,-0.062 0.108,-0.031 0.224,-0.077 0.347,-0.138 0.123,-0.062 0.241,-0.15 0.354,-0.262 0.093,0.112 0.232,0.218 0.416,0.315 0.185,0.098 0.417,0.147 0.694,0.147 l 1.988,0 c 0.134,0 0.288,-0.024 0.463,-0.07 C 1.392,9.688 1.559,9.604 1.719,9.486 1.878,9.368 2.011,9.212 2.119,9.017 2.227,8.821 2.281,8.575 2.281,8.277 l 0,-8.739 z"
             style="fill:#efbc00;fill-opacity:1;fill-rule:nonzero;stroke:none"
             id="path48356"
             inkscape:connector-curvature="0" /></g><g
           id="g48358"
           transform="translate(290.3184,177.9941)"><path
             d="m 0,0 c 0,-0.349 0.049,-0.619 0.146,-0.809 0.098,-0.19 0.206,-0.329 0.324,-0.416 0.118,-0.087 0.229,-0.138 0.332,-0.154 0.102,-0.016 0.159,-0.023 0.169,-0.023 l 2.975,0 c 0.277,0 0.493,0.056 0.647,0.17 0.154,0.113 0.264,0.236 0.331,0.37 0.067,0.133 0.108,0.258 0.124,0.377 0.015,0.118 0.023,0.182 0.023,0.193 l 0,8.23 -1.834,0 0,-7.121 C 3.237,0.55 3.154,0.36 2.99,0.247 2.826,0.134 2.671,0.077 2.528,0.077 2.322,0.077 2.145,0.149 1.996,0.293 1.847,0.437 1.772,0.611 1.772,0.817 l 0,7.121 L 0,7.938 0,0 z m 0.971,-1.864 c -0.308,0.041 -0.55,0.12 -0.724,0.238 -0.175,0.118 -0.337,0.304 -0.486,0.556 -0.149,0.251 -0.223,0.608 -0.223,1.07 l 0,8.4 2.697,0 0,-7.583 C 2.235,0.745 2.263,0.681 2.32,0.625 2.376,0.568 2.445,0.54 2.528,0.54 2.579,0.54 2.636,0.558 2.697,0.594 2.759,0.63 2.79,0.704 2.79,0.817 l 0,7.583 2.743,0 0,-8.692 C 5.533,-0.426 5.51,-0.583 5.464,-0.763 5.417,-0.942 5.335,-1.114 5.217,-1.278 5.099,-1.443 4.937,-1.582 4.732,-1.695 4.526,-1.809 4.264,-1.864 3.946,-1.864 l -2.975,0 z"
             style="fill:#efbc00;fill-opacity:1;fill-rule:nonzero;stroke:none"
             id="path48360"
             inkscape:connector-curvature="0" /></g><g
           id="g48362"
           transform="translate(300.7524,176.5762)"><path
             d="m 0,0 0,1.542 -1.957,0 0,7.814 -1.865,0 L -3.822,0 0,0 z m -4.285,-0.462 0,10.28 2.79,0 0,-7.814 1.957,0 0,-2.466 -4.747,0 z"
             style="fill:#efbc00;fill-opacity:1;fill-rule:nonzero;stroke:none"
             id="path48364"
             inkscape:connector-curvature="0" /></g><g
           id="g48366"
           transform="translate(304.8984,181.4473)"><path
             d="m 0,0 0,2.08 c 0,0.021 -0.005,0.06 -0.016,0.116 -0.01,0.057 -0.03,0.106 -0.061,0.147 -0.01,0.01 -0.031,0.022 -0.062,0.038 -0.03,0.015 -0.077,0.023 -0.138,0.023 -0.124,0 -0.201,-0.041 -0.232,-0.123 C -0.54,2.198 -0.555,2.132 -0.555,2.08 L -0.555,0 0,0 z m -1.017,-0.463 0,2.543 c 0,0.021 0.01,0.096 0.031,0.224 0.02,0.129 0.087,0.249 0.2,0.362 0.123,0.134 0.293,0.2 0.509,0.2 0.143,0 0.256,-0.022 0.339,-0.069 C 0.144,2.751 0.21,2.702 0.262,2.65 0.375,2.538 0.437,2.417 0.447,2.289 0.457,2.16 0.462,2.086 0.462,2.065 l 0,-2.528 -1.479,0 z m 3.313,-4.392 0,8.061 C 2.296,3.524 2.243,3.769 2.135,3.938 2.027,4.107 1.909,4.233 1.78,4.315 1.651,4.397 1.531,4.446 1.418,4.462 1.305,4.478 1.243,4.485 1.233,4.485 l -2.913,0 C -1.978,4.485 -2.219,4.393 -2.404,4.207 -2.497,4.115 -2.569,4.012 -2.62,3.899 -2.672,3.786 -2.71,3.678 -2.736,3.575 -2.762,3.473 -2.774,3.35 -2.774,3.206 l 0,-8.061 1.757,0 0,2.481 1.479,0 0,-2.481 1.834,0 z M 0,-5.317 l 0,2.481 -0.555,0 0,-2.481 -2.682,0 0,8.523 c 0,0.01 0.003,0.062 0.008,0.153 0.005,0.093 0.023,0.204 0.054,0.332 0.031,0.128 0.079,0.27 0.146,0.424 0.067,0.155 0.162,0.293 0.285,0.416 0.278,0.278 0.633,0.416 1.064,0.416 l 2.913,0 C 1.551,4.906 1.806,4.829 1.996,4.716 2.186,4.603 2.36,4.431 2.52,4.2 2.679,3.969 2.759,3.638 2.759,3.206 l 0,-8.523 -2.759,0 z"
             style="fill:#efbc00;fill-opacity:1;fill-rule:nonzero;stroke:none"
             id="path48368"
             inkscape:connector-curvature="0" /></g><g
           id="g48370"
           transform="translate(311.8032,176.5918)"><path
             d="m 0,0 0,7.568 1.279,0 0,1.773 -4.454,0 0,-1.758 1.217,0 L -1.958,0 0,0 z m -2.42,-0.462 0,7.583 -1.218,0 0,2.682 5.38,0 0,-2.698 -1.28,0 0,-7.567 -2.882,0 z"
             style="fill:#efbc00;fill-opacity:1;fill-rule:nonzero;stroke:none"
             id="path48372"
             inkscape:connector-curvature="0" /></g><path
           d="m 316.412,185.933 -1.911,0 0,-9.341 1.911,0 0,9.341 z m -2.359,0.462 2.821,0 0,-10.265 -2.821,0 0,10.265 z"
           style="fill:#efbc00;fill-opacity:1;fill-rule:nonzero;stroke:none"
           id="path48374"
           inkscape:connector-curvature="0" /><g
           id="g48376"
           transform="translate(320.4653,183.8516)"><path
             d="m 0,0 c -0.041,0 -0.098,-0.016 -0.169,-0.046 -0.073,-0.031 -0.108,-0.113 -0.108,-0.247 l 0,-4.747 c 0,-0.072 0.025,-0.137 0.076,-0.192 0.052,-0.057 0.118,-0.085 0.201,-0.085 0.051,0 0.11,0.017 0.177,0.053 0.067,0.036 0.1,0.111 0.1,0.224 l 0,4.747 c 0,0.134 -0.033,0.216 -0.1,0.247 C 0.11,-0.016 0.051,0 0,0 m 0.015,-5.78 c -0.205,0 -0.383,0.072 -0.532,0.216 -0.149,0.144 -0.223,0.318 -0.223,0.524 l 0,4.747 c 0,0.134 0.026,0.249 0.077,0.347 0.052,0.097 0.116,0.177 0.193,0.239 0.077,0.061 0.159,0.105 0.246,0.131 0.088,0.025 0.167,0.038 0.239,0.038 0.144,0 0.298,-0.057 0.463,-0.169 0.164,-0.113 0.246,-0.309 0.246,-0.586 l 0,-4.747 C 0.724,-5.308 0.642,-5.497 0.478,-5.61 0.313,-5.724 0.159,-5.78 0.015,-5.78 M -1.403,2.081 C -1.68,2.081 -1.894,2.024 -2.042,1.911 -2.191,1.798 -2.299,1.672 -2.366,1.533 -2.433,1.395 -2.474,1.267 -2.489,1.148 -2.505,1.03 -2.512,0.966 -2.512,0.955 l 0,-6.812 c 0,-0.349 0.048,-0.62 0.146,-0.809 0.097,-0.19 0.205,-0.329 0.324,-0.416 0.118,-0.088 0.228,-0.139 0.331,-0.154 0.103,-0.016 0.159,-0.024 0.169,-0.024 l 2.975,0 c 0.278,0 0.494,0.057 0.648,0.17 0.154,0.113 0.264,0.236 0.331,0.37 0.067,0.133 0.108,0.259 0.123,0.377 0.016,0.118 0.024,0.183 0.024,0.194 l 0,6.904 c 0,0.318 -0.06,0.567 -0.178,0.748 C 2.263,1.683 2.129,1.813 1.98,1.896 1.832,1.978 1.69,2.029 1.557,2.05 1.423,2.07 1.341,2.081 1.31,2.081 l -2.713,0 z m -0.139,-9.803 c -0.308,0.041 -0.549,0.12 -0.724,0.239 -0.174,0.118 -0.337,0.303 -0.485,0.555 -0.149,0.251 -0.224,0.609 -0.224,1.071 l 0,6.812 c 0,0.134 0.023,0.293 0.07,0.479 0.046,0.184 0.131,0.359 0.254,0.523 0.123,0.164 0.285,0.304 0.485,0.416 0.201,0.113 0.455,0.17 0.763,0.17 l 2.713,0 C 1.454,2.543 1.624,2.518 1.819,2.466 2.014,2.414 2.201,2.319 2.381,2.181 2.561,2.042 2.712,1.857 2.836,1.626 2.959,1.395 3.021,1.104 3.021,0.755 l 0,-6.904 C 3.021,-6.283 2.998,-6.44 2.952,-6.62 2.905,-6.8 2.823,-6.972 2.705,-7.136 2.586,-7.301 2.425,-7.439 2.219,-7.553 2.014,-7.666 1.751,-7.722 1.433,-7.722 l -2.975,0 z"
             style="fill:#efbc00;fill-opacity:1;fill-rule:nonzero;stroke:none"
             id="path48378"
             inkscape:connector-curvature="0" /></g><g
           id="g48380"
           transform="translate(329.6504,176.5918)"><path
             d="M 0,0 0,7.86 C 0,8.221 -0.068,8.5 -0.207,8.701 -0.346,8.901 -0.5,9.048 -0.67,9.14 -0.839,9.232 -1.004,9.289 -1.163,9.31 -1.323,9.33 -1.417,9.341 -1.448,9.341 l -3.638,0 0,-9.341 1.757,0 0,7.722 0.709,0 c 0.216,0 0.386,-0.072 0.509,-0.216 0.113,-0.123 0.177,-0.257 0.193,-0.401 0.015,-0.143 0.022,-0.236 0.022,-0.277 L -1.896,0 0,0 z m -2.342,-0.462 0,7.306 c 0,0.03 -0.003,0.087 -0.008,0.169 -0.005,0.082 -0.033,0.149 -0.085,0.201 -0.021,0.01 -0.044,0.02 -0.069,0.03 C -2.53,7.254 -2.568,7.26 -2.62,7.26 l -0.246,0 0,-7.722 -2.682,0 0,10.265 4.1,0 c 0.02,0 0.125,-0.013 0.316,-0.038 0.19,-0.027 0.403,-0.096 0.64,-0.208 0.101,-0.052 0.21,-0.124 0.323,-0.216 C -0.057,9.248 0.047,9.135 0.139,9.001 0.231,8.867 0.309,8.706 0.37,8.516 0.432,8.325 0.463,8.107 0.463,7.86 l 0,-8.322 -2.805,0 z"
             style="fill:#efbc00;fill-opacity:1;fill-rule:nonzero;stroke:none"
             id="path48382"
             inkscape:connector-curvature="0" /></g><g
           id="g48384"
           transform="translate(330.0037,108.9166)"><path
             d="m 0,0 c 1.475,0 2.951,-0.008 4.426,0.008 0.253,0.002 0.297,-0.079 0.294,-0.3 -0.011,-0.725 -0.015,-1.45 0,-2.175 0.005,-0.244 -0.076,-0.29 -0.305,-0.288 -1.907,0.009 -3.815,0 -5.723,0.01 -0.221,10e-4 -0.318,-0.026 -0.329,-0.275 -0.011,-0.268 0.118,-0.28 0.323,-0.279 1.883,0.005 3.765,-0.004 5.647,0.01 0.296,0.002 0.402,-0.057 0.391,-0.373 C 4.699,-4.374 4.706,-5.087 4.721,-5.798 4.726,-6.046 4.66,-6.116 4.405,-6.114 c -1.908,0.011 -3.815,0.005 -5.723,0.003 -0.094,0 -0.217,0.073 -0.272,-0.054 -0.061,-0.144 0.05,-0.237 0.141,-0.325 0.162,-0.157 0.368,-0.151 0.573,-0.151 1.73,0.002 3.46,-0.007 5.189,0.009 0.319,0.003 0.419,-0.084 0.409,-0.404 C 4.7,-7.76 4.709,-8.486 4.718,-9.21 4.72,-9.402 4.676,-9.473 4.465,-9.472 c -1.564,0.01 -3.129,-0.023 -4.693,0.014 -2.347,0.056 -4.408,2.056 -4.5,4.401 -0.064,1.613 -0.017,3.23 -0.031,4.845 C -4.762,0.041 -4.619,0 -4.464,0 -2.976,-0.002 -1.488,-0.002 0,-0.002 L 0,0 z"
             style="fill:#efbc00;fill-opacity:1;fill-rule:nonzero;stroke:none"
             id="path48386"
             inkscape:connector-curvature="0" /></g><g
           id="g48388"
           transform="translate(341.5647,105.6234)"><path
             d="M 0,0 C 0.967,0 1.934,-0.007 2.9,0.005 3.145,0.008 3.24,-0.051 3.23,-0.312 3.201,-1.072 3.27,-1.831 3.088,-2.589 2.631,-4.496 0.798,-6.087 -1.18,-6.156 c -1.601,-0.055 -3.205,-0.011 -4.808,-0.022 -0.239,-0.002 -0.257,0.099 -0.253,0.3 0.013,0.725 0.022,1.45 -0.001,2.175 -0.009,0.291 0.073,0.365 0.359,0.363 1.704,-0.014 3.409,-0.006 5.113,-0.01 0.224,0 0.432,0.025 0.594,0.199 0.075,0.079 0.116,0.171 0.074,0.278 -0.046,0.118 -0.145,0.063 -0.229,0.062 -1.857,-0.003 -3.714,0.002 -5.571,-0.014 -0.3,-0.002 -0.355,0.09 -0.338,0.37 0.042,0.708 -0.034,1.419 0.138,2.124 0.503,2.067 2.351,3.58 4.498,3.615 C -0.078,3.309 1.449,3.288 2.975,3.3 3.192,3.302 3.23,3.219 3.229,3.033 3.221,2.296 3.212,1.557 3.23,0.82 3.237,0.562 3.132,0.539 2.918,0.54 c -1.87,0.006 -3.74,0.002 -5.61,0.001 -0.089,0 -0.18,0.009 -0.266,-0.006 C -3.173,0.497 -3.25,0.312 -3.257,0.143 -3.266,-0.074 -3.059,0.001 -2.938,0 -1.959,-0.006 -0.979,-0.003 0,-0.003 L 0,0 z"
             style="fill:#efbc00;fill-opacity:1;fill-rule:nonzero;stroke:none"
             id="path48390"
             inkscape:connector-curvature="0" /></g><g
           id="g48392"
           transform="translate(370.2188,103.7209)"><path
             d="M 0,0 C 0.356,0 0.712,-0.007 1.067,0.002 1.429,0.01 1.685,0.228 1.742,0.554 1.828,1.046 1.424,1.862 0.994,2.128 0.268,2.577 -0.526,2.458 -1.303,2.405 -1.609,2.385 -1.76,2.104 -1.767,1.791 -1.775,1.436 -1.775,1.08 -1.771,0.724 -1.764,0.254 -1.51,0.007 -1.029,0.001 -0.686,-0.003 -0.343,0 0,0 m -4.668,0.504 c 0.001,1.475 0.006,2.95 -0.005,4.425 -0.001,0.224 0.06,0.273 0.277,0.271 C -2.921,5.189 -1.446,5.199 0.029,5.191 2.75,5.176 4.834,3.037 4.799,0.312 4.789,-0.463 4.787,-1.239 4.802,-2.014 4.807,-2.229 4.769,-2.288 4.542,-2.287 c -1.818,0.012 -3.637,0.008 -5.455,0.009 -0.622,0 -0.848,-0.229 -0.86,-0.841 -0.007,-0.376 0.17,-0.891 -0.069,-1.09 -0.228,-0.19 -0.725,-0.061 -1.104,-0.064 -0.483,-0.003 -0.966,0.009 -1.449,-0.002 -0.212,-0.005 -0.281,0.054 -0.279,0.279 0.011,1.5 0.006,3 0.006,4.5"
             style="fill:#262626;fill-opacity:1;fill-rule:nonzero;stroke:none"
             id="path48394"
             inkscape:connector-curvature="0" /></g><g
           id="g48396"
           transform="translate(324.6414,104.181)"><path
             d="m 0,0 c 0,-1.45 -0.011,-2.9 0.008,-4.349 0.005,-0.328 -0.1,-0.397 -0.404,-0.388 -0.737,0.022 -1.476,0.018 -2.213,0.004 -0.227,-0.005 -0.3,0.037 -0.298,0.286 0.013,1.869 0.007,3.739 0.007,5.608 10e-4,0.607 -0.216,0.833 -0.826,0.821 C -4.342,1.969 -4.966,2.058 -5.55,1.728 -6.185,1.369 -6.392,0.798 -6.4,0.136 c -0.019,-1.5 -0.017,-3.001 -10e-4,-4.502 0.003,-0.306 -0.083,-0.381 -0.382,-0.372 -0.801,0.022 -1.602,0.011 -2.403,0.004 -0.201,-0.002 -0.287,0.032 -0.285,0.27 0.015,1.475 0.008,2.951 0.009,4.426 0,2.582 1.998,4.686 4.573,4.759 1.55,0.044 3.103,0.007 4.654,0.022 0.274,0.003 0.236,-0.155 0.236,-0.318 0,-1.475 0,-2.95 0,-4.425 L 0,0 z"
             style="fill:#efbc00;fill-opacity:1;fill-rule:nonzero;stroke:none"
             id="path48398"
             inkscape:connector-curvature="0" /></g><g
           id="g48400"
           transform="translate(358.2288,104.0337)"><path
             d="m 0,0 c -0.002,-1.1 0.878,-1.984 1.978,-1.989 1.092,-0.004 1.99,0.89 1.991,1.981 0,1.093 -0.886,1.983 -1.982,1.993 C 0.899,1.994 0.002,1.098 0,0 m -2.746,0.165 c 0.006,2.602 2.137,4.72 4.742,4.714 2.592,-0.006 4.726,-2.152 4.719,-4.745 -0.008,-2.588 -2.16,-4.726 -4.75,-4.72 -2.592,0.006 -4.717,2.149 -4.711,4.751"
             style="fill:#262626;fill-opacity:1;fill-rule:nonzero;stroke:none"
             id="path48402"
             inkscape:connector-curvature="0" /></g><g
           id="g48404"
           transform="translate(348.0771,108.9126)"><path
             d="M 0,0 C 0.699,0 1.399,0.007 2.098,-0.001 4.741,-0.034 6.828,-2.198 6.794,-4.843 6.776,-6.28 6.785,-7.717 6.797,-9.153 6.8,-9.409 6.723,-9.471 6.477,-9.467 5.663,-9.452 4.849,-9.456 4.035,-9.466 3.821,-9.469 3.727,-9.441 3.73,-9.181 c 0.016,1.5 0.01,3.001 0.01,4.501 0,1.208 -0.706,1.926 -1.911,1.93 -1.386,0.006 -2.772,0.01 -4.157,-0.002 -0.281,-0.003 -0.367,0.058 -0.355,0.356 0.028,0.698 0.024,1.399 10e-4,2.098 -0.009,0.266 0.071,0.312 0.317,0.306 C -1.577,-0.009 -0.788,0.002 0,0.002 L 0,0 z"
             style="fill:#262626;fill-opacity:1;fill-rule:nonzero;stroke:none"
             id="path48406"
             inkscape:connector-curvature="0" /></g><g
           id="g48408"
           transform="translate(385.7294,103.7213)"><path
             d="M 0,0 C 0.381,0 0.763,-0.008 1.144,0.002 1.499,0.013 1.752,0.242 1.802,0.573 1.878,1.086 1.482,1.862 1.034,2.137 0.318,2.576 -0.465,2.454 -1.229,2.409 -1.552,2.39 -1.709,2.1 -1.715,1.771 -1.722,1.416 -1.724,1.06 -1.716,0.704 -1.705,0.258 -1.446,0.009 -0.991,0.001 -0.661,-0.004 -0.33,0 0,0 m -4.607,0.463 c 0,1.487 0.007,2.975 -0.006,4.462 -0.002,0.225 0.054,0.275 0.271,0.274 1.5,-0.01 3.001,0.006 4.501,-0.01 C 2.807,5.16 4.89,3.001 4.859,0.354 4.842,-1.07 4.849,-2.494 4.862,-3.918 4.865,-4.199 4.795,-4.288 4.503,-4.279 c -0.762,0.022 -1.526,0.02 -2.288,0 -0.316,-0.008 -0.472,0.045 -0.422,0.412 0.041,0.3 0.018,0.61 0.008,0.914 -0.014,0.405 -0.27,0.667 -0.677,0.673 -0.725,0.011 -1.45,0.012 -2.174,-0.001 -0.397,-0.007 -0.655,-0.284 -0.665,-0.687 -0.009,-0.356 -0.008,-0.713 0.004,-1.068 0.006,-0.169 -0.014,-0.247 -0.22,-0.243 -0.801,0.015 -1.602,0.011 -2.403,0.004 -0.204,-0.002 -0.283,0.044 -0.281,0.276 0.013,1.487 0.007,2.975 0.007,4.462 l 10e-4,0 z"
             style="fill:#262626;fill-opacity:1;fill-rule:nonzero;stroke:none"
             id="path48410"
             inkscape:connector-curvature="0" /></g><g
           id="g48412"
           transform="translate(379.5981,108.6436)"><path
             d="m 0,0 c 0,-0.471 0,-0.873 0,-1.275 -0.001,-2.518 -0.008,-5.037 0.005,-7.555 0.002,-0.314 -0.09,-0.378 -0.383,-0.37 -0.801,0.02 -1.602,0.012 -2.403,0.003 -0.209,-0.003 -0.284,0.047 -0.282,0.276 0.013,1.539 -0.024,3.078 0.018,4.616 0.048,1.773 0.944,3.063 2.43,3.973 C -0.442,-0.227 -0.259,-0.139 0,0"
             style="fill:#262626;fill-opacity:1;fill-rule:nonzero;stroke:none"
             id="path48414"
             inkscape:connector-curvature="0" /></g><g
           id="g48416"
           transform="translate(367.1485,139.8086)"><path
             d="m 0,0 0,-1.16 -3.598,0 0,-2.865 3.463,0 0,-1.155 -3.463,0 0,-4.054 -1.242,0 L -4.84,0 0,0 z"
             style="fill:#000000;fill-opacity:1;fill-rule:nonzero;stroke:none"
             id="path48418"
             inkscape:connector-curvature="0" /></g><g
           id="g48420"
           transform="translate(376.1602,131.9922)"><path
             d="m 0,0 c -0.957,-1.055 -2.141,-1.582 -3.551,-1.582 -0.847,0 -1.644,0.213 -2.39,0.639 -0.758,0.433 -1.345,1.015 -1.761,1.746 -0.416,0.73 -0.624,1.523 -0.624,2.379 0,0.863 0.211,1.66 0.633,2.39 0.422,0.731 1.006,1.303 1.752,1.717 0.761,0.422 1.556,0.633 2.384,0.633 0.879,0 1.703,-0.219 2.473,-0.656 0.809,-0.461 1.434,-1.164 1.875,-2.11 l -1.359,0 c -0.27,0.367 -0.508,0.639 -0.715,0.815 -0.61,0.535 -1.34,0.802 -2.192,0.802 C -4.135,6.773 -4.743,6.61 -5.3,6.284 -5.856,5.958 -6.292,5.508 -6.606,4.934 -6.921,4.359 -7.078,3.77 -7.078,3.164 c 0,-0.973 0.351,-1.812 1.055,-2.519 0.703,-0.707 1.541,-1.061 2.513,-1.061 0.817,0 1.557,0.277 2.221,0.832 0.227,0.191 0.486,0.48 0.779,0.867 l 0.082,-0.058 1.26,0 C 0.496,0.646 0.219,0.238 0,0"
             style="fill:#000000;fill-opacity:1;fill-rule:nonzero;stroke:none"
             id="path48422"
             inkscape:connector-curvature="0" /></g><g
           id="g48424"
           transform="translate(383.0919,139.8086)"><path
             d="m 0,0 0,-1.16 -3.967,0 0,-2.836 3.838,0 0,-1.16 -3.838,0 0,-2.924 3.967,0 0,-1.154 -5.209,0 0,9.234 L 0,0 z"
             style="fill:#000000;fill-opacity:1;fill-rule:nonzero;stroke:none"
             id="path48426"
             inkscape:connector-curvature="0" /></g><g
           id="g48428"
           transform="translate(385.6114,134.125)"><path
             d="m 0,0 c 0,-1.676 0.665,-2.514 1.995,-2.514 0.597,0 1.065,0.202 1.404,0.607 0.339,0.404 0.509,1.032 0.509,1.884 l 0,5.712 1.237,0 0,-5.712 c 0,-1.344 -0.381,-2.332 -1.143,-2.965 -0.566,-0.473 -1.25,-0.709 -2.051,-0.709 -0.582,0 -1.127,0.142 -1.635,0.427 -0.535,0.297 -0.929,0.702 -1.183,1.213 -0.235,0.473 -0.354,1.149 -0.358,2.028 L -1.248,5.713 0,5.713 0,0 z"
             style="fill:#000000;fill-opacity:1;fill-rule:nonzero;stroke:none"
             id="path48430"
             inkscape:connector-curvature="0" /></g><g
           id="g48432"
           transform="translate(374.7227,119.5049)"><path
             d="M 0,0 0,7.271 -4.928,0 l -1.347,0 0,7.287 -4.969,-7.287 -1.483,0 6.305,9.234 1.389,0 0,-7.239 4.905,7.239 1.364,0 L 1.236,0 0,0 z"
             style="fill:#efbc00;fill-opacity:1;fill-rule:nonzero;stroke:none"
             id="path48434"
             inkscape:connector-curvature="0" /></g><g
           id="g48436"
           transform="translate(377.1056,119.5049)"><path
             d="m 0,0 0,9.234 1.364,0 4.906,-7.239 0,7.239 1.388,0 L 13.963,0 12.48,0 7.512,7.287 7.512,0 6.164,0 1.236,7.271 1.236,0 0,0 z"
             style="fill:#efbc00;fill-opacity:1;fill-rule:nonzero;stroke:none"
             id="path48438"
             inkscape:connector-curvature="0" /></g></g></g></g></svg>