<?xml version="1.0" encoding="UTF-8" standalone="no"?>
<!-- Created with Inkscape (http://www.inkscape.org/) -->

<svg
   xmlns:dc="http://purl.org/dc/elements/1.1/"
   xmlns:cc="http://creativecommons.org/ns#"
   xmlns:rdf="http://www.w3.org/1999/02/22-rdf-syntax-ns#"
   xmlns:svg="http://www.w3.org/2000/svg"
   xmlns="http://www.w3.org/2000/svg"
   xmlns:sodipodi="http://sodipodi.sourceforge.net/DTD/sodipodi-0.dtd"
   xmlns:inkscape="http://www.inkscape.org/namespaces/inkscape"
   id="svg52933"
   version="1.1"
   inkscape:version="0.48.5 r10040"
   width="256"
   height="256"
   xml:space="preserve"
   sodipodi:docname="Nintendo - Nintendo Entertainment System-content.svg"
   inkscape:export-filename="/Users/margetts/Desktop/BAXY RetroActive/png_marked/Nintendo - Nintendo Entertainment System-content.png"
   inkscape:export-xdpi="90.099998"
   inkscape:export-ydpi="90.099998"><metadata
     id="metadata52939"><rdf:RDF><cc:Work
         rdf:about=""><dc:format>image/svg+xml</dc:format><dc:type
           rdf:resource="http://purl.org/dc/dcmitype/StillImage" /><dc:title></dc:title></cc:Work></rdf:RDF></metadata><defs
     id="defs52937"><clipPath
       clipPathUnits="userSpaceOnUse"
       id="clipPath52947"><path
         d="M 0,512 512,512 512,0 0,0 0,512 z"
         id="path52949"
         inkscape:connector-curvature="0" /></clipPath></defs><sodipodi:namedview
     pagecolor="#ffffff"
     bordercolor="#666666"
     borderopacity="1"
     objecttolerance="10"
     gridtolerance="10"
     guidetolerance="10"
     inkscape:pageopacity="0"
     inkscape:pageshadow="2"
     inkscape:window-width="1676"
     inkscape:window-height="1005"
     id="namedview52935"
     showgrid="false"
     inkscape:zoom="1.2609375"
     inkscape:cx="220.47088"
     inkscape:cy="320"
     inkscape:window-x="4"
     inkscape:window-y="1"
     inkscape:window-maximized="1"
     inkscape:current-layer="g52941" /><g
     id="g52941"
     inkscape:groupmode="layer"
     inkscape:label="Nintendo - Nintendo Entertainment System-content"
     transform="matrix(1.25,0,0,-1.25,0,256)"><g
       id="g53420"><g
         transform="matrix(0.4,0,0,0.4,1.57456,0)"
         id="g52943"><g
           clip-path="url(#clipPath52947)"
           id="g52945"><g
             transform="translate(460.7521,512)"
             id="g52951"><path
               inkscape:connector-curvature="0"
               id="path52953"
               style="fill:#ffffff;fill-opacity:1;fill-rule:nonzero;stroke:none"
               d="m 0,0 -417.376,0 c -11.615,0 -21.064,-9.449 -21.064,-21.063 l 0,-382.814 c 0,-10.666 7.968,-19.505 18.265,-20.878 l 0,-66.182 c 0,-11.614 9.449,-21.063 21.063,-21.063 l 370.024,0 c 11.615,0 21.064,9.449 21.064,21.063 l 0,65.997 8.024,0 c 11.614,0 21.063,9.449 21.063,21.063 l 0,382.814 C 21.063,-9.449 11.614,0 0,0" /></g><g
             transform="translate(467.5755,501.76)"
             id="g52955"><path
               inkscape:connector-curvature="0"
               id="path52957"
               style="fill:#808080;fill-opacity:1;fill-rule:nonzero;stroke:none"
               d="m 0,0 -431.023,0 c -2.209,0 -4,-1.791 -4,-4 l 0,-396.46 c 0,-2.209 1.791,-4 4,-4 l 10.264,0 c 2.21,0 4,-1.791 4,-4 l 0,-79.06 c 0,-2.209 1.791,-4 4,-4 l 383.671,0 c 2.209,0 4,1.791 4,4 l 0,79.06 c 0,2.209 1.791,4 4,4 l 21.088,0 c 2.209,0 4,1.791 4,4 L 4,-4 C 4,-1.791 2.209,0 0,0" /></g><path
             inkscape:connector-curvature="0"
             id="path52959"
             style="fill:#737373;fill-opacity:1;fill-rule:nonzero;stroke:none"
             d="m 194.903,416.928 -96.057,0 0,10.147 96.057,0 0,-10.147 z" /><path
             inkscape:connector-curvature="0"
             id="path52961"
             style="fill:#666666;fill-opacity:1;fill-rule:nonzero;stroke:none"
             d="m 194.903,406.781 -96.057,0 0,10.147 96.057,0 0,-10.147 z" /><path
             inkscape:connector-curvature="0"
             id="path52963"
             style="fill:#666666;fill-opacity:1;fill-rule:nonzero;stroke:none"
             d="m 194.903,437.221 -96.057,0 0,10.147 96.057,0 0,-10.147 z" /><path
             inkscape:connector-curvature="0"
             id="path52965"
             style="fill:#4c4c4c;fill-opacity:1;fill-rule:nonzero;stroke:none"
             d="m 194.903,427.075 -96.057,0 0,10.147 96.057,0 0,-10.147 z" /><path
             inkscape:connector-curvature="0"
             id="path52967"
             style="fill:#666666;fill-opacity:1;fill-rule:nonzero;stroke:none"
             d="m 194.903,457.515 -96.057,0 0,10.147 96.057,0 0,-10.147 z" /><path
             inkscape:connector-curvature="0"
             id="path52969"
             style="fill:#666666;fill-opacity:1;fill-rule:nonzero;stroke:none"
             d="m 194.903,497.395 -96.057,0 0,4.365 96.057,0 0,-4.365 z" /><path
             inkscape:connector-curvature="0"
             id="path52971"
             style="fill:#4c4c4c;fill-opacity:1;fill-rule:nonzero;stroke:none"
             d="m 194.903,447.368 -96.057,0 0,10.147 96.057,0 0,-10.147 z" /><path
             inkscape:connector-curvature="0"
             id="path52973"
             style="fill:#666666;fill-opacity:1;fill-rule:nonzero;stroke:none"
             d="m 194.903,477.809 -96.057,0 0,10.147 96.057,0 0,-10.147 z" /><path
             inkscape:connector-curvature="0"
             id="path52975"
             style="fill:#4c4c4c;fill-opacity:1;fill-rule:nonzero;stroke:none"
             d="m 194.903,467.662 -96.057,0 0,10.147 96.057,0 0,-10.147 z" /><path
             inkscape:connector-curvature="0"
             id="path52977"
             style="fill:#4c4c4c;fill-opacity:1;fill-rule:nonzero;stroke:none"
             d="m 194.903,487.956 -96.057,0 0,10.147 96.057,0 0,-10.147 z" /><path
             inkscape:connector-curvature="0"
             id="path52979"
             style="fill:#737373;fill-opacity:1;fill-rule:nonzero;stroke:none"
             d="m 194.903,396.634 -96.057,0 0,10.147 96.057,0 0,-10.147 z" /><path
             inkscape:connector-curvature="0"
             id="path52981"
             style="fill:#666666;fill-opacity:1;fill-rule:nonzero;stroke:none"
             d="m 194.903,386.487 -96.057,0 0,10.147 96.057,0 0,-10.147 z" /><path
             inkscape:connector-curvature="0"
             id="path52983"
             style="fill:#737373;fill-opacity:1;fill-rule:nonzero;stroke:none"
             d="m 194.903,376.34 -96.057,0 0,10.147 96.057,0 0,-10.147 z" /><path
             inkscape:connector-curvature="0"
             id="path52985"
             style="fill:#666666;fill-opacity:1;fill-rule:nonzero;stroke:none"
             d="m 194.903,366.193 -96.057,0 0,10.147 96.057,0 0,-10.147 z" /><path
             inkscape:connector-curvature="0"
             id="path52987"
             style="fill:#737373;fill-opacity:1;fill-rule:nonzero;stroke:none"
             d="m 194.903,356.046 -96.057,0 0,10.147 96.057,0 0,-10.147 z" /><path
             inkscape:connector-curvature="0"
             id="path52989"
             style="fill:#666666;fill-opacity:1;fill-rule:nonzero;stroke:none"
             d="m 194.903,345.899 -96.057,0 0,10.147 96.057,0 0,-10.147 z" /><path
             inkscape:connector-curvature="0"
             id="path52991"
             style="fill:#737373;fill-opacity:1;fill-rule:nonzero;stroke:none"
             d="m 194.903,335.752 -96.057,0 0,10.147 96.057,0 0,-10.147 z" /><path
             inkscape:connector-curvature="0"
             id="path52993"
             style="fill:#666666;fill-opacity:1;fill-rule:nonzero;stroke:none"
             d="m 194.903,325.605 -96.057,0 0,10.147 96.057,0 0,-10.147 z" /><path
             inkscape:connector-curvature="0"
             id="path52995"
             style="fill:#737373;fill-opacity:1;fill-rule:nonzero;stroke:none"
             d="m 194.903,315.459 -96.057,0 0,10.147 96.057,0 0,-10.147 z" /><path
             inkscape:connector-curvature="0"
             id="path52997"
             style="fill:#666666;fill-opacity:1;fill-rule:nonzero;stroke:none"
             d="m 194.903,305.312 -96.057,0 0,10.147 96.057,0 0,-10.147 z" /><path
             inkscape:connector-curvature="0"
             id="path52999"
             style="fill:#737373;fill-opacity:1;fill-rule:nonzero;stroke:none"
             d="m 194.903,295.165 -96.057,0 0,10.147 96.057,0 0,-10.147 z" /><path
             inkscape:connector-curvature="0"
             id="path53001"
             style="fill:#666666;fill-opacity:1;fill-rule:nonzero;stroke:none"
             d="m 194.903,285.018 -96.057,0 0,10.147 96.057,0 0,-10.147 z" /><path
             inkscape:connector-curvature="0"
             id="path53003"
             style="fill:#737373;fill-opacity:1;fill-rule:nonzero;stroke:none"
             d="m 194.903,274.871 -96.057,0 0,10.147 96.057,0 0,-10.147 z" /><path
             inkscape:connector-curvature="0"
             id="path53005"
             style="fill:#666666;fill-opacity:1;fill-rule:nonzero;stroke:none"
             d="m 194.903,264.724 -96.057,0 0,10.147 96.057,0 0,-10.147 z" /><path
             inkscape:connector-curvature="0"
             id="path53007"
             style="fill:#737373;fill-opacity:1;fill-rule:nonzero;stroke:none"
             d="m 194.903,254.577 -96.057,0 0,10.147 96.057,0 0,-10.147 z" /><path
             inkscape:connector-curvature="0"
             id="path53009"
             style="fill:#666666;fill-opacity:1;fill-rule:nonzero;stroke:none"
             d="m 194.903,244.43 -96.057,0 0,10.147 96.057,0 0,-10.147 z" /><path
             inkscape:connector-curvature="0"
             id="path53011"
             style="fill:#737373;fill-opacity:1;fill-rule:nonzero;stroke:none"
             d="m 194.903,234.283 -96.057,0 0,10.147 96.057,0 0,-10.147 z" /><path
             inkscape:connector-curvature="0"
             id="path53013"
             style="fill:#666666;fill-opacity:1;fill-rule:nonzero;stroke:none"
             d="m 194.903,224.136 -96.057,0 0,10.147 96.057,0 0,-10.147 z" /><path
             inkscape:connector-curvature="0"
             id="path53015"
             style="fill:#737373;fill-opacity:1;fill-rule:nonzero;stroke:none"
             d="m 194.903,213.989 -96.057,0 0,10.147 96.057,0 0,-10.147 z" /><path
             inkscape:connector-curvature="0"
             id="path53017"
             style="fill:#666666;fill-opacity:1;fill-rule:nonzero;stroke:none"
             d="m 194.903,203.843 -96.057,0 0,10.147 96.057,0 0,-10.147 z" /><path
             inkscape:connector-curvature="0"
             id="path53019"
             style="fill:#737373;fill-opacity:1;fill-rule:nonzero;stroke:none"
             d="m 194.903,193.696 -96.057,0 0,10.147 96.057,0 0,-10.147 z" /><path
             inkscape:connector-curvature="0"
             id="path53021"
             style="fill:#666666;fill-opacity:1;fill-rule:nonzero;stroke:none"
             d="m 194.903,183.549 -96.057,0 0,10.147 96.057,0 0,-10.147 z" /><path
             inkscape:connector-curvature="0"
             id="path53023"
             style="fill:#737373;fill-opacity:1;fill-rule:nonzero;stroke:none"
             d="m 194.903,173.402 -96.057,0 0,10.147 96.057,0 0,-10.147 z" /><path
             inkscape:connector-curvature="0"
             id="path53025"
             style="fill:#666666;fill-opacity:1;fill-rule:nonzero;stroke:none"
             d="m 194.903,163.255 -96.057,0 0,10.147 96.057,0 0,-10.147 z" /><path
             inkscape:connector-curvature="0"
             id="path53027"
             style="fill:#737373;fill-opacity:1;fill-rule:nonzero;stroke:none"
             d="m 194.903,153.108 -96.057,0 0,10.147 96.057,0 0,-10.147 z" /><path
             inkscape:connector-curvature="0"
             id="path53029"
             style="fill:#666666;fill-opacity:1;fill-rule:nonzero;stroke:none"
             d="m 194.903,142.961 -96.057,0 0,10.147 96.057,0 0,-10.147 z" /><path
             inkscape:connector-curvature="0"
             id="path53031"
             style="fill:#737373;fill-opacity:1;fill-rule:nonzero;stroke:none"
             d="m 194.903,132.814 -96.057,0 0,10.147 96.057,0 0,-10.147 z" /><path
             inkscape:connector-curvature="0"
             id="path53033"
             style="fill:#666666;fill-opacity:1;fill-rule:nonzero;stroke:none"
             d="m 194.903,122.667 -96.057,0 0,10.147 96.057,0 0,-10.147 z" /><path
             inkscape:connector-curvature="0"
             id="path53035"
             style="fill:#737373;fill-opacity:1;fill-rule:nonzero;stroke:none"
             d="m 194.903,112.52 -96.057,0 0,10.147 96.057,0 0,-10.147 z" /><path
             inkscape:connector-curvature="0"
             id="path53037"
             style="fill:#666666;fill-opacity:1;fill-rule:nonzero;stroke:none"
             d="m 194.903,102.373 -96.057,0 0,10.147 96.057,0 0,-10.147 z" /><path
             inkscape:connector-curvature="0"
             id="path53039"
             style="fill:#737373;fill-opacity:1;fill-rule:nonzero;stroke:none"
             d="m 194.903,92.227 -96.057,0 0,10.147 96.057,0 0,-10.147 z" /><path
             inkscape:connector-curvature="0"
             id="path53041"
             style="fill:#666666;fill-opacity:1;fill-rule:nonzero;stroke:none"
             d="m 194.903,82.08 -96.057,0 0,10.147 96.057,0 0,-10.147 z" /><path
             inkscape:connector-curvature="0"
             id="path53043"
             style="fill:#737373;fill-opacity:1;fill-rule:nonzero;stroke:none"
             d="m 194.903,71.933 -96.057,0 0,10.147 96.057,0 0,-10.147 z" /><path
             inkscape:connector-curvature="0"
             id="path53045"
             style="fill:#666666;fill-opacity:1;fill-rule:nonzero;stroke:none"
             d="m 194.903,61.786 -96.057,0 0,10.147 96.057,0 0,-10.147 z" /><path
             inkscape:connector-curvature="0"
             id="path53047"
             style="fill:#737373;fill-opacity:1;fill-rule:nonzero;stroke:none"
             d="m 194.903,10.24 -96.057,0 0,51.546 96.057,0 0,-51.546 z" /><g
             transform="translate(411.0469,168.3283)"
             id="g53049"><path
               inkscape:connector-curvature="0"
               id="path53051"
               style="fill:#737373;fill-opacity:1;fill-rule:nonzero;stroke:none"
               d="m 0,0 -203.644,0 c -0.552,0 -1,0.448 -1,1 l 0,332.432 L 1,333.432 1,1 C 1,0.448 0.552,0 0,0" /></g><g
             transform="translate(408.1656,173.4018)"
             id="g53053"><path
               inkscape:connector-curvature="0"
               id="path53055"
               style="fill:#191919;fill-opacity:1;fill-rule:nonzero;stroke:none"
               d="m 0,0 -197.881,0 c -0.553,0 -1,0.448 -1,1 l 0,327.358 L 1,328.358 1,1 C 1,0.448 0.552,0 0,0" /></g><path
             inkscape:connector-curvature="0"
             id="path53057"
             style="fill:#666666;fill-opacity:1;fill-rule:nonzero;stroke:none"
             d="m 457.595,493.029 -23.451,0 0,8.731 23.451,0 0,-8.731 z" /><path
             inkscape:connector-curvature="0"
             id="path53059"
             style="fill:#666666;fill-opacity:1;fill-rule:nonzero;stroke:none"
             d="m 75.17,493.029 -23.451,0 0,8.731 23.451,0 0,-8.731 z" /><g
             transform="translate(247.0794,100.8454)"
             id="g53061"><path
               inkscape:connector-curvature="0"
               id="path53063"
               style="fill:#737373;fill-opacity:1;fill-rule:nonzero;stroke:none"
               d="m 0,0 -20.544,35.584 41.088,0 L 0,0 z" /></g><g
             transform="translate(220.8198,487.956)"
             id="g53065"><path
               inkscape:connector-curvature="0"
               id="path53067"
               style="fill:#4b91d0;fill-opacity:1;fill-rule:nonzero;stroke:none"
               d="m 0,0 c 0,0 -0.43,-169.803 0,-168.833 0.43,0.971 175.874,36.822 175.874,36.822 L 175.874,0 0,0 z" /></g><g
             transform="translate(291.5475,300.3187)"
             id="g53069"><path
               inkscape:connector-curvature="0"
               id="path53071"
               style="fill:#ed1c24;fill-opacity:1;fill-rule:nonzero;stroke:none"
               d="m 0,0 -57.706,-11.834 c -4.87,-1.018 -8.502,1.647 -9.325,5.659 -0.823,4.014 1.49,7.869 6.344,8.874 L -2.98,14.533 C 1.877,15.52 5.52,12.886 6.344,8.872 7.166,4.86 4.878,0.981 0,0 M -3.439,16.908 -61.202,5.062 c -6.114,-1.239 -9.32,-6.476 -8.239,-11.746 1.08,-5.267 6.069,-8.771 12.199,-7.517 L 0.505,-2.358 c 6.129,1.259 9.336,6.444 8.256,11.712 -1.081,5.27 -6.089,8.822 -12.2,7.554" /></g><g
             transform="translate(269.5459,307.1266)"
             id="g53073"><path
               inkscape:connector-curvature="0"
               id="path53075"
               style="fill:#ed1c24;fill-opacity:1;fill-rule:nonzero;stroke:none"
               d="M 0,0 2.729,0.56 2.979,-0.66 4.454,-0.357 4.638,-1.256 3.163,-1.558 4.4,-7.577 1.666,-8.137 0.434,-2.118 -1.048,-2.422 -1.232,-1.526 0.253,-1.221 0,0 z" /></g><g
             transform="translate(238.0131,298.4647)"
             id="g53077"><path
               inkscape:connector-curvature="0"
               id="path53079"
               style="fill:#ed1c24;fill-opacity:1;fill-rule:nonzero;stroke:none"
               d="M 0,0 2.727,0.559 3.963,-5.471 1.237,-6.03 0,0 z" /></g><g
             transform="translate(237.3826,301.5044)"
             id="g53081"><path
               inkscape:connector-curvature="0"
               id="path53083"
               style="fill:#ed1c24;fill-opacity:1;fill-rule:nonzero;stroke:none"
               d="M 0,0 2.733,0.561 3.113,-1.293 0.38,-1.853 0,0 z" /></g><g
             transform="translate(288.7083,305.9844)"
             id="g53085"><path
               inkscape:connector-curvature="0"
               id="path53087"
               style="fill:#ed1c24;fill-opacity:1;fill-rule:nonzero;stroke:none"
               d="m 0,0 c 0,0 0,0 0,0 0.004,-0.018 0.185,-0.914 0.259,-1.274 0.197,-0.962 -0.29,-1.475 -0.837,-1.587 -0.545,-0.112 -1.197,0.167 -1.394,1.129 -0.075,0.364 -0.266,1.299 -0.266,1.299 0,0 -0.181,0.894 -0.256,1.258 -0.196,0.958 0.293,1.468 0.836,1.58 C -1.113,2.516 -0.462,2.24 -0.265,1.283 -0.191,0.918 -0.052,0.243 0,0.001 L 0,0.002 0,0 z M -1.788,3.156 C -3.99,2.704 -5.464,0.822 -5.081,-1.047 c 0.384,-1.871 2.48,-3.021 4.681,-2.569 2.202,0.451 3.674,2.333 3.29,4.204 -0.383,1.869 -2.477,3.019 -4.678,2.568" /></g><g
             transform="translate(245.4285,298.0172)"
             id="g53089"><path
               inkscape:connector-curvature="0"
               id="path53091"
               style="fill:#ed1c24;fill-opacity:1;fill-rule:nonzero;stroke:none"
               d="M 0,0 C -0.192,0.935 0.405,1.304 0.828,1.391 1.262,1.48 1.947,1.373 2.138,0.439 2.201,0.131 2.356,-0.634 2.356,-0.634 c 0,0 0.157,-0.754 0.223,-1.075 0.19,-0.93 -0.395,-1.305 -0.828,-1.393 -0.425,-0.087 -1.12,0.025 -1.311,0.955 -0.079,0.389 -0.219,1.07 -0.219,1.07 0,0 -0.156,0.758 -0.221,1.077 m -3.687,4.398 1.86,-9.069 2.697,0.553 c 0,0 -0.058,0.295 -0.069,0.349 1.177,-0.44 2.354,-0.196 3.185,0.418 0.221,0.165 1.682,1.274 1.251,3.373 C 4.911,1.613 3.051,3.045 1.123,2.468 0.488,2.279 0.074,1.949 -0.31,1.613 -0.596,3.009 -0.994,4.951 -0.994,4.951 L -3.687,4.398 z" /></g><g
             transform="translate(263.5624,302.9968)"
             id="g53093"><path
               inkscape:connector-curvature="0"
               id="path53095"
               style="fill:#ed1c24;fill-opacity:1;fill-rule:nonzero;stroke:none"
               d="m 0,0 c 0.136,0.414 0.491,0.673 0.846,0.746 l -0.002,0 L 0.847,0.747 0.846,0.746 C 1.203,0.819 1.63,0.721 1.919,0.394 2.152,0.128 2.234,-0.223 2.338,-0.754 L 0.062,-1.221 C -0.051,-0.692 -0.113,-0.337 0,0 m 2.779,-2.939 c 0.226,-1.104 -0.45,-1.497 -0.853,-1.58 -0.402,-0.082 -1.19,0.011 -1.417,1.115 -0.067,0.33 -0.252,1.245 -0.252,1.245 0,0 5.136,1.051 5.136,1.053 C 5.009,0.766 2.886,1.945 0.668,1.49 -1.549,1.036 -3.037,-0.849 -2.654,-2.72 c 0.384,-1.87 2.494,-3.017 4.711,-2.562 1.84,0.377 3.179,1.746 3.362,3.267 l -2.717,-0.56 c 0,0 0.007,-0.024 0.077,-0.364" /></g><g
             transform="translate(234.5496,292.4044)"
             id="g53097"><path
               inkscape:connector-curvature="0"
               id="path53099"
               style="fill:#ed1c24;fill-opacity:1;fill-rule:nonzero;stroke:none"
               d="M 0,0 -1.685,8.216 -4.416,7.655 -2.731,-0.56 -2.547,-1.456 0.184,-0.896 3.139,-0.29 2.955,0.606 0,0 z" /></g><g
             transform="translate(280.3541,304.8478)"
             id="g53101"><path
               inkscape:connector-curvature="0"
               id="path53103"
               style="fill:#ed1c24;fill-opacity:1;fill-rule:nonzero;stroke:none"
               d="M 0,0 2.672,0.548 C 1.998,2.439 0.059,2.628 -0.874,2.411 -1.769,2.199 -2.441,1.658 -2.861,1.053 -2.894,1.202 -2.992,1.689 -2.992,1.689 l -2.706,-0.557 1.235,-6.031 2.708,0.555 c 0,0 -0.762,3.704 -0.814,3.96 -0.108,0.525 0.324,1.224 1.066,1.376 0.743,0.152 1.367,-0.33 1.475,-0.855 C -0.022,0.109 -0.012,0.061 0,0" /></g><g
             transform="translate(254.3627,301.8105)"
             id="g53105"><path
               inkscape:connector-curvature="0"
               id="path53107"
               style="fill:#ed1c24;fill-opacity:1;fill-rule:nonzero;stroke:none"
               d="M 0,0 C 0,0 -0.14,0.681 -0.219,1.07 -0.41,2 0.185,2.377 0.61,2.464 1.042,2.553 1.728,2.439 1.919,1.509 1.985,1.187 2.137,0.434 2.137,0.434 c 0,0 0.159,-0.765 0.222,-1.073 C 2.551,-1.573 1.964,-1.941 1.529,-2.03 1.106,-2.117 0.413,-2.012 0.221,-1.077 0.155,-0.758 0,0 0,0 M 5.044,0.964 C 4.613,3.063 2.834,3.507 2.566,3.573 1.56,3.81 0.383,3.571 -0.526,2.703 -0.537,2.757 -0.6,3.051 -0.6,3.051 l -2.697,-0.553 1.86,-9.069 2.693,0.552 c 0,0 -0.399,1.941 -0.685,3.337 0.013,-0.004 0.026,-0.008 0.039,-0.012 l 2.792,-2.885 2.672,0.548 -2.52,2.604 c 1.151,0.747 1.735,2.197 1.49,3.391" /></g><g
             transform="translate(308.8274,322.0534)"
             id="g53109"><path
               inkscape:connector-curvature="0"
               id="path53111"
               style="fill:#fcc400;fill-opacity:1;fill-rule:nonzero;stroke:none"
               d="M 0,0 7.898,1.645 7.826,-0.228 2.137,-1.414 2.05,-3.707 7.255,-2.622 7.184,-4.466 1.979,-5.55 1.873,-8.323 7.835,-7.081 7.759,-9.075 -0.411,-10.777 0,0 z" /></g><g
             transform="translate(318.7081,324.1118)"
             id="g53113"><path
               inkscape:connector-curvature="0"
               id="path53115"
               style="fill:#fcc400;fill-opacity:1;fill-rule:nonzero;stroke:none"
               d="M 0,0 3.313,0.69 5.164,-7.058 7.61,1.585 10.939,2.279 10.527,-8.498 8.424,-8.936 8.756,-0.243 6.215,-9.396 3.931,-9.872 2.024,-1.645 1.692,-10.339 -0.411,-10.777 0,0 z" /></g><g
             transform="translate(334.0976,327.3472)"
             id="g53117"><path
               inkscape:connector-curvature="0"
               id="path53119"
               style="fill:#fcc400;fill-opacity:1;fill-rule:nonzero;stroke:none"
               d="m 0,0 -0.258,-6.76 c -0.062,-1.619 0.513,-2.272 2.012,-1.96 1.513,0.315 2.147,1.206 2.209,2.84 L 4.221,0.879 6.46,1.346 6.193,-5.653 c -0.102,-2.668 -1.715,-4.432 -4.499,-5.012 -2.814,-0.586 -4.318,0.528 -4.216,3.196 L -2.255,-0.47 0,0 z" /></g><g
             transform="translate(342.7516,329.1205)"
             id="g53121"><path
               inkscape:connector-curvature="0"
               id="path53123"
               style="fill:#fcc400;fill-opacity:1;fill-rule:nonzero;stroke:none"
               d="M 0,0 2.239,0.466 1.904,-8.317 7.215,-7.21 7.138,-9.204 -0.411,-10.777 0,0 z" /></g><g
             transform="translate(353.812,324.7331)"
             id="g53125"><path
               inkscape:connector-curvature="0"
               id="path53127"
               style="fill:#fcc400;fill-opacity:1;fill-rule:nonzero;stroke:none"
               d="M 0,0 3.026,0.63 1.688,4.902 0,0 z m 3.056,7.328 3.509,-9.96 -2.346,-0.489 -0.657,2.064 -4.221,-0.88 -0.796,-2.366 -2.361,-0.492 4.285,11.584 2.587,0.539 z" /></g><g
             transform="translate(363.5262,331.545)"
             id="g53129"><path
               inkscape:connector-curvature="0"
               id="path53131"
               style="fill:#fcc400;fill-opacity:1;fill-rule:nonzero;stroke:none"
               d="M 0,0 -3.222,-0.671 -3.149,1.247 5.521,3.053 5.448,1.135 2.239,0.466 1.901,-8.392 -0.338,-8.858 0,0 z" /></g><g
             transform="translate(370.4086,334.8819)"
             id="g53133"><path
               inkscape:connector-curvature="0"
               id="path53135"
               style="fill:#fcc400;fill-opacity:1;fill-rule:nonzero;stroke:none"
               d="M 0,0 2.24,0.467 1.829,-10.31 -0.411,-10.777 0,0 z" /></g><g
             transform="translate(379.4712,327.6993)"
             id="g53137"><path
               inkscape:connector-curvature="0"
               id="path53139"
               style="fill:#fcc400;fill-opacity:1;fill-rule:nonzero;stroke:none"
               d="M 0,0 C 1.906,0.397 3.107,1.986 3.199,4.384 3.29,6.782 2.192,7.892 0.286,7.495 -1.605,7.101 -2.792,5.515 -2.883,3.117 -2.975,0.719 -1.891,-0.394 0,0 M 0.36,9.428 C 3.613,10.105 5.601,8.334 5.469,4.857 5.336,1.379 3.179,-1.256 -0.074,-1.933 -3.328,-2.611 -5.301,-0.837 -5.169,2.641 -5.036,6.118 -2.894,8.75 0.36,9.428" /></g><g
             transform="translate(386.917,338.321)"
             id="g53141"><path
               inkscape:connector-curvature="0"
               id="path53143"
               style="fill:#fcc400;fill-opacity:1;fill-rule:nonzero;stroke:none"
               d="M 0,0 2.345,0.488 6.48,-5.995 6.763,1.409 8.972,1.869 8.561,-8.908 6.246,-9.39 2.08,-2.912 1.797,-10.317 -0.411,-10.777 0,0 z" /></g><g
             transform="translate(325.5798,304.8769)"
             id="g53145"><path
               inkscape:connector-curvature="0"
               id="path53147"
               style="fill:#fcc400;fill-opacity:1;fill-rule:nonzero;stroke:none"
               d="M 0,0 C 0.121,-1.165 0.918,-1.534 2.415,-1.222 3.731,-0.948 4.4,-0.348 4.434,0.552 4.472,1.541 3.571,1.547 1.592,1.58 0.721,1.592 -0.09,1.572 -0.784,1.874 -1.538,2.192 -1.913,2.947 -1.87,4.071 -1.791,6.154 -0.294,7.626 2.444,8.196 5.002,8.729 6.436,7.779 6.43,5.636 L 4.281,5.189 C 4.245,6.222 3.526,6.622 2.179,6.342 0.999,6.096 0.329,5.481 0.298,4.657 0.259,3.637 1.091,3.811 2.875,3.736 3.894,3.696 4.733,3.662 5.399,3.429 6.274,3.121 6.681,2.403 6.639,1.294 6.554,-0.925 4.946,-2.568 2.131,-3.154 -0.638,-3.731 -2.175,-2.728 -2.209,-0.46 L 0,0 z" /></g><g
             transform="translate(336.4683,303.844)"
             id="g53149"><path
               inkscape:connector-curvature="0"
               id="path53151"
               style="fill:#fcc400;fill-opacity:1;fill-rule:nonzero;stroke:none"
               d="M 0,0 0.153,4.017 -3.538,9.954 -0.799,10.525 1.354,6.364 3.68,11.458 6.236,11.99 2.393,4.484 2.239,0.466 0,0 z" /></g><g
             transform="translate(345.084,308.94)"
             id="g53153"><path
               inkscape:connector-curvature="0"
               id="path53155"
               style="fill:#fcc400;fill-opacity:1;fill-rule:nonzero;stroke:none"
               d="M 0,0 C 0.121,-1.165 0.918,-1.534 2.415,-1.222 3.731,-0.948 4.4,-0.348 4.434,0.552 4.472,1.541 3.571,1.547 1.592,1.58 0.721,1.592 -0.09,1.572 -0.784,1.874 -1.538,2.192 -1.913,2.947 -1.87,4.071 -1.791,6.154 -0.294,7.626 2.444,8.196 5.002,8.729 6.436,7.779 6.43,5.636 L 4.281,5.189 C 4.245,6.222 3.526,6.622 2.179,6.342 0.999,6.096 0.329,5.481 0.298,4.657 0.259,3.637 1.091,3.811 2.875,3.736 3.894,3.696 4.733,3.662 5.399,3.429 6.274,3.121 6.681,2.403 6.639,1.294 6.554,-0.925 4.946,-2.568 2.131,-3.154 -0.638,-3.731 -2.175,-2.728 -2.209,-0.46 L 0,0 z" /></g><g
             transform="translate(355.9324,316.6866)"
             id="g53157"><path
               inkscape:connector-curvature="0"
               id="path53159"
               style="fill:#fcc400;fill-opacity:1;fill-rule:nonzero;stroke:none"
               d="M 0,0 -3.222,-0.671 -3.149,1.247 5.521,3.053 5.448,1.135 2.239,0.466 1.901,-8.392 -0.338,-8.858 0,0 z" /></g><g
             transform="translate(362.7398,320.008)"
             id="g53161"><path
               inkscape:connector-curvature="0"
               id="path53163"
               style="fill:#fcc400;fill-opacity:1;fill-rule:nonzero;stroke:none"
               d="M 0,0 7.898,1.645 7.826,-0.228 2.137,-1.414 2.05,-3.707 7.255,-2.622 7.184,-4.466 1.979,-5.55 1.873,-8.323 7.835,-7.081 7.759,-9.075 -0.411,-10.777 0,0 z" /></g><g
             transform="translate(372.6205,322.0663)"
             id="g53165"><path
               inkscape:connector-curvature="0"
               id="path53167"
               style="fill:#fcc400;fill-opacity:1;fill-rule:nonzero;stroke:none"
               d="M 0,0 3.313,0.69 5.164,-7.058 7.61,1.585 10.939,2.279 10.527,-8.498 8.424,-8.936 8.756,-0.243 6.215,-9.396 3.931,-9.872 2.024,-1.645 1.692,-10.339 -0.411,-10.777 0,0 z" /></g><g
             transform="translate(374.5861,267.0749)"
             id="g53169"><path
               inkscape:connector-curvature="0"
               id="path53171"
               style="fill:#a3834a;fill-opacity:1;fill-rule:nonzero;stroke:none"
               d="m 0,0 3.46,4.192 2.258,-4.945 4.427,3.153 0.901,-5.36 5.093,1.9 -0.517,-5.411 5.411,0.517 -1.9,-5.092 5.36,-0.901 -3.153,-4.428 4.944,-2.257 -4.191,-3.461 4.191,-3.46 -4.944,-2.258 3.153,-4.427 -5.36,-0.901 1.9,-5.092 -5.411,0.517 0.517,-5.411 -5.093,1.9 -0.901,-5.361 -4.427,3.154 -2.258,-4.945 -3.46,4.192 -3.46,-4.192 -2.258,4.945 -4.427,-3.154 -0.901,5.361 -5.093,-1.9 0.517,5.411 -5.411,-0.517 1.9,5.092 -5.36,0.901 3.153,4.427 -4.944,2.258 4.191,3.46 -4.191,3.461 4.944,2.257 -3.153,4.428 5.36,0.901 -1.9,5.092 5.411,-0.517 -0.517,5.411 5.093,-1.9 0.901,5.36 4.427,-3.153 L -3.46,4.192 0,0 z" /></g><g
             transform="translate(395.5761,244.9823)"
             id="g53173"><path
               inkscape:connector-curvature="0"
               id="path53175"
               style="fill:#191919;fill-opacity:1;fill-rule:nonzero;stroke:none"
               d="m 0,0 c 0,-11.592 -9.398,-20.99 -20.99,-20.99 -11.592,0 -20.99,9.398 -20.99,20.99 0,11.592 9.398,20.99 20.99,20.99 C -9.398,20.99 0,11.592 0,0" /></g><g
             transform="translate(374.5861,264.3501)"
             id="g53177"><path
               inkscape:connector-curvature="0"
               id="path53179"
               style="fill:#a3834a;fill-opacity:1;fill-rule:nonzero;stroke:none"
               d="m 0,0 c -10.697,0 -19.368,-8.671 -19.368,-19.368 0,-10.696 8.671,-19.368 19.368,-19.368 10.697,0 19.368,8.672 19.368,19.368 C 19.368,-8.671 10.697,0 0,0 m 0,-0.884 c 10.192,0 18.484,-8.292 18.484,-18.484 0,-10.192 -8.292,-18.484 -18.484,-18.484 -10.192,0 -18.484,8.292 -18.484,18.484 0,10.192 8.292,18.484 18.484,18.484" /></g><g
             transform="translate(387.1842,241.935)"
             id="g53181"><path
               inkscape:connector-curvature="0"
               id="path53183"
               style="fill:#a3834a;fill-opacity:1;fill-rule:nonzero;stroke:none"
               d="m 0,0 -25.304,0 c -2.138,-0.008 -3.436,1.427 -3.436,3.186 0,1.76 1.306,3.183 3.436,3.187 L 0,6.373 C 2.129,6.369 3.435,4.946 3.435,3.186 3.435,1.427 2.137,-0.008 0,0 m 0.012,7.412 -25.329,0 c -2.68,0.006 -4.481,-1.921 -4.481,-4.232 0,-2.31 1.797,-4.215 4.485,-4.216 l 25.322,0 c 2.688,0.001 4.485,1.906 4.485,4.216 0,2.311 -1.801,4.238 -4.482,4.232" /></g><g
             transform="translate(378.5133,246.6985)"
             id="g53185"><path
               inkscape:connector-curvature="0"
               id="path53187"
               style="fill:#a3834a;fill-opacity:1;fill-rule:nonzero;stroke:none"
               d="m 0,0 1.197,0 0,-0.535 0.647,0 0,-0.394 -0.647,0 10e-4,-2.639 -1.199,0 0.001,2.639 -0.65,0 0,0.393 0.651,0 L 0,0 z" /></g><path
             inkscape:connector-curvature="0"
             id="path53189"
             style="fill:#a3834a;fill-opacity:1;fill-rule:nonzero;stroke:none"
             d="m 364.497,245.775 1.196,0 0,-2.644 -1.196,0 0,2.644 z" /><path
             inkscape:connector-curvature="0"
             id="path53191"
             style="fill:#a3834a;fill-opacity:1;fill-rule:nonzero;stroke:none"
             d="m 364.494,247.108 1.199,0 0,-0.813 -1.199,0 0,0.813 z" /><g
             transform="translate(386.4784,244.5642)"
             id="g53193"><path
               inkscape:connector-curvature="0"
               id="path53195"
               style="fill:#a3834a;fill-opacity:1;fill-rule:nonzero;stroke:none"
               d="m 0,0 0,0 c 0,-0.008 -0.001,-0.4 -0.001,-0.559 0,-0.421 -0.249,-0.595 -0.489,-0.595 -0.239,0 -0.489,0.174 -0.489,0.595 l 0,0.57 c 0,0 0.001,0.392 0.001,0.552 0,0.419 0.25,0.592 0.488,0.592 0.239,0 0.489,-0.173 0.489,-0.592 0,-0.16 0,-0.456 0.001,-0.563 L 0,0.001 0,0 z m -0.48,1.482 c -0.966,0 -1.749,-0.664 -1.749,-1.484 0,-0.821 0.783,-1.485 1.749,-1.485 0.965,0 1.747,0.664 1.747,1.485 0,0.82 -0.782,1.484 -1.747,1.484" /></g><g
             transform="translate(367.5785,244.9465)"
             id="g53197"><path
               inkscape:connector-curvature="0"
               id="path53199"
               style="fill:#a3834a;fill-opacity:1;fill-rule:nonzero;stroke:none"
               d="m 0,0 c 0,0.41 0.283,0.514 0.468,0.514 0.191,0 0.47,-0.104 0.47,-0.514 0,-0.135 -10e-4,-0.47 -10e-4,-0.47 0,0 10e-4,-0.331 10e-4,-0.472 0,-0.407 -0.279,-0.515 -0.469,-0.515 C 0.283,-1.457 0,-1.349 0,-0.942 L 0,-0.472 0,0 z m -1.172,2.169 0,-3.977 1.183,0 c 0,0 0.001,0.129 0.001,0.153 0.457,-0.287 0.973,-0.286 1.376,-0.099 0.107,0.05 0.818,0.391 0.818,1.311 0,0.698 -0.659,1.461 -1.52,1.385 C 0.402,0.917 0.199,0.814 0.009,0.705 l 0,1.464 -1.181,0 z" /></g><g
             transform="translate(375.6391,245.4771)"
             id="g53201"><path
               inkscape:connector-curvature="0"
               id="path53203"
               style="fill:#a3834a;fill-opacity:1;fill-rule:nonzero;stroke:none"
               d="m 0,0 c 0.093,0.163 0.265,0.241 0.42,0.241 l 0,0 0.001,0 -0.001,0 C 0.577,0.241 0.748,0.163 0.841,0 0.917,-0.132 0.921,-0.287 0.919,-0.519 l -0.998,0 C -0.081,-0.287 -0.076,-0.132 0,0 m 0.916,-1.476 c 0,-0.485 -0.319,-0.592 -0.495,-0.592 -0.177,0 -0.5,0.107 -0.5,0.592 0,0.144 0.001,0.545 0.001,0.545 0,0 2.252,-0.001 2.252,0 0,0.821 -0.792,1.501 -1.764,1.501 -0.973,0 -1.761,-0.665 -1.761,-1.486 0,-0.819 0.788,-1.484 1.761,-1.484 0.806,0 1.488,0.46 1.696,1.084 L 0.915,-1.317 c 0,0 0.001,-0.011 0.001,-0.159" /></g><g
             transform="translate(362.5162,243.5234)"
             id="g53205"><path
               inkscape:connector-curvature="0"
               id="path53207"
               style="fill:#a3834a;fill-opacity:1;fill-rule:nonzero;stroke:none"
               d="m 0,0 0,3.603 -1.198,0 0,-3.603 0,-0.393 1.198,0 1.296,0 L 1.296,0 0,0 z" /></g><g
             transform="translate(382.8649,244.8069)"
             id="g53209"><path
               inkscape:connector-curvature="0"
               id="path53211"
               style="fill:#a3834a;fill-opacity:1;fill-rule:nonzero;stroke:none"
               d="M 0,0 1.172,0 C 1.051,0.854 0.252,1.101 -0.16,1.09 -0.555,1.078 -0.884,0.908 -1.113,0.69 c -0.001,0.066 0,0.279 0,0.279 L -2.3,0.968 l -0.001,-2.644 1.188,0 c 0,0 -0.001,1.624 -0.001,1.736 0,0.23 0.242,0.487 0.567,0.487 C -0.221,0.547 0,0.29 0,0.06 L 0,0 z" /></g><g
             transform="translate(371.6654,245.7718)"
             id="g53213"><path
               inkscape:connector-curvature="0"
               id="path53215"
               style="fill:#a3834a;fill-opacity:1;fill-rule:nonzero;stroke:none"
               d="m 0,0 0,0.469 c 0,0.408 0.283,0.515 0.469,0.515 0.19,0 0.469,-0.107 0.469,-0.515 0,-0.141 -10e-4,-0.471 -10e-4,-0.471 0,0 10e-4,-0.335 10e-4,-0.47 0,-0.41 -0.279,-0.514 -0.47,-0.514 C 0.283,-0.986 0,-0.882 0,-0.472 L 0,0 z m 2.206,-0.03 c 0,0.921 -0.711,1.261 -0.818,1.312 -0.403,0.186 -0.919,0.187 -1.376,-0.099 0,0.024 -0.001,0.153 -0.001,0.153 l -1.183,0 0,-3.977 1.181,0 0,1.463 c 0.005,-0.003 0.01,-0.005 0.015,-0.008 l 0.926,-1.455 1.172,0 -0.836,1.313 c 0.549,0.215 0.92,0.775 0.92,1.298" /></g><g
             transform="translate(221.2742,215.2508)"
             id="g53217"><path
               inkscape:connector-curvature="0"
               id="path53219"
               style="fill:#4b91d0;fill-opacity:1;fill-rule:nonzero;stroke:none"
               d="M 0,0 37.335,0 56.252,63.897 0,53.856 0,0 z m 38.298,-1.29 -39.588,0 0,56.225 0.532,0.095 58.84,10.504 L 38.298,-1.29 z" /></g><g
             transform="translate(263.2824,228.7637)"
             id="g53221"><path
               inkscape:connector-curvature="0"
               id="path53223"
               style="fill:#4b91d0;fill-opacity:1;fill-rule:nonzero;stroke:none"
               d="m 0,0 -42.654,0.247 0,-14.406 38.462,0 L 0,0 z" /></g><g
             transform="translate(252.8492,260.908)"
             id="g53225"><path
               inkscape:connector-curvature="0"
               id="path53227"
               style="fill:#4b91d0;fill-opacity:1;fill-rule:nonzero;stroke:none"
               d="m 0,0 -0.616,8.434 -7.931,0 c -2.64,0 -4.894,-1.565 -5.041,-3.574 L -13.943,0 -25.684,0 -27.132,-7.386 c -0.533,-2.718 1.667,-5.03 4.939,-5.03 l 7.343,0 -0.969,-13.268 11.041,0 c 3.675,0 6.442,2.908 6.193,6.308 l -0.508,6.96 13.268,0 -1.587,8.098 C 12.111,-1.886 9.394,0 6.498,0 L 0,0 z" /></g><g
             transform="translate(234.1759,251.3548)"
             id="g53229"><path
               inkscape:connector-curvature="0"
               id="path53231"
               style="fill:#191919;fill-opacity:1;fill-rule:nonzero;stroke:none"
               d="M 0,0 -3.882,3.725 0.802,7.195 0,0 z" /></g><g
             transform="translate(245.8777,266.6238)"
             id="g53233"><path
               inkscape:connector-curvature="0"
               id="path53235"
               style="fill:#191919;fill-opacity:1;fill-rule:nonzero;stroke:none"
               d="m 0,0 3.931,-2.912 -7.862,0 L 0,0 z" /></g><g
             transform="translate(245.8776,240.1265)"
             id="g53237"><path
               inkscape:connector-curvature="0"
               id="path53239"
               style="fill:#191919;fill-opacity:1;fill-rule:nonzero;stroke:none"
               d="m 0,0 -4.739,4.547 9.478,0 L 0,0 z" /></g><g
             transform="translate(245.8777,251.3059)"
             id="g53241"><path
               inkscape:connector-curvature="0"
               id="path53243"
               style="fill:#191919;fill-opacity:1;fill-rule:nonzero;stroke:none"
               d="M 0,0 C -2.492,0 -4.44,1.724 -4.352,3.774 -4.267,5.744 -2.319,7.286 0,7.286 2.32,7.286 4.267,5.744 4.352,3.774 4.44,1.724 2.493,0 0,0" /></g><g
             transform="translate(257.5795,251.3548)"
             id="g53245"><path
               inkscape:connector-curvature="0"
               id="path53247"
               style="fill:#191919;fill-opacity:1;fill-rule:nonzero;stroke:none"
               d="M 0,0 -0.802,7.195 3.882,3.725 0,0 z" /></g><g
             transform="translate(224.3646,222.8142)"
             id="g53249"><path
               inkscape:connector-curvature="0"
               id="path53251"
               style="fill:#191919;fill-opacity:1;fill-rule:nonzero;stroke:none"
               d="m 0,0 c 0.524,0 0.699,0.175 0.699,0.703 0,0.503 -0.227,0.634 -0.776,0.634 l -0.446,0 L -0.523,0 0,0 z m -1.395,1.996 1.622,0 c 0.976,0 1.382,-0.358 1.382,-1.237 0,-0.615 -0.239,-0.973 -0.684,-1.036 0.665,-0.17 0.652,-0.508 0.672,-1.118 L 1.622,-2.022 C 1.635,-2.33 1.687,-2.549 1.868,-2.726 l -1.073,0 c -0.064,0.201 -0.077,0.44 -0.083,0.736 l -0.013,0.495 0,0.126 c 0,0.615 -0.265,0.715 -0.912,0.715 l -0.31,0 0,-2.072 -0.872,0 0,4.722 z" /></g><g
             transform="translate(226.7087,224.8103)"
             id="g53253"><path
               inkscape:connector-curvature="0"
               id="path53255"
               style="fill:#191919;fill-opacity:1;fill-rule:nonzero;stroke:none"
               d="m 0,0 2.494,0 0,-0.785 -1.596,0 0,-1.092 1.485,0 0,-0.748 -1.485,0 0,-1.299 1.635,0 0,-0.798 L 0,-4.722 0,0 z" /></g><g
             transform="translate(230.6077,224.0314)"
             id="g53257"><path
               inkscape:connector-curvature="0"
               id="path53259"
               style="fill:#191919;fill-opacity:1;fill-rule:nonzero;stroke:none"
               d="m 0,0 -1.041,0 0,0.779 2.986,0 0,-0.779 -1.041,0 0,-3.943 L 0,-3.943 0,0 z" /></g><g
             transform="translate(234.434,222.8142)"
             id="g53261"><path
               inkscape:connector-curvature="0"
               id="path53263"
               style="fill:#191919;fill-opacity:1;fill-rule:nonzero;stroke:none"
               d="m 0,0 c 0.524,0 0.699,0.175 0.699,0.703 0,0.503 -0.227,0.634 -0.776,0.634 l -0.446,0 L -0.523,0 0,0 z m -1.395,1.996 1.622,0 c 0.976,0 1.382,-0.358 1.382,-1.237 0,-0.615 -0.239,-0.973 -0.684,-1.036 0.665,-0.17 0.652,-0.508 0.672,-1.118 L 1.622,-2.022 C 1.635,-2.33 1.687,-2.549 1.868,-2.726 l -1.073,0 c -0.064,0.201 -0.077,0.44 -0.083,0.736 l -0.013,0.495 0,0.126 c 0,0.615 -0.265,0.715 -0.912,0.715 l -0.31,0 0,-2.072 -0.872,0 0,4.722 z" /></g><g
             transform="translate(238.2646,220.6783)"
             id="g53265"><path
               inkscape:connector-curvature="0"
               id="path53267"
               style="fill:#191919;fill-opacity:1;fill-rule:nonzero;stroke:none"
               d="m 0,0 c 0.62,0 0.645,0.54 0.645,1.772 0,1.23 -0.025,1.776 -0.652,1.776 C -0.633,3.548 -0.66,3.002 -0.66,1.772 -0.66,0.54 -0.628,0 0,0 m -1.286,3.649 c 0.297,0.445 0.666,0.597 1.279,0.597 0.614,0 0.982,-0.152 1.28,-0.597 C 1.492,3.315 1.57,2.701 1.57,1.772 1.57,0.849 1.492,0.227 1.273,-0.106 0.975,-0.552 0.607,-0.703 -0.007,-0.703 c -0.613,0 -0.982,0.151 -1.279,0.597 -0.219,0.326 -0.298,0.948 -0.298,1.878 0,0.929 0.079,1.55 0.298,1.877" /></g><g
             transform="translate(243.0154,221.7455)"
             id="g53269"><path
               inkscape:connector-curvature="0"
               id="path53271"
               style="fill:#191919;fill-opacity:1;fill-rule:nonzero;stroke:none"
               d="m 0,0 0,-0.3 c 0,-0.51 0.084,-0.754 0.498,-0.754 0.387,0 0.588,0.195 0.588,0.559 0,0.339 -0.182,0.495 -0.556,0.753 l -0.466,0.32 c -0.62,0.421 -0.923,0.665 -0.923,1.332 0,0.791 0.517,1.268 1.363,1.268 0.898,0 1.396,-0.49 1.396,-1.387 0,-0.057 0,-0.114 -0.007,-0.171 l -0.859,0 0,0.126 c 0,0.502 -0.155,0.716 -0.556,0.716 -0.29,0 -0.465,-0.176 -0.465,-0.47 0,-0.302 0.22,-0.44 0.569,-0.667 L 1.079,0.999 C 1.718,0.585 1.99,0.265 1.99,-0.427 1.99,-1.28 1.473,-1.77 0.53,-1.77 c -0.976,0 -1.447,0.483 -1.447,1.488 0,0.088 0.006,0.183 0.013,0.282 L 0,0 z" /></g><g
             transform="translate(245.7526,224.8103)"
             id="g53273"><path
               inkscape:connector-curvature="0"
               id="path53275"
               style="fill:#191919;fill-opacity:1;fill-rule:nonzero;stroke:none"
               d="m 0,0 2.494,0 0,-0.785 -1.596,0 0,-1.092 1.485,0 0,-0.748 -1.485,0 0,-1.299 1.635,0 0,-0.798 L 0,-4.722 0,0 z" /></g><g
             transform="translate(250.3564,222.8142)"
             id="g53277"><path
               inkscape:connector-curvature="0"
               id="path53279"
               style="fill:#191919;fill-opacity:1;fill-rule:nonzero;stroke:none"
               d="m 0,0 c 0.523,0 0.697,0.175 0.697,0.703 0,0.503 -0.227,0.634 -0.776,0.634 l -0.445,0 L -0.524,0 0,0 z m -1.396,1.996 1.622,0 c 0.975,0 1.381,-0.358 1.381,-1.237 0,-0.615 -0.238,-0.973 -0.684,-1.036 0.665,-0.17 0.652,-0.508 0.673,-1.118 L 1.62,-2.022 C 1.634,-2.33 1.686,-2.549 1.867,-2.726 l -1.073,0 c -0.065,0.201 -0.078,0.44 -0.083,0.736 l -0.014,0.495 0,0.126 c 0,0.615 -0.265,0.715 -0.911,0.715 l -0.31,0 0,-2.072 -0.872,0 0,4.722 z" /></g><path
             inkscape:connector-curvature="0"
             id="path53281"
             style="fill:#191919;fill-opacity:1;fill-rule:nonzero;stroke:none"
             d="m 252.699,224.81 0.904,0 0,-4.722 -0.904,0 0,4.722 z" /><g
             transform="translate(254.436,224.8103)"
             id="g53283"><path
               inkscape:connector-curvature="0"
               id="path53285"
               style="fill:#191919;fill-opacity:1;fill-rule:nonzero;stroke:none"
               d="m 0,0 2.494,0 0,-0.785 -1.596,0 0,-1.092 1.485,0 0,-0.748 -1.485,0 0,-1.299 1.635,0 0,-0.798 L 0,-4.722 0,0 z" /></g><g
             transform="translate(258.4559,221.7455)"
             id="g53287"><path
               inkscape:connector-curvature="0"
               id="path53289"
               style="fill:#191919;fill-opacity:1;fill-rule:nonzero;stroke:none"
               d="m 0,0 0,-0.3 c 0,-0.51 0.084,-0.754 0.498,-0.754 0.387,0 0.588,0.195 0.588,0.559 0,0.339 -0.182,0.495 -0.556,0.753 l -0.464,0.32 c -0.621,0.421 -0.925,0.665 -0.925,1.332 0,0.791 0.517,1.268 1.363,1.268 0.898,0 1.396,-0.49 1.396,-1.387 0,-0.057 0,-0.114 -0.007,-0.171 l -0.859,0 0,0.126 c 0,0.502 -0.155,0.716 -0.555,0.716 -0.291,0 -0.466,-0.176 -0.466,-0.47 0,-0.302 0.22,-0.44 0.568,-0.667 L 1.079,0.999 C 1.719,0.585 1.99,0.265 1.99,-0.427 1.99,-1.28 1.473,-1.77 0.53,-1.77 c -0.976,0 -1.447,0.483 -1.447,1.488 0,0.088 0.006,0.183 0.013,0.282 L 0,0 z" /></g><g
             transform="translate(269.9787,193.9588)"
             id="g53291"><path
               inkscape:connector-curvature="0"
               id="path53293"
               style="fill:#ed1c24;fill-opacity:1;fill-rule:nonzero;stroke:none"
               d="M 0,0 C 1.422,0 2.845,-0.008 4.267,0.007 4.511,0.01 4.553,-0.068 4.55,-0.282 4.54,-0.98 4.536,-1.68 4.55,-2.378 4.555,-2.613 4.476,-2.657 4.256,-2.656 c -1.839,0.009 -3.678,0 -5.517,0.009 -0.212,10e-4 -0.307,-0.024 -0.317,-0.264 -0.011,-0.259 0.114,-0.27 0.311,-0.269 1.815,0.004 3.63,-0.004 5.444,0.009 C 4.463,-3.169 4.564,-3.225 4.553,-3.53 4.53,-4.216 4.536,-4.903 4.551,-5.59 4.556,-5.828 4.492,-5.896 4.246,-5.894 c -1.839,0.011 -3.678,0.005 -5.517,0.003 -0.09,0 -0.209,0.07 -0.261,-0.052 -0.06,-0.139 0.047,-0.228 0.135,-0.313 0.156,-0.152 0.355,-0.146 0.553,-0.146 C 0.823,-6.4 2.491,-6.408 4.158,-6.393 4.465,-6.39 4.562,-6.474 4.552,-6.782 4.531,-7.481 4.54,-8.18 4.548,-8.879 4.55,-9.063 4.508,-9.132 4.304,-9.131 c -1.508,0.01 -3.017,-0.022 -4.524,0.013 -2.262,0.054 -4.249,1.983 -4.338,4.243 -0.061,1.555 -0.016,3.113 -0.03,4.67 C -4.59,0.04 -4.453,0 -4.304,0 -2.869,-0.002 -1.435,-0.002 0,-0.002 L 0,0 z" /></g><g
             transform="translate(283.9191,190.7892)"
             id="g53295"><path
               inkscape:connector-curvature="0"
               id="path53297"
               style="fill:#ed1c24;fill-opacity:1;fill-rule:nonzero;stroke:none"
               d="M 0,0 C 0.236,0.003 0.327,-0.054 0.318,-0.306 0.29,-1.039 0.356,-1.771 0.181,-2.501 c -0.44,-1.838 -2.208,-3.371 -4.115,-3.438 -1.543,-0.054 -3.089,-0.011 -4.634,-0.022 -0.231,-10e-4 -0.248,0.096 -0.244,0.289 0.013,0.699 0.022,1.399 0,2.097 -0.009,0.281 0.07,0.352 0.345,0.35 1.643,-0.013 3.286,-0.006 4.93,-0.009 0.215,0 0.416,0.023 0.572,0.191 0.072,0.077 0.112,0.165 0.071,0.268 -0.044,0.114 -0.14,0.061 -0.221,0.061 -1.79,-0.004 -3.58,10e-4 -5.37,-0.014 -0.289,-0.002 -0.342,0.086 -0.326,0.356 0.041,0.683 -0.033,1.368 0.133,2.048 0.485,1.992 2.267,3.451 4.336,3.485 1.471,0.024 2.943,0.003 4.414,0.015 C 0.282,3.178 0.318,3.098 0.317,2.919 0.31,2.208 0.301,1.496 0.318,0.786 0.325,0.536 0.223,0.515 0.017,0.516 c -1.802,0.006 -3.605,0.002 -5.407,0 -0.086,0 -0.174,0.01 -0.257,-0.005 -0.207,-0.037 -0.282,-0.216 -0.288,-0.378 -0.009,-0.21 0.19,-0.137 0.307,-0.138 C -4.684,-0.011 -0.932,-0.012 0,0" /></g><g
             transform="translate(308.7456,188.9502)"
             id="g53299"><path
               inkscape:connector-curvature="0"
               id="path53301"
               style="fill:#fcc400;fill-opacity:1;fill-rule:nonzero;stroke:none"
               d="M 0,0 C 0.343,0 0.686,-0.006 1.029,0.002 1.377,0.01 1.624,0.219 1.679,0.534 1.762,1.009 1.373,1.795 0.959,2.051 0.259,2.484 -0.507,2.369 -1.257,2.319 -1.551,2.299 -1.696,2.028 -1.703,1.727 -1.711,1.384 -1.712,1.041 -1.707,0.698 -1.701,0.245 -1.455,0.007 -0.992,0.001 -0.661,-0.003 -0.331,0 0,0 m -4.5,0.486 c 0.001,1.422 0.006,2.843 -0.005,4.265 -0.001,0.216 0.058,0.263 0.268,0.262 C -2.816,5.002 -1.394,5.012 0.028,5.004 2.651,4.989 4.66,2.928 4.626,0.301 4.617,-0.446 4.614,-1.194 4.63,-1.942 4.634,-2.149 4.597,-2.206 4.378,-2.205 c -1.753,0.012 -3.505,0.008 -5.258,0.009 -0.6,0 -0.818,-0.221 -0.829,-0.811 -0.007,-0.363 0.164,-0.859 -0.066,-1.05 -0.22,-0.183 -1.996,-0.053 -2.462,-0.064 -0.204,-0.005 -0.27,0.052 -0.269,0.269 0.011,1.446 0.006,2.892 0.006,4.338" /></g><g
             transform="translate(264.8095,189.3937)"
             id="g53303"><path
               inkscape:connector-curvature="0"
               id="path53305"
               style="fill:#ed1c24;fill-opacity:1;fill-rule:nonzero;stroke:none"
               d="m 0,0 c 0,-1.398 -0.01,-2.795 0.008,-4.193 0.004,-0.315 -0.097,-0.383 -0.39,-0.374 -0.711,0.022 -1.422,0.018 -2.133,0.004 -0.219,-0.004 -0.289,0.036 -0.287,0.276 0.012,1.802 0.006,3.604 0.007,5.406 0,0.586 -0.209,0.803 -0.797,0.791 C -4.186,1.898 -4.787,1.984 -5.35,1.665 -5.962,1.32 -6.162,0.769 -6.17,0.131 c -0.018,-1.446 -0.016,-2.893 -0.001,-4.339 0.003,-0.296 -0.08,-0.368 -0.368,-0.36 -0.772,0.022 -1.544,0.011 -2.317,0.004 -0.193,-0.002 -0.276,0.031 -0.274,0.261 0.014,1.422 0.008,2.844 0.008,4.266 10e-4,2.489 1.927,4.517 4.409,4.588 1.494,0.043 2.991,0.007 4.486,0.022 0.265,0.002 0.228,-0.15 0.228,-0.307 0,-1.422 0,-2.844 0,-4.266 L 0,0 z" /></g><g
             transform="translate(297.1874,189.2517)"
             id="g53307"><path
               inkscape:connector-curvature="0"
               id="path53309"
               style="fill:#fcc400;fill-opacity:1;fill-rule:nonzero;stroke:none"
               d="m 0,0 c -0.002,-1.061 0.846,-1.913 1.907,-1.917 1.052,-0.004 1.919,0.858 1.919,1.909 0,1.054 -0.854,1.912 -1.911,1.921 C 0.866,1.922 0.002,1.059 0,0 m -2.647,0.159 c 0.006,2.508 2.06,4.55 4.571,4.544 C 4.423,4.697 6.48,2.629 6.473,0.129 6.466,-2.365 4.391,-4.427 1.895,-4.421 c -2.5,0.006 -4.548,2.071 -4.542,4.58" /></g><g
             transform="translate(287.4013,193.955)"
             id="g53311"><path
               inkscape:connector-curvature="0"
               id="path53313"
               style="fill:#fcc400;fill-opacity:1;fill-rule:nonzero;stroke:none"
               d="M 0,0 C 0.674,0 1.348,0.007 2.022,-0.001 4.57,-0.033 6.582,-2.119 6.55,-4.669 6.532,-6.054 6.54,-7.439 6.553,-8.824 6.555,-9.07 6.481,-9.13 6.243,-9.126 c -0.784,0.014 -1.569,0.01 -2.353,0 -0.207,-0.002 -0.297,0.025 -0.294,0.276 0.015,1.446 0.009,2.892 0.009,4.339 0,1.164 -0.681,1.856 -1.842,1.86 -1.336,0.006 -2.672,0.01 -4.008,-0.002 -0.27,-0.003 -0.353,0.056 -0.341,0.343 0.027,0.673 0.022,1.349 0,2.022 -0.008,0.257 0.069,0.301 0.306,0.296 C -1.52,-0.009 -0.76,0.002 0,0.002 L 0,0 z" /></g><g
             transform="translate(323.6978,188.9506)"
             id="g53315"><path
               inkscape:connector-curvature="0"
               id="path53317"
               style="fill:#fcc400;fill-opacity:1;fill-rule:nonzero;stroke:none"
               d="M 0,0 C 0.367,0 0.735,-0.008 1.102,0.002 1.445,0.012 1.689,0.234 1.737,0.553 1.811,1.047 1.429,1.795 0.997,2.06 0.307,2.484 -0.448,2.366 -1.185,2.322 -1.496,2.304 -1.647,2.024 -1.653,1.708 -1.66,1.365 -1.662,1.021 -1.654,0.679 -1.644,0.249 -1.394,0.008 -0.955,0.001 -0.637,-0.004 -0.318,0 0,0 m -4.441,0.446 c 0,1.434 0.006,2.868 -0.006,4.302 -0.002,0.217 0.052,0.265 0.262,0.264 1.446,-0.01 2.892,0.005 4.338,-0.01 2.553,-0.028 4.561,-2.11 4.531,-4.661 -0.016,-1.373 -0.01,-2.745 0.003,-4.118 0.002,-0.27 -0.065,-0.356 -0.346,-0.348 -0.735,0.021 -1.471,0.019 -2.206,0 -0.305,-0.008 -0.455,0.044 -0.407,0.397 0.04,0.289 0.018,0.588 0.008,0.882 -0.014,0.389 -0.26,0.642 -0.653,0.648 -0.698,0.011 -1.397,0.012 -2.095,-10e-4 -0.383,-0.007 -0.632,-0.274 -0.642,-0.663 -0.008,-0.342 -0.007,-0.686 0.004,-1.029 0.006,-0.163 -0.013,-0.238 -0.212,-0.234 -0.772,0.014 -1.544,0.011 -2.316,0.004 -0.197,-0.002 -0.272,0.042 -0.27,0.266 0.012,1.434 0.006,2.867 0.006,4.301 l 0.001,0 z" /></g><g
             transform="translate(317.7872,193.6956)"
             id="g53319"><path
               inkscape:connector-curvature="0"
               id="path53321"
               style="fill:#fcc400;fill-opacity:1;fill-rule:nonzero;stroke:none"
               d="m 0,0 c 0,-0.454 0,-0.841 0,-1.229 -0.001,-2.428 -0.008,-4.855 0.005,-7.283 0.002,-0.302 -0.087,-0.364 -0.369,-0.357 -0.772,0.02 -1.545,0.012 -2.317,0.003 -0.201,-0.002 -0.273,0.046 -0.272,0.266 0.012,1.483 -0.023,2.968 0.018,4.45 0.046,1.709 0.91,2.953 2.342,3.83 C -0.427,-0.219 -0.25,-0.134 0,0" /></g><g
             transform="translate(221.7194,201.2662)"
             id="g53323"><path
               inkscape:connector-curvature="0"
               id="path53325"
               style="fill:#fcc400;fill-opacity:1;fill-rule:nonzero;stroke:none"
               d="m 0,0 0,-1.118 -3.468,0 0,-2.762 3.338,0 0,-1.113 -3.338,0 0,-3.909 -1.198,0 0,8.902 L 0,0 z" /></g><g
             transform="translate(230.4066,193.7312)"
             id="g53327"><path
               inkscape:connector-curvature="0"
               id="path53329"
               style="fill:#fcc400;fill-opacity:1;fill-rule:nonzero;stroke:none"
               d="m 0,0 c -0.923,-1.017 -2.064,-1.525 -3.423,-1.525 -0.817,0 -1.585,0.205 -2.304,0.616 -0.731,0.418 -1.297,0.979 -1.698,1.683 -0.401,0.704 -0.601,1.468 -0.601,2.293 0,0.832 0.203,1.6 0.61,2.305 0.406,0.704 0.969,1.255 1.689,1.655 0.734,0.406 1.5,0.61 2.298,0.61 0.848,0 1.642,-0.211 2.384,-0.633 0.78,-0.444 1.382,-1.122 1.808,-2.033 l -1.311,0 C -0.808,5.325 -1.037,5.586 -1.237,5.756 -1.824,6.272 -2.529,6.53 -3.349,6.53 -3.986,6.53 -4.572,6.372 -5.109,6.058 -5.646,5.743 -6.065,5.309 -6.369,4.756 -6.672,4.202 -6.823,3.634 -6.823,3.05 c 0,-0.938 0.339,-1.747 1.016,-2.429 0.678,-0.681 1.486,-1.022 2.424,-1.022 0.787,0 1.5,0.267 2.14,0.802 0.219,0.185 0.469,0.463 0.752,0.836 l 0.079,-0.056 1.214,0 C 0.478,0.623 0.211,0.23 0,0" /></g><g
             transform="translate(237.0887,201.2662)"
             id="g53331"><path
               inkscape:connector-curvature="0"
               id="path53333"
               style="fill:#fcc400;fill-opacity:1;fill-rule:nonzero;stroke:none"
               d="m 0,0 0,-1.118 -3.824,0 0,-2.734 3.7,0 0,-1.119 -3.7,0 0,-2.818 3.824,0 0,-1.113 -5.021,0 0,8.902 L 0,0 z" /></g><g
             transform="translate(239.5175,195.7872)"
             id="g53335"><path
               inkscape:connector-curvature="0"
               id="path53337"
               style="fill:#fcc400;fill-opacity:1;fill-rule:nonzero;stroke:none"
               d="m 0,0 c 0,-1.615 0.641,-2.423 1.923,-2.423 0.575,0 1.026,0.195 1.354,0.584 0.327,0.39 0.49,0.996 0.49,1.816 l 0,5.508 1.192,0 0,-5.508 c 0,-1.295 -0.367,-2.248 -1.101,-2.858 -0.546,-0.455 -1.205,-0.683 -1.977,-0.683 -0.561,0 -1.086,0.137 -1.576,0.412 -0.516,0.286 -0.896,0.676 -1.141,1.169 -0.226,0.456 -0.341,1.107 -0.345,1.955 L -1.203,5.507 0,5.507 0,0 z" /></g><g
             transform="translate(229.0209,181.6936)"
             id="g53339"><path
               inkscape:connector-curvature="0"
               id="path53341"
               style="fill:#ed1c24;fill-opacity:1;fill-rule:nonzero;stroke:none"
               d="M 0,0 0,7.01 -4.75,0 l -1.299,0 0,7.025 -4.79,-7.025 -1.429,0 6.077,8.902 1.339,0 0,-6.979 4.729,6.979 1.315,0 L 1.192,0 0,0 z" /></g><g
             transform="translate(231.3179,181.6936)"
             id="g53343"><path
               inkscape:connector-curvature="0"
               id="path53345"
               style="fill:#ed1c24;fill-opacity:1;fill-rule:nonzero;stroke:none"
               d="m 0,0 0,8.902 1.315,0 4.729,-6.979 0,6.979 1.338,0 L 13.46,0 12.031,0 7.241,7.025 7.241,0 5.942,0 1.192,7.01 1.192,0 0,0 z" /></g><g
             transform="translate(344.162,197.1842)"
             id="g53347"><path
               inkscape:connector-curvature="0"
               id="path53349"
               style="fill:#fcc400;fill-opacity:1;fill-rule:nonzero;stroke:none"
               d="m 0,0 c 0,0.194 0.007,0.265 -0.001,0.333 -0.056,0.438 -0.187,0.845 -0.497,1.178 -0.973,1.043 -2.154,1.737 -3.541,2.056 -0.652,0.15 -1.014,-0.226 -0.896,-0.88 0.04,-0.22 0.1,-0.443 0.191,-0.647 0.436,-0.97 0.987,-1.871 1.682,-2.678 0.295,-0.343 0.635,-0.643 1.03,-0.869 0.887,-0.505 1.553,-0.251 1.857,0.716 C -0.082,-0.496 -0.04,-0.184 0,0 m 6.177,-1.504 c 0.591,-0.024 1.108,0.239 1.635,0.446 2.095,0.822 3.984,2.101 6.149,2.775 0.506,0.158 0.257,0.445 0.027,0.646 -0.85,0.739 -1.733,1.441 -2.661,2.081 -0.5,0.345 -0.76,0.257 -0.861,-0.36 C 10.295,3.031 9.758,2.23 8.982,1.54 8.594,1.196 8.234,0.816 7.89,0.426 7.321,-0.219 6.659,-0.783 6.186,-1.513 6.173,-1.516 6.157,-1.518 6.146,-1.525 6.141,-1.529 6.143,-1.545 6.143,-1.555 c 0.011,0.017 0.022,0.034 0.034,0.051 M -8.3,-4.843 l 0,2.709 c 0.198,0.36 0.155,0.77 0.243,1.152 0.65,2.817 1.982,5.23 4.21,7.119 3.176,2.693 6.842,3.667 10.903,2.922 3.652,-0.671 6.581,-2.596 8.523,-5.783 2.725,-4.473 2.669,-9.015 0.027,-13.537 -0.358,-0.613 -0.923,-1.079 -1.187,-1.751 -2.233,1.034 -4.175,2.449 -5.797,4.315 C 7.23,-6.097 6.061,-4.324 4.665,-2.73 4.513,-2.556 4.498,-2.364 4.498,-2.151 4.494,0.881 4.705,3.884 5.665,6.788 5.815,7.243 5.68,7.474 5.244,7.604 4.297,7.886 3.357,8.192 2.408,8.466 2.064,8.565 1.688,8.689 1.383,8.363 1.084,8.043 1.183,7.662 1.321,7.332 1.882,5.981 2.097,4.568 2.173,3.122 2.328,0.159 2.208,-2.78 1.358,-5.645 c -0.923,-3.114 -2.744,-5.571 -5.479,-7.339 -0.098,0.119 -0.187,0.247 -0.295,0.356 -1.736,1.741 -2.934,3.783 -3.521,6.183 -0.13,0.532 -0.118,1.097 -0.363,1.602" /></g><g
             transform="translate(358.5814,185.1723)"
             id="g53351"><path
               inkscape:connector-curvature="0"
               id="path53353"
               style="fill:#ed1c24;fill-opacity:1;fill-rule:nonzero;stroke:none"
               d="m 0,0 c 0.947,-0.447 1.933,-0.794 2.921,-1.133 0.357,-0.123 0.701,-0.27 1.031,-0.45 l 0,-0.208 c -0.166,-0.037 -0.331,-0.086 -0.5,-0.107 -2.08,-0.266 -4.164,-0.425 -6.262,-0.234 -1.456,0.423 -2.624,1.296 -3.683,2.345 -1.297,1.285 -2.419,2.717 -3.53,4.159 -0.291,0.377 -0.582,0.755 -0.939,1.218 -0.081,-0.337 -0.135,-0.566 -0.192,-0.795 -0.505,-2.037 -1.425,-3.819 -3.119,-5.137 -0.885,-0.69 -1.906,-1.109 -2.928,-1.532 -1.279,-0.31 -2.562,-0.6 -4.006,-0.646 0.988,0.505 1.873,0.95 2.666,1.548 2.735,1.768 4.556,4.225 5.48,7.339 0.85,2.865 0.969,5.804 0.814,8.766 -0.075,1.447 -0.291,2.86 -0.852,4.211 -0.137,0.33 -0.236,0.711 0.062,1.031 0.305,0.326 0.682,0.202 1.026,0.103 0.949,-0.274 1.888,-0.58 2.835,-0.862 0.437,-0.13 0.572,-0.361 0.421,-0.816 C -9.714,15.896 -9.926,12.893 -9.922,9.861 -9.921,9.648 -9.906,9.456 -9.754,9.282 -8.359,7.688 -7.189,5.915 -5.798,4.315 -4.175,2.449 -2.234,1.034 0,0" /></g><g
             transform="translate(350.3484,195.6717)"
             id="g53355"><path
               inkscape:connector-curvature="0"
               id="path53357"
               style="fill:#ed1c24;fill-opacity:1;fill-rule:nonzero;stroke:none"
               d="m 0,0 c 0.473,0.73 1.135,1.294 1.704,1.939 0.343,0.39 0.704,0.769 1.092,1.114 0.776,0.69 1.313,1.49 1.484,2.544 0.1,0.617 0.361,0.704 0.861,0.359 C 6.069,5.316 6.951,4.615 7.802,3.875 8.032,3.675 8.281,3.387 7.775,3.23 5.61,2.556 3.721,1.277 1.625,0.454 1.098,0.248 0.582,-0.015 -0.01,0.009 L 0,0 z" /></g><g
             transform="translate(344.162,197.1842)"
             id="g53359"><path
               inkscape:connector-curvature="0"
               id="path53361"
               style="fill:#ed1c24;fill-opacity:1;fill-rule:nonzero;stroke:none"
               d="m 0,0 c -0.04,-0.184 -0.082,-0.496 -0.175,-0.791 -0.304,-0.967 -0.97,-1.221 -1.857,-0.716 -0.395,0.226 -0.735,0.526 -1.03,0.869 -0.695,0.807 -1.246,1.708 -1.682,2.678 -0.091,0.204 -0.151,0.427 -0.191,0.647 -0.118,0.654 0.244,1.03 0.896,0.88 1.387,-0.319 2.568,-1.013 3.541,-2.056 0.31,-0.333 0.441,-0.74 0.497,-1.178 C 0.007,0.265 0,0.194 0,0" /></g><g
             transform="translate(350.3385,195.6806)"
             id="g53363"><path
               inkscape:connector-curvature="0"
               id="path53365"
               style="fill:#d32310;fill-opacity:1;fill-rule:nonzero;stroke:none"
               d="m 0,0 c -0.011,-0.017 -0.023,-0.034 -0.034,-0.051 0.001,0.01 -0.002,0.026 0.003,0.029 0.012,0.008 0.027,0.009 0.041,0.013 L 0,0 z" /></g><g
             transform="translate(355.7716,183.0407)"
             id="g53367"><path
               inkscape:connector-curvature="0"
               id="path53369"
               style="fill:#fcc400;fill-opacity:1;fill-rule:nonzero;stroke:none"
               d="m 0,0 c -0.669,-0.668 -1.539,-0.99 -2.393,-1.293 -4.137,-1.464 -8.074,-1.017 -11.788,1.33 -0.083,0.053 -0.141,0.146 -0.21,0.22 1.021,0.424 2.042,0.843 2.928,1.532 1.694,1.319 2.614,3.101 3.119,5.138 0.057,0.228 0.111,0.457 0.192,0.795 C -7.796,7.259 -7.505,6.881 -7.213,6.503 -6.102,5.062 -4.981,3.63 -3.684,2.345 -2.624,1.296 -1.456,0.423 0,0" /></g><g
             transform="translate(370.1109,181.9754)"
             id="g53371"><path
               inkscape:connector-curvature="0"
               id="path53373"
               style="fill:#ed1c24;fill-opacity:1;fill-rule:nonzero;stroke:none"
               d="m 0,0 0,8.979 6.983,0 c 1.996,0 2.993,-0.998 2.993,-2.993 l 0,-5.986 -1.995,0 0,5.986 c 0,0.665 -0.333,0.997 -0.998,0.997 l -4.988,0 L 1.995,0 0,0 z" /></g><g
             transform="translate(391.0609,181.9754)"
             id="g53375"><path
               inkscape:connector-curvature="0"
               id="path53377"
               style="fill:#ed1c24;fill-opacity:1;fill-rule:nonzero;stroke:none"
               d="m 0,0 -6.983,0 c -1.996,0 -2.993,0.998 -2.993,2.993 l 0,5.986 9.976,0 0,-1.996 -7.981,0 0,-1.496 7.981,0 0,-1.995 -7.981,0 0,-0.499 c 0,-0.665 0.333,-0.998 0.998,-0.998 L 0,1.995 0,0 z" /></g><g
             transform="translate(392.0586,183.9706)"
             id="g53379"><path
               inkscape:connector-curvature="0"
               id="path53381"
               style="fill:#ed1c24;fill-opacity:1;fill-rule:nonzero;stroke:none"
               d="m 0,0 7.981,0 0,1.496 -4.988,0 C 0.998,1.496 0,2.398 0,4.2 0,6.056 0.998,6.983 2.993,6.983 l 6.983,0 0,-1.995 -7.981,0 0,-1.496 4.988,0 c 1.996,0 2.993,-0.915 2.993,-2.744 0,-1.829 -0.997,-2.743 -2.993,-2.743 L 0,-1.995 0,0 z" /></g><g
             transform="translate(375.9245,192.9066)"
             id="g53383"><path
               inkscape:connector-curvature="0"
               id="path53385"
               style="fill:#fcc400;fill-opacity:1;fill-rule:nonzero;stroke:none"
               d="m 0,0 c -0.481,0.396 -0.916,0.676 -1.306,0.838 -0.523,0.224 -1.1,0.337 -1.73,0.337 -0.4,0 -0.717,-0.046 -0.951,-0.137 0.283,-0.445 0.662,-0.789 1.136,-1.033 0.458,-0.234 0.963,-0.351 1.516,-0.351 0.516,0 0.961,0.115 1.335,0.346 M -1.067,1.813 C -0.56,1.621 0.065,1.217 0.809,0.599 1.397,1.223 1.691,1.909 1.691,2.656 1.691,3.504 1.387,4.222 0.78,4.81 0.182,5.385 -0.536,5.673 -1.374,5.673 -2.226,5.673 -2.958,5.376 -3.572,4.781 -4.16,4.216 -4.454,3.494 -4.454,2.617 c 0,-0.218 0.03,-0.447 0.092,-0.687 0.491,0.14 0.967,0.21 1.428,0.21 0.666,0 1.288,-0.109 1.867,-0.327 m 1.915,-2.495 c -0.679,-0.403 -1.407,-0.605 -2.183,-0.605 -1.18,0 -2.161,0.397 -2.944,1.19 -0.77,0.777 -1.155,1.694 -1.155,2.751 0,0.712 0.18,1.379 0.541,2.001 0.361,0.623 0.851,1.107 1.472,1.451 0.637,0.355 1.337,0.532 2.1,0.532 0.754,0 1.443,-0.166 2.067,-0.497 C 1.399,5.793 1.904,5.301 2.261,4.664 2.619,4.027 2.797,3.356 2.797,2.651 2.797,1.638 2.417,0.742 1.657,-0.034 1.907,-0.206 2.252,-0.292 2.69,-0.292 L 2.632,-1.287 C 2.034,-1.274 1.59,-1.186 1.301,-1.023 1.191,-0.962 1.04,-0.848 0.848,-0.682" /></g><g
             transform="translate(380.5447,194.7341)"
             id="g53387"><path
               inkscape:connector-curvature="0"
               id="path53389"
               style="fill:#fcc400;fill-opacity:1;fill-rule:nonzero;stroke:none"
               d="m 0,0 c 0,-1.394 0.553,-2.091 1.659,-2.091 0.497,0 0.886,0.168 1.168,0.505 0.282,0.336 0.424,0.858 0.424,1.567 l 0,4.751 1.028,0 0,-4.751 c 0,-1.118 -0.317,-1.94 -0.95,-2.467 -0.471,-0.393 -1.04,-0.589 -1.706,-0.589 -0.484,0 -0.937,0.118 -1.36,0.356 -0.445,0.246 -0.773,0.583 -0.984,1.008 -0.195,0.394 -0.294,0.956 -0.298,1.687 L -1.038,4.752 0,4.752 0,0 z" /></g><path
             inkscape:connector-curvature="0"
             id="path53391"
             style="fill:#fcc400;fill-opacity:1;fill-rule:nonzero;stroke:none"
             d="m 387.1,191.781 -1.033,0 0,7.681 1.033,0 0,-7.681 z" /><g
             transform="translate(394.9413,192.9602)"
             id="g53393"><path
               inkscape:connector-curvature="0"
               id="path53395"
               style="fill:#fcc400;fill-opacity:1;fill-rule:nonzero;stroke:none"
               d="m 0,0 c -0.796,-0.877 -1.78,-1.316 -2.953,-1.316 -0.705,0 -1.368,0.177 -1.989,0.531 -0.63,0.361 -1.118,0.845 -1.464,1.453 -0.346,0.607 -0.519,1.267 -0.519,1.978 0,0.718 0.175,1.381 0.526,1.989 0.351,0.607 0.837,1.083 1.457,1.428 0.634,0.351 1.295,0.526 1.984,0.526 0.731,0 1.416,-0.182 2.056,-0.546 0.673,-0.383 1.193,-0.968 1.56,-1.754 l -1.131,0 C -0.697,4.594 -0.895,4.82 -1.067,4.966 -1.574,5.411 -2.182,5.634 -2.89,5.634 -3.439,5.634 -3.945,5.498 -4.408,5.227 -4.871,4.956 -5.233,4.581 -5.495,4.104 -5.757,3.626 -5.887,3.135 -5.887,2.632 c 0,-0.809 0.292,-1.508 0.877,-2.096 0.585,-0.588 1.282,-0.882 2.091,-0.882 0.679,0 1.294,0.231 1.847,0.692 0.188,0.159 0.404,0.4 0.648,0.721 l 0.068,-0.048 1.048,0 C 0.413,0.538 0.182,0.198 0,0" /></g><g
             transform="translate(402.0348,199.4615)"
             id="g53397"><path
               inkscape:connector-curvature="0"
               id="path53399"
               style="fill:#fcc400;fill-opacity:1;fill-rule:nonzero;stroke:none"
               d="m 0,0 -3.048,-3.751 3.038,-3.93 -1.303,0 -2.398,3.114 -0.804,-0.993 0,-2.121 -1.034,0 0,7.681 1.034,0 0,-3.996 L -1.328,0 0,0 z" /></g></g></g></g></g></svg>