<?xml version="1.0" encoding="UTF-8" standalone="no"?>
<!-- Created with Inkscape (http://www.inkscape.org/) -->

<svg
   xmlns:dc="http://purl.org/dc/elements/1.1/"
   xmlns:cc="http://creativecommons.org/ns#"
   xmlns:rdf="http://www.w3.org/1999/02/22-rdf-syntax-ns#"
   xmlns:svg="http://www.w3.org/2000/svg"
   xmlns="http://www.w3.org/2000/svg"
   xmlns:sodipodi="http://sodipodi.sourceforge.net/DTD/sodipodi-0.dtd"
   xmlns:inkscape="http://www.inkscape.org/namespaces/inkscape"
   id="svg57324"
   version="1.1"
   inkscape:version="0.48.5 r10040"
   width="256"
   height="256"
   xml:space="preserve"
   sodipodi:docname="Nintendo - Super Nintendo Entertainment System_E.svg"
   inkscape:export-filename="/Users/margetts/Desktop/BAXY RetroActive/png_marked/Nintendo - Super Nintendo Entertainment System_E.png"
   inkscape:export-xdpi="90.099998"
   inkscape:export-ydpi="90.099998"><metadata
     id="metadata57330"><rdf:RDF><cc:Work
         rdf:about=""><dc:format>image/svg+xml</dc:format><dc:type
           rdf:resource="http://purl.org/dc/dcmitype/StillImage" /><dc:title></dc:title></cc:Work></rdf:RDF></metadata><defs
     id="defs57328"><clipPath
       clipPathUnits="userSpaceOnUse"
       id="clipPath57338"><path
         d="M 0,128 128,128 128,0 0,0 0,128 z"
         id="path57340"
         inkscape:connector-curvature="0" /></clipPath></defs><sodipodi:namedview
     pagecolor="#ffffff"
     bordercolor="#666666"
     borderopacity="1"
     objecttolerance="10"
     gridtolerance="10"
     guidetolerance="10"
     inkscape:pageopacity="0"
     inkscape:pageshadow="2"
     inkscape:window-width="1676"
     inkscape:window-height="1005"
     id="namedview57326"
     showgrid="false"
     inkscape:zoom="5.23125"
     inkscape:cx="56.009558"
     inkscape:cy="80"
     inkscape:window-x="4"
     inkscape:window-y="1"
     inkscape:window-maximized="1"
     inkscape:current-layer="g57332" /><g
     id="g57332"
     inkscape:groupmode="layer"
     inkscape:label="Nintendo - Super Nintendo Entertainment System_E"
     transform="matrix(1.25,0,0,-1.25,0,256)"><g
       id="g57334"
       transform="matrix(1.6002415,0,0,1.6002415,-0.0115931,0.50686283)"><g
         id="g57336"
         clip-path="url(#clipPath57338)"><g
           id="g57342"
           transform="translate(115.0489,87.0401)"><path
             d="m 0,0 c -0.181,0.198 -0.395,0.37 -0.64,0.506 l -0.075,0.042 c -1.142,1.091 -4.792,3.928 -12.507,4.723 -2.538,0.261 -5.127,0.393 -7.696,0.393 -4.401,0 -7.226,-0.388 -7.344,-0.405 -0.086,-0.012 -0.17,-0.028 -0.254,-0.048 -0.562,-0.138 -1.212,-0.436 -1.773,-0.909 l -18.541,0 -4.747,0 -17.48,0 c -0.561,0.473 -1.211,0.771 -1.773,0.909 -0.084,0.02 -0.168,0.036 -0.254,0.048 -0.118,0.017 -2.943,0.405 -7.344,0.405 -2.568,0 -5.157,-0.132 -7.695,-0.393 -6.531,-0.673 -10.145,-2.798 -11.82,-4.13 -9.047,-4.761 -14.817,-14.099 -15.077,-24.437 -0.198,-7.887 2.677,-15.291 8.096,-20.849 5.19,-5.321 12.08,-8.252 19.402,-8.252 5.65,0 11.079,1.753 15.701,5.07 0.97,0.696 2.139,1.064 3.383,1.064 l 34.834,0 c 1.232,0 2.399,-0.37 3.377,-1.071 4.619,-3.312 10.045,-5.063 15.69,-5.063 l 0.202,10e-4 c 14.85,0.109 27.099,12.648 27.303,27.95 C 13.1,-14.522 8.154,-5.244 0,0"
             style="fill:#ffffff;fill-opacity:1;fill-rule:nonzero;stroke:none"
             id="path57344"
             inkscape:connector-curvature="0" /></g><g
           id="g57346"
           transform="translate(15.9858,85.5316)"><path
             d="m 0,0 c 0,0 2.89,3.377 11.202,4.233 8.311,0.855 14.422,0 14.422,0 0,0 1.203,-0.245 1.213,-1.223 L -0.394,-0.22"
             style="fill:#999999;fill-opacity:1;fill-rule:nonzero;stroke:none"
             id="path57348"
             inkscape:connector-curvature="0" /></g><g
           id="g57350"
           transform="translate(112.7659,85.5316)"><path
             d="m 0,0 c 0,0 -2.89,3.377 -11.202,4.233 -8.311,0.855 -14.422,0 -14.422,0 0,0 -1.203,-0.245 -1.213,-1.223 L 0.394,-0.22"
             style="fill:#999999;fill-opacity:1;fill-rule:nonzero;stroke:none"
             id="path57352"
             inkscape:connector-curvature="0" /></g><g
           id="g57354"
           transform="translate(100.512,88.7819)"><path
             d="m 0,0 -72.721,0 c -13.564,0 -24.85,-11.085 -25.203,-25.102 -0.366,-14.557 10.94,-26.477 24.939,-26.477 5.28,0 10.176,1.696 14.208,4.59 1.427,1.025 3.137,1.544 4.875,1.544 l 34.834,0 c 1.737,0 3.442,-0.527 4.869,-1.551 4.077,-2.922 9.036,-4.622 14.381,-4.582 13.505,0.099 24.577,11.464 24.763,25.424 C 25.137,-11.744 13.895,0 0,0"
             style="fill:#a6a6a6;fill-opacity:1;fill-rule:nonzero;stroke:none"
             id="path57356"
             inkscape:connector-curvature="0" /></g><g
           id="g57358"
           transform="translate(123.6235,62.5645)"><path
             d="m 0,0 c 0,-12.994 -10.534,-23.528 -23.528,-23.528 -12.995,0 -23.529,10.534 -23.529,23.528 0,12.994 10.534,23.528 23.529,23.528 C -10.534,23.528 0,12.994 0,0"
             style="fill:#737373;fill-opacity:1;fill-rule:nonzero;stroke:none"
             id="path57360"
             inkscape:connector-curvature="0" /></g><g
           id="g57362"
           transform="translate(37.7388,66.4688)"><path
             d="m 0,0 -5.509,0 0,5.509 c 0,0.721 -0.585,1.305 -1.305,1.305 l -5.482,0 c -0.721,0 -1.306,-0.584 -1.306,-1.305 l 0,-5.509 -5.509,0 c -0.72,0 -1.305,-0.584 -1.305,-1.305 l 0,-5.482 c 0,-0.721 0.585,-1.305 1.305,-1.305 l 5.509,0 0,-5.509 c 0,-0.721 0.585,-1.305 1.306,-1.305 l 5.482,0 c 0.72,0 1.305,0.584 1.305,1.305 l 0,5.509 5.509,0 c 0.721,0 1.305,0.584 1.305,1.305 l 0,5.482 C 1.305,-0.584 0.721,0 0,0"
             style="fill:#191919;fill-opacity:1;fill-rule:nonzero;stroke:none"
             id="path57364"
             inkscape:connector-curvature="0" /></g><g
           id="g57366"
           transform="translate(25.6356,62.4228)"><path
             d="M 0,0 C 0,1.407 1.141,2.548 2.548,2.548 3.955,2.548 5.096,1.407 5.096,0 5.096,-1.407 3.955,-2.548 2.548,-2.548 1.141,-2.548 0,-1.407 0,0"
             style="fill:#262626;fill-opacity:1;fill-rule:nonzero;stroke:none"
             id="path57368"
             inkscape:connector-curvature="0" /></g><g
           id="g57370"
           transform="translate(84.6947,67.8202)"><path
             d="m 0,0 11.123,8.617 c 0,0 4.583,4.033 8.922,-0.672 0,0 3.789,-4.767 -1.956,-9.106 L 6.417,-10.328 c 0,0 -4.522,-2.261 -7.578,1.711 0,0 -3.484,4.217 1.161,8.617"
             style="fill:#b3b3b3;fill-opacity:1;fill-rule:nonzero;stroke:none"
             id="path57372"
             inkscape:connector-curvature="0" /></g><g
           id="g57374"
           transform="translate(88.1781,67.4537)"><path
             d="m 0,0 c -2.565,0 -4.645,-2.08 -4.645,-4.645 0,-2.565 2.08,-4.644 4.645,-4.644 2.565,0 4.645,2.079 4.645,4.644 C 4.645,-2.08 2.565,0 0,0"
             style="fill:#2a803e;fill-opacity:1;fill-rule:nonzero;stroke:none"
             id="path57376"
             inkscape:connector-curvature="0" /></g><g
           id="g57378"
           transform="translate(100.0952,76.7427)"><path
             d="m 0,0 c -2.565,0 -4.645,-2.079 -4.645,-4.645 0,-2.565 2.08,-4.644 4.645,-4.644 2.565,0 4.645,2.079 4.645,4.644 C 4.645,-2.079 2.565,0 0,0"
             style="fill:#3659a7;fill-opacity:1;fill-rule:nonzero;stroke:none"
             id="path57380"
             inkscape:connector-curvature="0" /></g><g
           id="g57382"
           transform="translate(96.5377,58.536)"><path
             d="m 0,0 11.123,8.617 c 0,0 4.583,4.033 8.922,-0.672 0,0 3.789,-4.767 -1.956,-9.106 L 6.417,-10.328 c 0,0 -4.523,-2.261 -7.578,1.711 0,0 -3.484,4.217 1.161,8.617"
             style="fill:#b3b3b3;fill-opacity:1;fill-rule:nonzero;stroke:none"
             id="path57384"
             inkscape:connector-curvature="0" /></g><g
           id="g57386"
           transform="translate(100.0211,58.1693)"><path
             d="m 0,0 c -2.565,0 -4.645,-2.079 -4.645,-4.645 0,-2.565 2.08,-4.644 4.645,-4.644 2.565,0 4.645,2.079 4.645,4.644 C 4.645,-2.079 2.565,0 0,0"
             style="fill:#fbb031;fill-opacity:1;fill-rule:nonzero;stroke:none"
             id="path57388"
             inkscape:connector-curvature="0" /></g><g
           id="g57390"
           transform="translate(116.5826,62.814)"><path
             d="M 0,0 C 0,0.321 -0.033,0.634 -0.094,0.936 -0.218,1.541 -0.459,2.103 -0.793,2.597 -1.127,3.091 -1.553,3.517 -2.048,3.851 -2.789,4.352 -3.683,4.645 -4.645,4.645 -5.606,4.645 -6.5,4.352 -7.241,3.851 -7.736,3.517 -8.162,3.091 -8.496,2.597 -8.83,2.103 -9.071,1.541 -9.195,0.936 -9.257,0.634 -9.289,0.321 -9.289,0 l 0,0 c 0,-0.321 0.032,-0.634 0.094,-0.936 0.433,-2.117 2.306,-3.709 4.55,-3.709 2.245,0 4.118,1.592 4.551,3.709 C -0.033,-0.634 0,-0.321 0,0 z"
             style="fill:#bd2026;fill-opacity:1;fill-rule:nonzero;stroke:none"
             id="path57392"
             inkscape:connector-curvature="0" /></g><g
           id="g57394"
           transform="translate(70.4697,61.8257)"><path
             d="m 0,0 c -0.322,0.42 -0.811,0.661 -1.341,0.661 -0.374,0 -0.729,-0.121 -1.026,-0.349 l -5.822,-4.466 c -0.739,-0.566 -0.879,-1.628 -0.312,-2.367 0.322,-0.42 0.811,-0.661 1.341,-0.661 0.373,0 0.728,0.121 1.026,0.349 l 5.822,4.466 C 0.427,-1.8 0.567,-0.739 0,0"
             style="fill:#191919;fill-opacity:1;fill-rule:nonzero;stroke:none"
             id="path57396"
             inkscape:connector-curvature="0" /></g><g
           id="g57398"
           transform="translate(55.6029,62.4865)"><path
             d="m 0,0 c -0.374,0 -0.729,-0.12 -1.026,-0.349 l -5.822,-4.466 c -0.358,-0.274 -0.588,-0.672 -0.647,-1.119 -0.059,-0.446 0.06,-0.89 0.334,-1.248 0.323,-0.42 0.811,-0.66 1.341,-0.66 0.374,0 0.729,0.12 1.026,0.348 l 5.823,4.466 c 0.357,0.275 0.587,0.672 0.646,1.119 0.059,0.447 -0.06,0.89 -0.334,1.248 C 1.018,-0.241 0.53,0 0,0"
             style="fill:#191919;fill-opacity:1;fill-rule:nonzero;stroke:none"
             id="path57400"
             inkscape:connector-curvature="0" /></g><g
           id="g57402"
           transform="translate(19.2446,62.7836)"><path
             d="m 0,0 3.164,1.826 c 0.277,0.161 0.625,-0.04 0.625,-0.36 l 0,-3.653 c 0,-0.321 -0.348,-0.521 -0.625,-0.361 L 0,-0.722 C -0.278,-0.561 -0.278,-0.16 0,0"
             style="fill:#262626;fill-opacity:1;fill-rule:nonzero;stroke:none"
             id="path57404"
             inkscape:connector-curvature="0" /></g><g
           id="g57406"
           transform="translate(37.1224,62.0621)"><path
             d="m 0,0 -3.164,-1.826 c -0.277,-0.161 -0.625,0.04 -0.625,0.36 l 0,3.653 c 0,0.321 0.348,0.521 0.625,0.361 L 0,0.722 C 0.278,0.561 0.278,0.16 0,0"
             style="fill:#262626;fill-opacity:1;fill-rule:nonzero;stroke:none"
             id="path57408"
             inkscape:connector-curvature="0" /></g><g
           id="g57410"
           transform="translate(28.5442,71.3617)"><path
             d="m 0,0 1.826,-3.164 c 0.161,-0.277 -0.04,-0.625 -0.36,-0.625 l -3.653,0 c -0.321,0 -0.521,0.348 -0.361,0.625 L -0.722,0 C -0.561,0.278 -0.16,0.278 0,0"
             style="fill:#262626;fill-opacity:1;fill-rule:nonzero;stroke:none"
             id="path57412"
             inkscape:connector-curvature="0" /></g><g
           id="g57414"
           transform="translate(27.8228,53.4839)"><path
             d="m 0,0 -1.826,3.164 c -0.161,0.277 0.04,0.625 0.36,0.625 l 3.653,0 c 0.321,0 0.521,-0.348 0.361,-0.625 L 0.722,0 C 0.561,-0.278 0.16,-0.278 0,0"
             style="fill:#262626;fill-opacity:1;fill-rule:nonzero;stroke:none"
             id="path57416"
             inkscape:connector-curvature="0" /></g><g
           id="g57418"
           transform="translate(28.405,77.2927)"><path
             d="m 0,0 c -7.963,0 -14.418,-6.455 -14.418,-14.418 0,-7.962 6.455,-14.417 14.418,-14.417 7.963,0 14.418,6.455 14.418,14.417 C 14.418,-6.455 7.963,0 0,0 m 0,-0.489 c 7.68,0 13.929,-6.248 13.929,-13.929 0,-7.68 -6.249,-13.929 -13.929,-13.929 -7.68,0 -13.929,6.249 -13.929,13.929 0,7.681 6.249,13.929 13.929,13.929"
             style="fill:#999999;fill-opacity:1;fill-rule:nonzero;stroke:none"
             id="path57420"
             inkscape:connector-curvature="0" /></g><path
           d="m 66.219,87.968 -4.747,0 0,0.814 4.747,0 0,-0.814 z"
           style="fill:#999999;fill-opacity:1;fill-rule:nonzero;stroke:none"
           id="path57422"
           inkscape:connector-curvature="0" /><g
           id="g57424"
           transform="translate(48.7355,78.9988)"><path
             d="m 0,0 -1.151,0 c -0.22,0 -0.308,0.163 -0.241,0.457 l 0.27,1.188 0.571,0 -0.232,-1.018 0.701,0 0.223,0.979 -0.824,1.416 C -0.753,3.133 -0.76,3.231 -0.717,3.42 l 0.252,1.11 c 0.067,0.294 0.229,0.457 0.45,0.457 l 1.151,0 c 0.22,0 0.308,-0.163 0.243,-0.45 L 1.125,3.42 l -0.571,0 0.214,0.94 -0.701,0 -0.205,-0.9 0.825,-1.41 C 0.755,1.932 0.763,1.834 0.72,1.645 L 0.45,0.457 C 0.383,0.163 0.22,0 0,0"
             style="fill:#808080;fill-opacity:1;fill-rule:nonzero;stroke:none"
             id="path57426"
             inkscape:connector-curvature="0" /></g><g
           id="g57428"
           transform="translate(51.0965,78.9988)"><path
             d="m 0,0 -1.216,0 c -0.225,0 -0.308,0.163 -0.241,0.457 l 1.031,4.53 0.571,0 -0.99,-4.347 0.77,0 0.99,4.347 0.571,0 -1.032,-4.53 C 0.388,0.163 0.225,0 0,0"
             style="fill:#808080;fill-opacity:1;fill-rule:nonzero;stroke:none"
             id="path57430"
             inkscape:connector-curvature="0" /></g><g
           id="g57432"
           transform="translate(54.1669,83.3463)"><path
             d="m 0,0 -0.701,0 -0.432,-1.9 0.7,0 L 0,0 z m -0.353,-2.539 -0.926,0 -0.412,-1.808 -0.57,0 1.135,4.986 1.497,0 c 0.225,0 0.313,-0.163 0.246,-0.456 L 0.103,-2.076 C 0.036,-2.37 -0.128,-2.539 -0.353,-2.539"
             style="fill:#808080;fill-opacity:1;fill-rule:nonzero;stroke:none"
             id="path57434"
             inkscape:connector-curvature="0" /></g><g
           id="g57436"
           transform="translate(54.1518,78.9988)"><path
             d="m 0,0 1.136,4.987 1.571,0 -0.15,-0.659 -1.001,0 -0.332,-1.456 0.861,0 -0.147,-0.646 -0.861,0 -0.357,-1.567 1.016,0 L 1.586,0 0,0 z"
             style="fill:#808080;fill-opacity:1;fill-rule:nonzero;stroke:none"
             id="path57438"
             inkscape:connector-curvature="0" /></g><g
           id="g57440"
           transform="translate(59.4086,78.9988)"><path
             d="m 0,0 1.136,4.987 0.57,0 -0.984,-4.321 0.931,0 L 1.501,0 0,0 z"
             style="fill:#808080;fill-opacity:1;fill-rule:nonzero;stroke:none"
             id="path57442"
             inkscape:connector-curvature="0" /></g><g
           id="g57444"
           transform="translate(61.2592,78.9988)"><path
             d="m 0,0 1.136,4.987 0.57,0 L 0.57,0 0,0 z"
             style="fill:#808080;fill-opacity:1;fill-rule:nonzero;stroke:none"
             id="path57446"
             inkscape:connector-curvature="0" /></g><g
           id="g57448"
           transform="translate(64.0677,81.0486)"><path
             d="m 0,0 -0.226,0.241 -0.45,0 -0.379,-1.664 0.731,0 L 0,0 z m 0.511,2.311 -0.716,0 -0.333,-1.463 0.441,0 0.333,0.255 0.275,1.208 z m -0.753,-4.361 -1.526,0 1.136,4.987 1.516,0 c 0.22,0 0.303,-0.163 0.236,-0.457 L 0.827,1.194 C 0.774,0.96 0.698,0.848 0.54,0.744 L 0.261,0.555 0.466,0.352 C 0.577,0.248 0.604,0.124 0.55,-0.111 L 0.213,-1.593 C 0.146,-1.886 -0.017,-2.05 -0.242,-2.05"
             style="fill:#808080;fill-opacity:1;fill-rule:nonzero;stroke:none"
             id="path57450"
             inkscape:connector-curvature="0" /></g><g
           id="g57452"
           transform="translate(65.9768,78.9988)"><path
             d="M 0,0 -0.103,2.317 0,2.768 l 0.56,0 0.36,1.579 -0.721,0 -0.99,-4.347 -0.57,0 1.135,4.987 1.517,0 c 0.225,0 0.308,-0.163 0.241,-0.457 L 1.119,2.715 C 1.052,2.422 0.896,2.265 0.675,2.259 l -0.196,0 L 0.602,0.026 0.596,0 0,0 z"
             style="fill:#808080;fill-opacity:1;fill-rule:nonzero;stroke:none"
             id="path57454"
             inkscape:connector-curvature="0" /></g><g
           id="g57456"
           transform="translate(66.9215,78.9988)"><path
             d="m 0,0 1.136,4.987 1.571,0 -0.15,-0.659 -1.001,0 -0.331,-1.456 0.86,0 -0.147,-0.646 -0.86,0 -0.357,-1.567 1.015,0 L 1.586,0 0,0 z"
             style="fill:#808080;fill-opacity:1;fill-rule:nonzero;stroke:none"
             id="path57458"
             inkscape:connector-curvature="0" /></g><g
           id="g57460"
           transform="translate(70.9134,83.3266)"><path
             d="m 0,0 -0.986,-4.328 -0.57,0 0.986,4.328 -0.626,0 0.15,0.659 1.827,0 L 0.631,0 0,0 z"
             style="fill:#808080;fill-opacity:1;fill-rule:nonzero;stroke:none"
             id="path57462"
             inkscape:connector-curvature="0" /></g><g
           id="g57464"
           transform="translate(72.2093,78.9988)"><path
             d="M 0,0 -0.103,2.317 0,2.768 l 0.56,0 0.36,1.579 -0.72,0 L -0.79,0 l -0.571,0 1.135,4.987 1.517,0 c 0.225,0 0.308,-0.163 0.241,-0.457 L 1.119,2.715 C 1.052,2.422 0.896,2.265 0.675,2.259 l -0.196,0 L 0.602,0.026 0.596,0 0,0 z"
             style="fill:#808080;fill-opacity:1;fill-rule:nonzero;stroke:none"
             id="path57466"
             inkscape:connector-curvature="0" /></g><g
           id="g57468"
           transform="translate(75.5,83.3463)"><path
             d="m 0,0 -0.786,0 -0.844,-3.708 0.786,0 L 0,0 z m -0.765,-4.347 -1.241,0 c -0.22,0 -0.303,0.163 -0.236,0.456 l 0.927,4.074 c 0.067,0.293 0.224,0.456 0.445,0.456 l 1.241,0 c 0.22,0 0.308,-0.163 0.241,-0.456 l -0.928,-4.074 c -0.067,-0.293 -0.229,-0.456 -0.449,-0.456"
             style="fill:#808080;fill-opacity:1;fill-rule:nonzero;stroke:none"
             id="path57470"
             inkscape:connector-curvature="0" /></g><g
           id="g57472"
           transform="translate(57.956,81.4467)"><path
             d="m 0,0 -0.7,0 0.432,1.9 0.701,0 L 0,0 z m 0.803,2.539 -1.496,0 -1.136,-4.987 0.571,0 0.412,1.808 0.001,0 0.412,-1.808 0.57,0 -0.411,1.808 0.353,0 c 0.226,0 0.389,0.17 0.456,0.464 L 1.05,2.082 C 1.117,2.376 1.029,2.539 0.803,2.539"
             style="fill:#808080;fill-opacity:1;fill-rule:nonzero;stroke:none"
             id="path57474"
             inkscape:connector-curvature="0" /></g><path
           d="m 75.5,76.929 -28.179,0 0,1.678 28.179,0 0,-1.678 z"
           style="fill:#808080;fill-opacity:1;fill-rule:nonzero;stroke:none"
           id="path57476"
           inkscape:connector-curvature="0" /><g
           id="g57478"
           transform="translate(47.7488,77.2044)"><path
             d="m 0,0 0.271,1.189 0.488,0 -0.035,-0.157 -0.312,0 -0.079,-0.347 0.268,0 -0.035,-0.154 -0.268,0 -0.085,-0.374 0.316,0 L 0.493,0 0,0 z"
             style="fill:#a6a6a6;fill-opacity:1;fill-rule:nonzero;stroke:none"
             id="path57480"
             inkscape:connector-curvature="0" /></g><g
           id="g57482"
           transform="translate(50.0329,77.2044)"><path
             d="m 0,0 0.134,0.587 c 0.01,0.045 0.04,0.129 0.04,0.129 l -0.292,-0.607 -0.091,0 -0.016,0.607 c 0,0 -0.008,-0.084 -0.018,-0.129 L -0.377,0 l -0.171,0 0.271,1.189 0.168,0 0.037,-0.657 C -0.071,0.522 -0.08,0.478 -0.08,0.478 c 0,0 0.012,0.044 0.017,0.054 l 0.337,0.657 0.168,0 L 0.171,0 0,0 z"
             style="fill:#a6a6a6;fill-opacity:1;fill-rule:nonzero;stroke:none"
             id="path57484"
             inkscape:connector-curvature="0" /></g><g
           id="g57486"
           transform="translate(51.9529,77.2044)"><path
             d="m 0,0 -0.378,0 c -0.07,0 -0.099,0.039 -0.083,0.109 l 0.246,1.08 0.178,0 -0.236,-1.037 0.24,0 0.236,1.037 0.177,0 -0.246,-1.08 C 0.118,0.039 0.07,0 0,0"
             style="fill:#a6a6a6;fill-opacity:1;fill-rule:nonzero;stroke:none"
             id="path57488"
             inkscape:connector-curvature="0" /></g><g
           id="g57490"
           transform="translate(53.3268,77.2044)"><path
             d="m 0,0 0.271,1.189 0.177,0 -0.234,-1.03 0.289,0 L 0.467,0 0,0 z"
             style="fill:#a6a6a6;fill-opacity:1;fill-rule:nonzero;stroke:none"
             id="path57492"
             inkscape:connector-curvature="0" /></g><g
           id="g57494"
           transform="translate(55.5221,78.1196)"><path
             d="m 0,0 -0.21,-0.537 0.175,0 L 0,0 z m -0.061,-0.915 0.016,0.225 -0.223,0 -0.087,-0.225 -0.176,0 0.001,0.003 0.501,1.188 0.187,0 -0.042,-1.188 -0.001,-0.003 -0.176,0 z"
             style="fill:#a6a6a6;fill-opacity:1;fill-rule:nonzero;stroke:none"
             id="path57496"
             inkscape:connector-curvature="0" /></g><g
           id="g57498"
           transform="translate(57.3473,78.2365)"><path
             d="m 0,0 -0.235,-1.032 -0.177,0 0.235,1.032 -0.195,0 0.035,0.157 0.569,0 L 0.196,0 0,0 z"
             style="fill:#a6a6a6;fill-opacity:1;fill-rule:nonzero;stroke:none"
             id="path57500"
             inkscape:connector-curvature="0" /></g><g
           id="g57502"
           transform="translate(58.5233,77.2044)"><path
             d="m 0,0 0.271,1.189 0.177,0 L 0.177,0 0,0 z"
             style="fill:#a6a6a6;fill-opacity:1;fill-rule:nonzero;stroke:none"
             id="path57504"
             inkscape:connector-curvature="0" /></g><g
           id="g57506"
           transform="translate(60.6261,78.2411)"><path
             d="m 0,0 -0.244,0 -0.202,-0.884 0.245,0 L 0,0 z m -0.166,-1.037 -0.386,0 c -0.069,0 -0.097,0.039 -0.081,0.109 l 0.221,0.972 c 0.016,0.07 0.062,0.109 0.131,0.109 l 0.386,0 c 0.068,0 0.098,-0.039 0.082,-0.109 l -0.221,-0.972 c -0.016,-0.07 -0.064,-0.109 -0.132,-0.109"
             style="fill:#a6a6a6;fill-opacity:1;fill-rule:nonzero;stroke:none"
             id="path57508"
             inkscape:connector-curvature="0" /></g><g
           id="g57510"
           transform="translate(62.2786,77.2044)"><path
             d="m 0,0 -0.114,0.749 c 0,0 -0.002,-0.055 -0.009,-0.086 L -0.274,0 l -0.173,0 0.271,1.189 0.156,0 0.118,-0.733 c 0,0 0.001,0.055 0.008,0.086 l 0.148,0.647 0.173,0 L 0.156,0 0,0 z"
             style="fill:#a6a6a6;fill-opacity:1;fill-rule:nonzero;stroke:none"
             id="path57512"
             inkscape:connector-curvature="0" /></g><g
           id="g57514"
           transform="translate(65.6036,77.2044)"><path
             d="m 0,0 -0.358,0 c -0.068,0 -0.099,0.039 -0.083,0.109 l 0.065,0.283 0.177,0 -0.055,-0.243 0.218,0 0.053,0.234 -0.279,0.338 C -0.286,0.747 -0.29,0.771 -0.28,0.816 l 0.061,0.264 c 0.016,0.07 0.063,0.109 0.132,0.109 l 0.358,0 c 0.068,0 0.098,-0.039 0.083,-0.107 l -0.061,-0.266 -0.177,0 0.051,0.224 -0.218,0 L -0.1,0.825 0.18,0.489 C 0.203,0.461 0.207,0.437 0.197,0.392 L 0.132,0.109 C 0.116,0.039 0.069,0 0,0"
             style="fill:#a6a6a6;fill-opacity:1;fill-rule:nonzero;stroke:none"
             id="path57516"
             inkscape:connector-curvature="0" /></g><g
           id="g57518"
           transform="translate(67.4362,77.6418)"><path
             d="m 0,0 -0.1,-0.437 -0.179,0 0.1,0.437 -0.065,0.746 0.001,0.006 0.184,0 0.024,-0.517 0.259,0.517 0.182,0 L 0.405,0.746 0,0 z"
             style="fill:#a6a6a6;fill-opacity:1;fill-rule:nonzero;stroke:none"
             id="path57520"
             inkscape:connector-curvature="0" /></g><g
           id="g57522"
           transform="translate(69.2475,77.2044)"><path
             d="m 0,0 -0.358,0 c -0.068,0 -0.099,0.039 -0.083,0.109 l 0.065,0.283 0.177,0 -0.055,-0.243 0.218,0 0.053,0.234 -0.279,0.338 C -0.286,0.747 -0.29,0.771 -0.28,0.816 l 0.061,0.264 c 0.016,0.07 0.063,0.109 0.132,0.109 l 0.358,0 c 0.068,0 0.098,-0.039 0.083,-0.107 l -0.061,-0.266 -0.177,0 0.051,0.224 -0.218,0 L -0.1,0.825 0.18,0.489 C 0.203,0.461 0.207,0.437 0.197,0.392 L 0.132,0.109 C 0.116,0.039 0.069,0 0,0"
             style="fill:#a6a6a6;fill-opacity:1;fill-rule:nonzero;stroke:none"
             id="path57524"
             inkscape:connector-curvature="0" /></g><g
           id="g57526"
           transform="translate(71.1736,78.2365)"><path
             d="m 0,0 -0.235,-1.032 -0.177,0 0.235,1.032 -0.195,0 0.035,0.157 0.569,0 L 0.196,0 0,0 z"
             style="fill:#a6a6a6;fill-opacity:1;fill-rule:nonzero;stroke:none"
             id="path57528"
             inkscape:connector-curvature="0" /></g><g
           id="g57530"
           transform="translate(72.3465,77.2044)"><path
             d="m 0,0 0.271,1.189 0.489,0 -0.036,-0.157 -0.312,0 -0.079,-0.347 0.268,0 -0.035,-0.154 -0.268,0 -0.085,-0.374 0.316,0 L 0.493,0 0,0 z"
             style="fill:#a6a6a6;fill-opacity:1;fill-rule:nonzero;stroke:none"
             id="path57532"
             inkscape:connector-curvature="0" /></g><g
           id="g57534"
           transform="translate(74.6306,77.2044)"><path
             d="m 0,0 0.134,0.587 c 0.01,0.045 0.04,0.129 0.04,0.129 l -0.292,-0.607 -0.091,0 -0.016,0.607 c 0,0 -0.008,-0.084 -0.018,-0.129 L -0.377,0 l -0.171,0 0.271,1.189 0.168,0 0.037,-0.657 C -0.071,0.522 -0.08,0.478 -0.08,0.478 c 0,0 0.012,0.044 0.018,0.054 l 0.336,0.657 0.168,0 L 0.171,0 0,0 z"
             style="fill:#a6a6a6;fill-opacity:1;fill-rule:nonzero;stroke:none"
             id="path57536"
             inkscape:connector-curvature="0" /></g><g
           id="g57538"
           transform="translate(39.0393,80.4576)"><path
             d="m 0,0 c 0,-0.622 -0.713,-1.126 -1.592,-1.126 -0.879,0 -1.592,0.504 -1.592,1.126 0,0.622 0.713,1.126 1.592,1.126 C -0.713,1.126 0,0.622 0,0"
             style="fill:#808080;fill-opacity:1;fill-rule:nonzero;stroke:none"
             id="path57540"
             inkscape:connector-curvature="0" /></g><g
           id="g57542"
           transform="translate(42.0414,78.3861)"><path
             d="m 0,0 c 0,-0.622 -0.713,-1.126 -1.592,-1.126 -0.879,0 -1.592,0.504 -1.592,1.126 0,0.622 0.713,1.126 1.592,1.126 C -0.713,1.126 0,0.622 0,0"
             style="fill:#808080;fill-opacity:1;fill-rule:nonzero;stroke:none"
             id="path57544"
             inkscape:connector-curvature="0" /></g><g
           id="g57546"
           transform="translate(42.1505,82.529)"><path
             d="m 0,0 c 0,-0.622 -0.713,-1.126 -1.592,-1.126 -0.879,0 -1.592,0.504 -1.592,1.126 0,0.622 0.713,1.126 1.592,1.126 C -0.713,1.126 0,0.622 0,0"
             style="fill:#808080;fill-opacity:1;fill-rule:nonzero;stroke:none"
             id="path57548"
             inkscape:connector-curvature="0" /></g><g
           id="g57550"
           transform="translate(45.1526,80.4576)"><path
             d="m 0,0 c 0,-0.622 -0.713,-1.126 -1.592,-1.126 -0.879,0 -1.592,0.504 -1.592,1.126 0,0.622 0.713,1.126 1.592,1.126 C -0.713,1.126 0,0.622 0,0"
             style="fill:#808080;fill-opacity:1;fill-rule:nonzero;stroke:none"
             id="path57552"
             inkscape:connector-curvature="0" /></g></g></g></g></svg>