<?xml version="1.0" encoding="UTF-8" standalone="no"?>
<!-- Created with Inkscape (http://www.inkscape.org/) -->

<svg
   xmlns:dc="http://purl.org/dc/elements/1.1/"
   xmlns:cc="http://creativecommons.org/ns#"
   xmlns:rdf="http://www.w3.org/1999/02/22-rdf-syntax-ns#"
   xmlns:svg="http://www.w3.org/2000/svg"
   xmlns="http://www.w3.org/2000/svg"
   xmlns:sodipodi="http://sodipodi.sourceforge.net/DTD/sodipodi-0.dtd"
   xmlns:inkscape="http://www.inkscape.org/namespaces/inkscape"
   id="svg51960"
   version="1.1"
   inkscape:version="0.48.5 r10040"
   width="256"
   height="256"
   xml:space="preserve"
   sodipodi:docname="Nintendo - Nintendo DS Decrypted-content.svg"
   inkscape:export-filename="/Users/margetts/Desktop/BAXY RetroActive/png_marked/Nintendo - Nintendo DS Decrypted-content.png"
   inkscape:export-xdpi="90.099998"
   inkscape:export-ydpi="90.099998"><metadata
     id="metadata51966"><rdf:RDF><cc:Work
         rdf:about=""><dc:format>image/svg+xml</dc:format><dc:type
           rdf:resource="http://purl.org/dc/dcmitype/StillImage" /><dc:title></dc:title></cc:Work></rdf:RDF></metadata><defs
     id="defs51964"><clipPath
       clipPathUnits="userSpaceOnUse"
       id="clipPath51974"><path
         d="M 0,128 128,128 128,0 0,0 0,128 z"
         id="path51976"
         inkscape:connector-curvature="0" /></clipPath></defs><sodipodi:namedview
     pagecolor="#ffffff"
     bordercolor="#666666"
     borderopacity="1"
     objecttolerance="10"
     gridtolerance="10"
     guidetolerance="10"
     inkscape:pageopacity="0"
     inkscape:pageshadow="2"
     inkscape:window-width="1676"
     inkscape:window-height="1005"
     id="namedview51962"
     showgrid="false"
     inkscape:zoom="5.14375"
     inkscape:cx="55.601458"
     inkscape:cy="80"
     inkscape:window-x="4"
     inkscape:window-y="1"
     inkscape:window-maximized="1"
     inkscape:current-layer="g51968" /><g
     id="g51968"
     inkscape:groupmode="layer"
     inkscape:label="Nintendo - Nintendo DS Decrypted-content"
     transform="matrix(1.25,0,0,-1.25,0,256)"><g
       id="g51970"
       transform="matrix(1.6,0,0,1.6,0.192,0)"><g
         id="g51972"
         clip-path="url(#clipPath51974)"><g
           id="g51978"
           transform="translate(115.08,128)"><path
             d="m 0,0 -102.4,0 c -4.235,0 -7.68,-3.445 -7.68,-7.68 l 0,-98.64 0,-6.32 0,-0.4 0,-2.56 0.316,0 c 1.37,-7.123 7.562,-12.4 15.044,-12.4 L 0,-128 c 1.154,0 2.286,0.268 3.366,0.798 l 1.434,0.702 0,1.182 c 1.654,0.427 2.88,1.932 2.88,3.718 l 0,5.76 0,108.16 C 7.68,-3.445 4.235,0 0,0"
             style="fill:#ffffff;fill-opacity:1;fill-rule:nonzero;stroke:none"
             id="path51980"
             inkscape:connector-curvature="0" /></g><g
           id="g51982"
           transform="translate(119.7,5.12)"><path
             d="m 0,0 -3.2,0 0,7.738 3.7,0 0,-7.238 C 0.5,0.224 0.276,0 0,0"
             style="fill:#4c4c4c;fill-opacity:1;fill-rule:nonzero;stroke:none"
             id="path51984"
             inkscape:connector-curvature="0" /></g><g
           id="g51986"
           transform="translate(111.24,120.1067)"><path
             d="m 0,0 -91.733,0 c -1.765,0 -3.2,-1.436 -3.2,-3.2 l 0,-92.16 0,-0.234 0.15,-0.178 6.827,-8.107 0.192,-0.228 0.297,0 87.467,0 c 1.764,0 3.2,1.436 3.2,3.2 L 3.2,-3.2 C 3.2,-1.436 1.764,0 0,0"
             style="fill:#4c4c4c;fill-opacity:1;fill-rule:nonzero;stroke:none"
             id="path51988"
             inkscape:connector-curvature="0" /></g><g
           id="g51990"
           transform="translate(117.32,12.16)"><path
             d="m 0,0 2.88,0 0,108.16 c 0,2.828 -2.292,5.12 -5.12,5.12 l -102.4,0 c -2.828,0 -5.12,-2.292 -5.12,-5.12 l 0,-104.96 c 0,-7.069 5.731,-12.8 12.8,-12.8 l 94.72,0 c 0.807,0 1.561,0.204 2.24,0.536 L 0,0 z"
             style="fill:#595959;fill-opacity:1;fill-rule:nonzero;stroke:none"
             id="path51992"
             inkscape:connector-curvature="0" /></g><g
           id="g51994"
           transform="translate(59.4,13.76)"><path
             d="M 0,0 13.12,0 6.56,-5.28 0,0 z"
             style="fill:#4c4c4c;fill-opacity:1;fill-rule:nonzero;stroke:none"
             id="path51996"
             inkscape:connector-curvature="0" /></g><path
           d="m 10.453,15.309 -2.893,0 0,6.371 2.893,0 0,-6.371 z"
           style="fill:#4c4c4c;fill-opacity:1;fill-rule:nonzero;stroke:none"
           id="path51998"
           inkscape:connector-curvature="0" /><g
           id="g52000"
           transform="translate(19.5067,119.4667)"><path
             d="m 0,0 91.733,0 c 1.414,0 2.56,-1.146 2.56,-2.56 l 0,-97.707 c 0,-1.414 -1.146,-2.56 -2.56,-2.56 l -87.466,0 -6.827,8.107 0,92.16 C -2.56,-1.146 -1.414,0 0,0"
             style="fill:#e6e6e6;fill-opacity:1;fill-rule:nonzero;stroke:none"
             id="path52002"
             inkscape:connector-curvature="0" /></g><path
           d="m 113.8,27.52 -96.853,0 0,1.28 96.853,0 0,-1.28 z"
           style="fill:#4c4c4c;fill-opacity:1;fill-rule:nonzero;stroke:none"
           id="path52004"
           inkscape:connector-curvature="0" /><g
           id="g52006"
           transform="translate(47.9088,98.7388)"><path
             d="M 0,0 -0.121,0.011 -30.99,2.695 -31.005,3.333 -0.187,0.66 3.379,3.334 30.221,3.334 33.346,0.655 65.917,1.992 65.905,1.352 33.121,0.005 29.984,2.694 3.591,2.694 0,0 z"
             style="fill:#4c4c4c;fill-opacity:1;fill-rule:nonzero;stroke:none"
             id="path52008"
             inkscape:connector-curvature="0" /></g><g
           id="g52010"
           transform="translate(32.1329,115.9703)"><path
             d="m 0,0 1.058,0 0,-3.693 3.411,0 0,-0.855 L 0,-4.548 0,0 z"
             style="fill:#191919;fill-opacity:1;fill-rule:nonzero;stroke:none"
             id="path52012"
             inkscape:connector-curvature="0" /></g><path
           d="m 37.292,115.97 1.058,0 0,-4.548 -1.058,0 0,4.548 z"
           style="fill:#191919;fill-opacity:1;fill-rule:nonzero;stroke:none"
           id="path52014"
           inkscape:connector-curvature="0" /><g
           id="g52016"
           transform="translate(40.8541,113.3967)"><path
             d="m 0,0 0,-1.155 2.415,0 c 0.361,0 0.511,0.071 0.511,0.406 l 0,0.344 C 2.926,-0.07 2.776,0 2.415,0 L 0,0 z m 0,1.833 0,-1.084 2.415,0 c 0.326,0 0.485,0.062 0.485,0.326 l 0,0.432 C 2.9,1.772 2.741,1.833 2.415,1.833 L 0,1.833 z m -1.04,0.741 3.896,0 c 0.696,0 1.022,-0.247 1.022,-0.882 l 0,-0.555 C 3.878,0.696 3.596,0.432 3.094,0.37 3.622,0.3 3.913,-0.018 3.913,-0.502 l 0,-0.582 c 0,-0.608 -0.449,-0.89 -1.339,-0.89 l -3.614,0 0,4.548 z"
             style="fill:#191919;fill-opacity:1;fill-rule:nonzero;stroke:none"
             id="path52018"
             inkscape:connector-curvature="0" /></g><g
           id="g52020"
           transform="translate(46.9921,115.1858)"><path
             d="m 0,0 0,-1.269 2.379,0 c 0.327,0 0.477,0.061 0.477,0.361 l 0,0.547 C 2.856,-0.062 2.706,0 2.379,0 L 0,0 z m -1.04,0.784 3.896,0 c 0.696,0 1.022,-0.246 1.022,-0.881 l 0,-1.066 c 0,-0.635 -0.326,-0.882 -1.022,-0.882 l -0.6,0 2.098,-1.719 -1.516,0 -1.833,1.719 -1.005,0 0,-1.719 -1.04,0 0,4.548 z"
             style="fill:#191919;fill-opacity:1;fill-rule:nonzero;stroke:none"
             id="path52022"
             inkscape:connector-curvature="0" /></g><g
           id="g52024"
           transform="translate(52.1601,115.9703)"><path
             d="m 0,0 4.654,0 0,-0.775 -3.596,0 0,-1.014 2.098,0 0,-0.776 -2.098,0 0,-1.128 3.64,0 0,-0.855 L 0,-4.548 0,0 z"
             style="fill:#191919;fill-opacity:1;fill-rule:nonzero;stroke:none"
             id="path52026"
             inkscape:connector-curvature="0" /></g><g
           id="g52028"
           transform="translate(60.2054,111.4223)"><path
             d="m 0,0 -1.058,0 0,3.737 -2.089,0 0,0.811 5.245,0 0,-0.811 L 0,3.737 0,0 z"
             style="fill:#191919;fill-opacity:1;fill-rule:nonzero;stroke:none"
             id="path52030"
             inkscape:connector-curvature="0" /></g><g
           id="g52032"
           transform="translate(63.642,115.1858)"><path
             d="m 0,0 0,-1.269 2.38,0 c 0.326,0 0.476,0.061 0.476,0.361 l 0,0.547 C 2.856,-0.062 2.706,0 2.38,0 L 0,0 z m -1.04,0.784 3.896,0 c 0.696,0 1.022,-0.246 1.022,-0.881 l 0,-1.066 c 0,-0.635 -0.326,-0.882 -1.022,-0.882 l -0.6,0 2.098,-1.719 -1.516,0 -1.833,1.719 -1.005,0 0,-1.719 -1.04,0 0,4.548 z"
             style="fill:#191919;fill-opacity:1;fill-rule:nonzero;stroke:none"
             id="path52034"
             inkscape:connector-curvature="0" /></g><path
           d="m 73.261,115.159 -3.49,0 0,-2.882 3.49,0 0,2.882 z m -3.42,0.811 3.35,0 c 0.855,0 1.128,-0.22 1.128,-1.075 l 0,-2.397 c 0,-0.855 -0.273,-1.076 -1.128,-1.076 l -3.35,0 c -0.854,0 -1.128,0.221 -1.128,1.076 l 0,2.397 c 0,0.855 0.274,1.075 1.128,1.075"
           style="fill:#191919;fill-opacity:1;fill-rule:nonzero;stroke:none"
           id="path52036"
           inkscape:connector-curvature="0" /><g
           id="g52038"
           transform="translate(32.1329,110.7393)"><path
             d="m 0,0 4.469,0 0,-0.855 -3.411,0 0,-3.693 L 0,-4.548 0,0 z"
             style="fill:#cccccc;fill-opacity:1;fill-rule:nonzero;stroke:none"
             id="path52040"
             inkscape:connector-curvature="0" /></g><path
           d="m 37.292,110.739 1.058,0 0,-4.548 -1.058,0 0,4.548 z"
           style="fill:#cccccc;fill-opacity:1;fill-rule:nonzero;stroke:none"
           id="path52042"
           inkscape:connector-curvature="0" /><g
           id="g52044"
           transform="translate(43.2691,108.765)"><path
             d="m 0,0 c 0.361,0 0.511,0.07 0.511,0.406 l 0,0.343 C 0.511,1.084 0.361,1.155 0,1.155 l -2.415,0 L -2.415,0 0,0 z m 0,-1.833 c 0.326,0 0.485,0.061 0.485,0.326 l 0,0.432 c 0,0.264 -0.159,0.326 -0.485,0.326 l -2.415,0 0,-1.084 2.415,0 z m -3.455,3.807 3.614,0 c 0.89,0 1.339,-0.282 1.339,-0.89 l 0,-0.582 C 1.498,0.018 1.208,-0.3 0.679,-0.37 1.181,-0.432 1.463,-0.696 1.463,-1.137 l 0,-0.555 c 0,-0.635 -0.326,-0.882 -1.022,-0.882 l -3.896,0 0,4.548 z"
             style="fill:#cccccc;fill-opacity:1;fill-rule:nonzero;stroke:none"
             id="path52046"
             inkscape:connector-curvature="0" /></g><g
           id="g52048"
           transform="translate(49.3716,106.9758)"><path
             d="m 0,0 c 0.326,0 0.476,0.062 0.476,0.361 l 0,0.547 C 0.476,1.207 0.326,1.269 0,1.269 l -2.379,0 L -2.379,0 0,0 z m -3.42,3.764 1.041,0 0,-1.719 1.004,0 1.834,1.719 1.515,0 -2.097,-1.719 0.599,0 c 0.696,0 1.023,-0.247 1.023,-0.882 l 0,-1.066 c 0,-0.635 -0.327,-0.881 -1.023,-0.881 l -3.896,0 0,4.548 z"
             style="fill:#cccccc;fill-opacity:1;fill-rule:nonzero;stroke:none"
             id="path52050"
             inkscape:connector-curvature="0" /></g><g
           id="g52052"
           transform="translate(52.1601,110.7393)"><path
             d="m 0,0 4.698,0 0,-0.855 -3.64,0 0,-1.128 2.098,0 0,-0.776 -2.098,0 0,-1.013 3.596,0 0,-0.776 L 0,-4.548 0,0 z"
             style="fill:#cccccc;fill-opacity:1;fill-rule:nonzero;stroke:none"
             id="path52054"
             inkscape:connector-curvature="0" /></g><g
           id="g52056"
           transform="translate(60.2054,107.0024)"><path
             d="m 0,0 2.098,0 0,-0.811 -5.245,0 0,0.811 2.089,0 0,3.737 L 0,3.737 0,0 z"
             style="fill:#cccccc;fill-opacity:1;fill-rule:nonzero;stroke:none"
             id="path52058"
             inkscape:connector-curvature="0" /></g><g
           id="g52060"
           transform="translate(66.0218,106.9758)"><path
             d="m 0,0 c 0.326,0 0.476,0.062 0.476,0.361 l 0,0.547 C 0.476,1.207 0.326,1.269 0,1.269 l -2.38,0 L -2.38,0 0,0 z m -3.42,3.764 1.04,0 0,-1.719 1.005,0 1.833,1.719 1.516,0 -2.097,-1.719 0.599,0 c 0.696,0 1.022,-0.247 1.022,-0.882 l 0,-1.066 c 0,-0.635 -0.326,-0.881 -1.022,-0.881 l -3.896,0 0,4.548 z"
             style="fill:#cccccc;fill-opacity:1;fill-rule:nonzero;stroke:none"
             id="path52062"
             inkscape:connector-curvature="0" /></g><path
           d="m 69.771,107.002 3.49,0 0,2.882 -3.49,0 0,-2.882 z m -1.058,0.264 0,2.398 c 0,0.855 0.274,1.075 1.128,1.075 l 3.35,0 c 0.855,0 1.128,-0.22 1.128,-1.075 l 0,-2.398 c 0,-0.854 -0.273,-1.075 -1.128,-1.075 l -3.35,0 c -0.854,0 -1.128,0.221 -1.128,1.075"
           style="fill:#cccccc;fill-opacity:1;fill-rule:nonzero;stroke:none"
           id="path52064"
           inkscape:connector-curvature="0" /><g
           id="g52066"
           transform="translate(89.9483,114.661)"><path
             d="m 0,0 0,-7.123 c 0.858,0 1.699,-0.022 2.538,0.007 0.697,0.024 1.377,0.173 2.025,0.449 1.652,0.706 2.241,2.142 1.991,3.718 C 6.35,-1.661 5.546,-0.871 4.375,-0.408 2.961,0.151 1.478,-0.035 0,0 m -3.227,-8.518 0,9.853 c 0.085,0.004 0.162,0.011 0.239,0.011 2.03,-0.002 4.06,0.01 6.09,-0.012 C 4.264,1.321 5.421,1.191 6.525,0.81 7.848,0.354 8.95,-0.413 9.572,-1.714 10.514,-3.688 9.856,-5.974 8.037,-7.224 7.15,-7.833 6.166,-8.156 5.116,-8.321 c -0.962,-0.151 -1.93,-0.2 -2.902,-0.198 -1.719,0.004 -3.437,10e-4 -5.155,10e-4 l -0.286,0 z"
             style="fill:#191919;fill-opacity:1;fill-rule:nonzero;stroke:none"
             id="path52068"
             inkscape:connector-curvature="0" /></g><g
           id="g52070"
           transform="translate(75.7594,106.4425)"><path
             d="M 0,0 0,1.628 C 0.346,1.539 0.684,1.441 1.026,1.367 2.221,1.111 3.429,0.982 4.652,1.033 5.103,1.052 5.545,1.131 5.945,1.362 6.677,1.785 6.729,2.617 5.997,3.025 5.344,3.39 4.637,3.665 3.94,3.944 3.033,4.308 2.097,4.61 1.268,5.139 0.949,5.342 0.636,5.591 0.4,5.883 -0.236,6.671 -0.111,7.725 0.656,8.394 1.259,8.92 1.99,9.169 2.753,9.338 3.967,9.607 5.198,9.63 6.43,9.555 7.18,9.509 7.925,9.403 8.684,9.322 l 0,-1.591 C 8.265,7.826 7.853,7.919 7.44,8.012 6.496,8.227 5.542,8.372 4.574,8.246 4.193,8.197 3.802,8.097 3.455,7.935 2.838,7.647 2.794,7.044 3.328,6.617 3.794,6.244 4.359,6.066 4.905,5.855 5.817,5.503 6.74,5.179 7.638,4.796 8.086,4.605 8.525,4.353 8.905,4.049 10.15,3.054 10.022,1.439 8.659,0.606 7.986,0.195 7.239,-0.005 6.472,-0.137 4.798,-0.424 1.698,-0.356 0,0"
             style="fill:#191919;fill-opacity:1;fill-rule:nonzero;stroke:none"
             id="path52072"
             inkscape:connector-curvature="0" /></g><path
           d="m 100.077,47.027 11.218,0 0,-2.667 -11.218,0 0,2.667 z m 11.219,-13.526 -11.218,0 0,10.42 11.218,0 0,-10.42 z m -11.619,13.915 0,-3.056 0,-0.435 0,-10.489 0,-0.373 0,-2.669 12.02,0 0,2.669 0,0.373 0,10.489 0,0.435 0,3.056 -12.02,0 z"
           style="fill:#000000;fill-opacity:1;fill-rule:nonzero;stroke:none"
           id="path52074"
           inkscape:connector-curvature="0" /><g
           id="g52076"
           transform="translate(101.4409,32.0843)"><path
             d="m 0,0 1.263,0 0,-0.993 c -0.38,-0.076 -0.822,-0.126 -1.222,-0.126 -0.883,0 -1.314,0.417 -1.314,0.998 0,0.581 0.431,0.999 1.341,0.999 0.753,0 1.147,-0.192 1.157,-0.636 l -0.909,0 C 0.312,0.302 0.282,0.342 0.241,0.365 0.2,0.389 0.143,0.399 0.082,0.399 c -0.147,0 -0.241,-0.057 -0.289,-0.133 -0.048,-0.077 -0.061,-0.263 -0.061,-0.423 0,-0.185 0.02,-0.311 0.064,-0.371 0.058,-0.079 0.153,-0.113 0.279,-0.113 0.091,0 0.18,0.01 0.258,0.039 l 0,0.229 L 0,-0.373 0,0 z"
             style="fill:#d9d9d9;fill-opacity:1;fill-rule:nonzero;stroke:none"
             id="path52078"
             inkscape:connector-curvature="0" /></g><g
           id="g52080"
           transform="translate(104.3721,31.7822)"><path
             d="M 0,0 -0.194,0.715 -0.2,0.715 -0.414,0 0,0 z m -0.805,1.13 1.26,0 0.787,-1.897 -1.004,0 -0.096,0.305 -0.702,0 -0.099,-0.305 -0.93,0 0.784,1.897 z"
             style="fill:#d9d9d9;fill-opacity:1;fill-rule:nonzero;stroke:none"
             id="path52082"
             inkscape:connector-curvature="0" /></g><g
           id="g52084"
           transform="translate(108.1414,32.3708)"><path
             d="m 0,0 -0.007,0 -0.346,-1.356 -0.889,0 -0.347,1.356 -0.006,0 0,-1.356 -0.822,0 0,1.897 1.348,0 0.268,-1.13 0.007,0 0.268,1.13 1.347,0 0,-1.897 L 0,-1.356 0,0 z"
             style="fill:#d9d9d9;fill-opacity:1;fill-rule:nonzero;stroke:none"
             id="path52086"
             inkscape:connector-curvature="0" /></g><g
           id="g52088"
           transform="translate(109.3112,32.9121)"><path
             d="m 0,0 1.864,0 0,-0.494 -0.934,0 0,-0.202 0.862,0 0,-0.494 -0.862,0 0,-0.213 0.964,0 0,-0.494 L 0,-1.897 0,0 z"
             style="fill:#d9d9d9;fill-opacity:1;fill-rule:nonzero;stroke:none"
             id="path52090"
             inkscape:connector-curvature="0" /></g><g
           id="g52092"
           transform="translate(101.7765,46.0595)"><path
             d="m 0,0 c -0.011,0.144 -0.12,0.227 -0.302,0.227 -0.256,0 -0.302,-0.3 -0.302,-0.54 0,-0.234 0.051,-0.509 0.302,-0.509 0.187,0 0.293,0.082 0.302,0.235 l 0.467,0 c 0.006,-0.404 -0.38,-0.546 -0.769,-0.546 -0.5,0 -0.769,0.3 -0.769,0.838 0,0.537 0.269,0.828 0.769,0.833 C 0.087,0.538 0.473,0.404 0.467,0 L 0,0 z"
             style="fill:#000000;fill-opacity:1;fill-rule:nonzero;stroke:none"
             id="path52094"
             inkscape:connector-curvature="0" /></g><g
           id="g52096"
           transform="translate(102.4086,44.9595)"><path
             d="m 0,0 0,1.604 0.444,0 0,-1.293 0.727,0 L 1.171,0 0,0 z"
             style="fill:#000000;fill-opacity:1;fill-rule:nonzero;stroke:none"
             id="path52098"
             inkscape:connector-curvature="0" /></g><g
           id="g52100"
           transform="translate(104.6537,45.584)"><path
             d="m 0,0 -0.204,0.667 -0.007,0 L -0.429,0 0,0 z m -1.091,-0.624 0.633,1.604 0.543,0 0.633,-1.604 -0.502,0 -0.107,0.313 -0.651,0 -0.105,-0.313 -0.444,0 z"
             style="fill:#000000;fill-opacity:1;fill-rule:nonzero;stroke:none"
             id="path52102"
             inkscape:connector-curvature="0" /></g><g
           id="g52104"
           transform="translate(106.3236,46.0928)"><path
             d="m 0,0 c 0.002,0.062 -0.018,0.109 -0.058,0.142 -0.038,0.034 -0.095,0.051 -0.171,0.051 -0.102,0 -0.191,-0.066 -0.191,-0.146 0,-0.118 0.142,-0.156 0.26,-0.187 0.269,-0.069 0.66,-0.096 0.66,-0.529 0,-0.338 -0.333,-0.498 -0.704,-0.498 -0.374,0 -0.703,0.109 -0.709,0.545 l 0.444,0 c -0.002,-0.151 0.109,-0.234 0.269,-0.234 0.102,0 0.233,0.054 0.233,0.16 0,0.218 -0.329,0.172 -0.678,0.325 C -0.807,-0.3 -0.887,-0.153 -0.887,0.02 -0.869,0.4 -0.536,0.504 -0.2,0.504 0.131,0.504 0.471,0.387 0.444,0 L 0,0 z"
             style="fill:#000000;fill-opacity:1;fill-rule:nonzero;stroke:none"
             id="path52106"
             inkscape:connector-curvature="0" /></g><g
           id="g52108"
           transform="translate(107.8509,46.0928)"><path
             d="m 0,0 c 0.002,0.062 -0.018,0.109 -0.058,0.142 -0.038,0.034 -0.095,0.051 -0.171,0.051 -0.102,0 -0.191,-0.066 -0.191,-0.146 0,-0.118 0.142,-0.156 0.26,-0.187 0.269,-0.069 0.66,-0.096 0.66,-0.529 0,-0.338 -0.333,-0.498 -0.704,-0.498 -0.374,0 -0.703,0.109 -0.709,0.545 l 0.444,0 c -0.002,-0.151 0.109,-0.234 0.269,-0.234 0.102,0 0.233,0.054 0.233,0.16 0,0.218 -0.329,0.172 -0.678,0.325 C -0.807,-0.3 -0.887,-0.153 -0.887,0.02 -0.869,0.4 -0.536,0.504 -0.2,0.504 0.131,0.504 0.471,0.387 0.444,0 L 0,0 z"
             style="fill:#000000;fill-opacity:1;fill-rule:nonzero;stroke:none"
             id="path52110"
             inkscape:connector-curvature="0" /></g><path
           d="m 108.518,46.564 0.444,0 0,-1.604 -0.444,0 0,1.604 z"
           style="fill:#000000;fill-opacity:1;fill-rule:nonzero;stroke:none"
           id="path52112"
           inkscape:connector-curvature="0" /><g
           id="g52114"
           transform="translate(110.201,46.0595)"><path
             d="m 0,0 c -0.011,0.144 -0.12,0.227 -0.302,0.227 -0.256,0 -0.303,-0.3 -0.303,-0.54 0,-0.234 0.052,-0.509 0.303,-0.509 0.186,0 0.293,0.082 0.302,0.235 l 0.467,0 c 0.006,-0.404 -0.38,-0.546 -0.769,-0.546 -0.5,0 -0.769,0.3 -0.769,0.838 0,0.537 0.269,0.828 0.769,0.833 C 0.087,0.538 0.473,0.404 0.467,0 L 0,0 z"
             style="fill:#000000;fill-opacity:1;fill-rule:nonzero;stroke:none"
             id="path52116"
             inkscape:connector-curvature="0" /></g><g
           id="g52118"
           transform="translate(109.6574,39.0164)"><path
             d="m 0,0 c 0.63,-2.092 -0.766,-3.509 -2.647,-4.075 -2.66,-0.801 -4.376,0.448 -5.101,2.855 -0.785,2.342 0.142,4.364 2.706,5.136 1.913,0.575 3.766,0.285 4.447,-1.94 L -3.348,1.147 C -3.65,1.996 -4.016,2.069 -4.384,1.959 -5.161,1.725 -4.995,0.904 -4.627,-0.316 c 0.348,-1.155 0.67,-1.999 1.427,-1.771 0.389,0.117 0.582,0.428 0.383,1.239 L 0,0 z"
             style="fill:#000000;fill-opacity:1;fill-rule:nonzero;stroke:none"
             id="path52120"
             inkscape:connector-curvature="0" /></g><g
           id="g52122"
           transform="translate(28.9376,43.2051)"><path
             d="m 0,0 c 4.294,0 7.775,-2.425 7.775,-5.415 0,-2.991 -3.481,-5.416 -7.775,-5.416 -4.294,0 -7.775,2.425 -7.775,5.416 C -7.775,-2.425 -4.294,0 0,0"
             style="fill:#ffffff;fill-opacity:1;fill-rule:nonzero;stroke:none"
             id="path52124"
             inkscape:connector-curvature="0" /></g><g
           id="g52126"
           transform="translate(36.7127,37.8296)"><path
             d="m 0,0 c 0,2.99 -3.481,5.415 -7.775,5.415 -4.294,0 -7.775,-2.425 -7.775,-5.415 0,-2.991 3.481,-5.416 7.775,-5.416 C -3.481,-5.416 0,-2.991 0,0 M 0.926,-0.004 1.856,-1 0.528,-1.797 l 0.373,-1.542 -1.43,-0.04 -0.098,-1.679 -1.593,0.439 -0.269,-1.585 -1.475,0.586 -0.769,-1.398 -1.152,0.997 -1.004,-1.416 -1.106,1.201 -1.209,-1.122 -0.789,1.322 -1.425,-0.839 -0.492,1.48 -1.65,-0.65 -0.243,1.459 -1.476,-0.092 0.221,1.485 -1.51,0.006 0.353,1.623 -1.171,0.658 0.932,1.058 -0.837,1.472 1.361,0.431 -0.358,1.574 1.492,0.02 0.173,1.562 1.35,-0.448 0.447,1.522 1.364,-0.737 0.564,1.346 1.181,-0.82 0.83,1.279 1.115,-1.115 0.986,1.02 0.864,-1.285 1.35,0.868 0.536,-1.419 1.356,0.642 0.349,-1.479 1.609,0.286 L -0.772,3.425 0.854,3.25 0.393,1.85 1.809,1.244 0.926,-0.004 z"
             style="fill:#a3834a;fill-opacity:1;fill-rule:nonzero;stroke:none"
             id="path52128"
             inkscape:connector-curvature="0" /></g><g
           id="g52130"
           transform="translate(21.831,37.7895)"><path
             d="m 0,0 c 0,2.64 3.188,4.788 7.107,4.788 3.918,0 7.106,-2.148 7.106,-4.788 0,-2.64 -3.188,-4.788 -7.106,-4.788 C 3.188,-4.788 0,-2.64 0,0 m 7.106,-4.967 c 4.018,0 7.286,2.228 7.286,4.967 0,2.739 -3.268,4.967 -7.286,4.967 -4.017,0 -7.285,-2.228 -7.285,-4.967 0,-2.739 3.268,-4.967 7.285,-4.967"
             style="fill:#a3834a;fill-opacity:1;fill-rule:nonzero;stroke:none"
             id="path52132"
             inkscape:connector-curvature="0" /></g><g
           id="g52134"
           transform="translate(33.4478,36.6434)"><path
             d="m 0,0 -9.098,0 c -0.768,-0.003 -1.235,0.513 -1.235,1.145 0,0.633 0.469,1.145 1.235,1.146 L 0,2.291 C 0.766,2.29 1.235,1.778 1.235,1.145 1.235,0.513 0.768,-0.003 0,0 m 0.004,2.665 -9.107,0 c -0.963,0.002 -1.611,-0.691 -1.611,-1.522 0,-0.83 0.646,-1.515 1.613,-1.515 l 9.104,0 c 0.967,0 1.613,0.685 1.613,1.515 0,0.831 -0.648,1.524 -1.612,1.522"
             style="fill:#a3834a;fill-opacity:1;fill-rule:nonzero;stroke:none"
             id="path52136"
             inkscape:connector-curvature="0" /></g><g
           id="g52138"
           transform="translate(30.3302,38.3561)"><path
             d="m 0,0 0.43,0 0,-0.192 0.233,0 0,-0.142 -0.233,0 0.001,-0.949 -0.431,0 0,0.949 -0.234,0 0,0.141 0.234,0 L 0,0 z"
             style="fill:#a3834a;fill-opacity:1;fill-rule:nonzero;stroke:none"
             id="path52140"
             inkscape:connector-curvature="0" /></g><path
           d="m 25.291,38.024 0.43,0 0,-0.951 -0.43,0 0,0.951 z"
           style="fill:#a3834a;fill-opacity:1;fill-rule:nonzero;stroke:none"
           id="path52142"
           inkscape:connector-curvature="0" /><path
           d="m 25.29,38.503 0.431,0 0,-0.292 -0.431,0 0,0.292 z"
           style="fill:#a3834a;fill-opacity:1;fill-rule:nonzero;stroke:none"
           id="path52144"
           inkscape:connector-curvature="0" /><g
           id="g52146"
           transform="translate(33.194,37.5887)"><path
             d="m 0,0 0,0 c 0,-0.003 0,-0.144 0,-0.201 0,-0.151 -0.09,-0.214 -0.176,-0.214 -0.086,0 -0.176,0.063 -0.176,0.214 l 0,0.205 c 0,0 0,0.141 0,0.198 0,0.151 0.09,0.213 0.176,0.213 C -0.09,0.415 0,0.353 0,0.202 0,0.145 0,0.038 0,0 l 0,0 z m -0.173,0.533 c -0.347,0 -0.628,-0.239 -0.628,-0.534 0,-0.295 0.281,-0.534 0.628,-0.534 0.347,0 0.629,0.239 0.629,0.534 0,0.295 -0.282,0.534 -0.629,0.534"
             style="fill:#a3834a;fill-opacity:1;fill-rule:nonzero;stroke:none"
             id="path52148"
             inkscape:connector-curvature="0" /></g><g
           id="g52150"
           transform="translate(26.3987,37.7262)"><path
             d="m 0,0 c 0,0.147 0.102,0.185 0.168,0.185 0.069,0 0.169,-0.038 0.169,-0.185 0,-0.049 0,-0.169 0,-0.169 0,0 0,-0.119 0,-0.17 0,-0.146 -0.1,-0.185 -0.168,-0.185 C 0.102,-0.524 0,-0.485 0,-0.339 L 0,-0.17 0,0 z m -0.421,0.78 0,-1.43 0.425,0 c 0,0 0,0.046 0,0.055 0.165,-0.103 0.35,-0.103 0.495,-0.036 0.039,0.018 0.294,0.141 0.294,0.472 0,0.251 -0.237,0.525 -0.546,0.498 C 0.144,0.33 0.072,0.293 0.003,0.254 l 0,0.526 -0.424,0 z"
             style="fill:#a3834a;fill-opacity:1;fill-rule:nonzero;stroke:none"
             id="path52152"
             inkscape:connector-curvature="0" /></g><g
           id="g52154"
           transform="translate(29.2968,37.9169)"><path
             d="m 0,0 c 0.033,0.058 0.095,0.087 0.151,0.087 l 0,0 0,0 0,0 C 0.207,0.087 0.269,0.058 0.303,0 0.33,-0.047 0.331,-0.103 0.33,-0.187 l -0.359,0 c 0,0.084 0.002,0.14 0.029,0.187 m 0.329,-0.531 c 0,-0.174 -0.114,-0.212 -0.178,-0.212 -0.063,0 -0.18,0.038 -0.18,0.212 0,0.052 0.001,0.196 0.001,0.196 l 0.81,0 c 0,0.295 -0.285,0.54 -0.635,0.54 -0.349,0 -0.633,-0.239 -0.633,-0.534 0,-0.295 0.284,-0.534 0.633,-0.534 0.29,0 0.535,0.166 0.61,0.39 l -0.428,0 c 0,0 0,-0.004 0,-0.058"
             style="fill:#a3834a;fill-opacity:1;fill-rule:nonzero;stroke:none"
             id="path52156"
             inkscape:connector-curvature="0" /></g><g
           id="g52158"
           transform="translate(24.5786,37.2145)"><path
             d="m 0,0 0,1.295 -0.431,0 0,-1.295 0,-0.141 0.431,0 0.466,0 L 0.466,0 0,0 z"
             style="fill:#a3834a;fill-opacity:1;fill-rule:nonzero;stroke:none"
             id="path52160"
             inkscape:connector-curvature="0" /></g><g
           id="g52162"
           transform="translate(31.8948,37.676)"><path
             d="M 0,0 0.421,0 C 0.378,0.307 0.091,0.396 -0.057,0.392 -0.199,0.388 -0.318,0.327 -0.4,0.248 c -0.001,0.024 0,0.1 0,0.1 l -0.427,0 0,-0.951 0.427,0 c 0,0 -0.001,0.584 -0.001,0.625 0,0.082 0.087,0.175 0.204,0.175 C -0.08,0.197 0,0.104 0,0.022 L 0,0 z"
             style="fill:#a3834a;fill-opacity:1;fill-rule:nonzero;stroke:none"
             id="path52164"
             inkscape:connector-curvature="0" /></g><g
           id="g52166"
           transform="translate(27.8681,38.0229)"><path
             d="m 0,0 0,0.169 c 0,0.146 0.102,0.185 0.169,0.185 0.068,0 0.168,-0.039 0.168,-0.185 0,-0.051 0,-0.17 0,-0.17 0,0 0,-0.12 0,-0.169 0,-0.147 -0.1,-0.185 -0.169,-0.185 C 0.102,-0.355 0,-0.317 0,-0.17 L 0,0 z m 0.793,-0.011 c 0,0.331 -0.255,0.454 -0.294,0.472 -0.145,0.067 -0.33,0.067 -0.495,-0.036 0,0.009 0,0.055 0,0.055 l -0.425,0 0,-1.43 0.424,0 0,0.527 c 0.002,-0.001 0.004,-0.002 0.006,-0.004 l 0.333,-0.523 0.421,0 -0.301,0.473 c 0.198,0.077 0.331,0.278 0.331,0.466"
             style="fill:#a3834a;fill-opacity:1;fill-rule:nonzero;stroke:none"
             id="path52168"
             inkscape:connector-curvature="0" /></g><g
           id="g52170"
           transform="translate(81.9485,76.5397)"><path
             d="m 0,0 -27.94,0 0,6.399 c 0,5.723 4.656,10.379 10.38,10.379 5.723,0 10.379,-4.656 10.379,-10.379 l 0,-1.849 6.399,0 0,1.849 c 0,9.266 -7.512,16.778 -16.778,16.778 -9.267,0 -16.779,-7.512 -16.779,-16.778 l 0,-6.399 -0.782,0 c -0.942,0 -1.706,-0.764 -1.706,-1.706 l 0,-20.618 c 0,-0.942 0.764,-1.706 1.706,-1.706 l 35.121,0 c 0.942,0 1.706,0.764 1.706,1.706 l 0,20.618 C 1.706,-0.764 0.942,0 0,0"
             style="fill:#191919;fill-opacity:1;fill-rule:nonzero;stroke:none"
             id="path52172"
             inkscape:connector-curvature="0" /></g><g
           id="g52174"
           transform="translate(91.7636,41.8835)"><path
             d="m 0,0 c -0.356,0.001 -0.704,0.003 -1.06,0.004 -0.005,-1.423 -0.011,-2.84 -0.017,-4.26 1.003,-0.004 1.992,-0.008 2.988,-0.012 0.005,1.43 0.011,2.847 0.016,4.262 C 1.498,-0.004 1.081,-0.003 0.648,-0.001 0.645,-0.999 0.641,-1.984 0.637,-2.973 0.412,-2.972 0.204,-2.972 -0.012,-2.971 -0.008,-1.975 -0.004,-0.995 0,0 m 2.349,-5.793 c 0.575,-0.002 1.133,-0.004 1.698,-0.006 0.001,0.218 0.002,0.42 0.003,0.623 C 3.048,-5.172 2.058,-5.168 1.069,-5.164 1.063,-5.198 1.058,-5.217 1.058,-5.236 1.052,-6.738 1.046,-8.239 1.042,-9.74 c -0.001,-0.195 0.37,-0.545 0.572,-0.546 0.754,-0.003 1.508,-0.006 2.262,-0.008 0.051,-10e-4 0.102,0.007 0.153,0.012 0.003,0.856 0.007,1.7 0.01,2.543 -0.362,0.002 -0.711,0.003 -1.081,0.005 -0.003,-0.578 -0.005,-1.141 -0.007,-1.699 -0.218,10e-4 -0.415,0.002 -0.611,0.002 0.003,0.79 0.006,1.565 0.009,2.357 0.575,-0.002 1.133,-0.004 1.692,-0.006 10e-4,0.219 0.002,0.421 0.003,0.642 -0.571,0.002 -1.128,0.004 -1.697,0.006 10e-4,0.215 0.002,0.412 0.002,0.639 m -9.63,5.828 c -0.006,-1.433 -0.011,-2.85 -0.017,-4.265 0.43,-0.002 0.846,-0.003 1.28,-0.005 0.004,1.139 0.009,2.264 0.013,3.393 0.22,0 0.422,-0.001 0.638,-0.002 -0.004,-1.14 -0.009,-2.266 -0.013,-3.395 0.364,-0.002 0.714,-0.003 1.081,-0.005 0.004,1.138 0.009,2.263 0.013,3.399 0.288,-0.001 0.557,-0.002 0.853,-0.003 -0.004,-1.141 -0.009,-2.271 -0.013,-3.402 0.298,-0.001 0.569,-0.003 0.85,-0.004 0.005,1.427 0.011,2.844 0.017,4.271 -1.569,0.006 -3.128,0.012 -4.702,0.018 M 1.966,8.162 C 0.955,8.166 -0.035,8.17 -1.026,8.174 -1.029,7.524 -1.031,6.888 -1.034,6.232 -0.385,6.23 0.245,6.227 0.882,6.225 0.877,4.933 0.872,3.663 0.867,2.388 0.578,2.389 0.302,2.39 0.002,2.391 0.006,3.433 0.01,4.462 0.014,5.494 -0.349,5.495 -0.687,5.496 -1.039,5.498 -1.045,4.099 -1.05,2.709 -1.055,1.316 -0.052,1.312 0.938,1.308 1.932,1.304 1.939,3.169 1.947,5.019 1.954,6.885 1.386,6.887 0.834,6.89 0.272,6.892 0.273,7.104 0.274,7.301 0.275,7.52 0.841,7.518 1.398,7.516 1.964,7.513 1.965,7.74 1.966,7.944 1.966,8.162 M -10.041,6.929 c -0.008,-1.88 -0.015,-3.73 -0.022,-5.574 1.079,-0.004 2.142,-0.008 3.202,-0.013 0.009,2.296 0.018,4.573 0.027,6.856 C -7.195,8.199 -7.544,8.2 -7.91,8.202 -7.912,7.771 -7.914,7.353 -7.915,6.921 -8.632,6.923 -9.33,6.926 -10.041,6.929 m 7.687,-5.617 c 0.006,1.409 0.011,2.798 0.017,4.189 -0.436,0.002 -0.854,0.004 -1.298,0.005 -0.004,-0.972 -0.007,-1.934 -0.011,-2.892 -0.222,0.001 -0.419,0.002 -0.619,0.002 0.005,1.214 0.01,2.413 0.014,3.639 0.646,-0.003 1.282,-0.005 1.919,-0.008 10e-4,0.231 0.002,0.434 0.003,0.656 -0.646,0.003 -1.277,0.005 -1.915,0.008 10e-4,0.216 0.002,0.411 0.003,0.627 0.645,-0.003 1.276,-0.005 1.916,-0.008 0.001,0.229 0.002,0.439 0.003,0.651 C -3.4,8.185 -4.464,8.189 -5.524,8.193 -5.533,5.896 -5.542,3.611 -5.551,1.325 -4.481,1.321 -3.427,1.317 -2.354,1.312 m -1.097,-7.303 c -0.006,-1.435 -0.011,-2.847 -0.017,-4.259 0.441,-10e-4 0.863,-0.003 1.302,-0.005 0.006,1.428 0.011,2.839 0.017,4.256 0.287,-0.001 0.556,-0.002 0.848,-0.004 -0.005,-1.428 -0.011,-2.845 -0.016,-4.259 0.367,-0.002 0.711,-0.003 1.059,-0.004 0.007,1.71 0.013,3.407 0.02,5.11 -1.642,0.006 -3.272,0.013 -4.908,0.019 -0.006,-1.709 -0.013,-3.407 -0.02,-5.111 0.355,-0.001 0.698,-0.002 1.067,-0.004 0.005,1.428 0.011,2.844 0.017,4.263 0.217,-0.001 0.408,-0.001 0.631,-0.002 m 8.766,-5.307 c -3.924,0.016 -7.848,0.031 -11.773,0.047 0.008,1.971 0.016,3.943 0.024,5.931 -0.737,0.003 -1.441,0.006 -2.169,0.008 0.007,1.866 0.014,3.716 0.022,5.58 -0.863,0.004 -1.702,0.007 -2.544,0.01 0.011,2.792 0.021,5.569 0.032,8.361 0.64,-0.002 1.265,-0.005 1.911,-0.007 0,0.22 0.001,0.425 0.002,0.63 C -4.962,9.246 -0.744,9.229 3.474,9.212 3.457,4.854 3.439,0.496 3.422,-3.886 4.078,-3.888 4.707,-3.891 5.344,-3.893 5.335,-6.378 5.325,-8.838 5.315,-11.298"
             style="fill:#000000;fill-opacity:1;fill-rule:nonzero;stroke:none"
             id="path52176"
             inkscape:connector-curvature="0" /></g><g
           id="g52178"
           transform="translate(88.3125,35.8921)"><path
             d="m 0,0 c -0.223,0.001 -0.414,0.002 -0.631,0.002 -0.006,-1.419 -0.011,-2.835 -0.017,-4.262 -0.369,10e-4 -0.712,0.002 -1.066,0.004 0.006,1.704 0.013,3.401 0.02,5.11 C -0.059,0.848 1.572,0.841 3.213,0.835 3.206,-0.868 3.2,-2.565 3.193,-4.275 2.845,-4.274 2.501,-4.272 2.134,-4.271 2.139,-2.857 2.145,-1.44 2.151,-0.011 1.858,-0.01 1.589,-0.009 1.302,-0.008 1.296,-1.424 1.291,-2.836 1.285,-4.263 0.846,-4.262 0.425,-4.26 -0.017,-4.258 -0.011,-2.846 -0.006,-1.435 0,0"
             style="fill:#6b6bff;fill-opacity:1;fill-rule:nonzero;stroke:none"
             id="path52180"
             inkscape:connector-curvature="0" /></g><g
           id="g52182"
           transform="translate(89.4097,43.196)"><path
             d="m 0,0 c -1.073,0.004 -2.127,0.008 -3.197,0.013 0.009,2.286 0.018,4.57 0.027,6.868 C -2.11,6.877 -1.046,6.873 0.032,6.868 0.031,6.656 0.03,6.447 0.029,6.218 -0.611,6.22 -1.242,6.223 -1.888,6.225 -1.888,6.01 -1.889,5.814 -1.89,5.598 -1.252,5.596 -0.621,5.593 0.025,5.591 0.024,5.368 0.023,5.166 0.022,4.935 -0.615,4.937 -1.251,4.94 -1.897,4.943 -1.902,3.716 -1.906,2.518 -1.911,1.304 c 0.2,-0.001 0.397,-0.002 0.619,-0.003 0.004,0.958 0.007,1.921 0.011,2.893 C -0.837,4.192 -0.419,4.19 0.016,4.189 0.011,2.798 0.006,1.408 0,0"
             style="fill:#cdceff;fill-opacity:1;fill-rule:nonzero;stroke:none"
             id="path52184"
             inkscape:connector-curvature="0" /></g><g
           id="g52186"
           transform="translate(83.8445,48.1363)"><path
             d="m 0,0 c -0.287,0.001 -0.557,0.002 -0.832,0.003 -0.005,-1.356 -0.01,-2.698 -0.016,-4.044 0.284,-10e-4 0.554,-0.002 0.832,-0.003 C -0.011,-2.694 -0.005,-1.355 0,0 M -2.122,0.676 C -1.41,0.673 -0.712,0.671 0.004,0.668 0.005,1.101 0.007,1.518 0.009,1.949 0.375,1.947 0.724,1.946 1.085,1.945 1.076,-0.338 1.067,-2.615 1.058,-4.911 c -1.06,0.005 -2.122,0.009 -3.202,0.013 0.007,1.844 0.014,3.694 0.022,5.574"
             style="fill:#cdceff;fill-opacity:1;fill-rule:nonzero;stroke:none"
             id="path52188"
             inkscape:connector-curvature="0" /></g><g
           id="g52190"
           transform="translate(93.7301,50.0459)"><path
             d="m 0,0 c -0.001,-0.218 -0.002,-0.422 -0.003,-0.649 -0.566,0.002 -1.122,0.004 -1.689,0.007 -0.001,-0.22 -0.001,-0.416 -0.002,-0.629 0.562,-0.002 1.113,-0.004 1.682,-0.006 -0.008,-1.867 -0.015,-3.717 -0.022,-5.581 -0.994,0.004 -1.984,0.008 -2.988,0.012 0.006,1.393 0.011,2.783 0.017,4.181 0.351,-10e-4 0.69,-0.002 1.053,-0.004 -0.005,-1.031 -0.009,-2.061 -0.013,-3.102 0.3,-0.002 0.577,-0.003 0.865,-0.004 0.005,1.276 0.01,2.546 0.015,3.837 -0.636,0.003 -1.267,0.005 -1.915,0.008 0.002,0.656 0.005,1.291 0.008,1.942 C -2.001,0.008 -1.011,0.004 0,0"
             style="fill:#cdceff;fill-opacity:1;fill-rule:nonzero;stroke:none"
             id="path52192"
             inkscape:connector-curvature="0" /></g><g
           id="g52194"
           transform="translate(84.4827,41.9187)"><path
             d="M 0,0 C 1.574,-0.006 3.133,-0.012 4.702,-0.019 4.696,-1.445 4.69,-2.862 4.685,-4.289 4.404,-4.288 4.133,-4.287 3.835,-4.286 3.839,-3.154 3.844,-2.025 3.848,-0.884 3.552,-0.883 3.282,-0.881 2.995,-0.88 2.991,-2.017 2.986,-3.141 2.982,-4.279 2.615,-4.277 2.265,-4.276 1.901,-4.275 1.905,-3.145 1.91,-2.02 1.914,-0.879 1.698,-0.878 1.496,-0.878 1.276,-0.877 1.272,-2.006 1.267,-3.131 1.263,-4.27 0.829,-4.269 0.413,-4.267 -0.017,-4.265 -0.011,-2.85 -0.006,-1.433 0,0"
             style="fill:#9595ff;fill-opacity:1;fill-rule:nonzero;stroke:none"
             id="path52196"
             inkscape:connector-curvature="0" /></g><g
           id="g52198"
           transform="translate(94.1131,36.0909)"><path
             d="m 0,0 c -0.001,-0.228 -0.002,-0.425 -0.003,-0.639 0.569,-0.002 1.127,-0.004 1.697,-0.007 0,-0.22 -10e-4,-0.423 -0.002,-0.642 C 1.132,-1.286 0.574,-1.283 0,-1.281 -0.003,-2.073 -0.006,-2.849 -0.009,-3.638 0.186,-3.639 0.383,-3.64 0.602,-3.64 0.604,-3.082 0.606,-2.519 0.608,-1.942 0.978,-1.943 1.327,-1.945 1.69,-1.946 1.686,-2.79 1.683,-3.633 1.68,-4.49 1.629,-4.494 1.578,-4.502 1.527,-4.502 0.773,-4.5 0.019,-4.497 -0.735,-4.493 c -0.202,0.001 -0.573,0.351 -0.573,0.545 0.004,1.502 0.011,3.003 0.017,4.504 0,0.019 0.005,0.039 0.01,0.072 C -0.291,0.624 0.698,0.621 1.701,0.617 1.7,0.414 1.699,0.211 1.698,-0.007 1.133,-0.004 0.575,-0.002 0,0"
             style="fill:#6b6bff;fill-opacity:1;fill-rule:nonzero;stroke:none"
             id="path52200"
             inkscape:connector-curvature="0" /></g><g
           id="g52202"
           transform="translate(91.7636,41.8835)"><path
             d="m 0,0 c -0.004,-0.995 -0.008,-1.975 -0.012,-2.971 0.216,-10e-4 0.424,-10e-4 0.649,-0.002 0.004,0.989 0.008,1.974 0.011,2.972 0.433,-0.002 0.85,-0.003 1.279,-0.005 -0.005,-1.415 -0.011,-2.832 -0.016,-4.262 -0.996,0.004 -1.985,0.008 -2.988,0.012 0.006,1.42 0.012,2.837 0.017,4.26 C -0.704,0.003 -0.356,0.001 0,0"
             style="fill:#9595ff;fill-opacity:1;fill-rule:nonzero;stroke:none"
             id="path52204"
             inkscape:connector-curvature="0" /></g><g
           id="g52206"
           transform="translate(83.8445,48.1363)"><path
             d="m 0,0 c -0.005,-1.355 -0.011,-2.694 -0.016,-4.044 -0.278,10e-4 -0.548,0.002 -0.832,0.003 0.006,1.346 0.011,2.688 0.016,4.044 C -0.557,0.002 -0.287,0.001 0,0"
             style="fill:#000000;fill-opacity:1;fill-rule:nonzero;stroke:none"
             id="path52208"
             inkscape:connector-curvature="0" /></g></g></g></g></svg>