<?xml version="1.0" encoding="UTF-8" standalone="no"?>
<!-- Created with Inkscape (http://www.inkscape.org/) -->

<svg
   xmlns:dc="http://purl.org/dc/elements/1.1/"
   xmlns:cc="http://creativecommons.org/ns#"
   xmlns:rdf="http://www.w3.org/1999/02/22-rdf-syntax-ns#"
   xmlns:svg="http://www.w3.org/2000/svg"
   xmlns="http://www.w3.org/2000/svg"
   xmlns:sodipodi="http://sodipodi.sourceforge.net/DTD/sodipodi-0.dtd"
   xmlns:inkscape="http://www.inkscape.org/namespaces/inkscape"
   id="svg56286"
   version="1.1"
   inkscape:version="0.48.5 r10040"
   width="256"
   height="256"
   xml:space="preserve"
   sodipodi:docname="Nintendo - Super Nintendo Entertainment System-content_J.svg"
   inkscape:export-filename="/Users/margetts/Desktop/BAXY RetroActive/png_marked/Nintendo - Super Nintendo Entertainment System-content_J.png"
   inkscape:export-xdpi="90.099998"
   inkscape:export-ydpi="90.099998"><metadata
     id="metadata56292"><rdf:RDF><cc:Work
         rdf:about=""><dc:format>image/svg+xml</dc:format><dc:type
           rdf:resource="http://purl.org/dc/dcmitype/StillImage" /><dc:title></dc:title></cc:Work></rdf:RDF></metadata><defs
     id="defs56290"><clipPath
       clipPathUnits="userSpaceOnUse"
       id="clipPath56300"><path
         d="M 0,128 128,128 128,0 0,0 0,128 z"
         id="path56302"
         inkscape:connector-curvature="0" /></clipPath><clipPath
       clipPathUnits="userSpaceOnUse"
       id="clipPath56678"><path
         d="m 109.229,69.3035 0.026,0 0,-0.0159 -0.026,0 0,0.0159 z"
         id="path56680"
         inkscape:connector-curvature="0" /></clipPath><clipPath
       clipPathUnits="userSpaceOnUse"
       id="clipPath56694"><path
         d="m 108.502,69.1877 0.028,0 0,-0.0181 -0.028,0 0,0.0181 z"
         id="path56696"
         inkscape:connector-curvature="0" /></clipPath></defs><sodipodi:namedview
     pagecolor="#ffffff"
     bordercolor="#666666"
     borderopacity="1"
     objecttolerance="10"
     gridtolerance="10"
     guidetolerance="10"
     inkscape:pageopacity="0"
     inkscape:pageshadow="2"
     inkscape:window-width="1676"
     inkscape:window-height="1005"
     id="namedview56288"
     showgrid="false"
     inkscape:zoom="5.04375"
     inkscape:cx="55.11772"
     inkscape:cy="80"
     inkscape:window-x="4"
     inkscape:window-y="1"
     inkscape:window-maximized="1"
     inkscape:current-layer="g56294" /><g
     id="g56294"
     inkscape:groupmode="layer"
     inkscape:label="Nintendo - Super Nintendo Entertainment System-content_J"
     transform="matrix(1.25,0,0,-1.25,0,256)"><g
       id="g56296"
       transform="matrix(1.6000063,0,0,1.6000063,-8.0320158e-4,-0.01720327)"><g
         id="g56298"
         clip-path="url(#clipPath56300)"><g
           id="g56304"
           transform="translate(4.2085,112.062)"><path
             d="m 0,0 c -0.258,0 -0.491,-0.011 -0.708,-0.035 -2.11,-0.234 -3.45,-2.263 -3.5,-5.295 l 0,-2.15 0,-2.56 0.003,0 -0.003,-0.117 0,-2.336 0,-2.56 0.003,0 -0.003,-0.116 0,-2.336 0,-2.56 0.003,0 -0.003,-0.117 0,-2.336 0,-2.56 0.003,0 -0.003,-0.117 0,-2.336 0,-2.56 0.003,0 -0.003,-0.116 0,-60.659 c 0,-2.888 2.349,-5.237 5.236,-5.237 l 117.527,0 c 2.887,0 5.237,2.349 5.237,5.237 l 0,60.693 0,0.364 0,2.244 0,2.404 0,0.365 0,2.244 0,2.404 0,0.365 0,2.244 0,2.404 0,0.364 0,2.244 0,2.404 0,0.365 0,2.244 0,2.142 c 0,2.951 -2.402,5.353 -5.353,5.353 l -117.295,0 c -0.231,0 -0.436,0.005 -0.621,0.01 C 0.333,-0.004 0.16,0 0,0"
             style="fill:#ffffff;fill-opacity:1;fill-rule:nonzero;stroke:none"
             id="path56306"
             inkscape:connector-curvature="0" /></g><g
           id="g56308"
           transform="translate(2.6433,81.8547)"><path
             d="m 0,0 -0.083,0 0,-60.659 c 0,-1.478 1.198,-2.676 2.676,-2.676 l 117.527,0 c 1.478,0 2.677,1.198 2.677,2.676 l 0,60.693 c -0.655,0.086 -1.171,0.628 -1.171,1.304 0,0.677 0.516,1.218 1.171,1.305 l 0,2.404 c -0.655,0.086 -1.171,0.627 -1.171,1.304 0,0.677 0.516,1.218 1.171,1.305 l 0,2.403 c -0.655,0.087 -1.171,0.628 -1.171,1.305 0,0.677 0.516,1.218 1.171,1.304 l 0,2.404 c -0.655,0.086 -1.171,0.628 -1.171,1.304 0,0.677 0.516,1.218 1.171,1.305 l 0,2.404 c -0.655,0.086 -1.171,0.627 -1.171,1.304 0,0.677 0.516,1.218 1.171,1.304 l 0,2.142 c 0,1.543 -1.251,2.793 -2.793,2.793 l -117.295,0 c -0.698,0 -1.178,0.043 -1.57,0 -1.179,-0.131 -1.222,-2.793 -1.222,-2.793 l 0,-2.108 0.083,0 c 0.736,0 1.338,-0.602 1.338,-1.338 0,-0.736 -0.602,-1.338 -1.338,-1.338 l -0.083,0 0,-2.336 0.083,0 c 0.736,0 1.338,-0.603 1.338,-1.339 C 1.338,15.64 0.736,15.038 0,15.038 l -0.083,0 0,-2.336 0.083,0 c 0.736,0 1.338,-0.602 1.338,-1.338 0,-0.736 -0.602,-1.339 -1.338,-1.339 l -0.083,0 0,-2.336 0.083,0 C 0.736,7.689 1.338,7.087 1.338,6.351 1.338,5.615 0.736,5.013 0,5.013 l -0.083,0 0,-2.336 0.083,0 C 0.736,2.677 1.338,2.075 1.338,1.338 1.338,0.602 0.736,0 0,0"
             style="fill:#999999;fill-opacity:1;fill-rule:nonzero;stroke:none"
             id="path56310"
             inkscape:connector-curvature="0" /></g><g
           id="g56312"
           transform="translate(10.9382,29.2167)"><path
             d="m 0,0 c 1.544,0 2.793,-1.248 2.793,-2.793 0,-1.544 -1.249,-2.792 -2.793,-2.792 -1.544,0 -2.793,1.248 -2.793,2.792 C -2.793,-1.248 -1.544,0 0,0"
             style="fill:#a3834a;fill-opacity:1;fill-rule:nonzero;stroke:none"
             id="path56314"
             inkscape:connector-curvature="0" /></g><g
           id="g56316"
           transform="translate(10.9382,29.2167)"><path
             d="m 0,0 c -1.544,0 -2.793,-1.248 -2.793,-2.793 0,-1.544 1.249,-2.792 2.793,-2.792 1.544,0 2.793,1.248 2.793,2.792 C 2.793,-1.248 1.544,0 0,0 m 0,-0.669 c 1.171,0 2.124,-0.953 2.124,-2.124 0,-1.171 -0.953,-2.123 -2.124,-2.123 -1.171,0 -2.124,0.952 -2.124,2.123 0,1.171 0.953,2.124 2.124,2.124"
             style="fill:#808080;fill-opacity:1;fill-rule:nonzero;stroke:none"
             id="path56318"
             inkscape:connector-curvature="0" /></g><g
           id="g56320"
           transform="translate(117.0618,29.2167)"><path
             d="m 0,0 c 1.544,0 2.793,-1.248 2.793,-2.793 0,-1.544 -1.249,-2.792 -2.793,-2.792 -1.544,0 -2.793,1.248 -2.793,2.792 C -2.793,-1.248 -1.544,0 0,0"
             style="fill:#a3834a;fill-opacity:1;fill-rule:nonzero;stroke:none"
             id="path56322"
             inkscape:connector-curvature="0" /></g><g
           id="g56324"
           transform="translate(117.0618,29.2167)"><path
             d="m 0,0 c -1.544,0 -2.793,-1.248 -2.793,-2.793 0,-1.544 1.249,-2.792 2.793,-2.792 1.544,0 2.793,1.248 2.793,2.792 C 2.793,-1.248 1.544,0 0,0 m 0,-0.669 c 1.171,0 2.124,-0.953 2.124,-2.124 0,-1.171 -0.953,-2.123 -2.124,-2.123 -1.171,0 -2.124,0.952 -2.124,2.123 0,1.171 0.953,2.124 2.124,2.124"
             style="fill:#808080;fill-opacity:1;fill-rule:nonzero;stroke:none"
             id="path56326"
             inkscape:connector-curvature="0" /></g><path
           d="m 25.571,18.519 -1.338,0 0,90.963 1.338,0 0,-90.963 z"
           style="fill:#808080;fill-opacity:1;fill-rule:nonzero;stroke:none"
           id="path56328"
           inkscape:connector-curvature="0" /><path
           d="m 103.768,18.519 -1.338,0 0,90.963 1.338,0 0,-90.963 z"
           style="fill:#808080;fill-opacity:1;fill-rule:nonzero;stroke:none"
           id="path56330"
           inkscape:connector-curvature="0" /><g
           id="g56332"
           transform="translate(108.6835,104.1865)"><path
             d="m 0,0 -89.367,0 c -3.879,0 -5.586,-1.579 -5.586,-5.168 l 0,-28.515 c 0,-3.589 1.707,-5.168 5.586,-5.168 l 89.367,0 c 3.879,0 5.586,1.579 5.586,5.168 l 0,28.515 C 5.586,-1.579 3.879,0 0,0"
             style="fill:#d9d9d9;fill-opacity:1;fill-rule:nonzero;stroke:none"
             id="path56334"
             inkscape:connector-curvature="0" /></g><g
           id="g56336"
           transform="translate(124.8168,103.2436)"><path
             d="M 0,0 C 0,0.715 0.278,1.293 0.623,1.326 0.613,1.327 0.604,1.338 0.594,1.338 l -2.664,0 c -0.359,0 -0.653,-0.602 -0.653,-1.338 0,-0.736 0.294,-1.338 0.653,-1.338 l 2.664,0 c 0.01,0 0.019,0.011 0.029,0.012 C 0.278,-1.293 0,-0.715 0,0"
             style="fill:#808080;fill-opacity:1;fill-rule:nonzero;stroke:none"
             id="path56338"
             inkscape:connector-curvature="0" /></g><g
           id="g56340"
           transform="translate(124.8168,98.2309)"><path
             d="M 0,0 C 0,0.715 0.278,1.293 0.623,1.326 0.613,1.327 0.604,1.338 0.594,1.338 l -2.664,0 c -0.359,0 -0.653,-0.602 -0.653,-1.338 0,-0.736 0.294,-1.338 0.653,-1.338 l 2.664,0 c 0.01,0 0.019,0.011 0.029,0.012 C 0.278,-1.293 0,-0.715 0,0"
             style="fill:#808080;fill-opacity:1;fill-rule:nonzero;stroke:none"
             id="path56342"
             inkscape:connector-curvature="0" /></g><g
           id="g56344"
           transform="translate(124.8168,93.2182)"><path
             d="M 0,0 C 0,0.715 0.278,1.293 0.623,1.326 0.613,1.327 0.604,1.338 0.594,1.338 l -2.664,0 c -0.359,0 -0.653,-0.602 -0.653,-1.338 0,-0.736 0.294,-1.338 0.653,-1.338 l 2.664,0 c 0.01,0 0.019,0.011 0.029,0.012 C 0.278,-1.293 0,-0.715 0,0"
             style="fill:#808080;fill-opacity:1;fill-rule:nonzero;stroke:none"
             id="path56346"
             inkscape:connector-curvature="0" /></g><g
           id="g56348"
           transform="translate(124.8168,88.2054)"><path
             d="M 0,0 C 0,0.715 0.278,1.293 0.623,1.326 0.613,1.327 0.604,1.338 0.594,1.338 l -2.664,0 c -0.359,0 -0.653,-0.602 -0.653,-1.338 0,-0.736 0.294,-1.338 0.653,-1.338 l 2.664,0 c 0.01,0 0.019,0.011 0.029,0.012 C 0.278,-1.293 0,-0.715 0,0"
             style="fill:#808080;fill-opacity:1;fill-rule:nonzero;stroke:none"
             id="path56350"
             inkscape:connector-curvature="0" /></g><g
           id="g56352"
           transform="translate(124.8168,83.1927)"><path
             d="M 0,0 C 0,0.715 0.278,1.293 0.623,1.326 0.613,1.327 0.604,1.338 0.594,1.338 l -2.664,0 c -0.359,0 -0.653,-0.602 -0.653,-1.338 0,-0.736 0.294,-1.338 0.653,-1.338 l 2.664,0 c 0.01,0 0.019,0.011 0.029,0.012 C 0.278,-1.293 0,-0.715 0,0"
             style="fill:#808080;fill-opacity:1;fill-rule:nonzero;stroke:none"
             id="path56354"
             inkscape:connector-curvature="0" /></g><g
           id="g56356"
           transform="translate(3.3174,103.2436)"><path
             d="m 0,0 c 0,0.715 -0.278,1.293 -0.623,1.326 0.01,10e-4 0.019,0.012 0.029,0.012 l 2.664,0 C 2.429,1.338 2.723,0.736 2.723,0 2.723,-0.736 2.429,-1.338 2.07,-1.338 l -2.664,0 c -0.01,0 -0.019,0.011 -0.029,0.012 C -0.278,-1.293 0,-0.715 0,0"
             style="fill:#808080;fill-opacity:1;fill-rule:nonzero;stroke:none"
             id="path56358"
             inkscape:connector-curvature="0" /></g><g
           id="g56360"
           transform="translate(3.3174,98.2309)"><path
             d="m 0,0 c 0,0.715 -0.278,1.293 -0.623,1.326 0.01,10e-4 0.019,0.012 0.029,0.012 l 2.664,0 C 2.429,1.338 2.723,0.736 2.723,0 2.723,-0.736 2.429,-1.338 2.07,-1.338 l -2.664,0 c -0.01,0 -0.019,0.011 -0.029,0.012 C -0.278,-1.293 0,-0.715 0,0"
             style="fill:#808080;fill-opacity:1;fill-rule:nonzero;stroke:none"
             id="path56362"
             inkscape:connector-curvature="0" /></g><g
           id="g56364"
           transform="translate(3.3174,93.2182)"><path
             d="m 0,0 c 0,0.715 -0.278,1.293 -0.623,1.326 0.01,10e-4 0.019,0.012 0.029,0.012 l 2.664,0 C 2.429,1.338 2.723,0.736 2.723,0 2.723,-0.736 2.429,-1.338 2.07,-1.338 l -2.664,0 c -0.01,0 -0.019,0.011 -0.029,0.012 C -0.278,-1.293 0,-0.715 0,0"
             style="fill:#808080;fill-opacity:1;fill-rule:nonzero;stroke:none"
             id="path56366"
             inkscape:connector-curvature="0" /></g><g
           id="g56368"
           transform="translate(3.3174,88.2054)"><path
             d="m 0,0 c 0,0.715 -0.278,1.293 -0.623,1.326 0.01,10e-4 0.019,0.012 0.029,0.012 l 2.664,0 C 2.429,1.338 2.723,0.736 2.723,0 2.723,-0.736 2.429,-1.338 2.07,-1.338 l -2.664,0 c -0.01,0 -0.019,0.011 -0.029,0.012 C -0.278,-1.293 0,-0.715 0,0"
             style="fill:#808080;fill-opacity:1;fill-rule:nonzero;stroke:none"
             id="path56370"
             inkscape:connector-curvature="0" /></g><g
           id="g56372"
           transform="translate(3.3174,83.1927)"><path
             d="m 0,0 c 0,0.715 -0.278,1.293 -0.623,1.326 0.01,10e-4 0.019,0.012 0.029,0.012 l 2.664,0 C 2.429,1.338 2.723,0.736 2.723,0 2.723,-0.736 2.429,-1.338 2.07,-1.338 l -2.664,0 c -0.01,0 -0.019,0.011 -0.029,0.012 C -0.278,-1.293 0,-0.715 0,0"
             style="fill:#808080;fill-opacity:1;fill-rule:nonzero;stroke:none"
             id="path56374"
             inkscape:connector-curvature="0" /></g><path
           d="m 29.203,91.27 -11.599,0 0,8.477 11.599,0 0,-8.477 z"
           style="fill:#191919;fill-opacity:1;fill-rule:nonzero;stroke:none"
           id="path56376"
           inkscape:connector-curvature="0" /><g
           id="g56378"
           transform="translate(21.9321,95.5088)"><path
             d="m 0,0 c 0,-0.625 -0.716,-1.132 -1.6,-1.132 -0.883,0 -1.599,0.507 -1.599,1.132 0,0.625 0.716,1.132 1.599,1.132 C -0.716,1.132 0,0.625 0,0"
             style="fill:#2a803e;fill-opacity:1;fill-rule:nonzero;stroke:none"
             id="path56380"
             inkscape:connector-curvature="0" /></g><g
           id="g56382"
           transform="translate(24.9485,93.4275)"><path
             d="m 0,0 c 0,-0.625 -0.716,-1.132 -1.6,-1.132 -0.883,0 -1.599,0.507 -1.599,1.132 0,0.625 0.716,1.132 1.599,1.132 C -0.716,1.132 0,0.625 0,0"
             style="fill:#fbb031;fill-opacity:1;fill-rule:nonzero;stroke:none"
             id="path56384"
             inkscape:connector-curvature="0" /></g><g
           id="g56386"
           transform="translate(25.0581,97.5901)"><path
             d="m 0,0 c 0,-0.625 -0.716,-1.132 -1.6,-1.132 -0.883,0 -1.599,0.507 -1.599,1.132 0,0.625 0.716,1.132 1.599,1.132 C -0.716,1.132 0,0.625 0,0"
             style="fill:#3659a7;fill-opacity:1;fill-rule:nonzero;stroke:none"
             id="path56388"
             inkscape:connector-curvature="0" /></g><g
           id="g56390"
           transform="translate(28.0744,95.5088)"><path
             d="m 0,0 c 0,-0.625 -0.716,-1.132 -1.6,-1.132 -0.883,0 -1.599,0.507 -1.599,1.132 0,0.625 0.716,1.132 1.599,1.132 C -0.716,1.132 0,0.625 0,0"
             style="fill:#bd2026;fill-opacity:1;fill-rule:nonzero;stroke:none"
             id="path56392"
             inkscape:connector-curvature="0" /></g><g
           id="g56394"
           transform="translate(18.0927,90.4119)"><path
             d="m 0,0 c -0.058,-0.001 -0.107,-0.011 -0.147,-0.03 -0.04,-0.02 -0.06,-0.056 -0.06,-0.111 0,-0.041 0.017,-0.071 0.051,-0.088 0.034,-0.018 0.074,-0.027 0.119,-0.027 l 0.356,0.001 c 0.013,-0.001 0.027,-0.001 0.041,-0.001 0.014,0 0.029,0 0.043,-0.001 0.041,-0.002 0.083,-0.008 0.123,-0.018 0.04,-0.009 0.076,-0.026 0.107,-0.051 0.028,-0.021 0.05,-0.047 0.064,-0.078 0.014,-0.03 0.023,-0.062 0.027,-0.095 0.001,-0.01 0.002,-0.019 0.002,-0.028 0.001,-0.01 0.002,-0.019 0.002,-0.029 C 0.725,-0.68 0.684,-0.763 0.605,-0.807 0.525,-0.851 0.417,-0.873 0.28,-0.873 l -0.716,0 0,0.189 0.673,0 c 0.059,-0.001 0.111,0.007 0.154,0.024 0.044,0.017 0.061,0.055 0.053,0.114 C 0.438,-0.5 0.417,-0.471 0.382,-0.46 0.346,-0.449 0.303,-0.443 0.255,-0.442 l -0.317,0.001 c -0.132,-0.001 -0.236,0.021 -0.313,0.066 -0.077,0.045 -0.115,0.126 -0.114,0.243 0.003,0.124 0.045,0.208 0.125,0.253 0.08,0.044 0.188,0.067 0.325,0.067 L 0.665,0.189 0.665,0 0,0 z"
             style="fill:#191919;fill-opacity:1;fill-rule:nonzero;stroke:none"
             id="path56396"
             inkscape:connector-curvature="0" /></g><g
           id="g56398"
           transform="translate(19.4614,89.5389)"><path
             d="M 0,0 C -0.161,0.001 -0.286,0.029 -0.376,0.083 -0.466,0.136 -0.51,0.239 -0.51,0.391 l 0,0.671 0.322,0 0,-0.639 c 0,-0.074 0.014,-0.123 0.042,-0.149 0.028,-0.025 0.085,-0.038 0.172,-0.038 l 0.259,-0.002 0,0.828 0.322,0 L 0.607,0 0,0 z"
             style="fill:#191919;fill-opacity:1;fill-rule:nonzero;stroke:none"
             id="path56400"
             inkscape:connector-curvature="0" /></g><g
           id="g56402"
           transform="translate(20.8408,90.4119)"><path
             d="m 0,0 -0.311,0 0,-0.314 0.327,0 c 0.065,0 0.121,0.011 0.168,0.032 0.048,0.021 0.071,0.063 0.071,0.124 C 0.258,-0.09 0.233,-0.047 0.18,-0.029 0.127,-0.011 0.068,-0.001 0,-0.001 L 0,0 z M 0.003,0.189 C 0.005,0.188 0.006,0.188 0.008,0.188 l 0.004,0 0.068,0 C 0.102,0.188 0.125,0.187 0.147,0.185 0.187,0.183 0.227,0.178 0.267,0.171 0.307,0.164 0.344,0.151 0.378,0.135 0.441,0.104 0.485,0.062 0.512,0.009 0.538,-0.044 0.552,-0.1 0.553,-0.158 0.555,-0.212 0.544,-0.263 0.521,-0.312 0.497,-0.361 0.459,-0.402 0.406,-0.435 0.361,-0.462 0.313,-0.479 0.26,-0.487 0.207,-0.496 0.154,-0.501 0.099,-0.503 l -0.042,0 -0.043,0 -0.325,0.001 0,-0.371 -0.268,0 0,1.062 0.582,0 z"
             style="fill:#191919;fill-opacity:1;fill-rule:nonzero;stroke:none"
             id="path56404"
             inkscape:connector-curvature="0" /></g><g
           id="g56406"
           transform="translate(21.9036,90.3505)"><path
             d="m 0,0 c -0.049,-0.043 -0.076,-0.104 -0.082,-0.183 l 0.744,0.002 0,-0.185 -0.746,0 c 0,-0.038 0.005,-0.074 0.015,-0.108 0.01,-0.035 0.031,-0.066 0.061,-0.095 0.028,-0.027 0.06,-0.043 0.098,-0.049 0.037,-0.007 0.075,-0.01 0.115,-0.01 l 0.008,0 0.008,0 0.441,0.001 0,-0.185 -0.454,0 c -0.072,0 -0.142,0.006 -0.209,0.017 -0.067,0.011 -0.131,0.036 -0.19,0.075 -0.071,0.049 -0.121,0.107 -0.149,0.177 -0.029,0.07 -0.044,0.141 -0.047,0.214 -0.001,0.015 -0.001,0.031 0,0.046 0,0.014 0.001,0.029 0.002,0.044 0.013,0.168 0.068,0.291 0.165,0.37 0.096,0.079 0.242,0.118 0.435,0.118 l 0.447,0.002 0,-0.185 -0.441,0 C 0.122,0.065 0.049,0.043 0,0"
             style="fill:#191919;fill-opacity:1;fill-rule:nonzero;stroke:none"
             id="path56408"
             inkscape:connector-curvature="0" /></g><g
           id="g56410"
           transform="translate(23.3719,90.4119)"><path
             d="m 0,0 -0.349,0 0,-0.268 0.349,0 c 0.002,-0.001 0.005,-0.001 0.007,-0.001 l 0.008,0 c 0.06,0 0.115,0.007 0.165,0.021 0.049,0.014 0.073,0.052 0.072,0.113 0,0.063 -0.026,0.102 -0.078,0.114 -0.052,0.013 -0.11,0.02 -0.174,0.02 L 0,0 z M 0.067,0.189 C 0.081,0.188 0.095,0.188 0.108,0.188 0.121,0.188 0.135,0.187 0.148,0.186 0.2,0.184 0.251,0.178 0.3,0.167 0.349,0.156 0.393,0.136 0.431,0.106 0.464,0.081 0.49,0.051 0.507,0.016 c 0.017,-0.034 0.027,-0.07 0.031,-0.106 0,-0.007 0,-0.014 0.001,-0.021 C 0.54,-0.118 0.54,-0.125 0.54,-0.132 0.541,-0.206 0.52,-0.269 0.475,-0.323 0.43,-0.377 0.361,-0.413 0.267,-0.431 l 0.337,-0.442 -0.32,0 -0.297,0.417 -0.336,0 0,-0.417 -0.284,0 0,1.062 0.7,0 z"
             style="fill:#191919;fill-opacity:1;fill-rule:nonzero;stroke:none"
             id="path56412"
             inkscape:connector-curvature="0" /></g><g
           id="g56414"
           transform="translate(24.785,90.4666)"><path
             d="m 0,0 c 0.079,0.089 0.253,0.133 0.52,0.133 l 0.416,0.002 0,-0.185 -0.44,0 C 0.382,-0.052 0.298,-0.072 0.244,-0.111 0.191,-0.149 0.161,-0.216 0.155,-0.311 l 0.781,0.002 0,-0.184 -0.781,0 0,-0.435 -0.273,0 0,0.489 c 0,0.204 0.039,0.35 0.118,0.439"
             style="fill:#191919;fill-opacity:1;fill-rule:nonzero;stroke:none"
             id="path56416"
             inkscape:connector-curvature="0" /></g><g
           id="g56418"
           transform="translate(28.2556,90.6082)"><path
             d="m 0,0 c 0.138,-0.003 0.246,-0.031 0.324,-0.085 0.079,-0.053 0.119,-0.155 0.12,-0.306 l 0,-0.671 -0.284,0 0,0.637 c 0,0.099 -0.021,0.157 -0.064,0.172 -0.043,0.015 -0.107,0.022 -0.192,0.019 -0.013,-10e-4 -0.027,-0.002 -0.041,-0.002 l -0.044,0 0,-0.826 -0.288,0 0,0.828 -0.331,0 0,-0.828 -0.284,0 0,1.062 L 0,0 z"
             style="fill:#191919;fill-opacity:1;fill-rule:nonzero;stroke:none"
             id="path56420"
             inkscape:connector-curvature="0" /></g><path
           d="m 28.877,90.601 0.326,0 0,-1.062 -0.326,0 0,1.062 z"
           style="fill:#191919;fill-opacity:1;fill-rule:nonzero;stroke:none"
           id="path56422"
           inkscape:connector-curvature="0" /><g
           id="g56424"
           transform="translate(26.3068,89.7525)"><path
             d="m 0,0 0.375,0 0,0.22 -0.353,0 C 0.019,0.219 0.016,0.218 0.013,0.218 l -0.008,0 C -0.036,0.217 -0.073,0.209 -0.107,0.197 -0.141,0.184 -0.16,0.154 -0.161,0.107 -0.164,0.054 -0.148,0.024 -0.115,0.014 -0.081,0.005 -0.043,-0.001 0,-0.002 L 0,0 z M 0.216,0.849 C 0.281,0.847 0.344,0.84 0.406,0.827 0.467,0.815 0.522,0.785 0.571,0.74 0.612,0.702 0.641,0.658 0.657,0.607 0.674,0.556 0.682,0.503 0.682,0.45 l 0,-0.664 -0.805,0 c -0.116,0 -0.205,0.03 -0.266,0.09 -0.062,0.06 -0.09,0.143 -0.084,0.249 0.01,0.128 0.058,0.21 0.144,0.248 0.086,0.038 0.189,0.056 0.308,0.056 L 0.372,0.431 C 0.377,0.519 0.353,0.573 0.3,0.595 0.248,0.616 0.181,0.627 0.102,0.627 l -0.5,0.002 0,0.22 0.614,0 z"
             style="fill:#191919;fill-opacity:1;fill-rule:nonzero;stroke:none"
             id="path56426"
             inkscape:connector-curvature="0" /></g><g
           id="g56428"
           transform="translate(108.6503,95.8835)"><path
             d="m 0,0 -13.546,0 c -1.145,-0.004 -1.84,0.764 -1.84,1.706 0,0.942 0.7,1.704 1.84,1.706 L 0,3.412 C 1.14,3.41 1.839,2.648 1.839,1.706 1.839,0.764 1.144,-0.004 0,0 m 0.006,3.968 -13.559,0 c -1.435,0.003 -2.399,-1.028 -2.399,-2.266 0,-1.236 0.962,-2.256 2.401,-2.257 l 13.556,0 c 1.439,0.001 2.401,1.021 2.401,2.257 0,1.238 -0.964,2.269 -2.4,2.266"
             style="fill:#191919;fill-opacity:1;fill-rule:nonzero;stroke:none"
             id="path56430"
             inkscape:connector-curvature="0" /></g><g
           id="g56432"
           transform="translate(104.0084,98.4336)"><path
             d="m 0,0 0.641,0 0,-0.286 0.346,0 0,-0.211 -0.346,0 0,-1.413 -0.642,0 0.001,1.413 -0.348,0 0,0.21 0.349,0 L 0,0 z"
             style="fill:#191919;fill-opacity:1;fill-rule:nonzero;stroke:none"
             id="path56434"
             inkscape:connector-curvature="0" /></g><path
           d="m 96.505,97.939 0.64,0 0,-1.416 -0.64,0 0,1.416 z"
           style="fill:#191919;fill-opacity:1;fill-rule:nonzero;stroke:none"
           id="path56436"
           inkscape:connector-curvature="0" /><path
           d="m 96.503,98.653 0.642,0 0,-0.435 -0.642,0 0,0.435 z"
           style="fill:#191919;fill-opacity:1;fill-rule:nonzero;stroke:none"
           id="path56438"
           inkscape:connector-curvature="0" /><g
           id="g56440"
           transform="translate(108.2725,97.291)"><path
             d="m 0,0 0,0 c 0,-0.004 -0.001,-0.214 -0.001,-0.299 0,-0.226 -0.133,-0.319 -0.261,-0.319 -0.128,0 -0.262,0.093 -0.262,0.319 l 0,0.305 c 0,0 0,0.21 0,0.295 0,0.225 0.134,0.317 0.262,0.317 0.128,0 0.261,-0.092 0.261,-0.317 0,-0.085 0,-0.244 0.001,-0.301 L 0,0.001 0,0 z m -0.257,0.794 c -0.517,0 -0.936,-0.356 -0.936,-0.795 0,-0.439 0.419,-0.795 0.936,-0.795 0.517,0 0.935,0.356 0.935,0.795 0,0.439 -0.418,0.795 -0.935,0.795"
             style="fill:#191919;fill-opacity:1;fill-rule:nonzero;stroke:none"
             id="path56442"
             inkscape:connector-curvature="0" /></g><g
           id="g56444"
           transform="translate(98.1545,97.4957)"><path
             d="m 0,0 c 0,0.219 0.151,0.275 0.251,0.275 0.102,0 0.251,-0.056 0.251,-0.275 0,-0.072 -0.001,-0.252 -0.001,-0.252 0,0 0.001,-0.177 0.001,-0.252 C 0.502,-0.722 0.353,-0.78 0.251,-0.78 0.151,-0.78 0,-0.722 0,-0.504 L 0,-0.253 0,0 z m -0.627,1.161 0,-2.129 0.633,0 c 0,0 0,0.069 0,0.082 0.245,-0.153 0.521,-0.153 0.737,-0.053 0.057,0.027 0.438,0.209 0.438,0.702 0,0.374 -0.353,0.782 -0.814,0.741 C 0.215,0.491 0.107,0.436 0.005,0.378 l 0,0.783 -0.632,0 z"
             style="fill:#191919;fill-opacity:1;fill-rule:nonzero;stroke:none"
             id="path56446"
             inkscape:connector-curvature="0" /></g><g
           id="g56448"
           transform="translate(102.4697,97.7797)"><path
             d="m 0,0 c 0.05,0.087 0.142,0.129 0.225,0.129 l 0,0 0,0 0,0 C 0.309,0.129 0.401,0.087 0.45,0 0.491,-0.071 0.493,-0.154 0.492,-0.278 l -0.534,0 C -0.044,-0.154 -0.041,-0.071 0,0 m 0.49,-0.79 c 0,-0.26 -0.17,-0.317 -0.265,-0.317 -0.094,0 -0.267,0.057 -0.267,0.317 0,0.077 0,0.292 0,0.292 l 1.206,0 c 0,0.439 -0.424,0.803 -0.945,0.803 -0.52,0 -0.942,-0.356 -0.942,-0.795 0,-0.439 0.422,-0.795 0.942,-0.795 0.432,0 0.797,0.247 0.909,0.581 L 0.49,-0.705 c 0,0 0,-0.006 0,-0.085"
             style="fill:#191919;fill-opacity:1;fill-rule:nonzero;stroke:none"
             id="path56450"
             inkscape:connector-curvature="0" /></g><g
           id="g56452"
           transform="translate(95.4445,96.7338)"><path
             d="m 0,0 0,1.929 -0.641,0 0,-1.929 0,-0.21 0.641,0 0.694,0 0,0.21 L 0,0 z"
             style="fill:#191919;fill-opacity:1;fill-rule:nonzero;stroke:none"
             id="path56454"
             inkscape:connector-curvature="0" /></g><g
           id="g56456"
           transform="translate(106.338,97.4209)"><path
             d="M 0,0 0.627,0 C 0.563,0.457 0.135,0.589 -0.086,0.583 -0.297,0.577 -0.473,0.486 -0.596,0.369 c -0.001,0.035 0,0.15 0,0.15 l -0.635,-0.001 -10e-4,-1.415 0.636,0 c 0,0 -0.001,0.869 -0.001,0.929 0,0.123 0.13,0.261 0.304,0.261 C -0.118,0.293 0,0.155 0,0.032 L 0,0 z"
             style="fill:#191919;fill-opacity:1;fill-rule:nonzero;stroke:none"
             id="path56458"
             inkscape:connector-curvature="0" /></g><g
           id="g56460"
           transform="translate(100.3424,97.9374)"><path
             d="m 0,0 0,0.251 c 0,0.219 0.151,0.276 0.251,0.276 0.102,0 0.251,-0.057 0.251,-0.276 0,-0.075 -0.001,-0.252 -0.001,-0.252 0,0 0.001,-0.18 0.001,-0.252 0,-0.219 -0.149,-0.275 -0.251,-0.275 C 0.151,-0.528 0,-0.472 0,-0.253 L 0,0 z m 1.181,-0.016 c 0,0.493 -0.381,0.675 -0.438,0.702 -0.216,0.1 -0.492,0.101 -0.737,-0.053 0,0.013 0,0.082 0,0.082 l -0.633,0 0,-2.129 0.632,0 0,0.784 C 0.007,-0.632 0.01,-0.634 0.013,-0.635 l 0.496,-0.779 0.627,0 -0.447,0.703 c 0.293,0.115 0.492,0.415 0.492,0.695"
             style="fill:#191919;fill-opacity:1;fill-rule:nonzero;stroke:none"
             id="path56462"
             inkscape:connector-curvature="0" /></g><g
           id="g56464"
           transform="translate(97.8778,46.5979)"><path
             d="m 0,0 -67.756,0 c -1.61,0 -2.927,1.317 -2.927,2.928 l 0,0 c 0,1.61 1.317,2.927 2.927,2.927 L 0,5.855 c 1.61,0 2.928,-1.317 2.928,-2.927 l 0,0 C 2.928,1.317 1.61,0 0,0"
             style="fill:#737373;fill-opacity:1;fill-rule:nonzero;stroke:none"
             id="path56466"
             inkscape:connector-curvature="0" /></g><path
           d="m 76.547,46.598 -25.764,0 0,5.855 25.764,0 0,-5.855 z"
           style="fill:#666666;fill-opacity:1;fill-rule:nonzero;stroke:none"
           id="path56468"
           inkscape:connector-curvature="0" /><g
           id="g56470"
           transform="translate(59.4954,71.5728)"><path
             d="M 0,0 C 0,0.055 0.002,0.075 0,0.094 -0.016,0.218 -0.053,0.333 -0.141,0.427 -0.416,0.723 -0.75,0.919 -1.143,1.009 -1.327,1.052 -1.43,0.945 -1.396,0.76 c 0.011,-0.062 0.028,-0.125 0.054,-0.183 0.123,-0.274 0.279,-0.529 0.476,-0.758 0.083,-0.097 0.179,-0.182 0.291,-0.245 0.251,-0.143 0.439,-0.072 0.526,0.202 C -0.023,-0.14 -0.011,-0.052 0,0 M 1.748,-0.425 C 1.915,-0.432 2.061,-0.358 2.21,-0.299 2.803,-0.067 3.338,0.295 3.95,0.486 4.093,0.53 4.023,0.612 3.958,0.668 3.717,0.878 3.467,1.076 3.205,1.257 3.063,1.355 2.99,1.33 2.961,1.156 2.913,0.858 2.761,0.631 2.541,0.436 2.432,0.338 2.33,0.231 2.232,0.121 2.071,-0.062 1.884,-0.221 1.75,-0.428 1.746,-0.429 1.742,-0.429 1.739,-0.432 1.737,-0.433 1.738,-0.437 1.738,-0.44 c 0.003,0.005 0.006,0.01 0.01,0.015 m -4.096,-0.945 0,0.766 c 0.056,0.102 0.044,0.218 0.068,0.326 0.184,0.797 0.561,1.48 1.192,2.014 C -0.19,2.498 0.847,2.774 1.996,2.563 3.03,2.373 3.858,1.829 4.408,0.927 5.179,-0.339 5.163,-1.624 4.416,-2.903 4.314,-3.077 4.154,-3.208 4.08,-3.399 3.448,-3.106 2.898,-2.706 2.439,-2.178 2.046,-1.725 1.715,-1.223 1.32,-0.772 1.277,-0.723 1.273,-0.669 1.273,-0.608 1.271,0.249 1.331,1.099 1.603,1.921 1.645,2.049 1.607,2.115 1.484,2.151 1.216,2.231 0.95,2.318 0.681,2.395 0.584,2.423 0.478,2.458 0.391,2.366 0.307,2.276 0.335,2.168 0.374,2.074 0.532,1.692 0.593,1.292 0.615,0.883 c 0.044,-0.838 0.01,-1.669 -0.231,-2.48 -0.261,-0.881 -0.776,-1.576 -1.55,-2.077 -0.028,0.034 -0.053,0.07 -0.083,0.101 -0.492,0.493 -0.831,1.07 -0.997,1.749 -0.036,0.151 -0.033,0.311 -0.102,0.454"
             style="fill:#a56a9a;fill-opacity:1;fill-rule:nonzero;stroke:none"
             id="path56472"
             inkscape:connector-curvature="0" /></g><g
           id="g56474"
           transform="translate(63.5752,68.1742)"><path
             d="m 0,0 c 0.268,-0.127 0.547,-0.225 0.827,-0.321 0.101,-0.034 0.198,-0.076 0.291,-0.127 l 0,-0.059 C 1.071,-0.517 1.024,-0.531 0.977,-0.537 0.388,-0.612 -0.202,-0.657 -0.795,-0.603 -1.207,-0.483 -1.537,-0.236 -1.837,0.06 -2.204,0.424 -2.521,0.829 -2.836,1.237 -2.918,1.344 -3.001,1.451 -3.102,1.582 -3.124,1.486 -3.14,1.421 -3.156,1.357 -3.299,0.78 -3.559,0.276 -4.038,-0.097 -4.289,-0.292 -4.578,-0.411 -4.867,-0.53 -5.229,-0.618 -5.592,-0.7 -6,-0.713 c 0.279,0.143 0.53,0.269 0.754,0.438 0.774,0.5 1.289,1.195 1.551,2.076 0.24,0.811 0.274,1.643 0.23,2.481 -0.021,0.409 -0.082,0.809 -0.241,1.191 -0.039,0.093 -0.067,0.201 0.018,0.292 0.086,0.092 0.192,0.057 0.29,0.029 C -3.13,5.716 -2.864,5.63 -2.596,5.55 -2.473,5.513 -2.434,5.448 -2.477,5.319 -2.748,4.498 -2.808,3.648 -2.807,2.79 -2.807,2.73 -2.803,2.675 -2.76,2.626 -2.365,2.175 -2.034,1.673 -1.64,1.221 -1.181,0.693 -0.632,0.292 0,0"
             style="fill:#ed1c24;fill-opacity:1;fill-rule:nonzero;stroke:none"
             id="path56476"
             inkscape:connector-curvature="0" /></g><g
           id="g56478"
           transform="translate(61.2458,71.1449)"><path
             d="m 0,0 c 0.134,0.206 0.321,0.366 0.482,0.549 0.097,0.11 0.199,0.217 0.309,0.315 0.22,0.195 0.372,0.421 0.42,0.72 C 1.239,1.758 1.313,1.783 1.455,1.685 1.717,1.504 1.967,1.306 2.207,1.096 2.272,1.04 2.343,0.958 2.2,0.914 1.587,0.723 1.053,0.361 0.46,0.129 0.311,0.07 0.165,-0.004 -0.003,0.003 L 0,0 z"
             style="fill:#ed1c24;fill-opacity:1;fill-rule:nonzero;stroke:none"
             id="path56480"
             inkscape:connector-curvature="0" /></g><g
           id="g56482"
           transform="translate(59.4954,71.5728)"><path
             d="m 0,0 c -0.011,-0.052 -0.023,-0.14 -0.049,-0.224 -0.087,-0.274 -0.275,-0.345 -0.526,-0.202 -0.112,0.063 -0.208,0.148 -0.291,0.245 C -1.063,0.048 -1.219,0.303 -1.342,0.577 -1.368,0.635 -1.385,0.698 -1.396,0.76 -1.43,0.945 -1.327,1.052 -1.143,1.009 -0.75,0.919 -0.416,0.723 -0.141,0.427 -0.053,0.333 -0.016,0.218 0,0.094 0.002,0.075 0,0.055 0,0"
             style="fill:#ed1c24;fill-opacity:1;fill-rule:nonzero;stroke:none"
             id="path56484"
             inkscape:connector-curvature="0" /></g><g
           id="g56486"
           transform="translate(61.243,71.1474)"><path
             d="m 0,0 c -0.003,-0.005 -0.006,-0.01 -0.01,-0.014 0.001,0.002 0,0.007 0.001,0.008 0.003,0.002 0.008,0.002 0.012,0.003 L 0,0 z"
             style="fill:#d32310;fill-opacity:1;fill-rule:nonzero;stroke:none"
             id="path56488"
             inkscape:connector-curvature="0" /></g><g
           id="g56490"
           transform="translate(62.7802,67.5712)"><path
             d="m 0,0 c -0.189,-0.189 -0.435,-0.28 -0.677,-0.366 -1.17,-0.414 -2.285,-0.288 -3.335,0.377 -0.024,0.014 -0.04,0.041 -0.06,0.062 0.289,0.12 0.578,0.238 0.829,0.433 0.479,0.373 0.739,0.878 0.882,1.454 0.016,0.064 0.031,0.129 0.054,0.225 C -2.206,2.054 -2.123,1.947 -2.041,1.84 -1.727,1.432 -1.409,1.027 -1.042,0.663 -0.742,0.367 -0.412,0.12 0,0"
             style="fill:#a56a9a;fill-opacity:1;fill-rule:nonzero;stroke:none"
             id="path56492"
             inkscape:connector-curvature="0" /></g><g
           id="g56494"
           transform="translate(66.3371,70.0256)"><path
             d="m 0,0 c 0.387,-0.048 0.771,-0.078 1.161,-0.078 0.112,0 0.35,0 0.35,0.159 0,0.119 -0.061,0.143 -0.669,0.143 -0.312,0 -0.655,0.105 -0.655,0.486 0,0.523 0.271,0.947 0.679,1.062 0.227,0.065 0.557,0.072 0.808,0.072 0.34,0 0.886,-0.017 1.382,-0.092 L 2.842,1.002 C 2.513,1.042 2.187,1.076 1.854,1.076 1.45,1.076 1.355,1.019 1.355,0.903 c 0,-0.098 0.068,-0.125 0.601,-0.125 0.387,0 0.726,-0.017 0.726,-0.527 0,-0.19 -0.088,-0.455 -0.159,-0.57 -0.211,-0.34 -0.55,-0.404 -1.219,-0.404 -0.543,0 -1.005,0.03 -1.457,0.112 L 0,0 z"
             style="fill:#aaacb3;fill-opacity:1;fill-rule:nonzero;stroke:none"
             id="path56496"
             inkscape:connector-curvature="0" /></g><g
           id="g56498"
           transform="translate(69.7035,71.4278)"><path
             d="m 0,0 0.985,0 -0.129,-0.482 0.006,0 c 0.208,0.384 0.476,0.553 0.907,0.553 0.34,0 0.642,-0.119 0.642,-0.475 0,-0.136 -0.034,-0.278 -0.075,-0.421 L 2,-2.054 l -1.025,0 0.173,0.621 c 0.034,0.122 0.091,0.329 0.091,0.408 0,0.132 -0.091,0.173 -0.2,0.173 -0.19,0 -0.282,-0.058 -0.363,-0.37 l -0.218,-0.832 -1.005,0 L 0,0 z"
             style="fill:#aaacb3;fill-opacity:1;fill-rule:nonzero;stroke:none"
             id="path56500"
             inkscape:connector-curvature="0" /></g><g
           id="g56502"
           transform="translate(74.1226,70.6232)"><path
             d="m 0,0 c 0.01,0.061 0.02,0.112 0.02,0.163 0,0.153 -0.169,0.19 -0.258,0.19 C -0.475,0.353 -0.608,0.285 -0.71,0 L 0,0 z m -0.845,-0.431 c -0.014,-0.044 -0.017,-0.078 -0.017,-0.109 0,-0.221 0.275,-0.227 0.492,-0.227 0.319,0 0.631,0.071 0.934,0.135 L 0.299,-1.171 c -0.367,-0.096 -0.751,-0.15 -1.131,-0.15 -0.465,0 -1.046,0.044 -1.046,0.645 0,0.448 0.201,0.951 0.391,1.178 0.302,0.36 0.669,0.374 1.11,0.374 0.91,0 1.26,-0.16 1.26,-0.713 0,-0.119 -0.109,-0.458 -0.17,-0.594 l -1.558,0 z"
             style="fill:#aaacb3;fill-opacity:1;fill-rule:nonzero;stroke:none"
             id="path56504"
             inkscape:connector-curvature="0" /></g><g
           id="g56506"
           transform="translate(75.1223,69.9441)"><path
             d="m 0,0 c 0.272,-0.048 0.547,-0.058 0.822,-0.058 0.078,0 0.407,0 0.407,0.129 0,0.075 -0.041,0.095 -0.119,0.095 -0.098,0 -0.237,-0.01 -0.387,-0.01 -0.404,0 -0.635,0.061 -0.635,0.496 0,0.472 0.252,0.903 1.216,0.903 0.336,0 0.879,0 1.321,-0.075 L 2.465,0.852 C 2.271,0.9 1.84,0.91 1.715,0.91 1.572,0.91 1.229,0.903 1.229,0.774 c 0,-0.085 0.044,-0.102 0.17,-0.102 0.075,0 0.19,0.007 0.346,0.007 0.33,0 0.625,-0.031 0.625,-0.445 0,-0.832 -0.73,-0.876 -1.379,-0.876 -0.38,0 -0.753,0.031 -1.13,0.065 L 0,0 z"
             style="fill:#aaacb3;fill-opacity:1;fill-rule:nonzero;stroke:none"
             id="path56508"
             inkscape:connector-curvature="0" /></g><g
           id="g56510"
           transform="translate(79.5684,71.0034)"><path
             d="m 0,0 c 0,0.194 -0.139,0.221 -0.278,0.221 -0.262,0 -0.408,-0.231 -0.408,-0.445 0,-0.156 0.126,-0.2 0.285,-0.2 C -0.078,-0.424 0,-0.126 0,0 m -1.708,-1.012 c 0.251,-0.085 0.547,-0.136 0.812,-0.136 0.298,0 0.648,0.092 0.706,0.438 l -0.007,0 c -0.149,-0.135 -0.363,-0.176 -0.57,-0.176 -0.394,0 -0.904,0.078 -0.904,0.58 0,0.211 0.048,0.418 0.14,0.608 0.21,0.431 0.509,0.564 1.256,0.564 1.019,0 1.29,-0.245 1.29,-0.815 0,-0.329 -0.149,-0.839 -0.329,-1.192 -0.265,-0.526 -1.036,-0.56 -1.402,-0.56 -0.306,0 -0.731,0.051 -1.135,0.149 l 0.143,0.54 z"
             style="fill:#aaacb3;fill-opacity:1;fill-rule:nonzero;stroke:none"
             id="path56512"
             inkscape:connector-curvature="0" /></g><g
           id="g56514"
           transform="translate(81.974,69.9882)"><path
             d="m 0,0 -0.452,-0.615 -1.09,0 0.866,0.985 -0.387,1.07 1.039,0 0.153,-0.646 0.458,0.646 1.117,0 -0.933,-1.049 0.377,-1.006 -0.988,0 L 0,0 z"
             style="fill:#aaacb3;fill-opacity:1;fill-rule:nonzero;stroke:none"
             id="path56516"
             inkscape:connector-curvature="0" /></g><g
           id="g56518"
           transform="translate(42.6459,71.1447)"><path
             d="m 0,0 c -0.073,-0.161 -0.112,-0.349 -0.119,-0.562 l 0,-0.111 c 0,-0.038 0.001,-0.076 0.003,-0.114 0.007,-0.08 0.022,-0.158 0.044,-0.234 0.023,-0.076 0.061,-0.144 0.113,-0.203 C 0.095,-1.285 0.159,-1.323 0.23,-1.338 0.302,-1.353 0.375,-1.36 0.45,-1.36 l 0.015,0 0.016,0 0.845,0.003 0,-0.426 -0.869,0 c -0.139,0 -0.272,0.013 -0.401,0.038 -0.128,0.025 -0.249,0.083 -0.363,0.174 -0.136,0.111 -0.232,0.247 -0.286,0.407 -0.055,0.16 -0.084,0.324 -0.089,0.493 -0.002,0.036 -0.003,0.071 -0.002,0.105 0.002,0.034 0.003,0.068 0.006,0.102 0.025,0.387 0.13,0.671 0.315,0.853 C -0.178,0.57 0.1,0.661 0.47,0.661 l 0.856,0.004 0,-0.42 -0.845,0 C 0.233,0.243 0.073,0.161 0,0"
             style="fill:#fbb031;fill-opacity:1;fill-rule:nonzero;stroke:none"
             id="path56520"
             inkscape:connector-curvature="0" /></g><g
           id="g56522"
           transform="translate(44.9466,70.3812)"><path
             d="M 0,0 0.73,0 0.358,0.941 0,0 z m 0.651,1.428 1.043,-2.447 -0.572,0 -0.225,0.583 -1.064,0 -0.218,-0.583 -0.542,0 1.033,2.447 0.545,0 z"
             style="fill:#fbb031;fill-opacity:1;fill-rule:nonzero;stroke:none"
             id="path56524"
             inkscape:connector-curvature="0" /></g><g
           id="g56526"
           transform="translate(46.559,71.3799)"><path
             d="m 0,0 0,0.426 2.113,0 0,-0.426 -0.794,0 0,-2.018 -0.532,0 L 0.787,0 0,0 z"
             style="fill:#fbb031;fill-opacity:1;fill-rule:nonzero;stroke:none"
             id="path56528"
             inkscape:connector-curvature="0" /></g><g
           id="g56530"
           transform="translate(49.7186,71.3732)"><path
             d="m 0,0 c -0.111,-0.002 -0.205,-0.026 -0.281,-0.07 -0.076,-0.044 -0.114,-0.129 -0.114,-0.254 0,-0.095 0.032,-0.164 0.097,-0.204 0.065,-0.041 0.14,-0.062 0.226,-0.062 L 0.61,-0.586 C 0.635,-0.589 0.661,-0.59 0.689,-0.59 0.716,-0.59 0.743,-0.591 0.77,-0.593 0.85,-0.598 0.928,-0.611 1.006,-0.632 1.083,-0.654 1.151,-0.693 1.21,-0.75 1.265,-0.8 1.306,-0.86 1.333,-0.931 1.36,-1.001 1.377,-1.074 1.384,-1.149 1.386,-1.171 1.388,-1.194 1.389,-1.215 1.39,-1.237 1.391,-1.259 1.391,-1.282 1.386,-1.566 1.308,-1.758 1.156,-1.859 1.003,-1.961 0.797,-2.011 0.535,-2.011 l -1.37,0 0,0.436 1.288,0 c 0.114,-0.002 0.212,0.016 0.295,0.055 0.083,0.038 0.117,0.126 0.101,0.262 -0.012,0.107 -0.051,0.173 -0.119,0.198 -0.069,0.025 -0.149,0.038 -0.242,0.041 l -0.607,0.003 c -0.252,-0.002 -0.452,0.048 -0.598,0.152 -0.147,0.103 -0.219,0.29 -0.217,0.561 0.005,0.284 0.084,0.477 0.237,0.581 0.153,0.103 0.361,0.155 0.622,0.155 L 1.271,0.436 1.271,0 0,0 z"
             style="fill:#bd2026;fill-opacity:1;fill-rule:nonzero;stroke:none"
             id="path56532"
             inkscape:connector-curvature="0" /></g><g
           id="g56534"
           transform="translate(51.7008,71.4992)"><path
             d="m 0,0 c 0.149,0.205 0.476,0.307 0.98,0.307 l 0.784,0.003 0,-0.426 -0.828,0 C 0.72,-0.12 0.561,-0.167 0.46,-0.256 0.359,-0.344 0.303,-0.498 0.292,-0.716 l 1.472,0.004 0,-0.423 -1.472,0 0,-1.002 -0.515,0 0,1.125 c 0,0.47 0.074,0.808 0.223,1.012"
             style="fill:#2a803e;fill-opacity:1;fill-rule:nonzero;stroke:none"
             id="path56536"
             inkscape:connector-curvature="0" /></g><g
           id="g56538"
           transform="translate(54.3339,71.1447)"><path
             d="m 0,0 c -0.073,-0.161 -0.112,-0.349 -0.119,-0.562 l 0,-0.111 c 0,-0.038 0.001,-0.076 0.003,-0.114 0.007,-0.08 0.022,-0.158 0.044,-0.234 0.023,-0.076 0.061,-0.144 0.113,-0.203 C 0.095,-1.285 0.159,-1.323 0.23,-1.338 0.302,-1.353 0.375,-1.36 0.45,-1.36 l 0.015,0 0.016,0 0.845,0.003 0,-0.426 -0.869,0 c -0.139,0 -0.272,0.013 -0.401,0.038 -0.128,0.025 -0.249,0.083 -0.363,0.174 -0.136,0.111 -0.232,0.247 -0.286,0.407 -0.055,0.16 -0.084,0.324 -0.089,0.493 -0.002,0.036 -0.003,0.071 -0.002,0.105 0.002,0.034 0.003,0.068 0.006,0.102 0.025,0.387 0.13,0.671 0.315,0.853 C -0.178,0.57 0.1,0.661 0.47,0.661 l 0.856,0.004 0,-0.42 -0.845,0 C 0.233,0.243 0.073,0.161 0,0"
             style="fill:#3659a7;fill-opacity:1;fill-rule:nonzero;stroke:none"
             id="path56540"
             inkscape:connector-curvature="0" /></g><path
           d="m 85.734,71.953 -0.709,0 0,-1.443 0.709,0 0,1.443 z m 0.055,-1.703 -0.764,0 0,-1.286 -0.289,0 0,3.243 1.053,0 c 0.136,0 0.233,-0.093 0.233,-0.229 l 0,-1.494 c 0,-0.136 -0.097,-0.234 -0.233,-0.234"
           style="fill:#3659a7;fill-opacity:1;fill-rule:nonzero;stroke:none"
           id="path56542"
           inkscape:connector-curvature="0" /><path
           d="m 87.56,71.953 -0.794,0 0,-2.734 0.794,0 0,2.734 z m 0.055,-2.989 -0.909,0 c -0.135,0 -0.229,0.094 -0.229,0.229 l 0,2.785 c 0,0.136 0.094,0.229 0.229,0.229 l 0.909,0 c 0.136,0 0.233,-0.093 0.233,-0.229 l 0,-2.785 c 0,-0.135 -0.097,-0.229 -0.233,-0.229"
           style="fill:#3659a7;fill-opacity:1;fill-rule:nonzero;stroke:none"
           id="path56544"
           inkscape:connector-curvature="0" /><g
           id="g56546"
           transform="translate(89.4328,68.9642)"><path
             d="m 0,0 -0.836,0 c -0.136,0 -0.23,0.093 -0.23,0.229 l 0,2.785 c 0,0.136 0.094,0.229 0.23,0.229 l 0.836,0 c 0.136,0 0.233,-0.093 0.233,-0.229 l 0,-0.756 -0.288,0 0,0.73 -0.722,0 0,-2.733 0.722,0 0,0.798 0.288,0 0,-0.824 C 0.233,0.093 0.136,0 0,0"
             style="fill:#3659a7;fill-opacity:1;fill-rule:nonzero;stroke:none"
             id="path56548"
             inkscape:connector-curvature="0" /></g><g
           id="g56550"
           transform="translate(91.208,68.9642)"><path
             d="m 0,0 -0.747,1.558 0,-1.558 -0.289,0 0,3.243 0.289,0 0,-1.456 0.679,1.456 0.314,0 0,-0.017 L -0.488,1.681 0.318,0.017 0.318,0 0,0 z"
             style="fill:#3659a7;fill-opacity:1;fill-rule:nonzero;stroke:none"
             id="path56552"
             inkscape:connector-curvature="0" /></g><g
           id="g56554"
           transform="translate(91.7907,68.9642)"><path
             d="m 0,0 0,3.243 1.053,0 0,-0.255 -0.764,0 0,-1.209 0.696,0 0,-0.259 -0.696,0 0,-1.265 0.777,0 L 1.066,0 0,0 z"
             style="fill:#3659a7;fill-opacity:1;fill-rule:nonzero;stroke:none"
             id="path56556"
             inkscape:connector-curvature="0" /></g><g
           id="g56558"
           transform="translate(93.9225,71.9525)"><path
             d="m 0,0 0,-2.988 -0.289,0 0,2.988 -0.505,0 0,0.255 1.295,0 L 0.501,0 0,0 z"
             style="fill:#3659a7;fill-opacity:1;fill-rule:nonzero;stroke:none"
             id="path56560"
             inkscape:connector-curvature="0" /></g><g
           id="g56562"
           transform="translate(96.6319,68.9642)"><path
             d="m 0,0 -0.815,0 c -0.136,0 -0.234,0.093 -0.234,0.229 l 0,0.824 0.289,0 0,-0.798 0.701,0 0,0.772 -0.896,1.083 c -0.068,0.08 -0.094,0.136 -0.094,0.246 l 0,0.658 c 0,0.136 0.098,0.229 0.234,0.229 l 0.815,0 c 0.136,0 0.229,-0.093 0.229,-0.229 l 0,-0.756 -0.288,0 0,0.73 -0.701,0 0,-0.683 0.9,-1.083 C 0.208,1.142 0.229,1.087 0.229,0.981 l 0,-0.752 C 0.229,0.093 0.136,0 0,0"
             style="fill:#f61900;fill-opacity:1;fill-rule:nonzero;stroke:none"
             id="path56564"
             inkscape:connector-curvature="0" /></g><g
           id="g56566"
           transform="translate(98.509,68.9642)"><path
             d="m 0,0 -0.866,2.386 0,-2.386 -0.272,0 0,3.243 0.217,0 0.849,-2.343 0,2.343 0.271,0 L 0.199,0 0,0 z"
             style="fill:#f61900;fill-opacity:1;fill-rule:nonzero;stroke:none"
             id="path56568"
             inkscape:connector-curvature="0" /></g><g
           id="g56570"
           transform="translate(99.2272,68.9642)"><path
             d="m 0,0 0,3.243 1.053,0 0,-0.255 -0.764,0 0,-1.209 0.696,0 0,-0.259 -0.696,0 0,-1.265 0.777,0 L 1.066,0 0,0 z"
             style="fill:#f61900;fill-opacity:1;fill-rule:nonzero;stroke:none"
             id="path56572"
             inkscape:connector-curvature="0" /></g><g
           id="g56574"
           transform="translate(101.7794,68.9642)"><path
             d="m 0,0 -0.815,0 c -0.136,0 -0.234,0.093 -0.234,0.229 l 0,0.824 0.289,0 0,-0.798 0.701,0 0,0.772 -0.896,1.083 c -0.068,0.08 -0.094,0.136 -0.094,0.246 l 0,0.658 c 0,0.136 0.098,0.229 0.234,0.229 l 0.815,0 c 0.136,0 0.229,-0.093 0.229,-0.229 l 0,-0.756 -0.288,0 0,0.73 -0.701,0 0,-0.683 0.9,-1.083 C 0.208,1.142 0.229,1.087 0.229,0.981 l 0,-0.752 C 0.229,0.093 0.136,0 0,0"
             style="fill:#f61900;fill-opacity:1;fill-rule:nonzero;stroke:none"
             id="path56576"
             inkscape:connector-curvature="0" /></g><g
           id="g56578"
           transform="translate(105.85,69.02)"><path
             d="m 0,0 c -0.041,-0.024 -0.091,-0.027 -0.137,-0.019 0.031,-0.077 0.044,-0.159 0.064,-0.239 0.023,-0.079 0.051,-0.174 0.135,-0.207 0.055,-0.025 0.118,-0.001 0.159,0.039 0.065,0.063 0.105,0.145 0.143,0.225 0.013,0.029 0.026,0.057 0.04,0.085 -0.06,0 -0.118,0.019 -0.168,0.048 C 0.186,-0.037 0.175,0.037 0.113,0.051 0.07,0.052 0.037,0.019 0,0 M 3.193,0.557 C 3.032,0.521 2.867,0.469 2.7,0.495 2.715,0.384 2.698,0.271 2.658,0.168 2.637,0.155 2.675,0.139 2.68,0.158 L 2.694,0.151 C 2.707,0.112 2.75,0.098 2.788,0.094 2.884,0.085 2.98,0.106 3.071,0.134 3.049,0.155 3.02,0.174 3.016,0.206 3.019,0.22 3.025,0.233 3.031,0.245 3.098,0.243 3.163,0.232 3.229,0.224 3.318,0.291 3.375,0.405 3.366,0.518 3.365,0.548 3.345,0.579 3.313,0.583 3.272,0.589 3.23,0.573 3.193,0.557 M 3.703,0.737 3.7,0.733 C 3.616,0.707 3.535,0.671 3.452,0.643 3.471,0.521 3.446,0.392 3.386,0.283 3.361,0.267 3.414,0.258 3.404,0.283 3.41,0.284 3.421,0.284 3.427,0.284 3.429,0.262 3.455,0.256 3.473,0.257 3.545,0.263 3.613,0.293 3.675,0.327 3.655,0.344 3.631,0.358 3.618,0.382 3.609,0.399 3.62,0.416 3.624,0.432 3.675,0.431 3.726,0.425 3.777,0.417 3.829,0.479 3.869,0.561 3.853,0.644 3.844,0.684 3.831,0.729 3.793,0.752 3.763,0.769 3.731,0.747 3.703,0.737 M 4.171,0.941 C 4.089,0.904 4.007,0.866 3.924,0.829 3.956,0.695 3.929,0.554 3.86,0.436 3.878,0.447 3.902,0.451 3.915,0.466 3.944,0.448 3.978,0.45 4.009,0.459 4.07,0.475 4.128,0.502 4.181,0.537 4.15,0.559 4.112,0.596 4.145,0.634 4.184,0.629 4.222,0.626 4.26,0.62 4.308,0.685 4.355,0.765 4.336,0.848 4.313,0.901 4.27,0.947 4.214,0.963 4.2,0.956 4.186,0.948 4.171,0.941 M 1.563,1.121 C 1.49,1.11 1.417,1.091 1.353,1.055 1.277,1.001 1.22,0.912 1.224,0.817 1.228,0.725 1.279,0.643 1.338,0.576 1.447,0.457 1.591,0.362 1.752,0.334 1.873,0.316 2.003,0.319 2.115,0.375 2.219,0.425 2.315,0.51 2.343,0.625 2.369,0.727 2.361,0.851 2.279,0.927 2.181,1.018 2.055,1.076 1.925,1.102 1.806,1.127 1.684,1.138 1.563,1.121 M 4.597,1.17 C 4.526,1.128 4.455,1.088 4.383,1.049 4.416,0.92 4.392,0.781 4.34,0.66 4.361,0.675 4.382,0.691 4.401,0.708 4.435,0.672 4.485,0.703 4.52,0.723 4.679,0.821 4.719,1.042 4.662,1.21 4.641,1.196 4.619,1.183 4.597,1.17 M -1.256,1.329 C -1.34,1.28 -1.415,1.202 -1.434,1.104 -1.457,0.986 -1.41,0.861 -1.324,0.779 -1.27,0.726 -1.197,0.694 -1.122,0.68 l 0,-0.002 c 0.046,-0.003 0.092,-0.017 0.137,-0.005 0.156,0.004 0.31,0.063 0.434,0.156 0.094,0.071 0.175,0.176 0.176,0.298 0.003,0.06 -0.033,0.113 -0.071,0.156 C -0.529,1.37 -0.65,1.409 -0.766,1.423 -0.933,1.44 -1.109,1.414 -1.256,1.329 M 4.919,1.398 C 4.884,1.37 4.85,1.341 4.814,1.316 4.862,1.232 4.843,1.131 4.829,1.041 4.843,1.057 4.856,1.073 4.87,1.09 4.871,1.081 4.874,1.063 4.875,1.055 4.899,1.063 4.923,1.077 4.934,1.102 4.963,1.167 4.977,1.238 4.976,1.309 4.977,1.352 4.961,1.395 4.965,1.439 4.95,1.425 4.934,1.412 4.919,1.398 M 0.126,1.732 C 0.129,1.694 0.13,1.657 0.13,1.619 0.125,1.589 0.109,1.563 0.088,1.542 0.083,1.566 0.076,1.59 0.067,1.613 0.054,1.648 0.041,1.684 0.028,1.72 -0.242,1.685 -0.506,1.608 -0.752,1.492 -0.756,1.497 -0.764,1.508 -0.768,1.513 -0.786,1.503 -0.805,1.492 -0.824,1.481 c 0.073,-0.001 0.146,-0.012 0.216,-0.03 0.06,-0.017 0.117,-0.04 0.17,-0.074 l 0.001,10e-4 C -0.407,1.356 -0.379,1.332 -0.354,1.306 -0.287,1.227 -0.276,1.113 -0.316,1.019 -0.387,0.843 -0.536,0.699 -0.714,0.633 -0.785,0.609 -0.859,0.594 -0.934,0.591 -1.018,0.587 -1.102,0.599 -1.183,0.625 -1.241,0.646 -1.295,0.677 -1.344,0.715 -1.336,0.632 -1.313,0.551 -1.276,0.477 -1.31,0.461 -1.354,0.422 -1.325,0.383 c 0.04,-0.042 0.101,-0.053 0.156,-0.064 0.145,-0.179 0.34,-0.311 0.544,-0.415 0.168,-0.085 0.344,-0.152 0.527,-0.198 -0.016,0.049 -0.027,0.098 -0.037,0.148 -0.009,0.045 -0.014,0.091 -0.026,0.134 -0.041,0.032 -0.072,0.074 -0.081,0.126 -0.002,0.035 0.003,0.07 0.021,0.1 C -0.225,0.176 -0.229,0.138 -0.219,0.1 -0.196,0.048 -0.147,0.01 -0.09,0.004 -0.057,0 -0.027,0.016 0.002,0.03 0.037,0.05 0.073,0.073 0.114,0.076 0.16,0.073 0.181,0.026 0.204,-0.007 l 0.001,0 c 0.046,-0.052 0.115,-0.09 0.186,-0.079 0.037,0.004 0.067,0.027 0.093,0.052 0.023,0.029 0.042,0.06 0.056,0.094 0.002,0 0.005,0.001 0.007,0.001 C 0.546,-0.013 0.493,-0.077 0.428,-0.107 0.421,-0.139 0.411,-0.17 0.401,-0.202 0.376,-0.253 0.348,-0.303 0.315,-0.35 0.3,-0.361 0.321,-0.363 0.328,-0.364 c 0.11,-0.01 0.221,-0.015 0.332,-0.018 0.279,-0.008 0.56,-0.004 0.834,0.049 0.191,0.037 0.379,0.095 0.557,0.176 0.139,0.065 0.274,0.15 0.372,0.27 C 2.511,0.225 2.55,0.378 2.512,0.517 2.48,0.623 2.43,0.723 2.373,0.817 2.39,0.751 2.406,0.683 2.396,0.614 2.393,0.572 2.375,0.532 2.36,0.493 l 0,-0.009 -0.005,0 C 2.307,0.407 2.236,0.346 2.154,0.308 1.877,0.18 1.521,0.251 1.316,0.478 1.227,0.577 1.145,0.699 1.147,0.837 1.149,0.949 1.229,1.043 1.323,1.095 1.48,1.183 1.668,1.204 1.845,1.189 1.923,1.178 2.001,1.162 2.073,1.128 2.097,1.117 2.123,1.106 2.149,1.098 2.078,1.177 1.996,1.245 1.913,1.31 1.89,1.328 1.866,1.343 1.841,1.357 1.494,1.558 1.103,1.682 0.705,1.727 0.693,1.694 0.681,1.66 0.668,1.627 0.657,1.595 0.646,1.563 0.635,1.53 0.607,1.556 0.598,1.594 0.594,1.631 0.596,1.666 0.598,1.701 0.602,1.736 0.443,1.748 0.284,1.746 0.126,1.732 M -0.361,1.919 C -0.38,1.877 -0.311,1.893 -0.288,1.895 -0.208,1.897 -0.129,1.91 -0.049,1.918 -0.055,1.93 -0.06,1.941 -0.067,1.952 -0.071,1.964 -0.075,1.977 -0.08,1.99 -0.082,1.995 -0.087,2.005 -0.09,2.011 -0.181,1.984 -0.275,1.96 -0.361,1.919 m 0.109,0.087 c 0.048,0.016 0.095,0.034 0.143,0.05 C -0.114,2.068 -0.119,2.08 -0.124,2.091 -0.168,2.064 -0.211,2.037 -0.252,2.006 M 0.854,2.11 C 0.852,2.103 0.848,2.088 0.846,2.081 l -0.002,0 C 0.839,2.072 0.835,2.062 0.831,2.052 0.826,2.039 0.821,2.027 0.816,2.015 0.813,2.006 0.809,1.997 0.806,1.988 0.799,1.972 0.792,1.955 0.786,1.938 1.128,1.909 1.469,1.831 1.779,1.679 2.165,1.494 2.491,1.193 2.721,0.833 2.735,0.814 2.76,0.775 2.785,0.801 2.817,0.869 2.805,0.948 2.799,1.021 2.781,1.177 2.678,1.304 2.572,1.412 2.407,1.573 2.212,1.698 2.008,1.801 1.649,1.979 1.254,2.085 0.854,2.11 M 0.035,2.045 C 0.036,2.039 0.039,2.028 0.04,2.022 L 0.042,2.023 C 0.048,2.007 0.053,1.992 0.059,1.976 0.064,1.961 0.069,1.945 0.074,1.93 0.265,1.947 0.458,1.954 0.65,1.945 0.657,1.967 0.664,1.988 0.67,2.009 0.677,2.031 0.684,2.052 0.691,2.073 l 0.001,0 c 0.005,0.015 0.01,0.03 0.015,0.044 -0.226,0 -0.452,-0.022 -0.672,-0.072 m -0.05,0.117 C -0.011,2.152 -0.006,2.141 -0.002,2.131 0.004,2.118 0.009,2.105 0.014,2.093 0.25,2.158 0.493,2.194 0.738,2.198 0.748,2.223 0.759,2.249 0.769,2.275 0.784,2.31 0.799,2.344 0.814,2.379 0.839,2.434 0.866,2.488 0.89,2.543 0.915,2.585 0.933,2.631 0.957,2.673 0.619,2.532 0.295,2.358 -0.015,2.162 M 2.821,2.753 C 2.561,2.699 2.304,2.615 2.068,2.491 1.953,2.429 1.839,2.359 1.754,2.257 1.72,2.215 1.69,2.161 1.703,2.105 1.716,2.053 1.764,2.019 1.812,2 2.039,1.91 2.255,1.791 2.45,1.643 2.596,1.531 2.732,1.403 2.836,1.249 2.892,1.162 2.945,1.063 2.942,0.955 2.942,0.912 2.918,0.874 2.9,0.836 2.983,0.851 3.062,0.883 3.141,0.911 3.438,1.023 3.73,1.147 4.019,1.278 4.222,1.371 4.424,1.465 4.616,1.579 4.663,1.605 4.709,1.638 4.735,1.686 4.779,1.759 4.779,1.849 4.762,1.93 4.725,2.091 4.627,2.231 4.517,2.351 4.382,2.495 4.222,2.614 4.049,2.708 3.942,2.751 3.828,2.774 3.714,2.792 3.417,2.835 3.114,2.813 2.821,2.753 M 1.232,2.779 C 1.208,2.769 1.181,2.764 1.159,2.749 1.138,2.717 1.122,2.682 1.105,2.648 1.057,2.559 1.015,2.467 0.972,2.376 0.958,2.346 0.944,2.316 0.931,2.285 l -0.002,0 C 0.917,2.255 0.905,2.225 0.892,2.195 0.974,2.191 1.058,2.183 1.14,2.196 1.203,2.205 1.264,2.225 1.322,2.249 1.755,2.433 2.188,2.618 2.638,2.756 2.918,2.842 3.205,2.909 3.498,2.932 3.471,2.94 3.444,2.949 3.416,2.953 3.287,2.988 3.155,3.009 3.023,3.023 2.417,3.087 1.804,2.981 1.232,2.779 M -2.282,3.405 C -2.337,3.375 -2.381,3.323 -2.4,3.263 -2.415,3.222 -2.417,3.178 -2.409,3.136 c 0.005,-0.02 0.01,-0.039 0.02,-0.057 0.044,-0.109 0.175,-0.169 0.288,-0.143 0.102,0.02 0.188,0.108 0.201,0.212 0.012,0.08 -0.018,0.165 -0.078,0.22 -0.08,0.076 -0.208,0.09 -0.304,0.037 m 5.218,0.25 C 2.883,3.521 2.913,3.352 3.026,3.258 3.087,3.207 3.173,3.185 3.251,3.206 3.346,3.229 3.422,3.307 3.453,3.398 3.462,3.42 3.468,3.443 3.471,3.466 3.481,3.519 3.479,3.575 3.462,3.626 3.436,3.748 3.323,3.852 3.195,3.848 3.078,3.849 2.976,3.761 2.936,3.655 M 1.839,3.65 C 1.579,3.426 1.38,3.14 1.21,2.843 1.803,3.046 2.433,3.149 3.06,3.108 2.942,3.159 2.843,3.255 2.798,3.376 2.765,3.464 2.769,3.566 2.814,3.649 2.865,3.743 2.954,3.809 3.048,3.854 3.056,3.856 3.076,3.869 3.058,3.873 2.898,3.937 2.725,3.973 2.553,3.962 2.287,3.948 2.039,3.821 1.839,3.65 m 0.87,0.495 0.183,0 C 3.069,4.132 3.26,4.096 3.394,3.97 3.496,3.877 3.536,3.733 3.527,3.599 3.519,3.458 3.493,3.311 3.406,3.197 3.368,3.144 3.311,3.111 3.251,3.09 3.632,3.048 4.009,2.949 4.352,2.775 4.537,2.681 4.712,2.563 4.858,2.414 4.98,2.287 5.084,2.134 5.12,1.959 5.141,1.859 5.135,1.755 5.104,1.658 5.167,1.503 5.154,1.326 5.102,1.17 5.057,1.029 4.969,0.899 4.844,0.817 4.809,0.793 4.765,0.795 4.724,0.8 4.665,0.712 4.594,0.632 4.511,0.565 4.681,0.513 4.845,0.436 4.986,0.327 5.095,0.242 5.19,0.134 5.241,0.003 5.264,-0.057 5.276,-0.12 5.283,-0.184 l 0,-0.076 C 5.278,-0.297 5.271,-0.337 5.246,-0.367 5.218,-0.401 5.16,-0.409 5.126,-0.378 5.11,-0.362 5.116,-0.338 5.115,-0.317 5.124,-0.239 5.088,-0.167 5.066,-0.094 5.018,0.048 4.933,0.181 4.808,0.267 4.687,0.36 4.535,0.39 4.396,0.444 4.342,0.469 4.281,0.463 4.226,0.486 4.18,0.433 4.128,0.386 4.07,0.346 4.258,0.281 4.439,0.191 4.588,0.058 4.716,-0.056 4.816,-0.21 4.839,-0.383 4.849,-0.462 4.858,-0.551 4.818,-0.624 4.79,-0.673 4.706,-0.689 4.673,-0.638 4.657,-0.592 4.678,-0.543 4.663,-0.497 4.626,-0.369 4.586,-0.24 4.509,-0.129 4.438,-0.026 4.337,0.054 4.226,0.111 4.143,0.15 4.054,0.176 3.968,0.207 3.919,0.223 3.87,0.249 3.816,0.243 3.783,0.24 3.752,0.253 3.722,0.266 3.669,0.219 3.61,0.181 3.549,0.145 3.586,0.124 3.627,0.114 3.666,0.097 3.839,0.025 4.005,-0.068 4.143,-0.197 4.271,-0.315 4.374,-0.467 4.408,-0.64 4.426,-0.735 4.439,-0.836 4.407,-0.93 4.394,-0.971 4.36,-1.003 4.318,-1.013 l -0.037,0 C 4.257,-1.006 4.229,-0.996 4.223,-0.969 4.211,-0.92 4.232,-0.867 4.216,-0.818 4.17,-0.66 4.119,-0.498 4.017,-0.365 3.934,-0.257 3.821,-0.173 3.699,-0.114 3.53,-0.044 3.352,0.004 3.184,0.077 3.038,-0.014 2.861,-0.025 2.693,-0.024 2.649,-0.025 2.605,-0.016 2.564,0 2.446,-0.14 2.29,-0.243 2.126,-0.32 1.972,-0.39 1.81,-0.443 1.645,-0.483 1.386,-0.545 1.119,-0.563 0.853,-0.564 c -0.272,0.006 -0.545,0.011 -0.813,0.06 -0.322,0.055 -0.631,0.176 -0.913,0.341 -0.022,-0.074 -0.039,-0.149 -0.055,-0.225 -0.011,-0.051 0.004,-0.103 -0.005,-0.154 -0.008,-0.042 -0.064,-0.056 -0.094,-0.03 -0.041,0.036 -0.047,0.095 -0.053,0.145 -0.008,0.126 0.011,0.252 0.048,0.372 -0.079,0.059 -0.155,0.125 -0.221,0.199 -0.069,-0.067 -0.125,-0.148 -0.164,-0.236 -0.055,-0.122 -0.085,-0.253 -0.112,-0.383 -0.012,-0.054 0.003,-0.109 -0.008,-0.162 -0.009,-0.044 -0.073,-0.052 -0.1,-0.02 -0.038,0.042 -0.043,0.103 -0.047,0.156 -0.004,0.164 0.027,0.331 0.101,0.477 0.056,0.112 0.135,0.211 0.226,0.295 -0.116,0.152 -0.176,0.344 -0.165,0.535 0.003,0.061 0.016,0.122 0.028,0.182 0.036,0.083 0.057,0.172 0.101,0.251 0.039,0.049 0.067,0.111 0.124,0.143 0.064,0.02 0.103,0.081 0.156,0.119 0.064,0.046 0.127,0.093 0.196,0.132 0.042,0.025 0.088,0.045 0.126,0.076 0.203,0.163 0.413,0.317 0.632,0.458 -0.092,0.196 -0.194,0.387 -0.314,0.567 -0.13,0.193 -0.282,0.375 -0.468,0.517 -0.168,0.13 -0.368,0.222 -0.58,0.247 C -1.692,3.519 -1.866,3.496 -2.029,3.446 -1.944,3.406 -1.857,3.355 -1.807,3.272 -1.763,3.2 -1.769,3.104 -1.814,3.033 -1.877,2.93 -1.992,2.861 -2.112,2.845 -2.2,2.833 -2.295,2.861 -2.355,2.928 c -0.066,0.074 -0.089,0.174 -0.1,0.27 l 0,0.111 c 0.014,0.09 0.06,0.176 0.135,0.228 0.131,0.094 0.298,0.113 0.454,0.118 0.193,0 0.387,-0.025 0.572,-0.081 0.258,-0.084 0.473,-0.263 0.657,-0.457 0.241,-0.26 0.434,-0.561 0.587,-0.879 0.337,0.208 0.69,0.39 1.06,0.532 0.211,0.371 0.459,0.73 0.783,1.013 0.135,0.114 0.284,0.216 0.451,0.276 0.15,0.052 0.308,0.074 0.465,0.086"
             style="fill:#191919;fill-opacity:1;fill-rule:nonzero;stroke:none"
             id="path56580"
             inkscape:connector-curvature="0" /></g><g
           id="g56582"
           transform="translate(110.8153,70.4587)"><path
             d="m 0,0 c -0.016,-0.013 -0.031,-0.027 -0.047,-0.041 -0.034,-0.028 -0.068,-0.057 -0.104,-0.082 0.047,-0.084 0.028,-0.185 0.015,-0.275 0.013,0.016 0.027,0.033 0.041,0.049 0.001,-0.009 0.003,-0.026 0.005,-0.035 0.024,0.008 0.048,0.022 0.058,0.048 0.029,0.064 0.044,0.135 0.042,0.206 C 0.012,-0.086 -0.005,-0.044 0,0"
             style="fill:#74b743;fill-opacity:1;fill-rule:nonzero;stroke:none"
             id="path56584"
             inkscape:connector-curvature="0" /></g><g
           id="g56586"
           transform="translate(110.4465,70.1899)"><path
             d="m 0,0 c -0.07,-0.042 -0.142,-0.082 -0.214,-0.121 0.034,-0.129 0.01,-0.268 -0.043,-0.389 0.022,0.015 0.042,0.031 0.062,0.048 0.034,-0.036 0.084,-0.005 0.118,0.015 0.159,0.098 0.2,0.319 0.143,0.487 C 0.044,0.026 0.022,0.013 0,0"
             style="fill:#74b743;fill-opacity:1;fill-rule:nonzero;stroke:none"
             id="path56588"
             inkscape:connector-curvature="0" /></g><g
           id="g56590"
           transform="translate(110.1101,69.6403)"><path
             d="M 0,0 C 0.048,0.065 0.094,0.145 0.076,0.228 0.053,0.281 0.01,0.326 -0.046,0.342 -0.06,0.335 -0.074,0.328 -0.089,0.321 -0.171,0.283 -0.253,0.245 -0.336,0.208 -0.304,0.075 -0.331,-0.067 -0.4,-0.184 c 0.017,0.01 0.042,0.014 0.055,0.03 0.028,-0.018 0.063,-0.016 0.094,-0.008 0.061,0.017 0.119,0.044 0.171,0.079 -0.03,0.022 -0.068,0.059 -0.035,0.096 C -0.077,0.009 -0.038,0.006 0,0"
             style="fill:#74b743;fill-opacity:1;fill-rule:nonzero;stroke:none"
             id="path56592"
             inkscape:connector-curvature="0" /></g><g
           id="g56594"
           transform="translate(109.6432,69.772)"><path
             d="m 0,0 c -0.03,0.017 -0.062,-0.005 -0.091,-0.015 l -0.002,-0.004 c -0.084,-0.026 -0.165,-0.062 -0.249,-0.09 0.019,-0.122 -0.005,-0.251 -0.065,-0.36 0.005,0 0.013,0 0.017,0 0.006,10e-4 0.018,10e-4 0.024,10e-4 0.001,-0.022 0.028,-0.028 0.046,-0.027 0.072,0.006 0.139,0.036 0.202,0.07 -0.02,0.017 -0.045,0.031 -0.058,0.055 -0.009,0.017 0.003,0.034 0.007,0.05 0.051,-0.001 0.102,-0.007 0.153,-0.015 0.052,0.062 0.091,0.144 0.076,0.227 C 0.051,-0.068 0.037,-0.023 0,0"
             style="fill:#74b743;fill-opacity:1;fill-rule:nonzero;stroke:none"
             id="path56596"
             inkscape:connector-curvature="0" /></g><g
           id="g56598"
           transform="translate(109.1633,69.6027)"><path
             d="m 0,0 c -0.041,0.006 -0.083,-0.01 -0.12,-0.026 -0.162,-0.035 -0.326,-0.088 -0.493,-0.062 0.014,-0.11 -0.002,-0.223 -0.042,-0.327 0.005,-0.002 0.017,-0.007 0.022,-0.009 l 0.013,-0.008 c 0.014,-0.039 0.057,-0.053 0.094,-0.057 0.096,-0.009 0.193,0.012 0.284,0.04 -0.022,0.021 -0.051,0.04 -0.056,0.073 0.003,0.014 0.01,0.026 0.016,0.039 0.066,-0.003 0.132,-0.014 0.197,-0.021 0.09,0.067 0.146,0.181 0.138,0.293 C 0.052,-0.035 0.031,-0.004 0,0"
             style="fill:#74b743;fill-opacity:1;fill-rule:nonzero;stroke:none"
             id="path56600"
             inkscape:connector-curvature="0" /></g><g
           id="g56602"
           transform="translate(104.7082,70.343)"><path
             d="M 0,0 C 0.141,0.066 0.308,0.054 0.448,-0.008 0.537,-0.047 0.622,-0.111 0.656,-0.205 0.597,-0.165 0.541,-0.119 0.477,-0.087 0.353,-0.02 0.202,0.009 0.066,-0.037 0.132,-0.04 0.198,-0.074 0.221,-0.139 0.227,-0.165 0.23,-0.192 0.231,-0.219 0.218,-0.279 0.175,-0.328 0.117,-0.347 0.072,-0.351 0.024,-0.35 -0.013,-0.321 c -0.039,0.025 -0.058,0.069 -0.067,0.112 0,0.045 0.017,0.086 0.04,0.123 C -0.116,-0.134 -0.176,-0.201 -0.227,-0.274 -0.191,-0.158 -0.112,-0.052 0,0"
             style="fill:#ffffff;fill-opacity:1;fill-rule:nonzero;stroke:none"
             id="path56604"
             inkscape:connector-curvature="0" /></g><g
           id="g56606"
           transform="translate(107.482,70.1019)"><path
             d="M 0,0 C 0.168,0.032 0.344,-0.02 0.483,-0.115 0.568,-0.173 0.647,-0.255 0.664,-0.361 0.561,-0.243 0.44,-0.135 0.291,-0.083 0.221,-0.058 0.146,-0.048 0.071,-0.05 0.12,-0.089 0.15,-0.157 0.123,-0.218 0.119,-0.229 0.113,-0.24 0.107,-0.251 0.074,-0.292 0.019,-0.305 -0.032,-0.299 c -0.029,0.006 -0.053,0.025 -0.074,0.045 -0.038,0.046 -0.033,0.109 -0.012,0.161 -0.068,-0.03 -0.127,-0.074 -0.183,-0.12 0.063,0.11 0.176,0.19 0.301,0.213"
             style="fill:#ffffff;fill-opacity:1;fill-rule:nonzero;stroke:none"
             id="path56608"
             inkscape:connector-curvature="0" /></g><g
           id="g56610"
           transform="translate(108.8763,72.2784)"><path
             d="M 0,0 C 0.061,-0.051 0.147,-0.073 0.224,-0.053 0.319,-0.029 0.396,0.049 0.427,0.14 0.436,0.162 0.442,0.184 0.445,0.208 0.455,0.26 0.453,0.316 0.436,0.368 0.41,0.489 0.297,0.593 0.169,0.59 0.051,0.591 -0.051,0.503 -0.091,0.396 -0.144,0.263 -0.113,0.093 0,0"
             style="fill:#ddbd25;fill-opacity:1;fill-rule:nonzero;stroke:none"
             id="path56612"
             inkscape:connector-curvature="0" /></g><g
           id="g56614"
           transform="translate(103.8715,72.3879)"><path
             d="m 0,0 c -0.079,0.076 -0.208,0.09 -0.303,0.037 -0.056,-0.03 -0.1,-0.082 -0.118,-0.142 -0.015,-0.041 -0.018,-0.085 -0.01,-0.127 0.005,-0.02 0.011,-0.039 0.02,-0.057 0.045,-0.109 0.175,-0.169 0.288,-0.143 0.103,0.02 0.188,0.108 0.201,0.212 C 0.091,-0.14 0.06,-0.054 0,0"
             style="fill:#ddbd25;fill-opacity:1;fill-rule:nonzero;stroke:none"
             id="path56616"
             inkscape:connector-curvature="0" /></g><g
           id="g56618"
           transform="translate(106.7794,71.3053)"><path
             d="m 0,0 c -0.012,-0.03 -0.025,-0.06 -0.038,-0.09 0.083,-0.004 0.166,-0.012 0.248,0.001 0.064,0.008 0.124,0.029 0.183,0.053 0.432,0.184 0.866,0.368 1.316,0.507 0.28,0.086 0.567,0.153 0.86,0.176 C 2.541,0.654 2.515,0.664 2.487,0.668 2.358,0.702 2.226,0.723 2.094,0.738 1.488,0.801 0.874,0.696 0.303,0.493 0.278,0.484 0.251,0.479 0.229,0.464 0.209,0.431 0.193,0.397 0.175,0.363 0.128,0.274 0.085,0.182 0.042,0.091 0.028,0.06 0.015,0.03 0.002,0 L 0,0 z"
             style="fill:#ddbd25;fill-opacity:1;fill-rule:nonzero;stroke:none"
             id="path56620"
             inkscape:connector-curvature="0" /></g><g
           id="g56622"
           transform="translate(110.6123,70.9502)"><path
             d="M 0,0 C -0.038,0.161 -0.135,0.3 -0.246,0.42 -0.38,0.565 -0.541,0.684 -0.713,0.778 -0.82,0.821 -0.935,0.844 -1.048,0.862 -1.345,0.904 -1.648,0.882 -1.941,0.823 -2.202,0.769 -2.458,0.685 -2.694,0.561 -2.809,0.499 -2.924,0.428 -3.008,0.327 -3.043,0.285 -3.072,0.231 -3.06,0.175 c 0.014,-0.052 0.062,-0.087 0.11,-0.106 0.227,-0.089 0.443,-0.208 0.637,-0.356 0.146,-0.112 0.283,-0.24 0.386,-0.394 0.057,-0.088 0.11,-0.187 0.107,-0.294 0,-0.044 -0.024,-0.081 -0.042,-0.119 0.083,0.015 0.162,0.047 0.241,0.075 0.297,0.111 0.589,0.236 0.878,0.367 0.202,0.093 0.405,0.187 0.597,0.3 0.047,0.027 0.092,0.06 0.119,0.108 C 0.017,-0.171 0.017,-0.081 0,0"
             style="fill:#ddbd25;fill-opacity:1;fill-rule:nonzero;stroke:none"
             id="path56624"
             inkscape:connector-curvature="0" /></g><g
           id="g56626"
           transform="translate(105.864,71.1125)"><path
             d="M 0,0 C 0.236,0.065 0.479,0.101 0.724,0.105 0.734,0.131 0.745,0.156 0.755,0.182 0.77,0.217 0.785,0.252 0.8,0.287 0.825,0.342 0.852,0.396 0.876,0.451 0.901,0.492 0.919,0.538 0.943,0.58 0.605,0.439 0.281,0.266 -0.029,0.07 -0.025,0.059 -0.02,0.049 -0.016,0.038 -0.01,0.025 -0.005,0.013 0,0"
             style="fill:#ddbd25;fill-opacity:1;fill-rule:nonzero;stroke:none"
             id="path56628"
             inkscape:connector-curvature="0" /></g><g
           id="g56630"
           transform="translate(105.8922,71.0429)"><path
             d="m 0,0 c 0.005,-0.016 0.011,-0.031 0.017,-0.047 0.005,-0.015 0.01,-0.031 0.014,-0.046 0.192,0.017 0.385,0.024 0.577,0.015 0.007,0.022 0.013,0.043 0.02,0.064 0.007,0.022 0.014,0.043 0.021,0.064 l 0.001,0 c 0.005,0.015 0.01,0.03 0.015,0.044 -0.226,0 -0.452,-0.022 -0.673,-0.072 0.002,-0.006 0.004,-0.017 0.006,-0.023 L 0,0 z"
             style="fill:#ddbd25;fill-opacity:1;fill-rule:nonzero;stroke:none"
             id="path56632"
             inkscape:connector-curvature="0" /></g><g
           id="g56634"
           transform="translate(108.4217,70.4324)"><path
             d="M 0,0 C -0.164,0.16 -0.359,0.286 -0.564,0.389 -0.923,0.566 -1.317,0.673 -1.718,0.697 -1.72,0.69 -1.724,0.676 -1.726,0.669 l -0.002,0 C -1.732,0.659 -1.737,0.649 -1.741,0.639 -1.746,0.627 -1.751,0.615 -1.755,0.602 -1.759,0.594 -1.763,0.585 -1.766,0.576 -1.773,0.559 -1.779,0.542 -1.786,0.526 c 0.342,-0.03 0.684,-0.108 0.993,-0.259 0.386,-0.185 0.712,-0.486 0.942,-0.846 0.014,-0.02 0.039,-0.059 0.064,-0.032 0.032,0.068 0.021,0.147 0.014,0.22 C 0.209,-0.236 0.106,-0.108 0,0"
             style="fill:#ddbd25;fill-opacity:1;fill-rule:nonzero;stroke:none"
             id="path56636"
             inkscape:connector-curvature="0" /></g><g
           id="g56638"
           transform="translate(105.7255,71.1112)"><path
             d="m 0,0 c -0.043,-0.027 -0.087,-0.054 -0.128,-0.086 0.048,0.017 0.096,0.034 0.143,0.051 C 0.01,-0.023 0.005,-0.012 0,0"
             style="fill:#ddbd25;fill-opacity:1;fill-rule:nonzero;stroke:none"
             id="path56640"
             inkscape:connector-curvature="0" /></g><g
           id="g56642"
           transform="translate(104.5806,70.4019)"><path
             d="M 0,0 C 0.065,0.02 0.103,0.081 0.156,0.12 0.101,0.084 0.051,0.042 0,0"
             style="fill:#ddbd25;fill-opacity:1;fill-rule:nonzero;stroke:none"
             id="path56644"
             inkscape:connector-curvature="0" /></g><g
           id="g56646"
           transform="translate(104.457,70.2594)"><path
             d="M 0,0 C -0.054,-0.074 -0.092,-0.16 -0.101,-0.251 -0.065,-0.168 -0.044,-0.08 0,0"
             style="fill:#ddbd25;fill-opacity:1;fill-rule:nonzero;stroke:none"
             id="path56648"
             inkscape:connector-curvature="0" /></g><g
           id="g56650"
           transform="translate(107.7366,68.9706)"><path
             d="m 0,0 c -0.141,0.006 -0.279,0.039 -0.411,0.087 -0.072,0.028 -0.144,0.059 -0.204,0.108 -0.02,0.018 -0.046,0.042 -0.038,0.072 0.018,0.03 0.056,0.035 0.088,0.038 0.109,0.008 0.218,-0.013 0.323,-0.039 0.11,-0.03 0.221,-0.068 0.318,-0.13 C 0.108,0.117 0.132,0.088 0.153,0.057 0.128,-0.004 0.054,0.003 0,0 M 0.486,0.866 C 0.504,0.801 0.52,0.732 0.51,0.664 0.506,0.621 0.488,0.582 0.473,0.542 l 0,-0.008 -0.005,0 C 0.42,0.457 0.35,0.396 0.268,0.357 -0.01,0.229 -0.365,0.3 -0.571,0.527 c -0.088,0.099 -0.17,0.221 -0.169,0.36 0.003,0.111 0.082,0.205 0.176,0.257 0.158,0.088 0.345,0.11 0.523,0.094 C 0.037,1.227 0.115,1.212 0.186,1.178 0.211,1.166 0.236,1.155 0.262,1.147 0.192,1.227 0.11,1.294 0.026,1.36 0.004,1.377 -0.021,1.392 -0.045,1.406 -0.393,1.607 -0.783,1.731 -1.182,1.776 -1.194,1.743 -1.206,1.71 -1.218,1.677 -1.23,1.644 -1.241,1.612 -1.251,1.579 -1.279,1.606 -1.288,1.644 -1.292,1.681 -1.291,1.716 -1.288,1.751 -1.285,1.786 -1.443,1.797 -1.603,1.795 -1.761,1.781 -1.757,1.744 -1.756,1.706 -1.756,1.668 -1.762,1.638 -1.777,1.612 -1.799,1.591 -1.804,1.615 -1.811,1.639 -1.82,1.662 -1.833,1.698 -1.846,1.734 -1.859,1.769 -2.128,1.734 -2.392,1.658 -2.638,1.541 -2.642,1.547 -2.65,1.557 -2.654,1.563 -2.673,1.552 -2.692,1.541 -2.71,1.531 -2.637,1.529 -2.565,1.518 -2.494,1.5 -2.435,1.483 -2.377,1.46 -2.325,1.427 l 0.002,10e-4 C -2.294,1.405 -2.266,1.382 -2.24,1.355 -2.174,1.276 -2.163,1.162 -2.202,1.068 -2.274,0.892 -2.422,0.749 -2.601,0.683 -2.671,0.658 -2.745,0.643 -2.82,0.64 -2.904,0.637 -2.989,0.649 -3.069,0.675 -3.127,0.696 -3.181,0.726 -3.23,0.764 -3.223,0.681 -3.2,0.6 -3.163,0.526 c 0.043,0.021 0.09,0.033 0.138,0.043 0.079,0.014 0.16,0.016 0.24,0.012 C -2.723,0.575 -2.66,0.566 -2.604,0.539 -2.582,0.527 -2.558,0.509 -2.557,0.482 -2.56,0.447 -2.595,0.429 -2.622,0.413 -2.695,0.381 -2.774,0.369 -2.853,0.361 -2.921,0.359 -2.989,0.359 -3.056,0.369 c 0.145,-0.18 0.34,-0.312 0.544,-0.415 0.168,-0.085 0.345,-0.153 0.527,-0.199 -0.016,0.049 -0.027,0.099 -0.037,0.149 -0.009,0.044 -0.014,0.09 -0.026,0.134 -0.04,0.032 -0.071,0.074 -0.081,0.125 -10e-4,0.035 0.003,0.071 0.022,0.101 -0.004,-0.038 -0.009,-0.077 0.001,-0.115 0.023,-0.051 0.073,-0.09 0.129,-0.096 0.033,-0.004 0.063,0.013 0.092,0.027 0.035,0.02 0.071,0.043 0.113,0.045 0.046,-0.002 0.066,-0.05 0.089,-0.082 l 0.001,0 c 0.046,-0.052 0.115,-0.09 0.186,-0.08 0.037,0.005 0.068,0.028 0.094,0.052 0.023,0.029 0.041,0.061 0.055,0.095 0.002,0 0.006,0 0.008,0.001 -0.002,-0.075 -0.055,-0.138 -0.12,-0.169 -0.006,-0.032 -0.017,-0.063 -0.026,-0.094 -0.026,-0.051 -0.053,-0.102 -0.086,-0.148 -0.015,-0.011 0.005,-0.014 0.012,-0.015 0.111,-0.01 0.222,-0.014 0.333,-0.018 0.278,-0.008 0.559,-0.004 0.833,0.049 0.192,0.038 0.38,0.095 0.557,0.176 0.139,0.066 0.274,0.15 0.372,0.271 C 0.624,0.275 0.664,0.428 0.625,0.567 0.593,0.673 0.544,0.772 0.486,0.866"
             style="fill:#ddbd25;fill-opacity:1;fill-rule:nonzero;stroke:none"
             id="path56652"
             inkscape:connector-curvature="0" /></g><g
           id="g56654"
           transform="translate(105.5623,70.9145)"><path
             d="M 0,0 C 0.08,0.003 0.159,0.016 0.239,0.024 0.233,0.035 0.227,0.046 0.221,0.057 0.217,0.07 0.212,0.082 0.208,0.095 0.205,0.1 0.2,0.111 0.198,0.116 0.107,0.089 0.013,0.066 -0.073,0.024 -0.093,-0.017 -0.023,-0.002 0,0"
             style="fill:#ddbd25;fill-opacity:1;fill-rule:nonzero;stroke:none"
             id="path56656"
             inkscape:connector-curvature="0" /></g><g
           id="g56658"
           transform="translate(105.1853,70.2565)"><path
             d="m 0,0 c -0.124,0.067 -0.275,0.095 -0.411,0.05 0.065,-0.004 0.132,-0.037 0.154,-0.103 0.007,-0.026 0.01,-0.053 0.011,-0.08 -0.013,-0.059 -0.057,-0.108 -0.114,-0.128 -0.045,-0.004 -0.094,-0.002 -0.131,0.026 -0.038,0.025 -0.057,0.069 -0.066,0.113 0,0.044 0.017,0.086 0.04,0.123 -0.076,-0.048 -0.136,-0.116 -0.187,-0.188 0.035,0.116 0.115,0.221 0.227,0.274 0.141,0.065 0.308,0.054 0.448,-0.008 C 0.06,0.039 0.144,-0.024 0.179,-0.118 0.12,-0.078 0.064,-0.032 0,0 M -0.102,0.186 C -0.269,0.204 -0.444,0.177 -0.591,0.093 -0.676,0.044 -0.75,-0.034 -0.77,-0.133 c -0.022,-0.117 0.024,-0.243 0.11,-0.324 0.055,-0.054 0.128,-0.085 0.202,-0.099 l 0.001,-0.002 c 0.045,-0.003 0.092,-0.018 0.137,-0.006 0.156,0.005 0.309,0.063 0.434,0.156 0.093,0.072 0.175,0.176 0.175,0.298 0.004,0.061 -0.032,0.114 -0.071,0.157 -0.083,0.086 -0.203,0.126 -0.32,0.139"
             style="fill:#74b743;fill-opacity:1;fill-rule:nonzero;stroke:none"
             id="path56660"
             inkscape:connector-curvature="0" /></g><g
           id="g56662"
           transform="translate(107.7729,70.0191)"><path
             d="m 0,0 c -0.07,0.025 -0.145,0.035 -0.22,0.033 0.05,-0.039 0.079,-0.107 0.053,-0.168 -0.005,-0.011 -0.011,-0.022 -0.017,-0.033 -0.033,-0.042 -0.088,-0.054 -0.139,-0.048 -0.029,0.005 -0.053,0.025 -0.074,0.045 -0.038,0.046 -0.033,0.109 -0.012,0.161 -0.067,-0.03 -0.127,-0.074 -0.183,-0.12 0.064,0.11 0.176,0.19 0.301,0.213 0.168,0.032 0.344,-0.02 0.483,-0.115 0.085,-0.059 0.164,-0.14 0.181,-0.246 C 0.27,-0.161 0.149,-0.053 0,0 M 0.356,-0.072 C 0.258,0.019 0.132,0.076 0.002,0.103 -0.117,0.128 -0.239,0.139 -0.36,0.122 -0.432,0.111 -0.506,0.092 -0.57,0.056 -0.646,0.002 -0.703,-0.087 -0.699,-0.182 c 0.004,-0.092 0.055,-0.174 0.114,-0.241 0.109,-0.12 0.253,-0.214 0.414,-0.242 0.121,-0.018 0.252,-0.015 0.363,0.041 0.104,0.05 0.2,0.135 0.228,0.25 0.026,0.102 0.018,0.226 -0.064,0.302"
             style="fill:#74b743;fill-opacity:1;fill-rule:nonzero;stroke:none"
             id="path56664"
             inkscape:connector-curvature="0" /></g><g
           id="g56666"
           transform="translate(104.7112,69.5392)"><path
             d="M 0,0 C 0.079,0.014 0.16,0.017 0.24,0.012 0.302,0.007 0.365,-0.002 0.422,-0.03 0.443,-0.042 0.468,-0.059 0.468,-0.086 0.466,-0.121 0.431,-0.14 0.404,-0.156 0.33,-0.187 0.251,-0.2 0.172,-0.208 0.105,-0.21 0.037,-0.21 -0.031,-0.2 c -0.054,0.011 -0.115,0.022 -0.155,0.064 -0.03,0.039 0.015,0.077 0.048,0.093 C -0.094,-0.021 -0.047,-0.009 0,0"
             style="fill:#ed4792;fill-opacity:1;fill-rule:nonzero;stroke:none"
             id="path56668"
             inkscape:connector-curvature="0" /></g><g
           id="g56670"
           transform="translate(107.0833,69.2373)"><path
             d="M 0,0 C 0.018,0.03 0.057,0.035 0.088,0.039 0.197,0.046 0.306,0.026 0.411,-0.001 0.521,-0.031 0.632,-0.068 0.729,-0.13 0.761,-0.15 0.785,-0.179 0.806,-0.209 0.781,-0.27 0.707,-0.263 0.653,-0.267 0.513,-0.261 0.374,-0.228 0.242,-0.179 0.17,-0.152 0.098,-0.121 0.038,-0.072 0.018,-0.054 -0.007,-0.03 0,0"
             style="fill:#ed4792;fill-opacity:1;fill-rule:nonzero;stroke:none"
             id="path56672"
             inkscape:connector-curvature="0" /></g><g
           id="g56674"><g
             id="g56676" /><g
             id="g56682"><g
               clip-path="url(#clipPath56678)"
               id="g56684"
               style="opacity:0.53999299"><g
                 transform="translate(109.2536,69.3034)"
                 id="g56686"><path
                   d="M 0,0 C 0.011,-0.025 -0.043,-0.016 -0.017,0 -0.013,0 -0.004,0 0,0"
                   style="fill:#192112;fill-opacity:1;fill-rule:nonzero;stroke:none"
                   id="path56688"
                   inkscape:connector-curvature="0" /></g></g></g></g><g
           id="g56690"><g
             id="g56692" /><g
             id="g56698"><g
               clip-path="url(#clipPath56694)"
               id="g56700"
               style="opacity:0.38999903"><g
                 transform="translate(108.5304,69.1784)"
                 id="g56702"><path
                   d="M 0,0 C -0.005,-0.019 -0.043,-0.003 -0.022,0.009 -0.017,0.007 -0.006,0.002 0,0"
                   style="fill:#283719;fill-opacity:1;fill-rule:nonzero;stroke:none"
                   id="path56704"
                   inkscape:connector-curvature="0" /></g></g></g></g><g
           id="g56706"
           transform="translate(106.0856,68.9522)"><path
             d="M 0,0 C -0.05,0.031 -0.061,0.104 -0.122,0.119 -0.166,0.12 -0.199,0.087 -0.236,0.068 -0.277,0.043 -0.327,0.041 -0.373,0.049 c 0.032,-0.077 0.044,-0.159 0.064,-0.239 0.023,-0.079 0.051,-0.174 0.135,-0.207 0.055,-0.026 0.118,-0.001 0.16,0.039 0.064,0.062 0.104,0.145 0.143,0.225 0.013,0.029 0.026,0.057 0.039,0.085 C 0.109,-0.048 0.051,-0.03 0,0"
             style="fill:#ed4792;fill-opacity:1;fill-rule:nonzero;stroke:none"
             id="path56708"
             inkscape:connector-curvature="0" /></g></g></g></g></svg>