<?xml version="1.0" encoding="UTF-8" standalone="no"?>
<!-- Created with Inkscape (http://www.inkscape.org/) -->

<svg
   xmlns:dc="http://purl.org/dc/elements/1.1/"
   xmlns:cc="http://creativecommons.org/ns#"
   xmlns:rdf="http://www.w3.org/1999/02/22-rdf-syntax-ns#"
   xmlns:svg="http://www.w3.org/2000/svg"
   xmlns="http://www.w3.org/2000/svg"
   xmlns:sodipodi="http://sodipodi.sourceforge.net/DTD/sodipodi-0.dtd"
   xmlns:inkscape="http://www.inkscape.org/namespaces/inkscape"
   id="svg63526"
   version="1.1"
   inkscape:version="0.48.5 r10040"
   width="256"
   height="256"
   xml:space="preserve"
   sodipodi:docname="Sega - 32X.svg"
   inkscape:export-filename="/Users/margetts/Desktop/BAXY RetroActive/png_marked/Sega - 32X.png"
   inkscape:export-xdpi="90.099998"
   inkscape:export-ydpi="90.099998"><metadata
     id="metadata63532"><rdf:RDF><cc:Work
         rdf:about=""><dc:format>image/svg+xml</dc:format><dc:type
           rdf:resource="http://purl.org/dc/dcmitype/StillImage" /><dc:title></dc:title></cc:Work></rdf:RDF></metadata><defs
     id="defs63530"><clipPath
       clipPathUnits="userSpaceOnUse"
       id="clipPath63540"><path
         d="M 0,128 128,128 128,0 0,0 0,128 z"
         id="path63542"
         inkscape:connector-curvature="0" /></clipPath></defs><sodipodi:namedview
     pagecolor="#ffffff"
     bordercolor="#666666"
     borderopacity="1"
     objecttolerance="10"
     gridtolerance="10"
     guidetolerance="10"
     inkscape:pageopacity="0"
     inkscape:pageshadow="2"
     inkscape:window-width="1676"
     inkscape:window-height="1005"
     id="namedview63528"
     showgrid="false"
     inkscape:zoom="5.23125"
     inkscape:cx="56.009558"
     inkscape:cy="80"
     inkscape:window-x="4"
     inkscape:window-y="1"
     inkscape:window-maximized="1"
     inkscape:current-layer="g63534" /><g
     id="g63534"
     inkscape:groupmode="layer"
     inkscape:label="Sega - 32X"
     transform="matrix(1.25,0,0,-1.25,0,256)"><g
       id="g63536"
       transform="matrix(1.6,0,0,1.6,0,-1.70656)"><g
         id="g63538"
         clip-path="url(#clipPath63540)"><g
           id="g63544"
           transform="translate(64,100.0001)"><path
             d="m 0,0 -0.028,0 c -0.565,-0.007 -56.573,-1.096 -63.552,-42.159 -1.041,-6.125 -0.133,-12.22 2.557,-17.163 3.649,-6.706 9.472,-10.288 16.852,-10.372 0.414,-0.076 1.136,-0.173 2.109,-0.173 2.527,0 7.662,0.693 13.648,5.337 7.359,5.709 21.334,7.837 28.414,7.837 6.924,0 20.122,-3.234 28.734,-8.049 8.435,-4.716 14.058,-4.955 15.099,-4.955 l 0.042,0 0.112,0.002 c 10e-4,0 0.003,0 0.004,0 7.422,0 13.34,3.587 17.032,10.373 2.69,4.943 3.598,11.038 2.557,17.163 C 56.601,-1.096 0.593,-0.007 0.028,0 L 0,0 z"
             style="fill:#ffffff;fill-opacity:1;fill-rule:nonzero;stroke:none"
             id="path63546"
             inkscape:connector-curvature="0" /></g><g
           id="g63548"
           transform="translate(64,97.4397)"><path
             d="m 0,0 c 0,0 -54.354,-0.597 -61.056,-40.028 -0.897,-5.281 -0.279,-10.805 2.282,-15.51 2.458,-4.519 6.908,-9.037 14.87,-9.037 0,0 5.966,-1.543 13.92,4.628 7.954,6.171 22.481,8.375 29.984,8.375 7.503,0 21.196,-3.462 29.984,-8.375 8.585,-4.8 13.92,-4.628 13.92,-4.628 7.962,0 12.412,4.518 14.87,9.037 2.561,4.705 3.179,10.229 2.282,15.51 C 54.354,-0.597 0,0 0,0"
             style="fill:#262626;fill-opacity:1;fill-rule:nonzero;stroke:none"
             id="path63550"
             inkscape:connector-curvature="0" /></g><g
           id="g63552"
           transform="translate(47.5934,76.5347)"><path
             d="m 0,0 c 5.039,-6.744 2.025,-17.514 -6.731,-24.057 -8.757,-6.543 -19.94,-6.381 -24.979,0.363 -5.039,6.744 -2.025,17.514 6.731,24.057 C -16.222,6.906 -5.039,6.744 0,0"
             style="fill:#191919;fill-opacity:1;fill-rule:nonzero;stroke:none"
             id="path63554"
             inkscape:connector-curvature="0" /></g><g
           id="g63556"
           transform="translate(36.2306,85.6679)"><path
             d="m 0,0 0,0 c -5.486,0 -11.165,-1.986 -15.99,-5.592 -10.495,-7.842 -13.875,-21.125 -7.535,-29.61 3.209,-4.295 8.51,-6.758 14.542,-6.758 5.485,0 11.163,1.986 15.989,5.592 10.495,7.841 13.875,21.124 7.535,29.609 C 11.331,-2.463 6.031,0 0,0 m -0.001,-3.967 c 4.628,0 8.794,-1.727 11.364,-5.166 5.039,-6.744 2.025,-17.515 -6.732,-24.058 -4.291,-3.206 -9.166,-4.802 -13.614,-4.802 -4.629,0 -8.795,1.727 -11.364,5.166 -5.039,6.743 -2.025,17.514 6.731,24.057 4.291,3.207 9.167,4.803 13.615,4.803"
             style="fill:#0d0d0d;fill-opacity:1;fill-rule:nonzero;stroke:none"
             id="path63558"
             inkscape:connector-curvature="0" /></g><g
           id="g63560"
           transform="translate(80.5753,76.5347)"><path
             d="m 0,0 c -5.039,-6.744 -2.025,-17.514 6.731,-24.057 8.757,-6.543 19.94,-6.381 24.979,0.363 5.039,6.744 2.025,17.514 -6.731,24.057 C 16.222,6.906 5.039,6.744 0,0"
             style="fill:#191919;fill-opacity:1;fill-rule:nonzero;stroke:none"
             id="path63562"
             inkscape:connector-curvature="0" /></g><g
           id="g63564"
           transform="translate(91.9381,85.6679)"><path
             d="m 0,0 c -6.031,0 -11.331,-2.463 -14.541,-6.759 -6.34,-8.485 -2.96,-21.768 7.535,-29.609 4.826,-3.606 10.504,-5.592 15.989,-5.592 6.032,0 11.333,2.463 14.542,6.758 6.34,8.485 2.96,21.768 -7.535,29.61 C 11.165,-1.986 5.486,0 0,0 z m 0.001,-3.967 c 4.448,0 9.324,-1.596 13.615,-4.803 8.756,-6.543 11.77,-17.314 6.731,-24.057 -2.569,-3.439 -6.735,-5.166 -11.364,-5.166 -4.448,0 -9.323,1.596 -13.614,4.802 -8.757,6.543 -11.771,17.314 -6.732,24.058 2.57,3.439 6.736,5.166 11.364,5.166"
             style="fill:#0d0d0d;fill-opacity:1;fill-rule:nonzero;stroke:none"
             id="path63566"
             inkscape:connector-curvature="0" /></g><g
           id="g63568"
           transform="translate(43.9608,66.2172)"><path
             d="m 0,0 c 0,-6.816 -5.526,-12.342 -12.342,-12.342 -6.816,0 -12.342,5.526 -12.342,12.342 0,6.816 5.526,12.342 12.342,12.342 C -5.526,12.342 0,6.816 0,0"
             style="fill:#262626;fill-opacity:1;fill-rule:nonzero;stroke:none"
             id="path63570"
             inkscape:connector-curvature="0" /></g><g
           id="g63572"
           transform="translate(42.7105,69.5369)"><path
             d="m 0,0 -7.772,0 0,7.772 -6.639,0 0,-7.772 -7.773,0 0,-6.639 7.773,0 0,-7.772 6.639,0 0,7.772 7.772,0 L 0,0 z"
             style="fill:#333333;fill-opacity:1;fill-rule:nonzero;stroke:none"
             id="path63574"
             inkscape:connector-curvature="0" /></g><g
           id="g63576"
           transform="translate(23.826,73.9706)"><path
             d="M 0,0 2.362,-0.987 0.987,-2.362 0,0 z"
             style="fill:#333333;fill-opacity:1;fill-rule:nonzero;stroke:none"
             id="path63578"
             inkscape:connector-curvature="0" /></g><g
           id="g63580"
           transform="translate(39.4115,73.9706)"><path
             d="M 0,0 -2.362,-0.987 -0.987,-2.362 0,0 z"
             style="fill:#333333;fill-opacity:1;fill-rule:nonzero;stroke:none"
             id="path63582"
             inkscape:connector-curvature="0" /></g><g
           id="g63584"
           transform="translate(39.4115,58.6055)"><path
             d="M 0,0 -2.362,0.987 -0.987,2.362 0,0 z"
             style="fill:#333333;fill-opacity:1;fill-rule:nonzero;stroke:none"
             id="path63586"
             inkscape:connector-curvature="0" /></g><g
           id="g63588"
           transform="translate(23.826,58.6055)"><path
             d="M 0,0 2.362,0.987 0.987,2.362 0,0 z"
             style="fill:#333333;fill-opacity:1;fill-rule:nonzero;stroke:none"
             id="path63590"
             inkscape:connector-curvature="0" /></g><g
           id="g63592"
           transform="translate(34.4472,66.2173)"><path
             d="m 0,0 c 0,-1.562 -1.266,-2.828 -2.828,-2.828 -1.563,0 -2.829,1.266 -2.829,2.828 0,1.562 1.266,2.828 2.829,2.828 C -1.266,2.828 0,1.562 0,0"
             style="fill:#262626;fill-opacity:1;fill-rule:nonzero;stroke:none"
             id="path63594"
             inkscape:connector-curvature="0" /></g><g
           id="g63596"
           transform="translate(66.9042,66.2187)"><path
             d="m 0,0 -5.808,0 c -1.226,0 -2.22,0.994 -2.22,2.22 l 0,0.003 c 0,1.226 0.994,2.22 2.22,2.22 l 5.808,0 c 1.226,0 2.22,-0.994 2.22,-2.22 l 0,-0.003 C 2.22,0.994 1.226,0 0,0"
             style="fill:#4c5aa3;fill-opacity:1;fill-rule:nonzero;stroke:none"
             id="path63598"
             inkscape:connector-curvature="0" /></g><g
           id="g63600"
           transform="translate(87.9545,68.2319)"><path
             d="m 0,0 c 0,-2.112 -1.712,-3.824 -3.824,-3.824 -2.112,0 -3.824,1.712 -3.824,3.824 0,2.112 1.712,3.824 3.824,3.824 C -1.712,3.824 0,2.112 0,0"
             style="fill:#666666;fill-opacity:1;fill-rule:nonzero;stroke:none"
             id="path63602"
             inkscape:connector-curvature="0" /></g><g
           id="g63604"
           transform="translate(98.4372,73.4522)"><path
             d="m 0,0 c 0,-2.112 -1.712,-3.824 -3.824,-3.824 -2.112,0 -3.824,1.712 -3.824,3.824 0,2.112 1.712,3.824 3.824,3.824 C -1.712,3.824 0,2.112 0,0"
             style="fill:#666666;fill-opacity:1;fill-rule:nonzero;stroke:none"
             id="path63606"
             inkscape:connector-curvature="0" /></g><g
           id="g63608"
           transform="translate(108.9259,76.6035)"><path
             d="m 0,0 c 0,-2.112 -1.712,-3.824 -3.824,-3.824 -2.112,0 -3.824,1.712 -3.824,3.824 0,2.112 1.712,3.824 3.824,3.824 C -1.712,3.824 0,2.112 0,0"
             style="fill:#666666;fill-opacity:1;fill-rule:nonzero;stroke:none"
             id="path63610"
             inkscape:connector-curvature="0" /></g><g
           id="g63612"
           transform="translate(93.4194,54.4832)"><path
             d="m 0,0 c 0,-3.018 -2.447,-5.465 -5.465,-5.465 -3.018,0 -5.465,2.447 -5.465,5.465 0,3.018 2.447,5.465 5.465,5.465 C -2.447,5.465 0,3.018 0,0"
             style="fill:#262626;fill-opacity:1;fill-rule:nonzero;stroke:none"
             id="path63614"
             inkscape:connector-curvature="0" /></g><g
           id="g63616"
           transform="translate(105.1021,61.1283)"><path
             d="m 0,0 c 0,-3.018 -2.447,-5.465 -5.465,-5.465 -3.018,0 -5.465,2.447 -5.465,5.465 0,3.018 2.447,5.465 5.465,5.465 C -2.447,5.465 0,3.018 0,0"
             style="fill:#262626;fill-opacity:1;fill-rule:nonzero;stroke:none"
             id="path63618"
             inkscape:connector-curvature="0" /></g><g
           id="g63620"
           transform="translate(117.5558,64.6897)"><path
             d="m 0,0 c 0,-3.018 -2.447,-5.465 -5.465,-5.465 -3.018,0 -5.465,2.447 -5.465,5.465 0,3.018 2.447,5.465 5.465,5.465 C -2.447,5.465 0,3.018 0,0"
             style="fill:#262626;fill-opacity:1;fill-rule:nonzero;stroke:none"
             id="path63622"
             inkscape:connector-curvature="0" /></g><g
           id="g63624"
           transform="translate(44.5098,90.5349)"><path
             d="m 0,0 c 3.22,0.898 20.197,5.096 40.133,-0.034 0.302,-0.078 0.625,-0.011 0.869,0.184 l 1.849,1.478 c 0.619,0.495 0.452,1.477 -0.3,1.727 C 36.974,5.212 18.388,10.283 -2.348,3.669 -3.06,3.442 -3.271,2.528 -2.739,2.003 l 1.772,-1.75 C -0.713,0.002 -0.344,-0.096 0,0"
             style="fill:#0d0d0d;fill-opacity:1;fill-rule:nonzero;stroke:none"
             id="path63626"
             inkscape:connector-curvature="0" /></g><g
           id="g63628"
           transform="translate(63.0616,83.8739)"><path
             d="m 0,0 -0.465,0 -0.581,1.162 0,-1.162 -0.465,0 0,1.627 0.697,0 L 0,0 z M 0,2.267 C 0,2.122 -0.051,1.999 -0.153,1.897 -0.255,1.795 -0.359,1.744 -0.465,1.744 l -1.162,0 0,-1.744 -0.465,0 0,2.208 1.511,0 c 0.077,0 0.116,0.02 0.116,0.059 0,0.038 -0.039,0.058 -0.116,0.058 l -1.511,0 0,0.465 1.627,0 c 0.106,0 0.21,-0.052 0.312,-0.155 C -0.051,2.531 0,2.409 0,2.267 m 0.581,0 C 0.581,1.962 0.503,1.731 0.347,1.575 0.191,1.419 0.058,1.313 -0.05,1.259 L 0.581,0 0.116,0 l -0.813,1.627 0.232,0 c 0.137,0 0.268,0.063 0.393,0.188 0.126,0.125 0.188,0.276 0.188,0.452 0,0.173 -0.062,0.322 -0.188,0.449 -0.125,0.127 -0.256,0.19 -0.393,0.19 l -1.627,0 0,0.465 1.627,0 c 0.266,0 0.507,-0.109 0.723,-0.326 C 0.473,2.828 0.581,2.569 0.581,2.267"
             style="fill:#d9d9d9;fill-opacity:1;fill-rule:nonzero;stroke:none"
             id="path63630"
             inkscape:connector-curvature="0" /></g><g
           id="g63632"
           transform="translate(63.8753,86.1986)"><path
             d="m 0,0 c 0,0.697 0.349,1.046 1.046,1.046 l 1.395,0 0,-0.465 -1.395,0 C 0.659,0.581 0.465,0.387 0.465,0 l 0,-1.279 c 0,-0.387 0.194,-0.581 0.581,-0.581 l 1.395,0 0,-0.465 -1.395,0 C 0.349,-2.325 0,-1.976 0,-1.279 L 0,0 z"
             style="fill:#d9d9d9;fill-opacity:1;fill-rule:nonzero;stroke:none"
             id="path63634"
             inkscape:connector-curvature="0" /></g><g
           id="g63636"
           transform="translate(64.4564,85.6174)"><path
             d="m 0,0 0,0.581 c 0,0.31 0.155,0.465 0.465,0.465 l 1.395,0 0,-0.465 -1.279,0 C 0.504,0.581 0.465,0.542 0.465,0.465 l 1.046,0 L 1.511,0 0,0 z"
             style="fill:#d9d9d9;fill-opacity:1;fill-rule:nonzero;stroke:none"
             id="path63638"
             inkscape:connector-curvature="0" /></g><g
           id="g63640"
           transform="translate(64.4564,85.5012)"><path
             d="m 0,0 1.511,0 0,-0.465 -1.046,0 c 0,-0.077 0.039,-0.116 0.116,-0.116 l 1.279,0 0,-0.465 -1.395,0 C 0.155,-1.046 0,-0.891 0,-0.581 L 0,0 z"
             style="fill:#d9d9d9;fill-opacity:1;fill-rule:nonzero;stroke:none"
             id="path63642"
             inkscape:connector-curvature="0" /></g><g
           id="g63644"
           transform="translate(67.9435,86.6635)"><path
             d="m 0,0 1.279,0 0,-0.465 -0.814,0 0,-2.325 L 0,-2.79 0,0 z m -0.116,0 0,-2.79 -0.465,0 0,2.325 -0.814,0 0,0.465 1.279,0 z m 1.395,0.116 -2.673,0 0,0.465 2.673,0 0,-0.465 z"
             style="fill:#d9d9d9;fill-opacity:1;fill-rule:nonzero;stroke:none"
             id="path63646"
             inkscape:connector-curvature="0" /></g><g
           id="g63648"
           transform="translate(71.5468,83.8739)"><path
             d="m 0,0 -0.465,0 -0.581,1.162 0,-1.162 -0.465,0 0,1.627 0.697,0 L 0,0 z M 0,2.267 C 0,2.122 -0.051,1.999 -0.153,1.897 -0.255,1.795 -0.359,1.744 -0.465,1.744 l -1.162,0 0,-1.744 -0.465,0 0,2.208 1.511,0 c 0.077,0 0.116,0.02 0.116,0.059 0,0.038 -0.039,0.058 -0.116,0.058 l -1.511,0 0,0.465 1.627,0 c 0.106,0 0.21,-0.052 0.312,-0.155 C -0.051,2.531 0,2.409 0,2.267 m 0.581,0 C 0.581,1.962 0.503,1.731 0.347,1.575 0.19,1.419 0.058,1.313 -0.05,1.259 L 0.581,0 0.116,0 l -0.813,1.627 0.232,0 c 0.137,0 0.268,0.063 0.393,0.188 0.126,0.125 0.188,0.276 0.188,0.452 0,0.173 -0.062,0.322 -0.188,0.449 -0.125,0.127 -0.256,0.19 -0.393,0.19 l -1.627,0 0,0.465 1.627,0 c 0.266,0 0.507,-0.109 0.723,-0.326 C 0.473,2.828 0.581,2.569 0.581,2.267"
             style="fill:#d9d9d9;fill-opacity:1;fill-rule:nonzero;stroke:none"
             id="path63650"
             inkscape:connector-curvature="0" /></g><g
           id="g63652"
           transform="translate(73.8715,86.0823)"><path
             d="m 0,0 c 0,0.077 -0.039,0.116 -0.116,0.116 l -0.233,0 C -0.426,0.116 -0.465,0.077 -0.465,0 l 0,-1.046 c 0,-0.078 0.039,-0.116 0.116,-0.116 l 0.233,0 C -0.039,-1.162 0,-1.124 0,-1.046 L 0,0 z m 0.465,0.116 0,-1.278 C 0.465,-1.472 0.31,-1.627 0,-1.627 l -0.465,0 c -0.31,0 -0.465,0.155 -0.465,0.465 l 0,1.278 c 0,0.31 0.155,0.465 0.465,0.465 l 0.465,0 c 0.31,0 0.465,-0.155 0.465,-0.465 m 0.116,0 C 0.581,0.504 0.387,0.697 0,0.697 l -0.465,0 c -0.387,0 -0.581,-0.193 -0.581,-0.581 l 0,-1.278 c 0,-0.388 0.194,-0.582 0.581,-0.582 l 0.465,0 c 0.387,0 0.581,0.194 0.581,0.582 l 0,1.278 z m 0.465,0 0,-1.278 C 1.046,-1.86 0.697,-2.208 0,-2.208 l -0.465,0 c -0.697,0 -1.046,0.348 -1.046,1.046 l 0,1.278 c 0,0.698 0.349,1.046 1.046,1.046 l 0.465,0 c 0.697,0 1.046,-0.348 1.046,-1.046"
             style="fill:#d9d9d9;fill-opacity:1;fill-rule:nonzero;stroke:none"
             id="path63654"
             inkscape:connector-curvature="0" /></g><g
           id="g63656"
           transform="translate(54.619,84.6555)"><path
             d="M 0,0 C -0.004,0.01 -0.006,0.021 -0.009,0.032 L 0,0.032 0,0 z m 0.655,0.264 c -0.078,0 -0.116,0.039 -0.116,0.117 l 0,2.208 -1.046,0 0,-2.325 c 0,-0.697 0.348,-1.046 1.046,-1.046 l 1.395,0 0,1.046 -1.279,0 z"
             style="fill:#d9d9d9;fill-opacity:1;fill-rule:nonzero;stroke:none"
             id="path63658"
             inkscape:connector-curvature="0" /></g><path
           d="m 56.785,83.874 1.046,0 0,3.371 -1.046,0 0,-3.371 z"
           style="fill:#d9d9d9;fill-opacity:1;fill-rule:nonzero;stroke:none"
           id="path63660"
           inkscape:connector-curvature="0" /><g
           id="g63662"
           transform="translate(59.5745,86.0823)"><path
             d="m 0,0 -0.465,0 0,0.116 0.465,0 C 0.077,0.116 0.116,0.097 0.116,0.058 0.116,0.019 0.077,0 0,0 m 0,-1.162 -0.465,0 0,0.116 0.465,0 c 0.077,0 0.116,-0.019 0.116,-0.058 0,-0.039 -0.039,-0.058 -0.116,-0.058 m 1.162,1.22 C 1.162,0.36 1.055,0.62 0.839,0.837 0.623,1.054 0.382,1.162 0.116,1.162 l -1.627,0 0,-3.37 1.627,0 c 0.266,0 0.507,0.108 0.723,0.325 0.216,0.217 0.323,0.477 0.323,0.779 0,0.219 -0.053,0.412 -0.159,0.577 0.106,0.165 0.159,0.36 0.159,0.585"
             style="fill:#d9d9d9;fill-opacity:1;fill-rule:nonzero;stroke:none"
             id="path63664"
             inkscape:connector-curvature="0" /></g></g></g></g></svg>