<?xml version="1.0" encoding="UTF-8" standalone="no"?>
<!-- Created with Inkscape (http://www.inkscape.org/) -->

<svg
   xmlns:dc="http://purl.org/dc/elements/1.1/"
   xmlns:cc="http://creativecommons.org/ns#"
   xmlns:rdf="http://www.w3.org/1999/02/22-rdf-syntax-ns#"
   xmlns:svg="http://www.w3.org/2000/svg"
   xmlns="http://www.w3.org/2000/svg"
   xmlns:sodipodi="http://sodipodi.sourceforge.net/DTD/sodipodi-0.dtd"
   xmlns:inkscape="http://www.inkscape.org/namespaces/inkscape"
   id="svg65828"
   version="1.1"
   inkscape:version="0.48.5 r10040"
   width="256"
   height="256"
   xml:space="preserve"
   sodipodi:docname="Sega - Game Gear.svg"
   inkscape:export-filename="/Users/margetts/Desktop/BAXY RetroActive/png_marked/Sega - Game Gear.png"
   inkscape:export-xdpi="90.099998"
   inkscape:export-ydpi="90.099998"><metadata
     id="metadata65834"><rdf:RDF><cc:Work
         rdf:about=""><dc:format>image/svg+xml</dc:format><dc:type
           rdf:resource="http://purl.org/dc/dcmitype/StillImage" /><dc:title></dc:title></cc:Work></rdf:RDF></metadata><defs
     id="defs65832"><clipPath
       clipPathUnits="userSpaceOnUse"
       id="clipPath65842"><path
         d="M 0,128 128,128 128,0 0,0 0,128 z"
         id="path65844"
         inkscape:connector-curvature="0" /></clipPath></defs><sodipodi:namedview
     pagecolor="#ffffff"
     bordercolor="#666666"
     borderopacity="1"
     objecttolerance="10"
     gridtolerance="10"
     guidetolerance="10"
     inkscape:pageopacity="0"
     inkscape:pageshadow="2"
     inkscape:window-width="1676"
     inkscape:window-height="1005"
     id="namedview65830"
     showgrid="false"
     inkscape:zoom="5.23125"
     inkscape:cx="56.009558"
     inkscape:cy="80"
     inkscape:window-x="4"
     inkscape:window-y="1"
     inkscape:window-maximized="1"
     inkscape:current-layer="g65836" /><g
     id="g65836"
     inkscape:groupmode="layer"
     inkscape:label="Sega - Game Gear"
     transform="matrix(1.25,0,0,-1.25,0,256)"><g
       id="g65838"
       transform="matrix(1.6,0,0,1.6,0,-1.79232)"><g
         id="g65840"
         clip-path="url(#clipPath65842)"><g
           id="g65846"
           transform="translate(64,99.4597)"><path
             d="m 0,0 c -6.97,0 -15.992,-0.512 -24.217,-1.003 -0.469,0.411 -1.07,0.636 -1.689,0.636 -0.055,0 -0.11,-0.001 -0.164,-0.005 l -10.471,-0.671 c -0.678,-0.044 -1.312,-0.356 -1.76,-0.867 -0.011,-0.013 -0.022,-0.025 -0.033,-0.038 -4.55,-0.372 -14.236,-1.228 -15.236,-1.394 -0.436,-0.071 -0.842,-0.13 -1.217,-0.186 -3.635,-0.534 -5.922,-1.13 -7.084,-6.428 -1.028,-4.686 -2.129,-18.32 -2.129,-24.383 0,-6.702 0,-13.033 0.932,-20.758 1.43,-11.817 40.128,-13.582 63.068,-13.582 22.939,0 61.635,1.765 63.068,13.58 0.932,7.727 0.932,14.058 0.932,20.76 0,6.052 -1.102,19.681 -2.131,24.378 -1.168,5.3 -3.457,5.896 -7.094,6.429 -0.375,0.056 -0.782,0.115 -1.223,0.187 C 52.38,-3.149 12.178,0 0,0"
             style="fill:#ffffff;fill-opacity:1;fill-rule:nonzero;stroke:none"
             id="path65848"
             inkscape:connector-curvature="0" /></g><g
           id="g65850"
           transform="translate(123.368,88.9507)"><path
             d="m 0,0 c -0.953,4.328 -2.182,3.977 -6.229,4.638 -1.127,0.188 -41.004,3.311 -53.139,3.311 -7.229,0 -16.809,-0.564 -25.86,-1.106 l -0.046,0.74 -10.471,-0.672 0.051,-0.761 c -3.14,-0.224 -15.879,-1.351 -16.826,-1.508 -4.038,-0.661 -5.269,-0.309 -6.218,-4.638 -0.949,-4.326 -2.07,-17.69 -2.07,-23.834 0,-6.642 0.002,-12.896 0.913,-20.451 0.915,-7.562 27.758,-11.329 60.527,-11.329 32.769,0 59.61,3.767 60.527,11.329 0.911,7.555 0.913,13.809 0.913,20.451 C 2.072,-17.686 0.947,-4.322 0,0"
             style="fill:#333333;fill-opacity:1;fill-rule:nonzero;stroke:none"
             id="path65852"
             inkscape:connector-curvature="0" /></g><g
           id="g65854"
           transform="translate(40.3583,92.6295)"><path
             d="m 0,0 47.147,0.427 c 0,0 13.973,-0.427 14.826,-5.014 0.854,-4.586 -1.28,-8 -1.28,-8 l -7.68,-22.293 c 0,0 -1.6,-6.72 -12.373,-6.933 -10.773,-0.214 -36.8,0 -36.8,0 0,0 -7.147,0.746 -9.92,8 -2.773,7.253 -9.067,24 -9.067,24 0,0 -4.157,9.638 15.147,9.813"
             style="fill:#0d0d0d;fill-opacity:1;fill-rule:nonzero;stroke:none"
             id="path65856"
             inkscape:connector-curvature="0" /></g><g
           id="g65858"
           transform="translate(86.5237,90.4749)"><path
             d="m 0,0 -3.072,0 -39.253,0 -3.072,0 0,-3.072 0,-28.587 0,-3.072 3.072,0 39.253,0 3.072,0 0,3.072 L 0,-3.072 0,0 z"
             style="fill:#191919;fill-opacity:1;fill-rule:nonzero;stroke:none"
             id="path65860"
             inkscape:connector-curvature="0" /></g><path
           d="m 83.452,58.816 -39.253,0 0,28.587 39.253,0 0,-28.587 z"
           style="fill:#0d0d0d;fill-opacity:1;fill-rule:nonzero;stroke:none"
           id="path65862"
           inkscape:connector-curvature="0" /><g
           id="g65864"
           transform="translate(36.2528,76.8962)"><path
             d="m 0,0 c 0,-0.354 -0.287,-0.641 -0.641,-0.641 -0.354,0 -0.641,0.287 -0.641,0.641 0,0.354 0.287,0.641 0.641,0.641 C -0.287,0.641 0,0.354 0,0"
             style="fill:#ea254c;fill-opacity:1;fill-rule:nonzero;stroke:none"
             id="path65866"
             inkscape:connector-curvature="0" /></g><g
           id="g65868"
           transform="translate(121.3124,76.2078)"><path
             d="m 0,0 c 1.275,-1.275 -2.656,-7.272 -8.779,-13.395 -6.124,-6.124 -12.121,-10.055 -13.396,-8.78 -1.275,1.275 2.656,7.272 8.78,13.396 C -7.272,-2.656 -1.275,1.275 0,0"
             style="fill:#262626;fill-opacity:1;fill-rule:nonzero;stroke:none"
             id="path65870"
             inkscape:connector-curvature="0" /></g><g
           id="g65872"
           transform="translate(109.5098,66.8271)"><path
             d="m 0,0 c 0,-2.085 -1.69,-3.776 -3.776,-3.776 -2.085,0 -3.775,1.691 -3.775,3.776 0,2.085 1.69,3.776 3.775,3.776 C -1.69,3.776 0,2.085 0,0"
             style="fill:#404040;fill-opacity:1;fill-rule:nonzero;stroke:none"
             id="path65874"
             inkscape:connector-curvature="0" /></g><g
           id="g65876"
           transform="translate(118.8569,73.8867)"><path
             d="m 0,0 c 0,-2.085 -1.69,-3.776 -3.776,-3.776 -2.085,0 -3.775,1.691 -3.775,3.776 0,2.085 1.69,3.776 3.775,3.776 C -1.69,3.776 0,2.085 0,0"
             style="fill:#404040;fill-opacity:1;fill-rule:nonzero;stroke:none"
             id="path65878"
             inkscape:connector-curvature="0" /></g><g
           id="g65880"
           transform="translate(106.8045,87.1705)"><path
             d="m 0,0 -2.46,-6.374 c 0.491,-0.268 1.046,-0.434 1.645,-0.434 1.909,0 3.457,1.548 3.457,3.458 C 2.642,-1.723 1.514,-0.368 0,0"
             style="fill:#7882ff;fill-opacity:1;fill-rule:nonzero;stroke:none"
             id="path65882"
             inkscape:connector-curvature="0" /></g><g
           id="g65884"
           transform="translate(79.4917,47.0816)"><path
             d="m 0,0 c -0.11,0 -0.183,0.001 -0.214,0.001 l -31.026,0 c -13.768,0 -16.2,8.143 -16.296,8.489 l -14.112,38.53 1.203,0.085 14.126,-38.223 c 0.104,-0.353 2.336,-7.601 15.079,-7.601 l 31.04,0 c 0.138,-0.016 12.086,-0.161 15.082,7.612 3.159,8.191 13.22,37.91 13.322,38.212 l 1.215,-0.068 C 29.316,46.734 19.246,16.65 16.077,8.432 12.95,0.321 1.75,0 0,0"
             style="fill:#262626;fill-opacity:1;fill-rule:nonzero;stroke:none"
             id="path65886"
             inkscape:connector-curvature="0" /></g><g
           id="g65888"
           transform="translate(18.1233,49.667)"><path
             d="m 0,0 c 0,-0.34 -0.276,-0.616 -0.616,-0.616 -0.34,0 -0.616,0.276 -0.616,0.616 0,0.34 0.276,0.616 0.616,0.616 C -0.276,0.616 0,0.34 0,0"
             style="fill:#262626;fill-opacity:1;fill-rule:nonzero;stroke:none"
             id="path65890"
             inkscape:connector-curvature="0" /></g><g
           id="g65892"
           transform="translate(20.2605,49.667)"><path
             d="m 0,0 c 0,-0.34 -0.276,-0.616 -0.616,-0.616 -0.34,0 -0.616,0.276 -0.616,0.616 0,0.34 0.276,0.616 0.616,0.616 C -0.276,0.616 0,0.34 0,0"
             style="fill:#262626;fill-opacity:1;fill-rule:nonzero;stroke:none"
             id="path65894"
             inkscape:connector-curvature="0" /></g><g
           id="g65896"
           transform="translate(22.3977,49.667)"><path
             d="m 0,0 c 0,-0.34 -0.276,-0.616 -0.616,-0.616 -0.34,0 -0.616,0.276 -0.616,0.616 0,0.34 0.276,0.616 0.616,0.616 C -0.276,0.616 0,0.34 0,0"
             style="fill:#262626;fill-opacity:1;fill-rule:nonzero;stroke:none"
             id="path65898"
             inkscape:connector-curvature="0" /></g><g
           id="g65900"
           transform="translate(24.5349,49.667)"><path
             d="m 0,0 c 0,-0.34 -0.276,-0.616 -0.616,-0.616 -0.34,0 -0.616,0.276 -0.616,0.616 0,0.34 0.276,0.616 0.616,0.616 C -0.276,0.616 0,0.34 0,0"
             style="fill:#262626;fill-opacity:1;fill-rule:nonzero;stroke:none"
             id="path65902"
             inkscape:connector-curvature="0" /></g><g
           id="g65904"
           transform="translate(26.672,49.667)"><path
             d="m 0,0 c 0,-0.34 -0.276,-0.616 -0.616,-0.616 -0.34,0 -0.616,0.276 -0.616,0.616 0,0.34 0.276,0.616 0.616,0.616 C -0.276,0.616 0,0.34 0,0"
             style="fill:#262626;fill-opacity:1;fill-rule:nonzero;stroke:none"
             id="path65906"
             inkscape:connector-curvature="0" /></g><g
           id="g65908"
           transform="translate(28.8092,49.667)"><path
             d="m 0,0 c 0,-0.34 -0.276,-0.616 -0.616,-0.616 -0.34,0 -0.616,0.276 -0.616,0.616 0,0.34 0.276,0.616 0.616,0.616 C -0.276,0.616 0,0.34 0,0"
             style="fill:#262626;fill-opacity:1;fill-rule:nonzero;stroke:none"
             id="path65910"
             inkscape:connector-curvature="0" /></g><g
           id="g65912"
           transform="translate(18.1233,47.6974)"><path
             d="m 0,0 c 0,-0.34 -0.276,-0.616 -0.616,-0.616 -0.34,0 -0.616,0.276 -0.616,0.616 0,0.34 0.276,0.616 0.616,0.616 C -0.276,0.616 0,0.34 0,0"
             style="fill:#262626;fill-opacity:1;fill-rule:nonzero;stroke:none"
             id="path65914"
             inkscape:connector-curvature="0" /></g><g
           id="g65916"
           transform="translate(20.2605,47.6974)"><path
             d="m 0,0 c 0,-0.34 -0.276,-0.616 -0.616,-0.616 -0.34,0 -0.616,0.276 -0.616,0.616 0,0.34 0.276,0.616 0.616,0.616 C -0.276,0.616 0,0.34 0,0"
             style="fill:#262626;fill-opacity:1;fill-rule:nonzero;stroke:none"
             id="path65918"
             inkscape:connector-curvature="0" /></g><g
           id="g65920"
           transform="translate(22.3977,47.6974)"><path
             d="m 0,0 c 0,-0.34 -0.276,-0.616 -0.616,-0.616 -0.34,0 -0.616,0.276 -0.616,0.616 0,0.34 0.276,0.616 0.616,0.616 C -0.276,0.616 0,0.34 0,0"
             style="fill:#262626;fill-opacity:1;fill-rule:nonzero;stroke:none"
             id="path65922"
             inkscape:connector-curvature="0" /></g><g
           id="g65924"
           transform="translate(24.5349,47.6974)"><path
             d="m 0,0 c 0,-0.34 -0.276,-0.616 -0.616,-0.616 -0.34,0 -0.616,0.276 -0.616,0.616 0,0.34 0.276,0.616 0.616,0.616 C -0.276,0.616 0,0.34 0,0"
             style="fill:#262626;fill-opacity:1;fill-rule:nonzero;stroke:none"
             id="path65926"
             inkscape:connector-curvature="0" /></g><g
           id="g65928"
           transform="translate(26.672,47.6974)"><path
             d="m 0,0 c 0,-0.34 -0.276,-0.616 -0.616,-0.616 -0.34,0 -0.616,0.276 -0.616,0.616 0,0.34 0.276,0.616 0.616,0.616 C -0.276,0.616 0,0.34 0,0"
             style="fill:#262626;fill-opacity:1;fill-rule:nonzero;stroke:none"
             id="path65930"
             inkscape:connector-curvature="0" /></g><g
           id="g65932"
           transform="translate(28.8092,47.6974)"><path
             d="m 0,0 c 0,-0.34 -0.276,-0.616 -0.616,-0.616 -0.34,0 -0.616,0.276 -0.616,0.616 0,0.34 0.276,0.616 0.616,0.616 C -0.276,0.616 0,0.34 0,0"
             style="fill:#262626;fill-opacity:1;fill-rule:nonzero;stroke:none"
             id="path65934"
             inkscape:connector-curvature="0" /></g><g
           id="g65936"
           transform="translate(18.1233,45.7279)"><path
             d="m 0,0 c 0,-0.34 -0.276,-0.616 -0.616,-0.616 -0.34,0 -0.616,0.276 -0.616,0.616 0,0.34 0.276,0.616 0.616,0.616 C -0.276,0.616 0,0.34 0,0"
             style="fill:#262626;fill-opacity:1;fill-rule:nonzero;stroke:none"
             id="path65938"
             inkscape:connector-curvature="0" /></g><g
           id="g65940"
           transform="translate(20.2605,45.7279)"><path
             d="m 0,0 c 0,-0.34 -0.276,-0.616 -0.616,-0.616 -0.34,0 -0.616,0.276 -0.616,0.616 0,0.34 0.276,0.616 0.616,0.616 C -0.276,0.616 0,0.34 0,0"
             style="fill:#262626;fill-opacity:1;fill-rule:nonzero;stroke:none"
             id="path65942"
             inkscape:connector-curvature="0" /></g><g
           id="g65944"
           transform="translate(22.3977,45.7279)"><path
             d="m 0,0 c 0,-0.34 -0.276,-0.616 -0.616,-0.616 -0.34,0 -0.616,0.276 -0.616,0.616 0,0.34 0.276,0.616 0.616,0.616 C -0.276,0.616 0,0.34 0,0"
             style="fill:#262626;fill-opacity:1;fill-rule:nonzero;stroke:none"
             id="path65946"
             inkscape:connector-curvature="0" /></g><g
           id="g65948"
           transform="translate(24.5349,45.7279)"><path
             d="m 0,0 c 0,-0.34 -0.276,-0.616 -0.616,-0.616 -0.34,0 -0.616,0.276 -0.616,0.616 0,0.34 0.276,0.616 0.616,0.616 C -0.276,0.616 0,0.34 0,0"
             style="fill:#262626;fill-opacity:1;fill-rule:nonzero;stroke:none"
             id="path65950"
             inkscape:connector-curvature="0" /></g><g
           id="g65952"
           transform="translate(26.672,45.7279)"><path
             d="m 0,0 c 0,-0.34 -0.276,-0.616 -0.616,-0.616 -0.34,0 -0.616,0.276 -0.616,0.616 0,0.34 0.276,0.616 0.616,0.616 C -0.276,0.616 0,0.34 0,0"
             style="fill:#262626;fill-opacity:1;fill-rule:nonzero;stroke:none"
             id="path65954"
             inkscape:connector-curvature="0" /></g><g
           id="g65956"
           transform="translate(28.8092,45.7279)"><path
             d="m 0,0 c 0,-0.34 -0.276,-0.616 -0.616,-0.616 -0.34,0 -0.616,0.276 -0.616,0.616 0,0.34 0.276,0.616 0.616,0.616 C -0.276,0.616 0,0.34 0,0"
             style="fill:#262626;fill-opacity:1;fill-rule:nonzero;stroke:none"
             id="path65958"
             inkscape:connector-curvature="0" /></g><g
           id="g65960"
           transform="translate(18.1233,43.7583)"><path
             d="m 0,0 c 0,-0.34 -0.276,-0.616 -0.616,-0.616 -0.34,0 -0.616,0.276 -0.616,0.616 0,0.34 0.276,0.616 0.616,0.616 C -0.276,0.616 0,0.34 0,0"
             style="fill:#262626;fill-opacity:1;fill-rule:nonzero;stroke:none"
             id="path65962"
             inkscape:connector-curvature="0" /></g><g
           id="g65964"
           transform="translate(16.2802,47.6974)"><path
             d="m 0,0 c 0,-0.34 -0.276,-0.616 -0.616,-0.616 -0.34,0 -0.616,0.276 -0.616,0.616 0,0.34 0.276,0.616 0.616,0.616 C -0.276,0.616 0,0.34 0,0"
             style="fill:#262626;fill-opacity:1;fill-rule:nonzero;stroke:none"
             id="path65966"
             inkscape:connector-curvature="0" /></g><g
           id="g65968"
           transform="translate(16.2802,45.7279)"><path
             d="m 0,0 c 0,-0.34 -0.276,-0.616 -0.616,-0.616 -0.34,0 -0.616,0.276 -0.616,0.616 0,0.34 0.276,0.616 0.616,0.616 C -0.276,0.616 0,0.34 0,0"
             style="fill:#262626;fill-opacity:1;fill-rule:nonzero;stroke:none"
             id="path65970"
             inkscape:connector-curvature="0" /></g><g
           id="g65972"
           transform="translate(16.2802,43.7583)"><path
             d="m 0,0 c 0,-0.34 -0.276,-0.616 -0.616,-0.616 -0.34,0 -0.616,0.276 -0.616,0.616 0,0.34 0.276,0.616 0.616,0.616 C -0.276,0.616 0,0.34 0,0"
             style="fill:#262626;fill-opacity:1;fill-rule:nonzero;stroke:none"
             id="path65974"
             inkscape:connector-curvature="0" /></g><g
           id="g65976"
           transform="translate(30.6162,47.6974)"><path
             d="m 0,0 c 0,-0.34 -0.276,-0.616 -0.616,-0.616 -0.34,0 -0.616,0.276 -0.616,0.616 0,0.34 0.276,0.616 0.616,0.616 C -0.276,0.616 0,0.34 0,0"
             style="fill:#262626;fill-opacity:1;fill-rule:nonzero;stroke:none"
             id="path65978"
             inkscape:connector-curvature="0" /></g><g
           id="g65980"
           transform="translate(30.6162,45.7279)"><path
             d="m 0,0 c 0,-0.34 -0.276,-0.616 -0.616,-0.616 -0.34,0 -0.616,0.276 -0.616,0.616 0,0.34 0.276,0.616 0.616,0.616 C -0.276,0.616 0,0.34 0,0"
             style="fill:#262626;fill-opacity:1;fill-rule:nonzero;stroke:none"
             id="path65982"
             inkscape:connector-curvature="0" /></g><g
           id="g65984"
           transform="translate(30.6162,43.7583)"><path
             d="m 0,0 c 0,-0.34 -0.276,-0.616 -0.616,-0.616 -0.34,0 -0.616,0.276 -0.616,0.616 0,0.34 0.276,0.616 0.616,0.616 C -0.276,0.616 0,0.34 0,0"
             style="fill:#262626;fill-opacity:1;fill-rule:nonzero;stroke:none"
             id="path65986"
             inkscape:connector-curvature="0" /></g><g
           id="g65988"
           transform="translate(20.2605,43.7583)"><path
             d="m 0,0 c 0,-0.34 -0.276,-0.616 -0.616,-0.616 -0.34,0 -0.616,0.276 -0.616,0.616 0,0.34 0.276,0.616 0.616,0.616 C -0.276,0.616 0,0.34 0,0"
             style="fill:#262626;fill-opacity:1;fill-rule:nonzero;stroke:none"
             id="path65990"
             inkscape:connector-curvature="0" /></g><g
           id="g65992"
           transform="translate(22.3977,43.7583)"><path
             d="m 0,0 c 0,-0.34 -0.276,-0.616 -0.616,-0.616 -0.34,0 -0.616,0.276 -0.616,0.616 0,0.34 0.276,0.616 0.616,0.616 C -0.276,0.616 0,0.34 0,0"
             style="fill:#262626;fill-opacity:1;fill-rule:nonzero;stroke:none"
             id="path65994"
             inkscape:connector-curvature="0" /></g><g
           id="g65996"
           transform="translate(24.5349,43.7583)"><path
             d="m 0,0 c 0,-0.34 -0.276,-0.616 -0.616,-0.616 -0.34,0 -0.616,0.276 -0.616,0.616 0,0.34 0.276,0.616 0.616,0.616 C -0.276,0.616 0,0.34 0,0"
             style="fill:#262626;fill-opacity:1;fill-rule:nonzero;stroke:none"
             id="path65998"
             inkscape:connector-curvature="0" /></g><g
           id="g66000"
           transform="translate(26.672,43.7583)"><path
             d="m 0,0 c 0,-0.34 -0.276,-0.616 -0.616,-0.616 -0.34,0 -0.616,0.276 -0.616,0.616 0,0.34 0.276,0.616 0.616,0.616 C -0.276,0.616 0,0.34 0,0"
             style="fill:#262626;fill-opacity:1;fill-rule:nonzero;stroke:none"
             id="path66002"
             inkscape:connector-curvature="0" /></g><g
           id="g66004"
           transform="translate(28.8092,43.7583)"><path
             d="m 0,0 c 0,-0.34 -0.276,-0.616 -0.616,-0.616 -0.34,0 -0.616,0.276 -0.616,0.616 0,0.34 0.276,0.616 0.616,0.616 C -0.276,0.616 0,0.34 0,0"
             style="fill:#262626;fill-opacity:1;fill-rule:nonzero;stroke:none"
             id="path66006"
             inkscape:connector-curvature="0" /></g><g
           id="g66008"
           transform="translate(18.1233,41.7887)"><path
             d="m 0,0 c 0,-0.34 -0.276,-0.616 -0.616,-0.616 -0.34,0 -0.616,0.276 -0.616,0.616 0,0.34 0.276,0.616 0.616,0.616 C -0.276,0.616 0,0.34 0,0"
             style="fill:#262626;fill-opacity:1;fill-rule:nonzero;stroke:none"
             id="path66010"
             inkscape:connector-curvature="0" /></g><g
           id="g66012"
           transform="translate(20.2605,41.7887)"><path
             d="m 0,0 c 0,-0.34 -0.276,-0.616 -0.616,-0.616 -0.34,0 -0.616,0.276 -0.616,0.616 0,0.34 0.276,0.616 0.616,0.616 C -0.276,0.616 0,0.34 0,0"
             style="fill:#262626;fill-opacity:1;fill-rule:nonzero;stroke:none"
             id="path66014"
             inkscape:connector-curvature="0" /></g><g
           id="g66016"
           transform="translate(22.3977,41.7887)"><path
             d="m 0,0 c 0,-0.34 -0.276,-0.616 -0.616,-0.616 -0.34,0 -0.616,0.276 -0.616,0.616 0,0.34 0.276,0.616 0.616,0.616 C -0.276,0.616 0,0.34 0,0"
             style="fill:#262626;fill-opacity:1;fill-rule:nonzero;stroke:none"
             id="path66018"
             inkscape:connector-curvature="0" /></g><g
           id="g66020"
           transform="translate(24.5349,41.7887)"><path
             d="m 0,0 c 0,-0.34 -0.276,-0.616 -0.616,-0.616 -0.34,0 -0.616,0.276 -0.616,0.616 0,0.34 0.276,0.616 0.616,0.616 C -0.276,0.616 0,0.34 0,0"
             style="fill:#262626;fill-opacity:1;fill-rule:nonzero;stroke:none"
             id="path66022"
             inkscape:connector-curvature="0" /></g><g
           id="g66024"
           transform="translate(26.672,41.7887)"><path
             d="m 0,0 c 0,-0.34 -0.276,-0.616 -0.616,-0.616 -0.34,0 -0.616,0.276 -0.616,0.616 0,0.34 0.276,0.616 0.616,0.616 C -0.276,0.616 0,0.34 0,0"
             style="fill:#262626;fill-opacity:1;fill-rule:nonzero;stroke:none"
             id="path66026"
             inkscape:connector-curvature="0" /></g><g
           id="g66028"
           transform="translate(28.8092,41.7887)"><path
             d="m 0,0 c 0,-0.34 -0.276,-0.616 -0.616,-0.616 -0.34,0 -0.616,0.276 -0.616,0.616 0,0.34 0.276,0.616 0.616,0.616 C -0.276,0.616 0,0.34 0,0"
             style="fill:#262626;fill-opacity:1;fill-rule:nonzero;stroke:none"
             id="path66030"
             inkscape:connector-curvature="0" /></g><g
           id="g66032"
           transform="translate(16.308,79.0737)"><path
             d="m 0,0 c -4.556,0 -8.262,-3.706 -8.262,-8.262 0,-4.556 3.706,-8.262 8.262,-8.262 4.556,0 8.262,3.706 8.262,8.262 C 8.262,-3.706 4.556,0 0,0"
             style="fill:#404040;fill-opacity:1;fill-rule:nonzero;stroke:none"
             id="path66034"
             inkscape:connector-curvature="0" /></g><g
           id="g66036"
           transform="translate(23.9301,70.8116)"><path
             d="m 0,0 c 0,-4.21 -3.413,-7.622 -7.622,-7.622 -4.21,0 -7.622,3.412 -7.622,7.622 0,4.21 3.412,7.622 7.622,7.622 C -3.413,7.622 0,4.21 0,0"
             style="fill:#262626;fill-opacity:1;fill-rule:nonzero;stroke:none"
             id="path66038"
             inkscape:connector-curvature="0" /></g><g
           id="g66040"
           transform="translate(16.2904,71.3791)"><path
             d="m 0,0 2.296,2.296 0,2.935 c 0,0.707 -0.573,1.28 -1.28,1.28 l -1.997,0 c -0.707,0 -1.28,-0.573 -1.28,-1.28 l 0,-2.97 L 0,0 z"
             style="fill:#333333;fill-opacity:1;fill-rule:nonzero;stroke:none"
             id="path66042"
             inkscape:connector-curvature="0" /></g><g
           id="g66044"
           transform="translate(15.8379,70.9266)"><path
             d="m 0,0 -2.261,2.261 -2.971,0 c -0.707,0 -1.28,-0.574 -1.28,-1.28 l 0,-1.998 c 0,-0.707 0.573,-1.28 1.28,-1.28 l 2.935,0 L 0,0 z"
             style="fill:#333333;fill-opacity:1;fill-rule:nonzero;stroke:none"
             id="path66046"
             inkscape:connector-curvature="0" /></g><g
           id="g66048"
           transform="translate(22.0103,73.1872)"><path
             d="m 0,0 -3.007,0 -2.26,-2.261 2.297,-2.297 2.97,0 c 0.707,0 1.28,0.573 1.28,1.28 l 0,1.998 C 1.28,-0.573 0.707,0 0,0"
             style="fill:#333333;fill-opacity:1;fill-rule:nonzero;stroke:none"
             id="path66050"
             inkscape:connector-curvature="0" /></g><g
           id="g66052"
           transform="translate(16.2904,70.4741)"><path
             d="m 0,0 -2.261,-2.261 0,-3.007 c 0,-0.707 0.573,-1.28 1.28,-1.28 l 1.997,0 c 0.707,0 1.28,0.573 1.28,1.28 l 0,2.972 L 0,0 z"
             style="fill:#333333;fill-opacity:1;fill-rule:nonzero;stroke:none"
             id="path66054"
             inkscape:connector-curvature="0" /></g><g
           id="g66056"
           transform="translate(19.5797,74.6888)"><path
             d="M 0,0 1.246,1.246 1.699,0.794 0.452,-0.452 0,0 z"
             style="fill:#333333;fill-opacity:1;fill-rule:nonzero;stroke:none"
             id="path66058"
             inkscape:connector-curvature="0" /></g><g
           id="g66060"
           transform="translate(11.8402,75.9351)"><path
             d="M 0,0 1.246,-1.246 0.794,-1.699 -0.452,-0.452 0,0 z"
             style="fill:#333333;fill-opacity:1;fill-rule:nonzero;stroke:none"
             id="path66062"
             inkscape:connector-curvature="0" /></g><g
           id="g66064"
           transform="translate(20.8259,66.0169)"><path
             d="M 0,0 -1.246,1.246 -0.794,1.699 0.452,0.453 0,0 z"
             style="fill:#333333;fill-opacity:1;fill-rule:nonzero;stroke:none"
             id="path66066"
             inkscape:connector-curvature="0" /></g><g
           id="g66068"
           transform="translate(13.0864,67.2631)"><path
             d="M 0,0 -1.246,-1.246 -1.699,-0.794 -0.452,0.452 0,0 z"
             style="fill:#333333;fill-opacity:1;fill-rule:nonzero;stroke:none"
             id="path66070"
             inkscape:connector-curvature="0" /></g><g
           id="g66072"
           transform="translate(93.4537,84.2309)"><path
             d="m 0,0 -0.277,0 -0.346,0.692 0,-0.692 -0.277,0 0,0.969 0.415,0 L 0,0 z M 0,1.35 C 0,1.264 -0.03,1.19 -0.091,1.13 -0.152,1.069 -0.214,1.039 -0.277,1.039 l -0.692,0 0,-1.039 -0.277,0 0,1.315 0.9,0 c 0.046,0 0.069,0.012 0.069,0.035 0,0.023 -0.023,0.035 -0.069,0.035 l -0.9,0 0,0.277 0.969,0 c 0.063,0 0.125,-0.031 0.186,-0.093 C -0.03,1.508 0,1.435 0,1.35 m 0.346,0 C 0.346,1.169 0.3,1.031 0.207,0.938 0.113,0.845 0.035,0.782 -0.03,0.75 L 0.346,0 0.069,0 l -0.484,0.969 0.138,0 c 0.082,0 0.16,0.038 0.234,0.112 0.075,0.075 0.112,0.164 0.112,0.269 0,0.103 -0.037,0.192 -0.112,0.268 -0.074,0.075 -0.152,0.113 -0.234,0.113 l -0.969,0 0,0.277 0.969,0 c 0.159,0 0.302,-0.065 0.43,-0.194 C 0.282,1.685 0.346,1.53 0.346,1.35"
             style="fill:#e6e6e6;fill-opacity:1;fill-rule:nonzero;stroke:none"
             id="path66074"
             inkscape:connector-curvature="0" /></g><g
           id="g66076"
           transform="translate(93.9384,85.6156)"><path
             d="m 0,0 c 0,0.415 0.208,0.623 0.623,0.623 l 0.831,0 0,-0.277 -0.831,0 C 0.392,0.346 0.277,0.231 0.277,0 l 0,-0.762 c 0,-0.23 0.115,-0.346 0.346,-0.346 l 0.831,0 0,-0.277 -0.831,0 C 0.208,-1.385 0,-1.177 0,-0.762 L 0,0 z"
             style="fill:#e6e6e6;fill-opacity:1;fill-rule:nonzero;stroke:none"
             id="path66078"
             inkscape:connector-curvature="0" /></g><g
           id="g66080"
           transform="translate(94.2845,85.2694)"><path
             d="m 0,0 0,0.346 c 0,0.185 0.092,0.277 0.277,0.277 l 0.831,0 0,-0.277 -0.762,0 C 0.3,0.346 0.277,0.323 0.277,0.277 L 0.9,0.277 0.9,0 0,0 z"
             style="fill:#e6e6e6;fill-opacity:1;fill-rule:nonzero;stroke:none"
             id="path66082"
             inkscape:connector-curvature="0" /></g><g
           id="g66084"
           transform="translate(94.2845,85.2002)"><path
             d="m 0,0 0.9,0 0,-0.277 -0.623,0 c 0,-0.046 0.023,-0.069 0.069,-0.069 l 0.762,0 0,-0.277 -0.831,0 C 0.092,-0.623 0,-0.531 0,-0.346 L 0,0 z"
             style="fill:#e6e6e6;fill-opacity:1;fill-rule:nonzero;stroke:none"
             id="path66086"
             inkscape:connector-curvature="0" /></g><g
           id="g66088"
           transform="translate(96.3616,85.8925)"><path
             d="m 0,0 0.762,0 0,-0.277 -0.485,0 0,-1.385 L 0,-1.662 0,0 z m -0.069,0 0,-1.662 -0.277,0 0,1.385 -0.485,0 0,0.277 0.762,0 z m 0.831,0.069 -1.592,0 0,0.277 1.592,0 0,-0.277 z"
             style="fill:#e6e6e6;fill-opacity:1;fill-rule:nonzero;stroke:none"
             id="path66090"
             inkscape:connector-curvature="0" /></g><g
           id="g66092"
           transform="translate(98.5079,84.2309)"><path
             d="m 0,0 -0.277,0 -0.346,0.692 0,-0.692 -0.277,0 0,0.969 0.415,0 L 0,0 z M 0,1.35 C 0,1.264 -0.03,1.19 -0.091,1.13 -0.152,1.069 -0.214,1.039 -0.277,1.039 l -0.692,0 0,-1.039 -0.277,0 0,1.315 0.9,0 c 0.046,0 0.069,0.012 0.069,0.035 0,0.023 -0.023,0.035 -0.069,0.035 l -0.9,0 0,0.277 0.969,0 c 0.063,0 0.125,-0.031 0.186,-0.093 C -0.03,1.508 0,1.435 0,1.35 m 0.346,0 C 0.346,1.169 0.3,1.031 0.207,0.938 0.113,0.845 0.035,0.782 -0.03,0.75 L 0.346,0 0.069,0 l -0.484,0.969 0.138,0 c 0.082,0 0.16,0.038 0.234,0.112 0.075,0.075 0.112,0.164 0.112,0.269 0,0.103 -0.037,0.192 -0.112,0.268 -0.074,0.075 -0.152,0.113 -0.234,0.113 l -0.969,0 0,0.277 0.969,0 c 0.159,0 0.302,-0.065 0.43,-0.194 C 0.282,1.685 0.346,1.53 0.346,1.35"
             style="fill:#e6e6e6;fill-opacity:1;fill-rule:nonzero;stroke:none"
             id="path66094"
             inkscape:connector-curvature="0" /></g><g
           id="g66096"
           transform="translate(99.8926,85.5464)"><path
             d="m 0,0 c 0,0.046 -0.023,0.069 -0.069,0.069 l -0.139,0 C -0.254,0.069 -0.277,0.046 -0.277,0 l 0,-0.623 c 0,-0.046 0.023,-0.069 0.069,-0.069 l 0.139,0 C -0.023,-0.692 0,-0.669 0,-0.623 L 0,0 z m 0.277,0.069 0,-0.761 C 0.277,-0.877 0.185,-0.969 0,-0.969 l -0.277,0 c -0.185,0 -0.277,0.092 -0.277,0.277 l 0,0.761 c 0,0.185 0.092,0.277 0.277,0.277 l 0.277,0 c 0.185,0 0.277,-0.092 0.277,-0.277 m 0.069,0 C 0.346,0.3 0.231,0.415 0,0.415 l -0.277,0 c -0.231,0 -0.346,-0.115 -0.346,-0.346 l 0,-0.761 c 0,-0.231 0.115,-0.347 0.346,-0.347 l 0.277,0 c 0.231,0 0.346,0.116 0.346,0.347 l 0,0.761 z m 0.277,0 0,-0.761 C 0.623,-1.108 0.415,-1.315 0,-1.315 l -0.277,0 c -0.415,0 -0.623,0.207 -0.623,0.623 l 0,0.761 c 0,0.416 0.208,0.623 0.623,0.623 l 0.277,0 c 0.415,0 0.623,-0.207 0.623,-0.623"
             style="fill:#e6e6e6;fill-opacity:1;fill-rule:nonzero;stroke:none"
             id="path66098"
             inkscape:connector-curvature="0" /></g><g
           id="g66100"
           transform="translate(88.425,84.6965)"><path
             d="M 0,0 C -0.002,0.006 -0.004,0.013 -0.006,0.019 L 0,0.019 0,0 z m 0.39,0.158 c -0.046,0 -0.069,0.023 -0.069,0.069 l 0,1.315 -0.623,0 0,-1.384 c 0,-0.416 0.207,-0.624 0.623,-0.624 l 0.831,0 0,0.624 -0.762,0 z"
             style="fill:#e6e6e6;fill-opacity:1;fill-rule:nonzero;stroke:none"
             id="path66102"
             inkscape:connector-curvature="0" /></g><path
           d="m 89.715,84.231 0.623,0 0,2.008 -0.623,0 0,-2.008 z"
           style="fill:#e6e6e6;fill-opacity:1;fill-rule:nonzero;stroke:none"
           id="path66104"
           inkscape:connector-curvature="0" /><g
           id="g66106"
           transform="translate(91.3767,85.5464)"><path
             d="m 0,0 -0.277,0 0,0.069 0.277,0 C 0.046,0.069 0.069,0.058 0.069,0.035 0.069,0.012 0.046,0 0,0 m 0,-0.692 -0.277,0 0,0.069 0.277,0 c 0.046,0 0.069,-0.012 0.069,-0.035 C 0.069,-0.681 0.046,-0.692 0,-0.692 M 0.692,0.035 C 0.692,0.215 0.628,0.369 0.5,0.498 0.371,0.628 0.228,0.692 0.069,0.692 l -0.969,0 0,-2.007 0.969,0 c 0.159,0 0.302,0.064 0.431,0.193 0.128,0.13 0.192,0.284 0.192,0.464 0,0.131 -0.031,0.246 -0.094,0.344 0.063,0.099 0.094,0.215 0.094,0.349"
             style="fill:#e6e6e6;fill-opacity:1;fill-rule:nonzero;stroke:none"
             id="path66108"
             inkscape:connector-curvature="0" /></g><g
           id="g66110"
           transform="translate(29.9766,85.4361)"><path
             d="m 0,0 -0.071,-0.568 0.203,0 c 0.077,0 0.148,0.028 0.21,0.083 0.063,0.055 0.099,0.122 0.109,0.201 0.01,0.078 -0.009,0.145 -0.058,0.2 C 0.344,-0.028 0.275,0 0.188,0 L 0,0 z m -0.623,-1.784 0.238,1.946 c 0.02,0.162 0.111,0.243 0.273,0.243 l 0.365,0 c 0.188,0 0.341,-0.068 0.46,-0.204 C 0.832,0.065 0.88,-0.096 0.857,-0.284 0.833,-0.473 0.731,-0.649 0.55,-0.811 0.658,-0.838 0.722,-0.946 0.743,-1.135 l 0.093,-0.649 -0.405,0 -0.084,0.649 c -0.04,0.108 -0.115,0.162 -0.223,0.162 l -0.243,0 -0.099,-0.811 -0.405,0 z"
             style="fill:#ffffff;fill-opacity:1;fill-rule:nonzero;stroke:none"
             id="path66112"
             inkscape:connector-curvature="0" /></g><g
           id="g66114"
           transform="translate(32.379,85.8415)"><path
             d="m 0,0 -0.051,-0.405 -0.73,0 -0.06,-0.487 0.729,0 -0.048,-0.406 -0.729,0 -0.061,-0.486 0.73,0 -0.049,-0.406 -0.892,0 c -0.162,0 -0.234,0.082 -0.215,0.244 l 0.21,1.703 C -1.145,-0.081 -1.054,0 -0.892,0 L 0,0 z"
             style="fill:#ffffff;fill-opacity:1;fill-rule:nonzero;stroke:none"
             id="path66116"
             inkscape:connector-curvature="0" /></g><g
           id="g66118"
           transform="translate(32.4905,85.4361)"><path
             d="m 0,0 0.051,0.405 1.216,0 L 1.216,0 0.811,0 0.593,-1.784 0.188,-1.784 0.405,0 0,0 z"
             style="fill:#ffffff;fill-opacity:1;fill-rule:nonzero;stroke:none"
             id="path66120"
             inkscape:connector-curvature="0" /></g><g
           id="g66122"
           transform="translate(34.1935,85.4361)"><path
             d="m 0,0 -0.071,-0.568 0.203,0 c 0.077,0 0.148,0.028 0.21,0.083 0.063,0.055 0.099,0.122 0.109,0.201 0.01,0.078 -0.009,0.145 -0.058,0.2 C 0.344,-0.028 0.275,0 0.188,0 L 0,0 z m -0.623,-1.784 0.238,1.946 c 0.02,0.162 0.111,0.243 0.274,0.243 l 0.364,0 c 0.188,0 0.341,-0.068 0.46,-0.204 C 0.832,0.065 0.88,-0.096 0.857,-0.284 0.833,-0.473 0.731,-0.649 0.55,-0.811 0.658,-0.838 0.722,-0.946 0.743,-1.135 l 0.093,-0.649 -0.405,0 -0.084,0.649 c -0.04,0.108 -0.115,0.162 -0.223,0.162 l -0.243,0 -0.099,-0.811 -0.405,0 z"
             style="fill:#ffffff;fill-opacity:1;fill-rule:nonzero;stroke:none"
             id="path66124"
             inkscape:connector-curvature="0" /></g><g
           id="g66126"
           transform="translate(35.5155,84.7468)"><path
             d="m 0,0 c -0.024,-0.189 0.016,-0.351 0.118,-0.487 0.102,-0.135 0.237,-0.202 0.404,-0.202 0.166,0 0.317,0.067 0.454,0.202 C 1.113,-0.351 1.193,-0.189 1.216,0 1.238,0.188 1.198,0.349 1.095,0.485 0.992,0.621 0.857,0.689 0.692,0.689 0.525,0.689 0.373,0.621 0.237,0.485 0.101,0.349 0.022,0.188 0,0 m -0.405,0 c 0.035,0.299 0.166,0.556 0.391,0.772 0.226,0.215 0.478,0.323 0.757,0.323 0.277,0 0.501,-0.108 0.674,-0.323 C 1.589,0.556 1.657,0.299 1.622,0 1.585,-0.301 1.453,-0.558 1.228,-0.773 1.002,-0.987 0.751,-1.095 0.474,-1.095 c -0.279,0 -0.504,0.108 -0.677,0.322 -0.172,0.215 -0.24,0.472 -0.202,0.773"
             style="fill:#ffffff;fill-opacity:1;fill-rule:nonzero;stroke:none"
             id="path66128"
             inkscape:connector-curvature="0" /></g><g
           id="g66130"
           transform="translate(31.8764,82.322)"><path
             d="M 0,0 C 0.039,0.311 0.171,0.578 0.397,0.801 0.622,1.024 0.874,1.135 1.153,1.135 1.43,1.135 1.631,1.071 1.756,0.943 1.881,0.814 1.969,0.699 2.02,0.598 L 1.673,0.405 C 1.622,0.493 1.556,0.569 1.474,0.634 1.392,0.698 1.268,0.73 1.102,0.73 0.935,0.73 0.783,0.658 0.646,0.514 0.509,0.371 0.429,0.199 0.405,0 0.38,-0.201 0.417,-0.381 0.517,-0.541 c 0.1,-0.16 0.233,-0.24 0.4,-0.24 0.166,0 0.302,0.055 0.408,0.163 0.107,0.108 0.173,0.206 0.198,0.294 l -0.509,0 0.131,0.405 0.73,0 C 1.983,0.081 2.027,0 2.007,-0.162 1.982,-0.367 1.855,-0.588 1.627,-0.827 1.399,-1.066 1.146,-1.186 0.869,-1.186 0.59,-1.186 0.366,-1.066 0.196,-0.827 0.027,-0.588 -0.039,-0.313 0,0"
             style="fill:#ffffff;fill-opacity:1;fill-rule:nonzero;stroke:none"
             id="path66132"
             inkscape:connector-curvature="0" /></g><g
           id="g66134"
           transform="translate(35.3255,83.3762)"><path
             d="m 0,0 -0.051,-0.405 -0.73,0 -0.06,-0.487 0.729,0 -0.048,-0.406 -0.73,0 -0.06,-0.486 0.73,0 -0.049,-0.406 -0.892,0 c -0.162,0 -0.234,0.082 -0.215,0.244 l 0.21,1.703 C -1.145,-0.081 -1.054,0 -0.892,0 L 0,0 z"
             style="fill:#ffffff;fill-opacity:1;fill-rule:nonzero;stroke:none"
             id="path66136"
             inkscape:connector-curvature="0" /></g><g
           id="g66138"
           transform="translate(36.2986,82.5652)"><path
             d="m 0,0 -0.274,-0.568 0.327,0 L 0,0 z m -1.08,-1.379 0.796,1.866 c 0.024,0.087 0.068,0.163 0.133,0.228 0.065,0.064 0.143,0.096 0.232,0.096 0.088,0 0.158,-0.032 0.21,-0.096 C 0.344,0.65 0.375,0.574 0.385,0.487 l 0.157,-1.866 -0.405,0 -0.048,0.406 -0.535,0 -0.167,-0.406 -0.467,0 z"
             style="fill:#ffffff;fill-opacity:1;fill-rule:nonzero;stroke:none"
             id="path66140"
             inkscape:connector-curvature="0" /></g><g
           id="g66142"
           transform="translate(37.6265,82.9707)"><path
             d="m 0,0 -0.071,-0.568 0.203,0 c 0.077,0 0.148,0.028 0.21,0.083 0.063,0.055 0.099,0.122 0.109,0.201 0.01,0.078 -0.009,0.145 -0.058,0.2 C 0.344,-0.028 0.275,0 0.188,0 L 0,0 z m -0.623,-1.784 0.238,1.946 c 0.02,0.162 0.111,0.243 0.274,0.243 l 0.364,0 c 0.188,0 0.341,-0.068 0.46,-0.204 C 0.832,0.065 0.88,-0.096 0.857,-0.284 0.833,-0.473 0.731,-0.649 0.55,-0.811 0.658,-0.838 0.722,-0.946 0.743,-1.135 l 0.093,-0.649 -0.405,0 -0.084,0.649 c -0.04,0.108 -0.115,0.162 -0.223,0.162 l -0.243,0 -0.099,-0.811 -0.405,0 z"
             style="fill:#ffffff;fill-opacity:1;fill-rule:nonzero;stroke:none"
             id="path66144"
             inkscape:connector-curvature="0" /></g><g
           id="g66146"
           transform="translate(31.8343,87.6949)"><path
             d="M 0,0 C 0.591,1.023 0.713,2.059 0.273,2.313 -0.168,2.567 -1.004,1.944 -1.594,0.921 -2.185,-0.103 -2.307,-1.138 -1.867,-1.392 -1.427,-1.647 -0.591,-1.023 0,0"
             style="fill:#296ff7;fill-opacity:1;fill-rule:nonzero;stroke:none"
             id="path66148"
             inkscape:connector-curvature="0" /></g><g
           id="g66150"
           transform="translate(34.2311,87.6949)"><path
             d="M 0,0 C 0.591,1.023 0.713,2.059 0.272,2.313 -0.168,2.567 -1.004,1.944 -1.594,0.921 -2.185,-0.103 -2.307,-1.138 -1.867,-1.392 -1.427,-1.647 -0.591,-1.023 0,0"
             style="fill:#4adf56;fill-opacity:1;fill-rule:nonzero;stroke:none"
             id="path66152"
             inkscape:connector-curvature="0" /></g><g
           id="g66154"
           transform="translate(36.6279,87.6949)"><path
             d="M 0,0 C 0.591,1.023 0.713,2.059 0.272,2.313 -0.168,2.567 -1.004,1.944 -1.594,0.921 -2.185,-0.103 -2.307,-1.138 -1.867,-1.392 -1.427,-1.647 -0.591,-1.023 0,0"
             style="fill:#f61800;fill-opacity:1;fill-rule:nonzero;stroke:none"
             id="path66156"
             inkscape:connector-curvature="0" /></g><g
           id="g66158"
           transform="translate(24.6705,70.111)"><path
             d="M 0,0 C 0,0 0.48,-10.708 -11.36,-16.948 -10.39,-16.41 1.12,-16.172 0,0"
             style="fill:#404040;fill-opacity:1;fill-rule:nonzero;stroke:none"
             id="path66160"
             inkscape:connector-curvature="0" /></g></g></g></g></svg>