<?xml version="1.0" encoding="UTF-8" standalone="no"?>
<!-- Created with Inkscape (http://www.inkscape.org/) -->

<svg
   xmlns:dc="http://purl.org/dc/elements/1.1/"
   xmlns:cc="http://creativecommons.org/ns#"
   xmlns:rdf="http://www.w3.org/1999/02/22-rdf-syntax-ns#"
   xmlns:svg="http://www.w3.org/2000/svg"
   xmlns="http://www.w3.org/2000/svg"
   xmlns:sodipodi="http://sodipodi.sourceforge.net/DTD/sodipodi-0.dtd"
   xmlns:inkscape="http://www.inkscape.org/namespaces/inkscape"
   id="svg64736"
   version="1.1"
   inkscape:version="0.48.5 r10040"
   width="256"
   height="256"
   xml:space="preserve"
   sodipodi:docname="Sega - Dreamcast-content.svg"
   inkscape:export-filename="/Users/margetts/Desktop/BAXY RetroActive/png_marked/Sega - Dreamcast-content.png"
   inkscape:export-xdpi="90.099998"
   inkscape:export-ydpi="90.099998"><metadata
     id="metadata64742"><rdf:RDF><cc:Work
         rdf:about=""><dc:format>image/svg+xml</dc:format><dc:type
           rdf:resource="http://purl.org/dc/dcmitype/StillImage" /><dc:title></dc:title></cc:Work></rdf:RDF></metadata><defs
     id="defs64740"><clipPath
       clipPathUnits="userSpaceOnUse"
       id="clipPath64750"><path
         d="M 0,128 128,128 128,0 0,0 0,128 z"
         id="path64752"
         inkscape:connector-curvature="0" /></clipPath></defs><sodipodi:namedview
     pagecolor="#ffffff"
     bordercolor="#666666"
     borderopacity="1"
     objecttolerance="10"
     gridtolerance="10"
     guidetolerance="10"
     inkscape:pageopacity="0"
     inkscape:pageshadow="2"
     inkscape:window-width="1676"
     inkscape:window-height="1005"
     id="namedview64738"
     showgrid="false"
     inkscape:zoom="5.23125"
     inkscape:cx="56.009558"
     inkscape:cy="80"
     inkscape:window-x="4"
     inkscape:window-y="1"
     inkscape:window-maximized="1"
     inkscape:current-layer="g64744" /><g
     id="g64744"
     inkscape:groupmode="layer"
     inkscape:label="Sega - Dreamcast-content"
     transform="matrix(1.25,0,0,-1.25,0,256)"><g
       id="g64746"
       transform="matrix(1.6,0,0,1.6,0,4e-4)"><g
         id="g64748"
         clip-path="url(#clipPath64750)"><g
           id="g64754"
           transform="translate(64,40.7715)"><path
             d="m 0,0 c -12.81,0 -23.228,10.421 -23.228,23.228 0,12.808 10.418,23.229 23.228,23.229 12.808,0 23.226,-10.421 23.226,-23.229 C 23.226,10.421 12.808,0 0,0 m 0,87.228 c -35.29,0 -64,-28.71 -64,-64 0,-35.289 28.71,-64 64,-64 35.29,0 64,28.711 64,64 0,35.29 -28.71,64 -64,64"
             style="fill:#ffffff;fill-opacity:1;fill-rule:nonzero;stroke:none"
             id="path64756"
             inkscape:connector-curvature="0" /></g><g
           id="g64758"
           transform="translate(64,41.4975)"><path
             d="M 0,0 C -12.41,0 -22.503,10.095 -22.503,22.503 -22.503,34.91 -12.41,45.005 0,45.005 12.407,45.005 22.5,34.91 22.5,22.503 22.5,10.095 12.407,0 0,0 m 0,82.503 c -33.14,0 -60,-26.863 -60,-60 0,-33.138 26.86,-60 60,-60 33.13,0 60,26.862 60,60 0,33.137 -26.87,60 -60,60"
             style="fill:#c8c7c7;fill-opacity:1;fill-rule:nonzero;stroke:none"
             id="path64760"
             inkscape:connector-curvature="0" /></g><g
           id="g64762"
           transform="translate(64.0013,56.5)"><path
             d="m 0,0 c -4.135,0 -7.505,3.363 -7.505,7.5 0,4.14 3.37,7.505 7.505,7.505 4.137,0 7.5,-3.365 7.5,-7.505 C 7.5,3.363 4.137,0 0,0 m 0,25.002 c -9.65,0 -17.502,-7.857 -17.502,-17.502 0,-9.645 7.852,-17.502 17.502,-17.502 9.64,0 17.5,7.857 17.5,17.502 0,9.645 -7.86,17.502 -17.5,17.502"
             style="fill:#d02d23;fill-opacity:1;fill-rule:nonzero;stroke:none"
             id="path64764"
             inkscape:connector-curvature="0" /></g><g
           id="g64766"
           transform="translate(81.5012,6.6014)"><path
             d="m 0,0 0,42.899 -0.314,0 c -4.13,-4.89 -10.3,-8.003 -17.187,-8.003 -6.888,0 -13.059,3.113 -17.19,8.003 l -0.311,0 0,-42.9 c 5.537,-1.686 11.411,-2.6 17.501,-2.6 6.089,0 11.963,0.914 17.501,2.601"
             style="fill:#d02d23;fill-opacity:1;fill-rule:nonzero;stroke:none"
             id="path64768"
             inkscape:connector-curvature="0" /></g><g
           id="g64770"
           transform="translate(51.3552,28.9021)"><path
             d="m 0,0 c -0.224,0 -0.362,-0.007 -0.571,-0.101 l 0,-1.867 c 0.101,-0.014 0.296,-0.021 0.47,-0.014 0.745,0.058 1.193,0.448 1.15,1.049 C 1.02,-0.499 0.875,-0.036 0,0 m 1.83,-5.093 -2.17,2.822 c -0.058,0.072 -0.08,0.123 -0.145,0.173 -0.029,0.029 -0.057,0.044 -0.094,0.065 l 0,-2.481 c 0,-0.116 -0.007,-0.181 0.022,-0.297 0.015,-0.101 0.043,-0.159 0.08,-0.26 l -0.796,0 c 0.043,0.087 0.079,0.138 0.087,0.224 0.021,0.109 0.021,0.347 0.021,0.55 l 0,3.878 c 0,0.202 -0.007,0.318 -0.043,0.52 -0.022,0.095 -0.058,0.145 -0.101,0.225 l 1.627,0 c 0.709,0 1.346,-0.471 1.324,-1.245 C 1.628,-1.671 0.969,-2.315 0.174,-2.192 0.217,-2.228 0.239,-2.257 0.282,-2.293 0.434,-2.438 0.521,-2.532 0.658,-2.705 L 1.946,-4.34 C 2.112,-4.557 2.242,-4.731 2.409,-4.876 2.51,-4.963 2.575,-5.013 2.684,-5.093 l -0.854,0 z"
             style="fill:#c8c7c7;fill-opacity:1;fill-rule:nonzero;stroke:none"
             id="path64772"
             inkscape:connector-curvature="0" /></g><g
           id="g64774"
           transform="translate(56.0524,26.9924)"><path
             d="m 0,0 c -0.499,0.007 -0.912,-0.318 -1.013,-0.803 l 1.982,0 C 0.875,-0.326 0.557,0 0,0 m -1.1,-1.157 -0.014,-0.232 c -0.051,-0.818 0.412,-1.49 1.353,-1.49 0.477,0 0.803,0.029 1.179,0.325 L 1.324,-3.002 C 0.897,-3.234 0.571,-3.248 0.087,-3.226 c -1.064,0.043 -1.729,0.629 -1.744,1.866 -0.007,0.911 0.702,1.743 1.643,1.722 0.889,-0.015 1.468,-0.688 1.49,-1.519 l -2.576,0 z"
             style="fill:#c8c7c7;fill-opacity:1;fill-rule:nonzero;stroke:none"
             id="path64776"
             inkscape:connector-curvature="0" /></g><g
           id="g64778"
           transform="translate(59.2011,23.8311)"><path
             d="m 0,0 c -0.297,0 -0.499,0.108 -0.651,0.376 -0.13,0.217 -0.13,0.456 -0.13,0.753 l 0,2.025 -0.47,0 0,0.347 0.47,0 0,0.405 c 0,0.073 0,0.123 -0.029,0.181 -0.036,0.058 -0.065,0.087 -0.116,0.116 l 0.68,0.347 0,-1.034 0.803,0 0,-0.362 -0.81,0 0,-2.047 c 0,-0.239 0.007,-0.492 0.13,-0.608 C -0.014,0.383 0.101,0.34 0.253,0.34 l 0.319,0 L 0.572,0 0,0 z"
             style="fill:#c8c7c7;fill-opacity:1;fill-rule:nonzero;stroke:none"
             id="path64780"
             inkscape:connector-curvature="0" /></g><g
           id="g64782"
           transform="translate(61.3944,26.8911)"><path
             d="m 0,0 c -0.268,-0.152 -0.449,-0.514 -0.449,-0.904 l 0,-1.541 c 0,-0.145 0.015,-0.224 0.051,-0.355 0.029,-0.108 0.058,-0.173 0.123,-0.274 l -0.832,0 c 0.043,0.072 0.08,0.115 0.094,0.188 0.036,0.123 0.029,0.209 0.029,0.34 l 0,2.474 c 0,0.094 -0.007,0.166 -0.043,0.253 -0.037,0.101 -0.08,0.159 -0.145,0.239 l 0.702,0.079 0,-0.521 c 0.108,0.217 0.231,0.333 0.441,0.456 0.195,0.109 0.398,0.145 0.651,0.101 l 0,-0.477 C 0.391,0.13 0.21,0.116 0,0"
             style="fill:#c8c7c7;fill-opacity:1;fill-rule:nonzero;stroke:none"
             id="path64784"
             inkscape:connector-curvature="0" /></g><g
           id="g64786"
           transform="translate(64.2674,26.9924)"><path
             d="m 0,0 c -0.774,0.022 -1.295,-0.687 -1.288,-1.44 0.007,-0.738 0.535,-1.403 1.273,-1.403 0.724,0 1.266,0.651 1.281,1.382 C 1.288,-0.716 0.752,-0.036 0,0 m -0.044,-3.212 c -0.976,0.014 -1.786,0.825 -1.786,1.801 0,0.999 0.846,1.809 1.844,1.794 C 1.005,0.362 1.823,-0.456 1.801,-1.454 1.787,-2.438 0.969,-3.226 -0.044,-3.212"
             style="fill:#c8c7c7;fill-opacity:1;fill-rule:nonzero;stroke:none"
             id="path64788"
             inkscape:connector-curvature="0" /></g><g
           id="g64790"
           transform="translate(69.478,23.9395)"><path
             d="M 0,0 C -0.362,-0.145 -0.615,-0.137 -1.013,-0.152 -2.17,-0.195 -2.988,0.579 -3.002,1.606 -3.024,2.669 -2.156,3.451 -1.056,3.422 -0.673,3.415 -0.434,3.415 -0.08,3.27 l 0,-0.485 C -0.325,2.973 -0.709,3.082 -1.049,3.075 -1.888,3.06 -2.467,2.416 -2.467,1.628 -2.481,0.796 -1.823,0.145 -1.013,0.159 -0.571,0.174 -0.152,0.297 0.08,0.463 L 0,0 z"
             style="fill:#c8c7c7;fill-opacity:1;fill-rule:nonzero;stroke:none"
             id="path64792"
             inkscape:connector-curvature="0" /></g><g
           id="g64794"
           transform="translate(72.1999,25.7048)"><path
             d="m 0,0 -0.463,-0.116 -0.658,-0.123 c -0.362,-0.065 -0.608,-0.296 -0.63,-0.636 -0.036,-0.42 0.348,-0.738 0.789,-0.731 C -0.485,-1.599 0,-1.309 0,-0.832 L 0,0 z m -0.014,-1.888 0,0.325 c -0.304,-0.289 -0.615,-0.361 -1.035,-0.368 -0.622,-0.008 -1.215,0.368 -1.179,1.07 0.022,0.622 0.347,0.861 0.955,0.955 l 0.723,0.123 c 0.268,0.043 0.521,0.116 0.521,0.485 0,0.347 -0.362,0.622 -0.868,0.622 -0.362,0 -0.767,-0.051 -1.034,-0.282 l 0,0.412 c 0.354,0.217 0.708,0.232 1.049,0.232 0.991,-0.037 1.359,-0.42 1.359,-1.158 l 0,-1.888 c 0,-0.101 0.008,-0.166 0.037,-0.26 0.021,-0.102 0.043,-0.16 0.094,-0.254 l -0.622,-0.014 z"
             style="fill:#c8c7c7;fill-opacity:1;fill-rule:nonzero;stroke:none"
             id="path64796"
             inkscape:connector-curvature="0" /></g><g
           id="g64798"
           transform="translate(74.3864,23.7442)"><path
             d="M 0,0 C -0.362,0.007 -0.694,0.029 -0.919,0.138 L -1.013,0.68 c 0.167,-0.188 0.55,-0.333 0.977,-0.34 0.412,0 0.825,0.174 0.817,0.673 C 0.767,1.309 0.586,1.512 0.311,1.62 l -0.449,0.189 c -0.441,0.173 -0.774,0.484 -0.766,0.962 0.014,0.593 0.622,0.904 1.229,0.911 0.326,0 0.536,-0.021 0.818,-0.173 l 0,-0.442 C 0.948,3.263 0.607,3.32 0.333,3.32 c -0.362,0 -0.666,-0.209 -0.666,-0.542 0,-0.26 0.174,-0.434 0.42,-0.535 L 0.528,2.062 C 1.15,1.809 1.309,1.541 1.324,1.064 1.345,0.268 0.557,-0.014 0,0"
             style="fill:#c8c7c7;fill-opacity:1;fill-rule:nonzero;stroke:none"
             id="path64800"
             inkscape:connector-curvature="0" /></g><g
           id="g64802"
           transform="translate(77.3828,23.8311)"><path
             d="m 0,0 c -0.296,0 -0.499,0.108 -0.651,0.376 -0.13,0.217 -0.13,0.456 -0.13,0.753 l 0,2.025 -0.471,0 0,0.347 0.471,0 0,0.405 c 0,0.073 0,0.123 -0.029,0.181 -0.036,0.058 -0.065,0.087 -0.116,0.116 l 0.68,0.347 0,-1.034 0.803,0 0,-0.362 -0.81,0 0,-2.047 c 0,-0.239 0.007,-0.492 0.13,-0.608 C -0.014,0.383 0.101,0.34 0.253,0.34 l 0.318,0 L 0.571,0 0,0 z"
             style="fill:#c8c7c7;fill-opacity:1;fill-rule:nonzero;stroke:none"
             id="path64804"
             inkscape:connector-curvature="0" /></g><g
           id="g64806"
           transform="translate(58.4545,33.9391)"><path
             d="m 0,0 c 0,-0.6 0.105,-1.198 0.317,-1.771 0.458,-1.239 1.42,-2.268 2.638,-2.823 1.177,-0.537 2.473,-0.587 3.648,-0.143 1.122,0.423 2.049,1.302 2.543,2.41 0.476,1.065 0.512,2.233 0.102,3.289 C 8.859,1.966 8.063,2.79 7.065,3.224 6.111,3.638 5.071,3.659 4.135,3.284 3.249,2.928 2.528,2.215 2.155,1.327 1.803,0.485 1.797,-0.428 2.138,-1.244 2.46,-2.013 3.092,-2.632 3.871,-2.942 c 0.73,-0.29 1.515,-0.28 2.211,0.028 0.652,0.289 1.167,0.84 1.414,1.511 0.228,0.62 0.201,1.277 -0.075,1.851 C 7.163,0.985 6.69,1.396 6.125,1.578 5.617,1.741 5.087,1.695 4.635,1.448 4.218,1.221 3.904,0.813 3.794,0.357 3.699,-0.044 3.768,-0.445 3.992,-0.773 4.2,-1.078 4.566,-1.288 4.924,-1.309 5.222,-1.326 5.491,-1.214 5.682,-0.993 5.83,-0.822 5.811,-0.564 5.641,-0.416 5.47,-0.269 5.212,-0.287 5.064,-0.458 5.047,-0.477 5.027,-0.496 4.971,-0.493 4.866,-0.487 4.732,-0.408 4.668,-0.313 4.549,-0.14 4.56,0.043 4.589,0.165 4.645,0.397 4.812,0.614 5.026,0.731 5.352,0.909 5.668,0.867 5.875,0.8 6.223,0.688 6.525,0.424 6.684,0.094 6.864,-0.279 6.88,-0.711 6.729,-1.12 6.558,-1.585 6.201,-1.967 5.751,-2.167 5.258,-2.385 4.697,-2.391 4.173,-2.182 3.597,-1.953 3.13,-1.496 2.892,-0.928 2.636,-0.316 2.642,0.373 2.909,1.011 3.197,1.699 3.755,2.251 4.44,2.525 5.171,2.818 5.988,2.8 6.739,2.474 7.538,2.127 8.175,1.468 8.486,0.666 8.816,-0.184 8.785,-1.129 8.4,-1.994 7.993,-2.904 7.234,-3.626 6.315,-3.973 5.344,-4.339 4.271,-4.296 3.294,-3.85 2.272,-3.385 1.467,-2.523 1.084,-1.487 0.681,-0.398 0.737,0.803 1.243,1.894 1.767,3.026 2.73,3.916 3.884,4.335 5.093,4.774 6.422,4.705 7.625,4.139 8.868,3.555 9.842,2.491 10.297,1.219 10.373,1.007 10.607,0.896 10.82,0.972 11.032,1.048 11.144,1.283 11.067,1.495 10.539,2.969 9.411,4.203 7.973,4.879 6.571,5.538 5.02,5.617 3.605,5.103 2.248,4.61 1.117,3.566 0.501,2.238 0.168,1.518 0,0.757 0,0"
             style="fill:#c8c7c7;fill-opacity:1;fill-rule:nonzero;stroke:none"
             id="path64808"
             inkscape:connector-curvature="0" /></g><g
           id="g64810"
           transform="translate(62.5261,9.3841)"><path
             d="m 0,0 -0.471,0 -0.589,1.178 0,-1.178 -0.471,0 0,1.649 0.706,0 L 0,0 z M 0,2.297 C 0,2.151 -0.052,2.026 -0.155,1.922 -0.259,1.819 -0.364,1.767 -0.471,1.767 l -1.178,0 0,-1.767 -0.471,0 0,2.238 1.531,0 c 0.079,0 0.118,0.02 0.118,0.059 0,0.039 -0.039,0.059 -0.118,0.059 l -1.531,0 0,0.471 1.649,0 c 0.107,0 0.212,-0.052 0.316,-0.157 C -0.052,2.565 0,2.441 0,2.297 m 0.589,0 C 0.589,1.988 0.51,1.755 0.351,1.596 0.193,1.438 0.059,1.331 -0.051,1.276 L 0.589,0 0.118,0 l -0.825,1.649 0.236,0 c 0.139,0 0.271,0.064 0.398,0.191 0.127,0.127 0.191,0.279 0.191,0.457 0,0.176 -0.064,0.327 -0.191,0.456 -0.127,0.128 -0.259,0.192 -0.398,0.192 l -1.649,0 0,0.471 1.649,0 c 0.269,0 0.514,-0.11 0.732,-0.33 C 0.48,2.867 0.589,2.603 0.589,2.297"
             style="fill:#c8c7c7;fill-opacity:1;fill-rule:nonzero;stroke:none"
             id="path64812"
             inkscape:connector-curvature="0" /></g><g
           id="g64814"
           transform="translate(63.3507,11.7402)"><path
             d="m 0,0 c 0,0.707 0.353,1.06 1.06,1.06 l 1.414,0 0,-0.471 -1.414,0 C 0.668,0.589 0.471,0.393 0.471,0 l 0,-1.296 c 0,-0.393 0.197,-0.589 0.589,-0.589 l 1.414,0 0,-0.471 -1.414,0 C 0.353,-2.356 0,-2.003 0,-1.296 L 0,0 z"
             style="fill:#c8c7c7;fill-opacity:1;fill-rule:nonzero;stroke:none"
             id="path64816"
             inkscape:connector-curvature="0" /></g><g
           id="g64818"
           transform="translate(63.9397,11.1512)"><path
             d="M 0,0 0,0.589 C 0,0.903 0.157,1.06 0.471,1.06 l 1.414,0 0,-0.471 -1.296,0 C 0.51,0.589 0.471,0.55 0.471,0.471 l 1.06,0 L 1.531,0 0,0 z"
             style="fill:#c8c7c7;fill-opacity:1;fill-rule:nonzero;stroke:none"
             id="path64820"
             inkscape:connector-curvature="0" /></g><g
           id="g64822"
           transform="translate(63.9397,11.0334)"><path
             d="m 0,0 1.531,0 0,-0.471 -1.06,0 c 0,-0.079 0.039,-0.118 0.118,-0.118 l 1.296,0 0,-0.471 -1.414,0 C 0.157,-1.06 0,-0.903 0,-0.589 L 0,0 z"
             style="fill:#c8c7c7;fill-opacity:1;fill-rule:nonzero;stroke:none"
             id="path64824"
             inkscape:connector-curvature="0" /></g><g
           id="g64826"
           transform="translate(67.4738,12.2114)"><path
             d="m 0,0 1.296,0 0,-0.471 -0.825,0 0,-2.356 L 0,-2.827 0,0 z m -0.118,0 0,-2.827 -0.471,0 0,2.356 -0.825,0 0,0.471 1.296,0 z m 1.414,0.118 -2.709,0 0,0.471 2.709,0 0,-0.471 z"
             style="fill:#c8c7c7;fill-opacity:1;fill-rule:nonzero;stroke:none"
             id="path64828"
             inkscape:connector-curvature="0" /></g><g
           id="g64830"
           transform="translate(71.1257,9.3841)"><path
             d="m 0,0 -0.471,0 -0.589,1.178 0,-1.178 -0.471,0 0,1.649 0.706,0 L 0,0 z M 0,2.297 C 0,2.151 -0.052,2.026 -0.155,1.922 -0.259,1.819 -0.364,1.767 -0.471,1.767 l -1.178,0 0,-1.767 -0.471,0 0,2.238 1.531,0 c 0.079,0 0.118,0.02 0.118,0.059 0,0.039 -0.039,0.059 -0.118,0.059 l -1.531,0 0,0.471 1.649,0 c 0.107,0 0.212,-0.052 0.316,-0.157 C -0.052,2.565 0,2.441 0,2.297 m 0.589,0 C 0.589,1.988 0.51,1.755 0.351,1.596 0.193,1.438 0.059,1.331 -0.051,1.276 L 0.589,0 0.118,0 l -0.825,1.649 0.236,0 c 0.139,0 0.271,0.064 0.398,0.191 0.127,0.127 0.191,0.279 0.191,0.457 0,0.176 -0.064,0.327 -0.191,0.456 -0.127,0.128 -0.259,0.192 -0.398,0.192 l -1.649,0 0,0.471 1.649,0 c 0.269,0 0.514,-0.11 0.732,-0.33 C 0.48,2.867 0.589,2.603 0.589,2.297"
             style="fill:#c8c7c7;fill-opacity:1;fill-rule:nonzero;stroke:none"
             id="path64832"
             inkscape:connector-curvature="0" /></g><g
           id="g64834"
           transform="translate(73.4818,11.6224)"><path
             d="m 0,0 c 0,0.079 -0.039,0.118 -0.118,0.118 l -0.235,0 C -0.432,0.118 -0.471,0.079 -0.471,0 l 0,-1.06 c 0,-0.079 0.039,-0.118 0.118,-0.118 l 0.235,0 C -0.039,-1.178 0,-1.139 0,-1.06 L 0,0 z m 0.471,0.118 0,-1.296 C 0.471,-1.492 0.314,-1.649 0,-1.649 l -0.471,0 c -0.314,0 -0.471,0.157 -0.471,0.471 l 0,1.296 c 0,0.314 0.157,0.471 0.471,0.471 l 0.471,0 c 0.314,0 0.471,-0.157 0.471,-0.471 m 0.118,0 C 0.589,0.51 0.393,0.707 0,0.707 l -0.471,0 C -0.864,0.707 -1.06,0.51 -1.06,0.118 l 0,-1.296 c 0,-0.393 0.196,-0.589 0.589,-0.589 l 0.471,0 c 0.393,0 0.589,0.196 0.589,0.589 l 0,1.296 z m 0.471,0 0,-1.296 c 0,-0.707 -0.353,-1.06 -1.06,-1.06 l -0.471,0 c -0.707,0 -1.06,0.353 -1.06,1.06 l 0,1.296 c 0,0.707 0.353,1.06 1.06,1.06 l 0.471,0 c 0.707,0 1.06,-0.353 1.06,-1.06"
             style="fill:#c8c7c7;fill-opacity:1;fill-rule:nonzero;stroke:none"
             id="path64836"
             inkscape:connector-curvature="0" /></g><g
           id="g64838"
           transform="translate(53.9696,10.1763)"><path
             d="M 0,0 C -0.004,0.01 -0.006,0.022 -0.009,0.032 L 0,0.032 0,0 z m 0.664,0.268 c -0.079,0 -0.118,0.039 -0.118,0.118 l 0,2.238 -1.06,0 0,-2.356 c 0,-0.707 0.353,-1.06 1.06,-1.06 l 1.414,0 0,1.06 -1.296,0 z"
             style="fill:#c8c7c7;fill-opacity:1;fill-rule:nonzero;stroke:none"
             id="path64840"
             inkscape:connector-curvature="0" /></g><path
           d="m 56.165,9.384 1.06,0 0,3.416 -1.06,0 0,-3.416 z"
           style="fill:#c8c7c7;fill-opacity:1;fill-rule:nonzero;stroke:none"
           id="path64842"
           inkscape:connector-curvature="0" /><g
           id="g64844"
           transform="translate(58.992,11.6224)"><path
             d="m 0,0 -0.471,0 0,0.118 0.471,0 c 0.079,0 0.118,-0.02 0.118,-0.059 C 0.118,0.02 0.079,0 0,0 m 0,-1.178 -0.471,0 0,0.118 0.471,0 c 0.079,0 0.118,-0.02 0.118,-0.059 0,-0.039 -0.039,-0.059 -0.118,-0.059 m 1.178,1.237 c 0,0.306 -0.109,0.569 -0.328,0.789 -0.218,0.22 -0.463,0.33 -0.732,0.33 l -1.649,0 0,-3.416 1.649,0 c 0.269,0 0.514,0.11 0.732,0.33 0.219,0.219 0.328,0.483 0.328,0.789 0,0.222 -0.054,0.417 -0.161,0.585 0.107,0.167 0.161,0.365 0.161,0.593"
             style="fill:#c8c7c7;fill-opacity:1;fill-rule:nonzero;stroke:none"
             id="path64846"
             inkscape:connector-curvature="0" /></g><g
           id="g64848"
           transform="translate(109.7405,61.3518)"><path
             d="m 0,0 -0.742,3.326 -3.415,2.613 -3.89,-0.208 -2.673,-2.761 0,-3.415 2.999,-2.584 1.901,0 1.9,0.802 1.188,2.197 -0.653,2.613 -1.782,1.129 -1.633,-0.03 -1.455,-1.366 -0.06,-1.692 1.693,-1.426 c 0,0 1.188,0.089 1.188,0.178 0,0.089 0.208,0.862 0.074,0.862 -0.134,0 -0.876,0.207 -0.876,0.207 l -0.921,0.743 0.386,1.217 1.337,0.208 1.425,-1.158 0,-1.752 -0.772,-1.336 -2.524,-0.386 -2.227,1.989 0,3 2.286,2.049 3.148,-0.208 2.524,-2.376 0.149,-3.593 -2.257,-2.851 -3.178,-0.713 -4.187,1.812 -1.633,2.91 0.713,4.276 3.801,3.326 4.335,0.297 3.059,-1.366 1.9,-2.494 L 1.811,0.505 0,0 z"
             style="fill:#d02d23;fill-opacity:1;fill-rule:nonzero;stroke:none"
             id="path64850"
             inkscape:connector-curvature="0" /></g><g
           id="g64852"
           transform="translate(98.1183,55.5174)"><path
             d="m 0,0 c -0.083,0.162 -0.267,0.177 -0.432,0.177 l -0.534,0 0,-0.823 0.376,0 c 0.225,0 0.646,0.019 0.646,0.432 C 0.056,-0.135 0.034,-0.064 0,0 m 0.068,-1.766 c -0.143,0.259 -0.466,0.733 -0.609,0.913 l -0.425,0 0,-0.706 0.297,0 0,-0.207 -0.796,0 0,0.207 0.296,0 0,1.736 -0.296,0 0,0.206 1.1,0 c 0.448,0 0.624,-0.266 0.624,-0.589 0,-0.44 -0.33,-0.598 -0.575,-0.639 0.147,-0.184 0.365,-0.508 0.489,-0.714 l 0.379,0 0,-0.207 -0.484,0 z"
             style="fill:#d02d23;fill-opacity:1;fill-rule:nonzero;stroke:none"
             id="path64854"
             inkscape:connector-curvature="0" /></g><g
           id="g64856"
           transform="translate(99.8815,55.2207)"><path
             d="m 0,0 c -0.425,0 -0.646,-0.252 -0.676,-0.473 l 1.311,0 C 0.635,-0.379 0.519,0 0,0 m 0.019,-1.514 c -0.658,0 -0.917,0.417 -0.917,0.86 0,0.519 0.398,0.864 0.898,0.864 0.605,0 0.857,-0.417 0.857,-0.89 l -1.541,0 0,-0.03 c 0,-0.199 0.113,-0.402 0.248,-0.489 0.143,-0.09 0.312,-0.112 0.489,-0.112 0.176,0 0.469,0.067 0.762,0.233 l 0.064,-0.2 C 0.635,-1.413 0.323,-1.514 0.019,-1.514"
             style="fill:#d02d23;fill-opacity:1;fill-rule:nonzero;stroke:none"
             id="path64858"
             inkscape:connector-curvature="0" /></g><path
           d="m 101.987,56.209 0.267,0 0,-0.462 -0.267,0 0,0.462 z m -0.601,-2.457 0,0.206 0.661,0 0,1.218 -0.571,0 0,0.206 0.778,0 0,-1.424 0.65,0 0,-0.206 -1.518,0 z"
           style="fill:#d02d23;fill-opacity:1;fill-rule:nonzero;stroke:none"
           id="path64860"
           inkscape:connector-curvature="0" /><g
           id="g64862"
           transform="translate(104.419,53.7066)"><path
             d="m 0,0 c -0.473,0 -0.89,0.327 -0.89,0.883 0,0.342 0.259,0.842 0.909,0.842 0.218,0 0.398,-0.064 0.571,-0.181 l 0,0.181 0.207,0 0,-0.658 -0.207,0 0,0.259 C 0.428,1.461 0.229,1.514 0.015,1.514 c -0.428,0 -0.699,-0.308 -0.699,-0.642 0,-0.245 0.162,-0.669 0.748,-0.669 0.304,0 0.597,0.218 0.691,0.3 L 0.838,0.297 C 0.616,0.124 0.349,0 0,0"
             style="fill:#d02d23;fill-opacity:1;fill-rule:nonzero;stroke:none"
             id="path64864"
             inkscape:connector-curvature="0" /></g><g
           id="g64866"
           transform="translate(107.0765,54.5029)"><path
             d="m 0,0 c -0.158,0.026 -0.316,0.049 -0.481,0.049 -0.176,0 -0.379,-0.008 -0.518,-0.105 -0.076,-0.053 -0.136,-0.136 -0.136,-0.237 0,-0.143 0.162,-0.297 0.391,-0.297 0.304,0 0.556,0.177 0.744,0.402 L 0,0 z m 0.004,-0.751 0,0.315 c -0.207,-0.199 -0.466,-0.36 -0.752,-0.36 -0.383,0 -0.597,0.262 -0.597,0.507 0,0.221 0.199,0.548 0.815,0.548 0.181,0 0.365,-0.026 0.53,-0.052 L 0,0.323 C 0,0.447 -0.026,0.579 -0.124,0.639 -0.233,0.706 -0.357,0.718 -0.485,0.718 -0.74,0.718 -1.011,0.616 -1.127,0.56 L -1.18,0.763 c 0.218,0.09 0.477,0.165 0.733,0.165 0.319,0 0.507,-0.113 0.586,-0.259 C 0.195,0.568 0.203,0.462 0.203,0.361 l 0,-0.906 0.308,0 0,-0.206 -0.507,0 z"
             style="fill:#d02d23;fill-opacity:1;fill-rule:nonzero;stroke:none"
             id="path64868"
             inkscape:connector-curvature="0" /></g><g
           id="g64870"
           transform="translate(108.994,53.7066)"><path
             d="m 0,0 c -0.301,0 -0.485,0.083 -0.669,0.169 l 0,-0.169 -0.206,0 0,0.638 0.206,0 0,-0.221 c 0.181,-0.139 0.387,-0.21 0.624,-0.21 0.139,0 0.552,0.029 0.552,0.308 C 0.507,0.537 0.5,0.597 0.481,0.624 0.38,0.766 0.184,0.74 0.019,0.755 c -0.278,0.023 -0.568,0.008 -0.767,0.188 -0.071,0.064 -0.097,0.165 -0.097,0.259 0,0.323 0.27,0.523 0.683,0.523 0.211,0 0.414,-0.049 0.583,-0.151 l 0,0.151 0.203,0 0,-0.594 -0.203,0 0,0.222 C 0.263,1.454 0.056,1.518 -0.15,1.518 c -0.162,0 -0.492,-0.049 -0.492,-0.282 0,-0.068 0.041,-0.135 0.097,-0.173 C -0.372,0.954 -0.026,0.966 0.233,0.947 0.492,0.928 0.714,0.849 0.714,0.537 0.714,0.214 0.417,0 0,0"
             style="fill:#d02d23;fill-opacity:1;fill-rule:nonzero;stroke:none"
             id="path64872"
             inkscape:connector-curvature="0" /></g><g
           id="g64874"
           transform="translate(111.1631,53.7066)"><path
             d="m 0,0 c -0.195,0 -0.601,0.068 -0.601,0.492 l 0,0.977 -0.267,0 0,0.207 0.267,0 0,0.484 0.203,0 0,-0.484 0.969,0 0,-0.207 -0.969,0 0,-0.887 c 0,-0.116 0.03,-0.252 0.139,-0.308 0.101,-0.053 0.199,-0.067 0.3,-0.067 0.256,0 0.538,0.131 0.733,0.206 L 0.797,0.21 C 0.56,0.109 0.278,0 0,0"
             style="fill:#d02d23;fill-opacity:1;fill-rule:nonzero;stroke:none"
             id="path64876"
             inkscape:connector-curvature="0" /></g></g></g></g></svg>