<?xml version="1.0" encoding="UTF-8" standalone="no"?>
<!-- Created with Inkscape (http://www.inkscape.org/) -->

<svg
   xmlns:dc="http://purl.org/dc/elements/1.1/"
   xmlns:cc="http://creativecommons.org/ns#"
   xmlns:rdf="http://www.w3.org/1999/02/22-rdf-syntax-ns#"
   xmlns:svg="http://www.w3.org/2000/svg"
   xmlns="http://www.w3.org/2000/svg"
   xmlns:sodipodi="http://sodipodi.sourceforge.net/DTD/sodipodi-0.dtd"
   xmlns:inkscape="http://www.inkscape.org/namespaces/inkscape"
   id="svg63270"
   version="1.1"
   inkscape:version="0.48.5 r10040"
   width="256"
   height="256"
   xml:space="preserve"
   sodipodi:docname="Sinclair - ZX Spectrum +3-content.svg"
   inkscape:export-filename="/Users/margetts/Desktop/BAXY RetroActive/png_marked/Sinclair - ZX Spectrum +3-content.png"
   inkscape:export-xdpi="90.099998"
   inkscape:export-ydpi="90.099998"><metadata
     id="metadata63276"><rdf:RDF><cc:Work
         rdf:about=""><dc:format>image/svg+xml</dc:format><dc:type
           rdf:resource="http://purl.org/dc/dcmitype/StillImage" /><dc:title></dc:title></cc:Work></rdf:RDF></metadata><defs
     id="defs63274"><clipPath
       clipPathUnits="userSpaceOnUse"
       id="clipPath63284"><path
         d="M 0,128 128,128 128,0 0,0 0,128 z"
         id="path63286"
         inkscape:connector-curvature="0" /></clipPath></defs><sodipodi:namedview
     pagecolor="#ffffff"
     bordercolor="#666666"
     borderopacity="1"
     objecttolerance="10"
     gridtolerance="10"
     guidetolerance="10"
     inkscape:pageopacity="0"
     inkscape:pageshadow="2"
     inkscape:window-width="1676"
     inkscape:window-height="1005"
     id="namedview63272"
     showgrid="false"
     inkscape:zoom="5.23125"
     inkscape:cx="56.009558"
     inkscape:cy="80"
     inkscape:window-x="4"
     inkscape:window-y="1"
     inkscape:window-maximized="1"
     inkscape:current-layer="g63278" /><g
     id="g63278"
     inkscape:groupmode="layer"
     inkscape:label="Sinclair - ZX Spectrum +3-content"
     transform="matrix(1.25,0,0,-1.25,0,256)"><g
       id="g63280"
       transform="matrix(1.6,0,0,1.6,0,-2.28688)"><g
         id="g63282"
         clip-path="url(#clipPath63284)"><g
           id="g63288"
           transform="translate(89.055,65.4768)"><path
             d="m 0,0 c -3.402,0 -6.169,2.767 -6.169,6.169 0,3.401 2.767,6.169 6.169,6.169 3.402,0 6.169,-2.768 6.169,-6.169 C 6.169,2.767 3.402,0 0,0 m -50.062,-0.048 c -3.428,0 -6.217,2.789 -6.217,6.217 0,3.428 2.789,6.216 6.217,6.216 3.428,0 6.216,-2.788 6.216,-6.216 0,-3.428 -2.788,-6.217 -6.216,-6.217 m 10.79,13.044 29.716,0 0,-13.654 -29.716,0 0,13.654 z m 71.106,28.201 -113.778,0 c -3.921,0 -7.111,-3.19 -7.111,-7.111 l 0,-68.267 c 0,-3.921 3.19,-7.111 7.111,-7.111 l 13.653,0 86.472,0 13.653,0 c 3.921,0 7.111,3.19 7.111,7.111 l 0,68.267 c 0,3.921 -3.19,7.111 -7.111,7.111 M 0,0 c 3.405,0 6.169,2.762 6.169,6.169 0,3.407 -2.764,6.169 -6.169,6.169 -3.405,0 -6.169,-2.762 -6.169,-6.169 C -6.169,2.762 -3.405,0 0,0 m -50.062,-0.048 c 3.431,0 6.216,2.783 6.216,6.217 0,3.433 -2.785,6.216 -6.216,6.216 -3.432,0 -6.217,-2.783 -6.217,-6.216 0,-3.434 2.785,-6.217 6.217,-6.217 m 13.653,-0.61 22.756,0 c 1.258,0 2.275,1.017 2.275,2.276 l 0,9.102 c 0,1.258 -1.017,2.276 -2.275,2.276 l -22.756,0 c -1.258,0 -2.275,-1.018 -2.275,-2.276 l 0,-9.102 c 0,-1.259 1.017,-2.276 2.275,-2.276 M 6.124,14.665 c 1.373,0 2.488,-0.474 2.488,-1.057 l 0,-15.855 c 0,-0.584 -1.115,-1.057 -2.488,-1.057 l -7.463,0 -47.265,0 -7.463,0 c -1.374,0 -2.488,0.473 -2.488,1.057 l 0,15.855 c 0,0.583 1.114,1.057 2.488,1.057 l 62.191,0"
             style="fill:#ffffff;fill-opacity:1;fill-rule:nonzero;stroke:none"
             id="path63290"
             inkscape:connector-curvature="0" /></g><g
           id="g63292"
           transform="translate(89.055,65.4768)"><path
             d="m 0,0 c -3.405,0 -6.169,2.762 -6.169,6.169 0,3.407 2.764,6.169 6.169,6.169 3.405,0 6.169,-2.762 6.169,-6.169 C 6.169,2.762 3.405,0 0,0 m -50.062,-0.048 c -3.432,0 -6.217,2.783 -6.217,6.217 0,3.434 2.785,6.216 6.217,6.216 3.431,0 6.216,-2.782 6.216,-6.216 0,-3.434 -2.785,-6.217 -6.216,-6.217 m 81.896,38.685 -113.778,0 c -2.512,0 -4.551,-2.039 -4.551,-4.551 l 0,-68.267 c 0,-2.512 2.039,-4.551 4.551,-4.551 l 13.653,0 86.472,0 13.653,0 c 2.512,0 4.551,2.039 4.551,4.551 l 0,68.267 c 0,2.512 -2.039,4.551 -4.551,4.551"
             style="fill:#333333;fill-opacity:1;fill-rule:nonzero;stroke:none"
             id="path63294"
             inkscape:connector-curvature="0" /></g><g
           id="g63296"
           transform="translate(89.0311,65.4768)"><path
             d="m 0,0 c -3.405,0 -6.169,2.762 -6.169,6.169 0,3.407 2.764,6.169 6.169,6.169 3.405,0 6.169,-2.762 6.169,-6.169 C 6.169,2.762 3.405,0 0,0 m -50.062,-0.048 c -3.432,0 -6.217,2.783 -6.217,6.217 0,3.434 2.785,6.216 6.217,6.216 3.431,0 6.216,-2.782 6.216,-6.216 0,-3.434 -2.785,-6.217 -6.216,-6.217 m 75.093,31.248 -100.124,0 c -2.512,0 -4.551,-2.039 -4.551,-4.551 l 0,-36.409 c 0,-2.512 2.039,-4.551 4.551,-4.551 l 100.124,0 c 2.512,0 4.551,2.039 4.551,4.551 l 0,36.409 c 0,2.512 -2.039,4.551 -4.551,4.551"
             style="fill:#d9d9d9;fill-opacity:1;fill-rule:nonzero;stroke:none"
             id="path63298"
             inkscape:connector-curvature="0" /></g><g
           id="g63300"
           transform="translate(102.6844,37.5123)"><path
             d="m 0,0 c 0,0 0,2.276 -2.282,2.276 l -72.811,0 C -77.369,2.276 -77.369,0 -77.369,0 l -2.275,-11.378 81.92,0 L 0,0 z"
             style="fill:#404040;fill-opacity:1;fill-rule:nonzero;stroke:none"
             id="path63302"
             inkscape:connector-curvature="0" /></g><g
           id="g63304"
           transform="translate(34.4178,28.4101)"><path
             d="m 0,0 c -1.258,0 -2.276,1.017 -2.276,2.276 0,1.258 1.018,2.275 2.276,2.275 1.258,0 2.276,-1.017 2.276,-2.275 C 2.276,1.017 1.258,0 0,0"
             style="fill:#0d0d0d;fill-opacity:1;fill-rule:nonzero;stroke:none"
             id="path63306"
             inkscape:connector-curvature="0" /></g><g
           id="g63308"
           transform="translate(45.7956,30.6857)"><path
             d="m 0,0 c -1.258,0 -2.276,1.017 -2.276,2.276 0,1.258 1.018,2.275 2.276,2.275 1.258,0 2.276,-1.017 2.276,-2.275 C 2.276,1.017 1.258,0 0,0"
             style="fill:#0d0d0d;fill-opacity:1;fill-rule:nonzero;stroke:none"
             id="path63310"
             inkscape:connector-curvature="0" /></g><g
           id="g63312"
           transform="translate(64,32.9612)"><path
             d="m 0,0 c -1.258,0 -2.276,1.017 -2.276,2.276 0,1.258 1.018,2.275 2.276,2.275 1.258,0 2.276,-1.017 2.276,-2.275 C 2.276,1.017 1.258,0 0,0"
             style="fill:#0d0d0d;fill-opacity:1;fill-rule:nonzero;stroke:none"
             id="path63314"
             inkscape:connector-curvature="0" /></g><g
           id="g63316"
           transform="translate(82.2045,30.6857)"><path
             d="m 0,0 c -1.258,0 -2.276,1.017 -2.276,2.276 0,1.258 1.018,2.275 2.276,2.275 1.258,0 2.276,-1.017 2.276,-2.275 C 2.276,1.017 1.258,0 0,0"
             style="fill:#0d0d0d;fill-opacity:1;fill-rule:nonzero;stroke:none"
             id="path63318"
             inkscape:connector-curvature="0" /></g><g
           id="g63320"
           transform="translate(93.5822,28.4101)"><path
             d="m 0,0 c -1.258,0 -2.276,1.017 -2.276,2.276 0,1.258 1.018,2.275 2.276,2.275 1.258,0 2.276,-1.017 2.276,-2.275 C 2.276,1.017 1.258,0 0,0"
             style="fill:#0d0d0d;fill-opacity:1;fill-rule:nonzero;stroke:none"
             id="path63322"
             inkscape:connector-curvature="0" /></g><g
           id="g63324"
           transform="translate(5.9733,28.4101)"><path
             d="m 0,0 c -0.628,0 -1.138,0.51 -1.138,1.138 0,0.628 0.51,1.138 1.138,1.138 0.628,0 1.138,-0.51 1.138,-1.138 C 1.138,0.51 0.628,0 0,0"
             style="fill:#191919;fill-opacity:1;fill-rule:nonzero;stroke:none"
             id="path63326"
             inkscape:connector-curvature="0" /></g><g
           id="g63328"
           transform="translate(5.9733,98.9523)"><path
             d="m 0,0 c -0.628,0 -1.138,0.51 -1.138,1.138 0,0.628 0.51,1.138 1.138,1.138 0.628,0 1.138,-0.51 1.138,-1.138 C 1.138,0.51 0.628,0 0,0"
             style="fill:#191919;fill-opacity:1;fill-rule:nonzero;stroke:none"
             id="path63330"
             inkscape:connector-curvature="0" /></g><g
           id="g63332"
           transform="translate(122.0267,28.4101)"><path
             d="m 0,0 c -0.628,0 -1.138,0.51 -1.138,1.138 0,0.628 0.51,1.138 1.138,1.138 0.628,0 1.138,-0.51 1.138,-1.138 C 1.138,0.51 0.628,0 0,0"
             style="fill:#191919;fill-opacity:1;fill-rule:nonzero;stroke:none"
             id="path63334"
             inkscape:connector-curvature="0" /></g><g
           id="g63336"
           transform="translate(122.0267,98.9523)"><path
             d="m 0,0 c -0.628,0 -1.138,0.51 -1.138,1.138 0,0.628 0.51,1.138 1.138,1.138 0.628,0 1.138,-0.51 1.138,-1.138 C 1.138,0.51 0.628,0 0,0"
             style="fill:#191919;fill-opacity:1;fill-rule:nonzero;stroke:none"
             id="path63338"
             inkscape:connector-curvature="0" /></g><g
           id="g63340"
           transform="translate(38.9689,78.4723)"><path
             d="m 0,0 c -3.768,0 -6.827,-3.056 -6.827,-6.827 0,-3.77 3.059,-6.826 6.827,-6.826 3.768,0 6.827,3.056 6.827,6.826 C 6.827,-3.056 3.768,0 0,0 m 0,-1.28 c 3.058,0 5.547,-2.488 5.547,-5.547 0,-3.058 -2.489,-5.546 -5.547,-5.546 -3.058,0 -5.547,2.488 -5.547,5.546 0,3.059 2.489,5.547 5.547,5.547"
             style="fill:#0d0d0d;fill-opacity:1;fill-rule:nonzero;stroke:none"
             id="path63342"
             inkscape:connector-curvature="0" /></g><g
           id="g63344"
           transform="translate(77.6534,66.8888)"><path
             d="m 0,0 c 0,-1.258 -1.017,-2.276 -2.276,-2.276 l -22.755,0 c -1.259,0 -2.276,1.018 -2.276,2.276 l 0,9.102 c 0,1.259 1.017,2.276 2.276,2.276 l 22.755,0 C -1.017,11.378 0,10.361 0,9.102 L 0,0 z"
             style="fill:#f2f2f2;fill-opacity:1;fill-rule:nonzero;stroke:none"
             id="path63346"
             inkscape:connector-curvature="0" /></g><g
           id="g63348"
           transform="translate(89.0311,78.4723)"><path
             d="m 0,0 c -3.768,0 -6.827,-3.056 -6.827,-6.827 0,-3.77 3.059,-6.826 6.827,-6.826 3.768,0 6.827,3.056 6.827,6.826 C 6.827,-3.056 3.768,0 0,0 m 0,-1.28 c 3.058,0 5.547,-2.488 5.547,-5.547 0,-3.058 -2.489,-5.546 -5.547,-5.546 -3.058,0 -5.547,2.488 -5.547,5.546 0,3.059 2.489,5.547 5.547,5.547"
             style="fill:#0d0d0d;fill-opacity:1;fill-rule:nonzero;stroke:none"
             id="path63350"
             inkscape:connector-curvature="0" /></g><g
           id="g63352"
           transform="translate(77.6534,67.0946)"><path
             d="m 0,0 c 0,-1.258 -1.017,-2.276 -2.276,-2.276 l -22.755,0 c -1.259,0 -2.276,1.018 -2.276,2.276 l 0,9.102 c 0,1.259 1.017,2.276 2.276,2.276 l 22.755,0 C -1.017,11.378 0,10.361 0,9.102 L 0,0 z"
             style="fill:#808080;fill-opacity:1;fill-rule:nonzero;stroke:none"
             id="path63354"
             inkscape:connector-curvature="0" /></g><g
           id="g63356"
           transform="translate(50.3467,76.1968)"><path
             d="m 0,0 0,-9.102 c 0,-1.259 1.017,-2.276 2.275,-2.276 l 1.12,0 c 0.963,2.079 1.515,4.386 1.515,6.827 0,2.441 -0.552,4.748 -1.515,6.827 l -1.12,0 C 1.017,2.276 0,1.258 0,0"
             style="fill:#0d0d0d;fill-opacity:1;fill-rule:nonzero;stroke:none"
             id="path63358"
             inkscape:connector-curvature="0" /></g><path
           d="m 15.126,94.401 0.728,0 0,-5.093 -0.728,0 0,5.093 z"
           style="fill:#1d7fd2;fill-opacity:1;fill-rule:nonzero;stroke:none"
           id="path63360"
           inkscape:connector-curvature="0" /><path
           d="m 16.581,92.946 0.728,0 0,-3.638 -0.728,0 0,3.638 z m 0,1.455 0.728,0 0,-0.728 -0.728,0 0,0.728 z"
           style="fill:#1d7fd2;fill-opacity:1;fill-rule:nonzero;stroke:none"
           id="path63362"
           inkscape:connector-curvature="0" /><path
           d="m 23.856,92.219 -5.093,0 0,-2.183 5.093,0 0,2.183 z m -5.82,-2.91 0,5.092 0.728,0 0,-1.455 5.82,0 0,-3.637 -6.548,0 z"
           style="fill:#1d7fd2;fill-opacity:1;fill-rule:nonzero;stroke:none"
           id="path63364"
           inkscape:connector-curvature="0" /><g
           id="g63366"
           transform="translate(25.3112,89.3086)"><path
             d="m 0,0 0,3.638 6.548,0 0,-0.728 -5.82,0 L 0.728,0 0,0 z"
             style="fill:#1d7fd2;fill-opacity:1;fill-rule:nonzero;stroke:none"
             id="path63368"
             inkscape:connector-curvature="0" /></g><path
           d="m 38.407,92.219 -5.093,0 0,-0.728 5.093,0 0,0.728 z m 0.727,-2.183 0,-0.727 -6.548,0 0,3.637 6.548,0 0,-2.182 -5.82,0 0,-0.728 5.82,0 z"
           style="fill:#1d7fd2;fill-opacity:1;fill-rule:nonzero;stroke:none"
           id="path63370"
           inkscape:connector-curvature="0" /><g
           id="g63372"
           transform="translate(46.4092,90.0361)"><path
             d="m 0,0 0,-0.728 -6.548,0 0,5.093 0.728,0 0,-1.455 5.82,0 0,-0.727 -5.82,0 L -5.82,0 0,0 z"
             style="fill:#1d7fd2;fill-opacity:1;fill-rule:nonzero;stroke:none"
             id="path63374"
             inkscape:connector-curvature="0" /></g><g
           id="g63376"
           transform="translate(47.1367,89.3086)"><path
             d="m 0,0 0,3.638 6.548,0 0,-0.728 -5.82,0 L 0.728,0 0,0 z"
             style="fill:#1d7fd2;fill-opacity:1;fill-rule:nonzero;stroke:none"
             id="path63378"
             inkscape:connector-curvature="0" /></g><path
           d="m 60.232,92.219 -5.093,0 0,-2.183 5.093,0 0,2.183 z m -5.82,0.727 6.548,0 0,-3.638 -6.548,0 0,3.638 z"
           style="fill:#1d7fd2;fill-opacity:1;fill-rule:nonzero;stroke:none"
           id="path63380"
           inkscape:connector-curvature="0" /><g
           id="g63382"
           transform="translate(118.6133,89.9034)"><path
             d="m 0,0 -6.773,0 0,6.773 4.993,0 C -0.797,6.773 0,5.976 0,4.993 L 0,0 z"
             style="fill:#1d7fd2;fill-opacity:1;fill-rule:nonzero;stroke:none"
             id="path63384"
             inkscape:connector-curvature="0" /></g><g
           id="g63386"
           transform="translate(33.9545,87.0406)"><path
             d="M 0,0 C 0.192,0 0.344,0.039 0.456,0.119 0.568,0.198 0.624,0.34 0.624,0.546 0.624,0.768 0.546,0.919 0.389,0.999 0.305,1.042 0.194,1.063 0.054,1.063 l -1.001,0 L -0.947,0 0,0 z m -1.368,1.425 1.413,0 C 0.278,1.425 0.47,1.39 0.621,1.321 0.908,1.188 1.052,0.944 1.052,0.587 1.052,0.4 1.013,0.248 0.936,0.129 0.859,0.01 0.752,-0.084 0.614,-0.157 0.735,-0.206 0.826,-0.271 0.888,-0.352 0.949,-0.432 0.983,-0.562 0.99,-0.743 L 1.005,-1.16 c 0.004,-0.119 0.014,-0.207 0.03,-0.265 0.025,-0.099 0.07,-0.162 0.135,-0.191 l 0,-0.069 -0.517,0 C 0.64,-1.658 0.628,-1.624 0.62,-1.581 0.611,-1.539 0.604,-1.457 0.598,-1.336 l -0.025,0.519 c -0.009,0.203 -0.083,0.339 -0.22,0.408 -0.078,0.039 -0.201,0.057 -0.368,0.057 l -0.932,0 0,-1.333 -0.421,0 0,3.11 z"
             style="fill:#1d7fd2;fill-opacity:1;fill-rule:nonzero;stroke:none"
             id="path63388"
             inkscape:connector-curvature="0" /></g><g
           id="g63390"
           transform="translate(37.1532,86.6702)"><path
             d="M 0,0 C -0.016,0.165 -0.051,0.297 -0.107,0.396 -0.211,0.58 -0.383,0.671 -0.626,0.671 -0.799,0.671 -0.945,0.608 -1.062,0.482 -1.18,0.355 -1.242,0.195 -1.249,0 L 0,0 z M -0.136,0.89 C 0.013,0.815 0.128,0.717 0.207,0.597 0.282,0.483 0.333,0.349 0.358,0.197 0.38,0.092 0.392,-0.074 0.392,-0.303 l -1.65,0 c 0.007,-0.23 0.061,-0.416 0.162,-0.555 0.101,-0.139 0.257,-0.209 0.469,-0.209 0.197,0 0.354,0.066 0.472,0.198 0.066,0.076 0.113,0.165 0.14,0.266 l 0.375,0 C 0.35,-0.687 0.317,-0.779 0.262,-0.882 0.206,-0.984 0.144,-1.068 0.075,-1.133 -0.04,-1.246 -0.182,-1.322 -0.352,-1.361 c -0.091,-0.023 -0.194,-0.034 -0.309,-0.034 -0.28,0 -0.518,0.102 -0.713,0.308 -0.195,0.205 -0.292,0.493 -0.292,0.863 0,0.364 0.098,0.659 0.294,0.887 0.197,0.227 0.453,0.341 0.77,0.341 0.16,0 0.315,-0.038 0.466,-0.114"
             style="fill:#1d7fd2;fill-opacity:1;fill-rule:nonzero;stroke:none"
             id="path63392"
             inkscape:connector-curvature="0" /></g><g
           id="g63394"
           transform="translate(38.1035,88.2559)"><path
             d="m 0,0 0.386,0 0,-0.633 0.361,0 0,-0.311 -0.361,0 0,-1.48 c 0,-0.079 0.026,-0.132 0.08,-0.159 0.03,-0.016 0.079,-0.023 0.148,-0.023 0.018,0 0.038,0 0.059,10e-4 0.022,10e-4 0.046,0.003 0.074,0.007 l 0,-0.303 C 0.704,-2.913 0.658,-2.922 0.611,-2.928 0.564,-2.934 0.512,-2.937 0.457,-2.937 0.28,-2.937 0.159,-2.891 0.095,-2.8 0.032,-2.709 0,-2.591 0,-2.445 l 0,1.501 -0.307,0 0,0.311 0.307,0 L 0,0 z"
             style="fill:#1d7fd2;fill-opacity:1;fill-rule:nonzero;stroke:none"
             id="path63396"
             inkscape:connector-curvature="0" /></g><g
           id="g63398"
           transform="translate(39.2428,87.623)"><path
             d="m 0,0 0.362,0 0,-0.392 c 0.029,0.077 0.102,0.169 0.218,0.279 0.116,0.109 0.249,0.164 0.4,0.164 0.007,0 0.019,-10e-4 0.036,-0.002 C 1.033,0.047 1.062,0.045 1.103,0.04 l 0,-0.402 c -0.022,0.004 -0.043,0.007 -0.062,0.008 -0.02,0.002 -0.04,0.003 -0.063,0.003 -0.192,0 -0.339,-0.062 -0.443,-0.186 C 0.433,-0.66 0.381,-0.803 0.381,-0.963 l 0,-1.305 L 0,-2.268 0,0 z"
             style="fill:#1d7fd2;fill-opacity:1;fill-rule:nonzero;stroke:none"
             id="path63400"
             inkscape:connector-curvature="0" /></g><g
           id="g63402"
           transform="translate(42.0825,85.8895)"><path
             d="m 0,0 c 0.093,0.191 0.139,0.404 0.139,0.637 0,0.212 -0.033,0.384 -0.1,0.517 C -0.067,1.362 -0.25,1.467 -0.509,1.467 -0.74,1.467 -0.907,1.378 -1.012,1.2 -1.117,1.023 -1.169,0.808 -1.169,0.557 c 0,-0.241 0.052,-0.442 0.157,-0.602 0.105,-0.161 0.271,-0.241 0.498,-0.241 0.25,0 0.421,0.095 0.514,0.286 m 0.237,1.507 c 0.2,-0.195 0.301,-0.481 0.301,-0.859 0,-0.365 -0.089,-0.667 -0.265,-0.905 -0.177,-0.239 -0.451,-0.358 -0.822,-0.358 -0.31,0 -0.556,0.106 -0.739,0.316 -0.182,0.212 -0.273,0.495 -0.273,0.85 0,0.381 0.096,0.684 0.288,0.91 0.192,0.225 0.45,0.338 0.774,0.338 0.29,0 0.536,-0.097 0.736,-0.292"
             style="fill:#1d7fd2;fill-opacity:1;fill-rule:nonzero;stroke:none"
             id="path63404"
             inkscape:connector-curvature="0" /></g><g
           id="g63406"
           transform="translate(43.4137,86.359)"><path
             d="m 0,0 c 0.01,-0.176 0.05,-0.32 0.12,-0.43 0.135,-0.206 0.372,-0.309 0.712,-0.309 0.152,0 0.291,0.023 0.416,0.068 0.242,0.087 0.363,0.244 0.363,0.47 0,0.169 -0.051,0.29 -0.154,0.362 C 1.353,0.231 1.191,0.293 0.969,0.345 L 0.561,0.441 c -0.267,0.061 -0.455,0.13 -0.566,0.205 -0.192,0.13 -0.287,0.324 -0.287,0.582 0,0.28 0.094,0.509 0.282,0.688 0.188,0.179 0.455,0.269 0.799,0.269 0.318,0 0.587,-0.079 0.809,-0.236 C 1.82,1.791 1.931,1.54 1.931,1.194 l -0.396,0 C 1.515,1.361 1.471,1.488 1.405,1.577 1.282,1.739 1.073,1.821 0.778,1.821 0.54,1.821 0.368,1.768 0.264,1.664 0.16,1.56 0.108,1.438 0.108,1.3 0.108,1.147 0.17,1.036 0.293,0.965 0.373,0.92 0.556,0.864 0.84,0.796 L 1.263,0.697 C 1.467,0.648 1.624,0.583 1.735,0.5 1.926,0.354 2.022,0.143 2.022,-0.134 2.022,-0.478 1.9,-0.724 1.655,-0.872 1.411,-1.02 1.127,-1.095 0.804,-1.095 c -0.377,0 -0.673,0.099 -0.886,0.297 C -0.296,-0.602 -0.4,-0.336 -0.396,0 L 0,0 z"
             style="fill:#1d7fd2;fill-opacity:1;fill-rule:nonzero;stroke:none"
             id="path63408"
             inkscape:connector-curvature="0" /></g><g
           id="g63410"
           transform="translate(47.3817,85.8349)"><path
             d="m 0,0 c 0.118,0.149 0.178,0.372 0.178,0.668 0,0.181 -0.027,0.336 -0.079,0.466 -0.099,0.25 -0.28,0.374 -0.544,0.374 -0.265,0 -0.446,-0.131 -0.544,-0.396 -0.052,-0.141 -0.078,-0.32 -0.078,-0.537 0,-0.175 0.026,-0.324 0.078,-0.447 0.099,-0.234 0.281,-0.351 0.544,-0.351 0.178,0 0.327,0.074 0.445,0.223 m -1.434,1.778 0.373,0 0,-0.301 c 0.076,0.103 0.16,0.183 0.251,0.239 0.128,0.085 0.28,0.127 0.453,0.127 0.258,0 0.477,-0.099 0.656,-0.295 0.18,-0.197 0.27,-0.478 0.27,-0.844 0,-0.494 -0.129,-0.847 -0.389,-1.059 -0.164,-0.134 -0.356,-0.201 -0.573,-0.201 -0.172,0 -0.316,0.038 -0.432,0.113 -0.068,0.042 -0.144,0.115 -0.228,0.217 l 0,-1.158 -0.381,0 0,3.162 z"
             style="fill:#1d7fd2;fill-opacity:1;fill-rule:nonzero;stroke:none"
             id="path63412"
             inkscape:connector-curvature="0" /></g><g
           id="g63414"
           transform="translate(49.9286,86.6702)"><path
             d="M 0,0 C -0.016,0.165 -0.051,0.297 -0.107,0.396 -0.211,0.58 -0.383,0.671 -0.626,0.671 -0.799,0.671 -0.945,0.608 -1.062,0.482 -1.18,0.355 -1.242,0.195 -1.249,0 L 0,0 z M -0.136,0.89 C 0.013,0.815 0.128,0.717 0.207,0.597 0.282,0.483 0.333,0.349 0.358,0.197 0.38,0.092 0.392,-0.074 0.392,-0.303 l -1.65,0 c 0.007,-0.23 0.061,-0.416 0.162,-0.555 0.101,-0.139 0.257,-0.209 0.469,-0.209 0.197,0 0.354,0.066 0.472,0.198 0.066,0.076 0.113,0.165 0.14,0.266 l 0.375,0 C 0.35,-0.687 0.317,-0.779 0.262,-0.882 0.206,-0.984 0.144,-1.068 0.075,-1.133 -0.04,-1.246 -0.182,-1.322 -0.352,-1.361 c -0.091,-0.023 -0.194,-0.034 -0.309,-0.034 -0.28,0 -0.518,0.102 -0.713,0.308 -0.195,0.205 -0.292,0.493 -0.292,0.863 0,0.364 0.098,0.659 0.294,0.887 0.197,0.227 0.453,0.341 0.77,0.341 0.16,0 0.315,-0.038 0.466,-0.114"
             style="fill:#1d7fd2;fill-opacity:1;fill-rule:nonzero;stroke:none"
             id="path63416"
             inkscape:connector-curvature="0" /></g><g
           id="g63418"
           transform="translate(52.3013,87.5021)"><path
             d="m 0,0 c 0.16,-0.124 0.256,-0.338 0.289,-0.641 l -0.371,0 c -0.022,0.139 -0.074,0.256 -0.154,0.348 -0.081,0.092 -0.21,0.138 -0.388,0.138 -0.242,0 -0.416,-0.118 -0.52,-0.355 -0.068,-0.153 -0.102,-0.343 -0.102,-0.568 0,-0.228 0.048,-0.419 0.144,-0.574 0.096,-0.155 0.247,-0.232 0.453,-0.232 0.158,0 0.283,0.048 0.376,0.144 0.092,0.097 0.156,0.228 0.191,0.396 l 0.371,0 c -0.042,-0.301 -0.148,-0.521 -0.318,-0.66 -0.169,-0.139 -0.386,-0.208 -0.65,-0.208 -0.296,0 -0.533,0.108 -0.709,0.325 -0.177,0.216 -0.265,0.487 -0.265,0.812 0,0.398 0.097,0.708 0.29,0.929 0.194,0.222 0.44,0.332 0.739,0.332 C -0.368,0.186 -0.16,0.124 0,0"
             style="fill:#1d7fd2;fill-opacity:1;fill-rule:nonzero;stroke:none"
             id="path63420"
             inkscape:connector-curvature="0" /></g><g
           id="g63422"
           transform="translate(53.0475,88.2559)"><path
             d="m 0,0 0.385,0 0,-0.633 0.362,0 0,-0.311 -0.362,0 0,-1.48 c 0,-0.079 0.027,-0.132 0.081,-0.159 0.03,-0.016 0.079,-0.023 0.148,-0.023 0.018,0 0.038,0 0.059,10e-4 0.022,10e-4 0.046,0.003 0.074,0.007 l 0,-0.303 C 0.704,-2.913 0.658,-2.922 0.611,-2.928 0.564,-2.934 0.512,-2.937 0.457,-2.937 0.28,-2.937 0.159,-2.891 0.095,-2.8 0.032,-2.709 0,-2.591 0,-2.445 l 0,1.501 -0.307,0 0,0.311 0.307,0 L 0,0 z"
             style="fill:#1d7fd2;fill-opacity:1;fill-rule:nonzero;stroke:none"
             id="path63424"
             inkscape:connector-curvature="0" /></g><g
           id="g63426"
           transform="translate(54.1864,87.623)"><path
             d="m 0,0 0.362,0 0,-0.392 c 0.029,0.077 0.102,0.169 0.218,0.279 0.116,0.109 0.249,0.164 0.4,0.164 0.007,0 0.019,-10e-4 0.036,-0.002 C 1.033,0.047 1.062,0.045 1.103,0.04 l 0,-0.402 c -0.022,0.004 -0.043,0.007 -0.062,0.008 -0.02,0.002 -0.04,0.003 -0.063,0.003 -0.192,0 -0.339,-0.062 -0.443,-0.186 C 0.433,-0.66 0.381,-0.803 0.381,-0.963 l 0,-1.305 L 0,-2.268 0,0 z"
             style="fill:#1d7fd2;fill-opacity:1;fill-rule:nonzero;stroke:none"
             id="path63428"
             inkscape:connector-curvature="0" /></g><g
           id="g63430"
           transform="translate(56.0009,87.623)"><path
             d="m 0,0 0,-1.505 c 0,-0.116 0.018,-0.211 0.054,-0.284 0.066,-0.136 0.189,-0.204 0.369,-0.204 0.258,0 0.434,0.119 0.528,0.356 0.051,0.127 0.076,0.302 0.076,0.523 l 0,1.114 0.381,0 0,-2.268 -0.36,0 0.004,0.335 C 1.004,-2.019 0.944,-2.092 0.871,-2.151 0.729,-2.27 0.556,-2.329 0.352,-2.329 c -0.317,0 -0.533,0.108 -0.648,0.324 -0.062,0.116 -0.094,0.27 -0.094,0.463 L -0.39,0 0,0 z"
             style="fill:#1d7fd2;fill-opacity:1;fill-rule:nonzero;stroke:none"
             id="path63432"
             inkscape:connector-curvature="0" /></g><g
           id="g63434"
           transform="translate(58.0314,87.623)"><path
             d="m 0,0 0.377,0 0,-0.322 c 0.09,0.112 0.172,0.193 0.245,0.243 0.126,0.087 0.268,0.13 0.428,0.13 0.18,0 0.326,-0.045 0.436,-0.134 0.062,-0.051 0.119,-0.125 0.169,-0.224 0.085,0.121 0.185,0.211 0.299,0.27 0.114,0.058 0.243,0.088 0.385,0.088 0.305,0 0.513,-0.11 0.623,-0.331 0.059,-0.118 0.089,-0.278 0.089,-0.478 l 0,-1.51 -0.396,0 0,1.576 c 0,0.151 -0.038,0.254 -0.114,0.311 -0.075,0.056 -0.167,0.085 -0.276,0.085 -0.149,0 -0.278,-0.05 -0.386,-0.151 -0.108,-0.1 -0.162,-0.267 -0.162,-0.502 l 0,-1.319 -0.387,0 0,1.48 c 0,0.154 -0.019,0.266 -0.055,0.337 -0.058,0.106 -0.166,0.159 -0.325,0.159 -0.144,0 -0.274,-0.056 -0.392,-0.167 C 0.44,-0.571 0.381,-0.773 0.381,-1.065 l 0,-1.203 L 0,-2.268 0,0 z"
             style="fill:#1d7fd2;fill-opacity:1;fill-rule:nonzero;stroke:none"
             id="path63436"
             inkscape:connector-curvature="0" /></g><path
           d="m 97.546,55.027 -0.378,0 0,2.248 0.378,0 0,-2.248 z"
           style="fill:#1d7fd2;fill-opacity:1;fill-rule:nonzero;stroke:none"
           id="path63438"
           inkscape:connector-curvature="0" /><path
           d="m 98.537,57.284 -0.973,0 0,0.406 0.973,0 0,-0.406 z"
           style="fill:#1d7fd2;fill-opacity:1;fill-rule:nonzero;stroke:none"
           id="path63440"
           inkscape:connector-curvature="0" /><path
           d="m 97.98,56.444 -0.463,0 0,0.331 0.463,0 0,-0.331 z"
           style="fill:#1d7fd2;fill-opacity:1;fill-rule:nonzero;stroke:none"
           id="path63442"
           inkscape:connector-curvature="0" /><path
           d="m 99.633,55.452 -0.482,0 0,1.87 0.482,0 0,-1.87 z"
           style="fill:#1d7fd2;fill-opacity:1;fill-rule:nonzero;stroke:none"
           id="path63444"
           inkscape:connector-curvature="0" /><path
           d="m 101.465,55.414 -0.34,0 0,1.927 0.34,0 0,-1.927 z"
           style="fill:#1d7fd2;fill-opacity:1;fill-rule:nonzero;stroke:none"
           id="path63446"
           inkscape:connector-curvature="0" /><path
           d="m 100.974,54.951 -1.407,0 0,0.321 1.407,0 0,-0.321 z"
           style="fill:#1d7fd2;fill-opacity:1;fill-rule:nonzero;stroke:none"
           id="path63448"
           inkscape:connector-curvature="0" /><path
           d="m 103.951,54.951 -1.863,0 0,0.321 1.863,0 0,-0.321 z"
           style="fill:#1d7fd2;fill-opacity:1;fill-rule:nonzero;stroke:none"
           id="path63450"
           inkscape:connector-curvature="0" /><path
           d="m 107.351,54.951 -1.863,0 0,0.321 1.863,0 0,-0.321 z"
           style="fill:#1d7fd2;fill-opacity:1;fill-rule:nonzero;stroke:none"
           id="path63452"
           inkscape:connector-curvature="0" /><path
           d="m 103.955,55.981 -1.423,0 0,0.321 1.423,0 0,-0.321 z"
           style="fill:#1d7fd2;fill-opacity:1;fill-rule:nonzero;stroke:none"
           id="path63454"
           inkscape:connector-curvature="0" /><path
           d="m 103.955,56.925 -1.423,0 0,0.321 1.423,0 0,-0.321 z"
           style="fill:#1d7fd2;fill-opacity:1;fill-rule:nonzero;stroke:none"
           id="path63456"
           inkscape:connector-curvature="0" /><path
           d="m 102.541,56.387 -0.463,0 0,0.463 0.463,0 0,-0.463 z"
           style="fill:#1d7fd2;fill-opacity:1;fill-rule:nonzero;stroke:none"
           id="path63458"
           inkscape:connector-curvature="0" /><path
           d="m 106.911,55.981 -1.423,0 0,0.321 1.423,0 0,-0.321 z"
           style="fill:#1d7fd2;fill-opacity:1;fill-rule:nonzero;stroke:none"
           id="path63460"
           inkscape:connector-curvature="0" /><path
           d="m 106.911,56.925 -1.423,0 0,0.321 1.423,0 0,-0.321 z"
           style="fill:#1d7fd2;fill-opacity:1;fill-rule:nonzero;stroke:none"
           id="path63462"
           inkscape:connector-curvature="0" /><path
           d="m 105.497,55.417 -0.463,0 0,1.432 0.463,0 0,-1.432 z"
           style="fill:#1d7fd2;fill-opacity:1;fill-rule:nonzero;stroke:none"
           id="path63464"
           inkscape:connector-curvature="0" /><path
           d="m 104.477,55.429 -0.463,0 0,0.463 0.463,0 0,-0.463 z"
           style="fill:#1d7fd2;fill-opacity:1;fill-rule:nonzero;stroke:none"
           id="path63466"
           inkscape:connector-curvature="0" /><path
           d="m 107.455,56.391 -0.463,0 0,0.463 0.463,0 0,-0.463 z"
           style="fill:#1d7fd2;fill-opacity:1;fill-rule:nonzero;stroke:none"
           id="path63468"
           inkscape:connector-curvature="0" /><g
           id="g63470"
           transform="translate(96.7522,56.4152)"><path
             d="m 0,0 c 0,1.57 -0.47,2.846 -1.058,2.912 l 0,0.006 -4.353,0 c -0.611,0 -1.105,-1.306 -1.105,-2.918 0,-1.612 0.494,-2.918 1.105,-2.918 l 4.353,0 0,0.006 C -0.47,-2.846 0,-1.57 0,0"
             style="fill:#1d7fd2;fill-opacity:1;fill-rule:nonzero;stroke:none"
             id="path63472"
             inkscape:connector-curvature="0" /></g><g
           id="g63474"
           transform="translate(114.1667,56.4152)"><path
             d="m 0,0 c 0,1.57 -0.47,2.846 -1.058,2.912 l 0,0.006 -4.353,0 c -0.611,0 -1.105,-1.306 -1.105,-2.918 0,-1.612 0.494,-2.918 1.105,-2.918 l 4.353,0 0,0.006 C -0.47,-2.846 0,-1.57 0,0"
             style="fill:#1d7fd2;fill-opacity:1;fill-rule:nonzero;stroke:none"
             id="path63476"
             inkscape:connector-curvature="0" /></g><path
           d="m 96.223,54.253 12.088,0 0,4.269 -12.088,0 0,-4.269 z m 12.315,-0.227 -12.541,0 0,4.722 12.541,0 0,-4.722 z"
           style="fill:#1d7fd2;fill-opacity:1;fill-rule:nonzero;stroke:none"
           id="path63478"
           inkscape:connector-curvature="0" /><g
           id="g63480"
           transform="translate(14.8627,58.0143)"><path
             d="m 0,0 c 0.063,-0.136 0.149,-0.249 0.256,-0.337 0.108,-0.09 0.235,-0.157 0.381,-0.2 0.146,-0.045 0.302,-0.067 0.466,-0.067 0.324,0 0.591,0.095 0.8,0.285 0.209,0.191 0.314,0.457 0.314,0.799 0,0.343 -0.107,0.602 -0.319,0.776 C 1.685,1.431 1.414,1.518 1.084,1.518 0.925,1.518 0.774,1.496 0.628,1.451 0.482,1.407 0.356,1.34 0.252,1.251 0.147,1.162 0.063,1.055 0,0.928 -0.063,0.801 -0.095,0.652 -0.095,0.48 -0.095,0.297 -0.063,0.136 0,0 m 0.071,-3.568 c 0.27,-0.231 0.614,-0.348 1.032,-0.348 0.203,0 0.389,0.034 0.557,0.1 0.168,0.067 0.314,0.159 0.438,0.277 0.124,0.117 0.219,0.255 0.285,0.413 0.067,0.159 0.1,0.333 0.1,0.524 0,0.183 -0.037,0.353 -0.11,0.509 -0.072,0.155 -0.172,0.29 -0.299,0.405 -0.127,0.113 -0.274,0.204 -0.442,0.271 -0.168,0.066 -0.348,0.099 -0.538,0.099 -0.197,0 -0.382,-0.03 -0.557,-0.09 C 0.362,-1.469 0.211,-1.555 0.081,-1.67 -0.05,-1.784 -0.151,-1.921 -0.224,-2.079 c -0.073,-0.158 -0.11,-0.337 -0.11,-0.533 0,-0.406 0.135,-0.724 0.405,-0.956 M -0.79,1.247 c 0.108,0.212 0.253,0.391 0.438,0.537 0.183,0.146 0.395,0.257 0.632,0.333 0.238,0.076 0.487,0.114 0.748,0.114 0.367,0 0.681,-0.049 0.941,-0.147 C 2.229,1.985 2.44,1.856 2.602,1.694 2.764,1.532 2.883,1.348 2.959,1.142 3.035,0.936 3.073,0.725 3.073,0.509 3.073,0.205 2.989,-0.072 2.821,-0.323 2.653,-0.574 2.426,-0.762 2.14,-0.889 2.546,-1.016 2.848,-1.224 3.045,-1.513 3.241,-1.802 3.34,-2.155 3.34,-2.574 3.34,-2.903 3.281,-3.195 3.163,-3.449 3.046,-3.703 2.888,-3.917 2.688,-4.091 2.488,-4.266 2.252,-4.398 1.978,-4.486 1.706,-4.575 1.414,-4.619 1.103,-4.619 c -0.323,0 -0.624,0.041 -0.903,0.123 -0.28,0.083 -0.522,0.21 -0.728,0.381 -0.207,0.171 -0.369,0.385 -0.486,0.642 -0.117,0.257 -0.175,0.556 -0.175,0.899 0,0.4 0.1,0.747 0.304,1.042 0.203,0.295 0.495,0.509 0.875,0.643 -0.285,0.113 -0.513,0.299 -0.685,0.556 -0.172,0.257 -0.257,0.538 -0.257,0.842 0,0.279 0.054,0.525 0.162,0.738"
             style="fill:#1d7fd2;fill-opacity:1;fill-rule:nonzero;stroke:none"
             id="path63482"
             inkscape:connector-curvature="0" /></g><g
           id="g63484"
           transform="translate(21.1613,53.4994)"><path
             d="m 0,0 0,4.834 -1.751,0 0,0.647 c 0.229,0 0.451,0.017 0.666,0.052 0.216,0.035 0.411,0.1 0.586,0.195 0.174,0.096 0.322,0.225 0.442,0.39 0.12,0.165 0.203,0.375 0.247,0.628 l 0.619,0 L 0.809,0 0,0 z"
             style="fill:#1d7fd2;fill-opacity:1;fill-rule:nonzero;stroke:none"
             id="path63486"
             inkscape:connector-curvature="0" /></g></g></g></g></svg>