<?xml version="1.0" encoding="UTF-8" standalone="no"?>
<!-- Created with Inkscape (http://www.inkscape.org/) -->

<svg
   xmlns:dc="http://purl.org/dc/elements/1.1/"
   xmlns:cc="http://creativecommons.org/ns#"
   xmlns:rdf="http://www.w3.org/1999/02/22-rdf-syntax-ns#"
   xmlns:svg="http://www.w3.org/2000/svg"
   xmlns="http://www.w3.org/2000/svg"
   xmlns:sodipodi="http://sodipodi.sourceforge.net/DTD/sodipodi-0.dtd"
   xmlns:inkscape="http://www.inkscape.org/namespaces/inkscape"
   id="svg61402"
   version="1.1"
   inkscape:version="0.48.5 r10040"
   width="256"
   height="256"
   xml:space="preserve"
   sodipodi:docname="SNK - Neo Geo Pocket Color-content.svg"
   inkscape:export-filename="/Users/margetts/Desktop/BAXY RetroActive/png_marked/SNK - Neo Geo Pocket Color-content.png"
   inkscape:export-xdpi="90.099998"
   inkscape:export-ydpi="90.099998"><metadata
     id="metadata61408"><rdf:RDF><cc:Work
         rdf:about=""><dc:format>image/svg+xml</dc:format><dc:type
           rdf:resource="http://purl.org/dc/dcmitype/StillImage" /><dc:title></dc:title></cc:Work></rdf:RDF></metadata><defs
     id="defs61406"><clipPath
       clipPathUnits="userSpaceOnUse"
       id="clipPath61416"><path
         d="M 0,128 128,128 128,0 0,0 0,128 z"
         id="path61418"
         inkscape:connector-curvature="0" /></clipPath><clipPath
       clipPathUnits="userSpaceOnUse"
       id="clipPath61728"><path
         d="m 30.2436,47.8961 0.0539,0 0,-0.0333 -0.0539,0 0,0.0333 z"
         id="path61730"
         inkscape:connector-curvature="0" /></clipPath><clipPath
       clipPathUnits="userSpaceOnUse"
       id="clipPath61744"><path
         d="m 28.7166,47.653 0.0603,0 0,-0.0378 -0.0603,0 0,0.0378 z"
         id="path61746"
         inkscape:connector-curvature="0" /></clipPath></defs><sodipodi:namedview
     pagecolor="#ffffff"
     bordercolor="#666666"
     borderopacity="1"
     objecttolerance="10"
     gridtolerance="10"
     guidetolerance="10"
     inkscape:pageopacity="0"
     inkscape:pageshadow="2"
     inkscape:window-width="1676"
     inkscape:window-height="1005"
     id="namedview61404"
     showgrid="false"
     inkscape:zoom="5.23125"
     inkscape:cx="56.009558"
     inkscape:cy="80"
     inkscape:window-x="4"
     inkscape:window-y="1"
     inkscape:window-maximized="1"
     inkscape:current-layer="g61410" /><g
     id="g61410"
     inkscape:groupmode="layer"
     inkscape:label="SNK - Neo Geo Pocket Color-content"
     transform="matrix(1.25,0,0,-1.25,0,256)"><g
       id="g61412"
       transform="matrix(1.6000038,0,0,1.6000038,-1.8000113e-4,0.13015711)"><g
         id="g61414"
         clip-path="url(#clipPath61416)"><g
           id="g61420"
           transform="translate(125.0403,119)"><path
             d="m 0,0 -1.582,0 -118.916,0 -1.583,0 -0.707,-1.415 c -2.252,-4.505 -2.252,-8.929 -2.252,-11.055 0,-1.353 0,-4.407 1.982,-5.803 l 0,-21.944 0,-65.899 c 0,-2.231 1.815,-4.047 4.046,-4.047 l 115.943,0 c 2.232,0 4.047,1.816 4.047,4.047 l 0,65.899 0,21.944 c 1.982,1.396 1.982,4.45 1.982,5.803 0,2.126 0,6.55 -2.252,11.055 L 0,0 z"
             style="fill:#ffffff;fill-opacity:1;fill-rule:nonzero;stroke:none"
             id="path61422"
             inkscape:connector-curvature="0" /></g><g
           id="g61424"
           transform="translate(4.5419,116.44)"><path
             d="m 0,0 c -1.982,-3.964 -1.982,-7.928 -1.982,-9.91 0,-1.982 0,-3.964 1.982,-3.964 l 0,-1.486 0,-22.297 0,-65.899 c 0,-0.824 0.663,-1.487 1.486,-1.487 l 115.944,0 c 0.823,0 1.486,0.663 1.486,1.487 l 0,65.899 0,22.297 0,1.486 c 1.982,0 1.982,1.982 1.982,3.964 0,1.982 0,5.946 -1.982,9.91 L 0,0 z"
             style="fill:#4c4c4c;fill-opacity:1;fill-rule:nonzero;stroke:none"
             id="path61426"
             inkscape:connector-curvature="0" /></g><g
           id="g61428"
           transform="translate(4.5419,116.44)"><path
             d="m 0,0 c -1.982,-3.964 -1.982,-7.928 -1.982,-9.91 0,-1.982 0,-3.964 1.982,-3.964 l 118.916,0 c 1.982,0 1.982,1.982 1.982,3.964 0,1.982 0,5.946 -1.982,9.91 L 0,0 z"
             style="fill:#595959;fill-opacity:1;fill-rule:nonzero;stroke:none"
             id="path61430"
             inkscape:connector-curvature="0" /></g><g
           id="g61432"
           transform="translate(16.4335,92.6568)"><path
             d="m 0,0 95.133,0 c 1.094,0 1.982,-0.887 1.982,-1.982 l 0,-47.566 c 0,-1.095 -0.888,-1.982 -1.982,-1.982 L 0,-51.53 c -1.095,0 -1.982,0.887 -1.982,1.982 l 0,47.566 C -1.982,-0.887 -1.095,0 0,0"
             style="fill:#404040;fill-opacity:1;fill-rule:nonzero;stroke:none"
             id="path61434"
             inkscape:connector-curvature="0" /></g><g
           id="g61436"
           transform="translate(55.73,29.2348)"><path
             d="m 0,0 16.54,0 c 0.651,0 1.007,-0.759 0.59,-1.26 l -8.27,-9.924 c -0.307,-0.368 -0.873,-0.368 -1.18,0 L -0.59,-1.26 C -1.007,-0.759 -0.651,0 0,0"
             style="fill:#404040;fill-opacity:1;fill-rule:nonzero;stroke:none"
             id="path61438"
             inkscape:connector-curvature="0" /></g><g
           id="g61440"
           transform="translate(18.4155,90.6748)"><path
             d="m 0,0 91.169,0 c 1.095,0 1.982,-0.887 1.982,-1.982 l 0,-43.603 c 0,-1.094 -0.887,-1.981 -1.982,-1.981 l -91.169,0 c -1.095,0 -1.982,0.887 -1.982,1.981 l 0,43.603 C -1.982,-0.887 -1.095,0 0,0"
             style="fill:#cfd1e1;fill-opacity:1;fill-rule:nonzero;stroke:none"
             id="path61442"
             inkscape:connector-curvature="0" /></g><path
           d="m 113.549,95.981 -99.098,0 0,1.28 99.098,0 0,-1.28 z"
           style="fill:#404040;fill-opacity:1;fill-rule:nonzero;stroke:none"
           id="path61444"
           inkscape:connector-curvature="0" /><path
           d="m 113.549,97.963 -99.098,0 0,1.28 99.098,0 0,-1.28 z"
           style="fill:#404040;fill-opacity:1;fill-rule:nonzero;stroke:none"
           id="path61446"
           inkscape:connector-curvature="0" /><path
           d="m 113.549,99.945 -99.098,0 0,1.28 99.098,0 0,-1.28 z"
           style="fill:#404040;fill-opacity:1;fill-rule:nonzero;stroke:none"
           id="path61448"
           inkscape:connector-curvature="0" /><path
           d="m 115.027,101.919 -102.051,0 0,1.295 102.051,0 0,-1.295 z"
           style="fill:#404040;fill-opacity:1;fill-rule:nonzero;stroke:none"
           id="path61450"
           inkscape:connector-curvature="0" /><path
           d="m 115.53,103.904 -103.06,0 0,1.29 103.06,0 0,-1.29 z"
           style="fill:#404040;fill-opacity:1;fill-rule:nonzero;stroke:none"
           id="path61452"
           inkscape:connector-curvature="0" /><path
           d="m 115.53,105.89 -103.06,0 0,1.28 103.06,0 0,-1.28 z"
           style="fill:#404040;fill-opacity:1;fill-rule:nonzero;stroke:none"
           id="path61454"
           inkscape:connector-curvature="0" /><path
           d="m 115.53,107.872 -103.06,0 0,1.28 103.06,0 0,-1.28 z"
           style="fill:#404040;fill-opacity:1;fill-rule:nonzero;stroke:none"
           id="path61456"
           inkscape:connector-curvature="0" /><path
           d="m 115.53,109.854 -103.06,0 0,1.28 103.06,0 0,-1.28 z"
           style="fill:#404040;fill-opacity:1;fill-rule:nonzero;stroke:none"
           id="path61458"
           inkscape:connector-curvature="0" /><path
           d="m 115.53,111.836 -103.06,0 0,1.28 103.06,0 0,-1.28 z"
           style="fill:#404040;fill-opacity:1;fill-rule:nonzero;stroke:none"
           id="path61460"
           inkscape:connector-curvature="0" /><path
           d="m 115.53,16.28 -35.53,0 0,12.955 35.53,0 0,-12.955 z"
           style="fill:#404040;fill-opacity:1;fill-rule:nonzero;stroke:none"
           id="path61462"
           inkscape:connector-curvature="0" /><path
           d="m 48,16.28 -35.53,0 0,12.955 35.53,0 0,-12.955 z"
           style="fill:#404040;fill-opacity:1;fill-rule:nonzero;stroke:none"
           id="path61464"
           inkscape:connector-curvature="0" /><g
           id="g61466"
           transform="translate(82.7721,18.1525)"><path
             d="m 0,0 -0.129,0 -0.129,0 0,2.574 0.175,0 0.176,0 1.44,-2.128 0,2.128 0.129,0 0.129,0 L 1.791,0 1.662,0 1.531,0 0,2.26 0,0 z"
             style="fill:#4c4c4c;fill-opacity:1;fill-rule:nonzero;stroke:none"
             id="path61468"
             inkscape:connector-curvature="0" /></g><g
           id="g61470"
           transform="translate(85.0708,18.1525)"><path
             d="m 0,0 0,2.574 1.41,0 0,-0.116 0,-0.117 -1.152,0 0,-0.926 1.116,0 0,-0.115 0,-0.117 -1.116,0 0,-0.95 1.152,0 0,-0.116 L 1.41,0 0,0 z"
             style="fill:#4c4c4c;fill-opacity:1;fill-rule:nonzero;stroke:none"
             id="path61472"
             inkscape:connector-curvature="0" /></g><g
           id="g61474"
           transform="translate(88.9879,18.658)"><path
             d="m 0,0 c 0.212,0.212 0.319,0.473 0.319,0.781 0,0.308 -0.107,0.568 -0.319,0.781 -0.212,0.213 -0.473,0.32 -0.782,0.32 -0.308,0 -0.569,-0.107 -0.782,-0.32 -0.213,-0.213 -0.319,-0.473 -0.319,-0.781 0,-0.308 0.106,-0.569 0.319,-0.781 0.213,-0.212 0.474,-0.319 0.782,-0.319 0.309,0 0.57,0.107 0.782,0.319 m -1.749,-0.164 c -0.264,0.257 -0.396,0.572 -0.396,0.945 0,0.372 0.132,0.688 0.396,0.945 0.264,0.258 0.586,0.387 0.967,0.387 0.381,0 0.704,-0.129 0.967,-0.387 C 0.449,1.469 0.58,1.153 0.58,0.781 0.58,0.408 0.449,0.093 0.185,-0.164 -0.078,-0.421 -0.401,-0.55 -0.782,-0.55 c -0.381,0 -0.703,0.129 -0.967,0.386"
             style="fill:#4c4c4c;fill-opacity:1;fill-rule:nonzero;stroke:none"
             id="path61476"
             inkscape:connector-curvature="0" /></g><g
           id="g61478"
           transform="translate(92.8506,18.1525)"><path
             d="m 0,0 0,2.574 1.41,0 0,-0.116 0,-0.117 -1.152,0 0,-0.926 1.116,0 0,-0.115 0,-0.117 -1.116,0 0,-0.95 1.152,0 0,-0.116 L 1.41,0 0,0 z"
             style="fill:#4c4c4c;fill-opacity:1;fill-rule:nonzero;stroke:none"
             id="path61480"
             inkscape:connector-curvature="0" /></g><g
           id="g61482"
           transform="translate(95.0831,20.4938)"><path
             d="m 0,0 -0.59,0 0,0.116 0,0.117 1.438,0 0,-0.116 0,-0.117 -0.59,0 0,-2.341 -0.129,0 L 0,-2.341 0,0 z"
             style="fill:#4c4c4c;fill-opacity:1;fill-rule:nonzero;stroke:none"
             id="path61484"
             inkscape:connector-curvature="0" /></g><g
           id="g61486"
           transform="translate(96.1976,20.7265)"><path
             d="m 0,0 0.129,0 0.656,0 c 0.301,0 0.537,-0.072 0.707,-0.217 0.17,-0.144 0.255,-0.345 0.255,-0.602 0,-0.256 -0.085,-0.456 -0.255,-0.6 C 1.36,-1.529 1.19,-1.597 0.98,-1.624 l 0.736,-0.95 -0.163,0 -0.164,0 -0.881,1.171 0.277,0 c 0.22,0 0.391,0.051 0.515,0.154 0.123,0.103 0.185,0.247 0.185,0.43 0,0.185 -0.062,0.329 -0.185,0.432 -0.124,0.104 -0.295,0.156 -0.515,0.156 l -0.527,0 0,-2.343 -0.129,0 L 0,-2.574 0,0 z"
             style="fill:#4c4c4c;fill-opacity:1;fill-rule:nonzero;stroke:none"
             id="path61488"
             inkscape:connector-curvature="0" /></g><g
           id="g61490"
           transform="translate(100.361,18.658)"><path
             d="m 0,0 c 0.212,0.212 0.319,0.473 0.319,0.781 0,0.308 -0.107,0.568 -0.319,0.781 -0.212,0.213 -0.473,0.32 -0.782,0.32 -0.308,0 -0.569,-0.107 -0.782,-0.32 -0.213,-0.213 -0.319,-0.473 -0.319,-0.781 0,-0.308 0.106,-0.569 0.319,-0.781 0.213,-0.212 0.474,-0.319 0.782,-0.319 0.309,0 0.57,0.107 0.782,0.319 m -1.749,-0.164 c -0.264,0.257 -0.396,0.572 -0.396,0.945 0,0.372 0.132,0.688 0.396,0.945 0.264,0.258 0.586,0.387 0.967,0.387 0.381,0 0.704,-0.129 0.967,-0.387 C 0.449,1.469 0.58,1.153 0.58,0.781 0.58,0.408 0.449,0.093 0.185,-0.164 -0.078,-0.421 -0.401,-0.55 -0.782,-0.55 c -0.381,0 -0.703,0.129 -0.967,0.386"
             style="fill:#4c4c4c;fill-opacity:1;fill-rule:nonzero;stroke:none"
             id="path61492"
             inkscape:connector-curvature="0" /></g><g
           id="g61494"
           transform="translate(101.6107,19.4166)"><path
             d="M 0,0 0.506,0 C 0.718,0 0.883,0.048 1.002,0.143 1.121,0.238 1.181,0.37 1.181,0.539 1.181,0.707 1.121,0.84 1.002,0.935 0.883,1.031 0.718,1.079 0.506,1.079 L 0,1.079 0,0 z m -0.258,1.31 0.129,0 0.635,0 C 0.8,1.31 1.029,1.242 1.194,1.105 1.36,0.969 1.442,0.78 1.442,0.539 1.442,0.297 1.36,0.109 1.194,-0.027 1.029,-0.163 0.8,-0.231 0.506,-0.231 l -0.506,0 0,-1.033 -0.129,0 -0.129,0 0,2.574 z"
             style="fill:#4c4c4c;fill-opacity:1;fill-rule:nonzero;stroke:none"
             id="path61496"
             inkscape:connector-curvature="0" /></g><g
           id="g61498"
           transform="translate(105.4445,18.658)"><path
             d="m 0,0 c 0.212,0.212 0.319,0.473 0.319,0.781 0,0.308 -0.107,0.568 -0.319,0.781 -0.212,0.213 -0.473,0.32 -0.782,0.32 -0.308,0 -0.569,-0.107 -0.782,-0.32 -0.213,-0.213 -0.319,-0.473 -0.319,-0.781 0,-0.308 0.106,-0.569 0.319,-0.781 0.213,-0.212 0.474,-0.319 0.782,-0.319 0.309,0 0.57,0.107 0.782,0.319 m -1.749,-0.164 c -0.264,0.257 -0.396,0.572 -0.396,0.945 0,0.372 0.132,0.688 0.396,0.945 0.264,0.258 0.586,0.387 0.967,0.387 0.381,0 0.704,-0.129 0.967,-0.387 C 0.449,1.469 0.58,1.153 0.58,0.781 0.58,0.408 0.449,0.093 0.185,-0.164 -0.078,-0.421 -0.401,-0.55 -0.782,-0.55 c -0.381,0 -0.703,0.129 -0.967,0.386"
             style="fill:#4c4c4c;fill-opacity:1;fill-rule:nonzero;stroke:none"
             id="path61500"
             inkscape:connector-curvature="0" /></g><g
           id="g61502"
           transform="translate(108.8569,18.827)"><path
             d="m 0,0 c -0.094,-0.208 -0.252,-0.38 -0.474,-0.516 -0.222,-0.135 -0.457,-0.203 -0.705,-0.203 -0.378,0 -0.699,0.129 -0.961,0.386 -0.262,0.257 -0.393,0.572 -0.393,0.945 0,0.372 0.131,0.687 0.393,0.945 0.262,0.258 0.583,0.387 0.961,0.387 0.242,0 0.472,-0.067 0.689,-0.199 0.217,-0.133 0.372,-0.301 0.465,-0.506 l -0.279,0 C -0.386,1.378 -0.508,1.492 -0.672,1.58 -0.836,1.668 -1.005,1.713 -1.179,1.713 -1.485,1.713 -1.743,1.606 -1.955,1.393 -2.166,1.18 -2.272,0.92 -2.272,0.612 c 0,-0.308 0.106,-0.569 0.317,-0.781 0.212,-0.212 0.47,-0.319 0.776,-0.319 0.18,0 0.354,0.046 0.522,0.137 0.169,0.091 0.295,0.208 0.378,0.351 L 0,0 z"
             style="fill:#4c4c4c;fill-opacity:1;fill-rule:nonzero;stroke:none"
             id="path61504"
             inkscape:connector-curvature="0" /></g><g
           id="g61506"
           transform="translate(109.2851,20.7265)"><path
             d="m 0,0 0.129,0 0.129,0 0,-1.484 L 1.451,0 1.612,0 1.774,0 0.742,-1.261 l 1.032,-1.313 -0.163,0 -0.163,0 -0.863,1.124 -0.327,-0.399 0,-0.725 -0.129,0 L 0,-2.574 0,0 z"
             style="fill:#4c4c4c;fill-opacity:1;fill-rule:nonzero;stroke:none"
             id="path61508"
             inkscape:connector-curvature="0" /></g><g
           id="g61510"
           transform="translate(111.3018,18.1525)"><path
             d="m 0,0 0,2.574 1.41,0 0,-0.116 0,-0.117 -1.152,0 0,-0.926 1.116,0 0,-0.115 0,-0.117 -1.116,0 0,-0.95 1.152,0 0,-0.116 L 1.41,0 0,0 z"
             style="fill:#4c4c4c;fill-opacity:1;fill-rule:nonzero;stroke:none"
             id="path61512"
             inkscape:connector-curvature="0" /></g><g
           id="g61514"
           transform="translate(113.5343,20.4938)"><path
             d="m 0,0 -0.59,0 0,0.116 0,0.117 1.438,0 0,-0.116 0,-0.117 -0.59,0 0,-2.341 -0.129,0 L 0,-2.341 0,0 z"
             style="fill:#4c4c4c;fill-opacity:1;fill-rule:nonzero;stroke:none"
             id="path61516"
             inkscape:connector-curvature="0" /></g><g
           id="g61518"
           transform="translate(91.2574,19.8462)"><path
             d="m 0,0 c 0.248,0.167 0.422,0.36 0.52,0.577 0.127,0.282 0.112,0.578 -0.045,0.887 -0.158,0.31 -0.389,0.498 -0.692,0.563 -0.303,0.064 -0.645,0 -1.026,-0.194 l -0.829,-0.421 -0.163,-0.083 1.578,-3.105 0.164,0.083 0.163,0.083 -1.437,2.826 0.665,0.339 c 0.278,0.141 0.527,0.189 0.747,0.143 C -0.136,1.653 0.031,1.518 0.144,1.296 0.256,1.074 0.266,0.862 0.173,0.658 0.096,0.487 -0.051,0.34 -0.259,0.213 l -0.499,0.412 0.068,0.383 0.523,-0.032 0,0.463 -0.802,0 c 0,0 -0.3,-0.878 -0.236,-0.942 0.064,-0.064 0.432,-0.431 0.472,-0.534 L 1.1,-0.883 1.306,-0.778 1.512,-0.673 0,0 z"
             style="fill:#4c4c4c;fill-opacity:1;fill-rule:nonzero;stroke:none"
             id="path61520"
             inkscape:connector-curvature="0" /></g><g
           id="g61522"
           transform="translate(91.0909,23.3458)"><path
             d="m 0,0 0.479,0 -0.351,-1.006 -0.323,0 L 0,0 z"
             style="fill:#4c4c4c;fill-opacity:1;fill-rule:nonzero;stroke:none"
             id="path61524"
             inkscape:connector-curvature="0" /></g><g
           id="g61526"
           transform="translate(91.5701,22.2277)"><path
             d="M 0,0 0.16,-0.16 0.926,0.615 0.463,1.006 0,0 z"
             style="fill:#4c4c4c;fill-opacity:1;fill-rule:nonzero;stroke:none"
             id="path61528"
             inkscape:connector-curvature="0" /></g><g
           id="g61530"
           transform="translate(91.9694,21.8972)"><path
             d="M 0,0 0.8,0.698 1.006,0.075 0.16,-0.26 0,0 z"
             style="fill:#4c4c4c;fill-opacity:1;fill-rule:nonzero;stroke:none"
             id="path61532"
             inkscape:connector-curvature="0" /></g><path
           d="m 28.529,27.183 2.82,0 0,-8.852 -2.82,0 0,8.852 z"
           style="fill:#4c4c4c;fill-opacity:1;fill-rule:nonzero;stroke:none"
           id="path61534"
           inkscape:connector-curvature="0" /><g
           id="g61536"
           transform="translate(39.0423,20.8548)"><path
             d="m 0,0 c -0.064,-0.028 -0.136,-0.039 -0.206,-0.047 -0.07,-0.008 -0.142,-0.003 -0.213,-0.003 -1.219,0 -2.438,0 -3.657,0 l 0,0.717 3.957,0 C -0.083,0.661 -0.048,0.653 -0.014,0.641 0.125,0.59 0.226,0.446 0.219,0.313 0.211,0.166 0.133,0.058 0,0 m -0.46,3.871 c 0.079,0 0.159,0.004 0.237,-0.003 C -0.152,3.862 -0.08,3.854 -0.014,3.83 0.125,3.78 0.226,3.636 0.219,3.503 0.211,3.356 0.133,3.248 0,3.19 -0.064,3.162 -0.136,3.151 -0.206,3.143 -0.235,3.139 -0.265,3.139 -0.294,3.139 c -0.009,0 -0.018,0 -0.027,0 -0.033,0 -0.066,0.001 -0.098,0.001 -1.219,0 -2.438,0 -3.657,0 l 0,0.73 c 1.205,0 2.411,0 3.616,10e-4 M 2.994,1.923 C 3.063,2.039 3.125,2.161 3.18,2.293 3.521,3.112 3.512,3.945 3.171,4.762 2.849,5.531 2.274,6.029 1.464,6.245 1.194,6.316 -6.897,6.328 -6.897,6.328 l 0,-8.851 c 0,0 6.298,0 8.036,0 0.08,0.029 0.158,0.067 0.24,0.087 0.862,0.208 1.463,0.728 1.801,1.539 C 3.521,-0.078 3.512,0.755 3.171,1.572 3.119,1.696 3.059,1.813 2.994,1.923"
             style="fill:#4c4c4c;fill-opacity:1;fill-rule:nonzero;stroke:none"
             id="path61538"
             inkscape:connector-curvature="0" /></g><g
           id="g61540"
           transform="translate(21.9308,19.7987)"><path
             d="m 0,0 0,7.385 -2.82,0 0,-8.852 8.8,0 L 5.98,0 0,0 z"
             style="fill:#4c4c4c;fill-opacity:1;fill-rule:nonzero;stroke:none"
             id="path61542"
             inkscape:connector-curvature="0" /></g><path
           d="m 123.458,33.901 -118.916,0 0,2.56 118.916,0 0,-2.56 z"
           style="fill:#404040;fill-opacity:1;fill-rule:nonzero;stroke:none"
           id="path61544"
           inkscape:connector-curvature="0" /><path
           d="m 108.073,45.598 -12.737,0 0,12.737 12.737,0 0,-12.737 z"
           style="fill:#191919;fill-opacity:1;fill-rule:nonzero;stroke:none"
           id="path61546"
           inkscape:connector-curvature="0" /><g
           id="g61548"
           transform="translate(103.0128,50.6592)"><path
             d="M 0,0 C 0.779,0.526 1.324,1.129 1.633,1.81 2.031,2.698 1.983,3.626 1.49,4.595 0.995,5.569 0.271,6.158 -0.681,6.362 -1.633,6.566 -2.707,6.363 -3.903,5.756 l -2.602,-1.324 -0.512,-0.26 4.956,-9.746 0.512,0.26 0.512,0.261 -4.511,8.871 2.09,1.063 c 0.872,0.443 1.653,0.593 2.342,0.45 C -0.426,5.188 0.096,4.766 0.452,4.067 0.805,3.373 0.836,2.706 0.544,2.066 0.3,1.53 -0.161,1.067 -0.814,0.668 l -1.564,1.293 0.212,1.203 1.643,-0.1 0,1.454 -2.518,0 c 0,0 -0.941,-2.758 -0.741,-2.959 0.201,-0.2 1.354,-1.353 1.483,-1.676 l 5.751,-2.654 0.647,0.33 0.649,0.33 L 0,0 z"
             style="fill:#ff0000;fill-opacity:1;fill-rule:nonzero;stroke:none"
             id="path61550"
             inkscape:connector-curvature="0" /></g><g
           id="g61552"
           transform="translate(102.4901,61.645)"><path
             d="m 0,0 1.504,0 -1.103,-3.159 -1.013,0 L 0,0 z"
             style="fill:#ff0000;fill-opacity:1;fill-rule:nonzero;stroke:none"
             id="path61554"
             inkscape:connector-curvature="0" /></g><g
           id="g61556"
           transform="translate(103.9943,58.1352)"><path
             d="M 0,0 0.501,-0.501 2.908,1.93 1.454,3.159 0,0 z"
             style="fill:#00ff00;fill-opacity:1;fill-rule:nonzero;stroke:none"
             id="path61558"
             inkscape:connector-curvature="0" /></g><g
           id="g61560"
           transform="translate(105.2478,57.0976)"><path
             d="M 0,0 2.513,2.191 3.159,0.235 0.501,-0.818 0,0 z"
             style="fill:#0000ff;fill-opacity:1;fill-rule:nonzero;stroke:none"
             id="path61562"
             inkscape:connector-curvature="0" /></g><path
           d="m 96.228,81.255 11.888,0 0,-2.826 -11.888,0 0,2.826 z m 11.888,-14.333 -11.888,0 0,11.042 11.888,0 0,-11.042 z m -12.312,14.746 0,-3.239 0,-0.461 0,-11.115 0,-0.395 0,-2.828 12.737,0 0,2.828 0,0.395 0,11.115 0,0.461 0,3.239 -12.737,0 z"
           style="fill:#000000;fill-opacity:1;fill-rule:nonzero;stroke:none"
           id="path61564"
           inkscape:connector-curvature="0" /><g
           id="g61566"
           transform="translate(97.6732,65.4208)"><path
             d="m 0,0 1.338,0 0,-1.053 c -0.403,-0.08 -0.87,-0.133 -1.295,-0.133 -0.935,0 -1.392,0.443 -1.392,1.058 0,0.615 0.457,1.058 1.421,1.058 0.798,0 1.216,-0.203 1.227,-0.674 l -0.965,0 C 0.331,0.32 0.299,0.362 0.255,0.387 0.212,0.412 0.151,0.423 0.086,0.423 c -0.154,0 -0.255,-0.061 -0.305,-0.142 -0.051,-0.08 -0.065,-0.278 -0.065,-0.448 0,-0.195 0.021,-0.329 0.068,-0.393 0.061,-0.083 0.162,-0.119 0.295,-0.119 0.097,0 0.191,0.011 0.273,0.041 l 0,0.243 L 0,-0.395 0,0 z"
             style="fill:#cfd1e1;fill-opacity:1;fill-rule:nonzero;stroke:none"
             id="path61568"
             inkscape:connector-curvature="0" /></g><g
           id="g61570"
           transform="translate(100.7793,65.1007)"><path
             d="m 0,0 -0.205,0.758 -0.007,0 L -0.439,0 0,0 z m -0.853,1.197 1.335,0 0.834,-2.01 -1.064,0 -0.101,0.323 -0.745,0 -0.104,-0.323 -0.986,0 0.831,2.01 z"
             style="fill:#cfd1e1;fill-opacity:1;fill-rule:nonzero;stroke:none"
             id="path61572"
             inkscape:connector-curvature="0" /></g><g
           id="g61574"
           transform="translate(104.7735,65.7244)"><path
             d="m 0,0 -0.007,0 -0.367,-1.437 -0.943,0 -0.366,1.437 -0.008,0 0,-1.437 -0.87,0 0,2.011 1.428,0 0.284,-1.198 0.007,0 0.284,1.198 1.428,0 0,-2.011 -0.87,0 L 0,0 z"
             style="fill:#cfd1e1;fill-opacity:1;fill-rule:nonzero;stroke:none"
             id="path61576"
             inkscape:connector-curvature="0" /></g><g
           id="g61578"
           transform="translate(106.013,66.2981)"><path
             d="m 0,0 1.975,0 0,-0.524 -0.989,0 0,-0.214 0.913,0 0,-0.523 -0.913,0 0,-0.226 1.021,0 0,-0.523 L 0,-2.01 0,0 z"
             style="fill:#cfd1e1;fill-opacity:1;fill-rule:nonzero;stroke:none"
             id="path61580"
             inkscape:connector-curvature="0" /></g><g
           id="g61582"
           transform="translate(98.0741,80.7621)"><path
             d="m 0,0 0.468,0 -0.618,-1.697 -0.562,0 -0.6,1.697 0.52,0 0.383,-1.229 0.005,0 L 0,0 z"
             style="fill:#000000;fill-opacity:1;fill-rule:nonzero;stroke:none"
             id="path61584"
             inkscape:connector-curvature="0" /></g><path
           d="m 98.642,80.762 0.47,0 0,-1.697 -0.47,0 0,1.697 z"
           style="fill:#000000;fill-opacity:1;fill-rule:nonzero;stroke:none"
           id="path61586"
           inkscape:connector-curvature="0" /><g
           id="g61588"
           transform="translate(99.3376,80.7621)"><path
             d="m 0,0 0.658,0 0.569,-1.264 0.005,0.004 0,1.26 0.423,0 0,-1.697 -0.651,0 -0.576,1.3 -0.005,0 0,-1.3 L 0,-1.697 0,0 z"
             style="fill:#000000;fill-opacity:1;fill-rule:nonzero;stroke:none"
             id="path61590"
             inkscape:connector-curvature="0" /></g><g
           id="g61592"
           transform="translate(101.6044,80.4331)"><path
             d="m 0,0 -0.519,0 0,0.329 1.52,0 0,-0.329 -0.531,0 0,-1.368 -0.47,0 L 0,0 z"
             style="fill:#000000;fill-opacity:1;fill-rule:nonzero;stroke:none"
             id="path61594"
             inkscape:connector-curvature="0" /></g><g
           id="g61596"
           transform="translate(103.5513,79.7256)"><path
             d="m 0,0 -0.216,0.705 -0.007,0 L -0.454,0 0,0 z m -1.154,-0.66 0.67,1.697 0.573,0 0.67,-1.697 -0.531,0 -0.113,0.331 -0.689,0 -0.11,-0.331 -0.47,0 z"
             style="fill:#000000;fill-opacity:1;fill-rule:nonzero;stroke:none"
             id="path61598"
             inkscape:connector-curvature="0" /></g><g
           id="g61600"
           transform="translate(105.5855,79.6998)"><path
             d="m 0,0 -0.346,0 0,0.329 0.816,0 0,-0.907 C 0.089,-0.635 0.016,-0.67 -0.393,-0.67 c -0.528,0.017 -0.85,0.353 -0.85,0.884 0,0.531 0.322,0.867 0.85,0.884 0.412,0.011 0.844,-0.05 0.851,-0.543 l -0.47,0 c -0.023,0.164 -0.153,0.214 -0.308,0.214 -0.317,0 -0.43,-0.28 -0.43,-0.555 0,-0.334 0.167,-0.555 0.505,-0.555 0.087,0 0.174,0.014 0.245,0.028 L 0,0 z"
             style="fill:#000000;fill-opacity:1;fill-rule:nonzero;stroke:none"
             id="path61602"
             inkscape:connector-curvature="0" /></g><g
           id="g61604"
           transform="translate(106.2892,79.0652)"><path
             d="m 0,0 0,1.697 1.293,0 0,-0.329 -0.823,0 0,-0.35 0.757,0 0,-0.329 -0.757,0 0,-0.36 0.823,0 L 1.293,0 0,0 z"
             style="fill:#000000;fill-opacity:1;fill-rule:nonzero;stroke:none"
             id="path61606"
             inkscape:connector-curvature="0" /></g><g
           id="g61608"
           transform="translate(97.0388,75.0299)"><path
             d="M 0,0 3.241,0.976 6.268,-4.964 6.29,-4.957 5.58,1.68 8.631,2.598 8.802,-6.12 4.682,-7.361 0,0 z"
             style="fill:#000000;fill-opacity:1;fill-rule:nonzero;stroke:none"
             id="path61610"
             inkscape:connector-curvature="0" /></g><path
           d="m 78.074,84.392 -5.584,0 0,6.283 5.584,0 0,-6.283 z"
           style="fill:#f64a2e;fill-opacity:1;fill-rule:nonzero;stroke:none"
           id="path61612"
           inkscape:connector-curvature="0" /><path
           d="m 83.658,84.392 -5.584,0 0,6.283 5.584,0 0,-6.283 z"
           style="fill:#f68323;fill-opacity:1;fill-rule:nonzero;stroke:none"
           id="path61614"
           inkscape:connector-curvature="0" /><path
           d="m 89.241,84.392 -5.584,0 0,6.283 5.584,0 0,-6.283 z"
           style="fill:#fae71c;fill-opacity:1;fill-rule:nonzero;stroke:none"
           id="path61616"
           inkscape:connector-curvature="0" /><path
           d="m 94.825,84.392 -5.584,0 0,6.283 5.584,0 0,-6.283 z"
           style="fill:#8dc03c;fill-opacity:1;fill-rule:nonzero;stroke:none"
           id="path61618"
           inkscape:connector-curvature="0" /><path
           d="m 100.409,84.392 -5.584,0 0,6.283 5.584,0 0,-6.283 z"
           style="fill:#34b9fe;fill-opacity:1;fill-rule:nonzero;stroke:none"
           id="path61620"
           inkscape:connector-curvature="0" /><path
           d="m 105.993,84.392 -5.584,0 0,6.283 5.584,0 0,-6.283 z"
           style="fill:#4e58a6;fill-opacity:1;fill-rule:nonzero;stroke:none"
           id="path61622"
           inkscape:connector-curvature="0" /><g
           id="g61624"
           transform="translate(111.5767,84.3922)"><path
             d="m 0,0 -5.584,0 0,6.283 4.814,0 C -0.345,6.283 0,5.938 0,5.513 L 0,0 z"
             style="fill:#8343a4;fill-opacity:1;fill-rule:nonzero;stroke:none"
             id="path61626"
             inkscape:connector-curvature="0" /></g><g
           id="g61628"
           transform="translate(23.1514,47.3011)"><path
             d="m 0,0 c -0.086,-0.051 -0.191,-0.056 -0.288,-0.039 0.066,-0.162 0.093,-0.335 0.135,-0.503 0.048,-0.165 0.107,-0.365 0.283,-0.434 0.115,-0.053 0.248,-0.001 0.334,0.082 0.136,0.131 0.22,0.305 0.301,0.473 0.027,0.06 0.054,0.119 0.082,0.178 -0.124,0 -0.246,0.039 -0.352,0.101 C 0.39,-0.078 0.366,0.077 0.238,0.108 0.146,0.109 0.077,0.04 0,0 M 6.701,1.169 C 6.362,1.094 6.018,0.983 5.667,1.039 5.698,0.807 5.662,0.57 5.578,0.352 5.534,0.326 5.615,0.293 5.625,0.332 L 5.653,0.317 C 5.681,0.235 5.772,0.205 5.851,0.197 6.052,0.177 6.254,0.222 6.445,0.281 6.399,0.325 6.338,0.365 6.329,0.433 6.335,0.462 6.349,0.489 6.362,0.515 6.501,0.51 6.638,0.487 6.776,0.471 6.964,0.611 7.083,0.851 7.065,1.087 7.063,1.15 7.02,1.214 6.954,1.223 6.867,1.236 6.779,1.203 6.701,1.169 M 7.771,1.547 7.766,1.538 C 7.589,1.485 7.419,1.409 7.244,1.351 7.284,1.093 7.232,0.823 7.107,0.595 c -0.054,-0.034 0.059,-0.053 0.036,0 0.013,0 0.037,0.001 0.05,0.001 C 7.196,0.55 7.251,0.538 7.289,0.54 7.44,0.553 7.582,0.615 7.713,0.687 7.67,0.722 7.619,0.752 7.592,0.802 7.574,0.837 7.597,0.873 7.606,0.907 7.714,0.904 7.821,0.893 7.927,0.875 8.037,1.005 8.119,1.178 8.086,1.351 8.068,1.436 8.039,1.531 7.961,1.578 7.897,1.613 7.83,1.568 7.771,1.547 M 8.755,1.975 C 8.581,1.897 8.409,1.817 8.236,1.739 8.303,1.459 8.245,1.162 8.101,0.915 8.138,0.937 8.189,0.946 8.217,0.979 8.276,0.94 8.349,0.945 8.414,0.962 8.542,0.997 8.664,1.054 8.774,1.127 8.71,1.174 8.629,1.251 8.7,1.33 8.78,1.321 8.861,1.314 8.941,1.302 9.041,1.437 9.139,1.606 9.099,1.78 9.053,1.891 8.962,1.987 8.845,2.02 8.815,2.005 8.785,1.99 8.755,1.975 M 3.281,2.352 C 3.128,2.33 2.974,2.29 2.839,2.214 2.681,2.101 2.561,1.915 2.569,1.715 2.577,1.522 2.685,1.35 2.808,1.208 3.037,0.958 3.339,0.76 3.676,0.702 3.931,0.663 4.205,0.669 4.439,0.787 4.656,0.892 4.858,1.07 4.917,1.312 4.972,1.526 4.954,1.787 4.783,1.945 4.578,2.136 4.313,2.257 4.039,2.312 3.791,2.365 3.533,2.388 3.281,2.352 M 9.647,2.455 C 9.5,2.367 9.35,2.283 9.198,2.202 9.269,1.93 9.218,1.64 9.107,1.386 9.153,1.417 9.196,1.45 9.237,1.486 9.309,1.41 9.413,1.475 9.486,1.517 9.819,1.723 9.905,2.187 9.784,2.539 9.739,2.51 9.693,2.482 9.647,2.455 M -2.636,2.789 C -2.813,2.687 -2.969,2.523 -3.01,2.317 -3.057,2.07 -2.96,1.806 -2.779,1.635 -2.665,1.523 -2.512,1.457 -2.355,1.428 l 10e-4,-0.004 c 0.095,-0.007 0.193,-0.037 0.287,-0.012 0.328,0.009 0.649,0.132 0.911,0.328 0.196,0.149 0.367,0.368 0.368,0.625 0.008,0.127 -0.068,0.238 -0.149,0.328 -0.174,0.182 -0.427,0.264 -0.671,0.293 -0.351,0.036 -0.72,-0.019 -1.028,-0.197 m 12.959,0.145 c -0.072,-0.059 -0.144,-0.119 -0.22,-0.173 0.1,-0.176 0.06,-0.387 0.032,-0.577 0.028,0.034 0.057,0.069 0.086,0.103 0.002,-0.019 0.007,-0.055 0.01,-0.074 0.051,0.018 0.102,0.048 0.123,0.1 0.061,0.136 0.092,0.285 0.088,0.434 0.003,0.091 -0.031,0.18 -0.021,0.273 C 10.388,2.991 10.355,2.963 10.323,2.934 M 0.264,3.634 C 0.271,3.556 0.274,3.477 0.274,3.398 0.262,3.335 0.229,3.28 0.184,3.236 0.174,3.287 0.159,3.337 0.141,3.385 0.112,3.46 0.086,3.535 0.058,3.61 -0.507,3.536 -1.062,3.375 -1.577,3.132 -1.586,3.143 -1.603,3.165 -1.611,3.176 -1.65,3.154 -1.689,3.131 -1.729,3.109 -1.576,3.106 -1.424,3.083 -1.275,3.045 -1.151,3.009 -1.03,2.96 -0.92,2.891 l 0.003,0.002 C -0.855,2.846 -0.796,2.796 -0.742,2.74 -0.602,2.575 -0.58,2.336 -0.663,2.139 -0.813,1.769 -1.124,1.468 -1.499,1.329 -1.647,1.277 -1.802,1.246 -1.959,1.239 -2.136,1.233 -2.314,1.258 -2.482,1.313 -2.604,1.357 -2.717,1.42 -2.82,1.5 -2.805,1.326 -2.756,1.156 -2.679,1 -2.749,0.967 -2.842,0.886 -2.78,0.803 -2.697,0.715 -2.569,0.692 -2.454,0.67 c 0.305,-0.376 0.714,-0.653 1.142,-0.871 0.352,-0.178 0.723,-0.319 1.105,-0.416 -0.032,0.102 -0.056,0.206 -0.077,0.311 -0.019,0.094 -0.029,0.19 -0.054,0.282 -0.085,0.067 -0.151,0.155 -0.17,0.263 -0.004,0.073 0.006,0.148 0.045,0.211 C -0.472,0.37 -0.48,0.289 -0.46,0.21 -0.411,0.102 -0.308,0.021 -0.189,0.007 -0.12,0 -0.057,0.034 0.003,0.064 0.077,0.106 0.153,0.154 0.24,0.159 0.337,0.154 0.379,0.055 0.428,-0.014 l 0.002,0 c 0.096,-0.109 0.242,-0.189 0.39,-0.167 0.078,0.009 0.142,0.058 0.197,0.11 0.048,0.06 0.087,0.126 0.116,0.197 C 1.137,0.127 1.145,0.128 1.148,0.129 1.145,-0.028 1.034,-0.161 0.897,-0.225 0.884,-0.293 0.862,-0.358 0.842,-0.423 0.788,-0.53 0.731,-0.636 0.661,-0.734 0.63,-0.757 0.673,-0.762 0.688,-0.764 0.92,-0.785 1.153,-0.795 1.386,-0.802 1.97,-0.819 2.56,-0.811 3.135,-0.699 3.537,-0.621 3.932,-0.5 4.304,-0.33 4.596,-0.192 4.878,-0.015 5.085,0.238 5.27,0.473 5.353,0.794 5.271,1.085 5.205,1.308 5.101,1.518 4.98,1.715 5.016,1.577 5.05,1.433 5.029,1.29 5.021,1.2 4.983,1.117 4.952,1.034 l 0,-0.017 -0.01,0 C 4.842,0.855 4.693,0.727 4.521,0.646 3.939,0.377 3.193,0.527 2.761,1.002 2.575,1.211 2.404,1.467 2.407,1.757 2.412,1.992 2.578,2.188 2.776,2.297 3.107,2.483 3.5,2.528 3.873,2.494 4.036,2.472 4.2,2.439 4.35,2.368 4.402,2.343 4.455,2.321 4.509,2.303 4.362,2.471 4.189,2.613 4.015,2.75 3.967,2.787 3.916,2.818 3.864,2.848 3.135,3.269 2.315,3.529 1.479,3.624 1.454,3.554 1.428,3.485 1.403,3.415 1.378,3.348 1.355,3.279 1.333,3.21 1.275,3.267 1.256,3.346 1.247,3.424 1.25,3.497 1.256,3.571 1.263,3.644 0.93,3.669 0.596,3.665 0.264,3.634 M -0.758,4.027 C -0.798,3.94 -0.653,3.972 -0.604,3.976 -0.436,3.982 -0.27,4.009 -0.103,4.025 -0.115,4.049 -0.127,4.073 -0.14,4.096 -0.149,4.122 -0.158,4.149 -0.167,4.176 -0.173,4.187 -0.183,4.209 -0.188,4.22 -0.38,4.163 -0.577,4.114 -0.758,4.027 m 0.229,0.182 c 0.1,0.035 0.2,0.071 0.3,0.106 C -0.24,4.34 -0.251,4.364 -0.261,4.389 -0.352,4.331 -0.444,4.275 -0.529,4.209 M 1.793,4.428 C 1.788,4.413 1.779,4.383 1.775,4.368 l -0.005,0 C 1.761,4.348 1.752,4.327 1.743,4.306 1.733,4.28 1.723,4.254 1.713,4.229 1.706,4.21 1.698,4.192 1.691,4.173 1.677,4.138 1.663,4.103 1.649,4.068 2.367,4.005 3.083,3.842 3.733,3.524 4.544,3.136 5.228,2.504 5.71,1.748 5.739,1.708 5.792,1.626 5.845,1.681 5.912,1.824 5.888,1.99 5.874,2.143 5.837,2.47 5.62,2.738 5.397,2.964 5.053,3.301 4.643,3.564 4.215,3.78 3.461,4.152 2.632,4.376 1.793,4.428 M 0.073,4.292 C 0.075,4.28 0.081,4.256 0.084,4.244 L 0.089,4.246 C 0.1,4.213 0.112,4.18 0.124,4.147 0.134,4.115 0.144,4.083 0.155,4.05 0.557,4.086 0.962,4.1 1.365,4.083 1.379,4.127 1.393,4.172 1.406,4.217 1.42,4.262 1.435,4.306 1.45,4.351 l 0.003,0 c 0.01,0.031 0.02,0.062 0.031,0.092 -0.475,0 -0.949,-0.047 -1.411,-0.151 M -0.032,4.538 C -0.023,4.516 -0.013,4.494 -0.003,4.472 0.007,4.445 0.018,4.418 0.029,4.392 0.524,4.528 1.035,4.604 1.548,4.612 1.57,4.666 1.592,4.72 1.614,4.774 1.645,4.847 1.677,4.92 1.708,4.993 1.76,5.109 1.817,5.222 1.868,5.338 1.921,5.425 1.959,5.521 2.009,5.609 1.299,5.314 0.618,4.949 -0.032,4.538 m 5.953,1.24 C 5.374,5.664 4.836,5.489 4.34,5.229 4.099,5.097 3.859,4.95 3.681,4.737 3.609,4.649 3.548,4.536 3.573,4.418 3.602,4.308 3.702,4.236 3.802,4.197 4.279,4.009 4.732,3.759 5.141,3.449 5.447,3.213 5.735,2.945 5.951,2.622 6.07,2.438 6.181,2.23 6.174,2.005 c 0,-0.092 -0.05,-0.17 -0.087,-0.25 0.174,0.031 0.339,0.098 0.505,0.157 0.624,0.234 1.237,0.496 1.843,0.77 0.425,0.196 0.85,0.393 1.253,0.631 0.098,0.056 0.194,0.124 0.25,0.225 0.092,0.153 0.091,0.343 0.057,0.513 C 9.916,4.389 9.71,4.681 9.479,4.933 9.196,5.236 8.86,5.485 8.498,5.684 8.273,5.774 8.033,5.823 7.794,5.859 7.172,5.949 6.536,5.903 5.921,5.778 M 2.586,5.832 C 2.534,5.812 2.478,5.801 2.432,5.769 2.389,5.702 2.355,5.629 2.319,5.558 2.219,5.371 2.129,5.178 2.039,4.986 2.01,4.923 1.981,4.86 1.954,4.796 l -0.003,0 C 1.925,4.733 1.898,4.67 1.871,4.608 2.045,4.598 2.22,4.581 2.392,4.609 2.525,4.627 2.652,4.671 2.775,4.721 3.682,5.107 4.593,5.493 5.537,5.784 6.124,5.964 6.727,6.106 7.341,6.154 7.284,6.17 7.228,6.19 7.169,6.198 6.899,6.27 6.622,6.314 6.345,6.345 5.073,6.478 3.785,6.256 2.586,5.832 M -4.788,7.146 C -4.906,7.083 -4.997,6.975 -5.037,6.847 -5.068,6.763 -5.073,6.669 -5.056,6.581 -5.046,6.54 -5.034,6.5 -5.014,6.463 c 0.093,-0.23 0.367,-0.355 0.604,-0.3 0.215,0.04 0.395,0.226 0.422,0.444 0.026,0.168 -0.037,0.347 -0.164,0.461 -0.167,0.159 -0.437,0.189 -0.636,0.078 M 6.161,7.67 C 6.05,7.39 6.113,7.034 6.351,6.838 6.48,6.731 6.659,6.685 6.822,6.728 7.021,6.777 7.182,6.941 7.248,7.132 7.266,7.178 7.279,7.225 7.285,7.274 7.305,7.385 7.301,7.502 7.266,7.61 7.211,7.865 6.974,8.083 6.706,8.077 6.459,8.079 6.245,7.893 6.161,7.67 M 3.86,7.659 C 3.313,7.19 2.896,6.589 2.54,5.967 3.784,6.392 5.107,6.609 6.422,6.523 6.175,6.629 5.966,6.831 5.873,7.085 5.804,7.27 5.81,7.485 5.906,7.659 6.012,7.855 6.199,7.995 6.398,8.089 6.413,8.093 6.455,8.119 6.417,8.128 6.082,8.263 5.719,8.337 5.357,8.315 4.799,8.286 4.279,8.018 3.86,7.659 m 1.826,1.04 0.383,0 C 6.441,8.671 6.842,8.596 7.124,8.331 7.338,8.136 7.421,7.835 7.403,7.552 7.384,7.258 7.33,6.949 7.149,6.709 7.069,6.599 6.948,6.53 6.822,6.486 7.622,6.397 8.414,6.189 9.133,5.825 9.522,5.627 9.889,5.379 10.196,5.067 10.452,4.8 10.67,4.478 10.745,4.111 10.79,3.902 10.777,3.683 10.712,3.48 10.845,3.154 10.816,2.784 10.708,2.455 10.612,2.16 10.429,1.886 10.166,1.715 10.092,1.665 9.999,1.669 9.914,1.679 9.79,1.494 9.641,1.326 9.468,1.185 c 0.356,-0.109 0.7,-0.27 0.996,-0.498 0.229,-0.179 0.429,-0.407 0.535,-0.68 0.049,-0.126 0.073,-0.259 0.088,-0.393 l 0,-0.16 c -0.011,-0.078 -0.026,-0.161 -0.077,-0.224 -0.059,-0.072 -0.181,-0.089 -0.252,-0.024 -0.033,0.034 -0.022,0.086 -0.023,0.128 0.018,0.164 -0.056,0.316 -0.103,0.469 C 10.531,0.102 10.352,0.38 10.09,0.561 9.837,0.756 9.518,0.818 9.226,0.932 9.113,0.985 8.983,0.971 8.869,1.019 8.772,0.909 8.663,0.811 8.543,0.726 8.935,0.589 9.317,0.4 9.628,0.121 9.898,-0.118 10.108,-0.44 10.157,-0.803 10.176,-0.97 10.196,-1.156 10.11,-1.309 10.053,-1.413 9.876,-1.445 9.806,-1.338 9.774,-1.243 9.817,-1.139 9.787,-1.043 9.709,-0.775 9.624,-0.503 9.463,-0.272 9.314,-0.054 9.102,0.114 8.87,0.234 8.695,0.314 8.509,0.369 8.327,0.434 8.224,0.468 8.122,0.523 8.01,0.509 7.939,0.503 7.873,0.531 7.811,0.559 7.701,0.459 7.576,0.379 7.449,0.304 7.526,0.261 7.613,0.239 7.694,0.204 8.057,0.053 8.406,-0.144 8.695,-0.413 8.964,-0.66 9.179,-0.98 9.251,-1.342 9.289,-1.542 9.315,-1.755 9.249,-1.952 9.222,-2.038 9.15,-2.106 9.062,-2.127 l -0.078,0 C 8.934,-2.111 8.875,-2.091 8.862,-2.035 8.838,-1.93 8.881,-1.821 8.848,-1.717 8.751,-1.385 8.644,-1.045 8.43,-0.767 8.256,-0.54 8.02,-0.364 7.764,-0.239 7.409,-0.092 7.036,0.008 6.682,0.161 6.376,-0.03 6.003,-0.053 5.652,-0.05 5.559,-0.053 5.467,-0.033 5.38,-0.001 5.134,-0.294 4.806,-0.509 4.463,-0.671 4.138,-0.818 3.798,-0.929 3.453,-1.014 2.909,-1.143 2.348,-1.182 1.79,-1.184 1.22,-1.171 0.647,-1.16 0.084,-1.058 -0.592,-0.943 -1.241,-0.687 -1.832,-0.342 -1.879,-0.497 -1.914,-0.655 -1.947,-0.814 -1.97,-0.92 -1.939,-1.03 -1.959,-1.137 -1.974,-1.225 -2.092,-1.256 -2.156,-1.2 c -0.086,0.075 -0.099,0.199 -0.11,0.305 -0.016,0.263 0.022,0.528 0.099,0.779 -0.165,0.125 -0.324,0.262 -0.462,0.418 -0.146,-0.141 -0.263,-0.311 -0.346,-0.496 -0.114,-0.256 -0.176,-0.531 -0.235,-0.803 -0.024,-0.113 0.007,-0.228 -0.015,-0.34 -0.02,-0.093 -0.154,-0.109 -0.211,-0.042 -0.079,0.089 -0.089,0.216 -0.097,0.329 -0.01,0.343 0.055,0.692 0.211,1 0.117,0.234 0.283,0.442 0.473,0.619 -0.242,0.319 -0.369,0.722 -0.345,1.122 0.005,0.13 0.034,0.256 0.06,0.383 0.074,0.174 0.119,0.36 0.211,0.527 0.082,0.102 0.141,0.233 0.259,0.299 0.136,0.043 0.216,0.171 0.328,0.251 0.135,0.096 0.267,0.195 0.411,0.277 0.089,0.053 0.185,0.094 0.265,0.159 0.425,0.343 0.867,0.666 1.326,0.962 C -0.527,4.959 -0.74,5.361 -0.993,5.737 -1.266,6.142 -1.584,6.524 -1.974,6.822 -2.327,7.095 -2.748,7.288 -3.193,7.34 -3.551,7.385 -3.916,7.337 -4.259,7.231 -4.079,7.148 -3.896,7.042 -3.792,6.867 -3.7,6.715 -3.713,6.514 -3.806,6.366 -3.94,6.148 -4.181,6.005 -4.432,5.972 -4.617,5.946 -4.816,6.004 -4.942,6.146 -5.081,6.3 -5.13,6.51 -5.151,6.711 l 0,0.234 c 0.028,0.188 0.124,0.368 0.283,0.478 0.274,0.197 0.624,0.237 0.953,0.248 0.405,0 0.811,-0.052 1.199,-0.17 0.542,-0.178 0.993,-0.551 1.379,-0.96 0.506,-0.545 0.91,-1.177 1.233,-1.845 0.706,0.438 1.448,0.819 2.223,1.116 0.443,0.781 0.963,1.534 1.645,2.126 0.282,0.241 0.595,0.455 0.946,0.581 0.314,0.109 0.646,0.155 0.976,0.18"
             style="fill:#000000;fill-opacity:1;fill-rule:nonzero;stroke:none"
             id="path61630"
             inkscape:connector-curvature="0" /></g><g
           id="g61632"
           transform="translate(33.572,50.3206)"><path
             d="m 0,0 c -0.033,-0.028 -0.066,-0.056 -0.098,-0.085 -0.072,-0.059 -0.143,-0.12 -0.22,-0.174 0.101,-0.176 0.061,-0.387 0.032,-0.577 0.029,0.034 0.057,0.069 0.086,0.103 0.003,-0.018 0.008,-0.055 0.01,-0.073 0.052,0.017 0.102,0.047 0.123,0.1 0.062,0.135 0.092,0.285 0.089,0.433 C 0.024,-0.181 -0.009,-0.092 0,0"
             style="fill:#74b743;fill-opacity:1;fill-rule:nonzero;stroke:none"
             id="path61634"
             inkscape:connector-curvature="0" /></g><g
           id="g61636"
           transform="translate(32.7981,49.7564)"><path
             d="m 0,0 c -0.147,-0.088 -0.297,-0.172 -0.449,-0.254 0.071,-0.271 0.02,-0.562 -0.09,-0.816 0.045,0.031 0.088,0.065 0.129,0.101 0.072,-0.076 0.176,-0.011 0.249,0.03 0.334,0.207 0.419,0.67 0.299,1.022 C 0.092,0.055 0.046,0.027 0,0"
             style="fill:#74b743;fill-opacity:1;fill-rule:nonzero;stroke:none"
             id="path61638"
             inkscape:connector-curvature="0" /></g><g
           id="g61640"
           transform="translate(32.0922,48.6029)"><path
             d="M 0,0 C 0.1,0.135 0.198,0.304 0.159,0.479 0.112,0.589 0.022,0.685 -0.096,0.719 -0.126,0.704 -0.156,0.688 -0.186,0.674 -0.359,0.595 -0.532,0.515 -0.705,0.437 c 0.067,-0.28 0.009,-0.577 -0.134,-0.824 0.036,0.022 0.087,0.031 0.116,0.064 0.058,-0.038 0.131,-0.034 0.196,-0.016 0.128,0.034 0.25,0.091 0.36,0.164 -0.063,0.047 -0.145,0.124 -0.074,0.203 C -0.161,0.019 -0.08,0.012 0,0"
             style="fill:#74b743;fill-opacity:1;fill-rule:nonzero;stroke:none"
             id="path61642"
             inkscape:connector-curvature="0" /></g><g
           id="g61644"
           transform="translate(31.1122,48.8793)"><path
             d="M 0,0 C -0.064,0.035 -0.13,-0.01 -0.19,-0.031 L -0.195,-0.04 c -0.177,-0.053 -0.347,-0.129 -0.522,-0.188 0.04,-0.257 -0.012,-0.528 -0.137,-0.755 0.009,0 0.027,-0.001 0.036,-0.001 0.013,0.001 0.038,0.002 0.05,0.002 0.003,-0.047 0.058,-0.059 0.096,-0.056 0.151,0.012 0.293,0.074 0.424,0.146 -0.043,0.036 -0.093,0.066 -0.121,0.116 -0.018,0.035 0.005,0.071 0.014,0.105 0.108,-0.003 0.215,-0.014 0.321,-0.032 0.11,0.13 0.192,0.302 0.159,0.476 C 0.107,-0.142 0.078,-0.047 0,0"
             style="fill:#74b743;fill-opacity:1;fill-rule:nonzero;stroke:none"
             id="path61646"
             inkscape:connector-curvature="0" /></g><g
           id="g61648"
           transform="translate(30.1051,48.524)"><path
             d="m 0,0 c -0.087,0.013 -0.174,-0.02 -0.253,-0.054 -0.339,-0.074 -0.683,-0.186 -1.034,-0.13 0.031,-0.232 -0.005,-0.469 -0.088,-0.687 0.011,-0.005 0.035,-0.015 0.047,-0.02 l 0.027,-0.015 c 0.029,-0.082 0.119,-0.112 0.198,-0.12 0.201,-0.02 0.403,0.025 0.595,0.084 -0.047,0.044 -0.108,0.084 -0.117,0.152 0.006,0.029 0.021,0.056 0.033,0.082 0.139,-0.005 0.277,-0.028 0.415,-0.044 0.188,0.14 0.306,0.38 0.288,0.616 C 0.109,-0.073 0.066,-0.009 0,0"
             style="fill:#74b743;fill-opacity:1;fill-rule:nonzero;stroke:none"
             id="path61650"
             inkscape:connector-curvature="0" /></g><g
           id="g61652"
           transform="translate(20.7551,50.0778)"><path
             d="M 0,0 C 0.295,0.138 0.647,0.114 0.941,-0.017 1.127,-0.099 1.304,-0.233 1.376,-0.43 1.253,-0.345 1.136,-0.249 1.001,-0.182 0.74,-0.042 0.425,0.018 0.138,-0.077 0.276,-0.084 0.415,-0.155 0.463,-0.292 0.477,-0.347 0.484,-0.404 0.486,-0.46 0.458,-0.585 0.366,-0.687 0.245,-0.729 0.152,-0.737 0.049,-0.734 -0.028,-0.674 c -0.081,0.052 -0.121,0.145 -0.14,0.236 0,0.093 0.036,0.18 0.084,0.259 -0.16,-0.102 -0.285,-0.243 -0.393,-0.396 C -0.402,-0.331 -0.234,-0.11 0,0"
             style="fill:#ffffff;fill-opacity:1;fill-rule:nonzero;stroke:none"
             id="path61654"
             inkscape:connector-curvature="0" /></g><g
           id="g61656"
           transform="translate(26.5765,49.5718)"><path
             d="M 0,0 C 0.353,0.067 0.721,-0.041 1.014,-0.24 1.191,-0.364 1.358,-0.535 1.393,-0.757 1.178,-0.511 0.924,-0.284 0.61,-0.174 0.463,-0.121 0.305,-0.1 0.149,-0.105 0.253,-0.187 0.316,-0.329 0.259,-0.458 0.249,-0.481 0.237,-0.504 0.225,-0.526 0.155,-0.614 0.04,-0.641 -0.067,-0.628 c -0.062,0.012 -0.112,0.053 -0.156,0.096 -0.079,0.095 -0.069,0.228 -0.025,0.337 C -0.389,-0.258 -0.514,-0.349 -0.632,-0.447 -0.499,-0.216 -0.262,-0.048 0,0"
             style="fill:#ffffff;fill-opacity:1;fill-rule:nonzero;stroke:none"
             id="path61658"
             inkscape:connector-curvature="0" /></g><g
           id="g61660"
           transform="translate(29.5028,54.1394)"><path
             d="M 0,0 C 0.128,-0.108 0.308,-0.153 0.471,-0.111 0.67,-0.062 0.83,0.102 0.896,0.294 0.914,0.339 0.927,0.387 0.933,0.436 0.954,0.547 0.95,0.664 0.915,0.771 0.86,1.027 0.623,1.245 0.354,1.238 0.108,1.24 -0.106,1.055 -0.19,0.832 -0.301,0.552 -0.238,0.196 0,0"
             style="fill:#ddbd25;fill-opacity:1;fill-rule:nonzero;stroke:none"
             id="path61662"
             inkscape:connector-curvature="0" /></g><g
           id="g61664"
           transform="translate(18.9992,54.3694)"><path
             d="m 0,0 c -0.166,0.159 -0.436,0.188 -0.636,0.077 -0.118,-0.062 -0.209,-0.171 -0.248,-0.298 -0.032,-0.085 -0.037,-0.178 -0.02,-0.266 0.01,-0.041 0.022,-0.082 0.042,-0.119 0.093,-0.229 0.367,-0.354 0.604,-0.3 0.216,0.041 0.395,0.226 0.422,0.444 C 0.19,-0.293 0.127,-0.114 0,0"
             style="fill:#ddbd25;fill-opacity:1;fill-rule:nonzero;stroke:none"
             id="path61666"
             inkscape:connector-curvature="0" /></g><g
           id="g61668"
           transform="translate(25.102,52.0974)"><path
             d="m 0,0 c -0.026,-0.063 -0.052,-0.126 -0.079,-0.189 0.173,-0.009 0.348,-0.026 0.521,0.001 0.132,0.018 0.259,0.062 0.382,0.113 0.908,0.386 1.818,0.772 2.762,1.063 0.587,0.18 1.19,0.322 1.805,0.369 C 5.334,1.373 5.277,1.394 5.219,1.401 4.949,1.474 4.672,1.518 4.394,1.549 3.123,1.682 1.835,1.46 0.635,1.036 0.584,1.015 0.527,1.005 0.481,0.973 0.438,0.905 0.405,0.833 0.368,0.762 0.268,0.575 0.179,0.382 0.089,0.19 0.06,0.127 0.031,0.064 0.004,0 L 0,0 z"
             style="fill:#ddbd25;fill-opacity:1;fill-rule:nonzero;stroke:none"
             id="path61670"
             inkscape:connector-curvature="0" /></g><g
           id="g61672"
           transform="translate(33.146,51.3519)"><path
             d="M 0,0 C -0.079,0.338 -0.284,0.63 -0.516,0.882 -0.798,1.185 -1.135,1.435 -1.497,1.633 -1.722,1.723 -1.962,1.772 -2.2,1.808 -2.823,1.898 -3.459,1.852 -4.073,1.727 -4.621,1.613 -5.159,1.438 -5.655,1.178 -5.895,1.046 -6.136,0.899 -6.313,0.686 -6.386,0.598 -6.447,0.485 -6.421,0.367 c 0.028,-0.109 0.128,-0.181 0.229,-0.221 0.477,-0.188 0.93,-0.438 1.338,-0.748 0.307,-0.236 0.594,-0.504 0.81,-0.827 0.12,-0.184 0.231,-0.392 0.224,-0.617 0,-0.092 -0.05,-0.17 -0.088,-0.25 0.175,0.031 0.34,0.098 0.506,0.157 0.623,0.234 1.236,0.496 1.843,0.77 0.425,0.196 0.85,0.393 1.253,0.631 0.098,0.056 0.193,0.125 0.249,0.225 C 0.035,-0.36 0.035,-0.17 0,0"
             style="fill:#ddbd25;fill-opacity:1;fill-rule:nonzero;stroke:none"
             id="path61674"
             inkscape:connector-curvature="0" /></g><g
           id="g61676"
           transform="translate(23.1808,51.6927)"><path
             d="M 0,0 C 0.494,0.137 1.006,0.212 1.519,0.221 1.541,0.274 1.563,0.328 1.585,0.382 1.616,0.456 1.648,0.529 1.679,0.602 1.731,0.717 1.788,0.83 1.839,0.946 1.891,1.033 1.929,1.129 1.98,1.218 1.269,0.922 0.589,0.557 -0.062,0.146 -0.052,0.124 -0.042,0.102 -0.033,0.08 -0.022,0.053 -0.011,0.027 0,0"
             style="fill:#ddbd25;fill-opacity:1;fill-rule:nonzero;stroke:none"
             id="path61678"
             inkscape:connector-curvature="0" /></g><g
           id="g61680"
           transform="translate(23.2401,51.5467)"><path
             d="m 0,0 c 0.011,-0.033 0.023,-0.066 0.035,-0.099 0.01,-0.032 0.021,-0.064 0.031,-0.096 0.402,0.036 0.807,0.049 1.21,0.032 0.014,0.045 0.028,0.089 0.041,0.134 0.015,0.045 0.03,0.09 0.045,0.135 L 1.364,0.105 c 0.011,0.031 0.021,0.062 0.031,0.093 -0.474,0 -0.948,-0.047 -1.411,-0.152 0.003,-0.012 0.008,-0.035 0.011,-0.047 L 0,0 z"
             style="fill:#ddbd25;fill-opacity:1;fill-rule:nonzero;stroke:none"
             id="path61682"
             inkscape:connector-curvature="0" /></g><g
           id="g61684"
           transform="translate(28.5487,50.2654)"><path
             d="M 0,0 C -0.345,0.336 -0.754,0.599 -1.183,0.816 -1.937,1.188 -2.765,1.412 -3.605,1.463 -3.609,1.448 -3.618,1.419 -3.623,1.404 l -0.004,0 C -3.636,1.383 -3.645,1.362 -3.654,1.341 -3.664,1.316 -3.674,1.29 -3.684,1.264 -3.691,1.246 -3.699,1.227 -3.707,1.209 -3.72,1.174 -3.734,1.138 -3.748,1.103 -3.03,1.041 -2.314,0.878 -1.664,0.56 c 0.811,-0.388 1.495,-1.02 1.977,-1.776 0.029,-0.04 0.082,-0.123 0.134,-0.067 0.068,0.143 0.044,0.309 0.03,0.461 C 0.439,-0.494 0.223,-0.227 0,0"
             style="fill:#ddbd25;fill-opacity:1;fill-rule:nonzero;stroke:none"
             id="path61686"
             inkscape:connector-curvature="0" /></g><g
           id="g61688"
           transform="translate(22.8902,51.69)"><path
             d="m 0,0 c -0.091,-0.058 -0.182,-0.114 -0.268,-0.179 0.1,0.034 0.2,0.071 0.3,0.105 C 0.021,-0.049 0.011,-0.024 0,0"
             style="fill:#ddbd25;fill-opacity:1;fill-rule:nonzero;stroke:none"
             id="path61690"
             inkscape:connector-curvature="0" /></g><g
           id="g61692"
           transform="translate(20.4874,50.2013)"><path
             d="M 0,0 C 0.136,0.043 0.216,0.17 0.328,0.251 0.211,0.177 0.107,0.087 0,0"
             style="fill:#ddbd25;fill-opacity:1;fill-rule:nonzero;stroke:none"
             id="path61694"
             inkscape:connector-curvature="0" /></g><g
           id="g61696"
           transform="translate(20.228,49.9022)"><path
             d="M 0,0 C -0.113,-0.154 -0.192,-0.336 -0.211,-0.527 -0.137,-0.353 -0.092,-0.167 0,0"
             style="fill:#ddbd25;fill-opacity:1;fill-rule:nonzero;stroke:none"
             id="path61698"
             inkscape:connector-curvature="0" /></g><g
           id="g61700"
           transform="translate(27.1108,47.1976)"><path
             d="m 0,0 c -0.295,0.012 -0.586,0.082 -0.863,0.183 -0.151,0.058 -0.302,0.123 -0.428,0.225 -0.042,0.038 -0.095,0.089 -0.08,0.152 0.038,0.063 0.119,0.073 0.186,0.081 0.228,0.016 0.456,-0.027 0.676,-0.083 C -0.276,0.495 -0.045,0.416 0.159,0.286 0.227,0.246 0.277,0.185 0.32,0.12 0.269,-0.008 0.113,0.007 0,0 M 1.02,1.818 C 1.057,1.68 1.091,1.537 1.069,1.393 1.062,1.303 1.024,1.221 0.992,1.138 L 0.993,1.12 0.982,1.12 C 0.882,0.958 0.734,0.83 0.561,0.75 -0.02,0.48 -0.767,0.63 -1.198,1.106 c -0.186,0.209 -0.358,0.465 -0.354,0.755 0.005,0.234 0.171,0.431 0.368,0.54 0.331,0.185 0.724,0.23 1.098,0.197 C 0.077,2.576 0.241,2.543 0.391,2.471 0.442,2.447 0.495,2.425 0.55,2.407 0.402,2.574 0.23,2.716 0.055,2.854 0.008,2.89 -0.043,2.921 -0.095,2.951 -0.824,3.373 -1.644,3.633 -2.48,3.727 -2.506,3.658 -2.531,3.588 -2.557,3.519 -2.582,3.451 -2.605,3.383 -2.626,3.314 -2.685,3.37 -2.704,3.45 -2.712,3.527 c 0.003,0.074 0.008,0.147 0.016,0.22 -0.333,0.025 -0.667,0.021 -1,-0.009 0.008,-0.079 0.01,-0.158 0.01,-0.237 C -3.698,3.438 -3.73,3.384 -3.775,3.339 -3.785,3.39 -3.8,3.44 -3.819,3.489 -3.847,3.563 -3.874,3.638 -3.901,3.713 -4.467,3.639 -5.021,3.479 -5.537,3.235 -5.545,3.246 -5.562,3.268 -5.571,3.28 -5.61,3.257 -5.649,3.235 -5.688,3.213 -5.535,3.21 -5.383,3.187 -5.235,3.149 -5.111,3.112 -4.989,3.064 -4.88,2.994 l 0.004,0.002 C -4.814,2.95 -4.755,2.9 -4.702,2.844 -4.562,2.678 -4.539,2.439 -4.622,2.242 -4.772,1.873 -5.084,1.571 -5.458,1.433 -5.606,1.381 -5.762,1.35 -5.919,1.343 -6.096,1.336 -6.273,1.361 -6.441,1.416 -6.563,1.46 -6.677,1.524 -6.779,1.603 -6.764,1.43 -6.716,1.26 -6.638,1.104 c 0.091,0.044 0.19,0.07 0.289,0.089 0.166,0.03 0.336,0.035 0.504,0.026 0.13,-0.012 0.262,-0.03 0.38,-0.089 C -5.419,1.106 -5.367,1.069 -5.366,1.012 -5.372,0.938 -5.446,0.9 -5.502,0.867 -5.656,0.8 -5.822,0.774 -5.988,0.757 -6.13,0.754 -6.273,0.753 -6.413,0.774 -6.109,0.398 -5.7,0.12 -5.271,-0.097 c 0.352,-0.178 0.722,-0.32 1.105,-0.417 -0.033,0.102 -0.057,0.207 -0.078,0.312 -0.018,0.093 -0.028,0.189 -0.054,0.281 -0.085,0.067 -0.15,0.155 -0.17,0.264 -0.003,0.073 0.007,0.147 0.045,0.21 -0.008,-0.08 -0.017,-0.161 0.004,-0.24 0.048,-0.108 0.152,-0.189 0.27,-0.202 0.07,-0.008 0.133,0.027 0.193,0.056 0.074,0.042 0.15,0.09 0.237,0.096 0.096,-0.005 0.139,-0.105 0.188,-0.173 l 0.002,-0.001 c 0.096,-0.108 0.241,-0.188 0.39,-0.167 0.077,0.01 0.141,0.058 0.196,0.11 0.048,0.06 0.087,0.127 0.117,0.198 0.003,0 0.011,0.002 0.015,0.002 -0.003,-0.156 -0.114,-0.289 -0.251,-0.354 -0.013,-0.067 -0.035,-0.132 -0.055,-0.197 -0.054,-0.108 -0.111,-0.213 -0.181,-0.311 -0.031,-0.023 0.012,-0.028 0.026,-0.03 0.232,-0.021 0.465,-0.031 0.699,-0.038 0.584,-0.018 1.173,-0.009 1.749,0.103 0.402,0.078 0.796,0.198 1.169,0.368 0.292,0.138 0.574,0.316 0.78,0.568 C 1.31,0.576 1.393,0.897 1.312,1.189 1.245,1.411 1.141,1.621 1.02,1.818"
             style="fill:#ddbd25;fill-opacity:1;fill-rule:nonzero;stroke:none"
             id="path61702"
             inkscape:connector-curvature="0" /></g><g
           id="g61704"
           transform="translate(22.5477,51.2772)"><path
             d="M 0,0 C 0.168,0.006 0.334,0.033 0.501,0.049 0.489,0.073 0.477,0.097 0.464,0.12 0.455,0.146 0.446,0.173 0.436,0.199 0.431,0.21 0.421,0.233 0.416,0.244 0.224,0.187 0.027,0.138 -0.154,0.051 -0.195,-0.036 -0.049,-0.004 0,0"
             style="fill:#ddbd25;fill-opacity:1;fill-rule:nonzero;stroke:none"
             id="path61706"
             inkscape:connector-curvature="0" /></g><g
           id="g61708"
           transform="translate(21.7564,49.8961)"><path
             d="m 0,0 c -0.261,0.14 -0.576,0.2 -0.863,0.104 0.138,-0.007 0.277,-0.078 0.325,-0.214 0.014,-0.055 0.02,-0.112 0.023,-0.169 -0.029,-0.125 -0.12,-0.227 -0.241,-0.268 -0.094,-0.009 -0.196,-0.005 -0.274,0.055 -0.08,0.052 -0.12,0.144 -0.139,0.235 0,0.094 0.036,0.181 0.083,0.259 -0.159,-0.101 -0.284,-0.243 -0.392,-0.395 0.075,0.244 0.243,0.465 0.477,0.575 C -0.706,0.32 -0.354,0.295 -0.06,0.165 0.125,0.082 0.303,-0.051 0.375,-0.248 0.251,-0.164 0.135,-0.068 0,0 m -0.213,0.391 c -0.351,0.036 -0.72,-0.019 -1.028,-0.197 -0.177,-0.102 -0.333,-0.266 -0.374,-0.472 -0.047,-0.247 0.05,-0.511 0.231,-0.682 0.114,-0.112 0.267,-0.178 0.424,-0.207 l 0.001,-0.004 c 0.095,-0.007 0.193,-0.037 0.287,-0.012 0.328,0.009 0.649,0.132 0.911,0.328 0.196,0.149 0.367,0.368 0.368,0.625 C 0.615,-0.103 0.539,0.008 0.458,0.098 0.284,0.28 0.031,0.362 -0.213,0.391"
             style="fill:#74b743;fill-opacity:1;fill-rule:nonzero;stroke:none"
             id="path61710"
             inkscape:connector-curvature="0" /></g><g
           id="g61712"
           transform="translate(27.187,49.3979)"><path
             d="m 0,0 c -0.148,0.053 -0.305,0.074 -0.461,0.069 0.103,-0.082 0.166,-0.224 0.11,-0.353 -0.011,-0.023 -0.022,-0.046 -0.034,-0.068 -0.07,-0.088 -0.185,-0.115 -0.293,-0.102 -0.061,0.012 -0.111,0.053 -0.155,0.096 -0.08,0.095 -0.069,0.228 -0.026,0.337 -0.141,-0.063 -0.265,-0.155 -0.384,-0.252 0.134,0.231 0.37,0.399 0.633,0.447 0.352,0.067 0.721,-0.041 1.013,-0.24 C 0.581,-0.19 0.747,-0.362 0.783,-0.584 0.567,-0.337 0.313,-0.111 0,0 M 0.748,-0.152 C 0.542,0.039 0.277,0.16 0.004,0.215 -0.245,0.268 -0.502,0.291 -0.755,0.256 -0.908,0.233 -1.061,0.193 -1.197,0.117 -1.355,0.004 -1.474,-0.182 -1.466,-0.382 c 0.007,-0.193 0.115,-0.365 0.239,-0.507 0.228,-0.25 0.53,-0.448 0.868,-0.506 0.255,-0.039 0.528,-0.033 0.763,0.086 0.217,0.104 0.418,0.282 0.477,0.524 0.055,0.214 0.038,0.475 -0.133,0.633"
             style="fill:#74b743;fill-opacity:1;fill-rule:nonzero;stroke:none"
             id="path61714"
             inkscape:connector-curvature="0" /></g><g
           id="g61716"
           transform="translate(20.7614,48.3909)"><path
             d="M 0,0 C 0.166,0.03 0.336,0.035 0.504,0.026 0.634,0.014 0.767,-0.004 0.885,-0.063 0.93,-0.087 0.982,-0.124 0.983,-0.181 0.977,-0.255 0.904,-0.293 0.847,-0.327 0.694,-0.393 0.527,-0.419 0.362,-0.436 0.219,-0.44 0.077,-0.44 -0.064,-0.42 c -0.115,0.023 -0.243,0.046 -0.326,0.134 -0.062,0.082 0.031,0.163 0.101,0.196 0.091,0.045 0.19,0.071 0.289,0.09"
             style="fill:#ed4792;fill-opacity:1;fill-rule:nonzero;stroke:none"
             id="path61718"
             inkscape:connector-curvature="0" /></g><g
           id="g61720"
           transform="translate(25.7399,47.7573)"><path
             d="M 0,0 C 0.038,0.063 0.119,0.074 0.186,0.081 0.414,0.097 0.642,0.054 0.862,-0.002 1.094,-0.064 1.326,-0.143 1.53,-0.274 1.598,-0.314 1.648,-0.375 1.691,-0.44 1.64,-0.568 1.484,-0.553 1.371,-0.56 1.076,-0.548 0.785,-0.478 0.508,-0.376 0.357,-0.318 0.206,-0.254 0.08,-0.151 0.038,-0.113 -0.016,-0.063 0,0"
             style="fill:#ed4792;fill-opacity:1;fill-rule:nonzero;stroke:none"
             id="path61722"
             inkscape:connector-curvature="0" /></g><g
           id="g61724"><g
             id="g61726" /><g
             id="g61732"><g
               clip-path="url(#clipPath61728)"
               id="g61734"
               style="opacity:0.53999299"><g
                 transform="translate(30.2945,47.8958)"
                 id="g61736"><path
                   d="M 0,0 C 0.023,-0.053 -0.09,-0.034 -0.036,0 -0.027,0 -0.009,0 0,0"
                   style="fill:#192112;fill-opacity:1;fill-rule:nonzero;stroke:none"
                   id="path61738"
                   inkscape:connector-curvature="0" /></g></g></g></g><g
           id="g61740"><g
             id="g61742" /><g
             id="g61748"><g
               clip-path="url(#clipPath61744)"
               id="g61750"
               style="opacity:0.38999903"><g
                 transform="translate(28.7769,47.6335)"
                 id="g61752"><path
                   d="M 0,0 C -0.011,-0.04 -0.091,-0.006 -0.047,0.02 -0.035,0.015 -0.012,0.005 0,0"
                   style="fill:#283719;fill-opacity:1;fill-rule:nonzero;stroke:none"
                   id="path61754"
                   inkscape:connector-curvature="0" /></g></g></g></g><g
           id="g61756"
           transform="translate(23.6459,47.1589)"><path
             d="M 0,0 C -0.104,0.064 -0.128,0.219 -0.257,0.25 -0.349,0.251 -0.418,0.182 -0.495,0.142 -0.581,0.091 -0.686,0.086 -0.782,0.103 c 0.066,-0.161 0.092,-0.334 0.134,-0.503 0.049,-0.165 0.107,-0.365 0.283,-0.434 0.116,-0.053 0.248,-0.001 0.335,0.082 0.136,0.132 0.219,0.305 0.3,0.473 0.027,0.06 0.055,0.119 0.082,0.179 C 0.228,-0.101 0.106,-0.062 0,0"
             style="fill:#ed4792;fill-opacity:1;fill-rule:nonzero;stroke:none"
             id="path61758"
             inkscape:connector-curvature="0" /></g></g></g></g></svg>